<svg width="54" height="16" viewBox="0 0 54 16" fill="none" xmlns="http://www.w3.org/2000/svg">
<path d="M6.52127 0.999999V15H3.92127V3.18H0.96127V0.999999H6.52127ZM12.6785 6.42C14.6518 6.42 16.1118 6.80667 17.0585 7.58C18.0051 8.34 18.4785 9.38 18.4785 10.7C18.4785 11.54 18.2718 12.3 17.8585 12.98C17.4451 13.66 16.8251 14.2 15.9985 14.6C15.1718 15 14.1518 15.2 12.9385 15.2C11.9385 15.2 10.9718 15.06 10.0385 14.78C9.10512 14.4867 8.31846 14.0867 7.67846 13.58L8.77846 11.56C9.29846 11.9867 9.91846 12.3267 10.6385 12.58C11.3718 12.82 12.1251 12.94 12.8985 12.94C13.8185 12.94 14.5385 12.7533 15.0585 12.38C15.5918 11.9933 15.8585 11.4667 15.8585 10.8C15.8585 10.08 15.5718 9.54 14.9985 9.18C14.4385 8.80667 13.4718 8.62 12.0985 8.62H8.71846L9.43846 0.999999H17.6585V3.18H11.6385L11.3385 6.42H12.6785ZM24.8181 15.2C23.6981 15.2 22.6981 14.92 21.8181 14.36C20.9381 13.7867 20.2448 12.96 19.7381 11.88C19.2315 10.7867 18.9781 9.49333 18.9781 8C18.9781 6.50667 19.2315 5.22 19.7381 4.14C20.2448 3.04667 20.9381 2.22 21.8181 1.66C22.6981 1.08667 23.6981 0.799999 24.8181 0.799999C25.9381 0.799999 26.9381 1.08667 27.8181 1.66C28.7115 2.22 29.4115 3.04667 29.9181 4.14C30.4248 5.22 30.6781 6.50667 30.6781 8C30.6781 9.49333 30.4248 10.7867 29.9181 11.88C29.4115 12.96 28.7115 13.7867 27.8181 14.36C26.9381 14.92 25.9381 15.2 24.8181 15.2ZM24.8181 12.94C25.8181 12.94 26.6048 12.5267 27.1781 11.7C27.7648 10.8733 28.0581 9.64 28.0581 8C28.0581 6.36 27.7648 5.12667 27.1781 4.3C26.6048 3.47333 25.8181 3.06 24.8181 3.06C23.8315 3.06 23.0448 3.47333 22.4581 4.3C21.8848 5.12667 21.5981 6.36 21.5981 8C21.5981 9.64 21.8848 10.8733 22.4581 11.7C23.0448 12.5267 23.8315 12.94 24.8181 12.94ZM37.2752 15.2C36.1552 15.2 35.1552 14.92 34.2752 14.36C33.3952 13.7867 32.7018 12.96 32.1952 11.88C31.6885 10.7867 31.4352 9.49333 31.4352 8C31.4352 6.50667 31.6885 5.22 32.1952 4.14C32.7018 3.04667 33.3952 2.22 34.2752 1.66C35.1552 1.08667 36.1552 0.799999 37.2752 0.799999C38.3952 0.799999 39.3952 1.08667 40.2752 1.66C41.1685 2.22 41.8685 3.04667 42.3752 4.14C42.8818 5.22 43.1352 6.50667 43.1352 8C43.1352 9.49333 42.8818 10.7867 42.3752 11.88C41.8685 12.96 41.1685 13.7867 40.2752 14.36C39.3952 14.92 38.3952 15.2 37.2752 15.2ZM37.2752 12.94C38.2752 12.94 39.0618 12.5267 39.6352 11.7C40.2218 10.8733 40.5152 9.64 40.5152 8C40.5152 6.36 40.2218 5.12667 39.6352 4.3C39.0618 3.47333 38.2752 3.06 37.2752 3.06C36.2885 3.06 35.5018 3.47333 34.9152 4.3C34.3418 5.12667 34.0552 6.36 34.0552 8C34.0552 9.64 34.3418 10.8733 34.9152 11.7C35.5018 12.5267 36.2885 12.94 37.2752 12.94ZM53.6299 9H50.0899V12.5H47.9499V9H44.4099V7H47.9499V3.5H50.0899V7H53.6299V9Z" fill="url(#paint0_linear_10220_13916)"/>
<defs>
<linearGradient id="paint0_linear_10220_13916" x1="-17.1575" y1="-8.73117" x2="39.2336" y2="10.5741" gradientUnits="userSpaceOnUse">
<stop stop-color="#1F00E2"/>
<stop offset="0.36" stop-color="#7551FF"/>
<stop offset="0.755" stop-color="#5000FF"/>
<stop offset="0.975" stop-color="#B960FF"/>
</linearGradient>
</defs>
</svg>
