<svg width="17" height="17" viewBox="0 0 17 17" fill="none" xmlns="http://www.w3.org/2000/svg">
<g clip-path="url(#clip0_6458_10488)">
<path d="M12.208 6.5V7.5H4.20801V6.5H12.208ZM10.208 2.5V3.5H4.20801V2.5H10.208ZM8.20801 14.5V9.5H12.208V14.5H8.20801ZM9.20801 10.5V13.5H11.208V10.5H9.20801ZM12.208 4.5V5.5H4.20801V4.5H12.208ZM2.20801 0.5H14.208V16.5H2.20801V0.5ZM13.208 15.5V1.5H3.20801V15.5H13.208ZM7.20801 13.5V14.5H4.20801V13.5H7.20801ZM7.20801 9.5V10.5H4.20801V9.5H7.20801ZM7.20801 11.5V12.5H4.20801V11.5H7.20801Z" fill="#4F4F4F"/>
</g>
<defs>
<clipPath id="clip0_6458_10488">
<rect width="16" height="16" fill="white" transform="translate(0.208008 0.5)"/>
</clipPath>
</defs>
</svg>
