<svg width="17" height="16" viewBox="0 0 17 16" fill="none" xmlns="http://www.w3.org/2000/svg">
<g clip-path="url(#clip0_6458_13563)">
<path d="M2.71592 1.45661C2.76014 1.45648 2.80436 1.4563 2.84858 1.4561C2.96923 1.45565 3.08987 1.45578 3.21053 1.45601C3.34098 1.45616 3.47144 1.45576 3.60189 1.45544C3.85714 1.45491 4.11238 1.45488 4.36762 1.45504C4.57517 1.45517 4.78271 1.45513 4.99026 1.45496C5.03464 1.45492 5.03464 1.45492 5.07991 1.45489C5.14002 1.45484 5.20013 1.45479 5.26024 1.45474C5.82342 1.45431 6.38659 1.45448 6.94977 1.45484C7.46448 1.45515 7.97918 1.45475 8.49388 1.454C9.02299 1.45324 9.55209 1.45294 10.0812 1.45315C10.378 1.45326 10.6748 1.45319 10.9716 1.45264C11.2243 1.45218 11.477 1.45216 11.7296 1.4527C11.8584 1.45297 11.9872 1.45304 12.116 1.45256C12.2341 1.45212 12.3522 1.45228 12.4703 1.45288C12.5328 1.45305 12.5953 1.45261 12.6578 1.45215C13.1677 1.45627 13.61 1.6362 13.9802 1.98703C14.326 2.35233 14.4987 2.7879 14.4982 3.28673C14.4984 3.31755 14.4986 3.34838 14.4989 3.38014C14.4994 3.48136 14.4996 3.58258 14.4996 3.68381C14.4998 3.75447 14.5 3.82512 14.5003 3.89578C14.5006 4.04357 14.5008 4.19135 14.5007 4.33913C14.5007 4.52842 14.5016 4.71769 14.5026 4.90698C14.5033 5.05277 14.5035 5.19855 14.5034 5.34434C14.5035 5.41413 14.5038 5.48393 14.5043 5.55373C14.5049 5.65126 14.5047 5.74876 14.5043 5.8463C14.5047 5.87504 14.505 5.90378 14.5054 5.93339C14.5037 6.1068 14.4798 6.20607 14.3641 6.34372C14.2404 6.45624 14.1074 6.4532 13.9473 6.44846C13.8293 6.43286 13.7635 6.39277 13.6766 6.31247C13.5829 6.15622 13.5829 6.15622 13.5829 5.49997C9.65383 5.49997 5.72476 5.49997 1.67664 5.49997C1.67922 6.51446 1.68179 7.52895 1.68445 8.57419C1.68494 8.89438 1.68544 9.21456 1.68595 9.54445C1.68698 9.83177 1.68698 9.83177 1.68819 10.1191C1.68872 10.2469 1.6889 10.3748 1.68887 10.5026C1.68885 10.6659 1.68942 10.8292 1.69042 10.9924C1.69069 11.0522 1.69075 11.112 1.69057 11.1718C1.68955 11.5697 1.70543 11.8924 1.99109 12.1971C2.16535 12.3492 2.36097 12.41 2.58908 12.4107C2.62965 12.411 2.67022 12.4112 2.71201 12.4114C2.75708 12.4115 2.80214 12.4116 2.8472 12.4116C2.89458 12.4118 2.94196 12.4121 2.98934 12.4123C3.09145 12.4127 3.19355 12.4131 3.29566 12.4134C3.45719 12.4139 3.61872 12.4146 3.78024 12.4154C4.2396 12.4177 4.69895 12.4195 5.15831 12.4211C5.41196 12.422 5.6656 12.4231 5.91924 12.4245C6.07972 12.4253 6.2402 12.4259 6.40068 12.4262C6.5007 12.4265 6.60071 12.427 6.70073 12.4276C6.747 12.4279 6.79327 12.428 6.83954 12.428C6.90288 12.4281 6.96623 12.4285 7.02958 12.429C7.06497 12.4291 7.10037 12.4292 7.13684 12.4294C7.29971 12.4423 7.4536 12.4674 7.56336 12.5957C7.66146 12.7222 7.68871 12.8413 7.67664 13C7.62844 13.1633 7.56945 13.2509 7.42664 13.3437C7.32219 13.3785 7.24364 13.3792 7.13355 13.3796C7.11324 13.3797 7.09292 13.3798 7.07199 13.3799C7.00377 13.3803 6.93555 13.3804 6.86733 13.3805C6.81846 13.3807 6.76959 13.3809 6.72072 13.3811C6.55999 13.3818 6.39926 13.3821 6.23853 13.3824C6.1831 13.3825 6.12767 13.3827 6.07224 13.3828C5.81158 13.3834 5.55092 13.3838 5.29025 13.3841C4.99007 13.3844 4.6899 13.3852 4.38972 13.3865C4.15733 13.3874 3.92495 13.3879 3.69256 13.388C3.55397 13.3881 3.41539 13.3884 3.2768 13.3891C3.14611 13.3899 3.01543 13.39 2.88474 13.3897C2.8371 13.3897 2.78946 13.3899 2.74182 13.3903C2.16341 13.3952 1.67616 13.2348 1.25122 12.8325C0.877115 12.4186 0.734442 11.9542 0.734539 11.4022C0.734424 11.367 0.734309 11.3319 0.734191 11.2956C0.733847 11.1778 0.733726 11.0599 0.733607 10.942C0.733428 10.8575 0.733204 10.773 0.732985 10.6885C0.732368 10.4349 0.732053 10.1812 0.731775 9.9276C0.731637 9.80797 0.73147 9.68833 0.731306 9.5687C0.730775 9.17066 0.730322 8.77261 0.730095 8.37457C0.730036 8.27136 0.729975 8.16815 0.729914 8.06494C0.729899 8.03929 0.729884 8.01364 0.729869 7.98721C0.72961 7.57219 0.728818 7.15717 0.727802 6.74214C0.726767 6.31541 0.726206 5.88869 0.726106 5.46196C0.726039 5.22262 0.725768 4.98329 0.724967 4.74396C0.724285 4.54002 0.724039 4.33609 0.724341 4.13216C0.724482 4.02829 0.724359 3.92445 0.723817 3.82058C0.720405 3.12812 0.759476 2.5364 1.2594 2.00888C1.68087 1.59932 2.13545 1.45391 2.71592 1.45661ZM1.86963 2.72434C1.4776 3.28818 1.67664 3.84111 1.67664 4.59372C5.6057 4.59372 9.53476 4.59372 13.5829 4.59372C13.6832 3.5063 13.6832 3.5063 13.2555 2.60935C13.0547 2.42899 12.8237 2.3712 12.5612 2.37086C12.5255 2.37074 12.4898 2.37062 12.453 2.3705C12.4139 2.37053 12.3748 2.37055 12.3345 2.37058C12.2924 2.3705 12.2504 2.37041 12.2083 2.3703C12.0928 2.37005 11.9772 2.36999 11.8617 2.36997C11.737 2.36991 11.6124 2.36968 11.4877 2.36947C11.2152 2.36904 10.9427 2.36885 10.6701 2.36871C10.4999 2.36863 10.3297 2.3685 10.1595 2.36836C9.68814 2.36797 9.21678 2.36765 8.74542 2.36755C8.70017 2.36754 8.70017 2.36754 8.65401 2.36753C8.62378 2.36752 8.59355 2.36751 8.56239 2.36751C8.50113 2.36749 8.43986 2.36748 8.3786 2.36746C8.33301 2.36745 8.33301 2.36745 8.2865 2.36744C7.79416 2.36732 7.30181 2.36677 6.80947 2.36605C6.30385 2.3653 5.79823 2.36492 5.29262 2.36488C5.00879 2.36485 4.72496 2.36467 4.44112 2.3641C4.19942 2.36362 3.95772 2.36346 3.71601 2.36372C3.59274 2.36384 3.46948 2.36381 3.34622 2.36337C3.23323 2.36298 3.12026 2.36301 3.00727 2.36339C2.94733 2.36348 2.88739 2.36311 2.82745 2.36272C2.46566 2.36479 2.11281 2.43378 1.86963 2.72434Z" fill="#4F4F4F"/>
<path d="M14.9896 7.56247C15.3445 7.82982 15.5777 8.18541 15.664 8.6235C15.7266 9.07919 15.6428 9.53421 15.3646 9.90622C15.1325 10.1733 14.8829 10.424 14.633 10.6742C14.5954 10.7118 14.5579 10.7495 14.5204 10.7872C14.4197 10.8883 14.3189 10.9893 14.2181 11.0903C14.1549 11.1535 14.0918 11.2168 14.0286 11.28C13.8306 11.4785 13.6326 11.6769 13.4344 11.8752C13.2065 12.1032 12.9787 12.3315 12.7512 12.5599C12.5745 12.7373 12.3977 12.9144 12.2207 13.0914C12.1153 13.1969 12.01 13.3024 11.9049 13.4081C11.8061 13.5073 11.7072 13.6063 11.6081 13.7052C11.5719 13.7414 11.5357 13.7776 11.4997 13.814C11.2418 14.074 11.0188 14.2831 10.6459 14.3457C10.6192 14.3505 10.5925 14.3554 10.5651 14.3603C10.5077 14.3707 10.4502 14.3807 10.3927 14.3905C10.299 14.4067 10.2056 14.4242 10.1122 14.4417C9.11352 14.625 9.11352 14.625 8.77085 14.4062C8.74314 14.3895 8.71542 14.3727 8.68687 14.3554C8.46871 14.1314 8.38489 13.8981 8.38777 13.592C8.404 13.3445 8.44892 13.1008 8.49237 12.8568C8.50912 12.7618 8.52483 12.6667 8.54051 12.5715C8.55123 12.5101 8.56201 12.4488 8.57286 12.3874C8.57736 12.3594 8.58186 12.3315 8.58649 12.3027C8.66296 11.8902 8.93841 11.6267 9.22498 11.3422C9.26481 11.3022 9.30461 11.2621 9.34438 11.2221C9.45186 11.1141 9.55973 11.0064 9.66769 10.8988C9.78104 10.7858 9.89407 10.6725 10.0072 10.5592C10.1971 10.369 10.3873 10.1791 10.5777 9.98937C10.7972 9.77055 11.0162 9.55129 11.235 9.33179C11.4235 9.14278 11.6121 8.95401 11.801 8.76544C11.9136 8.65307 12.0261 8.54062 12.1383 8.42794C12.244 8.32195 12.3499 8.21627 12.4561 8.11082C12.4948 8.07227 12.5334 8.03362 12.5719 7.99484C12.8348 7.73018 13.103 7.47286 13.4701 7.36325C13.5 7.35398 13.5299 7.34472 13.5606 7.33517C14.0525 7.20411 14.567 7.27549 14.9896 7.56247ZM13.4271 8.49997C13.4115 8.5154 13.3958 8.53082 13.3797 8.54672C13.2696 8.6553 13.1606 8.76484 13.0521 8.87497C13.2336 9.09744 13.4384 9.29602 13.6419 9.49801C13.6787 9.53465 13.7155 9.57129 13.7523 9.60794C13.8417 9.69703 13.9313 9.78603 14.0209 9.87497C14.1683 9.80846 14.2666 9.70444 14.3802 9.59176C14.401 9.57204 14.4217 9.55233 14.4431 9.53201C14.6194 9.35759 14.7399 9.17279 14.7533 8.91989C14.7427 8.71135 14.6716 8.52179 14.5209 8.37497C14.1184 8.08913 13.7639 8.16494 13.4271 8.49997ZM12.2541 9.66286C12.2304 9.68516 12.2067 9.70746 12.1823 9.73044C12.1431 9.76767 12.1431 9.76767 12.103 9.80566C12.0755 9.83159 12.0481 9.85752 12.0198 9.88424C11.7644 10.1263 11.5115 10.3709 11.2594 10.6165C11.0903 10.7812 10.9204 10.9449 10.7483 11.1064C9.72542 12.0118 9.72542 12.0118 9.32462 13.2656C9.3238 13.3544 9.32795 13.4426 9.33335 13.5312C9.33335 13.5622 9.33335 13.5931 9.33335 13.625C10.1416 13.5601 10.6436 13.4234 11.2087 12.8193C11.2839 12.7397 11.3612 12.6621 11.4382 12.5843C11.5828 12.4376 11.7256 12.2892 11.8678 12.1401C12.0301 11.97 12.1944 11.802 12.3589 11.634C12.6964 11.2894 13.0313 10.9424 13.3646 10.5937C13.322 10.5054 13.2819 10.4407 13.2123 10.3713C13.1943 10.3532 13.1762 10.3351 13.1577 10.3164C13.1285 10.2876 13.1285 10.2876 13.0989 10.2583C13.0789 10.2383 13.059 10.2184 13.0384 10.1978C12.9963 10.1559 12.9541 10.1139 12.9119 10.0721C12.847 10.0077 12.7823 9.94315 12.7177 9.87851C12.6768 9.83776 12.6359 9.79703 12.595 9.75631C12.5755 9.73688 12.556 9.71745 12.536 9.69743C12.3964 9.54496 12.3964 9.54496 12.2541 9.66286Z" fill="#4F4F4F"/>
<path d="M3.3643 3.09369C3.47168 3.15995 3.54577 3.2217 3.58305 3.34369C3.59915 3.50738 3.59228 3.6262 3.50163 3.76618C3.41951 3.85335 3.32412 3.88554 3.20805 3.90619C3.04184 3.90337 2.95062 3.86751 2.83305 3.74994C2.75372 3.61717 2.74956 3.49478 2.77055 3.34369C2.82636 3.22778 2.87562 3.17056 2.97953 3.09564C3.11675 3.05163 3.22571 3.05585 3.3643 3.09369Z" fill="#4F4F4F"/>
<path d="M6.14543 3.09394C6.23773 3.15128 6.31474 3.21381 6.36418 3.31269C6.38156 3.47107 6.38163 3.5915 6.30754 3.73457C6.22421 3.8298 6.167 3.8698 6.04387 3.90059C5.87405 3.90908 5.76285 3.85894 5.63371 3.75019C5.53831 3.63277 5.53949 3.52149 5.55168 3.37519C5.59813 3.23863 5.65485 3.16988 5.77824 3.09394C5.91339 3.05791 6.01242 3.04898 6.14543 3.09394Z" fill="#4F4F4F"/>
<path d="M4.73965 3.09366C4.84076 3.15074 4.91049 3.2231 4.97207 3.32218C5.00829 3.4952 4.98385 3.61321 4.8959 3.76163C4.77662 3.866 4.67899 3.90236 4.5209 3.90616C4.3588 3.86099 4.26318 3.80174 4.17715 3.65616C4.14062 3.52465 4.14108 3.4532 4.18106 3.32218C4.31044 3.0936 4.48763 3.02411 4.73965 3.09366Z" fill="#4F4F4F"/>
</g>
<defs>
<clipPath id="clip0_6458_13563">
<rect width="16" height="16" fill="white" transform="translate(0.208008)"/>
</clipPath>
</defs>
</svg>
