<svg width="17" height="17" viewBox="0 0 17 17" fill="none" xmlns="http://www.w3.org/2000/svg">
<path d="M2.1647 10.2868C2.21064 10.4551 2.32074 10.5987 2.47137 10.6868L3.7447 11.4268V12.8934C3.7447 13.0702 3.81494 13.2398 3.93996 13.3648C4.06499 13.4899 4.23456 13.5601 4.41137 13.5601H5.87803L6.61803 14.8334C6.6762 14.9342 6.75973 15.018 6.86031 15.0764C6.96089 15.1349 7.07503 15.1661 7.19137 15.1668C7.31102 15.1667 7.42846 15.1345 7.53137 15.0734L8.79803 14.3401L10.0714 15.0734C10.1471 15.1178 10.2308 15.1468 10.3177 15.1587C10.4046 15.1706 10.493 15.1653 10.5779 15.143C10.6627 15.1207 10.7423 15.0819 10.8121 15.0288C10.8819 14.9756 10.9406 14.9093 10.9847 14.8334L11.718 13.5601H13.1847C13.3615 13.5601 13.5311 13.4899 13.6561 13.3648C13.7811 13.2398 13.8514 13.0702 13.8514 12.8934V11.4268L15.1247 10.6868C15.2772 10.5988 15.3887 10.4541 15.4349 10.2843C15.4811 10.1144 15.4583 9.93317 15.3714 9.78009L14.6314 8.50009L15.3714 7.22676C15.4583 7.07368 15.4811 6.89244 15.4349 6.72258C15.3887 6.55273 15.2772 6.40804 15.1247 6.32009L13.8514 5.58676V4.12009C13.8514 3.94328 13.7811 3.77371 13.6561 3.64869C13.5311 3.52366 13.3615 3.45343 13.1847 3.45343H11.718L10.9847 2.18009C10.8951 2.02808 10.7488 1.9178 10.578 1.87343C10.4933 1.85067 10.405 1.84484 10.3181 1.85628C10.2311 1.86772 10.1473 1.8962 10.0714 1.94009L8.79137 2.67343L7.5247 1.94009C7.37243 1.85262 7.19179 1.82876 7.02203 1.87369C6.85226 1.91863 6.70709 2.02874 6.61803 2.18009L5.87803 3.45343H4.41137C4.23456 3.45343 4.06499 3.52366 3.93996 3.64869C3.81494 3.77371 3.7447 3.94328 3.7447 4.12009V5.58676L2.47803 6.32009C2.40164 6.36364 2.33462 6.42188 2.28083 6.49145C2.22704 6.56101 2.18755 6.64053 2.16462 6.72542C2.14169 6.81032 2.13579 6.89891 2.14724 6.98609C2.1587 7.07328 2.18729 7.15734 2.23137 7.23343L2.9647 8.50009L2.23137 9.77343C2.18659 9.85022 2.15763 9.9352 2.14618 10.0234C2.13473 10.1115 2.14103 10.2011 2.1647 10.2868ZM4.31137 8.17343L3.71803 7.16676L4.75137 6.56676C4.85089 6.50775 4.93334 6.42387 4.99061 6.32334C5.04789 6.22282 5.07801 6.10912 5.07803 5.99343V4.78676H6.2647C6.38217 4.78722 6.49768 4.75664 6.59954 4.69811C6.70139 4.63957 6.78596 4.55516 6.8447 4.45343L7.45803 3.42676L8.4847 4.02009C8.58605 4.0786 8.70101 4.10941 8.81803 4.10941C8.93506 4.10941 9.05002 4.0786 9.15137 4.02009L10.1847 3.42676L10.7914 4.45343C10.8501 4.55516 10.9347 4.63957 11.0365 4.69811C11.1384 4.75664 11.2539 4.78722 11.3714 4.78676H12.5514V5.97343C12.5521 6.08977 12.5832 6.2039 12.6417 6.30448C12.7002 6.40506 12.7839 6.48859 12.8847 6.54676L13.9114 7.14676L13.318 8.17343C13.2595 8.27477 13.2287 8.38973 13.2287 8.50676C13.2287 8.62378 13.2595 8.73875 13.318 8.84009L13.9114 9.86676L12.8847 10.4668C12.7839 10.5249 12.7002 10.6085 12.6417 10.709C12.5832 10.8096 12.5521 10.9238 12.5514 11.0401V12.2268H11.3314C11.215 12.2275 11.1009 12.2586 11.0003 12.3171C10.8997 12.3756 10.8162 12.4593 10.758 12.5601L10.1647 13.5868L9.13137 12.9934C9.03002 12.9349 8.91506 12.9041 8.79803 12.9041C8.68101 12.9041 8.56605 12.9349 8.4647 12.9934L7.45803 13.5868L6.8647 12.5601C6.80596 12.4584 6.72139 12.3739 6.61954 12.3154C6.51768 12.2569 6.40217 12.2263 6.2847 12.2268H5.07803V11.0401C5.07242 10.9301 5.03965 10.8232 4.98265 10.729C4.92564 10.6348 4.84618 10.5561 4.75137 10.5001L3.71803 9.90009L4.31137 8.87343C4.37626 8.76822 4.41063 8.64704 4.41063 8.52343C4.41063 8.39981 4.37626 8.27863 4.31137 8.17343Z" fill="#4F4F4F"/>
</svg>
