<svg width="17" height="17" viewBox="0 0 17 17" fill="none" xmlns="http://www.w3.org/2000/svg">
<mask id="path-1-outside-1_6458_10525" maskUnits="userSpaceOnUse" x="0.375" y="0.493652" width="16" height="16" fill="black">
<rect fill="white" x="0.375" y="0.493652" width="16" height="16"/>
<path d="M3.375 3.49985C3.375 2.96942 3.58571 2.46071 3.96079 2.08563C4.33586 1.71056 4.84457 1.49985 5.375 1.49985C5.90543 1.49985 6.41414 1.71056 6.78921 2.08563C7.16429 2.46071 7.375 2.96942 7.375 3.49985C7.375 4.03028 7.16429 4.53899 6.78921 4.91406C6.41414 5.28913 5.90543 5.49985 5.375 5.49985C4.84457 5.49985 4.33586 5.28913 3.96079 4.91406C3.58571 4.53899 3.375 4.03028 3.375 3.49985ZM5.375 2.49985C5.10978 2.49985 4.85543 2.60521 4.66789 2.79274C4.48036 2.98028 4.375 3.23463 4.375 3.49985C4.375 3.76506 4.48036 4.01942 4.66789 4.20696C4.85543 4.39449 5.10978 4.49985 5.375 4.49985C5.64022 4.49985 5.89457 4.39449 6.08211 4.20696C6.26964 4.01942 6.375 3.76506 6.375 3.49985C6.375 3.23463 6.26964 2.98028 6.08211 2.79274C5.89457 2.60521 5.64022 2.49985 5.375 2.49985ZM10.154 5.08385C9.94449 4.92404 9.76863 4.72441 9.63652 4.49643C9.5044 4.26844 9.41864 4.0166 9.38416 3.75537C9.34968 3.49414 9.36716 3.22866 9.43559 2.97421C9.50403 2.71975 9.62207 2.48133 9.78294 2.27264C9.94381 2.06394 10.1443 1.8891 10.373 1.75814C10.6016 1.62718 10.8539 1.5427 11.1153 1.50955C11.3767 1.47639 11.6421 1.49522 11.8962 1.56495C12.1503 1.63467 12.3881 1.75392 12.596 1.91585C13.0053 2.24325 13.2697 2.71824 13.3323 3.23862C13.395 3.75899 13.2508 4.28316 12.9309 4.69834C12.611 5.11352 12.1409 5.38653 11.6218 5.45863C11.1026 5.53073 10.5749 5.39615 10.154 5.08385ZM11.375 2.49985C11.1098 2.49985 10.8554 2.60521 10.6679 2.79274C10.4804 2.98028 10.375 3.23463 10.375 3.49985C10.375 3.76506 10.4804 4.01942 10.6679 4.20696C10.8554 4.39449 11.1098 4.49985 11.375 4.49985C11.6402 4.49985 11.8946 4.39449 12.0821 4.20696C12.2696 4.01942 12.375 3.76506 12.375 3.49985C12.375 3.23463 12.2696 2.98028 12.0821 2.79274C11.8946 2.60521 11.6402 2.49985 11.375 2.49985ZM2.875 6.49985H5.545C5.435 6.81285 5.375 7.14985 5.375 7.49985H2.875C2.74239 7.49985 2.61521 7.55253 2.52145 7.6463C2.42768 7.74006 2.375 7.86724 2.375 7.99985C2.375 8.81685 2.7 9.42285 3.213 9.83485C3.449 10.0248 3.732 10.1778 4.052 10.2898C3.81701 10.5396 3.63592 10.8351 3.52 11.1578C3.18413 11.0234 2.86978 10.8405 2.587 10.6148C1.835 10.0098 1.375 9.11585 1.375 7.99985C1.375 7.60202 1.53304 7.22049 1.81434 6.93919C2.09564 6.65788 2.47718 6.49985 2.875 6.49985ZM6.643 6.49985C6.37778 6.95947 6.30601 7.50562 6.44348 8.01816C6.58094 8.53069 6.91638 8.96763 7.376 9.23285C7.83562 9.49806 8.38177 9.56984 8.89431 9.43237C9.40685 9.29491 9.84378 8.95947 10.109 8.49985C10.3742 8.04023 10.446 7.49408 10.3085 6.98154C10.1711 6.469 9.83562 6.03207 9.376 5.76685C8.91638 5.50163 8.37023 5.42986 7.85769 5.56733C7.34515 5.70479 6.90822 6.04023 6.643 6.49985ZM8.151 6.52485C8.29752 6.49175 8.4496 6.49198 8.59601 6.52553C8.74243 6.55908 8.87944 6.62508 8.99693 6.71867C9.11442 6.81226 9.20939 6.93105 9.27483 7.06625C9.34027 7.20146 9.3745 7.34964 9.375 7.49985C9.375 7.57718 9.36667 7.65185 9.35 7.72385C9.30988 7.89776 9.22395 8.05776 9.10113 8.18725C8.9783 8.31674 8.82306 8.411 8.65151 8.46025C8.47997 8.5095 8.29836 8.51193 8.12556 8.46731C7.95275 8.42268 7.79503 8.33262 7.66878 8.20647C7.54252 8.08032 7.45233 7.92268 7.40756 7.74991C7.36279 7.57714 7.36508 7.39554 7.41418 7.22395C7.46328 7.05236 7.55741 6.89704 7.6868 6.77411C7.81619 6.65117 7.97712 6.56511 8.151 6.52485ZM13.536 9.83485C13.3 10.0248 13.017 10.1778 12.697 10.2898C12.9316 10.5397 13.1124 10.8352 13.228 11.1578C13.568 11.0188 13.883 10.8378 14.162 10.6148C14.915 10.0098 15.375 9.11585 15.375 7.99985C15.375 7.60202 15.217 7.22049 14.9357 6.93919C14.6544 6.65788 14.2728 6.49985 13.875 6.49985H11.205C11.315 6.81285 11.375 7.14985 11.375 7.49985H13.875C14.0076 7.49985 14.1348 7.55253 14.2286 7.6463C14.3223 7.74006 14.375 7.86724 14.375 7.99985C14.375 8.81685 14.049 9.42285 13.536 9.83485ZM10.875 10.4998C11.2728 10.4998 11.6544 10.6579 11.9357 10.9392C12.217 11.2205 12.375 11.602 12.375 11.9998C12.375 13.1158 11.916 14.0098 11.163 14.6148C10.422 15.2098 9.428 15.4998 8.375 15.4998C7.322 15.4998 6.328 15.2098 5.587 14.6148C4.835 14.0098 4.375 13.1158 4.375 11.9998C4.37447 11.8027 4.41291 11.6074 4.48811 11.4252C4.5633 11.243 4.67377 11.0774 4.81316 10.938C4.95256 10.7986 5.11812 10.6881 5.30035 10.613C5.48258 10.5378 5.67787 10.4993 5.875 10.4998H10.875ZM10.875 11.4998H5.875C5.74239 11.4998 5.61521 11.5525 5.52145 11.6463C5.42768 11.7401 5.375 11.8672 5.375 11.9998C5.375 12.8168 5.7 13.4228 6.213 13.8348C6.739 14.2568 7.495 14.4998 8.375 14.4998C9.255 14.4998 10.011 14.2568 10.537 13.8348C11.05 13.4228 11.375 12.8168 11.375 11.9998C11.375 11.8672 11.3223 11.7401 11.2286 11.6463C11.1348 11.5525 11.0076 11.4998 10.875 11.4998Z"/>
</mask>
<path d="M3.375 3.49985C3.375 2.96942 3.58571 2.46071 3.96079 2.08563C4.33586 1.71056 4.84457 1.49985 5.375 1.49985C5.90543 1.49985 6.41414 1.71056 6.78921 2.08563C7.16429 2.46071 7.375 2.96942 7.375 3.49985C7.375 4.03028 7.16429 4.53899 6.78921 4.91406C6.41414 5.28913 5.90543 5.49985 5.375 5.49985C4.84457 5.49985 4.33586 5.28913 3.96079 4.91406C3.58571 4.53899 3.375 4.03028 3.375 3.49985ZM5.375 2.49985C5.10978 2.49985 4.85543 2.60521 4.66789 2.79274C4.48036 2.98028 4.375 3.23463 4.375 3.49985C4.375 3.76506 4.48036 4.01942 4.66789 4.20696C4.85543 4.39449 5.10978 4.49985 5.375 4.49985C5.64022 4.49985 5.89457 4.39449 6.08211 4.20696C6.26964 4.01942 6.375 3.76506 6.375 3.49985C6.375 3.23463 6.26964 2.98028 6.08211 2.79274C5.89457 2.60521 5.64022 2.49985 5.375 2.49985ZM10.154 5.08385C9.94449 4.92404 9.76863 4.72441 9.63652 4.49643C9.5044 4.26844 9.41864 4.0166 9.38416 3.75537C9.34968 3.49414 9.36716 3.22866 9.43559 2.97421C9.50403 2.71975 9.62207 2.48133 9.78294 2.27264C9.94381 2.06394 10.1443 1.8891 10.373 1.75814C10.6016 1.62718 10.8539 1.5427 11.1153 1.50955C11.3767 1.47639 11.6421 1.49522 11.8962 1.56495C12.1503 1.63467 12.3881 1.75392 12.596 1.91585C13.0053 2.24325 13.2697 2.71824 13.3323 3.23862C13.395 3.75899 13.2508 4.28316 12.9309 4.69834C12.611 5.11352 12.1409 5.38653 11.6218 5.45863C11.1026 5.53073 10.5749 5.39615 10.154 5.08385ZM11.375 2.49985C11.1098 2.49985 10.8554 2.60521 10.6679 2.79274C10.4804 2.98028 10.375 3.23463 10.375 3.49985C10.375 3.76506 10.4804 4.01942 10.6679 4.20696C10.8554 4.39449 11.1098 4.49985 11.375 4.49985C11.6402 4.49985 11.8946 4.39449 12.0821 4.20696C12.2696 4.01942 12.375 3.76506 12.375 3.49985C12.375 3.23463 12.2696 2.98028 12.0821 2.79274C11.8946 2.60521 11.6402 2.49985 11.375 2.49985ZM2.875 6.49985H5.545C5.435 6.81285 5.375 7.14985 5.375 7.49985H2.875C2.74239 7.49985 2.61521 7.55253 2.52145 7.6463C2.42768 7.74006 2.375 7.86724 2.375 7.99985C2.375 8.81685 2.7 9.42285 3.213 9.83485C3.449 10.0248 3.732 10.1778 4.052 10.2898C3.81701 10.5396 3.63592 10.8351 3.52 11.1578C3.18413 11.0234 2.86978 10.8405 2.587 10.6148C1.835 10.0098 1.375 9.11585 1.375 7.99985C1.375 7.60202 1.53304 7.22049 1.81434 6.93919C2.09564 6.65788 2.47718 6.49985 2.875 6.49985ZM6.643 6.49985C6.37778 6.95947 6.30601 7.50562 6.44348 8.01816C6.58094 8.53069 6.91638 8.96763 7.376 9.23285C7.83562 9.49806 8.38177 9.56984 8.89431 9.43237C9.40685 9.29491 9.84378 8.95947 10.109 8.49985C10.3742 8.04023 10.446 7.49408 10.3085 6.98154C10.1711 6.469 9.83562 6.03207 9.376 5.76685C8.91638 5.50163 8.37023 5.42986 7.85769 5.56733C7.34515 5.70479 6.90822 6.04023 6.643 6.49985ZM8.151 6.52485C8.29752 6.49175 8.4496 6.49198 8.59601 6.52553C8.74243 6.55908 8.87944 6.62508 8.99693 6.71867C9.11442 6.81226 9.20939 6.93105 9.27483 7.06625C9.34027 7.20146 9.3745 7.34964 9.375 7.49985C9.375 7.57718 9.36667 7.65185 9.35 7.72385C9.30988 7.89776 9.22395 8.05776 9.10113 8.18725C8.9783 8.31674 8.82306 8.411 8.65151 8.46025C8.47997 8.5095 8.29836 8.51193 8.12556 8.46731C7.95275 8.42268 7.79503 8.33262 7.66878 8.20647C7.54252 8.08032 7.45233 7.92268 7.40756 7.74991C7.36279 7.57714 7.36508 7.39554 7.41418 7.22395C7.46328 7.05236 7.55741 6.89704 7.6868 6.77411C7.81619 6.65117 7.97712 6.56511 8.151 6.52485ZM13.536 9.83485C13.3 10.0248 13.017 10.1778 12.697 10.2898C12.9316 10.5397 13.1124 10.8352 13.228 11.1578C13.568 11.0188 13.883 10.8378 14.162 10.6148C14.915 10.0098 15.375 9.11585 15.375 7.99985C15.375 7.60202 15.217 7.22049 14.9357 6.93919C14.6544 6.65788 14.2728 6.49985 13.875 6.49985H11.205C11.315 6.81285 11.375 7.14985 11.375 7.49985H13.875C14.0076 7.49985 14.1348 7.55253 14.2286 7.6463C14.3223 7.74006 14.375 7.86724 14.375 7.99985C14.375 8.81685 14.049 9.42285 13.536 9.83485ZM10.875 10.4998C11.2728 10.4998 11.6544 10.6579 11.9357 10.9392C12.217 11.2205 12.375 11.602 12.375 11.9998C12.375 13.1158 11.916 14.0098 11.163 14.6148C10.422 15.2098 9.428 15.4998 8.375 15.4998C7.322 15.4998 6.328 15.2098 5.587 14.6148C4.835 14.0098 4.375 13.1158 4.375 11.9998C4.37447 11.8027 4.41291 11.6074 4.48811 11.4252C4.5633 11.243 4.67377 11.0774 4.81316 10.938C4.95256 10.7986 5.11812 10.6881 5.30035 10.613C5.48258 10.5378 5.67787 10.4993 5.875 10.4998H10.875ZM10.875 11.4998H5.875C5.74239 11.4998 5.61521 11.5525 5.52145 11.6463C5.42768 11.7401 5.375 11.8672 5.375 11.9998C5.375 12.8168 5.7 13.4228 6.213 13.8348C6.739 14.2568 7.495 14.4998 8.375 14.4998C9.255 14.4998 10.011 14.2568 10.537 13.8348C11.05 13.4228 11.375 12.8168 11.375 11.9998C11.375 11.8672 11.3223 11.7401 11.2286 11.6463C11.1348 11.5525 11.0076 11.4998 10.875 11.4998Z" fill="#4F4F4F"/>
<path d="M3.375 3.49985C3.375 2.96942 3.58571 2.46071 3.96079 2.08563C4.33586 1.71056 4.84457 1.49985 5.375 1.49985C5.90543 1.49985 6.41414 1.71056 6.78921 2.08563C7.16429 2.46071 7.375 2.96942 7.375 3.49985C7.375 4.03028 7.16429 4.53899 6.78921 4.91406C6.41414 5.28913 5.90543 5.49985 5.375 5.49985C4.84457 5.49985 4.33586 5.28913 3.96079 4.91406C3.58571 4.53899 3.375 4.03028 3.375 3.49985ZM5.375 2.49985C5.10978 2.49985 4.85543 2.60521 4.66789 2.79274C4.48036 2.98028 4.375 3.23463 4.375 3.49985C4.375 3.76506 4.48036 4.01942 4.66789 4.20696C4.85543 4.39449 5.10978 4.49985 5.375 4.49985C5.64022 4.49985 5.89457 4.39449 6.08211 4.20696C6.26964 4.01942 6.375 3.76506 6.375 3.49985C6.375 3.23463 6.26964 2.98028 6.08211 2.79274C5.89457 2.60521 5.64022 2.49985 5.375 2.49985ZM10.154 5.08385C9.94449 4.92404 9.76863 4.72441 9.63652 4.49643C9.5044 4.26844 9.41864 4.0166 9.38416 3.75537C9.34968 3.49414 9.36716 3.22866 9.43559 2.97421C9.50403 2.71975 9.62207 2.48133 9.78294 2.27264C9.94381 2.06394 10.1443 1.8891 10.373 1.75814C10.6016 1.62718 10.8539 1.5427 11.1153 1.50955C11.3767 1.47639 11.6421 1.49522 11.8962 1.56495C12.1503 1.63467 12.3881 1.75392 12.596 1.91585C13.0053 2.24325 13.2697 2.71824 13.3323 3.23862C13.395 3.75899 13.2508 4.28316 12.9309 4.69834C12.611 5.11352 12.1409 5.38653 11.6218 5.45863C11.1026 5.53073 10.5749 5.39615 10.154 5.08385ZM11.375 2.49985C11.1098 2.49985 10.8554 2.60521 10.6679 2.79274C10.4804 2.98028 10.375 3.23463 10.375 3.49985C10.375 3.76506 10.4804 4.01942 10.6679 4.20696C10.8554 4.39449 11.1098 4.49985 11.375 4.49985C11.6402 4.49985 11.8946 4.39449 12.0821 4.20696C12.2696 4.01942 12.375 3.76506 12.375 3.49985C12.375 3.23463 12.2696 2.98028 12.0821 2.79274C11.8946 2.60521 11.6402 2.49985 11.375 2.49985ZM2.875 6.49985H5.545C5.435 6.81285 5.375 7.14985 5.375 7.49985H2.875C2.74239 7.49985 2.61521 7.55253 2.52145 7.6463C2.42768 7.74006 2.375 7.86724 2.375 7.99985C2.375 8.81685 2.7 9.42285 3.213 9.83485C3.449 10.0248 3.732 10.1778 4.052 10.2898C3.81701 10.5396 3.63592 10.8351 3.52 11.1578C3.18413 11.0234 2.86978 10.8405 2.587 10.6148C1.835 10.0098 1.375 9.11585 1.375 7.99985C1.375 7.60202 1.53304 7.22049 1.81434 6.93919C2.09564 6.65788 2.47718 6.49985 2.875 6.49985ZM6.643 6.49985C6.37778 6.95947 6.30601 7.50562 6.44348 8.01816C6.58094 8.53069 6.91638 8.96763 7.376 9.23285C7.83562 9.49806 8.38177 9.56984 8.89431 9.43237C9.40685 9.29491 9.84378 8.95947 10.109 8.49985C10.3742 8.04023 10.446 7.49408 10.3085 6.98154C10.1711 6.469 9.83562 6.03207 9.376 5.76685C8.91638 5.50163 8.37023 5.42986 7.85769 5.56733C7.34515 5.70479 6.90822 6.04023 6.643 6.49985ZM8.151 6.52485C8.29752 6.49175 8.4496 6.49198 8.59601 6.52553C8.74243 6.55908 8.87944 6.62508 8.99693 6.71867C9.11442 6.81226 9.20939 6.93105 9.27483 7.06625C9.34027 7.20146 9.3745 7.34964 9.375 7.49985C9.375 7.57718 9.36667 7.65185 9.35 7.72385C9.30988 7.89776 9.22395 8.05776 9.10113 8.18725C8.9783 8.31674 8.82306 8.411 8.65151 8.46025C8.47997 8.5095 8.29836 8.51193 8.12556 8.46731C7.95275 8.42268 7.79503 8.33262 7.66878 8.20647C7.54252 8.08032 7.45233 7.92268 7.40756 7.74991C7.36279 7.57714 7.36508 7.39554 7.41418 7.22395C7.46328 7.05236 7.55741 6.89704 7.6868 6.77411C7.81619 6.65117 7.97712 6.56511 8.151 6.52485ZM13.536 9.83485C13.3 10.0248 13.017 10.1778 12.697 10.2898C12.9316 10.5397 13.1124 10.8352 13.228 11.1578C13.568 11.0188 13.883 10.8378 14.162 10.6148C14.915 10.0098 15.375 9.11585 15.375 7.99985C15.375 7.60202 15.217 7.22049 14.9357 6.93919C14.6544 6.65788 14.2728 6.49985 13.875 6.49985H11.205C11.315 6.81285 11.375 7.14985 11.375 7.49985H13.875C14.0076 7.49985 14.1348 7.55253 14.2286 7.6463C14.3223 7.74006 14.375 7.86724 14.375 7.99985C14.375 8.81685 14.049 9.42285 13.536 9.83485ZM10.875 10.4998C11.2728 10.4998 11.6544 10.6579 11.9357 10.9392C12.217 11.2205 12.375 11.602 12.375 11.9998C12.375 13.1158 11.916 14.0098 11.163 14.6148C10.422 15.2098 9.428 15.4998 8.375 15.4998C7.322 15.4998 6.328 15.2098 5.587 14.6148C4.835 14.0098 4.375 13.1158 4.375 11.9998C4.37447 11.8027 4.41291 11.6074 4.48811 11.4252C4.5633 11.243 4.67377 11.0774 4.81316 10.938C4.95256 10.7986 5.11812 10.6881 5.30035 10.613C5.48258 10.5378 5.67787 10.4993 5.875 10.4998H10.875ZM10.875 11.4998H5.875C5.74239 11.4998 5.61521 11.5525 5.52145 11.6463C5.42768 11.7401 5.375 11.8672 5.375 11.9998C5.375 12.8168 5.7 13.4228 6.213 13.8348C6.739 14.2568 7.495 14.4998 8.375 14.4998C9.255 14.4998 10.011 14.2568 10.537 13.8348C11.05 13.4228 11.375 12.8168 11.375 11.9998C11.375 11.8672 11.3223 11.7401 11.2286 11.6463C11.1348 11.5525 11.0076 11.4998 10.875 11.4998Z" stroke="#4F4F4F" stroke-width="0.4" mask="url(#path-1-outside-1_6458_10525)"/>
</svg>
