<svg width="17" height="17" viewBox="0 0 17 17" fill="none" xmlns="http://www.w3.org/2000/svg">
<path d="M8.375 13.1667C8.64722 13.1667 8.87744 13.0726 9.06567 12.8843C9.25389 12.6961 9.34774 12.4661 9.34722 12.1944C9.3467 11.9227 9.25259 11.6925 9.06489 11.5038C8.87718 11.315 8.64722 11.2212 8.375 11.2222C8.10278 11.2233 7.87256 11.3174 7.68433 11.5046C7.49611 11.6917 7.40226 11.9217 7.40278 12.1944C7.4033 12.4672 7.49741 12.6974 7.68511 12.8851C7.87281 13.0728 8.10278 13.1667 8.375 13.1667ZM7.675 10.1722H9.11389C9.11389 9.70555 9.16574 9.36204 9.26944 9.14167C9.37315 8.9213 9.59352 8.64259 9.93055 8.30555C10.3843 7.85185 10.705 7.47255 10.8927 7.16767C11.0804 6.86278 11.1745 6.51615 11.175 6.12778C11.175 5.44074 10.9417 4.8867 10.475 4.46567C10.0083 4.04463 9.37963 3.83385 8.58889 3.83333C7.87592 3.83333 7.27004 4.00833 6.77122 4.35833C6.27241 4.70833 5.92552 5.19444 5.73056 5.81667L7.01389 6.32222C7.10463 5.97222 7.28611 5.69041 7.55833 5.47678C7.83055 5.26315 8.14815 5.15607 8.51111 5.15555C8.86111 5.15555 9.15278 5.24967 9.38611 5.43789C9.61944 5.62611 9.73611 5.87552 9.73611 6.18611C9.73611 6.40648 9.66481 6.63981 9.52222 6.88611C9.37963 7.13241 9.13981 7.40463 8.80278 7.70278C8.375 8.0787 8.07996 8.43855 7.91767 8.78233C7.75537 9.12611 7.67448 9.58941 7.675 10.1722ZM2.93056 15.5C2.50278 15.5 2.1367 15.3478 1.83233 15.0434C1.52796 14.7391 1.37552 14.3727 1.375 13.9444V3.05556C1.375 2.62778 1.52744 2.2617 1.83233 1.95733C2.13722 1.65296 2.5033 1.50052 2.93056 1.5H13.8194C14.2472 1.5 14.6136 1.65244 14.9184 1.95733C15.2233 2.26222 15.3755 2.6283 15.375 3.05556V13.9444C15.375 14.3722 15.2228 14.7386 14.9184 15.0434C14.6141 15.3483 14.2477 15.5005 13.8194 15.5H2.93056ZM2.93056 13.9444H13.8194V3.05556H2.93056V13.9444Z" fill="#4F4F4F"/>
</svg>
