<svg width="17" height="17" viewBox="0 0 17 17" fill="none" xmlns="http://www.w3.org/2000/svg">
<path d="M10.791 4V10C10.791 10.1326 10.7383 10.2598 10.6446 10.3536C10.5508 10.4473 10.4236 10.5 10.291 10.5H7.79102C7.65841 10.5 7.53123 10.4473 7.43746 10.3536C7.34369 10.2598 7.29102 10.1326 7.29102 10V4C7.29102 3.86739 7.34369 3.74021 7.43746 3.64645C7.53123 3.55268 7.65841 3.5 7.79102 3.5H10.291C10.4236 3.5 10.5508 3.55268 10.6446 3.64645C10.7383 3.74021 10.791 3.86739 10.791 4ZM14.791 3.5H12.291C12.1584 3.5 12.0312 3.55268 11.9375 3.64645C11.8437 3.74021 11.791 3.86739 11.791 4V7.25C11.791 7.3163 11.8174 7.37989 11.8642 7.42678C11.9111 7.47366 11.9747 7.5 12.041 7.5H15.041C15.1073 7.5 15.1709 7.47366 15.2178 7.42678C15.2647 7.37989 15.291 7.3163 15.291 7.25V4C15.291 3.86739 15.2383 3.74021 15.1446 3.64645C15.0508 3.55268 14.9236 3.5 14.791 3.5ZM15.041 8.5H12.041C11.9747 8.5 11.9111 8.52634 11.8642 8.57322C11.8174 8.62011 11.791 8.6837 11.791 8.75V11.5C11.791 11.7652 11.8964 12.0196 12.0839 12.2071C12.2714 12.3946 12.5258 12.5 12.791 12.5H14.291C14.5562 12.5 14.8106 12.3946 14.9981 12.2071C15.1857 12.0196 15.291 11.7652 15.291 11.5V8.75C15.291 8.6837 15.2647 8.62011 15.2178 8.57322C15.1709 8.52634 15.1073 8.5 15.041 8.5ZM5.79102 3.5H3.29102C3.15841 3.5 3.03123 3.55268 2.93746 3.64645C2.84369 3.74021 2.79102 3.86739 2.79102 4V7.25C2.79102 7.3163 2.81735 7.37989 2.86424 7.42678C2.91112 7.47366 2.97471 7.5 3.04102 7.5H6.04102C6.10732 7.5 6.17091 7.47366 6.21779 7.42678C6.26468 7.37989 6.29102 7.3163 6.29102 7.25V4C6.29102 3.86739 6.23834 3.74021 6.14457 3.64645C6.0508 3.55268 5.92362 3.5 5.79102 3.5ZM6.04102 8.5H3.04102C2.97471 8.5 2.91112 8.52634 2.86424 8.57322C2.81735 8.62011 2.79102 8.6837 2.79102 8.75V13.5C2.79102 13.7652 2.89637 14.0196 3.08391 14.2071C3.27145 14.3946 3.5258 14.5 3.79102 14.5H5.29102C5.55623 14.5 5.81059 14.3946 5.99812 14.2071C6.18566 14.0196 6.29102 13.7652 6.29102 13.5V8.75C6.29102 8.6837 6.26468 8.62011 6.21779 8.57322C6.17091 8.52634 6.10732 8.5 6.04102 8.5Z" fill="#4F4F4F"/>
</svg>
