<svg width="17" height="17" viewBox="0 0 17 17" fill="none" xmlns="http://www.w3.org/2000/svg">
<g clip-path="url(#clip0_6458_10506)">
<path d="M12.4574 13.1668H15.4574M15.4574 13.1668L13.7907 11.5002M15.4574 13.1668L13.7907 14.8335M8.79069 1.8335L7.12402 3.50016L8.79069 5.16683" stroke="#4F4F4F" stroke-width="1.5" stroke-linecap="round" stroke-linejoin="round"/>
<path d="M7.79069 3.5C9.11677 3.5 10.3885 4.02678 11.3262 4.96447C12.2639 5.90215 12.7907 7.17392 12.7907 8.5C12.7907 9.82608 12.2639 11.0979 11.3262 12.0355C10.3885 12.9732 9.11677 13.5 7.79069 13.5H2.12402" stroke="#4F4F4F" stroke-width="1.5" stroke-linecap="round" stroke-linejoin="round"/>
<path d="M5.29502 4.16699C4.5337 4.6056 3.90141 5.23707 3.46182 5.99782C3.02223 6.75856 2.79086 7.62171 2.79102 8.50033C2.79102 9.62566 3.16302 10.6643 3.79102 11.5003" stroke="#4F4F4F" stroke-width="1.5" stroke-linecap="round" stroke-linejoin="round"/>
</g>
<defs>
<clipPath id="clip0_6458_10506">
<rect width="16" height="16" fill="white" transform="translate(0.791016 0.5)"/>
</clipPath>
</defs>
</svg>
