<svg width="217" height="30" viewBox="0 0 217 30" fill="none" xmlns="http://www.w3.org/2000/svg">
<g clip-path="url(#clip0_10220_13883)">
<rect x="187.549" y="0.336239" width="28.9166" height="29.3275" rx="5.04359" fill="url(#paint0_linear_10220_13883)"/>
<rect x="187.549" y="0.336239" width="28.9166" height="29.3275" rx="5.04359" stroke="white" stroke-width="0.672478"/>
<g clip-path="url(#clip1_10220_13883)">
<path d="M194.096 7.5V14.6918H209.918V7.5H194.096ZM202.726 11.8151H196.253V10.3767H202.726V11.8151ZM204.883 11.8151C204.741 11.8151 204.602 11.7729 204.484 11.6939C204.366 11.6148 204.273 11.5025 204.219 11.3711C204.165 11.2397 204.15 11.0951 204.178 10.9556C204.206 10.8161 204.274 10.6879 204.375 10.5874C204.475 10.4868 204.604 10.4183 204.743 10.3905C204.883 10.3628 205.027 10.377 205.159 10.4315C205.29 10.4859 205.402 10.5781 205.481 10.6963C205.56 10.8146 205.603 10.9537 205.603 11.0959C205.603 11.2866 205.527 11.4696 205.392 11.6044C205.257 11.7393 205.074 11.8151 204.883 11.8151ZM207.041 11.8151C206.899 11.8151 206.76 11.7729 206.641 11.6939C206.523 11.6148 206.431 11.5025 206.376 11.3711C206.322 11.2397 206.308 11.0951 206.336 10.9556C206.363 10.8161 206.432 10.6879 206.532 10.5874C206.633 10.4868 206.761 10.4183 206.901 10.3905C207.04 10.3628 207.185 10.377 207.316 10.4315C207.448 10.4859 207.56 10.5781 207.639 10.6963C207.718 10.8146 207.76 10.9537 207.76 11.0959C207.76 11.2866 207.684 11.4696 207.549 11.6044C207.415 11.7393 207.232 11.8151 207.041 11.8151ZM209.695 19.9921L210.515 19.2729L209.795 18.0288L208.753 18.3812C208.521 18.1872 208.259 18.034 207.976 17.9281L207.76 16.8493H206.322L206.106 17.9209C205.823 18.0268 205.561 18.18 205.329 18.374L204.286 18.0216L203.567 19.2658L204.387 19.9849C204.329 20.2842 204.329 20.5918 204.387 20.8911L203.567 21.6103L204.286 22.8545L205.329 22.5021C205.561 22.6961 205.823 22.8493 206.106 22.9551L206.322 24.0411H207.76L207.976 22.9695C208.259 22.8636 208.521 22.7104 208.753 22.5164L209.795 22.8688L210.515 21.6247L209.695 20.9055C209.752 20.6037 209.752 20.2939 209.695 19.9921ZM207.041 21.8836C206.756 21.8836 206.478 21.7992 206.242 21.6412C206.005 21.4831 205.821 21.2585 205.712 20.9956C205.603 20.7328 205.575 20.4436 205.63 20.1646C205.686 19.8856 205.823 19.6293 206.024 19.4281C206.225 19.227 206.481 19.09 206.76 19.0345C207.039 18.979 207.329 19.0075 207.591 19.1163C207.854 19.2252 208.079 19.4096 208.237 19.6461C208.395 19.8826 208.479 20.1607 208.479 20.4452C208.478 20.8263 208.326 21.1915 208.057 21.461C207.787 21.7305 207.422 21.8824 207.041 21.8836Z" fill="white"/>
<path d="M202.007 20.4459H196.253V19.0076H202.218C202.579 17.8026 203.378 16.7763 204.457 16.1309H194.096V23.3226H202.913C202.322 22.4797 202.006 21.4752 202.007 20.4459Z" fill="white"/>
</g>
<g filter="url(#filter0_d_10220_13883)">
<rect x="163.873" width="29.589" height="30" rx="5.37983" fill="url(#paint1_linear_10220_13883)"/>
<rect x="164.209" y="0.336239" width="28.9166" height="29.3275" rx="5.04359" stroke="white" stroke-width="0.672478"/>
<path fill-rule="evenodd" clip-rule="evenodd" d="M174.199 8.47502C174.199 8.35241 174.248 8.23481 174.335 8.14811C174.422 8.0614 174.539 8.0127 174.662 8.0127C174.784 8.0127 174.902 8.0614 174.989 8.14811C175.075 8.23481 175.124 8.35241 175.124 8.47502V8.93735H176.049C176.417 8.93735 176.769 9.08348 177.029 9.34359C177.29 9.6037 177.436 9.95649 177.436 10.3243C177.436 10.6922 177.29 11.045 177.029 11.3051C176.769 11.5652 176.417 11.7113 176.049 11.7113H175.124V12.1737H176.973V13.0983H175.124V14.4853H177.244L179.314 12.4155C178.858 11.7262 178.683 10.8888 178.824 10.0746C178.965 9.26041 179.413 8.53105 180.074 8.03581L182.012 9.97436L182.452 9.53514C182.538 9.44839 182.656 9.39963 182.778 9.39959C182.901 9.39954 183.019 9.44822 183.105 9.53491C183.192 9.6216 183.241 9.7392 183.241 9.86185C183.241 9.98449 183.192 10.1021 183.106 10.1889L182.666 10.6281L184.605 12.5662C184.419 12.8144 184.199 13.0347 183.951 13.2204C183.486 13.5674 182.937 13.7834 182.36 13.8457C181.783 13.908 181.2 13.8143 180.672 13.5745V14.4853H186.682V15.41H185.758V21.8826H186.22C186.343 21.8826 186.46 21.9313 186.547 22.018C186.634 22.1047 186.682 22.2223 186.682 22.3449C186.682 22.4675 186.634 22.5851 186.547 22.6718C186.46 22.7585 186.343 22.8072 186.22 22.8072H170.501C170.378 22.8072 170.261 22.7585 170.174 22.6718C170.087 22.5851 170.038 22.4675 170.038 22.3449C170.038 22.2223 170.087 22.1047 170.174 22.018C170.261 21.9313 170.378 21.8826 170.501 21.8826H170.963V15.41H170.038V14.4853H174.199V13.0983H172.35V12.1737H174.199V11.7113H173.275C172.907 11.7113 172.554 11.5652 172.294 11.3051C172.034 11.045 171.888 10.6922 171.888 10.3243C171.888 9.95649 172.034 9.6037 172.294 9.34359C172.554 9.08348 172.907 8.93735 173.275 8.93735H174.199V8.47502ZM179.747 13.2897L178.552 14.4853H179.747V13.2897ZM181.597 21.8826H183.908V18.1839H181.597V21.8826ZM173.275 9.86201H174.199V10.7867H173.275C173.152 10.7867 173.035 10.738 172.948 10.6513C172.861 10.5646 172.812 10.447 172.812 10.3243C172.812 10.2017 172.861 10.0841 172.948 9.99742C173.035 9.91072 173.152 9.86201 173.275 9.86201ZM176.049 9.86201H175.124V10.7867H176.049C176.171 10.7867 176.289 10.738 176.376 10.6513C176.462 10.5646 176.511 10.447 176.511 10.3243C176.511 10.2017 176.462 10.0841 176.376 9.99742C176.289 9.91072 176.171 9.86201 176.049 9.86201ZM183.287 12.5569C182.843 12.8504 182.31 12.9813 181.78 12.9276C181.25 12.8739 180.755 12.6388 180.378 12.262C180.002 11.8853 179.767 11.3901 179.713 10.86C179.659 10.33 179.79 9.79764 180.083 9.35299L183.287 12.5569ZM175.124 20.0332V18.1839H172.812V20.0332H175.124ZM178.36 20.0332V18.1839H176.049V20.0332H178.36Z" fill="white"/>
</g>
<g filter="url(#filter1_d_10220_13883)">
<rect x="140.534" width="29.589" height="30" rx="5.37983" fill="url(#paint2_linear_10220_13883)"/>
<rect x="140.87" y="0.336239" width="28.9166" height="29.3275" rx="5.04359" stroke="white" stroke-width="0.672478"/>
<g clip-path="url(#clip2_10220_13883)">
<path d="M161.633 9.17781C161.46 9.06563 161.261 8.99776 161.055 8.98017C160.85 8.96258 160.643 8.99581 160.453 9.07694L154.229 11.5281C154.082 11.5881 153.924 11.6189 153.765 11.6189H149.781C149.446 11.6189 149.125 11.7518 148.889 11.9882C148.653 12.2247 148.52 12.5454 148.52 12.8798V12.9807H147.259V16.0068H148.52V16.138C148.528 16.4671 148.664 16.7801 148.9 17.0101C149.135 17.24 149.451 17.3687 149.781 17.3686L151.294 20.5763C151.396 20.7923 151.557 20.9751 151.759 21.1035C151.961 21.232 152.194 21.301 152.434 21.3026H153.069C153.402 21.2999 153.72 21.1659 153.954 20.9297C154.188 20.6936 154.32 20.3744 154.32 20.0417V17.4896L160.453 19.9408C160.604 20.0009 160.765 20.0317 160.927 20.0316C161.179 20.0275 161.424 19.9505 161.633 19.8097C161.799 19.6977 161.936 19.5478 162.032 19.3723C162.129 19.1969 162.182 19.0011 162.188 18.801V10.2168C162.187 10.0115 162.136 9.80961 162.039 9.62854C161.942 9.44748 161.803 9.29276 161.633 9.17781ZM153.059 12.8798V16.138H149.781V12.8798H153.059ZM153.059 20.0417H152.423L151.183 17.3686H153.059V20.0417ZM154.693 16.2893C154.573 16.2281 154.448 16.1774 154.32 16.138V12.8092C154.447 12.7829 154.572 12.7458 154.693 12.6982L160.927 10.2168V18.7707L154.693 16.2893ZM162.218 13.2329V15.7547C162.552 15.7547 162.873 15.6218 163.11 15.3853C163.346 15.1489 163.479 14.8282 163.479 14.4938C163.479 14.1593 163.346 13.8386 163.11 13.6022C162.873 13.3657 162.552 13.2329 162.218 13.2329Z" fill="white"/>
</g>
</g>
<g filter="url(#filter2_d_10220_13883)">
<rect x="117.195" width="29.589" height="30" rx="5.37983" fill="url(#paint3_linear_10220_13883)"/>
<rect x="117.531" y="0.336239" width="28.9166" height="29.3275" rx="5.04359" stroke="white" stroke-width="0.672478"/>
<g clip-path="url(#clip3_10220_13883)">
<path d="M140.414 21.5287C140.414 21.8752 140.293 22.1694 140.051 22.4113L139.002 23.4704C138.747 23.7123 138.449 23.8333 138.109 23.8333C137.763 23.8333 137.468 23.7123 137.226 23.4704L133.667 19.9007C133.418 19.6653 133.294 19.3711 133.294 19.0181C133.294 18.6716 133.434 18.3577 133.716 18.0766L131.205 15.566L129.969 16.8017C129.878 16.8932 129.767 16.939 129.636 16.939C129.505 16.939 129.394 16.8932 129.302 16.8017C129.316 16.8148 129.356 16.854 129.425 16.9194C129.494 16.9848 129.535 17.0273 129.548 17.0469C129.561 17.0665 129.593 17.1041 129.646 17.1596C129.698 17.2152 129.731 17.2594 129.744 17.292C129.757 17.3247 129.776 17.3689 129.803 17.4244C129.829 17.48 129.847 17.5339 129.857 17.5863C129.866 17.6386 129.871 17.6974 129.871 17.7628C129.871 18.0112 129.78 18.2335 129.597 18.4296C129.577 18.4493 129.523 18.5081 129.435 18.6062C129.347 18.7042 129.284 18.7713 129.248 18.8072C129.213 18.8432 129.152 18.8971 129.067 18.969C128.982 19.041 128.91 19.0916 128.851 19.121C128.792 19.1505 128.721 19.1799 128.636 19.2093C128.551 19.2387 128.466 19.2534 128.381 19.2534C128.119 19.2534 127.897 19.1619 127.714 18.9788L123.712 14.9776C123.529 14.7945 123.438 14.5722 123.438 14.3107C123.438 14.2257 123.453 14.1407 123.482 14.0557C123.511 13.9707 123.541 13.8988 123.57 13.84C123.6 13.7811 123.65 13.7092 123.722 13.6242C123.794 13.5392 123.848 13.4788 123.884 13.4428C123.92 13.4068 123.987 13.3447 124.085 13.2565C124.183 13.1682 124.242 13.1143 124.262 13.0947C124.458 12.9116 124.68 12.8201 124.929 12.8201C124.994 12.8201 125.053 12.825 125.105 12.8348C125.157 12.8446 125.211 12.8626 125.267 12.8887C125.322 12.9149 125.367 12.9345 125.399 12.9476C125.432 12.9606 125.476 12.9933 125.532 13.0456C125.587 13.0979 125.625 13.1306 125.644 13.1437C125.664 13.1568 125.707 13.1976 125.772 13.2663C125.837 13.3349 125.877 13.3758 125.89 13.3889C125.798 13.2973 125.752 13.1862 125.752 13.0554C125.752 12.9247 125.798 12.8135 125.89 12.722L129.302 9.30917C129.394 9.21763 129.505 9.17187 129.636 9.17187C129.767 9.17187 129.878 9.21763 129.969 9.30917C129.956 9.29609 129.915 9.25686 129.847 9.19148C129.778 9.1261 129.737 9.0836 129.724 9.06399C129.711 9.04438 129.678 9.00678 129.626 8.95121C129.574 8.89564 129.541 8.85151 129.528 8.81882C129.515 8.78613 129.495 8.742 129.469 8.68642C129.443 8.63085 129.425 8.57691 129.415 8.52461C129.405 8.4723 129.401 8.41346 129.401 8.34808C129.401 8.09964 129.492 7.87735 129.675 7.68121C129.695 7.66159 129.749 7.60275 129.837 7.50468C129.925 7.40661 129.987 7.3396 130.023 7.30364C130.059 7.26768 130.12 7.21374 130.205 7.14182C130.29 7.06991 130.362 7.01924 130.42 6.98982C130.479 6.9604 130.551 6.93097 130.636 6.90155C130.721 6.87213 130.806 6.85742 130.891 6.85742C131.153 6.85742 131.375 6.94895 131.558 7.13202L135.559 11.1333C135.742 11.3163 135.834 11.5386 135.834 11.8001C135.834 11.8851 135.819 11.9701 135.79 12.0551C135.76 12.1401 135.731 12.212 135.701 12.2709C135.672 12.3297 135.621 12.4016 135.549 12.4866C135.478 12.5716 135.424 12.6321 135.388 12.6681C135.352 12.704 135.285 12.7661 135.187 12.8544C135.089 12.9426 135.03 12.9966 135.01 13.0162C134.814 13.1993 134.592 13.2908 134.343 13.2908C134.278 13.2908 134.219 13.2859 134.167 13.2761C134.114 13.2663 134.06 13.2483 134.005 13.2221C133.949 13.196 133.905 13.1764 133.872 13.1633C133.84 13.1502 133.796 13.1175 133.74 13.0652C133.685 13.0129 133.647 12.9802 133.627 12.9672C133.608 12.9541 133.565 12.9132 133.5 12.8446C133.434 12.7759 133.395 12.7351 133.382 12.722C133.474 12.8135 133.519 12.9247 133.519 13.0554C133.519 13.1862 133.474 13.2973 133.382 13.3889L132.146 14.6245L134.657 17.1351C134.938 16.854 135.252 16.7134 135.599 16.7134C135.938 16.7134 136.236 16.8344 136.491 17.0763L140.051 20.6362C140.293 20.8912 140.414 21.1887 140.414 21.5287Z" fill="white"/>
</g>
</g>
<g filter="url(#filter3_d_10220_13883)">
<rect x="93.8561" width="29.589" height="30" rx="5.37983" fill="url(#paint4_linear_10220_13883)"/>
<rect x="94.1923" y="0.336239" width="28.9166" height="29.3275" rx="5.04359" stroke="white" stroke-width="0.672478"/>
<path d="M103.72 8.01413V10.4799H101.254V8.01413H103.72ZM100.021 6.78125V11.7128H104.953V6.78125H100.021ZM109.884 9.86344V12.3292H107.418V9.86344H109.884ZM106.186 8.63056V13.5621H111.117V8.63056H106.186ZM103.72 15.4114V17.8771H101.254V15.4114H103.72ZM100.021 14.1785V19.11H104.953V14.1785H100.021Z" fill="white"/>
<path d="M112.35 11.7109V15.4096H108.651V19.1082H104.952V24.0397H117.281V11.7109H112.35ZM109.884 16.6424H112.35V19.1082H109.884V16.6424ZM108.651 22.8068H106.185V20.3411H108.651V22.8068ZM112.35 22.8068H109.884V20.3411H112.35V22.8068ZM116.048 22.8068H113.582V20.3411H116.048V22.8068ZM116.048 19.1082H113.582V16.6424H116.048V19.1082ZM113.582 15.4096V12.9438H116.048V15.4096H113.582Z" fill="white"/>
</g>
<g filter="url(#filter4_d_10220_13883)">
<rect x="70.5171" width="29.589" height="30" rx="5.37983" fill="url(#paint5_linear_10220_13883)"/>
<rect x="70.8533" y="0.336239" width="28.9166" height="29.3275" rx="5.04359" stroke="white" stroke-width="0.672478"/>
<g clip-path="url(#clip4_10220_13883)">
<path fill-rule="evenodd" clip-rule="evenodd" d="M85.9181 17.8164C86.5863 17.4291 87.1704 16.9121 87.6358 16.2958C87.4852 16.0632 87.3785 15.8049 87.3211 15.5338L87.2992 15.4324C87.2358 15.143 87.0878 14.879 86.8738 14.6741C86.6599 14.4692 86.3898 14.3327 86.098 14.2818C83.7093 13.8668 83.7093 10.4383 86.098 10.0222C86.3799 9.97321 86.6418 9.84412 86.8524 9.65032C87.0629 9.45653 87.2132 9.20622 87.2854 8.9293C86.7237 8.31723 86.0363 7.8338 85.2704 7.51214C84.5045 7.19047 83.678 7.03817 82.8478 7.06566C82.0175 7.09315 81.203 7.29978 80.46 7.67141C79.717 8.04304 79.0631 8.57087 78.5431 9.21876C78.0232 9.86664 77.6494 10.6193 77.4474 11.4251C77.2454 12.2309 77.22 13.0708 77.3729 13.8874C77.5257 14.7039 77.8533 15.4778 78.3332 16.1559C78.813 16.8341 79.4337 17.4005 80.1529 17.8164V19.164C80.1529 19.4698 80.2743 19.763 80.4905 19.9792C80.7067 20.1954 81 20.3169 81.3057 20.3169H84.7642C85.0699 20.3169 85.3631 20.1954 85.5793 19.9792C85.7955 19.763 85.917 19.4698 85.917 19.164L85.9181 17.8164ZM80.154 22.3343C80.154 22.105 80.2451 21.8851 80.4073 21.7229C80.5694 21.5608 80.7893 21.4697 81.0187 21.4697H85.0535C85.2828 21.4697 85.5028 21.5608 85.6649 21.7229C85.827 21.8851 85.9181 22.105 85.9181 22.3343C85.9181 22.5636 85.827 22.7835 85.6649 22.9457C85.5028 23.1078 85.2828 23.1989 85.0535 23.1989H81.0187C80.7893 23.1989 80.5694 23.1078 80.4073 22.9457C80.2451 22.7835 80.154 22.5636 80.154 22.3343ZM88.5466 9.03882C88.7575 8.07506 90.1294 8.0693 90.3484 9.03075L90.3588 9.07686L90.3795 9.16678C90.5033 9.69371 90.7792 10.1726 91.1729 10.544C91.5667 10.9154 92.0609 11.1629 92.5941 11.2557C93.5994 11.4309 93.5994 12.8742 92.5941 13.0495C92.0578 13.1428 91.5611 13.3925 91.1663 13.7673C90.7714 14.142 90.4961 14.625 90.3749 15.1557L90.3484 15.2733C90.1294 16.2359 88.7564 16.2301 88.5443 15.2652L88.5224 15.1649C88.4061 14.6325 88.134 14.1467 87.7406 13.7695C87.3472 13.3924 86.8504 13.1409 86.3136 13.0472C85.3094 12.8731 85.3094 11.4321 86.3136 11.2568C86.8485 11.1638 87.3439 10.9141 87.7369 10.5394C88.1299 10.1647 88.4028 9.68175 88.5212 9.15179L88.5385 9.07686L88.5466 9.03882Z" fill="white"/>
</g>
</g>
<g filter="url(#filter5_d_10220_13883)">
<path d="M47.1781 5.37983C47.1781 2.40863 49.5867 0 52.5579 0H71.3873C74.3585 0 76.7671 2.40863 76.7671 5.37983V24.6202C76.7671 27.5914 74.3585 30 71.3873 30H52.5579C49.5867 30 47.1781 27.5914 47.1781 24.6202V5.37983Z" fill="url(#paint6_linear_10220_13883)"/>
<path d="M52.558 0.335938H71.3871C74.1726 0.335938 76.431 2.59439 76.431 5.37988V24.6201C76.431 27.4056 74.1726 29.6641 71.3871 29.6641H52.558C49.7725 29.6641 47.514 27.4056 47.514 24.6201V5.37988C47.514 2.59439 49.7725 0.335938 52.558 0.335938Z" stroke="white" stroke-width="0.672478"/>
<g clip-path="url(#clip5_10220_13883)">
<path d="M57.7446 20.9151C58.7827 21.6704 60.0045 22.1333 61.2824 22.2554C62.5604 22.3776 63.8478 22.1545 65.0101 21.6095C66.1725 21.0645 67.1673 20.2176 67.8907 19.157C68.6142 18.0964 69.0397 16.8612 69.123 15.5801H62.1651L57.7446 20.9151Z" fill="white"/>
<path d="M69.1236 14.6822C69.1089 14.4404 69.082 14.1995 69.0429 13.9604H63.8693C63.5794 13.9629 63.294 13.889 63.0417 13.746C62.7895 13.6031 62.5794 13.3962 62.4325 13.1461C62.2857 12.8961 62.2074 12.6118 62.2054 12.3219C62.2034 12.032 62.2779 11.7467 62.4213 11.4947L64.2415 8.35644C62.7003 7.85832 61.0359 7.89645 59.5192 8.46461C58.0024 9.03278 56.7226 10.0975 55.888 11.4856C55.0534 12.8737 54.7131 14.5034 54.9225 16.1094C55.132 17.7155 55.8788 19.2034 57.0415 20.331L61.7443 14.6822H69.1236Z" fill="white"/>
<path d="M65.9399 7.57328L63.3755 11.9937C63.3158 12.0813 63.2816 12.1836 63.2765 12.2895C63.2715 12.3953 63.2958 12.5005 63.3469 12.5933C63.398 12.6862 63.4738 12.7631 63.5658 12.8155C63.6579 12.8679 63.7627 12.8938 63.8686 12.8903H69.0019C69.1078 12.8938 69.2126 12.8679 69.3047 12.8155C69.3968 12.7631 69.4725 12.6862 69.5236 12.5933C69.5747 12.5005 69.599 12.3953 69.594 12.2895C69.5889 12.1836 69.5547 12.0813 69.495 11.9937L66.9307 7.57328C66.8801 7.48678 66.8077 7.41502 66.7208 7.36516C66.6339 7.3153 66.5355 7.28906 66.4353 7.28906C66.3351 7.28906 66.2366 7.3153 66.1497 7.36516C66.0628 7.41502 65.9904 7.48678 65.9399 7.57328Z" fill="white"/>
</g>
</g>
<g filter="url(#filter6_d_10220_13883)">
<rect x="23.839" width="29.589" height="30" rx="5.37983" fill="url(#paint7_linear_10220_13883)"/>
<rect x="24.1752" y="0.336239" width="28.9166" height="29.3275" rx="5.04359" stroke="white" stroke-width="0.672478"/>
<path d="M31.5721 21.1844H45.6942V22.1931H31.5721V21.1844ZM44.1811 12.6103C44.3149 12.6103 44.4432 12.5572 44.5377 12.4626C44.6323 12.368 44.6855 12.2397 44.6855 12.1059V10.5929C44.6854 10.4892 44.6534 10.3881 44.5939 10.3033C44.5343 10.2184 44.4501 10.154 44.3526 10.1188L38.8046 8.10134C38.6938 8.06127 38.5725 8.06127 38.4617 8.10134L32.9137 10.1188C32.8163 10.154 32.732 10.2184 32.6724 10.3033C32.6129 10.3881 32.5809 10.4892 32.5809 10.5929V12.1059C32.5809 12.2397 32.634 12.368 32.7286 12.4626C32.8232 12.5572 32.9515 12.6103 33.0852 12.6103H33.5896V19.167H32.5809V20.1757H44.6855V19.167H43.6767V12.6103H44.1811ZM33.5896 10.9459L38.6332 9.11005L43.6767 10.9459V11.6016H33.5896V10.9459ZM39.6419 19.167H37.6244V12.6103H39.6419V19.167ZM34.5983 12.6103H36.6157V19.167H34.5983V12.6103ZM42.668 19.167H40.6506V12.6103H42.668V19.167Z" fill="white"/>
</g>
<g filter="url(#filter7_d_10220_13883)">
<rect x="0.5" width="29.589" height="30" rx="5.37983" fill="url(#paint8_linear_10220_13883)"/>
<rect x="0.836239" y="0.336239" width="28.9166" height="29.3275" rx="5.04359" stroke="white" stroke-width="0.672478"/>
<g clip-path="url(#clip6_10220_13883)">
<path fill-rule="evenodd" clip-rule="evenodd" d="M15.2798 8.79039C14.7979 8.78169 14.319 8.8681 13.8705 9.04469C13.4221 9.22129 13.0128 9.48458 12.6662 9.81952C12.3196 10.1545 12.0424 10.5545 11.8506 10.9966C11.6587 11.4388 11.556 11.9145 11.5482 12.3964V17.4365C11.5482 17.7423 11.4267 18.0355 11.2105 18.2517C10.9943 18.4679 10.7011 18.5894 10.3954 18.5894H8.95433C8.49571 18.5894 8.05587 18.4072 7.73158 18.0829C7.40728 17.7586 7.2251 17.3187 7.2251 16.8601V14.5545C7.2251 14.0959 7.40728 13.656 7.73158 13.3317C8.05587 13.0074 8.49571 12.8253 8.95433 12.8253H9.81894V12.3757C9.82946 11.6671 9.97945 10.9676 10.2603 10.3171C10.5412 9.6665 10.9475 9.07765 11.456 8.58413C11.9645 8.09062 12.5653 7.70211 13.2239 7.4408C13.8826 7.17949 14.5863 7.05048 15.2948 7.06116C16.0034 7.05048 16.7071 7.17949 17.3657 7.4408C18.0244 7.70211 18.6251 8.09062 19.1336 8.58413C19.6421 9.07765 20.0484 9.6665 20.3293 10.3171C20.6102 10.9676 20.7602 11.6671 20.7707 12.3757V12.8253H21.6353C22.094 12.8253 22.5338 13.0074 22.8581 13.3317C23.1824 13.656 23.3646 14.0959 23.3646 14.5545V16.8601C23.3646 17.3187 23.1824 17.7586 22.8581 18.0829C22.5338 18.4072 22.094 18.5894 21.6353 18.5894H20.7707V19.1658C20.7709 19.9448 20.4842 20.6966 19.9654 21.2777C19.4465 21.8589 18.7319 22.2286 17.9579 22.3164C17.8075 22.5848 17.5883 22.8082 17.3229 22.9637C17.0574 23.1191 16.7553 23.2009 16.4477 23.2006H14.7184C14.2598 23.2006 13.82 23.0184 13.4957 22.6942C13.1714 22.3699 12.9892 21.93 12.9892 21.4714C12.9892 21.0128 13.1714 20.5729 13.4957 20.2487C13.82 19.9244 14.2598 19.7422 14.7184 19.7422H16.4477C17.0725 19.7422 17.6201 20.073 17.9233 20.5699C18.241 20.4969 18.5246 20.3182 18.7277 20.0632C18.9308 19.8082 19.0414 19.4918 19.0415 19.1658V12.3953C19.0336 11.9108 18.9297 11.4328 18.736 10.9888C18.5422 10.5447 18.2623 10.1435 17.9125 9.80829C17.5627 9.47308 17.1499 9.21053 16.6981 9.03581C16.2462 8.86109 15.7642 8.77768 15.2798 8.79039Z" fill="white"/>
</g>
</g>
</g>
<defs>
<filter id="filter0_d_10220_13883" x="162.873" y="-4" width="39.589" height="40" filterUnits="userSpaceOnUse" color-interpolation-filters="sRGB">
<feFlood flood-opacity="0" result="BackgroundImageFix"/>
<feColorMatrix in="SourceAlpha" type="matrix" values="0 0 0 0 0 0 0 0 0 0 0 0 0 0 0 0 0 0 127 0" result="hardAlpha"/>
<feOffset dx="4" dy="1"/>
<feGaussianBlur stdDeviation="2.5"/>
<feComposite in2="hardAlpha" operator="out"/>
<feColorMatrix type="matrix" values="0 0 0 0 0 0 0 0 0 0 0 0 0 0 0 0 0 0 0.25 0"/>
<feBlend mode="normal" in2="BackgroundImageFix" result="effect1_dropShadow_10220_13883"/>
<feBlend mode="normal" in="SourceGraphic" in2="effect1_dropShadow_10220_13883" result="shape"/>
</filter>
<filter id="filter1_d_10220_13883" x="139.534" y="-4" width="39.589" height="40" filterUnits="userSpaceOnUse" color-interpolation-filters="sRGB">
<feFlood flood-opacity="0" result="BackgroundImageFix"/>
<feColorMatrix in="SourceAlpha" type="matrix" values="0 0 0 0 0 0 0 0 0 0 0 0 0 0 0 0 0 0 127 0" result="hardAlpha"/>
<feOffset dx="4" dy="1"/>
<feGaussianBlur stdDeviation="2.5"/>
<feComposite in2="hardAlpha" operator="out"/>
<feColorMatrix type="matrix" values="0 0 0 0 0 0 0 0 0 0 0 0 0 0 0 0 0 0 0.25 0"/>
<feBlend mode="normal" in2="BackgroundImageFix" result="effect1_dropShadow_10220_13883"/>
<feBlend mode="normal" in="SourceGraphic" in2="effect1_dropShadow_10220_13883" result="shape"/>
</filter>
<filter id="filter2_d_10220_13883" x="116.195" y="-4" width="39.589" height="40" filterUnits="userSpaceOnUse" color-interpolation-filters="sRGB">
<feFlood flood-opacity="0" result="BackgroundImageFix"/>
<feColorMatrix in="SourceAlpha" type="matrix" values="0 0 0 0 0 0 0 0 0 0 0 0 0 0 0 0 0 0 127 0" result="hardAlpha"/>
<feOffset dx="4" dy="1"/>
<feGaussianBlur stdDeviation="2.5"/>
<feComposite in2="hardAlpha" operator="out"/>
<feColorMatrix type="matrix" values="0 0 0 0 0 0 0 0 0 0 0 0 0 0 0 0 0 0 0.25 0"/>
<feBlend mode="normal" in2="BackgroundImageFix" result="effect1_dropShadow_10220_13883"/>
<feBlend mode="normal" in="SourceGraphic" in2="effect1_dropShadow_10220_13883" result="shape"/>
</filter>
<filter id="filter3_d_10220_13883" x="92.8561" y="-4" width="39.589" height="40" filterUnits="userSpaceOnUse" color-interpolation-filters="sRGB">
<feFlood flood-opacity="0" result="BackgroundImageFix"/>
<feColorMatrix in="SourceAlpha" type="matrix" values="0 0 0 0 0 0 0 0 0 0 0 0 0 0 0 0 0 0 127 0" result="hardAlpha"/>
<feOffset dx="4" dy="1"/>
<feGaussianBlur stdDeviation="2.5"/>
<feComposite in2="hardAlpha" operator="out"/>
<feColorMatrix type="matrix" values="0 0 0 0 0 0 0 0 0 0 0 0 0 0 0 0 0 0 0.25 0"/>
<feBlend mode="normal" in2="BackgroundImageFix" result="effect1_dropShadow_10220_13883"/>
<feBlend mode="normal" in="SourceGraphic" in2="effect1_dropShadow_10220_13883" result="shape"/>
</filter>
<filter id="filter4_d_10220_13883" x="69.5171" y="-4" width="39.589" height="40" filterUnits="userSpaceOnUse" color-interpolation-filters="sRGB">
<feFlood flood-opacity="0" result="BackgroundImageFix"/>
<feColorMatrix in="SourceAlpha" type="matrix" values="0 0 0 0 0 0 0 0 0 0 0 0 0 0 0 0 0 0 127 0" result="hardAlpha"/>
<feOffset dx="4" dy="1"/>
<feGaussianBlur stdDeviation="2.5"/>
<feComposite in2="hardAlpha" operator="out"/>
<feColorMatrix type="matrix" values="0 0 0 0 0 0 0 0 0 0 0 0 0 0 0 0 0 0 0.25 0"/>
<feBlend mode="normal" in2="BackgroundImageFix" result="effect1_dropShadow_10220_13883"/>
<feBlend mode="normal" in="SourceGraphic" in2="effect1_dropShadow_10220_13883" result="shape"/>
</filter>
<filter id="filter5_d_10220_13883" x="46.1781" y="-4" width="39.589" height="40" filterUnits="userSpaceOnUse" color-interpolation-filters="sRGB">
<feFlood flood-opacity="0" result="BackgroundImageFix"/>
<feColorMatrix in="SourceAlpha" type="matrix" values="0 0 0 0 0 0 0 0 0 0 0 0 0 0 0 0 0 0 127 0" result="hardAlpha"/>
<feOffset dx="4" dy="1"/>
<feGaussianBlur stdDeviation="2.5"/>
<feComposite in2="hardAlpha" operator="out"/>
<feColorMatrix type="matrix" values="0 0 0 0 0 0 0 0 0 0 0 0 0 0 0 0 0 0 0.25 0"/>
<feBlend mode="normal" in2="BackgroundImageFix" result="effect1_dropShadow_10220_13883"/>
<feBlend mode="normal" in="SourceGraphic" in2="effect1_dropShadow_10220_13883" result="shape"/>
</filter>
<filter id="filter6_d_10220_13883" x="22.839" y="-4" width="39.589" height="40" filterUnits="userSpaceOnUse" color-interpolation-filters="sRGB">
<feFlood flood-opacity="0" result="BackgroundImageFix"/>
<feColorMatrix in="SourceAlpha" type="matrix" values="0 0 0 0 0 0 0 0 0 0 0 0 0 0 0 0 0 0 127 0" result="hardAlpha"/>
<feOffset dx="4" dy="1"/>
<feGaussianBlur stdDeviation="2.5"/>
<feComposite in2="hardAlpha" operator="out"/>
<feColorMatrix type="matrix" values="0 0 0 0 0 0 0 0 0 0 0 0 0 0 0 0 0 0 0.25 0"/>
<feBlend mode="normal" in2="BackgroundImageFix" result="effect1_dropShadow_10220_13883"/>
<feBlend mode="normal" in="SourceGraphic" in2="effect1_dropShadow_10220_13883" result="shape"/>
</filter>
<filter id="filter7_d_10220_13883" x="-0.5" y="-4" width="39.589" height="40" filterUnits="userSpaceOnUse" color-interpolation-filters="sRGB">
<feFlood flood-opacity="0" result="BackgroundImageFix"/>
<feColorMatrix in="SourceAlpha" type="matrix" values="0 0 0 0 0 0 0 0 0 0 0 0 0 0 0 0 0 0 127 0" result="hardAlpha"/>
<feOffset dx="4" dy="1"/>
<feGaussianBlur stdDeviation="2.5"/>
<feComposite in2="hardAlpha" operator="out"/>
<feColorMatrix type="matrix" values="0 0 0 0 0.4875 0 0 0 0 0.4875 0 0 0 0 0.4875 0 0 0 0.25 0"/>
<feBlend mode="normal" in2="BackgroundImageFix" result="effect1_dropShadow_10220_13883"/>
<feBlend mode="normal" in="SourceGraphic" in2="effect1_dropShadow_10220_13883" result="shape"/>
</filter>
<linearGradient id="paint0_linear_10220_13883" x1="202.007" y1="0" x2="202.007" y2="30" gradientUnits="userSpaceOnUse">
<stop stop-color="#C8D8FF"/>
<stop offset="1" stop-color="#7F96CC"/>
</linearGradient>
<linearGradient id="paint1_linear_10220_13883" x1="178.668" y1="0" x2="178.668" y2="30" gradientUnits="userSpaceOnUse">
<stop stop-color="#EBC0FD"/>
<stop offset="1" stop-color="#8C7397"/>
</linearGradient>
<linearGradient id="paint2_linear_10220_13883" x1="155.329" y1="0" x2="155.329" y2="30" gradientUnits="userSpaceOnUse">
<stop stop-color="#FFDEB9"/>
<stop offset="1" stop-color="#C26800"/>
</linearGradient>
<linearGradient id="paint3_linear_10220_13883" x1="131.99" y1="0" x2="131.99" y2="30" gradientUnits="userSpaceOnUse">
<stop stop-color="#DCD7FF"/>
<stop offset="1" stop-color="#6B57F5"/>
</linearGradient>
<linearGradient id="paint4_linear_10220_13883" x1="108.651" y1="0" x2="108.651" y2="30" gradientUnits="userSpaceOnUse">
<stop stop-color="#82E2AA"/>
<stop offset="1" stop-color="#0D7A3A"/>
</linearGradient>
<linearGradient id="paint5_linear_10220_13883" x1="85.3116" y1="0" x2="85.3116" y2="30" gradientUnits="userSpaceOnUse">
<stop stop-color="#FFDFC3"/>
<stop offset="1" stop-color="#B15300"/>
</linearGradient>
<linearGradient id="paint6_linear_10220_13883" x1="61.9726" y1="0" x2="61.9726" y2="30" gradientUnits="userSpaceOnUse">
<stop stop-color="#70D1E5"/>
<stop offset="1" stop-color="#006377"/>
</linearGradient>
<linearGradient id="paint7_linear_10220_13883" x1="38.6335" y1="0" x2="38.6335" y2="30" gradientUnits="userSpaceOnUse">
<stop stop-color="#FABDAA"/>
<stop offset="1" stop-color="#F53D00"/>
</linearGradient>
<linearGradient id="paint8_linear_10220_13883" x1="15.2945" y1="0" x2="15.2945" y2="30" gradientUnits="userSpaceOnUse">
<stop stop-color="#89C9B8"/>
<stop offset="1" stop-color="#00694E"/>
</linearGradient>
<clipPath id="clip0_10220_13883">
<rect width="216.301" height="30" fill="white" transform="translate(0.5)"/>
</clipPath>
<clipPath id="clip1_10220_13883">
<rect width="17.2603" height="17.2603" fill="white" transform="translate(193.377 6.78125)"/>
</clipPath>
<clipPath id="clip2_10220_13883">
<rect width="16.1395" height="16.1395" fill="white" transform="translate(147.259 7.06055)"/>
</clipPath>
<clipPath id="clip3_10220_13883">
<rect width="17.2603" height="17.2603" fill="white" transform="translate(123.359 6.78125)"/>
</clipPath>
<clipPath id="clip4_10220_13883">
<rect width="16.1395" height="16.1395" fill="white" transform="translate(77.2422 7.06055)"/>
</clipPath>
<clipPath id="clip5_10220_13883">
<rect width="16.1395" height="16.1395" fill="white" transform="translate(53.9028 7.06055)"/>
</clipPath>
<clipPath id="clip6_10220_13883">
<rect width="16.1395" height="16.1395" fill="white" transform="translate(7.2251 7.05957)"/>
</clipPath>
</defs>
</svg>
