<svg width="17" height="16" viewBox="0 0 17 16" fill="none" xmlns="http://www.w3.org/2000/svg">
<g clip-path="url(#clip0_6458_13575)">
<path d="M3.14521 3.05057C3.20438 3.05045 3.26355 3.05028 3.32272 3.05008C3.48238 3.04965 3.64204 3.04981 3.8017 3.05011C3.96914 3.05035 4.13659 3.05013 4.30404 3.04998C4.58495 3.04981 4.86587 3.05004 5.14678 3.05048C5.47142 3.05099 5.79605 3.05083 6.12069 3.05031C6.39987 3.04989 6.67904 3.04983 6.95822 3.05007C7.12478 3.05022 7.29133 3.05024 7.45789 3.04993C7.6143 3.04966 7.77072 3.04984 7.92713 3.05039C7.9845 3.05051 8.04187 3.05047 8.09924 3.05027C8.17757 3.05001 8.25589 3.05033 8.33422 3.0508C8.35688 3.05059 8.37955 3.05038 8.4029 3.05017C8.54821 3.05185 8.64777 3.07892 8.77071 3.15646C8.87862 3.29844 8.91663 3.40888 8.9078 3.58736C8.88265 3.73114 8.82005 3.83729 8.70274 3.92743C8.59324 3.97894 8.4982 3.98206 8.37969 3.98099C8.35632 3.98116 8.33295 3.98132 8.30887 3.98149C8.23069 3.98193 8.15253 3.9817 8.07435 3.98147C8.01823 3.98165 7.96212 3.98188 7.906 3.98214C7.78519 3.98261 7.66439 3.98279 7.54357 3.98274C7.35234 3.98268 7.1611 3.98329 6.96987 3.984C6.59816 3.98528 6.22645 3.98586 5.85474 3.98638C5.38229 3.98708 4.90984 3.98813 4.43739 3.98973C4.24752 3.99035 4.05765 3.99065 3.86777 3.9907C3.74928 3.99078 3.63079 3.99112 3.51229 3.99153C3.45761 3.99166 3.40293 3.99169 3.34825 3.9916C2.85356 3.99089 2.39997 4.01437 2.0173 4.36593C1.80296 4.62632 1.70345 4.92189 1.70382 5.25397C1.70373 5.27976 1.70364 5.30555 1.70354 5.33212C1.70327 5.41867 1.70322 5.50522 1.70318 5.59177C1.70303 5.65378 1.70288 5.71579 1.70271 5.7778C1.7023 5.9464 1.7021 6.11499 1.70196 6.28358C1.70187 6.38894 1.70174 6.49431 1.7016 6.59968C1.70117 6.92945 1.70087 7.25922 1.70075 7.58899C1.70061 7.96946 1.70006 8.34992 1.69915 8.73038C1.69848 9.02457 1.69816 9.31876 1.69812 9.61296C1.69809 9.78861 1.6979 9.96425 1.69735 10.1399C1.69683 10.3052 1.69676 10.4706 1.69704 10.6359C1.69706 10.6965 1.69693 10.757 1.69662 10.8175C1.68726 11.3418 1.68726 11.3418 1.89962 11.8108C1.95608 11.8881 1.99006 11.9395 2.02071 12.0315C2.07734 12.0647 2.07734 12.0647 2.14571 12.094C2.22078 12.1409 2.29542 12.1885 2.36983 12.2365C2.55727 12.3318 2.74638 12.3532 2.95401 12.3519C2.98874 12.3521 2.98874 12.3521 3.02417 12.3523C3.07398 12.3525 3.12378 12.3526 3.17359 12.3525C3.25256 12.3525 3.33153 12.3529 3.41051 12.3534C3.63488 12.3549 3.85925 12.3557 4.08363 12.3559C4.2213 12.356 4.35896 12.3568 4.49663 12.3579C4.54887 12.3582 4.60111 12.3583 4.65335 12.3581C4.72648 12.3579 4.79958 12.3584 4.87271 12.3591C4.90469 12.3588 4.90469 12.3588 4.93732 12.3584C5.10464 12.3612 5.19859 12.4073 5.33321 12.5002C5.49247 12.6759 5.47176 12.907 5.46249 13.129C5.46107 13.1825 5.46107 13.1824 5.45962 13.237C5.45651 13.3501 5.45252 13.4633 5.44845 13.5764C5.44489 13.6903 5.44151 13.8042 5.43828 13.9181C5.43621 13.9889 5.43392 14.0596 5.43139 14.1303C5.43036 14.162 5.42933 14.1938 5.42827 14.2265C5.42727 14.2545 5.42626 14.2825 5.42523 14.3114C5.41964 14.375 5.41964 14.3751 5.45821 14.4065C5.57965 14.4181 5.6381 14.403 5.73189 14.3261C5.7537 14.3087 5.77551 14.2912 5.79797 14.2732C5.8212 14.254 5.84443 14.2348 5.86837 14.215C5.91897 14.1745 5.96963 14.1339 6.02035 14.0935C6.04631 14.0727 6.07228 14.0519 6.09904 14.0304C6.21976 13.9352 6.3437 13.8446 6.46798 13.7541C6.68017 13.599 6.89013 13.4412 7.09884 13.2815C7.38181 13.0649 7.66764 12.8525 7.95536 12.6423C8.04332 12.5772 8.12996 12.5105 8.21641 12.4435C8.30933 12.3801 8.39028 12.3713 8.49939 12.3709C8.52694 12.3707 8.55449 12.3706 8.58287 12.3704C8.62809 12.3703 8.62809 12.3703 8.67422 12.3703C8.70604 12.3701 8.73787 12.37 8.77065 12.3698C8.83986 12.3695 8.90907 12.3692 8.97828 12.369C9.08799 12.3686 9.19769 12.368 9.30739 12.3673C9.61936 12.3654 9.93132 12.3637 10.2433 12.3627C10.4341 12.362 10.6248 12.3609 10.8156 12.3595C10.8882 12.3591 10.9608 12.3588 11.0333 12.3587C11.1352 12.3585 11.237 12.3578 11.3389 12.357C11.3686 12.3571 11.3983 12.3572 11.4289 12.3573C11.7763 12.353 12.0956 12.2469 12.3577 12.0129C12.5532 11.8009 12.6805 11.5338 12.6813 11.245C12.6815 11.1961 12.6815 11.1961 12.6818 11.1461C12.6818 11.1105 12.6819 11.0749 12.6819 11.0381C12.6821 11.0005 12.6822 10.9628 12.6824 10.924C12.6827 10.8421 12.683 10.7603 12.6832 10.6784C12.6835 10.5488 12.6842 10.4191 12.6848 10.2895C12.6868 9.92081 12.6885 9.55215 12.6895 9.18349C12.6901 8.97982 12.691 8.77616 12.6923 8.57249C12.6929 8.46484 12.6934 8.3572 12.6935 8.24954C12.6935 8.12927 12.6943 8.009 12.6952 7.88873C12.6951 7.85341 12.695 7.81809 12.6949 7.78171C12.697 7.58267 12.7113 7.39945 12.802 7.21896C12.9196 7.10418 13.0048 7.05766 13.1672 7.05294C13.3335 7.0551 13.4204 7.08567 13.552 7.18771C13.6775 7.36591 13.6589 7.55672 13.6578 7.76584C13.6581 7.82479 13.6581 7.82479 13.6583 7.88494C13.6588 7.99246 13.6586 8.09997 13.6583 8.20749C13.6581 8.32045 13.6583 8.43341 13.6584 8.54637C13.6586 8.73627 13.6584 8.92617 13.6579 9.11607C13.6574 9.33469 13.6576 9.55331 13.6581 9.77193C13.6585 9.96029 13.6586 10.1486 13.6583 10.337C13.6582 10.4492 13.6582 10.5614 13.6585 10.6736C13.6588 10.7991 13.6584 10.9245 13.6578 11.05C13.658 11.0865 13.6582 11.1231 13.6584 11.1607C13.6559 11.498 13.5985 11.8255 13.4426 12.1272C13.432 12.148 13.4214 12.1688 13.4104 12.1903C13.2929 12.4093 13.1361 12.5788 12.9582 12.7502C12.9275 12.7819 12.9275 12.7819 12.8961 12.8142C12.5316 13.167 11.9896 13.3201 11.4932 13.3137C11.4663 13.3132 11.4394 13.3127 11.4117 13.3122C11.3517 13.3114 11.2917 13.3106 11.2317 13.3098C11.2002 13.3093 11.1686 13.3089 11.1361 13.3084C10.9318 13.3059 10.7274 13.3055 10.5231 13.3048C10.3443 13.3041 10.1657 13.3026 9.98693 13.2993C9.81321 13.2962 9.63959 13.2953 9.46584 13.2958C9.40021 13.2956 9.33457 13.2946 9.26897 13.2929C8.76914 13.28 8.48561 13.3993 8.11064 13.7302C8.03381 13.7973 7.95341 13.8576 7.8713 13.9182C7.82212 13.9559 7.77296 13.9937 7.72384 14.0315C7.49333 14.208 7.26103 14.3817 7.0266 14.553C6.89235 14.6514 6.75947 14.7512 6.62777 14.853C6.59852 14.8755 6.56928 14.8981 6.53915 14.9213C6.48289 14.9649 6.42677 15.0086 6.37081 15.0525C6.02662 15.3185 5.73742 15.4129 5.30196 15.3752C5.0167 15.2993 4.79038 15.1592 4.62228 14.9162C4.43202 14.5736 4.45092 14.2323 4.46798 13.8537C4.46996 13.8011 4.47189 13.7485 4.47378 13.6958C4.47845 13.5681 4.48378 13.4404 4.48946 13.3127C4.45696 13.313 4.45696 13.313 4.42381 13.3133C4.21747 13.3152 4.01113 13.3166 3.80479 13.3176C3.69876 13.318 3.59273 13.3187 3.48671 13.3198C2.36429 13.3303 2.36429 13.3303 1.94649 13.1018C1.91529 13.0854 1.91529 13.0854 1.88345 13.0687C1.7171 12.9791 1.56733 12.8772 1.42696 12.7502C1.40791 12.7336 1.38886 12.7171 1.36922 12.7C0.977829 12.3379 0.755146 11.7924 0.730822 11.2652C0.726177 11.1011 0.726769 10.937 0.727332 10.7728C0.727205 10.71 0.727038 10.6472 0.726834 10.5845C0.72641 10.4152 0.726572 10.2459 0.72687 10.0766C0.727109 9.8987 0.726887 9.72082 0.72674 9.54294C0.72657 9.24432 0.726793 8.9457 0.727241 8.64709C0.727751 8.30275 0.727586 7.95841 0.72707 7.61407C0.726643 7.31746 0.726585 7.02084 0.726829 6.72423C0.726975 6.5475 0.726997 6.37077 0.726685 6.19404C0.726413 6.02782 0.726605 5.86161 0.727144 5.6954C0.727267 5.63471 0.727234 5.57401 0.727026 5.51332C0.725007 4.86509 0.827211 4.33398 1.23946 3.81271C1.26267 3.78048 1.28587 3.74825 1.30978 3.71505C1.82193 3.17961 2.43799 3.04801 3.14521 3.05057Z" fill="#4F4F4F"/>
<path d="M12.7959 0.642615C12.8257 0.646523 12.8556 0.65043 12.8864 0.654456C13.1606 0.742629 13.3155 0.908583 13.4561 1.15238C13.5009 1.22698 13.5458 1.3015 13.5916 1.37557C13.6334 1.44786 13.6694 1.51853 13.7048 1.59386C13.8008 1.7854 13.8894 1.95249 14.0962 2.03509C14.257 2.08549 14.4212 2.11562 14.5869 2.14457C14.6715 2.16096 14.756 2.17794 14.8404 2.19557C14.8925 2.20629 14.9447 2.21624 14.9971 2.22522C15.2224 2.26867 15.3719 2.38038 15.5303 2.54301C15.6712 2.7623 15.7132 2.97088 15.6628 3.22709C15.58 3.49059 15.3779 3.68085 15.1963 3.88084C15.0806 4.01005 14.9722 4.14556 14.8643 4.28129C14.8477 4.30031 14.8311 4.31933 14.8141 4.33893C14.7616 4.42006 14.7611 4.45939 14.7671 4.55485C14.7694 4.59834 14.7694 4.59834 14.7718 4.64271C14.774 4.67362 14.7761 4.70452 14.7783 4.73637C14.7809 4.7842 14.7809 4.7842 14.7836 4.83301C14.7921 4.98664 14.8028 5.14007 14.8145 5.29349C14.8385 5.62377 14.8562 5.894 14.6416 6.16801C14.4741 6.34038 14.3012 6.41178 14.0615 6.42301C13.7744 6.41966 13.5326 6.29953 13.2744 6.18558C13.2015 6.15369 13.1286 6.12203 13.0553 6.091C13.0101 6.07183 12.9651 6.05218 12.9204 6.03195C12.7273 5.9497 12.6006 5.97111 12.4075 6.04088C12.3675 6.0577 12.3276 6.07473 12.2878 6.09196C12.2434 6.1104 12.199 6.12881 12.1545 6.14719C12.0857 6.17597 12.017 6.20494 11.9485 6.23444C11.6361 6.36827 11.3313 6.49089 10.9905 6.37475C10.7644 6.2754 10.6351 6.13705 10.5397 5.90763C10.5038 5.78815 10.5096 5.66864 10.5127 5.54496C10.513 5.51742 10.5134 5.48989 10.5137 5.46152C10.5164 5.3027 10.524 5.14477 10.5361 4.98637C10.5386 4.95204 10.541 4.91772 10.5436 4.88236C10.5491 4.81354 10.5563 4.74483 10.5648 4.67631C10.5774 4.52064 10.5804 4.41799 10.4919 4.28532C10.4109 4.19685 10.3258 4.11434 10.2393 4.03129C9.67531 3.38335 9.67531 3.38335 9.63379 3.02347C9.6621 2.74039 9.75028 2.5541 9.96752 2.36948C10.1148 2.26995 10.2729 2.23465 10.4443 2.19535C10.4803 2.18603 10.5162 2.1767 10.5532 2.1671C10.7061 2.12798 10.8558 2.09186 11.0131 2.07658C11.183 2.05714 11.3076 2.03251 11.4238 1.90189C11.548 1.7337 11.6508 1.55466 11.7513 1.3716C11.9075 1.09213 12.0607 0.828668 12.3525 0.675818C12.5057 0.635505 12.6386 0.619235 12.7959 0.642615ZM12.6455 1.71879C12.6139 1.76443 12.5839 1.81114 12.5544 1.85819C12.5358 1.8878 12.5171 1.91741 12.4979 1.94791C12.4783 1.97929 12.4587 2.01067 12.4385 2.04301C12.3257 2.22312 12.2124 2.40288 12.094 2.57938C12.0776 2.60402 12.0612 2.62866 12.0443 2.65404C11.917 2.80386 11.7551 2.83953 11.5717 2.88322C11.5469 2.88933 11.5222 2.89544 11.4967 2.90173C11.4181 2.92107 11.3394 2.94005 11.2607 2.95902C11.2072 2.97212 11.1538 2.98524 11.1003 2.99839C10.9696 3.03046 10.8388 3.06221 10.708 3.09379C10.8101 3.2328 10.9127 3.36772 11.0303 3.49418C11.0659 3.53363 11.0659 3.53363 11.1023 3.57389C11.153 3.63001 11.204 3.68591 11.2551 3.74161C11.2802 3.77017 11.3052 3.79874 11.3311 3.82816C11.3539 3.85362 11.3767 3.87908 11.4003 3.90531C11.5633 4.17279 11.5196 4.47374 11.4932 4.77347C11.4867 4.85339 11.4803 4.9333 11.4739 5.01322C11.4709 5.04822 11.4678 5.08321 11.4647 5.11927C11.4582 5.2153 11.4568 5.31007 11.458 5.40629C11.4795 5.39748 11.5011 5.38866 11.5233 5.37958C12.2208 5.09506 12.2208 5.09506 12.4736 5.00785C12.501 4.99834 12.5284 4.98884 12.5566 4.97904C12.8362 4.94678 13.1102 5.1011 13.3604 5.20707C13.4357 5.23892 13.5112 5.27054 13.5867 5.30204C13.6197 5.31604 13.6528 5.33005 13.6869 5.34447C13.7703 5.3804 13.7703 5.3804 13.8643 5.37504C13.8633 5.35621 13.8624 5.33738 13.8614 5.31798C13.8505 5.09747 13.8413 4.87692 13.833 4.65629C13.8319 4.62783 13.8307 4.59938 13.8295 4.57006C13.8267 4.49398 13.8248 4.41795 13.8232 4.34183C13.8223 4.3194 13.8214 4.29697 13.8204 4.27386C13.8176 4.02396 13.9808 3.87408 14.1357 3.6973C14.2988 3.50931 14.4578 3.31862 14.6143 3.12504C14.5027 3.06123 14.3896 3.03525 14.2649 3.00614C14.2206 2.99553 14.1763 2.98491 14.132 2.97428C14.0626 2.95781 13.9932 2.94146 13.9238 2.92535C13.8564 2.90964 13.7892 2.89347 13.7219 2.87723C13.6818 2.86781 13.6417 2.85839 13.6004 2.84869C13.4039 2.78478 13.2922 2.69484 13.1864 2.51896C13.1666 2.48651 13.1467 2.45406 13.1263 2.42063C13.1062 2.38689 13.0861 2.35316 13.0654 2.3184C13.0251 2.25175 12.9847 2.18514 12.9442 2.11857C12.9252 2.08732 12.9063 2.05608 12.8867 2.02389C12.821 1.91821 12.7524 1.81757 12.6768 1.71879C12.6664 1.71879 12.6561 1.71879 12.6455 1.71879Z" fill="#4F4F4F"/>
<path d="M5.00894 6.5585C5.02933 6.55843 5.04973 6.55836 5.07075 6.55829C5.13885 6.55809 5.20695 6.55812 5.27505 6.55814C5.32398 6.55805 5.37291 6.55794 5.42184 6.55782C5.55459 6.55755 5.68734 6.55748 5.82009 6.55746C5.90306 6.55743 5.98604 6.55737 6.06902 6.55728C6.35861 6.55699 6.64821 6.55687 6.9378 6.55689C7.20757 6.55691 7.47733 6.55658 7.74709 6.55609C7.97886 6.55568 8.21064 6.55551 8.44241 6.55553C8.58076 6.55554 8.71911 6.55545 8.85747 6.55512C8.98762 6.55482 9.11776 6.55481 9.24791 6.55504C9.29559 6.55507 9.34327 6.555 9.39095 6.55481C9.45621 6.55457 9.52146 6.55472 9.58673 6.55496C9.62319 6.55494 9.65966 6.55492 9.69723 6.5549C9.8596 6.56698 9.98305 6.59352 10.1084 6.6994C10.22 6.83332 10.2525 6.91366 10.2471 7.0932C10.2296 7.23527 10.1697 7.3221 10.0655 7.4162C9.94142 7.50208 9.87251 7.50426 9.72124 7.50478C9.69988 7.5049 9.67852 7.50501 9.65651 7.50513C9.58459 7.50548 9.51267 7.50559 9.44075 7.50571C9.38932 7.50591 9.33789 7.50612 9.28646 7.50634C9.14648 7.50688 9.00649 7.50721 8.86651 7.50747C8.77908 7.50763 8.69165 7.50782 8.60422 7.50801C8.33074 7.50861 8.05727 7.50905 7.78379 7.50932C7.46797 7.50962 7.15215 7.51044 6.83634 7.51171C6.59233 7.51265 6.34833 7.51311 6.10432 7.51321C5.95854 7.51329 5.81277 7.51357 5.66699 7.51435C5.52982 7.51508 5.39265 7.51521 5.25547 7.51489C5.20516 7.51488 5.15484 7.51508 5.10453 7.5155C5.03575 7.51606 4.96702 7.51584 4.89824 7.51542C4.85978 7.5155 4.82132 7.51557 4.78169 7.51565C4.61816 7.49153 4.52261 7.41288 4.41508 7.2912C4.34916 7.15681 4.33899 7.05341 4.3643 6.90643C4.4067 6.78877 4.46528 6.70616 4.56547 6.62909C4.7122 6.56467 4.84992 6.55873 5.00894 6.5585Z" fill="#4F4F4F"/>
<path d="M4.97695 8.83852C5.0044 8.83836 5.03184 8.83821 5.06013 8.83805C5.15104 8.83759 5.24195 8.83738 5.33286 8.83721C5.39604 8.83703 5.45921 8.83685 5.52239 8.83667C5.65492 8.83634 5.78745 8.83616 5.91999 8.83605C6.08969 8.83588 6.2594 8.83513 6.4291 8.83424C6.55963 8.83365 6.69017 8.83349 6.8207 8.83344C6.88326 8.83335 6.94581 8.8331 7.00837 8.83269C7.09597 8.83215 7.18354 8.83221 7.27114 8.83242C7.30979 8.83198 7.30979 8.83198 7.34923 8.83154C7.55144 8.83301 7.67932 8.87848 7.82737 9.02324C7.92766 9.17223 7.936 9.27928 7.91136 9.45488C7.85149 9.59208 7.76941 9.66772 7.64573 9.7498C7.52454 9.7902 7.40959 9.78592 7.28327 9.78609C7.25582 9.78625 7.22837 9.7864 7.20009 9.78656C7.10917 9.78702 7.01826 9.78723 6.92735 9.7874C6.86417 9.78758 6.801 9.78776 6.73782 9.78794C6.60529 9.78827 6.47276 9.78845 6.34023 9.78856C6.17052 9.78873 6.00082 9.78948 5.83111 9.79037C5.70058 9.79096 5.57005 9.79112 5.43951 9.79117C5.37696 9.79126 5.3144 9.79151 5.25184 9.79192C5.16425 9.79246 5.07667 9.7924 4.98908 9.79219C4.96331 9.79248 4.93754 9.79277 4.91099 9.79307C4.75779 9.79196 4.65367 9.77161 4.52073 9.6873C4.3818 9.53335 4.35352 9.43882 4.35557 9.23552C4.37185 9.09036 4.44757 9.00538 4.55393 8.91191C4.68914 8.82905 4.82386 8.83873 4.97695 8.83852Z" fill="#4F4F4F"/>
</g>
<defs>
<clipPath id="clip0_6458_13575">
<rect width="16" height="16" fill="white" transform="translate(0.208008)"/>
</clipPath>
</defs>
</svg>
