<svg width="17" height="17" viewBox="0 0 17 17" fill="none" xmlns="http://www.w3.org/2000/svg">
<path fill-rule="evenodd" clip-rule="evenodd" d="M3.70801 4.49984C3.5312 4.49984 3.36163 4.57008 3.2366 4.6951C3.11158 4.82012 3.04134 4.98969 3.04134 5.1665V11.8332C3.04134 12.01 3.11158 12.1796 3.2366 12.3046C3.36163 12.4296 3.5312 12.4998 3.70801 12.4998H8.48801C8.62574 12.1095 8.88117 11.7715 9.21907 11.5324C9.55698 11.2933 9.96073 11.1649 10.3747 11.1649C10.7886 11.1649 11.1924 11.2933 11.5303 11.5324C11.8682 11.7715 12.1236 12.1095 12.2613 12.4998H13.0413C13.2182 12.4998 13.3877 12.4296 13.5127 12.3046C13.6378 12.1796 13.708 12.01 13.708 11.8332V5.1665C13.708 4.98969 13.6378 4.82012 13.5127 4.6951C13.3877 4.57008 13.2182 4.49984 13.0413 4.49984H12.2613C12.1236 4.89019 11.8682 5.22821 11.5303 5.46731C11.1924 5.70641 10.7886 5.8348 10.3747 5.8348C9.96073 5.8348 9.55698 5.70641 9.21907 5.46731C8.88117 5.22821 8.62574 4.89019 8.48801 4.49984H3.70801ZM1.70801 5.1665C1.70801 4.63607 1.91872 4.12736 2.29379 3.75229C2.66887 3.37722 3.17757 3.1665 3.70801 3.1665H9.04134C9.21815 3.1665 9.38772 3.23674 9.51275 3.36177C9.63777 3.48679 9.70801 3.65636 9.70801 3.83317C9.70801 4.00998 9.77825 4.17955 9.90327 4.30458C10.0283 4.4296 10.1979 4.49984 10.3747 4.49984C10.5515 4.49984 10.7211 4.4296 10.8461 4.30458C10.9711 4.17955 11.0413 4.00998 11.0413 3.83317C11.0413 3.65636 11.1116 3.48679 11.2366 3.36177C11.3616 3.23674 11.5312 3.1665 11.708 3.1665H13.0413C13.5718 3.1665 14.0805 3.37722 14.4556 3.75229C14.8306 4.12736 15.0413 4.63607 15.0413 5.1665V11.8332C15.0413 12.3636 14.8306 12.8723 14.4556 13.2474C14.0805 13.6225 13.5718 13.8332 13.0413 13.8332H11.708C11.5312 13.8332 11.3616 13.7629 11.2366 13.6379C11.1116 13.5129 11.0413 13.3433 11.0413 13.1665C11.0413 12.9897 10.9711 12.8201 10.8461 12.6951C10.7211 12.5701 10.5515 12.4998 10.3747 12.4998C10.1979 12.4998 10.0283 12.5701 9.90327 12.6951C9.77825 12.8201 9.70801 12.9897 9.70801 13.1665C9.70801 13.3433 9.63777 13.5129 9.51275 13.6379C9.38772 13.7629 9.21815 13.8332 9.04134 13.8332H3.70801C3.17757 13.8332 2.66887 13.6225 2.29379 13.2474C1.91872 12.8723 1.70801 12.3636 1.70801 11.8332V5.1665ZM10.3747 6.49984C10.5515 6.49984 10.7211 6.57008 10.8461 6.6951C10.9711 6.82012 11.0413 6.98969 11.0413 7.1665V7.49984C11.0413 7.67665 10.9711 7.84622 10.8461 7.97124C10.7211 8.09627 10.5515 8.1665 10.3747 8.1665C10.1979 8.1665 10.0283 8.09627 9.90327 7.97124C9.77825 7.84622 9.70801 7.67665 9.70801 7.49984V7.1665C9.70801 6.98969 9.77825 6.82012 9.90327 6.6951C10.0283 6.57008 10.1979 6.49984 10.3747 6.49984ZM11.0413 9.49984C11.0413 9.32303 10.9711 9.15346 10.8461 9.02843C10.7211 8.90341 10.5515 8.83317 10.3747 8.83317C10.1979 8.83317 10.0283 8.90341 9.90327 9.02843C9.77825 9.15346 9.70801 9.32303 9.70801 9.49984V9.83317C9.70801 10.01 9.77825 10.1796 9.90327 10.3046C10.0283 10.4296 10.1979 10.4998 10.3747 10.4998C10.5515 10.4998 10.7211 10.4296 10.8461 10.3046C10.9711 10.1796 11.0413 10.01 11.0413 9.83317V9.49984Z" fill="#4F4F4F"/>
</svg>
