<svg width="136" height="46" viewBox="0 0 136 46" fill="none" xmlns="http://www.w3.org/2000/svg">
<g id="Asset 2 1">
<rect x="0.389648" y="0.610352" width="135.36" height="44.5" rx="7.75" fill="white"/>
<rect x="0.389648" y="0.610352" width="135.36" height="44.5" rx="7.75" stroke="#4F4F4F" stroke-width="0.5"/>
<g id="Group 14080">
<g id="Group">
<path id="Vector" d="M46.1495 15.9707C45.8195 16.0907 45.1795 16.2807 44.4195 16.2807C43.5695 16.2807 42.8595 16.0607 42.3095 15.5307C41.8195 15.0607 41.5195 14.3107 41.5195 13.4307C41.5195 11.7507 42.6795 10.5107 44.5795 10.5107C45.2295 10.5107 45.7395 10.6507 45.9895 10.7707L45.8095 11.3607C45.5095 11.2307 45.1295 11.1207 44.5595 11.1207C43.1895 11.1207 42.2895 11.9707 42.2895 13.3907C42.2895 14.8107 43.1495 15.6707 44.4695 15.6707C44.9495 15.6707 45.2695 15.6007 45.4395 15.5207V13.8407H44.2895V13.2507H46.1495V15.9607V15.9707Z" fill="black" stroke="black" stroke-width="0.2" stroke-miterlimit="10"/>
<path id="Vector_2" d="M50.3497 13.5703H48.1497V15.6103H50.5997V16.2203H47.4297V10.5703H50.4797V11.1803H48.1597V12.9603H50.3597V13.5603L50.3497 13.5703Z" fill="black" stroke="black" stroke-width="0.2" stroke-miterlimit="10"/>
<path id="Vector_3" d="M52.93 11.1903H51.21V10.5703H55.39V11.1903H53.66V16.2203H52.92V11.1903H52.93Z" fill="black" stroke="black" stroke-width="0.2" stroke-miterlimit="10"/>
<path id="Vector_4" d="M58.8599 10.5703V16.2203H58.1299V10.5703H58.8599Z" fill="black" stroke="black" stroke-width="0.2" stroke-miterlimit="10"/>
<path id="Vector_5" d="M61.3694 11.1903H59.6494V10.5703H63.8294V11.1903H62.0994V16.2203H61.3594V11.1903H61.3694Z" fill="black" stroke="black" stroke-width="0.2" stroke-miterlimit="10"/>
<path id="Vector_6" d="M71.3993 13.3405C71.3993 15.2805 70.2193 16.3105 68.7793 16.3105C67.3393 16.3105 66.2393 15.1505 66.2393 13.4505C66.2393 11.6605 67.3493 10.4805 68.8593 10.4805C70.3693 10.4805 71.3993 11.6605 71.3993 13.3405ZM67.0193 13.4305C67.0193 14.6405 67.6693 15.7205 68.8193 15.7205C69.9693 15.7205 70.6293 14.6605 70.6293 13.3705C70.6293 12.2505 70.0393 11.0705 68.8293 11.0705C67.6193 11.0705 67.0193 12.1805 67.0193 13.4205V13.4305Z" fill="black" stroke="black" stroke-width="0.2" stroke-miterlimit="10"/>
<path id="Vector_7" d="M72.5195 16.2203V10.5703H73.3195L75.1295 13.4303C75.5495 14.0903 75.8795 14.6903 76.1395 15.2603H76.1595C76.0895 14.5003 76.0795 13.8103 76.0795 12.9303V10.5703H76.7695V16.2203H76.0295L74.2395 13.3503C73.8495 12.7203 73.4695 12.0803 73.1795 11.4703H73.1495C73.1895 12.1903 73.2095 12.8703 73.2095 13.8103V16.2203H72.5195Z" fill="black" stroke="black" stroke-width="0.2" stroke-miterlimit="10"/>
</g>
<path id="Vector_8" d="M68.3097 24.9707C65.9597 24.9707 64.0397 26.7607 64.0397 29.2207C64.0397 31.6807 65.9597 33.4707 68.3097 33.4707C70.6597 33.4707 72.5797 31.6707 72.5797 29.2207C72.5797 26.7707 70.6597 24.9707 68.3097 24.9707ZM68.3097 31.8007C67.0197 31.8007 65.9097 30.7407 65.9097 29.2207C65.9097 27.7007 67.0197 26.6407 68.3097 26.6407C69.5997 26.6407 70.7097 27.6907 70.7097 29.2207C70.7097 30.7507 69.5997 31.8007 68.3097 31.8007ZM58.9997 24.9707C56.6497 24.9707 54.7297 26.7607 54.7297 29.2207C54.7297 31.6807 56.6497 33.4707 58.9997 33.4707C61.3497 33.4707 63.2697 31.6707 63.2697 29.2207C63.2697 26.7707 61.3497 24.9707 58.9997 24.9707ZM58.9997 31.8007C57.7097 31.8007 56.5997 30.7407 56.5997 29.2207C56.5997 27.7007 57.7097 26.6407 58.9997 26.6407C60.2897 26.6407 61.3997 27.6907 61.3997 29.2207C61.3997 30.7507 60.2897 31.8007 58.9997 31.8007ZM47.9197 26.2707V28.0707H52.2397C52.1097 29.0807 51.7697 29.8307 51.2597 30.3407C50.6297 30.9707 49.6497 31.6607 47.9297 31.6607C45.2697 31.6607 43.1897 29.5207 43.1897 26.8607C43.1897 24.2007 45.2697 22.0607 47.9297 22.0607C49.3597 22.0607 50.4097 22.6207 51.1797 23.3507L52.4497 22.0807C51.3697 21.0507 49.9397 20.2607 47.9197 20.2607C44.2797 20.2607 41.2197 23.2207 41.2197 26.8707C41.2197 30.5207 44.2797 33.4807 47.9197 33.4807C49.8897 33.4807 51.3697 32.8407 52.5297 31.6307C53.7197 30.4407 54.0897 28.7607 54.0897 27.4107C54.0897 26.9907 54.0597 26.6007 53.9897 26.2807H47.9197V26.2707ZM93.2297 27.6707C92.8797 26.7207 91.7997 24.9607 89.5897 24.9607C87.3797 24.9607 85.5797 26.6807 85.5797 29.2107C85.5797 31.5907 87.3797 33.4607 89.7997 33.4607C91.7497 33.4607 92.8797 32.2707 93.3397 31.5807L91.8897 30.6107C91.4097 31.3207 90.7497 31.7907 89.7997 31.7907C88.8497 31.7907 88.1697 31.3607 87.7397 30.5007L93.4297 28.1507L93.2397 27.6707H93.2297ZM87.4297 29.0907C87.3797 27.4507 88.6997 26.6107 89.6497 26.6107C90.3897 26.6107 91.0197 26.9807 91.2297 27.5107L87.4297 29.0907ZM82.8097 33.2107H84.6797V20.7107H82.8097V33.2107ZM79.7497 25.9107H79.6897C79.2697 25.4107 78.4697 24.9607 77.4497 24.9607C75.3197 24.9607 73.3697 26.8307 73.3697 29.2307C73.3697 31.6307 75.3197 33.4707 77.4497 33.4707C78.4597 33.4707 79.2697 33.0207 79.6897 32.5007H79.7497V33.1107C79.7497 34.7407 78.8797 35.6107 77.4797 35.6107C76.3397 35.6107 75.6297 34.7907 75.3397 34.1007L73.7097 34.7807C74.1797 35.9107 75.4197 37.2907 77.4797 37.2907C79.6697 37.2907 81.5197 36.0007 81.5197 32.8607V25.2207H79.7497V25.9107ZM77.6097 31.7907C76.3197 31.7907 75.2397 30.7107 75.2397 29.2307C75.2397 27.7507 76.3197 26.6407 77.6097 26.6407C78.8997 26.6407 79.8797 27.7407 79.8797 29.2307C79.8797 30.7207 78.8797 31.7907 77.6097 31.7907ZM101.99 20.7107H97.5197V33.2107H99.3897V28.4707H102C104.07 28.4707 106.1 26.9707 106.1 24.5907C106.1 22.2107 104.07 20.7107 102 20.7107H101.99ZM102.04 26.7407H99.3897V22.4507H102.04C103.44 22.4507 104.23 23.6107 104.23 24.5907C104.23 25.5707 103.44 26.7307 102.04 26.7307V26.7407ZM113.57 24.9407C112.22 24.9407 110.82 25.5407 110.24 26.8507L111.9 27.5407C112.25 26.8507 112.91 26.6207 113.6 26.6207C114.56 26.6207 115.55 27.2007 115.56 28.2307V28.3607C115.22 28.1707 114.5 27.8807 113.61 27.8807C111.82 27.8807 110.01 28.8607 110.01 30.6907C110.01 32.3607 111.47 33.4407 113.11 33.4407C114.36 33.4407 115.06 32.8807 115.49 32.2207H115.55V33.1807H117.35V28.3907C117.35 26.1707 115.69 24.9307 113.55 24.9307L113.57 24.9407ZM113.34 31.7907C112.73 31.7907 111.88 31.4807 111.88 30.7307C111.88 29.7707 112.94 29.4007 113.86 29.4007C114.68 29.4007 115.07 29.5807 115.56 29.8207C115.42 30.9807 114.42 31.8007 113.34 31.8007V31.7907ZM123.92 25.2107L121.78 30.6307H121.72L119.5 25.2107H117.49L120.82 32.7907L118.92 37.0007H120.87L126 25.2107H123.93H123.92ZM107.11 33.2107H108.98V20.7107H107.11V33.2107Z" fill="black"/>
<g id="Group_2">
<path id="Vector_9" d="M20.8893 22.6399L10.2393 33.9399C10.5693 35.1699 11.6893 36.0699 13.0193 36.0699C13.5493 36.0699 14.0493 35.9299 14.4793 35.6699L14.5093 35.6499L26.4893 28.7399L20.8793 22.6299L20.8893 22.6399Z" fill="#EA4335"/>
<path id="Vector_10" d="M31.6594 20.72H31.6494L26.4794 17.71L20.6494 22.9L26.4994 28.75L31.6494 25.78C32.5494 25.29 33.1594 24.34 33.1594 23.25C33.1594 22.16 32.5594 21.21 31.6594 20.73V20.72Z" fill="#FBBC04"/>
<path id="Vector_11" d="M10.2396 12.5C10.1796 12.74 10.1396 12.98 10.1396 13.24V33.21C10.1396 33.47 10.1696 33.71 10.2396 33.95L21.2496 22.94L10.2396 12.5Z" fill="#4285F4"/>
<path id="Vector_12" d="M20.9693 23.2204L26.4793 17.7104L14.5093 10.7704C14.0793 10.5104 13.5693 10.3604 13.0193 10.3604C11.6893 10.3604 10.5693 11.2704 10.2393 12.4904L20.9693 23.2104V23.2204Z" fill="#34A853"/>
</g>
</g>
</g>
</svg>
