<svg width="121" height="46" viewBox="0 0 121 46" fill="none" xmlns="http://www.w3.org/2000/svg">
<rect x="0.873535" y="0.263428" width="119.016" height="44.5541" rx="7.75" fill="white"/>
<rect x="0.873535" y="0.263428" width="119.016" height="44.5541" rx="7.75" stroke="#4F4F4F" stroke-width="0.5"/>
<path d="M25.4208 21.877C25.4316 21.0423 25.6533 20.2239 26.0653 19.498C26.4774 18.772 27.0663 18.1621 27.7774 17.7249C27.3257 17.0798 26.7297 16.5488 26.0369 16.1743C25.3441 15.7997 24.5735 15.5919 23.7862 15.5672C22.107 15.391 20.4791 16.5721 19.6233 16.5721C18.7511 16.5721 17.4336 15.5847 16.0148 15.6139C15.0972 15.6436 14.2028 15.9104 13.4189 16.3885C12.6351 16.8666 11.9884 17.5395 11.5419 18.3418C9.60793 21.6902 11.0505 26.6113 12.9031 29.3179C13.83 30.6432 14.9133 32.1237 16.3308 32.0712C17.7178 32.0137 18.2359 31.1867 19.9102 31.1867C21.5689 31.1867 22.0549 32.0712 23.5012 32.0378C24.9895 32.0136 25.9273 30.7066 26.8217 29.3687C27.4876 28.4243 28.0001 27.3806 28.3401 26.2762C27.4754 25.9104 26.7375 25.2983 26.2183 24.516C25.6992 23.7337 25.4219 22.8159 25.4208 21.877Z" fill="black"/>
<path d="M22.6894 13.7873C23.501 12.813 23.9008 11.5609 23.8039 10.2966C22.5641 10.4269 21.4189 11.0194 20.5964 11.9562C20.1942 12.4139 19.8862 12.9463 19.69 13.5231C19.4937 14.0999 19.4131 14.7097 19.4527 15.3176C20.0728 15.324 20.6863 15.1896 21.247 14.9245C21.8076 14.6594 22.3008 14.2706 22.6894 13.7873Z" fill="black"/>
<path d="M42.9541 28.7161H38.2207L37.084 32.0725H35.0791L39.5625 19.6545H41.6455L46.1289 32.0725H44.0898L42.9541 28.7161ZM38.7109 27.1673H42.4629L40.6133 21.72H40.5616L38.7109 27.1673Z" fill="black"/>
<path d="M55.8116 27.5461C55.8116 30.3596 54.3057 32.1672 52.0332 32.1672C51.4576 32.1973 50.8851 32.0647 50.3813 31.7846C49.8775 31.5044 49.4628 31.0881 49.1846 30.5832H49.1416V35.0676H47.2832V23.0188H49.0821V24.5246H49.1162C49.4072 24.0222 49.8289 23.608 50.3366 23.3261C50.8442 23.0443 51.4187 22.9053 51.9991 22.924C54.2969 22.924 55.8116 24.7404 55.8116 27.5461ZM53.9014 27.5461C53.9014 25.7131 52.9541 24.508 51.5088 24.508C50.0889 24.508 49.1338 25.7385 49.1338 27.5461C49.1338 29.3703 50.0889 30.592 51.5088 30.592C52.9541 30.592 53.9014 29.3957 53.9014 27.5461Z" fill="black"/>
<path d="M65.7764 27.5461C65.7764 30.3596 64.2705 32.1672 61.9981 32.1672C61.4224 32.1973 60.8499 32.0647 60.3461 31.7846C59.8423 31.5044 59.4276 31.0881 59.1494 30.5832H59.1064V35.0676H57.248V23.0188H59.0469V24.5246H59.081C59.372 24.0221 59.7937 23.608 60.3014 23.3261C60.809 23.0443 61.3835 22.9053 61.9639 22.924C64.2617 22.924 65.7764 24.7404 65.7764 27.5461ZM63.8662 27.5461C63.8662 25.7131 62.919 24.508 61.4737 24.508C60.0537 24.508 59.0987 25.7385 59.0987 27.5461C59.0987 29.3703 60.0537 30.592 61.4737 30.592C62.919 30.592 63.8662 29.3957 63.8662 27.5461Z" fill="black"/>
<path d="M72.3623 28.6126C72.5 29.8441 73.6963 30.6526 75.3311 30.6526C76.8975 30.6526 78.0244 29.844 78.0244 28.7337C78.0244 27.7698 77.3448 27.1926 75.7354 26.7971L74.126 26.4094C71.8457 25.8586 70.7871 24.7922 70.7871 23.0618C70.7871 20.9192 72.6543 19.4475 75.3057 19.4475C77.9297 19.4475 79.7285 20.9192 79.7891 23.0618H77.9131C77.8008 21.8225 76.7764 21.0745 75.2793 21.0745C73.7822 21.0745 72.7578 21.8313 72.7578 22.9329C72.7578 23.8108 73.4121 24.3274 75.0127 24.7229L76.3809 25.0588C78.9287 25.6613 79.9873 26.6848 79.9873 28.5012C79.9873 30.8244 78.1367 32.2795 75.1934 32.2795C72.4394 32.2795 70.5801 30.8586 70.46 28.6125L72.3623 28.6126Z" fill="black"/>
<path d="M83.998 20.8762V23.0188H85.7197V24.4905H83.998V29.4817C83.998 30.2571 84.3428 30.6184 85.0996 30.6184C85.304 30.6148 85.5081 30.6005 85.7109 30.5754V32.0383C85.3707 32.1019 85.0248 32.1307 84.6787 32.1242C82.8457 32.1242 82.1309 31.4358 82.1309 29.6799V24.4905H80.8145V23.0188H82.1308V20.8762H83.998Z" fill="black"/>
<path d="M86.7168 27.5461C86.7168 24.6975 88.3945 22.9075 91.0107 22.9075C93.6357 22.9075 95.3057 24.6975 95.3057 27.5461C95.3057 30.4026 93.6445 32.1848 91.0107 32.1848C88.3779 32.1848 86.7168 30.4026 86.7168 27.5461ZM93.4121 27.5461C93.4121 25.592 92.5166 24.4387 91.0107 24.4387C89.5049 24.4387 88.6103 25.6008 88.6103 27.5461C88.6103 29.5081 89.5049 30.6526 91.0107 30.6526C92.5166 30.6526 93.4121 29.5081 93.4121 27.5461Z" fill="black"/>
<path d="M96.8379 23.0189H98.6104V24.5599H98.6534C98.7733 24.0786 99.0552 23.6533 99.4518 23.3554C99.8484 23.0575 100.335 22.9053 100.831 22.9242C101.045 22.9234 101.259 22.9467 101.468 22.9935V24.7318C101.197 24.6492 100.915 24.6113 100.633 24.6195C100.363 24.6085 100.094 24.6562 99.8438 24.759C99.594 24.8619 99.3694 25.0177 99.1854 25.2155C99.0014 25.4134 98.8625 25.6488 98.778 25.9055C98.6936 26.1621 98.6657 26.434 98.6963 26.7025V32.0726H96.8379L96.8379 23.0189Z" fill="black"/>
<path d="M110.036 29.4133C109.786 31.0569 108.186 32.1848 106.138 32.1848C103.504 32.1848 101.869 30.4202 101.869 27.5891C101.869 24.7493 103.513 22.9075 106.06 22.9075C108.564 22.9075 110.14 24.6282 110.14 27.3733V28.01H103.745V28.1223C103.716 28.4555 103.757 28.7912 103.868 29.107C103.978 29.4229 104.154 29.7116 104.384 29.9542C104.615 30.1967 104.894 30.3875 105.204 30.5138C105.513 30.6401 105.846 30.6991 106.181 30.6868C106.62 30.7279 107.061 30.6262 107.437 30.3968C107.814 30.1673 108.107 29.8224 108.271 29.4133L110.036 29.4133ZM103.754 26.7112H108.28C108.297 26.4116 108.252 26.1118 108.147 25.8306C108.042 25.5494 107.881 25.2928 107.672 25.0771C107.463 24.8613 107.213 24.6909 106.935 24.5767C106.658 24.4625 106.36 24.4069 106.06 24.4133C105.757 24.4115 105.457 24.4697 105.177 24.5844C104.897 24.6992 104.642 24.8682 104.428 25.0819C104.214 25.2955 104.044 25.5495 103.928 25.8291C103.812 26.1088 103.753 26.4085 103.754 26.7112Z" fill="black"/>
<path d="M38.478 10.3073C38.8676 10.2793 39.2586 10.3382 39.6227 10.4796C39.9868 10.6211 40.315 10.8416 40.5836 11.1252C40.8522 11.4088 41.0545 11.7485 41.1759 12.1198C41.2973 12.491 41.3348 12.8846 41.2856 13.2721C41.2856 15.1784 40.2554 16.2741 38.478 16.2741H36.3228V10.3073H38.478ZM37.2495 15.4303H38.3745C38.6529 15.4469 38.9315 15.4013 39.1901 15.2967C39.4486 15.1921 39.6806 15.0311 39.8691 14.8256C40.0575 14.62 40.1978 14.375 40.2797 14.1084C40.3616 13.8417 40.3829 13.5602 40.3423 13.2843C40.38 13.0095 40.3564 12.7297 40.2733 12.465C40.1902 12.2004 40.0496 11.9574 39.8615 11.7534C39.6734 11.5495 39.4426 11.3897 39.1855 11.2855C38.9284 11.1812 38.6515 11.1351 38.3745 11.1505H37.2495V15.4303Z" fill="black"/>
<path d="M42.3323 14.0207C42.304 13.7248 42.3379 13.4262 42.4317 13.1441C42.5255 12.8621 42.6773 12.6027 42.8772 12.3828C43.0772 12.1628 43.3209 11.987 43.5927 11.8667C43.8646 11.7465 44.1586 11.6843 44.4558 11.6843C44.7531 11.6843 45.0471 11.7465 45.319 11.8667C45.5908 11.987 45.8345 12.1628 46.0345 12.3828C46.2344 12.6027 46.3862 12.8621 46.48 13.1441C46.5738 13.4262 46.6077 13.7248 46.5794 14.0207C46.6082 14.3169 46.5748 14.6159 46.4812 14.8984C46.3876 15.181 46.2359 15.4408 46.0359 15.6612C45.8359 15.8816 45.592 16.0577 45.3199 16.1783C45.0478 16.2988 44.7535 16.3611 44.4558 16.3611C44.1582 16.3611 43.8639 16.2988 43.5918 16.1783C43.3196 16.0577 43.0757 15.8816 42.8758 15.6612C42.6758 15.4408 42.5241 15.181 42.4305 14.8984C42.3369 14.6159 42.3035 14.3169 42.3323 14.0207ZM45.6653 14.0207C45.6653 13.0446 45.2268 12.4738 44.4573 12.4738C43.6849 12.4738 43.2503 13.0446 43.2503 14.0207C43.2503 15.0046 43.6849 15.571 44.4573 15.571C45.2269 15.571 45.6653 15.0007 45.6653 14.0207Z" fill="black"/>
<path d="M52.2251 16.2742H51.3032L50.3726 12.9578H50.3023L49.3755 16.2742H48.4624L47.2212 11.7712H48.1226L48.9292 15.2072H48.9956L49.9214 11.7712H50.7739L51.6997 15.2072H51.77L52.5728 11.7712H53.4614L52.2251 16.2742Z" fill="black"/>
<path d="M54.5054 11.7713H55.3608V12.4866H55.4272C55.5399 12.2297 55.7299 12.0143 55.9708 11.8705C56.2117 11.7267 56.4914 11.6616 56.771 11.6844C56.9901 11.6679 57.2101 11.7009 57.4147 11.781C57.6193 11.8611 57.8032 11.9862 57.9529 12.1471C58.1026 12.3079 58.2142 12.5004 58.2794 12.7102C58.3446 12.92 58.3617 13.1418 58.3296 13.3592V16.2742H57.4409V13.5823C57.4409 12.8587 57.1265 12.4988 56.4692 12.4988C56.3205 12.4919 56.172 12.5172 56.0339 12.573C55.8959 12.6289 55.7715 12.7139 55.6694 12.8223C55.5673 12.9307 55.4898 13.0599 55.4423 13.201C55.3947 13.3421 55.3783 13.4919 55.394 13.6399V16.2742H54.5054L54.5054 11.7713Z" fill="black"/>
<path d="M59.7456 10.0134H60.6343V16.2742H59.7456V10.0134Z" fill="black"/>
<path d="M61.8694 14.0208C61.8411 13.7248 61.875 13.4263 61.9688 13.1442C62.0627 12.8621 62.2145 12.6028 62.4145 12.3828C62.6144 12.1628 62.8581 11.987 63.13 11.8667C63.4019 11.7465 63.6959 11.6843 63.9932 11.6843C64.2905 11.6843 64.5845 11.7465 64.8563 11.8667C65.1282 11.987 65.3719 12.1628 65.5719 12.3828C65.7719 12.6028 65.9236 12.8621 66.0175 13.1442C66.1114 13.4263 66.1452 13.7248 66.117 14.0208C66.1458 14.317 66.1123 14.616 66.0187 14.8985C65.925 15.1811 65.7733 15.4409 65.5733 15.6613C65.3733 15.8817 65.1294 16.0578 64.8573 16.1783C64.5851 16.2989 64.2908 16.3611 63.9932 16.3611C63.6955 16.3611 63.4012 16.2989 63.1291 16.1783C62.8569 16.0578 62.613 15.8817 62.413 15.6613C62.213 15.4409 62.0613 15.1811 61.9677 14.8985C61.8741 14.616 61.8406 14.317 61.8694 14.0208ZM65.2024 14.0208C65.2024 13.0447 64.7639 12.4739 63.9944 12.4739C63.2219 12.4739 62.7874 13.0447 62.7874 14.0208C62.7874 15.0047 63.222 15.5711 63.9944 15.5711C64.7639 15.5711 65.2024 15.0008 65.2024 14.0208Z" fill="black"/>
<path d="M67.0527 15.0007C67.0527 14.1902 67.6563 13.7229 68.7275 13.6565L69.9473 13.5862V13.1975C69.9473 12.7219 69.6328 12.4534 69.0254 12.4534C68.5293 12.4534 68.1856 12.6355 68.0869 12.9539H67.2266C67.3174 12.1804 68.0449 11.6843 69.0664 11.6843C70.1953 11.6843 70.832 12.2463 70.832 13.1975V16.2742H69.9766V15.6414H69.9062C69.7635 15.8683 69.5631 16.0534 69.3255 16.1776C69.0879 16.3018 68.8216 16.3607 68.5537 16.3484C68.3647 16.368 68.1736 16.3479 67.9929 16.2892C67.8121 16.2305 67.6456 16.1345 67.5042 16.0076C67.3628 15.8806 67.2496 15.7254 67.1718 15.552C67.094 15.3786 67.0535 15.1908 67.0527 15.0007ZM69.9473 14.616V14.2395L68.8477 14.3098C68.2275 14.3513 67.9463 14.5622 67.9463 14.9592C67.9463 15.3645 68.2978 15.6003 68.7813 15.6003C68.9229 15.6147 69.066 15.6004 69.202 15.5583C69.338 15.5162 69.4642 15.4472 69.573 15.3553C69.6817 15.2635 69.7709 15.1507 69.8352 15.0237C69.8995 14.8967 69.9376 14.758 69.9473 14.616Z" fill="black"/>
<path d="M72 14.0208C72 12.5979 72.7315 11.6965 73.8691 11.6965C74.1506 11.6836 74.4299 11.751 74.6744 11.8909C74.9189 12.0308 75.1186 12.2374 75.25 12.4865H75.3164V10.0134H76.2051V16.2742H75.3535V15.5627H75.2832C75.1416 15.8102 74.935 16.0143 74.6857 16.1527C74.4365 16.2912 74.1541 16.3589 73.8691 16.3484C72.7236 16.3484 72 15.447 72 14.0208ZM72.918 14.0208C72.918 14.9758 73.3682 15.5506 74.1211 15.5506C74.8701 15.5506 75.333 14.9676 75.333 14.0247C75.333 13.0862 74.8653 12.4949 74.1211 12.4949C73.3731 12.4949 72.918 13.0735 72.918 14.0208Z" fill="black"/>
<path d="M79.8816 14.0207C79.8533 13.7248 79.8872 13.4262 79.981 13.1441C80.0748 12.8621 80.2266 12.6027 80.4265 12.3828C80.6265 12.1628 80.8702 11.987 81.142 11.8667C81.4139 11.7465 81.7079 11.6843 82.0052 11.6843C82.3024 11.6843 82.5964 11.7465 82.8683 11.8667C83.1401 11.987 83.3838 12.1628 83.5838 12.3828C83.7837 12.6027 83.9355 12.8621 84.0293 13.1441C84.1232 13.4262 84.157 13.7248 84.1287 14.0207C84.1575 14.3169 84.1241 14.6159 84.0305 14.8984C83.9369 15.181 83.7852 15.4408 83.5852 15.6612C83.3853 15.8816 83.1414 16.0577 82.8692 16.1783C82.5971 16.2988 82.3028 16.3611 82.0052 16.3611C81.7075 16.3611 81.4132 16.2988 81.1411 16.1783C80.869 16.0577 80.6251 15.8816 80.4251 15.6612C80.2251 15.4408 80.0734 15.181 79.9798 14.8984C79.8862 14.6159 79.8528 14.3169 79.8816 14.0207ZM83.2146 14.0207C83.2146 13.0446 82.7761 12.4738 82.0066 12.4738C81.2342 12.4738 80.7996 13.0446 80.7996 14.0207C80.7996 15.0046 81.2342 15.571 82.0066 15.571C82.7762 15.571 83.2146 15.0007 83.2146 14.0207Z" fill="black"/>
<path d="M85.3213 11.7713H86.1768V12.4866H86.2432C86.3558 12.2297 86.5458 12.0143 86.7867 11.8705C87.0276 11.7267 87.3073 11.6616 87.5869 11.6844C87.806 11.6679 88.026 11.7009 88.2306 11.781C88.4352 11.8611 88.6192 11.9862 88.7689 12.1471C88.9185 12.3079 89.0301 12.5004 89.0953 12.7102C89.1605 12.92 89.1777 13.1418 89.1455 13.3592V16.2742H88.2568V13.5823C88.2568 12.8587 87.9424 12.4988 87.2852 12.4988C87.1364 12.4919 86.9879 12.5172 86.8498 12.573C86.7118 12.6289 86.5874 12.7139 86.4853 12.8223C86.3832 12.9307 86.3057 13.0599 86.2582 13.201C86.2107 13.3421 86.1942 13.4919 86.21 13.6399V16.2742H85.3213V11.7713Z" fill="black"/>
<path d="M94.167 10.6501V11.7917H95.1426V12.5403H94.167V14.8557C94.167 15.3274 94.3613 15.5339 94.8037 15.5339C94.917 15.5336 95.0301 15.5267 95.1426 15.5134V16.2537C94.983 16.2822 94.8213 16.2974 94.6592 16.2991C93.6709 16.2991 93.2773 15.9514 93.2773 15.0832V12.5402H92.5625V11.7917H93.2773V10.6501H94.167Z" fill="black"/>
<path d="M96.3564 10.0134H97.2373V12.4949H97.3076C97.4257 12.2356 97.621 12.019 97.8667 11.8746C98.1124 11.7303 98.3966 11.6652 98.6806 11.6882C98.8986 11.6764 99.1165 11.7128 99.3187 11.7948C99.521 11.8769 99.7027 12.0025 99.8508 12.1629C99.9989 12.3232 100.11 12.5143 100.176 12.7224C100.241 12.9305 100.26 13.1506 100.231 13.3669V16.2742H99.3418V13.5862C99.3418 12.8669 99.0068 12.5027 98.3789 12.5027C98.2262 12.4902 98.0726 12.5111 97.9288 12.5642C97.785 12.6173 97.6546 12.7011 97.5466 12.8098C97.4386 12.9186 97.3557 13.0496 97.3036 13.1937C97.2515 13.3379 97.2316 13.4916 97.2452 13.6443V16.2742H96.3565L96.3564 10.0134Z" fill="black"/>
<path d="M105.413 15.0584C105.293 15.47 105.031 15.8259 104.674 16.0641C104.318 16.3022 103.888 16.4074 103.462 16.3612C103.165 16.369 102.871 16.3122 102.598 16.1946C102.326 16.0771 102.082 15.9017 101.884 15.6805C101.686 15.4594 101.539 15.1979 101.452 14.914C101.365 14.6302 101.341 14.3309 101.382 14.0369C101.342 13.7421 101.367 13.4421 101.453 13.1575C101.54 12.8728 101.686 12.61 101.883 12.3869C102.08 12.1639 102.323 11.9857 102.594 11.8645C102.866 11.7433 103.161 11.6819 103.458 11.6844C104.711 11.6844 105.467 12.5404 105.467 13.9544V14.2645H102.287V14.3143C102.273 14.4795 102.294 14.6459 102.348 14.8026C102.402 14.9594 102.489 15.1031 102.602 15.2245C102.714 15.346 102.852 15.4425 103.004 15.5079C103.156 15.5733 103.321 15.6061 103.486 15.6043C103.699 15.6298 103.914 15.5915 104.105 15.4943C104.296 15.3971 104.453 15.2454 104.558 15.0584L105.413 15.0584ZM102.287 13.6073H104.562C104.573 13.4561 104.552 13.3043 104.501 13.1616C104.45 13.0189 104.37 12.8884 104.266 12.7786C104.161 12.6687 104.035 12.5819 103.895 12.5237C103.755 12.4655 103.605 12.4373 103.453 12.4408C103.3 12.4388 103.147 12.4677 103.005 12.5256C102.862 12.5836 102.733 12.6694 102.624 12.7781C102.516 12.8869 102.43 13.0162 102.372 13.1586C102.314 13.301 102.285 13.4536 102.287 13.6073Z" fill="black"/>
</svg>
