<svg width="25" height="24" viewBox="0 0 25 24" fill="none" xmlns="http://www.w3.org/2000/svg">
<path d="M20.7543 3H12.0884C12.0884 5.16 13.8366 6.909 15.9972 6.909H17.5909V8.45138C17.5909 10.6114 19.3399 12.3604 21.4999 12.3604V3.74569C21.4998 3.54796 21.4212 3.35838 21.2814 3.21857C21.1416 3.07876 20.952 3.00015 20.7543 3Z" fill="#2684FF"/>
<path d="M16.4603 7.32001H7.79419C7.79419 9.47982 9.54263 11.2288 11.7024 11.2288H13.2969V12.7712C13.2969 14.9312 15.0459 16.6802 17.2059 16.6802V8.06551C17.2056 7.86783 17.127 7.67834 16.9872 7.53856C16.8474 7.39878 16.6579 7.32031 16.4603 7.32001Z" fill="url(#paint0_linear_6890_204)"/>
<path d="M12.1661 11.6396H3.5C3.5 13.8004 5.24825 15.5486 7.409 15.5486H9.00275V17.0918C9.00275 19.2518 10.7517 21 12.9116 21V12.3861C12.9114 12.1884 12.8328 11.9988 12.693 11.8589C12.5533 11.719 12.3638 11.64 12.1661 11.6396Z" fill="url(#paint1_linear_6890_204)"/>
<defs>
<linearGradient id="paint0_linear_6890_204" x1="17.0256" y1="7.32976" x2="13.3386" y2="11.1315" gradientUnits="userSpaceOnUse">
<stop offset="0.176" stop-color="#0052CC"/>
<stop offset="1" stop-color="#2684FF"/>
</linearGradient>
<linearGradient id="paint1_linear_6890_204" x1="12.9807" y1="11.673" x2="8.71775" y2="15.8205" gradientUnits="userSpaceOnUse">
<stop offset="0.176" stop-color="#0052CC"/>
<stop offset="1" stop-color="#2684FF"/>
</linearGradient>
</defs>
</svg>
