<svg width="149" height="46" viewBox="0 0 149 46" fill="none" xmlns="http://www.w3.org/2000/svg">
<g id="main logo vabro 3" clip-path="url(#clip0_3615_72781)">
<path id="Vector" d="M37.8037 44.2693C38.6067 44.2693 39.2577 43.6077 39.2577 42.7916C39.2577 41.9755 38.6067 41.314 37.8037 41.314C37.0006 41.314 36.3496 41.9755 36.3496 42.7916C36.3496 43.6077 37.0006 44.2693 37.8037 44.2693Z" fill="#72BF44"/>
<g id="Group">
<path id="Vector_2" d="M0 8.62617C5.15506 16.4762 10.3081 24.3262 15.4632 32.1762C16.1466 33.217 17.6615 33.1964 18.3145 32.135C24.81 21.5893 31.3076 11.0457 37.8031 0.5C30.4254 8.03881 23.0477 15.5776 15.67 23.1144C10.448 18.2857 5.22401 13.457 0 8.62617Z" fill="url(#paint0_linear_3615_72781)"/>
<path id="Vector_3" d="M1.51172 7.47517C3.90268 8.87453 8.60145 11.1271 14.6387 10.8983C15.4052 10.8695 19.0677 10.6902 23.2981 8.90339C27.2424 7.23611 30.2702 4.76508 31.929 3.41106C33.4399 2.17657 34.3038 1.30687 34.3423 1.34808C34.4214 1.43052 30.9272 5.11131 15.6405 20.5393C10.9295 16.1825 6.22063 11.8278 1.51172 7.47517Z" fill="url(#paint1_linear_3615_72781)"/>
<path id="Vector_4" opacity="0.29" d="M1.51187 7.47472C3.42829 9.21207 9.71698 14.4695 16.8736 13.2082C21.0451 12.4724 24.5961 9.68401 27.9889 7.01926C30.9598 4.6863 34.3445 1.35381 34.3364 1.34351C34.3364 1.34351 34.2999 1.3703 34.2309 1.428C34.0748 1.55578 33.9592 1.6547 33.9308 1.67737C33.6631 1.90613 33.3751 2.17405 33.3751 2.17405C33.2332 2.30595 33.0182 2.49762 32.7059 2.75729C32.5964 2.85003 32.4443 2.97987 32.2597 3.13444C32.2597 3.13444 31.7487 3.56105 31.2478 3.96086C28.7818 5.92491 26.691 7.17382 26.691 7.17382C22.56 9.59539 18.8712 10.327 18.0194 10.4857C15.6305 10.9288 13.8033 10.9185 13.2882 10.9082C12.6109 10.8958 10.6073 10.8278 8.09461 10.1951C7.48217 10.0406 5.76044 9.58097 3.66353 8.6041C2.77731 8.19192 2.04928 7.79004 1.50781 7.47472H1.51187Z" fill="white"/>
<path id="Vector_5" d="M15.6705 23.1128L12.0566 26.9852L15.4636 32.1726C15.5386 32.2818 15.9158 32.8073 16.6013 32.9165C17.2482 33.0196 17.9134 32.7125 18.3169 32.1293C24.8084 21.5877 31.306 11.0441 37.8015 0.498413L15.6705 23.1128Z" fill="url(#paint2_linear_3615_72781)"/>
<g id="Group_2">
<path id="Vector_6" d="M40.9664 11.5932L44.7263 24.1647C44.9494 24.9108 45.9897 24.9108 46.2128 24.1647L49.9746 11.5932C50.074 11.2614 50.3762 11.0326 50.7189 11.0326H56.0686C56.606 11.0326 56.9792 11.5726 56.8007 12.0857L49.7069 32.4001C49.5974 32.7154 49.3034 32.9257 48.9748 32.9257H41.9257C41.5971 32.9257 41.3031 32.7154 41.1936 32.4001L34.0998 12.0857C33.9213 11.5726 34.2945 11.0326 34.8319 11.0326H40.2222C40.5649 11.0326 40.865 11.2593 40.9664 11.5932Z" fill="#2F80ED"/>
<path id="Vector_7" d="M67.9403 10.7186C70.2136 10.7186 72.0205 11.4688 73.2921 12.592C73.797 13.0371 74.5798 12.6868 74.5798 12.0087V11.8191C74.5798 11.3843 74.9266 11.0339 75.3525 11.0339H80.4082C80.8361 11.0339 81.1808 11.3863 81.1808 11.8191V32.1397C81.1808 32.5746 80.834 32.9249 80.4082 32.9249H75.3525C74.9246 32.9249 74.5798 32.5725 74.5798 32.1397V31.9275C74.5798 31.2494 73.799 30.897 73.2961 31.3401C72.0084 32.4757 70.1913 33.2382 67.9017 33.2382C62.6514 33.2382 58.4434 28.8443 58.4434 21.9382C58.4434 15.0321 62.6514 10.7166 67.9403 10.7166V10.7186ZM69.8709 16.5654C67.4008 16.5654 65.1599 18.4491 65.1599 21.9403C65.1599 25.4315 67.3988 27.3935 69.8709 27.3935C72.343 27.3935 74.5818 25.4706 74.5818 21.9794C74.5818 18.4883 72.3815 16.5654 69.8709 16.5654Z" fill="#2F80ED"/>
<path id="Vector_8" d="M99.0179 10.7183C104.345 10.7183 108.515 15.0339 108.515 21.94C108.515 28.8461 104.307 33.24 99.0179 33.24C96.7547 33.24 94.9437 32.498 93.66 31.3728C93.1571 30.9317 92.3783 31.2862 92.3783 31.9622V32.1415C92.3783 32.5743 92.0316 32.9267 91.6057 32.9267H86.55C86.1241 32.9267 85.7773 32.5743 85.7773 32.1415V4.67779C85.7773 4.24499 86.1241 3.89258 86.55 3.89258H91.6057C92.0316 3.89258 92.3783 4.24499 92.3783 4.67779V12.0249C92.3783 12.7009 93.1571 13.0554 93.66 12.6144C94.964 11.4664 96.8033 10.7204 99.0199 10.7204L99.0179 10.7183ZM97.0487 16.5651C94.5787 16.5651 92.3378 18.488 92.3378 21.9791C92.3378 25.4703 94.5766 27.3932 97.0487 27.3932C99.5208 27.3932 101.798 25.4312 101.798 21.94C101.798 18.4488 99.5593 16.5651 97.0487 16.5651Z" fill="#2F80ED"/>
<path id="Vector_9" d="M117.627 32.9245H112.571C112.146 32.9245 111.799 32.5721 111.799 32.1393V11.8166C111.799 11.3838 112.146 11.0314 112.571 11.0314H117.627C118.053 11.0314 118.4 11.3838 118.4 11.8166V12.507C118.4 13.1933 119.213 13.5602 119.7 13.082C120.943 11.8579 122.513 11.0356 124.321 10.8398C124.77 10.7924 125.157 11.1654 125.157 11.6229V17.1111C125.157 17.5439 124.81 17.8963 124.384 17.8963H123.342C120.215 17.8963 118.4 18.9948 118.4 22.7621V32.1393C118.4 32.5721 118.053 32.9245 117.627 32.9245Z" fill="#2F80ED"/>
</g>
</g>
<path id="Vector_10" d="M108.517 44.2693C109.32 44.2693 109.971 43.6077 109.971 42.7916C109.971 41.9755 109.32 41.314 108.517 41.314C107.713 41.314 107.062 41.9755 107.062 42.7916C107.062 43.6077 107.713 44.2693 108.517 44.2693Z" fill="#72BF44"/>
<path id="Vector_11" d="M137.926 32.112L137.908 32.0935L135.837 30.0841L137.908 27.881L137.926 27.8624L138.023 27.7553C137.993 27.7573 137.959 27.7573 137.926 27.7573H137.908C135.389 27.7573 133.25 26.0901 132.507 23.7798L131.22 21.9827L130.149 20.4844L128.119 21.9827L126.855 22.9163C127.32 28.7074 132.094 33.2579 137.91 33.2579H137.928C138.305 33.2579 138.678 33.2394 139.046 33.2002L137.928 32.1162L137.926 32.112Z" fill="#2F80ED"/>
<path id="Vector_12" d="M137.924 10.7042H137.906C137.75 10.7042 137.592 10.7063 137.438 10.7166L137.906 11.2936L137.924 11.3184L140.202 14.1295L137.924 16.0296L137.906 16.0461L137.713 16.2069C137.776 16.2027 137.841 16.2027 137.906 16.2027H137.924C140.342 16.211 142.402 17.7505 143.215 19.9165L145.095 21.9774L145.815 22.7647L146.648 21.9774L148.816 19.933C147.869 14.69 143.355 10.7145 137.926 10.7042H137.924Z" fill="#2F80ED"/>
<path id="Vector_13" d="M132.227 21.804C132.245 21.2784 132.365 19.8193 133.416 18.4385C134.261 17.3297 135.285 16.8269 135.778 16.6228C136.822 15.749 137.867 14.8773 138.911 14.0034L136.334 10.8173C135.482 10.9409 134.2 11.2294 132.801 11.9672C131.01 12.9111 129.869 14.1436 129.246 14.9329C128.668 15.6645 127.628 17.1731 127.115 19.3494C126.883 20.3263 126.823 21.1733 126.812 21.7854C127.991 20.9157 129.169 20.0481 130.345 19.1784L132.223 21.804H132.227Z" fill="#72BF44"/>
<path id="Vector_14" d="M149.001 21.9961C149.001 22.0909 148.999 22.1878 148.997 22.2908C148.994 22.4001 148.988 22.5134 148.982 22.6288C148.978 22.7401 148.968 22.8576 148.958 22.9771V22.9854C148.946 23.1028 148.934 23.2183 148.919 23.3419C148.668 25.4255 147.897 26.965 147.445 27.7378C147.415 27.7894 147.384 27.8368 147.358 27.8821C147.327 27.9336 147.295 27.9872 147.261 28.0428C147.062 28.3602 146.776 28.7786 146.389 29.2464C146.352 29.2876 146.318 29.3309 146.281 29.3721C146.206 29.4608 146.131 29.5473 146.048 29.6359C146.007 29.6792 145.967 29.7246 145.924 29.7699C145.884 29.8132 145.841 29.8585 145.796 29.9039C145.709 29.9925 145.62 30.0811 145.525 30.1738C145.113 30.5716 144.628 30.9755 144.069 31.3527C144.014 31.3918 143.959 31.4289 143.9 31.4681C143.825 31.5175 143.752 31.5629 143.675 31.6103C143.61 31.6515 143.543 31.6927 143.476 31.7319C143.454 31.7463 143.434 31.7587 143.412 31.771C143.397 31.7793 143.385 31.7855 143.371 31.7937C143.306 31.8329 143.241 31.87 143.176 31.9029C142.868 32.0761 142.562 32.2224 142.268 32.3481C142.197 32.379 142.122 32.412 142.049 32.4408C141.978 32.4697 141.907 32.4985 141.836 32.5253C141.767 32.5521 141.696 32.5789 141.627 32.6036C141.56 32.6284 141.491 32.6531 141.426 32.6737C141.359 32.6964 141.292 32.717 141.227 32.7397C141.163 32.7582 141.1 32.7788 141.039 32.7974C140.724 32.8922 140.437 32.9622 140.185 33.0158L140.157 32.987H140.155C139.145 32.008 138.139 31.0291 137.129 30.0481L138.368 28.7291L139.504 27.5214C139.518 27.5173 139.532 27.5111 139.548 27.507C139.583 27.4967 139.617 27.4843 139.658 27.472C139.698 27.4575 139.741 27.4431 139.79 27.4266C139.903 27.3875 140.013 27.3401 140.122 27.2927C140.406 27.169 140.751 26.9897 141.11 26.7404C141.205 26.6723 141.302 26.6043 141.394 26.5322C141.432 26.5033 141.471 26.4704 141.509 26.4395C141.665 26.3096 141.822 26.1695 141.972 26.0108C142.014 25.9675 142.059 25.9201 142.101 25.8727C142.132 25.8377 142.166 25.8006 142.197 25.7635C142.345 25.5904 142.489 25.4008 142.627 25.1926C142.681 25.1102 142.732 25.0298 142.781 24.9474C142.825 24.869 142.87 24.7907 142.913 24.7145C142.913 24.7104 142.915 24.7062 142.921 24.7021C142.992 24.564 143.057 24.4218 143.117 24.2858C143.132 24.2508 143.146 24.2178 143.158 24.1869C143.182 24.1292 143.207 24.0694 143.225 24.0117C143.253 23.9334 143.28 23.8592 143.304 23.7829C143.328 23.7108 143.349 23.6346 143.371 23.5604C143.452 23.2698 143.503 22.9957 143.537 22.7463C143.547 22.6824 143.551 22.6247 143.56 22.567C143.576 22.4104 143.586 22.2537 143.588 22.0951C143.59 22.0497 143.59 22.0044 143.59 21.9632C143.59 21.8807 143.588 21.8065 143.586 21.7468C143.586 21.7282 143.584 21.7076 143.584 21.6911L145.77 24.0838L148.964 21.0687C148.968 21.1347 148.974 21.2047 148.978 21.2748C148.982 21.3469 148.988 21.4211 148.99 21.4995C148.992 21.5551 148.994 21.6169 148.999 21.6767C149.001 21.7818 149.003 21.889 149.003 22.0003L149.001 21.9961Z" fill="#72BF44"/>
<g id="Group_3" opacity="0.75">
<path id="Vector_15" d="M14.2945 42.8641H13.1345V45.4237H12.3477V39.2946H14.2945C15.7141 39.2946 16.3792 40.0859 16.3792 41.0875C16.3792 42.0191 15.7911 42.8641 14.2945 42.8641ZM14.2945 42.2046C15.1949 42.2046 15.5741 41.7738 15.5741 41.0875C15.5741 40.4013 15.1929 39.954 14.2945 39.954H13.1345V42.2046H14.2945Z" fill="#231F20"/>
<path id="Vector_16" d="M18.2207 38.9171H19.0076V45.4234H18.2207V38.9171Z" fill="#231F20"/>
<path id="Vector_17" d="M23.171 40.5266C24.0531 40.5266 24.6595 40.9841 24.9353 41.4849V40.6049H25.7323V45.4233H24.9353V44.5268C24.6493 45.0462 24.0349 45.5037 23.1608 45.5037C21.8974 45.5037 20.9199 44.4918 20.9199 42.9976C20.9199 41.5035 21.8974 40.5266 23.1689 40.5266H23.171ZM23.3271 41.2211C22.4612 41.2211 21.727 41.8621 21.727 42.9976C21.727 44.1332 22.4632 44.8009 23.3271 44.8009C24.191 44.8009 24.9373 44.1414 24.9373 43.0079C24.9373 41.8744 24.193 41.2232 23.3271 41.2232V41.2211Z" fill="#231F20"/>
<path id="Vector_18" d="M31.3995 42.6994C31.3995 41.7143 30.8723 41.2135 30.0753 41.2135C29.2783 41.2135 28.7165 41.7225 28.7165 42.7612V45.426H27.9297V40.6076H28.7165V41.2938C29.0288 40.793 29.5987 40.521 30.2395 40.521C31.3387 40.521 32.1783 41.2073 32.1783 42.5881V45.428H31.3995V42.7014V42.6994Z" fill="#231F20"/>
<path id="Vector_19" d="M46.574 39.2151C47.88 39.2151 48.9183 39.8828 49.3685 41.0699H48.4255C48.097 40.3321 47.4562 39.9179 46.574 39.9179C45.3106 39.9179 44.3676 40.8494 44.3676 42.3539C44.3676 43.8583 45.3106 44.7816 46.574 44.7816C47.4562 44.7816 48.097 44.3694 48.4255 43.6378H49.3685C48.9183 44.8166 47.88 45.4761 46.574 45.4761C44.8868 45.4761 43.5625 44.1922 43.5625 42.3539C43.5625 40.5155 44.8868 39.2151 46.574 39.2151Z" fill="#231F20"/>
<path id="Vector_20" d="M53.47 45.5031C52.1295 45.5031 51.1074 44.5365 51.1074 43.0053C51.1074 41.474 52.164 40.526 53.5045 40.526C54.8449 40.526 55.9015 41.4843 55.9015 43.0053C55.9015 44.5262 54.8206 45.5031 53.47 45.5031ZM53.47 44.8003C54.2913 44.8003 55.0964 44.2295 55.0964 43.0073C55.0964 41.7852 54.3096 41.2226 53.4964 41.2226C52.6831 41.2226 51.9125 41.7935 51.9125 43.0073C51.9125 44.2212 52.6487 44.8003 53.47 44.8003Z" fill="#231F20"/>
<path id="Vector_21" d="M57.8027 38.9153H58.5896V45.4216H57.8027V38.9153Z" fill="#231F20"/>
<path id="Vector_22" d="M60.7988 38.9182H61.5857V45.4245H60.7988V38.9182Z" fill="#231F20"/>
<path id="Vector_23" d="M65.7452 40.5248C66.6273 40.5248 67.2337 40.9823 67.5095 41.4831V40.6031H68.3065V45.4215H67.5095V44.525C67.2235 45.0444 66.6091 45.5019 65.735 45.5019C64.4716 45.5019 63.4941 44.49 63.4941 42.9958C63.4941 41.5017 64.4716 40.5248 65.7431 40.5248H65.7452ZM65.9013 41.2193C65.0354 41.2193 64.3013 41.8602 64.3013 42.9958C64.3013 44.1314 65.0374 44.7991 65.9013 44.7991C66.7652 44.7991 67.5115 44.1396 67.5115 43.0061C67.5115 41.8726 66.7673 41.2214 65.9013 41.2214V41.2193Z" fill="#231F20"/>
<path id="Vector_24" d="M73.0672 40.5283C74.3468 40.5283 75.3162 41.4949 75.3162 42.9993C75.3162 44.5038 74.3387 45.5054 73.0672 45.5054C72.2012 45.5054 71.5868 45.0664 71.2927 44.5388V45.4271H70.5059V38.9208H71.2927V41.5052C71.5949 40.9693 72.2276 40.5283 73.0672 40.5283ZM72.9029 41.2228C72.0471 41.2228 71.2927 41.8906 71.2927 43.0076C71.2927 44.1246 72.0451 44.8006 72.9029 44.8006C73.7607 44.8006 74.5131 44.1328 74.5131 42.9973C74.5131 41.8617 73.777 41.2208 72.9029 41.2208V41.2228Z" fill="#231F20"/>
<path id="Vector_25" d="M79.2844 45.5012C77.944 45.5012 76.9219 44.5346 76.9219 43.0033C76.9219 41.4721 77.9784 40.524 79.3189 40.524C80.6594 40.524 81.716 41.4824 81.716 43.0033C81.716 44.5243 80.6351 45.5012 79.2844 45.5012ZM79.2844 44.7984C80.1058 44.7984 80.9109 44.2275 80.9109 43.0054C80.9109 41.7833 80.124 41.2206 79.3108 41.2206C78.4976 41.2206 77.727 41.7915 77.727 43.0054C77.727 44.2193 78.4631 44.7984 79.2844 44.7984Z" fill="#231F20"/>
<path id="Vector_26" d="M84.4079 45.4239H83.6211V40.6055H84.4079V41.3886C84.6756 40.8528 85.1867 40.5189 85.939 40.5189V41.3453H85.7322C84.9798 41.3453 84.4079 41.6875 84.4079 42.8045V45.4239Z" fill="#231F20"/>
<path id="Vector_27" d="M89.667 40.5248C90.5492 40.5248 91.1556 40.9823 91.4314 41.4831V40.6031H92.2263V45.4215H91.4314V44.525C91.1454 45.0444 90.531 45.5019 89.6569 45.5019C88.3935 45.5019 87.416 44.49 87.416 42.9958C87.416 41.5017 88.3935 40.5248 89.665 40.5248H89.667ZM89.8232 41.2193C88.9573 41.2193 88.2231 41.8602 88.2231 42.9958C88.2231 44.1314 88.9593 44.7991 89.8232 44.7991C90.6871 44.7991 91.4334 44.1396 91.4334 43.0061C91.4334 41.8726 90.6891 41.2214 89.8232 41.2214V41.2193Z" fill="#231F20"/>
<path id="Vector_28" d="M94.6008 41.265H93.9863V40.6055H94.6008V39.3916H95.3876V40.6055H96.6247V41.265H95.3876V44.1049C95.3876 44.5789 95.56 44.7458 96.0447 44.7458H96.6247V45.4239H95.9149C95.0753 45.4239 94.5988 45.0715 94.5988 44.1049V41.265H94.6008Z" fill="#231F20"/>
<path id="Vector_29" d="M100.493 45.5025C99.1421 45.5025 98.1484 44.5359 98.1484 43.0047C98.1484 41.4734 99.1097 40.5254 100.493 40.5254C101.876 40.5254 102.768 41.5105 102.768 42.8295C102.768 43.0047 102.76 43.1469 102.742 43.3138H98.9515C99.0123 44.2907 99.6877 44.8265 100.491 44.8265C101.201 44.8265 101.651 44.4576 101.823 43.9383H102.671C102.429 44.8183 101.667 45.5025 100.491 45.5025H100.493ZM98.9616 42.6626H101.955C101.963 41.7228 101.271 41.2034 100.458 41.2034C99.6877 41.2034 99.0489 41.7228 98.9616 42.6626Z" fill="#231F20"/>
<path id="Vector_30" d="M119.275 42.3742C119.275 44.2723 118.055 45.4243 116.073 45.4243H114.195V39.2952H116.073C118.055 39.2952 119.275 40.474 119.275 42.3721V42.3742ZM116.073 44.7648C117.647 44.7648 118.47 43.8683 118.47 42.3742C118.47 40.88 117.649 39.9464 116.073 39.9464H114.982V44.7648H116.073Z" fill="#231F20"/>
<path id="Vector_31" d="M123.229 45.5016C121.878 45.5016 120.885 44.5351 120.885 43.0038C120.885 41.4726 121.846 40.5245 123.229 40.5245C124.612 40.5245 125.504 41.5097 125.504 42.8286C125.504 43.0038 125.496 43.146 125.478 43.3129H121.688C121.749 44.2898 122.424 44.8257 123.227 44.8257C123.937 44.8257 124.387 44.4568 124.559 43.9374H125.407C125.166 44.8174 124.403 45.5016 123.227 45.5016H123.229ZM121.698 42.6617H124.691C124.699 41.7219 124.008 41.2026 123.195 41.2026C122.424 41.2026 121.785 41.7219 121.698 42.6617Z" fill="#231F20"/>
<path id="Vector_32" d="M127.406 38.9171H128.193V45.4234H127.406V38.9171Z" fill="#231F20"/>
<path id="Vector_33" d="M130.27 39.2756C130.27 38.9686 130.503 38.7295 130.805 38.7295C131.091 38.7295 131.324 38.9665 131.324 39.2756C131.324 39.5848 131.091 39.8197 130.805 39.8197C130.503 39.8197 130.27 39.5827 130.27 39.2756ZM130.399 40.6029H131.186V45.4213H130.399V40.6029Z" fill="#231F20"/>
<path id="Vector_34" d="M133.678 40.6031L135.156 44.6838L136.626 40.6031H137.466L135.606 45.4216H134.69L132.83 40.6031H133.678Z" fill="#231F20"/>
<path id="Vector_35" d="M141.163 45.5027C139.812 45.5027 138.818 44.5362 138.818 43.0049C138.818 41.4737 139.78 40.5256 141.163 40.5256C142.546 40.5256 143.438 41.5108 143.438 42.8297C143.438 43.0049 143.43 43.1471 143.412 43.314H139.621C139.682 44.2909 140.358 44.8268 141.161 44.8268C141.87 44.8268 142.321 44.4579 142.493 43.9385H143.341C143.099 44.8185 142.337 45.5027 141.161 45.5027H141.163ZM139.632 42.6628H142.625C142.633 41.723 141.941 41.2037 141.128 41.2037C140.358 41.2037 139.719 41.723 139.632 42.6628Z" fill="#231F20"/>
<path id="Vector_36" d="M146.131 45.4249H145.344V40.6065H146.131V41.3896C146.398 40.8538 146.909 40.5199 147.662 40.5199V41.3463H147.455C146.702 41.3463 146.131 41.6884 146.131 42.8054V45.4249Z" fill="#231F20"/>
</g>
</g>
<defs>
<linearGradient id="paint0_linear_3615_72781" x1="19.081" y1="4.86295" x2="39.2711" y2="37.3479" gradientUnits="userSpaceOnUse">
<stop stop-color="#72BF44"/>
<stop offset="0.97" stop-color="#182E18"/>
</linearGradient>
<linearGradient id="paint1_linear_3615_72781" x1="1.51172" y1="10.9396" x2="34.3423" y2="10.9396" gradientUnits="userSpaceOnUse">
<stop stop-color="#155DEC"/>
<stop offset="0.49" stop-color="#76A6FF"/>
<stop offset="1" stop-color="#155DEC"/>
</linearGradient>
<linearGradient id="paint2_linear_3615_72781" x1="25.8325" y1="15.9532" x2="32.9995" y2="20.1262" gradientUnits="userSpaceOnUse">
<stop stop-color="#72BF44"/>
<stop offset="0.97" stop-color="#182E18"/>
</linearGradient>
<clipPath id="clip0_3615_72781">
<rect width="149" height="45" fill="white" transform="translate(0 0.5)"/>
</clipPath>
</defs>
</svg>
