<svg width="255" height="78" viewBox="0 0 255 78" fill="none" xmlns="http://www.w3.org/2000/svg">
<g id="main logo vabro 4" clip-path="url(#clip0_3974_32173)">
<path id="Vector" opacity="0.8" d="M64.6974 75.2263C66.0718 75.2263 67.1859 74.094 67.1859 72.6974C67.1859 71.3007 66.0718 70.1685 64.6974 70.1685C63.3231 70.1685 62.209 71.3007 62.209 72.6974C62.209 74.094 63.3231 75.2263 64.6974 75.2263Z" fill="#BFBFBF"/>
<g id="Group">
<path id="Vector_2" opacity="0.8" d="M0 14.2265C8.82243 27.6611 17.6414 41.0957 26.4638 54.5303C27.6334 56.3114 30.226 56.2762 31.3436 54.4597C42.4601 36.4118 53.5801 18.3673 64.6966 0.319336C52.0704 13.2213 39.4441 26.1233 26.8178 39.0218C17.8809 30.7579 8.94043 22.494 0 14.2265Z" fill="white"/>
<path id="Vector_3" d="M2.58691 12.2569C6.67883 14.6518 14.7204 18.5069 25.0525 18.1154C26.3644 18.066 32.6324 17.7591 39.8722 14.7012C46.6227 11.8478 51.8044 7.61883 54.6434 5.30155C57.229 3.18884 58.7075 1.70042 58.7735 1.77096C58.9088 1.91204 52.9289 8.21137 26.767 34.615C18.7047 27.1587 10.6458 19.7061 2.58691 12.2569Z" fill="white"/>
<path id="Vector_4" opacity="0.8" d="M2.58702 12.2562C5.8668 15.2295 16.6293 24.227 28.8773 22.0685C36.0164 20.8093 42.0936 16.0372 47.9 11.4767C52.9845 7.48408 58.7771 1.78082 58.7632 1.76318C58.7632 1.76318 58.7007 1.80904 58.5827 1.90779C58.3154 2.12647 58.1176 2.29577 58.069 2.33457C57.6109 2.72607 57.1181 3.18459 57.1181 3.18459C56.8751 3.41032 56.5072 3.73834 55.9728 4.18275C55.7853 4.34147 55.525 4.56367 55.2092 4.8282C55.2092 4.8282 54.3346 5.5583 53.4773 6.24255C49.257 9.60384 45.6788 11.7412 45.6788 11.7412C38.609 15.8855 32.2959 17.1376 30.8382 17.4092C26.7498 18.1675 23.6227 18.1499 22.7412 18.1323C21.582 18.1111 18.1529 17.9947 13.8528 16.9119C12.8046 16.6474 9.85806 15.8608 6.26939 14.189C4.75271 13.4836 3.50675 12.7958 2.58008 12.2562H2.58702Z" fill="#D2D2D2"/>
<path id="Vector_5" d="M26.8185 39.0193L20.6338 45.6467L26.4645 54.5243C26.5929 54.7112 27.2385 55.6106 28.4115 55.7976C29.5187 55.9739 30.6571 55.4484 31.3477 54.4502C42.4573 36.4093 53.5773 18.3649 64.6939 0.316895L26.8185 39.0193Z" fill="white"/>
<g id="Group_2">
<path id="Vector_6" d="M70.1101 19.3046L76.5447 40.8197C76.9265 42.0964 78.7069 42.0964 79.0887 40.8197L85.5268 19.3046C85.6968 18.7367 86.214 18.3452 86.8005 18.3452H95.9561C96.8759 18.3452 97.5145 19.2693 97.209 20.1475L85.0687 54.9138C84.8812 55.4534 84.378 55.8132 83.8158 55.8132H71.7517C71.1895 55.8132 70.6862 55.4534 70.4988 54.9138L58.3584 20.1475C58.053 19.2693 58.6916 18.3452 59.6113 18.3452H68.8364C69.4229 18.3452 69.9366 18.7332 70.1101 19.3046Z" fill="white"/>
<path id="Vector_7" d="M116.274 17.8077C120.164 17.8077 123.257 19.0916 125.433 21.0138C126.297 21.7757 127.637 21.1761 127.637 20.0157V19.6912C127.637 18.947 128.23 18.3474 128.959 18.3474H137.611C138.344 18.3474 138.934 18.9505 138.934 19.6912V54.468C138.934 55.2122 138.34 55.8118 137.611 55.8118H128.959C128.227 55.8118 127.637 55.2087 127.637 54.468V54.1047C127.637 52.9443 126.3 52.3412 125.44 53.0995C123.236 55.0429 120.126 56.3479 116.208 56.3479C107.222 56.3479 100.021 48.8282 100.021 37.009C100.021 25.1899 107.222 17.8042 116.274 17.8042V17.8077ZM119.578 27.814C115.35 27.814 111.515 31.0377 111.515 37.0126C111.515 42.9874 115.347 46.3452 119.578 46.3452C123.808 46.3452 127.64 43.0544 127.64 37.0796C127.64 31.1047 123.874 27.814 119.578 27.814Z" fill="white"/>
<path id="Vector_8" d="M169.46 17.8071C178.577 17.8071 185.713 25.1928 185.713 37.012C185.713 48.8311 178.511 56.3508 169.46 56.3508C165.586 56.3508 162.487 55.0811 160.29 53.1553C159.43 52.4005 158.097 53.0072 158.097 54.1641V54.4709C158.097 55.2116 157.503 55.8147 156.774 55.8147H148.122C147.393 55.8147 146.8 55.2116 146.8 54.4709V7.4693C146.8 6.72862 147.393 6.12549 148.122 6.12549H156.774C157.503 6.12549 158.097 6.72862 158.097 7.4693V20.0433C158.097 21.2001 159.43 21.8068 160.29 21.052C162.522 19.0874 165.67 17.8106 169.463 17.8106L169.46 17.8071ZM166.09 27.8134C161.862 27.8134 158.027 31.1041 158.027 37.079C158.027 43.0538 161.859 46.3446 166.09 46.3446C170.32 46.3446 174.218 42.9868 174.218 37.012C174.218 31.0371 170.386 27.8134 166.09 27.8134Z" fill="white"/>
<path id="Vector_9" d="M201.308 55.8108H192.655C191.926 55.8108 191.333 55.2076 191.333 54.467V19.6866C191.333 18.9459 191.926 18.3428 192.655 18.3428H201.308C202.037 18.3428 202.63 18.9459 202.63 19.6866V20.8682C202.63 22.0427 204.022 22.6705 204.855 21.8522C206.982 19.7571 209.669 18.3498 212.764 18.0148C213.531 17.9337 214.194 18.5721 214.194 19.3551V28.7476C214.194 29.4883 213.601 30.0914 212.872 30.0914H211.088C205.736 30.0914 202.63 31.9714 202.63 38.4188V54.467C202.63 55.2076 202.037 55.8108 201.308 55.8108Z" fill="white"/>
</g>
</g>
<path id="Vector_10" opacity="0.8" d="M185.716 75.2263C187.09 75.2263 188.204 74.094 188.204 72.6974C188.204 71.3007 187.09 70.1685 185.716 70.1685C184.342 70.1685 183.228 71.3007 183.228 72.6974C183.228 74.094 184.342 75.2263 185.716 75.2263Z" fill="#BFBFBF"/>
<path id="Vector_11" d="M236.048 54.4207L236.017 54.3889L232.473 50.95L236.017 47.1796L236.048 47.1479L236.214 46.9645C236.162 46.968 236.103 46.968 236.048 46.968H236.017C231.706 46.968 228.045 44.1146 226.774 40.1608L224.57 37.0852L222.738 34.521L219.264 37.0852L217.102 38.6829C217.896 48.594 226.066 56.3817 236.02 56.3817H236.051C236.697 56.3817 237.336 56.35 237.964 56.283L236.051 54.4277L236.048 54.4207Z" fill="white"/>
<path id="Vector_12" d="M236.045 17.7827H236.014C235.746 17.7827 235.476 17.7862 235.212 17.8039L236.014 18.7915L236.045 18.8338L239.942 23.6447L236.045 26.8966L236.014 26.9249L235.684 27.2C235.792 27.1929 235.903 27.1929 236.014 27.1929H236.045C240.182 27.207 243.708 29.8417 245.1 33.5487L248.317 37.0757L249.549 38.4231L250.976 37.0757L254.686 33.5769C253.065 24.6041 245.339 17.8004 236.048 17.7827H236.045Z" fill="white"/>
<path id="Vector_13" d="M226.295 36.7793C226.326 35.8799 226.531 33.3828 228.329 31.0196C229.776 29.1221 231.529 28.2615 232.372 27.9123C234.16 26.4168 235.947 24.9249 237.734 23.4294L233.323 17.9766C231.865 18.1882 229.672 18.682 227.277 19.9447C224.213 21.5601 222.259 23.6692 221.193 25.0201C220.204 26.2722 218.424 28.854 217.545 32.5786C217.15 34.2504 217.046 35.7 217.028 36.7476C219.045 35.2592 221.061 33.7743 223.074 32.2858L226.288 36.7793H226.295Z" fill="white"/>
<path id="Vector_14" d="M255.001 37.1082C255.001 37.2704 254.997 37.4362 254.994 37.6125C254.99 37.7995 254.98 37.9935 254.97 38.191C254.963 38.3814 254.945 38.5825 254.928 38.7871V38.8012C254.907 39.0022 254.886 39.1997 254.862 39.4113C254.432 42.9772 253.113 45.6119 252.339 46.9346C252.287 47.0227 252.235 47.1039 252.19 47.1815C252.138 47.2696 252.082 47.3613 252.023 47.4566C251.683 47.9997 251.194 48.7157 250.531 49.5164C250.468 49.5869 250.409 49.661 250.347 49.7315C250.218 49.8832 250.09 50.0313 249.948 50.183C249.878 50.2571 249.809 50.3347 249.736 50.4122C249.666 50.4863 249.594 50.5639 249.517 50.6415C249.368 50.7932 249.215 50.9448 249.052 51.1035C248.348 51.7843 247.518 52.4756 246.56 53.121C246.466 53.188 246.373 53.2515 246.272 53.3185C246.144 53.4032 246.019 53.4808 245.887 53.5619C245.776 53.6325 245.661 53.703 245.547 53.77C245.509 53.7947 245.474 53.8159 245.436 53.837C245.411 53.8511 245.391 53.8617 245.366 53.8758C245.255 53.9428 245.144 54.0063 245.033 54.0628C244.506 54.359 243.982 54.6094 243.478 54.8246C243.357 54.8775 243.228 54.9339 243.103 54.9833C242.982 55.0327 242.86 55.0821 242.739 55.1279C242.621 55.1738 242.5 55.2196 242.382 55.262C242.267 55.3043 242.149 55.3466 242.038 55.3819C241.923 55.4207 241.809 55.4559 241.698 55.4947C241.587 55.5265 241.479 55.5618 241.375 55.5935C240.837 55.7557 240.344 55.8757 239.914 55.9674L239.865 55.918H239.862C238.133 54.2426 236.412 52.5673 234.684 50.8884L236.804 48.6311L238.748 46.5642C238.772 46.5572 238.796 46.5466 238.824 46.5395C238.883 46.5219 238.942 46.5007 239.012 46.4796C239.081 46.4549 239.154 46.4302 239.237 46.402C239.431 46.335 239.619 46.2538 239.806 46.1727C240.292 45.9611 240.882 45.6542 241.497 45.2275C241.66 45.1111 241.826 44.9947 241.982 44.8712C242.048 44.8219 242.114 44.7654 242.18 44.7125C242.447 44.4903 242.715 44.2505 242.972 43.9789C243.044 43.9048 243.121 43.8237 243.194 43.7426C243.246 43.6826 243.305 43.6191 243.357 43.5556C243.61 43.2594 243.857 42.9349 244.093 42.5786C244.186 42.4376 244.273 42.3 244.356 42.1589C244.433 42.0249 244.509 41.8909 244.582 41.7604C244.582 41.7533 244.585 41.7463 244.596 41.7392C244.717 41.5029 244.828 41.2595 244.932 41.0267C244.957 40.9668 244.981 40.9103 245.002 40.8574C245.044 40.7587 245.085 40.6564 245.116 40.5576C245.165 40.4236 245.21 40.2966 245.252 40.1661C245.293 40.0427 245.328 39.9122 245.366 39.7852C245.505 39.2879 245.592 38.8188 245.651 38.392C245.668 38.2827 245.675 38.1839 245.689 38.0852C245.717 37.8171 245.734 37.5491 245.738 37.2775C245.741 37.1999 245.741 37.1223 245.741 37.0517C245.741 36.9107 245.738 36.7837 245.734 36.6814C245.734 36.6497 245.731 36.6144 245.731 36.5862L249.472 40.6811L254.938 35.521C254.945 35.6339 254.956 35.7538 254.963 35.8737C254.97 35.9971 254.98 36.1241 254.983 36.2582C254.987 36.3534 254.99 36.4592 254.997 36.5615C255.001 36.7414 255.004 36.9248 255.004 37.1152L255.001 37.1082Z" fill="white"/>
<g id="Group_3" opacity="0.75">
<path id="Vector_15" d="M24.4646 72.8218H22.4794V77.2024H21.1328V66.7129H24.4646C26.8941 66.7129 28.0325 68.0673 28.0325 69.7814C28.0325 71.3757 27.026 72.8218 24.4646 72.8218ZM24.4646 71.6931C26.0056 71.6931 26.6546 70.9559 26.6546 69.7814C26.6546 68.6069 26.0022 67.8415 24.4646 67.8415H22.4794V71.6931H24.4646Z" fill="white"/>
<path id="Vector_16" d="M31.1846 66.0664H32.5312V77.2013H31.1846V66.0664Z" fill="white"/>
<path id="Vector_17" d="M39.6561 68.8213C41.1659 68.8213 42.2036 69.6043 42.6756 70.4614V68.9553H44.0396V77.2016H42.6756V75.6673C42.1863 76.5561 41.1346 77.3391 39.6388 77.3391C37.4766 77.3391 35.8037 75.6074 35.8037 73.0502C35.8037 70.4931 37.4766 68.8213 39.6527 68.8213H39.6561ZM39.9234 70.0099C38.4414 70.0099 37.185 71.1068 37.185 73.0502C37.185 74.9936 38.4449 76.1364 39.9234 76.1364C41.4019 76.1364 42.6791 75.0078 42.6791 73.0679C42.6791 71.128 41.4054 70.0134 39.9234 70.0134V70.0099Z" fill="white"/>
<path id="Vector_18" d="M53.7381 72.5396C53.7381 70.8537 52.8357 69.9966 51.4718 69.9966C50.1078 69.9966 49.1464 70.8678 49.1464 72.6454V77.2059H47.7998V68.9597H49.1464V70.1342C49.6809 69.2771 50.6562 68.8115 51.7529 68.8115C53.634 68.8115 55.0708 69.986 55.0708 72.3492V77.2095H53.7381V72.5432V72.5396Z" fill="white"/>
<path id="Vector_19" d="M79.7076 66.5767C81.9428 66.5767 83.7197 67.7194 84.4902 69.751H82.8764C82.3141 68.4883 81.2174 67.7794 79.7076 67.7794C77.5454 67.7794 75.9316 69.3736 75.9316 71.9484C75.9316 74.5231 77.5454 76.1033 79.7076 76.1033C81.2174 76.1033 82.3141 75.3978 82.8764 74.1457H84.4902C83.7197 76.1632 81.9428 77.2919 79.7076 77.2919C76.8201 77.2919 74.5537 75.0945 74.5537 71.9484C74.5537 68.8022 76.8201 66.5767 79.7076 66.5767Z" fill="white"/>
<path id="Vector_20" d="M91.5101 77.3382C89.216 77.3382 87.4668 75.684 87.4668 73.0634C87.4668 70.4428 89.275 68.8203 91.5691 68.8203C93.8632 68.8203 95.6714 70.4604 95.6714 73.0634C95.6714 75.6663 93.8216 77.3382 91.5101 77.3382ZM91.5101 76.1354C92.9157 76.1354 94.2936 75.1584 94.2936 73.0669C94.2936 70.9754 92.947 70.0125 91.5552 70.0125C90.1635 70.0125 88.8447 70.9895 88.8447 73.0669C88.8447 75.1443 90.1045 76.1354 91.5101 76.1354Z" fill="white"/>
<path id="Vector_21" d="M98.9248 66.0635H100.271V77.1984H98.9248V66.0635Z" fill="white"/>
<path id="Vector_22" d="M104.053 66.0684H105.399V77.2033H104.053V66.0684Z" fill="white"/>
<path id="Vector_23" d="M112.517 68.8179C114.027 68.8179 115.065 69.6009 115.537 70.458V68.9519H116.901V77.1982H115.537V75.6639C115.048 76.5527 113.996 77.3357 112.5 77.3357C110.338 77.3357 108.665 75.6039 108.665 73.0468C108.665 70.4897 110.338 68.8179 112.514 68.8179H112.517ZM112.785 70.0065C111.303 70.0065 110.046 71.1034 110.046 73.0468C110.046 74.9902 111.306 76.133 112.785 76.133C114.263 76.133 115.54 75.0043 115.54 73.0645C115.54 71.1246 114.267 70.01 112.785 70.01V70.0065Z" fill="white"/>
<path id="Vector_24" d="M125.048 68.8239C127.238 68.8239 128.897 70.4781 128.897 73.0528C128.897 75.6276 127.225 77.3417 125.048 77.3417C123.567 77.3417 122.515 76.5904 122.012 75.6875V77.2077H120.665V66.0728H122.012V70.4957C122.529 69.5787 123.612 68.8239 125.048 68.8239ZM124.767 70.0125C123.303 70.0125 122.012 71.1553 122.012 73.0669C122.012 74.9786 123.299 76.1355 124.767 76.1355C126.235 76.1355 127.523 74.9927 127.523 73.0493C127.523 71.1059 126.263 70.009 124.767 70.009V70.0125Z" fill="white"/>
<path id="Vector_25" d="M135.689 77.3348C133.395 77.3348 131.646 75.6806 131.646 73.0599C131.646 70.4393 133.454 68.8169 135.748 68.8169C138.042 68.8169 139.85 70.457 139.85 73.0599C139.85 75.6629 138 77.3348 135.689 77.3348ZM135.689 76.132C137.094 76.132 138.472 75.155 138.472 73.0635C138.472 70.9719 137.126 70.009 135.734 70.009C134.342 70.009 133.023 70.986 133.023 73.0635C133.023 75.1409 134.283 76.132 135.689 76.132Z" fill="white"/>
<path id="Vector_26" d="M144.458 77.2025H143.111V68.9562H144.458V70.2965C144.916 69.3795 145.791 68.8081 147.078 68.8081V70.2225H146.724C145.437 70.2225 144.458 70.8079 144.458 72.7196V77.2025Z" fill="white"/>
<path id="Vector_27" d="M153.458 68.8184C154.968 68.8184 156.005 69.6014 156.477 70.4584V68.9524H157.838V77.1987H156.477V75.6644C155.988 76.5532 154.936 77.3362 153.441 77.3362C151.278 77.3362 149.605 75.6044 149.605 73.0473C149.605 70.4902 151.278 68.8184 153.454 68.8184H153.458ZM153.725 70.007C152.243 70.007 150.987 71.1039 150.987 73.0473C150.987 74.9907 152.247 76.1335 153.725 76.1335C155.204 76.1335 156.481 75.0048 156.481 73.0649C156.481 71.1251 155.207 70.0105 153.725 70.0105V70.007Z" fill="white"/>
<path id="Vector_28" d="M161.902 70.085H160.851V68.9563H161.902V66.8789H163.249V68.9563H165.366V70.085H163.249V74.9453C163.249 75.7565 163.544 76.0422 164.373 76.0422H165.366V77.2026H164.151C162.714 77.2026 161.899 76.5995 161.899 74.9453V70.085H161.902Z" fill="white"/>
<path id="Vector_29" d="M171.986 77.3372C169.674 77.3372 167.974 75.683 167.974 73.0624C167.974 70.4418 169.619 68.8193 171.986 68.8193C174.353 68.8193 175.88 70.5053 175.88 72.7626C175.88 73.0624 175.866 73.3058 175.835 73.5914H169.348C169.452 75.2633 170.608 76.1803 171.982 76.1803C173.197 76.1803 173.967 75.549 174.262 74.6601H175.713C175.3 76.1662 173.995 77.3372 171.982 77.3372H171.986ZM169.365 72.4769H174.488C174.502 70.8686 173.318 69.9797 171.927 69.9797C170.608 69.9797 169.515 70.8686 169.365 72.4769Z" fill="white"/>
<path id="Vector_30" d="M204.13 71.9833C204.13 75.2317 202.04 77.2033 198.649 77.2033H195.436V66.7139H198.649C202.04 66.7139 204.13 68.7313 204.13 71.9798V71.9833ZM198.649 76.0747C201.343 76.0747 202.752 74.5404 202.752 71.9833C202.752 69.4262 201.346 67.8284 198.649 67.8284H196.782V76.0747H198.649Z" fill="white"/>
<path id="Vector_31" d="M210.896 77.3357C208.584 77.3357 206.884 75.6815 206.884 73.0609C206.884 70.4403 208.529 68.8179 210.896 68.8179C213.263 68.8179 214.79 70.5038 214.79 72.7611C214.79 73.0609 214.776 73.3043 214.745 73.59H208.258C208.362 75.2618 209.518 76.1789 210.892 76.1789C212.107 76.1789 212.878 75.5475 213.173 74.6587H214.623C214.21 76.1647 212.905 77.3357 210.892 77.3357H210.896ZM208.276 72.4754H213.398C213.412 70.8671 212.229 69.9783 210.837 69.9783C209.518 69.9783 208.425 70.8671 208.276 72.4754Z" fill="white"/>
<path id="Vector_32" d="M218.045 66.0669H219.392V77.2018H218.045V66.0669Z" fill="white"/>
<path id="Vector_33" d="M222.945 66.6803C222.945 66.1547 223.344 65.7456 223.862 65.7456C224.351 65.7456 224.75 66.1512 224.75 66.6803C224.75 67.2093 224.351 67.6114 223.862 67.6114C223.344 67.6114 222.945 67.2058 222.945 66.6803ZM223.167 68.9517H224.514V77.198H223.167V68.9517Z" fill="white"/>
<path id="Vector_34" d="M228.779 68.9521L231.309 75.9357L233.825 68.9521H235.262L232.079 77.1984H230.511L227.328 68.9521H228.779Z" fill="white"/>
<path id="Vector_35" d="M241.588 77.3377C239.277 77.3377 237.576 75.6835 237.576 73.0629C237.576 70.4423 239.221 68.8198 241.588 68.8198C243.955 68.8198 245.482 70.5058 245.482 72.7631C245.482 73.0629 245.468 73.3062 245.437 73.5919H238.951C239.055 75.2638 240.21 76.1808 241.585 76.1808C242.8 76.1808 243.57 75.5495 243.865 74.6606H245.316C244.903 76.1667 243.598 77.3377 241.585 77.3377H241.588ZM238.968 72.4774H244.091C244.104 70.8691 242.921 69.9802 241.529 69.9802C240.21 69.9802 239.117 70.8691 238.968 72.4774Z" fill="white"/>
<path id="Vector_36" d="M250.09 77.204H248.743V68.9577H250.09V70.298C250.548 69.381 251.423 68.8096 252.71 68.8096V70.2239H252.356C251.068 70.2239 250.09 70.8094 250.09 72.7211V77.204Z" fill="white"/>
</g>
</g>
<defs>
<clipPath id="clip0_3974_32173">
<rect width="255" height="77.0134" fill="white" transform="translate(0 0.319336)"/>
</clipPath>
</defs>
</svg>
