<svg width="500" height="501" viewBox="0 0 500 501" fill="none" xmlns="http://www.w3.org/2000/svg">
<rect x="8" y="8.81909" width="484" height="484" rx="242" fill="url(#paint0_radial_579_7355)"/>
<rect x="8" y="8.81909" width="484" height="484" rx="242" stroke="url(#paint1_linear_579_7355)" stroke-width="16"/>
<path opacity="0.5" d="M146.763 206.608C174.918 249.482 203.061 292.355 231.216 335.229C234.949 340.913 243.222 340.801 246.789 335.004C282.265 277.408 317.752 219.823 353.228 162.226C312.934 203.4 272.64 244.574 232.346 285.737C203.826 259.364 175.294 232.992 146.763 206.608Z" fill="#8184AD"/>
<path d="M155.022 200.322C168.081 207.965 193.744 220.267 226.717 219.018C230.903 218.86 250.906 217.881 274.011 208.122C295.553 199.016 312.089 185.521 321.15 178.125C329.401 171.383 334.119 166.633 334.33 166.858C334.762 167.309 315.678 187.412 232.188 271.673C206.459 247.878 180.741 224.094 155.022 200.322Z" fill="white"/>
<path opacity="0.5" d="M155.018 200.318C165.485 209.807 199.831 238.52 238.918 231.632C261.701 227.614 281.095 212.384 299.625 197.831C315.851 185.089 334.337 166.888 334.292 166.832C334.292 166.832 334.093 166.978 333.716 167.293C332.864 167.991 332.232 168.532 332.077 168.655C330.615 169.905 329.042 171.368 329.042 171.368C328.267 172.088 327.093 173.135 325.387 174.553C324.789 175.06 323.959 175.769 322.951 176.613C322.951 176.613 320.16 178.943 317.424 181.127C303.956 191.854 292.536 198.675 292.536 198.675C269.975 211.9 249.828 215.896 245.176 216.763C232.128 219.183 222.149 219.127 219.336 219.07C215.637 219.003 204.694 218.631 190.971 215.176C187.626 214.332 178.222 211.822 166.77 206.486C161.93 204.235 157.953 202.04 154.996 200.318H155.018Z" fill="#03085A"/>
<path d="M232.366 285.727L212.629 306.877L231.236 335.208C231.646 335.804 233.706 338.675 237.45 339.271C240.983 339.834 244.616 338.157 246.82 334.972C282.274 277.398 317.761 219.813 353.237 162.217L232.366 285.727Z" fill="white"/>
<path d="M421.978 55.5249L413.183 36.052C410.702 30.5603 402.904 30.5603 400.424 36.052L391.629 55.5249C391.328 56.1904 390.795 56.7235 390.13 57.0241L370.657 65.819C365.165 68.2992 365.165 76.0977 370.657 78.578L390.13 87.3729C390.795 87.6735 391.328 88.2065 391.629 88.8721L400.424 108.345C402.904 113.837 410.702 113.837 413.183 108.345L421.978 88.8721C422.278 88.2065 422.811 87.6735 423.477 87.3729L442.95 78.578C448.441 76.0977 448.441 68.2992 442.95 65.819L423.477 57.0241C422.811 56.7235 422.278 56.1904 421.978 55.5249Z" fill="url(#paint2_linear_579_7355)" stroke="white" stroke-width="4"/>
<path d="M460.699 98.0175L455.861 87.305C454.443 84.167 449.987 84.167 448.57 87.305L443.732 98.0175L433.019 102.856C429.881 104.273 429.881 108.729 433.019 110.147L443.732 114.985L448.57 125.697C449.987 128.835 454.443 128.835 455.861 125.697L460.699 114.985L471.412 110.147C474.55 108.729 474.55 104.273 471.412 102.856L460.699 98.0175Z" fill="url(#paint3_linear_579_7355)" stroke="white" stroke-width="4"/>
<defs>
<radialGradient id="paint0_radial_579_7355" cx="0" cy="0" r="1" gradientUnits="userSpaceOnUse" gradientTransform="translate(152.411 62.7301) rotate(63.0272) scale(547.686)">
<stop stop-color="#000866"/>
<stop offset="1" stop-color="#120C27"/>
</radialGradient>
<linearGradient id="paint1_linear_579_7355" x1="33.4937" y1="375.819" x2="466.506" y2="125.819" gradientUnits="userSpaceOnUse">
<stop stop-color="#0538FF"/>
<stop offset="0.484375" stop-color="#7D87FF"/>
<stop offset="1" stop-color="#543AB7"/>
</linearGradient>
<linearGradient id="paint2_linear_579_7355" x1="367.475" y1="94.9048" x2="446.132" y2="49.4922" gradientUnits="userSpaceOnUse">
<stop stop-color="#0538FF"/>
<stop offset="0.484375" stop-color="#7D87FF"/>
<stop offset="1" stop-color="#543AB7"/>
</linearGradient>
<linearGradient id="paint3_linear_579_7355" x1="432.809" y1="117.706" x2="471.622" y2="95.2969" gradientUnits="userSpaceOnUse">
<stop stop-color="#0538FF"/>
<stop offset="0.484375" stop-color="#7D87FF"/>
<stop offset="1" stop-color="#543AB7"/>
</linearGradient>
</defs>
</svg>
