<svg width="176" height="48" viewBox="0 0 176 48" fill="none" xmlns="http://www.w3.org/2000/svg">
<path d="M0 12.1926C7.32993 23.0048 14.657 33.817 21.9869 44.6293C22.9587 46.0627 25.1127 46.0344 26.0412 44.5725C35.2771 30.0474 44.5159 15.5251 53.7519 1C43.2616 11.3836 32.7713 21.7672 22.281 32.1479C14.8559 25.4971 7.42797 18.8463 0 12.1926Z" fill="url(#paint0_linear_742_5090)"/>
<path d="M2.14746 10.6066C5.54714 12.534 12.2283 15.6366 20.8126 15.3215C21.9025 15.2818 27.1102 15.0348 33.1252 12.5738C38.7337 10.2773 43.0388 6.87386 45.3975 5.0089C47.5458 3.30858 48.7741 2.11069 48.8289 2.16746C48.9414 2.28101 43.9731 7.35074 22.237 28.6005C15.5386 22.5997 8.84302 16.6017 2.14746 10.6066Z" fill="url(#paint1_linear_742_5090)"/>
<path opacity="0.29" d="M2.15201 10.6091C4.87694 13.0021 13.8188 20.2433 23.9948 18.5061C29.9262 17.4927 34.9752 13.6521 39.7994 9.98181C44.0238 6.76851 48.8364 2.1785 48.8248 2.16431C48.8248 2.16431 48.7729 2.20121 48.6749 2.28069C48.4529 2.45668 48.2885 2.59293 48.2481 2.62416C47.8675 2.93924 47.458 3.30826 47.458 3.30826C47.2562 3.48993 46.9505 3.75392 46.5065 4.11159C46.3508 4.23932 46.1345 4.41815 45.8721 4.63105C45.8721 4.63105 45.1455 5.21864 44.4332 5.76933C40.9268 8.47451 37.9539 10.1947 37.9539 10.1947C32.0802 13.5301 26.835 14.5378 25.6239 14.7563C22.2271 15.3666 19.6291 15.3524 18.8967 15.3382C17.9336 15.3212 15.0846 15.2275 11.5119 14.3561C10.6411 14.1432 8.193 13.5102 5.21143 12.1647C3.95133 11.597 2.91614 11.0434 2.14624 10.6091H2.15201Z" fill="white"/>
<path d="M22.2832 32.1479L17.1448 37.4817L21.9891 44.6264C22.0958 44.7769 22.6321 45.5007 23.6068 45.6511C24.5266 45.7931 25.4724 45.3701 26.0462 44.5668C35.2764 30.0474 44.5152 15.5251 53.7512 1L22.2832 32.1479Z" fill="url(#paint2_linear_742_5090)"/>
<path d="M61.5117 11.3433L65.4813 24.2005C65.7169 24.9635 66.8153 24.9635 67.0508 24.2005L71.0225 11.3433C71.1274 11.004 71.4465 10.77 71.8083 10.77H77.4565C78.0239 10.77 78.4179 11.3222 78.2295 11.8471L70.7399 32.6231C70.6243 32.9455 70.3138 33.1605 69.967 33.1605H62.5245C62.1776 33.1605 61.8672 32.9455 61.7515 32.6231L54.262 11.8471C54.0736 11.3222 54.4675 10.77 55.0349 10.77H60.726C61.0878 10.77 61.4047 11.0019 61.5117 11.3433V11.3433Z" fill="#155DEC"/>
<path d="M89.9899 10.4491C92.3901 10.4491 94.2978 11.2163 95.6403 12.3651C96.1734 12.8203 96.9999 12.462 96.9999 11.7686V11.5747C96.9999 11.1299 97.366 10.7716 97.8156 10.7716H103.153C103.605 10.7716 103.969 11.132 103.969 11.5747V32.357C103.969 32.8017 103.603 33.16 103.153 33.16H97.8156C97.3639 33.16 96.9999 32.7996 96.9999 32.357V32.1399C96.9999 31.4464 96.1756 31.086 95.6446 31.5392C94.285 32.7005 92.3665 33.4804 89.9492 33.4804C84.4059 33.4804 79.9631 28.9867 79.9631 21.9237C79.9631 14.8606 84.4059 10.447 89.9899 10.447V10.4491ZM92.0282 16.4288C89.4204 16.4288 87.0545 18.3553 87.0545 21.9258C87.0545 25.4963 89.4182 27.5028 92.0282 27.5028C94.6383 27.5028 97.002 25.5363 97.002 21.9658C97.002 18.3953 94.6789 16.4288 92.0282 16.4288V16.4288Z" fill="#155DEC"/>
<path d="M122.8 10.4503C128.425 10.4503 132.827 14.8639 132.827 21.9269C132.827 28.99 128.384 33.4837 122.8 33.4837C120.411 33.4837 118.499 32.7249 117.144 31.5741C116.613 31.123 115.79 31.4855 115.79 32.1769V32.3603C115.79 32.8029 115.424 33.1633 114.975 33.1633H109.637C109.187 33.1633 108.821 32.8029 108.821 32.3603V4.27253C108.821 3.82991 109.187 3.46948 109.637 3.46948H114.975C115.424 3.46948 115.79 3.82991 115.79 4.27253V11.7866C115.79 12.478 116.613 12.8405 117.144 12.3894C118.52 11.2154 120.462 10.4524 122.802 10.4524L122.8 10.4503ZM120.721 16.43C118.113 16.43 115.748 18.3965 115.748 21.967C115.748 25.5375 118.111 27.504 120.721 27.504C123.331 27.504 125.736 25.4975 125.736 21.9269C125.736 18.3564 123.372 16.43 120.721 16.43Z" fill="#155DEC"/>
<path d="M142.449 33.16H137.112C136.662 33.16 136.296 32.7996 136.296 32.357V11.5726C136.296 11.1299 136.662 10.7695 137.112 10.7695H142.449C142.899 10.7695 143.265 11.1299 143.265 11.5726V12.2787C143.265 12.9805 144.124 13.3557 144.638 12.8667C145.95 11.6147 147.607 10.7737 149.517 10.5735C149.99 10.525 150.399 10.9065 150.399 11.3744V16.9873C150.399 17.43 150.033 17.7904 149.584 17.7904H148.483C145.181 17.7904 143.265 18.9138 143.265 22.7668V32.357C143.265 32.7996 142.899 33.16 142.449 33.16V33.16Z" fill="#155DEC"/>
<path d="M163.879 32.3289L163.86 32.3099L161.674 30.2549L163.86 28.0017L163.879 27.9827L163.982 27.8731C163.95 27.8752 163.913 27.8752 163.879 27.8752H163.86C161.2 27.8752 158.942 26.1701 158.158 23.8073L156.798 21.9693L155.668 20.437L153.525 21.9693L152.191 22.9241C152.681 28.8469 157.721 33.5008 163.862 33.5008H163.881C164.279 33.5008 164.673 33.4818 165.061 33.4418L163.881 32.3331L163.879 32.3289Z" fill="#155DEC"/>
<path d="M163.88 10.4355H163.861C163.696 10.4355 163.529 10.4377 163.366 10.4482L163.861 11.0384L163.88 11.0637L166.285 13.9386L163.88 15.8819L163.861 15.8988L163.657 16.0632C163.724 16.059 163.792 16.059 163.861 16.059H163.88C166.432 16.0674 168.608 17.6419 169.466 19.8571L171.451 21.9649L172.211 22.77L173.091 21.9649L175.38 19.874C174.38 14.5119 169.614 10.4461 163.882 10.4355H163.88Z" fill="#155DEC"/>
<path d="M157.861 21.7871C157.88 21.2497 158.007 19.7574 159.116 18.3452C160.009 17.2112 161.09 16.6969 161.61 16.4883C162.713 15.5946 163.815 14.703 164.918 13.8093L162.197 10.5508C161.297 10.6772 159.944 10.9723 158.467 11.7269C156.576 12.6922 155.371 13.9527 154.714 14.7599C154.103 15.5082 153.005 17.051 152.463 19.2768C152.219 20.2759 152.155 21.1422 152.144 21.7682C153.388 20.8787 154.632 19.9913 155.874 19.1019L157.857 21.7871H157.861Z" fill="#72BF44"/>
<path d="M175.574 21.9836C175.574 22.0806 175.572 22.1797 175.57 22.285C175.568 22.3968 175.561 22.5127 175.555 22.6307C175.551 22.7445 175.54 22.8647 175.529 22.9869V22.9954C175.516 23.1155 175.504 23.2335 175.489 23.36C175.223 25.4909 174.41 27.0654 173.932 27.8558C173.9 27.9085 173.868 27.957 173.84 28.0033C173.808 28.056 173.774 28.1108 173.737 28.1677C173.527 28.4923 173.225 28.9202 172.817 29.3987C172.778 29.4408 172.742 29.4851 172.703 29.5272C172.624 29.6179 172.545 29.7064 172.457 29.797C172.414 29.8413 172.371 29.8877 172.326 29.934C172.283 29.9783 172.238 30.0247 172.191 30.071C172.099 30.1617 172.005 30.2523 171.904 30.3471C171.47 30.7539 170.958 31.1671 170.367 31.5528C170.309 31.5928 170.252 31.6308 170.189 31.6708C170.11 31.7214 170.033 31.7678 169.952 31.8162C169.883 31.8584 169.813 31.9005 169.742 31.9406C169.718 31.9553 169.697 31.968 169.673 31.9806C169.658 31.9891 169.646 31.9954 169.631 32.0038C169.562 32.0439 169.494 32.0818 169.425 32.1155C169.1 32.2926 168.776 32.4422 168.466 32.5708C168.391 32.6024 168.312 32.6361 168.235 32.6657C168.16 32.6952 168.085 32.7247 168.01 32.7521C167.937 32.7795 167.862 32.8069 167.789 32.8322C167.719 32.8575 167.646 32.8828 167.577 32.9038C167.507 32.927 167.436 32.9481 167.367 32.9713C167.299 32.9902 167.233 33.0113 167.168 33.0303C166.836 33.1273 166.532 33.1989 166.267 33.2537L166.237 33.2242H166.235C165.169 32.223 164.107 31.2219 163.04 30.2186L164.348 28.8696L165.548 27.6345C165.563 27.6303 165.577 27.6239 165.595 27.6197C165.631 27.6092 165.667 27.5965 165.71 27.5839C165.753 27.5691 165.798 27.5544 165.849 27.5375C165.969 27.4975 166.085 27.449 166.201 27.4005C166.5 27.2741 166.864 27.0907 167.243 26.8357C167.344 26.7661 167.447 26.6965 167.543 26.6228C167.584 26.5933 167.624 26.5595 167.665 26.5279C167.83 26.3951 167.995 26.2518 168.153 26.0895C168.198 26.0452 168.245 25.9968 168.29 25.9483C168.322 25.9125 168.359 25.8745 168.391 25.8366C168.547 25.6595 168.699 25.4656 168.845 25.2527C168.903 25.1684 168.956 25.0862 169.008 25.0019C169.055 24.9218 169.102 24.8417 169.147 24.7637C169.147 24.7595 169.149 24.7553 169.155 24.7511C169.23 24.6099 169.299 24.4644 169.363 24.3253C169.378 24.2895 169.393 24.2558 169.406 24.2242C169.431 24.1651 169.457 24.104 169.476 24.045C169.506 23.9649 169.534 23.889 169.56 23.811C169.586 23.7373 169.607 23.6593 169.631 23.5834C169.716 23.2862 169.77 23.0059 169.806 22.7509C169.817 22.6855 169.821 22.6265 169.83 22.5675C169.847 22.4073 169.858 22.2471 169.86 22.0848C169.862 22.0384 169.862 21.9921 169.862 21.9499C169.862 21.8656 169.86 21.7897 169.858 21.7286C169.858 21.7096 169.855 21.6886 169.855 21.6717L172.164 24.1188L175.536 21.0352C175.54 21.1026 175.546 21.1743 175.551 21.2459C175.555 21.3197 175.561 21.3956 175.564 21.4757C175.566 21.5326 175.568 21.5958 175.572 21.6569C175.574 21.7644 175.576 21.874 175.576 21.9879L175.574 21.9836Z" fill="#72BF44"/>
<path d="M69.8929 38.5333V45.5H68.9767V40.3052L66.6612 45.5H66.0169L63.6913 40.2951V45.5H62.7752V38.5333H63.7618L66.3391 44.2919L68.9163 38.5333H69.8929ZM73.5204 42.7214C73.5204 42.1576 73.6345 41.6643 73.8627 41.2415C74.0909 40.8119 74.403 40.4797 74.799 40.2448C75.2017 40.0099 75.648 39.8924 76.138 39.8924C76.6212 39.8924 77.0407 39.9965 77.3964 40.2045C77.7521 40.4126 78.0172 40.6744 78.1917 40.9898V39.9831H79.1179V45.5H78.1917V44.4731C78.0105 44.7953 77.7387 45.0637 77.3762 45.2785C77.0205 45.4866 76.6044 45.5906 76.1279 45.5906C75.6379 45.5906 75.195 45.4698 74.799 45.2282C74.403 44.9866 74.0909 44.6476 73.8627 44.2114C73.6345 43.7751 73.5204 43.2785 73.5204 42.7214ZM78.1917 42.7315C78.1917 42.3153 78.1078 41.9529 77.94 41.6442C77.7722 41.3354 77.544 41.1005 77.2554 40.9395C76.9736 40.7717 76.6615 40.6878 76.3192 40.6878C75.9769 40.6878 75.6648 40.7683 75.3829 40.9294C75.101 41.0905 74.8762 41.3254 74.7084 41.6341C74.5406 41.9428 74.4567 42.3053 74.4567 42.7214C74.4567 43.1442 74.5406 43.5134 74.7084 43.8288C74.8762 44.1375 75.101 44.3758 75.3829 44.5436C75.6648 44.7047 75.9769 44.7852 76.3192 44.7852C76.6615 44.7852 76.9736 44.7047 77.2554 44.5436C77.544 44.3758 77.7722 44.1375 77.94 43.8288C78.1078 43.5134 78.1917 43.1476 78.1917 42.7315ZM86.1629 45.5L83.9984 43.0637V45.5H83.0823V38.0501H83.9984V42.4294L86.1226 39.9831H87.4012L84.8038 42.7315L87.4113 45.5H86.1629ZM95.7133 42.5301C95.7133 42.7046 95.7033 42.8892 95.6831 43.0838H91.2736C91.3072 43.6275 91.4917 44.0536 91.8273 44.3624C92.1696 44.6644 92.5824 44.8154 93.0656 44.8154C93.4616 44.8154 93.7905 44.7248 94.0522 44.5436C94.3207 44.3557 94.5086 44.1073 94.616 43.7986H95.6026C95.4549 44.3288 95.1596 44.7617 94.7167 45.0973C94.2737 45.4262 93.7233 45.5906 93.0656 45.5906C92.5421 45.5906 92.0723 45.4732 91.6562 45.2382C91.2468 45.0033 90.9246 44.6711 90.6897 44.2416C90.4548 43.8053 90.3373 43.3019 90.3373 42.7315C90.3373 42.161 90.4514 41.661 90.6796 41.2314C90.9078 40.8019 91.2266 40.473 91.636 40.2448C92.0522 40.0099 92.5287 39.8924 93.0656 39.8924C93.5891 39.8924 94.0522 40.0065 94.4549 40.2347C94.8576 40.4629 95.1663 40.7784 95.3811 41.1811C95.6026 41.5771 95.7133 42.0267 95.7133 42.5301ZM94.767 42.3388C94.767 41.9898 94.6898 41.6912 94.5355 41.4428C94.3811 41.1878 94.1697 40.9965 93.9012 40.869C93.6395 40.7348 93.3475 40.6676 93.0253 40.6676C92.5622 40.6676 92.1663 40.8153 91.8374 41.1106C91.5152 41.4059 91.3307 41.8153 91.2837 42.3388H94.767Z" fill="white"/>
<path d="M117.215 38.983L115.181 46H114.155L112.524 40.3522L110.832 46L109.816 46.0101L107.852 38.983H108.829L110.359 44.9329L112.05 38.983H113.077L114.688 44.9127L116.228 38.983H117.215ZM123.04 46.0906C122.523 46.0906 122.053 45.9732 121.63 45.7382C121.214 45.5033 120.885 45.1711 120.644 44.7416C120.409 44.3053 120.292 43.8019 120.292 43.2315C120.292 42.6677 120.412 42.171 120.654 41.7415C120.902 41.3052 121.238 40.973 121.661 40.7448C122.084 40.5099 122.557 40.3924 123.08 40.3924C123.604 40.3924 124.077 40.5099 124.5 40.7448C124.923 40.973 125.255 41.3019 125.496 41.7314C125.745 42.161 125.869 42.661 125.869 43.2315C125.869 43.8019 125.741 44.3053 125.486 44.7416C125.238 45.1711 124.899 45.5033 124.469 45.7382C124.04 45.9732 123.563 46.0906 123.04 46.0906ZM123.04 45.2852C123.369 45.2852 123.678 45.208 123.966 45.0537C124.255 44.8993 124.486 44.6677 124.661 44.359C124.842 44.0503 124.933 43.6744 124.933 43.2315C124.933 42.7885 124.845 42.4126 124.671 42.1039C124.496 41.7952 124.268 41.567 123.986 41.4193C123.704 41.265 123.399 41.1878 123.07 41.1878C122.735 41.1878 122.426 41.265 122.144 41.4193C121.869 41.567 121.647 41.7952 121.479 42.1039C121.312 42.4126 121.228 42.7885 121.228 43.2315C121.228 43.6811 121.308 44.0603 121.469 44.3691C121.637 44.6778 121.859 44.9094 122.134 45.0637C122.409 45.2114 122.711 45.2852 123.04 45.2852ZM130.406 41.3791C130.567 41.0636 130.795 40.8186 131.09 40.6441C131.392 40.4696 131.758 40.3824 132.188 40.3824V41.3287H131.946C130.919 41.3287 130.406 41.8858 130.406 42.9999V46H129.49V40.4831H130.406V41.3791ZM138.742 46L136.578 43.5637V46H135.661V38.5501H136.578V42.9294L138.702 40.4831H139.98L137.383 43.2315L139.99 46H138.742Z" fill="white"/>
<path d="M155.092 38.983V39.728H152.041V42.0938H154.518V42.8388H152.041V46H151.125V38.983H155.092ZM163.507 40.4831V46H162.591V45.1845C162.417 45.4664 162.172 45.6879 161.856 45.849C161.548 46.0034 161.205 46.0805 160.829 46.0805C160.4 46.0805 160.014 45.9933 159.672 45.8188C159.329 45.6376 159.058 45.3691 158.856 45.0134C158.662 44.6577 158.564 44.2248 158.564 43.7147V40.4831H159.47V43.5939C159.47 44.1375 159.608 44.557 159.883 44.8523C160.158 45.1409 160.534 45.2852 161.011 45.2852C161.501 45.2852 161.886 45.1342 162.168 44.8322C162.45 44.5302 162.591 44.0905 162.591 43.5133V40.4831H163.507ZM170.158 40.3824C170.83 40.3824 171.373 40.5871 171.789 40.9965C172.205 41.3992 172.413 41.9831 172.413 42.7482V46H171.507V42.8791C171.507 42.3287 171.37 41.9093 171.095 41.6207C170.819 41.3254 170.444 41.1777 169.967 41.1777C169.484 41.1777 169.098 41.3287 168.809 41.6307C168.527 41.9328 168.386 42.3724 168.386 42.9496V46H167.47V40.4831H168.386V41.2683C168.568 40.9864 168.813 40.7683 169.121 40.6139C169.437 40.4596 169.783 40.3824 170.158 40.3824Z" fill="white"/>
<defs>
<linearGradient id="paint0_linear_742_5090" x1="27.1311" y1="7.00931" x2="54.5399" y2="52.5347" gradientUnits="userSpaceOnUse">
<stop stop-color="#72BF44"/>
<stop offset="0.97" stop-color="#182E18"/>
</linearGradient>
<linearGradient id="paint1_linear_742_5090" x1="2.14746" y1="15.3783" x2="48.8289" y2="15.3783" gradientUnits="userSpaceOnUse">
<stop stop-color="#155DEC"/>
<stop offset="0.49" stop-color="#76A6FF"/>
<stop offset="1" stop-color="#155DEC"/>
</linearGradient>
<linearGradient id="paint2_linear_742_5090" x1="36.7326" y1="22.2866" x2="46.7564" y2="28.3119" gradientUnits="userSpaceOnUse">
<stop stop-color="#72BF44"/>
<stop offset="0.97" stop-color="#182E18"/>
</linearGradient>
</defs>
</svg>
