<svg width="32" height="32" viewBox="0 0 32 32" fill="none" xmlns="http://www.w3.org/2000/svg">
<g clip-path="url(#clip0_104_3297)">
<path fill-rule="evenodd" clip-rule="evenodd" d="M12.0907 13.6839C12.664 13.9106 13.2733 14.0319 13.8893 14.0439C14.4049 14.0768 14.9204 14.0768 15.436 14.0439C16.5013 13.9639 17.2867 13.7239 18.7387 13.6573C19.032 13.6573 19.8853 13.7506 20.432 13.6573C20.72 13.6344 20.9984 13.5429 21.244 13.3906C21.712 13.0439 22.0547 12.5506 22.2173 11.9906C22.4573 10.9799 22.5333 9.93727 22.444 8.89994C22.444 8.13994 22.5493 6.71594 22.444 5.55594C22.4144 4.97364 22.2694 4.40303 22.0173 3.87727C21.6774 3.29697 21.2799 2.75244 20.8307 2.25194C20.1994 1.53023 19.5229 0.849307 18.8053 0.213274C18.6444 0.069441 18.4344 -0.00695062 18.2187 -5.95074e-05C17.7787 -5.95074e-05 16.7267 0.19994 16.5533 0.213274L12.6773 0.733274C12.5809 0.745423 12.4899 0.784341 12.4144 0.845614C12.339 0.906887 12.2823 0.988064 12.2507 1.07994C12.2178 0.989783 12.1579 0.911963 12.0791 0.857085C12.0004 0.802208 11.9066 0.772941 11.8107 0.773274C11.7511 0.774999 11.6925 0.788442 11.6382 0.812833C11.5838 0.837224 11.5348 0.872085 11.494 0.915424C11.4531 0.958764 11.4212 1.00973 11.4 1.06541C11.3789 1.1211 11.3689 1.1804 11.3707 1.23994L11.2373 9.15327C11.2373 9.73994 11.0507 10.7133 11.0373 11.5386C11.016 11.9653 11.0693 12.3946 11.1973 12.8053C11.2781 13.0051 11.3991 13.1862 11.5528 13.3374C11.7064 13.4885 11.8895 13.6065 12.0907 13.6839ZM19.7653 3.15861C20.132 3.59861 20.4547 4.07727 20.7253 4.58394C20.824 4.82527 20.8813 5.08261 20.8973 5.34394L20.8173 5.33061C20.0643 5.18477 19.3035 5.08238 18.5387 5.02394C18.2583 4.98296 17.9875 4.89268 17.7387 4.75727C17.7387 4.53061 17.8453 4.17061 17.8453 3.91727L17.8453 2.65061L17.7653 1.50527C17.952 1.50527 18.112 1.50527 18.1787 1.37194C18.7404 1.93905 19.2693 2.53461 19.7653 3.15861ZM12.7973 1.82527L16.62 1.47861L16.42 2.61194C16.42 2.71861 16.2733 3.17194 16.18 3.69194C16.1282 4.08495 16.1015 4.48086 16.1 4.87727C16.0843 5.11069 16.1217 5.34464 16.2094 5.5615C16.2972 5.77837 16.433 5.97249 16.6067 6.12927C17.0373 6.36927 17.5147 6.50927 18.0067 6.54261C18.8867 6.54261 19.8053 6.32927 20.6707 6.38261C20.7532 6.40825 20.8415 6.40825 20.924 6.38261C20.924 7.39594 20.7773 8.46127 20.7773 9.04661C20.828 9.67327 20.828 10.2999 20.7773 10.9266C20.5107 13.0173 19.564 11.9786 18.712 12.0186C17.2333 12.1119 16.4333 12.3519 15.3413 12.4586C14.8973 12.4864 14.452 12.4864 14.008 12.4586C13.6644 12.465 13.3211 12.4382 12.9827 12.3786C12.8627 12.3786 12.7293 12.1919 12.6627 12.2586C12.576 11.9373 12.54 11.6044 12.556 11.2719C12.556 10.5119 12.6493 9.69861 12.6227 9.19327L12.2893 1.49194C12.337 1.5823 12.411 1.65611 12.5014 1.7037C12.5918 1.75129 12.6945 1.77043 12.796 1.75861L12.7973 1.82527ZM29.0773 25.5146C28.8964 25.3211 28.6846 25.1589 28.4507 25.0346C28.265 24.9581 28.0737 24.8957 27.8787 24.8479C28.3455 24.418 28.6782 23.8624 28.8367 23.2478C28.9951 22.6333 28.9727 21.986 28.772 21.3839C28.5393 20.6386 28.0886 19.9801 27.4781 19.4933C26.8675 19.0066 26.1251 18.714 25.3467 18.6533C24.6381 18.6022 23.9359 18.816 23.376 19.2533C22.6515 19.861 22.1768 20.7146 22.0427 21.6506C21.92 22.1785 21.9475 22.7302 22.1218 23.2433C22.2961 23.7565 22.6105 24.2107 23.0293 24.5546C22.6827 24.6373 22.3493 24.7573 22.0293 24.9146C21.8117 25.0402 21.614 25.1975 21.4427 25.3813C21.2724 25.5726 21.1248 25.7828 21.0027 26.0079C20.7314 26.5208 20.5641 27.0822 20.5107 27.6599C20.2732 27.3643 19.9948 27.1039 19.684 26.8866C19.3616 26.6893 19.0231 26.5198 18.672 26.3799C19.1079 25.8862 19.4044 25.2853 19.5309 24.639C19.6574 23.9926 19.6095 23.3243 19.392 22.7026C19.0469 21.7027 18.3292 20.8745 17.3886 20.3907C16.4479 19.9068 15.3568 19.8046 14.3427 20.1053C13.6978 20.3073 13.1147 20.6693 12.6476 21.1576C12.1805 21.646 11.8448 22.2447 11.6717 22.8978C11.4986 23.551 11.4939 24.2374 11.6578 24.893C11.8218 25.5485 12.1491 26.1518 12.6093 26.6466C12.4227 26.7266 12.2227 26.7933 12.0507 26.8866C11.728 27.0902 11.4302 27.3257 11.1573 27.5933C11.1573 27.6733 11.0507 27.7666 10.984 27.8333C10.9196 27.2392 10.7383 26.6637 10.4507 26.1399C10.319 25.9076 10.1531 25.6963 9.95866 25.5133C9.78188 25.3303 9.57984 25.1736 9.35866 25.0479C9.16251 24.974 8.96216 24.9117 8.75866 24.8613C9.22804 24.4302 9.56228 23.8723 9.72084 23.255C9.87941 22.6378 9.85549 21.9878 9.652 21.3839C9.41198 20.6591 8.96481 20.0204 8.36575 19.547C7.7667 19.0735 7.04203 18.786 6.28133 18.7199C5.57639 18.668 4.87757 18.8821 4.32266 19.3199C3.59471 19.9245 3.11952 20.7798 2.99066 21.7173C2.86485 22.2451 2.89071 22.7978 3.06528 23.3115C3.23984 23.8253 3.556 24.2793 3.97733 24.6213C3.62659 24.7072 3.28666 24.8324 2.964 24.9946C2.748 25.1297 2.55244 25.2897 2.37733 25.4746C2.20708 25.6659 2.05944 25.8762 1.93733 26.1013C1.64451 26.6015 1.45034 27.1532 1.36533 27.7266C1.3447 27.7905 1.33698 27.8579 1.3426 27.9248C1.34823 27.9917 1.3671 28.0568 1.39812 28.1163C1.42913 28.1759 1.47167 28.2287 1.52327 28.2716C1.57486 28.3146 1.63448 28.3469 1.69866 28.3666C1.82778 28.4093 1.96848 28.3997 2.09061 28.3399C2.21273 28.2801 2.30657 28.1748 2.352 28.0466C2.47466 27.8164 2.62133 27.6031 2.792 27.4066C2.95911 27.2235 3.13644 27.0502 3.324 26.8866L3.81733 26.3666C4.14178 25.9453 4.49733 25.5502 4.884 25.1813C4.96967 25.1351 5.03557 25.0592 5.06933 24.9679L5.296 24.9679C5.41757 24.9716 5.53576 24.9277 5.62542 24.8455C5.71508 24.7633 5.7691 24.6494 5.776 24.5279C5.76965 24.4204 5.72407 24.3189 5.64789 24.2427C5.5717 24.1665 5.47022 24.121 5.36266 24.1146C4.216 23.9679 4.02933 22.9159 4.28266 21.9839C4.536 21.0519 5.176 20.2906 6.12266 20.4106C6.56417 20.4403 6.98766 20.5971 7.34206 20.862C7.69646 21.127 7.96663 21.4889 8.12 21.9039C8.3103 22.3153 8.35321 22.7796 8.24151 23.2188C8.12982 23.6581 7.87034 24.0455 7.50666 24.3159C7.33815 24.447 7.14213 24.5382 6.93333 24.5826C6.67555 24.6359 6.41378 24.6715 6.148 24.6893C6.0641 24.6938 5.98256 24.7187 5.91035 24.7616C5.83814 24.8046 5.77742 24.8644 5.73339 24.936C5.68935 25.0075 5.66331 25.0887 5.6575 25.1725C5.65168 25.2563 5.66626 25.3403 5.7 25.4173C5.74198 25.5102 5.81102 25.5883 5.89808 25.6413C5.98514 25.6944 6.08618 25.7199 6.188 25.7146C6.57204 25.734 6.95703 25.7071 7.33466 25.6346L7.52133 25.6346C7.868 25.9413 8.148 26.2746 8.44 26.5679L8.97333 27.0999C9.16889 27.2626 9.35555 27.4359 9.53333 27.6199C9.70755 27.8208 9.85866 28.0386 9.98666 28.2733C10.0199 28.3703 10.0826 28.4546 10.166 28.5143C10.2494 28.5741 10.3494 28.6063 10.452 28.6066C10.0301 29.3427 9.74974 30.1513 9.62533 30.9906C9.5941 31.0583 9.57779 31.1319 9.57751 31.2065C9.57724 31.2811 9.593 31.3548 9.62373 31.4227C9.65445 31.4907 9.69943 31.5512 9.75561 31.6002C9.81179 31.6493 9.87786 31.6856 9.94932 31.7069C10.0208 31.7281 10.096 31.7337 10.1698 31.7234C10.2437 31.713 10.3144 31.6869 10.3773 31.6468C10.4401 31.6067 10.4936 31.5535 10.5341 31.4909C10.5746 31.4283 10.6012 31.3577 10.612 31.2839C11.0313 30.3822 11.6297 29.5752 12.3707 28.9119L12.9973 28.3253C13.3191 28.0311 13.6609 27.7599 14.0227 27.5119C14.0671 27.5142 14.1116 27.5142 14.156 27.5119C14.8387 27.6319 15.5373 27.6319 16.2213 27.5119C16.2604 27.5253 16.3004 27.5253 16.3413 27.5119C16.408 27.6071 16.5046 27.6772 16.6158 27.711C16.727 27.7449 16.8463 27.7405 16.9547 27.6986C17.1502 27.6088 17.3364 27.5022 17.5133 27.3786C17.9089 27.6773 18.2867 27.9973 18.6467 28.3386C18.86 28.5519 19.0453 28.7653 19.2187 28.9653C19.8838 29.7463 20.3869 30.6519 20.6987 31.6293C20.7185 31.695 20.7511 31.7562 20.7946 31.8092C20.8382 31.8623 20.8918 31.9062 20.9524 31.9384C21.0131 31.9707 21.0795 31.9906 21.1478 31.997C21.2162 32.0034 21.2851 31.9963 21.3507 31.9759C21.4806 31.9413 21.5926 31.8588 21.6642 31.7451C21.7359 31.6314 21.762 31.4948 21.7373 31.3626C21.6757 30.4944 21.4963 29.6385 21.204 28.8186C21.1237 28.6514 21.03 28.4909 20.924 28.3386C21.044 28.3655 21.1696 28.3479 21.2776 28.289C21.3855 28.2302 21.4683 28.134 21.5107 28.0186C21.6422 27.7919 21.7933 27.5786 21.964 27.3786C22.1107 27.1919 22.3107 27.0599 22.484 26.8733C22.656 26.6866 22.816 26.5533 22.976 26.3666C23.3004 25.9488 23.656 25.5582 24.0427 25.1946C24.1339 25.1513 24.2053 25.0751 24.2427 24.9813L24.468 24.9813C24.5882 24.9813 24.7035 24.9335 24.7885 24.8485C24.8736 24.7635 24.9213 24.6482 24.9213 24.5279C24.9213 24.4077 24.8736 24.2924 24.7885 24.2074C24.7035 24.1224 24.5882 24.0746 24.468 24.0746C23.3347 23.9279 23.1347 22.8759 23.388 21.9439C23.6413 21.0119 24.2947 20.2506 25.2413 20.3706C25.681 20.4011 26.1024 20.5584 26.4545 20.8235C26.8066 21.0885 27.0743 21.4499 27.2253 21.8639C27.4332 22.2725 27.4923 22.7407 27.3926 23.1882C27.2928 23.6356 27.0404 24.0344 26.6787 24.3159C26.5053 24.4439 26.3053 24.5346 26.0933 24.5826C25.8391 24.6359 25.5813 24.6715 25.32 24.6893C25.1847 24.6962 25.0574 24.7557 24.9652 24.855C24.8731 24.9544 24.8234 25.0858 24.8267 25.2213C24.8266 25.2884 24.8402 25.3548 24.8666 25.4164C24.893 25.4781 24.9318 25.5337 24.9805 25.5799C25.0291 25.6261 25.0867 25.6618 25.1497 25.685C25.2126 25.7082 25.2797 25.7182 25.3467 25.7146C25.7369 25.7333 26.1236 25.7066 26.5067 25.6346L26.6933 25.6346C27.04 25.9413 27.32 26.2613 27.6133 26.5546C27.9067 26.8479 27.972 26.9013 28.1453 27.0733C28.3187 27.2466 28.532 27.3933 28.7053 27.5933C28.8742 27.7933 29.0253 28.0066 29.1587 28.2333C29.177 28.2985 29.2082 28.3594 29.2505 28.4123C29.2927 28.4653 29.3452 28.5092 29.4047 28.5416C29.4643 28.5739 29.5297 28.5939 29.5971 28.6005C29.6646 28.6071 29.7326 28.6001 29.7973 28.5799C29.9274 28.5398 30.0365 28.4504 30.1013 28.3307C30.1661 28.2111 30.1814 28.0708 30.144 27.9399C30.0803 27.3294 29.8895 26.739 29.584 26.2066C29.4537 25.9496 29.2826 25.7168 29.0773 25.5146ZM13.6373 25.9666C13.3702 25.6269 13.1945 25.2244 13.1268 24.7976C13.0591 24.3707 13.1017 23.9337 13.2507 23.5279C13.3429 23.1373 13.5348 22.7773 13.8078 22.4831C14.0808 22.1889 14.4254 21.9705 14.808 21.8493C15.4279 21.6277 16.1091 21.6521 16.7115 21.9175C17.3139 22.1829 17.7917 22.669 18.0467 23.2759C19.552 26.8719 14.5173 26.9386 13.6373 25.9666ZM3.37733 17.4933C3.57733 17.4933 3.644 17.6799 4.55066 15.7079C4.67066 15.4546 4.764 15.1746 4.85733 14.9213C5.46933 13.3239 5.66933 13.2439 5.36266 12.9373C4.76266 12.4039 3.48266 14.0706 3.46933 14.1106C3.17819 14.4829 2.986 14.9227 2.91066 15.3893C2.83066 15.7893 2.764 17.4399 3.37733 17.4933ZM30.424 14.6559C30.335 14.4417 30.2185 14.24 30.0773 14.0559C30.0773 14.0559 28.744 12.3506 28.184 12.8839C27.852 13.1906 28.0387 13.2973 28.6507 14.8693C28.7573 15.1226 28.8507 15.4026 28.9573 15.6559C29.8773 17.6266 29.9307 17.4533 30.144 17.4413C30.7573 17.4413 30.6773 15.7346 30.624 15.3346C30.5878 15.1005 30.5205 14.8723 30.424 14.6559ZM8.02666 11.6186C8.15466 11.5599 8.27466 11.4888 8.38666 11.4053C8.50462 11.3362 8.61233 11.2509 8.70666 11.1519C9.72 10.2586 9.90666 10.1919 9.76 9.81861C9.76 9.67194 9.54666 9.17994 7.89333 9.75194C7.56911 9.86298 7.2764 10.0505 7.04 10.2986C6.82666 10.5386 6.04133 11.6319 6.36133 11.9519C6.48133 12.0586 6.56 12.2853 8.02666 11.6186ZM24.7867 11.1519C24.888 11.2453 24.9947 11.3297 25.1067 11.4053C25.2249 11.4888 25.3493 11.5599 25.48 11.6186C26.96 12.2853 27.04 12.0586 27.1467 11.9386C27.4667 11.5919 26.6667 10.5253 26.4667 10.2853C26.2205 10.0428 25.9249 9.85632 25.6 9.73861C23.9613 9.16661 23.788 9.65861 23.7347 9.80527C23.6013 10.1919 23.7867 10.2586 24.7867 11.1519Z" fill="#4F4F4F"/>
</g>
<defs>
<clipPath id="clip0_104_3297">
<rect width="32" height="32" fill="white"/>
</clipPath>
</defs>
</svg>
