<svg width="32" height="32" viewBox="0 0 32 32" fill="none" xmlns="http://www.w3.org/2000/svg">
<path d="M9.8667 23C8.93336 23.7778 7.96136 24.1333 6.9507 24.0667C5.94003 24 5.05648 23.6556 4.30003 23.0333C3.54359 22.4111 3.02714 21.5947 2.7507 20.584C2.47425 19.5733 2.65736 18.5342 3.30003 17.4667L5.80003 13.3333C5.24448 12.8444 4.80581 12.2556 4.48403 11.5667C4.16225 10.8778 4.00092 10.1333 4.00003 9.33333C4.00003 7.86667 4.52225 6.61111 5.5667 5.56667C6.61114 4.52222 7.8667 4 9.33336 4C10.8 4 12.0556 4.52222 13.1 5.56667C14.1445 6.61111 14.6667 7.86667 14.6667 9.33333C14.6667 10.8 14.1445 12.0556 13.1 13.1C12.0556 14.1444 10.8 14.6667 9.33336 14.6667C9.13336 14.6667 8.93336 14.6556 8.73336 14.6333C8.53336 14.6111 8.34448 14.5778 8.1667 14.5333L5.60003 18.8667C5.35559 19.2667 5.27781 19.6613 5.3667 20.0507C5.45559 20.44 5.64448 20.7564 5.93336 21C6.22225 21.2436 6.5667 21.3827 6.9667 21.4173C7.3667 21.452 7.75559 21.3129 8.13336 21L22.1334 8.96667C23.0667 8.18889 24.0445 7.83867 25.0667 7.916C26.0889 7.99333 26.9778 8.34356 27.7334 8.96667C28.4889 9.58978 29 10.4067 29.2667 11.4173C29.5334 12.428 29.3445 13.4667 28.7 14.5333L26.2 18.6667C26.7556 19.1556 27.1947 19.7444 27.5174 20.4333C27.84 21.1222 28.0009 21.8667 28 22.6667C28 24.1333 27.4778 25.3889 26.4334 26.4333C25.3889 27.4778 24.1334 28 22.6667 28C21.2 28 19.9445 27.4778 18.9 26.4333C17.8556 25.3889 17.3334 24.1333 17.3334 22.6667C17.3334 21.2 17.8556 19.9444 18.9 18.9C19.9445 17.8556 21.2 17.3333 22.6667 17.3333C22.8667 17.3333 23.0614 17.3444 23.2507 17.3667C23.44 17.3889 23.6231 17.4222 23.8 17.4667L26.4 13.1333C26.6445 12.7333 26.7223 12.3387 26.6334 11.9493C26.5445 11.56 26.3556 11.2436 26.0667 11C25.7778 10.7564 25.4334 10.6178 25.0334 10.584C24.6334 10.5502 24.2445 10.6889 23.8667 11L9.8667 23ZM9.33336 12C10.0667 12 10.6947 11.7391 11.2174 11.2173C11.74 10.6956 12.0009 10.0676 12 9.33333C11.9991 8.59911 11.7383 7.97156 11.2174 7.45067C10.6965 6.92978 10.0685 6.66844 9.33336 6.66667C8.59825 6.66489 7.9707 6.92622 7.4507 7.45067C6.9307 7.97511 6.66936 8.60267 6.6667 9.33333C6.66403 10.064 6.92536 10.692 7.4507 11.2173C7.97603 11.7427 8.60359 12.0036 9.33336 12ZM22.6667 25.3333C23.4 25.3333 24.028 25.0724 24.5507 24.5507C25.0734 24.0289 25.3343 23.4009 25.3334 22.6667C25.3325 21.9324 25.0716 21.3049 24.5507 20.784C24.0298 20.2631 23.4018 20.0018 22.6667 20C21.9316 19.9982 21.304 20.2596 20.784 20.784C20.264 21.3084 20.0027 21.936 20 22.6667C19.9974 23.3973 20.2587 24.0253 20.784 24.5507C21.3094 25.076 21.9369 25.3369 22.6667 25.3333Z" fill="#4F4F4F"/>
</svg>
