<svg width="32" height="32" viewBox="0 0 32 32" fill="none" xmlns="http://www.w3.org/2000/svg">
<path d="M10.6665 14.6666C10.6665 15.5506 11.0177 16.3985 11.6428 17.0236C12.2679 17.6487 13.1158 17.9999 13.9998 17.9999C14.8839 17.9999 15.7317 17.6487 16.3569 17.0236C16.982 16.3985 17.3332 15.5506 17.3332 14.6666C17.3332 13.7825 16.982 12.9347 16.3569 12.3096C15.7317 11.6844 14.8839 11.3333 13.9998 11.3333C13.1158 11.3333 12.2679 11.6844 11.6428 12.3096C11.0177 12.9347 10.6665 13.7825 10.6665 14.6666Z" stroke="#4F4F4F" stroke-width="2"/>
<path d="M2.6665 22.6666V6.66663H25.3332V22.6666H2.6665Z" stroke="#4F4F4F" stroke-width="2"/>
<path d="M6.6665 26.6666H29.3332V10.6666" stroke="#4F4F4F" stroke-width="2"/>
</svg>
