<svg width="32" height="32" viewBox="0 0 32 32" fill="none" xmlns="http://www.w3.org/2000/svg">
<path d="M9.99987 6.33336C9.86855 6.33336 9.73852 6.35923 9.61719 6.40948C9.49587 6.45974 9.38563 6.5334 9.29277 6.62625C9.19991 6.71911 9.12625 6.82935 9.076 6.95068C9.02574 7.072 8.99987 7.20204 8.99987 7.33336C8.99987 7.46468 9.02574 7.59472 9.076 7.71604C9.12625 7.83737 9.19991 7.94761 9.29277 8.04047C9.38563 8.13333 9.49587 8.20699 9.61719 8.25724C9.73852 8.3075 9.86855 8.33336 9.99987 8.33336C10.2651 8.33336 10.5194 8.228 10.707 8.04047C10.8945 7.85293 10.9999 7.59858 10.9999 7.33336C10.9999 7.06814 10.8945 6.81379 10.707 6.62625C10.5194 6.43872 10.2651 6.33336 9.99987 6.33336ZM6.99987 7.33336C7.00004 6.7834 7.15138 6.24407 7.43735 5.77431C7.72332 5.30455 8.13291 4.92244 8.62138 4.66973C9.10984 4.41703 9.65836 4.30346 10.207 4.34143C10.7557 4.3794 11.2833 4.56745 11.7323 4.88504C12.1813 5.20263 12.5343 5.63752 12.7529 6.1422C12.9714 6.64687 13.047 7.20191 12.9714 7.74665C12.8958 8.29139 12.6719 8.80486 12.3242 9.23096C11.9765 9.65705 11.5184 9.97938 10.9999 10.1627V15.3707C11.1154 15.2854 11.2354 15.2063 11.3599 15.1334C12.6252 14.3707 14.2465 14.148 15.6239 13.96L15.8625 13.9267C17.4105 13.7107 18.6652 13.4974 19.5652 12.8907C20.2385 12.4347 20.8145 11.6774 20.9625 10.1494C20.2987 9.90494 19.7425 9.43378 19.3924 8.81909C19.0422 8.2044 18.9205 7.48573 19.0488 6.79002C19.1771 6.09432 19.5471 5.46633 20.0935 5.01699C20.6399 4.56765 21.3276 4.32586 22.0349 4.33432C22.7423 4.34279 23.424 4.60097 23.9595 5.06326C24.495 5.52555 24.8499 6.16221 24.9615 6.86079C25.0731 7.55936 24.9342 8.27491 24.5694 8.88105C24.2047 9.48718 23.6374 9.9449 22.9679 10.1734C22.7999 12.276 21.9839 13.6694 20.6852 14.5467C19.3345 15.46 17.5892 15.7067 16.1385 15.9067L16.1052 15.912C14.5452 16.128 13.2959 16.3014 12.3905 16.8454C11.9705 17.0987 11.6412 17.4267 11.4079 17.888C11.1679 18.36 10.9999 19.0294 10.9999 20V21.8374C11.6675 22.0733 12.2301 22.5376 12.5885 23.1483C12.9468 23.7589 13.0777 24.4766 12.958 25.1745C12.8383 25.8724 12.4758 26.5054 11.9345 26.9618C11.3932 27.4182 10.7079 27.6685 9.99987 27.6685C9.29183 27.6685 8.60659 27.4182 8.06526 26.9618C7.52394 26.5054 7.1614 25.8724 7.04173 25.1745C6.92205 24.4766 7.05294 23.7589 7.41127 23.1483C7.7696 22.5376 8.33229 22.0733 8.99987 21.8374V10.1627C8.41483 9.95585 7.90831 9.57267 7.55012 9.06595C7.19193 8.55923 6.99969 7.9539 6.99987 7.33336ZM21.9999 6.33336C21.8686 6.33336 21.7385 6.35923 21.6172 6.40948C21.4959 6.45974 21.3856 6.5334 21.2928 6.62625C21.1999 6.71911 21.1263 6.82935 21.076 6.95068C21.0257 7.072 20.9999 7.20204 20.9999 7.33336C20.9999 7.46468 21.0257 7.59472 21.076 7.71604C21.1263 7.83737 21.1999 7.94761 21.2928 8.04047C21.3856 8.13333 21.4959 8.20699 21.6172 8.25724C21.7385 8.3075 21.8686 8.33336 21.9999 8.33336C22.2651 8.33336 22.5194 8.228 22.707 8.04047C22.8945 7.85293 22.9999 7.59858 22.9999 7.33336C22.9999 7.06814 22.8945 6.81379 22.707 6.62625C22.5194 6.43872 22.2651 6.33336 21.9999 6.33336ZM9.99987 23.6667C9.73466 23.6667 9.4803 23.772 9.29277 23.9596C9.10523 24.1471 8.99987 24.4015 8.99987 24.6667C8.99987 24.9319 9.10523 25.1863 9.29277 25.3738C9.4803 25.5613 9.73466 25.6667 9.99987 25.6667C10.2651 25.6667 10.5194 25.5613 10.707 25.3738C10.8945 25.1863 10.9999 24.9319 10.9999 24.6667C10.9999 24.4015 10.8945 24.1471 10.707 23.9596C10.5194 23.772 10.2651 23.6667 9.99987 23.6667Z" fill="#4F4F4F"/>
</svg>
