<svg width="32" height="32" viewBox="0 0 32 32" fill="none" xmlns="http://www.w3.org/2000/svg">
<path d="M28.6668 6.00004C28.6668 6.70728 28.3859 7.38556 27.8858 7.88566C27.3857 8.38576 26.7074 8.66671 26.0002 8.66671C25.2929 8.66671 24.6146 8.38576 24.1145 7.88566C23.6144 7.38556 23.3335 6.70728 23.3335 6.00004C23.3335 5.2928 23.6144 4.61452 24.1145 4.11442C24.6146 3.61433 25.2929 3.33337 26.0002 3.33337C26.7074 3.33337 27.3857 3.61433 27.8858 4.11442C28.3859 4.61452 28.6668 5.2928 28.6668 6.00004Z" stroke="#4F4F4F" stroke-width="1.5"/>
<path d="M27.2948 12.5414C27.3335 13.7201 27.3335 15.0827 27.3335 16.6667C27.3335 22.3241 27.3335 25.1521 25.5762 26.9094C23.8188 28.6667 20.9895 28.6667 15.3335 28.6667C9.6775 28.6667 6.84816 28.6667 5.09083 26.9094C3.3335 25.1521 3.3335 22.3227 3.3335 16.6667C3.3335 11.0107 3.3335 8.18141 5.09083 6.42408C6.84816 4.66675 9.6775 4.66675 15.3335 4.66675C16.9175 4.66675 18.2802 4.66675 19.4588 4.70541" stroke="#4F4F4F" stroke-width="1.5" stroke-linecap="round" stroke-linejoin="round"/>
<path d="M7.3335 16.6667H10.6668L13.3335 11.3334L17.3335 22L20.0002 16.6667H23.3335" stroke="#4F4F4F" stroke-width="1.5" stroke-linecap="round" stroke-linejoin="round"/>
</svg>
