<svg width="32" height="32" viewBox="0 0 32 32" fill="none" xmlns="http://www.w3.org/2000/svg">
<path d="M15.9998 16L15.9998 28M15.9998 28C13.5415 25.8434 10.3807 24.6582 7.1105 24.6667C5.02784 24.6667 3.9865 24.6667 3.5265 24.3733C3.2916 24.2373 3.09663 24.0419 2.96117 23.8067C2.6665 23.3467 2.6665 22.5267 2.6665 20.884L2.6665 8.53733C2.6665 6.63333 2.6665 5.68267 3.3985 4.91067C4.12917 4.13867 4.8785 4.09867 6.37717 4.02C6.61984 4.00667 6.86428 4 7.1105 4M15.9998 28C18.4581 25.8434 21.619 24.6582 24.8892 24.6667C26.9718 24.6667 28.0132 24.6667 28.4732 24.3733C28.7492 24.196 28.8612 24.0827 29.0385 23.8067C29.3332 23.3467 29.3332 22.5267 29.3332 20.884L29.3332 8.53733C29.3332 6.63333 29.3332 5.68267 28.6012 4.91067C27.8692 4.13867 27.1212 4.09867 25.6225 4.02C25.3798 4.00667 25.1354 4 24.8892 4M10.6665 5.928C10.6665 5.928 12.6665 4 16.0065 4C19.3465 4 21.3332 5.928 21.3332 5.928M19.3332 9.33333C19.3332 9.33333 18.0132 7.996 16.0065 7.996C13.9998 7.996 12.6665 9.33333 12.6665 9.33333M15.9998 12L16.0132 12" stroke="#4F4F4F" stroke-width="1.5" stroke-linecap="round" stroke-linejoin="round"/>
</svg>
