<svg width="121" height="120" viewBox="0 0 121 120" fill="none" xmlns="http://www.w3.org/2000/svg">
<path d="M21.4804 5.53417C21.8244 5.53319 22.1684 5.5319 22.5125 5.53034C23.4526 5.52697 24.3927 5.52794 25.3329 5.52968C26.3489 5.53079 27.3648 5.52785 28.3808 5.52545C30.3692 5.52143 32.3577 5.52123 34.3461 5.52246C35.963 5.52341 37.5798 5.52306 39.1966 5.52181C39.427 5.52164 39.6574 5.52146 39.8947 5.52128C40.3628 5.52092 40.8308 5.52056 41.2989 5.5202C45.6856 5.51698 50.0723 5.51826 54.459 5.52095C58.4685 5.52327 62.4781 5.52024 66.4876 5.51463C70.6085 5.50891 74.7293 5.50667 78.8502 5.50822C81.1622 5.50904 83.4742 5.50852 85.7862 5.50442C87.7545 5.50096 89.7228 5.50082 91.6912 5.5049C92.6945 5.50689 93.6979 5.50741 94.7013 5.50381C95.6215 5.50055 96.5417 5.5017 97.4619 5.50621C97.7931 5.50709 98.1243 5.50642 98.4555 5.50396C102.529 5.47588 105.712 6.71291 108.679 9.49771C112.127 13.1724 112.075 17.6429 112.06 22.3872C112.059 22.7707 112.059 23.1542 112.059 23.5377C112.058 24.5836 112.056 25.6296 112.054 26.6755C112.051 27.8065 112.05 28.9374 112.049 30.0684C112.046 32.5364 112.041 35.0045 112.035 37.4725C112.032 39.0138 112.029 40.5552 112.026 42.0965C112.018 46.366 112.01 50.6356 112 54.9051C111.999 55.1779 111.999 55.4506 111.998 55.7316C111.997 56.005 111.997 56.2784 111.996 56.5601C111.995 57.114 111.993 57.668 111.992 58.2219C111.991 58.6341 111.991 58.6341 111.99 59.0545C111.98 63.5145 111.972 67.9745 111.966 72.4346C111.96 77.016 111.952 81.5974 111.94 86.1788C111.934 88.7503 111.929 91.3217 111.926 93.8931C111.924 96.0806 111.92 98.268 111.913 100.455C111.909 101.572 111.906 102.688 111.907 103.804C111.907 104.825 111.904 105.846 111.899 106.868C111.897 107.238 111.897 107.607 111.898 107.977C111.899 108.479 111.896 108.981 111.892 109.483C111.892 109.762 111.891 110.042 111.891 110.329C111.749 111.548 111.262 112.476 110.322 113.262C110.192 113.374 110.063 113.487 109.929 113.602C108.428 114.57 106.812 114.442 105.092 114.436C104.64 114.437 104.64 114.437 104.179 114.439C103.344 114.441 102.509 114.441 101.674 114.44C100.773 114.439 99.8719 114.441 98.9708 114.443C97.206 114.446 95.4412 114.446 93.6765 114.446C92.2419 114.445 90.8074 114.446 89.3729 114.447C89.0667 114.447 89.0667 114.447 88.7542 114.447C88.3395 114.448 87.9247 114.448 87.5099 114.448C83.6201 114.451 79.7303 114.45 75.8404 114.449C72.2824 114.448 68.7244 114.45 65.1664 114.455C61.5125 114.459 57.8586 114.461 54.2048 114.46C52.1536 114.46 50.1024 114.46 48.0513 114.464C46.305 114.466 44.5588 114.467 42.8126 114.464C41.9218 114.463 41.0311 114.462 40.1404 114.465C39.1743 114.468 38.2083 114.466 37.2421 114.463C36.9613 114.464 36.6805 114.466 36.3911 114.468C34.6795 114.457 33.2004 114.368 31.8228 113.243C31.6334 113.013 31.6334 113.013 31.4401 112.778C31.3102 112.627 31.1803 112.476 31.0465 112.32C30.1467 110.931 30.173 109.549 30.1826 107.953C30.1822 107.707 30.1818 107.462 30.1814 107.209C30.1806 106.388 30.1832 105.566 30.1857 104.745C30.1859 104.156 30.1858 103.567 30.1855 102.978C30.1854 101.71 30.1868 100.442 30.1894 99.1736C30.1932 97.3403 30.1944 95.507 30.195 93.6737C30.196 90.6991 30.1992 87.7245 30.2036 84.7499C30.2079 81.8608 30.2112 78.9716 30.2132 76.0824C30.2133 75.9043 30.2135 75.7261 30.2136 75.5426C30.2142 74.6488 30.2148 73.7551 30.2154 72.8613C30.2202 65.4492 30.2285 58.0371 30.239 50.625C30.0141 50.6266 29.7892 50.6282 29.5575 50.6298C27.4335 50.644 25.3095 50.6546 23.1854 50.6615C22.0935 50.6651 21.0016 50.6701 19.9097 50.6781C18.8551 50.6857 17.8005 50.6899 16.7458 50.6917C16.3444 50.693 15.943 50.6956 15.5416 50.6994C14.9772 50.7045 14.4131 50.7052 13.8487 50.7048C13.6845 50.7074 13.5203 50.7099 13.3511 50.7125C11.8349 50.7031 10.5918 50.3405 9.42353 49.3799C8.10138 47.7556 8.10547 46.3772 8.11301 44.3532C8.1114 44.0519 8.10979 43.7507 8.10813 43.4403C8.10393 42.616 8.1042 41.7917 8.10554 40.9674C8.10627 40.2768 8.10484 39.5862 8.10342 38.8956C8.10013 37.2636 8.10049 35.6317 8.10316 33.9997C8.10585 32.3236 8.10257 30.6475 8.09627 28.9714C8.09106 27.527 8.08953 26.0827 8.0909 24.6384C8.09169 23.7782 8.09116 22.918 8.08709 22.0578C8.08274 21.0954 8.08612 20.1331 8.09012 19.1707C8.08785 18.891 8.08559 18.6114 8.08325 18.3232C8.11496 14.6543 9.26921 11.6485 11.7673 8.96487C14.623 6.25484 17.6568 5.51636 21.4804 5.53417ZM14.6933 11.7371C13.1019 13.4228 12.1616 15.3264 12.1639 17.6579C12.1636 17.9116 12.1633 18.1654 12.1629 18.4268C12.1638 18.7039 12.1646 18.9811 12.1655 19.2666C12.1654 19.5594 12.1654 19.8521 12.1654 20.1537C12.1655 20.9556 12.1667 21.7574 12.1683 22.5592C12.1698 23.3975 12.1699 24.2358 12.1702 25.0741C12.1709 26.6612 12.1729 28.2482 12.1752 29.8353C12.1778 31.6422 12.1791 33.4492 12.1803 35.2562C12.1827 38.9729 12.1869 42.6896 12.1921 46.4063C12.8805 46.7505 13.5734 46.6712 14.3277 46.6673C14.4992 46.6673 14.6707 46.6673 14.8474 46.6674C15.4156 46.6672 15.9837 46.6654 16.5518 46.6635C16.9453 46.6631 17.3387 46.6628 17.7321 46.6625C18.7686 46.6616 19.8051 46.6593 20.8416 46.6567C21.8988 46.6544 22.9561 46.6533 24.0134 46.6521C26.0886 46.6496 28.1638 46.6456 30.239 46.6407C30.2609 42.7126 30.2774 38.7845 30.2875 34.8563C30.2924 33.0322 30.2989 31.2081 30.3097 29.3841C30.3191 27.7932 30.3251 26.2024 30.3272 24.6116C30.3284 23.7701 30.3312 22.9287 30.3381 22.0872C30.3457 21.1453 30.3458 20.2035 30.3454 19.2615C30.3488 18.9859 30.3521 18.7102 30.3556 18.4263C30.3421 15.7046 29.645 13.7199 27.7478 11.7572C24.182 8.50279 18.2952 8.52199 14.6933 11.7371ZM31.1765 9.37503C31.2902 9.55156 31.4038 9.72808 31.521 9.90996C31.6696 10.1418 31.8182 10.3736 31.9712 10.6125C32.1188 10.8422 32.2663 11.0719 32.4183 11.3085C32.8467 12.001 33.1903 12.6906 33.4909 13.4473C33.5822 13.6715 33.6734 13.8956 33.7674 14.1266C34.1683 15.283 34.2528 16.3296 34.2539 17.5519C34.2546 17.7923 34.2545 17.7923 34.2552 18.0376C34.2565 18.5758 34.2561 19.114 34.2557 19.6522C34.2562 20.0415 34.2569 20.4308 34.2577 20.8201C34.2595 21.8908 34.2599 22.9615 34.26 24.0322C34.2605 25.1865 34.2623 26.3408 34.2639 27.4951C34.2666 29.4954 34.2685 31.4957 34.27 33.496C34.2724 36.6556 34.2773 39.8151 34.2825 42.9747C34.2842 44.0551 34.286 45.1356 34.2877 46.216C34.2884 46.621 34.2883 46.621 34.289 47.0342C34.2939 50.1077 34.2983 53.1813 34.3025 56.2548C34.3031 56.6763 34.3031 56.6763 34.3037 57.1062C34.3099 61.6648 34.3142 66.2233 34.3181 70.7818C34.3222 75.4585 34.329 80.1352 34.338 84.8119C34.3435 87.6987 34.3468 90.5855 34.3472 93.4724C34.3477 95.4486 34.3508 97.4248 34.3558 99.401C34.3586 100.543 34.3603 101.684 34.3589 102.826C34.3577 103.87 34.3596 104.913 34.3642 105.957C34.3653 106.336 34.3651 106.715 34.3637 107.094C34.362 107.606 34.3645 108.118 34.3682 108.63C34.3685 108.916 34.3688 109.201 34.3691 109.495C34.413 109.822 34.413 109.822 34.4577 110.156C35.2356 110.675 35.4712 110.684 36.3764 110.684C36.6297 110.685 36.8829 110.686 37.1438 110.688C37.4231 110.687 37.7023 110.686 37.9901 110.685C38.4338 110.686 38.4338 110.686 38.8866 110.687C39.7093 110.689 40.5321 110.688 41.3549 110.686C42.2416 110.685 43.1283 110.687 44.015 110.688C45.7527 110.69 47.4904 110.69 49.2281 110.688C50.6399 110.687 52.0518 110.687 53.4637 110.688C53.6644 110.688 53.8651 110.688 54.0718 110.688C54.4795 110.688 54.8872 110.688 55.2949 110.688C59.1205 110.69 62.9461 110.688 66.7718 110.686C70.0566 110.684 73.3415 110.684 76.6263 110.686C80.438 110.689 84.2496 110.69 88.0613 110.688C88.4675 110.688 88.8737 110.688 89.2799 110.688C89.4798 110.688 89.6796 110.688 89.8856 110.688C91.2962 110.687 92.7069 110.688 94.1176 110.689C95.836 110.69 97.5544 110.69 99.2728 110.687C100.15 110.686 101.027 110.686 101.905 110.687C102.854 110.689 103.804 110.687 104.753 110.685C105.172 110.686 105.172 110.686 105.6 110.688C105.853 110.687 106.106 110.685 106.367 110.684C106.586 110.684 106.806 110.684 107.032 110.684C107.646 110.661 107.646 110.661 108.286 110.156C108.393 109.474 108.393 109.474 108.375 108.653C108.377 108.418 108.377 108.418 108.378 108.178C108.381 107.648 108.379 107.117 108.377 106.586C108.378 106.204 108.379 105.822 108.381 105.44C108.384 104.385 108.383 103.331 108.381 102.277C108.38 101.141 108.383 100.005 108.385 98.8697C108.389 96.6426 108.39 94.4155 108.388 92.1885C108.387 90.3778 108.388 88.5672 108.389 86.7566C108.389 86.4992 108.389 86.2418 108.39 85.9767C108.39 85.4539 108.39 84.9311 108.391 84.4083C108.394 79.4993 108.393 74.5903 108.39 69.6813C108.388 65.1918 108.391 60.7023 108.396 56.2127C108.402 51.6044 108.404 46.996 108.403 42.3876C108.402 39.7999 108.402 37.2121 108.406 34.6243C108.41 32.4199 108.41 30.2155 108.406 28.011C108.404 26.8866 108.403 25.7623 108.407 24.6379C108.41 23.6073 108.409 22.5768 108.405 21.5462C108.404 21.1745 108.404 20.8029 108.407 20.4313C108.427 17.2067 107.968 14.6013 105.708 12.1875C105.585 12.0552 105.462 11.9229 105.336 11.7865C102.912 9.45705 99.7259 9.33854 96.5648 9.34684C96.1447 9.34654 96.1447 9.34654 95.716 9.34624C94.9426 9.34592 94.1693 9.34665 93.3959 9.34783C92.5603 9.34884 91.7248 9.34849 90.8892 9.34832C89.4429 9.34819 87.9967 9.34893 86.5504 9.35025C84.4593 9.35215 82.3683 9.35276 80.2772 9.35306C76.8844 9.35357 73.4915 9.35513 70.0986 9.35735C66.8034 9.3595 63.5082 9.36116 60.213 9.36215C60.0098 9.36222 59.8065 9.36228 59.5971 9.36234C58.5775 9.36265 57.558 9.36294 56.5384 9.36323C48.0844 9.36566 39.6304 9.36979 31.1765 9.37503Z" fill="white"/>
<path d="M47.1452 80.5872C47.3846 80.585 47.6239 80.5827 47.8706 80.5804C48.2566 80.5789 48.2566 80.5789 48.6504 80.5774C48.9163 80.576 49.1821 80.5747 49.456 80.5733C50.0183 80.5711 50.5805 80.5696 51.1428 80.5687C52.0018 80.5664 52.8607 80.5591 53.7197 80.5517C54.2662 80.5502 54.8128 80.549 55.3594 80.5481C55.6158 80.5452 55.8722 80.5423 56.1363 80.5393C57.9379 80.5446 59.0561 80.8864 60.4735 82.0312C60.6717 81.8379 60.8699 81.6445 61.0741 81.4453C61.6806 80.9432 61.8944 80.857 62.7147 80.7275C63.6721 80.8842 64.055 81.0658 64.6923 81.7969C64.9852 82.5586 64.9852 82.5586 64.9266 83.4375C64.384 84.2972 63.6672 85.0644 62.8142 85.6196C62.0564 86.191 61.511 86.7099 61.3101 87.6696C61.1596 89.1158 61.204 90.57 61.2352 92.0215C61.2444 92.6799 61.2508 93.3381 61.2518 93.9966C61.2529 94.4046 61.2589 94.8127 61.2705 95.2205C61.2803 96.4894 61.0889 97.1991 60.2391 98.2031C59.1364 99.0358 58.3298 99.4023 56.9572 99.4127C56.7186 99.415 56.4799 99.4172 56.234 99.4196C55.9762 99.4206 55.7184 99.4216 55.4528 99.4226C55.0543 99.4246 55.0543 99.4246 54.6478 99.4266C54.0852 99.4289 53.5225 99.4304 52.9598 99.4313C52.1013 99.4336 51.2429 99.4408 50.3844 99.4482C49.8375 99.4498 49.2907 99.451 48.7438 99.4519C48.4879 99.4548 48.232 99.4577 47.9683 99.4607C46.2023 99.4555 45.0277 99.2849 43.6425 98.1152C42.8345 97.1457 42.6032 96.3131 42.5929 95.063C42.5899 94.8158 42.587 94.5685 42.5839 94.3138C42.5833 94.0489 42.5828 93.784 42.5823 93.511C42.5807 93.2362 42.5792 92.9614 42.5776 92.6783C42.5752 92.0973 42.5741 91.5163 42.5742 90.9354C42.5731 90.0496 42.5646 89.1641 42.5557 88.2783C42.5544 87.713 42.5534 87.1477 42.553 86.5823C42.5496 86.3188 42.5463 86.0553 42.5428 85.7839C42.5515 84.2718 42.6762 83.0393 43.5985 81.7969C44.7658 80.8485 45.674 80.5984 47.1452 80.5872ZM46.8798 84.375C46.8798 87.9328 46.8798 91.4906 46.8798 95.1562C50.4376 95.1562 53.9954 95.1562 57.661 95.1562C57.661 93.764 57.661 92.3719 57.661 90.9375C57.4097 91.155 57.1583 91.3725 56.8993 91.5967C55.5021 92.7911 54.6595 93.4093 52.7391 93.2812C50.8196 92.6106 49.5191 91.3578 48.286 89.7656C48.0203 88.9822 47.9966 88.4325 48.286 87.6562C48.7728 87.0384 49.1094 86.979 49.8681 86.8066C51.0309 87.0302 51.684 87.7764 52.5048 88.5937C52.6392 88.7276 52.7737 88.8614 52.9122 88.9993C53.0098 89.0975 53.1074 89.1957 53.2079 89.2969C54.2897 88.8073 55.0099 88.0585 55.8446 87.2314C55.9969 87.0869 56.1492 86.9423 56.306 86.7933C56.5218 86.5801 56.5218 86.5801 56.7418 86.3626C56.8733 86.2342 57.0048 86.1059 57.1403 85.9737C57.5355 85.4703 57.5355 85.4703 57.4266 84.375C53.9462 84.375 50.4657 84.375 46.8798 84.375Z" fill="white"/>
<path d="M47.1376 20.5836C47.4945 20.579 47.4945 20.579 47.8585 20.5744C48.1143 20.5727 48.3702 20.571 48.6338 20.5692C48.8986 20.5673 49.1633 20.5654 49.4361 20.5635C49.9964 20.5602 50.5567 20.5577 51.117 20.5559C51.9709 20.5518 52.8246 20.5415 53.6784 20.5312C54.2234 20.5288 54.7685 20.5268 55.3135 20.5253C55.5675 20.5211 55.8215 20.517 56.0831 20.5128C57.5875 20.5171 58.7585 20.6739 60.0047 21.5625C60.929 22.5579 61.205 23.1429 61.218 24.4819C61.2226 24.8833 61.2226 24.8833 61.2272 25.2928C61.2289 25.5833 61.2306 25.8738 61.2324 26.1731C61.2343 26.4709 61.2362 26.7686 61.2381 27.0753C61.2414 27.7066 61.244 28.3379 61.2457 28.9692C61.2483 29.7757 61.2564 30.582 61.2657 31.3885C61.2733 32.1598 61.2744 32.9311 61.2764 33.7024C61.2805 33.9911 61.2846 34.2797 61.2888 34.577C61.2824 37.0853 61.2824 37.0853 60.2391 38.2032C59.1379 39.0346 58.3316 39.4023 56.9608 39.4128C56.7229 39.4151 56.485 39.4173 56.2399 39.4196C55.9829 39.4206 55.7258 39.4216 55.4609 39.4227C55.1958 39.424 54.9308 39.4253 54.6577 39.4267C54.096 39.4289 53.5343 39.4304 52.9726 39.4313C52.1166 39.4336 51.2608 39.4409 50.4049 39.4483C49.8588 39.4498 49.3127 39.451 48.7666 39.4519C48.3845 39.4563 48.3845 39.4563 47.9948 39.4607C46.4647 39.4563 44.9005 39.4315 43.7029 38.3399C42.8466 37.3597 42.6326 36.5968 42.6194 35.3292C42.6164 35.0772 42.6134 34.8252 42.6103 34.5656C42.6086 34.2931 42.6069 34.0207 42.6051 33.74C42.6032 33.4593 42.6013 33.1786 42.5994 32.8894C42.5961 32.2946 42.5936 31.6998 42.5918 31.105C42.5877 30.1981 42.5774 29.2914 42.5671 28.3846C42.5647 27.8064 42.5627 27.2283 42.5611 26.6501C42.557 26.38 42.5529 26.11 42.5487 25.8317C42.553 24.2187 42.7192 23.1633 43.5984 21.7969C44.7622 20.8514 45.671 20.5998 47.1376 20.5836ZM46.8797 24.8438C46.8797 28.4016 46.8797 31.9594 46.8797 35.625C50.3602 35.625 53.8406 35.625 57.4266 35.625C57.4266 32.0672 57.4266 28.5094 57.4266 24.8438C53.9461 24.8438 50.4656 24.8438 46.8797 24.8438Z" fill="white"/>
<path d="M47.1377 50.5836C47.4945 50.579 47.4945 50.579 47.8586 50.5744C48.1144 50.5727 48.3703 50.571 48.6339 50.5692C48.8987 50.5673 49.1634 50.5654 49.4362 50.5635C49.9965 50.5602 50.5568 50.5577 51.1171 50.5559C51.971 50.5518 52.8246 50.5415 53.6785 50.5312C54.2235 50.5288 54.7686 50.5268 55.3136 50.5253C55.5676 50.5211 55.8215 50.517 56.0832 50.5128C57.5875 50.5171 58.7586 50.6739 60.0048 51.5625C60.929 52.5579 61.2051 53.1429 61.2181 54.4819C61.2226 54.8833 61.2226 54.8833 61.2273 55.2928C61.229 55.5833 61.2307 55.8738 61.2325 56.1731C61.2344 56.4709 61.2363 56.7686 61.2382 57.0753C61.2415 57.7066 61.2441 58.3379 61.2458 58.9692C61.2484 59.7757 61.2565 60.582 61.2658 61.3885C61.2734 62.1598 61.2745 62.9311 61.2764 63.7024C61.2805 63.9911 61.2847 64.2797 61.2889 64.577C61.2825 67.0853 61.2825 67.0853 60.2392 68.2032C59.1364 69.0358 58.3298 69.4023 56.9572 69.4128C56.7186 69.4151 56.4799 69.4173 56.234 69.4196C55.9762 69.4206 55.7184 69.4216 55.4528 69.4227C55.0543 69.4247 55.0543 69.4247 54.6478 69.4267C54.0852 69.4289 53.5225 69.4304 52.9598 69.4313C52.1013 69.4336 51.2429 69.4409 50.3844 69.4483C49.8375 69.4498 49.2907 69.451 48.7438 69.4519C48.4879 69.4548 48.232 69.4577 47.9683 69.4607C46.2023 69.4556 45.0277 69.285 43.6425 68.1153C42.8345 67.1458 42.6032 66.3131 42.5929 65.0631C42.5899 64.8158 42.587 64.5686 42.5839 64.3138C42.5833 64.0489 42.5828 63.784 42.5823 63.5111C42.5807 63.2363 42.5792 62.9615 42.5776 62.6783C42.5752 62.0974 42.5741 61.5164 42.5742 60.9354C42.5731 60.0496 42.5646 59.1641 42.5557 58.2784C42.5544 57.7131 42.5534 57.1477 42.553 56.5824C42.5496 56.3189 42.5463 56.0554 42.5428 55.7839C42.5515 54.2719 42.6762 53.0394 43.5985 51.7969C44.7623 50.8514 45.6711 50.5998 47.1377 50.5836ZM46.8798 54.6094C46.8798 58.1672 46.8798 61.725 46.8798 65.3907C50.3602 65.3907 53.8407 65.3907 57.4267 65.3907C57.4267 61.8329 57.4267 58.275 57.4267 54.6094C53.9462 54.6094 50.4657 54.6094 46.8798 54.6094Z" fill="white"/>
<path d="M68.8211 22.6435C69.2144 22.64 69.2144 22.64 69.6157 22.6365C69.9011 22.6375 70.1865 22.6386 70.4806 22.6397C70.7829 22.6381 71.0852 22.6365 71.3967 22.6348C72.2243 22.6306 73.0518 22.6309 73.8794 22.6322C74.5708 22.6329 75.2622 22.6315 75.9535 22.6301C77.5846 22.6268 79.2157 22.6272 80.8468 22.6298C82.5287 22.6325 84.2105 22.6292 85.8924 22.6229C87.3375 22.6178 88.7826 22.6162 90.2277 22.6176C91.0903 22.6184 91.9529 22.6178 92.8156 22.6138C93.7773 22.6095 94.7389 22.6128 95.7006 22.6168C95.986 22.6145 96.2715 22.6123 96.5656 22.6099C98.4917 22.6269 98.4917 22.6269 99.4393 23.178C99.9083 23.7441 100.001 23.9983 99.9803 24.7266C99.9806 24.903 99.9809 25.0794 99.9812 25.2612C99.7974 25.9813 99.4825 26.2508 98.9109 26.7188C98.3047 26.8374 98.3047 26.8374 97.6049 26.8394C97.2061 26.8439 97.2061 26.8439 96.7993 26.8484C96.3634 26.8461 96.3634 26.8461 95.9186 26.8438C95.4583 26.8468 95.4583 26.8468 94.9887 26.8499C94.1475 26.8552 93.3065 26.8545 92.4653 26.8524C91.7629 26.8512 91.0604 26.8529 90.358 26.8546C88.7007 26.8586 87.0435 26.8578 85.3862 26.8539C83.677 26.8499 81.9679 26.8536 80.2587 26.8612C78.7907 26.8674 77.3228 26.8691 75.8548 26.8671C74.9783 26.866 74.1018 26.8665 73.2253 26.8713C72.2477 26.8764 71.2705 26.872 70.293 26.8667C70.0028 26.8694 69.7126 26.8721 69.4136 26.875C67.2317 26.8507 67.2317 26.8507 66.502 26.158C66.0656 25.4972 65.9601 25.2369 66.0691 24.4629C66.0879 24.2858 66.1066 24.1088 66.1259 23.9264C66.6025 22.8003 67.7104 22.6463 68.8211 22.6435Z" fill="white"/>
<path d="M68.7838 52.4389C69.0437 52.4372 69.3037 52.4356 69.5714 52.4338C69.8555 52.4344 70.1396 52.435 70.4323 52.4356C70.7323 52.4344 71.0323 52.4332 71.3414 52.432C72.1636 52.4288 72.9859 52.4287 73.8081 52.4293C74.4948 52.4295 75.1815 52.4284 75.8682 52.4273C77.4884 52.4247 79.1086 52.4246 80.7288 52.426C82.3996 52.4274 84.0704 52.4245 85.7412 52.4195C87.1764 52.4154 88.6115 52.414 90.0466 52.4148C90.9035 52.4152 91.7604 52.4146 92.6172 52.4113C93.5728 52.4078 94.5283 52.41 95.4839 52.4127C95.7675 52.4109 96.0511 52.4091 96.3433 52.4073C96.7341 52.4098 96.7341 52.4098 97.1329 52.4123C97.3587 52.4122 97.5845 52.4122 97.8172 52.4122C98.5634 52.5171 99.0067 52.7637 99.6139 53.2031C99.9806 53.9366 100.012 54.7525 99.8482 55.5469C99.3595 56.1586 99.0788 56.4517 98.3002 56.603C97.9507 56.604 97.9507 56.604 97.5942 56.605C97.192 56.6095 97.192 56.6095 96.7817 56.614C96.3419 56.6117 96.3419 56.6117 95.8931 56.6094C95.5805 56.611 95.2678 56.6131 94.9552 56.6155C94.1068 56.6208 93.2585 56.6201 92.4101 56.618C91.7018 56.6168 90.9935 56.6185 90.2852 56.6202C88.6145 56.6242 86.9438 56.6234 85.273 56.6195C83.5492 56.6155 81.8254 56.6192 80.1016 56.6268C78.6215 56.633 77.1414 56.6347 75.6612 56.6327C74.7772 56.6316 73.8933 56.6321 73.0093 56.6369C72.1782 56.6412 71.3473 56.6398 70.5162 56.6341C70.0657 56.6323 69.6152 56.6364 69.1648 56.6406C68.7626 56.6361 68.7626 56.6361 68.3523 56.6316C68.1193 56.6314 67.8863 56.6313 67.6463 56.6312C66.8002 56.4277 66.5536 56.0346 66.0982 55.3125C65.9869 54.4031 66.0274 53.7241 66.567 52.9687C67.3168 52.4968 67.9066 52.4407 68.7838 52.4389Z" fill="white"/>
<path d="M67.6466 82.3532C67.8796 82.3531 68.1125 82.3529 68.3526 82.3528C68.6207 82.3498 68.8888 82.3469 69.1651 82.3438C69.6049 82.3479 69.6049 82.3479 70.0536 82.3521C70.3663 82.3509 70.6789 82.3492 70.9916 82.347C71.84 82.3427 72.6883 82.3457 73.5367 82.3503C74.4246 82.3542 75.3125 82.3521 76.2005 82.3509C77.6916 82.3499 79.1826 82.3536 80.6737 82.3601C82.3976 82.3676 84.1213 82.3676 85.8452 82.3636C87.5036 82.3599 89.1619 82.3615 90.8203 82.3655C91.526 82.3671 92.2317 82.3668 92.9375 82.3651C93.7686 82.3633 94.5995 82.3661 95.4306 82.3726C95.8811 82.3749 96.3315 82.3727 96.782 82.3704C97.1842 82.3748 97.1842 82.3748 97.5945 82.3794C97.8275 82.3801 98.0605 82.3807 98.3005 82.3814C99.0789 82.5326 99.3583 82.8276 99.8485 83.4375C99.973 83.9063 99.973 83.9063 99.9657 84.375C99.9693 84.6071 99.9693 84.6071 99.973 84.8438C99.7911 85.5287 99.4539 85.8033 98.911 86.25C98.3005 86.3687 98.3005 86.3687 97.5945 86.3707C97.1923 86.3751 97.1923 86.3751 96.782 86.3797C96.3422 86.3774 96.3422 86.3774 95.8935 86.3751C95.5808 86.3767 95.2682 86.3788 94.9555 86.3812C94.1071 86.3865 93.2588 86.3858 92.4104 86.3837C91.7021 86.3825 90.9938 86.3842 90.2855 86.3859C88.6148 86.3899 86.9441 86.389 85.2733 86.3851C83.5495 86.3812 81.8257 86.3849 80.1019 86.3924C78.6218 86.3987 77.1417 86.4004 75.6615 86.3984C74.7775 86.3973 73.8936 86.3978 73.0096 86.4026C72.1785 86.4069 71.3476 86.4055 70.5165 86.3997C70.066 86.398 69.6155 86.402 69.1651 86.4062C68.7629 86.4018 68.7629 86.4018 68.3526 86.3973C68.1196 86.3971 67.8866 86.397 67.6466 86.3968C66.801 86.1935 66.5555 85.7985 66.0985 85.0782C65.9502 84.1883 66.0075 83.8154 66.4923 83.0512C67.036 82.5 67.036 82.5 67.6466 82.3532Z" fill="white"/>
<path d="M69.1251 93.1296C69.2834 93.1276 69.4417 93.1255 69.6048 93.1234C70.1256 93.1183 70.646 93.1217 71.1667 93.1256C71.5301 93.1248 71.8934 93.1237 72.2568 93.1222C73.0173 93.1205 73.7777 93.123 74.5382 93.1285C75.5116 93.1352 76.4846 93.1313 77.458 93.1243C78.208 93.1201 78.958 93.1214 79.708 93.1244C80.0668 93.1252 80.4256 93.1243 80.7844 93.1215C81.2866 93.1186 81.7882 93.1231 82.2904 93.1296C82.5757 93.1306 82.861 93.1315 83.155 93.1325C84.1272 93.3239 84.4772 93.6834 85.0828 94.4531C85.2292 95.2734 85.2292 95.2734 85.0828 96.0938C84.4772 96.8635 84.1272 97.223 83.155 97.4144C82.727 97.4158 82.727 97.4158 82.2904 97.4173C82.0529 97.4204 82.0529 97.4204 81.8107 97.4235C81.2899 97.4286 80.7696 97.4252 80.2488 97.4213C79.8854 97.4221 79.5221 97.4232 79.1587 97.4247C78.3982 97.4264 77.6379 97.4239 76.8773 97.4184C75.9039 97.4117 74.9309 97.4156 73.9575 97.4226C73.2075 97.4268 72.4576 97.4255 71.7076 97.4225C71.3487 97.4217 70.9899 97.4226 70.6311 97.4254C70.1289 97.4283 69.6273 97.4238 69.1251 97.4173C68.8398 97.4163 68.5545 97.4154 68.2605 97.4144C67.2883 97.223 66.9383 96.8635 66.3328 96.0938C66.1863 95.2734 66.1863 95.2734 66.3328 94.4531C67.1926 93.3601 67.7503 93.1341 69.1251 93.1296Z" fill="white"/>
<path d="M68.6764 63.3677C68.8397 63.3661 69.0029 63.3644 69.171 63.3626C69.7095 63.3587 70.2474 63.3632 70.7858 63.3682C71.1606 63.3681 71.5353 63.3675 71.9101 63.3665C72.6951 63.3659 73.4799 63.3693 74.2648 63.3757C75.2705 63.3837 76.276 63.3823 77.2817 63.3779C78.0554 63.3755 78.8291 63.3775 79.6028 63.3811C79.9736 63.3823 80.3444 63.3822 80.7152 63.3807C81.2337 63.3794 81.7517 63.3842 82.2702 63.3906C82.5651 63.3921 82.8599 63.3935 83.1637 63.395C84.04 63.5365 84.3173 63.7561 84.8483 64.4531C85.066 65.3306 84.9664 66.1089 84.5407 66.8994C83.7667 67.6161 82.9423 67.5319 81.9393 67.5378C81.788 67.5389 81.6366 67.5401 81.4806 67.5413C80.9802 67.5447 80.4799 67.5463 79.9795 67.5476C79.6313 67.549 79.283 67.5503 78.9348 67.5517C78.2046 67.5541 77.4745 67.5555 76.7443 67.5563C75.8098 67.5576 74.8755 67.5632 73.9411 67.5699C73.2216 67.5743 72.5022 67.5755 71.7828 67.5759C71.4384 67.5766 71.0939 67.5784 70.7495 67.5815C70.267 67.5855 69.7848 67.5851 69.3023 67.5836C69.0281 67.5844 68.7538 67.5853 68.4713 67.5862C67.6524 67.4898 67.2217 67.2906 66.5671 66.7969C66.0182 65.9736 65.982 65.6567 66.0983 64.6875C66.8072 63.5004 67.3228 63.3688 68.6764 63.3677Z" fill="white"/>
<path d="M68.6765 33.6021C68.8397 33.6004 69.0029 33.5988 69.1711 33.597C69.7095 33.5931 70.2475 33.5976 70.7859 33.6026C71.1606 33.6024 71.5354 33.6019 71.9101 33.6009C72.6951 33.6002 73.4799 33.6037 74.2649 33.6101C75.2706 33.6181 76.276 33.6167 77.2818 33.6123C78.0555 33.6098 78.8291 33.6119 79.6029 33.6154C79.9736 33.6167 80.3444 33.6165 80.7152 33.6151C81.2337 33.6138 81.7518 33.6186 82.2702 33.625C82.5651 33.6264 82.86 33.6279 83.1638 33.6294C84.0402 33.7709 84.3168 33.9908 84.8484 34.6875C84.9729 35.1563 84.9729 35.1563 84.9656 35.625C84.9692 35.8571 84.9692 35.8571 84.9729 36.0938C84.7879 36.7903 84.4731 37.0538 83.9109 37.5C83.1638 37.6206 83.1638 37.6206 82.2702 37.625C82.107 37.6271 81.9438 37.6291 81.7756 37.6312C81.2373 37.6365 80.6992 37.6349 80.1609 37.6328C79.7861 37.634 79.4114 37.6355 79.0366 37.6372C78.2517 37.6396 77.4668 37.6385 76.6819 37.6351C75.6761 37.6311 74.6707 37.6366 73.665 37.6448C72.8913 37.65 72.1176 37.6497 71.3439 37.6477C70.9731 37.6475 70.6023 37.6491 70.2315 37.6526C69.713 37.6567 69.195 37.6533 68.6765 37.6479C68.3816 37.6477 68.0868 37.6475 67.7829 37.6473C67.0359 37.5 67.0359 37.5 66.4719 36.9488C66.0118 36.1843 65.952 35.8002 66.0984 34.9219C66.8116 33.7369 67.3208 33.6031 68.6765 33.6021Z" fill="white"/>
</svg>
