<svg width="120" height="120" viewBox="0 0 120 120" fill="none" xmlns="http://www.w3.org/2000/svg">
<path d="M13.1388 7.43971C13.3034 7.43889 13.468 7.43807 13.6376 7.43722C14.1906 7.43504 14.7435 7.43619 15.2964 7.43733C15.6963 7.43645 16.0962 7.43538 16.4962 7.43411C17.5962 7.43124 18.6962 7.43131 19.7963 7.43186C20.9822 7.43195 22.1682 7.42937 23.3542 7.42714C25.6781 7.42325 28.002 7.42196 30.326 7.4217C32.2147 7.42148 34.1034 7.42052 35.9921 7.41903C41.3452 7.4149 46.6982 7.41274 52.0513 7.41309C52.4843 7.41312 52.4843 7.41312 52.9261 7.41315C53.2151 7.41317 53.5041 7.41319 53.8019 7.41321C58.4868 7.4134 63.1716 7.40891 67.8565 7.4023C72.6651 7.39557 77.4737 7.39233 82.2823 7.39274C84.9827 7.39289 87.6831 7.3916 90.3835 7.38656C92.6825 7.38229 94.9816 7.38127 97.2807 7.38445C98.4538 7.38599 99.6269 7.386 100.8 7.38194C101.874 7.37827 102.948 7.37892 104.022 7.38301C104.411 7.38374 104.799 7.38288 105.188 7.38027C107.419 7.36629 109.161 7.36034 110.916 8.89802C111.042 9.05059 111.169 9.20316 111.299 9.36036C111.429 9.51233 111.559 9.6643 111.693 9.82087C112.34 10.7608 112.559 11.595 112.56 12.7288C112.562 12.9765 112.563 13.2242 112.565 13.4795C112.564 13.7502 112.563 14.0209 112.563 14.2998C112.564 14.5885 112.565 14.8773 112.566 15.1747C112.568 15.9755 112.569 16.7762 112.568 17.577C112.568 18.4408 112.571 19.3047 112.573 20.1686C112.577 21.8609 112.578 23.5531 112.578 25.2454C112.579 26.621 112.58 27.9967 112.581 29.3723C112.585 33.2728 112.587 37.1732 112.587 41.0736C112.587 41.2839 112.587 41.4942 112.587 41.7108C112.587 41.9213 112.587 42.1319 112.587 42.3488C112.587 45.7605 112.591 49.1723 112.598 52.5841C112.604 56.0875 112.608 59.5909 112.607 63.0944C112.607 65.0612 112.608 67.028 112.614 68.9948C112.618 70.6694 112.619 72.344 112.616 74.0186C112.614 74.8728 112.614 75.727 112.618 76.5812C112.622 77.5078 112.62 78.4343 112.616 79.3609C112.618 79.6301 112.621 79.8992 112.623 80.1765C112.608 81.9974 112.335 83.2587 111.102 84.6661C110.949 84.7924 110.797 84.9187 110.64 85.0488C110.488 85.1787 110.336 85.3087 110.179 85.4425C109.094 86.1904 108.167 86.3088 106.861 86.3103C106.614 86.3115 106.614 86.3115 106.363 86.3128C105.81 86.315 105.257 86.3138 104.704 86.3127C104.304 86.3136 103.904 86.3146 103.504 86.3159C102.404 86.3188 101.304 86.3187 100.204 86.3182C99.0179 86.3181 97.8319 86.3206 96.646 86.3229C94.322 86.3268 91.9981 86.328 89.6741 86.3283C87.7854 86.3285 85.8967 86.3295 84.008 86.331C78.6549 86.3351 73.3019 86.3373 67.9488 86.3369C67.5158 86.3369 67.5158 86.3369 67.0741 86.3369C66.785 86.3368 66.496 86.3368 66.1982 86.3368C61.5133 86.3366 56.8285 86.3411 52.1436 86.3477C47.335 86.3544 42.5264 86.3577 37.7178 86.3573C35.0174 86.3571 32.317 86.3584 29.6167 86.3635C27.3176 86.3677 25.0185 86.3687 22.7195 86.3656C21.5463 86.364 20.3732 86.364 19.2 86.3681C18.126 86.3717 17.052 86.3711 15.9779 86.367C15.5895 86.3663 15.201 86.3671 14.8126 86.3697C12.5816 86.3837 10.8386 86.3897 9.08392 84.852C8.95763 84.6994 8.83135 84.5469 8.70123 84.3897C8.57132 84.2377 8.44141 84.0857 8.30756 83.9291C7.65991 82.9892 7.44152 82.1551 7.43976 81.0213C7.43825 80.7735 7.43674 80.5258 7.43518 80.2705C7.43591 79.9998 7.43664 79.7291 7.43738 79.4502C7.43632 79.1615 7.43526 78.8728 7.43416 78.5753C7.43171 77.7745 7.43136 76.9738 7.43191 76.173C7.43201 75.3092 7.42942 74.4453 7.4272 73.5814C7.4233 71.8892 7.42202 70.1969 7.42175 68.5046C7.42153 67.129 7.42057 65.7533 7.41908 64.3777C7.41495 60.4773 7.41279 56.5768 7.41314 52.6764C7.41316 52.4661 7.41318 52.2558 7.4132 52.0392C7.41322 51.8287 7.41324 51.6182 7.41326 51.4013C7.41345 47.9895 7.40896 44.5777 7.40235 41.1659C7.39562 37.6625 7.39238 34.1591 7.39279 30.6556C7.39294 28.6888 7.39166 26.722 7.38661 24.7552C7.38234 23.0806 7.38132 21.406 7.38451 19.7314C7.38604 18.8772 7.38606 18.023 7.382 17.1688C7.37763 16.2422 7.38055 15.3157 7.38417 14.3891C7.38176 14.12 7.37935 13.8508 7.37686 13.5735C7.39259 11.7526 7.66469 10.4913 8.89807 9.08387C9.05064 8.95758 9.20322 8.83129 9.36041 8.70118C9.51238 8.57127 9.66435 8.44135 9.82092 8.3075C10.9064 7.55958 11.8329 7.44118 13.1388 7.43971ZM15.0001 15C15.0001 33.5625 15.0001 52.125 15.0001 71.25C44.7001 71.25 74.4001 71.25 105 71.25C105 52.6875 105 34.125 105 15C75.3001 15 45.6001 15 15.0001 15Z" fill="white"/>
<path d="M64.7791 23.9502C65.1101 24.076 65.4413 24.2015 65.7725 24.3268C66.6555 24.6616 67.5374 24.9993 68.4191 25.3377C69.3311 25.6872 70.244 26.0343 71.157 26.3814C72.255 26.7992 73.3529 27.2172 74.4504 27.6365C76.6194 28.465 78.7912 29.2848 80.9674 30.0943C81.4611 30.2785 81.9548 30.4626 82.4485 30.6468C83.1278 30.9002 83.8073 31.1531 84.4874 31.4043C85.0982 31.6299 85.708 31.8579 86.3177 32.0865C86.4935 32.1507 86.6692 32.2149 86.8503 32.281C88.3492 32.8474 88.3492 32.8474 88.8281 33.5156C88.8574 33.9844 88.8574 33.9844 88.5938 34.4531C87.7744 34.878 87.1782 35.1563 86.25 35.1563C86.2546 36.6036 86.2667 38.0506 86.2858 39.4979C86.2912 39.99 86.2946 40.4822 86.2958 40.9744C86.298 41.6826 86.3076 42.3903 86.3187 43.0985C86.3173 43.4277 86.3173 43.4277 86.3159 43.7637C86.3397 44.8341 86.3528 45.3086 87.0514 46.1589C87.251 46.3179 87.4506 46.4768 87.6562 46.6406C88.2633 47.5512 88.1841 48.306 88.1708 49.3607C88.1701 49.5574 88.1694 49.754 88.1688 49.9567C88.1661 50.5848 88.1603 51.2128 88.1543 51.8408C88.1519 52.2667 88.1498 52.6926 88.1479 53.1184C88.1431 54.1624 88.1339 55.2061 88.125 56.25C85.65 56.25 83.175 56.25 80.625 56.25C80.598 55.0113 80.5747 53.7737 80.5606 52.535C80.5548 52.1142 80.5468 51.6934 80.5366 51.2727C80.5223 50.6658 80.5157 50.0592 80.5106 49.4522C80.5045 49.2659 80.4985 49.0795 80.4922 48.8875C80.4915 47.4696 80.8692 46.7759 81.7969 45.7031C81.9516 45.6258 82.1063 45.5484 82.2656 45.4688C82.343 42.607 82.4203 39.7453 82.5 36.7969C81.3979 37.2123 80.2957 37.6277 79.1602 38.0557C78.4488 38.3238 77.7374 38.5919 77.0261 38.86C75.9046 39.2826 74.7832 39.7053 73.6618 40.128C73.4814 40.196 73.301 40.264 73.1152 40.334C72.7529 40.4706 72.3907 40.6071 72.0285 40.7437C71.1347 41.0808 70.2407 41.4171 69.3461 41.7521C67.7653 42.3447 66.1878 42.9425 64.6198 43.5682C64.3634 43.669 64.1071 43.7698 63.843 43.8736C63.3802 44.0561 62.9187 44.2421 62.459 44.4324C59.8017 45.4711 57.7645 44.5321 55.2209 43.5498C54.8899 43.4241 54.5587 43.2985 54.2275 43.1732C53.3445 42.8384 52.4626 42.5007 51.5809 42.1623C50.6689 41.8128 49.756 41.4658 48.843 41.1186C47.745 40.7008 46.6471 40.2828 45.5496 39.8635C43.3806 39.035 41.2088 38.2152 39.0326 37.4057C38.5389 37.2216 38.0452 37.0374 37.5515 36.8532C36.8722 36.5998 36.1927 36.3469 35.5126 36.0958C34.9018 35.8701 34.292 35.6421 33.6823 35.4135C33.5065 35.3493 33.3308 35.2852 33.1497 35.219C31.5614 34.6189 31.5614 34.6189 31.1719 33.9844C31.2273 33.5176 31.2273 33.5176 31.4062 33.0469C32.0266 32.7254 32.6076 32.4782 33.2602 32.2385C33.4645 32.1601 33.6689 32.0818 33.8794 32.0011C34.616 31.7204 35.3548 31.4461 36.0938 31.1719C36.3867 31.0621 36.6797 30.9523 36.9726 30.8423C39.1874 30.0107 41.4056 29.1884 43.6247 28.3686C44.87 27.9085 46.1149 27.4477 47.3598 26.9866C48.0577 26.728 48.756 26.4703 49.4546 26.2132C51.1312 25.5949 52.801 24.9637 54.4612 24.3023C54.9235 24.12 55.386 23.9379 55.8484 23.7559C56.2733 23.5869 56.6962 23.4129 57.119 23.2388C60.0592 22.0811 61.9381 22.853 64.7791 23.9502Z" fill="white"/>
<path d="M48.75 91.875C56.175 91.875 63.6 91.875 71.25 91.875C71.25 96.2062 71.25 100.537 71.25 105C72.9516 105 74.6531 105 76.4062 105C78.2247 106.212 78.2247 106.212 78.75 107.344C78.9267 108.656 78.9312 109.766 78.3691 110.977C77.2656 112.138 76.6123 112.551 75.0009 112.619C74.4196 112.625 73.8382 112.625 73.2568 112.621C72.9356 112.623 72.6144 112.624 72.2932 112.626C71.4235 112.631 70.5539 112.629 69.6842 112.626C68.7727 112.624 67.8612 112.626 66.9498 112.627C65.4193 112.629 63.8889 112.627 62.3584 112.622C60.5906 112.617 58.8229 112.619 57.0551 112.624C55.5356 112.628 54.0161 112.629 52.4965 112.626C51.5897 112.625 50.683 112.625 49.7762 112.628C48.9235 112.63 48.071 112.629 47.2184 112.623C46.7574 112.621 46.2964 112.624 45.8354 112.627C43.3184 112.603 43.3184 112.603 42.1875 111.562C41.3371 110.667 41.1773 109.949 41.1328 108.75C41.1773 107.551 41.3371 106.833 42.1875 105.938C43.5938 105 43.5938 105 48.75 105C48.75 100.669 48.75 96.3375 48.75 91.875Z" fill="white"/>
<path d="M45 45.2344C50.2655 47.0773 50.2655 47.0773 52.2675 47.8802C52.7007 48.0494 53.134 48.2181 53.5675 48.3865C54.2267 48.6429 54.8847 48.9012 55.5405 49.166C56.1903 49.4275 56.843 49.68 57.4969 49.931C57.6906 50.0115 57.8842 50.092 58.0838 50.175C59.6381 50.7571 60.5962 50.5217 62.1094 49.9219C62.584 49.7517 63.0588 49.5816 63.5335 49.4118C64.0555 49.2178 64.5772 49.0232 65.0986 48.8278C65.5141 48.6732 65.5141 48.6732 65.9381 48.5155C66.6668 48.2444 67.3953 47.9727 68.1236 47.7006C69.1565 47.3149 70.1898 46.9299 71.2232 46.5453C71.7721 46.3409 72.3209 46.1362 72.8695 45.931C73.1153 45.8394 73.3612 45.7479 73.6144 45.6535C73.8317 45.5724 74.0489 45.4912 74.2727 45.4076C74.7656 45.2344 74.7656 45.2344 75 45.2344C75.0595 46.7105 75.1005 48.1862 75.1287 49.6632C75.1405 50.1653 75.1565 50.6673 75.1768 51.1691C75.3409 55.3276 75.3409 55.3276 74.5348 56.4003C73.9131 56.7816 73.3568 56.9912 72.6562 57.1875C72.3314 57.3376 72.0083 57.4917 71.6876 57.6508C71.3769 57.7822 71.0649 57.911 70.752 58.0371C70.584 58.1056 70.4161 58.174 70.2431 58.2446C64.6734 60.4422 58.0013 60.8781 52.2656 59.0625C52.0983 59.0123 51.9309 58.962 51.7585 58.9103C51.2414 58.7531 50.7279 58.5879 50.2148 58.418C50.0684 58.3703 49.9219 58.3227 49.771 58.2737C48.03 57.6505 46.6623 56.7312 45 55.7812C45 52.3008 45 48.8203 45 45.2344Z" fill="white"/>
</svg>
