<svg width="109" height="120" viewBox="0 0 109 120" fill="none" xmlns="http://www.w3.org/2000/svg">
<path d="M29.1302 112.014L29.135 112.009C32.7284 107.508 35.407 102.346 37.0191 96.8173L38.0839 93.1652L34.2798 93.1604C28.0647 93.1526 21.9914 91.3059 16.8266 87.8496C11.6612 84.3928 7.63473 79.4826 5.2549 73.7386C2.87516 67.9948 2.24929 61.674 3.45575 55.5742C4.66227 49.4743 7.64725 43.8667 12.0338 39.4628L12.0356 39.461L44.3278 6.98196C44.3287 6.98099 44.3297 6.98001 44.3307 6.97903C46.9726 4.33907 50.5537 2.85714 54.2884 2.85714C58.0207 2.85714 61.5999 4.33728 64.2413 6.97424C64.2438 6.97682 64.2464 6.97939 64.249 6.98196L96.5247 39.759L96.5339 39.7684L96.5433 39.7777C102.38 45.5964 105.677 53.4898 105.714 61.7338L105.714 61.7874L105.714 61.7975C105.729 65.9386 104.921 70.0424 103.337 73.8677C101.753 77.6927 99.425 81.1632 96.4877 84.0811C93.5508 86.9986 90.0633 89.3035 86.2288 90.861C82.3943 92.4184 78.2891 93.1976 74.1508 93.1538L70.3044 93.1132L71.3767 96.8073C72.9822 102.339 75.6588 107.503 79.255 112.003L79.2597 112.009L79.2644 112.015C79.6385 112.478 79.873 113.035 79.9424 113.624L82.7799 113.29L79.9424 113.624C80.0119 114.215 79.9127 114.814 79.657 115.35C79.4009 115.887 78.998 116.341 78.4962 116.657C77.9939 116.974 77.4133 117.142 76.8208 117.143C76.8205 117.143 76.8202 117.143 76.8198 117.143H31.5752C30.9943 117.142 30.4226 116.978 29.9248 116.669C29.4303 116.362 29.0284 115.921 28.7671 115.397C28.4977 114.857 28.389 114.252 28.4534 113.652C28.5178 113.053 28.7523 112.485 29.1302 112.014ZM31.5332 95.2178C31.468 95.4417 31.4007 95.6649 31.3314 95.8874L26.9023 110.226C29.6388 106.799 31.8082 102.961 33.3337 98.8617C33.6463 98.87 33.9593 98.8743 34.2726 98.8747L34.2762 96.0176L31.5332 95.2178Z" stroke="white" stroke-width="5.71429"/>
</svg>
