<svg width="120" height="120" viewBox="0 0 120 120" fill="none" xmlns="http://www.w3.org/2000/svg">
<g clip-path="url(#clip0_127_496)">
<path d="M16.0859 -0.031454C16.2397 -0.0320054 16.3935 -0.0325567 16.552 -0.0331247C17.0683 -0.0346868 17.5846 -0.0345854 18.1009 -0.0344892C18.4745 -0.0352627 18.8481 -0.0361359 19.2217 -0.0371005C20.2491 -0.0394468 21.2765 -0.0403197 22.3039 -0.0409417C23.4118 -0.0418572 24.5196 -0.0441021 25.6275 -0.0461479C28.3036 -0.0507786 30.9798 -0.0531394 33.6559 -0.0552247C34.9167 -0.0562523 36.1775 -0.0575101 37.4384 -0.0587377C41.6308 -0.0627251 45.8233 -0.0661219 50.0157 -0.0678194C51.1036 -0.0682671 52.1914 -0.0687171 53.2793 -0.0691755C53.6848 -0.0693456 53.6848 -0.0693456 54.0986 -0.0695191C58.4762 -0.0714635 62.8538 -0.0774002 67.2314 -0.0850147C71.7278 -0.092772 76.2241 -0.0969877 80.7205 -0.0977361C83.2442 -0.098243 85.7679 -0.100285 88.2916 -0.106282C90.4415 -0.111378 92.5913 -0.113252 94.7412 -0.110977C95.8372 -0.109914 96.9331 -0.110342 98.0291 -0.114905C99.0346 -0.119056 100.04 -0.11879 101.045 -0.115164C101.407 -0.11461 101.769 -0.115606 102.131 -0.118405C107.323 -0.15606 111.608 1.5385 115.354 5.18372C118.126 8.12273 120.025 12.0019 120.031 16.0858C120.032 16.2397 120.033 16.3935 120.033 16.552C120.035 17.0683 120.035 17.5846 120.035 18.1009C120.035 18.4745 120.036 18.8481 120.037 19.2217C120.039 20.2491 120.04 21.2765 120.041 22.3039C120.042 23.4117 120.044 24.5196 120.046 25.6275C120.051 28.3036 120.053 30.9797 120.055 33.6559C120.056 34.9167 120.058 36.1775 120.059 37.4383C120.063 41.6308 120.066 45.8232 120.068 50.0157C120.068 51.1035 120.069 52.1914 120.069 53.2792C120.069 53.5496 120.069 53.82 120.07 54.0985C120.071 58.4762 120.077 62.8538 120.085 67.2314C120.093 71.7277 120.097 76.2241 120.098 80.7205C120.098 83.2442 120.1 85.7679 120.106 88.2916C120.111 90.4415 120.113 92.5913 120.111 94.7412C120.11 95.8372 120.11 96.9331 120.115 98.0291C120.119 99.0346 120.119 100.04 120.115 101.045C120.115 101.407 120.116 101.769 120.118 102.13C120.155 107.196 118.475 111.554 114.95 115.212C111.204 118.897 106.582 120.113 101.457 120.091C101.084 120.092 100.711 120.093 100.337 120.095C99.3194 120.098 98.3016 120.097 97.2838 120.095C96.183 120.094 95.0822 120.097 93.9814 120.1C91.8279 120.104 89.6745 120.104 87.521 120.103C85.7699 120.102 84.0187 120.102 82.2676 120.103C82.018 120.103 81.7683 120.104 81.5111 120.104C81.0038 120.104 80.4966 120.104 79.9893 120.105C75.2374 120.108 70.4854 120.107 65.7334 120.104C61.3908 120.102 57.0481 120.105 52.7055 120.11C48.2409 120.116 43.7762 120.118 39.3116 120.117C36.8073 120.116 34.303 120.117 31.7987 120.121C29.6669 120.124 27.5351 120.124 25.4033 120.12C24.3168 120.118 23.2303 120.118 22.1438 120.121C21.1471 120.124 20.1504 120.123 19.1537 120.119C18.7952 120.118 18.4368 120.119 18.0783 120.121C15.0109 120.141 12.0957 119.661 9.34573 118.228C9.19178 118.148 9.03783 118.069 8.87921 117.987C4.79479 115.787 1.93423 112.105 0.518029 107.706C-0.042096 105.7 -0.0996826 103.767 -0.0908345 101.702C-0.0918142 101.327 -0.0930987 100.952 -0.0946593 100.577C-0.0980308 99.5531 -0.0970567 98.5294 -0.0953227 97.5057C-0.0942102 96.399 -0.0971496 95.2923 -0.0995463 94.1856C-0.103569 92.02 -0.103773 89.8544 -0.102543 87.6889C-0.101595 85.9279 -0.101936 84.167 -0.103187 82.406C-0.103362 82.155 -0.103537 81.904 -0.103718 81.6454C-0.104077 81.1355 -0.104438 80.6255 -0.1048 80.1156C-0.108015 75.3372 -0.106744 70.5589 -0.104054 65.7805C-0.101727 61.4136 -0.104758 57.0467 -0.110366 52.6798C-0.116088 48.1908 -0.118333 43.7018 -0.116775 39.2128C-0.115958 36.6946 -0.116475 34.1764 -0.120586 31.6583C-0.124042 29.5144 -0.124176 27.3707 -0.120099 25.2268C-0.118109 24.1341 -0.117591 23.0415 -0.12119 21.9488C-0.12445 20.9464 -0.1233 19.9442 -0.11879 18.9418C-0.117914 18.5813 -0.118579 18.2207 -0.121042 17.8602C-0.154178 12.6324 1.57215 8.3485 5.24417 4.58588C8.14722 1.82705 12.037 -0.0252572 16.0859 -0.031454ZM9.09671 10.0928C5.86475 13.8936 6.56253 17.7034 6.56253 22.7344C41.8313 22.7344 77.1 22.7344 113.438 22.7344C113.726 15.5998 113.726 15.5998 110.565 9.73847C107.304 6.64685 103.733 6.29173 99.4275 6.29679C99.0741 6.29635 98.7206 6.29581 98.3672 6.29518C97.3988 6.29375 96.4304 6.29378 95.4621 6.29405C94.4165 6.2941 93.371 6.29281 92.3255 6.2917C90.2781 6.28975 88.2308 6.28911 86.1834 6.28898C84.5189 6.28886 82.8543 6.28838 81.1898 6.28764C76.4682 6.28558 71.7466 6.28449 67.025 6.28467C66.7706 6.28468 66.5161 6.28469 66.254 6.2847C65.8719 6.28471 65.8719 6.28471 65.4821 6.28473C61.3541 6.28482 57.2261 6.28258 53.0981 6.27928C48.8573 6.27591 44.6166 6.27429 40.3758 6.27449C37.9958 6.27457 35.6158 6.27393 33.2358 6.2714C31.2094 6.26927 29.183 6.26876 27.1565 6.27035C26.1233 6.27112 25.09 6.27113 24.0568 6.2691C23.1095 6.26725 22.1623 6.26759 21.215 6.26963C20.8737 6.26999 20.5324 6.26957 20.1911 6.26826C15.9007 6.25287 12.1816 6.8906 9.09671 10.0928ZM6.56253 29.0625C6.54319 41.5003 6.52386 53.9382 6.50393 66.7529C6.4954 70.6817 6.48686 74.6105 6.47807 78.6583C6.47494 82.1768 6.47494 82.1769 6.47305 85.6954C6.47218 87.2639 6.46874 88.8323 6.46355 90.4008C6.45758 92.2103 6.45487 94.0198 6.45617 95.8293C6.45674 96.7546 6.45585 97.6799 6.45076 98.6053C6.44618 99.4432 6.44599 100.281 6.44918 101.119C6.44977 101.563 6.44574 102.007 6.44151 102.451C6.46269 105.502 7.53117 108.111 9.56454 110.399C11.5482 112.275 14.2849 113.498 17.0185 113.494C17.4715 113.495 17.4715 113.495 17.9337 113.496C18.2642 113.494 18.5948 113.492 18.9253 113.491C19.2765 113.491 19.6277 113.491 19.979 113.491C20.9289 113.491 21.8789 113.488 22.8289 113.485C23.8229 113.482 24.817 113.482 25.8111 113.481C27.692 113.48 29.5728 113.476 31.4537 113.471C33.5957 113.466 35.7376 113.463 37.8796 113.461C42.2843 113.456 46.689 113.448 51.0938 113.438C50.8751 113.142 50.6558 112.846 50.4363 112.551C50.3142 112.386 50.1922 112.221 50.0664 112.052C49.4931 111.311 48.8553 110.641 48.208 109.966C47.3012 109.006 46.4244 108.04 45.6006 107.007C44.745 105.937 43.8313 104.94 42.8907 103.945C41.7682 102.759 40.7106 101.547 39.6909 100.27C38.7721 99.1666 37.781 98.1305 36.7987 97.0834C36.1316 96.3717 35.4848 95.645 34.8477 94.9063C34.1898 94.1507 33.5132 93.4118 32.8391 92.6706C31.4282 91.072 31.0856 90.1352 31.1069 88.0051C31.301 85.5637 32.5137 83.6499 34.2481 81.9873C36.237 80.3839 38.6738 79.7923 41.1823 79.9658C45.0606 80.4992 47.2224 82.9204 49.787 85.6507C50.0975 86.0431 50.0975 86.0431 50.3907 86.0156C50.3935 85.6314 50.3935 85.6314 50.3964 85.2395C50.4146 82.8189 50.4352 80.3984 50.458 77.9779C50.4697 76.7337 50.4806 75.4894 50.4895 74.2451C50.4982 73.0431 50.5091 71.841 50.5215 70.639C50.5258 70.1817 50.5293 69.7244 50.5321 69.2671C50.5361 68.6238 50.5429 67.9805 50.5503 67.3372C50.5511 67.0572 50.5511 67.0572 50.5518 66.7716C50.5929 63.964 51.3087 61.2225 53.2325 59.0918C55.5976 56.933 58.3323 56.5442 61.3862 56.6778C63.6155 56.8646 65.5492 58.1003 66.9727 59.7812C68.8175 62.3593 69.0475 64.9644 69.0491 68.0301C69.0526 68.4153 69.0565 68.8004 69.0608 69.1856C69.071 70.1908 69.0758 71.196 69.0793 72.2013C69.0839 73.2305 69.0937 74.2597 69.1031 75.2888C69.1207 77.3019 69.1325 79.315 69.1407 81.3281C69.2812 81.3495 69.4218 81.3709 69.5666 81.393C71.0425 81.6183 72.5179 81.847 73.993 82.0777C74.542 82.1631 75.0911 82.2477 75.6404 82.3313C76.4344 82.4524 77.2279 82.5766 78.0213 82.7014C78.384 82.7557 78.384 82.7557 78.754 82.811C81.1648 83.1964 83.3646 83.7889 85.3501 85.2493C85.8001 85.5894 85.8001 85.5894 86.4844 85.7812C86.6494 86.0892 86.804 86.4028 86.9532 86.7188C87.0933 86.8831 87.2335 87.0475 87.378 87.2168C89.1928 89.6021 89.7779 92.2034 89.5313 95.1562C88.8156 98.7386 87.6692 102.261 86.6824 105.778C86.3136 107.092 85.9454 108.407 85.5777 109.721C85.4497 110.179 85.3213 110.636 85.1928 111.093C85.1161 111.367 85.0393 111.641 84.9603 111.924C84.8923 112.166 84.8244 112.408 84.7544 112.657C84.5994 113.147 84.5994 113.147 84.6094 113.438C87.1583 113.459 89.7072 113.476 92.2561 113.486C93.44 113.491 94.6238 113.498 95.8076 113.508C96.9519 113.518 98.0961 113.524 99.2405 113.526C99.6752 113.528 100.11 113.532 100.544 113.537C104.343 113.579 107.421 113.037 110.39 110.452C112.138 108.634 113.467 106.003 113.466 103.468C113.467 103.202 113.467 102.937 113.468 102.663C113.467 102.371 113.466 102.079 113.466 101.779C113.466 101.47 113.466 101.161 113.466 100.842C113.467 99.9813 113.466 99.1207 113.465 98.26C113.464 97.3185 113.464 96.3771 113.464 95.4357C113.464 93.6073 113.463 91.7789 113.462 89.9505C113.46 87.8361 113.46 85.7216 113.46 83.6072C113.458 78.0233 113.455 72.4394 113.452 66.8555C113.447 54.3838 113.443 41.9121 113.438 29.0625C78.1688 29.0625 42.9 29.0625 6.56253 29.0625ZM57.4219 64.2188C57.0112 65.0554 56.8945 65.7249 56.8942 66.6521C56.8929 66.9021 56.8917 67.1522 56.8904 67.4098C56.8913 67.6817 56.8923 67.9536 56.8933 68.2337C56.8925 68.522 56.8916 68.8102 56.8907 69.1072C56.8891 69.7328 56.8883 70.3584 56.8888 70.984C56.8895 71.974 56.8861 72.9639 56.8821 73.9538C56.871 76.7683 56.8654 79.5828 56.8639 82.3973C56.863 83.9528 56.8588 85.5082 56.851 87.0637C56.8462 88.0471 56.8457 89.0303 56.8482 90.0137C56.849 90.7701 56.8437 91.5265 56.8393 92.2828C56.8422 92.69 56.8422 92.69 56.8451 93.1053C56.8301 94.5595 56.7721 95.4636 55.7813 96.5625C55.1163 97.02 54.5309 97.1179 53.7305 97.1484C53.5432 97.1605 53.3559 97.1726 53.1629 97.1851C51.2951 96.7517 49.8238 94.8777 48.5349 93.5559C48.1405 93.1567 47.746 92.7575 47.3516 92.3584C46.7369 91.7335 46.1228 91.1081 45.5093 90.482C44.9129 89.8743 44.3144 89.2687 43.7155 88.6633C43.5327 88.4753 43.3498 88.2874 43.1614 88.0937C42.9892 87.92 42.817 87.7462 42.6396 87.5672C42.4897 87.4143 42.3397 87.2613 42.1852 87.1038C41.4467 86.4941 40.8147 86.2443 39.8584 86.2646C38.9214 86.5515 38.4494 86.9923 37.7344 87.6562C37.8577 88.6333 38.3918 89.1254 39.0528 89.8242C39.269 90.0557 39.485 90.2874 39.701 90.5191C40.0037 90.8422 40.0037 90.8422 40.3125 91.1719C41.0852 92.0335 41.8386 92.9116 42.5885 93.793C43.9529 95.3951 45.3393 96.9693 46.7679 98.5144C47.3833 99.1836 47.9828 99.8643 48.5779 100.551C49.0483 101.089 49.5291 101.616 50.0098 102.144C50.7255 102.935 51.4088 103.742 52.0752 104.575C53.0836 105.824 54.1701 106.984 55.2724 108.148C56.2738 109.212 57.209 110.303 58.1104 111.454C58.2699 111.644 58.4294 111.835 58.5938 112.031C58.69 112.15 58.7863 112.268 58.8855 112.39C59.5317 113.117 59.8635 113.41 60.8454 113.607C61.1618 113.611 61.4785 113.607 61.7948 113.597C61.9687 113.597 62.1427 113.598 62.3219 113.598C62.8928 113.597 63.4631 113.586 64.0338 113.575C64.4312 113.572 64.8285 113.57 65.2259 113.569C66.2687 113.563 67.3111 113.55 68.3538 113.534C69.419 113.52 70.4842 113.513 71.5494 113.506C73.6372 113.491 75.7249 113.467 77.8125 113.438C78.986 109.647 80.1018 105.842 81.1791 102.023C81.3917 101.271 81.6061 100.52 81.8213 99.7685C82.0296 99.0397 82.2348 98.3101 82.4405 97.5806C82.5174 97.3137 82.5943 97.0469 82.6735 96.772C83.2374 94.7522 83.5376 93.3383 82.5 91.4062C81.295 89.9733 79.9963 89.483 78.1778 89.1962C78.0108 89.1691 77.8438 89.1421 77.6717 89.1142C77.3137 89.0565 76.9555 88.9999 76.5972 88.9441C76.0341 88.8565 75.4714 88.7659 74.9089 88.6745C74.1416 88.55 73.3742 88.4265 72.6066 88.3041C71.244 88.0868 69.8815 87.8692 68.5204 87.6429C67.9405 87.5464 67.3601 87.4521 66.7794 87.3602C66.5196 87.3168 66.2598 87.2734 65.9922 87.2287C65.7672 87.1922 65.5423 87.1558 65.3106 87.1182C64.5774 86.9239 64.1115 86.7248 63.5157 86.25C62.8631 85.0073 62.7118 84.0277 62.7261 82.6382C62.7247 82.3532 62.7247 82.3532 62.7234 82.0624C62.7219 81.6526 62.722 81.2427 62.7234 80.8329C62.7256 80.1835 62.7232 79.5343 62.7195 78.8849C62.7102 77.0397 62.7099 75.1945 62.7104 73.3492C62.7104 72.2182 62.7059 71.0873 62.6988 69.9562C62.6963 69.3177 62.6991 68.6793 62.7021 68.0408C62.7 67.6481 62.6976 67.2554 62.6949 66.8627C62.6972 66.6863 62.6995 66.5098 62.7019 66.328C62.6855 65.1249 62.3934 64.4459 61.6407 63.5156C60.9456 62.9695 60.1783 62.9343 59.3042 62.9572C58.424 63.1231 58.0288 63.5685 57.4219 64.2188Z" fill="white"/>
<path d="M60.8817 11.2171C61.0689 11.2164 61.2561 11.2157 61.449 11.215C62.0783 11.213 62.7077 11.2126 63.3371 11.2123C63.7875 11.2112 64.2379 11.21 64.6883 11.2088C65.9134 11.2057 67.1386 11.2042 68.3637 11.2031C69.1289 11.2025 69.894 11.2015 70.6592 11.2004C73.0524 11.1972 75.4456 11.195 77.8388 11.1941C80.6029 11.193 83.3669 11.1889 86.131 11.1821C88.2666 11.177 90.4021 11.1747 92.5377 11.1744C93.8137 11.1741 95.0896 11.1727 96.3655 11.1686C97.5657 11.1647 98.7659 11.1642 99.9661 11.1662C100.407 11.1664 100.847 11.1654 101.288 11.1631C101.889 11.1601 102.49 11.1615 103.092 11.1639C103.266 11.162 103.44 11.1601 103.62 11.1582C104.722 11.1687 105.47 11.3725 106.406 11.9532C107.171 12.7784 107.411 13.4307 107.461 14.5313C107.411 15.6319 107.171 16.2842 106.406 17.1094C105.304 17.7921 104.364 17.9137 103.097 17.9034C102.909 17.9047 102.721 17.9059 102.527 17.9072C101.9 17.9106 101.273 17.9089 100.646 17.9073C100.195 17.9086 99.7449 17.9102 99.2944 17.9121C98.0721 17.9163 96.85 17.9161 95.6277 17.9147C94.6073 17.914 93.5868 17.9154 92.5663 17.9168C90.1591 17.9201 87.7519 17.9198 85.3447 17.9171C82.8612 17.9144 80.3777 17.9177 77.8942 17.924C75.7616 17.9292 73.6291 17.9307 71.4965 17.9294C70.2229 17.9286 68.9493 17.9291 67.6758 17.9332C66.4784 17.9368 65.2811 17.9359 64.0838 17.9315C63.6444 17.9306 63.2051 17.9313 62.7658 17.9338C62.1658 17.9369 61.5662 17.9342 60.9662 17.93C60.7926 17.9323 60.6189 17.9345 60.4399 17.9368C59.2468 17.9199 58.5774 17.6216 57.6564 16.8751C56.8609 15.954 56.5647 15.2472 56.6264 14.0525C56.8344 13.021 57.5601 12.1448 58.3595 11.4844C59.2123 11.2002 59.9939 11.2161 60.8817 11.2171Z" fill="white"/>
<path d="M36.0938 45.9375C37.8395 46.9192 39.2577 48.5454 40.6622 49.9503C41.0742 50.3612 41.4897 50.7682 41.9055 51.1752C42.1719 51.4402 42.438 51.7053 42.7039 51.9708C42.8264 52.09 42.949 52.2092 43.0753 52.332C44.0588 53.3277 44.8878 54.4932 45.0815 55.9075C44.9015 57.2239 44.5857 57.9243 43.5938 58.8281C42.6671 59.3017 41.8219 59.4047 40.7883 59.2271C38.794 58.5371 36.9796 56.0076 35.5051 54.5329C35.0503 54.0786 34.5936 53.6262 34.1368 53.1738C33.8469 52.8846 33.5572 52.5953 33.2675 52.3059C33.1311 52.1711 32.9946 52.0363 32.854 51.8975C31.963 51.0013 31.6086 50.4027 31.5674 49.1455C31.5815 48.0631 31.8505 47.4665 32.5781 46.6406C33.5601 45.7741 34.8464 45.6287 36.0938 45.9375Z" fill="white"/>
<path d="M86.2499 45.9375C87.2826 46.4445 87.929 46.9714 88.3592 48.0469C88.5352 49.3884 88.4243 50.198 87.6561 51.3281C87.1256 51.9305 86.5627 52.4983 85.9963 53.0667C85.8341 53.2304 85.672 53.3941 85.5049 53.5628C85.1626 53.9075 84.8196 54.2516 84.476 54.5951C83.9518 55.1203 83.4316 55.6491 82.9114 56.1781C82.5776 56.5133 82.2436 56.8482 81.9093 57.1829C81.7548 57.3409 81.6002 57.4988 81.4409 57.6616C80.4696 58.6234 79.6674 59.2311 78.2518 59.3326C76.9844 59.1874 76.3531 58.8172 75.4686 57.8906C74.9088 57.0145 74.9242 56.1773 75.0856 55.176C75.6194 53.1412 77.8367 51.4666 79.2857 50.028C79.7035 49.6127 80.1187 49.195 80.5338 48.777C80.8011 48.51 81.0686 48.2431 81.3362 47.9764C81.4591 47.8526 81.5819 47.7288 81.7084 47.6013C83.1521 46.1758 84.2343 45.6468 86.2499 45.9375Z" fill="white"/>
<path d="M87.4721 70.914C87.7272 70.9128 87.9823 70.9115 88.2451 70.9103C88.7839 70.9088 89.3227 70.9091 89.8615 70.9111C90.6846 70.9131 91.5073 70.9063 92.3303 70.8989C92.8544 70.8985 93.3786 70.8986 93.9027 70.8993C94.2708 70.8954 94.2708 70.8954 94.6464 70.8914C96.3505 70.9076 97.1596 71.172 98.3934 72.3633C98.9963 73.5056 99.0023 74.4449 98.6424 75.6445C98.0464 76.6777 97.4581 77.2014 96.328 77.5781C95.9664 77.603 95.6039 77.6153 95.2414 77.6196C94.9116 77.6241 94.9116 77.6241 94.5751 77.6287C94.2192 77.6313 94.2192 77.6313 93.856 77.634C93.4888 77.6368 93.4888 77.6368 93.1141 77.6397C92.5956 77.6429 92.0771 77.6454 91.5585 77.6473C90.7679 77.6513 89.9774 77.6616 89.1868 77.6719C88.6827 77.6743 88.1785 77.6763 87.6744 77.6779C87.439 77.682 87.2036 77.6861 86.961 77.6903C85.4981 77.6858 84.6325 77.5001 83.4373 76.6406C82.632 75.7573 82.6142 74.8455 82.6518 73.6963C82.805 72.6341 83.3258 72.0094 84.1272 71.336C85.2237 70.8456 86.284 70.9107 87.4721 70.914Z" fill="white"/>
<path d="M62.1974 36.1523C63.0722 37.0687 63.3388 37.8575 63.3458 39.1121C63.3491 39.4431 63.3491 39.4431 63.3526 39.7806C63.3523 40.0163 63.3521 40.2519 63.3519 40.4946C63.3529 40.7394 63.3539 40.9841 63.355 41.2362C63.3563 41.7529 63.3564 42.2697 63.3554 42.7864C63.3547 43.5754 63.3602 44.3643 63.3661 45.1533C63.3666 45.6561 63.3668 46.1589 63.3666 46.6616C63.3687 46.8968 63.3709 47.1319 63.3731 47.3742C63.3648 48.6338 63.297 49.5423 62.5783 50.625C61.7531 51.3898 61.1008 51.63 60.0002 51.6796C58.8995 51.63 58.2473 51.3898 57.422 50.625C56.5731 49.3433 56.6165 48.1534 56.6255 46.6699C56.6249 46.4255 56.6242 46.1811 56.6235 45.9293C56.623 45.414 56.6243 44.8987 56.6272 44.3834C56.631 43.5964 56.6273 42.8096 56.6228 42.0227C56.6232 41.521 56.6241 41.0192 56.6255 40.5175C56.6241 40.2831 56.6227 40.0487 56.6212 39.8072C56.6338 38.5503 56.7079 37.644 57.422 36.5625C58.8113 35.2445 60.6065 34.9123 62.1974 36.1523Z" fill="white"/>
<path d="M24.5225 70.9778C24.7479 70.9756 24.9732 70.9733 25.2054 70.971C25.4498 70.97 25.6942 70.969 25.946 70.968C26.3223 70.966 26.3223 70.966 26.7063 70.9639C27.2383 70.9617 27.7702 70.9602 28.3022 70.9593C29.1144 70.957 29.9265 70.9498 30.7387 70.9424C31.2554 70.9408 31.7721 70.9396 32.2887 70.9387C32.6524 70.9344 32.6524 70.9344 33.0235 70.9299C34.301 70.9339 35.2321 70.9842 36.328 71.7187C37.0929 72.544 37.3331 73.1962 37.3827 74.2969C37.3331 75.3975 37.0929 76.0498 36.328 76.875C35.0464 77.7239 33.8565 77.6805 32.373 77.6715C32.1286 77.6722 31.8842 77.6728 31.6324 77.6735C31.1171 77.674 30.6018 77.6727 30.0864 77.6698C29.2994 77.666 28.5127 77.6697 27.7257 77.6742C27.224 77.6738 26.7223 77.6729 26.2206 77.6715C25.869 77.6736 25.869 77.6736 25.5103 77.6758C23.9513 77.6601 22.8826 77.4753 21.7235 76.3476C21.0728 75.2872 21.0371 74.4273 21.2255 73.2129C21.8437 71.7615 22.9467 70.9905 24.5225 70.9778Z" fill="white"/>
<path d="M30.4686 12.1875C31.2596 12.8332 31.5569 13.1683 31.7512 14.1577C31.8092 15.1439 31.7604 15.9409 31.1717 16.7578C30.3276 17.4612 29.6868 17.7481 28.5936 17.8125C27.5815 17.6607 27.1124 17.5074 26.3963 16.7725C25.7639 15.7753 25.6822 14.9952 25.7811 13.8281C26.225 12.9048 26.5971 12.4981 27.4657 11.9531C28.6042 11.6545 29.3912 11.7183 30.4686 12.1875Z" fill="white"/>
<path d="M19.4239 12.3633C20.0996 13.0788 20.3755 13.5702 20.4063 14.5652C20.3527 15.5439 20.2396 16.0601 19.6437 16.8604C18.8112 17.4709 18.1712 17.8487 17.1131 17.7842C16.095 17.5985 15.359 17.2559 14.7309 16.3843C14.3214 15.4675 14.3341 14.5659 14.5313 13.5938C14.9306 12.7986 15.4889 12.3207 16.2452 11.8506C17.4318 11.6023 18.3865 11.7319 19.4239 12.3633Z" fill="white"/>
<path d="M41.4845 11.9531C42.2518 12.5702 42.7536 13.1547 43.1251 14.0624C43.2022 15.1682 43.042 15.9687 42.378 16.8603C41.5456 17.4708 40.9056 17.8486 39.8475 17.7841C38.8293 17.5984 38.0934 17.2558 37.4653 16.3842C37.0557 15.4674 37.0685 14.5658 37.2657 13.5937C37.665 12.7985 38.2233 12.3206 38.9796 11.8505C39.8636 11.6655 40.6196 11.6799 41.4845 11.9531Z" fill="white"/>
</g>
<defs>
<clipPath id="clip0_127_496">
<rect width="120" height="120" fill="white"/>
</clipPath>
</defs>
</svg>
