<svg width="120" height="120" viewBox="0 0 120 120" fill="none" xmlns="http://www.w3.org/2000/svg">
<g clip-path="url(#clip0_127_528)">
<path d="M59.7804 -0.0732607C60.0131 -0.0727555 60.2457 -0.0722504 60.4854 -0.07173C74.5059 -0.0229047 74.5059 -0.0229047 78.741 3.15764C79.592 4.11442 79.9222 4.92667 79.977 6.21183C79.8558 7.50265 79.3051 8.37419 78.3693 9.24315C77.0649 10.1013 75.762 10.0429 74.242 9.73902C73.6433 9.59958 73.0472 9.45249 72.4513 9.30174C58.7879 5.86579 44.571 8.37856 32.5201 15.5478C29.2229 17.5886 26.2368 20.061 23.4376 22.7344C23.2207 22.9389 23.0038 23.1434 22.7803 23.3542C21.1026 24.9772 19.6771 26.7278 18.2814 28.5937C18.1814 28.7251 18.0814 28.8565 17.9784 28.9919C16.2781 31.2316 14.8877 33.5994 13.5939 36.0937C13.5023 36.2692 13.4107 36.4447 13.3164 36.6255C9.59857 43.8412 7.86221 51.7533 7.88101 59.8388C7.88132 60.1635 7.88132 60.1635 7.88163 60.4946C7.92467 74.2901 13.4736 86.8979 22.9689 96.7969C23.1523 96.9899 23.3357 97.183 23.5246 97.3819C27.1276 101.088 31.5096 104.058 36.0939 106.406C36.268 106.497 36.4422 106.587 36.6216 106.681C48.8229 112.97 63.1899 113.798 76.1999 109.675C84.049 107.091 90.8633 102.723 96.797 97.0312C96.9901 96.8478 97.1831 96.6645 97.382 96.4755C98.708 95.1863 99.8812 93.803 101.016 92.3437C101.115 92.2163 101.215 92.0889 101.318 91.9576C108.432 82.7997 112.143 71.5876 112.119 60.0293C112.119 59.8197 112.119 59.6101 112.119 59.3942C112.111 54.7883 111.518 50.4735 110.336 46.0208C109.996 44.5305 109.876 43.2494 110.537 41.8506C111.597 40.7067 112.535 40.1585 114.086 40.057C115.301 40.1059 116.15 40.603 116.956 41.4743C117.823 42.5198 118.096 43.6207 118.389 44.9267C118.475 45.2983 118.475 45.2983 118.562 45.6774C118.738 46.4656 118.902 47.2553 119.063 48.0469C119.113 48.2876 119.163 48.5284 119.215 48.7764C120.611 55.7421 120.724 63.8126 119.297 70.7812C119.252 71.0148 119.206 71.2484 119.16 71.4891C117.257 81.1192 113.186 89.8132 107.11 97.5C106.919 97.7432 106.729 97.9864 106.533 98.237C103.564 101.884 100.154 105.305 96.3283 108.047C96.013 108.279 95.6977 108.511 95.3825 108.743C88.045 114.086 79.7111 117.653 70.7814 119.297C70.5937 119.335 70.4061 119.372 70.2127 119.411C63.6345 120.698 55.781 120.644 49.2189 119.297C48.9816 119.25 48.7443 119.204 48.4998 119.156C38.8687 117.23 30.2119 113.142 22.5001 107.109C22.3738 107.011 22.2474 106.913 22.1172 106.812C18.4482 103.928 14.9727 100.5 12.2367 96.7157C11.9406 96.3108 11.6346 95.9152 11.3261 95.5197C9.48055 93.1252 7.98351 90.5553 6.56265 87.8906C6.40715 87.5998 6.40715 87.5998 6.24851 87.3032C3.54928 82.1696 1.75138 76.4764 0.703274 70.7812C0.646739 70.4997 0.646739 70.4997 0.589061 70.2126C-0.698159 63.6318 -0.640625 55.7836 0.703274 49.2187C0.771251 48.8684 0.771251 48.8684 0.840603 48.5109C2.62857 39.4621 6.31126 30.9887 11.9533 23.6719C12.104 23.4761 12.2548 23.2803 12.4101 23.0786C15.7155 18.8706 19.5484 14.8421 23.9064 11.7187C24.0334 11.6269 24.1603 11.535 24.2911 11.4404C29.2178 7.88924 34.5531 4.98929 40.3126 3.04686C40.5992 2.95004 40.5992 2.95004 40.8915 2.85128C43.1815 2.09235 45.4975 1.49884 47.8566 0.996075C48.0733 0.949492 48.29 0.902908 48.5133 0.854912C52.2673 0.0922228 55.9597 -0.088197 59.7804 -0.0732607Z" fill="white"/>
<path d="M72.7297 20.8448C73.5787 21.7177 73.7969 22.4153 73.9162 23.628C73.8829 24.7296 73.5269 25.5907 72.8908 26.4844C71.8096 27.4651 70.7865 27.6274 69.3752 27.6563C68.5751 27.565 67.8009 27.398 67.0168 27.2168C58.5025 25.3363 49.5024 26.8946 42.109 31.5436C37.3388 34.6358 33.4723 38.6178 30.7033 43.5938C30.6249 43.7341 30.5464 43.8744 30.4655 44.0189C26.2728 51.6189 25.3448 60.7292 27.6566 69.0703C29.0896 73.9464 31.327 78.199 34.6877 82.0313C34.8506 82.2252 35.0134 82.4192 35.1812 82.619C40.6964 89.0284 49.0649 92.8249 57.4221 93.5157C67.1897 94.0176 76.0891 90.7552 83.3252 84.2292C89.607 78.3806 93.2209 69.8159 93.5827 61.2992C93.6629 58.0132 93.3014 54.8118 92.5536 51.6129C92.2678 50.3475 92.2395 49.2411 92.799 48.0432C93.469 46.9907 94.1734 46.5227 95.3908 46.1719C96.6429 45.9996 97.6118 46.1682 98.6721 46.875C101.126 48.9786 101.244 53.9357 101.485 56.9532C102.117 68.5669 98.3819 79.4211 90.6548 88.1076C90.4371 88.3483 90.219 88.5885 90.0002 88.8282C89.8253 89.02 89.6504 89.2119 89.4701 89.4095C82.4974 96.6916 72.1655 101.117 62.1456 101.511C50.3497 101.743 39.9161 97.9814 31.1721 90C30.9802 89.8251 30.7884 89.6502 30.5907 89.4699C23.1814 82.3753 18.7377 71.8563 18.4682 61.6663C18.3251 50.0343 22.1478 39.7746 30.0002 31.1719C30.1751 30.9801 30.3501 30.7882 30.5303 30.5905C38.8836 21.8666 61.5895 11.978 72.7297 20.8448Z" fill="white"/>
<path d="M99.6095 1.59293e-05C100.778 0.54265 101.318 1.23949 101.953 2.34377C102.082 2.95231 102.159 3.48707 102.202 4.10158C102.218 4.28229 102.234 4.46299 102.251 4.64918C102.288 5.08789 102.324 5.5268 102.358 5.96582C102.421 6.78872 102.489 7.61122 102.557 8.43375C102.705 10.2212 102.849 12.0089 102.988 13.797C103.002 13.9717 103.016 14.1463 103.03 14.3263C103.095 15.1779 103.141 16.0208 103.125 16.875C103.306 16.8868 103.487 16.8985 103.674 16.9106C105.675 17.0409 107.676 17.1746 109.677 17.3111C110.137 17.3424 110.597 17.3734 111.057 17.4044C111.88 17.4605 112.703 17.5189 113.526 17.5781C113.773 17.5947 114.02 17.6113 114.275 17.6284C116.345 17.7817 118.017 17.9383 119.531 19.4531C120.019 20.2221 120.077 20.8644 120.088 21.7676C120.095 22.0039 120.101 22.2401 120.108 22.4835C119.885 23.9731 118.743 24.9991 117.713 26.0273C117.58 26.1612 117.448 26.2952 117.312 26.4332C116.877 26.8723 116.441 27.3097 116.004 27.7469C115.699 28.0532 115.394 28.3595 115.09 28.6659C114.452 29.3064 113.813 29.9459 113.174 30.5849C112.357 31.4021 111.543 32.2225 110.73 33.0437C110.102 33.6769 109.472 34.3079 108.841 34.9384C108.54 35.2399 108.24 35.5422 107.94 35.8452C107.521 36.2693 107.098 36.6903 106.675 37.1106C106.553 37.2352 106.431 37.3598 106.306 37.4881C104.966 38.8054 103.579 39.2251 101.748 39.3851C101.483 39.4116 101.483 39.4116 101.213 39.4386C100.634 39.4958 100.055 39.5494 99.4758 39.603C99.0711 39.6426 98.6664 39.6825 98.2617 39.7227C97.1997 39.8276 96.1374 39.9297 95.075 40.0308C93.3731 40.1929 91.6715 40.3577 89.9701 40.5257C89.3771 40.5836 88.7839 40.6392 88.1906 40.6947C87.8263 40.7302 87.462 40.7658 87.0978 40.8015C86.9336 40.8162 86.7695 40.831 86.6004 40.8461C85.1423 40.9929 84.2145 41.321 83.1786 42.3651C82.995 42.5485 82.8113 42.7318 82.6221 42.9208C82.424 43.1222 82.2258 43.3236 82.0217 43.5311C81.8104 43.743 81.5992 43.9549 81.3815 44.1732C80.9229 44.6332 80.4654 45.0943 80.0088 45.5563C79.2867 46.2869 78.562 47.0148 77.8369 47.7425C76.4292 49.1558 75.0242 50.5718 73.6194 51.988C71.8307 53.791 70.0407 55.5926 68.2485 57.3921C67.5281 58.1157 66.8089 58.8405 66.0907 59.5662C65.7514 59.9087 65.4116 60.2507 65.0715 60.5924C64.657 61.009 64.2434 61.4265 63.8308 61.8449C63.5563 62.1199 63.5563 62.1199 63.2762 62.4006C63.1179 62.5603 62.9595 62.7199 62.7964 62.8845C61.6954 63.8499 60.6983 63.8509 59.2769 63.8233C58.0343 63.69 57.4596 63.0988 56.631 62.2266C56.0806 61.0412 56.0226 59.8789 56.2501 58.5938C57.0254 57.2146 58.1373 56.1944 59.266 55.1006C59.7005 54.6753 60.1349 54.2501 60.5694 53.8248C60.8015 53.5985 61.0336 53.3721 61.2657 53.1458C61.9869 52.4422 62.705 51.7355 63.4224 51.028C63.5439 50.9083 63.6653 50.7885 63.7905 50.6652C64.0388 50.4204 64.287 50.1755 64.5353 49.9307C66.2039 48.2854 67.8745 46.6422 69.5538 45.0078C70.6889 43.903 71.8188 42.7933 72.9431 41.6776C73.5371 41.0886 74.1333 40.5024 74.7359 39.9222C75.4092 39.274 76.071 38.6149 76.7324 37.9546C76.9309 37.767 77.1294 37.5793 77.3338 37.386C78.8505 35.8426 79.0921 34.4652 79.2189 32.3438C79.255 32.014 79.2926 31.6844 79.3328 31.3552C79.3588 31.0843 79.3848 30.8134 79.4115 30.5343C79.434 30.3043 79.434 30.3043 79.4568 30.0698C79.4884 29.745 79.5198 29.4202 79.5508 29.0954C79.6003 28.5797 79.651 28.0641 79.7021 27.5486C79.8471 26.0856 79.9913 24.6225 80.1313 23.159C80.2176 22.2569 80.3066 21.355 80.3973 20.4533C80.4311 20.1126 80.4639 19.7719 80.4957 19.431C80.5401 18.9549 80.588 18.4792 80.6365 18.0035C80.6627 17.7339 80.6889 17.4643 80.7158 17.1865C81.0285 15.4883 81.7439 14.4462 82.94 13.2744C83.078 13.1355 83.2161 12.9966 83.3583 12.8534C83.8119 12.3981 84.2687 11.9463 84.7258 11.4945C85.0432 11.1776 85.3605 10.8605 85.6776 10.5432C86.3411 9.88048 87.0062 9.21931 87.6725 8.55934C88.5263 7.71347 89.377 6.86454 90.2267 6.0145C90.881 5.3603 91.5366 4.70733 92.1925 4.05477C92.5067 3.7421 92.8206 3.42915 93.1342 3.1159C93.5722 2.67886 94.0118 2.2434 94.4518 1.80835C94.581 1.67893 94.7102 1.54951 94.8434 1.41616C96.35 -0.0654591 97.5319 -0.222788 99.6095 1.59293e-05ZM94.6876 12.6563C91.6163 14.8337 88.563 17.2625 87.7971 21.1168C87.1949 24.9847 87.1767 28.9072 87.1876 32.8125C96.3125 33.2036 96.3125 33.2036 104.081 29.2949C105.261 28.0371 106.347 26.7191 107.344 25.3125C106.669 24.6376 105.95 24.7286 105.041 24.6771C104.666 24.651 104.29 24.6248 103.915 24.5984C103.323 24.5594 102.732 24.5216 102.141 24.486C101.569 24.4508 100.998 24.4104 100.427 24.3695C100.252 24.3605 100.078 24.3514 99.8979 24.342C98.694 24.2521 97.7329 23.9952 96.797 23.2031C95.8722 22.1103 95.7028 20.9631 95.6306 19.5731C95.6175 19.3892 95.6043 19.2054 95.5907 19.016C95.5495 18.4343 95.5137 17.8526 95.4786 17.2705C95.4412 16.6844 95.4027 16.0984 95.3616 15.5125C95.3363 15.1493 95.3132 14.786 95.2926 14.4225C95.2537 13.4326 95.2537 13.4326 94.6876 12.6563Z" fill="white"/>
<path d="M60.0439 37.3975C60.4555 37.3939 60.4555 37.3939 60.8754 37.3903C62.4342 37.4063 63.6459 37.4496 64.8385 38.5629C65.9082 39.9617 66.0377 40.9049 65.8593 42.6563C65.3471 43.6996 64.7016 44.3411 63.7499 45C62.9643 45.2619 62.4083 45.2414 61.582 45.2197C56.7454 45.2048 52.9022 46.3443 49.3807 49.7406C46.0511 53.3031 45.2666 57.2395 45.4257 61.9569C45.5165 63.2685 45.8831 64.4193 46.4062 65.625C46.5335 65.9327 46.5335 65.9327 46.6635 66.2467C48.2806 69.8044 51.2774 72.4164 54.8583 73.8867C58.8476 75.2259 63.0729 74.9546 66.8522 73.1117C70.4976 71.1619 72.9394 67.972 74.1527 64.0778C74.5417 62.7171 74.724 61.3549 74.8107 59.9436C74.9232 58.482 75.4768 57.6252 76.5234 56.6309C77.7339 56.0688 78.8438 56.0733 80.1562 56.25C81.3202 56.7904 81.8901 57.4769 82.4999 58.5938C82.6347 59.3249 82.6336 60.0346 82.6171 60.7764C82.6141 60.9827 82.6111 61.1889 82.608 61.4015C82.4173 67.6896 79.3215 72.9987 74.8242 77.2559C69.8077 81.6453 63.9289 82.8402 57.4708 82.5523C51.4199 82.1315 46.142 78.7075 42.225 74.231C38.0195 68.938 36.8326 62.6933 37.5696 56.0948C38.4544 50.3551 41.918 45.2848 46.4062 41.7188C50.6166 38.7617 54.9559 37.4294 60.0439 37.3975Z" fill="white"/>
</g>
<defs>
<clipPath id="clip0_127_528">
<rect width="120" height="120" fill="white"/>
</clipPath>
</defs>
</svg>
