<svg width="120" height="120" viewBox="0 0 120 120" fill="none" xmlns="http://www.w3.org/2000/svg">
<g clip-path="url(#clip0_127_516)">
<path d="M7.94384 5.5647C8.12679 5.56388 8.30973 5.56306 8.49823 5.56221C9.11214 5.56003 9.726 5.56118 10.3399 5.56232C10.7842 5.56144 11.2284 5.56036 11.6727 5.5591C12.8942 5.55623 14.1157 5.5563 15.3373 5.55685C16.6544 5.55694 17.9715 5.55436 19.2887 5.55213C21.8695 5.54824 24.4503 5.54695 27.0312 5.54669C29.1288 5.54647 31.2265 5.5455 33.3241 5.54402C38.3023 5.54056 43.2805 5.53768 48.2587 5.53792C48.4975 5.53793 48.4975 5.53793 48.7411 5.53795C49.548 5.53798 50.3549 5.53803 51.1618 5.53808C51.3221 5.53809 51.4823 5.5381 51.6474 5.53811C51.9715 5.53813 52.2956 5.53815 52.6196 5.53817C57.6611 5.53845 62.7026 5.53493 67.7441 5.52852C73.4086 5.52132 79.0731 5.51729 84.7377 5.51772C87.7367 5.51788 90.7358 5.51659 93.7348 5.51155C96.2883 5.50728 98.8417 5.50626 101.395 5.50944C102.698 5.51097 104.001 5.51099 105.304 5.50693C106.497 5.50325 107.69 5.50391 108.883 5.508C109.314 5.50872 109.745 5.50787 110.176 5.50526C113.42 5.48692 115.945 5.85117 118.359 8.20312C119.56 9.71708 120.058 11.231 120.06 13.1669C120.061 13.3317 120.062 13.4965 120.063 13.6663C120.065 14.2186 120.064 14.7707 120.063 15.323C120.063 15.7229 120.064 16.1229 120.066 16.5228C120.069 17.6219 120.069 18.7209 120.068 19.82C120.068 21.0053 120.07 22.1906 120.073 23.3759C120.077 25.6982 120.078 28.0205 120.078 30.3427C120.078 32.2302 120.079 34.1177 120.081 36.0052C120.085 41.3557 120.087 46.7061 120.087 52.0566C120.087 52.4893 120.087 52.4893 120.087 52.9308C120.087 53.2196 120.087 53.5085 120.087 53.8061C120.086 58.4877 120.091 63.1694 120.098 67.8511C120.104 72.6573 120.108 77.4635 120.107 82.2697C120.107 84.9684 120.108 87.6671 120.113 90.3658C120.118 92.6634 120.119 94.961 120.115 97.2586C120.114 98.4308 120.114 99.603 120.118 100.775C120.122 101.849 120.121 102.922 120.117 103.996C120.116 104.384 120.117 104.772 120.12 105.16C120.132 107.142 120.132 108.879 119.062 110.625C118.958 110.812 118.853 110.999 118.746 111.192C117.542 112.864 115.874 113.82 113.906 114.375C113.281 114.418 112.681 114.439 112.056 114.435C111.873 114.436 111.69 114.437 111.501 114.438C110.888 114.44 110.274 114.439 109.66 114.438C109.216 114.439 108.771 114.44 108.327 114.441C107.106 114.444 105.884 114.444 104.662 114.443C103.345 114.443 102.028 114.446 100.711 114.448C98.1302 114.452 95.5494 114.453 92.9685 114.453C90.8709 114.454 88.7732 114.454 86.6756 114.456C81.6974 114.459 76.7192 114.462 71.741 114.462C71.5818 114.462 71.4226 114.462 71.2586 114.462C70.4517 114.462 69.6448 114.462 68.8379 114.462C68.6776 114.462 68.5174 114.462 68.3523 114.462C68.0282 114.462 67.7041 114.462 67.3801 114.462C62.3386 114.462 57.2971 114.465 52.2556 114.471C46.5911 114.479 40.9266 114.483 35.262 114.482C32.263 114.482 29.2639 114.483 26.2649 114.488C23.7114 114.493 21.158 114.494 18.6045 114.491C17.3017 114.489 15.9989 114.489 14.6961 114.493C13.5031 114.497 12.3101 114.496 11.1171 114.492C10.6859 114.491 10.2546 114.492 9.82344 114.495C6.57981 114.513 4.05445 114.149 1.64047 111.797C0.439847 110.283 -0.0582672 108.769 -0.0604483 106.833C-0.06127 106.668 -0.0620916 106.503 -0.0629383 106.334C-0.0651187 105.781 -0.0639677 105.229 -0.0628283 104.677C-0.0637041 104.277 -0.0647822 103.877 -0.066046 103.477C-0.0689152 102.378 -0.0688515 101.279 -0.0682991 100.18C-0.0682035 98.9947 -0.07079 97.8094 -0.0730135 96.624C-0.0769082 94.3018 -0.0781953 91.9795 -0.0784566 89.6573C-0.0786793 87.7698 -0.0796424 85.8823 -0.081129 83.9948C-0.0852573 78.6443 -0.0874189 73.2939 -0.0870674 67.9434C-0.0870487 67.6549 -0.0870304 67.3664 -0.0870111 67.0692C-0.0869919 66.7803 -0.0869727 66.4915 -0.086953 66.1939C-0.0867624 61.5123 -0.0912485 56.8306 -0.097857 52.1489C-0.104588 47.3427 -0.107828 42.5365 -0.107423 37.7302C-0.107267 35.0316 -0.108558 32.3329 -0.1136 29.6342C-0.117865 27.3366 -0.118889 25.039 -0.115704 22.7414C-0.114172 21.5692 -0.114153 20.397 -0.118214 19.2247C-0.121895 18.1513 -0.121236 17.0779 -0.117143 16.0044C-0.116422 15.6164 -0.11728 15.2284 -0.119891 14.8404C-0.132342 12.858 -0.132138 11.1211 0.93735 9.375C1.09415 9.09447 1.09415 9.09447 1.25412 8.80828C2.85529 6.58334 5.2438 5.54927 7.94384 5.5647ZM5.62485 11.25C3.36887 14.2061 4.68735 20.9349 4.68735 22.9687C41.1936 22.9687 77.6999 22.9687 115.312 22.9687C115.992 17.5336 115.992 17.5336 114.272 11.2793C113.299 10.4725 112.437 10.5131 111.232 10.5161C110.963 10.5153 110.963 10.5153 110.688 10.5146C110.083 10.5133 109.477 10.5136 108.872 10.514C108.435 10.5133 107.999 10.5126 107.562 10.5118C106.358 10.5099 105.155 10.5095 103.951 10.5094C102.655 10.5089 101.358 10.5072 100.062 10.5056C97.2251 10.5024 94.3884 10.501 91.5518 10.5C89.7815 10.4993 88.0113 10.4983 86.2411 10.4973C81.3428 10.4944 76.4445 10.492 71.5461 10.4912C71.2293 10.4911 70.9125 10.4911 70.5956 10.491C70.2781 10.491 69.9605 10.4909 69.6429 10.4909C69.0057 10.4908 68.3686 10.4907 67.7314 10.4906C67.4945 10.4905 67.4945 10.4905 67.2527 10.4905C62.1291 10.4896 57.0054 10.4859 51.8818 10.4804C46.4664 10.4747 41.0509 10.4715 35.6355 10.4712C32.6828 10.471 29.7302 10.4696 26.7775 10.4654C24.2636 10.4618 21.7498 10.4606 19.2359 10.4625C17.9527 10.4634 16.6695 10.4632 15.3862 10.4599C14.2122 10.4569 13.0381 10.4572 11.8641 10.46C11.4387 10.4605 11.0133 10.4598 10.5879 10.4577C10.0108 10.4551 9.43379 10.4569 8.85664 10.4597C8.69057 10.4579 8.52451 10.4561 8.35341 10.4543C7.27574 10.4657 6.54032 10.6835 5.62485 11.25ZM4.68735 27.8906C4.67768 40.8119 4.66801 53.7331 4.65805 67.0459C4.65379 71.13 4.64952 75.2142 4.64512 79.4221C4.64355 83.0741 4.64355 83.0741 4.64261 86.7262C4.64217 88.3564 4.64045 89.9866 4.63786 91.6168C4.63488 93.4962 4.63352 95.3757 4.63417 97.2551C4.63446 98.2168 4.634 99.1785 4.63147 100.14C4.62919 101.01 4.62907 101.879 4.63068 102.749C4.63097 103.212 4.62895 103.676 4.62684 104.139C4.5978 106.609 4.5978 106.609 5.72739 108.721C6.70045 109.528 7.56333 109.487 8.76881 109.484C8.94813 109.484 9.12745 109.485 9.31221 109.485C9.918 109.487 10.5238 109.486 11.1296 109.486C11.5663 109.487 12.0031 109.487 12.4398 109.488C13.6438 109.49 14.8478 109.49 16.0518 109.491C17.3488 109.491 18.6458 109.493 19.9428 109.494C22.7804 109.498 25.618 109.499 28.4557 109.5C30.2263 109.501 31.997 109.502 33.7677 109.503C38.6671 109.506 43.5664 109.508 48.4657 109.509C48.7826 109.509 49.0995 109.509 49.4164 109.509C49.734 109.509 50.0517 109.509 50.3693 109.509C51.0066 109.509 51.6439 109.509 52.2812 109.509C52.5182 109.509 52.5182 109.509 52.76 109.51C57.8852 109.51 63.0105 109.514 68.1358 109.52C73.5526 109.525 78.9694 109.529 84.3863 109.529C87.3398 109.529 90.2934 109.53 93.247 109.535C95.7615 109.538 98.2759 109.539 100.79 109.537C102.074 109.537 103.358 109.537 104.641 109.54C105.816 109.543 106.99 109.543 108.164 109.54C108.59 109.539 109.015 109.54 109.441 109.542C110.018 109.545 110.595 109.543 111.172 109.54C111.339 109.542 111.505 109.544 111.677 109.546C112.697 109.535 113.324 109.364 114.14 108.75C115.244 107.586 115.342 106.595 115.341 105.036C115.342 104.76 115.342 104.484 115.343 104.2C115.342 103.898 115.341 103.596 115.341 103.285C115.341 102.96 115.341 102.636 115.341 102.312C115.342 101.42 115.341 100.528 115.34 99.6357C115.339 98.6595 115.339 97.6832 115.339 96.7069C115.339 94.8113 115.338 92.9157 115.337 91.0201C115.335 88.8277 115.335 86.6353 115.335 84.4429C115.333 78.6537 115.33 72.8644 115.327 67.0752C115.322 54.1443 115.317 41.2134 115.312 27.8906C78.8061 27.8906 42.2998 27.8906 4.68735 27.8906Z" fill="white"/>
<path d="M41.3139 44.2554C41.7012 44.2509 41.7012 44.2509 42.0963 44.2463C42.3766 44.2446 42.6569 44.2429 42.9456 44.2411C43.2329 44.2392 43.5203 44.2373 43.8163 44.2353C44.4255 44.2321 45.0347 44.2296 45.6439 44.2277C46.575 44.2246 47.5059 44.2134 48.437 44.2031C49.0284 44.2007 49.6198 44.1987 50.2112 44.1971C50.4896 44.193 50.768 44.1889 51.0548 44.1847C52.5351 44.1886 53.4994 44.2059 54.6094 45.2344C54.9314 45.8784 54.8726 46.391 54.872 47.112C54.8725 47.5626 54.8725 47.5626 54.873 48.0223C54.8721 48.3571 54.8713 48.6919 54.8704 49.0266C54.8704 49.3777 54.8704 49.7287 54.8705 50.0798C54.8706 51.0347 54.8692 51.9895 54.8676 52.9444C54.8661 53.9416 54.866 54.9389 54.8657 55.9361C54.865 57.8253 54.863 59.7145 54.8607 61.6037C54.8581 63.7541 54.8568 65.9046 54.8556 68.055C54.8532 72.4794 54.849 76.9038 54.8438 81.3282C55.1178 81.3173 55.3919 81.3064 55.6742 81.2952C56.037 81.2864 56.3999 81.2779 56.7628 81.2696C56.943 81.2617 57.1232 81.2539 57.3089 81.2458C58.2522 81.2296 58.7106 81.2537 59.5286 81.7713C60.3087 82.5893 60.3257 83.2188 60.3187 84.3137C60.1851 85.1544 59.7183 85.5161 59.0626 86.0157C58.3528 86.3706 57.6172 86.2847 56.8385 86.2845C56.6554 86.2854 56.4722 86.2863 56.2835 86.2871C55.6663 86.2897 55.0492 86.2906 54.4321 86.2915C53.9909 86.293 53.5498 86.2946 53.1087 86.2962C51.9077 86.3003 50.7067 86.3028 49.5058 86.3047C48.7558 86.3059 48.0059 86.3073 47.2559 86.3088C44.9105 86.3133 42.5651 86.3166 40.2197 86.3185C37.5104 86.3208 34.8011 86.327 32.0919 86.3365C29.9991 86.3435 27.9063 86.347 25.8135 86.3478C24.563 86.3483 23.3125 86.3504 22.062 86.3563C20.8854 86.3618 19.7089 86.3628 18.5324 86.3604C18.1006 86.3603 17.6688 86.3617 17.237 86.365C16.6473 86.3691 16.0579 86.3674 15.4681 86.3644C15.2121 86.3682 15.2121 86.3682 14.9509 86.3722C13.7704 86.3572 13.0965 86.0554 12.1876 85.3125C11.7824 84.5022 11.8384 83.6204 11.9532 82.7344C12.3736 82.0617 12.6522 81.6818 13.3594 81.3282C13.8377 81.3116 14.3165 81.3084 14.795 81.3135C15.0518 81.3156 15.3086 81.3177 15.5732 81.3199C15.8696 81.324 15.8696 81.324 16.1719 81.3282C16.1693 81.0724 16.1667 80.8166 16.1641 80.5531C16.1403 78.1425 16.1227 75.732 16.1112 73.3214C16.1051 72.0821 16.0968 70.8428 16.0835 69.6035C16.0708 68.4075 16.0638 67.2117 16.0608 66.0156C16.0586 65.5593 16.0544 65.103 16.048 64.6467C16.0395 64.0076 16.0384 63.3687 16.0389 62.7295C16.0347 62.5409 16.0305 62.3522 16.0261 62.1579C16.035 61.1954 16.1231 60.7635 16.7369 60.0052C17.585 59.3429 17.9879 59.2662 19.0483 59.2554C19.4356 59.2509 19.4356 59.2509 19.8307 59.2463C20.2511 59.2437 20.2511 59.2437 20.68 59.2411C20.9673 59.2392 21.2546 59.2373 21.5507 59.2353C22.1599 59.2321 22.7691 59.2296 23.3783 59.2277C24.3094 59.2246 25.2403 59.2134 26.1713 59.2031C26.7628 59.2007 27.3542 59.1987 27.9456 59.1971C28.224 59.193 28.5023 59.1889 28.7892 59.1847C30.2695 59.1886 31.2338 59.2059 32.3438 60.2344C32.7222 60.9912 32.6085 61.8185 32.6048 62.6497C32.6048 62.8509 32.6049 63.0522 32.6049 63.2595C32.6047 63.9266 32.6029 64.5936 32.6011 65.2607C32.6006 65.7224 32.6003 66.1842 32.6001 66.6459C32.5992 67.8627 32.5969 69.0795 32.5943 70.2963C32.5919 71.5374 32.5908 72.7785 32.5896 74.0195C32.5871 76.4557 32.583 78.892 32.5782 81.3282C34.5118 81.3282 36.4454 81.3282 38.4376 81.3282C38.435 80.8845 38.4324 80.4408 38.4297 79.9836C38.4059 75.8071 38.3883 71.6306 38.3768 67.4541C38.3708 65.3068 38.3626 63.1595 38.3492 61.0122C38.3375 59.1407 38.3299 57.2693 38.3273 55.3977C38.3258 54.4067 38.3222 53.4157 38.3137 52.4247C38.3057 51.4918 38.3033 50.5591 38.305 49.6263C38.3047 49.284 38.3024 48.9416 38.2979 48.5994C38.292 48.1318 38.2941 47.6642 38.2966 47.1966C38.2956 46.9349 38.2945 46.6733 38.2934 46.4037C38.4838 45.4783 38.8958 45.1282 39.6094 44.5313C40.2092 44.2314 40.6423 44.2622 41.3139 44.2554ZM43.3594 49.2188C43.3594 59.8149 43.3594 70.411 43.3594 81.3282C45.5251 81.3282 47.6907 81.3282 49.9219 81.3282C49.9219 70.7321 49.9219 60.136 49.9219 49.2188C47.7563 49.2188 45.5907 49.2188 43.3594 49.2188ZM21.0938 64.2188C21.0938 69.8649 21.0938 75.511 21.0938 81.3282C23.2594 81.3282 25.4251 81.3282 27.6563 81.3282C27.6563 75.6821 27.6563 70.036 27.6563 64.2188C25.4907 64.2188 23.3251 64.2188 21.0938 64.2188Z" fill="white"/>
<path d="M99.5013 39.9628C103.278 42.9074 106.025 47.2395 106.641 52.0313C107.073 57.0644 106.086 61.7286 103.037 65.8301C102.76 66.1577 102.477 66.4798 102.188 66.7969C101.932 67.0847 101.932 67.0847 101.671 67.3783C98.3096 70.9621 93.9924 72.5572 89.1998 72.9575C84.2291 73.0993 79.4048 71.2314 75.774 67.8436C72.25 64.386 70.392 59.7323 70.2539 54.8438C70.3082 49.6294 72.2986 45.1913 75.9375 41.4844C76.0958 41.3203 76.2541 41.1563 76.4172 40.9873C82.5194 35.103 92.8327 35.0745 99.5013 39.9628ZM79.6875 44.7656C79.5361 44.8877 79.3848 45.0098 79.2288 45.1355C76.6645 47.4278 75.575 50.8079 75.1465 54.1159C74.9787 57.613 76.4152 60.8697 78.5449 63.5596C81.1148 66.3258 84.64 67.8886 88.3887 68.0567C90.9154 68.0028 93.5304 67.2791 95.625 65.8594C95.6985 65.1585 95.6985 65.1585 95.29 64.7399C95.1332 64.5861 94.9764 64.4323 94.8149 64.2738C94.6381 64.0985 94.4613 63.9233 94.2791 63.7428C94.0858 63.5545 93.8924 63.3663 93.6932 63.1723C93.3984 62.8806 93.3984 62.8806 93.0976 62.583C92.4671 61.9596 91.8343 61.3385 91.2012 60.7178C90.5699 60.0977 89.9391 59.4771 89.3098 58.8551C88.9176 58.4675 88.5243 58.0812 88.1298 57.6961C87.9515 57.5201 87.7732 57.3442 87.5895 57.1629C87.3538 56.9318 87.3538 56.9318 87.1132 56.6961C86.3285 55.8087 86.1906 55.1339 86.1753 53.9582C86.1706 53.6861 86.166 53.4141 86.1612 53.1337C86.1585 52.8412 86.1557 52.5487 86.153 52.2473C86.1484 51.9469 86.1439 51.6465 86.1392 51.337C86.1272 50.5402 86.1179 49.7434 86.1092 48.9466C86.0998 48.1328 86.0878 47.319 86.076 46.5051C86.0534 44.9097 86.0336 43.3143 86.0156 41.7188C83.644 41.7188 81.4382 43.311 79.6875 44.7656ZM90.9375 41.7188C89.8301 48.6268 89.8301 48.6268 91.7656 55.0661C93.8837 57.7967 96.6199 60.0461 99.375 62.1094C100.099 61.236 100.547 60.4815 100.942 59.4141C101.089 59.0262 101.089 59.0262 101.238 58.6304C102.327 55.3583 101.875 51.8427 100.464 48.7592C98.8039 45.5111 96.0589 43.1251 92.5781 41.9531C92.032 41.8702 91.4851 41.7916 90.9375 41.7188Z" fill="white"/>
<path d="M25.9481 94.4224C26.2288 94.4215 26.5095 94.4206 26.7987 94.4196C27.1118 94.4198 27.4248 94.42 27.7379 94.4203C28.0693 94.4197 28.4007 94.419 28.732 94.4182C29.6448 94.4163 30.5575 94.4158 31.4702 94.4157C32.4537 94.4152 33.4373 94.4135 34.4208 94.4119C36.5723 94.4087 38.7237 94.4073 40.8752 94.4063C42.218 94.4056 43.5607 94.4046 44.9035 94.4036C48.6194 94.4007 52.3353 94.3983 56.0513 94.3975C56.4081 94.3974 56.4081 94.3974 56.7722 94.3973C57.0106 94.3973 57.2491 94.3972 57.4948 94.3972C57.9781 94.3971 58.4613 94.397 58.9446 94.3969C59.1843 94.3968 59.424 94.3968 59.671 94.3967C63.5569 94.3958 67.4428 94.3917 71.3287 94.3862C75.316 94.3807 79.3032 94.3778 83.2905 94.3775C85.5302 94.3773 87.7699 94.3759 90.0095 94.3717C91.9163 94.3681 93.823 94.3669 95.7298 94.3688C96.703 94.3697 97.6762 94.3695 98.6495 94.3662C99.54 94.3632 100.431 94.3635 101.321 94.3663C101.797 94.367 102.272 94.3642 102.748 94.3613C103.171 94.3636 103.171 94.3636 103.602 94.366C103.967 94.3658 103.967 94.3658 104.34 94.3656C105.249 94.4863 105.912 94.8224 106.479 95.5518C106.721 96.3639 106.779 97.137 106.641 97.9688C106.22 98.6274 105.933 99.0257 105.234 99.3751C104.796 99.3979 104.356 99.4053 103.917 99.4059C103.494 99.4072 103.494 99.4072 103.063 99.4086C102.747 99.4084 102.432 99.4082 102.116 99.408C101.783 99.4086 101.45 99.4093 101.117 99.4101C100.198 99.412 99.2796 99.4124 98.361 99.4126C97.3715 99.413 96.3821 99.4148 95.3927 99.4163C93.2276 99.4195 91.0626 99.4209 88.8975 99.422C87.5464 99.4226 86.1953 99.4236 84.8442 99.4247C81.1055 99.4275 77.3669 99.4299 73.6283 99.4307C73.3889 99.4308 73.1494 99.4308 72.9028 99.4309C72.6628 99.4309 72.4228 99.431 72.1755 99.431C71.6892 99.4312 71.2028 99.4313 70.7165 99.4314C70.4752 99.4314 70.234 99.4315 69.9854 99.4315C66.0753 99.4324 62.1651 99.4365 58.2549 99.442C54.2433 99.4475 50.2316 99.4505 46.22 99.4507C43.9664 99.451 41.7129 99.4523 39.4593 99.4566C37.5406 99.4602 35.6218 99.4614 33.703 99.4594C32.7236 99.4585 31.7443 99.4587 30.7649 99.462C29.8686 99.465 28.9725 99.4647 28.0763 99.4619C27.7517 99.4614 27.4271 99.4622 27.1025 99.4642C26.6619 99.4668 26.2212 99.4646 25.7806 99.4622C25.5357 99.4624 25.2908 99.4625 25.0384 99.4627C24.2695 99.3611 23.829 99.1218 23.2031 98.6719C22.6003 97.8682 22.6166 97.0689 22.7343 96.0938C23.5386 94.708 24.4107 94.4242 25.9481 94.4224Z" fill="white"/>
<path d="M75.1493 81.1802C75.4755 81.1789 75.8017 81.1772 76.1279 81.1751C77.0112 81.1707 77.8943 81.1738 78.7776 81.1784C79.7029 81.1822 80.6283 81.1801 81.5536 81.179C83.1071 81.1779 84.6606 81.1816 86.2141 81.1882C88.0093 81.1957 89.8044 81.1957 91.5997 81.1916C93.3281 81.1879 95.0566 81.1895 96.785 81.1935C97.52 81.1951 98.2549 81.1949 98.9899 81.1931C99.8555 81.1913 100.721 81.1942 101.586 81.2006C102.055 81.203 102.524 81.2008 102.992 81.1984C103.272 81.2014 103.551 81.2044 103.839 81.2074C104.082 81.2081 104.324 81.2088 104.574 81.2094C105.406 81.3589 105.801 81.6875 106.406 82.2656C106.781 83.0141 106.728 83.7949 106.641 84.6093C106.35 85.2785 106.143 85.6501 105.528 86.0429C104.872 86.3 104.353 86.3096 103.649 86.311C103.374 86.3127 103.098 86.3144 102.814 86.3161C102.512 86.3155 102.211 86.3149 101.9 86.3143C101.579 86.3153 101.257 86.3165 100.936 86.3179C100.063 86.3211 99.1904 86.3212 98.3177 86.3206C97.5891 86.3204 96.8605 86.3215 96.1318 86.3226C94.4128 86.3252 92.6937 86.3253 90.9746 86.3239C89.2016 86.3225 87.4285 86.3254 85.6554 86.3304C84.1327 86.3345 82.61 86.3359 81.0873 86.3352C80.178 86.3347 79.2688 86.3354 78.3595 86.3386C77.5044 86.3416 76.6493 86.3411 75.7942 86.338C75.3312 86.3372 74.8682 86.3399 74.4052 86.3426C73.9907 86.3402 73.9907 86.3402 73.5678 86.3376C73.2083 86.3377 73.2083 86.3377 72.8415 86.3378C71.8411 86.2034 71.2262 85.7925 70.5762 85.0341C70.2734 84.2772 70.2708 83.7819 70.3336 82.9833C71.2454 80.917 73.2093 81.1627 75.1493 81.1802Z" fill="white"/>
<path d="M22.2656 14.5313C22.9242 14.9517 23.3225 15.2389 23.6719 15.9376C23.7705 16.6546 23.7856 17.3313 23.6719 18.0469C23.1606 18.6928 22.7644 19.0866 22.0312 19.4532C21.1245 19.5562 20.682 19.4828 19.8633 19.0577C19.1791 18.4824 18.9355 18.2094 18.75 17.3438C18.7977 16.1988 19.1415 15.5934 19.9219 14.7657C20.6723 14.3905 21.4514 14.4143 22.2656 14.5313Z" fill="white"/>
<path d="M13.3592 14.5313C14.0178 14.9517 14.416 15.2388 14.7654 15.9375C14.882 17.1033 14.8932 17.593 14.2967 18.6182C13.545 19.2602 13.151 19.4561 12.1864 19.509C11.2114 19.3926 10.5797 18.8413 9.97536 18.1055C9.7653 17.2653 9.80602 16.5156 10.0779 15.7032C11.1061 14.4995 11.8589 14.317 13.3592 14.5313Z" fill="white"/>
<path d="M14.9999 94.4531C16.3075 95.1933 16.3075 95.1933 16.6406 95.8594C16.7707 96.945 16.7897 97.7301 16.2011 98.6719C15.4339 99.3939 14.8918 99.4533 13.8372 99.4437C13.0942 99.3369 12.6986 98.9641 12.1874 98.4375C11.7805 97.6236 11.812 96.7472 11.9531 95.8594C12.8704 94.7006 13.5302 94.3118 14.9999 94.4531Z" fill="white"/>
<path d="M31.4062 14.5312C32.0641 14.8454 32.311 15.1283 32.8125 15.7031C33.1086 16.6614 33.1111 17.1582 32.7832 18.1055C32.2835 18.8383 32.0022 19.1394 31.1718 19.4531C30.0402 19.4531 29.5335 19.3765 28.5937 18.75C28.039 17.918 27.9694 17.4239 28.0233 16.4429C28.1735 15.6961 28.5154 15.2805 29.0625 14.7656C29.8218 14.386 30.5855 14.3988 31.4062 14.5312Z" fill="white"/>
</g>
<defs>
<clipPath id="clip0_127_516">
<rect width="120" height="120" fill="white"/>
</clipPath>
</defs>
</svg>
