<svg width="121" height="120" viewBox="0 0 121 120" fill="none" xmlns="http://www.w3.org/2000/svg">
<g clip-path="url(#clip0_127_570)">
<path d="M60.3807 7.34838C60.9419 7.34679 61.5031 7.3447 62.0643 7.34216C63.4243 7.33739 64.7843 7.33806 66.1443 7.34147C67.2506 7.34413 68.3568 7.34447 69.4632 7.3432C69.6212 7.34302 69.7793 7.34284 69.9422 7.34265C70.2634 7.34228 70.5846 7.3419 70.9059 7.34151C73.9107 7.33818 76.9156 7.342 79.9205 7.34831C82.493 7.35355 85.0655 7.35264 87.6381 7.34723C90.633 7.34095 93.6278 7.3385 96.6227 7.34209C96.9427 7.34247 97.2626 7.34283 97.5826 7.3432C97.8187 7.34347 97.8187 7.34347 98.0596 7.34375C99.1632 7.34475 100.267 7.34306 101.371 7.34029C102.859 7.33689 104.347 7.33928 105.835 7.34603C106.38 7.34757 106.924 7.34714 107.469 7.34455C111.574 7.32679 114.657 7.71482 117.859 10.5469C119.822 12.5402 120.94 15.2103 120.942 17.9888C120.943 18.1758 120.944 18.3628 120.945 18.5555C120.948 19.1842 120.949 19.813 120.951 20.4418C120.953 20.8918 120.955 21.3419 120.957 21.7919C120.963 23.2725 120.966 24.753 120.97 26.2335C120.971 26.7436 120.972 27.2536 120.974 27.7637C120.979 29.8864 120.983 32.0092 120.986 34.132C120.989 37.1711 120.997 40.2102 121.011 43.2494C121.02 45.3876 121.024 47.5257 121.026 49.6639C121.026 50.9401 121.029 52.2161 121.037 53.4923C121.044 54.6946 121.045 55.8969 121.043 57.0992C121.042 57.5387 121.044 57.9781 121.049 58.4175C121.076 61.5474 120.805 64.2227 118.796 66.7969C118.632 67.0241 118.468 67.2513 118.298 67.4854C116.689 69.3477 114.177 70.7709 111.727 71.0795C110.345 71.1772 108.962 71.1504 107.578 71.1301C107.136 71.1279 106.694 71.1262 106.251 71.1251C105.097 71.1206 103.944 71.1091 102.79 71.0961C101.608 71.084 100.426 71.0787 99.2448 71.0729C96.9338 71.0604 94.6229 71.0404 92.312 71.0156C92.4733 71.4286 92.4733 71.4286 92.638 71.8499C93.4038 73.8124 94.1651 75.7757 94.8873 77.7548C94.9671 77.9725 95.047 78.1901 95.1292 78.4143C95.3868 79.1169 95.6438 79.8197 95.9008 80.5225C96.085 81.0253 96.2693 81.528 96.4536 82.0308C96.8357 83.0731 97.2176 84.1155 97.5993 85.1579C98.2413 86.9102 98.8848 88.6618 99.5289 90.4133C99.9693 91.6107 100.409 92.8083 100.848 94.0065C101.616 96.1056 102.388 98.2034 103.178 100.294C103.513 101.179 103.844 102.066 104.176 102.952C104.331 103.364 104.487 103.776 104.645 104.187C106.269 108.419 106.269 108.419 105.906 110.156C105.293 111.359 104.607 112.073 103.328 112.5C102.35 112.595 101.489 112.611 100.574 112.236C99.1656 111.063 98.5807 109.84 97.9855 108.145C97.905 107.923 97.8246 107.702 97.7417 107.474C97.477 106.743 97.2163 106.011 96.9555 105.278C96.7689 104.761 96.582 104.244 96.3947 103.727C96.006 102.653 95.6186 101.579 95.2321 100.504C94.4344 98.2887 93.6203 96.0793 92.8062 93.8698C92.3706 92.687 91.9362 91.5037 91.5017 90.3204C91.3264 89.8431 91.151 89.3657 90.9756 88.8883C90.5104 87.6218 90.0452 86.3552 89.58 85.0887C89.2001 84.0544 88.8202 83.0202 88.4404 81.986C88.2614 81.4987 88.0824 81.0114 87.9034 80.524C87.7348 80.0649 87.5661 79.6057 87.3975 79.1466C87.2366 78.7085 87.0758 78.2703 86.915 77.8322C86.5235 76.7653 86.1299 75.6992 85.7324 74.6345C85.6555 74.4279 85.5786 74.2213 85.4994 74.0084C85.3541 73.6183 85.2083 73.2284 85.0617 72.8388C84.5776 71.5369 84.5776 71.5369 84.5776 71.0156C83.8041 71.0156 83.0307 71.0156 82.2338 71.0156C82.2043 71.1822 82.1748 71.3488 82.1443 71.5205C81.9962 72.2024 81.7922 72.8289 81.5561 73.4855C81.4639 73.7431 81.3717 74.0007 81.2767 74.2662C81.1756 74.5458 81.0745 74.8254 80.9704 75.1135C80.8633 75.4115 80.7563 75.7095 80.6494 76.0074C80.3601 76.8126 80.0696 77.6174 79.7789 78.4221C79.5966 78.9273 79.4145 79.4325 79.2326 79.9378C77.3207 85.2478 75.3821 90.5476 73.4188 95.8389C72.4739 98.3887 71.5414 100.941 70.6478 103.51C70.5669 103.741 70.486 103.973 70.4026 104.211C70.0285 105.282 69.6579 106.353 69.2942 107.427C69.1645 107.8 69.0347 108.174 68.9047 108.547C68.8507 108.711 68.7967 108.876 68.7411 109.045C68.272 110.371 67.5335 111.589 66.2863 112.307C65.3857 112.686 64.4392 112.621 63.4838 112.5C62.3492 111.954 61.6784 111.295 61.1401 110.156C60.8953 108.219 61.3606 106.616 62.0437 104.822C62.1396 104.561 62.2354 104.299 62.3342 104.029C62.5956 103.318 62.8605 102.608 63.1272 101.899C63.4088 101.147 63.6855 100.393 63.9627 99.6398C64.426 98.3821 64.8921 97.1255 65.3602 95.8696C66.0343 94.0608 66.7027 92.25 67.3693 90.4386C67.5805 89.8647 67.7917 89.2909 68.0029 88.7171C68.106 88.437 68.2091 88.157 68.3152 87.8685C68.6237 87.0312 68.9327 86.1942 69.242 85.3572C70.6257 81.6109 71.9887 77.8576 73.3284 74.0953C73.3912 73.9192 73.4541 73.743 73.5188 73.5615C73.6341 73.2378 73.7492 72.9141 73.8639 72.5902C74.0556 72.0518 74.2436 71.5273 74.4995 71.0156C72.798 70.9897 71.0971 70.9821 69.3954 70.987C68.8171 70.9866 68.2387 70.982 67.6605 70.9731C66.827 70.961 65.9946 70.964 65.1611 70.9699C64.7757 70.9594 64.7757 70.9594 64.3826 70.9487C63.2838 70.9691 62.5896 70.9949 61.7596 71.7576C61.2661 72.3676 61.2661 72.3676 60.8614 72.9994C59.6876 74.6432 57.5131 75.7011 55.5563 76.1051C51.0796 76.6918 47.4577 74.4456 43.6059 72.4805C43.1005 72.2248 42.595 71.9694 42.0893 71.7142C40.8602 71.0932 39.6324 70.4696 38.4057 69.8438C38.4054 70.0488 38.405 70.2538 38.4047 70.4651C38.396 75.4552 38.3821 80.4453 38.3626 85.4354C38.3533 87.8485 38.3457 90.2617 38.3422 92.6749C38.3391 94.7784 38.3328 96.8818 38.3226 98.9852C38.3173 100.099 38.3136 101.212 38.3139 102.326C38.314 103.375 38.3098 104.423 38.3023 105.472C38.3003 105.856 38.2999 106.241 38.3012 106.625C38.3028 107.151 38.2986 107.677 38.293 108.203C38.2917 108.644 38.2917 108.644 38.2903 109.094C38.0992 110.423 37.5845 111.29 36.5077 112.126C35.4257 112.664 34.3349 112.631 33.1487 112.621C32.7882 112.624 32.7882 112.624 32.4205 112.626C31.6296 112.63 30.8388 112.628 30.0479 112.625C29.4966 112.625 28.9453 112.626 28.394 112.627C27.2401 112.629 26.0862 112.627 24.9323 112.622C23.454 112.617 21.9759 112.62 20.4976 112.626C19.3598 112.629 18.222 112.628 17.0841 112.625C16.5391 112.625 15.994 112.626 15.449 112.628C14.6871 112.63 13.9255 112.627 13.1636 112.621C12.939 112.623 12.7143 112.625 12.4828 112.627C11.1666 112.61 10.3616 112.478 9.34321 111.563C8.34656 110.417 8.27359 109.53 8.29928 108.082C8.29914 107.878 8.299 107.674 8.29886 107.465C8.29951 106.795 8.30679 106.126 8.31415 105.456C8.3159 104.99 8.31724 104.525 8.31817 104.059C8.32175 102.836 8.33095 101.613 8.34133 100.39C8.35094 99.1411 8.35521 97.8921 8.35993 96.6431C8.36997 94.1943 8.38596 91.7456 8.40571 89.2969C8.26051 89.2503 8.11531 89.2038 7.96572 89.1558C7.68031 89.0628 7.68031 89.0628 7.38913 88.9679C7.20043 88.9069 7.01172 88.8458 6.8173 88.7829C4.43687 87.9187 2.68555 85.5293 1.6189 83.3414C1.08889 82.0253 0.846511 80.836 0.837615 79.4179C0.836041 79.2591 0.834466 79.1003 0.832844 78.9367C0.828422 78.4158 0.827477 77.8949 0.826972 77.374C0.825463 77.007 0.823885 76.6399 0.822244 76.2729C0.819444 75.504 0.818568 74.7351 0.818847 73.9662C0.818894 72.9916 0.812524 72.0171 0.804424 71.0424C0.799151 70.2837 0.798262 69.525 0.798508 68.7662C0.797963 68.4076 0.795934 68.0489 0.792257 67.6903C0.741096 62.1797 2.54549 57.2216 6.06196 52.9688C6.2668 52.7123 6.2668 52.7123 6.47578 52.4506C7.39266 51.3526 8.39351 50.4452 9.51899 49.5703C9.71414 49.4179 9.71414 49.4179 9.91324 49.2623C10.5619 48.7734 11.1059 48.3921 11.9213 48.2813C11.7881 48.1251 11.6549 47.9689 11.5176 47.8079C7.63822 43.1773 6.10639 38.824 6.53071 32.8125C7.07764 28.3391 9.73019 24.8233 13.0346 21.958C16.836 19.0663 21.5809 18.1908 26.2614 18.8187C30.5796 19.6002 34.3492 22.0944 36.9995 25.5469C39.6913 29.5775 40.7439 34.2511 39.794 39.0355C39.1194 42.0017 37.8349 44.5687 35.8276 46.875C38.2871 48.186 40.7594 49.4667 43.2543 50.7092C43.511 50.8373 43.7677 50.9654 44.0321 51.0973C44.6565 51.4088 45.2811 51.7202 45.9057 52.0313C45.9053 51.8587 45.9048 51.6862 45.9044 51.5084C45.894 47.3002 45.8863 43.0921 45.8814 38.8839C45.879 36.8489 45.8757 34.8138 45.8703 32.7788C45.8657 31.004 45.8626 29.2292 45.8616 27.4544C45.861 26.5156 45.8596 25.5768 45.8561 24.638C45.8529 23.7523 45.852 22.8667 45.8527 21.981C45.8525 21.5052 45.85 21.0293 45.8474 20.5535C45.8558 16.7646 46.4986 13.2927 49.2199 10.4691C52.574 7.46029 56.0973 7.32796 60.3807 7.34838ZM54.3725 15.7617C53.4019 17.0178 53.0831 18.1044 53.0868 19.6767C53.0862 19.8322 53.0856 19.9877 53.085 20.1479C53.0838 20.6643 53.0877 21.1806 53.0915 21.697C53.0917 22.069 53.0916 22.441 53.0912 22.8131C53.091 23.8197 53.0951 24.8263 53.1 25.8329C53.1044 26.8861 53.1049 27.9393 53.1057 28.9925C53.1079 30.9854 53.1136 32.9784 53.1207 34.9713C53.1286 37.2408 53.1324 39.5103 53.1359 41.7798C53.1433 46.4469 53.1557 51.1141 53.1713 55.7813C53.8579 56.1415 54.547 56.4965 55.2368 56.8506C55.4321 56.9532 55.6274 57.0557 55.8287 57.1614C56.1108 57.3053 56.1108 57.3053 56.3986 57.4521C56.6582 57.5865 56.6582 57.5865 56.923 57.7236C57.428 57.9584 57.428 57.9584 58.0932 57.6563C58.4795 57.0426 58.4795 57.0426 58.8392 56.2676C58.9457 56.0503 58.9457 56.0503 59.0543 55.8287C59.2084 55.5137 59.3614 55.1982 59.5135 54.8822C59.7548 54.3816 59.9991 53.8826 60.2444 53.3839C60.9413 51.9658 61.6324 50.5448 62.3214 49.1228C62.743 48.2532 63.1683 47.3855 63.5958 46.5188C63.7577 46.1886 63.9181 45.8578 64.077 45.5262C64.3 45.061 64.5276 44.5983 64.7562 44.1359C64.9482 43.7404 64.9482 43.7404 65.1441 43.3369C65.8012 42.341 66.5814 41.8581 67.7026 41.4844C68.9295 41.3918 69.718 41.4999 70.7495 42.1875C71.5727 43.1665 71.9213 43.9527 71.9213 45.2344C71.3212 47.4546 70.1833 49.5008 69.1491 51.5424C68.9717 51.8954 68.7943 52.2485 68.6171 52.6016C68.1545 53.523 67.6902 54.4435 67.2254 55.3639C66.478 56.8448 65.7331 58.3269 64.9882 59.809C64.7279 60.3262 64.467 60.8429 64.206 61.3597C64.0479 61.6735 63.8898 61.9874 63.7317 62.3013C63.593 62.5761 63.4542 62.851 63.3113 63.1341C62.9981 63.6713 62.9981 63.6713 63.0151 63.9844C69.0904 64.0008 75.1657 64.0132 81.241 64.0208C84.0619 64.0244 86.8829 64.0294 89.7038 64.0374C92.1628 64.0444 94.6217 64.049 97.0807 64.0505C98.3825 64.0515 99.6842 64.0536 100.986 64.0587C102.212 64.0635 103.438 64.065 104.664 64.0639C105.113 64.0641 105.562 64.0655 106.012 64.0682C106.627 64.0717 107.242 64.0709 107.857 64.0689C108.033 64.071 108.209 64.073 108.391 64.0751C109.961 64.062 111.399 63.7254 112.673 62.7832C114.173 60.7548 113.975 58.3826 113.965 55.9859C113.966 55.5803 113.968 55.1747 113.969 54.7691C113.972 53.6723 113.971 52.5755 113.969 51.4787C113.967 50.3283 113.969 49.1778 113.97 48.0274C113.971 46.0958 113.969 44.1643 113.966 42.2327C113.962 40.0028 113.964 37.773 113.967 35.5431C113.971 33.6251 113.971 31.707 113.969 29.789C113.968 28.645 113.968 27.501 113.97 26.3569C113.972 25.2811 113.971 24.2054 113.967 23.1296C113.966 22.7359 113.966 22.3423 113.968 21.9486C114.019 18.6656 114.019 18.6656 112.673 15.7324C111.155 14.6103 109.49 14.4274 107.649 14.442C107.433 14.4409 107.217 14.4398 106.995 14.4387C106.278 14.4359 105.561 14.4381 104.843 14.4403C104.327 14.4393 103.81 14.4381 103.294 14.4365C101.895 14.4334 100.496 14.4346 99.0971 14.4368C97.6313 14.4386 96.1656 14.4369 94.6999 14.4358C92.0811 14.4345 89.4624 14.4367 86.8437 14.4402C84.4723 14.4434 82.1009 14.4428 79.7295 14.4396C76.9716 14.4358 74.2136 14.4344 71.4557 14.4365C69.9973 14.4376 68.5389 14.4378 67.0805 14.4354C65.7092 14.4334 64.338 14.4348 62.9667 14.4389C62.4642 14.4398 61.9616 14.4395 61.4591 14.438C60.7717 14.4361 60.0845 14.4385 59.3972 14.442C59.1996 14.4404 59.002 14.4388 58.7984 14.4372C57.1628 14.4533 55.6802 14.7383 54.3725 15.7617ZM15.9643 29.2236C14.0623 31.5149 13.5962 34.1122 13.7443 36.9964C13.9798 39.2742 15.4111 41.3065 17.0483 42.8311C19.3287 44.6748 21.9421 45.2205 24.812 45C27.2845 44.516 29.5514 43.2361 31.0082 41.1475C32.4807 38.6835 33.1847 36.339 32.637 33.4644C31.9777 31.0247 30.7087 28.9177 28.5977 27.4713C24.2817 25.0431 19.4168 25.5851 15.9643 29.2236ZM12.1557 56.9531C8.73056 60.8531 7.91155 65.0981 7.88935 70.1386C7.88801 70.3796 7.88668 70.6207 7.8853 70.869C7.8831 71.3744 7.88156 71.8798 7.88065 72.3852C7.87836 73.154 7.87107 73.9227 7.86372 74.6915C7.86219 75.1856 7.86095 75.6796 7.86005 76.1737C7.85571 76.5144 7.85571 76.5144 7.85128 76.8619C7.85689 78.589 8.14543 80.0467 9.05024 81.5332C10.0474 82.475 11.0918 82.7243 12.4047 82.9395C13.5907 83.1615 14.1624 83.4685 14.9682 84.375C15.4009 85.5766 15.508 86.7009 15.5117 87.9661C15.5152 88.2477 15.5152 88.2477 15.5188 88.5349C15.526 89.1499 15.53 89.7649 15.534 90.38C15.5384 90.8085 15.543 91.2371 15.5478 91.6656C15.5598 92.7895 15.5691 93.9134 15.5778 95.0374C15.5889 96.3881 15.6033 97.7387 15.6171 99.0894C15.6378 101.138 15.6541 103.186 15.6713 105.234C20.6987 105.234 25.726 105.234 30.9057 105.234C30.9091 103.957 30.9125 102.679 30.9161 101.363C30.9278 97.1463 30.9434 92.9301 30.961 88.7139C30.9715 86.157 30.9807 83.6001 30.9869 81.0432C30.9923 78.8147 31.0001 76.5862 31.0109 74.3577C31.0165 73.1777 31.0209 71.9976 31.0223 70.8176C31.0238 69.7068 31.0284 68.5961 31.0356 67.4853C31.0377 67.0777 31.0385 66.6701 31.0381 66.2626C31.0377 65.7057 31.0417 65.149 31.0466 64.5921C31.0455 64.4312 31.0444 64.2702 31.0432 64.1043C31.0589 63.0389 31.2838 62.311 31.8432 61.4063C32.7476 60.6627 33.479 60.257 34.6557 60.2344C36.6276 60.616 38.3871 61.5783 40.1558 62.4876C40.6753 62.7545 41.196 63.0187 41.717 63.2823C43.1967 64.0314 44.6738 64.7853 46.1504 65.5403C47.0576 66.0039 47.9662 66.4648 48.8756 66.9241C49.2204 67.0989 49.5647 67.2749 49.9084 67.452C50.3881 67.6992 50.8696 67.9429 51.3515 68.1859C51.6244 68.3254 51.8974 68.4648 52.1786 68.6085C52.9738 68.9207 53.4981 68.9905 54.3432 68.9063C55.1621 68.5154 55.4745 68.2641 55.9838 67.5C56.1394 66.5377 56.1394 66.5377 55.9838 65.625C54.871 64.5643 53.6443 63.9233 52.2714 63.2501C52.0468 63.1383 51.8223 63.0264 51.591 62.9111C50.8735 62.5542 50.1548 62.2 49.436 61.8457C48.9685 61.6133 48.5011 61.3808 48.0339 61.1481C45.4556 59.867 42.8652 58.6133 40.2656 57.3764C38.318 56.4477 36.395 55.4764 34.4827 54.4771C27.3105 50.819 18.1003 51.144 12.1557 56.9531Z" fill="white"/>
<path d="M65.156 22.3825C65.3189 22.3812 65.4819 22.3799 65.6497 22.3786C66.1928 22.3754 66.7356 22.3789 67.2786 22.3824C67.6691 22.3815 68.0596 22.3802 68.45 22.3786C69.5086 22.3753 70.5671 22.3779 71.6257 22.3818C72.7342 22.385 73.8427 22.3835 74.9513 22.3827C76.8127 22.382 78.6742 22.3852 80.5357 22.3906C82.6869 22.3969 84.838 22.3973 86.9892 22.3945C89.0598 22.392 91.1304 22.3935 93.201 22.3968C94.0816 22.3981 94.9623 22.3981 95.8429 22.397C96.8802 22.3959 97.9175 22.3982 98.9547 22.4033C99.3351 22.4046 99.7155 22.4047 100.096 22.4035C100.616 22.4022 101.135 22.4051 101.655 22.4091C101.946 22.4097 102.237 22.4103 102.536 22.4108C103.713 22.5434 104.474 22.9225 105.276 23.789C106.009 24.8749 106.052 25.9169 105.906 27.1875C105.593 28.2085 105.108 28.7317 104.23 29.336C102.697 30.0571 100.974 29.8962 99.317 29.8869C98.9342 29.8882 98.5513 29.8899 98.1685 29.8919C97.1327 29.8962 96.097 29.8945 95.0611 29.8915C93.975 29.8892 92.8889 29.8914 91.8028 29.8928C89.9792 29.8945 88.1556 29.8923 86.332 29.8878C84.2263 29.8827 82.1207 29.8844 80.0151 29.8895C78.2043 29.8938 76.3936 29.8944 74.5828 29.8919C73.5026 29.8905 72.4224 29.8903 71.3421 29.8934C70.3264 29.8961 69.3107 29.8942 68.2949 29.8888C67.923 29.8876 67.5512 29.8879 67.1793 29.89C63.6754 29.9077 63.6754 29.9077 62.0775 28.8281C61.2462 27.976 61.073 27.2891 61.0228 26.1328C61.0698 24.9795 61.2738 24.3046 62.0775 23.4375C63.1336 22.6056 63.8176 22.3827 65.156 22.3825Z" fill="white"/>
<path d="M84.543 35.5037C84.7441 35.502 84.9451 35.5004 85.1523 35.4987C85.8128 35.4946 86.473 35.4973 87.1335 35.5005C87.5949 35.4998 88.0563 35.4989 88.5177 35.4978C89.4831 35.4964 90.4484 35.4984 91.4137 35.5028C92.6487 35.5081 93.8835 35.505 95.1184 35.4994C96.0707 35.496 97.0229 35.4971 97.9752 35.4995C98.4305 35.5002 98.8857 35.4994 99.341 35.4972C99.9782 35.4948 100.615 35.4985 101.252 35.5037C101.439 35.5018 101.625 35.4999 101.818 35.4979C103.126 35.5176 103.886 35.822 104.968 36.5625C105.856 37.5391 105.99 38.4831 105.97 39.7623C105.865 40.664 105.546 41.2641 104.968 41.9531C103.7 42.8391 102.783 43.0282 101.256 43.0156C101.055 43.0177 100.855 43.0197 100.648 43.0218C99.9886 43.0271 99.3294 43.0255 98.6701 43.0234C98.2092 43.0246 97.7484 43.0261 97.2876 43.0278C96.3232 43.0302 95.3589 43.0291 94.3945 43.0257C93.1616 43.0217 91.929 43.0272 90.6961 43.0354C89.7449 43.0406 88.7936 43.0402 87.8424 43.0383C87.388 43.0381 86.9335 43.0397 86.4792 43.0432C85.8425 43.0473 85.2063 43.0438 84.5696 43.0385C84.3839 43.0413 84.1982 43.044 84.0068 43.0468C82.6213 43.0234 81.6645 42.5996 80.593 41.7187C79.7975 40.625 79.6889 39.5142 79.8899 38.2031C80.2742 37.0364 80.9095 36.4036 81.9951 35.8155C82.8335 35.4777 83.6495 35.4946 84.543 35.5037Z" fill="white"/>
<path d="M84.864 48.7085C85.0577 48.707 85.2514 48.7054 85.451 48.7038C86.0913 48.6992 86.7315 48.6965 87.3718 48.6941C87.591 48.6932 87.8102 48.6922 88.036 48.6912C89.1961 48.6864 90.3563 48.683 91.5164 48.6808C92.7122 48.6782 93.9079 48.6702 95.1037 48.6608C96.0254 48.6547 96.9471 48.6528 97.8688 48.6519C98.3095 48.6508 98.7502 48.6481 99.1908 48.6437C99.809 48.638 100.427 48.6382 101.045 48.6398C101.225 48.6368 101.406 48.6338 101.591 48.6307C102.879 48.643 103.902 48.948 104.968 49.6875C105.833 50.671 106.047 51.6407 105.981 52.9358C105.82 54.0115 105.405 54.6569 104.617 55.3857C103.559 56.0994 102.585 56.0517 101.355 56.0534C101.154 56.0545 100.953 56.0557 100.745 56.0569C100.079 56.0603 99.4121 56.0619 98.7454 56.0632C98.2821 56.0646 97.8188 56.0659 97.3555 56.0673C96.3836 56.0697 95.4117 56.0711 94.4397 56.0719C93.1953 56.0732 91.9509 56.0788 90.7065 56.0855C89.7492 56.0899 88.7919 56.0911 87.8347 56.0914C87.3759 56.0922 86.9172 56.094 86.4585 56.0971C85.8162 56.1011 85.1739 56.1007 84.5316 56.0992C84.3427 56.1013 84.1538 56.1035 83.9592 56.1057C82.821 56.0973 82.051 55.9354 81.062 55.3125C80.0425 54.2103 79.8052 53.3263 79.8242 51.8628C79.961 50.7536 80.6242 50.11 81.4136 49.3799C82.5023 48.645 83.5829 48.7129 84.864 48.7085Z" fill="white"/>
</g>
<defs>
<clipPath id="clip0_127_570">
<rect width="120" height="120" fill="white" transform="translate(0.90564)"/>
</clipPath>
</defs>
</svg>
