<svg width="120" height="120" viewBox="0 0 120 120" fill="none" xmlns="http://www.w3.org/2000/svg">
<g clip-path="url(#clip0_127_509)">
<path d="M42.1268 24.4443C42.9868 25.1477 43.7602 25.9199 44.5313 26.7187C44.7041 26.8843 44.8769 27.0498 45.055 27.2204C48.0591 30.2711 49.2966 34.6053 49.336 38.7744C49.2914 43.4998 47.8546 47.8162 44.4617 51.1853C44.2526 51.3871 44.0436 51.5889 43.8282 51.7968C43.6626 51.9697 43.497 52.1425 43.3264 52.3205C41.5356 54.084 39.1305 55.2221 36.736 55.9242C36.5272 55.9857 36.3185 56.0473 36.1034 56.1107C35.8666 56.1796 35.8666 56.1796 35.625 56.25C35.7787 56.2508 35.9324 56.2517 36.0907 56.2526C37.707 56.2624 39.3232 56.2788 40.9394 56.2986C41.5406 56.3052 42.1418 56.3102 42.743 56.3135C49.2121 56.3513 49.2121 56.3513 52.0313 57.4218C52.3136 57.5262 52.3136 57.5262 52.6016 57.6328C53.0655 57.8206 53.5059 58.0269 53.9502 58.2568C54.1044 58.3354 54.2587 58.4139 54.4175 58.4948C56.0497 59.3718 57.3174 60.5477 58.5938 61.875C58.7494 62.0287 58.905 62.1825 59.0653 62.341C60.96 64.3294 63.0469 67.7264 63.0469 70.5468C63.1957 70.5419 63.3446 70.537 63.4979 70.532C64.1776 70.5124 64.8573 70.5003 65.5371 70.4882C65.7713 70.4804 66.0054 70.4725 66.2467 70.4644C67.6409 70.446 68.5383 70.4909 69.6094 71.4843C70.5295 72.7782 70.4619 73.9315 70.3125 75.4687C70.1216 76.36 69.8412 77.2027 69.5352 78.0606C69.4566 78.2931 69.3781 78.5257 69.2971 78.7652C69.0487 79.4989 68.7949 80.2305 68.5401 80.9619C68.2849 81.6993 68.031 82.4371 67.7805 83.1761C67.6253 83.6336 67.4674 84.0901 67.3064 84.5456C67.236 84.7522 67.1656 84.9589 67.093 85.1719C67.03 85.3523 66.9671 85.5328 66.9022 85.7187C66.7753 86.3589 66.8521 86.7977 67.0313 87.4218C67.3593 87.8609 67.3593 87.8609 67.7783 88.2568C70.0492 90.7149 70.4453 93.3384 70.3922 96.5295C70.2641 99.4302 68.8059 101.717 66.7237 103.652C64.7377 105.263 62.524 106.021 60 105.937C59.9377 106.238 59.8755 106.538 59.8113 106.848C59.5451 108.043 59.1863 109.195 58.8007 110.357C58.7307 110.569 58.6608 110.781 58.5887 111C58.4415 111.445 58.2938 111.89 58.1455 112.334C57.92 113.012 57.6979 113.692 57.4759 114.371C57.3318 114.805 57.1874 115.24 57.0429 115.674C56.9774 115.876 56.9119 116.077 56.8445 116.285C56.4004 117.602 55.9518 118.808 54.8108 119.681C53.9636 120.084 53.2195 120.098 52.3008 120.091C52.117 120.092 51.9333 120.093 51.7439 120.095C51.1289 120.098 50.5141 120.096 49.8991 120.095C49.4578 120.096 49.0166 120.098 48.5754 120.1C47.3773 120.104 46.1794 120.103 44.9813 120.102C43.9813 120.101 42.9812 120.103 41.9811 120.104C39.6219 120.108 37.2627 120.107 34.9034 120.105C32.4693 120.102 30.0353 120.105 27.6012 120.111C25.5114 120.117 23.4216 120.118 21.3318 120.117C20.0836 120.116 18.8355 120.117 17.5873 120.121C16.4136 120.124 15.24 120.123 14.0663 120.119C13.6357 120.118 13.205 120.119 12.7744 120.121C12.1863 120.124 11.5984 120.122 11.0103 120.117C10.8401 120.12 10.6699 120.122 10.4945 120.124C9.31297 120.107 8.64706 119.8 7.73441 119.062C7.01815 118.16 6.94494 117.474 6.95146 116.338C6.9513 116.111 6.9513 116.111 6.95115 115.88C6.95163 115.384 6.95709 114.888 6.96262 114.392C6.96393 114.047 6.96493 113.702 6.96563 113.357C6.96831 112.451 6.97521 111.545 6.983 110.639C6.99021 109.714 6.99341 108.789 6.99695 107.863C7.00448 106.049 7.01647 104.236 7.03128 102.422C6.81749 102.321 6.81749 102.321 6.59938 102.219C3.14513 100.403 1.33039 96.1012 0.234405 92.5781C0.00211665 91.4552 -0.0374159 90.3564 -0.0414548 89.214C-0.0429949 89.0225 -0.044535 88.8309 -0.0461218 88.6336C-0.0507232 88.0026 -0.0534756 87.3717 -0.0558171 86.7407C-0.0567723 86.5237 -0.0577261 86.3067 -0.0587103 86.0831C-0.0635906 84.9335 -0.0669472 83.7839 -0.0691495 82.6343C-0.0717342 81.455 -0.0797902 80.2757 -0.0891122 79.0964C-0.0952812 78.1826 -0.0972041 77.2689 -0.0980422 76.3552C-0.0991742 75.9209 -0.101874 75.4866 -0.106257 75.0524C-0.137656 71.7337 0.238061 68.8366 1.77249 65.83C1.85121 65.6746 1.92994 65.5192 2.01104 65.359C2.88792 63.7171 4.06003 62.4563 5.39065 61.1718C5.55622 60.999 5.72178 60.8262 5.89236 60.6482C6.91135 59.6447 8.02583 58.9531 9.28714 58.3007C9.42829 58.2263 9.56944 58.152 9.71486 58.0753C10.2186 57.8293 10.7262 57.622 11.25 57.4218C11.5826 57.2946 11.5826 57.2946 11.9219 57.1648C15.006 56.1694 18.2224 56.3263 21.4307 56.3086C22.0357 56.3019 22.6407 56.2949 23.2457 56.2875C24.7159 56.2703 26.186 56.2581 27.6563 56.25C27.4197 56.1742 27.183 56.0984 26.9392 56.0204C26.6231 55.9175 26.307 55.8146 25.9909 55.7116C25.758 55.6374 25.758 55.6374 25.5204 55.5616C22.9304 54.7128 20.9036 53.2378 18.9844 51.3281C18.8034 51.1553 18.6225 50.9825 18.436 50.8044C16.8334 49.1717 15.8832 47.3187 15 45.2343C14.8928 44.9848 14.7855 44.7352 14.675 44.4781C13.4058 40.8888 13.5019 36.0751 15 32.5781C15.0617 32.4291 15.1234 32.2802 15.1869 32.1267C16.2194 29.682 17.5517 27.8511 19.4532 26.0156C19.6187 25.8428 19.7843 25.67 19.9549 25.4919C25.6257 19.9076 35.8845 19.7972 42.1268 24.4443ZM23.2068 32.6413C21.3264 35.1885 21.0766 37.9501 21.3282 41.0156C21.9146 43.8574 23.717 46.1156 26.0157 47.8125C28.6655 49.2866 31.5483 49.6731 34.5264 49.0585C37.2201 48.1364 39.5373 46.3461 40.9314 43.84C42.135 41.2494 42.5152 38.1302 41.5723 35.3759C40.2782 32.4327 38.2441 30.2857 35.2606 29.0332C30.7303 27.4121 26.2408 29.1352 23.2068 32.6413ZM9.37503 67.5C7.13659 70.5098 6.99515 73.6584 6.99191 77.2888C6.99113 77.5959 6.99035 77.903 6.98955 78.2195C6.98815 78.8671 6.98771 79.5148 6.98785 80.1625C6.98787 80.9837 6.98468 81.8049 6.98064 82.6261C6.97737 83.4203 6.97754 84.2144 6.97726 85.0085C6.97558 85.2989 6.9739 85.5893 6.97216 85.8885C6.98248 89.8855 7.61272 93.0851 10.448 96.0489C13.1551 98.4983 16.2709 98.9516 19.7837 98.9291C20.0835 98.9286 20.0835 98.9286 20.3894 98.9281C21.0197 98.9268 21.65 98.9239 22.2803 98.9209C22.7111 98.9197 23.1418 98.9186 23.5726 98.9177C24.6213 98.9151 25.67 98.9111 26.7188 98.9062C27.0205 98.0183 27.3209 97.13 27.62 96.2412C27.7219 95.9389 27.8242 95.6368 27.9269 95.3348C28.0745 94.9005 28.2206 94.4658 28.3667 94.031C28.4551 93.7696 28.5435 93.5082 28.6345 93.2388C28.8611 92.5804 28.8611 92.5804 28.8282 91.875C28.5942 91.8729 28.5942 91.8729 28.3556 91.8708C26.732 91.8558 25.1086 91.836 23.4852 91.8135C22.8794 91.8057 22.2735 91.7991 21.6676 91.7938C20.7967 91.7859 19.9258 91.7736 19.0549 91.7605C18.7841 91.759 18.5133 91.7575 18.2343 91.756C17.981 91.7514 17.7277 91.7467 17.4667 91.7419C17.2445 91.7393 17.0223 91.7367 16.7933 91.734C15.7908 91.5833 15.2103 91.2006 14.5809 90.4129C14.2229 89.5969 14.2076 88.9714 14.2059 88.0806C14.2047 87.9154 14.2035 87.7502 14.2022 87.5801C14.1991 87.0365 14.2011 86.4932 14.2035 85.9497C14.203 85.5706 14.2024 85.1914 14.2015 84.8123C14.2004 84.0187 14.2019 83.2252 14.2052 82.4316C14.2092 81.4157 14.2069 80.4 14.2027 79.3841C14.2002 78.6015 14.201 77.819 14.2028 77.0364C14.2033 76.6619 14.2027 76.2874 14.2011 75.9129C14.1993 75.3889 14.202 74.8652 14.2059 74.3412C14.2065 74.0434 14.207 73.7456 14.2076 73.4388C14.3039 72.5947 14.4945 72.159 15 71.4843C15.8588 70.8199 16.5025 70.6851 17.5782 70.6933C17.815 70.6915 18.0519 70.6897 18.2959 70.6878C19.098 70.7966 19.5173 70.99 20.1563 71.4843C20.7463 72.3153 20.9484 72.8933 20.9607 73.908C20.9677 74.2739 20.9677 74.2739 20.9748 74.6472C20.9763 74.9077 20.9778 75.1682 20.9793 75.4367C20.9835 75.7055 20.9878 75.9744 20.9921 76.2514C21.0048 77.1087 21.0127 77.9659 21.0205 78.8232C21.0283 79.405 21.0364 79.9868 21.0448 80.5687C21.0653 81.9937 21.0794 83.4186 21.0938 84.8437C24.4196 84.8437 27.7453 84.8437 31.1719 84.8437C31.7952 83.2854 32.3777 81.7507 32.894 80.159C33.0373 79.7233 33.1805 79.2877 33.3238 78.852C33.5455 78.1754 33.7667 77.4986 33.9872 76.8216C34.2026 76.1612 34.4198 75.5013 34.6372 74.8416C34.7024 74.6397 34.7676 74.4377 34.8348 74.2297C35.6248 71.8397 35.6248 71.8397 36.5901 71.1083C37.4304 70.7015 38.1631 70.678 39.0769 70.6799C39.3446 70.6763 39.3446 70.6763 39.6177 70.6726C40.2049 70.6656 40.7919 70.6634 41.3791 70.6613C41.7873 70.6573 42.1955 70.6531 42.6037 70.6485C43.676 70.6374 44.7483 70.6304 45.8206 70.6243C46.9157 70.6173 48.0107 70.6064 49.1057 70.5958C51.2528 70.5757 53.3998 70.5599 55.5469 70.5468C55.3327 70.0985 55.1162 69.6514 54.8987 69.2047C54.7784 68.9555 54.6581 68.7064 54.5341 68.4497C53.2498 66.1146 50.8706 64.6983 48.3975 63.8772C46.591 63.4842 44.7697 63.4808 42.9302 63.4815C42.6605 63.4808 42.3908 63.48 42.1129 63.4792C41.2259 63.4769 40.3389 63.4765 39.4519 63.4762C38.9886 63.4757 38.5253 63.4751 38.062 63.4745C36.6064 63.4726 35.1507 63.472 33.6951 63.4722C32.2012 63.4723 30.7073 63.4698 29.2135 63.4661C27.9242 63.463 26.6349 63.4618 25.3456 63.462C24.5785 63.462 23.8115 63.4612 23.0445 63.4589C22.1871 63.4566 21.3297 63.4573 20.4724 63.4587C20.2236 63.4573 19.9749 63.456 19.7187 63.4547C15.5866 63.4717 12.2252 64.3501 9.37503 67.5ZM41.25 77.5781C40.2192 80.666 39.1883 83.7538 38.1582 86.8419C37.6041 88.5028 37.0499 90.1637 36.4953 91.8244C33.7661 99.9907 33.7661 99.9907 31.0739 108.169C30.9526 108.541 30.8311 108.912 30.7092 109.283C30.5458 109.78 30.3838 110.278 30.2223 110.776C30.0886 111.186 30.0886 111.186 29.9522 111.605C29.7338 112.264 29.7338 112.264 29.7657 112.969C36.4946 112.969 43.2235 112.969 50.1563 112.969C51.5979 109.516 51.5979 109.516 52.2657 105.937C52.0143 105.841 51.7629 105.744 51.5039 105.644C50.5719 105.246 49.9149 104.752 49.4532 103.828C49.428 103.301 49.4182 102.772 49.4154 102.244C49.4136 102 49.4136 102 49.4119 101.751C49.4084 101.211 49.4068 100.672 49.4055 100.132C49.4042 99.7572 49.4028 99.3824 49.4015 99.0075C49.399 98.2208 49.3977 97.4341 49.3968 96.6473C49.3956 95.6401 49.3899 94.6329 49.3833 93.6257C49.3789 92.851 49.3777 92.0763 49.3773 91.3016C49.3766 90.9303 49.3747 90.5591 49.3716 90.1878C49.3676 89.6678 49.3681 89.1479 49.3696 88.6278C49.3683 88.1841 49.3683 88.1841 49.367 87.7315C49.4859 86.6575 49.8351 86.0437 50.6669 85.3639C51.5248 84.9931 52.3177 84.9661 53.237 84.9582C53.5077 84.9518 53.5077 84.9518 53.7837 84.9454C54.3568 84.9328 54.9298 84.9248 55.503 84.917C55.8928 84.9092 56.2827 84.9011 56.6725 84.8927C57.6255 84.8723 58.5782 84.8581 59.5313 84.8437C60.3047 82.4461 61.0781 80.0484 61.875 77.5781C55.0688 77.5781 48.2625 77.5781 41.25 77.5781ZM56.25 91.875C56.25 94.1953 56.25 96.5156 56.25 98.9062C59.3961 99.1207 59.3961 99.1207 62.0655 97.8662C62.9885 96.7849 63.1513 96.1898 63.1211 94.8065C63.0116 93.9393 62.6893 93.4551 62.1094 92.8125C60.331 91.4901 58.4673 91.875 56.25 91.875ZM14.0625 105.703C14.0625 108.101 14.0625 110.498 14.0625 112.969C16.6922 112.969 19.3219 112.969 22.0313 112.969C22.3793 111.939 22.7274 110.909 23.086 109.849C23.1961 109.525 23.3062 109.201 23.4197 108.867C23.5053 108.612 23.591 108.356 23.6792 108.094C23.7676 107.832 23.856 107.571 23.947 107.301C24.1736 106.643 24.1736 106.643 24.1407 105.937C20.8149 105.86 17.4891 105.783 14.0625 105.703Z" fill="white"/>
<path d="M66.3428 -0.0361151C66.5348 -0.0371422 66.7268 -0.0381692 66.9246 -0.0392275C67.5688 -0.042361 68.2131 -0.0438125 68.8573 -0.0452489C69.3189 -0.0471011 69.7806 -0.0490391 70.2422 -0.0510568C71.7595 -0.0571996 73.2768 -0.0607904 74.7941 -0.0641316C75.317 -0.0653881 75.8399 -0.0666484 76.3628 -0.0679127C78.5388 -0.0729822 80.7149 -0.0773731 82.8909 -0.0800117C86.0058 -0.0838138 89.1207 -0.0915797 92.2356 -0.104949C94.4275 -0.114035 96.6194 -0.118599 98.8114 -0.119837C100.119 -0.120691 101.428 -0.123488 102.736 -0.131111C103.968 -0.138188 105.2 -0.139631 106.432 -0.13688C106.882 -0.136829 107.333 -0.138757 107.783 -0.142893C111.646 -0.176419 114.446 0.440327 117.345 3.18324C118.974 4.9085 120.023 7.18298 120.036 9.5499C120.038 9.82485 120.04 10.0998 120.042 10.3831C120.044 10.8344 120.044 10.8344 120.045 11.2948C120.047 11.6155 120.049 11.9363 120.051 12.2571C120.057 13.3102 120.061 14.3634 120.064 15.4165C120.065 15.7801 120.067 16.1437 120.068 16.5072C120.073 18.021 120.077 19.5348 120.08 21.0485C120.084 23.2118 120.092 25.375 120.105 27.5383C120.114 29.0624 120.119 30.5865 120.12 32.1107C120.121 33.0193 120.124 33.9278 120.131 34.8363C120.138 35.693 120.14 36.5495 120.137 37.4062C120.137 37.8655 120.143 38.3248 120.148 38.7841C120.126 42.0174 119.017 44.473 116.817 46.798C115.506 48.0358 113.59 49.16 111.797 49.4531C111.152 49.4147 110.518 49.3607 109.876 49.2929C97.5785 47.7613 97.5785 47.7613 86.4121 51.7572C82.8275 54.7407 79.8254 58.4412 77.1317 62.2312C76.4484 63.0401 75.8388 63.4603 74.7886 63.6172C73.3476 63.6191 72.3486 63.6202 71.2501 62.5781C70.2712 61.4299 70.458 60.1033 70.4783 58.677C70.4793 58.4134 70.4803 58.1497 70.4813 57.8781C70.4852 57.0375 70.4941 56.197 70.503 55.3564C70.5065 54.7859 70.5098 54.2154 70.5126 53.6448C70.5204 52.2475 70.5321 50.8503 70.547 49.4531C70.3603 49.4584 70.1737 49.4637 69.9814 49.4692C65.4545 49.5926 62.33 49.5107 58.9051 46.2698C57.2764 44.5445 56.227 42.2701 56.214 39.9031C56.212 39.6282 56.21 39.3532 56.2079 39.07C56.2069 38.7691 56.2059 38.4683 56.2049 38.1583C56.203 37.8375 56.2011 37.5167 56.1991 37.1959C56.1929 36.1428 56.1893 35.0897 56.186 34.0365C56.1847 33.673 56.1835 33.3094 56.1822 32.9458C56.1772 31.432 56.1728 29.9183 56.1701 28.4045C56.1663 26.2412 56.1586 24.078 56.1452 21.9147C56.1361 20.3906 56.1315 18.8665 56.1303 17.3423C56.1294 16.4337 56.1267 15.5253 56.119 14.6167C56.1119 13.76 56.1105 12.9035 56.1133 12.0468C56.1133 11.5875 56.1076 11.1282 56.1017 10.669C56.1241 7.43566 57.2333 4.98003 59.4334 2.65498C61.3754 0.821599 63.7246 -0.0344125 66.3428 -0.0361151ZM64.4972 8.07124C63.4649 9.28051 63.253 10.196 63.25 11.7533C63.249 11.9912 63.248 12.2291 63.247 12.4741C63.2471 12.7325 63.2472 12.9909 63.2473 13.2571C63.2465 13.5313 63.2457 13.8054 63.2449 14.0879C63.2427 14.9943 63.2422 15.9008 63.242 16.8072C63.2416 17.1201 63.2413 17.433 63.2409 17.7459C63.2387 19.3844 63.2377 21.023 63.2379 22.6615C63.2381 24.1863 63.2356 25.7111 63.2319 27.2359C63.2288 28.5472 63.2276 29.8585 63.2277 31.1699C63.2278 31.9521 63.2269 32.7343 63.2246 33.5165C63.2223 34.3894 63.223 35.2623 63.2244 36.1352C63.2231 36.3927 63.2218 36.6501 63.2204 36.9154C63.2195 39.2341 63.2195 39.2341 64.3214 41.206C65.7557 42.4305 66.9378 42.4539 68.7672 42.4713C69.1532 42.4778 69.5393 42.4846 69.9253 42.4914C70.5301 42.5011 71.1349 42.5097 71.7398 42.5159C72.3262 42.5224 72.9123 42.5331 73.4986 42.5445C73.7686 42.5457 73.7686 42.5457 74.044 42.5468C75.1046 42.5711 75.8138 42.6775 76.6407 43.3593C77.3412 44.2541 77.4382 44.9598 77.4638 46.0812C77.4721 46.3735 77.4804 46.6658 77.489 46.967C77.4969 47.4217 77.4969 47.4217 77.505 47.8857C77.513 48.1934 77.521 48.5011 77.5292 48.8182C77.5485 49.5767 77.5648 50.3351 77.5782 51.0937C78.6812 50.1747 79.718 49.2161 80.7221 48.1906C80.9998 47.9099 81.2775 47.6293 81.5553 47.3487C81.9856 46.9125 82.4156 46.476 82.845 46.0388C83.2643 45.6124 83.685 45.1876 84.1059 44.7628C84.2968 44.5673 84.2968 44.5673 84.4915 44.3677C84.6128 44.2456 84.7341 44.1235 84.8591 43.9977C84.9639 43.8911 85.0688 43.7845 85.1768 43.6747C86.407 42.6266 87.3508 42.5542 88.9128 42.5623C89.1321 42.5607 89.3513 42.559 89.5773 42.5574C90.3011 42.5527 91.0249 42.5528 91.7487 42.5527C92.2529 42.55 92.757 42.5469 93.2611 42.5434C94.5882 42.5349 95.9153 42.5302 97.2425 42.5266C99.365 42.5208 101.487 42.5115 103.61 42.498C104.35 42.4942 105.091 42.4933 105.831 42.4926C106.287 42.4903 106.743 42.4879 107.199 42.4854C107.403 42.486 107.608 42.4866 107.819 42.4872C109.317 42.4747 110.578 42.4 111.753 41.3818C112.785 40.1725 112.997 39.2571 113 37.6997C113.001 37.4618 113.002 37.224 113.003 36.9789C113.003 36.7205 113.003 36.4621 113.003 36.1959C113.004 35.9218 113.004 35.6476 113.005 35.3652C113.007 34.4587 113.008 33.5523 113.008 32.6458C113.009 32.3329 113.009 32.0201 113.009 31.7072C113.011 30.0686 113.012 28.4301 113.012 26.7915C113.012 25.2667 113.015 23.7419 113.018 22.2172C113.021 20.9058 113.023 19.5945 113.022 18.2831C113.022 17.5009 113.023 16.7187 113.026 15.9365C113.028 15.0636 113.027 14.1907 113.026 13.3178C113.027 13.0603 113.028 12.8029 113.03 12.5377C113.031 10.2189 113.031 10.2189 111.929 8.24703C110.556 7.07491 109.456 6.99593 107.704 6.99987C107.53 6.99934 107.356 6.9988 107.177 6.99826C106.595 6.99678 106.013 6.99697 105.431 6.99716C105.013 6.99646 104.595 6.99566 104.177 6.99477C103.043 6.9927 101.909 6.99215 100.775 6.992C100.066 6.99184 99.3575 6.99134 98.6488 6.99072C96.1759 6.98855 93.7031 6.98759 91.2302 6.98777C88.9258 6.98792 86.6214 6.98544 84.317 6.98174C82.3379 6.97868 80.3587 6.97742 78.3796 6.97757C77.1979 6.97763 76.0161 6.97696 74.8344 6.97448C73.7228 6.97221 72.6113 6.97219 71.4998 6.9739C71.0923 6.97414 70.6848 6.97359 70.2773 6.97217C69.7201 6.97036 69.163 6.97145 68.6058 6.97326C68.3652 6.97145 68.3652 6.97145 68.1197 6.96961C66.7266 6.97954 65.5663 7.14466 64.4972 8.07124Z" fill="white"/>
<path d="M96.5625 17.8125C97.6458 18.3256 98.1356 18.8674 98.6719 19.9218C98.79 20.5856 98.79 20.5856 98.8037 21.2841C98.8187 21.6272 98.8187 21.6272 98.8339 21.9772C98.4013 23.9984 96.3728 25.5708 94.9649 26.9723C94.7437 27.1938 94.5226 27.4154 94.3015 27.6371C93.8411 28.0982 93.3799 28.5584 92.9181 29.018C92.3281 29.6053 91.7402 30.1947 91.153 30.7848C90.5888 31.351 90.0229 31.9155 89.4571 32.4801C89.2471 32.6911 89.0371 32.902 88.8208 33.1193C88.6236 33.315 88.4265 33.5107 88.2234 33.7123C88.0512 33.8841 87.879 34.0559 87.7016 34.2329C86.7275 35.0942 85.9595 35.4967 84.6533 35.5224C84.3103 35.5374 84.3103 35.5374 83.9603 35.5526C81.864 35.104 80.2495 32.9916 78.7939 31.5381C78.5735 31.3234 78.3531 31.1087 78.1261 30.8876C76.7152 29.4828 75.8414 28.5111 75.5859 26.499C75.6347 25.3603 76.1373 24.5185 76.875 23.6718C77.9051 22.9393 78.9172 22.7692 80.1562 22.9687C81.9564 23.4804 83.139 24.9228 84.375 26.25C85.0611 25.9407 85.5413 25.6086 86.0673 25.0722C86.2089 24.929 86.3505 24.7859 86.4964 24.6384C86.6468 24.4841 86.7972 24.3298 86.9522 24.1708C87.1094 24.0119 87.2665 23.8529 87.4285 23.6892C88.0998 23.0102 88.7683 22.3285 89.437 21.6471C89.9261 21.1495 90.4167 20.6533 90.9073 20.1571C91.1322 19.9264 91.1322 19.9264 91.3616 19.691C93.0027 18.0321 94.1994 17.5243 96.5625 17.8125Z" fill="white"/>
</g>
<defs>
<clipPath id="clip0_127_509">
<rect width="120" height="120" fill="white"/>
</clipPath>
</defs>
</svg>
