<svg width="121" height="120" viewBox="0 0 121 120" fill="none" xmlns="http://www.w3.org/2000/svg">
<path d="M66.6896 8.81835C68.5945 10.4121 69.8638 12.2518 71.0256 14.4287C71.3098 14.949 71.5946 15.469 71.8798 15.9888C72.0238 16.2522 72.1678 16.5157 72.3161 16.7871C73.0124 18.0446 73.7393 19.2835 74.4679 20.5225C75.7179 22.6528 76.9447 24.7943 78.1447 26.9531C78.3686 26.857 78.5925 26.761 78.8231 26.662C80.6057 25.9125 82.2973 25.2704 84.2385 25.0781C84.4191 25.0588 84.5998 25.0394 84.7859 25.0195C88.2094 24.8375 91.5767 26.235 94.1408 28.418C96.5559 30.7182 98.1271 33.6798 98.3486 37.0532C98.4037 41.0563 97.3632 44.3803 94.6129 47.3193C93.6714 48.2788 92.66 49.0137 91.5041 49.6875C92.405 51.5403 93.3687 53.3355 94.4191 55.1074C94.7067 55.5968 94.9942 56.0863 95.2815 56.5759C95.4298 56.828 95.5781 57.0802 95.7308 57.3399C96.519 58.6829 97.3009 60.0294 98.0812 61.3769C98.2262 61.6259 98.3712 61.8749 98.5206 62.1315C101.824 67.8395 101.824 67.8395 101.113 71.4844C100.461 73.8452 99.0986 75.7754 97 77.0581C94.6694 78.2178 92.2163 78.4053 89.7527 77.5918C88.4463 77.0447 87.2876 76.2515 86.1135 75.4687C85.3531 75.4903 85.3531 75.4903 84.4811 75.6299C84.2363 75.6641 84.2363 75.6641 83.9865 75.699C83.4499 75.7752 82.914 75.856 82.3781 75.9375C82.194 75.9648 82.0098 75.992 81.8201 76.0201C71.3729 77.5715 60.6263 80.3326 51.148 85.0975C50.9803 85.1817 50.8125 85.2659 50.6397 85.3527C50.5125 85.4168 50.3852 85.4808 50.2541 85.5469C50.4404 85.7317 50.6268 85.9165 50.8188 86.1069C52.576 87.8498 54.3314 89.5946 56.0849 91.3413C56.9865 92.2392 57.8887 93.1364 58.7923 94.0321C59.6647 94.8968 60.5352 95.7631 61.4046 96.6307C61.7364 96.9612 62.0688 97.291 62.4018 97.6202C62.8686 98.082 63.3332 98.5458 63.7973 99.0103C63.935 99.1455 64.0728 99.2807 64.2147 99.42C65.098 100.31 65.8509 101.199 66.0323 102.486C65.9361 103.52 65.7232 104.164 65.0158 104.936C64.8675 105.098 64.7193 105.26 64.5666 105.427C63.7248 106.314 62.8707 107.187 62.0067 108.052C61.8136 108.246 61.6204 108.44 61.4214 108.64C61.0162 109.046 60.6106 109.453 60.2048 109.858C59.5833 110.48 58.9637 111.104 58.3441 111.728C57.9489 112.124 57.5535 112.52 57.1581 112.916C56.9732 113.102 56.7884 113.289 56.598 113.481C56.425 113.653 56.2521 113.825 56.0739 114.003C55.9227 114.154 55.7715 114.306 55.6158 114.462C54.8994 115.084 54.3955 115.298 53.4474 115.386C51.5792 115.225 50.5407 114.057 49.2892 112.787C49.1039 112.602 48.9185 112.416 48.7275 112.225C48.1171 111.615 47.5093 111.001 46.9014 110.388C46.4779 109.963 46.0543 109.538 45.6305 109.114C44.6307 108.112 43.6325 107.108 42.635 106.103C41.4988 104.959 40.3606 103.817 39.2222 102.675C36.8816 100.327 34.5436 97.9771 32.2072 95.625C32.0637 95.6733 31.9202 95.7215 31.7723 95.7713C31.5834 95.8346 31.3944 95.8979 31.1997 95.9632C30.9192 96.0573 30.9192 96.0573 30.633 96.1534C25.6136 97.7922 20.5426 97.5856 15.7479 95.2579C10.7514 92.4756 8.39624 88.3112 5.67831 83.4788C5.29387 82.8042 4.89943 82.1376 4.49694 81.4737C1.51893 76.5489 0.282054 71.4111 1.65056 65.7129C2.46782 62.9231 3.77405 60.5222 5.72283 58.3594C5.94036 58.1011 5.94036 58.1011 6.16228 57.8375C7.81515 56.0103 9.93987 54.8885 12.051 53.6719C12.528 53.3951 13.0049 53.1183 13.4819 52.8415C15.2859 51.7974 17.0917 50.7563 18.9026 49.7243C21.9684 47.9772 24.9217 46.1688 27.7541 44.0625C28.1271 43.7888 28.1271 43.7888 28.5076 43.5095C29.199 42.9971 29.8841 42.4774 30.5666 41.9531C30.6936 41.8557 30.8206 41.7582 30.9514 41.6579C35.1004 38.4655 38.9573 34.983 42.671 31.296C42.9176 31.0513 43.1646 30.8069 43.412 30.5628C44.8371 29.155 46.1691 27.7223 47.4203 26.154C47.8861 25.5769 48.3674 25.0213 48.8625 24.4693C52.1105 21.2015 52.1105 21.2015 53.5079 17.0347C53.4774 16.5056 53.4358 15.9797 53.3843 15.4523C53.2046 13.4658 53.9872 11.9533 55.1576 10.3894C58.0098 7.19414 63.0914 6.30311 66.6896 8.81835ZM59.6291 14.2969C59.1507 14.9275 59.0538 15.5664 59.0629 16.3549C59.2889 17.5617 60.0392 18.6137 60.6545 19.6582C60.8051 19.9202 60.9557 20.1821 61.1109 20.452C61.5508 21.215 61.9953 21.9751 62.4416 22.7344C62.647 23.0862 62.8524 23.4381 63.0577 23.79C63.4229 24.4134 63.7905 25.0354 64.1591 25.6567C64.94 26.9762 65.7044 28.3053 66.4699 29.6338C66.6194 29.8933 66.769 30.1528 66.923 30.4202C67.2296 30.9523 67.5361 31.4846 67.8426 32.0168C68.5806 33.298 69.3197 34.5787 70.0588 35.8594C70.3517 36.3672 70.6447 36.875 70.9377 37.3828C71.0827 37.6342 71.2277 37.8855 71.3771 38.1445C72.6955 40.4297 72.6955 40.4297 73.135 41.1915C73.4278 41.699 73.7205 42.2064 74.0133 42.7138C74.7491 43.9889 75.4845 45.2642 76.2194 46.5399C77.6308 48.9895 79.0463 51.4366 80.4738 53.8769C81.6633 55.9108 82.8374 57.953 84.0041 60C85.2122 62.1187 86.4253 64.2344 87.6515 66.3428C87.7798 66.5641 87.908 66.7854 88.0402 67.0134C88.6889 68.1257 89.3511 69.229 90.031 70.3226C90.1615 70.5326 90.292 70.7426 90.4265 70.959C90.9369 71.675 91.3533 71.974 92.2072 72.1875C93.1329 72.1713 93.6986 72.036 94.507 71.5869C95.1693 70.8489 95.4021 70.113 95.4885 69.1406C95.2913 68.5028 95.1084 68.066 94.7853 67.5C94.7011 67.3424 94.6168 67.1848 94.53 67.0224C94.2322 66.4738 93.9243 65.932 93.6135 65.3906C93.4959 65.1849 93.3783 64.9793 93.2572 64.7674C92.4404 63.345 91.6088 61.9316 90.7751 60.5191C90.0388 59.2665 89.314 58.0073 88.589 56.748C88.2939 56.236 87.9988 55.7239 87.7037 55.2118C87.5572 54.9575 87.4107 54.7032 87.2598 54.4411C86.5267 53.1688 85.7927 51.8969 85.0588 50.625C84.1767 49.0963 83.2948 47.5675 82.4138 46.0382C81.0023 43.5886 79.5869 41.1415 78.1594 38.7012C76.8886 36.5284 75.6361 34.3455 74.39 32.1585C73.1784 30.0326 71.9525 27.9156 70.715 25.8047C69.8872 24.3899 69.071 22.9691 68.2622 21.5434C66.1053 16.7708 66.1053 16.7708 62.676 13.3594C61.3458 13.2116 60.6545 13.4384 59.6291 14.2969ZM56.5822 24.375C56.3579 24.6231 56.1431 24.8798 55.9322 25.1395C55.7982 25.3035 55.6642 25.4676 55.5261 25.6367C55.3816 25.8149 55.237 25.9931 55.0881 26.1767C54.7861 26.5458 54.4839 26.9148 54.1817 27.2836C54.0316 27.467 53.8815 27.6505 53.7269 27.8395C51.0214 31.1418 48.1398 34.2406 45.1271 37.2656C44.9433 37.4506 44.7594 37.6355 44.57 37.826C43.4555 38.9375 42.3075 39.9906 41.1135 41.0156C40.8424 41.255 40.5717 41.4949 40.3014 41.7352C37.2083 44.465 33.9134 46.9079 30.5824 49.3377C30.4034 49.4685 30.2245 49.5994 30.0402 49.7342C29.8814 49.8498 29.7227 49.9654 29.5591 50.0845C29.1319 50.3986 29.1319 50.3986 28.6916 50.8594C28.7726 50.9979 28.8536 51.1363 28.937 51.279C30.9849 54.7822 33.0198 58.2926 35.0452 61.8088C35.7783 63.0812 36.5123 64.3531 37.2463 65.625C38.2765 67.4104 39.3062 69.196 40.335 70.9823C40.7712 71.7388 41.2087 72.4946 41.6463 73.2504C42.2496 74.2936 42.8453 75.3409 43.4371 76.3907C43.7319 76.9086 44.0266 77.4265 44.3215 77.9443C44.5241 78.3085 44.5241 78.3085 44.7308 78.6801C44.8576 78.9016 44.9845 79.1232 45.1152 79.3515C45.2805 79.645 45.2805 79.645 45.4491 79.9444C45.7663 80.4195 45.7663 80.4195 46.2668 80.5913C47.0612 80.6481 47.6922 80.2195 48.3791 79.8633C59.198 74.5404 71.001 71.7683 82.8322 69.8437C82.563 69.1489 82.2821 68.4838 81.9203 67.8323C81.8331 67.675 81.7459 67.5176 81.6561 67.3555C81.5608 67.1856 81.4655 67.0158 81.3674 66.8408C81.2651 66.6577 81.1629 66.4746 81.0576 66.2859C80.0762 64.5369 79.0642 62.8061 78.0502 61.0759C76.9753 59.24 75.9164 57.3954 74.8635 55.5469C73.5651 53.2684 72.254 50.9979 70.9298 48.7343C69.4874 46.2678 68.061 43.7921 66.6348 41.3161C65.7563 39.7913 64.8765 38.2672 63.9969 36.743C63.2494 35.4475 62.5023 34.1517 61.7559 32.8555C60.8921 31.356 60.0269 29.8573 59.1603 28.3594C58.9736 28.0362 58.9736 28.0362 58.783 27.7065C58.4508 27.1325 58.1174 26.5593 57.7834 25.9863C57.6871 25.8197 57.5907 25.653 57.4915 25.4813C57.2732 25.1086 57.046 24.741 56.8166 24.375C56.7392 24.375 56.6619 24.375 56.5822 24.375ZM81.1916 32.5781C82.1124 34.1776 83.0344 35.7764 83.958 37.3743C84.3688 38.0853 84.7792 38.7967 85.1882 39.5088C85.6371 40.29 86.0875 41.0704 86.5383 41.8506C86.677 42.0929 86.8157 42.3352 86.9586 42.5848C87.0873 42.8069 87.2159 43.029 87.3485 43.2577C87.5175 43.5512 87.5175 43.5512 87.6898 43.8506C87.957 44.3294 87.957 44.3294 88.4572 44.5312C90.5003 43.1622 91.9308 41.6019 92.4416 39.1406C92.7127 37.2695 92.1902 35.4762 91.1425 33.9139C89.7753 32.2526 88.2266 31.3064 86.1135 30.9375C84.1976 30.7601 82.5215 31.1906 81.1916 32.5781ZM23.5353 53.9062C22.9953 54.1362 22.9953 54.1362 22.3891 54.494C22.1525 54.6272 21.916 54.7604 21.6723 54.8976C21.417 55.0442 21.1617 55.1908 20.8986 55.3418C20.6371 55.4906 20.3756 55.6395 20.1062 55.7929C19.5626 56.1031 19.0196 56.4142 18.4774 56.7266C17.7277 57.1578 16.9756 57.5844 16.223 58.0106C12.9584 59.8581 12.9584 59.8581 10.176 62.3437C10.0243 62.5084 9.87262 62.6731 9.71636 62.8427C7.58352 65.358 6.77558 68.526 6.93133 71.781C7.32358 74.6626 8.77722 77.1769 10.2345 79.6435C10.3903 79.9095 10.5461 80.1755 10.7066 80.4496C11.0146 80.975 11.3235 81.4999 11.6331 82.0244C11.9873 82.6263 12.3369 83.2304 12.6836 83.8367C14.6423 87.238 17.0291 89.8736 20.9279 91.0107C27.4901 92.4544 32.6751 88.4675 38.0666 85.3125C38.5975 85.0026 39.1285 84.6929 39.6596 84.3832C39.8937 84.2467 40.1277 84.1101 40.3689 83.9695C40.5373 83.8713 40.7056 83.7731 40.8791 83.6719C39.8663 81.5738 38.7712 79.5594 37.5786 77.5589C36.7755 76.2109 35.9931 74.851 35.2101 73.4912C35.0607 73.2319 34.9113 72.9726 34.7574 72.7055C34.4507 72.1731 34.144 71.6406 33.8374 71.1082C33.0994 69.8269 32.3603 68.5463 31.6213 67.2656C30.7281 65.7178 29.8351 64.1698 28.9434 62.6211C28.2118 61.3509 27.479 60.0814 26.7452 58.8126C26.4878 58.3672 26.2308 57.9217 25.9743 57.4759C25.6459 56.9054 25.316 56.3359 24.9855 55.7666C24.8912 55.6019 24.7968 55.4372 24.6996 55.2676C24.258 54.4488 24.258 54.4488 23.5353 53.9062ZM42.798 89.1202C42.6645 89.1976 42.5311 89.2751 42.3935 89.3549C41.9663 89.6032 41.5399 89.8528 41.1135 90.1025C40.6869 90.3511 40.2602 90.5994 39.8334 90.8476C39.4459 91.0732 39.0588 91.2994 38.6717 91.5257C38.3189 91.7294 37.9622 91.9272 37.5978 92.1094C37.986 93.116 38.7452 93.7879 39.4967 94.5303C39.7163 94.7499 39.7163 94.7499 39.9403 94.974C40.4236 95.457 40.9086 95.9383 41.3936 96.4197C41.7293 96.7545 42.065 97.0895 42.4005 97.4246C43.2834 98.3056 44.1676 99.1853 45.0522 100.065C45.9548 100.962 46.8561 101.862 47.7574 102.761C49.5259 104.524 51.2958 106.286 53.0666 108.047C53.9152 107.649 54.4594 107.177 55.121 106.507C55.3295 106.297 55.538 106.087 55.7527 105.871C55.9685 105.651 56.1842 105.431 56.4064 105.205C56.6279 104.981 56.8494 104.758 57.0711 104.534C57.6123 103.987 58.1524 103.439 58.6916 102.891C58.3127 101.943 57.6405 101.305 56.9292 100.599C56.7973 100.466 56.6654 100.333 56.5295 100.197C56.0941 99.7592 55.6571 99.3235 55.2199 98.8879C54.9169 98.5846 54.6139 98.2811 54.311 97.9776C53.6765 97.3425 53.0412 96.7082 52.4053 96.0745C51.5888 95.2606 50.7743 94.4446 49.9605 93.628C49.3357 93.0015 48.7097 92.376 48.0834 91.751C47.7825 91.4504 47.482 91.1495 47.1818 90.8482C46.7632 90.4285 46.3432 90.0102 45.9227 89.5924C45.798 89.4667 45.6733 89.3411 45.5449 89.2116C44.4088 88.0887 44.1296 88.3432 42.798 89.1202Z" fill="white"/>
<path d="M109.965 42.9071C110.315 43.0192 110.315 43.0192 110.673 43.1335C111.163 43.2915 111.653 43.4512 112.143 43.6123C112.89 43.8572 113.64 44.0938 114.391 44.3299C114.869 44.485 115.346 44.6406 115.824 44.7968C116.047 44.8664 116.271 44.9361 116.5 45.0078C117.867 45.4674 118.602 45.8896 119.395 47.1094C119.634 48.1579 119.513 49.1432 119.131 50.1416C118.545 50.7859 118.116 51.0511 117.285 51.3282C115.733 51.325 114.277 50.871 112.815 50.3943C112.489 50.2897 112.489 50.2897 112.156 50.1831C111.7 50.0359 111.244 49.8878 110.788 49.7386C110.094 49.512 109.397 49.2911 108.701 49.0705C108.256 48.9262 107.811 48.7815 107.366 48.6365C107.159 48.5715 106.953 48.5065 106.74 48.4396C105.492 48.0244 104.625 47.5775 103.692 46.6407C103.401 45.7673 103.332 44.9697 103.457 44.0625C104.897 41.2868 107.463 42.0874 109.965 42.9071Z" fill="white"/>
<path d="M114.473 19.9218C115.433 20.346 116.051 20.8912 116.582 21.7968C116.743 22.7763 116.725 23.5777 116.328 24.494C115.744 25.254 115.049 25.65 114.224 26.1035C113.867 26.305 113.51 26.5068 113.154 26.7086C112.857 26.8752 112.857 26.8752 112.554 27.0452C111.813 27.4687 111.082 27.9072 110.35 28.3474C109.945 28.5891 109.539 28.8303 109.133 29.0713C108.738 29.3072 108.345 29.5464 107.952 29.7856C106.494 30.6433 105.397 31.1735 103.692 31.1718C102.72 30.7833 102.111 30.1969 101.582 29.2968C101.385 28.2167 101.422 27.4691 101.972 26.5047C102.568 25.718 103.057 25.3731 103.915 24.8977C104.05 24.8221 104.184 24.7464 104.322 24.6685C104.755 24.4258 105.19 24.1879 105.625 23.9502C105.924 23.7844 106.223 23.6184 106.521 23.4521C106.965 23.2051 107.408 22.9586 107.853 22.7135C108.674 22.261 109.487 21.7983 110.292 21.318C110.461 21.2184 110.629 21.1188 110.803 21.0162C111.099 20.8404 111.394 20.6623 111.688 20.4814C112.646 19.9233 113.374 19.8228 114.473 19.9218Z" fill="white"/>
<path d="M93.8479 4.68757C94.6545 4.98231 95.1257 5.2452 95.6936 5.88875C96.3378 7.53507 95.8791 9.35883 95.5205 11.0331C95.4754 11.2505 95.4302 11.4678 95.3837 11.6918C95.2884 12.148 95.192 12.6039 95.0946 13.0597C94.9465 13.7548 94.8028 14.4508 94.6595 15.147C94.5659 15.5922 94.4721 16.0373 94.3779 16.4823C94.3354 16.6889 94.2929 16.8955 94.2491 17.1083C93.9714 18.3916 93.6628 19.5784 92.7639 20.5811C91.8954 21.0154 91.0667 21.1493 90.0979 21.0938C89.2966 20.8247 88.6456 20.4534 88.1815 19.7215C87.5623 18.1091 88.0654 16.1702 88.4252 14.5423C88.4703 14.3305 88.5155 14.1186 88.562 13.9004C88.6572 13.4566 88.7536 13.0131 88.8511 12.5698C88.9994 11.8937 89.1431 11.2168 89.2862 10.5396C89.3798 10.1062 89.4736 9.67286 89.5678 9.23958C89.6103 9.03887 89.6528 8.83816 89.6966 8.63137C90.0087 7.22979 90.3228 6.03809 91.4455 5.06843C92.3458 4.61831 92.8527 4.56317 93.8479 4.68757Z" fill="white"/>
</svg>
