<svg width="121" height="120" viewBox="0 0 121 120" fill="none" xmlns="http://www.w3.org/2000/svg">
<g clip-path="url(#clip0_145_43)">
<path d="M58.3933 -0.031422C58.7131 -0.0329892 58.7131 -0.0329892 59.0393 -0.0345881C59.275 -0.0345448 59.5106 -0.0345016 59.7535 -0.0344571C60.0027 -0.0353188 60.2519 -0.0361806 60.5086 -0.0370684C61.3493 -0.0396634 62.1899 -0.0405574 63.0305 -0.0414487C63.631 -0.0429164 64.2315 -0.0444742 64.8319 -0.0461158C66.6379 -0.0506283 68.4439 -0.0531077 70.2499 -0.0551926C71.1001 -0.0562195 71.9502 -0.0574775 72.8004 -0.0587056C75.6261 -0.0626932 78.4517 -0.0660903 81.2774 -0.0677874C82.0108 -0.068235 82.7443 -0.0686851 83.4778 -0.0691434C83.6601 -0.0692568 83.8424 -0.0693702 84.0303 -0.069487C86.9839 -0.0714326 89.9376 -0.0773713 92.8913 -0.0849827C95.9227 -0.0927309 98.9542 -0.0969548 101.986 -0.097704C103.688 -0.0982117 105.391 -0.100266 107.093 -0.10625C108.694 -0.111865 110.296 -0.112704 111.897 -0.11029C112.485 -0.110173 113.073 -0.111666 113.662 -0.114873C114.464 -0.119003 115.266 -0.117372 116.068 -0.11428C116.301 -0.116851 116.535 -0.119421 116.776 -0.12207C118.107 -0.109653 118.933 0.00664633 119.962 0.937536C120.886 1.99306 120.765 3.16052 120.756 4.49201C120.758 4.85524 120.758 4.85524 120.76 5.2258C120.764 6.03836 120.762 6.85083 120.76 7.6634C120.762 8.24549 120.763 8.82758 120.765 9.40967C120.769 10.8273 120.769 12.2449 120.768 13.6626C120.767 14.8149 120.767 15.9672 120.769 17.1194C120.769 17.2834 120.769 17.4475 120.769 17.6164C120.77 17.9496 120.77 18.2828 120.77 18.616C120.774 21.7404 120.772 24.8648 120.77 27.9892C120.767 30.8473 120.77 33.7054 120.776 36.5636C120.782 39.4987 120.784 42.4337 120.782 45.3688C120.781 47.0165 120.782 48.6642 120.786 50.3119C120.79 51.8611 120.789 53.4102 120.784 54.9594C120.784 55.5284 120.784 56.0973 120.787 56.6663C120.79 57.4423 120.787 58.218 120.783 58.9939C120.785 59.2197 120.787 59.4456 120.79 59.6782C120.775 61.0321 120.612 61.7719 119.728 62.8125C118.853 63.5814 118.125 63.7797 116.975 63.7766C116.75 63.7766 116.524 63.7766 116.292 63.7766C116.05 63.7754 115.808 63.7742 115.558 63.7729C115.185 63.7724 115.185 63.7724 114.804 63.7719C114.009 63.7706 113.214 63.7677 112.418 63.7647C111.88 63.7635 111.341 63.7624 110.802 63.7615C109.48 63.7589 108.159 63.755 106.837 63.75C106.838 64.0251 106.839 64.3002 106.84 64.5837C106.86 71.1153 106.876 77.647 106.885 84.1787C106.886 84.9828 106.888 85.7869 106.889 86.591C106.889 86.7511 106.889 86.9112 106.89 87.0761C106.894 89.6674 106.901 92.2587 106.91 94.85C106.918 97.5094 106.924 100.169 106.926 102.828C106.927 104.322 106.93 105.815 106.936 107.309C106.943 108.714 106.945 110.12 106.943 111.526C106.944 112.042 106.946 112.558 106.949 113.073C106.954 113.778 106.953 114.482 106.95 115.187C106.953 115.391 106.956 115.595 106.958 115.805C106.945 117.164 106.717 117.963 105.9 119.063C104.639 120.292 103.216 120.131 101.558 120.119C101.259 120.121 100.96 120.122 100.652 120.124C99.8245 120.127 98.9967 120.125 98.1688 120.123C97.2754 120.12 96.382 120.124 95.4886 120.126C93.739 120.13 91.9894 120.13 90.2398 120.127C88.8179 120.125 87.396 120.124 85.9742 120.125C85.6706 120.126 85.6706 120.126 85.361 120.126C84.9499 120.126 84.5388 120.127 84.1278 120.127C80.2729 120.13 76.4181 120.126 72.5632 120.121C69.2554 120.117 65.9476 120.118 62.6398 120.122C58.7988 120.127 54.9578 120.129 51.1168 120.126C50.7072 120.126 50.2977 120.126 49.8881 120.125C49.6866 120.125 49.4851 120.125 49.2775 120.125C47.8572 120.124 46.437 120.126 45.0168 120.128C43.286 120.13 41.5554 120.13 39.8246 120.125C38.9415 120.122 38.0585 120.121 37.1754 120.124C36.2183 120.128 35.2614 120.124 34.3044 120.119C34.0249 120.121 33.7454 120.123 33.4575 120.125C31.9887 120.111 31.0681 120.069 29.9624 119.063C28.7949 117.607 28.9128 116.198 28.9663 114.39C28.9705 114.118 28.9747 113.846 28.9791 113.565C28.9901 112.897 29.0055 112.23 29.0249 111.563C28.8921 111.563 28.7593 111.564 28.6225 111.565C25.3889 111.586 22.1553 111.601 18.9217 111.611C17.3579 111.616 15.7942 111.623 14.2304 111.633C12.7214 111.643 11.2124 111.649 9.70334 111.651C9.12753 111.653 8.55171 111.657 7.97592 111.662C7.16957 111.668 6.36342 111.669 5.55705 111.669C5.31884 111.672 5.08063 111.676 4.8352 111.679C3.16112 111.669 2.43943 111.346 1.1782 110.259C0.536892 109.483 0.634751 108.615 0.632077 107.659C0.631315 107.499 0.630555 107.339 0.62977 107.174C0.627492 106.633 0.626888 106.093 0.626276 105.552C0.625 105.162 0.623624 104.772 0.62216 104.383C0.61844 103.308 0.616212 102.234 0.614246 101.16C0.612371 100.239 0.609634 99.318 0.606886 98.3973C0.597059 95.0992 0.590687 91.8012 0.584935 88.5032C0.584472 88.243 0.58401 87.9828 0.583533 87.7147C0.574355 82.5501 0.566451 77.3856 0.561245 72.221C0.560081 71.0853 0.5589 69.9496 0.557698 68.8139C0.5574 68.5316 0.5571 68.2493 0.556793 67.9585C0.551785 63.3842 0.540302 58.8099 0.526234 54.2357C0.511915 49.5415 0.503781 44.8474 0.501604 40.1532C0.500217 37.5167 0.496047 34.8802 0.484874 32.2438C0.475368 29.9987 0.471398 27.7538 0.474714 25.5087C0.476232 24.363 0.475077 23.2175 0.466774 22.0718C0.459233 21.0228 0.459271 19.9741 0.465326 18.9252C0.466182 18.5458 0.464263 18.1665 0.459282 17.7872C0.419991 14.603 0.419991 14.603 1.4543 13.37C2.54493 12.321 3.62614 12.3888 5.06911 12.3937C5.38872 12.3934 5.38872 12.3934 5.71479 12.3931C6.43166 12.3927 7.14851 12.394 7.86538 12.3953C8.3781 12.3954 8.89082 12.3953 9.40354 12.3952C10.7981 12.3951 12.1926 12.3965 13.5872 12.3981C15.0436 12.3996 16.5 12.3997 17.9564 12.4C20.4017 12.4007 22.8471 12.4021 25.2924 12.4042C27.8113 12.4064 30.3301 12.408 32.849 12.409C33.0042 12.4091 33.1594 12.4092 33.3194 12.4092C34.0981 12.4095 34.8769 12.4098 35.6556 12.4101C42.1172 12.4126 48.5789 12.4167 55.0405 12.4219C55.035 12.0088 55.035 12.0088 55.0293 11.5874C55.0166 10.5605 55.0085 9.53356 55.0019 8.5066C54.9984 8.06309 54.9936 7.61959 54.9875 7.17611C54.9789 6.53669 54.9749 5.89738 54.9718 5.25791C54.9682 5.06131 54.9646 4.86471 54.9608 4.66216C54.9604 3.05988 55.2494 1.96082 56.3442 0.732458C57.089 0.083139 57.432 -0.0292422 58.3933 -0.031422ZM62.3061 7.26566C62.3061 19.0219 62.3061 30.7782 62.3061 42.8907C65.7866 42.8907 69.2671 42.8907 72.853 42.8907C72.8552 42.117 72.8574 41.3434 72.8596 40.5463C72.8675 37.9906 72.8806 35.4349 72.8961 32.8791C72.9054 31.3296 72.9129 29.78 72.9165 28.2304C72.9201 26.735 72.9281 25.2397 72.9393 23.7444C72.9428 23.1738 72.9447 22.6033 72.9449 22.0327C72.9454 21.2336 72.9517 20.4347 72.9594 19.6357C72.9577 19.2817 72.9577 19.2817 72.9559 18.9205C72.9764 17.5425 73.1069 16.7525 74.0249 15.7032C75.0833 14.9815 76.0533 14.8653 77.3061 15C78.0788 15.2866 78.0788 15.2866 78.8882 15.7178C79.0433 15.7992 79.1985 15.8806 79.3584 15.9644C79.9265 16.264 80.4911 16.5697 81.0561 16.875C81.5522 17.1393 82.0484 17.4032 82.5448 17.667C84.0992 18.4949 85.6501 19.3293 87.2003 20.1652C87.8608 20.5212 88.5216 20.8766 89.1823 21.232C90.1854 21.7717 91.1882 22.3119 92.1908 22.8525C93.1094 23.3477 94.0287 23.8417 94.9488 24.334C95.3631 24.5558 95.7773 24.7778 96.1915 24.9998C96.7086 25.277 97.2259 25.5537 97.7436 25.8299C101.931 28.0766 101.931 28.0766 102.648 29.0039C103.012 30.3554 103.147 31.5499 102.482 32.8144C101.814 33.6409 101.144 34.1104 100.246 34.6582C100.075 34.7654 99.9047 34.8725 99.7291 34.9828C99.1319 35.3566 98.5317 35.7254 97.9311 36.0938C97.444 36.3943 96.957 36.6949 96.4699 36.9956C95.4306 37.6361 94.3905 38.2752 93.3498 38.9136C91.9726 39.7595 90.5988 40.6105 89.23 41.4698C89.0412 41.5874 88.8524 41.7051 88.6579 41.8263C88.2291 42.0964 87.8059 42.3753 87.3842 42.6563C87.3842 42.7336 87.3842 42.811 87.3842 42.8907C87.5792 42.892 87.7742 42.8934 87.9751 42.8948C89.8198 42.9084 91.6643 42.9254 93.5089 42.9459C94.4571 42.9564 95.4052 42.9656 96.3534 42.9719C97.2698 42.978 98.1861 42.9875 99.1025 42.9992C99.4507 43.0031 99.7989 43.0058 100.147 43.0073C104.631 43.0281 104.631 43.0281 106.017 44.4141C106.503 45.2236 106.633 45.8464 106.651 46.7727C106.656 46.9885 106.66 47.2043 106.665 47.4266C106.671 47.7749 106.671 47.7749 106.677 48.1302C106.682 48.3685 106.687 48.6068 106.692 48.8524C106.707 49.6141 106.721 50.3759 106.735 51.1377C106.745 51.6539 106.755 52.1701 106.766 52.6863C106.791 53.9523 106.814 55.2184 106.837 56.4844C109.08 56.4844 111.323 56.4844 113.634 56.4844C113.634 40.2422 113.634 24 113.634 7.26566C96.696 7.26566 79.7577 7.26566 62.3061 7.26566ZM7.69675 19.6875C7.69675 47.6086 7.69675 75.5297 7.69675 104.297C14.735 104.297 21.7733 104.297 29.0249 104.297C29.0249 101.667 29.0249 99.0375 29.0249 96.3282C28.2176 96.3221 27.4103 96.3161 26.5786 96.3099C25.7928 96.3008 25.007 96.2903 24.2212 96.2795C23.677 96.2729 23.1328 96.2679 22.5886 96.2646C21.8042 96.2596 21.0201 96.2487 20.2358 96.2366C19.9943 96.2363 19.7528 96.236 19.5039 96.2357C18.0455 96.2064 16.8711 96.0247 15.6655 95.1563C14.9088 94.1632 14.8398 93.1831 14.88 91.9693C15.0344 90.9139 15.5565 90.2917 16.3491 89.6184C17.4738 89.118 18.5831 89.1841 19.8009 89.177C20.1964 89.1707 20.1964 89.1707 20.5999 89.1642C21.4404 89.1516 22.281 89.1436 23.1216 89.1358C23.6921 89.128 24.2626 89.1199 24.8331 89.1115C26.2304 89.091 27.6275 89.077 29.0249 89.0625C29.0249 86.3555 29.0249 83.6485 29.0249 80.8594C27.755 80.8503 27.755 80.8503 26.4596 80.8411C25.6381 80.8321 24.8167 80.8215 23.9952 80.8108C23.4251 80.8042 22.8549 80.7992 22.2848 80.7959C21.4643 80.7909 20.6442 80.7799 19.8238 80.7679C19.5696 80.7676 19.3154 80.7673 19.0535 80.767C17.6189 80.7393 16.7573 80.6472 15.6655 79.6875C14.8637 78.7789 14.8598 77.8921 14.891 76.7286C14.9816 76.0224 15.2414 75.5655 15.6655 75C15.6655 74.8454 15.6655 74.6907 15.6655 74.5313C17.2747 73.8766 18.7145 73.7192 20.4418 73.7082C20.6885 73.704 20.9352 73.6998 21.1894 73.6955C21.9702 73.6829 22.7509 73.6749 23.5317 73.667C24.0641 73.6592 24.5965 73.6512 25.1289 73.6428C26.4275 73.6224 27.7261 73.6082 29.0249 73.5938C29.0249 70.9641 29.0249 68.3344 29.0249 65.625C27.7845 65.616 27.7845 65.616 26.5191 65.6067C25.7154 65.5977 24.9118 65.5871 24.1082 65.5764C23.5511 65.5698 22.9939 65.5648 22.4367 65.5615C21.6343 65.5565 20.8321 65.5455 20.0298 65.5335C19.782 65.5332 19.5341 65.5329 19.2787 65.5326C17.7947 65.5034 16.8718 65.3391 15.6655 64.4532C14.8224 63.3109 14.764 62.0741 14.9624 60.7032C15.5229 59.5175 16.0963 59.0584 17.3061 58.5938C18.206 58.4855 19.1013 58.4793 20.0069 58.4739C20.2651 58.4696 20.5232 58.4654 20.7891 58.4611C21.6105 58.4484 22.4319 58.4405 23.2534 58.4327C23.8116 58.4249 24.3697 58.4168 24.9279 58.4084C26.2936 58.3879 27.6591 58.3738 29.0249 58.3594C29.0249 55.6524 29.0249 52.9453 29.0249 50.1563C28.1756 50.1475 27.3263 50.1388 26.4513 50.1297C25.6283 50.1189 24.8053 50.1069 23.9823 50.0948C23.4106 50.087 22.8388 50.0804 22.2671 50.0751C21.445 50.0672 20.623 50.055 19.8009 50.0418C19.5455 50.0403 19.2901 50.0388 19.027 50.0373C16.8129 49.9944 16.8129 49.9944 15.8999 49.2188C14.9792 48.1985 14.8148 47.3616 14.8708 46.0318C15.0422 44.9776 15.5956 44.3471 16.354 43.6377C17.3517 43.0633 18.4291 43.0942 19.556 43.088C19.7844 43.0862 19.7844 43.0862 20.0173 43.0844C20.5254 43.0809 21.0335 43.0789 21.5416 43.0769C21.9067 43.0747 22.2717 43.0723 22.6367 43.0699C23.6264 43.0636 24.6161 43.0586 25.6058 43.0539C26.6405 43.0488 27.6753 43.0424 28.71 43.0361C30.6689 43.0244 32.6278 43.0139 34.5867 43.0038C36.8171 42.9922 39.0475 42.9793 41.2778 42.9663C45.8654 42.9397 50.4529 42.9148 55.0405 42.8907C55.0405 40.261 55.0405 37.6313 55.0405 34.9219C53.3369 34.9168 53.3369 34.9168 51.5989 34.9116C47.8504 34.8998 44.102 34.8842 40.3535 34.8667C38.0804 34.8561 35.8072 34.8469 33.5341 34.8407C31.5528 34.8353 29.5715 34.8275 27.5902 34.8167C26.5412 34.8111 25.4921 34.8067 24.4431 34.8053C23.4554 34.8039 22.4678 34.7992 21.4802 34.792C21.1179 34.7899 20.7557 34.7891 20.3935 34.7895C19.8982 34.7899 19.4031 34.786 18.9078 34.781C18.4923 34.7794 18.4923 34.7794 18.0685 34.7777C16.8976 34.6392 16.141 34.2446 15.3432 33.3838C14.7132 32.051 14.7731 30.8358 15.2114 29.4434C15.8063 28.6375 16.368 28.2107 17.3061 27.8907C18.5221 27.7487 19.7342 27.7583 20.9563 27.7627C21.3283 27.7607 21.7003 27.7582 22.0723 27.7554C23.0789 27.7489 24.0855 27.748 25.0921 27.7483C26.1454 27.7475 27.1985 27.7415 28.2517 27.7361C30.2447 27.7266 32.2376 27.7218 34.2305 27.7188C36.5 27.715 38.7695 27.706 41.039 27.6966C45.7062 27.6773 50.3733 27.6653 55.0405 27.6563C55.0405 25.0266 55.0405 22.3969 55.0405 19.6875C39.4171 19.6875 23.7936 19.6875 7.69675 19.6875ZM80.1186 24.6094C80.1186 29.1727 80.1186 33.736 80.1186 38.4375C81.0356 38.0707 81.753 37.7146 82.5814 37.2016C82.8301 37.0481 83.0787 36.8947 83.3349 36.7366C83.6008 36.5712 83.8665 36.4058 84.1323 36.2403C84.4046 36.0714 84.677 35.9026 84.9493 35.7339C85.4984 35.3934 86.047 35.0522 86.5952 34.7104C87.3186 34.2597 88.043 33.8107 88.7676 33.3619C89.1709 33.1106 89.574 32.8591 89.977 32.6075C90.1636 32.4919 90.3502 32.3764 90.5425 32.2574C90.7115 32.1511 90.8805 32.0449 91.0546 31.9355C91.2011 31.844 91.3477 31.7524 91.4987 31.6582C91.876 31.4171 91.876 31.4171 92.0717 30.9375C91.8141 30.7999 91.8141 30.7999 91.5512 30.6594C90.7382 30.225 89.9255 29.7903 89.1128 29.3555C88.9656 29.2768 88.8185 29.1981 88.6669 29.117C86.3954 27.9017 84.1303 26.6754 81.8745 25.4313C81.676 25.3223 81.4776 25.2133 81.2731 25.101C81.1001 25.0056 80.9271 24.9101 80.7488 24.8118C80.3923 24.5916 80.3923 24.5916 80.1186 24.6094ZM36.2905 50.1563C36.2905 68.6414 36.2905 87.1266 36.2905 106.172C37.2744 105.192 37.2744 105.192 38.1692 104.156C38.3534 103.928 38.3534 103.928 38.5413 103.695C38.6687 103.536 38.796 103.377 38.9272 103.213C39.1994 102.875 39.4716 102.538 39.7439 102.2C39.8754 102.037 40.007 101.873 40.1426 101.705C40.6133 101.121 41.0882 100.541 41.5639 99.961C42.4261 98.9086 43.2845 97.8531 44.1421 96.7969C45.1647 95.5373 46.19 94.28 47.2182 93.0249C47.9134 92.1743 48.6059 91.3216 49.2983 90.4688C50.34 89.1859 51.3822 87.9034 52.4322 86.6272C52.7903 86.1882 53.1445 85.7459 53.496 85.3016C53.6818 85.0683 53.8676 84.8351 54.0591 84.5948C54.2249 84.3842 54.3908 84.1736 54.5617 83.9566C55.2058 83.2583 55.645 83.012 56.5841 82.8901C56.7998 82.887 57.0155 82.884 57.2378 82.8809C57.4523 82.8743 57.6668 82.8676 57.8878 82.8608C59.5794 83.1342 60.5257 84.489 61.5298 85.752C61.6724 85.9283 61.8151 86.1046 61.9621 86.2863C63.0663 87.6553 64.1526 89.0385 65.2349 90.4248C65.9278 91.3104 66.6397 92.1797 67.3543 93.0478C68.2072 94.0862 69.0528 95.1304 69.8989 96.1742C70.6426 97.0907 71.3923 98.0014 72.1499 98.9063C73.9542 97.1212 75.6219 95.2327 77.2201 93.2621C77.8553 92.4791 78.493 91.6985 79.1372 90.9229C79.2441 90.7915 79.351 90.6601 79.4612 90.5247C80.2328 89.6005 80.7453 89.1506 81.9314 88.9591C83.1225 88.9113 84.0793 88.876 85.0258 89.6631C85.3537 89.9999 85.6693 90.3487 85.978 90.7032C86.2172 90.9702 86.4565 91.2372 86.6958 91.5042C88.0312 93.0114 89.3127 94.5615 90.5804 96.1258C91.6264 97.3932 92.7133 98.6256 93.7921 99.865C94.4124 100.579 95.0299 101.295 95.646 102.012C95.8187 102.213 95.8187 102.213 95.995 102.418C96.9169 103.495 97.811 104.592 98.6947 105.7C99.0672 106.191 99.0672 106.191 99.5717 106.406C99.5717 87.8438 99.5717 69.2813 99.5717 50.1563C78.6889 50.1563 57.8061 50.1563 36.2905 50.1563ZM57.1499 92.1094C55.2617 94.3963 53.3812 96.6891 51.513 98.9923C50.9329 99.7074 50.3506 100.421 49.7671 101.133C48.9049 102.185 48.0465 103.241 47.1889 104.297C46.3314 105.353 45.473 106.409 44.6108 107.461C44.3684 107.757 44.3684 107.757 44.121 108.06C43.8044 108.447 43.4877 108.833 43.1706 109.22C42.7468 109.737 42.3238 110.254 41.9009 110.772C41.7637 110.938 41.6265 111.105 41.4852 111.277C41.3586 111.432 41.232 111.588 41.1016 111.747C40.9874 111.887 40.8732 112.026 40.7555 112.17C40.4859 112.463 40.4859 112.463 40.5093 112.734C51.4921 112.734 62.4749 112.734 73.7905 112.734C72.9347 111.593 72.0796 110.456 71.1977 109.336C71.0341 109.128 71.0341 109.128 70.8671 108.916C69.5168 107.204 68.1376 105.517 66.7592 103.828C65.3051 102.047 63.8523 100.266 62.438 98.4522C61.4353 97.1678 60.4111 95.9023 59.3764 94.6436C59.2358 94.4722 59.0952 94.3007 58.9503 94.1241C58.8178 93.9635 58.6853 93.8029 58.5488 93.6374C58.4314 93.4951 58.3141 93.3527 58.1931 93.206C57.861 92.8218 57.5136 92.4636 57.1499 92.1094ZM81.9781 98.6765C81.785 98.8925 81.5919 99.1085 81.393 99.3311C81.2898 99.4464 81.1866 99.5617 81.0803 99.6805C80.0188 100.876 79.0082 102.112 78.0092 103.359C77.8298 103.558 77.6503 103.757 77.4654 103.962C77.0155 104.479 77.0155 104.479 77.1237 104.983C77.329 105.53 77.5783 105.872 77.9561 106.317C78.0918 106.479 78.2275 106.64 78.3672 106.807C78.5101 106.975 78.653 107.142 78.8003 107.314C79.076 107.641 79.3512 107.967 79.6261 108.294C79.7807 108.469 79.9354 108.644 80.0948 108.825C80.4865 109.325 80.7627 109.759 81.0585 110.311C81.744 111.499 82.4054 112.528 83.7884 112.904C85.6236 113.146 87.4607 113.033 89.3032 112.939C89.8673 112.923 90.4314 112.908 90.9955 112.895C92.3709 112.859 93.7446 112.804 95.1186 112.734C94.8955 112.434 94.6719 112.134 94.4483 111.835C94.2616 111.584 94.2616 111.584 94.0712 111.329C93.6425 110.768 93.1822 110.248 92.7016 109.731C91.7845 108.727 90.9208 107.691 90.0649 106.634C89.0811 105.434 88.065 104.262 87.0523 103.087C86.42 102.353 85.7887 101.619 85.1577 100.884C84.9847 100.683 84.9847 100.683 84.8081 100.478C84.6987 100.351 84.5893 100.223 84.4765 100.092C84.3729 99.9713 84.2693 99.8507 84.1625 99.7265C83.8815 99.3905 83.6146 99.0428 83.3486 98.6948C83.2108 98.5326 83.0731 98.3703 82.9311 98.2032C82.4054 98.1486 82.4054 98.1486 81.9781 98.6765Z" fill="white"/>
<path d="M87.9503 63.3645C90.4629 64.9317 91.9976 66.9724 92.8631 69.8291C93.4358 72.6753 92.9627 75.5379 91.4705 78.0176C89.8285 80.4516 87.5928 81.9542 84.7231 82.63C81.8921 83.1067 79.1532 82.6241 76.7498 81.0351C74.4544 79.2829 73.0575 77.1104 72.3845 74.2969C72.0346 71.1689 72.5805 68.4106 74.4939 65.8594C75.0506 65.2441 75.0506 65.2441 75.6658 64.6875C75.7752 64.5745 75.8845 64.4615 75.9972 64.3451C79.1419 61.2934 84.3033 61.3167 87.9503 63.3645ZM79.7967 70.9717C79.4557 72.1649 79.4945 73.042 80.031 74.1357C80.8228 75.0317 81.5161 75.399 82.697 75.5713C83.9037 75.3953 84.5753 74.786 85.3777 73.9013C85.8672 72.8637 85.8257 72.1072 85.5095 71.0156C84.9906 70.1746 84.5349 69.7536 83.6345 69.375C81.8453 69.0659 80.8885 69.5324 79.7967 70.9717Z" fill="white"/>
</g>
<defs>
<clipPath id="clip0_145_43">
<rect width="120" height="120" fill="white" transform="translate(0.665405)"/>
</clipPath>
</defs>
</svg>
