<svg width="120" height="120" viewBox="0 0 120 120" fill="none" xmlns="http://www.w3.org/2000/svg">
<path d="M57.139 1.59302C57.3501 1.59136 57.5611 1.58971 57.7786 1.58801C66.6459 1.53426 66.6459 1.53426 70.5469 2.34375C70.8963 2.41547 70.8963 2.41547 71.2527 2.48863C84.7944 5.35247 97.8047 12.6538 106.172 23.9063C106.282 24.0506 106.392 24.1949 106.506 24.3435C113.579 33.6202 118.345 45.365 118.407 57.139C118.409 57.35 118.41 57.5611 118.412 57.7785C118.466 66.6459 118.466 66.6459 117.656 70.5469C117.585 70.8962 117.585 70.8962 117.511 71.2526C115.821 79.2467 112.793 86.8372 108.047 93.5156C107.94 93.6676 107.833 93.8195 107.722 93.976C106.098 96.2604 104.326 98.3457 102.371 100.353C101.955 100.779 101.543 101.21 101.131 101.64C99.4654 103.362 97.7265 104.901 95.8047 106.331C95.3911 106.64 94.9833 106.957 94.5759 107.274C85.7545 114.059 74.0232 118.348 62.8611 118.407C62.5445 118.409 62.5445 118.409 62.2216 118.412C53.3542 118.466 53.3542 118.466 49.4532 117.656C49.1038 117.585 49.1038 117.585 48.7474 117.511C35.2057 114.648 22.1954 107.346 13.8282 96.0938C13.718 95.9495 13.6077 95.8051 13.4941 95.6565C6.42068 86.3798 1.65492 74.635 1.59308 62.861C1.59143 62.65 1.58977 62.4389 1.58807 62.2215C1.53432 53.3541 1.53432 53.3541 2.34381 49.4531C2.41553 49.1038 2.41553 49.1038 2.48869 48.7474C5.35253 35.2056 12.6538 22.1954 23.9063 13.8281C24.0506 13.7179 24.1949 13.6077 24.3436 13.4941C33.6202 6.42062 45.3651 1.65486 57.139 1.59302ZM25.5469 17.8125C25.2856 18.0312 25.024 18.2497 24.7623 18.468C22.4122 20.4406 20.2463 22.4931 18.3298 24.8996C17.9942 25.3196 17.6521 25.7344 17.3026 26.1429C10.1933 34.4897 5.6813 46.3604 5.56922 57.3468C5.56692 57.5348 5.56462 57.7228 5.56226 57.9164C5.42364 72.2339 9.7245 85.9768 19.6876 96.5625C19.8423 96.7172 19.9969 96.8719 20.1563 97.0313C26.6985 92.1534 32.9548 86.9742 39.0235 81.5186C39.248 81.3174 39.4724 81.1162 39.7037 80.909C51.221 70.5569 59.5384 60.8104 60.3965 44.8407C60.6376 39.9178 60.5152 35.0215 60.2491 30.1025C60.2331 29.7979 60.2171 29.4933 60.2006 29.1795C59.7787 21.2858 59.016 13.4489 57.8907 5.625C57.4855 5.62216 57.0802 5.62015 56.675 5.61848C56.4493 5.61727 56.2236 5.61606 55.9911 5.61481C45.2286 5.77646 33.6264 10.8607 25.5469 17.8125ZM62.1094 5.625C60.9398 13.7565 60.1822 21.8987 59.751 30.1025C59.7265 30.5569 59.7265 30.5569 59.7014 31.0204C58.8874 46.4837 59.8252 59.3492 70.5112 71.2628C73.8007 74.8951 77.3292 78.2499 80.9766 81.5186C81.3147 81.8225 81.3147 81.8225 81.6597 82.1326C87.5038 87.377 93.5492 92.338 99.8438 97.0313C103.287 93.6093 106.033 89.6078 108.281 85.3125C108.371 85.1416 108.461 84.9707 108.554 84.7945C112.522 77.1405 114.483 68.7611 114.463 60.1611C114.463 59.9569 114.463 59.7527 114.463 59.5424C114.425 46.5285 109.659 33.5902 100.802 23.9703C100.346 23.4735 99.903 22.9676 99.463 22.4561C98.1293 20.9336 96.7049 19.6217 95.1252 18.3545C94.6967 18.0089 94.2726 17.6578 93.8544 17.2998C85.8398 10.4789 73.97 5.58315 63.3418 5.62065C63.1107 5.62128 62.8796 5.62191 62.6415 5.62256C62.3781 5.62377 62.3781 5.62377 62.1094 5.625ZM58.7421 64.01C58.6003 64.1531 58.4585 64.2963 58.3124 64.4438C58.1617 64.5941 58.011 64.7444 57.8558 64.8992C57.3476 65.4066 56.8411 65.9156 56.3346 66.4247C55.9721 66.7873 55.6095 67.1499 55.2468 67.5123C54.2594 68.4996 53.2735 69.4883 52.2878 70.4772C51.2586 71.5094 50.228 72.5402 49.1976 73.5712C47.4673 75.3028 45.7379 77.0352 44.009 78.7682C42.228 80.5535 40.4465 82.3383 38.6644 84.1224C38.4997 84.2873 38.4997 84.2873 38.3317 84.4555C37.7809 85.0069 37.2302 85.5582 36.6794 86.1096C32.1077 90.6862 27.5377 95.2644 22.9688 99.8438C26.3908 103.286 30.3922 106.033 34.6876 108.281C34.8585 108.371 35.0294 108.461 35.2055 108.554C42.8595 112.522 51.239 114.483 59.8389 114.463C60.0431 114.463 60.2473 114.463 60.4577 114.463C73.8161 114.424 87.4962 109.379 97.0313 99.8438C92.2431 95.0446 87.4536 90.2468 82.6624 85.4506C82.2202 85.0079 81.778 84.5652 81.3357 84.1224C81.2258 84.0124 81.1159 83.9023 81.0026 83.789C79.2207 82.005 77.4396 80.2202 75.6589 78.4351C73.8328 76.6047 72.0059 74.7752 70.1781 72.9464C69.151 71.9187 68.1243 70.8906 67.0986 69.8615C66.1343 68.894 65.1689 67.9277 64.2027 66.9621C63.8472 66.6065 63.4921 66.2505 63.1375 65.8941C62.6553 65.4096 62.1717 64.9265 61.6878 64.4438C61.546 64.3007 61.4041 64.1575 61.258 64.01C60.0943 62.8547 59.9058 62.8547 58.7421 64.01Z" fill="white"/>
<path d="M86.7923 20.3466C87.0846 20.5906 87.3729 20.8396 87.6565 21.0937C87.7982 21.2112 87.9399 21.3288 88.0859 21.4499C89.7712 22.9589 90.8428 25.1401 91.0018 27.3916C91.0914 30.2315 90.7971 32.6362 88.8723 34.8779C88.6275 35.1311 88.3801 35.3819 88.1253 35.625C88.759 36.1492 88.759 36.1492 89.3411 36.0644C89.9115 35.887 90.3557 35.6831 90.8792 35.4052C93.2717 34.1754 95.9614 34.1333 98.5092 34.9136C101.262 35.9709 103.253 37.809 104.486 40.4828C105.434 43.0799 105.479 45.659 104.401 48.2071C103.785 49.5096 103.124 50.694 102.188 51.7968C102.356 51.8213 102.525 51.8458 102.699 51.871C105.809 52.6249 108.483 55.7232 110.156 58.276C111.654 60.7859 113.054 63.7946 112.735 66.7968C112.536 67.4087 112.404 67.6469 111.862 67.9896C111.21 68.2503 110.706 68.2628 110.005 68.2642C109.735 68.2659 109.465 68.2675 109.187 68.2692C108.892 68.2686 108.597 68.2681 108.293 68.2675C107.978 68.2685 107.664 68.2697 107.349 68.2711C106.496 68.2742 105.642 68.2744 104.788 68.2738C104.075 68.2735 103.362 68.2747 102.649 68.2758C100.967 68.2784 99.2854 68.2785 97.6034 68.2771C95.8687 68.2757 94.134 68.2786 92.3992 68.2835C90.9094 68.2877 89.4195 68.2891 87.9296 68.2883C87.04 68.2879 86.1504 68.2885 85.2608 68.2918C84.4241 68.2947 83.5875 68.2943 82.7509 68.2912C82.298 68.2904 81.845 68.293 81.3921 68.2958C81.1217 68.2941 80.8512 68.2925 80.5726 68.2908C80.2209 68.2909 80.2209 68.2909 79.8621 68.2909C79.1047 68.1875 78.6619 67.9472 78.0471 67.5C77.3419 66.0895 77.8542 64.2049 78.2898 62.7758C79.5713 58.9986 81.6132 55.6435 84.9983 53.4067C85.1887 53.2807 85.3791 53.1546 85.5753 53.0247C85.7207 52.9289 85.8661 52.8331 86.0159 52.7343C85.7641 52.733 85.5123 52.7316 85.2528 52.7302C82.8769 52.7168 80.501 52.6997 78.1251 52.6791C76.9037 52.6686 75.6823 52.6594 74.4608 52.6531C73.2815 52.647 72.1023 52.6376 70.9231 52.6258C70.4737 52.6219 70.0244 52.6192 69.575 52.6177C68.9444 52.6155 68.3139 52.6089 67.6833 52.6013C67.4985 52.6016 67.3138 52.602 67.1234 52.6023C65.9151 52.5819 65.0573 52.3656 63.9846 51.7968C63.1617 50.151 63.8809 47.9263 64.392 46.2872C66.0444 41.7137 69.1918 38.4559 73.3596 36.0937C73.5917 35.939 73.8237 35.7843 74.0628 35.625C73.8549 35.4123 73.647 35.1996 73.4329 34.9804C71.7386 33.0132 71.1572 30.5026 71.1853 27.9666C71.4386 24.9297 72.8225 22.5211 75.1165 20.5764C78.4965 18.1561 83.3513 17.8879 86.7923 20.3466ZM76.6409 24.8437C75.573 26.3637 75.0001 27.6253 75.2346 29.5312C75.6411 30.9826 76.1659 32.0698 77.344 33.0468C77.5325 33.216 77.7211 33.3852 77.9153 33.5595C79.2692 34.5172 80.6551 34.6104 82.2659 34.4531C83.9191 34.0999 85.1744 33.2038 86.1441 31.8301C87.0088 30.3169 87.2325 28.9075 86.9534 27.1875C86.3749 25.378 85.3629 24.107 83.7014 23.1967C81.1595 22.0846 78.4027 22.6904 76.6409 24.8437ZM70.9719 42.9638C69.5957 44.5903 68.4883 46.4384 67.969 48.5156C74.0018 48.5156 80.0346 48.5156 86.2503 48.5156C86.0182 47.5101 85.7862 46.5047 85.5471 45.4687C85.4158 43.6733 85.7232 42.2563 86.2503 40.5468C86.3306 40.2349 86.4096 39.9226 86.4846 39.6093C81.1161 37.0418 74.9722 38.735 70.9719 42.9638ZM90.469 40.7812C89.5579 42.0504 89.2369 43.4475 89.2971 45C89.5939 46.6073 90.3199 48.1062 91.64 49.1034C93.3373 50.1934 94.7924 50.3181 96.7971 50.1562C98.4564 49.7483 99.5789 48.4571 100.547 47.1093C101.299 45.6063 101.298 43.8128 100.811 42.2204C100.116 40.7123 99.2045 39.6074 97.687 38.8998C94.9091 37.8746 92.4151 38.5886 90.469 40.7812ZM85.4007 58.374C83.8251 60.0056 82.6394 61.9778 82.2659 64.2187C90.851 64.2187 99.4362 64.2187 108.282 64.2187C107.165 60.4965 105.264 57.9044 101.907 55.8984C96.2258 52.8559 90.049 54.0912 85.4007 58.374Z" fill="white"/>
<path d="M43.4323 20.4346C45.5753 22.0445 47.0659 24.3426 47.5183 26.9916C47.7945 30.0764 47.0564 32.4718 45.2972 34.9658C44.9882 35.3849 44.9882 35.3849 44.7653 35.8594C44.975 35.9703 45.1847 36.0812 45.4007 36.1954C47.283 37.215 48.8764 38.308 50.3903 39.8438C50.6092 40.059 50.6092 40.059 50.8325 40.2787C53.3318 42.9127 55.0433 46.7024 55.2096 50.3467C55.1659 51.0812 55.0958 51.3017 54.6677 51.9287C53.6014 52.6099 52.4778 52.5392 51.2461 52.5481C51.0494 52.5505 50.8526 52.5528 50.6499 52.5552C50.0007 52.5626 49.3514 52.5684 48.7021 52.5742C48.2515 52.579 47.8009 52.5839 47.3504 52.5889C46.1652 52.6019 44.98 52.6135 43.7948 52.6248C42.5851 52.6365 41.3754 52.6496 40.1657 52.6625C37.7927 52.6877 35.4196 52.7115 33.0466 52.7344C33.3051 52.8716 33.3051 52.8716 33.5688 53.0116C33.7974 53.1344 34.026 53.2571 34.2615 53.3835C34.487 53.504 34.7125 53.6245 34.9449 53.7486C39.2609 56.2374 41.7685 60.1869 43.0752 64.8834C43.3648 66.1383 43.4334 67.1805 43.1247 68.4375C42.4003 69.1637 41.8392 69.2291 40.8351 69.2315C40.559 69.2338 40.283 69.2362 39.9986 69.2385C39.6967 69.2375 39.3947 69.2364 39.0835 69.2354C38.7617 69.2367 38.4398 69.2383 38.1179 69.2402C37.2443 69.2444 36.3708 69.2442 35.4972 69.2428C34.768 69.2421 34.0387 69.2435 33.3095 69.2449C31.5893 69.2482 29.8691 69.2479 28.1489 69.2452C26.374 69.2425 24.5991 69.2458 22.8241 69.2521C21.3002 69.2573 19.7763 69.2588 18.2524 69.2575C17.3422 69.2567 16.4321 69.2572 15.5219 69.2613C14.6662 69.2649 13.8106 69.264 12.9549 69.2596C12.491 69.2583 12.0271 69.2616 11.5632 69.2651C11.1492 69.2616 11.1492 69.2616 10.7268 69.2581C10.4869 69.2581 10.247 69.258 9.99987 69.258C9.20773 69.1093 8.93041 68.8281 8.43719 68.2032C7.82576 65.5551 9.10873 62.4247 10.3854 60.1465C12.5776 56.6523 15.2178 54.5103 18.7497 52.5C18.6421 52.3749 18.5346 52.2499 18.4238 52.121C16.3369 49.5869 15.7323 47.0757 15.9372 43.8282C16.3745 41.2489 17.8602 38.8647 19.9216 37.2657C21.8967 36.1003 23.4471 35.5797 25.7077 35.5811C25.9909 35.5803 25.9909 35.5803 26.2799 35.5796C27.2814 35.5871 28.203 35.641 29.1794 35.8887C29.4501 35.9564 29.7208 36.024 29.9997 36.0938C30.1544 35.9391 30.3091 35.7844 30.4684 35.625C30.3778 35.5114 30.2872 35.3978 30.1938 35.2808C28.2011 32.7159 27.4115 30.2983 27.7502 27.0163C28.2416 24.3281 29.6294 22.0775 31.8014 20.4346C35.4495 18.0721 39.7842 18.0721 43.4323 20.4346ZM32.6565 25.3345C31.7058 26.6912 31.4968 28.2696 31.7721 29.8828C32.1883 31.5109 33.2963 32.8341 34.6872 33.75C36.0671 34.5228 37.3369 34.6776 38.9059 34.4532C40.6205 33.9141 41.9306 32.9269 42.8903 31.4063C43.669 29.7358 43.7708 28.2071 43.1979 26.4624C42.5027 24.8484 41.2595 23.8546 39.7702 22.9834C36.8862 22.1525 34.511 23.0012 32.6565 25.3345ZM33.5153 39.1407C33.631 39.3666 33.7467 39.5926 33.866 39.8255C34.0177 40.1245 34.1694 40.4236 34.321 40.7227C34.3973 40.8713 34.4736 41.02 34.5521 41.1731C35.2853 42.6243 35.4279 43.7216 35.4196 45.3369C35.4205 45.5129 35.4214 45.6889 35.4224 45.8702C35.4221 46.042 35.4218 46.2137 35.4214 46.3907C35.4212 46.5455 35.4209 46.7004 35.4206 46.8599C35.3903 47.3438 35.3903 47.3438 35.1559 48.5157C40.2606 48.5157 45.3653 48.5157 50.6247 48.5157C50.1286 45.5392 48.1516 42.8104 45.7175 41.0449C45.3264 40.7938 44.9309 40.5494 44.5309 40.3125C44.2568 40.1467 44.2568 40.1467 43.977 39.9774C40.6313 38.1266 37.0938 38.0914 33.5153 39.1407ZM20.9021 41.9651C20.0885 43.3049 19.6655 44.8409 19.9216 46.4063C20.3632 48.0729 21.0858 49.3754 22.4997 50.3907C23.8286 51.1212 25.199 51.6143 26.7184 51.3282C28.7641 50.7123 30.0442 49.8675 31.1679 48.0469C31.8785 46.6475 31.9078 44.9009 31.4362 43.4226C30.6616 41.7439 29.6526 40.7977 28.0807 39.8731C25.3544 39.0686 22.6753 39.6493 20.9021 41.9651ZM15.235 60.2783C14.1288 61.6105 12.8903 63.3727 12.8903 65.1563C21.4755 65.1563 30.0606 65.1563 38.9059 65.1563C37.8228 62.2978 37.8228 62.2978 36.0934 60C35.8501 59.7286 35.8501 59.7286 35.6018 59.4516C33.2772 56.9876 30.2333 55.4593 26.8201 55.2649C22.0888 55.2094 18.4681 56.7352 15.235 60.2783Z" fill="white"/>
<path d="M65.493 77.6514C67.54 79.2147 69.0082 81.306 69.5433 83.8632C70.0071 87.4639 68.9649 90.214 66.7967 93.0469C66.984 93.1354 67.1713 93.2239 67.3643 93.3151C69.4483 94.3596 71.0205 95.6131 72.6561 97.2656C72.8126 97.417 72.9691 97.5683 73.1303 97.7243C75.517 100.203 77.0816 103.961 77.2264 107.373C77.195 108.193 77.1579 108.447 76.6697 109.131C75.8604 109.655 75.4073 109.718 74.4444 109.72C74.0436 109.722 74.0436 109.722 73.6348 109.724C73.193 109.725 73.193 109.725 72.7423 109.725C72.4332 109.726 72.1241 109.728 71.8057 109.729C70.9563 109.732 70.1069 109.733 69.2575 109.734C68.727 109.735 68.1964 109.736 67.6658 109.737C66.0061 109.74 64.3463 109.743 62.6866 109.743C60.7701 109.745 58.8537 109.749 56.9373 109.755C55.4564 109.76 53.9755 109.763 52.4946 109.763C51.6099 109.763 50.7253 109.765 49.8406 109.769C49.0082 109.773 48.1759 109.773 47.3435 109.771C46.8928 109.771 46.4421 109.774 45.9914 109.778C45.5877 109.776 45.5877 109.776 45.1758 109.774C44.8258 109.774 44.8258 109.774 44.4686 109.775C43.7064 109.671 43.2733 109.438 42.6561 108.984C41.903 107.855 42.1997 106.768 42.4217 105.469C43.6817 100.645 46.353 96.7798 50.5452 94.0466C51.8674 93.2812 51.8674 93.2812 52.7342 93.2812C52.5901 93.0688 52.446 92.8564 52.2975 92.6376C50.2962 89.6461 49.5569 87.3077 49.9217 83.6719C50.4797 80.9859 52.1932 78.9365 54.3748 77.3437C57.957 75.3585 62.0213 75.3438 65.493 77.6514ZM55.078 82.0312C53.9475 83.6551 53.5887 85.2316 53.9061 87.1875C54.5462 89.1898 55.6976 90.3484 57.4803 91.3769C59.1285 91.8714 60.8085 91.8669 62.3967 91.1636C64.0101 90.2858 65.0056 88.935 65.5351 87.1756C65.8759 85.4405 65.5296 84.032 64.6873 82.5C63.6732 81.0878 62.3709 80.3549 60.7029 79.9219C58.5425 79.5697 56.5676 80.4739 55.078 82.0312ZM48.8084 101.074C47.9051 102.287 46.6405 104.154 46.6405 105.703C55.2256 105.703 63.8108 105.703 72.6561 105.703C72.1359 102.582 70.2384 100.18 67.7928 98.2324C61.5276 93.7823 53.6381 95.3291 48.8084 101.074Z" fill="white"/>
</svg>
