<svg width="121" height="120" viewBox="0 0 121 120" fill="none" xmlns="http://www.w3.org/2000/svg">
<g clip-path="url(#clip0_145_191)">
<path d="M23.7954 -0.0626446C24.1233 -0.063522 24.4513 -0.0646012 24.7792 -0.0658627C25.6738 -0.0687116 26.5683 -0.0686701 27.4629 -0.0681153C28.4304 -0.0680192 29.3978 -0.0706112 30.3652 -0.0728298C32.2583 -0.0767135 34.1514 -0.0780113 36.0445 -0.0782731C37.5845 -0.0784964 39.1246 -0.079462 40.6646 -0.0809453C45.0377 -0.0850709 49.4108 -0.087236 53.7839 -0.0868841C54.1371 -0.086856 54.1371 -0.086856 54.4975 -0.0868274C54.7332 -0.0868082 54.969 -0.086789 55.2119 -0.0867693C59.0297 -0.0865789 62.8474 -0.0910618 66.6652 -0.0976735C70.592 -0.10442 74.5187 -0.107643 78.4454 -0.107239C80.6473 -0.107084 82.8491 -0.108352 85.051 -0.113416C86.9262 -0.117702 88.8014 -0.118689 90.6767 -0.115521C91.6318 -0.113999 92.5869 -0.113932 93.542 -0.11803C101.455 -0.1498 107.876 1.15629 113.77 6.79691C117.779 10.8231 120.358 16.3993 120.397 22.1134C120.396 22.3474 120.396 22.5814 120.395 22.8225C120.396 23.0783 120.397 23.334 120.398 23.5975C120.401 24.4476 120.401 25.2978 120.4 26.148C120.402 26.7604 120.403 27.3727 120.405 27.9851C120.409 29.4721 120.41 30.9591 120.411 32.4462C120.411 33.6564 120.412 34.8666 120.413 36.0768C120.417 39.5161 120.42 42.9554 120.419 46.3947C120.419 46.6722 120.419 46.6722 120.419 46.9554C120.419 47.1407 120.419 47.326 120.419 47.5169C120.419 50.5163 120.423 53.5156 120.43 56.515C120.437 59.6027 120.44 62.6904 120.44 65.7781C120.439 67.5084 120.441 69.2386 120.446 70.9689C120.45 72.5978 120.45 74.2266 120.447 75.8554C120.446 76.4504 120.447 77.0454 120.45 77.6404C120.484 85.0742 118.786 91.076 113.535 96.5625C108.368 101.709 102.097 103.194 95.0253 103.22C94.7795 103.222 94.5336 103.223 94.2804 103.224C92.9817 103.231 91.683 103.236 90.3842 103.238C89.0474 103.24 87.7107 103.252 86.3739 103.265C85.3408 103.274 84.3077 103.276 83.2746 103.277C82.7818 103.278 82.289 103.282 81.7962 103.288C81.1063 103.296 80.417 103.295 79.7272 103.292C79.5262 103.296 79.3253 103.301 79.1182 103.305C77.5436 103.284 76.5285 102.726 75.3323 101.719C74.2578 100.461 74.2246 99.2364 74.2749 97.6062C74.4548 96.392 74.9053 95.5255 75.801 94.6875C77.0138 93.8739 77.9134 93.6133 79.3831 93.6295C79.6636 93.627 79.6636 93.627 79.9497 93.6245C80.5643 93.62 81.1786 93.6219 81.7932 93.6237C82.2244 93.6214 82.6556 93.6186 83.0867 93.6153C84.221 93.6077 85.3552 93.6053 86.4894 93.6043C88.2986 93.6023 90.1077 93.5939 91.9169 93.5827C92.5439 93.5798 93.1708 93.58 93.7978 93.5805C98.8852 93.5689 103.05 92.8047 106.914 89.2237C110.914 84.9933 110.794 79.6218 110.784 74.1806C110.784 73.6316 110.785 73.0826 110.786 72.5337C110.788 71.0519 110.787 69.5701 110.786 68.0883C110.785 66.6903 110.786 65.2923 110.786 63.8944C110.788 60.9569 110.786 58.0194 110.784 55.0819C110.781 52.5687 110.782 50.0555 110.784 47.5422C110.787 44.6143 110.788 41.6864 110.786 38.7584C110.785 37.212 110.785 35.6655 110.787 34.1191C110.788 32.6647 110.787 31.2103 110.785 29.7559C110.784 29.2245 110.784 28.6931 110.785 28.1617C110.794 23.0043 110.669 18.4548 107.207 14.2969C107.083 14.1455 106.958 13.9942 106.829 13.8382C104.3 11.0575 100.777 9.86929 97.1292 9.60941C96.1111 9.57745 95.0939 9.57674 94.0755 9.57807C93.7753 9.57754 93.4751 9.57701 93.1658 9.57646C92.3383 9.57503 91.5109 9.57506 90.6834 9.57533C89.7887 9.57538 88.894 9.57409 87.9993 9.57298C86.2485 9.57103 84.4978 9.57039 82.7471 9.57025C81.3233 9.57014 79.8994 9.56966 78.4755 9.56892C74.4335 9.56686 70.3915 9.56577 66.3495 9.56595C66.1318 9.56596 65.9142 9.56597 65.69 9.56598C65.4721 9.56599 65.2541 9.566 65.0296 9.56601C61.4992 9.5661 57.9687 9.56386 54.4382 9.56055C50.8081 9.55718 47.178 9.55557 43.548 9.55577C41.512 9.55585 39.476 9.55521 37.44 9.55268C35.7064 9.55054 33.9729 9.55004 32.2393 9.55163C31.356 9.55239 30.4727 9.55242 29.5894 9.55038C28.6289 9.54818 27.6686 9.54966 26.7081 9.55146C26.4329 9.55026 26.1577 9.54905 25.8742 9.54781C21.5896 9.56547 17.975 10.3395 14.6292 13.125C14.4778 13.2498 14.3264 13.3746 14.1705 13.5031C11.2947 16.1193 10.2038 19.6874 9.94166 23.4375C9.91243 24.2451 9.90892 25.0514 9.91032 25.8594C9.90953 26.2035 9.90953 26.2035 9.90871 26.5546C9.90724 27.3157 9.90742 28.0769 9.90761 28.838C9.90691 29.3869 9.90612 29.9357 9.90523 30.4846C9.90317 31.9703 9.90261 33.456 9.90246 34.9417C9.90227 36.0276 9.90158 37.1135 9.90086 38.1994C9.89891 41.1228 9.89803 44.0462 9.8982 46.9696C9.89822 47.218 9.89822 47.218 9.89823 47.4715C9.89825 47.7203 9.89824 47.7203 9.89826 47.9741C9.89835 50.6602 9.89611 53.3463 9.89281 56.0324C9.88943 58.7978 9.88782 61.5631 9.88802 64.3285C9.8881 65.8781 9.88743 67.4277 9.88494 68.9774C9.88266 70.4356 9.88266 71.8938 9.88435 73.352C9.8846 73.8849 9.88405 74.4178 9.88263 74.9508C9.86848 80.6169 10.1812 85.3339 14.2337 89.7071C17.9691 93.2159 22.4339 93.5536 27.2965 93.5415C27.6721 93.5414 28.0477 93.5415 28.4233 93.5417C29.2279 93.5419 30.0326 93.5416 30.8372 93.5409C32.111 93.54 33.3847 93.5422 34.6585 93.545C34.8741 93.5455 35.0896 93.546 35.3118 93.5465C35.7524 93.5474 36.1929 93.5484 36.6335 93.5494C39.5958 93.556 42.558 93.5607 45.5203 93.5567C47.5231 93.554 49.5259 93.5562 51.5288 93.5642C52.5869 93.5682 53.6449 93.5697 54.7031 93.5651C55.6979 93.5608 56.6926 93.5631 57.6874 93.5703C58.0512 93.5718 58.4151 93.5709 58.7789 93.5674C60.8699 93.5488 62.5014 93.6475 64.0823 95.1563C65.3042 96.6129 65.1416 98.1459 65.1113 99.982C65.11 100.287 65.1087 100.591 65.1073 100.905C65.1038 101.71 65.0946 102.515 65.0842 103.32C65.0745 104.143 65.0703 104.966 65.0656 105.79C65.0555 107.402 65.0396 109.013 65.0198 110.625C65.3079 110.62 65.3079 110.62 65.6017 110.616C67.4187 110.587 69.2356 110.566 71.0528 110.552C71.9869 110.545 72.9207 110.535 73.8547 110.519C74.7574 110.504 75.6599 110.495 76.5627 110.492C76.9058 110.489 77.2488 110.484 77.5917 110.476C79.6721 110.432 81.2565 110.538 82.8323 112.031C83.9068 113.289 83.94 114.514 83.8897 116.144C83.7098 117.358 83.2593 118.225 82.3635 119.063C81.1829 119.84 80.4357 120.118 78.9916 120.122C78.8252 120.124 78.6587 120.126 78.4872 120.128C77.9336 120.132 77.3802 120.131 76.8265 120.129C76.4279 120.131 76.0293 120.133 75.6307 120.136C74.5508 120.142 73.471 120.143 72.3911 120.141C71.4883 120.141 70.5856 120.143 69.6828 120.145C67.5523 120.151 65.4219 120.151 63.2914 120.148C61.0964 120.145 58.9015 120.151 56.7065 120.161C54.8193 120.169 52.9321 120.172 51.0449 120.17C49.9189 120.17 48.793 120.171 47.6671 120.177C46.6078 120.183 45.5487 120.182 44.4894 120.176C44.1018 120.175 43.7141 120.176 43.3265 120.18C41.1927 120.2 39.4549 120.17 37.8323 118.594C36.7578 117.336 36.7246 116.111 36.7749 114.481C37.0047 112.93 37.7172 112.021 38.9259 111.072C40.3197 110.297 41.9896 110.511 43.5369 110.533C43.8867 110.535 44.2364 110.537 44.5861 110.538C45.502 110.541 46.4178 110.55 47.3337 110.561C48.435 110.572 49.5364 110.576 50.6377 110.582C52.3069 110.591 53.9757 110.609 55.6448 110.625C55.6448 108.15 55.6448 105.675 55.6448 103.125C54.6019 103.13 53.559 103.135 52.4845 103.14C49.027 103.155 45.5695 103.166 42.1119 103.174C40.017 103.178 37.9221 103.185 35.8272 103.196C33.9993 103.205 32.1715 103.211 30.3437 103.213C29.3775 103.214 28.4115 103.217 27.4454 103.224C19.4217 103.279 12.8946 102.07 6.89479 96.3282C4.11742 93.5391 2.06247 90.058 1.03541 86.25C0.948797 85.9566 0.948798 85.9566 0.860434 85.6572C0.118377 82.7703 0.231734 79.8578 0.237586 76.8972C0.236248 76.2848 0.234615 75.6723 0.232712 75.0598C0.228703 73.5752 0.228482 72.0907 0.229715 70.6061C0.230666 69.3979 0.230319 68.1897 0.229071 66.9816C0.228895 66.8089 0.228719 66.6362 0.228538 66.4583C0.228179 66.1074 0.22782 65.7565 0.227458 65.4056C0.224248 62.1225 0.22551 58.8394 0.228204 55.5563C0.23053 52.5615 0.227501 49.5668 0.221892 46.572C0.216158 43.4875 0.213926 40.4029 0.215481 37.3184C0.216296 35.5905 0.2158 33.8626 0.211672 32.1347C0.207836 30.5087 0.208994 28.8828 0.213385 27.2568C0.214244 26.6629 0.213534 26.069 0.211068 25.4752C0.182588 18.046 1.88167 12.0455 7.12916 6.56253C11.645 2.06567 17.4857 -0.0779287 23.7954 -0.0626446Z" fill="white"/>
<path d="M81.3709 28.3841C82.5069 29.0856 83.3086 29.8973 83.7696 31.1719C83.9047 32.2871 83.8883 33.3994 83.876 34.5208C83.8758 34.8605 83.8759 35.2002 83.8765 35.5399C83.8767 36.4584 83.8712 37.3768 83.8647 38.2953C83.8588 39.2565 83.8583 40.2178 83.8571 41.179C83.8542 42.9977 83.8465 44.8162 83.8371 46.6349C83.8266 48.706 83.8215 50.7771 83.8168 52.8482C83.807 57.1072 83.7905 61.3661 83.7696 65.625C83.9503 65.6176 84.1309 65.6103 84.317 65.6027C85.1452 65.5732 85.9733 65.5551 86.8018 65.5371C87.086 65.5253 87.3701 65.5136 87.6629 65.5014C89.5678 65.4704 90.787 65.7201 92.2071 67.0313C93.2816 68.2892 93.3148 69.5136 93.2645 71.1438C93.0846 72.358 92.6341 73.2246 91.7384 74.0625C90.3595 75.029 89.3151 75.1353 87.6546 75.1222C87.4116 75.124 87.1686 75.1258 86.9182 75.1276C86.1055 75.1325 85.2929 75.1306 84.4802 75.1288C83.8968 75.1308 83.3135 75.1332 82.7302 75.136C81.3111 75.1416 79.8921 75.1428 78.473 75.1417C77.3192 75.1409 76.1653 75.1417 75.0115 75.1437C74.7649 75.1441 74.7649 75.1441 74.5134 75.1446C74.1794 75.1451 73.8454 75.1457 73.5114 75.1463C70.381 75.1514 67.2507 75.1503 64.1203 75.1475C61.2589 75.1451 58.3975 75.1503 55.5361 75.1593C52.5954 75.1683 49.6548 75.1722 46.7141 75.1704C45.0641 75.1696 43.4142 75.1707 41.7643 75.1773C40.2126 75.1835 38.661 75.1823 37.1093 75.1762C36.5402 75.1751 35.9711 75.1764 35.4021 75.1803C34.6243 75.1852 33.847 75.1814 33.0691 75.1754C32.8448 75.1789 32.6204 75.1823 32.3892 75.1859C30.7477 75.1596 29.7017 74.6599 28.4571 73.5938C27.3826 72.3358 27.3494 71.1114 27.3997 69.4812C27.6304 67.9245 28.3438 67.0067 29.5712 66.0701C30.8829 65.3344 32.3756 65.5267 33.8331 65.5664C34.1275 65.5706 34.4219 65.5749 34.7253 65.5792C35.4486 65.5902 36.1715 65.6056 36.8946 65.625C36.8915 65.433 36.8884 65.2409 36.8851 65.0431C36.8569 63.2261 36.8355 61.4092 36.8217 59.592C36.8144 58.6579 36.8045 57.7241 36.7885 56.7901C36.7731 55.8874 36.7648 54.9849 36.7612 54.0821C36.7586 53.739 36.7536 53.396 36.7459 53.0531C36.7015 50.9727 36.808 49.3883 38.3009 47.8125C39.5588 46.738 40.7832 46.7048 42.4134 46.7551C43.9643 46.9849 44.8739 47.6974 45.8225 48.9061C46.5975 50.2999 46.384 51.9698 46.3612 53.5172C46.3594 53.8669 46.3581 54.2166 46.3571 54.5663C46.3536 55.4823 46.3444 56.398 46.334 57.3139C46.3227 58.4152 46.3184 59.5166 46.3129 60.618C46.3039 62.2871 46.2859 63.9559 46.2696 65.625C49.3634 65.625 52.4571 65.625 55.6446 65.625C55.6372 64.8764 55.6299 64.1277 55.6223 63.3564C55.599 60.8793 55.5834 58.4021 55.5717 55.925C55.5644 54.4234 55.5545 52.922 55.5385 51.4205C55.5232 49.9708 55.5148 48.5211 55.5112 47.0713C55.5086 46.5189 55.5035 45.9666 55.4959 45.4143C55.4857 44.6389 55.4843 43.8639 55.485 43.0884C55.4799 42.8615 55.4748 42.6346 55.4696 42.4008C55.4846 40.742 55.97 39.6934 57.0509 38.4375C58.3088 37.363 59.5332 37.3298 61.1634 37.3801C62.3776 37.56 63.2442 38.0105 64.0821 38.9063C65.0633 40.2976 65.1508 41.3577 65.126 43.0352C65.1262 43.2801 65.1263 43.5249 65.1265 43.7772C65.1258 44.5825 65.1185 45.3876 65.1112 46.1929C65.1094 46.7529 65.1081 47.3128 65.1071 47.8727C65.1036 49.3434 65.0944 50.8141 65.084 52.2848C65.0744 53.7867 65.0701 55.2887 65.0654 56.7906C65.0553 59.7355 65.0389 62.6802 65.0196 65.625C68.1134 65.625 71.2071 65.625 74.3946 65.625C74.3872 64.5924 74.3799 63.5597 74.3723 62.4958C74.349 59.0832 74.3334 55.6706 74.3217 52.2579C74.3145 50.1889 74.3046 48.1199 74.2885 46.051C74.2745 44.2471 74.2654 42.4433 74.2623 40.6394C74.2605 39.6847 74.2562 38.7301 74.2459 37.7755C74.2363 36.8757 74.2334 35.9762 74.2356 35.0763C74.2352 34.7473 74.2324 34.4182 74.227 34.0892C74.1948 32.0336 74.371 30.6073 75.8009 29.0625C77.3179 27.7667 79.5312 27.6487 81.3709 28.3841Z" fill="white"/>
</g>
<defs>
<clipPath id="clip0_145_191">
<rect width="120" height="120" fill="white" transform="translate(0.332031)"/>
</clipPath>
</defs>
</svg>
