<svg width="120" height="120" viewBox="0 0 120 120" fill="none" xmlns="http://www.w3.org/2000/svg">
<path d="M10.1597 14.882C10.3346 14.8807 10.5095 14.8793 10.6897 14.8779C11.2792 14.8745 11.8684 14.8777 12.4579 14.881C12.8834 14.8799 13.3089 14.8784 13.7344 14.8765C14.9063 14.8726 16.0781 14.8746 17.25 14.8774C18.5128 14.8796 19.7756 14.8763 21.0384 14.8737C23.5132 14.8695 25.988 14.8705 28.4629 14.8732C30.4736 14.8753 32.4844 14.8756 34.4951 14.8746C34.7809 14.8744 35.0667 14.8743 35.3612 14.8741C35.9418 14.8738 36.5223 14.8735 37.1029 14.8732C42.5511 14.8705 47.9994 14.8736 53.4476 14.8786C58.1259 14.8828 62.8041 14.8821 67.4824 14.8778C72.9107 14.8728 78.339 14.8708 83.7673 14.8737C84.3458 14.874 84.9242 14.8743 85.5027 14.8746C85.9297 14.8748 85.9297 14.8748 86.3652 14.875C88.3744 14.8758 90.3835 14.8744 92.3926 14.8722C94.8399 14.8696 97.2872 14.8703 99.7346 14.8753C100.984 14.8778 102.233 14.8787 103.483 14.8756C104.626 14.8728 105.768 14.8744 106.911 14.8794C107.325 14.8804 107.74 14.8799 108.154 14.8776C108.716 14.8748 109.277 14.8777 109.838 14.882C110.001 14.8798 110.164 14.8776 110.331 14.8754C111.074 14.887 111.509 14.9647 112.13 15.3831C112.611 16.106 112.616 16.5605 112.617 17.4265C112.619 17.7348 112.622 18.043 112.624 18.3607C112.622 18.7036 112.62 19.0466 112.618 19.3895C112.619 19.7531 112.621 20.1168 112.622 20.4804C112.626 21.4813 112.624 22.4821 112.621 23.4829C112.619 24.5617 112.623 25.6404 112.625 26.7192C112.629 28.8331 112.628 30.9469 112.626 33.0608C112.624 34.7784 112.623 36.4959 112.624 38.2135C112.625 38.4577 112.625 38.7018 112.625 38.9534C112.625 39.4494 112.625 39.9454 112.626 40.4414C112.628 45.0957 112.625 49.7499 112.62 54.4041C112.616 58.4001 112.617 62.3962 112.621 66.3922C112.626 71.0294 112.628 75.6667 112.625 80.3039C112.625 80.7981 112.625 81.2923 112.624 81.7865C112.624 82.1513 112.624 82.1513 112.624 82.5234C112.623 84.2395 112.624 85.9556 112.627 87.6716C112.629 89.7621 112.629 91.8526 112.624 93.9431C112.621 95.0103 112.62 96.0775 112.623 97.1447C112.626 98.1208 112.625 99.0968 112.62 100.073C112.618 100.427 112.619 100.781 112.621 101.135C112.624 101.614 112.621 102.094 112.617 102.573C112.617 102.84 112.617 103.107 112.616 103.382C112.473 104.212 112.217 104.488 111.561 105C111.093 105.125 111.093 105.125 110.624 105.117C110.392 105.121 110.392 105.121 110.155 105.125C109.474 104.943 109.196 104.6 108.749 104.063C108.632 103.495 108.632 103.495 108.634 102.849C108.631 102.479 108.631 102.479 108.628 102.101C108.631 101.83 108.633 101.559 108.636 101.28C108.635 100.993 108.635 100.706 108.634 100.41C108.632 99.6107 108.635 98.8116 108.64 98.0124C108.644 97.138 108.643 96.2637 108.642 95.3893C108.642 93.6913 108.646 91.9934 108.652 90.2954C108.659 88.3317 108.659 86.3681 108.66 84.4044C108.665 79.2188 108.678 74.0332 108.69 68.8477C108.71 57.2654 108.729 45.6832 108.749 33.75C76.5739 33.75 44.3989 33.75 11.2489 33.75C11.2489 56.025 11.2489 78.3 11.2489 101.25C16.1784 101.239 21.1078 101.228 26.1867 101.217C29.3013 101.212 32.4159 101.208 35.5305 101.204C37.166 101.202 38.8015 101.2 40.4371 101.199C40.6421 101.198 40.847 101.198 41.0582 101.198C44.3701 101.194 47.682 101.186 50.9939 101.178C54.3913 101.169 57.7888 101.164 61.1863 101.162C63.2836 101.161 65.381 101.156 67.4783 101.149C68.9155 101.144 70.3526 101.142 71.7897 101.144C72.6196 101.144 73.4494 101.143 74.2793 101.138C75.178 101.133 76.0767 101.135 76.9755 101.137C77.2391 101.135 77.5026 101.132 77.7742 101.129C78.0144 101.131 78.2547 101.133 78.5022 101.135C78.7098 101.134 78.9173 101.134 79.1311 101.134C79.8691 101.288 80.1527 101.613 80.6239 102.188C80.7484 102.656 80.7484 102.656 80.7411 103.125C80.7435 103.28 80.7459 103.434 80.7484 103.594C80.5673 104.276 80.2242 104.553 79.6864 105C79.1142 105.118 79.1142 105.118 78.4609 105.118C78.2114 105.12 77.962 105.123 77.7049 105.125C77.2941 105.122 77.2941 105.122 76.875 105.119C76.584 105.121 76.2929 105.122 75.993 105.123C75.1844 105.127 74.3761 105.125 73.5676 105.123C72.696 105.12 71.8243 105.124 70.9526 105.126C69.2448 105.13 67.537 105.13 65.8291 105.127C64.4414 105.125 63.0537 105.124 61.666 105.125C61.37 105.126 61.37 105.126 61.068 105.126C60.6671 105.126 60.2662 105.126 59.8653 105.127C56.1044 105.129 52.3435 105.126 48.5825 105.121C45.354 105.117 42.1255 105.118 38.8969 105.122C35.1496 105.127 31.4024 105.129 27.6551 105.126C27.2557 105.126 26.8562 105.126 26.4568 105.125C26.2603 105.125 26.0637 105.125 25.8613 105.125C24.4749 105.124 23.0885 105.126 21.7021 105.128C20.013 105.13 18.324 105.13 16.6349 105.125C15.7728 105.122 14.9107 105.121 14.0485 105.124C13.1149 105.128 12.1814 105.124 11.2478 105.119C10.9739 105.121 10.7 105.123 10.4179 105.125C10.1684 105.123 9.91892 105.121 9.66188 105.118C9.4463 105.118 9.23073 105.118 9.00862 105.118C8.23 104.958 7.96153 104.705 7.49891 104.063C7.38139 103.382 7.38139 103.382 7.38093 102.573C7.37848 102.265 7.37604 101.957 7.37352 101.639C7.37555 101.296 7.37766 100.953 7.37986 100.611C7.37878 100.247 7.37729 99.8832 7.37543 99.5196C7.3715 98.5187 7.37345 97.5179 7.37635 96.5171C7.37847 95.4383 7.3752 94.3596 7.37262 93.2809C7.36844 91.167 7.36935 89.0531 7.37207 86.9392C7.37418 85.2216 7.37447 83.5041 7.37345 81.7865C7.37331 81.5423 7.37317 81.2982 7.37302 81.0466C7.37272 80.5506 7.37241 80.0546 7.37211 79.5586C7.36943 74.9044 7.37251 70.2502 7.37754 65.5959C7.38173 61.5999 7.381 57.6038 7.37668 53.6078C7.37167 48.9706 7.36969 44.3333 7.37257 39.6961C7.37287 39.2019 7.37316 38.7077 7.37345 38.2135C7.3736 37.9703 7.37374 37.7271 7.37389 37.4766C7.3747 35.7605 7.37333 34.0444 7.37113 32.3284C7.3685 30.2379 7.3692 28.1474 7.3742 26.0569C7.37667 24.9897 7.37762 23.9226 7.37453 22.8553C7.37175 21.8792 7.37326 20.9032 7.37826 19.927C7.37931 19.5731 7.37877 19.2192 7.3765 18.8653C7.37367 18.3857 7.37713 17.9061 7.38093 17.4265C7.38108 17.1597 7.38123 16.8928 7.38139 16.6179C7.49891 15.9375 7.49891 15.9375 7.86732 15.3831C8.62649 14.8721 9.27511 14.8701 10.1597 14.882ZM11.2489 18.75C11.2489 22.4625 11.2489 26.175 11.2489 30C19.9114 30 28.5739 30 37.4989 30C37.4989 26.2875 37.4989 22.575 37.4989 18.75C28.8364 18.75 20.1739 18.75 11.2489 18.75ZM41.2489 18.75C41.2489 22.4625 41.2489 26.175 41.2489 30C63.5239 30 85.7989 30 108.749 30C108.749 26.2875 108.749 22.575 108.749 18.75C86.4739 18.75 64.1989 18.75 41.2489 18.75Z" fill="white"/>
<path d="M59.208 40.9771C66.6646 40.7441 73.2519 43.681 78.6629 48.6653C83.1773 52.9829 86.1128 59.3509 86.3049 65.5984C86.3997 71.3966 85.4782 76.106 82.597 81.1624C82.1962 81.9151 82.1962 81.9151 82.0303 82.7343C82.8027 83.7804 82.8027 83.7804 83.9667 84.2501C84.2522 84.281 84.2521 84.281 84.5434 84.3125C85.9712 84.5714 86.6958 85.2628 87.6844 86.282C87.8589 86.4543 88.0334 86.6267 88.2131 86.8042C88.7854 87.3718 89.3506 87.9458 89.9157 88.5205C90.3138 88.9191 90.7123 89.3175 91.1111 89.7155C91.9447 90.5495 92.7751 91.3867 93.6032 92.2264C94.6613 93.2992 95.7261 94.3651 96.7933 95.4289C97.6165 96.2507 98.4368 97.0754 99.2561 97.901C99.6475 98.2949 100.04 98.6881 100.433 99.0805C100.983 99.6312 101.529 100.185 102.075 100.741C102.236 100.901 102.396 101.06 102.562 101.225C104.032 102.736 105.171 104.469 105.145 106.641C105.078 108.355 104.644 109.718 103.486 111.004C101.98 112.347 100.413 112.767 98.4365 112.734C94.1326 112.239 89.8732 106.141 86.968 103.257C85.9722 102.269 84.9747 101.282 83.9727 100.3C82.9978 99.3442 82.0276 98.384 81.0606 97.4204C80.6928 97.0555 80.3234 96.6922 79.9523 96.3306C79.4346 95.8253 78.923 95.3145 78.4125 94.8019C78.2592 94.655 78.106 94.5081 77.948 94.3568C77.016 93.4052 76.6999 92.7285 76.6659 91.3881C76.6303 90.7762 76.4295 90.4948 75.9805 90.0879C75.3253 89.4666 75.3253 89.4666 74.7704 89.5859C74.304 89.7625 73.8893 89.9616 73.4564 90.2087C71.2838 91.4205 69.2102 92.3967 66.7959 93.0468C66.5219 93.1215 66.2478 93.1961 65.9655 93.273C61.8992 94.2028 57.2132 94.2158 53.2021 93.0468C52.9184 92.9671 52.6348 92.8873 52.3425 92.8051C48.9244 91.7567 45.8711 90.1923 43.124 87.8906C42.8878 87.6927 42.6515 87.4948 42.4081 87.2909C37.2165 82.8053 34.0825 76.3142 33.5439 69.4922C33.1713 62.0404 35.4126 55.1501 40.401 49.5588C45.3206 44.1631 51.9826 41.4287 59.208 40.9771ZM44.999 50.8593C44.7945 51.0479 44.5899 51.2364 44.3792 51.4306C40.7022 54.9588 38.0061 59.976 37.6919 65.1341C37.6011 69.6154 37.8869 73.2491 39.8428 77.3437C39.9461 77.56 40.0494 77.7764 40.1559 77.9992C42.7345 83.0426 47.4462 86.9825 52.8019 88.7734C58.9401 90.6761 64.9018 90.1543 70.6094 87.2384C75.6804 84.5237 79.6953 79.8583 81.3943 74.339C83.2439 67.9668 82.4048 61.7885 79.3066 56.0101C76.294 50.9675 71.2152 47.2428 65.5597 45.7533C58.25 43.9729 50.5579 45.6932 44.999 50.8593ZM78.9834 85.7812C78.6353 86.2453 78.6353 86.2453 78.2803 86.7187C78.667 87.1054 79.0537 87.4922 79.4521 87.8906C79.7615 87.7359 80.0709 87.5812 80.3896 87.4218C80.0631 86.6327 79.6915 86.2533 78.9834 85.7812ZM83.5812 89.8095C83.263 90.1358 83.263 90.1358 82.9385 90.4687C82.7252 90.6862 82.5119 90.9038 82.2921 91.1279C82.1284 91.2971 81.9646 91.4663 81.7959 91.6406C82.0957 92.2963 82.4087 92.7823 82.9134 93.2959C83.0455 93.4313 83.1775 93.5667 83.3135 93.7061C83.4579 93.8518 83.6023 93.9975 83.7511 94.1475C83.9799 94.3809 83.9799 94.3809 84.2132 94.619C84.7177 95.1327 85.2241 95.6445 85.7308 96.156C85.9039 96.3309 86.0769 96.5059 86.2553 96.6862C87.1708 97.6115 88.088 98.5354 89.0062 99.458C89.9544 100.411 90.897 101.37 91.8385 102.33C92.5636 103.068 93.2929 103.801 94.0234 104.533C94.3727 104.885 94.7205 105.238 95.0667 105.593C95.5514 106.089 96.0416 106.579 96.5337 107.067C96.746 107.289 96.746 107.289 96.9626 107.515C97.6887 108.223 98.1696 108.604 99.2073 108.628C100.065 108.576 100.065 108.576 100.663 108.164C101.153 107.348 101.203 106.618 101.015 105.703C100.609 105.034 100.078 104.524 99.516 103.984C99.3568 103.824 99.1975 103.664 99.0334 103.498C98.5074 102.971 97.9751 102.451 97.4423 101.931C97.0752 101.566 96.7085 101.201 96.3421 100.836C95.5745 100.072 94.8039 99.3107 94.0309 98.5521C93.0379 97.5778 92.0502 96.5984 91.0642 95.617C90.1255 94.6829 89.1844 93.7512 88.243 92.8198C88.0626 92.641 87.8822 92.4621 87.6963 92.2779C87.188 91.775 86.6781 91.2738 86.1676 90.7731C86.0159 90.6227 85.8642 90.4722 85.7079 90.3172C84.7137 89.1892 84.7137 89.1892 83.5812 89.8095Z" fill="white"/>
<path d="M48.2492 22.381C48.4867 22.3795 48.7242 22.378 48.9689 22.3765C49.7671 22.3728 50.5652 22.3757 51.3634 22.3787C51.9347 22.3774 52.5059 22.3758 53.0772 22.3737C54.4692 22.3699 55.8612 22.3704 57.2532 22.3732C58.3843 22.3753 59.5155 22.3756 60.6467 22.3745C60.8076 22.3744 60.9685 22.3743 61.1343 22.3741C61.4612 22.3738 61.7881 22.3735 62.115 22.3732C65.1812 22.3705 68.2473 22.3736 71.3135 22.3786C73.9451 22.3828 76.5766 22.3821 79.2083 22.3778C82.2634 22.3728 85.3184 22.3708 88.3735 22.3737C88.6992 22.374 89.0249 22.3743 89.3506 22.3745C89.5109 22.3747 89.6711 22.3748 89.8363 22.375C90.9662 22.3758 92.0962 22.3744 93.2262 22.3722C94.7467 22.3693 96.2672 22.3714 97.7877 22.3768C98.3466 22.3781 98.9056 22.3777 99.4646 22.3756C100.226 22.3731 100.987 22.3763 101.748 22.381C102.082 22.3778 102.082 22.3778 102.423 22.3746C103.916 22.3925 103.916 22.3925 104.667 22.9469C105.025 23.4768 105.126 23.7411 105.116 24.375C105.119 24.607 105.119 24.607 105.123 24.8437C104.931 25.5686 104.669 25.8015 104.061 26.25C103.292 26.393 102.529 26.3764 101.748 26.369C101.511 26.3705 101.273 26.372 101.028 26.3735C100.23 26.3772 99.4321 26.3743 98.6339 26.3713C98.0626 26.3726 97.4914 26.3742 96.9201 26.3763C95.5281 26.3801 94.1362 26.3796 92.7442 26.3768C91.613 26.3747 90.4818 26.3744 89.3506 26.3754C89.1897 26.3756 89.0288 26.3757 88.863 26.3759C88.5361 26.3762 88.2092 26.3765 87.8823 26.3768C84.8161 26.3795 81.75 26.3764 78.6838 26.3714C76.0522 26.3672 73.4207 26.3679 70.7891 26.3722C67.734 26.3772 64.6789 26.3792 61.6238 26.3763C61.2981 26.376 60.9724 26.3757 60.6467 26.3754C60.4864 26.3753 60.3262 26.3752 60.1611 26.375C59.0311 26.3742 57.9011 26.3756 56.7711 26.3778C55.2506 26.3807 53.7301 26.3786 52.2096 26.3732C51.6507 26.3719 51.0917 26.3723 50.5327 26.3744C49.7715 26.3769 49.0105 26.3737 48.2492 26.369C47.9151 26.3722 47.9151 26.3722 47.5741 26.3754C46.0818 26.3575 46.0818 26.3575 45.3306 25.8031C44.9721 25.2732 44.8716 25.0089 44.8815 24.375C44.8778 24.143 44.8778 24.143 44.8741 23.9062C45.3265 22.2032 46.8023 22.3674 48.2492 22.381Z" fill="white"/>
<path d="M93.0455 59.8755C93.2501 59.8746 93.4546 59.8737 93.6653 59.8728C94.0972 59.8721 94.529 59.8739 94.9608 59.8778C95.6214 59.8828 96.2814 59.8778 96.942 59.8718C97.3619 59.8725 97.7819 59.8737 98.2018 59.8755C98.3991 59.8736 98.5964 59.8717 98.7996 59.8698C98.9842 59.8727 99.1688 59.8757 99.359 59.8787C99.6015 59.8798 99.6015 59.8798 99.8488 59.881C100.539 60.0586 100.819 60.3783 101.249 60.9375C101.368 61.5422 101.368 61.5422 101.37 62.2339C101.373 62.4936 101.376 62.7533 101.379 63.0208C101.377 63.3001 101.375 63.5794 101.373 63.8672C101.374 64.155 101.375 64.4427 101.376 64.7392C101.377 65.3476 101.375 65.956 101.371 66.5643C101.366 67.4965 101.371 68.4282 101.377 69.3604C101.376 69.9512 101.375 70.542 101.373 71.1328C101.375 71.4121 101.377 71.6915 101.379 71.9792C101.376 72.2389 101.373 72.4986 101.37 72.7661C101.369 73.1085 101.369 73.1085 101.368 73.4578C101.213 74.2428 100.943 74.5206 100.311 75C99.8488 75.1191 99.8488 75.1191 99.359 75.1213C99.0821 75.1258 99.0821 75.1258 98.7996 75.1303C98.6023 75.1284 98.405 75.1265 98.2018 75.1245C97.9972 75.1254 97.7927 75.1263 97.582 75.1272C97.1501 75.1279 96.7183 75.1262 96.2865 75.1222C95.6259 75.1172 94.9659 75.1222 94.3053 75.1282C93.8854 75.1276 93.4655 75.1264 93.0455 75.1245C92.7496 75.1274 92.7496 75.1274 92.4477 75.1303C91.0798 75.1084 91.0798 75.1084 90.3434 74.5528C89.9702 74.022 89.8714 73.767 89.8815 73.125C89.8791 72.9703 89.8766 72.8156 89.8741 72.6563C90.0582 71.9634 90.3795 71.6954 90.9362 71.25C91.645 71.1436 91.645 71.1436 92.4633 71.1585C92.7274 71.1608 92.9915 71.1631 93.2637 71.1656C93.7648 71.1784 93.7648 71.1784 94.276 71.1914C95.3395 71.2108 96.403 71.2301 97.4987 71.25C97.4987 68.775 97.4987 66.3 97.4987 63.75C95.381 63.787 95.381 63.787 93.2637 63.8345C92.9995 63.8368 92.7354 63.8392 92.4633 63.8416C92.1932 63.8465 91.9232 63.8514 91.645 63.8564C90.7882 63.7278 90.5218 63.4884 89.9987 62.8125C89.8741 62.3438 89.8741 62.3438 89.8815 61.875C89.8778 61.643 89.8778 61.643 89.8741 61.4063C90.3055 59.7822 91.6511 59.8621 93.0455 59.8755Z" fill="white"/>
<path d="M20.6386 59.8787C20.9155 59.8743 20.9155 59.8743 21.198 59.8698C21.3952 59.8716 21.5925 59.8735 21.7958 59.8755C22.0003 59.8746 22.2049 59.8737 22.4156 59.8728C22.8474 59.8721 23.2793 59.8739 23.7111 59.8778C24.3717 59.8828 25.0317 59.8778 25.6923 59.8718C26.1122 59.8725 26.5321 59.8737 26.952 59.8755C27.1493 59.8736 27.3466 59.8717 27.5499 59.8698C28.9178 59.8916 28.9178 59.8916 29.6542 60.4472C30.0274 60.978 30.1261 61.2331 30.1161 61.875C30.1185 62.0297 30.1209 62.1844 30.1234 62.3438C29.9394 63.0366 29.618 63.3047 29.0614 63.75C28.3526 63.8564 28.3526 63.8564 27.5343 63.8416C27.2702 63.8392 27.0061 63.8369 26.7339 63.8345C26.3998 63.8259 26.0658 63.8174 25.7216 63.8086C24.6581 63.7893 23.5946 63.7699 22.4989 63.75C22.4989 66.225 22.4989 68.7 22.4989 71.25C24.6165 71.213 24.6165 71.213 26.7339 71.1656C27.1301 71.162 27.1301 71.162 27.5343 71.1585C27.9394 71.1511 27.9394 71.1511 28.3526 71.1436C29.2094 71.2722 29.4758 71.5117 29.9989 72.1875C30.1234 72.6563 30.1234 72.6563 30.1161 73.125C30.1185 73.2797 30.1209 73.4344 30.1234 73.5938C29.9333 74.3095 29.6544 74.5526 29.0614 75C28.3589 75.1409 27.6666 75.1314 26.952 75.1245C26.7475 75.1254 26.543 75.1263 26.3322 75.1272C25.9004 75.1279 25.4686 75.1262 25.0368 75.1222C24.3762 75.1172 23.7161 75.1222 23.0556 75.1282C22.6356 75.1276 22.2157 75.1264 21.7958 75.1245C21.4999 75.1274 21.4999 75.1274 21.198 75.1303C20.9211 75.1258 20.9211 75.1258 20.6386 75.1213C20.4769 75.1206 20.3153 75.1198 20.1488 75.1191C19.4588 74.9414 19.1788 74.6217 18.7489 74.0625C18.6299 73.4578 18.6299 73.4578 18.6276 72.7661C18.6247 72.5065 18.6217 72.2468 18.6187 71.9792C18.6206 71.6999 18.6224 71.4206 18.6244 71.1328C18.6235 70.8451 18.6226 70.5573 18.6217 70.2608C18.621 69.6524 18.6228 69.044 18.6267 68.4357C18.6317 67.5035 18.6267 66.5718 18.6207 65.6397C18.6214 65.0488 18.6226 64.458 18.6244 63.8672C18.6225 63.5879 18.6206 63.3086 18.6187 63.0208C18.6216 62.7611 18.6246 62.5014 18.6276 62.2339C18.6284 62.0056 18.6291 61.7774 18.6299 61.5422C18.8481 60.4336 19.5227 59.8839 20.6386 59.8787Z" fill="white"/>
<path d="M50.1403 54.2537C50.3766 54.2521 50.613 54.2504 50.8565 54.2487C51.6384 54.2446 52.42 54.2473 53.2018 54.2505C53.7447 54.2499 54.2876 54.249 54.8305 54.2478C55.9685 54.2464 57.1065 54.2484 58.2445 54.2528C59.7042 54.2581 61.1637 54.2551 62.6234 54.2494C63.7445 54.2461 64.8656 54.2471 65.9868 54.2496C66.525 54.2502 67.0633 54.2494 67.6015 54.2472C68.3535 54.2449 69.1051 54.2485 69.8571 54.2537C70.1917 54.2509 70.1917 54.2509 70.5331 54.248C72.0401 54.2674 72.0401 54.2674 72.7927 54.822C73.1502 55.3518 73.2507 55.6167 73.2408 56.25C73.2445 56.482 73.2445 56.482 73.2482 56.7188C73.0554 57.4443 72.7949 57.6764 72.1862 58.125C71.4113 58.2681 70.6432 58.253 69.8571 58.2463C69.6207 58.248 69.3843 58.2496 69.1408 58.2513C68.359 58.2554 67.5773 58.2527 66.7955 58.2495C66.2526 58.2502 65.7097 58.2511 65.1668 58.2522C64.0288 58.2536 62.8908 58.2516 61.7528 58.2472C60.2931 58.2419 58.8336 58.245 57.3739 58.2506C56.2528 58.254 55.1317 58.2529 54.0105 58.2505C53.4723 58.2498 52.934 58.2506 52.3958 58.2528C51.6438 58.2552 50.8922 58.2515 50.1403 58.2463C49.9172 58.2482 49.6941 58.2501 49.4643 58.2521C47.9572 58.2326 47.9572 58.2326 47.2046 57.678C46.8471 57.1482 46.7466 56.8833 46.7565 56.25C46.7528 56.018 46.7528 56.018 46.7491 55.7813C47.2027 54.0738 48.6898 54.2414 50.1403 54.2537Z" fill="white"/>
<path d="M60.7018 69.2537C60.865 69.252 61.0282 69.2504 61.1964 69.2487C61.7347 69.2446 62.2728 69.2473 62.8112 69.2505C63.1859 69.2498 63.5607 69.2489 63.9354 69.2478C64.7204 69.2464 65.5052 69.2484 66.2902 69.2528C67.2959 69.2581 68.3013 69.255 69.3071 69.2494C70.0808 69.246 70.8544 69.2471 71.6281 69.2495C71.9989 69.2502 72.3697 69.2494 72.7405 69.2472C73.259 69.2448 73.7771 69.2485 74.2955 69.2537C74.7378 69.2548 74.7378 69.2548 75.1891 69.2559C76.0663 69.3957 76.342 69.6153 76.8737 70.3125C76.9982 70.7812 76.9982 70.7812 76.9908 71.25C76.9945 71.482 76.9945 71.482 76.9982 71.7187C76.8131 72.4153 76.4985 72.6789 75.9362 73.125C75.1891 73.244 75.1891 73.244 74.2955 73.2463C74.1323 73.2479 73.9691 73.2496 73.8009 73.2513C73.2626 73.2554 72.7245 73.2527 72.1862 73.2495C71.8114 73.2501 71.4366 73.251 71.0619 73.2522C70.2769 73.2536 69.4921 73.2516 68.7072 73.2472C67.7014 73.2419 66.696 73.2449 65.6903 73.2506C64.9165 73.2539 64.1429 73.2529 63.3692 73.2504C62.9984 73.2498 62.6276 73.2506 62.2568 73.2528C61.7383 73.2551 61.2202 73.2515 60.7018 73.2463C60.4069 73.2455 60.112 73.2448 59.8082 73.244C58.931 73.1042 58.6553 72.8847 58.1237 72.1875C57.9991 71.7187 57.9991 71.7187 58.0065 71.25C58.0028 71.018 58.0028 71.018 57.9991 70.7812C58.3721 69.3772 59.4139 69.2569 60.7018 69.2537Z" fill="white"/>
<path d="M45.7018 61.7537C45.865 61.752 46.0282 61.7504 46.1964 61.7487C46.7347 61.7446 47.2728 61.7473 47.8112 61.7505C48.1859 61.7498 48.5607 61.7489 48.9354 61.7478C49.7204 61.7464 50.5052 61.7484 51.2902 61.7528C52.2959 61.7581 53.3013 61.755 54.3071 61.7494C55.0808 61.746 55.8544 61.7471 56.6281 61.7495C56.9989 61.7502 57.3697 61.7494 57.7405 61.7472C58.259 61.7448 58.7771 61.7485 59.2955 61.7537C59.7378 61.7548 59.7378 61.7548 60.1891 61.7559C61.0663 61.8957 61.342 62.1153 61.8737 62.8125C61.9982 63.2812 61.9982 63.2812 61.9908 63.75C61.9945 63.982 61.9945 63.982 61.9982 64.2187C61.8131 64.9153 61.4985 65.1789 60.9362 65.625C60.1891 65.744 60.1891 65.744 59.2955 65.7463C59.1323 65.7479 58.9691 65.7496 58.8009 65.7513C58.2626 65.7554 57.7245 65.7527 57.1862 65.7495C56.8114 65.7501 56.4366 65.751 56.0619 65.7522C55.2769 65.7536 54.4921 65.7516 53.7072 65.7472C52.7014 65.7419 51.696 65.7449 50.6903 65.7506C49.9165 65.7539 49.1429 65.7529 48.3692 65.7504C47.9984 65.7498 47.6276 65.7506 47.2568 65.7528C46.7383 65.7551 46.2202 65.7515 45.7018 65.7463C45.4069 65.7455 45.112 65.7448 44.8082 65.744C43.931 65.6042 43.6553 65.3847 43.1237 64.6875C42.9991 64.2187 42.9991 64.2187 43.0065 63.75C43.0028 63.518 43.0028 63.518 42.9991 63.2812C43.3721 61.8772 44.4139 61.7569 45.7018 61.7537Z" fill="white"/>
<path d="M49.1075 76.7537C49.3672 76.7508 49.6269 76.7478 49.8944 76.7448C50.1738 76.7466 50.4531 76.7485 50.7408 76.7505C51.0286 76.7496 51.3164 76.7487 51.6129 76.7478C52.2213 76.7471 52.8296 76.7489 53.438 76.7528C54.3701 76.7578 55.3019 76.7528 56.234 76.7468C56.8248 76.7475 57.4157 76.7487 58.0065 76.7505C58.2858 76.7486 58.5651 76.7467 58.8529 76.7448C59.2424 76.7492 59.2424 76.7492 59.6398 76.7537C59.868 76.7545 60.0963 76.7552 60.3315 76.756C61.1053 76.9083 61.3852 77.2067 61.8737 77.8125C61.9982 78.2813 61.9982 78.2813 61.9908 78.75C61.9945 78.982 61.9945 78.982 61.9982 79.2188C61.8164 79.903 61.4779 80.1782 60.9362 80.625C60.3315 80.7441 60.3315 80.7441 59.6398 80.7463C59.3801 80.7493 59.1204 80.7522 58.8529 80.7553C58.5736 80.7534 58.2942 80.7515 58.0065 80.7495C57.5748 80.7509 57.5748 80.7509 57.1344 80.7522C56.5261 80.7529 55.9177 80.7512 55.3093 80.7472C54.3772 80.7422 53.4454 80.7472 52.5133 80.7532C51.9225 80.7526 51.3317 80.7514 50.7408 80.7495C50.4615 80.7514 50.1822 80.7533 49.8944 80.7553C49.5049 80.7508 49.5049 80.7508 49.1075 80.7463C48.8793 80.7456 48.651 80.7448 48.4159 80.7441C47.6421 80.5917 47.3621 80.2933 46.8737 79.6875C46.7491 79.2188 46.7491 79.2188 46.7565 78.75C46.7528 78.518 46.7528 78.518 46.7491 78.2813C47.074 77.0584 47.9458 76.7575 49.1075 76.7537Z" fill="white"/>
<path d="M46.1705 69.2505C46.3751 69.2496 46.5796 69.2487 46.7903 69.2478C47.2222 69.2471 47.654 69.2489 48.0858 69.2528C48.7464 69.2578 49.4064 69.2528 50.067 69.2468C50.4869 69.2475 50.9069 69.2487 51.3268 69.2505C51.5241 69.2486 51.7214 69.2467 51.9246 69.2448C53.2925 69.2666 53.2925 69.2666 54.029 69.8222C54.4021 70.353 54.5009 70.6081 54.4908 71.25C54.4933 71.4047 54.4957 71.5594 54.4982 71.7188C54.3081 72.4345 54.0292 72.6776 53.4362 73.125C52.7337 73.2659 52.0414 73.2564 51.3268 73.2495C51.1222 73.2504 50.9177 73.2513 50.707 73.2522C50.2751 73.2529 49.8433 73.2512 49.4115 73.2472C48.7509 73.2422 48.0909 73.2472 47.4303 73.2532C47.0104 73.2526 46.5905 73.2514 46.1705 73.2495C45.9732 73.2514 45.776 73.2533 45.5727 73.2553C44.2048 73.2334 44.2048 73.2334 43.4684 72.6778C43.0952 72.147 42.9964 71.892 43.0065 71.25C43.0028 71.018 43.0028 71.018 42.9991 70.7813C43.4305 69.1572 44.7761 69.2371 46.1705 69.2505Z" fill="white"/>
<path d="M68.6705 61.7505C68.8751 61.7496 69.0796 61.7487 69.2903 61.7478C69.7222 61.7471 70.154 61.7489 70.5858 61.7528C71.2464 61.7578 71.9064 61.7528 72.567 61.7468C72.9869 61.7475 73.4069 61.7487 73.8268 61.7505C74.0241 61.7486 74.2214 61.7467 74.4246 61.7448C75.7925 61.7666 75.7925 61.7666 76.529 62.3222C76.9021 62.853 77.0009 63.1081 76.9908 63.75C76.9933 63.9047 76.9957 64.0594 76.9982 64.2188C76.8081 64.9345 76.5292 65.1776 75.9362 65.625C75.2337 65.7659 74.5414 65.7564 73.8268 65.7495C73.6222 65.7504 73.4177 65.7513 73.207 65.7522C72.7751 65.7529 72.3433 65.7512 71.9115 65.7472C71.2509 65.7422 70.5909 65.7472 69.9303 65.7532C69.5104 65.7526 69.0905 65.7514 68.6705 65.7495C68.4732 65.7514 68.276 65.7533 68.0727 65.7553C66.7048 65.7334 66.7048 65.7334 65.9684 65.1778C65.5952 64.647 65.4964 64.392 65.5065 63.75C65.5028 63.518 65.5028 63.518 65.4991 63.2813C65.9305 61.6572 67.2761 61.7371 68.6705 61.7505Z" fill="white"/>
<path d="M67.8502 76.7505C68.0968 76.7493 68.3433 76.7481 68.5973 76.7468C68.8535 76.7505 69.1097 76.7541 69.3737 76.7578C69.758 76.7524 69.758 76.7524 70.15 76.7468C70.3966 76.748 70.6431 76.7492 70.8971 76.7505C71.2343 76.7521 71.2343 76.7521 71.5782 76.7537C72.3533 76.9083 72.6336 77.2057 73.1237 77.8125C73.2482 78.2812 73.2482 78.2812 73.2408 78.75C73.2433 78.9047 73.2457 79.0594 73.2482 79.2188C73.0665 79.9026 72.7273 80.1781 72.1862 80.625C71.5782 80.7463 71.5782 80.7463 70.8971 80.7495C70.6506 80.7507 70.404 80.7519 70.15 80.7532C69.8938 80.7495 69.6376 80.7459 69.3737 80.7422C68.9894 80.7476 68.9894 80.7476 68.5973 80.7532C68.3508 80.752 68.1042 80.7508 67.8502 80.7495C67.6254 80.7485 67.4007 80.7474 67.1691 80.7463C66.3941 80.5917 66.1137 80.2943 65.6237 79.6875C65.4991 79.2188 65.4991 79.2188 65.5065 78.75C65.5028 78.518 65.5028 78.518 65.4991 78.2812C65.8223 77.0646 66.6922 76.7559 67.8502 76.7505Z" fill="white"/>
<path d="M32.8114 22.5C33.3974 22.8516 33.3974 22.8516 33.7489 23.4375C33.9343 24.38 33.8946 25.0698 33.3974 25.8985C32.5687 26.3957 31.8789 26.4354 30.9364 26.25C30.3505 25.8985 30.3505 25.8985 29.9989 25.3125C29.8135 24.3701 29.8533 23.6803 30.3505 22.8516C31.1792 22.3544 31.869 22.3146 32.8114 22.5Z" fill="white"/>
<path d="M25.3114 22.5C25.8974 22.8516 25.8974 22.8516 26.2489 23.4375C26.4343 24.38 26.3946 25.0698 25.8974 25.8985C25.0687 26.3957 24.3789 26.4354 23.4364 26.25C22.8505 25.8985 22.8505 25.8985 22.4989 25.3125C22.3135 24.3701 22.3533 23.6803 22.8505 22.8516C23.6792 22.3544 24.369 22.3146 25.3114 22.5Z" fill="white"/>
<path d="M17.8114 22.5C18.3974 22.8516 18.3974 22.8516 18.7489 23.4375C18.9343 24.38 18.8946 25.0698 18.3974 25.8985C17.5687 26.3957 16.8789 26.4354 15.9364 26.25C15.3505 25.8985 15.3505 25.8985 14.9989 25.3125C14.8135 24.3701 14.8533 23.6803 15.3505 22.8516C16.1792 22.3544 16.869 22.3146 17.8114 22.5Z" fill="white"/>
</svg>
