<svg width="121" height="120" viewBox="0 0 121 120" fill="none" xmlns="http://www.w3.org/2000/svg">
<g clip-path="url(#clip0_145_77)">
<path d="M28.6011 35.8265C28.8472 35.8251 29.0933 35.8238 29.3468 35.8224C29.7499 35.822 29.7499 35.822 30.1612 35.8216C30.4452 35.8204 30.7292 35.8193 31.0218 35.8181C31.8 35.8152 32.5781 35.8135 33.3563 35.8125C33.8427 35.8118 34.3291 35.8108 34.8154 35.8098C36.3378 35.8066 37.8601 35.8043 39.3825 35.8034C41.1388 35.8023 42.8951 35.7982 44.6514 35.7914C46.0099 35.7864 47.3684 35.784 48.7269 35.7837C49.5379 35.7834 50.3489 35.7821 51.1599 35.7779C52.0644 35.7733 52.9688 35.7743 53.8733 35.7758C54.1416 35.7737 54.4098 35.7715 54.6862 35.7693C54.933 35.7706 55.1798 35.7719 55.434 35.7732C55.6478 35.7729 55.8615 35.7726 56.0817 35.7722C56.8127 35.8786 57.2561 36.1339 57.8527 36.5625C58.1718 37.2006 58.1222 37.7106 58.1286 38.425C58.1331 38.8639 58.1331 38.8639 58.1377 39.3116C58.1396 39.6324 58.1414 39.9532 58.1429 40.274C58.1439 40.4353 58.1449 40.5967 58.1458 40.7628C58.1507 41.6165 58.1541 42.47 58.1563 43.3237C58.1589 44.2054 58.1669 45.0869 58.1762 45.9686C58.1824 46.6466 58.1843 47.3245 58.1852 48.0026C58.1863 48.3276 58.189 48.6526 58.1934 48.9775C58.1991 49.4325 58.1983 49.8875 58.1972 50.3424C58.1986 50.6013 58.2 50.8601 58.2014 51.1267C58.0574 51.9712 57.8087 52.2011 57.1496 52.7344C56.5869 52.8514 56.5869 52.8514 55.9493 52.8513C55.7069 52.8535 55.4644 52.8558 55.2146 52.8581C54.9499 52.8558 54.6852 52.8535 54.4125 52.8512C54.1327 52.8525 53.8528 52.8537 53.5645 52.8551C52.7974 52.8578 52.0303 52.8565 51.2632 52.8536C50.4585 52.8517 49.6538 52.8557 48.8491 52.8592C46.9754 52.8664 45.1016 52.8667 43.2279 52.8663C40.848 52.866 38.4681 52.8684 36.0883 52.8777C35.2883 52.8806 34.4884 52.8819 33.6885 52.8797C32.7944 52.8775 31.9003 52.8795 31.0061 52.8823C30.7443 52.8805 30.4824 52.8787 30.2126 52.8768C27.7834 52.8924 25.6423 53.3194 23.8683 55.0781C22.2722 57.0574 21.7404 58.8705 21.9933 61.4062C22.4518 63.3169 23.4805 64.9398 25.1574 65.993C26.5492 66.7179 27.7508 67.0598 29.325 67.062C29.5698 67.063 29.8146 67.0639 30.0668 67.0649C30.3329 67.0647 30.599 67.0646 30.8731 67.0645C31.2963 67.0657 31.2963 67.0657 31.728 67.067C32.3402 67.0687 32.9524 67.07 33.5646 67.0708C34.5327 67.0722 35.5009 67.076 36.469 67.0805C36.8008 67.082 37.1326 67.0834 37.4644 67.0849C37.7136 67.086 37.7136 67.086 37.9678 67.0872C40.2206 67.097 42.4735 67.1048 44.7264 67.1076C46.2477 67.1096 47.769 67.1149 49.2903 67.1239C50.0949 67.1285 50.8994 67.1314 51.704 67.1303C52.6007 67.129 53.4973 67.1349 54.3939 67.1414C54.6605 67.1399 54.927 67.1383 55.2016 67.1367C55.4458 67.1396 55.6899 67.1426 55.9414 67.1456C56.1534 67.1461 56.3653 67.1467 56.5836 67.1473C57.3332 67.304 57.6159 67.6115 58.0871 68.2031C58.2046 68.8701 58.2046 68.8701 58.2047 69.6501C58.2069 69.9426 58.2091 70.2352 58.2113 70.5365C58.2089 70.8549 58.2062 71.1733 58.2034 71.4917C58.2034 71.8192 58.2038 72.1466 58.2044 72.4741C58.2047 73.1597 58.2018 73.8453 58.1964 74.5309C58.1898 75.4089 58.1904 76.2867 58.1934 77.1647C58.1951 77.8407 58.1932 78.5167 58.1903 79.1927C58.1893 79.5164 58.1892 79.8401 58.1901 80.1637C58.1908 80.6164 58.1864 81.0691 58.1818 81.5218C58.1805 81.7792 58.1793 82.0366 58.178 82.3018C58.0757 83.0521 57.9135 83.3722 57.384 83.9062C56.6881 84.1382 56.2337 84.1706 55.5077 84.172C55.2653 84.173 55.0229 84.174 54.7732 84.175C54.3744 84.1748 54.3744 84.1748 53.9675 84.1747C53.6872 84.1755 53.407 84.1762 53.1183 84.1771C52.3487 84.1789 51.5791 84.1797 50.8094 84.1798C50.3273 84.18 49.8451 84.1805 49.3629 84.1811C47.6766 84.1833 45.9903 84.1842 44.3039 84.1841C42.7395 84.1839 41.1752 84.1864 39.6108 84.1901C38.2632 84.1932 36.9156 84.1944 35.568 84.1943C34.7653 84.1942 33.9626 84.1948 33.1599 84.1973C24.9009 84.2186 18.099 82.9412 11.9152 77.1094C11.756 76.968 11.5968 76.8266 11.4327 76.6809C7.61925 73.1513 5.1173 67.4017 4.85479 62.2385C4.64988 55.1921 6.34041 48.7622 11.2377 43.504C13.178 41.4766 15.2359 39.9468 17.6867 38.584C17.8296 38.5028 17.9724 38.4216 18.1196 38.3379C19.1829 37.7683 20.0818 37.5595 21.2902 37.5C21.9933 37.8369 21.9933 37.8369 22.4621 38.4375C22.6134 39.0924 22.6458 39.664 22.4621 40.3125C21.7422 41.2434 20.7811 41.6493 19.7375 42.1289C18.1187 42.9085 16.761 43.7788 15.4308 45C15.2393 45.1674 15.0478 45.3348 14.8504 45.5072C11.168 48.916 9.0348 53.8071 8.80152 58.7979C8.7073 62.3103 9.19555 65.4795 10.7433 68.6719C10.9029 69.0009 10.9029 69.0009 11.0656 69.3365C11.8773 70.9114 12.8558 72.2651 14.0246 73.5937C14.1808 73.7723 14.337 73.9509 14.4979 74.1348C18.0109 77.8955 23.1922 79.9839 28.2857 80.1933C28.6011 80.1981 28.9165 80.2017 29.232 80.2044C29.406 80.2067 29.58 80.209 29.7593 80.2114C30.3274 80.2187 30.8955 80.2246 31.4636 80.2304C31.8602 80.2352 32.2569 80.2402 32.6536 80.2452C33.6924 80.258 34.7311 80.2696 35.7699 80.281C37.0191 80.2949 38.2683 80.3104 39.5175 80.3256C41.4105 80.3485 43.3035 80.3694 45.1965 80.3906C45.1965 77.2969 45.1965 74.2031 45.1965 71.0156C43.9798 71.0238 42.7632 71.0319 41.5096 71.0403C40.7331 71.0439 39.9566 71.0473 39.1801 71.05C37.9509 71.0541 36.7218 71.0591 35.4926 71.0687C34.5003 71.0764 33.508 71.0805 32.5156 71.0823C32.1393 71.0836 31.7631 71.0861 31.3869 71.09C27.2411 71.1305 23.9921 70.5119 20.8901 67.5879C18.7236 65.3439 17.8539 62.6217 17.8987 59.521C18.046 56.2601 19.3876 53.8348 21.7004 51.6064C24.7055 49.0294 28.1043 48.9132 31.8756 48.9386C32.2611 48.9395 32.6466 48.9401 33.0321 48.9406C34.0392 48.9424 35.0464 48.947 36.0536 48.9522C37.266 48.9579 38.4784 48.96 39.6909 48.9627C41.5261 48.9672 43.3612 48.9762 45.1965 48.9844C45.1965 45.8906 45.1965 42.7969 45.1965 39.6094C43.1825 39.6298 43.1825 39.6298 41.1279 39.6506C40.2776 39.6566 39.4274 39.6622 38.5772 39.6666C37.2274 39.6736 35.8778 39.6819 34.5281 39.6978C33.44 39.7105 32.352 39.7175 31.2638 39.7206C30.8485 39.7227 30.4333 39.727 30.018 39.7333C29.4366 39.7418 28.8556 39.743 28.2741 39.7424C28.1021 39.7466 27.9302 39.7508 27.753 39.7552C26.8774 39.7463 26.5142 39.6722 25.8626 39.0682C25.3805 38.2084 25.4835 37.7324 25.7433 36.7969C26.4417 35.7992 27.4665 35.8302 28.6011 35.8265ZM48.7121 39.6094C48.7121 42.7031 48.7121 45.7969 48.7121 48.9844C50.5683 48.9844 52.4246 48.9844 54.3371 48.9844C54.3371 45.8906 54.3371 42.7969 54.3371 39.6094C52.4808 39.6094 50.6246 39.6094 48.7121 39.6094ZM48.7121 71.0156C48.7121 74.1094 48.7121 77.2031 48.7121 80.3906C50.5683 80.3906 52.4246 80.3906 54.3371 80.3906C54.3371 77.2969 54.3371 74.2031 54.3371 71.0156C52.4808 71.0156 50.6246 71.0156 48.7121 71.0156Z" fill="white"/>
<path d="M109.268 43.5205C110.708 44.7086 111.835 46.4498 112.227 48.2812C112.277 49.6672 112.216 51.055 112.142 52.4396C111.97 54.3276 111.97 54.3276 112.566 56.0432C112.983 56.3891 113.409 56.6676 113.868 56.9531C116.572 60.258 116.598 63.8434 116.568 67.912C116.563 68.7473 116.568 69.5821 116.574 70.4173C116.574 70.9527 116.573 71.4882 116.571 72.0236C116.573 72.271 116.575 72.5183 116.576 72.7732C116.558 74.2588 116.37 75.4042 115.509 76.6406C114.273 77.8446 113.09 78.1172 111.405 78.1149C111.232 78.1165 111.059 78.1181 110.88 78.1197C110.31 78.1242 109.739 78.1251 109.169 78.1256C108.77 78.1271 108.372 78.1287 107.973 78.1303C107.139 78.1331 106.304 78.134 105.469 78.1337C104.403 78.1337 103.337 78.1401 102.27 78.1481C101.447 78.1534 100.624 78.1543 99.8014 78.1541C99.4085 78.1546 99.0156 78.1567 98.6227 78.1603C94.3666 78.196 94.3666 78.196 92.8838 76.7618C92.0224 75.7929 91.8086 75.0409 91.7954 73.7778C91.7923 73.528 91.7893 73.2783 91.7862 73.0211C91.7836 72.6157 91.7836 72.6157 91.781 72.2021C91.7791 71.9231 91.7772 71.6441 91.7753 71.3566C91.772 70.7648 91.7695 70.1729 91.7677 69.5811C91.7636 68.6819 91.7534 67.783 91.743 66.8838C91.7406 66.308 91.7386 65.7321 91.737 65.1562C91.7329 64.8898 91.7288 64.6233 91.7246 64.3488C91.7329 61.256 92.9031 58.4533 95.0595 56.2207C95.7488 55.5469 95.7488 55.5469 96.29 55.5469C96.2144 55.2819 96.1389 55.0169 96.0611 54.7439C95.3208 51.7639 95.5557 48.2319 97.1121 45.5667C99.9495 41.5877 105.249 40.7722 109.268 43.5205ZM100.509 47.3437C99.3209 49.2847 99.2556 51.6103 99.6902 53.8037C100.163 55.2397 101.067 56.0775 102.354 56.792C103.416 57.2789 104.296 57.4068 105.432 57.0328C106.655 56.4966 107.501 55.7162 108.243 54.6094C108.587 53.5769 108.53 52.5708 108.536 51.4892C108.541 51.2694 108.546 51.0497 108.551 50.8232C108.559 49.3417 108.418 48.2923 107.388 47.1496C105.177 45.3291 102.641 45.0964 100.509 47.3437ZM98.165 58.5937C97.9069 58.8533 97.6541 59.1181 97.4032 59.3847C97.2618 59.5316 97.1205 59.6784 96.9748 59.8297C95.723 61.6055 95.4496 63.3637 95.487 65.4941C95.4878 65.7399 95.4886 65.9857 95.4894 66.239C95.4918 66.7537 95.4965 67.2683 95.5032 67.7829C95.5137 68.5744 95.5177 69.3658 95.5205 70.1573C95.5236 70.6586 95.5271 71.1598 95.531 71.6611C95.5327 71.8986 95.5345 72.1361 95.5362 72.3808C95.5392 72.5985 95.5423 72.8161 95.5454 73.0404C95.5477 73.2326 95.55 73.4249 95.5523 73.623C95.5392 74.0656 95.5392 74.0656 95.8212 74.2969C96.3376 74.3202 96.8547 74.3269 97.3717 74.3272C97.6146 74.3278 97.6146 74.3278 97.8625 74.3284C98.4003 74.3295 98.9381 74.3288 99.476 74.328C99.8482 74.3281 100.22 74.3284 100.593 74.3287C101.374 74.329 102.155 74.3285 102.936 74.3274C103.939 74.3261 104.942 74.3268 105.946 74.3282C106.715 74.3291 107.483 74.3288 108.252 74.3282C108.622 74.3281 108.992 74.3283 109.362 74.3288C109.879 74.3294 110.395 74.3285 110.911 74.3272C111.206 74.327 111.5 74.3268 111.803 74.3266C112.439 74.372 112.439 74.372 112.696 74.0625C112.723 73.7297 112.734 73.3957 112.738 73.0619C112.741 72.8489 112.744 72.636 112.747 72.4165C112.749 72.1841 112.75 71.9518 112.752 71.7123C112.755 71.3544 112.755 71.3544 112.758 70.9893C112.761 70.4819 112.764 69.9745 112.765 69.4672C112.769 68.697 112.78 67.9272 112.79 67.1571C112.792 66.6638 112.794 66.1705 112.796 65.6772C112.802 65.335 112.802 65.335 112.808 64.9859C112.802 63.0027 112.279 61.2148 111.041 59.6338C110.87 59.4085 110.87 59.4085 110.696 59.1788C110.344 58.7657 110.344 58.7657 109.649 58.5937C109.258 58.9048 108.867 59.2177 108.477 59.5312C107.442 60.0736 106.369 60.5859 105.196 60.7031C105.054 60.7179 104.911 60.7327 104.764 60.748C102.351 60.8835 100.106 59.9636 98.165 58.5937Z" fill="white"/>
<path d="M108.478 0.937464C110.404 2.33242 111.481 3.85356 112.228 6.09371C112.223 6.62192 112.204 7.15003 112.177 7.67758C112.166 7.99677 112.156 8.31599 112.146 8.63522C112.13 9.13561 112.111 9.63483 112.082 10.1346C111.936 12.1687 111.936 12.1687 112.673 14.0092C113.207 14.5281 113.764 14.9955 114.338 15.4687C115.428 16.8417 116.23 18.6046 116.29 20.3668C116.213 20.8593 116.213 20.8593 115.729 21.5918C114.918 22.1094 114.576 22.2274 113.634 22.0312C112.539 21.249 112.228 20.3193 111.786 19.1052C111.385 18.1984 110.801 17.588 110.119 16.875C109.128 17.2265 108.253 17.7248 107.349 18.2528C105.629 19.1361 103.033 19.0281 101.213 18.4716C100.239 18.0872 99.4542 17.5203 98.6344 16.875C97.8666 17.2007 97.4592 17.5544 96.9645 18.2226C96.7896 18.4528 96.7896 18.4528 96.6111 18.6877C95.7263 20.1539 95.7592 21.5631 95.7761 23.2232C95.7766 23.443 95.7771 23.6627 95.7776 23.8891C95.78 24.7054 95.7866 25.5216 95.7926 26.3379C95.8023 28.1651 95.812 29.9924 95.8219 31.875C101.313 31.875 106.805 31.875 112.463 31.875C112.54 30.0961 112.617 28.3172 112.697 26.4843C113.4 25.3125 113.4 25.3125 113.869 25.0781C114.734 24.9627 115.152 25.0021 115.9 25.4654C116.893 26.5203 116.594 28.1733 116.564 29.5166C116.565 29.9605 116.565 29.9605 116.566 30.4133C116.548 32.0673 116.52 33.3775 115.341 34.6554C115.203 34.7675 115.065 34.8796 114.923 34.9951C114.786 35.1102 114.648 35.2253 114.506 35.3439C113.612 35.9679 112.673 35.8984 111.629 35.9045C111.359 35.9074 111.359 35.9074 111.083 35.9104C110.488 35.9162 109.892 35.9201 109.296 35.9234C109.092 35.9247 108.888 35.9259 108.678 35.9272C107.598 35.9335 106.519 35.938 105.439 35.9414C104.547 35.9445 103.656 35.951 102.764 35.9606C101.685 35.9722 100.607 35.978 99.529 35.9797C99.119 35.9812 98.7091 35.9848 98.2992 35.9904C94.3307 36.0418 94.3307 36.0418 93.1045 35.0418C91.69 33.5207 91.6986 32.1744 91.713 30.1657C91.7121 29.8885 91.7112 29.6114 91.7103 29.3259C91.7097 28.7406 91.7114 28.1554 91.7153 27.5701C91.7203 26.6817 91.7154 25.7938 91.7094 24.9055C91.71 24.3347 91.7112 23.7638 91.713 23.193C91.7111 22.9307 91.7092 22.6684 91.7073 22.3982C91.7395 19.647 92.521 17.4196 94.1813 15.2343C94.3456 15.012 94.51 14.7896 94.6793 14.5605C95.1039 14.0793 95.5265 13.7188 96.0563 13.3593C96.0188 13.0953 95.9814 12.8312 95.9428 12.5592C95.5154 9.11488 95.5045 5.67036 97.6969 2.81246C100.212 -0.194233 105.052 -1.24654 108.478 0.937464ZM101.185 4.63528C99.8563 6.07161 99.4895 7.41456 99.4987 9.36032C99.4949 9.51908 99.4911 9.67785 99.4872 9.84143C99.4855 11.6834 100.162 12.9821 101.447 14.2968C102.633 15.1243 103.798 15.1862 105.197 15C106.64 14.6174 107.396 13.7932 108.185 12.5638C108.691 11.5094 108.673 10.5113 108.639 9.36032C108.643 9.13961 108.646 8.91891 108.65 8.69152C108.628 6.83623 108.041 5.69688 106.779 4.3652C104.943 3.28055 102.876 3.21567 101.185 4.63528Z" fill="white"/>
<path d="M108.745 85.371C110.467 86.5257 111.68 88.2409 112.228 90.2343C112.248 91.0274 112.248 91.0274 112.2 91.8868C112.188 92.2037 112.177 92.5207 112.166 92.8376C112.148 93.3302 112.126 93.8218 112.095 94.3138C111.941 96.3247 111.941 96.3247 112.673 98.141C113.223 98.6848 113.223 98.6848 113.813 99.1643C114.557 99.7957 114.85 100.398 115.26 101.279C115.388 101.546 115.516 101.812 115.648 102.087C116.394 103.902 116.519 105.404 116.517 107.359C116.518 107.629 116.519 107.899 116.52 108.178C116.522 108.747 116.522 109.316 116.521 109.885C116.52 110.755 116.526 111.624 116.532 112.494C116.532 113.048 116.532 113.602 116.532 114.156C116.534 114.415 116.536 114.675 116.539 114.942C116.529 116.482 116.436 117.624 115.333 118.796C115.123 118.964 115.123 118.964 114.909 119.136C114.768 119.251 114.628 119.366 114.483 119.484C113.638 120.109 112.84 120.046 111.827 120.056C111.648 120.058 111.469 120.06 111.284 120.062C110.905 120.065 110.525 120.067 110.146 120.069C109.566 120.073 108.986 120.083 108.407 120.094C108.038 120.096 107.669 120.098 107.301 120.1C107.128 120.104 106.955 120.108 106.776 120.112C105.968 120.109 105.513 120.06 104.853 119.576C104.327 118.824 104.366 118.317 104.494 117.422C105.004 116.738 105.284 116.51 106.133 116.36C106.533 116.355 106.533 116.355 106.942 116.35C107.233 116.343 107.524 116.337 107.824 116.33C108.127 116.328 108.43 116.326 108.742 116.323C109.343 116.313 109.944 116.303 110.545 116.291C110.812 116.289 111.078 116.286 111.353 116.283C111.985 116.293 111.985 116.293 112.463 116.016C112.486 114.527 112.503 113.039 112.514 111.551C112.519 111.046 112.525 110.54 112.533 110.035C112.545 109.305 112.55 108.575 112.554 107.844C112.559 107.622 112.564 107.399 112.569 107.17C112.57 104.701 111.844 102.78 110.119 101.016C109.422 101.261 108.883 101.529 108.273 101.953C106.418 103.141 104.273 103.062 102.15 102.891C100.78 102.554 99.6714 101.983 98.6344 101.016C97.4094 101.497 96.8317 102.442 96.2703 103.584C95.707 104.88 95.6808 106.086 95.6791 107.484C95.6752 107.736 95.6713 107.988 95.6673 108.247C95.656 109.045 95.651 109.842 95.6461 110.64C95.6395 111.183 95.6325 111.727 95.6251 112.271C95.6078 113.597 95.5957 114.923 95.5875 116.25C95.7317 116.251 95.8759 116.252 96.0245 116.253C96.6798 116.261 97.3347 116.277 97.9899 116.294C98.3302 116.296 98.3302 116.296 98.6774 116.298C100.355 116.35 100.355 116.35 101.137 117.029C101.561 117.887 101.466 118.386 101.213 119.297C100.811 119.851 100.603 119.984 99.9215 120.098C99.1651 120.111 98.4095 120.119 97.653 120.117C97.3924 120.124 97.1318 120.13 96.8633 120.137C95.4329 120.141 94.3803 120.029 93.1712 119.24C91.7158 117.725 91.6986 116.323 91.713 114.306C91.7121 114.029 91.7112 113.752 91.7103 113.466C91.7097 112.881 91.7114 112.296 91.7153 111.711C91.7203 110.822 91.7154 109.934 91.7094 109.046C91.71 108.475 91.7112 107.904 91.713 107.334C91.7111 107.071 91.7092 106.809 91.7073 106.539C91.7386 103.865 92.4553 101.452 94.1813 99.3749C94.6832 98.9069 95.1857 98.4517 95.7185 98.019C96.1559 97.3469 96.0422 96.9083 95.9065 96.1408C95.4232 93.1945 95.6416 90.0559 97.2694 87.5216C100.106 83.7502 104.73 83.0226 108.745 85.371ZM100.553 89.5019C99.2406 91.3772 99.3279 93.7981 99.6644 95.9939C100.064 97.3046 101.06 98.1477 102.15 98.9062C103.381 99.3165 104.742 99.3883 105.976 98.9446C107.172 98.2658 107.931 97.3487 108.478 96.0937C108.639 95.228 108.643 94.3939 108.625 93.5156C108.629 93.2938 108.634 93.072 108.638 92.8436C108.628 91.3058 108.319 90.2386 107.306 89.0624C106.116 88.0034 105.057 87.7112 103.466 87.7926C102.227 87.9908 101.394 88.5763 100.553 89.5019Z" fill="white"/>
<path d="M68.6345 72.7881C68.9354 72.7834 69.2363 72.7788 69.5464 72.7739C69.8352 72.7741 70.124 72.7742 70.4216 72.7744C70.6857 72.774 70.9497 72.7735 71.2218 72.7731C71.9157 72.8907 71.9157 72.8907 72.4212 73.2028C73.1193 74.2133 72.9756 75.2531 72.9597 76.4518C72.9598 76.7194 72.96 76.987 72.9601 77.2627C72.9594 78.148 72.9521 79.033 72.9448 79.9183C72.9431 80.5317 72.9417 81.1452 72.9408 81.7586C72.9379 83.2088 72.9302 84.6588 72.9208 86.1089C72.9103 87.76 72.9051 89.4111 72.9004 91.0622C72.8906 94.4582 72.8741 97.8541 72.8532 101.25C73.0092 101.247 73.1652 101.245 73.3258 101.242C74.9493 101.216 76.5726 101.199 78.1962 101.186C78.8021 101.18 79.4079 101.172 80.0138 101.162C80.8847 101.147 81.7555 101.141 82.6265 101.136C83.0327 101.127 83.0327 101.127 83.4471 101.117C85.3202 101.117 85.3202 101.117 86.2756 101.79C86.6814 102.422 86.6814 102.422 86.6814 103.272C86.4598 104.019 86.3618 104.321 85.7439 104.766C85.1047 105.085 84.5969 105.032 83.8813 105.034C83.4425 105.036 83.4425 105.036 82.9948 105.039C82.674 105.039 82.3532 105.039 82.0323 105.039C81.7042 105.04 81.3761 105.041 81.0479 105.042C80.3595 105.043 79.6711 105.044 78.9827 105.043C78.1011 105.043 77.2194 105.047 76.3378 105.051C75.6598 105.053 74.9818 105.054 74.3038 105.054C73.9788 105.054 73.6538 105.055 73.3288 105.057C72.8739 105.059 72.4189 105.058 71.9639 105.057C71.7051 105.057 71.4463 105.058 71.1796 105.058C70.5003 104.999 70.1253 104.925 69.572 104.531C69.1343 103.821 69.0451 103.285 69.0469 102.458C69.0462 102.23 69.0456 102.002 69.0449 101.767C69.0466 101.518 69.0483 101.269 69.05 101.013C69.05 100.75 69.0499 100.487 69.0498 100.216C69.0502 99.3461 69.0538 98.4762 69.0575 97.6062C69.0583 97.0033 69.059 96.4003 69.0595 95.7974C69.0611 94.3722 69.0648 92.947 69.0695 91.5218C69.0747 89.8991 69.0773 88.2763 69.0797 86.6535C69.0846 83.3159 69.0928 79.9783 69.1032 76.6407C68.8603 76.6461 68.6174 76.6515 68.3672 76.6571C68.0461 76.6615 67.7251 76.6658 67.404 76.67C67.2442 76.6739 67.0844 76.6778 66.9197 76.6819C66.045 76.6904 65.3828 76.6753 64.6501 76.1719C64.1622 75.5447 64.1823 75.2069 64.2107 74.3995C64.4157 73.5938 64.4157 73.5938 64.8039 73.1982C65.9439 72.56 67.3607 72.7811 68.6345 72.7881Z" fill="white"/>
<path d="M71.9561 14.9394C72.2487 14.9379 72.5412 14.9365 72.8426 14.9349C73.161 14.9358 73.4793 14.9367 73.7977 14.9378C74.1252 14.9375 74.4527 14.937 74.7801 14.9365C75.4657 14.9358 76.1513 14.9368 76.8369 14.939C77.7149 14.9416 78.5928 14.9401 79.4708 14.9373C80.1467 14.9356 80.8227 14.9361 81.4987 14.9373C81.8224 14.9377 82.1461 14.9373 82.4698 14.9362C82.9224 14.935 83.3751 14.9371 83.8278 14.9394C84.0852 14.9398 84.3426 14.9402 84.6078 14.9405C85.273 14.9999 85.6549 15.1108 86.2123 15.4688C86.7002 16.0961 86.6801 16.4339 86.6517 17.2413C86.4467 18.0469 86.4467 18.0469 86.0444 18.4439C85.3922 18.817 84.9896 18.8351 84.2409 18.8299C83.8609 18.8298 83.8609 18.8298 83.4733 18.8297C83.2013 18.8261 82.9293 18.8225 82.649 18.8187C82.3695 18.8177 82.0899 18.8167 81.8018 18.8157C80.9086 18.8118 80.0156 18.803 79.1224 18.794C78.517 18.7905 77.9115 18.7873 77.306 18.7844C75.8216 18.7766 74.3373 18.7649 72.8529 18.7501C72.8538 18.8905 72.8546 19.031 72.8555 19.1757C72.8762 22.593 72.8917 26.0103 72.9015 29.4276C72.9063 31.0802 72.9129 32.7328 72.9236 34.3853C72.934 35.9795 72.9394 37.5735 72.9419 39.1677C72.9436 39.7766 72.947 40.3855 72.952 40.9944C72.9588 41.8457 72.9598 42.6969 72.9593 43.5483C72.9644 43.9278 72.9644 43.9278 72.9695 44.3151C72.9601 46.0168 72.9601 46.0168 72.4209 46.7973C71.7294 47.2243 71.2312 47.227 70.4213 47.2257C69.988 47.2259 69.988 47.2259 69.546 47.2262C69.2451 47.2215 68.9442 47.2168 68.6342 47.212C68.3332 47.2136 68.0323 47.2153 67.7223 47.217C65.5183 47.202 65.5183 47.202 64.8036 46.8019C64.197 46.1837 64.2106 45.6088 64.181 44.7657C64.3606 44.1616 64.5076 43.9258 65.0242 43.5709C65.8137 43.2744 66.5735 43.3097 67.4037 43.3301C67.5671 43.3323 67.7306 43.3344 67.899 43.3366C68.3003 43.3421 68.7016 43.3505 69.1029 43.3594C69.1025 43.2214 69.102 43.0834 69.1016 42.9411C69.0912 39.5825 69.0835 36.2239 69.0786 32.8653C69.0762 31.2411 69.0729 29.6169 69.0675 27.9927C69.0624 26.4259 69.0596 24.8591 69.0584 23.2924C69.0576 22.6939 69.0559 22.0955 69.0533 21.497C69.05 20.6603 69.0495 19.8237 69.0497 18.987C69.048 18.7383 69.0463 18.4896 69.0446 18.2334C69.0452 18.0054 69.0459 17.7773 69.0465 17.5423C69.0461 17.3444 69.0457 17.1465 69.0452 16.9426C69.109 16.3493 69.2597 15.9748 69.5717 15.4688C70.3358 14.9267 71.0381 14.9407 71.9561 14.9394Z" fill="white"/>
<path d="M67.2415 58.0872C67.4367 58.0861 67.6318 58.0849 67.8329 58.0837C68.4802 58.0803 69.1276 58.0787 69.7749 58.0774C70.2239 58.076 70.6729 58.0747 71.1219 58.0733C72.0641 58.0709 73.0063 58.0695 73.9484 58.0687C75.1564 58.0674 76.3643 58.0618 77.5723 58.0551C78.5 58.0507 79.4277 58.0495 80.3554 58.0492C80.8008 58.0485 81.2462 58.0466 81.6915 58.0435C82.3143 58.0395 82.937 58.0399 83.5599 58.0415C83.8364 58.0382 83.8364 58.0382 84.1186 58.0349C84.8689 58.0407 85.4177 58.0763 86.086 58.4323C86.6655 59.0682 86.6665 59.6277 86.681 60.4687C86.3656 61.1596 86.1922 61.5335 85.5092 61.875C84.8777 61.9005 84.2522 61.9119 83.6205 61.9128C83.4254 61.9139 83.2302 61.9151 83.0291 61.9163C82.3818 61.9197 81.7345 61.9213 81.0872 61.9226C80.6382 61.924 80.1892 61.9253 79.7402 61.9267C78.798 61.9291 77.8558 61.9305 76.9136 61.9313C75.7056 61.9326 74.4977 61.9382 73.2898 61.9449C72.3621 61.9493 71.4344 61.9505 70.5066 61.9508C70.0613 61.9515 69.6159 61.9534 69.1706 61.9565C68.5477 61.9605 67.925 61.9601 67.3022 61.9585C67.0256 61.9618 67.0256 61.9618 66.7435 61.9651C65.9931 61.9593 65.4444 61.9237 64.7761 61.5677C64.1966 60.9318 64.1955 60.3723 64.181 59.5312C64.884 57.9913 65.6887 58.0894 67.2415 58.0872Z" fill="white"/>
</g>
<defs>
<clipPath id="clip0_145_77">
<rect width="120" height="120" fill="white" transform="translate(0.665405)"/>
</clipPath>
</defs>
</svg>
