<svg width="120" height="120" viewBox="0 0 120 120" fill="none" xmlns="http://www.w3.org/2000/svg">
<g clip-path="url(#clip0_145_177)">
<path d="M50.9453 -0.094696C51.2702 -0.0971089 51.2702 -0.0971089 51.6018 -0.0995705C52.3156 -0.103848 53.0294 -0.102953 53.7432 -0.10162C54.2412 -0.102689 54.7391 -0.103933 55.2371 -0.105343C56.2801 -0.107435 57.3231 -0.106869 58.3661 -0.104538C59.7001 -0.101847 61.0339 -0.10658 62.3679 -0.113425C63.3962 -0.117733 64.4244 -0.117659 65.4527 -0.116322C65.9444 -0.116286 66.4361 -0.117699 66.9278 -0.120609C67.6166 -0.124112 68.3052 -0.121595 68.994 -0.117584C69.1954 -0.11985 69.3969 -0.122116 69.6044 -0.124451C71.1703 -0.105442 72.3854 0.314201 73.5909 1.33027C74.9717 3.03688 75.3106 4.33544 75.3735 6.51947C75.4852 7.39515 75.7073 7.92071 76.1718 8.67188C76.7993 9.07933 76.7993 9.07933 77.5506 9.34021C77.8243 9.44777 78.0981 9.55533 78.3801 9.66614C78.8097 9.82657 78.8097 9.82657 79.248 9.99024C79.8102 10.2079 80.3724 10.4258 80.9344 10.6439C81.2025 10.7462 81.4705 10.8484 81.7467 10.9538C82.5771 11.2804 83.3864 11.6395 84.1921 12.0224C84.9154 12.3086 85.2996 12.2426 86.0156 11.9531C86.5048 11.5665 86.9604 11.1563 87.4163 10.7309C88.647 9.64519 89.9266 9.10724 91.5673 9.08204C91.8003 9.07599 92.0332 9.06995 92.2732 9.06372C94.1333 9.24863 95.2544 10.0023 96.522 11.2923C96.6697 11.438 96.8175 11.5837 96.9697 11.7337C97.4537 12.2126 97.9333 12.6956 98.4127 13.179C98.7497 13.5153 99.0869 13.8513 99.4243 14.1872C100.129 14.8905 100.832 15.5958 101.533 16.3026C102.431 17.2064 103.333 18.1047 104.237 19.0016C104.933 19.6942 105.627 20.3896 106.321 21.0858C106.652 21.4181 106.985 21.7495 107.318 22.08C107.784 22.5432 108.246 23.01 108.708 23.478C108.913 23.6799 108.913 23.6799 109.123 23.8859C110.362 25.1573 110.959 26.5369 110.962 28.3447C110.915 29.885 110.594 31.1604 109.519 32.3035C109.246 32.5603 108.965 32.8098 108.676 33.0478C108.082 33.7522 107.873 34.5206 107.578 35.3906C107.814 35.3845 108.051 35.3784 108.294 35.372C109.181 35.3506 110.067 35.3373 110.954 35.3263C111.336 35.3204 111.718 35.3124 112.1 35.3022C114.498 35.2397 116.609 35.1887 118.498 36.9009C119.532 38.049 120.087 39.2478 120.091 40.7861C120.094 41.202 120.094 41.202 120.098 41.6263C120.097 41.9274 120.096 42.2284 120.095 42.5385C120.096 42.8612 120.098 43.184 120.1 43.5067C120.104 44.3808 120.103 45.2549 120.102 46.129C120.101 46.8599 120.103 47.5908 120.104 48.3218C120.108 50.0469 120.107 51.7721 120.104 53.4972C120.102 55.2741 120.105 57.0508 120.111 58.8276C120.117 60.3557 120.118 61.8838 120.117 63.412C120.116 64.3235 120.117 65.235 120.121 66.1465C120.124 67.0041 120.123 67.8616 120.119 68.7193C120.118 69.1819 120.121 69.6444 120.124 70.107C120.108 72.1198 119.842 73.3703 118.52 74.9414C117.214 76.035 115.967 76.6751 114.247 76.6635C114.049 76.6628 113.851 76.662 113.647 76.6612C113.443 76.6593 113.238 76.6573 113.027 76.6553C112.715 76.6537 112.715 76.6537 112.396 76.6521C111.884 76.6493 111.372 76.6455 110.859 76.6406C110.823 76.7765 110.786 76.9124 110.749 77.0524C110.204 78.9804 109.411 80.7762 108.591 82.6007C108.436 82.9587 108.436 82.9587 108.278 83.324C108.183 83.5374 108.088 83.7507 107.99 83.9706C107.776 84.742 107.849 85.2454 108.047 86.0156C108.384 86.5167 108.384 86.5167 108.823 86.9385C110.372 88.5983 110.938 90.0736 110.908 92.3438C110.702 95.326 107.436 97.6902 105.448 99.6945C105.302 99.8419 105.155 99.9893 105.005 100.141C104.233 100.919 103.46 101.697 102.687 102.473C102.05 103.113 101.415 103.755 100.781 104.398C100.011 105.18 99.2387 105.958 98.4639 106.734C98.1707 107.029 97.8786 107.325 97.5874 107.622C97.1798 108.037 96.7687 108.448 96.3565 108.858C96.2387 108.98 96.1209 109.102 95.9996 109.227C94.7868 110.419 93.3733 110.96 91.6552 110.962C89.8107 110.906 88.527 110.387 87.2314 109.072C87.109 108.934 86.9867 108.796 86.8606 108.653C86.4224 108.22 86.1357 108.004 85.5468 107.813C84.0951 107.863 82.9376 108.431 81.6503 109.043C80.0347 109.798 78.4444 110.471 76.7422 111.009C75.9519 111.451 75.7757 111.892 75.4687 112.734C75.378 113.458 75.378 113.458 75.3808 114.199C75.2832 115.876 74.858 117.238 73.7219 118.505C72.2615 119.8 70.9356 120.105 69.0583 120.098C68.8421 120.1 68.6258 120.102 68.403 120.104C67.6902 120.11 66.9776 120.11 66.2649 120.11C65.7675 120.112 65.2701 120.113 64.7727 120.115C63.7307 120.118 62.6887 120.119 61.6467 120.117C60.3148 120.116 58.9831 120.123 57.6512 120.133C56.624 120.139 55.5967 120.139 54.5694 120.139C54.0786 120.139 53.5877 120.141 53.0969 120.145C52.4086 120.151 51.7208 120.148 51.0325 120.144C50.7316 120.149 50.7316 120.149 50.4246 120.154C48.796 120.131 47.4922 119.597 46.2751 118.498C44.8794 116.941 44.6844 115.495 44.6264 113.481C44.5147 112.605 44.2926 112.079 43.8281 111.328C43.2006 110.921 43.2006 110.921 42.4493 110.66C42.1756 110.552 41.9018 110.445 41.6198 110.334C41.3334 110.227 41.047 110.12 40.7519 110.01C40.1897 109.792 39.6275 109.574 39.0655 109.356C38.7974 109.254 38.5293 109.152 38.2531 109.046C37.4228 108.72 36.6135 108.36 35.8078 107.978C35.0845 107.691 34.7003 107.757 33.9843 108.047C33.495 108.433 33.0395 108.844 32.5836 109.269C31.3529 110.355 30.0732 110.893 28.4326 110.918C28.1996 110.924 27.9667 110.93 27.7267 110.936C25.8666 110.751 24.7455 109.998 23.4779 108.708C23.3302 108.562 23.1824 108.416 23.0302 108.266C22.5462 107.787 22.0666 107.304 21.5872 106.821C21.2501 106.485 20.9129 106.149 20.5756 105.813C19.8706 105.11 19.1678 104.404 18.4664 103.697C17.5694 102.794 16.6671 101.895 15.7632 100.998C15.0664 100.306 14.3724 99.6104 13.6792 98.9142C13.3477 98.5819 13.0153 98.2505 12.6821 97.92C12.2159 97.4568 11.7537 96.99 11.2922 96.522C11.1552 96.3874 11.0183 96.2528 10.8771 96.1142C9.63806 94.8427 9.04051 93.4631 9.03803 91.6553C9.09378 89.8108 9.6129 88.527 10.9277 87.2314C11.066 87.1091 11.2044 86.9867 11.347 86.8607C11.7799 86.4224 11.9963 86.1358 12.1874 85.5469C12.137 84.0952 11.5693 82.9376 10.957 81.6504C10.2018 80.0348 9.52923 78.4445 8.99134 76.7423C8.54864 75.952 8.10752 75.7757 7.26557 75.4688C6.5419 75.3781 6.5419 75.3781 5.80072 75.3809C4.1244 75.2833 2.76241 74.858 1.495 73.7219C0.197894 72.2593 -0.104557 70.9345 -0.0947571 69.0547C-0.0971699 68.7297 -0.0971699 68.7297 -0.0996315 68.3982C-0.103909 67.6843 -0.103014 66.9706 -0.101681 66.2567C-0.10275 65.7588 -0.103994 65.2608 -0.105404 64.7629C-0.107496 63.7198 -0.10693 62.6769 -0.104599 61.6339C-0.101908 60.2999 -0.106641 58.966 -0.113486 57.632C-0.117795 56.6038 -0.117719 55.5755 -0.116383 54.5472C-0.116347 54.0555 -0.11776 53.5639 -0.120671 53.0722C-0.124174 52.3833 -0.121656 51.6948 -0.117645 51.006C-0.119911 50.8045 -0.122177 50.6031 -0.124512 50.3955C-0.105503 48.8297 0.31414 47.6145 1.3302 46.409C3.03682 45.0282 4.33538 44.6894 6.51941 44.6265C7.39509 44.5147 7.92065 44.2926 8.67182 43.8281C9.07927 43.2006 9.07927 43.2006 9.34015 42.4493C9.44771 42.1756 9.55527 41.9019 9.66608 41.6199C9.77303 41.3335 9.87998 41.047 9.99018 40.752C10.2078 40.1897 10.4257 39.6276 10.6439 39.0656C10.7461 38.7975 10.8484 38.5294 10.9537 38.2532C11.2803 37.4228 11.6395 36.6135 12.0224 35.8078C12.3085 35.0846 12.2425 34.7004 11.9531 33.9844C11.5665 33.4951 11.1562 33.0395 10.7308 32.5836C9.64513 31.353 9.10718 30.0733 9.08197 28.4326C9.07593 28.1997 9.06989 27.9667 9.06366 27.7267C9.24857 25.8667 10.0023 24.7456 11.2922 23.478C11.4379 23.3302 11.5836 23.1825 11.7337 23.0303C12.2126 22.5463 12.6955 22.0667 13.179 21.5872C13.5152 21.2502 13.8513 20.913 14.1871 20.5756C14.8904 19.8707 15.5957 19.1678 16.3026 18.4665C17.2063 17.5694 18.1047 16.6672 19.0016 15.7633C19.6941 15.0665 20.3895 14.3725 21.0857 13.6793C21.418 13.3478 21.7494 13.0154 22.08 12.6821C22.5432 12.2159 23.01 11.7537 23.4779 11.2923C23.6125 11.1553 23.7471 11.0183 23.8858 10.8772C25.1573 9.63812 26.5369 9.04057 28.3447 9.03809C30.1892 9.09384 31.4729 9.61296 32.7685 10.9277C32.8909 11.0661 33.0132 11.2045 33.1393 11.347C33.5775 11.7799 33.8641 11.9963 34.4531 12.1875C35.9048 12.1371 37.0623 11.5694 38.3496 10.957C39.9652 10.2019 41.5555 9.52929 43.2577 8.9914C44.048 8.5487 44.2242 8.10758 44.5312 7.26563C44.6219 6.54196 44.6219 6.54196 44.6191 5.80079C44.7167 4.12446 45.1419 2.76247 46.278 1.49506C47.7406 0.197955 49.0654 -0.104496 50.9453 -0.094696ZM48.9843 4.21875C48.4075 5.08402 48.3952 5.83559 48.3105 6.84082C48.1182 8.71111 47.8526 9.98219 46.5234 11.4111C45.5709 12.1202 44.4651 12.5014 43.3678 12.9321C42.155 13.4224 40.96 13.9577 39.7617 14.482C37.2635 15.5623 35.1186 16.4877 32.4325 15.5301C31.4961 15.0334 30.7732 14.3174 30.0155 13.5846C29.4626 13.0599 29.193 12.9155 28.4472 12.7734C26.2944 13.0924 24.3496 15.9287 22.8378 17.4435C22.5573 17.7239 22.2768 18.0042 21.9962 18.2844C21.4122 18.8681 20.8286 19.4522 20.2453 20.0366C19.4969 20.7864 18.7474 21.5351 17.9976 22.2835C17.4199 22.8603 16.8428 23.4377 16.2658 24.0152C15.9895 24.2917 15.713 24.5681 15.4363 24.8442C15.0515 25.2284 14.6675 25.6134 14.2836 25.9985C14.0649 26.2174 13.8463 26.4362 13.621 26.6617C13.0754 27.2401 12.9207 27.4979 12.7734 28.2715C12.9277 29.3134 13.3996 29.731 14.1055 30.4825C15.4323 31.9007 16.0531 33.4167 15.9969 35.3725C15.7844 37.1126 14.9046 38.7961 14.2089 40.3857C13.4677 42.0772 13.4677 42.0772 12.7679 43.786C12.0543 45.5996 11.4069 46.9843 9.54248 47.861C8.50273 48.1647 7.42624 48.2377 6.34661 48.2938C6.18006 48.3063 6.01352 48.3188 5.84192 48.3316C5.69307 48.3391 5.54422 48.3467 5.39085 48.3544C4.61504 48.6211 4.26177 49.0534 3.74994 49.6875C3.63404 50.401 3.58926 50.9829 3.59831 51.6953C3.59626 51.8947 3.5942 52.0942 3.59209 52.2997C3.58694 52.9574 3.59034 53.6147 3.5943 54.2725C3.59351 54.7304 3.59238 55.1883 3.59091 55.6463C3.58918 56.6054 3.59169 57.5644 3.59716 58.5235C3.60384 59.7523 3.59999 60.9807 3.59298 62.2095C3.58874 63.1549 3.59009 64.1003 3.59313 65.0457C3.59391 65.4987 3.59295 65.9517 3.59022 66.4048C3.58724 67.0383 3.59179 67.6713 3.59831 68.3048C3.59594 68.4916 3.59356 68.6784 3.59112 68.8708C3.60935 69.828 3.70688 70.2592 4.31604 71.0139C4.89384 71.4627 5.13136 71.6324 5.84192 71.6684C6.09174 71.6871 6.09174 71.6871 6.34661 71.7062C6.51935 71.7152 6.69209 71.7241 6.87006 71.7334C8.74449 71.895 9.97756 72.1431 11.4111 73.4766C12.1202 74.429 12.5014 75.5349 12.932 76.6322C13.4223 77.8449 13.9576 79.0399 14.482 80.2383C15.5622 82.7364 16.4877 84.8813 15.53 87.5674C15.0334 88.5039 14.3173 89.2268 13.5845 89.9844C13.0598 90.5374 12.9154 90.807 12.7734 91.5527C13.0923 93.7055 15.9286 95.6503 17.4435 97.1622C17.7238 97.4427 18.0041 97.7232 18.2844 98.0037C18.868 98.5878 19.4521 99.1714 20.0365 99.7547C20.7863 100.503 21.535 101.253 22.2834 102.002C22.8603 102.58 23.4376 103.157 24.0152 103.734C24.2917 104.01 24.568 104.287 24.8441 104.564C25.2284 104.948 25.6133 105.332 25.9985 105.716C26.3267 106.044 26.3267 106.044 26.6616 106.379C27.24 106.925 27.4979 107.079 28.2714 107.227C29.3133 107.072 29.7309 106.6 30.4824 105.894C31.9006 104.568 33.4166 103.947 35.3724 104.003C37.1126 104.216 38.796 105.095 40.3857 105.791C42.0772 106.532 42.0772 106.532 43.786 107.232C45.5995 107.946 46.9842 108.593 47.861 110.457C48.1647 111.497 48.2376 112.574 48.2938 113.653C48.3648 114.602 48.4518 114.997 49.0585 115.771C50.1223 116.581 51.1256 116.52 52.4265 116.522C52.6069 116.523 52.7873 116.524 52.9731 116.526C53.5689 116.529 54.1646 116.531 54.7604 116.532C55.1755 116.533 55.5906 116.535 56.0057 116.536C56.8759 116.538 57.7462 116.54 58.6164 116.541C59.7292 116.542 60.8419 116.548 61.9547 116.554C62.8122 116.559 63.6698 116.56 64.5274 116.56C64.9375 116.561 65.3476 116.563 65.7577 116.566C66.3326 116.57 66.9074 116.569 67.4824 116.568C67.6503 116.57 67.8183 116.572 67.9913 116.574C69.1828 116.565 69.9803 116.334 71.0156 115.781C71.5924 114.916 71.6047 114.164 71.6894 113.159C71.8817 111.289 72.1473 110.018 73.4765 108.589C74.429 107.88 75.5348 107.499 76.6321 107.068C77.8449 106.578 79.0398 106.042 80.2382 105.518C82.7364 104.438 84.8813 103.512 87.5674 104.47C88.5038 104.967 89.2267 105.683 89.9844 106.415C90.5373 106.94 90.8069 107.085 91.5527 107.227C93.7055 106.908 95.6503 104.071 97.1621 102.556C97.4426 102.276 97.7231 101.996 98.0037 101.716C98.5877 101.132 99.1713 100.548 99.7546 99.9634C100.503 99.2136 101.253 98.4649 102.002 97.7165C102.58 97.1397 103.157 96.5623 103.734 95.9848C104.01 95.7083 104.287 95.4319 104.564 95.1558C104.948 94.7716 105.332 94.3866 105.716 94.0015C105.935 93.7826 106.154 93.5638 106.379 93.3383C106.925 92.76 107.079 92.5021 107.227 91.7285C107.072 90.6866 106.6 90.269 105.894 89.5175C104.568 88.0995 103.946 86.5828 104.003 84.6269C104.222 82.8328 105.144 81.1033 105.864 79.4678C106.056 79.0314 106.248 78.5947 106.438 78.1577C106.522 77.9673 106.606 77.777 106.692 77.5809C106.903 77.1208 106.903 77.1208 106.875 76.6406C104.4 76.6406 101.925 76.6406 99.3749 76.6406C99.0366 77.2981 98.6982 77.9555 98.3496 78.6328C96.7009 81.7837 94.9355 84.7437 92.5781 87.4219C92.4071 87.6186 92.2361 87.8152 92.0599 88.0179C91.5378 88.6087 91.0061 89.1887 90.4687 89.7656C90.2145 90.043 90.2145 90.043 89.9551 90.3259C82.8503 97.7793 72.0821 102.206 61.8575 102.469C49.3218 102.618 38.3419 98.3693 29.3261 89.6191C21.1809 81.2442 17.4154 70.0865 17.5277 58.5599C17.7894 46.9933 22.9983 36.6684 31.1068 28.6194C31.8239 27.9552 32.1708 27.6655 33.164 27.6123C33.9843 27.6563 33.9843 27.6563 34.6874 27.8906C34.8326 28.9133 34.9413 29.841 34.363 30.7371C33.8911 31.2279 33.3993 31.6771 32.8857 32.124C32.5162 32.4698 32.1485 32.8174 31.7825 33.1668C31.5992 33.3416 31.4159 33.5163 31.2271 33.6963C24.4806 40.4222 21.0601 50.5875 21.0351 59.9561C21.044 68.5981 23.8246 77.1602 29.2968 83.9063C29.399 84.0322 29.5012 84.1582 29.6065 84.288C36.1163 92.2645 45.3354 97.562 55.6201 98.7882C66.0461 99.8275 76.3085 96.8688 84.4637 90.3058C88.8957 86.6706 93.0592 82.0628 95.1562 76.6406C94.87 76.6384 94.5838 76.6362 94.289 76.634C93.2266 76.6246 92.1644 76.6092 91.1021 76.592C90.6425 76.5854 90.1828 76.5804 89.7231 76.5771C89.0621 76.5721 88.4014 76.5612 87.7404 76.5491C87.4324 76.5486 87.4324 76.5486 87.1181 76.5482C85.6955 76.514 85.6955 76.514 84.9483 75.9725C84.4827 75.2806 84.4731 74.8799 84.6093 74.0625C84.9228 73.5578 84.9228 73.5578 85.5468 73.125C86.4125 72.9795 87.2729 72.9929 88.149 72.9971C88.4143 72.9946 88.6796 72.9922 88.953 72.9897C89.8305 72.9828 90.708 72.9825 91.5856 72.9822C92.1938 72.9787 92.8021 72.9748 93.4103 72.9704C94.8479 72.9612 96.2855 72.9562 97.7232 72.9531C99.3601 72.9494 100.997 72.9404 102.634 72.9309C106.001 72.9116 109.368 72.8989 112.734 72.8906C112.553 72.6692 112.372 72.4479 112.185 72.2198C112.083 72.0952 111.981 71.9707 111.876 71.8424C111.421 71.3232 110.904 70.9129 110.361 70.4883C109.443 69.7544 108.559 69.0004 107.695 68.2031C106.857 67.4313 106.004 66.6922 105.117 65.9766C104.23 65.2609 103.378 64.5219 102.539 63.75C101.489 62.784 100.405 61.8763 99.2953 60.9805C98.3596 60.2125 97.4593 59.4065 96.5624 58.5938C95.5748 58.9942 94.8708 59.6963 94.0869 60.3955C91.2264 62.8733 88.1968 64.7324 84.2541 64.5273C80.2583 64.0184 77.8043 62.2393 74.8966 59.6179C74.4794 59.2514 74.0466 58.915 73.5937 58.5938C72.7313 58.9599 72.1487 59.4928 71.4697 60.1318C70.5996 60.9409 69.7152 61.7155 68.789 62.4609C67.902 63.1766 67.0495 63.9156 66.2109 64.6875C65.1686 65.6469 64.0904 66.5448 62.9882 67.4341C62.1035 68.168 61.2641 68.9474 60.4193 69.7266C59.5348 70.5193 58.6142 71.2589 57.6837 71.9971C57.1698 72.3813 57.1698 72.3813 56.9531 72.8906C57.2241 72.8915 57.495 72.8923 57.7743 72.8932C60.3263 72.9019 62.8783 72.9154 65.4304 72.9337C66.7424 72.943 68.0545 72.9505 69.3666 72.9541C70.6325 72.9577 71.8983 72.9657 73.1642 72.977C73.6475 72.9804 74.1308 72.9823 74.6141 72.9825C75.2904 72.983 75.9664 72.9894 76.6426 72.9971C76.8431 72.9959 77.0435 72.9947 77.25 72.9935C78.1463 73.0093 78.6038 73.0183 79.3431 73.5578C79.8151 74.2497 79.8242 74.6481 79.6874 75.4688C79.3555 75.9739 79.3555 75.9739 78.7499 76.4063C77.9821 76.5478 77.2221 76.5343 76.4432 76.5276C76.209 76.5292 75.9749 76.5308 75.7337 76.5325C74.9587 76.5367 74.1838 76.5339 73.4088 76.5308C72.8692 76.5314 72.3297 76.5323 71.7901 76.5335C70.658 76.5349 69.526 76.5329 68.3938 76.5285C66.9469 76.5232 65.5001 76.5262 64.0532 76.5318C62.938 76.5352 61.8229 76.5341 60.7077 76.5317C60.1746 76.5311 59.6414 76.5318 59.1082 76.534C58.36 76.5364 57.6119 76.5328 56.8637 76.5276C56.6457 76.5295 56.4276 76.5314 56.203 76.5333C54.5395 76.5121 52.8656 76.2033 51.5809 75.0723C49.888 73.2622 49.8186 71.444 49.8271 69.0657C49.8258 68.7502 49.8241 68.4347 49.8222 68.1193C49.8181 67.266 49.8183 66.4128 49.8197 65.5595C49.8204 64.8454 49.8189 64.1314 49.8175 63.4174C49.8142 61.7319 49.8146 60.0464 49.8173 58.3609C49.82 56.626 49.8167 54.8912 49.8104 53.1563C49.8052 51.6632 49.8036 50.1701 49.805 48.677C49.8058 47.7869 49.8053 46.8967 49.8012 46.0066C49.7976 45.1689 49.7985 44.3314 49.8029 43.4938C49.8042 43.0427 49.8009 42.5916 49.7974 42.1406C49.8136 40.2224 50.068 38.6939 51.3116 37.186C51.462 37.0624 51.6125 36.9388 51.7675 36.8115C51.9168 36.6837 52.066 36.5559 52.2198 36.4243C53.3163 35.7199 54.3873 35.5661 55.671 35.5597C55.9747 35.5571 56.2784 35.5545 56.5912 35.5518C56.9248 35.5513 57.2584 35.5507 57.592 35.5503C57.9455 35.5481 58.299 35.5457 58.6525 35.5431C59.6097 35.5368 60.5669 35.5332 61.5242 35.5301C62.5255 35.5265 63.5268 35.5202 64.528 35.5142C66.423 35.5032 68.318 35.4946 70.213 35.4869C72.3708 35.4779 74.5286 35.4663 76.6865 35.4545C81.1243 35.4303 85.5621 35.4094 89.9999 35.3906C89.7787 35.0922 89.557 34.7942 89.3351 34.4963C89.2117 34.3303 89.0883 34.1643 88.9611 33.9933C83.4502 26.8291 73.7433 22.4665 64.975 21.2751C56.6059 20.3102 48.2923 21.9166 40.9249 26.0001C40.1988 26.2964 39.684 26.3277 38.9062 26.25C38.2031 25.7813 38.2031 25.7813 38.0273 24.9902C37.9391 23.7121 37.9391 23.7121 38.2031 23.2031C38.5919 23.0424 38.9831 22.8877 39.3749 22.7344C39.7129 22.5702 40.0494 22.4029 40.3848 22.2336C50.9674 16.9402 62.7342 16.1522 73.9846 19.8029C81.9283 22.497 88.8654 27.5909 93.934 34.249C94.4204 34.9092 94.4204 34.9092 94.9218 35.3906C95.5942 35.4317 96.2437 35.4449 96.9158 35.4364C97.1129 35.4357 97.3099 35.4351 97.5129 35.4344C98.1434 35.4318 98.7738 35.4259 99.4042 35.4199C99.8312 35.4176 100.258 35.4154 100.685 35.4135C101.733 35.4083 102.78 35.4002 103.828 35.3906C103.871 35.1827 103.914 34.9749 103.958 34.7607C104.047 34.3506 104.047 34.3506 104.138 33.9322C104.195 33.6615 104.252 33.3907 104.312 33.1118C104.672 31.8499 105.41 31.0332 106.289 30.0925C106.792 29.5365 107.094 29.1195 107.285 28.3887C106.769 26.2379 104.102 24.3803 102.556 22.8378C102.276 22.5574 101.996 22.2768 101.716 21.9963C101.132 21.4123 100.548 20.8287 99.9633 20.2453C99.2136 19.4969 98.4649 18.7474 97.7165 17.9976C97.1396 17.42 96.5623 16.8428 95.9847 16.2659C95.7082 15.9896 95.4319 15.7131 95.1557 15.4364C94.7715 15.0516 94.3866 14.6675 94.0014 14.2837C93.7826 14.065 93.5637 13.8463 93.3383 13.6211C92.7599 13.0754 92.502 12.9208 91.7285 12.7734C90.6866 12.9278 90.269 13.3997 89.5175 14.1055C88.0993 15.4324 86.5833 16.0532 84.6275 15.997C82.8873 15.7845 81.2039 14.9046 79.6142 14.209C77.9227 13.4678 77.9227 13.4678 76.2139 12.7679C74.4004 12.0543 73.0156 11.4069 72.1389 9.54255C71.8352 8.50279 71.7623 7.4263 71.7061 6.34667C71.6351 5.39785 71.5481 5.0033 70.9414 4.22882C69.8775 3.41892 68.8743 3.47988 67.5734 3.47786C67.393 3.4767 67.2126 3.47554 67.0267 3.47434C66.431 3.47092 65.8353 3.46932 65.2395 3.46802C64.8244 3.46667 64.4093 3.46532 63.9942 3.46397C63.1239 3.46151 62.2537 3.46014 61.3835 3.45932C60.2707 3.45804 59.158 3.45241 58.0452 3.44574C57.1876 3.44136 56.3301 3.44015 55.4725 3.43979C55.0624 3.43908 54.6523 3.43721 54.2422 3.43412C53.6672 3.43011 53.0925 3.43057 52.5175 3.43209C52.3496 3.42993 52.1816 3.42777 52.0086 3.42554C50.8171 3.43534 50.0196 3.66628 48.9843 4.21875ZM56.9531 39.1406C58.481 40.6686 60.0625 42.1035 61.7431 43.4619C62.8623 44.3671 63.9226 45.3227 64.9813 46.2973C65.6059 46.8579 66.2456 47.3889 66.8994 47.915C67.9622 48.7723 68.966 49.6749 69.9649 50.6043C70.9283 51.4955 71.935 52.3225 72.9574 53.1455C73.6187 53.6926 74.2513 54.2625 74.8828 54.8438C75.94 55.8165 77.0302 56.7332 78.1503 57.6325C78.692 58.0774 79.2038 58.5411 79.7167 59.0186C81.2868 60.4081 83.1713 61.0262 85.2575 60.9869C88.6109 60.6704 90.8889 58.3089 93.2878 56.1885C94.0236 55.5401 94.7658 54.8992 95.5078 54.2578C95.8005 54.0043 96.0931 53.7507 96.3857 53.497C96.5307 53.3714 96.6757 53.2457 96.8251 53.1163C97.2678 52.7325 97.7103 52.3485 98.1527 51.9644C98.4478 51.7084 98.7429 51.4523 99.038 51.1963C99.1828 51.0707 99.3276 50.9451 99.4767 50.8157C100.616 49.8283 101.762 48.8487 102.908 47.8698C103.709 47.1838 104.498 46.4864 105.278 45.7764C106.06 45.0663 106.859 44.3892 107.681 43.7256C109.455 42.2888 111.121 40.7544 112.734 39.1406C94.3265 39.1406 75.9187 39.1406 56.9531 39.1406ZM53.4374 41.25C53.4374 50.9953 53.4374 60.7406 53.4374 70.7813C53.9788 70.3172 54.5203 69.8531 55.0781 69.375C55.4871 69.0416 55.8972 68.7095 56.3085 68.3789C57.4401 67.4576 58.5164 66.4885 59.5898 65.5005C60.4246 64.7511 61.295 64.0514 62.1679 63.3472C62.8314 62.7968 63.4672 62.2244 64.1015 61.6406C65.1459 60.6794 66.2253 59.7778 67.3297 58.8867C68.3541 58.0414 69.334 57.1478 70.3124 56.25C69.9502 55.3556 69.4013 54.8507 68.6865 54.2139C68.5721 54.1116 68.4577 54.0093 68.3399 53.9039C67.3675 53.0414 66.3592 52.2255 65.3475 51.4096C64.5131 50.714 63.7207 49.9793 62.9256 49.2395C61.9622 48.3483 60.9555 47.5212 59.9331 46.6983C59.2718 46.1512 58.6392 45.5813 58.0078 45C56.5593 43.6681 55.0772 42.3432 53.4374 41.25ZM114.39 42.7588C113.226 43.8554 112.032 44.8865 110.784 45.8881C110.125 46.4319 109.496 46.9994 108.867 47.5781C107.825 48.5375 106.747 49.4354 105.644 50.3247C104.759 51.0591 103.919 51.8387 103.075 52.619C102.202 53.4001 101.287 54.1231 100.363 54.8419C99.8625 55.2954 99.6214 55.629 99.3749 56.25C99.571 56.4177 99.7671 56.5854 99.9691 56.7581C101.895 58.4065 103.814 60.0629 105.729 61.7247C106.608 62.4877 107.488 63.2499 108.367 64.0121C109.109 64.6548 109.851 65.2982 110.591 65.9427C111.99 67.1602 113.393 68.3735 114.814 69.5654C115.041 69.7555 115.268 69.9455 115.501 70.1413C115.937 70.5711 115.937 70.5711 116.25 70.5469C116.25 60.9563 116.25 51.3656 116.25 41.4844C115.44 41.4844 114.949 42.2228 114.39 42.7588Z" fill="white"/>
<path d="M30.4217 66.9632C30.5799 66.9616 30.7382 66.96 30.9013 66.9584C31.4232 66.9539 31.9451 66.953 32.467 66.9525C32.8307 66.951 33.1944 66.9494 33.5581 66.9478C34.3199 66.945 35.0818 66.9441 35.8437 66.9444C36.8189 66.9444 37.7939 66.938 38.769 66.93C39.52 66.9247 40.271 66.9238 41.022 66.9241C41.3815 66.9235 41.741 66.9214 42.1004 66.9178C42.6037 66.9132 43.1066 66.9146 43.6098 66.9174C44.0389 66.9164 44.0389 66.9164 44.4766 66.9154C45.3769 67.0531 45.7662 67.3326 46.4059 67.9687C46.5533 68.4375 46.5533 68.4375 46.5378 68.9062C46.5381 69.0609 46.5384 69.2156 46.5387 69.375C46.3427 70.067 46.0301 70.3355 45.4684 70.7812C44.7214 70.8987 44.7214 70.8987 43.8278 70.8988C43.6646 70.9001 43.5014 70.9014 43.3332 70.9027C42.7948 70.9056 42.2568 70.9017 41.7184 70.8975C41.3437 70.8976 40.9689 70.8979 40.5942 70.8986C39.8092 70.8989 39.0244 70.8959 38.2394 70.8906C37.2337 70.8839 36.2282 70.8846 35.2225 70.8876C34.4488 70.8892 33.6751 70.8874 32.9014 70.8845C32.5306 70.8834 32.1599 70.8833 31.7891 70.8842C31.2706 70.8849 30.7524 70.8811 30.234 70.8759C29.9392 70.8747 29.6443 70.8734 29.3405 70.8721C28.5397 70.7747 28.2096 70.6566 27.6559 70.0781C27.4514 69.2745 27.3444 68.697 27.5827 67.8955C28.3301 66.9345 29.2733 66.9703 30.4217 66.9632Z" fill="white"/>
<path d="M35.0516 57.146C35.273 57.143 35.4944 57.14 35.7225 57.1369C35.9625 57.1352 36.2025 57.1335 36.4497 57.1317C36.696 57.1298 36.9423 57.1279 37.196 57.1259C37.7179 57.1227 38.2398 57.1202 38.7617 57.1183C39.5596 57.1143 40.3573 57.104 41.1551 57.0937C41.6618 57.0913 42.1686 57.0893 42.6753 57.0877C43.0332 57.0816 43.0332 57.0816 43.3982 57.0753C44.4464 57.0785 45.0588 57.0813 45.9704 57.6332C46.4378 58.1607 46.5662 58.3674 46.5526 59.0625C46.5556 59.2172 46.5586 59.3719 46.5617 59.5313C46.3058 60.302 45.9271 60.5165 45.2342 60.9375C44.3868 61.0752 43.5488 61.0633 42.6918 61.0538C42.3231 61.0543 42.3231 61.0543 41.9469 61.0548C41.4282 61.0544 40.9095 61.0517 40.3908 61.0469C39.5966 61.0401 38.8027 61.042 38.0084 61.0451C37.5041 61.0436 36.9998 61.0417 36.4955 61.0391C36.1392 61.0402 36.1392 61.0402 35.7756 61.0412C35.5542 61.0382 35.3329 61.0353 35.1048 61.0322C34.9105 61.0309 34.7163 61.0297 34.5162 61.0284C33.8514 60.9148 33.5314 60.6986 33.0467 60.2344C32.788 59.3031 32.715 58.807 33.12 57.9199C33.7207 57.1634 34.1256 57.157 35.0516 57.146Z" fill="white"/>
<path d="M42.1878 47.2412C42.4887 47.2365 42.7896 47.2319 43.0996 47.227C43.3885 47.2272 43.6773 47.2273 43.9749 47.2275C44.2389 47.2271 44.503 47.2266 44.7751 47.2262C45.6156 47.3686 45.8883 47.6184 46.4065 48.2813C46.5393 48.75 46.5393 48.75 46.5384 49.2188C46.5435 49.3734 46.5486 49.5281 46.5539 49.6875C46.3228 50.4224 45.8633 50.672 45.2347 51.0938C44.5571 51.2076 44.5571 51.2076 43.8202 51.2018C43.5532 51.2009 43.2863 51.2 43.0113 51.199C42.5964 51.1904 42.5964 51.1904 42.1731 51.1817C41.7569 51.1812 41.7569 51.1812 41.3322 51.1807C39.0444 51.1574 39.0444 51.1574 38.2034 50.625C37.7155 49.9977 37.7356 49.66 37.764 48.8525C37.969 48.0469 37.969 48.0469 38.3572 47.6513C39.4971 47.0131 40.914 47.2342 42.1878 47.2412Z" fill="white"/>
</g>
<defs>
<clipPath id="clip0_145_177">
<rect width="120" height="120" fill="white"/>
</clipPath>
</defs>
</svg>
