<svg width="121" height="120" viewBox="0 0 121 120" fill="none" xmlns="http://www.w3.org/2000/svg">
<g clip-path="url(#clip0_145_67)">
<path d="M23.2869 -0.0820553C23.7209 -0.0859019 24.155 -0.0922512 24.589 -0.101281C28.2449 -0.176776 31.3264 0.326389 34.5949 2.05078C34.7483 2.13016 34.9017 2.20955 35.0597 2.29133C40.1745 5.0038 43.7343 8.99206 46.0353 14.2969C46.0353 14.4516 46.0353 14.6062 46.0353 14.7656C46.2664 14.6919 46.4976 14.6182 46.7357 14.5422C56.1233 11.6717 65.745 12.0951 75.0978 14.7656C75.1445 14.5004 75.1445 14.5004 75.192 14.2298C75.7145 11.8588 77.4795 9.48893 79.0822 7.73437C79.2439 7.55588 79.2439 7.55588 79.4089 7.37377C81.2128 5.40637 83.0915 3.89516 85.4103 2.57812C85.6387 2.4461 85.8671 2.31407 86.1024 2.17804C89.408 0.394301 92.682 -0.197625 96.3945 -0.15278C97.0117 -0.146487 97.6279 -0.152763 98.2451 -0.160218C101.615 -0.1673 104.745 0.453171 107.749 2.05078C107.902 2.1305 108.056 2.21023 108.214 2.29236C113.96 5.37138 118.027 10.6241 119.903 16.8173C120.436 18.7758 120.475 20.7081 120.454 22.7274C120.449 23.3199 120.454 23.9116 120.46 24.5041C120.466 27.7026 119.947 30.5602 118.516 33.457C118.435 33.6234 118.355 33.7897 118.272 33.9611C115.83 38.8575 111.261 43.4166 106.035 45.2344C105.881 45.2344 105.726 45.2344 105.567 45.2344C105.605 45.3765 105.644 45.5187 105.684 45.6652C108.312 55.384 108.222 64.5968 105.567 74.2969C105.701 74.3378 105.836 74.3787 105.975 74.4208C108.798 75.3125 111.1 77.04 113.301 78.9844C113.461 79.1224 113.622 79.2605 113.787 79.4028C117.026 82.3921 118.951 86.5218 120.098 90.7031C120.139 90.8529 120.181 91.0027 120.224 91.157C120.405 91.9638 120.38 92.7847 120.388 93.6081C120.39 93.8013 120.392 93.9945 120.394 94.1936C120.397 94.6036 120.4 95.0135 120.401 95.4235C120.404 95.8364 120.409 96.2494 120.416 96.6622C120.476 100.249 120.026 103.289 118.428 106.553C118.337 106.74 118.246 106.928 118.152 107.121C117.279 108.861 116.244 110.349 114.942 111.797C114.827 111.926 114.712 112.054 114.594 112.187C112.81 114.151 110.917 115.645 108.613 116.953C108.385 117.085 108.157 117.217 107.921 117.353C102.926 120.049 96.3627 120.721 90.9007 119.243C89.4914 118.821 88.1396 118.297 86.8166 117.656C86.5661 117.536 86.3156 117.415 86.0576 117.291C81.6197 115.033 78.2876 111.459 75.9328 107.124C75.8496 106.971 75.7665 106.819 75.6808 106.661C75.3232 105.983 75.0978 105.544 75.0978 104.766C74.9569 104.805 74.8159 104.843 74.6707 104.884C64.9828 107.522 55.7045 107.436 46.0353 104.766C45.9953 104.898 45.9552 105.031 45.9139 105.167C45.5283 106.39 45.0742 107.479 44.4093 108.574C44.3191 108.723 44.229 108.872 44.136 109.026C43.0944 110.683 41.8013 112.07 40.4103 113.437C40.1425 113.705 40.1425 113.705 39.8692 113.978C35.013 118.558 28.82 120.011 22.347 119.855C20.3742 119.771 18.6049 119.459 16.7384 118.828C16.5152 118.755 16.5152 118.755 16.2874 118.68C13.1997 117.642 9.65283 115.801 7.59781 113.203C7.35517 112.443 7.41709 112.134 7.59781 111.328C7.95954 110.818 8.21577 110.668 8.76968 110.391C9.72533 110.259 10.0882 110.33 10.891 110.889C11.1474 111.111 11.4021 111.336 11.6554 111.562C15.5245 114.789 20.6612 116.346 25.6791 115.922C31.1852 115.346 35.7422 112.934 39.3694 108.764C42.9096 104.28 44.1371 99.0982 43.648 93.4839C43.0609 88.7166 40.3328 83.9302 36.6072 80.9372C32.084 77.4801 26.7839 75.9609 21.1065 76.7141C16.0401 77.5707 11.2407 80.2191 8.20663 84.4336C5.02478 89.0698 3.86405 94.1739 4.6347 99.7464C4.89552 101.136 5.29188 102.448 5.86654 103.742C6.15737 104.448 6.28743 104.894 6.27945 105.645C6.28126 105.817 6.28307 105.99 6.28494 106.168C6.16637 106.768 5.9663 106.972 5.48843 107.344C4.69568 107.585 4.25132 107.639 3.46695 107.358C1.56209 105.704 0.912007 102.027 0.566555 99.6094C0.151852 92.4084 1.44926 86.1039 6.27945 80.5664C6.63604 80.1908 6.99749 79.8197 7.36343 79.4531C7.55558 79.2583 7.74773 79.0634 7.94571 78.8626C9.11892 77.7328 10.3415 76.7961 11.7287 75.9521C11.9385 75.8236 11.9385 75.8236 12.1527 75.6925C13.2409 75.0583 14.3625 74.6585 15.5666 74.2969C15.5276 74.1606 15.4887 74.0243 15.4486 73.8839C12.7771 64.4115 12.554 54.6796 15.5666 45.2344C15.291 45.1619 15.0155 45.0894 14.7316 45.0146C11.6285 43.9624 9.1566 41.9106 6.89468 39.6094C6.71643 39.4308 6.53817 39.2523 6.35452 39.0683C1.77452 34.2121 0.321117 28.019 0.476834 21.546C0.561493 19.5733 0.872712 17.804 1.50406 15.9375C1.57753 15.7142 1.57753 15.7142 1.65249 15.4865C3.62485 9.61963 7.89823 5.01911 13.2686 2.05994C16.5153 0.453118 19.7116 -0.0589491 23.2869 -0.0820553ZM10.88 8.43201C10.725 8.58851 10.57 8.74501 10.4103 8.90625C10.2024 9.10444 9.99458 9.30264 9.78042 9.50683C9.60157 9.69536 9.42271 9.88389 9.23843 10.0781C9.1197 10.1926 9.00096 10.3071 8.87863 10.4251C5.11801 14.3057 4.18758 19.5796 4.25338 24.7604C4.40655 29.8767 7.02661 34.5843 10.6721 38.0905C15.0616 41.8674 20.2054 43.4681 25.9798 43.1735C28.5044 42.9702 30.8094 42.1974 33.0626 41.0623C34.0487 40.5825 34.6661 40.4636 35.7228 40.7812C36.1769 41.1621 36.1769 41.1621 36.4259 41.7187C36.4699 42.5244 36.4699 42.5244 36.1916 43.3594C33.3245 46.1944 27.8298 46.6856 24.0187 46.6699C23.7989 46.6708 23.5791 46.6717 23.3527 46.6727C21.9888 46.6708 20.6693 46.5811 19.3166 46.4062C18.8088 47.6893 18.4216 48.9405 18.13 50.2881C18.0924 50.4514 18.0548 50.6147 18.016 50.7829C17.3647 53.7362 17.1212 56.6586 17.1339 59.6777C17.1346 59.9212 17.1346 59.9212 17.1352 60.1697C17.1515 63.872 17.6012 67.3655 18.4962 70.957C18.5434 71.1487 18.5906 71.3403 18.6392 71.5378C18.7887 72.122 18.7887 72.122 19.0822 72.8906C19.8111 73.1336 20.1865 73.0752 20.9251 72.9552C24.0316 72.5548 27.3215 72.7602 30.3322 73.5937C30.5709 73.659 30.8095 73.7243 31.0554 73.7915C33.9852 74.6835 36.6253 76.1288 39.0041 78.0469C39.2013 78.2055 39.3986 78.3641 39.6019 78.5275C44.009 82.2766 46.8034 87.7834 47.4416 93.5156C47.474 94.4045 47.4743 95.2922 47.4709 96.1816C47.4718 96.4137 47.4727 96.6457 47.4736 96.8848C47.4718 98.2808 47.3877 99.6313 47.2072 101.016C48.9855 101.721 50.764 102.128 52.6418 102.466C52.9672 102.524 52.9672 102.524 53.2992 102.584C59.9733 103.744 67.0066 103.384 73.4572 101.25C73.6119 101.095 73.7666 100.941 73.9259 100.781C73.8642 100.31 73.7835 99.8412 73.6916 99.375C73.2956 92.4209 74.646 86.1089 79.2689 80.7312C79.4393 80.5415 79.6097 80.3517 79.7853 80.1562C80.0046 79.9079 80.0046 79.9079 80.2284 79.6545C83.1538 76.5325 87.3806 74.3664 91.5041 73.3594C91.8131 73.2805 91.8131 73.2805 92.1284 73.2001C95.2347 72.5466 98.6832 72.7216 101.817 73.125C102.522 71.3467 102.929 69.5682 103.267 67.6904C103.306 67.4735 103.345 67.2565 103.385 67.033C104.48 60.7291 104.772 52.3166 101.817 46.4062C101.375 46.4624 101.375 46.4624 100.924 46.5198C94.1155 47.2699 87.5749 45.9304 82.1584 41.6016C81.7543 41.2542 81.3536 40.9029 80.9572 40.5469C80.7088 40.3275 80.7088 40.3275 80.4555 40.1038C76.7722 36.6525 74.1893 31.2632 73.6916 26.25C73.6595 25.2341 73.6588 24.2194 73.6623 23.2031C73.6614 22.9336 73.6604 22.6641 73.6595 22.3865C73.661 21.0719 73.6889 19.8099 73.9259 18.5156C72.6428 18.0079 71.3917 17.6207 70.0441 17.3291C69.8808 17.2915 69.7175 17.2539 69.5493 17.2151C66.596 16.5638 63.6736 16.3203 60.6544 16.333C60.4109 16.3336 60.4109 16.3336 60.1625 16.3343C56.4602 16.3506 52.9667 16.8002 49.3752 17.6953C49.1835 17.7425 48.9919 17.7897 48.7944 17.8383C48.2102 17.9878 48.2102 17.9878 47.4416 18.2812C47.1986 19.0101 47.257 19.3856 47.377 20.1242C47.7775 23.2315 47.5706 26.5195 46.7384 29.5312C46.6759 29.7645 46.6134 29.9977 46.5489 30.238C45.622 33.3196 44.1075 36.3809 41.8166 38.6719C40.9241 38.7561 40.3689 38.7877 39.59 38.3203C39.1755 37.6294 39.1419 37.1585 39.286 36.3684C39.5026 35.7782 39.7852 35.4163 40.1906 34.9365C43.4297 31.051 44.3678 25.7738 43.9259 20.8594C43.2293 15.6084 40.505 10.6817 36.2793 7.44232C28.7073 1.96718 17.8232 1.72903 10.88 8.43201ZM82.715 9.38965C78.807 13.3905 77.0831 18.4639 77.1078 23.9962C77.2395 29.3961 79.6293 34.1134 83.4312 37.8807C87.3 41.5652 92.3649 43.2849 97.6406 43.2364C103.294 43.0479 107.914 40.5356 111.87 36.5881C113.599 34.73 114.838 32.5514 115.733 30.1904C115.816 29.9695 115.816 29.9695 115.902 29.7441C117.566 25.0913 117.309 19.6363 115.238 15.1617C112.824 10.2484 108.901 6.31321 103.692 4.45312C95.9466 2.07068 88.6343 3.79004 82.715 9.38965ZM83.5353 81.5625C83.3631 81.7084 83.1909 81.8543 83.0135 82.0047C80.541 84.2752 78.9496 87.3201 77.9103 90.4687C77.8308 90.7026 77.7514 90.9364 77.6695 91.1774C76.2831 96.0457 77.1231 101.403 79.5207 105.785C82.2924 110.628 86.4758 113.941 91.8117 115.546C97.4797 116.97 102.915 115.914 107.91 112.969C108.753 112.401 109.507 111.781 110.254 111.094C110.448 110.921 110.643 110.748 110.843 110.57C114.416 107.221 116.655 102.529 116.891 97.6327C117.063 91.7177 115.335 86.6892 111.239 82.3215C107.407 78.428 102.504 76.369 97.0558 76.3037C91.8962 76.342 87.4168 78.1974 83.5353 81.5625Z" fill="white"/>
<path d="M73.6911 41.3516C74.3692 41.5436 74.6508 41.8833 75.0973 42.4218C75.2147 43.0067 75.2147 43.0067 75.2148 43.6761C75.2171 43.9304 75.2194 44.1847 75.2218 44.4468C75.2195 44.7246 75.2173 45.0025 75.2149 45.2888C75.2168 45.7291 75.2168 45.7291 75.2188 46.1783C75.2212 46.9827 75.2194 47.7868 75.2155 48.5912C75.2123 49.4331 75.2138 50.2751 75.2146 51.117C75.2153 52.5309 75.2121 53.9447 75.2067 55.3586C75.2004 56.9929 75.2 58.6272 75.2028 60.2616C75.2053 61.8341 75.2039 63.4066 75.2005 64.9792C75.1992 65.6483 75.1992 66.3173 75.2003 66.9864C75.2017 67.9207 75.1972 68.8549 75.192 69.7892C75.1936 70.206 75.1936 70.206 75.1952 70.6312C75.1929 70.8856 75.1906 71.1399 75.1882 71.4019C75.1873 71.7333 75.1873 71.7333 75.1865 72.0713C75.0797 72.772 74.8888 73.0905 74.3942 73.5937C73.5906 73.7983 73.0131 73.9052 72.2116 73.6669C71.7149 73.2806 71.5468 73.0204 71.3473 72.4218C71.318 71.6601 71.318 71.6601 71.3473 71.0156C71.1455 70.9551 70.9437 70.8947 70.7358 70.8325C69.9159 70.5378 69.2249 70.1704 68.4762 69.7265C68.2333 69.5839 67.9904 69.4413 67.7402 69.2944C67.0872 68.88 66.734 68.6427 66.4694 67.9101C66.4107 67.049 66.683 66.5855 67.1286 65.8593C67.8618 65.4927 68.424 65.5593 69.238 65.6249C69.8567 65.9343 70.4755 66.2437 71.113 66.5624C71.1903 60.607 71.2676 54.6515 71.3473 48.5156C69.8778 49.2117 68.4083 49.9078 66.8942 50.6249C66.0141 50.9816 65.1508 51.3227 64.2575 51.6357C63.9629 51.7438 63.9629 51.7438 63.6624 51.854C61.8647 52.4978 60.0854 52.9406 58.2223 53.4374C58.145 56.2218 58.0676 59.0062 57.988 61.8749C58.6067 61.9523 59.2255 62.0296 59.863 62.1093C60.394 62.2308 60.922 62.3668 61.445 62.5195C61.7 62.5908 61.955 62.6621 62.2177 62.7355C63.0353 63.1032 63.3771 63.4612 63.8473 64.2187C63.8332 65.0382 63.7765 65.6011 63.3346 66.2988C62.6059 66.7511 61.8766 66.872 61.0308 66.7015C60.5098 66.5499 59.996 66.3849 59.4821 66.2109C59.1331 66.0939 58.7834 65.9791 58.4329 65.8666C58.2798 65.8148 58.1268 65.763 57.9691 65.7096C57.4324 65.6086 57.1025 65.7097 56.5817 65.8593C55.9738 65.8755 55.3728 65.8814 54.7653 65.874C54.6019 65.8729 54.4384 65.8718 54.27 65.8708C53.8687 65.868 53.4674 65.8638 53.0661 65.8593C53.1202 66.0857 53.1202 66.0857 53.1754 66.3167C53.3369 67.2397 53.3811 68.1525 53.4259 69.0875C53.436 69.2848 53.446 69.4821 53.4564 69.6855C53.4775 70.1019 53.4981 70.5183 53.5184 70.9348C53.5493 71.5684 53.5816 72.202 53.614 72.8356C53.6344 73.2415 53.6547 73.6474 53.6749 74.0533C53.6844 74.2411 53.6939 74.4289 53.7038 74.6224C53.8637 77.9413 53.8637 77.9413 53.0661 78.9843C52.3974 79.3187 51.933 79.2914 51.1911 79.2187C50.5768 78.9312 50.5768 78.9312 50.0192 78.2812C49.7989 77.2977 49.7676 76.3124 49.7262 75.3076C49.7101 75.0187 49.694 74.7297 49.6774 74.4321C49.6288 73.5278 49.5886 72.6235 49.5505 71.7187C49.5372 71.4277 49.524 71.1367 49.5104 70.8369C49.4354 69.178 49.3699 67.519 49.3161 65.8593C49.1559 65.8624 48.9957 65.8654 48.8307 65.8686C48.6202 65.871 48.4096 65.8733 48.1927 65.8758C47.8799 65.8804 47.8799 65.8804 47.5608 65.8851C46.58 65.8421 45.9289 65.5081 45.2292 64.8293C44.339 63.8304 44.135 63.0668 44.1183 61.7676C44.1153 61.5626 44.1123 61.3575 44.1092 61.1463C44.1075 60.9263 44.1058 60.7063 44.104 60.4797C44.1021 60.2513 44.1002 60.023 44.0983 59.7878C44.095 59.3047 44.0925 58.8217 44.0907 58.3386C44.088 57.8463 44.0832 57.3539 44.0762 56.8616C44.0662 56.1486 44.0624 55.4359 44.06 54.7228C44.0539 54.3957 44.0539 54.3957 44.0476 54.062C44.0522 52.6555 44.2695 51.5533 45.0973 50.3906C46.4984 49.2522 47.6186 49.1829 49.3719 49.1876C49.6528 49.1872 49.6528 49.1872 49.9394 49.1869C50.3352 49.1867 50.7309 49.1872 51.1267 49.1881C51.7285 49.1894 52.3302 49.1881 52.932 49.1866C53.3175 49.1868 53.7031 49.1871 54.0887 49.1876C54.267 49.1871 54.4453 49.1866 54.629 49.1861C55.4411 49.1896 56.1899 49.2302 56.9965 49.351C57.7008 49.446 58.0978 49.442 58.7662 49.2425C58.9471 49.1892 59.128 49.1359 59.3144 49.081C59.5051 49.0201 59.6958 48.9592 59.8923 48.8964C60.1962 48.8019 60.1962 48.8019 60.5063 48.7054C63.7458 47.6632 66.8706 46.2865 69.8379 44.6219C70.8365 44.0624 70.8365 44.0624 71.3473 44.0624C71.328 43.8546 71.3087 43.6467 71.2887 43.4326C71.3473 42.6562 71.3473 42.6562 71.6989 41.9824C72.411 41.3771 72.7866 41.3533 73.6911 41.3516ZM47.9098 52.9687C47.9098 55.9851 47.9098 59.0015 47.9098 62.1093C49.9981 62.1093 52.0864 62.1093 54.238 62.1093C54.238 59.0929 54.238 56.0765 54.238 52.9687C52.1497 52.9687 50.0614 52.9687 47.9098 52.9687Z" fill="white"/>
<path d="M31.7384 13.3594C31.9704 13.4367 32.2024 13.5141 32.4415 13.5938C32.933 13.3531 32.933 13.3531 33.4376 13.0078C34.2244 12.5478 34.5164 12.4224 35.4591 12.4072C36.1915 12.6562 36.1915 12.6562 36.6456 13.0371C37.0677 13.9806 37.0486 14.7812 36.7161 15.7599C36.3671 16.5792 36.0089 17.2753 35.4692 17.9892C34.9128 18.9308 34.8615 19.6418 34.7999 20.7129C34.4303 25.0177 32.8984 28.3064 29.8634 31.4062C29.7419 31.5362 29.6205 31.6661 29.4953 31.7999C26.8334 34.3782 22.9017 35.3738 19.3165 35.4785C16.0548 35.3938 12.5583 34.6291 9.9415 32.5781C9.60299 31.9011 9.6188 31.454 9.70713 30.7031C10.3265 29.8942 10.8163 29.4766 11.8138 29.3143C12.1511 29.2788 12.489 29.2487 12.8272 29.2236C13.0008 29.2066 13.1744 29.1895 13.3532 29.1719C13.7781 29.1308 14.2035 29.096 14.629 29.0625C14.426 28.8401 14.2229 28.6178 14.0138 28.3887C11.5961 25.5538 10.6344 22.4495 10.879 18.75C11.1347 17.0889 11.4303 15.5275 12.2853 14.0625C13.181 13.4653 13.5664 13.4344 14.629 13.5938C15.4639 14.2261 16.1054 15.042 16.7823 15.835C18.0753 16.9556 19.728 17.7847 21.4259 18.0469C21.5029 17.7963 21.5029 17.7963 21.5815 17.5406C22.2719 15.4554 22.99 14.1796 24.9708 13.1543C27.4159 12.0041 29.2904 12.3601 31.7384 13.3594ZM25.879 17.1094C25.1069 18.1646 25.0646 19.2426 24.9909 20.5106C24.9415 21.0938 24.9415 21.0938 24.7071 21.7969C21.0281 21.9555 18.3104 21.355 15.0978 19.4531C14.9431 19.3758 14.7884 19.2984 14.629 19.2188C14.5209 21.4524 14.8769 23.3385 16.3163 25.1065C17.3338 26.1682 18.503 27.016 19.7853 27.7295C20.4884 28.125 20.4884 28.125 20.7228 28.5938C20.8106 29.2529 20.8106 29.2529 20.7228 30C20.1661 30.6445 20.1661 30.6445 19.5509 31.1719C19.3188 31.4039 19.3188 31.4039 19.0821 31.6406C22.887 31.5721 25.6364 30.3366 28.2667 27.627C29.8284 25.7972 30.8013 23.4858 31.0353 21.0938C31.0627 20.8215 31.0902 20.5493 31.1186 20.2689C31.2312 18.7236 31.2312 18.7236 30.734 17.2989C29.947 16.5549 29.0674 16.1746 27.9856 16.1179C27.1352 16.2164 26.5201 16.5516 25.879 17.1094Z" fill="white"/>
<path d="M89.9393 83.6038C90.1922 83.6014 90.1922 83.6014 90.4502 83.599C91.0055 83.5946 91.5608 83.5936 92.1161 83.5931C92.5041 83.5916 92.892 83.59 93.2799 83.5884C94.0926 83.5856 94.9053 83.5847 95.718 83.585C96.7559 83.585 97.7937 83.5786 98.8315 83.5706C99.6328 83.5653 100.434 83.5644 101.235 83.5647C101.618 83.5641 102 83.562 102.383 83.5584C106.417 83.5236 106.417 83.5236 108.15 85.0186C108.307 85.2148 108.307 85.2148 108.467 85.415C108.629 85.6103 108.629 85.6103 108.794 85.8096C109.512 86.9089 109.611 87.8591 109.619 89.1603C109.62 89.3312 109.622 89.5021 109.623 89.6781C109.628 90.2411 109.629 90.8039 109.629 91.3669C109.631 91.7601 109.632 92.1533 109.634 92.5464C109.637 93.3702 109.638 94.1939 109.637 95.0176C109.637 96.0697 109.644 97.1216 109.652 98.1737C109.657 98.9858 109.658 99.7979 109.658 100.61C109.658 100.998 109.66 101.385 109.664 101.773C109.696 105.534 109.696 105.534 108.613 107.109C108.136 107.592 108.136 107.592 107.661 107.915C107.503 108.026 107.346 108.137 107.184 108.251C106.253 108.804 105.376 108.787 104.328 108.791C104.069 108.794 104.069 108.794 103.804 108.796C103.231 108.801 102.657 108.803 102.084 108.806C101.888 108.807 101.692 108.808 101.49 108.809C100.452 108.814 99.413 108.817 98.3744 108.819C97.3044 108.822 96.2346 108.83 95.1646 108.839C94.3396 108.845 93.5147 108.847 92.6896 108.848C92.2954 108.849 91.9012 108.852 91.507 108.856C87.233 108.901 87.233 108.901 85.6305 107.344C85.5239 107.189 85.4172 107.034 85.3074 106.875C85.1965 106.72 85.0856 106.566 84.9714 106.406C84.4082 105.409 84.4395 104.44 84.4309 103.31C84.4294 103.141 84.4278 102.973 84.4262 102.799C84.4216 102.242 84.4189 101.686 84.4165 101.129C84.4156 100.938 84.4146 100.748 84.4136 100.551C84.4088 99.5415 84.4054 98.5318 84.4032 97.5221C84.4006 96.4823 84.3926 95.4427 84.3832 94.403C84.3771 93.6007 84.3752 92.7984 84.3743 91.9961C84.3732 91.613 84.3705 91.2299 84.3661 90.8468C84.323 86.8064 84.323 86.8064 85.8191 85.0726C85.95 84.9681 86.0808 84.8635 86.2156 84.7558C86.3458 84.6477 86.476 84.5395 86.6101 84.4281C87.7023 83.7151 88.6465 83.6114 89.9393 83.6038ZM88.4826 87.682C88.0905 88.3494 88.1329 88.908 88.1314 89.6782C88.1302 89.8349 88.1289 89.9916 88.1277 90.153C88.1246 90.6709 88.1266 91.1886 88.129 91.7065C88.1285 92.0664 88.1279 92.4263 88.127 92.7862C88.1259 93.5404 88.1274 94.2946 88.1307 95.0488C88.1347 96.0159 88.1324 96.9828 88.1282 97.9499C88.1257 98.693 88.1265 99.4361 88.1283 100.179C88.1288 100.536 88.1282 100.892 88.1266 101.249C88.1248 101.747 88.1275 102.245 88.1314 102.744C88.132 103.027 88.1325 103.311 88.1331 103.603C88.1743 104.281 88.1743 104.281 88.4826 104.74C89.15 105.132 89.7085 105.089 90.4787 105.091C90.6354 105.092 90.7921 105.093 90.9536 105.095C91.4715 105.098 91.9892 105.096 92.5071 105.093C92.8669 105.094 93.2268 105.095 93.5867 105.095C94.3409 105.096 95.0951 105.095 95.8493 105.092C96.8164 105.088 97.7833 105.09 98.7504 105.094C99.4936 105.097 100.237 105.096 100.98 105.094C101.336 105.094 101.693 105.094 102.05 105.096C102.548 105.098 103.046 105.095 103.544 105.091C103.828 105.09 104.111 105.09 104.404 105.089C105.082 105.048 105.082 105.048 105.54 104.74C105.932 104.072 105.89 103.514 105.891 102.744C105.893 102.587 105.894 102.43 105.895 102.269C105.898 101.751 105.896 101.233 105.894 100.715C105.894 100.355 105.895 99.9955 105.896 99.6356C105.897 98.8814 105.895 98.1273 105.892 97.3731C105.888 96.406 105.89 95.439 105.895 94.472C105.897 93.7288 105.896 92.9857 105.895 92.2426C105.894 91.886 105.895 91.5294 105.896 91.1728C105.898 90.6745 105.895 90.1764 105.891 89.6782C105.891 89.2528 105.891 89.2528 105.89 88.8187C105.849 88.1406 105.849 88.1406 105.54 87.682C104.873 87.29 104.314 87.3324 103.544 87.3309C103.387 87.3296 103.231 87.3284 103.069 87.3271C102.551 87.324 102.034 87.3261 101.516 87.3285C101.156 87.328 100.796 87.3273 100.436 87.3264C99.682 87.3254 98.9278 87.3269 98.1736 87.3302C97.2065 87.3342 96.2396 87.3319 95.2725 87.3277C94.5293 87.3251 93.7862 87.3259 93.0431 87.3278C92.6865 87.3282 92.3299 87.3277 91.9733 87.326C91.475 87.3242 90.977 87.327 90.4787 87.3309C90.0533 87.3317 90.0533 87.3317 89.6193 87.3326C88.9411 87.3737 88.9411 87.3737 88.4826 87.682Z" fill="white"/>
<path d="M21.7831 86.9937C22.488 87.3719 23.1808 87.7667 23.8724 88.1689C24.1267 88.3142 24.3811 88.4595 24.6431 88.6091C25.4475 89.0699 26.2494 89.5346 27.0511 89.9999C27.5797 90.3048 28.1082 90.6097 28.6368 90.9145C34.2805 94.1818 34.2805 94.1818 34.5511 95.1562C34.7081 96.8049 34.7081 96.8049 34.1587 97.5966C33.573 98.2482 33.0481 98.5982 32.2843 99.0225C32.0197 99.1712 31.7552 99.32 31.4826 99.4733C31.1969 99.631 30.9111 99.7886 30.6253 99.9462C30.1835 100.193 29.7421 100.442 29.3008 100.69C28.9999 100.859 28.6988 101.027 28.3976 101.196C26.8729 102.049 25.3647 102.929 23.8578 103.813C23.3958 104.084 22.9337 104.355 22.4716 104.625C22.2802 104.738 22.0888 104.85 21.8915 104.966C20.9743 105.495 20.3915 105.558 19.3167 105.469C18.4316 105.051 18.0143 104.785 17.6406 103.871C17.2986 102.528 17.375 101.131 17.3795 99.7549C17.379 99.4536 17.3786 99.1523 17.3781 98.8419C17.3774 98.2066 17.3784 97.5713 17.3806 96.936C17.3833 96.1246 17.3818 95.3132 17.3789 94.5018C17.3768 93.7235 17.3783 92.9453 17.3795 92.167C17.3785 91.8769 17.3776 91.5869 17.3766 91.288C17.3781 91.0165 17.3796 90.7451 17.3811 90.4654C17.3815 90.2278 17.3818 89.9903 17.3822 89.7455C17.4721 88.7145 17.6967 87.9114 18.3646 87.1142C19.4695 86.2102 20.5753 86.432 21.7831 86.9937ZM21.1917 91.1718C21.1917 94.3429 21.1917 97.514 21.1917 100.781C23.9406 99.4153 23.9406 99.4153 26.6117 97.9247C26.779 97.8282 26.9464 97.7317 27.1189 97.6322C27.9891 97.12 28.7172 96.623 29.3949 95.8593C29.1535 95.7173 28.9121 95.5753 28.6634 95.429C28.5038 95.3352 28.3443 95.2413 28.18 95.1446C27.8251 94.9359 27.4702 94.7272 27.1152 94.5186C26.1649 93.96 25.2152 93.4002 24.267 92.8381C24.0854 92.7306 23.9038 92.6232 23.7167 92.5125C23.3648 92.3042 23.0131 92.0956 22.6617 91.8865C21.969 91.3945 21.969 91.3945 21.1917 91.1718Z" fill="white"/>
<path d="M101.202 9.49215C101.408 9.48773 101.614 9.48331 101.827 9.47876C103.293 9.49369 103.293 9.49369 104.061 10.0341C104.549 10.7837 104.504 11.3125 104.395 12.1875C103.982 12.934 103.809 13.0858 102.989 13.3593C102.103 13.4143 101.218 13.4488 100.332 13.482C99.4386 13.5982 98.9984 13.7376 98.3012 14.2968C97.6895 15.1545 97.5061 15.766 97.4781 16.8136C97.4698 17.0636 97.4615 17.3136 97.4529 17.5712C97.4477 17.8297 97.4424 18.0882 97.4369 18.3545C97.4289 18.6175 97.4209 18.8805 97.4127 19.1514C97.3934 19.7988 97.3772 20.4462 97.3637 21.0937C97.6066 21.0801 97.8495 21.0665 98.0998 21.0525C98.4208 21.0415 98.7418 21.0309 99.0629 21.0205C99.2227 21.0107 99.3826 21.0008 99.5472 20.9907C100.439 20.9691 100.798 21.0166 101.455 21.6394C101.893 22.3983 101.945 22.8083 101.817 23.6718C101.4 24.4068 101.225 24.5721 100.411 24.8437C99.8883 24.86 99.3656 24.8635 98.8432 24.8584C98.5667 24.8562 98.2903 24.8541 98.0055 24.852C97.6878 24.8479 97.6878 24.8479 97.3637 24.8437C97.3676 25.0468 97.3676 25.0468 97.3716 25.254C97.3975 26.6646 97.4152 28.075 97.4281 29.4857C97.4339 30.012 97.4419 30.5383 97.4521 31.0645C97.4663 31.8215 97.473 32.5782 97.4781 33.3352C97.4872 33.6876 97.4872 33.6876 97.4965 34.0471C97.4969 35.1565 97.4951 35.6835 96.8145 36.5939C96.1918 37.0312 96.1918 37.0312 95.4887 37.1777C94.5056 36.9729 94.2158 36.6648 93.6137 35.8593C93.452 35.0165 93.4772 34.1907 93.4992 33.3352C93.5009 33.0924 93.5026 32.8495 93.5043 32.5993C93.5108 31.8255 93.5255 31.052 93.5404 30.2783C93.5463 29.7529 93.5517 29.2276 93.5565 28.7022C93.5694 27.4159 93.589 26.1298 93.6137 24.8437C93.3295 24.8559 93.3295 24.8559 93.0396 24.8684C92.7892 24.8748 92.5387 24.8811 92.2807 24.8877C91.9095 24.8999 91.9095 24.8999 91.5309 24.9124C90.7096 24.8351 90.2863 24.6295 89.6293 24.1406C89.267 23.416 89.3261 22.8294 89.3949 22.0312C89.7621 21.513 89.7621 21.513 90.3324 21.0937C91.1418 21.0022 91.1418 21.0022 92.0317 21.0351C92.3277 21.0436 92.6238 21.052 92.9289 21.0608C93.1549 21.0716 93.3808 21.0825 93.6137 21.0937C93.61 20.9202 93.6063 20.7466 93.6025 20.5678C93.5878 19.7714 93.5787 18.9751 93.5697 18.1787C93.5638 17.9057 93.558 17.6327 93.5519 17.3515C93.5294 14.6878 93.9559 12.9899 95.8439 11.0568C97.4731 9.62997 99.107 9.52694 101.202 9.49215Z" fill="white"/>
<path d="M99.3594 91.1508C100.895 92.0622 101.913 93.3451 102.416 95.0564C102.693 96.5786 102.418 98.0689 101.667 99.417C100.788 100.591 99.4999 101.426 98.0667 101.719C96.4715 101.913 95.2247 101.609 93.8479 100.781C93.1741 100.195 93.1741 100.195 92.6761 99.6093C92.5456 99.4643 92.415 99.3193 92.2806 99.1699C91.3564 97.6737 91.3658 96.1352 91.7386 94.4531C92.3616 92.9801 93.4046 91.852 94.8468 91.1471C96.2465 90.6898 97.9684 90.6475 99.3594 91.1508ZM95.7522 94.9658C95.4128 95.5127 95.3012 95.9197 95.2542 96.5624C95.4478 97.1784 95.6251 97.4291 96.1477 97.8075C96.8094 98.0155 97.1773 97.9526 97.8323 97.7343C98.3598 97.3576 98.5166 97.079 98.7552 96.4745C98.8211 95.8253 98.8211 95.8253 98.4183 95.2001C97.8551 94.6129 97.8551 94.6129 96.9974 94.5702C96.2205 94.6273 96.2205 94.6273 95.7522 94.9658Z" fill="white"/>
</g>
<defs>
<clipPath id="clip0_145_67">
<rect width="120" height="120" fill="white" transform="translate(0.332031)"/>
</clipPath>
</defs>
</svg>
