<svg width="24" height="24" viewBox="0 0 24 24" fill="none" xmlns="http://www.w3.org/2000/svg">
<g clip-path="url(#clip0_222_3244)">
<path d="M13.5 6.00012H10.5V3.00012H12V4.50012H13.5V6.00012ZM19.5 18.0939C19.8281 18.1798 20.1289 18.3165 20.4023 18.504C20.6758 18.6915 20.9102 18.9142 21.1055 19.172C21.3008 19.4298 21.457 19.715 21.5742 20.0275C21.6914 20.34 21.75 20.6642 21.75 21.0001C21.75 21.4142 21.6719 21.8009 21.5156 22.1603C21.3594 22.5197 21.1445 22.84 20.8711 23.1212C20.5977 23.4025 20.2812 23.6173 19.9219 23.7657C19.5625 23.9142 19.1719 23.9923 18.75 24.0001C18.3359 24.0001 17.9492 23.922 17.5898 23.7657C17.2305 23.6095 16.9102 23.3947 16.6289 23.1212C16.3477 22.8478 16.1328 22.5314 15.9844 22.172C15.8359 21.8126 15.7578 21.422 15.75 21.0001C15.75 20.6642 15.8047 20.34 15.9141 20.0275C16.0234 19.715 16.1758 19.4298 16.3711 19.172C16.5664 18.9142 16.8047 18.6915 17.0859 18.504C17.3672 18.3165 17.6719 18.1798 18 18.0939V15.0001H12V18.0939C12.3281 18.1798 12.6289 18.3165 12.9023 18.504C13.1758 18.6915 13.4102 18.9142 13.6055 19.172C13.8008 19.4298 13.957 19.715 14.0742 20.0275C14.1914 20.34 14.25 20.6642 14.25 21.0001C14.25 21.4142 14.1719 21.8009 14.0156 22.1603C13.8594 22.5197 13.6445 22.84 13.3711 23.1212C13.0977 23.4025 12.7812 23.6173 12.4219 23.7657C12.0625 23.9142 11.6719 23.9923 11.25 24.0001C10.8359 24.0001 10.4492 23.922 10.0898 23.7657C9.73047 23.6095 9.41016 23.3947 9.12891 23.1212C8.84766 22.8478 8.63281 22.5314 8.48438 22.172C8.33594 21.8126 8.25781 21.422 8.25 21.0001C8.25 20.6642 8.30469 20.34 8.41406 20.0275C8.52344 19.715 8.67578 19.4298 8.87109 19.172C9.06641 18.9142 9.30469 18.6915 9.58594 18.504C9.86719 18.3165 10.1719 18.1798 10.5 18.0939V15.0001H4.5V18.0939C4.82812 18.1798 5.12891 18.3165 5.40234 18.504C5.67578 18.6915 5.91016 18.9142 6.10547 19.172C6.30078 19.4298 6.45703 19.715 6.57422 20.0275C6.69141 20.34 6.75 20.6642 6.75 21.0001C6.75 21.4142 6.67187 21.8009 6.51562 22.1603C6.35938 22.5197 6.14453 22.84 5.87109 23.1212C5.59766 23.4025 5.28125 23.6173 4.92188 23.7657C4.5625 23.9142 4.17188 23.9923 3.75 24.0001C3.33594 24.0001 2.94922 23.922 2.58984 23.7657C2.23047 23.6095 1.91016 23.3947 1.62891 23.1212C1.34766 22.8478 1.13281 22.5314 0.984375 22.172C0.835937 21.8126 0.757813 21.422 0.75 21.0001C0.75 20.6642 0.804688 20.34 0.914062 20.0275C1.02344 19.715 1.17578 19.4298 1.37109 19.172C1.56641 18.9142 1.80469 18.6915 2.08594 18.504C2.36719 18.3165 2.67188 18.1798 3 18.0939V13.5001H10.5V10.4415C9.85156 10.3556 9.25391 10.1603 8.70703 9.85559C8.16016 9.5509 7.68359 9.16418 7.27734 8.69543C6.87109 8.22668 6.55859 7.69934 6.33984 7.1134C6.12109 6.52747 6.00781 5.90637 6 5.25012C6 4.52356 6.13672 3.84387 6.41016 3.21106C6.68359 2.57825 7.05859 2.01965 7.53516 1.53528C8.01172 1.0509 8.56641 0.675903 9.19922 0.410278C9.83203 0.144653 10.5156 0.00793457 11.25 0.00012207C11.9766 0.00012207 12.6562 0.136841 13.2891 0.410278C13.9219 0.683716 14.4805 1.05872 14.9648 1.53528C15.4492 2.01184 15.8242 2.56653 16.0898 3.19934C16.3555 3.83215 16.4922 4.51575 16.5 5.25012C16.5 5.89856 16.3867 6.51575 16.1602 7.10168C15.9336 7.68762 15.6211 8.21497 15.2227 8.68372C14.8242 9.15247 14.3516 9.53918 13.8047 9.84387C13.2578 10.1486 12.6562 10.3478 12 10.4415V13.5001H19.5V18.0939ZM7.5 5.25012C7.5 5.76575 7.59766 6.25012 7.79297 6.70325C7.98828 7.15637 8.25391 7.55481 8.58984 7.89856C8.92578 8.24231 9.32422 8.51184 9.78516 8.70715C10.2461 8.90247 10.7344 9.00012 11.25 9.00012C11.7656 9.00012 12.25 8.90247 12.7031 8.70715C13.1563 8.51184 13.5508 8.24622 13.8867 7.91028C14.2227 7.57434 14.4922 7.1759 14.6953 6.71497C14.8984 6.25403 15 5.76575 15 5.25012C15 4.7345 14.9023 4.25012 14.707 3.797C14.5117 3.34387 14.2422 2.94934 13.8984 2.6134C13.5547 2.27747 13.1563 2.00793 12.7031 1.80481C12.25 1.60168 11.7656 1.50012 11.25 1.50012C10.7344 1.50012 10.25 1.59778 9.79688 1.79309C9.34375 1.9884 8.94531 2.25793 8.60156 2.60168C8.25781 2.94543 7.98828 3.34387 7.79297 3.797C7.59766 4.25012 7.5 4.7345 7.5 5.25012ZM5.25 21.0001C5.25 20.7892 5.21094 20.5939 5.13281 20.4142C5.05469 20.2345 4.94922 20.0782 4.81641 19.9454C4.68359 19.8126 4.52344 19.7032 4.33594 19.6173C4.14844 19.5314 3.95313 19.4923 3.75 19.5001C3.53906 19.5001 3.34375 19.5392 3.16406 19.6173C2.98438 19.6954 2.82812 19.8009 2.69531 19.9337C2.5625 20.0665 2.45313 20.2267 2.36719 20.4142C2.28125 20.6017 2.24219 20.797 2.25 21.0001C2.25 21.2111 2.28906 21.4064 2.36719 21.5861C2.44531 21.7657 2.55078 21.922 2.68359 22.0548C2.81641 22.1876 2.97656 22.297 3.16406 22.3829C3.35156 22.4689 3.54687 22.5079 3.75 22.5001C3.96094 22.5001 4.15625 22.4611 4.33594 22.3829C4.51562 22.3048 4.67188 22.1993 4.80469 22.0665C4.9375 21.9337 5.04687 21.7736 5.13281 21.5861C5.21875 21.3986 5.25781 21.2032 5.25 21.0001ZM12.75 21.0001C12.75 20.7892 12.7109 20.5939 12.6328 20.4142C12.5547 20.2345 12.4492 20.0782 12.3164 19.9454C12.1836 19.8126 12.0234 19.7032 11.8359 19.6173C11.6484 19.5314 11.4531 19.4923 11.25 19.5001C11.0391 19.5001 10.8437 19.5392 10.6641 19.6173C10.4844 19.6954 10.3281 19.8009 10.1953 19.9337C10.0625 20.0665 9.95313 20.2267 9.86719 20.4142C9.78125 20.6017 9.74219 20.797 9.75 21.0001C9.75 21.2111 9.78906 21.4064 9.86719 21.5861C9.94531 21.7657 10.0508 21.922 10.1836 22.0548C10.3164 22.1876 10.4766 22.297 10.6641 22.3829C10.8516 22.4689 11.0469 22.5079 11.25 22.5001C11.4609 22.5001 11.6563 22.4611 11.8359 22.3829C12.0156 22.3048 12.1719 22.1993 12.3047 22.0665C12.4375 21.9337 12.5469 21.7736 12.6328 21.5861C12.7188 21.3986 12.7578 21.2032 12.75 21.0001ZM18.75 22.5001C18.9609 22.5001 19.1563 22.4611 19.3359 22.3829C19.5156 22.3048 19.6719 22.1993 19.8047 22.0665C19.9375 21.9337 20.0469 21.7736 20.1328 21.5861C20.2188 21.3986 20.2578 21.2032 20.25 21.0001C20.25 20.7892 20.2109 20.5939 20.1328 20.4142C20.0547 20.2345 19.9492 20.0782 19.8164 19.9454C19.6836 19.8126 19.5234 19.7032 19.3359 19.6173C19.1484 19.5314 18.9531 19.4923 18.75 19.5001C18.5391 19.5001 18.3437 19.5392 18.1641 19.6173C17.9844 19.6954 17.8281 19.8009 17.6953 19.9337C17.5625 20.0665 17.4531 20.2267 17.3672 20.4142C17.2812 20.6017 17.2422 20.797 17.25 21.0001C17.25 21.2111 17.2891 21.4064 17.3672 21.5861C17.4453 21.7657 17.5508 21.922 17.6836 22.0548C17.8164 22.1876 17.9766 22.297 18.1641 22.3829C18.3516 22.4689 18.5469 22.5079 18.75 22.5001Z" fill="#4F4F4F"/>
</g>
<defs>
<clipPath id="clip0_222_3244">
<rect width="24" height="24" fill="white"/>
</clipPath>
</defs>
</svg>
