<svg width="51" height="50" viewBox="0 0 51 50" fill="none" xmlns="http://www.w3.org/2000/svg">
<g clip-path="url(#clip0_82_36)">
<path d="M30.4981 5.01551C30.2562 3.9715 29.6533 3.04649 28.7957 2.40373C27.9382 1.76096 26.8812 1.44175 25.8112 1.50241C24.7413 1.56308 23.7271 1.99972 22.9478 2.73529C22.1684 3.47087 21.6739 4.45809 21.5515 5.52276C21.4291 6.58743 21.6867 7.66111 22.2789 8.55433C22.871 9.44756 23.7596 10.1029 24.7879 10.4048C25.8162 10.7066 26.9181 10.6356 27.8991 10.2041C28.8801 9.77272 29.6772 9.00864 30.1497 8.04676C33.0262 8.70178 35.7001 10.0467 37.941 11.9655C40.1818 13.8843 41.9223 16.3194 43.0122 19.0608L45.7856 17.9702C44.5018 14.7186 42.4345 11.8346 39.7674 9.57457C37.1004 7.31452 33.9163 5.74842 30.4981 5.01551ZM26.0888 7.57488C25.8857 7.5814 25.6835 7.54705 25.494 7.47386C25.3045 7.40066 25.1316 7.29013 24.9857 7.14882C24.8398 7.0075 24.7238 6.8383 24.6445 6.65127C24.5653 6.46423 24.5245 6.26317 24.5245 6.06004C24.5245 5.85691 24.5653 5.65585 24.6445 5.46881C24.7238 5.28178 24.8398 5.11257 24.9857 4.97126C25.1316 4.82995 25.3045 4.71942 25.494 4.64622C25.6835 4.57303 25.8857 4.53867 26.0888 4.5452C26.4907 4.5452 26.8762 4.70488 27.1605 4.98911C27.4447 5.27335 27.6044 5.65885 27.6044 6.06082C27.6044 6.46279 27.4447 6.84829 27.1605 7.13253C26.8762 7.41676 26.4907 7.57488 26.0888 7.57488ZM19.4216 8.83426L18.3013 6.06238C15.0497 7.34622 12.1657 9.41354 9.90563 12.0806C7.64557 14.7476 6.07948 17.9317 5.34656 21.3499C4.30255 21.5918 3.37755 22.1947 2.73478 23.0523C2.09202 23.9098 1.7728 24.9668 1.83347 26.0368C1.89413 27.1067 2.33077 28.1209 3.06635 28.9002C3.80192 29.6796 4.78915 30.1741 5.85381 30.2965C6.91848 30.4189 7.99216 30.1613 8.88539 29.5691C9.77862 28.977 10.434 28.0884 10.7358 27.0601C11.0377 26.0318 10.9666 24.9299 10.5352 23.9489C10.1038 22.9679 9.3397 22.1708 8.37781 21.6983C9.03553 18.8184 10.3848 16.1421 12.309 13.9007C14.2332 11.6593 16.6745 9.9204 19.4216 8.83426ZM6.39031 27.2749C6.19128 27.2749 5.99419 27.2357 5.81031 27.1595C5.62642 27.0833 5.45934 26.9717 5.3186 26.831C5.17787 26.6902 5.06623 26.5231 4.99006 26.3393C4.91389 26.1554 4.87469 25.9583 4.87469 25.7593C4.87469 25.5602 4.91389 25.3631 4.99006 25.1793C5.06623 24.9954 5.17787 24.8283 5.3186 24.6875C5.45934 24.5468 5.62642 24.4352 5.81031 24.359C5.99419 24.2828 6.19128 24.2436 6.39031 24.2436C6.79228 24.2436 7.17779 24.4033 7.46202 24.6875C7.74626 24.9718 7.90594 25.3573 7.90594 25.7593C7.90594 26.1612 7.74626 26.5467 7.46202 26.831C7.17779 27.1152 6.79228 27.2749 6.39031 27.2749ZM26.0888 40.9108C25.2435 40.9136 24.4157 41.1519 23.6984 41.599C22.981 42.0461 22.4025 42.6844 22.0278 43.4421C19.1509 42.7871 16.4765 41.4421 14.2354 39.523C11.9942 37.6039 10.2536 35.1683 9.16375 32.4264L6.39188 33.5468C7.67989 36.8038 9.75413 39.6914 12.4295 41.9518C15.1049 44.2123 18.2983 45.7753 21.7247 46.5014C21.9215 47.3356 22.3501 48.0972 22.961 48.6983C23.5719 49.2994 24.3403 49.7156 25.1776 49.8989C26.0148 50.0823 26.8868 50.0252 27.693 49.7343C28.4992 49.4435 29.2068 48.9307 29.7342 48.2551C30.2616 47.5795 30.5873 46.7686 30.6737 45.9159C30.7602 45.0632 30.6039 44.2034 30.2228 43.4357C29.8417 42.668 29.2514 42.0236 28.52 41.5769C27.7886 41.1302 26.9457 40.8993 26.0888 40.9108ZM26.0888 46.9718C25.6868 46.9718 25.3013 46.8121 25.017 46.5278C24.7328 46.2436 24.5731 45.8581 24.5731 45.4561C24.5731 45.0542 24.7328 44.6687 25.017 44.3844C25.3013 44.1002 25.6868 43.9405 26.0888 43.9405C26.4907 43.9405 26.8762 44.1002 27.1605 44.3844C27.4447 44.6687 27.6044 45.0542 27.6044 45.4561C27.6044 45.8581 27.4447 46.2436 27.1605 46.5278C26.8762 46.8121 26.4907 46.9718 26.0888 46.9718ZM50.3309 25.7577C50.3337 24.9464 50.1194 24.1492 49.7102 23.4487C49.3009 22.7482 48.7118 22.1699 48.0037 21.7739C47.2957 21.3778 46.4946 21.1785 45.6835 21.1964C44.8724 21.2144 44.0809 21.449 43.3911 21.876C42.7012 22.3029 42.1382 22.9067 41.7604 23.6246C41.3826 24.3426 41.2037 25.1485 41.2424 25.9588C41.281 26.7692 41.5358 27.5545 41.9803 28.2332C42.4247 28.9118 43.0427 29.4593 43.77 29.8186C43.1148 32.6953 41.7697 35.3694 39.8506 37.6102C37.9315 39.8511 35.4961 41.5914 32.7544 42.6811L33.8763 45.4546C37.1333 44.1666 40.0209 42.0923 42.2813 39.4169C44.5418 36.7415 46.1048 33.5481 46.8309 30.1218C47.8173 29.8885 48.6974 29.3324 49.3315 28.5417C49.9656 27.751 50.3174 26.7711 50.3309 25.7577ZM45.7841 27.2733C45.3821 27.2733 44.9966 27.1136 44.7124 26.8294C44.4281 26.5452 44.2684 26.1597 44.2684 25.7577C44.2684 25.3557 44.4281 24.9702 44.7124 24.686C44.9966 24.4018 45.3821 24.2421 45.7841 24.2421C46.186 24.2421 46.5715 24.4018 46.8558 24.686C47.14 24.9702 47.2997 25.3557 47.2997 25.7577C47.2997 26.1597 47.14 26.5452 46.8558 26.8294C46.5715 27.1136 46.186 27.2733 45.7841 27.2733Z" fill="white"/>
<path d="M30.3158 25.5468C31.1779 24.7051 31.7695 23.6254 32.0151 22.4458C32.2607 21.2663 32.1492 20.0402 31.6947 18.9243C31.2403 17.8084 30.4635 16.8533 29.4637 16.1809C28.4639 15.5085 27.2863 15.1494 26.0814 15.1494C24.8766 15.1494 23.699 15.5085 22.6992 16.1809C21.6993 16.8533 20.9226 17.8084 20.4682 18.9243C20.0137 20.0402 19.9022 21.2663 20.1478 22.4458C20.3934 23.6254 20.985 24.7051 21.8471 25.5468C20.8212 26.2403 19.9808 27.1745 19.3995 28.2679C18.8183 29.3613 18.5138 30.5804 18.5127 31.8187V34.8484H33.6643V31.8171C33.6616 30.5776 33.355 29.3576 32.7712 28.2642C32.1874 27.1707 31.3443 26.2387 30.3158 25.5468ZM23.058 21.2109C23.058 20.8128 23.1364 20.4186 23.2887 20.0509C23.4411 19.6831 23.6644 19.349 23.9458 19.0675C24.2273 18.786 24.5615 18.5627 24.9292 18.4104C25.297 18.258 25.6912 18.1796 26.0893 18.1796C26.4873 18.1796 26.8815 18.258 27.2493 18.4104C27.617 18.5627 27.9512 18.786 28.2327 19.0675C28.5142 19.349 28.7374 19.6831 28.8898 20.0509C29.0421 20.4186 29.1205 20.8128 29.1205 21.2109C29.1205 22.0148 28.8011 22.7858 28.2327 23.3543C27.6642 23.9228 26.8932 24.2421 26.0893 24.2421C25.2853 24.2421 24.5143 23.9228 23.9458 23.3543C23.3774 22.7858 23.058 22.0148 23.058 21.2109ZM21.5424 31.8171C21.5312 31.213 21.6405 30.6128 21.8639 30.0514C22.0874 29.49 22.4204 28.9788 22.8437 28.5477C23.2669 28.1165 23.7719 27.774 24.329 27.5402C24.8861 27.3064 25.4843 27.186 26.0885 27.186C26.6927 27.186 27.2908 27.3064 27.8479 27.5402C28.4051 27.774 28.91 28.1165 29.3333 28.5477C29.7565 28.9788 30.0896 29.49 30.313 30.0514C30.5365 30.6128 30.6458 31.213 30.6346 31.8171H21.5424Z" fill="white"/>
</g>
<defs>
<clipPath id="clip0_82_36">
<rect width="50" height="50" fill="white" transform="translate(0.330566)"/>
</clipPath>
</defs>
</svg>
