<svg width="17" height="16" viewBox="0 0 17 16" fill="none" xmlns="http://www.w3.org/2000/svg">
<g id="Group 14203">
<path id="Vector" d="M8.01928 4.34168C8.04538 4.34795 8.07149 4.35421 8.09839 4.36066C8.89069 4.554 9.6082 4.90372 10.2222 5.44317C10.2491 5.46605 10.2759 5.48894 10.3035 5.51252C11.3207 6.39902 11.9206 7.65866 12.0232 9.00053C12.1104 10.3685 11.6717 11.6977 10.773 12.7324C10.7493 12.7601 10.7256 12.7877 10.7012 12.8162C10.0547 13.5548 9.07645 14.2017 8.08407 14.3198C7.98353 14.3242 7.88315 14.3241 7.78253 14.3237C7.75284 14.3238 7.72314 14.3238 7.69255 14.3238C7.59341 14.3239 7.49428 14.3237 7.39514 14.3235C7.32393 14.3235 7.25272 14.3235 7.18151 14.3235C6.98843 14.3235 6.79534 14.3234 6.60225 14.3231C6.40037 14.3229 6.1985 14.3229 5.99663 14.3229C5.65787 14.3228 5.3191 14.3226 4.98034 14.3223C4.63149 14.322 4.28263 14.3218 3.93378 14.3216C3.9015 14.3216 3.9015 14.3216 3.86857 14.3216C3.76061 14.3216 3.65264 14.3215 3.54468 14.3215C2.64966 14.3211 1.75464 14.3206 0.859619 14.3198C0.859619 13.9136 0.859619 13.5073 0.859619 13.0888C1.05088 13.0881 1.24214 13.0875 1.4392 13.0868C2.07229 13.0847 2.70537 13.0821 3.33846 13.0795C3.72217 13.0778 4.10587 13.0763 4.48958 13.0751C4.82424 13.074 5.1589 13.0727 5.49357 13.0712C5.67056 13.0704 5.84756 13.0697 6.02455 13.0692C6.1916 13.0688 6.35864 13.0681 6.52568 13.0672C6.58656 13.0669 6.64744 13.0667 6.70831 13.0666C7.92014 13.065 8.98057 12.7912 9.86588 11.9225C10.5622 11.2115 10.8786 10.2436 10.8805 9.2651C10.8768 8.9295 10.8272 8.61761 10.7406 8.29407C10.735 8.27265 10.7295 8.25124 10.7238 8.22917C10.5845 7.70878 10.3095 7.21415 9.96307 6.80383C9.93618 6.77167 9.90929 6.73951 9.88158 6.70638C9.31892 6.05377 8.53225 5.62659 7.69531 5.44317C7.6634 5.43586 7.6315 5.42855 7.59863 5.42102C6.59664 5.22884 5.52947 5.47133 4.68204 6.02529C4.47351 6.17188 4.2844 6.33739 4.09928 6.51226C4.07498 6.53447 4.05067 6.55669 4.02563 6.57958C3.33203 7.23668 2.93004 8.23851 2.89782 9.18586C2.8916 9.32797 2.8916 9.32797 2.933 9.46035C3.01915 9.48907 3.07816 9.49858 3.16725 9.503C3.19324 9.50435 3.21924 9.50571 3.24602 9.50711C3.27302 9.50838 3.30002 9.50966 3.32784 9.51097C3.35521 9.51237 3.38259 9.51377 3.41079 9.51521C3.4783 9.51864 3.54582 9.52191 3.61333 9.52514C3.51758 9.70034 3.40948 9.86039 3.29139 10.0212C3.25381 10.0728 3.21622 10.1245 3.17864 10.1761C3.14986 10.2155 3.14986 10.2155 3.1205 10.2557C3.02798 10.3825 2.93591 10.5096 2.84391 10.6368C2.82649 10.6608 2.80906 10.6848 2.79111 10.7095C2.7101 10.8216 2.63007 10.934 2.55247 11.0484C2.53225 11.0782 2.53225 11.0782 2.51163 11.1086C2.47592 11.1615 2.44053 11.2146 2.40517 11.2677C2.38692 11.2914 2.36867 11.315 2.34986 11.3394C2.32848 11.3394 2.3071 11.3394 2.28507 11.3394C2.24522 11.2911 2.24522 11.2911 2.20028 11.2229C2.18349 11.1978 2.1667 11.1727 2.1494 11.1469C2.13136 11.1195 2.11333 11.0922 2.09474 11.064C1.95714 10.8589 1.81718 10.6571 1.66751 10.4606C1.52867 10.2778 1.39315 10.0931 1.26053 9.9058C1.24403 9.88262 1.22753 9.85944 1.21053 9.83555C1.19521 9.8138 1.17989 9.79205 1.1641 9.76964C1.14389 9.74099 1.14389 9.74099 1.12327 9.71177C1.08431 9.65151 1.05253 9.58984 1.0216 9.52514C1.06257 9.52318 1.10354 9.52122 1.14575 9.5192C1.19953 9.51646 1.25331 9.51372 1.3071 9.51097C1.3341 9.5097 1.3611 9.50842 1.38891 9.50711C1.42791 9.50507 1.42791 9.50507 1.46769 9.503C1.49161 9.50181 1.51553 9.50062 1.54018 9.4994C1.61146 9.49442 1.61146 9.49442 1.70193 9.46035C1.74063 9.38296 1.74186 9.32717 1.74711 9.24079C1.83085 7.99995 2.21305 6.91179 3.03019 5.96151C3.04982 5.93792 3.06945 5.91432 3.08967 5.89001C3.21995 5.73586 3.36138 5.60472 3.51614 5.47556C3.55335 5.44268 3.55335 5.44268 3.59131 5.40913C4.76578 4.39808 6.50943 3.95876 8.01928 4.34168Z" fill="#2F80ED" stroke="#2F80ED" stroke-width="0.5"/>
<path id="Vector_2" d="M13.6329 1.90356C14.4302 2.59868 14.8598 3.5452 14.943 4.5926C14.9457 4.64873 14.9484 4.70486 14.9511 4.76269C15.1329 4.77338 15.3146 4.78407 15.5019 4.79508C15.473 4.91056 15.4559 4.95375 15.389 5.04438C15.3722 5.0673 15.3555 5.09022 15.3382 5.11383C15.3201 5.13827 15.3019 5.16271 15.2832 5.18789C15.2449 5.24011 15.2067 5.29233 15.1684 5.34456C15.1486 5.3714 15.1289 5.39824 15.1085 5.4259C15.0115 5.55797 14.9155 5.69082 14.8195 5.82368C14.8022 5.84757 14.7848 5.87146 14.767 5.89608C14.6743 6.02409 14.5842 6.15316 14.4976 6.28533C14.3985 6.24253 14.3456 6.2033 14.2851 6.11423C14.2701 6.09257 14.2552 6.07092 14.2397 6.0486C14.2239 6.02516 14.2081 6.00171 14.1918 5.97756C14.1575 5.92768 14.123 5.87782 14.0886 5.82798C14.0707 5.80205 14.0529 5.77613 14.0345 5.74942C13.943 5.61762 13.8487 5.48783 13.7545 5.35797C13.7045 5.28899 13.6545 5.21999 13.6047 5.15091C13.5733 5.10764 13.5417 5.06456 13.5098 5.02164C13.3961 4.86685 13.3961 4.86685 13.3961 4.79508C13.4331 4.79312 13.4702 4.79116 13.5083 4.78913C13.5566 4.7864 13.6049 4.78366 13.6532 4.78091C13.6777 4.77963 13.7021 4.77836 13.7273 4.77705C13.847 4.78082 13.847 4.78082 13.9468 4.73029C14.0259 4.17027 13.7333 3.52194 13.4157 3.08565C12.9256 2.462 12.2436 2.0715 11.4523 1.97657C10.619 1.92402 9.8821 2.17093 9.24932 2.7217C9.22007 2.74632 9.22007 2.74632 9.19023 2.77143C8.78942 3.13674 8.59178 3.65209 8.40701 4.14715C8.38857 4.14339 8.37013 4.13964 8.35113 4.13577C8.26651 4.11857 8.18186 4.10148 8.09722 4.08438C8.06822 4.07847 8.03921 4.07256 8.00933 4.06647C7.85068 4.03451 7.69279 4.00608 7.5323 3.98517C7.48655 3.8398 7.52897 3.73004 7.57685 3.59033C7.58561 3.56464 7.59437 3.53895 7.60339 3.51248C7.76481 3.05841 8.00262 2.6694 8.30982 2.30054C8.32782 2.27799 8.34582 2.25544 8.36436 2.2322C8.92531 1.54508 9.84467 1.11729 10.7145 1.01379C11.7914 0.933524 12.7984 1.20031 13.6329 1.90356Z" fill="#2F80ED" stroke="#2F80ED" stroke-width="0.5"/>
<path id="Vector_3" d="M14.0759 12.4082C14.2511 12.504 14.4112 12.6121 14.572 12.7301C14.6236 12.7677 14.6752 12.8053 14.7269 12.8429C14.7663 12.8717 14.7663 12.8717 14.8065 12.901C14.9332 12.9936 15.0603 13.0856 15.1875 13.1776C15.2235 13.2038 15.2235 13.2038 15.2603 13.2304C15.3723 13.3114 15.4848 13.3915 15.5992 13.4691C15.6289 13.4893 15.6289 13.4893 15.6593 13.5099C15.7122 13.5456 15.7653 13.581 15.8185 13.6164C15.8421 13.6346 15.8658 13.6529 15.8901 13.6717C15.8901 13.6931 15.8901 13.7144 15.8901 13.7365C15.8418 13.7763 15.8418 13.7763 15.7737 13.8213C15.736 13.8464 15.736 13.8464 15.6976 13.8721C15.6703 13.8902 15.6429 13.9082 15.6147 13.9268C15.4108 14.0636 15.2104 14.2028 15.0154 14.352C14.8209 14.5003 14.6221 14.6413 14.4201 14.7792C14.3933 14.7975 14.3665 14.8159 14.3389 14.8347C14.1501 14.9628 14.1501 14.9628 14.0759 14.9999C14.0739 14.9636 14.072 14.9274 14.07 14.89C14.0672 14.8423 14.0645 14.7945 14.0617 14.7468C14.0605 14.7229 14.0592 14.699 14.0579 14.6744C14.0518 14.5713 14.0439 14.4828 14.0111 14.3844C13.9235 14.3406 13.8547 14.3475 13.7565 14.3469C13.6958 14.3464 13.6958 14.3464 13.634 14.3459C13.5889 14.3457 13.5439 14.3455 13.4988 14.3453C13.4516 14.345 13.4043 14.3447 13.3571 14.3444C13.2286 14.3435 13.1001 14.3428 12.9716 14.3422C12.8373 14.3415 12.7031 14.3406 12.5689 14.3397C12.3147 14.3381 12.0604 14.3366 11.8062 14.3352C11.5168 14.3336 11.2273 14.3319 10.9379 14.3301C10.3425 14.3264 9.74705 14.3229 9.15161 14.3196C9.20197 14.2189 9.28796 14.2008 9.38851 14.1536C9.70233 14.0011 9.9813 13.8073 10.2571 13.5947C10.2746 13.5815 10.292 13.5682 10.3099 13.5545C10.3273 13.5408 10.3447 13.5271 10.3627 13.513C10.3805 13.499 10.3984 13.485 10.4168 13.4705C10.4835 13.413 10.4835 13.413 10.5373 13.3331C10.6587 13.1777 10.7564 13.0865 10.9524 13.0589C11.139 13.0443 11.3254 13.0479 11.5124 13.0509C11.5814 13.0509 11.6505 13.0507 11.7195 13.0504C11.9004 13.0499 12.0812 13.0513 12.2621 13.0532C12.4466 13.0547 12.6311 13.0547 12.8157 13.0547C13.0228 13.0547 13.2299 13.0548 13.437 13.0564C13.4841 13.0567 13.4841 13.0567 13.5321 13.057C13.5908 13.0574 13.6494 13.058 13.7081 13.0586C13.8175 13.0593 13.9065 13.0586 14.0111 13.0237C14.0512 12.9035 14.055 12.7868 14.0617 12.6613C14.0638 12.6249 14.0638 12.6249 14.066 12.5877C14.0694 12.5279 14.0727 12.468 14.0759 12.4082Z" fill="#2F80ED" stroke="#2F80ED" stroke-width="0.5"/>
</g>
</svg>
