<svg width="24" height="24" viewBox="0 0 24 24" fill="none" xmlns="http://www.w3.org/2000/svg">
<path d="M14 4H16C17.414 4 18.121 4 18.56 4.44C19 4.878 19 5.585 19 7M10 4H8C6.586 4 5.879 4 5.44 4.44C5 4.878 5 5.585 5 7M10 20H8C6.586 20 5.879 20 5.44 19.56C5 19.122 5 18.415 5 17M14 20H16C17.414 20 18.121 20 18.56 19.56C19 19.121 19 18.414 19 17M10 12H14M13 2H11C10.7348 2 10.4804 2.10536 10.2929 2.29289C10.1054 2.48043 10 2.73478 10 3V5C10 5.26522 10.1054 5.51957 10.2929 5.70711C10.4804 5.89464 10.7348 6 11 6H13C13.2652 6 13.5196 5.89464 13.7071 5.70711C13.8946 5.51957 14 5.26522 14 5V3C14 2.73478 13.8946 2.48043 13.7071 2.29289C13.5196 2.10536 13.2652 2 13 2ZM13 18H11C10.7348 18 10.4804 18.1054 10.2929 18.2929C10.1054 18.4804 10 18.7348 10 19V21C10 21.2652 10.1054 21.5196 10.2929 21.7071C10.4804 21.8946 10.7348 22 11 22H13C13.2652 22 13.5196 21.8946 13.7071 21.7071C13.8946 21.5196 14 21.2652 14 21V19C14 18.7348 13.8946 18.4804 13.7071 18.2929C13.5196 18.1054 13.2652 18 13 18ZM21 13V11C21 10.7348 20.8946 10.4804 20.7071 10.2929C20.5196 10.1054 20.2652 10 20 10H18C17.7348 10 17.4804 10.1054 17.2929 10.2929C17.1054 10.4804 17 10.7348 17 11V13C17 13.2652 17.1054 13.5196 17.2929 13.7071C17.4804 13.8946 17.7348 14 18 14H20C20.2652 14 20.5196 13.8946 20.7071 13.7071C20.8946 13.5196 21 13.2652 21 13ZM7 13V11C7 10.7348 6.89464 10.4804 6.70711 10.2929C6.51957 10.1054 6.26522 10 6 10H4C3.73478 10 3.48043 10.1054 3.29289 10.2929C3.10536 10.4804 3 10.7348 3 11V13C3 13.2652 3.10536 13.5196 3.29289 13.7071C3.48043 13.8946 3.73478 14 4 14H6C6.26522 14 6.51957 13.8946 6.70711 13.7071C6.89464 13.5196 7 13.2652 7 13Z" stroke="white" stroke-width="1.5" stroke-linecap="round" stroke-linejoin="round"/>
</svg>
