<svg width="24" height="24" viewBox="0 0 24 24" fill="none" xmlns="http://www.w3.org/2000/svg">
<path d="M12 13V2L20 6L12 10" stroke="white" stroke-width="2.25" stroke-linecap="round" stroke-linejoin="round"/>
<path d="M20.5612 10.2221C21.0933 11.8623 21.1431 13.6208 20.7046 15.2884C20.2661 16.956 19.3578 18.4626 18.0877 19.6288C16.8177 20.7951 15.2393 21.5719 13.5404 21.867C11.8415 22.162 10.0937 21.9628 8.50473 21.293C6.91581 20.6233 5.55273 19.5112 4.57766 18.089C3.60259 16.6669 3.05658 14.9946 3.00458 13.2711C2.95259 11.5475 3.3968 9.84535 4.28437 8.36702C5.17194 6.88869 6.46551 5.69644 8.01117 4.93213" stroke="white" stroke-width="2.25" stroke-linecap="round" stroke-linejoin="round"/>
<path d="M8.0019 9.99731C7.5008 10.6643 7.17458 11.4461 7.05294 12.2715C6.93131 13.0969 7.01813 13.9395 7.3055 14.7228C7.59287 15.506 8.07165 16.2048 8.69822 16.7557C9.3248 17.3065 10.0792 17.6918 10.8928 17.8765C11.7064 18.0611 12.5533 18.0393 13.3562 17.8129C14.1592 17.5865 14.8928 17.1628 15.4901 16.5804C16.0874 15.998 16.5295 15.2753 16.7761 14.4783C17.0227 13.6813 17.0659 12.8353 16.9019 12.0173" stroke="white" stroke-width="2.25" stroke-linecap="round" stroke-linejoin="round"/>
</svg>
