<svg width="17" height="17" viewBox="0 0 17 17" fill="none" xmlns="http://www.w3.org/2000/svg">
<g id="cil:applications" clip-path="url(#clip0_2707_44690)">
<path id="Vector" d="M3.25 1.79883C2.85444 1.79883 2.46776 1.91613 2.13886 2.13589C1.80996 2.35565 1.55362 2.66801 1.40224 3.03346C1.25087 3.39891 1.21126 3.80105 1.28843 4.18901C1.3656 4.57697 1.55608 4.93334 1.83579 5.21304C2.11549 5.49275 2.47186 5.68323 2.85982 5.7604C3.24778 5.83757 3.64992 5.79796 4.01537 5.64659C4.38082 5.49521 4.69318 5.23887 4.91294 4.90997C5.1327 4.58107 5.25 4.19439 5.25 3.79883C5.24941 3.26858 5.0385 2.76022 4.66356 2.38527C4.28861 2.01033 3.78025 1.79942 3.25 1.79883ZM3.25 4.79883C3.05222 4.79883 2.85888 4.74018 2.69443 4.6303C2.52998 4.52042 2.40181 4.36424 2.32612 4.18151C2.25043 3.99879 2.23063 3.79772 2.26922 3.60374C2.3078 3.40976 2.40304 3.23157 2.54289 3.09172C2.68275 2.95187 2.86093 2.85663 3.05491 2.81804C3.24889 2.77946 3.44996 2.79926 3.63268 2.87495C3.81541 2.95064 3.97159 3.07881 4.08147 3.24326C4.19135 3.40771 4.25 3.60105 4.25 3.79883C4.2497 4.06395 4.14425 4.31814 3.95678 4.50561C3.76931 4.69308 3.51513 4.79853 3.25 4.79883ZM8.5 1.79883C8.10444 1.79883 7.71776 1.91613 7.38886 2.13589C7.05996 2.35565 6.80362 2.66801 6.65224 3.03346C6.50087 3.39891 6.46126 3.80105 6.53843 4.18901C6.6156 4.57697 6.80608 4.93334 7.08579 5.21304C7.36549 5.49275 7.72186 5.68323 8.10982 5.7604C8.49778 5.83757 8.89992 5.79796 9.26537 5.64659C9.63082 5.49521 9.94318 5.23887 10.1629 4.90997C10.3827 4.58107 10.5 4.19439 10.5 3.79883C10.4994 3.26858 10.2885 2.76022 9.91356 2.38527C9.53861 2.01033 9.03025 1.79942 8.5 1.79883ZM8.5 4.79883C8.30222 4.79883 8.10888 4.74018 7.94443 4.6303C7.77998 4.52042 7.65181 4.36424 7.57612 4.18151C7.50043 3.99879 7.48063 3.79772 7.51922 3.60374C7.5578 3.40976 7.65304 3.23157 7.79289 3.09172C7.93275 2.95187 8.11093 2.85663 8.30491 2.81804C8.49889 2.77946 8.69996 2.79926 8.88268 2.87495C9.06541 2.95064 9.22159 3.07881 9.33147 3.24326C9.44135 3.40771 9.5 3.60105 9.5 3.79883C9.4997 4.06395 9.39425 4.31814 9.20678 4.50561C9.01931 4.69308 8.76513 4.79853 8.5 4.79883ZM13.75 5.79883C14.1456 5.79883 14.5322 5.68153 14.8611 5.46177C15.19 5.24201 15.4464 4.92965 15.5978 4.5642C15.7491 4.19874 15.7887 3.79661 15.7116 3.40865C15.6344 3.02069 15.4439 2.66432 15.1642 2.38462C14.8845 2.10491 14.5281 1.91443 14.1402 1.83726C13.7522 1.76009 13.3501 1.79969 12.9846 1.95107C12.6192 2.10245 12.3068 2.35879 12.0871 2.68769C11.8673 3.01659 11.75 3.40327 11.75 3.79883C11.7506 4.32908 11.9615 4.83744 12.3364 5.21238C12.7114 5.58733 13.2198 5.79823 13.75 5.79883ZM13.75 2.79883C13.9478 2.79883 14.1411 2.85748 14.3056 2.96736C14.47 3.07724 14.5982 3.23342 14.6739 3.41615C14.7496 3.59887 14.7694 3.79994 14.7308 3.99392C14.6922 4.1879 14.597 4.36608 14.4571 4.50594C14.3173 4.64579 14.1391 4.74103 13.9451 4.77961C13.7511 4.8182 13.55 4.7984 13.3673 4.72271C13.1846 4.64702 13.0284 4.51885 12.9185 4.3544C12.8087 4.18995 12.75 3.99661 12.75 3.79883C12.7503 3.5337 12.8558 3.27952 13.0432 3.09205C13.2307 2.90458 13.4849 2.79913 13.75 2.79883ZM3.25 6.79883C2.85444 6.79883 2.46776 6.91613 2.13886 7.13589C1.80996 7.35565 1.55362 7.66801 1.40224 8.03346C1.25087 8.39891 1.21126 8.80105 1.28843 9.18901C1.3656 9.57697 1.55608 9.93334 1.83579 10.213C2.11549 10.4927 2.47186 10.6832 2.85982 10.7604C3.24778 10.8376 3.64992 10.798 4.01537 10.6466C4.38082 10.4952 4.69318 10.2389 4.91294 9.90997C5.1327 9.58107 5.25 9.19439 5.25 8.79883C5.24941 8.26858 5.0385 7.76022 4.66356 7.38527C4.28861 7.01033 3.78025 6.79942 3.25 6.79883ZM3.25 9.79883C3.05222 9.79883 2.85888 9.74018 2.69443 9.6303C2.52998 9.52042 2.40181 9.36424 2.32612 9.18151C2.25043 8.99879 2.23063 8.79772 2.26922 8.60374C2.3078 8.40976 2.40304 8.23158 2.54289 8.09172C2.68275 7.95187 2.86093 7.85663 3.05491 7.81804C3.24889 7.77946 3.44996 7.79926 3.63268 7.87495C3.81541 7.95064 3.97159 8.07881 4.08147 8.24326C4.19135 8.40771 4.25 8.60105 4.25 8.79883C4.2497 9.06395 4.14425 9.31813 3.95678 9.50561C3.76931 9.69308 3.51513 9.79853 3.25 9.79883ZM8.5 6.79883C8.10444 6.79883 7.71776 6.91613 7.38886 7.13589C7.05996 7.35565 6.80362 7.66801 6.65224 8.03346C6.50087 8.39891 6.46126 8.80105 6.53843 9.18901C6.6156 9.57697 6.80608 9.93334 7.08579 10.213C7.36549 10.4927 7.72186 10.6832 8.10982 10.7604C8.49778 10.8376 8.89992 10.798 9.26537 10.6466C9.63082 10.4952 9.94318 10.2389 10.1629 9.90997C10.3827 9.58107 10.5 9.19439 10.5 8.79883C10.4994 8.26858 10.2885 7.76022 9.91356 7.38527C9.53861 7.01033 9.03025 6.79942 8.5 6.79883ZM8.5 9.79883C8.30222 9.79883 8.10888 9.74018 7.94443 9.6303C7.77998 9.52042 7.65181 9.36424 7.57612 9.18151C7.50043 8.99879 7.48063 8.79772 7.51922 8.60374C7.5578 8.40976 7.65304 8.23158 7.79289 8.09172C7.93275 7.95187 8.11093 7.85663 8.30491 7.81804C8.49889 7.77946 8.69996 7.79926 8.88268 7.87495C9.06541 7.95064 9.22159 8.07881 9.33147 8.24326C9.44135 8.40771 9.5 8.60105 9.5 8.79883C9.4997 9.06395 9.39425 9.31813 9.20678 9.50561C9.01931 9.69308 8.76513 9.79853 8.5 9.79883ZM13.75 6.79883C13.3544 6.79883 12.9678 6.91613 12.6389 7.13589C12.31 7.35565 12.0536 7.66801 11.9022 8.03346C11.7509 8.39891 11.7113 8.80105 11.7884 9.18901C11.8656 9.57697 12.0561 9.93334 12.3358 10.213C12.6155 10.4927 12.9719 10.6832 13.3598 10.7604C13.7478 10.8376 14.1499 10.798 14.5154 10.6466C14.8808 10.4952 15.1932 10.2389 15.4129 9.90997C15.6327 9.58107 15.75 9.19439 15.75 8.79883C15.7494 8.26858 15.5385 7.76022 15.1636 7.38527C14.7886 7.01033 14.2803 6.79942 13.75 6.79883ZM13.75 9.79883C13.5522 9.79883 13.3589 9.74018 13.1944 9.6303C13.03 9.52042 12.9018 9.36424 12.8261 9.18151C12.7504 8.99879 12.7306 8.79772 12.7692 8.60374C12.8078 8.40976 12.903 8.23158 13.0429 8.09172C13.1827 7.95187 13.3609 7.85663 13.5549 7.81804C13.7489 7.77946 13.95 7.79926 14.1327 7.87495C14.3154 7.95064 14.4716 8.07881 14.5815 8.24326C14.6914 8.40771 14.75 8.60105 14.75 8.79883C14.7497 9.06395 14.6443 9.31813 14.4568 9.50561C14.2693 9.69308 14.0151 9.79853 13.75 9.79883ZM3.25 11.7988C2.85444 11.7988 2.46776 11.9161 2.13886 12.1359C1.80996 12.3557 1.55362 12.668 1.40224 13.0335C1.25087 13.3989 1.21126 13.801 1.28843 14.189C1.3656 14.577 1.55608 14.9333 1.83579 15.213C2.11549 15.4927 2.47186 15.6832 2.85982 15.7604C3.24778 15.8376 3.64992 15.798 4.01537 15.6466C4.38082 15.4952 4.69318 15.2389 4.91294 14.91C5.1327 14.5811 5.25 14.1944 5.25 13.7988C5.24941 13.2686 5.0385 12.7602 4.66356 12.3853C4.28861 12.0103 3.78025 11.7994 3.25 11.7988ZM3.25 14.7988C3.05222 14.7988 2.85888 14.7402 2.69443 14.6303C2.52998 14.5204 2.40181 14.3642 2.32612 14.1815C2.25043 13.9988 2.23063 13.7977 2.26922 13.6037C2.3078 13.4098 2.40304 13.2316 2.54289 13.0917C2.68275 12.9519 2.86093 12.8566 3.05491 12.818C3.24889 12.7795 3.44996 12.7993 3.63268 12.8749C3.81541 12.9506 3.97159 13.0788 4.08147 13.2433C4.19135 13.4077 4.25 13.601 4.25 13.7988C4.2497 14.064 4.14425 14.3181 3.95678 14.5056C3.76931 14.6931 3.51513 14.7985 3.25 14.7988ZM8.5 11.7988C8.10444 11.7988 7.71776 11.9161 7.38886 12.1359C7.05996 12.3557 6.80362 12.668 6.65224 13.0335C6.50087 13.3989 6.46126 13.801 6.53843 14.189C6.6156 14.577 6.80608 14.9333 7.08579 15.213C7.36549 15.4927 7.72186 15.6832 8.10982 15.7604C8.49778 15.8376 8.89992 15.798 9.26537 15.6466C9.63082 15.4952 9.94318 15.2389 10.1629 14.91C10.3827 14.5811 10.5 14.1944 10.5 13.7988C10.4994 13.2686 10.2885 12.7602 9.91356 12.3853C9.53861 12.0103 9.03025 11.7994 8.5 11.7988ZM8.5 14.7988C8.30222 14.7988 8.10888 14.7402 7.94443 14.6303C7.77998 14.5204 7.65181 14.3642 7.57612 14.1815C7.50043 13.9988 7.48063 13.7977 7.51922 13.6037C7.5578 13.4098 7.65304 13.2316 7.79289 13.0917C7.93275 12.9519 8.11093 12.8566 8.30491 12.818C8.49889 12.7795 8.69996 12.7993 8.88268 12.8749C9.06541 12.9506 9.22159 13.0788 9.33147 13.2433C9.44135 13.4077 9.5 13.601 9.5 13.7988C9.4997 14.064 9.39425 14.3181 9.20678 14.5056C9.01931 14.6931 8.76513 14.7985 8.5 14.7988ZM13.75 11.7988C13.3544 11.7988 12.9678 11.9161 12.6389 12.1359C12.31 12.3557 12.0536 12.668 11.9022 13.0335C11.7509 13.3989 11.7113 13.801 11.7884 14.189C11.8656 14.577 12.0561 14.9333 12.3358 15.213C12.6155 15.4927 12.9719 15.6832 13.3598 15.7604C13.7478 15.8376 14.1499 15.798 14.5154 15.6466C14.8808 15.4952 15.1932 15.2389 15.4129 14.91C15.6327 14.5811 15.75 14.1944 15.75 13.7988C15.7494 13.2686 15.5385 12.7602 15.1636 12.3853C14.7886 12.0103 14.2803 11.7994 13.75 11.7988ZM13.75 14.7988C13.5522 14.7988 13.3589 14.7402 13.1944 14.6303C13.03 14.5204 12.9018 14.3642 12.8261 14.1815C12.7504 13.9988 12.7306 13.7977 12.7692 13.6037C12.8078 13.4098 12.903 13.2316 13.0429 13.0917C13.1827 12.9519 13.3609 12.8566 13.5549 12.818C13.7489 12.7795 13.95 12.7993 14.1327 12.8749C14.3154 12.9506 14.4716 13.0788 14.5815 13.2433C14.6914 13.4077 14.75 13.601 14.75 13.7988C14.7497 14.064 14.6443 14.3181 14.4568 14.5056C14.2693 14.6931 14.0151 14.7985 13.75 14.7988Z" fill="#2F80ED" stroke="#2F80ED" stroke-width="0.5"/>
</g>
<defs>
<clipPath id="clip0_2707_44690">
<rect width="16" height="16" fill="white" transform="translate(0.5 0.798828)"/>
</clipPath>
</defs>
</svg>
