<svg width="24" height="24" viewBox="0 0 24 24" fill="none" xmlns="http://www.w3.org/2000/svg">
<path d="M11.9943 1.0137C12.0361 1.01371 12.0778 1.01372 12.1209 1.01373C12.8448 1.01543 13.5399 1.06952 14.2501 1.21878C14.2925 1.22755 14.3349 1.23633 14.3785 1.24537C16.5311 1.70578 16.5311 1.70578 16.9689 2.34378C17.1151 2.6171 17.1581 2.8908 17.0859 3.19247C16.9908 3.48211 16.8271 3.65745 16.5646 3.81155C16.2309 3.96229 15.9261 3.93009 15.5878 3.80391C15.4922 3.76639 15.3967 3.72821 15.3013 3.68997C13.1942 2.85298 10.721 2.8115 8.6222 3.70022C8.48166 3.76186 8.34231 3.82575 8.20325 3.89065C8.17338 3.90424 8.1435 3.91783 8.11273 3.93183C7.4556 4.23208 6.87313 4.63745 6.32825 5.1094C6.28994 5.14197 6.25163 5.17454 6.21216 5.2081C4.41003 6.77852 3.34938 8.98106 3.15833 11.3496C3.01123 13.754 3.74051 16.2255 5.34388 18.0469C5.3843 18.0936 5.42472 18.1402 5.46637 18.1883C5.74397 18.5034 6.04241 18.7745 6.37513 19.0313C6.42129 19.0688 6.46745 19.1063 6.51502 19.145C8.32492 20.6041 10.7423 21.18 13.0284 20.9416C15.1143 20.6983 16.9097 19.8255 18.422 18.375C18.4597 18.3392 18.4597 18.3392 18.4982 18.3027C20.127 16.7499 20.9782 14.5647 21.05 12.3293C21.0521 12.2319 21.0538 12.1346 21.0552 12.0372C21.0561 11.9878 21.0561 11.9878 21.0569 11.9374C21.0592 11.8018 21.0615 11.6663 21.0623 11.5307C21.068 10.7392 21.068 10.7392 21.3442 10.4296C21.5905 10.2 21.8816 10.1517 22.2062 10.16C22.4823 10.1909 22.7277 10.3004 22.922 10.5C23.097 10.7674 23.137 10.9998 23.1328 11.3147C23.1329 11.356 23.133 11.3973 23.1332 11.4398C23.1332 11.5729 23.1317 11.7058 23.13 11.8389C23.1297 11.8843 23.1293 11.9298 23.129 11.9766C23.1238 12.6484 23.1048 13.3088 22.9689 13.9688C22.9545 14.0391 22.9545 14.0391 22.9399 14.1109C22.521 16.1032 21.6334 17.9308 20.2565 19.4363C20.1699 19.532 20.0868 19.6296 20.004 19.7285C19.3746 20.4457 18.581 21.0249 17.7633 21.5084C17.7035 21.5439 17.6439 21.5797 17.5845 21.6159C17.1916 21.8555 16.7864 22.0514 16.3624 22.2305C16.3184 22.2493 16.2743 22.268 16.2289 22.2874C15.5794 22.5542 14.9201 22.7172 14.2273 22.8228C14.1144 22.84 14.0015 22.858 13.8887 22.8761C10.9848 23.337 8.03714 22.7279 5.62513 21.0079C4.80366 20.4109 4.04955 19.7381 3.422 18.9375C3.38496 18.8919 3.34792 18.8463 3.30976 18.7993C1.57398 16.6207 0.797748 13.7818 1.07569 11.0216C1.3285 8.82656 2.14815 6.7953 3.51575 5.06253C3.53632 5.03639 3.5569 5.01026 3.5781 4.98333C4.1301 4.28975 4.76586 3.66001 5.4845 3.14065C5.53447 3.10428 5.58444 3.0679 5.63593 3.03042C7.51554 1.69799 9.69349 1.00862 11.9943 1.0137Z" fill="white"/>
<path d="M22.4268 3.04303C22.7094 3.20847 22.9105 3.43786 23.0156 3.75C23.0314 3.8725 23.0314 3.8725 23.0332 3.99903C23.0345 4.04042 23.0359 4.08181 23.0372 4.12445C22.9744 4.53512 22.7026 4.79294 22.4195 5.07272C22.357 5.13565 22.357 5.13565 22.2932 5.19984C22.1781 5.31566 22.0624 5.43088 21.9466 5.54602C21.8215 5.67052 21.6971 5.79556 21.5725 5.92053C21.3287 6.165 21.0844 6.40897 20.8399 6.65276C20.5551 6.93675 20.2708 7.22121 19.9865 7.50568C19.4792 8.01322 18.9715 8.52029 18.4635 9.02711C17.9707 9.51883 17.4782 10.0109 16.9862 10.5034C16.4502 11.04 15.914 11.5763 15.3774 12.1122C15.3202 12.1694 15.263 12.2265 15.2057 12.2837C15.1776 12.3118 15.1494 12.3399 15.1204 12.3689C14.9221 12.5669 14.724 12.7652 14.5259 12.9635C14.2845 13.2051 14.0428 13.4465 13.8008 13.6875C13.6774 13.8105 13.5541 13.9336 13.4311 14.057C13.2977 14.1907 13.1638 14.3239 13.0299 14.457C12.9717 14.5157 12.9717 14.5157 12.9123 14.5755C12.6308 14.8538 12.4156 15.0198 12.0059 15.0234C11.9248 15.0256 11.9248 15.0256 11.8422 15.0278C11.4803 14.9687 11.22 14.7097 10.969 14.4574C10.9386 14.4274 10.9082 14.3974 10.8769 14.3665C10.7775 14.2682 10.6787 14.1694 10.5798 14.0706C10.5104 14.0015 10.441 13.9324 10.3715 13.8634C10.2265 13.7189 10.0817 13.5742 9.93707 13.4293C9.75224 13.2442 9.56658 13.06 9.38068 12.876C9.23719 12.7337 9.09425 12.5909 8.95145 12.4479C8.88323 12.3798 8.81483 12.3118 8.74624 12.2441C8.65022 12.1491 8.55498 12.0534 8.45988 11.9575C8.43178 11.93 8.40368 11.9025 8.37472 11.8742C8.14179 11.6366 7.96351 11.3534 7.94824 11.0127C7.98222 10.7069 8.06912 10.4348 8.29688 10.2188C8.59944 10.0178 8.87313 9.92443 9.23438 9.98438C9.65403 10.1263 9.93967 10.4245 10.2411 10.7338C10.2908 10.784 10.3406 10.8341 10.3904 10.8842C10.5202 11.0149 10.6494 11.1463 10.7783 11.2779C10.9105 11.4125 11.0434 11.5464 11.1762 11.6804C11.4358 11.9425 11.6947 12.2054 11.9531 12.4688C12.0969 12.4046 12.1953 12.3319 12.3061 12.2205C12.3383 12.1884 12.3704 12.1564 12.4035 12.1233C12.4385 12.088 12.4734 12.0526 12.5094 12.0162C12.5469 11.9787 12.5843 11.9413 12.6228 11.9027C12.7485 11.7766 12.8739 11.6503 12.9993 11.524C13.0892 11.4337 13.1792 11.3435 13.2691 11.2533C13.4631 11.0588 13.6568 10.8641 13.8505 10.6693C14.1308 10.3874 14.4114 10.1059 14.6922 9.82444C15.1481 9.36741 15.6039 8.91023 16.0595 8.45291C16.0868 8.42553 16.114 8.39816 16.1421 8.36996C16.529 7.98164 16.9157 7.59319 17.3023 7.20469C17.3296 7.17734 17.3568 7.15 17.3848 7.12182C17.412 7.09451 17.4392 7.0672 17.4672 7.03906C17.9207 6.58339 18.3746 6.12808 18.8287 5.67307C19.1088 5.39248 19.3885 5.11159 19.6678 4.8303C19.8594 4.63747 20.0513 4.44499 20.2434 4.25277C20.3542 4.14191 20.4648 4.03085 20.5751 3.91948C20.6948 3.79862 20.8151 3.67835 20.9355 3.55821C20.97 3.52308 21.0046 3.48794 21.0401 3.45173C21.4226 3.07296 21.8835 2.83843 22.4268 3.04303Z" fill="white"/>
</svg>
