<svg width="44" height="61" viewBox="0 0 44 61" fill="none" xmlns="http://www.w3.org/2000/svg">
<g clip-path="url(#clip0_6310_35909)">
<path d="M17.1094 60.248C16.3716 60.248 15.6306 60.1008 14.9207 59.7998C12.9577 58.9688 11.5967 57.1024 11.3693 54.9317L11.3284 54.5358L14.4348 40.4204H5.79447C4.19138 40.4204 2.6439 39.6041 1.54954 38.1826C0.447 36.7496 0.0364106 34.9567 0.451907 33.388L0.496074 33.2408L10.3289 3.73233L10.3813 3.61782C11.0765 2.07852 12.3475 0.953082 13.9588 0.44598L14.3122 0.334745L34.2642 0.248047L34.4572 0.279127C36.1372 0.542493 37.6029 1.54034 38.4797 3.02075C39.3483 4.4848 39.52 6.23185 38.9508 7.81368L38.8853 7.97563L31.9053 23.7596H38.7283C39.8865 23.7596 41.3881 24.836 41.4029 24.8458C43.4313 26.3311 44.2344 29.0498 43.3576 31.4577L43.2235 31.8258L42.9814 32.1333C37.3575 39.29 31.3802 46.3649 25.6009 53.2059C24.0698 55.0184 22.5387 56.8308 21.0124 58.6449L20.8489 58.8396L20.6477 58.9967C19.5942 59.8211 18.3559 60.2464 17.1061 60.2464L17.1094 60.248ZM16.3144 54.7092C16.4502 55.0871 16.7364 55.2376 16.8346 55.2801C17.0456 55.3701 17.2533 55.357 17.466 55.2392C18.9251 53.5052 20.3892 51.7729 21.8533 50.0389C27.4952 43.3615 33.3268 36.46 38.8035 29.5095C38.8199 29.2477 38.725 28.9926 38.5451 28.8372C38.4682 28.793 38.3455 28.7276 38.2294 28.667H24.3708L34.3509 6.09935C34.4196 5.84907 34.3247 5.63314 34.2593 5.52191C34.2069 5.43358 34.0679 5.24055 33.8225 5.15712L15.1873 5.23728C15.0646 5.3158 14.9665 5.42212 14.8912 5.55626L5.19413 34.6639C5.19086 34.9142 5.5671 35.4393 5.81901 35.5129H20.5397L16.3144 54.7092Z" fill="white"/>
</g>
<defs>
<clipPath id="clip0_6310_35909">
<rect width="43.421" height="60" fill="white" transform="translate(0.289062 0.24707)"/>
</clipPath>
</defs>
</svg>
