<svg width="24" height="25" viewBox="0 0 24 25" fill="none" xmlns="http://www.w3.org/2000/svg">
<g id="Simplification" clip-path="url(#clip0_5527_119370)">
<path id="Vector" d="M10.4531 5.57138C10.4902 5.57106 10.5273 5.57074 10.5655 5.57041C10.6876 5.56955 10.8098 5.56973 10.9319 5.57C11.0171 5.56978 11.1023 5.56953 11.1875 5.56925C11.3658 5.56883 11.5442 5.56895 11.7226 5.56941C11.9509 5.56995 12.1791 5.569 12.4074 5.56763C12.5833 5.56677 12.7591 5.56679 12.935 5.56706C13.0191 5.56706 13.1033 5.56678 13.1875 5.5662C13.3053 5.5655 13.423 5.566 13.5408 5.5668C13.5754 5.56635 13.6099 5.5659 13.6456 5.56543C13.8843 5.56883 14.0185 5.62895 14.2031 5.77782C14.3834 5.98709 14.37 6.22621 14.3848 6.48973C14.4168 6.9016 14.4517 7.25063 14.7607 7.55193C15.0284 7.76845 15.2919 7.86345 15.6361 7.85534C15.9083 7.81945 16.1538 7.69707 16.3828 7.55028C16.6239 7.42541 16.8471 7.38825 17.1158 7.43639C17.4238 7.55135 17.5538 7.83414 17.7047 8.10617C17.7754 8.23278 17.848 8.35817 17.9209 8.48357C18.0564 8.71696 18.1912 8.95078 18.3255 9.18483C18.4397 9.38362 18.5542 9.58221 18.6689 9.78069C18.6851 9.80878 18.7013 9.83687 18.7181 9.86581C18.7965 10.0016 18.875 10.1373 18.9534 10.2731C18.9814 10.3215 19.0094 10.37 19.0382 10.4199C19.0753 10.4841 19.0753 10.4841 19.1132 10.5496C19.1992 10.7008 19.2283 10.7922 19.2334 10.9663C19.2352 11.0052 19.2369 11.044 19.2387 11.084C19.2069 11.2935 19.1217 11.468 18.9588 11.6038C18.8772 11.6576 18.7941 11.7064 18.709 11.7544C18.3258 11.9871 18.0867 12.1929 17.9722 12.6428C17.9189 12.9766 17.9924 13.2831 18.1875 13.5591C18.3701 13.7581 18.5738 13.8969 18.8086 14.0278C19.0341 14.1597 19.1281 14.2493 19.2188 14.4966C19.2602 14.8332 19.2017 15.0618 19.0254 15.3462C19.0046 15.3816 18.9838 15.417 18.9624 15.4535C18.9167 15.5311 18.8707 15.6084 18.8242 15.6855C18.7193 15.8601 18.6176 16.0366 18.5156 16.2128C18.4328 16.3553 18.3494 16.4973 18.2659 16.6393C18.1471 16.8415 18.0308 17.045 17.9158 17.2494C17.8867 17.3006 17.8576 17.3518 17.8277 17.4045C17.772 17.5026 17.7168 17.601 17.6622 17.6997C17.4981 17.9872 17.3751 18.1788 17.048 18.2801C16.7989 18.3061 16.6275 18.2735 16.4062 18.1528C16.3253 18.1116 16.2442 18.0706 16.1631 18.0298C16.1247 18.0098 16.0863 17.9899 16.0468 17.9693C15.7837 17.8468 15.4938 17.8197 15.2151 17.9069C14.8761 18.0512 14.6495 18.2165 14.4869 18.5533C14.4078 18.8128 14.3943 19.0785 14.3816 19.3487C14.3663 19.6101 14.3366 19.7772 14.1562 19.9809C13.96 20.1307 13.7857 20.142 13.5469 20.1405C13.4913 20.141 13.4913 20.141 13.4345 20.1415C13.3124 20.1423 13.1902 20.1422 13.0681 20.1419C12.9829 20.1421 12.8977 20.1424 12.8125 20.1426C12.6342 20.1431 12.4558 20.1429 12.2774 20.1425C12.0491 20.1419 11.8209 20.1429 11.5926 20.1443C11.4167 20.1451 11.2409 20.1451 11.065 20.1448C10.9809 20.1448 10.8967 20.1451 10.8125 20.1457C10.6947 20.1464 10.577 20.1459 10.4592 20.1451C10.4246 20.1455 10.3901 20.146 10.3544 20.1465C10.1157 20.1431 9.98153 20.0829 9.79688 19.9341C9.61662 19.7248 9.62996 19.4857 9.61523 19.2222C9.58319 18.8103 9.54826 18.4613 9.23932 18.16C8.97161 17.9434 8.70813 17.8484 8.36389 17.8566C8.09169 17.8924 7.84624 18.0148 7.61719 18.1616C7.37607 18.2865 7.15293 18.3236 6.88422 18.2755C6.57624 18.1605 6.44617 17.8778 6.29535 17.6057C6.22462 17.4791 6.15196 17.3537 6.0791 17.2283C5.94359 16.9949 5.80884 16.7611 5.67448 16.5271C5.56032 16.3283 5.44581 16.1297 5.33112 15.9312C5.31489 15.9031 5.29866 15.875 5.28194 15.8461C5.2035 15.7103 5.12504 15.5745 5.04656 15.4388C5.01859 15.3903 4.99061 15.3419 4.96179 15.292C4.92469 15.2278 4.92469 15.2278 4.88683 15.1623C4.80085 15.0111 4.77167 14.9197 4.7666 14.7456C4.76397 14.6873 4.76397 14.6873 4.76129 14.6279C4.79314 14.4184 4.87826 14.2439 5.04116 14.1081C5.12278 14.0543 5.20585 14.0055 5.29102 13.9575C5.6742 13.7248 5.9133 13.519 6.02783 13.0691C6.08107 12.7353 6.00759 12.4288 5.8125 12.1528C5.62994 11.9538 5.42622 11.815 5.19141 11.6841C4.96587 11.5522 4.87192 11.4626 4.78125 11.2153C4.73979 10.8787 4.79828 10.6501 4.97461 10.3657C4.99541 10.3303 5.01621 10.2948 5.03764 10.2583C5.08328 10.1808 5.12935 10.1035 5.1758 10.0264C5.28065 9.85176 5.38237 9.67534 5.48444 9.49905C5.56716 9.3566 5.6506 9.21459 5.73413 9.07262C5.85286 8.87035 5.96923 8.66693 6.08423 8.46251C6.11331 8.41131 6.14239 8.36011 6.17235 8.30735C6.22801 8.20924 6.28319 8.11085 6.33778 8.01214C6.50187 7.72473 6.62494 7.53307 6.95197 7.43181C7.20115 7.40575 7.37251 7.43839 7.59375 7.55907C7.6747 7.6003 7.75576 7.6413 7.83691 7.68212C7.89447 7.71203 7.89447 7.71203 7.95319 7.74254C8.21628 7.86506 8.50616 7.89216 8.78485 7.80498C9.12388 7.66065 9.3505 7.49535 9.51306 7.15862C9.59224 6.8991 9.6057 6.63344 9.61838 6.36322C9.63366 6.10178 9.66344 5.9347 9.84375 5.73095C10.04 5.58116 10.2143 5.56993 10.4531 5.57138ZM11.0625 6.99657C11.0006 7.2286 10.9387 7.46063 10.875 7.6997C10.5792 8.33946 10.1227 8.84299 9.46582 9.12059C9.38911 9.14822 9.31197 9.17467 9.23438 9.1997C9.20241 9.21027 9.17045 9.22084 9.13751 9.23174C8.56784 9.38848 7.96622 9.29981 7.40625 9.15282C7.2796 9.35496 7.15506 9.55831 7.03125 9.7622C7.00844 9.79957 6.98563 9.83694 6.96213 9.87545C6.88979 9.99454 6.81835 10.1141 6.74707 10.2339C6.71183 10.2916 6.71183 10.2916 6.67588 10.3505C6.64359 10.4052 6.64359 10.4052 6.61066 10.4611C6.5912 10.4936 6.57174 10.526 6.55169 10.5594C6.50744 10.674 6.51836 10.7273 6.5625 10.8403C6.62731 10.9049 6.62731 10.9049 6.70898 10.9604C7.16462 11.3319 7.40686 11.9427 7.4881 12.5121C7.54994 13.3246 7.34353 14.0366 6.81152 14.6606C6.71503 14.7689 6.63818 14.8367 6.51562 14.9184C6.54331 15.1101 6.60588 15.2457 6.70404 15.4119C6.73265 15.4606 6.76126 15.5094 6.79074 15.5596C6.8208 15.61 6.85086 15.6604 6.88184 15.7124C6.91135 15.7626 6.94087 15.8129 6.97128 15.8646C7.1104 16.1004 7.2507 16.3338 7.40625 16.5591C7.44492 16.5489 7.48359 16.5388 7.52344 16.5283C8.32254 16.3357 9.06153 16.3645 9.802 16.7561C10.5593 17.2268 10.8528 17.8766 11.0625 18.7153C11.6813 18.7153 12.3 18.7153 12.9375 18.7153C13.0303 18.3673 13.0303 18.3673 13.125 18.0122C13.4699 17.2663 13.9957 16.7946 14.762 16.5096C15.3664 16.324 15.9941 16.4017 16.5938 16.5591C16.7204 16.3569 16.8449 16.1536 16.9688 15.9497C16.9916 15.9123 17.0144 15.875 17.0379 15.8364C17.1102 15.7173 17.1817 15.5978 17.2529 15.478C17.2764 15.4395 17.2999 15.4011 17.3241 15.3614C17.3456 15.3249 17.3672 15.2884 17.3893 15.2508C17.4088 15.2183 17.4283 15.1859 17.4483 15.1524C17.4926 15.0379 17.4816 14.9846 17.4375 14.8716C17.3727 14.807 17.3727 14.807 17.291 14.7515C16.8354 14.38 16.5931 13.7692 16.5119 13.1998C16.4501 12.3873 16.6565 11.6753 17.1885 11.0513C17.285 10.943 17.3618 10.8751 17.4844 10.7934C17.4567 10.6018 17.3941 10.4662 17.296 10.3C17.2673 10.2512 17.2387 10.2025 17.2093 10.1523C17.1792 10.1019 17.1491 10.0515 17.1182 9.9995C17.0886 9.94926 17.0591 9.89901 17.0287 9.84725C16.8896 9.6115 16.7493 9.37811 16.5938 9.15282C16.5551 9.16297 16.5164 9.17312 16.4766 9.18358C15.6775 9.37622 14.9385 9.34736 14.198 8.9558C13.4407 8.48505 13.1472 7.8353 12.9375 6.99657C12.3187 6.99657 11.7 6.99657 11.0625 6.99657Z" fill="url(#paint0_linear_5527_119370)"/>
<path id="Vector_2" d="M11.4031 0.846436C11.4478 0.846168 11.4926 0.845901 11.5387 0.845626C11.6331 0.845186 11.7274 0.844878 11.8218 0.844696C11.9625 0.844246 12.1032 0.842791 12.2439 0.841309C12.8767 0.837846 13.4854 0.89229 14.1094 0.996582C14.1619 1.00515 14.2144 1.01373 14.2685 1.02256C15.8427 1.29994 17.3431 1.92942 18.6676 2.81706C18.7712 2.88557 18.8771 2.94955 18.9844 3.01221C18.978 2.968 18.978 2.968 18.9715 2.92291C18.7673 1.49225 18.7673 1.49225 18.9199 1.15771C19.1154 0.957123 19.2597 0.845459 19.5439 0.83252C19.7829 0.842955 19.9188 0.899543 20.1094 1.04346C20.2525 1.23457 20.2867 1.42687 20.3183 1.65814C20.3239 1.69651 20.3296 1.73488 20.3354 1.77441C20.3544 1.90567 20.3726 2.03705 20.3906 2.16846C20.3974 2.21688 20.4042 2.2653 20.4111 2.31519C20.4558 2.63546 20.499 2.9559 20.5414 3.27649C20.5637 3.44444 20.5863 3.61234 20.609 3.78024C20.6233 3.88818 20.6376 3.99612 20.6519 4.10407C20.6586 4.15368 20.6654 4.20329 20.6723 4.25441C20.7676 4.98392 20.7676 4.98392 20.6455 5.22705C20.6319 5.2563 20.6183 5.28554 20.6043 5.31567C20.3288 5.64435 19.9026 5.65069 19.5055 5.70093C19.437 5.71007 19.3685 5.71926 19.3 5.7285C19.1567 5.74768 19.0134 5.76638 18.87 5.78472C18.6879 5.80803 18.5059 5.8323 18.324 5.8569C18.1826 5.87596 18.0411 5.8946 17.8995 5.91312C17.8325 5.92192 17.7655 5.93081 17.6985 5.93981C16.535 6.09508 16.535 6.09508 16.2187 5.87158C16.0612 5.73505 15.996 5.66353 15.9631 5.45685C15.9552 5.22943 15.9653 5.06816 16.0635 4.86084C16.287 4.62527 16.5008 4.57728 16.8105 4.53564C16.8896 4.52412 16.9686 4.51259 17.0477 4.50104C17.0884 4.49526 17.1291 4.48948 17.1711 4.48353C17.3803 4.45326 17.589 4.41959 17.7978 4.38623C17.8732 4.37431 17.9486 4.36241 18.024 4.35053C18.0779 4.34201 18.1319 4.33349 18.1875 4.32471C15.8871 2.65849 13.0436 2.01831 10.2456 2.46306C7.7265 2.88829 5.3153 4.25561 3.74999 6.29346C3.71964 6.33287 3.71964 6.33287 3.68868 6.37309C3.36388 6.7975 3.07641 7.23524 2.81249 7.69971C2.79675 7.72672 2.781 7.75373 2.76477 7.78156C1.99341 9.10841 1.49882 10.7648 1.49047 12.3043C1.49014 12.3448 1.48982 12.3853 1.48948 12.4271C1.48866 12.5573 1.48836 12.6876 1.48828 12.8179C1.48824 12.8623 1.48821 12.9067 1.48818 12.9525C1.4889 13.5874 1.50504 14.2022 1.64062 14.8247C1.64841 14.8634 1.65621 14.9021 1.66424 14.9419C1.82623 15.7397 2.07771 16.5178 2.41406 17.2593C2.53141 17.526 2.60417 17.722 2.49829 18.0073C2.39631 18.2125 2.27401 18.3379 2.06249 18.4341C1.81757 18.4695 1.61606 18.4648 1.38867 18.3638C1.10507 18.0937 0.964465 17.7394 0.826167 17.3794C0.808119 17.3327 0.79007 17.2859 0.771475 17.2378C0.518159 16.5677 0.316522 15.8811 0.172846 15.1792C0.165939 15.1455 0.159032 15.1118 0.151915 15.0771C0.0125155 14.3437 -0.0174895 13.6183 -0.0146536 12.8735C-0.0145526 12.8258 -0.0144516 12.7781 -0.0143475 12.7289C-0.0120177 12.0434 0.00270982 11.3734 0.14062 10.6997C0.154215 10.6296 0.154215 10.6296 0.168086 10.5581C0.525679 8.74838 1.26222 7.05369 2.39062 5.59033C2.42077 5.55118 2.45092 5.51202 2.48199 5.47168C3.14219 4.63119 3.90828 3.82083 4.78125 3.19971C4.8102 3.1788 4.83915 3.15789 4.86898 3.13635C6.75157 1.78266 9.06102 0.857675 11.4031 0.846436Z" fill="url(#paint1_linear_5527_119370)"/>
<path id="Vector_3" d="M22.4531 7.27783C22.866 7.47302 22.9928 7.89186 23.1504 8.29151C23.1813 8.36976 23.1813 8.36976 23.2129 8.44961C23.4649 9.09761 23.6554 9.74751 23.8008 10.4272C23.8101 10.4706 23.8194 10.514 23.829 10.5586C23.9833 11.3183 24.0176 12.0652 24.0147 12.8384C24.0146 12.8861 24.0145 12.9338 24.0143 12.983C24.012 13.6685 23.9973 14.3385 23.8594 15.0122C23.8458 15.0823 23.8458 15.0823 23.8319 15.1538C23.4513 17.0798 22.6372 18.8186 21.4219 20.356C21.3838 20.4046 21.3457 20.4532 21.3065 20.5034C20.7127 21.233 20.0303 21.9159 19.2656 22.4653C19.2108 22.5058 19.156 22.5464 19.1012 22.5869C18.1344 23.2968 17.0746 23.8631 15.9375 24.2466C15.8802 24.2659 15.8802 24.2659 15.8217 24.2857C15.3637 24.4375 14.9005 24.5562 14.4287 24.6567C14.3854 24.6661 14.342 24.6754 14.2974 24.685C13.5832 24.8301 12.8806 24.8724 12.1534 24.8708C12.0156 24.8706 11.8779 24.8717 11.7401 24.8729C11.1132 24.875 10.5087 24.8185 9.89063 24.7153C9.81068 24.7021 9.81068 24.7021 9.72912 24.6886C9.60745 24.6668 9.48691 24.6424 9.36622 24.6157C9.30111 24.6013 9.30111 24.6013 9.23469 24.5867C8.32538 24.3752 7.44537 24.0511 6.60938 23.6372C6.57728 23.6213 6.54518 23.6054 6.51211 23.5891C6.1231 23.394 5.75473 23.1729 5.39173 22.9332C5.268 22.8521 5.14304 22.7748 5.01563 22.6997C5.01989 22.7292 5.02415 22.7586 5.02854 22.789C5.23268 24.2197 5.23268 24.2197 5.08008 24.5542C4.88463 24.7548 4.74029 24.8665 4.45606 24.8794C4.21712 24.869 4.08122 24.8124 3.89063 24.6685C3.74754 24.4773 3.71328 24.285 3.68171 24.0538C3.67607 24.0154 3.67043 23.977 3.66462 23.9375C3.64558 23.8062 3.62742 23.6749 3.60938 23.5435C3.60261 23.495 3.59585 23.4466 3.58887 23.3967C3.54418 23.0765 3.50095 22.756 3.45858 22.4354C3.43632 22.2675 3.41368 22.0996 3.39103 21.9317C3.37669 21.8237 3.36238 21.7158 3.34809 21.6079C3.34135 21.5582 3.33462 21.5086 3.32768 21.4575C3.23242 20.728 3.23242 20.728 3.3545 20.4849C3.36809 20.4556 3.38169 20.4264 3.3957 20.3962C3.6712 20.0676 4.09739 20.0612 4.49451 20.011C4.563 20.0018 4.63149 19.9927 4.69997 19.9834C4.84325 19.9642 4.98658 19.9455 5.12998 19.9272C5.31209 19.9039 5.49406 19.8796 5.676 19.855C5.81744 19.836 5.95894 19.8173 6.10046 19.7988C6.16748 19.79 6.23448 19.7811 6.30147 19.7721C7.46503 19.6168 7.46503 19.6168 7.78126 19.8403C7.93879 19.9769 8.00398 20.0484 8.03687 20.2551C8.04476 20.4825 8.03473 20.6438 7.93653 20.8511C7.75367 21.0438 7.58537 21.1206 7.32404 21.1574C7.27235 21.165 7.22065 21.1726 7.16739 21.1804C7.11377 21.1877 7.06014 21.1951 7.00489 21.2026C6.89935 21.2178 6.79382 21.233 6.6883 21.2482C6.61088 21.2592 6.61088 21.2592 6.5319 21.2704C6.29149 21.3057 6.05198 21.3461 5.8125 21.3872C8.04397 23.0238 10.8593 23.6779 13.5879 23.2769C16.17 22.8693 18.6463 21.5063 20.25 19.4185C20.2702 19.3922 20.2905 19.3659 20.3113 19.3388C20.636 18.9145 20.9242 18.4769 21.1875 18.0122C21.2035 17.9845 21.2195 17.9567 21.236 17.9281C21.7613 17.0119 22.103 16.0043 22.3242 14.9741C22.3313 14.9412 22.3384 14.9082 22.3457 14.8742C22.3679 14.7642 22.3876 14.6541 22.4063 14.5435C22.4188 14.4695 22.4188 14.4695 22.4317 14.3941C22.5089 13.8866 22.5167 13.3859 22.5147 12.8735C22.5146 12.8299 22.5145 12.7863 22.5144 12.7414C22.5123 12.1131 22.4935 11.5032 22.3594 10.8872C22.3516 10.8485 22.3438 10.8098 22.3358 10.77C22.1738 9.97226 21.9224 9.19401 21.5859 8.45264C21.4527 8.15091 21.4082 7.95917 21.5244 7.64111C21.7638 7.27798 22.0453 7.23688 22.4531 7.27783Z" fill="url(#paint2_linear_5527_119370)"/>
<path id="Vector_4" d="M11.9854 9.78559C12.0587 9.78595 12.0587 9.78595 12.1336 9.7863C12.9936 9.80551 13.6406 10.1485 14.25 10.7465C14.28 10.7754 14.31 10.8042 14.3408 10.8339C14.8555 11.3704 15.0749 12.1129 15.0703 12.8413C15.0701 12.8902 15.0699 12.9391 15.0696 12.9895C15.0504 13.8495 14.7074 14.4965 14.1094 15.1059C14.0806 15.1359 14.0517 15.1658 14.022 15.1967C13.4855 15.7114 12.743 15.9308 12.0147 15.9262C11.9657 15.926 11.9168 15.9258 11.8664 15.9255C11.0065 15.9063 10.3594 15.5633 9.75001 14.9653C9.72004 14.9365 9.69007 14.9076 9.65919 14.8779C9.14448 14.3414 8.92507 13.5989 8.9297 12.8706C8.92993 12.8216 8.93017 12.7727 8.93041 12.7223C8.94962 11.8624 9.29259 11.2153 9.89064 10.6059C9.91946 10.5759 9.94828 10.546 9.97798 10.5151C10.5145 10.0004 11.257 9.78097 11.9854 9.78559ZM10.7344 11.8247C10.4013 12.2585 10.3658 12.7019 10.4063 13.2309C10.498 13.6692 10.7923 14.0169 11.1621 14.2592C11.5657 14.5009 12.0603 14.5155 12.5133 14.4207C12.9219 14.2757 13.2342 13.9764 13.4544 13.6085C13.6494 13.1966 13.6771 12.6626 13.5264 12.229C13.3123 11.7835 12.9717 11.486 12.5156 11.309C11.8493 11.0869 11.1936 11.3256 10.7344 11.8247Z" fill="url(#paint3_linear_5527_119370)"/>
</g>
<defs>
<linearGradient id="paint0_linear_5527_119370" x1="16.9223" y1="5.128" x2="6.40288" y2="19.1268" gradientUnits="userSpaceOnUse">
<stop stop-color="#FF9900"/>
<stop offset="1" stop-color="#AC5100"/>
</linearGradient>
<linearGradient id="paint1_linear_5527_119370" x1="17.4198" y1="0.303872" x2="5.45327" y2="19.1948" gradientUnits="userSpaceOnUse">
<stop stop-color="#FF9900"/>
<stop offset="1" stop-color="#AC5100"/>
</linearGradient>
<linearGradient id="paint2_linear_5527_119370" x1="20.6939" y1="6.73658" x2="8.73437" y2="25.6242" gradientUnits="userSpaceOnUse">
<stop stop-color="#FF9900"/>
<stop offset="1" stop-color="#AC5100"/>
</linearGradient>
<linearGradient id="paint3_linear_5527_119370" x1="14.0879" y1="9.6013" x2="9.66652" y2="15.5271" gradientUnits="userSpaceOnUse">
<stop stop-color="#FF9900"/>
<stop offset="1" stop-color="#AC5100"/>
</linearGradient>
<clipPath id="clip0_5527_119370">
<rect width="24" height="24" fill="white" transform="translate(0 0.855957)"/>
</clipPath>
</defs>
</svg>
