<svg width="16" height="16" viewBox="0 0 16 16" fill="none" xmlns="http://www.w3.org/2000/svg">
<g clip-path="url(#clip0_6273_33373)">
<path d="M11.8421 1.12499C12.0037 1.18846 12.1531 1.30096 12.2296 1.46117C12.2816 1.65606 12.2913 1.86928 12.2105 2.05626C12.1323 2.17747 12.0517 2.2587 11.9358 2.34374C11.9939 2.34417 11.9939 2.34417 12.0531 2.34462C12.1995 2.34589 12.3459 2.34795 12.4924 2.35022C12.5552 2.35109 12.6181 2.35176 12.6809 2.3522C13.6553 2.3595 14.4691 2.62429 15.1702 3.32837C15.7845 3.97464 16.008 4.75853 16.0074 5.63189C16.0076 5.68891 16.0078 5.74593 16.008 5.80295C16.0086 5.95701 16.0087 6.11108 16.0088 6.26515C16.0088 6.36169 16.0089 6.45823 16.0091 6.55477C16.0097 6.89237 16.0099 7.22998 16.0099 7.56759C16.0098 7.88095 16.0105 8.1943 16.0115 8.50766C16.0123 8.77776 16.0126 9.04787 16.0126 9.31797C16.0126 9.47882 16.0128 9.63965 16.0134 9.80049C16.014 9.95201 16.014 10.1035 16.0136 10.255C16.0135 10.3102 16.0137 10.3653 16.014 10.4205C16.0199 11.3236 15.7206 12.0932 15.0921 12.75C14.5333 13.3063 13.7755 13.6331 12.9865 13.6351C12.9561 13.6354 12.9257 13.6357 12.8944 13.636C12.7952 13.6369 12.6959 13.6373 12.5967 13.6377C12.5625 13.6379 12.5284 13.638 12.4932 13.6382C12.3127 13.6391 12.1323 13.6397 11.9518 13.64C11.766 13.6403 11.5802 13.6418 11.3944 13.6436C11.2509 13.6448 11.1073 13.6451 10.9638 13.6452C10.8953 13.6454 10.8268 13.6459 10.7583 13.6467C10.6624 13.6478 10.5666 13.6477 10.4708 13.6473C10.4428 13.6478 10.4148 13.6484 10.386 13.649C10.1723 13.6462 10.0355 13.5751 9.8733 13.4375C9.73003 13.2698 9.7256 13.1065 9.73231 12.8891C9.7563 12.7272 9.81637 12.6117 9.9358 12.5C10.1051 12.3855 10.2226 12.3568 10.4249 12.3589C10.4641 12.3586 10.4641 12.3586 10.5041 12.3582C10.5901 12.3576 10.6761 12.3579 10.7621 12.3581C10.8224 12.3578 10.8827 12.3575 10.943 12.357C11.1016 12.356 11.2602 12.3557 11.4189 12.3556C11.6719 12.3553 11.925 12.3542 12.1781 12.3527C12.2658 12.3523 12.3536 12.3523 12.4413 12.3524C13.127 12.3509 13.6876 12.2549 14.2092 11.7715C14.6817 11.2718 14.7271 10.6478 14.7251 9.99522C14.7252 9.94666 14.7253 9.89809 14.7255 9.84952C14.7258 9.71909 14.7256 9.58867 14.7254 9.45825C14.7253 9.32084 14.7254 9.18342 14.7255 9.04601C14.7256 8.81539 14.7255 8.58477 14.7252 8.35414C14.7249 8.08867 14.725 7.8232 14.7253 7.55773C14.7256 7.32855 14.7256 7.09937 14.7255 6.87019C14.7254 6.73386 14.7254 6.59753 14.7256 6.4612C14.7258 6.33294 14.7256 6.20469 14.7253 6.07644C14.7252 6.02977 14.7252 5.9831 14.7253 5.93643C14.727 5.31455 14.6597 4.77537 14.2483 4.28124C14.2317 4.26105 14.215 4.24087 14.1979 4.22008C13.8637 3.85275 13.3892 3.68388 12.9046 3.65624C12.7365 3.65277 12.5687 3.65326 12.4006 3.65428C12.3554 3.65444 12.3102 3.65458 12.2649 3.65471C12.1552 3.65505 12.0455 3.65559 11.9358 3.65624C11.9652 3.68012 11.9946 3.70401 12.0249 3.72862C12.1685 3.84523 12.2369 3.94969 12.2625 4.13268C12.2729 4.35354 12.2585 4.51881 12.1176 4.69444C11.9659 4.84287 11.8244 4.88298 11.6135 4.89647C11.3772 4.88701 11.2436 4.79905 11.0608 4.65624C11.0164 4.6222 10.9719 4.58819 10.9275 4.55418C10.8297 4.47889 10.7325 4.40284 10.6356 4.32628C10.5214 4.2362 10.4051 4.1499 10.2874 4.06444C10.0195 3.86342 9.82069 3.61646 9.7483 3.28124C9.72257 2.85555 9.7411 2.50136 10.0272 2.16124C10.459 1.71161 11.1964 1.0527 11.8421 1.12499Z" fill="#155DEC"/>
<path d="M1.76473 11.1167C1.78687 11.1166 1.809 11.1164 1.8318 11.1163C1.90522 11.1159 1.97863 11.1159 2.05206 11.116C2.105 11.1158 2.15795 11.1156 2.2109 11.1154C2.35425 11.1148 2.49759 11.1147 2.64093 11.1146C2.73066 11.1146 2.82039 11.1144 2.91012 11.1143C3.22363 11.1137 3.53715 11.1134 3.85067 11.1135C4.14211 11.1135 4.43354 11.1129 4.72498 11.1119C4.97584 11.1111 5.22669 11.1107 5.47755 11.1108C5.62709 11.1108 5.77662 11.1106 5.92616 11.1099C6.06696 11.1093 6.20774 11.1093 6.34854 11.1098C6.39992 11.1099 6.4513 11.1097 6.50268 11.1093C7.068 11.1054 7.54316 11.2496 7.95969 11.6457C8.36031 12.0566 8.51293 12.5189 8.51115 13.0823C8.50156 13.6106 8.2813 14.0404 7.90598 14.4063C7.58569 14.7036 7.17256 14.8823 6.73472 14.8834C6.71259 14.8836 6.69045 14.8837 6.66765 14.8839C6.59423 14.8843 6.52082 14.8842 6.4474 14.8842C6.39445 14.8843 6.3415 14.8846 6.28855 14.8848C6.1452 14.8853 6.00186 14.8855 5.85852 14.8855C5.76879 14.8856 5.67906 14.8857 5.58934 14.8859C5.27582 14.8864 4.9623 14.8867 4.64878 14.8867C4.35734 14.8866 4.06591 14.8873 3.77447 14.8883C3.52361 14.8891 3.27276 14.8894 3.0219 14.8894C2.87236 14.8894 2.72283 14.8895 2.57329 14.8902C2.43249 14.8908 2.29171 14.8908 2.15091 14.8904C2.09953 14.8903 2.04815 14.8904 1.99677 14.8908C1.43145 14.8947 0.956295 14.7505 0.539764 14.3544C0.139138 13.9435 -0.0134785 13.4812 -0.0117035 12.9178C-0.00210887 12.3895 0.218153 11.9597 0.593475 11.5938C0.913758 11.2965 1.32689 11.1179 1.76473 11.1167ZM1.39096 12.6131C1.27716 12.7668 1.25703 12.9079 1.26608 13.0969C1.29398 13.2668 1.36436 13.3777 1.49667 13.4864C1.68144 13.6112 1.85493 13.6289 2.07592 13.6293C2.13571 13.6295 2.13571 13.6295 2.19672 13.6297C2.24051 13.6296 2.28429 13.6296 2.32808 13.6296C2.3745 13.6297 2.42092 13.6298 2.46734 13.6299C2.59311 13.6302 2.71889 13.6303 2.84467 13.6303C2.92333 13.6303 3.00199 13.6304 3.08064 13.6305C3.35528 13.6308 3.62992 13.6309 3.90456 13.6309C4.16021 13.6308 4.41586 13.6312 4.67151 13.6317C4.89131 13.6321 5.11112 13.6322 5.33092 13.6322C5.46206 13.6322 5.5932 13.6323 5.72434 13.6326C5.84772 13.6329 5.97109 13.6329 6.09447 13.6327C6.13962 13.6327 6.18477 13.6328 6.22991 13.6329C6.67612 13.6391 6.67612 13.6391 7.06223 13.4376C7.1847 13.3038 7.22978 13.1812 7.23801 13.0001C7.22934 12.8192 7.1884 12.6939 7.06223 12.5626C6.86384 12.3996 6.67716 12.3713 6.42353 12.3709C6.38367 12.3708 6.3438 12.3706 6.30273 12.3705C6.25895 12.3705 6.21516 12.3705 6.17137 12.3705C6.12495 12.3704 6.07853 12.3703 6.03211 12.3702C5.90634 12.3699 5.78056 12.3699 5.65478 12.3698C5.57612 12.3698 5.49747 12.3698 5.41881 12.3697C5.14417 12.3694 4.86953 12.3693 4.59489 12.3693C4.33924 12.3693 4.08359 12.369 3.82794 12.3685C3.60814 12.3681 3.38833 12.3679 3.16853 12.3679C3.03739 12.3679 2.90625 12.3678 2.77511 12.3675C2.65173 12.3672 2.52836 12.3672 2.40498 12.3674C2.35983 12.3675 2.31468 12.3674 2.26954 12.3672C1.78595 12.3601 1.78595 12.3601 1.39096 12.6131Z" fill="#155DEC"/>
<path d="M4.26473 6.11672C4.28687 6.11657 4.309 6.11643 4.3318 6.11629C4.40522 6.11589 4.47863 6.11594 4.55206 6.11599C4.605 6.11581 4.65795 6.11559 4.7109 6.11536C4.85425 6.11481 4.99759 6.11466 5.14093 6.11462C5.23066 6.11457 5.32039 6.11444 5.41012 6.11427C5.72363 6.1137 6.03715 6.11344 6.35067 6.11349C6.64211 6.11353 6.93354 6.11287 7.22498 6.11188C7.47584 6.11106 7.72669 6.11073 7.97755 6.11077C8.12709 6.11078 8.27662 6.11061 8.42616 6.10995C8.56696 6.10934 8.70774 6.10934 8.84854 6.10979C8.89992 6.10986 8.9513 6.10971 9.00268 6.10933C9.568 6.10542 10.0432 6.2496 10.4597 6.6457C10.8603 7.05662 11.0129 7.51894 11.0112 8.08232C11.0016 8.6106 10.7813 9.0404 10.406 9.40632C10.0857 9.7036 9.67256 9.88226 9.23472 9.88343C9.21259 9.88357 9.19045 9.88371 9.16765 9.88386C9.09423 9.88425 9.02082 9.8842 8.9474 9.88415C8.89445 9.88434 8.8415 9.88455 8.78855 9.88479C8.6452 9.88534 8.50186 9.88549 8.35852 9.88553C8.26879 9.88557 8.17906 9.8857 8.08934 9.88587C7.77582 9.88645 7.4623 9.8867 7.14878 9.88665C6.85734 9.88662 6.56591 9.88727 6.27447 9.88826C6.02361 9.88908 5.77276 9.88941 5.5219 9.88937C5.37236 9.88936 5.22283 9.88953 5.07329 9.8902C4.93249 9.89081 4.79171 9.89081 4.65091 9.89035C4.59953 9.89029 4.54815 9.89043 4.49677 9.89081C3.93145 9.89473 3.4563 9.75054 3.03976 9.35444C2.63914 8.94353 2.48652 8.4812 2.4883 7.91782C2.49789 7.38954 2.71815 6.95975 3.09348 6.59382C3.41376 6.29654 3.82689 6.11788 4.26473 6.11672ZM3.89096 7.61311C3.77716 7.76675 3.75703 7.90789 3.76608 8.09687C3.79398 8.26679 3.86436 8.37772 3.99667 8.4864C4.18144 8.61123 4.35493 8.62892 4.57592 8.62925C4.63571 8.62945 4.63571 8.62945 4.69672 8.62965C4.74051 8.62964 4.78429 8.62963 4.82808 8.62961C4.8745 8.62971 4.92092 8.62981 4.96734 8.62993C5.09311 8.63021 5.21889 8.63028 5.34467 8.6303C5.42333 8.63032 5.50199 8.63039 5.58064 8.63047C5.85528 8.63076 6.12992 8.63089 6.40456 8.63086C6.66021 8.63084 6.91586 8.63117 7.17151 8.63167C7.39131 8.63208 7.61112 8.63224 7.83092 8.63222C7.96206 8.63222 8.0932 8.6323 8.22434 8.63264C8.34772 8.63294 8.47109 8.63294 8.59447 8.63271C8.63962 8.63268 8.68477 8.63275 8.72991 8.63294C9.17612 8.63913 9.17612 8.63913 9.56223 8.43757C9.6847 8.30379 9.72978 8.18116 9.73801 8.00007C9.72934 7.8192 9.6884 7.69392 9.56223 7.56257C9.36384 7.39963 9.17716 7.37128 8.92353 7.37089C8.88367 7.37076 8.8438 7.37063 8.80273 7.37049C8.75895 7.3705 8.71516 7.37051 8.67137 7.37053C8.62495 7.37044 8.57853 7.37033 8.53211 7.37021C8.40634 7.36994 8.28056 7.36987 8.15478 7.36985C8.07612 7.36982 7.99747 7.36976 7.91881 7.36967C7.64417 7.36938 7.36953 7.36926 7.09489 7.36928C6.83924 7.3693 6.58359 7.36897 6.32794 7.36848C6.10814 7.36807 5.88833 7.3679 5.66853 7.36792C5.53739 7.36793 5.40625 7.36784 5.27511 7.36751C5.15173 7.36721 5.02836 7.3672 4.90498 7.36743C4.85983 7.36746 4.81468 7.36739 4.76954 7.3672C4.28595 7.36014 4.28595 7.36014 3.89096 7.61311Z" fill="#155DEC"/>
<path d="M1.76473 1.11672C1.78687 1.11657 1.809 1.11643 1.8318 1.11629C1.90522 1.11589 1.97863 1.11594 2.05206 1.11599C2.105 1.11581 2.15795 1.11559 2.2109 1.11536C2.35425 1.11481 2.49759 1.11466 2.64093 1.11462C2.73066 1.11457 2.82039 1.11444 2.91012 1.11427C3.22363 1.1137 3.53715 1.11344 3.85067 1.11349C4.14211 1.11353 4.43354 1.11287 4.72498 1.11188C4.97584 1.11106 5.22669 1.11073 5.47755 1.11077C5.62709 1.11078 5.77662 1.11061 5.92616 1.10995C6.06696 1.10934 6.20774 1.10934 6.34854 1.10979C6.39992 1.10986 6.4513 1.10971 6.50268 1.10933C7.068 1.10542 7.54316 1.2496 7.95969 1.6457C8.36031 2.05662 8.51293 2.51894 8.51115 3.08232C8.50156 3.6106 8.2813 4.0404 7.90598 4.40632C7.58569 4.7036 7.17256 4.88226 6.73472 4.88343C6.71259 4.88357 6.69045 4.88371 6.66765 4.88386C6.59423 4.88425 6.52082 4.8842 6.4474 4.88415C6.39445 4.88434 6.3415 4.88455 6.28855 4.88479C6.1452 4.88534 6.00186 4.88549 5.85852 4.88553C5.76879 4.88557 5.67906 4.8857 5.58934 4.88587C5.27582 4.88645 4.9623 4.8867 4.64878 4.88665C4.35734 4.88662 4.06591 4.88727 3.77447 4.88826C3.52361 4.88908 3.27276 4.88941 3.0219 4.88937C2.87236 4.88936 2.72283 4.88953 2.57329 4.8902C2.43249 4.89081 2.29171 4.89081 2.15091 4.89035C2.09953 4.89029 2.04815 4.89043 1.99677 4.89081C1.43145 4.89473 0.956295 4.75054 0.539764 4.35444C0.139138 3.94353 -0.0134785 3.4812 -0.0117035 2.91782C-0.00210887 2.38954 0.218153 1.95975 0.593475 1.59382C0.913758 1.29654 1.32689 1.11788 1.76473 1.11672ZM1.39096 2.61311C1.27716 2.76675 1.25703 2.90789 1.26608 3.09687C1.29398 3.26679 1.36436 3.37772 1.49667 3.4864C1.68144 3.61123 1.85493 3.62892 2.07592 3.62925C2.13571 3.62945 2.13571 3.62945 2.19672 3.62965C2.24051 3.62964 2.28429 3.62963 2.32808 3.62961C2.3745 3.62971 2.42092 3.62981 2.46734 3.62993C2.59311 3.63021 2.71889 3.63028 2.84467 3.6303C2.92333 3.63032 3.00199 3.63039 3.08064 3.63047C3.35528 3.63076 3.62992 3.63089 3.90456 3.63086C4.16021 3.63084 4.41586 3.63117 4.67151 3.63167C4.89131 3.63208 5.11112 3.63224 5.33092 3.63222C5.46206 3.63222 5.5932 3.6323 5.72434 3.63264C5.84772 3.63294 5.97109 3.63294 6.09447 3.63271C6.13962 3.63268 6.18477 3.63275 6.22991 3.63294C6.67612 3.63913 6.67612 3.63913 7.06223 3.43757C7.1847 3.30379 7.22978 3.18116 7.23801 3.00007C7.22934 2.8192 7.1884 2.69392 7.06223 2.56257C6.86384 2.39963 6.67716 2.37128 6.42353 2.37089C6.38367 2.37076 6.3438 2.37063 6.30273 2.37049C6.25895 2.3705 6.21516 2.37051 6.17137 2.37053C6.12495 2.37044 6.07853 2.37033 6.03211 2.37021C5.90634 2.36994 5.78056 2.36987 5.65478 2.36985C5.57612 2.36982 5.49747 2.36976 5.41881 2.36967C5.14417 2.36938 4.86953 2.36926 4.59489 2.36928C4.33924 2.3693 4.08359 2.36897 3.82794 2.36848C3.60814 2.36807 3.38833 2.3679 3.16853 2.36792C3.03739 2.36793 2.90625 2.36784 2.77511 2.36751C2.65173 2.36721 2.52836 2.3672 2.40498 2.36743C2.35983 2.36746 2.31468 2.36739 2.26954 2.3672C1.78595 2.36014 1.78595 2.36014 1.39096 2.61311Z" fill="#155DEC"/>
</g>
<defs>
<clipPath id="clip0_6273_33373">
<rect width="16" height="16" fill="white"/>
</clipPath>
</defs>
</svg>
