<svg width="19" height="18" viewBox="0 0 19 18" fill="none" xmlns="http://www.w3.org/2000/svg">
<g id="pajamas:issue-type-feature" clip-path="url(#clip0_319_11507)">
<path id="Vector" fill-rule="evenodd" clip-rule="evenodd" d="M16.6875 9C16.6875 10.9394 15.9171 12.7994 14.5457 14.1707C13.1744 15.5421 11.3144 16.3125 9.375 16.3125C7.4356 16.3125 5.57564 15.5421 4.20428 14.1707C2.83292 12.7994 2.0625 10.9394 2.0625 9C2.0625 7.0606 2.83292 5.20064 4.20428 3.82928C5.57564 2.45792 7.4356 1.6875 9.375 1.6875C11.3144 1.6875 13.1744 2.45792 14.5457 3.82928C15.9171 5.20064 16.6875 7.0606 16.6875 9ZM18.375 9C18.375 11.3869 17.4268 13.6761 15.739 15.364C14.0511 17.0518 11.7619 18 9.375 18C6.98805 18 4.69887 17.0518 3.01104 15.364C1.32321 13.6761 0.375 11.3869 0.375 9C0.375 6.61305 1.32321 4.32387 3.01104 2.63604C4.69887 0.948212 6.98805 0 9.375 0C11.7619 0 14.0511 0.948212 15.739 2.63604C17.4268 4.32387 18.375 6.61305 18.375 9ZM10.149 3.60225C10.0835 3.45138 9.97538 3.32293 9.83786 3.23271C9.70035 3.14248 9.53947 3.09441 9.375 3.09441C9.21053 3.09441 9.04965 3.14248 8.91214 3.23271C8.77462 3.32293 8.66648 3.45138 8.601 3.60225L7.42425 6.31462L4.48012 6.59587C4.31634 6.6115 4.16069 6.67466 4.03233 6.7776C3.90398 6.88055 3.80853 7.01877 3.75772 7.17526C3.70691 7.33175 3.70296 7.49968 3.74637 7.65839C3.78977 7.81709 3.87862 7.95964 4.002 8.0685L6.21825 10.026L5.57588 12.9116C5.53987 13.0722 5.55162 13.2399 5.60969 13.3939C5.66776 13.5479 5.76961 13.6816 5.9027 13.7784C6.03578 13.8753 6.19429 13.9311 6.3587 13.939C6.52311 13.9469 6.68624 13.9065 6.828 13.8229L9.375 12.3187L11.922 13.8218C12.0637 13.9053 12.2267 13.9456 12.3909 13.9377C12.5552 13.9298 12.7136 13.8741 12.8466 13.7774C12.9796 13.6807 13.0815 13.5473 13.1397 13.3934C13.1979 13.2396 13.2099 13.0722 13.1741 12.9116L12.5317 10.026L14.748 8.0685C14.8717 7.95972 14.9609 7.81708 15.0046 7.6582C15.0482 7.49932 15.0443 7.33114 14.9935 7.17442C14.9426 7.0177 14.847 6.8793 14.7184 6.77629C14.5898 6.67327 14.4339 6.61017 14.2699 6.59475L11.3258 6.31462L10.149 3.60225ZM8.77425 7.443L9.375 6.05925L9.97575 7.443C10.0357 7.5816 10.1317 7.70159 10.2538 7.79044C10.3759 7.87929 10.5196 7.93374 10.6699 7.94812L12.1729 8.091L11.0411 9.09C10.9278 9.1899 10.8434 9.3184 10.7967 9.46207C10.75 9.60574 10.7427 9.75931 10.7756 9.90675L11.1041 11.3805L9.80362 10.6121C9.67377 10.5355 9.52576 10.4951 9.375 10.4951C9.22424 10.4951 9.07623 10.5355 8.94637 10.6121L7.64587 11.3794L7.97438 9.90563C8.00708 9.75835 7.9997 9.60501 7.953 9.46156C7.9063 9.31811 7.822 9.1898 7.70888 9.09L6.57713 8.091L8.08012 7.94812C8.23044 7.93374 8.37414 7.87929 8.49623 7.79044C8.61832 7.70159 8.71434 7.5816 8.77425 7.443Z" fill="#2F80ED"/>
</g>
<defs>
<clipPath id="clip0_319_11507">
<rect width="18" height="18" fill="white" transform="translate(0.375)"/>
</clipPath>
</defs>
</svg>
