<svg width="24" height="25" viewBox="0 0 24 25" fill="none" xmlns="http://www.w3.org/2000/svg">
<g id="Frame 2609982">
<rect y="0.5" width="24" height="24" rx="12" fill="white"/>
<path id="akar-icons_circle-check-fill (1)" fill-rule="evenodd" clip-rule="evenodd" d="M12 0.5C9.62663 0.5 7.30655 1.20379 5.33316 2.52236C3.35977 3.84094 1.8217 5.71508 0.913451 7.9078C0.00519943 10.1005 -0.232441 12.5133 0.230582 14.8411C0.693604 17.1689 1.83649 19.307 3.51472 20.9853C5.19295 22.6635 7.33115 23.8064 9.65892 24.2694C11.9867 24.7324 14.3995 24.4948 16.5922 23.5865C18.7849 22.6783 20.6591 21.1402 21.9776 19.1668C23.2962 17.1935 24 14.8734 24 12.5C24 9.3174 22.7357 6.26515 20.4853 4.01472C18.2348 1.76428 15.1826 0.5 12 0.5ZM17.2015 10.4709C17.2972 10.3614 17.3701 10.2339 17.4159 10.0958C17.4617 9.95774 17.4794 9.8119 17.4679 9.66689C17.4565 9.52188 17.4162 9.38061 17.3494 9.25141C17.2825 9.12221 17.1905 9.00768 17.0788 8.91455C16.967 8.82143 16.8378 8.75159 16.6987 8.70916C16.5595 8.66672 16.4133 8.65254 16.2686 8.66745C16.1239 8.68235 15.9836 8.72605 15.8561 8.79596C15.7285 8.86588 15.6162 8.96059 15.5258 9.07454L10.8349 14.7025L8.40764 12.2742C8.20189 12.0755 7.92633 11.9655 7.64029 11.968C7.35426 11.9705 7.08065 12.0852 6.87838 12.2875C6.67612 12.4897 6.56139 12.7633 6.5589 13.0494C6.55642 13.3354 6.66638 13.611 6.86509 13.8167L10.1378 17.0895C10.245 17.1966 10.3733 17.2802 10.5146 17.335C10.6559 17.3898 10.8071 17.4145 10.9585 17.4076C11.1099 17.4007 11.2582 17.3624 11.3939 17.295C11.5297 17.2277 11.6499 17.1328 11.7469 17.0164L17.2015 10.4709Z" fill="#2F80ED"/>
</g>
</svg>
