<svg width="16" height="16" viewBox="0 0 16 16" fill="none" xmlns="http://www.w3.org/2000/svg">
<path d="M3.74433 12C3.43721 12 3.18099 11.8973 2.97566 11.692C2.77033 11.4867 2.66744 11.2302 2.66699 10.9227V5.07733C2.66699 4.77022 2.76988 4.514 2.97566 4.30867C3.18144 4.10333 3.43766 4.00044 3.74433 4H4.80699C5.11366 4 5.36988 4.10289 5.57566 4.30867C5.78144 4.51444 5.8841 4.77067 5.88366 5.07733V10.9233C5.88366 11.23 5.78099 11.4862 5.57566 11.692C5.37033 11.8978 5.1141 12.0004 4.80699 12H3.74433ZM7.47366 12C7.16699 12 6.91077 11.8973 6.70499 11.692C6.49921 11.4867 6.39633 11.2304 6.39633 10.9233V5.07667C6.39633 4.77 6.49921 4.514 6.70499 4.30867C6.91077 4.10333 7.16699 4.00044 7.47366 4H8.52299C8.8301 4 9.08655 4.10289 9.29232 4.30867C9.4981 4.51444 9.60077 4.77067 9.60032 5.07733V10.9233C9.60032 11.23 9.49766 11.4862 9.29232 11.692C9.08699 11.8978 8.83077 12.0004 8.52366 12H7.47366ZM11.1903 12C10.8837 12 10.6274 11.8973 10.4217 11.692C10.2159 11.4867 10.113 11.2304 10.113 10.9233V5.07667C10.113 4.77 10.2159 4.514 10.4217 4.30867C10.6274 4.10333 10.8837 4.00044 11.1903 4H12.253C12.5597 4 12.8159 4.10289 13.0217 4.30867C13.2274 4.51444 13.3301 4.77067 13.3297 5.07733V10.9233C13.3297 11.23 13.227 11.4862 13.0217 11.692C12.8163 11.8978 12.5601 12.0004 12.253 12H11.1903Z" fill="#155DEC"/>
</svg>
