<svg width="24" height="24" viewBox="0 0 24 24" fill="none" xmlns="http://www.w3.org/2000/svg">
<path d="M21.3081 14.5166C22.0681 15.2268 22.5635 16.1769 22.7348 17.2031C22.74 17.2338 22.7452 17.2644 22.7506 17.296C22.922 18.5304 22.6124 19.7862 21.8969 20.8037C21.109 21.8257 20.0841 22.5195 18.7973 22.7344C18.7667 22.7396 18.7361 22.7448 18.7045 22.7501C17.47 22.9215 16.2143 22.6119 15.1967 21.8965C14.1747 21.1086 13.481 20.0836 13.2661 18.7969C13.2609 18.7663 13.2557 18.7356 13.2503 18.7041C13.079 17.4696 13.3885 16.2138 14.104 15.1963C14.8919 14.1743 15.9168 13.4805 17.2036 13.2656C17.2342 13.2604 17.2649 13.2552 17.2964 13.2499C18.7929 13.0421 20.183 13.5439 21.3081 14.5166ZM15.938 15.5156C15.9076 15.5382 15.8773 15.5608 15.846 15.5841C15.212 16.0805 14.8784 16.8955 14.7661 17.6719C14.7029 18.5746 14.9568 19.3607 15.5161 20.0625C15.5387 20.0928 15.5613 20.1232 15.5846 20.1544C16.0853 20.7941 16.8911 21.1157 17.6723 21.2344C18.512 21.3236 19.3643 21.0567 20.0251 20.5379C20.6839 19.9932 21.0541 19.2789 21.2202 18.4483C21.3033 17.5006 21.0776 16.6814 20.4848 15.9375C20.4622 15.9072 20.4396 15.8768 20.4164 15.8456C19.9206 15.2122 19.1046 14.8766 18.3286 14.7656C17.4207 14.7072 16.6459 14.9516 15.938 15.5156Z" fill="white"/>
<path d="M9.30808 2.51662C10.0681 3.22682 10.5635 4.17691 10.7348 5.20314C10.74 5.23377 10.7452 5.26441 10.7506 5.29597C10.922 6.53043 10.6124 7.78622 9.89694 8.80373C9.10902 9.82573 8.08408 10.5195 6.79734 10.7344C6.7667 10.7396 6.73606 10.7448 6.7045 10.7501C5.47004 10.9215 4.21425 10.6119 3.19675 9.8965C2.17475 9.10858 1.48096 8.08363 1.26609 6.79689C1.26089 6.76625 1.25569 6.73562 1.25034 6.70405C1.07895 5.4696 1.38854 4.21381 2.10398 3.1963C2.8919 2.1743 3.91684 1.48051 5.20359 1.26564C5.23422 1.26044 5.26486 1.25525 5.29642 1.24989C6.79286 1.04213 8.18299 1.54395 9.30808 2.51662ZM3.93796 3.51564C3.90763 3.53824 3.87729 3.56084 3.84604 3.58412C3.21196 4.08048 2.87841 4.89554 2.76609 5.67189C2.70291 6.57456 2.95683 7.36065 3.51609 8.06251C3.53868 8.09285 3.56128 8.12318 3.58457 8.15443C4.08533 8.79413 4.89114 9.11571 5.67234 9.23439C6.512 9.32364 7.36434 9.05674 8.02509 8.53788C8.68395 7.99325 9.05406 7.27887 9.22019 6.44826C9.30331 5.50062 9.07758 4.6814 8.48484 3.93751C8.46224 3.90718 8.43964 3.87685 8.41635 3.8456C7.92055 3.21223 7.10465 2.87665 6.32859 2.76564C5.42071 2.70721 4.64588 2.95155 3.93796 3.51564Z" fill="white"/>
<path d="M5.19283 13.2093C5.25462 13.209 5.31642 13.2087 5.38009 13.2084C5.51066 13.208 5.64122 13.2077 5.77178 13.2075C5.90378 13.2073 6.03576 13.2067 6.16775 13.2056C8.60619 13.1862 8.60619 13.1862 9.56282 13.9688C9.59587 13.9943 9.62893 14.0198 9.66298 14.046C10.4224 14.6622 10.6768 15.6155 10.7816 16.5469C10.794 16.7699 10.7958 16.9921 10.7957 17.2154C10.7959 17.2769 10.7961 17.3383 10.7963 17.4017C10.7966 17.5308 10.7966 17.66 10.7964 17.7892C10.7962 17.9196 10.7965 18.0499 10.7973 18.1803C10.8098 20.0951 10.8098 20.0951 10.4066 20.9531C10.3858 20.9978 10.3651 21.0425 10.3438 21.0885C9.97845 21.814 9.37452 22.2633 8.62532 22.5469C8.03821 22.7321 7.46361 22.7885 6.85121 22.7924C6.79443 22.7928 6.73766 22.7932 6.67916 22.7936C6.55967 22.7942 6.44018 22.7947 6.3207 22.7951C6.19882 22.7957 6.07695 22.7966 5.95508 22.798C5.7782 22.8 5.60135 22.8008 5.42445 22.8012C5.37029 22.8021 5.31613 22.8029 5.26033 22.8037C4.93781 22.8029 4.72653 22.7698 4.45345 22.5938C4.25802 22.3482 4.19342 22.1567 4.21907 21.8438C4.30391 21.5966 4.41756 21.4245 4.64095 21.2813C4.78146 21.2344 4.87619 21.228 5.02304 21.227C5.09704 21.2263 5.09704 21.2263 5.17254 21.2255C5.22601 21.2252 5.27947 21.2249 5.33455 21.2245C5.44838 21.2232 5.56221 21.2218 5.67604 21.2205C5.85499 21.2186 6.03393 21.2168 6.21288 21.2156C7.41753 21.2213 7.41753 21.2213 8.53157 20.8125C8.56474 20.7986 8.59792 20.7846 8.6321 20.7702C8.74231 20.705 8.76367 20.6481 8.81282 20.5313C8.83113 20.4995 8.84944 20.4678 8.8683 20.4351C9.25503 19.7376 9.20995 18.9575 9.20615 18.1834C9.2054 18.0004 9.20615 17.8175 9.20705 17.6345C9.20882 16.5078 9.20882 16.5078 8.81282 15.4688C8.79886 15.4356 8.7849 15.4024 8.77052 15.3682C8.70533 15.258 8.64839 15.2367 8.53157 15.1875C8.49985 15.1692 8.46813 15.1509 8.43544 15.132C7.73789 14.7453 6.95785 14.7904 6.1837 14.7942C6.00073 14.7949 5.81781 14.7942 5.63484 14.7933C4.50811 14.7915 4.50811 14.7915 3.46907 15.1875C3.41931 15.2085 3.41931 15.2085 3.36855 15.2298C3.25834 15.295 3.23697 15.352 3.18782 15.4688C3.16951 15.5005 3.1512 15.5322 3.13234 15.5649C2.69879 16.3469 2.7914 17.2708 2.78886 18.1347C2.78812 18.3072 2.78658 18.4796 2.78499 18.6521C2.78513 18.7048 2.78527 18.7575 2.78542 18.8119C2.78289 19.0751 2.77847 19.275 2.62532 19.5C2.43312 19.6821 2.26393 19.7691 2.0013 19.7989C1.7862 19.777 1.62965 19.719 1.45345 19.5938C1.27902 19.3746 1.21355 19.2059 1.21152 18.9291C1.21107 18.8794 1.21062 18.8298 1.21015 18.7786C1.20985 18.6977 1.20985 18.6977 1.20955 18.6153C1.20928 18.5593 1.20902 18.5034 1.20874 18.4457C1.2083 18.3267 1.20799 18.2077 1.20781 18.0887C1.20736 17.9096 1.20591 17.7305 1.20442 17.5514C1.19958 16.4499 1.24045 15.3282 1.96907 14.4375C1.99457 14.4045 2.02007 14.3714 2.04634 14.3374C2.61784 13.6331 3.54348 13.322 4.41989 13.2286C4.67716 13.2088 4.93492 13.2101 5.19283 13.2093Z" fill="white"/>
<path d="M17.149 1.20757C17.2058 1.20719 17.2626 1.20681 17.3211 1.20642C17.4406 1.20577 17.56 1.20527 17.6795 1.2049C17.8014 1.20436 17.9233 1.20339 18.0451 1.20201C18.222 1.20001 18.3989 1.19926 18.5758 1.19878C18.6299 1.19796 18.6841 1.19713 18.7399 1.19629C19.0624 1.19715 19.2737 1.23017 19.5468 1.40623C19.7422 1.65177 19.8068 1.84326 19.7812 2.15623C19.6963 2.40338 19.5827 2.57554 19.3593 2.71873C19.2188 2.76557 19.124 2.77197 18.9772 2.773C18.9278 2.77348 18.8785 2.77396 18.8277 2.77446C18.7742 2.7748 18.7208 2.77514 18.6657 2.7755C18.5518 2.77681 18.438 2.77816 18.3242 2.77953C18.1452 2.78145 17.9663 2.78318 17.7873 2.78442C16.5827 2.77872 16.5827 2.77872 15.4687 3.18748C15.4189 3.20842 15.4189 3.20842 15.3681 3.22978C15.2579 3.29498 15.2366 3.35192 15.1874 3.46873C15.1691 3.50046 15.1508 3.53218 15.1319 3.56486C14.7452 4.26242 14.7903 5.04246 14.7941 5.8166C14.7948 5.99957 14.7941 6.18249 14.7932 6.36546C14.7914 7.49219 14.7914 7.49219 15.1874 8.53123C15.2014 8.56441 15.2153 8.59758 15.2297 8.63176C15.2949 8.74197 15.3518 8.76333 15.4687 8.81248C15.5004 8.83079 15.5321 8.8491 15.5648 8.86797C16.2623 9.25469 17.0424 9.20961 17.8165 9.20582C17.9995 9.20506 18.1824 9.20581 18.3654 9.20671C19.4921 9.20848 19.4921 9.20848 20.5312 8.81248C20.5643 8.79853 20.5975 8.78457 20.6317 8.77019C20.7419 8.70499 20.7632 8.64805 20.8124 8.53123C20.8307 8.49951 20.849 8.46779 20.8679 8.4351C21.3014 7.65308 21.2088 6.72917 21.2114 5.86532C21.2121 5.69285 21.2136 5.52041 21.2152 5.34795C21.2151 5.29521 21.215 5.24247 21.2148 5.18814C21.2173 4.92489 21.2218 4.72503 21.3749 4.49998C21.5671 4.3179 21.7363 4.23089 21.9989 4.20116C22.214 4.22303 22.3706 4.28098 22.5468 4.40623C22.7212 4.62538 22.7867 4.79413 22.7887 5.07091C22.7892 5.12058 22.7896 5.17025 22.7901 5.22142C22.7904 5.30227 22.7904 5.30227 22.7907 5.38475C22.7909 5.4407 22.7912 5.49666 22.7915 5.55431C22.7919 5.67331 22.7922 5.79231 22.7924 5.91132C22.7929 6.09042 22.7943 6.2695 22.7958 6.44859C22.7996 7.31629 22.7817 8.15386 22.4062 8.95311C22.3854 8.99776 22.3647 9.04242 22.3433 9.08842C21.9836 9.80287 21.3634 10.293 20.6132 10.5527C20.0115 10.7354 19.4124 10.7958 18.7845 10.7953C18.723 10.7955 18.6616 10.7957 18.5982 10.7959C18.4691 10.7963 18.3399 10.7963 18.2108 10.796C18.0804 10.7958 17.95 10.7961 17.8196 10.797C15.9049 10.8094 15.9049 10.8094 15.0468 10.4062C15.0021 10.3855 14.9575 10.3648 14.9115 10.3434C14.197 9.98372 13.7069 9.36352 13.4472 8.61327C13.2645 8.01159 13.2041 7.41246 13.2046 6.78459C13.2044 6.72313 13.2042 6.66166 13.2039 6.59833C13.2036 6.46917 13.2036 6.34001 13.2039 6.21084C13.2041 6.08045 13.2037 5.95007 13.2029 5.81968C13.1871 3.39286 13.1871 3.39286 13.9687 2.43748C13.9942 2.40443 14.0197 2.37138 14.0459 2.33733C14.6185 1.63174 15.5445 1.32228 16.4221 1.22864C16.6641 1.20941 16.9064 1.20912 17.149 1.20757Z" fill="white"/>
</svg>
