<svg width="16" height="16" viewBox="0 0 16 16" fill="none" xmlns="http://www.w3.org/2000/svg">
<g clip-path="url(#clip0_6273_41286)">
<path d="M10.8178 9.0852C10.8577 9.08504 10.8976 9.08488 10.9388 9.08471C11.0475 9.0843 11.1561 9.08428 11.2648 9.08436C11.356 9.08439 11.4471 9.08424 11.5383 9.08409C11.7536 9.08374 11.9689 9.08373 12.1842 9.08391C12.4053 9.0841 12.6264 9.08372 12.8475 9.08305C13.0383 9.0825 13.229 9.08232 13.4198 9.08242C13.5333 9.08247 13.6468 9.08239 13.7603 9.08196C13.8872 9.08149 14.014 9.08178 14.1408 9.08214C14.1777 9.08191 14.2146 9.08167 14.2526 9.08142C14.7523 9.08454 15.1276 9.20837 15.4918 9.55057C15.7602 9.82943 15.9104 10.194 15.9116 10.5815C15.9118 10.6164 15.912 10.6513 15.9121 10.6873C15.9122 10.7443 15.9122 10.7443 15.9123 10.8025C15.9124 10.8427 15.9126 10.883 15.9127 10.9245C15.9131 11.0348 15.9133 11.1451 15.9135 11.2554C15.9136 11.3244 15.9137 11.3935 15.9138 11.4625C15.9143 11.679 15.9146 11.8955 15.9147 12.1119C15.9148 12.361 15.9154 12.6101 15.9163 12.8592C15.917 13.0522 15.9173 13.2452 15.9173 13.4383C15.9173 13.5533 15.9175 13.6684 15.9181 13.7834C15.9187 13.912 15.9186 14.0407 15.9184 14.1693C15.9186 14.2069 15.9189 14.2444 15.9192 14.2831C15.917 14.7421 15.8 15.1345 15.4853 15.4766C15.113 15.8293 14.6787 15.9159 14.1815 15.9149C14.1409 15.915 14.1003 15.9152 14.0585 15.9153C13.9479 15.9158 13.8373 15.9158 13.7267 15.9157C13.6339 15.9157 13.5412 15.9158 13.4485 15.916C13.2296 15.9163 13.0106 15.9163 12.7917 15.9161C12.5667 15.916 12.3417 15.9163 12.1167 15.917C11.9227 15.9176 11.7288 15.9177 11.5348 15.9176C11.4193 15.9176 11.3038 15.9177 11.1883 15.9181C11.0593 15.9186 10.9303 15.9183 10.8013 15.9179C10.7449 15.9183 10.7449 15.9183 10.6872 15.9186C10.2088 15.9157 9.79971 15.7881 9.44872 15.4558C9.13054 15.1024 9.04919 14.7178 9.05084 14.2564C9.05066 14.2139 9.05045 14.1713 9.05019 14.1288C9.04964 14.0141 9.04967 13.8994 9.04985 13.7848C9.04994 13.6886 9.04975 13.5925 9.04956 13.4964C9.04913 13.2694 9.04917 13.0424 9.04953 12.8154C9.04989 12.5821 9.04945 12.3488 9.04861 12.1155C9.04792 11.9144 9.04771 11.7132 9.0479 11.5121C9.048 11.3924 9.04793 11.2726 9.04739 11.1529C9.0469 11.0401 9.04703 10.9274 9.04762 10.8147C9.04778 10.7543 9.04734 10.6938 9.04688 10.6334C9.05043 10.2063 9.18534 9.84432 9.4696 9.52334C9.84779 9.15764 10.3138 9.08414 10.8178 9.0852ZM10.2822 10.4063C10.2221 10.5053 10.2118 10.5795 10.2116 10.6947C10.2114 10.7278 10.2111 10.7609 10.2109 10.795C10.211 10.8311 10.2111 10.8672 10.2111 10.9044C10.211 10.9426 10.2108 10.9808 10.2107 11.0201C10.2103 11.1247 10.2102 11.2293 10.2103 11.3339C10.2103 11.4213 10.2102 11.5086 10.21 11.596C10.2097 11.8021 10.2097 12.0083 10.2099 12.2144C10.21 12.427 10.2097 12.6395 10.209 12.8521C10.2084 13.0347 10.2083 13.2172 10.2084 13.3998C10.2084 13.5089 10.2083 13.6179 10.2079 13.7269C10.2074 13.8484 10.2077 13.97 10.2081 14.0916C10.2078 14.1276 10.2076 14.1637 10.2074 14.2008C10.2076 14.234 10.2078 14.2672 10.208 14.3013C10.208 14.3301 10.208 14.3588 10.208 14.3884C10.2264 14.5143 10.2808 14.5934 10.3712 14.6809C10.4554 14.7283 10.5114 14.7306 10.6079 14.7309C10.6595 14.7314 10.6595 14.7314 10.7121 14.7318C10.7497 14.7317 10.7872 14.7316 10.826 14.7314C10.8657 14.7316 10.9054 14.7318 10.9463 14.7321C11.0551 14.7326 11.1638 14.7326 11.2726 14.7324C11.3635 14.7323 11.4544 14.7325 11.5452 14.7327C11.7596 14.7331 11.974 14.7331 12.1884 14.7327C12.4094 14.7324 12.6305 14.7328 12.8516 14.7336C13.0415 14.7343 13.2314 14.7345 13.4212 14.7344C13.5346 14.7342 13.648 14.7343 13.7614 14.7349C13.8878 14.7354 14.0142 14.735 14.1407 14.7345C14.1782 14.7348 14.2157 14.7351 14.2544 14.7354C14.4532 14.7353 14.4532 14.7353 14.6329 14.6592C14.7189 14.558 14.7238 14.5012 14.7245 14.3706C14.7248 14.3365 14.7251 14.3025 14.7253 14.2674C14.7255 14.2299 14.7256 14.1924 14.7257 14.1537C14.726 14.1144 14.7263 14.075 14.7265 14.0344C14.7273 13.9036 14.7278 13.7728 14.7283 13.642C14.7284 13.597 14.7286 13.552 14.7288 13.5069C14.7294 13.3197 14.73 13.1324 14.7304 12.9452C14.7309 12.6768 14.7319 12.4084 14.7337 12.14C14.7349 11.9513 14.7355 11.7626 14.7357 11.5739C14.7358 11.4612 14.7362 11.3485 14.7372 11.2357C14.7383 11.11 14.7382 10.9842 14.738 10.8585C14.7385 10.8211 14.739 10.7838 14.7395 10.7453C14.7442 10.5389 14.7442 10.5389 14.6444 10.3683C14.5312 10.2903 14.4764 10.2773 14.3403 10.2767C14.3062 10.2765 14.2722 10.2762 14.2371 10.276C14.1996 10.2759 14.1621 10.2758 14.1234 10.2757C14.084 10.2755 14.0447 10.2753 14.0041 10.2751C13.8959 10.2746 13.7877 10.2743 13.6794 10.274C13.6118 10.2738 13.5442 10.2736 13.4766 10.2734C13.2651 10.2729 13.0537 10.2724 12.8422 10.2721C12.598 10.2718 12.3538 10.271 12.1097 10.2698C11.921 10.2688 11.7323 10.2684 11.5436 10.2682C11.4309 10.2682 11.3182 10.2679 11.2054 10.2671C11.0797 10.2662 10.9539 10.2664 10.8281 10.2666C10.7908 10.2662 10.7535 10.2658 10.715 10.2654C10.4703 10.2625 10.4703 10.2625 10.2822 10.4063Z" fill="#155DEC"/>
<path d="M1.88089 9.0852C1.92082 9.08504 1.96075 9.08488 2.00189 9.08471C2.11056 9.0843 2.21923 9.08428 2.3279 9.08436C2.41906 9.08439 2.51022 9.08424 2.60137 9.08409C2.81669 9.08374 3.03201 9.08373 3.24733 9.08391C3.46844 9.0841 3.68954 9.08372 3.91065 9.08305C4.1014 9.0825 4.29214 9.08232 4.48289 9.08242C4.59642 9.08247 4.70993 9.08239 4.82345 9.08196C4.95027 9.08149 5.07707 9.08178 5.20388 9.08214C5.2408 9.08191 5.27771 9.08167 5.31574 9.08142C5.81539 9.08454 6.1907 9.20837 6.55492 9.55057C6.82327 9.82943 6.97352 10.194 6.97471 10.5815C6.97489 10.6164 6.97507 10.6513 6.97526 10.6873C6.97531 10.7443 6.97531 10.7443 6.97536 10.8025C6.97552 10.8427 6.97567 10.883 6.97583 10.9245C6.97624 11.0348 6.97644 11.1451 6.97658 11.2554C6.97667 11.3244 6.9768 11.3935 6.97694 11.4625C6.97737 11.679 6.97767 11.8955 6.97779 12.1119C6.97793 12.361 6.97848 12.6101 6.97939 12.8592C6.98006 13.0522 6.98038 13.2452 6.98042 13.4383C6.98045 13.5533 6.98063 13.6684 6.98119 13.7834C6.98181 13.912 6.98167 14.0407 6.98146 14.1693C6.98175 14.2069 6.98204 14.2444 6.98234 14.2831C6.98009 14.7421 6.86315 15.1345 6.54845 15.4766C6.17609 15.8293 5.74185 15.9159 5.24458 15.9149C5.20399 15.915 5.16341 15.9152 5.12159 15.9153C5.01098 15.9158 4.90038 15.9158 4.78977 15.9157C4.69706 15.9157 4.60435 15.9158 4.51163 15.916C4.29268 15.9163 4.07372 15.9163 3.85476 15.9161C3.62977 15.916 3.40478 15.9163 3.17978 15.917C2.98582 15.9176 2.79186 15.9177 2.5979 15.9176C2.48241 15.9176 2.36692 15.9177 2.25142 15.9181C2.12243 15.9186 1.99345 15.9183 1.86445 15.9179C1.80797 15.9183 1.80797 15.9183 1.75034 15.9186C1.28978 15.9158 0.875984 15.7986 0.536 15.4778C0.210981 15.1238 0.107319 14.7233 0.110402 14.2527C0.110232 14.2105 0.110009 14.1683 0.109738 14.1261C0.109173 14.0126 0.109387 13.8992 0.109785 13.7858C0.110105 13.6663 0.109807 13.5468 0.109612 13.4274C0.109385 13.2268 0.109682 13.0263 0.11028 12.8257C0.110959 12.5948 0.11074 12.364 0.110051 12.1331C0.109481 11.9338 0.109405 11.7346 0.109731 11.5354C0.109925 11.4168 0.109956 11.2983 0.109539 11.1797C0.109174 11.0682 0.109435 10.9566 0.110151 10.8451C0.110391 10.7853 0.110027 10.7256 0.109635 10.6658C0.113845 10.2291 0.2409 9.85239 0.532704 9.52347C0.910492 9.15746 1.37714 9.08415 1.88089 9.0852ZM1.34533 10.4063C1.29266 10.5171 1.27496 10.6049 1.27468 10.7272C1.27446 10.7597 1.27424 10.7923 1.27401 10.8258C1.27409 10.8612 1.27416 10.8966 1.27424 10.933C1.27408 10.9705 1.27392 11.008 1.27376 11.0467C1.2734 11.1494 1.27332 11.252 1.2734 11.3547C1.27343 11.4405 1.27328 11.5263 1.27313 11.6121C1.27279 11.8146 1.27277 12.0171 1.27296 12.2196C1.27315 12.4283 1.27277 12.6369 1.2721 12.8456C1.27155 13.025 1.27136 13.2044 1.27146 13.3837C1.27152 13.4908 1.27144 13.5978 1.271 13.7048C1.27062 13.8242 1.27083 13.9436 1.27119 14.063C1.27095 14.0983 1.27071 14.1336 1.27047 14.17C1.27163 14.3434 1.27278 14.4784 1.37658 14.625C1.47445 14.7151 1.53918 14.7306 1.67097 14.7309C1.72256 14.7314 1.72256 14.7314 1.77519 14.7318C1.81277 14.7317 1.85036 14.7316 1.88908 14.7314C1.92878 14.7316 1.96847 14.7318 2.00937 14.7321C2.11817 14.7326 2.22695 14.7326 2.33575 14.7324C2.42661 14.7323 2.51747 14.7325 2.60834 14.7327C2.82271 14.7331 3.03708 14.7331 3.25146 14.7327C3.47254 14.7324 3.6936 14.7328 3.91468 14.7336C4.10457 14.7343 4.29446 14.7345 4.48435 14.7344C4.59773 14.7342 4.7111 14.7343 4.82448 14.7349C4.95092 14.7354 5.07734 14.735 5.20378 14.7345C5.2413 14.7348 5.27882 14.7351 5.31748 14.7354C5.51632 14.7353 5.51632 14.7353 5.69597 14.6592C5.78198 14.558 5.78687 14.5012 5.78764 14.3706C5.7879 14.3365 5.78817 14.3025 5.78845 14.2674C5.78858 14.2299 5.78872 14.1924 5.78885 14.1537C5.78911 14.1144 5.78936 14.075 5.78963 14.0344C5.79045 13.9036 5.79093 13.7728 5.79137 13.642C5.79154 13.597 5.79171 13.552 5.79187 13.5069C5.79255 13.3197 5.79314 13.1324 5.79349 12.9452C5.794 12.6768 5.79503 12.4084 5.79681 12.14C5.79802 11.9513 5.79863 11.7626 5.7988 11.5739C5.79891 11.4612 5.79929 11.3485 5.8003 11.2357C5.80142 11.11 5.80129 10.9842 5.80106 10.8585C5.80157 10.8211 5.80209 10.7838 5.80261 10.7453C5.80729 10.5389 5.80729 10.5389 5.70747 10.3683C5.59428 10.2903 5.53952 10.2773 5.40338 10.2767C5.36934 10.2765 5.3353 10.2762 5.30022 10.276C5.26271 10.2759 5.22519 10.2758 5.18654 10.2757C5.14715 10.2755 5.10777 10.2753 5.0672 10.2751C4.95898 10.2746 4.85076 10.2743 4.74255 10.274C4.67495 10.2738 4.60734 10.2736 4.53974 10.2734C4.32825 10.2729 4.11676 10.2724 3.90527 10.2721C3.6611 10.2718 3.41694 10.271 3.17277 10.2698C2.98407 10.2688 2.79538 10.2684 2.60668 10.2682C2.49397 10.2682 2.38126 10.2679 2.26854 10.2671C2.14277 10.2662 2.01702 10.2664 1.89125 10.2666C1.85392 10.2662 1.81659 10.2658 1.77813 10.2654C1.53269 10.2619 1.53269 10.2619 1.34533 10.4063Z" fill="#155DEC"/>
<path d="M1.81979 0.0851965C1.86038 0.0850368 1.90096 0.0848771 1.94278 0.0847125C2.05339 0.0842966 2.16399 0.0842757 2.2746 0.0843551C2.36731 0.0843887 2.46002 0.0842355 2.55274 0.0840862C2.77169 0.0837403 2.99065 0.0837253 3.20961 0.0839148C3.4346 0.0841033 3.65959 0.083719 3.88459 0.0830532C4.07855 0.0825006 4.2725 0.0823155 4.46646 0.0824169C4.58196 0.0824732 4.69745 0.0823944 4.81295 0.081957C4.94194 0.0814868 5.07092 0.0817836 5.19992 0.0821447C5.2564 0.0817864 5.2564 0.0817864 5.31403 0.0814209C5.79251 0.0843665 6.20155 0.211992 6.55254 0.544219C6.87072 0.897639 6.95208 1.28221 6.95042 1.74367C6.9506 1.78621 6.95082 1.82875 6.95107 1.87129C6.95163 1.98596 6.95159 2.10063 6.95142 2.21531C6.95132 2.31144 6.95151 2.40757 6.9517 2.5037C6.95214 2.7307 6.95209 2.9577 6.95173 3.18471C6.95137 3.418 6.95181 3.65127 6.95265 3.88456C6.95335 4.08569 6.95355 4.28681 6.95337 4.48794C6.95326 4.60769 6.95333 4.72744 6.95387 4.8472C6.95436 4.95991 6.95423 5.07261 6.95365 5.18532C6.95348 5.24578 6.95392 5.30624 6.95439 5.3667C6.95083 5.79381 6.81592 6.15574 6.53166 6.47671C6.15405 6.84186 5.68867 6.91609 5.18536 6.91437C5.14563 6.91448 5.10591 6.91459 5.06497 6.9147C4.95689 6.91498 4.84881 6.91487 4.74072 6.91467C4.62702 6.91452 4.51332 6.91466 4.39963 6.91476C4.20874 6.91487 4.01785 6.91473 3.82696 6.91443C3.60706 6.91409 3.38716 6.9142 3.16726 6.91454C2.97765 6.91483 2.78804 6.91486 2.59844 6.9147C2.48555 6.91461 2.37266 6.91459 2.25977 6.9148C2.13377 6.91501 2.00777 6.91471 1.88177 6.91437C1.8265 6.91456 1.8265 6.91456 1.77012 6.91475C1.27005 6.91221 0.874385 6.80187 0.506152 6.44839C0.242364 6.16529 0.090848 5.80709 0.089654 5.41854C0.0894755 5.38363 0.0892971 5.34873 0.0891132 5.31276C0.0890783 5.27476 0.0890434 5.23675 0.0890074 5.19759C0.0888522 5.15733 0.0886971 5.11707 0.0885372 5.07558C0.0881282 4.96529 0.0879259 4.855 0.0877869 4.74471C0.0876951 4.67565 0.0875668 4.6066 0.0874274 4.53754C0.0870002 4.32107 0.0866981 4.10459 0.0865773 3.88811C0.0864375 3.63903 0.0858903 3.38995 0.0849836 3.14087C0.0843055 2.94784 0.0839926 2.75481 0.083951 2.56178C0.0839184 2.44674 0.0837374 2.3317 0.0831754 2.21666C0.0825592 2.08803 0.0827017 1.95941 0.0829039 1.83077C0.0826159 1.79321 0.0823279 1.75565 0.0820312 1.71695C0.0842799 1.25795 0.201223 0.865549 0.515918 0.523467C0.888277 0.170764 1.32252 0.0841793 1.81979 0.0851965ZM1.31279 1.40628C1.27321 1.48545 1.27725 1.54081 1.27673 1.62947C1.27646 1.66351 1.2762 1.69756 1.27592 1.73263C1.27579 1.77015 1.27565 1.80767 1.27552 1.84632C1.27526 1.8857 1.275 1.92508 1.27474 1.96566C1.27392 2.09646 1.27344 2.22726 1.273 2.35806C1.27283 2.40308 1.27266 2.4481 1.27249 2.49311C1.27182 2.68037 1.27123 2.86762 1.27088 3.05487C1.27037 3.32328 1.26934 3.59168 1.26756 3.86008C1.26635 4.04878 1.26574 4.23747 1.26557 4.42617C1.26546 4.53889 1.26508 4.6516 1.26407 4.76431C1.26295 4.89009 1.26308 5.01583 1.26331 5.14161C1.2628 5.17894 1.26228 5.21626 1.26175 5.25472C1.25708 5.46115 1.25708 5.46115 1.3569 5.63181C1.47008 5.70977 1.52485 5.72277 1.66099 5.72338C1.71205 5.72371 1.71205 5.72371 1.76414 5.72406C1.80166 5.72414 1.83918 5.72422 1.87783 5.72431C1.93691 5.72462 1.93691 5.72462 1.99717 5.72493C2.10539 5.72548 2.2136 5.72581 2.32182 5.72606C2.38942 5.72623 2.45703 5.72642 2.52463 5.72661C2.73612 5.72721 2.9476 5.72765 3.15909 5.72791C3.40327 5.72822 3.64743 5.72904 3.8916 5.7303C4.08029 5.73125 4.26899 5.73171 4.45769 5.73181C4.5704 5.73189 4.68311 5.73217 4.79582 5.73295C4.9216 5.73381 5.04735 5.73368 5.17312 5.73347C5.21045 5.73387 5.24778 5.73427 5.28623 5.73468C5.4825 5.73483 5.4825 5.73483 5.66137 5.66317C5.75984 5.5447 5.78935 5.45941 5.78969 5.30532C5.78991 5.27224 5.79013 5.23916 5.79036 5.20508C5.79028 5.16896 5.79021 5.13284 5.79013 5.09562C5.79029 5.05745 5.79045 5.01927 5.79061 4.97995C5.79097 4.87535 5.79105 4.77075 5.79097 4.66615C5.79093 4.57879 5.79109 4.49142 5.79124 4.40406C5.79158 4.19792 5.7916 3.99179 5.79141 3.78565C5.79122 3.5731 5.7916 3.36055 5.79227 3.148C5.79282 2.9654 5.79301 2.78281 5.79291 2.60021C5.79285 2.4912 5.79293 2.3822 5.79337 2.27319C5.79383 2.15162 5.79354 2.03006 5.79318 1.90848C5.79342 1.87242 5.79366 1.83636 5.7939 1.79921C5.79368 1.76605 5.79346 1.73288 5.79324 1.69871C5.79324 1.66998 5.79325 1.64125 5.79325 1.61165C5.7749 1.48572 5.72051 1.40668 5.63002 1.31915C5.54585 1.27173 5.48981 1.26941 5.3934 1.26916C5.35901 1.26886 5.32461 1.26855 5.28918 1.26823C5.2516 1.26837 5.21401 1.26851 5.17529 1.26865C5.13559 1.26844 5.0959 1.26822 5.055 1.268C4.9462 1.26744 4.83741 1.26748 4.72862 1.26766C4.63775 1.26775 4.54689 1.26756 4.45603 1.26737C4.24166 1.26694 4.02728 1.26698 3.81291 1.26734C3.59183 1.2677 3.37077 1.26726 3.14969 1.26642C2.9598 1.26573 2.76991 1.26552 2.58001 1.26571C2.46664 1.26581 2.35327 1.26574 2.23989 1.2652C2.11345 1.26462 1.98703 1.26506 1.86059 1.2656C1.82307 1.2653 1.78555 1.265 1.74689 1.26469C1.50218 1.26276 1.50218 1.26276 1.31279 1.40628Z" fill="#155DEC"/>
<path d="M14.7575 0.931595C15.4131 1.50199 15.83 2.31959 15.906 3.18745C15.9602 4.11296 15.7045 5.00923 15.0935 5.7187C14.4273 6.46438 13.5786 6.8457 12.5865 6.91304C11.6761 6.94066 10.8173 6.58145 10.1521 5.97456C9.66871 5.51892 9.35155 4.95583 9.18722 4.31245C9.18058 4.2878 9.17393 4.26315 9.16708 4.23775C8.96554 3.38519 9.15025 2.44171 9.60114 1.70018C9.73472 1.48943 9.8885 1.30386 10.0622 1.12495C10.0833 1.10163 10.1043 1.07831 10.1259 1.05428C11.3341 -0.242088 13.4608 -0.159609 14.7575 0.931595ZM10.8601 1.98848C10.447 2.47184 10.2399 3.04741 10.2751 3.68282C10.3249 4.25539 10.595 4.80131 11.0322 5.17769C11.5219 5.57968 12.0812 5.76939 12.7121 5.72568C13.32 5.66416 13.8465 5.36005 14.2445 4.90083C14.6472 4.37547 14.7933 3.77192 14.7096 3.1181C14.6063 2.54977 14.274 2.03118 13.8122 1.68745C13.5449 1.51088 13.2819 1.38875 12.9685 1.31245C12.9445 1.30649 12.9206 1.30053 12.896 1.29439C12.1357 1.1747 11.3871 1.42644 10.8601 1.98848Z" fill="#155DEC"/>
</g>
<defs>
<clipPath id="clip0_6273_41286">
<rect width="16" height="16" fill="white"/>
</clipPath>
</defs>
</svg>
