<svg width="25" height="24" viewBox="0 0 25 24" fill="none" xmlns="http://www.w3.org/2000/svg">
<path d="M4.66797 7C4.66797 5.114 4.66797 4.172 5.25397 3.586C5.83997 3 6.78197 3 8.66797 3H16.668C18.554 3 19.496 3 20.082 3.586C20.668 4.172 20.668 5.114 20.668 7V15C20.668 17.828 20.668 19.243 19.789 20.121C18.911 21 17.496 21 14.668 21H10.668C7.83997 21 6.42497 21 5.54697 20.121C4.66797 19.243 4.66797 17.828 4.66797 15V7Z" stroke="white" stroke-width="2"/>
<path d="M15.668 18V21M9.66797 18V21M9.66797 8H15.668M9.66797 12H15.668" stroke="white" stroke-width="2" stroke-linecap="round"/>
</svg>
