<svg width="16" height="16" viewBox="0 0 16 16" fill="none" xmlns="http://www.w3.org/2000/svg">
<path d="M2.66797 4.66667C2.66797 3.40933 2.66797 2.78133 3.05864 2.39067C3.4493 2 4.0773 2 5.33464 2H10.668C11.9253 2 12.5533 2 12.944 2.39067C13.3346 2.78133 13.3346 3.40933 13.3346 4.66667V10C13.3346 11.8853 13.3346 12.8287 12.7486 13.414C12.1633 14 11.22 14 9.33464 14H6.66797C4.78264 14 3.8393 14 3.25397 13.414C2.66797 12.8287 2.66797 11.8853 2.66797 10V4.66667Z" stroke="#155DEC" stroke-width="1.33333"/>
<path d="M10.002 12V14M6.00195 12V14M6.00195 5.33337H10.002M6.00195 8.00004H10.002" stroke="#155DEC" stroke-width="1.33333" stroke-linecap="round"/>
</svg>
