<svg width="21" height="20" viewBox="0 0 21 20" fill="none" xmlns="http://www.w3.org/2000/svg">
<g id="icon-park-outline:topic-discussion">
<g id="Group">
<path id="Vector" d="M18.7077 5.33398C18.7077 4.22942 17.8123 3.33398 16.7077 3.33398H4.04101C2.93645 3.33398 2.04102 4.22941 2.04102 5.33398V13.834C2.04102 14.9386 2.93645 15.834 4.04102 15.834H7.46259C7.99302 15.834 8.50173 16.0447 8.8768 16.4198L8.96014 16.5031C9.74118 17.2842 11.0075 17.2842 11.7886 16.5031L11.8719 16.4198C12.247 16.0447 12.7557 15.834 13.2861 15.834H16.7077C17.8123 15.834 18.7077 14.9386 18.7077 13.834V5.33398Z" stroke="#2F80ED" stroke-width="1.33" stroke-linecap="round" stroke-linejoin="round"/>
<path id="Vector_2" d="M9.12402 6.24951L8.70736 13.3328M12.0407 6.24951L11.624 13.3328M14.124 8.33285H7.04069M13.7074 11.2495H6.62402" stroke="#2F80ED" stroke-width="1.33" stroke-linecap="round"/>
</g>
</g>
</svg>
