<svg width="22" height="22" viewBox="0 0 22 22" fill="none" xmlns="http://www.w3.org/2000/svg">
<path fill-rule="evenodd" clip-rule="evenodd" d="M11 1.75C8.54675 1.75 6.19397 2.72455 4.45926 4.45926C2.72455 6.19397 1.75 8.54675 1.75 11C1.75 13.4533 2.72455 15.806 4.45926 17.5407C6.19397 19.2754 8.54675 20.25 11 20.25C13.4533 20.25 15.806 19.2754 17.5407 17.5407C19.2754 15.806 20.25 13.4533 20.25 11C20.25 8.54675 19.2754 6.19397 17.5407 4.45926C15.806 2.72455 13.4533 1.75 11 1.75ZM0.25 11C0.25 5.063 5.063 0.25 11 0.25C16.937 0.25 21.75 5.063 21.75 11C21.75 16.937 16.937 21.75 11 21.75C5.063 21.75 0.25 16.937 0.25 11ZM11 4.25C11.1989 4.25 11.3897 4.32902 11.5303 4.46967C11.671 4.61032 11.75 4.80109 11.75 5V5.317C13.38 5.609 14.75 6.834 14.75 8.5C14.75 8.69891 14.671 8.88968 14.5303 9.03033C14.3897 9.17098 14.1989 9.25 14 9.25C13.8011 9.25 13.6103 9.17098 13.4697 9.03033C13.329 8.88968 13.25 8.69891 13.25 8.5C13.25 7.822 12.686 7.103 11.75 6.847V10.317C13.38 10.609 14.75 11.834 14.75 13.5C14.75 15.166 13.38 16.391 11.75 16.683V17C11.75 17.1989 11.671 17.3897 11.5303 17.5303C11.3897 17.671 11.1989 17.75 11 17.75C10.8011 17.75 10.6103 17.671 10.4697 17.5303C10.329 17.3897 10.25 17.1989 10.25 17V16.683C8.62 16.391 7.25 15.166 7.25 13.5C7.25 13.3011 7.32902 13.1103 7.46967 12.9697C7.61032 12.829 7.80109 12.75 8 12.75C8.19891 12.75 8.38968 12.829 8.53033 12.9697C8.67098 13.1103 8.75 13.3011 8.75 13.5C8.75 14.178 9.314 14.897 10.25 15.152V11.683C8.62 11.391 7.25 10.166 7.25 8.5C7.25 6.834 8.62 5.609 10.25 5.317V5C10.25 4.80109 10.329 4.61032 10.4697 4.46967C10.6103 4.32902 10.8011 4.25 11 4.25ZM10.25 6.847C9.314 7.103 8.75 7.822 8.75 8.5C8.75 9.178 9.314 9.897 10.25 10.152V6.847ZM11.75 11.847V15.153C12.686 14.897 13.25 14.179 13.25 13.5C13.25 12.822 12.686 12.102 11.75 11.847Z" fill="#155DEC"/>
</svg>
