<svg width="14" height="14" viewBox="0 0 14 14" fill="none" xmlns="http://www.w3.org/2000/svg">
<g id="Group 14205">
<path id="Vector" d="M5.52222 0.776127V0.777778V5.44444C5.52222 5.4738 5.51762 5.48509 5.51719 5.48615L5.51717 5.48619C5.51694 5.48677 5.51665 5.4874 5.51623 5.48819C5.51586 5.48886 5.51539 5.48965 5.51476 5.49059C5.51333 5.49273 5.50999 5.49728 5.50325 5.50402C5.4965 5.51077 5.492 5.51406 5.48997 5.51542C5.48802 5.51672 5.48691 5.51723 5.48608 5.51756C5.48582 5.51767 5.47524 5.52229 5.44609 5.52222H5.44444H0.777778C0.748447 5.52222 0.737342 5.51763 0.736572 5.51731L0.736541 5.5173C0.73564 5.51693 0.734548 5.51643 0.732693 5.51518C0.730752 5.51388 0.726399 5.51069 0.719835 5.50411C0.713018 5.49727 0.70958 5.49259 0.708031 5.49028C0.706538 5.48805 0.705828 5.48657 0.705312 5.48529L0.705298 5.48525C0.704748 5.4839 0.700129 5.47251 0.7 5.44337V0.777778C0.7 0.748456 0.704589 0.737349 0.70491 0.736573L0.704923 0.736541C0.705288 0.73564 0.705795 0.734548 0.707041 0.732693C0.708345 0.730752 0.711526 0.726399 0.718113 0.719835C0.724954 0.713018 0.729629 0.70958 0.731943 0.708031C0.734175 0.706538 0.735653 0.705829 0.73693 0.705312L0.736966 0.705298C0.738323 0.704747 0.749716 0.700129 0.778849 0.7H5.44444C5.4738 0.7 5.48509 0.704602 5.48615 0.705034L5.48619 0.705051C5.48726 0.705483 5.48854 0.706086 5.49059 0.707462C5.49273 0.708896 5.49728 0.712227 5.50402 0.718975C5.51078 0.725725 5.51406 0.730222 5.51542 0.732254C5.51672 0.734198 5.51723 0.73531 5.51756 0.736145C5.51767 0.736403 5.52229 0.746978 5.52222 0.776127ZM6.22222 0.777778V5.44444C6.22222 5.66481 6.14755 5.84967 5.99822 5.999C5.84889 6.14833 5.6643 6.22274 5.44444 6.22222H0.777778C0.557407 6.22222 0.372815 6.14755 0.224 5.99822C0.0751853 5.84889 0.000518518 5.6643 0 5.44444L6.22222 0.777778ZM13.3 0.776126V0.777778V5.44444C13.3 5.47426 13.2953 5.48543 13.2949 5.48619C13.2945 5.48726 13.2939 5.48854 13.2925 5.49059C13.2911 5.49273 13.2878 5.49728 13.281 5.50402C13.2743 5.51078 13.2698 5.51406 13.2677 5.51542C13.2658 5.51672 13.2647 5.51723 13.2639 5.51756C13.2636 5.51767 13.253 5.52229 13.2239 5.52222H13.2222H8.55555C8.52572 5.52222 8.51475 5.51747 8.51432 5.5173C8.51393 5.51714 8.51351 5.51696 8.513 5.5167C8.51234 5.51636 8.51153 5.51589 8.51047 5.51518C8.50853 5.51388 8.50417 5.51069 8.49761 5.50411C8.49079 5.49727 8.48736 5.49259 8.48581 5.49028C8.48431 5.48805 8.4836 5.48657 8.48309 5.48529C8.48261 5.48411 8.47791 5.47278 8.47778 5.44336V0.777778C8.47778 0.748445 8.48237 0.737341 8.48269 0.736571L8.4827 0.73654C8.48306 0.73564 8.48357 0.734547 8.48482 0.732692C8.48612 0.730752 8.4893 0.726399 8.49589 0.719835L8.00178 0.224L8.49589 0.719834C8.50273 0.713018 8.5074 0.70958 8.50972 0.708031C8.51195 0.706538 8.51343 0.705829 8.51471 0.705312L8.51474 0.705297C8.5161 0.704746 8.5275 0.700129 8.55662 0.7H13.2222C13.2516 0.7 13.2629 0.7046 13.2639 0.705034L13.264 0.705051C13.265 0.705482 13.2663 0.706085 13.2684 0.707462C13.2705 0.708895 13.2751 0.712226 13.2818 0.718974C13.2886 0.725725 13.2918 0.730223 13.2932 0.732255C13.2945 0.7342 13.295 0.735312 13.2953 0.736148C13.2954 0.736405 13.3001 0.746979 13.3 0.776126ZM14 0.777778V5.44444C14 5.66481 13.9253 5.84967 13.776 5.999C13.6267 6.14833 13.4421 6.22274 13.2222 6.22222H8.55555C8.33518 6.22222 8.15059 6.14755 8.00178 5.99822L14 0.777778ZM5.52222 8.5539V8.55555V13.2222C5.52222 13.252 5.51748 13.2632 5.51717 13.264C5.51674 13.265 5.51614 13.2663 5.51476 13.2684C5.51333 13.2705 5.51 13.2751 5.50325 13.2818C5.4965 13.2885 5.492 13.2918 5.48997 13.2932C5.48902 13.2938 5.48827 13.2943 5.48765 13.2946C5.487 13.295 5.4865 13.2952 5.48607 13.2953C5.48582 13.2954 5.47524 13.3001 5.44609 13.3H5.44444H0.777778C0.747949 13.3 0.73697 13.2952 0.736542 13.2951C0.73564 13.2947 0.734548 13.2942 0.732692 13.293C0.730752 13.2917 0.726399 13.2885 0.719834 13.2819C0.713018 13.275 0.70958 13.2704 0.708031 13.2681C0.706538 13.2658 0.705829 13.2643 0.705312 13.2631L0.705297 13.263C0.704746 13.2617 0.700129 13.2503 0.7 13.2211V8.55555C0.7 8.52623 0.70459 8.51512 0.70491 8.51435L0.704923 8.51432C0.705288 8.51342 0.705795 8.51232 0.707041 8.51047C0.708345 8.50853 0.711527 8.50417 0.718114 8.49761C0.724954 8.49079 0.729628 8.48736 0.731943 8.48581C0.734174 8.48431 0.735653 8.4836 0.73693 8.48309L0.736966 8.48307C0.738325 8.48252 0.74972 8.4779 0.778857 8.47778H5.44444C5.47426 8.47778 5.48544 8.48252 5.48619 8.48283C5.48726 8.48326 5.48854 8.48386 5.49059 8.48524C5.49273 8.48667 5.49728 8.49 5.50402 8.49675C5.51078 8.5035 5.51406 8.508 5.51542 8.51003C5.51672 8.51197 5.51723 8.51309 5.51756 8.51392C5.51767 8.51418 5.52229 8.52475 5.52222 8.5539ZM6.22222 8.55555V13.2222C6.22222 13.4426 6.14755 13.6274 5.99822 13.7768C5.84889 13.9261 5.6643 14.0005 5.44444 14H0.777778C0.557407 14 0.372815 13.9253 0.224 13.776C0.0751853 13.6267 0.000518518 13.4421 0 13.2222L6.22222 8.55555Z" stroke="#2F80ED" stroke-width="1.4"/>
<path id="Vector_2" d="M10.8885 14.0001C10.6681 14.0001 10.4835 13.9254 10.3347 13.7761C10.1859 13.6267 10.1112 13.4421 10.1107 13.2223V11.6667H8.53568C8.31531 11.6667 8.13382 11.5921 7.99123 11.4427C7.84864 11.2934 7.77734 11.1088 7.77734 10.8889C7.77734 10.6686 7.85201 10.484 8.00134 10.3352C8.15068 10.1863 8.33527 10.1117 8.55512 10.1112H10.1107V8.53617C10.1107 8.3158 10.1853 8.13431 10.3347 7.99172C10.484 7.84913 10.6686 7.77783 10.8885 7.77783C11.1088 7.77783 11.2937 7.8525 11.443 8.00183C11.5923 8.15116 11.6668 8.33576 11.6662 8.55561V10.1112H13.2412C13.4616 10.1112 13.6431 10.1858 13.7857 10.3352C13.9283 10.4845 13.9996 10.6691 13.9996 10.8889C13.9996 11.1093 13.9249 11.2942 13.7756 11.4435C13.6262 11.5928 13.4416 11.6672 13.2218 11.6667H11.6662V13.2417C11.6662 13.4621 11.5916 13.6436 11.4422 13.7862C11.2929 13.9288 11.1083 14.0001 10.8885 14.0001Z" fill="#2F80ED"/>
</g>
</svg>
