<svg width="25" height="24" viewBox="0 0 25 24" fill="none" xmlns="http://www.w3.org/2000/svg">
<path d="M3.33325 6.75C3.33325 5.75544 3.72834 4.80161 4.4316 4.09835C5.13486 3.39509 6.08869 3 7.08325 3H17.5833C18.5778 3 19.5316 3.39509 20.2349 4.09835C20.9382 4.80161 21.3333 5.75544 21.3333 6.75V17.25C21.3333 18.2446 20.9382 19.1984 20.2349 19.9016C19.5316 20.6049 18.5778 21 17.5833 21H7.08325C6.08869 21 5.13486 20.6049 4.4316 19.9016C3.72834 19.1984 3.33325 18.2446 3.33325 17.25V6.75ZM7.08325 4.5C6.48651 4.5 5.91422 4.73705 5.49226 5.15901C5.0703 5.58097 4.83325 6.15326 4.83325 6.75V7.5H11.5833V4.5H7.08325ZM13.0833 4.5V15H19.8333V6.75C19.8333 6.15326 19.5962 5.58097 19.1742 5.15901C18.7523 4.73705 18.18 4.5 17.5833 4.5H13.0833ZM19.8333 16.5H13.0833V19.5H17.5833C18.18 19.5 18.7523 19.2629 19.1742 18.841C19.5962 18.419 19.8333 17.8467 19.8333 17.25V16.5ZM11.5833 19.5V9H4.83325V17.25C4.83325 17.8467 5.0703 18.419 5.49226 18.841C5.91422 19.2629 6.48651 19.5 7.08325 19.5H11.5833Z" fill="white"/>
</svg>
