<svg width="16" height="16" viewBox="0 0 16 16" fill="none" xmlns="http://www.w3.org/2000/svg">
<path d="M16 4.57143V0H11.4286V1.71429H8.57143C8.26832 1.71429 7.97763 1.83469 7.76331 2.04902C7.54898 2.26335 7.42857 2.55404 7.42857 2.85714V7.42857H4.57143V5.71429H0V10.2857H4.57143V8.57143H7.42857V13.1429C7.42857 13.446 7.54898 13.7367 7.76331 13.951C7.97763 14.1653 8.26832 14.2857 8.57143 14.2857H11.4286V16H16V11.4286H11.4286V13.1429H8.57143V8.57143H11.4286V10.2857H16V5.71429H11.4286V7.42857H8.57143V2.85714H11.4286V4.57143H16ZM3.42857 9.14286H1.14286V6.85714H3.42857V9.14286ZM12.5714 12.5714H14.8571V14.8571H12.5714V12.5714ZM12.5714 6.85714H14.8571V9.14286H12.5714V6.85714ZM12.5714 1.14286H14.8571V3.42857H12.5714V1.14286Z" fill="#155DEC"/>
</svg>
