<svg width="61" height="60" viewBox="0 0 61 60" fill="none" xmlns="http://www.w3.org/2000/svg">
<path d="M60.3304 17.1429V0H43.1876V6.42857H32.4733C31.3367 6.42857 30.2466 6.8801 29.4428 7.68383C28.6391 8.48755 28.1876 9.57764 28.1876 10.7143V27.8571H17.4733V21.4286H0.330444V38.5714H17.4733V32.1429H28.1876V49.2857C28.1876 50.4224 28.6391 51.5124 29.4428 52.3162C30.2466 53.1199 31.3367 53.5714 32.4733 53.5714H43.1876V60H60.3304V42.8571H43.1876V49.2857H32.4733V32.1429H43.1876V38.5714H60.3304V21.4286H43.1876V27.8571H32.4733V10.7143H43.1876V17.1429H60.3304ZM13.1876 34.2857H4.61616V25.7143H13.1876V34.2857ZM47.4733 47.1429H56.0447V55.7143H47.4733V47.1429ZM47.4733 25.7143H56.0447V34.2857H47.4733V25.7143ZM47.4733 4.28571H56.0447V12.8571H47.4733V4.28571Z" fill="white"/>
</svg>
