<svg width="17" height="17" viewBox="0 0 17 17" fill="none" xmlns="http://www.w3.org/2000/svg">
<g id="iconoir:agile" clip-path="url(#clip0_4650_2430)">
<g id="Group">
<path id="Vector" d="M12.4173 12.9947H15.4173M15.4173 12.9947L13.7507 11.328M15.4173 12.9947L13.7507 14.6614M8.75065 1.66138L7.08398 3.32804L8.75065 4.99471" stroke="#4F4F4F" stroke-width="1.5" stroke-linecap="round" stroke-linejoin="round"/>
<path id="Vector_2" d="M7.75065 3.32812C9.07673 3.32812 10.3485 3.85491 11.2862 4.79259C12.2239 5.73027 12.7507 7.00204 12.7507 8.32813C12.7507 9.65421 12.2239 10.926 11.2862 11.8637C10.3485 12.8013 9.07673 13.3281 7.75065 13.3281H2.08398" stroke="#4F4F4F" stroke-width="1.5" stroke-linecap="round" stroke-linejoin="round"/>
<path id="Vector_3" d="M5.254 3.99463C4.49269 4.43324 3.8604 5.06471 3.4208 5.82545C2.98121 6.5862 2.74984 7.44934 2.75 8.32796C2.75 9.4533 3.122 10.492 3.75 11.328" stroke="#4F4F4F" stroke-width="1.5" stroke-linecap="round" stroke-linejoin="round"/>
</g>
</g>
<defs>
<clipPath id="clip0_4650_2430">
<rect width="16" height="16" fill="white" transform="translate(0.75 0.328125)"/>
</clipPath>
</defs>
</svg>
