<svg width="17" height="17" viewBox="0 0 17 17" fill="none" xmlns="http://www.w3.org/2000/svg">
<g clip-path="url(#clip0_7559_65727)">
<path d="M12.9 4.91333C14.8867 4.91333 16.5 6.5 16.5 8.5C16.5 10.4733 14.8867 12.08 12.9 12.08C11.9333 12.08 11.0333 11.7067 10.3533 11.0333L8.5 9.39333L6.61333 11.0667C5.96667 11.7133 5.06 12.0867 4.1 12.0867C2.11333 12.0867 0.5 10.4733 0.5 8.5C0.5 6.52666 2.11333 4.91333 4.1 4.91333C5.06 4.91333 5.96667 5.28666 6.64667 5.96666L8.5 7.60666L10.3867 5.93333C11.0333 5.28666 11.94 4.91333 12.9 4.91333ZM5.7 10.0933L7.5 8.5L5.72667 6.93333C5.27333 6.48 4.70667 6.24666 4.1 6.24666C2.85333 6.24666 1.83333 7.25333 1.83333 8.5C1.83333 9.74666 2.85333 10.7533 4.1 10.7533C4.70667 10.7533 5.27333 10.52 5.7 10.0933ZM11.3 6.90666L9.5 8.5L11.2733 10.0667C11.7267 10.52 12.3 10.7533 12.9 10.7533C14.1467 10.7533 15.1667 9.74666 15.1667 8.5C15.1667 7.25333 14.1467 6.24666 12.9 6.24666C12.2933 6.24666 11.7267 6.48 11.3 6.90666Z" fill="#333333"/>
</g>
<defs>
<clipPath id="clip0_7559_65727">
<rect width="16" height="16" fill="white" transform="translate(0.5 0.5)"/>
</clipPath>
</defs>
</svg>
