<svg width="24" height="24" viewBox="0 0 24 24" fill="none" xmlns="http://www.w3.org/2000/svg">
<path d="M24 6.85714V0H17.1429V2.57143H12.8571C12.4025 2.57143 11.9665 2.75204 11.645 3.07353C11.3235 3.39502 11.1429 3.83106 11.1429 4.28571V11.1429H6.85714V8.57143H0V15.4286H6.85714V12.8571H11.1429V19.7143C11.1429 20.1689 11.3235 20.605 11.645 20.9265C11.9665 21.248 12.4025 21.4286 12.8571 21.4286H17.1429V24H24V17.1429H17.1429V19.7143H12.8571V12.8571H17.1429V15.4286H24V8.57143H17.1429V11.1429H12.8571V4.28571H17.1429V6.85714H24ZM5.14286 13.7143H1.71429V10.2857H5.14286V13.7143ZM18.8571 18.8571H22.2857V22.2857H18.8571V18.8571ZM18.8571 10.2857H22.2857V13.7143H18.8571V10.2857ZM18.8571 1.71429H22.2857V5.14286H18.8571V1.71429Z" fill="white"/>
</svg>
