<svg width="17" height="17" viewBox="0 0 17 17" fill="none" xmlns="http://www.w3.org/2000/svg">
<g clip-path="url(#clip0_96_308)">
<path d="M8.56848 0.808105C8.60385 0.807058 8.63922 0.806011 8.67566 0.804932C8.96845 0.8625 9.18176 1.11112 9.38416 1.31522C9.41459 1.34556 9.44504 1.37588 9.4755 1.40618C9.55857 1.48891 9.64134 1.57194 9.72406 1.65501C9.81355 1.74478 9.90331 1.83427 9.99304 1.9238C10.1685 2.09898 10.3437 2.27441 10.5189 2.44993C10.7229 2.6544 10.9272 2.85862 11.1315 3.06284C11.496 3.42722 11.8602 3.79183 12.2243 4.15657C12.5776 4.51039 12.931 4.86402 13.2846 5.21745C13.6699 5.60257 14.0551 5.98778 14.4401 6.37316C14.4812 6.41425 14.5222 6.45534 14.5633 6.49644C14.5835 6.51665 14.6037 6.53687 14.6245 6.5577C14.7668 6.70011 14.9091 6.84245 15.0515 6.98476C15.2249 7.15816 15.3983 7.33167 15.5715 7.50532C15.6599 7.5939 15.7483 7.68244 15.8368 7.77083C15.9179 7.85177 15.9988 7.93286 16.0796 8.01406C16.1227 8.05726 16.1659 8.10031 16.2091 8.14335C16.4172 8.35296 16.5755 8.51316 16.5802 8.82178C16.578 9.0236 16.5386 9.13296 16.4064 9.28662C16.2152 9.45111 16.0576 9.46603 15.8153 9.46328C15.7835 9.46329 15.7518 9.46331 15.7191 9.46332C15.6146 9.46326 15.5101 9.46253 15.4056 9.46179C15.333 9.46162 15.2604 9.46148 15.1878 9.46139C14.997 9.46103 14.8062 9.46011 14.6154 9.45907C14.4206 9.45811 14.2258 9.45769 14.031 9.45721C13.649 9.45621 13.2669 9.45461 12.8849 9.45264C12.8852 9.47753 12.8856 9.50242 12.8859 9.52807C12.8891 9.76345 12.8915 9.99882 12.893 10.2342C12.8938 10.3552 12.8949 10.4762 12.8967 10.5972C12.8984 10.7141 12.8993 10.831 12.8997 10.9479C12.9 10.9924 12.9006 11.0368 12.9014 11.0813C12.9061 11.3367 12.9066 11.5379 12.7286 11.7339C12.5358 11.9171 12.3616 11.9306 12.1072 11.9297C12.0758 11.9299 12.0445 11.93 12.0122 11.9302C11.907 11.9306 11.8018 11.9305 11.6967 11.9305C11.6213 11.9307 11.546 11.9309 11.4706 11.9311C11.2871 11.9316 11.1036 11.9318 10.92 11.9318C10.7708 11.9319 10.6216 11.932 10.4724 11.9322C10.0492 11.9327 9.62596 11.933 9.20275 11.933C9.17994 11.933 9.15713 11.933 9.13363 11.933C9.11079 11.933 9.08796 11.933 9.06443 11.933C8.6944 11.9329 8.32437 11.9335 7.95434 11.9344C7.57422 11.9353 7.19411 11.9357 6.814 11.9357C6.60066 11.9357 6.38733 11.9358 6.17399 11.9365C5.97333 11.9371 5.77268 11.9371 5.57202 11.9367C5.4984 11.9366 5.42478 11.9368 5.35116 11.9371C5.2506 11.9376 5.15006 11.9373 5.0495 11.9368C5.02042 11.9372 4.99134 11.9375 4.96139 11.9378C4.75681 11.9356 4.58324 11.8956 4.43096 11.7512C4.29608 11.5959 4.252 11.4875 4.25279 11.2832C4.2528 11.2426 4.2528 11.2019 4.25281 11.16C4.25313 11.1158 4.25345 11.0716 4.25378 11.0273C4.2539 10.982 4.25399 10.9366 4.25405 10.8913C4.25429 10.7721 4.2549 10.6529 4.2556 10.5337C4.25624 10.412 4.25652 10.2903 4.25684 10.1686C4.25751 9.92993 4.25857 9.69128 4.25989 9.45264C4.21959 9.45284 4.17929 9.45305 4.13777 9.45327C3.75797 9.45517 3.37817 9.45657 2.99836 9.45749C2.8031 9.45798 2.60784 9.45865 2.41258 9.45971C2.22414 9.46073 2.03571 9.46129 1.84727 9.46153C1.77538 9.4617 1.70349 9.46204 1.6316 9.46255C1.5309 9.46323 1.43022 9.46332 1.32951 9.46328C1.28494 9.46379 1.28494 9.46379 1.23947 9.4643C1.03093 9.46333 0.900072 9.42573 0.738403 9.28662C0.580324 9.10291 0.56039 8.95535 0.550781 8.71863C0.607792 8.42906 0.85946 8.21466 1.06095 8.01467C1.09139 7.98412 1.12182 7.95354 1.15223 7.92295C1.23526 7.83953 1.31858 7.7564 1.40195 7.67332C1.49203 7.58345 1.58185 7.4933 1.6717 7.4032C1.84751 7.22697 2.02358 7.05099 2.19974 6.87511C2.34291 6.73215 2.48599 6.58909 2.629 6.44598C2.64938 6.42558 2.66976 6.40519 2.69076 6.38418C2.73216 6.34274 2.77357 6.30131 2.81497 6.25987C3.20285 5.87172 3.59103 5.48386 3.9793 5.09609C4.31234 4.76347 4.64513 4.4306 4.97775 4.09756C5.36425 3.71055 5.75091 3.32369 6.13781 2.93708C6.17907 2.89585 6.22033 2.85462 6.26159 2.81339C6.28189 2.7931 6.30219 2.77282 6.3231 2.75192C6.46605 2.60906 6.60888 2.46609 6.75167 2.32308C6.92567 2.14881 7.09984 1.97472 7.27422 1.80083C7.36316 1.71214 7.45203 1.62337 7.54069 1.5344C7.62189 1.45291 7.70331 1.37165 7.7849 1.29056C7.82826 1.24736 7.87138 1.20393 7.9145 1.16049C8.11284 0.96401 8.2754 0.810099 8.56848 0.808105ZM8.49611 2.39612C8.46966 2.42258 8.46966 2.42258 8.44267 2.44958C8.41211 2.47992 8.41211 2.47992 8.38094 2.51087C8.3585 2.53347 8.33607 2.55606 8.31296 2.57934C8.28917 2.60306 8.26538 2.62677 8.24087 2.6512C8.16059 2.73131 8.08053 2.81163 8.00047 2.89196C7.94321 2.94919 7.88594 3.0064 7.82865 3.0636C7.68887 3.20323 7.54925 3.34302 7.4097 3.48287C7.24734 3.64555 7.08482 3.80807 6.92229 3.97058C6.63242 4.26044 6.34269 4.55044 6.05305 4.84054C5.77167 5.12236 5.49018 5.40407 5.20857 5.68566C5.19123 5.70301 5.17388 5.72035 5.15601 5.73822C5.1387 5.75553 5.12138 5.77285 5.10354 5.79068C4.7834 6.1108 4.46337 6.43102 4.14338 6.75129C4.03 6.86476 3.9166 6.9782 3.80318 7.09163C3.65069 7.24414 3.49829 7.39674 3.34595 7.54939C3.28984 7.6056 3.23371 7.66177 3.17754 7.71792C3.10125 7.79419 3.02505 7.87057 2.94888 7.94696C2.92631 7.96949 2.90373 7.99201 2.88048 8.01522C2.86027 8.03553 2.84006 8.05584 2.81924 8.07677C2.80162 8.09441 2.78399 8.11206 2.76584 8.13024C2.72515 8.16601 2.72515 8.16601 2.72864 8.20264C2.75705 8.20275 2.78547 8.20286 2.81475 8.20298C3.08325 8.20417 3.35173 8.20595 3.62022 8.20838C3.75824 8.20962 3.89625 8.21062 4.03427 8.21111C4.1676 8.21158 4.30092 8.21266 4.43425 8.21415C4.48498 8.21461 4.53571 8.21486 4.58644 8.21488C5.08157 8.2154 5.08157 8.2154 5.29114 8.35889C5.8281 8.90998 5.50407 10.299 5.50989 10.6714C7.53114 10.6714 9.55239 10.6714 11.6349 10.6714C11.6452 10.0114 11.6555 9.35139 11.6661 8.67139C11.8231 8.3575 11.8231 8.3575 12.0161 8.26259C12.1252 8.22682 12.2189 8.2251 12.3337 8.22392C12.3562 8.22361 12.3788 8.22329 12.4021 8.22297C12.4763 8.22201 12.5505 8.22148 12.6248 8.22095C12.6764 8.22036 12.728 8.21975 12.7796 8.21911C12.9152 8.21751 13.0508 8.21627 13.1864 8.21511C13.3248 8.21386 13.4633 8.21226 13.6017 8.21069C13.8732 8.20767 14.1447 8.20503 14.4161 8.20264C14.2818 8.04216 14.1411 7.89181 13.993 7.74403C13.9699 7.72088 13.9468 7.69772 13.923 7.67386C13.8461 7.59673 13.769 7.51971 13.692 7.4427C13.6366 7.38725 13.5813 7.3318 13.526 7.27634C13.3915 7.14169 13.2571 7.0071 13.1225 6.87256C13.0132 6.76326 12.904 6.65394 12.7948 6.54461C12.485 6.23456 12.1751 5.92457 11.8652 5.61467C11.8485 5.59799 11.8319 5.58131 11.8147 5.56413C11.798 5.54743 11.7813 5.53073 11.7641 5.51352C11.4928 5.24227 11.2217 4.97087 10.9507 4.69939C10.6723 4.42058 10.3938 4.14188 10.1152 3.8633C9.95881 3.70692 9.80246 3.55048 9.64624 3.39393C9.49957 3.24694 9.35273 3.10011 9.20578 2.95339C9.15174 2.89938 9.09774 2.84531 9.0438 2.79118C8.97049 2.71763 8.89699 2.64427 8.82344 2.57096C8.80186 2.54922 8.78029 2.52749 8.75805 2.50509C8.73845 2.48563 8.71885 2.46617 8.69865 2.44612C8.68169 2.42915 8.66473 2.41219 8.64725 2.3947C8.58529 2.34382 8.55763 2.34525 8.49611 2.39612Z" fill="#155DEC"/>
<path d="M5.10238 13.1006C5.13323 13.1005 5.16407 13.1003 5.19586 13.1002C5.29896 13.0998 5.40206 13.0998 5.50516 13.0999C5.57919 13.0997 5.65322 13.0995 5.72726 13.0992C5.92819 13.0987 6.12912 13.0985 6.33005 13.0985C6.45563 13.0985 6.58121 13.0983 6.70679 13.0982C7.1224 13.0976 7.53801 13.0973 7.95363 13.0974C7.9872 13.0974 7.9872 13.0974 8.02146 13.0974C8.04387 13.0974 8.06628 13.0974 8.08937 13.0974C8.45248 13.0974 8.81559 13.0968 9.17871 13.0959C9.55197 13.095 9.92524 13.0946 10.2985 13.0947C10.5079 13.0947 10.7173 13.0945 10.9267 13.0938C11.1236 13.0932 11.3206 13.0932 11.5176 13.0937C11.5897 13.0937 11.6619 13.0936 11.7341 13.0932C11.8329 13.0927 11.9316 13.093 12.0304 13.0935C12.0729 13.093 12.0729 13.093 12.1163 13.0925C12.3293 13.0948 12.5524 13.1348 12.7179 13.2792C12.8771 13.4634 12.9005 13.6121 12.8968 13.8505C12.8747 14.0389 12.7848 14.1465 12.6544 14.2769C12.4596 14.3975 12.2643 14.3993 12.0418 14.3984C12.011 14.3985 11.9801 14.3986 11.9482 14.3987C11.845 14.399 11.7417 14.3989 11.6385 14.3988C11.5644 14.3989 11.4902 14.3991 11.4161 14.3993C11.2358 14.3996 11.0555 14.3997 10.8752 14.3997C10.7286 14.3996 10.582 14.3997 10.4354 14.3998C10.4145 14.3998 10.3937 14.3998 10.3721 14.3998C10.3297 14.3999 10.2873 14.3999 10.2448 14.4C9.84715 14.4003 9.44947 14.4002 9.05179 14.4C8.68823 14.3999 8.32468 14.4002 7.96112 14.4008C7.5875 14.4014 7.21388 14.4017 6.84026 14.4016C6.63063 14.4015 6.421 14.4016 6.21136 14.402C6.01424 14.4024 5.81713 14.4024 5.62001 14.402C5.5477 14.4019 5.47539 14.402 5.40308 14.4022C5.3043 14.4025 5.20554 14.4023 5.10677 14.4019C5.07822 14.4021 5.04967 14.4024 5.02026 14.4026C4.75261 14.4003 4.54543 14.3321 4.35357 14.1402C4.22354 13.9668 4.23275 13.7537 4.25982 13.5465C4.3214 13.3855 4.42567 13.2622 4.57232 13.1715C4.75156 13.1075 4.91314 13.1 5.10238 13.1006Z" fill="#155DEC"/>
<path d="M5.06997 15.5694C5.11665 15.5693 5.11665 15.5693 5.16428 15.5691C5.26849 15.5687 5.37269 15.5689 5.4769 15.569C5.55165 15.5689 5.62639 15.5687 5.70114 15.5685C5.88305 15.5681 6.06496 15.5681 6.24687 15.5681C6.39478 15.5682 6.54268 15.5681 6.69058 15.568C6.71164 15.568 6.73271 15.568 6.75441 15.5679C6.7972 15.5679 6.84 15.5679 6.88279 15.5678C7.28399 15.5675 7.68518 15.5676 8.08638 15.5677C8.45317 15.5679 8.81997 15.5676 9.18676 15.567C9.56363 15.5664 9.94049 15.5661 10.3174 15.5662C10.5288 15.5663 10.7403 15.5662 10.9518 15.5658C11.1507 15.5654 11.3496 15.5654 11.5485 15.5658C11.6214 15.5659 11.6944 15.5658 11.7674 15.5656C11.867 15.5652 11.9667 15.5655 12.0664 15.5659C12.0952 15.5657 12.124 15.5654 12.1537 15.5652C12.3539 15.5669 12.5383 15.5912 12.6979 15.7239C12.7118 15.742 12.7257 15.7601 12.7401 15.7788C12.7617 15.8058 12.7617 15.8058 12.7838 15.8333C12.9058 16.0139 12.9059 16.1757 12.8846 16.3901C12.8365 16.5844 12.7226 16.683 12.5584 16.7882C12.4235 16.8546 12.2979 16.8535 12.1499 16.8514C12.1179 16.8517 12.086 16.852 12.0531 16.8523C11.9466 16.853 11.8402 16.8524 11.7338 16.8518C11.6572 16.8521 11.5806 16.8524 11.5041 16.8528C11.3181 16.8536 11.1321 16.8535 10.9461 16.8529C10.7949 16.8525 10.6437 16.8525 10.4925 16.8527C10.4709 16.8527 10.4494 16.8527 10.4271 16.8528C10.3833 16.8528 10.3395 16.8529 10.2957 16.8529C9.88535 16.8535 9.47501 16.8529 9.06466 16.8519C8.71294 16.851 8.36123 16.8512 8.00951 16.852C7.60058 16.853 7.19166 16.8534 6.78273 16.8528C6.73908 16.8528 6.69543 16.8527 6.65179 16.8527C6.61958 16.8526 6.61958 16.8526 6.58672 16.8526C6.43577 16.8524 6.28482 16.8527 6.13387 16.8531C5.93051 16.8537 5.72717 16.8533 5.52381 16.8522C5.44925 16.852 5.37468 16.852 5.30012 16.8525C5.19819 16.853 5.09633 16.8523 4.99441 16.8514C4.96502 16.8518 4.93563 16.8522 4.90535 16.8527C4.68992 16.8488 4.54616 16.7833 4.38463 16.6401C4.25692 16.4774 4.23827 16.3096 4.24547 16.1059C4.2735 15.9262 4.36474 15.8149 4.49206 15.6909C4.67931 15.5721 4.85523 15.5686 5.06997 15.5694Z" fill="#155DEC"/>
</g>
<defs>
<clipPath id="clip0_96_308">
<rect width="16" height="16" fill="white" transform="translate(0.572266 0.827637)"/>
</clipPath>
</defs>
</svg>
