<svg width="50" height="50" viewBox="0 0 50 50" fill="none" xmlns="http://www.w3.org/2000/svg">
<g clip-path="url(#clip0_7707_91128)">
<path d="M6.89871 44.4681C5.80055 44.4681 4.86581 44.0825 4.09449 43.3111C3.32316 42.5398 2.9375 41.6059 2.9375 40.5094V9.20695C2.9375 8.11206 3.32316 7.17814 4.09449 6.40518C4.86581 5.63386 5.80055 5.24819 6.89871 5.24819H18.4196C18.1957 3.99642 18.4947 2.8664 19.3167 1.85812C20.1371 0.849843 21.214 0.345703 22.5475 0.345703C23.912 0.345703 25.0052 0.849843 25.8272 1.85812C26.6492 2.8664 26.9327 3.99642 26.6778 5.24819H38.1987C39.2936 5.24819 40.2275 5.63386 41.0004 6.40518C41.7718 7.17651 42.1574 8.11125 42.1574 9.20941V23.7943C41.7276 23.6456 41.3158 23.5247 40.922 23.4315C40.5298 23.34 40.1245 23.2485 39.7062 23.157V9.20941C39.7062 8.83191 39.5493 8.48547 39.2355 8.17008C38.9218 7.85468 38.5753 7.6978 38.1962 7.69944H6.89871C6.52122 7.69944 6.17478 7.85632 5.85938 8.17008C5.54399 8.48384 5.38711 8.83028 5.38875 9.20941V40.5094C5.38875 40.8852 5.54562 41.2308 5.85938 41.5462C6.17314 41.8616 6.51877 42.0185 6.89626 42.0169H20.785C20.8438 42.4744 20.9198 42.9001 21.013 43.294C21.1061 43.6862 21.2262 44.0776 21.3733 44.4681H6.89871ZM5.38875 39.5656V42.0169V7.69944V23.157V22.9731V39.5656ZM11.5169 35.325H21.2238C21.3137 34.905 21.4362 34.4989 21.5915 34.1067L22.0817 32.8713H11.5169V35.325ZM11.5169 26.0838H27.6461C28.4517 25.5184 29.2451 25.0395 30.0262 24.6473C30.8073 24.2535 31.6457 23.9447 32.5412 23.7208V23.6325H11.5169V26.0838ZM11.5169 16.8426H33.5781V14.3913H11.5169V16.8426ZM22.5475 6.3341C23.0786 6.3341 23.5182 6.16087 23.8662 5.81443C24.2143 5.46799 24.3875 5.0284 24.3859 4.49566C24.3843 3.96292 24.2102 3.52415 23.8638 3.17934C23.5173 2.83453 23.0786 2.65968 22.5475 2.65478C22.0164 2.64987 21.5776 2.82391 21.2311 3.17689C20.8847 3.52987 20.7107 3.96864 20.709 4.49321C20.7074 5.01778 20.8814 5.45737 21.2311 5.81198C21.5809 6.16659 22.0196 6.34227 22.5475 6.3341ZM37.2549 49.655C34.5242 49.655 32.2078 48.7031 30.3057 46.7993C28.4019 44.8971 27.45 42.5807 27.45 39.85C27.45 37.1193 28.4019 34.802 30.3057 32.8982C32.2095 30.9944 34.5259 30.0434 37.2549 30.045C39.984 30.0466 42.3012 30.9977 44.2067 32.8982C46.1121 34.7988 47.0632 37.116 47.0599 39.85C47.0599 42.579 46.1088 44.8955 44.2067 46.7993C42.3012 48.7031 39.984 49.655 37.2549 49.655ZM36.3137 46.9194H38.1987V40.7913H44.3268V38.9038H38.1987V32.7757H36.3112V38.9038H30.1831V40.7913H36.3112L36.3137 46.9194Z" fill="white" stroke="white" stroke-width="0.833333"/>
</g>
<defs>
<clipPath id="clip0_7707_91128">
<rect width="50" height="50" fill="white"/>
</clipPath>
</defs>
</svg>
