<svg width="24" height="25" viewBox="0 0 24 25" fill="none" xmlns="http://www.w3.org/2000/svg">
<path d="M18.0789 11.356V7.26657C18.0789 4.76536 18.0789 3.5153 17.2224 2.7383C16.3647 1.9613 14.9864 1.9613 12.2266 1.9613H7.35237C4.59253 1.9613 3.21426 1.9613 2.35658 2.7383C1.49889 3.5153 1.5 4.76536 1.5 7.26657V14.3403C1.5 16.8415 1.5 18.0915 2.35658 18.8685C3.21426 19.6455 4.59253 19.6455 7.35237 19.6455H10.8947M4.81579 6.38236H14.7632M4.81579 10.8034H5.92105M9.23684 10.8034H10.3421M13.6579 10.8034H14.7632M4.81579 15.2245H5.92105M9.23684 15.2245H10.3421" stroke="white" stroke-width="1.65789" stroke-linecap="round" stroke-linejoin="round"/>
<path d="M18.0788 22.9612C20.5204 22.9612 22.4998 20.9819 22.4998 18.5402C22.4998 16.0985 20.5204 14.1191 18.0788 14.1191C15.6371 14.1191 13.6577 16.0985 13.6577 18.5402C13.6577 20.9819 15.6371 22.9612 18.0788 22.9612Z" stroke="white" stroke-width="1.65789" stroke-linecap="round" stroke-linejoin="round"/>
<path d="M19.1844 19.0929L18.0791 18.5402V16.8823" stroke="white" stroke-width="1.65789" stroke-linecap="round" stroke-linejoin="round"/>
</svg>
