<svg width="16" height="17" viewBox="0 0 16 17" fill="none" xmlns="http://www.w3.org/2000/svg">
<g clip-path="url(#clip0_96_290)">
<path d="M4.23283 0.246098C4.38591 0.335397 4.47637 0.468922 4.53166 0.634769C4.53166 0.902894 4.53166 1.17102 4.53166 1.44727C5.45978 1.44727 6.38791 1.44727 7.34416 1.44727C7.34416 1.17914 7.34416 0.911019 7.34416 0.634769C7.48506 0.352959 7.48506 0.352959 7.58048 0.292973C7.59857 0.281089 7.61666 0.269205 7.63529 0.256962C7.81089 0.162032 8.04194 0.166155 8.23136 0.217533C8.38781 0.287398 8.48197 0.391303 8.56291 0.541019C8.65849 0.827771 8.59416 1.14501 8.59416 1.44727C9.53259 1.44727 10.471 1.44727 11.4379 1.44727C11.4379 1.17914 11.4379 0.911019 11.4379 0.634769C11.5788 0.352959 11.5788 0.352959 11.6742 0.292973C11.6923 0.281089 11.7104 0.269205 11.729 0.256962C11.9046 0.162032 12.1357 0.166155 12.3251 0.217533C12.4816 0.287398 12.5757 0.391303 12.6567 0.541019C12.6904 0.642192 12.6915 0.715317 12.691 0.821659C12.6909 0.858015 12.6908 0.89437 12.6907 0.931828C12.6904 0.969794 12.6901 1.00776 12.6899 1.04688C12.6897 1.08521 12.6896 1.12354 12.6894 1.16303C12.6891 1.25778 12.6885 1.35252 12.6879 1.44727C12.7213 1.44661 12.7546 1.44596 12.789 1.44529C12.9152 1.44299 13.0415 1.44158 13.1678 1.4404C13.222 1.43978 13.2762 1.43894 13.3303 1.43784C13.7917 1.42875 14.2253 1.46758 14.6391 1.69141C14.6598 1.70227 14.6806 1.71314 14.702 1.72433C14.8683 1.81367 15.017 1.91332 15.1567 2.04102C15.1845 2.06604 15.2124 2.09105 15.2411 2.11683C15.6981 2.54822 15.9915 3.14249 16.0125 3.77604C16.0132 3.84839 16.0133 3.92074 16.013 3.99308C16.0134 4.05292 16.0134 4.05292 16.0137 4.11397C16.0142 4.22204 16.0142 4.33011 16.014 4.43819C16.0139 4.52882 16.0141 4.61945 16.0143 4.71009C16.0147 4.92392 16.0147 5.13774 16.0143 5.35157C16.014 5.57154 16.0144 5.79149 16.0153 6.01145C16.016 6.20114 16.0162 6.39082 16.016 6.58051C16.0159 6.69345 16.0159 6.80638 16.0165 6.91932C16.0171 7.04511 16.0166 7.17088 16.0161 7.29667C16.0164 7.33371 16.0167 7.37074 16.017 7.4089C16.0149 7.64386 15.9912 7.82994 15.8186 8.00476C15.8006 8.01608 15.7826 8.0274 15.7641 8.03907C15.7369 8.05689 15.7369 8.05689 15.7093 8.07508C15.5337 8.17001 15.3026 8.16588 15.1132 8.11451C14.9567 8.04464 14.8626 7.94074 14.7817 7.79102C14.7513 7.69983 14.7463 7.6411 14.7459 7.54615C14.7457 7.51501 14.7455 7.48387 14.7452 7.45179C14.7451 7.40058 14.7451 7.40058 14.745 7.34834C14.7448 7.31235 14.7446 7.27636 14.7443 7.23929C14.7439 7.16097 14.7435 7.08265 14.7432 7.00433C14.7427 6.88017 14.742 6.75601 14.7412 6.63185C14.739 6.27877 14.7371 5.92567 14.7355 5.57258C14.7346 5.37759 14.7335 5.1826 14.7322 4.98761C14.7315 4.88459 14.7309 4.78156 14.7306 4.67854C14.7302 4.56322 14.7295 4.44791 14.7286 4.33259C14.7286 4.28224 14.7286 4.28224 14.7286 4.23087C14.7243 3.78693 14.6553 3.4009 14.3448 3.06665C13.9796 2.73753 13.5447 2.72656 13.0785 2.71094C13.0221 2.70892 13.0221 2.70892 12.9645 2.70685C12.8723 2.70356 12.7801 2.70037 12.6879 2.69727C12.6886 2.72057 12.6892 2.74388 12.6899 2.76789C12.6925 2.87455 12.6941 2.98121 12.6957 3.08789C12.6968 3.12455 12.6978 3.16121 12.6989 3.19898C12.7013 3.4134 12.6934 3.58336 12.5629 3.75977C12.5061 3.81726 12.5061 3.81726 12.4516 3.85157C12.4335 3.86345 12.4154 3.87533 12.3968 3.88758C12.2212 3.98251 11.9901 3.97838 11.8007 3.92701C11.6442 3.85714 11.5501 3.75324 11.4692 3.60352C11.3736 3.31677 11.4379 2.99953 11.4379 2.69727C10.4995 2.69727 9.56103 2.69727 8.59416 2.69727C8.59416 2.96539 8.59416 3.23352 8.59416 3.50977C8.45325 3.79158 8.45325 3.79158 8.35783 3.85157C8.33974 3.86345 8.32165 3.87533 8.30302 3.88758C8.12742 3.98251 7.89637 3.97838 7.70695 3.92701C7.5505 3.85714 7.45634 3.75324 7.37541 3.60352C7.27982 3.31677 7.34416 2.99953 7.34416 2.69727C6.41603 2.69727 5.48791 2.69727 4.53166 2.69727C4.53166 2.96539 4.53166 3.23352 4.53166 3.50977C4.39075 3.79158 4.39075 3.79158 4.29533 3.85157C4.27724 3.86345 4.25915 3.87533 4.24052 3.88758C4.06492 3.98251 3.83387 3.97838 3.64445 3.92701C3.488 3.85714 3.39384 3.75324 3.31291 3.60352C3.27918 3.50235 3.27808 3.42922 3.2786 3.32288C3.27875 3.26835 3.27875 3.26835 3.27891 3.21271C3.2793 3.15576 3.2793 3.15576 3.2797 3.09766C3.27984 3.05933 3.27998 3.021 3.28013 2.98151C3.2805 2.88676 3.28101 2.79202 3.28166 2.69727C3.15924 2.70076 3.03686 2.70483 2.91447 2.70899C2.88035 2.70995 2.84623 2.71092 2.81107 2.71192C2.35731 2.72803 1.96336 2.78368 1.61979 3.10291C1.29542 3.46278 1.27687 3.88481 1.27748 4.34496C1.27737 4.4046 1.27737 4.4046 1.27726 4.46545C1.27707 4.57533 1.27708 4.68521 1.27711 4.79508C1.27712 4.91378 1.27695 5.03248 1.2768 5.15118C1.27654 5.38355 1.27645 5.61592 1.27643 5.84829C1.27642 6.03725 1.27636 6.2262 1.27626 6.41516C1.27598 6.95133 1.27584 7.48749 1.27586 8.02365C1.27586 8.06698 1.27586 8.06698 1.27586 8.11118C1.27587 8.15456 1.27587 8.15456 1.27587 8.19881C1.27588 8.66737 1.27558 9.13592 1.27514 9.60447C1.27469 10.086 1.27448 10.5675 1.2745 11.0491C1.27451 11.3193 1.27443 11.5894 1.27409 11.8596C1.27381 12.0896 1.27374 12.3197 1.27395 12.5497C1.27405 12.667 1.27406 12.7843 1.27378 12.9015C1.27349 13.0289 1.27369 13.1563 1.27393 13.2837C1.27377 13.3204 1.27361 13.3571 1.27344 13.3948C1.27532 13.846 1.33995 14.2377 1.65604 14.5779C2.03898 14.923 2.49489 14.9206 2.98094 14.9205C3.02952 14.9205 3.0781 14.9207 3.12669 14.9208C3.23092 14.921 3.33515 14.9212 3.43939 14.9213C3.60435 14.9215 3.76931 14.922 3.93428 14.9226C3.99087 14.9228 4.04746 14.923 4.10405 14.9232C4.13238 14.9233 4.16071 14.9234 4.18989 14.9235C4.57365 14.9248 4.9574 14.9258 5.34115 14.9262C5.60045 14.9265 5.85975 14.9272 6.11904 14.9284C6.25609 14.929 6.39313 14.9294 6.53017 14.9292C6.65904 14.9291 6.7879 14.9295 6.91677 14.9304C6.96393 14.9306 7.0111 14.9306 7.05826 14.9304C7.57317 14.9281 7.57317 14.9281 7.77665 15.129C7.78797 15.147 7.79929 15.165 7.81095 15.1836C7.82878 15.2107 7.82878 15.2107 7.84696 15.2384C7.94189 15.414 7.93777 15.6451 7.88639 15.8345C7.81653 15.9909 7.71262 16.0851 7.56291 16.166C7.45528 16.2019 7.37195 16.2015 7.25838 16.2019C7.22605 16.202 7.22605 16.202 7.19308 16.2022C7.12069 16.2026 7.0483 16.2027 6.97591 16.2028C6.92406 16.203 6.87221 16.2032 6.82036 16.2034C6.64978 16.2041 6.47921 16.2044 6.30863 16.2047C6.2498 16.2048 6.19097 16.205 6.13213 16.2051C5.85542 16.2057 5.57871 16.2061 5.30199 16.2064C4.98342 16.2067 4.66485 16.2075 4.34627 16.2088C4.09961 16.2097 3.85295 16.2102 3.60628 16.2103C3.4592 16.2104 3.31213 16.2106 3.16505 16.2114C3.0263 16.2122 2.88757 16.2123 2.74883 16.212C2.69829 16.212 2.64775 16.2122 2.59722 16.2126C2.16621 16.2161 1.74743 16.1618 1.36173 15.9531C1.34098 15.9423 1.32023 15.9314 1.29884 15.9202C1.13248 15.8309 0.98383 15.7312 0.844155 15.6035C0.816279 15.5785 0.788403 15.5535 0.759683 15.5277C0.299707 15.0935 0.00784762 14.497 -0.0114794 13.8597C-0.0120284 13.7825 -0.0120782 13.7053 -0.0117097 13.6282C-0.0118404 13.5849 -0.012012 13.5416 -0.0122199 13.4982C-0.012668 13.3804 -0.0125397 13.2626 -0.0123081 13.1447C-0.0121594 13.0172 -0.012552 12.8897 -0.0128712 12.7621C-0.0134069 12.5127 -0.0134349 12.2633 -0.0132708 12.0139C-0.0131442 11.811 -0.01319 11.6082 -0.0133567 11.4053C-0.01338 11.3763 -0.0134036 11.3474 -0.0134277 11.3176C-0.0134756 11.2588 -0.0135234 11.2 -0.0135717 11.1412C-0.0140001 10.5904 -0.0138309 10.0397 -0.0134721 9.48894C-0.0131618 8.98593 -0.0135664 8.48291 -0.0143141 7.9799C-0.0150775 7.46248 -0.0153762 6.94506 -0.0151686 6.42764C-0.0150598 6.13752 -0.0151276 5.8474 -0.0156765 5.55727C-0.0161379 5.31028 -0.0161544 5.0633 -0.0156116 4.81631C-0.0153468 4.69049 -0.0152759 4.56467 -0.0157571 4.43885C-0.0198121 3.29733 -0.0198121 3.29733 0.244546 2.8086C0.25541 2.78784 0.266274 2.76709 0.277467 2.74571C0.366806 2.57934 0.46646 2.43069 0.594155 2.29102C0.631679 2.24921 0.631679 2.24921 0.669961 2.20655C1.08115 1.77096 1.65912 1.4621 2.26659 1.4398C2.42074 1.43699 2.57478 1.43904 2.72892 1.44141C2.78277 1.44188 2.83663 1.44231 2.89048 1.44269C3.02088 1.44371 3.15126 1.44532 3.28166 1.44727C3.28067 1.41231 3.28067 1.41231 3.27967 1.37665C3.27706 1.26999 3.27544 1.16333 3.27384 1.05664C3.2728 1.01999 3.27175 0.983329 3.27067 0.94556C3.26826 0.731134 3.27615 0.561175 3.40666 0.384769C3.46342 0.327274 3.46342 0.327274 3.51798 0.292973C3.53607 0.281089 3.55416 0.269205 3.57279 0.256962C3.76439 0.153384 4.03587 0.158145 4.23283 0.246098Z" fill="#155DEC"/>
<path d="M14.5819 9.42406C14.6386 9.47275 14.6946 9.52229 14.7499 9.5725C14.7659 9.58698 14.782 9.60147 14.7985 9.6164C15.3395 10.1121 15.7105 10.7412 15.9062 11.4475C15.9162 11.483 15.9261 11.5185 15.9364 11.555C16.1645 12.5338 15.9776 13.595 15.4505 14.4446C15.3345 14.6239 15.206 14.7893 15.0624 14.9475C15.0479 14.9635 15.0334 14.9795 15.0185 14.9961C14.5228 15.5371 13.8937 15.9081 13.1874 16.1037C13.1519 16.1137 13.1164 16.1237 13.0799 16.134C12.1011 16.3621 11.04 16.1752 10.1903 15.6481C10.011 15.5321 9.84562 15.4036 9.68741 15.26C9.67139 15.2455 9.65537 15.231 9.63886 15.2161C9.09779 14.7204 8.72683 14.0913 8.53116 13.385C8.52117 13.3495 8.51118 13.314 8.50089 13.2775C8.27282 12.2987 8.45975 11.2375 8.98685 10.3879C9.10279 10.2086 9.23136 10.0432 9.37491 9.885C9.3894 9.86897 9.40389 9.85295 9.41881 9.83644C9.91455 9.29537 10.5436 8.92441 11.2499 8.72875C11.2854 8.71876 11.3209 8.70877 11.3575 8.69847C12.4776 8.43748 13.6835 8.71695 14.5819 9.42406ZM11.3749 10.0412C11.3431 10.0518 11.3113 10.0624 11.2786 10.0734C10.6971 10.2875 10.2012 10.7679 9.9377 11.3255C9.67446 11.9403 9.61116 12.6239 9.84366 13.26C9.85426 13.2918 9.86485 13.3236 9.87577 13.3563C10.0899 13.9379 10.5703 14.4337 11.1279 14.6972C11.7427 14.9605 12.4263 15.0238 13.0624 14.7912C13.0942 14.7807 13.126 14.7701 13.1587 14.7591C13.7403 14.545 14.2361 14.0646 14.4996 13.507C14.7629 12.8922 14.8262 12.2086 14.5937 11.5725C14.5778 11.5248 14.5778 11.5248 14.5616 11.4762C14.3474 10.8946 13.867 10.3988 13.3094 10.1353C12.6946 9.87204 12.0111 9.80874 11.3749 10.0412Z" fill="#155DEC"/>
<path d="M12.5452 10.5586C12.6983 10.6479 12.7888 10.7814 12.8441 10.9473C12.8467 11.0118 12.8474 11.0764 12.8471 11.141C12.847 11.1788 12.8469 11.2165 12.8468 11.2554C12.8464 11.3146 12.8464 11.3146 12.846 11.375C12.8459 11.4148 12.8457 11.4546 12.8456 11.4957C12.8452 11.5941 12.8447 11.6926 12.8441 11.791C12.875 11.7896 12.9059 11.7881 12.9378 11.7866C13.3926 11.7715 13.3926 11.7715 13.5628 11.916C13.7292 12.1004 13.7618 12.2617 13.7589 12.5073C13.7443 12.6714 13.6942 12.7909 13.5716 12.9023C13.3968 13.0327 13.2475 13.0466 13.0322 13.0485C12.9906 13.0488 12.9906 13.0488 12.9482 13.0492C12.8895 13.0497 12.8308 13.05 12.7721 13.0502C12.6828 13.0508 12.5936 13.0522 12.5044 13.0535C12.4473 13.0538 12.3901 13.0541 12.333 13.0543C12.3065 13.0549 12.2801 13.0554 12.2528 13.056C12.0471 13.0552 11.8736 13.0068 11.7241 12.8593C11.7128 12.8413 11.7014 12.8232 11.6898 12.8047C11.6779 12.7866 11.666 12.7685 11.6538 12.7499C11.5978 12.6464 11.5898 12.5601 11.5885 12.4448C11.5881 12.4125 11.5877 12.3801 11.5873 12.3468C11.5871 12.3118 11.5869 12.2769 11.5866 12.2408C11.5864 12.2048 11.5861 12.1688 11.5859 12.1316C11.5854 12.0553 11.5851 11.9789 11.5848 11.9026C11.5843 11.7862 11.5829 11.6698 11.5816 11.5534C11.5812 11.4792 11.581 11.4049 11.5808 11.3307C11.5802 11.296 11.5797 11.2614 11.5791 11.2257C11.5797 10.9943 11.606 10.8118 11.7758 10.6398C11.7938 10.6285 11.8118 10.6171 11.8304 10.6055C11.8575 10.5876 11.8575 10.5876 11.8852 10.5695C12.0768 10.4659 12.3483 10.4706 12.5452 10.5586Z" fill="#155DEC"/>
<path d="M6.95095 11.6211C7.10403 11.7104 7.19449 11.8439 7.24977 12.0098C7.27044 12.2385 7.27293 12.4487 7.12477 12.6348C6.94123 12.8016 6.77842 12.8338 6.53346 12.8308C6.3694 12.8162 6.2499 12.7662 6.13845 12.6436C5.98906 12.4432 5.97796 12.2553 5.99977 12.0098C6.04767 11.8332 6.14004 11.7311 6.29091 11.632C6.48251 11.5284 6.75399 11.5331 6.95095 11.6211Z" fill="#155DEC"/>
<path d="M4.2322 11.6211C4.38528 11.7104 4.47574 11.8439 4.53102 12.0098C4.55169 12.2385 4.55418 12.4487 4.40602 12.6348C4.22248 12.8016 4.05967 12.8338 3.81471 12.8308C3.65065 12.8162 3.53115 12.7662 3.4197 12.6436C3.27031 12.4432 3.25921 12.2553 3.28102 12.0098C3.32892 11.8332 3.42129 11.7311 3.57216 11.632C3.76376 11.5284 4.03524 11.5331 4.2322 11.6211Z" fill="#155DEC"/>
<path d="M6.95095 8.90235C7.10403 8.99165 7.19449 9.12517 7.24977 9.29102C7.27044 9.51971 7.27293 9.72997 7.12477 9.91602C6.94123 10.0829 6.77842 10.115 6.53346 10.1121C6.3694 10.0975 6.2499 10.0474 6.13845 9.92481C5.98906 9.72449 5.97796 9.53659 5.99977 9.29102C6.04767 9.11443 6.14004 9.01234 6.29091 8.91321C6.48251 8.80963 6.75399 8.8144 6.95095 8.90235Z" fill="#155DEC"/>
<path d="M4.2322 8.90235C4.38528 8.99165 4.47574 9.12517 4.53102 9.29102C4.55169 9.51971 4.55418 9.72997 4.40602 9.91602C4.22248 10.0829 4.05967 10.115 3.81471 10.1121C3.65065 10.0975 3.53115 10.0474 3.4197 9.92481C3.27031 9.72449 3.25921 9.53659 3.28102 9.29102C3.32892 9.11443 3.42129 9.01234 3.57216 8.91321C3.76376 8.80963 4.03524 8.8144 4.2322 8.90235Z" fill="#155DEC"/>
<path d="M12.3884 6.1836C12.5415 6.2729 12.632 6.40642 12.6873 6.57227C12.7079 6.80096 12.7104 7.01122 12.5623 7.19727C12.3787 7.36413 12.2159 7.39627 11.971 7.39331C11.8069 7.37874 11.6874 7.32866 11.5759 7.20606C11.4266 7.00574 11.4155 6.81784 11.4373 6.57227C11.4852 6.39568 11.5775 6.29359 11.7284 6.19446C11.92 6.09088 12.1915 6.09565 12.3884 6.1836Z" fill="#155DEC"/>
<path d="M9.6697 6.1836C9.82278 6.2729 9.91324 6.40642 9.96852 6.57227C9.98919 6.80096 9.99168 7.01122 9.84352 7.19727C9.65998 7.36413 9.49717 7.39627 9.25221 7.39331C9.08815 7.37874 8.96865 7.32866 8.8572 7.20606C8.70781 7.00574 8.69671 6.81784 8.71852 6.57227C8.76642 6.39568 8.85879 6.29359 9.00966 6.19446C9.20126 6.09088 9.47274 6.09565 9.6697 6.1836Z" fill="#155DEC"/>
<path d="M6.95095 6.1836C7.10403 6.2729 7.19449 6.40642 7.24977 6.57227C7.27044 6.80096 7.27293 7.01122 7.12477 7.19727C6.94123 7.36413 6.77842 7.39627 6.53346 7.39331C6.3694 7.37874 6.2499 7.32866 6.13845 7.20606C5.98906 7.00574 5.97796 6.81784 5.99977 6.57227C6.04767 6.39568 6.14004 6.29359 6.29091 6.19446C6.48251 6.09088 6.75399 6.09565 6.95095 6.1836Z" fill="#155DEC"/>
<path d="M4.2322 6.1836C4.38528 6.2729 4.47574 6.40642 4.53102 6.57227C4.55169 6.80096 4.55418 7.01122 4.40602 7.19727C4.22248 7.36413 4.05967 7.39627 3.81471 7.39331C3.65065 7.37874 3.53115 7.32866 3.4197 7.20606C3.27031 7.00574 3.25921 6.81784 3.28102 6.57227C3.32892 6.39568 3.42129 6.29359 3.57216 6.19446C3.76376 6.09088 4.03524 6.09565 4.2322 6.1836Z" fill="#155DEC"/>
</g>
<defs>
<clipPath id="clip0_96_290">
<rect width="16" height="16" fill="white" transform="translate(0 0.197266)"/>
</clipPath>
</defs>
</svg>
