<svg width="16" height="16" viewBox="0 0 16 16" fill="none" xmlns="http://www.w3.org/2000/svg">
<g id="solar:flag-2-linear">
<path id="Vector" d="M3.33325 14.6668V9.3335M3.33325 9.3335V2.66683M3.33325 9.3335L4.97992 9.00416C6.08042 8.78393 7.22122 8.88863 8.26325 9.3055C9.39231 9.75698 10.6349 9.84119 11.8146 9.54616L11.8813 9.5295C11.972 9.50668 12.0562 9.46294 12.1271 9.40177C12.198 9.3406 12.2536 9.26369 12.2894 9.1772C12.3252 9.09071 12.3403 8.99703 12.3334 8.90367C12.3266 8.8103 12.298 8.71983 12.2499 8.6395L11.2099 6.9055C10.9819 6.5255 10.8679 6.33616 10.8413 6.13016C10.83 6.04386 10.83 5.95646 10.8413 5.87016C10.8679 5.66416 10.9819 5.47416 11.2099 5.09483L12.0619 3.67483C12.1117 3.59228 12.1358 3.49681 12.1313 3.40052C12.1268 3.30423 12.0937 3.21146 12.0364 3.13398C11.979 3.05649 11.9 2.99779 11.8092 2.9653C11.7184 2.93281 11.6201 2.92801 11.5266 2.9515C10.534 3.1997 9.48852 3.12879 8.53858 2.74883L8.26325 2.63883C7.22141 2.22213 6.08087 2.11744 4.98059 2.3375L3.33325 2.66683M3.33325 2.66683V1.3335" stroke="#2F80ED" stroke-width="1.5" stroke-linecap="round"/>
</g>
</svg>
