<svg width="50" height="50" viewBox="0 0 50 50" fill="none" xmlns="http://www.w3.org/2000/svg">
<path d="M21.0938 21.7448C21.0938 22.5143 20.9422 23.2762 20.6477 23.9871C20.3533 24.698 19.9217 25.3439 19.3776 25.888C18.8335 26.4321 18.1876 26.8637 17.4767 27.1581C16.7658 27.4526 16.0038 27.6042 15.2344 27.6042C14.4649 27.6042 13.703 27.4526 12.9921 27.1581C12.2812 26.8637 11.6353 26.4321 11.0912 25.888C10.5471 25.3439 10.1155 24.698 9.82102 23.9871C9.52656 23.2762 9.375 22.5143 9.375 21.7448C9.375 20.1908 9.99233 18.7004 11.0912 17.6016C12.19 16.5027 13.6804 15.8854 15.2344 15.8854C16.7884 15.8854 18.2787 16.5027 19.3776 17.6016C20.4764 18.7004 21.0938 20.1908 21.0938 21.7448ZM17.8385 21.7448C17.8385 21.0541 17.5642 20.3917 17.0758 19.9034C16.5874 19.415 15.925 19.1406 15.2344 19.1406C14.5437 19.1406 13.8813 19.415 13.393 19.9034C12.9046 20.3917 12.6302 21.0541 12.6302 21.7448C12.6302 22.4355 12.9046 23.0978 13.393 23.5862C13.8813 24.0746 14.5437 24.349 15.2344 24.349C15.925 24.349 16.5874 24.0746 17.0758 23.5862C17.5642 23.0978 17.8385 22.4355 17.8385 21.7448ZM15.2344 41.9271C16.7884 41.9271 18.2787 41.3098 19.3776 40.2109C20.4764 39.1121 21.0938 37.6217 21.0938 36.0677C21.0938 34.5137 20.4764 33.0234 19.3776 31.9245C18.2787 30.8257 16.7884 30.2083 15.2344 30.2083C13.6804 30.2083 12.19 30.8257 11.0912 31.9245C9.99233 33.0234 9.375 34.5137 9.375 36.0677C9.375 37.6217 9.99233 39.1121 11.0912 40.2109C12.19 41.3098 13.6804 41.9271 15.2344 41.9271ZM15.2344 38.6719C14.5437 38.6719 13.8813 38.3975 13.393 37.9091C12.9046 37.4208 12.6302 36.7584 12.6302 36.0677C12.6302 35.377 12.9046 34.7147 13.393 34.2263C13.8813 33.7379 14.5437 33.4635 15.2344 33.4635C15.925 33.4635 16.5874 33.7379 17.0758 34.2263C17.5642 34.7147 17.8385 35.377 17.8385 36.0677C17.8385 36.7584 17.5642 37.4208 17.0758 37.9091C16.5874 38.3975 15.925 38.6719 15.2344 38.6719ZM11.0026 9.375C10.5709 9.375 10.1569 9.54648 9.85171 9.85171C9.54648 10.1569 9.375 10.5709 9.375 11.0026C9.375 11.4343 9.54648 11.8483 9.85171 12.1535C10.1569 12.4587 10.5709 12.6302 11.0026 12.6302H38.9974C39.4291 12.6302 39.8431 12.4587 40.1483 12.1535C40.4535 11.8483 40.625 11.4343 40.625 11.0026C40.625 10.5709 40.4535 10.1569 40.1483 9.85171C39.8431 9.54648 39.4291 9.375 38.9974 9.375H11.0026ZM23.6979 22.0703C23.6979 21.1719 24.4271 20.4427 25.3255 20.4427H38.9974C39.4291 20.4427 39.8431 20.6142 40.1483 20.9194C40.4535 21.2247 40.625 21.6386 40.625 22.0703C40.625 22.502 40.4535 22.916 40.1483 23.2212C39.8431 23.5264 39.4291 23.6979 38.9974 23.6979H25.3255C24.4271 23.6979 23.6979 22.9688 23.6979 22.0703ZM25.3255 34.1146C24.8939 34.1146 24.4799 34.2861 24.1746 34.5913C23.8694 34.8965 23.6979 35.3105 23.6979 35.7422C23.6979 36.1739 23.8694 36.5878 24.1746 36.8931C24.4799 37.1983 24.8939 37.3698 25.3255 37.3698H38.9974C39.4291 37.3698 39.8431 37.1983 40.1483 36.8931C40.4535 36.5878 40.625 36.1739 40.625 35.7422C40.625 35.3105 40.4535 34.8965 40.1483 34.5913C39.8431 34.2861 39.4291 34.1146 38.9974 34.1146H25.3255ZM9.70052 1.5625C7.54218 1.5625 5.47225 2.4199 3.94607 3.94607C2.4199 5.47225 1.5625 7.54218 1.5625 9.70052V40.2995C1.5625 42.4578 2.4199 44.5278 3.94607 46.0539C5.47225 47.5801 7.54218 48.4375 9.70052 48.4375H40.2995C42.4578 48.4375 44.5278 47.5801 46.0539 46.0539C47.5801 44.5278 48.4375 42.4578 48.4375 40.2995V9.70052C48.4375 7.54218 47.5801 5.47225 46.0539 3.94607C44.5278 2.4199 42.4578 1.5625 40.2995 1.5625H9.70052ZM4.81771 9.70052C4.81771 8.40552 5.33215 7.16356 6.24785 6.24785C7.16356 5.33215 8.40552 4.81771 9.70052 4.81771H40.2995C41.5945 4.81771 42.8364 5.33215 43.7521 6.24785C44.6679 7.16356 45.1823 8.40552 45.1823 9.70052V40.2995C45.1823 41.5945 44.6679 42.8364 43.7521 43.7521C42.8364 44.6679 41.5945 45.1823 40.2995 45.1823H9.70052C8.40552 45.1823 7.16356 44.6679 6.24785 43.7521C5.33215 42.8364 4.81771 41.5945 4.81771 40.2995V9.70052Z" fill="white"/>
</svg>
