<svg width="16" height="16" viewBox="0 0 16 16" fill="none" xmlns="http://www.w3.org/2000/svg">
<path d="M9.33333 2.66671H10.6667C11.6093 2.66671 12.0807 2.66671 12.3733 2.96004C12.6667 3.25204 12.6667 3.72337 12.6667 4.66671M6.66667 2.66671H5.33333C4.39067 2.66671 3.91933 2.66671 3.62667 2.96004C3.33333 3.25204 3.33333 3.72337 3.33333 4.66671M6.66667 13.3334H5.33333C4.39067 13.3334 3.91933 13.3334 3.62667 13.04C3.33333 12.748 3.33333 12.2767 3.33333 11.3334M9.33333 13.3334H10.6667C11.6093 13.3334 12.0807 13.3334 12.3733 13.04C12.6667 12.7474 12.6667 12.276 12.6667 11.3334M6.66667 8.00004H9.33333M8.66667 1.33337H7.33333C7.15652 1.33337 6.98695 1.40361 6.86193 1.52864C6.7369 1.65366 6.66667 1.82323 6.66667 2.00004V3.33337C6.66667 3.51018 6.7369 3.67975 6.86193 3.80478C6.98695 3.9298 7.15652 4.00004 7.33333 4.00004H8.66667C8.84348 4.00004 9.01305 3.9298 9.13807 3.80478C9.2631 3.67975 9.33333 3.51018 9.33333 3.33337V2.00004C9.33333 1.82323 9.2631 1.65366 9.13807 1.52864C9.01305 1.40361 8.84348 1.33337 8.66667 1.33337ZM8.66667 12H7.33333C7.15652 12 6.98695 12.0703 6.86193 12.1953C6.7369 12.3203 6.66667 12.4899 6.66667 12.6667V14C6.66667 14.1769 6.7369 14.3464 6.86193 14.4714C6.98695 14.5965 7.15652 14.6667 7.33333 14.6667H8.66667C8.84348 14.6667 9.01305 14.5965 9.13807 14.4714C9.2631 14.3464 9.33333 14.1769 9.33333 14V12.6667C9.33333 12.4899 9.2631 12.3203 9.13807 12.1953C9.01305 12.0703 8.84348 12 8.66667 12ZM14 8.66671V7.33337C14 7.15656 13.9298 6.98699 13.8047 6.86197C13.6797 6.73695 13.5101 6.66671 13.3333 6.66671H12C11.8232 6.66671 11.6536 6.73695 11.5286 6.86197C11.4036 6.98699 11.3333 7.15656 11.3333 7.33337V8.66671C11.3333 8.84352 11.4036 9.01309 11.5286 9.13811C11.6536 9.26314 11.8232 9.33337 12 9.33337H13.3333C13.5101 9.33337 13.6797 9.26314 13.8047 9.13811C13.9298 9.01309 14 8.84352 14 8.66671ZM4.66667 8.66671V7.33337C4.66667 7.15656 4.59643 6.98699 4.4714 6.86197C4.34638 6.73695 4.17681 6.66671 4 6.66671H2.66667C2.48986 6.66671 2.32029 6.73695 2.19526 6.86197C2.07024 6.98699 2 7.15656 2 7.33337V8.66671C2 8.84352 2.07024 9.01309 2.19526 9.13811C2.32029 9.26314 2.48986 9.33337 2.66667 9.33337H4C4.17681 9.33337 4.34638 9.26314 4.4714 9.13811C4.59643 9.01309 4.66667 8.84352 4.66667 8.66671Z" stroke="#155DEC" stroke-linecap="round" stroke-linejoin="round"/>
</svg>
