<svg width="24" height="25" viewBox="0 0 24 25" fill="none" xmlns="http://www.w3.org/2000/svg">
<g id="Simplification">
<path id="Vector" d="M9.70314 6.29346C9.84962 6.31104 9.84962 6.31104 9.98439 6.34033C10.0035 6.39389 10.0226 6.44744 10.0422 6.50262C10.1149 6.70609 10.1882 6.90933 10.2616 7.11252C10.293 7.19959 10.3242 7.28672 10.3553 7.37391C10.7251 8.4116 11.1462 9.33503 11.8594 10.1841C11.8887 10.2197 11.918 10.2554 11.9482 10.2921C12.1878 10.5742 12.4572 10.8026 12.75 11.0278C12.7911 11.0597 12.8322 11.0916 12.8745 11.1245C13.7989 11.8205 14.873 12.1567 15.9536 12.5382C16.0001 12.5546 16.0465 12.5711 16.0944 12.5881C16.1561 12.6097 16.1561 12.6097 16.219 12.6318C16.3125 12.6685 16.3125 12.6685 16.3594 12.7153C16.3613 12.8091 16.3614 12.9029 16.3594 12.9966C15.9873 13.1513 15.6124 13.2945 15.233 13.4303C14.2005 13.8004 13.2339 14.2029 12.4248 14.9681C12.3281 15.0591 12.3281 15.0591 12.1846 15.1704C11.1097 16.131 10.6202 17.5509 10.1803 18.8772C10.1681 18.9127 10.156 18.9481 10.1435 18.9847C10.1131 19.0736 10.0841 19.163 10.0553 19.2524C9.98439 19.3716 9.98439 19.3716 9.83589 19.4131C9.79208 19.4149 9.74828 19.4167 9.70314 19.4185C9.56777 19.215 9.49221 19.0045 9.4131 18.7754C9.38423 18.6936 9.35531 18.6118 9.32634 18.53C9.30385 18.4662 9.30385 18.4662 9.28089 18.4012C8.92966 17.4106 8.56997 16.4738 7.87502 15.6685C7.83822 15.6257 7.80142 15.583 7.7635 15.539C7.66191 15.424 7.5582 15.3115 7.45314 15.1997C7.42855 15.1721 7.40395 15.1445 7.37862 15.116C6.57702 14.2532 5.44405 13.8171 4.36525 13.4243C4.33335 13.4127 4.30146 13.4011 4.26859 13.3891C4.10884 13.3309 3.94896 13.2731 3.78881 13.216C3.72986 13.1947 3.6709 13.1735 3.61195 13.1522C3.53327 13.1241 3.53327 13.1241 3.453 13.0955C3.32814 13.0435 3.32814 13.0435 3.23439 12.9497C3.2256 12.8384 3.2256 12.8384 3.28127 12.7153C3.60238 12.5193 3.99671 12.42 4.35057 12.2948C6.21683 11.6314 7.80924 10.6143 8.71492 8.77911C8.96783 8.22865 9.16014 7.64999 9.36069 7.07893C9.38436 7.01178 9.38436 7.01178 9.4085 6.94327C9.43847 6.85799 9.46817 6.77262 9.49759 6.68714C9.51095 6.649 9.52431 6.61086 9.53808 6.57156C9.55542 6.52137 9.55542 6.52137 9.57311 6.47016C9.60939 6.38721 9.60939 6.38721 9.70314 6.29346Z" fill="url(#paint0_linear_5527_119362)"/>
<path id="Vector_2" d="M17.2969 2.35596C17.3742 2.35596 17.4516 2.35596 17.5312 2.35596C17.5426 2.38734 17.5539 2.41872 17.5655 2.45105C17.6181 2.59627 17.6714 2.74125 17.7246 2.88623C17.7424 2.93557 17.7601 2.9849 17.7784 3.03574C18.1213 3.96419 18.6431 4.67525 19.5557 5.10693C19.851 5.24233 20.1562 5.34937 20.467 5.4437C20.5646 5.47516 20.5646 5.47516 20.7188 5.54346C20.7645 5.64545 20.7645 5.64545 20.7656 5.73096C20.5255 5.84211 20.2836 5.94186 20.036 6.03469C19.4548 6.25403 19.0101 6.51121 18.5625 6.94971C18.5331 6.97744 18.5036 7.00518 18.4733 7.03375C18.0456 7.47307 17.83 8.11008 17.6453 8.68258C17.6331 8.71879 17.6208 8.75499 17.6082 8.7923C17.5978 8.82459 17.5874 8.85688 17.5767 8.89016C17.5312 8.96533 17.5312 8.96533 17.4327 8.99958C17.3887 9.00583 17.3887 9.00583 17.3438 9.01221C17.3105 8.93314 17.2773 8.85403 17.2441 8.7749C17.2226 8.7236 17.2011 8.6723 17.179 8.61945C17.1202 8.47606 17.0642 8.33191 17.009 8.18715C16.6303 7.20619 16.0657 6.58466 15.108 6.15164C14.8738 6.05257 14.6334 5.96805 14.3921 5.88778C14.3559 5.87536 14.3197 5.86295 14.2824 5.85016C14.2501 5.83954 14.2178 5.82891 14.1846 5.81797C14.1094 5.77783 14.1094 5.77783 14.0625 5.63721C14.2007 5.52361 14.3276 5.46052 14.4963 5.4021C14.5438 5.38521 14.5914 5.36831 14.6404 5.35091C14.6904 5.33324 14.7404 5.31557 14.792 5.29736C15.1919 5.15138 15.5551 5.01391 15.8906 4.74658C15.9271 4.71836 15.9636 4.69015 16.0012 4.66107C16.722 4.06485 17.0114 3.21416 17.2969 2.35596Z" fill="url(#paint1_linear_5527_119362)"/>
<path id="Vector_3" d="M17.3438 16.6997C17.4341 16.7057 17.4341 16.7057 17.5312 16.7466C17.5868 16.847 17.5868 16.847 17.632 16.9791C17.6491 17.0274 17.6663 17.0757 17.684 17.1254C17.7012 17.1764 17.7185 17.2273 17.7363 17.2798C18.0651 18.2344 18.5591 18.9634 19.4707 19.4419C19.7818 19.5935 20.1022 19.7109 20.4313 19.8176C20.4679 19.8301 20.5046 19.8426 20.5424 19.8555C20.5753 19.8662 20.6082 19.8769 20.6421 19.8879C20.7188 19.9341 20.7188 19.9341 20.7532 20.0327C20.7573 20.0621 20.7614 20.0914 20.7656 20.1216C20.4775 20.2436 20.189 20.3618 19.8955 20.4702C18.9872 20.8199 18.3341 21.3864 17.9282 22.2801C17.7758 22.6311 17.6524 22.9932 17.5312 23.356C17.4539 23.356 17.3766 23.356 17.2969 23.356C17.287 23.3277 17.2771 23.2994 17.2669 23.2702C16.8429 22.0632 16.4144 21.1475 15.2128 20.5673C14.9636 20.4611 14.709 20.3701 14.4526 20.2832C14.3971 20.2638 14.3971 20.2638 14.3405 20.2441C14.3072 20.2329 14.274 20.2216 14.2397 20.2101C14.1562 20.1685 14.1562 20.1685 14.0625 20.0278C14.1289 19.8951 14.2033 19.8914 14.3419 19.8425C14.3902 19.8251 14.4385 19.8076 14.4882 19.7896C14.5893 19.7538 14.6903 19.718 14.7914 19.6823C15.7649 19.3298 16.4333 18.7854 16.8768 17.8467C17.0134 17.5444 17.1239 17.2323 17.2337 16.9196C17.2969 16.7466 17.2969 16.7466 17.3438 16.6997Z" fill="url(#paint2_linear_5527_119362)"/>
</g>
<defs>
<linearGradient id="paint0_linear_5527_119362" x1="3.2301" y1="17.9747" x2="13.967" y2="8.7038" gradientUnits="userSpaceOnUse">
<stop stop-color="#035C42"/>
<stop offset="1" stop-color="#06B884"/>
</linearGradient>
<linearGradient id="paint1_linear_5527_119362" x1="14.0625" y1="8.28002" x2="19.5128" y2="3.54287" gradientUnits="userSpaceOnUse">
<stop stop-color="#035C42"/>
<stop offset="1" stop-color="#06B884"/>
</linearGradient>
<linearGradient id="paint2_linear_5527_119362" x1="14.0625" y1="22.6238" x2="19.5128" y2="17.8866" gradientUnits="userSpaceOnUse">
<stop stop-color="#035C42"/>
<stop offset="1" stop-color="#06B884"/>
</linearGradient>
</defs>
</svg>
