<svg width="110" height="113" viewBox="0 0 110 113" fill="none" xmlns="http://www.w3.org/2000/svg">
<g id="Group 14218">
<path id="Star 37" d="M49.7766 34.373C47.8436 29.1493 40.4553 29.1493 38.5224 34.373L31.1336 54.341C30.931 54.8884 30.4994 55.32 29.9519 55.5226L9.98399 62.9114C4.76028 64.8443 4.76028 72.2327 9.98399 74.1656L29.9519 81.5544C30.4994 81.757 30.931 82.1886 31.1336 82.7361L38.5224 102.704C40.4553 107.928 47.8436 107.928 49.7766 102.704L57.1654 82.7361C57.368 82.1886 57.7996 81.757 58.347 81.5544L78.315 74.1656C83.5387 72.2327 83.5387 64.8443 78.315 62.9114L58.347 55.5226C57.7996 55.32 57.368 54.8884 57.1654 54.341L49.7766 34.373Z" fill="url(#paint0_linear_2517_43418)" stroke="white" stroke-width="4"/>
<path id="Star 38" d="M75.887 32.8353L76.581 30.9596L75.887 32.8353C76.4344 33.0379 76.866 33.4695 77.0686 34.017L79.3477 40.1763C81.2807 45.4 88.669 45.4 90.602 40.1763L92.8811 34.017C93.0837 33.4695 93.5153 33.0379 94.0627 32.8353L100.222 30.5562C105.446 28.6232 105.446 21.2349 100.222 19.302L94.0627 17.0228C93.5153 16.8202 93.0837 16.3886 92.8811 15.8412L90.602 9.68187C88.669 4.45816 81.2807 4.45815 79.3477 9.68186L77.0686 15.8412C76.866 16.3886 76.4344 16.8202 75.887 17.0228L69.7276 19.302C64.5039 21.2349 64.5039 28.6232 69.7276 30.5562L75.887 32.8353Z" fill="white" stroke="url(#paint1_linear_2517_43418)" stroke-width="4"/>
</g>
<defs>
<linearGradient id="paint0_linear_2517_43418" x1="6.3826" y1="90.3432" x2="81.9164" y2="46.7338" gradientUnits="userSpaceOnUse">
<stop stop-color="#0538FF"/>
<stop offset="0.484375" stop-color="#7D87FF"/>
<stop offset="1" stop-color="#543AB7"/>
</linearGradient>
<linearGradient id="paint1_linear_2517_43418" x1="63.5917" y1="37.2747" x2="106.358" y2="12.5835" gradientUnits="userSpaceOnUse">
<stop stop-color="#0538FF"/>
<stop offset="0.484375" stop-color="#7D87FF"/>
<stop offset="1" stop-color="#543AB7"/>
</linearGradient>
</defs>
</svg>
