<svg width="16" height="16" viewBox="0 0 16 16" fill="none" xmlns="http://www.w3.org/2000/svg">
<g id="Group 14206">
<path id="Vector" d="M13.6747 9.98462C14.0366 10.2086 14.3164 10.5158 14.4177 10.9228C14.4229 10.9428 14.4282 10.9627 14.4336 10.9833C14.5007 11.3796 14.4283 11.7407 14.245 12.0986C14.2693 12.1135 14.2937 12.1284 14.3188 12.1438C14.884 12.4976 15.0716 12.9385 15.2279 13.5443C15.2451 13.6108 15.2631 13.6771 15.2811 13.7435C15.3662 14.0663 15.4568 14.4143 15.2704 14.7202C15.16 14.8573 15.0198 14.9412 14.8494 14.9971C14.7699 15.0041 14.7699 15.0041 14.6818 15.0044C14.6315 15.0047 14.6315 15.0047 14.5802 15.0051C14.5437 15.0051 14.5071 15.005 14.4695 15.005C14.4304 15.0052 14.3914 15.0054 14.3523 15.0056C14.2464 15.0061 14.1405 15.0062 14.0346 15.0062C13.9683 15.0063 13.9021 15.0064 13.8358 15.0065C13.6045 15.007 13.3732 15.0072 13.1419 15.0072C12.9266 15.0072 12.7114 15.0077 12.4961 15.0086C12.311 15.0093 12.1259 15.0096 11.9408 15.0096C11.8304 15.0096 11.7199 15.0097 11.6095 15.0103C11.5056 15.0108 11.4017 15.0108 11.2977 15.0104C11.2417 15.0104 11.1856 15.0108 11.1296 15.0113C10.8954 15.0097 10.7383 14.9837 10.5548 14.8369C10.3656 14.6251 10.3122 14.4531 10.3305 14.1768C10.3456 14.0851 10.3682 13.9961 10.3927 13.9063C10.3993 13.8815 10.4058 13.8567 10.4126 13.8311C10.4264 13.779 10.4405 13.7269 10.4547 13.6748C10.4761 13.5964 10.4965 13.5178 10.5169 13.4392C10.6666 12.876 10.8896 12.4468 11.4243 12.1294C11.4433 12.1192 11.4623 12.1091 11.4818 12.0986C11.4725 12.0833 11.4631 12.068 11.4534 12.0523C11.2377 11.6763 11.205 11.2794 11.3091 10.8682C11.3843 10.6456 11.4909 10.4678 11.6545 10.2939C11.6781 10.2682 11.6781 10.2682 11.7021 10.242C12.2014 9.7309 13.0485 9.65504 13.6747 9.98462ZM12.3219 10.8596C12.1908 11.0138 12.1332 11.1633 12.1457 11.3621C12.1808 11.5866 12.2777 11.7215 12.4577 11.8677C12.637 11.9851 12.8252 11.984 13.0361 11.9619C13.2495 11.9024 13.3885 11.7897 13.4966 11.6064C13.5824 11.4337 13.5879 11.2479 13.53 11.0652C13.4397 10.8742 13.3091 10.763 13.1122 10.6731C12.8107 10.5792 12.5358 10.648 12.3219 10.8596ZM11.6204 13.054C11.5058 13.191 11.4689 13.3539 11.4243 13.5205C11.4113 13.5674 11.3983 13.6144 11.3853 13.6613C11.3718 13.7106 11.3584 13.76 11.3451 13.8093C11.3387 13.8331 11.3323 13.8569 11.3257 13.8813C11.3198 13.9039 11.3139 13.9264 11.3078 13.9496C11.3025 13.9696 11.2972 13.9897 11.2917 14.0104C11.2768 14.0756 11.2768 14.0756 11.2804 14.1768C12.3252 14.1768 13.37 14.1768 14.4465 14.1768C14.4085 14.0143 14.3705 13.8519 14.3314 13.6846C14.3203 13.6363 14.3092 13.5881 14.2977 13.5384C14.2293 13.2629 14.1368 13.045 13.873 12.8854C13.6762 12.7967 13.4567 12.8052 13.2442 12.805C13.2144 12.8049 13.1846 12.8048 13.1539 12.8047C13.091 12.8046 13.0281 12.8045 12.9651 12.8045C12.8695 12.8044 12.7738 12.8039 12.6781 12.8034C12.6167 12.8033 12.5554 12.8033 12.4941 12.8033C12.4657 12.8031 12.4374 12.8029 12.4082 12.8027C12.107 12.8036 11.8392 12.844 11.6204 13.054Z" fill="#2F80ED" stroke="#2F80ED" stroke-width="0.5"/>
<path id="Vector_2" d="M4.03801 10.0276C4.41317 10.3017 4.67032 10.6388 4.7396 11.0923C4.74197 11.1267 4.74435 11.1611 4.74679 11.1965C4.74828 11.2145 4.74976 11.2325 4.75129 11.2511C4.76525 11.5522 4.67502 11.8406 4.51653 12.0988C4.53638 12.1098 4.55623 12.1208 4.57668 12.1321C5.16742 12.4716 5.35254 12.9483 5.51168 13.5561C5.53111 13.63 5.55111 13.7038 5.57115 13.7775C5.58378 13.8252 5.59637 13.8729 5.60893 13.9206C5.61783 13.9531 5.61783 13.9531 5.62691 13.9862C5.68623 14.2173 5.69739 14.438 5.59499 14.6583C5.49111 14.8194 5.3375 14.9371 5.14975 14.9973C5.07037 15.0044 5.07037 15.0044 4.9825 15.0048C4.94905 15.005 4.91561 15.0053 4.88115 15.0056C4.84471 15.0056 4.80827 15.0056 4.77072 15.0057C4.73175 15.0059 4.69278 15.0061 4.65381 15.0063C4.54812 15.0069 4.44244 15.0072 4.33676 15.0073C4.27063 15.0074 4.2045 15.0076 4.13837 15.0078C3.90737 15.0085 3.67637 15.0088 3.44537 15.0089C3.23055 15.009 3.01574 15.0098 2.80092 15.011C2.61612 15.0119 2.43132 15.0123 2.24651 15.0124C2.1363 15.0124 2.02611 15.0126 1.9159 15.0134C1.81211 15.0141 1.70834 15.0142 1.60455 15.0137C1.54871 15.0137 1.49287 15.0143 1.43704 15.0149C1.21669 15.0132 1.04317 14.9844 0.861102 14.8606C0.672236 14.6709 0.616201 14.4964 0.620327 14.2374C0.634048 14.0342 0.693181 13.8372 0.747488 13.6411C0.767599 13.5684 0.786972 13.4956 0.806235 13.4227C0.943792 12.9086 1.12985 12.4553 1.63464 12.1689C1.72459 12.1262 1.72459 12.1262 1.78215 12.1262C1.77036 12.1054 1.75856 12.0845 1.7464 12.0631C1.54604 11.6983 1.47912 11.3058 1.58427 10.8991C1.73299 10.4733 1.99308 10.1484 2.41538 9.93869C2.93066 9.71066 3.55774 9.7278 4.03801 10.0276ZM2.62034 10.8393C2.45636 11.0375 2.413 11.2197 2.44416 11.4699C2.50822 11.6723 2.62522 11.8046 2.81834 11.9074C2.99929 11.9901 3.21147 11.9929 3.4049 11.9452C3.60136 11.8627 3.74808 11.703 3.82574 11.5144C3.88269 11.3191 3.85321 11.1238 3.74996 10.9473C3.64415 10.8086 3.50901 10.7014 3.33643 10.6496C3.06466 10.6175 2.81757 10.6461 2.62034 10.8393ZM2.0484 12.9345C2.02836 12.9464 2.00833 12.9583 1.98768 12.9705C1.77744 13.1684 1.72561 13.4469 1.65803 13.7104C1.64762 13.7497 1.63719 13.7889 1.62672 13.8282C1.57422 14.0006 1.57422 14.0006 1.55189 14.177C2.59671 14.177 3.64153 14.177 4.71801 14.177C4.69327 13.9889 4.65751 13.8149 4.61007 13.6318C4.60317 13.6036 4.59627 13.5753 4.58916 13.5462C4.51913 13.2754 4.41975 13.0525 4.17113 12.8918C3.97053 12.7918 3.73359 12.8054 3.51295 12.8052C3.4683 12.8051 3.4683 12.8051 3.42275 12.8049C3.36 12.8048 3.29725 12.8047 3.2345 12.8047C3.13906 12.8047 3.04363 12.8042 2.9482 12.8036C2.887 12.8036 2.8258 12.8035 2.7646 12.8035C2.73634 12.8033 2.70809 12.8031 2.67899 12.8029C2.45941 12.8036 2.23652 12.8166 2.0484 12.9345Z" fill="#2F80ED" stroke="#2F80ED" stroke-width="0.5"/>
<path id="Vector_3" d="M7.99561 0.985076C8.02335 0.985263 8.05109 0.985451 8.07967 0.985643C8.29035 0.990149 8.46993 1.01859 8.66121 1.10641C8.68366 1.116 8.70611 1.12559 8.72923 1.13547C9.14651 1.33265 9.40131 1.68337 9.55348 2.09079C9.67798 2.49671 9.5754 2.92945 9.38078 3.29391C9.40338 3.30748 9.42598 3.32105 9.44926 3.33504C10.0389 3.69724 10.2153 4.16468 10.3775 4.79078C10.3972 4.86613 10.4175 4.94129 10.4379 5.01646C10.5956 5.61278 10.5956 5.61278 10.4254 5.89755C10.3149 6.04212 10.1667 6.14373 9.98523 6.19235C9.8576 6.20467 9.73049 6.20412 9.6023 6.20383C9.5636 6.20403 9.52491 6.20427 9.48621 6.20454C9.38154 6.20514 9.27688 6.20522 9.1722 6.20517C9.08459 6.20517 8.99698 6.2054 8.90936 6.20563C8.70251 6.20616 8.49566 6.20623 8.2888 6.20605C8.07597 6.20587 7.86315 6.20649 7.65033 6.20751C7.46711 6.20835 7.2839 6.20866 7.10068 6.20855C6.99147 6.2085 6.88227 6.20864 6.77307 6.20931C6.67026 6.20993 6.56749 6.20987 6.46469 6.20932C6.4094 6.20918 6.35411 6.20971 6.29883 6.21027C6.03083 6.20782 5.81911 6.15252 5.62642 5.96847C5.48413 5.79067 5.45509 5.60265 5.47937 5.38575C5.51069 5.19503 5.55989 5.00819 5.60917 4.82104C5.62807 4.74881 5.6462 4.67643 5.66431 4.60401C5.79544 4.09359 5.99717 3.66314 6.47911 3.36911C6.52496 3.34352 6.57102 3.31824 6.61763 3.29391C6.60791 3.27442 6.59818 3.25493 6.58817 3.23485C6.57533 3.20866 6.56249 3.18247 6.54927 3.15549C6.53658 3.12979 6.52389 3.10409 6.51082 3.07762C6.37236 2.76233 6.35412 2.3475 6.46112 2.01901C6.48267 1.96927 6.5061 1.92022 6.53128 1.87204C6.5456 1.84437 6.55992 1.8167 6.57468 1.78819C6.78618 1.41484 7.10934 1.16604 7.53182 1.03261C7.6871 0.990919 7.83491 0.983401 7.99561 0.985076ZM7.45593 2.06174C7.30314 2.27093 7.27693 2.44067 7.30842 2.69235C7.37941 2.8941 7.514 3.01432 7.70474 3.11885C7.88738 3.19417 8.09741 3.19182 8.28479 3.129C8.48255 3.02652 8.59095 2.88053 8.69 2.69235C8.71346 2.45253 8.7102 2.25536 8.54608 2.06345C8.42565 1.94167 8.27994 1.85529 8.10478 1.83188C7.83429 1.82957 7.64081 1.86537 7.45593 2.06174ZM6.91265 4.13132C6.89262 4.14351 6.87258 4.15571 6.85194 4.16827C6.6545 4.34557 6.59925 4.57376 6.53717 4.81651C6.52217 4.87516 6.50662 4.93366 6.49097 4.99216C6.4369 5.17983 6.4369 5.17983 6.41615 5.37204C7.46097 5.37204 8.50578 5.37204 9.58226 5.37204C9.54216 5.16247 9.5 4.95923 9.44555 4.75339C9.43902 4.72681 9.43249 4.70023 9.42576 4.67285C9.35979 4.42482 9.25278 4.22313 9.01864 4.08613C8.80817 4.00571 8.59593 3.9967 8.37158 3.99759C8.3419 3.99754 8.31221 3.99748 8.28163 3.99743C8.21922 3.99739 8.15682 3.99749 8.09441 3.99772C7.99948 3.99801 7.90457 3.99772 7.80964 3.99737C7.7487 3.99741 7.68777 3.99748 7.62683 3.99759C7.59876 3.99748 7.57069 3.99737 7.54176 3.99725C7.32222 3.99866 7.09969 4.01174 6.91265 4.13132Z" fill="#2F80ED" stroke="#2F80ED" stroke-width="0.5"/>
<path id="Vector_4" d="M12.2296 4.55165C12.9989 4.89556 13.566 6.10033 13.8462 6.81275C14.0654 7.39365 14.1906 7.99847 14.1959 8.61562C14.1971 8.66489 14.1971 8.66489 14.1984 8.71517C14.2007 9.01975 14.2007 9.01975 14.0718 9.1454C13.9214 9.25632 13.7651 9.2486 13.5824 9.22743C13.4525 9.16898 13.3826 9.10568 13.3234 8.98134C13.2989 8.87074 13.2912 8.76296 13.2877 8.65012C13.2469 7.42186 12.7138 6.20332 11.8004 5.32959C11.6774 5.21063 11.6301 5.12922 11.6162 4.96352C11.6197 4.85461 11.6477 4.78044 11.7116 4.68837C11.8796 4.54431 12.0075 4.53094 12.2296 4.55165Z" fill="#2F80ED" stroke="#2F80ED" stroke-width="0.5"/>
<path id="Vector_5" d="M4.08322 4.55177C4.19849 4.60652 4.27487 4.66606 4.34226 4.77052C4.38931 4.90458 4.39276 5.01972 4.33799 5.1498C4.27541 5.25028 4.20169 5.3239 4.1156 5.40626C3.25584 6.26073 2.73735 7.46403 2.71105 8.64543C2.70656 8.81758 2.69511 8.97895 2.57392 9.11476C2.42683 9.23063 2.34022 9.23941 2.15341 9.2362C2.03949 9.2246 1.97852 9.1928 1.89572 9.11817C1.82216 9.01929 1.7982 8.95129 1.79689 8.83064C1.79656 8.80127 1.79624 8.77191 1.7959 8.74166C1.79619 8.71026 1.79648 8.67885 1.79678 8.64649C1.79697 8.61382 1.79717 8.58114 1.79737 8.54748C1.8234 7.14134 2.48812 5.68637 3.54995 4.70472C3.72656 4.55612 3.84463 4.5284 4.08322 4.55177Z" fill="#2F80ED" stroke="#2F80ED" stroke-width="0.5"/>
<path id="Vector_6" d="M9.64655 7.94764C9.74924 8.01194 9.8147 8.08428 9.86961 8.18861C9.87647 8.25398 9.87647 8.25398 9.87861 8.33216C9.88022 8.37044 9.88022 8.37044 9.88187 8.40949C9.85301 8.59766 9.68122 8.73103 9.54553 8.85947C9.52469 8.8794 9.50385 8.89934 9.48238 8.91988C9.41376 8.98545 9.34493 9.05081 9.27608 9.11616C9.22818 9.16177 9.18029 9.20738 9.13241 9.253C9.03217 9.34843 8.93182 9.44376 8.8314 9.53901C8.70268 9.66113 8.5743 9.78356 8.446 9.90608C8.34726 10.0003 8.24832 10.0943 8.14933 10.1883C8.1019 10.2333 8.05454 10.2785 8.00725 10.3237C7.94118 10.3868 7.87485 10.4496 7.80844 10.5124C7.77921 10.5405 7.77921 10.5405 7.74939 10.5691C7.60085 10.7087 7.49822 10.7634 7.28376 10.7689C7.09456 10.7386 6.97377 10.6173 6.84516 10.4933C6.81698 10.4665 6.81698 10.4665 6.78824 10.4392C6.74875 10.4017 6.70938 10.364 6.6701 10.3262C6.61 10.2685 6.54951 10.2111 6.48897 10.1538C6.45057 10.1171 6.41219 10.0805 6.37384 10.0438C6.34677 10.0181 6.34677 10.0181 6.31915 9.99193C6.30242 9.97578 6.2857 9.95963 6.26846 9.94299C6.25377 9.92891 6.23908 9.91483 6.22394 9.90032C6.11889 9.78109 6.11526 9.67078 6.11907 9.52001C6.13186 9.4127 6.16374 9.35951 6.24297 9.28236C6.38081 9.1854 6.49792 9.16073 6.66684 9.17982C6.85354 9.23833 6.98373 9.37766 7.11725 9.50794C7.13569 9.52571 7.15413 9.54347 7.17313 9.56178C7.2182 9.60523 7.26313 9.64881 7.30794 9.69251C7.42762 9.64793 7.50692 9.56489 7.59503 9.47937C7.62039 9.45509 7.62039 9.45509 7.64627 9.43032C7.68291 9.39521 7.71948 9.36004 7.756 9.32482C7.81382 9.26906 7.87182 9.2135 7.92989 9.15798C8.09492 9.00012 8.25958 8.84191 8.42415 8.68361C8.52488 8.58675 8.62582 8.49009 8.72688 8.39355C8.76533 8.35674 8.80369 8.31984 8.84197 8.28287C8.8955 8.23116 8.94929 8.17971 9.00314 8.12831C9.01886 8.113 9.03458 8.09769 9.05077 8.08191C9.22606 7.91578 9.4116 7.86609 9.64655 7.94764Z" fill="#2F80ED" stroke="#2F80ED" stroke-width="0.5"/>
<path id="Vector_7" d="M7.29466 13.8076C7.79534 13.874 8.28285 13.8687 8.78243 13.7958C9.24863 13.7278 9.24863 13.7278 9.43719 13.8486C9.57166 13.9902 9.59112 14.0781 9.58931 14.2652C9.57553 14.3921 9.51329 14.4652 9.41515 14.5475C8.84721 14.8956 7.70588 14.7577 7.07699 14.6689C7.05647 14.6661 7.03594 14.6634 7.01479 14.6605C6.61018 14.6033 6.61018 14.6033 6.47255 14.4502C6.38985 14.3214 6.39668 14.1863 6.41499 14.04C6.60249 13.6838 6.94357 13.7564 7.29466 13.8076Z" fill="#2F80ED" stroke="#2F80ED" stroke-width="0.5"/>
</g>
</svg>
