<svg width="25" height="25" viewBox="0 0 25 25" fill="none" xmlns="http://www.w3.org/2000/svg">
<g clip-path="url(#clip0_7034_22755)">
<path d="M13.687 4.71564C14.111 5.02538 14.5106 5.48226 14.5983 6.01642C14.604 6.058 14.6098 6.09957 14.6157 6.1424C14.6325 6.25862 14.6325 6.25862 14.6714 6.3592C14.8276 6.46237 14.9271 6.49982 15.1137 6.49982C15.2254 6.45624 15.3097 6.40669 15.4096 6.34162C15.8592 6.05196 16.3836 5.98078 16.9096 6.0633C17.5112 6.19514 17.9566 6.52987 18.3276 7.01545C18.6433 7.52826 18.7206 8.0917 18.6001 8.67658C18.5189 9.00925 18.375 9.26472 18.187 9.5467C18.1958 9.6613 18.1958 9.6613 18.2339 9.78107C18.2443 9.82089 18.2548 9.86071 18.2655 9.90174C18.3178 10.0276 18.3178 10.0276 18.4519 10.0592C18.5028 10.067 18.5536 10.0748 18.6059 10.0828C19.2022 10.1996 19.6485 10.513 19.9865 11.0141C20.2904 11.5229 20.3786 12.0803 20.2643 12.6633C20.092 13.2718 19.7445 13.7019 19.2182 14.0467C18.9968 14.1694 18.795 14.2377 18.5444 14.2723C18.4282 14.2891 18.4282 14.2891 18.3276 14.3279C18.2244 14.4842 18.187 14.5837 18.187 14.7703C18.2435 14.9151 18.3238 15.0335 18.4085 15.1633C18.6809 15.6295 18.7082 16.1777 18.5942 16.6946C18.4394 17.2604 18.0712 17.738 17.5708 18.0461C17.0191 18.3309 16.4533 18.3662 15.8531 18.2199C15.6434 18.1527 15.4633 18.0594 15.2807 17.9373C15.1526 17.8303 15.1526 17.8303 15.0288 17.8553C14.9679 17.8727 14.9679 17.8727 14.9057 17.8904C14.846 17.9061 14.846 17.9061 14.7851 17.9221C14.6592 17.9744 14.6592 17.9744 14.6276 18.1085C14.6198 18.1593 14.612 18.2102 14.604 18.2625C14.4872 18.8588 14.1739 19.305 13.6727 19.6431C13.1639 19.947 12.6065 20.0352 12.0235 19.9209C11.4151 19.7486 10.9849 19.4011 10.6401 18.8748C10.5174 18.6534 10.4491 18.4516 10.4145 18.201C10.3977 18.0848 10.3977 18.0848 10.3589 17.9842C10.2026 17.881 10.1031 17.8436 9.91648 17.8436C9.8048 17.8872 9.72055 17.9367 9.62058 18.0018C9.17103 18.2914 8.64665 18.3626 8.12058 18.2801C7.519 18.1483 7.07359 17.8135 6.70261 17.3279C6.38689 16.8151 6.30963 16.2517 6.43015 15.6668C6.51129 15.3341 6.65525 15.0787 6.84324 14.7967C6.8302 14.6845 6.8302 14.6845 6.79636 14.5623C6.78045 14.4686 6.76476 14.3749 6.74949 14.2811C6.70598 14.2849 6.66247 14.2888 6.61765 14.2928C6.13906 14.2909 5.70443 14.0072 5.35788 13.701C4.90693 13.1891 4.71439 12.7063 4.72086 12.0203C4.76283 11.4499 5.00858 10.9554 5.43699 10.5779C5.83383 10.244 6.22673 10.0523 6.74949 10.0623C6.75625 10.0207 6.76302 9.97918 6.76999 9.93634C6.79636 9.78107 6.79636 9.78107 6.8295 9.6681C6.84749 9.50909 6.80384 9.45447 6.71433 9.32404C6.40868 8.84748 6.31183 8.32668 6.40964 7.76838C6.54145 7.17067 6.87646 6.72775 7.35886 6.3592C7.86553 6.04726 8.43262 5.97229 9.01413 6.08381C9.28787 6.15055 9.51585 6.2498 9.74949 6.40607C9.87762 6.51312 9.87762 6.51312 10.0014 6.4881C10.042 6.4765 10.0827 6.4649 10.1245 6.45295C10.1643 6.44249 10.2041 6.43204 10.2452 6.42127C10.371 6.36904 10.371 6.36904 10.4026 6.23487C10.4104 6.18405 10.4182 6.13323 10.4262 6.08088C10.543 5.48461 10.8564 5.03835 11.3575 4.70026C12.0792 4.26935 12.9716 4.25804 13.687 4.71564ZM11.9878 6.08967C11.7941 6.39405 11.7977 6.69957 11.7858 7.05262C11.7638 7.21225 11.7274 7.2711 11.6245 7.39045C11.6245 7.42138 11.6245 7.45232 11.6245 7.4842C11.5389 7.51175 11.5389 7.51175 11.4516 7.53986C11.048 7.67504 10.6561 7.82669 10.2739 8.01447C9.97558 8.15393 9.78785 8.20011 9.46824 8.09357C9.33897 8.0074 9.25183 7.92436 9.14597 7.81232C8.97412 7.63558 8.82627 7.51791 8.57761 7.4842C8.38085 7.48688 8.22611 7.52436 8.06821 7.6446C7.91419 7.80525 7.82797 7.96151 7.81717 8.18567C7.85331 8.51596 8.06822 8.72666 8.30552 8.93934C8.46862 9.11621 8.50602 9.29725 8.49952 9.53672C8.46894 9.73933 8.3744 9.91517 8.28464 10.0975C8.12243 10.4408 7.9825 10.7759 7.87449 11.1404C7.82761 11.2811 7.82761 11.2811 7.73679 11.3338C7.70489 11.3473 7.67298 11.3609 7.64011 11.3748C7.5937 11.398 7.5937 11.398 7.54636 11.4217C7.43512 11.429 7.32376 11.4346 7.21238 11.4393C6.85954 11.4596 6.6029 11.4889 6.33054 11.7322C6.21064 11.9285 6.17301 12.0834 6.18699 12.3123C6.2624 12.5344 6.36642 12.6537 6.56199 12.7811C6.83472 12.8907 7.09345 12.892 7.38413 12.901C7.55202 12.9224 7.61015 12.9534 7.73386 13.0623C7.7648 13.0623 7.79574 13.0623 7.82761 13.0623C7.84501 13.1174 7.86242 13.1725 7.88035 13.2293C7.94806 13.4321 8.02389 13.6313 8.103 13.8299C8.11504 13.8602 8.12708 13.8905 8.13949 13.9217C8.21416 14.1069 8.29641 14.2862 8.38425 14.4656C8.50885 14.7365 8.53345 14.9292 8.43699 15.2186C8.3509 15.3477 8.26704 15.4372 8.15574 15.5438C7.9638 15.7301 7.84228 15.8775 7.82029 16.1546C7.83076 16.3814 7.91202 16.5359 8.06821 16.6988C8.25163 16.8385 8.44635 16.875 8.67319 16.8477C8.93534 16.7719 9.0941 16.5918 9.2725 16.3932C9.45418 16.2213 9.63014 16.1805 9.88013 16.1873C10.0827 16.2179 10.2586 16.3124 10.4409 16.4022C10.7843 16.5644 11.1193 16.7043 11.4839 16.8123C11.6245 16.8592 11.6245 16.8592 11.6772 16.95C11.6908 16.9819 11.7043 17.0138 11.7182 17.0467C11.7337 17.0776 11.7492 17.1086 11.7651 17.1404C11.7725 17.2429 11.778 17.3455 11.7827 17.4481C11.8072 17.8052 11.8355 18.0847 12.0757 18.3592C12.272 18.4755 12.4284 18.5137 12.6557 18.4998C12.8774 18.4245 12.9992 18.3216 13.1245 18.1248C13.2336 17.855 13.2346 17.5843 13.2444 17.2954C13.2668 17.1277 13.3026 17.0391 13.4057 16.9061C13.487 16.8521 13.487 16.8521 13.5815 16.8153C13.6186 16.8003 13.6557 16.7853 13.6939 16.7698C13.7381 16.7529 13.7822 16.736 13.8276 16.7186C13.9125 16.6848 13.9975 16.6511 14.0823 16.6171C14.1432 16.5929 14.2041 16.5688 14.2651 16.5449C14.4507 16.4716 14.6298 16.3906 14.8091 16.3026C15.08 16.178 15.2726 16.1534 15.562 16.2498C15.6912 16.336 15.7784 16.419 15.8843 16.5311C16.0561 16.7078 16.204 16.8255 16.4526 16.8592C16.6494 16.8565 16.8041 16.819 16.962 16.6988C17.116 16.5381 17.2023 16.3819 17.213 16.1577C17.1769 15.8274 16.962 15.6167 16.7247 15.4041C16.5616 15.2272 16.5242 15.0461 16.5307 14.8067C16.5613 14.6041 16.6558 14.4282 16.7456 14.2459C16.9078 13.9025 17.0477 13.5675 17.1557 13.2029C17.2026 13.0623 17.2026 13.0623 17.2934 13.0096C17.3413 12.9893 17.3413 12.9893 17.3901 12.9686C17.421 12.9531 17.452 12.9376 17.4839 12.9217C17.5951 12.9144 17.7065 12.9088 17.8178 12.9041C18.1707 12.8838 18.4273 12.8545 18.6997 12.6111C18.8196 12.4149 18.8572 12.26 18.8432 12.0311C18.7678 11.809 18.6638 11.6897 18.4682 11.5623C18.1955 11.4527 17.9368 11.4514 17.6461 11.4424C17.4782 11.421 17.4201 11.39 17.2964 11.2811C17.2654 11.2811 17.2345 11.2811 17.2026 11.2811C17.1852 11.226 17.1678 11.1709 17.1499 11.1141C17.0822 10.9113 17.0063 10.7121 16.9272 10.5135C16.9152 10.4832 16.9031 10.4529 16.8907 10.4217C16.8161 10.2365 16.7338 10.0572 16.646 9.87775C16.5214 9.60685 16.4968 9.4142 16.5932 9.12482C16.6794 8.99556 16.7624 8.90842 16.8745 8.80256C17.0512 8.6307 17.1689 8.48285 17.2026 8.2342C17.1999 8.03691 17.1631 7.88184 17.0406 7.7248C16.8603 7.55471 16.706 7.47975 16.4526 7.4842C16.1329 7.55639 15.9745 7.70881 15.7577 7.9502C15.576 8.1221 15.4001 8.1629 15.1501 8.1561C14.9475 8.12552 14.7716 8.03099 14.5893 7.94123C14.246 7.77902 13.9109 7.63909 13.5464 7.53107C13.4057 7.4842 13.4057 7.4842 13.353 7.39338C13.3327 7.34552 13.3327 7.34552 13.312 7.2967C13.2965 7.26576 13.281 7.23482 13.2651 7.20295C13.2578 7.1005 13.2522 6.99793 13.2475 6.89533C13.223 6.53819 13.1948 6.25872 12.9546 5.9842C12.6027 5.77571 12.2839 5.7935 11.9878 6.08967Z" fill="white"/>
<path d="M23.1565 14.5624C23.5363 14.7559 23.6734 15.0687 23.8265 15.4448C23.8449 15.489 23.8632 15.5331 23.8821 15.5787C23.9404 15.7193 23.9982 15.8601 24.0559 16.0009C24.1143 16.1421 24.1728 16.2834 24.2313 16.4246C24.2676 16.5123 24.3038 16.6001 24.3399 16.688C24.3562 16.7276 24.3724 16.7671 24.3892 16.8079C24.4035 16.8428 24.4179 16.8777 24.4326 16.9137C24.4583 16.9746 24.4863 17.0345 24.5159 17.0936C24.5398 17.3554 24.5505 17.583 24.4368 17.8231C24.2399 18.0306 24.0647 18.1087 23.7818 18.1304C23.589 18.1207 23.447 18.0578 23.2971 17.9374C23.1453 17.7524 23.0547 17.55 22.969 17.328C22.9568 17.3516 22.9445 17.3751 22.9319 17.3994C22.7894 17.6732 22.6455 17.9462 22.5003 18.2186C22.4838 18.2496 22.4673 18.2805 22.4503 18.3124C22.0653 19.0282 21.5848 19.6736 21.0471 20.2811C21.0116 20.3219 20.976 20.3627 20.9393 20.4047C20.5252 20.8733 20.088 21.3036 19.594 21.6874C19.5674 21.7085 19.5408 21.7295 19.5134 21.7513C17.4838 23.3543 14.9829 24.1948 12.4046 24.1893C12.3368 24.1893 12.3368 24.1893 12.2677 24.1893C11.5227 24.1873 10.809 24.1409 10.0784 23.9843C10.0075 23.9696 10.0075 23.9696 9.93523 23.9546C7.9918 23.5415 6.10723 22.6116 4.66378 21.236C4.56505 21.142 4.46436 21.0539 4.35965 20.9667C2.937 19.723 1.95673 17.9069 1.37722 16.1356C1.36114 16.0871 1.34506 16.0385 1.3285 15.9885C1.22845 15.6701 1.15708 15.3941 1.27176 15.0692C1.40404 14.8708 1.55077 14.7331 1.78152 14.6561C2.02797 14.6375 2.18282 14.6611 2.3909 14.7968C2.64305 15.0337 2.71513 15.3131 2.81377 15.6386C3.17764 16.8305 3.72946 17.8951 4.50027 18.8749C4.54423 18.9333 4.54423 18.9333 4.58908 18.9928C5.34397 19.9636 6.29725 20.7488 7.35965 21.3593C7.41397 21.3906 7.41397 21.3906 7.46939 21.4226C9.76559 22.7292 12.4851 23.0334 15.0308 22.3575C15.29 22.2848 15.5442 22.2012 15.7971 22.1093C15.8294 22.0976 15.8617 22.0859 15.895 22.0738C17.0818 21.6346 18.1363 20.9796 19.0784 20.1405C19.1027 20.1191 19.1271 20.0976 19.1522 20.0755C20.1568 19.188 21.1326 17.9623 21.5628 16.6718C21.5237 16.6892 21.4846 16.7067 21.4443 16.7247C20.863 16.9691 20.863 16.9691 20.5315 16.8593C20.3615 16.7743 20.2725 16.7029 20.1624 16.5487C20.0713 16.2756 20.0602 16.031 20.18 15.7665C20.4217 15.5066 20.7402 15.3662 21.0647 15.2344C21.1008 15.2194 21.1368 15.2045 21.1739 15.1891C21.2878 15.142 21.4018 15.0954 21.5159 15.0487C21.5923 15.0171 21.6687 14.9855 21.7451 14.9539C22.8266 14.5073 22.8266 14.5073 23.1565 14.5624Z" fill="white"/>
<path d="M12.6269 0.154202C12.6946 0.15424 12.6946 0.15424 12.7638 0.154279C13.5086 0.156204 14.2227 0.202091 14.9531 0.35928C15.0008 0.369326 15.0485 0.379371 15.0977 0.389721C16.7992 0.757364 18.3593 1.49908 19.7343 2.56241C19.7778 2.59588 19.8213 2.62936 19.8661 2.66385C20.4252 3.10811 20.9652 3.60643 21.4218 4.15616C21.441 4.17923 21.4602 4.2023 21.48 4.22608C22.4587 5.41074 23.1769 6.74878 23.6542 8.20791C23.6703 8.25647 23.6864 8.30502 23.703 8.35505C23.803 8.67346 23.8744 8.9494 23.7597 9.27432C23.6274 9.47274 23.4807 9.61049 23.2499 9.68741C23.011 9.71083 22.8485 9.6705 22.6356 9.57296C22.3844 9.36626 22.3139 9.0446 22.2333 8.74405C21.8691 7.46585 21.213 6.24128 20.3437 5.23428C20.3133 5.19881 20.283 5.16334 20.2518 5.1268C20.144 5.00406 20.0337 4.88449 19.9218 4.76553C19.8972 4.73935 19.8726 4.71317 19.8473 4.6862C19.2032 4.00603 18.4836 3.45079 17.6718 2.98428C17.6175 2.95293 17.6175 2.95293 17.5621 2.92095C15.1797 1.56538 12.4326 1.3335 9.80569 2.03401C8.64096 2.36399 7.51891 2.95126 6.56243 3.68741C6.51662 3.72239 6.47082 3.75738 6.42363 3.79342C5.38448 4.61773 4.56825 5.59535 3.90813 6.74307C3.88426 6.78455 3.86039 6.82604 3.8358 6.86878C3.72266 7.06993 3.6247 7.26046 3.56243 7.48428C3.60747 7.46398 3.60747 7.46398 3.65343 7.44326C3.92853 7.32519 4.15786 7.229 4.45616 7.32937C4.68227 7.42848 4.82041 7.53317 4.9218 7.76553C4.95738 8.01423 4.95374 8.21359 4.84563 8.44229C4.60551 8.70136 4.31072 8.81918 3.98961 8.95114C3.9456 8.96949 3.9016 8.98784 3.85626 9.00675C3.71643 9.06497 3.57644 9.12277 3.43645 9.18057C3.3418 9.21994 3.24717 9.25934 3.15255 9.29876C2.97974 9.37061 2.80693 9.44243 2.63396 9.51386C2.59931 9.52817 2.56466 9.54249 2.52897 9.55725C2.26684 9.6615 2.03783 9.68148 1.77239 9.5878C1.48711 9.39761 1.35948 9.14737 1.23607 8.83853C1.22124 8.80258 1.20641 8.76664 1.19113 8.7296C1.14417 8.61546 1.09792 8.50105 1.05168 8.38662C1.02051 8.31056 0.989292 8.23451 0.958026 8.15847C0.898425 8.01331 0.839282 7.86798 0.780574 7.72245C0.734706 7.60878 0.688053 7.49564 0.640361 7.3827C0.51954 7.09456 0.468107 6.8606 0.515551 6.54678C0.614836 6.31925 0.752155 6.20635 0.974231 6.10751C1.21619 6.03881 1.4221 6.09286 1.64934 6.18643C1.85096 6.37909 1.95714 6.61879 2.06243 6.87491C2.06243 6.90584 2.06243 6.93678 2.06243 6.96866C2.09336 6.96866 2.1243 6.96866 2.15618 6.96866C2.16391 6.94279 2.17165 6.91692 2.17963 6.89027C2.26253 6.62627 2.36824 6.39151 2.50481 6.15127C2.52501 6.11538 2.54522 6.07949 2.56604 6.04251C2.89827 5.46165 3.26898 4.90044 3.70305 4.39053C3.7447 4.34026 3.78633 4.28996 3.82793 4.23965C4.31343 3.65758 4.83559 3.11892 5.43743 2.65616C5.46384 2.63529 5.49025 2.61442 5.51747 2.59292C7.55264 0.985115 10.0423 0.148685 12.6269 0.154202Z" fill="white"/>
<path d="M13.714 10.3738C14.1581 10.6995 14.5086 11.154 14.6244 11.703C14.6852 12.3596 14.6321 12.9356 14.2318 13.4813C13.892 13.8801 13.4261 14.2401 12.8861 14.2901C12.2043 14.3148 11.6465 14.2644 11.1051 13.803C10.724 13.4459 10.4123 12.9747 10.3928 12.4385C10.3733 11.7424 10.4763 11.1967 10.9682 10.6717C11.6721 9.92776 12.866 9.83287 13.714 10.3738ZM11.9115 11.8026C11.8323 12.005 11.8279 12.1917 11.8588 12.4061C11.9602 12.6126 12.0649 12.7435 12.2807 12.828C12.5171 12.86 12.6946 12.8549 12.9105 12.7489C13.068 12.6068 13.1569 12.512 13.1861 12.2968C13.1986 12.0288 13.1698 11.8622 12.9838 11.6561C12.8039 11.4974 12.6259 11.4914 12.3949 11.499C12.1764 11.5305 12.0532 11.642 11.9115 11.8026Z" fill="white"/>
</g>
<defs>
<clipPath id="clip0_7034_22755">
<rect width="24" height="24" fill="white" transform="translate(0.515625 0.171753)"/>
</clipPath>
</defs>
</svg>
