<svg width="15" height="14" viewBox="0 0 15 14" fill="none" xmlns="http://www.w3.org/2000/svg">
<g id="Component 286">
<path id="Vector" d="M7.75 0.875C4.36758 0.875 1.625 3.61758 1.625 7C1.625 10.3824 4.36758 13.125 7.75 13.125C11.1324 13.125 13.875 10.3824 13.875 7C13.875 3.61758 11.1324 0.875 7.75 0.875ZM7.75 12.0859C4.9418 12.0859 2.66406 9.8082 2.66406 7C2.66406 4.1918 4.9418 1.91406 7.75 1.91406C10.5582 1.91406 12.8359 4.1918 12.8359 7C12.8359 9.8082 10.5582 12.0859 7.75 12.0859Z" fill="white"/>
<path id="Vector_2" d="M7.09375 4.59375C7.09375 4.7678 7.16289 4.93472 7.28596 5.05779C7.40903 5.18086 7.57595 5.25 7.75 5.25C7.92405 5.25 8.09097 5.18086 8.21404 5.05779C8.33711 4.93472 8.40625 4.7678 8.40625 4.59375C8.40625 4.4197 8.33711 4.25278 8.21404 4.12971C8.09097 4.00664 7.92405 3.9375 7.75 3.9375C7.57595 3.9375 7.40903 4.00664 7.28596 4.12971C7.16289 4.25278 7.09375 4.4197 7.09375 4.59375ZM8.07812 6.125H7.42188C7.36172 6.125 7.3125 6.17422 7.3125 6.23438V9.95312C7.3125 10.0133 7.36172 10.0625 7.42188 10.0625H8.07812C8.13828 10.0625 8.1875 10.0133 8.1875 9.95312V6.23438C8.1875 6.17422 8.13828 6.125 8.07812 6.125Z" fill="white"/>
</g>
</svg>
