<svg width="62" height="62" viewBox="0 0 62 62" fill="none" xmlns="http://www.w3.org/2000/svg">
<path d="M16.5925 34.3333L23.3275 28.3467C23.6925 28.0222 23.8838 27.6389 23.9013 27.1967C23.9188 26.7544 23.7275 26.3511 23.3275 25.9867C22.9125 25.62 22.4663 25.4333 21.9888 25.4267C21.5112 25.42 21.065 25.6 20.65 25.9667L13.36 32.4467C12.755 32.9867 12.4525 33.6156 12.4525 34.3333C12.4525 35.0511 12.755 35.6789 13.36 36.2167L20.65 42.7C21.015 43.0267 21.4487 43.1967 21.9513 43.21C22.4537 43.2233 22.9125 43.0478 23.3275 42.6833C23.7275 42.3167 23.93 41.9233 23.935 41.5033C23.94 41.0833 23.7375 40.69 23.3275 40.3233L16.5925 34.3333ZM45.4075 34.3333L38.6725 40.32C38.3075 40.6444 38.1162 41.0278 38.0987 41.47C38.0812 41.9122 38.2725 42.3156 38.6725 42.68C39.0875 43.0467 39.5337 43.2333 40.0112 43.24C40.4888 43.2467 40.935 43.0667 41.35 42.7L48.64 36.22C49.245 35.68 49.5475 35.0511 49.5475 34.3333C49.5475 33.6156 49.245 32.9878 48.64 32.45L41.3462 25.9667C40.9813 25.64 40.5475 25.47 40.045 25.4567C39.5425 25.4433 39.085 25.6189 38.6725 25.9833C38.2725 26.35 38.07 26.7433 38.065 27.1633C38.06 27.5833 38.2625 27.9767 38.6725 28.3433L45.4075 34.3333ZM7.06 61C5.38 61 3.95 60.4756 2.77 59.4267C1.59 58.3778 1 57.1078 1 55.6167V13.05C1 11.5611 1.59 10.2911 2.77 9.24C3.95 8.19111 5.38 7.66667 7.06 7.66667H24.685C24.3425 5.96444 24.8 4.42778 26.0575 3.05667C27.3125 1.68556 28.96 1 31 1C33.0875 1 34.76 1.68556 36.0175 3.05667C37.275 4.42778 37.7088 5.96444 37.3188 7.66667H54.9438C56.6188 7.66667 58.0475 8.19111 59.23 9.24C60.41 10.2889 61 11.56 61 13.0533V55.6167C61 57.1056 60.41 58.3756 59.23 59.4267C58.05 60.4756 56.6213 61 54.9438 61H7.06ZM7.06 57.6667H54.9438C55.5187 57.6667 56.0475 57.4533 56.53 57.0267C57.0125 56.6 57.2525 56.1289 57.25 55.6133V13.0533C57.25 12.54 57.01 12.0689 56.53 11.64C56.05 11.2111 55.52 10.9978 54.94 11H7.06C6.4825 11 5.9525 11.2133 5.47 11.64C4.9875 12.0667 4.7475 12.5378 4.75 13.0533V55.6167C4.75 56.1278 4.99 56.5978 5.47 57.0267C5.95 57.4556 6.47875 57.6689 7.05625 57.6667M31 9.14C31.8125 9.14 32.485 8.90444 33.0175 8.43333C33.55 7.96222 33.815 7.36444 33.8125 6.64C33.81 5.91556 33.5438 5.31889 33.0137 4.85C32.4837 4.38111 31.8125 4.14444 31 4.14C30.1875 4.13556 29.5163 4.37222 28.9863 4.85C28.4563 5.32778 28.19 5.92444 28.1875 6.64C28.185 7.35556 28.4513 7.95333 28.9863 8.43333C29.5213 8.91333 30.1925 9.14889 31 9.14Z" fill="white"/>
<path d="M7.06 57.6667H54.9438C55.5188 57.6667 56.0475 57.4533 56.53 57.0267C57.0125 56.6 57.2525 56.1289 57.25 55.6133V13.0533C57.25 12.54 57.01 12.0689 56.53 11.64C56.05 11.2111 55.52 10.9978 54.94 11H7.06C6.4825 11 5.9525 11.2133 5.47 11.64C4.9875 12.0667 4.7475 12.5378 4.75 13.0533V55.6167C4.75 56.1278 4.99 56.5978 5.47 57.0267C5.95 57.4556 6.47875 57.6689 7.05625 57.6667M4.75 57.6667V11M16.5925 34.3333L23.3275 28.3467C23.6925 28.0222 23.8838 27.6389 23.9013 27.1967C23.9188 26.7544 23.7275 26.3511 23.3275 25.9867C22.9125 25.62 22.4663 25.4333 21.9888 25.4267C21.5113 25.42 21.065 25.6 20.65 25.9667L13.36 32.4467C12.755 32.9867 12.4525 33.6156 12.4525 34.3333C12.4525 35.0511 12.755 35.6789 13.36 36.2167L20.65 42.7C21.015 43.0267 21.4487 43.1967 21.9512 43.21C22.4537 43.2233 22.9125 43.0478 23.3275 42.6833C23.7275 42.3167 23.93 41.9233 23.935 41.5033C23.94 41.0833 23.7375 40.69 23.3275 40.3233L16.5925 34.3333ZM45.4075 34.3333L38.6725 40.32C38.3075 40.6444 38.1162 41.0278 38.0987 41.47C38.0812 41.9122 38.2725 42.3156 38.6725 42.68C39.0875 43.0467 39.5337 43.2333 40.0112 43.24C40.4887 43.2467 40.935 43.0667 41.35 42.7L48.64 36.22C49.245 35.68 49.5475 35.0511 49.5475 34.3333C49.5475 33.6156 49.245 32.9878 48.64 32.45L41.3462 25.9667C40.9812 25.64 40.5475 25.47 40.045 25.4567C39.5425 25.4433 39.085 25.6189 38.6725 25.9833C38.2725 26.35 38.07 26.7433 38.065 27.1633C38.06 27.5833 38.2625 27.9767 38.6725 28.3433L45.4075 34.3333ZM7.06 61C5.38 61 3.95 60.4756 2.77 59.4267C1.59 58.3778 1 57.1078 1 55.6167V13.05C1 11.5611 1.59 10.2911 2.77 9.24C3.95 8.19111 5.38 7.66667 7.06 7.66667H24.685C24.3425 5.96444 24.8 4.42778 26.0575 3.05667C27.3125 1.68556 28.96 1 31 1C33.0875 1 34.76 1.68556 36.0175 3.05667C37.275 4.42778 37.7088 5.96444 37.3188 7.66667H54.9438C56.6188 7.66667 58.0475 8.19111 59.23 9.24C60.41 10.2889 61 11.56 61 13.0533V55.6167C61 57.1056 60.41 58.3756 59.23 59.4267C58.05 60.4756 56.6213 61 54.9438 61H7.06ZM31 9.14C31.8125 9.14 32.485 8.90444 33.0175 8.43333C33.55 7.96222 33.815 7.36444 33.8125 6.64C33.81 5.91556 33.5437 5.31889 33.0137 4.85C32.4837 4.38111 31.8125 4.14444 31 4.14C30.1875 4.13556 29.5163 4.37222 28.9863 4.85C28.4563 5.32778 28.19 5.92444 28.1875 6.64C28.185 7.35556 28.4513 7.95333 28.9863 8.43333C29.5213 8.91333 30.1925 9.14889 31 9.14Z" stroke="white" stroke-width="1.875"/>
</svg>
