<svg width="21" height="20" viewBox="0 0 21 20" fill="none" xmlns="http://www.w3.org/2000/svg">
<g id="ph:path-bold">
<path id="Vector" d="M16 12.8125C15.4186 12.8133 14.8517 12.9939 14.377 13.3296C13.9023 13.6653 13.543 14.1396 13.3484 14.6875H6C5.41984 14.6875 4.86344 14.457 4.4532 14.0468C4.04297 13.6366 3.8125 13.0802 3.8125 12.5C3.8125 11.9198 4.04297 11.3634 4.4532 10.9532C4.86344 10.543 5.41984 10.3125 6 10.3125H13.5C14.4117 10.3125 15.286 9.95034 15.9307 9.30568C16.5753 8.66102 16.9375 7.78668 16.9375 6.875C16.9375 5.96332 16.5753 5.08898 15.9307 4.44432C15.286 3.79966 14.4117 3.4375 13.5 3.4375H6C5.75136 3.4375 5.5129 3.53627 5.33709 3.71209C5.16127 3.8879 5.0625 4.12636 5.0625 4.375C5.0625 4.62364 5.16127 4.8621 5.33709 5.03791C5.5129 5.21373 5.75136 5.3125 6 5.3125H13.5C13.9144 5.3125 14.3118 5.47712 14.6049 5.77015C14.8979 6.06317 15.0625 6.4606 15.0625 6.875C15.0625 7.2894 14.8979 7.68683 14.6049 7.97985C14.3118 8.27288 13.9144 8.4375 13.5 8.4375H6C4.92256 8.4375 3.88925 8.86551 3.12738 9.62738C2.36551 10.3892 1.9375 11.4226 1.9375 12.5C1.9375 13.5774 2.36551 14.6108 3.12738 15.3726C3.88925 16.1345 4.92256 16.5625 6 16.5625H13.3484C13.5203 17.0486 13.8225 17.4782 14.222 17.8041C14.6215 18.1301 15.103 18.34 15.6137 18.4108C16.1245 18.4817 16.6448 18.4107 17.118 18.2058C17.5911 18.0008 17.9988 17.6698 18.2965 17.2488C18.5942 16.8278 18.7704 16.333 18.8059 15.8186C18.8414 15.3042 18.7348 14.7899 18.4978 14.332C18.2607 13.8741 17.9024 13.4902 17.4618 13.2222C17.0213 12.9542 16.5156 12.8125 16 12.8125ZM16 16.5625C15.8146 16.5625 15.6333 16.5075 15.4792 16.4045C15.325 16.3015 15.2048 16.1551 15.1339 15.9838C15.0629 15.8125 15.0443 15.624 15.0805 15.4421C15.1167 15.2602 15.206 15.0932 15.3371 14.9621C15.4682 14.831 15.6352 14.7417 15.8171 14.7055C15.999 14.6693 16.1875 14.6879 16.3588 14.7589C16.5301 14.8298 16.6765 14.95 16.7795 15.1042C16.8825 15.2583 16.9375 15.4396 16.9375 15.625C16.9375 15.8736 16.8387 16.1121 16.6629 16.2879C16.4871 16.4637 16.2486 16.5625 16 16.5625Z" fill="#2F80ED"/>
</g>
</svg>
