<svg width="24" height="25" viewBox="0 0 24 25" fill="none" xmlns="http://www.w3.org/2000/svg">
<path d="M19 3.60303C19.5304 3.60303 20.0391 3.81374 20.4142 4.18881C20.7893 4.56389 21 5.07259 21 5.60303V19.603C21 20.1335 20.7893 20.6422 20.4142 21.0172C20.0391 21.3923 19.5304 21.603 19 21.603H5C4.46957 21.603 3.96086 21.3923 3.58579 21.0172C3.21071 20.6422 3 20.1335 3 19.603V5.60303C3 5.07259 3.21071 4.56389 3.58579 4.18881C3.96086 3.81374 4.46957 3.60303 5 3.60303H19ZM18.5 19.103V13.803C18.5 12.9384 18.1565 12.1092 17.5452 11.4979C16.9338 10.8865 16.1046 10.543 15.24 10.543C14.39 10.543 13.4 11.063 12.92 11.843V10.733H10.13V19.103H12.92V14.173C12.92 13.403 13.54 12.773 14.31 12.773C14.6813 12.773 15.0374 12.9205 15.2999 13.1831C15.5625 13.4456 15.71 13.8017 15.71 14.173V19.103H18.5ZM6.88 9.16303C7.32556 9.16303 7.75288 8.98603 8.06794 8.67097C8.383 8.35591 8.56 7.92859 8.56 7.48303C8.56 6.55303 7.81 5.79303 6.88 5.79303C6.43178 5.79303 6.00193 5.97108 5.68499 6.28802C5.36805 6.60495 5.19 7.03481 5.19 7.48303C5.19 8.41303 5.95 9.16303 6.88 9.16303ZM8.27 19.103V10.733H5.5V19.103H8.27Z" fill="#2F80ED"/>
</svg>
