<svg width="20" height="14" viewBox="0 0 20 14" fill="none" xmlns="http://www.w3.org/2000/svg">
<path id="Vector" d="M1.00011 12H13.0001C13.255 12.0003 13.5001 12.0979 13.6855 12.2728C13.8708 12.4478 13.9823 12.687 13.9973 12.9414C14.0122 13.1958 13.9294 13.4464 13.7658 13.6418C13.6023 13.8373 13.3702 13.9629 13.1171 13.993L13.0001 14H1.00011C0.745233 13.9997 0.500081 13.9021 0.314745 13.7272C0.129408 13.5522 0.0178779 13.313 0.00294074 13.0586C-0.0119964 12.8042 0.0707874 12.5536 0.234378 12.3582C0.397968 12.1627 0.630017 12.0371 0.883113 12.007L1.00011 12ZM1.00011 6H19.0001C19.255 6.00028 19.5001 6.09788 19.6855 6.27285C19.8708 6.44782 19.9823 6.68695 19.9973 6.94139C20.0122 7.19584 19.9294 7.44638 19.7658 7.64183C19.6023 7.83729 19.3702 7.9629 19.1171 7.993L19.0001 8H1.00011C0.745233 7.99972 0.500081 7.90212 0.314745 7.72715C0.129408 7.55218 0.0178779 7.31305 0.00294074 7.05861C-0.0119964 6.80416 0.0707874 6.55362 0.234378 6.35817C0.397968 6.16271 0.630017 6.0371 0.883113 6.007L1.00011 6ZM1.00011 0H16.0001C16.255 0.000282707 16.5001 0.0978789 16.6855 0.272848C16.8708 0.447817 16.9823 0.686953 16.9973 0.941395C17.0122 1.19584 16.9294 1.44638 16.7658 1.64183C16.6023 1.83729 16.3702 1.9629 16.1171 1.993L16.0001 2H1.00011C0.745233 1.99972 0.500081 1.90212 0.314745 1.72715C0.129408 1.55218 0.0178779 1.31305 0.00294074 1.05861C-0.0119964 0.804163 0.0707874 0.553621 0.234378 0.358168C0.397968 0.162715 0.630017 0.0371036 0.883113 0.00699997L1.00011 0Z" fill="#333333"/>
</svg>
