<svg width="21" height="20" viewBox="0 0 21 20" fill="none" xmlns="http://www.w3.org/2000/svg">
<g id="mdi:teacher">
<path id="Vector" d="M17.1667 14.1667C17.6087 14.1667 18.0326 13.9912 18.3452 13.6786C18.6577 13.366 18.8333 12.9421 18.8333 12.5001V3.33341C18.8333 2.89139 18.6577 2.46746 18.3452 2.1549C18.0326 1.84234 17.6087 1.66675 17.1667 1.66675H8.38333C8.675 2.17508 8.83333 2.75008 8.83333 3.33341H17.1667V12.5001H9.66667V14.1667M13 5.83341V7.50008H8V18.3334H6.33333V13.3334H4.66667V18.3334H3V11.6667H1.75V7.50008C1.75 7.05805 1.92559 6.63413 2.23816 6.32157C2.55072 6.00901 2.97464 5.83341 3.41667 5.83341H13ZM7.16667 3.33341C7.16667 3.77544 6.99107 4.19937 6.67851 4.51193C6.36595 4.82449 5.94203 5.00008 5.5 5.00008C5.05797 5.00008 4.63405 4.82449 4.32149 4.51193C4.00893 4.19937 3.83333 3.77544 3.83333 3.33341C3.83333 2.89139 4.00893 2.46746 4.32149 2.1549C4.63405 1.84234 5.05797 1.66675 5.5 1.66675C5.94203 1.66675 6.36595 1.84234 6.67851 2.1549C6.99107 2.46746 7.16667 2.89139 7.16667 3.33341Z" fill="#2F80ED"/>
</g>
</svg>
