<svg width="16" height="16" viewBox="0 0 16 16" fill="none" xmlns="http://www.w3.org/2000/svg">
<path d="M7.99935 8.33325C7.38051 8.33325 6.78702 8.57908 6.34943 9.01667C5.91185 9.45425 5.66602 10.0477 5.66602 10.6666C5.66602 11.2854 5.91185 11.8789 6.34943 12.3165C6.78702 12.7541 7.38051 12.9999 7.99935 12.9999C8.61819 12.9999 9.21168 12.7541 9.64926 12.3165C10.0868 11.8789 10.3327 11.2854 10.3327 10.6666C10.3327 10.0477 10.0868 9.45425 9.64926 9.01667C9.21168 8.57908 8.61819 8.33325 7.99935 8.33325ZM6.99935 10.6666C6.99935 10.4014 7.10471 10.147 7.29224 9.95948C7.47978 9.77194 7.73413 9.66659 7.99935 9.66659C8.26457 9.66659 8.51892 9.77194 8.70646 9.95948C8.89399 10.147 8.99935 10.4014 8.99935 10.6666C8.99935 10.9318 8.89399 11.1862 8.70646 11.3737C8.51892 11.5612 8.26457 11.6666 7.99935 11.6666C7.73413 11.6666 7.47978 11.5612 7.29224 11.3737C7.10471 11.1862 6.99935 10.9318 6.99935 10.6666Z" fill="#4F4F4F"/>
<path d="M11.684 3.41079L9.56467 0.439453L1.772 6.66479L1.34 6.66012V6.66679H1V14.6668H15V6.66679H14.3587L13.0827 2.93412L11.684 3.41079ZM12.95 6.66679H6.26467L11.244 4.96945L12.2587 4.64479L12.95 6.66679ZM10.3667 3.86012L5.22667 5.61212L9.29733 2.36012L10.3667 3.86012ZM2.33333 12.1128V9.21945C2.61478 9.12012 2.87043 8.95905 3.08154 8.74807C3.29264 8.53708 3.45385 8.28152 3.55333 8.00012H12.4467C12.5461 8.28164 12.7072 8.53733 12.9183 8.74844C13.1295 8.95955 13.3851 9.12072 13.6667 9.22012V12.1135C13.3851 12.2129 13.1295 12.374 12.9183 12.5851C12.7072 12.7962 12.5461 13.0519 12.4467 13.3335H3.55467C3.45479 13.0519 3.29331 12.7962 3.08201 12.585C2.87072 12.3738 2.61493 12.2125 2.33333 12.1128Z" fill="#4F4F4F"/>
</svg>
