<svg width="32" height="32" viewBox="0 0 32 32" fill="none" xmlns="http://www.w3.org/2000/svg">
<rect x="0.5" y="0.5" width="31" height="31" rx="15.5" stroke="#4F4F4F"/>
<path d="M16 25C13.5 25 11.375 24.125 9.625 22.375C7.875 20.625 7 18.5 7 16C7 13.5 7.875 11.375 9.625 9.625C11.375 7.875 13.5 7 16 7C16.2333 7 16.4627 7.00833 16.688 7.025C16.9133 7.04167 17.134 7.06667 17.35 7.1C16.6667 7.58333 16.1207 8.21267 15.712 8.988C15.3033 9.76333 15.0993 10.6007 15.1 11.5C15.1 13 15.625 14.275 16.675 15.325C17.725 16.375 19 16.9 20.5 16.9C21.4167 16.9 22.2583 16.6957 23.025 16.287C23.7917 15.8783 24.4167 15.3327 24.9 14.65C24.9333 14.8667 24.9583 15.0873 24.975 15.312C24.9917 15.5367 25 15.766 25 16C25 18.5 24.125 20.625 22.375 22.375C20.625 24.125 18.5 25 16 25Z" fill="#4F4F4F"/>
</svg>
