<svg width="19" height="19" viewBox="0 0 19 19" fill="none" xmlns="http://www.w3.org/2000/svg">
<g id="lucide:goal">
<g id="Group">
<path id="Vector" d="M9.75 10.0781V1.82812L15.75 4.82812L9.75 7.82812" stroke="#4F4F4F" stroke-width="1.5" stroke-linecap="round" stroke-linejoin="round"/>
<path id="Vector_2" d="M16.1705 7.99484C16.5696 9.22495 16.607 10.5438 16.2781 11.7945C15.9492 13.0452 15.268 14.1752 14.3154 15.0499C13.3629 15.9245 12.1791 16.5072 10.9049 16.7285C9.63078 16.9497 8.31987 16.8003 7.12818 16.298C5.93649 15.7957 4.91418 14.9616 4.18288 13.895C3.45157 12.8284 3.04207 11.5742 3.00307 10.2815C2.96408 8.98889 3.29723 7.71226 3.96291 6.60351C4.62859 5.49476 5.59876 4.60058 6.75801 4.02734" stroke="#4F4F4F" stroke-width="1.5" stroke-linecap="round" stroke-linejoin="round"/>
<path id="Vector_3" d="M6.75179 7.82617C6.37597 8.32644 6.1313 8.91279 6.04007 9.53181C5.94885 10.1508 6.01396 10.7828 6.22949 11.3703C6.44502 11.9577 6.8041 12.4818 7.27403 12.895C7.74396 13.3081 8.3098 13.5971 8.91999 13.7355C9.53018 13.874 10.1653 13.8576 10.7675 13.6879C11.3698 13.5181 11.92 13.2003 12.3679 12.7635C12.8159 12.3267 13.1475 11.7847 13.3325 11.1869C13.5174 10.5892 13.5498 9.95466 13.4268 9.34117" stroke="#4F4F4F" stroke-width="1.5" stroke-linecap="round" stroke-linejoin="round"/>
</g>
</g>
</svg>
