<svg width="16" height="16" viewBox="0 0 16 16" fill="none" xmlns="http://www.w3.org/2000/svg">
<path d="M8 8.66659V1.33325L13.3333 3.99992L8 6.66659" stroke="#155DEC" stroke-width="1.5" stroke-linecap="round" stroke-linejoin="round"/>
<path d="M13.7071 6.81475C14.0619 7.90818 14.0951 9.0805 13.8028 10.1923C13.5104 11.304 12.9049 12.3084 12.0582 13.0859C11.2114 13.8634 10.1592 14.3813 9.02661 14.578C7.89402 14.7747 6.72877 14.6419 5.66949 14.1954C4.61021 13.7488 3.70149 13.0074 3.05145 12.0594C2.4014 11.1113 2.03739 9.99639 2.00273 8.84737C1.96807 7.69835 2.26421 6.56356 2.85592 5.57801C3.44764 4.59246 4.31001 3.79763 5.34045 3.28809" stroke="#155DEC" stroke-width="1.5" stroke-linecap="round" stroke-linejoin="round"/>
<path d="M5.33427 6.66479C5.00021 7.10948 4.78272 7.63068 4.70163 8.18092C4.62054 8.73116 4.67843 9.29295 4.87001 9.81509C5.06159 10.3372 5.38078 10.8032 5.79849 11.1704C6.21621 11.5376 6.71917 11.7945 7.26156 11.9176C7.80395 12.0407 8.36852 12.0261 8.90384 11.8752C9.43915 11.7243 9.9282 11.4418 10.3264 11.0535C10.7246 10.6652 11.0194 10.1835 11.1838 9.65214C11.3481 9.12081 11.377 8.55679 11.2676 8.01146" stroke="#155DEC" stroke-width="1.5" stroke-linecap="round" stroke-linejoin="round"/>
</svg>
