<svg width="40" height="24" viewBox="0 0 40 24" fill="none" xmlns="http://www.w3.org/2000/svg">
<path id="Vector" d="M0 20.0005L3.99161 20.003C5.09866 20.003 5.98741 19.1117 5.98741 18.0053V4.05897H0V20.0005ZM2.99371 16.0213C3.53943 16.0213 3.99161 16.4653 3.99161 17.0186C3.99161 17.5638 3.53943 18.0159 2.99371 18.0159C2.44798 18.0159 1.9958 17.5618 1.9958 17.0192C1.9958 16.4641 2.44798 16.0213 2.99371 16.0213ZM21.7543 0.0486477C21.259 0.0486477 20.7776 0.233821 20.4121 0.568056L14.2762 6.17951C14.27 6.19198 14.27 6.20446 14.2575 6.20446C13.2222 7.17741 13.2409 8.7304 14.1266 9.69711C14.9218 10.5141 16.5826 10.7961 17.6273 9.86863C17.6379 9.85927 17.6442 9.85927 17.6504 9.85304L22.6324 5.29387C23.0378 4.9277 23.6771 4.95109 24.0432 5.35624C24.4174 5.76139 24.3862 6.39281 23.9808 6.76702L22.3518 8.25577L31.4339 15.6222C31.6132 15.7778 31.7769 15.9338 31.9251 16.105V3.98412C29.3692 1.42949 25.9077 0 22.2953 0L21.7543 0.0486477ZM20.8686 9.61603L18.9976 11.3306C17.1421 13.0214 14.3043 12.858 12.6484 11.0579C10.9769 9.22935 11.1079 6.39156 12.9291 4.72008L18.0308 0.0486477H17.6192C14.0143 0.0486477 10.5466 1.48812 7.99569 4.03402L7.98322 17.9984L9.12145 18.0007L14.7658 23.1037C16.481 24.4989 18.9913 24.2339 20.379 22.5271L21.5092 23.4776C22.4996 24.2322 23.9652 24.1325 24.776 23.1426L26.7332 20.7352L27.0683 21.0157C27.9259 21.7018 29.1814 21.5771 29.8749 20.7196L30.4698 19.9849C31.1634 19.1273 31.0334 17.878 30.1771 17.1826L20.8686 9.61603ZM33.9287 4.0652V18.0109C33.9287 19.1098 34.8174 20.0098 35.8683 20.0098L39.9161 20.0067V4.04649L33.9287 4.0652ZM36.9224 18.0109C36.3767 18.0109 35.9245 17.559 35.9245 17.0136C35.9245 16.4601 36.3767 16.0163 36.9224 16.0163C37.4681 16.0163 37.9203 16.4641 37.9203 17.0192C37.9203 17.5618 37.4712 18.0109 36.9224 18.0109Z" fill="#2F80ED"/>
</svg>
