<svg width="55" height="60" viewBox="0 0 55 60" fill="none" xmlns="http://www.w3.org/2000/svg">
<path d="M54.3307 30.8537C54.31 26.3542 52.5115 22.0453 49.3272 18.8662L33.1743 2.48126C31.5842 0.892466 29.4284 0 27.1805 0C24.9327 0 22.7769 0.892466 21.1868 2.48126L5.03732 18.7173C2.63458 21.1134 0.997143 24.1689 0.33248 27.4964C-0.332183 30.824 0.00583701 34.274 1.30371 37.4093C2.60159 40.5446 4.80091 43.2241 7.62303 45.1083C10.4451 46.9925 13.7631 47.9967 17.1564 47.9935C16.4111 50.5834 15.1653 53.002 13.4895 55.1125C13.1261 55.5584 12.8987 56.0995 12.8346 56.6711C12.7705 57.2427 12.8724 57.8207 13.128 58.336C13.3836 58.8512 13.7822 59.282 14.2762 59.5768C14.7701 59.8716 15.3384 60.0179 15.9133 59.9983H38.4478C39.0156 60.0016 39.5727 59.8435 40.0541 59.5423C40.5354 59.2412 40.9213 58.8094 41.1666 58.2973C41.412 57.7852 41.5067 57.2139 41.4397 56.65C41.3728 56.0862 41.1469 55.5529 40.7885 55.1125C39.1058 53.0103 37.8539 50.5971 37.1043 48.0108C39.3654 48.0342 41.6086 47.6077 43.7033 46.7559C45.798 45.9042 47.7024 44.6442 49.3055 43.0495C50.9086 41.4547 52.1785 39.557 53.0412 37.4668C53.904 35.3766 54.3423 33.1357 54.3307 30.8745V30.8537ZM45.1617 38.7345C43.7447 40.13 41.9852 41.1277 40.0602 41.6273C38.1352 42.1269 36.1126 42.1109 34.1957 41.5808C34.0264 41.5663 33.8561 41.5663 33.6867 41.5808H33.0877C32.8639 41.6229 32.6439 41.6832 32.4298 41.7608H31.9797C31.8352 41.8593 31.7038 41.9757 31.5884 42.1071C31.3991 42.221 31.2276 42.3621 31.0794 42.5261C31.0321 42.6477 30.9718 42.7638 30.8994 42.8723C30.7722 43.0971 30.6567 43.3282 30.5531 43.5648C30.5383 43.7446 30.5383 43.9252 30.5531 44.105C30.5531 44.285 30.5531 44.4651 30.5531 44.6451C30.7884 47.8965 31.6219 51.0765 33.0115 54.0253H21.3634C22.785 51.2106 23.6793 48.1594 24.0019 45.0226V44.4547C24.0167 44.275 24.0167 44.0943 24.0019 43.9145C23.9014 43.6594 23.77 43.4175 23.6106 43.1943C23.5619 43.0876 23.5015 42.9865 23.4306 42.8931C23.3006 42.7232 23.1382 42.5808 22.9527 42.4741C22.8304 42.3499 22.6997 42.2342 22.5615 42.1278H22.1494C21.9294 42.026 21.6963 41.9549 21.4569 41.9166H20.889C20.7093 41.9019 20.5286 41.9019 20.3489 41.9166C18.3767 42.4293 16.3032 42.4053 14.3434 41.847C12.3836 41.2887 10.6088 40.2165 9.20281 38.7414C7.12075 36.6459 5.94771 33.8146 5.93759 30.8606C5.93281 29.3962 6.21899 27.9455 6.77952 26.5926C7.34005 25.2397 8.16375 24.0117 9.20281 22.9798L25.3835 6.73677C25.8362 6.29474 26.4439 6.0473 27.0767 6.0473C27.7094 6.0473 28.3171 6.29474 28.7699 6.73677L45.1617 22.9798C46.2008 24.0117 47.0245 25.2397 47.585 26.5926C48.1456 27.9455 48.4317 29.3962 48.427 30.8606C48.4054 33.8103 47.234 36.6352 45.1617 38.7345Z" fill="white"/>
</svg>
