<svg width="17" height="17" viewBox="0 0 17 17" fill="none" xmlns="http://www.w3.org/2000/svg">
<g id="Simplification" clip-path="url(#clip0_3236_31933)">
<path id="Vector" d="M11.7128 3.50592C11.7538 3.50571 11.7948 3.50549 11.8371 3.50527C11.9491 3.50471 12.061 3.50475 12.173 3.50492C12.2667 3.50502 12.3604 3.50483 12.4542 3.50464C12.6754 3.5042 12.8967 3.50425 13.1179 3.50461C13.3456 3.50497 13.5733 3.50453 13.8009 3.50369C13.997 3.503 14.193 3.50279 14.389 3.50297C14.5059 3.50308 14.6227 3.50301 14.7395 3.50247C14.8699 3.50189 15.0002 3.50233 15.1306 3.50287C15.1689 3.50257 15.2073 3.50226 15.2468 3.50195C15.4886 3.50403 15.7063 3.52623 15.8886 3.69915C16.0234 3.84763 16.0876 3.96565 16.0885 4.16911C16.0888 4.20626 16.0891 4.24341 16.0895 4.28168C16.0895 4.32233 16.0895 4.36299 16.0895 4.40487C16.0898 4.4482 16.09 4.49153 16.0903 4.53486C16.091 4.65251 16.0913 4.77015 16.0914 4.8878C16.0916 4.96136 16.0917 5.03492 16.092 5.10848C16.0927 5.36529 16.0931 5.62209 16.0933 5.8789C16.0934 6.11797 16.0943 6.35704 16.0956 6.59611C16.0967 6.80158 16.0972 7.00705 16.0972 7.21252C16.0972 7.33515 16.0975 7.45776 16.0984 7.58038C16.0992 7.69581 16.0993 7.81122 16.0988 7.92665C16.0987 7.98893 16.0994 8.0512 16.1001 8.11347C16.098 8.37268 16.0585 8.53356 15.8786 8.72204C15.7286 8.85882 15.5699 8.90977 15.3678 8.90319C15.1448 8.87206 14.975 8.78407 14.8348 8.60851C14.7419 8.45742 14.7268 8.32087 14.7262 8.14632C14.7259 8.12191 14.7256 8.0975 14.7253 8.07236C14.7243 7.99204 14.7238 7.91173 14.7233 7.83141C14.7227 7.77559 14.7221 7.71976 14.7214 7.66393C14.7198 7.51726 14.7186 7.37059 14.7174 7.22391C14.7162 7.07414 14.7146 6.92436 14.713 6.77459C14.71 6.48091 14.7074 6.18723 14.705 5.89355C14.6782 5.92036 14.6515 5.94717 14.624 5.97479C13.9896 6.61121 13.355 7.24739 12.72 7.88327C12.6419 7.96154 12.5637 8.03981 12.4856 8.11809C12.4622 8.14146 12.4622 8.14146 12.4384 8.16531C12.1865 8.41761 11.9348 8.67008 11.6831 8.92261C11.4249 9.18173 11.1665 9.44068 10.9079 9.69946C10.7626 9.84482 10.6175 9.99026 10.4725 10.1359C10.3361 10.2729 10.1995 10.4098 10.0627 10.5464C10.0125 10.5966 9.96239 10.6469 9.91236 10.6973C9.84408 10.7661 9.77552 10.8345 9.70688 10.9029C9.68712 10.9229 9.66736 10.943 9.647 10.9636C9.47623 11.1327 9.33052 11.2195 9.08386 11.2217C9.04785 11.2226 9.01184 11.2236 8.97473 11.2246C8.69883 11.1795 8.51059 10.9623 8.32178 10.771C8.294 10.7433 8.26623 10.7155 8.23762 10.6869C8.16211 10.6113 8.08682 10.5356 8.01162 10.4597C7.93276 10.3803 7.85362 10.3011 7.77452 10.2219C7.62504 10.0721 7.4758 9.92208 7.32664 9.77199C7.15671 9.601 6.98651 9.43029 6.81628 9.25959C6.46638 8.90871 6.1168 8.55749 5.76746 8.20605C5.62469 8.32541 5.48908 8.4489 5.35841 8.58135C5.34058 8.59928 5.32275 8.61722 5.30438 8.6357C5.24525 8.69521 5.18623 8.75484 5.12722 8.81446C5.0846 8.8574 5.04197 8.90032 4.99934 8.94324C4.90782 9.03539 4.81634 9.12757 4.7249 9.21978C4.58016 9.36569 4.43521 9.5114 4.29022 9.65706C4.2657 9.68169 4.24119 9.70631 4.21593 9.73169C4.16582 9.78203 4.11571 9.83237 4.06559 9.88272C3.72827 10.2216 3.39108 10.5606 3.05447 10.9002C2.82707 11.1296 2.59935 11.3587 2.37123 11.5874C2.25067 11.7083 2.13028 11.8294 2.01029 11.9508C1.89745 12.0651 1.78417 12.1789 1.67056 12.2923C1.62905 12.3339 1.5877 12.3757 1.54653 12.4177C1.08857 12.8838 1.08857 12.8838 0.734253 12.9092C0.494561 12.8787 0.330627 12.7947 0.179688 12.6055C0.0904435 12.472 0.0693036 12.3766 0.0662842 12.2139C0.0650354 12.1773 0.0637866 12.1407 0.0625 12.103C0.0995828 11.8572 0.276883 11.6828 0.447878 11.5133C0.468763 11.4922 0.489649 11.4711 0.511168 11.4494C0.580703 11.3794 0.650566 11.3097 0.720436 11.2399C0.770564 11.1896 0.820674 11.1392 0.870765 11.0888C1.00652 10.9524 1.14257 10.8162 1.2787 10.6801C1.3924 10.5665 1.50597 10.4526 1.61953 10.3388C1.90274 10.055 2.18624 9.77142 2.46988 9.48801C2.71597 9.24209 2.96164 8.99576 3.20713 8.74924C3.45954 8.49578 3.71224 8.24262 3.96524 7.98974C4.10715 7.84791 4.24893 7.70595 4.39042 7.5637C4.52343 7.42999 4.65681 7.29667 4.79048 7.16364C4.83944 7.11478 4.88827 7.06579 4.93696 7.01666C5.00349 6.94955 5.07049 6.88295 5.13763 6.81645C5.15674 6.79696 5.17584 6.77746 5.19553 6.75737C5.35592 6.60022 5.50556 6.53047 5.7323 6.50488C6.05025 6.52058 6.26065 6.70364 6.4731 6.92165C6.51523 6.96374 6.51523 6.96374 6.55821 7.00668C6.63455 7.08296 6.71029 7.15981 6.78594 7.23677C6.86534 7.31735 6.94528 7.39739 7.02516 7.4775C7.17605 7.62897 7.32646 7.78091 7.47669 7.93302C7.64787 8.10631 7.81959 8.27906 7.99136 8.45177C8.34441 8.80677 8.69678 9.16243 9.04871 9.51855C9.17816 9.46752 9.26479 9.37349 9.36076 9.27651C9.37937 9.25795 9.39798 9.23939 9.41716 9.22027C9.47954 9.158 9.54169 9.0955 9.60385 9.033C9.6485 8.98833 9.69316 8.94368 9.73783 8.89904C9.85915 8.77774 9.98028 8.65625 10.1014 8.53472C10.2279 8.40778 10.3547 8.28101 10.4814 8.15423C10.7213 7.91408 10.9611 7.67377 11.2008 7.43341C11.4738 7.15978 11.7469 6.88634 12.02 6.61291C12.5818 6.0504 13.1435 5.48767 13.705 4.9248C13.6755 4.92468 13.6461 4.92457 13.6157 4.92445C13.3371 4.92329 13.0585 4.92148 12.7799 4.91905C12.6367 4.91782 12.4935 4.91681 12.3503 4.91633C12.2119 4.91585 12.0736 4.91477 11.9352 4.91329C11.8826 4.91283 11.83 4.91258 11.7774 4.91255C11.1437 4.91191 11.1437 4.91191 10.9261 4.71387C10.7561 4.53191 10.7216 4.35715 10.7264 4.11254C10.7458 3.92581 10.8177 3.81305 10.9471 3.68066C11.1978 3.51191 11.4179 3.50484 11.7128 3.50592Z" fill="#333333"/>
</g>
<defs>
<clipPath id="clip0_3236_31933">
<rect width="16" height="16" fill="white" transform="translate(0.078125 0.206055)"/>
</clipPath>
</defs>
</svg>
