<svg width="16" height="14" viewBox="0 0 16 14" fill="none" xmlns="http://www.w3.org/2000/svg">
<path id="Vector" d="M6.52633 0C6.12156 -0.000489977 5.77475 0.143685 5.48591 0.432527C5.19707 0.721369 5.05265 1.06842 5.05265 1.47369L6.52633 0ZM6.52633 0H9.4737M6.52633 0H9.4737M9.4737 0C9.87896 0 10.226 0.144422 10.5149 0.433264M9.4737 0L10.5149 0.433264M10.5149 0.433264C10.8037 0.722106 10.9479 1.06891 10.9474 1.47369L10.5149 0.433264ZM1.29826 12.5271V12.5263V4.42105C1.29826 4.19418 1.37133 4.01624 1.53626 3.8513C1.70117 3.68639 1.87861 3.61376 2.10447 3.61404H2.10528H5.05265H5.71931V2.94737V1.47369C5.71931 1.29789 5.76318 1.15148 5.85966 1.01773V1.47369V2.94737V3.61404H6.52633H9.4737H10.1404V2.94737V1.47369V1.01745C10.2372 1.15127 10.2809 1.29747 10.2807 1.47288V1.47369V2.94737V3.61404H10.9474H13.8947C14.1216 3.61404 14.2996 3.6871 14.4645 3.85204L14.9359 3.38063L14.4645 3.85204C14.6294 4.01695 14.702 4.19438 14.7018 4.42024V4.42105V12.5263C14.7018 12.7532 14.6287 12.9311 14.4638 13.0961C14.2989 13.261 14.1214 13.3336 13.8956 13.3333H13.8947H2.10528C1.8784 13.3333 1.70046 13.2603 1.53552 13.0953C1.37061 12.9304 1.29799 12.753 1.29826 12.5271ZM6.52633 0.807018H6.0701C6.20391 0.710212 6.35011 0.666455 6.52552 0.666668H6.52633H9.4737C9.64949 0.666668 9.79591 0.710535 9.92966 0.807018H9.4737H6.52633Z" stroke="#2F80ED" stroke-width="1.33333"/>
</svg>
