<svg width="16" height="16" viewBox="0 0 16 16" fill="none" xmlns="http://www.w3.org/2000/svg">
<path d="M1.59999 8.52511C1.59999 7.57844 1.91679 6.76512 2.55039 6.08512C3.18398 5.40512 3.97384 5.02513 4.91997 4.94513L4.23998 5.62512C4.09331 5.77179 4.01998 5.95845 4.01998 6.18512C4.01998 6.41178 4.09331 6.59845 4.23998 6.74512C4.38664 6.89178 4.57331 6.96511 4.79997 6.96511C5.02664 6.96511 5.2133 6.89178 5.35997 6.74512L7.43996 4.66513C7.59996 4.50513 7.67996 4.31846 7.67996 4.10513C7.67996 3.8918 7.59996 3.70513 7.43996 3.54513L5.35997 1.46515C5.2133 1.31848 5.02664 1.24515 4.79997 1.24515C4.57331 1.24515 4.38664 1.31848 4.23998 1.46515C4.09331 1.61181 4.01998 1.79848 4.01998 2.02514C4.01998 2.25181 4.09331 2.43847 4.23998 2.58514L4.95997 3.30513C3.55998 3.38513 2.38345 3.92513 1.43039 4.92513C0.477331 5.92512 0.00053333 7.11845 0 8.50511C0 9.95843 0.503464 11.1883 1.51039 12.1947C2.51732 13.2011 3.74718 13.7045 5.19997 13.7051H7.19996C7.42663 13.7051 7.61676 13.6283 7.77036 13.4747C7.92396 13.3211 8.00049 13.1312 7.99996 12.9051C7.99942 12.679 7.92262 12.4888 7.76956 12.3347C7.61649 12.1806 7.42663 12.104 7.19996 12.1051H5.19997C4.19998 12.1051 3.35012 11.7584 2.65039 11.0651C1.95066 10.3718 1.60052 9.5251 1.59999 8.52511ZM10.3999 4.90513H15.1999C15.4266 4.90513 15.6167 4.82833 15.7703 4.67473C15.9239 4.52113 16.0004 4.33126 15.9999 4.10513C15.9994 3.879 15.9226 3.68887 15.7695 3.53473C15.6164 3.3806 15.4266 3.30407 15.1999 3.30513H10.3999C10.1733 3.30513 9.98341 3.38193 9.83035 3.53553C9.67728 3.68913 9.60048 3.879 9.59995 4.10513C9.59941 4.33126 9.67621 4.52113 9.83035 4.67473C9.98448 4.82833 10.1743 4.90513 10.3999 4.90513ZM10.3999 9.3051H15.1999C15.4266 9.3051 15.6167 9.2283 15.7703 9.0747C15.9239 8.9211 16.0004 8.73124 15.9999 8.50511C15.9994 8.27897 15.9226 8.08884 15.7695 7.93471C15.6164 7.78058 15.4266 7.70404 15.1999 7.70511H10.3999C10.1733 7.70511 9.98341 7.78191 9.83035 7.93551C9.67728 8.08911 9.60048 8.27897 9.59995 8.50511C9.59941 8.73124 9.67621 8.9211 9.83035 9.0747C9.98448 9.2283 10.1743 9.3051 10.3999 9.3051ZM10.3999 13.7051H15.1999C15.4266 13.7051 15.6167 13.6283 15.7703 13.4747C15.9239 13.3211 16.0004 13.1312 15.9999 12.9051C15.9994 12.679 15.9226 12.4888 15.7695 12.3347C15.6164 12.1806 15.4266 12.104 15.1999 12.1051H10.3999C10.1733 12.1051 9.98341 12.1819 9.83035 12.3355C9.67728 12.4891 9.60048 12.679 9.59995 12.9051C9.59941 13.1312 9.67621 13.3211 9.83035 13.4747C9.98448 13.6283 10.1743 13.7051 10.3999 13.7051Z" fill="#155DEC"/>
</svg>
