<svg width="25" height="24" viewBox="0 0 25 24" fill="none" xmlns="http://www.w3.org/2000/svg">
<path d="M14.2997 1.64062C14.3664 1.65422 14.3664 1.65422 14.4345 1.66809C15.8201 1.95312 17.1865 2.48258 18.3309 3.32812C18.3893 3.36971 18.4476 3.41127 18.506 3.45282C18.9368 3.7637 19.3288 4.1041 19.7094 4.47443C19.7735 4.53665 19.8385 4.59797 19.9036 4.65911C20.211 4.95341 20.4667 5.28547 20.7216 5.625C20.7417 5.65166 20.7618 5.67832 20.7826 5.70579C21.7547 7.00124 22.3601 8.45139 22.6903 10.0312C22.6988 10.0697 22.7073 10.1081 22.716 10.1477C22.9701 11.3378 22.9501 12.782 22.6903 13.9687C22.6767 14.0355 22.6767 14.0355 22.6628 14.1036C22.3778 15.4892 21.8483 16.8556 21.0028 18C20.9612 18.0583 20.9197 18.1167 20.8781 18.175C20.5672 18.6059 20.2268 18.9979 19.8565 19.3785C19.7943 19.4426 19.733 19.5076 19.6718 19.5727C19.3775 19.8801 19.0455 20.1358 18.7059 20.3906C18.6793 20.4108 18.6526 20.4309 18.6251 20.4516C17.3297 21.4238 15.8795 22.0292 14.2997 22.3594C14.2612 22.3678 14.2228 22.3763 14.1832 22.3851C12.9931 22.6392 11.549 22.6186 10.3622 22.3594C10.3228 22.3513 10.2833 22.3433 10.2427 22.335C8.20292 21.9151 6.43191 20.9221 4.92468 19.5C4.88456 19.4624 4.84443 19.4248 4.8031 19.3861C4.48049 19.0747 4.20831 18.7331 3.9403 18.375C3.92023 18.3484 3.90017 18.3218 3.87949 18.2944C2.90722 16.9989 2.30179 15.5487 1.97155 13.9687C1.96308 13.9303 1.9546 13.8919 1.94587 13.8523C1.69174 12.6622 1.7118 11.218 1.97155 10.0312C1.98515 9.96449 1.98515 9.96449 1.99902 9.89639C2.28406 8.5108 2.81351 7.14444 3.65905 6C3.70064 5.94166 3.7422 5.88331 3.78375 5.82495C4.09463 5.39413 4.43503 5.00209 4.80536 4.62151C4.86758 4.5574 4.92891 4.49243 4.99005 4.4273C5.28434 4.1199 5.61641 3.86424 5.95593 3.60937C5.98259 3.58923 6.00925 3.5691 6.03672 3.54835C7.33217 2.5762 8.78233 1.97083 10.3622 1.64062C10.4006 1.63215 10.4391 1.62367 10.4787 1.61494C11.6687 1.36081 13.1129 1.38087 14.2997 1.64062ZM10.1278 3.28125C10.0948 3.28914 10.0619 3.29703 10.0279 3.30516C8.06784 3.78687 6.30928 5.05094 5.11218 6.65625C5.08287 6.69516 5.05357 6.73407 5.02337 6.77417C4.28083 7.79668 3.80457 8.94529 3.51843 10.1719C3.50943 10.2095 3.50042 10.2472 3.49115 10.2859C3.22466 11.4597 3.28638 12.8535 3.5653 14.0156C3.57485 14.0568 3.5844 14.0979 3.59423 14.1403C4.07852 16.1701 5.3219 17.9769 6.98718 19.2187C7.04555 19.2627 7.04555 19.2627 7.1051 19.3076C8.98083 20.6697 11.3742 21.252 13.6646 20.897C16.0243 20.5012 18.1152 19.2673 19.5497 17.3437C19.579 17.3048 19.6083 17.2659 19.6385 17.2258C20.381 16.2033 20.8573 15.0547 21.1434 13.8281C21.1569 13.7717 21.1569 13.7717 21.1707 13.714C21.4372 12.5403 21.3755 11.1465 21.0966 9.98437C21.087 9.94322 21.0775 9.90207 21.0676 9.85968C20.5833 7.82985 19.34 6.02307 17.6747 4.78125C17.6358 4.75194 17.5969 4.72263 17.5568 4.69244C16.4566 3.89348 15.2072 3.39735 13.8778 3.14062C13.827 3.13053 13.7763 3.12044 13.724 3.11004C12.5364 2.90037 11.2937 2.99433 10.1278 3.28125Z" fill="white"/>
<path d="M12.7807 5.64646C12.9939 5.77958 13.0791 5.97554 13.1855 6.19632C13.2196 6.26409 13.2196 6.26409 13.2543 6.33323C13.3224 6.46974 13.3896 6.6067 13.4563 6.74392C13.5101 6.85442 13.5642 6.96476 13.6183 7.07509C13.8435 7.534 14.0677 7.99338 14.2904 8.4535C14.4045 8.68889 14.5207 8.92301 14.6412 9.15516C14.6768 9.23441 14.6768 9.23441 14.6768 9.32816C14.7027 9.33175 14.7286 9.33534 14.7553 9.33904C15.3567 9.42236 15.9581 9.50635 16.5593 9.59129C16.8382 9.63069 17.1172 9.6697 17.3963 9.70806C17.5385 9.72775 17.6807 9.74801 17.8229 9.76847C17.8869 9.77757 17.9511 9.78644 18.0152 9.79506C18.4158 9.84904 18.7191 9.89728 19.0098 10.1953C19.1158 10.433 19.1283 10.6659 19.083 10.9219C18.9419 11.1643 18.7609 11.3508 18.5623 11.5472C18.5301 11.5793 18.498 11.6115 18.4649 11.6445C18.3971 11.7122 18.3291 11.7798 18.2611 11.8472C18.158 11.9495 18.0552 12.0521 17.9525 12.1549C17.8863 12.2209 17.82 12.2869 17.7537 12.3529C17.7234 12.3831 17.6931 12.4133 17.6619 12.4445C17.4553 12.649 17.2406 12.8416 17.0205 13.0313C16.8764 13.1587 16.7355 13.2888 16.5957 13.4209C16.559 13.4535 16.5223 13.4861 16.4845 13.5197C16.4501 13.5527 16.4156 13.5856 16.3802 13.6196C16.3489 13.6484 16.3177 13.6773 16.2855 13.707C16.1843 13.9051 16.2349 14.0827 16.2705 14.2969C16.2794 14.3523 16.2883 14.4076 16.2975 14.4646C16.3242 14.6271 16.3524 14.7892 16.3811 14.9514C16.4002 15.0598 16.419 15.1682 16.4378 15.2767C16.491 15.5847 16.5445 15.8927 16.5988 16.2006C16.6321 16.3898 16.665 16.5791 16.6974 16.7684C16.7098 16.8401 16.7224 16.9117 16.7352 16.9834C16.7531 17.0836 16.7704 17.184 16.7874 17.2844C16.7974 17.3413 16.8073 17.3981 16.8176 17.4567C16.8407 17.7088 16.825 17.9223 16.71 18.1524C16.5527 18.3345 16.4056 18.4488 16.1671 18.4841C15.8346 18.4941 15.6103 18.4031 15.3213 18.2461C15.2766 18.2228 15.232 18.1996 15.186 18.1756C15.0468 18.1026 14.9086 18.0282 14.7705 17.9532C14.7081 17.9194 14.7081 17.9194 14.6444 17.8849C14.4797 17.7954 14.3153 17.7054 14.1508 17.6154C14.0137 17.5404 13.8765 17.4655 13.7393 17.3907C13.7114 17.3754 13.6836 17.3602 13.6549 17.3444C13.4719 17.2442 13.2883 17.145 13.1041 17.047C13.0436 17.0146 12.9832 16.9819 12.9231 16.9488C12.8386 16.9024 12.7537 16.8573 12.6685 16.8124C12.6195 16.786 12.5706 16.7597 12.5202 16.7325C12.3017 16.6625 12.1723 16.7465 11.9733 16.8404C11.9313 16.8625 11.8894 16.8845 11.8461 16.9073C11.7987 16.932 11.7514 16.9568 11.7026 16.9823C11.6525 17.0088 11.6024 17.0353 11.5508 17.0625C11.4985 17.0899 11.4463 17.1173 11.3924 17.1456C11.2371 17.2271 11.0819 17.3088 10.9268 17.3907C10.8477 17.4322 10.7687 17.4738 10.6896 17.5154C10.5834 17.5712 10.4771 17.6272 10.3709 17.6832C10.0635 17.8453 9.75543 18.0063 9.44727 18.167C9.40007 18.1917 9.35287 18.2163 9.30424 18.2417C8.97696 18.4123 8.77194 18.5089 8.39551 18.4688C8.20727 18.4067 8.08573 18.3025 7.95605 18.1524C7.80851 17.8573 7.82479 17.576 7.88363 17.2592C7.88956 17.2247 7.8955 17.1903 7.90162 17.1548C7.92115 17.0422 7.94144 16.9298 7.96173 16.8174C7.97551 16.7386 7.98924 16.6598 8.00292 16.581C8.03891 16.3744 8.07551 16.168 8.11227 15.9615C8.1711 15.6306 8.22904 15.2996 8.28688 14.9686C8.30714 14.8532 8.32768 14.7379 8.34827 14.6226C8.36075 14.5518 8.37323 14.481 8.3857 14.4102C8.39147 14.3783 8.39724 14.3465 8.40319 14.3136C8.43169 14.1504 8.45743 13.9938 8.44238 13.8282C8.34901 13.7016 8.34901 13.7016 8.21973 13.581C8.19669 13.5581 8.17365 13.5353 8.14991 13.5118C8.07606 13.439 8.00142 13.367 7.92676 13.295C7.87794 13.2469 7.82917 13.1988 7.78046 13.1507C7.58622 12.9596 7.39119 12.7703 7.18372 12.5935C6.91084 12.359 6.6596 12.101 6.40536 11.8467C6.3149 11.7563 6.22408 11.6664 6.13324 11.5764C6.07542 11.5187 6.01762 11.461 5.95984 11.4033C5.93279 11.3766 5.90574 11.3499 5.87787 11.3223C5.6567 11.0999 5.56933 10.9626 5.5625 10.6494C5.56671 10.4195 5.59763 10.2781 5.73865 10.097C5.95727 9.9145 6.20255 9.86114 6.47762 9.82306C6.51454 9.81755 6.55146 9.81205 6.5895 9.80637C6.71073 9.78841 6.83204 9.77114 6.95337 9.75388C7.03788 9.74151 7.12238 9.7291 7.20687 9.71665C7.42871 9.68408 7.65063 9.65211 7.87257 9.62025C8.05416 9.59408 8.2357 9.5675 8.41723 9.5409C8.79168 9.48602 9.16618 9.43141 9.54079 9.37756C9.57551 9.37253 9.61024 9.36749 9.64601 9.36229C9.88467 9.32816 9.88467 9.32816 9.98926 9.32816C10.0011 9.28915 10.013 9.25014 10.0252 9.20995C10.0899 9.02748 10.1708 8.86041 10.2586 8.68821C10.2758 8.65404 10.293 8.61988 10.3108 8.58468C10.3475 8.51174 10.3844 8.43885 10.4213 8.36599C10.5176 8.17581 10.6133 7.98533 10.709 7.79483C10.7279 7.75722 10.7468 7.71961 10.7663 7.68087C10.9417 7.3311 11.1114 6.97881 11.2771 6.62434C11.7055 5.71397 11.7055 5.71397 11.9525 5.60251C12.2404 5.53188 12.5063 5.53387 12.7807 5.64646ZM12.2861 8.10941C12.2715 8.13953 12.2568 8.16965 12.2418 8.20069C12.1033 8.48521 11.964 8.76936 11.824 9.05313C11.752 9.19901 11.6803 9.34502 11.6093 9.49135C11.5275 9.65979 11.4445 9.8276 11.3615 9.9954C11.3362 10.0477 11.311 10.1001 11.2851 10.154C11.0551 10.6142 11.0551 10.6142 10.7861 10.7344C10.6298 10.7784 10.6298 10.7784 10.4562 10.8075C10.4081 10.8157 10.4081 10.8157 10.3591 10.8241C9.87481 10.9051 9.38767 10.9702 8.90125 11.0368C8.77326 11.0544 8.64536 11.0724 8.51746 11.0906C8.47825 11.0958 8.43905 11.101 8.39866 11.1064C8.18811 11.1306 8.18811 11.1306 8.02051 11.25C8.05289 11.2791 8.08527 11.3082 8.11863 11.3382C8.48923 11.6743 8.84738 12.0213 9.20108 12.375C9.29327 12.4671 9.38582 12.5588 9.47839 12.6505C9.5375 12.7095 9.59658 12.7685 9.65564 12.8275C9.68313 12.8546 9.71061 12.8818 9.73893 12.9098C9.95199 13.124 10.0496 13.2555 10.0537 13.5583C10.0458 14.0624 9.93783 14.558 9.84863 15.0528C9.82175 15.2044 9.79502 15.356 9.76839 15.5076C9.75187 15.6014 9.73518 15.6951 9.71831 15.7888C9.7108 15.831 9.70329 15.8731 9.69556 15.9165C9.68889 15.9535 9.68223 15.9905 9.67537 16.0286C9.65771 16.132 9.65771 16.132 9.66113 16.2657C9.87668 16.1854 10.0775 16.0818 10.2813 15.9762C10.3184 15.9571 10.3554 15.938 10.3936 15.9184C10.5118 15.8575 10.6299 15.7964 10.748 15.7354C11.0105 15.6 11.2731 15.4647 11.5358 15.3298C11.618 15.2874 11.6999 15.2447 11.7819 15.202C11.8228 15.1809 11.8637 15.1598 11.9058 15.1381C11.9389 15.1209 11.9719 15.1037 12.0059 15.0859C12.2009 15.0039 12.3622 14.9983 12.5674 15.0469C12.6837 15.0985 12.7949 15.1518 12.9074 15.2106C12.9562 15.2356 12.9562 15.2356 13.006 15.261C13.11 15.3143 13.2137 15.3681 13.3174 15.4219C13.3853 15.4569 13.4531 15.4918 13.521 15.5267C13.7589 15.6491 13.9965 15.7721 14.234 15.8954C14.3354 15.948 14.437 16.0006 14.5385 16.0531C14.5693 16.0691 14.6 16.0851 14.6317 16.1016C14.7551 16.1653 14.8728 16.2216 15.0049 16.2657C14.9451 15.8206 14.8826 15.3766 14.8027 14.9347C14.7921 14.8756 14.7815 14.8165 14.7705 14.7556C14.7495 14.64 14.7281 14.5245 14.7061 14.409C14.5383 13.4841 14.5383 13.4841 14.7016 13.1781C14.8511 12.9885 15.0162 12.8209 15.188 12.6515C15.2237 12.616 15.2594 12.5804 15.2962 12.5437C15.4098 12.4306 15.5237 12.3179 15.6377 12.2051C15.7143 12.129 15.7909 12.0528 15.8675 11.9766C16.0378 11.8073 16.2083 11.6382 16.3788 11.4692C16.468 11.3808 16.5569 11.2921 16.6455 11.2032C16.3503 11.1229 16.0579 11.0752 15.7549 11.0351C15.6553 11.0213 15.5557 11.0075 15.4561 10.9937C15.3006 10.9723 15.1451 10.9511 14.9895 10.9305C14.8383 10.9103 14.6872 10.8892 14.5361 10.8681C14.49 10.8622 14.4439 10.8562 14.3964 10.8502C14.1068 10.8088 13.7756 10.7571 13.5828 10.5151C13.527 10.4248 13.4822 10.3326 13.4375 10.2364C13.4192 10.1995 13.401 10.1626 13.3821 10.1246C13.3391 10.0376 13.2966 9.95042 13.2545 9.86303C13.1612 9.67114 13.0656 9.48049 12.9697 9.28989C12.7721 8.89688 12.5757 8.50329 12.3799 8.10941C12.3489 8.10941 12.318 8.10941 12.2861 8.10941Z" fill="white"/>
</svg>
