<svg width="25" height="25" viewBox="0 0 25 25" fill="none" xmlns="http://www.w3.org/2000/svg">
<g clip-path="url(#clip0_6273_35790)">
<path d="M12.5791 0.520608C12.6365 0.519248 12.6938 0.517889 12.753 0.516488C12.9876 0.514829 13.1719 0.514706 13.3897 0.606484C13.6658 0.892517 13.7141 1.2024 13.7821 1.5857C13.8554 2.08129 13.8554 2.08129 14.1067 2.49453C14.3929 2.65092 14.7354 2.68768 15.0488 2.59776C15.1437 2.52846 15.1437 2.52846 15.2275 2.43736C15.2596 2.40473 15.2916 2.3721 15.3246 2.33848C15.3573 2.30416 15.3901 2.26984 15.4238 2.23447C15.473 2.18408 15.473 2.18408 15.5231 2.13267C15.5867 2.06739 15.6501 2.00194 15.7134 1.93632C16.1667 1.46662 16.1667 1.46662 16.4829 1.45573C16.7564 1.45932 16.9417 1.55132 17.1729 1.68955C17.209 1.70955 17.2452 1.72955 17.2824 1.75016C17.5481 1.90295 17.7609 2.06213 17.8613 2.36338C17.901 2.81292 17.7416 3.20306 17.5949 3.62296C17.4915 3.90884 17.4915 3.90884 17.5253 4.19824C17.5993 4.28667 17.6777 4.35368 17.7676 4.42588C17.8365 4.4947 17.9048 4.56404 17.9727 4.63389C18.0292 4.68967 18.0858 4.74538 18.1426 4.80088C18.3428 4.74724 18.543 4.6935 18.7432 4.63975C18.8001 4.62449 18.8571 4.60923 18.9157 4.59351C18.9703 4.57886 19.0248 4.56421 19.081 4.54911C19.1313 4.53561 19.1816 4.52211 19.2335 4.5082C19.3237 4.48319 19.4132 4.45548 19.502 4.42588C19.7246 4.4025 19.9129 4.40093 20.1201 4.49033C20.3085 4.66616 20.443 4.86488 20.5801 5.08213C20.6036 5.11935 20.6271 5.15657 20.6513 5.19492C20.7925 5.4326 20.8954 5.64267 20.8443 5.92695C20.7532 6.24956 20.5797 6.42128 20.3311 6.6378C20.2609 6.70093 20.1908 6.7641 20.1207 6.82731C19.93 6.99858 19.93 6.99858 19.8349 7.08172C19.6857 7.21331 19.6857 7.21331 19.6323 7.39713C19.649 7.45052 19.649 7.45052 19.666 7.50498C19.6825 7.56453 19.6825 7.56453 19.6993 7.62528C19.7115 7.66776 19.7238 7.71024 19.7363 7.75401C19.7549 7.84952 19.7725 7.94523 19.7891 8.04112C19.7969 8.08474 19.8048 8.12837 19.8129 8.17332C19.8185 8.2051 19.8242 8.23688 19.8301 8.26963C19.8564 8.27368 19.8828 8.27773 19.9099 8.2819C20.2192 8.33361 20.5242 8.40172 20.8291 8.47471C20.8694 8.48394 20.9097 8.49316 20.9512 8.50267C21.2982 8.58766 21.5438 8.71892 21.752 9.01963C21.8268 9.24431 21.8114 9.47278 21.8135 9.70811C21.8148 9.75799 21.8162 9.80787 21.8176 9.85926C21.82 10.1552 21.8103 10.4259 21.6113 10.6603C21.4213 10.8059 21.2538 10.8813 21.0221 10.9378C20.9646 10.952 20.9072 10.9662 20.848 10.9809C20.7589 11.002 20.7589 11.002 20.668 11.0235C20.5783 11.0457 20.5783 11.0457 20.4869 11.0684C20.0453 11.1759 20.0453 11.1759 19.8301 11.1759C19.8252 11.2271 19.8204 11.2784 19.8154 11.3312C19.7894 11.5452 19.7326 11.7467 19.6717 11.9532C19.6367 12.0697 19.6367 12.0697 19.6426 12.2071C19.7119 12.284 19.7119 12.284 19.8055 12.3569C20.0145 12.5324 20.2139 12.7148 20.4102 12.9044C20.4435 12.9352 20.4767 12.9659 20.511 12.9976C20.7305 13.2112 20.8479 13.3954 20.8613 13.7071C20.8187 13.9973 20.6631 14.2446 20.5186 14.4952C20.5014 14.5255 20.4842 14.5558 20.4665 14.5871C20.3162 14.8366 20.1562 14.979 19.8696 15.063C19.6154 15.0679 19.3937 15.0037 19.1504 14.9347C19.1032 14.9218 19.056 14.909 19.0074 14.8958C18.8409 14.8503 18.6746 14.8044 18.5094 14.7544C18.3362 14.7019 18.2246 14.6851 18.0488 14.7384C18.1246 15.0325 18.2871 15.2732 18.4443 15.5294C18.4918 15.6075 18.5392 15.6856 18.5866 15.7638C18.6202 15.8192 18.6538 15.8746 18.6875 15.93C18.8703 16.2312 19.0496 16.5344 19.2289 16.8376C19.5457 17.3731 19.8659 17.9062 20.1899 18.4373C20.4587 18.8781 20.721 19.3224 20.981 19.7684C21.2669 20.2586 21.5593 20.7447 21.8553 21.2289C22.0078 21.4785 22.1594 21.7284 22.3084 21.98C22.3345 22.024 22.3605 22.0679 22.3874 22.1132C22.6111 22.5271 22.6604 22.955 22.5459 23.4103C22.4069 23.8233 22.1368 24.1834 21.752 24.3946C21.3981 24.5665 21.0569 24.5551 20.6698 24.5534C20.5975 24.5536 20.5252 24.5539 20.453 24.5542C20.2549 24.5549 20.0569 24.5547 19.8588 24.5543C19.645 24.5541 19.4312 24.5547 19.2174 24.5552C18.7988 24.556 18.3801 24.556 17.9614 24.5558C17.6211 24.5556 17.2807 24.5556 16.9404 24.5559C16.8677 24.556 16.8677 24.556 16.7936 24.556C16.6951 24.5561 16.5967 24.5561 16.4982 24.5562C15.5752 24.5569 14.6521 24.5566 13.729 24.5561C12.8849 24.5556 12.0408 24.5562 11.1967 24.5573C10.3296 24.5585 9.46252 24.5589 8.59545 24.5586C8.10879 24.5585 7.62213 24.5586 7.13547 24.5594C6.72115 24.5601 6.30682 24.5601 5.8925 24.5593C5.6812 24.5589 5.46991 24.5588 5.25861 24.5595C5.06496 24.5602 4.87133 24.5599 4.67769 24.559C4.60785 24.5588 4.53801 24.559 4.46817 24.5595C3.84863 24.5635 3.40987 24.4684 2.95947 24.0301C2.66753 23.7202 2.53033 23.3667 2.51562 22.9415C2.54986 22.1225 3.15558 21.3856 3.56796 20.71C3.82793 20.2839 4.08374 19.8555 4.33789 19.4259C4.64809 18.9017 4.96192 18.38 5.27901 17.86C5.57347 17.3765 5.86209 16.8896 6.14967 16.402C6.31762 16.1178 6.48704 15.8351 6.66406 15.5563C6.69302 15.5106 6.72198 15.4649 6.75182 15.4179C6.80496 15.3346 6.85861 15.2517 6.91286 15.1691C6.93589 15.1331 6.95893 15.0971 6.98267 15.0599C7.00277 15.0292 7.02288 14.9985 7.04359 14.9669C7.08929 14.8568 7.07265 14.8017 7.0332 14.6915C6.73 14.7199 6.45409 14.7909 6.16309 14.879C5.35384 15.1229 5.35384 15.1229 5.01758 14.9728C4.70117 14.7023 4.34739 14.2084 4.30328 13.7882C4.30214 13.7489 4.30099 13.7096 4.2998 13.669C4.29805 13.6301 4.2963 13.5911 4.29449 13.5509C4.34201 13.2532 4.58796 13.0453 4.79492 12.8429C4.83509 12.8027 4.83509 12.8027 4.87606 12.7617C5.0238 12.6153 5.17459 12.4833 5.33984 12.3565C5.42674 12.2857 5.42674 12.2857 5.48633 12.2071C5.49454 12.0512 5.48101 11.9778 5.43945 11.8321C5.41469 11.715 5.3903 11.5978 5.36621 11.4806C5.34391 11.379 5.3215 11.2774 5.29883 11.1759C5.24868 11.1709 5.19852 11.1659 5.14685 11.1607C4.87827 11.1269 4.61796 11.0621 4.35547 10.9972C4.28106 10.9797 4.28106 10.9797 4.20514 10.9619C3.88958 10.8841 3.63368 10.8164 3.43262 10.546C3.3105 10.2825 3.3215 10.0136 3.32129 9.72862C3.32043 9.66725 3.32043 9.66725 3.31955 9.60465C3.31893 9.33116 3.32525 9.07406 3.48169 8.83891C3.94231 8.43409 4.71451 8.38674 5.29883 8.26963C5.32143 8.16712 5.34386 8.06458 5.36621 7.96201C5.37872 7.90491 5.39123 7.84781 5.40411 7.78898C5.41578 7.73103 5.42744 7.67308 5.43945 7.61338C5.45286 7.56125 5.46627 7.50913 5.48009 7.45542C5.50368 7.28032 5.50368 7.28032 5.38912 7.14697C5.3425 7.10103 5.29487 7.05611 5.24646 7.01206C5.22153 6.98789 5.19661 6.96372 5.17093 6.93881C5.09135 6.86195 5.01061 6.78648 4.92969 6.71104C4.84936 6.6347 4.7693 6.55809 4.68945 6.48125C4.63975 6.43359 4.58973 6.38625 4.53937 6.3393C4.35957 6.16916 4.30708 6.04826 4.29797 5.80375C4.30105 5.53032 4.39306 5.34539 4.53125 5.11436C4.55125 5.07819 4.57125 5.04203 4.59186 5.00477C4.73717 4.7521 4.89187 4.55905 5.1582 4.42588C5.619 4.36438 6.03918 4.54232 6.46695 4.6923C6.75577 4.7984 6.75577 4.7984 7.04519 4.7543C7.1293 4.68158 7.19712 4.60541 7.26758 4.51963C7.3074 4.4922 7.34722 4.46477 7.38824 4.4365C7.50758 4.34607 7.57537 4.27946 7.64258 4.14463C7.62671 3.91388 7.5634 3.70947 7.4884 3.49163C7.17417 2.57698 7.17417 2.57698 7.30639 2.27464C7.4655 2.00055 7.65537 1.85968 7.92969 1.70713C7.96934 1.68474 8.00899 1.66235 8.04984 1.63928C8.29986 1.50506 8.51001 1.41672 8.79926 1.43632C9.06322 1.5246 9.25272 1.71168 9.44434 1.90635C9.46651 1.92882 9.48868 1.9513 9.51152 1.97445C9.67066 2.13706 9.82304 2.30453 9.9704 2.47782C10.0201 2.53565 10.073 2.59071 10.127 2.64463C10.389 2.62754 10.6392 2.55338 10.8923 2.48624C11.0176 2.45713 11.0176 2.45713 11.1582 2.45713C11.1629 2.40795 11.1675 2.35876 11.1723 2.30808C11.2084 2.02198 11.2819 1.74556 11.3545 1.4669C11.3676 1.41282 11.3807 1.35874 11.3941 1.30302C11.4775 0.983781 11.5493 0.785139 11.8145 0.582131C12.0606 0.500093 12.3215 0.522624 12.5791 0.520608ZM12.2832 1.37901C12.2726 1.42038 12.262 1.46175 12.251 1.50438C12.2112 1.65865 12.1711 1.81282 12.1307 1.96695C12.1134 2.03352 12.0961 2.10012 12.079 2.16676C12.0544 2.26285 12.0292 2.35881 12.004 2.45475C11.989 2.51244 11.974 2.57012 11.9586 2.62956C11.9108 2.77716 11.8496 2.88908 11.7676 3.01963C11.7676 3.05057 11.7676 3.08151 11.7676 3.11338C11.4955 3.22738 11.214 3.29978 10.9297 3.37705C10.8754 3.39228 10.821 3.40751 10.7651 3.4232C10.069 3.61254 10.069 3.61254 9.71002 3.41605C9.33779 3.15846 9.05076 2.77278 8.75879 2.43076C8.68081 2.35458 8.68081 2.35458 8.58887 2.36338C8.43903 2.43188 8.29975 2.51338 8.1582 2.59776C8.22503 2.97069 8.32521 3.32663 8.44193 3.68678C8.53865 4.00566 8.56364 4.28175 8.43652 4.5958C8.33001 4.72636 8.21164 4.82845 8.08276 4.93656C7.90315 5.09475 7.73915 5.26838 7.573 5.44047C7.36642 5.63389 7.2108 5.66402 6.93426 5.65839C6.6802 5.63258 6.44121 5.55334 6.19824 5.47764C6.09555 5.44584 5.99271 5.41451 5.88971 5.38371C5.84483 5.36971 5.79994 5.35572 5.7537 5.34131C5.61519 5.3142 5.5269 5.32243 5.39258 5.36338C5.32188 5.43072 5.32188 5.43072 5.27832 5.51865C5.26195 5.54651 5.24557 5.57437 5.2287 5.60307C5.19587 5.69182 5.19587 5.69182 5.23665 5.77659C5.31558 5.90659 5.41099 5.99998 5.52002 6.10606C5.56371 6.14902 5.60739 6.19198 5.6524 6.23624C5.69858 6.28126 5.74479 6.32624 5.79102 6.37119C5.88162 6.4593 5.9719 6.54771 6.06201 6.63633C6.10216 6.6754 6.14232 6.71446 6.18369 6.75471C6.35875 6.94588 6.3959 7.08465 6.38968 7.34651C6.36391 7.60218 6.29292 7.8468 6.22461 8.09385C6.20349 8.17524 6.20349 8.17524 6.18195 8.25828C6.16775 8.31061 6.15355 8.36293 6.13892 8.41685C6.11977 8.48757 6.11977 8.48757 6.10023 8.55972C6.02521 8.75205 5.93623 8.88579 5.75196 8.98443C5.41425 9.0965 5.07429 9.1861 4.72754 9.26573C4.64719 9.28458 4.64719 9.28458 4.56522 9.30381C4.43482 9.33436 4.30433 9.36454 4.17383 9.39463C4.17383 9.61119 4.17383 9.82776 4.17383 10.0509C4.3271 10.089 4.3271 10.089 4.48346 10.128C4.58293 10.153 4.68236 10.1782 4.7818 10.2034C4.85064 10.2207 4.91952 10.238 4.98843 10.2551C5.08778 10.2797 5.18699 10.3049 5.28619 10.3301C5.34584 10.3451 5.4055 10.3601 5.46695 10.3755C5.61723 10.4228 5.72907 10.4829 5.86133 10.5665C5.89227 10.5665 5.9232 10.5665 5.95508 10.5665C6.02081 10.724 6.07376 10.8796 6.11786 11.0444C6.13003 11.0895 6.14221 11.1347 6.15475 11.1812C6.16717 11.2278 6.17959 11.2744 6.19238 11.3224C6.21731 11.4153 6.24227 11.5082 6.26727 11.6011C6.27821 11.642 6.28915 11.683 6.30043 11.7252C6.32351 11.8084 6.34964 11.8908 6.37695 11.9728C6.38647 12.0689 6.38647 12.0689 6.38867 12.1749C6.38988 12.2095 6.39109 12.2442 6.39233 12.2798C6.35467 12.561 6.19014 12.7393 5.99316 12.9308C5.97044 12.953 5.94772 12.9752 5.92432 12.9981C5.76225 13.1552 5.59554 13.3063 5.42334 13.4522C5.34698 13.5185 5.27569 13.5879 5.20508 13.6603C5.26272 13.8509 5.3345 14.0071 5.43945 14.1759C5.55082 14.1487 5.66214 14.1213 5.77344 14.0939C5.80725 14.0855 5.84105 14.0772 5.87589 14.0686C6.0998 14.0128 6.32022 13.95 6.54102 13.8829C6.9167 13.7749 7.14837 13.7486 7.50195 13.9415C7.56383 13.9415 7.6257 13.9415 7.68945 13.9415C7.77715 13.8359 7.77715 13.8359 7.85132 13.6954C7.88032 13.6447 7.90933 13.5939 7.93921 13.5416C7.96894 13.4879 7.99867 13.4343 8.0293 13.379C8.05975 13.3253 8.09021 13.2717 8.12158 13.2164C8.19693 13.0835 8.27159 12.9502 8.3457 12.8165C8.32402 12.7799 8.30234 12.7434 8.28 12.7057C7.7223 11.7588 7.38907 10.8545 7.39062 9.74326C7.39065 9.71238 7.39068 9.6815 7.3907 9.64968C7.39602 8.2445 7.95329 6.99779 8.92285 5.98447C9.95965 4.98257 11.3029 4.541 12.7247 4.54993C13.1398 4.5584 13.5225 4.5989 13.9238 4.70713C13.9811 4.72254 14.0384 4.73795 14.0974 4.75382C14.8459 4.98008 15.4941 5.36564 16.0801 5.87901C16.1184 5.9126 16.1568 5.9462 16.1964 5.98081C17.0551 6.78937 17.6763 8.01493 17.7265 9.20303C17.7599 10.5936 17.4937 11.6323 16.7832 12.8165C17.1313 13.3966 17.1313 13.3966 17.4863 13.9884C17.6607 13.9187 17.6607 13.9187 17.832 13.8419C18.0958 13.754 18.3379 13.8052 18.5974 13.8846C18.6549 13.9017 18.7125 13.9188 18.7717 13.9365C18.8316 13.9547 18.8914 13.973 18.9512 13.9913C19.0695 14.0275 19.1879 14.0631 19.3064 14.0984C19.3846 14.1224 19.3846 14.1224 19.4645 14.1468C19.5986 14.1883 19.5986 14.1883 19.7363 14.129C19.7956 14.0594 19.7956 14.0594 19.8418 13.9737C19.8585 13.9459 19.8752 13.918 19.8923 13.8893C19.933 13.7753 19.917 13.7269 19.877 13.6134C19.8119 13.5283 19.8119 13.5283 19.7285 13.4495C19.6982 13.4194 19.6678 13.3894 19.6366 13.3584C19.5888 13.312 19.5888 13.312 19.54 13.2647C19.4936 13.2187 19.4936 13.2187 19.4462 13.1716C19.3073 13.0349 19.1678 12.9029 19.0158 12.7808C18.8611 12.6491 18.8119 12.5409 18.752 12.3478C18.7344 12.0861 18.7817 11.8784 18.8604 11.6329C18.8823 11.5626 18.9041 11.4923 18.9259 11.422C18.9365 11.388 18.947 11.3541 18.9579 11.3191C19.0068 11.1533 19.0427 10.9842 19.077 10.8148C19.1643 10.6267 19.3108 10.513 19.4989 10.4353C19.5999 10.4038 19.7009 10.3774 19.8037 10.3526C19.8403 10.3432 19.8768 10.3337 19.9145 10.3239C19.9897 10.3045 20.065 10.2853 20.1404 10.2665C20.2788 10.2316 20.4166 10.1946 20.5544 10.1574C20.6878 10.1215 20.8215 10.0862 20.9551 10.0509C20.9551 9.83432 20.9551 9.61776 20.9551 9.39463C20.8501 9.36974 20.745 9.34484 20.6368 9.31919C20.5344 9.2945 20.432 9.26962 20.3297 9.24471C20.2589 9.2276 20.188 9.21069 20.1172 9.19399C20.0149 9.16985 19.9128 9.14498 19.8107 9.11997C19.7793 9.11274 19.748 9.1055 19.7156 9.09805C19.5037 9.04513 19.3449 8.96793 19.1738 8.83213C19.1129 8.70279 19.0715 8.59291 19.0332 8.45713C19.021 8.417 19.0089 8.37687 18.9963 8.33553C18.9571 8.20364 18.9202 8.07126 18.8838 7.93858C18.8646 7.87146 18.8646 7.87146 18.8451 7.80299C18.7421 7.42918 18.6946 7.16655 18.8926 6.81651C18.9873 6.7058 18.9873 6.7058 19.0945 6.60081C19.1334 6.56238 19.1723 6.52395 19.2124 6.48435C19.2528 6.44508 19.2933 6.4058 19.335 6.36533C19.3752 6.3257 19.4155 6.28606 19.457 6.24522C19.532 6.17147 19.6071 6.09787 19.6824 6.02446C19.7792 5.92979 19.8751 5.83431 19.9707 5.73838C19.8779 5.59916 19.7851 5.45994 19.6895 5.31651C19.4522 5.34211 19.2365 5.39727 19.0086 5.46759C18.1681 5.7265 18.1681 5.7265 17.8613 5.64463C17.5809 5.49169 17.3696 5.26053 17.1465 5.03526C17.1083 4.99743 17.0701 4.9596 17.0308 4.92063C16.9943 4.88401 16.9578 4.8474 16.9202 4.80967C16.8871 4.7765 16.854 4.74332 16.82 4.70915C16.6361 4.49859 16.6238 4.32758 16.6288 4.05486C16.6528 3.80276 16.7308 3.56983 16.8096 3.33018C16.8414 3.23231 16.8727 3.1343 16.9035 3.03611C16.9175 2.99349 16.9315 2.95087 16.9459 2.90695C16.9737 2.7707 16.9641 2.68326 16.9238 2.55088C16.788 2.42933 16.6384 2.36338 16.4551 2.36338C16.3896 2.42233 16.3896 2.42233 16.3262 2.50694C16.15 2.71678 15.9619 2.91262 15.7695 3.10752C15.7393 3.13877 15.709 3.17001 15.6778 3.2022C15.4631 3.4186 15.3257 3.52548 15.0133 3.54789C14.7982 3.54209 14.6034 3.48874 14.3984 3.42686C14.3615 3.41601 14.3246 3.40516 14.2866 3.39398C14.2139 3.37258 14.1413 3.35103 14.0686 3.32931C13.9863 3.30542 13.9032 3.28432 13.82 3.26389C13.7798 3.25386 13.7396 3.24383 13.6982 3.2335C13.6485 3.22199 13.6485 3.22199 13.5977 3.21024C13.3918 3.10276 13.2845 2.92527 13.2073 2.71443C13.186 2.62577 13.186 2.62577 13.1643 2.53532C13.1564 2.50357 13.1485 2.47183 13.1404 2.43912C13.1157 2.33884 13.092 2.23835 13.0684 2.1378C13.0439 2.03647 13.0191 1.9352 12.9943 1.83396C12.972 1.74278 12.9503 1.65146 12.9286 1.56013C12.9061 1.43159 12.9061 1.43159 12.8457 1.37901C12.751 1.37561 12.6562 1.37508 12.5615 1.37608C12.4838 1.37671 12.4838 1.37671 12.4046 1.37736C12.3645 1.3779 12.3245 1.37845 12.2832 1.37901ZM9.37695 6.72276C9.34263 6.75593 9.30831 6.7891 9.27295 6.82328C8.54392 7.57979 8.1846 8.68211 8.19043 9.71397C8.19069 9.76333 8.19096 9.8127 8.19123 9.86356C8.20262 10.5961 8.38268 11.3685 8.81445 11.9728C8.9577 11.8017 9.0742 11.6258 9.18707 11.4335C9.20441 11.4041 9.22175 11.3747 9.23962 11.3444C9.27688 11.2812 9.31407 11.218 9.35118 11.1547C9.45044 10.9854 9.55031 10.8165 9.65015 10.6476C9.67045 10.6132 9.69075 10.5789 9.71166 10.5435C9.94131 10.1551 10.1755 9.7695 10.4108 9.3845C10.5597 9.14056 10.7075 8.89624 10.851 8.64903C10.8759 8.60641 10.9007 8.5638 10.9264 8.51989C10.9713 8.44281 11.0157 8.36548 11.0596 8.2878C11.2943 7.8862 11.5862 7.5833 12.0263 7.41874C12.5047 7.30223 13.024 7.31461 13.4551 7.56651C13.7972 7.8053 13.9899 8.12251 14.1963 8.47764C14.2305 8.5354 14.2648 8.59313 14.2992 8.65082C14.3717 8.7729 14.4439 8.89521 14.5157 9.01771C14.627 9.20752 14.7394 9.39672 14.852 9.58579C15.0019 9.83766 15.1516 10.0897 15.301 10.3418C15.5064 10.6885 15.7123 11.035 15.9189 11.381C15.9483 11.4303 15.9776 11.4796 16.0078 11.5304C16.0346 11.5752 16.0614 11.6201 16.0891 11.6662C16.1123 11.7053 16.1356 11.7444 16.1596 11.7846C16.2195 11.8843 16.2195 11.8843 16.3145 11.9728C16.9073 11.0067 17.1064 9.83425 16.8447 8.72666C16.5579 7.63392 15.8865 6.60922 14.9082 6.01963C13.0285 4.94706 10.9185 5.20506 9.37695 6.72276ZM11.8987 8.49302C11.8659 8.54698 11.834 8.60147 11.8027 8.65635C11.7839 8.68782 11.7651 8.71928 11.7457 8.7517C11.701 8.82676 11.6566 8.90205 11.6126 8.97752C11.5202 9.13559 11.4267 9.29297 11.3331 9.4503C11.219 9.64198 11.1051 9.83371 10.9915 10.0257C10.7451 10.442 10.496 10.8566 10.2441 11.2696C9.95951 11.7364 9.67885 12.2054 9.40039 12.6759C9.10599 13.1733 8.80869 13.6687 8.5078 14.1622C8.23955 14.6024 7.97542 15.0448 7.71289 15.4884C7.41849 15.9858 7.12119 16.4812 6.8203 16.9747C6.55205 17.4149 6.28792 17.8573 6.02539 18.3009C5.74693 18.7714 5.46625 19.2403 5.18164 19.7071C4.85233 20.2474 4.52807 20.7905 4.20578 21.335C4.1883 21.3645 4.17083 21.3941 4.15282 21.4245C4.11823 21.4829 4.08367 21.5414 4.04913 21.5998C3.95887 21.7524 3.86786 21.9044 3.77576 22.0559C3.75658 22.0875 3.73739 22.1192 3.71763 22.1517C3.68106 22.212 3.64435 22.2721 3.60747 22.3321C3.44462 22.6006 3.3457 22.7989 3.38922 23.1125C3.45293 23.3155 3.58947 23.4644 3.75195 23.5978C3.93415 23.6865 4.08113 23.7033 4.28279 23.7037C4.34295 23.704 4.40311 23.7044 4.46509 23.7047C4.53176 23.7046 4.59842 23.7045 4.66509 23.7044C4.73598 23.7046 4.80688 23.7048 4.87777 23.7051C5.07266 23.7058 5.26755 23.7058 5.46244 23.7058C5.6726 23.7059 5.88276 23.7065 6.09292 23.7071C6.55246 23.7081 7.01201 23.7085 7.47155 23.7087C7.75846 23.7089 8.04537 23.7092 8.33228 23.7095C9.12658 23.7104 9.92088 23.7112 10.7152 23.7113C10.7914 23.7114 10.7914 23.7114 10.8692 23.7114C10.9723 23.7114 11.0753 23.7114 11.1784 23.7114C11.2551 23.7114 11.2551 23.7114 11.3334 23.7115C11.4102 23.7115 11.4102 23.7115 11.4886 23.7115C12.3187 23.7116 13.1488 23.7129 13.979 23.7147C14.8311 23.7164 15.6833 23.7174 16.5355 23.7174C17.014 23.7174 17.4925 23.7178 17.971 23.7192C18.3784 23.7203 18.7858 23.7206 19.1932 23.7199C19.4011 23.7196 19.6089 23.7196 19.8168 23.7207C20.0072 23.7217 20.1975 23.7216 20.3878 23.7206C20.4566 23.7204 20.5254 23.7206 20.5942 23.7213C20.9724 23.7247 21.275 23.7223 21.5645 23.4571C21.714 23.2786 21.7582 23.0783 21.752 22.8478C21.6569 22.5244 21.4885 22.2544 21.3111 21.9694C21.2211 21.8246 21.1321 21.6792 21.043 21.5338C21.0243 21.5033 21.0056 21.4729 20.9863 21.4415C20.7768 21.1 20.573 20.7552 20.3691 20.4103C20.089 19.9367 19.8062 19.4649 19.5195 18.9952C19.234 18.5273 18.9547 18.0561 18.6787 17.5826C18.434 17.1631 18.1848 16.7466 17.9316 16.3321C17.6613 15.8895 17.396 15.4443 17.1348 14.9962C16.8595 14.5241 16.5794 14.0553 16.2948 13.5888C15.9798 13.0724 15.6702 12.5529 15.3621 12.0324C15.327 11.9731 15.2919 11.9139 15.2568 11.8547C15.2396 11.8255 15.2224 11.7964 15.2046 11.7664C15.0834 11.5619 14.9613 11.3579 14.8388 11.1541C14.6951 10.9151 14.5525 10.6755 14.4107 10.4354C13.9186 9.60072 13.9186 9.60072 13.4141 8.77354C13.3927 8.73845 13.3712 8.70335 13.3492 8.6672C13.2044 8.43707 13.0658 8.26486 12.7988 8.17588C12.6921 8.16314 12.6921 8.16314 12.5762 8.16123C12.5185 8.1586 12.5185 8.1586 12.4597 8.15592C12.2127 8.19395 12.0506 8.30231 11.8987 8.49302Z" fill="white"/>
<path d="M13.3134 11.9258C13.5775 12.1645 13.7552 12.4341 13.7954 12.7941C13.8007 12.9303 13.8017 13.0659 13.8011 13.2022C13.8014 13.2537 13.8018 13.3052 13.8021 13.3583C13.803 13.5277 13.8028 13.6971 13.8025 13.8666C13.8027 13.9848 13.803 14.1031 13.8033 14.2213C13.8037 14.4689 13.8036 14.7165 13.8031 14.964C13.8026 15.2493 13.8032 15.5346 13.8045 15.8199C13.8056 16.0954 13.8057 16.371 13.8054 16.6465C13.8054 16.7633 13.8057 16.88 13.8063 16.9968C13.807 17.1602 13.8065 17.3236 13.8057 17.4871C13.8062 17.535 13.8066 17.5828 13.8071 17.6321C13.8033 17.9987 13.7235 18.284 13.4892 18.5704C13.1567 18.8424 12.8897 18.9754 12.457 18.9703C12.1184 18.9354 11.8435 18.7976 11.6259 18.5352C11.5921 18.4975 11.5583 18.4598 11.5234 18.4209C11.3206 18.1342 11.3308 17.8424 11.3311 17.5045C11.3307 17.4531 11.3304 17.4017 11.3301 17.3488C11.3292 17.179 11.329 17.0094 11.3289 16.8396C11.3286 16.7214 11.3283 16.6031 11.328 16.4848C11.3274 16.2369 11.3273 15.9889 11.3273 15.741C11.3274 15.4554 11.3264 15.1698 11.3249 14.8842C11.3235 14.6085 11.3232 14.3327 11.3232 14.0569C11.3231 13.9401 11.3227 13.8233 11.322 13.7064C11.3211 13.5426 11.3213 13.3789 11.3219 13.2151C11.3214 13.1673 11.3209 13.1194 11.3203 13.0701C11.3235 12.7012 11.396 12.3727 11.6345 12.0826C11.6694 12.054 11.7043 12.0255 11.7402 11.9961C11.7923 11.9519 11.7923 11.9519 11.8455 11.9068C12.2827 11.606 12.8834 11.6219 13.3134 11.9258ZM12.1884 12.8164C12.161 12.9778 12.1638 13.1372 12.1657 13.3005C12.1655 13.3492 12.1653 13.3978 12.1651 13.4479C12.1648 13.6086 12.1658 13.7692 12.1668 13.9299C12.1669 14.0416 12.167 14.1532 12.167 14.2649C12.1671 14.4989 12.1679 14.7328 12.1691 14.9667C12.1707 15.2668 12.1711 15.5669 12.171 15.8669C12.171 16.0975 12.1716 16.328 12.1722 16.5586C12.1725 16.6692 12.1727 16.7799 12.1728 16.8905C12.173 17.0451 12.1738 17.1996 12.1748 17.3541C12.1748 17.3999 12.1747 17.4458 12.1747 17.493C12.1751 17.5352 12.1755 17.5773 12.1759 17.6207C12.1761 17.6572 12.1762 17.6937 12.1764 17.7313C12.1901 17.8461 12.2224 17.9211 12.2822 18.0196C12.4023 18.1097 12.4618 18.1138 12.6132 18.1045C12.7537 18.0657 12.805 18.0397 12.8916 17.9258C12.946 17.8169 12.9447 17.7533 12.9453 17.632C12.9457 17.59 12.946 17.548 12.9463 17.5047C12.9465 17.4585 12.9466 17.4123 12.9467 17.3647C12.947 17.3162 12.9473 17.2676 12.9477 17.2176C12.9486 17.0564 12.9491 16.8952 12.9496 16.734C12.9498 16.679 12.95 16.6241 12.9502 16.5675C12.9512 16.2766 12.9518 15.9858 12.9523 15.695C12.9528 15.3942 12.9544 15.0935 12.9563 14.7927C12.9575 14.5618 12.9579 14.3308 12.958 14.0999C12.9583 13.989 12.9588 13.8781 12.9597 13.7672C12.9608 13.6121 12.9608 13.4571 12.9605 13.302C12.9614 13.2331 12.9614 13.2331 12.9623 13.1629C12.9607 12.9597 12.9573 12.8472 12.8492 12.6709C12.7438 12.5756 12.7034 12.55 12.5634 12.5528C12.517 12.5519 12.517 12.5519 12.4697 12.5509C12.3165 12.6018 12.2726 12.6794 12.1884 12.8164Z" fill="white"/>
<path d="M13.2708 19.9137C13.5578 20.1425 13.7449 20.4179 13.799 20.7849C13.8144 21.1743 13.7158 21.4744 13.4824 21.7843C13.2107 22.056 12.9328 22.1503 12.5537 22.1622C12.2003 22.1586 11.9432 22.0678 11.6763 21.8348C11.4356 21.5777 11.3356 21.3045 11.3203 20.9552C11.3322 20.5965 11.4385 20.3005 11.6865 20.0382C12.1337 19.6321 12.7642 19.5856 13.2708 19.9137ZM12.3398 20.6241C12.2202 20.7339 12.2202 20.7339 12.1787 20.8995C12.1696 21.0717 12.1696 21.0717 12.2812 21.2042C12.4111 21.3089 12.4111 21.3089 12.5596 21.3302C12.7524 21.29 12.8219 21.2269 12.9346 21.0665C12.9501 20.8977 12.9501 20.8977 12.8877 20.7384C12.7853 20.6197 12.7853 20.6197 12.6533 20.5509C12.4685 20.5352 12.4685 20.5352 12.3398 20.6241Z" fill="white"/>
</g>
<defs>
<clipPath id="clip0_6273_35790">
<rect width="24" height="24" fill="white" transform="translate(0.5625 0.535278)"/>
</clipPath>
</defs>
</svg>
