<svg width="16" height="12" viewBox="0 0 16 12" fill="none" xmlns="http://www.w3.org/2000/svg">
<g id="Group 14196">
<path id="Vector" d="M15.5 1.875C15.5 1.64294 15.4078 1.42038 15.2437 1.25628C15.0796 1.09219 14.8571 1 14.625 1H6.65125L5.15125 0H1.375C1.14294 0 0.920376 0.0921873 0.756282 0.256282C0.592187 0.420376 0.5 0.642936 0.5 0.875V3.5H15.5V1.875Z" fill="#2F80ED"/>
<path id="Vector_2" d="M1.22769 11.2723C1.18862 11.2332 1.16667 11.1803 1.16667 11.125V5.16667H14.8333V11.125C14.8333 11.1803 14.8114 11.2332 14.7723 11.2723C14.7332 11.3114 14.6803 11.3333 14.625 11.3333H1.375C1.31975 11.3333 1.26676 11.3114 1.22769 11.2723Z" stroke="#2F80ED" stroke-width="1.33333"/>
</g>
</svg>
