<svg width="25" height="24" viewBox="0 0 25 24" fill="none" xmlns="http://www.w3.org/2000/svg">
<g clip-path="url(#clip0_7034_22764)">
<path d="M19.5546 0.354434C19.6122 0.354857 19.6697 0.35528 19.7289 0.355716C20.4779 0.369978 21.0715 0.569687 21.7197 0.937442C21.7596 0.960102 21.7996 0.982761 21.8407 1.00611C22.7794 1.58962 23.3774 2.55099 23.6416 3.60932C23.8996 4.73024 23.629 5.8334 23.0435 6.79096C22.4252 7.71129 21.5291 8.31883 20.4541 8.57807C19.2648 8.80052 18.1501 8.56868 17.1552 7.90131C16.3241 7.28318 15.6973 6.41916 15.4853 5.39057C15.4698 5.22041 15.4544 5.05025 15.4384 4.87494C13.9534 4.87494 12.4684 4.87494 10.9384 4.87494C10.9384 5.35447 10.9384 5.834 10.9384 6.32807C10.7263 6.75232 10.7263 6.75232 10.5664 6.88471C10.536 6.91069 10.5056 6.93667 10.4743 6.96344C10.2239 7.13596 10.0003 7.13802 9.70617 7.13559C9.66271 7.1356 9.61924 7.13561 9.57445 7.13563C9.43115 7.13556 9.28786 7.13483 9.14455 7.1341C9.04505 7.13392 8.94554 7.13379 8.84604 7.1337C8.58441 7.13334 8.32279 7.13242 8.06117 7.13138C7.74712 7.13025 7.43307 7.12982 7.11902 7.12927C6.64215 7.12837 6.1653 7.12657 5.68844 7.12494C5.70391 7.88291 5.71938 8.64088 5.73531 9.42182C6.13403 9.51844 6.13403 9.51844 6.5408 9.61701C6.70979 9.65836 6.87878 9.69976 7.04772 9.74134C7.31547 9.80723 7.58326 9.87294 7.85132 9.93756C8.0676 9.98971 8.28366 10.0427 8.49961 10.0962C8.58174 10.1164 8.66395 10.1363 8.74622 10.156C9.79429 10.4063 9.79429 10.4063 10.0947 10.8749C10.1884 11.1093 10.1884 11.1093 10.1884 11.6249C10.6834 11.6249 11.1784 11.6249 11.6884 11.6249C11.7039 11.4548 11.7194 11.2846 11.7353 11.1093C11.986 10.0177 12.6344 9.07843 13.5781 8.4726C14.2895 8.05583 14.9778 7.84711 15.8046 7.85443C15.8622 7.85486 15.9197 7.85528 15.9789 7.85572C16.7279 7.86998 17.3215 8.06969 17.9697 8.43744C18.0096 8.4601 18.0496 8.48276 18.0907 8.50611C19.0294 9.08962 19.6274 10.051 19.8916 11.1093C20.1496 12.2302 19.879 13.3334 19.2935 14.291C18.6752 15.2113 17.7791 15.8188 16.7041 16.0781C15.5148 16.3005 14.4001 16.0687 13.4052 15.4013C12.5741 14.7832 11.9473 13.9192 11.7353 12.8906C11.7198 12.7204 11.7044 12.5503 11.6884 12.3749C11.1934 12.3749 10.6984 12.3749 10.1884 12.3749C10.1906 12.6183 10.1928 12.8616 10.195 13.1123C10.196 13.2676 10.1969 13.4229 10.1976 13.5782C10.1987 13.8241 10.2 14.0699 10.2026 14.3157C10.2046 14.5142 10.2057 14.7126 10.2062 14.9111C10.2066 14.9864 10.2072 15.0616 10.2083 15.1369C10.2215 16.1533 9.83893 16.7834 9.20351 17.5499C9.17956 17.579 9.15561 17.6082 9.13094 17.6383C9.07205 17.7084 9.01037 17.7762 8.94827 17.8436C8.86512 17.9467 8.86512 17.9467 8.87887 18.0646C8.95425 18.2753 9.04736 18.4771 9.13961 18.6809C9.20406 18.8437 9.20406 18.8437 9.25094 19.1249C11.2928 19.1249 13.3347 19.1249 15.4384 19.1249C15.4539 18.9548 15.4694 18.7846 15.4853 18.6093C15.736 17.5177 16.3844 16.5784 17.3281 15.9726C18.0395 15.5558 18.7278 15.3471 19.5546 15.3544C19.6122 15.3549 19.6697 15.3553 19.7289 15.3557C20.4779 15.37 21.0715 15.5697 21.7197 15.9374C21.7596 15.9601 21.7996 15.9828 21.8407 16.0061C22.7794 16.5896 23.3774 17.551 23.6416 18.6093C23.8996 19.7302 23.629 20.8334 23.0435 21.791C22.4252 22.7113 21.5291 23.3188 20.4541 23.5781C19.2648 23.8005 18.1501 23.5687 17.1552 22.9013C16.3241 22.2832 15.6973 21.4192 15.4853 20.3906C15.4698 20.2204 15.4544 20.0503 15.4384 19.8749C13.4584 19.8749 11.4784 19.8749 9.43844 19.8749C9.43844 21.1124 9.43844 22.3499 9.43844 23.6249C7.21094 23.6249 4.98344 23.6249 2.68844 23.6249C2.68457 23.0072 2.6807 22.3894 2.67672 21.7529C2.67501 21.5595 2.67331 21.366 2.67155 21.1668C2.6707 20.9264 2.6707 20.9264 2.67054 20.813C2.67026 20.7356 2.66961 20.6582 2.66864 20.5809C2.6604 19.884 2.74758 19.2415 3.02242 18.5947C3.04575 18.5388 3.06907 18.4829 3.0931 18.4253C3.15719 18.2812 3.15719 18.2812 3.21542 18.1796C3.26207 18.0668 3.24337 18.0207 3.20406 17.9062C3.14558 17.8196 3.14558 17.8196 3.07076 17.7366C3.04344 17.7047 3.01612 17.6727 2.98798 17.6397C2.95874 17.6058 2.9295 17.572 2.89938 17.5371C2.69082 17.2886 2.48674 17.0402 2.30758 16.7695C2.27652 16.7228 2.24546 16.6762 2.21346 16.6281C1.89255 16.0315 1.9104 15.4249 1.90914 14.7656C1.90482 13.5746 1.90482 13.5746 1.51363 12.4599C1.48762 12.4075 1.46161 12.3552 1.43481 12.3012C1.36905 12.1692 1.30245 12.0376 1.23531 11.9062C1.12554 11.6867 1.1652 11.3943 1.18844 11.1562C1.29193 10.8745 1.48739 10.7027 1.73592 10.5432C1.88891 10.4824 2.0369 10.482 2.19918 10.4824C2.23244 10.4824 2.26569 10.4825 2.29996 10.4826C2.73283 10.4926 3.03312 10.636 3.39156 10.8749C3.40703 9.63744 3.4225 8.39994 3.43844 7.12494C2.73026 7.13234 2.73026 7.13234 2.02212 7.14183C1.9327 7.14238 1.84329 7.14286 1.75387 7.14325C1.70822 7.14421 1.66257 7.14517 1.61553 7.14616C1.26897 7.14634 1.01832 7.0759 0.755211 6.84534C0.717325 6.79957 0.717325 6.79957 0.678673 6.75287C0.652691 6.72248 0.626708 6.69208 0.599938 6.66077C0.447252 6.43917 0.424478 6.23546 0.42482 5.97178C0.424506 5.93668 0.424191 5.90159 0.423866 5.86543C0.422978 5.74981 0.422793 5.63419 0.422692 5.51856C0.42239 5.43782 0.422075 5.35708 0.421746 5.27634C0.421185 5.10718 0.421011 4.93803 0.421067 4.76887C0.421076 4.55277 0.419797 4.33671 0.418181 4.12062C0.417136 3.95385 0.416949 3.78708 0.416998 3.62031C0.416888 3.54068 0.416477 3.46105 0.41575 3.38142C0.40882 2.54458 0.408819 2.54458 0.718041 2.19171C0.748556 2.16646 0.77907 2.1412 0.810509 2.11518C0.840903 2.08919 0.871297 2.06321 0.902611 2.03644C1.12684 1.88194 1.33245 1.86126 1.59909 1.86241C1.63539 1.86219 1.6717 1.86198 1.70911 1.86176C1.83058 1.86117 1.95206 1.86125 2.07354 1.86132C2.16071 1.86104 2.24788 1.86072 2.33505 1.86037C2.57175 1.85954 2.80845 1.85932 3.04516 1.85926C3.19309 1.8592 3.34102 1.859 3.48894 1.85875C4.00515 1.85788 4.52135 1.8575 5.03756 1.85757C5.51852 1.85763 5.99947 1.85664 6.48043 1.85516C6.89353 1.85393 7.30663 1.85343 7.71974 1.85349C7.96639 1.85351 8.21303 1.85325 8.45968 1.85225C8.69172 1.85134 8.92375 1.85134 9.1558 1.85202C9.24083 1.85212 9.32586 1.8519 9.41089 1.85133C9.52726 1.8506 9.64357 1.85104 9.75993 1.85176C9.79333 1.85128 9.82673 1.8508 9.86115 1.8503C10.1608 1.85439 10.3987 1.95917 10.6217 2.15454C10.6469 2.18506 10.6722 2.21557 10.6982 2.24701C10.7242 2.27741 10.7502 2.3078 10.7769 2.33911C11.1439 2.87164 10.9384 3.45233 10.9384 4.12494C12.4234 4.12494 13.9084 4.12494 15.4384 4.12494C15.4539 3.95479 15.4694 3.78463 15.4853 3.60932C15.736 2.51769 16.3844 1.57843 17.3281 0.972599C18.0395 0.555828 18.7278 0.347107 19.5546 0.354434ZM17.1611 2.14154C16.7125 2.61425 16.4541 3.12526 16.2822 3.74994C16.2739 3.77904 16.2656 3.80815 16.257 3.83813C16.055 4.76339 16.3301 5.6346 16.7978 6.42182C16.8442 6.42182 16.8906 6.42182 16.9384 6.42182C17.005 6.34235 17.005 6.34235 17.0644 6.23725C17.3192 5.83944 17.5871 5.55996 17.997 5.32062C18.0978 5.25772 18.1718 5.19712 18.2509 5.10932C18.2328 5.0866 18.2147 5.06388 18.196 5.04047C17.7715 4.49402 17.6805 4.01299 17.7353 3.32807C17.8279 2.85529 18.0969 2.49285 18.4795 2.20893C18.9874 1.88217 19.55 1.83506 20.1397 1.95258C20.686 2.13135 21.0322 2.50614 21.3024 3.00031C21.4746 3.40887 21.4699 4.02013 21.3154 4.43256C21.2227 4.62524 21.104 4.80069 20.9777 4.9729C20.9106 5.06491 20.9106 5.06491 20.9228 5.20307C21.0132 5.26985 21.0132 5.26985 21.1308 5.32904C21.5332 5.56034 21.8182 5.83614 22.0709 6.22498C22.1347 6.3181 22.1996 6.39227 22.2822 6.46869C22.8102 5.64849 23.0344 4.79328 22.8719 3.81975C22.8208 3.59996 22.745 3.39504 22.6572 3.18744C22.6392 3.14345 22.6212 3.09946 22.6026 3.05414C22.4645 2.7498 22.2674 2.49997 22.0478 2.24994C22.02 2.21761 21.9921 2.18529 21.9634 2.15198C21.3363 1.47388 20.509 1.20469 19.6103 1.12494C18.6563 1.12494 17.8521 1.49413 17.1611 2.14154ZM1.28219 2.76557C1.17943 2.93893 1.17639 3.0988 1.17556 3.29748C1.17512 3.35661 1.17467 3.41575 1.17421 3.47668C1.17422 3.54085 1.17427 3.60502 1.17434 3.66919C1.17416 3.73544 1.17395 3.8017 1.17373 3.86795C1.17338 4.0066 1.17339 4.14526 1.17364 4.28391C1.17391 4.46113 1.17312 4.63832 1.17203 4.81553C1.17134 4.9523 1.1713 5.08907 1.17145 5.22584C1.17142 5.29115 1.17118 5.35647 1.1707 5.42178C1.17012 5.5133 1.17054 5.60482 1.17099 5.69634C1.17096 5.74831 1.17093 5.80027 1.1709 5.85381C1.19119 6.02285 1.24179 6.13577 1.32906 6.28119C1.53031 6.41116 1.7649 6.38691 1.99648 6.3841C2.03777 6.38397 2.07906 6.38383 2.12159 6.3837C2.25293 6.38317 2.38425 6.382 2.51559 6.3808C2.60485 6.38033 2.69412 6.3799 2.78338 6.37952C3.00174 6.37849 3.22009 6.37687 3.43844 6.37494C3.44094 6.32667 3.44344 6.27839 3.44601 6.22865C3.4497 6.16468 3.4534 6.10071 3.45712 6.03675C3.45871 6.005 3.46031 5.97326 3.46196 5.94055C3.48316 5.58854 3.57528 5.37474 3.83395 5.13861C4.14876 4.87712 4.49908 4.8867 4.89156 4.92182C5.18247 4.99832 5.38545 5.18872 5.54781 5.43744C5.64375 5.63431 5.66096 5.82242 5.67086 6.03803C5.67267 6.07051 5.67449 6.10298 5.67635 6.13645C5.68074 6.21593 5.68464 6.29543 5.68844 6.37494C6.22141 6.3782 6.75438 6.3807 7.28737 6.38223C7.53486 6.38296 7.78234 6.38396 8.02983 6.38555C8.26872 6.38708 8.50761 6.38792 8.7465 6.38828C8.83759 6.38854 8.92868 6.38905 9.01977 6.38981C9.14747 6.39083 9.27514 6.39097 9.40285 6.39091C9.44041 6.39141 9.47797 6.39192 9.51667 6.39244C9.74171 6.3912 9.90398 6.36684 10.0947 6.23432C10.1974 6.06096 10.2005 5.90109 10.2013 5.70241C10.2018 5.64327 10.2022 5.58413 10.2027 5.5232C10.2027 5.45903 10.2026 5.39486 10.2025 5.33069C10.2027 5.26444 10.2029 5.19819 10.2031 5.13194C10.2035 4.99328 10.2035 4.85463 10.2032 4.71597C10.203 4.53876 10.2038 4.36156 10.2048 4.18435C10.2055 4.04758 10.2056 3.91082 10.2054 3.77405C10.2055 3.70873 10.2057 3.64342 10.2062 3.5781C10.2068 3.48658 10.2063 3.39506 10.2059 3.30354C10.2059 3.25158 10.206 3.19962 10.206 3.14608C10.1852 2.97337 10.1434 2.86402 10.0478 2.71869C9.85678 2.61661 9.68809 2.61306 9.47395 2.61272C9.42341 2.61245 9.42341 2.61245 9.37185 2.61218C9.25922 2.6117 9.1466 2.61188 9.03397 2.61207C8.95311 2.61186 8.87225 2.61162 8.7914 2.61134C8.57194 2.61071 8.35248 2.61069 8.13302 2.61081C7.94978 2.61086 7.76654 2.61063 7.5833 2.6104C7.15101 2.60988 6.71872 2.60986 6.28643 2.61014C5.84051 2.61043 5.39459 2.60985 4.94867 2.60885C4.56575 2.60803 4.18282 2.60775 3.79989 2.6079C3.57122 2.60798 3.34255 2.60786 3.11388 2.60721C2.89884 2.60662 2.68381 2.60671 2.46878 2.60732C2.3899 2.60743 2.31103 2.6073 2.23216 2.60692C2.12439 2.60643 2.01665 2.60681 1.90888 2.6074C1.84861 2.60739 1.78834 2.60738 1.72624 2.60738C1.54773 2.62664 1.43436 2.67164 1.28219 2.76557ZM18.6366 3.14789C18.4522 3.42495 18.4526 3.70875 18.4853 4.03119C18.5684 4.34266 18.7875 4.55496 19.0478 4.73432C19.329 4.87216 19.6517 4.87958 19.9531 4.79914C20.2404 4.67233 20.4653 4.43391 20.6027 4.15351C20.6921 3.87196 20.6915 3.53887 20.5713 3.26654C20.4081 2.98845 20.1524 2.76877 19.8447 2.67182C19.2951 2.60497 18.9865 2.7334 18.6366 3.14789ZM4.31442 5.75678C4.17143 5.94213 4.18264 6.10299 4.1828 6.33005C4.18274 6.38077 4.18274 6.38077 4.18268 6.43251C4.1826 6.54608 4.18286 6.65966 4.18312 6.77323C4.18313 6.85453 4.18312 6.93583 4.1831 7.01713C4.18308 7.23813 4.18336 7.45912 4.18369 7.68012C4.18398 7.91096 4.18401 8.14181 4.18406 8.37266C4.18421 8.80993 4.18459 9.2472 4.18506 9.68448C4.18559 10.1822 4.18584 10.68 4.18608 11.1778C4.18657 12.2018 4.1874 13.2259 4.18844 14.2499C3.94094 14.2499 3.69344 14.2499 3.43844 14.2499C3.43953 14.1302 3.44061 14.0104 3.44173 13.887C3.44247 13.7696 3.44304 13.6521 3.44359 13.5347C3.44406 13.4538 3.44469 13.3728 3.44551 13.2919C3.47267 12.3946 3.47267 12.3946 3.06344 11.6249C2.80995 11.419 2.59213 11.29 2.2607 11.291C2.19816 11.2908 2.19816 11.2908 2.13436 11.2906C2.03322 11.2854 2.03322 11.2854 1.98531 11.3437C1.93601 11.6429 2.09756 11.8719 2.23434 12.1259C2.2815 12.2137 2.3282 12.3018 2.37441 12.3901C2.39528 12.4289 2.41614 12.4676 2.43764 12.5075C2.60112 12.8916 2.6622 13.2589 2.66225 13.6741C2.66287 13.7199 2.66349 13.7657 2.66413 13.8129C2.66603 13.9576 2.66706 14.1023 2.66793 14.247C2.67747 15.4734 2.81099 16.1998 3.63198 17.1431C3.71969 17.2499 3.71969 17.2499 3.76042 17.3432C3.82776 17.4727 3.88137 17.5392 4.00094 17.6249C4.30219 17.6883 4.60242 17.687 4.90933 17.6879C4.99995 17.6891 5.09057 17.6904 5.18119 17.6917C5.37117 17.694 5.56108 17.6947 5.75107 17.6944C5.99321 17.6944 6.23493 17.6995 6.47696 17.706C6.66427 17.7102 6.85148 17.7109 7.03882 17.7107C7.12795 17.7111 7.21709 17.7128 7.30617 17.7157C7.7898 17.7377 7.78981 17.7377 8.22166 17.5527C8.39893 17.3776 8.53886 17.181 8.67245 16.9715C8.75441 16.8456 8.84506 16.7277 8.9372 16.6091C9.33233 16.0925 9.44564 15.5743 9.44525 14.9364C9.44541 14.8992 9.44556 14.862 9.44573 14.8237C9.44617 14.7021 9.44626 14.5805 9.44631 14.4589C9.44646 14.3738 9.44662 14.2887 9.44679 14.2036C9.44707 14.0259 9.44715 13.8482 9.44713 13.6704C9.44712 13.4428 9.44776 13.2152 9.44857 12.9876C9.44909 12.8122 9.44918 12.6367 9.44916 12.4613C9.44921 12.3773 9.44942 12.2934 9.44978 12.2095C9.45024 12.0923 9.45011 11.975 9.44983 11.8578C9.45009 11.8233 9.45035 11.7888 9.45062 11.7532C9.44947 11.5653 9.4378 11.415 9.34469 11.2499C9.13176 11.0692 9.13176 11.0692 8.68844 11.0156C8.68844 12.0829 8.68844 13.1503 8.68844 14.2499C8.44094 14.2499 8.19344 14.2499 7.93844 14.2499C7.93844 13.1207 7.93844 11.9915 7.93844 10.8281C7.53753 10.6805 7.53753 10.6805 7.18844 10.6406C7.18844 11.8317 7.18844 13.0228 7.18844 14.2499C6.94094 14.2499 6.69344 14.2499 6.43844 14.2499C6.43844 12.997 6.43844 11.744 6.43844 10.4531C6.03753 10.3055 6.03753 10.3055 5.68844 10.2656C5.68844 11.5804 5.68844 12.8953 5.68844 14.2499C5.44094 14.2499 5.19344 14.2499 4.93844 14.2499C4.93875 14.1472 4.93906 14.0445 4.93939 13.9386C4.94226 12.9716 4.94435 12.0046 4.94572 11.0375C4.94645 10.5403 4.94744 10.0431 4.94905 9.54594C4.95045 9.1126 4.95136 8.67927 4.95167 8.24593C4.95185 8.01646 4.95228 7.78701 4.95331 7.55755C4.95426 7.34155 4.95456 7.12556 4.95434 6.90957C4.95438 6.83032 4.95466 6.75107 4.9552 6.67182C4.9559 6.56352 4.95573 6.45526 4.95535 6.34697C4.95548 6.28639 4.95561 6.22581 4.95574 6.16339C4.93683 5.98472 4.89169 5.871 4.79781 5.71869C4.61991 5.62974 4.47094 5.63409 4.31442 5.75678ZM17.8578 6.42054C17.711 6.60498 17.5773 6.80748 17.5009 7.03119C17.5473 7.20455 17.6494 7.26853 17.7998 7.35639C18.6014 7.81399 19.5331 8.00796 20.4417 7.76067C20.8363 7.63435 21.3445 7.4419 21.6259 7.12494C21.4967 6.62108 21.1275 6.2154 20.6972 5.94135C19.7316 5.40155 18.6119 5.6269 17.8578 6.42054ZM13.4111 9.64154C12.9625 10.1143 12.7041 10.6253 12.5322 11.2499C12.5239 11.279 12.5156 11.3081 12.507 11.3381C12.305 12.2634 12.5801 13.1346 13.0478 13.9218C13.0942 13.9218 13.1406 13.9218 13.1884 13.9218C13.255 13.8423 13.255 13.8423 13.3144 13.7372C13.5692 13.3394 13.8371 13.06 14.247 12.8206C14.3478 12.7577 14.4218 12.6971 14.5009 12.6093C14.4828 12.5866 14.4647 12.5639 14.446 12.5405C14.0215 11.994 13.9305 11.513 13.9853 10.8281C14.0779 10.3553 14.3469 9.99286 14.7295 9.70893C15.2374 9.38217 15.8 9.33506 16.3897 9.45258C16.936 9.63135 17.2822 10.0061 17.5524 10.5003C17.7246 10.9089 17.7199 11.5201 17.5654 11.9326C17.4727 12.1252 17.354 12.3007 17.2277 12.4729C17.1606 12.5649 17.1606 12.5649 17.1728 12.7031C17.2632 12.7699 17.2632 12.7699 17.3808 12.829C17.7832 13.0603 18.0682 13.3361 18.3209 13.725C18.3847 13.8181 18.4496 13.8923 18.5322 13.9687C19.0602 13.1485 19.2844 12.2933 19.1219 11.3198C19.0708 11.1 18.995 10.895 18.9072 10.6874C18.8892 10.6435 18.8712 10.5995 18.8526 10.5541C18.7145 10.2498 18.5174 9.99997 18.2978 9.74994C18.27 9.71762 18.2421 9.68529 18.2134 9.65198C17.5863 8.97388 16.759 8.70469 15.8603 8.62494C14.9063 8.62494 14.1021 8.99413 13.4111 9.64154ZM14.8866 10.6479C14.7022 10.925 14.7026 11.2087 14.7353 11.5312C14.8184 11.8427 15.0375 12.055 15.2978 12.2343C15.579 12.3722 15.9017 12.3796 16.2031 12.2991C16.4904 12.1723 16.7153 11.9339 16.8527 11.6535C16.9421 11.372 16.9415 11.0389 16.8213 10.7665C16.6581 10.4884 16.4024 10.2688 16.0947 10.1718C15.5451 10.105 15.2365 10.2334 14.8866 10.6479ZM14.1078 13.9205C13.961 14.105 13.8273 14.3075 13.7509 14.5312C13.7973 14.7045 13.8994 14.7685 14.0498 14.8564C14.8514 15.314 15.7831 15.508 16.6917 15.2607C17.0863 15.1343 17.5945 14.9419 17.8759 14.6249C17.7467 14.1211 17.3775 13.7154 16.9472 13.4413C15.9816 12.9015 14.8619 13.1269 14.1078 13.9205ZM17.1611 17.1415C16.7125 17.6143 16.4541 18.1253 16.2822 18.7499C16.2739 18.779 16.2656 18.8081 16.257 18.8381C16.055 19.7634 16.3301 20.6346 16.7978 21.4218C16.8442 21.4218 16.8906 21.4218 16.9384 21.4218C17.005 21.3423 17.005 21.3423 17.0644 21.2372C17.3192 20.8394 17.5871 20.56 17.997 20.3206C18.0978 20.2577 18.1718 20.1971 18.2509 20.1093C18.2328 20.0866 18.2147 20.0639 18.196 20.0405C17.7715 19.494 17.6805 19.013 17.7353 18.3281C17.8279 17.8553 18.0969 17.4929 18.4795 17.2089C18.9874 16.8822 19.55 16.8351 20.1397 16.9526C20.686 17.1314 21.0322 17.5061 21.3024 18.0003C21.4746 18.4089 21.4699 19.0201 21.3154 19.4326C21.2227 19.6252 21.104 19.8007 20.9777 19.9729C20.9106 20.0649 20.9106 20.0649 20.9228 20.2031C21.0132 20.2699 21.0132 20.2699 21.1308 20.329C21.5332 20.5603 21.8182 20.8361 22.0709 21.225C22.1347 21.3181 22.1996 21.3923 22.2822 21.4687C22.8102 20.6485 23.0344 19.7933 22.8719 18.8198C22.8208 18.6 22.745 18.395 22.6572 18.1874C22.6392 18.1435 22.6212 18.0995 22.6026 18.0541C22.4645 17.7498 22.2674 17.5 22.0478 17.2499C22.02 17.2176 21.9921 17.1853 21.9634 17.152C21.3363 16.4739 20.509 16.2047 19.6103 16.1249C18.6563 16.1249 17.8521 16.4941 17.1611 17.1415ZM18.6366 18.1479C18.4522 18.425 18.4526 18.7087 18.4853 19.0312C18.5684 19.3427 18.7875 19.555 19.0478 19.7343C19.329 19.8722 19.6517 19.8796 19.9531 19.7991C20.2404 19.6723 20.4653 19.4339 20.6027 19.1535C20.6921 18.872 20.6915 18.5389 20.5713 18.2665C20.4081 17.9884 20.1524 17.7688 19.8447 17.6718C19.2951 17.605 18.9865 17.7334 18.6366 18.1479ZM4.04781 18.3749C3.26034 19.9499 3.43844 20.9744 3.43844 22.8749C5.17094 22.8749 6.90344 22.8749 8.68844 22.8749C8.77737 20.5069 8.77737 20.5069 8.07906 18.3749C6.74875 18.3749 5.41844 18.3749 4.04781 18.3749ZM17.8578 21.4205C17.711 21.605 17.5773 21.8075 17.5009 22.0312C17.5473 22.2045 17.6494 22.2685 17.7998 22.3564C18.6014 22.814 19.5331 23.008 20.4417 22.7607C20.8363 22.6343 21.3445 22.4419 21.6259 22.1249C21.4967 21.6211 21.1275 21.2154 20.6972 20.9413C19.7316 20.4015 18.6119 20.6269 17.8578 21.4205Z" fill="white"/>
</g>
<defs>
<clipPath id="clip0_7034_22764">
<rect width="24" height="24" fill="white" transform="translate(0.0625)"/>
</clipPath>
</defs>
</svg>
