<svg width="25" height="24" viewBox="0 0 25 24" fill="none" xmlns="http://www.w3.org/2000/svg">
<g id="carbon:software-resource-cluster">
<path id="Vector" d="M18.5 15.75C18.125 15.75 17.75 15.6 17.45 15.3L15.2 13.05C14.9 12.75 14.75 12.375 14.75 12C14.75 11.625 14.9 11.25 15.2 10.95L17.45 8.7C17.75 8.4 18.125 8.25 18.5 8.25C18.875 8.25 19.25 8.4 19.55 8.7L21.8 10.95C22.1 11.25 22.25 11.625 22.25 12C22.25 12.375 22.1 12.75 21.8 13.05L19.55 15.3C19.25 15.6 18.875 15.75 18.5 15.75ZM18.5 9.75L16.25 12L18.5 14.25L20.75 12L18.5 9.75ZM12.5 9.75C12.125 9.75 11.75 9.6 11.45 9.3L9.2 7.05C8.9 6.75 8.75 6.375 8.75 6C8.75 5.625 8.9 5.25 9.2 4.95L11.45 2.7C11.75 2.4 12.125 2.25 12.5 2.25C12.875 2.25 13.25 2.4 13.55 2.7L15.8 4.95C16.1 5.25 16.25 5.625 16.25 6C16.25 6.375 16.1 6.75 15.8 7.05L13.55 9.3C13.25 9.6 12.875 9.75 12.5 9.75ZM12.5 3.75L10.25 6L12.5 8.25L14.75 6L12.5 3.75ZM12.5 21.75C12.125 21.75 11.75 21.6 11.45 21.3L9.2 19.05C8.9 18.75 8.75 18.375 8.75 18C8.75 17.625 8.9 17.25 9.2 16.95L11.45 14.7C11.75 14.4 12.125 14.25 12.5 14.25C12.875 14.25 13.25 14.4 13.55 14.7L15.8 16.95C16.1 17.25 16.25 17.625 16.25 18C16.25 18.375 16.1 18.75 15.8 19.05L13.55 21.3C13.25 21.6 12.875 21.75 12.5 21.75ZM12.5 15.75L10.25 18L12.5 20.25L14.75 18L12.5 15.75ZM6.5 15.75C6.125 15.75 5.75 15.6 5.45 15.3L3.2 13.05C2.9 12.75 2.75 12.375 2.75 12C2.75 11.625 2.9 11.25 3.2 10.95L5.45 8.7C5.75 8.4 6.125 8.25 6.5 8.25C6.875 8.25 7.25 8.4 7.55 8.7L9.8 10.95C10.1 11.25 10.25 11.625 10.25 12C10.25 12.375 10.1 12.75 9.8 13.05L7.55 15.3C7.25 15.6 6.875 15.75 6.5 15.75ZM6.5 9.75L4.25 12L6.5 14.25L8.75 12L6.5 9.75Z" fill="#2F80ED" stroke="#2F80ED" stroke-width="0.5"/>
</g>
</svg>
