<svg width="17" height="17" viewBox="0 0 17 17" fill="none" xmlns="http://www.w3.org/2000/svg">
<g clip-path="url(#clip0_6273_41413)">
<path d="M8.72605 6.36484C8.79136 6.3643 8.85662 6.36293 8.92191 6.36155C8.96374 6.36123 9.00557 6.36097 9.0474 6.36076C9.10425 6.36007 9.10425 6.36007 9.16224 6.35938C9.32006 6.38117 9.41434 6.45847 9.52641 6.56742C9.63854 6.74763 9.65245 6.94723 9.64359 7.15531C9.74736 7.2083 9.83905 7.24334 9.95609 7.24906C10.0515 7.19605 10.1228 7.13491 10.2021 7.0601C10.3234 6.94879 10.4579 6.95312 10.6155 6.9556C10.9275 6.99766 11.1867 7.32795 11.3807 7.55778C11.4841 7.71002 11.482 7.88583 11.4561 8.06156C11.4128 8.17944 11.3428 8.26732 11.2588 8.36039C11.1962 8.43402 11.1962 8.43402 11.212 8.53031C11.2245 8.57672 11.2245 8.57672 11.2373 8.62406C11.248 8.67609 11.2585 8.72817 11.2686 8.78031C11.2957 8.78148 11.3229 8.78265 11.3509 8.78385C11.767 8.80759 11.767 8.80759 11.9069 8.95097C12.0734 9.14329 12.0577 9.30776 12.0591 9.55027C12.0596 9.61558 12.061 9.68084 12.0624 9.74613C12.0627 9.78796 12.0629 9.82979 12.0631 9.87162C12.0638 9.92846 12.0638 9.92846 12.0645 9.98646C12.0427 10.1443 11.9654 10.2386 11.8565 10.3506C11.6763 10.4628 11.4767 10.4767 11.2686 10.4678C11.2156 10.5716 11.1806 10.6633 11.1748 10.7803C11.2279 10.8758 11.289 10.947 11.3638 11.0263C11.4751 11.1476 11.4708 11.2822 11.4683 11.4397C11.4262 11.7518 11.096 12.0109 10.8661 12.2049C10.7139 12.3083 10.5381 12.3062 10.3623 12.2803C10.2445 12.237 10.1566 12.167 10.0635 12.083C9.98988 12.0204 9.98988 12.0204 9.89359 12.0362C9.86266 12.0445 9.83172 12.0529 9.79984 12.0616C9.74781 12.0722 9.69573 12.0827 9.64359 12.0928C9.64242 12.12 9.64126 12.1471 9.64005 12.1751C9.61632 12.5912 9.61632 12.5912 9.47294 12.7311C9.28062 12.8976 9.11614 12.8819 8.87363 12.8833C8.80833 12.8838 8.74307 12.8852 8.67777 12.8866C8.63594 12.8869 8.59411 12.8872 8.55228 12.8874C8.49544 12.8881 8.49544 12.8881 8.43745 12.8887C8.27962 12.867 8.18535 12.7897 8.07328 12.6807C7.96115 12.5005 7.94724 12.3009 7.95609 12.0928C7.85233 12.0398 7.76064 12.0048 7.64359 11.9991C7.54814 12.0521 7.47689 12.1132 7.39762 12.188C7.27629 12.2993 7.14175 12.295 6.98417 12.2925C6.67215 12.2505 6.41302 11.9202 6.21903 11.6903C6.11558 11.5381 6.11767 11.3623 6.14359 11.1866C6.18686 11.0687 6.25687 10.9808 6.34086 10.8877C6.40347 10.8141 6.40347 10.8141 6.38773 10.7178C6.37935 10.6869 6.37098 10.6559 6.36234 10.6241C6.35168 10.572 6.34122 10.52 6.33109 10.4678C6.30394 10.4666 6.27679 10.4655 6.24882 10.4643C5.83271 10.4405 5.83271 10.4405 5.69279 10.2972C5.52627 10.1048 5.54201 9.94036 5.54062 9.69785C5.54008 9.63254 5.53871 9.56729 5.53733 9.50199C5.53701 9.46016 5.53675 9.41833 5.53654 9.3765C5.53608 9.33861 5.53563 9.30071 5.53516 9.26167C5.55695 9.10384 5.63425 9.00957 5.7432 8.8975C5.92341 8.78537 6.12301 8.77146 6.33109 8.78031C6.38408 8.67654 6.41913 8.58486 6.42484 8.46781C6.37183 8.37236 6.31069 8.30111 6.23588 8.22184C6.12457 8.10051 6.1289 7.96596 6.13139 7.80839C6.17344 7.49637 6.50373 7.23724 6.73356 7.04325C6.8859 6.93973 7.06151 6.94206 7.23734 6.96781C7.34179 7.00566 7.42502 7.0651 7.50809 7.1392C7.5635 7.18625 7.6073 7.22171 7.67484 7.24906C7.77674 7.23439 7.86372 7.19992 7.95609 7.15531C7.9569 7.1259 7.9577 7.0965 7.95853 7.0662C7.97641 6.6738 7.97641 6.6738 8.11234 6.53031C8.3112 6.35513 8.47187 6.36629 8.72605 6.36484ZM8.51859 6.87406C8.48632 7.05057 8.48632 7.05057 8.45602 7.22741C8.42225 7.39425 8.37038 7.48439 8.23357 7.58691C8.03887 7.7101 7.78183 7.82125 7.54984 7.78031C7.37558 7.71466 7.22916 7.61011 7.08109 7.49906C6.92858 7.62225 6.79803 7.7528 6.67484 7.90531C6.68991 7.92606 6.70497 7.9468 6.7205 7.96818C6.74024 7.99577 6.75997 8.02337 6.78031 8.0518C6.79989 8.07899 6.81947 8.10618 6.83964 8.13419C6.94051 8.29052 6.97107 8.40547 6.95609 8.59281C6.93113 8.67602 6.90519 8.7515 6.87211 8.83109C6.86447 8.85115 6.85684 8.87121 6.84898 8.89188C6.79306 9.03006 6.72574 9.12165 6.61234 9.21781C6.44187 9.28132 6.25951 9.3086 6.08109 9.34281C6.08109 9.52844 6.08109 9.71406 6.08109 9.90531C6.20678 9.92948 6.20678 9.92948 6.335 9.95414C6.66868 10.0288 6.66868 10.0288 6.7664 10.1786C6.99417 10.6583 6.99417 10.6583 6.95609 10.8741C6.89044 11.0483 6.78589 11.1947 6.67484 11.3428C6.79803 11.4953 6.92858 11.6259 7.08109 11.7491C7.10184 11.734 7.12258 11.7189 7.14396 11.7034C7.17155 11.6837 7.19915 11.6639 7.22758 11.6436C7.25477 11.624 7.28196 11.6044 7.30997 11.5843C7.4663 11.4834 7.58125 11.4528 7.76859 11.4678C7.8518 11.4928 7.92728 11.5187 8.00687 11.5518C8.02694 11.5594 8.047 11.5671 8.06767 11.5749C8.20584 11.6308 8.29743 11.6982 8.39359 11.8116C8.4571 11.982 8.48438 12.1644 8.51859 12.3428C8.70422 12.3531 8.88984 12.3634 9.08109 12.3741C9.1196 12.1946 9.1196 12.1946 9.15774 12.0151C9.16266 11.9926 9.16758 11.97 9.17265 11.9468C9.17756 11.9239 9.18246 11.901 9.18752 11.8774C9.2073 11.8073 9.23128 11.7491 9.26859 11.6866C9.33817 11.6526 9.33817 11.6526 9.42484 11.6241C9.45667 11.6108 9.48849 11.5975 9.52128 11.5838C9.92266 11.4207 9.92266 11.4207 10.1119 11.4908C10.2558 11.5568 10.37 11.6435 10.4873 11.7491C10.6093 11.6995 10.6853 11.6199 10.7764 11.5264C10.8043 11.498 10.8322 11.4695 10.8609 11.4402C10.882 11.4184 10.9031 11.3966 10.9248 11.3741C10.9022 11.3396 10.9022 11.3396 10.8792 11.3044C10.8594 11.2739 10.8397 11.2434 10.8194 11.212C10.7998 11.1819 10.7802 11.1518 10.76 11.1208C10.6638 10.9594 10.6276 10.8455 10.6436 10.6553C10.6678 10.5716 10.7005 10.4929 10.7354 10.4131C10.7526 10.3723 10.7698 10.3314 10.787 10.2906C10.8016 10.2562 10.8161 10.2219 10.8311 10.1866C10.8414 10.1556 10.8517 10.1247 10.8623 10.0928C10.9453 10.0409 11.0275 10.0172 11.1226 9.99686C11.1451 9.99194 11.1677 9.98703 11.1909 9.98196C11.2191 9.976 11.2473 9.97004 11.2764 9.96391C11.3666 9.94457 11.4569 9.92523 11.5498 9.90531C11.5498 9.71969 11.5498 9.53406 11.5498 9.34281C11.3733 9.31054 11.3733 9.31054 11.1965 9.28024C11.0297 9.24647 10.9395 9.1946 10.837 9.05779C10.7138 8.86309 10.6027 8.60605 10.6436 8.37406C10.7069 8.20307 10.8037 8.07114 10.9248 7.93656C10.8753 7.8146 10.7957 7.73859 10.7022 7.6475C10.6737 7.61962 10.6453 7.59175 10.616 7.56303C10.5942 7.54192 10.5723 7.52081 10.5498 7.49906C10.5153 7.52166 10.5153 7.52166 10.4801 7.54472C10.4496 7.56445 10.4192 7.58419 10.3877 7.60453C10.3576 7.62411 10.3276 7.64369 10.2965 7.66386C10.1351 7.76013 10.0213 7.79629 9.83109 7.78031C9.74736 7.75609 9.66868 7.72345 9.58891 7.68851C9.54806 7.67129 9.50721 7.65408 9.46635 7.63688C9.43203 7.62234 9.3977 7.60779 9.36234 7.59281C9.31594 7.57734 9.31594 7.57734 9.26859 7.56156C9.14696 7.37553 9.12207 7.11898 9.08109 6.90531C8.89547 6.895 8.70984 6.88469 8.51859 6.87406Z" fill="#155DEC"/>
<path d="M15.5028 7.79614C15.7841 7.99874 15.9701 8.25514 16.0523 8.59277C16.0674 8.74695 16.0703 8.89897 16.0686 9.05377C16.0679 9.12394 16.0685 9.194 16.0693 9.26416C16.0701 9.66476 15.9924 9.98468 15.7085 10.2803C15.5526 10.4221 15.4027 10.514 15.2085 10.5928C15.2444 10.5932 15.2444 10.5932 15.281 10.5937C15.391 10.5954 15.5009 10.598 15.6108 10.6006C15.6673 10.6013 15.6673 10.6013 15.7249 10.6019C16.0367 10.6104 16.3022 10.6652 16.5357 10.8833C16.735 11.105 16.8119 11.3373 16.8128 11.634C16.8131 11.6706 16.8131 11.6706 16.8134 11.708C16.8137 11.7593 16.8138 11.8106 16.8138 11.862C16.814 11.9404 16.8151 12.0188 16.8163 12.0973C16.8165 12.1473 16.8166 12.1973 16.8167 12.2473C16.8171 12.2707 16.8176 12.2941 16.818 12.3181C16.8171 12.4283 16.811 12.4877 16.7428 12.5762C16.6718 12.628 16.6391 12.641 16.5523 12.6396C16.5213 12.6401 16.5213 12.6401 16.4898 12.6406C16.3978 12.6162 16.3618 12.5725 16.3023 12.499C16.2867 12.409 16.2867 12.409 16.2865 12.3053C16.2856 12.2486 16.2856 12.2486 16.2847 12.1907C16.2847 12.1513 16.2847 12.1119 16.2847 12.0713C16.2963 11.6383 16.2963 11.6383 16.1069 11.2666C15.8676 11.1306 15.6217 11.1456 15.3533 11.1459C15.3094 11.1458 15.2656 11.1456 15.2217 11.1455C15.13 11.1452 15.0384 11.1452 14.9467 11.1454C14.8299 11.1456 14.7131 11.1451 14.5963 11.1443C14.5058 11.1439 14.4153 11.1438 14.3248 11.1439C14.2818 11.1439 14.2387 11.1438 14.1957 11.1435C13.7904 11.1354 13.7904 11.1354 13.4448 11.3193C13.2921 11.5881 13.3225 11.8874 13.3213 12.1877C13.3206 12.2258 13.3198 12.2639 13.3191 12.3031C13.3187 12.355 13.3187 12.355 13.3183 12.408C13.2988 12.5187 13.2646 12.5555 13.1773 12.624C13.1148 12.6406 13.1148 12.6406 13.0523 12.6396C13.0316 12.64 13.011 12.6403 12.9898 12.6406C12.8958 12.6157 12.8618 12.5758 12.8023 12.499C12.7898 12.4123 12.7847 12.3383 12.7857 12.2517C12.7855 12.2277 12.7854 12.2036 12.7853 12.1788C12.7852 12.1279 12.7854 12.077 12.786 12.0261C12.7866 11.9491 12.786 11.8723 12.7852 11.7953C12.7845 11.4495 12.8148 11.1548 13.0615 10.8906C13.2636 10.709 13.4829 10.6189 13.7551 10.6111C13.7926 10.6099 13.8301 10.6087 13.8687 10.6074C13.9073 10.6065 13.946 10.6055 13.9858 10.6045C14.0252 10.6033 14.0646 10.6021 14.1052 10.6008C14.2022 10.5979 14.2991 10.5952 14.396 10.5928C14.3752 10.5828 14.3543 10.5729 14.3329 10.5626C14.0057 10.4035 13.7698 10.2111 13.6148 9.87402C13.5407 9.65058 13.5406 9.43621 13.5407 9.2037C13.5405 9.13244 13.5394 9.06124 13.5382 8.98999C13.5351 8.58498 13.6099 8.26753 13.896 7.96777C14.3266 7.55668 14.993 7.47825 15.5028 7.79614ZM14.2194 8.401C14.002 8.71545 14.0074 9.16615 14.0737 9.53027C14.1382 9.76328 14.2538 9.9132 14.4627 10.0331C14.6454 10.1222 14.867 10.1252 15.0623 10.0736C15.2584 9.98632 15.4029 9.82396 15.5015 9.63574C15.5982 9.26827 15.6088 8.8039 15.4273 8.46191C15.3227 8.31064 15.1932 8.21838 15.021 8.15527C14.7048 8.10166 14.4368 8.15584 14.2194 8.401Z" fill="#155DEC"/>
<path d="M3.50282 7.79614C3.78409 7.99874 3.97011 8.25514 4.05226 8.59277C4.06736 8.74695 4.07031 8.89897 4.06855 9.05377C4.06788 9.12394 4.06855 9.194 4.06935 9.26416C4.07015 9.66476 3.99239 9.98468 3.70851 10.2803C3.55257 10.4221 3.40272 10.514 3.20851 10.5928C3.24439 10.5932 3.24439 10.5932 3.281 10.5937C3.39097 10.5954 3.5009 10.598 3.61085 10.6006C3.66729 10.6013 3.66729 10.6013 3.72486 10.6019C4.03672 10.6104 4.30218 10.6652 4.53565 10.8833C4.73501 11.105 4.81187 11.3373 4.81275 11.634C4.81307 11.6706 4.81307 11.6706 4.81338 11.708C4.8137 11.7593 4.81385 11.8106 4.81384 11.862C4.81397 11.9404 4.81511 12.0188 4.81629 12.0973C4.81648 12.1473 4.8166 12.1973 4.81666 12.2473C4.81711 12.2707 4.81756 12.2941 4.81802 12.3181C4.81705 12.4283 4.81096 12.4877 4.74276 12.5762C4.67179 12.628 4.63906 12.641 4.55226 12.6396C4.52132 12.6401 4.52132 12.6401 4.48976 12.6406C4.39779 12.6162 4.36175 12.5725 4.30226 12.499C4.28668 12.409 4.28668 12.409 4.28651 12.3053C4.28563 12.2486 4.28563 12.2486 4.28474 12.1907C4.28472 12.1513 4.2847 12.1119 4.28468 12.0713C4.29632 11.6383 4.29632 11.6383 4.10694 11.2666C3.86762 11.1306 3.62169 11.1456 3.35328 11.1459C3.30943 11.1458 3.26557 11.1456 3.22172 11.1455C3.13005 11.1452 3.03838 11.1452 2.94671 11.1454C2.82991 11.1456 2.71312 11.1451 2.59632 11.1443C2.50581 11.1439 2.4153 11.1438 2.32479 11.1439C2.28176 11.1439 2.23873 11.1438 2.1957 11.1435C1.79042 11.1354 1.79042 11.1354 1.44483 11.3193C1.29212 11.5881 1.32252 11.8874 1.3213 12.1877C1.32057 12.2258 1.31985 12.2639 1.3191 12.3031C1.31872 12.355 1.31872 12.355 1.31832 12.408C1.29877 12.5187 1.26461 12.5555 1.17726 12.624C1.11476 12.6406 1.11476 12.6406 1.05226 12.6396C1.03163 12.64 1.01101 12.6403 0.989755 12.6406C0.895756 12.6157 0.861783 12.5758 0.802255 12.499C0.789792 12.4123 0.7847 12.3383 0.785654 12.2517C0.785534 12.2277 0.785415 12.2036 0.785291 12.1788C0.785206 12.1279 0.785436 12.077 0.785959 12.0261C0.786623 11.9491 0.785968 11.8723 0.785166 11.7953C0.784542 11.4495 0.814764 11.1548 1.06153 10.8906C1.26359 10.709 1.48294 10.6189 1.75514 10.6111C1.7926 10.6099 1.83006 10.6087 1.86866 10.6074C1.90733 10.6065 1.94601 10.6055 1.98585 10.6045C2.02525 10.6033 2.06464 10.6021 2.10523 10.6008C2.20215 10.5979 2.29907 10.5952 2.39601 10.5928C2.37517 10.5828 2.35433 10.5729 2.33286 10.5626C2.00572 10.4035 1.76981 10.2111 1.61476 9.87402C1.5407 9.65058 1.54062 9.43621 1.54067 9.2037C1.54054 9.13244 1.5394 9.06124 1.53822 8.98999C1.53506 8.58498 1.60985 8.26753 1.89601 7.96777C2.32663 7.55668 2.99303 7.47825 3.50282 7.79614ZM2.21937 8.401C2.00197 8.71545 2.00736 9.16615 2.07374 9.53027C2.13822 9.76328 2.25377 9.9132 2.46266 10.0331C2.64541 10.1222 2.86697 10.1252 3.06227 10.0736C3.25838 9.98632 3.40288 9.82396 3.50147 9.63574C3.59818 9.26827 3.60883 8.8039 3.42726 8.46191C3.32267 8.31064 3.19317 8.21838 3.02101 8.15527C2.70478 8.10166 2.43677 8.15584 2.21937 8.401Z" fill="#155DEC"/>
<path d="M9.50282 1.04614C9.78409 1.24874 9.97011 1.50514 10.0523 1.84277C10.0674 1.99695 10.0703 2.14897 10.0686 2.30377C10.0679 2.37394 10.0685 2.444 10.0693 2.51416C10.0701 2.91476 9.99239 3.23468 9.70851 3.53027C9.55257 3.67213 9.40272 3.76405 9.20851 3.84277C9.24439 3.84321 9.24439 3.84321 9.281 3.84366C9.39097 3.84535 9.5009 3.84796 9.61085 3.85059C9.66729 3.85125 9.66729 3.85125 9.72486 3.85193C10.0367 3.8604 10.3022 3.91525 10.5357 4.1333C10.735 4.35503 10.8119 4.58725 10.8128 4.88403C10.8131 4.92065 10.8131 4.92065 10.8134 4.958C10.8137 5.00932 10.8138 5.06063 10.8138 5.11195C10.814 5.19042 10.8151 5.26883 10.8163 5.34729C10.8165 5.3973 10.8166 5.44731 10.8167 5.49731C10.8171 5.52069 10.8176 5.54406 10.818 5.56815C10.8171 5.67834 10.811 5.73772 10.7428 5.82622C10.6718 5.87801 10.6391 5.891 10.5523 5.88965C10.5213 5.89013 10.5213 5.89013 10.4898 5.89062C10.3978 5.8662 10.3618 5.82249 10.3023 5.74902C10.2867 5.65897 10.2867 5.65897 10.2865 5.5553C10.2856 5.49859 10.2856 5.49859 10.2847 5.44073C10.2847 5.40132 10.2847 5.3619 10.2847 5.32129C10.2963 4.88833 10.2963 4.88833 10.1069 4.5166C9.86762 4.38062 9.62169 4.39556 9.35328 4.39587C9.30943 4.39575 9.26557 4.39562 9.22172 4.39547C9.13005 4.39524 9.03838 4.39524 8.94671 4.39541C8.82991 4.39559 8.71312 4.39506 8.59632 4.39433C8.50581 4.39387 8.4153 4.39385 8.32479 4.39394C8.28176 4.39393 8.23873 4.39377 8.1957 4.39345C7.79042 4.38537 7.79042 4.38537 7.44483 4.56934C7.29212 4.83811 7.32252 5.13736 7.3213 5.43768C7.32057 5.47577 7.31985 5.51386 7.3191 5.5531C7.31872 5.60502 7.31872 5.60502 7.31832 5.65798C7.29877 5.76875 7.26461 5.80546 7.17726 5.87402C7.11476 5.89062 7.11476 5.89062 7.05226 5.88965C7.03163 5.88997 7.01101 5.89029 6.98976 5.89062C6.89576 5.86566 6.86178 5.82581 6.80226 5.74902C6.78979 5.66233 6.7847 5.58831 6.78565 5.50171C6.78553 5.47766 6.78541 5.4536 6.78529 5.42882C6.78521 5.37792 6.78544 5.32701 6.78596 5.27611C6.78662 5.19914 6.78597 5.12226 6.78517 5.04529C6.78454 4.69951 6.81476 4.40484 7.06153 4.14062C7.26359 3.95896 7.48294 3.86886 7.75514 3.86108C7.7926 3.85988 7.83006 3.85867 7.86866 3.85742C7.90733 3.85645 7.94601 3.85549 7.98585 3.85449C8.02525 3.85328 8.06464 3.85207 8.10523 3.85083C8.20215 3.84789 8.29907 3.84522 8.39601 3.84277C8.37517 3.83283 8.35433 3.82289 8.33286 3.81264C8.00572 3.65345 7.76981 3.46108 7.61476 3.12402C7.5407 2.90058 7.54062 2.68621 7.54067 2.4537C7.54054 2.38244 7.5394 2.31124 7.53822 2.23999C7.53506 1.83498 7.60985 1.51753 7.89601 1.21777C8.32663 0.806681 8.99303 0.728248 9.50282 1.04614ZM8.21937 1.651C8.00197 1.96545 8.00736 2.41615 8.07374 2.78027C8.13822 3.01328 8.25377 3.1632 8.46266 3.28308C8.64541 3.37216 8.86697 3.37523 9.06227 3.32361C9.25838 3.23632 9.40288 3.07396 9.50147 2.88574C9.59818 2.51827 9.60883 2.0539 9.42726 1.71191C9.32267 1.56064 9.19317 1.46838 9.02101 1.40527C8.70478 1.35166 8.43677 1.40584 8.21937 1.651Z" fill="#155DEC"/>
<path d="M4.64648 13.0928C4.7301 13.1455 4.7301 13.1455 4.8125 13.2178C4.84255 13.2436 4.8726 13.2695 4.90356 13.2961C4.95515 13.3425 5.00651 13.3891 5.05737 13.4363C5.73818 14.0649 6.60321 14.452 7.49023 14.6865C7.52746 14.6965 7.56468 14.7064 7.60303 14.7167C8.97862 15.0352 10.5192 14.7692 11.725 14.0406C12.1028 13.8045 12.4544 13.539 12.7784 13.2331C12.9227 13.0968 12.9227 13.0968 13.0469 13.083C13.1722 13.0953 13.2179 13.1256 13.3027 13.2178C13.334 13.3096 13.334 13.3096 13.334 13.4053C12.989 14.0746 12.0521 14.5365 11.3965 14.8428C11.3613 14.8595 11.3261 14.8761 11.2898 14.8933C10.6263 15.1932 9.87536 15.3743 9.14636 15.3815C9.12035 15.3818 9.09433 15.3821 9.06753 15.3824C8.50068 15.3877 7.94991 15.3873 7.39648 15.249C7.36582 15.2415 7.33515 15.2339 7.30356 15.2262C6.26214 14.9624 5.35071 14.4653 4.55273 13.749C4.52651 13.7258 4.50029 13.7025 4.47327 13.6786C4.37644 13.5883 4.31224 13.5245 4.26562 13.3994C4.27276 13.2923 4.29964 13.2396 4.36523 13.1553C4.47521 13.082 4.51698 13.0773 4.64648 13.0928Z" fill="#155DEC"/>
<path d="M9.65359 8.35258C9.98605 8.60299 10.2173 8.89554 10.3001 9.31156C10.3466 9.77342 10.3 10.1751 10.0139 10.5539C9.77985 10.8391 9.48649 11.0675 9.11258 11.1241C8.67069 11.1641 8.26804 11.136 7.89773 10.8662C7.59355 10.6045 7.33403 10.2804 7.29316 9.86655C7.26812 9.34345 7.35238 8.96981 7.69558 8.56266C8.19213 8.02747 9.05296 7.95395 9.65359 8.35258ZM8.05008 8.96195C8.01741 9.00452 7.98607 9.04815 7.95633 9.09281C7.94283 9.11291 7.92934 9.13301 7.91543 9.15372C7.7961 9.37051 7.79297 9.63388 7.83133 9.87406C7.91966 10.159 8.08105 10.3589 8.33743 10.5076C8.60136 10.6373 8.86444 10.6548 9.14383 10.5616C9.40913 10.4385 9.5931 10.2778 9.71805 10.0127C9.80827 9.76366 9.80873 9.48701 9.72 9.23734C9.59622 8.97378 9.41035 8.80135 9.14383 8.68656C8.75198 8.55789 8.33086 8.6651 8.05008 8.96195Z" fill="#155DEC"/>
<path d="M6.95703 3.21784C7.04749 3.27211 7.0512 3.3132 7.07812 3.41705C7.08261 3.54707 7.06519 3.58443 6.98828 3.68659C6.91386 3.73142 6.91386 3.73142 6.82581 3.76715C6.77722 3.78748 6.77722 3.78748 6.72765 3.80822C6.69313 3.82222 6.65861 3.83622 6.62305 3.85065C5.86322 4.17284 5.25751 4.60145 4.67578 5.18659C4.64715 5.21414 4.64715 5.21414 4.61794 5.24226C4.08995 5.75579 3.74293 6.40417 3.46671 7.07913C3.45453 7.10847 3.44235 7.13781 3.42981 7.16803C3.4192 7.19423 3.40859 7.22044 3.39765 7.24744C3.36328 7.31159 3.36328 7.31159 3.26953 7.37409C3.04976 7.39502 3.04976 7.39502 2.94336 7.32135C2.88706 7.23803 2.87218 7.193 2.86328 7.09284C2.88512 7.0127 2.9088 6.94091 2.93945 6.86432C2.95221 6.83157 2.95221 6.83157 2.96523 6.79817C3.52236 5.40277 4.571 4.26162 5.89453 3.56159C5.92332 3.54629 5.92332 3.54629 5.95268 3.53069C6.70949 3.13173 6.70949 3.13173 6.95703 3.21784Z" fill="#155DEC"/>
<path d="M11.2974 3.35654C11.3292 3.37052 11.3609 3.3845 11.3936 3.3989C12.314 3.81264 13.1578 4.47673 13.7701 5.28036C13.7838 5.29791 13.7974 5.31546 13.8115 5.33354C14.0318 5.61856 14.211 5.92043 14.3775 6.23935C14.3956 6.27383 14.4137 6.30831 14.4324 6.34384C14.7587 6.98389 14.7587 6.98389 14.7173 7.21123C14.6763 7.31161 14.6763 7.31161 14.5826 7.37411C14.4066 7.39088 14.4066 7.39088 14.3326 7.37411C14.2363 7.29045 14.1846 7.21489 14.1369 7.09726C14.1247 7.06779 14.1124 7.03833 14.0998 7.00797C14.087 6.97669 14.0743 6.94541 14.0611 6.91318C13.7453 6.16722 13.3126 5.56955 12.7388 4.99911C12.7113 4.97048 12.7113 4.97048 12.6832 4.94128C12.536 4.78991 12.382 4.65869 12.2115 4.53427C12.1858 4.5155 12.1602 4.49672 12.1337 4.47738C11.7274 4.18589 11.2917 3.97408 10.8326 3.78036C10.597 3.67787 10.597 3.67787 10.5449 3.59628C10.5064 3.49405 10.5267 3.41609 10.5513 3.31161C10.7357 3.06028 11.0772 3.25909 11.2974 3.35654Z" fill="#155DEC"/>
</g>
<defs>
<clipPath id="clip0_6273_41413">
<rect width="16" height="16" fill="white" transform="translate(0.800781 0.124023)"/>
</clipPath>
</defs>
</svg>
