<svg width="153" height="25" viewBox="0 0 153 25" fill="none" xmlns="http://www.w3.org/2000/svg">
<path d="M21.7831 8.66964L15.8323 7.80479L13.1722 2.41183C13.0995 2.26417 12.98 2.14464 12.8323 2.07198C12.462 1.88917 12.012 2.04151 11.8268 2.41183L9.16668 7.80479L3.2159 8.66964C3.05184 8.69308 2.90184 8.77042 2.78699 8.88761C2.64815 9.03031 2.57165 9.22229 2.57428 9.42138C2.57692 9.62046 2.65849 9.81035 2.80106 9.94933L7.10653 14.147L6.08934 20.0743C6.06549 20.2122 6.08074 20.354 6.13338 20.4837C6.18602 20.6133 6.27394 20.7256 6.38716 20.8079C6.50038 20.8901 6.63437 20.939 6.77395 20.9489C6.91352 20.9589 7.0531 20.9295 7.17684 20.8642L12.4995 18.0657L17.8222 20.8642C17.9675 20.9415 18.1362 20.9673 18.2979 20.9392C18.7057 20.8689 18.98 20.4821 18.9097 20.0743L17.8925 14.147L22.1979 9.94933C22.3151 9.83448 22.3925 9.68448 22.4159 9.52042C22.4792 9.11026 22.1932 8.73058 21.7831 8.66964V8.66964Z" fill="#F2C94C"/>
<path d="M53.7831 8.66964L47.8323 7.80479L45.1722 2.41183C45.0995 2.26417 44.98 2.14464 44.8323 2.07198C44.462 1.88917 44.012 2.04151 43.8268 2.41183L41.1667 7.80479L35.2159 8.66964C35.0518 8.69308 34.9018 8.77042 34.787 8.88761C34.6482 9.03031 34.5716 9.22229 34.5743 9.42138C34.5769 9.62046 34.6585 9.81035 34.8011 9.94933L39.1065 14.147L38.0893 20.0743C38.0655 20.2122 38.0807 20.354 38.1334 20.4837C38.186 20.6133 38.2739 20.7256 38.3872 20.8079C38.5004 20.8901 38.6344 20.939 38.7739 20.9489C38.9135 20.9589 39.0531 20.9295 39.1768 20.8642L44.4995 18.0657L49.8222 20.8642C49.9675 20.9415 50.1362 20.9673 50.2979 20.9392C50.7057 20.8689 50.98 20.4821 50.9097 20.0743L49.8925 14.147L54.1979 9.94933C54.3151 9.83448 54.3925 9.68448 54.4159 9.52042C54.4792 9.11026 54.1932 8.73058 53.7831 8.66964V8.66964Z" fill="#F2C94C"/>
<path d="M85.7831 8.66964L79.8323 7.80479L77.1722 2.41183C77.0995 2.26417 76.98 2.14464 76.8323 2.07198C76.462 1.88917 76.012 2.04151 75.8268 2.41183L73.1667 7.80479L67.2159 8.66964C67.0518 8.69308 66.9018 8.77042 66.787 8.88761C66.6482 9.03031 66.5716 9.22229 66.5743 9.42138C66.5769 9.62046 66.6585 9.81035 66.8011 9.94933L71.1065 14.147L70.0893 20.0743C70.0655 20.2122 70.0807 20.354 70.1334 20.4837C70.186 20.6133 70.2739 20.7256 70.3872 20.8079C70.5004 20.8901 70.6344 20.939 70.7739 20.9489C70.9135 20.9589 71.0531 20.9295 71.1768 20.8642L76.4995 18.0657L81.8222 20.8642C81.9675 20.9415 82.1362 20.9673 82.2979 20.9392C82.7057 20.8689 82.98 20.4821 82.9097 20.0743L81.8925 14.147L86.1979 9.94933C86.3151 9.83448 86.3925 9.68448 86.4159 9.52042C86.4792 9.11026 86.1932 8.73058 85.7831 8.66964V8.66964Z" fill="#F2C94C"/>
<path d="M117.783 8.66964L111.832 7.80479L109.172 2.41183C109.099 2.26417 108.98 2.14464 108.832 2.07198C108.462 1.88917 108.012 2.04151 107.827 2.41183L105.167 7.80479L99.2159 8.66964C99.0518 8.69308 98.9018 8.77042 98.787 8.88761C98.6482 9.03031 98.5716 9.22229 98.5743 9.42138C98.5769 9.62046 98.6585 9.81035 98.8011 9.94933L103.107 14.147L102.089 20.0743C102.065 20.2122 102.081 20.354 102.133 20.4837C102.186 20.6133 102.274 20.7256 102.387 20.8079C102.5 20.8901 102.634 20.939 102.774 20.9489C102.914 20.9589 103.053 20.9295 103.177 20.8642L108.499 18.0657L113.822 20.8642C113.967 20.9415 114.136 20.9673 114.298 20.9392C114.706 20.8689 114.98 20.4821 114.91 20.0743L113.892 14.147L118.198 9.94933C118.315 9.83448 118.392 9.68448 118.416 9.52042C118.479 9.11026 118.193 8.73058 117.783 8.66964V8.66964Z" fill="#F2C94C"/>
<path d="M149.709 9.06808L143.758 8.20323L141.098 2.81026C141.025 2.66261 140.906 2.54308 140.758 2.47042C140.388 2.28761 139.938 2.43995 139.753 2.81026L137.092 8.20323L131.142 9.06808C130.978 9.09151 130.828 9.16886 130.713 9.28604C130.574 9.42875 130.497 9.62073 130.5 9.81981C130.503 10.0189 130.584 10.2088 130.727 10.3478L135.032 14.5454L134.015 20.4728C133.991 20.6106 134.007 20.7525 134.059 20.8821C134.112 21.0118 134.2 21.1241 134.313 21.2063C134.426 21.2885 134.56 21.3374 134.7 21.3473C134.839 21.3573 134.979 21.3279 135.103 21.2626L140.425 18.4642L145.748 21.2626C145.893 21.34 146.062 21.3657 146.224 21.3376C146.632 21.2673 146.906 20.8806 146.835 20.4728L145.818 14.5454L150.124 10.3478C150.241 10.2329 150.318 10.0829 150.342 9.91886C150.405 9.5087 150.119 9.12901 149.709 9.06808V9.06808Z" fill="#E3E3E3"/>
</svg>
