<svg width="20" height="12" viewBox="0 0 20 12" fill="none" xmlns="http://www.w3.org/2000/svg">
<path id="Vector 616" d="M1 5.43127C0.585787 5.43127 0.25 5.76706 0.25 6.18127C0.25 6.59549 0.585786 6.93127 1 6.93127L1 5.43127ZM19.217 6.71161C19.5099 6.41871 19.5099 5.94384 19.217 5.65095L14.444 0.877975C14.1511 0.585081 13.6762 0.585081 13.3833 0.877975C13.0905 1.17087 13.0905 1.64574 13.3833 1.93864L17.626 6.18128L13.3833 10.4239C13.0905 10.7168 13.0905 11.1917 13.3833 11.4846C13.6762 11.7775 14.1511 11.7775 14.444 11.4846L19.217 6.71161ZM1 6.93127L18.6866 6.93128L18.6866 5.43128L1 5.43127L1 6.93127Z" fill="#155DEC"/>
</svg>
