<svg width="17" height="17" viewBox="0 0 17 17" fill="none" xmlns="http://www.w3.org/2000/svg">
<g clip-path="url(#clip0_6273_35790)">
<path d="M8.38477 0.680364C8.42301 0.679458 8.46126 0.678552 8.50067 0.677618C8.65709 0.676512 8.77999 0.67643 8.92517 0.737615C9.10925 0.928304 9.14144 1.13489 9.18678 1.39042C9.2356 1.72082 9.2356 1.72082 9.40318 1.99631C9.59395 2.10057 9.82229 2.12508 10.0312 2.06513C10.0945 2.01893 10.0945 2.01893 10.1504 1.9582C10.1717 1.93644 10.1931 1.91469 10.2151 1.89228C10.2369 1.8694 10.2588 1.84652 10.2812 1.82294C10.314 1.78935 10.314 1.78935 10.3474 1.75507C10.3898 1.71155 10.4321 1.66792 10.4743 1.62417C10.7765 1.31104 10.7765 1.31104 10.9873 1.30378C11.1696 1.30617 11.2932 1.36751 11.4473 1.45966C11.4714 1.473 11.4955 1.48633 11.5203 1.50007C11.6974 1.60193 11.8393 1.70804 11.9062 1.90888C11.9327 2.20857 11.8264 2.46867 11.7286 2.7486C11.6597 2.93918 11.6597 2.93918 11.6822 3.13212C11.7316 3.19107 11.7838 3.23575 11.8438 3.28388C11.8897 3.32976 11.9352 3.37599 11.9805 3.42255C12.0182 3.45974 12.0559 3.49688 12.0938 3.53388C12.2272 3.49812 12.3607 3.46229 12.4941 3.42646C12.5321 3.41629 12.5701 3.40612 12.6092 3.39564C12.6455 3.38587 12.6819 3.3761 12.7194 3.36603C12.7529 3.35703 12.7865 3.34803 12.821 3.33876C12.8812 3.32209 12.9408 3.30361 13 3.28388C13.1484 3.2683 13.2739 3.26725 13.4121 3.32685C13.5377 3.44407 13.6274 3.57654 13.7188 3.72138C13.7344 3.74619 13.7501 3.77101 13.7662 3.79658C13.8604 3.95502 13.929 4.09507 13.8949 4.28459C13.8342 4.49967 13.7185 4.61415 13.5527 4.75849C13.506 4.80058 13.4592 4.8427 13.4125 4.88483C13.2854 4.99901 13.2854 4.99901 13.2219 5.05444C13.1225 5.14216 13.1225 5.14216 13.0869 5.26472C13.098 5.30031 13.098 5.30031 13.1094 5.33661C13.1204 5.37631 13.1204 5.37631 13.1316 5.41681C13.1397 5.44513 13.1479 5.47345 13.1562 5.50263C13.1686 5.5663 13.1804 5.63011 13.1914 5.69404C13.1966 5.72312 13.2019 5.75221 13.2073 5.78217C13.2111 5.80336 13.2148 5.82455 13.2188 5.84638C13.2363 5.84908 13.2539 5.85178 13.272 5.85456C13.4782 5.88903 13.6815 5.93444 13.8848 5.9831C13.9116 5.98925 13.9385 5.9954 13.9662 6.00174C14.1975 6.0584 14.3612 6.14591 14.5 6.34638C14.5499 6.49617 14.5396 6.64848 14.541 6.80536C14.5419 6.83862 14.5428 6.87187 14.5438 6.90613C14.5453 7.1034 14.5389 7.28387 14.4062 7.44013C14.2796 7.53724 14.1679 7.5875 14.0134 7.62519C13.9751 7.63466 13.9368 7.64412 13.8973 7.65388C13.8379 7.66795 13.8379 7.66795 13.7773 7.68232C13.7176 7.69712 13.7176 7.69712 13.6566 7.71222C13.3622 7.78388 13.3622 7.78388 13.2188 7.78388C13.2155 7.81804 13.2123 7.8522 13.209 7.8874C13.1917 8.0301 13.1537 8.16441 13.1132 8.30207C13.0899 8.37976 13.0899 8.37976 13.0938 8.47138C13.14 8.52264 13.14 8.52264 13.2024 8.57123C13.3417 8.68821 13.4747 8.80983 13.6055 8.93622C13.6277 8.95673 13.6499 8.97723 13.6727 8.99836C13.819 9.14078 13.8973 9.26355 13.9062 9.47138C13.8778 9.66484 13.7741 9.82972 13.6777 9.99677C13.6663 10.017 13.6548 10.0372 13.643 10.058C13.5429 10.2243 13.4362 10.3193 13.2451 10.3753C13.0756 10.3786 12.9278 10.3357 12.7656 10.2897C12.7342 10.2812 12.7027 10.2726 12.6703 10.2638C12.5593 10.2335 12.4484 10.2029 12.3383 10.1695C12.2228 10.1346 12.1484 10.1234 12.0312 10.1589C12.0818 10.355 12.1901 10.5154 12.2949 10.6862C12.3265 10.7383 12.3582 10.7904 12.3897 10.8425C12.4122 10.8794 12.4346 10.9164 12.457 10.9533C12.5789 11.1541 12.6984 11.3562 12.818 11.5584C13.0291 11.9153 13.2426 12.2708 13.4586 12.6248C13.6378 12.9187 13.8127 13.2149 13.986 13.5122C14.1766 13.8391 14.3716 14.1631 14.5689 14.4859C14.6705 14.6523 14.7716 14.8189 14.871 14.9866C14.8884 15.0159 14.9057 15.0452 14.9236 15.0754C15.0728 15.3513 15.1057 15.6366 15.0293 15.9401C14.9366 16.2155 14.7566 16.4556 14.5 16.5964C14.2641 16.711 14.0366 16.7034 13.7785 16.7022C13.7304 16.7024 13.6822 16.7025 13.634 16.7028C13.502 16.7032 13.37 16.7031 13.2379 16.7028C13.0954 16.7027 12.9529 16.7031 12.8103 16.7034C12.5312 16.7039 12.2521 16.704 11.973 16.7038C11.7461 16.7037 11.5192 16.7037 11.2923 16.7039C11.2438 16.7039 11.2438 16.7039 11.1944 16.704C11.1288 16.704 11.0631 16.7041 10.9975 16.7041C10.3821 16.7045 9.76675 16.7044 9.15137 16.704C8.58862 16.7037 8.02588 16.7041 7.46314 16.7048C6.88509 16.7056 6.30705 16.7059 5.729 16.7057C5.40456 16.7056 5.08012 16.7057 4.75568 16.7062C4.47946 16.7067 4.20325 16.7067 3.92703 16.7061C3.78616 16.7059 3.6453 16.7058 3.50444 16.7063C3.37534 16.7067 3.24625 16.7066 3.11715 16.706C3.0706 16.7059 3.02404 16.7059 2.97748 16.7063C2.56445 16.709 2.27195 16.6455 1.97168 16.3533C1.77705 16.1467 1.68559 15.9111 1.67578 15.6276C1.6986 15.0816 2.10242 14.5904 2.37733 14.14C2.55065 13.8559 2.72119 13.5703 2.89062 13.2839C3.09742 12.9344 3.30664 12.5866 3.51804 12.2399C3.71434 11.9176 3.90676 11.593 4.09848 11.268C4.21044 11.0785 4.32339 10.89 4.44141 10.7042C4.46071 10.6737 4.48002 10.6433 4.49991 10.6119C4.53534 10.5564 4.57111 10.5011 4.60727 10.4461C4.62263 10.422 4.63799 10.398 4.65381 10.3732C4.66721 10.3528 4.68062 10.3323 4.69443 10.3112C4.72489 10.2378 4.7138 10.2011 4.6875 10.1276C4.48536 10.1465 4.30142 10.1939 4.10742 10.2526C3.56792 10.4152 3.56792 10.4152 3.34375 10.3151C3.13281 10.1348 2.89696 9.80554 2.86755 9.52546C2.86679 9.49923 2.86602 9.47301 2.86523 9.44599C2.86407 9.42001 2.8629 9.39402 2.86169 9.36725C2.89337 9.16878 3.05734 9.03015 3.19531 8.89521C3.22209 8.86843 3.22209 8.86843 3.2494 8.84111C3.3479 8.74352 3.44843 8.65546 3.55859 8.57099C3.61653 8.52375 3.61653 8.52375 3.65625 8.47138C3.66172 8.36739 3.6527 8.31849 3.625 8.22138C3.60849 8.1433 3.59223 8.06518 3.57617 7.98701C3.5613 7.91927 3.54636 7.85156 3.53125 7.78388C3.49781 7.78054 3.46438 7.77719 3.42993 7.77375C3.25087 7.75124 3.07734 7.708 2.90234 7.66474C2.85273 7.65311 2.85273 7.65311 2.80212 7.64124C2.59175 7.58937 2.42115 7.54422 2.28711 7.36396C2.2057 7.18828 2.21303 7.00906 2.21289 6.81904C2.21232 6.77813 2.21232 6.77813 2.21173 6.73639C2.21132 6.55407 2.21553 6.38267 2.31982 6.2259C2.6269 5.95602 3.1417 5.92446 3.53125 5.84638C3.54632 5.77804 3.56127 5.70968 3.57617 5.6413C3.58451 5.60323 3.59285 5.56517 3.60144 5.52595C3.60922 5.48731 3.61699 5.44868 3.625 5.40888C3.63394 5.37413 3.64288 5.33938 3.65209 5.30357C3.66782 5.18684 3.66782 5.18684 3.59145 5.09794C3.56036 5.06731 3.52861 5.03736 3.49634 5.008C3.47972 4.99189 3.4631 4.97577 3.44598 4.95917C3.39293 4.90793 3.3391 4.85761 3.28516 4.80732C3.2316 4.75642 3.17823 4.70536 3.125 4.65413C3.09187 4.62235 3.05852 4.59079 3.02494 4.55949C2.90508 4.44606 2.87008 4.36546 2.86401 4.20246C2.86607 4.02017 2.92741 3.89689 3.01953 3.74286C3.03286 3.71875 3.0462 3.69465 3.05994 3.66981C3.15681 3.50136 3.25995 3.37266 3.4375 3.28388C3.7447 3.24288 4.02482 3.36151 4.31 3.46149C4.50254 3.53223 4.50254 3.53223 4.69549 3.50283C4.75157 3.45435 4.79678 3.40357 4.84375 3.34638C4.8703 3.32809 4.89684 3.3098 4.92419 3.29096C5.00375 3.23067 5.04894 3.18627 5.09375 3.09638C5.08317 2.94255 5.04097 2.80627 4.99097 2.66105C4.78148 2.05128 4.78148 2.05128 4.86962 1.84972C4.9757 1.66699 5.10228 1.57308 5.28516 1.47138C5.31159 1.45645 5.33802 1.44153 5.36526 1.42615C5.53194 1.33667 5.67204 1.27777 5.86487 1.29084C6.04084 1.34969 6.16718 1.47441 6.29492 1.60419C6.3097 1.61918 6.32448 1.63416 6.33971 1.6496C6.4458 1.758 6.54739 1.86964 6.64563 1.98517C6.67877 2.02372 6.71405 2.06043 6.75 2.09638C6.9247 2.08499 7.09151 2.03555 7.26025 1.99079C7.34375 1.97138 7.34375 1.97138 7.4375 1.97138C7.4406 1.93859 7.4437 1.9058 7.4469 1.87201C7.47096 1.68128 7.51998 1.497 7.56836 1.31122C7.57708 1.27517 7.5858 1.23912 7.59479 1.20197C7.65039 0.989147 7.69822 0.856719 7.875 0.72138C8.03908 0.666688 8.21302 0.681708 8.38477 0.680364ZM8.1875 1.25263C8.18042 1.28021 8.17334 1.30779 8.16604 1.33621C8.1395 1.43906 8.11275 1.54184 8.08584 1.64459C8.07426 1.68897 8.06278 1.73337 8.05138 1.7778C8.03494 1.84186 8.01817 1.90583 8.00134 1.96979C7.99136 2.00825 7.98138 2.04671 7.97109 2.08633C7.93925 2.18473 7.89843 2.25934 7.84375 2.34638C7.84375 2.36701 7.84375 2.38763 7.84375 2.40888C7.66234 2.48488 7.47466 2.53315 7.28516 2.58466C7.24894 2.59481 7.21273 2.60496 7.17542 2.61542C6.71134 2.74165 6.71134 2.74165 6.47205 2.61066C6.22389 2.43893 6.03254 2.18182 5.83789 1.9538C5.7859 1.90301 5.7859 1.90301 5.72461 1.90888C5.62472 1.95454 5.53186 2.00888 5.4375 2.06513C5.48205 2.31375 5.54884 2.55105 5.62665 2.79114C5.69113 3.00373 5.70779 3.18779 5.62305 3.39716C5.55204 3.4842 5.47313 3.55226 5.38721 3.62433C5.26746 3.72979 5.15813 3.84555 5.04736 3.96027C4.90965 4.08922 4.8059 4.1093 4.62154 4.10555C4.45217 4.08835 4.29284 4.03552 4.13086 3.98505C4.0624 3.96385 3.99384 3.94297 3.92517 3.92243C3.89525 3.9131 3.86533 3.90377 3.8345 3.89416C3.74216 3.8761 3.6833 3.88158 3.59375 3.90888C3.54662 3.95377 3.54662 3.95377 3.51758 4.0124C3.50666 4.03097 3.49574 4.04954 3.4845 4.06867C3.46261 4.12784 3.46261 4.12784 3.4898 4.18435C3.54242 4.27102 3.60603 4.33328 3.67871 4.404C3.70784 4.43264 3.73696 4.46128 3.76697 4.49079C3.79775 4.5208 3.82855 4.55078 3.85938 4.58075C3.91978 4.63949 3.97996 4.69843 4.04004 4.75751C4.06681 4.78356 4.09358 4.8096 4.12115 4.83643C4.23787 4.96388 4.26263 5.05639 4.25848 5.23096C4.2413 5.40141 4.19398 5.5645 4.14844 5.72919C4.13436 5.78345 4.13436 5.78345 4.12 5.83881C4.11053 5.8737 4.10106 5.90858 4.09131 5.94452C4.07854 5.99167 4.07854 5.99167 4.06552 6.03977C4.01551 6.16799 3.95618 6.25715 3.83334 6.32291C3.6082 6.39763 3.38156 6.45736 3.15039 6.51044C3.09682 6.52301 3.09682 6.52301 3.04218 6.53583C2.95524 6.5562 2.86825 6.57632 2.78125 6.59638C2.78125 6.74076 2.78125 6.88513 2.78125 7.03388C2.88343 7.05932 2.88343 7.05932 2.98767 7.08527C3.05398 7.10197 3.12027 7.11875 3.18656 7.13554C3.23246 7.14712 3.27838 7.1586 3.32432 7.17C3.39055 7.18644 3.45669 7.20321 3.52283 7.22004C3.56259 7.23002 3.60236 7.24 3.64333 7.25029C3.74352 7.28184 3.81808 7.32189 3.90625 7.37763C3.92688 7.37763 3.9475 7.37763 3.96875 7.37763C4.01257 7.48261 4.04787 7.58637 4.07727 7.69623C4.08539 7.72633 4.0935 7.75642 4.10187 7.78742C4.11015 7.81848 4.11842 7.84954 4.12695 7.88154C4.14357 7.94347 4.16021 8.0054 4.17688 8.06733C4.18417 8.09464 4.19147 8.12196 4.19898 8.15011C4.21437 8.20559 4.23179 8.26051 4.25 8.31513C4.25635 8.37922 4.25635 8.37922 4.25781 8.4499C4.25862 8.47298 4.25942 8.49606 4.26025 8.51984C4.23515 8.70726 4.12546 8.82619 3.99414 8.9538C3.97899 8.96861 3.96385 8.98341 3.94824 8.99866C3.8402 9.10343 3.72906 9.20417 3.61426 9.30146C3.56335 9.34564 3.51582 9.39191 3.46875 9.44013C3.50718 9.56725 3.55503 9.67136 3.625 9.78388C3.69924 9.76575 3.77346 9.74752 3.84766 9.72919C3.87019 9.72364 3.89273 9.71809 3.91595 9.71238C4.06523 9.67516 4.21218 9.63327 4.35938 9.58857C4.60983 9.51656 4.76428 9.49905 5 9.62763C5.04125 9.62763 5.0825 9.62763 5.125 9.62763C5.18347 9.55723 5.18347 9.55723 5.23291 9.46357C5.25225 9.42973 5.27158 9.39589 5.2915 9.36103C5.31132 9.32526 5.33114 9.28949 5.35156 9.25263C5.37187 9.21686 5.39217 9.18109 5.41309 9.14423C5.46331 9.05559 5.51309 8.96673 5.5625 8.87763C5.54805 8.85326 5.53359 8.82888 5.5187 8.80377C5.14689 8.17246 4.92475 7.5696 4.92578 6.8288C4.9258 6.80821 4.92582 6.78763 4.92583 6.76642C4.92938 5.82963 5.30089 4.99848 5.94727 4.32294C6.63847 3.65501 7.53394 3.36063 8.48183 3.36658C8.75853 3.37223 9.01367 3.39923 9.28125 3.47138C9.31944 3.48165 9.35763 3.49192 9.39697 3.50251C9.89593 3.65334 10.3281 3.91039 10.7188 4.25263C10.7443 4.27503 10.7699 4.29742 10.7963 4.3205C11.3687 4.85954 11.7829 5.67658 11.8163 6.46865C11.8386 7.39569 11.6612 8.08819 11.1875 8.87763C11.4195 9.26435 11.4195 9.26435 11.6562 9.65888C11.7725 9.61242 11.7725 9.61242 11.8867 9.56122C12.0625 9.50261 12.224 9.53679 12.397 9.58967C12.4353 9.60109 12.4737 9.61251 12.5132 9.62427C12.5531 9.63643 12.5929 9.64862 12.6328 9.66083C12.7117 9.68495 12.7906 9.70869 12.8696 9.73224C12.9218 9.7482 12.9218 9.7482 12.975 9.76448C13.0644 9.79217 13.0644 9.79217 13.1562 9.75263C13.1958 9.70625 13.1958 9.70625 13.2266 9.64911C13.2377 9.63054 13.2488 9.61197 13.2603 9.59284C13.2873 9.51679 13.2767 9.48458 13.25 9.40888C13.2066 9.35219 13.2066 9.35219 13.151 9.29963C13.1308 9.27959 13.1106 9.25955 13.0898 9.2389C13.0579 9.20799 13.0579 9.20799 13.0254 9.17646C12.9944 9.14573 12.9944 9.14573 12.9628 9.11439C12.8702 9.02323 12.7772 8.93525 12.6759 8.85383C12.5727 8.766 12.54 8.69391 12.5 8.56513C12.4883 8.39071 12.5198 8.25225 12.5723 8.08857C12.5869 8.04171 12.6014 7.99483 12.616 7.94794C12.623 7.9253 12.63 7.90266 12.6373 7.87934C12.6699 7.76881 12.6938 7.65607 12.7167 7.54316C12.7749 7.41779 12.8726 7.34193 12.998 7.29018C13.0653 7.26919 13.1326 7.25159 13.2012 7.23505C13.2255 7.22874 13.2499 7.22243 13.275 7.21593C13.3252 7.20296 13.3754 7.19019 13.4256 7.17762C13.5179 7.15437 13.6098 7.12972 13.7016 7.10489C13.7906 7.08095 13.8797 7.05746 13.9688 7.03388C13.9688 6.88951 13.9688 6.74513 13.9688 6.59638C13.8987 6.57978 13.8287 6.56319 13.7566 6.54609C13.6883 6.52963 13.6201 6.51304 13.5518 6.49644C13.5046 6.48503 13.4574 6.47376 13.4101 6.46262C13.3419 6.44653 13.2739 6.42995 13.2058 6.41327C13.1849 6.40845 13.164 6.40363 13.1425 6.39866C13.0012 6.36338 12.8953 6.31191 12.7812 6.22138C12.7406 6.13515 12.713 6.0619 12.6875 5.97138C12.6794 5.94463 12.6713 5.91787 12.6629 5.89031C12.6368 5.80238 12.6122 5.71413 12.5879 5.62568C12.5751 5.58093 12.5751 5.58093 12.5621 5.53528C12.4935 5.28608 12.4618 5.11099 12.5938 4.87763C12.6569 4.80382 12.6569 4.80382 12.7284 4.73383C12.7543 4.70821 12.7802 4.68259 12.8069 4.65619C12.8339 4.63001 12.8609 4.60383 12.8887 4.57685C12.9155 4.55042 12.9424 4.524 12.97 4.49677C13.02 4.4476 13.0701 4.39854 13.1203 4.3496C13.1848 4.28649 13.2488 4.22283 13.3125 4.15888C13.2506 4.06607 13.1887 3.97325 13.125 3.87763C12.9668 3.8947 12.823 3.93148 12.6711 3.97835C12.1107 4.15096 12.1107 4.15096 11.9062 4.09638C11.7193 3.99442 11.5784 3.84032 11.4297 3.69013C11.4042 3.66491 11.3788 3.6397 11.3525 3.61371C11.3282 3.5893 11.3039 3.56489 11.2788 3.53974C11.2568 3.51762 11.2347 3.49551 11.212 3.47272C11.0894 3.33235 11.0812 3.21834 11.0846 3.03654C11.1006 2.86847 11.1526 2.71318 11.2051 2.55341C11.2263 2.48817 11.2472 2.42282 11.2677 2.35737C11.277 2.32895 11.2864 2.30054 11.296 2.27126C11.3145 2.18043 11.3081 2.12214 11.2812 2.03388C11.1907 1.95285 11.091 1.90888 10.9688 1.90888C10.9251 1.94818 10.9251 1.94818 10.8828 2.00458C10.7653 2.14448 10.64 2.27504 10.5117 2.40497C10.4915 2.4258 10.4714 2.44663 10.4506 2.46809C10.3074 2.61236 10.2158 2.68361 10.0076 2.69855C9.86417 2.69469 9.73431 2.65912 9.59766 2.61786C9.57306 2.61063 9.54846 2.6034 9.52311 2.59595C9.47464 2.58168 9.4262 2.56731 9.37779 2.55283C9.32292 2.53691 9.26752 2.52284 9.21204 2.50922C9.18525 2.50253 9.15846 2.49585 9.13086 2.48896C9.09769 2.48128 9.09769 2.48128 9.06384 2.47346C8.92657 2.4018 8.85505 2.28347 8.80356 2.14291C8.78937 2.08381 8.78937 2.08381 8.7749 2.0235C8.76965 2.00234 8.76439 1.98118 8.75898 1.95937C8.74248 1.89252 8.72668 1.82552 8.71094 1.75849C8.6946 1.69094 8.67813 1.62342 8.66155 1.55593C8.6467 1.49514 8.63223 1.43426 8.61777 1.37338C8.60276 1.28769 8.60276 1.28769 8.5625 1.25263C8.49939 1.25037 8.4362 1.25001 8.37305 1.25068C8.32126 1.2511 8.32126 1.2511 8.26843 1.25153C8.24172 1.25189 8.21502 1.25226 8.1875 1.25263ZM6.25 4.81513C6.22712 4.83725 6.20424 4.85936 6.18066 4.88215C5.69464 5.38649 5.4551 6.12136 5.45898 6.80927C5.45916 6.84218 5.45934 6.87509 5.45952 6.909C5.46711 7.39737 5.58715 7.91227 5.875 8.31513C5.9705 8.20109 6.04816 8.08385 6.12341 7.95563C6.13497 7.93603 6.14653 7.91643 6.15844 7.89624C6.18328 7.8541 6.20807 7.81193 6.23282 7.76973C6.29899 7.6569 6.36557 7.54431 6.43213 7.43171C6.44566 7.40879 6.4592 7.38588 6.47314 7.36227C6.62624 7.10334 6.78237 6.84629 6.93922 6.58963C7.03851 6.427 7.13705 6.26412 7.23267 6.09931C7.24927 6.0709 7.26586 6.04249 7.28297 6.01322C7.31289 5.96183 7.34252 5.91028 7.37176 5.8585C7.52825 5.59076 7.72281 5.38883 8.01624 5.27912C8.33518 5.20144 8.68136 5.2097 8.96875 5.37763C9.19686 5.53682 9.32532 5.7483 9.46289 5.98505C9.48571 6.02356 9.50858 6.06205 9.53148 6.10051C9.57984 6.1819 9.62794 6.26343 9.67583 6.3451C9.75005 6.47164 9.82497 6.59777 9.90002 6.72382C9.99996 6.89174 10.0997 7.05974 10.1993 7.22785C10.3363 7.45897 10.4736 7.68995 10.6113 7.9206C10.6309 7.95348 10.6504 7.98636 10.6705 8.02023C10.6884 8.05011 10.7063 8.08 10.7247 8.11078C10.7403 8.13682 10.7558 8.16286 10.7718 8.18969C10.8117 8.25617 10.8117 8.25617 10.875 8.31513C11.2702 7.67109 11.403 6.88946 11.2285 6.15107C11.0373 5.42257 10.5897 4.73944 9.9375 4.34638C8.68433 3.63134 7.27768 3.80333 6.25 4.81513ZM7.93115 5.99531C7.90929 6.03128 7.88801 6.06761 7.86719 6.10419C7.85464 6.12517 7.8421 6.14615 7.82917 6.16776C7.79935 6.2178 7.7698 6.268 7.74043 6.3183C7.67885 6.42369 7.6165 6.52861 7.55408 6.63349C7.47806 6.76128 7.4021 6.8891 7.32639 7.01707C7.16211 7.29463 6.99605 7.57101 6.82812 7.84638C6.63837 8.15757 6.45127 8.47023 6.26562 8.78388C6.06936 9.11548 5.87116 9.44579 5.67056 9.77479C5.49173 10.0682 5.31564 10.3632 5.14062 10.6589C4.94436 10.9905 4.74616 11.3208 4.54556 11.6498C4.36673 11.9432 4.19064 12.2382 4.01562 12.5339C3.82998 12.8475 3.64286 13.1602 3.45312 13.4714C3.23358 13.8316 3.01741 14.1937 2.80255 14.5566C2.7909 14.5763 2.77925 14.596 2.76725 14.6163C2.74419 14.6552 2.72114 14.6942 2.69812 14.7332C2.63795 14.8349 2.57727 14.9363 2.51587 15.0372C2.50308 15.0583 2.49029 15.0794 2.47712 15.1011C2.45274 15.1413 2.42827 15.1814 2.40368 15.2214C2.29511 15.4004 2.22916 15.5326 2.25818 15.7416C2.30065 15.8769 2.39168 15.9762 2.5 16.0651C2.62147 16.1243 2.71945 16.1355 2.85389 16.1358C2.894 16.136 2.9341 16.1362 2.97543 16.1364C3.01987 16.1364 3.06431 16.1363 3.10876 16.1362C3.15602 16.1363 3.20328 16.1365 3.25054 16.1367C3.38047 16.1371 3.5104 16.1372 3.64032 16.1372C3.78043 16.1372 3.92054 16.1376 4.06064 16.138C4.36701 16.1387 4.67337 16.139 4.97973 16.1391C5.17101 16.1392 5.36228 16.1394 5.55355 16.1396C6.08308 16.1403 6.61262 16.1408 7.14215 16.1409C7.19298 16.1409 7.19298 16.1409 7.24484 16.1409C7.31354 16.1409 7.38224 16.1409 7.45094 16.1409C7.5021 16.1409 7.5021 16.1409 7.55428 16.1409C7.6055 16.1409 7.6055 16.1409 7.65775 16.1409C8.21117 16.1411 8.76458 16.1419 9.318 16.1431C9.88612 16.1443 10.4542 16.1449 11.0224 16.1449C11.3414 16.1449 11.6604 16.1452 11.9794 16.1461C12.251 16.1468 12.5226 16.1471 12.7942 16.1466C12.9328 16.1464 13.0713 16.1464 13.2099 16.1471C13.3368 16.1477 13.4637 16.1477 13.5906 16.147C13.6365 16.1469 13.6823 16.1471 13.7282 16.1475C13.9803 16.1498 14.182 16.1482 14.375 15.9714C14.4747 15.8524 14.5042 15.7188 14.5 15.5651C14.4366 15.3495 14.3243 15.1695 14.2061 14.9796C14.1461 14.883 14.0868 14.7861 14.0273 14.6892C14.0149 14.6689 14.0024 14.6486 13.9896 14.6277C13.8499 14.4 13.714 14.1701 13.5781 13.9401C13.3914 13.6244 13.2028 13.3099 13.0117 12.9968C12.8214 12.6848 12.6352 12.3707 12.4512 12.055C12.288 11.7753 12.1219 11.4977 11.9531 11.2214C11.7729 10.9263 11.596 10.6295 11.4219 10.3308C11.2384 10.016 11.0517 9.70349 10.8619 9.39249C10.6519 9.04823 10.4455 8.70191 10.2401 8.35489C10.2167 8.31539 10.1933 8.27589 10.1699 8.23639C10.1584 8.21699 10.1469 8.19758 10.1351 8.17759C10.0543 8.04121 9.97291 7.90521 9.89124 7.76935C9.79545 7.61003 9.70034 7.45032 9.60583 7.29023C9.27776 6.73377 9.27776 6.73377 8.94141 6.18232C8.92713 6.15892 8.91286 6.13553 8.89816 6.11143C8.80164 5.95801 8.7092 5.8432 8.53125 5.78388C8.46009 5.77539 8.46009 5.77539 8.38281 5.77411C8.34438 5.77236 8.34438 5.77236 8.30518 5.77057C8.14049 5.79593 8.03243 5.86817 7.93115 5.99531Z" fill="#155DEC"/>
<path d="M8.87562 8.28388C9.05166 8.44298 9.17011 8.62276 9.19694 8.86276C9.20048 8.95356 9.20115 9.04395 9.20075 9.13483C9.20096 9.16916 9.20118 9.20349 9.2014 9.23886C9.20197 9.35181 9.20185 9.46475 9.20167 9.5777C9.20181 9.65655 9.20198 9.73539 9.20217 9.81423C9.20245 9.97927 9.20238 10.1443 9.20206 10.3094C9.2017 10.4995 9.20214 10.6897 9.20298 10.8799C9.20376 11.0636 9.20383 11.2473 9.20363 11.431C9.20363 11.5089 9.20382 11.5867 9.2042 11.6645C9.20467 11.7735 9.20434 11.8824 9.2038 11.9914C9.2041 12.0233 9.2044 12.0552 9.20472 12.0881C9.20221 12.3324 9.14901 12.5227 8.99281 12.7136C8.77111 12.895 8.5931 12.9836 8.3047 12.9802C8.07891 12.9569 7.89566 12.865 7.75062 12.6901C7.72806 12.665 7.7055 12.6399 7.68226 12.614C7.54706 12.4228 7.55384 12.2282 7.55404 12.003C7.55383 11.9688 7.55362 11.9345 7.55341 11.8992C7.55281 11.786 7.55269 11.6729 7.55262 11.5598C7.55242 11.4809 7.55221 11.402 7.55199 11.3232C7.55162 11.1579 7.5515 10.9926 7.55154 10.8273C7.55158 10.6369 7.55092 10.4465 7.54993 10.2561C7.54901 10.0723 7.54879 9.88847 7.54883 9.70463C7.54875 9.62674 7.54848 9.54884 7.548 9.47095C7.54738 9.36176 7.54756 9.2526 7.54794 9.14341C7.54759 9.11151 7.54724 9.07962 7.54688 9.04676C7.54901 8.80079 7.59736 8.58179 7.75636 8.38837C7.7796 8.36936 7.80285 8.35035 7.82679 8.33076C7.86154 8.30127 7.86154 8.30127 7.89698 8.27119C8.18845 8.07065 8.58891 8.08125 8.87562 8.28388ZM8.12562 8.87763C8.10733 8.98518 8.10919 9.09146 8.11044 9.20033C8.11032 9.23277 8.1102 9.2652 8.11008 9.29862C8.10985 9.40574 8.11052 9.51283 8.11122 9.61994C8.11129 9.69439 8.11132 9.76883 8.1113 9.84328C8.1114 9.99924 8.11192 10.1552 8.11276 10.3112C8.11382 10.5112 8.11406 10.7112 8.11401 10.9113C8.11403 11.065 8.11437 11.2187 8.11482 11.3724C8.11502 11.4461 8.11515 11.5199 8.11519 11.5937C8.11533 11.6967 8.11588 11.7997 8.11654 11.9027C8.11651 11.9333 8.11649 11.9639 8.11646 11.9954C8.11672 12.0234 8.11699 12.0515 8.11726 12.0805C8.11737 12.1048 8.11747 12.1291 8.11758 12.1542C8.12674 12.2307 8.14829 12.2808 8.18812 12.3464C8.2682 12.4064 8.30787 12.4092 8.40882 12.403C8.50246 12.3771 8.53669 12.3598 8.59437 12.2839C8.63069 12.2113 8.62978 12.1689 8.63022 12.088C8.63044 12.06 8.63067 12.032 8.6309 12.0031C8.63098 11.9723 8.63107 11.9415 8.63115 11.9098C8.63136 11.8774 8.63156 11.8451 8.63178 11.8117C8.63239 11.7043 8.63276 11.5968 8.63307 11.4893C8.6332 11.4527 8.63332 11.416 8.63345 11.3783C8.63411 11.1844 8.63455 10.9905 8.63485 10.7966C8.63519 10.5961 8.63627 10.3956 8.63751 10.1951C8.63832 10.0412 8.63859 9.88722 8.6387 9.73326C8.63885 9.65933 8.63921 9.58541 8.63979 9.51149C8.64055 9.40809 8.64053 9.30472 8.64031 9.20132C8.64091 9.15541 8.64091 9.15541 8.64152 9.10858C8.64048 8.97312 8.63821 8.89816 8.56611 8.78057C8.49584 8.71706 8.46895 8.70003 8.37562 8.70185C8.34468 8.70125 8.34468 8.70125 8.31312 8.70063C8.21101 8.73453 8.1817 8.78628 8.12562 8.87763Z" fill="#155DEC"/>
<path d="M8.84717 13.6091C9.03855 13.7616 9.16325 13.9453 9.19934 14.1899C9.20958 14.4495 9.14386 14.6496 8.98828 14.8562C8.80713 15.0373 8.62183 15.1002 8.36914 15.1081C8.13354 15.1057 7.96215 15.0452 7.78418 14.8899C7.62376 14.7184 7.55704 14.5364 7.54688 14.3034C7.55482 14.0643 7.62568 13.867 7.79102 13.6921C8.08912 13.4214 8.50944 13.3904 8.84717 13.6091ZM8.22656 14.0827C8.14677 14.1559 8.14677 14.1559 8.11914 14.2663C8.11303 14.3811 8.11303 14.3811 8.1875 14.4695C8.27406 14.5393 8.27406 14.5393 8.37305 14.5534C8.50157 14.5267 8.54795 14.4846 8.62305 14.3777C8.63339 14.2651 8.63339 14.2651 8.5918 14.1589C8.52352 14.0798 8.52352 14.0798 8.43555 14.0339C8.31237 14.0234 8.31237 14.0234 8.22656 14.0827Z" fill="#155DEC"/>
</g>
<defs>
<clipPath id="clip0_6273_35790">
<rect width="16" height="16" fill="white" transform="translate(0.375 0.690186)"/>
</clipPath>
</defs>
</svg>
