<svg width="21" height="20" viewBox="0 0 21 20" fill="none" xmlns="http://www.w3.org/2000/svg">
<g clip-path="url(#clip0_7789_30908)">
<path d="M12.5669 2.00624C12.4701 1.58864 12.229 1.21864 11.886 0.961532C11.543 0.704426 11.1202 0.57674 10.6922 0.601005C10.2642 0.625271 9.85853 0.799928 9.54678 1.09416C9.23503 1.38839 9.03723 1.78328 8.98828 2.20914C8.93932 2.63501 9.04237 3.06448 9.27923 3.42177C9.51609 3.77907 9.87153 4.04121 10.2828 4.16195C10.6942 4.28269 11.1349 4.25427 11.5273 4.0817C11.9197 3.90913 12.2385 3.6035 12.4275 3.21874C13.5781 3.48075 14.6477 4.01872 15.5441 4.78624C16.4404 5.55377 17.1366 6.52781 17.5725 7.62437L18.6819 7.18812C18.1684 5.88749 17.3415 4.73389 16.2746 3.82987C15.2078 2.92585 13.9342 2.29941 12.5669 2.00624ZM10.8032 3.02999C10.722 3.0326 10.6411 3.01886 10.5653 2.98958C10.4895 2.96031 10.4203 2.91609 10.362 2.85957C10.3036 2.80304 10.2572 2.73536 10.2255 2.66055C10.1938 2.58573 10.1775 2.50531 10.1775 2.42406C10.1775 2.3428 10.1938 2.26238 10.2255 2.18757C10.2572 2.11275 10.3036 2.04507 10.362 1.98855C10.4203 1.93202 10.4895 1.88781 10.5653 1.85853C10.6411 1.82925 10.722 1.81551 10.8032 1.81812C10.964 1.81812 11.1182 1.88199 11.2319 1.99569C11.3456 2.10938 11.4094 2.26358 11.4094 2.42437C11.4094 2.58516 11.3456 2.73936 11.2319 2.85305C11.1182 2.96675 10.964 3.02999 10.8032 3.02999ZM8.1363 3.53374L7.68818 2.42499C6.38755 2.93853 5.23395 3.76546 4.32993 4.83227C3.4259 5.89908 2.79947 7.17273 2.5063 8.53999C2.0887 8.63677 1.7187 8.87794 1.46159 9.22095C1.20448 9.56396 1.0768 9.98676 1.10106 10.4147C1.12533 10.8427 1.29999 11.2484 1.59422 11.5601C1.88844 11.8719 2.28333 12.0697 2.7092 12.1186C3.13507 12.1676 3.56454 12.0646 3.92183 11.8277C4.27912 11.5908 4.54127 11.2354 4.66201 10.8241C4.78275 10.4128 4.75433 9.97201 4.58176 9.57961C4.40918 9.18721 4.10356 8.86837 3.7188 8.67937C3.98189 7.52741 4.52161 6.45688 5.29129 5.56033C6.06097 4.66378 7.03746 3.9682 8.1363 3.53374ZM2.9238 10.91C2.84419 10.91 2.76535 10.8943 2.6918 10.8638C2.61825 10.8334 2.55141 10.7887 2.49512 10.7324C2.43882 10.6761 2.39417 10.6093 2.3637 10.5357C2.33323 10.4622 2.31755 10.3834 2.31755 10.3037C2.31755 10.2241 2.33323 10.1453 2.3637 10.0717C2.39417 9.99819 2.43882 9.93136 2.49512 9.87506C2.55141 9.81876 2.61825 9.77411 2.6918 9.74364C2.76535 9.71317 2.84419 9.69749 2.9238 9.69749C3.08459 9.69749 3.23879 9.76137 3.35248 9.87506C3.46618 9.98875 3.53005 10.143 3.53005 10.3037C3.53005 10.4645 3.46618 10.6187 3.35248 10.7324C3.23879 10.8461 3.08459 10.91 2.9238 10.91ZM10.8032 16.3644C10.4651 16.3655 10.134 16.4608 9.84702 16.6396C9.56008 16.8185 9.32868 17.0738 9.1788 17.3769C8.02803 17.1149 6.95827 16.5769 6.06182 15.8092C5.16536 15.0416 4.46913 14.0674 4.03318 12.9706L2.92443 13.4187C3.43963 14.7216 4.26933 15.8766 5.33949 16.7808C6.40965 17.685 7.68699 18.3102 9.05755 18.6006C9.13628 18.9343 9.30771 19.2389 9.55208 19.4794C9.79645 19.7198 10.1038 19.8863 10.4387 19.9596C10.7736 20.0329 11.1224 20.0101 11.4449 19.8938C11.7674 19.7774 12.0504 19.5723 12.2614 19.3021C12.4723 19.0318 12.6026 18.7075 12.6372 18.3664C12.6717 18.0253 12.6092 17.6814 12.4568 17.3743C12.3044 17.0672 12.0683 16.8095 11.7757 16.6308C11.4831 16.4521 11.146 16.3597 10.8032 16.3644ZM10.8032 18.7887C10.6424 18.7887 10.4882 18.7249 10.3745 18.6112C10.2608 18.4975 10.1969 18.3433 10.1969 18.1825C10.1969 18.0217 10.2608 17.8675 10.3745 17.7538C10.4882 17.6401 10.6424 17.5762 10.8032 17.5762C10.964 17.5762 11.1182 17.6401 11.2319 17.7538C11.3456 17.8675 11.4094 18.0217 11.4094 18.1825C11.4094 18.3433 11.3456 18.4975 11.2319 18.6112C11.1182 18.7249 10.964 18.7887 10.8032 18.7887ZM20.5 10.3031C20.5012 9.97861 20.4154 9.65972 20.2517 9.37951C20.088 9.09931 19.8524 8.86801 19.5692 8.70959C19.2859 8.55118 18.9655 8.47142 18.6411 8.47861C18.3166 8.48579 18 8.57964 17.7241 8.75043C17.4482 8.92122 17.223 9.16272 17.0718 9.44989C16.9207 9.73706 16.8492 10.0594 16.8646 10.3836C16.8801 10.7077 16.982 11.0218 17.1598 11.2933C17.3376 11.5648 17.5847 11.7837 17.8757 11.9275C17.6136 13.0782 17.0755 14.1478 16.3079 15.0441C15.5403 15.9405 14.5661 16.6366 13.4694 17.0725L13.9182 18.1819C15.221 17.6667 16.376 16.837 17.2802 15.7668C18.1844 14.6966 18.8096 13.4193 19.1 12.0487C19.4946 11.9554 19.8466 11.733 20.1003 11.4167C20.3539 11.1004 20.4946 10.7085 20.5 10.3031ZM18.6813 10.9094C18.5205 10.9094 18.3663 10.8455 18.2526 10.7318C18.1389 10.6181 18.0751 10.4639 18.0751 10.3031C18.0751 10.1423 18.1389 9.98813 18.2526 9.87444C18.3663 9.76074 18.5205 9.69687 18.6813 9.69687C18.8421 9.69687 18.9963 9.76074 19.11 9.87444C19.2237 9.98813 19.2875 10.1423 19.2875 10.3031C19.2875 10.4639 19.2237 10.6181 19.11 10.7318C18.9963 10.8455 18.8421 10.9094 18.6813 10.9094Z" fill="#4F4F4F"/>
<path d="M12.4937 10.2187C12.8385 9.88204 13.0752 9.45019 13.1734 8.97835C13.2717 8.50651 13.2271 8.0161 13.0453 7.56974C12.8635 7.12338 12.5528 6.74133 12.1529 6.47238C11.7529 6.20343 11.2819 6.05978 10.8 6.05978C10.318 6.05978 9.84699 6.20343 9.44705 6.47238C9.04712 6.74133 8.73643 7.12338 8.55464 7.56974C8.37286 8.0161 8.32825 8.50651 8.42649 8.97835C8.52473 9.45019 8.76138 9.88204 9.10621 10.2187C8.69585 10.4961 8.35971 10.8698 8.1272 11.3072C7.89469 11.7445 7.77289 12.2322 7.77246 12.7275V13.9394H13.8331V12.7269C13.832 12.2311 13.7094 11.7431 13.4759 11.3057C13.2424 10.8683 12.9051 10.4955 12.4937 10.2187ZM9.59059 8.48437C9.59059 8.32514 9.62195 8.16747 9.68288 8.02037C9.74382 7.87326 9.83313 7.73959 9.94572 7.627C10.0583 7.51441 10.192 7.4251 10.3391 7.36417C10.4862 7.30323 10.6439 7.27187 10.8031 7.27187C10.9623 7.27187 11.12 7.30323 11.2671 7.36417C11.4142 7.4251 11.5479 7.51441 11.6605 7.627C11.773 7.73959 11.8624 7.87326 11.9233 8.02037C11.9842 8.16747 12.0156 8.32514 12.0156 8.48437C12.0156 8.80595 11.8878 9.11435 11.6605 9.34174C11.4331 9.56913 11.1247 9.69687 10.8031 9.69687C10.4815 9.69687 10.1731 9.56913 9.94572 9.34174C9.71833 9.11435 9.59059 8.80595 9.59059 8.48437ZM8.98434 12.7269C8.97986 12.4852 9.02358 12.2451 9.11295 12.0206C9.20233 11.796 9.33556 11.5916 9.50486 11.4191C9.67416 11.2466 9.87614 11.1096 10.099 11.0161C10.3218 10.9226 10.5611 10.8744 10.8028 10.8744C11.0445 10.8744 11.2837 10.9226 11.5066 11.0161C11.7294 11.1096 11.9314 11.2466 12.1007 11.4191C12.27 11.5916 12.4032 11.796 12.4926 12.0206C12.582 12.2451 12.6257 12.4852 12.6212 12.7269H8.98434Z" fill="#4F4F4F"/>
</g>
<defs>
<clipPath id="clip0_7789_30908">
<rect width="20" height="20" fill="white" transform="translate(0.5)"/>
</clipPath>
</defs>
</svg>
