<svg width="22" height="22" viewBox="0 0 22 22" fill="none" xmlns="http://www.w3.org/2000/svg">
<path d="M9.5209 1.6239C9.70834 1.41799 9.93671 1.25349 10.1914 1.14092C10.4461 1.02836 10.7215 0.970215 10.9999 0.970215C11.2783 0.970215 11.5537 1.02836 11.8084 1.14092C12.0631 1.25349 12.2915 1.41799 12.4789 1.6239L13.4989 2.7439C13.6969 2.96132 13.9405 3.13238 14.2122 3.24491C14.4839 3.35743 14.7771 3.40864 15.0709 3.3949L16.5839 3.3249C16.8619 3.3118 17.1396 3.35688 17.3992 3.45725C17.6589 3.55762 17.8947 3.71108 18.0916 3.9078C18.2885 4.10452 18.4422 4.34017 18.5428 4.59969C18.6434 4.8592 18.6887 5.13686 18.6759 5.4149L18.6049 6.9289C18.5912 7.22268 18.6424 7.51586 18.7549 7.78758C18.8674 8.0593 19.0385 8.30286 19.2559 8.5009L20.3759 9.5209C20.5818 9.70834 20.7463 9.93671 20.8589 10.1914C20.9714 10.4461 21.0296 10.7215 21.0296 10.9999C21.0296 11.2783 20.9714 11.5537 20.8589 11.8084C20.7463 12.0631 20.5818 12.2915 20.3759 12.4789L19.2559 13.4989C19.0385 13.6969 18.8674 13.9405 18.7549 14.2122C18.6424 14.4839 18.5912 14.7771 18.6049 15.0709L18.6749 16.5839C18.688 16.8619 18.6429 17.1396 18.5426 17.3992C18.4422 17.6589 18.2887 17.8947 18.092 18.0916C17.8953 18.2885 17.6596 18.4422 17.4001 18.5428C17.1406 18.6434 16.8629 18.6887 16.5849 18.6759L15.0709 18.6049C14.7771 18.5912 14.4839 18.6424 14.2122 18.7549C13.9405 18.8674 13.6969 19.0385 13.4989 19.2559L12.4789 20.3759C12.2915 20.5818 12.0631 20.7463 11.8084 20.8589C11.5537 20.9714 11.2783 21.0296 10.9999 21.0296C10.7215 21.0296 10.4461 20.9714 10.1914 20.8589C9.93671 20.7463 9.70834 20.5818 9.5209 20.3759L8.5009 19.2559C8.30286 19.0385 8.0593 18.8674 7.78758 18.7549C7.51586 18.6424 7.22268 18.5912 6.9289 18.6049L5.4159 18.6749C5.13787 18.688 4.86017 18.6429 4.60056 18.5426C4.34095 18.4422 4.10515 18.2887 3.90824 18.092C3.71133 17.8953 3.55765 17.6596 3.45703 17.4001C3.35641 17.1406 3.31107 16.8629 3.3239 16.5849L3.3949 15.0709C3.40864 14.7771 3.35743 14.4839 3.24491 14.2122C3.13238 13.9405 2.96132 13.6969 2.7439 13.4989L1.6239 12.4789C1.41799 12.2915 1.25349 12.0631 1.14092 11.8084C1.02836 11.5537 0.970215 11.2783 0.970215 10.9999C0.970215 10.7215 1.02836 10.4461 1.14092 10.1914C1.25349 9.93671 1.41799 9.70834 1.6239 9.5209L2.7439 8.5009C2.96132 8.30286 3.13238 8.0593 3.24491 7.78758C3.35743 7.51586 3.40864 7.22268 3.3949 6.9289L3.3249 5.4159C3.3118 5.13787 3.35688 4.86017 3.45725 4.60056C3.55762 4.34095 3.71108 4.10515 3.9078 3.90824C4.10452 3.71133 4.34017 3.55765 4.59969 3.45703C4.8592 3.35641 5.13686 3.31107 5.4149 3.3239L6.9289 3.3949C7.22268 3.40864 7.51586 3.35743 7.78758 3.24491C8.0593 3.13238 8.30286 2.96132 8.5009 2.7439L9.5209 1.6239Z" stroke="#155DEC" stroke-width="1.5"/>
<path d="M8 11L10 13L14 9" stroke="#155DEC" stroke-width="1.5" stroke-linecap="round" stroke-linejoin="round"/>
</svg>
