<svg width="24" height="24" viewBox="0 0 24 24" fill="none" xmlns="http://www.w3.org/2000/svg">
<g id="mdi:sale-outline">
<path id="Vector" d="M9.49973 7.00007C10.3297 7.00007 10.9997 7.67007 10.9997 8.50007C10.9997 9.33007 10.3297 10.0001 9.49973 10.0001C8.66973 10.0001 7.99973 9.33007 7.99973 8.50007C7.99973 7.67007 8.66973 7.00007 9.49973 7.00007ZM14.4997 14.0001C15.3297 14.0001 15.9997 14.6701 15.9997 15.5001C15.9997 16.3301 15.3297 17.0001 14.4997 17.0001C13.6697 17.0001 12.9997 16.3301 12.9997 15.5001C12.9997 14.6701 13.6697 14.0001 14.4997 14.0001ZM8.40973 17.0001L6.99973 15.5901L15.5897 7.00007L16.9997 8.41007L8.40973 17.0001ZM18.6497 2.85007L19.2597 6.71007L22.7697 8.50007L20.9997 12.0001L22.7797 15.5001L19.2397 17.2901L18.6297 21.1501L14.7397 20.5401L11.9697 23.3101L9.18973 20.5001L5.32973 21.1401L4.70973 17.2501L1.21973 15.4701L2.99973 11.9701L1.22973 8.50007L4.73973 6.69007L5.34973 2.87007L9.21973 3.50007L11.9997 0.695068L14.7597 3.46007L18.6497 2.85007ZM20.0997 9.37007L17.4997 8.00007L16.9997 5.11007L14.0997 5.53007L11.9997 3.50007L9.89973 5.53007L6.99973 5.11007L6.49973 8.00007L3.89973 9.37007L5.19973 12.0001L3.89973 14.6301L6.49973 16.0001L6.99973 18.8901L9.89973 18.4701L11.9997 20.5001L14.0997 18.4701L16.9997 18.8901L17.4997 16.0001L20.0997 14.6301L18.7997 12.0001L20.0997 9.37007Z" fill="#4F4F4F"/>
</g>
</svg>
