<svg width="20" height="20" viewBox="0 0 20 20" fill="none" xmlns="http://www.w3.org/2000/svg">
<g id="Frame 1000005141">
<g id="Group 14141">
<g id="Group 9597">
<path id="Polygon 114" d="M17.6612 13.7633C17.7147 13.7912 17.7596 13.8332 17.791 13.8849C17.8223 13.9365 17.8389 13.9957 17.8389 14.0561C17.8389 14.1165 17.8223 14.1758 17.791 14.2274C17.7596 14.279 17.7147 14.3211 17.6612 14.349L14.8794 15.7956C14.8291 15.8218 14.7728 15.8346 14.7161 15.8328C14.6594 15.8309 14.6041 15.8145 14.5555 15.785C14.507 15.7555 14.4669 15.714 14.4391 15.6645C14.4113 15.6151 14.3967 15.5592 14.3968 15.5025V12.6098C14.3967 12.553 14.4113 12.4972 14.4391 12.4477C14.4669 12.3982 14.507 12.3567 14.5555 12.3273C14.6041 12.2978 14.6594 12.2813 14.7161 12.2795C14.7728 12.2776 14.8291 12.2904 14.8794 12.3166L17.6612 13.7633Z" fill="#2F80ED"/>
<path id="Rectangle 3596" d="M14.3974 13.1372H6.74219V14.9747H14.3974V13.1372Z" fill="#2F80ED"/>
<path id="XMLID_2_" d="M8.64935 14.9532C8.48218 14.9488 1.8469 14.9724 1.8469 14.9724L1.84214 13.8762L1.84273 13.1338C1.84273 13.1338 7.30853 13.1228 8.61785 13.1005C9.08732 13.1083 9.55356 13.0216 9.98882 12.8455C10.4241 12.6694 10.8194 12.4075 11.1514 12.0754C11.4833 11.7434 11.7451 11.3479 11.921 10.9126C12.097 10.4773 12.1835 10.011 12.1756 9.54154C12.1676 9.07208 12.0652 8.60902 11.8746 8.17994C11.6839 7.75085 11.4089 7.36451 11.0659 7.04392C10.7228 6.72333 10.3188 6.47504 9.87778 6.31384C9.43679 6.15263 8.96787 6.0818 8.49894 6.10557C6.78619 6.13469 5.47427 6.89737 5.20483 8.53065L5.73693 8.51699C5.73693 8.51699 5.92948 8.49918 5.96833 8.53088C5.98688 8.54664 5.99973 8.56806 6.00491 8.59184C6.01009 8.61562 6.0073 8.64045 5.99698 8.66249C4.81937 11.1487 6.00462 8.64585 4.27544 12.2926C4.26687 12.3115 4.25312 12.3276 4.23578 12.339C4.21843 12.3504 4.19821 12.3566 4.17747 12.3569C4.15672 12.3573 4.1363 12.3518 4.11858 12.341C4.10086 12.3302 4.08657 12.3146 4.07736 12.296L2.23343 8.72647C2.22202 8.70487 2.2182 8.68007 2.22259 8.65604C2.22697 8.63201 2.2393 8.61015 2.25759 8.59397C2.33758 8.56953 2.42121 8.55917 2.50475 8.56335L3.0834 8.52973C3.329 5.84342 5.70823 4.30372 8.46751 4.25681C9.88594 4.2327 11.2559 4.77304 12.2759 5.75897C13.2959 6.74491 13.8825 8.09566 13.9066 9.5141C13.9308 10.9325 13.3904 12.3024 12.4045 13.3225C11.4185 14.3425 10.0678 14.9291 8.64935 14.9532V14.9532Z" fill="#2F80ED"/>
</g>
<path id="Vector 525" d="M12.0046 3.00244H18.0043V9.00213" stroke="#2F80ED" stroke-width="2" stroke-linecap="round"/>
</g>
</g>
</svg>
