<svg width="19" height="16" viewBox="0 0 19 16" fill="none" xmlns="http://www.w3.org/2000/svg">
<g id="sprint" clip-path="url(#clip0_4650_2420)">
<path id="Vector" d="M0.75 14.4027H10.0123C12.8015 14.3891 15.2111 12.3499 15.7591 9.5664C16.3202 6.71492 14.7886 3.80907 12.1281 2.73169C9.96274 1.90581 7.5399 2.41561 5.91917 4.03678C4.77047 5.18552 4.35456 6.56538 4.23242 7.68014" stroke="#68696E" stroke-width="1.7" stroke-miterlimit="10" stroke-linecap="round"/>
<path id="Vector_2" d="M4.50539 10.2656C4.4415 10.4462 4.1786 10.4502 4.10944 10.2715C3.61812 9.00213 2.93074 7.58675 2.19169 6.50567C2.07637 6.33697 2.25299 6.10088 2.44396 6.17361L4.18856 6.838C4.23645 6.85624 4.28951 6.8554 4.33679 6.83566L6.05764 6.11719C6.24671 6.03825 6.43104 6.2702 6.32004 6.44242C5.60953 7.54485 4.96025 8.97964 4.50539 10.2656Z" fill="#68696E"/>
<path id="Vector_3" d="M6.83008 14.4026H16.7591" stroke="#68696E" stroke-width="1.7" stroke-miterlimit="10"/>
<path id="Vector_4" d="M18.5059 14.3061C18.5909 14.341 18.5909 14.4644 18.5059 14.4993C17.743 14.8126 16.8765 15.2718 16.2281 15.7715C16.1462 15.8346 16.0227 15.7498 16.057 15.6521L16.4839 14.4358C16.4914 14.4144 16.4914 14.391 16.4838 14.3696L16.0573 13.1568C16.023 13.0592 16.1465 12.9742 16.2285 13.0372C16.8754 13.5344 17.7431 13.993 18.5059 14.3061Z" fill="#68696E"/>
</g>
<defs>
<clipPath id="clip0_4650_2420">
<rect width="18" height="15" fill="white" transform="translate(0.75 0.828125)"/>
</clipPath>
</defs>
</svg>
