<svg width="20" height="20" viewBox="0 0 20 20" fill="none" xmlns="http://www.w3.org/2000/svg">
<g id="streamline:interface-page-controller-button-loop-2-multimedia-multi-button-repeat-media-loop-infinity-controls" clip-path="url(#clip0_319_11212)">
<path id="Vector" d="M7.14281 13.4714C6.54494 13.9837 5.78719 14.2717 4.99995 14.2857C4.42339 14.341 3.84174 14.2681 3.29665 14.0723C2.75155 13.8764 2.2565 13.5625 1.84694 13.153C1.43738 12.7434 1.12345 12.2484 0.927629 11.7033C0.731806 11.1582 0.658936 10.5765 0.714237 9.99995C0.658936 9.42339 0.731806 8.84174 0.927629 8.29665C1.12345 7.75155 1.43738 7.2565 1.84694 6.84694C2.2565 6.43738 2.75155 6.12345 3.29665 5.92763C3.84174 5.73181 4.42339 5.65894 4.99995 5.71424C8.92852 5.71424 11.0714 14.2857 15 14.2857C15.5765 14.341 16.1582 14.2681 16.7033 14.0723C17.2484 13.8764 17.7434 13.5625 18.153 13.153C18.5625 12.7434 18.8765 12.2484 19.0723 11.7033C19.2681 11.1582 19.341 10.5765 19.2857 9.99995C19.341 9.42339 19.2681 8.84174 19.0723 8.29665C18.8765 7.75155 18.5625 7.2565 18.153 6.84694C17.7434 6.43738 17.2484 6.12345 16.7033 5.92763C16.1582 5.73181 15.5765 5.65894 15 5.71424C14.2374 5.74447 13.5075 6.03141 12.9285 6.52852" stroke="#2F80ED" stroke-width="2" stroke-linecap="round" stroke-linejoin="round"/>
</g>
<defs>
<clipPath id="clip0_319_11212">
<rect width="20" height="20" fill="white"/>
</clipPath>
</defs>
</svg>
