<svg width="21" height="14" viewBox="0 0 21 14" fill="none" xmlns="http://www.w3.org/2000/svg">
<g id="Group 9597">
<path id="Polygon 114" d="M19.8654 11.5162C19.9297 11.5497 19.9835 11.6002 20.0211 11.6621C20.0587 11.7241 20.0786 11.7952 20.0786 11.8677C20.0786 11.9401 20.0587 12.0112 20.0211 12.0732C19.9835 12.1352 19.9297 12.1856 19.8654 12.2191L16.5271 13.9552C16.4667 13.9866 16.3992 14.002 16.3311 13.9998C16.263 13.9975 16.1966 13.9778 16.1384 13.9424C16.0802 13.907 16.0321 13.8573 15.9987 13.7979C15.9653 13.7385 15.9478 13.6715 15.9479 13.6033V10.132C15.9478 10.0639 15.9653 9.99686 15.9987 9.93746C16.0321 9.87807 16.0802 9.82829 16.1384 9.79292C16.1966 9.75755 16.263 9.7378 16.3311 9.73556C16.3992 9.73333 16.4667 9.74869 16.5271 9.78017L19.8654 11.5162Z" fill="#2F80ED"/>
<path id="Rectangle 3596" d="M15.9477 10.7646H6.76099V12.9698H15.9477V10.7646Z" fill="#2F80ED"/>
<path id="XMLID_2_" d="M9.05105 12.945C8.85044 12.9397 0.88769 12.9681 0.88769 12.9681L0.88197 11.6525L0.882677 10.7616C0.882677 10.7616 7.44199 10.7484 9.01326 10.7217C9.57664 10.731 10.1362 10.627 10.6585 10.4156C11.1808 10.2043 11.6553 9.89003 12.0537 9.49153C12.452 9.09303 12.7661 8.61844 12.9773 8.09604C13.1884 7.57363 13.2923 7.01408 13.2827 6.45069C13.2732 5.88731 13.1503 5.33161 12.9215 4.81668C12.6927 4.30175 12.3627 3.83812 11.951 3.45339C11.5393 3.06866 11.0545 2.77069 10.5252 2.57724C9.99603 2.38378 9.4333 2.29878 8.87055 2.32731C6.81515 2.36225 5.24076 3.27752 4.91741 5.23756L5.55596 5.22116C5.55596 5.22116 5.78704 5.19979 5.83366 5.23784C5.85592 5.25674 5.87135 5.28245 5.87756 5.31099C5.88377 5.33953 5.88043 5.36932 5.86804 5.39577C4.45484 8.37935 5.87722 5.3758 3.80209 9.75213C3.79181 9.77481 3.7753 9.79411 3.75449 9.80777C3.73367 9.82144 3.70941 9.82892 3.68451 9.82935C3.65962 9.82977 3.63511 9.82312 3.61385 9.81016C3.59258 9.79721 3.57543 9.77849 3.56438 9.75617L1.35154 5.47255C1.33786 5.44663 1.33327 5.41686 1.33853 5.38803C1.34379 5.35919 1.35859 5.33296 1.38054 5.31354C1.47654 5.28421 1.5769 5.27178 1.67714 5.27679L2.37157 5.23645C2.6663 2.0127 5.52153 0.164969 8.83283 0.108677C10.535 0.0797396 12.179 0.728187 13.4031 1.91137C14.6272 3.09455 15.3312 4.71554 15.3601 6.41775C15.3891 8.11996 14.7406 9.76395 13.5574 10.9881C12.3743 12.2122 10.7533 12.9161 9.05105 12.945V12.945Z" fill="#2F80ED"/>
</g>
</svg>
