<svg width="19" height="19" viewBox="0 0 19 19" fill="none" xmlns="http://www.w3.org/2000/svg">
<path id="Vector" d="M12.9564 0.798863C9.88664 0.798863 7.41282 3.27268 7.41282 6.34244C7.41282 6.50528 7.43846 6.72564 7.45647 6.92728L1.52277 12.8603C1.19865 13.1823 0.941424 13.5653 0.765895 13.9871C0.590366 14.4089 0.5 14.8613 0.5 15.3182C0.5 15.7751 0.590366 16.2274 0.765895 16.6493C0.941424 17.0711 1.19865 17.454 1.52277 17.7761C1.84479 18.1002 2.22773 18.3574 2.64956 18.5329C3.07138 18.7085 3.52376 18.7988 3.98065 18.7988C4.43754 18.7988 4.88992 18.7085 5.31174 18.5329C5.73357 18.3574 6.11651 18.1002 6.43853 17.7761L12.3715 11.8424C12.5725 11.8604 12.7942 11.886 12.9564 11.886C16.0261 11.886 18.5 9.41219 18.5 6.34244C18.5036 5.44923 18.2799 4.56977 17.85 3.78685L17.4169 2.9858L16.7676 3.63579L13.7789 6.6016L12.6965 5.51922L15.6623 2.53123L16.3137 1.88125L15.512 1.44815C14.7288 1.01903 13.8495 0.795632 12.9564 0.798863ZM12.9564 2.18476C13.2932 2.18476 13.544 2.33028 13.8434 2.40165L11.224 5.02099L10.7251 5.51991L11.224 5.99596L13.3029 8.0748L13.7796 8.57373L14.2771 8.0748L16.8979 5.45547C16.9692 5.75482 17.1141 6.00567 17.1141 6.34244C17.1141 8.67767 15.2916 10.5001 12.9564 10.5001C12.6792 10.5001 12.4575 10.5001 12.2842 10.4565L11.917 10.3484L11.6356 10.6304L5.46356 16.8025C4.61123 17.6548 3.35007 17.6548 2.49774 16.8025L2.47557 16.7803C1.64403 15.928 1.65096 14.6807 2.49636 13.8353L8.66844 7.66389L8.95047 7.38255L8.84098 7.01529C8.7994 6.84205 8.79802 6.62031 8.79802 6.34313C8.79802 4.0079 10.6205 2.18545 12.9557 2.18545L12.9564 2.18476Z" fill="#2F80ED" stroke="#2F80ED" stroke-width="0.4"/>
</svg>
