<svg width="17" height="17" viewBox="0 0 17 17" fill="none" xmlns="http://www.w3.org/2000/svg">
<g id="Simplification" clip-path="url(#clip0_2707_44681)">
<path id="Vector" d="M7.01861 1.38415C7.05677 1.38399 7.09492 1.38383 7.13423 1.38366C7.23799 1.3833 7.34175 1.38323 7.44551 1.38331C7.53256 1.38334 7.6196 1.38319 7.70664 1.38304C7.91222 1.38269 8.1178 1.38268 8.32338 1.38286C8.53451 1.38305 8.74564 1.38267 8.95677 1.382C9.13892 1.38145 9.32107 1.38127 9.50322 1.38137C9.61162 1.38142 9.72002 1.38134 9.82843 1.38091C9.94948 1.38044 10.0705 1.38073 10.1916 1.38109C10.2269 1.38086 10.2621 1.38062 10.2985 1.38037C10.7212 1.38314 11.0797 1.48588 11.3982 1.77164C11.8008 2.20464 11.7593 2.78646 11.7581 3.33609C11.7581 3.40332 11.7582 3.47054 11.7583 3.53777C11.7583 3.67814 11.7582 3.8185 11.7579 3.95886C11.7576 4.1379 11.7578 4.31692 11.7581 4.49596C11.7584 4.63462 11.7583 4.77328 11.7581 4.91195C11.7581 4.97792 11.7581 5.0439 11.7583 5.10988C11.7598 5.97812 11.7598 5.97812 11.5974 6.2814C11.582 6.31101 11.5666 6.34062 11.5508 6.37112C11.4638 6.5146 11.3706 6.62479 11.2341 6.72281C11.1989 6.74897 11.1989 6.74897 11.1629 6.77566C10.884 6.92696 10.616 6.97362 10.302 6.96744C10.2711 6.96731 10.2401 6.96719 10.2082 6.96706C10.0945 6.96641 9.98071 6.96466 9.86696 6.96304C9.61172 6.96046 9.35649 6.95789 9.09352 6.95523C9.09352 7.66679 9.09352 8.37836 9.09352 9.11148C9.34001 9.11003 9.5865 9.10858 9.84047 9.10709C9.99755 9.10645 10.1546 9.10584 10.3117 9.10538C10.5605 9.10463 10.8093 9.10376 11.0581 9.10205C11.2589 9.10068 11.4597 9.09994 11.6605 9.09962C11.7367 9.09939 11.8129 9.09894 11.8892 9.09826C12.765 9.09077 13.4589 9.26228 14.1099 9.87295C14.7371 10.5259 14.8198 11.3456 14.8123 12.2052C14.8418 12.2045 14.8712 12.2038 14.9016 12.203C15.3772 12.1963 15.7955 12.2393 16.1596 12.5775C16.4629 12.9129 16.5098 13.216 16.5103 13.652C16.5105 13.6957 16.5107 13.7394 16.5109 13.7831C16.5113 13.8745 16.5114 13.9659 16.5114 14.0573C16.5113 14.1736 16.5122 14.2898 16.5133 14.406C16.514 14.4963 16.5141 14.5865 16.5141 14.6768C16.5141 14.7196 16.5144 14.7624 16.5149 14.8052C16.5196 15.2569 16.4119 15.5535 16.1065 15.8838C15.8514 16.1283 15.5046 16.2083 15.1615 16.2103C15.141 16.2104 15.1206 16.2106 15.0995 16.2107C15.0323 16.2112 14.9651 16.2114 14.898 16.2116C14.8748 16.2117 14.8517 16.2118 14.8278 16.2118C14.7052 16.2123 14.5826 16.2126 14.46 16.2127C14.3343 16.2129 14.2087 16.2137 14.083 16.2145C13.9855 16.2151 13.8881 16.2153 13.7906 16.2153C13.7443 16.2154 13.698 16.2157 13.6518 16.2161C13.1921 16.2199 12.7814 16.1628 12.4314 15.8439C12.1076 15.5001 12.0521 15.0764 12.054 14.6232C12.0539 14.5898 12.0538 14.5564 12.0538 14.522C12.0537 14.452 12.0539 14.3819 12.0541 14.3119C12.0545 14.2055 12.0541 14.0992 12.0537 13.9928C12.0538 13.9243 12.0538 13.8558 12.054 13.7873C12.0538 13.7559 12.0537 13.7246 12.0536 13.6923C12.0565 13.2451 12.1495 12.8828 12.4608 12.5503C12.7869 12.2538 13.154 12.1988 13.5779 12.2033C13.6036 12.2034 13.6293 12.2036 13.6558 12.2037C13.7184 12.2041 13.7809 12.2046 13.8435 12.2052C13.823 11.3182 13.823 11.3182 13.3748 10.5802C13.3748 10.5596 13.3748 10.539 13.3748 10.5177C13.3568 10.5093 13.3388 10.5008 13.3203 10.4921C13.2489 10.4548 13.1865 10.4121 13.1209 10.3654C12.8874 10.2078 12.6352 10.1088 12.3517 10.1065C12.3228 10.1062 12.2939 10.1059 12.2642 10.1056C12.2329 10.1054 12.2016 10.1052 12.1693 10.1051C12.1361 10.1048 12.1029 10.1044 12.0686 10.1041C11.9589 10.1031 11.8491 10.1024 11.7394 10.1016C11.6632 10.1009 11.5871 10.1003 11.511 10.0996C11.3106 10.0979 11.1103 10.0964 10.91 10.0948C10.6696 10.093 10.4292 10.0909 10.1888 10.0889C9.82374 10.0858 9.45863 10.0831 9.09352 10.0802C9.09352 10.7815 9.09352 11.4827 9.09352 12.2052C9.25852 12.2052 9.42352 12.2052 9.59352 12.2052C9.96637 12.2454 10.275 12.3586 10.531 12.6427C10.7686 12.9725 10.827 13.255 10.8258 13.6551C10.826 13.6987 10.8261 13.7424 10.8263 13.786C10.8266 13.8773 10.8265 13.9685 10.8262 14.0597C10.8258 14.1757 10.8265 14.2917 10.8274 14.4076C10.828 14.4978 10.828 14.5879 10.8278 14.678C10.8278 14.7412 10.8283 14.8045 10.8288 14.8678C10.826 15.2514 10.7368 15.5497 10.4685 15.8302C10.1806 16.1004 9.86621 16.208 9.47449 16.2103C9.45409 16.2104 9.43368 16.2106 9.41266 16.2107C9.34562 16.2112 9.27859 16.2114 9.21156 16.2116C9.18845 16.2117 9.16534 16.2118 9.14153 16.2118C9.01908 16.2123 8.89664 16.2126 8.77419 16.2127C8.64882 16.2129 8.52346 16.2137 8.39809 16.2145C8.30074 16.2151 8.20338 16.2153 8.10603 16.2153C8.05988 16.2154 8.01372 16.2157 7.96757 16.2161C7.55651 16.2195 7.16994 16.1965 6.84352 15.924C6.82132 15.9056 6.79913 15.8872 6.77626 15.8683C6.50453 15.6214 6.39288 15.2897 6.36888 14.9292C6.36658 14.8337 6.3661 14.7383 6.36647 14.6427C6.36641 14.6078 6.36635 14.573 6.36629 14.537C6.36624 14.4637 6.36636 14.3904 6.36662 14.317C6.36696 14.2056 6.36662 14.0941 6.36622 13.9826C6.36627 13.911 6.36635 13.8393 6.36647 13.7677C6.36634 13.7348 6.36621 13.7018 6.36608 13.6679C6.36865 13.2577 6.45286 12.8798 6.73805 12.5685C7.14582 12.1957 7.59098 12.2052 8.12477 12.2052C8.12477 11.504 8.12477 10.8027 8.12477 10.0802C7.46503 10.0823 7.46503 10.0823 6.80529 10.0856C6.56922 10.087 6.33316 10.0882 6.09708 10.0887C5.89 10.0892 5.68292 10.0903 5.47584 10.0917C5.39707 10.0922 5.31829 10.0924 5.23952 10.0925C4.65892 10.0929 4.13097 10.1141 3.67763 10.5243C3.31431 10.9086 3.21382 11.3351 3.19899 11.8478C3.19778 11.8823 3.19657 11.9168 3.19533 11.9524C3.19241 12.0366 3.18973 12.1209 3.18727 12.2052C3.22163 12.2045 3.25599 12.2038 3.29139 12.203C3.79738 12.1954 4.2069 12.2431 4.59218 12.6038C4.90534 12.9481 4.94203 13.3335 4.94252 13.7781C4.94262 13.8116 4.94273 13.8451 4.94283 13.8797C4.94299 13.9503 4.94306 14.0209 4.94306 14.0915C4.94313 14.1987 4.9437 14.3059 4.94429 14.4131C4.94438 14.482 4.94444 14.551 4.94447 14.6199C4.9447 14.6515 4.94492 14.6831 4.94515 14.7157C4.94378 15.1492 4.85857 15.533 4.55641 15.8595C4.19953 16.1906 3.75713 16.2151 3.29506 16.2146C3.24801 16.2148 3.20097 16.2149 3.15393 16.215C3.05567 16.2153 2.95741 16.2153 2.85915 16.2151C2.73423 16.2149 2.60933 16.2154 2.48442 16.2162C2.38733 16.2166 2.29025 16.2167 2.19316 16.2166C2.14716 16.2166 2.10115 16.2167 2.05515 16.2171C1.60494 16.2198 1.20153 16.1687 0.859754 15.8522C0.623638 15.6041 0.496863 15.3553 0.494734 15.0119C0.494433 14.9728 0.494133 14.9337 0.493824 14.8934C0.493672 14.8507 0.493538 14.8081 0.493421 14.7654C0.493333 14.7438 0.493245 14.7222 0.493154 14.7C0.492686 14.5856 0.492397 14.4712 0.492262 14.3568C0.492091 14.2392 0.491341 14.1217 0.49045 14.0042C0.489865 13.9132 0.489705 13.8223 0.489657 13.7314C0.489563 13.6881 0.489315 13.6448 0.488901 13.6015C0.485116 13.1744 0.561891 12.9062 0.843519 12.5802C1.18541 12.2421 1.59716 12.2014 2.05344 12.2036C2.10847 12.2041 2.16349 12.2046 2.21852 12.2052C2.21786 12.1826 2.21721 12.16 2.21654 12.1367C2.19351 11.2174 2.32807 10.5027 2.97243 9.8107C3.47321 9.32891 4.11617 9.10565 4.8006 9.10793C4.8546 9.10793 4.8546 9.10793 4.90969 9.10792C5.02822 9.10794 5.14674 9.10818 5.26527 9.10843C5.34763 9.10849 5.43 9.10853 5.51236 9.10856C5.7067 9.10866 5.90103 9.10891 6.09537 9.10923C6.33847 9.10961 6.58156 9.10978 6.82466 9.10995C7.25803 9.11026 7.6914 9.11088 8.12477 9.11148C8.12477 8.39992 8.12477 7.68835 8.12477 6.95523C7.61433 6.95893 7.61433 6.95893 7.10391 6.96368C7.03933 6.96395 6.97475 6.96419 6.91017 6.96439C6.87736 6.96486 6.84454 6.96534 6.81074 6.96584C6.43747 6.96597 6.11885 6.86183 5.83632 6.61246C5.52502 6.29007 5.464 5.91342 5.46348 5.48225C5.46333 5.45117 5.46317 5.4201 5.46301 5.38808C5.46256 5.2857 5.46234 5.18333 5.46217 5.08096C5.46204 5.02824 5.46204 5.02824 5.4619 4.97445C5.46144 4.78838 5.46115 4.60231 5.46101 4.41624C5.46084 4.22491 5.46009 4.03358 5.4592 3.84225C5.45862 3.69437 5.45846 3.54648 5.45841 3.3986C5.45831 3.32811 5.45806 3.25762 5.45765 3.18713C5.45222 2.18806 5.45222 2.18806 5.82985 1.77359C6.19436 1.44646 6.53665 1.38309 7.01861 1.38415ZM6.47514 2.52036C6.42049 2.65185 6.42419 2.77203 6.42514 2.91311C6.42497 2.94331 6.42481 2.97351 6.42464 3.00463C6.42423 3.10434 6.4245 3.20403 6.42482 3.30374C6.42475 3.37313 6.42466 3.44252 6.42455 3.51191C6.42441 3.65731 6.42461 3.80271 6.42505 3.94811C6.42558 4.13435 6.42527 4.32059 6.42471 4.50683C6.42437 4.65012 6.42448 4.79341 6.42472 4.93671C6.42479 5.00537 6.42471 5.07403 6.42449 5.14269C6.42425 5.23874 6.42462 5.33476 6.42514 5.43081C6.42495 5.45911 6.42476 5.48741 6.42456 5.51657C6.42615 5.67447 6.43872 5.78954 6.53102 5.92398C6.6279 5.98593 6.70449 5.99442 6.8183 5.99484C6.86752 5.99524 6.86752 5.99524 6.91773 5.99564C6.95356 5.99562 6.98939 5.99559 7.02631 5.99556C7.08311 5.99587 7.08311 5.99587 7.14106 5.99619C7.24482 5.99669 7.34857 5.99689 7.45233 5.99693C7.51718 5.99698 7.58203 5.99711 7.64688 5.99728C7.87319 5.99785 8.09949 5.99811 8.3258 5.99806C8.53665 5.99802 8.74749 5.99868 8.95834 5.99967C9.13947 6.00049 9.32061 6.00082 9.50174 6.00078C9.60988 6.00077 9.71801 6.00094 9.82615 6.00161C9.94675 6.00232 10.0673 6.00204 10.1879 6.00166C10.2237 6.00201 10.2595 6.00236 10.2963 6.00273C10.4857 6.00141 10.4857 6.00141 10.6599 5.93475C10.7953 5.76558 10.7902 5.58758 10.7896 5.38077C10.7898 5.35184 10.7899 5.3229 10.7901 5.29309C10.7905 5.19776 10.7905 5.10244 10.7904 5.00711C10.7905 4.94064 10.7907 4.87417 10.7908 4.8077C10.7911 4.66851 10.791 4.52931 10.7909 4.39011C10.7907 4.21197 10.7912 4.03383 10.792 3.85569C10.7924 3.71845 10.7924 3.58122 10.7923 3.44398C10.7924 3.37831 10.7925 3.31264 10.7928 3.24696C10.7932 3.15505 10.793 3.06315 10.7927 2.97123C10.7929 2.94426 10.7931 2.91729 10.7934 2.8895C10.7919 2.72193 10.7742 2.60048 10.6873 2.45523C10.5237 2.32747 10.3292 2.34827 10.131 2.34935C10.094 2.34918 10.0571 2.34902 10.019 2.34885C9.918 2.34851 9.81703 2.34859 9.71605 2.34889C9.61019 2.34912 9.50432 2.3489 9.39846 2.34876C9.22075 2.34859 9.04304 2.34881 8.86533 2.34926C8.66005 2.34977 8.45478 2.3496 8.24951 2.34909C8.07301 2.34866 7.89652 2.3486 7.72003 2.34885C7.61473 2.34899 7.50942 2.34901 7.40412 2.3487C7.28674 2.34846 7.16938 2.34883 7.05201 2.34935C7.01721 2.34916 6.98242 2.34897 6.94657 2.34877C6.89854 2.34917 6.89854 2.34917 6.84953 2.34958C6.80794 2.34963 6.80794 2.34963 6.76551 2.34968C6.64004 2.3686 6.55688 2.42508 6.47514 2.52036ZM1.53102 13.2677C1.46216 13.371 1.46031 13.4042 1.45894 13.5246C1.45844 13.5578 1.45794 13.5911 1.45743 13.6254C1.45726 13.6613 1.45709 13.6973 1.45692 13.7343C1.45664 13.7712 1.45636 13.8082 1.45607 13.8463C1.45561 13.9245 1.45534 14.0027 1.45522 14.0809C1.45485 14.2006 1.45331 14.3203 1.45173 14.44C1.45144 14.5159 1.45121 14.5919 1.45106 14.6679C1.45045 14.7037 1.44984 14.7395 1.44921 14.7764C1.44857 14.9766 1.44857 14.9766 1.54188 15.149C1.66715 15.234 1.7588 15.2406 1.90691 15.2415C1.94572 15.2418 1.98452 15.2421 2.0245 15.2424C2.06691 15.2426 2.10933 15.2427 2.15175 15.2428C2.1953 15.243 2.23886 15.2432 2.28242 15.2434C2.37376 15.2437 2.46509 15.2439 2.55643 15.244C2.67318 15.2442 2.78991 15.2449 2.90665 15.2458C2.99665 15.2464 3.08664 15.2465 3.17665 15.2466C3.21967 15.2467 3.26269 15.2469 3.30571 15.2473C3.36605 15.2479 3.4264 15.2478 3.48675 15.2476C3.53816 15.2478 3.53816 15.2478 3.59061 15.248C3.70331 15.2346 3.77791 15.2011 3.87477 15.1427C3.99253 14.9821 3.98216 14.8145 3.98097 14.6233C3.98106 14.5915 3.98115 14.5597 3.98124 14.5269C3.98131 14.4598 3.98113 14.3927 3.98074 14.3256C3.98024 14.2233 3.98074 14.121 3.98134 14.0186C3.98127 13.9533 3.98115 13.8879 3.98097 13.8225C3.98116 13.7921 3.98135 13.7617 3.98155 13.7304C3.97973 13.5537 3.97064 13.4189 3.87477 13.2677C3.68003 13.1359 3.45299 13.1604 3.22535 13.1615C3.18345 13.1615 3.14155 13.1614 3.09965 13.1613C3.01213 13.1611 2.92462 13.1613 2.8371 13.1618C2.7254 13.1623 2.61373 13.162 2.50203 13.1614C2.4156 13.1611 2.32916 13.1612 2.24273 13.1614C2.18168 13.1615 2.12063 13.1612 2.05958 13.161C1.86143 13.1625 1.70311 13.1642 1.53102 13.2677ZM7.43727 13.2677C7.31592 13.4268 7.3299 13.6034 7.33107 13.7951C7.33098 13.8277 7.33089 13.8602 7.3308 13.8938C7.33073 13.9625 7.3309 14.0312 7.3313 14.0999C7.3318 14.2049 7.3313 14.3098 7.3307 14.4147C7.33076 14.4816 7.33088 14.5485 7.33107 14.6154C7.33088 14.6466 7.33069 14.6779 7.33049 14.7101C7.3325 14.9101 7.35197 15.0574 7.49977 15.2052C7.60441 15.2422 7.70652 15.2408 7.81671 15.2415C7.87491 15.242 7.87491 15.242 7.93429 15.2424C7.97654 15.2426 8.0188 15.2427 8.06105 15.2428C8.10456 15.243 8.14807 15.2432 8.19158 15.2434C8.28274 15.2437 8.37389 15.2439 8.46504 15.244C8.58154 15.2442 8.69802 15.2449 8.81452 15.2458C8.90438 15.2464 8.99425 15.2465 9.08411 15.2466C9.12705 15.2467 9.16998 15.2469 9.21291 15.2473C9.2731 15.2479 9.3333 15.2478 9.39349 15.2476C9.44476 15.2478 9.44476 15.2478 9.49707 15.248C9.61001 15.2345 9.68426 15.2019 9.78102 15.1427C9.84988 15.0394 9.85173 15.0062 9.85309 14.8859C9.85359 14.8526 9.85409 14.8194 9.85461 14.7851C9.85486 14.7312 9.85486 14.7312 9.85512 14.6762C9.8554 14.6392 9.85568 14.6023 9.85597 14.5642C9.85642 14.486 9.8567 14.4077 9.85682 14.3295C9.85719 14.2098 9.85873 14.0902 9.8603 13.9705C9.8606 13.8945 9.86083 13.8186 9.86098 13.7426C9.86159 13.7068 9.8622 13.671 9.86282 13.6341C9.86316 13.4345 9.86316 13.4345 9.77212 13.2615C9.64016 13.174 9.53323 13.17 9.37656 13.1689C9.33911 13.1686 9.30166 13.1683 9.26308 13.168C9.22271 13.1679 9.18235 13.1678 9.14076 13.1676C9.09872 13.1675 9.05669 13.1673 9.01465 13.1671C8.92657 13.1668 8.8385 13.1666 8.75042 13.1665C8.63799 13.1663 8.52557 13.1656 8.41314 13.1647C8.3263 13.1641 8.23947 13.1639 8.15263 13.1639C8.09116 13.1637 8.0297 13.1631 7.96823 13.1626C7.68812 13.1602 7.68812 13.1602 7.43727 13.2677ZM13.1248 13.2677C13.0129 13.4442 13.0173 13.6181 13.0186 13.8225C13.0185 13.8544 13.0184 13.8862 13.0183 13.919C13.0182 13.9861 13.0184 14.0531 13.0188 14.1202C13.0193 14.2226 13.0188 14.3249 13.0182 14.4273C13.0183 14.4927 13.0184 14.558 13.0186 14.6233C13.0184 14.6538 13.0182 14.6843 13.018 14.7157C13.0197 14.8791 13.0247 15.0062 13.1248 15.1427C13.2578 15.2227 13.3569 15.2483 13.5113 15.2486C13.5695 15.2491 13.5695 15.2491 13.6289 15.2495C13.6708 15.2493 13.7127 15.2491 13.7547 15.2489C13.7981 15.249 13.8415 15.2491 13.8849 15.2492C13.9757 15.2493 14.0665 15.2491 14.1573 15.2487C14.2733 15.2482 14.3892 15.2485 14.5053 15.249C14.5949 15.2494 14.6844 15.2493 14.774 15.249C14.8168 15.249 14.8596 15.249 14.9023 15.2493C14.9622 15.2495 15.0221 15.2491 15.082 15.2486C15.116 15.2485 15.15 15.2485 15.185 15.2484C15.2975 15.2344 15.372 15.2016 15.4685 15.1427C15.5374 15.0394 15.5392 15.0062 15.5406 14.8859C15.5411 14.8526 15.5416 14.8194 15.5421 14.7851C15.5424 14.7312 15.5424 14.7312 15.5426 14.6762C15.5429 14.6392 15.5432 14.6023 15.5435 14.5642C15.5439 14.486 15.5442 14.4077 15.5443 14.3295C15.5447 14.2098 15.5462 14.0902 15.5478 13.9705C15.5481 13.8945 15.5483 13.8186 15.5485 13.7426C15.5491 13.7068 15.5497 13.671 15.5503 13.6341C15.5507 13.4345 15.5507 13.4345 15.4596 13.2615C15.3277 13.174 15.2207 13.17 15.0641 13.1689C15.0266 13.1686 14.9892 13.1683 14.9506 13.168C14.9102 13.1679 14.8698 13.1678 14.8283 13.1676C14.7862 13.1675 14.7442 13.1673 14.7022 13.1671C14.6141 13.1668 14.526 13.1666 14.4379 13.1665C14.3255 13.1663 14.2131 13.1656 14.1006 13.1647C14.0138 13.1641 13.927 13.1639 13.8401 13.1639C13.7787 13.1637 13.7172 13.1631 13.6557 13.1626C13.375 13.159 13.375 13.159 13.1248 13.2677Z" fill="#2F80ED" stroke="#2F80ED" stroke-width="0.5"/>
</g>
<defs>
<clipPath id="clip0_2707_44681">
<rect width="16" height="16" fill="white" transform="translate(0.5 0.798828)"/>
</clipPath>
</defs>
</svg>
