<svg width="25" height="24" viewBox="0 0 25 24" fill="none" xmlns="http://www.w3.org/2000/svg">
<path id="Vector" d="M12.3984 24C18.9516 24 24.3984 18.5647 24.3984 12C24.3984 5.44683 18.9395 0 12.3864 0C5.82217 0 0.398926 5.44683 0.398926 12C0.398926 18.5647 5.83371 24 12.3984 24ZM12.3989 22.0002C6.84517 22.0002 2.4093 17.5527 2.4093 12C2.4093 6.4583 6.83313 1.99983 12.3864 1.99983C17.9276 1.99983 22.386 6.4588 22.3981 12C22.4096 17.5533 17.9391 22.0002 12.3979 22.0002M4.89253 12C4.89253 12.2706 5.00999 12.4708 5.23386 12.6942L9.19839 16.6823C9.35149 16.8354 9.57487 16.9293 9.82183 16.9293C10.3042 16.9293 10.6571 16.5413 10.6571 16.0709C10.6571 15.8119 10.5748 15.6001 10.3986 15.4355L8.92783 13.9883L7.50426 12.7886L9.99852 12.8825H14.8104L17.3041 12.7881L15.8806 13.9878L14.3983 15.4355C14.3143 15.5182 14.2481 15.6172 14.2037 15.7264C14.1592 15.8355 14.1375 15.9526 14.1397 16.0704C14.1397 16.5413 14.5042 16.9293 14.9866 16.9293C15.2335 16.9293 15.4454 16.8354 15.5985 16.6823L19.575 12.6942C19.7984 12.4708 19.9164 12.2706 19.9164 12C19.9164 11.753 19.8105 11.5533 19.575 11.3173L15.5985 7.32921C15.4454 7.17661 15.2335 7.09429 14.9866 7.09429C14.5047 7.09429 14.1397 7.45871 14.1397 7.9411C14.1397 8.20012 14.2452 8.41195 14.3983 8.56454L15.8806 10.0238L17.2926 11.2119L14.8104 11.1175H9.99852L7.5158 11.2119L8.92783 10.0238L10.3986 8.56454C10.5632 8.41195 10.6571 8.20012 10.6571 7.9411C10.6571 7.45922 10.3042 7.09429 9.82183 7.09429C9.57487 7.09429 9.35149 7.17661 9.19839 7.32921L5.23386 11.3178C4.98639 11.5527 4.89253 11.753 4.89253 12Z" fill="#155DEC"/>
</svg>
