<svg width="40" height="41" viewBox="0 0 40 41" fill="none" xmlns="http://www.w3.org/2000/svg">
<g id="Frame 1000006018">
<g id="Group 27">
<path id="Vector" d="M20.0354 38.4671L20.0025 38.4342L16.27 34.8698L20.0025 30.9617L20.0354 30.9288L20.2108 30.7387C20.156 30.7423 20.0938 30.7423 20.0354 30.7423H20.0025C15.4621 30.7423 11.6054 27.7847 10.2674 23.6865L7.94607 20.4986L6.01589 17.8408L2.35657 20.4986L0.0791016 22.1547C0.916248 32.4277 9.52166 40.4998 20.0061 40.4998H20.039C20.719 40.4998 21.3916 40.4669 22.0533 40.3974L20.039 38.4744L20.0354 38.4671Z" fill="#2F80ED"/>
<path id="Vector_2" d="M20.0319 0.5H19.999C19.7175 0.5 19.4324 0.503656 19.1545 0.521936L19.999 1.54557L20.0319 1.58945L24.1372 6.57603L20.0319 9.94672L19.999 9.97597L19.6517 10.2611C19.7651 10.2538 19.882 10.2538 19.999 10.2538H20.0319C24.3895 10.2684 28.1036 12.9994 29.5695 16.8417L32.9583 20.4975L34.2561 21.8941L35.7586 20.4975L39.6665 16.8709C37.9593 7.57042 29.8218 0.518279 20.0356 0.5H20.0319Z" fill="#2F80ED"/>
<path id="Vector_3" opacity="0.7" d="M9.76062 20.1881C9.79352 19.2558 10.0092 16.6675 11.9028 14.2181C13.4272 12.2512 15.2734 11.3592 16.1617 10.9973C18.0444 9.44718 19.927 7.90076 21.8097 6.35068L17.1633 0.69873C15.628 0.918082 13.3176 1.4299 10.7952 2.7387C7.56721 4.41308 5.50908 6.59927 4.38679 7.99947C3.34493 9.29729 1.46957 11.9734 0.54469 15.834C0.127945 17.5668 0.0182783 19.0694 0 20.1552C2.12394 18.6124 4.24787 17.0733 6.36816 15.5305L9.7533 20.1881H9.76062Z" fill="#2F80ED"/>
<path id="Vector_4" opacity="0.7" d="M39.9964 20.5309C39.9964 20.699 39.9928 20.8709 39.9891 21.0537C39.9855 21.2474 39.9745 21.4485 39.9635 21.6532C39.9562 21.8506 39.938 22.059 39.9197 22.2711V22.2857C39.8977 22.4941 39.8758 22.6988 39.8502 22.9181C39.3969 26.6142 38.0078 29.3451 37.1925 30.7161C37.1377 30.8075 37.0829 30.8916 37.0354 30.972C36.9805 31.0634 36.922 31.1584 36.8599 31.2571C36.5016 31.8201 35.9862 32.5623 35.2879 33.3922C35.2221 33.4653 35.16 33.542 35.0942 33.6152C34.9589 33.7724 34.8237 33.9259 34.6738 34.0831C34.6007 34.1599 34.5276 34.2403 34.4508 34.3207C34.3777 34.3975 34.3009 34.4779 34.2205 34.5584C34.0633 34.7156 33.9025 34.8728 33.7306 35.0373C32.9885 35.7429 32.1148 36.4594 31.1059 37.1284C31.0072 37.1979 30.9085 37.2637 30.8025 37.3332C30.6672 37.4209 30.5356 37.5013 30.3967 37.5854C30.2797 37.6585 30.159 37.7317 30.0384 37.8011C29.9982 37.8267 29.9616 37.8486 29.9214 37.8706C29.8958 37.8852 29.8739 37.8962 29.8483 37.9108C29.7313 37.9803 29.6144 38.0461 29.4974 38.1046C28.9417 38.4116 28.3897 38.6712 27.8597 38.8942C27.7317 38.9491 27.5964 39.0075 27.4648 39.0587C27.3369 39.1099 27.2089 39.1611 27.081 39.2086C26.9567 39.2561 26.8287 39.3037 26.7044 39.3475C26.5838 39.3914 26.4595 39.4353 26.3425 39.4718C26.2219 39.5121 26.1013 39.5486 25.9843 39.5888C25.8673 39.6217 25.754 39.6583 25.6443 39.6912C25.0777 39.8594 24.5586 39.9837 24.1053 40.0787L24.0541 40.0275H24.0504C22.2299 38.291 20.4167 36.5545 18.5962 34.8143L20.8298 32.4745L22.877 30.3322C22.9026 30.3249 22.9281 30.3139 22.9574 30.3066C23.0195 30.2883 23.0817 30.2664 23.1548 30.2445C23.2279 30.2189 23.3047 30.1933 23.3924 30.164C23.5971 30.0946 23.7945 30.0105 23.992 29.9264C24.5037 29.7071 25.1252 29.389 25.7723 28.9466C25.9441 28.826 26.1195 28.7054 26.284 28.5774C26.3535 28.5262 26.423 28.4677 26.4924 28.4129C26.7739 28.1826 27.0554 27.934 27.3259 27.6525C27.4027 27.5757 27.4831 27.4916 27.5599 27.4075C27.6147 27.3454 27.6769 27.2796 27.7317 27.2138C27.9986 26.9067 28.2581 26.5703 28.5067 26.2011C28.6054 26.0549 28.6968 25.9123 28.7845 25.7661C28.8649 25.6271 28.9454 25.4882 29.0221 25.3529C29.0221 25.3456 29.0258 25.3383 29.0368 25.331C29.1647 25.0861 29.2817 24.8338 29.3914 24.5925C29.4169 24.5304 29.4425 24.4719 29.4645 24.417C29.5083 24.3147 29.5522 24.2087 29.5851 24.1063C29.6363 23.9674 29.6838 23.8358 29.7277 23.7005C29.7716 23.5725 29.8081 23.4373 29.8483 23.3057C29.9945 22.7902 30.0859 22.304 30.1481 21.8616C30.1664 21.7483 30.1737 21.6459 30.1883 21.5435C30.2176 21.2657 30.2358 20.9879 30.2395 20.7064C30.2431 20.6259 30.2431 20.5455 30.2431 20.4724C30.2431 20.3261 30.2395 20.1945 30.2358 20.0885C30.2358 20.0556 30.2322 20.0191 30.2322 19.9898L34.173 24.2343L39.9306 18.8857C39.9379 19.0027 39.9489 19.127 39.9562 19.2513C39.9635 19.3793 39.9745 19.5109 39.9782 19.6498C39.9818 19.7485 39.9855 19.8582 39.9928 19.9642C39.9964 20.1507 40.0001 20.3408 40.0001 20.5382L39.9964 20.5309Z" fill="#2F80ED"/>
</g>
</g>
</svg>
