<svg width="44" height="46" viewBox="0 0 44 46" fill="none" xmlns="http://www.w3.org/2000/svg">
<g id="Group 14214">
<path id="Vector" d="M30.2567 0.353233L43.9395 8.25413V24.0531L30.2567 31.954L16.5739 24.0531V8.25413L30.2567 0.353233ZM30.2567 3.62521L19.4067 9.8887V22.4185L30.2567 28.682L41.1066 22.4185V9.8887L30.2567 3.62521ZM30.2567 11.9043C29.1297 11.9043 28.0488 12.352 27.2519 13.1489C26.455 13.9458 26.0073 15.0266 26.0073 16.1536C26.0073 17.2806 26.455 18.3614 27.2519 19.1583C28.0488 19.9552 29.1297 20.4029 30.2567 20.4029C31.3836 20.4029 32.4645 19.9552 33.2614 19.1583C34.0583 18.3614 34.506 17.2806 34.506 16.1536C34.506 15.0266 34.0583 13.9458 33.2614 13.1489C32.4645 12.352 31.3836 11.9043 30.2567 11.9043ZM23.1745 16.1536C23.1745 14.2753 23.9206 12.4739 25.2488 11.1457C26.577 9.81757 28.3783 9.07142 30.2567 9.07142C32.135 9.07142 33.9364 9.81757 35.2645 11.1457C36.5927 12.4739 37.3388 14.2753 37.3388 16.1536C37.3388 18.0319 36.5927 19.8333 35.2645 21.1615C33.9364 22.4897 32.135 23.2358 30.2567 23.2358C28.3783 23.2358 26.577 22.4897 25.2488 21.1615C23.9206 19.8333 23.1745 18.0319 23.1745 16.1536Z" fill="#155DEC"/>
<path id="Subtract" fill-rule="evenodd" clip-rule="evenodd" d="M13.5762 14.5294C8.14614 15.9718 3.99615 19.8215 3.46632 25.6168L1.87906 25.709C1.64993 25.6976 1.42054 25.726 1.20112 25.793C1.15093 25.8374 1.11712 25.8974 1.10509 25.9633C1.09307 26.0292 1.10355 26.0972 1.13484 26.1565L6.19274 35.9476C6.21799 35.9986 6.2572 36.0414 6.30581 36.071C6.35442 36.1006 6.41043 36.1158 6.46734 36.1149C6.52424 36.1139 6.5797 36.0968 6.62728 36.0656C6.67485 36.0343 6.71258 35.9902 6.73608 35.9384C9.16877 30.808 9.49855 30.1148 9.6784 29.7367L9.67841 29.7367C9.84922 29.3777 9.88482 29.3029 11.4583 25.981C11.4866 25.9205 11.4942 25.8524 11.48 25.7872C11.4658 25.722 11.4305 25.6632 11.3797 25.62C11.2731 25.533 10.7449 25.5819 10.7449 25.5819L9.28538 25.6194C9.76979 22.683 11.4826 20.7725 13.9281 19.7821C13.6607 18.5508 13.5199 17.2723 13.5199 15.9609C13.5199 15.4791 13.5389 15.0017 13.5762 14.5294ZM31.4418 33.8828C31.684 33.8828 31.9251 33.878 32.165 33.8685C31.547 35.4631 30.6504 36.9493 29.5046 38.2528H34.4979L34.4979 36.8056C34.4977 36.6499 34.5377 36.4968 34.614 36.361C34.6902 36.2253 34.8002 36.1115 34.9333 36.0306C35.0664 35.9498 35.2181 35.9046 35.3738 35.8995C35.5294 35.8944 35.6837 35.9296 35.8218 36.0015L43.4521 39.9697C43.599 40.0462 43.7222 40.1615 43.8081 40.3031C43.8941 40.4448 43.9395 40.6073 43.9395 40.7729C43.9395 40.9386 43.8941 41.1011 43.8081 41.2427C43.7222 41.3843 43.599 41.4997 43.4521 41.5761L35.8218 45.5443C35.6837 45.6163 35.5294 45.6514 35.3738 45.6463C35.2181 45.6412 35.0664 45.596 34.9333 45.5152C34.8002 45.4343 34.6902 45.3206 34.614 45.1848C34.5377 45.049 34.4977 44.8959 34.4979 44.7402L34.4979 43.2932H13.4997V43.2453C7.97785 43.261 0.0745999 43.2892 0.0745999 43.2892L0.0615234 40.282L0.0631398 38.2457C0.0631398 38.2457 15.0559 38.2155 18.6473 38.1544C19.9351 38.1759 21.214 37.938 22.4079 37.4549C23.6018 36.9719 24.6863 36.2536 25.5968 35.3427C26.1902 34.7491 26.7018 34.0817 27.1198 33.3582C28.504 33.701 29.9517 33.8828 31.4418 33.8828Z" fill="#155DEC"/>
</g>
</svg>
