<svg width="32" height="33" viewBox="0 0 32 33" fill="none" xmlns="http://www.w3.org/2000/svg">
<rect x="0.5" y="1.36621" width="31" height="31" rx="15.5" stroke="#B8CFF0"/>
<path d="M16 20.8662C14.886 20.8662 13.9407 20.4782 13.164 19.7022C12.3873 18.9262 11.9993 17.9809 12 16.8662C12.0007 15.7515 12.3887 14.8062 13.164 14.0302C13.9393 13.2542 14.8847 12.8662 16 12.8662C17.1153 12.8662 18.0607 13.2542 18.836 14.0302C19.6113 14.8062 19.9993 15.7515 20 16.8662C20.0007 17.9809 19.6127 18.9262 18.836 19.7022C18.0593 20.4782 17.114 20.8662 16 20.8662ZM9 17.3662H5.5V16.3662H9V17.3662ZM26.5 17.3662H23V16.3662H26.5V17.3662ZM15.5 9.86621V6.36621H16.5V9.86621H15.5ZM15.5 27.3662V23.8662H16.5V27.3662H15.5ZM10.746 12.2702L8.586 10.1722L9.281 9.42821L11.392 11.5622L10.746 12.2702ZM22.72 24.3042L20.603 22.1642L21.255 21.4622L23.415 23.5602L22.72 24.3042ZM20.596 11.6122L22.694 9.45221L23.438 10.1472L21.304 12.2582L20.596 11.6122ZM8.562 23.5862L10.702 21.4692L11.365 22.1212L9.287 24.3002L8.562 23.5862Z" fill="#B8CFF0"/>
</svg>
