<svg width="25" height="25" viewBox="0 0 25 25" fill="none" xmlns="http://www.w3.org/2000/svg">
<g clip-path="url(#clip0_7026_39853)">
<path d="M1.64453 2.3076C1.64453 2.11698 1.72025 1.93417 1.85502 1.79938C1.98979 1.66459 2.17258 1.58887 2.36318 1.58887H3.08182C3.84421 1.58887 4.57538 1.89176 5.11446 2.43091C5.65355 2.97007 5.95641 3.70132 5.95641 4.46379V18.8384C5.95641 19.6009 5.65355 20.3321 5.11446 20.8713C4.57538 21.4105 3.84421 21.7133 3.08182 21.7133H2.36318C2.17258 21.7133 1.98979 21.6376 1.85502 21.5028C1.72025 21.368 1.64453 21.1852 1.64453 20.9946C1.64453 20.804 1.72025 20.6212 1.85502 20.4864C1.98979 20.3516 2.17258 20.2759 2.36318 20.2759H3.08182C3.46302 20.2759 3.8286 20.1244 4.09814 19.8549C4.36769 19.5853 4.51912 19.2197 4.51912 18.8384V4.46379C4.51912 4.08255 4.36769 3.71693 4.09814 3.44735C3.8286 3.17778 3.46302 3.02633 3.08182 3.02633H2.36318C2.17258 3.02633 1.98979 2.95061 1.85502 2.81582C1.72025 2.68103 1.64453 2.49822 1.64453 2.3076ZM10.2683 3.02633C9.8871 3.02633 9.52152 3.17778 9.25197 3.44735C8.98243 3.71693 8.831 4.08255 8.831 4.46379V18.8384C8.831 19.2197 8.98243 19.5853 9.25197 19.8549C9.52152 20.1244 9.8871 20.2759 10.2683 20.2759H10.951C10.9284 20.3496 10.9078 20.4239 10.8892 20.4987L10.5845 21.7133H10.2683C9.5059 21.7133 8.77474 21.4105 8.23565 20.8713C7.69656 20.3321 7.39371 19.6009 7.39371 18.8384V4.46379C7.39371 3.70132 7.69656 2.97007 8.23565 2.43091C8.77474 1.89176 9.5059 1.58887 10.2683 1.58887H13.1429C13.9053 1.58887 14.6364 1.89176 15.1755 2.43091C15.7146 2.97007 16.0175 3.70132 16.0175 4.46379V14.4441L14.5802 15.8816V4.46379C14.5802 4.08255 14.4287 3.71693 14.1592 3.44735C13.8897 3.17778 13.5241 3.02633 13.1429 3.02633H10.2683ZM18.8921 4.46379V11.5692L17.4548 13.0066V4.46379C17.4548 3.70132 17.7576 2.97007 18.2967 2.43091C18.8358 1.89176 19.567 1.58887 20.3293 1.58887H21.048C21.2386 1.58887 21.4214 1.66459 21.5562 1.79938C21.6909 1.93417 21.7666 2.11698 21.7666 2.3076C21.7666 2.49822 21.6909 2.68103 21.5562 2.81582C21.4214 2.95061 21.2386 3.02633 21.048 3.02633H20.3293C19.9482 3.02633 19.5826 3.17778 19.313 3.44735C19.0435 3.71693 18.8921 4.08255 18.8921 4.46379ZM13.1141 19.3803L20.0563 12.4374C20.5606 11.9334 21.2444 11.6504 21.9574 11.6507C22.6703 11.6509 23.354 11.9345 23.8579 12.4388C24.3618 12.9432 24.6448 13.6271 24.6445 14.3402C24.6443 15.0532 24.3608 15.7369 23.8565 16.2409L16.9143 23.1824C16.5098 23.5869 16.0031 23.8741 15.4483 24.0133L13.2952 24.5509C13.0811 24.6043 12.8569 24.6013 12.6443 24.5424C12.4317 24.4835 12.2379 24.3705 12.0818 24.2146C11.9257 24.0586 11.8126 23.8649 11.7535 23.6523C11.6944 23.4397 11.6912 23.2155 11.7444 23.0013L12.2834 20.848C12.4226 20.2931 12.7097 19.7864 13.1141 19.3818" fill="white"/>
</g>
<defs>
<clipPath id="clip0_7026_39853">
<rect width="24" height="24" fill="white" transform="translate(0.644531 0.588867)"/>
</clipPath>
</defs>
</svg>
