<svg width="21" height="20" viewBox="0 0 21 20" fill="none" xmlns="http://www.w3.org/2000/svg">
<g id="ic:round-support-agent">
<path id="Vector" d="M18.1243 10.1833C18.1243 5.60833 14.5743 2.5 10.6243 2.5C6.71602 2.5 3.12435 5.54167 3.12435 10.2333C2.62435 10.5167 2.29102 11.05 2.29102 11.6667V13.3333C2.29102 14.25 3.04102 15 3.95768 15C4.41602 15 4.79102 14.625 4.79102 14.1667V10.1583C4.79102 6.96667 7.24935 4.175 10.441 4.08333C11.2221 4.05958 12.0001 4.19286 12.7288 4.47529C13.4574 4.75771 14.122 5.18353 14.6831 5.72751C15.2441 6.27149 15.6903 6.92256 15.9951 7.64215C16.3 8.36173 16.4573 9.13518 16.4577 9.91667V15.8333H10.6243C10.166 15.8333 9.79102 16.2083 9.79102 16.6667C9.79102 17.125 10.166 17.5 10.6243 17.5H16.4577C17.3743 17.5 18.1243 16.75 18.1243 15.8333V14.8167C18.616 14.5583 18.9577 14.05 18.9577 13.45V11.5333C18.9577 10.95 18.616 10.4417 18.1243 10.1833Z" fill="#2F80ED"/>
<path id="Vector_2" d="M8.12435 11.6667C8.58459 11.6667 8.95768 11.2936 8.95768 10.8333C8.95768 10.3731 8.58459 10 8.12435 10C7.66411 10 7.29102 10.3731 7.29102 10.8333C7.29102 11.2936 7.66411 11.6667 8.12435 11.6667Z" fill="#2F80ED"/>
<path id="Vector_3" d="M13.1243 11.6667C13.5846 11.6667 13.9577 11.2936 13.9577 10.8333C13.9577 10.3731 13.5846 10 13.1243 10C12.6641 10 12.291 10.3731 12.291 10.8333C12.291 11.2936 12.6641 11.6667 13.1243 11.6667Z" fill="#2F80ED"/>
<path id="Vector_4" d="M15.6244 9.19167C15.4257 8.02011 14.8189 6.95664 13.9114 6.18948C13.004 5.42233 11.8544 5.00098 10.6661 5C8.14107 5 5.4244 7.09167 5.64107 10.375C6.66868 9.95449 7.57627 9.28624 8.28293 8.42982C8.98958 7.5734 9.47334 6.55543 9.69107 5.46667C10.7827 7.65833 13.0244 9.16667 15.6244 9.19167Z" fill="#2F80ED"/>
</g>
</svg>
