<svg width="17" height="17" viewBox="0 0 17 17" fill="none" xmlns="http://www.w3.org/2000/svg">
<g id="Simplification">
<path id="Vector" d="M7.36794 3.48713C7.64545 3.74133 7.86909 4.00665 8.06248 4.32998C8.10955 4.32659 8.10955 4.32659 8.15758 4.32314C8.17806 4.32176 8.19855 4.32037 8.21966 4.31895C8.26497 4.31586 8.31028 4.31259 8.35557 4.30915C8.50115 4.29908 8.63754 4.30502 8.78319 4.31826C8.88127 4.3229 8.88127 4.3229 8.96873 4.29873C9.04176 4.22382 9.08312 4.14817 9.13133 4.05544C9.23396 3.87183 9.38448 3.72903 9.53123 3.57998C9.56441 3.54566 9.56441 3.54566 9.59825 3.51064C10.1157 3.01197 10.8619 2.79534 11.5664 2.79787C12.3698 2.81922 13.0904 3.17502 13.647 3.74636C13.8747 4.01163 14.0641 4.31522 14.1875 4.64248C14.199 4.67164 14.2104 4.70081 14.2223 4.73086C14.4676 5.42674 14.4131 6.2291 14.1037 6.89433C13.907 7.29782 13.6359 7.61664 13.3125 7.92373C13.3404 7.93887 13.3684 7.95402 13.3972 7.96963C13.6377 8.10204 13.8547 8.24277 14.0625 8.42373C14.0881 8.44556 14.1137 8.46739 14.1401 8.48989C14.9082 9.16016 15.4351 10.1102 15.5063 11.1397C15.5091 11.2312 15.5103 11.3225 15.5105 11.414C15.5107 11.4472 15.5109 11.4805 15.5111 11.5148C15.5114 11.5845 15.5116 11.6542 15.5116 11.724C15.5117 11.8297 15.5128 11.9354 15.514 12.0412C15.517 12.6045 15.4481 12.9897 15.0527 13.4159C14.7158 13.7348 14.3431 13.8137 13.8923 13.8079C13.8532 13.8078 13.8141 13.8076 13.7738 13.8075C13.671 13.807 13.5682 13.8062 13.4653 13.8052C13.3599 13.8042 13.2545 13.8038 13.1492 13.8033C12.9432 13.8023 12.7372 13.8007 12.5312 13.7987C12.5316 13.8379 12.532 13.8771 12.5325 13.9174C12.5362 14.2795 12.3546 14.6125 12.1181 14.876C11.8389 15.1476 11.5035 15.3034 11.1151 15.3033C11.092 15.3034 11.0689 15.3036 11.0451 15.3037C10.9677 15.304 10.8903 15.3041 10.8129 15.3043C10.7574 15.3045 10.7019 15.3047 10.6464 15.3049C10.4641 15.3055 10.2818 15.3059 10.0995 15.3062C10.0366 15.3063 9.97381 15.3064 9.91097 15.3066C9.61569 15.3072 9.32041 15.3076 9.02512 15.3079C8.68467 15.3082 8.34422 15.309 8.00376 15.3103C7.74038 15.3112 7.477 15.3117 7.21362 15.3118C7.05643 15.3118 6.89925 15.3121 6.74206 15.3129C6.59403 15.3136 6.44602 15.3138 6.29799 15.3134C6.24386 15.3134 6.18973 15.3136 6.1356 15.314C5.67565 15.3175 5.27643 15.2367 4.92454 14.9179C4.61739 14.5974 4.46417 14.2389 4.46873 13.7987C4.44725 13.799 4.42577 13.7993 4.40363 13.7996C4.19957 13.8021 3.9955 13.804 3.79142 13.8052C3.68654 13.8059 3.58168 13.8068 3.47681 13.8082C3.35579 13.8097 3.23478 13.8104 3.11375 13.8109C3.07673 13.8116 3.0397 13.8122 3.00155 13.8129C2.54942 13.813 2.2115 13.6564 1.8828 13.3515C1.58823 13.0402 1.48518 12.6808 1.48643 12.2609C1.48627 12.2281 1.48611 12.1954 1.48594 12.1616C1.48574 12.0926 1.48578 12.0235 1.48605 11.9544C1.48631 11.8509 1.48541 11.7474 1.48442 11.6438C1.48266 11.12 1.53186 10.6082 1.72655 10.1171C1.73582 10.093 1.74509 10.0688 1.75464 10.044C2.12746 9.10063 2.81573 8.41665 3.68748 7.92373C3.6473 7.88518 3.6473 7.88518 3.60631 7.84585C3.00484 7.26198 2.64695 6.55508 2.62498 5.70498C2.63225 4.87577 2.94002 4.18654 3.5117 3.58974C4.54486 2.58992 6.2841 2.53006 7.36794 3.48713ZM4.16209 4.40615C3.8259 4.76321 3.6599 5.2257 3.65526 5.71389C3.68093 6.25244 3.91803 6.7022 4.30272 7.07021C4.67011 7.38966 5.11396 7.5149 5.59373 7.51748C5.61436 7.50717 5.63498 7.49685 5.65623 7.48623C5.6574 7.44917 5.65857 7.41211 5.65977 7.37392C5.6923 6.51418 5.91271 5.7358 6.53123 5.11123C6.68691 4.97079 6.85409 4.84811 7.03123 4.73623C6.9989 4.51349 6.76466 4.32797 6.59569 4.19521C5.80907 3.6438 4.85157 3.7559 4.16209 4.40615ZM10.1562 4.41592C10.0532 4.52206 10.0532 4.52206 9.96873 4.64248C10.0083 4.76115 10.054 4.78149 10.1562 4.85146C10.7734 5.29078 11.157 5.90012 11.3183 6.64052C11.3648 6.91865 11.3653 7.20487 11.375 7.48623C11.7943 7.55802 12.2145 7.4205 12.5586 7.17763C12.9872 6.84484 13.2506 6.4413 13.3262 5.89443C13.3829 5.39382 13.2467 4.92718 12.9383 4.53091C12.5964 4.12112 12.1538 3.88328 11.6191 3.83193C11.0495 3.81081 10.562 4.02033 10.1562 4.41592ZM7.18748 5.92373C7.16766 5.94254 7.14785 5.96135 7.12743 5.98073C6.81782 6.29651 6.68996 6.73898 6.67772 7.16982C6.68699 7.64688 6.87942 8.14306 7.21873 8.48623C7.63152 8.84571 8.0928 9.03876 8.64647 9.01552C9.1411 8.96746 9.58954 8.74069 9.92052 8.36867C10.0835 8.16188 10.1979 7.95458 10.2812 7.70498C10.2927 7.67108 10.2927 7.67108 10.3044 7.6365C10.4313 7.17857 10.3427 6.66222 10.1152 6.25381C9.84653 5.82947 9.46758 5.51862 8.97447 5.39345C8.29088 5.24403 7.67787 5.42011 7.18748 5.92373ZM4.68748 8.64248C4.65794 8.65179 4.65794 8.65179 4.62781 8.66129C3.81282 8.92378 3.20034 9.48023 2.80662 10.2343C2.54049 10.7829 2.49921 11.3334 2.49217 11.9335C2.4915 11.9652 2.49083 11.9969 2.49014 12.0295C2.48922 12.2373 2.49769 12.4605 2.63359 12.6296C2.83781 12.8166 3.08306 12.8075 3.34264 12.8048C3.37493 12.8047 3.40722 12.8047 3.44049 12.8046C3.54301 12.8042 3.64551 12.8034 3.74803 12.8026C3.81779 12.8023 3.88756 12.802 3.95732 12.8018C4.12779 12.8011 4.29826 12.8 4.46873 12.7987C4.47201 12.7787 4.47528 12.7587 4.47866 12.7381C4.49394 12.6455 4.50953 12.5529 4.52513 12.4603C4.53027 12.4289 4.53542 12.3974 4.54072 12.365C4.66341 11.6427 4.9633 10.9822 5.43748 10.4237C5.45952 10.3966 5.48155 10.3695 5.50426 10.3416C5.83509 9.95082 6.27492 9.67029 6.71873 9.42373C6.65783 9.34252 6.60215 9.27389 6.5211 9.21218C6.42476 9.13187 6.35193 9.04112 6.27733 8.94131C6.26391 8.9238 6.2505 8.9063 6.23668 8.88827C6.17736 8.81006 6.12295 8.73265 6.07445 8.64724C6.03497 8.57033 6.03497 8.57033 5.93748 8.54873C5.52155 8.52198 5.08717 8.51378 4.68748 8.64248ZM10.8873 8.74331C10.871 8.76804 10.8547 8.79278 10.8379 8.81826C10.6854 9.04042 10.5038 9.2346 10.3125 9.42373C10.3454 9.44371 10.3782 9.46369 10.4121 9.48427C10.8961 9.78879 11.3446 10.1163 11.6875 10.58C11.7059 10.6038 11.7243 10.6277 11.7433 10.6522C12.1408 11.1884 12.3682 11.8058 12.475 12.4606C12.4805 12.4933 12.486 12.5261 12.4917 12.5598C12.505 12.6394 12.5182 12.7191 12.5312 12.7987C12.7353 12.8011 12.9393 12.8028 13.1433 12.8039C13.2126 12.8043 13.2819 12.805 13.3512 12.8058C13.4512 12.8069 13.5512 12.8075 13.6512 12.8079C13.6819 12.8084 13.7126 12.8089 13.7442 12.8093C13.9473 12.8094 14.1659 12.7975 14.3309 12.6651C14.522 12.4561 14.5092 12.2027 14.5058 11.9374C14.5056 11.9039 14.5053 11.8704 14.505 11.8359C14.5038 11.7402 14.5021 11.6445 14.5 11.5487C14.4995 11.526 14.4991 11.5032 14.4987 11.4798C14.4778 10.6531 14.1291 9.92066 13.5456 9.34148C13.4156 9.21959 13.2721 9.11741 13.125 9.01748C13.1011 9.00056 13.0773 8.98364 13.0527 8.96621C12.8848 8.85545 12.7049 8.78333 12.5176 8.71279C12.4812 8.69901 12.4812 8.69901 12.4442 8.68494C12.1178 8.56711 11.8005 8.5374 11.4551 8.53701C11.4008 8.53586 11.4008 8.53586 11.3455 8.53469C11.2934 8.53451 11.2934 8.53451 11.2403 8.53432C11.2091 8.53407 11.1779 8.53381 11.1458 8.53355C11.0144 8.55749 10.9624 8.63912 10.8873 8.74331ZM6.40623 10.8925C6.38243 10.9139 6.35862 10.9354 6.33409 10.9575C5.8565 11.4037 5.53384 12.1136 5.49643 12.7671C5.49433 12.8388 5.4932 12.9105 5.49254 12.9822C5.49229 13.0085 5.49203 13.0347 5.49177 13.0618C5.49134 13.1171 5.49101 13.1725 5.49076 13.2278C5.4904 13.2842 5.48976 13.3405 5.48884 13.3968C5.4875 13.4787 5.487 13.5605 5.48668 13.6424C5.48613 13.6673 5.48558 13.6922 5.48502 13.7179C5.4857 13.895 5.52317 13.9968 5.62498 14.1425C5.80439 14.2875 5.95319 14.3026 6.17824 14.3029C6.1989 14.303 6.21955 14.303 6.24083 14.3031C6.30979 14.3033 6.37876 14.3033 6.44772 14.3033C6.49727 14.3034 6.54681 14.3035 6.59636 14.3036C6.73078 14.3039 6.86521 14.3039 6.99964 14.304C7.08366 14.304 7.16769 14.304 7.25171 14.3041C7.54495 14.3044 7.8382 14.3045 8.13144 14.3045C8.40461 14.3045 8.67778 14.3048 8.95095 14.3053C9.18564 14.3057 9.42034 14.3059 9.65503 14.3059C9.79513 14.3059 9.93523 14.306 10.0753 14.3063C10.2071 14.3066 10.3389 14.3066 10.4707 14.3064C10.519 14.3063 10.5673 14.3064 10.6155 14.3066C10.6816 14.3068 10.7477 14.3067 10.8138 14.3065C10.8507 14.3065 10.8876 14.3065 10.9257 14.3065C11.118 14.2923 11.2685 14.249 11.4062 14.1112C11.4989 13.9613 11.5142 13.831 11.5135 13.6586C11.5137 13.6331 11.5139 13.6077 11.514 13.5815C11.5142 13.5276 11.5142 13.4737 11.5139 13.4198C11.5137 13.3393 11.5145 13.2589 11.5155 13.1785C11.5194 12.2768 11.2026 11.5085 10.5742 10.8593C10.0223 10.3085 9.26974 10.0397 8.49998 10.0331C7.68933 10.0401 6.99312 10.3304 6.40623 10.8925Z" fill="#2F80ED" stroke="#2F80ED" stroke-width="0.3"/>
</g>
</svg>
