<svg width="21" height="20" viewBox="0 0 21 20" fill="none" xmlns="http://www.w3.org/2000/svg">
<g id="carbon:review">
<path id="Vector" d="M10.375 5L11.57 7.31437L14.125 7.68563L12.25 9.375L12.875 11.875L10.375 10.4688L7.875 11.875L8.5 9.375L6.625 7.68563L9.25 7.31437L10.375 5Z" fill="#2F80ED" stroke="#2F80ED" stroke-width="0.5"/>
<path id="Vector_2" d="M11.46 18.75L10.375 18.125L12.875 13.75H16.625C16.7892 13.7502 16.9519 13.7181 17.1036 13.6554C17.2554 13.5926 17.3933 13.5006 17.5094 13.3844C17.6256 13.2683 17.7176 13.1304 17.7804 12.9786C17.8431 12.8269 17.8752 12.6642 17.875 12.5V5C17.8752 4.83578 17.8431 4.67312 17.7804 4.52135C17.7176 4.36959 17.6256 4.23169 17.5094 4.11557C17.3933 3.99944 17.2554 3.90738 17.1036 3.84465C16.9519 3.78192 16.7892 3.74975 16.625 3.75H4.125C3.96078 3.74975 3.79812 3.78192 3.64635 3.84465C3.49459 3.90738 3.35669 3.99944 3.24057 4.11557C3.12444 4.23169 3.03238 4.36959 2.96965 4.52135C2.90692 4.67312 2.87475 4.83578 2.875 5V12.5C2.87475 12.6642 2.90692 12.8269 2.96965 12.9786C3.03238 13.1304 3.12444 13.2683 3.24057 13.3844C3.35669 13.5006 3.49459 13.5926 3.64635 13.6554C3.79812 13.7181 3.96078 13.7502 4.125 13.75H9.75V15H4.125C3.46196 15 2.82607 14.7366 2.35723 14.2678C1.88839 13.7989 1.625 13.163 1.625 12.5V5C1.62492 4.67167 1.68953 4.34655 1.81513 4.04319C1.94074 3.73984 2.12489 3.46421 2.35705 3.23205C2.58921 2.99989 2.86484 2.81574 3.16819 2.69013C3.47155 2.56453 3.79667 2.49992 4.125 2.5H16.625C16.9533 2.49992 17.2785 2.56453 17.5818 2.69013C17.8852 2.81574 18.1608 2.99989 18.393 3.23205C18.6251 3.46421 18.8093 3.73984 18.9349 4.04319C19.0605 4.34655 19.1251 4.67167 19.125 5V12.5C19.125 13.163 18.8616 13.7989 18.3928 14.2678C17.9239 14.7366 17.288 15 16.625 15H13.6031L11.46 18.75Z" fill="#2F80ED" stroke="#2F80ED" stroke-width="0.5"/>
</g>
</svg>
