<svg width="15" height="14" viewBox="0 0 15 14" fill="none" xmlns="http://www.w3.org/2000/svg">
<path id="Vector" d="M1.375 1C1.375 0.933696 1.40134 0.870107 1.44822 0.823223C1.49511 0.776339 1.5587 0.75 1.625 0.75H13.625C13.6913 0.75 13.7549 0.77634 13.8018 0.823223C13.8487 0.870106 13.875 0.933695 13.875 1V3C13.875 3.06631 13.8487 3.12989 13.8018 3.17678C13.7549 3.22366 13.6913 3.25 13.625 3.25H1.625C1.5587 3.25 1.49511 3.22366 1.44822 3.17678C1.40134 3.12989 1.375 3.0663 1.375 3V1ZM1.375 7C1.375 6.9337 1.40134 6.87011 1.44822 6.82322C1.49511 6.77634 1.5587 6.75 1.625 6.75H7.625C7.6913 6.75 7.75489 6.77634 7.80178 6.82322C7.84866 6.87011 7.875 6.9337 7.875 7V13C7.875 13.0663 7.84866 13.1299 7.80178 13.1768C7.75489 13.2237 7.69131 13.25 7.625 13.25H1.625C1.55869 13.25 1.49511 13.2237 1.44822 13.1768C1.40134 13.1299 1.375 13.0663 1.375 13V7ZM11.4482 6.82322C11.4951 6.77634 11.5587 6.75 11.625 6.75H13.625C13.6913 6.75 13.7549 6.77634 13.8018 6.82322C13.8487 6.87011 13.875 6.93369 13.875 7V13C13.875 13.0663 13.8487 13.1299 13.8018 13.1768C13.7549 13.2237 13.6913 13.25 13.625 13.25H11.625C11.5587 13.25 11.4951 13.2237 11.4482 13.1768C11.4013 13.1299 11.375 13.0663 11.375 13V7C11.375 6.9337 11.4013 6.87011 11.4482 6.82322Z" stroke="#2F80ED" stroke-width="1.5"/>
</svg>
