<svg width="15" height="16" viewBox="0 0 15 16" fill="none" xmlns="http://www.w3.org/2000/svg">
<g id="Frame 1000006270">
<path id="Vector" d="M1.53037 0.910304L1.53037 0.910305L1.53144 0.909353C1.70302 0.756513 1.92326 0.666667 2.24 0.666667H8.95833V0.888889V4.44444V5.11111H9.625H13.625H13.9583V14.5644C13.9583 14.7812 13.887 14.9418 13.7201 15.0902C13.5476 15.2435 13.3267 15.3333 13.01 15.3333H2.24C1.92287 15.3333 1.70244 15.2435 1.53091 15.0911C1.36294 14.9418 1.29167 14.7807 1.29167 14.5644V1.43556C1.29167 1.21931 1.36288 1.05887 1.53037 0.910304Z" stroke="#2F80ED" stroke-width="1.33333"/>
<path id="Vector_2" d="M11.7637 7.31009L6.35698 12.7168L3.87891 10.2387L4.51419 9.60343L6.35698 11.4417L11.1284 6.6748L11.7637 7.31009Z" fill="#2F80ED"/>
</g>
</svg>
