<svg width="24" height="24" viewBox="0 0 24 24" fill="none" xmlns="http://www.w3.org/2000/svg">
<g id="mingcute:time-line">
<path id="Vector" d="M12 2.00024C17.523 2.00024 22 6.47724 22 12.0002C22 17.5232 17.523 22.0002 12 22.0002C6.477 22.0002 2 17.5232 2 12.0002C2 6.47724 6.477 2.00024 12 2.00024ZM12 4.00024C9.87827 4.00024 7.84344 4.8431 6.34315 6.34339C4.84285 7.84368 4 9.87851 4 12.0002C4 14.122 4.84285 16.1568 6.34315 17.6571C7.84344 19.1574 9.87827 20.0002 12 20.0002C14.1217 20.0002 16.1566 19.1574 17.6569 17.6571C19.1571 16.1568 20 14.122 20 12.0002C20 9.87851 19.1571 7.84368 17.6569 6.34339C16.1566 4.8431 14.1217 4.00024 12 4.00024ZM12 6.00024C12.2449 6.00028 12.4813 6.0902 12.6644 6.25296C12.8474 6.41572 12.9643 6.63999 12.993 6.88324L13 7.00024V11.5862L15.707 14.2932C15.8863 14.4732 15.9905 14.7147 15.9982 14.9686C16.006 15.2226 15.9168 15.47 15.7488 15.6605C15.5807 15.8511 15.3464 15.9705 15.0935 15.9946C14.8406 16.0187 14.588 15.9457 14.387 15.7902L14.293 15.7072L11.293 12.7072C11.1376 12.5517 11.0378 12.3492 11.009 12.1312L11 12.0002V7.00024C11 6.73503 11.1054 6.48067 11.2929 6.29314C11.4804 6.1056 11.7348 6.00024 12 6.00024Z" fill="#2F80ED"/>
</g>
</svg>
