<svg width="61" height="60" viewBox="0 0 61 60" fill="none" xmlns="http://www.w3.org/2000/svg">
<path d="M47.7948 32.9569L47.7947 32.9569L45.7492 30.6027V26.6576C45.7492 26.0389 45.5027 25.4458 45.0642 25.0086C44.6258 24.5715 44.0315 24.3261 43.412 24.3261C42.7924 24.3261 42.1981 24.5715 41.7597 25.0086C41.3213 25.4458 41.0748 26.0389 41.0748 26.6576V31.4759V31.4763C41.0755 32.0362 41.2781 32.577 41.6454 33L41.6455 33.0001L44.2617 36.0105C44.2617 36.0105 44.2617 36.0105 44.2618 36.0106C44.4627 36.2419 44.7074 36.4315 44.9818 36.5686C45.2561 36.7056 45.5548 36.7874 45.8609 36.8094C46.1669 36.8313 46.4742 36.7929 46.7654 36.6964C47.0565 36.5998 47.3258 36.447 47.5579 36.2467C47.79 36.0463 47.9803 35.8022 48.1178 35.5284L47.7827 35.3601L48.1178 35.5284C48.2554 35.2546 48.3375 34.9564 48.3596 34.6508C48.3816 34.3453 48.343 34.0384 48.2461 33.7477C48.1492 33.4571 47.9958 33.1884 47.7948 32.9569ZM2.5155 17.1825C2.07707 17.6197 1.83057 18.2128 1.83057 18.8315C1.83057 19.4502 2.07707 20.0434 2.5155 20.4805C2.9539 20.9177 3.54826 21.163 4.16778 21.163H25.098C25.7175 21.163 26.3119 20.9177 26.7503 20.4805C27.1887 20.0434 27.4352 19.4502 27.4352 18.8315C27.4352 18.2128 27.1887 17.6197 26.7503 17.1825C26.3119 16.7454 25.7175 16.5 25.098 16.5H4.16778C3.54826 16.5 2.9539 16.7454 2.5155 17.1825ZM39.3 21.9786C40.6036 21.4402 42.0009 21.163 43.412 21.163C46.2618 21.163 48.9948 22.2919 51.0096 24.3009C53.0244 26.3099 54.1562 29.0344 54.1562 31.875C54.1562 34.7156 53.0244 37.4401 51.0096 39.4491C48.9948 41.4581 46.2618 42.587 43.412 42.587C42.0009 42.587 40.6036 42.3098 39.3 41.7714C37.9964 41.233 36.8119 40.4439 35.8143 39.4491C34.8167 38.4544 34.0253 37.2735 33.4855 35.9739C32.9456 34.6744 32.6678 33.2816 32.6678 31.875C32.6678 30.4684 32.9456 29.0756 33.4855 27.7761C34.0253 26.4765 34.8167 25.2956 35.8143 24.3009C36.8119 23.3061 37.9964 22.517 39.3 21.9786ZM29.1672 25.9909C28.3922 27.8563 27.9934 29.8558 27.9934 31.875C27.9934 35.9531 29.6181 39.8639 32.5097 42.7472C35.4014 45.6304 39.323 47.25 43.412 47.25C47.5009 47.25 51.4225 45.6304 54.3142 42.7472C57.2058 39.8639 58.8306 35.9531 58.8306 31.875C58.8306 29.8558 58.4317 27.8563 57.6567 25.9909C56.8818 24.1254 55.746 22.4305 54.3142 21.0028C52.8824 19.5752 51.1826 18.4428 49.3121 17.6702C47.4415 16.8976 45.4366 16.5 43.412 16.5C41.3873 16.5 39.3825 16.8976 37.5119 17.6702C35.6413 18.4428 33.9415 19.5752 32.5097 21.0028C31.0779 22.4305 29.9421 24.1254 29.1672 25.9909ZM2.5155 30.226C2.07707 30.6631 1.83057 31.2563 1.83057 31.875C1.83057 32.4937 2.07707 33.0869 2.5155 33.524C2.9539 33.9611 3.54826 34.2065 4.16778 34.2065H19.8654C20.485 34.2065 21.0793 33.9611 21.5177 33.524C21.9562 33.0869 22.2027 32.4937 22.2027 31.875C22.2027 31.2563 21.9562 30.6631 21.5177 30.226C21.0793 29.7889 20.485 29.5435 19.8654 29.5435H4.16778C3.54826 29.5435 2.9539 29.7889 2.5155 30.226ZM2.5155 43.2695C2.07707 43.7066 1.83057 44.2998 1.83057 44.9185C1.83057 45.5372 2.07707 46.1303 2.5155 46.5675C2.9539 47.0046 3.54826 47.25 4.16778 47.25H25.098C25.7175 47.25 26.3119 47.0046 26.7503 46.5675C27.1887 46.1303 27.4352 45.5372 27.4352 44.9185C27.4352 44.2998 27.1887 43.7066 26.7503 43.2695C26.3119 42.8323 25.7175 42.587 25.098 42.587H4.16778C3.54826 42.587 2.9539 42.8323 2.5155 43.2695Z" fill="white" stroke="white" stroke-width="0.75"/>
</svg>
