<svg width="30" height="30" viewBox="0 0 30 30" fill="none" xmlns="http://www.w3.org/2000/svg">
<path id="Vector" d="M9.375 16.25C8.26248 16.25 7.17494 15.9201 6.24992 15.302C5.32489 14.6839 4.60392 13.8054 4.17818 12.7776C3.75243 11.7498 3.64104 10.6188 3.85808 9.52762C4.07512 8.43648 4.61085 7.4342 5.39752 6.64753C6.18419 5.86086 7.18647 5.32513 8.27762 5.10808C9.36876 4.89104 10.4998 5.00244 11.5276 5.42818C12.5554 5.85392 13.4339 6.57489 14.052 7.49992C14.6701 8.42494 15 9.51248 15 10.625C14.9983 12.1163 14.4052 13.5461 13.3506 14.6006C12.2961 15.6552 10.8663 16.2483 9.375 16.25ZM17.5 30H1.25C0.918479 30 0.600537 29.8683 0.366117 29.6339C0.131696 29.3995 0 29.0815 0 28.75V28.125C0 25.6386 0.98772 23.254 2.74587 21.4959C4.50403 19.7377 6.8886 18.75 9.375 18.75C11.8614 18.75 14.246 19.7377 16.0041 21.4959C17.7623 23.254 18.75 25.6386 18.75 28.125V28.75C18.75 29.0815 18.6183 29.3995 18.3839 29.6339C18.1495 29.8683 17.8315 30 17.5 30ZM21.875 11.25C20.7625 11.25 19.6749 10.9201 18.7499 10.302C17.8249 9.68394 17.1039 8.80543 16.6782 7.7776C16.2524 6.74976 16.141 5.61876 16.3581 4.52762C16.5751 3.43648 17.1109 2.4342 17.8975 1.64753C18.6842 0.860856 19.6865 0.325127 20.7776 0.108085C21.8688 -0.108957 22.9998 0.00243723 24.0276 0.42818C25.0554 0.853923 25.9339 1.57489 26.552 2.49992C27.1701 3.42495 27.5 4.51248 27.5 5.625C27.4983 7.11634 26.9052 8.54612 25.8506 9.60065C24.7961 10.6552 23.3663 11.2483 21.875 11.25ZM20.0988 13.7763C18.9345 13.9324 17.8151 14.3274 16.8106 14.9363C15.8061 15.5452 14.9382 16.3551 14.2613 17.315C17.0624 18.5871 19.2633 20.8928 20.4037 23.75H28.75C29.0815 23.75 29.3995 23.6183 29.6339 23.3839C29.8683 23.1495 30 22.8315 30 22.5V22.4525C29.9987 21.2065 29.7316 19.9751 29.2166 18.8406C28.7015 17.706 27.9504 16.6944 27.0133 15.8732C26.0762 15.052 24.9747 14.4402 23.7823 14.0786C22.5899 13.717 21.3341 13.6139 20.0988 13.7763Z" fill="#2F80ED"/>
</svg>
