<svg width="25" height="25" viewBox="0 0 25 25" fill="none" xmlns="http://www.w3.org/2000/svg">
<rect x="0.578125" y="0.706055" width="23" height="23" rx="11.5" fill="#EFF6FF"/>
<rect x="0.578125" y="0.706055" width="23" height="23" rx="11.5" stroke="#B8CFF0"/>
<path d="M5.08752 9.21221C6.9941 12.1155 8.89992 15.0188 10.8065 17.9221C11.0593 18.307 11.6195 18.2994 11.861 17.9068C14.2634 14.0066 16.6665 10.1071 19.0688 6.20679C16.3402 8.99498 13.6116 11.7832 10.883 14.5706C8.95168 12.7847 7.0196 10.9989 5.08752 9.21221Z" fill="url(#paint0_linear_3236_31941)"/>
<path d="M5.64661 8.78637C6.53089 9.30391 8.26871 10.137 10.5015 10.0524C10.7851 10.0417 12.1396 9.97543 13.7042 9.31459C15.163 8.69795 16.2828 7.78405 16.8963 7.28328C17.4551 6.82671 17.7746 6.50505 17.7888 6.5203C17.8181 6.55078 16.5258 7.9121 10.8721 13.6181C9.12974 12.0067 7.38818 10.3962 5.64661 8.78637Z" fill="url(#paint1_linear_3236_31941)"/>
<path opacity="0.29" d="M5.64664 8.78615C6.35542 9.4287 8.68126 11.3731 11.3281 10.9066C12.8709 10.6345 14.1842 9.60325 15.439 8.6177C16.5378 7.75487 17.7896 6.52237 17.7866 6.51855C17.7866 6.51855 17.7731 6.52846 17.7476 6.54981C17.6899 6.59706 17.6471 6.63365 17.6366 6.64203C17.5376 6.72664 17.4311 6.82573 17.4311 6.82573C17.3786 6.87451 17.2991 6.9454 17.1836 7.04144C17.1431 7.07574 17.0868 7.12376 17.0186 7.18092C17.0186 7.18092 16.8296 7.3387 16.6443 7.48657C15.7323 8.21296 14.959 8.67487 14.959 8.67487C13.4312 9.57048 12.0669 9.84106 11.7519 9.89975C10.8683 10.0636 10.1926 10.0598 10.0021 10.056C9.75155 10.0514 9.01052 10.0263 8.08124 9.79228C7.85473 9.73511 7.21795 9.56514 6.44242 9.20385C6.11466 9.05141 5.8454 8.90277 5.64514 8.78615H5.64664Z" fill="white"/>
<path d="M10.8832 14.5699L9.54663 16.0021L10.8067 17.9206C10.8344 17.961 10.9739 18.1553 11.2274 18.1957C11.4667 18.2339 11.7127 18.1203 11.862 17.9046C14.2628 14.0058 16.6659 10.1063 19.0683 6.20605L10.8832 14.5699Z" fill="url(#paint2_linear_3236_31941)"/>
<defs>
<linearGradient id="paint0_linear_3236_31941" x1="12.1446" y1="7.8204" x2="19.6118" y2="19.8348" gradientUnits="userSpaceOnUse">
<stop stop-color="#72BF44"/>
<stop offset="0.97" stop-color="#182E18"/>
</linearGradient>
<linearGradient id="paint1_linear_3236_31941" x1="5.64661" y1="10.0677" x2="17.7888" y2="10.0677" gradientUnits="userSpaceOnUse">
<stop stop-color="#155DEC"/>
<stop offset="0.49" stop-color="#76A6FF"/>
<stop offset="1" stop-color="#155DEC"/>
</linearGradient>
<linearGradient id="paint2_linear_3236_31941" x1="14.6416" y1="11.9219" x2="17.2922" y2="13.4653" gradientUnits="userSpaceOnUse">
<stop stop-color="#72BF44"/>
<stop offset="0.97" stop-color="#182E18"/>
</linearGradient>
</defs>
</svg>
