<svg width="61" height="60" viewBox="0 0 61 60" fill="none" xmlns="http://www.w3.org/2000/svg">
<path d="M22.8304 28.5H21.3304V30V33.8787L16.3911 28.9393L15.9518 28.5H15.3304H7.83044C5.90887 28.5 4.33044 26.9216 4.33044 25V12.5C4.33044 10.5784 5.90887 9 7.83044 9H27.8304C29.752 9 31.3304 10.5784 31.3304 12.5V25C31.3304 26.9216 29.752 28.5 27.8304 28.5H22.8304ZM39.3304 45V43.5H37.8304H32.8304C30.9089 43.5 29.3304 41.9216 29.3304 40V36.402C34.956 35.662 39.3304 30.8203 39.3304 25V24H52.8304C54.752 24 56.3304 25.5784 56.3304 27.5V40C56.3304 41.9216 54.752 43.5 52.8304 43.5H45.3304H44.7091L44.2698 43.9393L39.3304 48.8787V45Z" stroke="white" stroke-width="3"/>
</svg>
