<svg width="17" height="14" viewBox="0 0 17 14" fill="none" xmlns="http://www.w3.org/2000/svg">
<g id="Group 14204">
<path id="Vector" d="M0.219238 3.50686C2.4436 6.89406 4.66709 10.2813 6.89145 13.6685C7.18634 14.1176 7.84 14.1087 8.12176 13.6507C10.9245 9.10033 13.7282 4.55085 16.5309 0.000488281C13.3475 3.25342 10.1641 6.50635 6.98071 9.75839C4.72747 7.67484 2.47335 5.59129 0.219238 3.50686Z" fill="#65A7FF"/>
<path id="Vector_2" d="M0.871338 3.0106C1.90302 3.61441 3.93049 4.58638 6.5355 4.48767C6.86627 4.47522 8.4466 4.39785 10.2719 3.62686C11.9739 2.90745 13.2803 1.84122 13.9961 1.25697C14.648 0.724302 15.0208 0.349032 15.0374 0.366817C15.0716 0.402388 13.5639 1.99061 6.96777 8.64765C4.93504 6.76774 2.90319 4.88873 0.871338 3.0106Z" fill="#2F80ED"/>
<path id="Vector_3" d="M0.871867 3.01031C1.69878 3.75996 4.4123 6.02847 7.50033 5.48424C9.30029 5.16677 10.8325 3.9636 12.2964 2.81378C13.5784 1.80713 15.0388 0.369192 15.0353 0.364746C15.0353 0.364746 15.0196 0.376307 14.9898 0.401206C14.9225 0.45634 14.8726 0.499025 14.8603 0.508807C14.7448 0.607515 14.6206 0.72312 14.6206 0.72312C14.5593 0.780033 14.4666 0.862734 14.3318 0.974781C14.2845 1.0148 14.2189 1.07082 14.1393 1.13752C14.1393 1.13752 13.9188 1.32159 13.7026 1.49411C12.6386 2.34158 11.7364 2.88047 11.7364 2.88047C9.95395 3.92536 8.36225 4.24105 7.99473 4.30952C6.96393 4.50071 6.17551 4.49627 5.95325 4.49182C5.66099 4.48649 4.79644 4.45714 3.71226 4.18414C3.448 4.11744 2.70509 3.91914 1.80029 3.49762C1.41789 3.31977 1.10375 3.14636 0.870117 3.01031H0.871867Z" fill="#65A7FF"/>
<path id="Vector_4" d="M6.98072 9.7579L5.42139 11.4288L6.89146 13.6671C6.92384 13.7142 7.0866 13.941 7.38236 13.9881C7.6615 14.0326 7.94851 13.9001 8.12265 13.6484C10.9237 9.09984 13.7273 4.55036 16.5301 0L6.98072 9.7579Z" fill="#2F80ED"/>
</g>
</svg>
