<svg width="60" height="60" viewBox="0 0 60 60" fill="none" xmlns="http://www.w3.org/2000/svg">
<g clip-path="url(#clip0_82_79)">
<path d="M44.0625 50.625C49.7579 50.625 54.375 46.0079 54.375 40.3125C54.375 34.6171 49.7579 30 44.0625 30C38.3671 30 33.75 34.6171 33.75 40.3125C33.75 46.0079 38.3671 50.625 44.0625 50.625Z" stroke="white" stroke-width="4.5" stroke-linecap="round" stroke-linejoin="round"/>
<path d="M12.1875 50.625C17.8829 50.625 22.5 46.0079 22.5 40.3125C22.5 34.6171 17.8829 30 12.1875 30C6.49206 30 1.875 34.6171 1.875 40.3125C1.875 46.0079 6.49206 50.625 12.1875 50.625Z" stroke="white" stroke-width="4.5" stroke-linecap="round" stroke-linejoin="round"/>
<path d="M22.5 40.3125V15C22.5 11.8945 20.625 9.375 17.3438 9.375C13.2422 9.375 11.8945 11.8945 10.6641 15C10.6641 15 4.98047 29.9804 2.34375 37.207M22.5 21.5625C22.5 21.5625 24.4336 20.625 28.125 20.625C31.8164 20.625 33.75 21.5625 33.75 21.5625M22.5 31.875C22.5 31.875 24.4336 30.9375 28.125 30.9375C31.8164 30.9375 33.75 31.875 33.75 31.875M33.75 40.3125V15C33.75 11.8945 35.625 9.375 38.9062 9.375C43.0078 9.375 44.3555 11.8945 45.5859 15C45.5859 15 51.2695 29.9804 53.9062 37.207" stroke="white" stroke-width="4.5" stroke-linecap="round" stroke-linejoin="round"/>
</g>
<defs>
<clipPath id="clip0_82_79">
<rect width="60" height="60" fill="white"/>
</clipPath>
</defs>
</svg>
