<svg width="17" height="17" viewBox="0 0 17 17" fill="none" xmlns="http://www.w3.org/2000/svg">
<g id="Simplification" clip-path="url(#clip0_2487_28752)">
<path id="Vector" d="M3.70828 2.1028C3.75124 2.10268 3.7942 2.10254 3.83716 2.10237C3.95462 2.10199 4.07209 2.10199 4.18955 2.10207C4.31647 2.10208 4.4434 2.10173 4.57032 2.10144C4.81878 2.10092 5.06724 2.10075 5.3157 2.10071C5.51778 2.10068 5.71986 2.10055 5.92194 2.10036C6.49549 2.09981 7.06904 2.09952 7.64259 2.09956C7.67348 2.09957 7.70438 2.09957 7.73621 2.09957C7.76714 2.09957 7.79808 2.09958 7.82995 2.09958C8.33097 2.0996 8.83199 2.09901 9.33302 2.09813C9.84807 2.09723 10.3631 2.0968 10.8782 2.09685C11.1671 2.09687 11.456 2.0967 11.7449 2.09603C11.991 2.09546 12.237 2.09532 12.483 2.09575C12.6084 2.09595 12.7338 2.09596 12.8592 2.09541C12.9743 2.09492 13.0893 2.09501 13.2044 2.09555C13.2651 2.09569 13.3258 2.09523 13.3865 2.09473C13.9629 2.09919 14.4725 2.30154 14.8837 2.70844C15.4139 3.26983 15.4832 3.89424 15.4815 4.63023C15.4817 4.70122 15.4819 4.7722 15.4821 4.84319C15.4827 5.03502 15.4827 5.22684 15.4825 5.41867C15.4824 5.57926 15.4826 5.73985 15.4828 5.90044C15.4832 6.30116 15.4831 6.70189 15.4827 7.10261C15.4824 7.44952 15.4828 7.79643 15.4836 8.14334C15.4843 8.50072 15.4846 8.8581 15.4844 9.21549C15.4843 9.41566 15.4844 9.61583 15.4849 9.816C15.4854 10.0044 15.4853 10.1927 15.4847 10.381C15.4846 10.4498 15.4847 10.5186 15.485 10.5874C15.488 11.2584 15.399 11.8811 14.9167 12.3883C14.497 12.8083 13.9924 13.0258 13.3995 13.0301C13.3407 13.0298 13.3407 13.0298 13.2807 13.0295C13.2376 13.0296 13.1946 13.0298 13.1515 13.03C13.0343 13.0305 12.917 13.0303 12.7998 13.0301C12.6729 13.03 12.5461 13.0304 12.4192 13.0307C12.1711 13.0312 11.923 13.0312 11.6748 13.0311C11.473 13.031 11.2712 13.031 11.0694 13.0312C11.0406 13.0312 11.0118 13.0312 10.9822 13.0312C10.9237 13.0313 10.8652 13.0313 10.8067 13.0314C10.2589 13.0318 9.71115 13.0316 9.16336 13.0313C8.66295 13.031 8.16254 13.0314 7.66213 13.0321C7.1475 13.0329 6.63287 13.0332 6.11825 13.033C5.82964 13.0329 5.54104 13.0329 5.25244 13.0335C5.00674 13.0339 4.76105 13.034 4.51535 13.0334C4.39016 13.0332 4.26498 13.0331 4.1398 13.0336C4.02488 13.034 3.90998 13.0338 3.79507 13.0332C3.73448 13.0331 3.67389 13.0335 3.6133 13.034C3.03136 13.0292 2.52728 12.8229 2.11229 12.4139C1.58459 11.8663 1.51225 11.2122 1.51519 10.4877C1.51502 10.4167 1.51479 10.3457 1.51452 10.2747C1.51396 10.0832 1.51417 9.89181 1.51457 9.70038C1.51489 9.49921 1.51459 9.29804 1.5144 9.09687C1.51416 8.73759 1.51454 8.37831 1.51518 8.01903C1.51574 7.69428 1.51564 7.36954 1.51506 7.04479C1.51439 6.66628 1.51415 6.28777 1.51452 5.90926C1.51471 5.7094 1.51474 5.50955 1.51432 5.30969C1.51396 5.12172 1.51422 4.93376 1.51494 4.7458C1.5151 4.67717 1.51506 4.60854 1.51478 4.53992C1.51232 3.8715 1.60591 3.28863 2.06261 2.7674C2.07925 2.74819 2.09588 2.72897 2.11303 2.70918C2.53441 2.25561 3.11069 2.10133 3.70828 2.1028ZM2.67785 3.4842C2.50132 3.73556 2.46417 3.97387 2.46447 4.27452C2.46438 4.30365 2.46429 4.33279 2.46419 4.36281C2.46392 4.46049 2.46387 4.55817 2.46383 4.65585C2.46368 4.72587 2.46352 4.79589 2.46336 4.86591C2.46295 5.0562 2.46274 5.24648 2.46261 5.43676C2.46251 5.55567 2.46239 5.67458 2.46225 5.79349C2.46187 6.12298 2.46154 6.45248 2.46144 6.78197C2.46143 6.80305 2.46142 6.82412 2.46142 6.84584C2.46141 6.86696 2.4614 6.88808 2.4614 6.90985C2.46138 6.95265 2.46137 6.99545 2.46135 7.03825C2.46135 7.05949 2.46134 7.08072 2.46133 7.10259C2.46121 7.44641 2.46066 7.79023 2.45994 8.13405C2.45919 8.48739 2.45881 8.84074 2.45877 9.19409C2.45874 9.39234 2.45855 9.59058 2.45799 9.78883C2.45748 9.97538 2.45741 10.1619 2.45769 10.3485C2.45771 10.4168 2.45757 10.4852 2.45726 10.5535C2.45687 10.6471 2.45705 10.7406 2.45738 10.8342C2.45713 10.861 2.45687 10.8879 2.45661 10.9155C2.45928 11.2447 2.56101 11.5215 2.78136 11.7674C3.15996 12.0954 3.54424 12.116 4.02656 12.1153C4.06635 12.1154 4.10614 12.1155 4.14713 12.1155C4.25694 12.1157 4.36675 12.1157 4.47655 12.1157C4.59523 12.1157 4.7139 12.1159 4.83258 12.116C5.06484 12.1163 5.29711 12.1164 5.52937 12.1164C5.71823 12.1164 5.9071 12.1165 6.09597 12.1166C6.63195 12.1168 7.16793 12.117 7.70391 12.1169C7.73277 12.1169 7.76164 12.1169 7.79138 12.1169C7.82028 12.1169 7.84918 12.1169 7.87896 12.1169C8.34731 12.1169 8.81566 12.1172 9.28401 12.1177C9.7654 12.1181 10.2468 12.1183 10.7282 12.1183C10.9983 12.1183 11.2683 12.1184 11.5384 12.1187C11.7683 12.119 11.9983 12.1191 12.2282 12.1189C12.3454 12.1188 12.4626 12.1188 12.5798 12.119C12.7071 12.1193 12.8344 12.1191 12.9618 12.1189C12.9984 12.119 13.0351 12.1192 13.0728 12.1194C13.485 12.1177 13.9124 12.0739 14.2189 11.7674C14.4547 11.4809 14.5461 11.2046 14.5435 10.8357C14.5436 10.8064 14.5438 10.7772 14.544 10.7471C14.5444 10.6501 14.5442 10.553 14.544 10.456C14.5442 10.386 14.5444 10.3161 14.5446 10.2461C14.5452 10.0568 14.5452 9.86739 14.545 9.67801C14.5449 9.51967 14.5451 9.36133 14.5453 9.20298C14.5457 8.80796 14.5456 8.41295 14.5452 8.01793C14.5449 7.67557 14.5453 7.33323 14.5461 6.99087C14.5468 6.63858 14.5471 6.28629 14.5469 5.93399C14.5468 5.73651 14.5469 5.53904 14.5474 5.34156C14.5479 5.1558 14.5478 4.97005 14.5472 4.78429C14.5471 4.71631 14.5472 4.64834 14.5475 4.58037C14.5526 3.9604 14.5526 3.9604 14.276 3.41779C14.0076 3.15168 13.7286 3.03868 13.3556 3.03597C13.3165 3.03616 13.2773 3.03634 13.2369 3.03654C13.1944 3.03641 13.1518 3.03624 13.1093 3.03603C12.9929 3.03558 12.8765 3.03571 12.7601 3.03594C12.6343 3.03609 12.5086 3.0357 12.3829 3.03538C12.1368 3.03484 11.8906 3.03481 11.6445 3.03498C11.4444 3.0351 11.2443 3.03506 11.0442 3.03489C11.0157 3.03487 10.9872 3.03484 10.9578 3.03482C10.8999 3.03477 10.842 3.03472 10.7841 3.03468C10.2414 3.03425 9.69866 3.03442 9.15591 3.03478C8.65963 3.03509 8.16335 3.03468 7.66707 3.03393C7.15721 3.03317 6.64736 3.03287 6.1375 3.03308C5.85136 3.03319 5.56523 3.03312 5.27909 3.03257C5.0355 3.03211 4.79192 3.03209 4.54833 3.03264C4.42411 3.0329 4.2999 3.03297 4.17568 3.03249C4.06183 3.03206 3.94799 3.03221 3.83414 3.03281C3.77374 3.03298 3.71334 3.03255 3.65294 3.03208C3.25488 3.03544 2.92794 3.16651 2.67785 3.4842Z" fill="#2F80ED" stroke="#2F80ED" stroke-width="0.5"/>
<path id="Vector_2" d="M1.70698 14.5448C1.73084 14.5447 1.7547 14.5446 1.77928 14.5446C1.8595 14.5444 1.93972 14.5445 2.01993 14.5446C2.07792 14.5445 2.1359 14.5445 2.19389 14.5444C2.35345 14.5442 2.513 14.5442 2.67256 14.5442C2.84456 14.5442 3.01655 14.5441 3.18855 14.5439C3.52559 14.5437 3.86264 14.5436 4.19969 14.5436C4.47358 14.5435 4.74747 14.5435 5.02137 14.5434C5.67118 14.5431 6.321 14.543 6.97082 14.543C6.9916 14.543 7.01238 14.543 7.0338 14.543C7.13914 14.543 7.24448 14.543 7.34982 14.543C7.37075 14.543 7.39167 14.543 7.41322 14.543C7.45553 14.543 7.49784 14.543 7.54015 14.543C8.19849 14.543 8.85684 14.5428 9.51518 14.5423C10.2547 14.5419 10.9942 14.5416 11.7337 14.5416C12.1254 14.5416 12.517 14.5415 12.9086 14.5412C13.242 14.5409 13.5753 14.5409 13.9087 14.5411C14.0789 14.5412 14.249 14.5412 14.4192 14.5409C14.5749 14.5407 14.7306 14.5407 14.8863 14.541C14.9427 14.541 14.9991 14.541 15.0555 14.5408C15.132 14.5406 15.2086 14.5407 15.2852 14.541C15.3181 14.5408 15.3181 14.5408 15.3516 14.5405C15.5151 14.5417 15.6816 14.5548 15.8113 14.6619C15.8259 14.6807 15.8404 14.6994 15.8555 14.7187C15.8781 14.7467 15.8781 14.7467 15.9011 14.7752C15.98 14.8941 15.9781 15.0039 15.9688 15.1425C15.9066 15.3093 15.8154 15.4067 15.6562 15.4863C15.5791 15.4894 15.5028 15.4906 15.4256 15.4905C15.4014 15.4905 15.3772 15.4906 15.3523 15.4907C15.2704 15.4909 15.1885 15.4909 15.1066 15.4909C15.0477 15.491 14.9887 15.4911 14.9298 15.4912C14.7671 15.4915 14.6044 15.4917 14.4417 15.4917C14.2665 15.4919 14.0913 15.4922 13.9161 15.4924C13.4927 15.493 13.0693 15.4934 12.6459 15.4936C12.4467 15.4938 12.2475 15.4939 12.0483 15.4941C11.3863 15.4946 10.7244 15.4951 10.0625 15.4953C10.0197 15.4953 9.97683 15.4953 9.93401 15.4954C9.91278 15.4954 9.89154 15.4954 9.86966 15.4954C9.76206 15.4954 9.65447 15.4955 9.54688 15.4955C9.52552 15.4955 9.50417 15.4955 9.48217 15.4955C8.78971 15.4958 8.09726 15.4965 7.40481 15.4975C6.673 15.4986 5.94119 15.4992 5.20938 15.4993C4.81035 15.4994 4.41132 15.4997 4.01228 15.5004C3.67252 15.5011 3.33277 15.5014 2.99301 15.5011C2.81957 15.5009 2.64613 15.501 2.4727 15.5016C2.31401 15.5021 2.15534 15.5021 1.99665 15.5016C1.93916 15.5016 1.88166 15.5017 1.82416 15.5021C1.74615 15.5025 1.66818 15.5022 1.59017 15.5017C1.55649 15.5022 1.55649 15.5022 1.52213 15.5027C1.36546 15.5005 1.27757 15.4584 1.15625 15.3613C1.06555 15.2581 1.03389 15.1775 1.02344 15.039C1.03494 14.8693 1.08946 14.7612 1.21484 14.6484C1.37144 14.5388 1.52077 14.5442 1.70698 14.5448Z" fill="#2F80ED" stroke="#2F80ED" stroke-width="0.5"/>
<path id="Vector_3" d="M9.05583 5.38869C9.20043 5.4966 9.34811 5.5999 9.49614 5.70302C9.52252 5.72144 9.5489 5.73985 9.57608 5.75882C9.67974 5.83118 9.78346 5.90346 9.88719 5.97571C10.0401 6.08236 10.1924 6.1899 10.3438 6.29873C10.3747 6.32076 10.4056 6.3428 10.4374 6.3655C10.766 6.61203 10.9847 6.93434 11.0478 7.34304C11.0914 7.79256 10.997 8.17396 10.711 8.53115C10.4057 8.85265 9.99391 9.08585 9.62898 9.33344C9.45342 9.45284 9.28098 9.576 9.10942 9.70107C8.65915 10.0277 8.22751 10.3324 7.64324 10.2578C7.3793 10.2116 7.1539 10.1136 6.93755 9.95498C6.90726 9.93371 6.87696 9.91244 6.84575 9.89052C6.61223 9.69142 6.46993 9.37507 6.4063 9.07998C6.40347 9.03738 6.40209 8.99466 6.40191 8.95197C6.40173 8.92674 6.40155 8.90152 6.40137 8.87553C6.40133 8.84812 6.4013 8.82072 6.40126 8.79249C6.40111 8.7634 6.40095 8.73432 6.40079 8.70436C6.40034 8.60813 6.40012 8.5119 6.39995 8.41567C6.39977 8.34864 6.39959 8.2816 6.39941 8.21457C6.39908 8.07392 6.3989 7.93327 6.39879 7.79262C6.39862 7.61294 6.39787 7.43327 6.39698 7.25359C6.3964 7.11504 6.39623 6.97649 6.39619 6.83793C6.39609 6.77173 6.39584 6.70552 6.39543 6.63932C6.39489 6.54637 6.39496 6.45343 6.39516 6.36048C6.39487 6.33345 6.39458 6.30643 6.39429 6.27859C6.39698 5.87966 6.56573 5.52062 6.8438 5.23623C7.58512 4.62295 8.35833 4.86635 9.05583 5.38869ZM7.42388 6.00576C7.33494 6.14094 7.33878 6.24947 7.33827 6.40764C7.33806 6.43509 7.33786 6.46253 7.33765 6.49081C7.33703 6.58189 7.33666 6.67297 7.33635 6.76406C7.33622 6.79514 7.3361 6.82622 7.33597 6.85825C7.33531 7.02279 7.33487 7.18733 7.33457 7.35187C7.33423 7.52183 7.33315 7.69177 7.33191 7.86173C7.3311 7.99239 7.33083 8.12306 7.33072 8.25373C7.33057 8.31637 7.33021 8.37902 7.32963 8.44166C7.32887 8.52941 7.32889 8.61713 7.32911 8.70488C7.32871 8.7307 7.32831 8.75652 7.3279 8.78312C7.32939 8.9489 7.35957 9.04186 7.4688 9.17373C7.59278 9.28041 7.70074 9.31615 7.8582 9.33974C8.08123 9.31229 8.27037 9.15183 8.44536 9.02138C8.49493 8.985 8.54453 8.94867 8.59416 8.91237C8.61972 8.89366 8.64527 8.87494 8.6716 8.85566C8.80141 8.76145 8.93294 8.66975 9.0645 8.57802C9.09042 8.55988 9.11634 8.54173 9.14304 8.52304C9.27027 8.43401 9.39782 8.34553 9.52605 8.25795C9.55 8.24144 9.57394 8.22493 9.59861 8.20791C9.64315 8.1772 9.68784 8.14672 9.73272 8.11653C9.89263 8.00572 10.0516 7.87892 10.1222 7.69228C10.1343 7.52644 10.1206 7.41362 10.0313 7.26748C9.87108 7.10644 9.68661 6.97862 9.4981 6.85341C9.31566 6.73052 9.13537 6.60601 8.95903 6.47451C8.87918 6.4156 8.79906 6.35707 8.7188 6.29873C8.67794 6.26903 8.67794 6.26903 8.63626 6.23873C8.54573 6.17344 8.45461 6.10906 8.36333 6.04482C8.33472 6.02406 8.3061 6.0033 8.27662 5.98191C7.97436 5.77154 7.69239 5.71659 7.42388 6.00576Z" fill="#2F80ED" stroke="#2F80ED" stroke-width="0.5"/>
</g>
<defs>
<clipPath id="clip0_2487_28752">
<rect width="16" height="16" fill="white" transform="translate(0.5 0.798828)"/>
</clipPath>
</defs>
</svg>
