<svg width="16" height="16" viewBox="0 0 16 16" fill="none" xmlns="http://www.w3.org/2000/svg">
<path d="M5.57061 3.57026C5.57069 3.10829 5.70253 2.65591 5.95067 2.26623C6.1988 1.87655 6.55294 1.56573 6.97152 1.37024C7.3901 1.17475 7.85575 1.10271 8.31383 1.16256C8.77192 1.22242 9.20342 1.41169 9.55772 1.70816C9.91202 2.00464 10.1744 2.39602 10.3141 2.83637C10.4538 3.27673 10.4649 3.74779 10.3463 4.19428C10.2277 4.64076 9.98418 5.04415 9.64435 5.35711C9.30452 5.67006 8.88248 5.87959 8.42775 5.96112V7.71426H10.9992C11.3402 7.71426 11.6672 7.84972 11.9083 8.09084C12.1494 8.33196 12.2849 8.65898 12.2849 8.99998V10.0377C12.8824 10.1448 13.4181 10.4717 13.7866 10.954C14.1551 11.4364 14.3297 12.0392 14.2759 12.6439C14.2222 13.2485 13.944 13.8111 13.4962 14.2208C13.0483 14.6306 12.4633 14.8579 11.8563 14.8579C11.2493 14.8579 10.6643 14.6306 10.2165 14.2208C9.76866 13.8111 9.49048 13.2485 9.43673 12.6439C9.38297 12.0392 9.55753 11.4364 9.92603 10.954C10.2945 10.4717 10.8303 10.1448 11.4278 10.0377V8.99998C11.4278 8.88631 11.3826 8.7773 11.3022 8.69693C11.2219 8.61656 11.1128 8.57141 10.9992 8.57141H4.99918C4.88552 8.57141 4.77651 8.61656 4.69614 8.69693C4.61576 8.7773 4.57061 8.88631 4.57061 8.99998V10.0377C5.16809 10.1448 5.70383 10.4717 6.07233 10.954C6.44084 11.4364 6.61539 12.0392 6.56164 12.6439C6.50788 13.2485 6.2297 13.8111 5.78188 14.2208C5.33406 14.6306 4.74904 14.8579 4.14204 14.8579C3.53503 14.8579 2.95002 14.6306 2.5022 14.2208C2.05438 13.8111 1.7762 13.2485 1.72244 12.6439C1.66868 12.0392 1.84324 11.4364 2.21174 10.954C2.58024 10.4717 3.11598 10.1448 3.71347 10.0377V8.99998C3.71347 8.65898 3.84893 8.33196 4.09004 8.09084C4.33116 7.84972 4.65819 7.71426 4.99918 7.71426H7.57061V5.96112C7.00972 5.86056 6.50204 5.56597 6.13642 5.1289C5.7708 4.69182 5.57052 4.1401 5.57061 3.57026Z" fill="#4F4F4F"/>
</svg>
