<svg width="20" height="20" viewBox="0 0 20 20" fill="none" xmlns="http://www.w3.org/2000/svg">
<g id="lucide:workflow">
<g id="Group">
<path id="Vector" d="M7.5 2.5H4.16667C3.24619 2.5 2.5 3.24619 2.5 4.16667V7.5C2.5 8.42048 3.24619 9.16667 4.16667 9.16667H7.5C8.42048 9.16667 9.16667 8.42048 9.16667 7.5V4.16667C9.16667 3.24619 8.42048 2.5 7.5 2.5Z" stroke="#2F80ED" stroke-width="1.5" stroke-linecap="round" stroke-linejoin="round"/>
<path id="Vector_2" d="M5.83325 9.1665V12.4998C5.83325 12.9419 6.00885 13.3658 6.32141 13.6783C6.63397 13.9909 7.05789 14.1665 7.49992 14.1665H10.8333" stroke="#2F80ED" stroke-width="1.5" stroke-linecap="round" stroke-linejoin="round"/>
<path id="Vector_3" d="M15.8333 10.8335H12.4999C11.5794 10.8335 10.8333 11.5797 10.8333 12.5002V15.8335C10.8333 16.754 11.5794 17.5002 12.4999 17.5002H15.8333C16.7537 17.5002 17.4999 16.754 17.4999 15.8335V12.5002C17.4999 11.5797 16.7537 10.8335 15.8333 10.8335Z" stroke="#2F80ED" stroke-width="1.5" stroke-linecap="round" stroke-linejoin="round"/>
</g>
</g>
</svg>
