<svg width="16" height="17" viewBox="0 0 16 17" fill="none" xmlns="http://www.w3.org/2000/svg">
<path d="M6 2.49988H3.33333C2.59695 2.49988 2 3.09683 2 3.83321V6.49988C2 7.23626 2.59695 7.83321 3.33333 7.83321H6C6.73638 7.83321 7.33333 7.23626 7.33333 6.49988V3.83321C7.33333 3.09683 6.73638 2.49988 6 2.49988Z" stroke="#4F4F4F" stroke-width="1.33333" stroke-linecap="round" stroke-linejoin="round"/>
<path d="M4.66699 7.83325V10.4999C4.66699 10.8535 4.80747 11.1927 5.05752 11.4427C5.30756 11.6928 5.6467 11.8333 6.00033 11.8333H8.66699" stroke="#4F4F4F" stroke-width="1.33333" stroke-linecap="round" stroke-linejoin="round"/>
<path d="M12.667 9.16663H10.0003C9.26395 9.16663 8.66699 9.76358 8.66699 10.5V13.1666C8.66699 13.903 9.26395 14.5 10.0003 14.5H12.667C13.4034 14.5 14.0003 13.903 14.0003 13.1666V10.5C14.0003 9.76358 13.4034 9.16663 12.667 9.16663Z" stroke="#4F4F4F" stroke-width="1.33333" stroke-linecap="round" stroke-linejoin="round"/>
</svg>
