<svg width="18" height="18" viewBox="0 0 18 18" fill="none" xmlns="http://www.w3.org/2000/svg">
<path id="Vector" d="M15.9729 4.59479L15.9743 4.59607C16.0557 4.66953 16.1331 4.74728 16.2062 4.82897C16.6659 5.34065 16.8447 5.94949 16.9248 6.58592C17.0001 7.1843 17 7.92843 17 8.7969L17 8.8586V10.4L17 10.4699C17 11.7302 17.0001 12.7762 16.8885 13.6056C16.7711 14.4788 16.5137 15.2601 15.8867 15.8867M15.9729 4.59479L9.00667 2.69246L8.62211 2.30789C8.61294 2.29873 8.6039 2.28969 8.59498 2.28076C8.42943 2.11515 8.30375 1.98942 8.16738 1.87578L8.16739 1.87578L8.16536 1.8741C7.577 1.38641 6.85525 1.08745 6.09436 1.01625L6.09222 1.01605C5.91565 0.999912 5.73653 0.999948 5.50352 0.999995C5.49084 0.999997 5.478 1 5.465 1C5.43278 1 5.40103 0.999986 5.36972 0.999972C4.84527 0.99974 4.44675 0.999563 4.09441 1.06649C3.344 1.20833 2.65373 1.573 2.11362 2.11294C1.57307 2.65332 1.20835 3.34451 1.06643 4.09472L2.049 4.2806L1.06661 4.09373C0.999562 4.44624 0.99974 4.84558 0.999972 5.36982C0.999986 5.40109 1 5.43282 1 5.465V10.4L0.999999 10.4699C0.999961 11.7302 0.99993 12.7762 1.11147 13.6056C1.2289 14.4787 1.48622 15.2598 2.11299 15.8864C2.73967 16.5136 3.52103 16.7711 4.3944 16.8885C5.22375 17.0001 6.26982 17 7.53014 17L7.6 17H10.4L10.4699 17C11.7302 17 12.7762 17.0001 13.6056 16.8885C14.4788 16.7711 15.2601 16.5137 15.8867 15.8867M15.9729 4.59479C15.4607 4.13412 14.8511 3.95514 14.2139 3.87509C13.6156 3.79992 12.8716 3.79996 12.003 3.8L11.9414 3.8H11.6796C10.8171 3.8 10.5773 3.79115 10.3661 3.73121C10.2335 3.69324 10.1057 3.64016 9.98524 3.57301L9.98389 3.57226M15.9729 4.59479L9.98389 3.57226M15.8867 15.8867C15.8866 15.8868 15.8865 15.8869 15.8864 15.887L15.1796 15.1796L15.887 15.8864C15.8869 15.8865 15.8868 15.8866 15.8867 15.8867ZM9.98389 3.57226C9.79339 3.46647 9.61919 3.30422 9.00711 2.69289L9.98389 3.57226Z" stroke="#2F80ED" stroke-width="2"/>
</svg>
