<svg width="32" height="32" viewBox="0 0 32 32" fill="none" xmlns="http://www.w3.org/2000/svg">
<rect width="32" height="32" rx="16" fill="url(#paint0_linear_64_15821)"/>
<g clip-path="url(#clip0_64_15821)">
<path d="M12.2325 8.04883C12.3856 8.13813 12.4761 8.27166 12.5314 8.4375C12.5314 8.70563 12.5314 8.97375 12.5314 9.25C13.4595 9.25 14.3876 9.25 15.3439 9.25C15.3439 8.98188 15.3439 8.71375 15.3439 8.4375C15.4848 8.15569 15.4848 8.15569 15.5802 8.09571C15.5983 8.08382 15.6164 8.07194 15.635 8.0597C15.8106 7.96477 16.0416 7.96889 16.2311 8.02027C16.3875 8.09013 16.4817 8.19404 16.5626 8.34375C16.6582 8.63051 16.5939 8.94774 16.5939 9.25C17.5323 9.25 18.4707 9.25 19.4376 9.25C19.4376 8.98188 19.4376 8.71375 19.4376 8.4375C19.5785 8.15569 19.5785 8.15569 19.6739 8.09571C19.692 8.08382 19.7101 8.07194 19.7287 8.0597C19.9043 7.96477 20.1354 7.96889 20.3248 8.02027C20.4813 8.09013 20.5754 8.19404 20.6564 8.34375C20.6901 8.44493 20.6912 8.51805 20.6907 8.62439C20.6906 8.66075 20.6905 8.6971 20.6903 8.73456C20.6901 8.77253 20.6898 8.8105 20.6896 8.84961C20.6894 8.88794 20.6893 8.92627 20.6891 8.96576C20.6888 9.06051 20.6882 9.15526 20.6876 9.25C20.721 9.24935 20.7543 9.24869 20.7887 9.24802C20.9149 9.24572 21.0412 9.24431 21.1675 9.24314C21.2217 9.24252 21.2759 9.24167 21.33 9.24057C21.7914 9.23149 22.225 9.27031 22.6388 9.49414C22.6595 9.50501 22.6803 9.51587 22.7017 9.52707C22.868 9.6164 23.0167 9.71606 23.1564 9.84375C23.1842 9.86877 23.2121 9.89379 23.2408 9.91956C23.6978 10.351 23.9912 10.9452 24.0122 11.5788C24.0129 11.6511 24.013 11.7235 24.0127 11.7958C24.0131 11.8557 24.013 11.8557 24.0134 11.9167C24.0139 12.0248 24.0139 12.1328 24.0137 12.2409C24.0136 12.3316 24.0138 12.4222 24.014 12.5128C24.0144 12.7267 24.0144 12.9405 24.014 13.1543C24.0137 13.3743 24.0141 13.5942 24.015 13.8142C24.0157 14.0039 24.0159 14.1936 24.0157 14.3832C24.0156 14.4962 24.0156 14.6091 24.0162 14.7221C24.0168 14.8478 24.0163 14.9736 24.0158 15.0994C24.0161 15.1364 24.0164 15.1735 24.0167 15.2116C24.0146 15.4466 23.9909 15.6327 23.8183 15.8075C23.8003 15.8188 23.7823 15.8301 23.7638 15.8418C23.7366 15.8596 23.7366 15.8596 23.709 15.8778C23.5334 15.9727 23.3023 15.9686 23.1129 15.9172C22.9564 15.8474 22.8623 15.7435 22.7814 15.5938C22.751 15.5026 22.746 15.4438 22.7456 15.3489C22.7454 15.3177 22.7451 15.2866 22.7449 15.2545C22.7448 15.2033 22.7448 15.2033 22.7447 15.1511C22.7445 15.1151 22.7443 15.0791 22.744 15.042C22.7436 14.9637 22.7432 14.8854 22.7429 14.8071C22.7424 14.6829 22.7417 14.5587 22.7409 14.4346C22.7387 14.0815 22.7368 13.7284 22.7352 13.3753C22.7343 13.1803 22.7332 12.9853 22.7319 12.7903C22.7312 12.6873 22.7306 12.5843 22.7303 12.4813C22.7299 12.366 22.7292 12.2506 22.7283 12.1353C22.7283 12.085 22.7283 12.085 22.7283 12.0336C22.724 11.5897 22.655 11.2036 22.3445 10.8694C21.9793 10.5403 21.5444 10.5293 21.0782 10.5137C21.0218 10.5117 21.0218 10.5117 20.9642 10.5096C20.872 10.5063 20.7798 10.5031 20.6876 10.5C20.6883 10.5233 20.6889 10.5466 20.6896 10.5706C20.6922 10.6773 20.6938 10.7839 20.6954 10.8906C20.6965 10.9273 20.6975 10.9639 20.6986 11.0017C20.701 11.2161 20.6931 11.3861 20.5626 11.5625C20.5058 11.62 20.5058 11.62 20.4513 11.6543C20.4332 11.6662 20.4151 11.6781 20.3965 11.6903C20.2209 11.7852 19.9898 11.7811 19.8004 11.7297C19.6439 11.6599 19.5498 11.556 19.4689 11.4063C19.3733 11.1195 19.4376 10.8023 19.4376 10.5C18.4992 10.5 17.5607 10.5 16.5939 10.5C16.5939 10.7681 16.5939 11.0363 16.5939 11.3125C16.4529 11.5943 16.4529 11.5943 16.3575 11.6543C16.3394 11.6662 16.3213 11.6781 16.3027 11.6903C16.1271 11.7852 15.8961 11.7811 15.7066 11.7297C15.5502 11.6599 15.456 11.556 15.3751 11.4063C15.2795 11.1195 15.3439 10.8023 15.3439 10.5C14.4157 10.5 13.4876 10.5 12.5314 10.5C12.5314 10.7681 12.5314 11.0363 12.5314 11.3125C12.3904 11.5943 12.3904 11.5943 12.295 11.6543C12.2769 11.6662 12.2588 11.6781 12.2402 11.6903C12.0646 11.7852 11.8336 11.7811 11.6441 11.7297C11.4877 11.6599 11.3935 11.556 11.3126 11.4063C11.2789 11.3051 11.2778 11.232 11.2783 11.1256C11.2784 11.0711 11.2784 11.0711 11.2786 11.0154C11.279 10.9585 11.279 10.9585 11.2794 10.9004C11.2795 10.8621 11.2797 10.8237 11.2798 10.7842C11.2802 10.6895 11.2807 10.5948 11.2814 10.5C11.1589 10.5035 11.0366 10.5076 10.9142 10.5117C10.88 10.5127 10.8459 10.5137 10.8108 10.5147C10.357 10.5308 9.96305 10.5864 9.61948 10.9056C9.29511 11.2655 9.27657 11.6875 9.27717 12.1477C9.27707 12.2073 9.27707 12.2073 9.27696 12.2682C9.27677 12.3781 9.27677 12.4879 9.27681 12.5978C9.27681 12.7165 9.27664 12.8352 9.27649 12.9539C9.27623 13.1863 9.27615 13.4187 9.27613 13.651C9.27611 13.84 9.27605 14.0289 9.27595 14.2179C9.27568 14.7541 9.27553 15.2902 9.27556 15.8264C9.27556 15.8697 9.27556 15.8697 9.27556 15.9139C9.27556 15.9573 9.27556 15.9573 9.27556 16.0015C9.27558 16.4701 9.27528 16.9387 9.27484 17.4072C9.27439 17.8887 9.27417 18.3703 9.2742 18.8518C9.27421 19.122 9.27412 19.3922 9.27379 19.6623C9.2735 19.8924 9.27343 20.1224 9.27365 20.3525C9.27375 20.4697 9.27375 20.587 9.27348 20.7043C9.27319 20.8317 9.27338 20.959 9.27362 21.0864C9.27346 21.1231 9.2733 21.1598 9.27314 21.1976C9.27501 21.6487 9.33964 22.0404 9.65574 22.3806C10.0387 22.7258 10.4946 22.7234 10.9806 22.7232C11.0292 22.7233 11.0778 22.7234 11.1264 22.7235C11.2306 22.7238 11.3348 22.7239 11.4391 22.724C11.604 22.7242 11.769 22.7247 11.934 22.7253C11.9906 22.7255 12.0472 22.7257 12.1037 22.7259C12.1321 22.726 12.1604 22.7261 12.1896 22.7262C12.5733 22.7275 12.9571 22.7286 13.3408 22.7289C13.6001 22.7292 13.8594 22.7299 14.1187 22.7311C14.2558 22.7317 14.3928 22.7321 14.5299 22.732C14.6587 22.7318 14.7876 22.7322 14.9165 22.7331C14.9636 22.7333 15.0108 22.7333 15.058 22.7331C15.5729 22.7309 15.5729 22.7309 15.7763 22.9318C15.7877 22.9498 15.799 22.9678 15.8106 22.9863C15.8285 23.0135 15.8285 23.0135 15.8467 23.0411C15.9416 23.2167 15.9375 23.4478 15.8861 23.6372C15.8162 23.7937 15.7123 23.8878 15.5626 23.9688C15.455 24.0046 15.3716 24.0042 15.2581 24.0046C15.2257 24.0048 15.2257 24.0048 15.1928 24.005C15.1204 24.0053 15.048 24.0054 14.9756 24.0055C14.9238 24.0057 14.8719 24.0059 14.8201 24.0062C14.6495 24.0068 14.4789 24.0071 14.3083 24.0075C14.2495 24.0076 14.1907 24.0077 14.1318 24.0078C13.8551 24.0084 13.5784 24.0089 13.3017 24.0091C12.9831 24.0094 12.6645 24.0103 12.346 24.0115C12.0993 24.0125 11.8526 24.0129 11.606 24.013C11.4589 24.0131 11.3118 24.0134 11.1647 24.0142C11.026 24.0149 10.8873 24.015 10.7485 24.0147C10.698 24.0147 10.6474 24.0149 10.5969 24.0153C10.1659 24.0188 9.74713 23.9645 9.36143 23.7559C9.34067 23.745 9.31992 23.7341 9.29854 23.7229C9.13218 23.6336 8.98352 23.5339 8.84385 23.4063C8.81597 23.3812 8.7881 23.3562 8.75938 23.3304C8.2994 22.8962 8.00754 22.2997 7.98822 21.6624C7.98767 21.5853 7.98762 21.5081 7.98799 21.4309C7.98785 21.3876 7.98768 21.3443 7.98747 21.301C7.98703 21.1831 7.98716 21.0653 7.98739 20.9475C7.98754 20.8199 7.98714 20.6924 7.98682 20.5649C7.98629 20.3154 7.98626 20.066 7.98642 19.8166C7.98655 19.6138 7.9865 19.4109 7.98634 19.208C7.98631 19.1791 7.98629 19.1501 7.98627 19.1203C7.98622 19.0615 7.98617 19.0027 7.98612 18.9439C7.98569 18.3932 7.98586 17.8424 7.98622 17.2917C7.98653 16.7887 7.98613 16.2856 7.98538 15.7826C7.98462 15.2652 7.98432 14.7478 7.98453 14.2304C7.98464 13.9402 7.98457 13.6501 7.98402 13.36C7.98356 13.113 7.98354 12.866 7.98408 12.619C7.98435 12.4932 7.98442 12.3674 7.98394 12.2416C7.97988 11.1001 7.97988 11.1001 8.24424 10.6113C8.2551 10.5906 8.26597 10.5698 8.27716 10.5484C8.3665 10.3821 8.46615 10.2334 8.59385 10.0938C8.63137 10.0519 8.63137 10.0519 8.66966 10.0093C9.08084 9.5737 9.65882 9.26484 10.2663 9.24253C10.4204 9.23972 10.5745 9.24177 10.7286 9.24414C10.7825 9.24462 10.8363 9.24504 10.8902 9.24543C11.0206 9.24645 11.151 9.24806 11.2814 9.25C11.2804 9.21505 11.2804 9.21505 11.2794 9.17939C11.2768 9.07272 11.2751 8.96606 11.2735 8.85938C11.2725 8.82272 11.2714 8.78606 11.2704 8.74829C11.268 8.53387 11.2758 8.36391 11.4064 8.1875C11.4631 8.13001 11.4631 8.13001 11.5177 8.09571C11.5358 8.08382 11.5539 8.07194 11.5725 8.0597C11.7641 7.95612 12.0356 7.96088 12.2325 8.04883Z" fill="white"/>
<path d="M22.5823 17.2267C22.6389 17.2754 22.6949 17.325 22.7502 17.3752C22.7662 17.3897 22.7823 17.4041 22.7988 17.4191C23.3398 17.9148 23.7108 18.5439 23.9065 19.2502C23.9165 19.2857 23.9265 19.3212 23.9367 19.3577C24.1648 20.3365 23.9779 21.3976 23.4508 22.2473C23.3348 22.4266 23.2063 22.592 23.0627 22.7502C23.0482 22.7662 23.0337 22.7822 23.0188 22.7987C22.5231 23.3398 21.894 23.7108 21.1877 23.9064C21.1522 23.9164 21.1167 23.9264 21.0802 23.9367C20.1014 24.1648 19.0403 23.9778 18.1906 23.4507C18.0113 23.3348 17.8459 23.2062 17.6877 23.0627C17.6717 23.0482 17.6557 23.0337 17.6392 23.0188C17.0981 22.523 16.7271 21.894 16.5315 21.1877C16.5215 21.1522 16.5115 21.1167 16.5012 21.0801C16.2731 20.1013 16.4601 19.0402 16.9872 18.1906C17.1031 18.0113 17.2317 17.8459 17.3752 17.6877C17.3897 17.6716 17.4042 17.6556 17.4191 17.6391C17.9149 17.098 18.5439 16.7271 19.2502 16.5314C19.2857 16.5214 19.3212 16.5114 19.3578 16.5011C20.4779 16.2402 21.6838 16.5196 22.5823 17.2267ZM19.3752 17.8439C19.3434 17.8545 19.3117 17.8651 19.2789 17.876C18.6974 18.0902 18.2015 18.5706 17.938 19.1282C17.6748 19.743 17.6115 20.4265 17.844 21.0627C17.8546 21.0945 17.8652 21.1262 17.8761 21.159C18.0902 21.7405 18.5706 22.2363 19.1282 22.4999C19.743 22.7631 20.4266 22.8264 21.0627 22.5939C21.0945 22.5833 21.1263 22.5727 21.159 22.5618C21.7406 22.3476 22.2364 21.8673 22.4999 21.3097C22.7632 20.6949 22.8265 20.0113 22.594 19.3752C22.5781 19.3275 22.5781 19.3275 22.5619 19.2789C22.3477 18.6973 21.8673 18.2015 21.3097 17.938C20.6949 17.6747 20.0114 17.6114 19.3752 17.8439Z" fill="white"/>
<path d="M20.5449 18.3613C20.698 18.4506 20.7885 18.5842 20.8438 18.75C20.8464 18.8145 20.8471 18.8791 20.8468 18.9437C20.8467 18.9815 20.8466 19.0193 20.8465 19.0582C20.8461 19.1174 20.8461 19.1174 20.8457 19.1777C20.8456 19.2176 20.8454 19.2574 20.8453 19.2984C20.8449 19.3969 20.8444 19.4953 20.8438 19.5938C20.8747 19.5923 20.9056 19.5909 20.9375 19.5894C21.3923 19.5742 21.3923 19.5742 21.5625 19.7188C21.7289 19.9031 21.7615 20.0645 21.7586 20.3101C21.744 20.4741 21.6939 20.5936 21.5713 20.7051C21.3965 20.8354 21.2472 20.8493 21.0319 20.8512C20.9903 20.8516 20.9903 20.8516 20.9479 20.852C20.8892 20.8524 20.8305 20.8527 20.7718 20.853C20.6825 20.8535 20.5933 20.8549 20.5041 20.8563C20.447 20.8566 20.3898 20.8568 20.3327 20.8571C20.3062 20.8576 20.2798 20.8582 20.2525 20.8587C20.0468 20.858 19.8733 20.8096 19.7238 20.662C19.7124 20.644 19.7011 20.626 19.6895 20.6074C19.6776 20.5893 19.6657 20.5713 19.6535 20.5526C19.5975 20.4491 19.5895 20.3628 19.5882 20.2475C19.5878 20.2152 19.5874 20.1828 19.587 20.1495C19.5868 20.1146 19.5866 20.0796 19.5863 20.0436C19.5861 20.0075 19.5858 19.9715 19.5855 19.9344C19.5851 19.858 19.5848 19.7817 19.5845 19.7053C19.584 19.5889 19.5826 19.4725 19.5812 19.3561C19.5809 19.2819 19.5807 19.2077 19.5805 19.1334C19.5799 19.0988 19.5794 19.0641 19.5788 19.0284C19.5794 18.7971 19.6057 18.6145 19.7755 18.4425C19.7935 18.4312 19.8115 18.4199 19.8301 18.4082C19.8572 18.3904 19.8572 18.3904 19.8849 18.3722C20.0765 18.2686 20.348 18.2734 20.5449 18.3613Z" fill="white"/>
<path d="M14.9513 19.4238C15.1043 19.5131 15.1948 19.6467 15.2501 19.8125C15.2707 20.0412 15.2732 20.2515 15.1251 20.4375C14.9415 20.6044 14.7787 20.6365 14.5338 20.6335C14.3697 20.619 14.2502 20.5689 14.1388 20.4463C13.9894 20.246 13.9783 20.0581 14.0001 19.8125C14.048 19.6359 14.1403 19.5338 14.2912 19.4347C14.4828 19.3311 14.7543 19.3359 14.9513 19.4238Z" fill="white"/>
<path d="M12.2325 19.4238C12.3856 19.5131 12.476 19.6467 12.5313 19.8125C12.552 20.0412 12.5545 20.2515 12.4063 20.4375C12.2228 20.6044 12.06 20.6365 11.815 20.6335C11.651 20.619 11.5315 20.5689 11.42 20.4463C11.2706 20.246 11.2595 20.0581 11.2813 19.8125C11.3292 19.6359 11.4216 19.5338 11.5725 19.4347C11.7641 19.3311 12.0355 19.3359 12.2325 19.4238Z" fill="white"/>
<path d="M14.9513 16.7051C15.1043 16.7944 15.1948 16.9279 15.2501 17.0938C15.2707 17.3224 15.2732 17.5327 15.1251 17.7188C14.9415 17.8856 14.7787 17.9178 14.5338 17.9148C14.3697 17.9002 14.2502 17.8501 14.1388 17.7275C13.9894 17.5272 13.9783 17.3393 14.0001 17.0938C14.048 16.9172 14.1403 16.8151 14.2912 16.7159C14.4828 16.6124 14.7543 16.6171 14.9513 16.7051Z" fill="white"/>
<path d="M12.2325 16.7051C12.3856 16.7944 12.476 16.9279 12.5313 17.0938C12.552 17.3224 12.5545 17.5327 12.4063 17.7188C12.2228 17.8856 12.06 17.9178 11.815 17.9148C11.651 17.9002 11.5315 17.8501 11.42 17.7275C11.2706 17.5272 11.2595 17.3393 11.2813 17.0938C11.3292 16.9172 11.4216 16.8151 11.5725 16.7159C11.7641 16.6124 12.0355 16.6171 12.2325 16.7051Z" fill="white"/>
<path d="M20.3888 13.9863C20.5418 14.0756 20.6323 14.2092 20.6876 14.375C20.7082 14.6037 20.7107 14.814 20.5626 15C20.379 15.1669 20.2162 15.199 19.9713 15.196C19.8072 15.1815 19.6877 15.1314 19.5763 15.0088C19.4269 14.8085 19.4158 14.6206 19.4376 14.375C19.4855 14.1984 19.5778 14.0963 19.7287 13.9972C19.9203 13.8936 20.1918 13.8984 20.3888 13.9863Z" fill="white"/>
<path d="M17.67 13.9863C17.8231 14.0756 17.9135 14.2092 17.9688 14.375C17.9895 14.6037 17.992 14.814 17.8438 15C17.6603 15.1669 17.4975 15.199 17.2525 15.196C17.0885 15.1815 16.969 15.1314 16.8575 15.0088C16.7081 14.8085 16.697 14.6206 16.7188 14.375C16.7667 14.1984 16.8591 14.0963 17.01 13.9972C17.2016 13.8936 17.473 13.8984 17.67 13.9863Z" fill="white"/>
<path d="M14.9513 13.9863C15.1043 14.0756 15.1948 14.2092 15.2501 14.375C15.2707 14.6037 15.2732 14.814 15.1251 15C14.9415 15.1669 14.7787 15.199 14.5338 15.196C14.3697 15.1815 14.2502 15.1314 14.1388 15.0088C13.9894 14.8085 13.9783 14.6206 14.0001 14.375C14.048 14.1984 14.1403 14.0963 14.2912 13.9972C14.4828 13.8936 14.7543 13.8984 14.9513 13.9863Z" fill="white"/>
<path d="M12.2325 13.9863C12.3856 14.0756 12.476 14.2092 12.5313 14.375C12.552 14.6037 12.5545 14.814 12.4063 15C12.2228 15.1669 12.06 15.199 11.815 15.196C11.651 15.1815 11.5315 15.1314 11.42 15.0088C11.2706 14.8085 11.2595 14.6206 11.2813 14.375C11.3292 14.1984 11.4216 14.0963 11.5725 13.9972C11.7641 13.8936 12.0355 13.8984 12.2325 13.9863Z" fill="white"/>
</g>
<defs>
<linearGradient id="paint0_linear_64_15821" x1="2.048" y1="29.44" x2="28.608" y2="3.872" gradientUnits="userSpaceOnUse">
<stop stop-color="#52528B"/>
<stop offset="0.671875" stop-color="#8484D6"/>
<stop offset="1" stop-color="#C2C2F9"/>
</linearGradient>
<clipPath id="clip0_64_15821">
<rect width="16" height="16" fill="white" transform="translate(8 8)"/>
</clipPath>
</defs>
</svg>
