<svg width="32" height="32" viewBox="0 0 32 32" fill="none" xmlns="http://www.w3.org/2000/svg">
<rect width="32" height="32" rx="16" fill="url(#paint0_linear_64_15864)"/>
<path d="M14 13.5H15V16.5H14V13.5ZM11.5 14.5H12.5V16.5H11.5V14.5ZM9 11.5H10V16.5H9V11.5Z" fill="white"/>
<path d="M23 22.293L19.224 18.517C20.0491 17.5309 20.5008 16.2858 20.5 15C20.5 11.9675 18.0325 9.5 15 9.5C13.7985 9.5 12.6575 9.88 11.6995 10.6L12.2995 11.4C13.0772 10.8131 14.0257 10.497 15 10.5C17.4815 10.5 19.5 12.5185 19.5 15C19.5 17.4815 17.4815 19.5 15 19.5C14.3009 19.5027 13.6109 19.3413 12.9856 19.0287C12.3604 18.716 11.8172 18.2609 11.4 17.7L10.6 18.301C11.1102 18.9862 11.7741 19.5421 12.5383 19.9241C13.3025 20.306 14.1457 20.5032 15 20.5C16.3365 20.5 17.563 20.02 18.517 19.224L22.293 23L23 22.293Z" fill="white"/>
<defs>
<linearGradient id="paint0_linear_64_15864" x1="2.048" y1="29.44" x2="28.608" y2="3.872" gradientUnits="userSpaceOnUse">
<stop stop-color="#52528B"/>
<stop offset="0.671875" stop-color="#8484D6"/>
<stop offset="1" stop-color="#C2C2F9"/>
</linearGradient>
</defs>
</svg>
