<svg width="32" height="32" viewBox="0 0 32 32" fill="none" xmlns="http://www.w3.org/2000/svg">
<rect width="32" height="32" rx="16" fill="url(#paint0_radial_64_15634)"/>
<g clip-path="url(#clip0_64_15634)">
<path d="M9.875 16L10.561 13.257C10.6152 13.0408 10.74 12.8488 10.9158 12.7117C11.0915 12.5745 11.3081 12.5 11.531 12.5H22.469C22.621 12.5 22.771 12.5347 22.9076 12.6013C23.0442 12.668 23.1638 12.765 23.2573 12.8848C23.3509 13.0046 23.4158 13.1442 23.4473 13.2929C23.4788 13.4416 23.4759 13.5956 23.439 13.743L23.124 15.003M14 21.5H10.004C9.80668 21.5005 9.6112 21.4621 9.42875 21.387C9.2463 21.3118 9.08046 21.2014 8.94075 21.0621C8.80104 20.9227 8.69019 20.7572 8.61456 20.575C8.53893 20.3927 8.5 20.1973 8.5 20V11.5C8.5 11.2348 8.60536 10.9804 8.79289 10.7929C8.98043 10.6054 9.23478 10.5 9.5 10.5H14.5C14.7652 10.5 15.0196 10.6054 15.2071 10.7929C15.3946 10.9804 15.5 11.2348 15.5 11.5V12.5" stroke="white" stroke-width="1.3" stroke-linecap="round" stroke-linejoin="round"/>
<path d="M21.5 18.167V17.333C21.5 17.1121 21.4122 16.9002 21.256 16.744C21.0998 16.5878 20.8879 16.5 20.667 16.5H17.333C17.1121 16.5 16.9002 16.5878 16.744 16.744C16.5878 16.9002 16.5 17.1121 16.5 17.333V20.667C16.5 21.127 16.873 21.5 17.333 21.5H18.167M19.5 18.5H22.5C22.7652 18.5 23.0196 18.6054 23.2071 18.7929C23.3946 18.9804 23.5 19.2348 23.5 19.5V22.5C23.5 22.7652 23.3946 23.0196 23.2071 23.2071C23.0196 23.3946 22.7652 23.5 22.5 23.5H19.5C19.2348 23.5 18.9804 23.3946 18.7929 23.2071C18.6054 23.0196 18.5 22.7652 18.5 22.5V19.5C18.5 19.2348 18.6054 18.9804 18.7929 18.7929C18.9804 18.6054 19.2348 18.5 19.5 18.5Z" stroke="white" stroke-width="1.3" stroke-linecap="round" stroke-linejoin="round"/>
</g>
<defs>
<radialGradient id="paint0_radial_64_15634" cx="0" cy="0" r="1" gradientUnits="userSpaceOnUse" gradientTransform="translate(5.95594 6.56194) rotate(38.1157) scale(20.8508 57.6052)">
<stop stop-color="white"/>
<stop offset="0.36" stop-color="#7551FF"/>
<stop offset="0.755" stop-color="#5000FF"/>
<stop offset="0.975" stop-color="#B960FF"/>
</radialGradient>
<clipPath id="clip0_64_15634">
<rect width="16" height="16" fill="white" transform="translate(8 8)"/>
</clipPath>
</defs>
</svg>
