<svg width="32" height="32" viewBox="0 0 32 32" fill="none" xmlns="http://www.w3.org/2000/svg">
<rect width="32" height="32" rx="16" fill="url(#paint0_radial_64_15641)"/>
<path d="M20.3734 14.1721L20.4918 14.2906H20.3734H16.295V10.1642V10.0938L16.3654 10.1642L20.3734 14.1721Z" fill="white"/>
<path d="M16.365 10.0228H12.733C12.0594 10.0228 11.5138 10.5684 11.5138 11.242V20.754C11.5138 21.4276 12.0594 21.9732 12.733 21.9732H19.1522C19.8258 21.9732 20.3714 21.4276 20.3714 20.754V14.0292L20.2098 13.8676L20.1058 13.7636L16.6354 10.2932L16.5746 10.2324L16.3634 10.0212L16.365 10.0228Z" stroke="white" stroke-width="0.96" stroke-linecap="round" stroke-linejoin="round"/>
<path d="M15.4289 15.8412L15.8897 16.6828C16.0833 17.0348 16.3729 17.326 16.7249 17.518L17.5665 17.9789L16.7249 18.4396C16.3729 18.6332 16.0817 18.9228 15.8897 19.2748L15.4289 20.1164L14.9681 19.2748C14.7745 18.9228 14.4849 18.6316 14.1329 18.4396L13.2913 17.9789L14.1329 17.518C14.4849 17.3244 14.7761 17.0348 14.9681 16.6828L15.4289 15.8412Z" stroke="white" stroke-width="0.8" stroke-linecap="round" stroke-linejoin="round"/>
<path d="M17.625 14.7413L17.8426 15.1397C17.9338 15.3061 18.0714 15.4437 18.2378 15.5349L18.6362 15.7525L18.2378 15.9701C18.0714 16.0613 17.9338 16.1989 17.8426 16.3653L17.625 16.7637L17.4074 16.3653C17.3162 16.1989 17.1786 16.0613 17.0122 15.9701L16.6138 15.7525L17.0122 15.5349C17.1786 15.4437 17.3162 15.3061 17.4074 15.1397L17.625 14.7413Z" fill="white"/>
<defs>
<radialGradient id="paint0_radial_64_15641" cx="0" cy="0" r="1" gradientUnits="userSpaceOnUse" gradientTransform="translate(5.95594 6.56194) rotate(38.1157) scale(20.8508 57.6052)">
<stop stop-color="white"/>
<stop offset="0.36" stop-color="#7551FF"/>
<stop offset="0.755" stop-color="#5000FF"/>
<stop offset="0.975" stop-color="#B960FF"/>
</radialGradient>
</defs>
</svg>
