<svg width="32" height="32" viewBox="0 0 32 32" fill="none" xmlns="http://www.w3.org/2000/svg">
<rect width="32" height="32" rx="16" fill="url(#paint0_radial_64_15836)"/>
<path d="M14.1792 9.4945C14.223 9.4943 14.2668 9.49409 14.3106 9.49388C14.4522 9.49323 14.5938 9.4929 14.7355 9.49258C14.7846 9.49246 14.8337 9.49233 14.8829 9.4922C15.1133 9.49161 15.3437 9.49116 15.5741 9.4909C15.8392 9.49059 16.1042 9.48976 16.3693 9.48851C16.5751 9.48757 16.7809 9.4871 16.9867 9.487C17.1093 9.48693 17.2318 9.48665 17.3544 9.48586C17.4694 9.48513 17.5844 9.485 17.6994 9.48532C17.7615 9.48534 17.8236 9.48475 17.8858 9.48413C18.2247 9.48611 18.2247 9.48611 18.375 9.62503C18.4884 9.74438 18.5097 9.84012 18.5156 10C18.5097 10.1599 18.4884 10.2557 18.375 10.375C18.2261 10.4959 18.1074 10.5182 17.9209 10.5166C17.8946 10.5169 17.8684 10.5171 17.8413 10.5174C17.7543 10.5182 17.6674 10.5181 17.5804 10.518C17.519 10.5184 17.4575 10.5188 17.396 10.5193C17.2658 10.5202 17.1355 10.5208 17.0052 10.521C16.8026 10.5214 16.6001 10.5227 16.3976 10.5241C16.1651 10.5258 15.9327 10.5273 15.7002 10.5285C15.2787 10.5308 14.8574 10.5349 14.436 10.5432C14.3498 10.5449 14.2636 10.5462 14.1774 10.5475C13.8976 10.5527 13.6198 10.5678 13.3409 10.5913C13.3118 10.5938 13.2828 10.5962 13.2528 10.5987C12.5212 10.6651 11.8787 10.8503 11.3437 11.375C11.3195 11.3981 11.2953 11.4212 11.2704 11.445C10.5714 12.1583 10.5652 13.2968 10.5515 14.2327C10.5508 14.2787 10.55 14.3247 10.5493 14.3707C10.5469 14.5193 10.5449 14.6678 10.543 14.8164C10.5424 14.8546 10.5424 14.8546 10.5419 14.8936C10.5315 15.6635 10.5294 16.433 10.5401 17.2029C10.541 17.2705 10.5418 17.3381 10.5426 17.4056C10.541 19.1672 10.541 19.1672 11.375 20.6563C11.4096 20.6926 11.4096 20.6926 11.4449 20.7296C12.221 21.4901 13.4873 21.4378 14.4961 21.4551C14.5327 21.4558 14.5694 21.4564 14.6072 21.4571C15.5309 21.4733 16.4536 21.4737 17.3774 21.4588C17.4485 21.4577 17.5197 21.4566 17.5908 21.4556C17.9514 21.4504 18.3102 21.4393 18.6695 21.4086C18.698 21.4062 18.7264 21.4037 18.7557 21.4012C19.4842 21.3333 20.1235 21.1475 20.6562 20.625C20.6926 20.5904 20.6926 20.5904 20.7296 20.5551C21.422 19.8484 21.4383 18.7193 21.4448 17.7924C21.4452 17.749 21.4456 17.7055 21.446 17.662C21.4469 17.5695 21.4478 17.4769 21.4486 17.3844C21.4498 17.2379 21.4514 17.0915 21.453 16.945C21.4536 16.8946 21.4541 16.8442 21.4547 16.7938C21.4549 16.7686 21.4552 16.7434 21.4555 16.7175C21.4592 16.3773 21.4628 16.037 21.4656 15.6968C21.4675 15.4662 21.4698 15.2356 21.4727 15.0049C21.4742 14.8832 21.4754 14.7615 21.4762 14.6398C21.4768 14.5257 21.4781 14.4115 21.4798 14.2973C21.4805 14.2356 21.4807 14.1739 21.4808 14.1123C21.4868 13.7756 21.4868 13.7756 21.625 13.625C21.7443 13.5116 21.8401 13.4903 22 13.4844C22.1599 13.4903 22.2556 13.5116 22.375 13.625C22.5404 13.8048 22.5172 13.9972 22.5152 14.2316C22.5152 14.2744 22.5154 14.3172 22.5155 14.36C22.5158 14.4761 22.5154 14.5921 22.5147 14.7082C22.5142 14.8305 22.5143 14.9528 22.5143 15.0751C22.5143 15.2811 22.5137 15.487 22.5129 15.693C22.5119 15.9291 22.5115 16.1652 22.5116 16.4013C22.5116 16.6546 22.5112 16.9079 22.5106 17.1612C22.5105 17.2331 22.5104 17.3049 22.5104 17.3768C22.5095 18.6856 22.5021 20.0988 21.625 21.1563C21.6037 21.182 21.5824 21.2077 21.5604 21.2342C20.7954 22.1234 19.7385 22.3873 18.6166 22.479C18.1803 22.5112 17.7436 22.5092 17.3065 22.5084C17.1831 22.5083 17.0598 22.5084 16.9365 22.5085C16.7296 22.5086 16.5228 22.5085 16.3159 22.5082C16.0791 22.5078 15.8423 22.5079 15.6055 22.5083C15.3996 22.5086 15.1938 22.5086 14.9879 22.5085C14.8661 22.5084 14.7443 22.5083 14.6224 22.5085C13.3139 22.5105 11.9009 22.5019 10.8437 21.625C10.818 21.6037 10.7923 21.5824 10.7659 21.5605C9.8766 20.7954 9.61269 19.7386 9.52102 18.6166C9.48881 18.1803 9.49084 17.7437 9.4916 17.3065C9.49176 17.1832 9.49161 17.0598 9.49151 16.9365C9.4914 16.7296 9.49154 16.5228 9.49184 16.3159C9.49218 16.0791 9.49207 15.8423 9.49173 15.6055C9.49144 15.3997 9.49141 15.1938 9.49157 14.988C9.49167 14.8661 9.49169 14.7443 9.49147 14.6225C9.48952 13.3151 9.49685 11.8997 10.375 10.8438C10.3975 10.8165 10.42 10.7892 10.4432 10.7611C11.1982 9.88509 12.2437 9.61199 13.3548 9.52287C13.6299 9.50333 13.9033 9.49508 14.1792 9.4945Z" fill="white"/>
<path d="M19.5669 13.614C19.6843 13.6737 19.7651 13.7559 19.8234 13.8741C19.8938 14.0931 19.8422 14.2888 19.7438 14.4886C19.7291 14.5168 19.7144 14.5451 19.6992 14.5742C19.684 14.6047 19.6688 14.6352 19.6532 14.6666C19.6202 14.7326 19.5869 14.7984 19.5534 14.8641C19.4979 14.973 19.4431 15.0821 19.3886 15.1914C19.3321 15.3045 19.2756 15.4176 19.2187 15.5305C19.1166 15.7336 19.0181 15.9377 18.9238 16.1445C18.6917 16.6468 18.3547 17.016 17.8372 17.2288C17.3318 17.3972 16.8175 17.3469 16.3418 17.1211C15.9978 16.9468 15.7806 16.7079 15.5938 16.375C15.5676 16.3285 15.5676 16.3285 15.5409 16.2811C15.4825 16.1755 15.4246 16.07 15.3729 15.9609C15.3328 15.8857 15.2982 15.8751 15.2188 15.8438C15.182 15.827 15.1453 15.8102 15.1074 15.793C14.8848 15.7128 14.6722 15.7171 14.4571 15.8164C14.2151 15.9402 14.1093 16.1699 13.9948 16.4034C13.9798 16.4335 13.9648 16.4636 13.9493 16.4946C13.9015 16.5907 13.8541 16.687 13.8067 16.7832C13.7754 16.8461 13.7441 16.9089 13.7129 16.9717C13.6818 17.0343 13.6508 17.0968 13.6198 17.1593C13.6044 17.1902 13.5891 17.221 13.5733 17.2528C13.4973 17.4068 13.4233 17.5613 13.3525 17.7178C13.3389 17.7475 13.3253 17.7773 13.3112 17.8079C13.2859 17.8636 13.261 17.9196 13.2366 17.9757C13.1484 18.1687 13.0365 18.3099 12.8438 18.4063C12.6216 18.4287 12.4585 18.4223 12.2813 18.2813C12.1477 18.11 12.1299 17.9638 12.1563 17.75C12.1931 17.6358 12.2455 17.5321 12.3008 17.4258C12.316 17.3953 12.3312 17.3647 12.3469 17.3333C12.3799 17.2673 12.4132 17.2014 12.4468 17.1356C12.5114 17.009 12.5749 16.8819 12.6384 16.7547C12.6851 16.661 12.732 16.5674 12.7791 16.474C12.875 16.2834 12.9682 16.0921 13.057 15.8981C13.1615 15.6704 13.2643 15.4659 13.4375 15.2813C13.456 15.26 13.4744 15.2388 13.4934 15.2169C13.7206 14.9697 14.0182 14.8 14.3438 14.7188C14.3663 14.713 14.3889 14.7073 14.4121 14.7014C14.9389 14.618 15.4267 14.7105 15.875 15C16.1096 15.1737 16.2643 15.3719 16.4063 15.625C16.4324 15.6715 16.4324 15.6715 16.4591 15.7189C16.5175 15.8245 16.5754 15.93 16.6271 16.0391C16.6672 16.1143 16.7019 16.1249 16.7813 16.1563C16.818 16.173 16.8547 16.1898 16.8926 16.207C17.1153 16.2872 17.3278 16.2829 17.543 16.1836C17.7903 16.057 17.8961 15.8192 18.0132 15.5807C18.029 15.5491 18.0447 15.5175 18.061 15.4849C18.1112 15.3839 18.1611 15.2828 18.211 15.1816C18.244 15.1153 18.277 15.0489 18.3101 14.9825C18.3426 14.9169 18.3752 14.8514 18.4077 14.7858C18.4317 14.7375 18.4317 14.7375 18.4561 14.6883C18.5308 14.5372 18.6038 14.3858 18.6727 14.232C18.6849 14.205 18.6972 14.178 18.7098 14.1501C18.7321 14.1005 18.754 14.0507 18.7753 14.0006C18.9251 13.6686 19.2035 13.5039 19.5669 13.614Z" fill="white"/>
<path d="M22.2442 9.22658C22.601 9.47103 22.8632 9.80221 22.9794 10.2233C23.0646 10.7209 23.0162 11.1838 22.7402 11.6133C22.4706 11.9935 22.1299 12.2172 21.6775 12.3307C21.3239 12.3859 20.988 12.3528 20.6563 12.2188C20.6213 12.2047 20.6213 12.2047 20.5856 12.1903C20.1905 12.011 19.9079 11.6838 19.75 11.2832C19.5804 10.8079 19.6247 10.327 19.8321 9.87307C20.0582 9.44407 20.4199 9.18218 20.875 9.03127C21.3247 8.9026 21.8501 8.99163 22.2442 9.22658ZM20.8946 10.1621C20.7547 10.312 20.6815 10.4491 20.6719 10.6563C20.6808 10.842 20.7366 10.9815 20.8641 11.1175C21.0382 11.2749 21.185 11.3283 21.4201 11.322C21.5804 11.303 21.6964 11.2456 21.8061 11.1269C21.9692 10.9165 21.9986 10.7334 21.9688 10.4688C21.8956 10.2801 21.7663 10.1634 21.5977 10.0567C21.355 9.96387 21.1028 10.0067 20.8946 10.1621Z" fill="white"/>
<defs>
<radialGradient id="paint0_radial_64_15836" cx="0" cy="0" r="1" gradientUnits="userSpaceOnUse" gradientTransform="translate(5.99112 5.0717) rotate(60.3629) scale(33.9468 30.3917)">
<stop stop-color="#21FF52"/>
<stop offset="0.29" stop-color="#8A93FF"/>
<stop offset="1" stop-color="#5224FF"/>
</radialGradient>
</defs>
</svg>
