<svg width="32" height="32" viewBox="0 0 32 32" fill="none" xmlns="http://www.w3.org/2000/svg">
<rect width="32" height="32" rx="16" fill="url(#paint0_linear_64_15658)"/>
<path d="M11.8848 20.3091H11.3696C10.392 20.3091 9.6 19.5171 9.6 18.5395V11.3571C9.6 10.3795 10.392 9.58752 11.3696 9.58752H15.9152C16.8928 9.58752 17.6848 10.3795 17.6848 11.3571V11.6963" stroke="white" stroke-width="1.2" stroke-miterlimit="10"/>
<path d="M19.971 20.6483C19.971 21.6259 19.179 22.4179 18.2014 22.4179H13.6558C12.6782 22.4179 11.8862 21.6259 11.8862 20.6483V13.4659C11.8862 12.4883 12.6782 11.6963 13.6558 11.6963H18.2014C19.179 11.6963 19.971 12.4883 19.971 13.4659" stroke="white" stroke-width="1.2" stroke-linecap="round" stroke-linejoin="round"/>
<path d="M18.3013 15.595L18.8501 16.5982C19.0805 17.019 19.4261 17.3646 19.8469 17.595L20.8501 18.1438L19.8469 18.6926C19.4261 18.923 19.0805 19.2686 18.8501 19.6894L18.3013 20.6926L17.7525 19.6894C17.5221 19.2686 17.1765 18.923 16.7557 18.6926L15.7525 18.1438L16.7557 17.595C17.1765 17.3646 17.5221 17.019 17.7525 16.5982L18.3013 15.595Z" stroke="white" stroke-width="0.8" stroke-linecap="round" stroke-linejoin="round"/>
<path d="M20.9056 13.8675L21.2272 14.4563C21.3616 14.7027 21.5648 14.9059 21.8112 15.0403L22.4 15.3619L21.8112 15.6835C21.5648 15.8179 21.3616 16.0211 21.2272 16.2675L20.9056 16.8563L20.584 16.2675C20.4496 16.0211 20.2464 15.8179 20 15.6835L19.4112 15.3619L20 15.0403C20.2464 14.9059 20.4496 14.7027 20.584 14.4563L20.9056 13.8675Z" fill="white"/>
<defs>
<linearGradient id="paint0_linear_64_15658" x1="16" y1="32" x2="16" y2="0" gradientUnits="userSpaceOnUse">
<stop stop-color="#0538FF"/>
<stop offset="1" stop-color="#5799F7"/>
</linearGradient>
</defs>
</svg>
