<svg width="32" height="32" viewBox="0 0 32 32" fill="none" xmlns="http://www.w3.org/2000/svg">
<rect width="32" height="32" rx="16" fill="url(#paint0_linear_64_15893)"/>
<mask id="path-2-outside-1_64_15893" maskUnits="userSpaceOnUse" x="7.12433" y="8.99985" width="18" height="14" fill="black">
<rect fill="white" x="7.12433" y="8.99985" width="18" height="14"/>
<path fill-rule="evenodd" clip-rule="evenodd" d="M9.12433 12.1029C9.12433 11.4937 9.61817 10.9998 10.2274 10.9998H19.6284H19.9392H22.8729L19.9392 14.3214V19.8968C19.9392 20.506 19.4454 20.9998 18.8362 20.9998H10.2274C9.61817 20.9998 9.12433 20.506 9.12433 19.8968V12.1029ZM10.6533 16.0008H18.2924V14.8978H10.6533V16.0008ZM10.6533 18.6899H16.7646V17.5869H10.6533V18.6899Z"/>
</mask>
<path d="M22.8729 10.9998L23.6245 11.6637L25.0966 9.99698H22.8729V10.9998ZM19.9392 14.3214L19.1876 13.6575L18.9364 13.9419V14.3214H19.9392ZM18.2924 16.0008V17.0037H19.2953V16.0008H18.2924ZM10.6533 16.0008H9.65043V17.0037H10.6533V16.0008ZM18.2924 14.8978H19.2953V13.8949H18.2924V14.8978ZM10.6533 14.8978V13.8949H9.65043V14.8978H10.6533ZM16.7646 18.6899V19.6928H17.7675V18.6899H16.7646ZM10.6533 18.6899H9.65043V19.6928H10.6533V18.6899ZM16.7646 17.5869H17.7675V16.584H16.7646V17.5869ZM10.6533 17.5869V16.584H9.65043V17.5869H10.6533ZM10.2274 9.99698C9.0643 9.99698 8.12146 10.9398 8.12146 12.1029H10.1272C10.1272 12.0476 10.172 12.0027 10.2274 12.0027V9.99698ZM19.6284 9.99698H10.2274V12.0027H19.6284V9.99698ZM19.9392 9.99698H19.6284V12.0027H19.9392V9.99698ZM22.8729 9.99698H19.9392V12.0027H22.8729V9.99698ZM20.6909 14.9853L23.6245 11.6637L22.1212 10.336L19.1876 13.6575L20.6909 14.9853ZM20.9421 19.8968V14.3214H18.9364V19.8968H20.9421ZM18.8362 22.0027C19.9993 22.0027 20.9421 21.0599 20.9421 19.8968H18.9364C18.9364 19.9521 18.8915 19.997 18.8362 19.997V22.0027ZM10.2274 22.0027H18.8362V19.997H10.2274V22.0027ZM8.12146 19.8968C8.12146 21.0599 9.0643 22.0027 10.2274 22.0027V19.997C10.172 19.997 10.1272 19.9521 10.1272 19.8968H8.12146ZM8.12146 12.1029V19.8968H10.1272V12.1029H8.12146ZM18.2924 14.9979H10.6533V17.0037H18.2924V14.9979ZM17.2895 14.8978V16.0008H19.2953V14.8978H17.2895ZM10.6533 15.9006H18.2924V13.8949H10.6533V15.9006ZM11.6562 16.0008V14.8978H9.65043V16.0008H11.6562ZM16.7646 17.687H10.6533V19.6928H16.7646V17.687ZM15.7617 17.5869V18.6899H17.7675V17.5869H15.7617ZM10.6533 18.5897H16.7646V16.584H10.6533V18.5897ZM11.6562 18.6899V17.5869H9.65043V18.6899H11.6562Z" fill="white" mask="url(#path-2-outside-1_64_15893)"/>
<defs>
<linearGradient id="paint0_linear_64_15893" x1="26.88" y1="-0.959999" x2="3.84" y2="29.92" gradientUnits="userSpaceOnUse">
<stop stop-color="#FF9900"/>
<stop offset="1" stop-color="#AC5100"/>
</linearGradient>
</defs>
</svg>
