<svg width="32" height="32" viewBox="0 0 32 32" fill="none" xmlns="http://www.w3.org/2000/svg">
<rect width="32" height="32" rx="16" fill="url(#paint0_linear_64_15857)"/>
<g clip-path="url(#clip0_64_15857)">
<path d="M12.2538 9.65625C12.3837 9.76475 12.5066 9.87784 12.626 9.99783C12.6431 10.0149 12.6603 10.0321 12.6779 10.0497C12.7348 10.1065 12.7916 10.1635 12.8484 10.2205C12.8894 10.2614 12.9304 10.3024 12.9714 10.3434C13.0823 10.4543 13.1931 10.5652 13.3039 10.6762C13.4198 10.7923 13.5358 10.9083 13.6518 11.0244C13.8713 11.2439 14.0907 11.4636 14.3101 11.6832C14.5599 11.9334 14.8099 12.1835 15.0598 12.4335C15.5738 12.9478 16.0876 13.4621 16.6014 13.9766C16.7094 13.9266 16.7836 13.8565 16.8663 13.7726C16.8815 13.7574 16.8967 13.7422 16.9124 13.7265C16.9626 13.6763 17.0125 13.626 17.0624 13.5756C17.0972 13.5407 17.132 13.5058 17.1668 13.471C17.2583 13.3793 17.3496 13.2875 17.4408 13.1956C17.534 13.1019 17.6274 13.0083 17.7207 12.9146C17.9038 12.731 18.0866 12.5472 18.2694 12.3633C18.4261 12.4926 18.5694 12.6326 18.7124 12.7768C18.7538 12.8187 18.7954 12.8604 18.837 12.9021C18.9402 13.0057 19.0433 13.1094 19.1464 13.2132C19.2337 13.3011 19.3211 13.3889 19.4086 13.4766C19.4492 13.5174 19.4897 13.5582 19.5302 13.5991C19.5678 13.6369 19.5678 13.6369 19.6062 13.6754C19.628 13.6973 19.6497 13.7192 19.6722 13.7418C19.747 13.8134 19.8241 13.8814 19.9023 13.9493C20.0257 14.0573 20.1469 14.1678 20.2682 14.2782C20.2828 14.2915 20.2974 14.3048 20.3124 14.3185C20.6019 14.5824 20.8867 14.8511 21.1699 15.1218C21.3495 15.2934 21.5304 15.463 21.7151 15.6291C23.0486 16.8295 23.0486 16.8295 23.0976 17.5637C23.1153 17.9376 23.0719 18.3132 22.9999 18.6797C22.0509 18.8066 21.1005 18.8916 20.1442 18.9385C20.0896 18.9412 20.0351 18.9439 19.9806 18.9467C18.1589 19.0363 16.6368 18.9483 15.227 17.6795C14.8517 17.3363 14.5056 16.9677 14.1678 16.5879C14.1455 16.5629 14.1232 16.5379 14.1003 16.5122C13.5245 15.8656 12.9824 15.1957 12.4725 14.4961C12.3593 14.5481 12.2821 14.6247 12.1956 14.7126C12.179 14.7292 12.1625 14.7457 12.1455 14.7627C12.0911 14.8174 12.0368 14.8722 11.9826 14.927C11.9448 14.9649 11.907 15.0028 11.8692 15.0408C11.7698 15.1405 11.6706 15.2405 11.5714 15.3404C11.4123 15.5007 11.253 15.6607 11.0937 15.8207C11.0379 15.8767 10.9823 15.9329 10.9266 15.989C10.8927 16.0231 10.8588 16.0572 10.8248 16.0913C10.8093 16.1071 10.7937 16.1229 10.7776 16.1391C10.7415 16.1753 10.7048 16.2108 10.6678 16.2461C10.6588 16.2461 10.6498 16.2461 10.6405 16.2461C10.6023 15.6253 10.5741 15.0048 10.5569 14.3831C10.5487 14.0941 10.5375 13.8059 10.5188 13.5175C10.3877 11.4608 10.3877 11.4608 11.0068 10.7477C11.3754 10.3348 11.8063 9.98005 12.2538 9.65625Z" fill="white"/>
<path d="M12.418 15.5625C12.5294 15.6043 12.5744 15.6726 12.6411 15.7689C12.6641 15.8015 12.687 15.8341 12.71 15.8666C12.7223 15.8841 12.7345 15.9016 12.7471 15.9195C13.144 16.483 13.5794 17.0144 14.033 17.533C14.0528 17.5557 14.0726 17.5784 14.093 17.6018C15.1373 18.7949 16.191 19.5811 17.8036 19.69C18.4892 19.7328 19.1735 19.7276 19.8596 19.7005C19.9172 19.6982 19.9748 19.696 20.0324 19.6938C21.0251 19.6554 22.012 19.5774 23 19.4727C23 20.0862 23 20.6998 23 21.332C18.9214 21.332 14.8428 21.332 10.6406 21.332C10.6406 17.3398 10.6406 17.3398 11.5293 16.2017C12.1095 15.7481 12.1095 15.7481 12.418 15.5625Z" fill="white"/>
<path d="M9 9C9.2707 9 9.54141 9 9.82031 9C9.82031 13.3403 9.82031 17.6805 9.82031 22.1523C14.1696 22.1523 18.5189 22.1523 23 22.1523C23 22.4321 23 22.7118 23 23C18.38 23 13.76 23 9 23C9 18.38 9 13.76 9 9Z" fill="white"/>
</g>
<defs>
<linearGradient id="paint0_linear_64_15857" x1="16" y1="32" x2="16" y2="0" gradientUnits="userSpaceOnUse">
<stop stop-color="#0538FF"/>
<stop offset="1" stop-color="#5799F7"/>
</linearGradient>
<clipPath id="clip0_64_15857">
<rect width="14" height="14" fill="white" transform="translate(9 9)"/>
</clipPath>
</defs>
</svg>
