<svg width="32" height="32" viewBox="0 0 32 32" fill="none" xmlns="http://www.w3.org/2000/svg">
<rect width="32" height="32" rx="16" fill="url(#paint0_linear_64_15674)"/>
<g clip-path="url(#clip0_64_15674)">
<path d="M23.3337 19.3333C23.5105 19.3333 23.6801 19.4036 23.8051 19.5286C23.9302 19.6536 24.0004 19.8232 24.0004 20C24.0006 20.6728 23.7465 21.3208 23.2891 21.8141C22.8316 22.3074 22.2046 22.6095 21.5337 22.66L21.3337 22.6667H18.2764L18.4724 22.8613C18.5826 22.9718 18.6506 23.1175 18.6645 23.2729C18.6784 23.4283 18.6373 23.5837 18.5484 23.712L18.4724 23.8053C18.3619 23.9156 18.2163 23.9835 18.0608 23.9974C17.9054 24.0113 17.75 23.9702 17.6217 23.8813L17.5284 23.8053L16.1951 22.472C16.0848 22.3615 16.0169 22.2159 16.003 22.0604C15.9891 21.905 16.0302 21.7496 16.1191 21.6213L16.1951 21.528L17.5284 20.1947C17.646 20.0766 17.8036 20.0068 17.97 19.9991C18.1365 19.9914 18.2999 20.0463 18.4278 20.153C18.5558 20.2598 18.6392 20.4106 18.6615 20.5758C18.6838 20.7409 18.6435 20.9085 18.5484 21.0453L18.4724 21.1387L18.2751 21.3333H21.3337C21.6874 21.3333 22.0265 21.1929 22.2765 20.9428C22.5266 20.6928 22.6671 20.3536 22.6671 20C22.6671 19.8232 22.7373 19.6536 22.8623 19.5286C22.9874 19.4036 23.1569 19.3333 23.3337 19.3333ZM14.0004 8C14.8447 7.99984 15.6795 8.17786 16.4503 8.52242C17.221 8.86699 17.9104 9.37034 18.4733 9.99957C19.0362 10.6288 19.46 11.3698 19.7169 12.174C19.9739 12.9782 20.0582 13.8276 19.9644 14.6667H18.6177C18.7577 13.6965 18.5886 12.7069 18.1344 11.8383C17.6803 10.9697 16.9641 10.2661 16.0876 9.82736C15.2111 9.38863 14.2187 9.23705 13.2512 9.3941C12.2836 9.55115 11.3901 10.0089 10.6974 10.7023C10.0046 11.3958 9.54781 12.2897 9.39174 13.2574C9.23567 14.2251 9.38826 15.2174 9.82787 16.0935C10.2675 16.9695 10.9718 17.6849 11.8409 18.1382C12.71 18.5915 13.6997 18.7596 14.6697 18.6187L14.6671 19.9627C13.856 20.0536 13.0348 19.978 12.2539 19.7407C11.473 19.5033 10.7488 19.1092 10.1254 18.5823C9.5021 18.0554 8.99283 17.4068 8.62876 16.6763C8.2647 15.9459 8.0535 15.1488 8.00808 14.3339C7.96267 13.5189 8.08399 12.7033 8.36464 11.9369C8.64528 11.1705 9.07934 10.4694 9.64026 9.8765C10.2012 9.2836 10.8772 8.81139 11.6269 8.48874C12.3766 8.16608 13.1842 7.99978 14.0004 8ZM22.3791 14.7853L22.4724 14.8613L23.8057 16.1947C23.916 16.3051 23.984 16.4508 23.9978 16.6062C24.0117 16.7617 23.9706 16.9171 23.8817 17.0453L23.8057 17.1387L22.4724 18.472C22.3548 18.5901 22.1973 18.6599 22.0308 18.6676C21.8643 18.6753 21.701 18.6204 21.573 18.5136C21.445 18.4069 21.3616 18.2561 21.3393 18.0909C21.317 17.9257 21.3573 17.7582 21.4524 17.6213L21.5284 17.528L21.7244 17.332L18.6671 17.3333C18.3134 17.3333 17.9743 17.4738 17.7243 17.7239C17.4742 17.9739 17.3337 18.313 17.3337 18.6667C17.3337 18.8435 17.2635 19.013 17.1385 19.1381C17.0135 19.2631 16.8439 19.3333 16.6671 19.3333C16.4903 19.3333 16.3207 19.2631 16.1957 19.1381C16.0706 19.013 16.0004 18.8435 16.0004 18.6667C16.0002 17.9939 16.2543 17.3459 16.7117 16.8526C17.1692 16.3593 17.7962 16.0571 18.4671 16.0067L18.6671 16L21.7231 15.9987L21.5284 15.8053C21.4182 15.6949 21.3502 15.5492 21.3363 15.3938C21.3224 15.2383 21.3635 15.0829 21.4524 14.9547L21.5284 14.8613C21.6389 14.7511 21.7845 14.6831 21.94 14.6692C22.0954 14.6553 22.2508 14.6964 22.3791 14.7853ZM14.0004 10.6667C14.1564 10.6666 14.3075 10.7213 14.4274 10.8212C14.5473 10.9211 14.6283 11.0598 14.6564 11.2133L14.6671 11.3333V14C14.6671 14.156 14.6124 14.3071 14.5126 14.427C14.4127 14.5469 14.2739 14.6279 14.1204 14.656L14.0004 14.6667H11.3337C11.1671 14.667 11.0065 14.6049 10.8834 14.4927C10.7602 14.3804 10.6836 14.2262 10.6686 14.0602C10.6535 13.8943 10.7011 13.7288 10.802 13.5962C10.9029 13.4637 11.0498 13.3737 11.2137 13.344L11.3337 13.3333H13.3337V11.3333C13.3337 11.1773 13.3884 11.0262 13.4883 10.9063C13.5881 10.7865 13.7269 10.7054 13.8804 10.6773L14.0004 10.6667Z" fill="white"/>
</g>
<defs>
<linearGradient id="paint0_linear_64_15674" x1="2.336" y1="28.832" x2="30.976" y2="1.6" gradientUnits="userSpaceOnUse">
<stop stop-color="#0C2365"/>
<stop offset="0.692708" stop-color="#496DD3"/>
<stop offset="1" stop-color="#94B0FE"/>
</linearGradient>
<clipPath id="clip0_64_15674">
<rect width="16" height="16" fill="white" transform="translate(8 8)"/>
</clipPath>
</defs>
</svg>
