<svg width="32" height="32" viewBox="0 0 32 32" fill="none" xmlns="http://www.w3.org/2000/svg">
<rect width="32" height="32" rx="16" fill="url(#paint0_linear_64_15662)"/>
<path d="M24 12.5714V8H19.4286V9.71429H16.5714C16.2683 9.71429 15.9776 9.83469 15.7633 10.049C15.549 10.2633 15.4286 10.554 15.4286 10.8571V15.4286H12.5714V13.7143H8V18.2857H12.5714V16.5714H15.4286V21.1429C15.4286 21.446 15.549 21.7367 15.7633 21.951C15.9776 22.1653 16.2683 22.2857 16.5714 22.2857H19.4286V24H24V19.4286H19.4286V21.1429H16.5714V16.5714H19.4286V18.2857H24V13.7143H19.4286V15.4286H16.5714V10.8571H19.4286V12.5714H24ZM11.4286 17.1429H9.14286V14.8571H11.4286V17.1429ZM20.5714 20.5714H22.8571V22.8571H20.5714V20.5714ZM20.5714 14.8571H22.8571V17.1429H20.5714V14.8571ZM20.5714 9.14286H22.8571V11.4286H20.5714V9.14286Z" fill="white"/>
<defs>
<linearGradient id="paint0_linear_64_15662" x1="26.88" y1="-0.959999" x2="3.84" y2="29.92" gradientUnits="userSpaceOnUse">
<stop stop-color="#FF9900"/>
<stop offset="1" stop-color="#AC5100"/>
</linearGradient>
</defs>
</svg>
