<svg width="32" height="32" viewBox="0 0 32 32" fill="none" xmlns="http://www.w3.org/2000/svg">
<rect width="32" height="32" rx="16" fill="url(#paint0_linear_64_15711)"/>
<path d="M20.4 12.4134C22.3867 12.4134 24 14.0001 24 16.0001C24 17.9734 22.3867 19.5801 20.4 19.5801C19.4333 19.5801 18.5333 19.2067 17.8533 18.5334L16 16.8934L14.1133 18.5667C13.4667 19.2134 12.56 19.5867 11.6 19.5867C9.61333 19.5867 8 17.9734 8 16.0001C8 14.0267 9.61333 12.4134 11.6 12.4134C12.56 12.4134 13.4667 12.7867 14.1467 13.4667L16 15.1067L17.8867 13.4334C18.5333 12.7867 19.44 12.4134 20.4 12.4134ZM13.2 17.5934L15 16.0001L13.2267 14.4334C12.7733 13.9801 12.2067 13.7467 11.6 13.7467C10.3533 13.7467 9.33333 14.7534 9.33333 16.0001C9.33333 17.2467 10.3533 18.2534 11.6 18.2534C12.2067 18.2534 12.7733 18.0201 13.2 17.5934ZM18.8 14.4067L17 16.0001L18.7733 17.5667C19.2267 18.0201 19.8 18.2534 20.4 18.2534C21.6467 18.2534 22.6667 17.2467 22.6667 16.0001C22.6667 14.7534 21.6467 13.7467 20.4 13.7467C19.7933 13.7467 19.2267 13.9801 18.8 14.4067Z" fill="white"/>
<defs>
<linearGradient id="paint0_linear_64_15711" x1="-8.70132e-08" y1="28.48" x2="26.176" y2="5.888" gradientUnits="userSpaceOnUse">
<stop stop-color="#035C42"/>
<stop offset="1" stop-color="#06B884"/>
</linearGradient>
</defs>
</svg>
