<svg width="32" height="32" viewBox="0 0 32 32" fill="none" xmlns="http://www.w3.org/2000/svg">
<rect width="32" height="32" rx="16" fill="url(#paint0_linear_64_15883)"/>
<path d="M17.5004 15.25C16.9036 15.25 16.3313 15.0129 15.9094 14.591C15.4874 14.169 15.2504 13.5967 15.2504 13V10H12.2504C11.8525 10 11.471 10.158 11.1897 10.4393C10.9084 10.7206 10.7504 11.1022 10.7504 11.5V21.25C10.7504 21.6478 10.9084 22.0294 11.1897 22.3107C11.471 22.592 11.8525 22.75 12.2504 22.75H19.0004C19.3982 22.75 19.7797 22.592 20.061 22.3107C20.3423 22.0294 20.5004 21.6478 20.5004 21.25V15.25H17.5004ZM16.0004 13C16.0004 13.3978 16.1584 13.7794 16.4397 14.0607C16.721 14.342 17.1025 14.5 17.5004 14.5H20.1929L16.0004 10.3075V13ZM12.2504 9.25H16.0004L21.2504 14.5V21.25C21.2504 21.8467 21.0133 22.419 20.5914 22.841C20.1694 23.2629 19.5971 23.5 19.0004 23.5H12.2504C11.6536 23.5 11.0813 23.2629 10.6594 22.841C10.2374 22.419 10.0004 21.8467 10.0004 21.25V11.5C10.0004 10.9033 10.2374 10.331 10.6594 9.90901C11.0813 9.48705 11.6536 9.25 12.2504 9.25Z" fill="white"/>
<defs>
<linearGradient id="paint0_linear_64_15883" x1="1.08105e-06" y1="29.632" x2="32" y2="2.08" gradientUnits="userSpaceOnUse">
<stop stop-color="#78243A"/>
<stop offset="1" stop-color="#EF4873"/>
</linearGradient>
</defs>
</svg>
