<svg width="32" height="32" viewBox="0 0 32 32" fill="none" xmlns="http://www.w3.org/2000/svg">
<rect width="32" height="32" rx="16" fill="url(#paint0_linear_64_15904)"/>
<g clip-path="url(#clip0_64_15904)">
<path d="M17.2227 8.06639C17.3566 8.15374 17.4484 8.25148 17.5 8.40624C17.5134 8.6104 17.4956 8.74011 17.3555 8.90268C17.2907 8.97011 17.2246 9.0359 17.1579 9.10131C17.1216 9.13732 17.1216 9.13732 17.0847 9.17407C17.0079 9.25038 16.9307 9.32636 16.8535 9.40233C16.8012 9.45415 16.749 9.50599 16.6967 9.55785C16.5689 9.68464 16.4408 9.81117 16.3125 9.93749C16.336 9.93986 16.3594 9.94223 16.3836 9.94467C17.7996 10.0888 19.1099 10.5021 20.25 11.375C20.2752 11.3941 20.3003 11.4132 20.3262 11.4328C20.5523 11.6089 20.7611 11.8029 20.9688 12C20.9924 12.0223 21.016 12.0445 21.0403 12.0675C21.4757 12.4899 21.8264 13.0057 22.125 13.5312C22.1355 13.5492 22.146 13.5673 22.1568 13.5858C22.5653 14.2883 22.8022 15.0777 22.9375 15.875C22.9413 15.8967 22.945 15.9185 22.9489 15.9408C23.2383 17.7092 22.7433 19.6151 21.7062 21.0611C21.5012 21.3397 21.2707 21.5946 21.0313 21.8437C21.0151 21.8608 20.9989 21.8778 20.9822 21.8954C19.8647 23.0676 18.3452 23.7457 16.75 23.9375C16.7184 23.9416 16.6869 23.9457 16.6543 23.9499C15.7628 24.0458 14.8588 23.9286 14 23.6875C13.9748 23.6804 13.9496 23.6734 13.9236 23.6662C12.8624 23.3612 11.913 22.7645 11.125 22C11.1081 21.9839 11.0912 21.9678 11.0738 21.9512C10.8146 21.7042 10.5885 21.4434 10.375 21.1562C10.3618 21.1388 10.3485 21.1214 10.3349 21.1034C10.1081 20.8047 9.9231 20.4887 9.75002 20.1562C9.73899 20.1354 9.72796 20.1145 9.71659 20.093C9.38111 19.4509 9.18183 18.7431 9.06252 18.0312C9.05846 18.008 9.0544 17.9848 9.05022 17.9608C8.76103 16.233 9.23885 14.3491 10.2483 12.9315C10.5098 12.5729 10.7951 12.2332 11.1055 11.916C11.1204 11.9006 11.1352 11.8852 11.1505 11.8693C11.2878 11.7323 11.4256 11.6429 11.6231 11.6426C11.7828 11.6476 11.8717 11.6869 12 11.7812C12.1229 11.9123 12.1278 12.0341 12.1383 12.2096C12.0937 12.4501 11.9033 12.6035 11.7344 12.7637C10.7351 13.7405 10.2063 15.0346 10.0313 16.4062C10.0511 16.4057 10.071 16.4053 10.0914 16.4047C10.182 16.4028 10.2727 16.4016 10.3633 16.4004C10.4101 16.3992 10.4101 16.3992 10.4579 16.398C10.6572 16.396 10.8037 16.4065 10.9577 16.5469C11.0814 16.7057 11.1143 16.8313 11.0938 17.0312C11.0357 17.1958 10.9499 17.2748 10.8125 17.375C10.7169 17.4069 10.6524 17.4098 10.5524 17.4093C10.5203 17.4092 10.4881 17.4091 10.455 17.409C10.4048 17.4086 10.4048 17.4086 10.3535 17.4082C10.3197 17.408 10.2858 17.4079 10.2509 17.4078C10.1673 17.4074 10.0837 17.4069 10 17.4062C10.1199 18.1704 10.2841 18.8955 10.625 19.5937C10.6411 19.6271 10.6411 19.6271 10.6576 19.6612C11.0377 20.4399 11.5987 21.1236 12.2813 21.6562C12.2985 21.6697 12.3157 21.6832 12.3334 21.6972C13.2551 22.4154 14.3446 22.8074 15.5 22.9375C15.4993 22.9077 15.4993 22.9077 15.4985 22.8774C15.4966 22.7867 15.4954 22.6961 15.4942 22.6055C15.4934 22.5742 15.4926 22.543 15.4918 22.5109C15.4898 22.3117 15.4994 22.1636 15.6417 22.0111C15.8196 21.8751 15.9335 21.8503 16.1563 21.875C16.2945 21.9441 16.3811 22.0296 16.4688 22.1562C16.5 22.25 16.5036 22.3117 16.5031 22.4095C16.503 22.4402 16.5029 22.471 16.5028 22.5026C16.5025 22.5346 16.5022 22.5666 16.502 22.5996C16.5018 22.632 16.5017 22.6643 16.5015 22.6977C16.5012 22.7776 16.5007 22.8576 16.5 22.9375C18.1167 22.7234 19.6469 22.0309 20.6734 20.7195C20.9161 20.4018 21.1301 20.0744 21.3125 19.7187C21.3286 19.6877 21.3286 19.6877 21.3451 19.656C21.7096 18.9447 21.8729 18.1901 22 17.4062C21.9792 17.4067 21.9584 17.4072 21.937 17.4077C21.8421 17.4097 21.7473 17.4109 21.6524 17.4121C21.6033 17.4133 21.6033 17.4133 21.5532 17.4145C21.3498 17.4164 21.1996 17.409 21.0424 17.2656C20.9187 17.1068 20.8857 16.9812 20.9063 16.7812C20.9644 16.6167 21.0501 16.5377 21.1875 16.4375C21.2813 16.4062 21.343 16.4026 21.4408 16.4032C21.4715 16.4033 21.5022 16.4034 21.5339 16.4035C21.5659 16.4038 21.5979 16.404 21.6309 16.4043C21.6794 16.4045 21.6794 16.4045 21.729 16.4047C21.8089 16.4051 21.8888 16.4056 21.9688 16.4062C21.7787 15.0246 21.271 13.8347 20.3125 12.8125C20.2907 12.7891 20.2907 12.7891 20.2685 12.7652C19.3812 11.8206 18.1479 11.2306 16.875 11.0312C16.8363 11.0251 16.7977 11.0189 16.7578 11.0126C16.5791 10.9907 16.3985 10.9975 16.2188 11C16.233 11.0139 16.2472 11.0278 16.2618 11.0422C16.4102 11.1878 16.5582 11.3339 16.7059 11.4803C16.761 11.5347 16.8162 11.5891 16.8716 11.6434C16.9513 11.7216 17.0306 11.8002 17.1099 11.8789C17.1345 11.9029 17.1592 11.9269 17.1846 11.9516C17.3511 12.1181 17.5006 12.2869 17.5156 12.5332C17.4917 12.7219 17.4321 12.8268 17.2871 12.9492C17.1285 13.0301 17.0049 13.0487 16.8349 12.9969C16.6778 12.9418 16.58 12.8566 16.4649 12.7391C16.4446 12.7191 16.4243 12.6991 16.4033 12.6786C16.3369 12.6129 16.2711 12.5466 16.2053 12.4802C16.1591 12.4341 16.1127 12.3879 16.0664 12.3418C15.9696 12.2453 15.8731 12.1484 15.7769 12.0513C15.6539 11.9272 15.53 11.804 15.4059 11.681C15.3101 11.5859 15.2149 11.4904 15.1197 11.3948C15.0742 11.3492 15.0286 11.3037 14.9828 11.2584C14.9188 11.1948 14.8554 11.1307 14.7922 11.0664C14.764 11.0387 14.764 11.0387 14.7352 11.0106C14.6067 10.8782 14.5335 10.7454 14.5 10.5625C14.5132 10.1584 14.9459 9.86054 15.2119 9.59313C15.2325 9.57244 15.253 9.55176 15.2742 9.53045C15.3828 9.42124 15.4915 9.31212 15.6002 9.20309C15.7122 9.09078 15.8237 8.97812 15.9353 8.86537C16.0215 8.77832 16.108 8.69156 16.1946 8.60487C16.2358 8.56345 16.277 8.52192 16.318 8.48029C16.3755 8.42211 16.4333 8.36434 16.4912 8.30665C16.5079 8.28956 16.5246 8.27246 16.5418 8.25485C16.7344 8.06478 16.9535 7.96949 17.2227 8.06639Z" fill="white"/>
<path d="M16.1877 13.4063C16.3357 13.4697 16.4048 13.554 16.4743 13.6986C16.5312 13.8802 16.5152 14.0752 16.5124 14.2637C16.5122 14.3103 16.512 14.3568 16.5119 14.4034C16.5114 14.5253 16.5102 14.6471 16.5088 14.769C16.5075 14.8937 16.5069 15.0183 16.5063 15.143C16.505 15.387 16.5028 15.631 16.5002 15.875C16.5247 15.8844 16.5491 15.8939 16.5743 15.9036C16.8616 16.0223 17.0208 16.296 17.1369 16.5703C17.1711 16.7755 17.1903 17.0124 17.1298 17.2134C17.1145 17.3184 17.1145 17.3184 17.1934 17.406C17.2269 17.4396 17.261 17.4727 17.2956 17.5053C17.3141 17.5236 17.3326 17.5418 17.3517 17.5607C17.3919 17.6003 17.4323 17.6396 17.473 17.6787C17.5374 17.7406 17.6012 17.8032 17.6648 17.866C17.7771 17.9765 17.89 18.0865 18.0031 18.1963C18.1838 18.3718 18.3641 18.5478 18.5436 18.7246C18.6063 18.7861 18.6696 18.8471 18.7329 18.9081C18.7716 18.946 18.8102 18.984 18.8489 19.0219C18.8753 19.047 18.8753 19.047 18.9023 19.0726C19.0303 19.1998 19.0879 19.3223 19.0976 19.507C19.0738 19.6881 19.0133 19.8141 18.8674 19.9316C18.7098 19.9997 18.5722 20.0224 18.4106 19.9648C18.2729 19.9098 18.1851 19.8296 18.0844 19.723C18.0664 19.7046 18.0485 19.6863 18.0299 19.6674C17.9913 19.6278 17.9528 19.5881 17.9144 19.5481C17.8537 19.485 17.7925 19.4224 17.7311 19.3599C17.5567 19.1823 17.3833 19.0037 17.2103 18.8248C17.1042 18.7152 16.9974 18.6062 16.8903 18.4975C16.8497 18.456 16.8093 18.4143 16.7692 18.3723C16.7131 18.3138 16.6564 18.256 16.5994 18.1983C16.5831 18.1808 16.5667 18.1633 16.5499 18.1453C16.4976 18.0907 16.4976 18.0907 16.4064 18.0313C16.2917 18.032 16.2917 18.032 16.1877 18.0625C15.8132 18.0882 15.5124 18.0224 15.2189 17.7813C15.0023 17.5783 14.8597 17.3281 14.8365 17.0292C14.8286 16.6598 14.903 16.3694 15.1564 16.0938C15.2658 15.9851 15.3484 15.9094 15.5002 15.875C15.4999 15.8493 15.4996 15.8237 15.4993 15.7972C15.4968 15.5545 15.4949 15.3117 15.4937 15.069C15.4931 14.9442 15.4922 14.8194 15.4908 14.6947C15.4894 14.5741 15.4886 14.4535 15.4883 14.333C15.4881 14.2871 15.4876 14.2413 15.487 14.1954C15.4834 13.9462 15.4827 13.7445 15.6252 13.5313C15.7849 13.3715 15.9747 13.3782 16.1877 13.4063Z" fill="white"/>
</g>
<defs>
<linearGradient id="paint0_linear_64_15904" x1="16" y1="32" x2="16" y2="0" gradientUnits="userSpaceOnUse">
<stop stop-color="#0538FF"/>
<stop offset="1" stop-color="#5799F7"/>
</linearGradient>
<clipPath id="clip0_64_15904">
<rect width="16" height="16" fill="white" transform="translate(8 8)"/>
</clipPath>
</defs>
</svg>
