<svg width="32" height="32" viewBox="0 0 32 32" fill="none" xmlns="http://www.w3.org/2000/svg">
<rect width="32" height="32" rx="16" fill="url(#paint0_linear_64_15791)"/>
<path d="M15.0443 12.2409C15.0671 12.2407 15.0899 12.2405 15.1133 12.2403C15.1884 12.2397 15.2634 12.2396 15.3385 12.2395C15.3909 12.2393 15.4434 12.2391 15.4958 12.2389C15.6056 12.2385 15.7154 12.2384 15.8253 12.2384C15.9655 12.2384 16.1058 12.2376 16.2461 12.2365C16.3544 12.2358 16.4626 12.2357 16.5709 12.2357C16.6226 12.2357 16.6743 12.2354 16.726 12.2349C17.2283 12.2306 17.2283 12.2306 17.4375 12.375C17.6111 12.5486 17.6321 12.7339 17.6335 12.9692C17.6334 13.0023 17.6333 13.0354 17.6331 13.0694C17.6333 13.1226 17.6333 13.1226 17.6335 13.1769C17.6338 13.2958 17.6337 13.4147 17.6336 13.5336C17.6337 13.6188 17.6339 13.704 17.6341 13.7892C17.6345 13.9967 17.6345 14.2042 17.6345 14.4117C17.6344 14.5803 17.6344 14.749 17.6346 14.9177C17.6346 14.9417 17.6346 14.9657 17.6346 14.9904C17.6347 15.0392 17.6347 15.088 17.6348 15.1368C17.6351 15.5942 17.635 16.0517 17.6348 16.5091C17.6347 16.9274 17.635 17.3457 17.6356 17.7641C17.6362 18.1938 17.6365 18.6235 17.6364 19.0532C17.6363 19.2943 17.6364 19.5355 17.6368 19.7767C17.6372 19.982 17.6372 20.1873 17.6369 20.3927C17.6367 20.4974 17.6367 20.6021 17.637 20.7068C17.6373 20.8204 17.6371 20.934 17.6367 21.0477C17.6369 21.0806 17.6372 21.1136 17.6374 21.1475C17.6358 21.3594 17.6189 21.5513 17.4775 21.7206C17.4592 21.7348 17.4408 21.749 17.4219 21.7637C17.4035 21.7785 17.3851 21.7933 17.3662 21.8085C17.2463 21.8873 17.1251 21.8798 16.9873 21.8801C16.9638 21.8802 16.9404 21.8804 16.9162 21.8805C16.8384 21.881 16.7607 21.8812 16.683 21.8814C16.6289 21.8816 16.5749 21.8817 16.5208 21.8819C16.4074 21.8822 16.294 21.8824 16.1806 21.8825C16.0354 21.8827 15.8903 21.8835 15.7452 21.8843C15.6335 21.8849 15.5218 21.8851 15.4101 21.8851C15.3566 21.8852 15.3031 21.8855 15.2496 21.8859C15.1747 21.8864 15.0998 21.8864 15.0248 21.8862C15.0028 21.8864 14.9809 21.8867 14.9582 21.887C14.8138 21.8858 14.7165 21.8569 14.5938 21.7813C14.3751 21.5576 14.3658 21.353 14.3669 21.0556C14.3667 21.0201 14.3666 20.9847 14.3665 20.9481C14.3662 20.8293 14.3663 20.7104 14.3664 20.5915C14.3663 20.5063 14.3661 20.421 14.3659 20.3358C14.3655 20.1284 14.3655 19.9209 14.3656 19.7134C14.3656 19.5447 14.3656 19.3761 14.3654 19.2074C14.3654 19.1714 14.3654 19.1714 14.3654 19.1346C14.3653 19.0858 14.3653 19.037 14.3653 18.9883C14.3649 18.5308 14.365 18.0734 14.3652 17.616C14.3653 17.1976 14.365 16.7793 14.3644 16.361C14.3638 15.9313 14.3635 15.5016 14.3636 15.0719C14.3637 14.8307 14.3636 14.5895 14.3632 14.3484C14.3628 14.143 14.3628 13.9377 14.3631 13.7324C14.3633 13.6277 14.3633 13.523 14.363 13.4182C14.3627 13.3046 14.3629 13.191 14.3633 13.0774C14.3631 13.0444 14.3628 13.0115 14.3626 12.9775C14.3641 12.7793 14.3723 12.5778 14.5108 12.4212C14.6786 12.2727 14.825 12.2422 15.0443 12.2409ZM15.4688 13.3438C15.4688 15.7981 15.4688 18.2525 15.4688 20.7813C15.8194 20.7813 16.17 20.7813 16.5313 20.7813C16.5313 18.3269 16.5313 15.8725 16.5313 13.3438C16.1806 13.3438 15.83 13.3438 15.4688 13.3438Z" fill="white"/>
<path d="M11.0733 12.2334C11.1263 12.2333 11.1792 12.2332 11.2322 12.2331C11.343 12.2329 11.4537 12.2331 11.5645 12.2337C11.7059 12.2344 11.8473 12.234 11.9887 12.2333C12.0981 12.2328 12.2074 12.233 12.3167 12.2333C12.3688 12.2334 12.421 12.2333 12.4731 12.233C12.9824 12.2308 12.9824 12.2308 13.1875 12.375C13.3307 12.555 13.3484 12.6967 13.3484 12.9198C13.3485 12.947 13.3486 12.9742 13.3487 13.0022C13.3491 13.0938 13.3492 13.1853 13.3493 13.2768C13.3495 13.3423 13.3497 13.4078 13.3499 13.4733C13.3505 13.6515 13.3508 13.8297 13.3511 14.008C13.3512 14.1193 13.3514 14.2306 13.3516 14.3419C13.3522 14.6901 13.3526 15.0384 13.3529 15.3866C13.3532 15.7887 13.354 16.1907 13.3553 16.5928C13.3562 16.9035 13.3567 17.2142 13.3568 17.5249C13.3569 17.7105 13.3572 17.8961 13.3579 18.0817C13.3587 18.2564 13.3588 18.431 13.3585 18.6057C13.3585 18.6697 13.3587 18.7337 13.3591 18.7978C13.3596 18.8854 13.3594 18.9729 13.359 19.0605C13.3594 19.0857 13.3597 19.1109 13.36 19.1369C13.3581 19.3114 13.319 19.4491 13.2188 19.5938C13.0506 19.7276 12.919 19.7548 12.71 19.7556C12.6753 19.7559 12.6753 19.7559 12.64 19.7562C12.5636 19.7568 12.4872 19.7572 12.4108 19.7575C12.3846 19.7576 12.3585 19.7577 12.3315 19.7579C12.1931 19.7585 12.0546 19.759 11.9161 19.7593C11.7735 19.7596 11.6308 19.7607 11.4882 19.7619C11.3781 19.7627 11.2682 19.763 11.1581 19.7631C11.1056 19.7633 11.053 19.7636 11.0005 19.7642C10.4508 19.7699 10.4508 19.7699 10.2813 19.625C10.1399 19.4545 10.1022 19.308 10.1052 19.0904C10.1049 19.0628 10.1047 19.0352 10.1044 19.0068C10.1038 18.9148 10.1043 18.8229 10.1048 18.731C10.1046 18.6649 10.1043 18.5987 10.104 18.5326C10.1033 18.3534 10.1035 18.1741 10.104 17.9949C10.1044 17.8072 10.1041 17.6194 10.1038 17.4317C10.1035 17.1165 10.1039 16.8012 10.1046 16.486C10.1055 16.1217 10.1052 15.7575 10.1044 15.3932C10.1037 15.0803 10.1036 14.7673 10.104 14.4544C10.1042 14.2675 10.1042 14.0807 10.1037 13.8939C10.1033 13.7182 10.1036 13.5426 10.1045 13.3669C10.1047 13.3025 10.1046 13.2381 10.1043 13.1738C10.1039 13.0857 10.1044 12.9977 10.1052 12.9097C10.1048 12.8843 10.1045 12.8589 10.1041 12.8328C10.1073 12.647 10.1623 12.5183 10.2813 12.375C10.4979 12.1909 10.8055 12.2319 11.0733 12.2334ZM11.2188 13.3438C11.2188 15.0969 11.2188 16.85 11.2188 18.6563C11.5591 18.6563 11.8994 18.6563 12.25 18.6563C12.25 16.9032 12.25 15.15 12.25 13.3438C11.9097 13.3438 11.5694 13.3438 11.2188 13.3438Z" fill="white"/>
<path d="M19.2901 12.2444C19.3247 12.2441 19.3247 12.2441 19.36 12.2438C19.4364 12.2432 19.5129 12.2428 19.5893 12.2425C19.6154 12.2424 19.6416 12.2422 19.6685 12.2421C19.807 12.2414 19.9455 12.241 20.0839 12.2407C20.2266 12.2404 20.3692 12.2393 20.5119 12.238C20.6219 12.2372 20.7319 12.237 20.8419 12.2369C20.8945 12.2367 20.947 12.2363 20.9996 12.2358C21.5468 12.2301 21.5468 12.2301 21.7188 12.3749C21.9087 12.5788 21.897 12.8077 21.8943 13.072C21.8944 13.117 21.8945 13.162 21.8948 13.207C21.8952 13.3286 21.8947 13.4501 21.894 13.5717C21.8933 13.6992 21.8935 13.8267 21.8936 13.9542C21.8936 14.1682 21.893 14.3822 21.892 14.5962C21.8908 14.8433 21.8905 15.0905 21.8908 15.3377C21.891 15.5758 21.8906 15.814 21.89 16.0522C21.8898 16.1534 21.8897 16.2546 21.8897 16.3558C21.8897 16.4749 21.8893 16.5941 21.8885 16.7133C21.8883 16.7569 21.8882 16.8006 21.8883 16.8443C21.8884 16.904 21.8879 16.9637 21.8874 17.0234C21.8872 17.0735 21.8872 17.0735 21.887 17.1246C21.8669 17.2828 21.8063 17.3817 21.6934 17.4921C21.5262 17.6101 21.3819 17.6328 21.1796 17.6335C21.1577 17.6337 21.1358 17.6338 21.1133 17.634C21.0414 17.6344 20.9696 17.6344 20.8977 17.6343C20.8475 17.6345 20.7972 17.6346 20.7469 17.6347C20.6417 17.635 20.5364 17.635 20.4312 17.6348C20.2969 17.6346 20.1625 17.6351 20.0282 17.6359C19.9244 17.6363 19.8205 17.6364 19.7167 17.6363C19.6672 17.6363 19.6177 17.6364 19.5682 17.6368C19.0053 17.6399 19.0053 17.6399 18.8107 17.4775C18.7965 17.4591 18.7823 17.4407 18.7676 17.4218C18.7528 17.4034 18.738 17.3851 18.7228 17.3661C18.6517 17.2578 18.6522 17.1617 18.6517 17.0359C18.6515 16.9977 18.6512 16.9596 18.651 16.9203C18.6509 16.8779 18.6508 16.8355 18.6507 16.7932C18.6506 16.7486 18.6503 16.7041 18.6501 16.6595C18.6495 16.5131 18.6491 16.3667 18.6488 16.2203C18.6487 16.1698 18.6486 16.1194 18.6484 16.0689C18.6479 15.8319 18.6474 15.5949 18.6471 15.3578C18.6468 15.0844 18.646 14.8111 18.6448 14.5377C18.6438 14.3262 18.6434 14.1148 18.6432 13.9034C18.6432 13.7771 18.6429 13.6509 18.6421 13.5247C18.6414 13.4059 18.6413 13.287 18.6416 13.1682C18.6416 13.1247 18.6414 13.0812 18.641 13.0377C18.6387 12.7935 18.6443 12.6128 18.7813 12.4062C18.9494 12.2724 19.0811 12.2452 19.2901 12.2444ZM19.75 13.3437C19.75 14.3956 19.75 15.4474 19.75 16.5312C20.0903 16.5312 20.4307 16.5312 20.7813 16.5312C20.7813 15.4793 20.7813 14.4274 20.7813 13.3437C20.441 13.3437 20.1007 13.3437 19.75 13.3437Z" fill="white"/>
<path d="M10.7331 10.119C10.7686 10.1186 10.7686 10.1186 10.8049 10.1182C10.8833 10.1174 10.9618 10.1169 11.0402 10.1164C11.0804 10.1162 11.0804 10.1162 11.1215 10.1159C11.2636 10.1151 11.4058 10.1145 11.5479 10.114C11.6653 10.1136 11.7827 10.1128 11.9001 10.1115C12.042 10.1099 12.1839 10.1092 12.3259 10.1089C12.3799 10.1087 12.4338 10.1083 12.4878 10.1075C12.997 10.1008 12.997 10.1008 13.1759 10.2379C13.3022 10.3663 13.3504 10.4773 13.3572 10.6582C13.3493 10.8209 13.3159 10.9336 13.1982 11.0519C13.0386 11.1945 12.9226 11.2234 12.7097 11.2243C12.6751 11.2246 12.6751 11.2246 12.6398 11.2249C12.5634 11.2255 12.487 11.2259 12.4106 11.2262C12.3844 11.2263 12.3583 11.2264 12.3313 11.2266C12.1928 11.2272 12.0544 11.2277 11.9159 11.228C11.7732 11.2283 11.6306 11.2294 11.4879 11.2306C11.3779 11.2314 11.2679 11.2317 11.1579 11.2318C11.1054 11.232 11.0528 11.2323 11.0002 11.2329C10.4361 11.2388 10.4361 11.2388 10.2224 11.0389C10.1133 10.8634 10.0919 10.704 10.1248 10.5C10.1776 10.3476 10.2726 10.2452 10.406 10.1562C10.5168 10.1193 10.6178 10.1196 10.7331 10.119Z" fill="white"/>
<path d="M19.2793 10.1089C19.3031 10.1087 19.3269 10.1084 19.3513 10.1082C19.4293 10.1077 19.5071 10.108 19.5851 10.1084C19.6396 10.1084 19.6941 10.1082 19.7486 10.1081C19.8626 10.1079 19.9766 10.1082 20.0906 10.1088C20.2364 10.1095 20.3821 10.1091 20.5278 10.1083C20.6403 10.1079 20.7528 10.108 20.8653 10.1083C20.919 10.1084 20.9727 10.1083 21.0265 10.108C21.1017 10.1077 21.1769 10.1082 21.2521 10.1089C21.2851 10.1085 21.2851 10.1085 21.3186 10.1081C21.4879 10.111 21.5819 10.1576 21.7189 10.25C21.8687 10.4117 21.8863 10.5426 21.8838 10.7565C21.8704 10.8913 21.8334 10.9552 21.7501 11.0625C21.5795 11.1948 21.4507 11.2235 21.2403 11.2238C21.2055 11.2241 21.2055 11.2241 21.1701 11.2243C21.0933 11.2248 21.0166 11.225 20.9399 11.2251C20.8866 11.2253 20.8332 11.2255 20.7798 11.2257C20.6679 11.226 20.556 11.2262 20.444 11.2263C20.3008 11.2265 20.1576 11.2272 20.0144 11.2281C19.9041 11.2287 19.7938 11.2289 19.6836 11.2289C19.6308 11.229 19.578 11.2293 19.5252 11.2297C19.4512 11.2302 19.3773 11.2301 19.3033 11.2299C19.2708 11.2304 19.2708 11.2304 19.2376 11.2308C19.0682 11.2294 18.9421 11.1868 18.8169 11.0713C18.8019 11.053 18.787 11.0346 18.7716 11.0157C18.7562 10.9973 18.7409 10.9789 18.7251 10.96C18.6298 10.8235 18.6358 10.6592 18.6564 10.5C18.7207 10.3307 18.8106 10.2404 18.9693 10.152C19.0705 10.108 19.1711 10.1076 19.2793 10.1089Z" fill="white"/>
<path d="M15.0125 10.1199C15.036 10.1198 15.0595 10.1196 15.0837 10.1195C15.1614 10.119 15.2391 10.1188 15.3168 10.1186C15.3709 10.1184 15.425 10.1182 15.479 10.1181C15.5924 10.1177 15.7058 10.1176 15.8193 10.1174C15.9644 10.1173 16.1095 10.1165 16.2546 10.1156C16.3663 10.1151 16.478 10.1149 16.5897 10.1148C16.6432 10.1148 16.6967 10.1145 16.7502 10.1141C16.8251 10.1136 16.9001 10.1136 16.975 10.1138C16.997 10.1135 17.019 10.1132 17.0416 10.1129C17.186 10.1142 17.2833 10.1431 17.4061 10.2187C17.5361 10.3517 17.623 10.4708 17.6258 10.6615C17.6148 10.826 17.5785 10.9347 17.4686 11.0625C17.2947 11.1938 17.178 11.2226 16.9626 11.2242C16.9285 11.2245 16.9285 11.2245 16.8936 11.2249C16.8182 11.2255 16.7428 11.2258 16.6674 11.2262C16.6416 11.2263 16.6158 11.2264 16.5892 11.2265C16.4526 11.2272 16.3159 11.2276 16.1793 11.2279C16.0385 11.2283 15.8977 11.2294 15.757 11.2306C15.6484 11.2314 15.5399 11.2317 15.4313 11.2318C15.3795 11.2319 15.3276 11.2323 15.2757 11.2329C14.7712 11.2382 14.7712 11.2382 14.5623 11.0937C14.4437 10.9751 14.3765 10.8526 14.3737 10.6821C14.3879 10.4755 14.4558 10.3492 14.6111 10.2089C14.7421 10.1183 14.8591 10.1202 15.0125 10.1199Z" fill="white"/>
<defs>
<linearGradient id="paint0_linear_64_15791" x1="16" y1="32" x2="16" y2="0" gradientUnits="userSpaceOnUse">
<stop stop-color="#0538FF"/>
<stop offset="1" stop-color="#5799F7"/>
</linearGradient>
</defs>
</svg>
