<svg width="32" height="32" viewBox="0 0 32 32" fill="none" xmlns="http://www.w3.org/2000/svg">
<rect width="32" height="32" rx="16" fill="url(#paint0_linear_64_15783)"/>
<g clip-path="url(#clip0_64_15783)">
<path d="M19.8438 9.125C20.0054 9.18848 20.1548 9.30098 20.2313 9.46118C20.2833 9.65608 20.293 9.8693 20.2122 10.0563C20.134 10.1775 20.0534 10.2587 19.9375 10.3438C19.9956 10.3442 19.9956 10.3442 20.0548 10.3446C20.2012 10.3459 20.3477 10.348 20.4941 10.3502C20.5569 10.3511 20.6198 10.3518 20.6826 10.3522C21.6571 10.3595 22.4708 10.6243 23.1719 11.3284C23.7862 11.9747 24.0097 12.7585 24.0091 13.6319C24.0093 13.6889 24.0095 13.7459 24.0097 13.803C24.0103 13.957 24.0104 14.1111 24.0105 14.2652C24.0105 14.3617 24.0106 14.4582 24.0108 14.5548C24.0114 14.8924 24.0116 15.23 24.0116 15.5676C24.0116 15.881 24.0122 16.1943 24.0132 16.5077C24.014 16.7778 24.0144 17.0479 24.0143 17.318C24.0143 17.4788 24.0145 17.6397 24.0151 17.8005C24.0157 17.952 24.0157 18.1035 24.0153 18.2551C24.0152 18.3102 24.0154 18.3653 24.0158 18.4205C24.0216 19.3236 23.7223 20.0933 23.0938 20.75C22.5351 21.3064 21.7772 21.6331 20.9882 21.6351C20.9578 21.6354 20.9274 21.6357 20.8961 21.636C20.7969 21.6369 20.6977 21.6373 20.5984 21.6377C20.5642 21.6379 20.5301 21.638 20.4949 21.6382C20.3144 21.6392 20.134 21.6397 19.9535 21.64C19.7677 21.6404 19.5819 21.6419 19.3961 21.6436C19.2526 21.6448 19.1091 21.6451 18.9655 21.6452C18.897 21.6454 18.8285 21.6459 18.76 21.6467C18.6641 21.6478 18.5683 21.6477 18.4725 21.6473C18.4445 21.6479 18.4165 21.6484 18.3877 21.649C18.174 21.6462 18.0372 21.5751 17.875 21.4375C17.7317 21.2698 17.7273 21.1065 17.734 20.8892C17.758 20.7273 17.8181 20.6117 17.9375 20.5C18.1068 20.3855 18.2243 20.3568 18.4266 20.3589C18.4658 20.3586 18.4658 20.3586 18.5058 20.3583C18.5918 20.3577 18.6778 20.3579 18.7638 20.3582C18.8241 20.3578 18.8844 20.3575 18.9447 20.357C19.1033 20.356 19.2619 20.3557 19.4206 20.3556C19.6736 20.3553 19.9267 20.3542 20.1798 20.3527C20.2675 20.3523 20.3553 20.3523 20.443 20.3524C21.1287 20.3509 21.6893 20.2549 22.2109 19.7715C22.6834 19.2718 22.7288 18.6478 22.7268 17.9952C22.7269 17.9467 22.727 17.8981 22.7272 17.8495C22.7275 17.7191 22.7274 17.5887 22.7272 17.4583C22.727 17.3209 22.7271 17.1834 22.7272 17.046C22.7274 16.8154 22.7272 16.5848 22.7269 16.3542C22.7266 16.0887 22.7267 15.8232 22.727 15.5577C22.7273 15.3286 22.7273 15.0994 22.7272 14.8702C22.7271 14.7339 22.7271 14.5975 22.7273 14.4612C22.7275 14.333 22.7273 14.2047 22.727 14.0765C22.7269 14.0298 22.7269 13.9831 22.7271 13.9364C22.7287 13.3146 22.6614 12.7754 22.25 12.2813C22.2334 12.2611 22.2167 12.2409 22.1996 12.2201C21.8654 11.8528 21.3909 11.6839 20.9063 11.6563C20.7383 11.6528 20.5704 11.6533 20.4024 11.6543C20.3571 11.6545 20.3119 11.6546 20.2666 11.6547C20.1569 11.6551 20.0472 11.6556 19.9375 11.6563C19.9669 11.6801 19.9963 11.704 20.0266 11.7286C20.1702 11.8452 20.2386 11.9497 20.2642 12.1327C20.2746 12.3536 20.2602 12.5188 20.1193 12.6945C19.9676 12.8429 19.8261 12.883 19.6152 12.8965C19.3789 12.887 19.2453 12.7991 19.0625 12.6563C19.0181 12.6222 18.9737 12.5882 18.9292 12.5542C18.8314 12.4789 18.7342 12.4029 18.6373 12.3263C18.5231 12.2362 18.4068 12.1499 18.2891 12.0645C18.0212 11.8634 17.8224 11.6165 17.75 11.2813C17.7243 10.8556 17.7428 10.5014 18.0289 10.1613C18.4607 9.71163 19.1981 9.05272 19.8438 9.125Z" fill="white"/>
<path d="M9.76498 19.1166C9.78711 19.1165 9.80924 19.1164 9.83204 19.1162C9.90546 19.1158 9.97888 19.1159 10.0523 19.1159C10.1052 19.1157 10.1582 19.1155 10.2111 19.1153C10.3545 19.1147 10.4978 19.1146 10.6412 19.1145C10.7309 19.1145 10.8206 19.1144 10.9104 19.1142C11.2239 19.1136 11.5374 19.1134 11.8509 19.1134C12.1424 19.1135 12.4338 19.1128 12.7252 19.1118C12.9761 19.111 13.2269 19.1107 13.4778 19.1107C13.6273 19.1107 13.7769 19.1105 13.9264 19.1099C14.0672 19.1093 14.208 19.1093 14.3488 19.1097C14.4002 19.1098 14.4515 19.1096 14.5029 19.1093C15.0682 19.1053 15.5434 19.2495 15.9599 19.6456C16.3606 20.0565 16.5132 20.5189 16.5114 21.0822C16.5018 21.6105 16.2815 22.0403 15.9062 22.4062C15.5859 22.7035 15.1728 22.8822 14.735 22.8834C14.7128 22.8835 14.6907 22.8836 14.6679 22.8838C14.5945 22.8842 14.5211 22.8841 14.4476 22.8841C14.3947 22.8843 14.3417 22.8845 14.2888 22.8847C14.1454 22.8853 14.0021 22.8854 13.8588 22.8854C13.769 22.8855 13.6793 22.8856 13.5896 22.8858C13.2761 22.8864 12.9625 22.8866 12.649 22.8866C12.3576 22.8865 12.0662 22.8872 11.7747 22.8882C11.5239 22.889 11.273 22.8893 11.0221 22.8893C10.8726 22.8893 10.7231 22.8895 10.5735 22.8901C10.4327 22.8907 10.292 22.8907 10.1512 22.8903C10.0998 22.8902 10.0484 22.8904 9.99701 22.8907C9.4317 22.8947 8.95654 22.7505 8.54001 22.3544C8.13938 21.9434 7.98677 21.4811 7.98854 20.9177C7.99814 20.3895 8.2184 19.9597 8.59372 19.5937C8.914 19.2965 9.32713 19.1178 9.76498 19.1166ZM9.3912 20.613C9.27741 20.7667 9.25727 20.9078 9.26633 21.0968C9.29423 21.2667 9.3646 21.3776 9.49692 21.4863C9.68168 21.6112 9.85517 21.6288 10.0762 21.6292C10.136 21.6294 10.136 21.6294 10.197 21.6296C10.2407 21.6296 10.2845 21.6296 10.3283 21.6295C10.3747 21.6296 10.4212 21.6297 10.4676 21.6299C10.5934 21.6301 10.7191 21.6302 10.8449 21.6302C10.9236 21.6302 11.0022 21.6303 11.0809 21.6304C11.3555 21.6307 11.6302 21.6308 11.9048 21.6308C12.1605 21.6308 12.4161 21.6311 12.6718 21.6316C12.8916 21.632 13.1114 21.6322 13.3312 21.6321C13.4623 21.6321 13.5934 21.6322 13.7246 21.6326C13.848 21.6329 13.9713 21.6329 14.0947 21.6326C14.1399 21.6326 14.185 21.6327 14.2302 21.6329C14.6764 21.6391 14.6764 21.6391 15.0625 21.4375C15.1849 21.3037 15.23 21.1811 15.2383 21C15.2296 20.8191 15.1886 20.6938 15.0625 20.5625C14.8641 20.3996 14.6774 20.3712 14.4238 20.3708C14.3839 20.3707 14.344 20.3706 14.303 20.3704C14.2592 20.3704 14.2154 20.3704 14.1716 20.3705C14.1252 20.3704 14.0788 20.3703 14.0324 20.3701C13.9066 20.3699 13.7808 20.3698 13.655 20.3698C13.5764 20.3697 13.4977 20.3697 13.4191 20.3696C13.1444 20.3693 12.8698 20.3692 12.5951 20.3692C12.3395 20.3692 12.0838 20.3689 11.8282 20.3684C11.6084 20.368 11.3886 20.3678 11.1688 20.3678C11.0376 20.3679 10.9065 20.3678 10.7754 20.3674C10.652 20.3671 10.5286 20.3671 10.4052 20.3674C10.3601 20.3674 10.3149 20.3673 10.2698 20.3671C9.78619 20.3601 9.78619 20.3601 9.3912 20.613Z" fill="white"/>
<path d="M12.265 14.1167C12.2871 14.1165 12.3092 14.1164 12.332 14.1162C12.4055 14.1158 12.4789 14.1159 12.5523 14.1159C12.6052 14.1157 12.6582 14.1155 12.7111 14.1153C12.8545 14.1147 12.9978 14.1146 13.1412 14.1146C13.2309 14.1145 13.3206 14.1144 13.4104 14.1142C13.7239 14.1136 14.0374 14.1134 14.3509 14.1134C14.6424 14.1135 14.9338 14.1128 15.2252 14.1118C15.4761 14.111 15.7269 14.1107 15.9778 14.1107C16.1273 14.1107 16.2769 14.1105 16.4264 14.1099C16.5672 14.1093 16.708 14.1093 16.8488 14.1097C16.9002 14.1098 16.9515 14.1096 17.0029 14.1093C17.5682 14.1054 18.0434 14.2495 18.4599 14.6456C18.8606 15.0566 19.0132 15.5189 19.0114 16.0823C19.0018 16.6105 18.7815 17.0403 18.4062 17.4063C18.0859 17.7035 17.6728 17.8822 17.235 17.8834C17.2128 17.8835 17.1907 17.8837 17.1679 17.8838C17.0945 17.8842 17.0211 17.8841 16.9476 17.8841C16.8947 17.8843 16.8417 17.8845 16.7888 17.8847C16.6454 17.8853 16.5021 17.8854 16.3588 17.8855C16.269 17.8855 16.1793 17.8856 16.0896 17.8858C15.7761 17.8864 15.4625 17.8866 15.149 17.8866C14.8576 17.8866 14.5662 17.8872 14.2747 17.8882C14.0239 17.889 13.773 17.8894 13.5221 17.8893C13.3726 17.8893 13.2231 17.8895 13.0735 17.8901C12.9327 17.8907 12.792 17.8907 12.6512 17.8903C12.5998 17.8902 12.5484 17.8904 12.497 17.8908C11.9317 17.8947 11.4565 17.7505 11.04 17.3544C10.6394 16.9435 10.4868 16.4811 10.4885 15.9178C10.4981 15.3895 10.7184 14.9597 11.0937 14.5938C11.414 14.2965 11.8271 14.1178 12.265 14.1167ZM11.8912 15.613C11.7774 15.7667 11.7573 15.9078 11.7663 16.0968C11.7942 16.2667 11.8646 16.3777 11.9969 16.4863C12.1817 16.6112 12.3552 16.6289 12.5762 16.6292C12.636 16.6294 12.636 16.6294 12.697 16.6296C12.7407 16.6296 12.7845 16.6296 12.8283 16.6296C12.8747 16.6296 12.9212 16.6298 12.9676 16.6299C13.0934 16.6301 13.2191 16.6302 13.3449 16.6302C13.4236 16.6303 13.5022 16.6303 13.5809 16.6304C13.8555 16.6307 14.1302 16.6308 14.4048 16.6308C14.6605 16.6308 14.9161 16.6311 15.1718 16.6316C15.3916 16.632 15.6114 16.6322 15.8312 16.6322C15.9623 16.6322 16.0934 16.6322 16.2246 16.6326C16.348 16.6329 16.4713 16.6329 16.5947 16.6327C16.6399 16.6326 16.685 16.6327 16.7302 16.6329C17.1764 16.6391 17.1764 16.6391 17.5625 16.4375C17.6849 16.3037 17.73 16.1811 17.7383 16C17.7296 15.8191 17.6886 15.6939 17.5625 15.5625C17.3641 15.3996 17.1774 15.3712 16.9238 15.3708C16.8839 15.3707 16.844 15.3706 16.803 15.3704C16.7592 15.3704 16.7154 15.3705 16.6716 15.3705C16.6252 15.3704 16.5788 15.3703 16.5324 15.3702C16.4066 15.3699 16.2808 15.3698 16.155 15.3698C16.0764 15.3698 15.9977 15.3697 15.9191 15.3696C15.6444 15.3693 15.3698 15.3692 15.0951 15.3692C14.8395 15.3692 14.5838 15.3689 14.3282 15.3684C14.1084 15.368 13.8886 15.3678 13.6688 15.3679C13.5376 15.3679 13.4065 15.3678 13.2754 15.3674C13.152 15.3671 13.0286 15.3671 12.9052 15.3674C12.8601 15.3674 12.8149 15.3673 12.7698 15.3671C12.2862 15.3601 12.2862 15.3601 11.8912 15.613Z" fill="white"/>
<path d="M9.76498 9.11665C9.78711 9.11651 9.80924 9.11637 9.83204 9.11622C9.90546 9.11583 9.97888 9.11588 10.0523 9.11593C10.1052 9.11574 10.1582 9.11553 10.2111 9.1153C10.3545 9.11475 10.4978 9.1146 10.6412 9.11456C10.7309 9.11451 10.8206 9.11438 10.9104 9.11421C11.2239 9.11364 11.5374 9.11338 11.8509 9.11343C12.1424 9.11347 12.4338 9.11281 12.7252 9.11182C12.9761 9.111 13.2269 9.11067 13.4778 9.11071C13.6273 9.11072 13.7769 9.11055 13.9264 9.10988C14.0672 9.10928 14.208 9.10928 14.3488 9.10973C14.4002 9.10979 14.4515 9.10965 14.5029 9.10927C15.0682 9.10536 15.5434 9.24954 15.9599 9.64564C16.3606 10.0566 16.5132 10.5189 16.5114 11.0823C16.5018 11.6105 16.2815 12.0403 15.9062 12.4063C15.5859 12.7035 15.1728 12.8822 14.735 12.8834C14.7128 12.8835 14.6907 12.8837 14.6679 12.8838C14.5945 12.8842 14.5211 12.8841 14.4476 12.8841C14.3947 12.8843 14.3417 12.8845 14.2888 12.8847C14.1454 12.8853 14.0021 12.8854 13.8588 12.8855C13.769 12.8855 13.6793 12.8856 13.5896 12.8858C13.2761 12.8864 12.9625 12.8866 12.649 12.8866C12.3576 12.8866 12.0662 12.8872 11.7747 12.8882C11.5239 12.889 11.273 12.8894 11.0221 12.8893C10.8726 12.8893 10.7231 12.8895 10.5735 12.8901C10.4327 12.8907 10.292 12.8907 10.1512 12.8903C10.0998 12.8902 10.0484 12.8904 9.99701 12.8908C9.4317 12.8947 8.95654 12.7505 8.54001 12.3544C8.13938 11.9435 7.98677 11.4811 7.98854 10.9178C7.99814 10.3895 8.2184 9.95968 8.59372 9.59376C8.914 9.29648 9.32713 9.11782 9.76498 9.11665ZM9.3912 10.613C9.27741 10.7667 9.25727 10.9078 9.26633 11.0968C9.29423 11.2667 9.3646 11.3777 9.49692 11.4863C9.68168 11.6112 9.85517 11.6289 10.0762 11.6292C10.136 11.6294 10.136 11.6294 10.197 11.6296C10.2407 11.6296 10.2845 11.6296 10.3283 11.6296C10.3747 11.6296 10.4212 11.6298 10.4676 11.6299C10.5934 11.6301 10.7191 11.6302 10.8449 11.6302C10.9236 11.6303 11.0022 11.6303 11.0809 11.6304C11.3555 11.6307 11.6302 11.6308 11.9048 11.6308C12.1605 11.6308 12.4161 11.6311 12.6718 11.6316C12.8916 11.632 13.1114 11.6322 13.3312 11.6322C13.4623 11.6322 13.5934 11.6322 13.7246 11.6326C13.848 11.6329 13.9713 11.6329 14.0947 11.6327C14.1399 11.6326 14.185 11.6327 14.2302 11.6329C14.6764 11.6391 14.6764 11.6391 15.0625 11.4375C15.1849 11.3037 15.23 11.1811 15.2383 11C15.2296 10.8191 15.1886 10.6939 15.0625 10.5625C14.8641 10.3996 14.6774 10.3712 14.4238 10.3708C14.3839 10.3707 14.344 10.3706 14.303 10.3704C14.2592 10.3704 14.2154 10.3705 14.1716 10.3705C14.1252 10.3704 14.0788 10.3703 14.0324 10.3702C13.9066 10.3699 13.7808 10.3698 13.655 10.3698C13.5764 10.3698 13.4977 10.3697 13.4191 10.3696C13.1444 10.3693 12.8698 10.3692 12.5951 10.3692C12.3395 10.3692 12.0838 10.3689 11.8282 10.3684C11.6084 10.368 11.3886 10.3678 11.1688 10.3679C11.0376 10.3679 10.9065 10.3678 10.7754 10.3674C10.652 10.3671 10.5286 10.3671 10.4052 10.3674C10.3601 10.3674 10.3149 10.3673 10.2698 10.3671C9.78619 10.3601 9.78619 10.3601 9.3912 10.613Z" fill="white"/>
</g>
<defs>
<linearGradient id="paint0_linear_64_15783" x1="16" y1="32" x2="16" y2="0" gradientUnits="userSpaceOnUse">
<stop stop-color="#0538FF"/>
<stop offset="1" stop-color="#5799F7"/>
</linearGradient>
<clipPath id="clip0_64_15783">
<rect width="16" height="16" fill="white" transform="translate(8 8)"/>
</clipPath>
</defs>
</svg>
