<svg width="32" height="32" viewBox="0 0 32 32" fill="none" xmlns="http://www.w3.org/2000/svg">
<rect width="32" height="32" rx="16" fill="url(#paint0_linear_64_15923)"/>
<g clip-path="url(#clip0_64_15923)">
<path d="M14.4356 7.99265C14.4614 7.99234 14.4873 7.99203 14.5139 7.99172C15.5619 7.98187 16.5302 8.11359 17.5001 8.53134C17.5221 8.54076 17.5442 8.55017 17.5668 8.55988C18.071 8.7786 18.5405 9.06189 18.9689 9.40634C19.0151 9.44302 19.0151 9.44302 19.0623 9.48044C19.5179 9.8495 19.9413 10.2716 20.2814 10.7501C20.2944 10.7683 20.3074 10.7865 20.3208 10.8053C21.0929 11.8972 21.5602 13.1977 21.5783 14.5411C21.5788 14.5691 21.5794 14.597 21.58 14.6258C21.5783 14.7961 21.5545 14.8991 21.4376 15.0313C21.2921 15.1491 21.1495 15.1387 20.9708 15.1375C20.9409 15.1376 20.911 15.1377 20.8802 15.1378C20.817 15.1379 20.7539 15.1377 20.6907 15.1373C20.5942 15.1368 20.4978 15.1373 20.4013 15.1379C20.3398 15.1378 20.2784 15.1377 20.2169 15.1375C20.1882 15.1377 20.1594 15.1379 20.1297 15.1381C19.9775 15.1365 19.8735 15.1306 19.7501 15.0313C19.6446 14.9113 19.6406 14.7926 19.6452 14.6389C19.6616 14.5269 19.7077 14.4593 19.7814 14.3751C19.9136 14.287 20.034 14.2782 20.1902 14.2715C20.2339 14.2695 20.2339 14.2695 20.2784 14.2675C20.3084 14.2663 20.3384 14.265 20.3693 14.2638C20.3999 14.2624 20.4305 14.2611 20.462 14.2597C20.5372 14.2564 20.6124 14.2532 20.6876 14.2501C20.5018 12.6554 19.766 11.1656 18.4962 10.1548C17.6356 9.4905 16.6667 9.07778 15.5939 8.90634C15.5525 8.89932 15.5111 8.89225 15.4697 8.8851C15.3862 8.87083 15.3026 8.85715 15.2189 8.84384C15.2196 8.87361 15.2196 8.87361 15.2204 8.90398C15.2223 8.99461 15.2235 9.08523 15.2247 9.17587C15.2255 9.20709 15.2263 9.23831 15.2271 9.27048C15.2293 9.48607 15.2052 9.62374 15.0626 9.79306C14.9187 9.87103 14.7849 9.87466 14.6251 9.84384C14.4992 9.77361 14.4209 9.69989 14.3751 9.56259C14.3726 9.50718 14.3718 9.45168 14.3721 9.39621C14.3722 9.36408 14.3723 9.33196 14.3724 9.29886C14.3727 9.26536 14.3729 9.23187 14.3732 9.19736C14.3733 9.1635 14.3735 9.12964 14.3736 9.09476C14.374 9.01112 14.3745 8.92748 14.3751 8.84384C12.7095 9.10402 11.2205 9.73447 10.1564 11.0938C10.1428 11.1111 10.1293 11.1283 10.1153 11.1461C9.39141 12.0752 9.05538 13.1319 8.87514 14.2813C8.90466 14.2806 8.90466 14.2806 8.93478 14.2799C9.02492 14.2779 9.11506 14.2767 9.20522 14.2755C9.23617 14.2747 9.26713 14.2739 9.29903 14.2731C9.48522 14.2712 9.61795 14.2833 9.78139 14.3751C9.90473 14.5082 9.94888 14.5947 9.94655 14.7783C9.9288 14.9089 9.85095 14.9954 9.75762 15.0829C9.66608 15.1381 9.60411 15.1358 9.4977 15.1342C9.46144 15.1339 9.42519 15.1336 9.38783 15.1333C9.35013 15.1325 9.31242 15.1318 9.27358 15.131C9.23539 15.1305 9.1972 15.1301 9.15785 15.1297C9.0636 15.1286 8.96938 15.127 8.87514 15.1251C9.01707 16.4238 9.44007 17.6304 10.3126 18.6251C10.3361 18.652 10.3595 18.6788 10.3837 18.7065C10.4528 18.7845 10.523 18.8613 10.5939 18.9376C10.613 18.9584 10.6321 18.9792 10.6517 19.0006C11.633 20.0277 13.0031 20.4985 14.3751 20.6876C14.3745 20.663 14.3738 20.6384 14.3732 20.6131C14.3705 20.5012 14.3689 20.3893 14.3673 20.2774C14.3663 20.2388 14.3652 20.2001 14.3642 20.1602C14.3607 19.839 14.3607 19.839 14.4309 19.7269C14.5299 19.626 14.6108 19.5844 14.7501 19.5626C14.8766 19.5658 14.985 19.5853 15.0828 19.6692C15.1782 19.7811 15.2225 19.8612 15.2244 20.0054C15.2248 20.0324 15.2252 20.0593 15.2256 20.087C15.2259 20.1162 15.2261 20.1453 15.2263 20.1754C15.2267 20.2204 15.2267 20.2204 15.2271 20.2663C15.2275 20.3298 15.2279 20.3934 15.2281 20.457C15.2286 20.554 15.23 20.6509 15.2314 20.7479C15.2317 20.8097 15.232 20.8714 15.2322 20.9332C15.2327 20.9621 15.2333 20.991 15.2339 21.0208C15.2333 21.1968 15.2121 21.2982 15.0939 21.4376C14.888 21.6185 14.6194 21.5696 14.3626 21.5533C12.6561 21.422 11.2076 20.7282 9.96889 19.5626C9.9483 19.5433 9.92772 19.5241 9.90651 19.5042C8.67954 18.3198 8.02869 16.5469 7.99122 14.8668C7.97503 13.1591 8.58535 11.4887 9.7444 10.2304C9.79148 10.1793 9.83791 10.1276 9.88381 10.0754C10.028 9.91145 10.175 9.76337 10.3439 9.62509C10.3597 9.61181 10.3756 9.59853 10.3919 9.58484C11.5093 8.64998 12.9613 8.0072 14.4356 7.99265Z" fill="white"/>
<path d="M21.3963 16.9179C21.4169 16.9262 21.4375 16.9346 21.4587 16.9432C21.6108 17.0106 21.6899 17.0833 21.7811 17.2186C21.8188 17.3725 21.7965 17.5002 21.7264 17.6405C21.6264 17.7516 21.5603 17.7773 21.4119 17.7968C21.2476 17.7938 21.1089 17.7305 20.9603 17.6673C20.2813 17.3798 19.5177 17.4065 18.8357 17.6706C18.0933 17.9772 17.5667 18.5537 17.2498 19.2811C16.9826 19.9891 16.9929 20.763 17.2936 21.4562C17.4273 21.7406 17.5784 21.9782 17.7811 22.2186C17.8001 22.244 17.8192 22.2693 17.8388 22.2954C18.2832 22.8205 18.9972 23.1094 19.6673 23.1749C20.46 23.237 21.2091 22.9823 21.8123 22.4686C22.3474 22.004 22.6904 21.3341 22.7621 20.6287C22.7668 20.5545 22.7711 20.4803 22.7751 20.4061C22.786 20.2346 22.806 20.1338 22.9275 20.0038C23.0445 19.9287 23.1111 19.9061 23.2498 19.9061C23.413 19.9559 23.5045 20.0105 23.5936 20.1561C23.6121 20.2567 23.6113 20.3549 23.6092 20.4569C23.6088 20.4858 23.6084 20.5148 23.608 20.5446C23.5803 21.5319 23.097 22.4137 22.394 23.0847C21.5982 23.8201 20.6085 24.0355 19.5553 24.0055C19.3092 23.9938 19.0784 23.9478 18.8436 23.8749C18.8114 23.8651 18.8114 23.8651 18.7787 23.8551C18.3178 23.7096 17.8939 23.4756 17.5311 23.1561C17.5055 23.1347 17.48 23.1133 17.4537 23.0912C16.7476 22.4835 16.3015 21.5798 16.2237 20.6517C16.1657 19.6417 16.439 18.6626 17.113 17.8919C17.7527 17.1746 18.6369 16.7046 19.6038 16.6288C20.2224 16.5998 20.8239 16.6779 21.3963 16.9179Z" fill="white"/>
<path d="M23.7813 17.2813C23.8852 17.3632 23.9494 17.4413 24 17.5626C24.0128 17.6824 23.9996 17.7984 23.931 17.8994C23.749 18.0982 23.5594 18.2895 23.3691 18.4803C23.3308 18.5188 23.2925 18.5572 23.2543 18.5957C23.1295 18.7211 23.0046 18.8464 22.8796 18.9716C22.8365 19.0149 22.7934 19.0582 22.7502 19.1014C22.5478 19.3044 22.3454 19.5073 22.1428 19.7102C21.9092 19.9441 21.6758 20.1783 21.4427 20.4127C21.2622 20.5941 21.0814 20.7754 20.9005 20.9564C20.7925 21.0645 20.6846 21.1726 20.577 21.281C20.476 21.3828 20.3746 21.4843 20.2731 21.5855C20.2358 21.6227 20.1987 21.66 20.1617 21.6975C20.1112 21.7485 20.0603 21.7992 20.0094 21.8497C19.981 21.8782 19.9526 21.9066 19.9234 21.9359C19.8402 22.0029 19.7932 22.0251 19.6875 22.0313C19.6304 21.9992 19.6304 21.9992 19.5755 21.9463C19.5539 21.9259 19.5324 21.9056 19.5102 21.8845C19.4862 21.8608 19.4622 21.8371 19.4375 21.8126C19.4105 21.7864 19.3834 21.7601 19.3555 21.7331C19.2609 21.6406 19.1671 21.5474 19.0735 21.4538C19.039 21.4194 19.0044 21.385 18.9699 21.3506C18.8981 21.2789 18.8263 21.2072 18.7545 21.1354C18.6626 21.0435 18.5705 20.9518 18.4784 20.8602C18.4072 20.7894 18.3362 20.7185 18.2652 20.6475C18.2313 20.6136 18.1974 20.5798 18.1633 20.546C18.1159 20.4989 18.0687 20.4516 18.0216 20.4042C17.9947 20.3774 17.9678 20.3506 17.9402 20.323C17.8494 20.2214 17.8161 20.1569 17.8008 20.0216C17.8148 19.8835 17.846 19.7924 17.9375 19.6876C18.071 19.6054 18.186 19.5734 18.3431 19.6012C18.5585 19.6826 18.7365 19.9214 18.8939 20.084C18.9379 20.1288 18.982 20.1737 19.0261 20.2185C19.0945 20.2884 19.1629 20.3583 19.2309 20.4286C19.2973 20.497 19.3641 20.5649 19.431 20.6328C19.4513 20.654 19.4716 20.6752 19.4925 20.697C19.5117 20.7163 19.5309 20.7356 19.5507 20.7555C19.5757 20.7812 19.5757 20.7812 19.6012 20.8073C19.6782 20.8584 19.7212 20.8554 19.8125 20.8438C19.8904 20.7888 19.8904 20.7888 19.9643 20.7102C19.9787 20.6958 19.9932 20.6815 20.0081 20.6666C20.0564 20.6183 20.1041 20.5695 20.1519 20.5207C20.1864 20.486 20.221 20.4513 20.2556 20.4166C20.33 20.3419 20.4042 20.2669 20.4782 20.1918C20.5952 20.073 20.7128 19.9547 20.8304 19.8365C21.0377 19.6282 21.2444 19.4194 21.4511 19.2105C21.7621 18.8961 22.0735 18.5821 22.3854 18.2685C22.5023 18.1509 22.6189 18.0331 22.7353 17.9151C22.8078 17.8417 22.8805 17.7685 22.9532 17.6954C22.9869 17.6614 23.0205 17.6274 23.054 17.5933C23.0998 17.5467 23.1458 17.5004 23.192 17.4542C23.2305 17.4152 23.2305 17.4152 23.2698 17.3754C23.4295 17.2397 23.5842 17.2255 23.7813 17.2813Z" fill="white"/>
<path d="M15.0812 12.074C15.2146 12.2294 15.2238 12.3596 15.2241 12.5554C15.2243 12.5925 15.2243 12.5925 15.2245 12.6303C15.225 12.7121 15.2252 12.7939 15.2254 12.8756C15.2256 12.9325 15.2257 12.9894 15.2259 13.0462C15.2263 13.1655 15.2264 13.2848 15.2265 13.4041C15.2267 13.5568 15.2275 13.7095 15.2284 13.8622C15.2289 13.9797 15.2291 14.0972 15.2292 14.2147C15.2292 14.2709 15.2295 14.3272 15.2299 14.3835C15.2304 14.4623 15.2304 14.5412 15.2302 14.62C15.2305 14.6431 15.2308 14.6663 15.2311 14.6901C15.2299 14.8373 15.2022 14.9372 15.1253 15.0625C15.0688 15.1137 15.0688 15.1137 15.0041 15.1535C14.9791 15.169 14.9541 15.1845 14.9284 15.2005C14.9005 15.2168 14.8727 15.2332 14.844 15.25C14.8138 15.2679 14.7835 15.2857 14.7523 15.3041C14.6669 15.3536 14.5813 15.4025 14.4954 15.451C14.4183 15.4946 14.3413 15.5383 14.2644 15.5821C14.2246 15.6047 14.1847 15.6274 14.1449 15.65C13.949 15.7612 13.7539 15.8737 13.5589 15.9864C13.526 16.0053 13.4931 16.0243 13.4593 16.0439C13.3926 16.0824 13.326 16.1209 13.2593 16.1594C13.1516 16.2216 13.0439 16.2837 12.9361 16.3457C12.8994 16.3669 12.8627 16.388 12.826 16.4091C12.757 16.4489 12.688 16.4886 12.619 16.5282C12.4433 16.6295 12.2687 16.7323 12.0959 16.8386C11.9684 16.9108 11.8635 16.9161 11.719 16.9063C11.5584 16.8496 11.4805 16.7787 11.4065 16.625C11.3815 16.4827 11.392 16.3761 11.4515 16.2442C11.6457 16.031 11.9242 15.9031 12.1741 15.7657C12.4389 15.6187 12.702 15.4697 12.9632 15.3164C13.2281 15.1612 13.4936 15.0068 13.7599 14.854C13.7987 14.8318 13.8375 14.8095 13.8762 14.7871C13.9303 14.7559 13.9845 14.7249 14.0387 14.6939C14.0698 14.676 14.1009 14.6582 14.1329 14.6398C14.2124 14.5973 14.2914 14.564 14.3753 14.5313C14.375 14.4889 14.375 14.4889 14.3747 14.4457C14.3728 14.1795 14.3714 13.9133 14.3704 13.6471C14.3699 13.5102 14.3693 13.3733 14.3682 13.2365C14.3672 13.1044 14.3666 12.9723 14.3664 12.8401C14.3662 12.7898 14.3659 12.7394 14.3654 12.689C14.3647 12.6184 14.3646 12.5478 14.3646 12.4772C14.3643 12.4169 14.3643 12.4169 14.364 12.3554C14.3762 12.2419 14.4008 12.1842 14.469 12.0938C14.6532 11.9581 14.895 11.9139 15.0812 12.074Z" fill="white"/>
</g>
<defs>
<linearGradient id="paint0_linear_64_15923" x1="2.336" y1="28.832" x2="30.976" y2="1.6" gradientUnits="userSpaceOnUse">
<stop stop-color="#0C2365"/>
<stop offset="0.692708" stop-color="#496DD3"/>
<stop offset="1" stop-color="#94B0FE"/>
</linearGradient>
<clipPath id="clip0_64_15923">
<rect width="16" height="16" fill="white" transform="translate(8 8)"/>
</clipPath>
</defs>
</svg>
