<svg width="32" height="32" viewBox="0 0 32 32" fill="none" xmlns="http://www.w3.org/2000/svg">
<rect width="32" height="32" rx="16" fill="url(#paint0_linear_64_15888)"/>
<path d="M14.6665 19.7001L13.4865 20.8467C13.1771 21.1561 12.7575 21.33 12.3199 21.33C11.8823 21.33 11.4626 21.1561 11.1532 20.8467C10.8438 20.5373 10.67 20.1176 10.67 19.6801C10.67 19.2425 10.8438 18.8228 11.1532 18.5134L14.1799 15.4801C14.4769 15.182 14.8772 15.0096 15.2979 14.9984C15.7185 14.9872 16.1274 15.1382 16.4399 15.4201L16.5199 15.4867C16.6463 15.6105 16.8167 15.679 16.9936 15.6771C17.1705 15.6752 17.3394 15.6031 17.4632 15.4767C17.587 15.3503 17.6555 15.1799 17.6536 15.003C17.6517 14.8261 17.5796 14.6572 17.4532 14.5334C17.4154 14.4849 17.3753 14.4382 17.3332 14.3934C16.7641 13.8983 16.0281 13.638 15.2742 13.6652C14.5204 13.6924 13.8051 14.0052 13.2732 14.5401L10.2065 17.5734C9.68544 18.1406 9.40362 18.8872 9.41992 19.6572C9.43622 20.4273 9.74939 21.1613 10.294 21.7059C10.8387 22.2505 11.5726 22.5637 12.3427 22.58C13.1128 22.5963 13.8593 22.3145 14.4265 21.7934L15.5799 20.6667C15.6937 20.5425 15.7563 20.3797 15.7551 20.2112C15.7538 20.0427 15.6888 19.8809 15.573 19.7584C15.4573 19.6359 15.2994 19.5618 15.1312 19.551C14.9631 19.5401 14.797 19.5934 14.6665 19.7001ZM21.7932 10.2067C21.2324 9.64939 20.4739 9.33658 19.6832 9.33658C18.8926 9.33658 18.134 9.64939 17.5732 10.2067L16.4199 11.3334C16.306 11.4576 16.2434 11.6204 16.2447 11.7889C16.2459 11.9574 16.311 12.1192 16.4267 12.2417C16.5425 12.3642 16.7003 12.4383 16.8685 12.4492C17.0367 12.46 17.2027 12.4067 17.3332 12.3001L18.4865 11.1534C18.796 10.844 19.2156 10.6701 19.6532 10.6701C20.0908 10.6701 20.5105 10.844 20.8199 11.1534C21.1293 11.4628 21.3031 11.8825 21.3031 12.3201C21.3031 12.7576 21.1293 13.1773 20.8199 13.4867L17.7932 16.5201C17.4961 16.8181 17.0959 16.9905 16.6752 17.0017C16.2545 17.0129 15.8457 16.8619 15.5332 16.5801L15.4532 16.5134C15.3268 16.3896 15.1564 16.3211 14.9795 16.323C14.8026 16.3249 14.6336 16.397 14.5099 16.5234C14.3861 16.6498 14.3176 16.8202 14.3195 16.9971C14.3214 17.174 14.3935 17.343 14.5199 17.4667C14.5685 17.516 14.6197 17.5627 14.6732 17.6067C15.243 18.1004 15.9787 18.3597 16.7321 18.3325C17.4855 18.3053 18.2005 17.9935 18.7332 17.4601L21.7665 14.4267C22.3274 13.8694 22.645 13.1129 22.65 12.3222C22.655 11.5316 22.347 10.771 21.7932 10.2067Z" fill="white"/>
<defs>
<linearGradient id="paint0_linear_64_15888" x1="2.048" y1="29.44" x2="28.608" y2="3.872" gradientUnits="userSpaceOnUse">
<stop stop-color="#52528B"/>
<stop offset="0.671875" stop-color="#8484D6"/>
<stop offset="1" stop-color="#C2C2F9"/>
</linearGradient>
</defs>
</svg>
