<svg width="32" height="32" viewBox="0 0 32 32" fill="none" xmlns="http://www.w3.org/2000/svg">
<rect width="32" height="32" rx="16" fill="url(#paint0_linear_64_15843)"/>
<path d="M23.8453 16.2465C23.8393 14.9471 23.3199 13.7026 22.4003 12.7845L17.7353 8.05253C17.2761 7.59368 16.6535 7.33594 16.0043 7.33594C15.3551 7.33594 14.7325 7.59368 14.2733 8.05253L9.60932 12.7415C8.9154 13.4335 8.44251 14.3159 8.25055 15.277C8.0586 16.238 8.15622 17.2343 8.53105 18.1398C8.90587 19.0453 9.54104 19.8191 10.3561 20.3633C11.1711 20.9075 12.1293 21.1974 13.1093 21.1965C12.8941 21.9445 12.5343 22.643 12.0503 23.2525C11.9454 23.3813 11.8797 23.5376 11.8612 23.7026C11.8427 23.8677 11.8721 24.0346 11.9459 24.1835C12.0198 24.3323 12.1349 24.4567 12.2775 24.5418C12.4202 24.6269 12.5843 24.6692 12.7503 24.6635H19.2583C19.4223 24.6645 19.5832 24.6188 19.7222 24.5319C19.8612 24.4449 19.9727 24.3202 20.0435 24.1723C20.1144 24.0244 20.1417 23.8594 20.1224 23.6966C20.1031 23.5337 20.0378 23.3797 19.9343 23.2525C19.4484 22.6454 19.0868 21.9485 18.8703 21.2015C19.5233 21.2083 20.1712 21.0851 20.7761 20.8391C21.3811 20.5931 21.9311 20.2293 22.394 19.7687C22.857 19.3081 23.2238 18.7601 23.4729 18.1564C23.7221 17.5528 23.8487 16.9056 23.8453 16.2525V16.2465ZM21.1973 18.5225C20.7881 18.9255 20.2799 19.2137 19.724 19.358C19.168 19.5023 18.5839 19.4976 18.0303 19.3445C17.9814 19.3404 17.9322 19.3404 17.8833 19.3445H17.7103C17.6457 19.3567 17.5821 19.3741 17.5203 19.3965H17.3903C17.3486 19.425 17.3106 19.4586 17.2773 19.4965C17.2226 19.5294 17.1731 19.5702 17.1303 19.6175C17.1167 19.6527 17.0992 19.6862 17.0783 19.7175C17.0416 19.7824 17.0082 19.8492 16.9783 19.9175C16.974 19.9694 16.974 20.0216 16.9783 20.0735C16.9783 20.1255 16.9783 20.1775 16.9783 20.2295C17.0463 21.1685 17.287 22.0869 17.6883 22.9385H14.3243C14.7349 22.1256 14.9931 21.2444 15.0863 20.3385V20.1745C15.0906 20.1226 15.0906 20.0704 15.0863 20.0185C15.0573 19.9448 15.0193 19.875 14.9733 19.8105C14.9592 19.7797 14.9418 19.7505 14.9213 19.7235C14.8838 19.6745 14.8369 19.6333 14.7833 19.6025C14.748 19.5666 14.7102 19.5332 14.6703 19.5025H14.5513C14.4878 19.4731 14.4205 19.4526 14.3513 19.4415H14.1873C14.1354 19.4373 14.0832 19.4373 14.0313 19.4415C13.4617 19.5896 12.8629 19.5827 12.2969 19.4214C11.7309 19.2602 11.2184 18.9505 10.8123 18.5245C10.211 17.9193 9.87224 17.1017 9.86932 16.2485C9.86794 15.8256 9.95059 15.4066 10.1125 15.0159C10.2743 14.6252 10.5122 14.2705 10.8123 13.9725L15.4853 9.28153C15.6161 9.15387 15.7916 9.08241 15.9743 9.08241C16.1571 9.08241 16.3326 9.15387 16.4633 9.28153L21.1973 13.9725C21.4974 14.2705 21.7353 14.6252 21.8972 15.0159C22.059 15.4066 22.1417 15.8256 22.1403 16.2485C22.1341 17.1004 21.7958 17.9162 21.1973 18.5225Z" fill="white"/>
<defs>
<linearGradient id="paint0_linear_64_15843" x1="-8.70132e-08" y1="28.48" x2="26.176" y2="5.888" gradientUnits="userSpaceOnUse">
<stop stop-color="#035C42"/>
<stop offset="1" stop-color="#06B884"/>
</linearGradient>
</defs>
</svg>
