<svg width="32" height="32" viewBox="0 0 32 32" fill="none" xmlns="http://www.w3.org/2000/svg">
<rect width="32" height="32" rx="16" fill="url(#paint0_linear_64_15651)"/>
<g clip-path="url(#clip0_64_15651)">
<path d="M19.8125 16.1562C19.9608 16.2084 20.0382 16.276 20.125 16.4062C20.1818 16.5248 20.195 16.6176 20.1936 16.7486C20.1933 16.8008 20.1933 16.8008 20.193 16.8539C20.1922 16.9079 20.1922 16.9079 20.1914 16.9629C20.1911 16.9994 20.1909 17.036 20.1906 17.0737C20.1898 17.1637 20.1888 17.2537 20.1875 17.3437C20.2197 17.3474 20.2519 17.351 20.285 17.3547C20.3998 17.3739 20.4895 17.403 20.5957 17.4492C20.6264 17.4623 20.657 17.4755 20.6886 17.489C20.7832 17.5321 20.8761 17.5779 20.9688 17.625C20.9917 17.6013 20.9917 17.6013 21.015 17.5772C21.0847 17.5056 21.1546 17.4345 21.2246 17.3633C21.2607 17.326 21.2607 17.326 21.2974 17.2881C21.3209 17.2643 21.3444 17.2405 21.3685 17.216C21.39 17.1941 21.4114 17.1722 21.4335 17.1496C21.5645 17.0396 21.6977 17.0154 21.8641 17.0193C22.0249 17.0455 22.1437 17.1367 22.2481 17.2578C22.3118 17.4229 22.3294 17.5649 22.2813 17.7363C22.1375 17.9834 21.9216 18.1762 21.7188 18.375C21.7414 18.4242 21.7414 18.4242 21.7644 18.4745C21.7844 18.5188 21.8043 18.5631 21.8242 18.6074C21.8341 18.6289 21.844 18.6504 21.8543 18.6725C21.9249 18.8308 21.9684 18.9859 22 19.1562C22.0236 19.1557 22.0473 19.1553 22.0716 19.1547C22.1793 19.1528 22.2869 19.1516 22.3945 19.1504C22.4317 19.1496 22.4689 19.1488 22.5072 19.148C22.8523 19.1451 22.8523 19.1451 23 19.25C23.1214 19.3781 23.1794 19.4909 23.1992 19.666C23.1846 19.8094 23.146 19.9138 23.0625 20.0312C22.9088 20.1536 22.7949 20.1915 22.6012 20.1905C22.5663 20.1904 22.5313 20.1903 22.4953 20.1902C22.4588 20.19 22.4224 20.1897 22.3848 20.1894C22.3479 20.1893 22.3111 20.1892 22.2731 20.189C22.1821 20.1886 22.0911 20.1881 22 20.1875C21.9944 20.2119 21.9888 20.2364 21.983 20.2615C21.9387 20.4477 21.8907 20.6172 21.8066 20.789C21.7901 20.8234 21.7735 20.8577 21.7565 20.893C21.7378 20.9305 21.7378 20.9305 21.7188 20.9687C21.7334 20.9826 21.7481 20.9964 21.7632 21.0107C21.8302 21.0744 21.8965 21.1387 21.9629 21.2031C21.986 21.2249 22.009 21.2466 22.0328 21.269C22.1974 21.4299 22.2922 21.562 22.3225 21.7959C22.3031 21.9978 22.216 22.1197 22.0625 22.25C21.9144 22.3305 21.754 22.3277 21.5938 22.2812C21.4298 22.1881 21.3061 22.0635 21.1758 21.9297C21.1558 21.9094 21.1357 21.8891 21.1151 21.8681C21.0662 21.8185 21.0174 21.7687 20.9688 21.7187C20.9195 21.7413 20.9195 21.7413 20.8693 21.7644C20.825 21.7843 20.7807 21.8043 20.7363 21.8242C20.7148 21.8341 20.6934 21.844 20.6712 21.8542C20.513 21.9249 20.3578 21.9683 20.1875 22C20.1882 22.0223 20.1888 22.0447 20.1895 22.0677C20.1921 22.1701 20.1937 22.2725 20.1953 22.375C20.1964 22.4101 20.1974 22.4453 20.1985 22.4815C20.2011 22.7017 20.1836 22.8453 20.0625 23.0312C19.8988 23.1615 19.7712 23.2046 19.5625 23.1875C19.3977 23.1309 19.283 23.0552 19.1875 22.9062C19.1538 22.8051 19.1527 22.7319 19.1532 22.6256C19.1534 22.5711 19.1534 22.5711 19.1535 22.5154C19.1539 22.4585 19.1539 22.4585 19.1543 22.4004C19.1544 22.362 19.1546 22.3237 19.1547 22.2842C19.1551 22.1895 19.1556 22.0947 19.1563 22C19.1382 21.9964 19.1202 21.9928 19.1017 21.9891C18.9533 21.958 18.8174 21.92 18.6777 21.8594C18.6469 21.8461 18.6161 21.8329 18.5844 21.8193C18.5136 21.7874 18.4443 21.7537 18.375 21.7187C18.3549 21.7393 18.3549 21.7393 18.3345 21.7603C18.2733 21.8228 18.2118 21.885 18.1504 21.9472C18.1294 21.9688 18.1083 21.9904 18.0866 22.0126C17.9182 22.1827 17.7863 22.2949 17.542 22.3144C17.3781 22.3101 17.2584 22.2594 17.1445 22.1426C17.0704 22.0257 17.0222 21.9412 17.0215 21.8008C17.021 21.778 17.0204 21.7552 17.0199 21.7317C17.0547 21.5003 17.2207 21.3617 17.3809 21.207C17.4043 21.184 17.4277 21.161 17.4519 21.1373C17.5094 21.0809 17.5671 21.0247 17.625 20.9687C17.6099 20.9371 17.5949 20.9054 17.5794 20.8728C17.5594 20.8306 17.5395 20.7883 17.5195 20.7461C17.5096 20.7253 17.4997 20.7045 17.4895 20.6831C17.4121 20.5186 17.3438 20.3724 17.3438 20.1875C17.3214 20.1881 17.299 20.1888 17.276 20.1895C17.1736 20.1921 17.0712 20.1937 16.9688 20.1953C16.9336 20.1963 16.8984 20.1974 16.8622 20.1985C16.6417 20.201 16.4993 20.1824 16.3125 20.0625C16.1674 19.9099 16.1451 19.7823 16.1475 19.5782C16.1649 19.4234 16.2507 19.3394 16.3633 19.2402C16.4817 19.1561 16.5457 19.1525 16.6907 19.1532C16.7285 19.1533 16.7664 19.1534 16.8054 19.1535C16.8451 19.1537 16.8849 19.154 16.9258 19.1543C16.9658 19.1544 17.0057 19.1546 17.0469 19.1547C17.1458 19.1551 17.2448 19.1556 17.3438 19.1562C17.3473 19.1241 17.3509 19.092 17.3546 19.0589C17.3741 18.9427 17.4043 18.8517 17.4512 18.7441C17.4647 18.7127 17.4782 18.6814 17.4921 18.649C17.5313 18.5625 17.5313 18.5625 17.5695 18.4964C17.6011 18.4198 17.5904 18.3899 17.5625 18.3125C17.5171 18.2557 17.5171 18.2557 17.4591 18.2032C17.4383 18.1832 17.4176 18.1631 17.3962 18.1425C17.3522 18.101 17.3083 18.0595 17.2644 18.018C17.1346 17.8928 17.0465 17.8016 17.0219 17.6173C17.021 17.4608 17.0342 17.3519 17.125 17.2187C17.2504 17.0923 17.3615 17.0271 17.541 17.0234C17.5756 17.0222 17.5756 17.0222 17.611 17.021C17.8641 17.0549 18.0107 17.2566 18.1726 17.4344C18.1924 17.4553 18.2122 17.4761 18.2326 17.4975C18.2502 17.5167 18.2678 17.536 18.286 17.5557C18.3434 17.6021 18.3434 17.6021 18.4236 17.5863C18.5098 17.5594 18.5885 17.5253 18.6699 17.4863C18.9765 17.3437 18.9765 17.3437 19.1563 17.3437C19.1553 17.3069 19.1553 17.3069 19.1543 17.2693C19.1517 17.1574 19.15 17.0455 19.1484 16.9336C19.1474 16.8949 19.1464 16.8562 19.1453 16.8164C19.1414 16.4607 19.1414 16.4607 19.2813 16.3125C19.4594 16.1556 19.5793 16.1365 19.8125 16.1562ZM18.6309 18.7754C18.3639 19.1003 18.2783 19.4608 18.3125 19.875C18.3815 20.2562 18.5757 20.5694 18.8906 20.7969C19.2444 21.0091 19.5967 21.0843 20 20.9961C20.3496 20.8994 20.6455 20.6868 20.8383 20.3772C21.0246 20.0225 21.0904 19.6869 20.9805 19.2969C20.8507 18.9121 20.6426 18.6328 20.2793 18.4414C19.6919 18.1742 19.0711 18.3057 18.6309 18.7754Z" fill="white"/>
<path d="M18.2053 9.80504C18.6875 10.2507 19.0257 10.8322 19.2129 11.459C19.219 11.4793 19.2251 11.4997 19.2313 11.5207C19.4983 12.4717 19.3464 13.4726 18.8803 14.3322C18.7705 14.5263 18.6417 14.7029 18.5 14.875C18.4763 14.9039 18.4525 14.9328 18.4281 14.9625C17.8022 15.6868 16.8859 16.1116 15.9375 16.1875C14.884 16.2428 13.9429 15.8984 13.1543 15.207C12.5006 14.6067 12.0458 13.7544 11.9936 12.8589C11.9905 12.7418 11.9897 12.625 11.9902 12.5078C11.9903 12.4872 11.9904 12.4665 11.9905 12.4452C11.9963 11.4467 12.3794 10.5703 13.0793 9.85746C14.5011 8.45804 16.7484 8.50391 18.2053 9.80504ZM13.668 10.7383C13.1261 11.3684 12.9836 12.0935 13.0312 12.9062C13.052 13.0694 13.0985 13.2211 13.1562 13.375C13.1676 13.4074 13.1789 13.4398 13.1905 13.4733C13.447 14.1505 13.9762 14.6411 14.6205 14.9449C15.2411 15.2207 15.9558 15.2325 16.5906 15C16.817 14.9113 17.0218 14.7989 17.2187 14.6562C17.2469 14.6361 17.2751 14.616 17.3042 14.5952C17.8511 14.1781 18.1616 13.5764 18.2994 12.9123C18.3959 12.1751 18.2088 11.4764 17.7756 10.874C17.3315 10.309 16.7205 9.97402 16.0156 9.8568C15.1208 9.74995 14.2873 10.091 13.668 10.7383Z" fill="white"/>
<path d="M15.541 16.707C15.6027 16.7057 15.6027 16.7057 15.6656 16.7043C15.8532 16.7277 15.9894 16.7911 16.1074 16.9395C16.1831 17.0817 16.1982 17.1833 16.1875 17.3438C16.1306 17.5271 16.0585 17.6109 15.9062 17.7188C15.7984 17.7547 15.6982 17.7587 15.5858 17.7634C15.5391 17.7657 15.4923 17.7679 15.4456 17.7702C15.4087 17.7719 15.4087 17.7719 15.3711 17.7737C13.6309 17.8575 11.5377 18.1418 10.265 19.469C9.99064 19.8 9.86325 20.1398 9.86889 20.5685C9.86902 20.6074 9.86902 20.6074 9.86916 20.6471C9.8695 20.729 9.87029 20.8108 9.87109 20.8926C9.8714 20.9485 9.87169 21.0044 9.87194 21.0604C9.87263 21.1965 9.8737 21.3326 9.87499 21.4688C9.90542 21.4688 9.93585 21.4689 9.9672 21.469C10.7074 21.4708 11.4476 21.4732 12.1877 21.4761C12.5457 21.4775 12.9036 21.4788 13.2616 21.4796C13.5735 21.4803 13.8855 21.4813 14.1975 21.4828C14.3627 21.4835 14.5279 21.4841 14.6931 21.4843C14.8486 21.4845 15.004 21.4851 15.1595 21.4861C15.2166 21.4863 15.2737 21.4865 15.3307 21.4864C15.4087 21.4864 15.4866 21.4869 15.5645 21.4875C15.5871 21.4874 15.6096 21.4872 15.6329 21.4871C15.799 21.4894 15.9262 21.528 16.0514 21.6395C16.1777 21.7988 16.1777 21.7988 16.1875 21.9062C16.1907 21.9398 16.1939 21.9733 16.1973 22.0078C16.1851 22.1532 16.1467 22.2561 16.0625 22.375C15.8815 22.5221 15.738 22.5359 15.5117 22.5356C15.4755 22.5358 15.4755 22.5358 15.4385 22.5359C15.3576 22.5362 15.2767 22.5362 15.1957 22.5363C15.1377 22.5364 15.0797 22.5366 15.0217 22.5368C14.864 22.5372 14.7063 22.5374 14.5487 22.5375C14.4501 22.5376 14.3515 22.5377 14.253 22.5379C13.9445 22.5383 13.6359 22.5386 13.3274 22.5387C12.9716 22.5389 12.6157 22.5394 12.2598 22.5403C11.9846 22.541 11.7094 22.5413 11.4342 22.5413C11.2699 22.5414 11.1056 22.5416 10.9413 22.5421C10.7866 22.5426 10.632 22.5427 10.4773 22.5424C10.4207 22.5424 10.3641 22.5425 10.3075 22.5428C9.86603 22.5451 9.47213 22.5102 9.13061 22.198C8.87793 21.9199 8.8027 21.5952 8.80309 21.2283C8.80296 21.1998 8.80283 21.1714 8.80269 21.1421C8.80251 21.0822 8.80249 21.0222 8.80263 20.9623C8.80273 20.872 8.80199 20.7817 8.8012 20.6914C8.79825 19.8376 9.07436 19.1824 9.66991 18.5664C11.1241 17.1111 13.589 16.7462 15.541 16.707Z" fill="white"/>
</g>
<defs>
<linearGradient id="paint0_linear_64_15651" x1="16" y1="32" x2="16" y2="0" gradientUnits="userSpaceOnUse">
<stop stop-color="#0538FF"/>
<stop offset="1" stop-color="#5799F7"/>
</linearGradient>
<clipPath id="clip0_64_15651">
<rect width="16" height="16" fill="white" transform="translate(8 8)"/>
</clipPath>
</defs>
</svg>
