<svg width="32" height="32" viewBox="0 0 32 32" fill="none" xmlns="http://www.w3.org/2000/svg">
<rect width="32" height="32" rx="16" fill="url(#paint0_linear_64_15762)"/>
<path d="M13.125 9.53121C13.1837 9.57948 13.2408 9.62978 13.2963 9.68172C13.3122 9.6965 13.328 9.71127 13.3443 9.7265C13.558 9.92743 13.7656 10.1348 13.9733 10.3419C13.9951 10.3636 14.0168 10.3853 14.0393 10.4077C14.1543 10.5222 14.2693 10.6369 14.3841 10.7516C14.5019 10.8692 14.62 10.9866 14.7382 11.1038C14.8299 11.195 14.9214 11.2863 15.0128 11.3777C15.0563 11.4211 15.0998 11.4643 15.1434 11.5075C15.8362 12.1942 15.8362 12.1942 15.8555 12.6875C15.8438 12.9971 15.73 13.2757 15.5057 13.4923C15.1999 13.7388 14.8817 13.7869 14.5 13.75C14.0953 13.6676 13.8048 13.2781 13.5273 12.998C13.4971 12.9677 13.467 12.9373 13.4368 12.907C13.364 12.8339 13.2913 12.7607 13.2187 12.6875C13.2187 12.7164 13.2187 12.7164 13.2186 12.746C13.2168 13.8916 13.2145 15.0372 13.2116 16.1828C13.2112 16.3204 13.2109 16.458 13.2105 16.5956C13.2105 16.623 13.2104 16.6504 13.2103 16.6786C13.2092 17.122 13.2084 17.5653 13.2078 18.0087C13.2071 18.4637 13.2061 18.9188 13.2047 19.3738C13.2039 19.6545 13.2033 19.9352 13.2031 20.2159C13.203 20.4085 13.2025 20.6011 13.2017 20.7937C13.2013 20.9047 13.201 21.0158 13.2011 21.1268C13.2012 21.2474 13.2006 21.368 13.2 21.4886C13.2002 21.5408 13.2002 21.5408 13.2004 21.5942C13.1971 21.9612 13.1113 22.225 12.8553 22.4902C12.6403 22.6897 12.3698 22.7953 12.076 22.7898C11.7455 22.7526 11.4737 22.6248 11.2569 22.3729C11.0479 22.0872 11.0173 21.7692 11.0188 21.4247C11.0186 21.3872 11.0184 21.3496 11.0182 21.3109C11.0177 21.2076 11.0176 21.1044 11.0177 21.0011C11.0177 20.8894 11.0172 20.7777 11.0168 20.6659C11.0161 20.4727 11.0157 20.2795 11.0155 20.0862C11.0153 19.8068 11.0146 19.5274 11.0138 19.248C11.0124 18.7947 11.0115 18.3413 11.0108 17.8879C11.0102 17.4477 11.0093 17.0074 11.0082 16.5672C11.0081 16.54 11.0081 16.5129 11.008 16.4849C11.0076 16.3486 11.0073 16.2123 11.0069 16.076C11.004 14.9465 11.0018 13.817 11 12.6875C10.9751 12.7132 10.9503 12.7388 10.9246 12.7653C10.8313 12.8615 10.7374 12.9572 10.6433 13.0527C10.6029 13.094 10.5626 13.1353 10.5224 13.1768C9.96978 13.7477 9.96978 13.7477 9.54857 13.7591C9.19698 13.7624 8.91673 13.6884 8.65624 13.4375C8.46652 13.2172 8.34927 12.9265 8.36437 12.6318C8.45035 12.0705 8.84251 11.7414 9.22606 11.3582C9.27246 11.3117 9.31885 11.2652 9.36523 11.2187C9.4621 11.1216 9.55908 11.0246 9.65615 10.9277C9.77969 10.8043 9.90286 10.6806 10.0259 10.5568C10.1216 10.4608 10.2174 10.3649 10.3133 10.2691C10.3587 10.2236 10.4041 10.1781 10.4494 10.1324C11.2068 9.37039 12.1026 8.8698 13.125 9.53121Z" fill="white"/>
<path d="M16.8778 20.2769C16.9031 20.2768 16.9284 20.2767 16.9545 20.2766C17.0392 20.2763 17.1239 20.2763 17.2086 20.2762C17.2694 20.2761 17.3302 20.2759 17.391 20.2758C17.5561 20.2754 17.7212 20.2752 17.8863 20.275C17.9895 20.2749 18.0927 20.2748 18.1959 20.2747C18.519 20.2742 18.842 20.2739 19.1651 20.2738C19.5377 20.2737 19.9104 20.2731 20.283 20.2722C20.5712 20.2715 20.8594 20.2712 21.1476 20.2712C21.3197 20.2712 21.4917 20.271 21.6638 20.2704C21.8257 20.2699 21.9876 20.2698 22.1496 20.2701C22.2089 20.2701 22.2681 20.27 22.3274 20.2697C22.7513 20.2676 23.0807 20.2696 23.402 20.5788C23.5608 20.7631 23.6381 20.9964 23.6335 21.2394C23.6022 21.5076 23.4814 21.728 23.2812 21.9063C23.0708 22.0626 22.8401 22.1032 22.5832 22.1019C22.5579 22.102 22.5325 22.1022 22.5063 22.1023C22.4217 22.1026 22.3371 22.1025 22.2525 22.1024C22.1917 22.1025 22.1308 22.1027 22.07 22.1028C21.905 22.1033 21.74 22.1033 21.5751 22.1032C21.4372 22.1032 21.2994 22.1033 21.1615 22.1035C20.8363 22.1038 20.511 22.1038 20.1858 22.1036C19.8505 22.1035 19.5152 22.1038 19.18 22.1045C18.8918 22.1051 18.6037 22.1052 18.3156 22.1051C18.1436 22.1051 17.9717 22.1052 17.7997 22.1056C17.638 22.106 17.4762 22.1059 17.3145 22.1055C17.2552 22.1055 17.196 22.1055 17.1368 22.1058C17.0556 22.1061 16.9745 22.1059 16.8934 22.1055C16.8586 22.1058 16.8586 22.1058 16.823 22.1062C16.5532 22.1034 16.3014 22.0177 16.1064 21.8261C15.9111 21.612 15.837 21.3822 15.8437 21.0938C15.8958 20.7945 16.0385 20.5846 16.2812 20.4063C16.4792 20.2915 16.6524 20.2766 16.8778 20.2769Z" fill="white"/>
<path d="M17.2264 16.7379C17.2872 16.7378 17.348 16.7376 17.4088 16.7374C17.5732 16.737 17.7377 16.7371 17.9021 16.7374C18.0746 16.7377 18.2471 16.7374 18.4196 16.7373C18.7092 16.7371 18.9987 16.7374 19.2883 16.7378C19.6227 16.7383 19.957 16.7381 20.2913 16.7376C20.5789 16.7372 20.8664 16.7371 21.154 16.7374C21.3255 16.7375 21.497 16.7376 21.6686 16.7372C21.8299 16.737 21.9911 16.7372 22.1524 16.7377C22.2115 16.7378 22.2705 16.7378 22.3295 16.7376C22.7544 16.7362 23.0807 16.7396 23.402 17.0497C23.557 17.2246 23.6147 17.4007 23.6328 17.6309C23.614 17.9177 23.5165 18.1541 23.3027 18.3496C23.08 18.5318 22.8435 18.5672 22.5621 18.5669C22.537 18.567 22.512 18.5671 22.4862 18.5672C22.4023 18.5675 22.3184 18.5675 22.2346 18.5676C22.1744 18.5677 22.1143 18.5679 22.0541 18.568C21.8907 18.5684 21.7272 18.5686 21.5638 18.5688C21.4617 18.5689 21.3595 18.569 21.2573 18.5691C20.9375 18.5696 20.6178 18.5699 20.298 18.57C19.9291 18.5701 19.5603 18.5707 19.1914 18.5716C18.9061 18.5723 18.6208 18.5726 18.3355 18.5726C18.1652 18.5726 17.9949 18.5728 17.8246 18.5734C17.6643 18.5739 17.5041 18.574 17.3438 18.5737C17.2851 18.5737 17.2264 18.5738 17.1677 18.5741C16.3939 18.578 16.3939 18.578 16.1066 18.2948C15.9109 18.081 15.837 17.8508 15.8437 17.5625C15.8931 17.2787 16.026 17.0895 16.2317 16.8942C16.5332 16.7061 16.8848 16.7367 17.2264 16.7379Z" fill="white"/>
<path d="M18.559 13.2144C18.5966 13.2142 18.6342 13.2141 18.673 13.2139C18.7142 13.2138 18.7554 13.2138 18.7978 13.2138C18.8417 13.2136 18.8856 13.2135 18.9295 13.2133C19.0487 13.2129 19.1679 13.2127 19.2871 13.2125C19.3616 13.2125 19.4362 13.2123 19.5107 13.2122C19.7442 13.2118 19.9776 13.2115 20.2111 13.2113C20.4801 13.2112 20.7492 13.2106 21.0183 13.2097C21.2265 13.2091 21.4347 13.2087 21.643 13.2087C21.7672 13.2087 21.8915 13.2085 22.0157 13.2079C22.1327 13.2074 22.2497 13.2073 22.3667 13.2076C22.4297 13.2077 22.4928 13.2072 22.5558 13.2068C22.9163 13.2084 23.1379 13.2674 23.4009 13.5185C23.5575 13.6923 23.6148 13.8694 23.6328 14.0997C23.614 14.3865 23.5165 14.6228 23.3027 14.8184C23.091 14.9912 22.8627 15.035 22.5955 15.0355C22.559 15.0356 22.5226 15.0357 22.485 15.0359C22.4455 15.0359 22.4059 15.0359 22.3652 15.0358C22.3228 15.0359 22.2804 15.036 22.2379 15.0362C22.1231 15.0364 22.0082 15.0365 21.8933 15.0365C21.8215 15.0365 21.7496 15.0366 21.6778 15.0367C21.4268 15.037 21.1759 15.0371 20.925 15.0371C20.6915 15.0371 20.458 15.0374 20.2245 15.0379C20.0237 15.0383 19.8228 15.0385 19.622 15.0385C19.5022 15.0384 19.3824 15.0385 19.2626 15.0389C19.1499 15.0392 19.0372 15.0392 18.9245 15.0389C18.8637 15.0389 18.803 15.0392 18.7422 15.0394C18.4072 15.0382 18.148 14.9974 17.8867 14.7735C17.6822 14.5367 17.6129 14.3486 17.6163 14.0365C17.6358 13.8143 17.7284 13.6177 17.8799 13.4543C18.0789 13.2886 18.3042 13.2151 18.559 13.2144Z" fill="white"/>
<path d="M18.5285 9.68293C18.5663 9.68271 18.6041 9.68248 18.6431 9.68225C18.6849 9.68217 18.7266 9.68208 18.7684 9.682C18.8126 9.6818 18.8567 9.6816 18.9008 9.68138C19.0455 9.68072 19.1903 9.6804 19.3351 9.68008C19.385 9.67996 19.435 9.67983 19.4849 9.6797C19.7197 9.6791 19.9545 9.67866 20.1893 9.6784C20.4597 9.67809 20.7301 9.67727 21.0006 9.67601C21.2099 9.67506 21.4193 9.6746 21.6287 9.6745C21.7536 9.67443 21.8784 9.67415 22.0033 9.67336C22.121 9.67263 22.2386 9.6725 22.3563 9.67282C22.4195 9.67284 22.4828 9.67225 22.5461 9.67163C22.8284 9.67323 23.0627 9.7189 23.3066 9.86526C23.5087 10.0788 23.6077 10.2816 23.6348 10.5742C23.6102 10.8588 23.5155 11.0924 23.3027 11.2871C23.0147 11.5217 22.692 11.5047 22.34 11.5046C22.299 11.5047 22.258 11.5048 22.2158 11.5049C22.1038 11.5052 21.9919 11.5052 21.8799 11.5053C21.8098 11.5053 21.7397 11.5053 21.6696 11.5054C21.4247 11.5057 21.1798 11.5058 20.9349 11.5058C20.7072 11.5058 20.4796 11.5061 20.2519 11.5066C20.0559 11.507 19.8599 11.5072 19.6639 11.5072C19.5471 11.5072 19.4303 11.5073 19.3134 11.5076C19.183 11.508 19.0526 11.5078 18.9222 11.5076C18.8839 11.5078 18.8456 11.508 18.8062 11.5082C18.4582 11.5069 18.153 11.4758 17.875 11.25C17.6786 11.0232 17.6093 10.8006 17.6152 10.5031C17.6401 10.2569 17.7498 10.0372 17.9375 9.87503C18.1336 9.74374 18.2923 9.68389 18.5285 9.68293Z" fill="white"/>
<defs>
<linearGradient id="paint0_linear_64_15762" x1="2.336" y1="28.832" x2="30.976" y2="1.6" gradientUnits="userSpaceOnUse">
<stop stop-color="#0C2365"/>
<stop offset="0.692708" stop-color="#496DD3"/>
<stop offset="1" stop-color="#94B0FE"/>
</linearGradient>
</defs>
</svg>
