<svg width="32" height="32" viewBox="0 0 32 32" fill="none" xmlns="http://www.w3.org/2000/svg">
<rect width="32" height="32" rx="16" fill="url(#paint0_linear_64_15724)"/>
<path d="M10.6667 17.4001C10.6667 16.6112 10.9307 15.9335 11.4587 15.3668C11.9867 14.8001 12.6449 14.4835 13.4333 14.4168L12.8667 14.9835C12.7445 15.1057 12.6833 15.2612 12.6833 15.4501C12.6833 15.639 12.7445 15.7946 12.8667 15.9168C12.9889 16.039 13.1445 16.1001 13.3333 16.1001C13.5222 16.1001 13.6778 16.039 13.8 15.9168L15.5333 14.1835C15.6667 14.0501 15.7333 13.8946 15.7333 13.7168C15.7333 13.539 15.6667 13.3835 15.5333 13.2501L13.8 11.5168C13.6778 11.3946 13.5222 11.3335 13.3333 11.3335C13.1445 11.3335 12.9889 11.3946 12.8667 11.5168C12.7445 11.639 12.6833 11.7946 12.6833 11.9835C12.6833 12.1724 12.7445 12.3279 12.8667 12.4501L13.4667 13.0501C12.3 13.1168 11.3196 13.5668 10.5253 14.4001C9.73112 15.2335 9.33379 16.2279 9.33334 17.3835C9.33334 18.5946 9.7529 19.6195 10.592 20.4581C11.4311 21.2968 12.456 21.7164 13.6667 21.7168L15.3333 21.7168C15.5222 21.7168 15.6807 21.6528 15.8087 21.5248C15.9367 21.3968 16.0005 21.2386 16 21.0501C15.9996 20.8617 15.9356 20.7032 15.808 20.5748C15.6805 20.4464 15.5222 20.3826 15.3333 20.3835L13.6667 20.3835C12.8333 20.3835 12.1251 20.0946 11.542 19.5168C10.9589 18.939 10.6671 18.2335 10.6667 17.4001ZM18 14.3835L22 14.3835C22.1889 14.3835 22.3473 14.3195 22.4753 14.1915C22.6033 14.0635 22.6671 13.9052 22.6667 13.7168C22.6662 13.5284 22.6022 13.3699 22.4747 13.2415C22.3471 13.113 22.1889 13.0492 22 13.0501L18 13.0501C17.8111 13.0501 17.6529 13.1141 17.5253 13.2421C17.3978 13.3701 17.3338 13.5284 17.3333 13.7168C17.3329 13.9052 17.3969 14.0635 17.5253 14.1915C17.6538 14.3195 17.812 14.3835 18 14.3835ZM18 18.0501L22 18.0501C22.1889 18.0501 22.3473 17.9861 22.4753 17.8581C22.6033 17.7301 22.6671 17.5719 22.6667 17.3835C22.6662 17.195 22.6022 17.0366 22.4747 16.9081C22.3471 16.7797 22.1889 16.7159 22 16.7168L18 16.7168C17.8111 16.7168 17.6529 16.7808 17.5253 16.9088C17.3978 17.0368 17.3338 17.195 17.3333 17.3835C17.3329 17.5719 17.3969 17.7301 17.5253 17.8581C17.6538 17.9861 17.812 18.0501 18 18.0501ZM18 21.7168L22 21.7168C22.1889 21.7168 22.3473 21.6528 22.4753 21.5248C22.6033 21.3968 22.6671 21.2386 22.6667 21.0501C22.6662 20.8617 22.6022 20.7032 22.4747 20.5748C22.3471 20.4464 22.1889 20.3826 22 20.3835L18 20.3835C17.8111 20.3835 17.6529 20.4475 17.5253 20.5755C17.3978 20.7035 17.3338 20.8617 17.3333 21.0501C17.3329 21.2386 17.3969 21.3968 17.5253 21.5248C17.6538 21.6528 17.812 21.7168 18 21.7168Z" fill="white"/>
<defs>
<linearGradient id="paint0_linear_64_15724" x1="16" y1="32" x2="16" y2="0" gradientUnits="userSpaceOnUse">
<stop stop-color="#0538FF"/>
<stop offset="1" stop-color="#5799F7"/>
</linearGradient>
</defs>
</svg>
