<svg width="32" height="32" viewBox="0 0 32 32" fill="none" xmlns="http://www.w3.org/2000/svg">
<rect width="32" height="32" rx="16" fill="url(#paint0_linear_64_15778)"/>
<g clip-path="url(#clip0_64_15778)">
<path d="M8.53358 11.7332V11.1998C8.39213 11.1998 8.25647 11.256 8.15645 11.356C8.05643 11.456 8.00024 11.5917 8.00024 11.7332H8.53358ZM14.9336 11.7332H15.4669C15.4669 11.5917 15.4107 11.456 15.3107 11.356C15.2107 11.256 15.075 11.1998 14.9336 11.1998V11.7332ZM14.9336 23.4665V23.9998C15.075 23.9998 15.2107 23.9436 15.3107 23.8436C15.4107 23.7436 15.4669 23.6079 15.4669 23.4665H14.9336ZM8.53358 23.4665H8.00024C8.00024 23.6079 8.05643 23.7436 8.15645 23.8436C8.25647 23.9436 8.39213 23.9998 8.53358 23.9998V23.4665ZM17.0669 11.7332V11.1998C16.9255 11.1998 16.7898 11.256 16.6898 11.356C16.5898 11.456 16.5336 11.5917 16.5336 11.7332H17.0669ZM23.4669 11.7332H24.0002C24.0002 11.5917 23.9441 11.456 23.844 11.356C23.744 11.256 23.6084 11.1998 23.4669 11.1998V11.7332ZM23.4669 18.1332V18.6665C23.6084 18.6665 23.744 18.6103 23.844 18.5103C23.9441 18.4103 24.0002 18.2746 24.0002 18.1332H23.4669ZM17.0669 18.1332H16.5336C16.5336 18.2746 16.5898 18.4103 16.6898 18.5103C16.7898 18.6103 16.9255 18.6665 17.0669 18.6665V18.1332ZM8.00024 9.06648H15.4669V7.99982H8.00024V9.06648ZM16.5336 9.06648H24.0002V7.99982H16.5336V9.06648ZM8.53358 12.2665H14.9336V11.1998H8.53358V12.2665ZM14.4002 11.7332V23.4665H15.4669V11.7332H14.4002ZM14.9336 22.9332H8.53358V23.9998H14.9336V22.9332ZM9.06691 23.4665V11.7332H8.00024V23.4665H9.06691ZM17.0669 12.2665H23.4669V11.1998H17.0669V12.2665ZM22.9336 11.7332V18.1332H24.0002V11.7332H22.9336ZM23.4669 17.5998H17.0669V18.6665H23.4669V17.5998ZM17.6002 18.1332V11.7332H16.5336V18.1332H17.6002Z" fill="white"/>
</g>
<defs>
<linearGradient id="paint0_linear_64_15778" x1="16" y1="32" x2="16" y2="0" gradientUnits="userSpaceOnUse">
<stop stop-color="#0538FF"/>
<stop offset="1" stop-color="#5799F7"/>
</linearGradient>
<clipPath id="clip0_64_15778">
<rect width="16" height="16" fill="white" transform="translate(8.00012 7.99991)"/>
</clipPath>
</defs>
</svg>
