<svg width="32" height="32" viewBox="0 0 32 32" fill="none" xmlns="http://www.w3.org/2000/svg">
<rect width="32" height="32" rx="16" fill="url(#paint0_linear_64_15694)"/>
<g clip-path="url(#clip0_64_15694)">
<path d="M8 21.3997H16.2331C18.7124 21.3876 20.8543 19.575 21.3414 17.1008C21.8402 14.5661 20.4788 11.9831 18.1139 11.0255C16.1891 10.2914 14.0355 10.7445 12.5948 12.1855C11.5737 13.2067 11.204 14.4332 11.0955 15.4241" stroke="white" stroke-width="1.51111" stroke-miterlimit="10" stroke-linecap="round"/>
<path d="M11.3381 17.7223C11.2813 17.8828 11.0476 17.8863 10.9862 17.7275C10.5494 16.5992 9.93843 15.3411 9.2815 14.3801C9.17899 14.2302 9.33599 14.0203 9.50574 14.085L11.0565 14.6755C11.0991 14.6917 11.1462 14.691 11.1883 14.6734L12.7179 14.0348C12.886 13.9646 13.0498 14.1708 12.9511 14.3239C12.3196 15.3038 11.7424 16.5792 11.3381 17.7223Z" fill="white"/>
<path d="M13.4045 21.3996H22.2303" stroke="white" stroke-width="1.51111" stroke-miterlimit="10"/>
<path d="M23.783 21.3138C23.8586 21.3448 23.8586 21.4546 23.783 21.4856C23.1049 21.7641 22.3347 22.1723 21.7584 22.6164C21.6855 22.6725 21.5758 22.5971 21.6062 22.5103L21.9857 21.4292C21.9924 21.4101 21.9923 21.3893 21.9856 21.3702L21.6065 20.2922C21.576 20.2055 21.6858 20.1299 21.7587 20.186C22.3337 20.6279 23.105 21.0356 23.783 21.3138Z" fill="white"/>
</g>
<defs>
<linearGradient id="paint0_linear_64_15694" x1="-8.70132e-08" y1="28.48" x2="26.176" y2="5.888" gradientUnits="userSpaceOnUse">
<stop stop-color="#035C42"/>
<stop offset="1" stop-color="#06B884"/>
</linearGradient>
<clipPath id="clip0_64_15694">
<rect width="16" height="13.3333" fill="white" transform="translate(8 9.33333)"/>
</clipPath>
</defs>
</svg>
