<svg width="32" height="32" viewBox="0 0 32 32" fill="none" xmlns="http://www.w3.org/2000/svg">
<rect width="32" height="32" rx="16" fill="url(#paint0_linear_64_15679)"/>
<g clip-path="url(#clip0_64_15679)">
<path d="M13.6875 8.09375C15.2137 8.09375 16.74 8.09375 18.3125 8.09375C18.3125 8.59906 18.3125 9.10438 18.3125 9.625C18.4053 9.65594 18.4981 9.68687 18.5938 9.71875C19.1793 9.94078 19.7728 10.2704 20.2343 10.6971C20.3069 10.7583 20.3069 10.7583 20.3853 10.7433C20.478 10.716 20.5497 10.6782 20.6327 10.6288C20.6638 10.6104 20.695 10.592 20.727 10.5731C20.7761 10.5437 20.7761 10.5437 20.8262 10.5137C20.8936 10.4738 20.961 10.434 21.0284 10.3942C21.061 10.3748 21.0936 10.3555 21.1272 10.3355C21.2446 10.2659 21.3623 10.1971 21.4805 10.1289C21.5136 10.1097 21.5467 10.0904 21.5808 10.0706C21.6562 10.0312 21.6562 10.0312 21.7188 10.0312C21.7378 10.0646 21.7378 10.0646 21.7572 10.0987C22.1552 10.7963 22.555 11.4928 22.9603 12.1862C23.1146 12.4503 23.2674 12.7153 23.4197 12.9807C23.5162 13.1484 23.6137 13.3153 23.7136 13.481C23.7326 13.5125 23.7515 13.544 23.771 13.5765C23.8069 13.636 23.843 13.6954 23.8794 13.7547C23.8953 13.7811 23.9112 13.8075 23.9276 13.8347C23.9416 13.8577 23.9557 13.8807 23.9701 13.9043C24 13.9688 24 13.9688 24 14.0938C23.9755 14.1078 23.9509 14.1218 23.9256 14.1362C23.8327 14.1892 23.7397 14.2423 23.6468 14.2954C23.6069 14.3181 23.567 14.3409 23.5271 14.3636C23.4691 14.3967 23.4111 14.4299 23.353 14.463C23.3339 14.4739 23.3148 14.4848 23.2952 14.496C23.2013 14.5497 23.1077 14.6038 23.0147 14.659C22.981 14.679 22.9473 14.699 22.9126 14.7196C22.8827 14.7375 22.8528 14.7555 22.8219 14.7739C22.75 14.8125 22.75 14.8125 22.6875 14.8125C22.6916 14.8352 22.6958 14.8579 22.7001 14.8813C22.7056 14.9128 22.7111 14.9442 22.7168 14.9766C22.725 15.0222 22.725 15.0222 22.7333 15.0688C22.7763 15.3741 22.7873 15.6783 22.7871 15.9863C22.7871 16.0243 22.7871 16.0623 22.7871 16.1014C22.7848 16.4656 22.765 16.8306 22.6875 17.1875C22.7097 17.1959 22.7319 17.2042 22.7548 17.2129C22.8464 17.2511 22.9303 17.2955 23.0167 17.3441C23.0498 17.3627 23.0828 17.3812 23.1169 17.4003C23.1511 17.4197 23.1854 17.439 23.2207 17.459C23.2541 17.4777 23.2875 17.4965 23.322 17.5158C23.5493 17.6437 23.775 17.7742 24 17.9062C23.9819 18.0218 23.9503 18.1074 23.8922 18.2086C23.8762 18.2367 23.8603 18.2647 23.8438 18.2936C23.8264 18.3237 23.809 18.3538 23.791 18.3848C23.7728 18.4165 23.7547 18.4483 23.7359 18.481C23.5904 18.7346 23.4429 18.9872 23.2951 19.2395C23.1534 19.4816 23.0139 19.725 22.875 19.9688C22.7022 20.2719 22.5278 20.5741 22.3515 20.8753C22.2087 21.1195 22.067 21.3643 21.9258 21.6094C21.9101 21.6367 21.9101 21.6367 21.894 21.6645C21.8356 21.7659 21.7771 21.8673 21.7188 21.9688C21.5835 21.9278 21.4682 21.8753 21.3462 21.8042C21.3115 21.7841 21.2769 21.764 21.2412 21.7433C21.2051 21.7221 21.1689 21.7009 21.1328 21.6797C21.0975 21.6592 21.0622 21.6387 21.0259 21.6176C20.7416 21.452 20.7416 21.452 20.6276 21.3795C20.6002 21.362 20.5727 21.3446 20.5444 21.3267C20.5087 21.3033 20.5087 21.3033 20.4723 21.2794C20.4081 21.2442 20.4081 21.2442 20.3401 21.2572C20.2498 21.2941 20.1844 21.3541 20.1094 21.416C19.5894 21.8283 18.951 22.1926 18.3125 22.375C18.3125 22.8803 18.3125 23.3856 18.3125 23.9062C16.7863 23.9062 15.26 23.9062 13.6875 23.9062C13.6875 23.4009 13.6875 22.8956 13.6875 22.375C13.5483 22.3286 13.5483 22.3286 13.4062 22.2812C12.8437 22.0489 12.2868 21.7559 11.8281 21.352C11.7323 21.2706 11.7323 21.2706 11.6119 21.2479C11.5005 21.2939 11.3993 21.3532 11.2969 21.416C11.25 21.4442 11.2031 21.4723 11.1561 21.5004C11.1311 21.5154 11.1062 21.5304 11.0804 21.5458C10.9353 21.6323 10.789 21.7166 10.6426 21.8008C10.6139 21.8174 10.5852 21.8341 10.5557 21.8512C10.529 21.8666 10.5022 21.8819 10.4747 21.8977C10.4391 21.9183 10.4391 21.9183 10.4027 21.9393C10.3438 21.9688 10.3438 21.9688 10.2812 21.9688C10.2686 21.9465 10.2559 21.9242 10.2428 21.9013C9.95343 21.3941 9.66288 20.8877 9.37073 20.3821C9.31186 20.2801 9.25309 20.1782 9.19434 20.0762C9.02226 19.7775 8.84998 19.479 8.67587 19.1815C8.50793 18.8945 8.34084 18.607 8.17578 18.3184C8.15809 18.2878 8.1404 18.2572 8.12218 18.2256C8.10611 18.1974 8.09004 18.1691 8.07349 18.14C8.05213 18.1027 8.05213 18.1027 8.03035 18.0647C8 18 8 18 8 17.9062C8.01899 17.8956 8.03798 17.8849 8.05755 17.8739C8.14712 17.8236 8.23665 17.7731 8.32617 17.7227C8.37483 17.6952 8.37483 17.6952 8.42446 17.6673C8.6488 17.5405 8.87158 17.4114 9.09203 17.278C9.24333 17.1875 9.24333 17.1875 9.3125 17.1875C9.30835 17.1648 9.3042 17.1421 9.29993 17.1187C9.29441 17.0872 9.28889 17.0558 9.2832 17.0234C9.27776 16.993 9.27233 16.9625 9.26672 16.9312C9.22287 16.62 9.2127 16.31 9.21289 15.9961C9.21289 15.9566 9.2129 15.917 9.2129 15.8763C9.21507 15.5174 9.23744 15.1641 9.3125 14.8125C9.29196 14.805 9.27141 14.7976 9.25024 14.7899C9.12929 14.7385 9.01682 14.6757 8.90234 14.6113C8.87816 14.5978 8.85397 14.5843 8.82906 14.5704C8.55099 14.4145 8.27533 14.2544 8 14.0938C8.01815 13.9782 8.04971 13.8926 8.10779 13.7914C8.12375 13.7633 8.13972 13.7353 8.15617 13.7064C8.1736 13.6763 8.19103 13.6462 8.20898 13.6152C8.22716 13.5835 8.24533 13.5517 8.26406 13.519C8.40958 13.2654 8.55707 13.0128 8.70486 12.7605C8.84657 12.5184 8.98611 12.275 9.125 12.0312C9.29778 11.7281 9.47221 11.4259 9.64845 11.1247C9.79127 10.8805 9.93295 10.6357 10.0742 10.3906C10.0847 10.3724 10.0952 10.3543 10.106 10.3355C10.1644 10.2341 10.2229 10.1327 10.2812 10.0312C10.4165 10.0722 10.5318 10.1247 10.6538 10.1958C10.6885 10.2159 10.7231 10.236 10.7588 10.2567C10.7949 10.2779 10.8311 10.2991 10.8672 10.3203C10.9025 10.3408 10.9378 10.3613 10.9741 10.3824C11.2584 10.548 11.2584 10.548 11.3724 10.6205C11.3998 10.638 11.4273 10.6554 11.4556 10.6733C11.4794 10.6889 11.5032 10.7045 11.5277 10.7206C11.5919 10.7558 11.5919 10.7558 11.6599 10.7428C11.7502 10.7059 11.8156 10.6459 11.8906 10.584C12.4106 10.1717 13.049 9.80744 13.6875 9.625C13.6875 9.11969 13.6875 8.61437 13.6875 8.09375ZM14.6562 9.0625C14.6562 9.48531 14.6562 9.90813 14.6562 10.3438C14.5325 10.3747 14.4088 10.4056 14.2812 10.4375C14.1837 10.4691 14.0881 10.5013 13.9922 10.5371C13.9669 10.5465 13.9417 10.5559 13.9157 10.5656C13.6637 10.6619 13.4239 10.7765 13.1875 10.9062C13.1677 10.9171 13.1479 10.928 13.1275 10.9392C12.704 11.1751 12.3381 11.4688 11.9882 11.8027C11.9119 11.87 11.8375 11.918 11.75 11.9688C11.7265 11.9552 11.7031 11.9417 11.6789 11.9277C11.5909 11.8769 11.5029 11.8261 11.4149 11.7753C11.377 11.7535 11.3391 11.7316 11.3011 11.7097C11.2828 11.6991 11.2644 11.6885 11.2455 11.6776C11.2184 11.6619 11.2184 11.6619 11.1907 11.6459C11.1376 11.6153 11.0844 11.5849 11.0312 11.5545C10.9758 11.5223 10.9208 11.4893 10.8668 11.4548C10.7668 11.3894 10.7668 11.3894 10.6511 11.3835C10.5625 11.4669 10.5125 11.5691 10.457 11.6758C10.4293 11.7274 10.4014 11.779 10.3735 11.8306C10.3587 11.8581 10.3438 11.8857 10.3284 11.9141C10.2467 12.063 10.1603 12.2091 10.0742 12.3555C9.91565 12.6261 9.75815 12.8974 9.60217 13.1695C9.57974 13.2087 9.55728 13.2478 9.53479 13.2868C9.50337 13.3415 9.47208 13.3961 9.4408 13.4508C9.4228 13.4822 9.4048 13.5136 9.38625 13.5459C9.34068 13.6253 9.34068 13.6253 9.3125 13.7188C9.33819 13.7334 9.36388 13.7481 9.39034 13.7632C9.48616 13.8178 9.58196 13.8725 9.67776 13.9272C9.71913 13.9508 9.7605 13.9745 9.80187 13.9981C9.86154 14.0321 9.92119 14.0662 9.98083 14.1002C10.0083 14.1159 10.0083 14.1159 10.0364 14.1319C10.1166 14.1778 10.1962 14.2242 10.2746 14.273C10.3395 14.3177 10.3395 14.3177 10.4062 14.3125C10.4007 14.34 10.3952 14.3676 10.3895 14.396C10.3688 14.4998 10.3483 14.6036 10.3279 14.7075C10.319 14.7522 10.3102 14.7968 10.3012 14.8414C10.1062 15.8151 10.1921 16.7266 10.4062 17.6875C10.383 17.6964 10.3598 17.7054 10.3359 17.7146C10.2621 17.745 10.1945 17.7779 10.1249 17.8168C10.1019 17.8296 10.0789 17.8424 10.0552 17.8555C10.0312 17.8691 10.0072 17.8826 9.98242 17.8965C9.95767 17.9103 9.93292 17.9241 9.90742 17.9384C9.70773 18.0503 9.50949 18.1646 9.3125 18.2812C9.35701 18.4003 9.41185 18.5076 9.4751 18.6178C9.49521 18.6529 9.51533 18.6881 9.53606 18.7243C9.55789 18.7621 9.57972 18.8 9.60156 18.8379C9.6241 18.8771 9.64662 18.9164 9.66914 18.9556C9.84877 19.2683 10.0298 19.5801 10.2123 19.8911C10.2775 20.0024 10.3421 20.114 10.4059 20.2261C10.4274 20.2636 10.4274 20.2636 10.4494 20.3018C10.4758 20.3478 10.502 20.394 10.5279 20.4403C10.5956 20.5639 10.5956 20.5639 10.7188 20.625C10.8114 20.5837 10.8114 20.5837 10.9127 20.522C10.941 20.5056 10.941 20.5056 10.9698 20.4889C11.0302 20.4538 11.0903 20.4183 11.1504 20.3828C11.2102 20.3478 11.2701 20.3129 11.33 20.2781C11.3846 20.2462 11.4391 20.2141 11.4936 20.182C11.5881 20.1282 11.6836 20.0788 11.7812 20.0312C11.7991 20.0476 11.8169 20.0639 11.8353 20.0807C11.921 20.1585 12.0072 20.2356 12.0938 20.3125C12.1093 20.3264 12.1248 20.3402 12.1409 20.3545C12.4011 20.5852 12.6736 20.7849 12.9688 20.9688C12.9865 20.9799 13.0042 20.9911 13.0225 21.0025C13.4526 21.2697 14.1384 21.6562 14.6562 21.6562C14.6562 22.0791 14.6562 22.5019 14.6562 22.9375C15.5431 22.9375 16.43 22.9375 17.3438 22.9375C17.3438 22.5147 17.3438 22.0919 17.3438 21.6562C17.4366 21.6356 17.5294 21.615 17.625 21.5938C18.2229 21.4281 18.814 21.1513 19.3125 20.7812C19.3453 20.7572 19.3782 20.7332 19.412 20.7085C19.624 20.5508 19.8197 20.3808 20.0107 20.1984C20.0874 20.1306 20.1619 20.0823 20.25 20.0312C20.3718 20.1007 20.4935 20.1702 20.6153 20.2397C20.6566 20.2633 20.698 20.287 20.7394 20.3106C20.799 20.3446 20.8587 20.3787 20.9183 20.4127C20.9367 20.4232 20.955 20.4336 20.9739 20.4444C21.0543 20.4903 21.1338 20.5368 21.2121 20.5862C21.2776 20.6324 21.2776 20.6324 21.345 20.6145C21.4389 20.5348 21.487 20.4318 21.543 20.3242C21.5707 20.2727 21.5985 20.2212 21.6263 20.1697C21.6487 20.1283 21.6487 20.1283 21.6714 20.0862C21.7539 19.9359 21.8409 19.7884 21.9277 19.6406C21.9648 19.5773 22.0019 19.5139 22.0389 19.4506C22.0579 19.4181 22.0769 19.3857 22.0964 19.3523C22.1921 19.1886 22.2876 19.0248 22.3827 18.8607C22.4134 18.8077 22.4442 18.7549 22.4751 18.702C22.4938 18.6697 22.5125 18.6374 22.5317 18.6041C22.5483 18.5757 22.5648 18.5472 22.5818 18.5179C22.6234 18.4406 22.6567 18.3634 22.6875 18.2812C22.6618 18.2666 22.6361 18.2519 22.6097 18.2368C22.5138 18.1822 22.418 18.1275 22.3222 18.0728C22.2809 18.0492 22.2395 18.0255 22.1981 18.0019C22.1385 17.9679 22.0788 17.9338 22.0192 17.8998C22.0008 17.8893 21.9825 17.8789 21.9636 17.8681C21.8834 17.8222 21.8038 17.7758 21.7254 17.727C21.6605 17.6823 21.6605 17.6823 21.5938 17.6875C21.602 17.6462 21.602 17.6462 21.6105 17.604C21.6312 17.5002 21.6517 17.3964 21.6721 17.2925C21.681 17.2478 21.6898 17.2032 21.6988 17.1586C21.8938 16.1849 21.8079 15.2734 21.5938 14.3125C21.6268 14.3001 21.6268 14.3001 21.6606 14.2874C21.755 14.2479 21.8415 14.2017 21.9307 14.1515C21.9647 14.1324 21.9987 14.1133 22.0338 14.0936C22.0691 14.0736 22.1043 14.0537 22.1406 14.0332C22.1935 14.0035 22.1935 14.0035 22.2474 13.9732C22.3952 13.8901 22.5424 13.8066 22.6875 13.7188C22.643 13.5997 22.5882 13.4924 22.5249 13.3822C22.4947 13.3295 22.4947 13.3295 22.4639 13.2757C22.4421 13.2379 22.4203 13.2 22.3984 13.1621C22.3759 13.1229 22.3534 13.0836 22.3309 13.0444C22.1512 12.7317 21.9702 12.4199 21.7877 12.1089C21.7225 11.9976 21.6579 11.886 21.5941 11.7739C21.5798 11.7489 21.5654 11.7239 21.5506 11.6982C21.5242 11.6522 21.498 11.606 21.4721 11.5597C21.4044 11.4361 21.4044 11.4361 21.2812 11.375C21.1886 11.4163 21.1886 11.4163 21.0873 11.478C21.0684 11.4889 21.0496 11.4999 21.0302 11.5111C20.9698 11.5462 20.9097 11.5817 20.8496 11.6172C20.7898 11.6522 20.7299 11.6871 20.67 11.7219C20.6154 11.7538 20.5609 11.7859 20.5064 11.818C20.4119 11.8718 20.3164 11.9212 20.2188 11.9688C20.192 11.9443 20.192 11.9443 20.1647 11.9193C20.079 11.8415 19.9928 11.7644 19.9062 11.6875C19.8907 11.6736 19.8752 11.6598 19.8591 11.6455C19.2347 11.0919 18.5099 10.7 17.7188 10.4375C17.6812 10.4244 17.6812 10.4244 17.6428 10.411C17.6178 10.4024 17.5929 10.3938 17.5671 10.3849C17.5446 10.377 17.522 10.3691 17.4987 10.361C17.4331 10.3395 17.4331 10.3395 17.3438 10.3438C17.3438 9.92094 17.3438 9.49812 17.3438 9.0625C16.4569 9.0625 15.57 9.0625 14.6562 9.0625Z" fill="white"/>
<path d="M18.7188 13.0312C18.9869 13.0312 19.255 13.0312 19.5312 13.0312C19.6367 13.2843 19.739 13.5369 19.8356 13.7932C19.8493 13.8294 19.863 13.8656 19.8771 13.9029C19.9138 13.9999 19.9505 14.0969 19.9871 14.1939C20.0483 14.3561 20.1096 14.5182 20.1709 14.6803C20.1864 14.7212 20.2018 14.762 20.2173 14.8029C20.3212 15.0779 20.4263 15.3524 20.5325 15.6266C20.5561 15.6878 20.5797 15.749 20.6034 15.8102C20.6364 15.8958 20.6695 15.9813 20.7029 16.0667C20.7331 16.1439 20.763 16.2213 20.7928 16.2987C20.8018 16.3212 20.8107 16.3436 20.8199 16.3668C20.8786 16.5206 20.8786 16.5206 20.8438 16.625C20.7671 16.6648 20.7671 16.6648 20.6663 16.7036C20.6301 16.7176 20.594 16.7315 20.5568 16.7458C20.5187 16.7601 20.4806 16.7744 20.4414 16.7891C20.4036 16.8038 20.3658 16.8185 20.3268 16.8337C20.0434 16.9415 20.0434 16.9415 19.9375 16.9062C19.8859 16.7722 19.8344 16.6381 19.7812 16.5C19.3481 16.5 18.915 16.5 18.4688 16.5C18.4172 16.6341 18.3656 16.7681 18.3125 16.9062C18.1917 16.9465 18.1506 16.9197 18.033 16.8744C17.9967 16.8605 17.9605 16.8466 17.9232 16.8322C17.8854 16.8173 17.8476 16.8024 17.8086 16.7871C17.7515 16.7653 17.7515 16.7653 17.6932 16.7431C17.4103 16.6332 17.4103 16.6332 17.375 16.5625C17.398 16.4877 17.4233 16.4163 17.4514 16.3434C17.4601 16.3204 17.4687 16.2974 17.4777 16.2737C17.507 16.1961 17.5367 16.1185 17.5664 16.041C17.5873 15.9861 17.6081 15.9311 17.6289 15.8761C17.6873 15.7223 17.746 15.5685 17.8047 15.4147C17.8599 15.2702 17.9149 15.1256 17.9699 14.9811C18.2176 14.3304 18.4656 13.6798 18.7188 13.0312ZM19.125 14.75C18.9325 15.111 18.9325 15.111 18.8438 15.5C19.0294 15.5 19.215 15.5 19.4062 15.5C19.3843 15.39 19.3626 15.3015 19.3241 15.1986C19.3143 15.1723 19.3046 15.146 19.2945 15.119C19.2792 15.0784 19.2792 15.0784 19.2637 15.0371C19.2482 14.9957 19.2482 14.9957 19.2325 14.9534C19.2072 14.8856 19.1818 14.8178 19.1562 14.75C19.1459 14.75 19.1356 14.75 19.125 14.75Z" fill="white"/>
<path d="M13.6638 13.3585C13.7188 13.4062 13.7188 13.4062 13.751 13.4646C13.7494 13.5719 13.6867 13.6146 13.6133 13.6894C13.5844 13.7196 13.5556 13.7498 13.5269 13.78C13.5121 13.7955 13.4972 13.811 13.482 13.827C13.3665 13.9516 13.2624 14.0862 13.1562 14.2187C13.1354 14.2075 13.1146 14.1962 13.0931 14.1846C12.8838 14.0791 12.704 14.0247 12.4688 14.0625C12.4378 14.0831 12.4069 14.1037 12.375 14.125C12.3783 14.1857 12.3783 14.1857 12.4062 14.25C12.4766 14.2933 12.4766 14.2933 12.5664 14.3242C12.6003 14.3374 12.6342 14.3506 12.6692 14.3642C12.7247 14.385 12.7247 14.385 12.7812 14.4062C13.7102 14.7582 13.7102 14.7582 13.9512 15.2266C14.0689 15.5287 14.0562 15.8573 13.9375 16.1562C13.7764 16.4601 13.5108 16.6922 13.1875 16.8125C13.0094 16.8648 12.8493 16.8862 12.6641 16.8848C12.6395 16.8846 12.6149 16.8844 12.5895 16.8842C12.1099 16.8743 11.7187 16.698 11.3677 16.3735C11.3125 16.3125 11.3125 16.3125 11.3125 16.25C11.3529 16.2092 11.3529 16.2092 11.4121 16.1601C11.4993 16.0868 11.5835 16.0118 11.6652 15.9324C11.6919 15.9066 11.6919 15.9066 11.7193 15.8803C11.7551 15.8458 11.7907 15.8109 11.826 15.7758C11.8765 15.7275 11.8765 15.7275 11.9688 15.6562C12.0823 15.6714 12.1686 15.7275 12.2676 15.7832C12.4525 15.8769 12.6069 15.9154 12.8125 15.875C12.8886 15.8406 12.9361 15.8052 13 15.75C12.9966 15.6746 12.9966 15.6746 12.9688 15.5937C12.9005 15.5401 12.9005 15.5401 12.8105 15.5019C12.7597 15.4783 12.7597 15.4783 12.7079 15.4541C12.5877 15.4037 12.4663 15.3587 12.3438 15.3144C11.9673 15.1774 11.6028 15.0046 11.4247 14.6247C11.3116 14.3065 11.3138 14.0171 11.4551 13.709C11.6264 13.3997 11.8702 13.1915 12.2098 13.0904C12.7272 12.9689 13.2149 13.0911 13.6638 13.3585Z" fill="white"/>
<path d="M14.9375 12.9688C15.2572 12.9688 15.5769 12.9688 15.9062 12.9688C15.9062 13.9381 15.9062 14.9075 15.9062 15.9062C16.1434 15.9062 16.3806 15.9062 16.625 15.9062C16.625 16.2259 16.625 16.5456 16.625 16.875C16.0681 16.875 15.5113 16.875 14.9375 16.875C14.9375 15.5859 14.9375 14.2969 14.9375 12.9688Z" fill="white"/>
<path d="M16.9062 17.8125C17.0164 17.8643 17.0875 17.924 17.1733 18.011C17.1997 18.0376 17.2261 18.0642 17.2533 18.0916C17.2806 18.1193 17.3078 18.1471 17.3359 18.1758C17.3637 18.2038 17.3914 18.2319 17.42 18.2607C17.4885 18.3299 17.5568 18.3993 17.625 18.4688C17.5736 18.6005 17.4761 18.6884 17.3775 18.7858C17.3492 18.8142 17.3492 18.8142 17.3203 18.8431C17.2578 18.9055 17.1952 18.9676 17.1326 19.0298C17.0892 19.073 17.0459 19.1163 17.0025 19.1596C16.8885 19.2733 16.7743 19.3869 16.6601 19.5005C16.5435 19.6164 16.4271 19.7325 16.3107 19.8486C16.0823 20.0763 15.8537 20.3039 15.625 20.5312C15.5255 20.4873 15.459 20.4353 15.3825 20.3584C15.36 20.3359 15.3375 20.3133 15.3143 20.2901C15.2904 20.2659 15.2664 20.2416 15.2417 20.2166C15.2169 20.1917 15.1921 20.1668 15.1666 20.1412C15.0875 20.0617 15.0086 19.982 14.9297 19.9023C14.8761 19.8484 14.8224 19.7945 14.7688 19.7406C14.6374 19.6085 14.5061 19.4762 14.375 19.3438C14.4745 19.226 14.5738 19.1097 14.6833 19.0011C14.7142 18.9704 14.7142 18.9704 14.7456 18.9391C14.7768 18.9084 14.7768 18.9084 14.8086 18.877C14.8301 18.8556 14.8516 18.8342 14.8738 18.8122C14.9262 18.7601 14.9787 18.7082 15.0312 18.6562C15.1229 18.6975 15.1871 18.7421 15.2573 18.8137C15.2753 18.8318 15.2932 18.85 15.3116 18.8687C15.33 18.8875 15.3483 18.9064 15.3672 18.9258C15.386 18.9449 15.4048 18.964 15.4242 18.9836C15.4704 19.0306 15.5165 19.0778 15.5625 19.125C15.7335 18.9825 15.8919 18.831 16.0487 18.6731C16.0734 18.6484 16.098 18.6237 16.1234 18.5982C16.2015 18.52 16.2795 18.4416 16.3574 18.3633C16.4106 18.3099 16.4638 18.2566 16.517 18.2032C16.6469 18.0731 16.7766 17.9428 16.9062 17.8125Z" fill="white"/>
</g>
<defs>
<linearGradient id="paint0_linear_64_15679" x1="2.336" y1="28.832" x2="30.976" y2="1.6" gradientUnits="userSpaceOnUse">
<stop stop-color="#0C2365"/>
<stop offset="0.692708" stop-color="#496DD3"/>
<stop offset="1" stop-color="#94B0FE"/>
</linearGradient>
<clipPath id="clip0_64_15679">
<rect width="16" height="16" fill="white" transform="translate(8 8)"/>
</clipPath>
</defs>
</svg>
