<svg width="32" height="32" viewBox="0 0 32 32" fill="none" xmlns="http://www.w3.org/2000/svg">
<rect width="32" height="32" rx="16" fill="url(#paint0_linear_64_15734)"/>
<g clip-path="url(#clip0_64_15734)">
<path d="M8 21.3996H16.2331C18.7124 21.3875 20.8543 19.5749 21.3414 17.1007C21.8402 14.5661 20.4788 11.9831 18.1139 11.0254C16.1891 10.2913 14.0355 10.7444 12.5948 12.1855C11.5737 13.2066 11.204 14.4331 11.0955 15.424" stroke="white" stroke-width="1.51111" stroke-miterlimit="10" stroke-linecap="round"/>
<path d="M11.3381 17.7222C11.2813 17.8828 11.0476 17.8862 10.9862 17.7274C10.5494 16.5991 9.93843 15.341 9.2815 14.38C9.17899 14.2301 9.33599 14.0202 9.50574 14.0849L11.0565 14.6754C11.0991 14.6917 11.1462 14.6909 11.1883 14.6734L12.7179 14.0347C12.886 13.9645 13.0498 14.1707 12.9511 14.3238C12.3196 15.3037 11.7424 16.5791 11.3381 17.7222Z" fill="white"/>
<path d="M13.4045 21.3995H22.2303" stroke="white" stroke-width="1.51111" stroke-miterlimit="10"/>
<path d="M23.783 21.3137C23.8586 21.3447 23.8586 21.4545 23.783 21.4855C23.1049 21.764 22.3347 22.1722 21.7584 22.6163C21.6855 22.6724 21.5758 22.597 21.6062 22.5102L21.9857 21.4291C21.9924 21.41 21.9923 21.3892 21.9856 21.3701L21.6065 20.2921C21.576 20.2054 21.6858 20.1298 21.7587 20.1858C22.3337 20.6278 23.105 21.0354 23.783 21.3137Z" fill="white"/>
</g>
<defs>
<linearGradient id="paint0_linear_64_15734" x1="2.048" y1="29.44" x2="28.608" y2="3.872" gradientUnits="userSpaceOnUse">
<stop stop-color="#52528B"/>
<stop offset="0.671875" stop-color="#8484D6"/>
<stop offset="1" stop-color="#C2C2F9"/>
</linearGradient>
<clipPath id="clip0_64_15734">
<rect width="16" height="13.3333" fill="white" transform="translate(8 9.33325)"/>
</clipPath>
</defs>
</svg>
