<svg width="32" height="32" viewBox="0 0 32 32" fill="none" xmlns="http://www.w3.org/2000/svg">
<rect width="32" height="32" rx="16" fill="url(#paint0_linear_64_15931)"/>
<path fill-rule="evenodd" clip-rule="evenodd" d="M9.67387 21.1261C9.63996 21.4697 9.92307 21.7503 10.2684 21.7503C10.6137 21.7503 10.8897 21.4693 10.9319 21.1266C10.988 20.6703 11.1056 20.2227 11.2823 19.7962C11.5389 19.1767 11.9151 18.6137 12.3892 18.1396C12.8634 17.6654 13.4263 17.2893 14.0459 17.0326C14.6654 16.776 15.3294 16.6439 16 16.6439C16.6706 16.6439 17.3346 16.776 17.9541 17.0326C18.5736 17.2893 19.1366 17.6654 19.6107 18.1396C20.0849 18.6137 20.461 19.1767 20.7176 19.7962C20.8943 20.2227 21.012 20.6703 21.0681 21.1266C21.1103 21.4693 21.3863 21.7503 21.7316 21.7503C22.0769 21.7503 22.36 21.4697 22.3261 21.1261C22.2649 20.5054 22.1125 19.896 21.8729 19.3176C21.5535 18.5464 21.0852 17.8456 20.4949 17.2553C19.9047 16.6651 19.2039 16.1968 18.4326 15.8774C17.6614 15.5579 16.8348 15.3935 16 15.3935C15.1652 15.3935 14.3386 15.5579 13.5673 15.8774C12.7961 16.1968 12.0953 16.6651 11.505 17.2553C10.9147 17.8456 10.4465 18.5464 10.127 19.3176C9.88749 19.896 9.73511 20.5054 9.67387 21.1261Z" fill="white"/>
<path d="M18.0756 19.0867C18.2043 18.8639 18.1279 18.579 17.9051 18.4504C17.6823 18.3217 17.3974 18.3981 17.2688 18.6209L16.176 20.5136C16.1184 20.5055 16.0596 20.5013 15.9997 20.5013C15.3097 20.5013 14.7504 21.0606 14.7504 21.7506C14.7504 22.4406 15.3097 23 15.9997 23C16.6897 23 17.249 22.4406 17.249 21.7506C17.249 21.4596 17.1496 21.1919 16.9828 20.9795L18.0756 19.0867Z" fill="white"/>
<path d="M9.05882 9C8.5443 9 8.1272 9.4171 8.1272 9.93162C8.1272 10.4461 8.5443 10.8632 9.05882 10.8632H10.3692L13.0379 14.4874C13.9781 14.1041 14.9839 13.9069 15.9995 13.9069C17.0151 13.9069 18.0209 14.1041 18.9611 14.4874L21.6298 10.8632H22.9402C23.4547 10.8632 23.8718 10.4461 23.8718 9.93162C23.8718 9.4171 23.4547 9 22.9402 9H9.05882Z" fill="white"/>
<defs>
<linearGradient id="paint0_linear_64_15931" x1="16" y1="32" x2="16" y2="0" gradientUnits="userSpaceOnUse">
<stop stop-color="#0538FF"/>
<stop offset="1" stop-color="#5799F7"/>
</linearGradient>
</defs>
</svg>
