<svg width="32" height="32" viewBox="0 0 32 32" fill="none" xmlns="http://www.w3.org/2000/svg">
<rect width="32" height="32" rx="16" fill="url(#paint0_linear_64_15910)"/>
<path d="M20.6571 16.7885L20.6571 16.7885L20.1116 16.1607V15.1087C20.1116 14.9437 20.0459 14.7855 19.929 14.669C19.8121 14.5524 19.6536 14.487 19.4884 14.487C19.3232 14.487 19.1647 14.5524 19.0478 14.669C18.9309 14.7855 18.8651 14.9437 18.8651 15.1087V16.3936V16.3937C18.8653 16.543 18.9193 16.6872 19.0173 16.8L19.0173 16.8L19.715 17.6028C19.715 17.6028 19.715 17.6028 19.715 17.6028C19.7686 17.6645 19.8338 17.7151 19.907 17.7516C19.9802 17.7882 20.0598 17.81 20.1414 17.8158C20.223 17.8217 20.305 17.8114 20.3826 17.7857C20.4603 17.76 20.5321 17.7192 20.594 17.6658C20.6558 17.6123 20.7066 17.5473 20.7433 17.4742L20.6539 17.4294L20.7433 17.4742C20.78 17.4012 20.8019 17.3217 20.8077 17.2402C20.8136 17.1587 20.8033 17.0769 20.7775 16.9994C20.7516 16.9219 20.7107 16.8502 20.6571 16.7885ZM8.58265 12.582C8.46574 12.6986 8.4 12.8567 8.4 13.0217C8.4 13.1867 8.46574 13.3449 8.58265 13.4615C8.69956 13.578 8.85805 13.6435 9.02326 13.6435H14.6047C14.7699 13.6435 14.9284 13.578 15.0453 13.4615C15.1622 13.3449 15.2279 13.1867 15.2279 13.0217C15.2279 12.8567 15.1622 12.6986 15.0453 12.582C14.9284 12.4654 14.7699 12.4 14.6047 12.4H9.02326C8.85805 12.4 8.69956 12.4654 8.58265 12.582ZM18.3918 13.861C18.7395 13.7174 19.1121 13.6435 19.4884 13.6435C20.2483 13.6435 20.9771 13.9445 21.5144 14.4802C22.0517 15.016 22.3535 15.7425 22.3535 16.5C22.3535 17.2575 22.0517 17.984 21.5144 18.5198C20.9771 19.0555 20.2483 19.3565 19.4884 19.3565C19.1121 19.3565 18.7395 19.2826 18.3918 19.139C18.0442 18.9955 17.7284 18.785 17.4623 18.5198C17.1963 18.2545 16.9853 17.9396 16.8413 17.593C16.6973 17.2465 16.6233 16.8751 16.6233 16.5C16.6233 16.1249 16.6973 15.7535 16.8413 15.407C16.9853 15.0604 17.1963 14.7455 17.4623 14.4802C17.7284 14.215 18.0442 14.0045 18.3918 13.861ZM15.6898 14.9309C15.4831 15.4284 15.3767 15.9615 15.3767 16.5C15.3767 17.5875 15.81 18.6304 16.5811 19.3992C17.3522 20.1681 18.398 20.6 19.4884 20.6C20.5787 20.6 21.6245 20.1681 22.3956 19.3992C23.1667 18.6304 23.6 17.5875 23.6 16.5C23.6 15.9615 23.4936 15.4284 23.287 14.9309C23.0803 14.4334 22.7774 13.9815 22.3956 13.6008C22.0138 13.2201 21.5606 12.9181 21.0617 12.7121C20.5629 12.506 20.0283 12.4 19.4884 12.4C18.9485 12.4 18.4138 12.506 17.915 12.7121C17.4162 12.9181 16.9629 13.2201 16.5811 13.6008C16.1993 13.9815 15.8964 14.4334 15.6898 14.9309ZM8.58265 16.0603C8.46574 16.1768 8.4 16.335 8.4 16.5C8.4 16.665 8.46574 16.8232 8.58265 16.9397C8.69956 17.0563 8.85805 17.1217 9.02326 17.1217H13.2093C13.3745 17.1217 13.533 17.0563 13.6499 16.9397C13.7668 16.8232 13.8326 16.665 13.8326 16.5C13.8326 16.335 13.7668 16.1768 13.6499 16.0603C13.533 15.9437 13.3745 15.8783 13.2093 15.8783H9.02326C8.85805 15.8783 8.69956 15.9437 8.58265 16.0603ZM8.58265 19.5385C8.46573 19.6551 8.4 19.8133 8.4 19.9783C8.4 20.1433 8.46573 20.3014 8.58265 20.418C8.69956 20.5346 8.85805 20.6 9.02326 20.6H14.6047C14.7699 20.6 14.9284 20.5346 15.0453 20.418C15.1622 20.3014 15.2279 20.1433 15.2279 19.9783C15.2279 19.8133 15.1622 19.6551 15.0453 19.5385C14.9284 19.422 14.7699 19.3565 14.6047 19.3565H9.02326C8.85805 19.3565 8.69956 19.422 8.58265 19.5385Z" fill="white" stroke="white" stroke-width="0.2"/>
<defs>
<linearGradient id="paint0_linear_64_15910" x1="26.88" y1="-0.959999" x2="3.84" y2="29.92" gradientUnits="userSpaceOnUse">
<stop stop-color="#FF9900"/>
<stop offset="1" stop-color="#AC5100"/>
</linearGradient>
</defs>
</svg>
