<svg width="32" height="32" viewBox="0 0 32 32" fill="none" xmlns="http://www.w3.org/2000/svg">
<rect width="32" height="32" rx="16" fill="url(#paint0_linear_64_15938)"/>
<path d="M11.6463 12.0099V20.3526C11.6462 20.5909 11.6931 20.8268 11.7842 21.0469C11.8753 21.267 12.0089 21.467 12.1774 21.6355C12.3459 21.804 12.5459 21.9376 12.766 22.0287C12.9861 22.1198 13.222 22.1667 13.4603 22.1666H18.539C19.0199 22.1666 19.4811 21.9756 19.8212 21.6355C20.1612 21.2954 20.3523 20.8342 20.3523 20.3533V12.0093M10.1956 12.0099H21.8036" stroke="white" stroke-linecap="round" stroke-linejoin="round"/>
<path d="M13.8232 12.0098V10.9211C13.8231 10.7781 13.8511 10.6365 13.9058 10.5044C13.9604 10.3723 14.0406 10.2522 14.1418 10.1512C14.2429 10.0501 14.363 9.96998 14.4951 9.9154C14.6273 9.86083 14.7689 9.83287 14.9119 9.83313H17.0879C17.2309 9.83287 17.3725 9.86083 17.5047 9.9154C17.6368 9.96998 17.7569 10.0501 17.8581 10.1512C17.9592 10.2522 18.0394 10.3723 18.0941 10.5044C18.1487 10.6365 18.1768 10.7781 18.1766 10.9211V12.0098M14.5492 19.3278V15.7018M17.4512 19.3278V15.7018" stroke="white" stroke-linecap="round" stroke-linejoin="round"/>
<defs>
<linearGradient id="paint0_linear_64_15938" x1="1.08105e-06" y1="29.632" x2="32" y2="2.08" gradientUnits="userSpaceOnUse">
<stop stop-color="#78243A"/>
<stop offset="1" stop-color="#EF4873"/>
</linearGradient>
</defs>
</svg>
