<svg width="32" height="32" viewBox="0 0 32 32" fill="none" xmlns="http://www.w3.org/2000/svg">
<rect width="32" height="32" rx="16" fill="url(#paint0_radial_64_15627)"/>
<path d="M14.0714 11.632C14.4701 10.4653 16.0821 10.43 16.5547 11.526L16.5947 11.6327L17.1327 13.206C17.256 13.5668 17.4553 13.897 17.717 14.1743C17.9788 14.4516 18.2969 14.6695 18.6501 14.8133L18.7947 14.8673L20.3681 15.4047C21.5347 15.8033 21.5701 17.4153 20.4747 17.888L20.3681 17.928L18.7947 18.466C18.4338 18.5892 18.1035 18.7884 17.8261 19.0502C17.5487 19.3119 17.3307 19.6301 17.1867 19.9833L17.1327 20.1273L16.5954 21.7013C16.1967 22.868 14.5847 22.9033 14.1127 21.808L14.0714 21.7013L13.5341 20.128C13.4109 19.7671 13.2117 19.4367 12.9499 19.1593C12.6881 18.882 12.3699 18.6639 12.0167 18.52L11.8727 18.466L10.2994 17.9287C9.13207 17.53 9.09674 15.918 10.1927 15.446L10.2994 15.4047L11.8727 14.8673C12.2336 14.744 12.5637 14.5448 12.841 14.283C13.1183 14.0213 13.3362 13.7031 13.4801 13.35L13.5341 13.206L14.0714 11.632ZM15.3334 12.0627L14.7961 13.636C14.6083 14.1862 14.3029 14.6889 13.9011 15.109C13.4993 15.5291 13.0107 15.8566 12.4694 16.0687L12.3027 16.1293L10.7294 16.6667L12.3027 17.204C12.8529 17.3917 13.3556 17.6972 13.7757 18.099C14.1959 18.5008 14.5234 18.9894 14.7354 19.5307L14.7961 19.6973L15.3334 21.2707L15.8707 19.6973C16.0585 19.1471 16.3639 18.6445 16.7657 18.2243C17.1675 17.8042 17.6561 17.4767 18.1974 17.2647L18.3641 17.2047L19.9374 16.6667L18.3641 16.1293C17.8139 15.9416 17.3112 15.6362 16.8911 15.2344C16.4709 14.8325 16.1435 14.344 15.9314 13.8027L15.8714 13.636L15.3334 12.0627ZM20.6667 9.33334C20.7915 9.33334 20.9137 9.36832 21.0195 9.43432C21.1253 9.50031 21.2105 9.59467 21.2654 9.70667L21.2974 9.78467L21.5307 10.4687L22.2154 10.702C22.3404 10.7445 22.45 10.8231 22.5302 10.9279C22.6105 11.0327 22.6578 11.1589 22.6663 11.2907C22.6747 11.4224 22.6438 11.5537 22.5775 11.6679C22.5113 11.782 22.4126 11.874 22.2941 11.932L22.2154 11.964L21.5314 12.1973L21.2981 12.882C21.2555 13.007 21.1769 13.1165 21.072 13.1967C20.9672 13.2769 20.8409 13.3241 20.7092 13.3325C20.5774 13.3408 20.4462 13.3099 20.3321 13.2436C20.2179 13.1773 20.1261 13.0786 20.0681 12.96L20.0361 12.882L19.8027 12.198L19.1181 11.9647C18.9931 11.9222 18.8835 11.8436 18.8033 11.7388C18.723 11.634 18.6756 11.5077 18.6672 11.376C18.6588 11.2443 18.6897 11.113 18.7559 10.9988C18.8222 10.8846 18.9208 10.7927 19.0394 10.7347L19.1181 10.7027L19.8021 10.4693L20.0354 9.78467C20.0804 9.65295 20.1654 9.53861 20.2786 9.45767C20.3918 9.37673 20.5276 9.33325 20.6667 9.33334Z" fill="white"/>
<defs>
<radialGradient id="paint0_radial_64_15627" cx="0" cy="0" r="1" gradientUnits="userSpaceOnUse" gradientTransform="translate(5.95594 6.56194) rotate(38.1157) scale(20.8508 57.6052)">
<stop stop-color="white"/>
<stop offset="0.36" stop-color="#7551FF"/>
<stop offset="0.755" stop-color="#5000FF"/>
<stop offset="0.975" stop-color="#B960FF"/>
</radialGradient>
</defs>
</svg>
