<svg width="32" height="32" viewBox="0 0 32 32" fill="none" xmlns="http://www.w3.org/2000/svg">
<rect width="32" height="32" rx="16" fill="url(#paint0_linear_64_15876)"/>
<g clip-path="url(#clip0_64_15876)">
<path d="M16.0001 8.49996C20.1423 8.49996 23.5001 11.8577 23.5001 16C23.5001 20.1422 20.1423 23.5 16.0001 23.5C14.6337 23.5021 13.293 23.129 12.1241 22.4215L9.85007 23.0905C9.7195 23.1289 9.58101 23.1314 9.44913 23.0978C9.31725 23.0641 9.19687 22.9956 9.10064 22.8994C9.0044 22.8032 8.93587 22.6828 8.90225 22.5509C8.86863 22.419 8.87116 22.2805 8.90957 22.15L9.57857 19.876C8.87136 18.7069 8.49833 17.3663 8.50007 16C8.50007 11.8577 11.8578 8.49996 16.0001 8.49996ZM16.0001 9.99996C14.9258 9.99977 13.8712 10.288 12.9463 10.8346C12.0215 11.3811 11.2603 12.166 10.7424 13.1072C10.2244 14.0483 9.96869 15.1113 10.0018 16.1851C10.035 17.2588 10.3558 18.304 10.9308 19.2115C11.1011 19.4792 11.1596 19.8167 11.0636 20.1415L10.7328 21.2672L11.8586 20.9365C12.1833 20.8405 12.5208 20.899 12.7886 21.0692C13.5748 21.567 14.4661 21.8752 15.3919 21.9692C16.3178 22.0633 17.2528 21.9407 18.1231 21.6111C18.9934 21.2816 19.7751 20.7541 20.4064 20.0704C21.0378 19.3867 21.5014 18.5655 21.7607 17.6718C22.02 16.778 22.0679 15.8362 21.9005 14.9208C21.7331 14.0054 21.3551 13.1414 20.7963 12.3972C20.2375 11.6531 19.5133 11.0491 18.6809 10.633C17.8485 10.217 16.9307 10.0002 16.0001 9.99996ZM13.3751 14.875C13.6734 14.875 13.9596 14.9935 14.1706 15.2045C14.3815 15.4154 14.5001 15.7016 14.5001 16C14.5001 16.2983 14.3815 16.5845 14.1706 16.7955C13.9596 17.0064 13.6734 17.125 13.3751 17.125C13.0767 17.125 12.7905 17.0064 12.5796 16.7955C12.3686 16.5845 12.2501 16.2983 12.2501 16C12.2501 15.7016 12.3686 15.4154 12.5796 15.2045C12.7905 14.9935 13.0767 14.875 13.3751 14.875ZM18.6251 14.875C18.9234 14.875 19.2096 14.9935 19.4206 15.2045C19.6315 15.4154 19.7501 15.7016 19.7501 16C19.7501 16.2983 19.6315 16.5845 19.4206 16.7955C19.2096 17.0064 18.9234 17.125 18.6251 17.125C18.3267 17.125 18.0405 17.0064 17.8296 16.7955C17.6186 16.5845 17.5001 16.2983 17.5001 16C17.5001 15.7016 17.6186 15.4154 17.8296 15.2045C18.0405 14.9935 18.3267 14.875 18.6251 14.875Z" fill="white"/>
</g>
<defs>
<linearGradient id="paint0_linear_64_15876" x1="-8.70132e-08" y1="28.48" x2="26.176" y2="5.888" gradientUnits="userSpaceOnUse">
<stop stop-color="#035C42"/>
<stop offset="1" stop-color="#06B884"/>
</linearGradient>
<clipPath id="clip0_64_15876">
<rect width="16" height="16" fill="white" transform="translate(8 8)"/>
</clipPath>
</defs>
</svg>
