<svg width="32" height="32" viewBox="0 0 32 32" fill="none" xmlns="http://www.w3.org/2000/svg">
<rect width="32" height="32" rx="16" fill="url(#paint0_linear_64_15848)"/>
<path d="M19.0939 10.4063C19.1176 10.4137 19.1413 10.4211 19.1657 10.4287C19.7538 10.6178 20.3218 10.9054 20.8127 11.2813C20.8393 11.3014 20.8658 11.3214 20.8932 11.3421C21.1064 11.5077 21.3037 11.6903 21.5002 11.8751C21.5201 11.8933 21.54 11.9115 21.5605 11.9302C22.6061 12.9208 23.1367 14.4192 23.1966 15.8303C23.238 17.483 22.5954 18.9711 21.4689 20.1563C21.4418 20.1859 21.4418 20.1859 21.4141 20.2161C21.2342 20.4064 21.0209 20.5613 20.8127 20.7188C20.773 20.7489 20.773 20.7489 20.7325 20.7796C19.9528 21.3469 19.0428 21.6763 18.0939 21.8126C18.0721 21.8158 18.0503 21.819 18.0278 21.8223C17.8034 21.8516 17.5777 21.8514 17.3517 21.8516C17.3303 21.8516 17.309 21.8517 17.2869 21.8517C16.914 21.8511 16.5535 21.8252 16.1877 21.7501C16.1621 21.7449 16.1365 21.7397 16.1101 21.7343C15.2789 21.5594 14.483 21.2115 13.8127 20.6876C13.7638 20.6497 13.7638 20.6497 13.714 20.611C13.3346 20.3089 13.3346 20.3089 13.2814 20.0626C13.2782 19.885 13.3218 19.7629 13.4377 19.6251C13.5829 19.4871 13.7154 19.4854 13.9064 19.4835C14.0796 19.5141 14.1999 19.633 14.3326 19.7424C14.9116 20.2166 15.5858 20.52 16.3127 20.6876C16.3447 20.6952 16.3447 20.6952 16.3773 20.7031C17.5498 20.9746 18.8155 20.7065 19.8366 20.0945C20.0691 19.9491 20.2825 19.7834 20.4924 19.6075C20.5167 19.5871 20.5167 19.5871 20.5415 19.5663C21.3969 18.8365 21.9556 17.7367 22.0939 16.6251C22.0974 16.5988 22.1008 16.5726 22.1044 16.5456C22.2421 15.3156 21.898 14.0331 21.1252 13.0626C20.2986 12.0414 19.1706 11.3817 17.8565 11.225C17.342 11.1825 16.8161 11.195 16.3127 11.3126C16.2743 11.3209 16.236 11.3292 16.1965 11.3378C15.5136 11.502 14.8917 11.8141 14.3439 12.2501C14.2906 12.2918 14.2372 12.3334 14.1838 12.3751C14.1618 12.3925 14.1398 12.4099 14.1171 12.4278C13.972 12.5371 13.7995 12.5163 13.6252 12.5001C13.4718 12.4289 13.3903 12.337 13.3127 12.1876C13.2747 12.0308 13.2654 11.9062 13.3324 11.7537C13.8498 10.9526 15.134 10.4875 16.0119 10.2852C16.1223 10.2615 16.2329 10.2397 16.3439 10.2188C16.3836 10.2111 16.4233 10.2034 16.4642 10.1955C17.3319 10.0586 18.2587 10.1455 19.0939 10.4063Z" fill="white"/>
<path d="M17.3574 12.6132C17.4758 12.723 17.5688 12.8376 17.5937 12.9999C17.5874 13.0717 17.5786 13.1433 17.5684 13.2147C17.3759 14.5861 17.3759 14.5861 17.8211 15.8433C18.2409 16.382 18.7774 16.8421 19.3102 17.2661C19.3307 17.2825 19.3511 17.2989 19.3722 17.3158C19.4101 17.346 19.4482 17.3758 19.4867 17.4051C19.6315 17.5204 19.6985 17.637 19.7312 17.8194C19.729 17.9866 19.7008 18.1126 19.5792 18.2326C19.4514 18.3419 19.3767 18.3804 19.2109 18.3847C19.1817 18.3858 19.1526 18.387 19.1225 18.3882C18.9121 18.3575 18.7634 18.1786 18.6197 18.034C18.5982 18.0126 18.5766 17.9911 18.5544 17.969C18.4835 17.8984 18.4129 17.8276 18.3422 17.7567C18.2929 17.7075 18.2436 17.6582 18.1943 17.6089C18.0911 17.5059 17.988 17.4027 17.885 17.2994C17.753 17.167 17.6207 17.0349 17.4882 16.9028C17.3864 16.8012 17.2847 16.6995 17.1831 16.5977C17.1344 16.5489 17.0856 16.5001 17.0367 16.4514C16.9686 16.3835 16.9006 16.3153 16.8327 16.247C16.8125 16.2269 16.7923 16.2068 16.7714 16.1861C16.753 16.1675 16.7345 16.1488 16.7154 16.1296C16.6913 16.1054 16.6913 16.1054 16.6668 16.0808C16.5862 15.9851 16.5547 15.9032 16.5541 15.7787C16.5538 15.7536 16.5536 15.7285 16.5533 15.7026C16.5533 15.6754 16.5533 15.6481 16.5534 15.62C16.5532 15.5911 16.553 15.5622 16.5527 15.5324C16.5521 15.4367 16.552 15.3411 16.552 15.2454C16.5518 15.1788 16.5515 15.1123 16.5513 15.0457C16.5509 14.9061 16.5508 14.7666 16.5509 14.627C16.5509 14.4484 16.55 14.2697 16.5489 14.0911C16.5482 13.9536 16.5481 13.8161 16.5482 13.6786C16.5481 13.6127 16.5478 13.5469 16.5473 13.481C16.5467 13.3888 16.5469 13.2966 16.5473 13.2044C16.5469 13.1773 16.5466 13.1503 16.5462 13.1224C16.5481 12.9413 16.5824 12.836 16.6875 12.6874C16.8874 12.5283 17.1245 12.5031 17.3574 12.6132Z" fill="white"/>
<path d="M10.7395 17.8041C10.7749 17.8038 10.8102 17.8036 10.8466 17.8033C10.8851 17.8033 10.9236 17.8033 10.9633 17.8034C11.0041 17.8032 11.0448 17.803 11.0868 17.8027C11.1985 17.8022 11.3101 17.802 11.4217 17.802C11.4916 17.802 11.5614 17.8018 11.6312 17.8017C11.8751 17.8011 12.1189 17.8008 12.3627 17.8009C12.5897 17.8009 12.8166 17.8002 13.0435 17.7993C13.2386 17.7984 13.4337 17.7981 13.6288 17.7981C13.7452 17.7982 13.8616 17.798 13.978 17.7973C14.108 17.7966 14.2379 17.7969 14.3678 17.7973C14.4061 17.7969 14.4444 17.7966 14.4839 17.7962C14.7017 17.7978 14.8469 17.8178 15.031 17.9375C15.1613 18.1011 15.2043 18.2288 15.1872 18.4375C15.1307 18.6022 15.0549 18.717 14.906 18.8125C14.8086 18.8449 14.7407 18.8479 14.6385 18.8483C14.6024 18.8485 14.5662 18.8487 14.529 18.849C14.4694 18.8491 14.4694 18.8491 14.4087 18.8492C14.3665 18.8494 14.3243 18.8496 14.2821 18.8499C14.1435 18.8505 14.0049 18.8508 13.8663 18.8511C13.8186 18.8513 13.7709 18.8514 13.7231 18.8515C13.4989 18.8521 13.2746 18.8526 13.0504 18.8528C12.7916 18.8531 12.5328 18.854 12.274 18.8552C12.0739 18.8562 11.8739 18.8566 11.6738 18.8567C11.5543 18.8568 11.4348 18.8571 11.3154 18.8579C11.2029 18.8586 11.0905 18.8587 10.9781 18.8584C10.9173 18.8584 10.8565 18.859 10.7957 18.8596C10.4628 18.8576 10.4628 18.8576 10.3122 18.7187C10.1738 18.5616 10.1466 18.4724 10.1493 18.2668C10.1619 18.1178 10.2172 18.0308 10.324 17.9296C10.4621 17.8375 10.5738 17.8047 10.7395 17.8041Z" fill="white"/>
<path d="M9.36157 13.1516C9.39771 13.1514 9.43386 13.1512 9.4711 13.1509C9.51079 13.1509 9.55048 13.1508 9.59138 13.1507C9.63358 13.1505 9.67577 13.1503 9.71797 13.1501C9.85657 13.1494 9.99516 13.1491 10.1338 13.1488C10.1815 13.1486 10.2292 13.1485 10.277 13.1484C10.5012 13.1478 10.7255 13.1473 10.9497 13.1471C11.2085 13.1468 11.4673 13.146 11.7261 13.1447C11.9261 13.1438 12.1262 13.1433 12.3263 13.1432C12.4458 13.1431 12.5652 13.1428 12.6847 13.142C12.7971 13.1413 12.9096 13.1412 13.022 13.1415C13.0828 13.1415 13.1436 13.1409 13.2044 13.1403C13.5373 13.1423 13.5373 13.1423 13.6878 13.2812C13.8263 13.4384 13.8535 13.5275 13.8508 13.7331C13.8382 13.8821 13.7829 13.9692 13.6761 14.0703C13.538 14.1624 13.4263 14.1953 13.2606 14.1958C13.2252 14.1961 13.1899 14.1964 13.1534 14.1966C13.115 14.1966 13.0765 14.1966 13.0368 14.1965C12.9756 14.1969 12.9756 14.1969 12.9133 14.1972C12.8016 14.1977 12.69 14.1979 12.5783 14.1979C12.5085 14.198 12.4387 14.1981 12.3689 14.1983C12.125 14.1988 11.8812 14.1991 11.6373 14.1991C11.4104 14.199 11.1835 14.1997 10.9566 14.2007C10.7615 14.2015 10.5664 14.2018 10.3712 14.2018C10.2548 14.2018 10.1384 14.2019 10.022 14.2026C9.8921 14.2033 9.76219 14.203 9.63226 14.2027C9.59395 14.203 9.55565 14.2034 9.51618 14.2037C9.2984 14.2021 9.15321 14.1821 8.96909 14.0625C8.8388 13.8988 8.79573 13.7711 8.81284 13.5625C8.8694 13.3977 8.94517 13.2829 9.09409 13.1875C9.19146 13.155 9.25942 13.1521 9.36157 13.1516Z" fill="white"/>
<path d="M10.2324 15.484C10.2752 15.4838 10.3181 15.4836 10.3609 15.4833C10.4769 15.4827 10.5928 15.483 10.7088 15.4834C10.8303 15.4837 10.9518 15.4834 11.0734 15.4832C11.2774 15.483 11.4815 15.4832 11.6855 15.4838C11.9213 15.4845 12.1569 15.4843 12.3926 15.4836C12.5953 15.483 12.7979 15.483 13.0005 15.4833C13.1214 15.4835 13.2423 15.4835 13.3632 15.4831C13.4769 15.4827 13.5905 15.483 13.7042 15.4837C13.7657 15.484 13.8271 15.4836 13.8886 15.4832C14.2242 15.4864 14.2242 15.4864 14.375 15.6251C14.4884 15.7445 14.5097 15.8402 14.5156 16.0001C14.5097 16.1601 14.4884 16.2558 14.375 16.3751C14.1952 16.5405 14.0021 16.5178 13.7676 16.5163C13.7248 16.5165 13.6819 16.5167 13.6391 16.517C13.5231 16.5175 13.4072 16.5173 13.2912 16.5169C13.1697 16.5166 13.0482 16.5169 12.9266 16.5171C12.7226 16.5173 12.5185 16.517 12.3145 16.5164C12.0787 16.5158 11.8431 16.516 11.6074 16.5167C11.4047 16.5172 11.2021 16.5173 10.9995 16.517C10.8786 16.5168 10.7577 16.5168 10.6368 16.5172C10.5231 16.5175 10.4095 16.5173 10.2958 16.5166C10.2343 16.5163 10.1729 16.5167 10.1114 16.5171C9.77579 16.5139 9.77579 16.5139 9.625 16.3751C9.51161 16.2558 9.49031 16.1601 9.48438 16.0001C9.49031 15.8402 9.51161 15.7445 9.625 15.6251C9.80478 15.4597 9.99793 15.4825 10.2324 15.484Z" fill="white"/>
<defs>
<linearGradient id="paint0_linear_64_15848" x1="16" y1="32" x2="16" y2="0" gradientUnits="userSpaceOnUse">
<stop stop-color="#0538FF"/>
<stop offset="1" stop-color="#5799F7"/>
</linearGradient>
</defs>
</svg>
