<svg width="32" height="32" viewBox="0 0 32 32" fill="none" xmlns="http://www.w3.org/2000/svg">
<rect width="32" height="32" rx="16" fill="url(#paint0_linear_64_15757)"/>
<path d="M16.0001 10.5001C10.7501 10.5001 8.50009 14.2501 8.50009 14.2501L13.7501 19.5001C13.7501 19.5001 14.1251 18.8251 14.8001 18.3751L15.0251 19.8751C14.7251 20.1001 14.5001 20.5501 14.5001 21.0001C14.5001 21.3979 14.6581 21.7794 14.9394 22.0607C15.2207 22.342 15.6023 22.5001 16.0001 22.5001C16.3979 22.5001 16.7794 22.342 17.0608 22.0607C17.3421 21.7794 17.5001 21.3979 17.5001 21.0001C17.5001 20.3251 17.1251 19.8001 16.5251 19.5751L16.2251 18.0001C17.5751 18.1501 18.2501 19.5001 18.2501 19.5001L23.5001 14.2501C23.5001 14.2501 21.2501 10.5001 16.0001 10.5001ZM18.3251 17.3251C17.7251 16.8751 16.9751 16.5001 16.0001 16.5001L15.2501 12.0751C15.4751 12.0001 15.7751 12.0001 16.0001 12.0001C18.7751 12.0001 20.5751 13.2751 21.4751 14.1751L18.3251 17.3251ZM13.6751 17.3251L10.5251 14.1751C11.1251 13.5001 12.2501 12.7501 13.7501 12.3001L14.5001 16.8001C14.2001 16.9501 13.9001 17.1001 13.6751 17.3251Z" fill="white"/>
<defs>
<linearGradient id="paint0_linear_64_15757" x1="2.336" y1="28.832" x2="30.976" y2="1.6" gradientUnits="userSpaceOnUse">
<stop stop-color="#0C2365"/>
<stop offset="0.692708" stop-color="#496DD3"/>
<stop offset="1" stop-color="#94B0FE"/>
</linearGradient>
</defs>
</svg>
