<svg width="32" height="32" viewBox="0 0 32 32" fill="none" xmlns="http://www.w3.org/2000/svg">
<rect width="32" height="32" rx="16" fill="url(#paint0_linear_64_15771)"/>
<path d="M23.47 15.83C22.8819 14.3088 21.861 12.9933 20.5334 12.046C19.2058 11.0988 17.6297 10.5613 16 10.5C14.3703 10.5613 12.7942 11.0988 11.4666 12.046C10.139 12.9933 9.11808 14.3088 8.53 15.83C8.49028 15.9399 8.49028 16.0601 8.53 16.17C9.11808 17.6912 10.139 19.0067 11.4666 19.954C12.7942 20.9012 14.3703 21.4387 16 21.5C17.6297 21.4387 19.2058 20.9012 20.5334 19.954C21.861 19.0067 22.8819 17.6912 23.47 16.17C23.5097 16.0601 23.5097 15.9399 23.47 15.83ZM16 20.5C13.35 20.5 10.55 18.535 9.535 16C10.55 13.465 13.35 11.5 16 11.5C18.65 11.5 21.45 13.465 22.465 16C21.45 18.535 18.65 20.5 16 20.5Z" fill="white"/>
<path d="M16 13C15.4067 13 14.8266 13.1759 14.3333 13.5056C13.8399 13.8352 13.4554 14.3038 13.2284 14.8519C13.0013 15.4001 12.9419 16.0033 13.0576 16.5853C13.1734 17.1672 13.4591 17.7018 13.8787 18.1213C14.2982 18.5409 14.8328 18.8266 15.4147 18.9424C15.9967 19.0581 16.5999 18.9987 17.1481 18.7716C17.6962 18.5446 18.1648 18.1601 18.4944 17.6667C18.8241 17.1734 19 16.5933 19 16C19 15.2044 18.6839 14.4413 18.1213 13.8787C17.5587 13.3161 16.7957 13 16 13ZM16 18C15.6044 18 15.2178 17.8827 14.8889 17.6629C14.56 17.4432 14.3036 17.1308 14.1522 16.7654C14.0009 16.3999 13.9613 15.9978 14.0384 15.6098C14.1156 15.2219 14.3061 14.8655 14.5858 14.5858C14.8655 14.3061 15.2219 14.1156 15.6098 14.0384C15.9978 13.9613 16.3999 14.0009 16.7654 14.1522C17.1308 14.3036 17.4432 14.56 17.6629 14.8889C17.8827 15.2178 18 15.6044 18 16C18 16.5304 17.7893 17.0391 17.4142 17.4142C17.0391 17.7893 16.5304 18 16 18Z" fill="white"/>
<defs>
<linearGradient id="paint0_linear_64_15771" x1="16" y1="32" x2="16" y2="0" gradientUnits="userSpaceOnUse">
<stop stop-color="#0538FF"/>
<stop offset="1" stop-color="#5799F7"/>
</linearGradient>
</defs>
</svg>
