<svg width="676" height="646" viewBox="0 0 676 646" fill="none" xmlns="http://www.w3.org/2000/svg">
<g filter="url(#filter0_f_4476_36656)">
<path d="M243.039 573.602L52.0237 100.822C39.6754 70.2583 70.4435 40.0225 100.787 52.9024L603.804 266.421C629.307 277.246 634.303 311.23 612.994 328.937L300.992 588.199C281.716 604.216 252.428 596.839 243.039 573.602Z" fill="url(#paint0_linear_4476_36656)"/>
<path d="M243.039 573.602L52.0237 100.822C39.6754 70.2583 70.4435 40.0225 100.787 52.9024L603.804 266.421C629.307 277.246 634.303 311.23 612.994 328.937L300.992 588.199C281.716 604.216 252.428 596.839 243.039 573.602Z" stroke="url(#paint1_linear_4476_36656)" stroke-width="65"/>
</g>
<defs>
<filter id="filter0_f_4476_36656" x="0.0373592" y="0.662634" width="675.423" height="645.203" filterUnits="userSpaceOnUse" color-interpolation-filters="sRGB">
<feFlood flood-opacity="0" result="BackgroundImageFix"/>
<feBlend mode="normal" in="SourceGraphic" in2="BackgroundImageFix" result="shape"/>
<feGaussianBlur stdDeviation="8.3" result="effect1_foregroundBlur_4476_36656"/>
</filter>
<linearGradient id="paint0_linear_4476_36656" x1="-71.2192" y1="229.51" x2="569.902" y2="501.65" gradientUnits="userSpaceOnUse">
<stop stop-color="#C2E9FB"/>
<stop offset="1" stop-color="#A1C4FD"/>
</linearGradient>
<linearGradient id="paint1_linear_4476_36656" x1="-71.2192" y1="229.51" x2="569.902" y2="501.65" gradientUnits="userSpaceOnUse">
<stop stop-color="#C2E9FB"/>
<stop offset="1" stop-color="#A1C4FD"/>
</linearGradient>
</defs>
</svg>
