<svg width="501" height="501" viewBox="0 0 501 501" fill="none" xmlns="http://www.w3.org/2000/svg">
<g filter="url(#filter0_f_4476_36650)">
<g clip-path="url(#clip0_4476_36650)">
<rect x="4.5" y="4.44189" width="492.341" height="492.341" rx="246.17" fill="#EFF6FF"/>
<g opacity="0.6" filter="url(#filter1_f_4476_36650)">
<path d="M-29.5036 385.943C60.5163 307.735 -93.7787 211.839 24.7466 213.926C154.582 216.212 240.819 93.2578 266.296 205.601C290.803 313.664 212.116 170.683 250.399 329.11C294.179 510.284 51.1406 443.89 1.02708 428.435C-4.85876 426.619 -11.0224 426.642 -16.958 428.288C-41.1159 434.984 -100.453 447.584 -29.5036 385.943Z" fill="url(#paint0_linear_4476_36650)" fill-opacity="0.8"/>
</g>
<g opacity="0.3" filter="url(#filter2_f_4476_36650)">
<path d="M167.754 180.049C183.407 80.5089 113.617 -14.4049 220.748 -12.1131C338.102 -9.60206 370.043 -75.2872 467.663 4.94249C552.222 74.4393 512.057 185.676 415.295 224.398C358.496 247.129 270.886 268.578 261.444 270.863C260.856 271.005 260.392 271.131 259.81 271.291C249.776 274.051 149.061 298.927 167.754 180.049Z" fill="url(#paint1_linear_4476_36650)"/>
</g>
</g>
</g>
<defs>
<filter id="filter0_f_4476_36650" x="0.5" y="0.441895" width="500.341" height="500.341" filterUnits="userSpaceOnUse" color-interpolation-filters="sRGB">
<feFlood flood-opacity="0" result="BackgroundImageFix"/>
<feBlend mode="normal" in="SourceGraphic" in2="BackgroundImageFix" result="shape"/>
<feGaussianBlur stdDeviation="2" result="effect1_foregroundBlur_4476_36650"/>
</filter>
<filter id="filter1_f_4476_36650" x="-219.804" y="1.61995" width="647.52" height="608.02" filterUnits="userSpaceOnUse" color-interpolation-filters="sRGB">
<feFlood flood-opacity="0" result="BackgroundImageFix"/>
<feBlend mode="normal" in="SourceGraphic" in2="BackgroundImageFix" result="shape"/>
<feGaussianBlur stdDeviation="78.2949" result="effect1_foregroundBlur_4476_36650"/>
</filter>
<filter id="filter2_f_4476_36650" x="3.08919" y="-191.648" width="667.27" height="623.538" filterUnits="userSpaceOnUse" color-interpolation-filters="sRGB">
<feFlood flood-opacity="0" result="BackgroundImageFix"/>
<feBlend mode="normal" in="SourceGraphic" in2="BackgroundImageFix" result="shape"/>
<feGaussianBlur stdDeviation="78.2949" result="effect1_foregroundBlur_4476_36650"/>
</filter>
<linearGradient id="paint0_linear_4476_36650" x1="156.478" y1="167.826" x2="228.024" y2="399.605" gradientUnits="userSpaceOnUse">
<stop stop-color="#FA12E3"/>
<stop offset="1" stop-color="#FFD700"/>
</linearGradient>
<linearGradient id="paint1_linear_4476_36650" x1="140.213" y1="60.0764" x2="345.454" y2="-1.12171" gradientUnits="userSpaceOnUse">
<stop stop-color="#12D0FA"/>
<stop offset="0.34375" stop-color="#7612FA"/>
</linearGradient>
<clipPath id="clip0_4476_36650">
<rect x="4.5" y="4.44189" width="492.341" height="492.341" rx="246.17" fill="white"/>
</clipPath>
</defs>
</svg>
