<svg width="24" height="24" viewBox="0 0 24 24" fill="none" xmlns="http://www.w3.org/2000/svg">
<path d="M7.50003 4.75005C7.40154 4.75005 7.30401 4.76945 7.21302 4.80714C7.12202 4.84483 7.03934 4.90008 6.9697 4.96972C6.90005 5.03937 6.84481 5.12205 6.80712 5.21304C6.76943 5.30403 6.75003 5.40156 6.75003 5.50005C6.75003 5.59854 6.76943 5.69607 6.80712 5.78706C6.84481 5.87806 6.90005 5.96074 6.9697 6.03038C7.03934 6.10003 7.12202 6.15527 7.21302 6.19296C7.30401 6.23065 7.40154 6.25005 7.50003 6.25005C7.69894 6.25005 7.88971 6.17103 8.03036 6.03038C8.17101 5.88973 8.25003 5.69896 8.25003 5.50005C8.25003 5.30114 8.17101 5.11037 8.03036 4.96972C7.88971 4.82907 7.69894 4.75005 7.50003 4.75005ZM5.25003 5.50005C5.25015 5.08758 5.36366 4.68309 5.57813 4.33077C5.79261 3.97845 6.09981 3.69186 6.46615 3.50233C6.8325 3.3128 7.24389 3.22762 7.65538 3.2561C8.06686 3.28458 8.4626 3.42562 8.79934 3.66381C9.13609 3.902 9.40088 4.22817 9.56477 4.60668C9.72867 4.98519 9.78537 5.40146 9.72867 5.81002C9.67197 6.21857 9.50406 6.60368 9.24328 6.92325C8.98251 7.24282 8.63891 7.48456 8.25003 7.62205V11.5281C8.33669 11.4641 8.4267 11.4047 8.52003 11.3501C9.46903 10.7781 10.685 10.6111 11.718 10.4701L11.897 10.4451C13.058 10.2831 13.999 10.1231 14.674 9.66805C15.179 9.32605 15.611 8.75805 15.722 7.61205C15.2241 7.42874 14.807 7.07536 14.5444 6.61434C14.2818 6.15333 14.1905 5.61433 14.2867 5.09255C14.3829 4.57077 14.6605 4.09978 15.0703 3.76277C15.4801 3.42577 15.9958 3.24442 16.5263 3.25077C17.0569 3.25712 17.5681 3.45076 17.9697 3.79747C18.3713 4.14419 18.6375 4.62169 18.7212 5.14562C18.8049 5.66955 18.7008 6.20621 18.4272 6.66081C18.1536 7.11541 17.7282 7.45871 17.226 7.63005C17.1 9.20705 16.488 10.2521 15.514 10.9101C14.501 11.5951 13.192 11.7801 12.104 11.9301L12.079 11.9341C10.909 12.0961 9.97203 12.2261 9.29303 12.6341C8.97803 12.8241 8.73103 13.0701 8.55603 13.4161C8.37603 13.7701 8.25003 14.2721 8.25003 15.0001V16.3781C8.75072 16.555 9.17273 16.9032 9.44148 17.3612C9.71023 17.8192 9.8084 18.3575 9.71864 18.8809C9.62888 19.4043 9.35698 19.8791 8.95099 20.2214C8.54499 20.5637 8.03106 20.7514 7.50003 20.7514C6.969 20.7514 6.45506 20.5637 6.04907 20.2214C5.64308 19.8791 5.37117 19.4043 5.28142 18.8809C5.19166 18.3575 5.28983 17.8192 5.55858 17.3612C5.82732 16.9032 6.24934 16.555 6.75003 16.3781V7.62205C6.31124 7.46692 5.93136 7.17953 5.66271 6.79949C5.39407 6.41945 5.24989 5.96546 5.25003 5.50005ZM16.5 4.75005C16.4015 4.75005 16.304 4.76945 16.213 4.80714C16.122 4.84483 16.0393 4.90008 15.9697 4.96972C15.9001 5.03937 15.8448 5.12205 15.8071 5.21304C15.7694 5.30403 15.75 5.40156 15.75 5.50005C15.75 5.59854 15.7694 5.69607 15.8071 5.78706C15.8448 5.87806 15.9001 5.96074 15.9697 6.03038C16.0393 6.10003 16.122 6.15527 16.213 6.19296C16.304 6.23065 16.4015 6.25005 16.5 6.25005C16.6989 6.25005 16.8897 6.17103 17.0304 6.03038C17.171 5.88973 17.25 5.69896 17.25 5.50005C17.25 5.30114 17.171 5.11037 17.0304 4.96972C16.8897 4.82907 16.6989 4.75005 16.5 4.75005ZM7.50003 17.7501C7.30112 17.7501 7.11035 17.8291 6.9697 17.9697C6.82905 18.1104 6.75003 18.3011 6.75003 18.5001C6.75003 18.699 6.82905 18.8897 6.9697 19.0304C7.11035 19.171 7.30112 19.2501 7.50003 19.2501C7.69894 19.2501 7.88971 19.171 8.03036 19.0304C8.17101 18.8897 8.25003 18.699 8.25003 18.5001C8.25003 18.3011 8.17101 18.1104 8.03036 17.9697C7.88971 17.8291 7.69894 17.7501 7.50003 17.7501Z" fill="#4F4F4F"/>
</svg>
