<svg width="24" height="24" viewBox="0 0 24 24" fill="none" xmlns="http://www.w3.org/2000/svg">
<path d="M4 18C3.45 18 2.97933 17.8043 2.588 17.413C2.19667 17.0217 2.00067 16.5507 2 16V5C2 4.45 2.196 3.97933 2.588 3.588C2.98 3.19667 3.45067 3.00067 4 3H20C20.55 3 21.021 3.196 21.413 3.588C21.805 3.98 22.0007 4.45067 22 5V16C22 16.55 21.8043 17.021 21.413 17.413C21.0217 17.805 20.5507 18.0007 20 18H17L17.7 18.7C17.8 18.8 17.875 18.9127 17.925 19.038C17.975 19.1633 18 19.2923 18 19.425V20C18 20.2833 17.904 20.5207 17.712 20.712C17.52 20.9033 17.2827 20.9993 17 21H7C6.71667 21 6.47933 20.904 6.288 20.712C6.09667 20.52 6.00067 20.2827 6 20V19.425C6 19.2917 6.025 19.1627 6.075 19.038C6.125 18.9133 6.2 18.8007 6.3 18.7L7 18H4ZM4 16H20V5H4V16Z" fill="#4F4F4F"/>
</svg>
