<svg width="32" height="32" viewBox="0 0 32 32" fill="none" xmlns="http://www.w3.org/2000/svg">
<g clip-path="url(#clip0_165_1054)">
<path d="M1.94003e-10 3.5C0 1.568 1.568 0 3.5 -1.94003e-10L10.5 -5.8201e-10C12.432 -6.89099e-10 14 1.568 14 3.5L14 10.5C14 11.4283 13.6313 12.3185 12.9749 12.9749C12.3185 13.6313 11.4283 14 10.5 14L8 14L8 22C8 22.5304 8.21071 23.0391 8.58579 23.4142C8.96086 23.7893 9.46957 24 10 24L18 24L18 21.5C18 19.568 19.568 18 21.5 18L28.5 18C30.432 18 32 19.568 32 21.5L32 28.5C32 29.4283 31.6313 30.3185 30.9749 30.9749C30.3185 31.6313 29.4283 32 28.5 32L21.5 32C20.5717 32 19.6815 31.6313 19.0251 30.9749C18.3687 30.3185 18 29.4283 18 28.5L18 27L10 27C8.67392 27 7.40215 26.4732 6.46447 25.5355C5.52678 24.5979 5 23.3261 5 22L5 14L3.5 14C2.57174 14 1.6815 13.6313 1.02513 12.9749C0.368749 12.3185 6.33463e-10 11.4283 5.8201e-10 10.5L1.94003e-10 3.5ZM3.5 3C3.36739 3 3.24021 3.05268 3.14645 3.14645C3.05268 3.24021 3 3.36739 3 3.5L3 10.5C3 10.776 3.224 11 3.5 11L10.5 11C10.6326 11 10.7598 10.9473 10.8536 10.8536C10.9473 10.7598 11 10.6326 11 10.5L11 3.5C11 3.36739 10.9473 3.24021 10.8536 3.14645C10.7598 3.05268 10.6326 3 10.5 3L3.5 3ZM21.5 21C21.3674 21 21.2402 21.0527 21.1464 21.1464C21.0527 21.2402 21 21.3674 21 21.5L21 28.5C21 28.776 21.224 29 21.5 29L28.5 29C28.6326 29 28.7598 28.9473 28.8536 28.8536C28.9473 28.7598 29 28.6326 29 28.5L29 21.5C29 21.3674 28.9473 21.2402 28.8536 21.1464C28.7598 21.0527 28.6326 21 28.5 21L21.5 21Z" fill="#4F4F4F"/>
</g>
<defs>
<clipPath id="clip0_165_1054">
<rect width="32" height="32" fill="white"/>
</clipPath>
</defs>
</svg>
