<svg width="32" height="32" viewBox="0 0 32 32" fill="none" xmlns="http://www.w3.org/2000/svg">
<path d="M20.6666 15.3333C20.6666 15.9461 20.5459 16.553 20.3114 17.1191C20.0769 17.6853 19.7332 18.1998 19.2998 18.6331C18.8665 19.0665 18.352 19.4102 17.7858 19.6447C17.2196 19.8793 16.6128 20 16 20C15.3871 20 14.7803 19.8793 14.2141 19.6447C13.6479 19.4102 13.1335 19.0665 12.7001 18.6331C12.2668 18.1998 11.9231 17.6853 11.6885 17.1191C11.454 16.553 11.3333 15.9461 11.3333 15.3333C11.3333 14.0956 11.825 12.9086 12.7001 12.0335C13.5753 11.1583 14.7623 10.6666 16 10.6666C17.2377 10.6666 18.4246 11.1583 19.2998 12.0335C20.175 12.9086 20.6666 14.0956 20.6666 15.3333Z" stroke="#4F4F4F" stroke-width="1.5"/>
<path d="M28 18.1333C28.4213 18.016 28.8658 17.9568 29.3333 17.956V12.7106C25.524 12.7106 23.048 8.57329 24.976 5.28929L20.3573 2.66663C18.4053 5.99196 13.5973 5.99196 11.6453 2.66663L7.02666 5.28929C8.95466 8.57329 6.47599 12.7106 2.66666 12.7106V17.956C6.47599 17.956 8.95199 22.0933 7.02399 25.3773L11.6427 28C12.0855 27.2378 12.7215 26.6058 13.4865 26.1678C14.2515 25.7299 15.1185 25.5013 16 25.5053" stroke="#4F4F4F" stroke-width="1.5" stroke-linecap="round" stroke-linejoin="round"/>
<path d="M24.6667 20L25.0107 20.9293C25.4613 22.148 25.6867 22.7573 26.1307 23.2013C26.576 23.6467 27.1853 23.872 28.404 24.3227L29.3333 24.6667L28.404 25.0107C27.1853 25.4613 26.576 25.6867 26.132 26.1307C25.6867 26.576 25.4613 27.1853 25.0107 28.404L24.6667 29.3333L24.3227 28.404C23.872 27.1853 23.6467 26.576 23.2027 26.132C22.7573 25.6867 22.148 25.4613 20.9293 25.0107L20 24.6667L20.9293 24.3227C22.148 23.872 22.7573 23.6467 23.2013 23.2027C23.6467 22.7573 23.872 22.148 24.3227 20.9293L24.6667 20Z" stroke="#4F4F4F" stroke-width="1.5" stroke-linejoin="round"/>
</svg>
