<svg width="32" height="32" viewBox="0 0 32 32" fill="none" xmlns="http://www.w3.org/2000/svg">
<path d="M28.6667 6.00004C28.6667 6.70728 28.3857 7.38556 27.8856 7.88566C27.3855 8.38576 26.7073 8.66671 26 8.66671C25.2928 8.66671 24.6145 8.38576 24.1144 7.88566C23.6143 7.38556 23.3333 6.70728 23.3333 6.00004C23.3333 5.2928 23.6143 4.61452 24.1144 4.11442C24.6145 3.61433 25.2928 3.33337 26 3.33337C26.7073 3.33337 27.3855 3.61433 27.8856 4.11442C28.3857 4.61452 28.6667 5.2928 28.6667 6.00004Z" stroke="#4F4F4F" stroke-width="1.5"/>
<path d="M27.2947 12.5414C27.3333 13.7201 27.3333 15.0827 27.3333 16.6667C27.3333 22.3241 27.3333 25.1521 25.576 26.9094C23.8187 28.6667 20.9893 28.6667 15.3333 28.6667C9.67734 28.6667 6.84801 28.6667 5.09068 26.9094C3.33334 25.1521 3.33334 22.3227 3.33334 16.6667C3.33334 11.0107 3.33334 8.18141 5.09068 6.42408C6.84801 4.66675 9.67734 4.66675 15.3333 4.66675C16.9173 4.66675 18.28 4.66675 19.4587 4.70541" stroke="#4F4F4F" stroke-width="1.5" stroke-linecap="round" stroke-linejoin="round"/>
<path d="M7.33334 16.6667H10.6667L13.3333 11.3334L17.3333 22L20 16.6667H23.3333" stroke="#4F4F4F" stroke-width="1.5" stroke-linecap="round" stroke-linejoin="round"/>
</svg>
