<svg width="32" height="32" viewBox="0 0 32 32" fill="none" xmlns="http://www.w3.org/2000/svg">
<path d="M28.3333 7.33329C28.0681 7.33329 27.8138 7.22794 27.6262 7.0404C27.4387 6.85286 27.3333 6.59851 27.3333 6.33329C27.3333 6.06808 27.4387 5.81372 27.6262 5.62619C27.8138 5.43865 28.0681 5.33329 28.3333 5.33329C28.5985 5.33329 28.8529 5.43865 29.0404 5.62619C29.228 5.81372 29.3333 6.06808 29.3333 6.33329C29.3333 6.59851 29.228 6.85286 29.0404 7.0404C28.8529 7.22794 28.5985 7.33329 28.3333 7.33329ZM28.3333 7.33329V12.3333C28.3333 13.264 28.3333 13.7293 28.2187 14.1066C28.0915 14.5264 27.8628 14.9083 27.5528 15.2186C27.2428 15.5289 26.861 15.7578 26.4413 15.8853C26.0627 16 25.5973 16 24.6667 16M3.66666 24.6666C3.93187 24.6666 4.18623 24.772 4.37376 24.9595C4.5613 25.1471 4.66666 25.4014 4.66666 25.6666C4.66666 25.9318 4.5613 26.1862 4.37376 26.3737C4.18623 26.5613 3.93187 26.6666 3.66666 26.6666C3.40144 26.6666 3.14709 26.5613 2.95955 26.3737C2.77201 26.1862 2.66666 25.9318 2.66666 25.6666C2.66666 25.4014 2.77201 25.1471 2.95955 24.9595C3.14709 24.772 3.40144 24.6666 3.66666 24.6666ZM3.66666 24.6666V19.6666C3.66666 18.736 3.66666 18.2706 3.78132 17.8933C3.90845 17.4735 4.13716 17.0916 4.44719 16.7813C4.75721 16.4711 5.13898 16.2421 5.55866 16.1146C5.93732 16 6.40266 16 7.33332 16M7.33332 3.66663C7.33332 3.93184 7.22797 4.1862 7.04043 4.37373C6.85289 4.56127 6.59854 4.66663 6.33332 4.66663C6.06811 4.66663 5.81375 4.56127 5.62622 4.37373C5.43868 4.1862 5.33332 3.93184 5.33332 3.66663C5.33332 3.40141 5.43868 3.14706 5.62622 2.95952C5.81375 2.77198 6.06811 2.66663 6.33332 2.66663C6.59854 2.66663 6.85289 2.77198 7.04043 2.95952C7.22797 3.14706 7.33332 3.40141 7.33332 3.66663ZM7.33332 3.66663H12.3333C13.264 3.66663 13.7293 3.66663 14.1067 3.78129C14.5266 3.90855 14.9086 4.13746 15.2189 4.44773C15.5292 4.758 15.7581 5.14003 15.8853 5.55996C16 5.93729 16 6.40263 16 7.33329M24.6667 28.3333C24.6667 28.0681 24.772 27.8137 24.9595 27.6262C25.1471 27.4386 25.4014 27.3333 25.6667 27.3333C25.9319 27.3333 26.1862 27.4386 26.3738 27.6262C26.5613 27.8137 26.6667 28.0681 26.6667 28.3333C26.6667 28.5985 26.5613 28.8529 26.3738 29.0404C26.1862 29.2279 25.9319 29.3333 25.6667 29.3333C25.4014 29.3333 25.1471 29.2279 24.9595 29.0404C24.772 28.8529 24.6667 28.5985 24.6667 28.3333ZM24.6667 28.3333H19.6667C18.736 28.3333 18.2707 28.3333 17.8933 28.2186C17.4735 28.0915 17.0916 27.8628 16.7814 27.5528C16.4711 27.2427 16.2421 26.861 16.1147 26.4413C16 26.0626 16 25.5973 16 24.6666" stroke="#4F4F4F" stroke-width="1.5" stroke-linejoin="round"/>
<path d="M7.39865 15.9346C7.39865 11.8493 7.39865 9.80661 8.66798 8.53728C9.93732 7.26794 11.98 7.26794 16.0653 7.26794C20.1507 7.26794 22.1933 7.26794 23.4627 8.53728C24.732 9.80661 24.732 11.8493 24.732 15.9346C24.732 20.0199 24.732 22.0626 23.4627 23.3319C22.1933 24.6013 20.1507 24.6013 16.0653 24.6013C11.98 24.6013 9.93732 24.6013 8.66798 23.3319C7.39865 22.0626 7.39865 20.0199 7.39865 15.9346Z" stroke="#4F4F4F" stroke-width="1.5" stroke-linejoin="round"/>
<path d="M16.6653 19.3333L14.7187 13.3053C14.6512 13.1151 14.5254 12.951 14.3593 12.8363C14.1932 12.7216 13.9951 12.6623 13.7933 12.6666C13.5918 12.6625 13.394 12.7221 13.2282 12.8367C13.0623 12.9513 12.9368 13.1153 12.8693 13.3053L10.9227 19.3333M19.9987 12.6666V19.3333M11.6387 17.3333H15.948" stroke="#4F4F4F" stroke-width="1.5" stroke-linecap="round" stroke-linejoin="round"/>
</svg>
