<svg width="24" height="24" viewBox="0 0 24 24" fill="none" xmlns="http://www.w3.org/2000/svg">
<path d="M12 13V2L20 6L12 10" stroke="#4F4F4F" stroke-width="1.5" stroke-linecap="round" stroke-linejoin="round"/>
<path d="M20.5609 10.2221C21.0931 11.8623 21.1429 13.6208 20.7044 15.2884C20.2659 16.956 19.3576 18.4626 18.0875 19.6288C16.8174 20.7951 15.239 21.5719 13.5402 21.867C11.8413 22.162 10.0934 21.9628 8.50448 21.293C6.91556 20.6233 5.55248 19.5112 4.57741 18.089C3.60234 16.6669 3.05633 14.9946 3.00434 13.2711C2.95234 11.5475 3.39656 9.84535 4.28413 8.36702C5.1717 6.88869 6.46526 5.69644 8.01092 4.93213" stroke="#4F4F4F" stroke-width="1.5" stroke-linecap="round" stroke-linejoin="round"/>
<path d="M8.00165 9.99744C7.50056 10.6645 7.17433 11.4463 7.0527 12.2716C6.93106 13.097 7.01788 13.9397 7.30525 14.7229C7.59262 15.5061 8.07141 16.205 8.69798 16.7558C9.32455 17.3066 10.079 17.6919 10.8926 17.8766C11.7062 18.0613 12.553 18.0394 13.356 17.813C14.159 17.5866 14.8925 17.1629 15.4899 16.5805C16.0872 15.9981 16.5293 15.2755 16.7759 14.4785C17.0225 13.6815 17.0657 12.8354 16.9017 12.0174" stroke="#4F4F4F" stroke-width="1.5" stroke-linecap="round" stroke-linejoin="round"/>
</svg>
