<svg width="24" height="24" viewBox="0 0 24 24" fill="none" xmlns="http://www.w3.org/2000/svg">
<path d="M21.25 5.5C21.0511 5.5 20.8603 5.42098 20.7197 5.28033C20.579 5.13968 20.5 4.94891 20.5 4.75C20.5 4.55109 20.579 4.36032 20.7197 4.21967C20.8603 4.07902 21.0511 4 21.25 4C21.4489 4 21.6397 4.07902 21.7803 4.21967C21.921 4.36032 22 4.55109 22 4.75C22 4.94891 21.921 5.13968 21.7803 5.28033C21.6397 5.42098 21.4489 5.5 21.25 5.5ZM21.25 5.5V9.25C21.25 9.948 21.25 10.297 21.164 10.58C21.0687 10.8948 20.8971 11.1813 20.6646 11.414C20.4321 11.6467 20.1458 11.8184 19.831 11.914C19.547 12 19.198 12 18.5 12M2.75 18.5C2.94891 18.5 3.13968 18.579 3.28033 18.7197C3.42098 18.8603 3.5 19.0511 3.5 19.25C3.5 19.4489 3.42098 19.6397 3.28033 19.7803C3.13968 19.921 2.94891 20 2.75 20C2.55109 20 2.36032 19.921 2.21967 19.7803C2.07902 19.6397 2 19.4489 2 19.25C2 19.0511 2.07902 18.8603 2.21967 18.7197C2.36032 18.579 2.55109 18.5 2.75 18.5ZM2.75 18.5V14.75C2.75 14.052 2.75 13.703 2.836 13.42C2.93135 13.1052 3.10288 12.8187 3.3354 12.586C3.56792 12.3533 3.85424 12.1816 4.169 12.086C4.453 12 4.802 12 5.5 12M5.5 2.75C5.5 2.94891 5.42098 3.13968 5.28033 3.28033C5.13968 3.42098 4.94891 3.5 4.75 3.5C4.55109 3.5 4.36032 3.42098 4.21967 3.28033C4.07902 3.13968 4 2.94891 4 2.75C4 2.55109 4.07902 2.36032 4.21967 2.21967C4.36032 2.07902 4.55109 2 4.75 2C4.94891 2 5.13968 2.07902 5.28033 2.21967C5.42098 2.36032 5.5 2.55109 5.5 2.75ZM5.5 2.75H9.25C9.948 2.75 10.297 2.75 10.58 2.836C10.8949 2.93144 11.1815 3.10313 11.4142 3.33583C11.6469 3.56853 11.8186 3.85506 11.914 4.17C12 4.453 12 4.802 12 5.5M18.5 21.25C18.5 21.0511 18.579 20.8603 18.7197 20.7197C18.8603 20.579 19.0511 20.5 19.25 20.5C19.4489 20.5 19.6397 20.579 19.7803 20.7197C19.921 20.8603 20 21.0511 20 21.25C20 21.4489 19.921 21.6397 19.7803 21.7803C19.6397 21.921 19.4489 22 19.25 22C19.0511 22 18.8603 21.921 18.7197 21.7803C18.579 21.6397 18.5 21.4489 18.5 21.25ZM18.5 21.25H14.75C14.052 21.25 13.703 21.25 13.42 21.164C13.1052 21.0687 12.8187 20.8971 12.586 20.6646C12.3533 20.4321 12.1816 20.1458 12.086 19.831C12 19.547 12 19.198 12 18.5" stroke="#4F4F4F" stroke-width="1.5" stroke-linejoin="round"/>
<path d="M5.54883 11.951C5.54883 8.88705 5.54883 7.35505 6.50083 6.40305C7.45283 5.45105 8.98483 5.45105 12.0488 5.45105C15.1128 5.45105 16.6448 5.45105 17.5968 6.40305C18.5488 7.35505 18.5488 8.88705 18.5488 11.951C18.5488 15.015 18.5488 16.5471 17.5968 17.4991C16.6448 18.4511 15.1128 18.451 12.0488 18.451C8.98483 18.451 7.45283 18.4511 6.50083 17.4991C5.54883 16.5471 5.54883 15.015 5.54883 11.951Z" stroke="#4F4F4F" stroke-width="1.5" stroke-linejoin="round"/>
<path d="M12.4989 14.5L11.0389 9.97904C10.9883 9.83638 10.8939 9.71331 10.7694 9.62732C10.6448 9.54132 10.4962 9.49679 10.3449 9.50004C10.1937 9.497 10.0454 9.54164 9.92103 9.62761C9.79664 9.71359 9.70248 9.83655 9.65189 9.97904L8.19189 14.5M14.9989 9.50004V14.5M8.72889 13H11.9609" stroke="#4F4F4F" stroke-width="1.5" stroke-linecap="round" stroke-linejoin="round"/>
</svg>
