<svg width="33" height="32" viewBox="0 0 33 32" fill="none" xmlns="http://www.w3.org/2000/svg">
<path d="M11.3164 29.3333L18.0539 22.8L22.8664 27.4667L30.5664 20" stroke="#4F4F4F" stroke-width="2"/>
<path d="M23.004 20L30.5665 20L30.5665 27.3333M19.8649 17.672C21.2413 15.8816 21.9297 13.6813 21.8112 11.4511C21.6927 9.22095 20.7746 7.10094 19.2156 5.45731C17.6566 3.81367 15.5546 2.74962 13.2727 2.44896C10.9907 2.1483 8.67212 2.62991 6.71739 3.8106C4.76266 4.99128 3.29456 6.7969 2.56667 8.91556C1.83877 11.0342 1.89681 13.3329 2.73074 15.4144C3.56468 17.496 5.12214 19.2298 7.1341 20.3163C9.14607 21.4029 11.4862 21.7739 13.7502 21.3653M11.9449 7.94262L11.9449 5.27596M11.9449 18.6093L11.9449 15.9426" stroke="#4F4F4F" stroke-width="2"/>
<path d="M15.0391 9.94263L15.0391 9.27596C15.0391 8.92234 14.8942 8.5832 14.6363 8.33315C14.3785 8.0831 14.0287 7.94263 13.6641 7.94263L10.2266 7.94263C9.86189 7.94263 9.51215 8.0831 9.25429 8.33315C8.99643 8.5832 8.85156 8.92234 8.85156 9.27596L8.85156 9.87196C8.8513 10.1755 8.95786 10.47 9.15362 10.7069C9.34938 10.9438 9.62262 11.1088 9.92819 11.1746L13.9611 12.044C14.2667 12.1095 14.54 12.2742 14.736 12.5108C14.932 12.7474 15.0389 13.0418 15.0391 13.3453L15.0391 14.608C15.0391 14.9616 14.8942 15.3007 14.6363 15.5508C14.3785 15.8008 14.0287 15.9413 13.6641 15.9413L10.2266 15.9413C9.86189 15.9413 9.51215 15.8008 9.25429 15.5508C8.99643 15.3007 8.85156 14.9616 8.85156 14.608L8.85156 13.9413" stroke="#4F4F4F" stroke-width="2"/>
</svg>
