<svg width="24" height="24" viewBox="0 0 24 24" fill="none" xmlns="http://www.w3.org/2000/svg">
<path d="M3.00488 7.00005L11.4499 1.37005C11.6142 1.26042 11.8073 1.2019 12.0049 1.2019C12.2024 1.2019 12.3956 1.26042 12.5599 1.37005L21.0049 7.00005V21.0001C21.0049 21.2653 20.8995 21.5196 20.712 21.7072C20.5245 21.8947 20.2701 22.0001 20.0049 22.0001H4.00488C3.73967 22.0001 3.48531 21.8947 3.29778 21.7072C3.11024 21.5196 3.00488 21.2653 3.00488 21.0001V7.00005ZM5.00488 8.07005V20.0001H19.0049V8.07005L12.0049 3.40305L5.00488 8.07005ZM8.00488 16.0001H16.0049V18.0001H8.00488V16.0001ZM8.00488 13.0001H16.0049V15.0001H8.00488V13.0001ZM12.0049 11.0001C11.4745 11.0001 10.9657 10.7893 10.5907 10.4143C10.2156 10.0392 10.0049 9.53049 10.0049 9.00005C10.0049 8.46962 10.2156 7.96091 10.5907 7.58584C10.9657 7.21077 11.4745 7.00005 12.0049 7.00005C12.5353 7.00005 13.044 7.21077 13.4191 7.58584C13.7942 7.96091 14.0049 8.46962 14.0049 9.00005C14.0049 9.53049 13.7942 10.0392 13.4191 10.4143C13.044 10.7893 12.5353 11.0001 12.0049 11.0001Z" fill="white"/>
</svg>
