<svg width="32" height="32" viewBox="0 0 32 32" fill="none" xmlns="http://www.w3.org/2000/svg">
<path d="M12.1428 7.26396C12.9401 4.93063 16.1641 4.85996 17.1095 7.05196L17.1895 7.26529L18.2655 10.412C18.5121 11.1336 18.9105 11.794 19.434 12.3485C19.9575 12.9031 20.5939 13.3389 21.3001 13.6266L21.5895 13.7346L24.7361 14.8093C27.0695 15.6066 27.1401 18.8306 24.9495 19.776L24.7361 19.856L21.5895 20.932C20.8676 21.1784 20.207 21.5768 19.6522 22.1003C19.0974 22.6238 18.6613 23.2602 18.3735 23.9666L18.2655 24.2546L17.1908 27.4026C16.3935 29.736 13.1695 29.8066 12.2255 27.616L12.1428 27.4026L11.0681 24.256C10.8217 23.5341 10.4233 22.8734 9.89979 22.3186C9.37629 21.7639 8.73986 21.3278 8.03347 21.04L7.74547 20.932L4.59881 19.8573C2.26414 19.06 2.19347 15.836 4.38547 14.892L4.59881 14.8093L7.74547 13.7346C8.46712 13.488 9.12749 13.0896 9.68204 12.5661C10.2366 12.0426 10.6724 11.4062 10.9601 10.7L11.0681 10.412L12.1428 7.26396ZM14.6668 8.12529L13.5921 11.272C13.2167 12.3724 12.6058 13.3777 11.8022 14.218C10.9985 15.0582 10.0214 15.7132 8.93881 16.1373L8.60547 16.2586L5.45881 17.3333L8.60547 18.408C9.70588 18.7834 10.7112 19.3943 11.5515 20.1979C12.3917 21.0016 13.0467 21.9787 13.4708 23.0613L13.5921 23.3946L14.6668 26.5413L15.7415 23.3946C16.117 22.2942 16.7278 21.2889 17.5314 20.4486C18.3351 19.6084 19.3122 18.9534 20.3948 18.5293L20.7281 18.4093L23.8748 17.3333L20.7281 16.2586C19.6277 15.8831 18.6224 15.2723 17.7821 14.4687C16.9419 13.665 16.2869 12.6879 15.8628 11.6053L15.7428 11.272L14.6668 8.12529ZM25.3335 2.66663C25.5829 2.66663 25.8274 2.7366 26.039 2.86859C26.2507 3.00058 26.4211 3.1893 26.5308 3.41329L26.5948 3.56929L27.0615 4.93729L28.4308 5.40396C28.6808 5.48889 28.8999 5.64611 29.0604 5.85571C29.221 6.06531 29.3157 6.31785 29.3325 6.58132C29.3494 6.84479 29.2876 7.10733 29.1551 7.33568C29.0226 7.56402 28.8253 7.74788 28.5881 7.86396L28.4308 7.92796L27.0628 8.39463L26.5961 9.76396C26.5111 10.0139 26.3537 10.2329 26.144 10.3933C25.9344 10.5537 25.6818 10.6482 25.4183 10.6649C25.1549 10.6816 24.8924 10.6198 24.6641 10.4871C24.4359 10.3545 24.2521 10.1571 24.1361 9.91996L24.0721 9.76396L23.6055 8.39596L22.2361 7.92929C21.9862 7.84437 21.767 7.68714 21.6065 7.47754C21.446 7.26794 21.3513 7.0154 21.3344 6.75193C21.3176 6.48846 21.3793 6.22592 21.5118 5.99758C21.6444 5.76923 21.8417 5.58537 22.0788 5.46929L22.2361 5.40529L23.6041 4.93863L24.0708 3.56929C24.1607 3.30586 24.3308 3.07717 24.5573 2.91529C24.7837 2.75341 25.0551 2.66646 25.3335 2.66663Z" fill="#4F4F4F"/>
</svg>
