<svg width="24" height="24" viewBox="0 0 24 24" fill="none" xmlns="http://www.w3.org/2000/svg">
<path d="M19.713 8.1281L19.467 8.6941C19.4286 8.78627 19.3637 8.865 19.2806 8.92038C19.1975 8.97575 19.0999 9.00531 19 9.00531C18.9001 9.00531 18.8025 8.97575 18.7194 8.92038C18.6363 8.865 18.5714 8.78627 18.533 8.6941L18.287 8.1281C17.8545 7.12683 17.0624 6.32402 16.067 5.8781L15.308 5.5391C15.2159 5.49675 15.1379 5.42887 15.0832 5.34353C15.0286 5.25819 14.9995 5.15896 14.9995 5.0576C14.9995 4.95625 15.0286 4.85702 15.0832 4.77168C15.1379 4.68633 15.2159 4.61846 15.308 4.5761L16.025 4.2571C17.0454 3.79848 17.8511 2.96599 18.276 1.9311L18.529 1.3201C18.5662 1.22546 18.631 1.1442 18.715 1.08693C18.799 1.02966 18.8983 0.999023 19 0.999023C19.1017 0.999023 19.201 1.02966 19.285 1.08693C19.369 1.1442 19.4338 1.22546 19.471 1.3201L19.724 1.9301C20.1485 2.96518 20.9538 3.79804 21.974 4.2571L22.692 4.5771C22.7838 4.61958 22.8615 4.68745 22.916 4.77268C22.9705 4.85791 22.9994 4.95695 22.9994 5.0581C22.9994 5.15926 22.9705 5.2583 22.916 5.34353C22.8615 5.42876 22.7838 5.49662 22.692 5.5391L21.932 5.8771C20.9368 6.32347 20.1451 7.12663 19.713 8.1281ZM15 21.5381L9 7.5381L6.66 13.0001H1V11.0001H5.34L9 2.4611L15 16.4611L17.34 11.0001H23V13.0001H18.66L15 21.5381Z" fill="white"/>
</svg>
