<svg width="32" height="32" viewBox="0 0 32 32" fill="none" xmlns="http://www.w3.org/2000/svg">
<path d="M4.3335 6.66667C4.3335 5.69421 4.7198 4.76158 5.40744 4.07394C6.09507 3.38631 7.0277 3 8.00016 3L21.3335 3C22.306 3 23.2386 3.38631 23.9262 4.07394C24.6139 4.76158 25.0002 5.69421 25.0002 6.66667L25.0002 14C25.0002 14.2652 24.8948 14.5196 24.7073 14.7071C24.5197 14.8946 24.2654 15 24.0002 15C23.7349 15 23.4806 14.8946 23.2931 14.7071C23.1055 14.5196 23.0002 14.2652 23.0002 14L23.0002 6.66667C23.0002 5.74667 22.2535 5 21.3335 5L8.00016 5C7.08016 5 6.3335 5.74667 6.3335 6.66667L6.3335 25.3333C6.3335 26.2533 7.08016 27 8.00016 27L18.0002 27C18.2654 27 18.5197 27.1054 18.7073 27.2929C18.8948 27.4804 19.0002 27.7348 19.0002 28C19.0002 28.2652 18.8948 28.5196 18.7073 28.7071C18.5197 28.8946 18.2654 29 18.0002 29L8.00016 29C7.0277 29 6.09507 28.6137 5.40744 27.9261C4.7198 27.2384 4.3335 26.3058 4.3335 25.3333L4.3335 6.66667Z" fill="#4F4F4F"/>
<path d="M24 17.6666C24.2652 17.6666 24.5196 17.772 24.7071 17.9595C24.8946 18.1471 25 18.4014 25 18.6666L25 19.224C26.3693 19.2746 27.6667 20.284 27.6667 21.7773C27.6667 22.0425 27.5613 22.2969 27.3738 22.4844C27.1862 22.6719 26.9319 22.7773 26.6667 22.7773C26.4014 22.7773 26.1471 22.6719 25.9596 22.4844C25.772 22.2969 25.6667 22.0425 25.6667 21.7773C25.6667 21.588 25.4507 21.2226 24.892 21.2226L22.884 21.2226C22.7246 21.2183 22.569 21.2713 22.4453 21.372C22.3547 21.452 22.3333 21.528 22.3333 21.5773C22.3313 21.6443 22.3394 21.7113 22.3573 21.776C22.375 21.789 22.3937 21.8006 22.4133 21.8106C22.4667 21.8373 22.5467 21.8693 22.6707 21.9066L25.8947 22.8413C26.2627 22.9506 26.7347 23.132 27.1053 23.5253C27.5053 23.952 27.6667 24.4986 27.6667 25.0893C27.6667 26.512 26.392 27.444 25.116 27.444L25 27.444L25 28C25 28.2652 24.8946 28.5195 24.7071 28.7071C24.5196 28.8946 24.2652 29 24 29C23.7348 29 23.4804 28.8946 23.2929 28.7071C23.1054 28.5195 23 28.2652 23 28L23 27.4426C21.6307 27.392 20.3333 26.3826 20.3333 24.8893C20.3333 24.6241 20.4387 24.3697 20.6262 24.1822C20.8138 23.9946 21.0681 23.8893 21.3333 23.8893C21.5985 23.8893 21.8529 23.9946 22.0404 24.1822C22.228 24.3697 22.3333 24.6241 22.3333 24.8893C22.3333 25.0786 22.5493 25.444 23.108 25.444L25.116 25.444C25.2754 25.4482 25.431 25.3953 25.5547 25.2946C25.6453 25.2146 25.6667 25.1386 25.6667 25.0893C25.6687 25.0222 25.6606 24.9553 25.6427 24.8906C25.625 24.8776 25.6063 24.866 25.5867 24.856C25.5333 24.8293 25.4533 24.7973 25.3293 24.76L22.1053 23.8253C21.7373 23.716 21.2653 23.5346 20.8947 23.1413C20.4947 22.7146 20.3333 22.168 20.3333 21.5773C20.3333 20.1546 21.608 19.2226 22.884 19.2226L23 19.2226L23 18.6666C23 18.4014 23.1054 18.1471 23.2929 17.9595C23.4804 17.772 23.7348 17.6666 24 17.6666ZM8.33333 14.6666C8.33333 14.4014 8.43869 14.1471 8.62623 13.9595C8.81376 13.772 9.06812 13.6666 9.33333 13.6666L10 13.6666C10.2652 13.6666 10.5196 13.772 10.7071 13.9595C10.8946 14.1471 11 14.4014 11 14.6666C11 14.9318 10.8946 15.1862 10.7071 15.3737C10.5196 15.5613 10.2652 15.6666 10 15.6666L9.33333 15.6666C9.06812 15.6666 8.81376 15.5613 8.62623 15.3737C8.43869 15.1862 8.33333 14.9318 8.33333 14.6666ZM12.3333 14.6666C12.3333 14.4014 12.4387 14.1471 12.6262 13.9595C12.8138 13.772 13.0681 13.6666 13.3333 13.6666L20 13.6666C20.2652 13.6666 20.5196 13.772 20.7071 13.9595C20.8946 14.1471 21 14.4014 21 14.6666C21 14.9318 20.8946 15.1862 20.7071 15.3737C20.5196 15.5613 20.2652 15.6666 20 15.6666L13.3333 15.6666C13.0681 15.6666 12.8138 15.5613 12.6262 15.3737C12.4387 15.1862 12.3333 14.9318 12.3333 14.6666ZM8.33333 18.6666C8.33333 18.4014 8.43869 18.1471 8.62623 17.9595C8.81376 17.772 9.06812 17.6666 9.33333 17.6666L10 17.6666C10.2652 17.6666 10.5196 17.772 10.7071 17.9595C10.8946 18.1471 11 18.4014 11 18.6666C11 18.9318 10.8946 19.1862 10.7071 19.3737C10.5196 19.5613 10.2652 19.6666 10 19.6666L9.33333 19.6666C9.06812 19.6666 8.81376 19.5613 8.62623 19.3737C8.43869 19.1862 8.33333 18.9318 8.33333 18.6666ZM12.3333 18.6666C12.3333 18.4014 12.4387 18.1471 12.6262 17.9595C12.8138 17.772 13.0681 17.6666 13.3333 17.6666L18 17.6666C18.2652 17.6666 18.5196 17.772 18.7071 17.9595C18.8946 18.1471 19 18.4014 19 18.6666C19 18.9318 18.8946 19.1862 18.7071 19.3737C18.5196 19.5613 18.2652 19.6666 18 19.6666L13.3333 19.6666C13.0681 19.6666 12.8138 19.5613 12.6262 19.3737C12.4387 19.1862 12.3333 18.9318 12.3333 18.6666ZM8.33333 22.6666C8.33333 22.4014 8.43869 22.1471 8.62623 21.9595C8.81376 21.772 9.06812 21.6666 9.33333 21.6666L10 21.6666C10.2652 21.6666 10.5196 21.772 10.7071 21.9595C10.8946 22.1471 11 22.4014 11 22.6666C11 22.9318 10.8946 23.1862 10.7071 23.3737C10.5196 23.5613 10.2652 23.6666 10 23.6666L9.33333 23.6666C9.06812 23.6666 8.81376 23.5613 8.62623 23.3737C8.43869 23.1862 8.33333 22.9318 8.33333 22.6666ZM12.3333 22.6666C12.3333 22.4014 12.4387 22.1471 12.6262 21.9595C12.8138 21.772 13.0681 21.6666 13.3333 21.6666L16 21.6666C16.2652 21.6666 16.5196 21.772 16.7071 21.9595C16.8946 22.1471 17 22.4014 17 22.6666C17 22.9318 16.8946 23.1862 16.7071 23.3737C16.5196 23.5613 16.2652 23.6666 16 23.6666L13.3333 23.6666C13.0681 23.6666 12.8138 23.5613 12.6262 23.3737C12.4387 23.1862 12.3333 22.9318 12.3333 22.6666ZM8 8.66663C8 8.04529 8 7.73463 8.10133 7.48929C8.23695 7.16324 8.49636 6.9043 8.82267 6.76929C9.068 6.66663 9.37867 6.66663 10 6.66663L19.3333 6.66663C19.9547 6.66663 20.2653 6.66663 20.5107 6.76796C20.8367 6.90357 21.0957 7.16299 21.2307 7.48929C21.3333 7.73463 21.3333 8.04529 21.3333 8.66663C21.3333 9.28796 21.3333 9.59863 21.232 9.84396C21.0964 10.17 20.837 10.429 20.5107 10.564C20.2653 10.6666 19.9547 10.6666 19.3333 10.6666L10 10.6666C9.37867 10.6666 9.068 10.6666 8.82267 10.5653C8.49661 10.4297 8.23768 10.1703 8.10267 9.84396C8 9.59863 8 9.28796 8 8.66663Z" fill="#4F4F4F"/>
</svg>
