<svg width="32" height="32" viewBox="0 0 32 32" fill="none" xmlns="http://www.w3.org/2000/svg">
<path d="M8 14L14 14L14 16L8 16L8 14ZM8 6L20 6L20 8L8 8L8 6ZM8 10L20 10L20 12L8 12L8 10ZM8 24L14 24L14 26L8 26L8 24ZM27 25L21 25C20.2044 25 19.4413 25.3161 18.8787 25.8787C18.3161 26.4413 18 27.2044 18 28L18 30L20 30L20 28C20 27.7348 20.1054 27.4804 20.2929 27.2929C20.4804 27.1054 20.7348 27 21 27L27 27C27.2652 27 27.5196 27.1054 27.7071 27.2929C27.8946 27.4804 28 27.7348 28 28L28 30L30 30L30 28C30 27.2044 29.6839 26.4413 29.1213 25.8787C28.5587 25.3161 27.7956 25 27 25ZM24 24C24.7911 24 25.5645 23.7654 26.2223 23.3259C26.8801 22.8864 27.3928 22.2616 27.6955 21.5307C27.9983 20.7998 28.0775 19.9956 27.9231 19.2196C27.7688 18.4437 27.3878 17.731 26.8284 17.1716C26.269 16.6122 25.5563 16.2312 24.7804 16.0769C24.0044 15.9225 23.2002 16.0017 22.4693 16.3045C21.7384 16.6072 21.1136 17.1199 20.6741 17.7777C20.2346 18.4355 20 19.2089 20 20C20 21.0609 20.4214 22.0783 21.1716 22.8284C21.9217 23.5786 22.9391 24 24 24ZM24 18C24.3956 18 24.7822 18.1173 25.1111 18.3371C25.44 18.5568 25.6964 18.8692 25.8478 19.2346C25.9991 19.6001 26.0387 20.0022 25.9616 20.3902C25.8844 20.7781 25.6939 21.1345 25.4142 21.4142C25.1345 21.6939 24.7781 21.8844 24.3902 21.9616C24.0022 22.0387 23.6001 21.9991 23.2346 21.8478C22.8692 21.6964 22.5568 21.44 22.3371 21.1111C22.1173 20.7822 22 20.3956 22 20C22 19.4696 22.2107 18.9609 22.5858 18.5858C22.9609 18.2107 23.4696 18 24 18Z" fill="#4F4F4F"/>
<path d="M14 30L6 30C5.46957 30 4.96086 29.7893 4.58579 29.4142C4.21071 29.0391 4 28.5304 4 28L4 4C4 3.46957 4.21071 2.96086 4.58579 2.58579C4.96086 2.21071 5.46957 2 6 2L22 2C22.5304 2 23.0391 2.21071 23.4142 2.58579C23.7893 2.96086 24 3.46957 24 4L24 14L22 14L22 4L6 4L6 28L14 28L14 30Z" fill="#4F4F4F"/>
</svg>
