<svg width="32" height="32" viewBox="0 0 32 32" fill="none" xmlns="http://www.w3.org/2000/svg">
<path d="M18.1865 5.07996L16.5465 3.43996C16.0532 2.94663 15.3732 2.66663 14.6665 2.66663H13.3332V5.33329H14.6665L16.3065 6.97329L18.1865 5.07996ZM17.2398 7.90663L19.1332 5.99996L21.9598 8.85329L20.0665 10.7333L17.2398 7.90663ZM5.33317 14.6666L6.97317 16.3066L5.07984 18.1866L3.45317 16.56C3.19984 16.3066 2.99984 16 2.8665 15.6933C2.73317 15.3733 2.6665 15.0133 2.6665 14.6666V13.3333H5.33317V14.6666ZM5.99984 19.1333L7.9065 17.24L10.7332 20.0666L8.85317 21.96L5.99984 19.1333ZM12.6265 25.7333L9.79984 22.9066L11.6798 21.0133L14.5065 23.84L12.6265 25.7333ZM21.0132 11.68L23.8398 14.5066L25.7332 12.6266L22.9065 9.79996L21.0132 11.68ZM24.7865 15.4533L26.6665 13.56L28.5465 15.44C28.7998 15.6933 28.9998 16 29.1332 16.3066C29.2665 16.6666 29.3332 16.9866 29.3332 17.3333C29.3332 18.04 29.0532 18.72 28.5465 19.2133L24.7865 15.4533ZM27.5998 20.16L25.7198 18.28L22.4665 21.5333L24.3465 23.4133L27.5998 20.16ZM21.5332 22.4666L23.4132 24.3466L20.1598 27.6L18.2798 25.72L21.5332 22.4666ZM19.2132 28.5466L15.4532 24.7866L13.5598 26.6666L15.4532 28.56C15.9598 29.0533 16.6265 29.3333 17.3332 29.3333C18.0398 29.3333 18.7198 29.0533 19.2132 28.5466ZM5.33317 12H2.6665V7.99996H5.33317V12ZM2.6665 6.66663H5.33317V5.33329H6.6665V2.66663H5.33317C4.6265 2.66663 3.9465 2.94663 3.45317 3.45329C2.9465 3.94663 2.6665 4.62663 2.6665 5.33329V6.66663ZM7.99984 5.33329V2.66663H11.9998V5.33329H7.99984ZM8.6665 10.6666C9.77317 10.6666 10.6665 9.77329 10.6665 8.66663C10.6665 7.55996 9.77317 6.66663 8.6665 6.66663C7.55984 6.66663 6.6665 7.55996 6.6665 8.66663C6.6665 9.77329 7.55984 10.6666 8.6665 10.6666Z" fill="#4F4F4F"/>
</svg>
