<svg width="21" height="18" viewBox="0 0 21 18" fill="none" xmlns="http://www.w3.org/2000/svg">
<path d="M0.70752 13.4997C0.70752 14.0964 0.944566 14.6687 1.36651 15.0906C1.78846 15.5125 2.36074 15.7496 2.95746 15.7496H4.08243C4.67915 15.7496 5.25144 15.5125 5.67338 15.0906C6.09533 14.6687 6.33237 14.0964 6.33237 13.4997V2.24994C6.33237 1.65322 6.09533 1.08094 5.67338 0.658993C5.25144 0.237047 4.67915 0 4.08243 0H2.95746C2.36074 0 1.78846 0.237047 1.36651 0.658993C0.944566 1.08094 0.70752 1.65322 0.70752 2.24994V13.4997ZM2.95746 14.6246C2.6591 14.6246 2.37296 14.5061 2.16199 14.2951C1.95101 14.0842 1.83249 13.798 1.83249 13.4997V2.24994C1.83249 1.95158 1.95101 1.66544 2.16199 1.45447C2.37296 1.24349 2.6591 1.12497 2.95746 1.12497H4.08243C4.38079 1.12497 4.66693 1.24349 4.87791 1.45447C5.08888 1.66544 5.2074 1.95158 5.2074 2.24994V13.4997C5.2074 13.798 5.08888 14.0842 4.87791 14.2951C4.66693 14.5061 4.38079 14.6246 4.08243 14.6246H2.95746ZM7.45735 13.4997C7.45735 14.0964 7.69439 14.6687 8.11634 15.0906C8.53828 15.5125 9.11057 15.7496 9.70729 15.7496H9.95478L10.1933 14.799C10.2079 14.7405 10.2241 14.6823 10.2416 14.6246H9.70729C9.40893 14.6246 9.12279 14.5061 8.91181 14.2951C8.70084 14.0842 8.58232 13.798 8.58232 13.4997V2.24994C8.58232 1.95158 8.70084 1.66544 8.91181 1.45447C9.12279 1.24349 9.40893 1.12497 9.70729 1.12497H10.8323C11.1306 1.12497 11.4168 1.24349 11.6277 1.45447C11.8387 1.66544 11.9572 1.95158 11.9572 2.24994V12.3106L13.0822 11.1856V2.24994C13.0822 1.65322 12.8452 1.08094 12.4232 0.658993C12.0013 0.237047 11.429 0 10.8323 0H9.70729C9.11057 0 8.53828 0.237047 8.11634 0.658993C7.69439 1.08094 7.45735 1.65322 7.45735 2.24994V13.4997ZM19.832 6.90057V2.24994C19.832 1.65322 19.595 1.08094 19.173 0.658993C18.7511 0.237047 18.1788 0 17.5821 0H16.4571C15.8604 0 15.2881 0.237047 14.8662 0.658993C14.4442 1.08094 14.2072 1.65322 14.2072 2.24994V10.0606L15.3321 8.93564V2.24994C15.3321 1.95158 15.4507 1.66544 15.6616 1.45447C15.8726 1.24349 16.1588 1.12497 16.4571 1.12497H17.5821C17.8804 1.12497 18.1666 1.24349 18.3776 1.45447C18.5885 1.66544 18.7071 1.95158 18.7071 2.24994V6.7532C19.0877 6.73541 19.4686 6.78604 19.832 6.90057ZM11.9347 13.9238L17.3683 8.49016C17.7631 8.09572 18.2983 7.87425 18.8563 7.87446C19.4144 7.87467 19.9495 8.09655 20.3439 8.49128C20.7383 8.88601 20.9598 9.42126 20.9596 9.97929C20.9594 10.5373 20.7375 11.0724 20.3428 11.4668L14.9092 16.8993C14.5926 17.216 14.196 17.4407 13.7617 17.5495L12.0765 17.9703C11.9089 18.012 11.7334 18.0098 11.567 17.9636C11.4006 17.9175 11.2489 17.8291 11.1267 17.7071C11.0046 17.585 10.916 17.4334 10.8698 17.2671C10.8235 17.1007 10.821 16.9252 10.8626 16.7576L11.2845 15.0724C11.3924 14.6377 11.6173 14.2408 11.9347 13.9249V13.9238Z" fill="#4F4F4F"/>
</svg>
