<svg width="48" height="48" viewBox="0 0 48 48" fill="none" xmlns="http://www.w3.org/2000/svg">
<rect width="48" height="48" rx="24" fill="url(#paint0_linear_6112_20655)"/>
<path d="M24 25.5V14.5L32 18.5L24 22.5" stroke="white" stroke-width="1.5" stroke-linecap="round" stroke-linejoin="round"/>
<path d="M32.5607 22.7221C33.0928 24.3623 33.1426 26.1208 32.7041 27.7884C32.2656 29.456 31.3573 30.9626 30.0872 32.1288C28.8172 33.2951 27.2388 34.0719 25.5399 34.367C23.841 34.662 22.0932 34.4628 20.5042 33.793C18.9153 33.1233 17.5522 32.0112 16.5772 30.589C15.6021 29.1669 15.0561 27.4946 15.0041 25.7711C14.9521 24.0475 15.3963 22.3453 16.2839 20.867C17.1715 19.3887 18.465 18.1964 20.0107 17.4321" stroke="white" stroke-width="1.5" stroke-linecap="round" stroke-linejoin="round"/>
<path d="M20.0014 22.4976C19.5003 23.1646 19.1741 23.9464 19.0525 24.7717C18.9308 25.5971 19.0176 26.4398 19.305 27.223C19.5924 28.0062 20.0712 28.7051 20.6977 29.2559C21.3243 29.8068 22.0788 30.1921 22.8923 30.3767C23.7059 30.5614 24.5528 30.5395 25.3558 30.3131C26.1587 30.0868 26.8923 29.6631 27.4896 29.0806C28.0869 28.4982 28.529 27.7756 28.7756 26.9786C29.0222 26.1816 29.0655 25.3355 28.9014 24.5176" stroke="white" stroke-width="1.5" stroke-linecap="round" stroke-linejoin="round"/>
<defs>
<linearGradient id="paint0_linear_6112_20655" x1="3.21539" y1="36" x2="44.7846" y2="12" gradientUnits="userSpaceOnUse">
<stop stop-color="#0538FF"/>
<stop offset="1" stop-color="#6B57F5"/>
</linearGradient>
</defs>
</svg>
