<svg width="25" height="24" viewBox="0 0 25 24" fill="none" xmlns="http://www.w3.org/2000/svg">
<path d="M5.75 2C4.88805 2 4.0614 2.34241 3.4519 2.9519C2.84241 3.5614 2.5 4.38805 2.5 5.25V16.75C2.5 17.612 2.84241 18.4386 3.4519 19.0481C4.0614 19.6576 4.88805 20 5.75 20H9.575C9.52645 19.7529 9.50134 19.5018 9.5 19.25V18.5H5.75C5.28587 18.5 4.84075 18.3156 4.51256 17.9874C4.18437 17.6592 4 17.2141 4 16.75V5.25C4 4.284 4.784 3.5 5.75 3.5H16.25C17.216 3.5 18 4.284 18 5.25V9H19.5V5.25C19.5 4.38805 19.1576 3.5614 18.5481 2.9519C17.9386 2.34241 17.112 2 16.25 2H5.75ZM13.25 9H7.25C7.05109 9 6.86032 9.07902 6.71967 9.21967C6.57902 9.36032 6.5 9.55109 6.5 9.75C6.5 9.94891 6.57902 10.1397 6.71967 10.2803C6.86032 10.421 7.05109 10.5 7.25 10.5H10.25C10.5988 10.0337 11.0516 9.65525 11.5724 9.39484C12.0932 9.13442 12.6677 8.99922 13.25 9ZM7.25 6C7.05109 6 6.86032 6.07902 6.71967 6.21967C6.57902 6.36032 6.5 6.55109 6.5 6.75C6.5 6.94891 6.57902 7.13968 6.71967 7.28033C6.86032 7.42098 7.05109 7.5 7.25 7.5H14.75C14.9489 7.5 15.1397 7.42098 15.2803 7.28033C15.421 7.13968 15.5 6.94891 15.5 6.75C15.5 6.55109 15.421 6.36032 15.2803 6.21967C15.1397 6.07902 14.9489 6 14.75 6H7.25ZM10.5 12.75C10.5 12.0207 10.7897 11.3212 11.3055 10.8055C11.8212 10.2897 12.5207 10 13.25 10H19.75C20.4793 10 21.1788 10.2897 21.6945 10.8055C22.2103 11.3212 22.5 12.0207 22.5 12.75V19.25C22.5 19.9793 22.2103 20.6788 21.6945 21.1945C21.1788 21.7103 20.4793 22 19.75 22H13.25C12.5207 22 11.8212 21.7103 11.3055 21.1945C10.7897 20.6788 10.5 19.9793 10.5 19.25V12.75ZM12 15V19.25C12 19.94 12.56 20.5 13.25 20.5H19.75C20.44 20.5 21 19.94 21 19.25V15H12ZM21 13.5V12.75C21 12.06 20.44 11.5 19.75 11.5H13.25C12.56 11.5 12 12.06 12 12.75V13.5H21Z" fill="white"/>
</svg>
