<svg width="100" height="100" viewBox="0 0 100 100" fill="none" xmlns="http://www.w3.org/2000/svg">
<path d="M49.8657 6.17671C50.0452 6.17688 50.2248 6.17705 50.4097 6.17723C59.45 6.20552 68.2411 8.90905 75.5859 14.2578C75.6939 14.3357 75.8019 14.4136 75.9132 14.4939C77.6099 15.7277 79.1522 17.1028 80.664 18.5546C80.7645 18.6498 80.865 18.745 80.9685 18.843C82.5283 20.3241 83.8714 21.9098 85.1562 23.6328C85.2808 23.7966 85.2808 23.7966 85.4079 23.9637C88.8363 28.4796 91.2779 33.8367 92.6269 39.331C92.6726 39.515 92.7184 39.6991 92.7655 39.8887C93.5738 43.3514 93.8574 46.7818 93.8354 50.3295C93.8348 50.6218 93.8348 50.6218 93.8342 50.9199C93.8043 59.9046 93.8043 59.9046 92.1213 61.8211C91.2201 62.6133 90.4815 62.9372 89.2944 62.9028C88.1416 62.7563 87.4368 62.2234 86.7187 61.3281C85.9728 59.717 86.5601 57.922 86.8936 56.2546C87.3029 54.1749 87.3592 52.0994 87.4145 49.9877C87.423 49.6852 87.4315 49.3827 87.4401 49.0802C87.4608 48.3452 87.4806 47.6101 87.5 46.875C87.2912 46.8769 87.2912 46.8769 87.0782 46.8789C85.7568 46.8907 84.4354 46.8996 83.114 46.9053C82.4348 46.9083 81.7558 46.9125 81.0767 46.9192C80.2932 46.9268 79.5097 46.9296 78.7261 46.9322C78.4862 46.9352 78.2462 46.9382 77.999 46.9413C74.5905 46.942 71.6278 45.7745 69.1565 43.4263C66.5939 40.8506 65.7813 37.8657 65.4296 34.375C65.2148 32.4555 64.6674 30.8464 63.1103 29.602C61.7221 28.5954 60.1877 28.4072 58.5327 28.2348C56.9659 28.049 55.5321 27.8505 54.1015 27.1484C53.9295 27.0708 53.7576 26.9933 53.5804 26.9134C50.6935 25.4964 48.5434 23.041 47.4731 20.0195C47.3331 19.5982 47.1979 19.1752 47.0703 18.75C47.0348 18.6342 46.9993 18.5184 46.9627 18.3992C46.8485 17.839 46.8532 17.3105 46.8559 16.7388C46.8565 16.5034 46.8571 16.268 46.8578 16.0255C46.8594 15.7805 46.8611 15.5355 46.8627 15.2832C46.8636 15.0352 46.8645 14.7872 46.8654 14.5317C46.8677 13.9195 46.8709 13.3074 46.8749 12.6953C46.7558 12.7198 46.6366 12.7443 46.5138 12.7696C45.6772 12.9396 44.8413 13.1027 43.9987 13.24C39.9773 13.913 35.802 15.1522 32.2639 17.2271C31.6406 17.5781 31.6406 17.5781 31.2499 17.5781C31.2684 18.5958 31.2891 19.6134 31.3119 20.631C31.3194 20.9763 31.3262 21.3216 31.3323 21.6669C31.3072 25.9103 31.3072 25.9103 33.377 29.4631C34.9374 30.7102 36.5549 30.9485 38.4887 31.1279C42.9631 31.6103 46.9034 33.3446 49.8258 36.8448C50.9279 38.2407 51.7067 39.7508 52.3437 41.4062C52.471 41.7321 52.471 41.7321 52.6008 42.0646C53.8739 45.9725 53.3681 50.3373 51.5991 53.9794C50.992 55.1685 50.2894 56.2156 49.414 57.2265C49.2392 57.4588 49.2392 57.4588 49.0608 57.6957C47.4914 59.556 45.2536 60.9275 42.9687 61.7187C42.6774 61.8209 42.6774 61.8209 42.3802 61.9251C40.1336 62.6209 37.9318 62.6175 35.5956 62.622C31.1166 62.4782 31.1166 62.4782 27.1484 64.2578C25.3115 66.1334 25.1755 68.399 25.1335 70.8915C25.1294 71.0933 25.1253 71.2952 25.1212 71.5031C25.1085 72.1438 25.0969 72.7845 25.0854 73.4252C25.077 73.8613 25.0684 74.2973 25.0598 74.7333C25.039 75.7987 25.0191 76.8642 24.9999 77.9296C25.18 78.0156 25.18 78.0156 25.3637 78.1033C25.8767 78.3699 26.26 78.7102 26.6967 79.0893C28.51 80.5947 30.5218 81.831 32.5805 82.9711C33.4252 83.4595 33.9783 83.8401 34.3749 84.7656C34.6637 85.959 34.5854 86.811 33.9843 87.8906C33.4072 88.5892 32.9142 89.0319 32.0312 89.2578C30.8151 89.3413 30.0573 89.1718 28.9916 88.5986C28.8575 88.5287 28.7233 88.4588 28.5851 88.3867C25.1647 86.5622 22.1274 84.1173 19.3359 81.4453C19.2387 81.3534 19.1416 81.2616 19.0415 81.167C17.4778 79.6832 16.1313 78.0938 14.8437 76.3671C14.7191 76.2033 14.7191 76.2033 14.592 76.0362C10.6 70.778 8.17788 64.6237 6.83588 58.2031C6.80057 58.0429 6.76526 57.8828 6.72888 57.7177C5.66999 52.7591 5.75358 46.7417 6.83588 41.7968C6.89253 41.5187 6.89253 41.5187 6.95032 41.2349C8.46544 33.8698 11.6866 27.1746 16.6015 21.4843C16.7538 21.3066 16.9061 21.1288 17.0631 20.9457C17.4861 20.4647 17.9186 19.9961 18.3593 19.5312C18.4508 19.4344 18.5423 19.3376 18.6366 19.2379C20.1878 17.6079 21.8283 16.1851 23.6328 14.8437C23.7417 14.7609 23.8506 14.6782 23.9628 14.5929C25.8299 13.1753 27.8033 12.0161 29.8828 10.9375C30.029 10.8611 30.1753 10.7848 30.3259 10.7062C36.4113 7.57075 43.0522 6.16076 49.8657 6.17671ZM53.1249 12.6953C53.0653 15.3643 53.1442 17.5429 54.6264 19.8486C56.1381 21.4011 57.7509 21.8854 59.851 22.0336C63.5668 22.3558 66.5629 23.7553 69.0917 26.5495C70.8813 28.791 71.6107 31.3063 71.8627 34.1064C71.9836 35.4281 72.1317 36.5501 72.8515 37.6953C72.9195 37.8159 72.9875 37.9365 73.0575 38.0607C73.8925 39.3996 75.2518 40.2284 76.7578 40.625C77.4799 40.6775 78.1993 40.6704 78.923 40.6631C79.1294 40.6625 79.3358 40.662 79.5485 40.6614C80.2052 40.6592 80.8618 40.6543 81.5185 40.6494C81.9648 40.6474 82.4111 40.6456 82.8575 40.644C83.9492 40.6397 85.041 40.6332 86.1328 40.625C85.797 39.1779 85.4123 37.7895 84.851 36.4135C84.7838 36.2479 84.7165 36.0823 84.6472 35.9117C82.794 31.4554 80.1837 27.6312 76.9409 24.0722C76.803 23.9201 76.803 23.9201 76.6624 23.765C70.6706 17.2917 61.8103 13.4647 53.1249 12.6953ZM22.8515 24.2187C16.2558 31.1445 12.596 40.4344 12.622 49.9755C12.6221 50.1235 12.6222 50.2715 12.6223 50.4239C12.6423 56.5097 14.0642 65.4188 18.4838 70.0625C18.5716 70.145 18.6595 70.2275 18.7499 70.3124C18.755 70.0599 18.76 69.8074 18.7652 69.5472C18.879 65.6104 19.853 62.4575 22.6379 59.5756C24.4483 57.8876 27.2223 56.444 29.7435 56.4114C29.9073 56.4087 30.0711 56.4061 30.2398 56.4034C30.5038 56.4003 30.5038 56.4003 30.7731 56.3972C31.1506 56.3908 31.5282 56.3843 31.9057 56.3777C32.497 56.3685 33.0883 56.3599 33.6797 56.3521C37.6853 56.2972 41.1449 56.2407 44.1726 53.3004C46.1795 51.1733 46.8054 48.8575 46.7399 45.9999C46.6146 43.5066 45.3249 41.4544 43.5432 39.7644C41.7042 38.2547 39.7755 37.6571 37.4389 37.5C33.6627 37.1798 30.5346 36.0798 27.9296 33.2031C26.3276 31.2245 25.2251 28.7666 25.1335 26.1993C25.1253 25.9815 25.1171 25.7637 25.1087 25.5393C25.101 25.313 25.0933 25.0867 25.0854 24.8535C25.077 24.6241 25.0685 24.3947 25.0598 24.1584C25.0391 23.5926 25.0192 23.0268 24.9999 22.4609C24.2844 22.4609 23.3549 23.7185 22.8515 24.2187Z" fill="url(#paint0_linear_99_94)"/>
<path d="M59.6802 56.1488C59.8232 56.1475 59.9663 56.1461 60.1137 56.1447C60.5837 56.1413 61.0535 56.1435 61.5234 56.1462C61.8518 56.1456 62.1801 56.1449 62.5084 56.1439C63.1953 56.1427 63.8822 56.1444 64.5691 56.1481C65.4479 56.1525 66.3264 56.1499 67.2052 56.1453C67.8828 56.1424 68.5604 56.1433 69.238 56.1454C69.5619 56.1459 69.8859 56.1453 70.2098 56.1434C70.6632 56.1414 71.1164 56.1445 71.5698 56.1488C71.8274 56.1494 72.0849 56.1501 72.3503 56.1507C73.3993 56.3001 73.9926 56.772 74.6778 57.5573C75.0931 58.3896 75.0999 59.0253 75.0763 59.941C75.0752 60.1041 75.0741 60.2672 75.0729 60.4352C75.0686 60.9526 75.0588 61.4698 75.0488 61.9872C75.0449 62.3394 75.0413 62.6917 75.0381 63.0439C75.0296 63.9043 75.0161 64.7646 75 65.6249C75.1295 65.6232 75.2591 65.6214 75.3925 65.6197C76.7422 65.6024 78.0919 65.5906 79.4417 65.582C79.9453 65.5781 80.4488 65.5727 80.9524 65.566C81.6767 65.5565 82.4009 65.5521 83.1253 65.5486C83.35 65.5446 83.5746 65.5406 83.8061 65.5364C84.9982 65.5361 85.8118 65.5448 86.7188 66.4062C87.5912 67.4398 87.6086 68.2488 87.5887 69.5398C87.5888 69.7343 87.5889 69.9288 87.589 70.1292C87.5885 70.7696 87.5824 71.4099 87.5763 72.0504C87.5748 72.4954 87.5737 72.9403 87.5729 73.3853C87.57 74.5548 87.5623 75.7241 87.5536 76.8935C87.5456 78.0875 87.5421 79.2815 87.5381 80.4755C87.5298 82.817 87.5164 85.1585 87.5 87.4999C87.624 87.4958 87.7481 87.4917 87.8758 87.4875C88.4423 87.4712 89.0086 87.4611 89.5752 87.4511C89.7703 87.4445 89.9654 87.438 90.1665 87.4312C91.3696 87.4153 92.054 87.4778 92.9688 88.2812C93.6774 89.0271 93.8105 89.6255 93.8477 90.6249C93.8105 91.6244 93.6774 92.2227 92.9688 92.9687C91.9079 93.8812 91.0104 93.8608 89.6767 93.8491C89.3558 93.8509 89.3558 93.8509 89.0284 93.8528C88.3114 93.8559 87.5945 93.8535 86.8774 93.851C86.3635 93.8521 85.8495 93.8534 85.3355 93.8551C84.0843 93.8586 82.8332 93.8579 81.582 93.8556C80.565 93.8538 79.5481 93.8536 78.5312 93.8545C78.3864 93.8546 78.2416 93.8547 78.0925 93.8548C77.7983 93.8551 77.5042 93.8553 77.2101 93.8556C74.4527 93.8578 71.6952 93.8552 68.9378 93.851C66.5721 93.8476 64.2065 93.8482 61.8408 93.8518C59.0932 93.8559 56.3456 93.8576 53.5979 93.8552C53.3049 93.8549 53.0119 93.8547 52.7188 93.8545C52.5026 93.8543 52.5026 93.8543 52.2819 93.8541C51.2663 93.8534 50.2507 93.8546 49.2351 93.8564C47.8679 93.8588 46.5008 93.8571 45.1337 93.8526C44.6315 93.8515 44.1293 93.8518 43.6272 93.8536C42.9425 93.8557 42.258 93.853 41.5733 93.8491C41.3739 93.8509 41.1744 93.8526 40.9689 93.8544C39.841 93.8419 39.1705 93.7335 38.2812 92.9687C37.5726 92.2227 37.4395 91.6244 37.4023 90.6249C37.4395 89.6255 37.5726 89.0271 38.2812 88.2812C39.3487 87.3437 40.2958 87.4048 41.6748 87.4511C41.8745 87.4546 42.0741 87.4581 42.2798 87.4618C42.7701 87.4709 43.2599 87.4837 43.75 87.4999C43.7483 87.3312 43.7465 87.1626 43.7447 86.9888C43.7291 85.3968 43.7172 83.8049 43.7095 82.2129C43.7054 81.3944 43.6999 80.5761 43.6911 79.7577C43.6826 78.9675 43.6779 78.1773 43.6759 77.387C43.6744 77.086 43.6716 76.7849 43.6674 76.4839C43.6617 76.0612 43.6609 75.6388 43.6613 75.2161C43.6596 74.9758 43.6578 74.7356 43.6561 74.488C43.7995 73.4803 44.2902 72.8851 45.0147 72.1971C46.0448 71.7151 47.0016 71.7785 48.1247 71.7986C48.3571 71.7997 48.5896 71.8008 48.8291 71.802C49.5694 71.8063 50.3095 71.8161 51.0498 71.8261C51.5526 71.83 52.0554 71.8336 52.5581 71.8368C53.7888 71.8454 55.0194 71.8584 56.25 71.8749C56.2483 71.7062 56.2465 71.5376 56.2447 71.3638C56.2291 69.7718 56.2172 68.1799 56.2095 66.5879C56.2055 65.7694 56.1999 64.9511 56.1911 64.1327C56.1826 63.3425 56.1779 62.5523 56.1759 61.762C56.1744 61.461 56.1716 61.1599 56.1674 60.8589C56.1617 60.4362 56.1609 60.0138 56.1613 59.5911C56.1596 59.3508 56.1578 59.1106 56.1561 58.863C56.3061 57.8088 56.7725 57.2494 57.5737 56.5736C58.3284 56.1855 58.8336 56.1509 59.6802 56.1488ZM62.5 62.4999C62.5 70.7499 62.5 78.9999 62.5 87.4999C64.5625 87.4999 66.625 87.4999 68.75 87.4999C68.75 79.2499 68.75 70.9999 68.75 62.4999C66.6875 62.4999 64.625 62.4999 62.5 62.4999ZM75 71.8749C75 77.0312 75 82.1874 75 87.4999C77.0625 87.4999 79.125 87.4999 81.25 87.4999C81.25 82.3437 81.25 77.1874 81.25 71.8749C79.1875 71.8749 77.125 71.8749 75 71.8749ZM50 78.1249C50 81.2187 50 84.3124 50 87.4999C52.0625 87.4999 54.125 87.4999 56.25 87.4999C56.25 84.4062 56.25 81.3124 56.25 78.1249C54.1875 78.1249 52.125 78.1249 50 78.1249Z" fill="url(#paint1_linear_99_94)"/>
<defs>
<linearGradient id="paint0_linear_99_94" x1="11.8633" y1="68.5025" x2="85.7749" y2="23.3866" gradientUnits="userSpaceOnUse">
<stop stop-color="#0538FF"/>
<stop offset="1" stop-color="#6B57F5"/>
</linearGradient>
<linearGradient id="paint1_linear_99_94" x1="41.1835" y1="84.4289" x2="78.4993" y2="52.1848" gradientUnits="userSpaceOnUse">
<stop stop-color="#0538FF"/>
<stop offset="1" stop-color="#6B57F5"/>
</linearGradient>
</defs>
</svg>
