<svg width="120" height="120" viewBox="0 0 120 120" fill="none" xmlns="http://www.w3.org/2000/svg">
<g clip-path="url(#clip0_87_1080)">
<path d="M52.7343 7.73436C53.1462 7.84584 53.1462 7.84584 53.5665 7.95958C57.454 9.1172 60.9595 11.1416 63.9843 13.8281C64.297 14.1055 64.297 14.1055 64.616 14.3884C69.1276 18.6596 72.3892 24.9838 72.6939 31.2446C72.7803 38.2547 72.7803 38.2547 71.953 41.0156C71.8787 41.2902 71.8044 41.5649 71.7278 41.8478C70.7015 45.2942 68.9921 48.6639 66.5624 51.3281C66.3721 51.5432 66.1817 51.7583 65.9856 51.98C64.6908 53.4341 64.6908 53.4341 64.2186 53.9062C64.3481 53.9344 64.4776 53.9625 64.611 53.9915C70.2016 55.2224 75.2036 57.0487 79.6874 60.7031C79.6934 60.5076 79.6995 60.3122 79.7057 60.1108C79.8346 57.5528 80.4702 55.5513 82.2655 53.6719C83.8448 52.3652 85.2972 51.5105 87.3896 51.4944C87.6548 51.4914 87.92 51.4884 88.1933 51.4853C88.6185 51.4845 88.6185 51.4845 89.0523 51.4837C89.3471 51.4822 89.6418 51.4806 89.9455 51.479C90.5682 51.4767 91.1909 51.4753 91.8136 51.4756C92.6064 51.4757 93.3989 51.4693 94.1917 51.4612C94.9541 51.4547 95.7166 51.455 96.4791 51.4545C96.7611 51.4511 97.0432 51.4477 97.3338 51.4442C99.8193 51.4576 101.779 52.1725 103.594 53.9062C105.069 55.6889 105.783 57.1984 105.749 59.5367C105.748 59.7991 105.748 59.7991 105.747 60.0667C105.744 60.6207 105.738 61.1745 105.732 61.7285C105.73 62.106 105.728 62.4835 105.726 62.861C105.721 63.7824 105.713 64.7037 105.703 65.625C105.872 65.6188 106.04 65.6127 106.214 65.6064C110.424 65.4733 113.721 65.4091 116.953 68.4375C118.535 69.9345 119.912 72.2071 120.032 74.4181C120.033 74.6414 120.035 74.8648 120.036 75.0949C120.038 75.3521 120.04 75.6092 120.042 75.8742C120.044 76.2959 120.044 76.2959 120.045 76.7262C120.047 77.0231 120.049 77.3201 120.051 77.6261C120.057 78.6108 120.061 79.5955 120.064 80.5801C120.065 80.9202 120.066 81.2602 120.068 81.6003C120.073 83.0164 120.077 84.4324 120.08 85.8485C120.084 87.8714 120.091 89.8942 120.105 91.917C120.114 93.3426 120.118 94.7682 120.12 96.1939C120.121 97.0435 120.123 97.893 120.131 98.7426C120.139 99.6934 120.138 100.644 120.137 101.595C120.141 101.871 120.144 102.148 120.148 102.434C120.125 105.601 118.967 108.042 116.817 110.314C114.901 112.123 112.561 113.005 109.972 113C109.786 113.001 109.601 113.001 109.409 113.002C108.783 113.003 108.156 113.003 107.529 113.003C107.077 113.004 106.625 113.005 106.173 113.006C104.927 113.008 103.681 113.009 102.435 113.01C101.093 113.011 99.7505 113.013 98.4082 113.015C95.1653 113.02 91.9225 113.022 88.6797 113.024C87.1536 113.025 85.6275 113.026 84.1014 113.027C79.0303 113.031 73.9593 113.035 68.8882 113.037C68.5603 113.037 68.2323 113.037 67.9044 113.037C67.7418 113.037 67.5792 113.037 67.4116 113.037C66.5876 113.037 65.7637 113.038 64.9397 113.038C64.6945 113.038 64.6945 113.038 64.4442 113.038C59.1403 113.04 53.8363 113.045 48.5324 113.053C42.9259 113.061 37.3195 113.066 31.713 113.066C28.6563 113.067 25.5997 113.069 22.543 113.075C19.9408 113.08 17.3386 113.082 14.7363 113.08C13.408 113.079 12.0797 113.079 10.7514 113.084C9.53613 113.088 8.32094 113.088 7.10567 113.084C6.66532 113.083 6.22496 113.084 5.78461 113.087C5.18721 113.091 4.59011 113.088 3.99272 113.085C3.8207 113.087 3.64869 113.09 3.47146 113.092C2.28626 113.076 1.61747 112.773 0.703021 112.031C0.0863366 111.223 -0.0882179 110.646 -0.0909661 109.638C-0.0932875 109.396 -0.0956089 109.155 -0.0980007 108.906C-0.0969456 108.644 -0.0958905 108.382 -0.0948035 108.111C-0.096412 107.833 -0.0980206 107.555 -0.0996779 107.268C-0.103231 106.505 -0.103607 105.742 -0.102271 104.979C-0.101544 104.339 -0.102975 103.698 -0.104388 103.058C-0.107681 101.542 -0.107315 100.027 -0.104645 98.5115C-0.101972 96.9598 -0.105224 95.4083 -0.111537 93.8567C-0.116779 92.517 -0.118273 91.1774 -0.116908 89.8377C-0.116128 89.0411 -0.116622 88.2445 -0.120717 87.4479C-0.138177 83.0433 0.0461244 78.75 1.68447 74.6045C1.75339 74.4247 1.82231 74.2449 1.89332 74.0597C3.52984 69.9225 5.85438 66.515 8.90615 63.2812C9.06386 63.1084 9.22156 62.9356 9.38405 62.7576C14.0571 57.822 20.5855 55.0713 27.1874 53.9062C27.0792 53.8062 26.9711 53.7062 26.8596 53.6032C22.3254 49.2571 19.0214 43.0786 18.7121 36.7241C18.6258 29.714 18.6258 29.714 19.453 26.9531C19.5273 26.6785 19.6017 26.4038 19.6782 26.1209C20.8359 22.2334 22.8603 18.7279 25.5468 15.7031C25.7317 15.4946 25.9166 15.2862 26.1071 15.0714C29.5475 11.4373 33.8878 9.08369 38.6718 7.73436C38.9207 7.65943 39.1697 7.5845 39.4262 7.50731C43.4969 6.4801 48.7162 6.53039 52.7343 7.73436ZM31.5737 19.9512C27.1194 24.6682 25.7935 30.0036 25.9725 36.2979C26.0604 37.7963 26.4257 39.1412 26.953 40.5469C27.0379 40.7901 27.1228 41.0333 27.2103 41.2839C29.0857 46.2363 32.9982 49.9944 37.7398 52.2088C43.052 54.4258 48.3595 54.2741 53.7157 52.207C58.5374 50.0806 62.2227 46.0929 64.2186 41.25C65.7672 36.8383 66.1181 31.8601 64.453 27.4219C64.3681 27.1786 64.2832 26.9354 64.1958 26.6849C62.3335 21.7673 58.4865 18.0414 53.7871 15.8203C46.2121 12.5666 37.4486 14.1374 31.5737 19.9512ZM87.1874 59.0625C86.4952 61.1391 86.953 63.4361 86.953 65.625C90.8202 65.625 94.6874 65.625 98.6718 65.625C98.9452 62.1067 98.9452 62.1067 98.203 58.8281C97.274 58.5184 96.3821 58.5556 95.4134 58.5544C95.1061 58.5532 95.1061 58.5532 94.7926 58.552C94.3594 58.5508 93.9261 58.5503 93.4929 58.5503C92.8304 58.5498 92.168 58.5455 91.5055 58.5411C91.0845 58.5404 90.6635 58.5399 90.2425 58.5397C90.0445 58.538 89.8465 58.5364 89.6424 58.5346C89.3644 58.5357 89.3644 58.5357 89.0808 58.5368C88.9184 58.5365 88.7561 58.5361 88.5888 58.5358C88.0279 58.6059 87.6614 58.7551 87.1874 59.0625ZM13.5936 68.9062C10.6795 72.0318 8.61619 75.9971 7.66103 80.1562C7.62364 80.3172 7.58625 80.4781 7.54773 80.644C6.88192 83.8143 6.99889 87.1061 7.00826 90.3277C7.0086 90.7293 7.00884 91.1309 7.00897 91.5324C7.01019 93.004 7.01346 94.4756 7.0165 95.9472C7.02133 99.244 7.02617 102.541 7.03115 105.937C17.3179 105.937 27.6046 105.937 38.203 105.937C37.1313 104.499 37.1313 104.499 36.0177 103.1C35.8879 102.942 35.7581 102.785 35.6244 102.622C35.3586 102.3 35.0925 101.978 34.8261 101.657C34.6972 101.5 34.5684 101.343 34.4356 101.181C34.2631 100.973 34.2631 100.973 34.0871 100.76C32.1829 98.2328 33.1029 94.7728 33.5113 91.8206C33.5786 91.344 33.646 90.8675 33.7133 90.3909C33.7818 89.8919 33.8501 89.3928 33.9182 88.8937C34.0966 87.5893 34.2775 86.2853 34.4592 84.9814C34.7504 82.891 35.0393 80.8004 35.3253 78.7093C35.4252 77.9834 35.5271 77.2578 35.6291 76.5322C35.6908 76.0841 35.7524 75.636 35.814 75.1878C35.8424 74.9892 35.8709 74.7906 35.9003 74.5859C36.1951 72.4072 36.126 70.3755 35.7348 68.2159C35.6983 68.006 35.6619 67.796 35.6244 67.5796C35.5092 66.918 35.3913 66.2568 35.2733 65.5957C35.1941 65.1435 35.1151 64.6912 35.0362 64.2389C34.8439 63.138 34.6491 62.0377 34.453 60.9375C26.2702 60.8517 19.4408 62.9811 13.5936 68.9062ZM41.7186 60.9375C42.1054 63.2578 42.4921 65.5781 42.8905 67.9687C44.7468 67.9687 46.603 67.9687 48.5155 67.9687C49.0956 64.4883 49.0956 64.4883 49.6874 60.9375C47.0577 60.9375 44.428 60.9375 41.7186 60.9375ZM56.953 60.9375C56.7168 62.2627 56.4833 63.5883 56.2521 64.9143C56.1732 65.3645 56.0936 65.8146 56.0133 66.2645C55.8974 66.9146 55.7841 67.5652 55.6713 68.2159C55.6354 68.414 55.5995 68.6121 55.5625 68.8162C55.1935 70.9758 55.2821 73.0267 55.5921 75.1878C55.6367 75.5125 55.6367 75.5125 55.6821 75.8437C55.7463 76.3097 55.8112 76.7755 55.8767 77.2413C55.9807 77.9816 56.0825 78.7222 56.1838 79.4628C56.4721 81.5674 56.7643 83.6715 57.0575 85.7753C57.2373 87.0665 57.4148 88.3579 57.5909 89.6495C57.658 90.138 57.726 90.6264 57.795 91.1146C58.8535 98.6083 58.8535 98.6083 57.6268 100.4C57.3628 100.715 57.0979 101.029 56.8237 101.335C56.2567 101.976 55.7207 102.643 55.1788 103.306C54.8793 103.671 54.5781 104.035 54.275 104.397C54.067 104.646 54.067 104.646 53.8549 104.899C53.6666 105.123 53.6666 105.123 53.4745 105.352C53.1791 105.66 53.1791 105.66 53.203 105.937C57.4569 105.937 61.7108 105.937 66.0936 105.937C65.9776 105.357 65.9776 105.357 65.8593 104.766C65.8373 104.333 65.8267 103.9 65.8248 103.468C65.8231 103.209 65.8214 102.951 65.8197 102.685C65.8191 102.404 65.8184 102.123 65.8178 101.834C65.8155 101.387 65.8155 101.387 65.8131 100.931C65.8082 99.9455 65.8058 98.9599 65.8034 97.9742C65.8025 97.6338 65.8015 97.2934 65.8005 96.9529C65.7961 95.3528 65.7927 93.7526 65.7908 92.1524C65.7885 90.3106 65.7823 88.469 65.7729 86.6272C65.7658 85.2002 65.7623 83.7732 65.7615 82.3462C65.761 81.4956 65.7589 80.645 65.753 79.7944C65.7465 78.8436 65.7475 77.893 65.7491 76.9422C65.7461 76.664 65.7431 76.3858 65.74 76.0992C65.7587 73.0895 66.7767 70.6923 68.8256 68.4888C70.2229 67.1969 72.0132 66.3847 73.828 65.8594C73.828 65.7047 73.828 65.55 73.828 65.3906C68.4178 62.1653 63.2298 60.8716 56.953 60.9375ZM73.872 73.6963C71.7908 76.1342 72.6561 78.6512 72.6561 82.0312C85.9593 82.0312 99.2624 82.0312 112.969 82.0312C113.383 77.794 113.383 77.794 111.929 73.8721C110.654 72.7837 109.699 72.6275 108.06 72.6249C107.78 72.6239 107.501 72.6229 107.213 72.6219C106.757 72.622 106.757 72.622 106.291 72.6222C105.966 72.6215 105.64 72.6207 105.315 72.6198C104.432 72.6177 103.55 72.6172 102.668 72.617C102.116 72.6169 101.564 72.6164 101.013 72.6157C99.087 72.6136 97.1612 72.6126 95.2355 72.6128C93.4423 72.6129 91.6491 72.6105 89.8559 72.6068C88.3147 72.6037 86.7735 72.6024 85.2322 72.6026C84.3125 72.6027 83.3927 72.602 82.473 72.5995C81.6077 72.5972 80.7424 72.5972 79.8771 72.5989C79.4097 72.5993 78.9423 72.5973 78.475 72.5953C75.9898 72.5578 75.9898 72.5578 73.872 73.6963ZM42.8905 75.2344C42.7815 75.8835 42.6859 76.5303 42.5983 77.1824C42.5701 77.3867 42.5419 77.591 42.5128 77.8014C42.4194 78.4803 42.3275 79.1594 42.2359 79.8385C42.1721 80.3089 42.1082 80.7792 42.0444 81.2496C41.9106 82.2372 41.7778 83.225 41.6455 84.2128C41.4755 85.4797 41.3019 86.7461 41.1275 88.0124C40.9942 88.9843 40.8636 89.9565 40.7337 90.9288C40.6708 91.3959 40.607 91.8629 40.5422 92.3297C40.4518 92.9825 40.3651 93.6356 40.2793 94.2891C40.2516 94.4826 40.224 94.6761 40.1956 94.8754C40.0377 96.1178 40.13 96.6972 40.8499 97.6791C40.9632 97.8164 41.0764 97.9536 41.1931 98.0951C41.3197 98.2495 41.4462 98.4038 41.5766 98.5629C41.7774 98.8054 41.7774 98.8054 41.9823 99.0527C42.2573 99.3877 42.5323 99.7228 42.8072 100.058C43.0083 100.302 43.0083 100.302 43.2134 100.552C43.9744 101.48 44.7212 102.42 45.4686 103.359C46.1912 103.045 46.6099 102.723 47.0983 102.107C47.2243 101.95 47.3503 101.793 47.4801 101.631C47.6091 101.466 47.7381 101.302 47.871 101.133C47.9964 100.976 48.1218 100.819 48.2509 100.657C48.5135 100.327 48.7717 99.9944 49.0258 99.6585C49.453 99.1406 49.453 99.1406 49.9873 98.6689C50.7189 97.9658 51.275 97.3483 51.3756 96.3014C51.353 94.7845 51.079 93.2945 50.83 91.8017C50.7571 91.3172 50.6854 90.8326 50.6147 90.3478C50.4664 89.3388 50.3128 88.3308 50.1556 87.3231C49.9194 85.7911 49.7136 84.2562 49.5162 82.7188C49.4847 82.4745 49.4532 82.2302 49.4208 81.9785C49.359 81.4982 49.2974 81.0178 49.2358 80.5375C49.0918 79.417 48.9458 78.2969 48.7966 77.1771C48.7715 76.9826 48.7464 76.788 48.7205 76.5876C48.6739 75.7212 48.6739 75.7212 48.2811 75C47.9009 74.9767 47.5196 74.9693 47.1386 74.9689C46.9077 74.9686 46.6769 74.9683 46.4391 74.9679C46.0747 74.9693 46.0747 74.9693 45.703 74.9707C45.4601 74.9698 45.2172 74.9689 44.9669 74.9679C44.7361 74.9682 44.5053 74.9685 44.2675 74.9689C44.0542 74.9691 43.8409 74.9694 43.6211 74.9697C43.1283 74.9448 43.1283 74.9448 42.8905 75.2344ZM72.6561 89.0625C71.4631 97.5311 71.4631 97.5311 73.6962 104.722C74.9712 105.81 75.9258 105.966 77.5651 105.969C77.9841 105.97 77.9841 105.97 78.4114 105.972C78.7158 105.972 79.0203 105.972 79.3339 105.972C79.6593 105.972 79.9847 105.973 80.3101 105.974C81.1924 105.976 82.0747 105.977 82.957 105.977C83.5087 105.977 84.0603 105.977 84.612 105.978C86.5378 105.98 88.4636 105.981 90.3893 105.981C92.1825 105.981 93.9757 105.983 95.7689 105.987C97.3101 105.99 98.8513 105.991 100.393 105.991C101.312 105.991 102.232 105.992 103.152 105.994C104.017 105.996 104.882 105.996 105.748 105.995C106.215 105.994 106.682 105.996 107.15 105.998C109.635 106.036 109.635 106.036 111.753 104.897C115.128 100.943 112.969 92.1205 112.969 89.0625C99.6655 89.0625 86.3624 89.0625 72.6561 89.0625Z" fill="white"/>
</g>
<defs>
<clipPath id="clip0_87_1080">
<rect width="120" height="120" fill="white"/>
</clipPath>
</defs>
</svg>
