<svg width="120" height="120" viewBox="0 0 120 120" fill="none" xmlns="http://www.w3.org/2000/svg">
<path d="M22.0262 22.8778C22.47 22.8768 22.9138 22.8756 23.3576 22.874C24.555 22.8709 25.7524 22.8721 26.9499 22.8743C28.2057 22.8761 29.4616 22.8744 30.7174 22.8733C32.8243 22.8721 34.9311 22.8737 37.038 22.8771C39.4728 22.8809 41.9075 22.8797 44.3423 22.8758C46.4361 22.8726 48.5299 22.8722 50.6238 22.874C51.8729 22.8751 53.1221 22.8753 54.3713 22.8729C55.5444 22.8709 56.7175 22.8723 57.8906 22.8764C58.3209 22.8773 58.7512 22.877 59.1814 22.8755C59.7689 22.8736 60.3563 22.876 60.9438 22.8795C61.1138 22.8779 61.2838 22.8763 61.4589 22.8747C62.5487 22.8873 63.2954 23.0904 64.2175 23.6719C65.0268 24.7368 65.3119 25.5651 65.2456 26.9037C65.057 27.982 64.5875 28.7782 63.7077 29.4542C62.8865 29.8405 62.1736 29.8639 61.2848 29.8559C61.1096 29.8572 60.9343 29.8584 60.7537 29.8597C60.1673 29.8629 59.5811 29.8612 58.9947 29.8595C58.5739 29.8609 58.153 29.8625 57.7322 29.8645C56.8261 29.868 55.92 29.8694 55.0139 29.8691C53.5796 29.8686 52.1454 29.8732 50.7111 29.8785C47.9233 29.8881 45.1355 29.8924 42.3477 29.8963C38.8043 29.9016 35.2609 29.9095 31.7176 29.9215C30.2935 29.9261 28.8695 29.9284 27.4454 29.9287C26.5567 29.9294 25.668 29.9319 24.7793 29.9349C24.3692 29.9359 23.9591 29.9361 23.549 29.9355C19.8388 29.9302 16.4369 30.1062 13.5668 32.7429C11.9593 34.6959 11.213 36.9126 11.2158 39.4032C11.2151 39.5967 11.2144 39.7901 11.2137 39.9894C11.2117 40.6385 11.2113 41.2876 11.211 41.9368C11.2099 42.4019 11.2087 42.8669 11.2074 43.332C11.2044 44.5964 11.2029 45.8609 11.2018 47.1253C11.2011 47.9155 11.2002 48.7058 11.1991 49.496C11.1959 51.9693 11.1936 54.4426 11.1927 56.9159C11.1917 59.7694 11.1876 62.6229 11.1808 65.4763C11.1757 67.6828 11.1734 69.8892 11.173 72.0957C11.1728 73.413 11.1714 74.7304 11.1672 76.0477C11.1634 77.2878 11.1629 78.5278 11.1649 79.7678C11.1651 80.2219 11.1641 80.6759 11.1618 81.13C11.0916 85.0617 11.0916 85.0617 12.6843 88.5791C13.1077 89.1595 13.3626 89.5448 13.5925 90.2344C14.0172 90.4835 14.0172 90.4835 14.53 90.7031C15.093 91.0555 15.6528 91.4124 16.2109 91.7725C17.6167 92.487 19.035 92.6474 20.5922 92.638C20.8527 92.6393 20.8527 92.6393 21.1184 92.6406C21.492 92.6422 21.8655 92.6428 22.239 92.6425C22.8314 92.6422 23.4236 92.6453 24.0159 92.6492C25.6987 92.66 27.3815 92.6659 29.0644 92.6674C30.0969 92.6686 31.1294 92.6743 32.1619 92.6827C32.5536 92.685 32.9455 92.6856 33.3372 92.6843C33.8858 92.6826 34.434 92.6867 34.9825 92.692C35.2223 92.6891 35.2223 92.6891 35.467 92.6862C36.722 92.7076 37.4266 93.0533 38.4362 93.75C39.6307 95.068 39.4753 96.8006 39.4058 98.4659C39.3951 98.8669 39.3951 98.8669 39.3843 99.2759C39.361 100.125 39.331 100.973 39.3005 101.821C39.2738 102.676 39.2484 103.53 39.2242 104.384C39.2087 104.915 39.1915 105.445 39.1726 105.976C39.1648 106.214 39.1571 106.452 39.1491 106.697C39.1416 106.907 39.1341 107.118 39.1264 107.334C39.0845 107.811 39.0845 107.811 39.3737 108.047C40.2845 108.134 40.7229 108.021 41.4263 107.444C41.5899 107.313 41.7534 107.182 41.9219 107.047C42.0962 106.903 42.2704 106.76 42.4499 106.611C42.8294 106.307 43.2094 106.003 43.5897 105.699C43.7845 105.543 43.9792 105.387 44.1799 105.227C45.0853 104.512 46.0149 103.833 46.947 103.154C48.5384 101.991 50.1131 100.808 51.6784 99.6094C53.8007 97.985 55.9444 96.392 58.1023 94.8155C58.762 94.3278 59.4118 93.8274 60.0602 93.3249C60.7571 92.8492 61.3642 92.7829 62.1826 92.7802C62.3892 92.7789 62.5958 92.7776 62.8087 92.7763C63.1478 92.7759 63.1478 92.7759 63.4938 92.7756C63.7325 92.7744 63.9711 92.7732 64.217 92.7719C64.7361 92.7694 65.2552 92.7674 65.7743 92.7658C66.5971 92.7631 67.4198 92.7585 68.2426 92.7534C70.5823 92.7389 72.922 92.7263 75.2618 92.7184C76.6926 92.7135 78.1234 92.7052 79.5542 92.6948C80.0985 92.6915 80.6428 92.6895 81.1871 92.6887C81.9511 92.6876 82.7149 92.6821 83.4789 92.6758C83.7016 92.6765 83.9244 92.6772 84.1539 92.6779C86.7595 92.6458 89.1544 91.8503 91.1203 90.0952C92.5864 88.5053 93.5406 86.5022 93.5467 84.3361C93.5486 83.969 93.5486 83.969 93.5506 83.5945C93.5508 83.3272 93.5511 83.0599 93.5513 82.7846C93.5525 82.5021 93.5537 82.2196 93.5549 81.9285C93.5574 81.3145 93.5595 80.7006 93.561 80.0866C93.5636 79.1142 93.5683 78.1418 93.5735 77.1695C93.588 74.4045 93.6007 71.6396 93.6084 68.8746C93.6127 67.3471 93.6195 65.8197 93.6291 64.2922C93.634 63.4848 93.6376 62.6774 93.6381 61.87C93.6387 60.968 93.6447 60.066 93.6511 59.164C93.6504 58.8991 93.6497 58.6342 93.649 58.3613C93.6646 56.8685 93.772 55.4943 94.4519 54.1406C95.3342 53.2798 95.9733 52.931 97.1911 52.8955C98.4381 52.9117 99.0901 53.141 100.077 53.9063C101.018 55.2428 100.879 56.6739 100.871 58.2423C100.873 58.6844 100.873 58.6844 100.875 59.1355C100.878 59.9419 100.877 60.7482 100.874 61.5546C100.873 62.4018 100.874 63.249 100.875 64.0962C100.877 65.5205 100.875 66.9447 100.872 68.369C100.868 70.0087 100.869 71.6483 100.873 73.288C100.876 74.7006 100.877 76.1133 100.875 77.526C100.874 78.3675 100.873 79.2089 100.876 80.0504C100.878 80.9915 100.875 81.9325 100.871 82.8736C100.872 83.1475 100.874 83.4215 100.875 83.7037C100.856 86.2332 100.426 88.69 99.2565 90.9522C99.1769 91.1085 99.0973 91.2648 99.0153 91.4259C98.1336 93.0686 96.9582 94.3398 95.6237 95.625C95.3931 95.8625 95.3931 95.8625 95.1577 96.1048C92.424 98.7507 88.3594 99.8996 84.6364 99.8514C84.4346 99.8475 84.2327 99.8437 84.0247 99.8398C83.5748 99.8337 83.125 99.8277 82.6751 99.8219C82.4384 99.8185 82.2016 99.8151 81.9577 99.8117C80.4253 99.7928 78.8929 99.79 77.3605 99.7847C76.0198 99.7791 74.6796 99.7677 73.3391 99.7433C72.0362 99.72 70.734 99.7131 69.4309 99.7168C68.9387 99.7154 68.4464 99.7083 67.9544 99.695C64.2057 99.5983 62.0792 100.493 59.2669 102.975C58.6907 103.478 58.0877 103.931 57.4719 104.385C57.103 104.668 56.7343 104.951 56.3659 105.234C54.6371 106.558 52.8948 107.861 51.1366 109.146C50.1297 109.884 49.1331 110.633 48.1454 111.396C47.9261 111.565 47.7067 111.734 47.4807 111.909C47.0588 112.235 46.6379 112.563 46.2182 112.892C43.6368 114.888 41.4678 115.595 38.2019 115.313C36.0624 114.743 34.365 113.692 33.1042 111.87C31.6773 109.3 31.8191 106.741 31.947 103.901C31.9618 103.507 31.9763 103.112 31.9905 102.717C32.0255 101.759 32.0655 100.801 32.1081 99.8438C31.8644 99.8461 31.8644 99.8461 31.6157 99.8485C30.0682 99.8627 28.5206 99.8734 26.973 99.8802C26.1778 99.8838 25.3826 99.8887 24.5875 99.8968C16.1693 99.9759 16.1693 99.9759 13.0358 98.2617C12.8018 98.139 12.8018 98.139 12.563 98.0137C11.3154 97.3417 10.1921 96.5771 9.13936 95.625C8.99645 95.5008 8.85355 95.3767 8.70631 95.2487C5.77085 92.5326 4.10073 88.4416 3.9183 84.4875C3.88346 83.2565 3.8879 82.0257 3.89213 80.7944C3.89117 80.3236 3.88992 79.8527 3.88839 79.3819C3.88521 78.1122 3.88642 76.8426 3.88866 75.5729C3.89045 74.2387 3.88879 72.9046 3.88768 71.5705C3.88641 69.3309 3.88808 67.0913 3.89144 64.8516C3.89527 62.2691 3.89403 59.6866 3.89016 57.104C3.88696 54.8794 3.88652 52.6548 3.88835 50.4302C3.88945 49.1047 3.88961 47.7792 3.88727 46.4538C3.88523 45.2071 3.88667 43.9606 3.89071 42.7139C3.89164 42.2588 3.89139 41.8036 3.88983 41.3484C3.87469 36.4866 4.64122 32.5033 7.73311 28.5938C7.90713 28.3521 8.08115 28.1104 8.26045 27.8613C12.1016 23.8456 16.722 22.8585 22.0262 22.8778Z" fill="white"/>
<path d="M94.4078 4.81931C94.6317 4.84861 94.8556 4.87792 95.0862 4.90811C97.1433 5.56941 98.3049 6.81407 99.359 8.64255C99.6954 9.20208 100.032 9.76092 100.375 10.3165C100.689 10.8586 100.959 11.3887 101.225 11.9537C101.945 13.3902 102.609 14.6434 104.16 15.2628C105.366 15.6409 106.597 15.8668 107.84 16.084C108.475 16.2069 109.109 16.3342 109.741 16.4665C110.132 16.5469 110.524 16.6215 110.917 16.6889C112.607 17.0147 113.728 17.8526 114.916 19.0722C115.973 20.7169 116.288 22.2813 115.91 24.2029C115.288 26.1792 113.773 27.6061 112.411 29.106C111.543 30.0751 110.73 31.0914 109.921 32.1093C109.796 32.252 109.672 32.3947 109.544 32.5417C109.151 33.1501 109.147 33.4451 109.192 34.161C109.209 34.4873 109.209 34.4873 109.227 34.8201C109.243 35.0518 109.259 35.2836 109.276 35.5224C109.296 35.8812 109.296 35.8812 109.316 36.2472C109.38 37.3995 109.459 38.5502 109.547 39.7009C109.727 42.178 109.86 44.2047 108.251 46.2597C106.994 47.5526 105.698 48.088 103.9 48.1723C101.747 48.1471 99.9333 47.2462 97.9967 46.3916C97.45 46.1524 96.9028 45.915 96.3534 45.6822C96.0144 45.5384 95.6769 45.391 95.3415 45.2393C93.8931 44.6224 92.9429 44.783 91.4945 45.3063C91.1948 45.4324 90.8958 45.5602 90.5974 45.6894C90.2642 45.8277 89.931 45.9657 89.5977 46.1036C89.0815 46.3194 88.5661 46.5368 88.0522 46.758C85.709 47.7617 83.4234 48.6814 80.8671 47.8104C79.1718 47.0652 78.202 46.0275 77.4861 44.3069C77.2172 43.4108 77.2603 42.5145 77.2838 41.5869C77.2864 41.3804 77.2889 41.1738 77.2916 40.9611C77.3116 39.7699 77.3688 38.5855 77.4596 37.3974C77.478 37.14 77.4965 36.8826 77.5154 36.6174C77.5572 36.1012 77.6108 35.5859 77.6747 35.072C77.7693 33.9045 77.7915 33.1346 77.1282 32.1396C76.5202 31.4761 75.8823 30.8573 75.233 30.2343C71.0034 25.3748 71.0034 25.3748 70.692 22.6758C70.9043 20.5526 71.5657 19.1555 73.195 17.7708C74.2993 17.0243 75.4852 16.7596 76.7711 16.4648C77.0405 16.3949 77.31 16.325 77.5875 16.2529C78.7341 15.9595 79.8574 15.6886 81.0366 15.574C82.3112 15.4283 83.2453 15.2435 84.117 14.2639C85.0486 13.0025 85.8195 11.6596 86.573 10.2867C87.7452 8.19069 88.8941 6.2147 91.0826 5.06833C92.2316 4.76598 93.2278 4.64396 94.4078 4.81931ZM93.2799 12.8906C93.043 13.2329 92.8177 13.5832 92.5969 13.9361C92.457 14.1582 92.3172 14.3803 92.173 14.609C92.0259 14.8444 91.8788 15.0798 91.7272 15.3222C90.8813 16.6731 90.0314 18.0213 89.1436 19.3451C89.0205 19.5299 88.8974 19.7146 88.7706 19.905C87.8159 21.0287 86.6018 21.2962 85.226 21.6238C85.0404 21.6696 84.8548 21.7155 84.6635 21.7627C84.0742 21.9077 83.4842 22.0501 82.8942 22.1924C82.493 22.2906 82.0918 22.389 81.6907 22.4876C80.7105 22.7282 79.7298 22.9663 78.7487 23.2031C79.5143 24.2457 80.2836 25.2576 81.1656 26.206C81.433 26.502 81.433 26.502 81.7058 26.8039C82.0862 27.2247 82.4683 27.644 82.8521 28.0618C83.04 28.276 83.2279 28.4902 83.4215 28.7109C83.5928 28.9019 83.7641 29.0928 83.9406 29.2895C85.1634 31.2956 84.8355 33.5527 84.6373 35.8008C84.5887 36.4001 84.5405 36.9995 84.4927 37.5989C84.4701 37.8613 84.4474 38.1238 84.4241 38.3942C84.3754 39.1145 84.3648 39.8252 84.3737 40.5468C84.5352 40.4808 84.6967 40.4147 84.8632 40.3466C90.0944 38.2127 90.0944 38.2127 91.9908 37.5586C92.1963 37.4873 92.4017 37.416 92.6134 37.3425C94.7103 37.1006 96.7653 38.258 98.6412 39.0527C99.2064 39.2916 99.7723 39.5287 100.339 39.765C100.587 39.87 100.835 39.975 101.09 40.0832C101.716 40.3527 101.716 40.3527 102.421 40.3125C102.413 40.1713 102.406 40.0301 102.399 39.8846C102.317 38.2307 102.248 36.5766 102.186 34.9218C102.178 34.7084 102.169 34.495 102.16 34.2751C102.139 33.7046 102.125 33.1343 102.113 32.5634C102.106 32.3952 102.099 32.227 102.092 32.0536C102.07 30.1794 103.294 29.0553 104.457 27.7295C105.68 26.3196 106.872 24.8893 108.046 23.4375C107.209 22.9589 106.36 22.7641 105.425 22.5457C105.093 22.4662 104.761 22.3865 104.428 22.3068C103.908 22.1833 103.388 22.0606 102.867 21.9398C102.362 21.822 101.857 21.7007 101.353 21.579C101.052 21.5083 100.751 21.4376 100.441 21.3648C98.9682 20.8855 98.1298 20.211 97.3366 18.8919C97.1878 18.6485 97.039 18.4052 96.8857 18.1544C96.7351 17.9014 96.5845 17.6484 96.4293 17.3877C96.1268 16.8878 95.8237 16.3882 95.5202 15.8889C95.3779 15.6546 95.2355 15.4203 95.0889 15.1788C94.596 14.3863 94.0818 13.6314 93.5143 12.8906C93.4369 12.8906 93.3596 12.8906 93.2799 12.8906Z" fill="white"/>
<path d="M36.0053 49.1874C36.1582 49.1869 36.3112 49.1864 36.4688 49.1858C36.9796 49.1843 37.4904 49.1845 38.0011 49.1847C38.3681 49.184 38.7351 49.1832 39.102 49.1823C40.0976 49.1803 41.0932 49.1797 42.0889 49.1796C42.7112 49.1794 43.3335 49.1789 43.9559 49.1783C46.1278 49.1761 48.2998 49.1752 50.4717 49.1753C52.495 49.1755 54.5182 49.173 56.5414 49.1693C58.2797 49.1662 60.018 49.165 61.7563 49.1651C62.794 49.1652 63.8316 49.1645 64.8692 49.1621C65.8454 49.1598 66.8214 49.1598 67.7976 49.1615C68.1552 49.1617 68.5128 49.1612 68.8704 49.1597C69.3598 49.1579 69.8492 49.159 70.3387 49.1608C70.6122 49.1607 70.8857 49.1606 71.1675 49.1604C72.3853 49.251 73.3111 49.45 74.2515 50.2442C75.0886 51.2486 75.3316 51.8511 75.2916 53.1977C75.1599 54.2632 74.7113 54.9144 73.9293 55.6201C72.9989 56.2643 72.4821 56.2806 71.3475 56.2845C71.1873 56.2854 71.0271 56.2862 70.8621 56.2871C70.3226 56.2897 69.7833 56.2906 69.2438 56.2915C68.8581 56.293 68.4724 56.2945 68.0867 56.2962C67.0368 56.3003 65.9869 56.3027 64.9371 56.3047C64.2813 56.3059 63.6256 56.3073 62.9699 56.3088C60.9188 56.3132 58.8677 56.3166 56.8167 56.3185C54.448 56.3208 52.0794 56.327 49.7108 56.3364C47.8807 56.3435 46.0507 56.347 44.2207 56.3478C43.1273 56.3483 42.034 56.3504 40.9407 56.3563C39.9119 56.3618 38.8831 56.3628 37.8543 56.3604C37.4769 56.3602 37.0996 56.3617 36.7222 56.3649C36.2064 56.3691 35.6909 56.3674 35.175 56.3643C34.8866 56.3649 34.5981 56.3655 34.3009 56.366C33.0744 56.1852 32.3578 55.5952 31.5513 54.6826C31.0569 53.6747 30.9807 52.8992 31.1705 51.7969C31.4885 50.9144 31.9279 50.2948 32.6793 49.7168C33.7798 49.2337 34.8126 49.1892 36.0053 49.1874Z" fill="white"/>
<path d="M35.764 66.2904C35.9699 66.2892 36.1757 66.288 36.3878 66.2868C37.0697 66.2834 37.7515 66.2818 38.4334 66.2805C38.9072 66.2792 39.381 66.2778 39.8548 66.2765C40.8488 66.274 41.8428 66.2726 42.8368 66.2718C44.1096 66.2705 45.3824 66.2649 46.6552 66.2582C47.6342 66.2539 48.6131 66.2526 49.5921 66.2523C50.0613 66.2516 50.5305 66.2497 50.9997 66.2466C51.6566 66.2426 52.3134 66.2431 52.9704 66.2446C53.2603 66.2413 53.2603 66.2413 53.5561 66.238C55.0727 66.249 56.0318 66.5901 57.1422 67.6758C57.8943 68.7932 57.9569 69.5961 57.7721 70.9131C57.323 71.9421 56.7075 72.5094 55.7799 73.125C54.871 73.428 54.0088 73.3959 53.0614 73.3971C52.8555 73.3983 52.6496 73.3995 52.4375 73.4007C51.7557 73.4041 51.0739 73.4057 50.392 73.407C49.9182 73.4083 49.4444 73.4097 48.9706 73.411C47.9766 73.4135 46.9826 73.4149 45.9886 73.4157C44.7158 73.417 43.443 73.4226 42.1702 73.4293C41.1912 73.4336 40.2122 73.4349 39.2332 73.4352C38.7641 73.4359 38.2949 73.4378 37.8257 73.4409C37.1687 73.4449 36.5119 73.4444 35.855 73.4429C35.6617 73.4451 35.4684 73.4472 35.2693 73.4495C34.1203 73.4411 33.3394 73.2885 32.3424 72.6562C31.3004 71.5016 31.0883 70.7926 31.1037 69.2679C31.2257 68.1792 31.7937 67.5418 32.5914 66.8408C33.6054 66.2193 34.6158 66.2919 35.764 66.2904Z" fill="white"/>
</svg>
