<svg width="121" height="120" viewBox="0 0 121 120" fill="none" xmlns="http://www.w3.org/2000/svg">
<path d="M46.2695 60.9595C46.8833 61.2371 47.199 61.6069 47.6474 62.1094C49.6689 64.1939 52.2079 65.6202 54.9423 66.5625C55.1466 66.6371 55.3508 66.7117 55.5612 66.7886C60.0191 68.1706 64.7934 67.2816 68.8526 65.2048C70.8806 64.1128 72.4985 62.7415 73.9267 60.9375C76.6007 61.2912 79.2031 64.546 80.8362 66.5854C83.6747 70.528 86.06 75.4343 85.6455 80.3906C85.2543 81.9081 84.1587 83.1047 82.833 83.9062C81.5813 84.272 80.4928 84.434 79.1807 84.4361C78.9278 84.4374 78.9278 84.4374 78.6699 84.4388C78.1105 84.4412 77.5513 84.4403 76.9919 84.4394C76.5887 84.4404 76.1854 84.4416 75.7822 84.443C74.6907 84.4461 73.5992 84.4463 72.5077 84.4457C71.5951 84.4454 70.6824 84.4466 69.7697 84.4477C67.616 84.4503 65.4622 84.4504 63.3085 84.449C61.0897 84.4476 58.8709 84.4505 56.6521 84.4554C54.744 84.4596 52.8359 84.461 50.9278 84.4602C49.7895 84.4598 48.6513 84.4604 47.513 84.4637C46.4424 84.4666 45.3719 84.4662 44.3013 84.4631C43.9095 84.4626 43.5177 84.4632 43.1259 84.4651C40.4431 84.4774 38.1605 84.4342 36.1136 82.4689C34.9505 81.1638 34.8934 79.8765 34.9399 78.1833C35.4675 72.6854 38.5115 67.8393 42.2861 63.9844C42.4386 63.8227 42.5912 63.6611 42.7484 63.4946C45.2305 60.9107 45.2305 60.9107 46.2695 60.9595Z" fill="white"/>
<path d="M69.6357 38.9575C72.1504 41.3225 74.1759 44.6237 74.437 48.1361C74.5469 52.5539 74.0505 56.2584 70.9009 59.6359C69.6939 60.8655 68.4316 61.8063 66.8955 62.5781C66.717 62.669 66.5384 62.76 66.3544 62.8537C63.2258 64.3448 59.1442 64.5431 55.8314 63.5385C53.4614 62.6071 51.5711 61.3382 49.7861 59.5312C49.5586 59.3114 49.5586 59.3114 49.3265 59.0872C46.9172 56.5884 46.066 53.1012 46.0265 49.7215C46.0976 46.006 47.6209 42.4945 50.2238 39.852C50.3887 39.6946 50.5537 39.5371 50.7236 39.375C50.8499 39.2441 50.9762 39.1133 51.1063 38.9785C56.0895 34.1832 64.5506 34.7655 69.6357 38.9575Z" fill="white"/>
<path d="M81.8955 18.5157C82.7089 18.8393 83.4705 19.2407 84.2392 19.6582C84.5616 19.8306 84.5616 19.8306 84.8905 20.0065C94.3775 25.1766 101.513 33.3966 106.036 43.125C106.142 43.3521 106.142 43.3521 106.25 43.5838C111.195 54.3726 111.685 66.8366 108.254 78.111C108.2 78.2916 108.145 78.4723 108.089 78.6584C107.962 79.0568 107.827 79.4525 107.686 79.846C107.616 80.0523 107.545 80.2587 107.472 80.4712C107.404 80.6572 107.337 80.8431 107.268 81.0347C107.151 81.5875 107.151 81.5875 107.521 82.0855C107.803 82.3953 108.097 82.6953 108.398 82.9871C109.798 84.3873 110.24 86.424 110.263 88.3484C110.124 90.9964 109.209 93.261 107.252 95.083C105.091 96.8259 102.575 97.4814 99.8142 97.2061C97.4674 96.757 95.6792 95.5055 94.083 93.75C92.6008 91.5146 92.0807 88.9834 92.5513 86.3416C93.1834 83.933 94.6392 82.0572 96.6611 80.625C98.3374 79.7619 99.8926 79.4195 101.773 79.4385C102.046 79.4406 102.318 79.4427 102.598 79.4449C102.908 79.449 102.908 79.449 103.224 79.4532C105.078 74.1692 106.136 69.0859 106.109 63.4717C106.109 63.186 106.109 63.186 106.108 62.8945C106.097 60.0041 105.981 57.2026 105.333 54.375C105.293 54.1938 105.253 54.0126 105.211 53.8258C104.244 49.5712 102.716 45.5549 100.645 41.7188C100.569 41.5753 100.493 41.4318 100.414 41.284C99.3306 39.2638 98.0965 37.4134 96.6611 35.625C96.5648 35.5046 96.4685 35.3842 96.3693 35.2601C92.497 30.4515 87.9882 26.664 82.5565 23.7131C82.3436 23.5973 82.1307 23.4814 81.9113 23.3621C81.4873 23.1327 81.0622 22.9052 80.6359 22.6798C80.4416 22.5755 80.2473 22.4711 80.047 22.3636C79.7852 22.225 79.7852 22.225 79.5182 22.0836C79.083 21.7969 79.083 21.7969 78.6142 21.0938C78.4951 20.1803 78.537 19.8034 79.0537 19.0283C79.9492 18.1065 80.7054 18.2311 81.8955 18.5157Z" fill="white"/>
<path d="M67.3057 9.05274C68.8515 10.1526 70.024 11.8412 70.543 13.6707C71.0213 16.5922 70.719 19.2859 68.9756 21.7383C67.3178 23.7107 65.2575 24.9013 62.6896 25.1431C60.144 25.2245 57.8987 24.547 55.8799 22.9688C54.7358 21.775 53.5361 20.4822 53.5361 18.75C43.451 21.3206 33.7984 25.47 27.0518 33.75C26.8406 33.9997 26.6294 34.2493 26.4182 34.4989C19.9049 42.2992 15.9732 52.5395 16.0334 62.7402C16.0343 62.8979 16.0351 63.0556 16.036 63.2181C16.0419 64.0097 16.0543 64.8004 16.0739 65.5919C16.0787 65.8826 16.0834 66.1733 16.0883 66.4728C16.095 66.7329 16.1016 66.993 16.1085 67.2609C16.0194 68.1328 15.7221 68.7515 15.0986 69.375C14.0648 69.5218 13.2558 69.5749 12.4033 68.9356C9.64575 63.1906 12.5498 52.9283 14.4614 47.2842C17.0504 39.9797 21.0598 33.9798 26.3486 28.3594C26.493 28.205 26.6375 28.0506 26.7863 27.8915C27.9515 26.6845 29.2481 25.6426 30.5674 24.6094C30.693 24.5102 30.8186 24.4111 30.948 24.309C37.0108 19.5619 44.1819 16.3969 51.727 14.9442C52.5516 14.8144 52.5516 14.8144 53.0674 14.5313C53.2293 14.1319 53.3731 13.7251 53.5068 13.3154C54.2907 11.0795 55.691 9.38307 57.7549 8.20313C60.9387 6.74751 64.3856 7.32231 67.3057 9.05274Z" fill="white"/>
<path d="M23.917 78.4278C26.191 80.0619 27.5262 82.0787 27.9892 84.8438C28.2203 87.4876 27.3486 89.582 26.1142 91.875C27.0444 92.8976 27.9824 93.9124 28.9267 94.9219C29.0994 95.1075 29.0994 95.1075 29.2755 95.2969C31.9734 98.176 35.1111 100.47 38.5361 102.422C38.6812 102.505 38.8262 102.589 38.9757 102.675C44.3441 105.741 50.412 107.721 56.583 108.281C56.7375 108.295 56.892 108.31 57.0512 108.324C66.3175 109.124 75.9239 107.111 83.8941 102.251C84.0715 102.143 84.249 102.035 84.4318 101.924C84.7727 101.715 85.1114 101.502 85.4474 101.285C86.4832 100.643 87.2033 100.384 88.458 100.547C89.2425 101.114 89.5737 101.455 89.7763 102.407C89.5439 103.546 88.8868 104.231 87.9571 104.882C87.3602 105.245 86.7559 105.587 86.1435 105.923C85.9233 106.046 85.7031 106.168 85.4762 106.295C81.2777 108.611 76.9892 110.266 72.33 111.401C72.0984 111.458 71.8667 111.515 71.628 111.574C68.1822 112.378 64.822 112.596 61.2998 112.588C61.089 112.588 60.8782 112.588 60.6611 112.588C57.1884 112.58 53.8852 112.339 50.4892 111.563C50.1957 111.499 50.1957 111.499 49.8962 111.433C41.8914 109.657 34.2165 105.674 28.2236 100.078C27.8976 99.7937 27.5705 99.5104 27.2422 99.2285C25.9275 98.0772 24.8042 96.9322 23.7851 95.5078C23.3286 94.9063 23.3286 94.9063 22.833 94.4532C22.0646 94.3853 22.0646 94.3853 21.5485 94.5493C19.3111 95.0731 16.6275 94.8986 14.6299 93.75C12.5453 92.2329 11.0018 90.4257 10.4111 87.8907C10.1543 85.1362 10.3532 82.8112 12.0124 80.4941C14.9851 76.9233 19.8995 75.9512 23.917 78.4278Z" fill="white"/>
</svg>
