<svg width="100" height="101" viewBox="0 0 100 101" fill="none" xmlns="http://www.w3.org/2000/svg">
<g clip-path="url(#clip0_6108_30244)">
<path d="M53.0991 2.70147C53.2633 2.70045 53.4275 2.69943 53.5966 2.69837C53.9425 2.69712 54.2883 2.69737 54.6342 2.69904C55.1606 2.7007 55.6867 2.69508 56.2131 2.68888C56.5504 2.68857 56.8878 2.68868 57.2251 2.68927C57.381 2.68707 57.5369 2.68488 57.6975 2.68262C58.7997 2.69621 59.4431 2.93541 60.3509 3.56741C61.1157 4.57895 60.995 5.67642 60.9368 6.88772C61.0738 6.92096 61.2107 6.95419 61.3518 6.98843C62.2757 7.2244 63.1162 7.45927 63.9519 7.92532C64.1816 8.03408 64.4112 8.14285 64.6477 8.25491C65.2063 8.05405 65.5856 7.73778 66.0271 7.35159C66.7964 6.79288 67.4786 6.77845 68.4083 6.7771C69.5405 7.01062 70.3198 7.83006 71.087 8.64935C71.3509 8.92447 71.3509 8.92447 71.6202 9.20515C71.8957 9.49392 72.1699 9.78359 72.4416 10.0758C72.7071 10.3602 72.9773 10.6401 73.2476 10.9199C73.485 11.1717 73.485 11.1717 73.7271 11.4286C74.202 11.834 74.202 11.834 74.828 11.7383C75.213 11.6266 75.5956 11.5067 75.9759 11.3799C76.0976 11.0066 76.0976 11.0066 76.1468 10.562C76.3297 9.59812 76.6431 9.13315 77.3431 8.45022C78.3548 8.11298 79.4365 8.20315 80.4957 8.19726C80.7773 8.19501 81.059 8.19102 81.3406 8.18524C81.7489 8.17687 82.157 8.17375 82.5654 8.17175C82.8092 8.1689 83.053 8.16605 83.3041 8.16312C84.1147 8.2726 84.5278 8.51967 85.1556 9.03616C85.4898 9.66998 85.7191 10.1922 85.7949 10.9061C85.8917 11.4147 85.8917 11.4147 86.3557 11.653C86.6136 11.7475 86.6136 11.7475 86.8767 11.8438C87.0472 11.9097 87.2176 11.9757 87.3933 12.0437C87.9204 12.1684 88.1716 12.159 88.6712 11.9658C88.8081 11.8651 88.9451 11.7644 89.0862 11.6607C89.933 11.2373 90.6745 11.1909 91.6009 11.3799C92.2284 11.7298 92.6706 12.2297 93.1634 12.7471C93.393 12.9697 93.6235 13.1913 93.8546 13.4124C94.1046 13.6542 94.3543 13.8963 94.6038 14.1387C94.7248 14.2554 94.8459 14.3722 94.9706 14.4924C95.6917 15.209 96.2509 15.7978 96.3113 16.8609C96.1923 17.8128 95.9237 18.2425 95.3118 18.9971C95.3972 19.6893 95.6081 20.3455 95.8123 21.0113C95.8649 21.1837 95.9175 21.3562 95.9717 21.5339C96.0118 21.6635 96.0518 21.7932 96.0931 21.9268C96.3267 21.9107 96.5603 21.8946 96.8011 21.878C97.6746 21.8764 98.1508 22.1442 98.8274 22.708C99.2999 23.4168 99.2811 23.9494 99.2837 24.7695C99.285 24.9137 99.2863 25.058 99.2876 25.2066C99.2896 25.5116 99.2905 25.8167 99.2904 26.1217C99.2913 26.5869 99.2984 27.0517 99.3058 27.5168C99.3069 27.8136 99.3077 28.1104 99.3081 28.4072C99.3109 28.5456 99.3137 28.6839 99.3166 28.8265C99.3079 29.7732 99.1012 30.2427 98.4368 30.9112C97.7212 31.4479 96.9512 31.3304 96.0931 31.3018C95.9989 31.6068 95.9054 31.912 95.8123 32.2173C95.7602 32.3873 95.7081 32.5572 95.6544 32.7323C95.4439 33.4738 95.4439 33.4738 95.3118 34.2315C95.6643 34.7617 95.6643 34.7617 96.0931 35.208C96.4444 35.9107 96.2978 36.6178 96.0931 37.3565C95.7255 37.9641 95.2318 38.4243 94.7259 38.919C94.4971 39.1516 94.2688 39.3846 94.0407 39.6178C93.5557 40.1109 93.0699 40.6031 92.5797 41.0911C92.4759 41.1946 92.3721 41.2982 92.2652 41.405C91.6289 41.9825 90.9623 41.9105 90.1421 41.9082C89.4522 41.8251 89.0356 41.4618 88.4759 41.0674C87.6819 41.0998 87.0565 41.3578 86.3274 41.6533C86.1341 41.6533 85.9407 41.6533 85.7415 41.6533C85.7365 41.783 85.7314 41.9127 85.7262 42.0463C85.6574 43.1181 85.5962 43.823 84.7649 44.583C83.7723 45.2291 82.5321 45.0388 81.3915 45.0353C80.9706 45.0347 80.5499 45.0393 80.1289 45.0442C79.8597 45.0447 79.5905 45.0448 79.3214 45.0446C78.956 45.0455 78.956 45.0455 78.5833 45.0464C77.6054 44.9377 77.1283 44.6027 76.513 43.8506C76.143 43.1634 76.0377 42.6218 75.9759 41.8487C75.2294 41.4861 74.8155 41.3954 74.0227 41.6533C73.5089 42.0659 73.5089 42.0659 73.0149 42.5986C72.8767 42.7399 72.8767 42.7399 72.7357 42.884C72.4426 43.1841 72.1522 43.4866 71.8621 43.7896C71.571 44.0915 71.2793 44.3928 70.9864 44.6931C70.7208 44.9656 70.4571 45.24 70.1935 45.5145C69.2929 46.3537 68.5527 46.4461 67.3485 46.4316C66.574 46.3043 66.1325 45.96 65.5572 45.4444C65.2225 45.1246 65.2225 45.1246 64.6477 44.9737C64.1849 45.1454 63.7506 45.3267 63.305 45.5352C62.5257 45.8945 61.7929 46.2139 60.9368 46.3408C60.9436 46.4846 60.9504 46.6284 60.9574 46.7765C61.0112 48.7145 61.0112 48.7145 60.3509 49.4658C59.3176 50.3731 58.674 50.4768 57.3273 50.4889C57.1621 50.4905 56.9968 50.4921 56.8265 50.4937C56.476 50.4964 56.1254 50.4985 55.7749 50.5001C55.2416 50.5034 54.7085 50.512 54.1753 50.5206C53.8344 50.5226 53.4934 50.5243 53.1525 50.5256C52.9942 50.529 52.8359 50.5324 52.6727 50.5359C51.5584 50.5317 50.9171 50.3 49.9993 49.6612C49.4223 48.9452 49.37 48.4138 49.3401 47.5127C49.2816 46.8893 49.2816 46.8893 49.0227 46.3408C48.2229 45.8344 47.3905 45.6128 46.4837 45.3643C46.2221 45.2364 45.9613 45.1069 45.7024 44.9737C44.8759 45.0003 44.4921 45.5841 43.9446 46.1455C43.3909 46.3301 42.9963 46.385 42.4187 46.4019C42.1752 46.4128 42.1752 46.4128 41.9266 46.424C40.7756 46.2403 39.9966 45.3581 39.2411 44.5296C39.0574 44.3343 38.8734 44.1393 38.6891 43.9445C38.4035 43.6407 38.12 43.3358 37.8409 43.0262C36.8172 41.7875 36.8172 41.7875 35.4086 41.2206C34.96 41.3198 34.5866 41.4435 34.179 41.6533C34.1911 41.8548 34.2032 42.0562 34.2156 42.2637C34.1754 43.0954 34.0526 43.503 33.5931 44.1924C32.7216 44.8917 32.1339 45.0733 31.0235 45.0774C30.8935 45.0782 30.7636 45.0789 30.6297 45.0797C30.3566 45.0802 30.0834 45.0788 29.8103 45.0755C29.3948 45.0713 28.98 45.0755 28.5645 45.0805C28.2977 45.08 28.031 45.079 27.7642 45.0774C27.4041 45.0761 27.4041 45.0761 27.0367 45.0747C26.24 44.9546 25.8182 44.6945 25.1946 44.1924C24.8049 43.5743 24.6164 43.1628 24.5766 42.4315C24.4712 41.7925 24.4712 41.7925 23.8389 41.5206C23.6055 41.4436 23.3721 41.3665 23.1316 41.2871C22.8977 41.2071 22.6638 41.127 22.4229 41.0445C22.1513 40.9592 22.1513 40.9592 21.8743 40.8721C21.7212 41.0332 21.5682 41.1944 21.4104 41.3604C20.7163 41.9301 20.1206 42.0187 19.2353 41.9623C18.312 41.7464 17.8253 41.1519 17.1868 40.4815C16.9403 40.2399 16.6931 39.9991 16.4452 39.759C16.1754 39.4955 15.9058 39.2318 15.6365 38.9678C15.5045 38.8385 15.3726 38.7092 15.2366 38.576C15.0512 38.3908 15.0512 38.3908 14.8621 38.2018C14.7504 38.0908 14.6386 37.9799 14.5234 37.8655C14.1125 37.3814 14.0608 36.9551 14.0008 36.3311C14.0773 35.4131 14.3533 35.0031 14.8431 34.2315C15.0792 33.5232 14.9796 33.4124 14.66 32.7666C14.3842 32.2059 14.2571 31.9366 14.2571 31.3018C14.0194 31.3139 13.7818 31.326 13.5369 31.3384C12.7699 31.3371 12.3302 31.2056 11.7181 30.7158C10.6779 29.5271 10.894 28.1476 10.888 26.6509C10.8839 26.4025 10.8799 26.1542 10.8758 25.8983C10.8748 25.658 10.8738 25.4176 10.8727 25.17C10.8709 24.9508 10.8691 24.7316 10.8672 24.5057C10.9707 23.5755 11.3187 22.9361 11.9378 22.2442C12.7167 21.8039 13.3823 21.8582 14.2571 21.9268C14.2773 21.7576 14.2974 21.5884 14.3182 21.4141C14.4524 20.7549 14.4524 20.7549 14.782 20.1568C15.0982 19.6064 15.0982 19.6064 14.9163 19.0825C14.6532 18.6001 14.6532 18.6001 14.3304 18.1426C13.9767 17.4673 13.9811 17.0163 14.0618 16.2627C14.4433 15.5208 14.9137 14.972 15.503 14.3859C15.6668 14.2225 15.8306 14.0591 15.9993 13.8907C16.1696 13.7228 16.3399 13.5549 16.5154 13.3819C16.6865 13.2109 16.8576 13.04 17.0338 12.8638C18.1539 11.7515 18.6157 11.3158 20.2073 11.3204C20.8989 11.4035 21.3179 11.76 21.8743 12.1612C22.356 12.1726 22.356 12.1726 22.8509 11.9658C22.981 11.9379 23.1112 11.91 23.2453 11.8812C23.6978 11.7629 24.0297 11.6493 24.4134 11.3799C24.5856 10.9416 24.6456 10.5358 24.7094 10.0699C24.8657 9.32986 25.2451 8.97257 25.7806 8.45022C26.7949 8.11211 27.8819 8.21087 28.9439 8.20799C29.3666 8.20609 29.7891 8.20003 30.2117 8.19387C30.4818 8.1926 30.7519 8.19157 31.0219 8.19082C31.3892 8.18808 31.3892 8.18808 31.7638 8.18529C32.6175 8.2757 33.1164 8.56988 33.7273 9.15823C33.9926 9.63818 34.061 9.98968 34.1546 10.5254C34.2798 11.2374 34.2798 11.2374 34.826 11.6973C35.4191 11.7801 35.7549 11.7534 36.3274 11.5752C36.8413 11.1626 36.8413 11.1626 37.3353 10.6299C37.4274 10.5358 37.5196 10.4416 37.6145 10.3446C37.9076 10.0445 38.198 9.74198 38.4881 9.43899C38.7792 9.13706 39.0709 8.83572 39.3638 8.5355C39.6294 8.26294 39.8931 7.98853 40.1567 7.71403C41.0527 6.8792 41.8032 6.77284 43.0032 6.78244C43.8159 6.93778 44.2183 7.36858 44.7549 7.97491C45.1008 8.30587 45.1008 8.30587 45.5743 8.22973C46.1606 8.03745 46.7226 7.81561 47.2893 7.57132C47.8654 7.32424 48.4281 7.08595 49.0227 6.88772C49.0419 6.73213 49.061 6.57653 49.0807 6.41623C49.3868 4.24722 49.3868 4.24722 50.1946 3.3721C51.177 2.75473 51.9754 2.69735 53.0991 2.70147ZM51.9524 5.32522C51.6553 5.91939 51.684 6.55188 51.6473 7.2051C51.6346 7.41206 51.6346 7.41206 51.6217 7.6232C51.601 7.96393 51.5813 8.30473 51.5618 8.64553C50.4673 9.12581 49.3599 9.54659 48.2339 9.94673C47.5647 10.1915 46.967 10.4536 46.3616 10.8314C45.6542 11.2104 45.3162 11.332 44.5306 11.1846C44.0591 10.7932 44.0591 10.7932 43.6272 10.2935C43.215 9.79482 43.215 9.79482 42.7727 9.42678C41.9665 9.46652 41.5589 9.98758 41.018 10.5384C40.8831 10.6745 40.8831 10.6745 40.7455 10.8134C40.4595 11.1026 40.1757 11.3938 39.8919 11.6851C39.698 11.8819 39.5039 12.0786 39.3098 12.2752C38.8349 12.7565 38.3619 13.2396 37.8899 13.7237C38.2556 14.5005 38.7105 14.9175 39.3624 15.467C39.7974 16.0846 39.7352 16.497 39.6477 17.2393C39.4492 17.7972 39.1878 18.3134 38.9153 18.8384C38.3203 20.0331 37.8319 21.2027 37.4581 22.4883C37.304 22.9033 37.304 22.9033 36.9134 23.0987C36.2833 23.1502 35.6545 23.1854 35.0232 23.2169C34.3484 23.1967 34.3484 23.1967 33.7884 23.4893C33.7687 23.951 33.7611 24.4069 33.7624 24.8687C33.7622 25.0067 33.7621 25.1446 33.7619 25.2868C33.7617 25.5791 33.7621 25.8713 33.7629 26.1636C33.764 26.6124 33.7629 27.0612 33.7617 27.51C33.7618 27.7933 33.762 28.0766 33.7624 28.3599C33.762 28.495 33.7616 28.6301 33.7612 28.7693C33.7098 29.4067 33.7098 29.4067 33.9837 29.9346C34.5993 29.9743 35.2134 30.0023 35.83 30.0185C36.367 30.0436 36.8046 30.0643 37.2712 30.3458C37.6082 30.8924 37.7665 31.4566 37.951 32.0708C38.2619 33.0756 38.6237 33.9838 39.1228 34.9151C39.9048 36.4483 39.9048 36.4483 39.6477 37.3565C39.1095 37.9994 38.5204 38.5627 37.8899 39.1143C38.3742 40.2527 39.3515 41.0465 40.2093 41.9097C40.4763 42.1863 40.4763 42.1863 40.7487 42.4685C40.9206 42.6419 41.0926 42.8152 41.2698 42.9938C41.4268 43.1535 41.5839 43.3132 41.7457 43.4778C42.1528 43.849 42.1528 43.849 42.6112 43.7772C43.2501 43.4715 43.6442 42.9059 44.1018 42.3789C44.5306 42.044 44.5306 42.044 45.0883 41.957C45.8235 42.0611 46.3103 42.3077 46.9598 42.6665C48.2045 43.3316 49.4566 43.7853 50.8027 44.2031C51.3665 44.3877 51.3665 44.3877 51.5618 44.583C51.603 45.0681 51.6352 45.5497 51.6595 46.0357C51.6745 46.9989 51.6745 46.9989 51.9524 47.9033C54.0794 47.9033 56.2063 47.9033 58.3977 47.9033C58.4622 46.9366 58.5266 45.9698 58.5931 44.9737C59.1031 44.2086 59.6849 44.1044 60.5218 43.8384C61.7968 43.4159 62.9635 42.9216 64.1373 42.2591C64.7609 41.9963 65.1493 41.9421 65.8196 42.044C66.2911 42.4354 66.2911 42.4354 66.7229 42.9351C67.1352 43.4338 67.1352 43.4338 67.5774 43.8018C68.3837 43.762 68.7913 43.241 69.3322 42.6902C69.4221 42.5994 69.5121 42.5087 69.6047 42.4151C69.8907 42.1259 70.1745 41.8348 70.4583 41.5435C70.6522 41.3466 70.8462 41.1499 71.0404 40.9534C71.5153 40.4721 71.9882 39.989 72.4602 39.5049C71.978 38.6778 71.4447 38.0591 70.7665 37.3878C70.5071 36.9658 70.5071 36.9658 70.5247 36.4104C70.7243 35.718 71.0065 35.146 71.3494 34.5122C71.9465 33.3794 72.3556 32.2585 72.6899 31.018C72.8509 30.5205 72.8509 30.5205 73.2415 30.1299C73.9156 30.0666 74.5814 30.0392 75.2576 30.0193C75.628 30.0038 75.9975 29.9706 76.3665 29.9346C76.6499 29.3678 76.5872 28.8703 76.5877 28.2378C76.5879 28.1092 76.5881 27.9807 76.5883 27.8482C76.5884 27.5763 76.5881 27.3044 76.5873 27.0326C76.5862 26.6159 76.5873 26.1993 76.5885 25.7827C76.5884 25.5187 76.5881 25.2547 76.5877 24.9907C76.5874 24.6293 76.5874 24.6293 76.5871 24.2606C76.6016 23.6978 76.6016 23.6978 76.3665 23.294C75.8816 23.243 75.4123 23.2117 74.9261 23.1963C73.5157 23.1512 73.5157 23.1512 72.8509 22.708C72.646 22.1628 72.4679 21.6291 72.3016 21.0723C71.8847 19.7343 71.404 18.5504 70.7032 17.3331C70.4608 16.7343 70.4771 16.4746 70.7024 15.8721C71.0564 15.4555 71.0564 15.4555 71.4837 15.0664C72.1168 14.4942 72.1168 14.4942 72.4602 13.7237C71.8657 13.105 71.2681 12.4897 70.6673 11.8771C70.4634 11.6682 70.2603 11.4585 70.0581 11.2479C69.7676 10.9455 69.474 10.6463 69.1796 10.3477C69.0037 10.1666 68.8278 9.98558 68.6465 9.79905C68.208 9.37881 68.208 9.37881 67.7328 9.44433C67.1026 9.76378 66.7054 10.3232 66.2484 10.8497C65.8196 11.1846 65.8196 11.1846 65.2619 11.2716C64.5267 11.1675 64.0399 10.9208 63.3904 10.562C62.1518 9.898 60.9128 9.46023 59.5666 9.06363C58.9837 8.84085 58.9837 8.84085 58.5931 8.25491C58.4964 6.80471 58.4964 6.80471 58.3977 5.32522C56.2708 5.32522 54.1438 5.32522 51.9524 5.32522ZM27.1477 10.794C27.0833 11.503 27.0188 12.2119 26.9524 12.9424C26.3397 13.5552 26.0608 13.6666 25.2557 13.9068C24.5204 14.1362 23.8538 14.3754 23.1805 14.7491C22.4516 15.1263 21.9209 15.2442 21.0931 15.0908C20.6299 14.7371 20.3037 14.3668 19.9212 13.919C19.3485 14.177 18.9472 14.4554 18.5082 14.9032C18.3962 15.0165 18.2841 15.1298 18.1687 15.2465C17.9969 15.4232 17.9969 15.4232 17.8216 15.6035C17.704 15.7229 17.5864 15.8422 17.4653 15.9652C17.1762 16.2588 16.8884 16.5536 16.6009 16.8487C16.792 17.0725 16.9833 17.2963 17.1746 17.52C17.3343 17.707 17.3343 17.707 17.4973 17.8977C17.6493 18.0733 17.8039 18.247 17.9681 18.4112C18.0484 19.3392 17.8766 19.8854 17.4309 20.6939C16.9163 21.6649 16.5233 22.6247 16.1828 23.6686C16.0149 24.0752 16.0149 24.0752 15.6243 24.2705C14.9097 24.3574 14.1936 24.4074 13.4759 24.4658C13.4759 25.8838 13.4759 27.3018 13.4759 28.7627C13.8183 28.7829 14.1607 28.803 14.5135 28.8238C15.5036 28.882 15.5036 28.882 15.9501 29.1633C16.3533 29.7533 16.5643 30.4117 16.7962 31.0821C17.118 32.0021 17.4504 32.8137 17.9681 33.6455C18.0901 34.2071 18.0901 34.2071 17.9681 34.8174C17.5563 35.3255 17.0955 35.7581 16.6009 36.1846C17.5184 37.2903 18.5046 38.3042 19.5306 39.3096C20.0208 39.0818 20.3203 38.9102 20.7024 38.5161C21.1259 38.1059 21.3031 38.023 21.8743 37.9424C22.3943 38.1356 22.8769 38.3397 23.3758 38.5772C23.6552 38.7054 23.935 38.8331 24.215 38.9602C24.3496 39.0213 24.4841 39.0824 24.6228 39.1454C25.3178 39.4485 26.0349 39.6675 26.7571 39.8955C27.2378 40.3762 27.1041 41.8425 27.1477 42.4346C28.6302 42.4346 30.1126 42.4346 31.6399 42.4346C31.7044 41.6612 31.7688 40.8877 31.8352 40.0908C32.1011 39.976 32.1011 39.976 32.3724 39.8589C32.4955 39.8048 32.6186 39.7507 32.7454 39.6949C33.0888 39.5521 33.4372 39.4213 33.7876 39.2966C35.1354 38.8411 35.1354 38.8411 36.0467 37.8203C36.1393 37.6028 36.232 37.3853 36.3274 37.1612C36.5027 37.0041 36.5027 37.0041 36.6814 36.8438C36.9646 36.5788 36.9646 36.5788 36.889 36.1358C36.6792 35.4765 36.4166 34.8622 36.1321 34.2315C35.3328 34.532 34.593 34.9093 33.8372 35.3057C31.4143 36.5327 28.9879 36.7456 26.3482 35.9954C23.5549 35.0042 21.5846 33.1828 20.3118 30.5205C20.2061 30.2996 20.2061 30.2996 20.0982 30.0742C19.2823 27.9325 19.4157 24.9251 20.2615 22.8255C21.5371 20.187 23.3 18.2625 26.1224 17.2759C28.9947 16.3714 31.903 16.7902 34.5391 18.1609C34.9602 18.4112 34.9602 18.4112 35.3814 18.7346C35.7198 19.0354 35.7198 19.0354 36.1321 18.9971C36.2692 18.7218 36.4028 18.4447 36.535 18.167C36.6097 18.0129 36.6845 17.8589 36.7615 17.7001C36.9347 17.1746 36.926 16.9648 36.7181 16.458C36.3965 16.0641 36.071 15.6734 35.7415 15.2862C35.6448 14.9961 35.6448 14.9961 35.5462 14.7002C35.0495 14.4322 35.0495 14.4322 34.4475 14.2119C34.2366 14.1286 34.0256 14.0453 33.8082 13.9594C33.6083 13.8816 33.4084 13.8038 33.2024 13.7237C32.9251 13.6071 32.6483 13.4894 32.3724 13.3697C32.1951 13.2931 32.0179 13.2166 31.8352 13.1377C31.7386 11.9776 31.7386 11.9776 31.6399 10.794C30.1575 10.794 28.6751 10.794 27.1477 10.794ZM78.7102 10.794C78.6458 11.503 78.5813 12.2119 78.5149 12.9424C78.1555 13.6612 77.0852 13.8024 76.3474 14.0559C76.2092 14.1051 76.071 14.1544 75.9286 14.2051C75.802 14.2486 75.6754 14.2922 75.5449 14.337C75.1415 14.5304 74.9085 14.7618 74.6087 15.0908C74.4866 15.2089 74.3645 15.327 74.2387 15.4487C73.8648 15.8347 73.5344 16.2024 73.2415 16.6533C73.2771 17.2812 73.2771 17.2812 73.6321 17.8252C73.7369 18.0428 73.8416 18.2603 73.9495 18.4844C74.0824 18.7382 74.0824 18.7382 74.2181 18.9971C74.8498 18.7799 75.3741 18.4975 75.927 18.1304C77.9756 16.8201 80.4661 16.5891 82.8362 16.9387C85.4725 17.5222 87.691 18.948 89.2205 21.1822C90.6737 23.6493 91.0001 26.2931 90.4954 29.0854C89.7835 31.6772 88.249 33.8292 85.9017 35.1729C83.1132 36.5311 80.3041 36.8036 77.3431 35.794C76.4994 35.4349 75.6978 35.0539 74.9688 34.4939C74.6303 34.1931 74.6303 34.1931 74.2181 34.2315C74.0434 34.5386 73.8734 34.8484 73.7054 35.1592C73.6102 35.3314 73.515 35.5036 73.417 35.6811C73.1898 36.1692 73.1898 36.1692 73.3781 36.6019C74.1493 37.7067 74.8654 38.6449 76.1346 39.1265C76.3929 39.2258 76.3929 39.2258 76.6564 39.3271C77.0488 39.4691 77.4456 39.599 77.8435 39.7246C78.3196 39.8955 78.3196 39.8955 78.5149 40.2862C78.5794 40.9951 78.6438 41.7041 78.7102 42.4346C80.1927 42.4346 81.6751 42.4346 83.2024 42.4346C83.2105 42.06 83.2185 41.6853 83.2268 41.2993C83.2406 40.6608 83.2406 40.6608 83.3977 40.0908C83.9158 39.7529 83.9158 39.7529 84.5696 39.5049C84.7748 39.4223 84.98 39.3397 85.1914 39.2547C85.6268 39.0916 86.0622 38.9286 86.4976 38.7656C86.9774 38.5793 87.4296 38.3776 87.8899 38.1499C88.4759 37.9424 88.4759 37.9424 88.9764 38.0401C89.5669 38.4035 90.0916 38.8657 90.6243 39.3096C91.5911 38.3428 92.5579 37.376 93.554 36.3799C93.2313 35.6125 93.2313 35.6125 92.7483 35.2324C92.3821 34.8174 92.3821 34.8174 92.3257 34.2818C92.3904 33.5527 92.5939 33.0788 92.9192 32.4248C93.3852 31.4665 93.7997 30.5103 94.1674 29.5104C94.3352 29.1533 94.3352 29.1533 94.7259 28.958C95.4405 28.8711 96.1566 28.8211 96.8743 28.7627C96.8743 27.3448 96.8743 25.9268 96.8743 24.4658C96.3607 24.4296 96.3607 24.4296 95.8367 24.3926C95.0835 24.3394 94.7815 24.3076 94.1399 23.8799C93.9229 23.3756 93.7321 22.8839 93.554 22.3662C93.2147 21.4014 92.8448 20.4977 92.3821 19.583C92.2723 19.0215 92.2723 19.0215 92.3821 18.4112C92.7688 17.8955 93.1556 17.3799 93.554 16.8487C92.5872 15.8819 91.6204 14.9151 90.6243 13.919C89.9475 14.4991 89.9475 14.4991 89.2571 15.0908C88.1356 15.2807 87.3189 14.9159 86.3274 14.4439C86.063 14.3225 85.7985 14.2012 85.534 14.08C85.4068 14.0206 85.2797 13.9613 85.1487 13.9002C84.57 13.634 83.9843 13.3859 83.3977 13.1377C83.3011 11.9776 83.3011 11.9776 83.2024 10.794C81.72 10.794 80.2376 10.794 78.7102 10.794ZM23.5482 21.9275C22.0766 23.7982 21.8579 25.8793 22.0696 28.1768C22.5271 30.1793 23.9173 31.9006 25.5852 33.0596C27.8815 34.2165 29.7934 34.2415 32.2228 33.5021C32.8463 33.2404 33.2832 32.919 33.7884 32.4737C33.6082 32.3917 33.6082 32.3917 33.4244 32.3081C33.2666 32.2298 33.1087 32.1515 32.9461 32.0708C32.7897 31.9961 32.6334 31.9213 32.4723 31.8442C31.8797 31.3785 31.6609 30.8335 31.4446 30.1299C31.3883 29.5757 31.3577 29.0661 31.3599 28.5132C31.3589 28.3628 31.3579 28.2124 31.3568 28.0574C31.3556 27.7411 31.3558 27.4248 31.3575 27.1085C31.3592 26.6284 31.3535 26.1487 31.3473 25.6686C31.347 25.3595 31.3471 25.0504 31.3477 24.7413C31.3444 24.5291 31.3444 24.5291 31.3411 24.3126C31.3554 23.25 31.6386 22.4259 32.2259 21.5362C32.644 21.2127 32.644 21.2127 33.0559 21.0479C33.2629 20.9603 33.2629 20.9603 33.474 20.8709C33.5778 20.8326 33.6815 20.7943 33.7884 20.7549C32.6451 19.6116 30.9532 19.1542 29.3694 19.107C27.0268 19.2113 25.1551 20.2496 23.5482 21.9275ZM76.5618 20.5596C76.9983 20.9152 77.2867 21.1332 77.8435 21.2554C78.5313 21.661 78.5784 22.1173 78.7875 22.8664C78.999 23.9823 78.9846 25.1005 78.9712 26.2318C78.9666 26.6522 78.9672 27.0724 78.9685 27.4928C78.9624 29.0032 78.7993 30.2532 78.3196 31.6924C77.868 31.8999 77.868 31.8999 77.3431 32.083C77.0812 32.2104 76.8203 32.3396 76.5618 32.4737C77.8726 33.6616 79.5218 34.1153 81.2661 34.0896C83.5626 33.8741 85.2343 32.8848 86.7791 31.2285C88.2167 29.4595 88.4473 27.4572 88.2806 25.2471C87.8106 23.1282 86.5405 21.4006 84.7649 20.169C81.9509 18.7704 79.2292 18.878 76.5618 20.5596Z" fill="url(#paint0_linear_6108_30244)" stroke="url(#paint1_linear_6108_30244)"/>
<mask id="path-2-outside-1_6108_30244" maskUnits="userSpaceOnUse" x="-0.297852" y="46.458" width="95" height="53" fill="black">
<rect fill="white" x="-0.297852" y="46.458" width="95" height="53"/>
<path d="M90.8199 48.0984C92.109 49.0167 93.1959 50.0314 93.5543 51.614C93.8582 54.029 92.9463 55.5964 91.5157 57.4612C91.2699 57.7881 91.0242 58.1151 90.7787 58.4423C90.593 58.6884 90.593 58.6884 90.4036 58.9395C89.845 59.6849 89.3006 60.4402 88.757 61.1965C88.5471 61.4877 88.3373 61.7789 88.1275 62.0701C88.024 62.2139 87.9205 62.3577 87.8139 62.5058C87.2867 63.2377 86.7583 63.9688 86.2301 64.6999C86.0185 64.9929 85.8069 65.2859 85.5953 65.5788C85.1721 66.1648 84.749 66.7507 84.3258 67.3366C84.221 67.4817 84.1162 67.6268 84.0083 67.7763C83.7972 68.0685 83.5861 68.3607 83.3749 68.6529C82.8375 69.3966 82.3009 70.141 81.7661 70.8866C80.518 72.6251 79.2628 74.3536 77.9293 76.028C77.8067 76.1857 77.6841 76.3433 77.5578 76.5056C75.1838 79.3866 71.5144 81.2047 67.8202 81.5692C67.0564 81.5967 66.2947 81.602 65.5306 81.5972C65.2412 81.5983 64.9517 81.5997 64.6623 81.6014C64.0456 81.6044 63.4289 81.605 62.8122 81.6036C61.8351 81.6015 60.858 81.6049 59.8808 81.6091C58.3347 81.6149 56.7886 81.6173 55.2425 81.618C52.4739 81.6193 49.7053 81.625 46.9367 81.6346C45.9672 81.6378 44.9978 81.6389 44.0283 81.6382C43.4239 81.6381 42.8195 81.6396 42.215 81.6414C41.9369 81.642 41.6587 81.6418 41.3806 81.6409C38.9384 81.6338 36.7462 81.6979 34.7653 83.2546C34.206 83.8121 33.6942 84.3946 33.2028 85.0124C33.5895 85.9716 34.3664 86.5483 35.1139 87.2326C35.6158 87.8292 35.7408 88.1422 35.7418 88.9187C35.3803 89.6173 34.951 90.1487 34.3963 90.7022C34.2451 90.854 34.0939 91.0058 33.9381 91.1622C33.7758 91.3232 33.6134 91.4842 33.4461 91.65C33.2788 91.8172 33.1115 91.9844 32.9391 92.1567C32.5861 92.5092 32.2326 92.8611 31.8787 93.2126C31.3354 93.7524 30.7936 94.2937 30.2521 94.8353C29.909 95.1774 29.5658 95.5195 29.2225 95.8614C29.0597 96.024 28.897 96.1865 28.7293 96.354C28.5787 96.5033 28.4281 96.6526 28.273 96.8065C28.1403 96.9384 28.0076 97.0704 27.8709 97.2063C27.4332 97.6096 27.2018 97.7006 26.6063 97.7791C25.7907 97.6867 25.428 97.3241 24.8788 96.7604C24.7749 96.6585 24.671 96.5566 24.5639 96.4516C24.2166 96.1093 23.8735 95.763 23.5303 95.4166C23.2821 95.1703 23.0337 94.9243 22.7851 94.6786C22.1105 94.0102 21.4397 93.3381 20.7697 92.6651C20.2102 92.1038 19.6489 91.5444 19.0876 90.985C17.7635 89.6653 16.4424 88.3428 15.1232 87.0182C13.7617 85.6513 12.3957 84.2891 11.0273 82.9291C9.85286 81.7617 8.68115 80.5917 7.51159 79.4194C6.81289 78.7192 6.11325 78.0199 5.41112 77.323C4.75107 76.6677 4.09442 76.0091 3.44025 75.3479C3.19956 75.1057 2.9577 74.8647 2.7146 74.6249C2.38297 74.2974 2.05584 73.9661 1.7295 73.6333C1.63227 73.5393 1.53503 73.4452 1.43485 73.3483C0.923802 72.8171 0.782948 72.5315 0.702148 71.789C0.7972 71.0117 0.985616 70.7686 1.53323 70.2191C1.69759 70.051 1.86195 69.883 2.03129 69.7099C2.21132 69.5332 2.39135 69.3566 2.57683 69.1746C2.76254 68.9884 2.94802 68.8021 3.1333 68.6155C3.52161 68.2261 3.91224 67.8392 4.3047 67.4539C4.80691 66.9606 5.30323 66.4618 5.79801 65.961C6.1799 65.5756 6.56459 65.1932 6.95019 64.8115C7.22366 64.5399 7.49489 64.2661 7.76607 63.9922C7.93412 63.8285 8.10218 63.6647 8.27532 63.496C8.42192 63.351 8.56851 63.2059 8.71955 63.0564C9.30436 62.6626 9.65931 62.6679 10.3512 62.7468C10.7731 63.0115 10.7731 63.0115 11.1446 63.3694C11.3414 63.5552 11.3414 63.5552 11.5421 63.7447C11.6647 63.8666 11.7874 63.9884 11.9137 64.114C12.0182 64.2157 12.1227 64.3174 12.2303 64.4222C12.4533 64.642 12.6723 64.8658 12.8902 65.0905C15.4509 63.9997 17.714 60.861 19.6293 58.904C23.4681 54.9865 27.2739 51.881 33.0297 51.7809C33.3913 51.7783 33.7529 51.7769 34.1145 51.7765C34.3092 51.7758 34.504 51.7752 34.7047 51.7745C35.1149 51.7735 35.5251 51.7731 35.9353 51.7731C36.5545 51.7727 37.1737 51.7691 37.793 51.7654C44.3679 51.747 44.3679 51.747 46.9796 53.4051C49.3027 54.8541 51.2827 54.9823 53.973 54.9396C54.3844 54.9397 54.7959 54.9407 55.2073 54.9424C56.2804 54.945 57.3532 54.9375 58.4263 54.9275C59.9418 54.915 61.4573 54.9163 62.9728 54.9164C63.7773 54.9164 64.5817 54.9125 65.3863 54.9053C65.7545 54.9035 66.1227 54.9017 66.4909 54.8999C66.6547 54.8976 66.8185 54.8952 66.9873 54.8928C69.078 54.888 70.8537 55.3847 72.4262 56.8226C73.1366 57.6045 73.5893 58.4703 74.0231 59.4265C74.1524 59.6874 74.2823 59.9479 74.4137 60.2077C74.5089 60.1007 74.604 59.9937 74.7021 59.8835C75.739 58.724 76.7941 57.583 77.8568 56.4473C78.896 55.3366 79.9282 54.2199 80.9587 53.1012C81.2614 52.7731 81.5648 52.4456 81.8684 52.1183C82.0731 51.8973 82.2778 51.6763 82.4825 51.4553C82.5809 51.3493 82.6793 51.2433 82.7807 51.134C83.3183 50.5525 83.8399 49.9613 84.3502 49.3557C86.0294 47.4244 88.5399 46.8973 90.8199 48.0984ZM85.4244 51.9924C85.218 52.2205 85.0115 52.4487 84.8049 52.6768C84.6488 52.8505 84.6488 52.8505 84.4894 53.0278C84.0081 53.5617 83.52 54.0893 83.0319 54.6169C82.9364 54.7204 82.841 54.8238 82.7426 54.9304C81.8676 55.8784 80.9864 56.8208 80.1053 57.7632C79.2334 58.6966 78.3699 59.6372 77.5082 60.58C76.7564 61.4002 75.9962 62.2125 75.234 63.0229C74.6916 63.6009 74.1552 64.1815 73.6355 64.78C72.0985 66.5414 70.5513 67.8388 68.1424 68.0577C67.7033 68.0732 67.2657 68.0775 66.8264 68.077C66.5789 68.0789 66.5789 68.0789 66.3263 68.081C65.786 68.0846 65.2457 68.0854 64.7053 68.0858C64.3279 68.0871 63.9506 68.0884 63.5733 68.0898C62.7851 68.0921 61.997 68.0928 61.2088 68.0926C60.1977 68.0926 59.1868 68.0979 58.1758 68.1046C57.3979 68.109 56.62 68.1098 55.842 68.1096C55.4691 68.11 55.0961 68.1118 54.7232 68.1148C54.2033 68.1186 53.6836 68.1175 53.1637 68.1151C52.9322 68.1184 52.9322 68.1184 52.696 68.1218C51.6611 68.1098 51.6611 68.1098 51.1668 67.6626C50.8987 67.0667 50.9932 66.6844 51.1715 66.0671C51.7878 65.7589 52.4498 65.8419 53.1267 65.841C53.3692 65.8395 53.3692 65.8395 53.6166 65.838C53.9685 65.8359 54.3204 65.8342 54.6723 65.8329C55.2298 65.8306 55.7873 65.8268 56.3448 65.8225C57.9302 65.8105 59.5155 65.7999 61.1009 65.7934C62.0702 65.7893 63.0394 65.7824 64.0086 65.7737C64.3776 65.771 64.7467 65.7693 65.1157 65.7686C65.6332 65.7677 66.1506 65.7631 66.6681 65.7578C66.8196 65.7584 66.9712 65.759 67.1273 65.7596C68.6011 65.7372 69.7076 65.242 70.7981 64.2422C71.6376 63.3224 71.7901 62.2824 71.7465 61.0844C71.5675 59.7891 70.9027 58.9415 69.936 58.1035C68.7802 57.4201 67.5856 57.4212 66.2831 57.439C66.0074 57.4403 66.0074 57.4403 65.7262 57.4416C65.3287 57.4435 64.9312 57.4462 64.5337 57.4496C63.6843 57.456 62.8349 57.4555 61.9854 57.4554C60.4067 57.4554 58.8282 57.4583 57.2496 57.4726C56.1487 57.4824 55.0481 57.4833 53.9472 57.4789C53.5305 57.4788 53.1139 57.4818 52.6973 57.4881C50.2249 57.5244 48.42 57.3474 46.3383 55.9442C43.7022 54.1856 40.4722 54.2845 37.4289 54.2974C36.8431 54.2995 36.2574 54.2974 35.6716 54.295C29.6819 54.2901 26.2363 56.0415 22.0245 60.24C21.436 60.8301 20.8493 61.4218 20.2633 62.0144C17.476 64.8327 17.476 64.8327 16.3199 65.8064C15.8665 66.1944 15.4539 66.6155 15.0387 67.0437C15.3055 67.6409 15.6072 68.0513 16.0695 68.5121C16.2015 68.6446 16.3335 68.7771 16.4695 68.9137C16.6142 69.057 16.7589 69.2003 16.908 69.3479C17.0604 69.5005 17.2129 69.653 17.37 69.8101C17.8742 70.3141 18.3798 70.8166 18.8854 71.3192C19.2353 71.6683 19.585 72.0175 19.9347 72.3668C20.7613 73.192 21.5887 74.0164 22.4165 74.8403C23.3592 75.7785 24.3007 76.7179 25.2421 77.6573C27.1782 79.5894 29.1158 81.5201 31.0543 83.4499C31.5245 82.982 31.9922 82.5153 32.4421 82.0278C33.7931 80.5881 35.4822 79.4697 37.5036 79.2983C37.7131 79.2978 37.9226 79.2972 38.1384 79.2966C38.3803 79.295 38.6223 79.2934 38.8716 79.2917C39.1373 79.2919 39.4029 79.2921 39.6686 79.2923C39.9504 79.2911 40.2322 79.2898 40.514 79.2882C41.1199 79.2853 41.7257 79.2836 42.3316 79.2828C43.2924 79.2815 44.2533 79.2773 45.2141 79.2726C47.2569 79.263 49.2996 79.2567 51.3424 79.2507C53.5415 79.2442 55.7405 79.2371 57.9396 79.2265C58.8917 79.2219 59.8437 79.2192 60.7957 79.218C61.3928 79.2168 61.9898 79.214 62.5868 79.2109C62.8601 79.2097 63.1334 79.2092 63.4068 79.2095C67.8293 79.2122 71.7974 78.5687 75.0904 75.3956C75.8339 74.6346 76.4551 73.8025 77.0748 72.9397C77.1924 72.778 77.3099 72.6164 77.4311 72.4499C77.7937 71.9508 78.1546 71.4504 78.5153 70.9499C78.7326 70.6498 78.95 70.3497 79.1676 70.0497C79.6929 69.3242 80.2168 68.5976 80.7401 67.8706C81.373 66.9919 82.0075 66.1143 82.6417 65.2366C83.1688 64.507 83.6954 63.7771 84.2213 63.0466C85.1983 61.6902 86.1789 60.337 87.1749 58.9945C87.6314 58.3782 88.0849 57.7598 88.5376 57.1408C88.756 56.8432 88.9754 56.5463 89.196 56.2503C89.505 55.8345 89.8089 55.4155 90.1119 54.9953C90.2039 54.8737 90.2958 54.7521 90.3905 54.6267C91.0339 53.7192 91.1298 53.1144 91.0153 52.0046C90.5077 50.9489 89.9055 50.5171 88.8668 50.0515C87.3227 49.7994 86.377 50.9186 85.4244 51.9924ZM9.30052 66.0942C9.19729 66.1983 9.09407 66.3024 8.98772 66.4097C8.87044 66.527 8.75316 66.6443 8.63233 66.7652C8.50618 66.8933 8.38002 67.0215 8.25005 67.1535C8.12055 67.2836 7.99105 67.4136 7.85762 67.5476C7.44277 67.9647 7.0293 68.3831 6.61584 68.8015C6.33542 69.0839 6.05491 69.3661 5.77431 69.6483C5.08537 70.3416 4.39765 71.0361 3.71056 71.7312C4.73135 72.9682 5.85272 74.095 6.98767 75.2258C7.19955 75.4376 7.41139 75.6495 7.62319 75.8614C8.19488 76.4331 8.76717 77.0043 9.33958 77.5753C9.93894 78.1734 10.5377 78.7721 11.1366 79.3708C12.2692 80.5028 13.4023 81.6343 14.5356 82.7656C15.8264 84.0542 17.1167 85.3434 18.4069 86.6327C21.0596 89.2833 23.713 91.9332 26.3668 94.5827C26.9111 94.3201 27.3124 94.076 27.7388 93.6457C27.8482 93.5363 27.9576 93.4268 28.0704 93.3141C28.186 93.1964 28.3016 93.0788 28.4206 92.9577C28.5409 92.8368 28.6612 92.716 28.7851 92.5915C29.1681 92.2064 29.5497 91.8199 29.9313 91.4333C30.1911 91.1715 30.451 90.9099 30.711 90.6483C31.3473 90.0076 31.9824 89.3658 32.6168 88.7234C31.5963 87.4877 30.4787 86.3609 29.3459 85.2288C29.1347 85.0169 28.9235 84.8051 28.7123 84.5932C28.1422 84.0214 27.5715 83.4502 27.0007 82.8792C26.644 82.5224 26.2875 82.1655 25.931 81.8085C24.6874 80.5631 23.4434 79.3183 22.1989 78.0739C21.0381 76.9133 19.8785 75.7516 18.7194 74.5894C17.7235 73.591 16.7269 72.5933 15.7297 71.5962C15.1343 71.0009 14.5392 70.4052 13.9449 69.8088C13.3872 69.2493 12.8286 68.6907 12.2693 68.1328C12.0637 67.9274 11.8586 67.7218 11.6537 67.5158C11.3751 67.2357 11.0952 66.9569 10.8153 66.6782C10.6587 66.5216 10.5022 66.3649 10.3409 66.2035C9.91059 65.8282 9.75546 65.7186 9.30052 66.0942Z"/>
</mask>
<path d="M90.8199 48.0984C92.109 49.0167 93.1959 50.0314 93.5543 51.614C93.8582 54.029 92.9463 55.5964 91.5157 57.4612C91.2699 57.7881 91.0242 58.1151 90.7787 58.4423C90.593 58.6884 90.593 58.6884 90.4036 58.9395C89.845 59.6849 89.3006 60.4402 88.757 61.1965C88.5471 61.4877 88.3373 61.7789 88.1275 62.0701C88.024 62.2139 87.9205 62.3577 87.8139 62.5058C87.2867 63.2377 86.7583 63.9688 86.2301 64.6999C86.0185 64.9929 85.8069 65.2859 85.5953 65.5788C85.1721 66.1648 84.749 66.7507 84.3258 67.3366C84.221 67.4817 84.1162 67.6268 84.0083 67.7763C83.7972 68.0685 83.5861 68.3607 83.3749 68.6529C82.8375 69.3966 82.3009 70.141 81.7661 70.8866C80.518 72.6251 79.2628 74.3536 77.9293 76.028C77.8067 76.1857 77.6841 76.3433 77.5578 76.5056C75.1838 79.3866 71.5144 81.2047 67.8202 81.5692C67.0564 81.5967 66.2947 81.602 65.5306 81.5972C65.2412 81.5983 64.9517 81.5997 64.6623 81.6014C64.0456 81.6044 63.4289 81.605 62.8122 81.6036C61.8351 81.6015 60.858 81.6049 59.8808 81.6091C58.3347 81.6149 56.7886 81.6173 55.2425 81.618C52.4739 81.6193 49.7053 81.625 46.9367 81.6346C45.9672 81.6378 44.9978 81.6389 44.0283 81.6382C43.4239 81.6381 42.8195 81.6396 42.215 81.6414C41.9369 81.642 41.6587 81.6418 41.3806 81.6409C38.9384 81.6338 36.7462 81.6979 34.7653 83.2546C34.206 83.8121 33.6942 84.3946 33.2028 85.0124C33.5895 85.9716 34.3664 86.5483 35.1139 87.2326C35.6158 87.8292 35.7408 88.1422 35.7418 88.9187C35.3803 89.6173 34.951 90.1487 34.3963 90.7022C34.2451 90.854 34.0939 91.0058 33.9381 91.1622C33.7758 91.3232 33.6134 91.4842 33.4461 91.65C33.2788 91.8172 33.1115 91.9844 32.9391 92.1567C32.5861 92.5092 32.2326 92.8611 31.8787 93.2126C31.3354 93.7524 30.7936 94.2937 30.2521 94.8353C29.909 95.1774 29.5658 95.5195 29.2225 95.8614C29.0597 96.024 28.897 96.1865 28.7293 96.354C28.5787 96.5033 28.4281 96.6526 28.273 96.8065C28.1403 96.9384 28.0076 97.0704 27.8709 97.2063C27.4332 97.6096 27.2018 97.7006 26.6063 97.7791C25.7907 97.6867 25.428 97.3241 24.8788 96.7604C24.7749 96.6585 24.671 96.5566 24.5639 96.4516C24.2166 96.1093 23.8735 95.763 23.5303 95.4166C23.2821 95.1703 23.0337 94.9243 22.7851 94.6786C22.1105 94.0102 21.4397 93.3381 20.7697 92.6651C20.2102 92.1038 19.6489 91.5444 19.0876 90.985C17.7635 89.6653 16.4424 88.3428 15.1232 87.0182C13.7617 85.6513 12.3957 84.2891 11.0273 82.9291C9.85286 81.7617 8.68115 80.5917 7.51159 79.4194C6.81289 78.7192 6.11325 78.0199 5.41112 77.323C4.75107 76.6677 4.09442 76.0091 3.44025 75.3479C3.19956 75.1057 2.9577 74.8647 2.7146 74.6249C2.38297 74.2974 2.05584 73.9661 1.7295 73.6333C1.63227 73.5393 1.53503 73.4452 1.43485 73.3483C0.923802 72.8171 0.782948 72.5315 0.702148 71.789C0.7972 71.0117 0.985616 70.7686 1.53323 70.2191C1.69759 70.051 1.86195 69.883 2.03129 69.7099C2.21132 69.5332 2.39135 69.3566 2.57683 69.1746C2.76254 68.9884 2.94802 68.8021 3.1333 68.6155C3.52161 68.2261 3.91224 67.8392 4.3047 67.4539C4.80691 66.9606 5.30323 66.4618 5.79801 65.961C6.1799 65.5756 6.56459 65.1932 6.95019 64.8115C7.22366 64.5399 7.49489 64.2661 7.76607 63.9922C7.93412 63.8285 8.10218 63.6647 8.27532 63.496C8.42192 63.351 8.56851 63.2059 8.71955 63.0564C9.30436 62.6626 9.65931 62.6679 10.3512 62.7468C10.7731 63.0115 10.7731 63.0115 11.1446 63.3694C11.3414 63.5552 11.3414 63.5552 11.5421 63.7447C11.6647 63.8666 11.7874 63.9884 11.9137 64.114C12.0182 64.2157 12.1227 64.3174 12.2303 64.4222C12.4533 64.642 12.6723 64.8658 12.8902 65.0905C15.4509 63.9997 17.714 60.861 19.6293 58.904C23.4681 54.9865 27.2739 51.881 33.0297 51.7809C33.3913 51.7783 33.7529 51.7769 34.1145 51.7765C34.3092 51.7758 34.504 51.7752 34.7047 51.7745C35.1149 51.7735 35.5251 51.7731 35.9353 51.7731C36.5545 51.7727 37.1737 51.7691 37.793 51.7654C44.3679 51.747 44.3679 51.747 46.9796 53.4051C49.3027 54.8541 51.2827 54.9823 53.973 54.9396C54.3844 54.9397 54.7959 54.9407 55.2073 54.9424C56.2804 54.945 57.3532 54.9375 58.4263 54.9275C59.9418 54.915 61.4573 54.9163 62.9728 54.9164C63.7773 54.9164 64.5817 54.9125 65.3863 54.9053C65.7545 54.9035 66.1227 54.9017 66.4909 54.8999C66.6547 54.8976 66.8185 54.8952 66.9873 54.8928C69.078 54.888 70.8537 55.3847 72.4262 56.8226C73.1366 57.6045 73.5893 58.4703 74.0231 59.4265C74.1524 59.6874 74.2823 59.9479 74.4137 60.2077C74.5089 60.1007 74.604 59.9937 74.7021 59.8835C75.739 58.724 76.7941 57.583 77.8568 56.4473C78.896 55.3366 79.9282 54.2199 80.9587 53.1012C81.2614 52.7731 81.5648 52.4456 81.8684 52.1183C82.0731 51.8973 82.2778 51.6763 82.4825 51.4553C82.5809 51.3493 82.6793 51.2433 82.7807 51.134C83.3183 50.5525 83.8399 49.9613 84.3502 49.3557C86.0294 47.4244 88.5399 46.8973 90.8199 48.0984ZM85.4244 51.9924C85.218 52.2205 85.0115 52.4487 84.8049 52.6768C84.6488 52.8505 84.6488 52.8505 84.4894 53.0278C84.0081 53.5617 83.52 54.0893 83.0319 54.6169C82.9364 54.7204 82.841 54.8238 82.7426 54.9304C81.8676 55.8784 80.9864 56.8208 80.1053 57.7632C79.2334 58.6966 78.3699 59.6372 77.5082 60.58C76.7564 61.4002 75.9962 62.2125 75.234 63.0229C74.6916 63.6009 74.1552 64.1815 73.6355 64.78C72.0985 66.5414 70.5513 67.8388 68.1424 68.0577C67.7033 68.0732 67.2657 68.0775 66.8264 68.077C66.5789 68.0789 66.5789 68.0789 66.3263 68.081C65.786 68.0846 65.2457 68.0854 64.7053 68.0858C64.3279 68.0871 63.9506 68.0884 63.5733 68.0898C62.7851 68.0921 61.997 68.0928 61.2088 68.0926C60.1977 68.0926 59.1868 68.0979 58.1758 68.1046C57.3979 68.109 56.62 68.1098 55.842 68.1096C55.4691 68.11 55.0961 68.1118 54.7232 68.1148C54.2033 68.1186 53.6836 68.1175 53.1637 68.1151C52.9322 68.1184 52.9322 68.1184 52.696 68.1218C51.6611 68.1098 51.6611 68.1098 51.1668 67.6626C50.8987 67.0667 50.9932 66.6844 51.1715 66.0671C51.7878 65.7589 52.4498 65.8419 53.1267 65.841C53.3692 65.8395 53.3692 65.8395 53.6166 65.838C53.9685 65.8359 54.3204 65.8342 54.6723 65.8329C55.2298 65.8306 55.7873 65.8268 56.3448 65.8225C57.9302 65.8105 59.5155 65.7999 61.1009 65.7934C62.0702 65.7893 63.0394 65.7824 64.0086 65.7737C64.3776 65.771 64.7467 65.7693 65.1157 65.7686C65.6332 65.7677 66.1506 65.7631 66.6681 65.7578C66.8196 65.7584 66.9712 65.759 67.1273 65.7596C68.6011 65.7372 69.7076 65.242 70.7981 64.2422C71.6376 63.3224 71.7901 62.2824 71.7465 61.0844C71.5675 59.7891 70.9027 58.9415 69.936 58.1035C68.7802 57.4201 67.5856 57.4212 66.2831 57.439C66.0074 57.4403 66.0074 57.4403 65.7262 57.4416C65.3287 57.4435 64.9312 57.4462 64.5337 57.4496C63.6843 57.456 62.8349 57.4555 61.9854 57.4554C60.4067 57.4554 58.8282 57.4583 57.2496 57.4726C56.1487 57.4824 55.0481 57.4833 53.9472 57.4789C53.5305 57.4788 53.1139 57.4818 52.6973 57.4881C50.2249 57.5244 48.42 57.3474 46.3383 55.9442C43.7022 54.1856 40.4722 54.2845 37.4289 54.2974C36.8431 54.2995 36.2574 54.2974 35.6716 54.295C29.6819 54.2901 26.2363 56.0415 22.0245 60.24C21.436 60.8301 20.8493 61.4218 20.2633 62.0144C17.476 64.8327 17.476 64.8327 16.3199 65.8064C15.8665 66.1944 15.4539 66.6155 15.0387 67.0437C15.3055 67.6409 15.6072 68.0513 16.0695 68.5121C16.2015 68.6446 16.3335 68.7771 16.4695 68.9137C16.6142 69.057 16.7589 69.2003 16.908 69.3479C17.0604 69.5005 17.2129 69.653 17.37 69.8101C17.8742 70.3141 18.3798 70.8166 18.8854 71.3192C19.2353 71.6683 19.585 72.0175 19.9347 72.3668C20.7613 73.192 21.5887 74.0164 22.4165 74.8403C23.3592 75.7785 24.3007 76.7179 25.2421 77.6573C27.1782 79.5894 29.1158 81.5201 31.0543 83.4499C31.5245 82.982 31.9922 82.5153 32.4421 82.0278C33.7931 80.5881 35.4822 79.4697 37.5036 79.2983C37.7131 79.2978 37.9226 79.2972 38.1384 79.2966C38.3803 79.295 38.6223 79.2934 38.8716 79.2917C39.1373 79.2919 39.4029 79.2921 39.6686 79.2923C39.9504 79.2911 40.2322 79.2898 40.514 79.2882C41.1199 79.2853 41.7257 79.2836 42.3316 79.2828C43.2924 79.2815 44.2533 79.2773 45.2141 79.2726C47.2569 79.263 49.2996 79.2567 51.3424 79.2507C53.5415 79.2442 55.7405 79.2371 57.9396 79.2265C58.8917 79.2219 59.8437 79.2192 60.7957 79.218C61.3928 79.2168 61.9898 79.214 62.5868 79.2109C62.8601 79.2097 63.1334 79.2092 63.4068 79.2095C67.8293 79.2122 71.7974 78.5687 75.0904 75.3956C75.8339 74.6346 76.4551 73.8025 77.0748 72.9397C77.1924 72.778 77.3099 72.6164 77.4311 72.4499C77.7937 71.9508 78.1546 71.4504 78.5153 70.9499C78.7326 70.6498 78.95 70.3497 79.1676 70.0497C79.6929 69.3242 80.2168 68.5976 80.7401 67.8706C81.373 66.9919 82.0075 66.1143 82.6417 65.2366C83.1688 64.507 83.6954 63.7771 84.2213 63.0466C85.1983 61.6902 86.1789 60.337 87.1749 58.9945C87.6314 58.3782 88.0849 57.7598 88.5376 57.1408C88.756 56.8432 88.9754 56.5463 89.196 56.2503C89.505 55.8345 89.8089 55.4155 90.1119 54.9953C90.2039 54.8737 90.2958 54.7521 90.3905 54.6267C91.0339 53.7192 91.1298 53.1144 91.0153 52.0046C90.5077 50.9489 89.9055 50.5171 88.8668 50.0515C87.3227 49.7994 86.377 50.9186 85.4244 51.9924ZM9.30052 66.0942C9.19729 66.1983 9.09407 66.3024 8.98772 66.4097C8.87044 66.527 8.75316 66.6443 8.63233 66.7652C8.50618 66.8933 8.38002 67.0215 8.25005 67.1535C8.12055 67.2836 7.99105 67.4136 7.85762 67.5476C7.44277 67.9647 7.0293 68.3831 6.61584 68.8015C6.33542 69.0839 6.05491 69.3661 5.77431 69.6483C5.08537 70.3416 4.39765 71.0361 3.71056 71.7312C4.73135 72.9682 5.85272 74.095 6.98767 75.2258C7.19955 75.4376 7.41139 75.6495 7.62319 75.8614C8.19488 76.4331 8.76717 77.0043 9.33958 77.5753C9.93894 78.1734 10.5377 78.7721 11.1366 79.3708C12.2692 80.5028 13.4023 81.6343 14.5356 82.7656C15.8264 84.0542 17.1167 85.3434 18.4069 86.6327C21.0596 89.2833 23.713 91.9332 26.3668 94.5827C26.9111 94.3201 27.3124 94.076 27.7388 93.6457C27.8482 93.5363 27.9576 93.4268 28.0704 93.3141C28.186 93.1964 28.3016 93.0788 28.4206 92.9577C28.5409 92.8368 28.6612 92.716 28.7851 92.5915C29.1681 92.2064 29.5497 91.8199 29.9313 91.4333C30.1911 91.1715 30.451 90.9099 30.711 90.6483C31.3473 90.0076 31.9824 89.3658 32.6168 88.7234C31.5963 87.4877 30.4787 86.3609 29.3459 85.2288C29.1347 85.0169 28.9235 84.8051 28.7123 84.5932C28.1422 84.0214 27.5715 83.4502 27.0007 82.8792C26.644 82.5224 26.2875 82.1655 25.931 81.8085C24.6874 80.5631 23.4434 79.3183 22.1989 78.0739C21.0381 76.9133 19.8785 75.7516 18.7194 74.5894C17.7235 73.591 16.7269 72.5933 15.7297 71.5962C15.1343 71.0009 14.5392 70.4052 13.9449 69.8088C13.3872 69.2493 12.8286 68.6907 12.2693 68.1328C12.0637 67.9274 11.8586 67.7218 11.6537 67.5158C11.3751 67.2357 11.0952 66.9569 10.8153 66.6782C10.6587 66.5216 10.5022 66.3649 10.3409 66.2035C9.91059 65.8282 9.75546 65.7186 9.30052 66.0942Z" fill="url(#paint2_linear_6108_30244)"/>
<path d="M90.8199 48.0984C92.109 49.0167 93.1959 50.0314 93.5543 51.614C93.8582 54.029 92.9463 55.5964 91.5157 57.4612C91.2699 57.7881 91.0242 58.1151 90.7787 58.4423C90.593 58.6884 90.593 58.6884 90.4036 58.9395C89.845 59.6849 89.3006 60.4402 88.757 61.1965C88.5471 61.4877 88.3373 61.7789 88.1275 62.0701C88.024 62.2139 87.9205 62.3577 87.8139 62.5058C87.2867 63.2377 86.7583 63.9688 86.2301 64.6999C86.0185 64.9929 85.8069 65.2859 85.5953 65.5788C85.1721 66.1648 84.749 66.7507 84.3258 67.3366C84.221 67.4817 84.1162 67.6268 84.0083 67.7763C83.7972 68.0685 83.5861 68.3607 83.3749 68.6529C82.8375 69.3966 82.3009 70.141 81.7661 70.8866C80.518 72.6251 79.2628 74.3536 77.9293 76.028C77.8067 76.1857 77.6841 76.3433 77.5578 76.5056C75.1838 79.3866 71.5144 81.2047 67.8202 81.5692C67.0564 81.5967 66.2947 81.602 65.5306 81.5972C65.2412 81.5983 64.9517 81.5997 64.6623 81.6014C64.0456 81.6044 63.4289 81.605 62.8122 81.6036C61.8351 81.6015 60.858 81.6049 59.8808 81.6091C58.3347 81.6149 56.7886 81.6173 55.2425 81.618C52.4739 81.6193 49.7053 81.625 46.9367 81.6346C45.9672 81.6378 44.9978 81.6389 44.0283 81.6382C43.4239 81.6381 42.8195 81.6396 42.215 81.6414C41.9369 81.642 41.6587 81.6418 41.3806 81.6409C38.9384 81.6338 36.7462 81.6979 34.7653 83.2546C34.206 83.8121 33.6942 84.3946 33.2028 85.0124C33.5895 85.9716 34.3664 86.5483 35.1139 87.2326C35.6158 87.8292 35.7408 88.1422 35.7418 88.9187C35.3803 89.6173 34.951 90.1487 34.3963 90.7022C34.2451 90.854 34.0939 91.0058 33.9381 91.1622C33.7758 91.3232 33.6134 91.4842 33.4461 91.65C33.2788 91.8172 33.1115 91.9844 32.9391 92.1567C32.5861 92.5092 32.2326 92.8611 31.8787 93.2126C31.3354 93.7524 30.7936 94.2937 30.2521 94.8353C29.909 95.1774 29.5658 95.5195 29.2225 95.8614C29.0597 96.024 28.897 96.1865 28.7293 96.354C28.5787 96.5033 28.4281 96.6526 28.273 96.8065C28.1403 96.9384 28.0076 97.0704 27.8709 97.2063C27.4332 97.6096 27.2018 97.7006 26.6063 97.7791C25.7907 97.6867 25.428 97.3241 24.8788 96.7604C24.7749 96.6585 24.671 96.5566 24.5639 96.4516C24.2166 96.1093 23.8735 95.763 23.5303 95.4166C23.2821 95.1703 23.0337 94.9243 22.7851 94.6786C22.1105 94.0102 21.4397 93.3381 20.7697 92.6651C20.2102 92.1038 19.6489 91.5444 19.0876 90.985C17.7635 89.6653 16.4424 88.3428 15.1232 87.0182C13.7617 85.6513 12.3957 84.2891 11.0273 82.9291C9.85286 81.7617 8.68115 80.5917 7.51159 79.4194C6.81289 78.7192 6.11325 78.0199 5.41112 77.323C4.75107 76.6677 4.09442 76.0091 3.44025 75.3479C3.19956 75.1057 2.9577 74.8647 2.7146 74.6249C2.38297 74.2974 2.05584 73.9661 1.7295 73.6333C1.63227 73.5393 1.53503 73.4452 1.43485 73.3483C0.923802 72.8171 0.782948 72.5315 0.702148 71.789C0.7972 71.0117 0.985616 70.7686 1.53323 70.2191C1.69759 70.051 1.86195 69.883 2.03129 69.7099C2.21132 69.5332 2.39135 69.3566 2.57683 69.1746C2.76254 68.9884 2.94802 68.8021 3.1333 68.6155C3.52161 68.2261 3.91224 67.8392 4.3047 67.4539C4.80691 66.9606 5.30323 66.4618 5.79801 65.961C6.1799 65.5756 6.56459 65.1932 6.95019 64.8115C7.22366 64.5399 7.49489 64.2661 7.76607 63.9922C7.93412 63.8285 8.10218 63.6647 8.27532 63.496C8.42192 63.351 8.56851 63.2059 8.71955 63.0564C9.30436 62.6626 9.65931 62.6679 10.3512 62.7468C10.7731 63.0115 10.7731 63.0115 11.1446 63.3694C11.3414 63.5552 11.3414 63.5552 11.5421 63.7447C11.6647 63.8666 11.7874 63.9884 11.9137 64.114C12.0182 64.2157 12.1227 64.3174 12.2303 64.4222C12.4533 64.642 12.6723 64.8658 12.8902 65.0905C15.4509 63.9997 17.714 60.861 19.6293 58.904C23.4681 54.9865 27.2739 51.881 33.0297 51.7809C33.3913 51.7783 33.7529 51.7769 34.1145 51.7765C34.3092 51.7758 34.504 51.7752 34.7047 51.7745C35.1149 51.7735 35.5251 51.7731 35.9353 51.7731C36.5545 51.7727 37.1737 51.7691 37.793 51.7654C44.3679 51.747 44.3679 51.747 46.9796 53.4051C49.3027 54.8541 51.2827 54.9823 53.973 54.9396C54.3844 54.9397 54.7959 54.9407 55.2073 54.9424C56.2804 54.945 57.3532 54.9375 58.4263 54.9275C59.9418 54.915 61.4573 54.9163 62.9728 54.9164C63.7773 54.9164 64.5817 54.9125 65.3863 54.9053C65.7545 54.9035 66.1227 54.9017 66.4909 54.8999C66.6547 54.8976 66.8185 54.8952 66.9873 54.8928C69.078 54.888 70.8537 55.3847 72.4262 56.8226C73.1366 57.6045 73.5893 58.4703 74.0231 59.4265C74.1524 59.6874 74.2823 59.9479 74.4137 60.2077C74.5089 60.1007 74.604 59.9937 74.7021 59.8835C75.739 58.724 76.7941 57.583 77.8568 56.4473C78.896 55.3366 79.9282 54.2199 80.9587 53.1012C81.2614 52.7731 81.5648 52.4456 81.8684 52.1183C82.0731 51.8973 82.2778 51.6763 82.4825 51.4553C82.5809 51.3493 82.6793 51.2433 82.7807 51.134C83.3183 50.5525 83.8399 49.9613 84.3502 49.3557C86.0294 47.4244 88.5399 46.8973 90.8199 48.0984ZM85.4244 51.9924C85.218 52.2205 85.0115 52.4487 84.8049 52.6768C84.6488 52.8505 84.6488 52.8505 84.4894 53.0278C84.0081 53.5617 83.52 54.0893 83.0319 54.6169C82.9364 54.7204 82.841 54.8238 82.7426 54.9304C81.8676 55.8784 80.9864 56.8208 80.1053 57.7632C79.2334 58.6966 78.3699 59.6372 77.5082 60.58C76.7564 61.4002 75.9962 62.2125 75.234 63.0229C74.6916 63.6009 74.1552 64.1815 73.6355 64.78C72.0985 66.5414 70.5513 67.8388 68.1424 68.0577C67.7033 68.0732 67.2657 68.0775 66.8264 68.077C66.5789 68.0789 66.5789 68.0789 66.3263 68.081C65.786 68.0846 65.2457 68.0854 64.7053 68.0858C64.3279 68.0871 63.9506 68.0884 63.5733 68.0898C62.7851 68.0921 61.997 68.0928 61.2088 68.0926C60.1977 68.0926 59.1868 68.0979 58.1758 68.1046C57.3979 68.109 56.62 68.1098 55.842 68.1096C55.4691 68.11 55.0961 68.1118 54.7232 68.1148C54.2033 68.1186 53.6836 68.1175 53.1637 68.1151C52.9322 68.1184 52.9322 68.1184 52.696 68.1218C51.6611 68.1098 51.6611 68.1098 51.1668 67.6626C50.8987 67.0667 50.9932 66.6844 51.1715 66.0671C51.7878 65.7589 52.4498 65.8419 53.1267 65.841C53.3692 65.8395 53.3692 65.8395 53.6166 65.838C53.9685 65.8359 54.3204 65.8342 54.6723 65.8329C55.2298 65.8306 55.7873 65.8268 56.3448 65.8225C57.9302 65.8105 59.5155 65.7999 61.1009 65.7934C62.0702 65.7893 63.0394 65.7824 64.0086 65.7737C64.3776 65.771 64.7467 65.7693 65.1157 65.7686C65.6332 65.7677 66.1506 65.7631 66.6681 65.7578C66.8196 65.7584 66.9712 65.759 67.1273 65.7596C68.6011 65.7372 69.7076 65.242 70.7981 64.2422C71.6376 63.3224 71.7901 62.2824 71.7465 61.0844C71.5675 59.7891 70.9027 58.9415 69.936 58.1035C68.7802 57.4201 67.5856 57.4212 66.2831 57.439C66.0074 57.4403 66.0074 57.4403 65.7262 57.4416C65.3287 57.4435 64.9312 57.4462 64.5337 57.4496C63.6843 57.456 62.8349 57.4555 61.9854 57.4554C60.4067 57.4554 58.8282 57.4583 57.2496 57.4726C56.1487 57.4824 55.0481 57.4833 53.9472 57.4789C53.5305 57.4788 53.1139 57.4818 52.6973 57.4881C50.2249 57.5244 48.42 57.3474 46.3383 55.9442C43.7022 54.1856 40.4722 54.2845 37.4289 54.2974C36.8431 54.2995 36.2574 54.2974 35.6716 54.295C29.6819 54.2901 26.2363 56.0415 22.0245 60.24C21.436 60.8301 20.8493 61.4218 20.2633 62.0144C17.476 64.8327 17.476 64.8327 16.3199 65.8064C15.8665 66.1944 15.4539 66.6155 15.0387 67.0437C15.3055 67.6409 15.6072 68.0513 16.0695 68.5121C16.2015 68.6446 16.3335 68.7771 16.4695 68.9137C16.6142 69.057 16.7589 69.2003 16.908 69.3479C17.0604 69.5005 17.2129 69.653 17.37 69.8101C17.8742 70.3141 18.3798 70.8166 18.8854 71.3192C19.2353 71.6683 19.585 72.0175 19.9347 72.3668C20.7613 73.192 21.5887 74.0164 22.4165 74.8403C23.3592 75.7785 24.3007 76.7179 25.2421 77.6573C27.1782 79.5894 29.1158 81.5201 31.0543 83.4499C31.5245 82.982 31.9922 82.5153 32.4421 82.0278C33.7931 80.5881 35.4822 79.4697 37.5036 79.2983C37.7131 79.2978 37.9226 79.2972 38.1384 79.2966C38.3803 79.295 38.6223 79.2934 38.8716 79.2917C39.1373 79.2919 39.4029 79.2921 39.6686 79.2923C39.9504 79.2911 40.2322 79.2898 40.514 79.2882C41.1199 79.2853 41.7257 79.2836 42.3316 79.2828C43.2924 79.2815 44.2533 79.2773 45.2141 79.2726C47.2569 79.263 49.2996 79.2567 51.3424 79.2507C53.5415 79.2442 55.7405 79.2371 57.9396 79.2265C58.8917 79.2219 59.8437 79.2192 60.7957 79.218C61.3928 79.2168 61.9898 79.214 62.5868 79.2109C62.8601 79.2097 63.1334 79.2092 63.4068 79.2095C67.8293 79.2122 71.7974 78.5687 75.0904 75.3956C75.8339 74.6346 76.4551 73.8025 77.0748 72.9397C77.1924 72.778 77.3099 72.6164 77.4311 72.4499C77.7937 71.9508 78.1546 71.4504 78.5153 70.9499C78.7326 70.6498 78.95 70.3497 79.1676 70.0497C79.6929 69.3242 80.2168 68.5976 80.7401 67.8706C81.373 66.9919 82.0075 66.1143 82.6417 65.2366C83.1688 64.507 83.6954 63.7771 84.2213 63.0466C85.1983 61.6902 86.1789 60.337 87.1749 58.9945C87.6314 58.3782 88.0849 57.7598 88.5376 57.1408C88.756 56.8432 88.9754 56.5463 89.196 56.2503C89.505 55.8345 89.8089 55.4155 90.1119 54.9953C90.2039 54.8737 90.2958 54.7521 90.3905 54.6267C91.0339 53.7192 91.1298 53.1144 91.0153 52.0046C90.5077 50.9489 89.9055 50.5171 88.8668 50.0515C87.3227 49.7994 86.377 50.9186 85.4244 51.9924ZM9.30052 66.0942C9.19729 66.1983 9.09407 66.3024 8.98772 66.4097C8.87044 66.527 8.75316 66.6443 8.63233 66.7652C8.50618 66.8933 8.38002 67.0215 8.25005 67.1535C8.12055 67.2836 7.99105 67.4136 7.85762 67.5476C7.44277 67.9647 7.0293 68.3831 6.61584 68.8015C6.33542 69.0839 6.05491 69.3661 5.77431 69.6483C5.08537 70.3416 4.39765 71.0361 3.71056 71.7312C4.73135 72.9682 5.85272 74.095 6.98767 75.2258C7.19955 75.4376 7.41139 75.6495 7.62319 75.8614C8.19488 76.4331 8.76717 77.0043 9.33958 77.5753C9.93894 78.1734 10.5377 78.7721 11.1366 79.3708C12.2692 80.5028 13.4023 81.6343 14.5356 82.7656C15.8264 84.0542 17.1167 85.3434 18.4069 86.6327C21.0596 89.2833 23.713 91.9332 26.3668 94.5827C26.9111 94.3201 27.3124 94.076 27.7388 93.6457C27.8482 93.5363 27.9576 93.4268 28.0704 93.3141C28.186 93.1964 28.3016 93.0788 28.4206 92.9577C28.5409 92.8368 28.6612 92.716 28.7851 92.5915C29.1681 92.2064 29.5497 91.8199 29.9313 91.4333C30.1911 91.1715 30.451 90.9099 30.711 90.6483C31.3473 90.0076 31.9824 89.3658 32.6168 88.7234C31.5963 87.4877 30.4787 86.3609 29.3459 85.2288C29.1347 85.0169 28.9235 84.8051 28.7123 84.5932C28.1422 84.0214 27.5715 83.4502 27.0007 82.8792C26.644 82.5224 26.2875 82.1655 25.931 81.8085C24.6874 80.5631 23.4434 79.3183 22.1989 78.0739C21.0381 76.9133 19.8785 75.7516 18.7194 74.5894C17.7235 73.591 16.7269 72.5933 15.7297 71.5962C15.1343 71.0009 14.5392 70.4052 13.9449 69.8088C13.3872 69.2493 12.8286 68.6907 12.2693 68.1328C12.0637 67.9274 11.8586 67.7218 11.6537 67.5158C11.3751 67.2357 11.0952 66.9569 10.8153 66.6782C10.6587 66.5216 10.5022 66.3649 10.3409 66.2035C9.91059 65.8282 9.75546 65.7186 9.30052 66.0942Z" stroke="url(#paint3_linear_6108_30244)" stroke-width="1.6" mask="url(#path-2-outside-1_6108_30244)"/>
<path d="M64.8483 16.7305L64.8483 16.7304L64.8462 16.7286L64.431 16.3635C64.4308 16.3633 64.4306 16.3632 64.4305 16.363C61.5169 13.7267 57.8342 12.5715 53.9296 12.8022L53.9295 12.802L53.9238 12.8027C50.6487 13.1917 47.1688 14.6011 44.986 17.1865L44.9859 17.1864L44.9826 17.1907L44.656 17.6241C43.4209 19.0728 42.4796 20.6487 41.9033 22.4707L41.9033 22.4707L41.9024 22.4736C40.9479 25.8531 41.1277 29.7712 42.8303 32.9003L42.8302 32.9003L42.8317 32.9028L43.0409 33.2614C43.041 33.2616 43.0411 33.2618 43.0412 33.262C43.6505 34.34 44.3035 35.291 45.1756 36.182L45.1756 36.1821L45.1781 36.1845C48.4782 39.3211 51.8785 40.3966 56.3672 40.3319L56.3695 40.3318C59.6632 40.206 62.9017 38.6155 65.1363 36.2109L65.1363 36.2109L65.1388 36.2081L65.5104 35.7759C67.9339 32.9614 69.104 29.6158 68.9761 25.8894L68.9761 25.8894L68.9759 25.8858C68.7304 22.4555 67.4022 19.1104 64.8483 16.7305ZM53.3152 37.7575L53.3152 37.7575L53.3129 37.7572C51.0351 37.4404 49.0102 36.2657 47.2982 34.7488C45.2983 32.726 44.0222 30.1197 43.8942 27.2705C43.8073 23.8274 44.9103 20.9864 47.2882 18.4586C50.5533 15.4056 55.6175 14.302 59.6877 16.2937C59.6879 16.2938 59.6882 16.2939 59.6884 16.294L60.0485 16.4782L60.0486 16.4782C60.0855 16.4971 60.1224 16.5159 60.1592 16.5346C60.9672 16.9464 61.7422 17.3413 62.3855 17.9672L62.6881 18.2877L62.688 18.2878L62.6904 18.2901C63.2058 18.801 63.71 19.3124 64.1867 19.8557C66.0091 22.034 66.625 25.0581 66.4101 27.8484C65.9882 30.8985 64.4976 33.4869 62.1625 35.4575C59.7559 37.2976 56.7768 38.2243 53.7543 37.8291L53.3152 37.7575Z" fill="url(#paint4_linear_6108_30244)" stroke="url(#paint5_linear_6108_30244)" stroke-width="0.195312"/>
<path d="M59.7064 22.6344C60.0664 22.8618 60.2025 23.0362 60.322 23.4445C60.4313 24.0806 60.4041 24.3918 60.0279 24.9364C59.6287 25.4468 59.1618 25.8956 58.704 26.3529C58.5938 26.4637 58.4836 26.5744 58.3701 26.6885C58.1376 26.9217 57.9048 27.1546 57.6717 27.3872C57.3158 27.7426 56.9617 28.0999 56.6077 28.4573C56.3812 28.6841 56.1545 28.9109 55.9278 29.1375C55.8224 29.2441 55.717 29.3507 55.6084 29.4606C54.4141 30.6449 54.4141 30.6449 53.5017 30.6787C52.8153 30.4657 52.4514 30.0919 51.9464 29.5916C51.7881 29.4398 51.6297 29.2881 51.4713 29.1364C51.3005 28.9706 51.13 28.8046 50.9596 28.6384C50.8767 28.5584 50.7939 28.4784 50.7085 28.396C50.2881 27.9786 49.9558 27.6401 49.8057 27.0496C49.8157 26.4849 49.8882 26.1884 50.207 25.72C50.6735 25.3993 50.9419 25.3303 51.4995 25.3609C52.0953 25.5191 52.4686 25.9447 52.8829 26.3806C53.0166 26.5117 53.1504 26.6427 53.2843 26.7736C53.3726 26.8647 53.4609 26.9557 53.5519 27.0496C53.9382 26.8749 54.2103 26.6906 54.5056 26.3874C54.5838 26.3079 54.662 26.2284 54.7425 26.1466C54.8669 26.0182 54.8669 26.0182 54.9938 25.8872C55.1719 25.7064 55.3501 25.5256 55.5282 25.3447C55.8074 25.0597 56.0864 24.7743 56.3649 24.4885C56.6345 24.2125 56.9053 23.9377 57.1763 23.6629C57.259 23.5773 57.3416 23.4918 57.4268 23.4036C58.1474 22.6748 58.6552 22.3668 59.7064 22.6344Z" fill="url(#paint6_linear_6108_30244)"/>
</g>
<defs>
<linearGradient id="paint0_linear_6108_30244" x1="16.7922" y1="38.5726" x2="64.5446" y2="-12.386" gradientUnits="userSpaceOnUse">
<stop stop-color="#0538FF"/>
<stop offset="1" stop-color="#6B57F5"/>
</linearGradient>
<linearGradient id="paint1_linear_6108_30244" x1="16.7922" y1="38.5726" x2="64.5446" y2="-12.386" gradientUnits="userSpaceOnUse">
<stop stop-color="#0538FF"/>
<stop offset="1" stop-color="#6B57F5"/>
</linearGradient>
<linearGradient id="paint2_linear_6108_30244" x1="6.92598" y1="85.1989" x2="57.1445" y2="31.6663" gradientUnits="userSpaceOnUse">
<stop stop-color="#0538FF"/>
<stop offset="1" stop-color="#6B57F5"/>
</linearGradient>
<linearGradient id="paint3_linear_6108_30244" x1="6.92598" y1="85.1989" x2="57.1445" y2="31.6663" gradientUnits="userSpaceOnUse">
<stop stop-color="#0538FF"/>
<stop offset="1" stop-color="#6B57F5"/>
</linearGradient>
<linearGradient id="paint4_linear_6108_30244" x1="43.2636" y1="33.3955" x2="67.0054" y2="19.6389" gradientUnits="userSpaceOnUse">
<stop stop-color="#0538FF"/>
<stop offset="1" stop-color="#6B57F5"/>
</linearGradient>
<linearGradient id="paint5_linear_6108_30244" x1="43.2636" y1="33.3955" x2="67.0054" y2="19.6389" gradientUnits="userSpaceOnUse">
<stop stop-color="#0538FF"/>
<stop offset="1" stop-color="#6B57F5"/>
</linearGradient>
<linearGradient id="paint6_linear_6108_30244" x1="50.5139" y1="28.6438" x2="58.3277" y2="22.7842" gradientUnits="userSpaceOnUse">
<stop stop-color="#0538FF"/>
<stop offset="1" stop-color="#6B57F5"/>
</linearGradient>
<clipPath id="clip0_6108_30244">
<rect width="100" height="100" fill="white" transform="translate(0 0.24707)"/>
</clipPath>
</defs>
</svg>
