<svg width="100" height="101" viewBox="0 0 100 101" fill="none" xmlns="http://www.w3.org/2000/svg">
<path d="M74.974 40.8151C75.1981 40.8131 75.1981 40.8131 75.4268 40.8111C75.9184 40.8074 76.4098 40.8067 76.9014 40.8062C77.2453 40.805 77.5893 40.8037 77.9333 40.8023C78.6537 40.8 79.3741 40.7992 80.0945 40.7995C81.0134 40.7995 81.9323 40.7942 82.8512 40.7874C83.5617 40.7831 84.2721 40.7823 84.9826 40.7825C85.3212 40.7821 85.6597 40.7803 85.9983 40.7773C88.2949 40.7586 90.3195 40.8445 92.0839 42.4923C93.3886 43.9435 93.8094 45.4327 93.8024 47.3481C93.8032 47.5263 93.8041 47.7046 93.805 47.8883C93.8075 48.4847 93.8072 49.0811 93.8069 49.6775C93.808 50.1055 93.8094 50.5336 93.8108 50.9616C93.8143 52.1238 93.8152 53.286 93.8155 54.4483C93.8157 55.1747 93.8166 55.901 93.8176 56.6274C93.821 59.0316 93.8229 61.4358 93.8226 63.84C93.8225 63.9696 93.8225 64.0991 93.8225 64.2325C93.8225 64.3622 93.8225 64.4918 93.8225 64.6254C93.8223 66.7256 93.826 68.8259 93.8315 70.9261C93.8372 73.0851 93.8398 75.2441 93.8395 77.4031C93.8394 78.6142 93.8405 79.8252 93.8447 81.0363C93.8485 82.1759 93.8485 83.3153 93.8456 84.4548C93.8452 84.8723 93.8461 85.2897 93.8485 85.7071C93.8515 86.2786 93.8497 86.8499 93.8467 87.4214C93.8487 87.5852 93.8507 87.7489 93.8528 87.9176C93.8335 89.5863 93.2763 91.1028 92.1296 92.3306C90.7741 93.5493 89.3439 94.0559 87.5263 94.0536C87.3768 94.0549 87.2274 94.0562 87.0734 94.0576C86.5819 94.0613 86.0904 94.062 85.5989 94.0625C85.2549 94.0637 84.911 94.065 84.567 94.0664C83.8466 94.0687 83.1262 94.0695 82.4058 94.0692C81.4868 94.0692 80.568 94.0745 79.6491 94.0813C78.9386 94.0856 78.2281 94.0864 77.5176 94.0862C77.1791 94.0866 76.8405 94.0884 76.502 94.0914C74.2054 94.1101 72.1808 94.0242 70.4164 92.3764C69.1117 90.9252 68.6909 89.436 68.6979 87.5207C68.6966 87.2532 68.6966 87.2532 68.6952 86.9804C68.6927 86.384 68.6931 85.7876 68.6934 85.1912C68.6922 84.7632 68.6909 84.3351 68.6894 83.9071C68.686 82.7449 68.685 81.5827 68.6848 80.4205C68.6845 79.6941 68.6837 78.9677 68.6826 78.2413C68.6792 75.8371 68.6774 73.4329 68.6777 71.0287C68.6777 70.8992 68.6777 70.7696 68.6777 70.6362C68.6778 70.5066 68.6778 70.3769 68.6778 70.2433C68.678 68.1431 68.6742 66.0428 68.6687 63.9426C68.6631 61.7836 68.6605 59.6246 68.6607 57.4657C68.6608 56.2545 68.6597 55.0435 68.6556 53.8324C68.6518 52.6929 68.6518 51.5534 68.6546 50.4139C68.655 49.9965 68.6541 49.579 68.6517 49.1616C68.6487 48.5901 68.6505 48.0188 68.6535 47.4473C68.6515 47.2835 68.6495 47.1198 68.6475 46.9511C68.6667 45.2824 69.2239 43.7659 70.3706 42.5381C71.7261 41.3194 73.1563 40.8128 74.974 40.8151Z" stroke="url(#paint0_linear_6108_30259)" stroke-width="4"/>
<path d="M43.7238 56.4401C43.948 56.4381 43.948 56.4381 44.1767 56.4361C44.6682 56.4324 45.1597 56.4317 45.6512 56.4312C45.9952 56.43 46.3392 56.4287 46.6831 56.4273C47.4035 56.425 48.1239 56.4242 48.8443 56.4245C49.7633 56.4245 50.6821 56.4192 51.601 56.4124C52.3115 56.4081 53.022 56.4073 53.7325 56.4075C54.071 56.4071 54.4096 56.4053 54.7481 56.4023C57.0447 56.3836 59.0693 56.4695 60.8337 58.1173C61.9429 59.351 62.5468 60.7098 62.5522 62.3799C62.5547 62.733 62.5547 62.733 62.5573 63.0933C62.557 63.4769 62.557 63.4769 62.5567 63.8682C62.5579 64.1423 62.5592 64.4164 62.5607 64.6905C62.5641 65.433 62.5651 66.1756 62.5653 66.9181C62.5656 67.3828 62.5664 67.8474 62.5675 68.3121C62.5711 69.9353 62.5727 71.5585 62.5724 73.1818C62.5721 74.6913 62.5762 76.2008 62.5824 77.7103C62.5875 79.0091 62.5896 80.3079 62.5894 81.6067C62.5893 82.3812 62.5904 83.1556 62.5945 83.93C62.5983 84.6592 62.5983 85.3882 62.5955 86.1173C62.5949 86.5097 62.5981 86.9021 62.6015 87.2945C62.5881 89.2421 62.2394 90.8745 60.8795 92.3306C59.524 93.5493 58.0938 94.0559 56.2761 94.0536C56.1267 94.0549 55.9772 94.0562 55.8233 94.0576C55.3318 94.0613 54.8403 94.062 54.3487 94.0625C54.0048 94.0637 53.6608 94.065 53.3168 94.0664C52.5964 94.0687 51.8761 94.0695 51.1556 94.0692C50.2367 94.0692 49.3178 94.0745 48.3989 94.0813C47.6884 94.0856 46.978 94.0864 46.2675 94.0862C45.9289 94.0866 45.5904 94.0884 45.2519 94.0914C42.9552 94.1101 40.9306 94.0242 39.1662 92.3764C38.0571 91.1427 37.4531 89.7839 37.4477 88.1138C37.4461 87.8784 37.4444 87.643 37.4427 87.4004C37.4429 87.1447 37.4431 86.889 37.4432 86.6255C37.4421 86.3514 37.4407 86.0773 37.4393 85.8032C37.4358 85.0607 37.4349 84.3182 37.4346 83.5756C37.4344 83.1109 37.4335 82.6463 37.4325 82.1816C37.4289 80.5584 37.4273 78.9352 37.4276 77.3119C37.4278 75.8024 37.4237 74.2929 37.4175 72.7834C37.4124 71.4846 37.4103 70.1858 37.4106 68.887C37.4107 68.1125 37.4096 67.3381 37.4054 66.5637C37.4016 65.8345 37.4016 65.1055 37.4045 64.3764C37.4051 63.984 37.4018 63.5916 37.3984 63.1992C37.4119 61.2516 37.7606 59.6192 39.1205 58.1631C40.476 56.9444 41.9062 56.4378 43.7238 56.4401Z" stroke="url(#paint1_linear_6108_30259)" stroke-width="4"/>
<path d="M12.4738 65.8151C12.698 65.8131 12.698 65.8131 12.9267 65.8111C13.4182 65.8074 13.9097 65.8067 14.4012 65.8062C14.7452 65.805 15.0892 65.8037 15.4331 65.8023C16.1535 65.8 16.8739 65.7992 17.5943 65.7995C18.5133 65.7995 19.4321 65.7942 20.351 65.7874C21.0615 65.7831 21.772 65.7823 22.4825 65.7825C22.821 65.7821 23.1596 65.7803 23.4981 65.7773C25.7947 65.7586 27.8193 65.8445 29.5837 67.4923C30.8987 68.955 31.3088 70.4537 31.3067 72.3826C31.308 72.5625 31.3093 72.7424 31.3107 72.9278C31.3144 73.5208 31.3152 74.1137 31.3156 74.7067C31.3168 75.1207 31.3182 75.5347 31.3195 75.9488C31.3219 76.8163 31.3226 77.6838 31.3224 78.5513C31.3223 79.6595 31.3277 80.7675 31.3344 81.8756C31.3387 82.7308 31.3395 83.586 31.3393 84.4413C31.3398 84.8496 31.3415 85.2579 31.3445 85.6662C31.3484 86.2392 31.3472 86.812 31.3449 87.385C31.3471 87.5515 31.3493 87.718 31.3515 87.8895C31.3342 89.5713 30.7863 91.092 29.6295 92.3306C28.274 93.5493 26.8438 94.0559 25.0261 94.0536C24.8767 94.0549 24.7272 94.0562 24.5733 94.0576C24.0818 94.0613 23.5903 94.062 23.0987 94.0625C22.7548 94.0637 22.4108 94.065 22.0668 94.0664C21.3464 94.0687 20.6261 94.0695 19.9056 94.0692C18.9867 94.0692 18.0678 94.0745 17.1489 94.0813C16.4384 94.0856 15.728 94.0864 15.0175 94.0862C14.6789 94.0866 14.3404 94.0884 14.0019 94.0914C11.7052 94.1101 9.68063 94.0242 7.91624 92.3764C6.60122 90.9137 6.1912 89.415 6.19324 87.4861C6.19127 87.2162 6.19127 87.2162 6.18926 86.9409C6.18556 86.3479 6.18479 85.755 6.18437 85.162C6.18311 84.748 6.1818 84.334 6.18043 83.9199C6.17809 83.0524 6.17736 82.1849 6.1776 81.3174C6.17764 80.2093 6.17231 79.1012 6.16558 77.9931C6.16122 77.1379 6.16044 76.2827 6.16065 75.4274C6.16019 75.0191 6.15847 74.6108 6.15544 74.2025C6.15158 73.6295 6.15275 73.0567 6.15509 72.4837C6.15289 72.3172 6.1507 72.1508 6.14844 71.9792C6.1658 70.2974 6.71365 68.7767 7.87046 67.5381C9.226 66.3194 10.6562 65.8128 12.4738 65.8151Z" stroke="url(#paint2_linear_6108_30259)" stroke-width="4"/>
<path d="M13.6675 48.2362C12.5634 48.2046 11.6427 49.0741 11.6112 50.1782C11.5796 51.2823 12.4491 52.203 13.5532 52.2345L13.6675 48.2362ZM83.9978 12.6017C83.8986 11.5016 82.9264 10.6902 81.8263 10.7893L63.899 12.4054C62.7989 12.5046 61.9875 13.4768 62.0866 14.5769C62.1858 15.677 63.158 16.4884 64.2581 16.3893L80.1935 14.9527L81.63 30.8881C81.7292 31.9882 82.7014 32.7996 83.8015 32.7005C84.9016 32.6013 85.713 31.6291 85.6139 30.529L83.9978 12.6017ZM13.5532 52.2345C26.2524 52.5976 57.446 45.329 83.5413 14.0628L80.4704 11.4997C55.1655 41.8189 25.1486 48.5644 13.6675 48.2362L13.5532 52.2345Z" fill="url(#paint3_linear_6108_30259)"/>
<defs>
<linearGradient id="paint0_linear_6108_30259" x1="70.3359" y1="80.7638" x2="97.4227" y2="73.3709" gradientUnits="userSpaceOnUse">
<stop stop-color="#0538FF"/>
<stop offset="1" stop-color="#6B57F5"/>
</linearGradient>
<linearGradient id="paint1_linear_6108_30259" x1="39.0867" y1="84.6701" x2="64.4142" y2="74.8926" gradientUnits="userSpaceOnUse">
<stop stop-color="#0538FF"/>
<stop offset="1" stop-color="#6B57F5"/>
</linearGradient>
<linearGradient id="paint2_linear_6108_30259" x1="7.83672" y1="87.0138" x2="30.8598" y2="75.1835" gradientUnits="userSpaceOnUse">
<stop stop-color="#0538FF"/>
<stop offset="1" stop-color="#6B57F5"/>
</linearGradient>
<linearGradient id="paint3_linear_6108_30259" x1="18.192" y1="40.8808" x2="55.6064" y2="1.44714" gradientUnits="userSpaceOnUse">
<stop stop-color="#0538FF"/>
<stop offset="1" stop-color="#6B57F5"/>
</linearGradient>
</defs>
</svg>
