<svg width="48" height="48" viewBox="0 0 48 48" fill="none" xmlns="http://www.w3.org/2000/svg">
<rect width="48" height="48" rx="24" fill="url(#paint0_linear_6112_20650)"/>
<path d="M31.5 34.856C33.1569 34.856 34.5 33.5128 34.5 31.856C34.5 30.1991 33.1569 28.856 31.5 28.856C29.8431 28.856 28.5 30.1991 28.5 31.856C28.5 33.5128 29.8431 34.856 31.5 34.856Z" fill="white"/>
<path d="M19.5 22.106H21V23.606H19.5V22.106ZM19.5 25.856H21V27.356H19.5V25.856ZM19.5 29.606H21V31.106H19.5V29.606ZM22.5 22.106H28.5V23.606H22.5V22.106ZM22.5 25.856H28.5V27.356H22.5V25.856ZM22.5 29.606H25.5V31.106H22.5V29.606Z" fill="white"/>
<path d="M17.25 33.356V17.606H19.5V19.856H28.5V17.606H30.75V25.856H32.25V17.606C32.25 17.2081 32.092 16.8266 31.8107 16.5453C31.5294 16.264 31.1478 16.106 30.75 16.106H28.5V15.356C28.5 14.9581 28.342 14.5766 28.0607 14.2953C27.7794 14.014 27.3978 13.856 27 13.856H21C20.6022 13.856 20.2206 14.014 19.9393 14.2953C19.658 14.5766 19.5 14.9581 19.5 15.356V16.106H17.25C16.8522 16.106 16.4706 16.264 16.1893 16.5453C15.908 16.8266 15.75 17.2081 15.75 17.606V33.356C15.75 33.7538 15.908 34.1353 16.1893 34.4166C16.4706 34.6979 16.8522 34.856 17.25 34.856H25.5V33.356H17.25ZM21 15.356H27V18.356H21V15.356Z" fill="white"/>
<defs>
<linearGradient id="paint0_linear_6112_20650" x1="40.32" y1="-1.44" x2="5.76" y2="44.88" gradientUnits="userSpaceOnUse">
<stop stop-color="#FF9900"/>
<stop offset="1" stop-color="#AC5100"/>
</linearGradient>
</defs>
</svg>
