<svg width="101" height="100" viewBox="0 0 101 100" fill="none" xmlns="http://www.w3.org/2000/svg">
<g clip-path="url(#clip0_87_1092)">
<path d="M52.8638 15.4664C54.8106 17.4574 55.7375 20.0952 55.8057 22.8516C55.7932 23.867 55.6855 24.4363 54.9634 25.1954C52.0513 27.7435 47.0958 27.7373 43.4159 27.514C41.8345 27.4017 40.3309 27.1481 38.8135 26.6846C38.6239 26.627 38.6239 26.627 38.4305 26.5681C37.3104 26.1987 36.1561 25.5815 35.4154 24.6377C34.6168 22.764 35.3191 20.2391 36.0242 18.4281C37.0454 16.1858 38.6605 14.711 40.9399 13.8177C45.0343 12.5249 49.3234 13.0834 52.8638 15.4664Z" fill="white"/>
<path d="M53.0802 52.1622C54.9554 54.1253 55.7314 56.788 55.8306 59.4605C55.7958 60.4409 55.68 61.0026 54.9639 61.7188C52.4495 63.6983 49.105 63.9059 46.0287 63.9141C45.6082 63.916 45.188 63.9221 44.7676 63.9282C41.777 63.9511 38.37 63.6642 35.9819 61.6822C35.1221 60.8223 35.178 60.2317 35.1754 59.043C35.2243 56.4803 36.0831 54.1416 37.7764 52.2095C41.6878 48.5333 49.1501 48.7079 53.0802 52.1622Z" fill="white"/>
<path d="M52.7247 88.0798C54.7641 89.9592 55.5587 92.439 55.8001 95.1476C55.8319 96.1342 55.8397 96.885 55.1592 97.6562C53.5551 99.3447 50.8398 99.9706 48.57 100.057C48.2533 100.062 47.9366 100.065 47.6198 100.066C47.4479 100.067 47.276 100.068 47.0989 100.069C46.7375 100.071 46.3761 100.072 46.0147 100.072C45.4721 100.073 44.9298 100.08 44.3873 100.088C41.5217 100.106 38.3703 99.8969 36.0186 98.0468C34.9598 96.7639 35.1078 95.5346 35.2373 93.9452C35.5633 91.6982 36.5829 89.3356 38.4279 87.9348C42.4977 85.1711 48.7514 84.9942 52.7247 88.0798Z" fill="white"/>
<path d="M17.6712 76.9288C18.121 77.4222 18.2321 77.6195 18.3059 78.2838C18.2265 79.0939 18.0835 79.3516 17.4637 79.8829C17.0007 80.02 16.5423 80.0974 16.0659 80.1759C13.884 80.5595 12.2849 81.3921 10.9329 83.1849C10.0481 84.7203 9.85149 86.7242 10.2836 88.4225C10.8812 90.2091 11.8064 91.4677 13.4834 92.3676C15.1552 93.1253 17.0139 93.2691 18.7942 92.7613C20.3315 92.1441 21.4997 91.0917 22.3076 89.6531C22.644 88.805 22.7893 87.9402 22.8934 87.0355C23.0261 86.0461 23.3162 85.57 24.1043 84.961C24.705 84.7708 25.0176 84.858 25.6668 84.961C26.1154 85.3981 26.366 85.7734 26.6433 86.3282C26.6621 88.8408 26.0146 90.9744 24.4949 92.9688C24.3499 93.1703 24.2049 93.3717 24.0555 93.5792C22.4206 95.2883 20.0006 96.6605 17.5918 96.7263C14.2855 96.7977 11.7393 96.1464 9.23611 93.8722C7.3453 91.8919 6.34254 89.3591 6.32703 86.6349C6.44343 83.7595 7.47075 81.0347 9.61301 79.0414C11.6023 77.5087 15.2262 75.4319 17.6712 76.9288Z" fill="white"/>
<path d="M17.8299 40.6494C18.2449 41.2109 18.2449 41.2109 18.367 41.8945C18.2114 42.7657 17.9482 42.9999 17.2683 43.5547C16.6008 43.7439 16.6008 43.7439 15.8645 43.8477C13.9844 44.164 12.5183 44.7212 11.3052 46.2433C10.249 47.8501 9.89407 49.562 10.1516 51.4526C10.5196 53.204 11.4725 54.6781 12.9715 55.6641C14.4386 56.5605 16.1063 56.813 17.8032 56.5613C19.7051 56.0644 21.132 54.9904 22.1512 53.3203C22.648 52.4153 22.7768 51.6858 22.8958 50.6592C23.0909 49.2822 23.0909 49.2822 23.6404 48.7549C24.3529 48.4118 24.7394 48.3208 25.5027 48.4879C25.9795 48.6802 26.2889 48.9225 26.5335 49.379C27.0265 51.2894 26.334 53.3808 25.4715 55.0781C23.948 57.5879 21.8566 59.2996 19.0269 60.1334C18.5037 60.2388 17.9955 60.3079 17.4637 60.3516C17.306 60.3652 17.1484 60.3788 16.9861 60.3928C14.0824 60.5141 11.4177 59.3791 9.29715 57.4341C7.39053 55.4048 6.34289 52.8968 6.32703 50.1114C6.42226 47.7589 7.0455 45.8136 8.47928 43.9453C8.56287 43.8275 8.64645 43.7097 8.73257 43.5883C10.2938 41.5495 12.7942 40.4186 15.2908 40.0757C16.3015 40.0045 16.9901 40.0287 17.8299 40.6494Z" fill="white"/>
<path d="M17.9153 4.32129C18.3063 4.98759 18.3872 5.29571 18.2448 6.05469C17.8145 6.77271 17.5844 6.99851 16.7655 7.22046C16.4981 7.25806 16.2303 7.29253 15.9621 7.32422C13.7973 7.65502 12.4182 8.47592 11.0793 10.2417C10.1073 11.6616 9.88666 13.3702 10.1638 15.0513C10.6085 16.9086 11.5955 18.2534 13.1667 19.3359C14.778 20.1935 16.477 20.4161 18.2502 19.9677C19.2368 19.6339 20.0035 19.2596 20.7839 18.5547C20.9128 18.5547 21.0417 18.5547 21.1745 18.5547C21.2229 18.45 21.2712 18.3452 21.321 18.2373C21.5652 17.7734 21.5652 17.7734 21.9436 17.273C22.76 16.0711 22.9526 14.4688 23.2009 13.0615C23.3516 12.6095 23.5401 12.407 23.9089 12.1094C24.5995 11.8992 24.9397 11.8517 25.6057 12.146C26.0789 12.5169 26.3682 12.7456 26.6433 13.2813C26.9112 15.7372 25.9606 18.1287 24.4872 20.0508C22.763 22.0705 20.6994 23.4093 18.0495 23.8281C14.9518 24.0372 12.2179 23.4196 9.72434 21.4752C7.91946 19.8354 6.62467 17.479 6.35367 15.0368C6.23293 11.958 7.0164 9.36293 9.02777 7.00837C10.9687 4.9386 15.1669 2.5582 17.9153 4.32129Z" fill="white"/>
<path d="M67.4159 20.8448C67.7601 20.8419 67.7601 20.8419 68.1112 20.8389C68.4878 20.8387 68.4878 20.8387 68.872 20.8385C69.1396 20.837 69.4072 20.8354 69.6748 20.8336C70.4012 20.8293 71.1275 20.8276 71.8539 20.8266C72.3079 20.8259 72.7619 20.8246 73.2159 20.8233C74.8002 20.8185 76.3845 20.8159 77.9689 20.8152C79.4449 20.8145 80.9209 20.8087 82.3969 20.8005C83.6648 20.7937 84.9327 20.7907 86.2007 20.7906C86.9577 20.7904 87.7146 20.7887 88.4716 20.7832C89.1837 20.778 89.8957 20.7776 90.6079 20.7807C90.993 20.7813 91.3781 20.777 91.7631 20.7725C93.6512 20.7881 93.6512 20.7881 94.3722 21.3581C94.8827 21.9644 95.0351 22.2537 95.0027 23.0468C94.4143 24.1223 94.4143 24.1223 93.8309 24.414C93.4644 24.4343 93.0972 24.4421 92.7301 24.444C92.496 24.4457 92.2619 24.4474 92.0206 24.4491C91.7598 24.45 91.499 24.4508 91.2381 24.4516C90.9645 24.4532 90.6909 24.4548 90.4172 24.4565C89.5173 24.4616 88.6174 24.4646 87.7174 24.4674C87.4078 24.4684 87.0981 24.4695 86.7885 24.4705C85.5005 24.4748 84.2126 24.4784 82.9246 24.4806C81.0781 24.4838 79.2316 24.4903 77.385 24.5014C76.0871 24.5089 74.7891 24.5128 73.4912 24.5138C72.7157 24.5145 71.9404 24.5169 71.1649 24.5232C70.4353 24.5291 69.7059 24.5303 68.9762 24.528C68.5811 24.5279 68.1859 24.5327 67.7908 24.5376C65.8598 24.5243 65.8598 24.5243 65.2522 23.9552C64.8491 23.318 64.801 23.0069 64.9246 22.2655C65.4724 21.0603 66.1432 20.8506 67.4159 20.8448Z" fill="white"/>
<path d="M67.19 57.3918C67.5387 57.3893 67.5387 57.3893 67.8945 57.3867C68.1509 57.3859 68.4073 57.385 68.6715 57.3842C68.9432 57.3826 69.2149 57.381 69.4866 57.3793C70.3802 57.3742 71.2738 57.3712 72.1674 57.3684C72.4749 57.3674 72.7824 57.3663 73.0898 57.3653C74.3687 57.3611 75.6476 57.3574 76.9265 57.3552C78.7601 57.352 80.5936 57.3456 82.4271 57.3344C83.716 57.3269 85.0048 57.3231 86.2936 57.322C87.0636 57.3213 87.8335 57.319 88.6035 57.3126C89.3279 57.3068 90.0523 57.3055 90.7768 57.3078C91.1691 57.3079 91.5615 57.3031 91.9538 57.2982C93.8711 57.3115 93.8711 57.3115 94.4728 57.8875C94.8303 58.433 95.0029 58.7225 95.0029 59.375C94.6153 60.4156 94.6153 60.4156 94.0751 60.7732C93.5287 60.9775 93.0865 60.9878 92.5029 60.9897C92.2715 60.9914 92.0401 60.993 91.8017 60.9948C91.5486 60.9946 91.2954 60.9944 91.0346 60.9942C90.7647 60.9954 90.4949 60.9967 90.225 60.9982C89.4926 61.0016 88.7602 61.0026 88.0278 61.0028C87.5701 61.0031 87.1125 61.0039 86.6548 61.005C85.058 61.0086 83.4613 61.0102 81.8645 61.0099C80.3763 61.0096 78.8881 61.0137 77.3999 61.0199C76.1218 61.025 74.8438 61.0271 73.5657 61.0269C72.8025 61.0268 72.0394 61.0279 71.2762 61.032C70.5584 61.0358 69.8408 61.0358 69.1231 61.033C68.7344 61.0324 68.3458 61.0356 67.9572 61.039C67.7253 61.0374 67.4933 61.0357 67.2544 61.0341C67.0532 61.0343 66.852 61.0345 66.6448 61.0347C65.9521 60.9118 65.6229 60.6381 65.1201 60.1562C64.8957 59.6361 64.8646 59.1557 64.9248 58.5937C65.5663 57.5541 66.0152 57.3981 67.19 57.3918Z" fill="white"/>
<path d="M67.0582 93.8462C67.2948 93.844 67.5314 93.8418 67.7752 93.8395C68.0368 93.841 68.2983 93.8426 68.5599 93.8443C68.8358 93.8432 69.1118 93.8419 69.3877 93.8402C70.1367 93.8366 70.8856 93.838 71.6346 93.8405C72.4183 93.8424 73.202 93.8406 73.9857 93.8394C75.3019 93.8379 76.618 93.8398 77.9341 93.8435C79.4559 93.8478 80.9775 93.8464 82.4993 93.8421C83.8057 93.8386 85.1121 93.8381 86.4185 93.8401C87.1989 93.8413 87.9791 93.8415 88.7595 93.8389C89.4931 93.8367 90.2266 93.8382 90.9602 93.8427C91.2295 93.8438 91.4987 93.8435 91.768 93.8418C92.1355 93.8396 92.5029 93.8428 92.8704 93.8462C93.1789 93.8466 93.1789 93.8466 93.4936 93.8471C94.1647 93.9708 94.3917 94.196 94.8081 94.7266C95.0284 95.4172 95.0649 95.7514 94.7837 96.4234C94.2544 97.0762 93.7442 97.4194 92.903 97.5348C92.7067 97.535 92.5104 97.5352 92.3081 97.5354C91.9684 97.5379 91.9684 97.5379 91.6219 97.5404C91.3752 97.5392 91.1286 97.5381 90.8744 97.5368C90.6106 97.5376 90.3468 97.5387 90.083 97.5399C89.368 97.5426 88.6529 97.5416 87.9378 97.5397C87.1887 97.5382 86.4396 97.5396 85.6904 97.5405C84.4323 97.5416 83.1741 97.5402 81.916 97.5374C80.4627 97.5342 79.0095 97.5353 77.5562 97.5385C76.3073 97.5411 75.0584 97.5415 73.8096 97.54C73.0642 97.5391 72.3188 97.5389 71.5734 97.5409C70.8723 97.5426 70.1713 97.5414 69.4703 97.538C69.0913 97.5369 68.7122 97.5386 68.3332 97.5404C66.243 97.5252 66.243 97.5252 65.3159 96.8751C64.8916 96.3586 64.9255 96.088 64.9497 95.4102C65.2557 94.1862 65.8311 93.8479 67.0582 93.8462Z" fill="white"/>
<path d="M27.0342 39.6484C27.741 40.1018 28.1255 40.4023 28.4136 41.1986C28.3887 42.4151 27.6707 43.1867 26.8438 44.013C26.7475 44.11 26.6512 44.207 26.552 44.307C26.236 44.6245 25.918 44.9399 25.5999 45.2552C25.3787 45.4763 25.1576 45.6975 24.9366 45.9187C24.4745 46.3808 24.0115 46.8418 23.5476 47.3021C22.9529 47.8924 22.3604 48.4849 21.7685 49.078C21.3128 49.5344 20.8562 49.9897 20.3992 50.4447C20.1803 50.6629 19.9617 50.8813 19.7433 51.1C19.4385 51.4049 19.1325 51.7084 18.8261 52.0116C18.6522 52.1846 18.4783 52.3576 18.2992 52.5358C17.5944 53.1599 16.8884 53.2296 15.9777 53.2149C15.0784 53.0415 14.5623 52.3978 13.9482 51.7577C13.7773 51.5911 13.6063 51.4244 13.4302 51.2527C11.6305 49.4917 11.6305 49.4917 11.5312 48.4496C11.5492 47.8742 11.5894 47.6797 11.9097 47.1801C12.5527 46.7679 12.9887 46.6796 13.7529 46.6796C14.6965 47.161 15.3727 47.8743 16.0967 48.6327C16.7668 48.3442 17.1969 47.9687 17.7072 47.4509C17.8689 47.288 18.0305 47.125 18.1971 46.9572C18.37 46.781 18.543 46.6048 18.7212 46.4233C18.9948 46.1473 19.2685 45.8714 19.5422 45.5956C20.0221 45.1114 20.5008 44.6259 20.9795 44.1405C21.5507 43.5614 22.1221 42.9825 22.695 42.4051C23.0516 42.0456 23.4072 41.6852 23.7619 41.3239C23.9235 41.161 24.0852 40.998 24.2517 40.8301C24.3934 40.6865 24.535 40.5428 24.6809 40.3947C25.4268 39.7316 26.0331 39.5082 27.0342 39.6484Z" fill="white"/>
<path d="M66.9382 14.423C67.1098 14.4214 67.2815 14.4197 67.4584 14.418C67.6462 14.4171 67.834 14.4163 68.0275 14.4154C68.3249 14.413 68.3249 14.413 68.6282 14.4106C69.2852 14.4057 69.9422 14.4025 70.5992 14.3997C70.9355 14.3981 70.9355 14.3981 71.2787 14.3965C72.4654 14.3913 73.6521 14.3875 74.8388 14.3847C76.065 14.3815 77.2911 14.3727 78.5173 14.3628C79.4598 14.3562 80.4023 14.3539 81.3448 14.3528C81.7968 14.3515 82.2489 14.3486 82.7009 14.3439C83.3335 14.3377 83.9659 14.3377 84.5986 14.3391C84.8785 14.3343 84.8785 14.3343 85.1641 14.3294C86.0289 14.3375 86.6175 14.3701 87.3069 14.9233C87.7767 15.4297 87.7767 15.4297 87.9255 15.8325C87.9183 16.0198 87.9183 16.0198 87.911 16.2109C87.9118 16.3358 87.9125 16.4607 87.9133 16.5893C87.6865 17.2583 87.3575 17.5353 86.8002 17.9687C86.1297 18.1143 85.4704 18.1022 84.7864 18.0951C84.584 18.0968 84.3816 18.0985 84.173 18.1003C83.5045 18.1046 82.8362 18.1017 82.1676 18.0984C81.7028 18.0991 81.238 18.1 80.7732 18.1013C79.7992 18.1027 78.8253 18.1006 77.8514 18.096C76.6028 18.0905 75.3544 18.0937 74.1058 18.0995C73.146 18.1031 72.1863 18.1019 71.2266 18.0994C70.7662 18.0988 70.3058 18.0996 69.8454 18.1018C69.202 18.1043 68.5589 18.1005 67.9155 18.0951C67.7251 18.0971 67.5348 18.099 67.3386 18.1011C66.4446 18.0871 66.0323 18.0672 65.3006 17.5153C64.826 16.8539 64.7153 16.4383 64.7299 15.625C65.3167 14.6608 65.8429 14.431 66.9382 14.423Z" fill="white"/>
<path d="M66.7354 50.9465C66.9104 50.9448 67.0853 50.9431 67.2656 50.9414C67.5543 50.9401 67.5543 50.9401 67.8489 50.9389C68.1523 50.9365 68.1523 50.9365 68.462 50.934C69.1336 50.9292 69.8053 50.9259 70.4769 50.9231C70.8204 50.9216 70.8204 50.9216 71.1708 50.92C72.3826 50.9148 73.5944 50.911 74.8062 50.9082C76.0594 50.9049 77.3125 50.8962 78.5656 50.8862C79.5279 50.8796 80.4901 50.8774 81.4524 50.8763C81.9144 50.875 82.3764 50.872 82.8384 50.8673C83.4847 50.8612 84.1307 50.8611 84.777 50.8626C84.9682 50.8594 85.1595 50.8562 85.3566 50.8529C86.2674 50.8612 86.6667 50.8731 87.4062 51.4468C87.7608 51.9315 87.9144 52.1448 87.9109 52.7343C87.9157 52.8592 87.9204 52.9841 87.9254 53.1128C87.6799 53.7774 87.2065 54.1558 86.6047 54.4922C85.9383 54.6322 85.2868 54.6238 84.6077 54.6154C84.4094 54.6168 84.2111 54.6182 84.0068 54.6197C83.3529 54.623 82.6993 54.6192 82.0454 54.615C81.5901 54.6152 81.1348 54.6156 80.6795 54.6164C79.7259 54.617 78.7724 54.6141 77.8188 54.6087C76.5972 54.6021 75.3757 54.6033 74.1541 54.6069C73.2141 54.609 72.2742 54.6072 71.3342 54.6043C70.8838 54.6033 70.4334 54.6034 69.983 54.6046C69.3532 54.6057 68.7236 54.6017 68.0939 54.5964C67.9082 54.5976 67.7225 54.5989 67.5311 54.6002C66.4115 54.5841 65.7816 54.4502 64.925 53.7109C64.6464 53.1536 64.6691 52.7667 64.7297 52.1484C65.3232 51.2582 65.6822 50.954 66.7354 50.9465Z" fill="white"/>
<path d="M67.1109 87.0819C67.2776 87.0808 67.4444 87.0797 67.6161 87.0786C67.8896 87.0782 67.8896 87.0782 68.1687 87.0779C68.3612 87.0769 68.5537 87.076 68.7521 87.075C69.39 87.0721 70.028 87.0708 70.6659 87.0697C71.1089 87.0686 71.5519 87.0675 71.9949 87.0663C72.9244 87.0643 73.8539 87.0631 74.7834 87.0625C75.9741 87.0614 77.1648 87.0567 78.3555 87.0511C79.2709 87.0475 80.1862 87.0465 81.1016 87.0462C81.5405 87.0456 81.9795 87.044 82.4184 87.0415C83.0328 87.0381 83.647 87.0385 84.2614 87.0398C84.4425 87.038 84.6237 87.0362 84.8103 87.0343C85.8126 87.0408 86.5251 87.1221 87.3857 87.6953C87.8741 88.4278 87.8811 88.781 87.7764 89.6484C87.3817 90.213 87.0674 90.5678 86.3759 90.7157C85.8378 90.7539 85.3076 90.7591 84.7681 90.7545C84.4616 90.7575 84.4616 90.7575 84.149 90.7606C83.4741 90.7659 82.7994 90.764 82.1245 90.7616C81.6553 90.7627 81.1861 90.7641 80.7169 90.7658C79.7338 90.7681 78.7507 90.7668 77.7676 90.763C76.5071 90.7586 75.2469 90.7638 73.9865 90.7718C73.0177 90.7768 72.049 90.7763 71.0801 90.7742C70.6154 90.7739 70.1507 90.7754 69.6859 90.7788C69.0364 90.7826 68.3873 90.7791 67.7378 90.7735C67.5456 90.7762 67.3534 90.7789 67.1553 90.7817C65.8938 90.7602 65.8938 90.7602 65.3645 90.3791C64.8641 89.8198 64.7303 89.4994 64.7173 88.7451C64.9394 88.0395 65.1241 87.7497 65.7061 87.3047C66.242 87.126 66.559 87.0842 67.1109 87.0819Z" fill="white"/>
<path d="M27.0342 76.1719C27.684 76.5199 28.1232 76.9413 28.4014 77.6368C28.4014 78.4746 28.1159 78.9792 27.5734 79.6107C27.3916 79.7919 27.2097 79.973 27.0224 80.1596C26.922 80.2604 26.8216 80.3612 26.7181 80.4651C26.3875 80.7963 26.0547 81.1254 25.7219 81.4545C25.4912 81.6846 25.2606 81.9148 25.0302 82.1452C24.5477 82.6268 24.0643 83.1074 23.5801 83.5872C22.9587 84.203 22.3391 84.8205 21.7201 85.4387C21.2443 85.9136 20.768 86.388 20.2915 86.8622C20.0628 87.0898 19.8341 87.3175 19.6056 87.5453C19.2868 87.8628 18.9673 88.1796 18.6476 88.4963C18.4657 88.6768 18.2839 88.8573 18.0965 89.0433C17.5475 89.5579 17.3814 89.638 16.6254 89.708C15.7725 89.6379 15.4995 89.4492 14.8638 88.8916C14.6817 88.7328 14.4997 88.5739 14.3122 88.4102C11.6485 85.9355 11.6485 85.9355 11.5312 84.8999C11.6045 84.1797 11.6045 84.1797 12.0073 83.606C12.5811 83.2032 12.5811 83.2032 13.228 83.0567C14.254 83.2654 14.7914 83.84 15.5107 84.5704C15.6784 84.7377 15.6784 84.7377 15.8495 84.9083C15.9311 84.9902 16.0126 85.072 16.0967 85.1563C16.7767 84.8649 17.2128 84.4773 17.7314 83.9535C17.8982 83.786 18.065 83.6185 18.2369 83.446C18.4153 83.2649 18.5938 83.0838 18.7776 82.8972C18.9638 82.7099 19.15 82.5226 19.3364 82.3354C19.8258 81.8435 20.314 81.3504 20.802 80.857C21.5842 80.0664 22.3677 79.2772 23.1518 78.4885C23.4256 78.2127 23.6986 77.9363 23.9717 77.6598C24.1373 77.493 24.3029 77.3261 24.4735 77.1542C24.6194 77.0066 24.7654 76.859 24.9158 76.7069C25.5905 76.0712 26.1226 76.0808 27.0342 76.1719Z" fill="white"/>
<path d="M27.4248 3.51563C27.9359 3.90244 28.1605 4.16992 28.377 4.77295C28.4121 5.49274 28.2298 5.98456 27.7666 6.54582C27.4478 6.884 27.1206 7.21112 26.7885 7.53632C26.6671 7.65741 26.5456 7.77851 26.4204 7.90327C26.1634 8.15904 25.9056 8.41411 25.6472 8.66852C25.256 9.05359 24.867 9.44066 24.4783 9.82819C23.3947 10.905 22.3112 11.9656 21.1459 12.9544C20.6976 13.3595 20.2884 13.793 19.8748 14.2334C19.7194 14.3973 19.5641 14.5612 19.404 14.7301C19.0841 15.0695 18.7672 15.4119 18.4534 15.757C17.3583 16.8982 17.3583 16.8982 16.6776 17.1226C15.7526 17.1153 15.2085 16.5836 14.5533 15.9798C14.2219 15.6412 13.8941 15.299 13.5698 14.9536C13.4015 14.7808 13.2332 14.6079 13.0598 14.4299C11.6408 12.9617 11.6408 12.9617 11.5312 12.1582C11.6096 11.4792 11.7791 11.0784 12.2545 10.5789C12.7846 10.2098 13.2126 10.1456 13.8521 10.1822C14.8913 10.5438 15.6271 11.4579 16.292 12.3047C16.292 12.4336 16.292 12.5625 16.292 12.6953C17.2459 11.9238 18.0977 11.0817 18.9203 10.173C20.0821 8.90307 21.2761 7.66849 22.491 6.44937C22.8287 6.10974 23.1642 5.76808 23.4999 5.42641C23.7173 5.2077 23.9349 4.98911 24.1526 4.77066C24.2512 4.66956 24.3499 4.56847 24.4516 4.46431C25.3873 3.53441 26.1222 3.12762 27.4248 3.51563Z" fill="white"/>
<path d="M48.1277 36.9142C49.0919 37.7939 49.7938 38.6803 49.9511 40.0064C49.9713 41.5506 49.8143 42.5965 48.7457 43.7448C47.6129 44.8015 46.6106 45.2078 45.0614 45.1661C43.7715 45.026 42.7842 44.482 41.8777 43.5548C41.0793 42.389 40.7482 41.129 40.9873 39.7302C41.3519 38.3408 41.9052 37.4125 43.1594 36.6578C44.83 35.8377 46.5521 35.8839 48.1277 36.9142Z" fill="white"/>
<path d="M47.2462 0.127389C48.3649 0.632535 49.1877 1.51096 49.7181 2.60999C50.1184 3.83816 50.0542 5.2221 49.5808 6.42088C48.9716 7.61113 48.0277 8.37976 46.761 8.78904C45.2775 8.9524 43.8724 8.95552 42.6594 8.00779C41.5994 6.98571 41.0413 6.03582 40.9085 4.56464C40.8899 3.31283 41.2924 2.34351 42.0735 1.36717C43.5674 -0.0826052 45.2055 -0.408459 47.2462 0.127389Z" fill="white"/>
<path d="M47.64 73.0835C48.6944 73.6857 49.3291 74.4158 49.7801 75.5569C50.1203 76.9031 50.0752 78.3306 49.3666 79.541C48.6543 80.4713 47.7095 81.2698 46.5506 81.5399C45.2061 81.7043 44.2057 81.5627 43.0136 80.9082C41.948 80.0557 41.1205 79.0748 40.9506 77.6856C40.8222 76.2635 41.1571 75.1329 42.0736 74.0234C43.7357 72.5897 45.5604 72.0977 47.64 73.0835Z" fill="white"/>
</g>
<defs>
<clipPath id="clip0_87_1092">
<rect width="100" height="100" fill="white" transform="translate(0.666992)"/>
</clipPath>
</defs>
</svg>
