<svg width="121" height="120" viewBox="0 0 121 120" fill="none" xmlns="http://www.w3.org/2000/svg">
<path d="M39.724 7.39361C40.1193 7.39387 40.5146 7.39372 40.9098 7.39319C41.9745 7.39293 43.0391 7.39841 44.1038 7.40498C45.2196 7.41087 46.3353 7.4114 47.4511 7.41251C49.5602 7.41541 51.6692 7.42309 53.7783 7.43252C56.1811 7.44303 58.5838 7.44816 60.9865 7.45286C65.9256 7.46264 70.8647 7.47911 75.8038 7.50004C75.8042 7.80106 75.8045 8.10208 75.8048 8.41223C75.8087 11.2602 75.8188 14.1081 75.8348 16.956C75.8428 18.4199 75.8487 19.8837 75.8496 21.3476C75.8507 22.7625 75.8574 24.1772 75.8679 25.5921C75.8709 26.1297 75.872 26.6673 75.8709 27.2049C75.8644 31.4666 76.187 34.7642 79.2901 37.9514C82.0822 40.5802 85.4701 41.0396 89.1459 41.0638C89.3679 41.0661 89.59 41.0684 89.8187 41.0708C90.5453 41.0782 91.272 41.084 91.9986 41.0898C92.5053 41.0946 93.012 41.0996 93.5187 41.1046C94.8468 41.1175 96.1749 41.1291 97.5031 41.1404C98.8605 41.1522 100.218 41.1652 101.575 41.1782C104.235 41.2033 106.894 41.2271 109.554 41.25C109.565 48.9692 109.573 56.6884 109.578 64.4076C109.578 65.3197 109.579 66.2317 109.58 67.1437C109.58 67.4161 109.58 67.4161 109.58 67.6939C109.582 70.6309 109.586 73.5679 109.59 76.5049C109.594 79.5202 109.597 82.5355 109.598 85.5508C109.599 87.4102 109.601 89.2697 109.604 91.1292C109.607 92.5568 109.607 93.9845 109.607 95.4121C109.607 95.9964 109.608 96.5808 109.61 97.1651C109.612 97.9648 109.611 98.7644 109.61 99.5641C109.612 99.9085 109.612 99.9085 109.614 100.26C109.599 103.732 108.761 106.776 106.317 109.336C103.753 111.698 101.147 112.611 97.6929 112.591C97.4286 112.592 97.1642 112.593 96.8919 112.595C96.0112 112.598 95.1306 112.596 94.2499 112.595C93.6164 112.596 92.983 112.598 92.3495 112.6C90.8105 112.604 89.2716 112.604 87.7326 112.603C86.4811 112.602 85.2297 112.602 83.9782 112.603C83.7105 112.604 83.7105 112.604 83.4374 112.604C83.0748 112.604 82.7121 112.605 82.3495 112.605C78.9531 112.608 75.5567 112.607 72.1604 112.604C69.0568 112.602 65.9532 112.605 62.8497 112.61C59.6585 112.616 56.4672 112.618 53.276 112.617C51.4862 112.616 49.6963 112.617 47.9065 112.621C46.383 112.624 44.8595 112.624 43.336 112.62C42.5595 112.618 41.7832 112.618 41.0067 112.621C40.163 112.624 39.3195 112.622 38.4757 112.618C38.2332 112.62 37.9906 112.622 37.7406 112.624C34.7591 112.594 32.058 111.331 29.837 109.365C28.1408 107.59 26.7888 104.831 26.7913 102.369C26.7909 102.121 26.7906 101.873 26.7903 101.618C26.7911 101.347 26.792 101.077 26.7928 100.798C26.7928 100.512 26.7928 100.226 26.7927 99.9317C26.7929 99.1487 26.794 98.3658 26.7957 97.5828C26.7971 96.7642 26.7973 95.9456 26.7976 95.127C26.7983 93.5773 26.8002 92.0276 26.8026 90.4779C26.8052 88.7135 26.8065 86.949 26.8076 85.1846C26.8101 81.5553 26.8142 77.9261 26.8194 74.2969C26.9831 74.3118 27.1467 74.3267 27.3152 74.342C28.0711 74.4097 28.8273 74.4746 29.5834 74.5395C29.8407 74.563 30.0979 74.5864 30.363 74.6106C38.1502 75.2673 46.2808 72.7736 52.2894 67.7399C52.4695 67.5834 52.6495 67.4269 52.8351 67.2657C53.1269 67.0164 53.1269 67.0164 53.4247 66.7621C59.6043 61.3597 63.2627 53.6967 64.0265 45.5567C64.0504 45.137 64.0703 44.717 64.0851 44.2969C64.0944 44.1181 64.1038 43.9392 64.1134 43.7549C64.3525 35.4293 60.9939 27.2754 55.3334 21.2549C49.1337 14.8497 41.0413 11.7693 32.2101 11.4844C31.2721 11.4698 30.3355 11.4681 29.3976 11.4844C32.101 8.01851 35.5255 7.35383 39.724 7.39361ZM87.4917 65.4872C86.7882 66.5827 86.9233 67.8319 86.9325 69.0903C86.9309 69.3671 86.9292 69.644 86.9275 69.9292C86.9241 70.6856 86.9249 71.4419 86.9279 72.1983C86.9303 72.9916 86.9281 73.7848 86.9266 74.578C86.9249 75.9099 86.9271 77.2417 86.9316 78.5736C86.9367 80.1113 86.935 81.6489 86.9299 83.1867C86.9256 84.5092 86.925 85.8316 86.9275 87.1541C86.9289 87.943 86.9291 88.7319 86.926 89.5208C86.9237 90.4005 86.9273 91.28 86.9325 92.1598C86.9306 92.4199 86.9287 92.68 86.9268 92.948C86.9426 94.385 87.0269 95.237 87.9913 96.3282C89.0113 97.251 89.8469 97.4143 91.1792 97.3563C92.3081 97.1743 92.9378 96.5549 93.6896 95.7422C94.2816 94.8651 94.3487 94.1287 94.3524 93.0849C94.3537 92.8573 94.355 92.6296 94.3564 92.395C94.3567 92.1467 94.3569 91.8985 94.3572 91.6427C94.3584 91.38 94.3595 91.1173 94.3607 90.8467C94.3642 89.977 94.3658 89.1073 94.367 88.2376C94.3684 87.6334 94.3697 87.0291 94.3711 86.4248C94.3732 85.3193 94.3747 84.2139 94.3754 83.1084C94.3765 81.4838 94.3806 79.8592 94.3874 78.2347C94.3931 76.8253 94.3949 75.416 94.3953 74.0066C94.396 73.4081 94.3979 72.8096 94.4009 72.2111C94.4049 71.3735 94.4045 70.536 94.403 69.6984C94.4051 69.4515 94.4073 69.2047 94.4095 68.9504C94.4009 67.4356 94.3008 66.1675 93.2565 64.9823C91.2239 63.4747 89.2368 63.5128 87.4917 65.4872ZM57.9913 76.1719C57.1415 77.2432 56.9359 77.9474 56.9325 79.3076C56.9309 79.4747 56.9292 79.6418 56.9275 79.814C56.9234 80.3628 56.9261 80.9112 56.9293 81.46C56.9287 81.8435 56.9278 82.2269 56.9266 82.6104C56.9252 83.4127 56.9272 84.2148 56.9316 85.017C56.9369 86.0432 56.9339 87.0691 56.9282 88.0952C56.9249 88.8867 56.9259 89.678 56.9284 90.4695C56.929 90.8477 56.9282 91.226 56.926 91.6042C56.9236 92.1338 56.9273 92.663 56.9325 93.1925C56.9333 93.4932 56.934 93.794 56.9348 94.1038C57.1153 95.3442 57.693 96.0583 58.6066 96.8848C59.6785 97.4009 60.5717 97.4543 61.7413 97.2657C62.8278 96.7224 63.8185 95.9374 64.2246 94.7474C64.3495 94.0512 64.3531 93.3828 64.3572 92.6754C64.3584 92.5224 64.3595 92.3695 64.3607 92.2119C64.3641 91.7075 64.3658 91.203 64.367 90.6986C64.3684 90.3465 64.3697 89.9945 64.3711 89.6424C64.3736 88.9046 64.3749 88.1668 64.3757 87.4289C64.377 86.4864 64.3827 85.544 64.3893 84.6014C64.3937 83.8742 64.3949 83.1469 64.3953 82.4196C64.396 82.0723 64.3979 81.725 64.4009 81.3777C64.405 80.8903 64.4045 80.4031 64.403 79.9157C64.4038 79.639 64.4047 79.3624 64.4056 79.0773C64.2894 78.0034 63.9852 77.0593 63.2565 76.2323C61.5503 74.9668 59.6946 74.6308 57.9913 76.1719ZM72.4919 80.4685C71.7428 81.6335 71.9204 83.056 71.9293 84.3897C71.9284 84.6861 71.9275 84.9825 71.9266 85.2879C71.9259 85.9137 71.9272 86.5391 71.9316 87.1649C71.9369 87.964 71.9339 88.7629 71.9282 89.5621C71.924 90.3282 71.927 91.0943 71.9293 91.8604C71.9274 92.1461 71.9255 92.4317 71.9236 92.7261C71.9401 94.2262 71.9599 95.1994 72.9913 96.3282C74.0113 97.251 74.8469 97.4143 76.1792 97.3563C77.3081 97.1743 77.9378 96.5549 78.6896 95.7422C79.2948 94.8456 79.3491 94.0868 79.3572 93.0196C79.3595 92.781 79.3617 92.5423 79.364 92.2965C79.365 92.0399 79.366 91.7833 79.367 91.5189C79.3684 91.2536 79.3697 90.9883 79.3711 90.715C79.3733 90.1537 79.3748 89.5924 79.3757 89.0311C79.378 88.1747 79.3853 87.3184 79.3927 86.462C79.3942 85.9162 79.3954 85.3704 79.3963 84.8246C79.3992 84.5694 79.4021 84.3142 79.4051 84.0513C79.4006 82.4971 79.329 81.1994 78.2565 79.9823C76.2172 78.4698 74.2643 78.5287 72.4919 80.4685ZM42.4914 87.9694C41.7418 89.1291 41.919 90.5467 41.9366 91.875C41.933 92.1476 41.9294 92.4201 41.9256 92.7008C41.9325 94.2077 41.957 95.1953 42.9913 96.3282C44.011 97.2507 44.847 97.4154 46.1792 97.3554C47.3711 97.1651 47.9757 96.5511 48.6896 95.625C49.3766 94.4037 49.3691 93.3049 49.378 91.9336C49.3829 91.7524 49.3877 91.5711 49.3927 91.3843C49.4019 90.0059 49.2591 88.5834 48.2759 87.5238C47.1529 86.5666 46.4291 86.4008 44.9927 86.4194C43.846 86.5447 43.2412 87.1483 42.4914 87.9694Z" fill="white"/>
<path d="M28.9288 18.9843C28.93 19.3905 28.93 19.3905 28.9313 19.8049C28.94 22.3634 28.9536 24.9219 28.9719 27.4804C28.9811 28.7956 28.9887 30.1107 28.9923 31.426C28.9958 32.6964 29.0039 33.9668 29.0151 35.2373C29.0185 35.7207 29.0204 36.2042 29.0206 36.6876C29.0212 37.3675 29.0275 38.0472 29.0352 38.7271C29.034 38.9246 29.0328 39.1222 29.0316 39.3258C29.0627 41.1219 29.6184 42.6217 30.5987 44.121C33.54 46.9344 37.0884 46.7141 40.9066 46.7376C41.3601 46.742 41.8136 46.7466 42.267 46.7513C43.4526 46.7633 44.6381 46.7726 45.8237 46.7814C47.0367 46.7908 48.2497 46.8027 49.4627 46.8145C51.8368 46.8371 54.2109 46.8569 56.585 46.8749C56.551 47.2477 56.516 47.6205 56.4806 47.9932C56.4613 48.2007 56.4419 48.4083 56.4219 48.6222C55.9506 52.565 53.5461 56.4023 50.96 59.2968C50.8512 59.4388 50.7425 59.5808 50.6304 59.7271C47.2522 64.1146 41.2678 66.6388 35.96 67.4999C34.8444 67.5946 33.7394 67.612 32.6202 67.6024C32.324 67.6007 32.0279 67.5989 31.7228 67.5971C29.3612 67.5557 27.1891 67.2982 24.9444 66.5624C24.7175 66.4889 24.7175 66.4889 24.486 66.414C20.8122 65.1789 17.8371 63.1727 15.1006 60.4687C14.8491 60.2425 14.8491 60.2425 14.5925 60.0118C10.8172 56.5379 8.33174 50.8022 8.0279 45.711C7.95966 42.2452 7.92717 38.946 9.00688 35.6249C9.08036 35.3975 9.08036 35.3975 9.15531 35.1655C10.3905 31.4923 12.397 28.5172 15.1006 25.7812C15.2514 25.6135 15.4022 25.4458 15.5575 25.273C18.6709 21.8894 24.2808 18.9192 28.9288 18.9843Z" fill="white"/>
<path d="M83.0694 7.5C83.4036 7.5313 83.7376 7.56429 84.0715 7.59796C84.2576 7.61615 84.4436 7.63433 84.6352 7.65306C88.2049 8.18701 90.7991 11.4133 93.0538 13.9319C93.5976 14.5367 94.1495 15.134 94.7003 15.7324C95.6494 16.7665 96.59 17.8079 97.5275 18.8525C98.1342 19.5248 98.7458 20.1925 99.3585 20.8594C100.318 21.9036 101.269 22.9546 102.216 24.0106C102.708 24.5547 103.204 25.0935 103.703 25.6312C108.537 30.8591 108.537 30.8591 109.085 33.75C106.023 33.7717 102.961 33.7884 99.8986 33.7986C98.4767 33.8035 97.0549 33.8101 95.633 33.8207C94.2607 33.8309 92.8885 33.8365 91.5162 33.8389C90.9928 33.8407 90.4693 33.8441 89.9458 33.8491C89.2124 33.8559 88.4793 33.8569 87.7458 33.8564C87.5295 33.8598 87.3133 33.8632 87.0904 33.8666C85.7868 33.8583 85.0408 33.6842 84.0069 32.8125C83.2793 31.9845 83.0399 31.2821 83.0413 30.1886C83.0409 29.9885 83.0406 29.7884 83.0403 29.5821C83.0411 29.3633 83.042 29.1445 83.0428 28.919C83.0428 28.6881 83.0428 28.4571 83.0427 28.2191C83.0429 27.4544 83.0447 26.6897 83.0466 25.925C83.047 25.3953 83.0473 24.8655 83.0476 24.3358C83.0485 22.9406 83.0508 21.5454 83.0534 20.1502C83.0557 18.7269 83.0568 17.3036 83.058 15.8803C83.0605 13.0869 83.0645 10.2934 83.0694 7.5Z" fill="white"/>
<path d="M36.1943 18.9844C37.7073 19.1525 38.9462 19.3514 40.3545 19.834C40.6287 19.9274 40.6287 19.9274 40.9085 20.0228C43.7186 21.0142 46.0679 22.5121 48.3818 24.375C48.5619 24.5134 48.742 24.6517 48.9275 24.7943C52.5665 27.7657 55.2438 32.495 56.3506 37.0312C56.4666 38.1914 56.4666 38.1914 56.585 39.375C49.8561 39.375 43.1271 39.375 36.1943 39.375C36.1943 32.6461 36.1943 25.9172 36.1943 18.9844Z" fill="white"/>
</svg>
