<svg width="121" height="120" viewBox="0 0 121 120" fill="none" xmlns="http://www.w3.org/2000/svg">
<g clip-path="url(#clip0_87_1113)">
<path d="M12.5299 -0.0314324C12.7483 -0.0324772 12.9668 -0.033522 13.1918 -0.0345985C13.4298 -0.0345553 13.6678 -0.0345121 13.913 -0.0344676C14.2946 -0.0357602 14.2946 -0.0357602 14.6839 -0.0370789C15.538 -0.0396639 16.392 -0.0405662 17.2461 -0.0414592C17.8578 -0.0429276 18.4696 -0.0444855 19.0813 -0.0461262C20.9183 -0.0507524 22.7553 -0.0531171 24.5923 -0.0552031C25.4584 -0.0562314 26.3244 -0.057489 27.1905 -0.0587161C30.0713 -0.0627029 32.952 -0.0660996 35.8328 -0.0677978C36.5799 -0.0682454 37.3271 -0.0686955 38.0742 -0.0691539C38.3527 -0.069324 38.3527 -0.069324 38.6369 -0.0694975C41.6424 -0.0714414 44.648 -0.0773774 47.6535 -0.0849931C50.7425 -0.0927561 53.8315 -0.0969666 56.9204 -0.0977144C58.6535 -0.0982208 60.3864 -0.100255 62.1195 -0.10626C63.7508 -0.1119 65.3821 -0.112705 67.0134 -0.1103C67.6108 -0.110184 68.2082 -0.111661 68.8056 -0.114884C73.5365 -0.138969 77.5893 0.254146 81.2139 3.65756C84.1752 6.88181 85.3186 10.3779 85.3094 14.7113C85.3112 15.1508 85.3112 15.1508 85.313 15.5991C85.3157 16.3966 85.3163 17.194 85.3157 17.9915C85.3154 18.6591 85.3166 19.3266 85.3177 19.9941C85.3203 21.5688 85.3204 23.1435 85.319 24.7182C85.3176 26.3402 85.3205 27.9621 85.3255 29.5841C85.3296 30.9803 85.331 32.3764 85.3302 33.7726C85.3298 34.605 85.3304 35.4373 85.3337 36.2697C85.3372 37.197 85.335 38.1242 85.3323 39.0516C85.3341 39.3259 85.3359 39.6002 85.3377 39.8829C85.3278 41.4056 85.2643 42.5674 84.1903 43.7448C83.0812 44.6085 82.269 44.8669 80.8889 44.8444C79.9085 44.7079 79.1363 44.3011 78.4481 43.5938C77.4545 41.9956 77.38 40.7103 77.4013 38.8537C77.4008 38.5715 77.4002 38.2892 77.3996 37.9984C77.3989 37.2289 77.4021 36.4595 77.4068 35.69C77.4105 34.8812 77.4079 34.0725 77.4057 33.2637C77.4003 30.8606 77.4046 28.4576 77.4107 26.0545C77.4154 24.1856 77.4174 22.3168 77.4114 20.448C77.4091 19.6446 77.4092 18.8414 77.4149 18.0381C77.4205 17.1411 77.419 16.2445 77.4159 15.3476C77.4194 15.085 77.4229 14.8224 77.4265 14.5519C77.408 12.4947 76.8525 11.0082 75.5624 9.40432C73.5389 7.80434 71.5384 7.69891 69.0449 7.70306C68.8096 7.70253 68.5742 7.702 68.3317 7.70145C67.545 7.69997 66.7582 7.70016 65.9714 7.70035C65.4066 7.69965 64.8417 7.69885 64.2769 7.69797C62.9029 7.69611 61.529 7.69538 60.155 7.69525C59.0379 7.69514 57.9207 7.69465 56.8035 7.69391C53.6333 7.69185 50.4631 7.69077 47.293 7.69094C47.0369 7.69096 47.0369 7.69096 46.7756 7.69097C46.6046 7.69098 46.4337 7.69099 46.2576 7.691C43.4871 7.69109 40.7166 7.68885 37.9461 7.68555C35.0987 7.68218 32.2512 7.68056 29.4038 7.68076C27.8063 7.68084 26.2088 7.6802 24.6112 7.67768C23.1088 7.67531 21.6064 7.67539 20.1039 7.67709C19.553 7.67734 19.0021 7.67679 18.4512 7.67537C17.6981 7.67356 16.9452 7.67465 16.1921 7.67645C15.975 7.67525 15.758 7.67404 15.5343 7.6728C13.2204 7.68502 11.3212 8.05467 9.54189 9.6094C7.71923 11.676 7.83243 14.427 7.84174 17.0305C7.8412 17.3499 7.84045 17.6693 7.83952 17.9886C7.83758 18.8607 7.83853 19.7327 7.83999 20.6047C7.84105 21.5473 7.83941 22.4899 7.83812 23.4326C7.83604 25.277 7.83648 27.1213 7.83784 28.9657C7.8389 30.4651 7.83905 31.9646 7.83854 33.464C7.83846 33.6776 7.83839 33.8913 7.83832 34.1114C7.83817 34.5455 7.83802 34.9796 7.83786 35.4137C7.83653 39.4812 7.83806 43.5486 7.84058 47.6161C7.84268 51.1037 7.84231 54.5914 7.84015 58.079C7.83764 62.1322 7.83666 66.1855 7.83809 70.2387C7.83824 70.6711 7.83839 71.1036 7.83854 71.5361C7.83861 71.7489 7.83868 71.9616 7.83876 72.1808C7.83916 73.6779 7.83848 75.1749 7.83737 76.672C7.83606 78.4972 7.83642 80.3224 7.83891 82.1476C7.84014 83.0782 7.84063 84.0089 7.83908 84.9396C7.83767 85.7925 7.83846 86.6455 7.84094 87.4984C7.84171 87.9509 7.84019 88.4035 7.83857 88.856C7.85007 91.4204 8.01271 93.6464 9.77626 95.625C12.0194 97.5612 14.9369 97.333 17.7214 97.3255C18.1212 97.3261 18.521 97.327 18.9208 97.3281C19.7783 97.33 20.6357 97.3305 21.4932 97.33C22.8495 97.3293 24.2057 97.3327 25.5619 97.3368C29.4173 97.3478 33.2727 97.3534 37.128 97.3549C39.26 97.3558 41.3919 97.36 43.5239 97.3678C44.8718 97.3726 46.2197 97.3731 47.5677 97.3706C48.4059 97.37 49.244 97.3732 50.0822 97.3776C50.4705 97.3789 50.8589 97.3785 51.2472 97.3764C51.7778 97.3738 52.3081 97.377 52.8388 97.3815C53.1355 97.3818 53.4322 97.382 53.7378 97.3823C54.957 97.5608 55.6714 98.1462 56.5048 99.0235C57.0668 100.234 57.0623 101.344 56.8856 102.656C56.3445 103.822 55.6503 104.375 54.5419 105C53.9132 105.089 53.3824 105.127 52.7561 105.119C52.4934 105.121 52.4934 105.121 52.2253 105.124C51.6408 105.127 51.0564 105.124 50.4719 105.121C50.0517 105.123 49.6316 105.124 49.2114 105.126C48.0714 105.131 46.9315 105.129 45.7914 105.126C44.5961 105.124 43.4007 105.126 42.2054 105.127C40.1963 105.129 38.1873 105.127 36.1782 105.122C33.8611 105.117 31.5442 105.119 29.2271 105.124C27.2342 105.128 25.2413 105.129 23.2484 105.126C22.0598 105.125 20.8712 105.125 19.6826 105.128C18.5632 105.131 17.4438 105.129 16.3243 105.123C15.9156 105.122 15.5068 105.122 15.098 105.124C10.8175 105.144 7.18094 104.152 3.99929 101.126C1.67489 98.6823 0.141198 95.7456 0.13543 92.3259C0.134385 92.0381 0.13334 91.7502 0.132264 91.4537C0.132285 91.135 0.132329 90.8163 0.132394 90.4976C0.131621 90.1584 0.130747 89.8193 0.129783 89.4802C0.127438 88.5481 0.126564 87.616 0.125942 86.6839C0.125026 85.6786 0.122781 84.6733 0.120736 83.668C0.116106 81.2401 0.113744 78.8121 0.111659 76.3842C0.110631 75.2403 0.109374 74.0964 0.108146 72.9525C0.104159 69.1489 0.100762 65.3453 0.0990641 61.5416C0.0986165 60.5548 0.0981662 59.568 0.0977078 58.5812C0.0975945 58.3359 0.0974813 58.0907 0.0973645 57.838C0.0954198 53.8662 0.0894821 49.8945 0.0818685 45.9227C0.0741123 41.8432 0.0698961 37.7638 0.0691477 33.6843C0.0686407 31.3945 0.0665964 29.1048 0.0606013 26.815C0.0555065 24.8647 0.0536309 22.9143 0.0559065 20.964C0.0569696 19.9696 0.0565393 18.9753 0.051978 17.9809C0.0478305 17.0689 0.0480915 16.1569 0.0517196 15.2449C0.0522742 14.9166 0.0512751 14.5884 0.0484786 14.2601C0.0156232 10.1459 1.27251 6.63757 4.16133 3.69509C6.32319 1.60622 9.4826 -0.0246377 12.5299 -0.0314324Z" fill="white"/>
<path d="M93.0484 50.4077C93.203 50.4596 93.3576 50.5115 93.5169 50.5651C94.0232 50.7361 94.5277 50.9121 95.0322 51.0882C95.3924 51.2111 95.7528 51.3336 96.1132 51.4558C97.0704 51.7815 98.0261 52.1115 98.9814 52.4425C99.9661 52.7829 100.952 53.1197 101.938 53.4569C103.67 54.0501 105.401 54.647 107.132 55.2455C108.471 55.7085 109.811 56.1677 111.152 56.625C112.031 56.9251 112.909 57.227 113.787 57.5298C114.169 57.6616 114.552 57.7929 114.935 57.9237C115.451 58.1002 115.965 58.2792 116.479 58.4592C116.892 58.6021 116.892 58.6021 117.313 58.7478C118.371 59.1946 119.206 59.6097 119.85 60.585C120.274 61.6835 120.267 62.6475 120.262 63.8151C120.264 64.1745 120.264 64.1745 120.267 64.5411C120.271 65.3327 120.27 66.1242 120.269 66.9159C120.27 67.4702 120.271 68.0244 120.272 68.5787C120.275 69.7423 120.274 70.9059 120.272 72.0695C120.269 73.5482 120.274 75.0269 120.281 76.5056C120.285 77.6522 120.285 78.7988 120.283 79.9454C120.283 80.4897 120.285 81.034 120.288 81.5783C120.331 90.9533 117.13 99.3761 110.722 106.284C110.284 106.724 109.839 107.154 109.386 107.578C109.192 107.771 108.999 107.965 108.8 108.164C108.607 108.357 108.413 108.551 108.214 108.75C108.091 108.881 107.968 109.012 107.841 109.147C106.381 110.672 104.739 111.935 103.058 113.203C102.927 113.303 102.795 113.403 102.66 113.505C100.507 115.133 98.234 116.516 95.8728 117.821C95.5154 118.019 95.1591 118.219 94.8041 118.421C91.0251 120.566 91.0251 120.566 88.7608 120C87.6168 119.573 86.5548 118.996 85.4937 118.397C85.0255 118.133 84.553 117.88 84.0779 117.63C79.974 115.434 76.3128 112.605 72.8911 109.463C72.521 109.133 72.1394 108.815 71.7494 108.508C71.2389 108.093 70.8298 107.684 70.4064 107.183C69.9824 106.684 69.5593 106.19 69.1109 105.713C63.7781 100.01 60.1473 92.0822 60.1256 84.2349C60.1241 83.9904 60.1225 83.7459 60.1209 83.494C60.1163 82.6891 60.1136 81.8841 60.1113 81.0791C60.1103 80.8034 60.1093 80.5277 60.1084 80.2436C60.1035 78.7859 60.1001 77.3282 60.0979 75.8704C60.0953 74.3659 60.0872 72.8615 60.078 71.357C60.0718 70.1985 60.0699 69.0399 60.069 67.8814C60.0679 67.3267 60.0652 66.772 60.0608 66.2173C60.0551 65.4415 60.0553 64.6659 60.0569 63.8901C60.0524 63.5477 60.0524 63.5477 60.0479 63.1985C60.0587 61.7751 60.249 60.9189 61.1046 59.7656C62.9173 58.2858 65.8799 57.7278 68.0754 56.9989C68.5286 56.847 68.9817 56.695 69.4347 56.5428C70.6245 56.1435 71.815 55.7463 73.0057 55.3495C74.4386 54.8716 75.8708 54.3916 77.303 53.9117C78.4206 53.5372 79.5383 53.1631 80.6564 52.7903C80.8629 52.7213 81.0695 52.6523 81.2822 52.5812C81.6892 52.4453 82.0963 52.3098 82.5035 52.1746C83.5338 51.8306 84.557 51.4736 85.5749 51.0945C85.8867 50.9801 85.8867 50.9801 86.2047 50.8633C86.5956 50.7191 86.9855 50.5718 87.374 50.4208C89.3372 49.7005 91.0656 49.7276 93.0484 50.4077ZM88.377 58.3015C87.977 58.4368 87.977 58.4368 87.569 58.5749C87.2795 58.6745 86.99 58.774 86.6918 58.8766C86.3853 58.9809 86.0788 59.0851 85.7723 59.1892C84.9594 59.4655 84.1472 59.7435 83.335 60.0219C82.539 60.2945 81.7424 60.5653 80.9459 60.8363C76.5163 62.3446 72.0917 63.8676 67.6671 65.3906C67.6561 67.571 67.6479 69.7514 67.6428 71.9318C67.6404 72.9448 67.6371 73.9577 67.6317 74.9707C67.5773 85.5188 68.7293 93.7063 76.1046 101.719C76.2116 101.835 76.3185 101.951 76.4287 102.071C78.1171 103.883 79.9871 105.398 81.964 106.875C82.0941 106.974 82.2243 107.073 82.3583 107.174C84.037 108.444 85.784 109.587 87.589 110.669C87.7768 110.785 87.9646 110.901 88.1581 111.02C88.9477 111.482 89.4919 111.792 90.4161 111.815C91.3363 111.477 92.1438 111.031 92.9796 110.522C93.1538 110.418 93.328 110.313 93.5075 110.206C97.0495 108.051 100.258 105.477 103.292 102.656C103.526 102.441 103.526 102.441 103.765 102.222C109.285 96.9491 112.458 89.8826 112.681 82.2689C112.735 79.6374 112.713 77.0045 112.699 74.3726C112.694 73.3574 112.692 72.3421 112.69 71.3269C112.685 69.3481 112.677 67.3694 112.667 65.3906C112.46 65.3209 112.253 65.2511 112.04 65.1792C110.069 64.5143 108.097 63.8492 106.126 63.1837C105.113 62.8418 104.1 62.5 103.087 62.1584C102.108 61.8283 101.129 61.4979 100.15 61.1673C99.7671 61.038 99.3842 60.9088 99.0013 60.7797C96.6358 59.9817 94.2719 59.1805 91.9284 58.3195C90.5826 57.8351 89.718 57.8439 88.377 58.3015Z" fill="white"/>
<path d="M19.92 39.8093C20.2204 39.808 20.2204 39.808 20.5269 39.8066C21.2005 39.8041 21.8741 39.8032 22.5477 39.8023C23.0297 39.8008 23.5117 39.7992 23.9936 39.7976C25.305 39.7935 26.6164 39.791 27.9278 39.7891C28.747 39.7879 29.5661 39.7865 30.3853 39.785C32.948 39.7805 35.5106 39.7772 38.0732 39.7753C41.0321 39.773 43.9908 39.7668 46.9496 39.7573C49.2361 39.7503 51.5225 39.7468 53.809 39.746C55.1748 39.7455 56.5406 39.7434 57.9064 39.7375C59.1917 39.732 60.4769 39.731 61.7621 39.7334C62.2334 39.7335 62.7047 39.7321 63.1759 39.7288C63.8204 39.7247 64.4645 39.7264 65.109 39.7294C65.2946 39.7269 65.4801 39.7243 65.6713 39.7216C66.9801 39.7367 67.9772 40.056 69.0733 40.7812C70.1615 41.9253 70.3289 42.8829 70.3111 44.4131C70.1806 45.5743 69.5367 46.2045 68.6924 46.9482C67.7005 47.653 66.9118 47.6135 65.728 47.6142C65.5251 47.6152 65.3222 47.6162 65.1131 47.6173C64.429 47.6205 63.745 47.6219 63.0609 47.6233C62.572 47.6252 62.0832 47.6271 61.5943 47.6291C59.9851 47.6353 58.3759 47.6389 56.7668 47.6422C56.2132 47.6435 55.6597 47.6447 55.1062 47.646C52.8037 47.6511 50.5012 47.6555 48.1987 47.6581C44.8971 47.6619 41.5955 47.6697 38.294 47.683C35.9737 47.6921 33.6534 47.6967 31.3331 47.6979C29.9469 47.6988 28.5607 47.7016 27.1744 47.7092C25.8697 47.7162 24.5651 47.7177 23.2604 47.715C22.782 47.7149 22.3035 47.7169 21.8251 47.721C21.1708 47.7263 20.517 47.7243 19.8627 47.7206C19.6742 47.7239 19.4858 47.7271 19.2916 47.7305C17.8957 47.711 16.9557 47.2819 15.8702 46.4062C15.0192 45.353 15.0493 44.4058 15.0846 43.0966C15.234 41.8735 15.821 41.2715 16.7051 40.4736C17.7423 39.7556 18.7059 39.809 19.92 39.8093Z" fill="white"/>
<path d="M106.152 70.4974C106.996 71.0659 107.428 71.7049 107.745 72.6562C108.024 74.3563 107.647 75.4318 106.675 76.8237C105.704 78.1223 104.702 79.3977 103.699 80.6717C102.848 81.7582 102.026 82.8649 101.212 83.9795C100.048 85.5707 98.8655 87.1457 97.667 88.7109C96.2804 90.5221 94.9151 92.3474 93.5691 94.189C93.218 94.6689 92.8646 95.1471 92.5108 95.625C92.35 95.8449 92.1893 96.0649 92.0237 96.2915C91.3361 97.0629 90.7493 97.448 89.7212 97.6016C89.369 97.6021 89.369 97.6021 89.0098 97.6025C88.6586 97.6093 88.6586 97.6093 88.3003 97.6163C86.9496 97.3955 86.005 96.4436 85.0623 95.5028C84.8527 95.2947 84.6432 95.0866 84.4273 94.8723C84.203 94.6472 83.9788 94.422 83.7547 94.1968C83.5214 93.9638 83.2881 93.7309 83.0547 93.4981C82.5678 93.0119 82.0817 92.5248 81.5962 92.0372C80.9747 91.413 80.3511 90.7909 79.7268 90.1695C79.2454 89.6898 78.7652 89.2089 78.2852 88.7278C78.0557 88.4979 77.8258 88.2685 77.5956 88.0393C77.2742 87.7191 76.9545 87.3973 76.6348 87.0753C76.4528 86.8929 76.2707 86.7104 76.0831 86.5224C75.0918 85.3993 75.0515 84.4275 75.0782 82.9651C75.2095 81.9311 75.5738 81.3191 76.3389 80.625C77.3476 79.8978 78.2606 79.835 79.4654 79.8056C81.087 80.108 82.2043 81.2376 83.3088 82.3782C83.451 82.522 83.5933 82.6658 83.7398 82.8139C84.1896 83.2691 84.6369 83.7267 85.084 84.1846C85.5357 84.6445 85.9879 85.1039 86.4408 85.5627C86.7214 85.8473 87.0013 86.1327 87.2804 86.4188C87.9527 87.1258 87.9527 87.1258 88.7608 87.6562C88.8251 87.52 88.8894 87.3837 88.9557 87.2433C89.2232 86.7309 89.5179 86.2904 89.8612 85.8261C90.052 85.5673 90.052 85.5673 90.2467 85.3033C90.3847 85.1178 90.5228 84.9323 90.6651 84.7412C90.8098 84.5457 90.9545 84.3503 91.1036 84.1489C92.3403 82.4834 93.5977 80.834 94.8588 79.1869C95.928 77.788 96.978 76.3764 98.0186 74.956C98.4116 74.4225 98.805 73.8893 99.1988 73.3563C99.413 73.0657 99.6263 72.7746 99.8385 72.4826C101.515 70.1825 103.375 68.9795 106.152 70.4974Z" fill="white"/>
<path d="M20.4235 59.8787C20.7163 59.8771 21.0092 59.8754 21.3109 59.8737C22.1114 59.8703 22.9117 59.8711 23.7122 59.8741C24.5514 59.8765 25.3906 59.8743 26.2299 59.8728C27.639 59.8711 29.048 59.8733 30.4571 59.8778C32.0843 59.8829 33.7114 59.8813 35.3386 59.8761C36.7377 59.8718 38.1368 59.8712 39.536 59.8737C40.3707 59.8751 41.2054 59.8754 42.0401 59.8722C42.9709 59.869 43.9016 59.8735 44.8324 59.8787C45.2455 59.8759 45.2455 59.8759 45.6671 59.873C47.1348 59.8882 48.042 59.9406 49.1514 60.9375C50.108 61.9975 50.3991 62.7636 50.3727 64.206C50.258 65.3235 49.7299 66.0448 48.9023 66.753C48.0117 67.4162 47.6396 67.5296 46.5504 67.5345C46.1709 67.537 46.1709 67.537 45.7837 67.5396C45.5049 67.5402 45.2261 67.5409 44.9388 67.5415C44.4997 67.5438 44.4997 67.5438 44.0518 67.5462C43.0796 67.5508 42.1073 67.5535 41.135 67.5559C40.8003 67.5568 40.4656 67.5578 40.1308 67.5588C38.5581 67.5632 36.9853 67.5666 35.4125 67.5685C33.5974 67.5708 31.7824 67.577 29.9673 67.5864C28.5642 67.5935 27.1611 67.597 25.758 67.5978C24.9201 67.5983 24.0823 67.6004 23.2444 67.6063C22.309 67.6128 21.3738 67.6118 20.4384 67.6102C20.023 67.6147 20.023 67.6147 19.5992 67.6193C18.1257 67.6099 17.2185 67.5632 16.1045 66.5625C15.2541 65.6674 15.0943 64.9494 15.0498 63.75C15.0943 62.5507 15.2541 61.8327 16.1045 60.9375C17.4218 59.7579 18.7139 59.8669 20.4235 59.8787Z" fill="white"/>
<path d="M20.1556 19.8234C20.5148 19.8205 20.5148 19.8205 20.8813 19.8174C21.6713 19.8119 22.4611 19.8117 23.2511 19.812C23.8016 19.8103 24.3521 19.8085 24.9026 19.8066C26.0559 19.8034 27.2092 19.8031 28.3626 19.8044C29.8385 19.8058 31.3142 19.7987 32.79 19.7892C33.9269 19.7831 35.0637 19.7824 36.2006 19.7833C36.7446 19.7829 37.2886 19.7806 37.8326 19.7765C38.5944 19.7713 39.3559 19.7735 40.1177 19.7777C40.4528 19.773 40.4528 19.773 40.7946 19.7682C42.2966 19.7871 43.3018 20.1249 44.4638 21.0937C45.3148 22.1469 45.2847 23.0942 45.2494 24.4034C45.1007 25.6211 44.5135 26.2217 43.6435 27.0263C42.8042 27.5929 42.0993 27.6852 41.1003 27.6891C40.898 27.6905 40.6956 27.6918 40.4871 27.6932C40.1568 27.6936 40.1568 27.6936 39.8199 27.694C39.5866 27.6952 39.3533 27.6963 39.1129 27.6975C38.341 27.7009 37.5691 27.7025 36.7972 27.7038C36.2607 27.7052 35.7242 27.7065 35.1876 27.7079C34.0626 27.7103 32.9376 27.7117 31.8126 27.7125C30.3714 27.7138 28.9302 27.7195 27.489 27.7261C26.3808 27.7305 25.2725 27.7317 24.1642 27.7321C23.6329 27.7328 23.1016 27.7347 22.5702 27.7377C21.8269 27.7417 21.0836 27.7413 20.3403 27.7398C20.1211 27.7419 19.9019 27.7441 19.676 27.7463C18.2967 27.7375 17.2404 27.5759 16.1878 26.5933C15.0768 25.1405 14.962 24.0874 15.167 22.2656C15.5504 21.3169 16.0585 20.8027 16.9159 20.259C18.0195 19.8103 18.9754 19.8198 20.1556 19.8234Z" fill="white"/>
</g>
<defs>
<clipPath id="clip0_87_1113">
<rect width="120" height="120" fill="white" transform="translate(0.166992)"/>
</clipPath>
</defs>
</svg>
