<svg width="25" height="24" viewBox="0 0 25 24" fill="none" xmlns="http://www.w3.org/2000/svg">
<g clip-path="url(#clip0_6108_30296)">
<path d="M21.213 8.1281L20.967 8.6941C20.9286 8.78627 20.8637 8.865 20.7806 8.92038C20.6975 8.97575 20.5999 9.00531 20.5 9.00531C20.4001 9.00531 20.3025 8.97575 20.2194 8.92038C20.1363 8.865 20.0714 8.78627 20.033 8.6941L19.787 8.1281C19.3545 7.12683 18.5624 6.32402 17.567 5.8781L16.808 5.5391C16.7159 5.49675 16.6379 5.42887 16.5832 5.34353C16.5286 5.25819 16.4995 5.15896 16.4995 5.0576C16.4995 4.95625 16.5286 4.85702 16.5832 4.77168C16.6379 4.68633 16.7159 4.61846 16.808 4.5761L17.525 4.2571C18.5454 3.79848 19.3511 2.96599 19.776 1.9311L20.029 1.3201C20.0662 1.22546 20.131 1.1442 20.215 1.08693C20.299 1.02966 20.3983 0.999023 20.5 0.999023C20.6017 0.999023 20.701 1.02966 20.785 1.08693C20.869 1.1442 20.9338 1.22546 20.971 1.3201L21.224 1.9301C21.6485 2.96518 22.4538 3.79804 23.474 4.2571L24.192 4.5771C24.2838 4.61958 24.3615 4.68745 24.416 4.77268C24.4705 4.85791 24.4994 4.95695 24.4994 5.0581C24.4994 5.15926 24.4705 5.2583 24.416 5.34353C24.3615 5.42876 24.2838 5.49663 24.192 5.5391L23.432 5.8771C22.4368 6.32347 21.6451 7.12663 21.213 8.1281ZM12.5 4.0001C10.877 4.00035 9.29249 4.49423 7.95678 5.41617C6.62108 6.33811 5.59738 7.64451 5.02159 9.16192C4.44579 10.6793 4.34515 12.336 4.73301 13.912C5.12088 15.4879 5.9789 16.9086 7.19317 17.9855C8.40745 19.0623 9.92053 19.7444 11.5316 19.9411C13.1426 20.1378 14.7753 19.8399 16.213 19.0869C17.6508 18.3338 18.8254 17.1613 19.5811 15.725C20.3368 14.2887 20.6377 12.6565 20.444 11.0451L22.43 10.8091C22.4767 11.2004 22.5 11.5974 22.5 12.0001C22.5 17.5231 18.023 22.0001 12.5 22.0001C6.977 22.0001 2.5 17.5231 2.5 12.0001C2.5 6.47711 6.977 2.0001 12.5 2.0001C13.361 2.0001 14.199 2.1101 14.998 2.3151L14.5 4.2521C13.8466 4.08411 13.1746 3.99944 12.5 4.0001ZM13.5 11.0001H16.5L11.5 18.0001V13.0001H8.5L13.5 6.0001V11.0001Z" fill="white"/>
</g>
<defs>
<clipPath id="clip0_6108_30296">
<rect width="24" height="24" fill="white" transform="translate(0.5)"/>
</clipPath>
</defs>
</svg>
