<svg width="48" height="48" viewBox="0 0 48 48" fill="none" xmlns="http://www.w3.org/2000/svg">
<rect width="48" height="48" rx="24" fill="url(#paint0_linear_6112_20661)"/>
<g clip-path="url(#clip0_6112_20661)">
<path d="M21.814 12.4813C21.8648 12.4809 21.9156 12.4804 21.9679 12.4799C22.0512 12.4802 22.0512 12.4802 22.1361 12.4806C22.2241 12.4801 22.2241 12.4801 22.3138 12.4796C22.4745 12.4789 22.6351 12.4788 22.7958 12.4791C22.93 12.4792 23.0642 12.4789 23.1984 12.4786C23.515 12.478 23.8316 12.4781 24.1483 12.4786C24.4748 12.4791 24.8012 12.4785 25.1277 12.4772C25.4082 12.4762 25.6887 12.4759 25.9691 12.4761C26.1366 12.4763 26.304 12.4762 26.4714 12.4754C26.6582 12.4745 26.8449 12.4752 27.0316 12.476C27.087 12.4755 27.1424 12.4751 27.1995 12.4746C27.574 12.478 27.574 12.478 27.7582 12.5868C27.9235 12.7782 27.9997 12.9281 27.9824 13.1821C27.9529 13.3745 27.8929 13.4868 27.751 13.6245C27.597 13.7271 27.5533 13.7298 27.3749 13.7289C27.3271 13.7289 27.2792 13.7289 27.2299 13.7289C27.1784 13.7284 27.1268 13.7279 27.0737 13.7274C26.9944 13.7272 26.9944 13.7272 26.9135 13.727C26.7444 13.7265 26.5753 13.7253 26.4063 13.7241C26.2917 13.7236 26.1772 13.7232 26.0627 13.7228C25.7817 13.7219 25.5007 13.72 25.2197 13.7183C25.2352 14.4453 25.2507 15.1723 25.2666 15.9214C25.4348 15.9407 25.603 15.96 25.7764 15.98C26.5368 16.0727 27.2611 16.2353 27.9854 16.4839C28.0316 16.4996 28.0316 16.4996 28.0787 16.5157C28.5682 16.685 29.0288 16.896 29.4854 17.1401C29.5138 17.1552 29.5422 17.1703 29.5714 17.1859C30.2236 17.5362 30.8005 17.9707 31.3604 18.4526C31.5436 18.3784 31.6661 18.2526 31.802 18.1139C31.8375 18.0782 31.8375 18.0782 31.8737 18.0418C31.9489 17.966 32.0238 17.89 32.0986 17.814C32.1497 17.7624 32.2008 17.7109 32.2519 17.6594C32.3768 17.5334 32.5015 17.4072 32.626 17.2808C32.4439 17.0641 32.2562 16.8616 32.051 16.6664C31.8783 16.4778 31.858 16.319 31.8641 16.0706C31.8862 15.8805 31.9698 15.7748 32.1104 15.6518C32.2971 15.5351 32.4569 15.5284 32.6729 15.5464C33.0045 15.696 33.2366 15.9498 33.4895 16.2054C33.536 16.2519 33.5825 16.2983 33.629 16.3448C33.7259 16.4417 33.8227 16.539 33.9192 16.6364C34.0427 16.7609 34.1666 16.8848 34.2907 17.0086C34.3866 17.1044 34.4823 17.2003 34.5778 17.2964C34.6235 17.3422 34.6691 17.3879 34.7149 17.4336C34.7788 17.4975 34.8424 17.5617 34.906 17.626C34.9602 17.6806 34.9602 17.6806 35.0156 17.7362C35.2012 17.9459 35.2881 18.1231 35.2979 18.4058C35.2294 18.6184 35.1584 18.7956 34.9697 18.9214C34.7538 18.9753 34.5766 18.9965 34.3655 18.9177C34.1826 18.8047 34.0455 18.6687 33.8975 18.5141C33.8697 18.4857 33.8419 18.4573 33.8132 18.428C33.7453 18.3584 33.6778 18.2884 33.6104 18.2183C33.4271 18.2925 33.3046 18.4182 33.1687 18.557C33.1332 18.5927 33.1332 18.5927 33.097 18.6291C33.0218 18.7048 32.9469 18.7809 32.8721 18.8569C32.821 18.9085 32.7699 18.96 32.7188 19.0115C32.5939 19.1374 32.4692 19.2637 32.3447 19.3901C32.4906 19.5868 32.6372 19.7807 32.7959 19.9673C34.4271 21.9985 35.1059 24.7443 34.8408 27.312C34.824 27.4531 34.804 27.5935 34.7822 27.7339C34.7764 27.772 34.7706 27.8101 34.7647 27.8493C34.4364 29.9293 33.4866 31.9299 31.9697 33.4058C31.933 33.4425 31.8963 33.4792 31.8584 33.5171C31.8178 33.5577 31.7772 33.5983 31.7354 33.6401C31.7089 33.6688 31.6824 33.6974 31.6552 33.7269C30.6284 34.8087 29.1951 35.5584 27.7979 36.0308C27.7637 36.0424 27.7296 36.054 27.6944 36.066C26.8705 36.3413 25.9863 36.5024 25.1172 36.5107C25.0773 36.5111 25.0373 36.5116 24.9962 36.5121C24.115 36.5201 23.2701 36.5101 22.4072 36.312C22.3631 36.3025 22.3189 36.2929 22.2734 36.2831C20.5895 35.9136 19.0494 35.1153 17.7666 33.9683C17.6991 33.9092 17.6991 33.9092 17.6302 33.8491C17.1371 33.4142 17.1371 33.4142 17.1074 33.0818C17.1141 32.8575 17.2064 32.7015 17.3594 32.5444C17.5339 32.4389 17.6581 32.4072 17.8618 32.4338C18.0934 32.4909 18.228 32.5888 18.3906 32.7612C19.8902 34.3487 22.2278 35.1516 24.369 35.2293C26.749 35.2898 29.0885 34.3614 30.8134 32.7295C30.8547 32.6897 30.896 32.6499 30.9385 32.6089C30.9754 32.5744 31.0123 32.5399 31.0504 32.5043C31.3458 32.2213 31.5872 31.906 31.8291 31.5776C31.8575 31.5402 31.8859 31.5027 31.9152 31.4641C32.5367 30.6179 32.9648 29.6301 33.2546 28.6263C33.2775 28.547 33.3015 28.4681 33.3258 28.3892C33.8538 26.5302 33.6184 24.3206 32.8135 22.5776C32.7999 22.5481 32.7863 22.5186 32.7723 22.4882C32.3463 21.5719 31.7837 20.6647 31.0436 19.9689C30.9854 19.9058 30.9854 19.9058 30.9854 19.812C30.9575 19.7996 30.9296 19.7872 30.9009 19.7744C30.7943 19.7163 30.7316 19.6584 30.6495 19.5698C29.1543 18.0327 26.8229 17.2615 24.7197 17.226C23.9699 17.22 23.2313 17.2969 22.501 17.4683C22.4449 17.4812 22.3888 17.4941 22.3311 17.5074C20.8583 17.8725 19.5329 18.6477 18.4229 19.6714C18.1624 19.9058 17.9931 20.0165 17.6395 20.0131C17.4746 19.9922 17.3754 19.9182 17.251 19.812C17.1141 19.6067 17.102 19.4313 17.125 19.188C17.2741 18.7438 17.8353 18.4027 18.1885 18.1245C18.2336 18.0874 18.2788 18.0503 18.3253 18.0121C19.8597 16.7791 21.9823 15.9683 23.9541 15.9683C23.9541 15.2258 23.9541 14.4833 23.9541 13.7183C23.7848 13.721 23.6155 13.7237 23.441 13.7265C23.2768 13.7283 23.1125 13.7297 22.9482 13.7311C22.8341 13.7323 22.7201 13.7339 22.6061 13.7359C22.442 13.7388 22.278 13.7401 22.1139 13.7411C22.0376 13.743 22.0376 13.743 21.9598 13.7448C21.5641 13.745 21.5641 13.745 21.3925 13.6049C21.2142 13.4091 21.1664 13.2889 21.1735 13.0164C21.2041 12.8223 21.3193 12.6917 21.4607 12.5631C21.5877 12.4845 21.6653 12.4817 21.814 12.4813Z" fill="white"/>
<path d="M29.5298 20.985C29.6723 21.0699 29.7427 21.1356 29.8257 21.278C29.8858 21.5182 29.9096 21.6953 29.7822 21.9088C29.6608 22.086 29.5132 22.2328 29.3609 22.3834C29.3302 22.414 29.2995 22.4447 29.268 22.4763C29.1672 22.577 29.0662 22.6773 28.9651 22.7776C28.895 22.8476 28.8248 22.9176 28.7547 22.9877C28.5706 23.1714 28.3862 23.3549 28.2017 23.5383C28.0133 23.7257 27.8252 23.9134 27.6371 24.1011C27.2682 24.4689 26.8991 24.8364 26.5298 25.2038C26.5394 25.2354 26.549 25.2671 26.5589 25.2997C26.5716 25.3415 26.5842 25.3833 26.5972 25.4264C26.6097 25.4678 26.6222 25.5091 26.6351 25.5517C26.8073 26.1404 26.757 26.7531 26.463 27.2959C26.3347 27.4968 26.1918 27.6689 26.0142 27.8288C25.9736 27.8674 25.933 27.9061 25.8912 27.946C25.4604 28.2943 24.9109 28.4132 24.3677 28.3854C23.8357 28.3257 23.3514 28.0555 22.9673 27.6881C22.519 27.1244 22.3968 26.5172 22.4517 25.8131C22.5543 25.2587 22.8803 24.7751 23.3423 24.4538C23.8557 24.1501 24.3843 23.9799 24.9815 24.1088C25.0682 24.1326 25.1545 24.1575 25.2404 24.184C25.2792 24.1957 25.318 24.2074 25.358 24.2194C25.3927 24.2336 25.4274 24.2479 25.4632 24.2625C25.6059 24.2803 25.6059 24.2803 25.7372 24.1539C25.7926 24.0988 25.8473 24.0428 25.9013 23.9863C25.9313 23.9559 25.9614 23.9256 25.9924 23.8944C26.0919 23.7937 26.1905 23.692 26.289 23.5904C26.3581 23.5203 26.4273 23.4503 26.4966 23.3803C26.6791 23.1956 26.8609 23.0102 27.0424 22.8245C27.3324 22.528 27.623 22.2322 27.9145 21.9373C28.016 21.8342 28.1168 21.7306 28.2176 21.6269C28.2803 21.5632 28.3431 21.4996 28.4058 21.436C28.4334 21.4072 28.4611 21.3784 28.4896 21.3488C28.7911 21.0456 29.0998 20.857 29.5298 20.985ZM23.8171 25.7811C23.6786 25.9877 23.6916 26.2309 23.7173 26.4694C23.8009 26.7182 23.9701 26.8893 24.1861 27.0319C24.4524 27.1419 24.6658 27.1405 24.9326 27.0339C25.1462 26.9265 25.277 26.8097 25.399 26.5983C25.48 26.328 25.5093 26.0824 25.3755 25.8249C25.2248 25.5953 25.0173 25.4165 24.7486 25.3444C24.3371 25.2978 24.0693 25.4726 23.8171 25.7811Z" fill="white"/>
<path d="M13.3827 29.4971C13.459 29.4965 13.459 29.4965 13.5369 29.4959C13.6199 29.4963 13.6199 29.4963 13.7045 29.4967C13.7632 29.4965 13.8218 29.4962 13.8822 29.496C14.0427 29.4955 14.2032 29.4956 14.3637 29.496C14.5318 29.4964 14.6999 29.4961 14.868 29.4959C15.1503 29.4956 15.4326 29.4959 15.7149 29.4966C16.041 29.4974 16.3672 29.4971 16.6933 29.4963C16.9736 29.4957 17.2539 29.4956 17.5341 29.496C17.7014 29.4962 17.8687 29.4962 18.036 29.4958C18.2225 29.4953 18.409 29.496 18.5955 29.4967C18.6508 29.4965 18.7061 29.4962 18.7631 29.4959C18.814 29.4963 18.8649 29.4967 18.9173 29.4971C18.9613 29.4971 19.0054 29.4972 19.0508 29.4972C19.2408 29.5247 19.3653 29.6086 19.4928 29.7493C19.579 29.967 19.579 30.1747 19.5484 30.4056C19.4504 30.5939 19.3314 30.6713 19.1366 30.7513C18.9182 30.8128 18.6916 30.8 18.4665 30.7988C18.4102 30.799 18.3539 30.7992 18.2959 30.7995C18.1423 30.8 17.9887 30.7999 17.8351 30.7994C17.6739 30.7991 17.5128 30.7994 17.3517 30.7996C17.0811 30.7999 16.8106 30.7996 16.5401 30.7989C16.2278 30.7981 15.9155 30.7984 15.6032 30.7992C15.3345 30.7998 15.0659 30.7999 14.7972 30.7995C14.6369 30.7993 14.4767 30.7993 14.3165 30.7997C14.1378 30.8001 13.9592 30.7995 13.7806 30.7988C13.7278 30.799 13.675 30.7993 13.6205 30.7996C13.2963 30.797 13.0777 30.7674 12.8307 30.5403C12.7227 30.3563 12.6894 30.1966 12.7047 29.9837C12.7619 29.8088 12.8497 29.6863 13.0003 29.5772C13.1404 29.5081 13.2274 29.4973 13.3827 29.4971Z" fill="white"/>
<path d="M15.2332 25.5598C15.289 25.5596 15.3447 25.5593 15.4022 25.5591C15.5543 25.5586 15.7065 25.5587 15.8586 25.5591C16.0183 25.5595 16.178 25.5592 16.3377 25.5589C16.6058 25.5587 16.8739 25.559 17.142 25.5597C17.4513 25.5604 17.7607 25.5602 18.0701 25.5594C18.3364 25.5588 18.6026 25.5587 18.8689 25.5591C19.0276 25.5593 19.1863 25.5593 19.3451 25.5589C19.5221 25.5585 19.6992 25.559 19.8762 25.5598C19.9545 25.5594 19.9545 25.5594 20.0344 25.559C20.3699 25.5617 20.6182 25.5867 20.877 25.8183C20.9812 26.0027 21.0152 26.1633 21 26.3749C20.9428 26.5498 20.855 26.6723 20.7044 26.7814C20.5643 26.8505 20.4773 26.8613 20.322 26.8615C20.2711 26.8619 20.2203 26.8623 20.1678 26.8627C20.1125 26.8624 20.0572 26.8621 20.0002 26.8618C19.9415 26.8621 19.8829 26.8623 19.8225 26.8626C19.662 26.8631 19.5015 26.863 19.3411 26.8625C19.1729 26.8622 19.0048 26.8625 18.8367 26.8627C18.5544 26.863 18.2721 26.8626 17.9898 26.862C17.6637 26.8612 17.3375 26.8615 17.0114 26.8622C16.7311 26.8629 16.4509 26.863 16.1706 26.8626C16.0033 26.8624 15.836 26.8623 15.6687 26.8628C15.4822 26.8633 15.2958 26.8626 15.1092 26.8618C15.0262 26.8623 15.0262 26.8623 14.9416 26.8627C14.8907 26.8623 14.8398 26.8619 14.7874 26.8615C14.7434 26.8614 14.6993 26.8614 14.6539 26.8613C14.4626 26.8337 14.3382 26.75 14.2119 26.6063C14.1295 26.4024 14.1257 26.2168 14.1563 25.9999C14.2525 25.7882 14.3533 25.693 14.5684 25.6063C14.7855 25.5469 15.0097 25.5586 15.2332 25.5598Z" fill="white"/>
<path d="M13.4079 21.68C13.4827 21.6795 13.4827 21.6795 13.5589 21.679C13.6138 21.6789 13.6687 21.6788 13.7252 21.6786C13.7828 21.6783 13.8405 21.678 13.8998 21.6777C14.0912 21.6768 14.2826 21.6762 14.4741 21.6758C14.54 21.6756 14.6059 21.6754 14.6718 21.6752C14.9814 21.6743 15.2911 21.6736 15.6007 21.6732C15.9581 21.6728 16.3154 21.6715 16.6727 21.6697C16.949 21.6682 17.2252 21.6675 17.5014 21.6674C17.6664 21.6673 17.8313 21.6669 17.9963 21.6657C18.1805 21.6644 18.3646 21.6646 18.5488 21.6649C18.6305 21.664 18.6305 21.664 18.7139 21.6631C19.0067 21.665 19.185 21.6767 19.4069 21.8744C19.5435 22.0162 19.5688 22.1185 19.571 22.3139C19.5663 22.4903 19.5535 22.6053 19.4421 22.7446C19.253 22.9121 19.1315 22.9642 18.879 22.9651C18.8291 22.9655 18.7791 22.9659 18.7277 22.9663C18.6731 22.9663 18.6186 22.9662 18.5624 22.9662C18.5047 22.9665 18.4471 22.9668 18.3877 22.9671C18.2297 22.9679 18.0718 22.9682 17.9138 22.9682C17.8151 22.9683 17.7163 22.9685 17.6176 22.9688C17.2729 22.9696 16.9282 22.97 16.5835 22.9699C16.2625 22.9699 15.9415 22.9709 15.6205 22.9723C15.3447 22.9736 15.0688 22.9741 14.793 22.974C14.6283 22.974 14.4637 22.9743 14.299 22.9753C14.1154 22.9763 13.9317 22.9759 13.748 22.9753C13.6664 22.9761 13.6664 22.9761 13.5832 22.9769C13.2288 22.9742 13.0625 22.9304 12.8063 22.683C12.7245 22.5279 12.6984 22.376 12.7038 22.2026C12.8221 21.8609 13.0531 21.6817 13.4079 21.68Z" fill="white"/>
<path d="M28.7067 29.7358C28.7588 29.7346 28.7588 29.7346 28.812 29.7334C29.0576 29.7719 29.2221 29.9467 29.3915 30.1168C29.4349 30.1604 29.4784 30.2039 29.5231 30.2487C29.5454 30.2713 29.5677 30.2938 29.5906 30.3171C29.659 30.3864 29.7278 30.4553 29.7967 30.5241C30.1931 30.923 30.1931 30.923 30.2008 31.1918C30.1975 31.4204 30.1607 31.5488 29.9987 31.7192C29.797 31.8394 29.6257 31.8905 29.3901 31.8486C29.277 31.8059 29.21 31.7505 29.1207 31.6692C29.0881 31.6396 29.0556 31.6101 29.022 31.5797C28.8554 31.4239 28.6904 31.267 28.528 31.1069C28.4947 31.0749 28.4614 31.043 28.4271 31.0101C28.223 30.8086 28.0875 30.6507 28.0713 30.3523C28.0992 30.1335 28.1475 30.0032 28.3112 29.8442C28.4465 29.7631 28.5493 29.7366 28.7067 29.7358Z" fill="white"/>
<path d="M24.7497 18.5467C24.9771 18.6626 25.0945 18.7946 25.2185 19.0155C25.2427 19.1799 25.2427 19.1799 25.2434 19.3595C25.2436 19.3916 25.2437 19.4238 25.2439 19.4568C25.2441 19.5244 25.2437 19.592 25.2429 19.6595C25.2419 19.7621 25.2429 19.8646 25.2441 19.9672C25.2454 20.5815 25.2454 20.5815 25.031 20.8436C24.8485 20.9721 24.6856 21.0099 24.4665 21.0007C24.2661 20.9647 24.1361 20.8532 24.0166 20.6946C23.898 20.4484 23.9304 20.1703 23.9319 19.9018C23.9323 19.7954 23.931 19.6891 23.9295 19.5827C23.9294 19.5144 23.9295 19.446 23.9296 19.3776C23.9295 19.2853 23.9295 19.2853 23.9293 19.191C23.9583 18.9745 24.0177 18.8669 24.1404 18.6873C24.3427 18.5479 24.5065 18.5163 24.7497 18.5467Z" fill="white"/>
<path d="M31.055 25.5574C31.1453 25.556 31.1453 25.556 31.2374 25.5546C31.5815 25.5548 31.8235 25.5726 32.1126 25.7654C32.2438 25.9459 32.2787 26.1111 32.2699 26.3299C32.2354 26.52 32.1216 26.6473 31.9883 26.7798C31.8329 26.8698 31.6857 26.8646 31.5109 26.8639C31.4577 26.8642 31.4577 26.8642 31.4034 26.8646C31.3284 26.8649 31.2535 26.8649 31.1786 26.8645C31.0645 26.8641 30.9505 26.8654 30.8363 26.8669C30.7633 26.867 30.6904 26.8669 30.6174 26.8668C30.5666 26.8676 30.5666 26.8676 30.5148 26.8684C30.2756 26.8651 30.1404 26.8065 29.9563 26.6561C29.8096 26.4525 29.7977 26.2921 29.836 26.052C29.8917 25.8442 29.9974 25.7494 30.1788 25.6433C30.4556 25.5297 30.761 25.5558 31.055 25.5574Z" fill="white"/>
<path d="M24.7988 31.4847C25.0361 31.5968 25.1221 31.7145 25.2207 31.9534C25.2454 32.1686 25.2429 32.3836 25.2416 32.6001C25.2412 32.7032 25.2425 32.8061 25.244 32.9092C25.2441 32.9754 25.2441 33.0416 25.2439 33.1077C25.2441 33.1971 25.2441 33.1971 25.2442 33.2883C25.2116 33.5169 25.1094 33.6584 24.9482 33.8196C24.8007 33.8997 24.6854 33.9165 24.5176 33.9222C24.2732 33.8476 24.1434 33.7594 24.0019 33.5472C23.9328 33.4088 23.9455 33.2676 23.9439 33.1158C23.9435 33.0822 23.9431 33.0487 23.9427 33.0142C23.9421 32.9431 23.9416 32.872 23.9412 32.8009C23.9404 32.6928 23.9384 32.5847 23.9363 32.4766C23.9358 32.4074 23.9354 32.3382 23.9351 32.2691C23.9343 32.237 23.9335 32.2049 23.9326 32.1718C23.9337 31.9369 23.9977 31.8073 24.1426 31.6253C24.3395 31.4382 24.54 31.4483 24.7988 31.4847Z" fill="white"/>
</g>
<defs>
<linearGradient id="paint0_linear_6112_20661" x1="1.536" y1="44.256" x2="42.384" y2="5.232" gradientUnits="userSpaceOnUse">
<stop stop-color="#08576E"/>
<stop offset="1" stop-color="#0FADDC"/>
</linearGradient>
<clipPath id="clip0_6112_20661">
<rect width="24" height="24" fill="white" transform="translate(12 12.5)"/>
</clipPath>
</defs>
</svg>
