<svg width="120" height="120" viewBox="0 0 120 120" fill="none" xmlns="http://www.w3.org/2000/svg">
<g clip-path="url(#clip0_87_1068)">
<path d="M56.1225 -0.0642814C56.4296 -0.0661224 56.4296 -0.0661224 56.7429 -0.0680006C57.4316 -0.0715278 58.1203 -0.0716818 58.8091 -0.0718381C59.3018 -0.0736236 59.7946 -0.0755987 60.2873 -0.0777497C61.6283 -0.0829034 62.9692 -0.0849568 64.3102 -0.0861465C65.1481 -0.0869996 65.9859 -0.0884616 66.8238 -0.0901312C69.7473 -0.0958767 72.6707 -0.0989319 75.5942 -0.0997616C78.3183 -0.100613 81.0423 -0.107613 83.7663 -0.117435C86.1051 -0.125571 88.4439 -0.129187 90.7827 -0.129351C92.1795 -0.129536 93.5762 -0.131583 94.9729 -0.138256C96.2878 -0.144398 97.6026 -0.144906 98.9175 -0.141149C99.3991 -0.140725 99.8808 -0.142289 100.362 -0.146029C104.992 -0.179775 104.992 -0.179775 106.875 1.17185C107.088 1.30237 107.301 1.43288 107.52 1.56736C109.04 3.13021 109.723 4.80226 109.72 6.94922C109.72 7.13453 109.721 7.31983 109.722 7.51075C109.723 8.13689 109.724 8.76302 109.724 9.38917C109.725 9.84054 109.726 10.2919 109.727 10.7433C109.73 11.9878 109.731 13.2323 109.732 14.4768C109.733 15.8174 109.736 17.158 109.739 18.4987C109.744 21.7385 109.748 24.9783 109.751 28.2181C109.752 29.1329 109.753 30.0476 109.754 30.9624C109.759 36.6406 109.765 42.3188 109.768 47.997C109.768 49.3127 109.769 50.6284 109.77 51.9441C109.77 52.1075 109.77 52.271 109.77 52.4394C109.773 57.7384 109.78 63.0373 109.79 68.3363C109.8 73.9383 109.806 79.5403 109.807 85.1422C109.808 88.1961 109.811 91.2499 109.819 94.3037C109.825 96.9044 109.828 99.505 109.825 102.106C109.824 103.433 109.825 104.76 109.83 106.087C109.836 107.302 109.836 108.517 109.831 109.732C109.83 110.171 109.832 110.611 109.835 111.05C109.867 115.233 109.867 115.233 108.516 117.187C108.385 117.4 108.255 117.613 108.12 117.832C106.681 119.232 105.059 120.028 103.06 120.032C102.91 120.033 102.76 120.033 102.604 120.034C102.097 120.036 101.589 120.036 101.081 120.036C100.715 120.037 100.349 120.038 99.9825 120.039C98.9732 120.042 97.9638 120.043 96.9545 120.044C95.8669 120.046 94.7794 120.048 93.6918 120.051C91.0638 120.057 88.4358 120.06 85.8078 120.063C85.0656 120.064 84.3235 120.065 83.5813 120.066C78.9736 120.072 74.3659 120.077 69.7581 120.08C68.6906 120.081 67.623 120.081 66.5555 120.082C66.2901 120.082 66.0248 120.082 65.7514 120.083C61.4533 120.086 57.1552 120.093 52.8571 120.103C48.4452 120.113 44.0334 120.119 39.6215 120.12C37.1441 120.121 34.6666 120.123 32.1892 120.131C30.0792 120.138 27.9692 120.14 25.8592 120.138C24.7828 120.136 23.7064 120.137 22.63 120.143C21.6438 120.148 20.6578 120.148 19.6715 120.143C19.3155 120.143 18.9595 120.144 18.6035 120.148C16.521 120.167 14.9084 119.985 13.1251 118.828C12.9124 118.698 12.6997 118.567 12.4806 118.433C11.2323 117.15 10.285 115.545 10.2812 113.736C10.2801 113.506 10.2791 113.277 10.278 113.041C10.278 112.788 10.2781 112.536 10.2781 112.276C10.2773 112.008 10.2764 111.74 10.2755 111.464C10.2734 110.72 10.2723 109.976 10.2717 109.231C10.2708 108.429 10.2685 107.626 10.2665 106.824C10.2618 104.886 10.2595 102.948 10.2574 101.01C10.2564 100.098 10.2551 99.1855 10.2539 98.2732C10.2499 95.2413 10.2465 92.2093 10.2448 89.1774C10.2443 88.3906 10.2439 87.6038 10.2434 86.817C10.2433 86.6215 10.2432 86.4259 10.2431 86.2244C10.2411 83.0547 10.2352 79.8849 10.2276 76.7151C10.2198 73.462 10.2156 70.2088 10.2149 66.9557C10.2144 65.1286 10.2123 63.3016 10.2063 61.4746C10.2012 59.9191 10.1993 58.3636 10.2016 56.8081C10.2027 56.0143 10.2022 55.2205 10.1977 54.4267C10.1936 53.5665 10.1952 52.7065 10.1983 51.8463C10.1957 51.5948 10.1932 51.3434 10.1905 51.0843C10.2052 49.3956 10.2052 49.3956 10.7592 48.4832C11.5297 47.7984 12.0829 47.7344 13.116 47.7438C13.859 47.8506 14.2546 48.2234 14.7657 48.75C15.0444 49.3073 15.0301 49.6454 15.0313 50.2674C15.0328 50.6004 15.0328 50.6004 15.0343 50.9401C15.0342 51.1857 15.0341 51.4312 15.034 51.6843C15.0349 51.9438 15.0357 52.2034 15.0365 52.4708C15.0391 53.3465 15.0399 54.2222 15.0408 55.098C15.0423 55.7234 15.0438 56.3489 15.0455 56.9744C15.049 58.3244 15.0518 59.6744 15.054 61.0244C15.0572 62.9781 15.0622 64.9317 15.0677 66.8854C15.0766 70.0572 15.0847 73.2291 15.0922 76.4009C15.0926 76.5909 15.0931 76.7808 15.0935 76.9765C15.0998 79.6708 15.1054 82.365 15.1107 85.0592C15.1111 85.2488 15.1115 85.4384 15.1119 85.6338C15.1124 85.9178 15.1124 85.9178 15.113 86.2076C15.1193 89.3659 15.1273 92.5243 15.1369 95.6826C15.1427 97.631 15.147 99.5794 15.1493 101.528C15.1511 102.864 15.1545 104.199 15.1592 105.535C15.1618 106.306 15.1635 107.076 15.1636 107.847C15.1639 108.683 15.167 109.519 15.1708 110.354C15.1702 110.597 15.1696 110.84 15.1689 111.091C15.1664 112.906 15.1664 112.906 15.7032 114.609C16.7765 115.003 17.736 115.137 18.8735 115.137C19.1729 115.138 19.4724 115.14 19.7809 115.141C20.1102 115.14 20.4396 115.139 20.7689 115.138C21.121 115.138 21.4732 115.139 21.8253 115.14C22.7912 115.142 23.757 115.141 24.7228 115.139C25.7651 115.138 26.8074 115.14 27.8498 115.141C29.8909 115.143 31.9321 115.143 33.9733 115.142C35.6322 115.14 37.291 115.14 38.9499 115.141C39.304 115.141 39.304 115.141 39.6653 115.141C40.1449 115.141 40.6245 115.141 41.104 115.141C45.6014 115.143 50.0987 115.141 54.596 115.139C58.4551 115.137 62.3142 115.137 66.1733 115.139C70.6545 115.142 75.1357 115.143 79.6168 115.141C80.0947 115.141 80.5725 115.141 81.0503 115.141C81.2854 115.141 81.5205 115.141 81.7627 115.141C83.4197 115.14 85.0766 115.141 86.7335 115.142C88.7527 115.143 90.7719 115.143 92.791 115.14C93.8213 115.139 94.8515 115.139 95.8818 115.14C96.8249 115.142 97.7681 115.141 98.7113 115.138C99.0524 115.138 99.3935 115.138 99.7346 115.139C100.199 115.141 100.663 115.139 101.127 115.137C101.384 115.137 101.642 115.137 101.907 115.137C102.793 115.067 103.481 114.97 104.297 114.609C104.81 113.479 104.833 112.341 104.825 111.117C104.826 110.847 104.826 110.847 104.827 110.571C104.829 109.967 104.827 109.364 104.825 108.761C104.826 108.323 104.827 107.886 104.827 107.449C104.829 106.248 104.828 105.047 104.827 103.846C104.826 102.551 104.828 101.255 104.829 99.9599C104.831 97.4224 104.831 94.885 104.829 92.3475C104.828 90.2854 104.828 88.2234 104.828 86.1614C104.829 85.7214 104.829 85.7214 104.829 85.2726C104.829 84.6767 104.829 84.0809 104.829 83.485C104.83 78.0553 104.829 72.6256 104.827 67.1959C104.824 62.2393 104.825 57.2828 104.827 52.3263C104.829 46.7573 104.83 41.1884 104.829 35.6195C104.829 35.0259 104.829 34.4322 104.828 33.8385C104.828 33.5464 104.828 33.2543 104.828 32.9534C104.828 30.8935 104.829 28.8336 104.83 26.7737C104.831 24.2639 104.831 21.7541 104.828 19.2443C104.827 17.9634 104.826 16.6826 104.828 15.4017C104.829 14.2295 104.829 13.0574 104.826 11.8852C104.826 11.4608 104.826 11.0364 104.827 10.612C104.828 10.0356 104.827 9.45935 104.825 8.88298C104.826 8.7178 104.827 8.55262 104.828 8.38243C104.82 7.31483 104.677 6.39023 104.297 5.3906C103.112 4.84398 101.907 4.8557 100.625 4.86447C100.426 4.86394 100.228 4.86341 100.023 4.86286C99.3604 4.86162 98.6978 4.86368 98.0351 4.86572C97.5588 4.86545 97.0825 4.86497 96.6062 4.86428C95.582 4.86318 94.5579 4.86344 93.5338 4.8647C91.9148 4.86649 90.2958 4.86399 88.6768 4.86067C84.0736 4.85183 79.4704 4.84757 74.8671 4.85027C72.3236 4.85172 69.7801 4.84902 67.2366 4.84172C65.6267 4.83735 64.0169 4.83814 62.407 4.8427C61.4064 4.84431 60.4059 4.84105 59.4054 4.83638C58.941 4.8352 58.4766 4.83602 58.0123 4.83899C57.3788 4.84276 56.7459 4.83935 56.1125 4.83414C55.9282 4.83696 55.744 4.83978 55.5542 4.84269C54.6214 4.82702 54.189 4.72533 53.4462 4.14272C52.844 3.3515 52.7345 2.86642 52.7345 1.87497C53.4207 0.0564986 54.3241 -0.0695719 56.1225 -0.0642814Z" fill="white"/>
<path d="M68.4374 10.3125C68.6089 10.3627 68.7804 10.413 68.9571 10.4647C73.884 11.9614 78.0829 14.4934 81.7968 18.0469C81.9835 18.2161 82.1702 18.3853 82.3626 18.5596C86.2356 22.199 88.7533 27.053 90.2343 32.1094C90.3087 32.3626 90.3087 32.3626 90.3847 32.6208C91.8133 37.7503 91.734 43.8839 90.2343 48.9844C90.159 49.2416 90.159 49.2416 90.0821 49.5041C88.5854 54.4309 86.0534 58.6299 82.4999 62.3438C82.3307 62.5305 82.1615 62.7172 81.9872 62.9096C78.3478 66.7826 73.4938 69.3003 68.4374 70.7813C68.2686 70.8309 68.0999 70.8805 67.926 70.9316C62.7658 72.3689 56.6975 72.2431 51.5624 70.7813C51.4061 70.7386 51.2498 70.696 51.0887 70.6521C43.9853 68.6713 37.3521 63.7212 33.5155 57.4219C33.4268 57.2779 33.3381 57.1338 33.2467 56.9854C31.4728 54.0778 30.2507 51.1016 29.4286 47.7979C29.3873 47.6361 29.346 47.4743 29.3034 47.3077C28.9955 45.9698 29.008 44.8504 29.6484 43.6231C30.4681 42.9263 31.28 42.8176 32.3437 42.8906C32.9831 43.0994 33.2418 43.3088 33.6565 43.8419C34.0904 44.7544 34.308 45.6752 34.5409 46.6553C35.1862 49.2085 36.1097 51.4565 37.3827 53.7598C37.512 53.9942 37.512 53.9942 37.6439 54.2333C38.2131 55.2334 38.8493 56.0888 39.6093 56.9531C40.2068 56.4016 40.7005 55.8213 41.1767 55.166C43.7934 51.6488 47.2154 48.9328 51.328 47.3438C51.0074 46.6597 50.6307 46.0777 50.1855 45.4688C48.6291 43.1238 48.3599 40.7467 48.3837 37.9834C48.3753 37.5377 48.3753 37.5377 48.3668 37.083C48.3719 33.721 49.5765 30.888 51.8554 28.4326C54.2902 26.131 57.2521 25.1633 60.5502 25.2017C63.7181 25.325 66.5478 26.7142 68.7157 29.0177C70.9456 31.7137 71.643 34.5076 71.6015 37.9541C71.6069 38.4044 71.6069 38.4044 71.6125 38.8637C71.6015 41.5569 71.0607 43.7639 69.461 45.9522C69.145 46.3999 68.9041 46.8483 68.6718 47.3438C69.033 47.5142 69.033 47.5142 69.4015 47.688C73.3576 49.5873 76.6901 52.0421 79.248 55.6485C79.604 56.1358 79.9487 56.5459 80.3905 56.9531C85.0666 50.9713 86.7528 44.1322 85.9431 36.5909C85.2106 31.5689 82.8769 26.7034 79.453 22.9688C79.2555 22.7521 79.0579 22.5355 78.8543 22.3123C75.6253 18.9289 71.3459 16.3814 66.7968 15.2344C66.5529 15.1723 66.3089 15.1103 66.0576 15.0464C63.654 14.497 61.372 14.468 58.9159 14.5313C58.1707 14.5501 57.4256 14.564 56.6802 14.5752C56.5127 14.581 56.3453 14.5869 56.1727 14.5929C55.133 14.6082 54.5012 14.4615 53.6718 13.8281C53.0703 13.0262 53.1176 12.2235 53.203 11.25C53.5002 10.5813 53.7287 10.2006 54.331 9.78517C58.3726 8.39948 64.4428 9.13798 68.4374 10.3125ZM54.6093 32.8125C53.1089 35.1282 52.9281 37.6637 53.3642 40.3418C53.8316 42.4019 55.0401 43.7704 56.7187 45C58.2376 45.9417 59.8936 45.9074 61.6405 45.7031C63.4454 45.1529 64.9731 44.0114 65.9252 42.3743C67.0822 39.9445 67.1301 37.0106 66.328 34.4531C65.5537 32.7195 64.1454 31.2589 62.4023 30.4834C59.4233 29.547 56.623 30.5049 54.6093 32.8125ZM47.8124 55.3125C47.6722 55.4195 47.532 55.5264 47.3876 55.6366C45.5386 57.0812 44.3561 59.0836 43.3593 61.1719C46.6948 63.5412 50.1162 65.4309 54.1405 66.3281C54.4163 66.39 54.4163 66.39 54.6976 66.4531C56.4507 66.8125 58.1551 66.8785 59.9413 66.8701C60.2314 66.869 60.5215 66.8678 60.8204 66.8666C62.9019 66.84 64.791 66.6829 66.7968 66.0938C67.0775 66.0167 67.3581 65.9397 67.6473 65.8603C70.821 64.9039 73.9137 63.3803 76.4062 61.1719C76.2145 59.633 75.2208 58.6131 74.2968 57.4219C74.188 57.2735 74.0793 57.1252 73.9672 56.9724C71.4191 53.7018 66.8782 51.3848 62.8124 50.8594C57.2127 50.4064 52.1151 51.5656 47.8124 55.3125Z" fill="white"/>
<path d="M36.0937 0.937521C36.3399 1.0197 36.5861 1.10188 36.8398 1.18654C41.2738 2.84712 45.1142 6.48979 47.0929 10.7858C49.1301 15.5539 49.5054 20.8417 47.8124 25.7813C47.7302 26.0275 47.6481 26.2737 47.5634 26.5274C45.9028 30.9614 42.2601 34.8018 37.9641 36.7805C33.1961 38.8177 27.9083 39.193 22.9687 37.5C22.7224 37.4178 22.4762 37.3357 22.2225 37.251C17.7885 35.5904 13.9481 31.9478 11.9694 27.6517C9.93222 22.8837 9.55696 17.5959 11.2499 12.6563C11.3321 12.41 11.4143 12.1638 11.4989 11.9101C13.1595 7.47614 16.8022 3.63573 21.0982 1.65701C25.8662 -0.380165 31.154 -0.755425 36.0937 0.937521ZM23.9062 5.8594C23.6892 5.95336 23.4723 6.04732 23.2488 6.14413C19.6833 7.88646 17.0609 11.0735 15.703 14.7656C14.7364 17.9505 14.8183 21.7975 16.1718 24.8438C16.2657 25.0607 16.3597 25.2776 16.4565 25.5011C18.1988 29.0666 21.3859 31.6891 25.078 33.0469C28.2628 34.0135 32.1099 33.9316 35.1562 32.5781C35.3731 32.4842 35.59 32.3902 35.8135 32.2934C39.379 30.5511 42.0014 27.364 43.3593 23.6719C44.3259 20.4871 44.244 16.6401 42.8905 13.5938C42.7966 13.3768 42.7026 13.1599 42.6058 12.9364C40.8635 9.37095 37.6764 6.74849 33.9843 5.39065C30.7995 4.42401 26.9524 4.50596 23.9062 5.8594Z" fill="white"/>
<path d="M48.764 93.217C49.0611 93.2147 49.3581 93.2123 49.6642 93.2099C49.994 93.2097 50.3239 93.2095 50.6538 93.2094C51.0006 93.2077 51.3475 93.2057 51.6944 93.2035C52.6372 93.1984 53.58 93.1963 54.5229 93.1951C55.1118 93.1943 55.7008 93.1928 56.2897 93.1911C58.3442 93.1854 60.3986 93.1823 62.453 93.1815C64.3684 93.1807 66.2837 93.1737 68.1991 93.1638C69.8433 93.1557 71.4874 93.1521 73.1315 93.1519C74.1136 93.1517 75.0957 93.1497 76.0778 93.143C77.0016 93.1369 77.9253 93.1364 78.8491 93.1401C79.188 93.1406 79.5269 93.139 79.8658 93.1353C80.3287 93.1305 80.7917 93.1336 81.2547 93.1372C81.5136 93.1367 81.7726 93.1362 82.0395 93.1357C82.9673 93.33 83.3175 93.7262 83.9063 94.4531C84.19 95.4283 84.2073 95.9173 83.8477 96.8701C83.4375 97.5 83.4375 97.5 82.7344 97.9688C82.0985 98.0291 82.0985 98.0291 81.3142 98.0314C81.0171 98.0334 80.7201 98.0354 80.414 98.0375C80.0842 98.0373 79.7543 98.0371 79.4244 98.0368C79.0776 98.0382 78.7307 98.0398 78.3838 98.0416C77.441 98.0458 76.4982 98.0469 75.5553 98.0472C74.7684 98.0476 73.9816 98.0493 73.1947 98.051C71.3382 98.0548 69.4817 98.0559 67.6252 98.0556C65.7098 98.0553 63.7945 98.0603 61.8791 98.0677C60.2349 98.0738 58.5908 98.0763 56.9467 98.076C55.9646 98.0759 54.9825 98.0772 54.0004 98.0822C53.0766 98.0867 52.1529 98.0868 51.2291 98.0834C50.8902 98.0829 50.5513 98.084 50.2124 98.0868C49.7495 98.0904 49.2865 98.0877 48.8235 98.0846C48.5646 98.0849 48.3056 98.0852 48.0387 98.0854C47.1806 97.9414 46.7886 97.6335 46.1719 97.0313C45.8112 96.0617 45.8283 95.1787 46.2305 94.2334C47.0215 93.3012 47.5914 93.2219 48.764 93.217Z" fill="white"/>
<path d="M48.764 80.092C49.0611 80.0897 49.3581 80.0873 49.6642 80.0849C49.994 80.0847 50.3239 80.0845 50.6538 80.0844C51.0006 80.0827 51.3475 80.0807 51.6944 80.0785C52.6372 80.0734 53.58 80.0713 54.5229 80.0701C55.1118 80.0693 55.7008 80.0678 56.2897 80.0661C58.3442 80.0604 60.3986 80.0573 62.453 80.0565C64.3684 80.0557 66.2837 80.0487 68.1991 80.0388C69.8433 80.0307 71.4874 80.0271 73.1315 80.0269C74.1136 80.0267 75.0957 80.0247 76.0778 80.018C77.0016 80.0119 77.9253 80.0114 78.8491 80.0151C79.188 80.0156 79.5269 80.014 79.8658 80.0103C80.3287 80.0055 80.7917 80.0086 81.2547 80.0122C81.5136 80.0117 81.7726 80.0112 82.0395 80.0107C82.9673 80.205 83.3175 80.6012 83.9063 81.3281C84.19 82.3033 84.2073 82.7923 83.8477 83.7451C83.4375 84.375 83.4375 84.375 82.7344 84.8438C82.0985 84.9041 82.0985 84.9041 81.3142 84.9064C81.0171 84.9084 80.7201 84.9104 80.414 84.9125C80.0842 84.9123 79.7543 84.9121 79.4244 84.9118C79.0776 84.9132 78.7307 84.9148 78.3838 84.9166C77.441 84.9208 76.4982 84.9219 75.5553 84.9222C74.7684 84.9226 73.9816 84.9243 73.1947 84.926C71.3382 84.9298 69.4817 84.9309 67.6252 84.9306C65.7098 84.9303 63.7945 84.9353 61.8791 84.9427C60.2349 84.9488 58.5908 84.9513 56.9467 84.951C55.9646 84.9509 54.9825 84.9522 54.0004 84.9572C53.0766 84.9617 52.1529 84.9618 51.2291 84.9584C50.8902 84.9579 50.5513 84.959 50.2124 84.9618C49.7495 84.9654 49.2865 84.9627 48.8235 84.9596C48.5646 84.9599 48.3056 84.9602 48.0387 84.9604C47.1806 84.8164 46.7886 84.5085 46.1719 83.9063C45.8112 82.9367 45.8283 82.0537 46.2305 81.1084C47.0215 80.1762 47.5914 80.0969 48.764 80.092Z" fill="white"/>
<path d="M37.5 12.8906C38.1306 13.2889 38.3691 13.5945 38.5785 14.3097C38.7699 15.4241 38.7222 15.9692 38.0632 16.9232C37.364 17.8174 36.546 18.6036 35.744 19.4046C35.551 19.5986 35.358 19.7927 35.1591 19.9926C34.7519 20.4011 34.3441 20.809 33.9357 21.2164C33.3123 21.8391 32.692 22.4649 32.0718 23.091C31.675 23.4884 31.278 23.8856 30.8807 24.2826C30.6961 24.4693 30.5115 24.6561 30.3213 24.8485C28.2291 26.9232 28.2291 26.9232 26.6309 26.9824C25.4285 26.6093 24.791 25.9544 23.9063 25.0781C23.629 24.8122 23.3515 24.5464 23.074 24.2807C22.7749 23.9903 22.4761 23.6994 22.1777 23.4082C22.0325 23.2681 21.8874 23.128 21.7378 22.9837C21.0014 22.2525 20.4193 21.6595 20.1562 20.625C20.1739 19.6359 20.3007 19.1164 20.8594 18.2959C21.6765 17.7342 22.1466 17.6133 23.1235 17.667C24.1671 17.944 24.8211 18.6895 25.5469 19.4531C25.7811 19.6828 26.0154 19.9123 26.25 20.1416C26.4047 20.3011 26.5594 20.4607 26.7188 20.625C27.3955 20.3191 27.8721 19.9961 28.3895 19.465C28.5264 19.3258 28.6634 19.1866 28.8044 19.0432C29.0224 18.8183 29.0224 18.8183 29.2447 18.5889C29.5567 18.2721 29.8687 17.9553 30.1808 17.6386C30.67 17.1392 31.1586 16.6393 31.6465 16.1387C32.1188 15.6551 32.5932 15.1737 33.0679 14.6924C33.2127 14.5425 33.3576 14.3926 33.5068 14.2381C34.769 12.9615 35.6586 12.4219 37.5 12.8906Z" fill="white"/>
<path d="M13.8281 39.1406C14.5605 39.5801 14.5605 39.5801 15 40.3125C15.2317 41.4905 15.1821 42.3527 14.5605 43.3886C13.5246 44.0102 12.6624 44.0598 11.4844 43.8281C10.7519 43.3886 10.7519 43.3886 10.3125 42.6562C10.0807 41.4782 10.1304 40.616 10.7519 39.5801C11.7878 38.9585 12.6501 38.9089 13.8281 39.1406Z" fill="white"/>
<path d="M39.375 93.2812C40.0781 93.6182 40.0781 93.6182 40.5469 94.2187C40.8499 95.2338 40.9056 96.0358 40.4883 97.0166C40.0151 97.5743 39.6202 97.9251 38.8861 98.0557C37.8909 98.0846 37.4045 98.0642 36.5625 97.4853C35.9981 96.6564 35.8594 96.158 35.8594 95.1562C36.5467 93.3347 37.5612 93.0362 39.375 93.2812Z" fill="white"/>
<path d="M39.375 80.1562C40.0781 80.4932 40.0781 80.4932 40.5469 81.0937C40.8499 82.1088 40.9056 82.9108 40.4883 83.8916C40.0151 84.4493 39.6202 84.8001 38.8861 84.9307C37.8909 84.9596 37.4045 84.9392 36.5625 84.3603C35.9981 83.5314 35.8594 83.033 35.8594 82.0312C36.5467 80.2097 37.5612 79.9112 39.375 80.1562Z" fill="white"/>
</g>
<defs>
<clipPath id="clip0_87_1068">
<rect width="120" height="120" fill="white"/>
</clipPath>
</defs>
</svg>
