<svg width="100" height="101" viewBox="0 0 100 101" fill="none" xmlns="http://www.w3.org/2000/svg">
<g clip-path="url(#clip0_6108_24025)">
<path d="M69.3604 28.2626C69.6793 28.558 69.9967 28.8551 70.3126 29.1537C70.4709 29.2995 70.6293 29.4453 70.7924 29.5954C73.8873 32.5441 75.9792 36.3424 77.5391 40.2865C77.6411 40.211 77.7431 40.1355 77.8481 40.0576C79.903 38.6038 82.0338 37.9311 84.546 38.2479C86.7946 38.6792 88.7531 39.835 90.0757 41.7025C90.9949 43.1674 91.5331 44.6105 91.6016 46.3412C91.6094 46.4935 91.6172 46.6458 91.6253 46.8028C91.681 48.8589 91.281 50.7235 90.4297 52.5912C90.5599 52.634 90.6901 52.6768 90.8242 52.7209C94.4152 53.9564 97.3096 56.1854 99.0235 59.6225C99.8676 61.7262 100.158 63.6737 100.127 65.9336C100.122 66.4047 100.127 66.875 100.134 67.3461C100.133 67.6491 100.132 67.9521 100.13 68.2551C100.132 68.3941 100.134 68.533 100.136 68.6762C100.118 69.4392 100.021 69.7539 99.5281 70.35C98.8813 70.8695 98.5877 70.975 97.7782 70.9793C97.5985 70.9807 97.4189 70.9821 97.2339 70.9836C97.0362 70.9841 96.8386 70.9846 96.6349 70.9851C96.4272 70.9864 96.2195 70.9877 96.0055 70.989C95.3157 70.9929 94.626 70.9952 93.9362 70.9971C93.5834 70.9983 93.5834 70.9983 93.2235 70.9995C91.9785 71.0036 90.7336 71.0064 89.4887 71.0082C88.2018 71.0104 86.915 71.0171 85.6282 71.0249C84.6396 71.03 83.651 71.0316 82.6624 71.0323C82.188 71.0333 81.7137 71.0355 81.2393 71.0392C80.5753 71.0439 79.9115 71.0437 79.2475 71.0424C78.9534 71.0461 78.9534 71.0461 78.6534 71.0499C77.507 71.0414 76.8496 70.9345 75.9766 70.1693C75.6372 69.4906 75.6649 68.7614 75.7813 68.0209C76.2754 67.3799 76.5777 67.1044 77.3438 66.849C77.6041 66.8319 77.8652 66.8252 78.1261 66.8255C78.364 66.8251 78.364 66.8251 78.6066 66.8247C78.7798 66.8254 78.953 66.8261 79.1315 66.8268C79.3145 66.8268 79.4975 66.8268 79.686 66.8268C80.2915 66.8269 80.897 66.8284 81.5026 66.8299C81.9221 66.8303 82.3417 66.8306 82.7612 66.8308C83.8661 66.8315 84.971 66.8334 86.0758 66.8356C87.203 66.8376 88.3302 66.8385 89.4574 66.8395C91.6695 66.8416 93.8817 66.8449 96.0938 66.849C96.0371 66.2876 95.9789 65.7264 95.9199 65.1652C95.9041 65.0075 95.8883 64.8497 95.8721 64.6872C95.5865 62.0112 94.5021 59.9407 92.4409 58.2011C90.6127 56.83 88.8075 56.6349 86.5792 56.6546C86.2244 56.6554 86.2244 56.6554 85.8625 56.6563C85.1103 56.6585 84.3582 56.6634 83.606 56.6684C83.0947 56.6703 82.5834 56.6721 82.0721 56.6737C80.8215 56.678 79.571 56.6845 78.3204 56.6928C78.255 56.9049 78.1896 57.117 78.1222 57.3356C78.0347 57.618 77.9471 57.9004 77.8596 58.1828C77.8167 58.3221 77.7738 58.4614 77.7296 58.605C75.4945 65.7987 70.4937 71.8785 63.8779 75.4801C56.7718 79.211 48.7056 79.9418 41.0157 77.5912C35.837 75.8592 31.7536 72.8293 27.9298 68.9975C25.0859 71.8276 22.2438 74.6594 19.4037 77.4932C18.0849 78.8089 16.7656 80.1241 15.445 81.438C14.2939 82.5833 13.1438 83.7296 11.995 84.8771C11.3867 85.4846 10.7779 86.0916 10.1679 86.6974C9.59349 87.2678 9.02051 87.8395 8.44856 88.4124C8.23861 88.6222 8.02817 88.8314 7.81718 89.0402C7.52863 89.3258 7.24196 89.6132 6.95567 89.9011C6.7949 90.0613 6.63412 90.2215 6.46848 90.3866C5.66189 91.3338 5.36602 92.1588 5.41312 93.3772C5.53205 94.2846 5.88623 94.8219 6.55524 95.4257C7.21785 95.8844 7.60931 95.9988 8.41071 96.036C8.58619 96.0479 8.76167 96.0597 8.94248 96.0719C11.058 95.6632 12.6888 93.4892 14.135 92.0222C14.4029 91.7527 14.671 91.4834 14.9392 91.2141C15.6406 90.5094 16.3403 89.803 17.0396 89.0962C18.163 87.9611 19.2891 86.8285 20.4152 85.696C20.808 85.3004 21.2001 84.9041 21.5921 84.5077C21.8312 84.2666 22.0704 84.0255 22.3095 83.7845C22.4186 83.6738 22.5276 83.5631 22.64 83.4491C23.3296 82.7555 23.6941 82.4434 24.6705 82.4008C25.3874 82.41 25.5591 82.455 26.1719 82.8891C26.6137 83.524 26.7579 83.85 26.7579 84.6225C26.374 85.7433 25.8444 86.4295 25.0069 87.2527C24.8899 87.3707 24.773 87.4887 24.6524 87.6103C24.2675 87.9977 23.8797 88.3823 23.4917 88.7667C23.2212 89.0373 22.9509 89.3079 22.6807 89.5787C22.1143 90.1453 21.5466 90.7105 20.9779 91.2748C20.253 91.9942 19.5312 92.7165 18.8103 93.4399C18.2522 93.9993 17.6927 94.5573 17.1328 95.1148C16.8663 95.3804 16.6003 95.6464 16.3346 95.9128C11.9842 100.27 11.9842 100.27 8.53278 100.345C6.37921 100.334 4.68356 99.6506 3.11972 98.1463C1.55158 96.3639 1.07234 94.544 1.11167 92.1984C1.35418 89.2208 3.46972 87.344 5.48674 85.36C5.70287 85.1459 5.9189 84.9317 6.13484 84.7175C6.59672 84.2594 7.05918 83.802 7.52206 83.345C8.25373 82.6224 8.98343 81.8978 9.71278 81.1729C11.7858 79.1129 13.8605 77.0546 15.9392 75.0003C17.0897 73.8632 18.2381 72.7241 19.3843 71.5826C20.109 70.861 20.8363 70.1421 21.5655 69.4249C22.0172 68.9795 22.4664 68.5316 22.9149 68.083C23.1238 67.8751 23.3336 67.6682 23.5445 67.4625C23.8316 67.182 24.1149 66.8982 24.3976 66.6132C24.5573 66.4551 24.717 66.2969 24.8816 66.134C25.2515 65.6971 25.2515 65.6971 25.1579 65.153C25.0127 64.7369 24.8577 64.3767 24.6377 63.9956C24.5649 63.8659 24.4922 63.7362 24.4172 63.6026C24.3397 63.4654 24.2621 63.3282 24.1822 63.1869C23.0445 61.112 22.3244 58.9651 21.6798 56.6928C20.1893 56.6728 18.6988 56.6592 17.2082 56.6498C16.7019 56.6459 16.1955 56.6406 15.6892 56.6338C14.9585 56.6243 14.228 56.6199 13.4972 56.6165C13.2733 56.6124 13.0495 56.6084 12.8188 56.6043C10.4006 56.6036 8.38729 57.3904 6.60941 59.0365C4.92107 60.8037 4.35875 62.7045 4.10163 65.0912C4.06771 65.3978 4.03369 65.7043 3.99958 66.0108C3.98209 66.1681 3.96459 66.3254 3.94657 66.4874C3.93329 66.6067 3.92 66.7261 3.90631 66.849C4.2876 66.8444 4.2876 66.8444 4.6766 66.8397C5.62225 66.8291 6.56789 66.8224 7.51359 66.8168C7.9224 66.8139 8.33121 66.8099 8.74001 66.8048C9.3286 66.7977 9.91711 66.7944 10.5057 66.7918C10.6877 66.7888 10.8696 66.7857 11.057 66.7826C12.0742 66.7824 12.7997 66.8495 13.6719 67.435C14.1931 68.2167 14.2255 68.8594 14.0626 69.7787C13.6365 70.3169 13.3064 70.6451 12.6954 70.9506C12.3406 70.9723 11.9851 70.9817 11.6297 70.9851C11.4068 70.9877 11.1838 70.9902 10.954 70.9927C10.5909 70.9949 10.5909 70.9949 10.2204 70.9971C9.97229 70.9987 9.72418 71.0003 9.46856 71.0019C8.94249 71.0046 8.41645 71.0067 7.89038 71.0082C7.21829 71.0104 6.54632 71.0171 5.87427 71.0249C5.23152 71.0312 4.58876 71.0321 3.94599 71.0337C3.70547 71.0372 3.46496 71.0406 3.21715 71.0441C1.1224 71.0388 1.1224 71.0388 0.195376 70.1693C-0.257387 69.2638 -0.0609368 67.9221 -0.0683152 66.9168C-0.0715087 66.5998 -0.0767827 66.2828 -0.0843369 65.9658C-0.175542 62.1122 0.771866 59.0242 3.46305 56.1679C3.60932 56.0188 3.7556 55.8698 3.90631 55.7162C4.02641 55.5913 4.1465 55.4664 4.27024 55.3378C5.72332 53.9438 7.64041 53.0952 9.57038 52.5912C9.50215 52.4119 9.43392 52.2327 9.36362 52.048C8.46501 49.6245 8.46501 49.6245 8.3985 48.2943C8.38717 48.0738 8.38717 48.0738 8.37561 47.8488C8.29944 45.1742 8.93039 42.5835 10.804 40.5833C12.5484 39.0089 14.6359 38.1154 16.9923 38.1381C19.0435 38.2661 20.8486 39.0126 22.461 40.2865C22.505 40.1835 22.5491 40.0805 22.5945 39.9744C25.2629 33.779 28.8966 29.0038 34.5704 25.2475C34.7728 25.1133 34.9752 24.9791 35.1838 24.8408C38.062 23.06 41.2378 22.0257 44.5313 21.3412C44.7496 21.2931 44.9679 21.245 45.1928 21.1955C53.8602 19.6186 62.8512 22.4947 69.3604 28.2626ZM31.4416 33.1866C28.7141 36.1638 26.85 39.9379 25.7813 43.8021C25.6816 44.1537 25.6816 44.1537 25.5799 44.5124C24.1357 50.6969 25.3993 57.565 28.711 62.9428C30.4055 65.6035 32.4397 67.872 34.961 69.7787C35.185 69.952 35.185 69.952 35.4134 70.1289C39.3598 73.047 44.1354 74.6337 49.0235 74.8568C49.1738 74.8649 49.3241 74.8729 49.479 74.8812C55.5541 75.0468 61.6668 72.8041 66.211 68.8021C66.3777 68.6614 66.5443 68.5207 66.7161 68.3757C67.9344 67.3241 68.9471 66.1744 69.9219 64.8959C70.038 64.7461 70.1541 64.5963 70.2737 64.4419C71.9911 62.1165 73.2817 59.484 74.0235 56.6928C74.0805 56.4883 74.0805 56.4883 74.1387 56.2796C75.8751 49.8505 74.8068 43.1506 71.5897 37.4026C68.2195 31.6379 62.7137 27.428 56.2517 25.7313C55.4747 25.5419 54.6943 25.3833 53.9063 25.2475C53.7049 25.2114 53.5035 25.1754 53.296 25.1384C44.9614 24.189 37.2291 27.1477 31.4416 33.1866ZM13.7208 43.5611C12.5636 44.9742 12.3269 46.5036 12.5001 48.2943C12.7416 49.5736 13.1052 50.5258 14.0626 51.4193C15.1108 52.1057 16.2027 52.5382 17.4706 52.3097C18.7092 51.9857 19.64 51.5761 20.3545 50.4641C21.2416 48.8099 21.2946 47.0044 20.8504 45.2029C20.4304 43.9929 19.6611 43.2556 18.5548 42.6303C16.8535 42.0632 15.002 42.2683 13.7208 43.5611ZM79.8829 43.9975C79.7741 44.1102 79.6653 44.223 79.5533 44.3392C78.6818 45.8332 78.7321 47.7864 79.1382 49.4197C79.5361 50.5156 80.2111 51.3411 81.2379 51.8954C82.5452 52.449 83.5547 52.4579 84.89 52.006C86.0371 51.5188 86.6546 50.7677 87.159 49.6417C87.8239 47.9499 87.6204 46.0342 86.9141 44.3881C86.3445 43.3825 85.4722 42.7538 84.3751 42.435C82.4306 42.2075 81.2142 42.5222 79.8829 43.9975Z" fill="url(#paint0_linear_6108_24025)"/>
<path d="M63.1047 33.1891C67.4941 36.7171 70.3454 41.4974 71.0942 47.1219C71.5457 53.3098 70.2442 58.7869 66.2526 63.6197C62.3045 68.1398 57.1608 70.6964 51.1723 71.1453C45.5958 71.475 40.1183 69.5521 35.938 65.8719C32.5856 62.8846 30.3853 59.085 29.2973 54.7391C29.261 54.5972 29.2246 54.4553 29.1871 54.3091C28.8588 52.8807 28.839 51.476 28.8457 50.015C28.8468 49.763 28.8479 49.5111 28.849 49.2515C28.9102 44.4553 30.5993 39.8069 33.7895 36.1844C33.9215 36.0245 34.0534 35.8646 34.1893 35.6999C41.3765 27.2405 54.531 26.5378 63.1047 33.1891ZM37.0137 38.6899C33.6886 42.7085 32.7208 47.2678 33.0083 52.3953C33.3087 55.146 34.6188 58.0418 36.3286 60.2078C36.4575 60.2078 36.5864 60.2078 36.7192 60.2078C36.9342 59.919 37.1353 59.6198 37.3296 59.3167C38.0018 58.3333 38.7095 57.6126 39.6489 56.8875C39.8166 56.7566 39.9843 56.6257 40.157 56.4908C41.2969 55.6302 42.4488 54.9357 43.7505 54.3485C43.6961 54.2397 43.6417 54.1309 43.5857 54.0189C43.5111 53.8698 43.4366 53.7208 43.3598 53.5672C43.2813 53.4141 43.2027 53.261 43.1218 53.1033C41.8668 50.5322 41.6525 47.7379 42.3833 44.9735C43.3359 42.6367 44.5293 41.2637 46.7778 40.1395C49.0383 39.3321 51.0309 39.3395 53.3208 40.0906C55.617 41.264 56.9977 43.1596 57.813 45.5594C57.942 46.1495 57.9928 46.7142 58.0083 47.3172C58.0158 47.4547 58.0234 47.5921 58.0312 47.7338C58.097 49.7733 57.6806 51.4833 56.7075 53.275C56.4263 53.7657 56.4263 53.7657 56.2505 54.3485C56.4348 54.4363 56.6191 54.5242 56.8089 54.6147C58.6659 55.533 60.0659 56.586 61.5239 58.0594C61.7841 58.3132 61.7841 58.3132 62.0496 58.5721C62.5534 59.0904 62.8992 59.5987 63.2817 60.2078C64.0638 59.9471 64.2476 59.4656 64.6245 58.7796C64.6931 58.6563 64.7618 58.5329 64.8325 58.4058C65.4472 57.2816 65.9828 56.1452 66.4067 54.9344C66.4692 54.7566 66.5316 54.5789 66.5959 54.3958C67.8178 50.153 67.0433 45.3222 64.9373 41.5044C62.3626 37.2677 58.7106 34.4623 53.9235 33.1944C47.6914 31.7981 41.2391 33.8949 37.0137 38.6899ZM47.3027 44.473C47.1617 44.6381 47.0207 44.8033 46.8755 44.9735C46.7667 45.0903 46.6579 45.2071 46.5459 45.3275C45.7847 46.5962 45.7212 48.1574 45.9966 49.5793C46.3458 50.9029 46.8245 51.7495 47.9619 52.554C49.1294 53.1228 50.2794 53.1515 51.5019 52.7371C52.7873 52.058 53.3709 51.3804 53.9067 50.0516C54.3821 48.5066 54.1572 46.8258 53.5161 45.3641C53.0887 44.7901 53.0887 44.7901 52.5395 44.3875C52.3663 44.2425 52.1931 44.0975 52.0146 43.9481C50.3707 43.0796 48.6972 43.2644 47.3027 44.473ZM40.8322 61.2325C40.5526 61.5996 40.2907 61.9694 40.0395 62.3563C39.9106 62.5496 39.7817 62.743 39.6489 62.9422C39.6243 63.3387 39.6243 63.3387 39.8442 63.7234C43.2141 66.3514 47.573 67.3619 51.7766 66.9904C54.9369 66.5758 57.8262 65.5022 60.352 63.5281C60.0913 61.8336 58.506 60.4359 57.2194 59.438C52.0532 55.8462 45.0538 56.3484 40.8322 61.2325Z" fill="url(#paint1_linear_6108_24025)"/>
<path d="M50.9767 0.246504C51.6729 0.768638 52.0074 1.15629 52.1486 2.00432C52.1717 2.52811 52.1853 3.04672 52.1883 3.57063C52.1894 3.72235 52.1905 3.87407 52.1916 4.03038C52.1935 4.35099 52.1948 4.67161 52.1955 4.99223C52.1974 5.4796 52.2035 5.96682 52.2096 6.45416C52.2109 6.76658 52.2119 7.07901 52.2127 7.39143C52.2151 7.53573 52.2175 7.68002 52.22 7.82868C52.2158 8.82498 52.0402 9.52221 51.5627 10.4028C50.7894 10.8935 50.3848 11.0144 49.4753 10.891C48.7184 10.5483 48.4778 10.3292 48.047 9.62151C47.934 9.00239 47.9375 8.39405 47.9433 7.76604C47.9425 7.58766 47.9418 7.40928 47.941 7.22549C47.9405 6.84924 47.9419 6.47297 47.9452 6.09672C47.9494 5.52181 47.9452 4.94738 47.9402 4.37248C47.9407 4.00627 47.9417 3.64006 47.9433 3.27385C47.9417 3.10252 47.9401 2.93119 47.9385 2.75467C47.9508 1.94699 47.9803 1.52446 48.4197 0.826338C49.1816 0.109263 49.9674 0.0896081 50.9767 0.246504Z" fill="url(#paint2_linear_6108_24025)"/>
<path d="M35.5469 7.27838C36.1591 7.63497 36.6162 8.14157 37.1094 8.64556C37.3567 8.88903 37.6045 9.13212 37.8525 9.37493C38.3817 9.89608 38.9099 10.4181 39.4341 10.9443C39.5458 11.0563 39.6576 11.1683 39.7727 11.2837C40.2913 11.8514 40.2985 12.3741 40.2916 13.1301C40.2026 13.7493 39.892 14.079 39.4531 14.5049C38.74 14.8615 38.0778 14.8787 37.3047 14.7003C36.5622 14.2049 35.9702 13.5822 35.3516 12.9424C35.1563 12.7504 34.9605 12.5589 34.7641 12.3679C32.7572 10.4048 32.7572 10.4048 32.7393 9.35357C32.7525 8.67371 32.804 8.46388 33.1787 7.86431C33.8908 7.19416 34.5972 7.08641 35.5469 7.27838Z" fill="url(#paint3_linear_6108_24025)"/>
<path d="M66.0155 7.27903C66.6783 7.70205 67.0902 8.02555 67.2683 8.80491C67.3414 9.56322 67.3006 10.039 66.8708 10.6833C66.409 11.1985 65.927 11.6809 65.4296 12.1618C65.2375 12.3571 65.046 12.5529 64.8551 12.7493C62.8923 14.7558 62.8923 14.7558 61.8407 14.7864C61.0928 14.7742 60.9665 14.7246 60.3515 14.2248C60.2226 14.0597 60.0936 13.8945 59.9608 13.7243C59.8964 13.6599 59.8319 13.5954 59.7655 13.529C59.6633 12.8007 59.5911 12.2667 59.9677 11.6186C60.3356 11.1895 60.7285 10.7996 61.1327 10.404C61.3762 10.1567 61.6193 9.90893 61.8621 9.66092C62.3832 9.13174 62.9052 8.60346 63.4314 8.07935C63.5434 7.96758 63.6554 7.85581 63.7708 7.74065C64.4218 7.14605 65.1769 7.15854 66.0155 7.27903Z" fill="url(#paint4_linear_6108_24025)"/>
<path d="M30.6638 77.2003C31.2376 77.6763 31.2376 77.6763 31.6404 78.1768C31.7048 78.2413 31.7693 78.3057 31.8357 78.3721C31.9692 79.2953 31.9692 79.9358 31.4329 80.7159C30.7421 81.1862 30.3268 81.3018 29.492 81.3018C28.7265 81.0516 28.4061 80.8381 27.9417 80.1788C27.6841 79.3911 27.6844 78.9696 27.9295 78.1768C28.7819 77.1996 29.3834 76.997 30.6638 77.2003Z" fill="url(#paint5_linear_6108_24025)"/>
<path d="M50.9772 13.3327C51.6311 13.796 51.8868 14.117 52.149 14.8708C52.149 15.6576 51.9341 16.1595 51.5631 16.8484C50.7782 17.3716 50.1419 17.375 49.2194 17.239C48.6587 16.8886 48.3421 16.6565 48.0475 16.0671C47.934 14.6824 47.934 14.6824 48.4137 13.9309C49.1745 13.1925 49.9558 13.1775 50.9772 13.3327Z" fill="url(#paint6_linear_6108_24025)"/>
</g>
<defs>
<linearGradient id="paint0_linear_6108_24025" x1="6.61033" y1="80.4507" x2="82.3162" y2="25.3927" gradientUnits="userSpaceOnUse">
<stop stop-color="#0538FF"/>
<stop offset="1" stop-color="#6B57F5"/>
</linearGradient>
<linearGradient id="paint1_linear_6108_24025" x1="31.6806" y1="60.5648" x2="68.4011" y2="39.4306" gradientUnits="userSpaceOnUse">
<stop stop-color="#0538FF"/>
<stop offset="1" stop-color="#6B57F5"/>
</linearGradient>
<linearGradient id="paint2_linear_6108_24025" x1="48.2253" y1="8.24367" x2="52.9217" y2="7.16564" gradientUnits="userSpaceOnUse">
<stop stop-color="#0538FF"/>
<stop offset="1" stop-color="#6B57F5"/>
</linearGradient>
<linearGradient id="paint3_linear_6108_24025" x1="33.2452" y1="12.9068" x2="39.8144" y2="9.14619" gradientUnits="userSpaceOnUse">
<stop stop-color="#0538FF"/>
<stop offset="1" stop-color="#6B57F5"/>
</linearGradient>
<linearGradient id="paint4_linear_6108_24025" x1="60.1936" y1="12.893" x2="66.7698" y2="9.07595" gradientUnits="userSpaceOnUse">
<stop stop-color="#0538FF"/>
<stop offset="1" stop-color="#6B57F5"/>
</linearGradient>
<linearGradient id="paint5_linear_6108_24025" x1="28.0259" y1="80.2586" x2="31.6353" y2="78.1798" gradientUnits="userSpaceOnUse">
<stop stop-color="#0538FF"/>
<stop offset="1" stop-color="#6B57F5"/>
</linearGradient>
<linearGradient id="paint6_linear_6108_24025" x1="48.2643" y1="16.2993" x2="51.8243" y2="14.1917" gradientUnits="userSpaceOnUse">
<stop stop-color="#0538FF"/>
<stop offset="1" stop-color="#6B57F5"/>
</linearGradient>
<clipPath id="clip0_6108_24025">
<rect width="100" height="100" fill="white" transform="translate(0 0.24707)"/>
</clipPath>
</defs>
</svg>
