<svg width="121" height="120" viewBox="0 0 121 120" fill="none" xmlns="http://www.w3.org/2000/svg">
<path d="M7.64852 4.54069C7.83451 4.53906 8.02051 4.53743 8.21214 4.53575C8.83932 4.53168 9.46617 4.53602 10.0933 4.54028C10.5459 4.5391 10.9985 4.5374 11.4511 4.53524C12.6978 4.53079 13.9444 4.53368 15.1911 4.53775C16.5345 4.54088 17.8778 4.53727 19.2211 4.53451C21.8538 4.5302 24.4866 4.53221 27.1193 4.53641C29.2584 4.53969 31.3974 4.54061 33.5364 4.53982C33.8404 4.53971 34.1445 4.5396 34.4577 4.53948C35.0752 4.53924 35.6928 4.53899 36.3103 4.53874C41.9406 4.53667 47.5709 4.54105 53.2012 4.54824C58.3433 4.55477 63.4854 4.55593 68.6275 4.55241C69.9441 4.55152 71.2608 4.55063 72.5774 4.54979C72.8205 4.54964 72.8205 4.54964 73.0686 4.54948C77.3626 4.54685 81.6566 4.54859 85.9506 4.55164C86.5659 4.55207 87.1813 4.5525 87.7966 4.55293C88.2508 4.55325 88.2508 4.55325 88.7141 4.55358C90.8514 4.55489 92.9888 4.55412 95.1261 4.55257C97.7295 4.55076 100.333 4.55233 102.936 4.55824C104.266 4.56117 105.595 4.56259 106.924 4.55998C108.14 4.55764 109.355 4.55959 110.571 4.56504C111.011 4.56626 111.452 4.56587 111.893 4.56378C112.491 4.56117 113.087 4.56428 113.684 4.56888C113.858 4.56675 114.031 4.56462 114.209 4.56243C115.019 4.57468 115.436 4.62958 116.082 5.13617C116.755 6.0357 116.712 6.85969 116.716 7.95903C116.718 8.38147 116.718 8.38147 116.721 8.81244C116.721 9.26765 116.721 9.26765 116.721 9.73207C116.722 10.0479 116.723 10.3637 116.724 10.6796C116.725 11.3411 116.726 12.0027 116.726 12.6643C116.726 13.5096 116.729 14.3549 116.733 15.2002C116.735 15.8525 116.736 16.5048 116.736 17.1571C116.736 17.6195 116.739 18.0819 116.741 18.5443C116.741 18.8274 116.74 19.1105 116.739 19.4022C116.739 19.6502 116.74 19.8983 116.74 20.1538C116.664 21.0761 116.501 21.9362 115.881 22.6465C115.744 22.7528 115.607 22.8592 115.466 22.9688C114.475 23.7809 113.542 24.6397 112.61 25.5176C111.442 26.6129 110.265 27.6962 109.071 28.7631C108.234 29.5179 107.407 30.2843 106.581 31.0521C106.463 31.162 106.344 31.2719 106.222 31.3852C106.049 31.5507 106.049 31.5507 105.873 31.7195C105.432 32.1094 105.432 32.1094 104.901 32.4753C104.025 33.1214 103.419 33.6189 103.136 34.6961C103.076 35.5555 103.08 36.3927 103.107 37.2537C103.108 37.5688 103.109 37.8838 103.108 38.1989C103.109 39.0236 103.122 39.8477 103.138 40.6723C103.162 41.9941 103.174 43.3157 103.177 44.6377C103.18 45.0975 103.191 45.5572 103.203 46.0168C103.205 46.2969 103.207 46.577 103.209 46.8656C103.214 47.1113 103.219 47.357 103.224 47.6102C103.031 48.5643 102.686 48.8607 101.916 49.4531C101.164 49.6249 100.427 49.612 99.6579 49.603C99.4291 49.6049 99.2003 49.6069 98.9646 49.6089C98.1973 49.614 97.4302 49.6108 96.6629 49.6077C96.1132 49.6097 95.5634 49.6122 95.0137 49.6151C93.5204 49.6217 92.0271 49.6211 90.5338 49.6193C89.1316 49.6186 87.7294 49.6233 86.3272 49.628C83.55 49.6371 80.7729 49.6411 77.9958 49.6417C75.2982 49.6423 72.6007 49.6454 69.9032 49.6517C69.7369 49.6521 69.5706 49.6525 69.3992 49.6529C68.5649 49.6549 67.7305 49.657 66.8962 49.659C59.9759 49.676 53.0556 49.6844 46.1352 49.6875C46.5826 50.138 47.0303 50.5881 47.4783 51.0379C47.604 51.1646 47.7297 51.2912 47.8592 51.4217C48.6776 52.2427 49.5197 53.0199 50.4025 53.7717C50.9785 54.2774 51.5082 54.8236 52.045 55.3702C52.6218 55.9369 53.2319 56.4606 53.8486 56.9833C54.3384 57.4219 54.3384 57.4219 54.8831 58.142C55.7834 59.0355 56.6784 58.9958 57.8997 59.0076C58.1864 59.0032 58.4732 58.9989 58.7687 58.9944C59.2256 58.9959 59.2256 58.9959 59.6918 58.9974C60.3526 58.9995 61.0131 58.9973 61.6738 58.9916C62.7189 58.9827 63.7637 58.984 64.8088 58.9868C66.8382 58.9907 68.8674 58.9841 70.8968 58.9766C73.4807 58.9676 76.0646 58.9638 78.6485 58.9684C79.6871 58.97 80.7254 58.9666 81.764 58.9594C82.2544 58.9567 82.7448 58.9561 83.2352 58.9564C83.8327 58.9567 84.4302 58.9537 85.0276 58.9466C86.9352 58.9555 86.9352 58.9555 87.9135 59.441C88.4535 60.1786 88.4769 60.6383 88.4893 61.5501C88.4928 61.7038 88.4964 61.8575 88.5 62.0159C88.51 62.5236 88.5111 63.0308 88.5113 63.5385C88.5145 63.8936 88.5179 64.2486 88.5215 64.6037C88.5274 65.3487 88.5287 66.0935 88.527 66.8385C88.5256 67.787 88.5391 68.7347 88.5567 69.6831C88.5681 70.4173 88.5696 71.1513 88.5685 71.8855C88.5694 72.2347 88.5737 72.5839 88.5816 72.933C88.6262 75.1429 88.3298 76.5525 86.772 78.2108C86.5876 78.3888 86.4033 78.5667 86.2134 78.75C86.0226 78.9438 85.8318 79.1376 85.6352 79.3373C85.2936 79.6826 84.9488 80.0248 84.6011 80.3641C84.1363 80.8272 83.6995 81.302 83.269 81.7969C83.1379 81.947 83.0068 82.0972 82.8717 82.2519C82.5777 82.5993 82.2917 82.9537 82.0111 83.3121C80.6772 84.9548 80.6772 84.9548 79.6069 85.166C78.7134 85.0781 78.7134 85.0781 78.0102 84.5947C77.5415 83.9063 77.5415 83.9063 77.3657 83.2617C77.8972 80.9586 80.5833 78.8727 81.9946 77.3438C74.5696 77.2277 74.5696 77.2277 66.9946 77.1094C66.8399 77.4188 66.6852 77.7281 66.5259 78.0469C66.1793 78.4511 65.8214 78.8457 65.4565 79.2334C63.9326 80.8809 62.536 82.6225 61.1352 84.375C61.3721 84.3557 61.609 84.3363 61.853 84.3164C63.9029 84.3127 66.1609 85.0234 67.9321 86.0156C68.4486 86.6444 68.4004 86.9621 68.3569 87.7881C68.1665 88.5938 68.1665 88.5938 67.9175 89.0479C67.1494 89.4691 66.4283 89.4225 65.5884 89.2969C65.1123 89.1481 64.6389 88.9911 64.1675 88.8281C61.1189 87.8413 58.1936 88.2336 55.3345 89.6063C52.583 91.1415 50.675 93.5199 49.7736 96.5424C48.9892 99.668 49.4656 102.782 51.1066 105.555C53.0159 108.365 55.3582 109.993 58.6542 110.756C62.0808 111.341 65.1875 110.349 67.9834 108.385C70.0375 106.738 71.4276 104.295 71.9165 101.719C71.9987 100.643 72.0341 99.5656 72.0331 98.4866C72.0528 96.9395 72.0528 96.9395 72.5683 96.1899C73.1097 95.8458 73.3904 95.7263 74.0259 95.7275C74.2579 95.7198 74.2579 95.7198 74.4946 95.712C75.2791 95.9587 75.4951 96.3212 75.9009 97.0313C76.0388 97.8492 76.0342 98.6498 76.0181 99.4775C76.0151 99.7082 76.0121 99.9389 76.009 100.176C75.8974 104.216 74.3334 107.8 71.4651 110.674C68.3053 113.645 64.2989 114.95 59.9954 114.908C55.7432 114.705 52.0741 112.73 49.1821 109.688C46.9279 107.197 45.6286 103.881 45.4321 100.547C45.4197 100.392 45.4073 100.238 45.3946 100.078C45.2201 96.0724 46.7672 92.145 49.3533 89.1202C50.7039 87.7835 53.0261 85.5469 55.0415 85.5469C55.0968 85.4167 55.1521 85.2865 55.209 85.1523C55.5836 84.4773 56.0505 83.9851 56.5796 83.4229C57.565 82.358 58.4958 81.2669 59.4012 80.1325C59.9013 79.5282 60.4142 78.9414 60.936 78.356C61.105 78.1663 61.2739 77.9767 61.448 77.7813C61.5768 77.6369 61.7056 77.4925 61.8384 77.3438C61.6237 77.3429 61.6237 77.3429 61.4048 77.3421C57.9249 77.3282 54.4451 77.3105 50.9653 77.2885C49.2826 77.278 47.5998 77.2687 45.917 77.2626C44.4504 77.2572 42.9839 77.2494 41.5174 77.2386C40.7407 77.233 39.964 77.229 39.1873 77.2271C38.3208 77.2249 37.4544 77.2183 36.5878 77.2107C36.3296 77.2111 36.0713 77.2114 35.8052 77.2117C35.5696 77.2088 35.3339 77.2059 35.0911 77.2028C34.8861 77.2018 34.6811 77.2007 34.4698 77.1996C33.8316 77.0893 33.6314 76.9176 33.2446 76.4063C32.9955 75.6588 32.9923 75.1609 33.0105 74.377C33.0156 74.1046 33.0208 73.8322 33.0261 73.5516C33.0318 73.2564 33.0374 72.9613 33.0432 72.6572C33.0493 71.8683 33.0538 71.0794 33.0572 70.2905C33.0615 69.4675 33.0713 68.6451 33.093 67.8223C33.3782 64.0244 33.3782 64.0244 32.1288 60.6126C31.5245 59.9949 30.8675 59.5243 30.1269 59.0839C29.4331 58.638 28.8731 58.0649 28.2788 57.4951C28.0466 57.2811 27.8138 57.0678 27.5803 56.8552C27.3612 56.6555 27.1422 56.4558 26.9165 56.25C26.3363 55.7266 25.7549 55.2045 25.1733 54.6826C24.3812 53.9677 23.5954 53.2459 22.8099 52.5238C21.8544 51.6463 20.8902 50.7789 19.9219 49.9155C19.6717 49.6866 19.6717 49.6866 19.4165 49.4531C19.2538 49.3219 19.0911 49.1907 18.9235 49.0556C18.3191 48.3214 18.3615 47.8581 18.3614 46.9143C18.3601 46.7553 18.3589 46.5963 18.3576 46.4324C18.3546 45.9082 18.3585 45.3842 18.3627 44.8599C18.3627 44.4951 18.3623 44.1303 18.3617 43.7655C18.3614 43.0016 18.3643 42.2379 18.3697 41.474C18.3763 40.4946 18.3757 39.5153 18.3727 38.5359C18.371 37.7829 18.3729 37.0299 18.3758 36.277C18.3768 35.9158 18.3769 35.5546 18.376 35.1934C18.3753 34.689 18.3792 34.1848 18.3843 33.6804C18.3856 33.3933 18.3868 33.1062 18.3881 32.8105C18.479 32.1094 18.479 32.1094 18.7779 31.6743C19.5304 31.1753 20.2942 31.1431 21.1785 31.1512C21.3909 31.1525 21.6032 31.1538 21.822 31.1552C22.1706 31.1591 22.1706 31.1591 22.5263 31.1632C22.7739 31.165 23.0215 31.1668 23.2767 31.1687C23.8204 31.1728 24.3641 31.1775 24.9078 31.1826C26.2602 31.1953 27.6125 31.2046 28.9649 31.2143C29.4507 31.2179 29.9366 31.2215 30.4224 31.2252C32.7897 31.243 35.157 31.2542 37.5243 31.2616C37.7814 31.2624 37.7814 31.2624 38.0437 31.2632C39.6355 31.2682 41.2273 31.2727 42.8192 31.2767C43.9108 31.2795 45.0024 31.2826 46.094 31.2858C46.2754 31.2863 46.4567 31.2869 46.6435 31.2874C49.5741 31.2966 52.5045 31.3199 55.435 31.3483C58.4485 31.3772 61.4618 31.3899 64.4754 31.388C66.3314 31.3873 68.1864 31.3991 70.0422 31.4274C71.4693 31.4478 72.8955 31.4456 74.3227 31.4353C74.9045 31.4346 75.4864 31.441 76.068 31.4554C78.8788 31.521 80.998 31.479 83.1194 29.4737C83.8027 28.753 84.4397 28.0036 85.0662 27.2334C85.6236 26.5873 86.2403 26.0543 86.8926 25.5068C87.8075 24.7107 88.6463 23.8347 89.4946 22.9688C89.2303 22.9684 89.2303 22.9684 88.9607 22.9681C78.5252 22.9544 68.0897 22.9371 57.6542 22.9151C56.402 22.9124 55.1499 22.9098 53.8978 22.9072C53.6485 22.9067 53.3992 22.9062 53.1424 22.9057C49.1024 22.8974 45.0625 22.8916 41.0226 22.8866C36.8793 22.8816 32.736 22.8738 28.5928 22.8636C26.0348 22.8574 23.4768 22.8532 20.9188 22.8517C19.1663 22.8505 17.4137 22.8467 15.6612 22.8409C14.6491 22.8376 13.637 22.8354 12.6249 22.8363C11.699 22.8371 10.7732 22.8347 9.84738 22.8297C9.51173 22.8285 9.17608 22.8284 8.84043 22.8297C8.38547 22.8312 7.93051 22.828 7.47556 22.8246C7.22245 22.8241 6.96934 22.8237 6.70857 22.8232C5.96709 22.7221 5.64857 22.5537 5.11963 22.0313C4.86056 21.2541 4.85077 20.6657 4.84377 19.8469C4.84076 19.5411 4.83775 19.2352 4.83465 18.9201C4.83274 18.5857 4.83099 18.2513 4.8294 17.9169C4.82845 17.7483 4.82749 17.5798 4.82651 17.4061C4.82162 16.5142 4.81827 15.6224 4.81607 14.7305C4.81348 13.8102 4.80541 12.8901 4.79611 11.9698C4.78998 11.2613 4.78802 10.5527 4.78718 9.84413C4.78604 9.50493 4.78331 9.16572 4.77897 8.82655C4.77325 8.35148 4.77404 7.87635 4.7751 7.40125C4.77373 7.13117 4.77235 6.86109 4.77094 6.58283C5.04619 4.84087 6.04495 4.51468 7.64852 4.54069ZM8.63525 8.43751C8.63525 11.918 8.63525 15.3984 8.63525 18.9844C43.0532 18.9844 77.4712 18.9844 112.932 18.9844C112.932 15.5039 112.932 12.0234 112.932 8.43751C78.5141 8.43751 44.0962 8.43751 8.63525 8.43751ZM92.1463 25.6153C91.738 26.1461 91.2698 26.5964 90.7837 27.0557C90.5096 27.3333 90.2361 27.6116 89.9634 27.8906C89.0071 28.8678 88.0403 29.7959 86.9833 30.6647C86.8839 30.7547 86.7845 30.8447 86.6821 30.9375C86.6821 31.0149 86.6821 31.0922 86.6821 31.1719C88.4463 31.2597 90.2103 31.3258 91.9763 31.3662C92.7969 31.3856 93.6161 31.4117 94.4359 31.4548C98.8183 31.762 98.8183 31.762 102.605 29.8694C103.235 29.2297 103.816 28.5674 104.371 27.8621C104.859 27.2616 105.401 26.7816 105.989 26.2793C106.164 26.1228 106.339 25.9663 106.52 25.8051C106.702 25.6425 106.885 25.48 107.073 25.3125C107.552 24.884 108.031 24.454 108.508 24.0234C108.726 23.8277 108.945 23.6319 109.169 23.4302C109.328 23.2779 109.487 23.1256 109.651 22.9688C109.651 22.8914 109.651 22.8141 109.651 22.7344C107.848 22.6577 106.045 22.5997 104.241 22.5644C103.402 22.5474 102.565 22.5244 101.727 22.4868C97.786 22.3147 94.7178 22.2181 92.1463 25.6153ZM22.229 34.9219C22.229 38.4797 22.229 42.0375 22.229 45.7031C47.6751 45.7031 73.1212 45.7031 99.3384 45.7031C99.3384 42.1453 99.3384 38.5875 99.3384 34.9219C73.8923 34.9219 48.4462 34.9219 22.229 34.9219ZM25.2759 49.4531C25.4577 49.6348 25.6394 49.8164 25.8267 50.0035C26.2221 50.3992 26.6163 50.7961 27.009 51.1945C28.0214 52.2183 29.0427 53.2099 30.1364 54.1461C30.9608 54.8666 31.7597 55.6146 32.5606 56.3611C32.8035 56.5869 33.0486 56.8102 33.2961 57.031C33.7134 57.4219 33.7134 57.4219 34.0819 57.8452C35.0316 58.8507 35.7489 59.1769 37.1352 59.2488C37.7402 59.2485 38.3453 59.2393 38.9502 59.2227C39.2733 59.2197 39.5964 59.2173 39.9195 59.2157C40.7643 59.2095 41.6086 59.1934 42.4533 59.1752C43.3174 59.1583 44.1815 59.1509 45.0458 59.1426C46.7373 59.1251 48.4284 59.0971 50.1196 59.0625C49.8943 58.7986 49.6689 58.5348 49.4434 58.271C49.2551 58.0507 49.2551 58.0507 49.063 57.8258C48.0259 56.6277 46.8576 55.5833 45.6592 54.5508C45.0717 54.0286 44.526 53.4716 43.9755 52.9111C43.3987 52.3443 42.7886 51.8207 42.1719 51.2979C41.6821 50.8594 41.6821 50.8594 41.162 50.1374C40.1998 49.1809 39.1223 49.2934 37.8296 49.2938C37.5055 49.301 37.1814 49.3083 36.8573 49.3158C36.523 49.3184 36.1887 49.3204 35.8544 49.3218C34.9781 49.3272 34.1021 49.341 33.2259 49.3566C32.3304 49.371 31.4348 49.3774 30.5392 49.3845C28.7846 49.3995 27.0303 49.4235 25.2759 49.4531ZM36.7602 62.8125C36.7602 66.3703 36.7602 69.9281 36.7602 73.5938C52.5384 73.5938 68.3165 73.5938 84.5727 73.5938C84.5727 70.0359 84.5727 66.4781 84.5727 62.8125C68.7946 62.8125 53.0165 62.8125 36.7602 62.8125Z" fill="white"/>
<path d="M74.7289 87.6562C75.183 87.9052 75.183 87.9052 75.432 88.3593C75.563 89.5483 75.5932 90.0019 74.9003 91.001C74.6536 91.2574 74.4016 91.5088 74.1456 91.7559C74.0088 91.8952 73.872 92.0346 73.7311 92.1781C73.2793 92.6357 72.8211 93.0862 72.3622 93.5366C72.0453 93.8536 71.7287 94.1709 71.4124 94.4885C70.7492 95.1524 70.0827 95.813 69.4138 96.4712C68.5576 97.3142 67.7088 98.1642 66.8621 99.0169C66.2095 99.6728 65.5534 100.325 64.8962 100.977C64.5819 101.289 64.2686 101.602 63.9563 101.916C63.5188 102.355 63.077 102.789 62.6338 103.222C62.506 103.352 62.3782 103.482 62.2466 103.616C61.3683 104.461 60.7106 104.731 59.4945 104.766C59.0395 104.545 59.0395 104.545 58.6595 104.165C58.507 104.015 58.3544 103.864 58.1972 103.709C57.9112 103.42 57.9112 103.42 57.6195 103.125C57.3374 102.866 57.0544 102.608 56.7708 102.35C56.4674 102.067 56.1644 101.783 55.8617 101.499C55.7126 101.365 55.5635 101.231 55.4098 101.092C54.6692 100.377 54.2424 99.8967 54.2119 98.8394C54.3383 97.9687 54.3383 97.9687 54.8363 97.3828C55.6647 96.9506 55.9962 96.8327 56.9164 97.0312C57.4138 97.3881 57.8511 97.7756 58.2933 98.1985C58.6945 98.5798 59.0998 98.9348 59.5256 99.2874C59.7474 99.471 59.9692 99.6546 60.1976 99.8437C60.3453 99.695 60.493 99.5463 60.6451 99.3931C62.0371 97.9917 63.4302 96.5915 64.8245 95.1925C65.5414 94.4733 66.2577 93.7536 66.9731 93.0329C67.6635 92.3374 68.3551 91.643 69.0474 90.9494C69.3114 90.6846 69.5749 90.4194 69.838 90.1538C70.2066 89.7818 70.5766 89.4113 70.9471 89.0411C71.2625 88.7241 71.2625 88.7241 71.5842 88.4007C72.6708 87.4222 73.2863 87.3152 74.7289 87.6562Z" fill="white"/>
</svg>
