<svg width="25" height="24" viewBox="0 0 25 24" fill="none" xmlns="http://www.w3.org/2000/svg">
<g clip-path="url(#clip0_6108_30306)">
<path d="M5.21253 7.1281L4.96653 7.6941C4.92809 7.78627 4.86323 7.865 4.78013 7.92038C4.69703 7.97575 4.5994 8.00531 4.49953 8.00531C4.39967 8.00531 4.30204 7.97575 4.21894 7.92038C4.13584 7.865 4.07098 7.78627 4.03253 7.6941L3.78653 7.1281C3.35401 6.12683 2.56192 5.32402 1.56653 4.8781L0.807534 4.5391C0.715452 4.49675 0.637448 4.42887 0.582767 4.34353C0.528086 4.25819 0.499023 4.15896 0.499023 4.0576C0.499023 3.95625 0.528086 3.85702 0.582767 3.77168C0.637448 3.68633 0.715452 3.61846 0.807534 3.5761L1.52453 3.2571C2.54494 2.79848 3.35059 1.96599 3.77553 0.931105L4.02953 0.320105C4.06669 0.225458 4.1315 0.144203 4.21552 0.0869296C4.29953 0.0296566 4.39885 -0.000976563 4.50053 -0.000976562C4.60221 -0.000976563 4.70153 0.0296566 4.78555 0.0869296C4.86956 0.144203 4.93437 0.225458 4.97153 0.320105L5.22453 0.930105C5.64902 1.96518 6.45432 2.79804 7.47453 3.2571L8.19253 3.5771C8.28433 3.61958 8.36206 3.68745 8.41654 3.77268C8.47101 3.85791 8.49996 3.95695 8.49996 4.0581C8.49996 4.15926 8.47101 4.2583 8.41654 4.34353C8.36206 4.42876 8.28433 4.49663 8.19253 4.5391L7.43253 4.8771C6.43735 5.32347 5.64561 6.12663 5.21353 7.1281M15.8145 9.5331L15.9575 9.67511C16.617 10.358 17.0885 11.2 17.3261 12.1191C17.5637 13.0382 17.5594 14.0032 17.3135 14.9201C16.9998 16.0892 16.3094 17.1223 15.3493 17.8594C14.3893 18.5966 13.213 18.9968 12.0025 18.9981C9.96653 18.9981 7.28853 18.3731 5.02953 17.4841C6.23453 16.0701 6.67453 14.6751 6.82953 12.8051C6.86653 12.3541 6.88953 12.1751 6.93253 12.0151C7.72553 9.05311 10.5175 7.4051 13.4245 8.1841C14.3545 8.4341 15.1665 8.9081 15.8145 9.5331ZM18.7285 2.3711L13.7885 6.2131C9.84253 5.2391 6.05853 7.5461 5.00053 11.4971C4.89853 11.8771 4.86653 12.2621 4.83353 12.6661C4.71853 14.0601 4.58653 15.6711 1.50053 17.9961C4.00053 19.4961 8.50053 20.9981 12.0025 20.9981C13.1395 20.9971 14.2615 20.7378 15.2836 20.2398C16.3057 19.7418 17.2013 19.018 17.9027 18.1231C18.6042 17.2283 19.0931 16.1858 19.3327 15.0743C19.5722 13.9628 19.5561 12.8114 19.2855 11.7071L23.1255 6.7691C23.2752 6.57674 23.3494 6.33635 23.3343 6.0931C23.3192 5.84984 23.2158 5.62048 23.0435 5.4481L20.0495 2.4541C19.8773 2.28166 19.648 2.17806 19.4047 2.16278C19.1615 2.14749 18.921 2.22158 18.7285 2.3711ZM17.3955 8.2851C17.332 8.21933 17.2673 8.15466 17.2015 8.0911L16.0775 6.9671L19.2595 4.4921L21.0055 6.2381L18.5295 9.4201L17.3955 8.2851Z" fill="white"/>
</g>
<defs>
<clipPath id="clip0_6108_30306">
<rect width="24" height="24" fill="white" transform="translate(0.5)"/>
</clipPath>
</defs>
</svg>
