<svg width="232" height="160" viewBox="0 0 232 160" fill="none" xmlns="http://www.w3.org/2000/svg">
<g clip-path="url(#clip0_92_56)">
<circle cx="182.83" cy="184.163" r="170.663" stroke="#B8CFF0"/>
<circle cx="182.83" cy="184.163" r="96.7792" stroke="#B8CFF0"/>
<rect x="43.36" y="55.4843" width="33.28" height="33.28" rx="16.64" fill="#B8CFF0"/>
<rect x="43.36" y="55.4843" width="33.28" height="33.28" rx="16.64" stroke="white" stroke-width="1.28"/>
<path d="M58.1491 67.931C58.5318 66.811 60.0793 66.777 60.5331 67.8292L60.5715 67.9316L61.0879 69.442C61.2063 69.7884 61.3976 70.1054 61.6488 70.3716C61.9001 70.6377 62.2056 70.8469 62.5446 70.985L62.6835 71.0369L64.1939 71.5527C65.3139 71.9354 65.3478 73.483 64.2963 73.9367L64.1939 73.9751L62.6835 74.4916C62.3369 74.6099 62.0198 74.8011 61.7535 75.0524C61.4872 75.3037 61.2779 75.6092 61.1398 75.9482L61.0879 76.0865L60.5721 77.5975C60.1894 78.7175 58.6419 78.7514 58.1887 77.6999L58.1491 77.5975L57.6332 76.0871C57.5149 75.7406 57.3237 75.4235 57.0724 75.1572C56.8211 74.8909 56.5156 74.6816 56.1766 74.5434L56.0383 74.4916L54.5279 73.9758C53.4073 73.593 53.3734 72.0455 54.4255 71.5924L54.5279 71.5527L56.0383 71.0369C56.3847 70.9185 56.7017 70.7272 56.9679 70.476C57.2341 70.2247 57.4433 69.9192 57.5814 69.5802L57.6332 69.442L58.1491 67.931ZM59.3606 68.3444L58.8447 69.8548C58.6645 70.383 58.3713 70.8656 57.9856 71.2689C57.5998 71.6722 57.1308 71.9866 56.6111 72.1902L56.4511 72.2484L54.9407 72.7642L56.4511 73.2801C56.9793 73.4603 57.4619 73.7535 57.8652 74.1393C58.2685 74.525 58.5829 74.994 58.7865 75.5137L58.8447 75.6737L59.3606 77.1841L59.8764 75.6737C60.0566 75.1455 60.3498 74.6629 60.7356 74.2596C61.1213 73.8563 61.5904 73.5419 62.11 73.3383L62.27 73.2807L63.7804 72.7642L62.27 72.2484C61.7418 72.0682 61.2593 71.775 60.8559 71.3892C60.4526 71.0035 60.1382 70.5344 59.9347 70.0148L59.8771 69.8548L59.3606 68.3444ZM64.4806 65.7242C64.6003 65.7242 64.7176 65.7578 64.8192 65.8212C64.9208 65.8845 65.0026 65.9751 65.0553 66.0826L65.086 66.1575L65.31 66.8142L65.9673 67.0382C66.0873 67.0789 66.1925 67.1544 66.2695 67.255C66.3466 67.3556 66.392 67.4768 66.4001 67.6033C66.4082 67.7298 66.3786 67.8558 66.315 67.9654C66.2513 68.075 66.1566 68.1632 66.0428 68.219L65.9673 68.2497L65.3107 68.4737L65.0867 69.131C65.0458 69.2509 64.9703 69.356 64.8696 69.433C64.769 69.51 64.6478 69.5554 64.5213 69.5634C64.3948 69.5714 64.2688 69.5417 64.1593 69.4781C64.0497 69.4144 63.9615 69.3197 63.9059 69.2058L63.8751 69.131L63.6511 68.4743L62.9939 68.2503C62.8739 68.2096 62.7687 68.1341 62.6916 68.0335C62.6146 67.9329 62.5691 67.8117 62.561 67.6852C62.5529 67.5587 62.5826 67.4327 62.6462 67.3231C62.7098 67.2135 62.8045 67.1252 62.9183 67.0695L62.9939 67.0388L63.6505 66.8148L63.8745 66.1575C63.9177 66.0311 63.9993 65.9213 64.108 65.8436C64.2167 65.7659 64.347 65.7242 64.4806 65.7242Z" fill="white"/>
<rect x="99.4401" y="17.2198" width="33.28" height="33.28" rx="16.64" fill="#B8CFF0"/>
<rect x="99.4401" y="17.2198" width="33.28" height="33.28" rx="16.64" stroke="white" stroke-width="1.28"/>
<g clip-path="url(#clip1_92_56)">
<path d="M121.656 31.3817L121.499 31.7439C121.474 31.8029 121.433 31.8533 121.38 31.8888C121.327 31.9242 121.264 31.9431 121.2 31.9431C121.136 31.9431 121.074 31.9242 121.021 31.8888C120.967 31.8533 120.926 31.8029 120.901 31.7439L120.744 31.3817C120.467 30.7409 119.96 30.2271 119.323 29.9417L118.837 29.7247C118.778 29.6976 118.728 29.6542 118.693 29.5996C118.658 29.545 118.64 29.4815 118.64 29.4166C118.64 29.3517 118.658 29.2882 118.693 29.2336C118.728 29.179 118.778 29.1355 118.837 29.1084L119.296 28.9043C119.949 28.6107 120.465 28.0779 120.737 27.4156L120.899 27.0246C120.923 26.964 120.964 26.912 121.018 26.8754C121.072 26.8387 121.135 26.8191 121.2 26.8191C121.265 26.8191 121.329 26.8387 121.383 26.8754C121.436 26.912 121.478 26.964 121.502 27.0246L121.664 27.415C121.935 28.0774 122.451 28.6105 123.104 28.9043L123.563 29.1091C123.622 29.1363 123.672 29.1797 123.706 29.2342C123.741 29.2888 123.76 29.3522 123.76 29.4169C123.76 29.4816 123.741 29.545 123.706 29.5996C123.672 29.6541 123.622 29.6976 123.563 29.7247L123.077 29.9411C122.44 30.2267 121.933 30.7408 121.656 31.3817ZM116.08 28.7398C115.041 28.7399 114.027 29.056 113.173 29.6461C112.318 30.2361 111.662 31.0722 111.294 32.0433C110.925 33.0145 110.861 34.0748 111.109 35.0834C111.358 36.092 111.907 37.0012 112.684 37.6904C113.461 38.3796 114.429 38.8161 115.46 38.942C116.491 39.0679 117.536 38.8773 118.457 38.3953C119.377 37.9134 120.128 37.163 120.612 36.2437C121.096 35.3245 121.288 34.2799 121.164 33.2486L122.435 33.0975C122.465 33.348 122.48 33.6021 122.48 33.8598C122.48 37.3945 119.615 40.2598 116.08 40.2598C112.545 40.2598 109.68 37.3945 109.68 33.8598C109.68 30.3251 112.545 27.4598 116.08 27.4598C116.631 27.4598 117.168 27.5302 117.679 27.6614L117.36 28.9011C116.942 28.7935 116.512 28.7394 116.08 28.7398ZM116.72 33.2198H118.64L115.44 37.6998V34.4998H113.52L116.72 30.0198V33.2198Z" fill="white"/>
</g>
<rect x="168.95" y="3.36" width="33.28" height="33.28" rx="16.64" fill="#B8CFF0"/>
<rect x="168.95" y="3.36" width="33.28" height="33.28" rx="16.64" stroke="white" stroke-width="1.28"/>
<g clip-path="url(#clip2_92_56)">
<path d="M191.167 17.5219L191.009 17.8841C190.985 17.9431 190.943 17.9935 190.89 18.029C190.837 18.0644 190.774 18.0833 190.71 18.0833C190.647 18.0833 190.584 18.0644 190.531 18.029C190.478 17.9935 190.436 17.9431 190.412 17.8841L190.254 17.5219C189.977 16.8811 189.47 16.3673 188.833 16.0819L188.348 15.8649C188.289 15.8378 188.239 15.7944 188.204 15.7398C188.169 15.6852 188.15 15.6216 188.15 15.5568C188.15 15.4919 188.169 15.4284 188.204 15.3738C188.239 15.3192 188.289 15.2757 188.348 15.2486L188.806 15.0445C189.459 14.7509 189.975 14.2181 190.247 13.5558L190.409 13.1648C190.433 13.1042 190.474 13.0522 190.528 13.0155C190.582 12.9789 190.645 12.9593 190.71 12.9593C190.776 12.9593 190.839 12.9789 190.893 13.0155C190.947 13.0522 190.988 13.1042 191.012 13.1648L191.174 13.5552C191.445 14.2176 191.961 14.7507 192.614 15.0445L193.073 15.2493C193.132 15.2764 193.182 15.3199 193.217 15.3744C193.252 15.429 193.27 15.4924 193.27 15.5571C193.27 15.6218 193.252 15.6852 193.217 15.7398C193.182 15.7943 193.132 15.8378 193.073 15.8649L192.587 16.0813C191.95 16.3669 191.443 16.881 191.167 17.5219ZM179.825 14.24H186.87V15.52H180.47V24.48L186.417 18.5318C186.477 18.4723 186.547 18.4251 186.625 18.3929C186.703 18.3607 186.786 18.3441 186.87 18.3441C186.954 18.3441 187.037 18.3607 187.115 18.3929C187.193 18.4251 187.263 18.4723 187.323 18.5318L190.71 21.9264V19.36H191.99V25.1245C191.989 25.2925 191.922 25.4534 191.803 25.5723C191.684 25.6912 191.524 25.7586 191.356 25.76H179.825C179.657 25.7598 179.495 25.6928 179.376 25.5736C179.257 25.4545 179.19 25.2929 179.19 25.1245V14.8755C179.192 14.7074 179.259 14.5466 179.378 14.4276C179.496 14.3087 179.657 14.2413 179.825 14.24ZM183.03 19.36C182.691 19.36 182.365 19.2251 182.125 18.9851C181.885 18.745 181.75 18.4195 181.75 18.08C181.75 17.7405 181.885 17.4149 182.125 17.1749C182.365 16.9348 182.691 16.8 183.03 16.8C183.37 16.8 183.695 16.9348 183.936 17.1749C184.176 17.4149 184.31 17.7405 184.31 18.08C184.31 18.4195 184.176 18.745 183.936 18.9851C183.695 19.2251 183.37 19.36 183.03 19.36Z" fill="white"/>
</g>
<rect x="96.6797" y="111.8" width="26" height="26" rx="13" fill="#B8CFF0"/>
<rect x="96.6797" y="111.8" width="26" height="26" rx="13" stroke="white" stroke-width="2"/>
<path d="M106.44 120C106.026 120 105.629 120.164 105.337 120.457C105.044 120.75 104.88 121.146 104.88 121.56V127.08C104.88 127.494 105.044 127.891 105.337 128.183C105.629 128.476 106.026 128.64 106.44 128.64H108.276C108.252 128.521 108.24 128.401 108.24 128.28V127.92H106.44C106.217 127.92 106.003 127.832 105.846 127.674C105.688 127.517 105.6 127.303 105.6 127.08V121.56C105.6 121.096 105.976 120.72 106.44 120.72H111.48C111.943 120.72 112.32 121.096 112.32 121.56V123.36H113.04V121.56C113.04 121.146 112.875 120.75 112.583 120.457C112.29 120.164 111.893 120 111.48 120H106.44ZM110.04 123.36H107.16C107.064 123.36 106.973 123.398 106.905 123.466C106.838 123.533 106.8 123.625 106.8 123.72C106.8 123.816 106.838 123.907 106.905 123.975C106.973 124.042 107.064 124.08 107.16 124.08H108.6C108.767 123.856 108.984 123.675 109.234 123.55C109.484 123.425 109.76 123.36 110.04 123.36ZM107.16 121.92C107.064 121.92 106.973 121.958 106.905 122.026C106.838 122.093 106.8 122.185 106.8 122.28C106.8 122.376 106.838 122.467 106.905 122.535C106.973 122.602 107.064 122.64 107.16 122.64H110.76C110.855 122.64 110.947 122.602 111.014 122.535C111.082 122.467 111.12 122.376 111.12 122.28C111.12 122.185 111.082 122.093 111.014 122.026C110.947 121.958 110.855 121.92 110.76 121.92H107.16ZM108.72 125.16C108.72 124.81 108.859 124.474 109.106 124.227C109.354 123.979 109.69 123.84 110.04 123.84H113.16C113.51 123.84 113.845 123.979 114.093 124.227C114.341 124.474 114.48 124.81 114.48 125.16V128.28C114.48 128.63 114.341 128.966 114.093 129.213C113.845 129.461 113.51 129.6 113.16 129.6H110.04C109.69 129.6 109.354 129.461 109.106 129.213C108.859 128.966 108.72 128.63 108.72 128.28V125.16ZM109.44 126.24V128.28C109.44 128.611 109.708 128.88 110.04 128.88H113.16C113.491 128.88 113.76 128.611 113.76 128.28V126.24H109.44ZM113.76 125.52V125.16C113.76 124.829 113.491 124.56 113.16 124.56H110.04C109.708 124.56 109.44 124.829 109.44 125.16V125.52H113.76Z" fill="white"/>
<rect x="166.83" y="80.8843" width="26" height="26" rx="13" fill="#B8CFF0"/>
<rect x="166.83" y="80.8843" width="26" height="26" rx="13" stroke="white" stroke-width="2"/>
<g clip-path="url(#clip3_92_56)">
<path d="M176.332 91.5457L176.214 91.8174C176.196 91.8616 176.165 91.8994 176.125 91.926C176.085 91.9525 176.038 91.9667 175.99 91.9667C175.942 91.9667 175.895 91.9525 175.855 91.926C175.815 91.8994 175.784 91.8616 175.766 91.8174L175.648 91.5457C175.44 91.0651 175.06 90.6797 174.582 90.4657L174.218 90.303C174.174 90.2826 174.136 90.25 174.11 90.2091C174.084 90.1681 174.07 90.1205 174.07 90.0718C174.07 90.0232 174.084 89.9756 174.11 89.9346C174.136 89.8936 174.174 89.861 174.218 89.8407L174.562 89.6876C175.052 89.4675 175.439 89.0679 175.643 88.5711L175.764 88.2778C175.782 88.2324 175.813 88.1934 175.854 88.1659C175.894 88.1384 175.942 88.1237 175.991 88.1237C176.039 88.1237 176.087 88.1384 176.127 88.1659C176.168 88.1934 176.199 88.2324 176.217 88.2778L176.338 88.5706C176.542 89.0675 176.928 89.4672 177.418 89.6876L177.763 89.8412C177.807 89.8616 177.844 89.8942 177.87 89.9351C177.896 89.976 177.91 90.0235 177.91 90.0721C177.91 90.1206 177.896 90.1682 177.87 90.2091C177.844 90.25 177.807 90.2826 177.763 90.303L177.398 90.4652C176.92 90.6795 176.54 91.065 176.333 91.5457M181.421 92.7001L181.49 92.7682C181.806 93.096 182.033 93.5002 182.147 93.9413C182.261 94.3825 182.259 94.8457 182.141 95.2858C181.99 95.847 181.659 96.3429 181.198 96.6967C180.737 97.0506 180.173 97.2427 179.592 97.2433C178.614 97.2433 177.329 96.9433 176.244 96.5166C176.823 95.8378 177.034 95.1682 177.108 94.2706C177.126 94.0542 177.137 93.9682 177.158 93.8914C177.539 92.4697 178.879 91.6786 180.274 92.0526C180.72 92.1726 181.11 92.4001 181.421 92.7001ZM182.82 89.2623L180.449 91.1065C178.555 90.639 176.738 91.7463 176.231 93.6428C176.182 93.8252 176.166 94.01 176.15 94.2039C176.095 94.873 176.032 95.6463 174.551 96.7623C175.751 97.4823 177.911 98.2033 179.592 98.2033C180.137 98.2028 180.676 98.0784 181.166 97.8393C181.657 97.6002 182.087 97.2528 182.424 96.8233C182.76 96.3938 182.995 95.8934 183.11 95.3599C183.225 94.8263 183.217 94.2737 183.087 93.7436L184.931 91.3734C185.002 91.281 185.038 91.1656 185.031 91.0489C185.024 90.9321 184.974 90.822 184.891 90.7393L183.454 89.3022C183.371 89.2194 183.261 89.1697 183.145 89.1623C183.028 89.155 182.912 89.1905 182.82 89.2623ZM182.18 92.101C182.15 92.0695 182.119 92.0384 182.087 92.0079L181.548 91.4684L183.075 90.2804L183.913 91.1185L182.724 92.6458L182.18 92.101Z" fill="white"/>
</g>
<rect x="5.33317" y="111.467" width="34.6667" height="34.6667" rx="17.3333" fill="#B8CFF0"/>
<rect x="5.33317" y="111.467" width="34.6667" height="34.6667" rx="17.3333" stroke="white" stroke-width="2.66667"/>
<path d="M16.2659 122.4H29.0659V135.2H16.2659V122.4ZM17.5459 123.68V126.24H27.7859V123.68H17.5459ZM27.7859 127.52H22.0259V133.92H27.7859V127.52ZM20.7459 133.92V127.52H17.5459V133.92H20.7459Z" fill="white"/>
</g>
<defs>
<clipPath id="clip0_92_56">
<rect width="232" height="160" fill="white"/>
</clipPath>
<clipPath id="clip1_92_56">
<rect width="15.36" height="15.36" fill="white" transform="translate(108.4 26.1798)"/>
</clipPath>
<clipPath id="clip2_92_56">
<rect width="15.36" height="15.36" fill="white" transform="translate(177.91 12.32)"/>
</clipPath>
<clipPath id="clip3_92_56">
<rect width="11.52" height="11.52" fill="white" transform="translate(174.07 88.1243)"/>
</clipPath>
</defs>
</svg>
