<svg width="16" height="16" viewBox="0 0 16 16" fill="none" xmlns="http://www.w3.org/2000/svg">
<path d="M1.33301 7.99935C1.33301 5.48535 1.33301 4.22802 2.11434 3.44735C2.89567 2.66668 4.15234 2.66602 6.66634 2.66602H9.33301C11.847 2.66602 13.1043 2.66602 13.885 3.44735C14.6657 4.22868 14.6663 5.48535 14.6663 7.99935V9.33268C14.6663 11.8467 14.6663 13.104 13.885 13.8847C13.1037 14.6653 11.847 14.666 9.33301 14.666H6.66634C4.15234 14.666 2.89501 14.666 2.11434 13.8847C1.33367 13.1033 1.33301 11.8467 1.33301 9.33268V7.99935Z" stroke="#155DEC"/>
<path d="M4.66602 2.66602V1.66602M11.3327 2.66602V1.66602M1.66602 5.99935H14.3327" stroke="#155DEC" stroke-linecap="round"/>
<path d="M12 11.3328C12 11.5097 11.9298 11.6792 11.8047 11.8043C11.6797 11.9293 11.5101 11.9995 11.3333 11.9995C11.1565 11.9995 10.987 11.9293 10.8619 11.8043C10.7369 11.6792 10.6667 11.5097 10.6667 11.3328C10.6667 11.156 10.7369 10.9865 10.8619 10.8614C10.987 10.7364 11.1565 10.6662 11.3333 10.6662C11.5101 10.6662 11.6797 10.7364 11.8047 10.8614C11.9298 10.9865 12 11.156 12 11.3328ZM12 8.66618C12 8.84299 11.9298 9.01256 11.8047 9.13758C11.6797 9.26261 11.5101 9.33285 11.3333 9.33285C11.1565 9.33285 10.987 9.26261 10.8619 9.13758C10.7369 9.01256 10.6667 8.84299 10.6667 8.66618C10.6667 8.48937 10.7369 8.3198 10.8619 8.19477C10.987 8.06975 11.1565 7.99951 11.3333 7.99951C11.5101 7.99951 11.6797 8.06975 11.8047 8.19477C11.9298 8.3198 12 8.48937 12 8.66618ZM8.66667 11.3328C8.66667 11.5097 8.59643 11.6792 8.4714 11.8043C8.34638 11.9293 8.17681 11.9995 8 11.9995C7.82319 11.9995 7.65362 11.9293 7.5286 11.8043C7.40357 11.6792 7.33333 11.5097 7.33333 11.3328C7.33333 11.156 7.40357 10.9865 7.5286 10.8614C7.65362 10.7364 7.82319 10.6662 8 10.6662C8.17681 10.6662 8.34638 10.7364 8.4714 10.8614C8.59643 10.9865 8.66667 11.156 8.66667 11.3328ZM8.66667 8.66618C8.66667 8.84299 8.59643 9.01256 8.4714 9.13758C8.34638 9.26261 8.17681 9.33285 8 9.33285C7.82319 9.33285 7.65362 9.26261 7.5286 9.13758C7.40357 9.01256 7.33333 8.84299 7.33333 8.66618C7.33333 8.48937 7.40357 8.3198 7.5286 8.19477C7.65362 8.06975 7.82319 7.99951 8 7.99951C8.17681 7.99951 8.34638 8.06975 8.4714 8.19477C8.59643 8.3198 8.66667 8.48937 8.66667 8.66618ZM5.33333 11.3328C5.33333 11.5097 5.2631 11.6792 5.13807 11.8043C5.01305 11.9293 4.84348 11.9995 4.66667 11.9995C4.48986 11.9995 4.32029 11.9293 4.19526 11.8043C4.07024 11.6792 4 11.5097 4 11.3328C4 11.156 4.07024 10.9865 4.19526 10.8614C4.32029 10.7364 4.48986 10.6662 4.66667 10.6662C4.84348 10.6662 5.01305 10.7364 5.13807 10.8614C5.2631 10.9865 5.33333 11.156 5.33333 11.3328ZM5.33333 8.66618C5.33333 8.84299 5.2631 9.01256 5.13807 9.13758C5.01305 9.26261 4.84348 9.33285 4.66667 9.33285C4.48986 9.33285 4.32029 9.26261 4.19526 9.13758C4.07024 9.01256 4 8.84299 4 8.66618C4 8.48937 4.07024 8.3198 4.19526 8.19477C4.32029 8.06975 4.48986 7.99951 4.66667 7.99951C4.84348 7.99951 5.01305 8.06975 5.13807 8.19477C5.2631 8.3198 5.33333 8.48937 5.33333 8.66618Z" fill="#155DEC"/>
</svg>
