<svg width="16" height="16" viewBox="0 0 16 16" fill="none" xmlns="http://www.w3.org/2000/svg">
<path d="M12.1673 1.66553C12.7208 1.66549 13.2532 1.87723 13.6555 2.25731C14.0578 2.63739 14.2993 3.15699 14.3307 3.70953L14.334 3.83219V11.8349C14.334 12.4095 14.1057 12.9606 13.6994 13.3669C13.2931 13.7733 12.742 14.0015 12.1673 14.0015H4.16733C3.61379 14.0017 3.08117 13.7901 2.67876 13.41C2.27634 13.0299 2.03467 12.5102 2.00333 11.9575L2 11.8349V3.83219C2 3.25756 2.22827 2.70646 2.6346 2.30013C3.04093 1.8938 3.59203 1.66553 4.16667 1.66553H12.1673ZM7.66667 6.33219L3 6.33286V11.8349L3.00467 11.9415C3.03127 12.2313 3.16521 12.5007 3.38019 12.6968C3.59517 12.8929 3.87568 13.0016 4.16667 13.0015L7.66667 13.0009V6.33219ZM13.3333 10.3322L8.66667 10.3329V13.0009H12.1667C12.4761 13.0009 12.7728 12.8779 12.9916 12.6592C13.2104 12.4404 13.3333 12.1436 13.3333 11.8342V10.3322ZM12.1673 2.66553L8.66667 2.66486V9.33353L13.3333 9.33286L13.334 3.83286L13.3293 3.72619C13.3027 3.43642 13.1688 3.16705 12.9538 2.97094C12.7388 2.77483 12.4583 2.66614 12.1673 2.66619M7.66667 2.66486L4.16667 2.66553L4.07133 2.66953C3.77953 2.69362 3.50746 2.82655 3.30912 3.04193C3.11078 3.25732 3.00068 3.5394 3.00067 3.83219L3 5.33353H7.66667V2.66486Z" fill="#155DEC"/>
</svg>
