<svg width="16" height="16" viewBox="0 0 16 16" fill="none" xmlns="http://www.w3.org/2000/svg">
<path fill-rule="evenodd" clip-rule="evenodd" d="M13.3337 2.66683H2.66699C2.49018 2.66683 2.32061 2.73707 2.19559 2.86209C2.07056 2.98712 2.00033 3.15668 2.00033 3.3335V12.6668C2.00033 12.8436 2.07056 13.0132 2.19559 13.1382C2.32061 13.2633 2.49018 13.3335 2.66699 13.3335H13.3337C13.5105 13.3335 13.68 13.2633 13.8051 13.1382C13.9301 13.0132 14.0003 12.8436 14.0003 12.6668V3.3335C14.0003 3.15668 13.9301 2.98712 13.8051 2.86209C13.68 2.73707 13.5105 2.66683 13.3337 2.66683ZM2.66699 1.3335C2.13656 1.3335 1.62785 1.54421 1.25278 1.91928C0.877706 2.29436 0.666992 2.80306 0.666992 3.3335V12.6668C0.666992 13.1973 0.877706 13.706 1.25278 14.081C1.62785 14.4561 2.13656 14.6668 2.66699 14.6668H13.3337C13.8641 14.6668 14.3728 14.4561 14.7479 14.081C15.1229 13.706 15.3337 13.1973 15.3337 12.6668V3.3335C15.3337 2.80306 15.1229 2.29436 14.7479 1.91928C14.3728 1.54421 13.8641 1.3335 13.3337 1.3335H2.66699ZM4.00033 4.66683H5.33366V6.00016H4.00033V4.66683ZM7.33366 4.66683C7.15685 4.66683 6.98728 4.73707 6.86225 4.86209C6.73723 4.98712 6.66699 5.15668 6.66699 5.3335C6.66699 5.51031 6.73723 5.67988 6.86225 5.8049C6.98728 5.92992 7.15685 6.00016 7.33366 6.00016H11.3337C11.5105 6.00016 11.68 5.92992 11.8051 5.8049C11.9301 5.67988 12.0003 5.51031 12.0003 5.3335C12.0003 5.15668 11.9301 4.98712 11.8051 4.86209C11.68 4.73707 11.5105 4.66683 11.3337 4.66683H7.33366ZM5.33366 7.3335H4.00033V8.66683H5.33366V7.3335ZM6.66699 8.00016C6.66699 7.82335 6.73723 7.65378 6.86225 7.52876C6.98728 7.40373 7.15685 7.3335 7.33366 7.3335H11.3337C11.5105 7.3335 11.68 7.40373 11.8051 7.52876C11.9301 7.65378 12.0003 7.82335 12.0003 8.00016C12.0003 8.17697 11.9301 8.34654 11.8051 8.47157C11.68 8.59659 11.5105 8.66683 11.3337 8.66683H7.33366C7.15685 8.66683 6.98728 8.59659 6.86225 8.47157C6.73723 8.34654 6.66699 8.17697 6.66699 8.00016ZM5.33366 10.0002H4.00033V11.3335H5.33366V10.0002ZM6.66699 10.6668C6.66699 10.49 6.73723 10.3204 6.86225 10.1954C6.98728 10.0704 7.15685 10.0002 7.33366 10.0002H11.3337C11.5105 10.0002 11.68 10.0704 11.8051 10.1954C11.9301 10.3204 12.0003 10.49 12.0003 10.6668C12.0003 10.8436 11.9301 11.0132 11.8051 11.1382C11.68 11.2633 11.5105 11.3335 11.3337 11.3335H7.33366C7.15685 11.3335 6.98728 11.2633 6.86225 11.1382C6.73723 11.0132 6.66699 10.8436 6.66699 10.6668Z" fill="#155DEC"/>
</svg>
