<svg width="24" height="25" viewBox="0 0 24 25" fill="none" xmlns="http://www.w3.org/2000/svg">
<g id="fluent:table-28-regular">
<path id="Vector" d="M2.57129 6.23821C2.57129 5.38573 2.90994 4.56816 3.51273 3.96537C4.11553 3.36257 4.93309 3.02393 5.78557 3.02393H18.2141C19.0666 3.02393 19.8842 3.36257 20.487 3.96537C21.0898 4.56816 21.4284 5.38573 21.4284 6.23821V18.6668C21.4284 19.5193 21.0898 20.3368 20.487 20.9396C19.8842 21.5424 19.0666 21.8811 18.2141 21.8811H5.78557C4.93309 21.8811 4.11553 21.5424 3.51273 20.9396C2.90994 20.3368 2.57129 19.5193 2.57129 18.6668V6.23821ZM3.857 16.3096V18.6668C3.857 19.1783 4.06019 19.6688 4.42187 20.0305C4.78355 20.3922 5.27409 20.5954 5.78557 20.5954H8.14272V16.3096H3.857ZM8.14272 15.0239V9.88107H3.857V15.0239H8.14272ZM9.42843 16.3096V20.5954H14.5713V16.3096H9.42843ZM14.5713 15.0239V9.88107H9.42843V15.0239H14.5713ZM15.857 16.3096V20.5954H18.2141C18.7256 20.5954 19.2162 20.3922 19.5779 20.0305C19.9395 19.6688 20.1427 19.1783 20.1427 18.6668V16.3096H15.857ZM20.1427 15.0239V9.88107H15.857V15.0239H20.1427ZM20.1427 6.23821C20.1427 5.72672 19.9395 5.23618 19.5779 4.87451C19.2162 4.51283 18.7256 4.30964 18.2141 4.30964H15.857V8.59535H20.1427V6.23821ZM14.5713 4.30964H9.42843V8.59535H14.5713V4.30964ZM8.14272 4.30964H5.78557C5.27409 4.30964 4.78355 4.51283 4.42187 4.87451C4.06019 5.23618 3.857 5.72672 3.857 6.23821V8.59535H8.14272V4.30964Z" fill="#155DEC"/>
</g>
</svg>
