<svg width="16" height="17" viewBox="0 0 16 17" fill="none" xmlns="http://www.w3.org/2000/svg">
<path d="M4.66667 11.8333H7.33333C7.52222 11.8333 7.68067 11.7693 7.80867 11.6413C7.93667 11.5133 8.00044 11.3551 8 11.1667C7.99956 10.9782 7.93556 10.82 7.808 10.692C7.68044 10.564 7.52222 10.5 7.33333 10.5H4.66667C4.47778 10.5 4.31956 10.564 4.192 10.692C4.06444 10.82 4.00044 10.9782 4 11.1667C3.99956 11.3551 4.06356 11.5136 4.192 11.642C4.32044 11.7704 4.47867 11.8342 4.66667 11.8333ZM6.66667 9.16667H9.33333C9.52222 9.16667 9.68067 9.10267 9.80867 8.97467C9.93667 8.84667 10.0004 8.68844 10 8.5C9.99956 8.31156 9.93556 8.15333 9.808 8.02533C9.68044 7.89733 9.52222 7.83333 9.33333 7.83333H6.66667C6.47778 7.83333 6.31956 7.89733 6.192 8.02533C6.06444 8.15333 6.00044 8.31156 6 8.5C5.99956 8.68844 6.06356 8.84689 6.192 8.97533C6.32044 9.10378 6.47867 9.16756 6.66667 9.16667ZM8.66667 6.5H11.3333C11.5222 6.5 11.6807 6.436 11.8087 6.308C11.9367 6.18 12.0004 6.02178 12 5.83333C11.9996 5.64489 11.9356 5.48667 11.808 5.35867C11.6804 5.23067 11.5222 5.16667 11.3333 5.16667H8.66667C8.47778 5.16667 8.31956 5.23067 8.192 5.35867C8.06444 5.48667 8.00044 5.64489 8 5.83333C7.99956 6.02178 8.06356 6.18022 8.192 6.30867C8.32044 6.43711 8.47867 6.50089 8.66667 6.5ZM3.33333 14.5C2.96667 14.5 2.65289 14.3696 2.392 14.1087C2.13111 13.8478 2.00044 13.5338 2 13.1667V3.83333C2 3.46667 2.13067 3.15289 2.392 2.892C2.65333 2.63111 2.96711 2.50044 3.33333 2.5H12.6667C13.0333 2.5 13.3473 2.63067 13.6087 2.892C13.87 3.15333 14.0004 3.46711 14 3.83333V13.1667C14 13.5333 13.8696 13.8473 13.6087 14.1087C13.3478 14.37 13.0338 14.5004 12.6667 14.5H3.33333ZM3.33333 13.1667H12.6667V3.83333H3.33333V13.1667Z" fill="#155DEC"/>
</svg>
