<svg width="81" height="80" viewBox="0 0 81 80" fill="none" xmlns="http://www.w3.org/2000/svg">
<circle cx="49.1667" cy="48.5" r="28.5" fill="#B8CFF0"/>
<path d="M10.6667 16.5625C10.6667 12.94 13.6067 10 17.2292 10H30.3542C33.9767 10 36.9167 12.94 36.9167 16.5625V29.6875C36.9167 31.428 36.2253 33.0972 34.9946 34.3279C33.7639 35.5586 32.0947 36.25 30.3542 36.25H25.6667V51.25C25.6667 52.2446 26.0618 53.1984 26.7651 53.9016C27.4684 54.6049 28.4222 55 29.4167 55H44.4167V50.3125C44.4167 46.69 47.3567 43.75 50.9792 43.75H64.1042C67.7267 43.75 70.6667 46.69 70.6667 50.3125V63.4375C70.6667 65.178 69.9753 66.8472 68.7446 68.0779C67.5139 69.3086 65.8447 70 64.1042 70H50.9792C49.2388 70 47.5696 69.3086 46.3389 68.0779C45.1082 66.8472 44.4167 65.178 44.4167 63.4375V60.625H29.4167C26.9303 60.625 24.5458 59.6373 22.7876 57.8791C21.0295 56.121 20.0417 53.7364 20.0417 51.25V36.25H17.2292C15.4888 36.25 13.8196 35.5586 12.5889 34.3279C11.3582 33.0972 10.6667 31.428 10.6667 29.6875V16.5625ZM17.2292 15.625C16.9806 15.625 16.7422 15.7238 16.5663 15.8996C16.3905 16.0754 16.2917 16.3139 16.2917 16.5625V29.6875C16.2917 30.205 16.7117 30.625 17.2292 30.625H30.3542C30.6029 30.625 30.8413 30.5262 31.0172 30.3504C31.193 30.1746 31.2917 29.9361 31.2917 29.6875V16.5625C31.2917 16.3139 31.193 16.0754 31.0172 15.8996C30.8413 15.7238 30.6029 15.625 30.3542 15.625H17.2292ZM50.9792 49.375C50.7306 49.375 50.4922 49.4738 50.3163 49.6496C50.1405 49.8254 50.0417 50.0639 50.0417 50.3125V63.4375C50.0417 63.955 50.4617 64.375 50.9792 64.375H64.1042C64.3529 64.375 64.5913 64.2762 64.7672 64.1004C64.943 63.9246 65.0417 63.6861 65.0417 63.4375V50.3125C65.0417 50.0639 64.943 49.8254 64.7672 49.6496C64.5913 49.4738 64.3529 49.375 64.1042 49.375H50.9792Z" fill="#155DEC"/>
</svg>
