<svg width="80" height="80" viewBox="0 0 80 80" fill="none" xmlns="http://www.w3.org/2000/svg">
<circle cx="48.5" cy="48.5" r="28.5" fill="#B8CFF0"/>
<path d="M68.7059 29.1765C63.8529 29.1765 61.2647 33.7059 62.5588 37.2647L50.9118 48.9118C49.9412 48.5882 48.6471 48.5882 47.6765 48.9118L39.2647 40.5C40.5588 36.9412 37.9706 32.4118 33.1176 32.4118C28.5882 32.4118 25.6765 36.9412 26.9706 40.5L12.0882 55.0588C8.52941 54.0882 4 56.6765 4 61.5294C4 65.0882 6.91176 68 10.4706 68C15 68 17.9118 63.4706 16.6176 59.9118L31.1765 45.0294C32.1471 45.3529 33.4412 45.3529 34.4118 45.0294L42.8235 53.4412C41.8529 56.6765 44.4412 61.5294 49.2941 61.5294C54.1471 61.5294 56.7353 57 55.4412 53.4412L67.0882 41.7941C70.6471 42.7647 75.1765 40.1765 75.1765 35.6471C75.1765 32.0882 72.2647 29.1765 68.7059 29.1765ZM49.2941 32.4118L52.2059 25.6176L59 22.7059L52.2059 19.7941L49.2941 13L46.3824 19.7941L39.5882 22.7059L46.3824 25.6176L49.2941 32.4118ZM12.0882 38.8824L13.7059 32.4118L20.1765 30.7941L13.7059 29.1765L12.0882 22.7059L10.4706 29.1765L4 30.7941L10.4706 32.4118L12.0882 38.8824Z" fill="#155DEC"/>
</svg>
