<svg width="81" height="80" viewBox="0 0 81 80" fill="none" xmlns="http://www.w3.org/2000/svg">
<circle cx="49.1667" cy="48.5" r="28.5" fill="#B8CFF0"/>
<path d="M67.7816 52.9032C67.9653 52.9988 68.1192 53.143 68.2266 53.32C68.3341 53.497 68.3909 53.7002 68.3909 53.9072C68.3909 54.1143 68.3341 54.3174 68.2266 54.4945C68.1192 54.6715 67.9653 54.8157 67.7816 54.9113L58.2437 59.8715C58.0711 59.9615 57.8782 60.0054 57.6836 59.999C57.4891 59.9926 57.2995 59.9362 57.1331 59.8351C56.9667 59.7341 56.8292 59.5918 56.7339 59.4221C56.6385 59.2524 56.5886 59.061 56.5888 58.8664V48.9481C56.5886 48.7535 56.6385 48.562 56.7339 48.3923C56.8292 48.2227 56.9667 48.0804 57.1331 47.9794C57.2995 47.8783 57.4891 47.8219 57.6836 47.8155C57.8782 47.8091 58.0711 47.853 58.2437 47.9429L67.7816 52.9032Z" fill="#155DEC"/>
<path d="M56.5873 50.758H30.3394V57.0585H56.5873V50.758Z" fill="#155DEC"/>
<path d="M36.8844 56.9876C36.3112 56.9725 13.5604 57.0535 13.5604 57.0535L13.544 53.2946L13.546 50.7492C13.546 50.7492 32.287 50.7114 36.7764 50.6351C38.3861 50.6619 39.9847 50.3645 41.4771 49.7607C42.9695 49.1569 44.3251 48.259 45.4633 47.1204C46.6015 45.9818 47.499 44.6259 48.1023 43.1333C48.7055 41.6406 49.0023 40.0419 48.975 38.4322C48.9476 36.8226 48.5967 35.2348 47.943 33.7636C47.2893 32.2924 46.3463 30.9677 45.17 29.8685C43.9938 28.7692 42.6084 27.9179 41.0964 27.3652C39.5843 26.8124 37.9765 26.5696 36.3687 26.6511C30.4961 26.7509 25.9978 29.366 25.0739 34.9661L26.8984 34.9193C26.8984 34.9193 27.5586 34.8582 27.6918 34.9669C27.7554 35.0209 27.7995 35.0944 27.8172 35.1759C27.835 35.2575 27.8254 35.3426 27.79 35.4182C23.7523 43.9427 27.8162 35.3611 21.8873 47.865C21.8579 47.9298 21.8107 47.9849 21.7513 48.024C21.6918 48.063 21.6225 48.0844 21.5513 48.0856C21.4802 48.0868 21.4102 48.0678 21.3494 48.0308C21.2887 47.9938 21.2396 47.9403 21.2081 47.8765L14.8857 35.6375C14.8466 35.5635 14.8335 35.4784 14.8485 35.396C14.8635 35.3136 14.9058 35.2387 14.9685 35.1832C15.2428 35.0994 15.5295 35.0639 15.816 35.0782L17.8 34.963C18.6421 25.7522 26.8 20.4729 36.2609 20.3121C41.1244 20.2294 45.8215 22.0821 49.319 25.4627C52.8164 28.8432 54.8277 33.4746 54.9104 38.3381C54.9931 43.2016 53.1404 47.8987 49.7599 51.3962C46.3793 54.8937 41.7479 56.905 36.8844 56.9876V56.9876Z" fill="#155DEC"/>
</svg>
