<svg width="80" height="80" viewBox="0 0 80 80" fill="none" xmlns="http://www.w3.org/2000/svg">
<ellipse cx="50" cy="50" rx="30" ry="29.5" fill="#B8CFF0"/>
<path d="M64.8673 21.6799L34.8735 51.6738C34.596 51.9518 34.2664 52.1724 33.9035 52.3229C33.5407 52.4734 33.1517 52.5509 32.7589 52.5509C32.3661 52.5509 31.9771 52.4734 31.6142 52.3229C31.2514 52.1724 30.9218 51.9518 30.6443 51.6738L22.1561 43.1855C21.8784 42.9078 21.6581 42.5781 21.5078 42.2153C21.3575 41.8525 21.2802 41.4636 21.2802 41.0709C21.2802 40.6782 21.3575 40.2893 21.5078 39.9265C21.6581 39.5637 21.8784 39.234 22.1561 38.9564C22.4337 38.6787 22.7634 38.4584 23.1262 38.3081C23.489 38.1578 23.8779 38.0805 24.2706 38.0805C24.6633 38.0805 25.0522 38.1578 25.415 38.3081C25.7778 38.4584 26.1075 38.6787 26.3852 38.9564L32.7439 45.3151L60.6082 17.4508C60.8857 17.1727 61.2153 16.9521 61.5781 16.8016C61.941 16.6511 62.3299 16.5736 62.7227 16.5736C63.1156 16.5736 63.5045 16.6511 63.8674 16.8016C64.2302 16.9521 64.5598 17.1727 64.8373 17.4508C66.0371 18.6205 66.0371 20.5101 64.8673 21.6799ZM37.003 64.0012C22.8759 64.0012 11.5682 51.7337 13.1579 37.3067C14.3277 26.7489 22.516 18.0806 32.9838 16.341C38.4127 15.4412 43.5717 16.401 47.9508 18.6805C48.6588 19.0504 49.4847 19.1239 50.2469 18.8849C51.009 18.6458 51.645 18.1138 52.0149 17.4058C52.3848 16.6978 52.4583 15.8719 52.2193 15.1097C51.9802 14.3475 51.4482 13.7115 50.7402 13.3416C46.3311 11.0921 41.3521 9.86231 36.0432 10.0123C20.6264 10.4922 7.81899 23.0296 7.03915 38.4165C6.16933 55.7229 19.9065 70 37.003 70C40.6023 70 44.0216 69.3701 47.2309 68.2004C49.2705 67.4505 49.8404 64.8111 48.2807 63.2514C47.8826 62.8479 47.3764 62.5681 46.8229 62.4457C46.2695 62.3233 45.6925 62.3635 45.1613 62.5615C42.6119 63.4913 39.8524 64.0012 37.003 64.0012ZM57.9987 49.0043H51.9999C50.3503 49.0043 49.0006 50.354 49.0006 52.0037C49.0006 53.6533 50.3503 55.0031 51.9999 55.0031H57.9987V61.0018C57.9987 62.6515 59.3484 64.0012 60.9981 64.0012C62.6478 64.0012 63.9975 62.6515 63.9975 61.0018V55.0031H69.9963C71.6459 55.0031 72.9956 53.6533 72.9956 52.0037C72.9956 50.354 71.6459 49.0043 69.9963 49.0043H63.9975V43.0055C63.9975 41.3559 62.6478 40.0061 60.9981 40.0061C59.3484 40.0061 57.9987 41.3559 57.9987 43.0055V49.0043Z" fill="#155DEC"/>
</svg>
