<svg width="80" height="80" viewBox="0 0 80 80" fill="none" xmlns="http://www.w3.org/2000/svg">
<ellipse cx="50" cy="50" rx="30" ry="29.5" fill="#B8CFF0"/>
<path d="M60.9551 37.59C60.6866 33.3132 59.2023 29.202 56.677 25.74C54.1516 22.278 50.6901 19.6092 46.6997 18.0474C42.7092 16.4856 38.3557 16.0958 34.1513 16.9239C29.9468 17.752 26.0663 19.7635 22.9661 22.7218C19.8659 25.6802 17.675 29.4623 16.6511 33.6234C15.6271 37.7845 15.8127 42.1514 17.186 46.2106C18.5593 50.2698 21.0633 53.8524 24.4033 56.537C27.7433 59.2216 31.7805 60.8966 36.0401 61.365" stroke="#155DEC" stroke-width="5" stroke-linecap="round" stroke-linejoin="round"/>
<path d="M38.5 26.5V39L41 41.5M53 61.0425L47.57 63.8875C47.4089 63.9714 47.2276 64.0088 47.0464 63.9956C46.8652 63.9824 46.6913 63.9191 46.544 63.8128C46.3967 63.7065 46.2818 63.5613 46.2123 63.3935C46.1427 63.2257 46.1211 63.0419 46.15 62.8625L47.1875 56.835L42.795 52.5675C42.6639 52.4408 42.5711 52.2797 42.5271 52.1027C42.4831 51.9257 42.4898 51.74 42.5464 51.5666C42.603 51.3933 42.7071 51.2393 42.847 51.1223C42.9869 51.0053 43.1569 50.93 43.3375 50.905L49.4075 50.025L52.1225 44.5425C52.2037 44.3792 52.3288 44.2418 52.4839 44.1458C52.6389 44.0497 52.8176 43.9988 53 43.9988C53.1824 43.9988 53.3611 44.0497 53.5161 44.1458C53.6712 44.2418 53.7963 44.3792 53.8775 44.5425L56.5925 50.025L62.6625 50.905C62.8426 50.9309 63.0119 51.0067 63.1511 51.1238C63.2904 51.2409 63.3941 51.3946 63.4506 51.5676C63.507 51.7406 63.5139 51.9259 63.4705 52.1026C63.4271 52.2793 63.3352 52.4403 63.205 52.5675L58.8125 56.835L59.8475 62.86C59.8786 63.0397 59.8586 63.2244 59.7899 63.3933C59.7213 63.5623 59.6066 63.7085 59.459 63.8155C59.3113 63.9225 59.1367 63.986 58.9548 63.9987C58.7729 64.0114 58.5911 63.9729 58.43 63.8875L53 61.0425Z" stroke="#155DEC" stroke-width="4" stroke-linecap="round" stroke-linejoin="round"/>
</svg>
