<svg width="80" height="80" viewBox="0 0 80 80" fill="none" xmlns="http://www.w3.org/2000/svg">
<ellipse cx="50" cy="50" rx="30" ry="29.5" fill="#B8CFF0"/>
<path d="M74.0312 49.9986C74.0316 53.0252 73.1344 55.9839 71.4531 58.5005C69.7718 61.0172 67.3819 62.9787 64.5857 64.1369C61.7895 65.2952 58.7126 65.5982 55.7442 65.0077C52.7758 64.4171 50.0491 62.9595 47.9092 60.8192L47.7842 60.684L32.5185 43.447C31.2279 42.18 29.5918 41.3225 27.8156 40.9819C26.0394 40.6414 24.2021 40.8331 22.5345 41.5329C20.8668 42.2327 19.4429 43.4095 18.4416 44.9156C17.4403 46.4217 16.9061 48.19 16.9061 49.9986C16.9061 51.8071 17.4403 53.5754 18.4416 55.0815C19.4429 56.5876 20.8668 57.7644 22.5345 58.4642C24.2021 59.1641 26.0394 59.3557 27.8156 59.0152C29.5918 58.6747 31.2279 57.8171 32.5185 56.5501L33.304 55.6626C33.5704 55.3612 33.8936 55.1152 34.2551 54.9387C34.6166 54.7622 35.0093 54.6586 35.4108 54.6339C35.8123 54.6091 36.2147 54.6637 36.5952 54.7945C36.9756 54.9253 37.3265 55.1297 37.6279 55.3961C37.9293 55.6625 38.1753 55.9857 38.3518 56.3472C38.5284 56.7087 38.6319 57.1014 38.6567 57.5029C38.6814 57.9044 38.6269 58.3069 38.4961 58.6873C38.3653 59.0677 38.1608 59.4186 37.8944 59.7201L37.0401 60.684L36.9151 60.8192C34.7751 62.9589 32.0486 64.4159 29.0805 65.0061C26.1124 65.5963 23.0359 65.2932 20.2401 64.135C17.4443 62.9768 15.0547 61.0155 13.3735 58.4993C11.6923 55.9831 10.7949 53.0248 10.7949 49.9986C10.7949 46.9723 11.6923 44.0141 13.3735 41.4978C15.0547 38.9816 17.4443 37.0204 20.2401 35.8622C23.0359 34.7039 26.1124 34.4008 29.0805 34.991C32.0486 35.5812 34.7751 37.0382 36.9151 39.1779L37.0401 39.3131L52.3058 56.5501C53.5964 57.8171 55.2325 58.6747 57.0087 59.0152C58.785 59.3557 60.6222 59.1641 62.2899 58.4642C63.9576 57.7644 65.3814 56.5876 66.3827 55.0815C67.384 53.5754 67.9182 51.8071 67.9182 49.9986C67.9182 48.19 67.384 46.4217 66.3827 44.9156C65.3814 43.4095 63.9576 42.2327 62.2899 41.5329C60.6222 40.8331 58.785 40.6414 57.0087 40.9819C55.2325 41.3225 53.5964 42.18 52.3058 43.447L51.5203 44.3345C51.2539 44.6359 50.9307 44.8819 50.5693 45.0584C50.2078 45.2349 49.8151 45.3385 49.4136 45.3633C49.0121 45.388 48.6096 45.3334 48.2292 45.2026C47.8488 45.0718 47.4978 44.8674 47.1964 44.601C46.895 44.3346 46.649 44.0114 46.4725 43.6499C46.296 43.2884 46.1924 42.8957 46.1676 42.4942C46.1429 42.0927 46.1975 41.6903 46.3283 41.3098C46.4591 40.9294 46.6635 40.5785 46.9299 40.2771L47.7842 39.3131L47.9092 39.1779C50.0491 37.0376 52.7758 35.58 55.7442 34.9894C58.7126 34.3989 61.7895 34.7019 64.5857 35.8602C67.3819 37.0185 69.7718 38.98 71.4531 41.4966C73.1344 44.0132 74.0316 46.972 74.0312 49.9986Z" fill="#155DEC"/>
</svg>
