<svg width="80" height="80" viewBox="0 0 80 80" fill="none" xmlns="http://www.w3.org/2000/svg">
<ellipse cx="50" cy="50" rx="30" ry="29.5" fill="#B8CFF0"/>
<path d="M61.909 14.5977H21.2642C19.9167 14.5977 18.6245 15.1329 17.6717 16.0857C16.7189 17.0385 16.1836 18.3308 16.1836 19.6783V50.1618C16.1836 51.5093 16.7189 52.8016 17.6717 53.7544C18.6245 54.7072 19.9167 55.2424 21.2642 55.2424H36.506V60.323H28.8851V65.4036H54.2881V60.323H46.6672V55.2424H61.909C63.2564 55.2424 64.5487 54.7072 65.5015 53.7544C66.4543 52.8016 66.9896 51.5093 66.9896 50.1618V19.6783C66.9896 18.3308 66.4543 17.0385 65.5015 16.0857C64.5487 15.1329 63.2564 14.5977 61.909 14.5977ZM61.909 50.1618H21.2642V19.6783H61.909V50.1618Z" fill="#155DEC"/>
</svg>
