<svg width="80" height="80" viewBox="0 0 80 80" fill="none" xmlns="http://www.w3.org/2000/svg">
<circle cx="48.5" cy="48.5" r="28.5" fill="#B8CFF0"/>
<path d="M36.3968 17.4744C37.8514 14.457 42.1486 14.457 43.6032 17.4743L49.1511 28.9828C49.5441 29.798 50.202 30.4559 51.0172 30.8489L62.5256 36.3968C65.543 37.8514 65.543 42.1486 62.5257 43.6032L51.0172 49.1511C50.202 49.5441 49.5441 50.202 49.1511 51.0172L43.6032 62.5256C42.1486 65.543 37.8514 65.543 36.3968 62.5257L30.8489 51.0172C30.4559 50.202 29.798 49.5441 28.9828 49.1511L17.4744 43.6032C14.457 42.1486 14.457 37.8514 17.4743 36.3968L28.9828 30.8489C29.798 30.4559 30.4559 29.798 30.8489 28.9828L36.3968 17.4744Z" fill="#155DEC"/>
<path d="M18.1984 51.7372C18.9257 50.2285 21.0743 50.2285 21.8016 51.7372L23.2745 54.7925C23.471 55.2001 23.7999 55.529 24.2075 55.7255L27.2628 57.1984C28.7715 57.9257 28.7715 60.0743 27.2628 60.8016L24.2075 62.2745C23.7999 62.471 23.471 62.7999 23.2745 63.2075L21.8016 66.2628C21.0743 67.7715 18.9257 67.7715 18.1984 66.2628L16.7255 63.2075C16.529 62.7999 16.2001 62.471 15.7925 62.2745L12.7372 60.8016C11.2285 60.0743 11.2285 57.9257 12.7372 57.1984L15.7925 55.7255C16.2001 55.529 16.529 55.2001 16.7255 54.7925L18.1984 51.7372Z" fill="#155DEC"/>
<path d="M13.6984 3.73717C14.4257 2.2285 16.5743 2.2285 17.3016 3.73717L20.2382 9.82874C20.4347 10.2364 20.7636 10.5653 21.1713 10.7618L27.2628 13.6984C28.7715 14.4257 28.7715 16.5743 27.2628 17.3016L21.1713 20.2382C20.7636 20.4347 20.4347 20.7636 20.2382 21.1713L17.3016 27.2628C16.5743 28.7715 14.4257 28.7715 13.6984 27.2628L10.7618 21.1713C10.5653 20.7636 10.2364 20.4347 9.82874 20.2382L3.73717 17.3016C2.2285 16.5743 2.2285 14.4257 3.73717 13.6984L9.82874 10.7618C10.2364 10.5653 10.5653 10.2364 10.7618 9.82874L13.6984 3.73717Z" fill="#155DEC"/>
</svg>
