<svg width="20" height="21" viewBox="0 0 20 21" fill="none" xmlns="http://www.w3.org/2000/svg">
<g id="eos-icons:admin">
<path id="Vector" d="M10 1.12534L2.5 4.45867V9.45867C2.5 14.0837 5.7 18.4087 10 19.4587C14.3 18.4087 17.5 14.0837 17.5 9.45867V4.45867L10 1.12534ZM10 4.37534C10.4945 4.37534 10.9778 4.52196 11.3889 4.79666C11.8 5.07137 12.1205 5.46181 12.3097 5.91863C12.4989 6.37544 12.5484 6.87811 12.452 7.36306C12.3555 7.84801 12.1174 8.29347 11.7678 8.6431C11.4181 8.99273 10.9727 9.23084 10.4877 9.3273C10.0028 9.42376 9.50011 9.37425 9.04329 9.18503C8.58648 8.99582 8.19603 8.67538 7.92133 8.26426C7.64662 7.85314 7.5 7.36979 7.5 6.87534C7.5 6.21229 7.76339 5.57641 8.23223 5.10757C8.70107 4.63873 9.33696 4.37534 10 4.37534ZM10 10.9587C11.6667 10.9587 15 11.867 15 13.5253C14.4527 14.3504 13.7097 15.0273 12.8373 15.4955C11.9649 15.9637 10.9901 16.2087 10 16.2087C9.00988 16.2087 8.03515 15.9637 7.16273 15.4955C6.2903 15.0273 5.54731 14.3504 5 13.5253C5 11.867 8.33333 10.9587 10 10.9587Z" fill="#68696E"/>
</g>
</svg>
