<svg width="24" height="25" viewBox="0 0 24 25" fill="none" xmlns="http://www.w3.org/2000/svg">
<g id="lets-icons:comment">
<g id="Group">
<path id="Vector" d="M19.4603 14.5113C19.4439 14.7161 19.4207 14.8886 19.3894 15.0378L20.3028 15.5032C20.3843 15.2265 20.4303 14.9267 20.4577 14.5927C20.4577 14.5927 20.4577 14.5927 20.4577 14.5927L20.956 14.6335C20.9915 14.199 20.9984 13.6846 20.9997 13.0815L19.4603 14.5113ZM19.4603 14.5113C19.4921 14.1347 19.4984 13.676 19.4997 13.0815M20.3028 7.2597L19.3895 7.72507C19.4207 7.87409 19.4439 8.04645 19.4603 8.25155M20.3028 7.2597L18.962 8.29245M20.3028 7.2597C20.3843 7.53629 20.4303 7.8358 20.4576 8.16961C20.4908 8.58578 20.498 9.08161 20.4996 9.68145L20.3028 7.2597ZM19.4603 8.25155C19.4604 8.25194 19.4604 8.25233 19.4604 8.25272L18.962 8.29245M19.4603 8.25155C19.4603 8.25116 19.4603 8.25077 19.4602 8.25038L18.962 8.29245M19.4603 8.25155C19.4921 8.62815 19.4984 9.08685 19.4997 9.68145H19H18.9997C18.9984 9.08823 18.9921 8.64893 18.962 8.29245M3.69718 7.2597L4.61057 7.72511C4.57933 7.87431 4.55608 8.04673 4.53968 8.25152C4.50794 8.62812 4.50159 9.08683 4.50032 9.68145H3.50043C3.50198 9.08137 3.50917 8.58513 3.54237 8.16979C3.56972 7.83591 3.61571 7.53633 3.69718 7.2597ZM3.5 10.6815H4.5V11.8815H3.5V10.6815ZM3.5 12.8815H4.5V16.8815H3.5V12.8815ZM3.5 17.8815H4.5V18.7603L3.70745 19.5529C3.70742 19.5529 3.70739 19.553 3.70736 19.553L3.5 19.7603V17.8815ZM4.24289 20.7955L4.66965 21.2222C4.27584 21.3149 3.85199 21.1393 3.63902 20.7955H4.24289ZM7.70733 18.3819L5.5 20.5885V20.2956C5.5 20.2956 5.5 20.2955 5.5 20.2955C5.5 20.2953 5.5 20.2951 5.5 20.2949V19.1746L7 17.6746L7.70733 18.3819ZM19.8595 16.3997C19.6292 16.726 19.3446 17.0106 19.0182 17.241L18.5576 16.337C18.7048 16.2197 18.8383 16.0862 18.9555 15.939L19.8595 16.3997ZM20.5 12.0815H19.5V10.6815H20.5V12.0815ZM18.9245 7.96202L19.009 7.91896L18.9245 7.96202ZM18.4984 7.05679C18.6095 7.18242 18.705 7.32226 18.782 7.47345L18.4984 7.05679ZM6.34361 5.99194L5.87825 5.07863C6.15487 4.99716 6.45444 4.95117 6.78831 4.92383C7.20445 4.89062 7.70023 4.88344 8.3 4.88188V5.88177C7.7054 5.88304 7.24669 5.88939 6.87009 5.92113C6.66499 5.93752 6.49263 5.96075 6.34361 5.99194ZM9.3 5.88145V4.88145H14.7V5.88145H9.3ZM15.7 5.88177V4.88188C16.3001 4.88344 16.7963 4.89062 17.2117 4.92382C17.5455 4.95117 17.8451 4.99716 18.1218 5.07863L17.6563 5.99202C17.5071 5.96078 17.3347 5.93753 17.1299 5.92113C16.7533 5.88939 16.2946 5.88304 15.7 5.88177ZM4.9818 5.52194L5.44243 6.42596C5.29524 6.5432 5.16174 6.67669 5.0445 6.82388L4.14048 6.36325C4.37084 6.03687 4.65542 5.75229 4.9818 5.52194ZM18.3247 6.88304L18.3535 6.82645L18.3247 6.88304Z" fill="#68696E" stroke="#68696E"/>
<g id="Vector_2">
<path d="M8 9.38145H16H8ZM8 13.3815H13H8Z" fill="#68696E"/>
<path d="M8 9.38145H16M8 13.3815H13" stroke="#68696E" stroke-width="1.4" stroke-linecap="round" stroke-linejoin="round"/>
</g>
</g>
</g>
</svg>
