<svg width="34" height="36" viewBox="0 0 34 36" fill="none" xmlns="http://www.w3.org/2000/svg">
<g id="Group 14192">
<path id="Vector" d="M7.37863 28.5918H6.09063C3.64663 28.5918 1.66663 26.6118 1.66663 24.1678V6.21184C1.66663 3.76784 3.64663 1.78784 6.09063 1.78784H17.4546C19.8986 1.78784 21.8786 3.76784 21.8786 6.21184V7.05985" stroke="white" stroke-width="2.4" stroke-miterlimit="10"/>
<path id="Vector_2" d="M27.5942 29.4397C27.5942 31.8837 25.6142 33.8637 23.1702 33.8637H11.8062C9.3622 33.8637 7.3822 31.8837 7.3822 29.4397V11.4837C7.3822 9.03972 9.3622 7.05972 11.8062 7.05972H23.1702C25.6142 7.05972 27.5942 9.03972 27.5942 11.4837" stroke="white" stroke-width="2.4" stroke-linecap="round" stroke-linejoin="round"/>
<path id="Vector_3" d="M23.4199 16.8066L24.7919 19.3146C25.3679 20.3666 26.2319 21.2306 27.2839 21.8066L29.7919 23.1786L27.2839 24.5506C26.2319 25.1266 25.3679 25.9906 24.7919 27.0426L23.4199 29.5506L22.0479 27.0426C21.4719 25.9906 20.6079 25.1266 19.5559 24.5506L17.0479 23.1786L19.5559 21.8066C20.6079 21.2306 21.4719 20.3666 22.0479 19.3146L23.4199 16.8066Z" stroke="white" stroke-width="1.6" stroke-linecap="round" stroke-linejoin="round"/>
<path id="Vector_4" d="M29.9307 12.4879L30.7347 13.9599C31.0707 14.5759 31.5787 15.0839 32.1947 15.4199L33.6667 16.2239L32.1947 17.0279C31.5787 17.3639 31.0707 17.8719 30.7347 18.4879L29.9307 19.9599L29.1267 18.4879C28.7907 17.8719 28.2827 17.3639 27.6667 17.0279L26.1947 16.2239L27.6667 15.4199C28.2827 15.0839 28.7907 14.5759 29.1267 13.9599L29.9307 12.4879Z" fill="white"/>
</g>
</svg>
