<svg width="16" height="16" viewBox="0 0 16 16" fill="none" xmlns="http://www.w3.org/2000/svg">
<g clip-path="url(#clip0_8297_5534)">
<path d="M12.9571 12.3674C13.4463 12.5482 13.9858 12.5044 14.4604 12.2934C14.7002 12.1916 14.9492 12.2652 15.1875 12.3438C15.5375 12.4966 15.7714 12.7381 15.9311 13.0854C16.0204 13.3158 16.0136 13.5464 16.0124 13.7903C16.0125 13.8363 16.0126 13.8824 16.0127 13.9284C16.0128 14.0244 16.0126 14.1203 16.0122 14.2163C16.0117 14.3388 16.012 14.4614 16.0125 14.5839C16.0129 14.6788 16.0128 14.7736 16.0125 14.8685C16.0124 14.9137 16.0125 14.9588 16.0127 15.004C16.0141 15.3556 15.9838 15.5587 15.7428 15.821C15.5967 15.9638 15.4547 16.0035 15.2557 16.0049C15.2254 16.0051 15.1952 16.0054 15.1641 16.0057C15.1311 16.0058 15.0982 16.0059 15.0642 16.0061C15.0293 16.0063 14.9945 16.0066 14.9585 16.0068C14.843 16.0076 14.7275 16.0081 14.612 16.0086C14.5725 16.0088 14.533 16.0089 14.4924 16.0091C14.3263 16.0098 14.1603 16.0104 13.9942 16.0107C13.7569 16.0112 13.5197 16.0123 13.2824 16.014C13.095 16.0154 12.9076 16.0159 12.7202 16.0161C12.6407 16.0163 12.5612 16.0168 12.4818 16.0175C12.3703 16.0185 12.2589 16.0185 12.1475 16.0183C12.1149 16.0188 12.0823 16.0193 12.0488 16.0198C11.8025 16.0178 11.5951 15.9576 11.4088 15.7899C11.1728 15.5436 11.1732 15.2576 11.1739 14.9343C11.1738 14.8914 11.1736 14.8486 11.1734 14.8058C11.1731 14.7163 11.1732 14.6269 11.1735 14.5374C11.1739 14.4238 11.1733 14.3103 11.1723 14.1968C11.1718 14.1084 11.1718 14.02 11.172 13.9316C11.172 13.8698 11.1714 13.8079 11.1709 13.7461C11.1738 13.3618 11.2548 13.0209 11.5 12.7188C11.5156 12.6993 11.5313 12.6797 11.5475 12.6596C11.9282 12.2344 12.4552 12.1799 12.9571 12.3674ZM12.0885 12.9506C11.8976 13.1013 11.7715 13.2926 11.7354 13.5355C11.7294 13.6459 11.7283 13.7553 11.7292 13.8659C11.7291 13.906 11.7289 13.9461 11.7288 13.9874C11.7285 14.0717 11.7289 14.156 11.7296 14.2403C11.7305 14.348 11.73 14.4557 11.729 14.5635C11.7283 14.6669 11.7288 14.7703 11.7292 14.8737C11.7289 14.9122 11.7286 14.9508 11.7283 14.9905C11.7287 15.0264 11.7292 15.0623 11.7297 15.0993C11.7299 15.1307 11.73 15.1622 11.7301 15.1946C11.7591 15.321 11.7998 15.3633 11.9062 15.4375C12.0158 15.4601 12.1231 15.4586 12.2347 15.4573C12.2677 15.4575 12.3007 15.4577 12.3348 15.4579C12.4439 15.4585 12.553 15.4579 12.6622 15.4572C12.738 15.4572 12.8139 15.4573 12.8897 15.4574C13.0486 15.4575 13.2075 15.4571 13.3664 15.4562C13.5703 15.4551 13.7741 15.4553 13.9779 15.4559C14.1345 15.4562 14.2911 15.456 14.4477 15.4555C14.5229 15.4553 14.598 15.4553 14.6732 15.4555C14.7782 15.4557 14.8831 15.4551 14.9881 15.4542C15.0192 15.4544 15.0504 15.4546 15.0825 15.4548C15.2474 15.4533 15.2474 15.4533 15.3942 15.3855C15.4486 15.2938 15.4535 15.2348 15.4541 15.1283C15.4546 15.0912 15.4551 15.054 15.4556 15.0158C15.4554 14.9557 15.4554 14.9557 15.4552 14.8943C15.4553 14.8525 15.4555 14.8107 15.4558 14.7689C15.4561 14.6812 15.4559 14.5935 15.4555 14.5058C15.4549 14.3943 15.4557 14.2827 15.4568 14.1711C15.4575 14.0847 15.4574 13.9982 15.4572 13.9118C15.4571 13.8509 15.4577 13.79 15.4584 13.7291C15.4556 13.4586 15.4116 13.2417 15.2288 13.0343C15.1041 12.9127 14.955 12.8328 14.7812 12.8125C14.7044 12.825 14.6367 12.8478 14.5633 12.8738C13.9053 13.0997 13.2103 13.1043 12.5605 12.8458C12.3814 12.7824 12.2405 12.8511 12.0885 12.9506Z" fill="#4F4F4F"/>
<path d="M1.74302 12.3672C2.20746 12.5472 2.75847 12.5105 3.21502 12.3189C3.23405 12.3104 3.25308 12.3019 3.27268 12.2932C3.51115 12.192 3.76321 12.2627 3.99973 12.3436C4.36947 12.5147 4.60168 12.7789 4.74973 13.1561C4.82351 13.3871 4.82232 13.6102 4.82273 13.8513C4.82293 13.8944 4.82314 13.9376 4.82336 13.9807C4.82373 14.0707 4.82385 14.1607 4.82381 14.2507C4.82381 14.3654 4.82466 14.48 4.82574 14.5947C4.82643 14.6836 4.82656 14.7725 4.82652 14.8615C4.82663 14.9241 4.82731 14.9867 4.828 15.0493C4.82657 15.3345 4.77578 15.5207 4.62082 15.7577C4.39465 15.974 4.15825 16.023 3.85371 16.0191C3.81866 16.0193 3.78361 16.0195 3.7475 16.0196C3.63255 16.02 3.51763 16.0193 3.40268 16.0185C3.32238 16.0184 3.24208 16.0184 3.16178 16.0185C2.9939 16.0184 2.82603 16.0178 2.65815 16.0168C2.46452 16.0157 2.2709 16.0154 2.07726 16.0156C1.89025 16.0158 1.70324 16.0155 1.51623 16.0149C1.43695 16.0147 1.35767 16.0146 1.27839 16.0146C1.16763 16.0145 1.05688 16.0139 0.946119 16.013C0.9135 16.0131 0.880881 16.0132 0.847273 16.0133C0.533996 16.0096 0.343973 15.9116 0.124731 15.6874C0.0105785 15.5291 -0.00414982 15.3978 -0.00580063 15.2052C-0.00620173 15.1644 -0.00660283 15.1236 -0.00701609 15.0816C-0.00727145 15.0371 -0.00750404 14.9925 -0.00771561 14.948C-0.00784297 14.9255 -0.00797027 14.9029 -0.00810149 14.8797C-0.00875266 14.7601 -0.00919985 14.6406 -0.00949326 14.5211C-0.00983768 14.3984 -0.0109113 14.2758 -0.0121548 14.1531C-0.0129775 14.0581 -0.013234 13.9631 -0.0133457 13.8681C-0.0134967 13.823 -0.0138565 13.7778 -0.0144408 13.7327C-0.0198417 13.2874 0.0793396 12.9643 0.374731 12.6249C0.756994 12.2482 1.26423 12.1736 1.74302 12.3672ZM0.876562 12.9435C0.692929 13.0823 0.580408 13.2793 0.547803 13.5068C0.542184 13.6212 0.541381 13.7347 0.542577 13.8493C0.542551 13.8913 0.542474 13.9332 0.542349 13.9752C0.54226 14.0626 0.542713 14.1499 0.543577 14.2373C0.544648 14.3491 0.544451 14.4609 0.543869 14.5727C0.543538 14.6591 0.543818 14.7455 0.544287 14.832C0.544527 14.8932 0.544298 14.9544 0.544061 15.0156C0.544556 15.0528 0.545051 15.0899 0.54556 15.1282C0.545754 15.1608 0.545948 15.1935 0.546147 15.2271C0.557472 15.3138 0.557472 15.3138 0.605498 15.3854C0.734753 15.4676 0.861453 15.455 1.01162 15.4541C1.04462 15.4543 1.07761 15.4546 1.1116 15.4549C1.22076 15.4556 1.3299 15.4554 1.43906 15.4551C1.51488 15.4553 1.59069 15.4555 1.66651 15.4557C1.82547 15.456 1.98442 15.4559 2.14338 15.4554C2.34719 15.4549 2.55096 15.4556 2.75476 15.4567C2.91135 15.4574 3.06794 15.4573 3.22453 15.4571C3.29967 15.4571 3.37482 15.4573 3.44996 15.4577C3.555 15.4583 3.66 15.4578 3.76504 15.4571C3.79614 15.4575 3.82723 15.4578 3.85926 15.4582C4.00087 15.4563 4.07235 15.4521 4.19087 15.3694C4.25772 15.2692 4.26948 15.2186 4.26995 15.0991C4.27044 15.0632 4.27093 15.0273 4.27144 14.9903C4.27097 14.9325 4.27097 14.9325 4.27048 14.8736C4.27063 14.8336 4.27078 14.7936 4.27094 14.7525C4.27117 14.6679 4.27083 14.5834 4.2701 14.4988C4.26922 14.3912 4.26972 14.2837 4.27066 14.1762C4.27137 14.0727 4.27087 13.9692 4.27048 13.8657C4.2708 13.8275 4.27112 13.7893 4.27144 13.7499C4.26731 13.4446 4.19749 13.2183 3.97629 13.0018C3.84981 12.9019 3.72454 12.8296 3.56223 12.8124C3.49311 12.8251 3.43394 12.8477 3.36863 12.8737C2.70482 13.1196 2.01656 13.0793 1.35715 12.8456C1.17196 12.7877 1.03647 12.845 0.876562 12.9435Z" fill="#4F4F4F"/>
<path d="M7.39112 3.58887C7.85196 3.74231 8.40705 3.69041 8.84339 3.49219C9.091 3.38975 9.32709 3.4429 9.56995 3.53711C9.91722 3.69558 10.2045 3.9499 10.3434 4.31251C10.3906 4.45935 10.4139 4.58686 10.415 4.74096C10.4154 4.78133 10.4158 4.82169 10.4162 4.86329C10.4163 4.90682 10.4163 4.95036 10.4164 4.9939C10.4166 5.03916 10.4168 5.08441 10.417 5.12967C10.4174 5.22428 10.4175 5.31889 10.4175 5.4135C10.4175 5.53409 10.4183 5.65466 10.4194 5.77524C10.4201 5.86865 10.4202 5.96205 10.4202 6.05546C10.4203 6.09989 10.4205 6.14431 10.421 6.18874C10.424 6.49171 10.4066 6.7262 10.2067 6.9629C9.93776 7.18699 9.72286 7.22815 9.38346 7.22783C9.35045 7.22804 9.31745 7.22825 9.28344 7.22847C9.17468 7.22906 9.06592 7.22919 8.95716 7.22925C8.88123 7.22945 8.80529 7.22966 8.72936 7.22988C8.57028 7.23026 8.4112 7.23037 8.25211 7.23034C8.04886 7.23033 7.84562 7.23118 7.64237 7.23226C7.48554 7.23296 7.3287 7.23308 7.17186 7.23305C7.09696 7.23312 7.02206 7.2334 6.94716 7.23388C6.8421 7.2345 6.73706 7.23431 6.632 7.23394C6.60143 7.23429 6.57087 7.23464 6.53938 7.235C6.28599 7.23272 6.04389 7.18233 5.84534 7.01758C5.82408 6.99116 5.80281 6.96473 5.78089 6.93751C5.75833 6.91237 5.73577 6.88723 5.71253 6.86133C5.60705 6.7122 5.58553 6.56844 5.58431 6.38859C5.58391 6.34842 5.58352 6.30825 5.5831 6.26687C5.58301 6.22336 5.58294 6.17986 5.58289 6.13636C5.58269 6.09121 5.58248 6.04606 5.58226 6.00091C5.58189 5.90637 5.58177 5.81184 5.58181 5.7173C5.58182 5.59703 5.58097 5.47679 5.57989 5.35652C5.57919 5.26325 5.57907 5.16997 5.5791 5.07669C5.57903 5.03241 5.57875 4.98812 5.57827 4.94384C5.57393 4.50957 5.6694 4.16169 5.96839 3.83875C6.39924 3.42713 6.85754 3.38914 7.39112 3.58887ZM6.29786 4.3346C6.14025 4.56883 6.1417 4.77525 6.14234 5.05213C6.14218 5.09314 6.14201 5.13415 6.14185 5.17641C6.14157 5.26285 6.14164 5.34928 6.14195 5.43573C6.14231 5.54638 6.14168 5.65701 6.14077 5.76766C6.14006 5.87355 6.14027 5.97944 6.14039 6.08533C6.14004 6.12501 6.13969 6.1647 6.13932 6.20558C6.13962 6.2424 6.13991 6.27923 6.14021 6.31717C6.14022 6.34954 6.14022 6.38191 6.14023 6.41526C6.1599 6.52168 6.19797 6.5578 6.28089 6.62501C6.3534 6.66126 6.3951 6.66026 6.47582 6.66043C6.51749 6.66063 6.51749 6.66063 6.55999 6.66084C6.59055 6.66082 6.6211 6.66081 6.65258 6.66079C6.70076 6.66095 6.70076 6.66095 6.7499 6.66111C6.85651 6.66141 6.96311 6.66147 7.06971 6.6615C7.14359 6.6616 7.21747 6.66171 7.29134 6.66182C7.44639 6.66201 7.60144 6.66206 7.75649 6.66205C7.95539 6.66204 8.15428 6.66247 8.35317 6.66301C8.50582 6.66335 8.65847 6.66342 8.81111 6.6634C8.88445 6.66344 8.95779 6.66358 9.03112 6.66382C9.13362 6.66412 9.23612 6.66403 9.33862 6.66385C9.36904 6.66402 9.39947 6.6642 9.43082 6.66438C9.47275 6.66418 9.47275 6.66418 9.51553 6.66398C9.53976 6.664 9.56399 6.66402 9.58895 6.66403C9.66653 6.65502 9.71507 6.63559 9.78089 6.59376C9.85196 6.48715 9.85167 6.44757 9.85297 6.3222C9.85347 6.28568 9.85397 6.24916 9.85448 6.21153C9.85473 6.1522 9.85473 6.1522 9.85499 6.09168C9.85527 6.05094 9.85555 6.01019 9.85584 5.96821C9.85636 5.88181 9.8566 5.79541 9.85669 5.70901C9.85686 5.59907 9.85803 5.48916 9.85946 5.37922C9.86063 5.27361 9.86066 5.168 9.86085 5.06238C9.86146 5.02328 9.86207 4.98417 9.8627 4.94388C9.86126 4.66274 9.80631 4.45334 9.62269 4.23633C9.43263 4.08306 9.31249 4.01897 9.06214 4.03126C8.98091 4.05416 8.90454 4.07818 8.82581 4.10743C8.2617 4.3123 7.56406 4.28636 7.00867 4.05909C6.71243 3.94382 6.48335 4.12091 6.29786 4.3346Z" fill="#4F4F4F"/>
<path d="M4.71696 1.6125C4.78316 1.63928 4.8477 1.66839 4.91231 1.6988C4.93599 1.7096 4.95966 1.7204 4.98405 1.73153C5.0338 1.75435 5.08346 1.77737 5.13303 1.80058C5.2087 1.83595 5.28468 1.87056 5.36074 1.9051C5.4092 1.92743 5.45764 1.94981 5.50606 1.97224C5.52866 1.98253 5.55125 1.99282 5.57453 2.00342C5.80268 2.11114 5.80268 2.11114 5.87484 2.21882C5.89685 2.40485 5.86129 2.53238 5.7756 2.69855C5.76541 2.71926 5.75523 2.73996 5.74474 2.76129C5.71239 2.8268 5.67938 2.89194 5.64632 2.9571C5.62449 3.00102 5.6027 3.04497 5.58096 3.08894C5.52321 3.20542 5.46471 3.32152 5.40609 3.43757C5.38973 3.4715 5.37336 3.50544 5.35651 3.5404C5.30207 3.64476 5.25932 3.69272 5.15609 3.75007C5.04405 3.75708 4.94403 3.74085 4.84554 3.68366C4.79306 3.59105 4.77396 3.51124 4.78109 3.40632C4.81506 3.28836 4.85845 3.17563 4.90609 3.06257C4.53315 3.30143 4.1992 3.57357 3.87484 3.87507C3.84366 3.90371 3.84366 3.90371 3.81185 3.93293C2.83557 4.86556 2.23921 6.31115 2.18014 7.64826C2.179 7.67361 2.17786 7.69896 2.17669 7.72507C2.17473 7.77427 2.17322 7.82349 2.17223 7.87272C2.16736 8.01368 2.15024 8.10703 2.06234 8.21882C1.95334 8.29149 1.90917 8.29177 1.78109 8.28132C1.67663 8.2436 1.65774 8.2213 1.59359 8.12507C1.57979 8.02867 1.58322 7.93134 1.58382 7.83405C1.58398 7.80495 1.58413 7.77584 1.58429 7.74586C1.61182 6.05925 2.38482 4.50264 3.57308 3.33393C3.93991 2.98042 4.34481 2.69816 4.78109 2.43757C4.81203 2.41694 4.84296 2.39632 4.87484 2.37507C4.85144 2.36376 4.85144 2.36376 4.82756 2.35223C4.75643 2.31745 4.68576 2.28182 4.61507 2.24616C4.59052 2.23432 4.56597 2.22248 4.54067 2.21027C4.42201 2.14968 4.35459 2.11009 4.27865 1.99775C4.23932 1.87295 4.26082 1.80629 4.31234 1.68757C4.41977 1.56423 4.56532 1.56596 4.71696 1.6125Z" fill="#4F4F4F"/>
<path d="M10.7962 2.20439C10.8571 2.23612 10.9178 2.26828 10.9782 2.30082C11.0101 2.31776 11.0419 2.3347 11.0747 2.35215C11.6158 2.64328 12.0873 3.01463 12.531 3.43754C12.5537 3.45901 12.5765 3.48049 12.5999 3.50261C13.6576 4.52686 14.1545 5.89688 14.406 7.31254C14.4394 7.27641 14.4394 7.27641 14.4735 7.23955C14.5037 7.20787 14.5339 7.17621 14.5642 7.14457C14.5787 7.1287 14.5933 7.11283 14.6083 7.09648C14.7177 6.9833 14.809 6.93393 14.9685 6.90629C15.0708 6.94105 15.1321 6.97105 15.2009 7.05473C15.2286 7.16579 15.2186 7.23287 15.1872 7.34379C15.0341 7.55388 14.8333 7.73466 14.6501 7.91801C14.6223 7.94617 14.5945 7.97433 14.5659 8.00334C14.5391 8.03021 14.5123 8.05708 14.4847 8.08476C14.4606 8.10903 14.4364 8.13329 14.4116 8.15829C14.3215 8.23832 14.25 8.27483 14.1325 8.29887C13.8719 8.25377 13.6533 7.93979 13.4701 7.75574C13.423 7.70846 13.3757 7.66134 13.3284 7.61424C13.2983 7.58412 13.2682 7.55399 13.2381 7.52385C13.2111 7.49676 13.184 7.46968 13.1561 7.44178C13.0759 7.35631 13.0639 7.32704 13.0505 7.20903C13.0622 7.09379 13.0622 7.09379 13.1325 7.00395C13.2589 6.90629 13.2589 6.90629 13.3435 6.90629C13.5252 6.9635 13.6222 7.04759 13.7497 7.18754C13.6549 5.85789 12.8819 4.53892 11.906 3.65629C11.7641 3.53656 11.6171 3.42367 11.4685 3.31254C11.4414 3.29224 11.4143 3.27194 11.3864 3.25102C11.1307 3.06596 10.8543 2.91388 10.5745 2.76872C10.5504 2.75617 10.5263 2.74361 10.5014 2.73068C10.4542 2.70624 10.4069 2.68203 10.3594 2.65808C10.253 2.60322 10.1923 2.57017 10.1247 2.46879C10.1102 2.3384 10.1107 2.27232 10.1813 2.1602C10.3628 1.98391 10.5985 2.10716 10.7962 2.20439Z" fill="#4F4F4F"/>
<path d="M8.92957 0.263695C9.2826 0.50843 9.51919 0.881132 9.60352 1.30276C9.67201 1.7704 9.56665 2.22449 9.28699 2.6094C9.00478 2.9469 8.62486 3.16668 8.1875 3.21877C7.70758 3.25635 7.28391 3.12959 6.91406 2.82034C6.55673 2.4841 6.40468 2.08091 6.36523 1.59963C6.3808 1.17601 6.53699 0.737314 6.84375 0.437523C7.46191 -0.0801978 8.23887 -0.16638 8.92957 0.263695ZM7.46875 0.687523C7.44893 0.698117 7.42911 0.708712 7.40869 0.719627C7.21202 0.841891 7.0817 1.0439 6.98828 1.25198C6.9165 1.58932 6.93492 1.89011 7.125 2.18752C7.29216 2.43476 7.52353 2.58378 7.81641 2.64565C8.15582 2.68332 8.41348 2.61042 8.6875 2.40627C8.91544 2.20356 9.04203 1.93841 9.06348 1.63381C9.05948 1.34221 8.95864 1.09802 8.76562 0.880882C8.73984 0.858324 8.71406 0.835765 8.6875 0.812523C8.66494 0.791253 8.64238 0.769984 8.61914 0.74807C8.2667 0.505276 7.84575 0.482071 7.46875 0.687523Z" fill="#4F4F4F"/>
<path d="M14.6157 9.12736C14.9364 9.402 15.1653 9.7632 15.2189 10.1875C15.2535 10.659 15.139 11.1121 14.8322 11.4805C14.566 11.7605 14.1902 11.9973 13.7951 12.0075C13.2516 12.0187 12.8405 11.9209 12.4298 11.5411C12.1256 11.2181 11.9814 10.8313 11.9865 10.3926C11.9867 10.3639 11.9869 10.3352 11.9871 10.3055C11.9922 10.0898 12.0238 9.91148 12.1251 9.71879C12.1372 9.69397 12.1492 9.66916 12.1616 9.64359C12.3738 9.23156 12.733 8.96055 13.1731 8.81815C13.6894 8.69895 14.1969 8.8055 14.6157 9.12736ZM12.8204 9.6829C12.7711 9.74479 12.7288 9.80747 12.6876 9.87504C12.6747 9.8955 12.6618 9.91596 12.6484 9.93705C12.5171 10.1805 12.5234 10.465 12.588 10.7287C12.6982 11.0283 12.8882 11.2384 13.1759 11.377C13.4351 11.4723 13.7361 11.4931 13.9962 11.3887C14.0619 11.3543 14.0619 11.3543 14.1251 11.3125C14.1612 11.2898 14.1612 11.2898 14.198 11.2665C14.4204 11.1105 14.5663 10.9077 14.6388 10.6446C14.6939 10.3146 14.6239 10.0265 14.4376 9.75004C14.2329 9.51501 14 9.38396 13.6915 9.34574C13.3565 9.32871 13.0528 9.43704 12.8204 9.6829Z" fill="#4F4F4F"/>
<path d="M3.41602 9.11449C3.70476 9.35493 3.9505 9.71498 3.99976 10.0937C4.03621 10.6465 3.95773 11.0673 3.59949 11.5068C3.33016 11.798 2.95476 11.9929 2.55652 12.0135C2.5018 12.0143 2.44706 12.0143 2.39234 12.0137C2.3636 12.0134 2.33487 12.0132 2.30527 12.013C2.08957 12.0079 1.9112 11.9763 1.71851 11.875C1.69369 11.8629 1.66888 11.8509 1.64331 11.8385C1.23128 11.6263 0.960268 11.2671 0.817874 10.827C0.716027 10.3859 0.77825 9.94221 1.00623 9.55211C1.25777 9.17782 1.6013 8.91964 2.03882 8.80468C2.52682 8.71047 3.01318 8.82559 3.41602 9.11449ZM1.59741 9.71288C1.40684 9.95064 1.33414 10.1952 1.34351 10.5C1.38466 10.7932 1.5108 11.0428 1.7439 11.2285C1.78686 11.2575 1.8305 11.2855 1.87476 11.3125C1.89522 11.3254 1.91569 11.3383 1.93677 11.3517C2.18024 11.483 2.46469 11.4767 2.7284 11.4121C3.02802 11.3019 3.23808 11.1119 3.37671 10.8242C3.47205 10.565 3.49283 10.264 3.38843 10.0039C3.35399 9.93824 3.35399 9.93824 3.31226 9.87499C3.29707 9.85094 3.28188 9.82689 3.26624 9.80211C3.10738 9.57566 2.90269 9.42921 2.63257 9.36327C2.2334 9.29488 1.87551 9.41517 1.59741 9.71288Z" fill="#4F4F4F"/>
<path d="M6.78113 13.0624C6.87457 13.1247 6.92419 13.1688 6.95337 13.2792C6.96157 13.3755 6.95831 13.4407 6.89941 13.5195C6.80286 13.606 6.75597 13.6249 6.62488 13.6249C6.62488 13.6456 6.62488 13.6662 6.62488 13.6874C6.66456 13.6916 6.70424 13.6957 6.74512 13.7C6.85129 13.7118 6.9567 13.7259 7.06226 13.7423C8.11894 13.9026 9.16924 13.8044 10.1689 13.416C10.3083 13.365 10.385 13.3579 10.5311 13.3749C10.6356 13.4419 10.6527 13.4875 10.6854 13.6074C10.6877 13.7356 10.6698 13.7741 10.5936 13.8749C10.1044 14.182 9.40856 14.2998 8.84363 14.3749C8.82169 14.3779 8.79975 14.3808 8.77715 14.3838C8.5285 14.413 8.27918 14.4125 8.02918 14.4121C8.00615 14.412 7.98312 14.412 7.95939 14.412C7.35928 14.4103 6.80379 14.3168 6.21863 14.1874C6.23216 14.212 6.2457 14.2365 6.25964 14.2618C6.44446 14.6105 6.44446 14.6105 6.40613 14.7812C6.34389 14.8726 6.29834 14.9246 6.18933 14.9536C6.07035 14.9635 6.07035 14.9635 5.99988 14.9374C5.84358 14.7835 5.75451 14.5924 5.65613 14.3984C5.64026 14.3676 5.62438 14.3368 5.60803 14.305C5.57655 14.2437 5.54525 14.1823 5.51415 14.1209C5.48392 14.0613 5.45329 14.002 5.42226 13.9429C5.40799 13.9154 5.39373 13.8879 5.37903 13.8596C5.36626 13.8353 5.3535 13.811 5.34035 13.786C5.29573 13.6787 5.30486 13.6076 5.34363 13.4999C5.47141 13.3724 5.61049 13.3305 5.77918 13.2812C5.80541 13.2733 5.83165 13.2654 5.85868 13.2572C5.91182 13.2412 5.96501 13.2254 6.01825 13.2098C6.08607 13.1897 6.15359 13.1689 6.22107 13.1477C6.59829 13.0325 6.59829 13.0325 6.78113 13.0624Z" fill="#4F4F4F"/>
</g>
<defs>
<clipPath id="clip0_8297_5534">
<rect width="16" height="16" fill="white"/>
</clipPath>
</defs>
</svg>
