<svg width="20" height="21" viewBox="0 0 20 21" fill="none" xmlns="http://www.w3.org/2000/svg">
<g id="quill:chat">
<g id="Group">
<path id="Vector" d="M15.625 3.50647H4.375C3.71196 3.50647 3.07607 3.76986 2.60723 4.2387C2.13839 4.70754 1.875 5.34343 1.875 6.00647V12.2565C1.875 12.9195 2.13839 13.5554 2.60723 14.0242C3.07607 14.4931 3.71196 14.7565 4.375 14.7565H11.25L15 17.2565V14.7565H15.625C16.288 14.7565 16.9239 14.4931 17.3928 14.0242C17.8616 13.5554 18.125 12.9195 18.125 12.2565V6.00647C18.125 5.34343 17.8616 4.70754 17.3928 4.2387C16.9239 3.76986 16.288 3.50647 15.625 3.50647Z" stroke="#68696E" stroke-width="1.4" stroke-linecap="round" stroke-linejoin="round"/>
<path id="Vector_2" d="M6.25 9.75647C6.25 9.92223 6.18415 10.0812 6.06694 10.1984C5.94973 10.3156 5.79076 10.3815 5.625 10.3815C5.45924 10.3815 5.30027 10.3156 5.18306 10.1984C5.06585 10.0812 5 9.92223 5 9.75647C5 9.59071 5.06585 9.43174 5.18306 9.31453C5.30027 9.19732 5.45924 9.13147 5.625 9.13147C5.79076 9.13147 5.94973 9.19732 6.06694 9.31453C6.18415 9.43174 6.25 9.59071 6.25 9.75647ZM10 9.75647C10 9.92223 9.93415 10.0812 9.81694 10.1984C9.69973 10.3156 9.54076 10.3815 9.375 10.3815C9.20924 10.3815 9.05027 10.3156 8.93306 10.1984C8.81585 10.0812 8.75 9.92223 8.75 9.75647C8.75 9.59071 8.81585 9.43174 8.93306 9.31453C9.05027 9.19732 9.20924 9.13147 9.375 9.13147C9.54076 9.13147 9.69973 9.19732 9.81694 9.31453C9.93415 9.43174 10 9.59071 10 9.75647ZM13.75 9.75647C13.75 9.92223 13.6842 10.0812 13.5669 10.1984C13.4497 10.3156 13.2908 10.3815 13.125 10.3815C12.9592 10.3815 12.8003 10.3156 12.6831 10.1984C12.5658 10.0812 12.5 9.92223 12.5 9.75647C12.5 9.59071 12.5658 9.43174 12.6831 9.31453C12.8003 9.19732 12.9592 9.13147 13.125 9.13147C13.2908 9.13147 13.4497 9.19732 13.5669 9.31453C13.6842 9.43174 13.75 9.59071 13.75 9.75647Z" stroke="#68696E" stroke-width="1.4" stroke-linecap="round" stroke-linejoin="round"/>
</g>
</g>
</svg>
