<svg width="56" height="50" viewBox="0 0 56 50" fill="none" xmlns="http://www.w3.org/2000/svg">
<path id="Vector" d="M30.7778 2.78522e-07C32.1794 -0.000443276 33.5294 0.528907 34.5571 1.48194C35.5848 2.43497 36.2143 3.74124 36.3195 5.13889L36.3333 5.55556V16.6667H44.6667C46.0683 16.6662 47.4183 17.1956 48.446 18.1486C49.4737 19.1016 50.1032 20.4079 50.2083 21.8056L50.2222 22.2222V44.4444H53C53.708 44.4452 54.389 44.7163 54.9038 45.2024C55.4186 45.6884 55.7284 46.3526 55.7699 47.0594C55.8114 47.7662 55.5815 48.4622 55.1271 49.0051C54.6726 49.548 54.0281 49.8969 53.325 49.9806L53 50H3.00001C2.29201 49.9992 1.61103 49.7281 1.09621 49.2421C0.581388 48.7561 0.271581 48.0918 0.230089 47.385C0.188597 46.6782 0.418552 45.9823 0.87297 45.4394C1.32739 44.8964 1.97197 44.5475 2.67501 44.4639L3.00001 44.4444H5.77779V5.55556C5.77735 4.15395 6.3067 2.80398 7.25972 1.77626C8.21275 0.74853 9.51902 0.119009 10.9167 0.0138895L11.3333 2.78522e-07H30.7778ZM44.6667 22.2222H36.3333V44.4444H44.6667V22.2222ZM30.7778 5.55556H11.3333V44.4444H30.7778V5.55556ZM25.2222 33.3333V38.8889H16.8889V33.3333H25.2222ZM25.2222 22.2222V27.7778H16.8889V22.2222H25.2222ZM25.2222 11.1111V16.6667H16.8889V11.1111H25.2222Z" fill="#4F4F4F"/>
</svg>
