<svg width="20" height="20" viewBox="0 0 20 20" fill="none" xmlns="http://www.w3.org/2000/svg">
<g clip-path="url(#clip0_8314_10708)">
<path d="M9.96369 -0.0123118C10.0025 -0.0122276 10.0412 -0.0121435 10.0812 -0.0120567C12.4179 -0.00391917 12.4179 -0.00391918 13.1238 0.526171C13.2656 0.685635 13.3206 0.82101 13.3298 1.0352C13.3096 1.25034 13.2178 1.3956 13.0618 1.54042C12.8444 1.68345 12.6273 1.67371 12.3739 1.62307C12.2742 1.59983 12.1748 1.57531 12.0755 1.55019C9.79826 0.97753 7.42878 1.39632 5.42031 2.5912C4.87076 2.93133 4.37309 3.3434 3.90656 3.78896C3.8704 3.82305 3.83425 3.85714 3.797 3.89226C3.51739 4.16276 3.27981 4.45453 3.04718 4.76552C3.03052 4.78742 3.01385 4.80932 2.99668 4.83188C2.71331 5.20516 2.48157 5.59981 2.26593 6.01552C2.25067 6.04477 2.23541 6.07402 2.21968 6.10415C1.60005 7.30676 1.31065 8.62545 1.31379 9.97304C1.31384 10.0271 1.31384 10.0271 1.31389 10.0823C1.32106 12.3816 2.24588 14.4829 3.82843 16.1327C3.859 16.1649 3.88956 16.1971 3.92105 16.2302C4.52156 16.8478 5.25188 17.343 6.01593 17.7343C6.04496 17.7494 6.07398 17.7645 6.10388 17.78C8.13743 18.8282 10.5319 18.9662 12.7003 18.2791C14.0084 17.8483 15.1442 17.1204 16.1331 16.1718C16.1653 16.1412 16.1975 16.1106 16.2306 16.0791C16.4516 15.8643 16.6472 15.6337 16.8362 15.3905C16.8529 15.3693 16.8695 15.348 16.8866 15.3262C18.0723 13.7998 18.6909 11.9312 18.6868 10.0048C18.6868 9.96985 18.6868 9.93492 18.6868 9.89893C18.6854 9.13129 18.5867 8.41215 18.3896 7.67003C18.3329 7.42165 18.3129 7.20813 18.4232 6.97499C18.5999 6.78435 18.7561 6.69299 19.0146 6.67607C19.2171 6.68422 19.3586 6.76706 19.493 6.91228C19.6374 7.08653 19.6829 7.27002 19.7318 7.48769C19.7461 7.54961 19.7461 7.54961 19.7607 7.61279C19.79 7.74416 19.8173 7.87579 19.8441 8.00771C19.8524 8.04783 19.8608 8.08796 19.8695 8.1293C20.1021 9.29024 20.1209 10.6353 19.8831 11.7968C19.8756 11.8357 19.868 11.8746 19.8602 11.9147C19.5431 13.5198 18.8646 14.9688 17.8519 16.2499C17.8201 16.2904 17.7884 16.331 17.7557 16.3727C17.261 16.9806 16.6926 17.5508 16.055 18.0077C16.0024 18.0464 15.9499 18.085 15.8974 18.1237C14.6745 19.0143 13.2855 19.6088 11.7972 19.8827C11.7659 19.889 11.7346 19.8953 11.7024 19.9017C10.606 20.1162 9.29711 20.1073 8.20343 19.8827C8.16388 19.8749 8.12433 19.8672 8.08358 19.8592C6.4784 19.5382 5.03561 18.8569 3.75031 17.8515C3.72925 17.8351 3.70819 17.8187 3.68649 17.8018C3.07498 17.3213 2.49574 16.7499 2.03974 16.1192C1.99039 16.0517 1.93939 15.9858 1.88797 15.9198C1.58038 15.5208 1.33087 15.0924 1.09406 14.6483C1.06814 14.5999 1.06814 14.5999 1.0417 14.5504C0.591831 13.6948 0.292182 12.746 0.117497 11.7968C0.108075 11.7499 0.108075 11.7499 0.0984617 11.702C-0.116075 10.6052 -0.106486 9.29717 0.117497 8.20302C0.128827 8.14463 0.128827 8.14463 0.140385 8.08505C0.43838 6.57691 1.05216 5.16467 1.9925 3.94521C2.01762 3.91258 2.04275 3.87995 2.06864 3.84633C2.61953 3.145 3.25836 2.47358 3.98468 1.95302C4.00585 1.93771 4.02701 1.9224 4.04881 1.90663C4.86992 1.31477 5.75913 0.831447 6.71906 0.507708C6.76681 0.491572 6.76681 0.491572 6.81553 0.475111C7.19721 0.348624 7.58321 0.249706 7.97638 0.165911C8.0125 0.158147 8.04862 0.150383 8.08584 0.142384C8.71149 0.0152687 9.32691 -0.0148012 9.96369 -0.0123118Z" fill="#4F4F4F"/>
<path d="M12.1224 3.47409C12.2638 3.61957 12.3002 3.73584 12.3201 3.93795C12.3146 4.12156 12.2552 4.26508 12.1492 4.41403C11.969 4.57747 11.7985 4.60453 11.5633 4.60934C11.4299 4.59412 11.3009 4.56629 11.1702 4.5361C9.75115 4.22267 8.25114 4.48239 7.0189 5.25723C6.22387 5.77259 5.57945 6.43626 5.11796 7.26559C5.10488 7.28897 5.0918 7.31236 5.07832 7.33645C4.37954 8.60312 4.22487 10.1215 4.61016 11.5117C4.849 12.3244 5.22189 13.0331 5.78202 13.6718C5.80916 13.7042 5.8363 13.7365 5.86426 13.7698C6.78347 14.838 8.17821 15.4708 9.57108 15.5859C11.199 15.6696 12.6822 15.1258 13.8883 14.0382C14.9352 13.0634 15.5376 11.6359 15.5978 10.2165C15.6112 9.66883 15.551 9.13526 15.4263 8.60211C15.3787 8.39121 15.374 8.20681 15.4672 8.00717C15.5789 7.83174 15.6963 7.75374 15.8992 7.69528C16.1079 7.66656 16.2694 7.69465 16.4461 7.81246C16.8551 8.16307 16.8748 8.98924 16.9148 9.49215C17.0203 11.4278 16.3977 13.2368 15.1099 14.6846C15.0736 14.7247 15.0372 14.7647 15.0008 14.8047C14.9716 14.8366 14.9425 14.8686 14.9124 14.9015C13.7503 16.1152 12.0283 16.8528 10.3583 16.9184C8.39235 16.9572 6.65342 16.3302 5.19608 15C5.16411 14.9708 5.13213 14.9417 5.09919 14.9116C3.8643 13.7292 3.12369 11.976 3.07877 10.2777C3.05492 8.33901 3.69203 6.62906 5.00077 5.19528C5.02992 5.1633 5.05908 5.13133 5.08912 5.09838C6.48134 3.6444 10.2656 1.9963 12.1224 3.47409Z" fill="#4F4F4F"/>
<path d="M16.6009 -1.76882e-05C16.7957 0.0904213 16.8857 0.206561 16.9916 0.390607C17.0131 0.492032 17.0258 0.581157 17.0331 0.683576C17.0357 0.713694 17.0384 0.743812 17.0411 0.774843C17.0474 0.847961 17.0533 0.921113 17.059 0.994283C17.0696 1.13143 17.0808 1.26852 17.0922 1.40561C17.1168 1.70351 17.1408 2.00146 17.164 2.29948C17.1663 2.32859 17.1686 2.3577 17.171 2.38769C17.1819 2.52963 17.1895 2.67011 17.1869 2.81248C17.2171 2.81444 17.2472 2.8164 17.2783 2.81841C17.6119 2.84013 17.9454 2.86241 18.2788 2.88517C18.3555 2.89039 18.4322 2.89555 18.5089 2.90072C18.646 2.91006 18.7832 2.9198 18.9203 2.92967C18.9615 2.93243 19.0027 2.9352 19.0451 2.93804C19.3902 2.96359 19.6688 2.98969 19.9212 3.24217C20.0026 3.37033 20.0121 3.47738 20.014 3.62791C20.0151 3.66729 20.0162 3.70667 20.0174 3.74724C19.9801 3.99549 19.7898 4.16649 19.6182 4.33786C19.5961 4.36018 19.574 4.38251 19.5513 4.40551C19.4788 4.4787 19.4061 4.5516 19.3333 4.62446C19.2825 4.67551 19.2317 4.72657 19.1809 4.77763C19.0747 4.88438 18.9682 4.99097 18.8617 5.09746C18.7255 5.23366 18.5898 5.37039 18.4543 5.50727C18.3496 5.6128 18.2446 5.71797 18.1395 5.82304C18.0893 5.8733 18.0393 5.92368 17.9894 5.97419C17.9195 6.04487 17.8491 6.11503 17.7786 6.18509C17.7582 6.20585 17.7379 6.22661 17.717 6.248C17.4937 6.46754 17.2625 6.5375 16.9574 6.56417C16.9132 6.56858 16.9132 6.56858 16.8681 6.57308C16.7717 6.58262 16.6752 6.59154 16.5787 6.60048C16.5112 6.60708 16.4437 6.61373 16.3763 6.62043C16.1993 6.63792 16.0223 6.65492 15.8452 6.67178C15.5615 6.69879 15.2779 6.72627 14.9944 6.75426C14.8955 6.76391 14.7967 6.77318 14.6978 6.78243C14.6371 6.78835 14.5764 6.79428 14.5156 6.80022C14.4883 6.80268 14.4609 6.80514 14.4327 6.80767C14.1897 6.83213 14.0351 6.88681 13.8625 7.06083C13.8318 7.09139 13.8012 7.12195 13.7697 7.15344C13.7367 7.18701 13.7037 7.22057 13.6696 7.25516C13.6344 7.29047 13.5992 7.32579 13.5629 7.36218C13.4865 7.43885 13.4103 7.5157 13.3342 7.5927C13.2138 7.71446 13.093 7.83578 12.9722 7.95706C12.7375 8.19261 12.5034 8.42861 12.2692 8.66464C11.9711 8.96514 11.6728 9.26542 11.3741 9.56534C11.254 9.68593 11.1342 9.80673 11.0145 9.92769C10.9579 9.98477 10.9013 10.0418 10.8446 10.0987C10.7755 10.1682 10.7066 10.2377 10.6378 10.3075C10.5921 10.3533 10.5921 10.3533 10.5454 10.4001C10.519 10.4267 10.4926 10.4533 10.4654 10.4807C10.2819 10.6416 10.1157 10.6418 9.87883 10.6372C9.67174 10.615 9.57594 10.5164 9.43785 10.3711C9.34612 10.1735 9.33644 9.97979 9.37437 9.76561C9.50358 9.53575 9.68889 9.36572 9.87701 9.18341C9.94943 9.11253 10.0218 9.04166 10.0942 8.97078C10.1329 8.93306 10.1716 8.89534 10.2103 8.85762C10.3305 8.74035 10.4502 8.62257 10.5698 8.50466C10.59 8.4847 10.6102 8.46474 10.6311 8.44417C10.6725 8.40337 10.7139 8.36257 10.7552 8.32177C11.0333 8.04755 11.3118 7.77368 11.5916 7.50128C11.7808 7.31715 11.9691 7.13219 12.1565 6.94624C12.2555 6.84808 12.3549 6.75038 12.4553 6.65369C12.5676 6.54564 12.6778 6.4358 12.7881 6.32574C12.8212 6.29447 12.8542 6.2632 12.8883 6.23099C13.1411 5.97375 13.1814 5.74418 13.2025 5.39061C13.2085 5.33565 13.2148 5.28072 13.2215 5.22584C13.2258 5.18069 13.2301 5.13554 13.2346 5.08903C13.2383 5.0507 13.2383 5.0507 13.2422 5.01161C13.2474 4.95748 13.2526 4.90335 13.2578 4.84922C13.2661 4.76326 13.2745 4.67734 13.283 4.59141C13.3072 4.34758 13.3312 4.10373 13.3546 3.85982C13.369 3.70946 13.3838 3.55915 13.3989 3.40886C13.4045 3.35209 13.41 3.29529 13.4153 3.23848C13.4227 3.15913 13.4307 3.07984 13.4388 3.00056C13.4431 2.95563 13.4475 2.91069 13.452 2.8644C13.5041 2.58136 13.6233 2.40768 13.8227 2.21238C13.8457 2.18923 13.8687 2.16607 13.8924 2.14222C13.968 2.06633 14.0441 1.99102 14.1203 1.91572C14.1732 1.86291 14.2261 1.81006 14.279 1.75719C14.3895 1.64673 14.5004 1.53653 14.6114 1.42654C14.7537 1.28556 14.8955 1.14407 15.0371 1.0024C15.1462 0.893364 15.2554 0.784535 15.3648 0.675775C15.4171 0.623663 15.4694 0.571504 15.5217 0.519297C15.5947 0.446457 15.668 0.373879 15.7413 0.301372C15.7629 0.279801 15.7844 0.258231 15.8066 0.236007C16.0577 -0.0109302 16.2547 -0.0371517 16.6009 -1.76882e-05ZM15.7806 2.10936C15.2687 2.47227 14.7598 2.87706 14.6322 3.51944C14.5318 4.16409 14.5288 4.81784 14.5306 5.46873C16.0514 5.53391 16.0514 5.53391 17.3463 4.88246C17.5429 4.67284 17.7238 4.45316 17.89 4.21873C17.7775 4.10625 17.6576 4.12141 17.5062 4.11284C17.4436 4.10848 17.3811 4.10411 17.3185 4.09971C17.2199 4.09321 17.1214 4.08692 17.0228 4.08098C16.9275 4.07511 16.8324 4.06838 16.7372 4.06157C16.7081 4.06006 16.679 4.05854 16.649 4.05699C16.4483 4.042 16.2882 3.99918 16.1322 3.86717C15.9781 3.68503 15.9498 3.49383 15.9378 3.26216C15.9356 3.23152 15.9334 3.20088 15.9311 3.16931C15.9243 3.07237 15.9183 2.97541 15.9125 2.8784C15.9062 2.78071 15.8998 2.68305 15.8929 2.5854C15.8887 2.52487 15.8849 2.46431 15.8815 2.40373C15.875 2.23875 15.875 2.23875 15.7806 2.10936Z" fill="#4F4F4F"/>
<path d="M10.0064 6.23289C10.075 6.2323 10.075 6.2323 10.145 6.23169C10.4048 6.23436 10.6067 6.24158 10.8055 6.42714C10.9838 6.66027 11.0053 6.81747 10.9756 7.10936C10.8903 7.28324 10.7827 7.39017 10.6241 7.49998C10.4931 7.54363 10.4004 7.54022 10.2627 7.5366C9.45663 7.53412 8.81609 7.72403 8.22919 8.29008C7.67425 8.88384 7.5435 9.5399 7.57001 10.3261C7.58515 10.5447 7.64624 10.7365 7.73343 10.9375C7.75465 10.9888 7.75465 10.9888 7.77631 11.0411C8.04583 11.634 8.54529 12.0694 9.14212 12.3144C9.807 12.5376 10.5112 12.4924 11.1411 12.1853C11.7487 11.8603 12.1556 11.3287 12.3579 10.6796C12.4227 10.4528 12.4531 10.2258 12.4675 9.99059C12.4863 9.74698 12.5785 9.60417 12.753 9.43846C12.9547 9.34478 13.1397 9.34554 13.3584 9.37498C13.5524 9.46505 13.6474 9.57946 13.7491 9.76561C13.7715 9.88746 13.7713 10.0058 13.7686 10.1294C13.7681 10.1638 13.7676 10.1981 13.7671 10.2336C13.7353 11.2816 13.2193 12.1664 12.4698 12.876C11.6337 13.6075 10.6539 13.8067 9.57753 13.7587C8.56905 13.6886 7.68939 13.1179 7.03656 12.3718C6.33565 11.4896 6.13783 10.4489 6.26067 9.34912C6.40813 8.39249 6.9854 7.54745 7.73343 6.95311C8.43517 6.46026 9.15838 6.23821 10.0064 6.23289Z" fill="#4F4F4F"/>
</g>
<defs>
<clipPath id="clip0_8314_10708">
<rect width="20" height="20" fill="white"/>
</clipPath>
</defs>
</svg>
