<svg width="16" height="16" viewBox="0 0 16 16" fill="none" xmlns="http://www.w3.org/2000/svg">
<path d="M11.0764 8.54592C11.1505 8.54584 11.2246 8.54572 11.2987 8.54556C11.4535 8.54538 11.6082 8.54564 11.763 8.54623C11.9604 8.54694 12.1578 8.54653 12.3553 8.54578C12.5081 8.54533 12.661 8.54547 12.8139 8.5458C12.8866 8.54588 12.9594 8.54578 13.0321 8.54549C13.5961 8.54371 14.0433 8.56804 14.4758 8.97085C14.7912 9.29979 14.885 9.69422 14.8838 10.1373C14.8839 10.1685 14.8841 10.1997 14.8843 10.2318C14.8847 10.3342 14.8847 10.4365 14.8846 10.5388C14.8847 10.6105 14.8849 10.6821 14.885 10.7538C14.8852 10.9036 14.8852 11.0535 14.8851 11.2034C14.8849 11.3948 14.8854 11.5862 14.8861 11.7776C14.8866 11.9255 14.8866 12.0734 14.8865 12.2213C14.8865 12.2918 14.8867 12.3624 14.887 12.4329C14.8874 12.5318 14.8872 12.6307 14.8868 12.7296C14.8871 12.7583 14.8873 12.787 14.8876 12.8166C14.8844 13.214 14.7572 13.5871 14.4865 13.8809C14.0082 14.3322 13.4397 14.3222 12.8205 14.3208C12.7547 14.3209 12.6889 14.3209 12.623 14.321C12.4856 14.3211 12.3482 14.321 12.2108 14.3207C12.0355 14.3203 11.8603 14.3205 11.685 14.3209C11.5493 14.3211 11.4135 14.321 11.2777 14.3209C11.2131 14.3208 11.1486 14.3209 11.084 14.321C10.4958 14.3221 9.96942 14.3077 9.51583 13.8848C9.20942 13.5532 9.11544 13.1772 9.11662 12.7382C9.11646 12.7071 9.1163 12.6759 9.11614 12.6438C9.11571 12.5417 9.11573 12.4395 9.11581 12.3373C9.11568 12.2657 9.11555 12.1942 9.1154 12.1226C9.11517 11.9729 9.11518 11.8231 9.11534 11.6734C9.11552 11.4822 9.11499 11.2911 9.11427 11.1C9.11381 10.9522 9.11378 10.8045 9.11388 10.6567C9.11386 10.5863 9.1137 10.5159 9.11338 10.4455C9.11098 9.83515 9.14786 9.37632 9.58431 8.91335C9.99752 8.51483 10.5405 8.54376 11.0764 8.54592ZM10.3127 9.87502C10.306 9.97212 10.3032 10.0665 10.3031 10.1636C10.3029 10.1936 10.3026 10.2235 10.3023 10.2543C10.3016 10.3537 10.3013 10.453 10.3011 10.5524C10.3008 10.6213 10.3005 10.6902 10.3003 10.7591C10.2997 10.9037 10.2995 11.0483 10.2994 11.1929C10.2992 11.3783 10.2981 11.5637 10.2966 11.7491C10.2957 11.8914 10.2955 12.0338 10.2954 12.1762C10.2953 12.2445 10.2949 12.3129 10.2943 12.3812C10.2934 12.4768 10.2936 12.5724 10.294 12.668C10.2935 12.6963 10.293 12.7246 10.2926 12.7537C10.2941 12.8841 10.3022 12.9523 10.3735 13.0644C10.5063 13.1487 10.6109 13.147 10.7653 13.1452C10.8098 13.1457 10.8098 13.1457 10.8552 13.1461C10.953 13.1468 11.0508 13.1463 11.1486 13.1458C11.2167 13.1459 11.2848 13.146 11.3528 13.1462C11.4954 13.1465 11.638 13.1461 11.7806 13.1454C11.9634 13.1445 12.1461 13.145 12.3288 13.146C12.4693 13.1465 12.6099 13.1463 12.7504 13.1459C12.8178 13.1458 12.8852 13.146 12.9525 13.1463C13.0467 13.1467 13.1409 13.1461 13.2351 13.1452C13.2629 13.1456 13.2907 13.1459 13.3194 13.1462C13.4485 13.144 13.5159 13.1349 13.6269 13.0644C13.712 12.9306 13.7094 12.8246 13.7074 12.669C13.7077 12.639 13.7079 12.609 13.7081 12.5781C13.7086 12.4791 13.708 12.3802 13.7074 12.2812C13.7074 12.2123 13.7075 12.1435 13.7076 12.0746C13.7077 11.9304 13.7072 11.7863 13.7064 11.6421C13.7053 11.4571 13.7055 11.2722 13.7061 11.0873C13.7064 10.9452 13.7061 10.8031 13.7056 10.661C13.7055 10.5928 13.7055 10.5246 13.7057 10.4564C13.7059 10.3612 13.7052 10.266 13.7044 10.1707C13.7046 10.1425 13.7048 10.1143 13.705 10.0852C13.7034 9.92979 13.7034 9.92979 13.63 9.796C13.4917 9.70156 13.3521 9.71395 13.1911 9.71374C13.1627 9.71358 13.1343 9.71343 13.105 9.71327C13.0109 9.71281 12.9168 9.7126 12.8227 9.71243C12.7574 9.71225 12.692 9.71207 12.6267 9.71189C12.4896 9.71156 12.3525 9.71138 12.2154 9.71127C12.0398 9.7111 11.8641 9.71034 11.6884 9.70946C11.5534 9.70887 11.4184 9.70871 11.2834 9.70866C11.2187 9.70857 11.1539 9.70832 11.0891 9.70791C10.9985 9.70737 10.908 9.70743 10.8174 9.70764C10.7906 9.70735 10.7638 9.70706 10.7363 9.70676C10.5522 9.70806 10.4462 9.74153 10.3127 9.87502Z" fill="#4F4F4F"/>
<path d="M3.07638 8.54592C3.15049 8.54584 3.22461 8.54572 3.29872 8.54556C3.45348 8.54538 3.60823 8.54564 3.76299 8.54623C3.96042 8.54694 4.15783 8.54653 4.35525 8.54578C4.50812 8.54533 4.66099 8.54547 4.81387 8.5458C4.88662 8.54588 4.95938 8.54578 5.03213 8.54549C5.59611 8.54371 6.04328 8.56804 6.47579 8.97085C6.79119 9.29979 6.88498 9.69422 6.88379 10.1373C6.88395 10.1685 6.88411 10.1997 6.88427 10.2318C6.8847 10.3342 6.88468 10.4365 6.8846 10.5388C6.88473 10.6105 6.88486 10.6821 6.88501 10.7538C6.88524 10.9036 6.88524 11.0535 6.88507 11.2034C6.88489 11.3948 6.88542 11.5862 6.88614 11.7776C6.88661 11.9255 6.88663 12.0734 6.88653 12.2213C6.88655 12.2918 6.88671 12.3624 6.88703 12.4329C6.88742 12.5318 6.8872 12.6307 6.88684 12.7296C6.88708 12.7583 6.88732 12.787 6.88756 12.8166C6.88439 13.214 6.75722 13.5871 6.48653 13.8809C6.00825 14.3322 5.43969 14.3222 4.82052 14.3208C4.75469 14.3209 4.68886 14.3209 4.62304 14.321C4.48562 14.3211 4.3482 14.321 4.21078 14.3207C4.03553 14.3203 3.86028 14.3205 3.68503 14.3209C3.54926 14.3211 3.4135 14.321 3.27773 14.3209C3.21315 14.3208 3.14856 14.3209 3.08398 14.321C2.49579 14.3221 1.96942 14.3077 1.51583 13.8848C1.20942 13.5532 1.11544 13.1772 1.11662 12.7382C1.11646 12.7071 1.1163 12.6759 1.11614 12.6438C1.11571 12.5417 1.11573 12.4395 1.11581 12.3373C1.11568 12.2657 1.11555 12.1942 1.1154 12.1226C1.11517 11.9729 1.11518 11.8231 1.11534 11.6734C1.11552 11.4822 1.11499 11.2911 1.11427 11.1C1.11381 10.9522 1.11378 10.8045 1.11388 10.6567C1.11386 10.5863 1.1137 10.5159 1.11338 10.4455C1.11098 9.83515 1.14786 9.37632 1.58431 8.91335C1.99752 8.51483 2.54045 8.54376 3.07638 8.54592ZM2.31271 9.87502C2.30599 9.97212 2.3032 10.0665 2.30313 10.1636C2.30287 10.1936 2.30261 10.2235 2.30234 10.2543C2.30159 10.3537 2.30131 10.453 2.30111 10.5524C2.30083 10.6213 2.30054 10.6902 2.30025 10.7591C2.29974 10.9037 2.2995 11.0483 2.29941 11.1929C2.29924 11.3783 2.29806 11.5637 2.29663 11.7491C2.2957 11.8914 2.29548 12.0338 2.29545 12.1762C2.29532 12.2445 2.29493 12.3129 2.29427 12.3812C2.29344 12.4768 2.29358 12.5724 2.29398 12.668C2.29351 12.6963 2.29305 12.7246 2.29257 12.7537C2.29409 12.8841 2.30223 12.9523 2.37348 13.0644C2.5063 13.1487 2.61088 13.147 2.76534 13.1452C2.80981 13.1457 2.80981 13.1457 2.85517 13.1461C2.95301 13.1468 3.0508 13.1463 3.14864 13.1458C3.21671 13.1459 3.28477 13.146 3.35284 13.1462C3.49543 13.1465 3.63801 13.1461 3.7806 13.1454C3.96335 13.1445 4.14607 13.145 4.32882 13.146C4.46935 13.1465 4.60987 13.1463 4.75041 13.1459C4.81779 13.1458 4.88517 13.146 4.95255 13.1463C5.04674 13.1467 5.14088 13.1461 5.23507 13.1452C5.2629 13.1456 5.29073 13.1459 5.3194 13.1462C5.44852 13.144 5.51585 13.1349 5.62687 13.0644C5.71197 12.9306 5.70945 12.8246 5.70743 12.669C5.70765 12.639 5.70787 12.609 5.70811 12.5781C5.70863 12.4791 5.70803 12.3802 5.70736 12.2812C5.70738 12.2123 5.70746 12.1435 5.70759 12.0746C5.70768 11.9304 5.70722 11.7863 5.70636 11.6421C5.70529 11.4571 5.70548 11.2722 5.70607 11.0873C5.7064 10.9452 5.70612 10.8031 5.70565 10.661C5.70549 10.5928 5.7055 10.5246 5.7057 10.4564C5.70587 10.3612 5.70523 10.266 5.70438 10.1707C5.70458 10.1425 5.70478 10.1143 5.70499 10.0852C5.70336 9.92979 5.70336 9.92979 5.63002 9.796C5.49173 9.70156 5.35207 9.71395 5.19114 9.71374C5.16272 9.71358 5.13431 9.71343 5.10504 9.71327C5.01093 9.71281 4.91682 9.7126 4.82272 9.71243C4.75736 9.71225 4.69201 9.71207 4.62666 9.71189C4.48958 9.71156 4.35251 9.71138 4.21543 9.71127C4.03976 9.7111 3.8641 9.71034 3.68844 9.70946C3.55343 9.70887 3.41842 9.70871 3.28341 9.70866C3.21865 9.70857 3.15389 9.70832 3.08912 9.70791C2.99853 9.70737 2.90795 9.70743 2.81736 9.70764C2.7906 9.70735 2.76384 9.70706 2.73627 9.70676C2.55218 9.70806 2.4462 9.74153 2.31271 9.87502Z" fill="#4F4F4F"/>
<path d="M11.1217 2.90644C11.1973 2.97785 11.2713 3.05042 11.3439 3.12494C11.3594 3.139 11.3748 3.15306 11.3908 3.16755C11.8991 3.6418 12.2465 4.35765 12.4337 5.01557C12.4405 5.03913 12.4472 5.06269 12.4541 5.08697C12.4893 5.21745 12.5075 5.33227 12.5001 5.46869C12.5231 5.44912 12.5461 5.42954 12.5698 5.40937C12.6003 5.38383 12.6308 5.35829 12.6622 5.33198C12.6923 5.3066 12.7224 5.28122 12.7534 5.25507C12.9235 5.12795 13.0735 5.09818 13.2814 5.12494C13.4693 5.17584 13.5857 5.2839 13.6854 5.4488C13.746 5.59794 13.7515 5.74935 13.7189 5.90619C13.6123 6.09497 13.4585 6.23811 13.3058 6.39008C13.2778 6.41811 13.2499 6.44613 13.2211 6.47501C13.1621 6.53402 13.1031 6.59297 13.0439 6.65181C12.9683 6.72712 12.8929 6.8027 12.8176 6.87836C12.7454 6.95078 12.6731 7.02296 12.6007 7.09516C12.5737 7.12227 12.5467 7.14939 12.5189 7.17733C12.4937 7.20237 12.4685 7.22741 12.4425 7.25321C12.4203 7.27527 12.3982 7.29732 12.3755 7.32005C12.2556 7.42479 12.1621 7.44715 12.004 7.44916C11.9725 7.45005 11.941 7.45094 11.9086 7.45185C11.6652 7.41531 11.494 7.19043 11.3287 7.02436C11.3007 6.99639 11.2727 6.96843 11.2438 6.93961C11.1848 6.88064 11.1259 6.82161 11.067 6.76247C10.9917 6.68681 10.9161 6.61144 10.8405 6.53615C10.768 6.46401 10.6959 6.39163 10.6237 6.31928C10.5966 6.29229 10.5694 6.2653 10.5415 6.2375C10.5039 6.19964 10.5039 6.19964 10.4656 6.16102C10.4436 6.13891 10.4215 6.1168 10.3988 6.09403C10.2705 5.94723 10.2661 5.81632 10.2695 5.62641C10.2935 5.43345 10.3853 5.322 10.5353 5.20502C10.6429 5.14655 10.7286 5.11925 10.8497 5.11518C10.8833 5.11343 10.8833 5.11343 10.9175 5.11164C11.0407 5.13147 11.1415 5.19054 11.2501 5.24994C10.9047 4.33239 10.3097 3.60859 9.4087 3.19111C8.60036 2.84034 7.67182 2.78956 6.8419 3.09591C6.16179 3.365 5.5444 3.80913 5.15638 4.43744C5.13858 4.46443 5.12077 4.49142 5.10243 4.51923C4.78871 5.01814 4.63748 5.58716 4.60951 6.17182C4.58954 6.55648 4.58954 6.55648 4.45778 6.70344C4.29177 6.85237 4.14136 6.88969 3.92408 6.88483C3.75689 6.86422 3.63746 6.79352 3.51967 6.67573C3.26442 6.26341 3.43153 5.60721 3.53236 5.16291C3.83349 3.95092 4.63727 2.95546 5.6875 2.30507C7.40537 1.27384 9.66717 1.5677 11.1217 2.90644Z" fill="#4F4F4F"/>
</svg>
