<svg width="16" height="16" viewBox="0 0 16 16" fill="none" xmlns="http://www.w3.org/2000/svg">
<g clip-path="url(#clip0_8314_10738)">
<path d="M8.15549 -0.000172071C8.28833 0.0562076 8.40815 0.128725 8.53049 0.204906C8.58432 0.237205 8.63815 0.269504 8.69203 0.301737C8.7476 0.335099 8.80299 0.368744 8.85837 0.402431C9.02858 0.50561 9.20155 0.604006 9.37424 0.702953C9.44196 0.741993 9.50967 0.781056 9.57736 0.82014C9.62764 0.849144 9.62764 0.849144 9.67893 0.878734C9.78049 0.937328 9.88205 0.995922 9.98361 1.05452C10.0171 1.07386 10.0507 1.0932 10.0852 1.11313C10.1528 1.15211 10.2203 1.1911 10.2879 1.23009C10.4594 1.32908 10.631 1.42794 10.8027 1.52656C11.0039 1.64217 11.2048 1.75828 11.4055 1.87483C11.4524 1.90202 11.4524 1.90202 11.5002 1.92976C11.588 1.98081 11.6755 2.03223 11.7629 2.08381C11.7888 2.09885 11.8147 2.11388 11.8414 2.12937C11.8651 2.14346 11.8888 2.15755 11.9132 2.17207C11.9337 2.18414 11.9542 2.19621 11.9754 2.20865C12.044 2.25989 12.0821 2.29959 12.1242 2.37483C12.1337 2.45487 12.1381 2.52713 12.1378 2.60713C12.138 2.62947 12.1381 2.65181 12.1383 2.67483C12.1385 2.72198 12.1384 2.76913 12.1382 2.81627C12.1379 2.88817 12.1388 2.95998 12.1398 3.03187C12.1399 3.07779 12.1398 3.12371 12.1397 3.16963C12.1401 3.19099 12.1404 3.21235 12.1408 3.23435C12.1387 3.38297 12.104 3.45783 11.9992 3.56233C11.8907 3.61659 11.7739 3.61239 11.6555 3.59358C11.5694 3.5254 11.5169 3.47258 11.468 3.37483C11.4724 3.32764 11.4786 3.2806 11.4856 3.23371C11.504 3.04384 11.5127 2.86586 11.4367 2.68733C11.2559 2.5003 10.9973 2.40517 10.7636 2.30035C10.5965 2.22228 10.4403 2.12802 10.2824 2.03303C10.2203 1.99649 10.1581 1.96004 10.0958 1.92366C10.0647 1.90541 10.0335 1.88716 10.0014 1.86836C9.8357 1.77157 9.66943 1.67573 9.50314 1.57991C9.46982 1.5607 9.4365 1.5415 9.40216 1.52171C9.33417 1.48253 9.26617 1.44336 9.19817 1.40419C9.08833 1.3409 8.97853 1.27755 8.86874 1.21418C8.8503 1.20354 8.83186 1.1929 8.81286 1.18193C8.72433 1.13084 8.63581 1.07974 8.54729 1.02864C8.48524 0.992839 8.42311 0.957166 8.36089 0.921657C8.31182 0.89308 8.26324 0.863644 8.21559 0.832759C8.12817 0.776872 8.07742 0.748582 7.97233 0.756931C7.87005 0.782108 7.79721 0.816697 7.70676 0.870189C7.67489 0.88882 7.64303 0.907451 7.6102 0.926647C7.55914 0.957071 7.55914 0.957071 7.50705 0.988109C7.47089 1.00936 7.43472 1.03058 7.39853 1.05177C7.3234 1.09579 7.24836 1.13994 7.17337 1.18418C7.00148 1.28546 6.82842 1.38472 6.65549 1.4842C6.58786 1.52322 6.52023 1.56224 6.45261 1.60127C6.3164 1.67985 6.18017 1.75838 6.04392 1.83686C5.97564 1.87621 5.90736 1.91556 5.83908 1.95491C5.80588 1.97403 5.77268 1.99315 5.73847 2.01285C5.56675 2.11187 5.39537 2.21143 5.22446 2.31184C5.19024 2.33192 5.15603 2.352 5.12077 2.37268C5.05572 2.4109 4.99073 2.44921 4.9258 2.48763C4.89666 2.50475 4.86752 2.52186 4.83749 2.5395C4.81206 2.55452 4.78663 2.56954 4.76043 2.58501C4.68674 2.62483 4.68674 2.62483 4.53049 2.68733C4.5408 4.01764 4.55111 5.34795 4.56174 6.71858C4.74736 6.8217 4.93299 6.92483 5.12424 7.03108C5.22486 7.08921 5.32521 7.1474 5.42502 7.20686C5.44782 7.22035 5.47062 7.23385 5.49411 7.24775C5.54794 7.27963 5.60172 7.31159 5.65549 7.34358C5.65593 7.29966 5.65593 7.29966 5.65637 7.25486C5.65776 7.14442 5.65969 7.03401 5.66197 6.92358C5.66285 6.87613 5.66351 6.82867 5.66396 6.78122C5.66867 6.3055 5.75641 5.89607 6.08701 5.5312C6.25503 5.37436 6.45497 5.26603 6.65549 5.15608C6.64115 5.13489 6.62681 5.1137 6.61203 5.09187C6.29775 4.61517 6.19572 4.1356 6.30295 3.56855C6.3317 3.47918 6.36466 3.3968 6.40549 3.31233C6.41644 3.28796 6.4274 3.26359 6.43869 3.23848C6.66961 2.77423 7.07148 2.50765 7.54416 2.33577C8.06039 2.22709 8.54338 2.30664 8.99143 2.58772C9.36522 2.85336 9.62052 3.23683 9.71799 3.68733C9.75853 4.21034 9.69785 4.6014 9.4177 5.04988C9.36901 5.1194 9.36901 5.1194 9.37424 5.18733C9.39615 5.19833 9.41807 5.20932 9.44064 5.22065C9.87377 5.44604 10.1345 5.73085 10.286 6.20134C10.3357 6.41553 10.3331 6.63243 10.3352 6.85139C10.3361 6.89937 10.337 6.94734 10.338 6.99531C10.3403 7.1114 10.3418 7.22748 10.343 7.34358C10.3683 7.32909 10.3937 7.31459 10.4198 7.29966C10.5758 7.21054 10.7318 7.12142 10.8877 7.0323C10.9074 7.02106 10.927 7.00983 10.9473 6.99825C11.218 6.84358 11.218 6.84358 11.2791 6.81369C11.399 6.75552 11.399 6.75552 11.4625 6.64425C11.4618 6.6173 11.4612 6.59034 11.4605 6.56257C11.4607 6.5328 11.4608 6.50303 11.461 6.47236C11.4601 6.44146 11.4592 6.41057 11.4582 6.37873C11.4515 6.0026 11.4515 6.0026 11.593 5.84358C11.701 5.78956 11.8186 5.79703 11.9367 5.81233C12.0264 5.86839 12.0771 5.90554 12.1242 5.99983C12.1269 6.05422 12.1276 6.10871 12.1273 6.16316C12.1272 6.19538 12.1271 6.22761 12.127 6.26081C12.1267 6.29457 12.1265 6.32833 12.1262 6.36311C12.1261 6.39711 12.1259 6.43111 12.1258 6.46614C12.1254 6.55029 12.1249 6.63443 12.1242 6.71858C12.1463 6.72685 12.1685 6.73512 12.1912 6.74364C12.2851 6.78302 12.3703 6.82932 12.4586 6.88008C12.4934 6.90002 12.5282 6.91997 12.564 6.94052C12.6017 6.96224 12.6393 6.98396 12.677 7.00569C12.7162 7.02823 12.7554 7.05077 12.7947 7.0733C12.8955 7.13124 12.9963 7.1893 13.0971 7.2474C13.1527 7.27944 13.2083 7.31145 13.2639 7.34344C13.6535 7.56747 14.0423 7.79287 14.4301 8.01992C14.6027 8.12074 14.7758 8.22054 14.9496 8.31929C14.979 8.33601 14.979 8.33601 15.009 8.35308C15.1043 8.4073 15.1998 8.46141 15.2953 8.51532C15.8749 8.84428 15.8749 8.84428 15.9367 8.99983C15.9447 9.08652 15.9447 9.08651 15.9449 9.1882C15.9451 9.2268 15.9453 9.2654 15.9456 9.30517C15.9455 9.34786 15.9454 9.39054 15.9453 9.43323C15.9455 9.47825 15.9456 9.52328 15.9458 9.5683C15.9462 9.69052 15.9462 9.81274 15.9462 9.93497C15.9461 10.037 15.9463 10.1391 15.9464 10.2411C15.9468 10.4818 15.9468 10.7226 15.9466 10.9633C15.9464 11.2117 15.9468 11.46 15.9475 11.7084C15.948 11.9216 15.9482 12.1348 15.9481 12.3481C15.948 12.4754 15.9481 12.6028 15.9486 12.7301C15.949 12.8499 15.9489 12.9696 15.9485 13.0894C15.9484 13.1333 15.9485 13.1773 15.9488 13.2212C15.9491 13.2812 15.9488 13.3412 15.9484 13.4012C15.9484 13.4516 15.9484 13.4516 15.9484 13.503C15.935 13.6072 15.9046 13.6654 15.843 13.7498C15.7697 13.8037 15.7697 13.8037 15.6825 13.8522C15.65 13.8706 15.6175 13.889 15.584 13.908C15.5489 13.9273 15.5139 13.9467 15.4778 13.9666C15.441 13.9873 15.4042 14.008 15.3675 14.0288C15.2919 14.0715 15.2163 14.114 15.1407 14.1564C14.9778 14.248 14.8167 14.3427 14.6555 14.4373C14.2948 14.6482 13.933 14.8569 13.571 15.0655C13.4333 15.1448 13.2958 15.2244 13.1583 15.304C13.0571 15.3624 12.9558 15.4206 12.8545 15.4787C12.7204 15.5557 12.5873 15.6341 12.4546 15.7133C12.3907 15.7509 12.3268 15.7884 12.2629 15.826C12.2197 15.8524 12.2197 15.8524 12.1757 15.8792C12.0019 15.9804 11.857 16.0519 11.6555 15.9998C11.5139 15.9375 11.3831 15.8594 11.2512 15.7791C11.2125 15.7562 11.1738 15.7334 11.1351 15.7106C11.0554 15.6637 10.976 15.6165 10.8967 15.569C10.7225 15.465 10.5463 15.3645 10.3703 15.2635C10.3033 15.2248 10.2362 15.1861 10.1692 15.1473C10.0338 15.0691 9.89838 14.9909 9.76291 14.9129C9.36713 14.6849 8.97198 14.4558 8.57761 14.2254C8.53575 14.2012 8.53575 14.2012 8.49304 14.1766C8.43 14.1393 8.36772 14.1007 8.30597 14.0614C8.27299 14.0407 8.24001 14.0201 8.20603 13.9989C8.17617 13.9797 8.14632 13.9605 8.11556 13.9407C8.03282 13.8973 8.03281 13.8973 7.95186 13.9259C7.92624 13.94 7.90063 13.9541 7.87424 13.9686C7.8475 13.9825 7.82076 13.9965 7.79321 14.0109C7.75042 14.0349 7.75042 14.0349 7.70676 14.0594C7.67475 14.0773 7.64275 14.0952 7.60978 14.1137C7.57588 14.1328 7.54198 14.152 7.50705 14.1717C7.47184 14.1915 7.43663 14.2113 7.40035 14.2317C7.18814 14.3514 6.97705 14.4727 6.76751 14.597C6.57026 14.714 6.37176 14.8287 6.17307 14.9432C6.13862 14.963 6.10418 14.9829 6.0687 15.0033C5.9979 15.0441 5.9271 15.0849 5.85629 15.1257C5.71505 15.207 5.57386 15.2884 5.43269 15.3699C5.36427 15.4094 5.2958 15.4487 5.22728 15.488C5.07152 15.5775 4.91662 15.6678 4.76364 15.7619C4.73695 15.7781 4.71026 15.7943 4.68276 15.811C4.63401 15.8406 4.58554 15.8707 4.53745 15.9015C4.37904 15.9971 4.24601 16.0406 4.06174 15.9998C3.93442 15.9471 3.81848 15.8792 3.70041 15.8084C3.66628 15.7886 3.63215 15.7689 3.59699 15.7485C3.49116 15.687 3.38582 15.6247 3.28049 15.5623C3.21819 15.526 3.15585 15.4897 3.09348 15.4534C2.97056 15.382 2.84783 15.3103 2.72519 15.2384C2.51534 15.1156 2.30422 14.9952 2.09299 14.8748C1.78828 14.7012 1.48427 14.5264 1.18183 14.3488C1.02038 14.2541 0.858399 14.1604 0.695405 14.0683C0.660952 14.0487 0.6265 14.029 0.591004 14.0088C0.524916 13.9712 0.458659 13.9338 0.392213 13.8968C0.362554 13.8799 0.332896 13.8629 0.302338 13.8454C0.276182 13.8307 0.250026 13.816 0.223077 13.8008C0.140916 13.7388 0.107703 13.6856 0.0617377 13.5936C0.0498528 13.5031 0.0498533 13.5031 0.0496232 13.4017C0.0493137 13.3631 0.0490037 13.3245 0.0486848 13.2847C0.0488172 13.2422 0.0489596 13.1996 0.0491111 13.1571C0.0489328 13.1121 0.0487156 13.0672 0.0484616 13.0222C0.0479012 12.9002 0.0479371 12.7783 0.0481154 12.6563C0.0482121 12.5544 0.0480218 12.4525 0.0478331 12.3506C0.0473943 12.1102 0.047443 11.8698 0.0477988 11.6294C0.0481576 11.3816 0.047718 11.1337 0.0468804 10.8859C0.0461878 10.6729 0.0459808 10.4599 0.0461642 10.247C0.0462695 10.1199 0.0461937 9.99274 0.0456559 9.86562C0.0451722 9.74606 0.0452961 9.62652 0.0458838 9.50696C0.0459989 9.46315 0.045902 9.41933 0.0455748 9.37552C0.0427453 8.96524 0.0427458 8.96524 0.186738 8.81233C0.240662 8.7693 0.240662 8.7693 0.295624 8.74104C0.327257 8.7242 0.327257 8.7242 0.359528 8.70702C0.382429 8.69537 0.40533 8.68371 0.428925 8.6717C0.479916 8.64457 0.530857 8.61734 0.581757 8.59004C0.608928 8.57555 0.636099 8.56106 0.664094 8.54614C0.814252 8.46447 0.961278 8.37748 1.10861 8.29084C1.17281 8.25323 1.23702 8.21563 1.30124 8.17805C1.33376 8.15902 1.36628 8.13998 1.39978 8.12037C1.5667 8.02295 1.73413 7.92641 1.90158 7.82991C1.93523 7.81051 1.96887 7.79111 2.00354 7.77112C2.17548 7.67202 2.34747 7.57302 2.5195 7.47407C2.58827 7.43448 2.65704 7.39489 2.7258 7.3553C2.75909 7.33614 2.79238 7.31699 2.82668 7.29725C2.99373 7.20092 3.16023 7.10377 3.3259 7.00508C3.37368 6.97662 3.37368 6.97662 3.42243 6.9476C3.48274 6.91158 3.54299 6.87545 3.60315 6.83917C3.62977 6.82326 3.65638 6.80735 3.68381 6.79097C3.70711 6.77693 3.73042 6.76289 3.75443 6.74843C3.81174 6.71858 3.81174 6.71858 3.87424 6.71858C3.87412 6.69634 3.87401 6.67409 3.87389 6.65118C3.87113 6.10999 3.86906 5.5688 3.86776 5.02761C3.86712 4.76589 3.86624 4.50418 3.86481 4.24247C3.86356 4.01436 3.86276 3.78625 3.86248 3.55814C3.86231 3.43735 3.86193 3.31658 3.86102 3.19579C3.86017 3.08209 3.85991 2.96839 3.8601 2.85468C3.86005 2.7931 3.85938 2.73151 3.85869 2.66993C3.85886 2.63316 3.85903 2.5964 3.85921 2.55852C3.85909 2.52663 3.85898 2.49475 3.85886 2.46189C3.88279 2.32643 3.95711 2.24825 4.06751 2.17049C4.09219 2.15707 4.11687 2.14366 4.1423 2.12983C4.17045 2.11427 4.19859 2.09871 4.22759 2.08268C4.25794 2.06629 4.28828 2.04991 4.31955 2.03303C4.38505 1.99687 4.45052 1.96065 4.51596 1.92439C4.54956 1.90585 4.58316 1.88731 4.61778 1.86821C4.77429 1.78093 4.92874 1.69024 5.08322 1.59944C5.35628 1.43941 5.63049 1.28151 5.90549 1.12483C6.17968 0.968558 6.45324 0.811275 6.7258 0.652172C6.77101 0.62594 6.77101 0.62594 6.81712 0.599178C6.97783 0.505697 7.13717 0.410472 7.29538 0.312816C7.34558 0.282309 7.34558 0.282309 7.39679 0.251186C7.46055 0.212393 7.524 0.173068 7.58704 0.133113C7.77677 0.0185822 7.93321 -0.0534786 8.15549 -0.000172071ZM7.21896 3.27534C6.98818 3.51737 6.91771 3.76871 6.92196 4.09883C6.92982 4.278 6.96497 4.41237 7.06174 4.56233C7.07535 4.58404 7.08897 4.60575 7.103 4.62812C7.25118 4.84392 7.44495 5.00517 7.6987 5.07893C8.00384 5.13358 8.30427 5.11899 8.57114 4.95588C8.80642 4.78822 8.98783 4.56318 9.06174 4.28108C9.09606 3.89952 9.05826 3.60441 8.80783 3.30256C8.60143 3.08702 8.35658 2.97576 8.06174 2.93733C7.72996 2.93733 7.46035 3.05264 7.21896 3.27534ZM6.56174 5.99983C6.44289 6.16789 6.34204 6.3277 6.33498 6.5371C6.33407 6.56339 6.33317 6.58968 6.33223 6.61677C6.32918 6.73682 6.32687 6.85688 6.32518 6.97696C6.32403 7.04023 6.32233 7.10349 6.32005 7.16672C6.31682 7.25813 6.31543 7.34941 6.31442 7.44087C6.31239 7.48306 6.31239 7.48306 6.31032 7.52611C6.31057 7.60933 6.31448 7.67152 6.34299 7.74983C6.42708 7.83199 6.52014 7.88395 6.62424 7.93733C6.65311 7.95469 6.68198 7.97206 6.71173 7.98996C6.74842 8.01043 6.74842 8.01043 6.78586 8.03132C6.81402 8.04717 6.84218 8.06301 6.87119 8.07933C6.9322 8.11321 6.9933 8.14693 7.05447 8.18052C7.21428 8.26882 7.3693 8.35942 7.52036 8.46211C7.79294 8.65937 7.79295 8.65937 8.10996 8.70161C8.20534 8.64712 8.28455 8.58807 8.36916 8.51878C8.51197 8.4127 8.67319 8.33437 8.82932 8.24983C9.26586 8.0341 9.26586 8.03409 9.65549 7.74983C9.6647 7.56349 9.66531 7.37707 9.66643 7.19052C9.66694 7.1277 9.66779 7.06487 9.66899 7.00205C9.68099 6.46307 9.68099 6.46307 9.42307 6.00373C9.12607 5.75744 8.86903 5.74014 8.49558 5.74043C8.45644 5.74029 8.41731 5.74016 8.37698 5.74002C8.29445 5.73984 8.21194 5.7398 8.12941 5.73996C8.04534 5.74011 7.96128 5.73989 7.87721 5.73932C7.7552 5.73855 7.63321 5.73843 7.5112 5.73848C7.47395 5.73819 7.4367 5.7379 7.39832 5.7376C7.09887 5.73925 6.78055 5.77301 6.56174 5.99983ZM11.4446 7.46077C11.3777 7.50234 11.3108 7.54384 11.2439 7.58528C11.209 7.60725 11.1741 7.62923 11.1382 7.65187C10.9778 7.75209 10.813 7.84443 10.6483 7.93733C10.5556 7.98972 10.4631 8.04256 10.3706 8.09541C10.3524 8.10577 10.3343 8.11614 10.3156 8.12682C10.1049 8.2473 9.89534 8.36982 9.68581 8.49237C9.44761 8.63166 9.20892 8.77008 8.96994 8.90803C8.91969 8.93707 8.91969 8.93707 8.86842 8.96669C8.83655 8.98508 8.80467 9.00347 8.77182 9.02241C8.74403 9.03845 8.71624 9.05448 8.6876 9.071C8.56285 9.14198 8.4372 9.21137 8.31174 9.28108C8.31174 10.6114 8.31174 11.9417 8.31174 13.3123C8.69846 13.5289 8.69846 13.5289 9.09299 13.7498C9.27861 13.8581 9.27861 13.8581 9.46799 13.9686C9.4783 13.9686 9.48861 13.9686 9.49924 13.9686C9.49953 13.9374 9.49982 13.9062 9.50012 13.8741C9.50138 13.7567 9.50344 13.6393 9.50572 13.5219C9.5066 13.4714 9.50726 13.4209 9.50771 13.3704C9.51224 12.8825 9.58912 12.4971 9.93076 12.1259C10.0967 11.9682 10.2924 11.8752 10.4992 11.7811C10.4825 11.7527 10.4657 11.7244 10.4485 11.6951C10.4235 11.651 10.3988 11.6067 10.3742 11.5623C10.3588 11.5347 10.3434 11.5071 10.3275 11.4786C10.1507 11.1462 10.0636 10.8145 10.093 10.4373C10.0957 10.3976 10.0957 10.3976 10.0985 10.3571C10.1482 9.955 10.3824 9.54351 10.6867 9.28108C11.087 8.97512 11.5307 8.86169 12.0305 8.90608C12.5068 8.9767 12.896 9.2165 13.1965 9.58967C13.4907 10.0088 13.5533 10.4821 13.4847 10.9804C13.4183 11.2819 13.2638 11.5279 13.093 11.7811C13.1213 11.7936 13.1496 11.8061 13.1788 11.819C13.6077 12.0159 13.8573 12.2735 14.0305 12.7186C14.113 12.9718 14.1067 13.2383 14.1125 13.5018C14.1137 13.5472 14.1149 13.5926 14.1162 13.638C14.1192 13.7482 14.1218 13.8584 14.1242 13.9686C14.1521 13.9526 14.1799 13.9366 14.2086 13.9201C14.4487 13.7822 14.6901 13.6466 14.9326 13.5128C14.9553 13.5002 14.978 13.4877 15.0013 13.4748C15.0213 13.4638 15.0412 13.4528 15.0618 13.4414C15.0824 13.4298 15.103 13.4181 15.1242 13.4061C15.1643 13.3869 15.1643 13.3869 15.2051 13.3673C15.287 13.3198 15.287 13.3198 15.2997 13.2378C15.2995 13.1934 15.2995 13.1934 15.2993 13.148C15.2995 13.114 15.2997 13.0799 15.2999 13.0448C15.2991 12.9888 15.2991 12.9888 15.2982 12.9316C15.2982 12.8923 15.2983 12.853 15.2983 12.8124C15.2983 12.7045 15.2974 12.5967 15.2963 12.4888C15.2954 12.3761 15.2953 12.2633 15.2951 12.1506C15.2946 11.9371 15.2933 11.7236 15.2917 11.5101C15.29 11.2671 15.2891 11.024 15.2884 10.781C15.2867 10.281 15.284 9.78105 15.2805 9.28108C15.258 9.26811 15.2355 9.25513 15.2123 9.24177C13.4524 8.22639 13.4524 8.22639 13.3507 8.16771C13.2834 8.12892 13.2162 8.09014 13.1489 8.05136C12.9913 7.96046 12.8336 7.86947 12.6762 7.77813C12.6206 7.74585 12.5649 7.71359 12.5092 7.68135C12.4395 7.64092 12.3697 7.60044 12.3 7.55989C12.2379 7.52394 12.1756 7.48844 12.1129 7.45349C12.0305 7.40608 12.0305 7.40608 11.9637 7.35879C11.7601 7.22487 11.6297 7.33867 11.4446 7.46077ZM3.88673 7.41854C3.85066 7.44236 3.81459 7.46621 3.77853 7.49006C3.7402 7.51391 3.70177 7.53761 3.66325 7.56116C3.58409 7.60977 3.5054 7.65903 3.42699 7.70884C3.25517 7.8174 3.0782 7.91694 2.90158 8.01741C2.83441 8.05613 2.76727 8.09491 2.70017 8.13374C2.49783 8.25066 2.29541 8.36744 2.09299 8.4842C2.02613 8.52278 1.95928 8.56135 1.89243 8.59993C1.76749 8.67201 1.64254 8.74406 1.51757 8.81608C1.44285 8.85914 1.36814 8.90221 1.29343 8.94529C1.24081 8.97562 1.18817 9.00594 1.13553 9.03627C1.10356 9.0547 1.0716 9.07313 1.03867 9.09211C1.01062 9.10828 0.982567 9.12444 0.953667 9.14109C0.927456 9.15635 0.901244 9.17161 0.874238 9.18733C0.847206 9.20036 0.820174 9.21339 0.792323 9.22682C0.711464 9.27379 0.711464 9.27379 0.698762 9.35557C0.698906 9.38521 0.69905 9.41485 0.699198 9.44539C0.698983 9.47944 0.698768 9.51349 0.698547 9.54857C0.699109 9.58593 0.699671 9.62329 0.700249 9.66178C0.700227 9.70111 0.700204 9.74044 0.70018 9.78097C0.700135 9.88886 0.701055 9.99672 0.702145 10.1046C0.703121 10.2173 0.703213 10.3301 0.703399 10.4428C0.703885 10.6563 0.705167 10.8698 0.706735 11.0833C0.708481 11.3263 0.70934 11.5694 0.710125 11.8124C0.711758 12.3124 0.714507 12.8124 0.717988 13.3123C0.837438 13.3807 0.956903 13.449 1.07638 13.5174C1.1169 13.5405 1.15742 13.5637 1.19793 13.5869C1.42261 13.7155 1.64742 13.8438 1.87424 13.9686C1.87469 13.9412 1.87515 13.9138 1.87562 13.8856C1.87755 13.7821 1.87987 13.6787 1.88244 13.5753C1.88347 13.5309 1.88435 13.4864 1.88506 13.442C1.89325 12.9484 1.96837 12.5098 2.31174 12.1326C2.48383 11.9688 2.69055 11.8762 2.90549 11.7811C2.89115 11.7595 2.87681 11.738 2.86203 11.7158C2.5521 11.2411 2.43581 10.8046 2.51376 10.238C2.61511 9.77803 2.89734 9.39995 3.2883 9.14155C3.72445 8.89807 4.19763 8.83874 4.68088 8.95686C4.88216 9.01704 5.04963 9.09308 5.21799 9.21858C5.24429 9.23812 5.2706 9.25765 5.2977 9.27778C5.62156 9.54267 5.81287 9.91732 5.89572 10.324C5.944 10.8841 5.78817 11.3089 5.49924 11.7811C5.52268 11.7914 5.54613 11.8016 5.57028 11.8122C5.95364 11.9904 6.23365 12.2276 6.39925 12.6219C6.4945 12.8875 6.48556 13.1627 6.48947 13.4412C6.49051 13.4925 6.49159 13.5438 6.49271 13.595C6.49534 13.7196 6.49744 13.8441 6.49924 13.9686C6.71964 13.8608 6.93565 13.7496 7.14572 13.6229C7.32438 13.5159 7.50454 13.4135 7.68674 13.3123C7.68674 11.982 7.68674 10.6517 7.68674 9.28108C7.42893 9.1367 7.17111 8.99233 6.90549 8.84358C6.49459 8.60479 6.49459 8.60479 6.3458 8.51741C6.04734 8.34253 5.74736 8.17031 5.44762 7.99766C5.3394 7.93526 5.23126 7.87271 5.12314 7.81013C5.08666 7.78903 5.05017 7.76793 5.01369 7.74683C4.9452 7.70721 4.87673 7.66757 4.80827 7.62789C4.74592 7.59184 4.68328 7.55628 4.62034 7.52126C4.53049 7.46858 4.53049 7.46858 4.44497 7.40607C4.22179 7.2531 4.11369 7.28079 3.88673 7.41854ZM3.29746 9.99202C3.12705 10.2405 3.08759 10.517 3.12424 10.8123C3.20587 11.1147 3.37135 11.348 3.62424 11.5311C3.90744 11.6855 4.18528 11.736 4.50119 11.6522C4.78471 11.5562 5.00583 11.3858 5.15549 11.1248C5.30852 10.7513 5.30852 10.4671 5.15549 10.0936C4.99858 9.82001 4.75069 9.634 4.44858 9.54573C3.97831 9.45306 3.59549 9.63192 3.29746 9.99202ZM10.9289 9.95491C10.7815 10.1643 10.6815 10.4633 10.718 10.7186C10.7923 11.0554 10.9133 11.3069 11.1965 11.5115C11.4334 11.6561 11.6911 11.7247 11.968 11.6873C12.2835 11.6092 12.5275 11.4519 12.718 11.1873C12.8791 10.9065 12.9195 10.6364 12.8562 10.314C12.7673 10.0305 12.5798 9.80591 12.3235 9.65608C11.8208 9.41081 11.2896 9.52765 10.9289 9.95491ZM2.80002 12.5623C2.77529 12.5836 2.75055 12.6049 2.72507 12.6268C2.50237 12.9206 2.50254 13.2678 2.49874 13.6219C2.49728 13.7091 2.49299 13.7959 2.48868 13.8829C2.47498 14.1792 2.47498 14.1792 2.60783 14.43C2.69595 14.4849 2.7825 14.5291 2.8785 14.5684C2.97544 14.6103 3.06408 14.6657 3.15463 14.7197C3.19142 14.7408 3.22827 14.7617 3.26517 14.7826C3.28347 14.793 3.30177 14.8034 3.32063 14.814C3.33896 14.8244 3.3573 14.8348 3.37619 14.8455C3.43181 14.8771 3.48741 14.9087 3.54299 14.9404C3.59728 14.9712 3.65173 15.0018 3.70619 15.0323C3.77679 15.0733 3.84628 15.1162 3.91454 15.161C4.09645 15.2875 4.09645 15.2875 4.30722 15.29C4.36032 15.259 4.36032 15.259 4.41135 15.2205C4.43078 15.2083 4.45021 15.1961 4.47023 15.1836C4.51164 15.1575 4.55264 15.1308 4.59325 15.1035C4.67506 15.0494 4.7595 15.0005 4.84444 14.9515C4.91038 14.9133 4.97589 14.8745 5.04135 14.8355C5.30653 14.6785 5.57517 14.5273 5.84299 14.3748C5.84687 14.1803 5.8497 13.9858 5.85157 13.7912C5.85235 13.7251 5.85342 13.659 5.85477 13.593C5.85669 13.4975 5.85756 13.4022 5.85825 13.3067C5.85905 13.2776 5.85986 13.2484 5.86069 13.2184C5.86079 12.9801 5.79587 12.7739 5.6313 12.5962C5.42684 12.4092 5.21579 12.3404 4.94221 12.3385C4.90632 12.3382 4.87042 12.3379 4.83344 12.3376C4.7949 12.3375 4.75636 12.3374 4.71664 12.3372C4.67668 12.3371 4.63672 12.3369 4.59555 12.3367C4.51099 12.3364 4.42644 12.3362 4.34188 12.3361C4.23433 12.3359 4.12679 12.3351 4.01924 12.3343C3.91577 12.3335 3.81231 12.3335 3.70883 12.3333C3.67061 12.3329 3.63238 12.3326 3.59299 12.3322C3.29984 12.3329 3.02572 12.3584 2.80002 12.5623ZM10.343 12.6248C10.2271 12.7767 10.1514 12.9143 10.1519 13.1083C10.1519 13.1365 10.1519 13.1646 10.1519 13.1936C10.1521 13.2239 10.1523 13.2542 10.1524 13.2854C10.1525 13.3164 10.1525 13.3475 10.1526 13.3795C10.1527 13.4789 10.1531 13.5782 10.1535 13.6776C10.1537 13.7449 10.1538 13.8122 10.154 13.8795C10.1543 14.0446 10.1548 14.2097 10.1555 14.3748C10.1916 14.3948 10.2277 14.4147 10.2649 14.4352C10.5475 14.5915 10.8285 14.7498 11.1067 14.9139C11.1975 14.9674 11.2882 15.0207 11.38 15.0726C11.468 15.1248 11.468 15.1248 11.5525 15.1871C11.6405 15.2476 11.7078 15.2874 11.8117 15.3123C11.9667 15.2721 12.0916 15.1888 12.2238 15.1014C12.2618 15.0778 12.2998 15.0543 12.3379 15.031C12.416 14.983 12.4937 14.9343 12.571 14.885C12.7488 14.7724 12.9319 14.669 13.1145 14.5643C13.1765 14.5283 13.2385 14.4922 13.3004 14.456C13.3261 14.441 13.3518 14.426 13.3782 14.4106C13.4349 14.3791 13.4349 14.3791 13.468 14.3436C13.4723 14.2529 13.4747 14.1631 13.4754 14.0723C13.4758 14.031 13.4758 14.031 13.4762 13.9888C13.4766 13.9301 13.477 13.8714 13.4772 13.8127C13.4777 13.7239 13.4791 13.6352 13.4805 13.5465C13.4855 13.0337 13.4855 13.0337 13.2414 12.5955C13.0324 12.4085 12.8131 12.3404 12.5355 12.3385C12.4995 12.3382 12.4635 12.3379 12.4264 12.3376C12.3877 12.3375 12.3491 12.3374 12.3093 12.3372C12.2693 12.3371 12.2292 12.3369 12.188 12.3367C12.1033 12.3364 12.0186 12.3362 11.9339 12.3361C11.8261 12.3359 11.7183 12.3351 11.6104 12.3343C11.5068 12.3335 11.4032 12.3335 11.2995 12.3333C11.2611 12.3329 11.2228 12.3326 11.1832 12.3322C10.8532 12.333 10.5848 12.3888 10.343 12.6248Z" fill="#4F4F4F"/>
<path d="M11.9061 4.37524C11.9933 4.41398 12.045 4.44663 12.1034 4.52173C12.1357 4.63052 12.1471 4.73292 12.1249 4.84399C12.0267 4.96536 11.9596 5.02532 11.8045 5.04321C11.6528 5.02804 11.5997 4.98941 11.4999 4.87524C11.4551 4.75136 11.4545 4.65859 11.5057 4.53735C11.6295 4.38799 11.7081 4.3544 11.9061 4.37524Z" fill="#4F4F4F"/>
</g>
<defs>
<clipPath id="clip0_8314_10738">
<rect width="16" height="16" fill="white"/>
</clipPath>
</defs>
</svg>
