<svg width="24" height="24" viewBox="0 0 24 24" fill="none" xmlns="http://www.w3.org/2000/svg">
<g clip-path="url(#clip0_7580_36853)">
<path fill-rule="evenodd" clip-rule="evenodd" d="M11.987 6.50151C11.569 6.49396 11.1535 6.56892 10.7645 6.7221C10.3755 6.87528 10.0205 7.10368 9.71981 7.39422C9.41915 7.68476 9.17874 8.03173 9.01232 8.41529C8.84591 8.79885 8.75677 9.21146 8.75 9.62951V14.0015C8.75 14.2667 8.64464 14.5211 8.45711 14.7086C8.26957 14.8962 8.01522 15.0015 7.75 15.0015H6.5C6.10218 15.0015 5.72064 14.8435 5.43934 14.5622C5.15804 14.2809 5 13.8993 5 13.5015V11.5015C5 11.1037 5.15804 10.7222 5.43934 10.4408C5.72064 10.1595 6.10218 10.0015 6.5 10.0015H7.25V9.61151C7.25912 8.9969 7.38923 8.39011 7.63289 7.82579C7.87655 7.26148 8.22899 6.75069 8.67009 6.3226C9.11118 5.8945 9.63228 5.5575 10.2036 5.33082C10.775 5.10415 11.3854 4.99225 12 5.00151C12.6146 4.99225 13.225 5.10415 13.7964 5.33082C14.3677 5.5575 14.8888 5.8945 15.3299 6.3226C15.771 6.75069 16.1234 7.26148 16.3671 7.82579C16.6108 8.39011 16.7409 8.9969 16.75 9.61151V10.0015H17.5C17.8978 10.0015 18.2794 10.1595 18.5607 10.4408C18.842 10.7222 19 11.1037 19 11.5015V13.5015C19 13.8993 18.842 14.2809 18.5607 14.5622C18.2794 14.8435 17.8978 15.0015 17.5 15.0015H16.75V15.5015C16.7501 16.1773 16.5014 16.8294 16.0514 17.3335C15.6013 17.8376 14.9815 18.1583 14.31 18.2345C14.1796 18.4673 13.9895 18.6611 13.7592 18.796C13.5289 18.9308 13.2668 19.0017 13 19.0015H11.5C11.1022 19.0015 10.7206 18.8435 10.4393 18.5622C10.158 18.2809 10 17.8993 10 17.5015C10 17.1037 10.158 16.7222 10.4393 16.4408C10.7206 16.1595 11.1022 16.0015 11.5 16.0015H13C13.542 16.0015 14.017 16.2885 14.28 16.7195C14.5556 16.6562 14.8016 16.5012 14.9778 16.28C15.154 16.0588 15.2499 15.7843 15.25 15.5015V9.62851C15.2431 9.20831 15.1531 8.79363 14.985 8.40846C14.8169 8.02329 14.5741 7.67525 14.2707 7.38448C13.9672 7.0937 13.6092 6.86595 13.2172 6.7144C12.8252 6.56284 12.4071 6.49048 11.987 6.50151Z" fill="#4F4F4F"/>
</g>
<defs>
<clipPath id="clip0_7580_36853">
<rect width="14" height="14" fill="white" transform="translate(5 5)"/>
</clipPath>
</defs>
</svg>
