<svg width="21" height="20" viewBox="0 0 21 20" fill="none" xmlns="http://www.w3.org/2000/svg">
<g clip-path="url(#clip0_8118_91091)">
<path d="M2.48586 1.98684C2.5337 1.98654 2.5337 1.98654 2.58251 1.98624C2.61734 1.98622 2.65216 1.9862 2.68804 1.98618C2.72521 1.98601 2.76237 1.98584 2.80066 1.98566C2.9255 1.98514 3.05033 1.9849 3.17517 1.98466C3.26455 1.98435 3.35392 1.98402 3.4433 1.98369C3.737 1.98266 4.0307 1.98207 4.3244 1.98151C4.42543 1.9813 4.52647 1.98109 4.62751 1.98088C5.04762 1.98003 5.46773 1.9793 5.88784 1.97886C5.9968 1.97875 6.10575 1.97863 6.2147 1.97851C6.24178 1.97849 6.26886 1.97846 6.29676 1.97843C6.73577 1.97793 7.17477 1.97663 7.61377 1.97501C8.0645 1.97335 8.51522 1.97244 8.96596 1.97222C9.21903 1.97208 9.47209 1.97161 9.72515 1.97035C9.96309 1.96917 10.201 1.96892 10.4389 1.96938C10.5264 1.96939 10.6138 1.96907 10.7012 1.96838C10.8204 1.9675 10.9395 1.96782 11.0586 1.96844C11.0934 1.9679 11.1281 1.96736 11.1639 1.9668C11.3373 1.96903 11.4048 1.97482 11.5448 2.08645C11.6578 2.23459 11.679 2.313 11.661 2.5C11.592 2.63802 11.5466 2.71552 11.4043 2.77954C11.2363 2.82089 11.0815 2.82327 10.9091 2.82233C10.8731 2.82245 10.8371 2.82256 10.7999 2.82268C10.6794 2.82298 10.5589 2.82273 10.4383 2.82248C10.3518 2.82259 10.2653 2.82273 10.1788 2.82291C9.9926 2.82322 9.80639 2.82331 9.62019 2.82322C9.32571 2.82311 9.03124 2.82367 8.73676 2.82435C8.32386 2.82526 7.91096 2.82601 7.49805 2.8265C7.47187 2.82653 7.44568 2.82657 7.4187 2.8266C7.04713 2.82704 6.67556 2.82724 6.30399 2.82736C6.27783 2.82736 6.25166 2.82737 6.22471 2.82738C6.19858 2.82739 6.17245 2.8274 6.14552 2.8274C5.7094 2.82755 5.27328 2.8283 4.83715 2.82953C4.54447 2.83032 4.2518 2.83041 3.95911 2.82999C3.77694 2.82989 3.59478 2.83044 3.41261 2.83116C3.32821 2.83137 3.2438 2.83131 3.1594 2.83097C3.04405 2.83053 2.92873 2.83106 2.81338 2.83182C2.7801 2.83146 2.74682 2.83111 2.71253 2.83074C2.44674 2.83413 2.24315 2.90842 2.04214 3.08457C1.74844 3.4394 1.73318 3.75941 1.73388 4.20637C1.73379 4.24796 1.7337 4.28955 1.73361 4.33241C1.73336 4.47154 1.73339 4.61067 1.73343 4.74981C1.73331 4.84966 1.73318 4.94951 1.73303 5.04936C1.73272 5.29231 1.7326 5.53526 1.73258 5.7782C1.73256 5.97576 1.73248 6.17332 1.73235 6.37087C1.73201 6.93146 1.73183 7.49205 1.73186 8.05264C1.73186 8.09793 1.73186 8.09793 1.73186 8.14414C1.73186 8.17438 1.73187 8.20461 1.73187 8.23576C1.73188 8.72565 1.73151 9.21553 1.73096 9.70542C1.7304 10.2089 1.73013 10.7124 1.73016 11.2159C1.73017 11.4983 1.73007 11.7808 1.72965 12.0633C1.72925 12.329 1.72927 12.5947 1.72955 12.8604C1.72959 12.9578 1.7295 13.0552 1.72926 13.1526C1.72896 13.2858 1.72914 13.419 1.72944 13.5522C1.72924 13.5905 1.72904 13.6289 1.72883 13.6684C1.73072 14.0467 1.75661 14.3946 2.03756 14.6729C2.32813 14.9356 2.61874 14.9657 3.00444 14.966C3.03234 14.966 3.06024 14.9661 3.08898 14.9662C3.18224 14.9664 3.2755 14.9663 3.36876 14.9662C3.43639 14.9662 3.50402 14.9663 3.57165 14.9664C3.75734 14.9667 3.94302 14.9667 4.12871 14.9666C4.32903 14.9666 4.52935 14.9668 4.72968 14.967C5.12208 14.9673 5.51448 14.9674 5.90689 14.9675C6.22585 14.9675 6.5448 14.9676 6.86376 14.9677C7.76804 14.968 8.67233 14.9682 9.57662 14.9682C9.62537 14.9682 9.67412 14.9682 9.72434 14.9682C9.77315 14.9682 9.82196 14.9682 9.87224 14.9682C10.6634 14.9682 11.4545 14.9685 12.2456 14.9691C13.0579 14.9696 13.8702 14.9699 14.6825 14.9699C15.1385 14.9699 15.5946 14.97 16.0506 14.9704C16.4389 14.9707 16.8271 14.9708 17.2154 14.9706C17.4135 14.9704 17.6115 14.9704 17.8096 14.9708C17.991 14.9711 18.1724 14.971 18.3538 14.9707C18.4194 14.9706 18.4849 14.9707 18.5504 14.9709C19.1884 14.9902 19.1884 14.9902 19.7469 14.7266C20.0642 14.4062 20.1047 14.0856 20.1033 13.6473C20.1034 13.6144 20.1035 13.5814 20.1035 13.5475C20.1037 13.4376 20.1035 13.3277 20.1034 13.2178C20.1035 13.1388 20.1035 13.0598 20.1036 12.9808C20.1038 12.8109 20.1039 12.641 20.1039 12.4712C20.1039 12.2027 20.1044 11.9341 20.105 11.6656C20.1051 11.6203 20.1052 11.5749 20.1053 11.5282C20.1055 11.4355 20.1057 11.3428 20.1059 11.2501C20.1073 10.6252 20.1084 10.0002 20.1083 9.37521C20.1082 8.95335 20.1088 8.53149 20.1102 8.10963C20.111 7.88643 20.1113 7.66324 20.1108 7.44004C20.1104 7.23028 20.1109 7.02055 20.112 6.81079C20.1123 6.73377 20.1122 6.65675 20.1118 6.57973C20.1112 6.47468 20.1119 6.36969 20.1128 6.26464C20.1124 6.23409 20.1119 6.20353 20.1115 6.17205C20.1142 6.01695 20.1314 5.9453 20.2283 5.82184C20.3602 5.72135 20.441 5.70313 20.6063 5.70313C20.7631 5.76231 20.8252 5.79709 20.9188 5.9375C20.9265 6.04926 20.9297 6.15724 20.9292 6.26902C20.9294 6.30328 20.9296 6.33753 20.9298 6.37282C20.9303 6.48805 20.9302 6.60328 20.9301 6.71852C20.9304 6.80097 20.9306 6.88342 20.9309 6.96586C20.9316 7.19025 20.9318 7.41463 20.9319 7.63901C20.9319 7.82635 20.9322 8.01368 20.9325 8.20102C20.9331 8.64322 20.9333 9.08542 20.9333 9.52763C20.9332 9.98345 20.934 10.4393 20.9353 10.8951C20.9363 11.2865 20.9367 11.6779 20.9367 12.0694C20.9366 12.3031 20.9369 12.5368 20.9377 12.7706C20.9385 12.9906 20.9385 13.2107 20.9379 13.4308C20.9378 13.5114 20.938 13.5919 20.9385 13.6725C20.9419 14.3042 20.8676 14.7722 20.4354 15.2612C20.0698 15.5833 19.7249 15.785 19.2298 15.7874C19.2013 15.7876 19.1727 15.7878 19.1433 15.788C19.0477 15.7886 18.9521 15.7889 18.8565 15.7893C18.788 15.7896 18.7195 15.79 18.6509 15.7904C18.4649 15.7915 18.2788 15.7923 18.0927 15.7931C17.8982 15.794 17.7037 15.795 17.5093 15.7961C17.141 15.798 16.7728 15.7998 16.4045 15.8015C15.9852 15.8034 15.566 15.8055 15.1468 15.8077C14.2843 15.8121 13.4219 15.8163 12.5594 15.8203C12.6283 15.9332 12.6972 16.0462 12.7661 16.159C12.7855 16.1909 12.8049 16.2227 12.8248 16.2555C12.9568 16.4716 13.0914 16.6856 13.2308 16.897C13.4603 17.2474 13.6864 17.6 13.9118 17.9531C13.9368 17.9924 13.9619 18.0317 13.9878 18.0722C14.0099 18.1069 14.0321 18.1416 14.0549 18.1774C14.077 18.2117 14.0991 18.2459 14.1219 18.2813C14.1429 18.3237 14.1639 18.3662 14.1855 18.41C14.2871 18.5258 14.2993 18.5318 14.4434 18.5427C14.5108 18.543 14.5781 18.5421 14.6454 18.5402C14.6812 18.5403 14.7169 18.5403 14.7537 18.5404C14.8679 18.5406 14.9819 18.5392 15.096 18.5376C15.21 18.5362 15.3239 18.5351 15.4379 18.5352C15.5088 18.5353 15.5797 18.5344 15.6505 18.5326C15.8256 18.5327 15.8958 18.5367 16.0381 18.6481C16.1157 18.7522 16.1408 18.7958 16.1385 18.9233C16.139 18.9515 16.1395 18.9796 16.14 19.0086C16.1009 19.149 16.0338 19.2488 15.9188 19.3359C15.7851 19.3708 15.6545 19.3676 15.517 19.3657C15.4761 19.3661 15.4352 19.3664 15.3931 19.3668C15.256 19.3677 15.1189 19.367 14.9817 19.3663C14.8835 19.3666 14.7853 19.367 14.687 19.3675C14.4478 19.3685 14.2086 19.3683 13.9693 19.3676C13.7749 19.3671 13.5805 19.367 13.386 19.3673C13.3445 19.3674 13.3445 19.3674 13.3022 19.3674C13.246 19.3675 13.1898 19.3676 13.1336 19.3676C12.6064 19.3683 12.0793 19.3675 11.5522 19.3663C11.0999 19.3652 10.6476 19.3654 10.1953 19.3665C9.67002 19.3677 9.14479 19.3682 8.61955 19.3675C8.56355 19.3674 8.50754 19.3674 8.45153 19.3673C8.4102 19.3672 8.4102 19.3672 8.36803 19.3672C8.17383 19.367 7.97963 19.3673 7.78543 19.3679C7.52405 19.3686 7.2627 19.3681 7.00132 19.3667C6.90528 19.3664 6.80924 19.3665 6.7132 19.367C6.5823 19.3677 6.45149 19.3669 6.3206 19.3657C6.28239 19.3662 6.24419 19.3667 6.20482 19.3673C5.95416 19.3629 5.95416 19.3629 5.85162 19.2847C5.76164 19.1803 5.69615 19.0852 5.69906 18.9453C5.69831 18.9091 5.69831 18.9091 5.69754 18.8721C5.73925 18.7386 5.80891 18.6391 5.91879 18.5547C6.04099 18.5272 6.15738 18.5376 6.28164 18.5466C6.35381 18.5487 6.42599 18.5507 6.49816 18.5526C6.61121 18.5568 6.72391 18.562 6.83678 18.5695C7.25754 18.6084 7.25754 18.6084 7.63275 18.4558C7.76729 18.2991 7.85893 18.1215 7.94759 17.936C8.00456 17.8201 8.07416 17.7146 8.14581 17.6074C8.19369 17.5326 8.24155 17.4577 8.28939 17.3828C8.34249 17.2998 8.39559 17.2167 8.4487 17.1336C8.47561 17.0915 8.50252 17.0494 8.53025 17.0061C8.61731 16.87 8.70449 16.734 8.79171 16.5981C8.83491 16.5307 8.8781 16.4633 8.9213 16.3959C8.96257 16.3316 9.00388 16.2673 9.04519 16.2029C9.07006 16.1641 9.09492 16.1253 9.12054 16.0854C9.14254 16.0511 9.16454 16.0168 9.18721 15.9815C9.23952 15.9007 9.23952 15.9007 9.27816 15.8203C9.22501 15.8202 9.22501 15.8202 9.17077 15.8201C8.30741 15.8187 7.44406 15.8164 6.5807 15.8131C6.16318 15.8116 5.74567 15.8103 5.32815 15.8097C4.96413 15.8092 4.60011 15.8082 4.23609 15.8065C4.04344 15.8056 3.85081 15.805 3.65816 15.805C3.47659 15.805 3.29503 15.8043 3.11346 15.8031C3.04706 15.8028 2.98066 15.8027 2.91426 15.8029C2.32943 15.8046 1.88584 15.6929 1.43881 15.2979C1.15449 14.9751 0.914485 14.6302 0.913545 14.1856C0.913371 14.1473 0.913197 14.109 0.913018 14.0695C0.913025 14.0276 0.913032 13.9856 0.91304 13.9424C0.912896 13.8977 0.912752 13.8531 0.912604 13.8071C0.912248 13.6831 0.912068 13.5591 0.911964 13.4352C0.911812 13.3015 0.911437 13.1678 0.911096 13.0341C0.910325 12.7111 0.909931 12.3882 0.909584 12.0653C0.909412 11.9131 0.909203 11.761 0.908998 11.6088C0.908334 11.1029 0.907768 10.5969 0.907485 10.0909C0.90741 9.95966 0.907335 9.82839 0.907259 9.69712C0.90724 9.6645 0.907221 9.63187 0.907201 9.59826C0.906877 9.07 0.905888 8.54173 0.904619 8.01347C0.903326 7.47084 0.902623 6.92821 0.902499 6.38557C0.902414 6.08101 0.902074 5.77646 0.901074 5.47191C0.900225 5.21248 0.899913 4.95306 0.900292 4.69363C0.900469 4.56137 0.900312 4.42913 0.899637 4.29687C0.898945 4.15316 0.899222 4.00948 0.899736 3.86577C0.899307 3.82442 0.898879 3.78307 0.898438 3.74047C0.902582 3.2583 1.08573 2.87031 1.40219 2.51221C1.71167 2.23957 2.05684 1.98826 2.48586 1.98684ZM9.82046 16.4697C9.80144 16.5126 9.78242 16.5554 9.76282 16.5996C9.68857 16.7605 9.5955 16.9026 9.49545 17.0483C9.46164 17.1001 9.42797 17.1519 9.39444 17.2038C9.37652 17.2314 9.35861 17.259 9.34015 17.2874C9.22194 17.4694 9.10394 17.6516 8.98643 17.8341C8.94454 17.8991 8.90247 17.9639 8.86039 18.0288C8.83465 18.0688 8.80892 18.1088 8.78241 18.15C8.74785 18.2035 8.74785 18.2035 8.71259 18.2581C8.64269 18.3714 8.64269 18.3714 8.57504 18.5547C10.1219 18.5547 11.6688 18.5547 13.2625 18.5547C13.2061 18.4136 13.1591 18.3108 13.0791 18.1866C13.0579 18.1535 13.0367 18.1204 13.0149 18.0863C12.9919 18.0507 12.9689 18.0152 12.9452 17.9785C12.9211 17.941 12.897 17.9035 12.8722 17.8649C12.8207 17.7846 12.7691 17.7044 12.7175 17.6242C12.6112 17.4591 12.5052 17.2938 12.3997 17.1282C12.3466 17.0456 12.2929 16.9633 12.2387 16.8815C12.1133 16.6909 12.0011 16.5073 11.9127 16.2967C11.8206 16.0896 11.7374 15.9093 11.5438 15.7813C10.76 15.5097 10.1778 15.7175 9.82046 16.4697Z" fill="#155DEC"/>
<path d="M12.1937 5.23733C12.2928 5.3246 12.3877 5.41441 12.4812 5.50772C12.5037 5.52982 12.5263 5.55193 12.5495 5.5747C12.9528 6.00427 13.0921 6.58806 13.0781 7.16131C13.03 7.78805 12.7297 8.31577 12.2859 8.74991C12.3139 8.75998 12.342 8.77005 12.3709 8.78042C12.8928 9.00567 13.302 9.47591 13.5749 9.96084C13.602 10.0077 13.602 10.0077 13.6296 10.0556C13.8744 10.509 13.9707 11.0055 13.9735 11.5163C13.9737 11.5484 13.9739 11.5805 13.9742 11.6136C13.9745 11.681 13.9748 11.7484 13.9749 11.8159C13.9753 11.9188 13.9765 12.0217 13.9778 12.1247C13.978 12.1905 13.9782 12.2562 13.9784 12.322C13.9789 12.3526 13.9793 12.3832 13.9798 12.4147C13.9791 12.5935 13.9667 12.7142 13.8484 12.8515C13.6861 12.9468 13.567 12.9833 13.3795 12.9833C13.3104 12.9837 13.3104 12.9837 13.2399 12.9841C13.19 12.9838 13.14 12.9835 13.0885 12.9832C13.0349 12.9833 12.9813 12.9834 12.9277 12.9836C12.7826 12.984 12.6375 12.9836 12.4924 12.9831C12.3403 12.9827 12.1883 12.9828 12.0363 12.9829C11.781 12.9829 11.5258 12.9825 11.2705 12.9818C10.9756 12.981 10.6807 12.9808 10.3857 12.9811C10.1017 12.9813 9.81775 12.9811 9.53376 12.9806C9.41301 12.9804 9.29226 12.9804 9.17151 12.9805C9.02932 12.9806 8.88712 12.9803 8.74492 12.9796C8.66795 12.9794 8.59097 12.9795 8.51399 12.9797C8.46804 12.9794 8.4221 12.9791 8.37476 12.9788C8.315 12.9787 8.315 12.9787 8.25402 12.9786C8.08961 12.9636 7.98304 12.9205 7.8608 12.8099C7.76837 12.652 7.77185 12.5249 7.7743 12.345C7.77424 12.3111 7.77418 12.2771 7.77412 12.2421C7.77419 12.1701 7.77464 12.0982 7.77545 12.0263C7.77657 11.918 7.77626 11.8098 7.77575 11.7015C7.77686 10.7561 8.03005 9.98809 8.69211 9.29678C8.7252 9.26 8.7252 9.26 8.75895 9.22247C8.95507 9.01151 9.19229 8.86384 9.4343 8.71084C9.41819 8.697 9.40207 8.68315 9.38547 8.66888C8.96652 8.28266 8.71489 7.7706 8.67746 7.20236C8.6551 6.62229 8.76901 6.13486 9.1218 5.66397C9.14315 5.63547 9.1645 5.60697 9.1865 5.5776C9.53703 5.14605 10.0511 4.88826 10.5981 4.81299C11.1646 4.77503 11.7396 4.87997 12.1937 5.23733ZM9.86399 6.05459C9.55487 6.45305 9.45746 6.7964 9.51243 7.30459C9.62341 7.71629 9.83803 8.00521 10.1963 8.2308C10.5285 8.40263 10.8707 8.44799 11.2312 8.35196C11.6235 8.22278 11.9336 7.98086 12.1247 7.61221C12.2852 7.27966 12.2995 6.91778 12.1784 6.56973C12.024 6.19234 11.7721 5.89133 11.3923 5.725C10.8404 5.53246 10.2868 5.64325 9.86399 6.05459ZM9.12165 10.0478C8.60548 10.6788 8.61399 11.3264 8.61399 12.1483C10.1093 12.1483 11.6046 12.1483 13.1452 12.1483C13.1452 11.1823 13.1098 10.5168 12.4394 9.83328C12.0147 9.42297 11.4546 9.22536 10.8723 9.20401C10.1637 9.21736 9.58778 9.52989 9.12165 10.0478Z" fill="#155DEC"/>
<path d="M13.3618 0.657883C13.4293 0.657379 13.4293 0.657379 13.4982 0.656865C13.5723 0.656616 13.5723 0.656616 13.648 0.656361C13.7005 0.656052 13.7531 0.655729 13.8057 0.655393C13.9783 0.654369 14.151 0.653771 14.3237 0.653214C14.3832 0.653004 14.4428 0.652794 14.5023 0.652584C14.75 0.651739 14.9977 0.651007 15.2454 0.650567C15.5999 0.649933 15.9544 0.648639 16.309 0.646411C16.5585 0.644896 16.808 0.644136 17.0575 0.64393C17.2064 0.643787 17.3553 0.643321 17.5041 0.642051C17.6444 0.640871 17.7846 0.640631 17.9249 0.641089C18.0004 0.641102 18.076 0.640149 18.1515 0.63916C18.4415 0.641224 18.6554 0.677393 18.8876 0.859207C19.188 1.16711 19.1762 1.5851 19.2001 1.99202C19.2243 1.97982 19.2485 1.96762 19.2734 1.95506C19.3848 1.89893 19.4963 1.84294 19.6078 1.78694C19.6459 1.76776 19.6839 1.74857 19.7231 1.72881C20.4394 1.36946 20.4394 1.36946 20.6454 1.40608C20.8634 1.52944 20.8634 1.52944 20.9189 1.64046C20.9235 1.73476 20.9258 1.82798 20.9264 1.92233C20.9269 1.96589 20.9269 1.96589 20.9274 2.01032C20.9283 2.10661 20.929 2.20289 20.9295 2.29918C20.9298 2.33205 20.93 2.36492 20.9302 2.39878C20.9312 2.57275 20.932 2.74672 20.9325 2.9207C20.9332 3.1004 20.9349 3.28007 20.9369 3.45977C20.9382 3.59793 20.9387 3.73609 20.9389 3.87427C20.9392 3.9405 20.9398 4.00674 20.9407 4.07297C20.9419 4.16575 20.9419 4.25845 20.9417 4.35123C20.9423 4.37853 20.9429 4.40583 20.9436 4.43396C20.9417 4.58375 20.9222 4.64418 20.8263 4.7619C20.7015 4.8611 20.649 4.88566 20.4892 4.88264C20.1857 4.78637 19.9049 4.63117 19.6249 4.48225C19.5838 4.4606 19.5427 4.43895 19.5004 4.41664C19.4002 4.36381 19.3001 4.31081 19.2001 4.25764C19.1988 4.27967 19.1974 4.3017 19.196 4.3244C19.1893 4.42593 19.1813 4.52731 19.1733 4.62874C19.1712 4.66338 19.1691 4.69803 19.1669 4.73372C19.1412 5.03787 19.0397 5.25983 18.8095 5.4637C18.6301 5.59077 18.4917 5.63454 18.2724 5.63528C18.2052 5.63578 18.2052 5.63578 18.1365 5.63629C18.0633 5.63624 18.0633 5.63624 17.9885 5.63618C17.9363 5.63642 17.884 5.63668 17.8318 5.63698C17.6901 5.63767 17.5485 5.63785 17.4068 5.6379C17.3182 5.63795 17.2297 5.63812 17.1411 5.63833C16.8317 5.63905 16.5223 5.63937 16.213 5.63931C15.9251 5.63926 15.6372 5.64009 15.3493 5.64132C15.1017 5.64234 14.8542 5.64276 14.6066 5.64271C14.4589 5.64269 14.3113 5.64291 14.1636 5.64374C14.0246 5.6445 13.8856 5.6445 13.7466 5.64393C13.6717 5.64381 13.5967 5.64446 13.5218 5.64514C13.2144 5.64291 12.9852 5.61376 12.7539 5.3932C12.7365 5.36813 12.719 5.34305 12.7011 5.31721C12.6741 5.2799 12.6741 5.2799 12.6465 5.24184C12.523 5.0208 12.5087 4.81811 12.5085 4.5714C12.5081 4.53695 12.5078 4.50249 12.5075 4.46698C12.5065 4.35346 12.5062 4.23995 12.5059 4.12642C12.5056 4.04712 12.5052 3.96782 12.5049 3.88851C12.5042 3.72236 12.5039 3.55622 12.5038 3.39007C12.5036 3.1779 12.5021 2.96576 12.5003 2.7536C12.4992 2.58979 12.4989 2.42598 12.4989 2.26217C12.4987 2.18399 12.4982 2.10582 12.4974 2.02764C12.4895 1.21316 12.4895 1.21316 12.7157 0.937332C12.9202 0.749103 13.0802 0.659448 13.3618 0.657883ZM13.3407 1.48421C13.3407 2.57991 13.3407 3.67561 13.3407 4.80452C14.2215 4.80566 14.2215 4.80566 15.1023 4.80643C15.4613 4.80666 15.8202 4.80693 16.1792 4.80747C16.4406 4.80786 16.702 4.80811 16.9633 4.8082C17.1018 4.80825 17.2403 4.80837 17.3788 4.80865C17.5331 4.80896 17.6875 4.80897 17.8418 4.80895C17.8881 4.80909 17.9343 4.80924 17.982 4.80938C18.0238 4.80933 18.0656 4.80927 18.1086 4.80922C18.1635 4.80927 18.1635 4.80927 18.2194 4.80933C18.3012 4.8137 18.3012 4.8137 18.3407 4.76546C18.3449 4.66485 18.3465 4.56528 18.3464 4.46464C18.3465 4.43314 18.3467 4.40163 18.3468 4.36918C18.3472 4.2645 18.3473 4.15983 18.3473 4.05516C18.3474 3.98271 18.3476 3.91027 18.3477 3.83782C18.3479 3.68574 18.348 3.53367 18.348 3.38159C18.348 3.18634 18.3485 2.9911 18.3492 2.79585C18.3496 2.64616 18.3497 2.49647 18.3497 2.34678C18.3497 2.27478 18.3499 2.20278 18.3502 2.13078C18.3506 2.03023 18.3505 1.92969 18.3502 1.82914C18.3504 1.79917 18.3507 1.76919 18.3509 1.73831C18.3556 1.57381 18.3556 1.57381 18.2626 1.44514C18.174 1.43338 18.174 1.43338 18.0699 1.43549C18.0291 1.43532 17.9884 1.43516 17.9464 1.43499C17.9015 1.43521 17.8566 1.43543 17.8103 1.43566C17.7632 1.43558 17.7161 1.43551 17.6675 1.43543C17.5381 1.43531 17.4086 1.43554 17.2792 1.43594C17.1439 1.43628 17.0086 1.43621 16.8733 1.4362C16.646 1.43623 16.4188 1.43657 16.1915 1.43711C15.9286 1.43772 15.6657 1.43793 15.4027 1.4379C15.1501 1.43787 14.8974 1.43807 14.6447 1.4384C14.5371 1.43853 14.4294 1.43861 14.3218 1.43863C14.1716 1.43867 14.0213 1.43905 13.8711 1.43947C13.8262 1.43945 13.7814 1.43944 13.7351 1.43942C13.6944 1.43958 13.6536 1.43975 13.6116 1.43992C13.5761 1.43999 13.5405 1.44005 13.5039 1.44012C13.417 1.43965 13.417 1.43965 13.3407 1.48421ZM19.8553 2.59383C19.7949 2.62291 19.7949 2.62291 19.7333 2.65257C19.6911 2.67307 19.6489 2.69356 19.6054 2.71468C19.5416 2.74542 19.5416 2.74542 19.4766 2.77678C19.3714 2.82756 19.2662 2.87848 19.1611 2.92952C19.1342 3.15953 19.1342 3.15953 19.2259 3.35707C19.2569 3.37228 19.2878 3.38749 19.3197 3.40315C19.3547 3.42108 19.3897 3.439 19.4258 3.45747C19.4673 3.47661 19.5089 3.49574 19.5517 3.51546C19.6038 3.54043 19.656 3.56546 19.7081 3.59053C19.8504 3.65874 19.9938 3.72353 20.1376 3.78889C20.1376 3.3635 20.1376 2.93811 20.1376 2.49983C20.027 2.49983 19.9548 2.54573 19.8553 2.59383Z" fill="#155DEC"/>
</g>
<defs>
<clipPath id="clip0_8118_91091">
<rect width="20" height="20" fill="white" transform="translate(0.918823)"/>
</clipPath>
</defs>
</svg>
