<svg width="24" height="25" viewBox="0 0 24 25" fill="none" xmlns="http://www.w3.org/2000/svg">
<g id="mage:dashboard">
<path id="Vector" d="M19.318 13.792H15.443C14.9295 13.792 14.4369 13.9954 14.073 14.3576C13.709 14.7199 13.5034 15.2115 13.501 15.725V19.6C13.501 20.115 13.7056 20.609 14.0698 20.9732C14.434 21.3374 14.9279 21.542 15.443 21.542H19.318C19.8313 21.5393 20.3227 21.3336 20.6847 20.9697C21.0468 20.6058 21.25 20.1133 21.25 19.6V15.725C21.25 15.2126 21.0464 14.7212 20.6841 14.3589C20.3218 13.9965 19.8304 13.793 19.318 13.793M8.557 13.792H4.682C4.16859 13.7949 3.6772 14.0009 3.3152 14.365C2.95319 14.729 2.74999 15.2216 2.75 15.735V19.61C2.75 20.1224 2.95355 20.6138 3.31587 20.9761C3.67819 21.3384 4.1696 21.542 4.682 21.542H8.557C9.07032 21.542 9.56277 21.3388 9.92668 20.9767C10.2906 20.6147 10.4964 20.1233 10.499 19.61V15.735C10.499 15.2199 10.2944 14.726 9.9302 14.3618C9.56601 13.9976 9.07205 13.793 8.557 13.793M8.557 3.04199H4.682C4.42829 3.04199 4.17706 3.09196 3.94266 3.18906C3.70825 3.28615 3.49527 3.42846 3.31587 3.60786C3.13647 3.78726 2.99416 4.00025 2.89706 4.23465C2.79997 4.46905 2.75 4.72028 2.75 4.97399V8.84899C2.74999 9.36231 2.95322 9.85476 3.31526 10.2187C3.67729 10.5826 4.16868 10.7883 4.682 10.791H8.557C9.07205 10.791 9.56601 10.5864 9.9302 10.2222C10.2944 9.858 10.499 9.36404 10.499 8.84899V4.97399C10.4964 4.46068 10.2906 3.96929 9.92668 3.60725C9.56277 3.24522 9.07032 3.04199 8.557 3.04199ZM19.318 3.04199H15.443C14.9297 3.04199 14.4372 3.24522 14.0733 3.60725C13.7094 3.96929 13.5036 4.46068 13.501 4.97399V8.84899C13.5013 9.36396 13.706 9.85776 14.0701 10.2219C14.4342 10.586 14.928 10.7907 15.443 10.791H19.318C19.8313 10.7883 20.3227 10.5826 20.6847 10.2187C21.0468 9.85476 21.25 9.36231 21.25 8.84899V4.97399C21.25 4.46159 21.0464 3.97018 20.6841 3.60786C20.3218 3.24554 19.8304 3.04199 19.318 3.04199Z" stroke="#68696E" stroke-width="1.5" stroke-linecap="round" stroke-linejoin="round"/>
</g>
</svg>
