<svg width="25" height="24" viewBox="0 0 25 24" fill="none" xmlns="http://www.w3.org/2000/svg">
<path d="M8.91745 6.20986C8.99171 6.24557 9.05439 6.30153 9.09825 6.37129C9.14211 6.44105 9.16537 6.52179 9.16536 6.60419C9.16536 7.08836 9.34736 7.36719 9.57545 7.70669L9.59236 7.73119C9.78603 8.01936 10.0404 8.39678 10.0404 8.93753C10.0404 9.36298 9.87135 9.771 9.57052 10.0718C9.26968 10.3727 8.86165 10.5417 8.4362 10.5417C8.01075 10.5417 7.60272 10.3727 7.30188 10.0718C7.00104 9.771 6.83203 9.36298 6.83203 8.93753C6.83203 8.72286 6.83203 8.35361 7.05545 7.87703C7.2742 7.41036 7.69011 6.87428 8.45428 6.26236C8.51869 6.21084 8.59634 6.17858 8.67829 6.16929C8.76024 6.16 8.84315 6.17406 8.91745 6.20986ZM8.4362 11.4167C8.9275 11.4175 9.40787 11.2717 9.81578 10.9979C9.96803 11.426 10.0404 11.9954 10.0404 12.7321C10.0404 13.7308 9.9062 14.9301 9.68745 15.8879C9.57895 16.3639 9.4442 16.8032 9.28378 17.1328C9.20839 17.297 9.10804 17.4485 8.98628 17.5819C8.86611 17.705 8.6812 17.8363 8.4362 17.8363C8.1912 17.8363 8.00628 17.705 7.8867 17.5819C7.76494 17.4485 7.66459 17.297 7.5892 17.1328C7.4282 16.8026 7.29345 16.3639 7.18495 15.8874C6.9572 14.8507 6.83892 13.7929 6.83203 12.7315C6.83203 11.9954 6.90436 11.426 7.05661 10.9979C7.46452 11.2717 7.94489 11.4175 8.4362 11.4167ZM10.6144 13.2116C10.8951 13.335 11.1935 13.4134 11.4987 13.4438V12.1459C11.4987 11.8969 11.5477 11.6504 11.643 11.4204C11.7383 11.1903 11.8779 10.9813 12.054 10.8053C12.4095 10.4498 12.8917 10.25 13.3945 10.25H14.6924C14.6445 9.77255 14.4796 9.31428 14.2121 8.91583C13.9447 8.51738 13.5831 8.19106 13.1594 7.96582C12.7357 7.74057 12.2629 7.62335 11.7831 7.62455C11.3032 7.62575 10.831 7.74533 10.4084 7.97269C10.3177 7.78117 10.2107 7.59773 10.0888 7.42436L10.0596 7.38119L9.9552 7.22252C10.5109 6.91515 11.1349 6.75228 11.77 6.74885C12.405 6.74542 13.0307 6.90155 13.5897 7.20291C14.1487 7.50427 14.6231 7.9412 14.9692 8.47361C15.3154 9.00601 15.5223 9.61684 15.5709 10.25H16.6029C16.8518 10.25 17.0984 10.2991 17.3284 10.3943C17.5584 10.4896 17.7674 10.6293 17.9434 10.8053C18.1195 10.9813 18.2591 11.1903 18.3544 11.4204C18.4497 11.6504 18.4987 11.8969 18.4987 12.1459V15.3542C18.4987 15.6032 18.4497 15.8497 18.3544 16.0797C18.2591 16.3097 18.1195 16.5187 17.9434 16.6947C17.7674 16.8708 17.5584 17.0104 17.3284 17.1057C17.0984 17.201 16.8518 17.25 16.6029 17.25H13.3945C12.8917 17.25 12.4095 17.0503 12.054 16.6947C11.6984 16.3392 11.4987 15.857 11.4987 15.3542V14.3223C11.1765 14.2977 10.8587 14.232 10.5531 14.1269C10.5823 13.8177 10.6033 13.5097 10.6144 13.2116ZM16.6029 11.125H15.5377C15.4137 11.9197 15.0404 12.6543 14.4717 13.223C13.903 13.7917 13.1683 14.165 12.3737 14.289V15.3542C12.3737 15.9177 12.831 16.375 13.3945 16.375H16.6029C16.8736 16.375 17.1333 16.2675 17.3247 16.076C17.5161 15.8846 17.6237 15.6249 17.6237 15.3542V12.1459C17.6237 11.8751 17.5161 11.6155 17.3247 11.424C17.1333 11.2326 16.8736 11.125 16.6029 11.125ZM12.3737 13.4C12.9339 13.285 13.448 13.0081 13.8524 12.6038C14.2568 12.1994 14.5337 11.6852 14.6487 11.125H13.3945C13.1238 11.125 12.8641 11.2326 12.6727 11.424C12.4812 11.6155 12.3737 11.8751 12.3737 12.1459V13.4Z" fill="#4F4F4F"/>
</svg>
