<svg width="25" height="33" viewBox="0 0 25 33" fill="none" xmlns="http://www.w3.org/2000/svg">
<g id="Group 14194">
<g id="Group">
<path id="Vector" d="M23.9335 12.2494L24.2295 12.5454H23.9335H13.7375V2.22944V2.05344L13.9135 2.22944L23.9335 12.2494Z" fill="white"/>
<path id="Vector_2" d="M13.9124 1.87617H4.83242C3.14842 1.87617 1.78442 3.24017 1.78442 4.92417V28.7042C1.78442 30.3882 3.14842 31.7522 4.83242 31.7522H20.8804C22.5644 31.7522 23.9284 30.3882 23.9284 28.7042V11.8922L23.5244 11.4882L23.2644 11.2282L14.5884 2.55217L14.4364 2.40017L13.9084 1.87217L13.9124 1.87617Z" stroke="white" stroke-width="1.92" stroke-linecap="round" stroke-linejoin="round"/>
</g>
<path id="Vector_3" d="M11.5721 16.4222L12.7242 18.5262C13.2082 19.4062 13.9321 20.1342 14.8121 20.6142L16.9162 21.7662L14.8121 22.9182C13.9321 23.4022 13.2042 24.1262 12.7242 25.0062L11.5721 27.1102L10.4201 25.0062C9.93615 24.1262 9.21215 23.3982 8.33215 22.9182L6.22815 21.7662L8.33215 20.6142C9.21215 20.1302 9.94015 19.4062 10.4201 18.5262L11.5721 16.4222Z" stroke="white" stroke-width="1.6" stroke-linecap="round" stroke-linejoin="round"/>
<path id="Vector_4" d="M17.0624 13.6722L17.6064 14.6682C17.8344 15.0842 18.1784 15.4282 18.5944 15.6562L19.5904 16.2002L18.5944 16.7442C18.1784 16.9722 17.8344 17.3162 17.6064 17.7322L17.0624 18.7282L16.5184 17.7322C16.2904 17.3162 15.9464 16.9722 15.5304 16.7442L14.5344 16.2002L15.5304 15.6562C15.9464 15.4282 16.2904 15.0842 16.5184 14.6682L17.0624 13.6722Z" fill="white"/>
</g>
</svg>
