<svg width="20" height="21" viewBox="0 0 20 21" fill="none" xmlns="http://www.w3.org/2000/svg">
<g clip-path="url(#clip0_1147_8778)">
<path fill-rule="evenodd" clip-rule="evenodd" d="M15.5916 15.019C16.2557 14.3548 16.6288 13.454 16.6288 12.5148C16.6288 11.5756 16.2557 10.6748 15.5916 10.0106L10.1416 4.56062C9.98526 4.40436 9.89737 4.19239 9.89729 3.97133C9.89722 3.75027 9.98496 3.53824 10.1412 3.38187C10.2975 3.2255 10.5094 3.13761 10.7305 3.13754C10.9516 3.13746 11.1636 3.2252 11.32 3.38145L16.77 8.83145C17.7468 9.80811 18.2957 11.1328 18.2959 12.5142C18.296 13.8956 17.7475 15.2204 16.7708 16.1973C15.7941 17.1742 14.4694 17.7231 13.0881 17.7232C11.7067 17.7234 10.3818 17.1748 9.40496 16.1981L2.77663 9.56895C2.07325 8.86547 1.67814 7.91138 1.67822 6.91658C1.6783 5.92177 2.07356 4.96775 2.77705 4.26437C3.48053 3.56099 4.43462 3.16589 5.42942 3.16596C6.42423 3.16604 7.37825 3.5613 8.08163 4.26479L14.7091 10.8923C15.1288 11.3245 15.3615 11.9045 15.357 12.5069C15.3526 13.1093 15.1112 13.6857 14.6852 14.1117C14.2592 14.5376 13.6826 14.7788 13.0802 14.7831C12.4778 14.7874 11.8979 14.5545 11.4658 14.1348L5.42746 8.09562C5.2711 7.93936 5.18321 7.72739 5.18313 7.50633C5.18305 7.28527 5.27079 7.07324 5.42705 6.91687C5.5833 6.7605 5.79528 6.67261 6.01633 6.67254C6.23739 6.67246 6.44943 6.7602 6.6058 6.91645L12.645 12.9556C12.7623 13.0731 12.9215 13.1391 13.0876 13.1392C13.2536 13.1393 13.4129 13.0734 13.5304 12.956C13.6478 12.8387 13.7139 12.6795 13.714 12.5134C13.714 12.3474 13.6482 12.1881 13.5308 12.0706L6.9033 5.44312C6.70982 5.24953 6.4801 5.09594 6.22726 4.99113C5.97442 4.88632 5.70342 4.83233 5.42972 4.83226C5.15602 4.83218 4.88498 4.88601 4.63209 4.99068C4.37919 5.09535 4.14939 5.24881 3.9558 5.44229C3.56482 5.83304 3.34509 6.3631 3.34493 6.91586C3.34478 7.46863 3.56421 7.99881 3.95496 8.38979L10.5833 15.0181C11.2475 15.6822 12.1482 16.0553 13.0875 16.0553C14.0267 16.0553 14.9275 15.6822 15.5916 15.0181V15.019Z" fill="#4F4F4F"/>
</g>
<defs>
<clipPath id="clip0_1147_8778">
<rect width="20" height="20" fill="white" transform="translate(0 0.381454)"/>
</clipPath>
</defs>
</svg>
