<svg width="37" height="35" viewBox="0 0 37 35" fill="none" xmlns="http://www.w3.org/2000/svg">
<g id="Group 14191">
<path id="Vector" d="M29.34 18.7621V26.0024C29.34 29.7683 26.2837 32.8247 22.5177 32.8247H8.51604C4.75005 32.8247 1.69373 29.7683 1.69373 26.0024V12.0007C1.69373 8.23473 4.75005 5.17841 8.51604 5.17841H22.5177" stroke="white" stroke-width="2.4" stroke-linecap="round" stroke-linejoin="round"/>
<g id="Group">
<path id="Vector_2" d="M15.5125 12.6628V25.3496" stroke="white" stroke-width="2.4" stroke-linecap="round" stroke-linejoin="round"/>
<path id="Vector_3" d="M9.1687 19.0065H21.8555" stroke="white" stroke-width="2.4" stroke-linecap="round" stroke-linejoin="round"/>
</g>
<path id="Vector_4" d="M27.3817 3.43777L28.74 5.92376C29.3104 6.96431 30.168 7.82199 31.2086 8.39233L33.6946 9.7507L31.2086 11.1091C30.168 11.6794 29.3104 12.5371 28.74 13.5776L27.3817 16.0636L26.0233 13.5776C25.4529 12.5371 24.5953 11.6794 23.5547 11.1091L21.0687 9.7507L23.5547 8.39233C24.5953 7.82199 25.4529 6.96431 26.0233 5.92376L27.3817 3.43777Z" stroke="white" stroke-width="1.6" stroke-linecap="round" stroke-linejoin="round"/>
<path id="Vector_5" d="M33.4768 0.825287L34.0863 1.93984C34.3432 2.40569 34.7263 2.78882 35.1922 3.04569L36.3067 3.65522L35.1922 4.26474C34.7263 4.52161 34.3432 4.90474 34.0863 5.37059L33.4768 6.48515L32.8673 5.37059C32.6104 4.90474 32.2273 4.52161 31.7614 4.26474L30.6469 3.65522L31.7614 3.04569C32.2273 2.78882 32.6104 2.40569 32.8673 1.93984L33.4768 0.825287Z" fill="white"/>
</g>
</svg>
