<svg width="54" height="54" viewBox="0 0 54 54" fill="none" xmlns="http://www.w3.org/2000/svg">
<path id="Vector" d="M27 52C30.283 52 33.5339 51.3534 36.5671 50.097C39.6002 48.8406 42.3562 46.9991 44.6777 44.6777C46.9991 42.3562 48.8406 39.6002 50.097 36.5671C51.3534 33.5339 52 30.283 52 27C52 23.717 51.3534 20.4661 50.097 17.4329C48.8406 14.3998 46.9991 11.6438 44.6777 9.32233C42.3562 7.00087 39.6002 5.15938 36.5671 3.90301C33.5339 2.64664 30.283 2 27 2M27 52C23.717 52 20.4661 51.3534 17.4329 50.097C14.3998 48.8406 11.6438 46.9991 9.32233 44.6777C7.00087 42.3562 5.15938 39.6002 3.90301 36.5671C2.64664 33.5339 2 30.283 2 27C2 23.717 2.64664 20.4661 3.90301 17.4329C5.15938 14.3998 7.00087 11.6438 9.32233 9.32233C11.6438 7.00087 14.3998 5.15938 17.4329 3.90301C20.4661 2.64664 23.717 2 27 2M27 52C34.6694 52 37.9472 37.6583 37.9472 27C37.9472 16.3417 34.6694 2 27 2M27 52C19.3306 52 16.0528 37.6583 16.0528 27C16.0528 16.3417 19.3306 2 27 2M3.38889 18.6667H50.6111M3.38889 35.3333H50.6111" stroke="#4F4F4F" stroke-width="4" stroke-linecap="round" stroke-linejoin="round"/>
</svg>
