<svg width="52" height="50" viewBox="0 0 52 50" fill="none" xmlns="http://www.w3.org/2000/svg">
<path id="Vector" d="M50.6204 8.09874L26.632 0.102599C26.2216 -0.0341996 25.778 -0.0341996 25.3676 0.102599L1.37917 8.09874C0.981124 8.23143 0.634922 8.48601 0.389606 8.8264C0.14429 9.16679 0.012298 9.57575 0.0123291 9.99533V29.9857C0.0123291 30.5159 0.222941 31.0243 0.597833 31.3992C0.972725 31.7741 1.48119 31.9847 2.01137 31.9847C2.54154 31.9847 3.05 31.7741 3.4249 31.3992C3.79979 31.0243 4.0104 30.5159 4.0104 29.9857V12.769L12.4039 15.5651C10.1738 19.1679 9.46468 23.5084 10.4321 27.6336C11.3996 31.7588 13.9646 35.3314 17.5639 37.567C13.066 39.3312 9.17791 42.5221 6.33428 46.885C6.18639 47.1048 6.08367 47.3518 6.03208 47.6117C5.98049 47.8716 5.98107 48.1391 6.03378 48.3987C6.08649 48.6583 6.19028 48.9049 6.33911 49.124C6.48795 49.3432 6.67887 49.5306 6.90076 49.6753C7.12266 49.8201 7.37111 49.9192 7.63167 49.9671C7.89224 50.015 8.15972 50.0106 8.41856 49.9541C8.67741 49.8977 8.92246 49.7904 9.13947 49.6385C9.35648 49.4865 9.54113 49.2929 9.68267 49.069C13.4483 43.2918 19.3955 39.9809 25.9998 39.9809C32.6041 39.9809 38.5512 43.2918 42.3169 49.069C42.6101 49.5048 43.063 49.8076 43.5778 49.9121C44.0925 50.0166 44.6277 49.9144 45.0676 49.6274C45.5075 49.3405 45.8168 48.8919 45.9287 48.3788C46.0405 47.8656 45.9459 47.329 45.6653 46.885C42.8217 42.5221 38.9186 39.3312 34.4357 37.567C38.0316 35.3315 40.5941 31.7612 41.5614 27.639C42.5287 23.5169 41.8218 19.1794 39.5957 15.5776L50.6204 11.9044C51.0186 11.7718 51.3648 11.5173 51.6102 11.1769C51.8556 10.8365 51.9877 10.4275 51.9877 10.0078C51.9877 9.58819 51.8556 9.17919 51.6102 8.83879C51.3648 8.49839 51.0186 8.24385 50.6204 8.11124V8.09874ZM37.994 23.9886C37.9945 25.8848 37.5455 27.7541 36.6837 29.4432C35.8219 31.1323 34.5719 32.5929 33.0362 33.7054C31.5006 34.8178 29.7231 35.5503 27.8495 35.8427C25.976 36.1351 24.0598 35.9792 22.2582 35.3877C20.4566 34.7962 18.8209 33.7859 17.4854 32.4398C16.1498 31.0937 15.1524 29.4502 14.5751 27.644C13.9977 25.8378 13.8568 23.9204 14.164 22.0493C14.4711 20.1781 15.2175 18.4064 16.342 16.8795L25.3676 19.8781C25.778 20.0149 26.2216 20.0149 26.632 19.8781L35.6576 16.8795C37.1764 18.9385 37.9952 21.4301 37.994 23.9886ZM25.9998 15.885L8.33332 9.99533L25.9998 4.10567L43.6663 9.99533L25.9998 15.885Z" fill="#4F4F4F"/>
</svg>
