<svg width="25" height="24" viewBox="0 0 25 24" fill="none" xmlns="http://www.w3.org/2000/svg">
<path d="M13.9077 9.19656C14.3225 9.59134 14.5413 10.084 14.5712 10.6526C14.5806 11.1157 14.4119 11.4935 14.1663 11.875C14.1938 11.8898 14.2214 11.9046 14.2499 11.9198C14.7641 12.2008 15.2313 12.5909 15.5413 13.0938C15.5618 13.1261 15.5823 13.1585 15.6034 13.1918C15.8782 13.6391 16.0931 14.1878 16.0413 14.7188C15.9885 14.9212 15.8434 15.0805 15.6663 15.1875C15.4994 15.2363 15.3542 15.2579 15.1793 15.2582C15.1568 15.2583 15.1343 15.2584 15.1112 15.2585C15.0366 15.2589 14.962 15.2587 14.8875 15.2586C14.8337 15.2587 14.7799 15.2589 14.7262 15.2591C14.5806 15.2595 14.4351 15.2595 14.2896 15.2595C14.1679 15.2594 14.0462 15.2596 13.9245 15.2597C13.6373 15.2601 13.3502 15.2601 13.063 15.2599C12.7671 15.2597 12.4713 15.2601 12.1755 15.2608C11.9211 15.2613 11.6666 15.2615 11.4122 15.2614C11.2605 15.2613 11.1087 15.2614 10.9569 15.2619C10.8142 15.2622 10.6714 15.2622 10.5287 15.2618C10.4765 15.2617 10.4242 15.2618 10.372 15.262C10.0143 15.2637 9.70992 15.2579 9.437 14.9959C9.28436 14.8246 9.27243 14.6533 9.27856 14.4307C9.3244 14.004 9.48825 13.6204 9.6975 13.25C9.71486 13.2189 9.73223 13.1878 9.75012 13.1557C9.89084 12.9198 10.0704 12.7279 10.26 12.5313C10.2786 12.5107 10.2972 12.4901 10.3164 12.4689C10.5496 12.2177 10.8637 12.0306 11.1663 11.875C11.1497 11.8478 11.1331 11.8206 11.116 11.7925C10.8118 11.2841 10.6767 10.7796 10.8225 10.1875C10.9843 9.65359 11.2926 9.22709 11.7832 8.95508C11.9475 8.86925 12.1097 8.81548 12.2913 8.78128C12.3483 8.76968 12.3483 8.76968 12.4065 8.75784C12.95 8.7055 13.4862 8.84267 13.9077 9.19656ZM11.6877 9.67776C11.3879 9.99977 11.3037 10.3575 11.3148 10.7842C11.3367 11.132 11.4967 11.459 11.7527 11.698C12.0791 11.9411 12.4543 12.0672 12.8613 12.0168C13.2563 11.9401 13.5913 11.7382 13.8225 11.4063C14.0148 11.0269 14.0874 10.6184 13.9592 10.2051C13.823 9.8544 13.5942 9.58201 13.2561 9.41019C12.7107 9.18656 12.123 9.27628 11.6877 9.67776ZM10.5784 12.9591C10.2004 13.3549 9.83679 13.9574 9.80688 14.5196C9.81208 14.624 9.81208 14.624 9.87219 14.6778C9.97459 14.7335 10.0517 14.7306 10.1681 14.7307C10.2015 14.7309 10.2015 14.7309 10.2355 14.7311C10.3099 14.7315 10.3844 14.7312 10.4589 14.7309C10.5122 14.731 10.5656 14.7312 10.619 14.7314C10.764 14.7318 10.909 14.7317 11.0541 14.7314C11.2057 14.7311 11.3574 14.7314 11.5091 14.7315C11.7638 14.7317 12.0185 14.7314 12.2732 14.731C12.5678 14.7305 12.8624 14.7307 13.157 14.7312C13.4098 14.7316 13.6626 14.7317 13.9155 14.7314C14.0665 14.7313 14.2176 14.7312 14.3686 14.7316C14.5106 14.7318 14.6526 14.7316 14.7946 14.7311C14.8467 14.731 14.8989 14.731 14.9511 14.7312C15.0222 14.7315 15.0933 14.7312 15.1644 14.7307C15.2042 14.7306 15.244 14.7306 15.2851 14.7306C15.3919 14.718 15.4371 14.7034 15.51 14.625C15.5313 14.4355 15.4923 14.2817 15.4299 14.1035C15.4215 14.0791 15.4131 14.0546 15.4044 14.0294C15.2783 13.6755 15.0993 13.3786 14.8538 13.0938C14.8372 13.0727 14.8206 13.0516 14.8036 13.0299C14.5771 12.7498 14.2808 12.5482 13.9631 12.3848C13.9422 12.3738 13.9212 12.3628 13.8997 12.3515C13.8125 12.3089 13.7456 12.2804 13.6477 12.2857C13.5589 12.3174 13.4719 12.3521 13.385 12.3887C12.8557 12.5939 12.3409 12.5571 11.8225 12.3438C11.7916 12.3232 11.7606 12.3025 11.7288 12.2813C11.3067 12.2813 10.8683 12.6817 10.5784 12.9591Z" fill="#4F4F4F" stroke="#4F4F4F" stroke-width="0.3"/>
<path d="M15.5113 6.4687C15.6 6.50102 15.6843 6.54058 15.7691 6.58198C15.7925 6.59325 15.8159 6.60451 15.84 6.61612C16.0317 6.71005 16.2109 6.81565 16.3863 6.93745C16.4198 6.96017 16.4534 6.98289 16.488 7.0063C17.9958 8.04245 18.9323 9.64009 19.2641 11.4228C19.3084 11.6659 19.3287 11.907 19.3301 12.1539C19.3304 12.1795 19.3306 12.2052 19.3308 12.2317C19.3313 12.3139 19.3315 12.3962 19.3316 12.4785C19.3316 12.5066 19.3316 12.5347 19.3317 12.5636C19.3312 12.9664 19.3211 13.356 19.23 13.75C19.2243 13.7758 19.2186 13.8017 19.2128 13.8284C19.144 14.1372 19.0608 14.4338 18.9401 14.7265C18.91 14.8097 18.91 14.8097 18.9391 14.8797C18.9806 14.9383 19.0239 14.9937 19.0699 15.0488C19.2941 15.3482 19.328 15.6685 19.2925 16.0312C19.2245 16.3561 19.0503 16.5978 18.775 16.7792C18.5025 16.9465 18.1985 17.002 17.8824 16.9492C17.5915 16.8783 17.3506 16.7391 17.1675 16.5C16.9731 16.1737 16.8796 15.8452 16.9723 15.4661C17.0843 15.1453 17.2668 14.8839 17.5718 14.7246C17.8448 14.5992 18.1223 14.5488 18.4175 14.625C18.4302 14.5653 18.4302 14.5653 18.4431 14.5045C18.4729 14.3701 18.5091 14.2386 18.5475 14.1064C18.8076 13.1988 18.8802 12.1776 18.6675 11.25C18.6622 11.2258 18.6568 11.2016 18.6513 11.1767C18.5222 10.6091 18.3179 10.0746 18.0425 9.56245C18.0328 9.54399 18.0232 9.52552 18.0132 9.5065C17.7661 9.03753 17.4407 8.6302 17.0738 8.24995C17.0476 8.22183 17.0215 8.19371 16.9946 8.16475C16.6007 7.75251 16.1298 7.43285 15.6307 7.16169C15.6023 7.14625 15.5739 7.13081 15.5447 7.11489C15.4881 7.0843 15.4314 7.05397 15.3746 7.02392C15.3487 7.01001 15.3228 6.9961 15.2961 6.98176C15.2612 6.96328 15.2612 6.96328 15.2256 6.94443C15.1675 6.9062 15.1675 6.9062 15.105 6.81245C15.0892 6.69066 15.0947 6.6404 15.1636 6.53706C15.2819 6.4153 15.3483 6.43564 15.5113 6.4687ZM17.5878 15.4333C17.4971 15.5668 17.4683 15.7284 17.4905 15.8876C17.5518 16.0981 17.6682 16.2517 17.8511 16.371C18.0762 16.4521 18.2206 16.4519 18.4383 16.3554C18.5891 16.2666 18.6956 16.1302 18.7613 15.9687C18.7904 15.754 18.7824 15.5736 18.6515 15.3963C18.506 15.2316 18.3631 15.1394 18.1402 15.1152C17.8894 15.1403 17.7478 15.2407 17.5878 15.4333Z" fill="#4F4F4F" stroke="#4F4F4F" stroke-width="0.3"/>
<path d="M13.5977 5.20702C13.8039 5.35367 13.9602 5.57882 14.0294 5.82275C14.0932 6.21228 14.0529 6.57145 13.8204 6.89843C13.5994 7.16142 13.3246 7.32017 12.9823 7.35241C12.6565 7.36283 12.401 7.28133 12.1368 7.09374C12.1097 7.07634 12.0827 7.05894 12.0548 7.04101C11.9092 6.8993 11.8202 6.71185 11.7306 6.53124C10.8166 6.71632 9.98886 7.04456 9.23055 7.59374C9.2117 7.60713 9.19285 7.62051 9.17343 7.6343C8.68034 7.98718 8.23044 8.43795 7.8868 8.93749C7.85321 8.98541 7.85321 8.98541 7.81893 9.03429C7.31253 9.78762 6.96426 10.6326 6.8243 11.5312C6.82073 11.5535 6.81716 11.5758 6.81349 11.5988C6.77467 11.8543 6.75991 12.1069 6.76144 12.3653C6.76155 12.3864 6.76167 12.4074 6.76179 12.4291C6.76257 12.5346 6.76423 12.64 6.76684 12.7456C6.76747 12.7843 6.76811 12.8231 6.76876 12.863C6.76965 12.8977 6.77054 12.9324 6.77146 12.9681C6.75957 13.0844 6.71993 13.1669 6.6368 13.25C6.54136 13.2635 6.45093 13.2642 6.35555 13.25C6.27225 13.1854 6.23898 13.1387 6.21942 13.0343C6.04316 11.3343 6.60666 9.62013 7.67001 8.29784C7.81748 8.11817 7.97626 7.9492 8.1368 7.78124C8.15666 7.76009 8.17652 7.73895 8.19698 7.71716C8.35156 7.55667 8.5241 7.41846 8.6993 7.28124C8.71605 7.26802 8.7328 7.25481 8.75005 7.24119C9.27625 6.82919 9.85854 6.52212 10.4806 6.28124C10.5014 6.27316 10.5222 6.26508 10.5437 6.25675C10.9016 6.1211 11.3456 5.96874 11.7306 5.96874C11.7325 5.93329 11.7344 5.89784 11.7364 5.86132C11.7732 5.57961 11.9534 5.36278 12.1681 5.18749C12.6187 4.89765 13.1506 4.94208 13.5977 5.20702ZM12.42 5.69335C12.2913 5.83757 12.241 5.98027 12.2169 6.16991C12.2415 6.37039 12.31 6.53266 12.461 6.66991C12.6235 6.79468 12.7764 6.8304 12.9806 6.81249C13.1997 6.74207 13.3626 6.62612 13.4786 6.42773C13.5385 6.21991 13.537 6.0664 13.4474 5.86718C13.3403 5.67406 13.2126 5.57802 13.002 5.51562C12.7808 5.47679 12.5844 5.54247 12.42 5.69335Z" fill="#4F4F4F" stroke="#4F4F4F" stroke-width="0.3"/>
<path d="M7.88462 14.5083C8.14286 14.7284 8.32023 15.0015 8.35434 15.3437C8.3579 15.6583 8.30258 15.9376 8.10434 16.1874C8.18138 16.3616 8.31896 16.4879 8.44809 16.6249C8.4629 16.6408 8.4777 16.6567 8.49295 16.673C8.86511 17.0692 9.28829 17.387 9.76059 17.6562C9.77993 17.6673 9.79928 17.6785 9.8192 17.6899C10.535 18.0988 11.344 18.3627 12.1668 18.4374C12.1874 18.4393 12.208 18.4412 12.2293 18.4431C13.4648 18.5497 14.7456 18.2814 15.8083 17.6333C15.832 17.619 15.8556 17.6046 15.88 17.5898C15.9255 17.5619 15.9706 17.5335 16.0154 17.5046C16.1535 17.419 16.2496 17.3844 16.4168 17.4062C16.5214 17.4818 16.5656 17.5272 16.5926 17.6542C16.5618 17.8054 16.4744 17.897 16.3511 17.9836C16.2725 18.0316 16.1929 18.0767 16.1122 18.121C16.0829 18.1373 16.0537 18.1536 16.0236 18.1704C15.4469 18.4882 14.8622 18.7198 14.2196 18.8691C14.1935 18.8752 14.1675 18.8812 14.1406 18.8875C13.688 18.9868 13.2398 19.0127 12.7782 19.0116C12.7509 19.0116 12.7236 19.0116 12.6955 19.0116C12.2387 19.0105 11.801 18.9763 11.3543 18.8749C11.3282 18.8692 11.3021 18.8636 11.2751 18.8577C10.2079 18.6208 9.1846 18.0897 8.38559 17.3437C8.34212 17.3057 8.29851 17.268 8.25473 17.2304C8.07944 17.0769 7.92968 16.9242 7.7938 16.7343C7.73293 16.6541 7.73293 16.6541 7.66684 16.5937C7.5644 16.5846 7.5644 16.5846 7.49558 16.6065C7.15601 16.686 6.80466 16.6313 6.50425 16.4609C6.27965 16.31 6.09812 16.0657 6.02439 15.8041C5.96066 15.4093 5.99621 15.0743 6.2175 14.7347C6.3956 14.5068 6.67189 14.3507 6.95444 14.2914C7.28845 14.2522 7.60924 14.3063 7.88462 14.5083ZM6.62204 15.12C6.5124 15.271 6.52447 15.4461 6.54184 15.6249C6.59629 15.81 6.69692 15.9241 6.85434 16.0312C7.02408 16.1104 7.21003 16.1281 7.39011 16.0733C7.58024 15.9886 7.70237 15.8531 7.80356 15.6738C7.85436 15.4655 7.83025 15.3128 7.72934 15.1249C7.61424 14.9523 7.49042 14.8731 7.29184 14.8124C6.98622 14.7749 6.81355 14.8952 6.62204 15.12Z" fill="#4F4F4F" stroke="#4F4F4F" stroke-width="0.3"/>
</svg>
