<svg width="16" height="16" viewBox="0 0 16 16" fill="none" xmlns="http://www.w3.org/2000/svg">
<g clip-path="url(#clip0_8314_10698)">
<path d="M2.80732 10.9957C2.84471 10.9956 2.8821 10.9954 2.92062 10.9953C2.96174 10.9952 3.00286 10.9952 3.04523 10.9952C3.08932 10.9951 3.13342 10.9949 3.17751 10.9948C3.29883 10.9944 3.42015 10.9942 3.54147 10.9941C3.67227 10.9939 3.80307 10.9936 3.93387 10.9932C4.24992 10.9925 4.56596 10.992 4.88201 10.9916C4.97132 10.9915 5.06063 10.9914 5.14995 10.9912C5.70486 10.9904 6.25977 10.9897 6.81469 10.9894C6.94323 10.9893 7.07177 10.9892 7.20031 10.9891C7.23226 10.9891 7.2642 10.989 7.29712 10.989C7.8141 10.9886 8.33107 10.9876 8.84805 10.9863C9.37916 10.9849 9.91027 10.9842 10.4414 10.984C10.7394 10.9839 11.0375 10.9836 11.3356 10.9825C11.5895 10.9817 11.8435 10.9813 12.0975 10.9817C12.2269 10.9818 12.3563 10.9818 12.4857 10.981C13.2644 10.9765 13.8639 11.0224 14.4604 11.5822C14.9028 12.042 15.0206 12.5766 15.0101 13.1914C15.0019 13.4069 14.9659 13.5837 14.8755 13.7813C14.8532 13.8314 14.8532 13.8314 14.8305 13.8826C14.5798 14.3948 14.1619 14.7445 13.6255 14.9375C13.384 15.004 13.1567 15.0089 12.9072 15.0082C12.8631 15.0083 12.819 15.0084 12.775 15.0085C12.6545 15.0089 12.534 15.0088 12.4135 15.0086C12.2833 15.0086 12.1531 15.0089 12.023 15.0091C11.7681 15.0095 11.5133 15.0095 11.2585 15.0095C11.0513 15.0094 10.8441 15.0095 10.6369 15.0096C10.5926 15.0096 10.5926 15.0096 10.5475 15.0097C10.4875 15.0097 10.4276 15.0097 10.3676 15.0098C9.8055 15.0101 9.24341 15.01 8.68131 15.0099C8.1675 15.0097 7.65368 15.01 7.13986 15.0106C6.61185 15.0112 6.08384 15.0115 5.55583 15.0114C5.25957 15.0113 4.9633 15.0114 4.66703 15.0118C4.4148 15.0122 4.16257 15.0123 3.91034 15.0119C3.78174 15.0117 3.65316 15.0117 3.52457 15.012C3.40665 15.0124 3.28874 15.0123 3.17082 15.0118C3.10839 15.0117 3.04595 15.0121 2.98352 15.0124C2.41378 15.009 1.92286 14.8074 1.52096 14.4035C1.06746 13.9066 0.974632 13.3652 0.994713 12.7145C1.00615 12.5362 1.0527 12.3822 1.12545 12.2188C1.13677 12.1915 1.14809 12.1642 1.15975 12.1361C1.37608 11.6587 1.77046 11.3135 2.25057 11.1181C2.44095 11.0473 2.6032 10.9962 2.80732 10.9957ZM2.23873 12.3516C2.03671 12.615 1.99534 12.8927 2.0317 13.2188C2.09097 13.4734 2.2308 13.6738 2.44003 13.8292C2.73821 14.0122 3.07934 14.0092 3.41911 14.008C3.48044 14.0081 3.48044 14.0081 3.54301 14.0083C3.65559 14.0085 3.76816 14.0084 3.88074 14.0082C4.0025 14.008 4.12427 14.0083 4.24603 14.0084C4.48421 14.0087 4.72238 14.0087 4.96056 14.0085C5.1542 14.0083 5.34785 14.0083 5.5415 14.0084C5.58291 14.0084 5.58291 14.0084 5.62516 14.0084C5.68125 14.0084 5.73734 14.0085 5.79344 14.0085C6.31887 14.0087 6.84429 14.0084 7.36972 14.0081C7.82013 14.0078 8.27053 14.0079 8.72094 14.0082C9.24455 14.0085 9.76815 14.0086 10.2918 14.0084C10.3476 14.0084 10.4035 14.0084 10.4594 14.0084C10.4869 14.0084 10.5144 14.0084 10.5427 14.0084C10.736 14.0083 10.9293 14.0084 11.1227 14.0085C11.3584 14.0087 11.5941 14.0087 11.8298 14.0083C11.95 14.0082 12.0702 14.0081 12.1903 14.0083C12.3208 14.0085 12.4513 14.0083 12.5818 14.008C12.6195 14.0081 12.6571 14.0082 12.696 14.0084C13.0864 14.0066 13.412 13.9653 13.7135 13.7001C13.902 13.5002 13.976 13.2715 13.9848 13C13.975 12.7073 13.8897 12.4865 13.6871 12.2736C13.3723 11.9937 12.9835 11.9906 12.5818 11.9921C12.5409 11.992 12.5 11.9919 12.4579 11.9918C12.3453 11.9915 12.2327 11.9917 12.1202 11.9919C11.9984 11.992 11.8766 11.9918 11.7549 11.9916C11.5167 11.9913 11.2785 11.9914 11.0403 11.9916C10.8467 11.9917 10.653 11.9917 10.4594 11.9917C10.418 11.9916 10.418 11.9916 10.3757 11.9916C10.3196 11.9916 10.2636 11.9916 10.2075 11.9916C9.68204 11.9914 9.15661 11.9916 8.63118 11.9919C8.18077 11.9922 7.73037 11.9922 7.27996 11.9919C6.75635 11.9915 6.23275 11.9914 5.70914 11.9916C5.65326 11.9916 5.59738 11.9916 5.5415 11.9917C5.51401 11.9917 5.48652 11.9917 5.45819 11.9917C5.26488 11.9917 5.07156 11.9916 4.87825 11.9915C4.64252 11.9913 4.40679 11.9914 4.17106 11.9917C4.05089 11.9919 3.93072 11.9919 3.81056 11.9917C3.68007 11.9915 3.5496 11.9918 3.41911 11.9921C3.38144 11.9919 3.34377 11.9918 3.30495 11.9917C2.89483 11.9936 2.5327 12.0399 2.23873 12.3516Z" fill="#4F4F4F"/>
<path d="M7.99229 0.99009C8.01575 0.990147 8.03921 0.990204 8.06339 0.990263C8.40556 0.991662 8.73014 1.00593 9.0626 1.09361C9.10398 1.10326 9.14536 1.1129 9.18675 1.12254C9.92703 1.3071 10.5632 1.71501 11.1251 2.21861C11.1498 2.24064 11.1745 2.26268 11.1999 2.28538C11.5447 2.6115 11.8138 3.01825 12.0314 3.43736C12.0502 3.47313 12.0691 3.5089 12.0886 3.54575C12.2022 3.76929 12.2839 3.99739 12.3536 4.23814C12.3612 4.2642 12.3688 4.29027 12.3766 4.31712C12.4837 4.70646 12.5119 5.09036 12.5099 5.49204C12.5098 5.52724 12.5098 5.52724 12.5097 5.56314C12.5083 5.90532 12.494 6.2299 12.4064 6.56236C12.3967 6.60374 12.3871 6.64512 12.3774 6.6865C12.1028 7.78789 11.3482 8.73909 10.4024 9.34556C9.65411 9.78971 8.87927 10.014 8.00791 10.0096C7.97272 10.0095 7.97272 10.0095 7.93682 10.0094C7.59464 10.008 7.27006 9.99378 6.9376 9.90611C6.89622 9.89646 6.85484 9.88681 6.81345 9.87718C6.07317 9.69261 5.437 9.2847 4.8751 8.78111C4.85041 8.75907 4.82571 8.73704 4.80027 8.71433C4.45551 8.38821 4.18643 7.98147 3.96885 7.56236C3.94051 7.5087 3.94051 7.5087 3.9116 7.45396C3.79801 7.23042 3.71634 7.00232 3.64658 6.76157C3.63901 6.73551 3.63143 6.70944 3.62362 6.68259C3.51651 6.29325 3.48831 5.90935 3.49033 5.50767C3.49039 5.48421 3.49045 5.46074 3.49051 5.43657C3.49191 5.09439 3.50617 4.76981 3.59385 4.43736C3.6035 4.39598 3.61314 4.35459 3.62278 4.31321C3.80735 3.57293 4.21525 2.93676 4.71885 2.37486C4.74088 2.35016 4.76292 2.32547 4.78562 2.30003C5.11174 1.95527 5.51849 1.68618 5.9376 1.46861C5.99126 1.44027 5.99126 1.44027 6.046 1.41135C6.26954 1.29776 6.49764 1.2161 6.73838 1.14634C6.76445 1.13876 6.79051 1.13118 6.81737 1.12338C7.2067 1.01627 7.5906 0.988065 7.99229 0.99009ZM5.4376 3.12486C4.69631 3.93193 4.48697 4.86887 4.53135 5.93736C4.54527 6.09843 4.57949 6.25106 4.6251 6.40611C4.63573 6.44425 4.64637 6.4824 4.65733 6.52171C4.92874 7.41388 5.56121 8.14792 6.3751 8.59361C7.18969 9.02179 8.13084 9.10696 9.01299 8.85075C9.90835 8.56956 10.6452 7.94808 11.0939 7.12486C11.4825 6.35886 11.6204 5.42749 11.3751 4.59361C11.3645 4.55546 11.3538 4.51731 11.3429 4.47801C11.0715 3.58583 10.439 2.85179 9.6251 2.40611C8.20039 1.65722 6.54582 2.00403 5.4376 3.12486Z" fill="#4F4F4F"/>
<path d="M8.18812 2.75C8.34351 2.82214 8.41693 2.91501 8.50062 3.0625C8.5139 3.16578 8.5139 3.16578 8.51074 3.27913C8.51036 3.29995 8.50998 3.32076 8.50959 3.3422C8.50873 3.38711 8.50761 3.43203 8.50625 3.47693C8.50425 3.54833 8.50332 3.61967 8.50271 3.6911C8.50092 3.89403 8.49835 4.0969 8.49238 4.29976C8.44382 4.87465 8.44382 4.87465 8.62236 5.3881C8.72696 5.48161 8.84223 5.5361 8.96937 5.59375C9.04869 5.65287 9.04869 5.65287 9.11378 5.70959C9.13394 5.72597 9.1541 5.74234 9.17488 5.75921C9.19407 5.77486 9.21327 5.79051 9.23304 5.80664C9.25308 5.82289 9.27313 5.83915 9.29377 5.85589C9.35251 5.90368 9.41095 5.95182 9.46937 6C9.48956 6.01629 9.50975 6.03258 9.53054 6.04936C9.55978 6.07345 9.55978 6.07345 9.58961 6.09802C9.60706 6.11223 9.6245 6.12643 9.64248 6.14107C9.74687 6.24725 9.76049 6.35102 9.76234 6.49609C9.75917 6.65883 9.74123 6.7533 9.62562 6.875C9.48368 7.00984 9.35298 7.01614 9.16603 7.0227C8.9182 6.96802 8.71595 6.76381 8.52601 6.60351C8.35741 6.4628 8.18769 6.32421 8.01429 6.18945C7.55609 5.83156 7.55609 5.83156 7.50062 5.6875C7.49435 5.60238 7.49144 5.52044 7.49154 5.43532C7.49133 5.41 7.49112 5.38467 7.49091 5.35859C7.49031 5.27494 7.49019 5.19131 7.49012 5.10766C7.48992 5.04944 7.48971 4.99121 7.48949 4.93299C7.48912 4.81094 7.489 4.68889 7.48904 4.56685C7.48905 4.41062 7.48819 4.25441 7.48712 4.09819C7.48642 3.97793 7.4863 3.85767 7.48633 3.7374C7.48625 3.67981 7.48598 3.62222 7.4855 3.56464C7.48488 3.484 7.48506 3.4034 7.48544 3.32277C7.48509 3.29909 7.48474 3.27542 7.48438 3.25102C7.48628 3.08969 7.52476 2.99968 7.62562 2.875C7.79035 2.7185 7.97275 2.721 8.18812 2.75Z" fill="#4F4F4F"/>
<path d="M3.14062 12.4839C3.17327 12.4837 3.20591 12.4834 3.23955 12.4832C3.34721 12.4827 3.45484 12.483 3.5625 12.4834C3.63745 12.4834 3.7124 12.4832 3.78735 12.4831C3.94434 12.4829 4.10132 12.4832 4.2583 12.4838C4.45943 12.4845 4.66055 12.4841 4.86168 12.4833C5.01642 12.4829 5.17116 12.483 5.3259 12.4833C5.40005 12.4834 5.47421 12.4833 5.54837 12.483C5.65205 12.4827 5.7557 12.4832 5.85938 12.4839C5.90526 12.4835 5.90526 12.4835 5.95207 12.4831C6.13001 12.4853 6.23437 12.5052 6.375 12.625C6.48839 12.7444 6.50969 12.8401 6.51562 13C6.50969 13.16 6.48839 13.2557 6.375 13.375C6.20727 13.518 6.06965 13.518 5.85938 13.5162C5.82673 13.5164 5.79409 13.5167 5.76045 13.5169C5.65279 13.5174 5.54516 13.5171 5.4375 13.5166C5.36255 13.5167 5.2876 13.5169 5.21265 13.517C5.05566 13.5172 4.89868 13.5169 4.7417 13.5163C4.54057 13.5156 4.33945 13.516 4.13832 13.5168C3.98358 13.5172 3.82884 13.5171 3.6741 13.5168C3.59995 13.5167 3.52579 13.5168 3.45163 13.5171C3.34795 13.5174 3.2443 13.5169 3.14062 13.5162C3.09474 13.5166 3.09474 13.5166 3.04793 13.517C2.86999 13.5148 2.76563 13.4949 2.625 13.375C2.51161 13.2557 2.49031 13.16 2.48438 13C2.49031 12.8401 2.51161 12.7444 2.625 12.625C2.79273 12.4821 2.93035 12.4821 3.14062 12.4839Z" fill="#4F4F4F"/>
</g>
<defs>
<clipPath id="clip0_8314_10698">
<rect width="16" height="16" fill="white"/>
</clipPath>
</defs>
</svg>
