<svg width="26" height="32" viewBox="0 0 26 32" fill="none" xmlns="http://www.w3.org/2000/svg">
<g id="Group 14195">
<path id="Vector" d="M23.1161 7.68091L21.0161 6.52891C20.2681 6.12091 19.6521 5.50892 19.2441 4.76092L18.0961 2.65691C17.9521 2.40091 17.6841 2.24092 17.3921 2.24092C17.1001 2.24092 16.8321 2.40091 16.6921 2.65691L15.8281 4.23291L15.5401 4.76092C15.3681 5.07692 15.1601 5.36891 14.9161 5.62891C14.5881 5.98891 14.2041 6.29291 13.7681 6.52891L11.6681 7.68091C11.4081 7.82091 11.2521 8.08891 11.2521 8.38091C11.2521 8.67291 11.4081 8.94492 11.6681 9.08492L13.7681 10.2329C14.5201 10.6449 15.1321 11.2569 15.5401 12.0049L16.6921 14.1089C16.8321 14.3649 17.1001 14.5249 17.3921 14.5249C17.6841 14.5249 17.9521 14.3649 18.0961 14.1089L19.1321 12.2089L19.2441 12.0049C19.5721 11.4129 20.0201 10.9049 20.5681 10.5169C20.7121 10.4129 20.8601 10.3169 21.0161 10.2329L23.1161 9.08492C23.3761 8.94492 23.5321 8.67291 23.5321 8.38091C23.5321 8.08891 23.3761 7.82091 23.1161 7.68091ZM20.2481 8.82891C20.1761 8.86891 20.1041 8.90891 20.0361 8.95291C19.5281 9.25291 19.0721 9.62892 18.6841 10.0609C18.3561 10.4129 18.0721 10.8089 17.8401 11.2369L17.3921 12.0569L16.9441 11.2369C16.3881 10.2169 15.5561 9.38491 14.5361 8.82891L13.7161 8.38091L14.5361 7.93291C15.1841 7.58091 15.7561 7.11292 16.2281 6.56092C16.5041 6.24492 16.7401 5.90091 16.9441 5.52891L17.1481 5.1489L17.3921 4.70491L17.8401 5.52891C18.0041 5.82491 18.1881 6.1049 18.3961 6.3689C18.4721 6.4649 18.5481 6.5609 18.6321 6.6489C19.0881 7.1649 19.6361 7.59691 20.2481 7.93291L21.0681 8.38091L20.2481 8.82891Z" fill="white"/>
<path id="Vector_2" d="M23.2832 0.294044L23.8272 1.29006C24.0552 1.70607 24.3992 2.05005 24.8152 2.27805L25.8112 2.82205L24.8152 3.36607C24.3992 3.59407 24.0552 3.93805 23.8272 4.35405L23.2832 5.35005L22.7392 4.35405C22.5112 3.93805 22.1672 3.59407 21.7512 3.36607L20.7552 2.82205L21.7512 2.27805C22.1672 2.05005 22.5112 1.70607 22.7392 1.29006L23.2832 0.294044Z" fill="white"/>
<path id="Vector_3" d="M20.5686 10.5162C20.0206 10.9042 19.5726 11.4122 19.2446 12.0042L19.1326 12.2082C19.3246 14.3962 18.7166 16.3762 17.3046 18.1242C16.4446 19.1842 15.6926 20.2922 15.3286 21.6202C15.2126 22.0482 15.1326 22.4842 15.0326 22.9362H6.66464C6.56464 22.4962 6.48464 22.0522 6.36864 21.6202C6.02864 20.3962 5.38864 19.3402 4.58464 18.3642C2.36464 15.6842 1.86864 12.6802 3.25264 9.50022C4.51264 6.61622 6.82064 4.97223 9.96064 4.63223C11.7846 4.43623 13.4446 4.77622 14.9166 5.62823C15.1606 5.36823 15.3686 5.07623 15.5406 4.76023L15.8286 4.23223C13.1926 2.70423 9.92864 2.44423 6.86864 3.71223C3.35264 5.17223 0.892638 8.82823 0.852638 12.6362C0.828638 15.2122 1.62464 17.4882 3.30864 19.4402C4.24464 20.5282 4.85664 21.7642 4.97664 23.2042C5.03664 23.9202 5.00464 24.6442 5.01664 25.3642C5.04064 26.4802 5.54464 27.2802 6.56864 27.7522C6.66464 27.7962 6.75664 27.9242 6.78464 28.0282C7.23264 29.7282 8.29264 30.8082 10.0046 31.2362C10.1366 31.2682 10.2686 31.2962 10.4046 31.3282H11.2926C11.3246 31.3122 11.3566 31.2922 11.3926 31.2842C13.2766 30.9522 14.4286 29.8402 14.9166 28.0042C14.9406 27.9042 15.0366 27.7962 15.1286 27.7522C16.1486 27.2802 16.6566 26.4802 16.6766 25.3642C16.6846 24.8562 16.6406 24.3442 16.6886 23.8402C16.7486 23.1922 16.8286 22.5362 16.9966 21.9042C17.2486 20.9322 17.8166 20.1162 18.4606 19.3522C19.7206 17.8522 20.4926 16.1322 20.7486 14.1802C20.9126 12.9162 20.8566 11.6922 20.5686 10.5162ZM11.0006 29.6522C9.94864 29.7402 8.84464 28.9882 8.52464 27.9442H13.1486C13.0486 28.7402 12.0006 29.5722 11.0006 29.6522ZM15.0046 25.5002C14.9726 25.9642 14.6166 26.2722 14.1206 26.2762C12.8646 26.2802 11.6086 26.2762 10.3486 26.2762H7.63264C7.01664 26.2722 6.68864 25.9482 6.68464 25.3402C6.68064 25.1082 6.68464 24.8802 6.68464 24.6282H15.0086C15.0086 24.9322 15.0246 25.2162 15.0046 25.5002Z" fill="white"/>
</g>
</svg>
