<svg width="16" height="16" viewBox="0 0 16 16" fill="none" xmlns="http://www.w3.org/2000/svg">
<g clip-path="url(#clip0_8314_10704)">
<path d="M7.09591 -0.0126804C7.11757 -0.0128949 7.13924 -0.0131094 7.16156 -0.0133304C7.23287 -0.0139002 7.30415 -0.0137815 7.37545 -0.0136036C7.42523 -0.0137462 7.475 -0.013912 7.52477 -0.0141C7.62898 -0.0143789 7.73318 -0.0143036 7.83739 -0.0139927C7.97067 -0.0136337 8.10393 -0.0142652 8.23721 -0.0151776C8.33997 -0.015752 8.44272 -0.0157422 8.54549 -0.0155639C8.59461 -0.0155592 8.64374 -0.0157475 8.69286 -0.0161355C8.76167 -0.0166026 8.83044 -0.0162671 8.89925 -0.0157322C8.95788 -0.0157244 8.95788 -0.0157244 9.01768 -0.0157165C9.17351 0.00711146 9.27331 0.0743637 9.36857 0.198585C9.41122 0.2931 9.42622 0.375227 9.43979 0.477974C9.49179 0.885581 9.49179 0.885581 9.69694 1.22506C9.87426 1.33618 10.1277 1.45782 10.3426 1.42923C10.4232 1.39986 10.4917 1.35976 10.5652 1.31538C10.5953 1.29729 10.6255 1.2792 10.6566 1.26057C10.688 1.24159 10.7193 1.22262 10.7516 1.20307C10.8137 1.16556 10.8759 1.12812 10.9382 1.09077C10.9657 1.07411 10.9932 1.05745 11.0216 1.04029C11.1545 0.965598 11.2871 0.94663 11.4371 0.968696C11.5744 1.02877 11.671 1.09705 11.7769 1.20257C11.8054 1.23084 11.834 1.2591 11.8634 1.28823C11.894 1.31899 11.9246 1.34977 11.9552 1.38056C11.987 1.4123 12.0188 1.44402 12.0506 1.47572C12.117 1.54203 12.1833 1.60851 12.2495 1.6751C12.3341 1.76029 12.4192 1.84505 12.5044 1.92969C12.5701 1.99504 12.6356 2.06062 12.701 2.12626C12.7322 2.1576 12.7636 2.18887 12.795 2.22007C12.8389 2.26373 12.8825 2.30773 12.926 2.35174C12.9509 2.37664 12.9757 2.40155 13.0013 2.42721C13.1056 2.55192 13.1417 2.67393 13.136 2.83723C13.1049 3.02604 12.9898 3.1866 12.8873 3.34431C12.873 3.36642 12.8588 3.38854 12.8441 3.41132C12.8153 3.45554 12.7861 3.49946 12.7563 3.54304C12.6772 3.65894 12.6772 3.65894 12.6579 3.79353C12.6676 3.82039 12.6772 3.84726 12.6871 3.87495C12.6912 3.8961 12.6953 3.91725 12.6996 3.93904C12.7383 4.13503 12.7943 4.32385 12.9371 4.4687C13.149 4.57379 13.3798 4.60888 13.6112 4.64826C13.8079 4.68209 13.9281 4.7157 14.0502 4.88094C14.1039 4.9901 14.1055 5.06854 14.106 5.19C14.1063 5.2225 14.1063 5.2225 14.1066 5.25566C14.1072 5.32696 14.1071 5.39825 14.1069 5.46955C14.107 5.51932 14.1072 5.5691 14.1074 5.61887C14.1077 5.72308 14.1076 5.82728 14.1073 5.93149C14.1069 6.06477 14.1076 6.19802 14.1085 6.3313C14.109 6.43406 14.109 6.53682 14.1089 6.63958C14.1089 6.68871 14.109 6.73783 14.1094 6.78696C14.1099 6.85577 14.1096 6.92454 14.109 6.99335C14.109 7.05197 14.109 7.05197 14.109 7.11178C14.0862 7.26761 14.0189 7.36741 13.8947 7.46267C13.8002 7.50532 13.7181 7.52031 13.6153 7.53388C13.2077 7.58588 13.2077 7.58588 12.8682 7.79104C12.7571 7.96836 12.6355 8.22175 12.6641 8.43674C12.6934 8.51733 12.7335 8.58583 12.7779 8.65925C12.796 8.68944 12.8141 8.71963 12.8327 8.75074C12.8517 8.78206 12.8707 8.81338 12.8902 8.84565C12.9277 8.90782 12.9652 8.97003 13.0025 9.0323C13.0192 9.05981 13.0358 9.08733 13.053 9.11568C13.1277 9.24855 13.1467 9.3812 13.1246 9.5312C13.0645 9.6685 12.9962 9.76511 12.8907 9.87095C12.8625 9.89951 12.8342 9.92808 12.8051 9.95751C12.7743 9.9881 12.7435 10.0187 12.7127 10.0493C12.681 10.0811 12.6493 10.1129 12.6176 10.1447C12.5513 10.2111 12.4848 10.2774 12.4182 10.3436C12.333 10.4282 12.2482 10.5133 12.1636 10.5985C12.0983 10.6642 12.0327 10.7297 11.967 10.7951C11.9357 10.8263 11.9044 10.8577 11.8732 10.8891C11.8296 10.933 11.7856 10.9766 11.7416 11.0201C11.7167 11.045 11.6917 11.0698 11.6661 11.0954C11.5353 11.2048 11.4525 11.2187 11.2808 11.2187C11.2808 11.724 11.2808 12.2293 11.2808 12.7499C11.3427 12.7706 11.4046 12.7912 11.4683 12.8124C11.5225 12.8397 11.5759 12.8685 11.6285 12.8986C11.6581 12.9155 11.6877 12.9324 11.7182 12.9498C11.7492 12.9676 11.7802 12.9855 11.8121 13.0039C11.844 13.022 11.8759 13.0401 11.9088 13.0588C12.0487 13.1385 12.1882 13.2188 12.326 13.3022C12.3458 13.314 12.3657 13.3259 12.3861 13.3381C12.4372 13.3688 12.4881 13.4 12.5389 13.4313C12.6401 13.4754 12.6781 13.4745 12.7808 13.4374C12.8598 13.3939 12.9337 13.3453 13.0091 13.296C13.3123 13.1303 13.7277 13.1402 14.0583 13.2148C14.4969 13.3722 14.762 13.6605 14.9621 14.0696C15.0965 14.38 15.0795 14.8179 14.9664 15.1308C14.7762 15.5487 14.4764 15.7893 14.0621 15.9687C13.7274 16.0668 13.3056 16.0348 12.9923 15.8922C12.6086 15.677 12.3849 15.3809 12.227 14.9728C12.2183 14.9062 12.2183 14.9062 12.2337 14.7921C12.2507 14.6441 12.2534 14.5114 12.1871 14.3749C12.0207 14.211 11.7893 14.1213 11.5806 14.023C11.3969 13.9341 11.2189 13.8352 11.0404 13.7363C10.9811 13.7036 10.9214 13.6715 10.8617 13.6395C10.8246 13.6194 10.7874 13.5992 10.7503 13.579C10.7178 13.5615 10.6852 13.544 10.6516 13.5259C10.521 13.4425 10.429 13.3472 10.3433 13.2187C10.3376 13.1375 10.3355 13.0597 10.3363 12.9786C10.3362 12.9542 10.3362 12.9298 10.3362 12.9046C10.3363 12.824 10.3368 12.7433 10.3372 12.6627C10.3374 12.6067 10.3375 12.5508 10.3375 12.4949C10.3378 12.3477 10.3384 12.2005 10.3391 12.0534C10.3397 11.9032 10.34 11.753 10.3403 11.6028C10.341 11.3081 10.342 11.0134 10.3433 10.7187C10.3271 10.7259 10.3109 10.7332 10.2942 10.7407C10.2201 10.7737 10.146 10.8068 10.0719 10.8398C10.0463 10.8512 10.0208 10.8626 9.99453 10.8743C9.96966 10.8854 9.94478 10.8965 9.91916 10.9079C9.89513 10.9186 9.8711 10.9294 9.84634 10.9404C9.79392 10.9631 9.74047 10.9833 9.68678 11.0027C9.61515 11.0271 9.61515 11.0271 9.58876 11.1156C9.58121 11.1508 9.57366 11.1859 9.56588 11.2221C9.55708 11.2605 9.54828 11.299 9.53921 11.3386C9.53051 11.3793 9.52187 11.4201 9.51327 11.4609C9.496 11.5402 9.47839 11.6195 9.46041 11.6987C9.44914 11.7516 9.44914 11.7516 9.43764 11.8056C9.39332 11.9458 9.3255 12.0536 9.21603 12.1519C9.07435 12.207 8.93705 12.1972 8.78671 12.1933C8.68165 12.1914 8.57659 12.1894 8.46835 12.1874C8.47866 12.5381 8.48897 12.8887 8.4996 13.2499C8.60272 13.3015 8.70585 13.3531 8.8121 13.4062C9.12018 13.6258 9.31389 13.9158 9.40585 14.2812C9.41943 14.3832 9.42227 14.4831 9.42147 14.5859C9.4213 14.6131 9.42112 14.6404 9.42093 14.6684C9.40997 15.068 9.25187 15.3601 8.98141 15.6459C8.65234 15.9566 8.27884 16.0177 7.84774 16.0106C7.46219 15.9935 7.15924 15.8 6.89999 15.5253C6.59581 15.1515 6.55179 14.7441 6.59335 14.2812C6.67542 13.9146 6.88946 13.6282 7.1871 13.4062C7.29022 13.3546 7.39335 13.3031 7.4996 13.2499C7.50991 12.8993 7.52022 12.5487 7.53085 12.1874C7.3233 12.1924 7.3233 12.1924 7.1158 12.1987C6.93661 12.2008 6.8251 12.1888 6.6871 12.0624C6.60434 11.9455 6.57873 11.8519 6.56161 11.7105C6.55529 11.673 6.54896 11.6354 6.54245 11.5967C6.52966 11.5188 6.5191 11.4406 6.51095 11.3621C6.48652 11.2327 6.4642 11.129 6.3746 11.0312C6.1547 10.889 5.90268 10.8025 5.65585 10.7187C5.65613 10.7496 5.65641 10.7805 5.65669 10.8123C5.65923 11.1038 5.6611 11.3953 5.66233 11.6869C5.66298 11.8367 5.66386 11.9866 5.66528 12.1364C5.66664 12.2811 5.66739 12.4258 5.66771 12.5705C5.66794 12.6256 5.66839 12.6807 5.66907 12.7359C5.66998 12.8132 5.6701 12.8906 5.67004 12.9679C5.67049 12.9906 5.67094 13.0133 5.6714 13.0367C5.67012 13.1952 5.63022 13.2841 5.53085 13.4062C5.45387 13.4627 5.45387 13.4627 5.36752 13.5092C5.33554 13.5268 5.30357 13.5443 5.27062 13.5624C5.23661 13.5804 5.20261 13.5985 5.16757 13.6171C5.13262 13.6362 5.09766 13.6552 5.06165 13.6749C4.99095 13.7134 4.92015 13.7518 4.84925 13.7899C4.76125 13.8374 4.67359 13.8854 4.58615 13.9339C4.5619 13.9474 4.53765 13.9608 4.51267 13.9747C4.46667 14.0004 4.42078 14.0263 4.37502 14.0524C4.27507 14.1092 4.17695 14.1619 4.0704 14.2053C3.96365 14.2531 3.89109 14.2884 3.8121 14.3749C3.78438 14.5095 3.78262 14.633 3.78415 14.7697C3.78499 15.1198 3.5878 15.4014 3.35641 15.6459C3.02734 15.9566 2.65384 16.0177 2.22274 16.0106C1.83719 15.9935 1.53424 15.8 1.27499 15.5253C0.970811 15.1515 0.926787 14.7441 0.96835 14.2812C1.04756 13.9274 1.26032 13.61 1.5621 13.4062C1.9575 13.1846 2.34593 13.117 2.79586 13.2099C2.9534 13.265 3.08964 13.3418 3.22299 13.442C3.30499 13.4798 3.35058 13.4605 3.4371 13.4374C3.51447 13.4015 3.51447 13.4015 3.59201 13.3554C3.62141 13.3386 3.65081 13.3218 3.6811 13.3045C3.71208 13.2865 3.74307 13.2685 3.77499 13.2499C3.83944 13.213 3.9039 13.1761 3.96835 13.1392C4.03085 13.1032 4.09335 13.0672 4.15585 13.0312C4.25272 12.9756 4.34974 12.9203 4.44687 12.8652C4.46738 12.8534 4.4879 12.8415 4.50904 12.8294C4.64877 12.7499 4.64877 12.7499 4.71835 12.7499C4.71835 12.2446 4.71835 11.7393 4.71835 11.2187C4.63585 11.2084 4.55335 11.1981 4.46835 11.1874C4.39988 11.147 4.39988 11.147 4.34663 11.0946C4.32594 11.0748 4.30526 11.055 4.28395 11.0346C4.2623 11.0129 4.24065 10.9911 4.21835 10.9687C4.19503 10.9462 4.1717 10.9238 4.14767 10.9006C4.06973 10.8252 3.99271 10.749 3.91586 10.6726C3.87395 10.6309 3.87395 10.6309 3.8312 10.5884C3.7726 10.5301 3.71403 10.4718 3.65551 10.4134C3.5807 10.3387 3.50561 10.2644 3.43044 10.1901C3.35832 10.1187 3.28653 10.047 3.21469 9.97529C3.18777 9.94876 3.16085 9.92222 3.13312 9.89489C3.10828 9.86995 3.08344 9.84502 3.05784 9.81933C3.02504 9.7867 3.02504 9.7867 2.99157 9.75341C2.89131 9.632 2.85769 9.50776 2.86325 9.35017C2.89433 9.16135 3.0094 9.00079 3.1119 8.84309C3.12617 8.82097 3.14043 8.79886 3.15513 8.77607C3.1839 8.73185 3.21314 8.68793 3.24287 8.64436C3.322 8.52846 3.322 8.52846 3.34127 8.39387C3.33165 8.367 3.32202 8.34013 3.3121 8.31245C3.30798 8.2913 3.30386 8.27014 3.29962 8.24835C3.26089 8.05237 3.20493 7.86355 3.0621 7.7187C2.85017 7.6136 2.61938 7.57852 2.38803 7.53913C2.19128 7.5053 2.07109 7.4717 1.94898 7.30645C1.89533 7.1973 1.89375 7.11886 1.89322 6.99739C1.89301 6.97572 1.89279 6.95406 1.89257 6.93173C1.892 6.86043 1.89212 6.78915 1.8923 6.71784C1.89216 6.66807 1.89199 6.6183 1.8918 6.56852C1.89152 6.46431 1.8916 6.36011 1.89191 6.2559C1.89227 6.12262 1.89164 5.98937 1.89073 5.85609C1.89015 5.75333 1.89016 5.65057 1.89034 5.54781C1.89034 5.49869 1.89016 5.44956 1.88977 5.40044C1.8893 5.33162 1.88964 5.26286 1.89017 5.19405C1.89018 5.15496 1.89018 5.11588 1.89019 5.07561C1.91302 4.91979 1.98027 4.81999 2.10449 4.72472C2.199 4.68207 2.28113 4.66708 2.38388 4.65351C2.79148 4.60151 2.79148 4.60151 3.13096 4.39635C3.24208 4.21904 3.36372 3.96564 3.33513 3.75065C3.30576 3.67006 3.26566 3.60156 3.22128 3.52814C3.20319 3.49795 3.18511 3.46776 3.16647 3.43665C3.13801 3.38967 3.13801 3.38967 3.10897 3.34174C3.07146 3.27958 3.03402 3.21736 2.99667 3.1551C2.98001 3.12758 2.96336 3.10007 2.94619 3.07172C2.8715 2.93884 2.85253 2.80619 2.8746 2.6562C2.93467 2.51889 3.00295 2.42228 3.10847 2.31644C3.13674 2.28788 3.16501 2.25932 3.19413 2.22989C3.2249 2.19929 3.25568 2.1687 3.28646 2.13813C3.3182 2.10633 3.34992 2.07452 3.38163 2.0427C3.44794 1.97625 3.51441 1.90998 3.58101 1.84382C3.66619 1.75916 3.75095 1.6741 3.83559 1.58889C3.90095 1.5232 3.96652 1.45774 4.03216 1.39234C4.0635 1.36106 4.09478 1.32971 4.12598 1.29829C4.16964 1.25439 4.21363 1.21083 4.25764 1.16727C4.28255 1.14244 4.30746 1.11761 4.33312 1.09202C4.45782 0.987729 4.57984 0.951587 4.74313 0.957344C4.93194 0.988422 5.09251 1.10349 5.25021 1.206C5.28338 1.2274 5.28338 1.2274 5.31723 1.24923C5.36144 1.278 5.40536 1.30724 5.44894 1.33697C5.56484 1.41609 5.56484 1.41609 5.69943 1.43537C5.7263 1.42574 5.75317 1.41612 5.78085 1.4062C5.802 1.40208 5.82315 1.39796 5.84494 1.39371C6.04093 1.35499 6.22975 1.29902 6.3746 1.1562C6.47969 0.944262 6.51478 0.713474 6.55417 0.482124C6.588 0.28538 6.6216 0.165191 6.78685 0.0430785C6.896 -0.0105728 6.97444 -0.0121554 7.09591 -0.0126804ZM7.4371 0.937446C7.37035 1.19629 7.37035 1.1963 7.30438 1.45534C7.1939 1.87462 7.1939 1.87462 7.00778 1.99091C6.8899 2.0375 6.77108 2.076 6.64999 2.11323C6.40629 2.18997 6.18131 2.28999 5.95691 2.41219C5.81442 2.48549 5.70385 2.52057 5.54387 2.49295C5.38505 2.44195 5.24749 2.35184 5.10702 2.26362C5.0755 2.24438 5.04398 2.22515 5.0115 2.20533C4.93433 2.15815 4.85747 2.11052 4.78085 2.06245C4.59351 2.21751 4.42259 2.38581 4.25155 2.55854C4.22422 2.58601 4.19689 2.61349 4.16873 2.64179C4.10186 2.70902 4.03507 2.77632 3.96835 2.8437C4.08235 3.05563 4.20029 3.26244 4.33029 3.46503C4.4028 3.62444 4.43365 3.75809 4.37833 3.92844C4.33711 4.02241 4.29232 4.11362 4.24569 4.20502C4.11884 4.46535 4.01379 4.71548 3.94015 4.99543C3.89422 5.12701 3.83778 5.21819 3.71432 5.28706C3.42767 5.38276 3.1361 5.45645 2.84335 5.5312C2.84335 5.90245 2.84335 6.2737 2.84335 6.6562C3.1022 6.72295 3.1022 6.72295 3.36125 6.78892C3.78053 6.8994 3.78053 6.8994 3.89682 7.08552C3.9434 7.20339 3.98191 7.32222 4.01913 7.44331C4.09588 7.687 4.19589 7.91198 4.3181 8.13638C4.40647 8.30819 4.42868 8.43727 4.3746 8.62495C4.33703 8.71463 4.29065 8.79608 4.23983 8.87885C4.22761 8.8996 4.21538 8.92034 4.20279 8.94172C4.1797 8.98084 4.15643 9.01985 4.13286 9.05868C4.07668 9.1529 4.02277 9.24845 3.96835 9.3437C4.22616 9.60151 4.48397 9.85932 4.7496 10.1249C4.96338 10.0083 5.16729 9.89368 5.37094 9.76301C5.52496 9.69294 5.6622 9.66042 5.82748 9.71153C5.91204 9.74805 5.99376 9.78809 6.07577 9.83002C6.31991 9.94867 6.56007 10.0495 6.82076 10.1256C6.98115 10.1742 7.10874 10.228 7.19296 10.379C7.28866 10.6656 7.36236 10.9572 7.4371 11.2499C7.80835 11.2499 8.1796 11.2499 8.5621 11.2499C8.62885 10.9911 8.62885 10.9911 8.69482 10.732C8.8053 10.3128 8.8053 10.3128 8.99142 10.1965C9.1093 10.1499 9.22812 10.1114 9.34921 10.0742C9.59291 9.99742 9.81789 9.8974 10.0423 9.7752C10.2141 9.68683 10.343 9.6659 10.5308 9.7187C10.6441 9.77094 10.6441 9.77094 10.7496 9.83588C10.7844 9.85699 10.8192 9.8781 10.8551 9.89985C10.8925 9.92257 10.9298 9.94529 10.9683 9.9687C11.0612 10.0203 11.154 10.0718 11.2496 10.1249C11.5074 9.86713 11.7652 9.60932 12.0308 9.3437C11.9142 9.12992 11.7996 8.92601 11.6689 8.72236C11.5964 8.56295 11.5656 8.4293 11.6209 8.25895C11.6621 8.16498 11.7069 8.07377 11.7535 7.98237C11.8804 7.72205 11.9854 7.47191 12.059 7.19196C12.105 7.06038 12.1614 6.9692 12.2849 6.90034C12.5715 6.80463 12.8631 6.73094 13.1558 6.6562C13.1558 6.28495 13.1558 5.9137 13.1558 5.5312C12.897 5.46444 12.897 5.46444 12.638 5.39848C12.2187 5.28799 12.2187 5.28799 12.1024 5.10187C12.0558 4.984 12.0173 4.86517 11.9801 4.74409C11.9033 4.50039 11.8033 4.27541 11.6811 4.05101C11.6078 3.90852 11.5727 3.79795 11.6003 3.63797C11.6513 3.47915 11.7415 3.34158 11.8297 3.20112C11.8585 3.15384 11.8585 3.15384 11.888 3.1056C11.9351 3.02842 11.9828 2.95157 12.0308 2.87495C11.8758 2.6876 11.7075 2.51669 11.5348 2.34565C11.5073 2.31832 11.4798 2.29098 11.4515 2.26282C11.3843 2.19596 11.317 2.12917 11.2496 2.06245C11.0377 2.17644 10.8309 2.29439 10.6283 2.42438C10.4689 2.4969 10.3352 2.52774 10.1649 2.47243C10.0709 2.43121 9.97967 2.38642 9.88827 2.33979C9.62795 2.21294 9.37781 2.10789 9.09787 2.03425C8.96628 1.98832 8.8751 1.93187 8.80624 1.80842C8.71054 1.52176 8.63684 1.2302 8.5621 0.937446C8.19085 0.937446 7.8196 0.937446 7.4371 0.937446ZM1.97226 14.3476C1.91945 14.4826 1.91649 14.607 1.9371 14.7499C2.00469 14.8876 2.0745 14.9749 2.21835 15.0312C2.37595 15.0526 2.49431 15.0491 2.63827 14.9785C2.74324 14.8837 2.80252 14.8205 2.82199 14.6771C2.83029 14.4984 2.81111 14.3874 2.6871 14.2499C2.56719 14.1441 2.44854 14.1402 2.29452 14.1452C2.14881 14.1662 2.06673 14.2405 1.97226 14.3476ZM7.59726 14.3476C7.54445 14.4826 7.54149 14.607 7.5621 14.7499C7.62969 14.8876 7.6995 14.9749 7.84335 15.0312C8.00095 15.0526 8.11931 15.0491 8.26327 14.9785C8.36824 14.8837 8.42752 14.8205 8.44699 14.6771C8.45529 14.4984 8.43611 14.3874 8.3121 14.2499C8.19219 14.1441 8.07354 14.1402 7.91952 14.1452C7.77381 14.1662 7.69173 14.2405 7.59726 14.3476ZM13.2223 14.3476C13.1694 14.4826 13.1665 14.607 13.1871 14.7499C13.2547 14.8876 13.3245 14.9749 13.4683 15.0312C13.626 15.0526 13.7443 15.0491 13.8883 14.9785C13.9932 14.8837 14.0525 14.8205 14.072 14.6771C14.0803 14.4984 14.0611 14.3874 13.9371 14.2499C13.8172 14.1441 13.6985 14.1402 13.5445 14.1452C13.3988 14.1662 13.3167 14.2405 13.2223 14.3476Z" fill="#4F4F4F"/>
<path d="M9.61488 3.94324C9.66015 3.98256 9.70507 4.02229 9.74965 4.06238C9.7799 4.0866 9.81015 4.11081 9.84132 4.13575C10.283 4.50357 10.5911 5.12108 10.6559 5.68739C10.7134 6.47023 10.5741 7.14833 10.0934 7.78114C10.0782 7.8014 10.0631 7.82166 10.0475 7.84254C9.6522 8.33181 9.02095 8.65853 8.4059 8.74989C7.65097 8.79737 6.90784 8.69855 6.31764 8.18604C6.28398 8.15577 6.28398 8.15577 6.24965 8.12489C6.20427 8.08857 6.20427 8.08857 6.15797 8.05152C5.71627 7.6837 5.40821 7.06619 5.3434 6.49989C5.29021 5.77611 5.38419 5.0659 5.8473 4.48035C5.88736 4.43451 5.92769 4.3889 5.9684 4.34363C5.98262 4.32502 5.99684 4.30641 6.01149 4.28724C6.35518 3.84197 6.96884 3.53289 7.5166 3.44617C8.2582 3.3613 9.01601 3.46828 9.61488 3.94324ZM7.31215 4.53113C7.28769 4.54209 7.26324 4.55305 7.23805 4.56434C6.78083 4.79255 6.50244 5.19241 6.33973 5.66346C6.25417 6.02842 6.27764 6.44166 6.43715 6.78114C6.4481 6.80559 6.45906 6.83004 6.47035 6.85523C6.69856 7.31245 7.09842 7.59084 7.56947 7.75355C7.93443 7.83911 8.34767 7.81564 8.68715 7.65614C8.7116 7.64518 8.73605 7.63422 8.76124 7.62293C9.21846 7.39472 9.49685 6.99486 9.65956 6.52381C9.74512 6.15885 9.72165 5.74561 9.56215 5.40613C9.55119 5.38168 9.54023 5.35723 9.52894 5.33204C9.30073 4.87482 8.90087 4.59643 8.42982 4.43372C8.06487 4.34816 7.65162 4.37163 7.31215 4.53113Z" fill="#4F4F4F"/>
</g>
<defs>
<clipPath id="clip0_8314_10704">
<rect width="16" height="16" fill="white"/>
</clipPath>
</defs>
</svg>
