<svg width="16" height="16" viewBox="0 0 16 16" fill="none" xmlns="http://www.w3.org/2000/svg">
<path d="M4.87837 8.72222L6.33763 7.42511C6.41671 7.35482 6.45815 7.27176 6.46194 7.17594C6.46573 7.08013 6.42429 6.99274 6.33763 6.91378C6.24771 6.83433 6.15102 6.79389 6.04756 6.79244C5.9441 6.791 5.84742 6.83 5.7575 6.90944L4.178 8.31344C4.04692 8.43044 3.98137 8.5667 3.98137 8.72222C3.98137 8.87774 4.04692 9.01376 4.178 9.13028L5.7575 10.535C5.83658 10.6058 5.93056 10.6426 6.03944 10.6455C6.14831 10.6484 6.24771 10.6104 6.33763 10.5314C6.42429 10.4519 6.46817 10.3667 6.46925 10.2757C6.47033 10.1847 6.42646 10.0995 6.33763 10.0201L4.87837 8.72222ZM11.1216 8.72222L9.66237 10.0193C9.58329 10.0896 9.54185 10.1727 9.53806 10.2685C9.53427 10.3643 9.57571 10.4517 9.66237 10.5307C9.75229 10.6101 9.84898 10.6506 9.95244 10.652C10.0559 10.6534 10.1526 10.6144 10.2425 10.535L11.822 9.131C11.9531 9.014 12.0186 8.87774 12.0186 8.72222C12.0186 8.5667 11.9531 8.43069 11.822 8.31417L10.2417 6.90944C10.1626 6.83867 10.0686 6.80183 9.95975 6.79894C9.85087 6.79606 9.75175 6.83409 9.66237 6.91306C9.57571 6.9925 9.53183 7.07772 9.53075 7.16872C9.52967 7.25972 9.57354 7.34494 9.66237 7.42439L11.1216 8.72222ZM2.813 14.5C2.449 14.5 2.13917 14.3864 1.8835 14.1591C1.62783 13.9319 1.5 13.6567 1.5 13.3336V4.11083C1.5 3.78824 1.62783 3.51307 1.8835 3.28533C2.13917 3.05807 2.449 2.94444 2.813 2.94444H6.63175C6.55754 2.57563 6.65667 2.24269 6.92913 1.94561C7.20104 1.64854 7.558 1.5 8 1.5C8.45229 1.5 8.81467 1.64854 9.08713 1.94561C9.35958 2.24269 9.45356 2.57563 9.36906 2.94444H13.1878C13.5507 2.94444 13.8603 3.05807 14.1165 3.28533C14.3722 3.51259 14.5 3.788 14.5 4.11156V13.3336C14.5 13.6562 14.3722 13.9314 14.1165 14.1591C13.8608 14.3864 13.5513 14.5 13.1878 14.5H2.813ZM2.813 13.7778H13.1878C13.3124 13.7778 13.427 13.7316 13.5315 13.6391C13.636 13.5467 13.688 13.4446 13.6875 13.3329V4.11156C13.6875 4.00033 13.6355 3.89826 13.5315 3.80533C13.4275 3.71241 13.3127 3.66619 13.187 3.66667H2.813C2.68788 3.66667 2.57304 3.71289 2.4685 3.80533C2.36396 3.89778 2.31196 3.99985 2.3125 4.11156V13.3336C2.3125 13.4444 2.3645 13.5462 2.4685 13.6391C2.5725 13.732 2.68706 13.7783 2.81219 13.7778M8 3.26367C8.17604 3.26367 8.32175 3.21263 8.43713 3.11056C8.5525 3.00848 8.60992 2.87896 8.60938 2.722C8.60883 2.56504 8.55115 2.43576 8.43631 2.33417C8.32148 2.23257 8.17604 2.1813 8 2.18033C7.82396 2.17937 7.67852 2.23065 7.56369 2.33417C7.44885 2.43769 7.39117 2.56696 7.39062 2.722C7.39008 2.87704 7.44777 3.00656 7.56369 3.11056C7.6796 3.21456 7.82504 3.26559 8 3.26367Z" fill="#4F4F4F"/>
<path d="M2.813 13.7778H13.1878C13.3124 13.7778 13.427 13.7316 13.5315 13.6391C13.636 13.5467 13.688 13.4446 13.6875 13.3329V4.11156C13.6875 4.00033 13.6355 3.89826 13.5315 3.80533C13.4275 3.71241 13.3127 3.66619 13.187 3.66667H2.813C2.68788 3.66667 2.57304 3.71289 2.4685 3.80533C2.36396 3.89778 2.31196 3.99985 2.3125 4.11156V13.3336C2.3125 13.4444 2.3645 13.5462 2.4685 13.6391C2.5725 13.732 2.68706 13.7783 2.81219 13.7778M2.3125 13.7778V3.66667M4.87837 8.72222L6.33763 7.42511C6.41671 7.35482 6.45815 7.27176 6.46194 7.17594C6.46573 7.08013 6.42429 6.99274 6.33763 6.91378C6.24771 6.83433 6.15102 6.79389 6.04756 6.79244C5.9441 6.791 5.84742 6.83 5.7575 6.90944L4.178 8.31344C4.04692 8.43044 3.98137 8.5667 3.98137 8.72222C3.98137 8.87774 4.04692 9.01376 4.178 9.13028L5.7575 10.535C5.83658 10.6058 5.93056 10.6426 6.03944 10.6455C6.14831 10.6484 6.24771 10.6104 6.33763 10.5314C6.42429 10.4519 6.46817 10.3667 6.46925 10.2757C6.47033 10.1847 6.42646 10.0995 6.33763 10.0201L4.87837 8.72222ZM11.1216 8.72222L9.66237 10.0193C9.58329 10.0896 9.54185 10.1727 9.53806 10.2685C9.53427 10.3643 9.57571 10.4517 9.66237 10.5307C9.75229 10.6101 9.84898 10.6506 9.95244 10.652C10.0559 10.6534 10.1526 10.6144 10.2425 10.535L11.822 9.131C11.9531 9.014 12.0186 8.87774 12.0186 8.72222C12.0186 8.5667 11.9531 8.43069 11.822 8.31417L10.2417 6.90944C10.1626 6.83867 10.0686 6.80183 9.95975 6.79894C9.85087 6.79606 9.75175 6.83409 9.66237 6.91306C9.57571 6.9925 9.53183 7.07772 9.53075 7.16872C9.52967 7.25972 9.57354 7.34494 9.66237 7.42439L11.1216 8.72222ZM2.813 14.5C2.449 14.5 2.13917 14.3864 1.8835 14.1591C1.62783 13.9319 1.5 13.6567 1.5 13.3336V4.11083C1.5 3.78824 1.62783 3.51307 1.8835 3.28533C2.13917 3.05807 2.449 2.94444 2.813 2.94444H6.63175C6.55754 2.57563 6.65667 2.24269 6.92913 1.94561C7.20104 1.64854 7.558 1.5 8 1.5C8.45229 1.5 8.81467 1.64854 9.08713 1.94561C9.35958 2.24269 9.45356 2.57563 9.36906 2.94444H13.1878C13.5507 2.94444 13.8603 3.05807 14.1165 3.28533C14.3722 3.51259 14.5 3.788 14.5 4.11156V13.3336C14.5 13.6562 14.3722 13.9314 14.1165 14.1591C13.8608 14.3864 13.5513 14.5 13.1878 14.5H2.813ZM8 3.26367C8.17604 3.26367 8.32175 3.21263 8.43713 3.11056C8.5525 3.00848 8.60992 2.87896 8.60938 2.722C8.60883 2.56504 8.55115 2.43576 8.43631 2.33417C8.32148 2.23257 8.17604 2.1813 8 2.18033C7.82396 2.17937 7.67852 2.23065 7.56369 2.33417C7.44885 2.43769 7.39117 2.56696 7.39062 2.722C7.39008 2.87704 7.44777 3.00656 7.56369 3.11056C7.6796 3.21456 7.82504 3.26559 8 3.26367Z" stroke="#4F4F4F" stroke-width="0.5"/>
</svg>
