<svg width="25" height="24" viewBox="0 0 25 24" fill="none" xmlns="http://www.w3.org/2000/svg">
<g clip-path="url(#clip0_7580_36867)">
<path d="M8.02887 6.63701C8.06001 6.6369 8.09115 6.6368 8.12323 6.63669C8.17435 6.63672 8.17435 6.63672 8.2265 6.63676C8.26318 6.63669 8.29985 6.63661 8.33652 6.63651C8.43727 6.63629 8.53801 6.63624 8.63876 6.63622C8.74743 6.63617 8.8561 6.63597 8.96477 6.63578C9.20239 6.63541 9.44002 6.63525 9.67764 6.63513C9.82606 6.63505 9.97448 6.63493 10.1229 6.63481C10.534 6.63448 10.945 6.6342 11.3561 6.6341C11.3824 6.6341 11.4087 6.63409 11.4358 6.63408C11.4753 6.63408 11.4753 6.63408 11.5157 6.63407C11.5691 6.63405 11.6225 6.63404 11.676 6.63403C11.7157 6.63402 11.7157 6.63402 11.7563 6.63401C12.1856 6.6339 12.6148 6.63343 13.0441 6.63279C13.485 6.63214 13.9259 6.6318 14.3668 6.63177C14.6143 6.63174 14.8618 6.63159 15.1093 6.63109C15.32 6.63067 15.5308 6.63053 15.7416 6.63075C15.8491 6.63086 15.9565 6.63084 16.064 6.63045C16.1625 6.6301 16.2611 6.63014 16.3596 6.63047C16.4118 6.63055 16.464 6.63022 16.5162 6.62988C16.9542 6.63238 17.3298 6.77726 17.6478 7.08237C17.8224 7.27734 17.9577 7.50575 18.0182 7.76169C18.0229 7.78004 18.0277 7.79838 18.0325 7.81728C18.0508 7.93098 18.0488 8.04248 18.048 8.15745C18.048 8.18366 18.0479 8.20988 18.0479 8.23689C18.0476 8.32482 18.0472 8.41274 18.0468 8.50067C18.0466 8.56369 18.0465 8.62671 18.0463 8.68973C18.046 8.82552 18.0456 8.96131 18.0451 9.09709C18.0445 9.31199 18.0444 9.52689 18.0443 9.74179C18.0443 9.76894 18.0443 9.76894 18.0443 9.79663C18.0443 9.94566 18.0443 10.0947 18.0443 10.2437C18.0443 10.3779 18.0443 10.5121 18.0443 10.6463C18.0443 10.6654 18.0443 10.6845 18.0443 10.7042C18.0441 11.0138 18.0431 11.3233 18.0418 11.6329C18.0405 11.9511 18.0403 12.2693 18.0409 12.5875C18.0412 12.7661 18.0411 12.9445 18.0398 13.123C18.0385 13.2911 18.0386 13.4591 18.0396 13.6272C18.0397 13.6887 18.0394 13.7502 18.0386 13.8117C18.0343 14.15 18.0415 14.3838 18.2784 14.6389C18.3008 14.6614 18.3232 14.6838 18.3463 14.707C18.3788 14.7491 18.4107 14.7917 18.4414 14.8352C18.4626 14.8642 18.4626 14.8642 18.4843 14.8938C18.4985 14.9134 18.5128 14.9329 18.5275 14.9531C18.6319 15.0961 18.7375 15.238 18.8461 15.3779C18.8656 15.4031 18.8851 15.4283 18.9053 15.4543C18.9428 15.5027 18.9806 15.5509 19.0185 15.5989C19.2706 15.9241 19.3663 16.2118 19.3307 16.6211C19.2706 16.8905 19.108 17.0925 18.8806 17.2411C18.7094 17.3304 18.5635 17.3716 18.3707 17.3697C18.3387 17.3699 18.3387 17.3699 18.3061 17.3701C18.2349 17.3705 18.1637 17.3702 18.0925 17.3699C18.0409 17.3701 17.9892 17.3702 17.9376 17.3704C17.7958 17.3708 17.654 17.3707 17.5123 17.3705C17.3593 17.3703 17.2064 17.3707 17.0534 17.371C16.7538 17.3714 16.4542 17.3715 16.1546 17.3713C15.9111 17.3712 15.6676 17.3712 15.4241 17.3714C15.3722 17.3714 15.3722 17.3714 15.3191 17.3715C15.2487 17.3715 15.1784 17.3715 15.108 17.3716C14.6353 17.3718 14.1627 17.372 13.6901 17.3718C13.6716 17.3717 13.6531 17.3717 13.6341 17.3717C13.484 17.3717 13.334 17.3716 13.1839 17.3715C12.5987 17.3712 12.0134 17.3715 11.4282 17.3721C10.7705 17.3728 10.1128 17.3732 9.45504 17.373C9.10686 17.3729 8.75868 17.3729 8.4105 17.3734C8.1141 17.3738 7.8177 17.3738 7.5213 17.3734C7.37008 17.3731 7.21886 17.3731 7.06764 17.3735C6.92917 17.3739 6.7907 17.3737 6.65222 17.3732C6.60217 17.3731 6.55212 17.3732 6.50208 17.3735C6.147 17.3754 5.84368 17.3448 5.5768 17.0859C5.35438 16.8141 5.30307 16.5523 5.32492 16.2089C5.35812 15.9064 5.63062 15.6252 5.80922 15.394C6.00194 15.1429 6.19091 14.8893 6.37763 14.6337C6.42446 14.5703 6.42446 14.5703 6.46421 14.5257C6.58864 14.3787 6.61207 14.2719 6.60873 14.0823C6.60893 14.0559 6.60912 14.0296 6.60932 14.0025C6.60977 13.9147 6.60906 13.8269 6.60835 13.7391C6.60844 13.676 6.6086 13.6129 6.60883 13.5497C6.60917 13.414 6.609 13.2783 6.60842 13.1425C6.60752 12.9277 6.60777 12.713 6.60818 12.4982C6.60867 12.197 6.60859 11.8957 6.60807 11.5945C6.60804 11.5754 6.60801 11.5563 6.60797 11.5366C6.60792 11.5079 6.60792 11.5079 6.60787 11.4787C6.60741 11.2078 6.60711 10.937 6.607 10.6662C6.607 10.6471 6.60699 10.6281 6.60698 10.6084C6.60686 10.2903 6.60708 9.97209 6.60746 9.65392C6.60768 9.44056 6.60745 9.2272 6.60684 9.01384C6.60654 8.88091 6.60657 8.74798 6.60668 8.61505C6.60665 8.55358 6.60649 8.49211 6.60618 8.43064C6.60324 7.83569 6.60324 7.83569 6.69789 7.59763C6.71487 7.5528 6.71487 7.5528 6.73218 7.50705C6.91966 7.12203 7.21928 6.83899 7.62758 6.697C7.76159 6.65747 7.88897 6.63718 8.02887 6.63701ZM7.73696 7.59763C7.71271 7.61229 7.68845 7.62696 7.66347 7.64206C7.40821 7.90422 7.44492 8.22766 7.448 8.56872C7.44804 8.62953 7.44802 8.69034 7.44795 8.75115C7.44792 8.91351 7.44871 9.07585 7.44967 9.2382C7.45045 9.39074 7.45049 9.54327 7.45058 9.6958C7.4513 10.1414 7.45321 10.5871 7.45497 11.0327C7.45779 12.0287 7.46061 13.0246 7.46352 14.0508C10.6759 14.0508 13.8882 14.0508 17.1979 14.0508C17.2001 13.0537 17.2024 12.0566 17.2047 11.0293C17.2057 10.7143 17.2067 10.3994 17.2077 10.075C17.2081 9.79286 17.2081 9.79286 17.2083 9.51075C17.2084 9.38502 17.2088 9.2593 17.2094 9.13357C17.2102 8.97318 17.2104 8.8128 17.2103 8.6524C17.2103 8.59355 17.2105 8.5347 17.2109 8.47585C17.2115 8.39629 17.2113 8.31676 17.211 8.2372C17.2114 8.21423 17.2117 8.19125 17.212 8.16758C17.21 7.97287 17.1506 7.83359 17.0236 7.6865C16.8736 7.55796 16.7581 7.48495 16.5596 7.48459C16.5138 7.4844 16.5138 7.4844 16.4671 7.48422C16.4335 7.48422 16.3998 7.48423 16.3651 7.48423C16.3295 7.48413 16.2938 7.48403 16.2571 7.48393C16.158 7.48365 16.0588 7.48355 15.9596 7.48348C15.8528 7.48337 15.7459 7.48311 15.6391 7.48287C15.3809 7.48233 15.1227 7.48206 14.8645 7.48181C14.743 7.48169 14.6214 7.48155 14.4998 7.4814C14.0958 7.48094 13.6918 7.48054 13.2877 7.48034C13.1829 7.48029 13.078 7.48024 12.9731 7.48018C12.9471 7.48017 12.921 7.48016 12.8941 7.48014C12.4719 7.47992 12.0496 7.47922 11.6273 7.47834C11.1939 7.47743 10.7604 7.47694 10.327 7.47685C10.0836 7.47679 9.84019 7.47655 9.59679 7.47586C9.38951 7.47526 9.18223 7.47504 8.97495 7.47531C8.8692 7.47543 8.76346 7.47538 8.65771 7.47485C8.54302 7.47428 8.42834 7.47456 8.31364 7.47492C8.28029 7.47462 8.24694 7.47432 8.21257 7.47401C8.02202 7.47546 7.89972 7.497 7.73696 7.59763ZM6.8477 15.399C6.78238 15.518 6.70056 15.624 6.61928 15.7324C6.59066 15.7723 6.56213 15.8123 6.53372 15.8523C6.48054 15.9263 6.42589 15.9985 6.36902 16.0696C6.35613 16.0858 6.34325 16.102 6.32997 16.1186C6.2955 16.1615 6.26061 16.204 6.22568 16.2465C6.17424 16.3267 6.16248 16.3638 6.17836 16.457C6.24498 16.5236 6.28038 16.5183 6.37128 16.519C6.39068 16.5188 6.41009 16.5187 6.43008 16.5186C6.46104 16.5187 6.46104 16.5187 6.49262 16.5188C6.5625 16.519 6.63236 16.5188 6.70224 16.5186C6.75255 16.5187 6.80286 16.5188 6.85317 16.5189C6.99199 16.5191 7.13081 16.519 7.26962 16.5188C7.41911 16.5187 7.5686 16.5189 7.71809 16.5191C8.01116 16.5193 8.30423 16.5192 8.5973 16.5191C8.83538 16.519 9.07346 16.519 9.31155 16.519C9.36228 16.519 9.36228 16.519 9.41404 16.519C9.48274 16.5191 9.55144 16.5191 9.62014 16.5191C10.2467 16.5192 10.8732 16.5191 11.4997 16.5188C12.0721 16.5185 12.6445 16.5186 13.2168 16.5188C13.8594 16.5191 14.5019 16.5192 15.1445 16.5191C15.213 16.519 15.2814 16.519 15.3499 16.519C15.3835 16.519 15.4172 16.519 15.4519 16.519C15.6899 16.5189 15.9278 16.519 16.1657 16.5191C16.4555 16.5193 16.7453 16.5193 17.035 16.519C17.183 16.5188 17.331 16.5188 17.479 16.5189C17.6142 16.5191 17.7495 16.519 17.8848 16.5187C17.9339 16.5187 17.983 16.5187 18.0321 16.5188C18.0985 16.519 18.1649 16.5188 18.2313 16.5186C18.2604 16.5188 18.2604 16.5188 18.2901 16.519C18.3987 16.5209 18.3987 16.5209 18.483 16.457C18.4992 16.3841 18.4939 16.3385 18.4557 16.274C18.4151 16.2185 18.3726 16.1651 18.3292 16.1118C18.2964 16.0702 18.2636 16.0286 18.2309 15.9869C18.2138 15.9654 18.1967 15.9438 18.1792 15.9215C18.0953 15.814 18.0149 15.7041 17.9345 15.594C17.8906 15.534 17.8468 15.4744 17.8006 15.4162C17.7557 15.3517 17.7277 15.2994 17.6968 15.2286C17.6279 15.0895 17.5505 14.9808 17.4166 14.8984C17.1317 14.8159 16.8189 14.8364 16.525 14.8392C16.4013 14.8399 16.2776 14.8381 16.1539 14.8366C15.9119 14.8342 15.6699 14.8341 15.4279 14.8349C15.231 14.8355 15.0342 14.8353 14.8374 14.8345C14.8093 14.8344 14.7813 14.8343 14.7524 14.8342C14.6953 14.834 14.6383 14.8338 14.5813 14.8336C14.0471 14.8316 13.513 14.8324 12.9788 14.8342C12.4907 14.8356 12.0027 14.8338 11.5146 14.8304C11.0128 14.8269 10.511 14.8256 10.0092 14.8266C9.72768 14.8271 9.44626 14.8268 9.16479 14.8243C8.92512 14.8222 8.68555 14.8222 8.44589 14.8247C8.32371 14.8259 8.20172 14.8263 8.07956 14.8241C7.50716 14.8145 7.13829 14.845 6.8477 15.399Z" fill="#4F4F4F" stroke="#4F4F4F" stroke-width="0.2625"/>
<path d="M11.3119 8.27686C11.3363 8.27672 11.3606 8.27658 11.3857 8.27644C11.4662 8.27604 11.5468 8.27586 11.6274 8.27571C11.6833 8.27555 11.7393 8.27539 11.7952 8.27524C11.9126 8.27495 12.03 8.27479 12.1473 8.27469C12.2977 8.27454 12.4481 8.27389 12.5985 8.27311C12.7141 8.2726 12.8297 8.27246 12.9453 8.27241C13.0008 8.27233 13.0562 8.27211 13.1117 8.27175C13.1892 8.27129 13.2668 8.27134 13.3443 8.27152C13.3672 8.27126 13.3901 8.27101 13.4137 8.27075C13.5768 8.27192 13.6643 8.30823 13.7877 8.41798C13.8816 8.52528 13.872 8.64498 13.8706 8.78082C13.8598 8.88598 13.8248 8.94254 13.7535 9.01954C13.5996 9.134 13.4426 9.133 13.2568 9.13289C13.2347 9.13298 13.2125 9.13307 13.1898 9.13317C13.1169 9.13343 13.044 9.13348 12.971 9.13351C12.9202 9.1336 12.8694 9.13369 12.8185 9.13379C12.712 9.13395 12.6055 9.134 12.499 9.13399C12.3627 9.13398 12.2265 9.13436 12.0903 9.13483C11.9853 9.13513 11.8803 9.13519 11.7753 9.13517C11.7251 9.1352 11.6749 9.13532 11.6247 9.13554C11.5543 9.13581 11.484 9.13573 11.4136 9.13556C11.3931 9.13571 11.3725 9.13587 11.3513 9.13603C11.1864 9.13505 11.0437 9.11918 10.9149 9.00758C10.8007 8.87372 10.7901 8.79849 10.7935 8.62744C10.8071 8.48453 10.887 8.40031 10.9918 8.30861C11.0987 8.27298 11.2005 8.277 11.3119 8.27686Z" fill="#4F4F4F" stroke="#4F4F4F" stroke-width="0.2625"/>
</g>
<defs>
<clipPath id="clip0_7580_36867">
<rect width="14" height="14" fill="white" transform="translate(5.33203 5)"/>
</clipPath>
</defs>
</svg>
