<svg width="16" height="16" viewBox="0 0 16 16" fill="none" xmlns="http://www.w3.org/2000/svg">
<g clip-path="url(#clip0_8297_5522)">
<path d="M11.7896 8.61232C11.826 8.61197 11.8624 8.61161 11.9 8.61124C11.9767 8.61066 12.0535 8.61025 12.1303 8.61C12.2472 8.6094 12.3641 8.60745 12.481 8.60549C12.5559 8.60508 12.6307 8.60475 12.7056 8.60451C12.7403 8.60374 12.7749 8.60297 12.8107 8.60217C12.8436 8.60236 12.8766 8.60255 12.9105 8.60274C12.9534 8.6024 12.9534 8.6024 12.9972 8.60205C13.2564 8.66394 13.4521 8.87625 13.6341 9.05983C13.6583 9.08389 13.6825 9.10795 13.7075 9.13273C13.7868 9.2116 13.8657 9.29079 13.9446 9.37001C13.9999 9.42529 14.0553 9.48054 14.1106 9.53579C14.241 9.66604 14.3712 9.79653 14.5013 9.92711C14.6048 10.031 14.7086 10.1347 14.8125 10.2382C14.9563 10.3815 15.0999 10.5249 15.2433 10.6686C15.2978 10.7232 15.3524 10.7777 15.407 10.8321C15.4834 10.9083 15.5594 10.9847 15.6354 11.0612C15.6692 11.0946 15.6692 11.0946 15.7036 11.1287C15.8877 11.3152 16.0127 11.4688 16.0166 11.7404C16.0163 11.7664 16.0161 11.7925 16.0158 11.8193C16.016 11.8473 16.0163 11.8754 16.0165 11.9043C16.017 11.9965 16.0167 12.0887 16.0162 12.1809C16.0163 12.2455 16.0165 12.3101 16.0166 12.3746C16.0168 12.5099 16.0165 12.6452 16.0159 12.7805C16.0152 12.9529 16.0156 13.1253 16.0164 13.2977C16.0168 13.4311 16.0167 13.5645 16.0164 13.698C16.0163 13.7615 16.0164 13.825 16.0167 13.8885C16.0189 14.5013 15.9171 14.9993 15.479 15.46C15.1126 15.8172 14.677 16.0096 14.1653 16.0091C14.1361 16.0093 14.1068 16.0095 14.0767 16.0097C13.9806 16.0103 13.8845 16.0105 13.7883 16.0105C13.721 16.0107 13.6537 16.0109 13.5863 16.0111C13.4454 16.0115 13.3044 16.0116 13.1634 16.0116C12.9837 16.0116 12.8039 16.0124 12.6242 16.0135C12.4851 16.0142 12.3461 16.0143 12.207 16.0143C12.1408 16.0144 12.0746 16.0147 12.0084 16.0151C11.3859 16.0193 10.8835 15.9252 10.4147 15.4794C10.0145 15.0689 9.86515 14.6142 9.86557 14.051C9.86538 14.0091 9.86517 13.9672 9.86493 13.9254C9.86438 13.8122 9.86423 13.6991 9.86419 13.586C9.86415 13.5151 9.86401 13.4442 9.86385 13.3733C9.86327 13.1255 9.86301 12.8776 9.86306 12.6297C9.8631 12.3996 9.86244 12.1696 9.86145 11.9395C9.86063 11.7412 9.8603 11.5428 9.86034 11.3445C9.86036 11.2264 9.86019 11.1083 9.85952 10.9902C9.85891 10.879 9.85891 10.7678 9.85936 10.6565C9.85946 10.5969 9.85894 10.5373 9.8584 10.4777C9.86204 9.97049 10.0465 9.53179 10.3953 9.16506C10.7924 8.77785 11.2422 8.61651 11.7896 8.61232ZM11.675 9.89159C11.4386 9.94606 11.3129 10.0419 11.1865 10.2439C11.1021 10.4331 11.12 10.6473 11.1201 10.8501C11.12 10.8851 11.1199 10.9201 11.1198 10.9561C11.1195 11.0716 11.1194 11.187 11.1194 11.3025C11.1193 11.3829 11.1192 11.4633 11.1191 11.5437C11.1189 11.7122 11.1188 11.8807 11.1189 12.0492C11.1189 12.2435 11.1185 12.4378 11.1181 12.6321C11.1176 12.8196 11.1175 13.007 11.1175 13.1944C11.1175 13.274 11.1173 13.3535 11.1171 13.433C11.1168 13.5443 11.1169 13.6556 11.1171 13.7669C11.1169 13.7996 11.1167 13.8323 11.1165 13.866C11.1176 14.1258 11.1378 14.3561 11.3121 14.5625C11.5253 14.7311 11.7159 14.7538 11.985 14.7546C12.0078 14.7547 12.0306 14.7548 12.054 14.7549C12.1289 14.7552 12.2038 14.7552 12.2787 14.7553C12.3311 14.7554 12.3835 14.7555 12.4358 14.7556C12.5455 14.7558 12.6551 14.7558 12.7648 14.7558C12.9048 14.7558 13.0448 14.7562 13.1848 14.7568C13.293 14.7571 13.4011 14.7572 13.5093 14.7572C13.5609 14.7572 13.6125 14.7573 13.6641 14.7576C13.7365 14.7579 13.8088 14.7578 13.8812 14.7576C13.9223 14.7577 13.9634 14.7577 14.0057 14.7577C14.2163 14.7441 14.3974 14.7016 14.5621 14.5625C14.6751 14.4196 14.721 14.3045 14.7496 14.125C14.7621 14.0652 14.7747 14.0055 14.7874 13.9458C14.916 13.2901 15.0289 12.4739 14.6602 11.8765C14.4153 11.5136 14.1108 11.1993 13.7983 10.8945C13.7246 10.8226 13.6517 10.75 13.5789 10.6772C12.9943 10.0714 12.9943 10.0714 12.2266 9.80802C12.0355 9.81477 11.8607 9.85038 11.675 9.89159Z" fill="#4F4F4F"/>
<path d="M1.91456 8.61232C1.951 8.61197 1.98743 8.61161 2.02497 8.61124C2.10174 8.61066 2.17851 8.61025 2.25528 8.61C2.37223 8.6094 2.4891 8.60745 2.60603 8.60549C2.68088 8.60508 2.75573 8.60475 2.83058 8.60451C2.86525 8.60374 2.89993 8.60297 2.93566 8.60217C2.96861 8.60236 3.00157 8.60255 3.03553 8.60274C3.07843 8.6024 3.07843 8.6024 3.12219 8.60205C3.38143 8.66394 3.57706 8.87625 3.75908 9.05983C3.78331 9.08389 3.80753 9.10795 3.83249 9.13273C3.91176 9.2116 3.99068 9.29079 4.06959 9.37001C4.12493 9.42529 4.18028 9.48054 4.23564 9.53579C4.36605 9.66604 4.49621 9.79653 4.62629 9.92711C4.72984 10.031 4.83363 10.1347 4.93755 10.2382C5.08135 10.3815 5.22491 10.5249 5.36828 10.6686C5.4228 10.7232 5.47738 10.7777 5.53204 10.8321C5.60839 10.9083 5.68445 10.9847 5.76043 11.0612C5.79415 11.0946 5.79415 11.0946 5.82856 11.1287C6.01272 11.3152 6.13767 11.4688 6.14159 11.7404C6.14133 11.7664 6.14108 11.7925 6.14082 11.8193C6.14104 11.8473 6.14126 11.8754 6.14148 11.9043C6.14203 11.9965 6.14167 12.0887 6.14125 12.1809C6.14133 12.2455 6.14145 12.3101 6.14161 12.3746C6.14179 12.5099 6.14153 12.6452 6.14094 12.7805C6.14023 12.9529 6.14064 13.1253 6.14139 13.2977C6.14184 13.4311 6.14169 13.5645 6.14137 13.698C6.14129 13.7615 6.14139 13.825 6.14168 13.8885C6.14389 14.5013 6.04209 14.9993 5.60402 15.46C5.23758 15.8172 4.80204 16.0096 4.29033 16.0091C4.26108 16.0093 4.23182 16.0095 4.20168 16.0097C4.10557 16.0103 4.00946 16.0105 3.91334 16.0105C3.84601 16.0107 3.77868 16.0109 3.71135 16.0111C3.57037 16.0115 3.42939 16.0116 3.28841 16.0116C3.10867 16.0116 2.92895 16.0124 2.74921 16.0135C2.61014 16.0142 2.47108 16.0143 2.33201 16.0143C2.2658 16.0144 2.19958 16.0147 2.13337 16.0151C1.51089 16.0193 1.00852 15.9252 0.539684 15.4794C0.139472 15.0689 -0.00984507 14.6142 -0.00943375 14.051C-0.00962106 14.0091 -0.0098338 13.9672 -0.0100698 13.9254C-0.0106193 13.8122 -0.0107684 13.6991 -0.0108083 13.586C-0.0108529 13.5151 -0.0109867 13.4442 -0.0111519 13.3733C-0.0117293 13.1255 -0.0119855 12.8776 -0.0119362 12.6297C-0.0118987 12.3996 -0.0125573 12.1696 -0.0135452 11.9395C-0.0143659 11.7412 -0.0146975 11.5428 -0.0146577 11.3445C-0.0146419 11.2264 -0.0148146 11.1083 -0.0154814 10.9902C-0.0160923 10.879 -0.0160874 10.7678 -0.0156366 10.6565C-0.0155414 10.5969 -0.0160575 10.5373 -0.0166016 10.4777C-0.0129568 9.97049 0.171527 9.53179 0.520275 9.16506C0.91743 8.77785 1.36723 8.61651 1.91456 8.61232ZM1.79999 9.89159C1.56364 9.94606 1.43788 10.0419 1.31153 10.2439C1.22706 10.4331 1.24502 10.6473 1.24511 10.8501C1.245 10.8851 1.2449 10.9201 1.24479 10.9561C1.24449 11.0716 1.24443 11.187 1.2444 11.3025C1.2443 11.3829 1.24419 11.4633 1.24408 11.5437C1.24389 11.7122 1.24383 11.8807 1.24385 12.0492C1.24387 12.2435 1.24354 12.4378 1.24305 12.6321C1.24259 12.8196 1.24248 13.007 1.2425 13.1944C1.24246 13.274 1.24232 13.3535 1.24208 13.433C1.24178 13.5443 1.24187 13.6556 1.24205 13.7669C1.24188 13.7996 1.2417 13.8323 1.24152 13.866C1.24264 14.1258 1.26285 14.3561 1.43715 14.5625C1.65034 14.7311 1.84093 14.7538 2.10998 14.7546C2.13277 14.7547 2.15556 14.7548 2.17904 14.7549C2.25393 14.7552 2.32881 14.7552 2.4037 14.7553C2.45608 14.7554 2.50846 14.7555 2.56084 14.7556C2.67048 14.7558 2.78012 14.7558 2.88977 14.7558C3.02979 14.7558 3.16982 14.7562 3.30984 14.7568C3.41799 14.7571 3.52614 14.7572 3.63429 14.7572C3.6859 14.7572 3.7375 14.7573 3.7891 14.7576C3.86148 14.7579 3.93385 14.7578 4.00622 14.7576C4.04729 14.7577 4.08836 14.7577 4.13068 14.7577C4.3413 14.7441 4.52243 14.7016 4.68714 14.5625C4.80013 14.4196 4.84599 14.3045 4.87464 14.125C4.88712 14.0652 4.89972 14.0055 4.91241 13.9458C5.04096 13.2901 5.15387 12.4739 4.78515 11.8765C4.54026 11.5136 4.23578 11.1993 3.92329 10.8945C3.84961 10.8226 3.77674 10.75 3.7039 10.6772C3.1193 10.0714 3.1193 10.0714 2.35156 9.80802C2.16047 9.81477 1.98566 9.85038 1.79999 9.89159Z" fill="#4F4F4F"/>
<path d="M11.7896 -0.0126762C11.826 -0.0130325 11.8624 -0.0133887 11.9 -0.0137558C11.9767 -0.014344 12.0535 -0.0147538 12.1303 -0.0149956C12.2472 -0.0156035 12.3641 -0.0175451 12.481 -0.0195122C12.5559 -0.0199203 12.6307 -0.0202484 12.7056 -0.0204887C12.7403 -0.0212604 12.7749 -0.0220321 12.8107 -0.0228271C12.8436 -0.0226396 12.8766 -0.022452 12.9105 -0.0222588C12.9534 -0.0226005 12.9534 -0.0226005 12.9972 -0.0229492C13.2564 0.0389443 13.4521 0.251246 13.6341 0.434826C13.6583 0.458886 13.6825 0.482946 13.7075 0.507735C13.7868 0.586595 13.8657 0.66579 13.9446 0.745014C13.9999 0.800287 14.0553 0.855545 14.1106 0.91079C14.241 1.04104 14.3712 1.17153 14.5013 1.30211C14.6048 1.40601 14.7086 1.50967 14.8125 1.6132C14.9563 1.75645 15.0999 1.89993 15.2433 2.04361C15.2978 2.09819 15.3524 2.1527 15.407 2.20713C15.4834 2.28325 15.5594 2.35967 15.6354 2.43617C15.6692 2.46961 15.6692 2.46961 15.7036 2.50373C15.8877 2.69023 16.0127 2.84382 16.0166 3.11539C16.0163 3.14143 16.0161 3.16748 16.0158 3.19431C16.016 3.22234 16.0163 3.25037 16.0165 3.27925C16.017 3.37149 16.0167 3.46369 16.0162 3.55593C16.0163 3.6205 16.0165 3.68508 16.0166 3.74965C16.0168 3.88493 16.0165 4.02021 16.0159 4.15549C16.0152 4.32791 16.0156 4.50031 16.0164 4.67273C16.0168 4.80614 16.0167 4.93955 16.0164 5.07296C16.0163 5.13647 16.0164 5.19998 16.0167 5.26349C16.0189 5.87627 15.9171 6.37431 15.479 6.83498C15.1126 7.19224 14.677 7.38463 14.1653 7.3841C14.1361 7.38431 14.1068 7.38452 14.0767 7.38474C13.9806 7.38533 13.8845 7.38545 13.7883 7.38552C13.721 7.38572 13.6537 7.38593 13.5863 7.38615C13.4454 7.38652 13.3044 7.38664 13.1634 7.3866C12.9837 7.3866 12.8039 7.38745 12.6242 7.38852C12.4851 7.38922 12.3461 7.38935 12.207 7.38931C12.1408 7.38939 12.0746 7.38966 12.0084 7.39015C11.3859 7.39429 10.8835 7.30023 10.4147 6.85439C10.0145 6.4439 9.86515 5.98924 9.86557 5.42596C9.86538 5.3841 9.86517 5.34223 9.86493 5.30037C9.86438 5.18724 9.86423 5.07411 9.86419 4.96098C9.86415 4.8901 9.86401 4.81922 9.86385 4.74833C9.86327 4.50046 9.86301 4.2526 9.86306 4.00473C9.8631 3.77464 9.86244 3.54455 9.86145 3.31446C9.86063 3.11615 9.8603 2.91784 9.86034 2.71953C9.86036 2.60143 9.86019 2.48334 9.85952 2.36524C9.85891 2.25399 9.85891 2.14275 9.85936 2.0315C9.85946 1.97191 9.85894 1.91231 9.8584 1.85271C9.86204 1.34549 10.0465 0.906795 10.3953 0.540058C10.7924 0.152849 11.2422 -0.00849131 11.7896 -0.0126762ZM11.675 1.26659C11.4386 1.32106 11.3129 1.41693 11.1865 1.61892C11.1021 1.80806 11.12 2.02227 11.1201 2.2251C11.12 2.26008 11.1199 2.29507 11.1198 2.33111C11.1195 2.44658 11.1194 2.56204 11.1194 2.67751C11.1193 2.75792 11.1192 2.83832 11.1191 2.91873C11.1189 3.08722 11.1188 3.25571 11.1189 3.4242C11.1189 3.6185 11.1185 3.8128 11.1181 4.00711C11.1176 4.19455 11.1175 4.382 11.1175 4.56944C11.1175 4.64896 11.1173 4.72847 11.1171 4.80798C11.1168 4.91927 11.1169 5.03056 11.1171 5.14185C11.1169 5.17455 11.1167 5.20726 11.1165 5.24095C11.1176 5.50075 11.1378 5.73111 11.3121 5.93752C11.5253 6.10607 11.7159 6.12878 11.985 6.12956C12.0078 6.12966 12.0306 6.12977 12.054 6.12988C12.1289 6.13017 12.2038 6.13024 12.2787 6.13027C12.3311 6.13037 12.3835 6.13047 12.4358 6.13058C12.5455 6.13077 12.6551 6.13083 12.7648 6.13081C12.9048 6.13081 13.0448 6.13123 13.1848 6.13177C13.293 6.13212 13.4011 6.13218 13.5093 6.13217C13.5609 6.1322 13.6125 6.13234 13.6641 6.13258C13.7365 6.13289 13.8088 6.1328 13.8812 6.13261C13.9223 6.13266 13.9634 6.1327 14.0057 6.13275C14.2163 6.11907 14.3974 6.07661 14.5621 5.93752C14.6751 5.7946 14.721 5.6795 14.7496 5.50002C14.7621 5.44024 14.7747 5.38049 14.7874 5.32075C14.916 4.66509 15.0289 3.84894 14.6602 3.25153C14.4153 2.88857 14.1108 2.5743 13.7983 2.26954C13.7246 2.19763 13.6517 2.12496 13.5789 2.0522C12.9943 1.44641 12.9943 1.44641 12.2266 1.18302C12.0355 1.18977 11.8607 1.22538 11.675 1.26659Z" fill="#4F4F4F"/>
<path d="M1.91456 -0.0126762C1.951 -0.0130325 1.98743 -0.0133887 2.02497 -0.0137558C2.10174 -0.014344 2.17851 -0.0147538 2.25528 -0.0149956C2.37223 -0.0156035 2.4891 -0.0175451 2.60603 -0.0195122C2.68088 -0.0199203 2.75573 -0.0202484 2.83058 -0.0204887C2.86525 -0.0212604 2.89993 -0.0220321 2.93566 -0.0228271C2.96861 -0.0226396 3.00157 -0.022452 3.03553 -0.0222588C3.07843 -0.0226005 3.07843 -0.0226005 3.12219 -0.0229492C3.38143 0.0389443 3.57706 0.251246 3.75908 0.434826C3.78331 0.458886 3.80753 0.482946 3.83249 0.507735C3.91176 0.586595 3.99068 0.66579 4.06959 0.745014C4.12493 0.800287 4.18028 0.855545 4.23564 0.91079C4.36605 1.04104 4.49621 1.17153 4.62629 1.30211C4.72984 1.40601 4.83363 1.50967 4.93755 1.6132C5.08135 1.75645 5.22491 1.89993 5.36828 2.04361C5.4228 2.09819 5.47738 2.1527 5.53204 2.20713C5.60839 2.28325 5.68445 2.35967 5.76043 2.43617C5.79415 2.46961 5.79415 2.46961 5.82856 2.50373C6.01272 2.69023 6.13767 2.84382 6.14159 3.11539C6.14133 3.14143 6.14108 3.16748 6.14082 3.19431C6.14104 3.22234 6.14126 3.25037 6.14148 3.27925C6.14203 3.37149 6.14167 3.46369 6.14125 3.55593C6.14133 3.6205 6.14145 3.68508 6.14161 3.74965C6.14179 3.88493 6.14153 4.02021 6.14094 4.15549C6.14023 4.32791 6.14064 4.50031 6.14139 4.67273C6.14184 4.80614 6.14169 4.93955 6.14137 5.07296C6.14129 5.13647 6.14139 5.19998 6.14168 5.26349C6.14389 5.87627 6.04209 6.37431 5.60402 6.83498C5.23758 7.19224 4.80204 7.38463 4.29033 7.3841C4.26108 7.38431 4.23182 7.38452 4.20168 7.38474C4.10557 7.38533 4.00946 7.38545 3.91334 7.38552C3.84601 7.38572 3.77868 7.38593 3.71135 7.38615C3.57037 7.38652 3.42939 7.38664 3.28841 7.3866C3.10867 7.3866 2.92895 7.38745 2.74921 7.38852C2.61014 7.38922 2.47108 7.38935 2.33201 7.38931C2.2658 7.38939 2.19958 7.38966 2.13337 7.39015C1.51089 7.39429 1.00852 7.30023 0.539684 6.85439C0.139472 6.4439 -0.00984507 5.98924 -0.00943375 5.42596C-0.00962106 5.3841 -0.0098338 5.34223 -0.0100698 5.30037C-0.0106193 5.18724 -0.0107684 5.07411 -0.0108083 4.96098C-0.0108529 4.8901 -0.0109867 4.81922 -0.0111519 4.74833C-0.0117293 4.50046 -0.0119855 4.2526 -0.0119362 4.00473C-0.0118987 3.77464 -0.0125573 3.54455 -0.0135452 3.31446C-0.0143659 3.11615 -0.0146975 2.91784 -0.0146577 2.71953C-0.0146419 2.60143 -0.0148146 2.48334 -0.0154814 2.36524C-0.0160923 2.25399 -0.0160874 2.14275 -0.0156366 2.0315C-0.0155414 1.97191 -0.0160575 1.91231 -0.0166016 1.85271C-0.0129568 1.34549 0.171527 0.906795 0.520275 0.540058C0.91743 0.152849 1.36723 -0.00849131 1.91456 -0.0126762ZM1.79999 1.26659C1.56364 1.32106 1.43788 1.41693 1.31153 1.61892C1.22706 1.80806 1.24502 2.02227 1.24511 2.2251C1.245 2.26008 1.2449 2.29507 1.24479 2.33111C1.24449 2.44658 1.24443 2.56204 1.2444 2.67751C1.2443 2.75792 1.24419 2.83832 1.24408 2.91873C1.24389 3.08722 1.24383 3.25571 1.24385 3.4242C1.24387 3.6185 1.24354 3.8128 1.24305 4.00711C1.24259 4.19455 1.24248 4.382 1.2425 4.56944C1.24246 4.64896 1.24232 4.72847 1.24208 4.80798C1.24178 4.91927 1.24187 5.03056 1.24205 5.14185C1.24188 5.17455 1.2417 5.20726 1.24152 5.24095C1.24264 5.50075 1.26285 5.73111 1.43715 5.93752C1.65034 6.10607 1.84093 6.12878 2.10998 6.12956C2.13277 6.12966 2.15556 6.12977 2.17904 6.12988C2.25393 6.13017 2.32881 6.13024 2.4037 6.13027C2.45608 6.13037 2.50846 6.13047 2.56084 6.13058C2.67048 6.13077 2.78012 6.13083 2.88977 6.13081C3.02979 6.13081 3.16982 6.13123 3.30984 6.13177C3.41799 6.13212 3.52614 6.13218 3.63429 6.13217C3.6859 6.1322 3.7375 6.13234 3.7891 6.13258C3.86148 6.13289 3.93385 6.1328 4.00622 6.13261C4.04729 6.13266 4.08836 6.1327 4.13068 6.13275C4.3413 6.11907 4.52243 6.07661 4.68714 5.93752C4.80013 5.7946 4.84599 5.6795 4.87464 5.50002C4.88712 5.44024 4.89972 5.38049 4.91241 5.32075C5.04096 4.66509 5.15387 3.84894 4.78515 3.25153C4.54026 2.88857 4.23578 2.5743 3.92329 2.26954C3.84961 2.19763 3.77674 2.12496 3.7039 2.0522C3.1193 1.44641 3.1193 1.44641 2.35156 1.18302C2.16047 1.18977 1.98566 1.22538 1.79999 1.26659Z" fill="#4F4F4F"/>
<path d="M8.30498 0.0346286C8.45823 0.129265 8.55341 0.239581 8.62481 0.406333C8.64156 0.49451 8.64175 0.580085 8.64071 0.669652C8.64091 0.695463 8.64111 0.721273 8.64132 0.747866C8.64184 0.83436 8.64147 0.920827 8.6411 1.00732C8.64129 1.06996 8.64153 1.13259 8.64182 1.19522C8.64247 1.36735 8.64233 1.53947 8.64206 1.7116C8.64191 1.89723 8.64247 2.08285 8.64294 2.26848C8.64374 2.63215 8.64385 2.99582 8.6437 3.35949C8.64359 3.65504 8.6437 3.9506 8.64397 4.24615C8.644 4.28861 8.64404 4.33108 8.64408 4.37354C8.64414 4.43753 8.64419 4.50152 8.64425 4.56551C8.64478 5.16046 8.64505 5.7554 8.64479 6.35034C8.64477 6.38398 8.64477 6.38398 8.64476 6.4183C8.64471 6.53197 8.64465 6.64564 8.6446 6.75931C8.64459 6.78189 8.64458 6.80446 8.64457 6.82772C8.64455 6.87338 8.64452 6.91903 8.6445 6.96468C8.64417 7.67507 8.64466 8.38545 8.64582 9.09583C8.64711 9.894 8.64778 10.6922 8.64753 11.4903C8.64751 11.5754 8.64748 11.6605 8.64746 11.7457C8.64746 11.7666 8.64745 11.7876 8.64744 11.8092C8.64737 12.1255 8.64779 12.4418 8.64845 12.7581C8.6492 13.1179 8.64928 13.4776 8.64853 13.8374C8.64816 14.021 8.64809 14.2045 8.64884 14.3881C8.64952 14.5562 8.64933 14.7242 8.64845 14.8923C8.64828 14.953 8.64843 15.0138 8.64893 15.0746C8.65313 15.6237 8.65313 15.6237 8.48665 15.8271C8.32946 15.9798 8.22048 16.0087 8.00371 16.0196C7.82174 16.014 7.70539 15.9807 7.55815 15.875C7.39827 15.704 7.35628 15.557 7.3589 15.3305C7.3587 15.3047 7.3585 15.2789 7.35829 15.2523C7.35777 15.1658 7.35814 15.0793 7.35851 14.9928C7.35832 14.9302 7.35808 14.8676 7.35779 14.8049C7.35714 14.6328 7.35728 14.4607 7.35755 14.2886C7.3577 14.1029 7.35714 13.9173 7.35667 13.7317C7.35587 13.368 7.35576 13.0043 7.35591 12.6407C7.35602 12.3451 7.35591 12.0496 7.35564 11.754C7.35561 11.7115 7.35557 11.6691 7.35553 11.6266C7.35548 11.5626 7.35542 11.4986 7.35536 11.4346C7.35483 10.8397 7.35456 10.2448 7.35482 9.64983C7.35483 9.6274 7.35484 9.60497 7.35485 9.58186C7.3549 9.46819 7.35496 9.35452 7.35501 9.24085C7.35502 9.21827 7.35503 9.1957 7.35504 9.17244C7.35506 9.12679 7.35509 9.08113 7.35511 9.03548C7.35544 8.3251 7.35495 7.61472 7.35379 6.90433C7.3525 6.10617 7.35183 5.308 7.35208 4.50984C7.3521 4.42473 7.35213 4.33962 7.35215 4.25451C7.35215 4.23356 7.35216 4.2126 7.35217 4.19101C7.35224 3.87469 7.35182 3.55837 7.35116 3.24205C7.35041 2.88229 7.35033 2.52254 7.35108 2.16278C7.35145 1.9792 7.35152 1.79563 7.35077 1.61205C7.3501 1.444 7.35028 1.27597 7.35116 1.10791C7.35133 1.04712 7.35118 0.98632 7.35068 0.925528C7.34649 0.376459 7.34649 0.376459 7.51296 0.173019C7.72746 -0.0353409 8.02336 -0.0779393 8.30498 0.0346286Z" fill="#4F4F4F"/>
</g>
<defs>
<clipPath id="clip0_8297_5522">
<rect width="16" height="16" fill="white"/>
</clipPath>
</defs>
</svg>
