<svg width="16" height="16" viewBox="0 0 16 16" fill="none" xmlns="http://www.w3.org/2000/svg">
<g clip-path="url(#clip0_8310_3475)">
<path d="M5.01016 -0.00443462C5.05047 -0.00470139 5.05047 -0.00470139 5.09159 -0.00497356C5.12097 -0.00501043 5.15034 -0.0050473 5.18061 -0.00508529C5.21193 -0.00524429 5.24326 -0.00540328 5.27553 -0.00556709C5.3808 -0.00605875 5.48606 -0.00632496 5.59133 -0.00658876C5.66668 -0.00688681 5.74203 -0.00719591 5.81738 -0.00751525C6.04369 -0.00841151 6.27001 -0.00902977 6.49632 -0.00955876C6.56026 -0.00970867 6.62419 -0.00986439 6.68813 -0.0100214C7.08532 -0.0109892 7.48251 -0.0118229 7.8797 -0.012347C7.97166 -0.0124704 8.06361 -0.0125955 8.15557 -0.0127228C8.17842 -0.0127543 8.20127 -0.0127858 8.22482 -0.0128183C8.59506 -0.0133498 8.96529 -0.0146345 9.33552 -0.0162235C9.71578 -0.017842 10.096 -0.0187515 10.4763 -0.0189782C10.6897 -0.0191238 10.9032 -0.0195839 11.1166 -0.0208452C11.3174 -0.0220303 11.5182 -0.0222605 11.719 -0.021845C11.7926 -0.0218467 11.8663 -0.0221692 11.94 -0.0228372C12.0406 -0.023701 12.1412 -0.0234056 12.2418 -0.0228236C12.2709 -0.0233485 12.3 -0.0238733 12.33 -0.0244141C12.5434 -0.0213344 12.6579 0.0438759 12.8129 0.187434C12.8517 0.222314 12.8517 0.222314 12.8912 0.257898C12.9135 0.280106 12.9357 0.302314 12.9586 0.325195C12.9846 0.350995 13.0106 0.376796 13.0373 0.403378C13.0787 0.444953 13.0787 0.444953 13.1209 0.487369C13.151 0.517328 13.181 0.547274 13.2111 0.577207C13.2921 0.657896 13.3729 0.738778 13.4536 0.819708C13.5384 0.904644 13.6233 0.989426 13.7082 1.07423C13.8506 1.21652 13.9929 1.35894 14.1351 1.50144C14.2993 1.666 14.4637 1.83034 14.6283 1.99457C14.7699 2.13591 14.9114 2.27738 15.0528 2.41895C15.1372 2.50336 15.2215 2.58772 15.306 2.67198C15.3853 2.75113 15.4645 2.83042 15.5435 2.90984C15.5863 2.95274 15.6292 2.99548 15.6722 3.03823C15.6977 3.06394 15.7232 3.08965 15.7496 3.11614C15.7828 3.14944 15.7828 3.14944 15.8167 3.1834C15.9377 3.32063 15.9809 3.42 15.9811 3.60388C15.9816 3.66406 15.9816 3.66406 15.982 3.72545C15.9818 3.76991 15.9817 3.81437 15.9815 3.85882C15.9816 3.90611 15.9818 3.95339 15.9821 4.00067C15.9826 4.13065 15.9825 4.26063 15.9823 4.39061C15.9823 4.53078 15.9827 4.67096 15.9831 4.81113C15.9837 5.08582 15.9839 5.36051 15.9838 5.63521C15.9838 5.85857 15.9839 6.08192 15.9841 6.30528C15.9842 6.3696 15.9843 6.43392 15.9843 6.49824C15.9844 6.54626 15.9844 6.54626 15.9844 6.59525C15.985 7.20104 15.985 7.80683 15.9848 8.41261C15.9846 8.96643 15.9853 9.52025 15.9863 10.0741C15.9874 10.6429 15.9878 11.2116 15.9877 11.7804C15.9876 12.0997 15.9878 12.419 15.9886 12.7383C15.9892 13.0102 15.9893 13.2821 15.9887 13.5541C15.9884 13.6927 15.9884 13.8314 15.9891 13.97C15.9896 14.0972 15.9895 14.2243 15.9888 14.3515C15.9887 14.3973 15.9888 14.4431 15.9892 14.4889C15.9933 14.9571 15.8661 15.3064 15.5447 15.6459C15.3115 15.8661 15.0072 16.0037 14.6878 16.004C14.6491 16.0042 14.6104 16.0043 14.5706 16.0044C14.5276 16.0044 14.4846 16.0044 14.4416 16.0043C14.396 16.0044 14.3504 16.0045 14.3048 16.0046C14.1792 16.0049 14.0537 16.0049 13.9282 16.0049C13.7928 16.005 13.6575 16.0052 13.5221 16.0054C13.226 16.0059 12.9299 16.0061 12.6338 16.0062C12.4488 16.0063 12.2637 16.0064 12.0787 16.0065C11.5662 16.0069 11.0536 16.0073 10.5411 16.0074C10.5083 16.0074 10.4755 16.0074 10.4417 16.0074C10.4088 16.0074 10.3759 16.0074 10.342 16.0074C10.2754 16.0074 10.2087 16.0074 10.1421 16.0074C10.109 16.0074 10.0759 16.0075 10.0419 16.0075C9.50693 16.0076 8.97199 16.0081 8.43705 16.0089C7.88747 16.0096 7.33789 16.01 6.78831 16.01C6.47989 16.0101 6.17148 16.0102 5.86307 16.0108C5.60026 16.0113 5.33745 16.0114 5.07463 16.0112C4.94071 16.0111 4.80679 16.0111 4.67286 16.0115C4.54988 16.0119 4.42691 16.0119 4.30392 16.0115C4.2598 16.0115 4.21567 16.0115 4.17155 16.0118C3.73585 16.0144 3.30793 15.9527 2.89495 15.8105C2.86778 15.8012 2.84061 15.792 2.81262 15.7825C2.22209 15.5726 1.73559 15.2408 1.28167 14.8124C1.25862 14.7914 1.23558 14.7704 1.21184 14.7487C0.66077 14.227 0.325398 13.5355 0.125415 12.8124C0.119413 12.7913 0.113411 12.7702 0.107227 12.7484C-0.172478 11.7113 0.0685579 10.5393 0.584155 9.62103C0.758694 9.32266 0.98256 9.06315 1.21917 8.81243C1.24019 8.78939 1.26122 8.76635 1.28289 8.74261C1.72214 8.27868 2.29426 7.95689 2.89495 7.75189C2.93175 7.73921 2.93175 7.73921 2.9693 7.72628C3.1425 7.6709 3.31683 7.63704 3.4957 7.60643C3.52025 7.60217 3.5448 7.59791 3.5701 7.59351C3.63019 7.58309 3.6903 7.57275 3.75042 7.56243C3.75043 7.52947 3.75045 7.49651 3.75047 7.46254C3.75092 6.65943 3.75226 5.85633 3.75454 5.05322C3.75562 4.66484 3.75642 4.27646 3.75653 3.88808C3.75662 3.54946 3.75726 3.21084 3.75856 2.87221C3.75922 2.69302 3.75962 2.51382 3.75936 2.33462C3.75912 2.16571 3.75962 1.99682 3.76067 1.82792C3.76092 1.76616 3.76092 1.70439 3.76062 1.64263C3.75837 1.12226 3.83625 0.744799 4.2061 0.353938C4.4172 0.154653 4.71638 -0.00329638 5.01016 -0.00443462ZM4.81292 1.15618C4.70696 1.31512 4.71464 1.47226 4.7152 1.65848C4.71515 1.68373 4.7151 1.70898 4.71505 1.735C4.71492 1.81952 4.71502 1.90403 4.71512 1.98855C4.71508 2.04918 4.71502 2.1098 4.71496 2.17042C4.71481 2.33499 4.71487 2.49956 4.71497 2.66412C4.71505 2.83615 4.71497 3.00818 4.71492 3.1802C4.71487 3.46897 4.71494 3.75773 4.71509 4.04649C4.71526 4.3808 4.71521 4.71511 4.71503 5.04942C4.71489 5.33615 4.71487 5.62288 4.71495 5.90961C4.715 6.08101 4.71501 6.2524 4.71491 6.42379C4.71482 6.58477 4.71488 6.74575 4.71506 6.90672C4.7151 6.96597 4.71509 7.02522 4.71502 7.08447C4.71493 7.16499 4.71504 7.2455 4.7152 7.32601C4.71513 7.34977 4.71506 7.37352 4.71499 7.398C4.70581 7.50485 4.70581 7.50485 4.75042 7.59368C4.8031 7.60238 4.85582 7.6109 4.90866 7.61859C5.38127 7.68948 5.82831 7.83852 6.25237 8.05853C6.28632 8.07605 6.28632 8.07605 6.32096 8.09394C6.42575 8.15097 6.51755 8.20541 6.60501 8.28764C6.89598 8.55159 7.17366 8.53885 7.55204 8.53324C7.61681 8.53332 7.68157 8.53352 7.74634 8.53384C7.92125 8.53435 8.09611 8.53316 8.27101 8.53167C8.45432 8.53044 8.63763 8.53088 8.82095 8.53116C9.16783 8.53146 9.5147 8.53041 9.86158 8.52881C10.4834 8.52597 11.1052 8.52544 11.727 8.52539C11.9452 8.52533 12.1634 8.52467 12.3816 8.52351C12.517 8.52287 12.6525 8.52259 12.788 8.5224C12.8509 8.52223 12.9138 8.52189 12.9766 8.52138C13.0624 8.52069 13.1481 8.52059 13.2338 8.52062C13.2712 8.5201 13.2712 8.5201 13.3094 8.51958C13.4519 8.52033 13.5435 8.53652 13.6567 8.62493C13.7453 8.73944 13.7632 8.82527 13.7621 8.96868C13.7624 9.00027 13.7626 9.03185 13.7629 9.06439C13.7484 9.17133 13.7226 9.22723 13.6567 9.31243C13.5293 9.40884 13.4194 9.41972 13.2645 9.41864C13.241 9.41885 13.2175 9.41906 13.1933 9.41927C13.1148 9.41986 13.0363 9.41977 12.9577 9.4197C12.9013 9.41998 12.845 9.4203 12.7886 9.42066C12.6357 9.42152 12.4827 9.42181 12.3298 9.422C12.1699 9.42229 12.0101 9.42311 11.8502 9.42388C11.5475 9.42524 11.2448 9.42613 10.9421 9.42685C10.5975 9.4277 10.2529 9.42907 9.90828 9.43049C9.19941 9.43339 8.49054 9.43563 7.78166 9.43743C7.79853 9.46869 7.8154 9.49994 7.83278 9.53215C7.8553 9.57406 7.87781 9.61598 7.90032 9.65789C7.91139 9.67838 7.92246 9.69888 7.93387 9.71999C8.17056 10.1615 8.32961 10.6155 8.40821 11.1102C8.4173 11.2207 8.4173 11.2207 8.46916 11.3124C8.53367 11.3156 8.59829 11.3166 8.66288 11.3167C8.68334 11.3168 8.7038 11.3169 8.72488 11.317C8.79395 11.3173 8.86302 11.3173 8.93209 11.3174C8.98141 11.3175 9.03073 11.3177 9.08004 11.3178C9.18652 11.3182 9.29299 11.3185 9.39946 11.3187C9.56779 11.319 9.73613 11.3196 9.90446 11.3203C10.3832 11.3223 10.862 11.3239 11.3408 11.325C11.605 11.3255 11.8692 11.3265 12.1334 11.3277C12.2733 11.3284 12.4132 11.3289 12.5531 11.3289C12.6847 11.329 12.8163 11.3295 12.948 11.3303C12.9963 11.3306 13.0446 11.3306 13.0929 11.3305C13.1589 11.3304 13.2249 11.3308 13.2908 11.3314C13.3462 11.3316 13.3462 11.3316 13.4027 11.3317C13.5112 11.345 13.5693 11.3729 13.6567 11.4374C13.7453 11.5519 13.7632 11.6378 13.7621 11.7812C13.7624 11.8128 13.7626 11.8443 13.7629 11.8769C13.7484 11.9838 13.7226 12.0397 13.6567 12.1249C13.5328 12.2165 13.4432 12.2306 13.2906 12.2311C13.2596 12.2315 13.2596 12.2315 13.228 12.2318C13.1589 12.2324 13.0899 12.2323 13.0208 12.2322C12.9712 12.2325 12.9216 12.2328 12.872 12.2332C12.7376 12.234 12.6031 12.2343 12.4686 12.2345C12.328 12.2348 12.1874 12.2356 12.0468 12.2364C11.7807 12.2377 11.5145 12.2386 11.2483 12.2394C10.9453 12.2402 10.6422 12.2416 10.3392 12.243C9.71584 12.2459 9.0925 12.2481 8.46916 12.2499C8.45941 12.2886 8.44965 12.3274 8.43959 12.3672C8.43136 12.3999 8.43136 12.3999 8.42296 12.4332C8.40755 12.4963 8.39338 12.5595 8.37981 12.623C8.17182 13.5832 7.70017 14.3153 7.00042 14.9999C6.97979 15.0206 6.95917 15.0412 6.93792 15.0624C7.90557 15.0639 8.87323 15.065 9.84088 15.0656C9.95514 15.0657 10.0694 15.0658 10.1837 15.0659C10.2178 15.0659 10.2178 15.0659 10.2526 15.0659C10.6208 15.0662 10.9891 15.0667 11.3573 15.0673C11.7352 15.0678 12.1131 15.0682 12.491 15.0683C12.7241 15.0684 12.9573 15.0687 13.1904 15.0692C13.3692 15.0695 13.548 15.0696 13.7269 15.0695C13.8002 15.0695 13.8735 15.0696 13.9469 15.0699C14.0469 15.0702 14.147 15.0701 14.2471 15.07C14.2762 15.0701 14.3052 15.0703 14.3351 15.0705C14.5387 15.0696 14.7097 15.0623 14.8696 14.9238C15.0141 14.7544 15.0356 14.6277 15.0355 14.41C15.0356 14.3545 15.0356 14.3545 15.0357 14.2979C15.0356 14.2371 15.0356 14.2371 15.0354 14.1751C15.0354 14.1315 15.0355 14.0879 15.0355 14.0444C15.0356 13.9246 15.0354 13.8049 15.0353 13.6852C15.0352 13.5561 15.0352 13.427 15.0352 13.2979C15.0352 13.0742 15.0351 12.8505 15.035 12.6268C15.0347 12.3034 15.0346 11.98 15.0346 11.6566C15.0345 11.1319 15.0343 10.6072 15.034 10.0825C15.0337 9.57274 15.0335 9.06301 15.0334 8.55329C15.0334 8.52187 15.0334 8.49046 15.0334 8.45809C15.0333 8.30049 15.0333 8.14288 15.0332 7.98528C15.0329 6.67766 15.0324 5.37005 15.0317 4.06243C14.9964 4.06225 14.9611 4.06207 14.9248 4.06188C14.5923 4.06009 14.2599 4.05782 13.9274 4.05507C13.7565 4.05367 13.5856 4.05244 13.4147 4.05161C13.2497 4.0508 13.0848 4.04953 12.9199 4.04796C12.857 4.04744 12.794 4.04708 12.7311 4.04688C12.6429 4.04658 12.5548 4.04571 12.4667 4.0447C12.4407 4.04474 12.4146 4.04479 12.3878 4.04483C12.2444 4.0425 12.146 4.03328 12.0317 3.93743C11.9183 3.80218 11.9241 3.6707 11.9244 3.5024C11.9239 3.46076 11.9239 3.46076 11.9234 3.41828C11.9225 3.3268 11.9222 3.23534 11.9219 3.14386C11.9214 3.08032 11.9208 3.01679 11.9202 2.95325C11.9187 2.78624 11.9178 2.61922 11.917 2.4522C11.9161 2.28169 11.9146 2.11118 11.9132 1.94067C11.9105 1.60626 11.9084 1.27185 11.9067 0.937434C11.0344 0.935975 10.1622 0.934872 9.28995 0.934196C8.88496 0.933874 8.47997 0.933434 8.07498 0.932719C7.72201 0.932097 7.36903 0.931693 7.01606 0.931554C6.82915 0.931472 6.64224 0.931281 6.45533 0.930826C6.2794 0.930402 6.10347 0.930271 5.92754 0.930365C5.86298 0.930348 5.79842 0.930224 5.73386 0.929984C5.64567 0.929673 5.55748 0.929748 5.46929 0.929918C5.44379 0.929736 5.41828 0.929554 5.392 0.929367C5.14997 0.93063 4.9763 0.96479 4.81292 1.15618ZM12.8442 1.65618C12.8442 2.14087 12.8442 2.62556 12.8442 3.12493C13.3289 3.12493 13.8135 3.12493 14.3129 3.12493C14.1554 2.94094 14.1554 2.94094 13.9899 2.7666C13.965 2.7416 13.9401 2.71659 13.9144 2.69082C13.8881 2.66461 13.8618 2.63839 13.8348 2.61138C13.8074 2.58395 13.78 2.55651 13.7517 2.52825C13.6942 2.47067 13.6366 2.41313 13.5789 2.35562C13.5197 2.29655 13.4606 2.23743 13.4015 2.17823C13.3162 2.09271 13.2308 2.0073 13.1453 1.92193C13.1187 1.89528 13.0921 1.86862 13.0647 1.84116C13.0403 1.81684 13.0159 1.79252 12.9907 1.76746C12.9692 1.74591 12.9476 1.72437 12.9254 1.70217C12.8829 1.65266 12.8829 1.65266 12.8442 1.65618ZM1.84417 9.56243C1.2064 10.2465 0.965248 11.091 0.988574 12.0082C1.00913 12.4694 1.13688 12.8712 1.34417 13.2812C1.36088 13.3143 1.3776 13.3473 1.39482 13.3814C1.81051 14.142 2.55334 14.7022 3.37932 14.9472C4.2711 15.1622 5.13819 15.0426 5.93792 14.5937C6.07172 14.5108 6.19314 14.4144 6.31292 14.3124C6.3397 14.2903 6.36649 14.2682 6.39409 14.2454C6.98653 13.7372 7.41095 12.9997 7.50041 12.2187C7.57059 11.2968 7.39102 10.4344 6.78167 9.71868C6.75955 9.6919 6.73743 9.66511 6.71465 9.63751C6.13815 8.96544 5.33167 8.58598 4.45549 8.50384C3.44478 8.45952 2.54918 8.84802 1.84417 9.56243Z" fill="#4F4F4F"/>
<path d="M6.54274 5.67536C6.57234 5.67519 6.60195 5.67502 6.63245 5.67485C6.73173 5.6744 6.83099 5.67462 6.93026 5.67484C7.00141 5.67467 7.07255 5.67445 7.1437 5.67419C7.33701 5.67363 7.53031 5.67367 7.72362 5.67385C7.88493 5.67394 8.04623 5.67375 8.20753 5.67357C8.60978 5.6731 9.01203 5.67322 9.41428 5.67359C9.76354 5.6739 10.1128 5.6735 10.4621 5.67275C10.8208 5.67199 11.1795 5.6717 11.5382 5.6719C11.7395 5.672 11.9409 5.67193 12.1423 5.67139C12.3316 5.67091 12.5209 5.67103 12.7102 5.67162C12.7797 5.67173 12.8492 5.67163 12.9187 5.67131C13.0136 5.6709 13.1084 5.67125 13.2032 5.67181C13.2446 5.67136 13.2446 5.67136 13.2867 5.6709C13.4562 5.67293 13.5531 5.69963 13.6875 5.81247C13.8142 5.97568 13.8054 6.14539 13.7812 6.34372C13.7133 6.48703 13.6425 6.55847 13.5 6.62497C13.4024 6.6386 13.3056 6.63775 13.2072 6.63709C13.1776 6.63725 13.148 6.63742 13.1175 6.6376C13.0182 6.63804 12.919 6.63782 12.8197 6.6376C12.7485 6.63778 12.6774 6.63799 12.6062 6.63825C12.4129 6.63881 12.2196 6.63877 12.0263 6.63859C11.865 6.6385 11.7037 6.63869 11.5424 6.63888C11.1402 6.63934 10.7379 6.63923 10.3357 6.63885C9.9864 6.63854 9.63715 6.63894 9.28789 6.63969C8.92917 6.64045 8.57046 6.64074 8.21174 6.64054C8.01039 6.64044 7.80904 6.64052 7.60769 6.64105C7.41837 6.64153 7.22905 6.64141 7.03973 6.64082C6.97022 6.64071 6.9007 6.64081 6.83119 6.64113C6.73635 6.64154 6.64154 6.64119 6.5467 6.64063C6.51915 6.64093 6.49159 6.64123 6.4632 6.64154C6.29376 6.63951 6.19687 6.61281 6.06247 6.49997C5.93571 6.33676 5.94453 6.16705 5.96872 5.96872C6.09465 5.70287 6.27393 5.67353 6.54274 5.67536Z" fill="#4F4F4F"/>
<path d="M5.96875 10.4686C6.11319 10.5371 6.17849 10.6093 6.25 10.7499C6.26575 10.8384 6.26575 10.8384 6.26758 10.9315C6.26957 10.9773 6.26957 10.9773 6.27161 11.0239C6.22213 11.2551 6.01181 11.4348 5.84863 11.5969C5.82812 11.6175 5.80762 11.6381 5.7865 11.6593C5.71943 11.7267 5.65215 11.7938 5.58484 11.8609C5.53783 11.9079 5.49083 11.955 5.44384 12.002C5.34567 12.1003 5.2474 12.1984 5.14904 12.2965C5.02308 12.4221 4.89741 12.548 4.77182 12.674C4.67496 12.771 4.57796 12.868 4.48091 12.9648C4.4345 13.0112 4.38814 13.0576 4.34183 13.1041C4.27715 13.1689 4.21227 13.2336 4.14733 13.2982C4.12832 13.3173 4.1093 13.3364 4.08971 13.3562C3.93986 13.5045 3.819 13.6069 3.59961 13.6112C3.55387 13.6132 3.55387 13.6132 3.5072 13.6153C3.28022 13.5667 3.10308 13.3624 2.94373 13.2019C2.92488 13.1831 2.90603 13.1643 2.88662 13.145C2.84724 13.1057 2.80793 13.0662 2.7687 13.0267C2.7088 12.9665 2.64858 12.9066 2.58832 12.8468C2.54987 12.8083 2.51143 12.7698 2.47302 12.7312C2.45515 12.7135 2.43728 12.6957 2.41887 12.6774C2.27056 12.5274 2.17411 12.4087 2.17383 12.1893C2.17817 12.0287 2.1985 11.9326 2.3125 11.8124C2.42707 11.7312 2.51016 11.7038 2.65039 11.7011C2.68089 11.6997 2.71138 11.6984 2.7428 11.697C2.99036 11.75 3.17301 11.9771 3.34375 12.1522C3.36498 12.1737 3.38621 12.1953 3.40808 12.2174C3.4597 12.2698 3.51117 12.3223 3.5625 12.3749C3.68599 12.3251 3.76836 12.2395 3.85986 12.1461C3.87669 12.1292 3.89353 12.1123 3.91087 12.0948C3.94733 12.0582 3.98371 12.0214 4.02003 11.9846C4.07757 11.9262 4.13529 11.8681 4.19307 11.81C4.33655 11.6657 4.47968 11.5211 4.62282 11.3764C4.74381 11.2542 4.86493 11.1321 4.98622 11.0102C5.04301 10.953 5.0996 10.8956 5.15619 10.8382C5.19115 10.803 5.22612 10.7679 5.2611 10.7327C5.27671 10.7168 5.29231 10.7008 5.30839 10.6844C5.51666 10.4761 5.6791 10.4333 5.96875 10.4686Z" fill="#4F4F4F"/>
</g>
<defs>
<clipPath id="clip0_8310_3475">
<rect width="16" height="16" fill="white"/>
</clipPath>
</defs>
</svg>
