<svg width="24" height="24" viewBox="0 0 24 24" fill="none" xmlns="http://www.w3.org/2000/svg">
<g clip-path="url(#clip0_7580_36873)">
<path d="M17.4688 6.83704C17.3183 6.73973 17.1463 6.68085 16.9678 6.66559C16.7893 6.65034 16.6098 6.67916 16.445 6.74954L11.0462 8.87579C10.9184 8.92781 10.7817 8.95455 10.6437 8.95454H7.1875C6.89742 8.95454 6.61922 9.06978 6.4141 9.27489C6.20898 9.48001 6.09375 9.75821 6.09375 10.0483V10.1358H5V12.7608H6.09375V12.8745C6.1006 13.16 6.21886 13.4316 6.42324 13.631C6.62762 13.8305 6.90191 13.9421 7.1875 13.942L8.5 16.7245C8.58887 16.9119 8.72879 17.0704 8.90369 17.1819C9.07859 17.2933 9.28137 17.3532 9.48875 17.3545H10.04C10.3286 17.3522 10.6045 17.236 10.8077 17.0311C11.011 16.8262 11.125 16.5494 11.125 16.2608V14.047L16.445 16.1733C16.5759 16.2254 16.7154 16.2521 16.8563 16.252C17.0747 16.2485 17.2875 16.1816 17.4688 16.0595C17.6127 15.9624 17.7314 15.8323 17.8151 15.6802C17.8987 15.528 17.945 15.3581 17.95 15.1845V7.73829C17.9492 7.56024 17.9049 7.38508 17.8211 7.22802C17.7372 7.07096 17.6163 6.93675 17.4688 6.83704ZM10.0312 10.0483V12.8745H7.1875V10.0483H10.0312ZM10.0312 16.2608H9.48L8.40375 13.942H10.0312V16.2608ZM11.4487 13.0058C11.3449 12.9527 11.2365 12.9088 11.125 12.8745V9.98704C11.2355 9.96425 11.3438 9.93205 11.4487 9.89079L16.8563 7.73829V15.1583L11.4487 13.0058ZM17.9762 10.3545V12.542C18.2663 12.542 18.5445 12.4268 18.7496 12.2217C18.9548 12.0166 19.07 11.7384 19.07 11.4483C19.07 11.1582 18.9548 10.88 18.7496 10.6749C18.5445 10.4698 18.2663 10.3545 17.9762 10.3545Z" fill="#4F4F4F"/>
</g>
<defs>
<clipPath id="clip0_7580_36873">
<rect width="14" height="14" fill="white" transform="translate(5 5)"/>
</clipPath>
</defs>
</svg>
