<svg width="16" height="16" viewBox="0 0 16 16" fill="none" xmlns="http://www.w3.org/2000/svg">
<g clip-path="url(#clip0_8310_3480)">
<path d="M12.0936 8.12489C12.115 8.13142 12.1364 8.13795 12.1584 8.14468C13.1437 8.45573 13.9216 9.17082 14.4016 10.0746C14.4374 10.1561 14.4374 10.1561 14.4374 10.2499C14.458 10.2499 14.4786 10.2499 14.4999 10.2499C14.5063 10.2222 14.5128 10.1945 14.5194 10.1659C14.5794 10.0215 14.6711 9.94554 14.8124 9.87489C14.9852 9.85911 15.1377 9.85182 15.2968 9.92567C15.4344 10.0565 15.508 10.1579 15.5272 10.3495C15.5169 10.6214 15.3697 10.8413 15.2366 11.071C15.184 11.1619 15.1328 11.2535 15.0817 11.3453C14.6214 12.1696 14.6214 12.1696 14.4374 12.2499C14.1785 12.3064 13.9936 12.2307 13.7785 12.0927C13.7377 12.0657 13.697 12.0385 13.6564 12.011C13.593 11.9682 13.5289 11.9267 13.4644 11.8855C13.3756 11.8288 13.2871 11.7715 13.199 11.7138C13.1049 11.6523 13.0102 11.5919 12.9151 11.5321C12.891 11.5169 12.8669 11.5017 12.8422 11.486C12.7962 11.457 12.7502 11.4282 12.704 11.3996C12.5609 11.3087 12.4525 11.2176 12.3749 11.0624C12.3591 10.8896 12.3518 10.7371 12.4257 10.578C12.5629 10.4336 12.6622 10.3668 12.8632 10.3534C13.0915 10.3594 13.254 10.4662 13.4374 10.5936C13.1365 9.9176 12.5927 9.45135 11.9061 9.18739C11.1848 8.94978 10.4338 8.99948 9.75316 9.33585C9.09276 9.68005 8.65019 10.2413 8.40614 10.9374C8.39615 10.9655 8.38616 10.9935 8.37587 11.0225C8.18403 11.6824 8.28957 12.4283 8.60145 13.0311C8.96828 13.6983 9.55475 14.1522 10.2802 14.3717C10.5114 14.4307 10.7427 14.4566 10.9804 14.4715C11.1845 14.4878 11.3059 14.5522 11.4491 14.703C11.524 14.8644 11.5234 15.0124 11.4999 15.1874C11.4278 15.3426 11.3365 15.4189 11.1874 15.4999C11.0867 15.5181 10.9887 15.5177 10.8866 15.5155C10.8578 15.5151 10.829 15.5147 10.7993 15.5142C9.88841 15.4875 9.07158 15.1084 8.40614 14.4999C8.38116 14.4775 8.35619 14.4551 8.33046 14.432C7.97648 14.0981 7.72738 13.6914 7.53114 13.2499C7.51607 13.2166 7.50101 13.1833 7.48549 13.1489C7.16892 12.3921 7.12978 11.4395 7.37489 10.6561C7.38142 10.6348 7.38795 10.6134 7.39468 10.5914C7.68235 9.6801 8.34171 8.87046 9.19027 8.42621C9.29231 8.37515 9.39564 8.32748 9.49989 8.28114C9.5332 8.26607 9.56652 8.25101 9.60084 8.23549C10.3577 7.91892 11.3102 7.87978 12.0936 8.12489Z" fill="#4F4F4F"/>
<path d="M2.38769 0.495318C2.4145 0.495181 2.44131 0.495044 2.46893 0.494903C2.55893 0.494485 2.64893 0.494291 2.73893 0.4941C2.8034 0.493853 2.86788 0.493595 2.93236 0.493326C3.14436 0.492506 3.35636 0.492028 3.56836 0.491582C3.64145 0.491415 3.71453 0.491247 3.78761 0.491078C4.09183 0.490402 4.39604 0.489817 4.70025 0.489465C5.13553 0.488958 5.57081 0.487924 6.00608 0.48614C6.31246 0.484927 6.61883 0.48432 6.92521 0.484155C7.108 0.484041 7.29077 0.48367 7.47355 0.482652C7.64582 0.481706 7.81807 0.481516 7.99034 0.481882C8.05322 0.481889 8.1161 0.481633 8.17898 0.481081C8.97591 0.474463 9.4732 0.733066 10.0423 1.2881C10.0885 1.33372 10.1346 1.37943 10.1806 1.4252C10.2061 1.45045 10.2316 1.47569 10.2579 1.5017C10.3412 1.58421 10.4243 1.66685 10.5075 1.74952C10.5361 1.77802 10.5648 1.80652 10.5943 1.83588C10.7149 1.9558 10.8354 2.07574 10.9559 2.1958C11.1268 2.36628 11.2981 2.53647 11.4697 2.70631C11.606 2.84127 11.7419 2.97666 11.8776 3.11221C11.9349 3.16929 11.9923 3.22624 12.0499 3.28304C12.5749 3.80153 13.0014 4.28389 13.0173 5.05359C13.0179 5.16471 13.0164 5.27574 13.0148 5.38685C13.0145 5.44639 13.0143 5.50593 13.0141 5.56547C13.0135 5.72042 13.012 5.87534 13.0102 6.03028C13.0086 6.18909 13.0079 6.3479 13.0071 6.50672C13.0055 6.81703 13.0028 7.12733 12.9995 7.43763C12.8935 7.41711 12.7934 7.39222 12.691 7.35767C12.6628 7.34818 12.6345 7.3387 12.6054 7.32892C12.5763 7.31903 12.5471 7.30914 12.5171 7.29896C12.4736 7.2843 12.4736 7.2843 12.4291 7.26935C12.3748 7.25105 12.3204 7.2327 12.2661 7.21431C12.1773 7.18435 12.0884 7.15474 11.9995 7.12513C11.9993 7.10083 11.999 7.07654 11.9988 7.05151C11.9963 6.82122 11.9936 6.59092 11.9905 6.36063C11.989 6.24227 11.9875 6.12392 11.9863 6.00555C11.9852 5.89107 11.9837 5.77659 11.9821 5.66211C11.9815 5.61869 11.981 5.57528 11.9807 5.53186C11.9755 4.94733 11.8732 4.60398 11.4534 4.1868C11.4144 4.14741 11.4144 4.14741 11.3747 4.10722C11.2896 4.02123 11.204 3.93571 11.1184 3.85022C11.0737 3.8054 11.0291 3.76053 10.9844 3.71567C10.8443 3.57483 10.7038 3.43433 10.5631 3.29403C10.4188 3.15004 10.275 3.00548 10.1315 2.86064C10.0075 2.73558 9.88321 2.6109 9.75861 2.48649C9.6845 2.4125 9.61059 2.33835 9.53694 2.2639C9.45463 2.18082 9.37174 2.09836 9.28869 2.01603C9.25302 1.97964 9.25302 1.97964 9.21663 1.94252C8.89394 1.62595 8.56633 1.52622 8.12373 1.5272C8.08779 1.52709 8.08779 1.52709 8.05112 1.52698C7.97151 1.52679 7.8919 1.52681 7.81228 1.52684C7.75492 1.52674 7.69756 1.52664 7.6402 1.52652C7.48485 1.52624 7.3295 1.52617 7.17415 1.52615C7.07697 1.52613 6.97979 1.52606 6.88261 1.52598C6.54323 1.52569 6.20385 1.52556 5.86447 1.52559C5.54868 1.52561 5.23289 1.52528 4.91709 1.52478C4.64548 1.52437 4.37387 1.52421 4.10226 1.52423C3.94025 1.52423 3.77825 1.52415 3.61625 1.52381C3.46381 1.52351 3.31137 1.52351 3.15893 1.52374C3.10319 1.52377 3.04745 1.5237 2.99171 1.52351C2.37991 1.51705 2.37991 1.51705 1.84327 1.78138C1.59906 2.03074 1.53375 2.32455 1.52527 2.66529C1.52453 2.69476 1.52378 2.72422 1.52301 2.75458C1.52167 2.81553 1.52069 2.87649 1.52009 2.93744C1.51312 3.17412 1.47015 3.28428 1.29639 3.44935C1.13499 3.52428 0.987009 3.52368 0.812016 3.50013C0.656586 3.42796 0.582922 3.33536 0.499516 3.18763C0.483342 3.07525 0.483342 3.07525 0.482915 2.95118C0.482795 2.92882 0.482676 2.90647 0.482552 2.88344C0.482468 2.83624 0.482696 2.78904 0.48322 2.74185C0.483883 2.67099 0.483229 2.60022 0.482426 2.52936C0.48131 1.93827 0.685205 1.45022 1.09729 1.02527C1.44714 0.696083 1.90786 0.495616 2.38769 0.495318Z" fill="#4F4F4F"/>
<path d="M6.73397 3.73831C6.75736 3.73833 6.78075 3.73835 6.80485 3.73836C7.18356 3.73963 7.54098 3.76614 7.90585 3.87503C7.92862 3.88173 7.9514 3.88843 7.97486 3.89533C8.97375 4.19864 9.8099 4.84375 10.3746 5.71878C10.4035 5.76356 10.4035 5.76356 10.4331 5.80924C10.6653 6.18731 10.8262 6.59495 10.9058 7.03128C10.8879 7.03285 10.87 7.03441 10.8516 7.03603C10.3609 7.07919 10.3609 7.07919 9.8746 7.15628C9.86848 7.13952 9.86235 7.12277 9.85604 7.1055C9.50791 6.19314 8.95975 5.48124 8.06538 5.06047C7.78539 4.93622 7.49148 4.84933 7.1871 4.81253C7.15262 4.80834 7.11813 4.80415 7.08261 4.79984C6.23523 4.72017 5.38348 4.9698 4.72091 5.50821C4.69944 5.52614 4.67797 5.54406 4.65585 5.56253C4.6347 5.57949 4.61355 5.59645 4.59176 5.61392C4.02241 6.08599 3.66617 6.83804 3.5621 7.56253C3.49377 8.52566 3.69209 9.34131 4.3121 10.0938C4.3291 10.115 4.3461 10.1362 4.36361 10.1581C4.84184 10.734 5.56201 11.0438 6.28085 11.1875C6.28085 11.5382 6.28085 11.8888 6.28085 12.25C5.4395 12.1337 4.64817 11.8438 3.9996 11.2813C3.98304 11.2672 3.96648 11.2532 3.94941 11.2387C3.14091 10.5498 2.63 9.58547 2.4996 8.53128C2.47179 7.96599 2.46155 7.39015 2.6246 6.84378C2.63464 6.80962 2.63464 6.80962 2.64489 6.77477C2.94807 5.7763 3.59252 4.93655 4.46835 4.37503C4.49888 4.35541 4.52942 4.3358 4.56088 4.31558C4.88184 4.11896 5.22479 3.99104 5.58358 3.88284C5.60395 3.87664 5.62433 3.87043 5.64531 3.86403C6.00485 3.76024 6.36203 3.73729 6.73397 3.73831Z" fill="#4F4F4F"/>
<path d="M1.18718 4.99975C1.34233 5.07179 1.41974 5.16248 1.49968 5.31225C1.51769 5.42268 1.5165 5.53163 1.51548 5.64332C1.51576 5.69334 1.51576 5.69334 1.51605 5.74438C1.51654 5.85615 1.51614 5.9679 1.51575 6.07967C1.51592 6.15981 1.51614 6.23994 1.51642 6.32007C1.5169 6.49267 1.517 6.66526 1.51677 6.83786C1.51644 7.08778 1.51686 7.3377 1.51747 7.58762C1.51845 7.99361 1.51892 8.3996 1.51903 8.80559C1.51903 8.82988 1.51904 8.85417 1.51905 8.8792C1.51906 8.91568 1.51906 8.91568 1.51907 8.95289C1.51916 9.29728 1.51937 9.64166 1.51973 9.98604C1.51975 10.0103 1.51978 10.0345 1.51981 10.0594C1.52024 10.4637 1.52092 10.868 1.52173 11.2723C1.52221 11.5215 1.52243 11.7706 1.52233 12.0198C1.52225 12.2109 1.52248 12.402 1.52282 12.5931C1.52291 12.6714 1.52288 12.7496 1.52274 12.8278C1.52257 12.9348 1.52277 13.0418 1.52307 13.1488C1.52285 13.1949 1.52285 13.1949 1.52263 13.242C1.52445 13.5821 1.56492 13.8836 1.78093 14.156C2.03818 14.4079 2.34832 14.4741 2.70044 14.4707C2.73942 14.4704 2.77841 14.4702 2.81857 14.4699C2.83931 14.4696 2.86004 14.4694 2.88141 14.4692C2.94845 14.4685 3.01549 14.4679 3.08253 14.4674C3.15485 14.4669 3.22716 14.4664 3.29948 14.4658C3.47875 14.4643 3.65801 14.4635 3.83729 14.4632C3.86337 14.4631 3.88946 14.463 3.91634 14.463C4.02387 14.4628 4.1314 14.4626 4.23893 14.4624C4.54352 14.4619 4.84807 14.4607 5.15265 14.4575C5.39504 14.4549 5.63739 14.4538 5.8798 14.4544C6.00789 14.4546 6.13588 14.4542 6.26395 14.452C7.10495 14.4381 7.10495 14.4381 7.29215 14.5884C7.38391 14.6842 7.43974 14.7884 7.49968 14.906C7.56593 14.983 7.56593 14.983 7.63139 15.0438C7.65087 15.0631 7.67035 15.0824 7.69041 15.1022C7.70933 15.1206 7.72824 15.139 7.74773 15.158C7.76748 15.1774 7.78724 15.1969 7.8076 15.217C7.84388 15.2527 7.88022 15.2884 7.91666 15.324C7.97599 15.3822 8.0347 15.441 8.09343 15.4998C7.32575 15.5019 6.55808 15.5036 5.7904 15.5046C5.43393 15.5051 5.07746 15.5058 4.72099 15.5068C4.41019 15.5078 4.0994 15.5084 3.7886 15.5086C3.62412 15.5087 3.45965 15.509 3.29518 15.5097C3.14015 15.5103 2.98513 15.5105 2.8301 15.5104C2.77342 15.5104 2.71673 15.5106 2.66005 15.5109C2.04331 15.5147 1.52234 15.3828 1.06474 14.948C0.753223 14.6349 0.496465 14.1798 0.495485 13.7262C0.495346 13.6962 0.495206 13.6663 0.495063 13.6354C0.495068 13.6026 0.495074 13.5697 0.49508 13.5359C0.494908 13.4835 0.494908 13.4835 0.494732 13.43C0.494387 13.3125 0.494267 13.195 0.494148 13.0775C0.493952 12.9935 0.493745 12.9094 0.493526 12.8253C0.492909 12.5728 0.492594 12.3202 0.492315 12.0677C0.492178 11.9487 0.492011 11.8298 0.491847 11.7109C0.491316 11.3156 0.490863 10.9203 0.490636 10.525C0.490576 10.4224 0.490516 10.3199 0.490455 10.2173C0.49044 10.1918 0.490425 10.1664 0.490409 10.1401C0.49015 9.72698 0.489358 9.31386 0.488343 8.90074C0.48731 8.47663 0.486747 8.05252 0.486647 7.62841C0.48658 7.39027 0.486306 7.15213 0.485508 6.914C0.48483 6.71125 0.484578 6.50851 0.484882 6.30577C0.485024 6.20232 0.484896 6.09889 0.484358 5.99545C0.483808 5.8833 0.484025 5.77118 0.484437 5.65903C0.484094 5.62634 0.483752 5.59366 0.483398 5.55998C0.485062 5.37307 0.501038 5.26754 0.624679 5.12475C0.789408 4.96826 0.971807 4.97076 1.18718 4.99975Z" fill="#4F4F4F"/>
<path d="M6.9375 5.49975C7.09292 5.57191 7.16662 5.66452 7.25 5.81225C7.26587 5.9237 7.26587 5.9237 7.26617 6.04858C7.26639 6.07147 7.26661 6.09436 7.26684 6.11795C7.26739 6.19315 7.26702 6.26831 7.2666 6.3435C7.26669 6.39603 7.26681 6.44857 7.26696 6.5011C7.26715 6.611 7.26688 6.7209 7.2663 6.83081C7.26558 6.97141 7.26599 7.11198 7.26674 7.25258C7.2672 7.361 7.26705 7.46941 7.26673 7.57783C7.26664 7.62966 7.26675 7.68149 7.26704 7.73332C7.26736 7.80587 7.26687 7.87838 7.26617 7.95093C7.26607 7.99213 7.26598 8.03334 7.26587 8.0758C7.24231 8.24121 7.16658 8.33605 7.04639 8.44793C6.8879 8.52336 6.74376 8.51765 6.57031 8.51635C6.53495 8.51647 6.4996 8.51659 6.46317 8.51672C6.38857 8.5168 6.31397 8.51657 6.23938 8.51605C6.12539 8.51538 6.01145 8.51604 5.89746 8.51684C5.82487 8.51676 5.75228 8.5166 5.67969 8.51635C5.6457 8.51661 5.61171 8.51686 5.57669 8.51712C5.38475 8.51475 5.27095 8.50311 5.125 8.37475C5.01161 8.2554 4.99031 8.15967 4.98438 7.99975C4.99031 7.83984 5.01161 7.74411 5.125 7.62475C5.26643 7.51316 5.35649 7.48448 5.53589 7.48755C5.55643 7.48772 5.57698 7.4879 5.59814 7.48808C5.66311 7.48878 5.72802 7.49034 5.79297 7.49194C5.83728 7.49257 5.88159 7.49314 5.9259 7.49365C6.03395 7.49502 6.14197 7.49717 6.25 7.49975C6.24972 7.47903 6.24944 7.4583 6.24916 7.43695C6.24639 7.221 6.24451 7.00504 6.24313 6.78908C6.24251 6.70851 6.24165 6.62794 6.24057 6.54738C6.23905 6.43148 6.23834 6.31561 6.23779 6.1997C6.23715 6.16376 6.2365 6.12782 6.23584 6.09078C6.23578 5.89386 6.24129 5.77363 6.375 5.62475C6.53973 5.46826 6.72213 5.47076 6.9375 5.49975Z" fill="#4F4F4F"/>
</g>
<defs>
<clipPath id="clip0_8310_3480">
<rect width="16" height="16" fill="white"/>
</clipPath>
</defs>
</svg>
