<svg width="76" height="52" viewBox="0 0 76 52" fill="none" xmlns="http://www.w3.org/2000/svg">
<path id="Vector" d="M13.2958 1.04094C13.7529 1.22318 14.1685 1.46334 14.5925 1.71196C14.718 1.78326 14.8434 1.85456 14.9727 1.92803C15.3824 2.16188 15.7901 2.39906 16.1975 2.63688C16.4746 2.79747 16.7518 2.95805 17.0289 3.11861C17.6073 3.45459 18.1846 3.79223 18.7614 4.1308C19.8905 4.7929 21.0251 5.44526 22.16 6.09725C22.5911 6.34536 23.0217 6.59447 23.4518 6.84436C23.6581 6.96387 23.6581 6.96387 23.8685 7.08579C23.9977 7.16172 24.1269 7.23765 24.26 7.31589C24.3737 7.38247 24.4874 7.44905 24.6046 7.51764C25.0379 7.80435 25.2888 8.02746 25.483 8.51284C25.483 9.07463 25.3582 9.34763 25.1203 9.85035C25.0529 9.99389 24.9856 10.1374 24.9162 10.2853C24.8639 10.3946 24.8115 10.504 24.7576 10.6166C25.3653 10.9348 25.9745 11.2499 26.5853 11.5623C26.7929 11.669 27 11.7766 27.2067 11.8849C27.5038 12.0405 27.8024 12.1931 28.1013 12.3451C28.2396 12.4188 28.2396 12.4188 28.3808 12.4939C28.892 12.7566 28.892 12.7566 29.4442 12.6971C29.7935 12.4213 30.0434 12.1013 30.3161 11.7501C31.6553 10.0794 32.9213 9.03736 35.0586 8.58538C35.5891 8.53463 36.1122 8.537 36.6446 8.54748C36.8689 8.54914 36.8689 8.54913 37.0978 8.55082C37.4193 8.55343 37.7407 8.55703 38.0622 8.56154C38.5707 8.56848 39.0792 8.57238 39.5878 8.57546C41.0325 8.58474 42.4772 8.59946 43.9219 8.6162C44.808 8.62626 45.6941 8.63282 46.5802 8.63726C46.9176 8.6397 47.255 8.64353 47.5923 8.64878C48.0622 8.65606 48.5319 8.65894 49.0019 8.66083C49.1416 8.66412 49.2813 8.66741 49.4253 8.67081C49.7778 8.66979 50.0942 8.66464 50.4377 8.58538C50.7352 8.25282 50.7352 8.25282 50.8729 7.85996C51.2608 7.57379 51.2608 7.57379 51.7236 7.30285C51.8069 7.25355 51.8901 7.20424 51.9759 7.15345C52.2359 7.00018 52.4973 6.84951 52.7591 6.69927C52.9155 6.60835 53.0719 6.51744 53.2331 6.42377C53.7115 6.14755 54.1917 5.87445 54.6724 5.60206C55.0286 5.39952 55.3846 5.19673 55.7407 4.99395C55.8303 4.94296 55.9199 4.89196 56.0122 4.83942C56.793 4.39484 57.5717 3.94667 58.3497 3.49726C58.6695 3.31252 58.9895 3.12809 59.3097 2.94398C59.9583 2.57081 60.6057 2.1968 61.2449 1.80774C61.3379 1.75191 61.431 1.69608 61.5269 1.63856C61.7569 1.50011 61.9855 1.35935 62.214 1.21833C62.7373 0.992397 63.076 0.958465 63.6405 1.04094C64.1754 1.506 64.5292 1.98741 64.8731 2.60344C65.011 2.84796 65.011 2.84796 65.1517 3.09742C65.1995 3.18338 65.2472 3.26933 65.2964 3.35789C65.4998 3.72397 65.7058 4.08856 65.9116 4.45328C66.0171 4.64037 66.1225 4.82754 66.2278 5.01478C66.7132 5.87793 67.2109 6.73368 67.7119 7.58792C68.8738 9.57346 70.0216 11.567 71.1698 13.5605C71.3528 13.8782 71.5359 14.1959 71.7191 14.5136C71.8998 14.8274 72.0803 15.1414 72.2603 15.4556C72.7167 16.2503 73.1807 17.0389 73.6593 17.8204C73.7538 17.9767 73.8484 18.1329 73.9458 18.2939C74.125 18.5895 74.3066 18.8838 74.4907 19.1764C74.9157 19.8815 75.2738 20.5108 75.2029 21.3546C74.9913 21.9612 74.4753 22.2072 73.9415 22.5136C73.8028 22.5966 73.664 22.6797 73.521 22.7652C73.1221 22.9997 72.7207 23.229 72.3171 23.4551C71.8642 23.7089 71.4127 23.9653 70.9611 24.2212C70.8696 24.2729 70.7781 24.3246 70.6839 24.3779C69.8153 24.8695 68.9537 25.3728 68.0928 25.8778C67.8108 26.042 67.5287 26.2062 67.2466 26.3703C66.6556 26.7142 66.0672 27.0623 65.4795 27.4119C65.1809 27.5868 64.8823 27.7615 64.5835 27.9362C64.4475 28.0183 64.3115 28.1004 64.1713 28.1851C63.3758 28.6457 62.823 28.9055 61.8994 28.7523C61.6059 28.5137 61.6059 28.5137 61.4098 28.1991C61.3428 28.0965 61.2759 27.9938 61.2069 27.888C61.1482 27.7902 61.0894 27.6924 61.0289 27.5916C60.9332 27.4479 60.8374 27.3043 60.7388 27.1563C60.4036 27.3957 60.0685 27.6351 59.7232 27.8818C59.7826 27.9642 59.8421 28.0467 59.9034 28.1317C60.7662 29.3681 61.0308 30.4384 60.8838 31.9441C60.6099 33.2326 59.9504 34.3044 58.8453 35.0453C57.8307 35.5812 56.8043 35.8117 55.6608 35.7164C55.5171 35.6685 55.3735 35.6206 55.2255 35.5713C55.2375 35.7089 55.2494 35.8466 55.2618 35.9884C55.2519 37.215 54.6192 38.206 53.7922 39.0664C52.8372 39.9264 51.7009 40.1341 50.4377 40.214C50.1461 40.1748 49.8551 40.129 49.5672 40.0689C49.5537 40.3113 49.5537 40.3113 49.54 40.5586C49.3925 41.6998 48.8136 42.6961 47.9758 43.4733C47.042 44.1791 46.0569 44.591 44.8882 44.5757C44.7587 44.5743 44.6293 44.573 44.496 44.5717C44.349 44.5692 44.349 44.5692 44.199 44.5666C44.187 44.7551 44.1751 44.9436 44.1627 45.1379C43.9993 46.5638 43.2997 47.6238 42.2041 48.5202C40.8437 49.2527 39.4982 49.4305 38.0147 48.9917C37.8025 48.9212 37.5906 48.8494 37.38 48.7741C37.3097 48.8494 37.2394 48.9248 37.1669 49.0025C36.1664 50.0433 35.1625 50.8572 33.678 50.9991C32.1352 51.0152 30.9225 50.8252 29.7675 49.7466C28.9864 48.8778 28.508 47.9225 28.5298 46.7429C28.4331 46.7496 28.3364 46.7563 28.2368 46.7633C26.9081 46.8153 25.7767 46.5549 24.7122 45.7273C23.8184 44.8775 23.3832 43.6887 23.0165 42.5354C22.911 42.535 22.8056 42.5346 22.6969 42.5343C21.2426 42.4783 19.9836 42.0515 18.9541 40.9848C18.0359 39.8016 17.7925 38.4909 17.9385 37.0221C18.0099 36.664 18.1035 36.3507 18.2287 36.0065C18.112 36.0006 17.9953 35.9946 17.8751 35.9884C16.7922 35.7224 15.9767 35.0416 15.3587 34.1267C14.6655 32.9647 14.6151 31.8389 14.7467 30.4933C14.9242 29.8272 15.1252 29.2442 15.6172 28.7523C15.282 28.5608 14.9469 28.3692 14.6016 28.1719C14.5028 28.2677 14.4041 28.3634 14.3023 28.4621C13.7476 28.8398 13.5276 28.8324 12.8605 28.7523C12.3293 28.5246 11.8416 28.2327 11.3462 27.9362C11.1273 27.8088 11.1273 27.8088 10.904 27.6788C10.4428 27.4098 9.9832 27.138 9.52358 26.8662C9.23697 26.6989 8.9502 26.5319 8.66327 26.3652C8.08984 26.0319 7.51714 25.6974 6.94491 25.362C6.3081 24.9895 5.66942 24.6203 5.02933 24.2535C4.94478 24.205 4.86022 24.1564 4.77311 24.1065C4.36512 23.8723 3.95691 23.6387 3.54826 23.4057C1.27993 22.1046 1.27993 22.1046 0.818447 21.6431C0.663153 20.3892 1.12287 19.6537 1.77057 18.6054C1.92052 18.3544 2.07046 18.1035 2.22013 17.8524C2.37512 17.5932 2.53128 17.3348 2.68763 17.0764C3.16522 16.2845 3.62292 15.4812 4.08287 14.679C4.26414 14.3646 4.44549 14.0502 4.62694 13.7359C4.71671 13.5803 4.80648 13.4247 4.89898 13.2644C5.89644 11.5355 6.8939 9.80652 7.89137 8.07758C7.98127 7.92171 8.07117 7.76584 8.16379 7.60524C8.34369 7.29351 8.52374 6.98187 8.70396 6.67033C9.12981 5.93373 9.55397 5.1963 9.97252 4.45553C10.1704 4.10549 10.3693 3.75596 10.5681 3.40648C10.7082 3.15942 10.847 2.91162 10.9858 2.6638C11.0709 2.51446 11.156 2.36512 11.2436 2.21126C11.3179 2.07951 11.3922 1.94776 11.4687 1.81202C11.9732 1.079 12.4162 0.930869 13.2958 1.04094ZM13.1507 3.94265C13.0695 4.09077 12.9884 4.23889 12.9047 4.39151C12.1137 5.82847 11.2991 7.25018 10.4702 8.66565C9.83941 9.74293 9.21292 10.8226 8.58959 11.9042C8.49974 12.0601 8.40988 12.216 8.31731 12.3766C8.13461 12.6937 7.95195 13.0107 7.7693 13.3278C7.39507 13.9774 7.02056 14.6268 6.64595 15.2761C6.46262 15.5939 6.27937 15.9118 6.09622 16.2298C5.67466 16.9612 5.25176 17.6918 4.82473 18.42C4.7496 18.5485 4.67446 18.677 4.59705 18.8094C4.4575 19.0478 4.31745 19.2859 4.17681 19.5237C3.84062 20.0409 3.84062 20.0409 3.72016 20.6275C3.85762 20.7038 3.85762 20.7038 3.99786 20.7817C6.02737 21.9101 8.04336 23.0575 10.0467 24.2319C10.9803 24.7792 11.9191 25.3169 12.8605 25.8506C13.2509 25.3815 13.5771 24.918 13.8705 24.3833C13.9497 24.2399 14.029 24.0966 14.1107 23.949C14.1949 23.7955 14.2791 23.642 14.3658 23.4838C15.0536 22.2424 15.751 21.0081 16.4695 19.7842C17.2096 18.5225 17.94 17.2557 18.664 15.9847C19.578 14.3804 20.5035 12.783 21.4365 11.1896C21.5086 11.066 21.5807 10.9424 21.6549 10.8152C21.7828 10.5964 21.9114 10.378 22.0409 10.1601C22.3382 9.69455 22.3382 9.69455 22.4362 9.16572C22.3417 9.1112 22.2472 9.05667 22.1498 9.00048C22.0157 8.92316 21.8817 8.84584 21.7436 8.76617C21.5927 8.6791 21.4418 8.59203 21.2863 8.50232C20.9492 8.30787 20.6122 8.11341 20.2752 7.91893C19.477 7.45835 18.6788 6.99787 17.8802 6.53812C17.6269 6.3923 17.3736 6.24643 17.1204 6.10055C16.8035 5.91802 16.4865 5.7356 16.1695 5.55329C15.3473 5.07954 14.5318 4.598 13.7254 4.09769C13.4524 3.91951 13.4524 3.91951 13.1507 3.94265ZM61.5362 4.51902C61.3735 4.61267 61.2108 4.70633 61.0432 4.80282C60.8661 4.90599 60.6891 5.00919 60.5121 5.1124C60.3304 5.21738 60.1488 5.32227 59.967 5.42708C59.5905 5.64446 59.2142 5.86238 58.8382 6.08075C58.2928 6.39743 57.7465 6.71265 57.2 7.02741C56.5603 7.39592 55.9208 7.76482 55.2816 8.13426C54.6835 8.4798 54.0846 8.82376 53.4845 9.16572C53.7207 10.0626 54.2016 10.8068 54.6724 11.5959C54.8576 11.9098 55.0427 12.2238 55.2278 12.5378C55.3234 12.6997 55.4191 12.8617 55.5177 13.0285C55.9784 13.8115 56.4317 14.5988 56.8849 15.3863C57.0676 15.7033 57.2503 16.0203 57.433 16.3373C57.569 16.5734 57.569 16.5734 57.7078 16.8143C58.1616 17.602 58.616 18.3893 59.0703 19.1766C59.2496 19.4874 59.4288 19.7981 59.6081 20.1089C59.9411 20.6862 60.2742 21.2634 60.6074 21.8407C60.7571 22.1002 60.9069 22.3597 61.0567 22.6193C61.2446 22.945 61.4326 23.2707 61.6206 23.5963C62.0537 24.3469 62.4859 25.0978 62.915 25.8506C63.4678 25.6439 63.966 25.3893 64.4775 25.0957C64.6408 25.0022 64.804 24.9087 64.9722 24.8124C65.1479 24.7111 65.3237 24.6098 65.4994 24.5085C65.6805 24.4045 65.8616 24.3006 66.0427 24.1967C67.5215 23.3472 68.9952 22.489 70.4669 21.6272C71.0426 21.2902 71.6205 20.9571 72.2005 20.6275C72.0054 20.1132 71.778 19.6397 71.5091 19.1602C71.4289 19.0168 71.3486 18.8735 71.266 18.7258C71.1794 18.5724 71.0928 18.4189 71.0036 18.2608C70.9131 18.0999 70.8227 17.9391 70.7295 17.7733C69.9548 16.3998 69.1622 15.0369 68.3648 13.6764C67.8288 12.7616 67.2983 11.8436 66.7689 10.9249C66.6796 10.7701 66.5903 10.6152 66.4984 10.4557C66.0738 9.71911 65.6495 8.98227 65.2258 8.24515C65.0773 7.9869 64.9287 7.72871 64.7801 7.47053C64.594 7.14708 64.408 6.82352 64.2223 6.49985C63.9816 6.08175 63.7388 5.66494 63.4954 5.24842C63.4268 5.12802 63.3582 5.00762 63.2875 4.88358C63.1272 4.61078 62.9502 4.34782 62.77 4.08773C62.2294 4.08773 62.0029 4.24854 61.5362 4.51902ZM32.2748 13.2281C32.165 13.3658 32.0552 13.5034 31.9421 13.6452C31.5424 14.1456 31.1247 14.6297 30.7061 15.1142C30.0835 15.8365 29.4731 16.5666 28.8755 17.3098C28.6086 17.6309 28.3374 17.9415 28.0571 18.2506C27.9762 18.341 27.8953 18.4314 27.812 18.5246C27.6527 18.7021 27.4916 18.8781 27.3286 19.0522C26.8901 19.5337 26.8901 19.5337 26.7973 20.156C27.0447 20.7474 27.3692 21.1077 27.895 21.4708C28.5581 21.7041 29.1401 21.7432 29.8355 21.6431C30.8981 21.1222 31.6802 20.1035 32.4454 19.2214C35.3669 15.8688 35.3669 15.8688 37.813 15.6713C40.0811 15.5788 41.909 16.9124 43.7547 18.0613C44.0884 18.2679 44.4222 18.4744 44.7561 18.6807C44.8414 18.7335 44.9268 18.7863 45.0147 18.8407C45.9485 19.4177 46.8872 19.9864 47.8261 20.5549C49.1501 21.357 50.471 22.1638 51.7888 22.976C52.0969 23.1657 52.405 23.3554 52.7132 23.5451C53.1785 23.8315 53.6437 24.1183 54.1085 24.4057C54.5711 24.6915 55.0343 24.9764 55.4975 25.2611C55.6373 25.3479 55.7771 25.4346 55.9211 25.5239C56.0503 25.6031 56.1794 25.6823 56.3125 25.7638C56.4253 25.8334 56.538 25.903 56.6542 25.9746C56.9628 26.1387 57.1997 26.2459 57.5469 26.2858C57.8971 26.0832 58.2042 25.8822 58.5262 25.642C58.6135 25.5791 58.7009 25.5161 58.7909 25.4513C59.0061 25.2958 59.2197 25.1382 59.433 24.98C59.3487 24.4279 59.1915 24.0331 58.9059 23.5547C58.826 23.4194 58.746 23.2841 58.6637 23.1447C58.5764 22.9993 58.4892 22.8539 58.3993 22.704C58.2127 22.3888 58.0262 22.0735 57.8399 21.7581C57.7433 21.5953 57.6467 21.4325 57.5472 21.2647C57.0848 20.4814 56.6312 19.6931 56.1776 18.9046C55.9963 18.5899 55.8149 18.2751 55.6336 17.9604C55.543 17.8033 55.4525 17.6461 55.3593 17.4842C55.0731 16.9876 54.7866 16.4913 54.5001 15.9949C54.4044 15.8292 54.3087 15.6635 54.2102 15.4927C54.0299 15.1805 53.8496 14.8683 53.6693 14.5561C53.586 14.4118 53.5028 14.2676 53.417 14.119C53.3318 13.9767 53.2467 13.8344 53.1589 13.6878C52.9699 13.3467 52.8182 13.0307 52.6721 12.6726C52.4222 12.0956 52.1771 11.6597 51.7435 11.1969C50.8918 10.9076 50.0759 10.9604 49.1863 10.9974C48.921 11.0012 48.6557 11.004 48.3904 11.0058C47.7844 11.0113 47.1788 11.0224 46.573 11.0359C45.4578 11.057 44.3436 11.0463 43.2284 11.0335C42.3094 11.0234 41.3903 11.0168 40.4713 11.0095C40.1287 11.0065 39.786 11.0029 39.4434 10.9992C38.8963 10.9936 38.3492 10.9912 37.8021 10.9909C37.5991 10.9904 37.3961 10.9888 37.1931 10.9861C34.9705 10.9579 33.6697 11.5257 32.2748 13.2281ZM23.3067 12.7929C23.0896 13.1211 22.8928 13.4483 22.6992 13.7903C22.6364 13.8992 22.5735 14.008 22.5088 14.1202C22.3678 14.3649 22.2272 14.6099 22.0871 14.8552C21.8435 15.281 21.5982 15.7058 21.3526 16.1304C20.8895 16.9313 20.4275 17.7328 19.9658 18.5345C19.5881 19.1903 19.2101 19.8459 18.8319 20.5014C18.649 20.8185 18.4662 21.1357 18.2835 21.4529C17.8629 22.1832 17.4404 22.9122 17.0119 23.638C16.9368 23.7658 16.8616 23.8937 16.7842 24.0254C16.6449 24.2621 16.5049 24.4983 16.364 24.734C16.3033 24.8375 16.2425 24.9409 16.1799 25.0475C16.1269 25.1367 16.0739 25.2259 16.0193 25.3178C15.8769 25.5817 15.8769 25.5817 15.9073 25.9956C16.1115 26.1217 16.3174 26.2452 16.524 26.3674C16.6956 26.4709 16.6956 26.4709 16.8708 26.5766C17.1969 26.7454 17.1969 26.7454 17.5084 26.6967C17.8434 26.5548 18.1075 26.3738 18.401 26.1589C19.5339 25.39 20.6314 25.1023 22.0009 25.2702C23.1741 25.5501 24.1478 26.0197 24.825 27.0418C25.1404 27.5923 25.4156 28.1535 25.6281 28.7523C25.7518 28.7208 25.7518 28.7208 25.878 28.6888C27.3227 28.3415 28.4555 28.4659 29.8355 29.0424C30.7222 29.59 31.3837 30.3758 31.7217 31.3638C31.8768 32.1301 31.9478 32.9068 32.0118 33.6852C32.1119 33.7065 32.2119 33.7278 32.315 33.7498C33.5948 34.0553 34.769 34.562 35.4939 35.7164C36.0949 36.7434 36.183 37.7324 36.2193 38.9083C36.3151 38.9083 36.4108 38.9083 36.5095 38.9083C36.5948 38.7332 36.5948 38.7332 36.6818 38.5546C36.9447 38.1828 36.9447 38.1828 37.4163 38.0287C38.5258 38.0472 39.4866 38.9636 40.3633 39.5883C42.6594 41.4676 42.6594 41.4676 45.3597 42.1001C46.0012 41.8419 46.5039 41.4763 46.8831 40.8941C47.1353 40.2742 47.2461 39.8524 47.1007 39.1984C46.3864 38.1511 45.3622 37.6019 44.2897 36.9768C44.1066 36.8684 43.9237 36.7598 43.7409 36.651C43.469 36.4892 43.197 36.3275 42.9247 36.1666C42.1023 35.6804 41.294 35.1738 40.4912 34.6561C40.0582 34.3583 40.0582 34.3583 39.5563 34.2655C39.3273 32.9614 39.3273 32.9614 39.6288 32.4338C40.1056 32.1716 40.4813 32.1346 41.0071 32.2343C41.5253 32.4637 41.9965 32.759 42.4761 33.0595C42.6155 33.1444 42.7549 33.2293 42.8985 33.3167C43.3334 33.5824 43.7663 33.8512 44.199 34.1204C44.4638 34.2836 44.7286 34.4466 44.9936 34.6095C45.9931 35.2257 46.9911 35.8438 47.9814 36.4747C48.2138 36.6209 48.4462 36.7671 48.6785 36.9133C48.7828 36.981 48.8871 37.0486 48.9946 37.1183C49.62 37.5094 50.1176 37.7164 50.8729 37.7476C51.6292 37.5129 52.1021 37.1891 52.614 36.5869C52.7438 36.1973 52.7911 35.9299 52.8044 35.5259C52.8125 35.3652 52.8125 35.3652 52.8208 35.2012C52.7157 34.5963 52.4173 34.1663 51.938 33.7827C51.6369 33.5794 51.33 33.3908 51.018 33.2046C50.8994 33.1317 50.7808 33.0589 50.6586 32.9838C50.2476 32.732 49.8349 32.4832 49.4221 32.2343C49.096 32.0361 48.7699 31.8377 48.4439 31.6392C47.7525 31.2187 47.0606 30.7988 46.3685 30.3794C46.198 30.276 46.0275 30.1727 45.857 30.0693C45.5331 29.8729 45.2091 29.6767 44.885 29.4806C44.4563 29.2206 44.0283 28.9594 43.6005 28.6979C43.4734 28.6211 43.3462 28.5443 43.2152 28.4652C43.0996 28.3943 42.984 28.3233 42.8649 28.2501C42.7145 28.1586 42.7145 28.1586 42.5611 28.0652C42.3129 27.8818 42.3129 27.8818 42.0227 27.4465C41.9721 26.9709 41.9756 26.6728 42.1859 26.2405C42.5862 25.8802 42.7851 25.8407 43.3285 25.8506C44.338 26.2627 45.266 26.8565 46.1849 27.4374C46.4538 27.6057 46.7228 27.7738 46.9919 27.9418C47.1296 28.0279 47.2672 28.114 47.409 28.2027C48.2222 28.7084 49.0419 29.2035 49.8609 29.7C50.6354 30.1702 51.4075 30.644 52.177 31.1224C52.3482 31.2286 52.5194 31.3348 52.6907 31.441C53.0191 31.6447 53.3469 31.8492 53.6744 32.0543C55.1379 33.0416 55.1379 33.0416 56.8226 33.208C57.4567 32.9817 57.9577 32.521 58.2978 31.9458C58.5468 31.3381 58.472 30.7899 58.2542 30.185C57.6273 29.2237 56.5889 28.7014 55.6245 28.1266C55.3235 27.9453 55.0226 27.764 54.7217 27.5825C54.5657 27.4886 54.4097 27.3947 54.2489 27.298C53.4742 26.8296 52.7042 26.3534 51.9339 25.8778C50.6162 25.0653 49.2951 24.2588 47.9712 23.4566C46.6323 22.6453 45.2962 21.8295 43.9632 21.0083C43.8078 20.9127 43.6523 20.8171 43.4921 20.7187C42.7888 20.286 42.0866 19.8518 41.3874 19.4124C41.2685 19.3382 41.1496 19.264 41.027 19.1876C40.8114 19.053 40.5963 18.9175 40.3819 18.7808C39.3464 18.1372 38.4326 17.8898 37.2349 18.161C36.0527 18.4721 35.3158 19.5029 34.5447 20.3862C34.2372 20.737 33.922 21.0807 33.6078 21.4254C33.3048 21.7605 33.0171 22.092 32.7452 22.4529C32.4336 22.8196 32.1541 23.0255 31.7398 23.2662C31.5608 23.3725 31.5608 23.3725 31.3782 23.481C30.1706 24.092 28.8443 24.1645 27.5261 23.8698C26.1791 23.3832 25.2707 22.4576 24.6125 21.2078C24.5496 21.0911 24.4868 20.9744 24.422 20.8542C24.2725 20.2969 24.2121 19.7455 24.3223 19.1766C24.72 18.4916 25.2255 17.9103 25.746 17.3177C26.4097 16.5536 27.051 15.7787 27.6593 14.9691C27.2205 14.6191 26.7722 14.3618 26.2708 14.1105C26.1168 14.0334 25.9629 13.9562 25.8043 13.8768C25.6444 13.7974 25.4845 13.718 25.3198 13.6362C25.1587 13.5551 24.9977 13.474 24.8318 13.3905C24.6783 13.3139 24.5247 13.2373 24.3665 13.1584C24.2258 13.0882 24.0852 13.0181 23.9402 12.9458C23.6153 12.7732 23.6153 12.7732 23.3067 12.7929ZM18.6277 29.1785C18.5233 29.2823 18.419 29.3862 18.3115 29.4933C17.426 30.3774 17.426 30.3774 17.1587 31.5633C17.1762 32.2288 17.3454 32.5978 17.7935 33.1048C18.3958 33.6371 18.8541 33.751 19.6297 33.7622C20.5577 33.5519 21.2341 32.7597 21.883 32.1074C21.9724 32.0204 22.0617 31.9334 22.1537 31.8438C22.7305 31.2676 23.2683 30.7112 23.3328 29.858C23.2075 28.9431 23.2075 28.9431 22.7264 28.1719C21.0224 27.0259 19.9041 27.8728 18.6277 29.1785ZM25.9077 31.4677C25.5683 31.7869 25.2399 32.1145 24.9134 32.4468C24.7932 32.5672 24.6729 32.6876 24.549 32.8116C24.2961 33.0655 24.0438 33.32 23.7922 33.5752C23.4068 33.966 23.019 34.3543 22.6309 34.7424C22.385 34.9897 22.1394 35.2371 21.8938 35.4846C21.7779 35.6008 21.662 35.717 21.5426 35.8368C21.3819 36.0002 21.382 36.0002 21.2181 36.1669C21.1239 36.2622 21.0296 36.3576 20.9325 36.4558C20.4635 37.0015 20.3388 37.4511 20.3591 38.1794C20.4599 38.8241 20.8729 39.228 21.3118 39.679C21.8243 39.9936 22.2767 40.1136 22.8714 40.0689C23.8531 39.7535 24.5336 39.0702 25.241 38.3517C25.406 38.187 25.406 38.187 25.5744 38.0189C25.8054 37.7877 26.0357 37.5557 26.2653 37.3231C26.6161 36.9681 26.9696 36.6158 27.3235 36.2638C27.5483 36.0381 27.7731 35.8121 27.9976 35.586C28.1028 35.4813 28.208 35.3765 28.3164 35.2686C29.0102 34.5617 29.4958 33.9858 29.6089 32.9688C29.5807 32.3003 29.3563 31.9031 28.965 31.3638C27.9667 30.5543 26.8583 30.6807 25.9077 31.4677ZM29.1532 37.6365C29.0655 37.7231 28.9778 37.8097 28.8874 37.8989C28.7035 38.0812 28.5202 38.2642 28.3374 38.4476C28.059 38.7262 27.7777 39.0014 27.496 39.2766C27.3168 39.4552 27.1377 39.6339 26.9588 39.8128C26.8753 39.8938 26.7919 39.9749 26.706 40.0584C26.0712 40.7041 25.6507 41.3886 25.6133 42.3234C25.781 43.0573 26.0248 43.516 26.6346 43.9721C27.1494 44.2461 27.6605 44.3479 28.2396 44.2764C29.0407 43.9506 29.5663 43.455 30.1688 42.8556C30.3157 42.7109 30.3157 42.7109 30.4655 42.5633C30.6714 42.3596 30.8767 42.1553 31.0815 41.9505C31.394 41.6389 31.7098 41.331 32.026 41.023C32.2263 40.8241 32.4263 40.6249 32.6262 40.4254C32.7203 40.3344 32.8145 40.2434 32.9115 40.1496C33.5301 39.5215 33.7698 39.0595 33.8979 38.1828C33.796 37.3385 33.4718 36.9722 32.8325 36.4656C32.3843 36.1506 32.029 36.1215 31.4842 36.0899C30.5256 36.2626 29.8166 36.9733 29.1532 37.6365ZM33.8044 42.562C33.7325 42.6341 33.6605 42.7062 33.5864 42.7804C33.4359 42.9318 33.2861 43.0839 33.137 43.2366C32.9091 43.4698 32.6791 43.7005 32.4485 43.931C31.3378 44.9648 31.3378 44.9648 30.9418 46.362C30.9593 47.0275 31.1285 47.3965 31.5766 47.9036C32.1789 48.4358 32.6372 48.5497 33.4128 48.561C34.4888 48.3171 35.285 47.2911 36.0368 46.5359C36.2558 46.3165 36.4766 46.0991 36.6976 45.8817C36.8383 45.7414 36.9789 45.6009 37.1193 45.4603C37.3093 45.271 37.3093 45.271 37.5031 45.0778C37.8822 44.6331 38.0831 44.2491 38.1326 43.6655C38.0556 42.7764 37.7713 42.2457 37.0898 41.6649C35.8236 40.9546 34.7241 41.6341 33.8044 42.562ZM40.5719 42.8256C40.5577 42.9692 40.5434 43.1128 40.5288 43.2608C40.4116 44.3321 40.2671 45.2255 39.7014 46.1625C39.6031 46.3552 39.506 46.5485 39.4112 46.7429C40.2204 46.7098 40.6435 46.5186 41.2321 45.9591C41.6027 45.5505 41.7257 45.2482 41.7411 44.6969C41.697 43.8473 41.4769 43.4104 40.862 42.8256C40.7663 42.8256 40.6705 42.8256 40.5719 42.8256Z" fill="#4F4F4F" stroke="#4F4F4F" stroke-width="1.5"/>
</svg>
