<svg width="22" height="24" viewBox="0 0 22 24" fill="none" xmlns="http://www.w3.org/2000/svg">
<path id="Union 73" d="M6.30045 22.6714L6.3021 22.6693C7.05603 21.7255 7.61801 20.643 7.95623 19.4835L8.32912 18.2052L6.9975 18.2035C5.83835 18.2021 4.70582 17.8578 3.74281 17.2136C2.7796 16.5693 2.02878 15.6541 1.58503 14.5835C1.1413 13.513 1.0246 12.335 1.24956 11.1981C1.47454 10.0611 2.03115 9.01596 2.84908 8.19518L2.84972 8.19453L9.31014 1.69962C9.31044 1.69931 9.31075 1.69901 9.31105 1.69871C9.75923 1.25127 10.3667 1 11.0005 1C11.6334 1 12.2403 1.25068 12.6883 1.69713L19.1465 8.25266L19.1464 8.25269L19.153 8.25922C20.2404 9.34275 20.8547 10.8125 20.8619 12.3475L20.8619 12.3575L20.8619 12.361C20.8646 13.1324 20.714 13.8969 20.4189 14.6094C20.1237 15.3219 19.6899 15.9684 19.1424 16.512C18.595 17.0555 17.945 17.4849 17.2304 17.7751C16.5157 18.0652 15.7506 18.2104 14.9792 18.2022L13.6329 18.188L14.0083 19.481C14.3453 20.6413 14.9069 21.7245 15.6616 22.6683L15.6649 22.6724C15.689 22.7023 15.7038 22.7377 15.7082 22.7749C15.7126 22.8128 15.7062 22.8513 15.69 22.8854C15.6735 22.9198 15.6477 22.9488 15.6157 22.9689C15.5834 22.9893 15.5464 23 15.5086 23L6.45671 23C6.45653 23 6.45634 23 6.45616 23C6.41986 22.9998 6.38344 22.9895 6.35121 22.9696C6.32001 22.9502 6.29407 22.9219 6.27715 22.888C6.25983 22.8533 6.25291 22.8146 6.25703 22.7763C6.26114 22.738 6.27609 22.7017 6.30045 22.6714Z" stroke="#4F4F4F" stroke-width="2"/>
</svg>
