<svg width="27" height="29" viewBox="0 0 27 29" fill="none" xmlns="http://www.w3.org/2000/svg">
<path id="Union 73" d="M6.52948 25.5072L7.52376 25.614L6.52948 25.5073C6.48348 25.9356 6.56127 26.3678 6.75345 26.753L7.6483 26.3067L6.75345 26.753C6.93959 27.1262 7.22615 27.4413 7.58155 27.6617C7.93576 27.8814 8.34474 27.9991 8.76315 28H8.76527H18.1969H18.1972C18.6224 27.9999 19.0384 27.8793 19.3976 27.6527C19.7571 27.4258 20.045 27.1018 20.228 26.7184C20.4111 26.3348 20.4818 25.907 20.4321 25.4851C20.3825 25.0638 20.2149 24.6659 19.9493 24.3363C19.5925 23.8898 19.2882 23.4053 19.0417 22.8924C19.6285 22.7946 20.2041 22.6323 20.758 22.4074C21.7532 22.0034 22.6582 21.4055 23.4203 20.6488C24.1823 19.8922 24.7865 18.992 25.1976 17.9995C25.6085 17.0077 25.8181 15.9439 25.8145 14.8706L25.8145 14.8597L25.8145 14.8554C25.8053 12.7176 24.9507 10.6704 23.4373 9.16053L16.71 2.33185L16.7101 2.33183L16.7046 2.32634C15.8545 1.47676 14.702 1 13.5006 1C12.2991 1 11.1466 1.47676 10.2965 2.32634L10.2945 2.32843L3.56333 9.09549C3.56324 9.09557 3.56316 9.09566 3.56307 9.09575C2.42636 10.2365 1.65309 11.6888 1.34053 13.2684C1.02793 14.8481 1.19008 16.4852 1.80674 17.9729C2.42338 19.4606 3.46674 20.7325 4.80535 21.6279C5.75178 22.2609 6.8157 22.6855 7.92686 22.8807C7.67856 23.3987 7.37175 23.8882 7.01163 24.3391C6.74281 24.6744 6.57542 25.0795 6.52948 25.5072Z" stroke="#4F4F4F" stroke-width="2"/>
</svg>
