<svg width="16" height="16" viewBox="0 0 16 16" fill="none" xmlns="http://www.w3.org/2000/svg">
<path d="M15.5 3.37498C15.5995 3.46068 15.6147 3.53307 15.625 3.66455C15.625 3.83712 15.5931 4.00516 15.5641 4.17481C15.5571 4.21703 15.5502 4.25926 15.5433 4.30149C15.5246 4.41543 15.5054 4.5293 15.4861 4.64315C15.4659 4.76263 15.4462 4.88218 15.4263 5.00173C15.393 5.20233 15.3593 5.40288 15.3254 5.6034C15.2863 5.83494 15.2477 6.06655 15.2094 6.29821C15.1724 6.52156 15.1351 6.74485 15.0976 6.96811C15.0817 7.06292 15.0659 7.15775 15.0502 7.2526C15.0317 7.3643 15.0129 7.47595 14.9939 7.58757C14.9837 7.64788 14.9738 7.70824 14.9639 7.7686C14.9577 7.80474 14.9514 7.84088 14.945 7.87811C14.9398 7.90937 14.9345 7.94064 14.9291 7.97285C14.8928 8.11541 14.8363 8.25068 14.7188 8.34374C14.607 8.38099 14.5237 8.38309 14.4062 8.37499C14.2966 8.31826 14.2128 8.25175 14.1261 8.16445C14.103 8.14131 14.0798 8.11817 14.056 8.09433C14.0315 8.06952 14.007 8.04471 13.9818 8.01915C13.9564 7.99362 13.9309 7.96809 13.9047 7.94178C13.8237 7.86042 13.7429 7.77884 13.6621 7.69725C13.6071 7.64196 13.5521 7.58668 13.4971 7.53142C13.3625 7.3961 13.2281 7.26061 13.0938 7.12498C12.8814 7.29898 12.6906 7.49341 12.4974 7.688C12.4595 7.72606 12.4216 7.76411 12.3837 7.80215C12.3024 7.88375 12.2212 7.9654 12.14 8.04708C12.0115 8.17627 11.8829 8.30531 11.7542 8.43431C11.3885 8.80106 11.023 9.16793 10.6577 9.53513C10.4557 9.73819 10.2536 9.94108 10.0512 10.1438C9.92334 10.2719 9.79565 10.4003 9.6681 10.5288C9.58872 10.6087 9.50914 10.6884 9.42951 10.768C9.39267 10.8049 9.35591 10.8419 9.31924 10.879C9.2691 10.9297 9.21868 10.9801 9.16819 11.0304C9.14007 11.0586 9.11195 11.0869 9.08298 11.116C8.9568 11.2247 8.85881 11.2797 8.69141 11.2851C8.58394 11.2663 8.52561 11.227 8.44538 11.1541C8.42359 11.1344 8.40181 11.1146 8.37936 11.0942C8.27009 10.9913 8.16335 10.8862 8.0575 10.7798C8.03338 10.7557 8.00926 10.7316 7.98442 10.7067C7.90555 10.6278 7.8268 10.5488 7.74805 10.4698C7.69306 10.4148 7.63807 10.3598 7.58307 10.3047C7.43895 10.1605 7.29492 10.0161 7.15092 9.8718C7.00371 9.72425 6.8564 9.57682 6.70911 9.42937C6.42057 9.14049 6.13212 8.85152 5.84375 8.56249C5.62883 8.73845 5.43578 8.93549 5.2402 9.13223C5.20154 9.171 5.16287 9.20977 5.12419 9.24853C5.04126 9.33167 4.95837 9.41485 4.87553 9.49806C4.74458 9.62959 4.61349 9.76097 4.48238 9.89234C4.1097 10.2658 3.7372 10.6394 3.36484 11.0131C3.15892 11.2198 2.95289 11.4264 2.74674 11.6329C2.61631 11.7635 2.48602 11.8943 2.35583 12.0252C2.275 12.1063 2.19405 12.1874 2.11306 12.2684C2.07545 12.3061 2.03789 12.3438 2.0004 12.3816C1.94934 12.4331 1.89809 12.4843 1.84678 12.5355C1.81812 12.5643 1.78945 12.593 1.75992 12.6227C1.66769 12.7052 1.61118 12.7174 1.48828 12.7265C1.28664 12.7126 1.17225 12.5881 1.03479 12.4504C1.00933 12.4252 1.00933 12.4252 0.983361 12.3994C0.947698 12.3639 0.912116 12.3284 0.87661 12.2927C0.82238 12.2384 0.767747 12.1845 0.713074 12.1306C0.67836 12.096 0.643671 12.0613 0.609009 12.0266C0.584595 12.0026 0.584594 12.0026 0.559687 11.9781C0.431625 11.8484 0.378383 11.754 0.369141 11.5723C0.42558 11.236 0.927725 10.8801 1.16159 10.6464C1.20911 10.5987 1.25662 10.5511 1.30412 10.5035C1.43233 10.375 1.56063 10.2466 1.68897 10.1183C1.7692 10.038 1.84941 9.95776 1.92961 9.87748C2.20953 9.59727 2.48953 9.31714 2.76961 9.03709C3.03057 8.77614 3.29136 8.51502 3.55207 8.25382C3.77622 8.02926 4.00049 7.80482 4.22486 7.58047C4.35874 7.4466 4.49257 7.31268 4.62628 7.17864C4.75183 7.05279 4.87753 6.92709 5.00334 6.8015C5.04949 6.75539 5.09558 6.70922 5.14162 6.66299C5.20443 6.59995 5.26742 6.5371 5.33047 6.47429C5.34867 6.45593 5.36686 6.43757 5.38562 6.41866C5.51459 6.29077 5.63482 6.17415 5.82617 6.17381C5.84869 6.17321 5.87121 6.1726 5.89441 6.17198C6.10817 6.21656 6.26561 6.41333 6.41277 6.56191C6.43779 6.58692 6.46281 6.61193 6.48859 6.6377C6.57091 6.72006 6.65301 6.80265 6.73511 6.88524C6.79228 6.94253 6.84946 6.9998 6.90666 7.05706C7.04157 7.19218 7.17634 7.32745 7.31105 7.46278C7.46449 7.61692 7.61811 7.77089 7.77175 7.92484C8.08762 8.24136 8.40326 8.5581 8.71875 8.87499C8.8965 8.72716 9.06032 8.56893 9.22338 8.40515C9.25115 8.37739 9.27892 8.34962 9.30753 8.32102C9.38305 8.24548 9.4585 8.16988 9.53392 8.09424C9.61298 8.01498 9.69213 7.93581 9.77127 7.85664C9.92084 7.70696 10.0703 7.55721 10.2198 7.40742C10.3901 7.23679 10.5605 7.06625 10.7309 6.89571C11.0811 6.54515 11.4312 6.19448 11.7812 5.84373C11.6834 5.72805 11.586 5.61321 11.4783 5.50648C11.4578 5.48605 11.4372 5.46562 11.4161 5.44457C11.3946 5.42334 11.3731 5.40211 11.351 5.38023C11.3284 5.3578 11.3059 5.33537 11.2826 5.31226C11.2113 5.24129 11.1398 5.17043 11.0684 5.09959C10.9737 5.00573 10.8791 4.91176 10.7845 4.81773C10.7627 4.79619 10.7409 4.77464 10.7185 4.75244C10.6984 4.7325 10.6784 4.71256 10.6577 4.69202C10.6401 4.6745 10.6224 4.65698 10.6041 4.63893C10.5097 4.53644 10.521 4.4293 10.5223 4.29625C10.535 4.18649 10.5746 4.13505 10.6562 4.06248C10.7546 4.00437 10.8461 3.98395 10.9583 3.96518C10.9944 3.95905 11.0305 3.95292 11.0677 3.9466C11.1072 3.9401 11.1467 3.9336 11.1873 3.92691C11.2295 3.91984 11.2716 3.91275 11.3136 3.90564C11.4279 3.88641 11.5422 3.86743 11.6565 3.84851C11.7763 3.82866 11.896 3.8086 12.0158 3.78858C12.217 3.75497 12.4182 3.72153 12.6194 3.68819C12.8517 3.6497 13.084 3.61092 13.3162 3.57198C13.5158 3.53853 13.7154 3.50523 13.9151 3.47206C14.0342 3.45227 14.1534 3.43242 14.2725 3.41243C14.3846 3.39363 14.4967 3.37502 14.6089 3.35657C14.6694 3.34656 14.7299 3.33636 14.7904 3.32615C15.3237 3.23898 15.3237 3.23898 15.5 3.37498Z" fill="#4F4F4F"/>
</svg>
