<svg width="28" height="28" viewBox="0 0 28 28" fill="none" xmlns="http://www.w3.org/2000/svg">
<g id="Group 14193">
<path id="Vector" d="M19.9567 3.50659L20.9407 5.30259C21.3527 6.05459 21.9727 6.6746 22.7247 7.0866L24.5207 8.07059L22.7247 9.05459C21.9727 9.46659 21.3527 10.0866 20.9407 10.8386L19.9567 12.6346L18.9727 10.8386C18.5607 10.0866 17.9407 9.46659 17.1887 9.05459L15.3927 8.07059L17.1887 7.0866C17.9407 6.6746 18.5607 6.05459 18.9727 5.30259L19.9567 3.50659Z" stroke="white" stroke-width="1.6" stroke-linecap="round" stroke-linejoin="round"/>
<path id="Vector_2" d="M24.6876 0.61908L25.2356 1.62308C25.4636 2.04308 25.8116 2.38708 26.2316 2.61908L27.2356 3.16708L26.2316 3.71508C25.8116 3.94308 25.4676 4.29108 25.2356 4.71108L24.6876 5.71508L24.1396 4.71108C23.9116 4.29108 23.5636 3.94708 23.1436 3.71508L22.1396 3.16708L23.1436 2.61908C23.5636 2.39108 23.9076 2.04308 24.1396 1.62308L24.6876 0.61908Z" fill="white"/>
<path id="Vector_3" d="M10.1116 2.51596H3.03958C2.15592 2.51596 1.43958 3.23231 1.43958 4.11596V11.188C1.43958 12.0716 2.15592 12.788 3.03957 12.788H10.1116C10.9952 12.788 11.7116 12.0716 11.7116 11.188V4.11596C11.7116 3.23231 10.9952 2.51596 10.1116 2.51596Z" stroke="white" stroke-width="1.92" stroke-linecap="round" stroke-linejoin="round"/>
<path id="Vector_4" d="M10.1116 16.7472H3.03958C2.15592 16.7472 1.43958 17.4635 1.43958 18.3472V25.4192C1.43958 26.3028 2.15592 27.0192 3.03957 27.0192H10.1116C10.9952 27.0192 11.7116 26.3028 11.7116 25.4192V18.3472C11.7116 17.4635 10.9952 16.7472 10.1116 16.7472Z" stroke="white" stroke-width="1.92" stroke-linecap="round" stroke-linejoin="round"/>
<path id="Vector_5" d="M24.346 16.7472H17.274C16.3903 16.7472 15.674 17.4635 15.674 18.3472V25.4192C15.674 26.3028 16.3903 27.0192 17.2739 27.0192H24.346C25.2296 27.0192 25.946 26.3028 25.946 25.4192V18.3472C25.946 17.4635 25.2296 16.7472 24.346 16.7472Z" stroke="white" stroke-width="1.92" stroke-linecap="round" stroke-linejoin="round"/>
</g>
</svg>
