<svg width="24" height="24" viewBox="0 0 24 24" fill="none" xmlns="http://www.w3.org/2000/svg">
<g clip-path="url(#clip0_7580_36890)">
<path d="M6.5 6.5V11.5H17.5V6.5H6.5ZM12.5 9.5H8V8.5H12.5V9.5ZM14 9.5C13.9011 9.5 13.8044 9.47068 13.7222 9.41573C13.64 9.36079 13.5759 9.2827 13.5381 9.19134C13.5002 9.09998 13.4903 8.99945 13.5096 8.90245C13.5289 8.80546 13.5765 8.71637 13.6464 8.64645C13.7164 8.57652 13.8055 8.5289 13.9025 8.50961C13.9994 8.49031 14.1 8.50022 14.1913 8.53806C14.2827 8.5759 14.3608 8.63999 14.4157 8.72221C14.4707 8.80444 14.5 8.90111 14.5 9C14.5 9.13261 14.4473 9.25979 14.3536 9.35355C14.2598 9.44732 14.1326 9.5 14 9.5ZM15.5 9.5C15.4011 9.5 15.3044 9.47068 15.2222 9.41573C15.14 9.36079 15.0759 9.2827 15.0381 9.19134C15.0002 9.09998 14.9903 8.99945 15.0096 8.90245C15.0289 8.80546 15.0765 8.71637 15.1464 8.64645C15.2164 8.57652 15.3055 8.5289 15.4025 8.50961C15.4994 8.49031 15.6 8.50022 15.6913 8.53806C15.7827 8.5759 15.8608 8.63999 15.9157 8.72221C15.9707 8.80444 16 8.90111 16 9C16 9.13261 15.9473 9.25979 15.8536 9.35355C15.7598 9.44732 15.6326 9.5 15.5 9.5ZM17.345 15.185L17.915 14.685L17.415 13.82L16.69 14.065C16.5292 13.9301 16.3466 13.8236 16.15 13.75L16 13H15L14.85 13.745C14.6534 13.8186 14.4708 13.9251 14.31 14.06L13.585 13.815L13.085 14.68L13.655 15.18C13.6145 15.3881 13.6145 15.6019 13.655 15.81L13.085 16.31L13.585 17.175L14.31 16.93C14.4708 17.0649 14.6534 17.1714 14.85 17.245L15 18H16L16.15 17.255C16.3466 17.1814 16.5292 17.0749 16.69 16.94L17.415 17.185L17.915 16.32L17.345 15.82C17.3849 15.6102 17.3849 15.3948 17.345 15.185ZM15.5 16.5C15.3022 16.5 15.1089 16.4414 14.9444 16.3315C14.78 16.2216 14.6518 16.0654 14.5761 15.8827C14.5004 15.7 14.4806 15.4989 14.5192 15.3049C14.5578 15.1109 14.653 14.9327 14.7929 14.7929C14.9327 14.653 15.1109 14.5578 15.3049 14.5192C15.4989 14.4806 15.7 14.5004 15.8827 14.5761C16.0654 14.6518 16.2216 14.78 16.3315 14.9444C16.4414 15.1089 16.5 15.3022 16.5 15.5C16.4992 15.765 16.3936 16.0189 16.2062 16.2062C16.0189 16.3936 15.765 16.4992 15.5 16.5Z" fill="#4F4F4F"/>
<path d="M12 15.5H8V14.5H12.147C12.3979 13.6622 12.9534 12.9487 13.704 12.5H6.5V17.5H12.63C12.2194 16.914 11.9994 16.2156 12 15.5Z" fill="#4F4F4F"/>
</g>
<defs>
<clipPath id="clip0_7580_36890">
<rect width="12" height="12" fill="white" transform="translate(6 6)"/>
</clipPath>
</defs>
</svg>
