<svg width="20" height="16" viewBox="0 0 20 16" fill="none" xmlns="http://www.w3.org/2000/svg">
<path d="M0.376953 4.00747C3.00141 7.87876 5.62484 11.75 8.2493 15.6213C8.59724 16.1346 9.36847 16.1244 9.70091 15.601C13.0078 10.4003 16.3158 5.20067 19.6227 0C15.8666 3.71781 12.1106 7.43563 8.35461 11.1524C5.69608 8.77112 3.03652 6.3898 0.376953 4.00747Z" fill="#4F4F4F"/>
<path d="M1.14648 3.4393C2.36373 4.1294 4.75589 5.24027 7.82946 5.12746C8.21973 5.11323 10.0843 5.02481 12.238 4.14363C14.2461 3.3214 15.7875 2.1028 16.632 1.43505C17.4012 0.826259 17.841 0.397358 17.8606 0.417685C17.9009 0.458339 16.122 2.27354 8.33949 9.88195C5.94113 7.73338 3.54381 5.58583 1.14648 3.4393Z" fill="#4F4F4F"/>
<path d="M1.14757 3.44064C2.12323 4.29742 5.32482 6.89013 8.9683 6.26813C11.092 5.90529 12.8998 4.53017 14.6271 3.21602C16.1396 2.06551 17.8628 0.422074 17.8586 0.416992C17.8586 0.416992 17.8401 0.430205 17.805 0.458663C17.7255 0.521676 17.6666 0.570461 17.6522 0.581641C17.5159 0.694456 17.3693 0.826582 17.3693 0.826582C17.297 0.891628 17.1876 0.986149 17.0286 1.11421C16.9728 1.15995 16.8954 1.22398 16.8014 1.3002C16.8014 1.3002 16.5412 1.51059 16.2862 1.70776C15.0308 2.67634 13.9663 3.29225 13.9663 3.29225C11.8633 4.48646 9.98526 4.84727 9.55163 4.92553C8.33542 5.14404 7.40519 5.13896 7.14295 5.13388C6.79811 5.12778 5.77806 5.09424 4.49887 4.78222C4.18707 4.706 3.31053 4.47935 2.24299 3.9976C1.79181 3.79433 1.42117 3.59614 1.14551 3.44064H1.14757Z" fill="#4F4F4F"/>
<path d="M8.35543 11.1524L6.51562 13.0621L8.25012 15.6203C8.28832 15.6742 8.48036 15.9333 8.82932 15.9872C9.15867 16.038 9.49731 15.8866 9.70277 15.599C13.0076 10.4003 16.3155 5.20067 19.6224 0L8.35543 11.1524Z" fill="#4F4F4F"/>
</svg>
