<svg width="25" height="25" viewBox="0 0 25 25" fill="none" xmlns="http://www.w3.org/2000/svg">
<g id="Group 9492">
<path id="Path 14259" d="M18.3378 24.9995C18.2084 24.9996 18.0808 24.9695 17.965 24.9118C17.8492 24.854 17.7485 24.7702 17.6707 24.6668L11.6017 16.5732C11.5336 16.4859 11.4836 16.3859 11.4546 16.279C11.4257 16.1722 11.4183 16.0606 11.433 15.9509C11.4476 15.8412 11.484 15.7355 11.54 15.64C11.596 15.5445 11.6705 15.4611 11.7591 15.3947C11.8477 15.3284 11.9486 15.2803 12.056 15.2534C12.1634 15.2266 12.275 15.2213 12.3845 15.2381C12.4939 15.2549 12.5989 15.2933 12.6933 15.3512C12.7876 15.409 12.8696 15.4851 12.9342 15.5749L17.9535 22.2673L22.9524 2.27148L3.18469 10.7384L8.41172 12.4834C8.51552 12.518 8.6115 12.5726 8.69418 12.6443C8.77685 12.716 8.8446 12.8032 8.89356 12.901C8.94252 12.9989 8.97172 13.1054 8.97951 13.2145C8.9873 13.3237 8.97352 13.4333 8.93895 13.5371C8.90438 13.6409 8.84971 13.7369 8.77805 13.8195C8.70639 13.9022 8.61915 13.97 8.5213 14.0189C8.42346 14.0679 8.31693 14.0971 8.2078 14.1049C8.09867 14.1127 7.98907 14.0989 7.88527 14.0643L0.577431 11.6273C0.414977 11.5754 0.272386 11.4748 0.16894 11.3392C0.0654932 11.2036 0.00618151 11.0396 -0.000975315 10.8692C-0.00813214 10.6987 0.0372111 10.5303 0.128923 10.3865C0.220635 10.2427 0.354292 10.1305 0.51182 10.0651L23.8413 0.0672566C23.9838 0.0062135 24.1405 -0.0138277 24.2938 0.00939008C24.4471 0.0326078 24.5909 0.0981622 24.7089 0.198671C24.8269 0.299179 24.9146 0.430649 24.9619 0.578274C25.0093 0.7259 25.0145 0.883817 24.977 1.03424L19.1438 24.3746C19.1061 24.5275 19.0257 24.6665 18.9121 24.7755C18.7984 24.8845 18.6561 24.9589 18.5018 24.9901C18.4475 24.9982 18.3926 25.0013 18.3378 24.9995Z" fill="#4F4F4F"/>
<path id="Path 14260" d="M8.33975 24.1667C8.1216 24.1668 7.91215 24.0812 7.75644 23.9284C7.60074 23.7756 7.51121 23.5678 7.50711 23.3497L7.31653 13.2878C7.31401 13.1414 7.35007 12.9969 7.42109 12.8688C7.49211 12.7407 7.59559 12.6336 7.72113 12.5582L18.7438 5.95651C18.9088 5.86051 19.1017 5.82409 19.2903 5.85335C19.4789 5.88261 19.6517 5.97578 19.7798 6.11725C19.9079 6.25872 19.9835 6.4399 19.994 6.63047C20.0045 6.82104 19.9492 7.00942 19.8373 7.16407L12.9638 16.5199L9.05835 23.7309C8.98812 23.8608 8.88451 23.9697 8.75821 24.0463C8.6319 24.123 8.48746 24.1645 8.33975 24.1667ZM8.99118 13.7392L9.11303 20.1535L11.5344 15.6763C11.5526 15.6428 11.573 15.6104 11.5953 15.5795L16.0522 9.50889L8.99118 13.7392Z" fill="#4F4F4F"/>
</g>
</svg>
