<svg width="20" height="20" viewBox="0 0 20 20" fill="none" xmlns="http://www.w3.org/2000/svg">
<path d="M17.2682 0.75H2.73181C2.2062 0.75 1.70212 0.958798 1.33046 1.33046C0.958798 1.70212 0.75 2.2062 0.75 2.73181L0.75 17.2682C0.75 17.7938 0.958798 18.2979 1.33046 18.6695C1.70212 19.0412 2.2062 19.25 2.73181 19.25H17.2682C17.7938 19.25 18.2979 19.0412 18.6695 18.6695C19.0412 18.2979 19.25 17.7938 19.25 17.2682V2.73181C19.25 2.2062 19.0412 1.70212 18.6695 1.33046C18.2979 0.958798 17.7938 0.75 17.2682 0.75V0.75ZM17.9284 17.2682C17.9284 17.4433 17.8588 17.6112 17.735 17.735C17.6112 17.8588 17.4433 17.9284 17.2682 17.9284H2.73181C2.55671 17.9284 2.38878 17.8588 2.26497 17.735C2.14115 17.6112 2.07159 17.4433 2.07159 17.2682V10H17.9284V17.2682ZM17.9284 8.67841H2.07159V2.73181C2.07159 2.55671 2.14115 2.38878 2.26497 2.26497C2.38878 2.14115 2.55671 2.07159 2.73181 2.07159H17.2682C17.4433 2.07159 17.6112 2.14115 17.735 2.26497C17.8588 2.38878 17.9284 2.55671 17.9284 2.73181V8.67841Z" fill="#4F4F4F"/>
<path d="M15.9466 3.39307H9.33974C9.16448 3.39307 8.99642 3.46269 8.8725 3.58661C8.74858 3.71053 8.67896 3.87861 8.67896 4.05387C8.67896 4.22912 8.74858 4.3972 8.8725 4.52112C8.99642 4.64505 9.16448 4.71467 9.33974 4.71467H15.9466C16.1218 4.71467 16.2899 4.64505 16.4138 4.52112C16.5377 4.3972 16.6074 4.22912 16.6074 4.05387C16.6074 3.87861 16.5377 3.71053 16.4138 3.58661C16.2899 3.46269 16.1218 3.39307 15.9466 3.39307Z" fill="#4F4F4F"/>
<path d="M15.9466 6.03516H9.33974C9.16448 6.03516 8.99642 6.10478 8.8725 6.2287C8.74858 6.35262 8.67896 6.5207 8.67896 6.69596C8.67896 6.87121 8.74858 7.03927 8.8725 7.1632C8.99642 7.28712 9.16448 7.35674 9.33974 7.35674H15.9466C16.1218 7.35674 16.2899 7.28712 16.4138 7.1632C16.5377 7.03927 16.6074 6.87121 16.6074 6.69596C16.6074 6.5207 16.5377 6.35262 16.4138 6.2287C16.2899 6.10478 16.1218 6.03516 15.9466 6.03516Z" fill="#4F4F4F"/>
<path d="M5.37496 3.39307C4.98324 3.39422 4.60065 3.51142 4.2755 3.72988C3.95035 3.94834 3.69724 4.25825 3.54813 4.62048C3.39901 4.98271 3.3606 5.381 3.43772 5.76505C3.51484 6.1491 3.70404 6.50169 3.98143 6.77828C4.25882 7.05486 4.61195 7.24303 4.99623 7.31903C5.3805 7.39504 5.77868 7.35546 6.14047 7.20529C6.50226 7.05512 6.81144 6.8011 7.02895 6.47532C7.24646 6.14954 7.36254 5.76661 7.36254 5.37489C7.36255 5.11415 7.3111 4.85596 7.21114 4.61514C7.11118 4.37432 6.96469 4.1556 6.78004 3.97149C6.5954 3.78739 6.37625 3.64153 6.13514 3.54227C5.89403 3.44302 5.6357 3.39231 5.37496 3.39307ZM5.37496 6.03627C5.24438 6.03627 5.11673 5.99755 5.00816 5.925C4.89959 5.85245 4.81497 5.74934 4.765 5.6287C4.71503 5.50807 4.70195 5.37532 4.72743 5.24725C4.7529 5.11918 4.81577 5.00153 4.90811 4.9092C5.00044 4.81686 5.11809 4.75399 5.24616 4.72852C5.37423 4.70304 5.50697 4.71612 5.62761 4.76609C5.74824 4.81606 5.85136 4.90068 5.92391 5.00925C5.99646 5.11782 6.03518 5.24547 6.03518 5.37605C6.03518 5.55115 5.96562 5.71908 5.8418 5.84289C5.71798 5.96671 5.55006 6.03627 5.37496 6.03627Z" fill="#4F4F4F"/>
</svg>
