<svg width="25" height="25" viewBox="0 0 25 25" fill="none" xmlns="http://www.w3.org/2000/svg">
<g id="calendar">
<g id="Group 510">
<g id="Group 509">
<path id="Path 776" d="M22.3215 2.67882H19.6419V0.892941C19.6419 0.656118 19.5479 0.428995 19.3804 0.261536C19.2129 0.0940774 18.9858 0 18.749 0C18.5122 0 18.2851 0.0940774 18.1176 0.261536C17.9501 0.428995 17.8561 0.656118 17.8561 0.892941V2.67882H7.14233V0.892941C7.14233 0.656118 7.04825 0.428995 6.8808 0.261536C6.71334 0.0940774 6.48621 0 6.24939 0C6.01257 0 5.78544 0.0940774 5.61799 0.261536C5.45053 0.428995 5.35645 0.656118 5.35645 0.892941V2.67882H2.67841C2.32659 2.67882 1.97822 2.74814 1.6532 2.88283C1.32819 3.01751 1.03289 3.21491 0.784194 3.46376C0.535495 3.7126 0.338264 4.00801 0.203772 4.3331C0.0692795 4.6582 0.000161406 5.00661 0.000366667 5.35843V22.322C0.000366667 23.0322 0.282517 23.7134 0.784747 24.2156C1.28698 24.7179 1.96815 25 2.67841 25H22.3215C23.0318 25 23.713 24.7179 24.2152 24.2156C24.7174 23.7134 24.9996 23.0322 24.9996 22.322V5.35843C24.9998 5.00661 24.9307 4.6582 24.7962 4.3331C24.6617 4.00801 24.4645 3.7126 24.2158 3.46376C23.9671 3.21491 23.6718 3.01751 23.3467 2.88283C23.0217 2.74814 22.6734 2.67882 22.3215 2.67882ZM23.2137 22.3204C23.2137 22.557 23.1197 22.7839 22.9524 22.9512C22.7851 23.1186 22.5582 23.2126 22.3215 23.2126H2.67841C2.44179 23.2126 2.21487 23.1186 2.04756 22.9512C1.88024 22.7839 1.78625 22.557 1.78625 22.3204V10.7145H23.2137V22.3204ZM23.2137 8.92863H1.78625V5.35843C1.78625 5.12181 1.88024 4.89489 2.04756 4.72757C2.21487 4.56026 2.44179 4.46627 2.67841 4.46627H5.35801V6.25059C5.35801 6.4872 5.45201 6.71413 5.61932 6.88144C5.78663 7.04875 6.01356 7.14275 6.25017 7.14275C6.48679 7.14275 6.71371 7.04875 6.88102 6.88144C7.04834 6.71413 7.14233 6.4872 7.14233 6.25059V4.4647H17.8561V6.25059C17.8561 6.48741 17.9501 6.71453 18.1176 6.88199C18.2851 7.04945 18.5122 7.14353 18.749 7.14353C18.9858 7.14353 19.2129 7.04945 19.3804 6.88199C19.5479 6.71453 19.6419 6.48741 19.6419 6.25059V4.4647H22.32C22.5566 4.4647 22.7835 4.5587 22.9508 4.72601C23.1181 4.89332 23.2121 5.12025 23.2121 5.35686V8.92863H23.2137Z" fill="#4F4F4F"/>
</g>
</g>
<g id="Group 512">
<g id="Group 511">
<path id="Path 777" d="M7.14198 12.5005H5.34985C5.11303 12.5005 4.88591 12.5946 4.71845 12.762C4.55099 12.9295 4.45691 13.1566 4.45691 13.3934C4.45691 13.6303 4.55099 13.8574 4.71845 14.0248C4.88591 14.1923 5.11303 14.2864 5.34985 14.2864H7.13573C7.37256 14.2864 7.59968 14.1923 7.76714 14.0248C7.9346 13.8574 8.02868 13.6303 8.02868 13.3934C8.02868 13.1566 7.9346 12.9295 7.76714 12.762C7.59968 12.5946 7.37256 12.5005 7.13573 12.5005H7.14198Z" fill="#4F4F4F"/>
</g>
</g>
<g id="Group 514">
<g id="Group 513">
<path id="Path 778" d="M13.3927 12.5002H11.6068C11.37 12.5002 11.1429 12.5943 10.9754 12.7618C10.8079 12.9292 10.7139 13.1564 10.7139 13.3932C10.7139 13.63 10.8079 13.8571 10.9754 14.0246C11.1429 14.1921 11.37 14.2861 11.6068 14.2861H13.3927C13.6295 14.2861 13.8566 14.1921 14.0241 14.0246C14.1915 13.8571 14.2856 13.63 14.2856 13.3932C14.2856 13.1564 14.1915 12.9292 14.0241 12.7618C13.8566 12.5943 13.6295 12.5002 13.3927 12.5002Z" fill="#4F4F4F"/>
</g>
</g>
<g id="Group 516">
<g id="Group 515">
<path id="Path 779" d="M19.642 12.5002H17.8562C17.6194 12.5002 17.3923 12.5943 17.2248 12.7618C17.0573 12.9292 16.9633 13.1564 16.9633 13.3932C16.9633 13.63 17.0573 13.8571 17.2248 14.0246C17.3923 14.1921 17.6194 14.2861 17.8562 14.2861H19.642C19.8789 14.2861 20.106 14.1921 20.2735 14.0246C20.4409 13.8571 20.535 13.63 20.535 13.3932C20.535 13.1564 20.4409 12.9292 20.2735 12.7618C20.106 12.5943 19.8789 12.5002 19.642 12.5002Z" fill="#4F4F4F"/>
</g>
</g>
<g id="Group 518">
<g id="Group 517">
<path id="Path 780" d="M7.14198 16.0723H5.34985C5.11303 16.0723 4.88591 16.1663 4.71845 16.3338C4.55099 16.5013 4.45691 16.7284 4.45691 16.9652C4.45691 17.202 4.55099 17.4291 4.71845 17.5966C4.88591 17.764 5.11303 17.8581 5.34985 17.8581H7.13573C7.37256 17.8581 7.59968 17.764 7.76714 17.5966C7.9346 17.4291 8.02868 17.202 8.02868 16.9652C8.02868 16.7284 7.9346 16.5013 7.76714 16.3338C7.59968 16.1663 7.37256 16.0723 7.13573 16.0723H7.14198Z" fill="#4F4F4F"/>
</g>
</g>
<g id="Group 520">
<g id="Group 519">
<path id="Path 781" d="M13.3927 16.072H11.6068C11.37 16.072 11.1429 16.1661 10.9754 16.3336C10.8079 16.501 10.7139 16.7281 10.7139 16.965C10.7139 17.2018 10.8079 17.4289 10.9754 17.5963C11.1429 17.7638 11.37 17.8579 11.6068 17.8579H13.3927C13.6295 17.8579 13.8566 17.7638 14.0241 17.5963C14.1915 17.4289 14.2856 17.2018 14.2856 16.965C14.2856 16.7281 14.1915 16.501 14.0241 16.3336C13.8566 16.1661 13.6295 16.072 13.3927 16.072Z" fill="#4F4F4F"/>
</g>
</g>
<g id="Group 522">
<g id="Group 521">
<path id="Path 782" d="M19.642 16.072H17.8562C17.6194 16.072 17.3923 16.1661 17.2248 16.3336C17.0573 16.501 16.9633 16.7281 16.9633 16.965C16.9633 17.2018 17.0573 17.4289 17.2248 17.5963C17.3923 17.7638 17.6194 17.8579 17.8562 17.8579H19.642C19.8789 17.8579 20.106 17.7638 20.2735 17.5963C20.4409 17.4289 20.535 17.2018 20.535 16.965C20.535 16.7281 20.4409 16.501 20.2735 16.3336C20.106 16.1661 19.8789 16.072 19.642 16.072Z" fill="#4F4F4F"/>
</g>
</g>
<g id="Group 524">
<g id="Group 523">
<path id="Path 783" d="M7.14198 19.6423H5.34985C5.11303 19.6423 4.88591 19.7364 4.71845 19.9039C4.55099 20.0713 4.45691 20.2985 4.45691 20.5353C4.45691 20.7721 4.55099 20.9992 4.71845 21.1666C4.88591 21.3341 5.11303 21.4282 5.34985 21.4282H7.13573C7.37256 21.4282 7.59968 21.3341 7.76714 21.1666C7.9346 20.9992 8.02868 20.7721 8.02868 20.5353C8.02868 20.2985 7.9346 20.0713 7.76714 19.9039C7.59968 19.7364 7.37256 19.6423 7.13573 19.6423H7.14198Z" fill="#4F4F4F"/>
</g>
</g>
<g id="Group 526">
<g id="Group 525">
<path id="Path 784" d="M13.3927 19.6423H11.6068C11.37 19.6423 11.1429 19.7364 10.9754 19.9039C10.8079 20.0713 10.7139 20.2985 10.7139 20.5353C10.7139 20.7721 10.8079 20.9992 10.9754 21.1666C11.1429 21.3341 11.37 21.4282 11.6068 21.4282H13.3927C13.6295 21.4282 13.8566 21.3341 14.0241 21.1666C14.1915 20.9992 14.2856 20.7721 14.2856 20.5353C14.2856 20.2985 14.1915 20.0713 14.0241 19.9039C13.8566 19.7364 13.6295 19.6423 13.3927 19.6423Z" fill="#4F4F4F"/>
</g>
</g>
<g id="Group 528">
<g id="Group 527">
<path id="Path 785" d="M19.642 19.6423H17.8562C17.6194 19.6423 17.3923 19.7364 17.2248 19.9039C17.0573 20.0713 16.9633 20.2985 16.9633 20.5353C16.9633 20.7721 17.0573 20.9992 17.2248 21.1666C17.3923 21.3341 17.6194 21.4282 17.8562 21.4282H19.642C19.8789 21.4282 20.106 21.3341 20.2735 21.1666C20.4409 20.9992 20.535 20.7721 20.535 20.5353C20.535 20.2985 20.4409 20.0713 20.2735 19.9039C20.106 19.7364 19.8789 19.6423 19.642 19.6423Z" fill="#4F4F4F"/>
</g>
</g>
</g>
</svg>
