<svg width="23" height="17" viewBox="0 0 23 17" fill="none" xmlns="http://www.w3.org/2000/svg">
<g id="Frame 1000010101">
<path id="Vector" fill-rule="evenodd" clip-rule="evenodd" d="M8.13476 0.977783H8.13353C10.0675 0.998651 11.6664 1.61242 13.0106 2.79209C12.7264 2.94185 12.4913 3.11862 12.2243 3.28127C11.0661 2.35386 9.72259 1.88616 8.12494 1.86898C6.229 1.85056 4.50431 2.60182 3.24669 3.83305C1.98968 5.06366 1.20283 6.77363 1.1838 8.66957H1.18564V8.67079H1.1838C1.16539 10.5643 1.91664 12.2896 3.14726 13.5454C4.37787 14.8036 6.08906 15.5905 7.98439 15.6101C9.87849 15.6279 11.6032 14.876 12.8602 13.646C14.1178 12.4123 14.9053 10.7042 14.9243 8.80951C14.9323 8.02081 14.8445 7.33891 14.6321 6.68279C14.8752 6.45385 15.1213 6.24026 15.3607 6.04508C15.6829 6.89945 15.8241 7.80231 15.8137 8.81933L15.8149 8.81748V8.81933H15.8137C15.7909 10.9626 14.904 12.8948 13.4862 14.2843C12.0672 15.6721 10.1185 16.5209 7.97396 16.4982C5.83005 16.4774 3.89913 15.5886 2.51078 14.1696C1.12058 12.753 0.272351 10.8036 0.293219 8.66036H0.291992L0.293219 8.65975C0.317156 6.51584 1.20528 4.58369 2.62064 3.19534C4.03968 1.8076 5.98779 0.958754 8.13231 0.979008H8.13353L8.13476 0.977783ZM8.11696 2.63128V2.63374C6.42848 2.61594 4.89528 3.28372 3.78005 4.37746C2.66545 5.46936 1.96575 6.98967 1.94979 8.67632C1.93322 10.3648 2.59977 11.8986 3.69229 13.0126C4.7848 14.1278 6.30572 14.8269 7.99114 14.8429V14.8466H7.99298V14.8429C9.68085 14.8607 11.2128 14.1929 12.3287 13.101C13.4445 12.0085 14.1417 10.4869 14.1589 8.8003C14.1657 8.23011 14.1282 7.75996 14.0196 7.30577C13.7403 7.61388 13.4826 7.93918 13.2659 8.27737C13.272 8.43449 13.272 8.60144 13.2714 8.79109H13.2677V8.79293H13.2714C13.2548 10.231 12.6576 11.5279 11.7032 12.4633C10.75 13.3968 9.44087 13.9683 8.00157 13.9547C6.56228 13.9388 5.26661 13.3416 4.33061 12.3884C3.39583 11.4334 2.82503 10.1248 2.83976 8.68675H2.8416V8.68552H2.83976C2.85449 7.24807 3.45291 5.94994 4.4061 5.0164C5.36052 4.07978 6.66969 3.50836 8.10776 3.52187V3.52616H8.1096V3.52187C9.14564 3.53414 10.1105 3.84778 10.9182 4.38176C11.0723 4.20376 11.3503 3.93371 11.6118 3.75142C10.6156 3.0198 9.44946 2.64847 8.11819 2.63435V2.6319L8.11696 2.63128Z" fill="white"/>
<path id="Vector_2" fill-rule="evenodd" clip-rule="evenodd" d="M5.93994 4.78516C4.82227 5.39586 3.99859 6.47241 3.72668 7.74538L5.73249 12.4487C6.44078 12.8882 7.27919 13.1331 8.17407 13.1122C8.53497 13.1024 8.88236 13.0508 9.21687 12.9606L5.94056 4.78516H5.93994Z" fill="white"/>
<path id="Vector_3" fill-rule="evenodd" clip-rule="evenodd" d="M22.7083 0.5C22.5567 0.506751 22.4039 0.509821 22.2504 0.519641C17.1463 0.847395 11.4757 3.50932 7.89307 8.30349C8.29263 9.15602 9.63065 12.5238 9.73193 12.7865C12.8075 6.10864 17.3734 2.04977 22.7083 0.5Z" fill="white"/>
</g>
</svg>
