<svg width="16" height="16" viewBox="0 0 16 16" fill="none" xmlns="http://www.w3.org/2000/svg">
<g clip-path="url(#clip0_8310_3493)">
<path d="M8.25962 0.0271782C8.38953 0.10446 8.49103 0.205809 8.59507 0.314288C9.96501 1.67599 11.9358 2.22093 13.8131 2.28841C13.8429 2.28953 13.8728 2.29065 13.9035 2.2918C13.9593 2.29371 14.0151 2.2952 14.0709 2.29618C14.2524 2.30184 14.3828 2.33374 14.5256 2.4543C14.5403 2.47126 14.5549 2.48822 14.57 2.50569C14.585 2.52225 14.6 2.53881 14.6155 2.55586C14.7222 2.73745 14.728 2.94588 14.7294 3.15094C14.7299 3.17745 14.7303 3.20397 14.7307 3.23128C14.732 3.31876 14.7328 3.40624 14.7336 3.49373C14.7344 3.55571 14.7352 3.61768 14.736 3.67965C14.738 3.84476 14.7396 4.00987 14.741 4.17498C14.7419 4.27723 14.7429 4.37948 14.7439 4.48173C14.7563 5.81682 14.7567 7.14477 14.5622 8.46858C14.5573 8.50323 14.5524 8.53787 14.5473 8.57356C14.2787 10.4401 13.5343 12.1974 12.2185 13.5623C12.2018 13.5797 12.1851 13.5971 12.1679 13.615C11.9471 13.8437 11.7198 14.0544 11.4685 14.2498C11.4389 14.2737 11.4093 14.2976 11.3788 14.3222C10.5399 14.988 8.94338 16.1041 7.81223 15.9998C7.67694 15.965 7.55044 15.9148 7.42161 15.8612C7.36854 15.8398 7.36854 15.8398 7.31439 15.8181C7.20913 15.7753 7.10437 15.7316 6.99973 15.6873C6.95687 15.6693 6.95687 15.6693 6.91314 15.651C5.5248 15.0623 4.1764 14.1781 3.24973 12.9686C3.23695 12.9521 3.22417 12.9356 3.21101 12.9187C1.85022 11.1561 1.36948 8.95898 1.27512 6.77327C1.27377 6.74246 1.27242 6.71165 1.27102 6.67991C1.23945 5.91331 1.24892 5.14618 1.25655 4.37919C1.25755 4.27728 1.25844 4.17538 1.25932 4.07347C1.26077 3.91089 1.26259 3.74831 1.2647 3.58574C1.26546 3.52499 1.26612 3.46424 1.26669 3.40348C1.26751 3.3193 1.26872 3.23512 1.27003 3.15094C1.27019 3.12653 1.27036 3.10212 1.27053 3.07697C1.27462 2.86214 1.2957 2.6525 1.447 2.48812C1.46493 2.46789 1.48285 2.44767 1.50132 2.42684C1.63617 2.31171 1.78234 2.30182 1.95347 2.29585C2.00036 2.29371 2.04724 2.29156 2.09413 2.28941C2.13079 2.28787 2.13079 2.28787 2.16819 2.2863C2.89711 2.2549 3.60275 2.17579 4.31223 1.99983C4.33593 1.99396 4.35963 1.98809 4.38404 1.98204C5.35618 1.73404 6.29857 1.24307 7.06223 0.593584C7.09599 0.56521 7.12977 0.53685 7.16355 0.508501C7.30863 0.386434 7.45293 0.26358 7.59544 0.138506C7.78816 -0.0214093 8.01875 -0.0638073 8.25962 0.0271782ZM7.822 1.4764C7.49443 1.78076 7.10354 2.025 6.71848 2.24983C6.69867 2.26166 6.67886 2.27348 6.65846 2.28566C6.01086 2.67068 5.31712 2.92255 4.59348 3.12483C4.56932 3.13167 4.54515 3.13851 4.52026 3.14556C3.84501 3.33263 3.13347 3.38725 2.43723 3.43733C2.26798 7.83977 2.26798 7.83977 4.57139 12.7238C4.5993 12.753 4.62722 12.7822 4.65598 12.8123C4.67584 12.8335 4.6957 12.8546 4.71616 12.8764C4.87072 13.0369 5.04486 13.1732 5.21848 13.3123C5.24326 13.333 5.26803 13.3536 5.29356 13.3748C5.51731 13.5595 5.75521 13.7193 5.99973 13.8748C6.01899 13.8872 6.03825 13.8995 6.0581 13.9122C6.99777 14.526 6.99777 14.526 8.03794 14.8093C8.20009 14.7705 8.34854 14.7096 8.50169 14.6444C8.53463 14.6304 8.56757 14.6165 8.60152 14.6021C9.38746 14.2649 10.1171 13.8536 10.781 13.3123C10.8005 13.2964 10.82 13.2805 10.8402 13.2641C11.2228 12.9496 11.5722 12.6118 11.8747 12.2186C11.8879 12.2017 11.901 12.1849 11.9146 12.1675C13.7862 9.75889 13.6378 6.51192 13.5622 3.43733C13.5227 3.43406 13.5227 3.43406 13.4823 3.43071C11.5655 3.26898 9.47643 2.78903 8.06223 1.37483C7.91988 1.37483 7.91627 1.38232 7.822 1.4764Z" fill="#4F4F4F"/>
<path d="M10.6014 5.92359C10.7446 6.0039 10.8465 6.12353 10.8938 6.28175C10.941 6.51828 10.873 6.67636 10.7499 6.87477C10.6574 6.98799 10.5553 7.0898 10.4511 7.19226C10.4209 7.22255 10.3907 7.25287 10.3605 7.28322C10.2792 7.36486 10.1974 7.446 10.1155 7.52705C10.0295 7.61227 9.94398 7.69791 9.85838 7.7835C9.71472 7.92702 9.57076 8.07024 9.4266 8.21327C9.26021 8.37835 9.0942 8.54381 8.92841 8.70949C8.75137 8.88642 8.57409 9.06311 8.39672 9.23971C8.34583 9.29041 8.29497 9.34115 8.24413 9.3919C8.16412 9.47172 8.08395 9.55138 8.00366 9.63091C7.96035 9.67387 7.9172 9.71699 7.87405 9.7601C7.50394 10.1258 7.50394 10.1258 7.24402 10.1345C7.22166 10.1357 7.1993 10.1369 7.17627 10.1381C6.8692 10.0886 6.66867 9.84365 6.46021 9.63404C6.42367 9.59767 6.38712 9.56132 6.35055 9.52498C6.27425 9.449 6.1982 9.3728 6.12229 9.29644C6.02533 9.19894 5.92775 9.1021 5.82997 9.00542C5.75444 8.93057 5.67927 8.85536 5.60421 8.78004C5.56839 8.74419 5.53245 8.70846 5.49638 8.67286C5.1089 8.28959 5.1089 8.28959 5.08691 8.00733C5.11178 7.79511 5.16771 7.66767 5.32996 7.52125C5.44275 7.44316 5.53173 7.43168 5.66589 7.42945C5.69478 7.42865 5.72366 7.42784 5.75342 7.42701C5.99605 7.45459 6.14019 7.62769 6.30237 7.7931C6.32777 7.81863 6.35317 7.84416 6.37933 7.87047C6.4601 7.95176 6.54054 8.03337 6.62097 8.115C6.6758 8.1703 6.73065 8.22558 6.78552 8.28083C6.91972 8.41607 7.05365 8.55156 7.18738 8.68727C7.28555 8.64378 7.35147 8.59321 7.42678 8.51704C7.44899 8.49474 7.47119 8.47244 7.49407 8.44946C7.51811 8.425 7.54216 8.40053 7.56693 8.37532C7.59251 8.34956 7.61808 8.32379 7.64443 8.29724C7.69997 8.24126 7.75543 8.18521 7.81083 8.1291C7.89855 8.04029 7.98649 7.9517 8.0745 7.86318C8.32471 7.61147 8.57455 7.35938 8.82412 7.10703C8.96202 6.96759 9.10014 6.82838 9.23851 6.68941C9.31165 6.61593 9.38463 6.5423 9.45739 6.46844C9.53863 6.38601 9.62024 6.30397 9.70194 6.222C9.73773 6.1854 9.73773 6.1854 9.77423 6.14805C10.0106 5.91259 10.2736 5.78034 10.6014 5.92359Z" fill="#4F4F4F"/>
</g>
<defs>
<clipPath id="clip0_8310_3493">
<rect width="16" height="16" fill="white"/>
</clipPath>
</defs>
</svg>
