<svg width="24" height="24" viewBox="0 0 24 24" fill="none" xmlns="http://www.w3.org/2000/svg">
<g id="Simplification" clip-path="url(#clip0_8117_63423)">
<path id="Vector" d="M11.9855 -0.0148241C12.0309 -0.0147387 12.0762 -0.0146532 12.123 -0.0145652C12.7948 -0.0124358 13.4485 0.0114183 14.1096 0.140449C14.1726 0.151768 14.1726 0.151768 14.237 0.163315C17.0406 0.670623 19.7366 2.26708 21.4689 4.5467C21.4885 4.57202 21.508 4.59735 21.5281 4.62344C21.8883 5.09196 22.2043 5.58227 22.5002 6.09357C22.5187 6.12532 22.5372 6.15707 22.5562 6.18977C23.1741 7.26408 23.5775 8.4629 23.8273 9.67365C23.8342 9.70697 23.8412 9.74028 23.8483 9.7746C23.9882 10.5078 24.0178 11.2408 24.0148 11.9852C24.0147 12.0306 24.0146 12.076 24.0145 12.1227C24.0121 12.7938 23.994 13.4496 23.8596 14.1092C23.85 14.1573 23.8404 14.2054 23.8306 14.255C23.4334 16.207 22.6303 17.9968 21.3752 19.5467C21.3546 19.5722 21.3339 19.5977 21.3127 19.624C20.7746 20.2837 20.1763 20.9031 19.5002 21.4217C19.4566 21.4573 19.4129 21.4929 19.368 21.5295C18.9091 21.8975 18.4121 22.2007 17.9064 22.4998C17.8759 22.5181 17.8454 22.5363 17.8139 22.5551C16.0806 23.5786 14.0133 24.0223 12.0178 24.0145C11.9496 24.0143 11.9496 24.0143 11.88 24.0142C11.2073 24.0121 10.5527 23.9884 9.89082 23.8592C9.84877 23.8517 9.80672 23.8441 9.7634 23.8363C6.9598 23.329 4.26383 21.7326 2.53144 19.4529C2.51191 19.4276 2.49238 19.4023 2.47225 19.3762C2.1121 18.9077 1.79605 18.4174 1.50019 17.9061C1.48171 17.8743 1.46323 17.8426 1.44418 17.8099C0.826263 16.7356 0.422881 15.5367 0.173042 14.326C0.166131 14.2927 0.15922 14.2594 0.152099 14.225C0.0121606 13.4918 -0.0173787 12.7589 -0.0144579 12.0145C-0.0143725 11.9691 -0.014287 11.9238 -0.014199 11.8771C-0.0120695 11.2052 0.0117846 10.5515 0.140816 9.89045C0.152134 9.82738 0.152134 9.82738 0.163681 9.76303C0.67099 6.95943 2.26745 4.26346 4.54707 2.53107C4.57239 2.51154 4.59772 2.49201 4.62381 2.47189C5.09233 2.11173 5.58263 1.79568 6.09394 1.49982C6.12569 1.48134 6.15743 1.46286 6.19014 1.44382C7.26445 0.825897 8.46327 0.422514 9.67402 0.172676C9.70733 0.165765 9.74064 0.158854 9.77497 0.151733C10.5082 0.0117944 11.2411 -0.0177449 11.9855 -0.0148241ZM7.03144 2.76545C6.95023 2.80859 6.95023 2.80859 6.86738 2.85261C5.59083 3.55471 4.40519 4.57449 3.56269 5.76545C3.54013 5.79732 3.51757 5.8292 3.49432 5.86204C2.35999 7.4822 1.555 9.43637 1.5359 11.4399C1.53544 11.4798 1.53498 11.5196 1.53451 11.5607C1.52632 12.4573 1.53496 13.3242 1.73457 14.2029C1.74461 14.2473 1.75466 14.2917 1.76501 14.3374C1.98127 15.2577 2.31709 16.1371 2.76582 16.9686C2.79458 17.0227 2.82334 17.0769 2.85297 17.1326C3.55507 18.4092 4.57486 19.5948 5.76582 20.4373C5.79769 20.4599 5.82956 20.4824 5.8624 20.5057C7.48256 21.64 9.43673 22.445 11.4403 22.4641C11.4801 22.4646 11.52 22.465 11.5611 22.4655C12.4577 22.4737 13.3245 22.4651 14.2033 22.2654C14.2477 22.2554 14.292 22.2454 14.3377 22.235C15.258 22.0187 16.1375 21.6829 16.9689 21.2342C17.0231 21.2054 17.0772 21.1767 17.133 21.147C18.4095 20.4449 19.5952 19.4252 20.4377 18.2342C20.4603 18.2023 20.4828 18.1705 20.5061 18.1376C21.6372 16.522 22.4448 14.5701 22.4645 12.5717C22.4652 12.5136 22.4652 12.5136 22.4659 12.4544C22.4938 9.49975 21.5587 6.83785 19.5002 4.68732C19.4781 4.66401 19.4561 4.64069 19.4334 4.61667C19.0773 4.24138 18.6958 3.91822 18.2814 3.6092C18.2421 3.5793 18.2421 3.5793 18.202 3.5488C17.754 3.20867 17.2804 2.93051 16.7814 2.6717C16.7463 2.65338 16.7112 2.63507 16.6751 2.6162C15.2224 1.86769 13.6332 1.52538 12.0061 1.52912C11.964 1.52915 11.922 1.52917 11.8787 1.5292C10.1695 1.53395 8.53744 1.95266 7.03144 2.76545Z" fill="#4F4F4F"/>
<path id="Vector_2" d="M14.3225 6.09142C14.824 6.51051 15.1975 7.0011 15.4627 7.59654C15.4755 7.62522 15.4884 7.65389 15.5016 7.68344C15.7196 8.20141 15.7738 8.70048 15.7707 9.2559C15.7703 9.36545 15.7717 9.47489 15.7731 9.58443C15.7761 10.1961 15.6783 10.7618 15.3865 11.3085C15.3704 11.3395 15.3543 11.3705 15.3377 11.4025C14.9015 12.2218 14.2514 12.8337 13.406 13.2128C13.3778 13.2256 13.3495 13.2384 13.3203 13.2517C12.8255 13.461 12.2988 13.5207 11.7683 13.5672C10.6582 13.678 9.61264 14.0409 8.86264 14.9134C8.57104 15.3132 8.38024 15.7554 8.32431 16.247C8.32068 16.2779 8.31704 16.3088 8.31329 16.3407C8.30299 16.4313 8.29411 16.5222 8.28531 16.613C8.23411 16.8553 8.12258 17.0051 7.9451 17.1737C7.70299 17.2861 7.48103 17.2852 7.21854 17.2499C6.98559 17.1417 6.87347 17.0035 6.74979 16.7811C6.73117 16.6435 6.72291 16.5283 6.72635 16.3915C6.72699 16.3546 6.72762 16.3178 6.72827 16.2798C6.76786 15.1287 7.3449 14.1531 8.15604 13.3592C8.54032 13.0172 8.96993 12.758 9.42166 12.5155C9.42166 12.3648 9.31387 12.3041 9.21073 12.1991C8.51072 11.4553 8.23221 10.5073 8.23242 9.50443C8.23221 9.39364 8.23051 9.28294 8.22873 9.17217C8.22409 8.55676 8.31937 7.9916 8.61307 7.44127C8.62918 7.41024 8.64528 7.37921 8.66188 7.34723C9.20188 6.33302 10.0493 5.69872 11.122 5.33904C12.2624 5.03022 13.4075 5.38566 14.3225 6.09142ZM10.2381 7.73186C9.76723 8.37681 9.67483 9.16481 9.78201 9.93736C9.91666 10.6487 10.2972 11.1979 10.8893 11.6056C11.369 11.9117 11.8577 12.0443 12.4237 11.9222C13.0458 11.7355 13.553 11.3583 13.9021 10.8119C14.2811 10.1019 14.3488 9.30821 14.156 8.53111C13.9394 7.84185 13.4897 7.35463 12.8716 6.99944C11.9092 6.50883 10.8838 6.93628 10.2381 7.73186Z" fill="#4F4F4F"/>
<path id="Vector_3" d="M19.0811 12.7805C19.2588 12.8697 19.3804 12.991 19.4692 13.169C19.5453 13.4074 19.5412 13.6408 19.4404 13.8692C19.361 14.0125 19.2829 14.1096 19.1676 14.2249C19.1091 14.2838 19.1091 14.2838 19.0495 14.3439C19.0069 14.3862 18.9643 14.4284 18.9204 14.4719C18.8749 14.5175 18.8295 14.5631 18.7841 14.6088C18.6611 14.7322 18.5377 14.8551 18.4142 14.978C18.2849 15.1068 18.1559 15.236 18.0269 15.3651C17.8103 15.5817 17.5934 15.7981 17.3764 16.0143C17.1255 16.2641 16.875 16.5144 16.6248 16.765C16.3839 17.0062 16.1427 17.2471 15.9013 17.4879C15.7987 17.5903 15.6962 17.6928 15.5937 17.7954C15.4731 17.9161 15.3522 18.0366 15.2312 18.1569C15.1656 18.2221 15.1003 18.2876 15.035 18.3531C14.9959 18.3919 14.9568 18.4306 14.9165 18.4706C14.8827 18.5043 14.8488 18.5381 14.8139 18.5729C14.6336 18.7306 14.4937 18.7644 14.2559 18.7675C14.2086 18.7688 14.1614 18.7701 14.1127 18.7715C13.7776 18.7212 13.544 18.4333 13.3147 18.2037C13.2799 18.1691 13.2452 18.1346 13.2094 18.099C13.1363 18.0262 13.0633 17.9532 12.9905 17.8802C12.879 17.7685 12.7669 17.6576 12.6548 17.5466C12.5837 17.4756 12.5127 17.4046 12.4417 17.3336C12.4082 17.3005 12.3747 17.2674 12.3401 17.2334C12.1162 17.0073 11.9877 16.8336 11.9824 16.5057C11.9886 16.2606 12.0363 16.1313 12.1875 15.9374C12.4135 15.7611 12.5824 15.7291 12.8659 15.7295C13.1325 15.7753 13.313 15.9205 13.4982 16.1093C13.5396 16.1512 13.581 16.193 13.6236 16.2361C13.666 16.2796 13.7083 16.3232 13.752 16.368C13.7958 16.4126 13.8397 16.4571 13.8836 16.5016C13.9904 16.6101 14.0969 16.7189 14.2031 16.828C14.3488 16.7633 14.4474 16.6889 14.5593 16.5759C14.592 16.5432 14.6246 16.5104 14.6583 16.4767C14.6936 16.4408 14.7289 16.4049 14.7653 16.3679C14.8029 16.3301 14.8405 16.2923 14.8793 16.2534C14.9609 16.1712 15.0424 16.089 15.1238 16.0067C15.2526 15.8764 15.3818 15.7465 15.511 15.6167C15.8319 15.2942 16.1523 14.9713 16.4725 14.6481C16.7431 14.3751 17.0139 14.1024 17.2852 13.83C17.3708 13.7439 17.4563 13.6576 17.5417 13.5712C17.661 13.4505 17.7807 13.3301 17.9005 13.2099C17.9357 13.174 17.971 13.1381 18.0073 13.1011C18.0401 13.0684 18.0728 13.0357 18.1066 13.002C18.1349 12.9735 18.1631 12.945 18.1922 12.9157C18.4421 12.7136 18.7794 12.685 19.0811 12.7805Z" fill="#4F4F4F"/>
</g>
<defs>
<clipPath id="clip0_8117_63423">
<rect width="24" height="24" fill="white"/>
</clipPath>
</defs>
</svg>
