<svg width="31" height="25" viewBox="0 0 31 25" fill="none" xmlns="http://www.w3.org/2000/svg">
<g id="sprint" clip-path="url(#clip0_10_4690)">
<path id="Vector" d="M0.222168 22.6242H15.9451C20.6799 22.6015 24.7704 19.2029 25.7005 14.5637C26.6531 9.81125 24.0532 4.96815 19.5369 3.17253C15.8611 1.79607 11.7482 2.64573 8.99699 5.34767C7.04703 7.26225 6.34101 9.56201 6.13369 11.4199" stroke="#4F4F4F" stroke-width="2" stroke-miterlimit="10" stroke-linecap="round"/>
<path id="Vector_2" d="M6.46095 16.1141C6.39858 16.294 6.14031 16.298 6.07256 16.12C5.1708 13.7506 3.81932 11.0038 2.37877 9.0573C2.25703 8.8928 2.42761 8.65851 2.6193 8.73019L6.11242 10.0363C6.15961 10.0539 6.21171 10.0531 6.25832 10.034L9.70975 8.6192C9.89957 8.54139 10.0776 8.77157 9.96003 8.93971C8.57075 10.9272 7.29333 13.7125 6.46095 16.1141Z" fill="#4F4F4F"/>
<path id="Vector_3" d="M10.5442 22.6243H27.399" stroke="#4F4F4F" stroke-width="1.7" stroke-miterlimit="10"/>
<path id="Vector_4" d="M30.5281 22.5289C30.6142 22.5626 30.6142 22.6863 30.5281 22.72C29.11 23.2756 27.4469 24.1394 26.2835 25.0717C26.2028 25.1363 26.0825 25.053 26.1173 24.9557L26.9385 22.6581C26.9463 22.6364 26.9463 22.6125 26.9385 22.5908L26.1176 20.299C26.0828 20.2018 26.2031 20.1183 26.2838 20.1828C27.4437 21.1105 29.1101 21.9736 30.5281 22.5289Z" fill="#4F4F4F"/>
</g>
<defs>
<clipPath id="clip0_10_4690">
<rect width="30.5556" height="25" fill="white" transform="translate(0.222168)"/>
</clipPath>
</defs>
</svg>
