<svg width="16" height="16" viewBox="0 0 16 16" fill="none" xmlns="http://www.w3.org/2000/svg">
<path d="M3.19449 10.084C3.22236 10.0901 3.25024 10.0963 3.27896 10.1026C3.34443 10.118 3.40986 10.1337 3.47525 10.1495C3.51408 10.1588 3.55292 10.1681 3.59293 10.1778C3.61422 10.1829 3.63551 10.1881 3.65745 10.1934C3.82455 10.2329 3.99238 10.2683 4.16068 10.3024C4.18363 10.3071 4.20659 10.3117 4.23024 10.3165C4.34631 10.3401 4.46241 10.3634 4.57858 10.3864C5.44684 10.5601 5.44684 10.5601 5.62418 10.7813C5.70045 10.9073 5.70741 11.0435 5.68668 11.1875C5.63415 11.3677 5.54254 11.4687 5.38638 11.5684C5.17768 11.6393 4.98189 11.5803 4.78043 11.5157C4.75622 11.5082 4.73201 11.5008 4.70706 11.4931C4.64809 11.4749 4.58924 11.4563 4.53043 11.4375C4.52011 11.4479 4.5098 11.4582 4.49918 11.4688C5.47365 12.4163 6.76773 12.9217 8.12173 12.9157C9.00933 12.8977 9.87524 12.6312 10.6339 12.174C10.7943 12.0805 10.9426 12.0742 11.1242 12.0938C11.2911 12.1489 11.384 12.2545 11.4679 12.4063C11.524 12.5746 11.518 12.7247 11.4621 12.8926C11.3486 13.0642 11.1445 13.1547 10.9679 13.25C10.9486 13.2606 10.9292 13.2711 10.9092 13.2819C10.3725 13.5698 9.81044 13.7678 9.21793 13.9063C9.19423 13.9119 9.17054 13.9176 9.14613 13.9234C7.67018 14.2567 6.04339 13.8827 4.77457 13.0977C4.26189 12.7731 3.82944 12.3689 3.40543 11.9375C3.3742 11.9063 3.34295 11.875 3.31168 11.8438C3.30476 11.8722 3.29784 11.9005 3.29071 11.9297C3.26468 12.0357 3.23832 12.1416 3.21173 12.2474C3.20033 12.2931 3.18905 12.3388 3.17792 12.3845C3.16181 12.4505 3.14524 12.5164 3.12857 12.5823C3.11875 12.6219 3.10893 12.6615 3.09882 12.7023C3.03233 12.8996 2.93642 13.0314 2.74918 13.125C2.551 13.1729 2.39645 13.1711 2.21793 13.0625C2.08675 12.9344 2.02543 12.8326 2.02148 12.6498C2.02374 12.416 2.07984 12.2029 2.14224 11.979C2.15389 11.936 2.1655 11.893 2.17708 11.85C2.20127 11.7605 2.22577 11.6712 2.25053 11.5818C2.28207 11.468 2.31295 11.354 2.34361 11.24C2.36748 11.1514 2.39162 11.0629 2.41584 10.9744C2.42732 10.9324 2.43873 10.8904 2.45007 10.8484C2.6109 10.2546 2.6109 10.2546 2.7941 10.1426C2.9358 10.0805 3.0425 10.0499 3.19449 10.084Z" fill="#4F4F4F"/>
<path d="M10.8932 2.68607C11.3839 2.95208 11.8165 3.30359 12.2188 3.68752C12.2588 3.72504 12.2588 3.72504 12.2996 3.76332C13.0409 4.47781 13.559 5.43452 13.8223 6.42385C13.8295 6.45072 13.8367 6.47759 13.8441 6.50528C13.9606 6.96905 14.0159 7.43025 14.0122 7.9079C14.0117 7.9844 14.0122 8.06085 14.0128 8.13735C14.0135 8.61278 13.9533 9.07755 13.8145 9.53322C13.8032 9.57223 13.8032 9.57223 13.7918 9.61202C13.737 9.79822 13.6685 9.97721 13.5938 10.1563C13.6218 10.1487 13.6498 10.1411 13.6787 10.1333C13.7837 10.1051 13.8888 10.0772 13.9939 10.0495C14.0392 10.0374 14.0845 10.0253 14.1297 10.0131C14.1951 9.99541 14.2606 9.97815 14.3262 9.96096C14.3654 9.95048 14.4047 9.94001 14.4452 9.92922C14.6418 9.89075 14.8106 9.88066 14.9832 9.99135C15.1051 10.0925 15.1785 10.2265 15.1949 10.3834C15.2002 10.5648 15.1872 10.6705 15.0625 10.8125C14.964 10.8989 14.8735 10.931 14.7475 10.9647C14.6899 10.9803 14.6899 10.9803 14.6312 10.9963C14.5893 11.0073 14.5475 11.0184 14.5056 11.0294C14.4624 11.041 14.4192 11.0527 14.376 11.0643C14.2854 11.0887 14.1948 11.1129 14.1041 11.1369C13.9887 11.1675 13.8733 11.1984 13.758 11.2294C13.6687 11.2535 13.5794 11.2774 13.49 11.3013C13.4475 11.3126 13.405 11.324 13.3626 11.3354C12.6206 11.534 12.6206 11.534 12.4062 11.4375C12.1073 11.242 12.0509 10.9034 11.9653 10.5781C11.9536 10.5343 11.9419 10.4904 11.9301 10.4465C11.9057 10.3549 11.8814 10.2633 11.8573 10.1716C11.8266 10.0547 11.7953 9.93791 11.7638 9.82115C11.7395 9.7307 11.7155 9.64017 11.6916 9.54962C11.6802 9.50654 11.6687 9.46348 11.6571 9.42045C11.5213 8.91595 11.5213 8.91595 11.5833 8.7134C11.6792 8.55588 11.7908 8.46559 11.9688 8.40627C12.1552 8.3873 12.2563 8.41251 12.4137 8.51308C12.5599 8.64438 12.5979 8.82092 12.6465 9.00393C12.657 9.04193 12.657 9.04193 12.6678 9.08071C12.6956 9.18291 12.7188 9.2685 12.7188 9.37502C12.7394 9.37502 12.76 9.37502 12.7812 9.37502C12.7864 9.34366 12.7864 9.34366 12.7916 9.31166C12.7991 9.26665 12.7991 9.26665 12.8066 9.22072C12.8122 9.18576 12.8178 9.15079 12.8236 9.11477C12.8366 9.04049 12.8516 8.96651 12.8688 8.89309C13.1426 7.64188 12.828 6.30625 12.1494 5.23768C12.029 5.05358 11.8958 4.88354 11.75 4.71877C11.7366 4.70347 11.7232 4.68817 11.7094 4.67241C11.3163 4.22589 10.8717 3.8567 10.3516 3.56643C10.1715 3.46417 10.062 3.3832 10 3.17775C10 2.98501 10.0465 2.83826 10.1699 2.68947C10.4218 2.48671 10.62 2.54382 10.8932 2.68607Z" fill="#4F4F4F"/>
<path d="M6.74179 0.484375C6.77257 0.482764 6.80334 0.481152 6.83505 0.479492C7.10881 0.534506 7.3113 0.802897 7.50103 0.994995C7.54829 1.04282 7.59579 1.0904 7.64334 1.13794C7.81019 1.3054 7.97135 1.47616 8.1246 1.65625C8.27156 1.82253 8.41882 1.98627 8.58054 2.13843C8.67363 2.2421 8.69796 2.33683 8.70273 2.47461C8.70434 2.50212 8.70595 2.52964 8.70761 2.55798C8.64611 2.85268 8.37711 3.07253 8.17124 3.27502C8.13955 3.30653 8.10789 3.33806 8.07625 3.36961C7.99359 3.45191 7.91065 3.53394 7.82765 3.6159C7.74323 3.69935 7.65909 3.78306 7.57492 3.86676C7.42697 4.01382 7.2788 4.16064 7.13045 4.30729C7.08506 4.35226 7.0404 4.39797 6.99652 4.4444C6.89724 4.5373 6.7944 4.54199 6.66184 4.54004C6.49912 4.51916 6.37719 4.44269 6.26718 4.32422C6.19574 4.21563 6.1807 4.15311 6.17734 4.02344C6.17559 3.97969 6.17559 3.97969 6.1738 3.93506C6.20633 3.71182 6.39999 3.56067 6.55429 3.41016C6.57608 3.38865 6.59788 3.36713 6.62033 3.34497C6.6737 3.29233 6.72721 3.23985 6.78085 3.1875C6.57005 3.22272 6.38089 3.27585 6.18515 3.36133C6.15968 3.37234 6.13421 3.38334 6.10796 3.39468C4.84851 3.94816 3.90139 4.91489 3.3746 6.1875C3.12889 6.825 3.05146 7.46788 3.02463 8.14746C3.02191 8.20885 3.02191 8.20885 3.01914 8.27148C3.01781 8.32291 3.01781 8.32291 3.01645 8.37537C2.98302 8.56067 2.86742 8.67534 2.71835 8.78125C2.59163 8.84461 2.43799 8.83193 2.3049 8.79114C2.1524 8.72218 2.08372 8.64834 1.9996 8.5C1.98756 8.41611 1.98203 8.34551 1.983 8.26196C1.98274 8.22795 1.98274 8.22795 1.98247 8.19326C1.98221 8.1197 1.983 8.04621 1.98398 7.97266C1.98416 7.94746 1.98435 7.92226 1.98454 7.8963C1.99223 6.99605 2.19516 6.15216 2.59335 5.34375C2.60321 5.32348 2.61307 5.3032 2.62323 5.28232C3.30924 3.88683 4.59357 2.78301 6.0621 2.28125C6.17424 2.24497 6.28689 2.21085 6.39999 2.17773C6.42685 2.16977 6.45371 2.16181 6.48138 2.15361C6.664 2.10211 6.84162 2.07535 7.03085 2.0625C6.86734 1.86708 6.69008 1.68868 6.50723 1.51153C6.34853 1.35574 6.2366 1.23846 6.23203 1.00586C6.23602 0.835303 6.27549 0.739847 6.38388 0.610107C6.4959 0.509909 6.59282 0.489006 6.74179 0.484375Z" fill="#4F4F4F"/>
</svg>
