<svg width="16" height="16" viewBox="0 0 16 16" fill="none" xmlns="http://www.w3.org/2000/svg">
<g clip-path="url(#clip0_8310_3487)">
<path d="M2.9372 3.05057C2.99637 3.05045 3.05554 3.05028 3.11472 3.05008C3.27438 3.04965 3.43403 3.04981 3.59369 3.05011C3.76114 3.05035 3.92858 3.05013 4.09603 3.04998C4.37695 3.04981 4.65786 3.05004 4.93877 3.05048C5.26341 3.05099 5.58805 3.05083 5.91269 3.05031C6.19186 3.04989 6.47103 3.04983 6.75021 3.05007C6.91677 3.05022 7.08332 3.05024 7.24988 3.04993C7.4063 3.04966 7.56271 3.04984 7.71912 3.05039C7.77649 3.05051 7.83386 3.05047 7.89123 3.05027C7.96957 3.05001 8.04788 3.05033 8.12621 3.0508C8.14888 3.05059 8.17154 3.05038 8.19489 3.05017C8.3402 3.05185 8.43976 3.07892 8.56271 3.15646C8.67061 3.29844 8.70862 3.40888 8.69979 3.58736C8.67464 3.73114 8.61205 3.83729 8.49474 3.92743C8.38524 3.97894 8.29019 3.98206 8.17169 3.98099C8.14831 3.98116 8.12494 3.98132 8.10086 3.98149C8.02268 3.98193 7.94452 3.9817 7.86634 3.98147C7.81022 3.98165 7.75411 3.98188 7.698 3.98214C7.57718 3.98261 7.45638 3.98279 7.33557 3.98274C7.14433 3.98268 6.9531 3.98329 6.76186 3.984C6.39015 3.98528 6.01845 3.98586 5.64674 3.98638C5.17428 3.98708 4.70183 3.98813 4.22938 3.98973C4.03951 3.99035 3.84964 3.99065 3.65976 3.9907C3.54127 3.99078 3.42278 3.99112 3.30429 3.99153C3.2496 3.99166 3.19492 3.99169 3.14024 3.9916C2.64555 3.99089 2.19196 4.01437 1.80929 4.36593C1.59495 4.62632 1.49544 4.92189 1.49582 5.25397C1.49572 5.27976 1.49563 5.30555 1.49554 5.33212C1.49526 5.41867 1.49522 5.50522 1.49517 5.59177C1.49503 5.65378 1.49487 5.71579 1.4947 5.7778C1.49429 5.9464 1.49409 6.11499 1.49395 6.28358C1.49386 6.38894 1.49373 6.49431 1.49359 6.59968C1.49316 6.92945 1.49286 7.25922 1.49274 7.58899C1.4926 7.96946 1.49205 8.34992 1.49115 8.73038C1.49047 9.02457 1.49016 9.31876 1.49011 9.61296C1.49008 9.78861 1.4899 9.96425 1.48934 10.1399C1.48882 10.3052 1.48876 10.4706 1.48903 10.6359C1.48905 10.6965 1.48892 10.757 1.48861 10.8175C1.47926 11.3418 1.47926 11.3418 1.69161 11.8108C1.74807 11.8881 1.78206 11.9395 1.81271 12.0315C1.86933 12.0647 1.86933 12.0647 1.93771 12.094C2.01277 12.1409 2.08741 12.1885 2.16183 12.2365C2.34927 12.3318 2.53837 12.3532 2.746 12.3519C2.78073 12.3521 2.78073 12.3521 2.81617 12.3523C2.86597 12.3525 2.91578 12.3526 2.96558 12.3525C3.04456 12.3525 3.12352 12.3529 3.2025 12.3534C3.42687 12.3549 3.65125 12.3557 3.87562 12.3559C4.0133 12.356 4.15096 12.3568 4.28862 12.3579C4.34086 12.3582 4.3931 12.3583 4.44534 12.3581C4.51848 12.3579 4.59157 12.3584 4.6647 12.3591C4.69668 12.3588 4.69668 12.3588 4.72931 12.3584C4.89664 12.3612 4.99058 12.4073 5.12521 12.5002C5.28446 12.6759 5.26375 12.907 5.25448 13.129C5.25306 13.1825 5.25306 13.1824 5.25162 13.237C5.24851 13.3501 5.24451 13.4633 5.24044 13.5764C5.23688 13.6903 5.2335 13.8042 5.23027 13.9181C5.2282 13.9889 5.22591 14.0596 5.22339 14.1303C5.22235 14.162 5.22132 14.1938 5.22026 14.2265C5.21926 14.2545 5.21826 14.2825 5.21722 14.3114C5.21164 14.375 5.21164 14.3751 5.25021 14.4065C5.37164 14.4181 5.43009 14.403 5.52389 14.3261C5.54569 14.3087 5.5675 14.2912 5.58996 14.2732C5.6132 14.254 5.63643 14.2348 5.66036 14.215C5.71096 14.1745 5.76163 14.1339 5.81234 14.0935C5.83831 14.0727 5.86427 14.0519 5.89103 14.0304C6.01175 13.9352 6.1357 13.8446 6.25997 13.7541C6.47216 13.599 6.68213 13.4412 6.89083 13.2815C7.1738 13.0649 7.45963 12.8525 7.74735 12.6423C7.83531 12.5772 7.92195 12.5105 8.00841 12.4435C8.10133 12.3801 8.18227 12.3713 8.29138 12.3709C8.31893 12.3707 8.34648 12.3706 8.37486 12.3704C8.42008 12.3703 8.42008 12.3703 8.46622 12.3703C8.49804 12.3701 8.52986 12.37 8.56264 12.3698C8.63185 12.3695 8.70106 12.3692 8.77028 12.369C8.87998 12.3686 8.98968 12.368 9.09939 12.3673C9.41135 12.3654 9.72331 12.3637 10.0353 12.3627C10.2261 12.362 10.4168 12.3609 10.6076 12.3595C10.6802 12.3591 10.7527 12.3588 10.8253 12.3587C10.9272 12.3585 11.029 12.3578 11.1309 12.357C11.1606 12.3571 11.1903 12.3572 11.2209 12.3573C11.5683 12.353 11.8876 12.2469 12.1497 12.0129C12.3452 11.8009 12.4725 11.5338 12.4733 11.245C12.4735 11.1961 12.4735 11.1961 12.4738 11.1461C12.4738 11.1105 12.4739 11.0749 12.4739 11.0381C12.474 11.0005 12.4742 10.9628 12.4744 10.924C12.4747 10.8421 12.475 10.7603 12.4752 10.6784C12.4755 10.5488 12.4761 10.4191 12.4768 10.2895C12.4788 9.92081 12.4805 9.55215 12.4815 9.18349C12.4821 8.97982 12.483 8.77616 12.4842 8.57249C12.4849 8.46484 12.4854 8.3572 12.4855 8.24954C12.4855 8.12927 12.4863 8.009 12.4872 7.88873C12.4871 7.85341 12.487 7.81809 12.4869 7.78171C12.489 7.58267 12.5033 7.39945 12.594 7.21896C12.7116 7.10418 12.7968 7.05766 12.9592 7.05294C13.1255 7.0551 13.2124 7.08567 13.344 7.18771C13.4695 7.36591 13.4509 7.55672 13.4498 7.76584C13.4501 7.82479 13.4501 7.82479 13.4503 7.88494C13.4508 7.99246 13.4506 8.09997 13.4503 8.20749C13.4501 8.32045 13.4503 8.43341 13.4504 8.54637C13.4506 8.73627 13.4504 8.92617 13.4499 9.11607C13.4494 9.33469 13.4496 9.55331 13.4501 9.77193C13.4505 9.96029 13.4506 10.1486 13.4503 10.337C13.4502 10.4492 13.4502 10.5614 13.4505 10.6736C13.4508 10.7991 13.4504 10.9245 13.4498 11.05C13.45 11.0865 13.4502 11.1231 13.4504 11.1607C13.4478 11.498 13.3905 11.8255 13.2346 12.1272C13.224 12.148 13.2134 12.1688 13.2024 12.1903C13.0848 12.4093 12.9281 12.5788 12.7502 12.7502C12.7194 12.7819 12.7194 12.7819 12.6881 12.8142C12.3236 13.167 11.7816 13.3201 11.2852 13.3137C11.2583 13.3132 11.2314 13.3127 11.2037 13.3122C11.1437 13.3114 11.0837 13.3106 11.0237 13.3098C10.9922 13.3093 10.9606 13.3089 10.9281 13.3084C10.7238 13.3059 10.5194 13.3055 10.3151 13.3048C10.1363 13.3041 9.95766 13.3026 9.77892 13.2993C9.6052 13.2962 9.43158 13.2953 9.25783 13.2958C9.1922 13.2956 9.12657 13.2946 9.06096 13.2929C8.56113 13.28 8.2776 13.3993 7.90263 13.7302C7.8258 13.7973 7.74541 13.8576 7.66329 13.9182C7.61411 13.9559 7.56495 13.9937 7.51583 14.0315C7.28532 14.208 7.05302 14.3817 6.81859 14.553C6.68434 14.6514 6.55146 14.7512 6.41976 14.853C6.39052 14.8755 6.36127 14.8981 6.33114 14.9213C6.27488 14.9649 6.21876 15.0086 6.1628 15.0525C5.81862 15.3185 5.52942 15.4129 5.09396 15.3752C4.80869 15.2993 4.58237 15.1592 4.41427 14.9162C4.22401 14.5736 4.24292 14.2323 4.25997 13.8537C4.26195 13.8011 4.26389 13.7485 4.26577 13.6958C4.27044 13.5681 4.27577 13.4404 4.28146 13.3127C4.24896 13.313 4.24896 13.313 4.2158 13.3133C4.00946 13.3152 3.80313 13.3166 3.59678 13.3176C3.49075 13.318 3.38473 13.3187 3.2787 13.3198C2.15628 13.3303 2.15628 13.3303 1.73849 13.1018C1.70728 13.0854 1.70728 13.0854 1.67544 13.0687C1.50909 12.9791 1.35933 12.8772 1.21896 12.7502C1.1999 12.7336 1.18085 12.7171 1.16122 12.7C0.769822 12.3379 0.547138 11.7924 0.522815 11.2652C0.518169 11.1011 0.518761 10.937 0.519324 10.7728C0.519197 10.71 0.51903 10.6472 0.518827 10.5845C0.518402 10.4152 0.518564 10.2459 0.518862 10.0766C0.519101 9.8987 0.518879 9.72082 0.518732 9.54294C0.518562 9.24432 0.518785 8.9457 0.519233 8.64709C0.519743 8.30275 0.519578 7.95841 0.519062 7.61407C0.518635 7.31746 0.518577 7.02084 0.518822 6.72423C0.518967 6.5475 0.518989 6.37077 0.518678 6.19404C0.518405 6.02782 0.518598 5.86161 0.519136 5.6954C0.519259 5.63471 0.519226 5.57401 0.519018 5.51332C0.517 4.86509 0.619203 4.33398 1.03146 3.81271C1.05466 3.78048 1.07786 3.74825 1.10177 3.71505C1.61392 3.17961 2.22998 3.04801 2.9372 3.05057Z" fill="#4F4F4F"/>
<path d="M12.5879 0.642615C12.6177 0.646523 12.6476 0.65043 12.6783 0.654456C12.9526 0.742629 13.1075 0.908583 13.248 1.15238C13.2929 1.22698 13.3378 1.3015 13.3835 1.37557C13.4254 1.44786 13.4614 1.51853 13.4968 1.59386C13.5928 1.7854 13.6814 1.95249 13.8882 2.03509C14.049 2.08549 14.2132 2.11562 14.3789 2.14457C14.4635 2.16096 14.548 2.17794 14.6324 2.19557C14.6845 2.20629 14.7367 2.21624 14.7891 2.22522C15.0144 2.26867 15.1639 2.38038 15.3223 2.54301C15.4632 2.7623 15.5052 2.97088 15.4548 3.22709C15.3719 3.49059 15.1699 3.68085 14.9883 3.88084C14.8726 4.01005 14.7642 4.14556 14.6562 4.28129C14.6397 4.30031 14.6231 4.31933 14.6061 4.33893C14.5536 4.42006 14.5531 4.45939 14.5591 4.55485C14.5614 4.59834 14.5614 4.59834 14.5638 4.64271C14.566 4.67362 14.5681 4.70452 14.5703 4.73637C14.5729 4.7842 14.5729 4.7842 14.5756 4.83301C14.5841 4.98664 14.5948 5.14007 14.6064 5.29349C14.6305 5.62377 14.6482 5.894 14.4336 6.16801C14.2661 6.34038 14.0932 6.41178 13.8535 6.42301C13.5664 6.41966 13.3246 6.29953 13.0664 6.18558C12.9935 6.15369 12.9206 6.12203 12.8473 6.091C12.8021 6.07183 12.7571 6.05218 12.7124 6.03195C12.5193 5.9497 12.3926 5.97111 12.1994 6.04088C12.1595 6.0577 12.1196 6.07473 12.0798 6.09196C12.0354 6.1104 11.991 6.12881 11.9465 6.14719C11.8777 6.17597 11.809 6.20494 11.7405 6.23444C11.428 6.36827 11.1233 6.49089 10.7825 6.37475C10.5564 6.2754 10.4271 6.13705 10.3317 5.90763C10.2958 5.78815 10.3016 5.66864 10.3047 5.54496C10.305 5.51742 10.3054 5.48989 10.3057 5.46152C10.3084 5.3027 10.316 5.14477 10.3281 4.98637C10.3306 4.95204 10.333 4.91772 10.3356 4.88236C10.3411 4.81354 10.3483 4.74483 10.3568 4.67631C10.3694 4.52064 10.3724 4.41799 10.2839 4.28532C10.2029 4.19685 10.1178 4.11434 10.0312 4.03129C9.46731 3.38335 9.46731 3.38335 9.42578 3.02347C9.45409 2.74039 9.54227 2.5541 9.75951 2.36948C9.90676 2.26995 10.0649 2.23465 10.2363 2.19535C10.2723 2.18603 10.3082 2.1767 10.3452 2.1671C10.4981 2.12798 10.6478 2.09186 10.8051 2.07658C10.975 2.05714 11.0996 2.03251 11.2158 1.90189C11.34 1.7337 11.4428 1.55466 11.5432 1.3716C11.6995 1.09213 11.8527 0.828668 12.1445 0.675818C12.2977 0.635505 12.4306 0.619235 12.5879 0.642615ZM12.4375 1.71879C12.4059 1.76443 12.3759 1.81114 12.3464 1.85819C12.3278 1.8878 12.3091 1.91741 12.2899 1.94791C12.2703 1.97929 12.2507 2.01067 12.2305 2.04301C12.1177 2.22312 12.0044 2.40288 11.886 2.57938C11.8696 2.60402 11.8532 2.62866 11.8363 2.65404C11.709 2.80386 11.5471 2.83953 11.3636 2.88322C11.3389 2.88933 11.3141 2.89544 11.2886 2.90173C11.2101 2.92107 11.1314 2.94005 11.0527 2.95902C10.9992 2.97212 10.9458 2.98524 10.8923 2.99839C10.7616 3.03046 10.6308 3.06221 10.5 3.09379C10.6021 3.2328 10.7047 3.36772 10.8223 3.49418C10.8579 3.53363 10.8579 3.53363 10.8943 3.57389C10.945 3.63001 10.996 3.68591 11.0471 3.74161C11.0722 3.77017 11.0972 3.79874 11.123 3.82816C11.1459 3.85362 11.1687 3.87908 11.1923 3.90531C11.3553 4.17279 11.3116 4.47374 11.2852 4.77347C11.2787 4.85339 11.2722 4.9333 11.2659 5.01322C11.2629 5.04822 11.2598 5.08321 11.2567 5.11927C11.2502 5.2153 11.2488 5.31007 11.25 5.40629C11.2715 5.39748 11.2931 5.38866 11.3153 5.37958C12.0128 5.09506 12.0128 5.09506 12.2656 5.00785C12.293 4.99834 12.3204 4.98884 12.3486 4.97904C12.6282 4.94678 12.9022 5.1011 13.1523 5.20707C13.2277 5.23892 13.3032 5.27054 13.3787 5.30204C13.4117 5.31604 13.4448 5.33005 13.4789 5.34447C13.5623 5.3804 13.5623 5.3804 13.6562 5.37504C13.6553 5.35621 13.6544 5.33738 13.6534 5.31798C13.6425 5.09747 13.6333 4.87692 13.625 4.65629C13.6238 4.62783 13.6227 4.59938 13.6215 4.57006C13.6187 4.49398 13.6168 4.41795 13.6152 4.34183C13.6143 4.3194 13.6134 4.29697 13.6124 4.27386C13.6096 4.02396 13.7727 3.87408 13.9277 3.6973C14.0908 3.50931 14.2498 3.31862 14.4062 3.12504C14.2947 3.06123 14.1816 3.03525 14.0569 3.00614C14.0126 2.99553 13.9683 2.98491 13.924 2.97428C13.8546 2.95781 13.7852 2.94146 13.7158 2.92535C13.6484 2.90964 13.5812 2.89347 13.5139 2.87723C13.4738 2.86781 13.4337 2.85839 13.3923 2.84869C13.1959 2.78478 13.0841 2.69484 12.9784 2.51896C12.9586 2.48651 12.9387 2.45406 12.9183 2.42063C12.8982 2.38689 12.8781 2.35316 12.8574 2.3184C12.8171 2.25175 12.7767 2.18514 12.7362 2.11857C12.7172 2.08732 12.6982 2.05608 12.6787 2.02389C12.613 1.91821 12.5444 1.81757 12.4688 1.71879C12.4584 1.71879 12.4481 1.71879 12.4375 1.71879Z" fill="#4F4F4F"/>
<path d="M4.80093 6.5585C4.82133 6.55843 4.84172 6.55836 4.86274 6.55829C4.93084 6.55809 4.99894 6.55812 5.06704 6.55814C5.11597 6.55805 5.1649 6.55794 5.21383 6.55782C5.34658 6.55755 5.47933 6.55748 5.61208 6.55746C5.69505 6.55743 5.77803 6.55737 5.86101 6.55728C6.1506 6.55699 6.4402 6.55687 6.72979 6.55689C6.99956 6.55691 7.26932 6.55658 7.53908 6.55609C7.77086 6.55568 8.00263 6.55551 8.2344 6.55553C8.37275 6.55554 8.51111 6.55545 8.64946 6.55512C8.77961 6.55482 8.90975 6.55481 9.0399 6.55504C9.08758 6.55507 9.13526 6.555 9.18294 6.55481C9.24821 6.55457 9.31346 6.55472 9.37872 6.55496C9.41519 6.55494 9.45165 6.55492 9.48923 6.5549C9.6516 6.56698 9.77504 6.59352 9.90043 6.6994C10.012 6.83332 10.0444 6.91366 10.0391 7.0932C10.0216 7.23527 9.96174 7.3221 9.85746 7.4162C9.73341 7.50208 9.66451 7.50426 9.51323 7.50478C9.49187 7.5049 9.47051 7.50501 9.4485 7.50513C9.37658 7.50548 9.30466 7.50559 9.23274 7.50571C9.18131 7.50591 9.12988 7.50612 9.07845 7.50634C8.93847 7.50688 8.79849 7.50721 8.6585 7.50747C8.57107 7.50763 8.48364 7.50782 8.39621 7.50801C8.12273 7.50861 7.84926 7.50905 7.57578 7.50932C7.25996 7.50962 6.94415 7.51044 6.62833 7.51171C6.38432 7.51265 6.14032 7.51311 5.89632 7.51321C5.75054 7.51329 5.60476 7.51357 5.45899 7.51435C5.32181 7.51508 5.18464 7.51521 5.04746 7.51489C4.99715 7.51488 4.94684 7.51508 4.89652 7.5155C4.82774 7.51606 4.75901 7.51584 4.69023 7.51542C4.65177 7.5155 4.61331 7.51557 4.57368 7.51565C4.41015 7.49153 4.3146 7.41288 4.20707 7.2912C4.14115 7.15681 4.13099 7.05341 4.15629 6.90643C4.19869 6.78877 4.25728 6.70616 4.35746 6.62909C4.5042 6.56467 4.64191 6.55873 4.80093 6.5585Z" fill="#4F4F4F"/>
<path d="M4.76894 8.83852C4.79639 8.83836 4.82384 8.83821 4.85212 8.83805C4.94303 8.83759 5.03394 8.83738 5.12486 8.83721C5.18803 8.83703 5.25121 8.83685 5.31438 8.83667C5.44691 8.83634 5.57944 8.83616 5.71198 8.83605C5.88169 8.83588 6.05139 8.83513 6.22109 8.83424C6.35163 8.83365 6.48216 8.83349 6.61269 8.83344C6.67525 8.83335 6.73781 8.8331 6.80036 8.83269C6.88796 8.83215 6.97553 8.83221 7.06313 8.83242C7.10178 8.83198 7.10178 8.83198 7.14122 8.83154C7.34343 8.83301 7.47131 8.87848 7.61936 9.02324C7.71965 9.17223 7.72799 9.27928 7.70335 9.45488C7.64348 9.59208 7.5614 9.66772 7.43772 9.7498C7.31654 9.7902 7.20158 9.78592 7.07526 9.78609C7.04781 9.78625 7.02036 9.7864 6.99208 9.78656C6.90117 9.78702 6.81025 9.78723 6.71934 9.7874C6.65617 9.78758 6.59299 9.78776 6.52982 9.78794C6.39728 9.78827 6.26475 9.78845 6.13222 9.78856C5.96251 9.78873 5.79281 9.78948 5.6231 9.79037C5.49257 9.79096 5.36204 9.79112 5.23151 9.79117C5.16895 9.79126 5.10639 9.79151 5.04383 9.79192C4.95624 9.79246 4.86866 9.7924 4.78107 9.79219C4.7553 9.79248 4.72953 9.79277 4.70298 9.79307C4.54978 9.79196 4.44566 9.77161 4.31272 9.6873C4.17379 9.53335 4.14551 9.43882 4.14756 9.23552C4.16384 9.09036 4.23956 9.00538 4.34593 8.91191C4.48113 8.82905 4.61585 8.83873 4.76894 8.83852Z" fill="#4F4F4F"/>
</g>
<defs>
<clipPath id="clip0_8310_3487">
<rect width="16" height="16" fill="white"/>
</clipPath>
</defs>
</svg>
