<svg width="25" height="25" viewBox="0 0 25 25" fill="none" xmlns="http://www.w3.org/2000/svg">
<g id="Group">
<path id="Vector" d="M11.2105 14.8933L16.9307 9.17209L17.1243 9.36572L10.5024 15.9867L7.09589 12.5795L7.28871 12.3867L9.79637 14.8935L10.5035 15.6004L11.2105 14.8933Z" stroke="#4F4F4F" stroke-width="2"/>
<path id="Vector_2" d="M1 12.5C1 6.14888 6.14888 1 12.5 1C18.8511 1 24 6.14888 24 12.5C24 18.8511 18.8511 24 12.5 24C6.14888 24 1 18.8511 1 12.5ZM8.20351 22.8726C9.56566 23.4369 11.0256 23.7273 12.5 23.7273C15.4777 23.7273 18.3334 22.5444 20.4389 20.4389C22.5444 18.3334 23.7273 15.4777 23.7273 12.5C23.7273 9.52234 22.5444 6.66664 20.4389 4.56112C18.3334 2.4556 15.4777 1.27273 12.5 1.27273C11.0256 1.27273 9.56566 1.56313 8.20351 2.12735C6.84135 2.69158 5.60367 3.51857 4.56112 4.56112C3.51857 5.60367 2.69158 6.84135 2.12735 8.20351C1.56313 9.56566 1.27273 11.0256 1.27273 12.5C1.27273 13.9744 1.56313 15.4343 2.12735 16.7965C2.69158 18.1586 3.51857 19.3963 4.56112 20.4389C5.60367 21.4814 6.84135 22.3084 8.20351 22.8726Z" stroke="#4F4F4F" stroke-width="2"/>
</g>
</svg>
