<svg width="22" height="25" viewBox="0 0 22 25" fill="none" xmlns="http://www.w3.org/2000/svg">
<g id="Frame 1000006270">
<path id="Vector" d="M1.85806 1.86546L1.85806 1.86546L1.85967 1.86403C2.11703 1.63477 2.4474 1.5 2.9225 1.5H13V1.83333V7.16667V8.16667H14H20H20.5V22.3467C20.5 22.6718 20.3931 22.9127 20.1426 23.1353C19.8839 23.3652 19.5526 23.5 19.0775 23.5H2.9225C2.44681 23.5 2.11616 23.3653 1.85886 23.1366C1.6069 22.9126 1.5 22.6711 1.5 22.3467V2.65333C1.5 2.32897 1.60681 2.0883 1.85806 1.86546Z" stroke="#4F4F4F" stroke-width="2"/>
<path id="Vector_2" d="M17.208 11.4649L9.09796 19.5749L5.38086 15.8578L6.33379 14.9049L9.09796 17.6623L16.2551 10.512L17.208 11.4649Z" fill="#4F4F4F"/>
</g>
</svg>
