<svg width="24" height="25" viewBox="0 0 24 25" fill="none" xmlns="http://www.w3.org/2000/svg">
<g id="fluent:people-team-24-regular">
<path id="Vector" d="M14.754 10.3815C15.72 10.3815 16.504 11.1655 16.504 12.1315V16.8805C16.504 18.0742 16.0298 19.2191 15.1857 20.0632C14.3416 20.9073 13.1967 21.3815 12.003 21.3815C10.8093 21.3815 9.66441 20.9073 8.82031 20.0632C7.97621 19.2191 7.502 18.0742 7.502 16.8805V12.1315C7.502 11.1655 8.285 10.3815 9.252 10.3815H14.754ZM14.754 11.8815H9.252C9.1857 11.8815 9.12211 11.9078 9.07522 11.9547C9.02834 12.0016 9.002 12.0652 9.002 12.1315V16.8805C9.002 17.6764 9.31818 18.4397 9.88097 19.0025C10.4438 19.5653 11.2071 19.8815 12.003 19.8815C12.7989 19.8815 13.5622 19.5653 14.125 19.0025C14.6878 18.4397 15.004 17.6764 15.004 16.8805V12.1315C15.004 12.0652 14.9777 12.0016 14.9308 11.9547C14.8839 11.9078 14.8203 11.8815 14.754 11.8815ZM3.75 10.3815H7.131C6.77831 10.8076 6.56286 11.3305 6.513 11.8815H3.75C3.6837 11.8815 3.62011 11.9078 3.57322 11.9547C3.52634 12.0016 3.5 12.0652 3.5 12.1315V15.3805C3.49974 15.7584 3.58519 16.1315 3.7499 16.4717C3.91461 16.8118 4.1543 17.1102 4.45095 17.3444C4.7476 17.5786 5.09349 17.7425 5.4626 17.8237C5.83171 17.905 6.21444 17.9015 6.582 17.8135C6.667 18.3175 6.822 18.7985 7.035 19.2455C6.70433 19.3355 6.35933 19.3808 6 19.3815C5.47463 19.3815 4.9544 19.278 4.46904 19.0769C3.98367 18.8758 3.54267 18.5811 3.17122 18.2095C2.79977 17.838 2.50516 17.3969 2.3042 16.9115C2.10324 16.4261 1.99987 15.9058 2 15.3805V12.1315C2 11.1655 2.784 10.3815 3.75 10.3815ZM16.875 10.3815H20.25C21.216 10.3815 22 11.1655 22 12.1315V15.3815C22.0001 15.9946 21.8593 16.5996 21.5884 17.1497C21.3175 17.6998 20.9237 18.1802 20.4376 18.5538C19.9514 18.9275 19.3858 19.1844 18.7846 19.3047C18.1833 19.4249 17.5625 19.4054 16.97 19.2475C17.184 18.7995 17.339 18.3185 17.425 17.8145C17.6097 17.8585 17.8013 17.8808 18 17.8815C18.663 17.8815 19.2989 17.6181 19.7678 17.1492C20.2366 16.6804 20.5 16.0445 20.5 15.3815V12.1315C20.5 12.0652 20.4737 12.0016 20.4268 11.9547C20.3799 11.9078 20.3163 11.8815 20.25 11.8815H17.493C17.4431 11.3305 17.2277 10.8076 16.875 10.3815ZM12 3.38147C12.7956 3.38147 13.5587 3.69754 14.1213 4.26015C14.6839 4.82276 15 5.58582 15 6.38147C15 7.17712 14.6839 7.94018 14.1213 8.50279C13.5587 9.0654 12.7956 9.38147 12 9.38147C11.2044 9.38147 10.4413 9.0654 9.87868 8.50279C9.31607 7.94018 9 7.17712 9 6.38147C9 5.58582 9.31607 4.82276 9.87868 4.26015C10.4413 3.69754 11.2044 3.38147 12 3.38147ZM18.5 4.38147C19.163 4.38147 19.7989 4.64486 20.2678 5.1137C20.7366 5.58254 21 6.21843 21 6.88147C21 7.54451 20.7366 8.1804 20.2678 8.64924C19.7989 9.11808 19.163 9.38147 18.5 9.38147C17.837 9.38147 17.2011 9.11808 16.7322 8.64924C16.2634 8.1804 16 7.54451 16 6.88147C16 6.21843 16.2634 5.58254 16.7322 5.1137C17.2011 4.64486 17.837 4.38147 18.5 4.38147ZM5.5 4.38147C6.16304 4.38147 6.79893 4.64486 7.26777 5.1137C7.73661 5.58254 8 6.21843 8 6.88147C8 7.54451 7.73661 8.1804 7.26777 8.64924C6.79893 9.11808 6.16304 9.38147 5.5 9.38147C4.83696 9.38147 4.20107 9.11808 3.73223 8.64924C3.26339 8.1804 3 7.54451 3 6.88147C3 6.21843 3.26339 5.58254 3.73223 5.1137C4.20107 4.64486 4.83696 4.38147 5.5 4.38147ZM12 4.88147C11.6022 4.88147 11.2206 5.0395 10.9393 5.32081C10.658 5.60211 10.5 5.98364 10.5 6.38147C10.5 6.77929 10.658 7.16083 10.9393 7.44213C11.2206 7.72343 11.6022 7.88147 12 7.88147C12.3978 7.88147 12.7794 7.72343 13.0607 7.44213C13.342 7.16083 13.5 6.77929 13.5 6.38147C13.5 5.98364 13.342 5.60211 13.0607 5.32081C12.7794 5.0395 12.3978 4.88147 12 4.88147ZM18.5 5.88147C18.2348 5.88147 17.9804 5.98683 17.7929 6.17436C17.6054 6.3619 17.5 6.61625 17.5 6.88147C17.5 7.14669 17.6054 7.40104 17.7929 7.58858C17.9804 7.77611 18.2348 7.88147 18.5 7.88147C18.7652 7.88147 19.0196 7.77611 19.2071 7.58858C19.3946 7.40104 19.5 7.14669 19.5 6.88147C19.5 6.61625 19.3946 6.3619 19.2071 6.17436C19.0196 5.98683 18.7652 5.88147 18.5 5.88147ZM5.5 5.88147C5.23478 5.88147 4.98043 5.98683 4.79289 6.17436C4.60536 6.3619 4.5 6.61625 4.5 6.88147C4.5 7.14669 4.60536 7.40104 4.79289 7.58858C4.98043 7.77611 5.23478 7.88147 5.5 7.88147C5.76522 7.88147 6.01957 7.77611 6.20711 7.58858C6.39464 7.40104 6.5 7.14669 6.5 6.88147C6.5 6.61625 6.39464 6.3619 6.20711 6.17436C6.01957 5.98683 5.76522 5.88147 5.5 5.88147Z" fill="#68696E"/>
</g>
</svg>
