<svg width="25" height="24" viewBox="0 0 25 24" fill="none" xmlns="http://www.w3.org/2000/svg">
<path fill-rule="evenodd" clip-rule="evenodd" d="M2.16895 7C2.16895 6.80109 2.24796 6.61032 2.38862 6.46967C2.52927 6.32902 2.72003 6.25 2.91895 6.25H10.9189C11.1179 6.25 11.3086 6.32902 11.4493 6.46967C11.5899 6.61032 11.6689 6.80109 11.6689 7C11.6689 7.19891 11.5899 7.38968 11.4493 7.53033C11.3086 7.67098 11.1179 7.75 10.9189 7.75H2.91895C2.72003 7.75 2.52927 7.67098 2.38862 7.53033C2.24796 7.38968 2.16895 7.19891 2.16895 7ZM17.9189 7.75C17.3608 7.75 16.8082 7.85993 16.2925 8.07351C15.7769 8.28709 15.3084 8.60015 14.9137 8.9948C14.5191 9.38944 14.206 9.85796 13.9925 10.3736C13.7789 10.8892 13.6689 11.4419 13.6689 12C13.6689 12.5581 13.7789 13.1108 13.9925 13.6264C14.206 14.142 14.5191 14.6106 14.9137 15.0052C15.3084 15.3999 15.7769 15.7129 16.2925 15.9265C16.8082 16.1401 17.3608 16.25 17.9189 16.25C19.0461 16.25 20.1271 15.8022 20.9241 15.0052C21.7212 14.2082 22.1689 13.1272 22.1689 12C22.1689 10.8728 21.7212 9.79183 20.9241 8.9948C20.1271 8.19777 19.0461 7.75 17.9189 7.75ZM12.1689 12C12.1689 11.2449 12.3177 10.4972 12.6066 9.79957C12.8956 9.10195 13.3191 8.46807 13.8531 7.93414C14.387 7.4002 15.0209 6.97666 15.7185 6.68769C16.4161 6.39873 17.1638 6.25 17.9189 6.25C18.674 6.25 19.4218 6.39873 20.1194 6.68769C20.817 6.97666 21.4509 7.4002 21.9848 7.93414C22.5187 8.46807 22.9423 9.10195 23.2313 9.79957C23.5202 10.4972 23.6689 11.2449 23.6689 12C23.6689 13.525 23.0631 14.9875 21.9848 16.0659C20.9065 17.1442 19.4439 17.75 17.9189 17.75C16.394 17.75 14.9314 17.1442 13.8531 16.0659C12.7747 14.9875 12.1689 13.525 12.1689 12ZM17.9189 9.25C18.1179 9.25 18.3086 9.32902 18.4493 9.46967C18.5899 9.61032 18.6689 9.80109 18.6689 10V11.566L19.4859 12.509C19.5504 12.5835 19.5996 12.6699 19.6307 12.7634C19.6618 12.8568 19.6741 12.9555 19.6671 13.0537C19.66 13.152 19.6337 13.2479 19.5896 13.3359C19.5454 13.424 19.4844 13.5025 19.4099 13.567C19.3355 13.6315 19.2491 13.6807 19.1556 13.7117C19.0621 13.7428 18.9635 13.7552 18.8652 13.7481C18.767 13.7411 18.6711 13.7147 18.583 13.6706C18.4949 13.6265 18.4164 13.5655 18.3519 13.491L17.3519 12.337C17.2341 12.2009 17.1692 12.027 17.1689 11.847V10C17.1689 9.80109 17.248 9.61032 17.3886 9.46967C17.5293 9.32902 17.72 9.25 17.9189 9.25ZM2.16895 12C2.16895 11.8011 2.24796 11.6103 2.38862 11.4697C2.52927 11.329 2.72003 11.25 2.91895 11.25H8.91895C9.11786 11.25 9.30862 11.329 9.44928 11.4697C9.58993 11.6103 9.66895 11.8011 9.66895 12C9.66895 12.1989 9.58993 12.3897 9.44928 12.5303C9.30862 12.671 9.11786 12.75 8.91895 12.75H2.91895C2.72003 12.75 2.52927 12.671 2.38862 12.5303C2.24796 12.3897 2.16895 12.1989 2.16895 12ZM2.16895 17C2.16895 16.8011 2.24796 16.6103 2.38862 16.4697C2.52927 16.329 2.72003 16.25 2.91895 16.25H10.9189C11.1179 16.25 11.3086 16.329 11.4493 16.4697C11.5899 16.6103 11.6689 16.8011 11.6689 17C11.6689 17.1989 11.5899 17.3897 11.4493 17.5303C11.3086 17.671 11.1179 17.75 10.9189 17.75H2.91895C2.72003 17.75 2.52927 17.671 2.38862 17.5303C2.24796 17.3897 2.16895 17.1989 2.16895 17Z" fill="#4F4F4F"/>
</svg>
