<svg width="25" height="24" viewBox="0 0 25 24" fill="none" xmlns="http://www.w3.org/2000/svg">
<g id="Frame 1000006255">
<path id="Vector 550" d="M6.96819 16.2426C6.57766 16.6331 6.57766 17.2663 6.96819 17.6568C7.35871 18.0473 7.99188 18.0473 8.3824 17.6568L6.96819 16.2426ZM18.5748 7.05021C18.5748 6.49793 18.1271 6.05021 17.5748 6.05021L8.57479 6.05021C8.0225 6.05021 7.57479 6.49793 7.57479 7.05021C7.57479 7.6025 8.0225 8.05021 8.57479 8.05021L16.5748 8.05021L16.5748 16.0502C16.5748 16.6025 17.0225 17.0502 17.5748 17.0502C18.1271 17.0502 18.5748 16.6025 18.5748 16.0502L18.5748 7.05021ZM8.3824 17.6568L18.2819 7.75732L16.8677 6.34311L6.96819 16.2426L8.3824 17.6568Z" fill="#4F4F4F"/>
</g>
</svg>
