<svg width="25" height="24" viewBox="0 0 25 24" fill="none" xmlns="http://www.w3.org/2000/svg">
<g id="ion:binoculars-outline">
<g id="Group">
<path id="Vector" d="M18.7939 20.25C21.0721 20.25 22.9189 18.4032 22.9189 16.125C22.9189 13.8468 21.0721 12 18.7939 12C16.5158 12 14.6689 13.8468 14.6689 16.125C14.6689 18.4032 16.5158 20.25 18.7939 20.25Z" stroke="#4F4F4F" stroke-width="1.8" stroke-linecap="round" stroke-linejoin="round"/>
<path id="Vector_2" d="M6.04395 20.25C8.32212 20.25 10.1689 18.4032 10.1689 16.125C10.1689 13.8468 8.32212 12 6.04395 12C3.76577 12 1.91895 13.8468 1.91895 16.125C1.91895 18.4032 3.76577 20.25 6.04395 20.25Z" stroke="#4F4F4F" stroke-width="1.8" stroke-linecap="round" stroke-linejoin="round"/>
<path id="Vector_3" d="M10.1689 16.125V6C10.1689 4.75781 9.41895 3.75 8.10645 3.75C6.46582 3.75 5.92676 4.75781 5.43457 6C5.43457 6 3.16113 11.9922 2.10645 14.8828M10.1689 8.625C10.1689 8.625 10.9424 8.25 12.4189 8.25C13.8955 8.25 14.6689 8.625 14.6689 8.625M10.1689 12.75C10.1689 12.75 10.9424 12.375 12.4189 12.375C13.8955 12.375 14.6689 12.75 14.6689 12.75M14.6689 16.125V6C14.6689 4.75781 15.4189 3.75 16.7314 3.75C18.3721 3.75 18.9111 4.75781 19.4033 6C19.4033 6 21.6768 11.9922 22.7314 14.8828" stroke="#4F4F4F" stroke-width="1.8" stroke-linecap="round" stroke-linejoin="round"/>
</g>
</g>
</svg>
