<svg width="24" height="24" viewBox="0 0 24 24" fill="none" xmlns="http://www.w3.org/2000/svg">
<g id="WIP Limits">
<path id="Vector" d="M12 3.75C4.125 3.75 0.75 9.375 0.75 9.375L8.625 17.25C8.625 17.25 9.1875 16.2375 10.2 15.5625L10.5375 17.8125C10.0875 18.15 9.75 18.825 9.75 19.5C9.75 20.0967 9.98705 20.669 10.409 21.091C10.831 21.5129 11.4033 21.75 12 21.75C12.5967 21.75 13.169 21.5129 13.591 21.091C14.0129 20.669 14.25 20.0967 14.25 19.5C14.25 18.4875 13.6875 17.7 12.7875 17.3625L12.3375 15C14.3625 15.225 15.375 17.25 15.375 17.25L23.25 9.375C23.25 9.375 19.875 3.75 12 3.75ZM15.4875 13.9875C14.5875 13.3125 13.4625 12.75 12 12.75L10.875 6.1125C11.2125 6 11.6625 6 12 6C16.1625 6 18.8625 7.9125 20.2125 9.2625L15.4875 13.9875ZM8.5125 13.9875L3.7875 9.2625C4.6875 8.25 6.375 7.125 8.625 6.45L9.75 13.2C9.3 13.425 8.85 13.65 8.5125 13.9875Z" fill="#4F4F4F"/>
</g>
</svg>
