<svg width="24" height="24" viewBox="0 0 24 24" fill="none" xmlns="http://www.w3.org/2000/svg">
<path d="M8 7.75C8.59674 7.75 9.16903 7.98705 9.59099 8.40901C10.0129 8.83097 10.25 9.40326 10.25 10V18C10.25 18.5967 10.0129 19.169 9.59099 19.591C9.16903 20.0129 8.59674 20.25 8 20.25H6C5.40326 20.25 4.83097 20.0129 4.40901 19.591C3.98705 19.169 3.75 18.5967 3.75 18V10C3.75 9.40326 3.98705 8.83097 4.40901 8.40901C4.83097 7.98705 5.40326 7.75 6 7.75H8ZM18 7.75C18.5967 7.75 19.169 7.98705 19.591 8.40901C20.0129 8.83097 20.25 9.40326 20.25 10V12C20.25 12.5967 20.0129 13.169 19.591 13.591C19.169 14.0129 18.5967 14.25 18 14.25H16C15.4033 14.25 14.831 14.0129 14.409 13.591C13.9871 13.169 13.75 12.5967 13.75 12V10C13.75 9.40326 13.9871 8.83097 14.409 8.40901C14.831 7.98705 15.4033 7.75 16 7.75H18Z" stroke="#333333" stroke-width="1.5"/>
<path d="M10 3C10.2652 3 10.5196 3.10536 10.7071 3.29289C10.8946 3.48043 11 3.73478 11 4C11 4.26522 10.8946 4.51957 10.7071 4.70711C10.5196 4.89464 10.2652 5 10 5H4C3.73478 5 3.48043 4.89464 3.29289 4.70711C3.10536 4.51957 3 4.26522 3 4C3 3.73478 3.10536 3.48043 3.29289 3.29289C3.48043 3.10536 3.73478 3 4 3H10ZM20 3C20.2652 3 20.5196 3.10536 20.7071 3.29289C20.8946 3.48043 21 3.73478 21 4C21 4.26522 20.8946 4.51957 20.7071 4.70711C20.5196 4.89464 20.2652 5 20 5H14C13.7348 5 13.4804 4.89464 13.2929 4.70711C13.1054 4.51957 13 4.26522 13 4C13 3.73478 13.1054 3.48043 13.2929 3.29289C13.4804 3.10536 13.7348 3 14 3H20Z" fill="#333333"/>
</svg>
