<svg width="24" height="25" viewBox="0 0 24 25" fill="none" xmlns="http://www.w3.org/2000/svg">
<g id="material-symbols:enterprise-outline">
<path id="Vector" d="M12 15.9329C12.55 15.9329 13.021 15.7372 13.413 15.3459C13.805 14.9545 14.0007 14.4835 14 13.9329C13.9993 13.3822 13.8037 12.9115 13.413 12.5209C13.0223 12.1302 12.5513 11.9342 12 11.9329C11.4487 11.9315 10.978 12.1275 10.588 12.5209C10.198 12.9142 10.002 13.3849 10 13.9329C9.998 14.4809 10.194 14.9519 10.588 15.3459C10.982 15.7399 11.4527 15.9355 12 15.9329ZM4 21.4329C3.45 21.4329 2.97933 21.2372 2.588 20.8459C2.19667 20.4545 2.00067 19.9835 2 19.4329V8.43286C2 7.88286 2.196 7.41219 2.588 7.02086C2.98 6.62953 3.45067 6.43353 4 6.43286H8V4.43286C8 3.88286 8.196 3.41219 8.588 3.02086C8.98 2.62953 9.45067 2.43353 10 2.43286H14C14.55 2.43286 15.021 2.62886 15.413 3.02086C15.805 3.41286 16.0007 3.88353 16 4.43286V6.43286H20C20.55 6.43286 21.021 6.62886 21.413 7.02086C21.805 7.41286 22.0007 7.88353 22 8.43286V19.4329C22 19.9829 21.8043 20.4539 21.413 20.8459C21.0217 21.2379 20.5507 21.4335 20 21.4329H4ZM4 19.4329H20V8.43286H4V19.4329ZM10 6.43286H14V4.43286H10V6.43286Z" fill="#68696E"/>
</g>
</svg>
