<svg width="30" height="29" viewBox="0 0 30 29" fill="none" xmlns="http://www.w3.org/2000/svg">
<path fill-rule="evenodd" clip-rule="evenodd" d="M26.3621 7.96113C26.4604 8.04985 26.5538 8.14373 26.6421 8.24238C27.6046 9.31113 27.6046 10.9574 27.6046 14.2474V16.9999C27.6046 21.7136 27.6046 24.0711 26.1396 25.5349C24.6759 26.9999 22.3184 26.9999 17.6046 26.9999H12.6046C7.89087 26.9999 5.53337 26.9999 4.06962 25.5349C2.60462 24.0711 2.60462 21.7136 2.60462 16.9999V8.18738C2.60462 7.08488 2.60462 6.53238 2.69212 6.07238C2.87896 5.08474 3.35913 4.17509 4.07 3.46445C4.78087 2.7538 5.68942 2.27391 6.67712 2.08738C7.13712 1.99988 7.68837 1.99988 8.79212 1.99988C9.27462 1.99988 9.51712 1.99988 9.74962 2.02113C10.7508 2.11481 11.7004 2.50818 12.4746 3.14988C12.6546 3.29988 12.8246 3.46987 13.1671 3.81234L13.8755 4.52078C14.8816 5.52564 15.3888 6.03221 15.9946 6.36863C16.3299 6.5555 16.6856 6.70314 17.0546 6.80863C17.7271 6.99988 18.4484 6.99988 19.8896 6.99988H20.3571C23.6471 6.99988 25.2934 6.99988 26.3621 7.96113ZM17.603 4.88527C17.9446 4.98219 18.3378 4.99988 19.8896 4.99988L20.4776 4.99988C22.0195 4.99979 23.3599 4.99971 24.4419 5.13564C25.6015 5.28133 26.7393 5.61045 27.6996 6.47411L27.7024 6.47666C27.8527 6.61238 27.9957 6.75595 28.1308 6.90679C28.9937 7.86642 29.3229 9.00335 29.4687 10.1623C29.6048 11.2444 29.6047 12.585 29.6046 14.1268V17.1371C29.6047 19.3769 29.6048 21.2573 29.4036 22.7527C29.1907 24.3358 28.7199 25.7837 27.5538 26.9491C26.3884 28.1152 24.9406 28.586 23.3575 28.7989C21.862 29 19.9816 29 17.7418 28.9999H12.4674C10.2276 29 8.3472 29 6.85178 28.7989C5.26895 28.586 3.82133 28.1153 2.65601 26.9497M2.65601 26.9497C1.48992 25.7843 1.01851 24.3358 0.80559 22.7527C0.604462 21.2573 0.604531 19.3769 0.604614 17.1371L0.604618 8.18738C0.604618 8.12652 0.604585 8.06647 0.604554 8.0072C0.604058 7.08264 0.603665 6.3496 0.72716 5.69963C0.988716 4.31812 1.66045 3.04525 2.65601 2.05001C3.65122 1.05511 4.92319 0.383262 6.30597 0.12212C6.95553 -0.00106776 7.68698 -0.000677468 8.61175 -0.00018275C8.67107 -0.00015104 8.73118 -0.000118853 8.79212 -0.000118853C8.81678 -0.000118853 8.84114 -0.000124814 8.86522 -0.000130536C9.27684 -0.000230433 9.60623 -0.000310065 9.93165 0.0294327L9.93594 0.0298249C11.3376 0.160977 12.6671 0.711699 13.7509 1.61008L13.755 1.61344C14.0063 1.82283 14.2374 2.05407 14.5298 2.34664C14.5468 2.36361 14.5639 2.38078 14.5813 2.39817L15.268 3.0848C16.3702 4.18567 16.6577 4.44918 16.9656 4.62015L16.9683 4.62165C17.1691 4.73355 17.382 4.822 17.603 4.88527M16.3546 11.0624C16.106 11.0624 15.8675 11.1612 15.6917 11.337C15.5159 11.5128 15.4171 11.7512 15.4171 11.9999C15.4171 12.2485 15.5159 12.487 15.6917 12.6628C15.8675 12.8386 16.106 12.9374 16.3546 12.9374H22.6046C22.8533 12.9374 23.0917 12.8386 23.2675 12.6628C23.4433 12.487 23.5421 12.2485 23.5421 11.9999C23.5421 11.7512 23.4433 11.5128 23.2675 11.337C23.0917 11.1612 22.8533 11.0624 22.6046 11.0624H16.3546Z" fill="#4F4F4F"/>
</svg>
