<svg width="121" height="120" viewBox="0 0 121 120" fill="none" xmlns="http://www.w3.org/2000/svg">
<path d="M29.3389 5.97615C29.856 5.97526 30.3731 5.97397 30.8902 5.97231C32.2838 5.96906 33.6774 5.97164 35.071 5.97553C36.5352 5.97879 37.9995 5.97726 39.4637 5.97643C41.9212 5.9758 44.3787 5.97892 46.8362 5.98439C49.3573 5.99 51.8783 5.99165 54.3994 5.9892C57.4491 5.98623 60.4989 5.98683 63.5486 5.99052C64.709 5.99187 65.8693 5.99186 67.0297 5.99074C68.3976 5.98962 69.7653 5.99202 71.1332 5.99706C71.6329 5.99835 72.1327 5.99848 72.6325 5.9973C77.4998 5.98729 81.8171 6.5115 85.4947 10.0018C87.9099 12.4272 89.5204 15.7844 89.5201 19.2317C89.5189 19.4102 89.5177 19.5887 89.5164 19.7726C89.5159 20.0511 89.5159 20.0511 89.5154 20.3351C89.5141 20.9249 89.5112 21.5147 89.5082 22.1045C89.507 22.5056 89.5059 22.9068 89.505 23.3079C89.5024 24.2886 89.4983 25.2693 89.4935 26.25C89.7403 26.2451 89.987 26.2402 90.2412 26.2351C91.1712 26.2179 92.1011 26.2073 93.0312 26.1985C93.431 26.1938 93.8308 26.1875 94.2305 26.1793C96.7451 26.129 98.8492 26.2387 101.212 27.1875C101.529 27.3132 101.529 27.3132 101.853 27.4415C104.682 28.63 107.122 31.3016 108.36 34.064C108.968 35.5962 109.443 36.9936 109.448 38.6519C109.449 38.9926 109.449 38.9926 109.451 39.3402C109.451 39.5879 109.451 39.8356 109.451 40.0908C109.452 40.3554 109.454 40.62 109.455 40.8926C109.458 41.7812 109.459 42.6698 109.461 43.5584C109.462 44.1948 109.464 44.8312 109.466 45.4676C109.472 47.3789 109.476 49.2903 109.479 51.2017C109.479 51.7421 109.48 52.2824 109.481 52.8228C109.487 56.1819 109.492 59.541 109.495 62.9C109.496 63.6777 109.497 64.4554 109.497 65.233C109.498 65.4263 109.498 65.6196 109.498 65.8187C109.501 68.946 109.509 72.0732 109.518 75.2004C109.528 78.4149 109.534 81.6294 109.535 84.8439C109.536 86.6472 109.539 88.4504 109.546 90.2537C109.553 91.7902 109.556 93.3267 109.553 94.8633C109.552 95.6461 109.553 96.4287 109.558 97.2114C109.59 102.256 109.103 106.115 105.534 109.966C101.936 113.379 97.6619 114.052 92.9029 114.028C92.4836 114.029 92.0643 114.03 91.6449 114.033C90.5176 114.037 89.3903 114.035 88.263 114.032C87.0761 114.03 85.8892 114.032 84.7023 114.033C82.7102 114.035 80.7181 114.033 78.726 114.028C76.4318 114.023 74.1377 114.025 71.8435 114.03C69.8641 114.034 67.8847 114.035 65.9053 114.033C64.7273 114.031 63.5493 114.031 62.3713 114.034C61.2632 114.037 60.1551 114.035 59.047 114.029C58.6434 114.028 58.2398 114.029 57.8363 114.031C53.2832 114.052 49.3515 113.211 45.9492 109.969C45.7782 109.799 45.6072 109.629 45.431 109.453C45.2987 109.326 45.1664 109.199 45.03 109.069C42.85 106.785 41.8291 103.623 41.8696 100.525C41.8703 100.33 41.8709 100.135 41.8716 99.9339C41.8742 99.3179 41.8801 98.7019 41.8861 98.0859C41.8885 97.6654 41.8906 97.2449 41.8925 96.8243C41.8976 95.7995 41.9057 94.7748 41.9154 93.75C41.6873 93.7521 41.4591 93.7541 41.2241 93.7563C39.0625 93.7754 36.9009 93.7894 34.7392 93.7986C33.6281 93.8034 32.5171 93.81 31.4061 93.8207C30.3317 93.831 29.2573 93.8365 28.1829 93.8389C27.7752 93.8407 27.3676 93.844 26.96 93.8491C24.5129 93.8785 22.429 93.7292 20.1185 92.8125C19.8013 92.6868 19.8013 92.6868 19.4777 92.5586C16.6481 91.3685 14.2087 88.699 12.971 85.936C12.3624 84.4032 11.8875 83.0057 11.8839 81.3467C11.8829 81.1193 11.8818 80.8919 11.8808 80.6576C11.8808 80.4096 11.8809 80.1615 11.8809 79.906C11.88 79.6411 11.8792 79.3761 11.8783 79.1032C11.8757 78.2135 11.8748 77.3238 11.8739 76.4342C11.8726 75.797 11.8709 75.1598 11.8692 74.5227C11.8646 72.6092 11.8623 70.6957 11.8602 68.7823C11.8591 67.8802 11.8579 66.9782 11.8567 66.0762C11.8527 63.076 11.8493 60.0758 11.8476 57.0756C11.8471 56.2975 11.8467 55.5193 11.8462 54.7412C11.8461 54.5478 11.846 54.3544 11.8459 54.1552C11.8439 51.0245 11.838 47.894 11.8304 44.7634C11.8226 41.5462 11.8184 38.3291 11.8177 35.1119C11.8171 33.3069 11.8151 31.5018 11.8091 29.6967C11.804 28.159 11.8021 26.6212 11.8044 25.0834C11.8055 24.2998 11.8045 23.5163 11.8005 22.7327C11.771 16.7001 11.771 16.7001 12.8529 14.2969C12.9716 14.0256 13.0904 13.7542 13.2127 13.4747C15.2285 10.0206 18.1342 7.56926 22.0078 6.51765C24.4293 5.91165 26.8579 5.96389 29.3389 5.97615ZM20.5873 16.4062C19.3842 18.3384 19.3805 20.3992 19.3841 22.6067C19.3835 22.8505 19.383 23.0943 19.3824 23.3455C19.381 24.1609 19.3812 24.9762 19.3813 25.7916C19.3806 26.3769 19.3798 26.9621 19.379 27.5474C19.3771 28.9712 19.3764 30.3951 19.3762 31.8189C19.3761 32.9768 19.3756 34.1346 19.3749 35.2924C19.3728 38.5782 19.3718 41.8639 19.3719 45.1496C19.3719 45.3266 19.372 45.5036 19.372 45.6859C19.372 45.8631 19.372 46.0403 19.372 46.2228C19.3721 49.094 19.3698 51.9651 19.3665 54.8362C19.3632 57.7872 19.3616 60.7382 19.3618 63.6891C19.3618 65.3447 19.3612 67.0003 19.3587 68.6559C19.3563 70.2131 19.3564 71.7704 19.3581 73.3276C19.3583 73.8985 19.3578 74.4693 19.3564 75.0402C19.3545 75.8208 19.3556 76.6015 19.3574 77.3821C19.3562 77.6067 19.355 77.8313 19.3538 78.0627C19.366 80.4561 19.6516 82.5436 21.2904 84.375C23.2483 86.0936 25.3759 86.3225 27.8983 86.3064C28.1298 86.3068 28.3613 86.3072 28.5998 86.3076C29.3706 86.3083 30.1414 86.3058 30.9122 86.3032C31.4667 86.3031 32.0212 86.3031 32.5757 86.3034C34.0776 86.3035 35.5796 86.3008 37.0815 86.2975C38.4932 86.2947 39.9048 86.2944 41.3164 86.2939C44.1112 86.2929 46.9061 86.2898 49.7009 86.2853C52.4147 86.281 55.1286 86.2777 57.8424 86.2757C58.0099 86.2756 58.1774 86.2755 58.3499 86.2754C59.1901 86.2748 60.0302 86.2742 60.8704 86.2736C67.8333 86.2687 74.7962 86.2604 81.7591 86.25C81.7806 77.6868 81.7971 69.1236 81.807 60.5604C81.8082 59.5492 81.8094 58.538 81.8106 57.5267C81.8109 57.3254 81.8111 57.1241 81.8114 56.9167C81.8155 53.6581 81.8229 50.3995 81.8315 47.1409C81.8402 43.7966 81.8455 40.4524 81.8474 37.1082C81.8486 35.045 81.8527 32.9819 81.8603 30.9187C81.8653 29.5034 81.8668 28.0882 81.8655 26.6729C81.8649 25.8567 81.8659 25.0405 81.8709 24.2243C81.8756 23.3382 81.8744 22.4523 81.8719 21.5662C81.8746 21.3097 81.8773 21.0532 81.8802 20.789C81.8634 18.6352 81.2817 16.9553 79.8164 15.3525C78.2601 13.9845 76.5341 13.7931 74.5379 13.7952C74.3271 13.7945 74.1163 13.7938 73.8991 13.7931C73.1911 13.7911 72.4831 13.7907 71.7751 13.7903C71.2681 13.7893 70.7611 13.7881 70.2541 13.7868C68.8754 13.7837 67.4967 13.7822 66.118 13.7812C65.2566 13.7805 64.3952 13.7795 63.5338 13.7785C60.8387 13.7753 58.1435 13.773 55.4483 13.7721C52.3374 13.7711 49.2264 13.767 46.1155 13.7602C43.7108 13.7551 41.3061 13.7527 38.9014 13.7524C37.4653 13.7522 36.0291 13.7508 34.593 13.7466C33.2415 13.7427 31.8901 13.7422 30.5387 13.7443C30.0434 13.7445 29.548 13.7435 29.0527 13.7411C28.375 13.7382 27.6975 13.7395 27.0198 13.742C26.7276 13.7391 26.7276 13.7391 26.4296 13.7363C23.9943 13.7567 22.1915 14.5576 20.5873 16.4062ZM89.4935 33.75C89.4932 34.0444 89.4928 34.3388 89.4925 34.6422C89.4841 41.6321 89.4709 48.622 89.4518 55.6118C89.4495 56.4723 89.4472 57.3327 89.4449 58.1931C89.4442 58.4501 89.4442 58.4501 89.4435 58.7122C89.4362 61.4854 89.4323 64.2586 89.4295 67.0318C89.4266 69.8776 89.4201 72.7233 89.4104 75.5691C89.4045 77.325 89.4014 79.0808 89.4018 80.8366C89.4018 82.1833 89.3969 83.5299 89.3901 84.8765C89.3881 85.4288 89.3877 85.981 89.389 86.5332C89.3906 87.2871 89.3864 88.0408 89.3808 88.7946C89.3826 89.0133 89.3844 89.2319 89.3863 89.4572C89.3679 90.85 89.1267 91.6675 88.3216 92.8125C87.8894 93.1723 87.8894 93.1723 87.4253 93.4005C87.2404 93.4944 87.0555 93.5884 86.865 93.6851C86.6565 93.7851 86.4481 93.885 86.2333 93.988C86.0046 94.1026 85.7758 94.2172 85.5402 94.3352C84.9962 94.6071 84.4515 94.8769 83.9055 95.1447C82.7855 95.6951 81.671 96.2564 80.5563 96.8175C78.0399 98.0828 75.5202 99.3412 72.9999 100.599C71.7912 101.202 70.5828 101.805 69.3743 102.409C67.0185 103.586 64.6624 104.762 62.306 105.937C62.306 106.015 62.306 106.092 62.306 106.172C66.7312 106.188 71.1563 106.201 75.5814 106.208C77.6362 106.212 79.691 106.217 81.7458 106.225C83.5373 106.232 85.3288 106.236 87.1203 106.238C88.0684 106.239 89.0165 106.241 89.9646 106.246C90.8581 106.251 91.7517 106.252 92.6453 106.251C92.972 106.252 93.2988 106.253 93.6256 106.256C96.338 106.277 98.2792 106.03 100.287 104.12C101.971 102.179 101.95 99.805 101.948 97.3666C101.949 97.1199 101.95 96.8732 101.95 96.6191C101.952 95.794 101.953 94.9689 101.953 94.1438C101.954 93.5517 101.955 92.9595 101.957 92.3673C101.96 90.7596 101.961 89.1519 101.962 87.5442C101.963 86.5395 101.964 85.5349 101.965 84.5302C101.968 81.7461 101.97 78.9621 101.971 76.178C101.971 76 101.971 75.822 101.971 75.6387C101.971 75.4603 101.971 75.2819 101.971 75.0981C101.971 74.7366 101.972 74.3751 101.972 74.0137C101.972 73.8344 101.972 73.6551 101.972 73.4704C101.973 70.5651 101.977 67.6599 101.982 64.7547C101.988 61.7688 101.991 58.7828 101.991 55.7969C101.991 54.1216 101.993 52.4464 101.997 50.7712C102.001 49.1955 102.001 47.6198 101.999 46.044C101.999 45.4664 102 44.8887 102.002 44.3111C102.005 43.5212 102.004 42.7314 102.002 41.9414C102.003 41.7141 102.005 41.4868 102.007 41.2525C101.99 38.9177 101.501 37.0733 99.8646 35.3705C98.2478 33.9951 96.3705 33.7172 94.3 33.7271C94.0191 33.7279 93.7381 33.7286 93.4486 33.7294C93.1586 33.7314 92.8685 33.7333 92.5697 33.7353C92.2742 33.7364 91.9787 33.7375 91.6743 33.7385C90.9474 33.7413 90.2204 33.7451 89.4935 33.75ZM49.4154 93.75C49.0596 98.5855 49.0596 98.5855 50.5873 103.125C54.3835 101.361 58.1239 99.4881 61.865 97.6114C62.6837 97.2008 63.5026 96.7908 64.3216 96.3808C65.9156 95.5825 67.5093 94.7836 69.1029 93.9844C69.1029 93.907 69.1029 93.8297 69.1029 93.75C62.606 93.75 56.1091 93.75 49.4154 93.75Z" fill="white"/>
<path d="M35.6906 46.139C35.9613 46.1376 36.2321 46.1363 36.511 46.1349C36.8096 46.1347 37.1081 46.1344 37.4157 46.1341C37.7322 46.133 38.0486 46.1319 38.365 46.1306C39.2261 46.1275 40.0871 46.126 40.9481 46.125C41.4861 46.1243 42.024 46.1233 42.562 46.1223C44.2451 46.1191 45.9283 46.1168 47.6114 46.1159C49.5543 46.1149 51.4971 46.1107 53.4399 46.104C54.9415 46.0989 56.4431 46.0965 57.9447 46.0962C58.8416 46.096 59.7384 46.0946 60.6352 46.0904C61.4794 46.0865 62.3235 46.086 63.1676 46.0881C63.6241 46.0883 64.0807 46.0851 64.5372 46.0818C67.0569 46.0938 67.0569 46.0938 68.1658 46.875C69.0762 47.836 69.5112 48.682 69.6599 49.9951C69.5505 51.0706 69.2608 51.8534 68.6345 52.7344C67.5142 53.6261 66.6649 53.9346 65.252 53.9408C64.9875 53.9424 64.723 53.9441 64.4505 53.9458C64.0149 53.9468 64.0149 53.9468 63.5706 53.9478C63.2649 53.9493 62.9592 53.9508 62.6442 53.9524C61.6298 53.9574 60.6154 53.9598 59.601 53.9621C59.2514 53.9631 58.9018 53.964 58.5522 53.965C56.9094 53.9695 55.2665 53.9728 53.6237 53.9748C51.7294 53.9771 49.8352 53.9832 47.9409 53.9927C46.4755 53.9998 45.0101 54.0032 43.5447 54.004C42.6701 54.0046 41.7956 54.0066 40.921 54.0126C39.9442 54.019 38.9675 54.0181 37.9907 54.0164C37.5587 54.0209 37.5587 54.0209 37.1179 54.0255C35.4794 54.0156 34.3988 53.8594 33.0095 52.9688C31.9213 51.8247 31.7539 50.8671 31.7717 49.3369C31.9022 48.1757 32.5461 47.5455 33.3904 46.8018C34.2306 46.2048 34.6665 46.142 35.6906 46.139Z" fill="white"/>
<path d="M36.2137 66.0311C36.4789 66.0291 36.744 66.0271 37.0172 66.025C37.3059 66.0253 37.5946 66.0255 37.892 66.0257C38.1978 66.0241 38.5036 66.0225 38.8186 66.0209C39.6559 66.0168 40.4932 66.0157 41.3305 66.0154C41.8542 66.015 42.3779 66.014 42.9016 66.0128C44.7304 66.0085 46.5592 66.0065 48.388 66.0069C50.0898 66.0072 51.7916 66.0023 53.4935 65.9948C54.9569 65.9887 56.4203 65.9862 57.8837 65.9865C58.7567 65.9866 59.6297 65.9853 60.5027 65.9803C61.4772 65.9749 62.4516 65.9771 63.4261 65.9799C63.7134 65.9773 64.0006 65.9746 64.2966 65.9719C65.93 65.9839 67.0189 66.134 68.3998 67.0313C69.377 68.259 69.7 69.2164 69.5717 70.7813C69.1475 72.017 68.5793 72.8778 67.4623 73.5938C66.734 73.8366 66.229 73.8588 65.4651 73.8611C65.196 73.8624 64.9269 73.8637 64.6497 73.8651C64.3541 73.8654 64.0586 73.8656 63.7542 73.8659C63.44 73.867 63.1258 73.8682 62.8117 73.8694C61.9579 73.8725 61.1042 73.874 60.2504 73.8751C59.7169 73.8758 59.1834 73.8767 58.6499 73.8778C56.9802 73.881 55.3106 73.8832 53.641 73.8841C51.7143 73.8852 49.7877 73.8893 47.8611 73.8961C46.3714 73.9012 44.8817 73.9035 43.392 73.9038C42.5025 73.9041 41.6131 73.9055 40.7236 73.9097C39.8865 73.9135 39.0496 73.914 38.2125 73.912C37.7599 73.9117 37.3073 73.9149 36.8547 73.9182C35.2851 73.9107 34.063 73.8899 32.8582 72.7652C31.8261 71.4155 31.6951 70.5879 31.8373 68.9063C32.2285 67.7944 32.7358 67.2136 33.7123 66.5625C34.5775 66.1532 35.2596 66.0344 36.2137 66.0311Z" fill="white"/>
<path d="M35.5586 26.1591C35.8343 26.1568 36.11 26.1545 36.394 26.1521C36.6944 26.1532 36.9948 26.1542 37.3043 26.1553C37.6254 26.154 37.9466 26.1523 38.2678 26.1504C39.1385 26.1462 40.0091 26.1465 40.8798 26.1478C41.6073 26.1486 42.3347 26.1471 43.0622 26.1457C44.7787 26.1424 46.4951 26.1428 48.2116 26.1455C49.9812 26.1482 51.7506 26.1449 53.5201 26.1386C55.0406 26.1334 56.5611 26.1318 58.0817 26.1332C58.9893 26.134 59.8968 26.1334 60.8044 26.1294C61.658 26.1258 62.5115 26.1267 63.3651 26.1311C63.8266 26.1324 64.2882 26.129 64.7497 26.1255C67.2738 26.1466 67.2738 26.1466 68.4002 27.1875C69.3568 28.2475 69.648 29.0136 69.6215 30.4559C69.5068 31.5734 68.9787 32.2948 68.1512 33.0029C67.2311 33.6881 66.8418 33.7797 65.7119 33.7845C65.3033 33.787 65.3033 33.787 64.8864 33.7896C64.4359 33.7905 64.4359 33.7905 63.9762 33.7915C63.6579 33.793 63.3395 33.7945 63.0211 33.7962C61.9739 33.8011 60.9266 33.8035 59.8794 33.8059C59.5189 33.8068 59.1583 33.8078 58.7978 33.8087C57.1035 33.8132 55.4092 33.8165 53.7149 33.8185C51.7598 33.8208 49.8049 33.827 47.8498 33.8364C46.3385 33.8435 44.8271 33.847 43.3157 33.8477C42.4132 33.8483 41.5108 33.8504 40.6083 33.8563C39.7586 33.8618 38.909 33.8627 38.0592 33.8603C37.6002 33.8602 37.1412 33.8646 36.6822 33.8693C35.0968 33.8599 34.0479 33.7945 32.7752 32.8125C31.9128 31.7068 31.6717 30.8149 31.7315 29.4141C31.9498 28.2097 32.5376 27.2876 33.5326 26.5825C34.2727 26.2032 34.7314 26.1611 35.5586 26.1591Z" fill="white"/>
</svg>
