<svg width="121" height="120" viewBox="0 0 121 120" fill="none" xmlns="http://www.w3.org/2000/svg">
<path d="M15.1959 5.50274C15.791 5.50782 16.3855 5.50275 16.9806 5.49679C17.361 5.49741 17.7414 5.49861 18.1218 5.50046C18.2986 5.49856 18.4753 5.49666 18.6575 5.49471C19.8962 5.51686 20.0117 5.61698 20.9572 6.56247C20.9572 9.34684 20.9572 12.1312 20.9572 15C46.9447 15 72.9322 15 99.7072 15C99.7072 12.2156 99.7072 9.43122 99.7072 6.56247C100.653 5.61698 100.768 5.51686 102.007 5.49471C102.184 5.4966 102.36 5.4985 102.543 5.50046C102.728 5.49956 102.913 5.49866 103.103 5.49774C103.495 5.4971 103.887 5.49883 104.279 5.50274C104.871 5.50772 105.462 5.50282 106.053 5.49679C109.19 5.49114 111.657 5.96231 114.004 8.20309C116.105 10.4035 116.726 12.7796 116.701 15.7636C116.703 16.1805 116.703 16.1805 116.706 16.6059C116.709 17.3701 116.708 18.1341 116.705 18.8983C116.703 19.7253 116.706 20.5522 116.709 21.3792C116.713 22.9963 116.712 24.6134 116.709 26.2305C116.707 27.5455 116.707 28.8604 116.708 30.1753C116.708 30.3628 116.708 30.5504 116.708 30.7436C116.708 31.1247 116.709 31.5057 116.709 31.8868C116.712 35.4553 116.709 39.0238 116.704 42.5923C116.699 45.6506 116.7 48.7088 116.704 51.7671C116.709 55.3233 116.711 58.8795 116.709 62.4358C116.708 62.8154 116.708 63.195 116.708 63.5746C116.707 63.8548 116.707 63.8548 116.707 64.1405C116.706 65.453 116.708 66.7655 116.71 68.078C116.713 69.6787 116.712 71.2794 116.707 72.8801C116.704 73.696 116.703 74.5118 116.707 75.3276C116.709 76.2139 116.706 77.1 116.701 77.9863C116.704 78.3691 116.704 78.3691 116.708 78.7596C116.68 81.4377 115.861 83.6019 114.004 85.5468C111.139 88.2815 108.089 88.2517 104.351 88.1836C103.9 88.1789 103.448 88.1746 102.997 88.1707C101.9 88.1605 100.804 88.1444 99.7072 88.125C99.7072 86.8875 99.7072 85.65 99.7072 84.375C100.224 84.3635 100.741 84.352 101.274 84.3402C101.781 84.3275 102.288 84.3141 102.796 84.3006C103.145 84.2917 103.494 84.2835 103.844 84.2761C107.762 84.2935 107.762 84.2935 111.052 82.402C112.269 81.026 112.465 79.836 112.441 78.0505C112.347 77.19 112.096 76.5849 111.654 75.8487C111.426 75.4687 111.426 75.4687 111.192 74.7656C110.782 74.5115 110.782 74.5115 110.254 74.2968C110.037 74.176 109.819 74.0551 109.595 73.9306C108.326 73.3583 107.021 73.332 105.644 73.3181C105.358 73.3126 105.071 73.307 104.776 73.3012C104.177 73.2911 103.579 73.2838 102.98 73.2792C102.551 73.2695 102.551 73.2695 102.114 73.2596C101.855 73.2561 101.595 73.2527 101.328 73.2492C100.451 73.0897 100.232 72.9077 99.7072 72.1875C99.5688 71.4742 99.5848 70.7706 99.5945 70.046C99.5937 69.8275 99.5929 69.6091 99.592 69.384C99.5905 68.6478 99.5957 67.9118 99.6008 67.1756C99.6011 66.6405 99.6009 66.1053 99.6004 65.5702C99.6002 64.1348 99.6057 62.6995 99.6123 61.2641C99.6176 59.9181 99.6179 58.5721 99.6185 57.226C99.6234 53.2874 99.6365 49.3488 99.6486 45.4101C99.668 36.6123 99.6873 27.8144 99.7072 18.75C73.7197 18.75 47.7322 18.75 20.9572 18.75C20.9944 36.2941 20.9944 36.2941 21.0417 53.8382C21.0459 57.226 21.0459 57.226 21.0467 58.8104C21.0476 59.9205 21.0511 61.0306 21.0562 62.1407C21.0626 63.5551 21.0646 64.9694 21.0632 66.3839C21.0635 66.904 21.0654 67.4241 21.069 67.9442C21.0736 68.6449 21.0725 69.3453 21.07 70.046C21.0727 70.2512 21.0754 70.4563 21.0782 70.6676C21.0646 72.0401 21.0646 72.0401 20.5236 72.7825C19.8467 73.2425 19.3817 73.2452 18.5668 73.2513C18.2832 73.2567 17.9997 73.2622 17.7076 73.2678C17.4119 73.269 17.1163 73.2702 16.8117 73.2715C13.1637 73.2596 13.1637 73.2596 9.94159 74.7656C9.7869 74.7656 9.63222 74.7656 9.47284 74.7656C9.31165 75.0756 9.15711 75.389 9.00409 75.7031C8.87841 75.9351 8.75273 76.1672 8.62323 76.4062C8.06229 77.7439 8.02023 79.3646 8.50421 80.7293C8.74472 81.2199 8.74472 81.2199 9.0105 81.6513C9.23847 82.0312 9.23847 82.0312 9.47284 82.7343C9.87074 82.9926 9.87074 82.9926 10.4103 83.2031C10.8019 83.3844 10.8019 83.3844 11.2014 83.5693C12.5789 84.1156 13.9567 84.1916 15.4201 84.2724C16.0099 84.3063 16.5996 84.3401 17.2072 84.375C17.2072 85.6125 17.2072 86.85 17.2072 88.125C16.2842 88.1505 15.3619 88.169 14.4387 88.1836C14.1808 88.1914 13.9229 88.1993 13.6573 88.2074C10.8714 88.2402 8.68809 87.4826 6.66034 85.5468C4.55975 83.3464 3.93872 80.9704 3.96317 77.9863C3.96171 77.7084 3.96024 77.4304 3.95874 77.1441C3.95567 76.3799 3.95674 75.6158 3.95966 74.8516C3.9618 74.0247 3.9585 73.1977 3.95593 72.3708C3.95177 70.7536 3.95266 69.1365 3.95538 67.5194C3.9575 66.2045 3.95778 64.8896 3.95676 63.5746C3.95662 63.3871 3.95648 63.1995 3.95633 63.0063C3.95603 62.6253 3.95573 62.2442 3.95542 61.8631C3.95275 58.2946 3.95581 54.7261 3.96086 51.1576C3.96504 48.0993 3.96432 45.0411 3.95999 41.9828C3.95497 38.4266 3.95301 34.8704 3.95588 31.3141C3.95618 30.9345 3.95647 30.5549 3.95676 30.1753C3.95691 29.9886 3.95705 29.8018 3.9572 29.6094C3.95801 28.2969 3.95665 26.9844 3.95444 25.6719C3.9518 24.0712 3.95254 22.4705 3.95752 20.8698C3.95997 20.054 3.96096 19.2382 3.95784 18.4223C3.95527 17.536 3.95851 16.6499 3.96317 15.7636C3.96108 15.5084 3.95899 15.2532 3.95683 14.9903C3.98408 12.3122 4.80361 10.1481 6.66034 8.20309C9.18283 5.79504 11.8559 5.46875 15.1959 5.50274ZM9.94159 10.7812C8.00782 12.7289 7.79555 14.6388 7.80403 17.2956C7.80383 17.5256 7.80363 17.7555 7.80343 17.9924C7.80304 18.7622 7.80433 19.5319 7.80561 20.3017C7.80568 20.8538 7.80564 21.4058 7.80551 21.9579C7.80544 23.4565 7.80682 24.9551 7.80845 26.4537C7.80977 27.8613 7.81001 29.2688 7.81025 30.6763C7.81076 33.4637 7.81232 36.2511 7.81454 39.0385C7.81669 41.7458 7.81835 44.4531 7.81934 47.1604C7.8194 47.3273 7.81947 47.4943 7.81953 47.6663C7.81983 48.5038 7.82013 49.3414 7.82042 50.179C7.82285 57.1245 7.827 64.07 7.83222 71.0156C8.00745 70.9337 8.18268 70.8518 8.36322 70.7675C8.59405 70.6608 8.82487 70.5542 9.06269 70.4443C9.29109 70.3383 9.5195 70.2322 9.75482 70.123C12.197 69.0826 14.2572 69.493 17.2072 69.375C17.2072 49.575 17.2072 29.775 17.2072 9.37497C13.2619 9.18354 13.2619 9.18354 9.94159 10.7812ZM103.457 9.37497C103.457 29.175 103.457 48.975 103.457 69.375C105.391 69.4523 107.324 69.5297 109.317 69.6093C111.895 70.5468 111.895 70.5468 112.832 71.0156C112.843 63.9154 112.851 56.8153 112.856 49.7151C112.857 48.8764 112.857 48.0377 112.858 47.199C112.858 46.9486 112.858 46.9486 112.858 46.693C112.86 43.9914 112.864 41.2898 112.868 38.5881C112.873 35.8149 112.875 33.0417 112.876 30.2685C112.877 28.7113 112.878 27.1541 112.882 25.5969C112.885 24.1308 112.886 22.6648 112.885 21.1987C112.885 20.661 112.886 20.1233 112.888 19.5856C112.89 18.8505 112.89 18.1154 112.889 17.3802C112.891 17.0625 112.891 17.0625 112.893 16.7384C112.883 14.5774 112.638 12.6879 111.041 11.1026C108.765 9.04852 106.58 9.37497 103.457 9.37497Z" fill="white"/>
<path d="M71.8461 41.1767C72.1517 41.4322 72.4543 41.6913 72.7544 41.9531C72.9812 42.1341 73.2081 42.3151 73.4419 42.5015C75.692 44.3798 77.1087 46.9945 78.145 49.6875C78.2468 49.9482 78.3486 50.2089 78.4535 50.4776C79.7416 54.4316 79.51 59.1455 78.145 63.0469C78.0258 63.4031 78.0258 63.4031 77.9042 63.7665C77.3849 65.1526 76.6795 66.3929 75.9038 67.6465C75.8105 67.7975 75.7173 67.9486 75.6213 68.1043C75.0909 68.9431 74.5499 69.721 73.8912 70.4643C71.368 73.4578 71.567 76.4898 71.7323 80.204C71.9992 86.409 71.692 92.0006 67.5981 97.0312C66.8118 97.5554 66.545 97.5609 65.6252 97.5681C65.3655 97.5711 65.1058 97.5741 64.8382 97.5771C64.4175 97.5779 64.4175 97.5779 63.9882 97.5787C63.7001 97.5803 63.412 97.5818 63.1151 97.5834C62.5054 97.5858 61.8956 97.5869 61.2858 97.5868C60.3517 97.5868 59.4177 97.5964 58.4836 97.6053C57.8917 97.6066 57.2998 97.6076 56.7079 97.608C56.4279 97.6114 56.1478 97.6147 55.8593 97.6182C55.5988 97.6168 55.3384 97.6153 55.0701 97.6138C54.8411 97.6145 54.6122 97.6152 54.3763 97.6159C53.2001 97.391 52.5892 96.2962 51.9289 95.3659C49.0094 90.8184 48.8843 86.6397 49.0092 81.4013C49.1401 75.8276 48.9248 71.9209 44.9419 67.6873C41.5656 63.6374 41.3167 58.2087 41.5825 53.2031C41.9509 49.8064 43.8127 46.3757 46.0356 43.8281C46.2166 43.6012 46.3975 43.3743 46.584 43.1405C48.4623 40.8904 51.077 39.4738 53.77 38.4375C54.0307 38.3357 54.2914 38.2339 54.5601 38.1289C60.3455 36.2443 67.0497 37.4909 71.8461 41.1767ZM49.6098 45.7471C46.2514 49.3568 45.3653 53.4006 45.5269 58.1899C45.8038 62.6139 49.035 68.1557 52.1294 71.25C52.4854 71.2668 52.8422 71.2697 53.1987 71.2646C53.3923 71.2625 53.586 71.2604 53.7855 71.2582C53.9351 71.2555 54.0846 71.2528 54.2387 71.25C54.2006 71.0614 54.1624 70.8728 54.1231 70.6785C53.7621 68.893 53.4033 67.1072 53.0469 65.3208C52.8637 64.4026 52.6796 63.4846 52.4936 62.567C52.3138 61.6799 52.1363 60.7924 51.9602 59.9045C51.893 59.5675 51.825 59.2305 51.7561 58.8938C50.9181 54.7881 50.9181 54.7881 51.1919 53.4375C51.6931 52.7709 51.8741 52.7379 52.7373 52.5934C54.0878 52.6471 54.9781 53.4746 55.9965 54.2871C56.1848 54.4318 56.373 54.5765 56.5669 54.7256C58.0373 55.8576 58.0373 55.8576 58.7385 56.4539C58.9801 56.653 58.9801 56.653 59.2265 56.8561C59.3669 56.9764 59.5072 57.0968 59.6518 57.2208C60.1102 57.4837 60.1102 57.4837 60.6768 57.2685C61.2572 56.9599 61.7445 56.6323 62.2578 56.2225C62.438 56.0802 62.6183 55.9379 62.8039 55.7913C62.989 55.643 63.174 55.4946 63.3647 55.3418C66.8104 52.5999 66.8104 52.5999 67.8764 52.6318C68.77 52.7344 68.77 52.7344 69.172 53.0305C69.7712 53.8405 69.5606 54.8208 69.4731 55.7812C69.2913 56.9941 69.0521 58.1928 68.8066 59.3939C68.7381 59.7373 68.6698 60.0808 68.6017 60.4243C68.4233 61.3209 68.2423 62.2169 68.0607 63.1129C67.8753 64.0302 67.6924 64.948 67.5093 65.8658C67.1508 67.661 66.7894 69.4557 66.4262 71.25C66.7668 71.2614 67.1074 71.2697 67.4481 71.2765C67.6377 71.2814 67.8274 71.2863 68.0229 71.2914C68.581 71.2948 68.581 71.2948 69.0611 70.8261C69.1874 70.6228 69.3137 70.4194 69.4438 70.2099C69.5949 69.9752 69.7459 69.7404 69.9016 69.4986C69.9818 69.3671 70.062 69.2357 70.1446 69.1002C70.4354 68.6319 70.7417 68.1766 71.0515 67.7206C74.0961 63.2037 75.9169 58.6594 75.0064 53.1135C74.1357 49.1729 71.6436 45.8446 68.3178 43.6073C62.2119 39.7139 54.8257 40.9999 49.6098 45.7471ZM55.8794 59.2969C56.1998 61.5615 56.6185 63.7985 57.0715 66.0397C57.1845 66.5989 57.2962 67.1584 57.4078 67.7179C57.4796 68.0756 57.5515 68.4332 57.6234 68.7909C57.6566 68.9571 57.6898 69.1234 57.7241 69.2947C57.8597 69.9633 58.0071 70.6019 58.2231 71.25C59.6153 71.25 61.0075 71.25 62.4419 71.25C62.9145 69.0633 63.3829 66.8758 63.8481 64.6875C63.9017 64.4368 63.9553 64.1862 64.0105 63.9279C64.1488 63.2782 64.2846 62.628 64.4194 61.9775C64.4606 61.7856 64.5017 61.5937 64.5441 61.3959C64.7632 60.3405 64.7632 60.3405 64.5512 59.2969C64.3361 59.466 64.121 59.6352 63.8994 59.8096C63.609 60.0295 63.3185 60.2492 63.0278 60.4687C62.887 60.5805 62.7462 60.6923 62.6012 60.8075C61.7033 61.4761 60.9962 61.8323 59.8604 61.755C58.9848 61.5397 58.3458 61.024 57.6518 60.4687C56.8188 59.7029 56.8188 59.7029 55.8794 59.2969ZM52.8325 75C52.8325 78.7125 52.8325 82.425 52.8325 86.25C57.7825 86.25 62.7325 86.25 67.8325 86.25C67.8325 82.5375 67.8325 78.825 67.8325 75C62.8825 75 57.9325 75 52.8325 75ZM54.2387 90C54.7351 91.5996 54.7351 91.5996 55.8794 93.75C58.8184 93.75 61.7575 93.75 64.7856 93.75C65.911 91.947 65.911 91.947 66.4262 90C62.4044 90 58.3825 90 54.2387 90Z" fill="white"/>
<path d="M83.1913 59.8787C83.451 59.8757 83.7107 59.8727 83.9782 59.8697C84.2575 59.8716 84.5368 59.8735 84.8246 59.8755C85.1124 59.8746 85.4002 59.8737 85.6966 59.8727C86.305 59.8721 86.9134 59.8738 87.5218 59.8777C88.4539 59.8828 89.3856 59.8778 90.3178 59.8718C90.9086 59.8724 91.4994 59.8736 92.0902 59.8755C92.3695 59.8736 92.6489 59.8717 92.9366 59.8697C93.3262 59.8741 93.3262 59.8741 93.7235 59.8787C93.9518 59.8794 94.18 59.8802 94.4152 59.8809C95.2211 60.0396 95.456 60.2899 95.9574 60.9375C96.0839 61.7073 96.0839 61.7073 96.097 62.6417C96.1024 62.8998 96.1024 62.8998 96.1079 63.1632C96.1188 63.7404 96.123 64.3175 96.1271 64.8948C96.1333 65.3088 96.14 65.7227 96.1469 66.1367C96.1678 67.499 96.1787 68.8613 96.189 70.2237C96.1932 70.6948 96.1973 71.166 96.2015 71.6371C96.2207 73.856 96.235 76.0748 96.2439 78.2938C96.2542 80.8401 96.2808 83.3856 96.3216 85.9316C96.3521 87.9074 96.3669 89.883 96.3704 91.859C96.3729 93.0351 96.3817 94.2101 96.4073 95.3859C96.5285 101.239 96.0567 105.319 92.512 110.114C91.8112 111.083 91.1772 112.088 90.5482 113.105C89.9131 114.116 89.9131 114.116 89.3949 114.375C88.0627 114.506 88.0627 114.506 87.5199 114.375C86.6151 113.568 86.0143 112.731 85.4115 111.684C85.328 111.541 85.2446 111.397 85.1586 111.249C84.8942 110.793 84.6323 110.335 84.3705 109.878C84.109 109.425 83.847 108.972 83.5849 108.519C83.2647 107.965 82.9448 107.411 82.6335 106.852C82.3678 106.393 82.3678 106.393 82.0127 105.956C80.6334 104.057 80.7617 102.092 80.7829 99.8525C80.7818 99.4288 80.78 99.0051 80.7777 98.5814C80.7733 97.4367 80.7777 96.2922 80.784 95.1475C80.7893 93.948 80.7873 92.7486 80.7864 91.5491C80.786 89.5368 80.7912 87.5245 80.7998 85.5122C80.8098 83.1852 80.8114 80.8583 80.8085 78.5313C80.8058 76.291 80.8085 74.0508 80.8137 71.8105C80.8159 70.8575 80.8163 69.9045 80.8153 68.9515C80.8144 67.8307 80.8182 66.71 80.8257 65.5892C80.8276 65.1776 80.828 64.7661 80.8267 64.3545C80.8252 63.7934 80.8295 63.2327 80.8352 62.6716C80.8334 62.5082 80.8317 62.3447 80.8299 62.1763C80.8441 61.393 80.9123 60.9961 81.396 60.3678C82.0325 59.8985 82.4047 59.8812 83.1913 59.8787ZM84.7074 63.75C84.7074 64.9875 84.7074 66.225 84.7074 67.5C87.1824 67.5 89.6574 67.5 92.2074 67.5C92.2074 66.2625 92.2074 65.025 92.2074 63.75C89.7324 63.75 87.2574 63.75 84.7074 63.75ZM84.7074 71.25C84.7074 71.8687 84.7074 72.4875 84.7074 73.125C87.1824 73.125 89.6574 73.125 92.2074 73.125C92.2074 72.5062 92.2074 71.8875 92.2074 71.25C89.7324 71.25 87.2574 71.25 84.7074 71.25ZM84.7074 76.875C84.7074 84.9187 84.7074 92.9625 84.7074 101.25C85.3262 101.25 85.9449 101.25 86.5824 101.25C86.5824 93.2062 86.5824 85.1625 86.5824 76.875C85.9637 76.875 85.3449 76.875 84.7074 76.875ZM90.3324 76.875C90.3324 84.9187 90.3324 92.9625 90.3324 101.25C90.9512 101.25 91.5699 101.25 92.2074 101.25C92.2074 93.2062 92.2074 85.1625 92.2074 76.875C91.5887 76.875 90.9699 76.875 90.3324 76.875ZM86.348 105C86.5704 105.411 86.7928 105.822 87.0219 106.245C87.147 106.476 87.272 106.707 87.4009 106.945C87.756 107.601 87.756 107.601 88.223 108.281C89.1785 107.963 89.3034 107.507 89.7904 106.641C89.9364 106.384 90.0823 106.128 90.2326 105.864C90.5851 105.319 90.5851 105.319 90.5668 105C89.1746 105 87.7824 105 86.348 105Z" fill="white"/>
<path d="M41.2158 75.3369C43.1614 76.272 44.3635 77.7405 45.1318 79.7173C45.478 80.8813 45.4624 82.0201 45.4533 83.2265C45.455 83.5001 45.4566 83.7736 45.4583 84.0555C45.4624 84.9534 45.4597 85.8511 45.4565 86.749C45.4572 87.3764 45.4581 88.0038 45.4593 88.6312C45.461 89.9435 45.4587 91.2557 45.4543 92.568C45.4492 94.0804 45.4508 95.5928 45.456 97.1052C45.4602 98.4092 45.4608 99.7132 45.4584 101.017C45.4569 101.794 45.4571 102.57 45.4598 103.347C45.4622 104.213 45.4585 105.078 45.4533 105.944C45.4552 106.198 45.4571 106.452 45.4591 106.714C45.4328 109.078 44.6266 111.013 42.9883 112.734C41.6022 113.827 40.1405 114.431 38.3614 114.439C38.0986 114.442 37.8358 114.444 37.565 114.446C37.2801 114.446 36.9952 114.447 36.7016 114.447C36.2474 114.45 36.2474 114.45 35.7841 114.453C34.956 114.458 34.1279 114.46 33.2998 114.461C32.7815 114.462 32.2631 114.463 31.7448 114.465C29.9337 114.471 28.1226 114.474 26.3115 114.475C24.6279 114.476 22.9443 114.483 21.2607 114.492C19.8116 114.501 18.3625 114.504 16.9134 114.504C16.0495 114.505 15.1858 114.507 14.3219 114.513C13.357 114.521 12.3924 114.518 11.4275 114.515C11.003 114.521 11.003 114.521 10.5699 114.526C8.80317 114.511 7.41847 114.241 5.95703 113.203C4.65186 111.825 4.01595 110.504 3.97949 108.589C3.97013 108.322 3.96076 108.055 3.95111 107.78C4.32842 105.171 6.13066 103.484 7.9241 101.706C8.19704 101.431 8.46973 101.156 8.7422 100.88C9.47851 100.138 10.2185 99.3987 10.9594 98.6607C11.5796 98.0421 12.198 97.4217 12.8163 96.8014C14.2763 95.3367 15.7392 93.8751 17.2041 92.4154C18.7107 90.914 20.2125 89.4081 21.7121 87.8997C23.0039 86.6005 24.2985 85.304 25.5954 84.0098C26.368 83.2387 27.1397 82.4666 27.9087 81.6919C28.6326 80.9631 29.3598 80.2378 30.0897 79.515C30.3554 79.2507 30.62 78.9853 30.8832 78.7185C33.8136 75.7522 36.9911 73.9243 41.2158 75.3369ZM32.3325 83.2557C32.0667 83.5185 31.8008 83.7812 31.535 84.0439C29.1259 86.426 26.7236 88.8149 24.3228 91.2053C22.5501 92.9702 20.7743 94.732 18.9945 96.4897C17.7402 97.7289 16.4895 98.9717 15.2414 100.217C14.4968 100.96 13.7507 101.701 13.0007 102.438C12.2963 103.131 11.5965 103.828 10.9 104.528C10.6438 104.784 10.3861 105.039 10.1267 105.291C8.53369 106.714 8.53369 106.714 7.88799 108.646C8.08706 109.547 8.25135 109.868 9.00391 110.391C9.74752 110.635 10.4328 110.652 11.2122 110.648C11.4523 110.647 11.6925 110.646 11.94 110.646C12.1893 110.644 12.4385 110.642 12.6953 110.64C12.9482 110.639 13.2011 110.638 13.4616 110.636C14.0851 110.634 14.7086 110.629 15.332 110.625C15.332 109.387 15.332 108.15 15.332 106.875C16.5695 106.875 17.807 106.875 19.082 106.875C19.082 108.112 19.082 109.35 19.082 110.625C20.3195 110.625 21.557 110.625 22.832 110.625C22.832 109.387 22.832 108.15 22.832 106.875C24.0695 106.875 25.307 106.875 26.582 106.875C26.582 108.112 26.582 109.35 26.582 110.625C27.8195 110.625 29.057 110.625 30.332 110.625C30.332 109.387 30.332 108.15 30.332 106.875C31.5695 106.875 32.807 106.875 34.082 106.875C34.082 108.112 34.082 109.35 34.082 110.625C37.3714 110.853 37.3714 110.853 40.3113 109.62C41.5621 108.275 41.6522 106.63 41.6113 104.897C41.6017 104.313 41.592 103.728 41.582 103.125C40.3445 103.125 39.107 103.125 37.832 103.125C37.832 101.887 37.832 100.65 37.832 99.375C39.0695 99.375 40.307 99.375 41.582 99.375C41.582 98.1375 41.582 96.9 41.582 95.625C40.3445 95.625 39.107 95.625 37.832 95.625C37.832 94.3875 37.832 93.15 37.832 91.875C39.0695 91.875 40.307 91.875 41.582 91.875C41.582 90.6375 41.582 89.4 41.582 88.125C40.3445 88.125 39.107 88.125 37.832 88.125C37.832 86.8875 37.832 85.65 37.832 84.375C39.0695 84.375 40.307 84.375 41.582 84.375C41.6546 82.8502 41.5822 81.5379 40.8789 80.1562C40.0156 79.314 39.3477 78.9411 38.1543 78.8672C37.9628 78.8503 37.7712 78.8333 37.5739 78.8159C35.5349 79.3215 33.8003 81.8003 32.3325 83.2557Z" fill="white"/>
<path d="M33.1442 90C33.6355 90.3175 33.6355 90.3175 34.0817 90.9375C34.2259 91.776 34.2129 92.6079 34.2062 93.457C34.2071 93.7032 34.208 93.9493 34.2089 94.2029C34.2095 94.723 34.2078 95.2431 34.2039 95.7632C34.1989 96.5596 34.2038 97.3555 34.2098 98.1518C34.2092 98.6572 34.208 99.1626 34.2062 99.6679C34.2081 99.9062 34.21 100.145 34.2119 100.39C34.1998 101.305 34.1854 101.986 33.7626 102.806C32.7516 103.327 31.7453 103.258 30.6246 103.249C30.2554 103.251 30.2554 103.251 29.8787 103.252C29.3586 103.253 28.8385 103.251 28.3184 103.247C27.522 103.242 26.7262 103.247 25.9298 103.253C25.4244 103.253 24.9191 103.251 24.4137 103.249C24.1754 103.251 23.9371 103.253 23.6916 103.255C22.0527 103.233 22.0527 103.233 21.278 102.703C20.8881 102.077 20.783 101.547 20.8217 100.81C20.9877 100.198 21.2378 99.9019 21.6659 99.4358C21.815 99.2728 21.9641 99.1099 22.1177 98.942C22.9125 98.1059 23.7186 97.2827 24.5355 96.4682C24.8034 96.1999 24.8034 96.1999 25.0768 95.9262C25.4509 95.5519 25.8254 95.1779 26.2001 94.8042C26.7754 94.2301 27.3494 93.6548 27.9234 93.0794C28.2881 92.7147 28.653 92.3502 29.0179 91.9858C29.1898 91.8134 29.3616 91.6411 29.5387 91.4635C29.6976 91.3053 29.8565 91.1472 30.0202 90.9842C30.16 90.8447 30.2997 90.7051 30.4437 90.5613C31.2056 89.863 32.1579 89.7971 33.1442 90ZM29.5617 97.3013C29.2395 97.6244 29.2395 97.6244 28.9108 97.9541C28.6954 98.1689 28.4799 98.3837 28.258 98.605C27.7268 99.0464 27.7268 99.0464 27.7535 99.375C28.6043 99.375 29.4551 99.375 30.3317 99.375C30.3317 98.5242 30.3317 97.6734 30.3317 96.7969C30.0031 96.7701 30.0031 96.7701 29.5617 97.3013Z" fill="white"/>
<path d="M78.6129 33.0469C79.4644 33.4443 80.0064 33.923 80.6637 34.5996C80.851 34.7912 81.0383 34.9827 81.2313 35.1801C81.3727 35.3269 81.5141 35.4737 81.6598 35.625C81.1683 36.7127 80.411 37.4375 79.5797 38.2764C79.3599 38.5077 79.3599 38.5077 79.1357 38.7437C78.9928 38.8883 78.8499 39.0329 78.7026 39.1818C78.573 39.3146 78.4435 39.4473 78.31 39.584C77.9098 39.8438 77.9098 39.8438 77.4265 39.7961C76.7641 39.5238 76.3519 39.0997 75.8443 38.5986C75.6543 38.4158 75.4643 38.2331 75.2685 38.0447C74.8629 37.5 74.8629 37.5 74.9052 37.051C75.1388 36.4569 75.4327 36.1469 75.8892 35.7019C76.0471 35.5463 76.2049 35.3907 76.3676 35.2304C76.5333 35.0706 76.699 34.9108 76.8697 34.7461C77.0364 34.5826 77.203 34.4192 77.3746 34.2508C77.7859 33.8479 78.1986 33.4467 78.6129 33.0469Z" fill="white"/>
<path d="M41.582 33.0469C42.6697 33.5383 43.3945 34.2957 44.2334 35.127C44.3876 35.2735 44.5419 35.42 44.7008 35.571C44.8453 35.7139 44.9899 35.8568 45.1389 36.004C45.2716 36.1336 45.4043 36.2632 45.5411 36.3967C45.8008 36.7969 45.8008 36.7969 45.7532 37.2801C45.4808 37.9426 45.0567 38.3547 44.5557 38.8623C44.3729 39.0523 44.1901 39.2424 44.0018 39.4382C43.457 39.8438 43.457 39.8438 43.008 39.8014C42.414 39.5679 42.1039 39.2739 41.6589 38.8174C41.5033 38.6596 41.3477 38.5017 41.1874 38.3391C41.0276 38.1734 40.8678 38.0077 40.7031 37.8369C40.5397 37.6703 40.3762 37.5037 40.2078 37.332C39.8049 36.9208 39.4037 36.508 39.0039 36.0938C39.4014 35.2423 39.88 34.7003 40.5566 34.043C40.7482 33.8557 40.9397 33.6683 41.1371 33.4753C41.3573 33.2633 41.3573 33.2633 41.582 33.0469Z" fill="white"/>
<path d="M82.832 52.5C84.6883 52.5 86.5445 52.5 88.457 52.5C88.457 53.7375 88.457 54.975 88.457 56.25C86.6008 56.25 84.7445 56.25 82.832 56.25C82.832 55.0125 82.832 53.775 82.832 52.5Z" fill="white"/>
<path d="M32.207 52.5C34.0633 52.5 35.9195 52.5 37.832 52.5C37.832 53.7375 37.832 54.975 37.832 56.25C35.9758 56.25 34.1195 56.25 32.207 56.25C32.207 55.0125 32.207 53.775 32.207 52.5Z" fill="white"/>
<path d="M58.457 26.25C59.6945 26.25 60.932 26.25 62.207 26.25C62.207 28.1063 62.207 29.9625 62.207 31.875C60.9695 31.875 59.732 31.875 58.457 31.875C58.457 30.0187 58.457 28.1625 58.457 26.25Z" fill="white"/>
</svg>
