<svg width="121" height="120" viewBox="0 0 121 120" fill="none" xmlns="http://www.w3.org/2000/svg">
<g clip-path="url(#clip0_173_1215)">
<path d="M20.981 -0.0314687C21.2758 -0.0330359 21.2758 -0.0330359 21.5766 -0.0346348C21.7926 -0.0345916 22.0086 -0.0345484 22.2311 -0.0345038C22.5753 -0.0357964 22.5753 -0.0357964 22.9264 -0.0371151C23.6988 -0.0397058 24.4711 -0.0406035 25.2435 -0.0414955C25.7959 -0.0429635 26.3484 -0.0445213 26.9008 -0.0461625C28.5614 -0.0506722 30.222 -0.0531543 31.8826 -0.0552393C32.6651 -0.056267 33.4477 -0.0575248 34.2302 -0.0587523C36.8327 -0.0627401 39.4352 -0.0661367 42.0376 -0.0678341C42.713 -0.0682817 43.3883 -0.0687318 44.0637 -0.0691902C44.3155 -0.0693602 44.3155 -0.0693602 44.5723 -0.0695337C47.2888 -0.0714773 50.0052 -0.0774124 52.7216 -0.0850294C55.5123 -0.0927907 58.303 -0.0970027 61.0938 -0.0977507C62.6599 -0.0982573 64.226 -0.100399 65.7921 -0.106296C67.2665 -0.111758 68.7408 -0.112743 70.2151 -0.110337C70.7553 -0.110221 71.2954 -0.111699 71.8355 -0.11492C75.7609 -0.137011 78.5897 0.12948 81.6602 2.81249C83.6722 4.92885 84.5146 7.70321 84.4973 10.5889C84.4842 11.0146 84.4681 11.4402 84.4496 11.8656C84.4417 12.1026 84.4338 12.3396 84.4257 12.5838C84.4083 13.0993 84.3897 13.6147 84.37 14.1301C84.3155 15.5674 84.2708 17.005 84.2248 18.4426C84.2149 18.7488 84.2049 19.055 84.1946 19.3705C84.1219 21.6313 84.0692 23.892 84.0277 26.1536C84.0247 26.3183 84.0216 26.483 84.0185 26.6526C83.9874 28.3557 83.9585 30.0588 83.9312 31.762C83.9171 32.6357 83.9023 33.5094 83.8872 34.3831C83.8827 34.6439 83.8827 34.6439 83.8781 34.9099C83.8346 37.3547 83.7607 39.7971 83.6631 42.2403C83.4951 46.4519 83.3874 50.6605 83.3905 54.8758C83.3905 55.0382 83.3904 55.2007 83.3904 55.368C83.3966 63.1736 83.7168 70.078 89.4667 75.9183C92.0033 78.3656 94.805 80.4651 97.832 82.2656C97.4144 83.168 96.8765 83.7375 96.1621 84.4336C95.9488 84.6427 95.7355 84.8517 95.5157 85.0671C95.2701 85.3046 95.2701 85.3046 95.0195 85.5469C93.7995 84.5277 92.6649 83.4555 91.548 82.3251C91.3728 82.1489 91.1976 81.9726 91.0172 81.791C90.6393 81.4107 90.2617 81.0301 89.8843 80.6493C89.2857 80.0455 88.6862 79.4427 88.0864 78.8402C86.3819 77.1279 84.6784 75.4146 82.9773 73.6988C81.9344 72.6471 80.8898 71.5971 79.8441 70.5482C79.4475 70.1497 79.0515 69.7505 78.6561 69.3507C78.1021 68.7904 77.546 68.2324 76.9893 67.6749C76.8285 67.5112 76.6677 67.3475 76.502 67.1789C74.7312 65.4152 72.9155 64.0114 70.3516 63.8965C68.7056 63.9389 67.3563 64.2969 66.1136 65.4126C64.8115 66.8203 64.1196 68.1236 64.082 70.0781C64.3155 73.2949 66.5671 75.2311 68.7463 77.3518C69.222 77.8152 69.695 78.2811 70.1675 78.7478C71.5097 80.0729 72.8559 81.3939 74.2052 82.7119C75.0335 83.5214 75.8582 84.3342 76.681 85.1492C76.9941 85.4579 77.3086 85.7654 77.6244 86.0714C78.0653 86.4987 78.5016 86.9302 78.9372 87.3629C79.0678 87.4874 79.1985 87.6119 79.3331 87.7401C80.1928 88.6065 80.4538 89.2524 80.4883 90.4687C80.2777 91.0611 80.2777 91.0611 79.9316 91.626C79.8011 91.8483 79.6706 92.0707 79.5361 92.2998C79.3863 92.5463 79.2364 92.7929 79.082 93.0469C74.7684 100.236 72.8034 107.984 72.612 116.335C72.6027 116.693 72.5932 117.051 72.5835 117.409C72.5606 118.272 72.5395 119.136 72.5195 120C65.723 120.027 58.9264 120.048 52.1298 120.061C51.5011 120.062 50.8723 120.063 50.2436 120.064C50.0873 120.065 49.9311 120.065 49.7701 120.065C47.2439 120.07 44.7178 120.08 42.1917 120.09C39.5973 120.101 37.0029 120.108 34.4084 120.11C32.9521 120.112 31.4959 120.115 30.0397 120.124C28.6677 120.132 27.2958 120.134 25.9237 120.133C25.4215 120.133 24.9192 120.135 24.417 120.14C20.5756 120.172 17.7838 119.751 14.8944 117.006C13.0934 115.112 12.2482 112.878 12.2537 110.298C12.2531 110.122 12.2526 109.946 12.252 109.765C12.2505 109.171 12.2506 108.578 12.2507 107.985C12.2499 107.557 12.249 107.129 12.2481 106.701C12.2457 105.521 12.2448 104.342 12.2442 103.162C12.2433 101.891 12.2411 100.621 12.239 99.3495C12.2344 96.2788 12.232 93.208 12.2299 90.1372C12.2289 88.6915 12.2276 87.2457 12.2264 85.8C12.2224 80.9945 12.219 76.1891 12.2173 71.3836C12.2169 70.1364 12.2164 68.8891 12.216 67.6418C12.2159 67.4869 12.2159 67.3319 12.2158 67.1723C12.214 62.3055 12.2089 57.4388 12.2016 52.572C12.1933 47.1045 12.1882 41.637 12.1874 36.1694C12.1869 33.2745 12.1849 30.3796 12.1789 27.4846C12.1738 25.0192 12.1719 22.5539 12.1742 20.0885C12.1752 18.8308 12.1748 17.5731 12.1702 16.3153C12.1661 15.1632 12.1663 14.0111 12.17 12.8589C12.1705 12.4428 12.1695 12.0268 12.1667 11.6107C12.1452 8.16647 12.6871 5.37853 15.0977 2.77495C16.6462 1.2955 18.778 -0.0260338 20.981 -0.0314687ZM17.4414 6.56249C16.218 8.28627 16.5039 9.75632 16.5039 11.9531C37.5414 11.9531 58.5789 11.9531 80.2539 11.9531C80.2539 9.55581 80.1459 7.40103 78.3789 5.62499C77.2838 4.79988 76.2607 4.19041 74.8623 4.18794C74.6709 4.18704 74.4795 4.18614 74.2822 4.18521C74.072 4.18541 73.8618 4.18561 73.6452 4.18582C73.4218 4.18513 73.1984 4.18443 72.9682 4.18371C72.2163 4.18167 71.4644 4.18132 70.7125 4.18097C70.1747 4.17989 69.637 4.17871 69.0992 4.17745C67.6358 4.17437 66.1724 4.17286 64.709 4.17182C63.7951 4.17113 62.8812 4.17017 61.9673 4.16912C59.4368 4.16629 56.9063 4.16385 54.3758 4.16306C54.1329 4.16298 54.1329 4.16298 53.885 4.1629C53.7227 4.16285 53.5603 4.1628 53.393 4.16275C53.0641 4.16264 52.7351 4.16254 52.4061 4.16243C52.1613 4.16236 52.1613 4.16236 51.9116 4.16228C49.268 4.16135 46.6245 4.15726 43.9809 4.1518C41.2665 4.14624 38.552 4.14338 35.8376 4.14305C34.3137 4.14281 32.7898 4.14142 31.2658 4.13723C29.8323 4.13338 28.3988 4.13286 26.9652 4.13492C26.439 4.1351 25.9129 4.13408 25.3867 4.13177C24.6683 4.1288 23.9501 4.13016 23.2317 4.13261C23.0235 4.13072 22.8154 4.12883 22.601 4.12689C20.4324 4.14416 18.8981 4.94783 17.4414 6.56249ZM16.5039 16.1719C16.5039 43.7836 16.5039 71.3953 16.5039 99.8437C32.9781 99.8437 49.4523 99.8437 66.4258 99.8437C66.4258 101.236 66.4258 102.628 66.4258 104.062C49.9516 104.062 33.4773 104.062 16.5039 104.062C15.9745 109.834 15.9745 109.834 18.1509 114.243C18.3725 114.424 18.3725 114.424 18.5986 114.609C18.7458 114.735 18.8929 114.861 19.0445 114.99C20.2731 115.772 21.5029 115.848 22.9235 115.838C23.118 115.838 23.3126 115.838 23.513 115.839C24.1629 115.84 24.8128 115.837 25.4627 115.834C25.9293 115.834 26.396 115.834 26.8626 115.835C28.1283 115.835 29.394 115.832 30.6597 115.829C31.9828 115.826 33.306 115.826 34.6292 115.825C37.1342 115.824 39.6393 115.82 42.1444 115.815C44.9965 115.81 47.8487 115.807 50.7009 115.805C56.5675 115.8 62.4341 115.792 68.3008 115.781C68.3137 115.606 68.3265 115.43 68.3398 115.249C68.399 114.446 68.4592 113.644 68.5194 112.841C68.5396 112.565 68.5598 112.289 68.5807 112.004C68.7172 110.195 68.9039 108.443 69.2969 106.67C69.3729 106.312 69.3729 106.312 69.4504 105.947C70.57 100.831 72.4875 96.2839 74.8633 91.6406C75.0979 91.172 75.3323 90.7033 75.5664 90.2344C75.3288 89.9991 75.3288 89.9992 75.0865 89.7592C73.5882 88.2752 72.0917 86.7892 70.5971 85.3015C69.8288 84.5368 69.0598 83.7728 68.2893 83.0103C67.5447 82.2733 66.8017 81.5346 66.06 80.7947C65.7779 80.5138 65.4951 80.2336 65.2118 79.9541C63.7217 78.4833 62.3398 77.0512 61.2695 75.2344C61.1342 75.0362 60.9988 74.838 60.8594 74.6338C59.5065 71.9956 59.6926 68.8357 60.5664 66.0937C61.2962 63.9887 63.0111 62.0237 64.9554 60.9439C68.112 59.5175 71.3491 59.2715 74.6289 60.4687C76.521 61.3074 77.9401 62.7063 79.4125 64.1217C79.9098 64.7141 79.9098 64.7141 80.2539 64.6875C80.2539 48.6773 80.2539 32.6672 80.2539 16.1719C59.2164 16.1719 38.1789 16.1719 16.5039 16.1719Z" fill="white"/>
<path d="M90.0977 46.4062C91.1876 47.0602 92.0145 47.8292 92.9001 48.7381C93.3246 49.1642 93.7574 49.5601 94.2139 49.9512C95.161 50.7657 96.0714 51.6164 96.9824 52.4707C97.9761 53.402 98.9713 54.3301 99.9854 55.2393C100.167 55.4033 100.349 55.5674 100.536 55.7364C100.956 56.1101 101.38 56.4787 101.807 56.8442C105.433 59.9879 108.064 64.3518 108.419 69.2178C108.481 70.73 108.467 72.243 108.459 73.7561C108.459 74.2623 108.459 74.7685 108.459 75.2747C108.459 76.6395 108.455 78.0044 108.45 79.3692C108.446 80.799 108.445 82.2288 108.445 83.6586C108.442 86.362 108.437 89.0654 108.43 91.7688C108.422 94.8483 108.418 97.9278 108.414 101.007C108.407 107.338 108.394 113.669 108.379 120C106.987 120 105.595 120 104.16 120C104.159 119.369 104.157 118.738 104.156 118.088C104.143 112.143 104.126 106.197 104.105 100.252C104.094 97.1954 104.085 94.1389 104.079 91.0823C104.074 88.4175 104.066 85.7528 104.055 83.0881C104.049 81.6777 104.045 80.2673 104.044 78.8569C104.042 77.528 104.037 76.1992 104.03 74.8703C104.028 74.3839 104.027 73.8975 104.028 73.4112C104.031 68.6713 103.301 64.7596 99.9414 61.1719C98.3775 59.6205 96.7386 58.1459 95.069 56.7096C94.3067 56.0336 93.5657 55.3353 92.8223 54.6387C91.0142 52.945 89.2058 51.2543 87.2852 49.6875C87.7826 48.7811 88.3463 48.1069 89.0869 47.3877C89.2763 47.2025 89.4658 47.0173 89.6609 46.8265C89.8051 46.6878 89.9492 46.5491 90.0977 46.4062Z" fill="white"/>
<path d="M64.1491 19.8842C64.3509 19.8819 64.5528 19.8796 64.7608 19.8773C64.9783 19.8763 65.1959 19.8753 65.42 19.8743C65.6446 19.873 65.8691 19.8716 66.1005 19.8703C66.5759 19.868 67.0513 19.8665 67.5267 19.8656C68.252 19.8633 68.9771 19.8561 69.7024 19.8487C70.1646 19.8471 70.6268 19.8459 71.0889 19.845C71.3051 19.8421 71.5212 19.8392 71.7438 19.8362C73.3416 19.8417 74.3434 20.1047 75.5082 21.2696C76.4636 22.6495 76.5768 24.0305 76.5748 25.6549C76.5758 25.8401 76.5768 26.0253 76.5778 26.216C76.5792 26.6056 76.5793 26.9952 76.5783 27.3848C76.5775 27.9753 76.583 28.5655 76.589 29.1559C76.6066 33.4427 76.6066 33.4427 75.3983 34.9585C75.2606 35.0625 75.1228 35.1664 74.9808 35.2735C74.7742 35.4366 74.7742 35.4366 74.5634 35.6031C73.8672 36.0461 73.2603 36.1248 72.457 36.1353C72.1553 36.1398 72.1553 36.1398 71.8475 36.1444C71.5223 36.147 71.5223 36.147 71.1906 36.1496C70.9666 36.1515 70.7425 36.1534 70.5117 36.1554C70.0373 36.1586 69.5629 36.1611 69.0885 36.163C68.3658 36.167 67.6432 36.1773 66.9205 36.1876C66.4591 36.19 65.9977 36.192 65.5363 36.1936C65.3214 36.1977 65.1065 36.2018 64.8851 36.206C63.2033 36.2004 62.1788 35.8308 60.9623 34.6143C60.1213 33.275 60.0257 31.8953 60.0275 30.3608C60.0265 30.1756 60.0255 29.9904 60.0245 29.7997C60.0232 29.4101 60.023 29.0205 60.0241 28.6309C60.0248 28.0404 60.0193 27.4502 60.0134 26.8598C59.9958 22.573 59.9958 22.573 61.204 21.0572C61.3418 20.9532 61.4795 20.8493 61.6215 20.7422C61.7592 20.6335 61.897 20.5247 62.039 20.4126C62.7375 19.9681 63.3432 19.8914 64.1491 19.8842ZM64.3168 24.1407C64.3168 26.693 64.3168 29.2454 64.3168 31.875C66.9465 31.875 69.5762 31.875 72.2855 31.875C72.2855 29.3227 72.2855 26.7704 72.2855 24.1407C69.6558 24.1407 67.0262 24.1407 64.3168 24.1407Z" fill="white"/>
<path d="M44.219 79.8767C44.5195 79.871 44.5195 79.871 44.8261 79.8652C45.7435 79.8548 46.6609 79.8452 47.5783 79.8398C48.0609 79.8359 48.5435 79.8295 49.026 79.8206C49.7242 79.8077 50.4222 79.8026 51.1205 79.7992C51.3342 79.7939 51.5479 79.7886 51.7681 79.7831C53.2566 79.788 54.2907 80.083 55.4098 81.0937C56.4757 82.2901 56.4883 83.5968 56.48 85.1358C56.4815 85.3631 56.4829 85.5905 56.4844 85.8247C56.4861 86.3035 56.4854 86.7824 56.4824 87.2612C56.4791 87.9902 56.4871 88.7185 56.496 89.4475C56.4963 89.9145 56.4958 90.3816 56.4947 90.8487C56.4978 91.0646 56.5009 91.2804 56.5041 91.5029C56.483 92.9801 56.2075 94.0612 55.1754 95.1562C53.8851 96.1561 52.543 96.2302 50.9621 96.21C50.7444 96.2104 50.5267 96.2107 50.3024 96.211C49.8451 96.2107 49.3877 96.208 48.9304 96.2031C48.2324 96.1963 47.5348 96.1983 46.8368 96.2013C46.3906 96.1999 45.9444 96.1979 45.4983 96.1954C45.291 96.196 45.0837 96.1967 44.8701 96.1974C43.4764 96.1763 42.4417 95.9678 41.3793 94.9878C41.2672 94.85 41.1551 94.7122 41.0397 94.5703C40.9245 94.4325 40.8094 94.2948 40.6908 94.1528C40.216 93.4723 40.1451 92.8686 40.1376 92.0642C40.1354 91.867 40.1331 91.6699 40.1308 91.4667C40.1298 91.2543 40.1288 91.0419 40.1278 90.823C40.1265 90.6037 40.1251 90.3843 40.1237 90.1583C40.1215 89.6939 40.12 89.2296 40.1191 88.7652C40.1168 88.0569 40.1095 87.3487 40.1022 86.6405C40.1006 86.189 40.0994 85.7374 40.0985 85.2859C40.0956 85.075 40.0927 84.864 40.0897 84.6466C40.0947 83.2352 40.2879 82.2028 41.2814 81.1258C41.4191 81.0137 41.5569 80.9016 41.6988 80.7861C41.8366 80.671 41.9744 80.5559 42.1163 80.4373C42.7995 79.9606 43.4113 79.8905 44.219 79.8767ZM44.3941 84.1406C44.3941 86.693 44.3941 89.2453 44.3941 91.875C46.9465 91.875 49.4988 91.875 52.1285 91.875C52.1285 89.3226 52.1285 86.7703 52.1285 84.1406C49.5762 84.1406 47.0238 84.1406 44.3941 84.1406Z" fill="white"/>
<path d="M25.4329 79.8056C25.7678 79.8051 25.7678 79.8051 26.1094 79.8046C26.5792 79.8049 27.049 79.8076 27.5188 79.8125C28.2358 79.8193 28.9524 79.8173 29.6695 79.8143C30.1274 79.8158 30.5853 79.8177 31.0433 79.8202C31.363 79.8192 31.363 79.8192 31.6892 79.8182C33.1 79.839 34.1453 80.0349 35.2217 81.0278C35.3338 81.1656 35.4459 81.3034 35.5614 81.4453C35.7341 81.652 35.7341 81.652 35.9102 81.8628C36.385 82.5433 36.456 83.147 36.4634 83.9514C36.4657 84.1486 36.4679 84.3457 36.4702 84.5489C36.4712 84.7613 36.4722 84.9737 36.4733 85.1926C36.4746 85.4119 36.4759 85.6313 36.4773 85.8573C36.4795 86.3217 36.481 86.786 36.482 87.2504C36.4842 87.9587 36.4915 88.6669 36.4989 89.3751C36.5004 89.8267 36.5016 90.2782 36.5025 90.7297C36.5054 90.9406 36.5083 91.1516 36.5113 91.369C36.5063 92.7804 36.3132 93.8128 35.3197 94.8898C35.1819 95.0019 35.0442 95.114 34.9022 95.2295C34.6956 95.4021 34.6956 95.4021 34.4847 95.5783C33.8078 96.0506 33.204 96.1245 32.4036 96.1352C32.1101 96.1397 32.1101 96.1397 31.8106 96.1443C31.5997 96.1461 31.3888 96.1478 31.1714 96.1496C30.9532 96.1515 30.7349 96.1534 30.5101 96.1553C30.0477 96.1586 29.5853 96.1611 29.1229 96.1629C28.4197 96.1669 27.7167 96.1772 27.0136 96.1876C26.5636 96.19 26.1136 96.192 25.6636 96.1935C25.4551 96.1976 25.2465 96.2017 25.0316 96.206C23.6515 96.2012 22.5364 96.0205 21.4256 95.1562C20.2163 93.8706 20.0793 92.5605 20.0981 90.8569C20.097 90.6299 20.0959 90.4029 20.0947 90.169C20.0939 89.6916 20.0961 89.2141 20.101 88.7367C20.1073 88.0097 20.101 87.2836 20.0936 86.5567C20.0943 86.0907 20.0958 85.6247 20.0981 85.1587C20.0958 84.9435 20.0934 84.7284 20.0909 84.5067C20.1177 83.0228 20.4189 81.9763 21.4256 80.8594C22.6176 79.7988 23.9004 79.7866 25.4329 79.8056ZM24.4725 84.1406C24.4725 86.693 24.4725 89.2453 24.4725 91.875C27.0249 91.875 29.5772 91.875 32.2069 91.875C32.2069 89.3226 32.2069 86.7703 32.2069 84.1406C29.6546 84.1406 27.1022 84.1406 24.4725 84.1406Z" fill="white"/>
<path d="M24.4936 39.8023C24.6798 39.7993 24.8661 39.7963 25.058 39.7932C25.3572 39.7906 25.3572 39.7906 25.6625 39.7879C25.9737 39.7851 25.9737 39.7851 26.2913 39.7822C26.7302 39.779 27.1691 39.7765 27.6081 39.7746C28.0549 39.7719 28.5018 39.7671 28.9486 39.7602C29.5965 39.7502 30.2441 39.7464 30.892 39.744C31.0895 39.7399 31.2871 39.7358 31.4907 39.7316C32.9971 39.737 34.2577 40.0764 35.3857 41.1206C36.2347 42.08 36.4497 42.8599 36.4669 44.1053C36.4714 44.3918 36.4714 44.3918 36.476 44.684C36.4777 44.8886 36.4795 45.0932 36.4812 45.304C36.4831 45.5167 36.485 45.7294 36.487 45.9486C36.4902 46.3986 36.4927 46.8485 36.4946 47.2985C36.4973 47.7567 36.5021 48.2149 36.509 48.6731C36.519 49.3373 36.5228 50.0011 36.5252 50.6653C36.5293 50.868 36.5334 51.0707 36.5376 51.2796C36.5328 52.6566 36.2652 53.6939 35.4879 54.8438C34.5669 55.7199 33.8471 56.0423 32.5872 56.0534C32.3807 56.0557 32.1741 56.0579 31.9613 56.0603C31.6273 56.0618 31.6273 56.0618 31.2865 56.0633C31.0568 56.0646 30.827 56.0659 30.5903 56.0673C30.1038 56.0695 29.6174 56.0711 29.131 56.072C28.3887 56.0742 27.6466 56.0815 26.9044 56.0889C26.4315 56.0904 25.9586 56.0917 25.4858 56.0926C25.2645 56.0955 25.0433 56.0984 24.8153 56.1013C23.4134 56.0966 22.3546 55.9463 21.2743 54.961C20.5397 54.0175 20.2272 53.3671 20.212 52.1812C20.209 51.9754 20.206 51.7696 20.2029 51.5576C20.2012 51.3356 20.1995 51.1137 20.1977 50.8851C20.1958 50.6558 20.1939 50.4266 20.1919 50.1905C20.1887 49.705 20.1862 49.2196 20.1843 48.7341C20.1803 47.9944 20.17 47.2549 20.1597 46.5152C20.1573 46.0431 20.1553 45.571 20.1537 45.0989C20.1496 44.8789 20.1455 44.6589 20.1413 44.4322C20.146 43.0101 20.3541 42.1764 21.191 41.0157C22.2724 40.1595 23.1345 39.8216 24.4936 39.8023ZM24.4723 44.0625C24.4723 46.6149 24.4723 49.1672 24.4723 51.7969C27.0246 51.7969 29.577 51.7969 32.2066 51.7969C32.2066 49.2446 32.2066 46.6922 32.2066 44.0625C29.6543 44.0625 27.102 44.0625 24.4723 44.0625Z" fill="white"/>
<path d="M44.219 19.8767C44.5195 19.8711 44.5195 19.8711 44.8261 19.8653C45.7435 19.8548 46.6609 19.8453 47.5783 19.8399C48.0609 19.836 48.5435 19.8296 49.026 19.8206C49.7242 19.8077 50.4222 19.8027 51.1205 19.7992C51.3342 19.7939 51.5479 19.7886 51.7681 19.7831C53.2566 19.788 54.2907 20.0831 55.4098 21.0938C56.4757 22.2902 56.4883 23.5968 56.48 25.1359C56.4815 25.3632 56.4829 25.5905 56.4844 25.8247C56.4861 26.3036 56.4854 26.7825 56.4824 27.2613C56.4791 27.9903 56.4871 28.7186 56.496 29.4475C56.4963 29.9146 56.4958 30.3817 56.4947 30.8487C56.4978 31.0646 56.5009 31.2805 56.5041 31.5029C56.483 32.9801 56.2075 34.0613 55.1754 35.1563C53.8851 36.1562 52.543 36.2302 50.9621 36.2101C50.7444 36.2104 50.5267 36.2108 50.3024 36.2111C49.8451 36.2107 49.3877 36.208 48.9304 36.2031C48.2324 36.1963 47.5348 36.1983 46.8368 36.2014C46.3906 36.1999 45.9444 36.1979 45.4983 36.1954C45.291 36.1961 45.0837 36.1968 44.8701 36.1975C43.4764 36.1763 42.4417 35.9678 41.3793 34.9878C41.2672 34.8501 41.1551 34.7123 41.0397 34.5704C40.9245 34.4326 40.8094 34.2948 40.6908 34.1529C40.216 33.4724 40.1451 32.8687 40.1376 32.0643C40.1354 31.8671 40.1331 31.6699 40.1308 31.4668C40.1298 31.2544 40.1288 31.0419 40.1278 30.8231C40.1265 30.6037 40.1251 30.3844 40.1237 30.1584C40.1215 29.694 40.12 29.2296 40.1191 28.7653C40.1168 28.057 40.1095 27.3488 40.1022 26.6405C40.1006 26.189 40.0994 25.7375 40.0985 25.286C40.0956 25.075 40.0927 24.864 40.0897 24.6467C40.0947 23.2353 40.2879 22.2029 41.2814 21.1258C41.4191 21.0138 41.5569 20.9017 41.6988 20.7862C41.8366 20.6711 41.9744 20.556 42.1163 20.4374C42.7995 19.9607 43.4113 19.8906 44.219 19.8767ZM44.3941 24.1407C44.3941 26.693 44.3941 29.2454 44.3941 31.875C46.9465 31.875 49.4988 31.875 52.1285 31.875C52.1285 29.3227 52.1285 26.7704 52.1285 24.1407C49.5762 24.1407 47.0238 24.1407 44.3941 24.1407Z" fill="white"/>
<path d="M25.4329 19.8056C25.7678 19.8051 25.7678 19.8051 26.1094 19.8046C26.5792 19.8049 27.049 19.8076 27.5188 19.8125C28.2358 19.8193 28.9524 19.8173 29.6695 19.8143C30.1274 19.8158 30.5853 19.8177 31.0433 19.8202C31.363 19.8192 31.363 19.8192 31.6892 19.8182C33.1 19.839 34.1453 20.0349 35.2217 21.0278C35.3338 21.1656 35.4459 21.3034 35.5614 21.4453C35.7341 21.652 35.7341 21.652 35.9102 21.8628C36.385 22.5433 36.456 23.147 36.4634 23.9514C36.4657 24.1486 36.4679 24.3457 36.4702 24.5489C36.4712 24.7613 36.4722 24.9737 36.4733 25.1926C36.4746 25.4119 36.4759 25.6313 36.4773 25.8573C36.4795 26.3217 36.481 26.786 36.482 27.2504C36.4842 27.9587 36.4915 28.6669 36.4989 29.3751C36.5004 29.8267 36.5016 30.2782 36.5025 30.7297C36.5054 30.9406 36.5083 31.1516 36.5113 31.369C36.5063 32.7804 36.3132 33.8128 35.3197 34.8898C35.1819 35.0019 35.0442 35.114 34.9022 35.2295C34.6956 35.4021 34.6956 35.4021 34.4847 35.5783C33.8078 36.0506 33.204 36.1245 32.4036 36.1352C32.1101 36.1397 32.1101 36.1397 31.8106 36.1443C31.5997 36.1461 31.3888 36.1478 31.1714 36.1496C30.9532 36.1515 30.7349 36.1534 30.5101 36.1553C30.0477 36.1586 29.5853 36.1611 29.1229 36.1629C28.4197 36.1669 27.7167 36.1772 27.0136 36.1876C26.5636 36.19 26.1136 36.192 25.6636 36.1935C25.4551 36.1976 25.2465 36.2017 25.0316 36.206C23.6515 36.2012 22.5364 36.0205 21.4256 35.1562C20.2163 33.8706 20.0793 32.5605 20.0981 30.8569C20.097 30.6299 20.0959 30.4029 20.0947 30.169C20.0939 29.6916 20.0961 29.2141 20.101 28.7367C20.1073 28.0097 20.101 27.2836 20.0936 26.5567C20.0943 26.0907 20.0958 25.6247 20.0981 25.1587C20.0958 24.9435 20.0934 24.7284 20.0909 24.5067C20.1177 23.0228 20.4189 21.9763 21.4256 20.8594C22.6176 19.7988 23.9004 19.7866 25.4329 19.8056ZM24.4725 24.1406C24.4725 26.693 24.4725 29.2453 24.4725 31.875C27.0249 31.875 29.5772 31.875 32.2069 31.875C32.2069 29.3226 32.2069 26.7703 32.2069 24.1406C29.6546 24.1406 27.1022 24.1406 24.4725 24.1406Z" fill="white"/>
<path d="M45.6155 39.7733C45.9271 39.7718 45.9271 39.7718 46.245 39.7702C46.6835 39.7689 47.122 39.7688 47.5605 39.7698C48.2282 39.7705 48.8956 39.765 49.5632 39.7591C49.9905 39.7585 50.4177 39.7584 50.845 39.7586C51.043 39.7565 51.241 39.7543 51.4451 39.7521C53.0273 39.7643 54.1276 40.0579 55.3658 41.1035C56.4426 42.3956 56.4194 43.5971 56.4178 45.2115C56.4188 45.4354 56.4198 45.6593 56.4208 45.89C56.4222 46.3626 56.4223 46.8352 56.4213 47.3078C56.4205 48.0289 56.426 48.7499 56.432 49.471C56.4325 49.931 56.4327 50.3911 56.4324 50.8511C56.4346 51.0658 56.4367 51.2804 56.439 51.5016C56.429 52.8828 56.2623 53.9317 55.2926 54.9948C54.3491 55.7295 53.6987 56.042 52.5128 56.0571C52.307 56.0601 52.1012 56.0631 51.8892 56.0662C51.6672 56.068 51.4453 56.0697 51.2167 56.0715C50.9874 56.0734 50.7582 56.0753 50.5221 56.0772C50.0366 56.0805 49.5512 56.083 49.0657 56.0848C48.326 56.0888 47.5865 56.0991 46.8468 56.1095C46.3747 56.1119 45.9026 56.1138 45.4305 56.1154C45.2105 56.1195 44.9905 56.1236 44.7638 56.1279C43.342 56.1232 42.5073 55.916 41.3473 55.0781C40.5732 54.08 40.1496 53.2744 40.1376 52.0113C40.1354 51.8196 40.1331 51.6279 40.1308 51.4303C40.1293 51.1205 40.1293 51.1205 40.1278 50.8045C40.1265 50.5908 40.1251 50.3772 40.1237 50.1572C40.1215 49.7048 40.12 49.2525 40.1191 48.8001C40.1168 48.1114 40.1096 47.4228 40.1022 46.734C40.1006 46.294 40.0994 45.8539 40.0985 45.4138C40.0956 45.2092 40.0927 45.0045 40.0897 44.7937C40.0948 43.3794 40.2732 42.2071 41.2136 41.0843C42.695 39.9513 43.8044 39.7713 45.6155 39.7733ZM44.3941 44.0625C44.3941 46.6149 44.3941 49.1672 44.3941 51.7969C46.9465 51.7969 49.4988 51.7969 52.1285 51.7969C52.1285 49.2445 52.1285 46.6922 52.1285 44.0625C49.5762 44.0625 47.0238 44.0625 44.3941 44.0625Z" fill="white"/>
<path d="M65.6267 39.7422C65.8384 39.7409 66.0501 39.7397 66.2682 39.7384C66.714 39.7369 67.1598 39.7372 67.6055 39.7393C68.2835 39.7412 68.961 39.7345 69.639 39.7271C70.074 39.7267 70.509 39.7268 70.944 39.7275C71.1445 39.7249 71.345 39.7223 71.5516 39.7195C73.0975 39.7373 74.3867 40.1065 75.529 41.1905C75.6139 41.3214 75.6988 41.4522 75.7863 41.587C75.8754 41.7172 75.9645 41.8474 76.0563 41.9816C76.5968 43.0972 76.5448 44.3165 76.5516 45.531C76.553 45.7169 76.5543 45.9027 76.5557 46.0941C76.5579 46.4865 76.5594 46.8789 76.5603 47.2714C76.5626 47.866 76.5699 48.4604 76.5773 49.0549C76.6064 53.3848 76.6064 53.3848 75.3898 54.8804C75.18 55.0363 75.18 55.0363 74.966 55.1954C74.8255 55.3041 74.685 55.4129 74.5402 55.5249C73.8776 55.972 73.4622 56.0474 72.671 56.0572C72.4597 56.0602 72.2484 56.0632 72.0307 56.0663C71.8017 56.068 71.5727 56.0697 71.3368 56.0715C71.1015 56.0734 70.8662 56.0753 70.6238 56.0772C70.1249 56.0805 69.626 56.083 69.1272 56.0848C68.3658 56.0889 67.6047 56.0992 66.8434 56.1095C66.3588 56.1119 65.8742 56.1139 65.3895 56.1155C65.1624 56.1196 64.9353 56.1237 64.7014 56.1279C63.3545 56.1236 62.5683 55.9873 61.504 55.0782C60.1614 53.6982 60.0257 52.0993 60.0355 50.2662C60.0351 50.0799 60.0346 49.8936 60.0342 49.7017C60.0339 49.3101 60.0347 48.9186 60.0367 48.527C60.0392 47.9314 60.0367 47.336 60.0337 46.7405C60.034 46.3581 60.0346 45.9757 60.0355 45.5933C60.0346 45.4172 60.0336 45.2412 60.0327 45.0598C60.0454 43.6145 60.2559 42.4148 61.0792 41.1915C62.4458 39.8552 63.8009 39.7359 65.6267 39.7422ZM64.3165 44.0625C64.3165 46.6149 64.3165 49.1672 64.3165 51.7969C66.9462 51.7969 69.5759 51.7969 72.2853 51.7969C72.2853 49.2446 72.2853 46.6922 72.2853 44.0625C69.6556 44.0625 67.0259 44.0625 64.3165 44.0625Z" fill="white"/>
<path d="M44.0356 59.9586C44.2469 59.9556 44.4581 59.9525 44.6758 59.9494C45.0175 59.9468 45.0175 59.9468 45.366 59.9442C45.7185 59.9414 45.7185 59.9414 46.0781 59.9385C46.5755 59.9352 47.073 59.9327 47.5705 59.9309C48.3297 59.9268 49.0888 59.9165 49.848 59.9062C50.3316 59.9038 50.8151 59.9018 51.2987 59.9003C51.525 59.8961 51.7514 59.892 51.9846 59.8878C53.3282 59.8921 54.1161 60.0278 55.1759 60.9375C56.021 61.874 56.3742 62.5591 56.3856 63.8167C56.3878 64.0186 56.3901 64.2205 56.3924 64.4284C56.3934 64.646 56.3944 64.8635 56.3954 65.0876C56.3967 65.3122 56.3981 65.5368 56.3994 65.7681C56.4017 66.2435 56.4032 66.7189 56.4041 67.1943C56.4064 67.9196 56.4136 68.6448 56.421 69.37C56.4226 69.8322 56.4238 70.2944 56.4247 70.7566C56.4276 70.9727 56.4305 71.1888 56.4335 71.4115C56.4286 72.8373 56.2416 73.8706 55.2501 74.968C55.1144 75.0801 54.9788 75.1922 54.839 75.3077C54.6364 75.4803 54.6364 75.4803 54.4298 75.6565C53.7081 76.1329 52.9797 76.2011 52.1293 76.2097C51.9477 76.2119 51.7661 76.2142 51.5791 76.2165C51.3847 76.2175 51.1904 76.2185 50.9901 76.2195C50.6867 76.2215 50.6867 76.2215 50.3771 76.2236C49.9492 76.2258 49.5213 76.2273 49.0934 76.2282C48.4432 76.2305 47.7932 76.2378 47.1431 76.2452C46.7262 76.2467 46.3093 76.2479 45.8925 76.2488C45.7 76.2517 45.5076 76.2546 45.3093 76.2576C43.9356 76.2524 42.5357 76.1018 41.4581 75.1534C40.2201 73.7467 40.1018 72.4777 40.0972 70.6888C40.0956 70.4764 40.0941 70.2641 40.0925 70.0452C40.0901 69.5967 40.089 69.1481 40.0891 68.6996C40.088 68.0174 40.0795 67.3357 40.0706 66.6536C40.0693 66.2165 40.0683 65.7793 40.0679 65.3421C40.0645 65.1402 40.0611 64.9382 40.0577 64.7301C40.0679 63.3571 40.3395 62.3189 41.1134 61.1719C42.0423 60.2883 42.7666 59.9743 44.0356 59.9586ZM44.3947 64.2188C44.3947 66.7711 44.3947 69.3235 44.3947 71.9532C46.947 71.9532 49.4994 71.9532 52.129 71.9532C52.129 69.4008 52.129 66.8485 52.129 64.2188C49.5767 64.2188 47.0244 64.2188 44.3947 64.2188Z" fill="white"/>
<path d="M23.8485 59.9586C24.1643 59.954 24.1643 59.954 24.4864 59.9494C24.7147 59.9477 24.943 59.946 25.1781 59.9442C25.4129 59.9423 25.6476 59.9404 25.8895 59.9385C26.3874 59.9352 26.8853 59.9327 27.3831 59.9309C28.1419 59.9268 28.9005 59.9166 29.6592 59.9062C30.143 59.9038 30.6269 59.9018 31.1108 59.9003C31.3366 59.8961 31.5625 59.892 31.7953 59.8878C33.2329 59.8924 34.0822 60.087 35.2535 60.9375C36.026 61.9337 36.4495 62.7403 36.4669 64.0006C36.4714 64.2871 36.4714 64.2871 36.476 64.5793C36.4777 64.7851 36.4795 64.9909 36.4812 65.203C36.4831 65.416 36.485 65.6291 36.487 65.8486C36.4902 66.2999 36.4927 66.7513 36.4946 67.2027C36.4986 67.8889 36.5089 68.5749 36.5192 69.2611C36.5216 69.7004 36.5236 70.1397 36.5252 70.579C36.5293 70.7824 36.5334 70.9858 36.5376 71.1954C36.5318 72.86 36.123 74.1305 34.9313 75.3223C33.5768 76.1608 32.3265 76.2441 30.7793 76.2424C30.5771 76.2434 30.3749 76.2444 30.1666 76.2455C29.7405 76.2468 29.3144 76.2469 28.8884 76.2459C28.2398 76.2452 27.5914 76.2507 26.9428 76.2566C26.5273 76.2571 26.1118 76.2573 25.6963 76.2571C25.5041 76.2592 25.312 76.2614 25.1139 76.2636C23.6965 76.2523 22.5364 76.0317 21.4346 75.066C21.3252 74.9282 21.2158 74.7904 21.1031 74.6485C20.9336 74.4418 20.9336 74.4418 20.7607 74.231C20.2925 73.5396 20.2231 72.9312 20.2158 72.1209C20.2135 71.919 20.2113 71.7171 20.2089 71.5091C20.2079 71.2916 20.2069 71.0741 20.2059 70.85C20.2046 70.6254 20.2032 70.4008 20.2019 70.1695C20.1996 69.6941 20.1981 69.2187 20.1972 68.7433C20.1949 68.018 20.1877 67.2928 20.1803 66.5676C20.1787 66.1054 20.1775 65.6432 20.1766 65.181C20.1737 64.9649 20.1708 64.7488 20.1678 64.5261C20.1726 63.1393 20.3281 62.0796 21.3164 61.0209C22.2261 60.3252 22.712 59.9727 23.8485 59.9586ZM24.4723 64.2188C24.4723 66.7711 24.4723 69.3235 24.4723 71.9532C27.0246 71.9532 29.577 71.9532 32.2066 71.9532C32.2066 69.4008 32.2066 66.8485 32.2066 64.2188C29.6543 64.2188 27.102 64.2188 24.4723 64.2188Z" fill="white"/>
<path d="M46.2695 107.812C47.6617 107.812 49.0539 107.812 50.4883 107.812C50.4883 109.205 50.4883 110.597 50.4883 112.031C49.0961 112.031 47.7039 112.031 46.2695 112.031C46.2695 110.639 46.2695 109.247 46.2695 107.812Z" fill="white"/>
</g>
<defs>
<clipPath id="clip0_173_1215">
<rect width="120" height="120" fill="white" transform="translate(0.332031)"/>
</clipPath>
</defs>
</svg>
