<svg width="121" height="120" viewBox="0 0 121 120" fill="none" xmlns="http://www.w3.org/2000/svg">
<path d="M78.6109 2.30926C78.8767 2.30758 79.1425 2.3059 79.4163 2.30417C79.7069 2.30354 79.9976 2.30291 80.297 2.30227C80.6039 2.30073 80.9108 2.29918 81.227 2.2976C82.2443 2.29268 83.2617 2.29024 84.279 2.2879C84.6301 2.28695 84.9812 2.28599 85.3323 2.28501C86.9828 2.28054 88.6333 2.27721 90.2838 2.27526C92.1843 2.27297 94.0847 2.26681 95.9852 2.25733C97.457 2.25024 98.9288 2.24678 100.401 2.24601C101.278 2.24546 102.156 2.24339 103.033 2.23746C103.86 2.23197 104.687 2.23103 105.514 2.23342C105.959 2.23359 106.403 2.22914 106.847 2.2245C109.797 2.24226 112.45 3.2141 114.668 5.19196C116.451 7.03179 117.878 9.47739 117.884 12.0974C117.885 12.3149 117.886 12.5323 117.887 12.7563C117.887 13.1135 117.887 13.1135 117.887 13.4778C117.888 13.7314 117.889 13.985 117.889 14.2462C117.892 15.0988 117.893 15.9515 117.894 16.8041C117.895 17.4143 117.897 18.0244 117.898 18.6346C117.903 20.4679 117.905 22.3012 117.908 24.1344C117.909 24.9983 117.91 25.8623 117.911 26.7262C117.915 29.5991 117.918 32.472 117.92 35.3449C117.921 36.0902 117.921 36.8355 117.922 37.5809C117.922 37.7661 117.922 37.9513 117.922 38.1422C117.924 41.1413 117.93 44.1403 117.937 47.1394C117.945 50.2204 117.949 53.3014 117.95 56.3824C117.951 58.1115 117.953 59.8406 117.959 61.5696C117.964 63.1969 117.965 64.8242 117.963 66.4514C117.963 67.0479 117.964 67.6444 117.967 68.2408C117.971 69.0569 117.97 69.8728 117.967 70.6888C117.971 71.0405 117.971 71.0405 117.974 71.3992C117.949 74.1699 116.847 76.78 115.004 78.847C113.066 80.725 110.606 82.0539 107.875 82.0657C107.476 82.0683 107.476 82.0683 107.07 82.0708C106.634 82.0718 106.634 82.0718 106.189 82.0727C105.882 82.0743 105.575 82.0758 105.259 82.0774C104.242 82.0823 103.224 82.0848 102.207 82.0871C101.856 82.088 101.505 82.089 101.154 82.09C99.5031 82.0945 97.8526 82.0978 96.2021 82.0997C94.3016 82.102 92.4012 82.1082 90.5007 82.1177C89.0289 82.1248 87.5571 82.1282 86.0853 82.129C85.2077 82.1295 84.3301 82.1316 83.4525 82.1375C82.6255 82.143 81.7985 82.144 80.9715 82.1416C80.5272 82.1414 80.0829 82.1459 79.6386 82.1505C76.6887 82.1327 74.0361 81.1609 71.8178 79.183C70.025 77.3333 68.6024 74.8827 68.6054 72.2501C68.6049 71.9168 68.6049 71.9168 68.6044 71.5769C68.6053 71.3348 68.6061 71.0927 68.607 70.8433C68.6069 70.5871 68.6069 70.3309 68.6069 70.067C68.607 69.2199 68.6089 68.3728 68.6107 67.5256C68.6111 66.9384 68.6115 66.3513 68.6117 65.7641C68.6125 64.3762 68.6144 62.9884 68.6167 61.6006C68.6196 59.8653 68.6208 58.13 68.6221 56.3947C68.6247 53.2996 68.6286 50.2045 68.6336 47.1094C68.1473 47.139 67.6612 47.1709 67.1751 47.2037C66.9044 47.2212 66.6337 47.2387 66.3548 47.2567C64.8514 47.4271 63.8903 47.9799 62.9207 49.1309C61.7412 50.6398 61.7675 52.87 61.7769 54.7045C61.776 54.911 61.7752 55.1176 61.7743 55.3303C61.7727 55.7743 61.7721 56.2183 61.7724 56.6623C61.7726 57.3671 61.7696 58.0719 61.7656 58.7768C61.7548 60.7793 61.749 62.7817 61.7474 64.7843C61.7463 66.0134 61.7406 67.2424 61.7321 68.4715C61.7298 68.9371 61.7293 69.4027 61.7305 69.8683C61.7399 73.5276 61.3799 76.4588 58.7898 79.2563C57.221 80.7551 55.5306 81.7268 53.3543 81.9274C53.1432 81.9472 52.9322 81.967 52.7148 81.9875C52.5539 82.0019 52.3931 82.0164 52.2273 82.0312C52.2282 82.1654 52.2291 82.2995 52.2299 82.4377C52.2507 85.7108 52.2661 88.9839 52.2759 92.2571C52.2807 93.84 52.2873 95.4229 52.2981 97.0058C52.3084 98.5346 52.3139 100.063 52.3163 101.592C52.318 102.174 52.3214 102.756 52.3265 103.338C52.3333 104.156 52.3342 104.974 52.3338 105.792C52.3371 106.03 52.3405 106.269 52.344 106.514C52.3281 109.305 51.2369 111.92 49.3791 114.003C47.4415 115.881 44.9813 117.21 42.25 117.222C41.8513 117.225 41.8513 117.225 41.4446 117.227C41.0087 117.228 41.0087 117.228 40.5639 117.229C40.1036 117.231 40.1036 117.231 39.6339 117.234C38.6166 117.239 37.5992 117.241 36.5819 117.243C36.2308 117.244 35.8797 117.245 35.5286 117.246C33.8781 117.251 32.2276 117.254 30.5771 117.256C28.6766 117.258 26.7762 117.264 24.8757 117.274C23.4039 117.281 21.9321 117.284 20.4603 117.285C19.5827 117.286 18.7051 117.288 17.8275 117.294C17.0005 117.299 16.1735 117.3 15.3465 117.298C14.9022 117.298 14.4579 117.302 14.0136 117.307C11.0637 117.289 8.41113 116.317 6.19278 114.339C4.4096 112.499 2.98297 110.054 2.97712 107.434C2.97607 107.216 2.97503 106.999 2.97396 106.775C2.974 106.537 2.97404 106.299 2.97409 106.053C2.97322 105.8 2.97236 105.546 2.97148 105.285C2.96889 104.432 2.96799 103.58 2.9671 102.727C2.96563 102.117 2.96407 101.507 2.96243 100.897C2.9578 99.0634 2.95544 97.2301 2.95335 95.3968C2.95232 94.5329 2.95107 93.669 2.94984 92.8051C2.94585 89.9322 2.94245 87.0593 2.94076 84.1864C2.94031 83.441 2.93986 82.6957 2.9394 81.9504C2.93923 81.6725 2.93923 81.6725 2.93905 81.3891C2.93711 78.39 2.93118 75.3909 2.92356 72.3918C2.9158 69.3108 2.91158 66.2299 2.91084 63.1488C2.91033 61.4198 2.90829 59.6907 2.9023 57.9616C2.89666 56.3343 2.89585 54.7071 2.89825 53.0798C2.89837 52.4833 2.89689 51.8869 2.89367 51.2905C2.88951 50.4744 2.89118 49.6585 2.89426 48.8424C2.89169 48.608 2.88912 48.3736 2.88647 48.132C2.91161 45.3613 4.01383 42.7512 5.85678 40.6842C7.79443 38.8062 10.2546 37.4774 12.9859 37.4655C13.2517 37.4638 13.5175 37.4622 13.7913 37.4604C14.0819 37.4598 14.3726 37.4592 14.672 37.4585C14.9789 37.457 15.2858 37.4554 15.602 37.4538C16.6193 37.4489 17.6367 37.4465 18.654 37.4442C19.0051 37.4432 19.3562 37.4422 19.7073 37.4413C21.3578 37.4368 23.0083 37.4335 24.6588 37.4315C26.5593 37.4292 28.4597 37.4231 30.3602 37.4136C31.832 37.4065 33.3038 37.403 34.7756 37.4023C35.6532 37.4017 36.5308 37.3996 37.4084 37.3937C38.2355 37.3882 39.0624 37.3873 39.8895 37.3897C40.3337 37.3898 40.778 37.3854 41.2223 37.3808C44.1722 37.3985 46.8248 38.3704 49.0431 40.3482C50.911 42.2754 52.2581 44.7379 52.2555 47.4591C52.256 47.8515 52.256 47.8515 52.2565 48.2519C52.2556 48.5378 52.2548 48.8237 52.2539 49.1183C52.254 49.4202 52.254 49.722 52.254 50.0331C52.2541 50.8601 52.2527 51.6871 52.2511 52.5141C52.2496 53.3787 52.2495 54.2433 52.2492 55.1079C52.2485 56.7447 52.2466 58.3816 52.2442 60.0184C52.2416 61.8821 52.2403 63.7457 52.2391 65.6094C52.2367 69.4427 52.2326 73.276 52.2273 77.1094C52.5654 76.9623 52.9032 76.8144 53.2408 76.6663C53.4289 76.584 53.6171 76.5018 53.8109 76.417C55.0775 75.8265 55.6574 75.0925 56.2593 73.8739C56.7365 72.5594 56.7146 71.2121 56.7137 69.8335C56.7145 69.6248 56.7153 69.4162 56.7162 69.2012C56.7179 68.7497 56.7191 68.2981 56.72 67.8466C56.7217 67.13 56.7254 66.4134 56.7297 65.6969C56.7419 63.66 56.7532 61.6231 56.7568 59.5861C56.7592 58.3383 56.7661 57.0906 56.7759 55.8429C56.7788 55.3694 56.78 54.896 56.7795 54.4225C56.7764 50.7377 57.1181 47.7807 59.7273 44.9625C61.7726 43.0085 64.0236 42.1408 66.8172 42.1729C66.9918 42.1739 67.1664 42.175 67.3464 42.1761C67.7754 42.1788 68.2045 42.183 68.6336 42.1875C68.6327 42.0292 68.6318 41.8709 68.631 41.7079C68.6102 37.848 68.5947 33.9881 68.585 30.1282C68.5802 28.2615 68.5736 26.3948 68.5629 24.5282C68.5535 22.9003 68.5475 21.2724 68.5454 19.6445C68.5442 18.7833 68.5413 17.9222 68.5345 17.0611C68.5268 16.0973 68.5267 15.1336 68.5272 14.1698C68.5238 13.8876 68.5204 13.6054 68.5169 13.3146C68.5312 10.3805 69.5161 7.73271 71.4818 5.52795C73.4194 3.64997 75.8796 2.32111 78.6109 2.30926ZM74.7685 9.38507C73.1556 11.5916 73.3211 13.6681 73.3211 16.4062C86.3922 16.4062 99.4633 16.4062 112.93 16.4062C113.133 12.038 113.133 12.038 111.055 8.67188C108.999 7.02633 106.652 6.96064 104.112 6.9706C103.85 6.96977 103.589 6.96895 103.319 6.96811C102.46 6.96606 101.602 6.96741 100.743 6.96899C100.142 6.96868 99.5418 6.96822 98.9412 6.96764C97.6851 6.96695 96.429 6.9679 95.1729 6.97014C93.7262 6.97269 92.2796 6.97186 90.833 6.96928C89.4342 6.96689 88.0353 6.96716 86.6365 6.96852C86.0445 6.96884 85.4524 6.96846 84.8604 6.96736C84.0315 6.96616 83.2027 6.968 82.3738 6.9706C82.0106 6.96917 82.0106 6.96917 81.6401 6.96772C78.9621 6.98321 76.6298 7.3006 74.7685 9.38507ZM73.3211 21.0938C73.3211 28.0547 73.3211 35.0156 73.3211 42.1875C79.0445 42.1875 84.768 42.1875 90.6648 42.1875C90.4328 41.8008 90.2008 41.4141 89.9617 41.0156C89.631 40.0234 89.7638 39.3844 90.1961 38.4375C90.7671 37.7786 91.1421 37.733 92.0125 37.5879C92.868 37.6219 93.2547 37.8655 93.8765 38.4421C94.0388 38.591 94.2011 38.74 94.3684 38.8934C94.5384 39.0523 94.7084 39.2113 94.8836 39.375C95.0566 39.5303 95.2297 39.6856 95.408 39.8456C95.9445 40.33 96.4691 40.8252 96.993 41.3232C97.1745 41.4862 97.3561 41.6492 97.5432 41.8172C98.4506 42.6902 98.988 43.2955 99.0401 44.5871C98.9518 45.5845 98.7216 46.1365 97.9891 46.8457C97.7987 47.036 97.6084 47.2264 97.4123 47.4225C97.1966 47.6285 96.9808 47.8346 96.7586 48.0469C96.5105 48.2981 96.2633 48.5502 96.017 48.8031C93.4361 51.4395 93.4361 51.4395 91.8367 51.5625C90.9285 51.3428 90.9285 51.3428 90.1961 51.0938C90.0962 50.7834 90.0053 50.4703 89.9178 50.1562C89.8661 49.9822 89.8144 49.8082 89.7612 49.6289C89.7273 48.9844 89.7273 48.9844 90.4305 47.1094C84.7844 47.1094 79.1383 47.1094 73.3211 47.1094C73.3211 52.4461 73.3211 57.7828 73.3211 63.2812C86.3922 63.2812 99.4633 63.2812 112.93 63.2812C112.93 49.3594 112.93 35.4375 112.93 21.0938C99.8594 21.0938 86.7883 21.0938 73.3211 21.0938ZM9.14352 44.5413C7.53063 46.7478 7.69608 48.8243 7.69608 51.5625C20.7672 51.5625 33.8383 51.5625 47.3055 51.5625C47.5084 47.1943 47.5084 47.1943 45.4305 43.8281C43.3735 42.1826 41.0271 42.1169 38.4871 42.1268C38.2253 42.126 37.9636 42.1252 37.6939 42.1244C36.8352 42.1223 35.9766 42.1237 35.118 42.1252C34.5174 42.1249 33.9168 42.1245 33.3162 42.1239C32.0601 42.1232 30.804 42.1241 29.5479 42.1264C28.1012 42.1289 26.6546 42.1281 25.208 42.1255C23.8092 42.1231 22.4103 42.1234 21.0115 42.1248C20.4195 42.1251 19.8274 42.1247 19.2354 42.1236C18.4065 42.1224 17.5777 42.1242 16.7488 42.1268C16.3856 42.1254 16.3856 42.1254 16.0151 42.124C13.3371 42.1395 11.0048 42.4569 9.14352 44.5413ZM7.69608 56.25C7.69608 70.1719 7.69608 84.0937 7.69608 98.4375C20.7672 98.4375 33.8383 98.4375 47.3055 98.4375C47.3055 93.0234 47.3055 87.6094 47.3055 82.0312C43.4383 82.0312 39.5711 82.0312 35.5867 82.0312C35.2773 82.8047 34.968 83.5781 34.6492 84.375C33.4764 86.3909 31.4784 88.0806 29.2128 88.7256C26.132 89.2062 23.2428 88.9986 20.6453 87.1582C18.8743 85.6729 17.4728 83.6744 17.2643 81.3348C17.0765 78.3019 17.3867 75.7809 19.4038 73.3759C21.4584 71.2977 23.554 70.4889 26.4168 70.4443C29.1311 70.4643 31.2817 71.1822 33.243 73.125C34.3836 74.4853 34.9511 75.6489 35.5867 77.3438C39.4539 77.3438 43.3211 77.3438 47.3055 77.3438C47.3055 70.3828 47.3055 63.4219 47.3055 56.25C34.2344 56.25 21.1633 56.25 7.69608 56.25ZM73.3211 67.9688C73.2447 72.0849 73.2447 72.0849 75.1961 75.4688C76.4734 76.5063 77.5608 77.1363 79.2267 77.1439C79.4791 77.1455 79.7314 77.1472 79.9913 77.1489C80.4067 77.1499 80.4067 77.1499 80.8304 77.1509C81.2678 77.1532 81.2678 77.1532 81.714 77.1555C82.6816 77.1602 83.6492 77.1629 84.6169 77.1652C84.9505 77.1662 85.2841 77.1671 85.6177 77.1681C87.1859 77.1726 88.754 77.1759 90.3222 77.1779C92.1293 77.1802 93.9364 77.1863 95.7435 77.1958C97.142 77.2029 98.5405 77.2063 99.939 77.2071C100.773 77.2077 101.608 77.2097 102.442 77.2157C103.375 77.2222 104.307 77.2212 105.239 77.2195C105.513 77.2225 105.787 77.2255 106.07 77.2286C108.023 77.2162 109.513 76.8995 111.012 75.6006C111.181 75.4024 111.35 75.2042 111.524 75C111.693 74.8115 111.863 74.6229 112.037 74.4287C113.466 72.4083 112.93 70.5339 112.93 67.9688C99.8594 67.9688 86.7883 67.9688 73.3211 67.9688ZM22.4617 77.2412C21.7806 78.4732 21.7416 79.7274 21.993 81.0938C22.5102 82.3195 23.322 83.4186 24.5454 84.0005C25.8643 84.3742 27.1952 84.4165 28.4694 83.8815C29.5982 83.1867 30.5299 82.3971 30.8992 81.0938C31.1318 79.6198 31.093 78.3999 30.2986 77.1094C29.4025 75.9638 28.6441 75.348 27.1886 75.1392C25.1009 75.0341 23.7246 75.5561 22.4617 77.2412ZM7.69608 103.125C7.61974 107.241 7.61974 107.241 9.57108 110.625C10.8484 111.663 11.9358 112.293 13.6018 112.3C13.8541 112.302 14.1064 112.303 14.3663 112.305C14.7817 112.306 14.7816 112.306 15.2053 112.307C15.6428 112.309 15.6428 112.309 16.089 112.312C17.0566 112.316 18.0242 112.319 18.9919 112.321C19.3255 112.322 19.6591 112.323 19.9927 112.324C21.5609 112.329 23.129 112.332 24.6972 112.334C26.5043 112.336 28.3114 112.343 30.1185 112.352C31.517 112.359 32.9155 112.363 34.314 112.363C35.1484 112.364 35.9828 112.366 36.8171 112.372C37.7495 112.378 38.6818 112.377 39.6142 112.376C39.8882 112.379 40.1623 112.382 40.4446 112.385C42.3984 112.372 43.8878 112.056 45.3865 110.757C45.5557 110.559 45.7249 110.36 45.8992 110.156C46.0684 109.968 46.2376 109.779 46.4119 109.585C47.8409 107.565 47.3055 105.69 47.3055 103.125C34.2344 103.125 21.1633 103.125 7.69608 103.125Z" fill="white"/>
<path d="M111.056 91.4062C112.138 91.9187 112.633 92.46 113.166 93.5156C113.36 94.816 113.335 95.9699 112.77 97.1631C112.043 97.9294 111.435 98.3809 110.376 98.5391C108.935 98.541 107.936 98.5421 106.837 97.5C105.926 96.2247 105.949 95.0347 106.134 93.5156C107.156 91.358 108.865 91.139 111.056 91.4062Z" fill="white"/>
<path d="M43.0875 11.7187C44.1693 12.2312 44.6645 12.7725 45.1969 13.8281C45.3911 15.1285 45.3666 16.2824 44.8014 17.4756C44.0744 18.2419 43.4664 18.6934 42.4073 18.8516C40.9662 18.8535 39.9672 18.8546 38.8687 17.8125C37.9572 16.5372 37.9804 15.3472 38.1656 13.8281C39.1877 11.6705 40.8964 11.4515 43.0875 11.7187Z" fill="white"/>
<path d="M90.8991 110.156C91.6315 110.596 91.6315 110.596 92.0709 111.328C92.3027 112.506 92.253 113.368 91.6315 114.404C90.5956 115.026 89.7333 115.075 88.5553 114.844C87.8229 114.404 87.8229 114.404 87.3834 113.672C87.1517 112.494 87.2014 111.632 87.8229 110.596C88.8588 109.974 89.721 109.924 90.8991 110.156Z" fill="white"/>
<path d="M65.1178 91.4062C65.8502 91.8457 65.8502 91.8457 66.2897 92.5781C66.5214 93.7561 66.4718 94.6184 65.8502 95.6543C64.8143 96.2758 63.9521 96.3255 62.7741 96.0937C62.0416 95.6543 62.0416 95.6543 61.6022 94.9219C61.3705 93.7438 61.4201 92.8816 62.0416 91.8457C63.0776 91.2241 63.9398 91.1745 65.1178 91.4062Z" fill="white"/>
<path d="M60.4303 23.4375C61.1627 23.8769 61.1627 23.8769 61.6022 24.6094C61.8339 25.7874 61.7843 26.6496 61.1627 27.6855C60.1268 28.3071 59.2646 28.3567 58.0866 28.125C57.3541 27.6855 57.3541 27.6855 56.9147 26.9531C56.683 25.7751 56.7326 24.9128 57.3541 23.8769C58.3901 23.2554 59.2523 23.2057 60.4303 23.4375Z" fill="white"/>
<path d="M13.5553 14.0625C14.2877 14.5019 14.2877 14.5019 14.7272 15.2344C14.9589 16.4124 14.9093 17.2746 14.2877 18.3105C13.2518 18.9321 12.3896 18.9817 11.2116 18.75C10.4791 18.3105 10.4791 18.3105 10.0397 17.5781C9.80795 16.4001 9.8576 15.5378 10.4791 14.5019C11.5151 13.8804 12.3773 13.8307 13.5553 14.0625Z" fill="white"/>
</svg>
