<svg width="120" height="120" viewBox="0 0 120 120" fill="none" xmlns="http://www.w3.org/2000/svg">
<g clip-path="url(#clip0_172_1166)">
<path d="M65.8687 0.243504C67.3715 1.05743 68.5203 2.32913 69.0538 3.97245C69.3884 5.84127 69.2368 7.52814 68.2024 9.1406C67.3403 10.2373 66.3307 11.2148 64.9211 11.4843C62.0889 11.6561 62.0889 11.6561 61.1859 11.3107C60.6721 11.191 60.6721 11.191 60.2248 11.5866C60.0562 11.7578 59.8875 11.9291 59.7138 12.1055C59.4253 12.3941 59.4253 12.3941 59.131 12.6885C58.9257 12.8999 58.7203 13.1113 58.5087 13.3291C58.1908 13.6496 58.1908 13.6496 57.8664 13.9765C57.3028 14.5446 56.7428 15.1161 56.1834 15.6884C55.6121 16.2717 55.0374 16.8518 54.463 17.4321C53.3364 18.5713 52.2135 19.7141 51.093 20.8593C51.2476 20.8066 51.4023 20.7539 51.5617 20.6995C57.3385 18.7358 57.3385 18.7358 59.7209 18.208C59.9699 18.1522 60.2188 18.0964 60.4753 18.039C74.5218 15.0358 89.5799 17.5614 101.742 25.2585C102.927 26.0272 104.087 26.8307 105.234 27.6562C106.264 26.7937 107.235 25.9091 108.168 24.9417C108.805 24.3318 109.448 24.2332 110.322 24.2482C111.475 24.5208 112.237 25.4886 113.041 26.3086C113.241 26.507 113.442 26.7054 113.648 26.9099C114.069 27.3301 114.488 27.7526 114.905 28.1773C115.544 28.8259 116.192 29.464 116.842 30.1016C117.25 30.5115 117.658 30.9219 118.066 31.333C118.26 31.5232 118.454 31.7135 118.654 31.9095C120.117 33.422 120.117 33.422 120.223 34.4723C120.082 35.6937 119.197 36.4423 118.359 37.2656C118.084 37.5571 117.809 37.8491 117.535 38.1417C116.773 38.9324 116.004 39.7164 115.234 40.4984C114.904 40.8347 114.575 41.1727 114.249 41.5123C113.772 42.0072 113.291 42.4965 112.808 42.9849C112.664 43.1367 112.52 43.2886 112.371 43.445C111.563 44.2499 110.865 44.8146 109.693 44.8699C108.68 44.6474 108.039 43.8467 107.343 43.125C107.044 42.8413 106.745 42.5584 106.445 42.2763C105.629 41.4846 104.819 40.6867 104.01 39.887C103.662 39.5442 103.313 39.2028 102.962 38.863C102.451 38.3681 101.946 37.8687 101.441 37.3681C101.284 37.2177 101.127 37.0673 100.965 36.9123C100.037 35.9805 99.6152 35.3606 99.6086 33.9843C100.086 32.742 101.241 31.8428 102.187 30.9375C94.5459 24.6409 83.8572 21.3678 74.0617 21.0937C73.7844 21.0844 73.507 21.075 73.2213 21.0653C68.4874 20.9837 63.8901 21.6197 59.2961 22.7343C59.1169 22.7775 58.9376 22.8206 58.753 22.865C53.3309 24.2112 47.8533 26.6752 43.3586 30C43.4698 30.2803 43.581 30.5607 43.6955 30.8496C44.7091 33.5891 44.4533 36.2274 43.3586 38.9062C42.0568 41.4482 39.8934 43.1192 37.198 44.0039C34.6584 44.6489 32.0843 44.3656 29.7649 43.125C29.7096 43.2815 29.6543 43.438 29.5973 43.5992C29.2916 44.3073 28.93 44.9328 28.5288 45.5895C21.4828 57.1242 19.3649 71.0064 22.4735 84.1451C24.1151 90.691 26.92 96.6135 30.7024 102.187C30.8162 102.089 30.93 101.991 31.0473 101.889C31.3326 101.644 31.619 101.399 31.9063 101.156C32.2538 100.858 32.5929 100.55 32.9289 100.239C33.7308 99.6979 34.1823 99.5599 35.1555 99.6093C35.5862 99.9112 35.5862 99.9112 36.0335 100.323C36.1976 100.474 36.3617 100.624 36.5308 100.778C36.6957 100.934 36.8606 101.09 37.0305 101.25C37.1802 101.391 37.33 101.531 37.4842 101.676C38.4561 102.601 39.4096 103.545 40.3634 104.488C40.7113 104.831 41.0607 105.172 41.4114 105.512C41.922 106.007 42.4278 106.506 42.9329 107.007C43.0898 107.157 43.2468 107.308 43.4085 107.463C44.119 108.176 44.4928 108.626 44.7915 109.606C44.7332 111.325 43.3698 112.32 42.2151 113.463C42.0351 113.643 41.8552 113.823 41.6697 114.008C41.2903 114.387 40.9102 114.765 40.5297 115.143C39.9456 115.723 39.3634 116.304 38.7814 116.886C38.4124 117.254 38.0433 117.622 37.6741 117.989C37.4993 118.164 37.3245 118.339 37.1444 118.518C36.9824 118.679 36.8205 118.839 36.6537 119.005C36.4398 119.217 36.4398 119.217 36.2217 119.434C35.572 120.027 34.9339 120.154 34.0555 120.136C33.3443 119.957 33.0166 119.641 32.4821 119.139C32.2774 118.948 32.0728 118.756 31.8619 118.559C30.6668 117.408 29.4875 116.242 28.3164 115.066C27.8849 114.634 27.4521 114.202 27.0192 113.771C26.7429 113.494 26.4667 113.218 26.1906 112.941C26.062 112.813 25.9333 112.685 25.8008 112.553C24.4207 111.164 24.4207 111.164 24.2424 109.995C24.2762 108.678 25.1157 107.983 26.0149 107.109C26.1714 106.95 26.3279 106.791 26.4891 106.627C26.8739 106.237 27.2625 105.851 27.6555 105.469C27.1163 104.499 26.5561 103.573 25.9214 102.661C23.4458 99.0893 21.6609 95.2363 20.1555 91.1718C20.0476 90.8872 19.9398 90.6026 19.8286 90.3094C18.4311 86.3963 17.4979 82.1826 17.1086 78.0468C17.0829 77.819 17.0572 77.5912 17.0308 77.3565C16.1919 68.7885 17.709 60.5335 20.4122 52.4316C20.496 52.1804 20.5798 51.9293 20.6661 51.6705C20.7296 51.4802 20.7932 51.2898 20.8586 51.0937C19.5982 52.327 18.341 53.5634 17.0877 54.8039C16.5057 55.3798 15.9227 55.9545 15.3371 56.5268C14.6643 57.1845 13.9963 57.8468 13.3284 58.5095C13.117 58.7149 12.9056 58.9202 12.6878 59.1318C12.4954 59.3241 12.303 59.5164 12.1047 59.7146C11.9335 59.8832 11.7623 60.0518 11.5859 60.2255C11.1904 60.673 11.1904 60.673 11.3089 61.1882C11.3666 61.3375 11.4242 61.4868 11.4836 61.6406C11.6689 63.742 11.6273 65.541 10.3117 67.2656C8.9792 68.579 7.63602 69.1497 5.77071 69.2138C4.11729 69.1779 2.73288 68.7827 1.49611 67.6272C0.181089 66.164 -0.17965 64.7509 -0.155898 62.8032C-0.0594888 61.0678 0.562296 59.8566 1.81472 58.677C3.4238 57.4335 5.05204 57.3024 7.03048 57.4218C7.23938 57.4941 7.44828 57.5663 7.66351 57.6407C8.54689 57.6584 8.64075 57.5777 9.27317 57.0171C9.58966 56.7053 9.90163 56.389 10.21 56.0692C10.4675 55.8121 10.4675 55.8121 10.7302 55.5498C11.2972 54.9816 11.8581 54.4079 12.4193 53.8339C12.811 53.4391 13.2031 53.0447 13.5956 52.6506C14.628 51.6119 15.6554 50.5684 16.6818 49.5238C17.7299 48.4589 18.7827 47.3987 19.835 46.338C21.8996 44.2559 23.959 42.1688 26.0149 40.0781C25.7094 39.1349 25.7094 39.1349 25.3465 38.2132C24.4657 36.1002 24.4963 33.3333 25.2238 31.1718C26.4546 28.3316 28.2106 26.5247 31.0503 25.2997C33.3481 24.4362 36.0253 24.52 38.2756 25.459C38.6295 25.6303 38.6295 25.6303 38.9906 25.805C39.5849 26.0813 39.5849 26.0813 40.0682 25.8379C40.5484 25.5454 40.9103 25.2447 41.31 24.8504C41.4555 24.7078 41.6011 24.5653 41.7511 24.4184C41.9081 24.2623 42.0651 24.1062 42.2268 23.9454C42.3942 23.7807 42.5616 23.616 42.7341 23.4463C43.2869 22.9015 43.8379 22.3549 44.3886 21.8078C44.5768 21.6213 44.765 21.4347 44.9589 21.2425C45.9538 20.2559 46.9473 19.268 47.9396 18.2788C48.9665 17.2559 49.9981 16.2379 51.0309 15.221C51.8232 14.4392 52.6119 13.6538 53.3995 12.8673C53.7784 12.4903 54.1587 12.1146 54.5403 11.7404C55.0729 11.2175 55.6002 10.6896 56.1264 10.1603C56.2857 10.0061 56.4451 9.85188 56.6093 9.69302C57.0058 9.28832 57.3554 8.91806 57.6555 8.43747C57.6762 7.67592 57.6762 7.67592 57.4211 7.03122C57.232 4.9075 57.652 3.49526 58.7541 1.69919C60.7013 -0.195405 63.2992 -0.633889 65.8687 0.243504ZM61.7424 4.46775C61.3032 5.36516 61.3751 5.84373 61.6399 6.79685C62.0121 7.35529 62.2705 7.47326 62.8996 7.70505C63.7068 7.74349 64.0497 7.51331 64.6867 7.03122C65.239 6.35482 65.239 6.35482 65.1115 5.50779C64.9691 4.72646 64.9691 4.72646 64.6721 4.23337C63.6139 3.65309 62.6411 3.74443 61.7424 4.46775ZM29.6706 31.355C28.691 32.7153 28.6151 34.2299 28.8274 35.8593C29.4069 37.6626 30.4206 38.9655 32.0958 39.8501C33.5301 40.4604 34.8637 40.5326 36.342 40.0342C38.2267 39.2323 39.2568 38.2235 40.0774 36.3281C40.5596 34.7186 40.4029 33.4003 39.6681 31.9153C38.8577 30.5116 37.9732 29.5774 36.4418 28.9828C33.623 28.235 31.4639 29.1588 29.6706 31.355ZM109.182 29.7487C108.978 29.9549 108.774 30.1611 108.564 30.3735C108.456 30.4828 108.347 30.592 108.235 30.7046C107.888 31.0546 107.542 31.4061 107.196 31.7578C106.962 31.995 106.727 32.2321 106.492 32.4692C105.915 33.0511 105.339 33.6345 104.765 34.2187C105.12 35.0549 105.61 35.5868 106.254 36.2219C106.453 36.4198 106.652 36.6177 106.858 36.8216C107.066 37.0261 107.275 37.2306 107.489 37.4414C107.7 37.6495 107.91 37.8577 108.127 38.0722C108.646 38.5856 109.166 39.098 109.687 39.6093C110.523 39.2546 111.055 38.7644 111.69 38.1207C111.888 37.9213 112.086 37.7219 112.29 37.5165C112.494 37.308 112.699 37.0995 112.909 36.8847C113.118 36.6745 113.326 36.4642 113.54 36.2475C114.054 35.7286 114.566 35.2085 115.077 34.6875C114.723 33.8582 114.239 33.3202 113.605 32.6843C113.309 32.3875 113.309 32.3875 113.007 32.0846C112.801 31.8801 112.595 31.6756 112.382 31.4648C112.176 31.2567 111.969 31.0485 111.757 30.834C111.461 30.539 111.461 30.539 111.159 30.238C110.978 30.0574 110.797 29.8768 110.61 29.6908C109.954 29.1219 109.828 29.1707 109.182 29.7487ZM3.9836 62.5781C3.96817 63.4732 4.01742 63.9796 4.59884 64.6728C5.374 65.0196 5.95705 65.0134 6.7961 64.9218C7.28886 64.7221 7.28886 64.7221 7.49923 64.2187C7.59128 63.4938 7.64824 63.0359 7.49923 62.3437C6.9392 61.7037 6.56797 61.4604 5.74141 61.2744C4.85294 61.4743 4.51167 61.8481 3.9836 62.5781ZM33.9524 105.005C33.7376 105.221 33.5228 105.437 33.3015 105.659C33.1874 105.774 33.0733 105.888 32.9557 106.006C32.5898 106.373 32.2247 106.741 31.8596 107.109C31.6123 107.358 31.3649 107.606 31.1175 107.855C30.5098 108.465 29.9028 109.076 29.2961 109.687C29.6509 110.524 30.1411 111.056 30.7847 111.691C30.9842 111.889 31.1836 112.086 31.389 112.29C31.5975 112.495 31.8059 112.699 32.0207 112.91C32.231 113.118 32.4413 113.326 32.6579 113.541C33.1769 114.054 33.6969 114.567 34.218 115.078C35.0776 114.717 35.6209 114.198 36.2724 113.538C36.4809 113.328 36.6894 113.118 36.9041 112.902C37.1198 112.682 37.3356 112.463 37.5578 112.236C37.7793 112.012 38.0008 111.789 38.2225 111.565C38.7637 111.018 39.3038 110.471 39.843 109.922C38.7831 108.652 37.6611 107.47 36.4885 106.304C36.3179 106.132 36.1474 105.961 35.9717 105.784C35.8096 105.622 35.6475 105.461 35.4805 105.294C35.3336 105.147 35.1866 105.001 35.0353 104.849C34.4854 104.347 34.5249 104.463 33.9524 105.005Z" fill="white"/>
<path d="M50.4855 40.4847C51.0971 40.7106 51.6998 40.9523 52.3025 41.201C52.5312 41.293 52.7599 41.3849 52.9956 41.4796C53.7509 41.7839 54.5046 42.0919 55.2584 42.3999C55.7934 42.6162 56.3285 42.8323 56.8637 43.0481C58.2779 43.6192 59.6909 44.1933 61.1035 44.7682C62.5023 45.3369 63.902 45.9032 65.3017 46.4694C65.8533 46.6926 66.4049 46.9158 66.9565 47.1389C67.2283 47.2489 67.5002 47.3589 67.7802 47.4722C68.6041 47.8056 69.4279 48.1394 70.2517 48.4732C75.1818 50.4702 80.1266 52.4291 85.0771 54.375C85.7352 54.6338 86.3932 54.8926 87.0512 55.1515C87.2045 55.2118 87.3578 55.2721 87.5157 55.3342C88.7756 55.8301 90.0347 56.3281 91.2934 56.8271C91.843 57.0444 92.3929 57.2608 92.9432 57.4764C93.7666 57.7993 94.5887 58.1252 95.4107 58.4519C95.6562 58.5473 95.9017 58.6428 96.1547 58.7411C96.3801 58.8314 96.6056 58.9217 96.8379 59.0147C97.0345 59.0922 97.231 59.1697 97.4335 59.2496C98.3727 59.7448 98.9441 60.3822 99.323 61.3679C99.3922 61.5443 99.4615 61.7207 99.5328 61.9025C99.6052 62.0943 99.6775 62.2862 99.7521 62.4838C99.8315 62.6882 99.9108 62.8925 99.9926 63.103C100.166 63.5496 100.338 63.9967 100.508 64.4442C100.787 65.1746 101.069 65.9039 101.352 66.6329C101.961 68.2049 102.564 69.7786 103.168 71.3526C103.477 72.1575 103.786 72.9624 104.095 73.7674C104.292 74.279 104.488 74.7907 104.684 75.3026C105.076 76.3269 105.469 77.3509 105.872 78.3711C105.979 78.6439 106.087 78.9167 106.197 79.1977C106.285 79.4183 106.373 79.6388 106.464 79.8661C106.64 80.3906 106.64 80.3906 106.64 81.0938C106.819 81.1453 106.998 81.1968 107.182 81.2499C108.374 81.6814 109.486 82.247 110.619 82.814C110.865 82.9366 111.112 83.0591 111.365 83.1853C111.884 83.4439 112.402 83.703 112.92 83.9625C113.714 84.3598 114.509 84.7545 115.304 85.1491C115.808 85.4009 116.312 85.6528 116.816 85.9049C117.054 86.0228 117.292 86.1407 117.537 86.2623C117.758 86.3733 117.978 86.4844 118.206 86.5988C118.4 86.6957 118.594 86.7927 118.794 86.8926C119.298 87.1889 119.62 87.4474 119.999 87.8906C120.211 88.7931 120.261 89.1372 119.999 90C119.21 91.1126 118.249 92.039 117.279 92.9934C116.986 93.2888 116.694 93.5847 116.402 93.881C115.61 94.6829 114.811 95.478 114.011 96.2718C113.173 97.1038 112.341 97.9409 111.508 98.7773C110.108 100.181 108.704 101.58 107.297 102.977C105.672 104.591 104.054 106.212 102.44 107.838C101.053 109.234 99.6627 110.626 98.2685 112.015C97.4361 112.844 96.6052 113.674 95.7779 114.509C94.9999 115.293 94.2168 116.072 93.4296 116.847C93.1418 117.132 92.8558 117.418 92.5717 117.707C90.1556 120.159 90.1556 120.159 88.7894 120.196C87.8896 120 87.8896 120 87.3749 119.58C86.7438 118.457 86.1509 117.321 85.5788 116.167C85.4501 115.909 85.3214 115.652 85.1888 115.387C84.9178 114.844 84.6476 114.302 84.378 113.759C83.9637 112.925 83.5469 112.092 83.1298 111.259C82.8669 110.732 82.6041 110.205 82.3415 109.677C82.2163 109.427 82.0911 109.177 81.9621 108.919C81.8478 108.688 81.7335 108.458 81.6157 108.22C81.5145 108.016 81.4132 107.813 81.3089 107.603C81.0928 107.109 81.0928 107.109 81.0928 106.641C80.8363 106.595 80.8363 106.595 80.5747 106.548C79.9637 106.416 79.4181 106.241 78.8348 106.019C78.625 105.94 78.4152 105.86 78.199 105.779C77.9732 105.692 77.7475 105.606 77.5149 105.516C77.2771 105.426 77.0393 105.336 76.7943 105.243C76.0197 104.948 75.2456 104.652 74.4717 104.355C74.2093 104.255 73.9469 104.155 73.6766 104.052C72.094 103.447 70.5121 102.84 68.9307 102.233C68.2568 101.974 67.5826 101.716 66.9083 101.459C65.9889 101.109 65.0704 100.756 64.1529 100.4C63.8273 100.274 63.5015 100.149 63.1753 100.025C62.729 99.8551 62.2841 99.6815 61.8392 99.5078C61.5947 99.4134 61.3501 99.319 61.0982 99.2217C59.631 98.4876 59.2112 97.3655 58.6475 95.9107C58.5639 95.7008 58.4803 95.491 58.3942 95.2748C58.1151 94.5721 57.8394 93.8681 57.5637 93.1641C57.3647 92.6615 57.1656 92.1589 56.9661 91.6565C56.4265 90.295 55.8898 88.9325 55.3536 87.5697C54.7941 86.1488 54.2321 84.7288 53.6701 83.3088C53.557 83.0228 53.4438 82.7369 53.3273 82.4423C53.1544 82.0057 52.9816 81.569 52.8088 81.1323C52.4579 80.2458 52.1074 79.3591 51.757 78.4724C50.1966 74.5235 48.6225 70.5804 47.0347 66.6424C46.7027 65.8189 46.371 64.9951 46.0394 64.1714C44.7766 61.034 44.7766 61.034 43.5091 57.8985C43.0188 56.6884 42.5308 55.4774 42.0444 54.2657C41.866 53.8226 41.6867 53.3798 41.5065 52.9374C41.2614 52.3352 41.0192 51.7319 40.7778 51.1282C40.7059 50.9538 40.6341 50.7794 40.5601 50.5998C40.1788 49.6363 39.9756 48.8493 40.0771 47.8125C40.3346 47.3675 40.3346 47.3675 40.7171 46.9693C40.867 46.8107 41.017 46.652 41.1715 46.4886C41.3518 46.3067 41.532 46.1249 41.7178 45.9375C41.9362 45.7133 42.1546 45.4891 42.3729 45.2647C42.9838 44.6404 43.6002 44.0221 44.219 43.4057C44.6076 43.0184 44.9949 42.6298 45.3821 42.2411C45.6294 41.994 45.8768 41.7469 46.1242 41.5C46.2397 41.384 46.3551 41.2681 46.4741 41.1486C47.7501 39.8814 48.8094 39.9736 50.4855 40.4847ZM48.749 44.5313C48.5943 44.8406 48.4396 45.15 48.2803 45.4688C56.092 53.2805 63.9037 61.0922 71.9521 69.1406C72.8615 68.8375 73.7525 68.5267 74.6474 68.1885C77.5886 67.1222 80.6192 67.253 83.4658 68.584C86.2889 70.0979 87.9531 72.2591 89.0615 75.2344C89.8073 78.1441 89.4811 81.4259 88.0242 84.0363C86.3691 86.6451 84.0836 88.3506 81.1174 89.1879C78.1779 89.8373 75.0336 89.2929 72.474 87.7735C69.7412 85.9324 68.3143 83.5757 67.5722 80.4053C67.3199 77.9324 67.5265 75.444 68.7441 73.2276C69.2219 72.4919 69.2219 72.4919 68.9885 71.9649C68.6187 71.4055 68.2088 70.9647 67.7336 70.4908C67.5377 70.2943 67.3419 70.0977 67.1401 69.8952C66.9248 69.6817 66.7095 69.4681 66.4877 69.248C66.2589 69.0194 66.0303 68.7906 65.8017 68.5618C65.1815 67.9414 64.5599 67.3226 63.938 66.704C63.2881 66.057 62.6395 65.4087 61.9908 64.7605C60.7624 63.5336 59.5328 62.3079 58.3028 61.0826C56.9025 59.6875 55.5035 58.291 54.1046 56.8945C51.2271 54.0219 48.348 51.151 45.4678 48.2813C45.0037 48.5133 45.0037 48.5133 44.5303 48.75C44.6788 50.0356 45.1096 51.1337 45.5899 52.3234C45.6756 52.5389 45.7613 52.7543 45.8496 52.9763C46.1357 53.6949 46.4238 54.4126 46.712 55.1303C46.9161 55.6419 47.12 56.1535 47.3239 56.6651C47.9875 58.3293 48.6538 59.9923 49.3203 61.6553C50.126 63.6667 50.9313 65.6782 51.7365 67.6898C51.9702 68.2736 52.2041 68.8575 52.438 69.4413C53.9556 73.2289 55.4549 77.0232 56.9314 80.8271C57.4716 82.2169 58.0158 83.6052 58.56 84.9934C59.0672 86.2884 59.5679 87.5856 60.0641 88.8848C60.3709 89.6834 60.684 90.4795 60.9988 91.275C61.1417 91.6398 61.282 92.0057 61.4195 92.3726C62.1504 94.5634 62.1504 94.5634 63.8083 96.0199C64.1769 96.1307 64.548 96.2332 64.9209 96.3281C65.3241 96.4843 65.7255 96.6451 66.1253 96.8099C66.5638 96.9804 67.0024 97.1503 67.4413 97.3197C67.6799 97.4122 67.9185 97.5047 68.1643 97.6C68.6687 97.7954 69.1731 97.9906 69.6777 98.1856C70.4292 98.476 71.1804 98.7673 71.9315 99.0587C72.427 99.2506 72.9224 99.4424 73.4179 99.6341C73.6334 99.7177 73.849 99.8013 74.0711 99.8874C76.7168 100.909 79.3745 101.895 82.0303 102.891C88.9138 96.0071 95.7974 89.1235 102.89 82.0313C102.039 79.7883 101.188 77.5453 100.312 75.2344C99.92 74.1492 99.5284 73.0639 99.125 71.9458C98.6912 70.7621 98.6912 70.7621 98.2559 69.579C98.0606 69.0435 97.8686 68.5068 97.6796 67.969C97.3986 67.172 97.1059 66.3802 96.8105 65.5884C96.7294 65.3492 96.6482 65.11 96.5647 64.8635C96.1165 63.6976 95.734 62.9749 94.5829 62.4311C94.0727 62.24 93.5599 62.0557 93.0459 61.875C92.481 61.6512 91.9186 61.4214 91.3559 61.192C90.2041 60.7243 89.0473 60.2692 87.8915 59.8114C87.3763 59.6068 86.8612 59.4021 86.3462 59.1974C84.968 58.6497 83.5896 58.1028 82.2111 57.5559C79.6315 56.5324 77.0524 55.5074 74.4735 54.4821C74.1872 54.3683 73.9008 54.2545 73.6058 54.1372C69.7584 52.6075 65.9151 51.068 62.0772 49.5145C61.6488 49.3412 61.2204 49.1679 60.792 48.9946C59.0132 48.275 57.2349 47.5543 55.4581 46.8299C54.7488 46.5412 54.039 46.2536 53.3291 45.9664C53.005 45.8349 52.681 45.7028 52.3574 45.5701C51.9215 45.3914 51.4847 45.2148 51.0479 45.0383C50.6846 44.8903 50.6846 44.8903 50.314 44.7393C49.6484 44.4821 49.6484 44.4821 48.749 44.5313ZM72.582 74.2383C71.5383 75.7286 70.9489 77.6327 71.249 79.4531C71.8986 81.8628 72.821 83.4183 74.9102 84.7824C76.6014 85.6794 78.2769 85.7705 80.1553 85.5469C82.4774 84.8064 84.0392 83.4259 85.1797 81.2988C85.8702 79.5711 85.8702 77.4602 85.1797 75.7324C84.0769 73.6507 82.4673 72.2342 80.2724 71.4112C77.1904 70.8058 74.5663 71.825 72.582 74.2383ZM105.092 85.3966C104.942 85.547 104.792 85.6973 104.637 85.8522C104.465 86.0238 104.293 86.1954 104.115 86.3722C103.926 86.5628 103.737 86.7535 103.543 86.9499C103.244 87.2483 103.244 87.2483 102.94 87.5526C102.393 88.0994 101.848 88.6473 101.303 89.1956C100.733 89.7679 100.163 90.3389 99.5921 90.9101C98.5112 91.9924 97.4316 93.0759 96.3524 94.1598C95.1239 95.3935 93.8941 96.6259 92.6642 97.8581C90.1337 100.394 87.6049 102.931 85.0771 105.469C85.4361 106.583 85.8829 107.611 86.412 108.653C86.4945 108.817 86.5771 108.982 86.6622 109.151C86.924 109.672 87.187 110.193 87.4502 110.713C87.6288 111.068 87.8073 111.423 87.9858 111.778C88.4215 112.644 88.8584 113.51 89.2959 114.375C90.0095 114.449 90.0095 114.449 90.4699 113.991C90.7411 113.718 90.7411 113.718 91.0178 113.441C91.2259 113.234 91.4339 113.027 91.6482 112.813C91.8781 112.581 92.108 112.348 92.3379 112.116C92.5803 111.873 92.8229 111.631 93.0656 111.389C93.7252 110.729 94.3826 110.068 95.0396 109.406C95.7262 108.715 96.4148 108.026 97.1032 107.336C98.407 106.031 99.7089 104.723 101.01 103.414C102.492 101.925 103.975 100.438 105.458 98.9509C108.511 95.8914 111.56 92.8293 114.608 89.7656C113.89 88.9937 113.045 88.5838 112.11 88.1223C111.935 88.0348 111.76 87.9474 111.58 87.8573C111.212 87.6732 110.843 87.4899 110.473 87.3072C109.907 87.0266 109.341 86.7435 108.776 86.4601C108.418 86.2816 108.059 86.1032 107.701 85.925C107.531 85.8401 107.361 85.7551 107.187 85.6676C106.118 85.0237 106.118 85.0237 105.092 85.3966Z" fill="white"/>
</g>
<defs>
<clipPath id="clip0_172_1166">
<rect width="120" height="120" fill="white" transform="translate(-0.00134277)"/>
</clipPath>
</defs>
</svg>
