<svg width="120" height="120" viewBox="0 0 120 120" fill="none" xmlns="http://www.w3.org/2000/svg">
<g clip-path="url(#clip0_173_1236)">
<path d="M24.5081 -0.0908383C24.7492 -0.0921006 24.9904 -0.0933628 25.2389 -0.0946633C26.0426 -0.0980019 26.8461 -0.0963471 27.6498 -0.0946757C28.2278 -0.0960129 28.8059 -0.0976453 29.3839 -0.0995501C30.7883 -0.103316 32.1927 -0.103777 33.5972 -0.102547C34.7394 -0.101598 35.8816 -0.10194 37.0238 -0.103191C37.1866 -0.103367 37.3495 -0.103542 37.5174 -0.103723C37.8483 -0.104082 38.1793 -0.104442 38.5103 -0.104804C41.6105 -0.108018 44.7106 -0.106749 47.8108 -0.104058C50.6431 -0.101731 53.4754 -0.104762 56.3077 -0.110371C59.2203 -0.116094 62.1329 -0.118337 65.0455 -0.11678C66.6789 -0.115963 68.3123 -0.116475 69.9458 -0.120589C71.4821 -0.12441 73.0183 -0.123283 74.5547 -0.118877C75.1175 -0.118014 75.6803 -0.118738 76.2431 -0.121194C77.0135 -0.124297 77.7836 -0.121577 78.5539 -0.117446C78.8852 -0.120823 78.8852 -0.120823 79.2232 -0.124268C82.0673 -0.0930512 84.151 1.03864 86.1814 2.95809C87.5969 4.45997 88.6181 6.61021 88.6235 8.69267C88.6245 8.88255 88.6256 9.07244 88.6266 9.26807C88.6266 9.579 88.6266 9.579 88.6265 9.89622C88.6274 10.1174 88.6282 10.3387 88.6291 10.5666C88.6317 11.3097 88.6326 12.0528 88.6335 12.7959C88.635 13.3279 88.6365 13.8599 88.6382 14.3919C88.6423 15.8383 88.6447 17.2847 88.6467 18.7312C88.6479 19.6341 88.6493 20.5371 88.6508 21.4401C88.6547 23.9401 88.6581 26.44 88.6598 28.94C88.6603 29.5883 88.6607 30.2367 88.6612 30.885C88.6613 31.0461 88.6614 31.2073 88.6615 31.3733C88.6635 33.9862 88.6694 36.5992 88.677 39.2121C88.6848 41.8945 88.6889 44.5769 88.6898 47.2593C88.6903 48.7655 88.6924 50.2717 88.6983 51.7779C88.7037 53.1938 88.7048 54.6096 88.7023 56.0255C88.7022 56.5459 88.7037 57.0663 88.7069 57.5867C88.7111 58.2956 88.7094 59.0043 88.7063 59.7132C88.7102 60.0241 88.7102 60.0241 88.7141 60.3414C88.6994 61.7318 88.6994 61.7318 88.1454 62.4706C87.6178 62.8381 87.3541 62.9456 86.717 62.9444C86.5623 62.9495 86.4076 62.9546 86.2483 62.9599C85.4885 62.721 85.2617 62.3086 84.842 61.6406C84.7061 60.9243 84.7169 60.2199 84.7251 59.4925C84.7232 59.1671 84.7232 59.1671 84.7213 58.8352C84.7182 58.1079 84.7217 57.3808 84.7252 56.6535C84.7243 56.1322 84.723 55.6109 84.7213 55.0896C84.7185 53.9667 84.7186 52.8439 84.721 51.7211C84.7246 49.9453 84.7214 48.1697 84.7172 46.394C84.712 43.9041 84.7095 41.4143 84.7098 38.9244C84.7098 38.6875 84.7098 38.6875 84.7098 38.4458C84.7099 37.8058 84.71 37.1659 84.71 36.5259C84.7103 34.7657 84.71 33.0056 84.7093 31.2454C84.7093 31.0879 84.7092 30.9303 84.7092 30.768C84.7081 28.1386 84.7043 25.5091 84.6987 22.8797C84.6952 21.1148 84.6953 19.3499 84.6981 17.585C84.6992 16.4863 84.6975 15.3877 84.695 14.2891C84.6944 13.78 84.695 13.2709 84.697 12.7619C84.6995 12.0662 84.6976 11.3706 84.6948 10.6749C84.6966 10.4742 84.6983 10.2734 84.7002 10.0666C84.6839 8.20057 84.1874 6.67319 82.9048 5.28262C81.2983 3.85706 79.4105 3.74042 77.3356 3.67587C77.0342 3.66605 76.7329 3.65623 76.4224 3.64611C76.1088 3.63678 75.7952 3.62748 75.4817 3.61819C75.1617 3.60805 74.8417 3.59783 74.5217 3.58752C73.7431 3.56276 72.9644 3.53883 72.1858 3.51565C72.1553 3.73688 72.1249 3.95811 72.0935 4.18604C72.0527 4.47842 72.0118 4.77081 71.9697 5.07205C71.9296 5.36095 71.8895 5.64986 71.8482 5.94752C71.4354 8.62057 70.6085 11.1157 68.4001 12.8339C66.2954 14.2488 64.2172 14.6021 61.7215 14.5956C61.4784 14.5968 61.2354 14.598 60.985 14.5993C60.1858 14.6025 59.3867 14.6023 58.5874 14.6018C58.0288 14.6027 57.4701 14.6037 56.9115 14.6048C55.7418 14.6066 54.5722 14.6065 53.4025 14.6053C51.9084 14.6039 50.4143 14.6079 48.9201 14.6133C47.7666 14.6168 46.613 14.617 45.4595 14.6162C44.9088 14.6164 44.3582 14.6176 43.8076 14.6199C43.0353 14.6229 42.2633 14.6212 41.4911 14.6185C41.2666 14.6203 41.0421 14.6221 40.8108 14.624C38.0544 14.6028 35.7952 13.8751 33.7547 11.9962C31.6732 9.80864 30.894 6.47981 30.9358 3.51565C30.0106 3.53784 29.0856 3.56276 28.1606 3.59004C27.6941 3.60325 27.2275 3.6144 26.761 3.62551C23.6594 3.7195 21.553 3.90622 19.3635 6.21096C18.5817 7.41378 18.4452 8.58176 18.4529 9.9875C18.452 10.1633 18.4512 10.3392 18.4502 10.5203C18.4478 11.11 18.4487 11.6996 18.4496 12.2893C18.4486 12.7162 18.4473 13.143 18.4459 13.5698C18.4426 14.7433 18.4422 15.9167 18.4423 17.0901C18.4419 18.3555 18.4389 19.6209 18.4362 20.8862C18.4308 23.6532 18.429 26.4202 18.4278 29.1871C18.427 30.9147 18.4255 32.6422 18.4238 34.3698C18.4192 39.1525 18.4154 43.9353 18.4147 48.7181C18.4146 49.0241 18.4146 49.3302 18.4145 49.6456C18.4145 50.2661 18.4144 50.8866 18.4143 51.5071C18.4142 51.8151 18.4142 52.1232 18.4142 52.4405C18.4141 52.7489 18.4141 53.0573 18.414 53.3751C18.4132 58.3733 18.4069 63.3716 18.3981 68.3699C18.3892 73.5011 18.3846 78.6322 18.3846 83.7634C18.3844 86.6446 18.3824 89.5258 18.3757 92.4069C18.3699 94.86 18.3682 97.3131 18.3717 99.7662C18.3734 101.018 18.3732 102.269 18.3679 103.521C18.3631 104.667 18.3637 105.813 18.3686 106.959C18.3694 107.374 18.3682 107.788 18.3649 108.202C18.3468 110.597 18.3724 112.743 20.1086 114.591C21.9159 116.275 24.0504 116.285 26.4041 116.281C26.6279 116.282 26.8518 116.282 27.0825 116.283C27.8304 116.284 28.5783 116.284 29.3262 116.284C29.8633 116.285 30.4004 116.286 30.9376 116.286C32.3952 116.289 33.8527 116.289 35.3103 116.289C36.2212 116.289 37.1321 116.29 38.043 116.291C41.0576 116.293 44.0721 116.294 47.0866 116.293C47.3301 116.293 47.3301 116.293 47.5786 116.293C47.8224 116.293 47.8224 116.293 48.0711 116.293C50.7052 116.293 53.3393 116.296 55.9734 116.299C58.6809 116.302 61.3885 116.304 64.0961 116.304C65.6151 116.304 67.134 116.304 68.6529 116.307C70.0815 116.309 71.51 116.309 72.9386 116.307C73.4623 116.307 73.986 116.308 74.5097 116.309C75.2258 116.311 75.9418 116.31 76.6579 116.308C76.9671 116.31 76.9671 116.31 77.2826 116.312C79.3643 116.3 81.3549 116.018 82.967 114.609C84.2607 113.034 84.6391 111.837 84.6558 109.821C84.6581 109.647 84.6604 109.473 84.6628 109.294C84.6702 108.721 84.676 108.148 84.6818 107.574C84.6866 107.176 84.6915 106.778 84.6966 106.38C84.7095 105.334 84.7211 104.287 84.7324 103.241C84.7442 102.173 84.7572 101.104 84.7701 100.036C84.7953 97.9407 84.8191 95.8454 84.842 93.75C84.6876 93.7521 84.5332 93.7542 84.3742 93.7563C82.762 93.7771 81.1499 93.7912 79.5377 93.8015C78.9366 93.8062 78.3356 93.8126 77.7345 93.8208C76.8688 93.8322 76.0032 93.8374 75.1374 93.8416C74.7367 93.8488 74.7367 93.8488 74.3278 93.8562C72.4743 93.8568 71.1909 93.6127 69.777 92.3273C69.5844 92.0889 69.5844 92.0889 69.3879 91.8457C69.2553 91.6856 69.1226 91.5255 68.986 91.3605C68.6701 90.9375 68.6701 90.9375 68.4358 90.4688C54.0498 90.3528 54.0498 90.3528 39.3733 90.2344C39.2186 90.6985 39.0639 91.1625 38.9045 91.6406C37.5272 93.2041 36.2598 94.1538 34.1758 94.3479C33.9642 94.3679 33.7527 94.3879 33.5347 94.4086C33.3731 94.4233 33.2116 94.438 33.0451 94.4531C33.0641 95.3762 33.0905 96.2989 33.1184 97.2217C33.1237 97.4841 33.129 97.7465 33.1344 98.0168C33.1469 98.3941 33.1469 98.3941 33.1596 98.779C33.1688 99.127 33.1688 99.127 33.1782 99.482C33.2422 100.073 33.2422 100.073 33.5311 100.505C34.2212 100.927 34.9169 100.88 35.702 100.876C35.9538 100.88 35.9538 100.88 36.2108 100.884C36.7474 100.892 37.2839 100.896 37.8205 100.898C38.5256 100.902 39.2304 100.91 39.9354 100.92C40.1768 100.919 40.1768 100.919 40.4231 100.918C41.4382 100.934 42.08 101.099 42.8889 101.719C43.2512 102.443 43.1921 103.03 43.1233 103.828C42.7733 104.342 42.7733 104.342 42.1858 104.766C41.4977 104.859 40.8994 104.897 40.2119 104.89C40.02 104.891 39.8281 104.892 39.6303 104.893C39.2245 104.894 38.8187 104.892 38.4129 104.888C37.7965 104.883 37.1808 104.888 36.5644 104.894C36.1689 104.893 35.7734 104.892 35.3779 104.89C35.1957 104.892 35.0135 104.894 34.8258 104.896C33.1956 104.868 32.0152 104.328 30.76 103.301C29.2165 101.414 29.1715 99.8705 29.2365 97.5C29.2408 97.2067 29.245 96.9133 29.2494 96.611C29.2603 95.8916 29.2757 95.1724 29.2951 94.4531C29.0356 94.4364 29.0356 94.4364 28.7708 94.4194C28.5417 94.4021 28.3126 94.3849 28.0766 94.3671C27.8504 94.3511 27.6242 94.3351 27.3911 94.3187C25.7496 94.0754 24.4848 93.1207 23.487 91.8292C22.4749 90.3305 22.2872 88.9512 22.4983 87.1875C22.9113 85.4029 23.7683 84.1938 25.3108 83.2031C26.5094 82.6061 27.4862 82.3928 28.8319 82.3984C29.0066 82.3972 29.1814 82.3959 29.3614 82.3947C29.729 82.3932 30.0965 82.3935 30.464 82.3955C31.0207 82.3975 31.5767 82.3907 32.1333 82.3833C34.343 82.3726 36.1334 82.4704 37.8718 83.9575C38.093 84.2222 38.093 84.2222 38.3186 84.4922C38.547 84.7569 38.547 84.7569 38.78 85.0269C39.1389 85.5469 39.1389 85.5469 39.3733 86.4844C42.3123 86.4844 45.2514 86.4844 48.2795 86.4844C48.255 85.4339 48.255 85.4339 48.2301 84.3622C48.2191 83.6772 48.2106 82.9923 48.2023 82.3073C48.1952 81.8345 48.1857 81.3617 48.1734 80.8889C48.054 76.153 48.054 76.153 49.2854 74.463C50.3004 73.4477 51.4939 72.6877 52.9535 72.6281C53.2351 72.6286 53.5166 72.6291 53.8067 72.6297C53.9623 72.6296 54.1178 72.6296 54.2781 72.6296C54.7917 72.6297 55.3053 72.6315 55.8189 72.6334C56.1752 72.6338 56.5315 72.6342 56.8878 72.6344C57.8253 72.6353 58.7627 72.6376 59.7002 72.6402C60.6569 72.6426 61.6137 72.6437 62.5704 72.6448C64.4474 72.6473 66.3244 72.6513 68.2014 72.6563C68.2346 72.4347 68.2678 72.2131 68.302 71.9848C68.5345 70.7074 69.3065 69.7853 70.3272 69.0033C71.4127 68.3104 72.274 67.9402 73.5776 67.9359C73.9359 67.9339 73.9359 67.9338 74.3014 67.9318C74.6942 67.9314 74.6942 67.9314 75.095 67.931C75.371 67.9298 75.647 67.9287 75.9313 67.9275C76.6888 67.9246 77.4462 67.9229 78.2036 67.9219C78.6773 67.9212 79.151 67.9202 79.6247 67.9192C81.1081 67.916 82.5915 67.9137 84.0749 67.9128C85.7847 67.9117 87.4944 67.9076 89.2042 67.9008C90.5273 67.8958 91.8503 67.8934 93.1734 67.8931C93.9629 67.8928 94.7523 67.8915 95.5417 67.8873C96.4236 67.8833 97.3054 67.8837 98.1874 67.8852C98.4469 67.8831 98.7064 67.8809 98.9738 67.8787C100.676 67.8879 102.05 68.0507 103.457 69.093C104.944 70.6319 105.494 71.6717 105.57 73.8135C105.528 75.6139 105.134 76.6436 103.973 77.9883C102.692 79.086 101.704 79.7181 100.007 79.7141C99.7533 79.7141 99.5 79.7141 99.239 79.7141C98.9657 79.7129 98.6925 79.7117 98.411 79.7104C98.1311 79.7101 97.8512 79.7098 97.5628 79.7094C96.6673 79.7081 95.7717 79.7051 94.8762 79.7022C94.2697 79.701 93.6631 79.6999 93.0566 79.699C91.5684 79.6964 90.0802 79.6923 88.592 79.6875C88.592 80.461 88.592 81.2344 88.592 82.0313C88.9573 82.0264 89.3225 82.0215 89.6988 82.0164C91.0603 81.9994 92.4218 81.9886 93.7833 81.9798C94.3714 81.9751 94.9595 81.9687 95.5476 81.9605C96.3953 81.9491 97.2428 81.9438 98.0906 81.9397C98.3514 81.9349 98.6123 81.93 98.881 81.9251C100.774 81.9245 102.259 82.2314 103.723 83.4806C103.868 83.6549 104.014 83.8292 104.163 84.0088C104.313 84.1825 104.462 84.3563 104.616 84.5352C105.7 86.0757 105.656 87.7079 105.467 89.5313C104.967 91.272 103.989 92.4017 102.42 93.2813C101.562 93.6791 100.898 93.8077 99.9534 93.8032C99.7001 93.8032 99.4468 93.8032 99.1858 93.8031C98.9151 93.8007 98.6443 93.7983 98.3653 93.7958C98.086 93.7951 97.8068 93.7945 97.519 93.7938C96.6283 93.7912 95.7376 93.7853 94.8469 93.7793C94.2425 93.777 93.6381 93.7748 93.0337 93.7729C91.5531 93.7677 90.0726 93.7599 88.592 93.75C88.5941 93.9763 88.5962 94.2025 88.5983 94.4356C88.6174 96.5767 88.6314 98.7177 88.6406 100.859C88.6455 101.959 88.6521 103.06 88.6627 104.16C88.673 105.224 88.6785 106.288 88.681 107.352C88.6827 107.756 88.686 108.16 88.6911 108.564C88.7326 111.99 88.259 114.804 85.8235 117.407C84.2369 118.891 82.2723 120.026 80.0615 120.031C79.8554 120.033 79.6494 120.034 79.4372 120.035C79.2119 120.035 78.9865 120.035 78.7544 120.035C78.5142 120.035 78.274 120.036 78.0266 120.037C77.2193 120.04 76.412 120.041 75.6047 120.042C75.0269 120.043 74.4491 120.045 73.8712 120.046C72.1353 120.051 70.3993 120.053 68.6634 120.055C67.8452 120.056 67.0271 120.058 66.209 120.059C63.488 120.063 60.7671 120.066 58.0462 120.068C57.3404 120.068 56.6345 120.069 55.9287 120.069C55.6655 120.069 55.6655 120.069 55.3971 120.07C52.5571 120.071 49.7172 120.077 46.8773 120.085C43.9594 120.093 41.0416 120.097 38.1237 120.098C36.4863 120.098 34.849 120.1 33.2116 120.106C31.6705 120.112 30.1294 120.113 28.5883 120.11C28.0236 120.11 27.4589 120.112 26.8942 120.115C26.1212 120.119 25.3485 120.117 24.5755 120.114C24.243 120.118 24.243 120.118 23.9038 120.122C20.8836 120.093 18.6642 118.812 16.5949 116.704C14.4596 114.134 14.359 111.341 14.3807 108.168C14.3794 107.734 14.3775 107.301 14.3752 106.867C14.3703 105.683 14.3727 104.498 14.3763 103.314C14.379 102.034 14.3749 100.754 14.3717 99.4739C14.3665 96.969 14.3676 94.4642 14.371 91.9593C14.3736 89.923 14.374 87.8867 14.3727 85.8505C14.3725 85.5604 14.3723 85.2702 14.3722 84.9713C14.3718 84.3819 14.3714 83.7925 14.371 83.203C14.3678 77.837 14.3711 72.4709 14.3773 67.1049C14.3828 62.211 14.3823 57.3172 14.3767 52.4233C14.3705 46.9193 14.368 41.4153 14.3716 35.9112C14.372 35.324 14.3723 34.7368 14.3727 34.1496C14.3729 33.8607 14.3731 33.5718 14.3732 33.2741C14.3743 31.2409 14.3726 29.2078 14.3698 27.1746C14.3665 24.6959 14.3674 22.2173 14.3736 19.7386C14.3767 18.4746 14.3779 17.2106 14.374 15.9466C14.3705 14.7883 14.3725 13.6301 14.3787 12.4718C14.38 12.054 14.3794 11.6362 14.3765 11.2185C14.3554 7.86287 14.7935 5.12058 17.2505 2.61477C19.4404 0.63954 21.5794 -0.109429 24.5081 -0.0908383ZM34.6858 3.51565C35.1903 7.25553 35.1903 7.25553 37.1321 9.93166C38.5502 10.831 39.8936 10.8509 41.5204 10.8494C41.8751 10.8517 41.8751 10.8517 42.237 10.8541C43.017 10.8586 43.7971 10.8595 44.5771 10.86C45.1212 10.8615 45.6654 10.8631 46.2095 10.8647C47.3498 10.8675 48.4901 10.8684 49.6305 10.8681C51.0879 10.8681 52.5452 10.8745 54.0026 10.8826C55.1266 10.8878 56.2506 10.8887 57.3746 10.8885C57.9117 10.889 58.4488 10.8911 58.9859 10.8947C59.7391 10.8993 60.4922 10.898 61.2454 10.8951C61.5747 10.8991 61.5747 10.8991 61.9105 10.9031C63.5786 10.8874 65.2193 10.5705 66.5339 9.47578C67.8118 8.14177 68.4358 5.33714 68.4358 3.51565C57.2983 3.51565 46.1608 3.51565 34.6858 3.51565ZM71.9514 72.8906C71.6592 73.5696 71.6592 73.5696 71.717 74.2969C72.2437 75.2911 72.2437 75.2911 73.1233 75.9375C73.4858 75.9616 73.8494 75.9712 74.2128 75.9736C74.5573 75.9766 74.5573 75.9766 74.9088 75.9797C75.2881 75.9812 75.2881 75.9812 75.6751 75.9827C76.0736 75.9856 76.0736 75.9856 76.4801 75.9885C77.3622 75.9944 78.2443 75.9982 79.1264 76.0016C79.427 76.0029 79.7277 76.0041 80.0374 76.0054C81.3007 76.0104 82.5639 76.0149 83.8272 76.0175C85.6374 76.0213 87.4476 76.0291 89.2578 76.0424C90.6842 76.0526 92.1105 76.0563 93.5369 76.0578C94.1437 76.0594 94.7504 76.063 95.3571 76.0686C96.2056 76.076 97.0538 76.076 97.9023 76.0743C98.2795 76.0801 98.2795 76.08 98.6643 76.0859C100.081 76.0786 100.081 76.0786 101.286 75.3733C101.698 74.7929 101.882 74.5276 101.878 73.8281C101.884 73.6783 101.89 73.5284 101.896 73.374C101.598 72.5694 101.045 72.1165 100.311 71.7188C99.4318 71.5468 98.5673 71.5586 97.674 71.5671C97.4105 71.5651 97.147 71.563 96.8755 71.5609C96.006 71.5558 95.1368 71.5592 94.2674 71.5631C93.6626 71.5623 93.0579 71.5612 92.4532 71.5597C91.1865 71.558 89.92 71.5604 88.6533 71.566C87.1904 71.5724 85.7276 71.5703 84.2647 71.5639C82.855 71.5579 81.4455 71.5585 80.0359 71.562C79.437 71.5627 78.8381 71.5618 78.2392 71.5591C77.4026 71.5561 76.5663 71.5606 75.7297 71.5671C75.4819 71.5648 75.2341 71.5624 74.9788 71.5599C73.5702 71.5803 72.8193 71.6648 71.9514 72.8906ZM52.0295 77.3438C51.8965 77.8033 51.8965 77.8033 51.9231 78.2893C51.9232 78.4747 51.9233 78.6602 51.9234 78.8513C51.9282 79.0439 51.933 79.2364 51.938 79.4348C51.9389 79.6136 51.9398 79.7923 51.9408 79.9765C51.9457 80.6419 51.9588 81.3073 51.9709 81.9727C51.9903 83.4615 52.0096 84.9504 52.0295 86.4844C57.3662 86.4844 62.703 86.4844 68.2014 86.4844C68.5881 85.711 68.9748 84.9375 69.3733 84.1406C71.3067 82.422 72.9286 82.195 75.4579 82.1686C75.7264 82.1641 75.9949 82.1595 76.2716 82.1548C77.1264 82.1409 77.9813 82.13 78.8362 82.1192C79.4169 82.1102 79.9977 82.1011 80.5784 82.0917C81.9996 82.0692 83.4208 82.0495 84.842 82.0313C84.842 81.2578 84.842 80.4844 84.842 79.6875C84.478 79.6866 84.114 79.6856 83.7389 79.6846C82.3804 79.6795 81.022 79.6667 79.6636 79.6518C79.0771 79.6463 78.4906 79.643 77.9042 79.6417C77.0581 79.6395 76.2123 79.6299 75.3663 79.6189C74.9769 79.6202 74.9769 79.6202 74.5796 79.6217C72.8722 79.59 71.4618 79.3354 70.0764 78.2813C69.7436 77.7942 69.7436 77.7942 69.448 77.284C68.9828 76.5956 68.773 76.4305 67.9505 76.2368C67.005 76.1732 66.0772 76.1701 65.1307 76.1902C64.7829 76.1913 64.4351 76.1917 64.0873 76.1915C63.3602 76.193 62.6335 76.2007 61.9065 76.2133C60.9753 76.2293 60.0447 76.2328 59.1134 76.2321C58.396 76.2324 57.6787 76.2375 56.9612 76.2443C56.6179 76.2473 56.2746 76.2492 55.9313 76.2498C55.4515 76.2519 54.9723 76.2601 54.4926 76.2701C54.22 76.2737 53.9473 76.2772 53.6664 76.2809C52.8174 76.4331 52.5349 76.6532 52.0295 77.3438ZM71.9514 86.9531C71.6769 87.7767 71.6486 88.1755 71.9514 88.9893C72.6776 89.8289 73.5287 90.1721 74.6137 90.2991C75.2655 90.3257 75.9138 90.3294 76.5661 90.3254C76.8129 90.3266 77.0597 90.3278 77.3139 90.3291C78.1265 90.3322 78.9391 90.3302 79.7517 90.3278C80.3182 90.3283 80.8847 90.3289 81.4512 90.3298C82.6372 90.3309 83.8232 90.3294 85.0092 90.3261C86.5279 90.3221 88.0465 90.3244 89.5652 90.3286C90.7346 90.3311 91.904 90.3303 93.0734 90.3285C93.6333 90.328 94.1932 90.3286 94.7532 90.3302C95.5363 90.332 96.3192 90.3293 97.1023 90.3254C97.3327 90.3268 97.5631 90.3282 97.8005 90.3297C99.1265 90.3175 100.084 90.1862 101.248 89.5313C101.832 88.6553 101.824 88.225 101.717 87.1875C101.296 86.5422 101.002 86.1267 100.311 85.7813C99.9512 85.7572 99.5905 85.7476 99.2301 85.7452C99.0024 85.7432 98.7747 85.7412 98.5401 85.7391C98.2894 85.7381 98.0387 85.7371 97.7804 85.7361C97.5171 85.7342 97.2537 85.7322 96.9824 85.7303C96.1079 85.7244 95.2334 85.7206 94.3589 85.7172C94.0609 85.7159 93.7628 85.7147 93.4557 85.7134C92.2033 85.7084 90.9509 85.7039 89.6986 85.7013C87.9039 85.6975 86.1093 85.6897 84.3147 85.6764C82.9006 85.6662 81.4865 85.6625 80.0724 85.661C79.4709 85.6594 78.8694 85.6558 78.2679 85.6502C77.4267 85.6428 76.5858 85.6428 75.7446 85.6445C75.4953 85.6407 75.246 85.6368 74.9892 85.6329C73.5769 85.6449 72.8187 85.7192 71.9514 86.9531ZM26.4826 87.1875C26.1424 87.8679 26.161 88.3061 26.2483 89.0625C26.9121 90.0962 26.9121 90.0962 27.9732 90.6224C29.0286 90.7602 30.0778 90.7561 31.1408 90.7617C31.3677 90.7666 31.5946 90.7714 31.8284 90.7764C33.1984 90.7838 34.1898 90.6843 35.3889 90C35.9729 89.1241 35.965 88.6938 35.8576 87.6563C35.4368 87.011 35.1422 86.5954 34.4514 86.25C33.4938 86.1897 32.5358 86.1865 31.5765 86.1809C31.101 86.1768 30.626 86.1665 30.1507 86.1562C29.6996 86.1532 29.6996 86.1532 29.2393 86.1502C28.9637 86.1468 28.688 86.1434 28.404 86.1399C27.5052 86.272 27.1246 86.558 26.4826 87.1875Z" fill="white"/>
<path d="M56.717 24.8438C58.0179 26.0047 59.0224 27.4965 60.0532 28.8931C61.0586 30.2538 62.0935 31.5926 63.122 32.9359C63.9758 34.0535 64.8137 35.1781 65.6233 36.3281C66.7499 35.2797 67.6447 34.0843 68.5676 32.8564C68.8145 32.5303 68.8145 32.5303 69.0664 32.1976C69.8366 31.1793 70.6029 30.1582 71.3664 29.1348C71.4908 28.9681 71.6153 28.8015 71.7435 28.6297C71.9711 28.3244 72.1981 28.0186 72.4243 27.7123C72.9642 26.9861 73.518 26.2736 74.0946 25.5762C74.2055 25.442 74.3163 25.3079 74.4305 25.1697C74.7639 24.8438 74.7639 24.8438 75.4817 24.5801C76.3717 24.618 76.9463 24.9168 77.5764 25.5469C77.7604 27.0273 77.4937 27.7433 76.6002 28.9201C76.3873 29.1864 76.3873 29.1864 76.1701 29.458C76.0242 29.6481 75.8782 29.8381 75.7278 30.0339C75.4155 30.4398 75.1014 30.8443 74.7855 31.2474C74.125 32.0928 73.4776 32.9479 72.8294 33.8028C72.356 34.4265 71.8807 35.0489 71.4048 35.6708C70.4062 36.977 69.4184 38.2911 68.4358 39.6094C68.8492 40.5622 69.4808 41.3522 70.1057 42.1729C70.2286 42.3355 70.3514 42.4981 70.478 42.6656C71.6543 44.2204 72.8386 45.7692 74.0211 47.3193C75.1673 48.8226 76.3085 50.3297 77.4446 51.8408C77.5957 52.0414 77.7469 52.2419 77.9026 52.4485C78.0412 52.6332 78.1798 52.8178 78.3225 53.0081C78.5058 53.252 78.5058 53.252 78.6928 53.5008C79.2536 54.2852 79.3304 54.8175 79.217 55.7812C78.6414 56.56 78.2969 56.9007 77.342 57.0996C74.9665 56.6047 72.7614 52.4088 71.3725 50.5072C69.9949 48.6259 68.5659 46.7867 67.1241 44.9543C67.0155 44.8147 66.907 44.6751 66.7951 44.5312C66.6653 44.3685 66.5354 44.2058 66.4016 44.0382C66.092 43.5938 66.092 43.5938 66.092 43.125C64.9467 44.1882 64.0407 45.4086 63.1037 46.6553C62.8523 46.9876 62.8523 46.9876 62.5958 47.3266C61.7515 48.4434 60.9108 49.563 60.0715 50.6836C59.915 50.8921 59.7585 51.1005 59.5973 51.3153C59.2952 51.7184 58.9936 52.1218 58.6934 52.5263C58.2854 53.0755 57.8749 53.6228 57.4641 54.1699C57.3347 54.3452 57.2054 54.5205 57.0721 54.7012C56.9486 54.8648 56.825 55.0285 56.6978 55.1971C56.5885 55.3437 56.4792 55.4903 56.3665 55.6413C55.9617 56.071 55.627 56.2745 55.0764 56.4844C54.2414 56.4697 54.2414 56.4697 53.4358 56.25C52.8197 55.5954 52.7302 55.2328 52.7445 54.3365C53.0408 53.1394 53.6381 52.4391 54.4172 51.5039C54.7186 51.1299 55.0195 50.7554 55.3199 50.3806C55.4744 50.1889 55.6288 49.9972 55.788 49.7998C56.5186 48.8775 57.2111 47.9286 57.9035 46.9775C58.7223 45.8554 59.5455 44.7385 60.3965 43.6404C60.5362 43.4601 60.6759 43.2797 60.8199 43.0939C61.085 42.7531 61.3512 42.4132 61.6188 42.0744C62.5606 40.9463 62.5606 40.9463 63.0451 39.6094C62.6913 38.9935 62.3496 38.5114 61.9026 37.9688C61.6397 37.6346 61.377 37.3005 61.1143 36.9662C60.9718 36.788 60.8293 36.6098 60.6825 36.4262C59.7228 35.217 58.7967 33.9815 57.8634 32.752C57.7071 32.5463 57.5509 32.3405 57.3899 32.1286C57.2373 31.9276 57.0847 31.7265 56.9275 31.5194C56.5124 30.9765 56.0923 30.4379 55.6706 29.9002C55.4333 29.5918 55.1962 29.2832 54.9592 28.9746C54.8507 28.8397 54.7422 28.7048 54.6305 28.5658C53.913 27.6192 53.7726 26.9554 53.9045 25.7812C54.5725 24.5725 55.4471 24.4125 56.717 24.8438Z" fill="white"/>
<path d="M26.7178 25.0781C27.1067 25.3177 27.1067 25.3177 27.4209 25.7812C27.4899 26.4588 27.5162 27.0862 27.5111 27.7639C27.5123 27.9664 27.5136 28.1688 27.5149 28.3774C27.5172 28.8175 27.5179 29.2575 27.5172 29.6976C27.5161 30.3953 27.5194 31.0929 27.5238 31.7906C27.5324 33.2738 27.5356 34.757 27.5381 36.2402C27.5409 37.9544 27.546 39.6686 27.5568 41.3828C27.56 42.0679 27.559 42.7529 27.5579 43.438C27.5601 43.8621 27.5625 44.2862 27.5651 44.7104C27.5637 44.8989 27.5622 45.0875 27.5607 45.2817C27.5825 47.3116 28.1251 48.9429 29.5239 50.4245C31.533 52.2633 33.4041 52.8597 36.1147 52.825C37.7587 52.6623 39.1893 52.0861 40.4781 51.0535C41.0146 50.625 41.0146 50.625 41.4834 50.625C41.5704 50.4437 41.5704 50.4437 41.6592 50.2588C41.9743 49.6444 42.322 49.0557 42.6782 48.4644C43.2228 47.3892 43.1595 46.2603 43.161 45.0815C43.1622 44.8771 43.1634 44.6727 43.1646 44.4622C43.1671 44.0189 43.1691 43.5757 43.1707 43.1324C43.1735 42.4311 43.178 41.7298 43.1832 41.0285C43.1976 39.0347 43.2103 37.0409 43.2181 35.0471C43.223 33.8272 43.2313 32.6074 43.2417 31.3875C43.245 30.9226 43.2471 30.4576 43.2478 29.9926C43.249 29.3428 43.2544 28.6932 43.2608 28.0435C43.2597 27.7549 43.2597 27.7549 43.2586 27.4605C43.2699 26.6895 43.3026 26.1184 43.6739 25.4339C44.253 24.9024 44.6913 24.8593 45.4678 24.8438C46.2949 25.2197 46.5993 25.4863 47.1084 26.25C47.1565 26.9206 47.1772 27.5685 47.1765 28.2393C47.1781 28.4426 47.1796 28.6458 47.1813 28.8552C47.1857 29.5292 47.1866 30.2031 47.1871 30.8771C47.1886 31.347 47.1902 31.8168 47.1919 32.2867C47.1947 33.2738 47.1955 34.2609 47.1953 35.248C47.1952 36.506 47.2016 37.7638 47.2097 39.0218C47.2149 39.9938 47.2158 40.9658 47.2156 41.9379C47.2161 42.4011 47.2182 42.8644 47.2218 43.3276C47.2475 46.9305 47.1045 49.9583 44.5303 52.7344C44.4022 52.8809 44.2741 53.0274 44.1421 53.1784C42.1887 55.293 39.4842 56.6297 36.611 56.8085C33.2703 56.9248 30.6673 56.2961 27.8896 54.375C27.7404 54.272 27.5911 54.169 27.4374 54.0628C25.3842 52.4796 24.0668 49.8778 23.6709 47.3438C23.6468 46.6655 23.6341 45.9928 23.6331 45.3145C23.632 45.1127 23.6308 44.911 23.6296 44.7031C23.6262 44.0379 23.6246 43.3727 23.6233 42.7075C23.6219 42.2443 23.6206 41.7811 23.6192 41.3179C23.6168 40.3478 23.6154 39.3777 23.6146 38.4076C23.6133 37.1648 23.6077 35.9219 23.601 34.6791C23.5966 33.7228 23.5954 32.7666 23.5951 31.8103C23.5944 31.352 23.5925 30.8938 23.5894 30.4355C23.5854 29.7949 23.5858 29.1543 23.5874 28.5136C23.5852 28.3246 23.583 28.1356 23.5808 27.9409C23.5888 26.8653 23.7077 26.1688 24.374 25.3125C25.1659 24.7118 25.7856 24.8203 26.7178 25.0781Z" fill="white"/>
<path d="M56.4018 96.9296C56.7829 96.9286 57.164 96.9273 57.5452 96.9259C58.3416 96.9238 59.1381 96.9244 59.9345 96.9267C60.9506 96.9294 61.9665 96.9247 62.9825 96.9178C63.7689 96.9135 64.5553 96.9136 65.3418 96.9149C65.7162 96.915 66.0906 96.9136 66.4649 96.9106C69.0148 96.8935 71.1966 97.034 73.1239 98.9062C74.2112 100.304 74.6534 101.743 74.6025 103.501C74.3828 105.206 73.6536 106.567 72.3887 107.718C70.9445 108.805 69.338 109.013 67.5732 109.018C67.4206 109.019 67.268 109.02 67.1108 109.021C66.6087 109.023 66.1067 109.023 65.6047 109.024C65.2535 109.024 64.9024 109.025 64.5512 109.026C63.8158 109.028 63.0803 109.028 62.3449 109.028C61.4063 109.028 60.4678 109.031 59.5293 109.035C58.804 109.038 58.0787 109.038 57.3534 109.038C57.0076 109.038 56.6618 109.039 56.316 109.041C53.5974 109.054 51.3583 108.969 49.2177 107.109C47.9751 105.575 47.7104 104.176 47.7318 102.228C47.919 100.48 48.7993 99.1453 50.1231 98.0283C52.1427 96.8431 54.1352 96.924 56.4018 96.9296ZM52.0302 101.484C51.4851 102.302 51.483 102.633 51.5614 103.594C51.7748 104.341 51.9796 104.501 52.6559 104.904C53.5045 105.263 54.0802 105.323 54.9974 105.325C55.3032 105.328 55.6091 105.33 55.9241 105.332C56.2549 105.331 56.5856 105.329 56.9163 105.328C57.2583 105.328 57.6003 105.329 57.9423 105.33C58.6573 105.331 59.3721 105.329 60.0871 105.326C61.0018 105.322 61.9164 105.324 62.8311 105.329C63.5367 105.331 64.2422 105.33 64.9478 105.328C65.285 105.328 65.6223 105.329 65.9595 105.33C66.4311 105.332 66.9028 105.329 67.3745 105.325C67.7764 105.325 67.7764 105.325 68.1864 105.324C69.2423 105.192 69.8519 104.809 70.5165 103.989C70.854 103.183 70.8102 102.782 70.5458 101.953C70.1025 101.424 69.7553 101.089 69.1395 100.781C68.6408 100.756 68.1413 100.746 67.6419 100.743C67.4883 100.742 67.3346 100.741 67.1763 100.74C66.6671 100.737 66.1579 100.735 65.6486 100.734C65.2948 100.732 64.9409 100.731 64.5871 100.73C63.8445 100.727 63.1019 100.726 62.3593 100.725C61.4088 100.724 60.4584 100.718 59.508 100.711C58.7767 100.707 58.0454 100.706 57.3141 100.705C56.9638 100.705 56.6135 100.703 56.2632 100.7C55.7723 100.696 55.2816 100.696 54.7906 100.698C54.5115 100.697 54.2324 100.696 53.9448 100.695C53.1197 100.791 52.6888 100.986 52.0302 101.484Z" fill="white"/>
<path d="M49.0557 5.46935C49.2441 5.46823 49.4325 5.4671 49.6265 5.46595C50.0243 5.46515 50.422 5.46731 50.8198 5.47221C51.427 5.47847 52.0332 5.47227 52.6405 5.46477C53.0276 5.46554 53.4147 5.46705 53.8018 5.46935C53.9825 5.46697 54.1632 5.4646 54.3494 5.46216C55.2872 5.48248 55.7368 5.59176 56.4898 6.16755C56.9521 6.79686 56.9521 6.79686 56.9521 7.64647C56.7305 8.39433 56.6325 8.69574 56.0146 9.14061C55.3074 9.49421 54.5742 9.418 53.7981 9.42259C53.6247 9.42393 53.4513 9.42527 53.2726 9.42664C52.9052 9.42886 52.5377 9.43039 52.1703 9.43129C51.6101 9.43356 51.05 9.44083 50.4899 9.44823C50.1327 9.44976 49.7755 9.45099 49.4183 9.45189C49.2515 9.45478 49.0847 9.45768 48.9128 9.46066C47.8796 9.45606 47.2264 9.30791 46.4053 8.67186C46.0709 8.00313 46.0981 7.53876 46.1709 6.79686C46.8949 5.51422 47.683 5.45137 49.0557 5.46935Z" fill="white"/>
<path d="M77.694 7.29496C78.5143 7.50004 78.5143 7.50004 78.9684 7.8809C79.3198 8.66648 79.3238 9.22733 79.2174 10.0782C78.8512 10.6495 78.8512 10.6495 78.2799 11.0157C77.346 11.1491 76.8608 11.173 76.0826 10.6202C75.6504 10.005 75.4858 9.65879 75.4674 8.90629C75.9766 7.81157 76.4253 7.24965 77.694 7.29496Z" fill="white"/>
</g>
<defs>
<clipPath id="clip0_173_1236">
<rect width="120" height="120" fill="white" transform="translate(-0.00134277)"/>
</clipPath>
</defs>
</svg>
