<svg width="121" height="120" viewBox="0 0 121 120" fill="none" xmlns="http://www.w3.org/2000/svg">
<g clip-path="url(#clip0_173_1231)">
<path d="M100.822 1.5967C103.077 3.21641 104.72 5.35684 105.275 8.1473C105.548 10.594 105.307 12.7061 104.396 15C104.319 15.0774 104.242 15.1547 104.162 15.2344C104.388 15.2574 104.615 15.2803 104.848 15.304C108.084 15.6755 110.73 16.4591 112.852 19.1281C114.353 21.3568 114.815 23.4645 114.798 26.1238C114.799 26.3845 114.8 26.6451 114.801 26.9137C114.804 27.782 114.802 28.6502 114.8 29.5185C114.801 30.1431 114.802 30.7677 114.803 31.3923C114.807 32.9096 114.806 34.4268 114.804 35.9441C114.802 37.1778 114.802 38.4115 114.803 39.6452C114.803 39.8212 114.803 39.9971 114.803 40.1784C114.803 40.5358 114.804 40.8933 114.804 41.2508C114.806 44.5986 114.804 47.9465 114.8 51.2944C114.797 54.1638 114.797 57.0331 114.8 59.9025C114.804 63.2388 114.806 66.5751 114.803 69.9115C114.803 70.2676 114.803 70.6237 114.803 70.9798C114.803 71.155 114.803 71.3302 114.802 71.5107C114.802 72.7422 114.803 73.9736 114.805 75.2051C114.807 76.7069 114.806 78.2087 114.802 79.7106C114.8 80.4761 114.8 81.2415 114.802 82.007C114.804 82.8385 114.802 83.6698 114.798 84.5012C114.8 84.7409 114.801 84.9805 114.803 85.2274C114.781 87.9545 113.969 90.3504 112.13 92.3978C110.135 94.2992 107.883 95.1866 105.149 95.1845C104.992 95.1847 104.835 95.1849 104.673 95.1851C104.149 95.1854 103.624 95.1842 103.1 95.1829C102.723 95.1828 102.347 95.1829 101.97 95.183C100.949 95.1831 99.928 95.1817 98.9068 95.18C97.8392 95.1786 96.7716 95.1784 95.704 95.1781C93.6829 95.1774 91.6617 95.1755 89.6406 95.1731C87.3393 95.1705 85.0381 95.1692 82.7369 95.1681C78.0035 95.1656 73.2702 95.1615 68.5368 95.1563C68.6015 95.3984 68.6662 95.6405 68.7329 95.89C68.8184 96.2104 68.904 96.5309 68.9895 96.8513C69.0321 97.0106 69.0747 97.1698 69.1185 97.3339C69.5516 98.9566 69.9563 100.585 70.3532 102.217C70.4273 102.515 70.5013 102.814 70.5776 103.121C70.6473 103.408 70.7171 103.695 70.789 103.991C70.8518 104.247 70.9146 104.504 70.9792 104.768C71.1044 105.414 71.142 105.985 71.115 106.641C71.3299 106.636 71.5448 106.631 71.7663 106.626C72.5744 106.61 73.3823 106.598 74.1906 106.589C74.5383 106.584 74.8861 106.578 75.2338 106.57C78.0815 106.505 80.2915 106.769 82.4382 108.799C83.8447 110.293 84.3075 111.733 84.2693 113.76C84.265 114.052 84.2608 114.343 84.2564 114.644C84.251 114.865 84.2456 115.085 84.24 115.313C84.4894 115.308 84.7389 115.303 84.9959 115.298C85.9241 115.281 86.8522 115.27 87.7805 115.261C88.1817 115.256 88.583 115.25 88.9842 115.242C89.5619 115.23 90.1395 115.225 90.7173 115.221C90.8958 115.216 91.0744 115.211 91.2583 115.206C92.1338 115.206 92.6278 115.281 93.374 115.755C94.038 116.446 94.0619 116.921 94.1167 117.847C94.0701 118.571 93.8464 118.982 93.3806 119.531C92.6311 120.031 92.4439 120.059 91.584 120.06C91.358 120.062 91.132 120.063 90.8991 120.065C90.6503 120.064 90.4014 120.063 90.145 120.063C89.8811 120.064 89.6172 120.065 89.3452 120.066C88.4562 120.069 87.5672 120.068 86.6781 120.068C86.0426 120.069 85.4071 120.071 84.7716 120.073C83.2217 120.077 81.6719 120.078 80.122 120.078C78.8625 120.079 77.6029 120.08 76.3434 120.081C72.7738 120.085 69.2043 120.087 65.6347 120.087C65.4422 120.087 65.2497 120.087 65.0513 120.087C64.7622 120.087 64.7622 120.087 64.4672 120.087C61.3429 120.087 58.2186 120.091 55.0943 120.098C51.8878 120.104 48.6812 120.108 45.4747 120.107C43.6739 120.107 41.8731 120.108 40.0722 120.113C38.539 120.118 37.0059 120.119 35.4727 120.116C34.6902 120.114 33.9079 120.115 33.1254 120.118C32.2775 120.122 31.4298 120.12 30.5819 120.116C30.3341 120.118 30.0863 120.121 29.831 120.123C28.7826 120.113 28.1658 120.106 27.2539 119.556C26.6379 118.858 26.6042 118.368 26.5508 117.466C26.5973 116.742 26.821 116.33 27.2868 115.781C28.1748 115.189 28.8772 115.253 29.9043 115.267C30.1838 115.268 30.1838 115.268 30.4688 115.269C31.0635 115.271 31.658 115.277 32.2527 115.283C32.656 115.286 33.0592 115.288 33.4625 115.29C34.4509 115.295 35.4392 115.303 36.4275 115.313C36.4211 114.977 36.4211 114.977 36.4146 114.635C36.4113 114.341 36.408 114.046 36.4046 113.743C36.3982 113.306 36.3982 113.306 36.3917 112.861C36.4692 111.065 37.3393 109.76 38.5368 108.467C40.134 107.035 41.6843 106.609 43.7846 106.618C44.0324 106.618 44.0324 106.618 44.2851 106.619C44.8104 106.62 45.3357 106.623 45.8611 106.626C46.2181 106.627 46.5752 106.628 46.9322 106.629C47.8056 106.632 48.6791 106.636 49.5525 106.641C49.5813 106.337 49.6102 106.033 49.6399 105.72C49.7663 104.587 49.9949 103.5 50.2629 102.394C50.3088 102.2 50.3548 102.006 50.4021 101.807C50.4984 101.402 50.5954 100.997 50.6929 100.593C50.8424 99.9719 50.99 99.3505 51.1372 98.7291C51.2314 98.3343 51.3257 97.9396 51.4201 97.5449C51.4643 97.3591 51.5085 97.1733 51.5541 96.9819C51.869 95.6795 51.869 95.6795 52.1306 95.1563C51.9359 95.1569 51.7411 95.1576 51.5405 95.1582C46.7966 95.1738 42.0527 95.1854 37.3088 95.1927C35.0147 95.1963 32.7205 95.2013 30.4264 95.2093C28.4262 95.2163 26.4261 95.2209 24.4259 95.2224C23.3674 95.2233 22.3089 95.2255 21.2503 95.2306C20.2527 95.2354 19.2551 95.2369 18.2574 95.2358C17.8926 95.236 17.5277 95.2374 17.1628 95.2401C13.9204 95.263 11.2024 94.81 8.7172 92.5772C6.99201 90.7679 5.93277 88.5747 5.92726 86.0556C5.92622 85.8329 5.92517 85.6102 5.92409 85.3808C5.92414 85.1381 5.92418 84.8954 5.92423 84.6453C5.92337 84.386 5.9225 84.1266 5.92161 83.8594C5.91902 82.9886 5.91813 82.1179 5.91723 81.2471C5.91576 80.6234 5.91421 79.9997 5.91257 79.376C5.90794 77.5032 5.90557 75.6304 5.90349 73.7576C5.90246 72.8748 5.9012 71.992 5.89997 71.1092C5.89599 68.1732 5.8926 65.2371 5.8909 62.3011C5.89045 61.5396 5.89 60.7781 5.88954 60.0167C5.88942 59.8274 5.88931 59.6382 5.88919 59.4432C5.88725 56.3791 5.88132 53.315 5.8737 50.251C5.86594 47.1024 5.86173 43.9539 5.86098 40.8053C5.86047 39.0386 5.85843 37.272 5.85243 35.5053C5.84733 34.0004 5.84547 32.4955 5.84774 30.9906C5.8488 30.2236 5.84787 29.4567 5.84381 28.6897C5.83965 27.8557 5.84133 27.022 5.84441 26.188C5.84055 25.8295 5.84054 25.8295 5.83661 25.4636C5.86055 22.7622 6.71265 20.2991 8.53684 18.2813C12.0178 15.062 16.0105 15.3365 20.4674 15.3623C21.1074 15.3631 21.7475 15.3625 22.3876 15.3619C23.7608 15.3614 25.134 15.3644 26.5073 15.3696C28.4927 15.3773 30.4781 15.3797 32.4635 15.3809C35.6854 15.3829 38.9074 15.3892 42.1293 15.398C45.2574 15.4067 48.3854 15.4133 51.5135 15.4173C51.8032 15.4176 51.8032 15.4176 52.0987 15.418C53.0676 15.4192 54.0365 15.4204 55.0055 15.4216C63.0316 15.4313 71.0576 15.4478 79.0837 15.4688C79.1546 15.286 79.2255 15.1032 79.2986 14.9149C79.5524 14.297 79.8477 13.8088 80.2272 13.2605C80.3639 13.0616 80.5006 12.8627 80.6414 12.6577C80.7896 12.4445 80.9379 12.2314 81.0906 12.0117C81.4087 11.5514 81.7267 11.0908 82.0445 10.6302C82.2114 10.3886 82.3782 10.147 82.5501 9.89813C83.0809 9.12192 83.602 8.33999 84.1209 7.55587C84.2965 7.29222 84.4721 7.02862 84.6478 6.76508C84.9835 6.26059 85.3174 5.75482 85.649 5.2476C86.9425 3.31534 88.2653 1.85745 90.3923 0.849631C90.6256 0.736636 90.8588 0.623642 91.0991 0.507224C94.2236 -0.822931 98.0343 -0.142118 100.822 1.5967ZM90.5273 6.96312C90.3519 7.21311 90.1766 7.4631 89.9959 7.72066C89.8966 7.86205 89.7973 8.00344 89.695 8.14911C88.3947 10.0156 87.1514 11.9212 85.905 13.8239C85.1612 14.9593 84.4153 16.0933 83.6696 17.2275C83.5205 17.4544 83.3713 17.6814 83.2177 17.9152C81.785 20.0939 80.3413 22.2651 78.8933 24.4336C78.7818 24.6006 78.6703 24.7676 78.5554 24.9397C77.9507 25.8455 77.3455 26.751 76.74 27.6563C77.3547 28.2937 77.9798 28.8468 78.6937 29.3701C78.8852 29.5109 79.0768 29.6517 79.2741 29.7968C79.4723 29.9412 79.6705 30.0856 79.8747 30.2344C80.0711 30.3788 80.2675 30.5232 80.4698 30.672C81.4773 31.4102 82.4904 32.1308 83.5368 32.8125C84.9411 31.2 86.329 29.5816 87.6384 27.8906C88.6353 26.6038 89.6752 25.3625 90.7403 24.1318C91.5454 23.2003 92.3232 22.252 93.0867 21.286C93.7957 20.3989 94.5183 19.5234 95.2409 18.6475C95.4543 18.3884 95.4543 18.3884 95.672 18.124C96.2907 17.373 96.9102 16.6228 97.5353 15.8771C99.8386 13.1388 99.8386 13.1388 100.491 9.7275C100.263 8.04089 99.3284 6.71387 98.0315 5.66164C95.4814 4.06243 92.3757 4.6597 90.5273 6.96312ZM11.7009 22.1338C10.9546 23.4087 10.8128 24.5909 10.8242 26.0448C10.8236 26.3266 10.8236 26.3266 10.823 26.614C10.8222 27.2413 10.8248 27.8685 10.8274 28.4957C10.8275 28.9462 10.8274 29.3967 10.8272 29.8471C10.827 31.0688 10.8298 32.2904 10.8331 33.512C10.836 34.7892 10.8363 36.0664 10.8368 37.3435C10.8383 39.7615 10.8421 42.1794 10.8468 44.5973C10.8521 47.3503 10.8547 50.1032 10.857 52.8562C10.8619 58.5187 10.8701 64.1812 10.8806 69.8438C11.2122 69.8452 11.2122 69.8452 11.5505 69.8467C12.374 69.853 13.1972 69.8645 14.0206 69.8795C14.3763 69.885 14.7321 69.8883 15.0878 69.8896C15.6006 69.8918 16.1129 69.9014 16.6255 69.9124C16.9336 69.9161 17.2417 69.9198 17.5591 69.9236C18.5712 70.114 18.9191 70.4548 19.5525 71.25C19.7489 71.9734 19.7044 72.6272 19.5525 73.3594C19.1127 73.9457 18.7933 74.2077 18.1462 74.5313C17.6018 74.5676 17.0565 74.5899 16.5111 74.6054C16.3505 74.6103 16.1899 74.6152 16.0244 74.6202C15.511 74.6355 14.9976 74.6493 14.4841 74.6631C14.1362 74.6732 13.7883 74.6835 13.4404 74.6938C12.5872 74.7189 11.7339 74.7426 10.8806 74.7656C10.8567 76.4336 10.8404 78.1015 10.8291 79.7696C10.8244 80.3365 10.818 80.9035 10.8099 81.4704C10.7984 82.2873 10.7932 83.104 10.789 83.9209C10.7842 84.1727 10.7794 84.4245 10.7744 84.6839C10.7739 86.4429 11.0081 87.7745 12.2951 89.0763C12.4519 89.1829 12.6087 89.2896 12.7702 89.3994C12.9276 89.5103 13.0851 89.6212 13.2472 89.7354C14.1418 90.2663 14.8939 90.2643 15.9123 90.2659C16.0677 90.2664 16.2231 90.267 16.3832 90.2675C16.9075 90.2691 17.4318 90.269 17.9561 90.2689C18.3343 90.2697 18.7126 90.2705 19.0908 90.2715C20.1331 90.2739 21.1754 90.2747 22.2177 90.2753C23.3407 90.2763 24.4638 90.2785 25.5868 90.2805C28.3003 90.2852 31.0138 90.2875 33.7273 90.2896C35.0046 90.2907 36.2819 90.2919 37.5591 90.2931C41.804 90.2971 46.0489 90.3005 50.2939 90.3022C51.3957 90.3027 52.4976 90.3031 53.5995 90.3036C53.8734 90.3037 54.1472 90.3038 54.4294 90.3039C58.8673 90.3059 63.3051 90.3118 67.743 90.3194C72.2973 90.3272 76.8517 90.3314 81.406 90.3321C83.9639 90.3326 86.5217 90.3347 89.0796 90.3407C91.2577 90.3458 93.4358 90.3477 95.614 90.3454C96.7254 90.3443 97.8368 90.3448 98.9483 90.3493C99.966 90.3534 100.984 90.3532 102.001 90.3496C102.369 90.349 102.737 90.35 103.105 90.3528C104.989 90.3661 106.534 90.3736 108.146 89.2969C108.633 88.8461 108.633 88.8461 108.952 88.3447C109.063 88.1873 109.174 88.0299 109.288 87.8678C109.756 87.079 109.816 86.4379 109.813 85.5417C109.813 85.1828 109.813 85.1828 109.813 84.8167C109.812 84.5588 109.811 84.301 109.81 84.0354C109.809 83.771 109.809 83.5067 109.809 83.2344C109.807 82.389 109.804 81.5436 109.801 80.6983C109.8 80.1256 109.799 79.5529 109.798 78.9803C109.796 77.5754 109.792 76.1705 109.787 74.7656C109.63 74.7654 109.473 74.7652 109.312 74.765C100.025 74.7513 90.7384 74.734 81.4517 74.712C80.3372 74.7093 79.2227 74.7067 78.1082 74.7041C77.7753 74.7034 77.7753 74.7034 77.4358 74.7026C73.8408 74.6943 70.2459 74.6884 66.6509 74.6835C62.9635 74.6784 59.276 74.6707 55.5885 74.6605C53.3123 74.6543 51.0361 74.6501 48.7599 74.6486C47.2 74.6474 45.6401 74.6436 44.0802 74.6378C43.1796 74.6345 42.279 74.6323 41.3784 74.6332C40.4027 74.6342 39.4272 74.6297 38.4515 74.6247C38.1658 74.6259 37.8801 74.627 37.5858 74.6282C37.3247 74.6259 37.0635 74.6237 36.7945 74.6214C36.5692 74.621 36.344 74.6206 36.1119 74.6201C35.368 74.5138 34.9238 74.266 34.3181 73.8281C34.0518 73.2955 34.0217 72.9415 33.9958 72.3487C33.9786 72.0817 33.9786 72.0817 33.961 71.8094C34.1023 71.1652 34.339 70.7834 34.8174 70.3293C35.8276 69.7503 37.0964 69.9185 38.226 69.9283C38.684 69.9254 38.684 69.9254 39.1513 69.9224C39.9985 69.9171 40.8455 69.9191 41.6927 69.9223C42.6064 69.9245 43.5201 69.9199 44.4338 69.9161C46.0166 69.9106 47.5995 69.9092 49.1824 69.9108C51.471 69.9131 53.7595 69.909 56.0481 69.9032C59.7611 69.8941 63.4741 69.8902 67.1872 69.8896C70.7941 69.889 74.4011 69.8859 78.008 69.8795C78.3415 69.8789 78.3415 69.8789 78.6817 69.8783C79.797 69.8764 80.9123 69.8743 82.0276 69.8723C91.2807 69.8553 100.534 69.8468 109.787 69.8438C109.814 63.9253 109.835 58.0069 109.848 52.0884C109.854 49.3402 109.862 46.5921 109.875 43.8439C109.887 41.4482 109.894 39.0526 109.897 36.6568C109.899 35.3887 109.902 34.1206 109.911 32.8525C109.919 31.6578 109.921 30.4633 109.919 29.2686C109.92 28.8312 109.922 28.3937 109.927 27.9563C110.015 24.6811 110.015 24.6811 108.615 21.7969C106.35 19.9562 103.438 20.0048 100.64 20.2459C99.5661 20.469 99.0504 20.9321 98.449 21.8262C98.166 22.2807 97.8995 22.7397 97.6417 23.2089C97.1748 23.9901 96.5662 24.6388 95.9587 25.3125C95.0265 26.3816 94.1319 27.4724 93.2634 28.5938C92.2836 29.8588 91.2609 31.0771 90.212 32.2852C89.4034 33.2212 88.6301 34.1785 87.8728 35.1563C86.8767 36.4421 85.8379 37.6825 84.7734 38.9121C83.9421 39.8737 83.1381 40.8528 82.3503 41.8506C81.8405 42.492 81.3194 43.1233 80.7976 43.7549C80.6236 43.9706 80.4495 44.1863 80.2702 44.4086C79.9816 44.7618 79.6858 45.1096 79.3767 45.445C78.9178 45.9762 78.5985 46.4093 78.6498 47.1295C78.7382 47.5154 78.8341 47.8995 78.9354 48.2822C79.6701 51.7606 78.8547 55.1647 76.9743 58.125C75.4899 60.2693 73.1283 61.5829 70.638 62.2341C69.6438 62.391 68.6602 62.3851 67.6552 62.3932C67.1997 62.3998 66.7442 62.4065 66.2888 62.4133C65.5755 62.423 64.8623 62.4316 64.149 62.4378C63.4573 62.4444 62.7658 62.4551 62.0741 62.4664C61.7594 62.4676 61.7594 62.4676 61.4384 62.4688C59.574 62.5045 57.7165 62.8378 56.1882 63.9697C56.016 64.0906 55.8438 64.2114 55.6664 64.336C55.505 64.452 55.3437 64.568 55.1775 64.6875C54.3173 65.3024 53.6218 65.7049 52.5407 65.6104C51.4741 65.3437 51.4741 65.3437 50.9587 64.6875C50.7788 64.208 50.7788 64.208 50.6502 63.6576C50.6019 63.4548 50.5536 63.252 50.5039 63.0431C50.4558 62.8268 50.4077 62.6106 50.3581 62.3877C50.3075 62.1636 50.2568 61.9394 50.2046 61.7085C50.0612 61.0617 49.923 60.414 49.7868 59.7656C49.7276 59.491 49.6684 59.2164 49.6074 58.9334C48.6607 53.6117 48.8869 47.5756 51.8816 42.9346C52.1176 42.6051 52.3567 42.2778 52.5993 41.9531C52.7412 41.7451 52.7412 41.7451 52.8859 41.5329C54.7715 39.013 58.2594 37.4615 61.2807 36.9504C62.0395 36.8432 62.7946 36.7599 63.5582 36.6925C64.5661 36.5201 65.1807 36.246 65.8331 35.4305C66.2275 34.8642 66.6035 34.289 66.9759 33.7079C67.1173 33.4917 67.2587 33.2755 67.4044 33.0527C67.8575 32.3589 68.3071 31.6629 68.7566 30.9668C69.0507 30.5147 69.345 30.0627 69.6396 29.6109C70.0799 28.9355 70.5199 28.26 70.9588 27.5837C72.1489 25.7508 73.3591 23.9318 74.581 22.12C74.7108 21.9266 74.8407 21.7332 74.9744 21.534C75.0894 21.3635 75.2044 21.1931 75.3229 21.0174C75.5888 20.669 75.5888 20.669 75.5681 20.3906C67.8449 20.3638 60.1218 20.3432 52.3985 20.3308C51.4862 20.3293 50.5739 20.3278 49.6615 20.3263C49.3891 20.3258 49.3891 20.3258 49.1111 20.3253C46.1725 20.3202 43.2338 20.311 40.2952 20.3002C37.2785 20.2893 34.2619 20.2828 31.2453 20.2804C29.3847 20.2788 27.5242 20.2737 25.6636 20.2642C24.2356 20.2572 22.8076 20.2565 21.3795 20.2581C20.7947 20.2578 20.2099 20.2555 19.625 20.251C18.8252 20.2451 18.0257 20.2465 17.2259 20.2497C16.9956 20.2463 16.7653 20.2429 16.5281 20.2394C14.6459 20.2596 13.0658 20.803 11.7009 22.1338ZM73.9275 31.875C73.7026 32.1741 73.4887 32.4814 73.2793 32.7915C73.1479 32.985 73.0164 33.1785 72.881 33.3779C72.6739 33.6853 72.6739 33.6853 72.4626 33.999C72.193 34.3974 71.9232 34.7957 71.6533 35.1938C71.4582 35.4816 71.4582 35.4816 71.2592 35.7753C70.753 36.5144 70.233 37.2424 69.7087 37.9688C70.0398 38.7624 70.4071 39.1449 71.1049 39.6396C71.3802 39.8365 71.3802 39.8365 71.6611 40.0374C71.8531 40.1717 72.0451 40.306 72.2429 40.4444C72.4322 40.5796 72.6215 40.7148 72.8165 40.8541C73.714 41.4914 74.6107 42.1106 75.5681 42.6563C75.6959 42.5001 75.8237 42.3439 75.9554 42.1829C76.1321 41.9669 76.3088 41.7509 76.4909 41.5283C76.7774 41.1776 76.7774 41.1776 77.0696 40.8197C77.4676 40.333 77.8683 39.849 78.2707 39.3659C78.4568 39.1417 78.6429 38.9175 78.8347 38.6865C79.006 38.4814 79.1773 38.2763 79.3538 38.0649C79.7298 37.5744 80.0062 37.1252 80.2556 36.5625C78.8296 35.397 77.3762 34.2718 75.905 33.1641C75.7375 33.0374 75.57 32.9108 75.3973 32.7803C75.2407 32.6628 75.084 32.5453 74.9226 32.4243C74.7112 32.2655 74.7112 32.2655 74.4955 32.1034C74.197 31.853 74.197 31.853 73.9275 31.875ZM56.8181 44.2969C54.4985 46.9594 53.9594 50.0431 53.9616 53.4668C53.9615 53.7064 53.9613 53.946 53.9612 54.1929C53.9729 55.8612 54.0824 57.4353 54.4743 59.0625C54.7168 58.9945 54.7168 58.9945 54.9641 58.9252C55.2945 58.8336 55.2945 58.8336 55.6316 58.7403C55.8464 58.6804 56.0612 58.6206 56.2825 58.559C56.5366 58.4931 56.7907 58.4273 57.0525 58.3594C57.2773 58.3003 57.2773 58.3003 57.5067 58.2399C58.8541 57.9102 60.1228 57.8217 61.5065 57.8183C61.9504 57.8124 62.3943 57.8065 62.8381 57.8005C63.5283 57.7937 64.2184 57.7881 64.9086 57.7837C65.5812 57.7786 66.2538 57.7694 66.9264 57.7597C67.1306 57.7597 67.3347 57.7597 67.5451 57.7596C69.4305 57.7294 71.0406 57.2388 72.5212 56.0156C73.7585 54.4647 74.4646 53.0203 74.4548 51.0059C74.456 50.7575 74.4572 50.5092 74.4585 50.2533C74.374 48.573 74.374 48.573 73.5395 47.171C73.0204 46.756 72.4872 46.3811 71.9353 46.0108C71.5321 45.7285 71.129 45.4462 70.7259 45.1639C70.5192 45.0217 70.3125 44.8795 70.0995 44.733C69.4821 44.3023 68.8771 43.8586 68.2741 43.4079C68.0844 43.2669 67.8946 43.1259 67.6991 42.9805C67.3361 42.7104 66.9738 42.4392 66.6124 42.1668C66.4477 42.0461 66.2831 41.9255 66.1134 41.8012C65.97 41.6944 65.8265 41.5876 65.6786 41.4776C63.2432 40.1672 58.5747 42.5706 56.8181 44.2969ZM57.2868 95.1563C56.7918 96.2613 56.5355 97.4057 56.2596 98.5794C56.2083 98.7951 56.1569 99.0109 56.104 99.2331C55.996 99.6875 55.8885 100.142 55.7814 100.597C55.6169 101.294 55.4508 101.991 55.2846 102.689C55.1798 103.13 55.0751 103.572 54.9706 104.014C54.9208 104.223 54.871 104.432 54.8197 104.648C54.7743 104.841 54.7288 105.035 54.6821 105.234C54.6217 105.489 54.6217 105.489 54.5602 105.75C54.4588 106.177 54.4588 106.177 54.4743 106.641C58.3415 106.641 62.2087 106.641 66.1931 106.641C65.6012 103.977 65.0078 101.315 64.3913 98.6572C64.3553 98.5 64.3192 98.3427 64.2821 98.1807C64.1768 97.7214 64.0703 97.2623 63.9638 96.8033C63.9022 96.5368 63.8407 96.2703 63.7773 95.9958C63.6745 95.4111 63.6745 95.4111 63.3806 95.1563C62.929 95.1358 62.4767 95.1312 62.0247 95.1334C61.7505 95.1341 61.4763 95.1349 61.1939 95.1357C60.7608 95.1386 60.7608 95.1386 60.3191 95.1416C60.0295 95.1427 59.7399 95.1437 59.4415 95.1448C58.7233 95.1476 58.0051 95.1515 57.2868 95.1563ZM41.5837 112.5C41.1746 113.231 41.1746 113.231 41.3493 115.313C53.879 115.313 66.4087 115.313 79.3181 115.313C79.5221 113.162 79.5221 113.162 78.8786 112.251C78.0746 111.518 77.5993 111.532 76.5287 111.528C76.0866 111.526 76.0866 111.526 75.6355 111.523C75.307 111.522 74.9785 111.522 74.65 111.521C74.3055 111.52 73.9609 111.518 73.6164 111.516C72.6789 111.512 71.7414 111.51 70.8038 111.508C70.2183 111.507 69.6328 111.505 69.0472 111.504C67.2158 111.499 65.3843 111.496 63.5529 111.494C61.4377 111.492 59.3226 111.486 57.2075 111.476C55.5733 111.469 53.9392 111.466 52.305 111.465C51.3286 111.464 50.3523 111.462 49.376 111.456C48.4574 111.451 47.5389 111.45 46.6202 111.452C46.2832 111.452 45.9462 111.451 45.6092 111.448C45.1488 111.443 44.6884 111.446 44.228 111.448C43.9705 111.448 43.7129 111.447 43.4475 111.447C42.5919 111.59 42.2017 111.903 41.5837 112.5Z" fill="white"/>
<path d="M27.7548 69.8438C28.6163 70.3119 28.8737 70.6642 29.2783 71.5576C29.4245 72.6361 29.2463 73.1332 28.6923 74.0625C28.0572 74.5946 27.6489 74.7465 26.832 74.8682C25.9238 74.7384 25.4218 74.3926 24.708 73.8281C24.3028 73.0178 24.3588 72.136 24.4736 71.25C25.3259 69.8863 26.1822 69.6325 27.7548 69.8438Z" fill="white"/>
</g>
<defs>
<clipPath id="clip0_173_1231">
<rect width="120" height="120" fill="white" transform="translate(0.333374)"/>
</clipPath>
</defs>
</svg>
