<svg width="121" height="120" viewBox="0 0 121 120" fill="none" xmlns="http://www.w3.org/2000/svg">
<g clip-path="url(#clip0_172_1172)">
<path d="M100.821 1.59668C103.075 3.21639 104.719 5.35682 105.274 8.14728C105.547 10.5939 105.306 12.7061 104.395 15C104.317 15.0773 104.24 15.1547 104.16 15.2344C104.387 15.2573 104.614 15.2803 104.847 15.304C108.082 15.6755 110.728 16.4591 112.851 19.1281C114.351 21.3568 114.814 23.4644 114.797 26.1238C114.798 26.3844 114.799 26.6451 114.8 26.9137C114.803 27.782 114.801 28.6502 114.798 29.5184C114.799 30.1431 114.8 30.7677 114.802 31.3923C114.805 32.9096 114.804 34.4268 114.802 35.9441C114.801 37.1778 114.801 38.4115 114.801 39.6452C114.802 39.8211 114.802 39.9971 114.802 40.1784C114.802 40.5358 114.802 40.8933 114.802 41.2508C114.804 44.5986 114.802 47.9465 114.798 51.2944C114.795 54.1637 114.796 57.0331 114.799 59.9025C114.803 63.2388 114.804 66.5751 114.802 69.9114C114.802 70.2676 114.802 70.6237 114.801 70.9798C114.801 71.155 114.801 71.3302 114.801 71.5107C114.8 72.7422 114.801 73.9736 114.803 75.2051C114.805 76.7069 114.805 78.2087 114.801 79.7105C114.799 80.476 114.799 81.2415 114.801 82.007C114.803 82.8384 114.8 83.6698 114.797 84.5012C114.798 84.7409 114.8 84.9805 114.801 85.2274C114.779 87.9545 113.968 90.3504 112.128 92.3978C110.134 94.2992 107.882 95.1865 105.147 95.1844C104.99 95.1846 104.833 95.1848 104.672 95.185C104.147 95.1854 103.623 95.1841 103.099 95.1829C102.722 95.1828 102.345 95.1828 101.969 95.183C100.948 95.183 99.9266 95.1816 98.9054 95.18C97.8378 95.1785 96.7702 95.1784 95.7026 95.1781C93.6815 95.1774 91.6603 95.1755 89.6392 95.1731C87.3379 95.1705 85.0367 95.1692 82.7355 95.168C78.0021 95.1656 73.2688 95.1615 68.5354 95.1562C68.6001 95.3984 68.6648 95.6405 68.7315 95.89C68.817 96.2104 68.9026 96.5308 68.9881 96.8513C69.0307 97.0105 69.0732 97.1698 69.1171 97.3339C69.5502 98.9566 69.9549 100.585 70.3518 102.217C70.4259 102.515 70.4999 102.814 70.5761 103.121C70.6459 103.408 70.7157 103.695 70.7876 103.991C70.8504 104.247 70.9132 104.504 70.9778 104.768C71.103 105.414 71.1406 105.985 71.1136 106.641C71.3285 106.636 71.5434 106.631 71.7648 106.626C72.573 106.61 73.3809 106.598 74.1892 106.589C74.5369 106.584 74.8847 106.578 75.2324 106.57C78.0801 106.505 80.2901 106.769 82.4368 108.799C83.8433 110.293 84.3061 111.733 84.2679 113.76C84.2636 114.052 84.2594 114.343 84.255 114.644C84.2496 114.865 84.2442 115.085 84.2386 115.312C84.488 115.308 84.7375 115.303 84.9945 115.298C85.9227 115.281 86.8508 115.27 87.7791 115.261C88.1803 115.256 88.5816 115.25 88.9828 115.242C89.5605 115.23 90.1381 115.225 90.7159 115.221C90.8944 115.216 91.0729 115.211 91.2569 115.206C92.1324 115.206 92.6264 115.281 93.3726 115.755C94.0366 116.446 94.0605 116.921 94.1153 117.847C94.0687 118.571 93.845 118.982 93.3792 119.531C92.6297 120.031 92.4425 120.059 91.5826 120.06C91.3566 120.062 91.1306 120.063 90.8977 120.065C90.6488 120.064 90.4 120.063 90.1436 120.063C89.8797 120.064 89.6157 120.065 89.3438 120.066C88.4548 120.069 87.5658 120.068 86.6767 120.068C86.0412 120.069 85.4057 120.071 84.7702 120.073C83.2203 120.077 81.6705 120.078 80.1206 120.078C78.8611 120.079 77.6015 120.079 76.342 120.081C72.7724 120.085 69.2029 120.087 65.6333 120.087C65.4408 120.087 65.2483 120.087 65.0499 120.087C64.7608 120.087 64.7608 120.087 64.4658 120.087C61.3415 120.087 58.2172 120.091 55.0929 120.098C51.8863 120.104 48.6798 120.108 45.4733 120.107C43.6725 120.107 41.8717 120.108 40.0708 120.113C38.5376 120.118 37.0045 120.119 35.4712 120.116C34.6888 120.114 33.9065 120.115 33.124 120.118C32.2761 120.122 31.4284 120.12 30.5805 120.116C30.3327 120.118 30.0849 120.121 29.8296 120.123C28.7812 120.113 28.1644 120.106 27.2525 119.556C26.6365 118.858 26.6028 118.368 26.5494 117.466C26.5959 116.742 26.8196 116.33 27.2854 115.781C28.1734 115.189 28.8758 115.253 29.9029 115.267C30.1824 115.268 30.1824 115.268 30.4674 115.269C31.0621 115.271 31.6566 115.277 32.2513 115.283C32.6545 115.286 33.0578 115.288 33.4611 115.29C34.4495 115.295 35.4378 115.303 36.4261 115.312C36.4197 114.977 36.4197 114.977 36.4132 114.635C36.4099 114.341 36.4066 114.046 36.4032 113.743C36.3968 113.306 36.3968 113.306 36.3903 112.861C36.4678 111.064 37.3379 109.76 38.5354 108.467C40.1326 107.035 41.6829 106.609 43.7832 106.618C44.031 106.618 44.031 106.618 44.2837 106.619C44.809 106.62 45.3343 106.623 45.8597 106.626C46.2167 106.627 46.5738 106.628 46.9308 106.629C47.8042 106.632 48.6777 106.636 49.5511 106.641C49.5799 106.337 49.6088 106.033 49.6385 105.72C49.7649 104.587 49.9935 103.5 50.2615 102.393C50.3074 102.2 50.3534 102.006 50.4007 101.807C50.497 101.402 50.594 100.997 50.6915 100.593C50.841 99.9718 50.9886 99.3505 51.1358 98.7291C51.23 98.3343 51.3243 97.9396 51.4187 97.5449C51.4629 97.3591 51.5071 97.1733 51.5527 96.9819C51.8676 95.6795 51.8676 95.6795 52.1292 95.1562C51.9345 95.1569 51.7397 95.1575 51.5391 95.1582C46.7952 95.1738 42.0513 95.1854 37.3074 95.1927C35.0133 95.1963 32.7191 95.2012 30.425 95.2093C28.4248 95.2163 26.4247 95.2208 24.4245 95.2224C23.3659 95.2233 22.3075 95.2255 21.2489 95.2306C20.2513 95.2354 19.2537 95.2368 18.256 95.2358C17.8912 95.236 17.5263 95.2374 17.1614 95.2401C13.919 95.263 11.201 94.8099 8.7158 92.5772C6.9906 90.7679 5.93137 88.5747 5.92586 86.0556C5.92481 85.8329 5.92376 85.6102 5.92269 85.3808C5.92273 85.1381 5.92278 84.8954 5.92282 84.6453C5.92196 84.386 5.92109 84.1266 5.92021 83.8594C5.91762 82.9886 5.91672 82.1178 5.91583 81.247C5.91436 80.6234 5.91281 79.9997 5.91117 79.376C5.90654 77.5032 5.90417 75.6304 5.90208 73.7576C5.90105 72.8748 5.8998 71.992 5.89857 71.1092C5.89458 68.1732 5.89119 65.2371 5.88949 62.3011C5.88905 61.5396 5.88859 60.7781 5.88813 60.0167C5.88802 59.8274 5.88791 59.6382 5.88779 59.4432C5.88585 56.3791 5.87991 53.315 5.8723 50.251C5.86454 47.1024 5.86032 43.9539 5.85957 40.8053C5.85907 39.0386 5.85703 37.272 5.85103 35.5053C5.84593 34.0004 5.84406 32.4955 5.84633 30.9905C5.8474 30.2235 5.84646 29.4567 5.84241 28.6897C5.83825 27.8557 5.83992 27.022 5.843 26.188C5.83914 25.8294 5.83914 25.8294 5.83521 25.4636C5.85915 22.7621 6.71124 20.2991 8.53544 18.2813C12.0164 15.062 16.0091 15.3365 20.466 15.3623C21.106 15.3631 21.7461 15.3625 22.3862 15.3619C23.7594 15.3614 25.1326 15.3643 26.5059 15.3696C28.4913 15.3773 30.4767 15.3797 32.4621 15.3809C35.684 15.3829 38.906 15.3891 42.1279 15.398C45.256 15.4066 48.384 15.4133 51.5121 15.4173C51.8017 15.4176 51.8017 15.4176 52.0973 15.418C53.0662 15.4192 54.0351 15.4204 55.004 15.4216C63.0302 15.4313 71.0562 15.4478 79.0823 15.4688C79.1532 15.286 79.2241 15.1032 79.2971 14.9149C79.551 14.297 79.8463 13.8088 80.2258 13.2605C80.3625 13.0616 80.4992 12.8626 80.64 12.6577C80.7882 12.4445 80.9364 12.2313 81.0891 12.0117C81.4073 11.5513 81.7253 11.0908 82.0431 10.6302C82.21 10.3886 82.3768 10.147 82.5487 9.89811C83.0795 9.1219 83.6006 8.33997 84.1195 7.55585C84.2951 7.2922 84.4707 7.0286 84.6464 6.76506C84.9821 6.26057 85.316 5.7548 85.6476 5.24758C86.9411 3.31532 88.2639 1.85743 90.3909 0.849612C90.6241 0.736617 90.8574 0.623623 91.0977 0.507204C94.2222 -0.822951 98.0329 -0.142137 100.821 1.59668ZM90.5259 6.9631C90.3505 7.21309 90.1752 7.46308 89.9945 7.72064C89.8952 7.86203 89.7959 8.00342 89.6936 8.14909C88.3933 10.0156 87.15 11.9212 85.9036 13.8239C85.1598 14.9593 84.4139 16.0933 83.6682 17.2275C83.5191 17.4544 83.3699 17.6813 83.2162 17.9151C81.7836 20.0938 80.3399 22.2651 78.8919 24.4336C78.7804 24.6006 78.6689 24.7676 78.554 24.9397C77.9493 25.8455 77.3441 26.751 76.7386 27.6563C77.3533 28.2937 77.9784 28.8468 78.6923 29.3701C78.8838 29.5109 79.0754 29.6517 79.2727 29.7968C79.4709 29.9412 79.6691 30.0856 79.8733 30.2344C80.0697 30.3788 80.2661 30.5232 80.4684 30.672C81.4759 31.4101 82.489 32.1308 83.5354 32.8125C84.9397 31.2 86.3276 29.5816 87.637 27.8906C88.6339 26.6038 89.6737 25.3625 90.7389 24.1318C91.544 23.2003 92.3218 22.252 93.0853 21.286C93.7942 20.3989 94.5169 19.5234 95.2395 18.6475C95.4529 18.3884 95.4529 18.3884 95.6706 18.124C96.2893 17.373 96.9088 16.6228 97.5339 15.8771C99.8372 13.1388 99.8372 13.1388 100.49 9.72748C100.261 8.04087 99.327 6.71385 98.0301 5.66162C95.48 4.06241 92.3743 4.65968 90.5259 6.9631ZM11.6995 22.1338C10.9532 23.4087 10.8114 24.5909 10.8228 26.0448C10.8222 26.3266 10.8222 26.3266 10.8216 26.614C10.8208 27.2412 10.8234 27.8684 10.826 28.4957C10.8261 28.9462 10.826 29.3966 10.8258 29.8471C10.8256 31.0688 10.8284 32.2904 10.8317 33.512C10.8346 34.7892 10.8349 36.0663 10.8354 37.3435C10.8369 39.7614 10.8407 42.1794 10.8454 44.5973C10.8507 47.3502 10.8532 50.1032 10.8556 52.8562C10.8605 58.5187 10.8687 64.1812 10.8792 69.8438C11.2108 69.8452 11.2108 69.8452 11.5491 69.8467C12.3726 69.853 13.1957 69.8645 14.0192 69.8795C14.3749 69.8849 14.7307 69.8883 15.0864 69.8896C15.5992 69.8918 16.1114 69.9014 16.6241 69.9124C16.9322 69.9161 17.2403 69.9198 17.5577 69.9236C18.5698 70.114 18.9177 70.4548 19.5511 71.25C19.7475 71.9734 19.703 72.6272 19.5511 73.3594C19.1113 73.9457 18.7919 74.2077 18.1448 74.5312C17.6004 74.5676 17.0551 74.5899 16.5097 74.6054C16.3491 74.6103 16.1885 74.6151 16.023 74.6202C15.5096 74.6355 14.9962 74.6493 14.4827 74.6631C14.1348 74.6732 13.7869 74.6834 13.439 74.6938C12.5858 74.7189 11.7325 74.7426 10.8792 74.7656C10.8553 76.4336 10.839 78.1015 10.8277 79.7696C10.823 80.3365 10.8166 80.9035 10.8085 81.4704C10.797 82.2872 10.7918 83.104 10.7876 83.9209C10.7828 84.1727 10.778 84.4245 10.773 84.6839C10.7725 86.4429 11.0067 87.7745 12.2937 89.0762C12.4505 89.1829 12.6073 89.2895 12.7688 89.3994C12.9262 89.5103 13.0837 89.6212 13.2458 89.7354C14.1404 90.2663 14.8925 90.2643 15.9109 90.2658C16.0663 90.2664 16.2217 90.2669 16.3818 90.2675C16.9061 90.2691 17.4304 90.269 17.9547 90.2689C18.3329 90.2696 18.7112 90.2705 19.0894 90.2715C20.1317 90.2738 21.174 90.2747 22.2163 90.2753C23.3393 90.2762 24.4624 90.2785 25.5854 90.2805C28.2989 90.2852 31.0124 90.2875 33.7259 90.2896C35.0032 90.2906 36.2805 90.2919 37.5577 90.2931C41.8026 90.2971 46.0475 90.3005 50.2925 90.3022C51.3943 90.3026 52.4962 90.3031 53.5981 90.3036C53.872 90.3037 54.1458 90.3038 54.428 90.3039C58.8659 90.3058 63.3037 90.3118 67.7416 90.3194C72.2959 90.3271 76.8503 90.3314 81.4046 90.3321C83.9625 90.3326 86.5203 90.3347 89.0782 90.3407C91.2563 90.3457 93.4344 90.3476 95.6126 90.3454C96.724 90.3443 97.8354 90.3447 98.9469 90.3493C99.9646 90.3534 100.982 90.3532 102 90.3495C102.368 90.349 102.736 90.35 103.104 90.3528C104.987 90.3661 106.533 90.3735 108.145 89.2969C108.632 88.8461 108.632 88.8461 108.95 88.3447C109.061 88.1873 109.172 88.0299 109.286 87.8677C109.755 87.079 109.814 86.4379 109.812 85.5417C109.812 85.1828 109.812 85.1828 109.812 84.8166C109.811 84.5588 109.81 84.301 109.808 84.0353C109.808 83.771 109.808 83.5067 109.807 83.2344C109.806 82.389 109.803 81.5436 109.8 80.6982C109.799 80.1256 109.798 79.5529 109.797 78.9803C109.794 77.5754 109.79 76.1705 109.785 74.7656C109.629 74.7654 109.472 74.7652 109.31 74.7649C100.024 74.7513 90.737 74.734 81.4503 74.712C80.3358 74.7093 79.2213 74.7067 78.1068 74.7041C77.7739 74.7033 77.7739 74.7033 77.4344 74.7025C73.8394 74.6943 70.2445 74.6884 66.6495 74.6835C62.9621 74.6784 59.2746 74.6707 55.5871 74.6605C53.3109 74.6542 51.0347 74.6501 48.7585 74.6486C47.1986 74.6474 45.6387 74.6436 44.0788 74.6377C43.1782 74.6344 42.2776 74.6323 41.377 74.6332C40.4013 74.6341 39.4257 74.6297 38.4501 74.6247C38.1644 74.6258 37.8787 74.627 37.5844 74.6281C37.3233 74.6259 37.0621 74.6237 36.7931 74.6214C36.5678 74.621 36.3426 74.6205 36.1105 74.6201C35.3666 74.5138 34.9224 74.266 34.3167 73.8281C34.0504 73.2955 34.0203 72.9415 33.9944 72.3486C33.9772 72.0817 33.9772 72.0817 33.9596 71.8094C34.1009 71.1652 34.3376 70.7834 34.816 70.3293C35.8262 69.7502 37.095 69.9184 38.2246 69.9283C38.6826 69.9254 38.6826 69.9254 39.1499 69.9224C39.9971 69.9171 40.8441 69.9191 41.6913 69.9223C42.605 69.9245 43.5187 69.9199 44.4323 69.9161C46.0152 69.9105 47.5981 69.9092 49.181 69.9108C51.4696 69.9131 53.7581 69.909 56.0467 69.9032C59.7597 69.8941 63.4727 69.8902 67.1858 69.8896C70.7927 69.889 74.3997 69.8859 78.0066 69.8795C78.3401 69.8789 78.3401 69.8789 78.6803 69.8783C79.7956 69.8763 80.9109 69.8743 82.0262 69.8723C91.2793 69.8553 100.532 69.8467 109.785 69.8438C109.813 63.9253 109.833 58.0069 109.846 52.0883C109.852 49.3402 109.86 46.5921 109.874 43.8439C109.886 41.4482 109.893 39.0525 109.896 36.6568C109.897 35.3887 109.901 34.1206 109.909 32.8525C109.917 31.6578 109.92 30.4633 109.918 29.2686C109.918 28.8312 109.921 28.3937 109.925 27.9563C110.014 24.681 110.014 24.681 108.614 21.7969C106.349 19.9562 103.437 20.0048 100.638 20.2459C99.5647 20.469 99.0489 20.9321 98.4475 21.8262C98.1646 22.2806 97.8981 22.7397 97.6403 23.2088C97.1734 23.9901 96.5648 24.6388 95.9573 25.3125C95.0251 26.3816 94.1305 27.4724 93.262 28.5938C92.2822 29.8588 91.2595 31.0771 90.2105 32.2852C89.402 33.2212 88.6287 34.1785 87.8714 35.1563C86.8753 36.442 85.8365 37.6825 84.772 38.912C83.9407 39.8737 83.1367 40.8527 82.3489 41.8506C81.8391 42.492 81.318 43.1232 80.7962 43.7549C80.6222 43.9706 80.4481 44.1863 80.2688 44.4086C79.9802 44.7617 79.6844 45.1096 79.3753 45.4449C78.9164 45.9761 78.5971 46.4092 78.6484 47.1295C78.7368 47.5154 78.8327 47.8995 78.934 48.2822C79.6687 51.7606 78.8533 55.1647 76.9729 58.125C75.4885 60.2693 73.1269 61.5829 70.6366 62.2341C69.6424 62.391 68.6588 62.3851 67.6538 62.3932C67.1983 62.3998 66.7428 62.4065 66.2874 62.4133C65.5741 62.423 64.8609 62.4316 64.1476 62.4378C63.4559 62.4443 62.7644 62.4551 62.0727 62.4664C61.758 62.4676 61.758 62.4676 61.437 62.4687C59.5726 62.5045 57.7151 62.8377 56.1868 63.9697C56.0146 64.0906 55.8424 64.2114 55.665 64.3359C55.5036 64.452 55.3423 64.568 55.1761 64.6875C54.3159 65.3024 53.6203 65.7049 52.5393 65.6104C51.4727 65.3437 51.4727 65.3437 50.9573 64.6875C50.7774 64.2079 50.7774 64.2079 50.6488 63.6575C50.6005 63.4548 50.5522 63.252 50.5025 63.0431C50.4544 62.8268 50.4063 62.6105 50.3567 62.3877C50.3061 62.1636 50.2554 61.9394 50.2032 61.7085C50.0598 61.0617 49.9216 60.414 49.7854 59.7656C49.7262 59.491 49.667 59.2164 49.606 58.9334C48.6593 53.6117 48.8855 47.5756 51.8802 42.9346C52.1162 42.6051 52.3553 42.2777 52.5979 41.9531C52.7398 41.7451 52.7398 41.7451 52.8845 41.5329C54.7701 39.013 58.258 37.4615 61.2793 36.9503C62.0381 36.8432 62.7932 36.7598 63.5568 36.6925C64.5647 36.5201 65.1793 36.246 65.8317 35.4305C66.226 34.8642 66.6021 34.2889 66.9745 33.7079C67.1159 33.4917 67.2573 33.2754 67.403 33.0527C67.8561 32.3589 68.3057 31.6629 68.7552 30.9668C69.0493 30.5147 69.3436 30.0627 69.6382 29.6109C70.0785 28.9355 70.5185 28.26 70.9574 27.5837C72.1475 25.7508 73.3577 23.9318 74.5796 22.12C74.7094 21.9266 74.8393 21.7332 74.973 21.534C75.088 21.3635 75.203 21.1931 75.3215 21.0174C75.5874 20.669 75.5874 20.669 75.5667 20.3906C67.8435 20.3638 60.1204 20.3431 52.3971 20.3308C51.4848 20.3293 50.5725 20.3278 49.6601 20.3263C49.3877 20.3258 49.3877 20.3258 49.1097 20.3253C46.1711 20.3202 43.2324 20.311 40.2938 20.3002C37.2771 20.2892 34.2605 20.2827 31.2439 20.2804C29.3833 20.2788 27.5228 20.2737 25.6622 20.2642C24.2342 20.2572 22.8062 20.2565 21.3781 20.2581C20.7933 20.2578 20.2085 20.2554 19.6236 20.2509C18.8238 20.2451 18.0243 20.2465 17.2245 20.2497C16.9942 20.2463 16.7639 20.2429 16.5266 20.2394C14.6445 20.2596 13.0644 20.803 11.6995 22.1338ZM73.9261 31.875C73.7012 32.1741 73.4873 32.4814 73.2779 32.7914C73.1464 32.985 73.015 33.1785 72.8796 33.3778C72.6725 33.6853 72.6725 33.6853 72.4612 33.999C72.1916 34.3974 71.9218 34.7956 71.6519 35.1938C71.4568 35.4816 71.4568 35.4816 71.2578 35.7753C70.7516 36.5144 70.2316 37.2424 69.7073 37.9688C70.0384 38.7624 70.4057 39.1449 71.1035 39.6396C71.3788 39.8365 71.3788 39.8365 71.6597 40.0374C71.8517 40.1717 72.0437 40.306 72.2415 40.4443C72.4308 40.5795 72.6201 40.7147 72.8151 40.854C73.7126 41.4914 74.6093 42.1106 75.5667 42.6563C75.6945 42.5001 75.8223 42.3439 75.954 42.1829C76.1307 41.9669 76.3074 41.7509 76.4895 41.5283C76.776 41.1776 76.776 41.1776 77.0682 40.8197C77.4662 40.333 77.8669 39.849 78.2693 39.3658C78.4554 39.1417 78.6415 38.9175 78.8333 38.6865C79.0046 38.4814 79.1759 38.2762 79.3524 38.0649C79.7284 37.5744 80.0048 37.1252 80.2542 36.5625C78.8282 35.397 77.3748 34.2717 75.9036 33.1641C75.7361 33.0374 75.5685 32.9107 75.3959 32.7802C75.2393 32.6628 75.0826 32.5453 74.9212 32.4243C74.7098 32.2655 74.7098 32.2655 74.4941 32.1034C74.1956 31.8529 74.1956 31.8529 73.9261 31.875ZM56.8167 44.2969C54.4971 46.9594 53.958 50.0431 53.9602 53.4668C53.9601 53.7064 53.9599 53.946 53.9598 54.1929C53.9715 55.8611 54.081 57.4353 54.4729 59.0625C54.7154 58.9945 54.7154 58.9945 54.9627 58.9252C55.2931 58.8336 55.2931 58.8336 55.6302 58.7402C55.845 58.6804 56.0598 58.6206 56.2811 58.559C56.5352 58.4931 56.7893 58.4272 57.0511 58.3594C57.2759 58.3002 57.2759 58.3002 57.5053 58.2399C58.8527 57.9102 60.1214 57.8217 61.5051 57.8183C61.949 57.8124 62.3929 57.8065 62.8367 57.8004C63.5269 57.7937 64.217 57.7881 64.9071 57.7837C65.5798 57.7786 66.2524 57.7693 66.925 57.7597C67.1292 57.7597 67.3333 57.7597 67.5437 57.7596C69.4291 57.7294 71.0392 57.2387 72.5198 56.0156C73.7571 54.4646 74.4632 53.0203 74.4534 51.0059C74.4546 50.7575 74.4558 50.5092 74.4571 50.2533C74.3726 48.573 74.3726 48.573 73.5381 47.1709C73.019 46.756 72.4858 46.3811 71.9339 46.0107C71.5307 45.7285 71.1276 45.4462 70.7245 45.1639C70.5178 45.0217 70.3111 44.8795 70.0981 44.733C69.4807 44.3023 68.8757 43.8585 68.2727 43.4079C68.0829 43.2669 67.8932 43.1258 67.6977 42.9805C67.3347 42.7104 66.9724 42.4391 66.611 42.1667C66.4463 42.0461 66.2817 41.9254 66.112 41.8012C65.9685 41.6944 65.8251 41.5876 65.6772 41.4776C63.2418 40.1672 58.5733 42.5706 56.8167 44.2969ZM57.2854 95.1562C56.7904 96.2613 56.5341 97.4057 56.2582 98.5794C56.2069 98.7951 56.1555 99.0108 56.1026 99.2331C55.9946 99.6875 55.8871 100.142 55.78 100.596C55.6155 101.294 55.4494 101.991 55.2832 102.689C55.1784 103.13 55.0737 103.572 54.9692 104.014C54.9194 104.223 54.8696 104.432 54.8183 104.648C54.7728 104.841 54.7274 105.035 54.6806 105.234C54.6203 105.489 54.6203 105.489 54.5588 105.75C54.4574 106.177 54.4574 106.177 54.4729 106.641C58.3401 106.641 62.2073 106.641 66.1917 106.641C65.5998 103.977 65.0064 101.315 64.3899 98.6572C64.3539 98.5 64.3178 98.3427 64.2807 98.1806C64.1754 97.7213 64.0689 97.2623 63.9624 96.8033C63.9008 96.5368 63.8393 96.2703 63.7759 95.9957C63.6731 95.4111 63.6731 95.4111 63.3792 95.1562C62.9276 95.1357 62.4753 95.1312 62.0233 95.1334C61.7491 95.1341 61.4749 95.1349 61.1925 95.1357C60.7594 95.1386 60.7594 95.1386 60.3177 95.1416C60.0281 95.1427 59.7385 95.1437 59.4401 95.1448C58.7219 95.1476 58.0037 95.1514 57.2854 95.1562ZM41.5823 112.5C41.1732 113.231 41.1732 113.231 41.3479 115.312C53.8776 115.312 66.4073 115.312 79.3167 115.312C79.5207 113.162 79.5207 113.162 78.8772 112.251C78.0732 111.518 77.5979 111.532 76.5273 111.528C76.0851 111.525 76.0851 111.525 75.6341 111.523C75.3056 111.522 74.9771 111.522 74.6486 111.521C74.3041 111.52 73.9595 111.518 73.615 111.516C72.6775 111.512 71.74 111.51 70.8024 111.508C70.2169 111.507 69.6314 111.505 69.0458 111.504C67.2144 111.499 65.3829 111.496 63.5515 111.494C61.4363 111.492 59.3212 111.486 57.2061 111.476C55.5719 111.469 53.9378 111.466 52.3036 111.465C51.3272 111.464 50.3509 111.462 49.3746 111.456C48.456 111.451 47.5375 111.45 46.6188 111.452C46.2818 111.452 45.9448 111.451 45.6078 111.448C45.1474 111.443 44.687 111.446 44.2266 111.448C43.9691 111.448 43.7115 111.447 43.4461 111.446C42.5905 111.59 42.2003 111.903 41.5823 112.5Z" fill="white"/>
<path d="M27.7535 69.8438C28.6149 70.3119 28.8723 70.6642 29.2769 71.5576C29.4232 72.6361 29.245 73.1332 28.691 74.0625C28.0559 74.5946 27.6476 74.7465 26.8306 74.8682C25.9224 74.7384 25.4205 74.3926 24.7066 73.8281C24.3014 73.0178 24.3575 72.136 24.4722 71.25C25.3245 69.8863 26.1808 69.6325 27.7535 69.8438Z" fill="white"/>
</g>
<defs>
<clipPath id="clip0_172_1172">
<rect width="120" height="120" fill="white" transform="translate(0.332031)"/>
</clipPath>
</defs>
</svg>
