<svg width="121" height="121" viewBox="0 0 121 121" fill="none" xmlns="http://www.w3.org/2000/svg">
<g clip-path="url(#clip0_9452_20416)">
<path d="M11.5796 80.6351C11.7458 80.6359 11.912 80.6368 12.0832 80.6378C14.995 80.659 17.9058 80.7536 20.8161 80.8448C21.8535 80.8769 22.8905 80.9009 23.9282 80.917C24.3445 80.9275 24.7607 80.9382 25.177 80.9491C25.3571 80.9495 25.5373 80.95 25.7229 80.9504C26.5766 80.9798 27.0342 81.1126 27.7432 81.6C28.3681 82.5058 28.4056 83.1686 28.4143 84.245C28.4202 84.4186 28.4261 84.5921 28.4322 84.771C28.4459 85.1961 28.4528 85.6214 28.4582 86.0467C28.6658 85.9561 28.8734 85.8655 29.0872 85.7721C30.721 85.0781 32.3375 84.5001 34.0686 84.0985C34.229 84.0613 34.3894 84.024 34.5547 83.9857C40.9948 82.5661 47.1221 83.9327 52.931 86.8515C55.3009 88.0286 57.5724 88.6212 60.229 88.6871C60.524 88.6949 60.8191 88.7028 61.1231 88.7109C61.2786 88.7146 61.4341 88.7183 61.5943 88.7221C62.0876 88.734 62.5808 88.7473 63.074 88.761C64.4754 88.7996 65.8769 88.8361 67.2784 88.8709C68.139 88.8923 68.9995 88.9156 69.86 88.9401C70.1845 88.9489 70.5091 88.957 70.8337 88.9644C75.4764 89.0701 79.4296 89.7483 82.8735 93.1055C83.6231 93.9262 84.0732 94.6163 84.4739 95.6561C84.6735 95.5622 84.8732 95.4682 85.0789 95.3714C85.213 95.3083 85.3472 95.2452 85.4853 95.1801C85.7928 95.0355 86.1002 94.8908 86.4076 94.7461C87.2841 94.3335 88.1609 93.9212 89.0378 93.5095C90.7313 92.7141 92.4239 91.9169 94.1109 91.1079C94.8236 90.7662 95.5371 90.4261 96.2506 90.0861C96.5892 89.9242 96.9275 89.7616 97.2653 89.5981C100.956 87.8135 104.288 86.6682 108.347 88.0655C110.391 88.9681 112.195 90.4118 113.302 92.3749C113.581 93.1018 113.59 93.4388 113.536 94.2499C112.629 95.6056 111.426 96.3267 110.05 97.1649C109.586 97.4539 109.122 97.7432 108.658 98.0328C108.419 98.1813 108.179 98.3298 107.933 98.4828C106.759 99.2193 105.599 99.979 104.44 100.739C103.988 101.034 103.537 101.329 103.086 101.624C102.871 101.765 102.656 101.905 102.435 102.05C101.062 102.946 99.6853 103.835 98.3086 104.724C97.4858 105.256 96.6635 105.788 95.8411 106.32C95.509 106.535 95.177 106.75 94.845 106.965C94.6806 107.071 94.5163 107.177 94.3469 107.287C92.5208 108.469 90.6946 109.65 88.8684 110.832C88.7041 110.938 88.5398 111.045 88.3705 111.154C88.0381 111.369 87.7057 111.584 87.3732 111.799C86.5485 112.333 85.7241 112.867 84.9005 113.402C84.0753 113.938 83.2485 114.471 82.4211 115.004C82.0577 115.239 81.695 115.475 81.3328 115.712C76.5499 118.837 72.1423 120.53 66.3684 120.573C66.0747 120.58 65.7811 120.587 65.4785 120.594C60.4608 120.627 55.5782 118.783 50.7961 117.421C49.8783 117.159 48.96 116.9 48.0418 116.64C47.6797 116.537 47.3176 116.434 46.9555 116.332C46.2438 116.13 45.5321 115.929 44.8202 115.728C43.2364 115.28 41.6543 114.829 40.0764 114.36C39.8115 114.283 39.5466 114.205 39.2736 114.125C38.7947 113.985 38.3165 113.842 37.8394 113.696C35.5803 113.04 33.4329 112.943 31.2707 113.937C31.0466 114.04 31.0466 114.04 30.8179 114.144C30.2989 114.387 29.7887 114.643 29.2786 114.904C29.1099 114.984 28.9413 115.064 28.7675 115.147C28.2751 115.412 27.9038 115.638 27.5207 116.047C27.3642 116.604 27.3222 117.088 27.3202 117.666C27.2677 118.427 26.8797 118.813 26.3489 119.328C23.919 120.543 18.8503 119.504 16.2039 119.426C15.5896 119.41 14.9753 119.395 14.3609 119.382C13.4656 119.364 12.5708 119.338 11.6757 119.311C11.4013 119.306 11.1269 119.302 10.8442 119.298C9.7579 119.258 8.97662 119.203 8.00914 118.689C7.33685 117.432 7.46578 116.201 7.50457 114.799C7.50974 114.462 7.51446 114.126 7.51877 113.789C7.53341 112.811 7.55687 111.833 7.58205 110.855C7.59978 110.151 7.61568 109.447 7.63119 108.743C7.71086 105.154 7.8086 101.566 7.91115 97.9777C7.94427 96.8063 7.976 95.6349 8.00772 94.4634C8.0387 93.3252 8.07045 92.1869 8.10245 91.0486C8.11752 90.51 8.13237 89.9713 8.147 89.4326C8.18552 88.024 8.22772 86.6157 8.28073 85.2075C8.29401 84.8534 8.3064 84.4992 8.31743 84.145C8.33083 83.7443 8.35085 83.3438 8.37164 82.9434C8.38556 82.6438 8.38556 82.6438 8.39976 82.3382C8.58476 81.6473 8.93556 81.3471 9.47387 80.8905C10.1722 80.5413 10.8011 80.6305 11.5796 80.6351ZM12.5207 84.8749C12.4279 87.8479 12.3361 90.821 12.2457 93.7941C12.2037 95.1754 12.1613 96.5567 12.118 97.938C11.9389 103.664 11.7676 109.38 11.8176 115.109C17.5024 115.225 17.5024 115.225 23.302 115.344C23.4276 110.965 23.4276 110.965 23.5519 106.586C23.6025 104.796 23.6531 103.007 23.7047 101.217C23.7464 99.7719 23.7873 98.3267 23.8278 96.8814C23.8433 96.334 23.859 95.7867 23.8749 95.2393C23.9732 91.8615 24.0262 88.4885 24.0051 85.1092C22.9346 85.0753 21.8641 85.0418 20.7936 85.0091C20.4311 84.9979 20.0687 84.9866 19.7062 84.975C19.1784 84.9582 18.6507 84.9421 18.1229 84.9261C17.9667 84.921 17.8105 84.9159 17.6496 84.9106C15.9403 84.8602 14.2306 84.8704 12.5207 84.8749ZM30.3332 89.7967C30.1381 89.8762 29.9429 89.9557 29.7418 90.0376C29.0571 90.3667 28.5409 90.6775 27.9895 91.203C27.6341 92.2188 27.6512 93.2014 27.6581 94.27C27.651 94.572 27.6439 94.874 27.6366 95.1852C27.6179 95.9899 27.6131 96.7942 27.6113 97.5992C27.607 98.397 27.5893 99.1944 27.5729 99.9921C27.538 101.828 27.5259 103.664 27.5207 105.5C27.5199 105.788 27.5191 106.076 27.5183 106.373C27.5148 107.957 27.5152 109.541 27.5207 111.125C27.8929 110.943 27.8929 110.943 28.2726 110.758C31.4965 109.19 34.1669 108.531 37.7551 109.409C37.9273 109.45 38.0995 109.491 38.2769 109.534C40.3964 110.052 42.493 110.651 44.5908 111.25C45.025 111.373 45.4592 111.497 45.8934 111.62C47.0249 111.94 48.1562 112.262 49.2873 112.584C51.1009 113.1 52.9148 113.615 54.7289 114.129C55.3562 114.307 55.9835 114.486 56.6106 114.665C60.6401 115.891 60.6401 115.891 64.7864 116.515C64.9667 116.528 65.1471 116.54 65.3329 116.553C71.1391 116.758 75.5601 114.545 80.2389 111.373C81.4272 110.576 82.6361 109.812 83.844 109.045C85.8985 107.734 87.9434 106.41 89.9817 105.075C90.2392 104.906 90.4967 104.738 90.7619 104.564C91.2562 104.24 91.7505 103.916 92.2448 103.592C94.9781 101.804 97.7301 100.044 100.483 98.2855C103.048 96.6444 105.598 94.9809 108.146 93.3124C107.989 92.5894 107.989 92.5894 107.458 92.3355C105.829 91.6723 104.367 91.2851 102.652 91.8653C100.355 92.844 98.1069 93.92 95.8557 94.9969C95.4366 95.1968 95.0174 95.3967 94.5982 95.5964C93.7801 95.9865 92.9621 96.3768 92.1443 96.7676C90.9711 97.3281 89.7971 97.887 88.623 98.4456C87.7866 98.8435 86.9505 99.2419 86.1145 99.6405C86.1057 99.8861 86.097 100.132 86.088 100.385C86.0726 100.708 86.057 101.031 86.0413 101.354C86.0333 101.597 86.0333 101.597 86.0252 101.845C85.9611 103.052 85.9611 103.052 85.5751 103.55C84.1082 104.69 81.1111 104.078 79.325 104.022C78.9584 104.012 78.5919 104.002 78.2253 103.991C77.2612 103.964 76.2971 103.935 75.3331 103.906C74.5627 103.883 73.7923 103.861 73.022 103.84C71.1742 103.788 69.3266 103.732 67.4791 103.673C66.659 103.647 65.8388 103.621 65.0186 103.598C64.1916 103.574 63.3647 103.548 62.5378 103.52C62.3 103.514 62.0622 103.508 61.8172 103.502C61.6014 103.494 61.3855 103.486 61.1632 103.478C60.9785 103.473 60.7939 103.467 60.6037 103.461C60.034 103.381 59.6493 103.224 59.1614 102.922C58.7893 102.178 58.8307 101.388 58.927 100.578C59.2887 100.068 59.545 99.9174 60.0989 99.6405C60.6434 99.6203 61.1886 99.6162 61.7335 99.6194C61.9 99.6203 62.0665 99.6212 62.2381 99.6221C64.2135 99.6365 66.1881 99.689 68.1628 99.743C68.5621 99.7536 68.9614 99.7641 69.3606 99.7746C70.3978 99.8019 71.435 99.8298 72.4722 99.8578C73.5361 99.8864 74.5999 99.9145 75.6638 99.9426C77.7411 99.9976 79.8184 100.053 81.8958 100.109C81.7509 99.6942 81.6045 99.2797 81.4574 98.8654C81.3761 98.6345 81.2947 98.4036 81.2109 98.1657C80.4773 96.323 78.7476 94.8437 76.9739 94.0155C74.9806 93.2892 73.0394 93.1927 70.9351 93.1576C70.6056 93.1496 70.2761 93.1412 69.9467 93.1325C69.085 93.1104 68.2233 93.0917 67.3616 93.0741C65.9864 93.0459 64.6114 93.0139 63.2364 92.9789C62.763 92.9676 62.2897 92.9588 61.8163 92.9502C57.1064 92.8377 53.2495 91.78 49.0346 89.7039C47.2894 88.8603 45.5945 88.2993 43.6926 87.9217C43.4745 87.8773 43.2564 87.8329 43.0316 87.7872C38.6515 87.2006 34.3313 87.9507 30.3332 89.7967Z" fill="white"/>
<path d="M60.7998 26.4782C68.6359 26.2666 75.8157 29.2159 81.6354 34.381C86.8625 39.3922 90.1484 46.3241 90.4006 53.5796C90.5731 62.1133 88.0278 69.2361 82.1316 75.5001C81.9935 75.656 81.8555 75.8119 81.7132 75.9725C76.9905 81.0793 69.5705 83.6499 62.781 84.0035C55.0379 84.249 47.7962 81.5045 42.1313 76.2499C41.8607 75.9948 41.8607 75.9948 41.5847 75.7345C41.4261 75.591 41.2675 75.4475 41.1041 75.2996C37.4621 71.8766 35.1609 67.1334 33.8503 62.3751C33.7706 62.0884 33.6908 61.8017 33.6086 61.5063C32.6294 57.2493 32.7089 52.3026 33.8503 48.0782C33.8957 47.91 33.941 47.7418 33.9877 47.5685C36.0319 40.2842 40.8796 34.0411 47.4441 30.2657C51.6071 27.941 56.0514 26.733 60.7998 26.4782ZM43.102 39.2478C38.2795 44.7334 36.946 51.5082 37.366 58.6251C37.5218 60.0081 37.8617 61.2924 38.3035 62.6095C38.3524 62.7574 38.4014 62.9053 38.4519 63.0577C40.475 69.0149 44.668 73.9478 50.1678 76.9942C56.2487 79.9187 63.0243 80.7774 69.4845 78.5586C72.5082 77.4569 75.2468 75.9828 77.6785 73.8595C77.8332 73.7383 77.9878 73.6172 78.1472 73.4923C82.6106 69.9018 85.3934 63.9896 86.116 58.3907C86.5949 51.5936 85.2621 45.2874 80.8993 39.9282C80.3869 39.3479 79.8583 38.7898 79.3191 38.2345C79.1614 38.0595 79.0037 37.8846 78.8412 37.7044C74.8365 33.4072 68.7073 30.9121 62.8845 30.6869C55.1262 30.5465 48.3586 33.5304 43.102 39.2478Z" fill="white"/>
<path d="M62.4418 36.5936C63.0116 37.032 63.2951 37.3627 63.6137 37.9999C63.6301 38.4 63.6335 38.8007 63.6284 39.2011C63.6262 39.4144 63.6241 39.6277 63.6219 39.8474C63.6192 40.0112 63.6165 40.1749 63.6137 40.3436C63.7584 40.3754 63.9031 40.4071 64.0522 40.4398C66.3556 41.0252 67.9501 42.22 69.1874 44.2548C70.0626 45.9153 70.4865 47.6019 70.1762 49.4843C69.7075 50.2313 69.7075 50.2313 69.0043 50.6561C68.295 50.8107 67.8773 50.763 67.1293 50.6561C66.21 49.9583 66.0433 49.339 65.8549 48.2245C65.5743 46.8857 65.3554 46.1625 64.3168 45.2655C63.177 44.6203 62.1011 44.3396 60.8012 44.5624C59.5861 44.9741 58.6319 45.5338 57.9887 46.6718C57.5138 48.0399 57.3761 49.1475 57.9942 50.4804C58.5694 51.5112 59.1188 52.1845 60.2446 52.6236C60.9956 52.8151 61.7449 52.886 62.5151 52.9706C64.7869 53.2442 66.7586 54.0737 68.3012 55.8124C69.9907 58.2042 70.4468 60.4147 70.1762 63.3124C69.756 65.5769 68.4195 67.2202 66.6331 68.6243C65.6703 69.2649 64.7376 69.6173 63.6137 69.8749C63.6191 70.0332 63.6246 70.1915 63.6302 70.3546C63.6344 70.5637 63.6386 70.7728 63.643 70.9882C63.6484 71.1948 63.6539 71.4015 63.6595 71.6144C63.6105 72.2608 63.499 72.6169 63.145 73.1561C62.2794 73.7332 61.5716 73.7586 60.5668 73.6249C59.8084 73.2165 59.6706 73.0456 59.395 72.2186C59.3789 71.7746 59.3751 71.33 59.3803 70.8856C59.3824 70.6527 59.3845 70.4198 59.3867 70.1798C59.3894 70.0018 59.3922 69.8239 59.395 69.6405C59.1339 69.5988 59.1339 69.5988 58.8676 69.5563C56.6933 69.0498 55.2774 67.2736 54.0821 65.5106C53.4373 64.3589 53.2287 63.3067 53.2133 61.994C53.2067 61.7348 53.2 61.4756 53.1932 61.2085C53.3012 60.4999 53.3012 60.4999 53.7095 59.9451C54.299 59.5188 54.5746 59.4354 55.2934 59.4452C55.4698 59.4428 55.6463 59.4404 55.8281 59.4379C56.5632 59.6139 56.8288 59.9023 57.2856 60.4999C57.498 61.2168 57.498 61.2168 57.6371 62.0087C57.8736 63.351 58.2393 64.215 59.362 65.0382C60.4803 65.5996 61.4263 65.8959 62.6762 65.6561C63.8952 65.2402 64.8319 64.6835 65.4887 63.5468C66.0206 62.1893 66.0241 61.152 65.4841 59.7986C64.8702 58.5414 64.1821 57.998 62.9106 57.453C62.3566 57.3695 61.7991 57.3071 61.2407 57.2626C58.8795 56.986 56.5544 56.0426 55.0132 54.1535C53.4146 51.7249 52.9416 49.5584 53.3012 46.6718C53.9574 44.1422 55.3007 42.4668 57.4751 41.0834C58.1084 40.7492 58.6811 40.6146 59.395 40.578C59.3827 40.3193 59.3827 40.3193 59.3702 40.0553C59.3061 37.7419 59.3061 37.7419 60.0981 36.828C60.8463 36.4539 61.6296 36.473 62.4418 36.5936Z" fill="white"/>
<path d="M62.676 0.499981C63.4345 0.908387 63.5723 1.07932 63.8479 1.90623C63.8741 2.53814 63.8872 3.16416 63.8894 3.79622C63.8909 3.98875 63.8925 4.18128 63.8941 4.37965C63.8987 5.01697 63.9014 5.65427 63.9037 6.29161C63.9047 6.50929 63.9057 6.72697 63.9066 6.95125C63.9115 8.10298 63.9149 9.2547 63.9171 10.4064C63.9197 11.5963 63.9277 12.786 63.937 13.9758C63.9432 14.8907 63.9451 15.8055 63.946 16.7204C63.9471 17.159 63.9498 17.5976 63.9542 18.0362C63.9599 18.6501 63.9597 19.2636 63.958 19.8775C63.9611 20.0584 63.9641 20.2394 63.9671 20.4258C63.9587 21.2954 63.877 21.7829 63.4016 22.5213C62.8162 23.0918 62.5941 23.2174 61.7825 23.3076C60.8641 23.2176 60.5167 22.9314 59.8635 22.2969C59.4954 21.5607 59.5925 20.7731 59.5914 19.9647C59.5902 19.7722 59.5891 19.5797 59.5879 19.3814C59.5844 18.7428 59.5828 18.1042 59.5815 17.4656C59.5802 17.0224 59.5788 16.5793 59.5775 16.1361C59.575 15.2059 59.5737 14.2757 59.5728 13.3456C59.5716 12.1539 59.5659 10.9623 59.5593 9.77066C59.5549 8.85481 59.5537 7.93897 59.5533 7.0231C59.5526 6.58382 59.5507 6.14453 59.5476 5.70526C59.5436 5.09032 59.5441 4.47554 59.5456 3.8606C59.5434 3.67926 59.5413 3.49793 59.5391 3.3111C59.5472 2.25576 59.6749 1.57167 60.3323 0.734356C61.0788 0.36111 61.8635 0.40827 62.676 0.499981Z" fill="white"/>
<path d="M77.4417 10.3438C78.2001 10.7522 78.3379 10.9232 78.6135 11.7501C78.6382 12.0782 78.6507 12.4074 78.655 12.7365C78.658 12.9344 78.661 13.1323 78.6641 13.3363C78.6659 13.5494 78.6676 13.7625 78.6694 13.9821C78.6713 14.2021 78.6732 14.422 78.6751 14.6486C78.6784 15.1139 78.6809 15.5792 78.6827 16.0446C78.6868 16.7555 78.697 17.4662 78.7074 18.1771C78.7098 18.6294 78.7118 19.0816 78.7133 19.5339C78.7174 19.7461 78.7215 19.9583 78.7258 20.1769C78.7224 21.1644 78.7011 21.6878 78.1679 22.5429C77.5669 23.1016 77.3552 23.2248 76.5335 23.2784C75.8102 23.235 75.4471 23.1825 74.8635 22.7657C74.4552 22.0906 74.334 21.5778 74.323 20.7937C74.3192 20.5911 74.3155 20.3885 74.3116 20.1797C74.3104 19.9627 74.3091 19.7456 74.3078 19.522C74.3057 19.2972 74.3036 19.0724 74.3014 18.8408C74.298 18.3658 74.2959 17.8909 74.2951 17.4159C74.2923 16.69 74.2807 15.9645 74.2689 15.2387C74.2667 14.7768 74.265 14.3149 74.2639 13.8531C74.2593 13.6365 74.2547 13.4199 74.25 13.1967C74.2575 12.122 74.2784 11.6652 74.9582 10.7924C75.8885 10.1066 76.3091 10.2 77.4417 10.3438Z" fill="white"/>
<path d="M47.9138 10.3437C48.6723 10.7521 48.81 10.9231 49.0857 11.75C49.1103 12.0781 49.1228 12.4073 49.1272 12.7363C49.1302 12.9343 49.1332 13.1322 49.1363 13.3362C49.138 13.5493 49.1397 13.7624 49.1415 13.982C49.1434 14.202 49.1453 14.4219 49.1473 14.6485C49.1505 15.1138 49.153 15.5791 49.1549 16.0445C49.1589 16.7554 49.1692 17.4661 49.1795 18.177C49.1819 18.6293 49.1839 19.0815 49.1855 19.5338C49.1896 19.746 49.1937 19.9582 49.1979 20.1768C49.1945 21.1643 49.1733 21.6877 48.64 22.5428C48.0524 23.089 47.8184 23.2189 47.0202 23.3076C46.1019 23.2176 45.7545 22.9314 45.1013 22.2969C44.8346 21.7634 44.8346 21.4611 44.8292 20.8683C44.8269 20.6704 44.8247 20.4724 44.8223 20.2685C44.8213 20.0541 44.8203 19.8398 44.8193 19.6189C44.818 19.3987 44.8166 19.1784 44.8153 18.9515C44.8131 18.4848 44.8115 18.018 44.8106 17.5513C44.8083 16.8383 44.8011 16.1255 44.7937 15.4125C44.7922 14.9592 44.7909 14.5059 44.79 14.0525C44.7871 13.8396 44.7842 13.6267 44.7812 13.4073C44.7852 12.2753 44.8188 11.4904 45.57 10.5781C46.3165 10.2049 47.1013 10.252 47.9138 10.3437Z" fill="white"/>
</g>
<defs>
<clipPath id="clip0_9452_20416">
<rect width="120" height="120" fill="white" transform="translate(0.335938 0.5)"/>
</clipPath>
</defs>
</svg>
