<svg width="121" height="121" viewBox="0 0 121 121" fill="none" xmlns="http://www.w3.org/2000/svg">
<g clip-path="url(#clip0_9452_20425)">
<path d="M60.6596 0.338928C60.9891 0.330318 60.9891 0.330318 61.3252 0.321533C63.5027 0.836196 65.0504 2.68477 66.5483 4.23541C68.1225 5.86432 68.1225 5.86432 69.792 7.39307C71.2088 8.60553 72.4928 9.96182 73.8015 11.2883C75.0187 12.5206 76.2382 13.73 77.5562 14.856C78.6976 15.8684 79.7452 16.9849 80.815 18.0718C81.8167 19.0832 82.8331 20.0539 83.9129 20.9814C84.5816 21.5648 85.2126 22.1827 85.8403 22.8096C85.9621 22.9285 86.0838 23.0474 86.2093 23.1699C87.2653 24.2219 87.6944 24.876 87.7007 26.3692C87.6723 27.6221 87.5095 28.5211 86.581 29.4298C84.0694 31.5975 83.4576 30.5001 78.7212 30.5001C78.7212 35.0633 78.7212 39.6266 78.7212 44.3282C80.3766 44.3227 80.3766 44.3227 82.0655 44.317C85.712 44.3054 89.3585 44.2976 93.005 44.2918C95.2159 44.2881 97.4267 44.2832 99.6376 44.2751C101.565 44.2681 103.493 44.2636 105.42 44.262C106.44 44.2611 107.46 44.259 108.48 44.2538C109.442 44.2491 110.403 44.2476 111.364 44.2487C111.716 44.2485 112.068 44.2471 112.419 44.2444C115.159 44.2243 117.473 44.441 119.502 46.4376C120.779 48.1714 120.851 49.9924 120.814 52.0595C120.806 52.5616 120.809 53.0628 120.814 53.5649C120.812 55.6686 120.659 57.1165 119.225 58.7331C119.051 58.8811 118.876 59.0292 118.697 59.1817C118.523 59.3334 118.349 59.485 118.17 59.6413C117.292 60.2725 116.528 60.5661 115.445 60.5294C115.16 60.5197 114.874 60.51 114.581 60.5001C114.618 60.6267 114.656 60.7534 114.695 60.8839C114.945 62.0401 114.858 63.2479 114.859 64.4258C114.862 64.6965 114.865 64.9672 114.868 65.2462C114.871 67.4844 114.871 67.4844 114.531 68.6034C114.258 69.3842 114.258 69.3842 114.635 69.9419C114.786 70.0794 114.937 70.2168 115.093 70.3585C116.137 71.33 116.632 72.3464 116.773 73.7528C116.77 74.1831 116.77 74.1831 116.767 74.6221C116.766 74.7777 116.766 74.9333 116.765 75.0936C116.764 75.42 116.761 75.7463 116.756 76.0727C116.749 76.5689 116.746 77.065 116.745 77.5614C116.729 79.9721 116.729 79.9721 116.55 80.9649C116.384 81.5993 116.384 81.5993 116.767 82.0754C116.915 82.2162 117.064 82.357 117.217 82.502C118.519 83.7445 118.83 85.0887 118.901 86.8288C118.905 87.3787 118.905 87.9287 118.902 88.4786C118.907 88.7523 118.911 89.026 118.916 89.308C118.915 91.4774 118.593 93.2933 117.085 94.9239C116.316 95.6281 115.507 96.1209 114.581 96.5938C114.619 96.7196 114.657 96.8454 114.696 96.9751C114.838 97.6393 114.845 98.2517 114.846 98.9312C114.846 99.1999 114.847 99.4686 114.847 99.7455C114.846 100.025 114.845 100.305 114.844 100.593C114.845 100.873 114.846 101.154 114.847 101.443C114.847 101.846 114.847 101.846 114.846 102.256C114.846 102.502 114.846 102.748 114.845 103.001C114.815 103.625 114.815 103.625 114.581 104.328C114.88 104.338 115.18 104.348 115.489 104.357C117.096 104.545 118.441 105.264 119.486 106.506C120.707 108.296 120.732 109.823 120.743 111.936C120.746 112.282 120.751 112.628 120.758 112.974C120.803 115.238 120.809 116.948 119.225 118.733C118.964 118.955 118.964 118.955 118.697 119.182C118.523 119.333 118.349 119.485 118.17 119.641C117.045 120.45 116.03 120.569 114.672 120.563C114.495 120.564 114.317 120.565 114.134 120.566C113.539 120.569 112.945 120.569 112.35 120.568C111.924 120.57 111.497 120.571 111.071 120.573C109.912 120.577 108.754 120.578 107.596 120.578C106.872 120.579 106.148 120.58 105.424 120.581C102.897 120.585 100.371 120.587 97.8449 120.587C95.4912 120.587 93.1376 120.592 90.7839 120.599C88.7622 120.605 86.7404 120.608 84.7187 120.607C83.5116 120.607 82.3046 120.609 81.0976 120.614C79.962 120.618 78.8265 120.618 77.6909 120.615C77.2748 120.614 76.8587 120.615 76.4426 120.618C75.8731 120.622 75.3039 120.62 74.7344 120.616C74.571 120.618 74.4076 120.621 74.2393 120.623C72.7185 120.602 71.5392 120.045 70.41 119.059C70.262 118.887 70.1139 118.715 69.9614 118.537C69.8097 118.366 69.6581 118.195 69.5018 118.019C68.7086 116.868 68.5844 115.762 68.589 114.388C68.5891 114.235 68.5892 114.082 68.5893 113.924C68.5901 113.604 68.5919 113.283 68.5948 112.963C68.5991 112.471 68.5996 111.979 68.5996 111.488C68.6084 109.085 68.6084 109.085 68.8774 108.547C68.5294 108.569 68.5294 108.569 68.1743 108.591C66.8541 108.594 65.7425 108.098 64.6587 107.375C64.5756 107.475 64.4925 107.575 64.4069 107.678C58.2977 114.852 50.1419 119.309 40.7524 120.5C30.3149 121.005 20.9357 118.743 12.8618 111.828C12.65 111.648 12.4382 111.467 12.22 111.282C10.6966 109.944 9.40352 108.517 8.17429 106.906C8.01537 106.701 7.85646 106.497 7.69272 106.286C5.18333 102.956 3.24476 99.2008 2.02195 95.2169C1.96707 95.0404 1.9122 94.8639 1.85566 94.6821C0.929623 91.507 0.555803 88.3689 0.582624 85.0727C0.5864 84.5236 0.582629 83.9749 0.578161 83.4258C0.57351 80.1901 1.02325 77.051 1.96335 73.9473C2.02095 73.757 2.07854 73.5667 2.13788 73.3705C3.64976 68.6498 6.11815 64.4699 9.34617 60.7344C9.44621 60.6183 9.54625 60.5023 9.64932 60.3826C11.1328 58.6741 12.6899 57.1799 14.5024 55.8126C14.6897 55.6712 14.877 55.5298 15.07 55.3841C23.4655 49.2933 32.4261 47.8942 42.6274 48.7813C42.6274 42.7485 42.6274 36.7157 42.6274 30.5001C40.5391 30.5001 38.4509 30.5001 36.2993 30.5001C34.1899 29.0938 34.1899 29.0938 33.7212 27.6876C33.6876 27.3126 33.6695 26.9361 33.6626 26.5596C33.6535 26.2673 33.6535 26.2673 33.6443 25.9691C33.8137 24.5915 34.5964 23.6781 35.555 22.73C35.664 22.6214 35.773 22.5128 35.8853 22.401C36.1151 22.1727 36.3458 21.9452 36.5773 21.7186C36.9258 21.3774 37.2717 21.0339 37.6172 20.6897C38.7155 19.6005 39.833 18.5468 41.0068 17.5393C41.8591 16.7822 42.6492 15.9615 43.4477 15.1485C44.5454 14.0309 45.6555 12.9571 46.843 11.9355C47.7028 11.1707 48.5011 10.3442 49.3071 9.5235C50.256 8.55731 51.201 7.60223 52.2295 6.72015C53.5041 5.62412 54.6554 4.40492 55.8202 3.19446C58.6309 0.33058 58.6309 0.33058 60.6596 0.338928ZM59.9216 5.18762C59.7102 5.40301 59.4987 5.61841 59.2809 5.84033C59.1663 5.95609 59.0518 6.07185 58.9338 6.19112C58.5656 6.56352 58.1989 6.93743 57.8325 7.31158C57.3542 7.79854 56.8751 8.28473 56.3951 8.77002C56.278 8.88848 56.1608 9.00695 56.0401 9.129C55.2643 9.90796 54.4618 10.6384 53.6258 11.3513C52.7296 12.1429 51.9029 13.0072 51.0649 13.8594C49.9267 15.0171 48.7797 16.1356 47.5484 17.1938C46.6896 17.9568 45.893 18.7824 45.0884 19.6016C43.9814 20.7287 42.8623 21.8145 41.6647 22.8451C40.981 23.4452 40.3383 24.0831 39.6977 24.7286C39.572 24.8534 39.4464 24.9781 39.3169 25.1067C38.6922 25.6096 38.6922 25.6096 38.4087 26.2813C38.7057 26.2901 39.0026 26.2988 39.3086 26.3079C39.7069 26.3233 40.1051 26.3388 40.5034 26.3546C40.6981 26.3598 40.8928 26.3651 41.0935 26.3706C42.7765 26.4426 44.3127 26.7004 45.6596 27.7608C46.617 29.0082 46.6823 30.2805 46.6865 31.8069C46.6889 32.0037 46.6912 32.2005 46.6937 32.4032C46.7009 33.05 46.7049 33.6967 46.7088 34.3434C46.7132 34.7933 46.7178 35.2432 46.7226 35.6931C46.7346 36.8745 46.7439 38.0558 46.7526 39.2372C46.762 40.4438 46.774 41.6504 46.7857 42.8569C46.8084 45.2223 46.8282 47.5877 46.8462 49.9532C46.9743 49.9998 47.1024 50.0464 47.2344 50.0944C47.8204 50.3079 48.4062 50.5223 48.9919 50.7366C49.1934 50.8099 49.395 50.8832 49.6026 50.9587C50.9827 51.4646 52.3087 52.0141 53.5991 52.7217C53.7814 52.8199 53.9637 52.9181 54.1516 53.0192C57.1012 54.6432 59.7214 56.673 62.0659 59.0938C62.5315 59.6131 62.5315 59.6131 63.2524 59.7969C63.3267 59.6752 63.4011 59.5534 63.4776 59.428C64.8263 57.4125 66.6019 56.8176 68.8774 56.2813C68.8725 56.0639 68.8676 55.8466 68.8625 55.6226C68.8465 54.8084 68.8348 53.9943 68.8259 53.18C68.8212 52.829 68.8149 52.478 68.8067 52.1271C68.7539 49.799 68.7867 48.129 70.3569 46.2618C71.6916 45.1444 72.8436 44.7184 74.5024 44.3282C74.5038 44.1498 74.5052 43.9714 74.5066 43.7876C74.5202 42.1014 74.5371 40.4153 74.5577 38.7293C74.5681 37.8626 74.5773 36.9959 74.5836 36.1291C74.5897 35.2917 74.5992 34.4544 74.611 33.6171C74.6149 33.2986 74.6176 32.9801 74.619 32.6615C74.6294 30.6121 74.6656 29.1518 75.9526 27.4971C77.3459 26.4135 79.1292 26.4319 80.8305 26.3692C81.0345 26.3601 81.2384 26.3511 81.4485 26.3417C81.9456 26.3199 82.4427 26.3004 82.9399 26.2813C81.9331 25.0631 80.8651 23.9808 79.7026 22.9122C78.0783 21.4035 76.4977 19.8586 74.9443 18.277C74.2111 17.5345 73.473 16.8163 72.6796 16.1382C71.2558 14.9117 69.9598 13.5486 68.6409 12.2118C67.4162 10.9721 66.1894 9.75457 64.8631 8.62205C63.8933 7.76534 63.0079 6.81722 62.108 5.8884C61.9594 5.73718 61.8107 5.58597 61.6576 5.43018C61.5247 5.29333 61.3918 5.15649 61.2548 5.0155C60.6575 4.50359 60.4887 4.67468 59.9216 5.18762ZM73.3305 49.0157C72.6023 50.108 72.7754 51.2318 72.7739 52.5167C72.7682 52.7739 72.7624 53.0312 72.7565 53.2962C72.7556 53.5438 72.7547 53.7914 72.7538 54.0465C72.7518 54.2728 72.7499 54.4991 72.7479 54.7322C72.8993 55.5455 73.1468 55.7775 73.7993 56.2813C74.5872 56.4227 74.5872 56.4227 75.4895 56.4004C75.66 56.4018 75.8305 56.4033 76.0062 56.4048C76.5777 56.4085 77.149 56.4056 77.7205 56.4026C78.1301 56.4039 78.5398 56.4056 78.9494 56.4076C80.0622 56.4119 81.1749 56.4102 82.2877 56.4072C83.4515 56.4049 84.6153 56.4071 85.7791 56.4085C87.7337 56.4102 89.6882 56.408 91.6427 56.4035C93.9033 56.3984 96.1639 56.4001 98.4245 56.4052C100.364 56.4095 102.304 56.4101 104.244 56.4076C105.403 56.4062 106.562 56.406 107.721 56.4091C108.811 56.4118 109.901 56.4099 110.99 56.4045C111.39 56.4033 111.791 56.4036 112.191 56.4057C112.737 56.4082 113.282 56.405 113.828 56.4004C114.133 56.4 114.439 56.3996 114.754 56.3993C115.645 56.2617 115.924 56.0596 116.456 55.3438C116.599 54.7279 116.599 54.7279 116.58 54.0547C116.581 53.8082 116.582 53.5617 116.584 53.3077C116.578 52.9234 116.578 52.9234 116.573 52.5313C116.576 52.2751 116.58 52.0189 116.584 51.7549C116.582 51.3851 116.582 51.3851 116.58 51.0079C116.578 50.6707 116.578 50.6707 116.577 50.3267C116.422 49.5515 116.12 49.2763 115.518 48.7813C114.83 48.4371 114.22 48.5166 113.451 48.5156C113.202 48.5148 113.202 48.5148 112.947 48.514C112.387 48.5125 111.827 48.5127 111.267 48.5129C110.867 48.5122 110.467 48.5114 110.066 48.5105C108.977 48.5084 107.887 48.5079 106.798 48.5077C105.889 48.5075 104.98 48.5067 104.072 48.5058C101.928 48.5039 99.7851 48.5033 97.6418 48.5035C95.4289 48.5036 93.2159 48.5012 91.003 48.4975C89.1049 48.4944 87.2068 48.4931 85.3087 48.4933C84.1742 48.4934 83.0398 48.4927 81.9054 48.4902C80.8385 48.4879 79.7716 48.4879 78.7047 48.4896C78.3128 48.4899 77.9209 48.4893 77.5289 48.4879C76.9946 48.4861 76.4602 48.4872 75.9258 48.489C75.6266 48.4889 75.3273 48.4887 75.019 48.4886C74.3023 48.5443 73.9142 48.6092 73.3305 49.0157ZM16.8462 59.5626C16.5346 59.7982 16.2225 60.0331 15.9087 60.2657C16.2549 61.0748 16.7144 61.5898 17.3442 62.1993C17.5989 62.4476 17.5989 62.4476 17.8587 62.701C17.9887 62.8255 18.1186 62.9499 18.2524 63.0782C19.0932 62.6978 19.793 62.185 20.5376 61.6426C24.8442 58.6037 29.5167 57.3547 34.6587 56.5157C34.6587 55.2782 34.6587 54.0407 34.6587 52.7657C28.1771 52.7657 21.8375 55.5469 16.8462 59.5626ZM38.8774 52.7657C38.8774 54.0032 38.8774 55.2407 38.8774 56.5157C39.2569 56.584 39.6364 56.6522 40.0273 56.7226C45.0896 57.6635 49.4109 59.0328 53.5634 62.2112C54.1521 62.6616 54.1521 62.6616 55.0493 63.0782C56.2094 61.918 56.2094 61.918 57.393 60.7344C56.8998 59.7479 56.4045 59.3231 55.5327 58.713C55.3886 58.6119 55.2445 58.5109 55.096 58.4069C50.3814 55.1893 44.6598 52.7657 38.8774 52.7657ZM67.2368 61.2032C66.4869 62.328 66.5433 63.4069 66.768 64.7188C67.2485 65.8905 67.9542 66.9428 68.643 68.0001C68.7204 68.1547 68.7977 68.3094 68.8774 68.4688C74.0827 68.4852 79.288 68.4976 84.4933 68.5052C86.9102 68.5089 89.327 68.5138 91.7439 68.5219C93.8503 68.5289 95.9566 68.5334 98.0629 68.535C99.1784 68.5359 100.294 68.538 101.409 68.5432C102.459 68.5479 103.509 68.5494 104.559 68.5483C104.944 68.5485 105.329 68.5499 105.715 68.5526C106.241 68.5561 106.767 68.5553 107.293 68.5534C107.588 68.554 107.882 68.5547 108.185 68.5553C109.021 68.4615 109.459 68.2649 110.127 67.7657C110.808 66.7662 110.674 65.6641 110.669 64.4991C110.673 64.2896 110.677 64.08 110.681 63.8642C110.685 62.2915 110.685 62.2915 109.893 60.9688C108.939 60.4818 108.131 60.4407 107.068 60.439C106.905 60.4381 106.741 60.4372 106.572 60.4362C106.025 60.4338 105.478 60.4348 104.931 60.4357C104.539 60.4347 104.146 60.4335 103.753 60.4321C102.687 60.4289 101.622 60.4288 100.556 60.4294C99.6657 60.4296 98.7757 60.4285 97.8858 60.4274C95.7861 60.4248 93.6864 60.4247 91.5868 60.4261C89.4211 60.4275 87.2554 60.4246 85.0897 60.4196C83.2298 60.4155 81.3699 60.4141 79.51 60.4148C78.3994 60.4153 77.2888 60.4146 76.1782 60.4114C75.1338 60.4084 74.0894 60.4089 73.045 60.412C72.662 60.4125 72.279 60.4119 71.896 60.4099C71.3725 60.4075 70.8492 60.4094 70.3258 60.4124C70.033 60.4123 69.7403 60.4123 69.4387 60.4122C68.5522 60.5101 67.9917 60.7338 67.2368 61.2032ZM19.186 68.1124C14.5259 73.0421 12.7189 79.2603 12.7968 85.9316C12.983 92.2851 16.1625 97.9796 20.6557 102.35C25.8127 106.935 32.0809 108.603 38.8627 108.358C44.6593 107.989 49.8708 105.121 53.8774 101.047C54.0729 100.851 54.2684 100.655 54.4698 100.454C59.0844 95.5945 60.6117 89.4496 60.5122 82.9433C60.3276 77.4482 57.9382 72.1556 54.1118 68.2344C53.829 67.9371 53.829 67.9371 53.5405 67.6339C53.3423 67.4453 53.1441 67.2568 52.9399 67.0626C52.7043 66.8287 52.7043 66.8287 52.4638 66.5901C43.015 57.5708 27.972 59.2002 19.186 68.1124ZM12.6274 63.5469C7.98044 68.6918 5.31282 75.4125 4.89304 82.2969C6.13054 82.2969 7.36804 82.2969 8.64304 82.2969C8.71404 81.9289 8.78504 81.561 8.85819 81.1818C9.85544 76.1283 11.2564 71.4515 14.5528 67.4031C15.0902 66.7124 15.0902 66.7124 15.2055 65.8907C14.7229 65.2563 14.7229 65.2563 14.063 64.6602C13.846 64.4511 13.6291 64.2421 13.4056 64.0267C12.9534 63.5211 12.9534 63.5211 12.6274 63.5469ZM59.8814 64.294C59.5633 64.6203 59.5633 64.6203 59.2387 64.9532C59.0254 65.1707 58.8121 65.3882 58.5924 65.6124C58.4286 65.7816 58.2649 65.9507 58.0962 66.1251C58.5434 66.8907 59.0199 67.6095 59.5464 68.3223C62.5457 72.6125 63.8021 77.1879 64.6587 82.2969C65.8962 82.2969 67.1337 82.2969 68.4087 82.2969C68.1184 75.9847 65.7768 69.9023 61.8462 64.9532C61.6019 64.6287 61.6019 64.6287 61.3527 64.2977C61.2062 64.1273 61.0596 63.9569 60.9087 63.7813C60.3711 63.7285 60.3711 63.7285 59.8814 64.294ZM70.7524 72.6876C70.7938 72.8565 70.8352 73.0254 70.8778 73.1994C71.0663 73.971 71.2536 74.7428 71.4409 75.5147C71.506 75.7804 71.5711 76.0461 71.6382 76.3199C72.175 78.5381 72.175 78.5381 72.3061 79.5421C72.3237 80.1656 72.3237 80.1656 72.6274 80.4219C73.1201 80.4462 73.6137 80.4536 74.107 80.4549C74.2633 80.4555 74.4196 80.4562 74.5807 80.457C75.1084 80.459 75.6361 80.4594 76.1639 80.4597C76.5407 80.4608 76.9175 80.462 77.2943 80.4632C78.321 80.4663 79.3476 80.4678 80.3742 80.4689C81.0152 80.4695 81.6563 80.4705 82.2973 80.4716C84.3017 80.4748 86.306 80.477 88.3104 80.4779C90.6263 80.479 92.9421 80.4831 95.258 80.4899C97.0464 80.4949 98.8348 80.4973 100.623 80.4976C101.692 80.4979 102.761 80.4993 103.83 80.5034C104.835 80.5073 105.841 80.5078 106.847 80.5057C107.216 80.5056 107.585 80.5066 107.954 80.5089C108.458 80.5119 108.962 80.5105 109.466 80.5081C109.889 80.5086 109.889 80.5086 110.321 80.5091C111.14 80.4132 111.581 80.2103 112.237 79.7188C112.719 78.7549 112.546 77.5263 112.559 76.4669C112.568 76.2085 112.577 75.9502 112.586 75.6841C112.59 75.3111 112.59 75.3111 112.594 74.9306C112.598 74.7028 112.603 74.4751 112.608 74.2404C112.414 73.367 112.044 73.1648 111.299 72.6876C110.504 72.5497 110.504 72.5497 109.619 72.5748C109.452 72.574 109.286 72.5732 109.114 72.5724C108.557 72.5709 108.001 72.576 107.444 72.5811C107.045 72.5814 106.645 72.5812 106.245 72.5807C105.161 72.5804 104.077 72.586 102.993 72.5925C101.86 72.5984 100.726 72.5989 99.593 72.6C97.4473 72.6029 95.3017 72.6106 93.156 72.62C90.7131 72.6305 88.2702 72.6357 85.8273 72.6404C80.8023 72.6502 75.7774 72.6667 70.7524 72.6876ZM72.8618 84.6407C72.8417 84.8084 72.8216 84.976 72.801 85.1488C72.709 85.9169 72.6169 86.6851 72.5249 87.4532C72.4933 87.7169 72.4617 87.9807 72.4292 88.2524C72.2644 89.6271 72.0977 91.0015 71.9243 92.3751C77.2824 92.397 82.6405 92.4135 87.9986 92.4236C90.4864 92.4285 92.9742 92.4351 95.462 92.4458C97.6301 92.4551 99.7983 92.4612 101.966 92.4633C103.115 92.4645 104.263 92.4674 105.411 92.4742C106.492 92.4805 107.572 92.4825 108.653 92.4811C109.049 92.4814 109.446 92.4832 109.843 92.4868C110.384 92.4915 110.926 92.4904 111.467 92.4878C111.77 92.4887 112.074 92.4895 112.386 92.4904C113.308 92.3555 113.692 92.088 114.346 91.4376C114.785 90.5606 114.624 89.5021 114.624 88.5372C114.627 88.3124 114.63 88.0876 114.633 87.856C114.634 87.6391 114.634 87.4222 114.635 87.1987C114.636 87.0004 114.636 86.8021 114.637 86.5977C114.574 85.9878 114.443 85.6234 114.112 85.1094C113.245 84.5316 112.82 84.5828 111.785 84.5843C111.619 84.5839 111.452 84.5835 111.281 84.5831C110.723 84.5823 110.165 84.5849 109.607 84.5875C109.207 84.5876 108.808 84.5875 108.408 84.5873C107.322 84.5871 106.236 84.5899 105.15 84.5932C104.015 84.5961 102.881 84.5964 101.746 84.5969C99.5972 84.5984 97.4482 84.6022 95.2992 84.6069C92.8528 84.6122 90.4065 84.6147 87.9602 84.6171C82.9274 84.622 77.8946 84.6302 72.8618 84.6407ZM4.89304 86.5157C5.20636 93.3304 7.86393 100.693 12.8618 105.5C12.9721 105.373 13.0823 105.246 13.196 105.115C13.3419 104.947 13.4878 104.779 13.6382 104.607C13.7823 104.441 13.9264 104.275 14.0749 104.104C14.4399 103.695 14.8133 103.304 15.2055 102.922C14.881 102.224 14.4965 101.645 14.0337 101.032C10.916 96.5868 9.46721 91.827 8.64304 86.5157C7.40554 86.5157 6.16804 86.5157 4.89304 86.5157ZM64.6587 86.5157C64.6046 86.8471 64.5505 87.1785 64.4948 87.52C63.6278 92.6632 62.0908 97.1236 59.0062 101.358C58.5214 102.013 58.5214 102.013 58.0962 102.922C58.8696 103.695 59.643 104.469 60.4399 105.266C62.5946 104.547 64.2446 100.739 65.2433 98.8151C67.1321 95.0041 68.4087 90.7862 68.4087 86.5157C67.1712 86.5157 65.9337 86.5157 64.6587 86.5157ZM70.7524 96.5938C70.6737 96.7513 70.595 96.9088 70.5139 97.0711C70.4097 97.2795 70.3056 97.4879 70.1982 97.7027C70.0954 97.9085 69.9925 98.1144 69.8865 98.3264C69.6161 98.8666 69.3446 99.4063 69.0724 99.9456C68.9937 100.102 68.915 100.258 68.8339 100.419C68.675 100.735 68.5157 101.051 68.356 101.366C67.9444 102.185 67.5608 103 67.2368 103.859C68.1085 104.441 68.5513 104.388 69.5931 104.391C69.7624 104.392 69.9318 104.393 70.1062 104.394C70.6752 104.397 71.2441 104.397 71.813 104.396C72.2203 104.398 72.6276 104.399 73.0349 104.401C74.1423 104.405 75.2498 104.406 76.3572 104.407C77.281 104.407 78.2048 104.409 79.1286 104.41C81.3076 104.414 83.4865 104.415 85.6655 104.415C87.9151 104.415 90.1646 104.42 92.4142 104.427C94.3441 104.433 96.2741 104.436 98.204 104.435C99.3573 104.435 100.511 104.437 101.664 104.442C102.748 104.446 103.833 104.446 104.917 104.443C105.315 104.442 105.714 104.443 106.112 104.446C106.655 104.45 107.198 104.448 107.741 104.444C108.046 104.444 108.35 104.445 108.663 104.445C109.553 104.308 109.82 104.094 110.362 103.391C110.8 102.515 110.66 101.469 110.669 100.505C110.676 100.282 110.683 100.059 110.69 99.8297C110.699 98.7882 110.704 98.1772 110.152 97.2722C109.314 96.5182 108.787 96.5648 107.674 96.5656C107.438 96.5653 107.438 96.5653 107.197 96.565C106.668 96.5646 106.138 96.5659 105.608 96.5672C105.229 96.5673 104.851 96.5672 104.472 96.5671C103.442 96.567 102.411 96.5684 101.381 96.5701C100.305 96.5715 99.2287 96.5717 98.1526 96.5719C96.114 96.5727 94.0754 96.5746 92.0368 96.5769C89.7163 96.5795 87.3958 96.5808 85.0753 96.582C80.301 96.5845 75.5267 96.5886 70.7524 96.5938ZM17.6939 106.465C17.3758 106.785 17.3758 106.785 17.0512 107.111C16.8379 107.323 16.6246 107.536 16.4049 107.754C15.8568 108.246 15.8568 108.246 15.9087 108.781C21.1933 113.223 27.7492 115.964 34.6587 116.281C34.6587 115.044 34.6587 113.806 34.6587 112.531C34.2792 112.463 33.8997 112.395 33.5088 112.324C28.1787 111.334 23.5323 109.779 19.2586 106.364C18.495 105.802 18.4087 105.83 17.6939 106.465ZM53.5698 106.789C49.2958 110.295 44.2167 111.629 38.8774 112.531C38.8774 113.769 38.8774 115.006 38.8774 116.281C45.9705 115.998 52.195 112.935 57.6274 108.547C56.5215 107.194 56.5215 107.194 55.2837 105.969C54.3892 105.969 54.2334 106.209 53.5698 106.789ZM73.3305 109.016C72.6023 110.108 72.7754 111.232 72.7739 112.517C72.7682 112.774 72.7624 113.031 72.7565 113.296C72.7556 113.544 72.7547 113.791 72.7538 114.047C72.7518 114.273 72.7499 114.499 72.7479 114.732C72.8993 115.546 73.1468 115.778 73.7993 116.281C74.5872 116.423 74.5872 116.423 75.4895 116.4C75.66 116.402 75.8305 116.403 76.0062 116.405C76.5777 116.409 77.149 116.406 77.7205 116.403C78.1301 116.404 78.5398 116.406 78.9494 116.408C80.0622 116.412 81.1749 116.41 82.2877 116.407C83.4515 116.405 84.6153 116.407 85.7791 116.409C87.7337 116.41 89.6882 116.408 91.6427 116.404C93.9033 116.398 96.1639 116.4 98.4245 116.405C100.364 116.409 102.304 116.41 104.244 116.408C105.403 116.406 106.562 116.406 107.721 116.409C108.811 116.412 109.901 116.41 110.99 116.404C111.39 116.403 111.791 116.404 112.191 116.406C112.737 116.408 113.282 116.405 113.828 116.4C114.133 116.4 114.439 116.4 114.754 116.399C115.645 116.262 115.924 116.06 116.456 115.344C116.599 114.728 116.599 114.728 116.58 114.055C116.581 113.808 116.582 113.562 116.584 113.308C116.578 112.923 116.578 112.923 116.573 112.531C116.576 112.275 116.58 112.019 116.584 111.755C116.582 111.385 116.582 111.385 116.58 111.008C116.578 110.671 116.578 110.671 116.577 110.327C116.422 109.552 116.12 109.276 115.518 108.781C114.83 108.437 114.22 108.517 113.451 108.516C113.202 108.515 113.202 108.515 112.947 108.514C112.387 108.513 111.827 108.513 111.267 108.513C110.867 108.512 110.467 108.511 110.066 108.511C108.977 108.508 107.887 108.508 106.798 108.508C105.889 108.508 104.98 108.507 104.072 108.506C101.928 108.504 99.7851 108.503 97.6418 108.504C95.4289 108.504 93.2159 108.501 91.003 108.497C89.1049 108.494 87.2068 108.493 85.3087 108.493C84.1742 108.493 83.0398 108.493 81.9054 108.49C80.8385 108.488 79.7716 108.488 78.7047 108.49C78.3128 108.49 77.9209 108.489 77.5289 108.488C76.9946 108.486 76.4602 108.487 75.9258 108.489C75.6266 108.489 75.3273 108.489 75.019 108.489C74.3023 108.544 73.9142 108.609 73.3305 109.016Z" fill="white"/>
<path d="M37.7058 64.4843C38.4048 64.9561 38.5984 65.2215 38.7825 66.0416C38.8296 66.3149 38.8296 66.3149 38.8777 66.5937C39.0197 66.6254 39.1617 66.6571 39.308 66.6898C41.9966 67.3806 44.1081 69.0083 45.5501 71.3782C46.2186 72.6338 46.6577 73.8549 46.8464 75.2656C46.8688 75.4302 46.8912 75.5949 46.9142 75.7645C46.9768 76.6333 46.8689 77.2547 46.3777 77.9609C45.5495 78.651 45.5495 78.651 44.7371 78.7079C44.0447 78.6428 43.7572 78.5214 43.1404 78.1513C42.4876 77.1627 42.3454 76.2358 42.1113 75.0852C41.6288 73.1289 40.7702 72.4656 39.1121 71.2812C39.1121 74.9937 39.1121 78.7062 39.1121 82.5312C40.0402 82.9179 40.9683 83.3046 41.9246 83.7031C44.256 85.2872 45.9609 87.3343 46.6707 90.1044C47.2313 93.0489 46.6685 95.7366 45.171 98.3185C43.6455 100.494 41.5828 101.63 39.1121 102.453C39.0009 102.675 38.8897 102.898 38.7752 103.127C38.3976 103.882 38.2184 104.189 37.4714 104.562C36.6658 104.68 36.6658 104.68 35.8308 104.562C35.1423 104.035 35.1423 104.035 34.6589 103.391C34.6589 103.081 34.6589 102.772 34.6589 102.453C34.5197 102.421 34.3804 102.39 34.2369 102.357C31.2152 101.572 29.1686 99.9107 27.5554 97.262C26.7588 95.6922 26.1508 93.4531 26.6371 91.7341C26.9266 91.1994 27.1382 90.8598 27.6277 90.4999C28.1248 90.3983 28.1248 90.3983 28.6677 90.3974C28.9356 90.3906 28.9356 90.3906 29.2088 90.3837C29.9575 90.5484 30.2154 90.8282 30.6746 91.4374C30.8787 92.1808 30.8787 92.1808 31.0115 93.0195C31.2996 94.495 31.5953 95.4274 32.5496 96.5937C33.4777 97.1738 33.4777 97.1738 34.4246 97.7656C34.4246 94.0531 34.4246 90.3406 34.4246 86.5156C33.5738 86.2062 32.723 85.8968 31.8464 85.5781C31.1583 85.1227 30.5818 84.7082 29.9714 84.1718C29.8295 84.0543 29.6875 83.9368 29.5412 83.8157C27.6427 82.112 26.622 79.6614 26.4558 77.1406C26.3948 74.0589 27.3673 71.4105 29.5027 69.1718C30.8539 67.882 32.7109 66.5937 34.6589 66.5937C34.6396 66.4197 34.6203 66.2456 34.6004 66.0663C34.6589 65.4218 34.6589 65.4218 34.9959 64.8798C35.8787 64.2985 36.678 64.2973 37.7058 64.4843ZM32.3152 72.4531C30.9064 74.201 30.7311 75.8756 30.9089 78.0781C31.313 79.7214 32.6 80.8892 33.9558 81.8281C34.1879 81.8281 34.4199 81.8281 34.6589 81.8281C34.6589 78.2703 34.6589 74.7124 34.6589 71.0468C33.8636 71.0468 32.9027 71.9784 32.3152 72.4531ZM38.8777 87.2187C38.8777 90.6992 38.8777 94.1796 38.8777 97.7656C40.526 97.1063 41.3473 96.3937 42.1553 94.834C42.781 93.2986 42.7761 91.8458 42.1782 90.3058C41.5257 88.9961 40.7163 87.8275 39.3464 87.2187C39.1918 87.2187 39.0371 87.2187 38.8777 87.2187Z" fill="white"/>
</g>
<defs>
<clipPath id="clip0_9452_20425">
<rect width="120" height="120" fill="white" transform="translate(0.671875 0.5)"/>
</clipPath>
</defs>
</svg>
