<svg width="120" height="121" viewBox="0 0 120 121" fill="none" xmlns="http://www.w3.org/2000/svg">
<g clip-path="url(#clip0_9452_20411)">
<path d="M77.2791 17.9132C78.1391 18.6165 78.9125 19.3888 79.6836 20.1876C79.8564 20.3532 80.0292 20.5187 80.2073 20.6893C83.2245 23.7533 84.4491 28.0879 84.4736 32.2725C84.4204 36.8079 83.1769 40.6533 80.1523 44.0938C80.0155 44.2558 79.8786 44.4177 79.7376 44.5846C79.4105 44.9707 79.0788 45.3531 78.7461 45.7345C78.8969 45.823 79.0476 45.9115 79.2029 46.0027C85.1225 49.6085 89.1753 54.9614 90.9336 61.672C92.045 60.7442 93.0957 59.7773 94.1159 58.7506C94.2602 58.6064 94.4044 58.4622 94.5531 58.3136C95.0241 57.8424 95.4943 57.3704 95.9644 56.8984C96.2931 56.5693 96.6218 56.2403 96.9505 55.9113C97.8114 55.0495 98.6716 54.187 99.5317 53.3244C100.411 52.4425 101.291 51.5614 102.171 50.6801C103.895 48.9541 105.618 47.2273 107.34 45.5001C107.063 45.4968 107.063 45.4968 106.781 45.4935C105.942 45.4808 105.103 45.4612 104.264 45.4415C103.974 45.4382 103.684 45.4348 103.385 45.4314C100.709 45.3595 100.709 45.3595 99.6055 44.3282C98.6548 43.1042 98.7209 41.8313 98.9023 40.3438C99.4133 39.2651 99.9515 38.7547 101.012 38.2345C101.784 38.1436 101.784 38.1436 102.672 38.1398C102.834 38.1382 102.997 38.1365 103.164 38.1349C103.699 38.1306 104.233 38.1315 104.768 38.1328C105.141 38.1318 105.515 38.1305 105.888 38.1291C106.67 38.127 107.451 38.1276 108.233 38.1299C109.232 38.1326 110.232 38.1279 111.231 38.121C112.002 38.1167 112.773 38.1168 113.543 38.1181C113.912 38.1182 114.28 38.1168 114.649 38.1138C115.165 38.1103 115.681 38.1129 116.197 38.1169C116.636 38.1169 116.636 38.1169 117.085 38.117C118.276 38.2915 118.979 38.7802 119.727 39.7128C120.068 40.5113 120.087 41.1353 120.091 42.0036C120.093 42.2474 120.093 42.2474 120.096 42.4961C120.1 43.0308 120.099 43.5655 120.098 44.1002C120.099 44.4735 120.1 44.8468 120.101 45.2201C120.104 46.0017 120.103 46.7832 120.101 47.5648C120.098 48.5644 120.103 49.5638 120.11 50.5634C120.114 51.3341 120.114 52.1048 120.112 52.8755C120.112 53.2439 120.114 53.6124 120.117 53.9808C120.12 54.4969 120.118 55.0126 120.114 55.5287C120.114 55.9684 120.114 55.9684 120.114 56.417C119.942 57.5909 119.431 58.3356 118.501 59.0581C117.388 59.5475 116.264 59.4733 115.074 59.3282C113.993 58.816 113.494 58.2758 112.965 57.2188C112.864 56.5049 112.864 56.5049 112.845 55.7201C112.832 55.2975 112.832 55.2975 112.82 54.8664C112.814 54.5744 112.809 54.2824 112.804 53.9815C112.796 53.685 112.788 53.3885 112.779 53.0829C112.76 52.3522 112.744 51.6216 112.73 50.8907C112.535 51.087 112.339 51.2832 112.137 51.4854C107.489 56.1433 102.84 60.8001 98.1898 65.4554C97.6174 66.0283 97.0451 66.6013 96.4727 67.1742C96.3588 67.2883 96.2448 67.4024 96.1274 67.5199C94.2823 69.367 92.4381 71.215 90.5941 73.0633C88.7021 74.9596 86.8092 76.8551 84.9155 78.7498C83.8518 79.8141 82.7886 80.8788 81.7263 81.9444C80.7268 82.9471 79.7262 83.9487 78.7248 84.9494C78.3571 85.3172 77.9899 85.6854 77.623 86.054C77.1226 86.5568 76.6208 87.058 76.1186 87.5589C75.9734 87.7055 75.8281 87.8521 75.6785 88.0032C74.5518 89.1221 73.6458 89.8963 71.9932 89.9288C71.6501 89.9438 71.6501 89.9438 71.3001 89.959C69.4286 89.5585 67.9891 87.7761 66.6904 86.4589C66.511 86.2789 66.3316 86.0988 66.1467 85.9132C65.5798 85.3437 65.0145 84.7725 64.4492 84.2013C64.0627 83.8124 63.676 83.4236 63.2893 83.0349C62.3465 82.087 61.4052 81.1378 60.4648 80.1876C59.639 80.5402 59.11 81.0168 58.4793 81.6511C58.2707 81.8598 58.0621 82.0685 57.8471 82.2835C57.6177 82.5153 57.3883 82.7471 57.1589 82.979C56.916 83.2228 56.673 83.4665 56.4299 83.71C55.907 84.2345 55.3848 84.7596 54.8631 85.2854C54.038 86.1168 53.2111 86.9465 52.3839 87.7759C50.4786 89.6868 48.5757 91.6 46.6729 93.5133C44.9294 95.2662 43.1854 97.0187 41.4395 98.7692C40.6175 99.5935 39.7967 100.419 38.9767 101.245C38.466 101.76 37.9543 102.273 37.4424 102.786C37.2055 103.023 36.969 103.262 36.733 103.5C36.4102 103.826 36.0858 104.151 35.7614 104.476C35.5805 104.657 35.3996 104.839 35.2132 105.027C34.2278 105.907 33.5181 106.291 32.188 106.294C31.7922 106.298 31.7922 106.298 31.3885 106.301C31.1012 106.3 30.814 106.299 30.518 106.298C30.0617 106.3 30.0617 106.3 29.5961 106.303C28.7632 106.307 27.9303 106.307 27.0974 106.305C26.4014 106.305 25.7054 106.306 25.0093 106.307C23.367 106.311 21.7247 106.31 20.0824 106.308C18.3895 106.305 16.6968 106.308 15.004 106.315C13.5491 106.32 12.0943 106.321 10.6394 106.32C9.77116 106.319 8.90293 106.32 8.03465 106.324C7.06622 106.328 6.09795 106.325 5.12952 106.321C4.84275 106.323 4.55597 106.325 4.26051 106.328C1.78519 106.306 1.78519 106.306 0.699227 105.266C0.101661 104.419 -0.0920939 103.847 -0.0947645 102.814C-0.0970859 102.56 -0.0994038 102.306 -0.101796 102.044C-0.10074 101.767 -0.0996854 101.491 -0.0985983 101.206C-0.100207 100.912 -0.101812 100.619 -0.103469 100.317C-0.107023 99.5134 -0.107402 98.7099 -0.106066 97.9064C-0.105339 97.2327 -0.10677 96.5591 -0.108183 95.8855C-0.111476 94.2925 -0.111109 92.6995 -0.10844 91.1065C-0.105763 89.4726 -0.109023 87.8387 -0.115328 86.2048C-0.120558 84.7959 -0.122067 83.387 -0.1207 81.9781C-0.119917 81.1395 -0.120433 80.3009 -0.124512 79.4623C-0.160605 71.2515 1.79992 64.6863 7.61329 58.7276C9.13685 57.2843 10.868 56.197 12.6524 55.1095C12.4542 54.8823 12.256 54.6551 12.0518 54.421C11.783 54.1038 11.5145 53.7864 11.2461 53.4688C11.0517 53.2477 11.0517 53.2477 10.8533 53.0221C9.94402 51.9351 9.25383 50.7844 8.60938 49.5284C8.53223 49.3814 8.45507 49.2345 8.37558 49.0831C7.22115 46.7491 6.90028 44.3592 6.92481 41.7794C6.92693 41.5116 6.92904 41.2438 6.93122 40.9679C6.97232 38.9641 7.1688 37.2802 7.96485 35.422C8.02652 35.273 8.08819 35.1241 8.15173 34.9706C9.1842 32.5259 10.5165 30.695 12.418 28.8595C12.5835 28.6866 12.7491 28.5138 12.9197 28.3358C16.0002 25.3023 20.3958 24.0965 24.6055 24.0548C29.2739 24.101 33.5623 25.5833 36.8845 28.929C37.0863 29.1381 37.2882 29.3472 37.4961 29.5626C37.6689 29.7282 37.8417 29.8937 38.0198 30.0643C41.0656 33.1573 42.2602 37.5547 42.2861 41.7794C42.231 46.255 40.9455 50.0783 37.9648 53.4688C37.7596 53.7117 37.7596 53.7117 37.5501 53.9596C37.223 54.3457 36.8913 54.7281 36.5586 55.1095C36.7094 55.198 36.8601 55.2865 37.0154 55.3777C38.6497 56.3732 40.0765 57.4985 41.5162 58.7533C42.039 59.2036 42.5624 59.6275 43.1211 60.0313C43.1812 59.8549 43.2413 59.6785 43.3033 59.4967C45.4895 53.4311 49.3637 49.0722 54.8398 45.7345C54.6417 45.5073 54.4435 45.2801 54.2393 45.046C53.9705 44.7288 53.702 44.4114 53.4336 44.0938C53.2392 43.8727 53.2392 43.8727 53.0408 43.6471C52.1315 42.5601 51.4413 41.4094 50.7969 40.1534C50.7197 40.0064 50.6426 39.8595 50.5631 39.7081C49.4087 37.3741 49.0878 34.9842 49.1123 32.4044C49.1144 32.1366 49.1165 31.8688 49.1187 31.5929C49.1598 29.5891 49.3563 27.9052 50.1523 26.047C50.2449 25.8235 50.2449 25.8235 50.3392 25.5956C51.3717 23.1509 52.704 21.32 54.6055 19.4845C54.771 19.3116 54.9366 19.1388 55.1072 18.9608C60.7781 13.3765 71.0368 13.2661 77.2791 17.9132ZM58.3591 26.1101C56.4787 28.6574 56.2289 31.4189 56.4805 34.4845C57.0669 37.3262 58.8693 39.5845 61.168 41.2813C63.8178 42.7554 66.7007 43.1419 69.6787 42.5274C72.3724 41.6052 74.6896 39.815 76.0837 37.3089C77.2874 34.7183 77.6675 31.5991 76.7246 28.8448C75.4305 25.9016 73.3965 23.7546 70.413 22.502C65.8826 20.881 61.3931 22.6041 58.3591 26.1101ZM16.1716 35.4851C14.2912 38.0324 14.0414 40.7939 14.293 43.8595C14.8794 46.7012 16.6818 48.9595 18.9805 50.6563C21.6304 52.1304 24.5132 52.5169 27.4912 51.9024C30.1849 50.9802 32.5021 49.19 33.8962 46.6839C35.0999 44.0933 35.48 40.9741 34.5371 38.2198C33.243 35.2766 31.209 33.1296 28.2255 31.877C23.6951 30.256 19.2056 31.9791 16.1716 35.4851ZM54.1367 55.3438C50.0451 59.5991 49.1657 64.869 49.192 70.5746C49.1923 70.8515 49.1926 71.1284 49.193 71.4138C49.1943 72.2876 49.1972 73.1614 49.2002 74.0352C49.2014 74.6322 49.2024 75.2291 49.2034 75.826C49.206 77.2799 49.2099 78.7337 49.2148 80.1876C50.3563 79.2388 51.4223 78.2413 52.4613 77.1819C52.7604 76.8799 53.0594 76.5779 53.3585 76.276C53.8229 75.8058 54.2868 75.3353 54.7501 74.8642C55.202 74.4053 55.6553 73.9478 56.1088 73.4905C56.2462 73.3499 56.3837 73.2092 56.5254 73.0643C57.64 71.943 58.5418 71.1818 60.1865 71.1495C60.5296 71.1345 60.5296 71.1345 60.8796 71.1193C62.7511 71.5198 64.1906 73.3022 65.4893 74.6193C65.6687 74.7994 65.8481 74.9795 66.033 75.1651C66.5999 75.7346 67.1652 76.3058 67.7305 76.877C68.117 77.2659 68.5037 77.6547 68.8904 78.0434C69.8332 78.9913 70.7745 79.9405 71.7148 80.8907C72.5766 80.5244 73.1601 79.9961 73.8382 79.3562C73.9531 79.2483 74.0679 79.1403 74.1862 79.029C75.2425 78.0318 76.2858 77.0208 77.3253 76.0061C78.0222 75.3259 78.7226 74.6504 79.4335 73.9848C80.1234 73.3387 80.8021 72.6825 81.4746 72.0182C81.7309 71.7685 81.9907 71.5224 82.2543 71.2804C83.3743 70.2475 84.4053 69.2919 84.4814 67.6833C84.4572 66.6756 84.3157 65.7102 84.1367 64.7188C84.0935 64.4589 84.0503 64.1991 84.0058 63.9313C83.4939 61.1859 81.9487 58.3952 80.1523 56.2813C79.9783 56.0493 79.8043 55.8173 79.625 55.5782C76.7505 52.2336 72.3904 50.4537 68.0967 49.9825C62.7722 49.7143 57.9799 51.6832 54.1367 55.3438ZM11.9492 64.7188C7.25599 69.5998 6.98771 75.6395 7.00446 82.0516C7.0049 82.5468 7.00523 83.042 7.00546 83.5371C7.00635 84.8317 7.00865 86.1263 7.01126 87.421C7.01367 88.7455 7.01473 90.07 7.01591 91.3946C7.01841 93.987 7.0224 96.5795 7.02735 99.172C21.9899 101.18 21.9899 101.18 35.4953 96.2416C39.2152 93.0008 42.5028 88.7909 42.9502 83.7426C43.0381 81.5978 42.736 79.5442 42.2911 77.4527C42.1203 76.5845 42.0231 75.7099 41.9263 74.8308C41.4143 70.2488 39.2076 66.2479 35.6943 63.254C28.2656 57.6824 18.6819 58.3058 11.9492 64.7188Z" fill="white"/>
</g>
<defs>
<clipPath id="clip0_9452_20411">
<rect width="120" height="120" fill="white" transform="translate(0 0.5)"/>
</clipPath>
</defs>
</svg>
