<svg width="121" height="121" viewBox="0 0 121 121" fill="none" xmlns="http://www.w3.org/2000/svg">
<path d="M91.0368 47.2877C91.2855 47.2864 91.2856 47.2864 91.5394 47.2851C92.0877 47.2832 92.6358 47.2864 93.1841 47.2898C93.5651 47.29 93.946 47.2898 94.3269 47.2895C95.1252 47.2895 95.9235 47.2919 96.7219 47.2962C97.7457 47.3015 98.7694 47.3016 99.7932 47.3C100.58 47.2993 101.366 47.3008 102.153 47.3031C102.53 47.304 102.908 47.3043 103.285 47.3039C103.813 47.3038 104.34 47.3068 104.868 47.3106C105.168 47.3117 105.468 47.3128 105.778 47.3139C106.507 47.375 106.507 47.375 107.21 47.8437C107.513 48.7537 107.476 49.6139 107.473 50.5622C107.473 50.8747 107.473 50.8747 107.473 51.1934C107.474 51.8941 107.472 52.5947 107.471 53.2954C107.471 53.7966 107.471 54.2978 107.471 54.7989C107.471 56.162 107.47 57.5251 107.468 58.8881C107.467 60.3117 107.467 61.7353 107.466 63.1588C107.466 65.8557 107.464 68.5525 107.461 71.2494C107.459 74.3192 107.457 77.3889 107.456 80.4587C107.454 86.7746 107.45 93.0904 107.444 99.4062C107.833 99.4025 107.833 99.4025 108.229 99.3988C109.19 99.3903 110.15 99.3849 111.111 99.3805C111.527 99.3781 111.942 99.3749 112.358 99.3709C112.956 99.3652 113.553 99.3625 114.151 99.3604C114.337 99.358 114.523 99.3556 114.714 99.3531C115.62 99.3529 116.048 99.3607 116.819 99.875C116.964 101.175 116.964 101.175 116.819 101.75C116.238 102.354 115.898 102.451 115.054 102.541C114.714 102.545 114.374 102.545 114.034 102.542C113.846 102.543 113.657 102.544 113.463 102.545C112.828 102.547 112.193 102.545 111.558 102.542C111.1 102.543 110.641 102.544 110.183 102.546C108.92 102.549 107.657 102.547 106.395 102.545C105.034 102.543 103.673 102.546 102.313 102.548C99.6463 102.551 96.9797 102.55 94.3131 102.548C92.1466 102.547 89.9801 102.546 87.8136 102.547C87.3517 102.547 87.3517 102.547 86.8805 102.548C86.4118 102.548 85.9431 102.548 85.4745 102.548C79.6151 102.55 73.7557 102.548 67.8962 102.544C62.6881 102.541 57.4799 102.541 52.2717 102.545C46.4232 102.549 40.5747 102.55 34.7261 102.548C34.1029 102.548 33.4797 102.547 32.8564 102.547C32.5498 102.547 32.2431 102.547 31.9271 102.547C29.7623 102.546 27.5975 102.547 25.4327 102.549C22.7958 102.551 20.159 102.55 17.5221 102.547C16.1758 102.545 14.8295 102.544 13.4832 102.546C12.2521 102.548 11.021 102.547 9.78984 102.544C9.34319 102.543 8.89654 102.543 8.44988 102.545C7.84516 102.547 7.2406 102.545 6.63588 102.542C6.46038 102.543 6.28487 102.545 6.10405 102.547C5.36343 102.538 4.86113 102.495 4.21118 102.125C3.85064 101.75 3.85065 101.75 3.73438 101.288C3.74762 100.815 3.79847 100.345 3.85065 99.875C4.74988 99.2755 5.47847 99.3469 6.51941 99.3604C6.80664 99.3614 6.80664 99.3614 7.09967 99.3625C7.71104 99.3651 8.32232 99.371 8.93365 99.3769C9.34823 99.3793 9.76282 99.3814 10.1774 99.3833C11.1935 99.3885 12.2096 99.3966 13.2256 99.4062C13.2217 98.9477 13.2217 98.9477 13.2178 98.4798C13.194 95.6002 13.1764 92.7206 13.1649 89.8409C13.1588 88.3604 13.1505 86.88 13.1372 85.3995C13.1245 83.971 13.1175 82.5426 13.1145 81.1141C13.1123 80.5688 13.1081 80.0235 13.1017 79.4783C13.0932 78.7151 13.0921 77.9522 13.0926 77.189C13.0884 76.963 13.0842 76.7371 13.0798 76.5044C13.0878 75.469 13.1252 74.9454 13.717 74.0704C14.5571 73.5205 15.0428 73.4791 16.0432 73.4808C16.2042 73.4795 16.3652 73.4782 16.531 73.4768C17.0606 73.4741 17.5896 73.4798 18.1191 73.4858C18.4883 73.4862 18.8575 73.4862 19.2266 73.4858C19.9992 73.4862 20.7716 73.4905 21.5441 73.4979C22.5337 73.5073 23.5232 73.5083 24.5129 73.5065C25.2747 73.5058 26.0365 73.5086 26.7984 73.5126C27.1633 73.5143 27.5282 73.515 27.8931 73.5148C28.4031 73.5152 28.9128 73.5203 29.4228 73.5266C29.7128 73.5285 30.0028 73.5305 30.3016 73.5325C31.1148 73.6346 31.3916 73.7701 31.9756 74.3281C32.091 74.8063 32.091 74.8063 32.0884 75.3647C32.0897 75.5767 32.091 75.7887 32.0923 76.0071C32.0889 76.239 32.0855 76.471 32.0821 76.71C32.0822 76.9547 32.0824 77.1994 32.0825 77.4515C32.0818 78.262 32.0745 79.0722 32.0672 79.8826C32.0655 80.4439 32.0641 81.0051 32.0632 81.5664C32.0596 83.0448 32.0504 84.5232 32.04 86.0016C32.0304 87.5098 32.0261 89.0179 32.0214 90.5261C32.0114 93.4862 31.9949 96.4462 31.9756 99.4062C34.0639 99.4062 36.1522 99.4062 38.3038 99.4062C38.3027 98.8862 38.3017 98.3661 38.3006 97.8303C38.291 92.9364 38.2841 88.0425 38.2795 83.1486C38.2771 80.6324 38.2738 78.1162 38.2684 75.6001C38.2637 73.4072 38.2607 71.2143 38.2597 69.0215C38.2591 67.8601 38.2576 66.6988 38.2542 65.5375C38.251 64.4447 38.25 63.3518 38.2508 62.259C38.2506 61.8577 38.2497 61.4564 38.2479 61.0552C38.2456 60.5075 38.2461 59.9599 38.2474 59.4122C38.247 59.1056 38.2465 58.7991 38.2461 58.4832C38.3052 57.6682 38.4053 56.8828 39.0069 56.2812C39.5534 56.2565 40.093 56.2468 40.6397 56.2472C40.8104 56.2464 40.9811 56.2456 41.157 56.2448C41.7242 56.2426 42.2914 56.2421 42.8585 56.2419C43.2512 56.2411 43.6438 56.2403 44.0365 56.2395C44.8606 56.2381 45.6848 56.2377 46.509 56.2378C47.567 56.2378 48.625 56.2346 49.683 56.2306C50.4942 56.228 51.3055 56.2275 52.1168 56.2276C52.5069 56.2273 52.8971 56.2263 53.2872 56.2245C53.8321 56.2222 54.377 56.2229 54.9219 56.2243C55.1654 56.2223 55.1654 56.2223 55.4138 56.2203C56.5315 56.2277 56.5315 56.2277 57.0538 56.75C57.099 57.3175 57.1149 57.8581 57.1101 58.4257C57.1105 58.6003 57.1109 58.7749 57.1114 58.9548C57.1121 59.5429 57.1095 60.1308 57.107 60.7189C57.1069 61.1392 57.1069 61.5595 57.1072 61.9799C57.1073 63.1236 57.1046 64.2673 57.1013 65.411C57.0984 66.6053 57.0981 67.7996 57.0975 68.9939C57.0961 71.2566 57.0922 73.5194 57.0875 75.7821C57.0823 78.3576 57.0797 80.9332 57.0774 83.5087C57.0725 88.8079 57.0641 94.107 57.0538 99.4062C59.2194 99.4062 61.385 99.4062 63.6163 99.4062C63.6107 97.9847 63.6107 97.9847 63.6051 96.5344C63.5935 93.4089 63.5857 90.2835 63.5798 87.1581C63.5762 85.2624 63.5713 83.3668 63.5632 81.4712C63.5562 79.8193 63.5517 78.1674 63.5501 76.5154C63.5492 75.6405 63.547 74.7656 63.5419 73.8906C63.5363 72.9147 63.5361 71.9388 63.5364 70.9628C63.5339 70.6716 63.5314 70.3805 63.5288 70.0805C63.5298 69.8153 63.5307 69.5501 63.5317 69.2768C63.5311 69.0459 63.5304 68.8149 63.5298 68.577C63.6163 68 63.6163 68 63.9275 67.5741C64.5698 67.1197 65.1846 67.2092 65.9586 67.2096C66.2074 67.2083 66.2074 67.2083 66.4612 67.207C67.0096 67.2051 67.5577 67.2083 68.106 67.2117C68.4869 67.2118 68.8678 67.2117 69.2487 67.2114C70.0471 67.2114 70.8454 67.2138 71.6437 67.2181C72.6675 67.2234 73.6913 67.2235 74.7151 67.2219C75.5017 67.2211 76.2882 67.2227 77.0748 67.225C77.4523 67.2259 77.8298 67.2262 78.2073 67.2258C78.7348 67.2257 79.2621 67.2287 79.7895 67.2325C80.0898 67.2336 80.39 67.2346 80.6994 67.2357C81.4288 67.2968 81.4288 67.2968 82.1319 67.7656C82.4094 68.4937 82.3952 69.2089 82.3945 69.9814C82.3949 70.3709 82.3949 70.3709 82.3954 70.7682C82.3946 71.0519 82.3937 71.3357 82.3929 71.628C82.3929 71.9276 82.3929 72.2272 82.393 72.5359C82.393 73.3566 82.3917 74.1773 82.39 74.998C82.3886 75.856 82.3884 76.714 82.3882 77.5721C82.3874 79.1965 82.3855 80.8209 82.3832 82.4453C82.3805 84.2947 82.3792 86.1442 82.3781 87.9937C82.3756 91.7979 82.3713 95.602 82.3663 99.4062C84.4546 99.4062 86.5428 99.4062 88.6944 99.4062C88.6921 98.444 88.6921 98.444 88.6897 97.4623C88.6753 91.4301 88.6648 85.3978 88.658 79.3656C88.6543 76.264 88.6494 73.1624 88.6414 70.0609C88.6344 67.3583 88.6298 64.6558 88.6282 61.9532C88.6273 60.5215 88.6252 59.0899 88.6201 57.6582C88.6153 56.3118 88.6138 54.9654 88.6149 53.619C88.6147 53.1238 88.6133 52.6286 88.6106 52.1334C88.6071 51.4593 88.6079 50.7854 88.6098 50.1113C88.6078 49.9136 88.6057 49.7159 88.6036 49.5123C88.614 48.1818 88.614 48.1818 89.0058 47.6765C89.6412 47.1874 90.249 47.2873 91.0368 47.2877ZM91.7413 50.4218C91.7413 66.5867 91.7413 82.7515 91.7413 99.4062C95.9178 99.4062 100.094 99.4062 104.398 99.4062C104.398 83.2414 104.398 67.0765 104.398 50.4218C100.221 50.4218 96.0444 50.4218 91.7413 50.4218ZM41.3506 59.0937C41.3506 72.3968 41.3506 85.7 41.3506 99.4062C45.5272 99.4062 49.7038 99.4062 54.0069 99.4062C54.0069 86.1031 54.0069 72.8 54.0069 59.0937C49.8303 59.0937 45.6538 59.0937 41.3506 59.0937ZM66.6631 70.3437C66.6631 79.9343 66.6631 89.525 66.6631 99.4062C70.8397 99.4062 75.0163 99.4062 79.3194 99.4062C79.3194 89.8156 79.3194 80.225 79.3194 70.3437C75.1428 70.3437 70.9663 70.3437 66.6631 70.3437ZM16.2725 76.6718C16.2725 84.1742 16.2725 91.6765 16.2725 99.4062C20.4491 99.4062 24.6256 99.4062 28.9288 99.4062C28.9288 91.9039 28.9288 84.4015 28.9288 76.6718C24.7522 76.6718 20.5756 76.6718 16.2725 76.6718Z" fill="white"/>
<path d="M103.281 20.4657C104.904 22.1252 105.657 23.9239 105.889 26.2079C105.8 28.5793 104.933 30.4638 103.279 32.1341C101.731 33.536 100.233 34.1072 98.1252 34.1034C97.9608 34.1039 97.7963 34.1043 97.6269 34.1048C96.3939 34.0809 95.4243 33.8334 94.3203 33.2602C93.7299 33.0325 93.5014 33.1065 92.9103 33.3124C92.3985 33.7795 91.9216 34.2469 91.4455 34.7479C91.1728 35.0282 90.8997 35.308 90.6261 35.5875C90.4947 35.7218 90.3633 35.8561 90.228 35.9945C89.6518 36.5711 89.0369 37.0964 88.416 37.6236C87.773 38.1895 87.182 38.8043 86.5813 39.4144C86.132 39.8567 85.6692 40.2702 85.1906 40.6805C84.2991 41.4465 83.4791 42.2697 82.6555 43.1076C82.0123 43.7397 81.3336 44.3184 80.6359 44.8892C80.2117 45.3073 79.982 45.6406 79.7853 46.203C79.9511 46.5819 80.1189 46.96 80.298 47.3328C80.931 49.0309 80.9001 51.0793 80.2541 52.7655C79.1774 55.0183 77.6796 56.5555 75.3322 57.453C73.0703 58.0057 70.9683 57.783 68.9226 56.6904C67.2696 55.6776 65.9965 54.2908 65.3621 52.4249C65.0711 50.8166 64.9866 48.7107 65.4885 47.1405C65.3254 47.0804 65.1624 47.0202 64.9944 46.9583C64.2378 46.6384 63.5557 46.2527 62.8472 45.8368C62.708 45.7552 62.5687 45.6736 62.4253 45.5896C62.1289 45.4157 61.8328 45.2414 61.5369 45.0667C61.0769 44.7953 60.616 44.5253 60.1551 44.2554C58.8463 43.4868 57.5434 42.7144 56.2709 41.8863C56.0987 41.7743 55.9264 41.6624 55.7489 41.5471C55.4438 41.3461 55.1409 41.1418 54.8406 40.9337C54.4102 40.6364 54.4102 40.6364 53.7697 40.3436C53.0591 40.5391 52.712 40.91 52.1291 41.3837C50.466 42.5812 48.4062 42.8435 46.4116 42.5931C45.6001 42.4069 44.9041 42.0904 44.1768 41.6894C43.5187 41.4535 43.1776 41.5207 42.5197 41.7499C41.991 42.174 41.991 42.174 41.509 42.7167C40.8645 43.3908 40.2246 44.0427 39.5168 44.6503C38.7161 45.3379 37.9348 46.0448 37.1584 46.7596C36.107 47.727 35.049 48.6862 33.9852 49.6399C33.5349 50.0466 33.0871 50.4553 32.6412 50.8667C32.5155 50.9826 32.3898 51.0984 32.2603 51.2178C32.0164 51.4429 31.7729 51.6684 31.5297 51.8944C30.92 52.4572 30.3041 52.9856 29.6291 53.4686C29.6799 53.5943 29.7306 53.72 29.7829 53.8495C30.6219 56.2112 30.8112 58.7999 29.7316 61.1005C28.4667 63.2838 26.8862 64.5663 24.4582 65.246C22.2546 65.72 20.0999 65.2715 18.1887 64.0887C16.5068 62.8732 15.3564 61.1736 14.9715 59.1238C14.6992 56.9001 14.9627 54.881 16.2844 53.0237C17.7838 51.2963 19.247 50.0858 21.5981 49.8743C21.9118 49.8674 22.2255 49.8645 22.5393 49.8651C22.7035 49.8648 22.8678 49.8645 23.037 49.8642C24.2697 49.8891 25.2537 50.1335 26.3671 50.6854C26.8409 50.9391 26.8409 50.9391 27.5197 50.8905C27.9213 50.6191 27.9213 50.6191 28.3254 50.2313C28.5724 50.007 28.5724 50.007 28.8243 49.7781C29.0126 49.6038 29.2008 49.4295 29.3947 49.2499C29.7338 48.9397 30.0728 48.6296 30.4119 48.3195C30.7759 47.9863 31.1391 47.6522 31.5023 47.3181C32.3119 46.5743 33.1302 45.8403 33.9486 45.1062C34.6317 44.4895 35.3092 43.8671 35.9865 43.244C37.5874 41.7728 39.226 40.3494 40.8791 38.9374C40.8311 38.815 40.783 38.6926 40.7335 38.5666C39.8392 36.1231 39.7004 33.8981 40.6447 31.4374C41.5802 29.7348 43.3057 27.912 45.1958 27.323C47.9229 26.8527 50.2773 27.0059 52.5978 28.6249C54.1941 29.811 55.0765 31.4666 55.5422 33.3874C55.6838 34.3755 55.6258 35.3168 55.5294 36.308C55.4963 36.6526 55.4963 36.6526 55.4626 37.0042C55.4454 37.1781 55.4281 37.352 55.4103 37.5311C55.5346 37.6038 55.6589 37.6764 55.787 37.7513C56.3943 38.1069 57.001 38.4635 57.6076 38.8202C57.8348 38.9535 58.0619 39.0867 58.296 39.224C59.6205 40.0053 60.9327 40.8025 62.2329 41.6235C62.5095 41.7973 62.7862 41.9711 63.0629 42.1449C63.4694 42.4004 63.8752 42.6568 64.279 42.9165C64.6567 43.1595 65.0368 43.3987 65.4171 43.6377C65.7434 43.8461 65.7434 43.8461 66.0764 44.0587C66.6322 44.3754 66.6322 44.3754 67.1758 44.2736C67.7092 44.0461 68.1396 43.7458 68.6086 43.4051C70.4324 42.1725 72.2281 42.0025 74.3947 42.2186C75.1061 42.4196 75.768 42.6608 76.4473 42.951C76.988 43.1987 76.988 43.1987 77.676 43.1561C78.0558 42.8916 78.0558 42.8916 78.4249 42.5189C78.5713 42.3796 78.7176 42.2404 78.8684 42.0969C79.026 41.9437 79.1836 41.7905 79.3459 41.6327C79.6858 41.3079 80.0258 40.9832 80.3658 40.6586C80.5411 40.49 80.7164 40.3214 80.897 40.1477C81.7316 39.3474 82.5752 38.5568 83.4182 37.7655C83.7499 37.4533 84.0817 37.1411 84.4133 36.8289C84.5774 36.6746 84.7414 36.5202 84.9104 36.3612C85.2471 36.0441 85.5838 35.727 85.9204 35.4097C86.419 34.9398 86.9181 34.4703 87.4172 34.0008C87.5649 33.8614 87.7127 33.722 87.8649 33.5783C88.9005 32.6053 89.9606 31.6638 91.0353 30.7342C90.9152 30.0929 90.7834 29.5147 90.5574 28.9004C90.0431 27.2005 90.0258 24.8885 90.6984 23.2342C91.8203 21.1643 93.5041 19.537 95.7521 18.8104C98.6431 18.1204 100.89 18.8561 103.281 20.4657ZM94.3166 23.2342C93.3209 24.6119 93.1373 26.0219 93.3791 27.6874C93.8092 29.0209 94.8262 29.9522 95.9572 30.7342C97.3278 31.1911 98.9075 31.2015 100.249 30.6317C101.49 29.9065 102.249 28.7485 102.691 27.3981C102.95 25.9503 102.544 24.7235 101.817 23.4686C100.863 22.2903 99.4156 21.7257 97.9494 21.5057C96.5656 21.7133 95.3008 22.2227 94.3166 23.2342ZM44.2098 31.669C43.4075 32.7698 42.8721 33.8043 42.9885 35.1874C43.3381 36.865 43.9623 38.007 45.3908 38.996C46.7007 39.6788 47.8469 39.7837 49.2434 39.3622C50.5727 38.8528 51.5097 38.1593 52.1932 36.8729C52.6342 35.5426 52.529 34.0949 52.1291 32.7704C51.3311 31.6981 50.3664 30.6936 49.0822 30.2655C47.1702 30.0771 45.5481 30.1817 44.2098 31.669ZM69.2678 46.9061C68.2238 48.38 68.0792 49.5598 68.301 51.3592C68.8331 52.8108 69.8249 53.6187 71.1135 54.4061C72.3968 54.8339 73.6628 54.8344 74.9074 54.2743C76.1813 53.5521 76.9822 52.6004 77.5441 51.2567C77.7797 49.7646 77.6049 48.5692 76.7934 47.2815C76.0517 46.3192 75.114 45.5694 73.926 45.2655C72.0621 45.0325 70.5216 45.4616 69.2678 46.9061ZM19.1317 54.3951C18.2655 55.5692 17.7647 56.6822 17.9103 58.1561C18.2972 59.7437 18.872 60.7946 20.2541 61.6717C21.5833 62.3883 22.7763 62.5564 24.2385 62.1405C25.5474 61.559 26.3589 60.8358 27.051 59.5624C27.4479 58.3717 27.5125 57.0051 27.1334 55.7968C26.4733 54.5359 25.3568 53.4508 24.0041 52.9999C22.0896 52.8112 20.4819 52.9211 19.1317 54.3951Z" fill="white"/>
</svg>
