<svg width="121" height="121" viewBox="0 0 121 121" fill="none" xmlns="http://www.w3.org/2000/svg">
<path d="M56.3063 6.56074C56.5635 6.55969 56.5635 6.55969 56.8259 6.55863C57.3992 6.5566 57.9726 6.55624 58.5459 6.55589C58.9576 6.5548 59.3692 6.55362 59.7808 6.55236C60.8985 6.54929 62.0162 6.54778 63.1339 6.54673C63.8329 6.54605 64.5319 6.54508 65.2309 6.54404C67.4197 6.54083 69.6085 6.53857 71.7974 6.53766C74.3204 6.53661 76.8434 6.5325 79.3665 6.52571C81.3189 6.52063 83.2714 6.51828 85.2239 6.51796C86.3889 6.51772 87.5539 6.51635 88.7189 6.51215C89.8158 6.50827 90.9127 6.50779 92.0097 6.50984C92.4107 6.51002 92.8118 6.50901 93.2128 6.50668C96.5165 6.48865 99.3307 6.74949 101.866 9.05459C102.04 9.24795 102.214 9.44131 102.394 9.64053C102.553 9.81455 102.713 9.98857 102.877 10.1679C104.081 11.8766 104.54 13.5523 104.531 15.6181C104.531 15.8849 104.531 15.8849 104.532 16.1571C104.532 16.7534 104.531 17.3497 104.53 17.946C104.53 18.3733 104.53 18.8006 104.53 19.2279C104.53 20.3886 104.528 21.5492 104.527 22.7099C104.525 23.9226 104.525 25.1353 104.525 26.3481C104.524 28.6448 104.522 30.9416 104.52 33.2383C104.517 35.853 104.516 38.4676 104.515 41.0823C104.512 46.4611 104.508 51.8399 104.503 57.2187C104.664 57.2654 104.825 57.3122 104.991 57.3603C105.202 57.4225 105.413 57.4846 105.63 57.5486C105.84 57.6099 106.049 57.6712 106.265 57.7343C109.36 58.7313 111.767 61.4721 113.218 64.2787C114.976 67.9284 114.721 71.9153 114.707 75.8673C114.705 76.7717 114.707 77.6761 114.708 78.5805C114.71 80.0982 114.708 81.6158 114.703 83.1335C114.698 84.8781 114.7 86.6226 114.705 88.3672C114.709 89.8759 114.71 91.3846 114.707 92.8933C114.706 93.7896 114.706 94.6859 114.709 95.5823C114.725 101.069 114.656 106.2 110.633 110.424C107.23 113.568 103.196 114.518 98.6683 114.497C98.3261 114.498 97.9839 114.499 97.6417 114.501C96.7098 114.504 95.778 114.503 94.8462 114.502C93.8379 114.5 92.8296 114.503 91.8213 114.506C89.8491 114.51 87.877 114.51 85.9049 114.509C84.3009 114.508 82.6969 114.508 81.093 114.509C80.8642 114.51 80.6354 114.51 80.3997 114.51C79.9349 114.51 79.47 114.511 79.0052 114.511C74.6513 114.514 70.2975 114.513 65.9436 114.51C61.9664 114.508 57.9892 114.511 54.012 114.517C49.9216 114.522 45.8312 114.525 41.7407 114.523C39.4469 114.522 37.1531 114.523 34.8593 114.527C32.9066 114.53 30.9538 114.53 29.001 114.526C28.0061 114.524 27.0112 114.524 26.0163 114.527C25.1029 114.531 24.1897 114.529 23.2764 114.525C22.9485 114.524 22.6206 114.525 22.2928 114.527C18.0031 114.557 13.9279 113.484 10.7512 110.458C7.14495 106.555 6.66116 102.099 6.67765 97.0395C6.6767 96.5452 6.67544 96.051 6.67392 95.5567C6.67073 94.2221 6.67195 92.8876 6.67418 91.553C6.67597 90.1519 6.67431 88.7507 6.67321 87.3495C6.67193 84.9972 6.67361 82.6448 6.67696 80.2925C6.68079 77.5785 6.67955 74.8646 6.67568 72.1507C6.67248 69.8144 6.67204 67.4781 6.67388 65.1418C6.67497 63.7492 6.67513 62.3565 6.6728 60.9638C6.67076 59.6541 6.67219 58.3445 6.67624 57.0347C6.67716 56.556 6.67691 56.0773 6.67535 55.5986C6.66136 50.8651 7.29943 46.7437 10.6746 43.1712C12.0958 41.7507 14.7047 39.6405 16.8468 39.6405C16.8447 39.5112 16.8426 39.3818 16.8404 39.2486C16.8196 37.891 16.8055 36.5336 16.7953 35.1759C16.7906 34.6706 16.7842 34.1653 16.776 33.66C16.7645 32.9298 16.7593 32.1997 16.7552 31.4694C16.7504 31.2469 16.7455 31.0244 16.7405 30.7951C16.7397 28.2801 17.5759 26.1089 19.293 24.2597C19.5903 23.9841 19.5903 23.9841 19.8936 23.703C20.0628 23.5435 20.232 23.384 20.4063 23.2196C22.374 21.8641 24.4299 21.5574 26.7581 21.567C26.9754 21.567 27.1928 21.567 27.4167 21.5669C28.1332 21.5671 28.8497 21.5689 29.5662 21.5708C30.0637 21.5712 30.5612 21.5715 31.0588 21.5718C32.3669 21.5727 33.675 21.575 34.9831 21.5776C36.3185 21.58 37.6539 21.581 38.9892 21.5822C41.6084 21.5847 44.2276 21.5887 46.8468 21.5937C46.8418 21.3729 46.8369 21.1521 46.8319 20.9246C46.8158 20.0933 46.8041 19.2622 46.7953 18.4308C46.7906 18.0733 46.7842 17.7157 46.776 17.3583C46.706 14.2211 47.0589 11.6656 49.293 9.25967C49.4912 9.07598 49.6894 8.89229 49.8936 8.70303C50.0628 8.54351 50.232 8.38398 50.4063 8.21963C52.212 6.97572 54.1455 6.56565 56.3063 6.56074ZM54.8359 14.6425C54.432 15.2586 54.5026 15.8083 54.5125 16.5354C54.5147 16.8292 54.517 17.123 54.5193 17.4257C54.5252 17.7328 54.5311 18.0399 54.5372 18.3563C54.5407 18.6693 54.5439 18.9823 54.5468 19.2952C54.5551 20.0615 54.5667 20.8275 54.5811 21.5937C54.7628 21.595 54.9445 21.5964 55.1317 21.5978C56.8554 21.6115 58.579 21.6284 60.3027 21.6489C61.1885 21.6593 62.0744 21.6685 62.9603 21.6748C63.8174 21.681 64.6745 21.6905 65.5316 21.7022C65.8563 21.7061 66.1811 21.7088 66.5058 21.7103C70.186 21.7287 73.6801 22.4114 76.378 25.1093C77.9476 27.0419 79.2075 29.2931 79.2276 31.8347C79.2299 32.0549 79.2322 32.275 79.2345 32.5019C79.2359 32.7418 79.2372 32.9817 79.2386 33.2289C79.2409 33.4827 79.2433 33.7366 79.2457 33.9982C79.2531 34.8377 79.2589 35.6772 79.2647 36.5167C79.2695 37.0987 79.2744 37.6806 79.2794 38.2626C79.291 39.6379 79.3017 41.0133 79.3118 42.3887C79.3265 44.3833 79.3433 46.3778 79.3598 48.3724C79.3828 51.1649 79.4036 53.9574 79.4249 56.7499C85.1483 56.7499 90.8718 56.7499 96.7686 56.7499C96.7845 51.3226 96.7974 45.8953 96.8051 40.468C96.8087 37.9481 96.8136 35.4282 96.8217 32.9084C96.8287 30.7126 96.8332 28.5168 96.8348 26.321C96.8357 25.1579 96.8379 23.9948 96.843 22.8316C96.8477 21.7376 96.8492 20.6436 96.8482 19.5496C96.8484 19.1474 96.8498 18.7452 96.8524 18.343C96.8559 17.7951 96.8551 17.2474 96.8532 16.6995C96.8538 16.3925 96.8545 16.0855 96.8551 15.7692C96.8196 15.0532 96.8196 15.0532 96.5135 14.5809C95.8226 14.1909 95.2267 14.2394 94.4375 14.2387C94.1875 14.2371 94.1875 14.2371 93.9325 14.2354C93.3727 14.2326 92.813 14.2348 92.2532 14.237C91.8525 14.2361 91.4518 14.2348 91.051 14.2333C89.9615 14.2301 88.872 14.2314 87.7824 14.2336C86.6435 14.2354 85.5046 14.2337 84.3657 14.2326C82.453 14.2313 80.5402 14.233 78.6275 14.2364C76.4144 14.2402 74.2013 14.2389 71.9882 14.2351C70.0899 14.2319 68.1916 14.2314 66.2933 14.2333C65.1587 14.2344 64.0242 14.2345 62.8896 14.2322C61.8231 14.2302 60.7566 14.2316 59.6901 14.2356C59.2981 14.2366 58.9061 14.2363 58.5141 14.2347C57.9801 14.2328 57.4463 14.2352 56.9123 14.2387C56.6131 14.239 56.3139 14.2393 56.0057 14.2395C55.2928 14.2696 55.2928 14.2696 54.8359 14.6425ZM24.8293 29.6275C24.3729 30.3699 24.4968 31.254 24.5125 32.0993C24.5135 32.3012 24.5145 32.5031 24.5155 32.7111C24.5194 33.356 24.5282 34.0006 24.5372 34.6454C24.5407 35.0826 24.5439 35.5197 24.5468 35.9569C24.5546 37.0286 24.5667 38.1002 24.5811 39.1718C24.7356 39.1723 24.89 39.1729 25.0491 39.1735C28.8172 39.1874 32.5853 39.2051 36.3533 39.227C38.1755 39.2375 39.9978 39.2468 41.8201 39.253C43.4094 39.2584 44.9988 39.2662 46.5882 39.2769C47.4287 39.2825 48.2692 39.2869 49.1098 39.2884C50.0511 39.2901 50.9924 39.2973 51.9337 39.3048C52.3458 39.3043 52.3458 39.3043 52.7664 39.3038C56.664 39.3478 60.2023 40.6424 63.0186 43.3905C64.5939 45.1953 65.9008 47.2092 67.2421 49.1892C68.1223 50.4847 69.0261 51.7587 69.962 53.0146C70.0784 53.1722 70.1948 53.3299 70.3148 53.4923C70.8166 54.1591 71.2244 54.6423 71.9249 55.1093C71.9412 52.2732 71.9537 49.4371 71.9613 46.601C71.965 45.284 71.9699 43.967 71.9779 42.6499C71.9856 41.378 71.9898 40.106 71.9916 38.834C71.9929 38.3497 71.9954 37.8654 71.9992 37.3812C72.0044 36.7007 72.005 36.0204 72.0047 35.3399C72.0072 35.1415 72.0098 34.943 72.0124 34.7386C72.0046 33.2207 71.7891 31.6805 70.8189 30.4633C70.6812 30.3594 70.5434 30.2554 70.4014 30.1483C70.2637 30.0396 70.1259 29.9308 69.984 29.8188C69.0775 29.2419 68.1762 29.2939 67.1432 29.2951C66.9651 29.2944 66.787 29.2937 66.6034 29.293C66.0048 29.291 65.4062 29.2906 64.8076 29.2903C64.3791 29.2892 63.9507 29.288 63.5222 29.2867C62.3572 29.2837 61.1921 29.2822 60.027 29.2811C59.2997 29.2804 58.5724 29.2795 57.8451 29.2784C55.5712 29.2752 53.2972 29.2729 51.0233 29.272C48.3952 29.271 45.7671 29.2669 43.139 29.2601C41.1093 29.255 39.0796 29.2527 37.05 29.2523C35.8368 29.2521 34.6237 29.2507 33.4105 29.2465C32.2701 29.2427 31.1298 29.2421 29.9894 29.2442C29.5701 29.2444 29.1509 29.2434 28.7317 29.2411C28.1608 29.2381 27.59 29.2394 27.0191 29.2419C26.852 29.24 26.6849 29.2381 26.5127 29.2362C25.8509 29.2429 25.3902 29.2583 24.8293 29.6275ZM15.6749 49.2499C14.6697 50.8025 14.4681 52.2017 14.4701 54.0295C14.4694 54.2298 14.4687 54.4301 14.468 54.6365C14.4659 55.3088 14.4656 55.9811 14.4652 56.6535C14.4642 57.1351 14.463 57.6167 14.4617 58.0984C14.4586 59.4078 14.4571 60.7172 14.4561 62.0267C14.4554 62.8449 14.4544 63.6631 14.4534 64.4813C14.4502 67.0416 14.4479 69.6018 14.447 72.1621C14.446 75.1169 14.4419 78.0717 14.4351 81.0265C14.43 83.3108 14.4276 85.5951 14.4273 87.8793C14.4271 89.2435 14.4257 90.6076 14.4215 91.9717C14.4176 93.2554 14.4171 94.5391 14.4192 95.8228C14.4194 96.2932 14.4184 96.7636 14.416 97.234C14.413 97.8778 14.4144 98.5215 14.4169 99.1653C14.415 99.35 14.4131 99.5347 14.4112 99.725C14.4282 101.661 14.9706 103.637 16.378 105.031C17.997 106.213 19.3027 106.7 21.3057 106.703C21.5909 106.703 21.876 106.704 22.1698 106.705C22.4855 106.705 22.8011 106.705 23.1168 106.705C23.4527 106.705 23.7887 106.706 24.1246 106.707C25.0478 106.709 25.971 106.709 26.8943 106.709C27.8899 106.71 28.8856 106.711 29.8813 106.713C32.0585 106.716 34.2357 106.718 36.4128 106.719C37.7723 106.719 39.1318 106.72 40.4913 106.721C44.2555 106.724 48.0197 106.727 51.7839 106.727C52.0248 106.728 52.2657 106.728 52.5138 106.728C52.876 106.728 52.876 106.728 53.2455 106.728C53.7348 106.728 54.2241 106.728 54.7134 106.728C54.9561 106.728 55.1988 106.728 55.4489 106.728C59.3819 106.729 63.3148 106.733 67.2478 106.739C71.286 106.744 75.3242 106.747 79.3623 106.747C81.6295 106.748 83.8967 106.749 86.1639 106.753C88.0944 106.757 90.0248 106.758 91.9553 106.756C92.9401 106.755 93.9248 106.755 94.9095 106.759C95.8117 106.762 96.7138 106.761 97.616 106.759C97.9417 106.758 98.2674 106.759 98.593 106.761C100.88 106.774 102.952 106.618 104.823 105.184C106.303 103.69 106.873 102.013 106.88 99.9532C106.881 99.6884 106.882 99.4236 106.884 99.1508C106.884 98.8625 106.884 98.5741 106.885 98.2771C106.886 97.9717 106.887 97.6663 106.888 97.3516C106.891 96.5153 106.893 95.679 106.894 94.8426C106.894 94.3194 106.895 93.7961 106.896 93.2729C106.9 91.6337 106.902 89.9945 106.903 88.3552C106.904 86.4669 106.908 84.5787 106.915 82.6904C106.92 81.2282 106.922 79.7659 106.922 78.3037C106.923 77.4316 106.924 76.5595 106.928 75.6874C106.933 74.7136 106.932 73.7398 106.93 72.7659C106.932 72.4795 106.935 72.193 106.937 71.8979C106.925 69.4257 106.521 67.6951 104.796 65.8786C102.869 64.209 100.549 64.2154 98.1245 64.2167C97.8617 64.2158 97.5989 64.215 97.3282 64.2142C96.7585 64.2125 96.1888 64.2112 95.619 64.2104C94.7153 64.2087 93.8115 64.205 92.9078 64.2007C90.3384 64.1884 87.769 64.177 85.1996 64.1735C83.6266 64.1713 82.0537 64.1642 80.4808 64.1545C79.8834 64.1516 79.2861 64.1504 78.6887 64.1509C72.7322 64.1548 72.7322 64.1548 70.2843 63.078C70.0753 62.9944 69.8663 62.9108 69.651 62.8247C66.4624 61.4986 64.5339 58.6346 62.6813 55.8806C61.6934 54.4303 60.6464 53.0207 59.613 51.6028C59.2968 51.164 58.9881 50.721 58.6818 50.2753C57.4592 48.5402 56.3609 47.5775 54.3468 46.9062C53.8813 46.8833 53.4151 46.8745 52.949 46.8732C52.657 46.8719 52.3649 46.8706 52.0639 46.8692C51.7396 46.8689 51.4153 46.8686 51.091 46.8684C50.7499 46.8673 50.4087 46.8661 50.0676 46.8649C49.1402 46.8618 48.2129 46.8603 47.2855 46.8592C46.7058 46.8585 46.1261 46.8576 45.5464 46.8565C43.7318 46.8533 41.9173 46.8511 40.1027 46.8502C38.0097 46.8491 35.9168 46.845 33.8238 46.8382C32.2052 46.8331 30.5865 46.8308 28.9678 46.8305C28.0016 46.8302 27.0353 46.8288 26.069 46.8246C25.1593 46.8208 24.2496 46.8203 23.3398 46.8223C23.0069 46.8225 22.674 46.8215 22.341 46.8192C19.5746 46.801 17.5888 47.111 15.6749 49.2499Z" fill="white"/>
<path d="M31.3432 74.0559C31.5056 74.0548 31.6681 74.0536 31.8354 74.0524C32.3727 74.049 32.91 74.0474 33.4472 74.0461C33.8212 74.0447 34.1952 74.0434 34.5691 74.042C35.3535 74.0396 36.1378 74.0382 36.9222 74.0374C37.9254 74.0361 38.9286 74.0305 39.9319 74.0238C40.7046 74.0194 41.4773 74.0182 42.25 74.0179C42.6197 74.0172 42.9895 74.0153 43.3592 74.0122C43.8776 74.0082 44.3957 74.0086 44.914 74.0102C45.2086 74.0093 45.5031 74.0084 45.8066 74.0076C46.8432 74.1185 47.637 74.4413 48.4033 75.1566C49.5214 76.6188 49.5917 77.6557 49.4241 79.4843C48.8798 80.7036 48.0511 81.3055 46.846 81.8281C46.0029 81.9487 46.0029 81.9487 45.0974 81.9531C44.931 81.9551 44.7646 81.9571 44.5932 81.9592C44.0479 81.9645 43.503 81.963 42.9577 81.9608C42.5757 81.9621 42.1937 81.9635 41.8117 81.9652C41.0128 81.9677 40.214 81.9666 39.4152 81.9632C38.3951 81.9591 37.3753 81.9647 36.3553 81.9729C35.5668 81.9781 34.7785 81.9777 33.99 81.9758C33.6141 81.9756 33.2382 81.9772 32.8623 81.9806C29.0278 82.0106 29.0278 82.0106 27.6272 80.6562C26.7762 79.603 26.8064 78.6557 26.8417 77.3466C26.9911 76.1234 27.5781 75.5214 28.4622 74.7236C29.4278 74.0551 30.1945 74.0622 31.3432 74.0559Z" fill="white"/>
<path d="M31.0342 86.6288C31.2059 86.6272 31.3776 86.6255 31.5544 86.6238C32.1184 86.6197 32.6821 86.6224 33.2461 86.6256C33.6401 86.625 34.0341 86.6241 34.428 86.6229C35.2524 86.6215 36.0766 86.6235 36.9009 86.6279C37.9554 86.6332 39.0097 86.6301 40.0642 86.6245C40.8773 86.6211 41.6904 86.6222 42.5036 86.6247C42.8923 86.6253 43.281 86.6245 43.6697 86.6223C44.2139 86.6199 44.7576 86.6236 45.3018 86.6288C45.6108 86.6295 45.9199 86.6303 46.2383 86.6311C47.4792 86.8078 48.1892 87.381 49.0371 88.2735C49.5992 89.4841 49.5947 90.5939 49.418 91.9064C48.8768 93.072 48.1823 93.6248 47.0742 94.2501C46.2383 94.3692 46.2383 94.3692 45.3018 94.3714C45.1301 94.3731 44.9584 94.3747 44.7815 94.3764C44.2175 94.3805 43.6538 94.3778 43.0899 94.3746C42.6959 94.3753 42.3019 94.3762 41.9079 94.3773C41.0836 94.3787 40.2594 94.3767 39.4351 94.3723C38.3805 94.367 37.3263 94.3701 36.2717 94.3757C35.4586 94.3791 34.6455 94.378 33.8324 94.3756C33.4437 94.3749 33.0549 94.3757 32.6662 94.3779C32.1221 94.3803 31.5783 94.3766 31.0342 94.3714C30.7251 94.3707 30.416 94.3699 30.0976 94.3692C28.8568 94.1924 28.1467 93.6192 27.2988 92.7267C26.7368 91.5161 26.7413 90.4063 26.918 89.0939C27.758 87.2845 29.0945 86.6335 31.0342 86.6288Z" fill="white"/>
</svg>
