<svg width="24" height="25" viewBox="0 0 24 25" fill="none" xmlns="http://www.w3.org/2000/svg">
<path d="M2 12.8936C2 17.6076 2 19.9636 3.465 21.4286C4.929 22.8926 7.286 22.8926 12 22.8926C16.714 22.8926 19.071 22.8926 20.536 21.4286C21.893 20.0716 21.992 17.9486 22 13.8926M11 2.89355C6.945 2.90055 4.822 3.00055 3.465 4.35755C2.648 5.17355 2.287 6.26755 2.127 7.89355" stroke="#4F4F4F" stroke-width="1.5" stroke-linecap="round"/>
<path d="M13 11.8936L22 2.89355M22 2.89355H16.656M22 2.89355V8.23755M21 3.89355L12 12.8936M12 12.8936H16M12 12.8936V8.89355" stroke="#4F4F4F" stroke-width="1.5" stroke-linecap="round" stroke-linejoin="round"/>
</svg>
