<svg width="24" height="25" viewBox="0 0 24 25" fill="none" xmlns="http://www.w3.org/2000/svg">
<path d="M19.713 8.74944L19.467 9.31544C19.4286 9.40761 19.3637 9.48634 19.2806 9.54172C19.1975 9.59709 19.0999 9.62664 19 9.62664C18.9001 9.62664 18.8025 9.59709 18.7194 9.54172C18.6363 9.48634 18.5714 9.40761 18.533 9.31544L18.287 8.74944C17.8545 7.74817 17.0624 6.94536 16.067 6.49944L15.308 6.16044C15.2159 6.11808 15.1379 6.05021 15.0832 5.96487C15.0286 5.87953 14.9995 5.7803 14.9995 5.67894C14.9995 5.57759 15.0286 5.47835 15.0832 5.39301C15.1379 5.30767 15.2159 5.2398 15.308 5.19744L16.025 4.87844C17.0454 4.41982 17.8511 3.58732 18.276 2.55244L18.529 1.94144C18.5662 1.8468 18.631 1.76554 18.715 1.70827C18.799 1.65099 18.8983 1.62036 19 1.62036C19.1017 1.62036 19.201 1.65099 19.285 1.70827C19.369 1.76554 19.4338 1.8468 19.471 1.94144L19.724 2.55144C20.1485 3.58652 20.9538 4.41938 21.974 4.87844L22.692 5.19844C22.7838 5.24092 22.8615 5.30878 22.916 5.39402C22.9705 5.47925 22.9994 5.57829 22.9994 5.67944C22.9994 5.7806 22.9705 5.87964 22.916 5.96487C22.8615 6.0501 22.7838 6.11796 22.692 6.16044L21.932 6.49844C20.9368 6.94481 20.1451 7.74797 19.713 8.74944ZM15 22.1594L9 8.15944L6.66 13.6214H1V11.6214H5.34L9 3.08244L15 17.0824L17.34 11.6214H23V13.6214H18.66L15 22.1594Z" fill="#4F4F4F"/>
</svg>
