<svg width="28" height="29" viewBox="0 0 28 29" fill="none" xmlns="http://www.w3.org/2000/svg">
<path d="M6 13.3936C6 12.7305 6.26339 12.0946 6.73223 11.6258C7.20107 11.1569 7.83696 10.8936 8.5 10.8936C9.16304 10.8936 9.79893 11.1569 10.2678 11.6258C10.7366 12.0946 11 12.7305 11 13.3936C11 14.0566 10.7366 14.6925 10.2678 15.1613C9.79893 15.6302 9.16304 15.8936 8.5 15.8936C7.83696 15.8936 7.20107 15.6302 6.73223 15.1613C6.26339 14.6925 6 14.0566 6 13.3936ZM8.5 12.3936C8.23478 12.3936 7.98043 12.4989 7.79289 12.6864C7.60536 12.874 7.5 13.1283 7.5 13.3936C7.5 13.6588 7.60536 13.9131 7.79289 14.1007C7.98043 14.2882 8.23478 14.3936 8.5 14.3936C8.76522 14.3936 9.01957 14.2882 9.20711 14.1007C9.39464 13.9131 9.5 13.6588 9.5 13.3936C9.5 13.1283 9.39464 12.874 9.20711 12.6864C9.01957 12.4989 8.76522 12.3936 8.5 12.3936ZM8.5 17.8936C7.83696 17.8936 7.20107 18.1569 6.73223 18.6258C6.26339 19.0946 6 19.7305 6 20.3936C6 21.0566 6.26339 21.6925 6.73223 22.1613C7.20107 22.6302 7.83696 22.8936 8.5 22.8936C9.16304 22.8936 9.79893 22.6302 10.2678 22.1613C10.7366 21.6925 11 21.0566 11 20.3936C11 19.7305 10.7366 19.0946 10.2678 18.6258C9.79893 18.1569 9.16304 17.8936 8.5 17.8936ZM7.5 20.3936C7.5 20.1283 7.60536 19.874 7.79289 19.6864C7.98043 19.4989 8.23478 19.3936 8.5 19.3936C8.76522 19.3936 9.01957 19.4989 9.20711 19.6864C9.39464 19.874 9.5 20.1283 9.5 20.3936C9.5 20.6588 9.39464 20.9131 9.20711 21.1007C9.01957 21.2882 8.76522 21.3936 8.5 21.3936C8.23478 21.3936 7.98043 21.2882 7.79289 21.1007C7.60536 20.9131 7.5 20.6588 7.5 20.3936ZM13 13.1436C13 12.9446 13.079 12.7539 13.2197 12.6132C13.3603 12.4726 13.5511 12.3936 13.75 12.3936H21.25C21.4489 12.3936 21.6397 12.4726 21.7803 12.6132C21.921 12.7539 22 12.9446 22 13.1436C22 13.3425 21.921 13.5332 21.7803 13.6739C21.6397 13.8145 21.4489 13.8936 21.25 13.8936H13.75C13.5511 13.8936 13.3603 13.8145 13.2197 13.6739C13.079 13.5332 13 13.3425 13 13.1436ZM13.75 19.3936C13.5511 19.3936 13.3603 19.4726 13.2197 19.6132C13.079 19.7539 13 19.9446 13 20.1436C13 20.3425 13.079 20.5332 13.2197 20.6739C13.3603 20.8145 13.5511 20.8936 13.75 20.8936H21.25C21.4489 20.8936 21.6397 20.8145 21.7803 20.6739C21.921 20.5332 22 20.3425 22 20.1436C22 19.9446 21.921 19.7539 21.7803 19.6132C21.6397 19.4726 21.4489 19.3936 21.25 19.3936H13.75ZM6 8.14355C6 7.94464 6.07902 7.75388 6.21967 7.61322C6.36032 7.47257 6.55109 7.39355 6.75 7.39355H21.25C21.4489 7.39355 21.6397 7.47257 21.7803 7.61322C21.921 7.75388 22 7.94464 22 8.14355C22 8.34247 21.921 8.53323 21.7803 8.67388C21.6397 8.81454 21.4489 8.89355 21.25 8.89355H6.75C6.55109 8.89355 6.36032 8.81454 6.21967 8.67388C6.07902 8.53323 6 8.34247 6 8.14355ZM6.75 3.89355C5.75544 3.89355 4.80161 4.28864 4.09835 4.9919C3.39509 5.69517 3 6.64899 3 7.64355V22.1436C3 23.1381 3.39509 24.0919 4.09835 24.7952C4.80161 25.4985 5.75544 25.8936 6.75 25.8936H21.25C22.2446 25.8936 23.1984 25.4985 23.9017 24.7952C24.6049 24.0919 25 23.1381 25 22.1436V7.64355C25 6.64899 24.6049 5.69517 23.9017 4.9919C23.1984 4.28864 22.2446 3.89355 21.25 3.89355H6.75ZM4.5 7.64355C4.5 7.04682 4.73705 6.47452 5.15901 6.05256C5.58097 5.63061 6.15326 5.39355 6.75 5.39355H21.25C21.8467 5.39355 22.419 5.63061 22.841 6.05256C23.2629 6.47452 23.5 7.04682 23.5 7.64355V22.1436C23.5 22.7403 23.2629 23.3126 22.841 23.7345C22.419 24.1565 21.8467 24.3936 21.25 24.3936H6.75C6.15326 24.3936 5.58097 24.1565 5.15901 23.7345C4.73705 23.3126 4.5 22.7403 4.5 22.1436V7.64355Z" fill="#4F4F4F"/>
</svg>
