<svg width="32" height="32" viewBox="0 0 32 32" fill="none" xmlns="http://www.w3.org/2000/svg">
<g clip-path="url(#clip0_199_7570)">
<path d="M18.9999 21L18.9999 19L19.9999 19L19.9999 12L18.9999 12L18.9999 10L22.9999 10L22.9999 12L21.9999 12L21.9999 19L22.9999 19L22.9999 21L18.9999 21ZM15.4999 21L17.4999 21L13.9999 10L10.9999 10L7.50293 21L9.50293 21L10.1039 19L14.8819 19L15.4999 21ZM10.7059 17L12.3339 11.589L12.5899 11.586L14.2639 17L10.7059 17Z" fill="#4F4F4F"/>
<path d="M32 32L1.77374e-09 32L0 0L32 -1.77374e-09L32 32ZM2 30L30 30L30 2L2 2L2 30Z" fill="#4F4F4F"/>
</g>
<defs>
<clipPath id="clip0_199_7570">
<rect width="32" height="32" fill="white"/>
</clipPath>
</defs>
</svg>
