<svg width="33" height="32" viewBox="0 0 33 32" fill="none" xmlns="http://www.w3.org/2000/svg">
<path fill-rule="evenodd" clip-rule="evenodd" d="M12.375 5.33333C12.375 4.97971 12.5199 4.64057 12.7777 4.39052C13.0356 4.14048 13.3853 4 13.75 4L19.25 4C19.6147 4 19.9644 4.14048 20.2223 4.39052C20.4801 4.64057 20.625 4.97971 20.625 5.33333C20.625 5.68696 20.4801 6.02609 20.2223 6.27614C19.9644 6.52619 19.6147 6.66667 19.25 6.66667L17.875 6.66667L17.875 8.04667C25.355 8.7 30.2638 16.2227 27.4024 23.1613C27.3004 23.409 27.1241 23.6212 26.8964 23.7707C26.6687 23.9202 26.4 24.0001 26.125 24L6.875 24C6.60024 23.9998 6.33184 23.9198 6.10441 23.7704C5.87697 23.6209 5.70093 23.4087 5.599 23.1613C2.73625 16.2227 7.645 8.7 15.125 8.04667L15.125 6.66667L13.75 6.66667C13.3853 6.66667 13.0356 6.52619 12.7777 6.27614C12.5199 6.02609 12.375 5.68696 12.375 5.33333ZM16.1838 10.6667C10.373 10.6667 6.30575 16.0707 7.85537 21.3333L25.1446 21.3333C26.6943 16.0707 22.627 10.6667 16.8162 10.6667L16.1838 10.6667ZM4.125 26.6667C4.125 26.313 4.26987 25.9739 4.52773 25.7239C4.78559 25.4738 5.13533 25.3333 5.5 25.3333L27.5 25.3333C27.8647 25.3333 28.2144 25.4738 28.4723 25.7239C28.7301 25.9739 28.875 26.313 28.875 26.6667C28.875 27.0203 28.7301 27.3594 28.4723 27.6095C28.2144 27.8595 27.8647 28 27.5 28L5.5 28C5.13533 28 4.78559 27.8595 4.52773 27.6095C4.26987 27.3594 4.125 27.0203 4.125 26.6667Z" fill="#4F4F4F"/>
</svg>
