<svg width="28" height="29" viewBox="0 0 28 29" fill="none" xmlns="http://www.w3.org/2000/svg">
<rect y="0.8125" width="28" height="28" rx="14" fill="url(#paint0_linear_6012_29888)"/>
<path d="M6.01287 19.3574C5.76405 19.6209 5.77597 20.0363 6.0395 20.2851C6.30303 20.5339 6.71837 20.522 6.9672 20.2584L6.01287 19.3574ZM11.2017 14.8177L11.6222 14.3139C11.3559 14.0917 10.9627 14.115 10.7245 14.3672L11.2017 14.8177ZM14.5622 17.6226L14.1417 18.1264C14.4122 18.3522 14.8128 18.3241 15.0491 18.0627L14.5622 17.6226ZM21.9064 10.1903C21.8881 9.82833 21.5799 9.54969 21.2179 9.56795L15.3191 9.86545C14.9572 9.88371 14.6785 10.1919 14.6968 10.5539C14.715 10.9159 15.0233 11.1945 15.3853 11.1763L20.6286 10.9118L20.893 16.1552C20.9113 16.5172 21.2195 16.7958 21.5815 16.7775C21.9435 16.7593 22.2221 16.451 22.2039 16.0891L21.9064 10.1903ZM6.9672 20.2584L11.6789 15.2683L10.7245 14.3672L6.01287 19.3574L6.9672 20.2584ZM10.7812 15.3216L14.1417 18.1264L14.9828 17.1188L11.6222 14.3139L10.7812 15.3216ZM15.0491 18.0627L21.7378 10.6634L20.7641 9.78329L14.0754 17.1825L15.0491 18.0627Z" fill="white"/>
<defs>
<linearGradient id="paint0_linear_6012_29888" x1="14" y1="28.8125" x2="14" y2="0.8125" gradientUnits="userSpaceOnUse">
<stop stop-color="#0538FF"/>
<stop offset="1" stop-color="#5799F7"/>
</linearGradient>
</defs>
</svg>
