<svg width="28" height="29" viewBox="0 0 28 29" fill="none" xmlns="http://www.w3.org/2000/svg">
<rect y="0.8125" width="28" height="28" rx="14" fill="url(#paint0_linear_6012_29890)"/>
<g clip-path="url(#clip0_6012_29890)">
<path d="M5.8335 16.248C7.4126 16.248 8.9917 16.248 10.6187 16.248C10.6147 18.0026 10.6147 18.0026 10.6109 18.5558C10.6113 18.72 10.6113 18.72 10.6122 18.8842C10.6123 18.9571 10.6119 19.03 10.6109 19.1029C10.588 19.5162 10.588 19.5162 10.72 19.8924C10.8013 19.9586 10.8741 20.0019 10.9696 20.0443C11.0088 20.07 11.0478 20.0962 11.0863 20.123C12.3462 20.8752 13.8114 21.187 15.2553 20.8337C15.647 20.7306 16.0202 20.5847 16.3927 20.4271C16.4555 20.5399 16.5178 20.653 16.5802 20.766C16.5979 20.7979 16.6156 20.8298 16.6339 20.8626C16.6595 20.9092 16.6595 20.9092 16.6856 20.9567C16.7013 20.9851 16.717 21.0135 16.7332 21.0428C16.7778 21.1334 16.8095 21.2239 16.8394 21.3203C16.3226 21.5713 15.8057 21.7682 15.2443 21.8945C15.2215 21.8998 15.1987 21.9052 15.1753 21.9106C14.4151 22.08 13.4818 22.0708 12.7241 21.8945C12.6995 21.8891 12.675 21.8836 12.6496 21.8779C12.1185 21.7572 11.6093 21.5744 11.1261 21.3232C11.0982 21.3088 11.0982 21.3088 11.0698 21.2941C11.0015 21.2565 11.0015 21.2565 10.9295 21.209C10.678 21.0515 10.4593 21.0378 10.1685 21.0404C10.1203 21.0402 10.072 21.0398 10.0237 21.0394C9.89543 21.0385 9.76718 21.0388 9.6389 21.0393C9.51815 21.0395 9.39742 21.0388 9.27667 21.0381C8.92448 21.0368 8.57229 21.0371 8.22009 21.0372C7.03873 21.0352 7.03873 21.0352 5.8335 21.0332C5.8335 19.4541 5.8335 17.875 5.8335 16.248Z" fill="white"/>
<path d="M17.1904 10.4102C17.6703 10.5949 18.0655 10.9873 18.4346 11.3353C18.4596 11.3586 18.4846 11.3818 18.5103 11.4058C19.5101 12.3663 20.2148 13.8773 20.2584 15.264C20.2606 15.3793 20.2605 15.4945 20.2595 15.6097C20.2589 15.681 20.2588 15.7522 20.2588 15.8234C20.2577 16.1701 20.2577 16.1701 20.221 16.2799C20.2389 16.2823 20.2567 16.2847 20.2751 16.2872C20.8742 16.3854 21.4052 16.7505 21.7594 17.2391C22.1345 17.8218 22.2639 18.4768 22.1473 19.1618C22.0288 19.6536 21.7939 20.0471 21.4333 20.3952C21.4107 20.4187 21.3882 20.4422 21.365 20.4665C20.9457 20.8794 20.3474 21.0435 19.7744 21.0492C19.139 21.0429 18.5553 20.8411 18.1031 20.3857C18.0756 20.3573 18.0482 20.3288 18.0199 20.2995C17.9963 20.2769 17.9728 20.2544 17.9486 20.2312C17.5397 19.816 17.3712 19.226 17.3659 18.6586C17.372 18.0133 17.5689 17.4278 18.0309 16.9673C18.0589 16.9405 18.0868 16.9137 18.1156 16.8861C18.1481 16.8537 18.1481 16.8537 18.1812 16.8208C18.4506 16.5676 18.8531 16.3118 19.2321 16.3118C19.258 15.476 19.258 15.476 19.1364 14.653C19.1301 14.6269 19.1237 14.6009 19.1172 14.5741C18.7708 13.1758 17.9235 12.0385 16.7119 11.2715C16.7556 11.1544 16.8087 11.0501 16.8727 10.9429C16.8912 10.9117 16.9097 10.8806 16.9287 10.8485C16.948 10.8163 16.9672 10.7842 16.9871 10.7511C17.0066 10.7183 17.026 10.6856 17.0461 10.6518C17.0941 10.5712 17.1422 10.4907 17.1904 10.4102Z" fill="white"/>
<path d="M10.7144 7.63477C12.883 7.63477 15.0516 7.63477 17.286 7.63477C17.1557 7.85814 17.0263 8.07919 16.8872 8.29671C16.8538 8.34925 16.8205 8.40179 16.7871 8.45435C16.7697 8.48178 16.7523 8.50922 16.7344 8.53748C16.6378 8.69012 16.5422 8.84334 16.4466 8.99654C16.4164 9.04479 16.4164 9.04479 16.3857 9.09402C16.3447 9.15969 16.3037 9.22537 16.2627 9.29105C16.1625 9.45145 16.0623 9.61179 15.9621 9.77214C15.9222 9.83594 15.8823 9.89974 15.8424 9.96354C15.1247 11.112 15.1247 11.112 15.0648 11.2078C15.0251 11.2713 14.9854 11.3348 14.9457 11.3983C14.8433 11.5622 14.7408 11.7261 14.6383 11.8899C14.6069 11.9401 14.6069 11.9401 14.5749 11.9913C14.5339 12.0568 14.4929 12.1223 14.4519 12.1877C14.3679 12.3219 14.2842 12.4562 14.2028 12.592C14.1908 12.6119 14.1788 12.6318 14.1665 12.6523C14.1366 12.7023 14.1069 12.7525 14.0773 12.8027C14.0549 12.8343 14.0549 12.8343 14.0321 12.8665C14.011 12.8665 13.99 12.8665 13.9683 12.8665C13.9202 12.8 13.9202 12.8 13.8638 12.7064C13.843 12.6721 13.8221 12.6378 13.8006 12.6024C13.7781 12.5649 13.7555 12.5273 13.733 12.4897C13.6981 12.4322 13.6631 12.3747 13.6282 12.3172C13.6047 12.2786 13.5813 12.24 13.5578 12.2013C13.4606 12.041 13.3611 11.8823 13.2605 11.7241C13.0577 11.4048 12.8589 11.083 12.6603 10.7611C12.4976 10.7793 12.3528 10.8158 12.1997 10.8747C12.1777 10.8831 12.1557 10.8916 12.133 10.9002C11.5105 11.1443 10.9482 11.4855 10.4591 11.9414C10.4311 11.9673 10.4311 11.9673 10.4026 11.9937C9.96045 12.4069 9.61852 12.8711 9.34261 13.4089C9.32739 13.4381 9.32739 13.4381 9.31186 13.468C9.07877 13.9215 8.93421 14.4098 8.83219 14.9082C8.49832 14.8709 8.17177 14.8195 7.84326 14.7487C7.93977 14.1426 8.11595 13.5776 8.38558 13.026C8.40075 12.9948 8.40075 12.9948 8.41622 12.9629C8.80128 12.1798 9.38269 11.4504 10.0763 10.9206C10.1069 10.8955 10.1374 10.8705 10.1689 10.8447C10.7173 10.4028 11.3837 10.0514 12.0542 9.83594C11.8998 9.53461 11.7177 9.25226 11.5359 8.96704C11.4346 8.80731 11.3348 8.64665 11.2347 8.48612C11.0789 8.23609 10.9215 7.98722 10.7603 7.74056C10.7144 7.66667 10.7144 7.66667 10.7144 7.63477Z" fill="white"/>
</g>
<defs>
<linearGradient id="paint0_linear_6012_29890" x1="23.52" y1="-0.0274987" x2="3.36" y2="26.9925" gradientUnits="userSpaceOnUse">
<stop stop-color="#FF9900"/>
<stop offset="1" stop-color="#AC5100"/>
</linearGradient>
<clipPath id="clip0_6012_29890">
<rect width="16.3333" height="16.3333" fill="white" transform="translate(5.8335 6.646)"/>
</clipPath>
</defs>
</svg>
