<svg width="32" height="32" viewBox="0 0 32 32" fill="none" xmlns="http://www.w3.org/2000/svg">
<path d="M28.3332 7.33329C28.068 7.33329 27.8136 7.22794 27.6261 7.0404C27.4385 6.85286 27.3332 6.59851 27.3332 6.33329C27.3332 6.06808 27.4385 5.81372 27.6261 5.62619C27.8136 5.43865 28.068 5.33329 28.3332 5.33329C28.5984 5.33329 28.8527 5.43865 29.0403 5.62619C29.2278 5.81372 29.3332 6.06808 29.3332 6.33329C29.3332 6.59851 29.2278 6.85286 29.0403 7.0404C28.8527 7.22794 28.5984 7.33329 28.3332 7.33329ZM28.3332 7.33329V12.3333C28.3332 13.264 28.3332 13.7293 28.2185 14.1066C28.0914 14.5264 27.8627 14.9083 27.5526 15.2186C27.2426 15.5289 26.8608 15.7578 26.4412 15.8853C26.0625 16 25.5972 16 24.6665 16M3.6665 24.6666C3.93172 24.6666 4.18607 24.772 4.37361 24.9595C4.56115 25.1471 4.6665 25.4014 4.6665 25.6666C4.6665 25.9318 4.56115 26.1862 4.37361 26.3737C4.18607 26.5613 3.93172 26.6666 3.6665 26.6666C3.40129 26.6666 3.14693 26.5613 2.9594 26.3737C2.77186 26.1862 2.6665 25.9318 2.6665 25.6666C2.6665 25.4014 2.77186 25.1471 2.9594 24.9595C3.14693 24.772 3.40129 24.6666 3.6665 24.6666ZM3.6665 24.6666V19.6666C3.6665 18.736 3.6665 18.2706 3.78117 17.8933C3.9083 17.4735 4.13701 17.0916 4.44704 16.7813C4.75706 16.4711 5.13882 16.2421 5.5585 16.1146C5.93717 16 6.4025 16 7.33317 16M7.33317 3.66663C7.33317 3.93184 7.22781 4.1862 7.04028 4.37373C6.85274 4.56127 6.59839 4.66663 6.33317 4.66663C6.06795 4.66663 5.8136 4.56127 5.62606 4.37373C5.43853 4.1862 5.33317 3.93184 5.33317 3.66663C5.33317 3.40141 5.43853 3.14706 5.62606 2.95952C5.8136 2.77198 6.06795 2.66663 6.33317 2.66663C6.59839 2.66663 6.85274 2.77198 7.04028 2.95952C7.22781 3.14706 7.33317 3.40141 7.33317 3.66663ZM7.33317 3.66663H12.3332C13.2638 3.66663 13.7292 3.66663 14.1065 3.78129C14.5263 3.90842 14.9082 4.13713 15.2185 4.44716C15.5287 4.75718 15.7577 5.13895 15.8852 5.55863C15.9998 5.93729 15.9998 6.40263 15.9998 7.33329M24.6665 28.3333C24.6665 28.0681 24.7719 27.8137 24.9594 27.6262C25.1469 27.4386 25.4013 27.3333 25.6665 27.3333C25.9317 27.3333 26.1861 27.4386 26.3736 27.6262C26.5611 27.8137 26.6665 28.0681 26.6665 28.3333C26.6665 28.5985 26.5611 28.8529 26.3736 29.0404C26.1861 29.2279 25.9317 29.3333 25.6665 29.3333C25.4013 29.3333 25.1469 29.2279 24.9594 29.0404C24.7719 28.8529 24.6665 28.5985 24.6665 28.3333ZM24.6665 28.3333H19.6665C18.7358 28.3333 18.2705 28.3333 17.8932 28.2186C17.4734 28.0915 17.0915 27.8628 16.7812 27.5528C16.4709 27.2427 16.2419 26.861 16.1145 26.4413C15.9998 26.0626 15.9998 25.5973 15.9998 24.6666" stroke="url(#paint0_linear_6012_26552)" stroke-width="1.5" stroke-linecap="round" stroke-linejoin="round"/>
<path d="M7.39844 15.9346C7.39844 11.8493 7.39844 9.80661 8.66777 8.53728C9.9371 7.26794 11.9798 7.26794 16.0651 7.26794C20.1504 7.26794 22.1931 7.26794 23.4624 8.53728C24.7318 9.80661 24.7318 11.8493 24.7318 15.9346C24.7318 20.0199 24.7318 22.0626 23.4624 23.3319C22.1931 24.6013 20.1504 24.6013 16.0651 24.6013C11.9798 24.6013 9.9371 24.6013 8.66777 23.3319C7.39844 22.0626 7.39844 20.0199 7.39844 15.9346Z" stroke="url(#paint1_linear_6012_26552)" stroke-width="1.5" stroke-linecap="round" stroke-linejoin="round"/>
<path d="M16.665 19.3333L14.7184 13.3053C14.6508 13.1151 14.5251 12.951 14.359 12.8363C14.1929 12.7216 13.9948 12.6623 13.793 12.6666C13.5915 12.6625 13.3937 12.7221 13.2279 12.8367C13.062 12.9513 12.9365 13.1153 12.869 13.3053L10.9224 19.3333M19.9984 12.6666V19.3333M11.6384 17.3333H15.9477" stroke="url(#paint2_linear_6012_26552)" stroke-width="1.5" stroke-linecap="round" stroke-linejoin="round"/>
<defs>
<linearGradient id="paint0_linear_6012_26552" x1="2.6665" y1="16" x2="29.3332" y2="16" gradientUnits="userSpaceOnUse">
<stop offset="0.268512" stop-color="#6E45E2"/>
<stop offset="1" stop-color="#3477DB"/>
</linearGradient>
<linearGradient id="paint1_linear_6012_26552" x1="7.39844" y1="15.9346" x2="24.7318" y2="15.9346" gradientUnits="userSpaceOnUse">
<stop offset="0.268512" stop-color="#6E45E2"/>
<stop offset="1" stop-color="#3477DB"/>
</linearGradient>
<linearGradient id="paint2_linear_6012_26552" x1="10.9224" y1="15.9998" x2="19.9984" y2="15.9998" gradientUnits="userSpaceOnUse">
<stop offset="0.268512" stop-color="#6E45E2"/>
<stop offset="1" stop-color="#3477DB"/>
</linearGradient>
</defs>
</svg>
