<svg width="32" height="32" viewBox="0 0 32 32" fill="none" xmlns="http://www.w3.org/2000/svg">
<path d="M26.2842 10.8374L25.9562 11.592C25.9049 11.7149 25.8184 11.8199 25.7076 11.8937C25.5968 11.9676 25.4666 12.007 25.3335 12.007C25.2003 12.007 25.0702 11.9676 24.9594 11.8937C24.8486 11.8199 24.7621 11.7149 24.7108 11.592L24.3828 10.8374C23.8061 9.50231 22.75 8.43191 21.4228 7.83735L20.4108 7.38535C20.2881 7.32887 20.184 7.23838 20.1111 7.12459C20.0382 7.0108 19.9995 6.87849 19.9995 6.74335C19.9995 6.60821 20.0382 6.4759 20.1111 6.36211C20.184 6.24832 20.2881 6.15783 20.4108 6.10135L21.3668 5.67602C22.7274 5.06452 23.8016 3.95453 24.3682 2.57468L24.7055 1.76002C24.755 1.63382 24.8415 1.52548 24.9535 1.44912C25.0655 1.37275 25.1979 1.33191 25.3335 1.33191C25.4691 1.33191 25.6015 1.37275 25.7135 1.44912C25.8255 1.52548 25.912 1.63382 25.9615 1.76002L26.2988 2.57335C26.8648 3.95345 27.9385 5.06393 29.2988 5.67602L30.2562 6.10268C30.3786 6.15932 30.4822 6.24981 30.5548 6.36345C30.6275 6.47709 30.6661 6.60915 30.6661 6.74402C30.6661 6.87889 30.6275 7.01094 30.5548 7.12459C30.4822 7.23823 30.3786 7.32871 30.2562 7.38535L29.2428 7.83602C27.9159 8.43117 26.8603 9.50205 26.2842 10.8374ZM20.0002 28.7174L12.0002 10.0507L8.88016 17.3334H1.3335V14.6667H7.12016L12.0002 3.28135L20.0002 21.948L23.1202 14.6667H30.6668V17.3334H24.8802L20.0002 28.7174Z" fill="url(#paint0_linear_6012_26565)"/>
<defs>
<linearGradient id="paint0_linear_6012_26565" x1="1.3335" y1="15.0246" x2="30.6668" y2="15.0246" gradientUnits="userSpaceOnUse">
<stop offset="0.268512" stop-color="#6E45E2"/>
<stop offset="1" stop-color="#3477DB"/>
</linearGradient>
</defs>
</svg>
