<svg width="24" height="24" viewBox="0 0 24 24" fill="none" xmlns="http://www.w3.org/2000/svg">
<g clip-path="url(#clip0_6012_26575)">
<path fill-rule="evenodd" clip-rule="evenodd" d="M1.56313 20.9123C1.93856 21.2877 2.39352 21.4754 2.92802 21.4754H9.97316C9.90157 21.2853 9.84311 21.0949 9.79777 20.904C9.75244 20.7123 9.71545 20.5051 9.68682 20.2824H2.92682C2.74309 20.2832 2.57487 20.2068 2.42215 20.0533C2.26944 19.8998 2.19308 19.7316 2.19308 19.5486V19.0893V11.1028V11.0133V4.31418C2.19307 4.31228 2.19307 4.31037 2.19308 4.30848C2.19387 4.12617 2.27022 3.95945 2.42215 3.80831C2.57566 3.6556 2.74428 3.57924 2.92802 3.57924H18.1613C18.3458 3.57845 18.5144 3.6548 18.6671 3.80831C18.8198 3.96182 18.8962 4.13044 18.8962 4.31418V11.1028C19.0998 11.1473 19.2971 11.1919 19.488 11.2364C19.6797 11.2818 19.8801 11.3406 20.0893 11.413V4.31418C20.0893 3.77968 19.9016 3.32472 19.5261 2.94929C19.1499 2.57387 18.6954 2.38616 18.1625 2.38616H12.555C12.6791 1.77689 12.5411 1.22688 12.141 0.736131C11.7409 0.245377 11.2088 0 10.5446 0C9.89561 0 9.37145 0.245377 8.97216 0.736131C8.57208 1.22688 8.42653 1.77689 8.53549 2.38616H2.92802C2.39352 2.38616 1.93856 2.57387 1.56313 2.94929C1.18771 3.32551 1 3.78008 1 4.31298V19.5486C1 20.0823 1.18771 20.5369 1.56313 20.9123ZM9.90038 17.0253H5.17578V15.831H10.318L10.0793 16.4323C10.0038 16.6232 9.94412 16.8208 9.90038 17.0253ZM13.0262 12.5273H5.17578V11.3343H15.4088V11.3772C14.973 11.4862 14.5649 11.6365 14.1847 11.8282C13.8045 12.0191 13.4184 12.2521 13.0262 12.5273ZM15.9135 8.02943H5.17578V6.83635H15.9135V8.02943ZM11.1865 2.66176C11.0171 2.83038 10.8031 2.91469 10.5446 2.91469C10.2877 2.91867 10.0742 2.83317 9.90396 2.66057C9.73375 2.48797 9.64904 2.27401 9.64983 2.01869C9.65063 1.76337 9.73534 1.54981 9.90396 1.37801C10.0726 1.2062 10.2861 1.1215 10.5446 1.12388C10.8031 1.12627 11.0167 1.21137 11.1853 1.3792C11.3539 1.54703 11.4387 1.76059 11.4395 2.01988C11.4402 2.27918 11.3559 2.49314 11.1865 2.66176ZM16.7151 23.9076C17.031 23.9692 17.3604 24 17.7031 24C19.0314 24 20.1593 23.5367 21.0867 22.6101C22.0125 21.6834 22.4754 20.556 22.4754 19.2277C22.477 17.897 22.0141 16.7691 21.0867 15.8441C20.3604 15.1197 19.5111 14.6787 18.539 14.5211L18.2524 16.3H20.4679C20.5634 16.2999 20.6572 16.3264 20.7394 16.3768C20.8216 16.4272 20.8891 16.4996 20.9349 16.5863C20.9807 16.673 21.0031 16.7709 20.9997 16.8697C20.9962 16.9684 20.9672 17.0644 20.9155 17.1476L16.7151 23.9076ZM16.6577 23.896V19.6H14.5314C14.4542 19.6 14.3779 19.5825 14.3079 19.5489C14.2378 19.5153 14.1757 19.4663 14.1258 19.4053C14.0759 19.3443 14.0395 19.2728 14.019 19.1958C13.9985 19.1188 13.9945 19.038 14.0073 18.9592L14.543 15.6342C14.4677 15.7013 14.3936 15.7713 14.3207 15.8441C13.3941 16.7707 12.9308 17.8986 12.9308 19.2277C12.9308 20.5568 13.3941 21.6842 14.3207 22.6101C14.9933 23.2832 15.7723 23.7119 16.6577 23.896Z" fill="white"/>
<path d="M9.97316 21.4754V21.5252H10.0451L10.0198 21.4579L9.97316 21.4754ZM9.79777 20.904L9.74931 20.9154L9.74932 20.9155L9.79777 20.904ZM9.68682 20.2824L9.73622 20.276L9.73063 20.2326H9.68682V20.2824ZM2.92682 20.2824L2.92682 20.2326L2.92661 20.2326L2.92682 20.2824ZM2.42215 20.0533L2.38684 20.0884L2.38684 20.0884L2.42215 20.0533ZM2.19308 4.31418L2.24289 4.31418L2.24288 4.31396L2.19308 4.31418ZM2.19308 4.30848L2.24288 4.30869L2.24288 4.30869L2.19308 4.30848ZM2.42215 3.80831L2.38703 3.773L2.38703 3.773L2.42215 3.80831ZM18.1613 3.57924V3.62905L18.1615 3.62904L18.1613 3.57924ZM18.8962 11.1028H18.8464V11.1429L18.8856 11.1515L18.8962 11.1028ZM19.488 11.2364L19.4994 11.188L19.4993 11.1879L19.488 11.2364ZM20.0893 11.413L20.073 11.4601L20.1391 11.4829V11.413H20.0893ZM19.5261 2.94929L19.5614 2.91408L19.5613 2.91404L19.5261 2.94929ZM12.555 2.38616L12.5062 2.37622L12.494 2.43597H12.555V2.38616ZM12.141 0.736131L12.1024 0.767601L12.1024 0.767601L12.141 0.736131ZM8.97216 0.736131L9.01076 0.767601L9.0108 0.767563L8.97216 0.736131ZM8.53549 2.38616V2.43597H8.595L8.58452 2.37739L8.53549 2.38616ZM1.56313 2.94929L1.52792 2.91408L1.52788 2.91411L1.56313 2.94929ZM5.17578 17.0253H5.12598V17.0751H5.17578V17.0253ZM9.90038 17.0253V17.0751H9.94065L9.94908 17.0357L9.90038 17.0253ZM5.17578 15.831V15.7812H5.12598V15.831H5.17578ZM10.318 15.831L10.3642 15.8494L10.3913 15.7812H10.318V15.831ZM10.0793 16.4323L10.033 16.4139L10.033 16.414L10.0793 16.4323ZM5.17578 12.5273H5.12598V12.5771H5.17578V12.5273ZM13.0262 12.5273V12.5771H13.042L13.0549 12.5681L13.0262 12.5273ZM5.17578 11.3343V11.2845H5.12598V11.3343H5.17578ZM15.4088 11.3343H15.4586V11.2845H15.4088V11.3343ZM15.4088 11.3772L15.4209 11.4255L15.4586 11.4161V11.3772H15.4088ZM14.1847 11.8282L14.2071 11.8727L14.2072 11.8727L14.1847 11.8282ZM5.17578 8.02943H5.12598V8.07923H5.17578V8.02943ZM15.9135 8.02943V8.07923H15.9633V8.02943H15.9135ZM5.17578 6.83635V6.78654H5.12598V6.83635H5.17578ZM15.9135 6.83635H15.9633V6.78654H15.9135V6.83635ZM10.5446 2.91469V2.86488L10.5439 2.8649L10.5446 2.91469ZM10.5446 1.12388L10.5442 1.17368L10.5442 1.17368L10.5446 1.12388ZM11.4395 2.01988L11.4893 2.01973L11.4893 2.01973L11.4395 2.01988ZM16.7151 23.9076L16.6728 23.8813L16.6347 23.9426L16.7056 23.9564L16.7151 23.9076ZM21.0867 22.6101L21.1219 22.6453L21.1219 22.6453L21.0867 22.6101ZM22.4754 19.2277L22.4256 19.2276V19.2277H22.4754ZM21.0867 15.8441L21.0515 15.8794L21.0515 15.8794L21.0867 15.8441ZM18.539 14.5211L18.5469 14.4719L18.4977 14.4639L18.4898 14.5131L18.539 14.5211ZM18.2524 16.3L18.2032 16.2921L18.1939 16.3498H18.2524V16.3ZM20.4679 16.3V16.3498L20.468 16.3498L20.4679 16.3ZM20.7394 16.3768L20.7654 16.3344L20.7654 16.3344L20.7394 16.3768ZM20.9349 16.5863L20.8909 16.6095L20.8909 16.6095L20.9349 16.5863ZM20.9997 16.8697L21.0494 16.8714L21.0494 16.8714L20.9997 16.8697ZM20.9155 17.1476L20.8732 17.1213L20.8732 17.1213L20.9155 17.1476ZM16.6577 19.6H16.7075V19.5502H16.6577V19.6ZM16.6577 23.896L16.6475 23.9448L16.7075 23.9572V23.896H16.6577ZM14.5314 19.6L14.5314 19.6498H14.5314V19.6ZM14.1258 19.4053L14.0873 19.4369L14.0873 19.4369L14.1258 19.4053ZM14.0073 18.9592L14.0565 18.9672L14.0565 18.9672L14.0073 18.9592ZM14.543 15.6342L14.5922 15.6421L14.6144 15.5038L14.5099 15.597L14.543 15.6342ZM14.3207 22.6101L14.356 22.5749L14.3559 22.5748L14.3207 22.6101ZM18.1625 22.6685V22.7183H18.2123V22.6685H18.1625ZM21.1452 19.6858V19.7356H21.195V19.6858H21.1452ZM21.1452 18.7672H21.195V18.7173H21.1452V18.7672ZM14.2611 19.6858H14.2113V19.7356H14.2611V19.6858ZM2.92802 21.4256C2.40663 21.4256 1.96436 21.2431 1.59835 20.8771L1.52792 20.9475C1.91275 21.3324 2.38041 21.5252 2.92802 21.5252V21.4256ZM9.97316 21.4256H2.92802V21.5252H9.97316V21.4256ZM9.74932 20.9155C9.79516 21.1085 9.85424 21.301 9.92655 21.493L10.0198 21.4579C9.9489 21.2697 9.89106 21.0812 9.84623 20.8924L9.74932 20.9155ZM9.63742 20.2887C9.66624 20.5129 9.70352 20.7218 9.74931 20.9154L9.84624 20.8925C9.80135 20.7027 9.76466 20.4972 9.73622 20.276L9.63742 20.2887ZM2.92682 20.3322H9.68682V20.2326H2.92682V20.3322ZM2.38684 20.0884C2.54715 20.2496 2.72761 20.333 2.92704 20.3322L2.92661 20.2326C2.75857 20.2333 2.60258 20.164 2.45746 20.0182L2.38684 20.0884ZM2.14328 19.5486C2.14328 19.7471 2.22668 19.9274 2.38684 20.0884L2.45746 20.0182C2.3122 19.8722 2.24288 19.716 2.24288 19.5486H2.14328ZM2.14328 19.0893V19.5486H2.24288V19.0893H2.14328ZM2.14328 11.1028V19.0893H2.24288V11.1028H2.14328ZM2.14328 11.0133V11.1028H2.24288V11.0133H2.14328ZM2.14328 4.31418V11.0133H2.24288V4.31418H2.14328ZM2.14328 4.30826C2.14327 4.3103 2.14327 4.31235 2.14328 4.31439L2.24288 4.31396C2.24288 4.3122 2.24288 4.31045 2.24288 4.30869L2.14328 4.30826ZM2.38703 3.773C2.22752 3.93168 2.14413 4.11048 2.14328 4.30826L2.24288 4.30869C2.2436 4.14186 2.31293 3.98722 2.45728 3.84362L2.38703 3.773ZM2.92802 3.52944C2.72879 3.52944 2.54808 3.61279 2.38703 3.773L2.45728 3.84362C2.60325 3.69841 2.75978 3.62905 2.92802 3.62905V3.52944ZM18.1613 3.52944H2.92802V3.62905H18.1613V3.52944ZM18.7024 3.77319C18.5421 3.612 18.3612 3.52857 18.1611 3.52944L18.1615 3.62904C18.3304 3.62832 18.4867 3.69761 18.6318 3.84344L18.7024 3.77319ZM18.946 4.31418C18.946 4.11495 18.8627 3.93424 18.7024 3.77319L18.6318 3.84344C18.777 3.98941 18.8464 4.14594 18.8464 4.31418H18.946ZM18.946 11.1028V4.31418H18.8464V11.1028H18.946ZM19.4993 11.1879C19.3082 11.1433 19.1107 11.0987 18.9068 11.0541L18.8856 11.1515C19.089 11.196 19.286 11.2404 19.4767 11.2849L19.4993 11.1879ZM20.1056 11.3659C19.895 11.2931 19.6929 11.2337 19.4994 11.188L19.4765 11.2849C19.6664 11.3298 19.8652 11.3882 20.073 11.4601L20.1056 11.3659ZM20.0395 4.31418V11.413H20.1391V4.31418H20.0395ZM19.4909 2.98451C19.8569 3.35052 20.0395 3.79279 20.0395 4.31418H20.1391C20.1391 3.76657 19.9462 3.29891 19.5614 2.91408L19.4909 2.98451ZM18.1625 2.43597C18.6822 2.43597 19.1241 2.61847 19.491 2.98455L19.5613 2.91404C19.1757 2.52927 18.7085 2.33636 18.1625 2.33636V2.43597ZM12.555 2.43597H18.1625V2.33636H12.555V2.43597ZM12.1024 0.767601C12.4932 1.24702 12.6272 1.7819 12.5062 2.37622L12.6038 2.3961C12.7309 1.77189 12.5889 1.20674 12.1796 0.704661L12.1024 0.767601ZM10.5446 0.0498047C11.1947 0.0498047 11.7123 0.289088 12.1024 0.767601L12.1796 0.704661C11.7695 0.201666 11.2229 -0.0498047 10.5446 -0.0498047V0.0498047ZM9.0108 0.767563C9.40034 0.288778 9.91014 0.0498047 10.5446 0.0498047V-0.0498047C9.88107 -0.0498047 9.34255 0.201976 8.93353 0.704698L9.0108 0.767563ZM8.58452 2.37739C8.47818 1.78279 8.61962 1.2474 9.01076 0.767601L8.93356 0.704661C8.52455 1.20637 8.37488 1.771 8.48647 2.39493L8.58452 2.37739ZM2.92802 2.43597H8.53549V2.33636H2.92802V2.43597ZM1.59835 2.98451C1.96436 2.6185 2.40663 2.43597 2.92802 2.43597V2.33636C2.38041 2.33636 1.91275 2.52924 1.52792 2.91408L1.59835 2.98451ZM1.0498 4.31298C1.0498 3.79323 1.23231 3.35133 1.59839 2.98447L1.52788 2.91411C1.14311 3.2997 0.950195 3.76692 0.950195 4.31298H1.0498ZM1.0498 19.5486V4.31298H0.950195V19.5486H1.0498ZM1.59835 20.8771C1.23232 20.5111 1.0498 20.0692 1.0498 19.5486H0.950195C0.950195 20.0955 1.1431 20.5627 1.52792 20.9475L1.59835 20.8771ZM5.17578 17.0751H9.90038V16.9755H5.17578V17.0751ZM5.12598 15.831V17.0253H5.22559V15.831H5.12598ZM10.318 15.7812H5.17578V15.8808H10.318V15.7812ZM10.1256 16.4507L10.3642 15.8494L10.2717 15.8126L10.033 16.4139L10.1256 16.4507ZM9.94908 17.0357C9.99226 16.8339 10.0511 16.6389 10.1256 16.4506L10.033 16.414C9.95644 16.6075 9.89599 16.8078 9.85168 17.0148L9.94908 17.0357ZM5.17578 12.5771H13.0262V12.4775H5.17578V12.5771ZM5.12598 11.3343V12.5273H5.22559V11.3343H5.12598ZM15.4088 11.2845H5.17578V11.3841H15.4088V11.2845ZM15.4586 11.3772V11.3343H15.359V11.3772H15.4586ZM14.2072 11.8727C14.5839 11.6827 14.9884 11.5337 15.4209 11.4255L15.3968 11.3289C14.9575 11.4387 14.546 11.5903 14.1623 11.7837L14.2072 11.8727ZM13.0549 12.5681C13.4452 12.2941 13.8293 12.0624 14.2071 11.8727L14.1624 11.7837C13.7798 11.9758 13.3915 12.2101 12.9976 12.4866L13.0549 12.5681ZM5.17578 8.07923H15.9135V7.97962H5.17578V8.07923ZM5.12598 6.83635V8.02943H5.22559V6.83635H5.12598ZM15.9135 6.78654H5.17578V6.88615H15.9135V6.78654ZM15.9633 8.02943V6.83635H15.8637V8.02943H15.9633ZM10.5446 2.9645C10.8151 2.9645 11.0421 2.87578 11.2217 2.69706L11.1514 2.62646C10.9921 2.78499 10.7912 2.86489 10.5446 2.86489V2.9645ZM9.8685 2.69554C10.0488 2.87833 10.2756 2.96867 10.5454 2.96449L10.5439 2.8649C10.2998 2.86867 10.0996 2.78801 9.93942 2.6256L9.8685 2.69554ZM9.60003 2.01854C9.59919 2.28622 9.68852 2.51304 9.8685 2.69554L9.93942 2.6256C9.77897 2.4629 9.69888 2.2618 9.69964 2.01885L9.60003 2.01854ZM9.86841 1.34312C9.6901 1.5248 9.60086 1.75109 9.60003 2.01854L9.69964 2.01885C9.70039 1.77565 9.78058 1.57482 9.9395 1.41289L9.86841 1.34312ZM10.5451 1.07408C10.2742 1.07158 10.0473 1.1609 9.86841 1.34312L9.9395 1.41289C10.0979 1.25151 10.2981 1.17141 10.5442 1.17368L10.5451 1.07408ZM11.2205 1.3439C11.0418 1.16606 10.8154 1.07657 10.5451 1.07408L10.5442 1.17368C10.7909 1.17596 10.9916 1.25669 11.1502 1.4145L11.2205 1.3439ZM11.4893 2.01973C11.4884 1.74855 11.3993 1.52192 11.2205 1.3439L11.1502 1.4145C11.3086 1.57214 11.3889 1.77263 11.3896 2.02004L11.4893 2.01973ZM11.2217 2.69706C11.4013 2.51821 11.4901 2.29108 11.4893 2.01973L11.3896 2.02004C11.3904 2.26728 11.3105 2.46807 11.1514 2.62646L11.2217 2.69706ZM17.7031 23.9502C17.3634 23.9502 17.0372 23.9197 16.7246 23.8587L16.7056 23.9564C17.0248 24.0187 17.3574 24.0498 17.7031 24.0498V23.9502ZM21.0515 22.5748C20.1336 23.492 19.0184 23.9502 17.7031 23.9502V24.0498C19.0444 24.0498 20.185 23.5814 21.1219 22.6453L21.0515 22.5748ZM22.4256 19.2277C22.4256 20.543 21.9678 21.6577 21.0515 22.5749L21.1219 22.6453C22.0572 21.7092 22.5252 20.569 22.5252 19.2277H22.4256ZM21.0515 15.8794C21.9694 16.7949 22.4272 17.91 22.4256 19.2276L22.5252 19.2277C22.5269 17.884 22.0588 16.7434 21.1219 15.8088L21.0515 15.8794ZM18.531 14.5702C19.4924 14.7261 20.3323 15.162 21.0515 15.8794L21.1219 15.8088C20.3885 15.0774 19.5299 14.6312 18.5469 14.4719L18.531 14.5702ZM18.3015 16.3079L18.5881 14.529L18.4898 14.5131L18.2032 16.2921L18.3015 16.3079ZM20.4679 16.2502H18.2524V16.3498H20.4679V16.2502ZM20.7654 16.3344C20.6755 16.2792 20.5727 16.2501 20.4679 16.2502L20.468 16.3498C20.5542 16.3497 20.639 16.3737 20.7134 16.4193L20.7654 16.3344ZM20.9789 16.563C20.9291 16.4685 20.8554 16.3895 20.7654 16.3344L20.7134 16.4193C20.7878 16.4649 20.8492 16.5306 20.8909 16.6095L20.9789 16.563ZM21.0494 16.8714C21.0531 16.764 21.0288 16.6575 20.9789 16.563L20.8909 16.6095C20.9326 16.6885 20.953 16.7778 20.9499 16.868L21.0494 16.8714ZM20.9578 17.1738C21.0141 17.0833 21.0457 16.9788 21.0494 16.8714L20.9499 16.868C20.9468 16.9581 20.9202 17.0456 20.8732 17.1213L20.9578 17.1738ZM16.7574 23.9338L20.9578 17.1738L20.8732 17.1213L16.6728 23.8813L16.7574 23.9338ZM16.6079 19.6V23.896H16.7075V19.6H16.6079ZM14.5314 19.6498H16.6577V19.5502H14.5314V19.6498ZM14.2863 19.5938C14.363 19.6307 14.4467 19.6498 14.5314 19.6498L14.5314 19.5502C14.4617 19.5502 14.3928 19.5344 14.3294 19.504L14.2863 19.5938ZM14.0873 19.4369C14.1417 19.5034 14.2096 19.557 14.2863 19.5938L14.3294 19.504C14.266 19.4736 14.2097 19.4292 14.1644 19.3738L14.0873 19.4369ZM13.9709 19.2086C13.9932 19.2924 14.0328 19.3703 14.0873 19.4369L14.1644 19.3738C14.119 19.3184 14.0858 19.2533 14.0672 19.183L13.9709 19.2086ZM13.9581 18.9513C13.9443 19.037 13.9486 19.1248 13.9709 19.2086L14.0672 19.183C14.0485 19.1128 14.0448 19.0391 14.0565 18.9672L13.9581 18.9513ZM14.4938 15.6262L13.9581 18.9513L14.0565 18.9672L14.5922 15.6421L14.4938 15.6262ZM14.356 15.8793C14.4281 15.8071 14.5015 15.7378 14.5761 15.6714L14.5099 15.597C14.4338 15.6647 14.359 15.7354 14.2855 15.8089L14.356 15.8793ZM12.9806 19.2277C12.9806 17.9116 13.4388 16.7965 14.356 15.8793L14.2855 15.8089C13.3494 16.745 12.881 17.8856 12.881 19.2277H12.9806ZM14.3559 22.5748C13.4388 21.6585 12.9806 20.5438 12.9806 19.2277H12.881C12.881 20.5698 13.3494 21.71 14.2855 22.6453L14.3559 22.5748ZM16.6678 23.8472C15.7924 23.6652 15.0221 23.2415 14.356 22.5749L14.2855 22.6453C14.9646 23.3249 15.7521 23.7585 16.6475 23.9448L16.6678 23.8472ZM17.485 22.7183H18.1625V22.6187H17.485V22.7183ZM18.2123 22.6685V21.5782H18.1127V22.6685H18.2123ZM19.3383 19.7356H21.1452V19.636H19.3383V19.7356ZM21.195 19.6858V18.7672H21.0954V19.6858H21.195ZM21.1452 18.7173H19.9091V18.817H21.1452V18.7173ZM14.2113 19.5235V19.6858H14.3109V19.5235H14.2113ZM14.2611 19.7356H16.6577V19.636H14.2611V19.7356Z" fill="white"/>
</g>
<defs>
<clipPath id="clip0_6012_26575">
<rect width="24" height="24" fill="white"/>
</clipPath>
</defs>
</svg>
