<svg width="24" height="24" viewBox="0 0 24 24" fill="none" xmlns="http://www.w3.org/2000/svg">
<path d="M7.39978 17.25C6.69978 17.8333 5.97078 18.1 5.21278 18.05C4.45478 18 3.79211 17.7417 3.22478 17.275C2.65745 16.8083 2.27011 16.196 2.06278 15.438C1.85545 14.68 1.99278 13.9007 2.47478 13.1L4.34978 10C3.93311 9.63333 3.60411 9.19167 3.36278 8.675C3.12145 8.15833 3.00045 7.6 2.99978 7C2.99978 5.9 3.39145 4.95833 4.17478 4.175C4.95811 3.39167 5.89978 3 6.99978 3C8.09978 3 9.04145 3.39167 9.82478 4.175C10.6081 4.95833 10.9998 5.9 10.9998 7C10.9998 8.1 10.6081 9.04167 9.82478 9.825C9.04145 10.6083 8.09978 11 6.99978 11C6.84978 11 6.69978 10.9917 6.54978 10.975C6.39978 10.9583 6.25811 10.9333 6.12478 10.9L4.19978 14.15C4.01645 14.45 3.95811 14.746 4.02478 15.038C4.09145 15.33 4.23311 15.5673 4.44978 15.75C4.66645 15.9327 4.92478 16.037 5.22478 16.063C5.52478 16.089 5.81645 15.9847 6.09978 15.75L16.5998 6.725C17.2998 6.14167 18.0331 5.879 18.7998 5.937C19.5664 5.995 20.2331 6.25767 20.7998 6.725C21.3664 7.19233 21.7498 7.805 21.9498 8.563C22.1498 9.321 22.0081 10.1 21.5248 10.9L19.6498 14C20.0664 14.3667 20.3958 14.8083 20.6378 15.325C20.8798 15.8417 21.0004 16.4 20.9998 17C20.9998 18.1 20.6081 19.0417 19.8248 19.825C19.0414 20.6083 18.0998 21 16.9998 21C15.8998 21 14.9581 20.6083 14.1748 19.825C13.3914 19.0417 12.9998 18.1 12.9998 17C12.9998 15.9 13.3914 14.9583 14.1748 14.175C14.9581 13.3917 15.8998 13 16.9998 13C17.1498 13 17.2958 13.0083 17.4378 13.025C17.5798 13.0417 17.7171 13.0667 17.8498 13.1L19.7998 9.85C19.9831 9.55 20.0414 9.254 19.9748 8.962C19.9081 8.67 19.7664 8.43267 19.5498 8.25C19.3331 8.06733 19.0748 7.96333 18.7748 7.938C18.4748 7.91267 18.1831 8.01667 17.8998 8.25L7.39978 17.25ZM16.9998 19C17.5498 19 18.0208 18.8043 18.4128 18.413C18.8048 18.0217 19.0004 17.5507 18.9998 17C18.9991 16.4493 18.8034 15.9787 18.4128 15.588C18.0221 15.1973 17.5511 15.0013 16.9998 15C16.4484 14.9987 15.9778 15.1947 15.5878 15.588C15.1978 15.9813 15.0018 16.452 14.9998 17C14.9978 17.548 15.1938 18.019 15.5878 18.413C15.9818 18.807 16.4524 19.0027 16.9998 19ZM6.99978 9C7.54978 9 8.02078 8.80433 8.41278 8.413C8.80478 8.02167 9.00045 7.55067 8.99978 7C8.99911 6.44933 8.80345 5.97867 8.41278 5.588C8.02211 5.19733 7.55111 5.00133 6.99978 5C6.44845 4.99867 5.97778 5.19467 5.58778 5.588C5.19778 5.98133 5.00178 6.452 4.99978 7C4.99778 7.548 5.19378 8.019 5.58778 8.413C5.98178 8.807 6.45245 9.00267 6.99978 9Z" fill="white"/>
</svg>
