<svg width="24" height="24" viewBox="0 0 24 24" fill="none" xmlns="http://www.w3.org/2000/svg">
<g clip-path="url(#clip0_6012_26586)">
<path d="M0.8 5.6V4.8C0.587827 4.8 0.384344 4.88429 0.234315 5.03431C0.0842855 5.18434 0 5.38783 0 5.6H0.8ZM10.4 5.6H11.2C11.2 5.38783 11.1157 5.18434 10.9657 5.03431C10.8157 4.88429 10.6122 4.8 10.4 4.8V5.6ZM10.4 23.2V24C10.6122 24 10.8157 23.9157 10.9657 23.7657C11.1157 23.6157 11.2 23.4122 11.2 23.2H10.4ZM0.8 23.2H0C0 23.4122 0.0842855 23.6157 0.234315 23.7657C0.384344 23.9157 0.587827 24 0.8 24V23.2ZM13.6 5.6V4.8C13.3878 4.8 13.1843 4.88429 13.0343 5.03431C12.8843 5.18434 12.8 5.38783 12.8 5.6H13.6ZM23.2 5.6H24C24 5.38783 23.9157 5.18434 23.7657 5.03431C23.6157 4.88429 23.4122 4.8 23.2 4.8V5.6ZM23.2 15.2V16C23.4122 16 23.6157 15.9157 23.7657 15.7657C23.9157 15.6157 24 15.4122 24 15.2H23.2ZM13.6 15.2H12.8C12.8 15.4122 12.8843 15.6157 13.0343 15.7657C13.1843 15.9157 13.3878 16 13.6 16V15.2ZM0 1.6H11.2V0H0V1.6ZM12.8 1.6H24V0H12.8V1.6ZM0.8 6.4H10.4V4.8H0.8V6.4ZM9.6 5.6V23.2H11.2V5.6H9.6ZM10.4 22.4H0.8V24H10.4V22.4ZM1.6 23.2V5.6H0L0 23.2H1.6ZM13.6 6.4H23.2V4.8H13.6V6.4ZM22.4 5.6V15.2H24V5.6H22.4ZM23.2 14.4H13.6V16H23.2V14.4ZM14.4 15.2V5.6H12.8V15.2H14.4Z" fill="white"/>
</g>
<defs>
<clipPath id="clip0_6012_26586">
<rect width="24" height="24" fill="white"/>
</clipPath>
</defs>
</svg>
