<svg width="200" height="200" viewBox="0 0 200 200" fill="none" xmlns="http://www.w3.org/2000/svg">
<g opacity="0.2">
<path fill-rule="evenodd" clip-rule="evenodd" d="M122.157 107.838C134.662 95.3339 154.936 95.3339 167.44 107.838C179.945 120.343 179.945 140.617 167.44 153.121C155.7 164.862 137.111 165.579 124.533 155.274L154.402 125.404L154.405 140.086H160.809V114.47H135.193V120.874L149.877 120.874L120.005 150.745C109.699 138.168 110.417 119.579 122.157 107.838Z" fill="#155DEC"/>
<path fill-rule="evenodd" clip-rule="evenodd" d="M118.17 94.8051C118.17 88.4786 113.036 83.3441 106.709 83.3441H70.6756C64.3426 83.3441 59.2146 88.4786 59.2146 94.8051V125.907C59.2146 133.725 62.3203 141.223 67.8485 146.751C73.3766 152.279 80.8744 155.385 88.6924 155.385C96.3051 155.385 103.614 152.44 109.097 147.181C106.832 142.218 105.57 136.7 105.57 130.888C105.57 119.493 110.421 109.231 118.17 102.053V94.8051ZM153.962 92.6517C151.042 91.9597 147.997 91.5934 144.865 91.5934C137.501 91.5934 130.61 93.6192 124.719 97.1438V94.8051C124.719 90.4499 123.18 86.4549 120.6 83.3441H142.703C148.294 83.3441 152.953 87.3534 153.962 92.6517ZM52.7244 93.3643C52.9986 89.6822 54.4184 86.1783 56.7849 83.3441H34.6422L33.6991 83.3834C30.8325 83.6201 28.1597 84.926 26.2113 87.0418C24.2629 89.1577 23.1813 91.9288 23.1812 94.8051V116.083C23.1803 119.524 23.8573 122.931 25.1734 126.11C26.4895 129.289 28.419 132.178 30.8517 134.611C33.2843 137.045 36.1725 138.975 39.3513 140.292C42.53 141.609 45.937 142.287 49.3778 142.287C51.7311 142.282 53.9906 141.985 56.1562 141.396C53.9163 136.707 52.6589 131.454 52.6589 125.907V94.8051L52.7244 93.3643ZM102.566 43.2546C98.881 39.57 93.8836 37.5 88.6727 37.5C83.4619 37.5 78.4645 39.57 74.7799 43.2546C71.0952 46.9392 69.0253 51.9366 69.0253 57.1475C69.0253 62.3583 71.0952 67.3557 74.7799 71.0403C78.4645 74.7249 83.4619 76.7949 88.6727 76.7949C93.8836 76.7949 98.881 74.7249 102.566 71.0403C106.25 67.3557 108.32 62.3583 108.32 57.1475C108.32 51.9366 106.25 46.9392 102.566 43.2546ZM142.82 48.8447C139.749 45.7742 135.585 44.0492 131.242 44.0492C126.9 44.0492 122.735 45.7742 119.665 48.8447C116.594 51.9152 114.869 56.0797 114.869 60.4221C114.869 64.7644 116.594 68.9289 119.665 71.9994C122.735 75.0699 126.9 76.7949 131.242 76.7949C135.585 76.7949 139.749 75.0699 142.82 71.9994C145.89 68.9289 147.615 64.7644 147.615 60.4221C147.615 56.0797 145.89 51.9152 142.82 48.8447ZM57.6806 48.8447C54.6101 45.7742 50.4456 44.0492 46.1032 44.0492C41.7608 44.0492 37.5963 45.7742 34.5258 48.8447C31.4553 51.9152 29.7303 56.0797 29.7303 60.4221C29.7303 64.7644 31.4553 68.9289 34.5258 71.9994C37.5963 75.0699 41.7608 76.7949 46.1032 76.7949C50.4456 76.7949 54.6101 75.0699 57.6806 71.9994C60.7511 68.9289 62.4761 64.7644 62.4761 60.4221C62.4761 56.0797 60.7511 51.9152 57.6806 48.8447Z" fill="#155DEC"/>
</g>
</svg>
