<svg width="24" height="24" viewBox="0 0 24 24" fill="none" xmlns="http://www.w3.org/2000/svg">
<path d="M16.3706 1.36618L16.821 2.7521C16.9608 3.17378 17.1973 3.5569 17.5116 3.87081C17.826 4.18471 18.2095 4.4207 18.6313 4.55988L20.0173 5.01021L20.0444 5.01797C20.1513 5.0556 20.2439 5.12548 20.3094 5.21796C20.3749 5.31044 20.4101 5.42097 20.4101 5.53429C20.4101 5.64762 20.3749 5.75814 20.3094 5.85063C20.2439 5.94311 20.1513 6.01299 20.0444 6.05062L18.6585 6.50094C18.2366 6.64013 17.8532 6.87611 17.5388 7.19001C17.2245 7.50392 16.9879 7.88704 16.8482 8.30872L16.3978 9.69335C16.3602 9.80024 16.2903 9.89282 16.1978 9.95831C16.1054 10.0238 15.9948 10.059 15.8815 10.059C15.7682 10.059 15.6576 10.0238 15.5652 9.95831C15.4727 9.89282 15.4028 9.80024 15.3652 9.69335L14.9136 8.30872C14.7749 7.8861 14.5391 7.50185 14.2251 7.18679C13.911 6.87111 13.5271 6.63355 13.1045 6.49318L11.7186 6.04285C11.6117 6.00522 11.5191 5.93535 11.4536 5.84286C11.3881 5.75038 11.3529 5.63985 11.3529 5.52653C11.3529 5.41321 11.3881 5.30268 11.4536 5.21019C11.5191 5.11771 11.6117 5.04783 11.7186 5.01021L13.1045 4.55988C13.5211 4.41693 13.8989 4.17926 14.2081 3.86558C14.5173 3.55189 14.7495 3.17073 14.8864 2.7521L15.3367 1.36747C15.3741 1.26013 15.4439 1.16708 15.5365 1.10123C15.6292 1.03538 15.74 1 15.8537 1C15.9673 1 16.0782 1.03538 16.1708 1.10123C16.2635 1.16708 16.3333 1.25884 16.3706 1.36618ZM22.7179 11.6305L21.7267 11.3096C21.4259 11.2091 21.1527 11.0399 20.9285 10.8155C20.7044 10.5912 20.5355 10.3177 20.4352 10.0169L20.1117 9.02821C20.0849 8.95177 20.0351 8.88555 19.969 8.8387C19.9029 8.79184 19.8239 8.76668 19.7429 8.76668C19.6619 8.76668 19.5829 8.79184 19.5169 8.8387C19.4508 8.88555 19.4009 8.95177 19.3741 9.02821L19.0532 10.0169C18.9548 10.3158 18.7887 10.588 18.5678 10.8122C18.3469 11.0365 18.0773 11.2067 17.7799 11.3096L16.7899 11.6305C16.7141 11.6579 16.6485 11.708 16.6022 11.774C16.5558 11.84 16.531 11.9187 16.531 11.9993C16.531 12.08 16.5558 12.1587 16.6022 12.2247C16.6485 12.2907 16.7141 12.3408 16.7899 12.3681L17.7799 12.6904C18.0815 12.791 18.3556 12.9605 18.5802 13.1856C18.8049 13.4107 18.9739 13.6851 19.0739 13.987L19.3948 14.9756C19.4216 15.0521 19.4715 15.1183 19.5376 15.1651C19.6036 15.212 19.6826 15.2372 19.7636 15.2372C19.8446 15.2372 19.9236 15.212 19.9897 15.1651C20.0558 15.1183 20.1056 15.0521 20.1324 14.9756L20.4547 13.987C20.555 13.686 20.7241 13.4124 20.9485 13.1881C21.1729 12.9637 21.4464 12.7946 21.7474 12.6942L22.7373 12.3733C22.8132 12.3459 22.8788 12.2958 22.9251 12.2298C22.9714 12.1638 22.9963 12.0852 22.9963 12.0045C22.9963 11.9239 22.9714 11.8452 22.9251 11.7792C22.8788 11.7132 22.8132 11.6631 22.7373 11.6357L22.7179 11.6305ZM4.88213 4.88339H10.1942C10.1122 5.08971 10.0663 5.30855 10.0583 5.53041C10.0609 5.75299 10.1036 5.97297 10.1838 6.17743H4.88213C4.19573 6.17743 3.53744 6.45011 3.05208 6.93547C2.56672 7.42083 2.29404 8.07912 2.29404 8.76552V19.1179C2.29404 19.8043 2.56672 20.4626 3.05208 20.9479C3.53744 21.4333 4.19573 21.706 4.88213 21.706H15.2345C15.9209 21.706 16.5792 21.4333 17.0645 20.9479C17.5499 20.4626 17.8226 19.8043 17.8226 19.1179V14.326L17.8484 14.3946L18.159 15.3781C18.2395 15.6053 18.3661 15.8135 18.5309 15.9894C18.6957 16.1653 18.8951 16.3053 19.1166 16.4004V19.1179C19.1166 20.1475 18.7076 21.1349 17.9796 21.863C17.2515 22.591 16.2641 23 15.2345 23H4.88213C3.85253 23 2.86509 22.591 2.13705 21.863C1.40901 21.1349 1 20.1475 1 19.1179V8.76552C1 7.73591 1.40901 6.74848 2.13705 6.02044C2.86509 5.2924 3.85253 4.88339 4.88213 4.88339ZM4.23511 7.47148H11.9851L12.7758 7.73028C12.9692 7.78779 13.1464 7.88971 13.2934 8.02792L13.3711 8.10556C13.516 8.24402 13.6299 8.41225 13.7075 8.59729V8.71376L13.7243 8.76552H4.23511C4.06351 8.76552 3.89894 8.69735 3.7776 8.57601C3.65626 8.45467 3.58809 8.2901 3.58809 8.1185C3.58809 7.9469 3.65626 7.78233 3.7776 7.66098C3.89894 7.53964 4.06351 7.47148 4.23511 7.47148ZM9.41128 12.6477H15.3626C15.41 12.7624 15.4709 12.8702 15.545 12.9712C15.7456 13.2571 16.0316 13.4745 16.3603 13.5923L16.4418 13.6182C16.385 13.7165 16.3034 13.7982 16.205 13.855C16.1066 13.9118 15.9951 13.9417 15.8815 13.9417H9.41128C9.23968 13.9417 9.07511 13.8735 8.95377 13.7522C8.83243 13.6308 8.76426 13.4663 8.76426 13.2947C8.76426 13.1231 8.83243 12.9585 8.95377 12.8372C9.07511 12.7158 9.23968 12.6477 9.41128 12.6477ZM5.52915 15.2357C6.04395 15.2357 6.53767 15.0312 6.90169 14.6672C7.26571 14.3032 7.47022 13.8095 7.47022 13.2947C7.47022 12.7799 7.26571 12.2862 6.90169 11.9221C6.53767 11.5581 6.04395 11.3536 5.52915 11.3536C5.01435 11.3536 4.52063 11.5581 4.15661 11.9221C3.79259 12.2862 3.58809 12.7799 3.58809 13.2947C3.58809 13.8095 3.79259 14.3032 4.15661 14.6672C4.52063 15.0312 5.01435 15.2357 5.52915 15.2357ZM5.52915 13.9417C5.35755 13.9417 5.19298 13.8735 5.07164 13.7522C4.9503 13.6308 4.88213 13.4663 4.88213 13.2947C4.88213 13.1231 4.9503 12.9585 5.07164 12.8372C5.19298 12.7158 5.35755 12.6477 5.52915 12.6477C5.70075 12.6477 5.86533 12.7158 5.98667 12.8372C6.10801 12.9585 6.17617 13.1231 6.17617 13.2947C6.17617 13.4663 6.10801 13.6308 5.98667 13.7522C5.86533 13.8735 5.70075 13.9417 5.52915 13.9417ZM7.47022 18.4708C7.47022 18.9856 7.26571 19.4794 6.90169 19.8434C6.53767 20.2074 6.04395 20.4119 5.52915 20.4119C5.01435 20.4119 4.52063 20.2074 4.15661 19.8434C3.79259 19.4794 3.58809 18.9856 3.58809 18.4708C3.58809 17.956 3.79259 17.4623 4.15661 17.0983C4.52063 16.7343 5.01435 16.5298 5.52915 16.5298C6.04395 16.5298 6.53767 16.7343 6.90169 17.0983C7.26571 17.4623 7.47022 17.956 7.47022 18.4708ZM6.17617 18.4708C6.17617 18.2992 6.10801 18.1347 5.98667 18.0133C5.86533 17.892 5.70075 17.8238 5.52915 17.8238C5.35755 17.8238 5.19298 17.892 5.07164 18.0133C4.9503 18.1347 4.88213 18.2992 4.88213 18.4708C4.88213 18.6424 4.9503 18.807 5.07164 18.9284C5.19298 19.0497 5.35755 19.1179 5.52915 19.1179C5.70075 19.1179 5.86533 19.0497 5.98667 18.9284C6.10801 18.807 6.17617 18.6424 6.17617 18.4708ZM9.41128 17.8238C9.23968 17.8238 9.07511 17.892 8.95377 18.0133C8.83243 18.1347 8.76426 18.2992 8.76426 18.4708C8.76426 18.6424 8.83243 18.807 8.95377 18.9284C9.07511 19.0497 9.23968 19.1179 9.41128 19.1179H15.8815C16.0531 19.1179 16.2177 19.0497 16.339 18.9284C16.4604 18.807 16.5285 18.6424 16.5285 18.4708C16.5285 18.2992 16.4604 18.1347 16.339 18.0133C16.2177 17.892 16.0531 17.8238 15.8815 17.8238H9.41128Z" fill="white"/>
</svg>
