<svg width="24" height="24" viewBox="0 0 24 24" fill="none" xmlns="http://www.w3.org/2000/svg">
<path d="M21.4283 2.57167H18.8559V0.857223C18.8559 0.629873 18.7656 0.411835 18.6048 0.251075C18.4441 0.0903143 18.226 0 17.9987 0C17.7713 0 17.5533 0.0903143 17.3925 0.251075C17.2318 0.411835 17.1415 0.629873 17.1415 0.857223V2.57167H6.85629V0.857223C6.85629 0.629873 6.76597 0.411835 6.60521 0.251075C6.44445 0.0903143 6.22641 0 5.99906 0C5.77171 0 5.55368 0.0903143 5.39291 0.251075C5.23215 0.411835 5.14184 0.629873 5.14184 0.857223V2.57167H2.57092C2.23318 2.57167 1.89874 2.63822 1.58673 2.76751C1.27471 2.89681 0.991227 3.08631 0.752475 3.3252C0.513723 3.5641 0.324382 3.84769 0.195269 4.15978C0.0661568 4.47187 -0.000196613 4.80634 4.37599e-07 5.14409V21.4291C4.37599e-07 22.1109 0.270864 22.7649 0.753005 23.247C1.23515 23.7291 1.88907 24 2.57092 24H21.4283C22.1102 24 22.7641 23.7291 23.2462 23.247C23.7284 22.7649 23.9993 22.1109 23.9993 21.4291V5.14409C23.9994 4.80634 23.9331 4.47187 23.804 4.15978C23.6749 3.84769 23.4855 3.5641 23.2468 3.3252C23.008 3.08631 22.7245 2.89681 22.4125 2.76751C22.1005 2.63822 21.7661 2.57167 21.4283 2.57167V2.57167ZM22.2848 21.4276C22.2848 21.6547 22.1946 21.8726 22.034 22.0332C21.8733 22.1938 21.6555 22.2841 21.4283 22.2841H2.57092C2.34377 22.2841 2.12592 22.1938 1.9653 22.0332C1.80468 21.8726 1.71445 21.6547 1.71445 21.4276V10.2859H22.2848V21.4276ZM22.2848 8.57148H1.71445V5.14409C1.71445 4.91694 1.80468 4.69909 1.9653 4.53847C2.12592 4.37785 2.34377 4.28762 2.57092 4.28762H5.14334V6.00056C5.14334 6.22771 5.23358 6.44556 5.3942 6.60618C5.55482 6.7668 5.77266 6.85704 5.99981 6.85704C6.22696 6.85704 6.44481 6.7668 6.60543 6.60618C6.76605 6.44556 6.85629 6.22771 6.85629 6.00056V4.28612H17.1415V6.00056C17.1415 6.22791 17.2318 6.44595 17.3925 6.60671C17.5533 6.76747 17.7713 6.85779 17.9987 6.85779C18.226 6.85779 18.4441 6.76747 18.6048 6.60671C18.7656 6.44595 18.8559 6.22791 18.8559 6.00056V4.28612H21.4268C21.654 4.28612 21.8718 4.37635 22.0325 4.53697C22.1931 4.69759 22.2833 4.91544 22.2833 5.14259V8.57148H22.2848Z" fill="white"/>
</svg>
