<svg width="24" height="24" viewBox="0 0 24 24" fill="none" xmlns="http://www.w3.org/2000/svg">
<path fill-rule="evenodd" clip-rule="evenodd" d="M3 3H12.2286V9.51429H3V3ZM8.15714 7.88571C8.15714 8.02969 8.09995 8.16777 7.99814 8.26957C7.89634 8.37138 7.75826 8.42857 7.61429 8.42857C7.47031 8.42857 7.33223 8.37138 7.23043 8.26957C7.12862 8.16777 7.07143 8.02969 7.07143 7.88571C7.07143 7.74174 7.12862 7.60366 7.23043 7.50186C7.33223 7.40005 7.47031 7.34286 7.61429 7.34286C7.75826 7.34286 7.89634 7.40005 7.99814 7.50186C8.09995 7.60366 8.15714 7.74174 8.15714 7.88571ZM7.61429 4.08571C7.47031 4.08571 7.33223 4.14291 7.23043 4.24471C7.12862 4.34652 7.07143 4.4846 7.07143 4.62857V6.25714C7.07143 6.40112 7.12862 6.5392 7.23043 6.641C7.33223 6.74281 7.47031 6.8 7.61429 6.8C7.75826 6.8 7.89634 6.74281 7.99814 6.641C8.09995 6.5392 8.15714 6.40112 8.15714 6.25714V4.62857C8.15714 4.4846 8.09995 4.34652 7.99814 4.24471C7.89634 4.14291 7.75826 4.08571 7.61429 4.08571ZM13.3143 3H22.5429V9.51429H13.3143V3ZM21.5695 4.74094L20.8019 3.97334L18.4714 6.30383L17.1143 4.94669L15.1019 6.95906L15.8695 7.72666L17.1143 6.48189L18.4714 7.83903L21.5695 4.74094ZM3 10.6V17.1143H9.6994C9.54117 16.6663 9.48282 16.1891 9.52845 15.7162C9.57408 15.2433 9.72258 14.7861 9.96354 14.3766C10.2045 13.9672 10.5321 13.6154 10.9234 13.3459C11.3146 13.0763 11.7601 12.8957 12.2286 12.8165V10.6H3ZM4.62857 12.2286V13.3143H5.71429V12.2286H4.62857ZM4.62857 15.4857V14.4H5.71429V15.4857H4.62857ZM6.8 12.2286V13.3143H7.88571V12.2286H6.8ZM6.8 15.4857V14.4H7.88571V15.4857H6.8ZM8.97143 12.2286V13.3143H10.0571V12.2286H8.97143ZM15.8435 17.1143C16.0017 16.6663 16.06 16.1891 16.0144 15.7162C15.9688 15.2433 15.8203 14.7861 15.5793 14.3766C15.3384 13.9672 15.0108 13.6154 14.6195 13.3459C14.2282 13.0763 13.7827 12.8957 13.3143 12.8165V10.6H22.5429V17.1143H15.8435ZM20.9143 13.3143H17.1143C16.9703 13.3143 16.8322 13.2571 16.7304 13.1553C16.6286 13.0535 16.5714 12.9154 16.5714 12.7714C16.5714 12.6275 16.6286 12.4894 16.7304 12.3876C16.8322 12.2858 16.9703 12.2286 17.1143 12.2286H20.9143C21.0583 12.2286 21.1963 12.2858 21.2981 12.3876C21.3999 12.4894 21.4571 12.6275 21.4571 12.7714C21.4571 12.9154 21.3999 13.0535 21.2981 13.1553C21.1963 13.2571 21.0583 13.3143 20.9143 13.3143ZM17.6571 15.4857C17.5132 15.4857 17.3751 15.4285 17.2733 15.3267C17.1715 15.2249 17.1143 15.0868 17.1143 14.9429C17.1143 14.7989 17.1715 14.6608 17.2733 14.559C17.3751 14.4572 17.5132 14.4 17.6571 14.4H20.9143C21.0583 14.4 21.1963 14.4572 21.2981 14.559C21.3999 14.6608 21.4571 14.7989 21.4571 14.9429C21.4571 15.0868 21.3999 15.2249 21.2981 15.3267C21.1963 15.4285 21.0583 15.4857 20.9143 15.4857H17.6571ZM8.97143 20.125C8.97143 19.2059 11.5033 18.7429 12.7714 18.7429C14.0395 18.7429 16.5714 19.2059 16.5714 20.1244V22H8.97143V20.125ZM9.93717 20.4648L9.94749 20.455C9.94097 20.4615 9.93735 20.4646 9.93663 20.4643M10.0571 20.3823C10.1912 20.3063 10.4046 20.2167 10.6993 20.1309C11.3871 19.9317 12.2345 19.8286 12.7714 19.8286C13.3083 19.8286 14.1557 19.9317 14.8435 20.1315C15.1383 20.2173 15.3516 20.3068 15.4857 20.3823V20.9143H10.0571V20.3823ZM15.6051 20.4637L15.603 20.4615L15.5992 20.4583L15.5954 20.4545L15.6062 20.4637H15.6051Z" fill="white"/>
<path fill-rule="evenodd" clip-rule="evenodd" d="M14 15C14 15.5304 13.7893 16.0391 13.4142 16.4142C13.0391 16.7893 12.5304 17 12 17C11.4696 17 10.9609 16.7893 10.5858 16.4142C10.2107 16.0391 10 15.5304 10 15C10 14.4696 10.2107 13.9609 10.5858 13.5858C10.9609 13.2107 11.4696 13 12 13C12.5304 13 13.0391 13.2107 13.4142 13.5858C13.7893 13.9609 14 14.4696 14 15ZM13 15C13 15.2652 12.8946 15.5196 12.7071 15.7071C12.5196 15.8946 12.2652 16 12 16C11.7348 16 11.4804 15.8946 11.2929 15.7071C11.1054 15.5196 11 15.2652 11 15C11 14.7348 11.1054 14.4804 11.2929 14.2929C11.4804 14.1054 11.7348 14 12 14C12.2652 14 12.5196 14.1054 12.7071 14.2929C12.8946 14.4804 13 14.7348 13 15Z" fill="white"/>
</svg>
