<svg width="96" height="81" viewBox="0 0 96 81" fill="none" xmlns="http://www.w3.org/2000/svg">
<path d="M41.7445 62.158V64.4271C41.7445 64.7567 41.6135 65.0729 41.38 65.3064C41.2813 65.4051 41.1681 65.4852 41.0445 65.5454L41.0433 65.546C40.877 65.6271 40.691 65.671 40.5006 65.671C40.1716 65.671 39.8546 65.5398 39.6212 65.3064C39.3877 65.0729 39.2567 64.7567 39.2567 64.4271V61.5367V60.2442L37.9784 60.0532C35.8754 59.7389 33.9064 58.8323 32.3015 57.44L32.2917 57.4316L32.2819 57.4233C31.1337 56.4612 30.1875 55.28 29.5 53.9501C28.8127 52.6197 28.3977 51.1654 28.2761 49.6713L28.2756 49.6645C28.2544 49.4187 28.3065 49.174 28.4244 48.9607L28.4265 48.9569C28.5434 48.744 28.7236 48.5679 28.9417 48.4548C29.1617 48.3407 29.4088 48.2949 29.6526 48.3219C29.8957 48.3491 30.1276 48.4486 30.3144 48.606L30.3144 48.6061L30.3233 48.6134C30.5747 48.822 30.737 49.122 30.7747 49.4508C30.8616 50.6211 31.1816 51.7611 31.7155 52.8055C32.2522 53.8565 32.993 54.7883 33.8971 55.5476C35.6914 57.0795 38.0065 57.861 40.362 57.7319C43.3437 57.7264 45.8335 57.1555 47.5993 55.7499C49.4428 54.2822 50.2323 52.1234 50.2323 49.5732C50.2323 45.579 46.7455 41.9271 40.5006 41.9271C34.8593 41.9271 31.9091 40.2112 30.3266 38.2891C28.7058 36.3205 28.2852 33.8551 28.2811 31.9303C28.3732 29.6235 29.1675 27.4002 30.5603 25.5599L30.5609 25.559C31.9557 23.7132 33.8853 22.3401 36.0859 21.6255C36.4432 21.5159 36.8031 21.423 37.1658 21.3465L37.1682 21.346C37.4317 21.29 37.6981 21.2432 37.9676 21.2049L39.2567 21.0218V19.7198V16.866C39.2567 16.5364 39.3877 16.2202 39.6212 15.9867L39.6222 15.9857C39.8543 15.7531 40.1705 15.6221 40.5006 15.6221C40.8307 15.6221 41.1469 15.7531 41.379 15.9857L41.38 15.9867C41.6135 16.2202 41.7445 16.5364 41.7445 16.866V19.8297V21.1003L42.9979 21.3092C45.5441 21.7336 47.8781 22.9877 49.6374 24.876C51.3866 26.7535 52.4705 29.1539 52.7226 31.7076C52.7247 31.8247 52.71 31.9412 52.6797 32.053L52.6796 32.0531C52.6311 32.2319 52.543 32.3992 52.4199 32.5422C52.2958 32.6846 52.1432 32.7952 51.9764 32.8678C51.8578 32.9192 51.7322 32.9522 51.6039 32.965L51.602 32.9652C51.2877 32.997 50.9723 32.9075 50.7194 32.7127L50.7182 32.7118C50.4766 32.5261 50.3114 32.2568 50.2548 31.954C50.0028 29.6075 48.8693 27.4441 47.0841 25.8998L47.0831 25.8989C45.2915 24.3519 42.9808 23.5422 40.6166 23.6344H39.9938C39.6027 23.6315 39.2115 23.6502 38.8222 23.6906L41.7445 62.158ZM41.7445 62.158L39.5425 59.956L43.0701 59.8905C43.8627 59.8757 44.6489 59.7656 45.4098 59.5641L45.4107 59.5639C45.9059 59.4331 46.3932 59.2625 46.8678 59.054C48.0647 58.5267 49.145 57.767 50.0454 56.8186L50.0467 56.8172C50.2613 56.5917 50.4641 56.3579 50.6536 56.1168L41.7445 62.158ZM52.1162 53.5287L52.1164 53.5282C52.2666 53.1342 52.3904 52.7326 52.4879 52.3247L52.4884 52.3227C52.6948 51.4646 52.7861 50.581 52.7567 49.6963L52.7559 49.6714V49.6464C52.7559 44.7679 48.7853 39.5125 40.5363 39.5125C36.7722 39.5125 34.2341 38.7628 32.665 37.2558C31.0619 35.7163 30.8046 33.7094 30.8046 32.0852V32.0524L30.806 32.0197C30.858 30.8316 31.1605 29.6682 31.6913 28.6055C32.2079 27.5411 32.9338 26.5919 33.8241 25.8143L33.8255 25.8131C34.7199 25.0337 35.7612 24.4419 36.8894 24.0737L36.9122 24.0662L36.9353 24.0595C37.5518 23.88 38.1835 23.7562 38.822 23.6906L52.1162 53.5287ZM52.1162 53.5287C51.7609 54.462 51.2678 55.3342 50.6542 56.1161L52.1162 53.5287ZM40.5021 1.5H40.5006C32.7868 1.5 25.2476 3.78705 18.8325 8.07303L18.8325 8.07306C12.4191 12.3583 7.42148 18.4493 4.46941 25.5749L4.46939 25.575C1.51729 32.7016 0.744395 40.5436 2.24927 48.1089C3.75416 55.6742 7.46987 62.6234 12.9226 68.077L12.9226 68.0771C18.3774 73.5319 25.3276 77.2457 32.8927 78.7505C40.4578 80.2553 48.2998 79.4835 55.4249 76.5312C59.4989 74.8435 63.2351 72.4878 66.4883 69.5801L66.9887 69.1328V68.4617V48.8881V47.3881H65.4887H62.6108C58.1328 47.3881 55.334 42.5402 57.5734 38.6627L57.5735 38.6625L69.5978 17.8367L69.5982 17.8358C69.7616 17.5525 69.9404 17.2926 70.1327 17.0551L70.9186 16.0842L70.1061 15.1355C69.4576 14.3783 68.7775 13.6434 68.0678 12.9337L68.0678 12.9337C60.7556 5.62244 50.8425 1.51022 40.5021 1.5Z" stroke="#219653" stroke-width="3"/>
<path fill-rule="evenodd" clip-rule="evenodd" d="M85.8943 19.8126C83.0639 14.9101 75.9878 14.9101 73.1574 19.8126L64.9356 34.053C62.1052 38.9555 65.6432 45.0835 71.3041 45.0835H74.0387L74.0387 76.3542H85.0143L85.0143 45.0835H87.7476C93.4084 45.0835 96.9464 38.9555 94.116 34.053L85.8943 19.8126ZM75.7554 21.3126C77.4312 18.4101 81.6205 18.4101 83.2962 21.3126L91.5179 35.553C93.1937 38.4555 91.099 42.0835 87.7476 42.0835H71.3041C67.9526 42.0835 65.858 38.4555 67.5337 35.553L75.7554 21.3126Z" fill="#219653"/>
</svg>
