<svg width="150" height="150" viewBox="0 0 150 150" fill="none" xmlns="http://www.w3.org/2000/svg">
<path d="M0 36C0 16.1178 16.1177 0 36 0L114 0C133.882 0 150 16.1177 150 36V150H36C16.1178 150 0 133.882 0 114L0 36Z" fill="url(#paint0_linear_5946_2530)"/>
<path d="M77.1094 70.1953C78.4133 71.0151 79.2491 72.2189 79.6583 73.689C80.2144 76.1503 78.995 78.7521 78.2813 81.0938C78.366 81.0942 78.4507 81.0946 78.538 81.0951C79.3429 81.0995 80.1478 81.1062 80.9527 81.1153C81.3663 81.1199 81.7799 81.1237 82.1936 81.1255C82.671 81.1277 83.1483 81.1335 83.6257 81.1395C83.7716 81.1397 83.9176 81.1398 84.0679 81.14C85.4437 81.1626 86.7493 81.4102 87.7735 82.3828C87.8383 82.4443 87.9031 82.5058 87.9699 82.5691C88.7546 83.3967 89.0751 84.4883 89.0796 85.6109C89.0807 85.8024 89.0807 85.8024 89.0818 85.9977C89.082 86.2035 89.082 86.2035 89.0822 86.4134C89.0826 86.5564 89.083 86.6994 89.0834 86.8467C89.084 87.1498 89.0843 87.4529 89.0843 87.756C89.0845 88.2141 89.0866 88.672 89.0889 89.13C89.0976 92.9316 88.5579 96.7039 85.8193 99.5774C85.0882 100.292 84.3708 100.819 83.4376 101.235C83.3625 101.269 83.2875 101.303 83.2102 101.337C81.8683 101.9 80.5129 101.872 79.0833 101.871C78.8641 101.872 78.6449 101.872 78.4256 101.873C77.967 101.874 77.5084 101.874 77.0498 101.873C76.4681 101.872 75.8864 101.874 75.3047 101.877C74.8518 101.879 74.3989 101.879 73.9461 101.878C73.7319 101.879 73.5178 101.879 73.3037 101.88C71.4957 101.889 69.7123 101.756 67.9981 101.133C67.9129 101.104 67.8277 101.075 67.7399 101.045C67.248 100.874 66.7941 100.664 66.3282 100.43C65.9516 100.43 65.8542 100.552 65.5811 100.818C65.4796 100.922 65.3781 101.026 65.2735 101.133C64.3492 101.821 63.5517 101.879 62.4317 101.88C62.305 101.883 62.1782 101.886 62.0476 101.889C60.8469 101.893 59.9097 101.602 59.0264 100.774C58.4925 100.162 58.2286 99.4463 58.225 98.6406C58.2242 98.5127 58.2233 98.3847 58.2225 98.2529C58.2221 98.1124 58.2218 97.972 58.2215 97.8273C58.2207 97.6794 58.22 97.5315 58.2192 97.3791C58.2167 96.8883 58.2155 96.3974 58.2143 95.9065C58.2138 95.7373 58.2134 95.568 58.2129 95.3987C58.2106 94.6029 58.209 93.8072 58.208 93.0114C58.2069 92.0946 58.2038 91.1779 58.199 90.2612C58.1955 89.5515 58.1938 88.8419 58.1934 88.1323C58.1931 87.709 58.1921 87.2858 58.1891 86.8625C58.1858 86.3893 58.1864 85.9162 58.1872 85.443C58.1857 85.3042 58.1842 85.1654 58.1826 85.0224C58.1887 84.046 58.3551 83.2389 58.9248 82.4314C59.0329 82.3276 59.0329 82.3276 59.1431 82.2217C59.2137 82.1507 59.2842 82.0797 59.3569 82.0066C60.3122 81.3197 61.1855 81.2549 62.3438 81.2696C62.4867 81.2677 62.6296 81.2659 62.7768 81.2641C64.0629 81.2696 64.8532 81.6121 65.8594 82.3828C66.9305 81.3539 67.921 80.3087 68.7891 79.1016C68.8348 79.0383 68.8805 78.975 68.9276 78.9097C70.2474 77.0487 71.1 74.957 71.7188 72.7735C72.1063 71.4188 72.4468 70.5011 73.7183 69.7486C74.8759 69.3074 76.0687 69.6188 77.1094 70.1953ZM74.3624 72.0571C73.9515 72.4863 73.8572 73.0088 73.7183 73.5718C73.6584 73.7949 73.598 74.0178 73.537 74.2406C73.5072 74.3502 73.4774 74.4598 73.4466 74.5728C72.8354 76.7463 71.7635 78.8715 70.365 80.6442C70.2351 80.809 70.1085 80.9764 69.9833 81.1448C69.5217 81.7442 69.0889 82.2115 68.454 82.6273C67.5154 83.2855 66.6551 84.016 66.363 85.1689C66.0339 87.1171 66.182 89.1489 66.2603 91.1131C66.2881 91.8868 66.3002 92.6608 66.3138 93.4349C66.3424 94.9468 66.3877 96.4577 66.4454 97.9688C66.7077 98.1016 66.9702 98.2341 67.2329 98.3664C67.3436 98.4226 67.3436 98.4226 67.4567 98.4799C67.9807 98.7434 68.4843 98.9513 69.0455 99.1187C69.1897 99.1629 69.334 99.2072 69.4826 99.2528C69.6417 99.295 69.8012 99.3357 69.961 99.375C70.0436 99.3954 70.1263 99.4158 70.2114 99.4368C71.2934 99.6668 72.3751 99.6479 73.4757 99.6488C73.6909 99.6495 73.9061 99.6503 74.1213 99.6511C74.5707 99.6525 75.02 99.653 75.4693 99.6528C76.0413 99.6528 76.6131 99.656 77.1851 99.66C77.6291 99.6627 78.073 99.6631 78.517 99.663C78.7277 99.6633 78.9384 99.6643 79.1491 99.6661C80.8524 99.6795 82.2778 99.5081 83.6719 98.4375C83.7734 98.3698 83.875 98.3022 83.9795 98.2324C85.6866 96.6153 86.6297 93.8565 86.7393 91.5637C86.7461 91.0935 86.7456 90.624 86.7408 90.1538C86.7397 89.9837 86.7385 89.8136 86.7375 89.6435C86.7341 89.2179 86.7287 88.7924 86.7223 88.3669C86.719 88.1365 86.7164 87.9061 86.7138 87.6756C86.7086 87.276 86.6998 86.8766 86.6895 86.4771C86.6879 86.3603 86.6862 86.2435 86.6846 86.1231C86.6543 85.2532 86.4754 84.5837 85.8326 83.9722C85.3411 83.6572 84.9115 83.6543 84.3472 83.6534C84.2612 83.6528 84.1752 83.6522 84.0866 83.6516C83.9 83.6504 83.7134 83.6493 83.5267 83.6485C83.2311 83.6472 82.9356 83.6449 82.6401 83.6423C81.7998 83.6351 80.9595 83.6288 80.1192 83.6249C79.6051 83.6224 79.0911 83.6183 78.577 83.6131C78.3813 83.6114 78.1855 83.6104 77.9897 83.61C77.7157 83.6094 77.4417 83.6067 77.1676 83.6035C77.0467 83.604 77.0467 83.604 76.9233 83.6046C76.4197 83.5959 76.1072 83.5045 75.7032 83.2031C75.4516 82.8943 75.4688 82.7342 75.4983 82.3325C75.5871 81.6872 75.7847 81.0769 75.9778 80.4566C76.0164 80.3301 76.055 80.2036 76.0947 80.0732C76.2588 79.5352 76.4247 78.9977 76.5904 78.4601C76.7115 78.0662 76.8318 77.6721 76.952 77.2779C77.0082 77.0973 77.0082 77.0973 77.0655 76.913C77.4585 75.6235 77.604 74.5382 76.9524 73.2939C76.4301 72.5367 75.7296 72.1636 74.8829 71.836C74.6191 71.8121 74.6191 71.8121 74.3624 72.0571ZM60.586 84.0235C60.4705 84.37 60.453 84.5983 60.4508 84.9598C60.4498 85.0805 60.4488 85.2013 60.4477 85.3257C60.4472 85.4581 60.4467 85.5905 60.4462 85.7269C60.4452 85.8665 60.4443 86.006 60.4433 86.1497C60.4404 86.6124 60.4384 87.075 60.4368 87.5377C60.4361 87.6971 60.4355 87.8565 60.4349 88.016C60.4323 88.6792 60.4301 89.3424 60.4288 90.0055C60.4269 90.9553 60.423 91.905 60.4164 92.8548C60.4118 93.523 60.4095 94.1911 60.4089 94.8594C60.4085 95.2583 60.4071 95.6572 60.4033 96.0561C60.3996 96.5013 60.3996 96.9464 60.4004 97.3917C60.3985 97.5234 60.3966 97.6551 60.3946 97.7908C60.3952 98.5591 60.3952 98.5591 60.7441 99.2207C61.2412 99.6552 61.6986 99.6341 62.3292 99.6387C62.4121 99.6411 62.495 99.6435 62.5805 99.646C63.1134 99.65 63.4481 99.5913 63.8672 99.2578C64.1927 98.8973 64.2629 98.6676 64.2642 98.185C64.2654 98.0629 64.2666 97.9409 64.2678 97.8151C64.2672 97.6818 64.2667 97.5486 64.2662 97.4112C64.2674 97.2 64.2674 97.2 64.2686 96.9844C64.2704 96.5984 64.2706 96.2125 64.2699 95.8266C64.2695 95.5042 64.2702 95.1818 64.2709 94.8594C64.2726 94.0988 64.2724 93.3381 64.2711 92.5775C64.2697 91.7932 64.2714 91.0089 64.2745 90.2246C64.2771 89.5508 64.2779 88.8771 64.2772 88.2033C64.2768 87.801 64.2771 87.3988 64.2791 86.9966C64.2813 86.548 64.2796 86.0994 64.2776 85.6508C64.2793 85.4513 64.2793 85.4513 64.281 85.2477C64.278 84.5309 64.278 84.5309 63.9954 83.8851C63.4942 83.4495 63.0034 83.5248 62.3658 83.5181C62.26 83.5147 62.1541 83.5113 62.0451 83.5078C61.4134 83.5018 61.0303 83.5233 60.586 84.0235Z" fill="white"/>
<path d="M76.2977 48.4754C77.1264 49.0534 77.5252 49.9752 77.9516 50.8594C78.0126 50.9829 78.0735 51.1065 78.1363 51.2338C78.6142 52.2078 78.6142 52.2078 78.7744 52.7054C78.9493 53.1214 78.9493 53.1214 79.3714 53.2254C79.5302 53.2466 79.6895 53.2638 79.8491 53.2777C79.9768 53.2938 79.9768 53.2938 80.1071 53.3103C80.3796 53.3441 80.6522 53.3728 80.9253 53.4009C83.8381 53.7259 83.8381 53.7259 84.5508 54.5874C84.9857 55.2552 85.1584 55.887 85.0283 56.6764C84.7474 57.8303 83.6366 58.6422 82.799 59.4151C82.6134 59.5872 82.431 59.7622 82.2487 59.9377C82.1395 60.0398 82.0303 60.1418 81.9178 60.247C81.4899 60.8561 81.6653 61.5532 81.7822 62.2527C81.8034 62.3834 81.8245 62.5141 81.8463 62.6488C81.8686 62.7826 81.891 62.9164 81.914 63.0542C82.3216 65.5012 82.3216 65.5012 81.5552 66.709C81.0868 67.2208 80.4448 67.4471 79.7685 67.5352C78.6047 67.5097 77.4936 66.73 76.5056 66.1707C76.4273 66.1271 76.3491 66.0835 76.2685 66.0386C76.1199 65.9554 75.9723 65.8704 75.8259 65.7834C75.3328 65.5061 75.0729 65.4925 74.5312 65.625C74.1667 65.7833 74.1667 65.7833 73.7993 65.9871C73.732 66.0228 73.6647 66.0585 73.5954 66.0953C73.3819 66.2086 73.1692 66.3231 72.9565 66.438C72.7443 66.5523 72.5319 66.6664 72.3189 66.7795C72.1254 66.8823 71.9325 66.9862 71.7396 67.0903C70.9347 67.4692 70.2369 67.6062 69.375 67.3828C68.6318 67.0368 68.1645 66.6156 67.8515 65.8594C67.6418 64.9359 67.8494 64.0742 68.02 63.1567C68.0769 62.8455 68.1326 62.534 68.188 62.2224C68.2133 62.0854 68.2386 61.9484 68.2646 61.8072C68.3242 61.3784 68.3711 61.0174 68.3203 60.5859C68.1167 60.3186 67.9415 60.1265 67.6959 59.9062C67.632 59.8451 67.5681 59.784 67.5022 59.721C67.2983 59.5263 67.0919 59.3344 66.8847 59.1431C65.1155 57.5046 65.1155 57.5046 64.9219 56.4844C64.893 55.6968 65.0453 55.1297 65.5078 54.4922C66.151 53.8277 66.8193 53.6463 67.7133 53.5332C67.8914 53.5089 68.0694 53.4845 68.2475 53.4602C68.5265 53.4228 68.8055 53.386 69.0846 53.3499C69.3552 53.3146 69.6256 53.2775 69.8959 53.2402C70.0212 53.2248 70.0212 53.2248 70.1489 53.2091C70.4613 53.1652 70.7224 53.1249 70.9882 52.9489C71.1996 52.6352 71.3597 52.3019 71.5187 51.9598C71.5933 51.8045 71.668 51.6491 71.7428 51.4938C71.8589 51.2508 71.9743 51.0075 72.0882 50.7634C72.5907 49.6901 73.0656 48.8599 74.1064 48.23C74.8778 48.0647 75.6073 48.0613 76.2977 48.4754ZM75.1172 50.3906C75.0475 50.5242 74.9779 50.6577 74.9061 50.7953C74.6455 51.2941 74.382 51.7915 74.1183 52.2887C73.9451 52.6176 73.775 52.948 73.6052 53.2787C73.494 53.4903 73.3828 53.702 73.2715 53.9136C73.2205 54.0146 73.1695 54.1156 73.1171 54.2197C73.0671 54.3134 73.0171 54.4071 72.9657 54.5036C72.9228 54.5864 72.8799 54.6692 72.8358 54.7545C72.3969 55.2591 71.6239 55.2581 70.9955 55.3381C70.8119 55.363 70.6283 55.3879 70.4448 55.4127C70.1575 55.4509 69.8703 55.4886 69.583 55.5261C69.3042 55.5627 69.0255 55.6005 68.7469 55.6384C68.6175 55.6547 68.6175 55.6547 68.4854 55.6714C67.9999 55.7292 67.9999 55.7292 67.6172 56.0156C67.8763 56.5018 68.1786 56.8177 68.5913 57.1802C69.1632 57.6924 69.7215 58.2162 70.2685 58.7549C70.3393 58.8232 70.41 58.8914 70.4829 58.9618C70.8418 59.3177 71.1353 59.6098 71.25 60.1172C71.2381 60.4683 71.2381 60.4683 71.1767 60.8716C71.1659 60.9454 71.155 61.0191 71.1438 61.0952C71.0179 61.9214 70.8611 62.7433 70.7017 63.5637C70.5993 64.1025 70.5193 64.6046 70.5469 65.1562C70.9234 65.0772 71.2367 64.9429 71.58 64.7704C71.6883 64.7161 71.7966 64.6618 71.9082 64.6059C72.0221 64.5483 72.136 64.4906 72.2534 64.4312C72.428 64.3438 72.428 64.3438 72.6062 64.2548C73.2844 63.9139 73.948 63.5636 74.5884 63.1554C75.2262 62.9203 75.7026 62.9481 76.3186 63.2071C76.7526 63.4288 77.1768 63.6626 77.6001 63.9038C77.7473 63.9857 77.8946 64.0674 78.042 64.1489C78.3136 64.2992 78.5842 64.4507 78.8544 64.6034C79.526 65.0104 79.526 65.0104 80.2734 65.1562C80.137 64.0042 79.9506 62.8686 79.7251 61.7305C79.6672 61.4277 79.6163 61.1251 79.5703 60.8203C79.5563 60.7369 79.5423 60.6535 79.5278 60.5676C79.4951 60.2271 79.5232 59.9589 79.7046 59.6661C79.9207 59.4106 80.1511 59.1792 80.3906 58.9453C80.4963 58.8376 80.602 58.7299 80.711 58.6189C81.0675 58.2559 81.4283 57.8973 81.7895 57.5391C81.9157 57.4135 82.0418 57.2879 82.1679 57.1623C82.4736 56.8579 82.7796 56.5538 83.0859 56.25C83.0472 56.134 83.0086 56.018 82.9687 55.8984C82.8298 55.879 82.6909 55.8595 82.5477 55.8395C82.031 55.7667 81.5146 55.6923 80.9982 55.6173C80.7749 55.5852 80.5516 55.5535 80.3281 55.5222C80.0065 55.4772 79.6852 55.4305 79.3638 55.3835C79.2146 55.3631 79.2146 55.3631 79.0623 55.3423C78.4525 55.251 77.9293 55.1582 77.5398 54.6348C77.4819 54.5189 77.4819 54.5189 77.4229 54.4006C77.3779 54.3126 77.3328 54.2246 77.2864 54.1339C77.2169 53.9922 77.2169 53.9922 77.146 53.8477C77.0445 53.6479 76.9431 53.4482 76.8416 53.2484C76.7897 53.1452 76.7379 53.0419 76.6845 52.9355C76.4178 52.4084 76.1406 51.8869 75.8642 51.3647C75.765 51.1763 75.6658 50.9879 75.5667 50.7994C75.4957 50.6645 75.4247 50.5296 75.3515 50.3906C75.2742 50.3906 75.1968 50.3906 75.1172 50.3906Z" fill="white"/>
<path d="M57.825 57.0524C58.7933 57.5944 59.2132 58.7405 59.6849 59.6923C59.7381 59.7979 59.7914 59.9035 59.8462 60.0123C59.8965 60.1131 59.9467 60.2138 59.9984 60.3176C60.0438 60.4086 60.0892 60.4996 60.1359 60.5934C60.2342 60.8203 60.2342 60.8203 60.2342 61.0546C60.3183 61.059 60.4025 61.0634 60.4892 61.0679C61.2998 61.1194 62.1033 61.2051 62.9075 61.3183C62.9998 61.3297 63.0921 61.3411 63.1871 61.3528C64.0325 61.479 64.6705 61.8016 65.2147 62.4682C65.4989 63.0443 65.4816 63.7123 65.3904 64.3359C65.1589 64.8959 64.8965 65.1987 64.4241 65.5728C63.1261 66.5879 63.1261 66.5879 62.3862 67.9876C62.4045 68.7318 62.6111 69.4229 62.8394 70.1271C63.0442 70.8147 63.0799 71.5582 62.8219 72.2355C62.4922 72.8234 62.0475 73.2017 61.4134 73.4472C60.318 73.58 59.5758 73.2262 58.6297 72.7116C58.5312 72.6582 58.4327 72.6049 58.3312 72.5499C58.1321 72.4412 57.9339 72.3308 57.7367 72.2186C57.5978 72.1422 57.5978 72.1422 57.456 72.0643C57.3733 72.0176 57.2905 71.9709 57.2053 71.9227C56.7718 71.7735 56.4649 71.9082 56.0605 72.0936C55.9536 72.1512 55.8468 72.2087 55.7367 72.268C55.6191 72.3305 55.5015 72.3931 55.3803 72.4575C55.198 72.5559 55.198 72.5559 55.012 72.6562C54.7704 72.786 54.5286 72.9155 54.2865 73.0444C54.1797 73.1019 54.073 73.1595 53.963 73.2188C53.2939 73.5415 52.6687 73.5702 51.9578 73.3373C51.3349 73.0028 50.9488 72.5764 50.6248 71.9531C50.574 71.6615 50.574 71.6615 50.5735 71.3305C50.5728 71.1967 50.572 71.0628 50.5713 70.9249C50.596 70.5235 50.6972 70.177 50.8212 69.7952C51.1427 68.7219 51.1427 68.7219 51.0936 67.6171C50.5228 66.6837 49.649 65.9835 48.7995 65.3109C48.4041 64.9324 48.1949 64.5522 48.1172 64.01C48.1236 63.2616 48.16 62.7249 48.6926 62.1537C49.465 61.4299 50.3799 61.3556 51.3939 61.2158C51.5555 61.1922 51.5555 61.1922 51.7205 61.1682C52.258 61.0924 52.7756 61.0347 53.3201 61.0546C53.3605 60.9171 53.3605 60.9171 53.4016 60.7768C53.6019 60.2196 53.8605 59.701 54.1258 59.1723C54.1767 59.0686 54.2276 58.9649 54.2801 58.858C54.6456 58.1265 54.9977 57.4357 55.7518 57.0391C56.4154 56.8225 57.1657 56.8235 57.825 57.0524ZM56.7186 59.2968C56.6678 59.3979 56.617 59.499 56.5646 59.6032C56.3754 59.9792 56.1846 60.3545 55.9933 60.7295C55.9108 60.8917 55.8288 61.0541 55.7471 61.2168C55.6295 61.4509 55.5104 61.6843 55.3911 61.9175C55.355 61.99 55.319 62.0626 55.2819 62.1373C55.0719 62.5435 54.9014 62.8332 54.492 63.0468C54.1907 63.116 53.9053 63.1685 53.6003 63.2093C53.5151 63.2218 53.4299 63.2343 53.3422 63.2472C53.0713 63.2867 52.8002 63.3243 52.5291 63.3618C52.3449 63.3883 52.1607 63.4149 51.9766 63.4416C51.5262 63.5068 51.0756 63.5702 50.6248 63.6328C50.8065 64.0701 51.0748 64.3409 51.4122 64.6691C51.5214 64.7765 51.6306 64.8839 51.7431 64.9946C51.8586 65.1071 51.9741 65.2196 52.0897 65.332C52.3162 65.5522 52.5419 65.7733 52.7672 65.9948C52.8675 66.0925 52.9679 66.1901 53.0713 66.2908C53.359 66.6048 53.5496 66.8318 53.5603 67.2655C53.5488 67.3471 53.5374 67.4287 53.5257 67.5128C53.5128 67.605 53.5 67.6972 53.4868 67.7922C53.3848 68.3973 53.2577 68.9965 53.1295 69.5965C53.0297 70.076 52.937 70.5225 52.9686 71.0156C53.0293 70.9867 53.09 70.9578 53.1525 70.928C53.6402 70.6962 54.1281 70.4649 54.6165 70.2346C54.9473 70.0786 55.2767 69.921 55.6053 69.7604C55.7141 69.7081 55.8228 69.6558 55.9349 69.602C56.0263 69.5571 56.1177 69.5123 56.2118 69.466C56.7017 69.3022 57.0767 69.3295 57.5539 69.5255C57.6813 69.5943 57.8086 69.663 57.9399 69.7338C58.0086 69.7702 58.0772 69.8067 58.148 69.8442C58.3656 69.9599 58.5822 70.0774 58.7986 70.1953C59.017 70.3127 59.2355 70.4298 59.4543 70.5463C59.6518 70.6517 59.8487 70.7583 60.0455 70.865C60.3296 71.0328 60.3296 71.0328 60.5858 71.0156C60.5454 70.3969 60.4815 69.7854 60.3784 69.174C60.362 69.0768 60.3457 68.9797 60.3289 68.8796C60.2956 68.6857 60.2613 68.492 60.2258 68.2986C60.1155 67.6552 60.0242 67.0257 60.3798 66.4398C60.4429 66.3739 60.506 66.308 60.5711 66.2402C60.6444 66.1627 60.7176 66.0852 60.7931 66.0053C60.9225 65.8751 60.9225 65.8751 61.0545 65.7421C61.1589 65.6347 61.2633 65.5273 61.3708 65.4167C61.9058 64.8705 62.4444 64.3392 63.0467 63.8671C62.6367 63.6252 62.2524 63.5674 61.7837 63.5023C61.6277 63.4791 61.4717 63.4558 61.3157 63.4325C61.0715 63.3967 60.8273 63.3617 60.5828 63.3285C60.3455 63.2958 60.1089 63.2601 59.8721 63.224C59.7309 63.204 59.5896 63.184 59.4441 63.1634C58.8488 62.9816 58.5834 62.6427 58.2737 62.1165C58.2145 61.9927 58.1552 61.8689 58.0941 61.7413C57.9955 61.5387 57.9955 61.5387 57.8948 61.332C57.8273 61.1908 57.76 61.0495 57.6927 60.9081C57.5588 60.6288 57.4239 60.35 57.2885 60.0714C57.2296 59.948 57.1707 59.8247 57.1101 59.6977C56.9801 59.4 56.9801 59.4 56.7186 59.2968Z" fill="white"/>
<path d="M93.186 56.8945C93.311 56.8885 93.4359 56.8824 93.5646 56.8762C94.292 57.0095 94.8214 57.3491 95.251 57.9554C95.4468 58.2992 95.6227 58.6471 95.7935 59.0039C95.884 59.1831 95.884 59.1831 95.9763 59.366C96.2532 59.9212 96.492 60.4624 96.6797 61.0547C96.8079 61.0613 96.8079 61.0613 96.9388 61.068C97.7364 61.1182 98.52 61.2075 99.3091 61.333C99.3977 61.3463 99.4864 61.3597 99.5777 61.3734C100.485 61.5241 101.051 61.814 101.602 62.5781C101.888 63.0828 101.937 63.6522 101.836 64.2188C101.444 65.2867 100.587 65.9237 99.7375 66.644C99.0919 67.2276 99.0919 67.2276 98.88 68.039C98.9387 68.4587 99.0268 68.85 99.1406 69.2578C99.6224 71.5922 99.6224 71.5922 99.0468 72.5798C98.6718 73.0965 98.2286 73.3298 97.6172 73.4766C96.6548 73.5876 95.8985 73.1594 95.0752 72.7116C94.9767 72.6583 94.8782 72.605 94.7766 72.55C94.5776 72.4412 94.3794 72.3308 94.1822 72.2187C94.0433 72.1423 94.0433 72.1423 93.9015 72.0644C93.8188 72.0176 93.736 71.9709 93.6508 71.9228C93.2173 71.7736 92.9104 71.9082 92.506 72.0937C92.3991 72.1512 92.2923 72.2088 92.1822 72.2681C92.0646 72.3306 91.947 72.3931 91.8258 72.4576C91.6435 72.5559 91.6435 72.5559 91.4575 72.6562C91.2159 72.7861 90.9741 72.9155 90.732 73.0444C90.6252 73.102 90.5185 73.1595 90.4085 73.2188C89.739 73.5418 89.1119 73.5744 88.4033 73.3301C87.717 72.9742 87.3765 72.6672 87.0703 71.9531C87.0195 71.6203 87.0195 71.6203 87.019 71.2573C87.0181 71.1135 87.0172 70.9697 87.0163 70.8215C87.0399 70.419 87.1389 70.0812 87.2708 69.7009C87.5983 68.6758 87.5983 68.6758 87.5391 67.6172C86.9236 66.6483 86.0106 65.9087 85.1252 65.193C84.6533 64.7384 84.5723 64.294 84.5581 63.6548C84.5714 62.9776 84.6999 62.4713 85.1953 61.9922C85.9219 61.4655 86.6704 61.3791 87.5464 61.2598C87.6821 61.2395 87.8178 61.2193 87.9577 61.1984C88.5668 61.1103 89.1492 61.0439 89.7656 61.0547C89.7916 60.9654 89.8176 60.8761 89.8444 60.7841C90.0595 60.1862 90.3347 59.6248 90.6152 59.0552C90.6698 58.9403 90.7243 58.8254 90.7805 58.707C91.3114 57.6298 91.9232 56.9307 93.186 56.8945ZM93.1641 59.1797C93.1133 59.2843 93.0625 59.389 93.0101 59.4968C92.8209 59.886 92.6301 60.2743 92.4388 60.6624C92.3563 60.8303 92.2743 60.9984 92.1926 61.1668C92.075 61.409 91.956 61.6505 91.8365 61.8919C91.8005 61.967 91.7645 62.0421 91.7274 62.1195C91.52 62.5345 91.3546 62.8318 90.9375 63.0469C90.6362 63.116 90.3508 63.1685 90.0458 63.2094C89.9606 63.2219 89.8754 63.2344 89.7877 63.2473C89.5168 63.2868 89.2457 63.3243 88.9746 63.3618C88.7904 63.3883 88.6062 63.4149 88.4221 63.4417C87.9717 63.5069 87.5211 63.5703 87.0703 63.6328C87.2527 64.0721 87.5242 64.3464 87.8618 64.6774C87.9715 64.7859 88.0813 64.8944 88.1944 65.0061C88.3104 65.1197 88.4264 65.2332 88.5425 65.3467C88.7701 65.57 88.9971 65.7938 89.2241 66.0178C89.3251 66.1167 89.4261 66.2155 89.5301 66.3174C89.9359 66.7397 89.9109 67.052 89.9052 67.6157C89.8633 68.2763 89.7233 68.9182 89.5898 69.5654C89.5479 69.7755 89.5479 69.7755 89.5052 69.9898C89.4367 70.3319 89.3673 70.6739 89.2969 71.0156C89.7775 70.8669 90.2052 70.6868 90.6468 70.4466C90.8266 70.3518 90.8266 70.3518 91.0101 70.2551C91.259 70.1227 91.5072 69.9887 91.7544 69.8531C92.9003 69.2554 92.9003 69.2554 93.5874 69.394C94.2192 69.6157 94.7986 69.9384 95.3833 70.2612C95.6454 70.4034 95.9077 70.5451 96.1702 70.6865C96.285 70.7496 96.3998 70.8126 96.5181 70.8776C96.78 71.033 96.78 71.033 97.0312 71.0156C96.9975 70.7128 96.9634 70.4101 96.9287 70.1074C96.9184 70.0167 96.9081 69.926 96.8974 69.8325C96.8235 69.2013 96.7244 68.5801 96.5941 67.9578C96.5837 67.8454 96.5732 67.733 96.5625 67.6172C96.5535 67.5429 96.5445 67.4687 96.5352 67.3922C96.5243 66.8061 96.7085 66.479 97.105 66.0489C97.4075 65.7408 97.7197 65.4442 98.0347 65.1489C98.1642 65.0241 98.2935 64.8991 98.4226 64.7738C98.7377 64.469 99.0555 64.1673 99.375 63.8672C98.9721 63.5986 98.7176 63.5683 98.2407 63.5023C98.0842 63.4792 97.9278 63.4559 97.7715 63.4325C97.526 63.3968 97.2805 63.3619 97.0347 63.3285C96.7967 63.2959 96.5593 63.2602 96.3217 63.224C96.1797 63.204 96.0378 63.1841 95.8915 63.1635C95.2823 62.9783 95.0218 62.6302 94.7048 62.0932C94.6391 61.9588 94.5734 61.8244 94.5058 61.6859C94.4702 61.6139 94.4346 61.5419 94.3979 61.4678C94.2858 61.2403 94.1754 61.012 94.0649 60.7837C93.9887 60.6282 93.9123 60.4728 93.8358 60.3175C93.6497 59.9388 93.4651 59.5595 93.2812 59.1797C93.2426 59.1797 93.2039 59.1797 93.1641 59.1797Z" fill="white"/>
<defs>
<linearGradient id="paint0_linear_5946_2530" x1="4.8" y1="138.3" x2="132.45" y2="16.35" gradientUnits="userSpaceOnUse">
<stop stop-color="#08576E"/>
<stop offset="1" stop-color="#0FADDC"/>
</linearGradient>
</defs>
</svg>
