<svg width="24" height="24" viewBox="0 0 24 24" fill="none" xmlns="http://www.w3.org/2000/svg">
<path d="M22.5 7.5V1.5H16.5V3.75H12.75C12.3522 3.75 11.9706 3.90804 11.6893 4.18934C11.408 4.47064 11.25 4.85218 11.25 5.25V11.25H7.5V9H1.5V15H7.5V12.75H11.25V18.75C11.25 19.1478 11.408 19.5294 11.6893 19.8107C11.9706 20.092 12.3522 20.25 12.75 20.25H16.5V22.5H22.5V16.5H16.5V18.75H12.75V12.75H16.5V15H22.5V9H16.5V11.25H12.75V5.25H16.5V7.5H22.5ZM6 13.5H3V10.5H6V13.5ZM18 18H21V21H18V18ZM18 10.5H21V13.5H18V10.5ZM18 3H21V6H18V3Z" fill="white"/>
</svg>
