<svg width="40" height="40" viewBox="0 0 40 40" fill="none" xmlns="http://www.w3.org/2000/svg">
<path d="M9.712 30.7728H8.424C5.98 30.7728 4 28.7927 4 26.3487V8.39275C4 5.94875 5.98 3.96875 8.424 3.96875H19.788C22.232 3.96875 24.212 5.94875 24.212 8.39275V9.24075" stroke="url(#paint0_linear_6012_26544)" stroke-width="2.4" stroke-miterlimit="10"/>
<path d="M29.9278 31.6206C29.9278 34.0646 27.9478 36.0446 25.5038 36.0446H14.1398C11.6958 36.0446 9.71582 34.0646 9.71582 31.6206V13.6646C9.71582 11.2206 11.6958 9.2406 14.1398 9.2406H25.5038C27.9478 9.2406 29.9278 11.2206 29.9278 13.6646" stroke="url(#paint1_linear_6012_26544)" stroke-width="2.4" stroke-linecap="round" stroke-linejoin="round"/>
<path d="M25.7533 18.9875L27.1253 21.4955C27.7013 22.5475 28.5653 23.4115 29.6173 23.9875L32.1253 25.3595L29.6173 26.7315C28.5653 27.3075 27.7013 28.1715 27.1253 29.2235L25.7533 31.7315L24.3813 29.2235C23.8053 28.1715 22.9413 27.3075 21.8893 26.7315L19.3813 25.3595L21.8893 23.9875C22.9413 23.4115 23.8053 22.5475 24.3813 21.4955L25.7533 18.9875Z" stroke="url(#paint2_linear_6012_26544)" stroke-width="1.6" stroke-linecap="round" stroke-linejoin="round"/>
<path d="M32.2643 14.6687L33.0683 16.1407C33.4043 16.7567 33.9123 17.2647 34.5283 17.6007L36.0003 18.4047L34.5283 19.2087C33.9123 19.5447 33.4043 20.0527 33.0683 20.6687L32.2643 22.1407L31.4603 20.6687C31.1243 20.0527 30.6163 19.5447 30.0003 19.2087L28.5283 18.4047L30.0003 17.6007C30.6163 17.2647 31.1243 16.7567 31.4603 16.1407L32.2643 14.6687Z" fill="url(#paint3_linear_6012_26544)"/>
<defs>
<linearGradient id="paint0_linear_6012_26544" x1="4" y1="17.3708" x2="24.212" y2="17.3708" gradientUnits="userSpaceOnUse">
<stop offset="0.268512" stop-color="#6E45E2"/>
<stop offset="1" stop-color="#3477DB"/>
</linearGradient>
<linearGradient id="paint1_linear_6012_26544" x1="9.71582" y1="22.6426" x2="29.9278" y2="22.6426" gradientUnits="userSpaceOnUse">
<stop offset="0.268512" stop-color="#6E45E2"/>
<stop offset="1" stop-color="#3477DB"/>
</linearGradient>
<linearGradient id="paint2_linear_6012_26544" x1="19.3813" y1="25.3595" x2="32.1253" y2="25.3595" gradientUnits="userSpaceOnUse">
<stop offset="0.268512" stop-color="#6E45E2"/>
<stop offset="1" stop-color="#3477DB"/>
</linearGradient>
<linearGradient id="paint3_linear_6012_26544" x1="28.5283" y1="18.4047" x2="36.0003" y2="18.4047" gradientUnits="userSpaceOnUse">
<stop offset="0.268512" stop-color="#6E45E2"/>
<stop offset="1" stop-color="#3477DB"/>
</linearGradient>
</defs>
</svg>
