<svg width="24" height="24" viewBox="0 0 24 24" fill="none" xmlns="http://www.w3.org/2000/svg">
<path d="M16.3767 21.3667L14.0317 17.3067C15.1751 16.4667 15.9684 15.16 16.1317 13.6667H20.8334C20.7371 15.2075 20.2844 16.7049 19.511 18.041C18.7377 19.3772 17.6648 20.5156 16.3767 21.3667ZM12.6667 6.70167V2C17.6834 2.30333 21.6967 6.31667 22.0001 11.3333H17.2984C17.1677 10.1499 16.6377 9.04622 15.7958 8.20428C14.9538 7.36235 13.8502 6.83237 12.6667 6.70167ZM5.66672 13.0833C5.66672 13.83 5.81838 14.5417 6.11005 15.1833L2.05005 17.5283C1.35485 16.15 0.995078 14.627 1.00005 13.0833C1.00005 7.79833 5.13005 3.48167 10.3334 3.16667V7.86833C7.70838 8.16 5.66672 10.3767 5.66672 13.0833ZM10.9167 23C7.45172 23 4.40672 21.25 2.63338 18.5433L6.69338 16.1983C7.17912 16.862 7.81495 17.4014 8.54894 17.7725C9.28293 18.1435 10.0943 18.3357 10.9167 18.3333C11.6634 18.3333 12.3751 18.1817 13.0167 17.89L15.3617 21.95C14.0201 22.6267 12.5151 23 10.9167 23Z" fill="white"/>
</svg>
