<svg width="24" height="24" viewBox="0 0 24 24" fill="none" xmlns="http://www.w3.org/2000/svg">
<g clip-path="url(#clip0_6012_26590)">
<path d="M12.2812 0.750118C12.512 0.857303 12.6279 0.997372 12.7499 1.21887C12.807 1.42503 12.8022 1.63072 12.7997 1.84289C12.7995 1.87761 12.7993 1.91232 12.7991 1.94809C12.7985 2.03314 12.7977 2.11819 12.7968 2.20324C12.8518 2.20303 12.9069 2.20283 12.9635 2.20261C13.4842 2.20071 14.0048 2.1993 14.5254 2.19839C14.793 2.1979 15.0606 2.19724 15.3282 2.19617C15.5869 2.19515 15.8455 2.19459 16.1042 2.19435C16.2024 2.19418 16.3007 2.19384 16.399 2.19333C17.3561 2.18857 18.1751 2.20882 18.8982 2.91113C19.3133 3.35108 19.514 3.84314 19.5157 4.44354C19.516 4.48232 19.5163 4.5211 19.5166 4.56105C19.5171 4.64279 19.5173 4.72454 19.5173 4.80628C19.5175 4.92963 19.5192 5.0529 19.521 5.17624C19.5253 5.81823 19.4311 6.32301 19.0312 6.84387C19.0022 6.88254 18.9733 6.92121 18.9435 6.96106C18.5965 7.36856 18.1015 7.6057 17.5781 7.68762C17.4229 7.69429 17.2678 7.69354 17.1125 7.69294C17.0659 7.69295 17.0192 7.69295 16.9711 7.69296C16.8172 7.69293 16.6632 7.69256 16.5093 7.6922C16.4024 7.69211 16.2955 7.69204 16.1887 7.69199C15.9076 7.69182 15.6266 7.69136 15.3456 7.69084C15.0587 7.69036 14.7718 7.69014 14.4849 7.68991C13.9222 7.6894 13.3595 7.68858 12.7968 7.68762C12.7968 8.21356 12.7968 8.73949 12.7968 9.28137C13.0821 9.27989 13.0821 9.27989 13.3731 9.27839C14.0025 9.27528 14.6319 9.2732 15.2613 9.27165C15.6427 9.27069 16.0242 9.26937 16.4057 9.26722C16.7384 9.26535 17.0711 9.26414 17.4038 9.26373C17.5798 9.26348 17.7557 9.26292 17.9317 9.26154C18.0978 9.26026 18.2638 9.25988 18.4299 9.26016C18.519 9.26008 18.6081 9.25908 18.6973 9.25804C19.3413 9.26109 19.8853 9.47033 20.366 9.901C20.9254 10.4772 21.0113 11.0824 21.0163 11.8444C21.0171 11.9299 21.0184 12.0154 21.0202 12.1009C21.0368 12.8956 20.9106 13.5016 20.3528 14.1077C19.8334 14.6013 19.239 14.7335 18.5494 14.7295C18.4865 14.7295 18.4236 14.7295 18.3608 14.7296C18.1909 14.7296 18.0211 14.729 17.8512 14.7284C17.6734 14.7278 17.4957 14.7277 17.3179 14.7276C16.9815 14.7273 16.6452 14.7266 16.3089 14.7256C15.9258 14.7246 15.5428 14.7241 15.1597 14.7236C14.3721 14.7226 13.5844 14.7209 12.7968 14.7189C12.7968 15.2448 12.7968 15.7707 12.7968 16.3126C13.0525 16.3119 13.3083 16.3111 13.5718 16.3104C14.4169 16.3081 15.262 16.3065 16.1071 16.3053C16.6195 16.3046 17.1318 16.3036 17.6442 16.302C18.0909 16.3006 18.5376 16.2997 18.9844 16.2994C19.2208 16.2992 19.4572 16.2988 19.6936 16.2977C19.9164 16.2968 20.1392 16.2965 20.362 16.2967C20.4435 16.2967 20.525 16.2964 20.6065 16.2959C21.3782 16.291 22.054 16.4073 22.6358 16.9551C22.8094 17.1445 22.9473 17.3489 23.0624 17.5782C23.079 17.6108 23.0955 17.6433 23.1126 17.6768C23.2879 18.0763 23.2785 18.4773 23.2744 18.9055C23.2734 19.0311 23.2744 19.1566 23.2756 19.2822C23.2763 19.7148 23.2614 20.0901 23.0624 20.4845C23.0286 20.5545 23.0286 20.5545 22.9941 20.6259C22.6411 21.2078 22.135 21.5827 21.4687 21.7501C21.0468 21.815 20.6192 21.8033 20.1937 21.8023C20.1128 21.8023 20.0319 21.8023 19.951 21.8023C19.7327 21.8023 19.5143 21.8021 19.296 21.8017C19.0673 21.8015 18.8386 21.8014 18.61 21.8014C18.1775 21.8012 17.7451 21.8008 17.3126 21.8004C16.8201 21.7998 16.3275 21.7996 15.835 21.7994C14.8223 21.7989 13.8095 21.798 12.7968 21.797C12.7974 21.8483 12.798 21.8996 12.7987 21.9525C12.7992 22.0206 12.7996 22.0887 12.8001 22.1568C12.8005 22.1905 12.801 22.2243 12.8014 22.259C12.8029 22.5465 12.7896 22.822 12.5875 23.0445C12.345 23.255 12.1704 23.2665 11.8586 23.2631C11.6108 23.2401 11.4945 23.1285 11.3371 22.9469C11.2164 22.7178 11.2293 22.526 11.2382 22.2716C11.2391 22.2259 11.2399 22.1802 11.2408 22.1332C11.243 22.0211 11.2461 21.9091 11.2499 21.797C11.2155 21.7971 11.181 21.7972 11.1455 21.7973C10.3046 21.7993 9.46376 21.8009 8.6229 21.8019C8.21626 21.8023 7.80961 21.803 7.40297 21.8041C7.04831 21.805 6.69364 21.8056 6.33898 21.8058C6.1514 21.8059 5.96382 21.8062 5.77624 21.8069C5.59922 21.8075 5.4222 21.8077 5.24518 21.8076C5.15019 21.8076 5.0552 21.8081 4.96022 21.8087C4.1219 21.8068 3.43869 21.6662 2.81793 21.0648C2.13893 20.3018 2.16366 19.3355 2.21258 18.3759C2.27454 17.7805 2.54819 17.2262 2.99993 16.8282C3.4462 16.4904 3.90752 16.3065 4.46871 16.307C4.52859 16.3069 4.58846 16.3069 4.65016 16.3068C4.71616 16.307 4.78216 16.3071 4.84817 16.3073C4.91794 16.3073 4.9877 16.3073 5.05747 16.3073C5.2466 16.3073 5.43573 16.3075 5.62485 16.3079C5.82261 16.3082 6.02036 16.3082 6.21811 16.3082C6.59246 16.3084 6.96681 16.3088 7.34116 16.3092C7.7674 16.3098 8.19364 16.31 8.61987 16.3103C9.49656 16.3107 10.3732 16.3116 11.2499 16.3126C11.2499 15.7867 11.2499 15.2607 11.2499 14.7189C10.9044 14.7221 10.9044 14.7221 10.5519 14.7255C10.405 14.7264 10.258 14.7273 10.111 14.728C9.87834 14.7291 9.64568 14.7305 9.41302 14.733C9.22519 14.7351 9.03737 14.7362 8.84953 14.7367C8.77829 14.737 8.70706 14.7377 8.63583 14.7387C7.91625 14.7486 7.32182 14.5896 6.77447 14.0992C6.16396 13.4704 6.07598 12.7167 6.08298 11.8781C6.09919 11.0872 6.25346 10.438 6.81951 9.85266C7.39725 9.35028 7.99365 9.25975 8.73223 9.26763C8.80513 9.2679 8.87803 9.2681 8.95092 9.26824C9.14127 9.26877 9.3316 9.27015 9.52193 9.27171C9.75112 9.27341 9.98031 9.27405 10.2095 9.27487C10.5563 9.27623 10.9031 9.27892 11.2499 9.28137C11.2499 8.75543 11.2499 8.22949 11.2499 7.68762C10.9928 7.68835 10.7356 7.68909 10.4707 7.68985C9.62088 7.69218 8.77109 7.69374 7.9213 7.6949C7.40609 7.69563 6.89089 7.69662 6.37568 7.69823C5.92649 7.69963 5.47731 7.70054 5.02812 7.70085C4.7904 7.70103 4.55268 7.70146 4.31496 7.70249C4.09092 7.70344 3.8669 7.70373 3.64286 7.70352C3.56091 7.70356 3.47896 7.70384 3.39701 7.70438C2.65154 7.70907 1.9662 7.60857 1.40033 7.07806C0.718432 6.35213 0.677894 5.5112 0.698688 4.5691C0.727031 3.81795 0.969193 3.26858 1.51458 2.75402C2.17081 2.19283 2.94529 2.19607 3.76258 2.19792C3.84438 2.19793 3.92619 2.19793 4.00799 2.1979C4.22907 2.19789 4.45014 2.19816 4.67122 2.19849C4.90263 2.19878 5.13404 2.19881 5.36544 2.19887C5.80321 2.19901 6.24097 2.1994 6.67873 2.19987C7.17729 2.20039 7.67586 2.20065 8.17442 2.20088C9.19959 2.20137 10.2248 2.2022 11.2499 2.20324C11.249 2.1749 11.248 2.14655 11.247 2.11734C11.243 1.98778 11.2406 1.85823 11.2382 1.72863C11.2366 1.68404 11.2351 1.63945 11.2335 1.5935C11.2296 1.31758 11.2491 1.15481 11.4374 0.937618C11.6845 0.702879 11.9581 0.706629 12.2812 0.750118ZM2.46966 3.96692C2.44761 3.98782 2.42555 4.00873 2.40283 4.03027C2.23139 4.3052 2.2352 4.63204 2.23822 4.94543C2.23785 4.98308 2.23749 5.02072 2.23712 5.05951C2.23809 5.35896 2.26413 5.63789 2.42572 5.89758C2.64694 6.11266 2.86653 6.16149 3.16658 6.15765C3.20127 6.15777 3.23597 6.15789 3.27171 6.15802C3.38745 6.15825 3.50316 6.15748 3.6189 6.15671C3.70207 6.15667 3.78524 6.15669 3.86841 6.15677C4.09385 6.15681 4.31929 6.15598 4.54473 6.155C4.78046 6.15412 5.01618 6.15404 5.25191 6.15387C5.69814 6.15344 6.14437 6.15228 6.59061 6.15087C7.09869 6.1493 7.60677 6.14853 8.11486 6.14782C9.15989 6.14635 10.2049 6.14377 11.2499 6.14074C11.2499 5.35184 11.2499 4.56293 11.2499 3.75012C10.1738 3.748 9.09771 3.74627 8.0216 3.74526C7.52194 3.74478 7.02228 3.74412 6.52262 3.74305C6.0871 3.74211 5.65158 3.74151 5.21607 3.7413C4.98548 3.74118 4.75489 3.74089 4.5243 3.74021C4.30719 3.73957 4.09008 3.73937 3.87297 3.73951C3.79336 3.73949 3.71376 3.7393 3.63415 3.73894C3.52526 3.73847 3.41639 3.73859 3.3075 3.73884C3.24662 3.73876 3.18574 3.73867 3.12301 3.73858C2.88286 3.75488 2.64466 3.79044 2.46966 3.96692ZM12.7968 3.75012C12.7968 4.53902 12.7968 5.32793 12.7968 6.14074C13.6136 6.1462 13.6136 6.1462 14.4304 6.1499C14.7636 6.15102 15.0968 6.15234 15.43 6.15489C15.6987 6.15693 15.9673 6.15805 16.236 6.15853C16.3385 6.15888 16.4409 6.15955 16.5433 6.16057C16.687 6.16193 16.8305 6.16212 16.9742 6.16203C17.0164 6.1627 17.0586 6.16338 17.1021 6.16407C17.3786 6.16227 17.5388 6.11384 17.7656 5.95324C17.9384 5.75115 17.9767 5.6084 17.9763 5.34515C17.9764 5.25293 17.9764 5.25293 17.9764 5.15884C17.9759 5.12716 17.9754 5.09548 17.9749 5.06284C17.9736 4.96601 17.974 4.86931 17.9746 4.77249C17.9723 4.41395 17.9574 4.21252 17.7304 3.92883C17.4748 3.72296 17.1591 3.7369 16.8465 3.73948C16.8025 3.73946 16.7586 3.73945 16.7133 3.73943C16.569 3.7395 16.4247 3.74023 16.2804 3.74096C16.18 3.74114 16.0795 3.74127 15.9791 3.74136C15.7155 3.74172 15.4519 3.74264 15.1882 3.74368C14.8716 3.74481 14.5549 3.74524 14.2382 3.74579C13.7578 3.74669 13.2773 3.74849 12.7968 3.75012ZM7.76654 11.1534C7.6194 11.4205 7.63061 11.6903 7.62884 11.9884C7.62787 12.0285 7.62691 12.0686 7.62591 12.11C7.62412 12.405 7.64378 12.7367 7.84927 12.9671C8.05879 13.1456 8.18121 13.1778 8.45082 13.1773C8.49611 13.1773 8.49611 13.1773 8.54231 13.1773C8.64224 13.1773 8.74217 13.1769 8.8421 13.1766C8.91133 13.1765 8.98056 13.1764 9.04978 13.1764C9.23211 13.1762 9.41444 13.1757 9.59677 13.1752C9.81547 13.1746 10.0342 13.1744 10.2529 13.1742C10.5852 13.1737 10.9176 13.1728 11.2499 13.172C11.2499 12.3986 11.2499 11.6251 11.2499 10.8282C10.7069 10.8228 10.7069 10.8228 10.1639 10.8191C9.94235 10.818 9.72077 10.8166 9.49919 10.8141C9.32048 10.8121 9.14178 10.8109 8.96306 10.8105C8.89499 10.8101 8.82693 10.8094 8.75887 10.8084C8.66327 10.807 8.56772 10.8069 8.47211 10.807C8.41777 10.8065 8.36344 10.8061 8.30746 10.8057C8.06105 10.8424 7.91794 10.9611 7.76654 11.1534ZM12.7968 10.8282C12.7968 11.6017 12.7968 12.3751 12.7968 13.172C13.5987 13.1762 14.4006 13.1797 15.2025 13.1817C15.5748 13.1827 15.9472 13.184 16.3195 13.1861C16.6441 13.188 16.9686 13.1892 17.2932 13.1896C17.465 13.1899 17.6368 13.1905 17.8087 13.1918C18.0006 13.1933 18.1925 13.1934 18.3844 13.1933C18.4697 13.1943 18.4697 13.1943 18.5566 13.1953C18.8537 13.1939 19.0422 13.1889 19.2656 12.9845C19.4347 12.781 19.477 12.6406 19.478 12.378C19.4782 12.3168 19.4784 12.2555 19.4787 12.1924C19.4783 12.1608 19.4779 12.1292 19.4775 12.0967C19.4765 12.0003 19.4775 11.9042 19.4787 11.8079C19.4783 11.716 19.4783 11.716 19.478 11.6222C19.4776 11.5387 19.4776 11.5387 19.4773 11.4535C19.44 11.2124 19.333 11.0775 19.1556 10.9151C18.9249 10.7679 18.648 10.8038 18.3844 10.807C18.324 10.8069 18.2636 10.8069 18.2014 10.8069C18.0364 10.8068 17.8714 10.8079 17.7064 10.8092C17.5337 10.8104 17.361 10.8105 17.1884 10.8107C16.8616 10.8113 16.535 10.8129 16.2082 10.8147C15.8362 10.8168 15.4641 10.8179 15.0921 10.8188C14.327 10.8208 13.5619 10.8242 12.7968 10.8282ZM3.92572 18.1056C3.7409 18.396 3.73402 18.6908 3.73529 19.0255C3.73453 19.0652 3.73378 19.1049 3.733 19.1458C3.73274 19.4852 3.78652 19.7862 3.99603 20.0597C4.32671 20.3077 4.71914 20.2629 5.11424 20.2608C5.18125 20.2607 5.24827 20.2607 5.31528 20.2608C5.49646 20.2608 5.67764 20.2603 5.85882 20.2596C6.04844 20.259 6.23806 20.259 6.42768 20.2589C6.78642 20.2586 7.14516 20.2578 7.5039 20.2569C7.91246 20.2558 8.32101 20.2553 8.72957 20.2548C9.56969 20.2539 10.4098 20.2521 11.2499 20.2501C11.2499 19.4612 11.2499 18.6723 11.2499 17.8595C10.3503 17.8563 9.45058 17.8537 8.55089 17.8522C8.13315 17.8515 7.71541 17.8505 7.29767 17.8489C6.93355 17.8475 6.56944 17.8466 6.20531 17.8463C6.01253 17.8461 5.81975 17.8456 5.62697 17.8446C5.44544 17.8437 5.26393 17.8434 5.08241 17.8436C5.01585 17.8435 4.9493 17.8433 4.88275 17.8427C4.79172 17.842 4.70067 17.8423 4.60963 17.8426C4.55873 17.8425 4.50783 17.8423 4.45539 17.8422C4.23538 17.8688 4.08159 17.9497 3.92572 18.1056ZM12.7968 17.8595C12.7968 18.6484 12.7968 19.4373 12.7968 20.2501C13.866 20.2533 14.9352 20.2559 16.0044 20.2574C16.5008 20.2581 16.9973 20.2591 17.4937 20.2607C17.9265 20.2621 18.3592 20.263 18.792 20.2633C19.0211 20.2635 19.2502 20.264 19.4793 20.265C19.6951 20.2659 19.9108 20.2662 20.1266 20.266C20.2056 20.2661 20.2847 20.2663 20.3638 20.2669C20.9698 20.2964 20.9698 20.2964 21.4937 20.0414C21.7412 19.7573 21.7148 19.4997 21.7169 19.1421C21.7177 19.0441 21.7198 18.9462 21.7218 18.8483C21.7223 18.7855 21.7227 18.7228 21.723 18.66C21.7237 18.6032 21.7244 18.5463 21.7251 18.4878C21.6935 18.2591 21.5906 18.113 21.4189 17.962C21.2307 17.8467 21.0679 17.8537 20.852 17.8539C20.8176 17.8538 20.7832 17.8538 20.7478 17.8537C20.6323 17.8537 20.5168 17.8539 20.4012 17.8542C20.3185 17.8542 20.2359 17.8542 20.1532 17.8541C19.9284 17.8541 19.7036 17.8544 19.4789 17.8547C19.2441 17.855 19.0093 17.8551 18.7745 17.8551C18.3298 17.8553 17.885 17.8556 17.4403 17.8561C16.934 17.8566 16.4277 17.8569 15.9215 17.8571C14.8799 17.8576 13.8384 17.8585 12.7968 17.8595Z" fill="white"/>
</g>
<defs>
<clipPath id="clip0_6012_26590">
<rect width="24" height="24" fill="white"/>
</clipPath>
</defs>
</svg>
