<svg width="150" height="150" viewBox="0 0 150 150" fill="none" xmlns="http://www.w3.org/2000/svg">
<path d="M0 36C0 16.1178 16.1177 0 36 0L114 0C133.882 0 150 16.1177 150 36V150H36C16.1178 150 0 133.882 0 114L0 36Z" fill="url(#paint0_linear_5946_2522)"/>
<path d="M64.6939 48.6969C64.8916 48.697 65.0892 48.6969 65.2868 48.6967C65.8192 48.6965 66.3515 48.6993 66.8838 48.7026C67.4417 48.7055 67.9996 48.7058 68.5574 48.7063C69.612 48.7078 70.6665 48.7116 71.7211 48.7163C72.9224 48.7216 74.1238 48.7241 75.3252 48.7265C77.7947 48.7314 80.2643 48.7396 82.7338 48.7501C82.734 48.9006 82.7342 49.0511 82.7343 49.2062C82.7363 50.6302 82.7413 52.0541 82.7493 53.4781C82.7533 54.21 82.7563 54.9419 82.7567 55.6739C82.7572 56.3813 82.7606 57.0887 82.7659 57.7961C82.7674 58.0649 82.7679 58.3337 82.7673 58.6025C82.7641 60.7333 82.9254 62.3822 84.477 63.9758C85.873 65.2902 87.5669 65.5199 89.4048 65.532C89.5159 65.5331 89.6269 65.5343 89.7413 65.5355C90.1046 65.5391 90.4679 65.5421 90.8312 65.545C91.0845 65.5474 91.3379 65.5498 91.5912 65.5524C92.2553 65.5588 92.9194 65.5646 93.5834 65.5703C94.2622 65.5762 94.9409 65.5827 95.6196 65.5891C96.9494 65.6017 98.2791 65.6136 99.6088 65.6251C99.6142 69.4847 99.6183 73.3443 99.6208 77.2039C99.6211 77.6599 99.6214 78.1159 99.6217 78.5719C99.6218 78.7081 99.6218 78.7081 99.6219 78.847C99.6229 80.3155 99.6247 81.784 99.6269 83.2525C99.6291 84.7602 99.6304 86.2678 99.6309 87.7754C99.6312 88.7052 99.6322 89.6349 99.6341 90.5647C99.6355 91.2785 99.6356 91.9923 99.6353 92.7061C99.6354 92.9983 99.6359 93.2905 99.6368 93.5826C99.6379 93.9825 99.6376 94.3823 99.637 94.7821C99.638 94.9543 99.638 94.9543 99.6391 95.13C99.6316 96.8661 99.2122 98.3882 97.9902 99.668C96.7083 100.849 95.4055 101.306 93.6784 101.296C93.5462 101.296 93.414 101.297 93.2778 101.297C92.8375 101.299 92.3972 101.298 91.9569 101.297C91.6401 101.298 91.3234 101.299 91.0067 101.3C90.2372 101.302 89.4677 101.302 88.6982 101.301C88.0725 101.301 87.4467 101.301 86.821 101.302C86.6872 101.302 86.6872 101.302 86.5506 101.302C86.3693 101.302 86.188 101.302 86.0067 101.302C84.3085 101.304 82.6103 101.303 80.9121 101.302C79.3603 101.301 77.8085 101.302 76.2568 101.305C74.6611 101.308 73.0655 101.309 71.4699 101.308C70.575 101.308 69.6801 101.308 68.7852 101.31C68.0234 101.312 67.2617 101.312 66.4999 101.31C66.1117 101.309 65.7235 101.309 65.3353 101.311C64.9134 101.312 64.4916 101.311 64.0698 101.309C63.9485 101.31 63.8272 101.311 63.7022 101.312C62.2114 101.297 60.8609 100.665 59.7504 99.6827C58.9023 98.7949 58.2263 97.4154 58.2275 96.1845C58.2274 96.0606 58.2272 95.9367 58.2271 95.809C58.2275 95.6737 58.2279 95.5384 58.2283 95.3991C58.2283 95.2561 58.2283 95.1132 58.2283 94.9659C58.2283 94.5744 58.2289 94.183 58.2297 93.7915C58.2305 93.3822 58.2306 92.9729 58.2307 92.5636C58.2311 91.7887 58.232 91.0139 58.2332 90.239C58.2345 89.3568 58.2351 88.4746 58.2357 87.5923C58.237 85.7777 58.239 83.9631 58.2416 82.1485C58.3234 82.156 58.4052 82.1634 58.4895 82.1711C58.8675 82.2049 59.2455 82.2374 59.6236 82.2698C59.7522 82.2816 59.8809 82.2933 60.0134 82.3054C63.907 82.6337 67.9723 81.3869 70.9766 78.87C71.0666 78.7918 71.1567 78.7135 71.2494 78.6329C71.3954 78.5083 71.3954 78.5083 71.5442 78.3811C74.634 75.6799 76.4633 71.8484 76.8451 67.7784C76.8571 67.5686 76.8671 67.3586 76.8744 67.1485C76.8791 67.0591 76.8838 66.9697 76.8886 66.8775C77.0082 62.7147 75.3288 58.6377 72.4986 55.6275C69.3988 52.4249 65.3526 50.8847 60.9369 50.7423C60.468 50.7349 59.9997 50.7341 59.5307 50.7423C60.8824 49.0093 62.5947 48.677 64.6939 48.6969ZM88.5778 77.7437C88.226 78.2914 88.2936 78.916 88.2982 79.5452C88.2973 79.6836 88.2965 79.8221 88.2957 79.9647C88.294 80.3429 88.2944 80.721 88.2958 81.0992C88.297 81.4958 88.2959 81.8925 88.2952 82.2891C88.2943 82.955 88.2955 83.6209 88.2977 84.2868C88.3003 85.0557 88.2994 85.8245 88.2969 86.5934C88.2947 87.2546 88.2944 87.9159 88.2956 88.5771C88.2964 88.9716 88.2965 89.366 88.2949 89.7604C88.2937 90.2003 88.2956 90.6401 88.2982 91.0799C88.2972 91.21 88.2963 91.34 88.2953 91.474C88.3032 92.1925 88.3454 92.6186 88.8276 93.1641C89.3375 93.6256 89.7554 93.7072 90.4215 93.6782C90.986 93.5872 91.3008 93.2775 91.6767 92.8712C91.9727 92.4326 92.0062 92.0644 92.0081 91.5425C92.0088 91.4287 92.0094 91.3149 92.0101 91.1976C92.0102 91.0734 92.0104 90.9493 92.0105 90.8214C92.0111 90.6901 92.0117 90.5587 92.0123 90.4234C92.014 89.9886 92.0148 89.5537 92.0154 89.1189C92.0161 88.8167 92.0168 88.5146 92.0175 88.2125C92.0185 87.6597 92.0193 87.107 92.0196 86.5542C92.0201 85.742 92.0222 84.9297 92.0256 84.1174C92.0284 83.4127 92.0293 82.7081 92.0295 82.0034C92.0299 81.7041 92.0308 81.4049 92.0324 81.1056C92.0344 80.6868 92.0342 80.2681 92.0334 79.8493C92.0345 79.7258 92.0356 79.6024 92.0367 79.4752C92.0324 78.7179 91.9823 78.0838 91.4602 77.4912C90.4438 76.7374 89.4503 76.7564 88.5778 77.7437ZM73.8276 83.086C73.4027 83.6217 73.2999 83.9738 73.2982 84.6539C73.2973 84.7374 73.2965 84.821 73.2957 84.9071C73.2936 85.1814 73.295 85.4557 73.2966 85.7301C73.2962 85.9218 73.2958 86.1135 73.2952 86.3053C73.2945 86.7064 73.2955 87.1075 73.2977 87.5086C73.3004 88.0217 73.2988 88.5346 73.296 89.0477C73.2943 89.4434 73.2949 89.8391 73.2961 90.2348C73.2964 90.4239 73.296 90.613 73.2949 90.8022C73.2937 91.0669 73.2956 91.3315 73.2982 91.5963C73.2985 91.7467 73.2989 91.897 73.2993 92.052C73.3895 92.6722 73.6784 93.0292 74.1352 93.4425C74.6711 93.7005 75.1177 93.7272 75.7026 93.6329C76.2458 93.3613 76.7412 92.9688 76.9442 92.3738C77.0067 92.0257 77.0085 91.6915 77.0105 91.3377C77.0111 91.2613 77.0117 91.1848 77.0123 91.106C77.014 90.8538 77.0148 90.6016 77.0154 90.3494C77.0161 90.1733 77.0168 89.9973 77.0175 89.8213C77.0187 89.4524 77.0194 89.0835 77.0198 88.7145C77.0204 88.2433 77.0232 87.772 77.0266 87.3008C77.0288 86.9371 77.0294 86.5735 77.0295 86.2099C77.0299 86.0362 77.0308 85.8625 77.0324 85.6889C77.0344 85.4452 77.0342 85.2016 77.0334 84.9579C77.0338 84.8196 77.0343 84.6812 77.0347 84.5387C76.9766 84.0017 76.8245 83.5297 76.4602 83.1162C75.607 82.4835 74.6792 82.3155 73.8276 83.086ZM81.0779 85.2343C80.7033 85.8168 80.7921 86.528 80.7966 87.1949C80.7961 87.3431 80.7957 87.4913 80.7952 87.644C80.7949 87.9569 80.7955 88.2696 80.7977 88.5825C80.8004 88.9821 80.7988 89.3815 80.796 89.7811C80.7939 90.1642 80.7954 90.5472 80.7966 90.9303C80.7956 91.0731 80.7947 91.2159 80.7937 91.3631C80.802 92.1131 80.8119 92.5998 81.3276 93.1641C81.8375 93.6256 82.2554 93.7072 82.9215 93.6782C83.486 93.5872 83.8008 93.2775 84.1767 92.8712C84.4793 92.4228 84.5064 92.0435 84.5105 91.5099C84.5116 91.3906 84.5128 91.2712 84.5139 91.1483C84.5144 91.02 84.5149 90.8917 84.5154 90.7595C84.5161 90.6269 84.5168 90.4942 84.5175 90.3575C84.5186 90.0769 84.5193 89.7963 84.5198 89.5156C84.5209 89.0874 84.5246 88.6593 84.5282 88.2311C84.529 87.9581 84.5296 87.6852 84.5301 87.4123C84.5315 87.2848 84.533 87.1572 84.5345 87.0257C84.5322 86.2486 84.4964 85.5998 83.9602 84.9912C82.9405 84.235 81.9641 84.2644 81.0779 85.2343ZM66.0776 88.9848C65.7028 89.5646 65.7914 90.2734 65.8002 90.9376C65.7984 91.0738 65.7966 91.2101 65.7947 91.3505C65.7982 92.1039 65.8104 92.5977 66.3276 93.1641C66.8374 93.6254 67.2554 93.7078 67.9215 93.6778C68.5174 93.5826 68.8198 93.2756 69.1767 92.8126C69.5202 92.2019 69.5164 91.6525 69.5209 90.9669C69.5233 90.8762 69.5258 90.7856 69.5283 90.6922C69.5329 90.003 69.4615 89.2918 68.9699 88.762C68.4083 88.2834 68.0465 88.2005 67.3282 88.2098C66.7549 88.2724 66.4525 88.5742 66.0776 88.9848Z" fill="white"/>
<path d="M59.2967 54.4921C59.2973 54.6952 59.2973 54.6952 59.2979 54.9024C59.3023 56.1817 59.3091 57.4609 59.3182 58.7402C59.3228 59.3978 59.3266 60.0553 59.3284 60.7129C59.3302 61.3482 59.3342 61.9834 59.3398 62.6186C59.3415 62.8603 59.3425 63.102 59.3426 63.3438C59.3429 63.6837 59.346 64.0236 59.3499 64.3635C59.3493 64.4623 59.3487 64.5611 59.3481 64.6629C59.3636 65.5609 59.6415 66.3108 60.1316 67.0605C61.6023 68.4672 63.3765 68.357 65.2856 68.3688C65.5123 68.3709 65.7391 68.3732 65.9658 68.3756C66.5586 68.3816 67.1513 68.3863 67.7441 68.3906C68.3506 68.3954 68.9571 68.4013 69.5636 68.4072C70.7507 68.4185 71.9377 68.4284 73.1248 68.4374C73.1078 68.6238 73.0903 68.8102 73.0726 68.9965C73.0629 69.1003 73.0532 69.2041 73.0432 69.3111C72.8076 71.2825 71.6053 73.2011 70.3123 74.6484C70.2579 74.7194 70.2035 74.7904 70.1475 74.8635C68.4584 77.0573 65.4662 78.3194 62.8123 78.7499C62.2545 78.7973 61.702 78.8059 61.1424 78.8012C60.9943 78.8003 60.8462 78.7994 60.6937 78.7985C59.5129 78.7778 58.4268 78.6491 57.3045 78.2812C57.191 78.2444 57.191 78.2444 57.0753 78.207C55.2384 77.5894 53.7508 76.5863 52.3826 75.2343C52.2568 75.1212 52.2568 75.1212 52.1285 75.0059C50.2409 73.2689 48.9981 70.401 48.8462 67.8555C48.8121 66.1226 48.7959 64.4729 49.3357 62.8124C49.3725 62.6987 49.3725 62.6987 49.4099 62.5827C50.0275 60.7461 51.0308 59.2586 52.3826 57.8905C52.458 57.8067 52.5334 57.7229 52.611 57.6365C54.1677 55.9447 56.9727 54.4596 59.2967 54.4921Z" fill="white"/>
<path d="M86.3666 48.75C86.5337 48.7657 86.7007 48.7821 86.8677 48.799C86.9607 48.8081 87.0537 48.8172 87.1495 48.8265C88.9343 49.0935 90.2315 50.7066 91.3588 51.966C91.6307 52.2684 91.9067 52.567 92.1821 52.8662C92.6566 53.3832 93.1269 53.904 93.5956 54.4263C93.899 54.7624 94.2048 55.0963 94.5112 55.4297C94.9909 55.9518 95.4666 56.4773 95.9398 57.0053C96.1857 57.2773 96.4341 57.5468 96.6834 57.8156C99.1003 60.4296 99.1003 60.4296 99.3744 61.875C97.8434 61.8859 96.3123 61.8942 94.7812 61.8993C94.0703 61.9017 93.3593 61.9051 92.6484 61.9104C91.9623 61.9155 91.2762 61.9183 90.59 61.9195C90.3283 61.9203 90.0665 61.922 89.8048 61.9246C89.4381 61.928 89.0715 61.9284 88.7048 61.9282C88.5967 61.9299 88.4885 61.9316 88.3771 61.9333C87.7253 61.9291 87.3523 61.8421 86.8354 61.4062C86.4715 60.9922 86.3519 60.6411 86.3525 60.0943C86.3524 59.9943 86.3522 59.8942 86.3521 59.7911C86.3525 59.6817 86.3529 59.5723 86.3533 59.4595C86.3533 59.344 86.3533 59.2285 86.3533 59.1095C86.3534 58.7272 86.3543 58.3448 86.3552 57.9625C86.3554 57.6976 86.3556 57.4328 86.3557 57.1679C86.3561 56.4703 86.3573 55.7727 86.3586 55.0751C86.3598 54.3635 86.3603 53.6518 86.3609 52.9401C86.3622 51.5434 86.3642 50.1467 86.3666 48.75Z" fill="white"/>
<path d="M62.9292 54.4922C63.6857 54.5762 64.3052 54.6757 65.0093 54.917C65.1464 54.9637 65.1464 54.9637 65.2863 55.0114C66.6913 55.5071 67.866 56.256 69.0229 57.1875C69.113 57.2567 69.203 57.3259 69.2958 57.3972C71.1153 58.8829 72.454 61.2475 73.0073 63.5156C73.0653 64.0957 73.0653 64.0957 73.1245 64.6875C69.7601 64.6875 66.3956 64.6875 62.9292 64.6875C62.9292 61.323 62.9292 57.9586 62.9292 54.4922Z" fill="white"/>
<defs>
<linearGradient id="paint0_linear_5946_2522" x1="126" y1="-4.49999" x2="18" y2="140.25" gradientUnits="userSpaceOnUse">
<stop stop-color="#FF9900"/>
<stop offset="1" stop-color="#AC5100"/>
</linearGradient>
</defs>
</svg>
