<svg width="75" height="75" viewBox="0 0 75 75" fill="none" xmlns="http://www.w3.org/2000/svg">
<path d="M28.8184 44.6666C29.195 44.7699 29.5717 44.8731 29.9485 44.976C30.7344 45.1912 31.5198 45.4081 32.3049 45.6262C33.2077 45.877 34.1111 46.1253 35.0149 46.3723C35.8913 46.6118 36.7674 46.8527 37.6433 47.0943C38.013 47.1962 38.3828 47.2978 38.7527 47.3991C39.2705 47.5412 39.7879 47.6849 40.3053 47.829C40.4555 47.87 40.6058 47.911 40.7606 47.9532C42.8577 48.5423 44.8481 49.3058 45.996 51.2699C46.4069 52.1048 46.7507 52.8208 46.7284 53.7601C49.3845 52.3172 52.0147 50.8315 54.6225 49.3032C55.8791 48.5669 57.141 47.8398 58.4037 47.1139C59.0019 46.7699 59.5984 46.4232 60.1935 46.0737C60.3302 45.994 60.4669 45.9143 60.6077 45.8323C60.8593 45.6856 61.1103 45.538 61.3606 45.3892C63.1671 44.3416 64.9026 43.8658 66.9799 44.3942C68.545 44.9542 69.7266 45.9057 70.4995 47.3783C71.2262 48.9532 71.3322 50.7836 70.761 52.4326C69.9067 54.3301 68.3856 55.2602 66.6503 56.2503C66.5251 56.3219 66.4 56.3934 66.271 56.4671C65.5714 56.8657 64.8699 57.2608 64.1675 57.6545C63.2898 58.1477 62.4195 58.653 61.5508 59.1617C59.8506 60.1569 58.1448 61.1423 56.4377 62.1256C55.6425 62.5838 54.8476 63.0426 54.0526 63.5013C53.7352 63.6844 53.4179 63.8675 53.1005 64.0506C52.9434 64.1413 52.7863 64.2319 52.6244 64.3253C52.1483 64.5999 51.6722 64.8746 51.1962 65.1492C50.9603 65.2853 50.9603 65.2853 50.7197 65.4241C50.4036 65.6065 50.0874 65.7889 49.7712 65.9713C48.7927 66.5357 47.8145 67.1007 46.8366 67.6662C46.3559 67.9438 45.8747 68.2206 45.3934 68.4972C44.873 68.7964 44.3544 69.0982 43.8382 69.4047C42.3514 70.2797 40.8531 70.9329 39.1112 71.0452C38.9985 71.0528 38.8857 71.0604 38.7696 71.0681C35.9895 71.1682 33.1105 70.1872 30.4167 69.5656C29.538 69.3629 28.6591 69.1608 27.7801 68.9594C27.476 68.8896 27.172 68.8193 26.868 68.7489C26.6826 68.7063 26.4971 68.6637 26.3061 68.6199C26.1441 68.5825 25.9821 68.5451 25.8153 68.5066C23.5143 68.0301 21.4125 68.331 19.3701 69.498C19.0247 69.7396 18.7451 70.0061 18.4569 70.3128C18.5053 70.4578 18.5536 70.6029 18.6034 70.7523C18.7101 71.753 18.6428 72.4408 18.0175 73.2425C17.1088 73.8734 16.1137 74.1072 15.0511 74.3778C14.8806 74.424 14.7101 74.4703 14.5344 74.518C13.3922 74.8134 12.1306 75.1388 10.9954 74.6799C10.1488 73.9359 9.90902 73.1694 9.62039 72.111C9.57662 71.9557 9.53286 71.8004 9.48776 71.6404C9.3503 71.1496 9.21569 70.6581 9.08191 70.1663C9.04043 70.0146 8.99895 69.8629 8.95621 69.7066C8.65999 68.6203 8.3712 67.5321 8.08341 66.4436C7.99178 66.0983 7.90011 65.7531 7.8084 65.4079C7.56973 64.5091 7.33155 63.6101 7.0935 62.7112C6.71238 61.2723 6.33044 59.8336 5.9486 58.3949C5.81721 57.8996 5.686 57.4043 5.55482 56.9089C5.51355 56.7533 5.47228 56.5977 5.42976 56.4373C5.34898 56.1325 5.26843 55.8276 5.18811 55.5226C4.99252 54.7829 4.79105 54.0456 4.57759 53.3107C4.53653 53.1673 4.49547 53.0238 4.45317 52.876C4.37644 52.609 4.29807 52.3426 4.2176 52.0767C3.91344 51.0115 3.70126 49.8729 4.2113 48.8529C4.7774 48.2239 5.24948 47.9782 6.06696 47.7531C6.25079 47.7023 6.43461 47.6515 6.624 47.5992C6.71956 47.5735 6.81512 47.5479 6.91358 47.5214C7.20208 47.4438 7.48982 47.3637 7.77757 47.2833C10.2597 46.606 10.2597 46.606 11.2426 46.8845C11.82 47.2287 12.0782 47.488 12.4511 48.0472C12.5701 48.5416 12.5701 48.5416 12.5975 48.9261C13.4081 48.5118 14.0645 47.9888 14.7628 47.4075C19.4564 43.5346 23.0599 43.0618 28.8184 44.6666ZM16.755 49.0895C16.1829 49.5422 15.6035 49.985 15.0237 50.4276C14.9189 50.5079 14.814 50.5883 14.706 50.6711C14.6086 50.7456 14.5112 50.82 14.4109 50.8968C14.3256 50.962 14.2404 51.0272 14.1525 51.0943C13.9323 51.2577 13.7046 51.4107 13.4764 51.5628C13.5657 52.42 13.7296 53.2216 13.9553 54.0524C13.9889 54.1785 14.0225 54.3047 14.0571 54.4347C14.1676 54.8488 14.2792 55.2626 14.3908 55.6764C14.4685 55.9664 14.546 56.2565 14.6235 56.5465C14.8273 57.3088 15.0321 58.0707 15.2371 58.8327C15.4444 59.6041 15.6509 60.3758 15.8574 61.1475C16.7112 64.3403 16.7112 64.3403 17.578 67.5296C17.7391 67.4501 17.9001 67.3706 18.0661 67.2887C19.2467 66.7142 20.3832 66.1771 21.6796 65.9183C21.8457 65.8851 22.0119 65.8518 22.1831 65.8176C25.3481 65.54 28.4846 66.5451 31.5459 67.2515C32.4247 67.4542 33.3035 67.6563 34.1826 67.8576C34.4867 67.9274 34.7907 67.9978 35.0946 68.0682C35.2801 68.1108 35.4655 68.1533 35.6566 68.1972C35.8186 68.2346 35.9805 68.2719 36.1474 68.3105C38.9208 68.8848 40.9685 68.1791 43.3593 66.7972C43.4558 66.7415 43.5524 66.6857 43.6519 66.6283C44.1513 66.3385 44.6483 66.0448 45.1445 65.7495C45.9824 65.2518 46.8269 64.7658 47.6714 64.2795C47.8335 64.1861 47.9956 64.0927 48.1626 63.9965C48.4953 63.8048 48.828 63.6132 49.1608 63.4215C49.9616 62.9603 50.762 62.4983 51.5624 62.0365C51.8798 61.8533 52.1971 61.6702 52.5145 61.4871C52.6716 61.3965 52.8287 61.3059 52.9906 61.2125C58.2274 58.1912 58.2274 58.1912 58.7039 57.9164C59.02 57.734 59.336 57.5516 59.6521 57.3692C60.4653 56.8999 61.2787 56.4311 62.0927 55.9631C64.1437 54.7844 64.1437 54.7844 66.1834 53.5861C66.3444 53.4904 66.5055 53.3947 66.6714 53.296C67.6505 52.6679 68.1835 52.087 68.5546 50.9769C68.6963 50.0261 68.6591 49.143 68.1632 48.303C67.5032 47.4354 66.6469 46.8432 65.5568 46.6722C63.8353 46.5611 62.3639 47.6947 60.9374 48.5416C60.6293 48.723 60.321 48.9041 60.0127 49.0852C59.8529 49.179 59.6932 49.2728 59.5286 49.3694C58.6834 49.8626 57.8327 50.3462 56.9823 50.8304C55.56 51.6407 54.1424 52.4587 52.7299 53.286C51.9541 53.7401 51.1767 54.1914 50.3968 54.6384C50.2685 54.7121 50.2685 54.7121 50.1376 54.7872C49.7248 55.0241 49.3118 55.2605 48.8984 55.4962C48.2122 55.8898 47.5298 56.2884 46.8623 56.7132C46.7095 56.8104 46.7095 56.8104 46.5537 56.9095C46.1498 57.2447 45.9562 57.6561 45.7265 58.1203C45.0894 59.3472 43.9545 60.1727 42.6635 60.6174C40.7641 61.1977 39.0735 60.8809 37.2069 60.3702C36.9851 60.3112 36.7633 60.2524 36.5414 60.1937C35.8346 60.0057 35.1291 59.8129 34.4237 59.6195C34.2399 59.5692 34.2399 59.5692 34.0524 59.518C29.5347 58.2828 29.5347 58.2828 28.7108 58.0081C28.6989 57.7733 28.6904 57.5382 28.6833 57.3032C28.6783 57.1723 28.6732 57.0415 28.6679 56.9066C28.7108 56.5433 28.7108 56.5433 28.8773 56.2852C29.3814 55.9502 29.8887 55.9334 30.4747 56.0333C30.6319 56.0774 30.7891 56.1215 30.951 56.167C31.1304 56.2164 31.3098 56.2658 31.4947 56.3167C31.6884 56.372 31.8822 56.4273 32.076 56.4826C32.2765 56.5385 32.4771 56.5942 32.6778 56.6497C33.2046 56.7959 33.7308 56.9443 34.2569 57.0931C34.8956 57.2734 35.5349 57.4514 36.1742 57.6295C36.6717 57.7682 37.169 57.9073 37.6661 58.0476C37.845 58.0979 38.0239 58.1482 38.2083 58.2C38.3654 58.2444 38.5224 58.2888 38.6843 58.3344C39.9563 58.6715 41.1362 58.7742 42.3339 58.1546C43.3829 57.4223 44.1026 56.6374 44.3846 55.3714C44.5396 54.29 44.3244 53.276 43.6963 52.3794C42.5061 50.9507 40.9489 50.6158 39.2256 50.1569C38.9902 50.0932 38.7547 50.0294 38.5193 49.9655C37.8936 49.7959 37.2676 49.6278 36.6414 49.4601C35.9964 49.2871 35.3517 49.113 34.7069 48.9388C34.4504 48.8696 34.1938 48.8003 33.9372 48.731C33.811 48.6969 33.6848 48.6629 33.5549 48.6278C33.1752 48.5253 32.7955 48.423 32.4157 48.3208C31.055 47.9542 29.696 47.5824 28.34 47.1986C28.2024 47.1598 28.0647 47.121 27.9228 47.0811C26.928 46.8007 26.928 46.8007 26.4667 46.6669C22.3348 45.469 19.9874 46.5147 16.755 49.0895ZM8.90567 49.5578C8.76216 49.5975 8.61865 49.6371 8.4708 49.678C8.2476 49.7409 8.2476 49.7409 8.0199 49.805C7.86884 49.8469 7.71777 49.8889 7.56213 49.932C7.18963 50.0355 6.81737 50.1398 6.44519 50.2445C6.85866 52.0517 7.316 53.8445 7.79559 55.6352C7.86939 55.9118 7.94317 56.1884 8.01691 56.4649C8.17132 57.0437 8.32597 57.6225 8.48081 58.2011C8.6735 58.9213 8.86573 59.6415 9.05779 60.3619C10.1257 64.3664 11.2099 68.3663 12.3046 72.3636C12.5358 72.318 12.7671 72.2722 12.9983 72.2263C13.1271 72.2008 13.2559 72.1753 13.3886 72.149C13.9142 72.0408 14.4311 71.9129 14.9504 71.7777C15.0474 71.7535 15.1444 71.7293 15.2443 71.7044C15.4877 71.6405 15.7277 71.5636 15.9667 71.4847C16.213 70.9921 15.9526 70.4843 15.8127 69.975C15.7788 69.8485 15.745 69.722 15.7101 69.5916C15.5965 69.1684 15.4815 68.7455 15.3664 68.3227C15.2862 68.025 15.2061 67.7272 15.1261 67.4294C14.9116 66.6321 14.6958 65.8352 14.4798 65.0383C14.2585 64.2211 14.0383 63.4036 13.8181 62.5861C13.472 61.3017 13.1252 60.0174 12.7779 58.7333C12.3822 57.2706 11.9878 55.8076 11.5945 54.3443C11.545 54.1603 11.4955 53.9763 11.4446 53.7868C11.3529 53.4457 11.2612 53.1046 11.1695 52.7635C10.8649 51.6307 10.5593 50.4981 10.2538 49.3656C9.73441 49.3656 9.39704 49.4207 8.90567 49.5578Z" fill="#F2994A"/>
<path d="M53.0013 12.8253C56.0937 15.4423 57.9669 19.0448 58.4063 23.0666C58.7521 27.4087 57.3716 31.3273 54.6063 34.6709C52.1295 37.5365 48.5732 39.2793 44.8244 39.6972C40.3953 39.9311 36.3746 38.7985 33.0077 35.8187C30.2806 33.344 28.3291 29.8241 28.0993 26.0926C28.0067 21.5827 28.8822 17.5996 32.0579 14.2374C37.6808 8.44568 46.6626 7.67098 53.0013 12.8253ZM33.6916 16.1132C31.1982 18.9845 30.3963 22.5036 30.6154 26.2206C30.9639 29.4155 32.7502 32.3816 35.2022 34.4111C38.0445 36.602 41.4514 37.5731 45.0239 37.1677C48.2945 36.673 51.3318 34.9121 53.3579 32.2807C55.4676 29.3615 56.3326 25.9334 55.7736 22.3788C55.2859 19.9122 54.2647 17.8549 52.5881 15.9667C52.4999 15.8664 52.4117 15.7662 52.3209 15.6628C50.2003 13.4 47.0719 12.003 43.9833 11.8354C39.9438 11.7581 36.4919 13.1863 33.6916 16.1132Z" fill="#F2994A"/>
<path d="M50.3172 15.5273C50.5396 15.7196 50.7595 15.9147 50.9764 16.1132C51.0763 16.1997 51.1762 16.2862 51.2791 16.3753C53.3596 18.2889 54.5268 21.1166 54.6803 23.9072C54.7839 27.1274 53.7674 29.9583 51.6258 32.3541C49.5201 34.5616 46.8086 35.8575 43.7546 35.9476C40.6009 35.9839 37.8098 35.1127 35.449 32.9589C35.3154 32.8453 35.3154 32.8453 35.179 32.7295C33.0394 30.7893 31.9429 27.7931 31.7979 24.975C31.6942 21.7654 32.8591 18.906 35.0096 16.5527C39.0105 12.3758 45.776 11.9998 50.3172 15.5273ZM36.7674 18.457C36.6722 18.5504 36.5771 18.6439 36.479 18.7402C34.8432 20.4657 34.2796 22.7317 34.2772 25.0488C34.4077 26.9758 35.1422 28.669 36.328 30.1757C36.4186 30.2967 36.5092 30.4178 36.6026 30.5425C37.9082 32.0761 40.0761 33.2378 42.0826 33.4305C44.9069 33.5688 47.1492 32.9695 49.3376 31.0912C51.0992 29.4133 52.1183 27.0962 52.2032 24.6734C52.1582 22.2169 51.278 19.9791 49.5659 18.1949C47.5687 16.3326 45.2426 15.5616 42.565 15.628C40.2453 15.7441 38.3746 16.8525 36.7674 18.457Z" fill="#F2994A"/>
<path d="M51.5123 4.42581C51.701 4.50745 51.8887 4.5917 52.0753 4.67815C52.2272 4.74705 52.2272 4.74705 52.3822 4.81734C57.4616 7.18084 61.5422 11.4746 63.5246 16.7242C63.5907 16.9109 63.6561 17.0978 63.7208 17.285C63.7706 17.429 63.7706 17.429 63.8215 17.5759C65.7375 23.2598 65.0823 29.2036 62.5489 34.5701C62.6351 34.5469 62.7212 34.5237 62.8099 34.4997C63.2794 34.3898 63.6799 34.3807 64.1603 34.4236C64.6448 34.8061 64.8659 35.1013 64.9476 35.7145C64.8902 36.2028 64.7977 36.3981 64.4431 36.7319C63.7797 37.1587 62.968 37.2895 62.2102 37.4723C61.9469 37.5407 61.9469 37.5407 61.6783 37.6105C59.4292 38.1743 59.4292 38.1743 58.6826 37.731C58.3379 37.1775 58.2787 36.6387 58.2002 35.9983C58.1746 35.8042 58.1746 35.8042 58.1484 35.6061C58.0983 35.2122 58.0528 34.8181 58.0079 34.4236C57.9933 34.3067 57.9786 34.1897 57.9635 34.0692C57.9246 33.7512 57.8918 33.4333 57.8614 33.1144C57.8433 32.9318 57.8252 32.7492 57.8065 32.5611C57.8614 32.0799 57.8614 32.0799 58.1956 31.6547C58.5939 31.3475 58.5939 31.3475 59.1066 31.2559C59.7488 31.3706 59.957 31.5691 60.3517 32.0799C60.4444 32.398 60.4444 32.398 60.4982 32.6658C61.0527 31.4252 61.4758 30.198 61.7891 28.8755C61.8193 28.7486 61.8496 28.6217 61.8807 28.4909C62.9319 23.8724 62.0657 18.7426 59.5762 14.7082C58.9686 13.76 58.2989 12.8685 57.5685 12.0115C57.4714 11.8931 57.3744 11.7747 57.2744 11.6527C55.5026 9.57041 53.1437 8.0752 50.6449 7.01292C50.0068 6.73129 49.5889 6.47913 49.2189 5.85918C49.1577 5.44202 49.2325 5.08586 49.3654 4.6873C49.9207 4.00386 50.7514 4.17299 51.5123 4.42581Z" fill="#F2994A"/>
<path d="M27.1179 32.2627C27.2907 32.3328 27.4635 32.4028 27.6415 32.475C27.8905 32.5795 27.8905 32.5795 28.1445 32.6862C28.2954 32.7489 28.4462 32.8116 28.6017 32.8763C29.0618 33.138 29.298 33.3986 29.5898 33.8374C29.6722 34.2769 29.6722 34.2769 29.5898 34.7163C29.2969 35.1375 29.2969 35.1375 28.8574 35.4488C28.4462 35.5088 28.1045 35.4843 27.6855 35.4488C30.1257 39.466 34.4323 41.9639 38.8865 43.125C41.9545 43.8478 45.3069 43.7697 48.3398 42.9195C48.438 42.8928 48.5361 42.8662 48.6372 42.8387C50.9275 42.1998 53.0673 41.0608 54.9437 39.607C55.3405 39.3 55.6233 39.1182 56.1218 39.0285C56.6673 39.1352 56.9037 39.2826 57.2754 39.6968C57.4585 40.1729 57.4585 40.1729 57.4219 40.7222C56.796 41.8971 55.4575 42.5632 54.3457 43.2124C54.2588 43.2638 54.1718 43.3152 54.0823 43.3682C49.5749 46.003 43.656 47.0389 38.5385 45.7836C33.1282 44.3536 28.0959 41.3001 25.0488 36.4741C25.0488 36.3775 25.0488 36.2808 25.0488 36.1812C24.9521 36.1812 24.8555 36.1812 24.7559 36.1812C24.7377 36.4168 24.7377 36.4168 24.7192 36.6573C24.5989 37.2587 24.5187 37.4445 24.0234 37.7925C23.497 37.9605 23.2518 37.9853 22.7417 37.765C22.3833 37.4763 22.2388 37.3562 22.1191 36.9136C22.1985 35.867 22.4708 34.8828 22.7509 33.8741C22.7942 33.7096 22.8375 33.5451 22.8822 33.3757C22.9259 33.2176 22.9696 33.0596 23.0146 32.8967C23.0731 32.6824 23.0731 32.6824 23.1327 32.4637C23.314 32.0239 23.5122 31.7957 23.877 31.4937C24.968 31.13 26.1213 31.8428 27.1179 32.2627Z" fill="#F2994A"/>
<path d="M42.9687 0.0378051C43.771 0.26057 44.3302 0.94169 44.8903 1.52944C45.1171 1.76654 45.3491 1.99721 45.5825 2.2277C46.8297 3.49565 46.8297 3.49565 46.8751 4.54084C46.5882 5.3426 45.8192 5.80216 45.1631 6.29865C45.0491 6.38702 44.9352 6.4754 44.8177 6.56644C42.8872 8.0478 42.8872 8.0478 42.0777 8.07478C41.5015 7.8753 41.3109 7.7088 41.0157 7.17756C40.9333 6.73811 40.9333 6.73811 41.0157 6.29865C41.2527 6.0475 41.4964 5.80247 41.7482 5.56623C38.9631 5.79471 36.4214 6.54618 33.9845 7.90998C33.8266 7.99458 33.6688 8.07917 33.5061 8.16633C29.3379 10.4749 26.2895 14.6117 24.9288 19.1366C24.2873 21.4231 24.0124 23.798 24.2433 26.1656C24.4238 28.0522 24.4238 28.0522 24.0968 28.7199C23.6832 29.0405 23.3862 29.0907 22.866 29.101C22.3607 28.941 22.1477 28.6887 21.8263 28.2713C21.6978 27.8353 21.6636 27.4053 21.634 26.9529C21.6187 26.7662 21.6187 26.7662 21.603 26.5756C21.1525 20.7122 22.8699 14.9448 26.7119 10.462C30.8267 5.73601 36.1723 3.41711 42.3341 2.78303C42.2717 2.72659 42.2093 2.67016 42.1451 2.61201C42.0239 2.49783 42.0239 2.49783 41.9004 2.38134C41.7796 2.2695 41.7796 2.2695 41.6564 2.15539C41.4156 1.85463 41.3788 1.6819 41.3636 1.29987C41.4552 0.732247 41.4552 0.732247 41.6658 0.366036C42.102 0.110651 42.4631 0.0285291 42.9687 0.0378051Z" fill="#F2994A"/>
<path d="M43.7989 17.5782C44.2743 17.8951 44.3661 18.0827 44.4947 18.6402C44.5068 18.7732 44.5189 18.9061 44.5314 19.0431C44.6522 19.0703 44.7731 19.0974 44.8976 19.1255C45.5881 19.4091 46.0974 19.7928 46.5821 20.3614C46.7744 20.9484 46.7901 21.2241 46.573 21.7988C46.2051 22.2141 45.9553 22.316 45.4103 22.4122C44.8286 22.2867 44.4808 22.127 44.0919 21.6798C43.7316 21.4996 43.5378 21.5311 43.1398 21.5699C43.0234 21.5797 42.9071 21.5896 42.7873 21.5997C42.4247 21.6581 42.4247 21.6581 42.1876 22.1192C42.2351 22.6059 42.2766 22.7942 42.6271 23.1446C42.9492 23.1941 43.2731 23.232 43.5975 23.2636C44.8548 23.432 45.5666 23.7712 46.3533 24.7651C46.9691 25.6126 46.9718 26.5195 46.8751 27.5392C46.62 28.5259 46.1048 29.1739 45.2638 29.7364C45.1612 29.7804 45.0587 29.8244 44.9531 29.8697C44.5998 30.0747 44.5617 30.2294 44.449 30.6153C44.2983 31.1245 44.2731 31.1781 43.7989 31.4942C42.7768 31.5916 42.7768 31.5916 42.2608 31.2562C41.9855 30.8203 41.9951 30.5357 42.0411 30.0294C41.9444 30.0233 41.8478 30.0173 41.7482 30.0111C40.9492 29.7781 40.3021 29.252 39.8439 28.5645C39.7475 27.5532 39.7475 27.5532 40.0636 27.0265C40.5763 26.7189 41.0286 26.6764 41.6017 26.8067C41.8783 26.9775 42.1209 27.1709 42.3741 27.3744C42.8031 27.6539 43.1616 27.6133 43.6524 27.5392C44.0041 27.3401 44.0041 27.3401 44.2384 27.0997C44.2009 26.7565 44.1516 26.4144 44.0919 26.0743C43.7317 25.8942 43.4687 25.9072 43.0665 25.8912C42.0475 25.8017 41.1794 25.5084 40.4464 24.7708C39.8038 23.9587 39.4793 23.1841 39.5154 22.1295C39.644 21.0302 40.2055 20.2172 41.0157 19.4825C41.1759 19.407 41.336 19.3315 41.501 19.2536C41.9503 19.071 41.9503 19.071 42.0686 18.5304C42.1079 18.3612 42.1471 18.192 42.1876 18.0177C42.5373 17.4153 43.173 17.4659 43.7989 17.5782Z" fill="#F2994A"/>
</svg>
