<svg width="24" height="24" viewBox="0 0 24 24" fill="none" xmlns="http://www.w3.org/2000/svg">
<path d="M6.57246 3.71357C6.4599 3.71357 6.34845 3.73574 6.24446 3.77881C6.14047 3.82188 6.04598 3.88502 5.96639 3.96461C5.8868 4.0442 5.82367 4.13868 5.7806 4.24267C5.73752 4.34666 5.71535 4.45811 5.71535 4.57067C5.71535 4.68323 5.73752 4.79468 5.7806 4.89867C5.82367 5.00266 5.8868 5.09714 5.96639 5.17673C6.04598 5.25632 6.14047 5.31946 6.24446 5.36253C6.34845 5.4056 6.4599 5.42777 6.57246 5.42777C6.79977 5.42777 7.01778 5.33747 7.17852 5.17673C7.33926 5.01599 7.42956 4.79799 7.42956 4.57067C7.42956 4.34335 7.33926 4.12534 7.17852 3.96461C7.01778 3.80387 6.79977 3.71357 6.57246 3.71357ZM4.00115 4.57067C4.00129 4.0993 4.131 3.63704 4.37611 3.23441C4.62121 2.83177 4.97228 2.50426 5.39094 2.28767C5.8096 2.07107 6.27975 1.97373 6.74999 2.00627C7.22024 2.03882 7.67249 2.2 8.05732 2.47221C8.44215 2.74441 8.74475 3.11716 8.93205 3.54972C9.11936 3.98228 9.18415 4.458 9.11936 4.9249C9.05456 5.39179 8.86267 5.8319 8.56466 6.1971C8.26664 6.56231 7.87397 6.83858 7.42956 6.9957V11.4595C7.5286 11.3863 7.63145 11.3185 7.73812 11.2561C8.82264 10.6024 10.2123 10.4115 11.3928 10.2504L11.5974 10.2218C12.9242 10.0367 13.9995 9.85385 14.7709 9.33387C15.348 8.94304 15.8417 8.29392 15.9686 6.98427C15.3996 6.77478 14.9229 6.37094 14.6228 5.84409C14.3226 5.31723 14.2183 4.70126 14.3283 4.10497C14.4383 3.50868 14.7554 2.97044 15.2238 2.5853C15.6921 2.20017 16.2814 1.99293 16.8877 2.00018C17.494 2.00744 18.0783 2.22873 18.5373 2.62496C18.9962 3.02119 19.3004 3.56687 19.3961 4.16562C19.4917 4.76438 19.3727 5.37767 19.0601 5.89719C18.7474 6.41671 18.2612 6.80903 17.6874 7.00484C17.5434 8.80704 16.844 10.0013 15.7309 10.7532C14.5732 11.5361 13.0773 11.7475 11.8339 11.9189L11.8054 11.9235C10.4683 12.1086 9.39747 12.2572 8.6215 12.7234C8.26152 12.9406 7.97925 13.2217 7.77926 13.6171C7.57355 14.0217 7.42956 14.5953 7.42956 15.4273V17.0021C8.00175 17.2043 8.48403 17.6023 8.79115 18.1257C9.09828 18.6491 9.21047 19.2642 9.10789 19.8624C9.00532 20.4605 8.69458 21.0031 8.23061 21.3943C7.76665 21.7855 7.17932 22 6.57246 22C5.96559 22 5.37827 21.7855 4.9143 21.3943C4.45033 21.0031 4.13959 20.4605 4.03702 19.8624C3.93444 19.2642 4.04663 18.6491 4.35376 18.1257C4.66088 17.6023 5.14316 17.2043 5.71535 17.0021V6.9957C5.21391 6.81841 4.77977 6.48999 4.47277 6.05567C4.16576 5.62136 4.00099 5.10253 4.00115 4.57067ZM16.8577 3.71357C16.7451 3.71357 16.6337 3.73574 16.5297 3.77881C16.4257 3.82188 16.3312 3.88502 16.2516 3.96461C16.172 4.0442 16.1089 4.13868 16.0658 4.24267C16.0228 4.34666 16.0006 4.45811 16.0006 4.57067C16.0006 4.68323 16.0228 4.79468 16.0658 4.89867C16.1089 5.00266 16.172 5.09714 16.2516 5.17673C16.3312 5.25632 16.4257 5.31946 16.5297 5.36253C16.6337 5.4056 16.7451 5.42777 16.8577 5.42777C17.085 5.42777 17.303 5.33747 17.4637 5.17673C17.6245 5.01599 17.7148 4.79799 17.7148 4.57067C17.7148 4.34335 17.6245 4.12534 17.4637 3.96461C17.303 3.80387 17.085 3.71357 16.8577 3.71357ZM6.57246 18.57C6.34514 18.57 6.12713 18.6603 5.96639 18.821C5.80565 18.9818 5.71535 19.1998 5.71535 19.4271C5.71535 19.6544 5.80565 19.8724 5.96639 20.0332C6.12713 20.1939 6.34514 20.2842 6.57246 20.2842C6.79977 20.2842 7.01778 20.1939 7.17852 20.0332C7.33926 19.8724 7.42956 19.6544 7.42956 19.4271C7.42956 19.1998 7.33926 18.9818 7.17852 18.821C7.01778 18.6603 6.79977 18.57 6.57246 18.57Z" fill="white"/>
</svg>
