<svg width="24" height="24" viewBox="0 0 24 24" fill="none" xmlns="http://www.w3.org/2000/svg">
<path d="M5.616 20C5.168 20 4.78667 19.8427 4.472 19.528C4.15733 19.2133 4 18.8323 4 18.385V5.615C4 5.16833 4.15733 4.78733 4.472 4.472C4.78667 4.15733 5.168 4 5.616 4H10.316C10.2247 3.48933 10.3467 3.02833 10.682 2.617C11.0167 2.20567 11.456 2 12 2C12.5567 2 13.0027 2.20567 13.338 2.617C13.6733 3.02833 13.789 3.48933 13.685 4H18.385C18.8317 4 19.2127 4.15733 19.528 4.472C19.8427 4.78667 20 5.168 20 5.616V11.566C19.8247 11.5053 19.6567 11.456 19.496 11.418C19.336 11.3807 19.1707 11.3433 19 11.306V5.616C19 5.462 18.936 5.32067 18.808 5.192C18.68 5.06333 18.5387 4.99933 18.384 5H5.616C5.462 5 5.32067 5.064 5.192 5.192C5.06333 5.32 4.99933 5.46133 5 5.616V18.385C5 18.5383 5.064 18.6793 5.192 18.808C5.32 18.9367 5.461 19.0007 5.615 19H11.281C11.305 19.1867 11.336 19.3603 11.374 19.521C11.412 19.681 11.461 19.8407 11.521 20H5.616ZM5 18V19V5V11.306V11.231V18ZM7.5 16.27H11.46C11.4967 16.0987 11.5467 15.933 11.61 15.773L11.81 15.269H7.5V16.27ZM7.5 12.5H14.08C14.4087 12.2693 14.7323 12.074 15.051 11.914C15.3697 11.7533 15.7117 11.6273 16.077 11.536V11.5H7.5V12.5ZM7.5 8.73H16.5V7.73H7.5V8.73ZM12 4.443C12.2167 4.443 12.396 4.37233 12.538 4.231C12.68 4.08967 12.7507 3.91033 12.75 3.693C12.7493 3.47567 12.6783 3.29667 12.537 3.156C12.3957 3.01533 12.2167 2.944 12 2.942C11.7833 2.94 11.6043 3.011 11.463 3.155C11.3217 3.299 11.2507 3.478 11.25 3.692C11.2493 3.906 11.3203 4.08533 11.463 4.23C11.6057 4.37467 11.7847 4.44633 12 4.443ZM18 22.116C16.886 22.116 15.941 21.7277 15.165 20.951C14.3883 20.175 14 19.23 14 18.116C14 17.002 14.3883 16.0567 15.165 15.28C15.9417 14.5033 16.8867 14.1153 18 14.116C19.1133 14.1167 20.0587 14.5047 20.836 15.28C21.6133 16.0553 22.0013 17.0007 22 18.116C22 19.2293 21.612 20.1743 20.836 20.951C20.0587 21.7277 19.1133 22.116 18 22.116ZM17.616 21H18.385V18.5H20.885V17.73H18.385V15.23H17.615V17.73H15.115V18.5H17.615L17.616 21Z" fill="white" stroke="white" stroke-width="0.4"/>
</svg>
