<svg width="150" height="150" viewBox="0 0 150 150" fill="none" xmlns="http://www.w3.org/2000/svg">
<path d="M0 36C0 16.1178 16.1177 0 36 0L114 0C133.882 0 150 16.1177 150 36V150H36C16.1178 150 0 133.882 0 114L0 36Z" fill="url(#paint0_linear_5946_2506)"/>
<g clip-path="url(#clip0_5946_2506)">
<path d="M60.1302 88.0262C60.4079 88.2466 60.6731 88.4747 60.9373 88.711C61.0294 88.7791 61.1215 88.8472 61.2164 88.9174C61.5456 89.1989 61.7455 89.4872 61.9885 89.8441C62.2878 90.214 62.4716 90.4327 62.9249 90.5866C63.3403 90.6293 63.7386 90.6316 64.1561 90.6196C64.3147 90.6197 64.4733 90.6204 64.6319 90.6216C65.0657 90.6233 65.499 90.617 65.9327 90.6094C66.4012 90.6026 66.8698 90.6033 67.3383 90.6032C68.1496 90.602 68.9608 90.5962 69.772 90.5874C70.9463 90.5748 72.1204 90.5706 73.2946 90.5686C75.2016 90.5654 77.1085 90.5573 79.0154 90.5453C79.1294 90.5446 79.2434 90.5439 79.361 90.5431C80.2862 90.5373 81.2115 90.5312 82.1367 90.5251C82.9454 90.5198 83.754 90.5146 84.5626 90.5095C84.7335 90.5084 84.7335 90.5084 84.9077 90.5073C86.8075 90.4955 88.7073 90.4887 90.6071 90.4856C91.7782 90.4834 92.9491 90.4767 94.1201 90.464C94.9226 90.4556 95.7251 90.4517 96.5276 90.4515C96.9904 90.4512 97.453 90.4487 97.9158 90.4406C98.34 90.4332 98.7638 90.4318 99.1881 90.435C99.4131 90.4352 99.6381 90.429 99.863 90.4225C100.482 90.4325 100.865 90.4646 101.356 90.8612C101.656 91.1869 101.924 91.5197 102.187 91.875C102.357 92.0832 102.528 92.2908 102.7 92.4976C102.785 92.6024 102.869 92.7073 102.956 92.8153C103.353 93.2994 103.761 93.7727 104.171 94.2457C104.283 94.3753 104.394 94.5054 104.504 94.6362C104.621 94.7727 104.742 94.905 104.865 95.0359C105.073 95.4036 105.049 95.6797 105 96.0938C104.818 96.3982 104.818 96.3982 104.56 96.6871C104.464 96.7972 104.368 96.9073 104.269 97.0208C104.191 97.1083 104.191 97.1083 104.111 97.1975C103.877 97.4594 103.649 97.7264 103.421 97.9933C103.302 98.1332 103.182 98.2729 103.062 98.4123C102.601 98.9474 102.153 99.4916 101.711 100.042C101.119 100.747 101.119 100.747 100.664 100.898C100.452 100.909 100.239 100.912 100.027 100.911C99.8934 100.911 99.7602 100.911 99.6229 100.911C99.4759 100.911 99.329 100.91 99.1775 100.909C99.0203 100.909 98.8631 100.909 98.7059 100.908C98.3634 100.908 98.021 100.907 97.6786 100.906C97.1214 100.904 96.5643 100.903 96.0071 100.902C95.4073 100.901 94.8074 100.9 94.2075 100.898C92.7197 100.895 91.232 100.893 89.7442 100.893C89.6367 100.893 89.5291 100.893 89.4183 100.893C88.5326 100.893 87.6468 100.893 86.7611 100.893C85.963 100.893 85.1648 100.893 84.3667 100.893C84.2529 100.893 84.1391 100.893 84.0218 100.893C82.178 100.892 80.3342 100.888 78.4903 100.883C76.5977 100.877 74.7051 100.876 72.8125 100.879C71.6449 100.88 70.4774 100.878 69.3099 100.872C68.5095 100.868 67.7093 100.868 66.9089 100.872C66.4471 100.874 65.9855 100.874 65.5237 100.868C65.1006 100.864 64.6779 100.865 64.2548 100.87C64.0299 100.871 63.8049 100.867 63.58 100.862C62.8057 100.876 62.8057 100.876 62.1665 101.275C61.9299 101.57 61.7252 101.869 61.5232 102.188C59.9517 103.878 57.5992 104.955 55.2962 105.039C52.276 105.081 49.8171 104.309 47.5632 102.231C45.7484 100.335 44.9359 97.8232 44.9755 95.2419C45.0433 93.1794 45.8178 91.3517 47.1091 89.7657C47.1626 89.6932 47.2161 89.6206 47.2712 89.5459C50.2253 85.725 56.3318 85.3954 60.1302 88.0262ZM51.9871 92.0142C51.4499 92.7111 51.2726 93.4701 51.3279 94.336C51.7919 94.336 52.256 94.336 52.7341 94.336C52.7801 94.133 52.826 93.9299 52.8733 93.7207C52.9869 93.3157 53.0693 93.0683 53.3274 92.732C53.8352 92.5051 54.2964 92.5018 54.8435 92.5782C55.3724 92.8156 55.3724 92.8156 55.5466 93.1641C55.5704 93.4053 55.5704 93.4053 55.5759 93.6841C55.5805 93.8217 55.5805 93.8217 55.5851 93.962C55.5372 94.2817 55.4491 94.3763 55.1951 94.5704C54.8245 94.6939 54.5072 94.7242 54.1184 94.7535C53.9274 94.7682 53.9274 94.7682 53.7325 94.7832C53.6351 94.7903 53.5377 94.7974 53.4373 94.8047C53.4373 95.2301 53.4373 95.6555 53.4373 96.0938C53.5391 96.0982 53.6409 96.1026 53.7458 96.1071C55.1693 96.1883 55.1693 96.1883 55.6638 96.5625C56.0075 97.0705 55.8874 97.6292 55.781 98.2032C55.6638 98.5547 55.6638 98.5547 55.4116 98.6921C55.0302 98.803 54.7058 98.8202 54.3088 98.8184C54.1128 98.8193 54.1128 98.8193 53.9129 98.8202C53.564 98.7899 53.3707 98.7534 53.0857 98.5547C52.813 98.0296 52.7158 97.6245 52.6169 97.0313C52.1142 97.0313 51.6115 97.0313 51.0935 97.0313C51.0198 97.8605 51.212 98.7116 51.7472 99.3673C52.5806 100.12 53.5108 100.311 54.6091 100.313C55.5556 100.231 56.2659 99.8277 56.9309 99.1626C57.43 98.4353 57.6226 97.7942 57.5388 96.9141C57.3119 96.2447 56.9801 95.7695 56.4841 95.2735C56.5566 95.1865 56.6292 95.0995 56.7039 95.0098C57.2483 94.3052 57.2966 93.6914 57.1873 92.8125C56.9371 92.147 56.5258 91.7393 55.8982 91.4063C54.5869 90.8893 52.9943 90.9605 51.9871 92.0142Z" fill="white"/>
<path d="M61.0381 68.1025C61.82 68.8061 61.82 68.8061 61.9893 69.1143C62.125 69.3614 62.2509 69.5373 62.461 69.7265C62.8836 69.8486 63.2957 69.8341 63.7331 69.8257C63.8629 69.8265 63.9927 69.8272 64.1264 69.828C64.5622 69.8296 64.9977 69.8253 65.4334 69.8211C65.7455 69.8211 66.0575 69.8214 66.3695 69.8221C67.0418 69.823 67.7141 69.821 68.3864 69.8171C69.3591 69.8114 70.3317 69.8109 71.3045 69.8116C72.8834 69.8128 74.4624 69.8108 76.0414 69.8063C76.1359 69.806 76.2304 69.8058 76.3277 69.8055C76.7106 69.8044 77.0934 69.8033 77.4763 69.8022C78.5303 69.7992 79.5843 69.7967 80.6384 69.7945C80.7327 69.7943 80.8271 69.7941 80.9243 69.7939C82.4974 69.7907 84.0705 69.7898 85.6436 69.7904C86.6139 69.7907 87.5843 69.7887 88.5546 69.7838C89.2193 69.7806 89.884 69.7795 90.5487 69.7799C90.9323 69.7801 91.3159 69.7789 91.6995 69.7759C92.1153 69.7727 92.5309 69.7731 92.9466 69.7743C93.1288 69.7716 93.1288 69.7716 93.3147 69.7689C94.1334 69.7767 94.1334 69.7767 94.574 70.1227C94.6501 70.224 94.7263 70.3253 94.8047 70.4297C94.896 70.5266 94.9872 70.6236 95.0812 70.7236C95.6592 71.3563 96.2174 71.9988 96.752 72.6686C96.9576 72.9182 97.1652 73.1569 97.3837 73.3946C97.4432 73.4606 97.5027 73.5267 97.5639 73.5947C97.6793 73.7224 97.7965 73.8485 97.9156 73.9727C98.204 74.2958 98.3646 74.5659 98.3991 74.9936C98.3589 75.579 98.0322 75.904 97.6392 76.311C97.4985 76.4646 97.358 76.6182 97.2176 76.772C97.1467 76.8481 97.0758 76.9242 97.0028 77.0026C96.6994 77.3325 96.4109 77.6741 96.1231 78.0176C96.0711 78.079 96.0191 78.1405 95.9655 78.2038C95.5222 78.7287 95.0903 79.2625 94.6614 79.7992C94.4531 80.039 94.4531 80.039 94.2188 80.1562C94.045 80.1667 93.8707 80.1698 93.6966 80.1692C93.5308 80.1691 93.5308 80.1691 93.3617 80.169C93.2394 80.1683 93.1172 80.1676 92.9912 80.1669C92.7974 80.1665 92.7974 80.1665 92.5997 80.1661C92.1637 80.1652 91.7277 80.1634 91.2918 80.1617C90.9804 80.1609 90.669 80.1602 90.3576 80.1595C89.8592 80.1584 89.3609 80.1573 88.8625 80.1559C87.6262 80.1525 86.3898 80.1512 85.1535 80.1511C85.0195 80.1511 85.0195 80.1511 84.8827 80.151C84.1466 80.151 83.4105 80.1509 82.6745 80.151C82.011 80.151 81.3476 80.1509 80.6842 80.1508C80.5423 80.1507 80.5423 80.1507 80.3975 80.1507C78.8655 80.1502 77.3335 80.1459 75.8015 80.1403C74.2289 80.1347 72.6562 80.1335 71.0835 80.1364C70.1134 80.138 69.1434 80.1361 68.1734 80.1297C67.5081 80.1256 66.843 80.1258 66.1778 80.1294C65.794 80.1313 65.4106 80.1307 65.0268 80.1262C64.6103 80.1217 64.1943 80.1244 63.7778 80.1288C63.6571 80.1258 63.5364 80.1228 63.4121 80.1196C62.8802 80.1323 62.5803 80.1624 62.1818 80.533C61.9448 80.8283 61.7331 81.1303 61.5235 81.4453C59.7661 83.3092 57.4087 84.2072 54.895 84.4084C52.3284 84.4755 49.8285 83.5927 47.9581 81.8179C47.8714 81.7336 47.7847 81.6493 47.6953 81.5625C47.6207 81.4951 47.5461 81.4277 47.4692 81.3583C45.9348 79.9331 45.0712 77.7274 44.9547 75.6614C44.8759 73.1699 45.5113 70.7825 47.2266 68.9062C47.3204 68.8017 47.4142 68.6972 47.5109 68.5895C51.1261 64.7597 57.1591 64.6853 61.0381 68.1025ZM51.7969 71.4844C51.3267 72.2149 51.1943 72.8452 51.211 73.7109C51.675 73.7109 52.1391 73.7109 52.6172 73.7109C52.6456 73.605 52.674 73.4991 52.7033 73.39C52.7425 73.2518 52.7818 73.1136 52.8223 72.9712C52.8604 72.8339 52.8984 72.6965 52.9376 72.5551C53.0955 72.1638 53.1895 72.0342 53.5547 71.8359C54.2529 71.673 54.801 71.6984 55.4297 72.0703C55.7787 72.5938 55.749 73.0974 55.6641 73.7109C55.1618 74.44 54.2053 74.8967 53.4448 75.3296C52.2744 76.0315 51.4584 76.8405 51.021 78.1471C50.9588 78.4992 50.9766 78.8612 50.9766 79.2187C53.0649 79.2187 55.1531 79.2187 57.3047 79.2187C57.3047 78.7547 57.3047 78.2906 57.3047 77.8125C55.8352 77.7738 54.3656 77.7351 52.8516 77.6953C53.6245 76.9224 54.4687 76.3701 55.4004 75.8056C56.6348 75.062 56.6348 75.062 57.3047 73.8281C57.4143 72.9338 57.4015 72.102 56.836 71.3672C56.1619 70.6458 55.3734 70.3484 54.4116 70.2832C53.3451 70.3053 52.4949 70.6719 51.7969 71.4844Z" fill="white"/>
<path d="M57.7734 45.4688C57.8937 45.5099 58.0139 45.5509 58.1378 45.5933C59.5829 46.1324 61.4913 47.3344 62.2404 48.7661C62.5318 49.0546 62.7711 49.0413 63.1692 49.0463C63.3154 49.0446 63.3154 49.0446 63.4647 49.0428C63.5684 49.0435 63.6721 49.0441 63.779 49.0448C64.128 49.0463 64.4769 49.0445 64.8259 49.0428C65.0756 49.0432 65.3252 49.0439 65.5748 49.0447C66.1131 49.0461 66.6514 49.0461 67.1897 49.0449C68.0405 49.0431 68.8913 49.0447 69.7421 49.0468C71.3947 49.0504 73.0474 49.0506 74.7 49.0503C76.8028 49.0502 78.9056 49.0514 81.0084 49.056C81.8545 49.0578 82.7005 49.0578 83.5466 49.0563C84.0728 49.0558 84.5989 49.0567 85.125 49.0579C85.3693 49.0582 85.6136 49.0579 85.8579 49.0569C86.191 49.0557 86.524 49.0566 86.8571 49.058C86.9541 49.0571 87.0511 49.0562 87.1511 49.0553C87.6916 49.0603 88.0343 49.1092 88.4766 49.4531C88.7151 49.7118 88.7151 49.7118 88.9526 50.0171C89.3077 50.4647 89.6674 50.9044 90.042 51.3358C90.2814 51.6116 90.5184 51.8896 90.7549 52.168C90.8789 52.3138 91.0032 52.4593 91.1279 52.6046C91.3132 52.8218 91.4955 53.0414 91.6772 53.2617C91.7343 53.3277 91.7913 53.3937 91.85 53.4617C92.1092 53.7816 92.226 53.9693 92.2302 54.386C92.0932 54.7722 91.9309 55.0031 91.6626 55.3125C91.5676 55.4237 91.4726 55.5349 91.3747 55.6494C91.268 55.7715 91.1613 55.8936 91.0547 56.0156C90.8799 56.2189 90.7055 56.4226 90.5312 56.6264C90.4114 56.7661 90.2915 56.9057 90.1713 57.0451C89.7105 57.5802 89.2628 58.1244 88.8208 58.6752C88.7459 58.7644 88.6709 58.8535 88.5938 58.9453C88.5024 59.0681 88.5024 59.0681 88.4092 59.1933C87.9966 59.5138 87.6014 59.4758 87.1006 59.467C86.9438 59.4671 86.9438 59.4671 86.7838 59.4672C86.4328 59.4668 86.0818 59.4631 85.7308 59.4595C85.4794 59.4586 85.228 59.4579 84.9766 59.4574C84.4348 59.456 83.893 59.4533 83.3512 59.4495C82.4944 59.4438 81.6376 59.4423 80.7807 59.4417C78.3441 59.4394 75.9074 59.4325 73.4708 59.4185C72.1254 59.4109 70.78 59.4074 69.4346 59.4085C68.5829 59.409 67.7315 59.4043 66.8798 59.3958C66.3496 59.3917 65.8194 59.3926 65.2891 59.3948C65.0434 59.3949 64.7978 59.3929 64.5522 59.3888C63.262 59.3212 63.262 59.3212 62.1126 59.7896C61.8747 60.0842 61.6986 60.3687 61.5234 60.7031C59.9772 62.3805 57.713 63.5126 55.4182 63.6472C52.3584 63.7521 49.8826 62.9676 47.6221 60.8624C45.832 59.0842 44.965 56.827 44.9414 54.3237C44.9666 51.8413 45.7142 49.6558 47.4989 47.8798C47.6024 47.7803 47.7059 47.6807 47.8125 47.5781C47.8979 47.4919 47.9832 47.4056 48.0711 47.3168C50.5415 44.9473 54.6085 44.2839 57.7734 45.4688ZM54.2578 49.9219C54.1756 50.108 54.0935 50.2941 54.0088 50.4859C53.8119 50.8751 53.7028 51.0706 53.3496 51.3355C52.867 51.4747 52.4151 51.5246 51.9141 51.5625C51.9141 51.9879 51.9141 52.4133 51.9141 52.8516C52.6102 52.8516 53.3062 52.8516 54.0234 52.8516C54.0234 54.8238 54.0234 56.7961 54.0234 58.8281C54.5262 58.8281 55.0289 58.8281 55.5469 58.8281C55.5469 55.8891 55.5469 52.95 55.5469 49.9219C55.1215 49.9219 54.6961 49.9219 54.2578 49.9219Z" fill="white"/>
</g>
<defs>
<linearGradient id="paint0_linear_5946_2506" x1="75" y1="150" x2="75" y2="0" gradientUnits="userSpaceOnUse">
<stop stop-color="#0538FF"/>
<stop offset="1" stop-color="#5799F7"/>
</linearGradient>
<clipPath id="clip0_5946_2506">
<rect width="60" height="60" fill="white" transform="translate(45 45)"/>
</clipPath>
</defs>
</svg>
