<svg width="32" height="32" viewBox="0 0 32 32" fill="none" xmlns="http://www.w3.org/2000/svg">
<g clip-path="url(#clip0_6012_26540)">
<path d="M19.2135 18.2171C18.3312 19.2228 17.257 20.0457 16.0478 20.6422V24.0708C16.0478 24.3739 15.9274 24.6646 15.7131 24.8789C15.4987 25.0932 15.2081 25.2137 14.905 25.2137H8.04781C7.74471 25.2137 7.45402 25.0932 7.23969 24.8789C7.02536 24.6646 6.90495 24.3739 6.90495 24.0708V20.6422C4.4966 19.4401 2.65545 17.3418 1.7766 14.7976C0.897745 12.2534 1.05123 9.46611 2.20412 7.0338C3.357 4.60149 5.41741 2.71803 7.94319 1.7876C10.469 0.857172 13.2588 0.953921 15.7141 2.05709M6.90495 30.8571H16.0478" stroke="url(#paint0_linear_6012_26540)" stroke-width="2" stroke-linecap="round" stroke-linejoin="round"/>
<path d="M16.9025 8.99194C16.1002 8.85251 16.1002 7.70051 16.9025 7.56108C18.3225 7.3127 19.6367 6.64765 20.6778 5.65049C21.7189 4.65333 22.44 3.36911 22.7494 1.96108L22.7974 1.73708C22.9711 0.943942 24.1002 0.939371 24.2808 1.73023L24.3402 1.98851C24.6595 3.39109 25.3865 4.66789 26.4297 5.65825C27.4729 6.64861 28.7858 7.30828 30.2031 7.55423C31.0099 7.69594 31.0099 8.85251 30.2031 8.99423C28.7862 9.24059 27.4738 9.90043 26.4311 10.8908C25.3883 11.8811 24.6616 13.1577 24.3425 14.5599L24.2831 14.8182C24.1025 15.6091 22.9734 15.6045 22.7996 14.8114L22.7539 14.5897C22.4442 13.181 21.7225 11.8963 20.6805 10.8991C19.6385 9.9019 18.3234 9.2395 16.9025 8.99194Z" stroke="url(#paint1_linear_6012_26540)" stroke-width="2" stroke-linecap="round" stroke-linejoin="round"/>
</g>
<defs>
<linearGradient id="paint0_linear_6012_26540" x1="1.21289" y1="16.0053" x2="19.2135" y2="16.0053" gradientUnits="userSpaceOnUse">
<stop offset="0.268512" stop-color="#6E45E2"/>
<stop offset="1" stop-color="#3477DB"/>
</linearGradient>
<linearGradient id="paint1_linear_6012_26540" x1="16.3008" y1="8.27423" x2="30.8082" y2="8.27423" gradientUnits="userSpaceOnUse">
<stop offset="0.268512" stop-color="#6E45E2"/>
<stop offset="1" stop-color="#3477DB"/>
</linearGradient>
<clipPath id="clip0_6012_26540">
<rect width="32" height="32" fill="white"/>
</clipPath>
</defs>
</svg>
