<svg width="32" height="32" viewBox="0 0 32 32" fill="none" xmlns="http://www.w3.org/2000/svg">
<path d="M3.3335 6.66663C3.3335 6.13619 3.54421 5.62749 3.91928 5.25241C4.29436 4.87734 4.80306 4.66663 5.3335 4.66663H26.6668C27.1973 4.66663 27.706 4.87734 28.081 5.25241C28.4561 5.62749 28.6668 6.13619 28.6668 6.66663C28.6668 7.19706 28.4561 7.70577 28.081 8.08084C27.706 8.45591 27.1973 8.66663 26.6668 8.66663H5.3335C4.80306 8.66663 4.29436 8.45591 3.91928 8.08084C3.54421 7.70577 3.3335 7.19706 3.3335 6.66663ZM5.3335 14C4.80306 14 4.29436 14.2107 3.91928 14.5857C3.54421 14.9608 3.3335 15.4695 3.3335 16C3.3335 16.5304 3.54421 17.0391 3.91928 17.4142C4.29436 17.7892 4.80306 18 5.3335 18H13.3335C13.8639 18 14.3726 17.7892 14.7477 17.4142C15.1228 17.0391 15.3335 16.5304 15.3335 16C15.3335 15.4695 15.1228 14.9608 14.7477 14.5857C14.3726 14.2107 13.8639 14 13.3335 14H5.3335ZM3.3335 25.3333C3.3335 24.8029 3.54421 24.2942 3.91928 23.9191C4.29436 23.544 4.80306 23.3333 5.3335 23.3333H6.66683C7.19726 23.3333 7.70597 23.544 8.08104 23.9191C8.45612 24.2942 8.66683 24.8029 8.66683 25.3333C8.66683 25.8637 8.45612 26.3724 8.08104 26.7475C7.70597 27.1226 7.19726 27.3333 6.66683 27.3333H5.3335C4.80306 27.3333 4.29436 27.1226 3.91928 26.7475C3.54421 26.3724 3.3335 25.8637 3.3335 25.3333ZM16.6668 25.3333C16.6668 24.8029 16.8775 24.2942 17.2526 23.9191C17.6277 23.544 18.1364 23.3333 18.6668 23.3333H20.0002C20.5306 23.3333 21.0393 23.544 21.4144 23.9191C21.7894 24.2942 22.0002 24.8029 22.0002 25.3333C22.0002 25.8637 21.7894 26.3724 21.4144 26.7475C21.0393 27.1226 20.5306 27.3333 20.0002 27.3333H18.6668C18.1364 27.3333 17.6277 27.1226 17.2526 26.7475C16.8775 26.3724 16.6668 25.8637 16.6668 25.3333ZM12.0002 23.3333C11.4697 23.3333 10.961 23.544 10.5859 23.9191C10.2109 24.2942 10.0002 24.8029 10.0002 25.3333C10.0002 25.8637 10.2109 26.3724 10.5859 26.7475C10.961 27.1226 11.4697 27.3333 12.0002 27.3333H13.3335C13.8639 27.3333 14.3726 27.1226 14.7477 26.7475C15.1228 26.3724 15.3335 25.8637 15.3335 25.3333C15.3335 24.8029 15.1228 24.2942 14.7477 23.9191C14.3726 23.544 13.8639 23.3333 13.3335 23.3333H12.0002ZM23.3335 25.3333C23.3335 24.8029 23.5442 24.2942 23.9193 23.9191C24.2944 23.544 24.8031 23.3333 25.3335 23.3333H26.6668C27.1973 23.3333 27.706 23.544 28.081 23.9191C28.4561 24.2942 28.6668 24.8029 28.6668 25.3333C28.6668 25.8637 28.4561 26.3724 28.081 26.7475C27.706 27.1226 27.1973 27.3333 26.6668 27.3333H25.3335C24.8031 27.3333 24.2944 27.1226 23.9193 26.7475C23.5442 26.3724 23.3335 25.8637 23.3335 25.3333ZM23.9282 11.5693C23.8381 11.3064 23.6681 11.0782 23.4419 10.9166C23.2158 10.755 22.9448 10.6682 22.6668 10.6682C22.3889 10.6682 22.1179 10.755 21.8918 10.9166C21.6656 11.0782 21.4956 11.3064 21.4055 11.5693L21.2322 12.0733C21.0348 12.6516 20.7076 13.1771 20.2756 13.6093C19.8437 14.0415 19.3184 14.369 18.7402 14.5666L18.2362 14.7386C17.9732 14.8287 17.745 14.9987 17.5835 15.2249C17.4219 15.451 17.3351 15.722 17.3351 16C17.3351 16.2779 17.4219 16.5489 17.5835 16.775C17.745 17.0012 17.9732 17.1712 18.2362 17.2613L18.7402 17.4346C19.3185 17.632 19.8439 17.9592 20.2762 18.3911C20.7084 18.8231 21.0359 19.3484 21.2335 19.9266L21.4055 20.4306C21.4956 20.6936 21.6656 20.9218 21.8918 21.0833C22.1179 21.2449 22.3889 21.3317 22.6668 21.3317C22.9448 21.3317 23.2158 21.2449 23.4419 21.0833C23.6681 20.9218 23.8381 20.6936 23.9282 20.4306L24.1015 19.9266C24.2988 19.3483 24.626 18.8228 25.058 18.3906C25.49 17.9584 26.0153 17.6309 26.5935 17.4333L27.0975 17.2613C27.3604 17.1712 27.5886 17.0012 27.7502 16.775C27.9118 16.5489 27.9986 16.2779 27.9986 16C27.9986 15.722 27.9118 15.451 27.7502 15.2249C27.5886 14.9987 27.3604 14.8287 27.0975 14.7386L26.5935 14.5653C26.0152 14.368 25.4897 14.0408 25.0575 13.6088C24.6253 13.1768 24.2978 12.6515 24.1002 12.0733L23.9282 11.5693Z" fill="url(#paint0_linear_6012_26557)"/>
<defs>
<linearGradient id="paint0_linear_6012_26557" x1="3.3335" y1="16" x2="28.6668" y2="16" gradientUnits="userSpaceOnUse">
<stop offset="0.268512" stop-color="#6E45E2"/>
<stop offset="1" stop-color="#3477DB"/>
</linearGradient>
</defs>
</svg>
