<svg width="150" height="150" viewBox="0 0 150 150" fill="none" xmlns="http://www.w3.org/2000/svg">
<g opacity="0.33">
<path d="M116 57.8639L117.11 58.9739H116H77.7651V20.2889V19.6289L78.4251 20.2889L116 57.8639Z" fill="#7142BF"/>
<path d="M78.4209 18.9633H44.3709C38.0559 18.9633 32.9409 24.0782 32.9409 30.3932V119.568C32.9409 125.883 38.0559 130.998 44.3709 130.998H104.551C110.866 130.998 115.981 125.883 115.981 119.568V56.5233L114.466 55.0083L113.491 54.0333L80.9559 21.4983L80.3859 20.9283L78.4059 18.9482L78.4209 18.9633Z" stroke="#7142BF" stroke-width="9" stroke-linecap="round" stroke-linejoin="round"/>
<path d="M69.6469 73.5137L73.9669 81.4037C75.7819 84.7037 78.4969 87.4337 81.7969 89.2337L89.6869 93.5537L81.7969 97.8737C78.4969 99.6887 75.7669 102.404 73.9669 105.704L69.6469 113.594L65.3269 105.704C63.5119 102.404 60.7969 99.6737 57.4969 97.8737L49.6069 93.5537L57.4969 89.2337C60.7969 87.4187 63.5269 84.7037 65.3269 81.4037L69.6469 73.5137Z" stroke="#7142BF" stroke-width="7.5" stroke-linecap="round" stroke-linejoin="round"/>
<path d="M90.2329 63.2012L92.2729 66.9362C93.1279 68.4962 94.4179 69.7862 95.9779 70.6412L99.7129 72.6812L95.9779 74.7212C94.4179 75.5762 93.1279 76.8662 92.2729 78.4262L90.2329 82.1611L88.1929 78.4262C87.3379 76.8662 86.0479 75.5762 84.4879 74.7212L80.7529 72.6812L84.4879 70.6412C86.0479 69.7862 87.3379 68.4962 88.1929 66.9362L90.2329 63.2012Z" fill="#7142BF"/>
</g>
</svg>
