<svg width="24" height="24" viewBox="0 0 24 24" fill="none" xmlns="http://www.w3.org/2000/svg">
<path d="M11.9995 13V2L19.9995 6L11.9995 10" stroke="white" stroke-width="1.5" stroke-linecap="round" stroke-linejoin="round"/>
<path d="M20.5607 10.2221C21.0928 11.8623 21.1426 13.6208 20.7041 15.2884C20.2656 16.956 19.3573 18.4626 18.0872 19.6288C16.8172 20.7951 15.2388 21.5719 13.5399 21.867C11.841 22.162 10.0932 21.9628 8.50424 21.293C6.91532 20.6233 5.55224 19.5112 4.57717 18.089C3.6021 16.6669 3.05609 14.9946 3.00409 13.2711C2.9521 11.5475 3.39631 9.84535 4.28388 8.36702C5.17145 6.88869 6.46502 5.69644 8.01068 4.93213" stroke="white" stroke-width="1.5" stroke-linecap="round" stroke-linejoin="round"/>
<path d="M8.00141 9.99741C7.50031 10.6644 7.17409 11.4462 7.05245 12.2716C6.93082 13.097 7.01764 13.9396 7.30501 14.7229C7.59238 15.5061 8.07116 16.2049 8.69774 16.7558C9.32431 17.3066 10.0788 17.6919 10.8923 17.8766C11.7059 18.0612 12.5528 18.0394 13.3558 17.813C14.1587 17.5866 14.8923 17.1629 15.4896 16.5805C16.0869 15.9981 16.529 15.2754 16.7756 14.4784C17.0222 13.6814 17.0655 12.8354 16.9014 12.0174" stroke="white" stroke-width="1.5" stroke-linecap="round" stroke-linejoin="round"/>
</svg>
