<svg width="150" height="150" viewBox="0 0 150 150" fill="none" xmlns="http://www.w3.org/2000/svg">
<path d="M0 36C0 16.1178 16.1177 0 36 0L114 0C133.882 0 150 16.1177 150 36V150H36C16.1178 150 0 133.882 0 114L0 36Z" fill="url(#paint0_linear_5946_2513)"/>
<g clip-path="url(#clip0_5946_2513)">
<path d="M66.3276 45.3516C72.0511 45.3516 77.7745 45.3516 83.6714 45.3516C83.6714 47.2465 83.6714 49.1414 83.6714 51.0938C84.0194 51.2098 84.3675 51.3258 84.7261 51.4453C86.9218 52.2779 89.1476 53.5139 90.878 55.1143C91.1505 55.3435 91.1505 55.3435 91.4443 55.2874C91.7919 55.1852 92.0609 55.0434 92.3721 54.8579C92.4889 54.789 92.6056 54.7201 92.7259 54.649C92.9099 54.5388 92.9099 54.5388 93.0977 54.4263C93.3505 54.2768 93.6033 54.1275 93.8562 53.9781C93.9784 53.9056 94.1006 53.833 94.2266 53.7582C94.6666 53.4973 95.1081 53.239 95.5513 52.9834C95.6754 52.9112 95.7996 52.839 95.9276 52.7646C96.2104 52.6172 96.2104 52.6172 96.4448 52.6172C96.5162 52.7424 96.5162 52.7424 96.5891 52.87C98.0815 55.486 99.5807 58.098 101.101 60.6981C101.679 61.6888 102.252 62.6825 102.824 63.6775C103.185 64.3063 103.551 64.9323 103.926 65.5536C103.997 65.6719 104.068 65.7901 104.141 65.912C104.275 66.1352 104.411 66.3579 104.547 66.58C104.607 66.679 104.667 66.7781 104.728 66.8802C104.781 66.9664 104.833 67.0525 104.888 67.1413C105 67.3828 105 67.3828 105 67.8516C104.907 67.9041 104.815 67.9566 104.721 68.0107C104.372 68.2096 104.023 68.4086 103.675 68.6076C103.525 68.6929 103.376 68.7783 103.226 68.8636C103.009 68.9878 102.791 69.112 102.573 69.2363C102.502 69.2771 102.43 69.3179 102.356 69.36C102.004 69.5612 101.653 69.7642 101.305 69.9714C101.178 70.0464 101.052 70.1213 100.922 70.1985C100.81 70.2657 100.697 70.3329 100.582 70.4022C100.312 70.5469 100.312 70.5469 100.078 70.5469C100.093 70.6321 100.109 70.7173 100.125 70.8051C100.145 70.9229 100.166 71.0407 100.188 71.1621C100.218 71.3334 100.218 71.3334 100.249 71.5082C100.411 72.6529 100.452 73.7938 100.451 74.9487C100.451 75.0912 100.451 75.2337 100.451 75.3804C100.443 76.7461 100.368 78.1149 100.078 79.4531C100.161 79.4845 100.244 79.5159 100.33 79.5483C100.673 79.6916 100.988 79.8581 101.312 80.0404C101.436 80.11 101.56 80.1796 101.688 80.2512C101.816 80.3238 101.945 80.3964 102.077 80.4712C102.202 80.5415 102.328 80.6118 102.457 80.6843C103.309 81.1639 104.156 81.6532 105 82.1484C104.931 82.5816 104.813 82.9028 104.595 83.2823C104.535 83.3875 104.476 83.4927 104.414 83.601C104.349 83.7138 104.283 83.8266 104.216 83.9429C104.148 84.062 104.08 84.181 104.009 84.3037C103.464 85.2549 102.91 86.2018 102.356 87.148C101.825 88.0561 101.302 88.9687 100.781 89.8828C100.133 91.0198 99.4787 92.1529 98.8178 93.2824C98.2822 94.1981 97.7509 95.1161 97.2212 96.0352C97.1622 96.1374 97.1622 96.1374 97.1021 96.2418C96.8829 96.6221 96.6638 97.0024 96.4448 97.3828C95.9375 97.2293 95.5052 97.0325 95.0477 96.7657C94.9178 96.6904 94.7879 96.615 94.6541 96.5373C94.5186 96.4578 94.3831 96.3783 94.2476 96.2988C94.1152 96.2219 93.9829 96.145 93.8466 96.0658C92.7804 95.4451 92.7804 95.4451 92.3531 95.173C92.2502 95.1076 92.1472 95.0423 92.0411 94.975C91.9072 94.8873 91.9072 94.8873 91.7705 94.7979C91.5299 94.6657 91.5299 94.6657 91.2747 94.7145C90.9364 94.8529 90.691 95.078 90.4097 95.3101C88.4598 96.8562 86.0659 98.2221 83.6714 98.9062C83.6714 100.801 83.6714 102.696 83.6714 104.648C77.9479 104.648 72.2245 104.648 66.3276 104.648C66.3276 102.754 66.3276 100.859 66.3276 98.9062C65.8056 98.7322 65.8056 98.7322 65.2729 98.5547C63.1632 97.6835 61.075 96.5848 59.355 95.07C58.9955 94.7647 58.9955 94.7647 58.5443 94.6797C58.1266 94.8522 57.7469 95.0743 57.3628 95.3101C57.1869 95.4156 57.011 95.5211 56.835 95.6264C56.7413 95.6826 56.6476 95.7389 56.5511 95.7968C56.007 96.1211 55.4583 96.4373 54.9092 96.7529C54.8016 96.8154 54.6941 96.8778 54.5833 96.9421C54.4831 96.9996 54.3829 97.0571 54.2798 97.1164C54.146 97.1936 54.146 97.1936 54.0095 97.2723C53.7886 97.3828 53.7886 97.3828 53.5542 97.3828C53.5066 97.2994 53.459 97.2159 53.41 97.13C52.3249 95.228 51.2353 93.3287 50.1397 91.4328C49.919 91.0506 49.6986 90.6681 49.4783 90.2856C48.833 89.1656 48.187 88.0462 47.534 86.9306C46.9043 85.8544 46.2777 84.7763 45.6587 83.6938C45.5924 83.5791 45.526 83.4643 45.4577 83.3461C45.3974 83.2402 45.3372 83.1342 45.2751 83.0251C45.195 82.8853 45.195 82.8853 45.1133 82.7427C44.9995 82.5 44.9995 82.5 44.9995 82.1484C45.0707 82.1084 45.1419 82.0684 45.2153 82.0272C45.5512 81.8383 45.887 81.6492 46.2227 81.46C46.4051 81.3572 46.4051 81.3572 46.5912 81.2523C47.4325 80.7769 48.2679 80.2929 49.0946 79.7926C49.662 79.4531 49.662 79.4531 49.9214 79.4531C49.9058 79.3679 49.8903 79.2827 49.8742 79.1949C49.8535 79.0771 49.8328 78.9593 49.8115 78.8379C49.7911 78.7237 49.7707 78.6095 49.7497 78.4918C49.5853 77.325 49.5471 76.1625 49.5479 74.9854C49.5479 74.8371 49.5479 74.6888 49.5479 74.5361C49.556 73.1904 49.6399 71.8654 49.9214 70.5469C49.8443 70.5189 49.7673 70.491 49.6879 70.4622C49.2343 70.2696 48.8126 70.0337 48.3833 69.7925C48.2926 69.7418 48.2019 69.6912 48.1085 69.639C47.0657 69.0544 46.032 68.454 44.9995 67.8516C45.0676 67.4184 45.1859 67.0972 45.4037 66.7177C45.4636 66.6125 45.5235 66.5073 45.5851 66.399C45.6505 66.2862 45.7159 66.1734 45.7832 66.0571C45.8514 65.938 45.9195 65.819 45.9897 65.6963C46.5354 64.7451 47.0885 63.7982 47.6427 62.852C48.1741 61.9439 48.6974 61.0314 49.2183 60.1172C49.8662 58.9802 50.5203 57.8471 51.1812 56.7176C51.7168 55.8019 52.2481 54.8839 52.7778 53.9648C52.8171 53.8967 52.8564 53.8285 52.8969 53.7582C53.1161 53.3779 53.3352 52.9976 53.5542 52.6172C54.0615 52.7707 54.4938 52.9675 54.9513 53.2343C55.0812 53.3096 55.2111 53.385 55.345 53.4627C55.4805 53.5422 55.616 53.6217 55.7515 53.7012C55.8838 53.7781 56.0161 53.855 56.1525 53.9342C57.2186 54.5549 57.2186 54.5549 57.6459 54.827C57.7489 54.8924 57.8518 54.9577 57.9579 55.025C58.0472 55.0834 58.1365 55.1419 58.2285 55.2021C58.4692 55.3343 58.4692 55.3343 58.7243 55.2855C59.0626 55.1471 59.3081 54.922 59.5894 54.6899C61.5392 53.1438 63.9331 51.7779 66.3276 51.0938C66.3276 49.1988 66.3276 47.3039 66.3276 45.3516ZM69.9604 48.9844C69.9604 50.5699 69.9604 52.1555 69.9604 53.7891C69.4964 53.9051 69.0323 54.0211 68.5542 54.1406C68.1883 54.2591 67.8298 54.3797 67.4702 54.5142C67.3755 54.5495 67.2809 54.5847 67.1833 54.6211C66.2383 54.982 65.339 55.4118 64.4526 55.8984C64.3784 55.9392 64.3041 55.98 64.2275 56.022C62.6397 56.9066 61.2673 58.0081 59.9551 59.2603C59.6693 59.5124 59.3903 59.6924 59.062 59.8828C58.974 59.832 58.886 59.7812 58.7953 59.7289C58.4653 59.5384 58.1353 59.348 57.8053 59.1575C57.6631 59.0755 57.521 58.9934 57.3788 58.9114C57.31 58.8717 57.2412 58.832 57.1703 58.791C57.0684 58.7322 57.0684 58.7322 56.9645 58.6722C56.7655 58.5574 56.5661 58.4434 56.3666 58.3294C56.1589 58.2086 55.9526 58.085 55.7501 57.9554C55.3749 57.7103 55.3749 57.7103 54.9412 57.6883C54.6089 58.0008 54.4213 58.3843 54.2134 58.7842C54.1093 58.9778 54.0049 59.1713 53.9003 59.3646C53.8445 59.468 53.7886 59.5714 53.7311 59.678C53.4245 60.2361 53.1006 60.7841 52.7778 61.333C52.1832 62.348 51.5926 63.3652 51.0077 64.3858C50.9235 64.5325 50.8393 64.6791 50.755 64.8257C50.6372 65.0304 50.5198 65.2355 50.4025 65.4405C50.335 65.5582 50.2675 65.676 50.198 65.7973C50.0271 66.0949 50.0271 66.0949 49.9214 66.4453C50.0177 66.5003 50.114 66.5552 50.2133 66.6119C50.5726 66.8169 50.9319 67.022 51.2911 67.2271C51.4462 67.3156 51.6014 67.4042 51.7565 67.4927C51.9803 67.6203 52.204 67.7481 52.4276 67.8758C52.5308 67.9346 52.5308 67.9346 52.636 67.9946C52.9369 68.1666 53.2351 68.3406 53.5294 68.5239C53.7728 68.6912 53.7728 68.6912 54.0229 68.6719C54.0023 68.7752 53.9816 68.8785 53.9603 68.9849C53.8826 69.3742 53.8056 69.7637 53.729 70.1532C53.6959 70.3206 53.6626 70.488 53.6291 70.6553C52.8978 74.3065 53.22 77.7246 54.0229 81.3281C53.9359 81.3616 53.8489 81.3951 53.7593 81.4297C53.4825 81.5438 53.2287 81.6672 52.9678 81.8129C52.8816 81.8609 52.7954 81.9089 52.7066 81.9583C52.6165 82.009 52.5264 82.0596 52.4336 82.1118C52.3408 82.1637 52.248 82.2156 52.1524 82.269C51.4035 82.6887 50.6601 83.1173 49.9214 83.5547C50.0883 84.0011 50.2939 84.4036 50.5311 84.8167C50.6066 84.9485 50.682 85.0802 50.7597 85.216C50.8416 85.358 50.9235 85.5001 51.0054 85.6421C51.0899 85.7892 51.1743 85.9364 51.2588 86.0835C51.9324 87.256 52.6112 88.4254 53.2956 89.5917C53.5403 90.0089 53.7822 90.4275 54.0216 90.8478C54.1023 90.9883 54.1023 90.9883 54.1846 91.1317C54.2837 91.3044 54.382 91.4776 54.4793 91.6512C54.7331 92.1146 54.7331 92.1146 55.1948 92.3438C55.5421 92.1888 55.5421 92.1888 55.9222 91.9574C56.0282 91.896 56.0282 91.896 56.1363 91.8333C56.3627 91.7018 56.5881 91.5688 56.8135 91.4355C57.0378 91.3044 57.2623 91.1735 57.4868 91.0428C57.6918 90.9233 57.8962 90.803 58.1006 90.6826C58.4547 90.4809 58.8129 90.2957 59.1792 90.1172C59.2461 90.1784 59.313 90.2395 59.382 90.3026C59.7033 90.5943 60.0266 90.8836 60.3511 91.1719C60.4094 91.2239 60.4677 91.2759 60.5278 91.3295C61.5037 92.1947 62.5256 92.9432 63.6323 93.6328C63.6989 93.6746 63.7654 93.7165 63.834 93.7596C65.4468 94.7615 68.0183 96.2109 69.9604 96.2109C69.9604 97.7965 69.9604 99.382 69.9604 101.016C73.2862 101.016 76.612 101.016 80.0386 101.016C80.0386 99.4301 80.0386 97.8445 80.0386 96.2109C80.3866 96.1336 80.7347 96.0563 81.0933 95.9766C83.3354 95.3553 85.5521 94.3175 87.4214 92.9297C87.5445 92.8397 87.6676 92.7496 87.7945 92.6569C88.5896 92.0656 89.3232 91.428 90.0398 90.7439C90.3273 90.4898 90.6066 90.3088 90.937 90.1172C91.3936 90.3777 91.8502 90.6383 92.3067 90.899C92.4619 90.9875 92.617 91.0761 92.7722 91.1646C92.9959 91.2922 93.2196 91.42 93.4433 91.5477C93.512 91.5869 93.5808 91.6261 93.6516 91.6665C93.953 91.8387 94.2511 92.0129 94.5447 92.1982C94.7905 92.3716 94.7905 92.3716 95.0432 92.3044C95.3953 92.0056 95.5759 91.6193 95.7856 91.2158C95.8896 91.0225 95.9938 90.8293 96.0983 90.6363C96.182 90.4812 96.182 90.4812 96.2674 90.3231C96.5768 89.7598 96.9031 89.2065 97.2285 88.6523C97.3676 88.4148 97.5066 88.1772 97.6455 87.9396C97.7167 87.8181 97.7878 87.6965 97.8611 87.5713C98.22 86.9573 98.5781 86.3428 98.9347 85.7275C99.0499 85.529 99.1654 85.3308 99.281 85.1326C99.3511 85.0114 99.4213 84.8903 99.4935 84.7655C99.5555 84.6588 99.6175 84.5521 99.6813 84.4422C99.8371 84.1521 99.962 83.8627 100.078 83.5547C99.9813 83.4997 99.885 83.4448 99.7857 83.3881C99.4264 83.1831 99.0672 82.978 98.7079 82.7729C98.5528 82.6843 98.3976 82.5958 98.2425 82.5073C98.0188 82.3797 97.7951 82.2519 97.5714 82.1242C97.5026 82.085 97.4339 82.0458 97.363 82.0054C97.0621 81.8334 96.7639 81.6594 96.4696 81.4761C96.2263 81.3088 96.2263 81.3088 95.9761 81.3281C96.0071 81.1732 96.0071 81.1732 96.0388 81.0151C96.1164 80.6258 96.1934 80.2363 96.27 79.8468C96.3031 79.6794 96.3364 79.512 96.3699 79.3447C97.1012 75.6935 96.779 72.2754 95.9761 68.6719C96.1001 68.6253 96.1001 68.6253 96.2267 68.5778C96.5806 68.4297 96.9052 68.2563 97.2395 68.0681C97.3671 67.9964 97.4948 67.9247 97.6263 67.8509C97.7585 67.7762 97.8907 67.7015 98.0269 67.6245C98.2251 67.5131 98.2251 67.5131 98.4274 67.3995C98.9815 67.0877 99.5337 66.7746 100.078 66.4453C99.9107 65.9989 99.7051 65.5964 99.4679 65.1833C99.3547 64.9856 99.3547 64.9856 99.2393 64.784C99.1574 64.642 99.0756 64.4999 98.9937 64.3579C98.9092 64.2108 98.8247 64.0636 98.7402 63.9165C98.0666 62.744 97.3878 61.5746 96.7035 60.4083C96.4587 59.9911 96.2168 59.5725 95.9774 59.1522C95.9236 59.0585 95.8699 58.9648 95.8144 58.8683C95.7154 58.6956 95.6171 58.5224 95.5197 58.3488C95.266 57.8854 95.266 57.8854 94.8042 57.6562C94.4569 57.8112 94.4569 57.8112 94.0768 58.0426C94.0061 58.0836 93.9355 58.1245 93.8627 58.1667C93.6363 58.2982 93.4109 58.4312 93.1855 58.5645C92.9613 58.6956 92.7368 58.8265 92.5122 58.9572C92.3073 59.0767 92.1028 59.197 91.8984 59.3174C91.5443 59.5191 91.1861 59.7043 90.8198 59.8828C90.7194 59.791 90.7194 59.791 90.617 59.6974C90.2957 59.4057 89.9724 59.1164 89.6479 58.8281C89.5896 58.7761 89.5313 58.7241 89.4713 58.6705C87.1296 56.5946 84.4116 55.1248 81.4448 54.1406C81.3038 54.0915 81.3038 54.0915 81.16 54.0413C81.0664 54.009 80.9727 53.9767 80.8763 53.9433C80.7916 53.9138 80.7069 53.8843 80.6196 53.8539C80.3735 53.7731 80.3735 53.7731 80.0386 53.7891C80.0386 52.2035 80.0386 50.618 80.0386 48.9844C76.7128 48.9844 73.387 48.9844 69.9604 48.9844Z" fill="white"/>
<path d="M85.1948 63.8672C86.2003 63.8672 87.2058 63.8672 88.2417 63.8672C88.637 64.816 89.0206 65.7634 89.3829 66.7245C89.4343 66.8603 89.4857 66.996 89.5386 67.1358C89.6763 67.4995 89.8138 67.8634 89.9512 68.2272C90.1808 68.8353 90.4106 69.4433 90.6405 70.0512C90.6984 70.2045 90.7564 70.3577 90.8143 70.5109C91.2041 71.5421 91.5981 72.5717 91.9963 73.5997C92.0849 73.8292 92.1735 74.0588 92.2621 74.2883C92.3859 74.6092 92.5101 74.9299 92.6354 75.2501C92.7488 75.5398 92.8609 75.8299 92.9727 76.1201C93.0061 76.2044 93.0396 76.2887 93.074 76.3755C93.2941 76.9522 93.2941 76.9522 93.1636 77.3438C92.8762 77.4931 92.8762 77.4931 92.498 77.6385C92.3625 77.6908 92.227 77.7431 92.0874 77.7969C91.9446 77.8504 91.8019 77.9039 91.6548 77.959C91.5129 78.0143 91.3711 78.0696 91.2249 78.1265C90.1622 78.5308 90.1622 78.5308 89.7651 78.3984C89.5718 77.8957 89.3784 77.393 89.1792 76.875C87.555 76.875 85.9308 76.875 84.2573 76.875C84.064 77.3777 83.8706 77.8805 83.6714 78.3984C83.2183 78.5495 83.0642 78.449 82.6231 78.279C82.4873 78.2268 82.3515 78.1746 82.2116 78.1208C82.0697 78.065 81.9279 78.0092 81.7817 77.9517C81.5676 77.87 81.5676 77.87 81.3492 77.7866C80.2883 77.3745 80.2883 77.3745 80.1558 77.1094C80.242 76.8289 80.3367 76.561 80.4423 76.2877C80.4748 76.2015 80.5073 76.1153 80.5408 76.0265C80.6508 75.7352 80.7622 75.4445 80.8735 75.1538C80.9517 74.9477 81.0299 74.7417 81.1079 74.5355C81.3268 73.9585 81.5469 73.3818 81.7672 72.8053C81.9741 72.2633 82.1804 71.7212 82.3868 71.179C83.3157 68.7389 84.2457 66.2994 85.1948 63.8672ZM86.7183 70.3125C85.9965 71.6663 85.9965 71.6663 85.6636 73.125C86.3597 73.125 87.0558 73.125 87.7729 73.125C87.6905 72.7126 87.6092 72.3806 87.4649 71.9948C87.4282 71.8962 87.3916 71.7976 87.3539 71.6961C87.2967 71.5442 87.2967 71.5442 87.2383 71.3892C87.1804 71.2338 87.1804 71.2338 87.1213 71.0754C87.0264 70.8209 86.9311 70.5666 86.8354 70.3125C86.7968 70.3125 86.7581 70.3125 86.7183 70.3125Z" fill="white"/>
<path d="M66.2388 65.0944C66.4448 65.2734 66.4448 65.2734 66.5657 65.4922C66.5598 65.8944 66.3246 66.0547 66.0493 66.3354C65.941 66.4483 65.833 66.5616 65.7252 66.675C65.6697 66.7332 65.6142 66.7913 65.557 66.8512C65.124 67.3183 64.7334 67.8233 64.3354 68.3203C64.2573 68.278 64.1793 68.2357 64.0988 68.1921C63.3137 67.7968 62.6396 67.5927 61.7573 67.7343C61.6413 67.8117 61.5253 67.889 61.4058 67.9687C61.4182 68.1964 61.4182 68.1964 61.5229 68.4374C61.7867 68.5999 61.7867 68.5999 62.1235 68.7158C62.2507 68.7653 62.3779 68.8149 62.509 68.8659C62.717 68.9439 62.717 68.9439 62.9292 69.0234C66.4126 70.3434 66.4126 70.3434 67.3164 72.0995C67.7578 73.2326 67.7104 74.4649 67.2651 75.5859C66.6611 76.7254 65.665 77.5956 64.4526 78.0468C63.7847 78.2429 63.1844 78.3231 62.4897 78.3178C62.3975 78.3171 62.3053 78.3165 62.2102 78.3158C60.4115 78.2787 58.9446 77.6176 57.6283 76.4007C57.4214 76.1718 57.4214 76.1718 57.4214 75.9374C57.5729 75.7845 57.5729 75.7845 57.7949 75.6005C58.122 75.3255 58.4376 75.0441 58.7439 74.7463C58.8443 74.6498 58.8443 74.6498 58.9468 74.5513C59.0812 74.4216 59.2146 74.2909 59.3468 74.1591C59.5363 73.9782 59.5363 73.9782 59.8823 73.7109C60.3082 73.7676 60.6319 73.978 61.0029 74.1869C61.6965 74.5384 62.2754 74.6826 63.0464 74.5312C63.3317 74.4021 63.5099 74.2697 63.7495 74.0624C63.7369 73.7798 63.7369 73.7798 63.6323 73.4765C63.3764 73.2752 63.3764 73.2752 63.0391 73.1323C62.8485 73.0434 62.8485 73.0434 62.6541 72.9528C62.2032 72.7638 61.7483 72.5949 61.2886 72.4291C59.8768 71.9154 58.5099 71.2673 57.8421 69.8428C57.418 68.6495 57.4262 67.5641 57.9561 66.4086C58.5987 65.2489 59.5127 64.4682 60.7864 64.0891C62.7264 63.6334 64.5555 64.0916 66.2388 65.0944Z" fill="white"/>
<path d="M71.0151 63.6328C72.214 63.6328 73.4128 63.6328 74.6479 63.6328C74.6479 67.268 74.6479 70.9031 74.6479 74.6484C75.5374 74.6484 76.4269 74.6484 77.3433 74.6484C77.3433 75.8473 77.3433 77.0461 77.3433 78.2812C75.255 78.2812 73.1667 78.2812 71.0151 78.2812C71.0151 73.4473 71.0151 68.6133 71.0151 63.6328Z" fill="white"/>
<path d="M78.3979 81.7969C78.8109 81.9912 79.0775 82.2148 79.3995 82.5412C79.4985 82.6409 79.5974 82.7406 79.6994 82.8433C79.8016 82.9476 79.9039 83.0518 80.0093 83.1592C80.1134 83.2643 80.2174 83.3695 80.3247 83.4778C80.5814 83.7373 80.8376 83.9973 81.0933 84.2578C80.9006 84.7519 80.535 85.0817 80.1653 85.4467C80.059 85.5531 80.059 85.5531 79.9505 85.6617C79.7164 85.8956 79.4815 86.1286 79.2466 86.3617C79.084 86.5239 78.9215 86.6861 78.759 86.8484C78.3314 87.275 77.9031 87.701 77.4747 88.1268C77.0376 88.5616 76.6011 88.997 76.1645 89.4324C75.3081 90.2863 74.4509 91.1395 73.5933 91.9922C73.2203 91.8275 72.9706 91.6325 72.684 91.3439C72.5996 91.2595 72.5152 91.175 72.4282 91.088C72.3383 90.997 72.2485 90.9059 72.1559 90.8121C72.0629 90.7188 71.9699 90.6255 71.8741 90.5293C71.5775 90.2314 71.2817 89.9326 70.9858 89.6338C70.7848 89.4316 70.5837 89.2294 70.3825 89.0273C69.8896 88.5318 69.3974 88.0357 68.9058 87.5391C69.2789 87.0977 69.6513 86.6613 70.0621 86.2541C70.1776 86.1391 70.1776 86.1391 70.2955 86.0218C70.4125 85.9064 70.4125 85.9064 70.5317 85.7886C70.6124 85.7084 70.6931 85.6283 70.7762 85.5457C70.9728 85.3505 71.1696 85.1556 71.3667 84.9609C71.7103 85.1158 71.9511 85.2828 72.2145 85.5515C72.2817 85.6194 72.3489 85.6874 72.4182 85.7574C72.4869 85.8281 72.5556 85.8988 72.6265 85.9717C72.697 86.0433 72.7676 86.1149 72.8402 86.1887C73.0137 86.3648 73.1863 86.5417 73.3589 86.7188C74.0003 86.1842 74.594 85.6163 75.1822 85.0241C75.2746 84.9315 75.3671 84.8388 75.4624 84.7434C75.7552 84.45 76.0475 84.1561 76.3398 83.8623C76.5393 83.6622 76.7388 83.4622 76.9384 83.2622C77.4252 82.7741 77.9117 82.2856 78.3979 81.7969Z" fill="white"/>
</g>
<defs>
<linearGradient id="paint0_linear_5946_2513" x1="-4.07875e-07" y1="133.5" x2="122.7" y2="27.6" gradientUnits="userSpaceOnUse">
<stop stop-color="#035C42"/>
<stop offset="1" stop-color="#06B884"/>
</linearGradient>
<clipPath id="clip0_5946_2513">
<rect width="60" height="60" fill="white" transform="translate(44.9995 45)"/>
</clipPath>
</defs>
</svg>
