<svg width="24" height="24" viewBox="0 0 24 24" fill="none" xmlns="http://www.w3.org/2000/svg">
<path d="M7 17H11C11.2833 17 11.521 16.904 11.713 16.712C11.905 16.52 12.0007 16.2827 12 16C11.9993 15.7173 11.9033 15.48 11.712 15.288C11.5207 15.096 11.2833 15 11 15H7C6.71667 15 6.47933 15.096 6.288 15.288C6.09667 15.48 6.00067 15.7173 6 16C5.99933 16.2827 6.09533 16.5203 6.288 16.713C6.48067 16.9057 6.718 17.0013 7 17ZM10 13H14C14.2833 13 14.521 12.904 14.713 12.712C14.905 12.52 15.0007 12.2827 15 12C14.9993 11.7173 14.9033 11.48 14.712 11.288C14.5207 11.096 14.2833 11 14 11H10C9.71667 11 9.47933 11.096 9.288 11.288C9.09667 11.48 9.00067 11.7173 9 12C8.99933 12.2827 9.09533 12.5203 9.288 12.713C9.48067 12.9057 9.718 13.0013 10 13ZM13 9H17C17.2833 9 17.521 8.904 17.713 8.712C17.905 8.52 18.0007 8.28267 18 8C17.9993 7.71733 17.9033 7.48 17.712 7.288C17.5207 7.096 17.2833 7 17 7H13C12.7167 7 12.4793 7.096 12.288 7.288C12.0967 7.48 12.0007 7.71733 12 8C11.9993 8.28267 12.0953 8.52033 12.288 8.713C12.4807 8.90567 12.718 9.00133 13 9ZM5 21C4.45 21 3.97933 20.8043 3.588 20.413C3.19667 20.0217 3.00067 19.5507 3 19V5C3 4.45 3.196 3.97933 3.588 3.588C3.98 3.19667 4.45067 3.00067 5 3H19C19.55 3 20.021 3.196 20.413 3.588C20.805 3.98 21.0007 4.45067 21 5V19C21 19.55 20.8043 20.021 20.413 20.413C20.0217 20.805 19.5507 21.0007 19 21H5ZM5 19H19V5H5V19Z" fill="white"/>
</svg>
