<svg width="24" height="24" viewBox="0 0 24 24" fill="none" xmlns="http://www.w3.org/2000/svg">
<g clip-path="url(#clip0_6012_26522)">
<path d="M9.81352 -0.0185502C9.86432 -0.0190144 9.91512 -0.0194787 9.96746 -0.0199571C10.0507 -0.0196405 10.0507 -0.0196405 10.1356 -0.0193176C10.2236 -0.0198002 10.2236 -0.0198002 10.3133 -0.0202925C10.474 -0.0210035 10.6346 -0.0210782 10.7953 -0.0208108C10.9295 -0.020666 11.0637 -0.0209514 11.1979 -0.0212345C11.5145 -0.021893 11.8311 -0.0218197 12.1478 -0.021286C12.4743 -0.0207479 12.8008 -0.0214075 13.1273 -0.022664C13.4077 -0.0237028 13.6882 -0.0240137 13.9686 -0.0237385C14.1361 -0.0235805 14.3035 -0.0236939 14.471 -0.0245003C14.6577 -0.0253603 14.8444 -0.0247008 15.0311 -0.0238953C15.0866 -0.0243484 15.142 -0.0248016 15.199 -0.0252686C15.5735 -0.0218796 15.5735 -0.0218797 15.7577 0.0869687C15.923 0.27834 15.9992 0.428248 15.9819 0.68224C15.9525 0.874647 15.8924 0.986915 15.7505 1.12462C15.5965 1.22727 15.5528 1.2299 15.3744 1.22902C15.3266 1.22901 15.2787 1.229 15.2294 1.22899C15.1779 1.22851 15.1263 1.22803 15.0732 1.22753C14.9939 1.22733 14.9939 1.22733 14.913 1.22713C14.7439 1.2266 14.5748 1.22542 14.4058 1.22423C14.2912 1.22376 14.1767 1.22333 14.0622 1.22295C13.7812 1.222 13.5002 1.22016 13.2192 1.21837C13.2347 1.9454 13.2502 2.67244 13.2661 3.4215C13.4343 3.44083 13.6026 3.46017 13.7759 3.48009C14.5363 3.57283 15.2606 3.73544 15.9849 3.984C16.0311 3.99976 16.0311 3.99976 16.0782 4.01584C16.5677 4.18511 17.0283 4.39614 17.4849 4.64025C17.5133 4.65535 17.5417 4.67046 17.5709 4.68602C18.2231 5.03631 18.8 5.47082 19.3599 5.95275C19.5431 5.87848 19.6657 5.75276 19.8015 5.614C19.837 5.57831 19.837 5.57831 19.8732 5.54189C19.9484 5.46617 20.0233 5.39013 20.0981 5.31408C20.1492 5.26254 20.2003 5.21103 20.2514 5.15953C20.3763 5.03356 20.501 4.9073 20.6255 4.78087C20.4434 4.56421 20.2557 4.36174 20.0505 4.16655C19.8778 3.9779 19.8575 3.81915 19.8636 3.57073C19.8857 3.38059 19.9694 3.27491 20.1099 3.15197C20.2966 3.03523 20.4564 3.0285 20.6724 3.0465C21.004 3.19612 21.2361 3.44995 21.489 3.70549C21.5355 3.75198 21.582 3.79844 21.6285 3.84488C21.7255 3.94187 21.8222 4.03908 21.9187 4.13649C22.0422 4.26098 22.1661 4.38495 22.2902 4.50875C22.3861 4.60448 22.4818 4.70045 22.5774 4.79649C22.623 4.84228 22.6686 4.88801 22.7144 4.93368C22.7783 4.99759 22.8419 5.06184 22.9055 5.12611C22.9597 5.18069 22.9597 5.18069 23.0151 5.23637C23.2008 5.44598 23.2876 5.62325 23.2974 5.90587C23.2289 6.11852 23.1579 6.29574 22.9692 6.4215C22.7533 6.47539 22.5761 6.49658 22.365 6.41784C22.1821 6.30482 22.045 6.16882 21.897 6.01427C21.8692 5.98584 21.8414 5.95741 21.8127 5.92812C21.7448 5.85852 21.6773 5.78849 21.6099 5.71837C21.4267 5.79264 21.3041 5.91836 21.1682 6.05712C21.1327 6.09281 21.1327 6.09281 21.0965 6.12923C21.0213 6.20495 20.9464 6.28099 20.8716 6.35704C20.8205 6.40858 20.7694 6.46009 20.7183 6.51159C20.5934 6.63756 20.4687 6.76383 20.3442 6.89025C20.4901 7.08694 20.6367 7.28082 20.7954 7.4674C22.4266 9.49862 23.1055 12.2445 22.8403 14.8121C22.8235 14.9532 22.8035 15.0936 22.7817 15.234C22.7759 15.2721 22.7702 15.3102 22.7642 15.3494C22.436 17.4294 21.4861 19.4301 19.9692 20.9059C19.9325 20.9426 19.8958 20.9794 19.8579 21.0172C19.8173 21.0578 19.7767 21.0984 19.7349 21.1402C19.7084 21.1689 19.6819 21.1975 19.6547 21.227C18.628 22.3088 17.1946 23.0585 15.7974 23.5309C15.7632 23.5425 15.7291 23.5542 15.6939 23.5661C14.87 23.8414 13.9858 24.0025 13.1167 24.0108C13.0768 24.0113 13.0368 24.0117 12.9957 24.0122C12.1145 24.0202 11.2696 24.0102 10.4067 23.8121C10.3626 23.8026 10.3184 23.793 10.273 23.7832C8.58898 23.4137 7.04889 22.6154 5.76611 21.4684C5.69859 21.4094 5.69859 21.4094 5.6297 21.3492C5.13664 20.9143 5.13664 20.9143 5.10693 20.582C5.11364 20.3576 5.20593 20.2016 5.35889 20.0445C5.53341 19.939 5.65758 19.9073 5.86133 19.934C6.09296 19.991 6.2275 20.0889 6.39014 20.2613C7.8897 21.8488 10.2273 22.6517 12.3685 22.7294C14.7485 22.7899 17.088 21.8615 18.8129 20.2297C18.8542 20.1898 18.8955 20.15 18.938 20.109C18.9749 20.0745 19.0118 20.04 19.0499 20.0044C19.3453 19.7214 19.5867 19.4062 19.8286 19.0777C19.857 19.0403 19.8854 19.0028 19.9147 18.9642C20.5362 18.118 20.9643 17.1303 21.2541 16.1264C21.277 16.0471 21.301 15.9682 21.3253 15.8893C21.8534 14.0303 21.6179 11.8207 20.813 10.0777C20.7994 10.0482 20.7858 10.0187 20.7719 9.98828C20.3458 9.07201 19.7832 8.16478 19.0431 7.46904C18.9849 7.40587 18.9849 7.40587 18.9849 7.31212C18.957 7.29972 18.9291 7.28731 18.9004 7.27453C18.7938 7.21644 18.7311 7.1585 18.649 7.06987C17.1538 5.53286 14.8224 4.76164 12.7192 4.72611C11.9694 4.72008 11.2308 4.79701 10.5005 4.96837C10.4444 4.9813 10.3883 4.99423 10.3306 5.00756C8.8578 5.37263 7.53242 6.14787 6.42236 7.1715C6.16188 7.40594 5.99263 7.51663 5.63904 7.51317C5.47408 7.49234 5.3749 7.41833 5.25049 7.31212C5.11363 7.10684 5.10156 6.93144 5.12451 6.6881C5.27358 6.24387 5.83479 5.90279 6.18799 5.62462C6.23313 5.58752 6.27826 5.55042 6.32477 5.5122C7.85922 4.27919 9.9818 3.46837 11.9536 3.46837C11.9536 2.72587 11.9536 1.98337 11.9536 1.21837C11.7843 1.22109 11.615 1.22381 11.4406 1.22661C11.2763 1.22844 11.112 1.22986 10.9477 1.23125C10.8336 1.23242 10.7196 1.23402 10.6056 1.23605C10.4415 1.2389 10.2775 1.24023 10.1134 1.24126C10.0371 1.24308 10.0371 1.24308 9.95934 1.24493C9.5636 1.24507 9.5636 1.24507 9.39199 1.10506C9.21369 0.90927 9.16587 0.789062 9.17297 0.516529C9.20365 0.322401 9.31879 0.191838 9.46017 0.0631971C9.5872 -0.0153466 9.66479 -0.0181661 9.81352 -0.0185502Z" fill="white"/>
<path d="M17.5303 8.48495C17.6728 8.56986 17.7432 8.63554 17.8262 8.77792C17.8863 9.01818 17.9101 9.19524 17.7827 9.40877C17.6613 9.58598 17.5137 9.73273 17.3614 9.88331C17.3307 9.91398 17.3 9.94465 17.2684 9.97626C17.1677 10.0769 17.0667 10.1772 16.9656 10.2776C16.8955 10.3475 16.8253 10.4176 16.7552 10.4876C16.5711 10.6714 16.3867 10.8548 16.2022 11.0383C16.0138 11.2257 15.8257 11.4134 15.6376 11.601C15.2687 11.9689 14.8996 12.3364 14.5303 12.7037C14.5399 12.7354 14.5495 12.767 14.5594 12.7997C14.5721 12.8415 14.5847 12.8833 14.5977 12.9264C14.6102 12.9677 14.6227 13.009 14.6356 13.0516C14.8078 13.6403 14.7575 14.253 14.4635 14.7959C14.3352 14.9968 14.1923 15.1688 14.0147 15.3287C13.9741 15.3674 13.9335 15.406 13.8916 15.4459C13.4609 15.7942 12.9114 15.9132 12.3682 15.8853C11.8362 15.8256 11.3519 15.5554 10.9678 15.1881C10.5195 14.6244 10.3973 14.0171 10.4522 13.3131C10.5548 12.7586 10.8808 12.2751 11.3428 11.9537C11.8562 11.65 12.3847 11.4799 12.982 11.6087C13.0686 11.6325 13.155 11.6575 13.2409 11.684C13.2797 11.6957 13.3185 11.7073 13.3584 11.7193C13.3932 11.7336 13.4279 11.7478 13.4637 11.7625C13.6063 11.7803 13.6063 11.7803 13.7377 11.6539C13.7931 11.5987 13.8478 11.5427 13.9018 11.4862C13.9318 11.4559 13.9619 11.4256 13.9929 11.3943C14.0924 11.2936 14.1909 11.192 14.2895 11.0904C14.3586 11.0203 14.4278 10.9502 14.4971 10.8803C14.6796 10.6956 14.8614 10.5102 15.0429 10.3245C15.3329 10.028 15.6235 9.73216 15.915 9.4372C16.0165 9.33416 16.1173 9.23054 16.2181 9.12686C16.2808 9.06319 16.3435 8.99953 16.4063 8.93591C16.4339 8.90714 16.4616 8.87837 16.4901 8.84874C16.7916 8.5455 17.1003 8.35694 17.5303 8.48495ZM11.8176 13.281C11.679 13.4877 11.692 13.7308 11.7178 13.9693C11.8014 14.2182 11.9706 14.3892 12.1866 14.5318C12.4529 14.6419 12.6663 14.6405 12.9331 14.5338C13.1467 14.4264 13.2775 14.3096 13.3995 14.0982C13.4805 13.828 13.5098 13.5823 13.376 13.3248C13.2253 13.0953 13.0177 12.9164 12.7491 12.8443C12.3376 12.7977 12.0698 12.9725 11.8176 13.281Z" fill="white"/>
<path d="M1.38225 16.9969C1.45854 16.9963 1.45854 16.9963 1.53638 16.9957C1.61938 16.9961 1.61938 16.9961 1.70405 16.9966C1.76269 16.9963 1.82132 16.9961 1.88174 16.9958C2.04222 16.9953 2.20268 16.9954 2.36317 16.9959C2.53128 16.9962 2.69939 16.9959 2.86751 16.9957C3.1498 16.9954 3.43209 16.9957 3.71439 16.9964C4.04054 16.9972 4.36669 16.9969 4.69284 16.9962C4.97311 16.9955 5.25336 16.9954 5.53363 16.9958C5.70091 16.996 5.86819 16.9961 6.03548 16.9956C6.22199 16.9951 6.40848 16.9958 6.59498 16.9966C6.65031 16.9963 6.70564 16.996 6.76265 16.9957C6.81352 16.9961 6.86438 16.9965 6.91678 16.9969C6.96085 16.9969 7.00493 16.997 7.05033 16.9971C7.2403 17.0245 7.36479 17.1084 7.49229 17.2491C7.57846 17.4668 7.57854 17.6746 7.54795 17.9054C7.44986 18.0937 7.33091 18.1711 7.13614 18.2512C6.91775 18.3126 6.69116 18.2998 6.46597 18.2986C6.40968 18.2988 6.35339 18.2991 6.2954 18.2993C6.1418 18.2998 5.98821 18.2997 5.83461 18.2993C5.67346 18.2989 5.51231 18.2992 5.35116 18.2995C5.08066 18.2997 4.81016 18.2994 4.53966 18.2987C4.22735 18.2979 3.91505 18.2982 3.60274 18.299C3.33406 18.2996 3.06538 18.2997 2.7967 18.2993C2.63646 18.2991 2.47623 18.2991 2.31599 18.2995C2.13736 18.2999 1.95875 18.2994 1.78012 18.2986C1.7273 18.2989 1.67447 18.2991 1.62005 18.2994C1.29586 18.2968 1.07724 18.2672 0.830181 18.0401C0.722191 17.8562 0.688894 17.6964 0.704204 17.4835C0.761385 17.3086 0.849245 17.1861 0.999839 17.077C1.13996 17.0079 1.22694 16.9971 1.38225 16.9969Z" fill="white"/>
<path d="M3.23272 13.0596C3.28848 13.0594 3.34423 13.0591 3.40168 13.0589C3.55383 13.0584 3.70597 13.0585 3.85812 13.0589C4.01781 13.0593 4.1775 13.059 4.33718 13.0588C4.60528 13.0585 4.87338 13.0588 5.14148 13.0595C5.45086 13.0603 5.76023 13.06 6.06961 13.0592C6.33586 13.0586 6.60211 13.0585 6.86836 13.0589C7.02711 13.0591 7.18585 13.0591 7.3446 13.0587C7.52165 13.0583 7.69868 13.0589 7.87573 13.0596C7.95405 13.0592 7.95405 13.0592 8.03396 13.0588C8.36937 13.0615 8.6177 13.0865 8.87649 13.3181C8.98073 13.5025 9.01475 13.6631 8.99954 13.8747C8.94235 14.0496 8.85449 14.1721 8.7039 14.2812C8.56378 14.3503 8.4768 14.3611 8.32149 14.3613C8.27063 14.3617 8.21976 14.3621 8.16736 14.3625C8.11203 14.3622 8.0567 14.3619 7.99969 14.3617C7.94105 14.3619 7.88242 14.3621 7.822 14.3624C7.66152 14.3629 7.50106 14.3628 7.34057 14.3623C7.17246 14.362 7.00435 14.3623 6.83623 14.3625C6.55393 14.3628 6.27164 14.3625 5.98935 14.3618C5.66319 14.361 5.33705 14.3613 5.0109 14.362C4.73063 14.3627 4.45038 14.3628 4.17011 14.3624C4.00283 14.3622 3.83555 14.3622 3.66826 14.3626C3.48175 14.3631 3.29526 14.3624 3.10876 14.3617C3.02576 14.3621 3.02576 14.3621 2.94108 14.3625C2.89022 14.3621 2.83936 14.3617 2.78696 14.3613C2.74288 14.3613 2.69881 14.3612 2.65341 14.3612C2.46209 14.3335 2.33771 14.2498 2.21145 14.1062C2.12899 13.9022 2.1252 13.7166 2.15578 13.4997C2.25199 13.2881 2.35278 13.1928 2.56791 13.1061C2.78506 13.0468 3.00918 13.0584 3.23272 13.0596Z" fill="white"/>
<path d="M1.40793 9.18004C1.48265 9.17953 1.48265 9.17953 1.55888 9.17902C1.61377 9.17889 1.66865 9.17877 1.7252 9.17864C1.78283 9.17833 1.84046 9.17802 1.89983 9.17771C2.09124 9.17678 2.28265 9.17623 2.47406 9.17577C2.53996 9.17558 2.60586 9.17538 2.67176 9.17519C2.98141 9.17429 3.29106 9.17363 3.60071 9.17324C3.95805 9.17278 4.31538 9.17155 4.67272 9.16965C4.94896 9.16824 5.22519 9.16754 5.50144 9.16739C5.6664 9.16728 5.83135 9.16686 5.99631 9.16568C6.18046 9.16438 6.36459 9.16458 6.54875 9.16491C6.63051 9.164 6.63051 9.164 6.71393 9.16309C7.00666 9.16498 7.18496 9.17667 7.40692 9.37444C7.54351 9.51623 7.5688 9.61849 7.57098 9.81389C7.56627 9.99034 7.55348 10.1053 7.44208 10.2446C7.25301 10.4121 7.13149 10.4642 6.87901 10.4651C6.82907 10.4655 6.77913 10.4659 6.72767 10.4663C6.67312 10.4663 6.61857 10.4662 6.56237 10.4662C6.50473 10.4665 6.44709 10.4668 6.3877 10.4671C6.22974 10.4679 6.07178 10.4682 5.91381 10.4682C5.81506 10.4683 5.71631 10.4685 5.61756 10.4688C5.27288 10.4696 4.92821 10.47 4.58353 10.4699C4.26251 10.4699 3.94151 10.4709 3.6205 10.4723C3.34465 10.4736 3.06882 10.4741 2.79297 10.474C2.62832 10.474 2.46369 10.4743 2.29905 10.4753C2.11535 10.4763 1.93168 10.4759 1.74798 10.4753C1.66644 10.4761 1.66644 10.4761 1.58325 10.4769C1.22882 10.4742 1.06254 10.4304 0.806335 10.183C0.724451 10.0279 0.69844 9.87596 0.703796 9.70256C0.822073 9.36087 1.05309 9.18167 1.40793 9.18004Z" fill="white"/>
<path d="M16.7067 17.2357C16.7588 17.2345 16.7588 17.2345 16.812 17.2333C17.0576 17.2719 17.2221 17.4466 17.3915 17.6168C17.4349 17.6603 17.4784 17.7038 17.5231 17.7487C17.5454 17.7712 17.5677 17.7938 17.5906 17.817C17.659 17.8863 17.7278 17.9552 17.7967 18.0241C18.1931 18.4229 18.1931 18.4229 18.2008 18.6918C18.1975 18.9204 18.1607 19.0488 17.9987 19.2191C17.797 19.3394 17.6257 19.3904 17.3901 19.3486C17.277 19.3059 17.21 19.2504 17.1207 19.1691C17.0881 19.1396 17.0556 19.11 17.022 19.0796C16.8554 18.9239 16.6904 18.7669 16.528 18.6068C16.4947 18.5749 16.4614 18.5429 16.4271 18.51C16.223 18.3085 16.0875 18.1506 16.0713 17.8522C16.0992 17.6334 16.1475 17.5031 16.3112 17.3441C16.4465 17.2631 16.5493 17.2365 16.7067 17.2357Z" fill="white"/>
<path d="M12.7492 6.04665C12.9766 6.16255 13.094 6.2945 13.218 6.5154C13.2423 6.67982 13.2423 6.67982 13.2429 6.85946C13.2431 6.89158 13.2433 6.9237 13.2434 6.95679C13.2436 7.02435 13.2432 7.09191 13.2424 7.15947C13.2414 7.26206 13.2424 7.3645 13.2436 7.4671C13.2449 8.08142 13.2449 8.08142 13.0305 8.34353C12.8481 8.47206 12.6851 8.50985 12.466 8.50063C12.2656 8.46464 12.1356 8.35317 12.0161 8.19455C11.8975 7.94833 11.9299 7.67022 11.9315 7.40173C11.9319 7.29533 11.9305 7.18905 11.929 7.08267C11.9289 7.01431 11.929 6.94595 11.9291 6.87759C11.929 6.78519 11.929 6.78519 11.9288 6.69093C11.9579 6.47443 12.0172 6.3668 12.1399 6.18728C12.3422 6.04787 12.506 6.01625 12.7492 6.04665Z" fill="white"/>
<path d="M19.0545 13.0573C19.1448 13.0559 19.1448 13.0559 19.237 13.0545C19.581 13.0546 19.823 13.0725 20.1121 13.2653C20.2434 13.4458 20.2782 13.6109 20.2694 13.8298C20.2349 14.0199 20.1211 14.1472 19.9878 14.2797C19.8324 14.3696 19.6852 14.3645 19.5104 14.3638C19.4572 14.3641 19.4572 14.3641 19.4029 14.3645C19.328 14.3648 19.253 14.3647 19.1781 14.3643C19.064 14.3639 18.95 14.3653 18.8359 14.3668C18.7629 14.3669 18.6899 14.3668 18.6169 14.3667C18.5661 14.3675 18.5661 14.3675 18.5143 14.3683C18.2751 14.365 18.1399 14.3064 17.9559 14.1559C17.8091 13.9524 17.7972 13.792 17.8356 13.5519C17.8913 13.344 17.9969 13.2493 18.1783 13.1432C18.4552 13.0295 18.7605 13.0557 19.0545 13.0573Z" fill="white"/>
<path d="M12.7993 18.9848C13.0366 19.0969 13.1226 19.2146 13.2212 19.4535C13.2459 19.6688 13.2434 19.8838 13.2421 20.1002C13.2417 20.2033 13.243 20.3063 13.2445 20.4094C13.2446 20.4755 13.2446 20.5417 13.2444 20.6078C13.2446 20.6972 13.2446 20.6972 13.2447 20.7884C13.2121 21.0171 13.1099 21.1585 12.9487 21.3198C12.8012 21.3998 12.6858 21.4166 12.5181 21.4223C12.2737 21.3478 12.1439 21.2596 12.0024 21.0473C11.9332 20.9089 11.946 20.7677 11.9444 20.6159C11.944 20.5824 11.9436 20.5488 11.9432 20.5143C11.9426 20.4432 11.9421 20.3721 11.9417 20.301C11.9409 20.1929 11.9389 20.0848 11.9368 19.9767C11.9363 19.9075 11.9359 19.8384 11.9356 19.7692C11.9348 19.7371 11.934 19.705 11.9331 19.672C11.9342 19.437 11.9982 19.3074 12.1431 19.1254C12.34 18.9383 12.5405 18.9484 12.7993 18.9848Z" fill="white"/>
</g>
<defs>
<clipPath id="clip0_6012_26522">
<rect width="24" height="24" fill="white"/>
</clipPath>
</defs>
</svg>
