<svg width="24" height="24" viewBox="0 0 24 24" fill="none" xmlns="http://www.w3.org/2000/svg">
<path d="M18.375 20.25C20.6532 20.25 22.5 18.4032 22.5 16.125C22.5 13.8468 20.6532 12 18.375 12C16.0968 12 14.25 13.8468 14.25 16.125C14.25 18.4032 16.0968 20.25 18.375 20.25Z" stroke="white" stroke-width="1.8" stroke-linecap="round" stroke-linejoin="round"/>
<path d="M5.625 20.25C7.90317 20.25 9.75 18.4032 9.75 16.125C9.75 13.8468 7.90317 12 5.625 12C3.34683 12 1.5 13.8468 1.5 16.125C1.5 18.4032 3.34683 20.25 5.625 20.25Z" stroke="white" stroke-width="1.8" stroke-linecap="round" stroke-linejoin="round"/>
<path d="M9.75 16.125V6C9.75 4.75781 9 3.75 7.6875 3.75C6.04688 3.75 5.50781 4.75781 5.01562 6C5.01562 6 2.74219 11.9922 1.6875 14.8828M9.75 8.625C9.75 8.625 10.5234 8.25 12 8.25C13.4766 8.25 14.25 8.625 14.25 8.625M9.75 12.75C9.75 12.75 10.5234 12.375 12 12.375C13.4766 12.375 14.25 12.75 14.25 12.75M14.25 16.125V6C14.25 4.75781 15 3.75 16.3125 3.75C17.9531 3.75 18.4922 4.75781 18.9844 6C18.9844 6 21.2578 11.9922 22.3125 14.8828" stroke="white" stroke-width="1.8" stroke-linecap="round" stroke-linejoin="round"/>
</svg>
