<svg width="121" height="120" viewBox="0 0 121 120" fill="none" xmlns="http://www.w3.org/2000/svg">
<path d="M82.755 14.8692C83.5391 15.5674 84.306 16.2826 85.0642 17.0089C85.386 17.3172 85.7106 17.6226 86.0354 17.9278C87.6434 19.4774 89.0075 21.1795 90.3357 22.9687C90.4297 23.0954 90.5237 23.222 90.6205 23.3525C93.9586 27.9008 96.1456 32.848 97.8357 38.2031C99.0913 37.1576 100.247 36.0481 101.39 34.8816C101.753 34.5144 102.116 34.1473 102.479 33.7802C103.046 33.2064 103.612 32.6321 104.176 32.0566C104.725 31.4976 105.277 30.9409 105.828 30.3845C106.081 30.1256 106.081 30.1256 106.338 29.8615C106.497 29.7018 106.656 29.5421 106.819 29.3777C106.958 29.2372 107.096 29.0968 107.238 28.9521C108.146 28.215 109.082 28.0166 110.245 28.0517C111.403 28.2279 112.148 28.8323 112.938 29.6631C113.446 30.7809 113.535 31.8389 113.304 33.0469C112.681 34.0894 111.946 34.931 111.073 35.7663C110.947 35.8892 110.821 36.0122 110.691 36.1388C110.419 36.4036 110.146 36.6679 109.873 36.9318C109.441 37.3501 109.012 37.7706 108.583 38.1919C107.363 39.3889 106.143 40.585 104.915 41.7721C104.161 42.5001 103.413 43.2332 102.668 43.9698C102.384 44.2489 102.098 44.526 101.81 44.8012C101.408 45.186 101.012 45.5769 100.618 45.9699C100.498 46.0815 100.378 46.193 100.255 46.308C99.798 46.7742 99.4839 47.1507 99.4576 47.8174C99.5162 48.2884 99.6124 48.7543 99.7107 49.2187C100.081 56.9588 98.5231 65.2935 94.8503 72.1467C94.586 72.6373 94.586 72.6373 94.32 73.3594C94.586 74.0984 95.0113 74.5763 95.5637 75.1234C95.7237 75.283 95.8837 75.4427 96.0485 75.6071C96.224 75.7798 96.3994 75.9524 96.5802 76.1303C96.7651 76.3141 96.9499 76.498 97.1404 76.6874C97.5423 77.0866 97.9446 77.4853 98.3474 77.8836C98.9861 78.5152 99.6232 79.1483 100.26 79.7819C101.843 81.3564 103.427 82.929 105.013 84.5002C106.352 85.8262 107.689 87.1536 109.023 88.4831C109.445 88.9018 109.867 89.3199 110.289 89.7372C110.883 90.3233 111.474 90.9115 112.064 91.5002C112.238 91.67 112.411 91.8398 112.589 92.0148C115.545 94.9759 117.229 98.3678 117.377 102.568C117.305 106.709 115.75 110.049 112.836 112.969C112.703 113.104 112.571 113.239 112.435 113.378C110.005 115.66 106.364 116.729 103.08 116.821C100.701 116.725 98.546 116.214 96.4001 115.195C96.1863 115.098 96.1863 115.098 95.9682 114.998C92.7631 113.37 90.128 109.98 87.622 107.465C87.232 107.075 86.8419 106.685 86.4518 106.294C85.4341 105.276 84.4171 104.256 83.4002 103.237C82.3589 102.193 81.3169 101.15 80.2749 100.107C78.2372 98.0667 76.2003 96.0258 74.1638 93.9844C73.1174 94.3229 72.1623 94.728 71.1755 95.2148C68.3985 96.5379 65.5021 97.4167 62.5183 98.1445C62.235 98.2144 62.235 98.2144 61.9459 98.2856C58.6149 99.062 55.3314 99.2366 51.9274 99.2285C51.7163 99.2283 51.5051 99.2281 51.2876 99.2279C47.8255 99.2168 44.4958 99.0129 41.1169 98.2031C40.8882 98.149 40.6596 98.0949 40.424 98.0392C33.5712 96.3575 27.3935 93.2139 21.8982 88.8281C21.7628 88.7202 21.6275 88.6124 21.4881 88.5013C18.3493 85.9749 15.6127 83.1687 13.2263 79.9219C13.0432 79.6735 12.8601 79.4252 12.6715 79.1693C5.39205 68.968 2.32319 56.1292 4.31179 43.7292C5.92406 34.68 9.71334 26.5718 15.8044 19.6875C15.9772 19.486 16.15 19.2844 16.3281 19.0768C30.8271 2.43474 56.3365 -1.11066 82.755 14.8692ZM21.6638 23.9062C20.9261 24.7391 20.2392 25.6077 19.5544 26.4844C19.3734 26.7119 19.1925 26.9394 19.006 27.1737C12.6709 35.5418 10.0079 46.4266 11.3952 56.792C12.5093 64.4039 15.6194 71.779 20.7263 77.5781C20.9027 77.7802 21.0792 77.9823 21.2609 78.1906C21.7787 78.7748 22.3042 79.3501 22.8357 79.9219C22.9789 80.0777 23.1221 80.2336 23.2696 80.3943C26.6794 83.9637 31.0395 86.5461 35.4919 88.5937C35.7623 88.7188 36.0327 88.8439 36.3113 88.9728C43.5888 92.1045 52.1377 92.8452 59.8669 91.1719C60.0493 91.1329 60.2316 91.0939 60.4195 91.0538C70.7377 88.7679 79.8073 82.5094 85.541 73.6258C86.0742 72.7713 86.572 71.8996 87.0544 71.0156C87.135 70.8687 87.2155 70.7217 87.2985 70.5703C89.9439 65.678 91.5798 60.4031 91.9763 54.8437C90.6531 55.9472 89.4514 57.1246 88.2643 58.3717C87.3458 59.3127 86.4887 60.0767 85.1501 60.3277C85.0051 60.3259 84.8601 60.3241 84.7107 60.3222C84.5656 60.3241 84.4206 60.3259 84.2712 60.3277C82.9523 60.0804 82.0517 59.3028 81.1315 58.3757C81.017 58.2613 80.9025 58.1469 80.7845 58.029C80.41 57.654 80.0381 57.2766 79.6661 56.8991C79.4055 56.6372 79.1448 56.3755 78.8839 56.1139C78.2004 55.4277 77.519 54.7394 76.838 54.0506C76.1417 53.347 75.4433 52.6455 74.7451 51.9438C73.3775 50.5686 72.0121 49.1913 70.6482 47.8125C69.4557 48.8085 68.3487 49.8527 67.2626 50.963C66.9189 51.3122 66.5752 51.6613 66.2314 52.0104C66.0516 52.1934 65.8718 52.3765 65.6865 52.5651C64.7272 53.5406 63.7638 54.5123 62.8012 55.4846C61.5795 56.719 60.359 57.9545 59.1428 59.1943C58.1567 60.1994 57.1667 61.2005 56.1738 62.199C55.7973 62.5791 55.4222 62.9608 55.0486 63.3439C54.526 63.8796 53.9983 64.41 53.4693 64.9395C53.3173 65.0978 53.1653 65.256 53.0087 65.4191C51.9742 66.44 51.03 66.9617 49.5544 67.0312C46.6183 66.2071 44.4022 63.419 42.4902 61.1929C40.9718 59.3425 40.9718 59.3425 39.0075 58.125C38.8649 58.2702 38.7222 58.4155 38.5753 58.5651C37.2268 59.9372 35.8754 61.3063 34.5209 62.6724C33.8247 63.3747 33.1296 64.078 32.437 64.7839C31.7679 65.4658 31.0959 66.1447 30.4219 66.8218C30.166 67.0798 29.9111 67.339 29.6573 67.5991C26.8248 70.4996 26.8248 70.4996 24.9078 70.5638C23.6556 70.5177 22.9829 70.0314 22.1325 69.1406C21.5787 68.2092 21.4852 67.1553 21.6638 66.0937C22.1693 64.8931 22.8438 64.1073 23.7509 63.2051C23.8897 63.0643 24.0285 62.9235 24.1716 62.7784C24.6287 62.3158 25.0884 61.8559 25.5484 61.3962C25.8687 61.0741 26.189 60.752 26.5093 60.4299C27.1801 59.7559 27.8523 59.0833 28.5254 58.4116C29.3857 57.5526 30.2417 56.6894 31.0967 55.825C31.7568 55.1589 32.4195 54.4954 33.0831 53.8327C33.3998 53.5156 33.7155 53.1977 34.0303 52.8787C34.4716 52.4322 34.9165 51.9895 35.3625 51.5477C35.5546 51.3509 35.5546 51.3509 35.7505 51.1503C36.7512 50.1708 37.8455 49.5216 39.2687 49.4165C40.2613 49.4329 40.8109 49.7598 41.5367 50.4181C41.7001 50.5662 41.8635 50.7143 42.0318 50.8668C42.7838 51.5728 43.5181 52.2941 44.2443 53.0264C44.3978 53.1802 44.5512 53.3339 44.7092 53.4923C45.192 53.9764 45.674 54.4613 46.156 54.9463C46.4861 55.2776 46.8163 55.6089 47.1466 55.9401C47.9498 56.7459 48.7523 57.5524 49.5544 58.3594C50.7307 57.3748 51.8308 56.3468 52.908 55.2555C53.0706 55.0919 53.2332 54.9282 53.4007 54.7596C53.7509 54.4069 54.1009 54.0539 54.4507 53.7007C55.0048 53.1415 55.5598 52.5832 56.1151 52.0251C57.693 50.4394 59.2698 48.8528 60.8443 47.2637C61.8097 46.2895 62.7767 45.317 63.7449 44.3456C64.1127 43.976 64.4798 43.6056 64.8463 43.2346C65.3584 42.7164 65.8726 42.2003 66.3873 41.6847C66.5375 41.5316 66.6877 41.3786 66.8424 41.2209C67.9529 40.1153 69.0121 39.2751 70.6482 39.2724C70.8367 39.2679 71.0252 39.2634 71.2194 39.2587C72.5373 39.5138 73.5001 40.5282 74.4186 41.4516C74.5286 41.5615 74.6385 41.6714 74.7518 41.7845C75.1105 42.1436 75.4675 42.5043 75.8245 42.865C76.0747 43.116 76.3249 43.3668 76.5752 43.6176C77.2305 44.2747 77.8843 44.9332 78.5379 45.5919C79.2064 46.2652 79.8762 46.9372 80.5459 47.6092C81.8574 48.9257 83.1673 50.2436 84.4763 51.5625C85.9133 50.8938 86.9768 49.6908 88.1009 48.5965C88.3888 48.3187 88.6796 48.0439 88.9732 47.7723C90.6907 46.2804 90.6907 46.2804 91.6628 44.3066C91.6137 43.6299 91.4816 43.0665 91.2732 42.4219C91.2269 42.2294 91.1807 42.037 91.133 41.8387C90.9907 41.2629 90.8226 40.702 90.6433 40.1367C90.5487 39.8326 90.5487 39.8326 90.4522 39.5224C87.0983 28.9393 80.1077 20.4195 70.2653 15.2249C53.8742 6.81427 34.2653 10.7355 21.6638 23.9062ZM89.3982 80.1562C88.9951 80.5969 88.6168 81.0409 88.2409 81.5039C88.0063 81.7859 87.7713 82.0676 87.536 82.3489C87.3564 82.5639 87.3564 82.5639 87.1732 82.7832C85.386 84.9081 83.475 86.7512 81.3274 88.5081C80.8708 88.9065 80.4501 89.3359 80.0232 89.7656C82.3932 92.1631 84.7667 94.5571 87.1441 96.9473C88.2481 98.0574 89.3509 99.1685 90.4512 100.282C91.5139 101.358 92.5795 102.43 93.6471 103.501C94.0531 103.909 94.4581 104.318 94.862 104.728C95.4296 105.304 96.0008 105.877 96.573 106.449C96.7377 106.617 96.9024 106.786 97.0721 106.96C98.603 108.476 100.37 109.572 102.552 109.746C104.701 109.607 106.401 108.897 107.914 107.344C109.371 105.353 109.771 103.704 109.554 101.25C108.937 98.8641 106.912 97.1665 105.227 95.4822C105.061 95.315 104.894 95.1479 104.723 94.9756C104.179 94.4298 103.635 93.8847 103.09 93.3398C102.71 92.9589 102.33 92.578 101.949 92.1971C101.156 91.4024 100.362 90.6082 99.5683 89.8142C98.5486 88.7945 97.5305 87.7732 96.5128 86.7514C95.73 85.9661 94.9463 85.1819 94.1622 84.3979C93.786 84.0215 93.4103 83.6447 93.0349 83.2675C92.5126 82.7429 91.9888 82.2198 91.4647 81.6971C91.2311 81.4615 91.2311 81.4615 90.9928 81.2212C90.8505 81.0799 90.7083 80.9387 90.5618 80.7931C90.4382 80.6694 90.3146 80.5457 90.1872 80.4182C89.8754 80.1068 89.8754 80.1068 89.3982 80.1562Z" fill="white"/>
</svg>
