<svg width="121" height="120" viewBox="0 0 121 120" fill="none" xmlns="http://www.w3.org/2000/svg">
<path d="M22.3664 22.8778C22.8102 22.8769 23.254 22.8756 23.6978 22.8741C24.8952 22.8709 26.0926 22.8721 27.2901 22.8744C28.5459 22.8762 29.8018 22.8745 31.0576 22.8734C33.1645 22.8721 35.2713 22.8738 37.3782 22.8772C39.813 22.881 42.2477 22.8797 44.6825 22.8759C46.7764 22.8727 48.8702 22.8722 50.964 22.8741C52.2132 22.8752 53.4623 22.8753 54.7115 22.873C55.8846 22.871 57.0577 22.8724 58.2308 22.8764C58.6611 22.8774 59.0914 22.8771 59.5216 22.8755C60.1091 22.8736 60.6965 22.876 61.284 22.8795C61.454 22.878 61.624 22.8764 61.7991 22.8748C62.8889 22.8874 63.6356 23.0904 64.5577 23.6719C65.367 24.7368 65.6521 25.5652 65.5858 26.9038C65.3972 27.9821 64.9277 28.7782 64.0479 29.4543C63.2267 29.8406 62.5138 29.864 61.625 29.856C61.4498 29.8572 61.2745 29.8585 61.0939 29.8597C60.5075 29.863 59.9213 29.8613 59.3349 29.8596C58.9141 29.8609 58.4932 29.8626 58.0724 29.8646C57.1663 29.8681 56.2602 29.8695 55.3541 29.8691C53.9199 29.8686 52.4856 29.8732 51.0514 29.8785C48.2635 29.8881 45.4757 29.8925 42.6879 29.8964C39.1445 29.9016 35.6012 29.9095 32.0578 29.9215C30.6337 29.9262 29.2097 29.9284 27.7856 29.9288C26.8969 29.9294 26.0082 29.932 25.1195 29.935C24.7094 29.936 24.2993 29.9362 23.8892 29.9355C20.179 29.9302 16.7771 30.1063 13.9071 32.743C12.2995 34.6959 11.5532 36.9127 11.556 39.4033C11.5553 39.5967 11.5546 39.7902 11.5539 39.9895C11.5519 40.6386 11.5515 41.2877 11.5512 41.9368C11.5501 42.4019 11.5489 42.867 11.5476 43.3321C11.5446 44.5965 11.5431 45.8609 11.542 47.1254C11.5413 47.9156 11.5404 48.7059 11.5393 49.4961C11.5361 51.9694 11.5339 54.4427 11.533 56.916C11.5319 59.7695 11.5278 62.6229 11.521 65.4764C11.5159 67.6828 11.5136 69.8893 11.5133 72.0957C11.513 73.4131 11.5116 74.7304 11.5074 76.0478C11.5036 77.2878 11.5031 78.5278 11.5051 79.7679C11.5053 80.2219 11.5043 80.676 11.502 81.1301C11.4318 85.0618 11.4318 85.0618 13.0245 88.5792C13.448 89.1596 13.7028 89.5449 13.9327 90.2345C14.3574 90.4836 14.3574 90.4836 14.8702 90.7032C15.4332 91.0556 15.993 91.4125 16.5511 91.7725C17.9569 92.4871 19.3752 92.6475 20.9324 92.6381C21.1929 92.6393 21.1929 92.6393 21.4587 92.6406C21.8322 92.6422 22.2057 92.6428 22.5792 92.6425C23.1716 92.6423 23.7638 92.6453 24.3561 92.6493C26.0389 92.6601 27.7217 92.6659 29.4046 92.6675C30.4371 92.6686 31.4696 92.6743 32.5021 92.6828C32.8939 92.6851 33.2857 92.6856 33.6775 92.6844C34.226 92.6827 34.7742 92.6868 35.3227 92.6921C35.5625 92.6892 35.5625 92.6892 35.8072 92.6863C37.0622 92.7077 37.7668 93.0534 38.7764 93.7501C39.9709 95.0681 39.8155 96.8007 39.746 98.466C39.7354 98.8669 39.7354 98.8669 39.7245 99.276C39.7012 100.125 39.6712 100.973 39.6407 101.821C39.614 102.676 39.5887 103.53 39.5644 104.384C39.5489 104.915 39.5318 105.445 39.5128 105.976C39.5051 106.214 39.4973 106.452 39.4893 106.697C39.4818 106.907 39.4743 107.118 39.4666 107.334C39.4247 107.811 39.4247 107.811 39.7139 108.047C40.6247 108.134 41.0631 108.021 41.7666 107.445C41.9301 107.313 42.0936 107.182 42.2621 107.047C42.4364 106.903 42.6106 106.76 42.7901 106.611C43.1696 106.307 43.5496 106.003 43.9299 105.7C44.1247 105.543 44.3195 105.387 44.5201 105.227C45.4255 104.513 46.3551 103.833 47.2872 103.154C48.8786 101.991 50.4534 100.808 52.0186 99.6095C54.1409 97.9851 56.2846 96.3921 58.4425 94.8155C59.1022 94.3279 59.752 93.8275 60.4005 93.3249C61.0973 92.8492 61.7044 92.783 62.5228 92.7802C62.7294 92.7789 62.936 92.7777 63.1489 92.7764C63.488 92.776 63.488 92.776 63.834 92.7756C64.0727 92.7744 64.3113 92.7732 64.5572 92.772C65.0763 92.7695 65.5954 92.7675 66.1145 92.7659C66.9373 92.7631 67.76 92.7586 68.5828 92.7534C70.9225 92.739 73.2622 92.7263 75.602 92.7185C77.0328 92.7136 78.4636 92.7053 79.8944 92.6949C80.4387 92.6916 80.983 92.6895 81.5273 92.6888C82.2913 92.6876 83.0551 92.6822 83.8191 92.6758C84.0418 92.6765 84.2646 92.6772 84.4941 92.678C87.0997 92.6459 89.4947 91.8503 91.4605 90.0953C92.9266 88.5054 93.8808 86.5022 93.8869 84.3362C93.8888 83.9691 93.8888 83.9691 93.8908 83.5945C93.891 83.3273 93.8913 83.06 93.8915 82.7846C93.8927 82.5021 93.8939 82.2196 93.8951 81.9286C93.8976 81.3146 93.8998 80.7006 93.9013 80.0866C93.9038 79.1143 93.9085 78.1419 93.9137 77.1695C93.9282 74.4046 93.9409 71.6396 93.9486 68.8747C93.9529 67.3472 93.9597 65.8197 93.9693 64.2922C93.9742 63.4849 93.9778 62.6775 93.9784 61.8701C93.979 60.968 93.9849 60.0661 93.9913 59.164C93.9906 58.8991 93.9899 58.6342 93.9892 58.3613C94.0048 56.8686 94.1122 55.4944 94.7921 54.1407C95.6744 53.2799 96.3136 52.931 97.5313 52.8956C98.7784 52.9118 99.4303 53.1411 100.417 53.9063C101.358 55.2429 101.219 56.674 101.211 58.2423C101.213 58.6845 101.213 58.6845 101.215 59.1356C101.218 59.942 101.217 60.7483 101.215 61.5547C101.213 62.4019 101.215 63.2491 101.216 64.0963C101.217 65.5206 101.215 66.9448 101.212 68.3691C101.208 70.0087 101.209 71.6484 101.213 73.288C101.216 74.7007 101.217 76.1134 101.215 77.5261C101.214 78.3675 101.214 79.209 101.216 80.0504C101.218 80.9916 101.215 81.9326 101.211 82.8737C101.213 83.1476 101.214 83.4215 101.215 83.7038C101.196 86.2333 100.766 88.6901 99.5968 90.9522C99.5171 91.1086 99.4375 91.2649 99.3555 91.426C98.4738 93.0686 97.2984 94.3399 95.9639 95.6251C95.7333 95.8625 95.7333 95.8625 95.4979 96.1048C92.7642 98.7508 88.6997 99.8996 84.9767 99.8514C84.7748 99.8476 84.5729 99.8438 84.3649 99.8399C83.915 99.8338 83.4652 99.8278 83.0153 99.8219C82.7786 99.8186 82.5418 99.8152 82.2979 99.8117C80.7655 99.7928 79.2331 99.7901 77.7007 99.7847C76.36 99.7792 75.0198 99.7678 73.6793 99.7434C72.3764 99.7201 71.0742 99.7132 69.7711 99.7169C69.2789 99.7155 68.7866 99.7084 68.2946 99.695C64.5459 99.5984 62.4194 100.493 59.6071 102.975C59.0309 103.478 58.4279 103.931 57.8121 104.385C57.4432 104.668 57.0746 104.951 56.7061 105.234C54.9773 106.558 53.235 107.861 51.4768 109.146C50.47 109.884 49.4733 110.633 48.4856 111.396C48.2663 111.565 48.0469 111.734 47.8209 111.909C47.399 112.235 46.9781 112.563 46.5584 112.892C43.977 114.888 41.808 115.595 38.5421 115.313C36.4026 114.743 34.7052 113.693 33.4444 111.87C32.0175 109.3 32.1593 106.741 32.2872 103.901C32.302 103.507 32.3165 103.112 32.3307 102.717C32.3657 101.759 32.4057 100.802 32.4483 99.8438C32.2046 99.8462 32.2046 99.8462 31.9559 99.8486C30.4084 99.8628 28.8608 99.8734 27.3133 99.8803C26.518 99.8839 25.7229 99.8888 24.9277 99.8969C16.5095 99.976 16.5095 99.976 13.3761 98.2618C13.142 98.139 13.142 98.139 12.9032 98.0137C11.6556 97.3418 10.5324 96.5772 9.47957 95.6251C9.33666 95.5009 9.19376 95.3767 9.04652 95.2488C6.11106 92.5327 4.44094 88.4417 4.25851 84.4875C4.22367 83.2566 4.22811 82.0258 4.23234 80.7944C4.23138 80.3236 4.23013 79.8528 4.2286 79.382C4.22542 78.1123 4.22663 76.8426 4.22887 75.5729C4.23066 74.2388 4.22899 72.9047 4.22789 71.5706C4.22662 69.3309 4.22829 67.0913 4.23165 64.8517C4.23548 62.2691 4.23424 59.6866 4.23037 57.1041C4.22717 54.8795 4.22673 52.6549 4.22856 50.4302C4.22966 49.1048 4.22982 47.7793 4.22748 46.4538C4.22544 45.2072 4.22688 43.9606 4.23092 42.714C4.23185 42.2588 4.2316 41.8036 4.23004 41.3485C4.2149 36.4867 4.98143 32.5034 8.07332 28.5938C8.24734 28.3521 8.42136 28.1104 8.60066 27.8614C12.4418 23.8456 17.0622 22.8586 22.3664 22.8778Z" fill="white"/>
<path d="M94.7471 4.81937C94.9709 4.84868 95.1948 4.87798 95.4255 4.90818C97.4826 5.56947 98.6442 6.81413 99.6982 8.64261C100.035 9.20214 100.372 9.76098 100.714 10.3165C101.028 10.8587 101.298 11.3887 101.564 11.9537C102.284 13.3903 102.948 14.6434 104.499 15.2629C105.705 15.6409 106.937 15.8669 108.18 16.084C108.814 16.2069 109.448 16.3343 110.081 16.4666C110.471 16.5469 110.863 16.6215 111.256 16.6889C112.946 17.0148 114.067 17.8526 115.255 19.0723C116.312 20.717 116.627 22.2814 116.249 24.2029C115.627 26.1792 114.112 27.6061 112.75 29.106C111.882 30.0751 111.069 31.0915 110.26 32.1094C110.136 32.2521 110.011 32.3948 109.883 32.5418C109.49 33.1502 109.486 33.4452 109.531 34.1611C109.549 34.4873 109.549 34.4873 109.566 34.8201C109.583 35.0519 109.599 35.2837 109.615 35.5225C109.635 35.8813 109.635 35.8813 109.655 36.2473C109.719 37.3996 109.799 38.5503 109.886 39.701C110.067 42.1781 110.199 44.2047 108.59 46.2598C107.334 47.5526 106.037 48.0881 104.239 48.1723C102.086 48.1472 100.273 47.2463 98.3359 46.3916C97.7893 46.1524 97.2421 45.915 96.6926 45.6822C96.3536 45.5385 96.0162 45.3911 95.6807 45.2394C94.2324 44.6225 93.2822 44.7831 91.8337 45.3063C91.5341 45.4325 91.235 45.5602 90.9366 45.6894C90.6035 45.8277 90.2702 45.9658 89.9369 46.1037C89.4207 46.3195 88.9054 46.5368 88.3915 46.758C86.0482 47.7618 83.7626 48.6815 81.2064 47.8104C79.5111 47.0652 78.5413 46.0276 77.8253 44.307C77.5564 43.4109 77.5996 42.5146 77.623 41.5869C77.6256 41.3804 77.6282 41.1739 77.6308 40.9611C77.6508 39.77 77.7081 38.5855 77.7988 37.3975C77.8173 37.1401 77.8357 36.8827 77.8547 36.6175C77.8964 36.1013 77.95 35.586 78.014 35.0721C78.1085 33.9046 78.1308 33.1347 77.4674 32.1396C76.8594 31.4761 76.2215 30.8573 75.5723 30.2344C71.3427 25.3749 71.3427 25.3749 71.0312 22.6758C71.2436 20.5527 71.9049 19.1555 73.5342 17.7708C74.6386 17.0244 75.8245 16.7596 77.1104 16.4649C77.3798 16.395 77.6492 16.325 77.9268 16.253C79.0733 15.9596 80.1966 15.6887 81.3758 15.5741C82.6504 15.4283 83.5845 15.2436 84.4562 14.2639C85.3879 13.0025 86.1588 11.6597 86.9122 10.2867C88.0844 8.19075 89.2333 6.21476 91.4219 5.06839C92.5708 4.76604 93.567 4.64402 94.7471 4.81937ZM93.6191 12.8907C93.3823 13.233 93.1569 13.5833 92.9362 13.9362C92.7963 14.1583 92.6564 14.3803 92.5123 14.6091C92.3651 14.8445 92.218 15.0798 92.0664 15.3223C91.2206 16.6731 90.3706 18.0214 89.4828 19.3451C89.3597 19.5299 89.2366 19.7147 89.1098 19.9051C88.1551 21.0287 86.941 21.2962 85.5652 21.6239C85.3796 21.6697 85.194 21.7155 85.0028 21.7627C84.4134 21.9078 83.8234 22.0501 83.2334 22.1924C82.8322 22.2907 82.431 22.3891 82.0299 22.4877C81.0497 22.7282 80.069 22.9663 79.0879 23.2032C79.8535 24.2458 80.6229 25.2576 81.5049 26.2061C81.7723 26.502 81.7723 26.502 82.045 26.8039C82.4254 27.2248 82.8076 27.6441 83.1913 28.0619C83.3792 28.2761 83.5671 28.4903 83.7607 28.711C83.932 28.9019 84.1034 29.0929 84.2798 29.2896C85.5026 31.2957 85.1747 33.5528 84.9766 35.8008C84.928 36.4002 84.8797 36.9995 84.8319 37.5989C84.8093 37.8614 84.7867 38.1239 84.7634 38.3943C84.7147 39.1145 84.704 39.8253 84.7129 40.5469C84.8744 40.4808 85.036 40.4147 85.2024 40.3466C90.4336 38.2127 90.4336 38.2127 92.3301 37.5586C92.5355 37.4873 92.741 37.416 92.9526 37.3426C95.0495 37.1006 97.1046 38.258 98.9805 39.0528C99.5457 39.2917 100.112 39.5288 100.678 39.765C100.926 39.8701 101.174 39.9751 101.429 40.0833C102.055 40.3528 102.055 40.3528 102.76 40.3125C102.753 40.1713 102.746 40.0301 102.738 39.8846C102.657 38.2308 102.587 36.5766 102.525 34.9219C102.517 34.7085 102.508 34.4951 102.499 34.2752C102.478 33.7046 102.464 33.1344 102.452 32.5635C102.445 32.3953 102.438 32.227 102.431 32.0537C102.41 30.1795 103.633 29.0554 104.796 27.7295C106.019 26.3196 107.211 24.8894 108.385 23.4375C107.548 22.959 106.7 22.7641 105.765 22.5458C105.432 22.4663 105.1 22.3866 104.768 22.3069C104.247 22.1833 103.727 22.0607 103.206 21.9398C102.701 21.8221 102.197 21.7008 101.692 21.579C101.391 21.5084 101.091 21.4377 100.781 21.3649C99.3074 20.8856 98.469 20.2111 97.6758 18.8919C97.527 18.6486 97.3783 18.4052 97.2249 18.1545C97.0743 17.9015 96.9237 17.6484 96.7686 17.3877C96.466 16.8879 96.163 16.3883 95.8594 15.889C95.7171 15.6547 95.5748 15.4203 95.4281 15.1789C94.9353 14.3864 94.421 13.6315 93.8535 12.8907C93.7762 12.8907 93.6988 12.8907 93.6191 12.8907Z" fill="white"/>
<path d="M36.3444 49.1873C36.4974 49.1868 36.6503 49.1863 36.8079 49.1857C37.3187 49.1842 37.8295 49.1844 38.3402 49.1846C38.7072 49.1839 39.0742 49.1831 39.4411 49.1822C40.4367 49.1802 41.4324 49.1796 42.428 49.1795C43.0503 49.1793 43.6726 49.1788 44.295 49.1782C46.4669 49.176 48.6389 49.175 50.8109 49.1752C52.8341 49.1754 54.8573 49.1729 56.8805 49.1692C58.6188 49.1661 60.3571 49.1649 62.0954 49.165C63.1331 49.1651 64.1707 49.1644 65.2084 49.1619C66.1845 49.1597 67.1606 49.1596 68.1367 49.1613C68.4943 49.1616 68.8519 49.161 69.2095 49.1596C69.6989 49.1578 70.1883 49.1589 70.6778 49.1607C70.9513 49.1606 71.2248 49.1605 71.5066 49.1603C72.7244 49.2509 73.6502 49.4499 74.5907 50.244C75.4277 51.2485 75.6707 51.851 75.6307 53.1975C75.499 54.2631 75.0504 54.9143 74.2684 55.62C73.338 56.2641 72.8212 56.2805 71.6866 56.2844C71.5264 56.2853 71.3662 56.2861 71.2012 56.287C70.6618 56.2896 70.1224 56.2905 69.5829 56.2914C69.1972 56.2929 68.8115 56.2944 68.4258 56.2961C67.3759 56.3001 66.3261 56.3026 65.2762 56.3045C64.6204 56.3057 63.9647 56.3072 63.309 56.3086C61.2579 56.3131 59.2068 56.3164 57.1558 56.3184C54.7871 56.3207 52.4185 56.3269 50.0499 56.3363C48.2198 56.3434 46.3898 56.3469 44.5598 56.3476C43.4664 56.3482 42.3731 56.3503 41.2798 56.3562C40.251 56.3616 39.2222 56.3626 38.1934 56.3602C37.816 56.3601 37.4387 56.3616 37.0613 56.3648C36.5455 56.369 36.03 56.3673 35.5141 56.3642C35.2257 56.3648 34.9372 56.3653 34.64 56.3659C33.4135 56.185 32.6969 55.5951 31.8905 54.6825C31.396 53.6746 31.3198 52.8991 31.5096 51.7968C31.8276 50.9143 32.267 50.2947 33.0184 49.7167C34.1189 49.2336 35.1517 49.189 36.3444 49.1873Z" fill="white"/>
<path d="M36.0986 66.2904C36.3044 66.2892 36.5103 66.288 36.7224 66.2868C37.4043 66.2834 38.0861 66.2818 38.768 66.2805C39.2418 66.2792 39.7156 66.2778 40.1894 66.2765C41.1834 66.274 42.1774 66.2726 43.1714 66.2718C44.4442 66.2705 45.717 66.2649 46.9898 66.2582C47.9687 66.2539 48.9477 66.2526 49.9267 66.2523C50.3959 66.2516 50.8651 66.2497 51.3343 66.2466C51.9912 66.2426 52.648 66.2431 53.305 66.2446C53.5949 66.2413 53.5949 66.2413 53.8907 66.238C55.4073 66.249 56.3664 66.5901 57.4768 67.6758C58.2289 68.7932 58.2915 69.5961 58.1067 70.9131C57.6576 71.9421 57.0421 72.5094 56.1145 73.125C55.2056 73.428 54.3434 73.3959 53.396 73.3971C53.1901 73.3983 52.9842 73.3995 52.7721 73.4007C52.0903 73.4041 51.4084 73.4057 50.7266 73.407C50.2528 73.4083 49.779 73.4097 49.3052 73.411C48.3112 73.4135 47.3172 73.4149 46.3232 73.4157C45.0504 73.417 43.7776 73.4226 42.5048 73.4293C41.5258 73.4336 40.5468 73.4349 39.5678 73.4352C39.0986 73.4359 38.6295 73.4378 38.1603 73.4409C37.5033 73.4449 36.8465 73.4444 36.1896 73.4429C35.9963 73.4451 35.803 73.4472 35.6039 73.4495C34.4549 73.4411 33.674 73.2885 32.677 72.6562C31.635 71.5016 31.4229 70.7926 31.4383 69.2679C31.5603 68.1792 32.1283 67.5418 32.926 66.8408C33.94 66.2193 34.9504 66.2919 36.0986 66.2904Z" fill="white"/>
</svg>
