<svg width="120" height="120" viewBox="0 0 120 120" fill="none" xmlns="http://www.w3.org/2000/svg">
<path d="M35.5224 1.60284C35.8475 1.59946 35.8475 1.59946 36.1791 1.59602C36.4128 1.59502 36.6464 1.59402 36.8871 1.593C37.1279 1.59166 37.3686 1.59033 37.6166 1.58895C38.1261 1.58673 38.6356 1.5852 39.145 1.5843C39.9238 1.58202 40.7025 1.57475 41.4812 1.56736C41.9762 1.56583 42.4712 1.5646 42.9662 1.5637C43.1989 1.56081 43.4316 1.55791 43.6714 1.55493C45.7419 1.56161 45.7419 1.56161 46.6375 2.34373C46.9158 3.04319 46.9158 3.04319 47.1062 3.92576C47.145 4.08602 47.1838 4.24628 47.2238 4.41139C47.4635 5.4313 47.6225 6.44225 47.7453 7.48259C48.0543 10.1796 48.0543 10.1796 49.5791 12.3083C50.6635 12.967 51.6962 13.2746 52.9656 13.125C54.6618 12.5033 56.0776 11.4049 57.4972 10.3125C60.184 8.29616 60.184 8.29616 61.5935 8.04197C63.0432 8.35464 64.071 9.391 65.1238 10.3857C65.3712 10.616 65.6187 10.8461 65.8663 11.076C65.9852 11.1867 66.104 11.2973 66.2265 11.4113C66.6579 11.8097 67.0977 12.1976 67.5408 12.583C67.7565 12.7706 67.7565 12.7706 67.9766 12.962C68.1277 13.0931 68.2787 13.2243 68.4344 13.3594C68.8209 13.6954 69.2066 14.0323 69.5916 14.3701C69.7677 14.5239 69.9439 14.6777 70.1253 14.8361C70.7049 15.3877 70.7704 15.636 70.8633 16.4429C70.7536 17.6029 70.3312 18.1856 69.6502 19.1015C69.5369 19.2639 69.4237 19.4263 69.307 19.5936C68.7126 20.4367 68.0936 21.2262 67.3971 21.9873C66.307 23.1752 66.307 23.1752 65.6219 24.6094C65.732 25.7205 66.2545 26.6459 66.813 27.594C67.2625 28.3594 67.2625 28.3594 67.2625 29.0625C67.4095 29.0729 67.5565 29.0834 67.708 29.0942C69.5624 29.2427 71.3788 29.5287 73.2098 29.8535C73.5013 29.9024 73.7929 29.9514 74.0932 30.0018C74.3739 30.0514 74.6546 30.1009 74.9438 30.152C75.1962 30.1959 75.4485 30.2398 75.7086 30.2851C76.6706 30.5395 77.3426 30.9395 78.0437 31.6406C78.1048 32.1178 78.1048 32.1178 78.1081 32.7117C78.1103 32.9338 78.1126 33.156 78.1149 33.3849C78.1146 33.746 78.1146 33.746 78.1142 34.1144C78.1152 34.3612 78.1162 34.608 78.1173 34.8623C78.1186 35.3852 78.1187 35.9081 78.1177 36.431C78.117 37.2314 78.1225 38.0317 78.1284 38.8321C78.129 39.3396 78.1291 39.8471 78.1289 40.3546C78.131 40.5944 78.1332 40.8341 78.1354 41.0812C78.1332 41.4166 78.1332 41.4166 78.131 41.7589C78.1311 41.9553 78.1313 42.1516 78.1315 42.3539C78.0234 43.0149 77.7888 43.3377 77.3406 43.8281C76.8937 44.0094 76.8937 44.0094 76.3866 44.1C76.1032 44.1536 76.1032 44.1536 75.814 44.2083C75.612 44.2423 75.4101 44.2764 75.2019 44.3115C74.9944 44.3495 74.7868 44.3875 74.5729 44.4266C74.1441 44.5046 73.7149 44.5808 73.2854 44.6554C72.6889 44.7594 72.0937 44.8689 71.4986 44.9808C71.1462 45.046 70.7937 45.111 70.4412 45.1758C70.2794 45.2057 70.1176 45.2356 69.9508 45.2665C69.1229 45.4127 68.3377 45.5011 67.4969 45.4687C67.4824 45.6476 67.4679 45.8264 67.4529 46.0107C67.2242 47.0486 66.786 47.8871 66.2929 48.8241C66.039 49.434 66.039 49.434 66.2078 49.9988C66.7095 50.8923 67.2922 51.7142 67.8924 52.5439C68.0183 52.7209 68.1442 52.8979 68.274 53.0803C68.813 53.8374 69.3569 54.5894 69.9139 55.3335C71.3877 57.3263 71.3877 57.3263 71.2469 58.5937C70.797 59.3166 70.2133 59.8762 69.6062 60.4687C69.4023 60.6781 69.1984 60.8875 68.9883 61.1032C67.894 62.2188 66.7772 63.291 65.5871 64.3048C64.978 64.8419 64.4147 65.4196 63.8512 66.004C63.3503 66.4833 63.0339 66.5641 62.3406 66.6797C61.264 66.6556 60.633 66.0846 59.7982 65.4556C58.8588 64.777 57.8812 64.1761 56.8914 63.5742C56.7112 63.4637 56.5311 63.3532 56.3455 63.2393C56.0007 63.0296 55.6543 62.8226 55.3062 62.6186C54.9118 62.3858 54.5255 62.1395 54.1412 61.8905C52.763 61.4032 51.4797 61.8991 50.1961 62.4985C49.043 63.2338 48.7795 64.1413 48.4534 65.4289C48.246 66.4761 48.0764 67.5244 47.9276 68.5815C47.804 69.4109 47.6565 70.2293 47.4862 71.0504C47.4362 71.2967 47.3861 71.5431 47.3346 71.7969C47.0619 72.5432 46.8413 72.7197 46.1687 73.125C45.6085 73.2174 45.6085 73.2174 44.9799 73.2234C44.7437 73.2271 44.5075 73.2309 44.2641 73.2347C44.0105 73.2348 43.7568 73.2348 43.4954 73.2348C43.1028 73.2375 43.1028 73.2375 42.7022 73.2403C42.149 73.2428 41.5958 73.2435 41.0426 73.2424C40.1953 73.2422 39.3484 73.2519 38.5012 73.2623C37.9638 73.2635 37.4264 73.2642 36.889 73.2641C36.6353 73.268 36.3816 73.2718 36.1202 73.2758C34.3905 73.2598 34.3905 73.2598 33.6039 72.6535C33.191 71.7659 33.0304 70.9468 32.8918 69.9829C32.825 69.5967 32.7575 69.2107 32.6894 68.8248C32.586 68.2206 32.4871 67.6171 32.4002 67.0103C32.142 65.0703 32.142 65.0703 31.4031 63.2812C30.341 62.5556 29.3948 62.3186 28.1219 62.1094C27.9533 62.0532 27.7847 61.997 27.6111 61.9392C26.9986 61.847 26.7387 62.0593 26.2258 62.3932C26.0434 62.5102 25.8611 62.6272 25.6732 62.7477C25.4806 62.8754 25.288 63.0032 25.0896 63.1347C24.891 63.2625 24.6924 63.3902 24.4878 63.5218C23.4455 64.1969 22.4329 64.8994 21.4373 65.6411C19.409 67.1347 19.409 67.1347 18.0511 66.9699C17.063 66.6108 16.4254 65.8918 15.7 65.1562C15.3666 64.8491 15.0331 64.542 14.6973 64.2374C14.3351 63.9088 13.975 63.5779 13.6153 63.2464C12.7039 62.4081 11.785 61.5781 10.866 60.748C10.6823 60.5785 10.4986 60.409 10.3094 60.2344C10.1305 60.0866 9.95165 59.9389 9.76737 59.7867C9.22762 59.1182 9.29743 58.7352 9.37187 57.8906C9.64332 57.3201 9.64332 57.3201 10.0237 56.7673C10.1624 56.5627 10.3011 56.3582 10.4439 56.1474C10.5929 55.9347 10.7418 55.7221 10.8953 55.5029C11.0443 55.2839 11.1932 55.0648 11.3467 54.8392C12.2738 53.4833 13.2322 52.1624 14.2791 50.896C14.5957 50.3932 14.5957 50.3932 14.3761 49.8212C14.2716 49.6224 14.1671 49.4236 14.0594 49.2187C13.9597 49.003 13.86 48.7873 13.7572 48.565C13.5478 48.1205 13.3378 47.6761 13.1274 47.232C12.8875 46.6406 12.8875 46.6406 12.8875 45.9375C12.5866 45.8949 12.2857 45.8523 11.9756 45.8084C11.3346 45.7176 10.6937 45.6261 10.053 45.5327C8.91525 45.3671 7.77786 45.2093 6.63627 45.0723C6.42637 45.0454 6.21647 45.0184 6.00021 44.9907C5.60015 44.9394 5.19959 44.8918 4.79858 44.8486C4.52451 44.8121 4.52451 44.8121 4.24491 44.7748C4.086 44.7559 3.92708 44.7371 3.76335 44.7177C2.95853 44.4084 2.61833 44.0581 2.10624 43.3594C1.93572 42.5115 1.94754 41.6794 1.95884 40.8169C1.95828 40.5711 1.95771 40.3253 1.95713 40.072C1.95736 39.5533 1.96049 39.0346 1.96634 38.5159C1.97439 37.7216 1.97118 36.9279 1.96662 36.1336C1.96824 35.6293 1.97051 35.1249 1.97349 34.6206C1.97233 34.3831 1.97117 34.1455 1.96997 33.9008C1.99688 32.2955 1.99688 32.2955 2.45735 31.5118C3.29537 31.026 4.10978 30.8783 5.05882 30.7214C5.25351 30.6863 5.4482 30.6512 5.64879 30.6151C6.26914 30.5042 6.89026 30.3986 7.51152 30.293C7.93043 30.2185 8.34928 30.1437 8.76808 30.0686C11.8004 29.5312 11.8004 29.5312 12.6531 29.5312C12.6957 29.3784 12.7383 29.2255 12.7822 29.068C13.0522 28.1291 13.3083 27.2782 13.7664 26.4111C14.1212 25.6482 14.052 25.4049 13.825 24.6094C13.1688 23.3232 12.2985 22.1652 11.4062 21.0351C11.2692 20.861 11.1323 20.6869 10.9912 20.5076C10.7168 20.1616 10.4393 19.818 10.1585 19.4771C9.35347 18.4657 8.92814 17.7475 8.90312 16.4062C9.22572 15.546 9.77227 15.0727 10.454 14.4891C11.459 13.6185 12.4322 12.7181 13.4002 11.8066C13.6411 11.5809 13.6411 11.5809 13.8868 11.3507C14.74 10.5492 15.5807 9.73918 16.4031 8.90623C16.8719 8.43748 16.8719 8.43748 17.7865 8.42649C19.2899 8.6322 20.4385 9.44441 21.6912 10.2539C21.9231 10.3995 22.155 10.5451 22.3939 10.6952C24.1844 11.8215 24.1844 11.8215 24.9073 12.3289C25.8499 12.9836 25.8499 12.9836 26.9683 13.1186C27.7347 12.8635 28.4862 12.5929 29.2351 12.29C30.6529 11.7187 30.6529 11.7187 31.1687 11.7187C31.1946 11.5524 31.2204 11.3861 31.2471 11.2147C31.5423 9.37429 31.9114 7.5592 32.326 5.74217C32.385 5.47207 32.4441 5.20197 32.505 4.92369C32.564 4.66446 32.6231 4.40524 32.6839 4.13816C32.7362 3.90568 32.7884 3.67319 32.8423 3.43367C33.0544 2.77974 33.2796 2.3767 33.7469 1.87498C34.4118 1.65332 34.8326 1.60863 35.5224 1.60284ZM36.5594 5.62498C36.4349 6.22319 36.3104 6.82139 36.1822 7.43772C36.0589 8.01812 35.9344 8.59825 35.8098 9.17837C35.724 9.58094 35.6394 9.98377 35.5562 10.3869C35.4361 10.9671 35.3115 11.5462 35.1861 12.1252C35.1318 12.3948 35.1318 12.3948 35.0765 12.6698C34.8454 13.7109 34.6092 14.352 33.7469 15C33.3119 15.2169 33.3119 15.2169 32.8661 15.358C32.7013 15.4124 32.5364 15.4669 32.3666 15.5231C32.1937 15.5777 32.0207 15.6322 31.8426 15.6885C30.4689 16.1421 29.2028 16.6316 27.9516 17.3712C27.1553 17.6804 26.6311 17.6852 25.7781 17.5781C25.0165 17.2193 24.3349 16.7614 23.6394 16.289C23.2468 16.0313 22.854 15.7738 22.4612 15.5163C22.2694 15.389 22.0775 15.2616 21.8799 15.1304C21.1046 14.6207 20.3158 14.1346 19.5232 13.6523C19.2806 13.5037 19.038 13.355 18.7881 13.2019C18.5356 13.0478 18.5356 13.0478 18.2781 12.8906C16.5178 14.1093 15.0761 15.5794 13.5906 17.1094C13.9529 18.1585 14.5214 19.0272 15.1434 19.9365C15.2467 20.0903 15.35 20.2441 15.4564 20.4025C15.9517 21.1389 16.4531 21.8702 16.9662 22.5943C17.1332 22.8339 17.3003 23.0734 17.4725 23.3203C17.6226 23.5306 17.7728 23.7409 17.9275 23.9575C18.3503 24.7435 18.4725 25.3604 18.5125 26.25C18.3202 26.7297 18.3202 26.7297 18.0144 27.1289C17.0269 28.5444 16.3339 30.0963 15.8758 31.7578C15.4656 32.5781 15.4656 32.5781 14.6279 32.9342C12.9447 33.4404 11.202 33.7177 9.47441 34.0283C9.12267 34.0927 8.77095 34.1573 8.41926 34.2219C7.56524 34.379 6.71077 34.5332 5.85624 34.6875C5.85624 36.7758 5.85624 38.864 5.85624 41.0156C6.36381 41.1123 6.87138 41.209 7.39433 41.3086C7.65797 41.359 7.65797 41.359 7.92694 41.4104C8.95943 41.6051 9.9933 41.7834 11.0308 41.9494C11.2726 41.9889 11.5145 42.0285 11.7636 42.0692C12.2447 42.1473 12.7262 42.2232 13.208 42.2967C13.43 42.3331 13.6521 42.3696 13.8808 42.4072C14.0791 42.4383 14.2774 42.4694 14.4817 42.5015C15.0796 42.6811 15.3158 42.8729 15.7 43.3594C15.9387 43.9049 16.1545 44.4421 16.3592 45C16.8769 46.3673 17.4767 47.6083 18.2543 48.8525C18.6117 49.6839 18.6351 50.1922 18.5125 51.0937C18.1544 51.8297 17.6986 52.4798 17.2234 53.1445C17.0962 53.329 16.9689 53.5134 16.8378 53.7034C15.9634 54.964 15.064 56.2073 14.1363 57.4292C13.7813 57.8626 13.7813 57.8626 13.825 58.3594C14.4022 58.9564 15.0641 59.4667 15.7 60C15.9169 60.193 16.1338 60.3861 16.3573 60.585C16.5803 60.7787 16.8033 60.9723 17.033 61.1719C17.2418 61.3556 17.4505 61.5392 17.6656 61.7285C18.2349 62.1664 18.2349 62.1664 18.8182 62.0671C19.5768 61.8364 20.1339 61.4921 20.7967 61.0565C21.051 60.8912 21.3052 60.726 21.5671 60.5557C21.8332 60.3803 22.0991 60.2049 22.365 60.0293C22.8865 59.6871 23.4089 59.3463 23.9315 59.0057C24.1622 58.8538 24.3928 58.7019 24.6304 58.5453C26.4643 57.4099 26.4643 57.4099 27.4105 57.4548C28.3444 57.7193 29.2024 58.0939 30.0855 58.4932C31.3048 59.037 32.5479 59.4467 33.8302 59.8215C35.1715 60.715 35.2183 62.6059 35.5294 64.0878C35.6546 64.722 35.7779 65.3565 35.9002 65.9912C36.1177 67.1078 36.3352 68.2245 36.5594 69.375C38.8797 69.375 41.2 69.375 43.5906 69.375C43.7742 68.4269 43.7742 68.4269 43.9614 67.4597C44.0883 66.8463 44.2191 66.2338 44.3502 65.6213C44.439 65.1966 44.5237 64.771 44.6043 64.3446C45.2772 60.8049 45.2772 60.8049 46.2854 60.0033C46.9543 59.7615 47.5757 59.6352 48.2781 59.5312C48.6139 59.4138 48.9466 59.2871 49.2742 59.1485C49.4213 59.0902 49.5685 59.0319 49.7201 58.9718C49.863 58.9147 50.0059 58.8576 50.1531 58.7988C50.3033 58.7399 50.4534 58.681 50.6081 58.6203C51.2956 58.3462 51.878 58.0688 52.4969 57.6562C54.629 57.3146 56.0297 58.38 57.741 59.5019C58.0187 59.6791 58.2968 59.8558 58.5751 60.032C59.5248 60.6357 60.4667 61.2507 61.4031 61.875C62.2617 61.8097 62.648 61.4027 63.2195 60.791C64.008 59.9686 64.828 59.2185 65.7006 58.4866C66.1447 58.103 66.1447 58.103 66.5594 57.4219C66.4201 57.2454 66.2808 57.069 66.1373 56.8872C64.9845 55.4156 63.8628 53.9214 62.7801 52.3974C62.6664 52.2425 62.5527 52.0875 62.4355 51.9278C61.9572 51.2442 61.6604 50.7517 61.5102 49.9228C61.6803 48.9818 62.0697 48.2617 62.531 47.4316C63.2759 46.04 63.7597 44.7864 63.9904 43.2083C64.3261 42.3854 64.8136 42.2949 65.6219 41.9531C66.2766 41.7731 66.9371 41.6471 67.6049 41.5256C67.7902 41.4901 67.9755 41.4547 68.1664 41.4182C68.7534 41.3065 69.3409 41.1976 69.9285 41.0888C70.3286 41.0132 70.7287 40.9374 71.1288 40.8613C72.1052 40.6758 73.0822 40.4943 74.0594 40.3125C74.0594 38.2242 74.0594 36.1359 74.0594 33.9844C73.3908 33.8768 72.7222 33.7692 72.0333 33.6584C71.3862 33.5515 70.7394 33.4433 70.0926 33.3349C69.6429 33.2603 69.193 33.1871 68.7428 33.1154C68.0958 33.0121 67.4498 32.9036 66.8038 32.7942C66.6024 32.7631 66.4009 32.7321 66.1934 32.7001C64.8015 32.457 64.8015 32.457 64.2213 31.896C63.8736 31.1866 63.5832 30.461 63.3074 29.7217C62.842 28.5023 62.3442 27.3896 61.61 26.3022C61.2896 25.4955 61.2521 24.7498 61.4031 23.9062C61.7097 23.243 62.1198 22.6851 62.5603 22.1045C62.796 21.7789 63.0316 21.4532 63.2671 21.1276C63.3863 20.9662 63.5055 20.8047 63.6283 20.6384C64.167 19.9025 64.6814 19.1505 65.1971 18.3984C65.4948 17.9687 65.7927 17.539 66.0906 17.1094C64.7713 15.4508 63.2055 14.073 61.6375 12.6562C60.4755 13.0567 59.4823 13.6965 58.4441 14.3408C58.2567 14.4554 58.0693 14.57 57.8762 14.688C57.057 15.1909 56.244 15.6967 55.4549 16.246C55.2377 16.3956 55.0205 16.5451 54.7967 16.6992C54.6145 16.8309 54.4323 16.9627 54.2446 17.0984C53.1693 17.5565 52.2386 17.1854 51.1813 16.8036C50.8916 16.6825 50.6026 16.5598 50.3143 16.4355C49.1004 15.9275 47.9061 15.4929 46.6265 15.173C46.0632 14.9601 45.844 14.7681 45.4656 14.2969C45.2641 13.6481 45.2641 13.6481 45.1058 12.8668C45.0172 12.4404 45.0172 12.4404 44.9268 12.0053C44.8382 11.5589 44.8382 11.5589 44.7478 11.1035C44.6279 10.5194 44.508 9.93528 44.388 9.35118C44.3101 8.96206 44.3101 8.96206 44.2305 8.56508C44.0281 7.58274 43.8082 6.60407 43.5906 5.62498C41.2703 5.62498 38.95 5.62498 36.5594 5.62498Z" fill="white"/>
<path d="M86.4439 59.3756C86.7416 59.3739 86.7416 59.3739 87.0452 59.3722C87.4637 59.3714 87.8821 59.3736 88.3005 59.3785C88.9396 59.3847 89.5777 59.3785 90.2168 59.371C90.6242 59.3718 91.0316 59.3733 91.439 59.3756C91.7243 59.372 91.7243 59.372 92.0154 59.3684C92.981 59.3883 93.4036 59.452 94.2041 60.0385C94.7252 60.7608 94.9003 61.2454 95.0544 62.1176C95.1035 62.3845 95.1526 62.6515 95.2032 62.9265C95.2493 63.2031 95.2953 63.4797 95.3428 63.7646C95.3934 64.0421 95.444 64.3196 95.4962 64.6055C95.6855 65.6663 95.8555 66.6548 95.8555 67.7344C95.9969 67.7655 96.1383 67.7966 96.284 67.8287C96.4713 67.8701 96.6586 67.9114 96.8516 67.9541C97.0365 67.9949 97.2214 68.0357 97.4119 68.0777C97.9649 68.2031 97.9649 68.2031 98.4153 68.3594C98.9036 68.4837 98.9036 68.4837 99.3233 68.246C99.4636 68.1442 99.6038 68.0425 99.7483 67.9376C99.906 67.8258 100.064 67.714 100.226 67.5989C100.47 67.4194 100.47 67.4194 100.719 67.2363C102.688 65.8208 102.688 65.8208 103.657 65.1892C103.877 65.0452 103.877 65.0452 104.101 64.8983C104.527 64.6875 104.527 64.6875 105.392 64.6582C106.326 64.9756 106.662 65.3802 107.34 66.0937C107.58 66.3382 107.821 66.582 108.063 66.8252C108.189 66.9519 108.314 67.0785 108.443 67.2089C109.859 68.6423 109.859 68.6423 111.368 69.9756C112.247 70.7373 112.247 70.7373 112.496 71.4844C112.568 73.4708 111.051 74.977 109.923 76.4941C109.017 77.701 109.017 77.701 108.791 79.1306C108.97 79.6623 109.189 80.1295 109.449 80.625C109.537 81.0137 109.62 81.4036 109.684 81.7969C109.825 81.809 109.966 81.8212 110.111 81.8337C111.571 81.9683 113.004 82.1698 114.444 82.4414C114.648 82.4752 114.851 82.5091 115.06 82.5439C115.257 82.5814 115.454 82.6189 115.657 82.6575C115.833 82.6891 116.008 82.7208 116.189 82.7534C116.984 83.0791 117.366 83.4551 117.887 84.1406C118.052 84.8364 118.046 85.5091 118.034 86.2216C118.035 86.4206 118.035 86.6196 118.036 86.8246C118.036 87.244 118.033 87.6635 118.027 88.0828C118.019 88.7244 118.022 89.3652 118.026 90.0069C118.025 90.415 118.022 90.8232 118.02 91.2314C118.021 91.4228 118.022 91.6142 118.023 91.8114C118.006 92.6356 117.963 93.1724 117.486 93.8574C116.889 94.2595 116.441 94.4122 115.736 94.5502C115.387 94.6218 115.387 94.6218 115.031 94.6948C114.789 94.7407 114.547 94.7867 114.298 94.834C113.384 95.0164 112.471 95.2024 111.559 95.3906C111.388 95.422 111.218 95.4534 111.043 95.4858C110.286 95.6518 109.975 95.7746 109.536 96.4279C109.464 96.6512 109.392 96.8744 109.317 97.1045C109.24 97.3259 109.162 97.5474 109.082 97.7756C108.899 98.9658 109.539 99.7953 110.213 100.735C110.359 100.944 110.506 101.154 110.657 101.37C110.964 101.807 111.274 102.241 111.587 102.674C112.833 104.473 112.833 104.473 112.899 105.543C112.695 106.586 112.394 106.977 111.647 107.725C111.477 107.898 111.477 107.898 111.304 108.074C111.058 108.324 110.809 108.572 110.559 108.819C110.123 109.248 109.695 109.683 109.267 110.121C106.723 112.706 106.723 112.706 105.635 112.802C104.627 112.724 104.243 112.493 103.445 111.889C103.087 111.631 103.087 111.631 102.721 111.367C102.226 110.999 101.733 110.629 101.242 110.256C99.9978 109.291 99.9978 109.291 98.5145 109.021C97.9815 109.201 97.5207 109.42 97.0274 109.687C96.6387 109.775 96.2488 109.858 95.8555 109.922C95.8373 110.134 95.8373 110.134 95.8187 110.35C95.684 111.809 95.4826 113.242 95.211 114.683C95.1771 114.886 95.1433 115.089 95.1084 115.298C95.0522 115.594 95.0522 115.594 94.9949 115.896C94.9633 116.071 94.9316 116.246 94.899 116.427C94.5741 117.221 94.1944 117.605 93.5118 118.125C92.8324 118.287 92.1777 118.279 91.482 118.264C91.1913 118.264 91.1913 118.264 90.8948 118.264C90.4864 118.263 90.078 118.259 89.6697 118.252C89.0451 118.242 88.4212 118.242 87.7966 118.244C87.3991 118.242 87.0016 118.239 86.6041 118.235C86.4178 118.235 86.2315 118.235 86.0396 118.235C85.2952 118.219 84.7063 118.175 84.0331 117.844C83.5645 117.302 83.4645 116.89 83.3283 116.189C83.2796 115.946 83.2308 115.703 83.1805 115.452C83.1335 115.198 83.0865 114.944 83.0381 114.683C82.9636 114.308 82.9636 114.308 82.8875 113.927C82.6269 112.596 82.4101 111.27 82.2618 109.922C81.8967 109.796 81.5302 109.675 81.1631 109.556C80.9592 109.488 80.7553 109.42 80.5451 109.35C79.6688 109.167 79.1185 109.222 78.3474 109.7C77.8903 110.022 77.4458 110.357 77.003 110.698C73.7427 113.167 73.7427 113.167 72.1836 112.969C71.103 112.439 70.3555 111.655 69.5323 110.801C68.678 109.928 67.8271 109.073 66.8955 108.281C65.5733 107.138 65.5733 107.138 65.1524 106.406C65.2159 105.038 65.6531 104.158 66.3682 103.037C66.4619 102.883 66.5556 102.729 66.6522 102.57C67.1816 101.708 67.7548 100.925 68.3897 100.137C68.746 99.6741 68.746 99.6741 68.9024 99.1406C68.733 98.2032 68.3713 97.4177 67.9649 96.5625C67.9649 96.4078 67.9649 96.2531 67.9649 96.0937C67.6742 96.0638 67.3836 96.0339 67.0841 96.0031C65.7402 95.8528 64.4068 95.6521 63.0723 95.4346C62.8306 95.3988 62.5889 95.363 62.3399 95.3261C62.1085 95.2878 61.877 95.2496 61.6386 95.2103C61.3255 95.1609 61.3255 95.1609 61.0061 95.1106C60.2829 94.8584 60.0992 94.6764 59.7618 93.9844C59.6609 93.2806 59.6633 92.585 59.6684 91.875C59.6677 91.6704 59.667 91.4659 59.6663 91.2552C59.6659 90.8233 59.6672 90.3915 59.6701 89.9597C59.6739 89.2992 59.6701 88.639 59.6656 87.9785C59.6661 87.5586 59.667 87.1387 59.6684 86.7187C59.667 86.5214 59.6655 86.3242 59.6641 86.1209C59.6737 85.3143 59.6887 84.7538 60.0564 84.0268C60.5354 83.6106 60.8468 83.4994 61.4683 83.3835C61.6646 83.3453 61.8609 83.3072 62.0632 83.2679C62.2705 83.232 62.4778 83.1961 62.6914 83.1592C62.9018 83.12 63.1122 83.0808 63.3289 83.0404C64.7891 82.776 66.2466 82.5681 67.7305 82.5C67.8431 82.129 67.9553 81.7579 68.0674 81.3867C68.13 81.1801 68.1925 80.9734 68.2569 80.7605C68.3152 80.5611 68.3736 80.3617 68.4336 80.1562C68.4965 80.0028 68.5593 79.8493 68.6241 79.6911C68.6947 78.9313 68.2953 78.5386 67.8623 77.9297C67.691 77.6819 67.5197 77.4342 67.3432 77.1789C66.9833 76.6701 66.6178 76.1663 66.2501 75.6628C64.7954 73.6122 64.7954 73.6122 64.6983 72.5976C65.0073 71.3616 65.6588 70.7154 66.5586 69.8437C66.6961 69.7063 66.8336 69.5688 66.9752 69.4272C67.2445 69.1579 67.5149 68.8896 67.7864 68.6224C68.7125 67.6819 69.5657 66.6763 70.3819 65.6396C70.9272 64.9732 71.1759 64.9338 72.0381 64.7873C73.8209 64.8086 75.3053 66.3726 76.6528 67.4007C77.8871 68.3593 77.8871 68.3593 79.3597 68.6459C79.9062 68.4682 80.3596 68.2573 80.8555 67.9687C81.0221 67.9119 81.1888 67.8551 81.3604 67.7966C81.861 67.5177 81.861 67.5177 82.0099 66.8414C82.0798 66.4292 82.0798 66.4292 82.151 66.0086C82.2061 65.7087 82.2613 65.4089 82.3181 65.0999C82.4005 64.6234 82.4813 64.1466 82.5615 63.6697C82.6406 63.2084 82.7253 62.7481 82.8102 62.2879C82.8804 61.8744 82.8804 61.8744 82.952 61.4526C83.5691 59.5818 84.6756 59.3535 86.4439 59.3756ZM86.7149 63.5156C86.6242 63.9785 86.5336 64.4413 86.4402 64.9182C86.3489 65.3682 86.2576 65.8181 86.1656 66.2679C86.1025 66.5795 86.0407 66.8914 85.9802 67.2036C85.8928 67.6534 85.8003 68.1022 85.7078 68.551C85.6538 68.821 85.5998 69.0911 85.5442 69.3693C85.282 70.1582 85.0124 70.4976 84.3711 71.0156C83.6872 71.3306 83.6872 71.3306 82.9209 71.6015C81.9783 71.9414 81.0779 72.2968 80.1817 72.7441C79.1973 73.1757 78.6241 73.2526 77.5743 72.8906C76.9086 72.4614 76.2808 72.0005 75.6526 71.5182C74.7606 70.8353 73.8274 70.2225 72.8868 69.6094C71.932 69.9867 71.3012 70.673 70.6016 71.3965C70.4829 71.5173 70.3641 71.6382 70.2418 71.7627C69.9505 72.0595 69.6607 72.3577 69.3711 72.6562C69.6867 73.3121 70.0361 73.9223 70.4331 74.5322C70.5458 74.7057 70.6585 74.8793 70.7746 75.0581C70.8916 75.2371 71.0085 75.4161 71.1289 75.6006C71.2459 75.7805 71.3628 75.9604 71.4833 76.1458C71.9477 76.8599 72.4142 77.5724 72.8868 78.2812C73.0017 79.5427 72.7655 80.3907 72.2422 81.5332C72.1781 81.6748 72.1139 81.8164 72.0479 81.9623C71.8601 82.3766 71.6703 82.7899 71.4805 83.2031C71.2417 83.7752 71.0033 84.3474 70.7673 84.9206C70.389 85.5816 69.8883 85.7679 69.1792 85.9635C68.9177 86.02 68.6563 86.0765 68.3869 86.1346C68.1037 86.1966 67.8205 86.2585 67.5286 86.3223C67.2327 86.3855 66.9368 86.4486 66.6319 86.5137C66.3332 86.5786 66.0346 86.6436 65.7269 86.7105C64.9888 86.8708 64.2503 87.0293 63.5118 87.1875C63.5118 88.657 63.5118 90.1265 63.5118 91.6406C63.9773 91.717 64.4429 91.7935 64.9226 91.8722C65.3741 91.9488 65.8256 92.0255 66.2769 92.1027C66.5903 92.1557 66.9038 92.2078 67.2174 92.2588C67.6687 92.3323 68.1194 92.4099 68.57 92.4875C68.8413 92.5329 69.1125 92.5783 69.392 92.6251C70.0886 92.8164 70.3547 92.9434 70.7774 93.5156C71.0099 94.1089 71.0099 94.1089 71.2168 94.8047C71.6005 96.0331 72.0813 97.1572 72.6634 98.3038C72.9431 99.0581 72.9971 99.5105 72.8868 100.312C72.5744 100.978 72.1817 101.577 71.7735 102.187C71.6695 102.348 71.5656 102.509 71.4585 102.675C71.1568 103.14 70.8508 103.601 70.543 104.062C70.4014 104.275 70.4014 104.275 70.2569 104.493C70.0402 104.818 69.8229 105.144 69.6055 105.469C69.9774 106.383 70.5743 106.954 71.2754 107.637C71.5954 107.95 71.5954 107.95 71.9218 108.27C72.0855 108.429 72.2493 108.587 72.418 108.75C73.2468 108.449 73.9056 108.094 74.6125 107.569C74.8012 107.433 74.9899 107.297 75.1843 107.157C75.5755 106.872 75.9649 106.585 76.3525 106.295C77.6138 105.394 78.3634 105.01 79.918 105.234C80.5827 105.458 80.5827 105.458 81.1778 105.762C82.041 106.196 82.8621 106.521 83.7852 106.802C84.4062 107.054 84.7471 107.198 85.109 107.767C85.3141 108.404 85.4289 109.027 85.543 109.687C85.6629 110.269 85.787 110.85 85.9112 111.432C85.9973 111.839 86.0812 112.247 86.1627 112.655C86.2748 113.591 86.2748 113.591 86.7149 114.375C87.0296 114.395 87.3453 114.4 87.6606 114.398C87.8502 114.397 88.0398 114.396 88.2351 114.396C88.4344 114.394 88.6336 114.392 88.8389 114.39C89.0391 114.389 89.2392 114.388 89.4454 114.386C89.9415 114.384 90.4376 114.379 90.9336 114.375C91.2591 113.027 91.5813 111.683 91.8153 110.316C91.8443 110.148 91.8734 109.98 91.9033 109.807C91.9592 109.478 92.0127 109.149 92.0637 108.819C92.1696 108.199 92.2706 107.682 92.6237 107.154C93.2113 106.763 93.8148 106.543 94.4786 106.304C95.5872 105.897 96.6528 105.46 97.7076 104.929C98.3862 104.703 98.893 104.69 99.6055 104.766C100.276 105.118 100.276 105.118 100.953 105.601C101.195 105.77 101.437 105.94 101.686 106.114C101.927 106.288 102.169 106.462 102.418 106.641C102.867 106.953 103.316 107.266 103.766 107.578C104.098 107.812 104.43 108.046 104.762 108.281C105.676 107.909 106.247 107.312 106.93 106.611C107.139 106.398 107.348 106.185 107.563 105.965C107.722 105.801 107.88 105.637 108.043 105.469C107.745 104.666 107.402 103.984 106.921 103.276C106.797 103.092 106.673 102.907 106.545 102.717C106.416 102.528 106.286 102.339 106.153 102.144C105.896 101.764 105.64 101.385 105.383 101.006C105.27 100.839 105.156 100.672 105.039 100.5C104.505 99.6879 104.448 99.1799 104.527 98.2031C104.862 97.4139 104.862 97.4139 105.304 96.5918C105.784 95.6858 106.238 94.8038 106.549 93.8232C106.932 92.8997 107.169 92.7829 108.043 92.3437C108.52 92.1849 109.004 92.0433 109.49 91.9162C109.762 91.8444 110.033 91.7727 110.312 91.6987C110.733 91.5902 110.733 91.5902 111.163 91.4795C111.448 91.4044 111.734 91.3293 112.028 91.252C112.73 91.0674 113.434 90.885 114.137 90.7031C114.137 89.2336 114.137 87.764 114.137 86.25C113.691 86.1708 113.245 86.0917 112.785 86.0101C112.201 85.9046 111.616 85.799 111.031 85.6933C110.737 85.6414 110.443 85.5894 110.14 85.5359C109.858 85.4845 109.576 85.4332 109.284 85.3802C109.024 85.3336 108.764 85.287 108.496 85.2389C107.872 85.093 107.405 84.9592 106.871 84.6094C106.596 84.0529 106.375 83.5348 106.168 82.9541C106.049 82.6338 105.929 82.3137 105.808 81.9937C105.75 81.8387 105.693 81.6836 105.633 81.5239C105.358 80.8197 105.015 80.1497 104.66 79.4824C104.408 78.5364 104.57 77.7153 105.017 76.8498C105.342 76.3199 105.684 75.8057 106.036 75.293C106.154 75.1162 106.272 74.9395 106.394 74.7574C106.707 74.2896 107.023 73.8243 107.34 73.3594C107.85 72.7376 107.85 72.7376 107.802 72.2278C107.458 71.4592 106.871 70.9426 106.271 70.3711C106.088 70.193 106.088 70.193 105.901 70.0113C105.601 69.7194 105.299 69.4298 104.996 69.1406C103.279 70.2086 103.279 70.2086 101.618 71.3598C101.485 71.4559 101.352 71.552 101.216 71.651C100.837 71.9272 100.46 72.207 100.084 72.4869C99.2775 72.9436 98.8762 73.0143 97.9649 72.8906C97.4055 72.6672 97.4055 72.6672 96.8663 72.3633C95.8034 71.7836 94.7667 71.4415 93.5932 71.1511C92.6994 70.5502 92.5913 69.683 92.3399 68.6719C92.286 68.4556 92.2321 68.2393 92.1766 68.0165C92.0137 67.3331 91.8603 66.6482 91.71 65.9619C91.6309 65.6073 91.6309 65.6073 91.5502 65.2455C91.4218 64.6691 91.2948 64.0924 91.168 63.5156C89.6985 63.5156 88.2289 63.5156 86.7149 63.5156Z" fill="white"/>
<path d="M51.4254 25.7437C54.6384 28.434 56.5056 32.1288 56.9113 36.2696C57.1264 40.5579 55.9835 44.2962 53.2052 47.5782C53.0663 47.7434 52.9273 47.9087 52.7841 48.0789C49.655 51.4822 44.9458 53.3472 40.3878 53.5401C35.4486 53.3868 30.835 51.7315 27.3434 48.1934C24.2615 44.5899 23.0947 40.1217 23.3873 35.4684C23.7874 31.2878 26.3429 27.8604 29.4857 25.231C36.1356 20.2436 44.9336 20.78 51.4254 25.7437ZM30.0021 29.7657C28.1099 32.2649 26.9036 35.0375 27.1896 38.2032C27.7905 41.5612 28.9551 44.7171 31.7608 46.8531C34.9881 49.0199 38.7071 49.8895 42.5412 49.2188C46.4442 48.3258 49.4922 46.2719 51.6443 42.8833C53.1771 40.1422 53.3703 36.9873 52.5241 33.9862C51.3524 30.7642 49.0258 28.2037 45.9396 26.7188C40.4627 24.4507 34.1461 25.2299 30.0021 29.7657Z" fill="white"/>
<path d="M97.1889 77.626C99.9999 79.8477 102.125 82.8853 102.659 86.4843C102.928 91.1587 102.348 94.9899 99.1877 98.6572C96.5294 101.42 92.7897 102.831 88.9924 102.964C85.0575 102.858 81.4089 101.34 78.5975 98.5876C75.6618 95.2689 74.752 91.5886 74.9574 87.2658C75.2678 83.5554 77.2742 80.5273 79.925 78.0468C84.9322 74.0831 92.0029 73.8609 97.1889 77.626ZM82.9719 80.8593C82.7641 80.9947 82.5562 81.13 82.342 81.2695C80.1963 83.3572 79.042 86.0064 78.9289 88.9746C78.9752 91.7773 79.9282 94.0995 81.8248 96.1614C83.7149 97.9479 85.9852 99.1211 88.6125 99.1479C91.5568 99.0088 93.8999 98.0777 96.0969 96.0937C97.7606 94.2513 98.9262 92.0336 99.1438 89.5312C99.1586 89.3841 99.1734 89.2369 99.1886 89.0853C99.3205 86.7325 98.5305 84.5024 96.996 82.7316C96.854 82.5778 96.712 82.424 96.5657 82.2656C96.443 82.119 96.3203 81.9725 96.194 81.8215C94.5584 79.9905 92.1876 78.9931 89.7688 78.7499C87.2634 78.6342 84.9872 79.4193 82.9719 80.8593Z" fill="white"/>
<path d="M16.8779 71.9533C17.3864 72.3379 17.3864 72.3379 17.9381 72.8551C18.1438 73.0468 18.3495 73.2385 18.5614 73.436C18.7793 73.6428 18.9972 73.8496 19.2217 74.0626C19.4438 74.2695 19.666 74.4763 19.8948 74.6893C20.4693 75.2282 21.0375 75.7719 21.6015 76.3218C21.8337 76.5465 22.0679 76.7693 22.3037 76.9903C24.2639 78.8298 24.2639 78.8298 24.5411 79.7759C24.5572 80.5302 24.4133 81.035 24.0264 81.6798C23.3903 82.0615 22.8711 82.2597 22.1212 82.2356C20.8327 81.7622 19.8792 80.4632 18.9873 79.4533C19.1231 80.9384 19.4626 82.2611 19.9395 83.672C20.0123 83.8876 20.0852 84.1032 20.1603 84.3254C23.1076 92.7905 29.2486 99.3593 37.2173 103.36C41.2576 105.313 45.3798 106.206 49.8364 106.591C50.1978 106.626 50.1978 106.626 50.5666 106.663C50.7818 106.681 50.997 106.7 51.2187 106.719C51.9542 106.917 52.2595 107.23 52.7373 107.813C52.9223 108.537 52.8848 109.191 52.7373 109.922C52.3125 110.523 52.3125 110.523 51.5654 110.86C44.7437 111.981 35.9114 108.176 30.4396 104.331C26.1235 101.206 22.541 97.5482 19.6904 93.047C19.5955 92.8972 19.5006 92.7474 19.4028 92.593C16.6964 88.2401 15.3745 83.49 14.2998 78.5158C14.1437 78.6737 14.1437 78.6737 13.9845 78.8348C13.5141 79.3101 13.0427 79.7845 12.5713 80.2589C12.4075 80.4247 12.2438 80.5904 12.0751 80.7611C11.918 80.919 11.7609 81.0768 11.599 81.2395C11.4542 81.3855 11.3093 81.5316 11.1601 81.6821C10.6454 82.1604 10.3602 82.2598 9.65625 82.3537C8.90918 82.2658 8.90918 82.2658 8.23535 81.7824C7.7373 81.0939 7.7373 81.0939 7.54688 80.3175C7.79182 79.2059 8.27575 78.8012 9.09961 78.0489C9.55236 77.6333 9.93814 77.2149 10.3301 76.7433C11.2009 75.73 12.1411 74.7885 13.084 73.8429C13.2413 73.6846 13.3985 73.5263 13.5606 73.3631C13.7094 73.2148 13.8581 73.0665 14.0114 72.9137C14.1458 72.7795 14.2802 72.6454 14.4187 72.5072C15.1457 71.8431 15.9406 71.6884 16.8779 71.9533Z" fill="white"/>
<path d="M90.1621 17.7364C98.9978 22.3798 105.82 30.4658 108.816 39.9838C109.776 43.2399 110.37 46.4181 110.52 49.8046C110.53 50.0197 110.54 50.2348 110.55 50.4565C110.575 50.9813 110.599 51.5062 110.622 52.0312C110.719 51.9247 110.816 51.8182 110.915 51.7085C111.359 51.2251 111.811 50.7494 112.263 50.2734C112.415 50.1057 112.567 49.938 112.723 49.7652C114.032 48.4052 114.032 48.4052 115.156 48.3828C116.013 48.5156 116.013 48.5156 116.599 48.8818C117.1 49.6962 117.078 50.1449 116.95 51.0937C116.511 51.7786 115.954 52.3254 115.376 52.8945C115.214 53.0587 115.052 53.2228 114.885 53.3919C114.542 53.7373 114.196 54.0805 113.849 54.4218C113.32 54.9442 112.8 55.4752 112.281 56.0078C111.946 56.3427 111.61 56.677 111.274 57.0107C111.12 57.1696 110.965 57.3285 110.806 57.4923C110.093 58.1811 109.523 58.6944 108.51 58.7878C107.305 58.6725 106.614 57.9014 105.803 57.0702C105.565 56.835 105.565 56.835 105.322 56.595C104.989 56.2631 104.658 55.9289 104.33 55.5925C103.827 55.0796 103.315 54.5774 102.801 54.0755C102.478 53.7511 102.155 53.4261 101.833 53.1005C101.68 52.9513 101.527 52.802 101.369 52.6482C100.647 51.8955 100.217 51.3858 100.193 50.3164C100.31 49.4531 100.31 49.4531 100.661 48.8671C101.473 48.3799 102.21 48.3358 103.122 48.5156C103.749 48.8904 104.228 49.3692 104.734 49.8925C104.867 50.0227 105 50.1529 105.136 50.2871C105.485 50.6298 105.827 50.9786 106.169 51.3281C106.324 51.4827 106.479 51.6374 106.638 51.7968C106.422 42.2326 102.9 33.6213 96.039 26.878C93.8784 24.8367 91.433 23.2092 88.8254 21.7968C88.6761 21.7156 88.5268 21.6343 88.3729 21.5506C86.0447 20.3108 83.6738 19.5165 81.1168 18.872C79.7719 18.5175 78.8787 18.2551 78.0442 17.1093C77.9124 16.2743 77.9124 16.2743 78.0442 15.4687C80.2158 12.6231 87.5369 16.4243 90.1621 17.7364Z" fill="white"/>
</svg>
