<svg width="121" height="120" viewBox="0 0 121 120" fill="none" xmlns="http://www.w3.org/2000/svg">
<g clip-path="url(#clip0_9452_26394)">
<path d="M53.1719 0C58.1219 0 63.0719 0 68.1719 0C69.5781 5.625 69.5781 5.625 69.5781 7.03125C69.844 7.07476 70.1099 7.11826 70.3838 7.16309C71.565 7.422 72.6535 7.86019 73.7676 8.32031C73.9432 8.39269 74.1189 8.46507 74.2999 8.53964C75.0504 8.85533 75.6931 9.15478 76.375 9.60938C77.149 9.52458 77.7062 9.16843 78.3535 8.75336C78.5482 8.62934 78.7429 8.50531 78.9435 8.37753C79.1449 8.24747 79.3462 8.1174 79.5537 7.9834C79.756 7.85424 79.9583 7.72508 80.1667 7.59201C80.9383 7.0986 81.7067 6.60179 82.4688 6.09375C83.3666 6.15317 83.8027 6.6392 84.4163 7.25836C84.6133 7.45542 84.8103 7.65248 85.0133 7.85551C85.2238 8.06962 85.4343 8.28373 85.6511 8.50433C85.8683 8.72249 86.0855 8.94065 86.3092 9.16543C86.8856 9.74455 87.4599 10.3257 88.0338 10.9074C88.6201 11.5009 89.2085 12.0925 89.7966 12.6842C90.9497 13.8448 92.1006 15.0076 93.25 16.1719C93.1399 16.5064 93.0294 16.8409 92.9188 17.1752C92.8573 17.3615 92.7958 17.5477 92.7324 17.7396C92.4904 18.4462 92.2093 19.1321 91.917 19.8193C91.8146 20.0613 91.7122 20.3033 91.6066 20.5527C91.5302 20.7312 91.4538 20.9098 91.375 21.0938C91.5427 21.0998 91.7104 21.1058 91.8831 21.1121C94.9059 21.2841 97.3754 22.0989 99.8125 23.9062C99.9956 24.0407 100.179 24.1751 100.367 24.3137C102.935 26.388 104.661 29.5747 105.203 32.8125C105.233 33.4124 105.253 34.0059 105.259 34.606C105.261 34.7787 105.263 34.9513 105.265 35.1292C105.268 35.4946 105.27 35.86 105.272 36.2254C105.275 36.5929 105.28 36.9603 105.287 37.3277C105.372 41.8146 104.339 45.1408 101.231 48.4854C100.993 48.7324 100.993 48.7324 100.75 48.9844C100.623 49.1224 100.496 49.2605 100.365 49.4028C100.047 49.6875 100.047 49.6875 99.5781 49.6875C99.6555 49.9969 99.7328 50.3062 99.8125 50.625C101.088 50.9553 102.364 51.2847 103.641 51.6135C104.074 51.7253 104.508 51.8374 104.942 51.9497C105.566 52.1114 106.191 52.2724 106.816 52.4332C107.009 52.4832 107.202 52.5333 107.4 52.5849C107.917 52.7174 108.435 52.844 108.953 52.9688C109.328 53.0632 109.328 53.0632 109.711 53.1596C110.547 53.2157 110.912 52.9955 111.622 52.5595C111.862 52.4213 112.101 52.2831 112.348 52.1407C112.839 51.8486 113.328 51.5521 113.813 51.2508C116.361 49.8024 117.302 50.1562 120.672 50.1562C120.672 59.5922 120.672 69.0281 120.672 78.75C118.113 80.0968 115.572 81.4338 112.97 82.6884C112.522 82.9058 112.074 83.1235 111.625 83.3413C111.313 83.4929 111.001 83.6445 110.688 83.796C108.681 84.7697 106.679 85.7545 104.677 86.7388C102.736 87.6932 100.793 88.644 98.8446 89.584C97.2839 90.3368 95.7272 91.0973 94.1748 91.8669C93.3568 92.2721 92.5373 92.6733 91.7129 93.0653C90.94 93.4329 90.1729 93.8104 89.4089 94.196C88.9963 94.4009 88.5785 94.595 88.1606 94.7888C86.7321 95.5216 86.7321 95.5216 85.9076 96.8487C85.7101 97.6611 85.7101 97.6611 85.6123 98.4547C85.4097 99.8915 84.4504 100.765 83.3742 101.643C82.3703 102.356 81.38 102.77 80.125 102.656C80.1057 102.932 80.0863 103.207 80.0664 103.491C79.8579 105.13 79.0226 106.276 77.7812 107.344C76.6395 108.175 75.6675 108.417 74.2656 108.516C74.256 108.82 74.2463 109.125 74.2363 109.438C74.0612 110.962 73.3425 112.103 72.1974 113.111C71.0261 113.921 69.8018 114.183 68.4062 114.375C68.3966 114.68 68.3869 114.984 68.377 115.298C68.222 116.646 67.6685 117.594 66.7656 118.594C64.8135 120.141 62.8305 120.165 60.4375 120C59.2146 119.689 58.5139 119.016 57.6396 118.14C57.1911 117.699 57.1911 117.699 56.6875 117.422C56.1116 117.482 55.6885 117.672 55.1604 117.907C53.6914 118.457 52.0378 118.317 50.6084 117.715C48.9564 116.855 48.0345 115.863 47.3125 114.141C47.1676 113.501 47.1141 112.924 47.0781 112.266C46.7736 112.256 46.469 112.246 46.1553 112.236C44.6411 112.065 43.5174 111.325 42.4831 110.225C41.5872 109.061 41.2188 107.881 41.2188 106.406C40.9142 106.397 40.6097 106.387 40.2959 106.377C38.7734 106.202 37.6212 105.485 36.6237 104.33C35.87 103.225 35.5628 102.093 35.3594 100.781C34.9026 100.709 34.9026 100.709 34.4365 100.635C32.7797 100.259 31.4162 99.4291 30.4521 98.0127C30.1514 97.5243 29.9773 97.1368 29.9308 96.5622C29.8308 95.6101 29.6924 95.0915 28.9578 94.444C28.2453 93.9787 27.5216 93.5586 26.7754 93.1494C26.5204 93.0024 26.2654 92.8554 26.0027 92.704C25.3748 92.3433 24.744 91.9892 24.1094 91.6406C23.9547 92.1047 23.8 92.5688 23.6406 93.0469C20.4917 93.2377 17.9878 92.7653 15.0273 91.7221C14.6248 91.5855 14.2221 91.4494 13.8192 91.3139C12.7725 90.9601 11.7285 90.5988 10.685 90.2357C9.61643 89.8655 8.5452 89.5031 7.47424 89.1399C5.91651 88.6101 4.35968 88.0779 2.80505 87.5391C2.64242 87.483 2.47979 87.4268 2.31224 87.369C1.1961 86.9809 1.1961 86.9809 0.671875 86.7188C0.671875 73.4156 0.671875 60.1125 0.671875 46.4062C6.83915 46.4062 9.55851 46.982 14.0505 50.4163C15.3741 51.3854 16.231 51.9204 17.9167 51.6632C19.1501 51.4044 20.3447 51.0476 21.5312 50.625C21.6381 49.7156 21.6381 49.7156 21.1788 49.3112C20.9399 49.1277 20.9399 49.1277 20.6963 48.9404C18.2454 46.9053 16.708 44.1438 16.1406 41.0156C16.0276 39.7742 16.0295 38.5291 16.0361 37.2835C16.0381 36.7115 16.0313 36.1401 16.0239 35.5682C16.0066 31.7281 16.9688 28.1751 19.6453 25.2914C22.6788 22.4605 25.8722 21.28 29.9688 21.0938C29.9095 20.9638 29.8502 20.8338 29.7892 20.6998C29.5229 20.1101 29.2624 19.5181 29.002 18.9258C28.9086 18.7212 28.8152 18.5167 28.7191 18.306C28.6329 18.1081 28.5468 17.9102 28.4581 17.7063C28.3771 17.5246 28.2961 17.343 28.2127 17.1558C28.0565 16.4793 28.2088 16.2927 28.5625 15.7031C28.8566 15.3621 29.1639 15.0323 29.4792 14.7109C29.6678 14.5178 29.8564 14.3247 30.0507 14.1258C30.2547 13.9197 30.4588 13.7136 30.6691 13.5013C30.879 13.2888 31.0888 13.0762 31.305 12.8573C31.7491 12.4088 32.1936 11.961 32.6391 11.514C33.2097 10.9407 33.7759 10.3632 34.3412 9.78465C34.8817 9.23335 35.4271 8.687 35.9719 8.13995C36.1745 7.93149 36.3772 7.72303 36.586 7.50825C36.7768 7.31887 36.9676 7.12949 37.1642 6.93438C37.3309 6.76597 37.4976 6.59757 37.6693 6.42407C38.1719 6.09375 38.1719 6.09375 38.7937 6.14422C39.3252 6.32194 39.7178 6.51412 40.1778 6.83075C40.3263 6.93151 40.4748 7.03227 40.6278 7.13608C40.7793 7.24167 40.9308 7.34726 41.0869 7.45605C41.2375 7.55893 41.3881 7.6618 41.5433 7.76779C41.6921 7.86946 41.8409 7.97112 41.9942 8.07587C42.1404 8.17545 42.2866 8.27504 42.4372 8.37765C42.8317 8.65258 43.2163 8.94147 43.6 9.23126C44.224 9.66191 44.224 9.66191 44.858 9.59198C45.5177 9.34498 46.1205 9.04939 46.7412 8.71582C50.021 7.03125 50.021 7.03125 51.7656 7.03125C51.8091 6.58124 51.8091 6.58124 51.8535 6.12213C51.9864 4.92811 52.2147 3.76616 52.4688 2.59277C52.5313 2.29435 52.5313 2.29435 52.5951 1.9899C52.906 0.531824 52.906 0.531824 53.1719 0ZM56.4531 3.98438C56.1631 5.28955 56.1631 5.28955 55.8672 6.62109C55.7754 7.03043 55.7754 7.03043 55.6818 7.44804C55.6342 7.66459 55.5866 7.88114 55.5376 8.10425C55.4885 8.32518 55.4394 8.5461 55.3888 8.77373C55.2537 9.427 55.2537 9.427 55.2812 10.3125C55.0513 10.3639 54.8214 10.4152 54.5845 10.4681C51.262 11.2371 48.3163 12.3677 45.443 14.2163C44.7344 14.5312 44.7344 14.5312 44.1722 14.3579C43.5779 14.07 43.0301 13.7571 42.4739 13.4015C42.2768 13.2761 42.0797 13.1507 41.8766 13.0215C41.5727 12.8262 41.5727 12.8262 41.2627 12.627C41.0556 12.4949 40.8485 12.3629 40.6351 12.2269C40.126 11.9021 39.6174 11.5765 39.1094 11.25C37.7043 12.413 36.4224 13.6752 35.1396 14.9707C34.9347 15.1768 34.7297 15.3828 34.5185 15.5951C34.017 16.0993 33.516 16.6041 33.0156 17.1094C33.1851 17.621 33.3552 18.1324 33.5265 18.6435C33.6878 19.126 33.8464 19.6094 34.0044 20.0931C34.5543 21.5767 34.9576 22.5707 36.3994 23.3203C36.6206 23.4176 36.8417 23.5149 37.0696 23.6151C37.9837 24.0352 38.6123 24.6298 39.3438 25.3125C39.4715 25.1367 39.5993 24.9608 39.731 24.7797C44.0193 18.9593 49.6497 14.9309 56.9219 13.8281C63.7334 12.974 70.567 14.6158 76.0519 18.806C78.3187 20.5724 80.3292 22.5622 81.7656 25.0781C82.518 24.7279 83.1706 24.3 83.8457 23.8184C84.476 23.3698 85.0766 22.9528 85.7592 22.5861C86.7293 21.8104 87.0558 20.9399 87.5078 19.8047C87.6383 19.5042 87.6383 19.5042 87.7715 19.1977C88.2503 18.1883 88.2503 18.1883 88.19 17.1243C87.741 16.4675 87.2004 15.9241 86.6344 15.3699C86.4559 15.1924 86.4559 15.1924 86.2738 15.0113C85.8952 14.6353 85.515 14.261 85.1348 13.8867C84.8771 13.6314 84.6195 13.376 84.3621 13.1204C83.7322 12.4957 83.1009 11.8725 82.4688 11.25C80.9695 11.9588 79.6661 12.795 78.3393 13.7851C77.8957 14.0973 77.8957 14.0973 77.0781 14.5312C76.4803 14.4186 76.4803 14.4186 75.9062 14.0625C75.6718 13.9311 75.4374 13.7997 75.1958 13.6642C74.9275 13.5105 74.6592 13.3567 74.3828 13.1982C71.8668 11.8077 68.9243 10.6837 66.0625 10.3125C66.0194 9.85977 66.0194 9.85977 65.9755 9.39789C65.8459 8.23096 65.6107 7.10428 65.3447 5.96191C65.1949 5.30933 65.045 4.65674 64.8906 3.98438C62.1062 3.98438 59.3219 3.98438 56.4531 3.98438ZM46.6689 22.9422C46.1406 23.4375 46.1406 23.4375 45.5712 23.8614C44.7926 24.5252 44.2332 25.2777 43.6357 26.1035C43.522 26.2552 43.4082 26.4068 43.291 26.5631C42.6543 27.4344 42.1305 28.2184 41.9219 29.2969C42.055 29.9589 42.055 29.9589 42.3467 30.5859C43.1507 32.4959 43.1515 34.3683 43.1629 36.4114C43.1656 36.7432 43.1704 37.0749 43.1773 37.4066C43.2707 41.8617 42.0411 45.376 38.9611 48.6768C38.4062 49.2188 38.4062 49.2188 37.8661 49.5996C37.735 49.706 37.6038 49.8123 37.4688 49.9219C37.4688 50.1539 37.4688 50.3859 37.4688 50.625C38.695 50.9697 39.9222 51.3104 41.1505 51.6475C41.6054 51.774 42.0586 51.9061 42.5115 52.0395C42.7423 52.1044 42.9731 52.1694 43.2109 52.2363C43.4067 52.2937 43.6025 52.3511 43.8042 52.4103C45.8396 52.6727 47.8491 52.0594 49.8027 51.5479C50.0604 51.4818 50.3182 51.4158 50.5837 51.3478C51.2124 51.1865 51.8408 51.0237 52.4688 50.8594C52.6252 50.2983 52.6252 50.2983 52.7031 49.6875C52.2702 49.1623 52.2702 49.1623 51.6484 48.7061C49.2079 46.6342 47.7512 43.9715 47.3125 40.7812C47.2858 40.1655 47.2686 39.5559 47.2649 38.9401C47.2636 38.7662 47.2622 38.5922 47.2608 38.4129C47.2586 38.046 47.2571 37.679 47.2562 37.312C47.2539 36.7586 47.2467 36.2054 47.2393 35.652C47.2111 31.6782 48.157 28.313 50.981 25.3711C53.6282 22.834 56.7251 21.396 60.4357 21.3052C63.6275 21.385 66.2952 22.2535 68.875 24.1406C69.0291 24.2515 69.1832 24.3624 69.3419 24.4766C71.9489 26.5217 73.473 29.8501 74.0312 33.0469C74.1146 34.17 74.1329 35.2833 74.1229 36.409C74.1191 36.9135 74.1229 37.4176 74.1274 37.9221C74.1342 42.2248 72.9144 45.5594 69.9269 48.6566C69.3438 49.2188 69.3438 49.2188 68.6406 49.6875C68.718 50.0742 68.7953 50.4609 68.875 50.8594C69.7654 51.1025 70.657 51.3401 71.5501 51.5732C72.0004 51.6919 72.4496 51.8146 72.8987 51.9374C75.7913 52.687 77.8608 52.303 80.7109 51.5625C80.9647 51.4984 81.2185 51.4344 81.48 51.3684C82.7079 51.0817 82.7079 51.0817 83.875 50.625C83.7585 49.6604 83.2918 49.3294 82.5566 48.7354C80.024 46.5283 78.4261 43.2426 78.1856 39.8815C78.1739 38.1084 78.1739 38.1084 78.176 37.3897C78.1768 36.8599 78.1713 36.3305 78.1653 35.8008C78.1555 33.5555 78.3147 31.4646 79.226 29.3741C79.494 28.8182 79.494 28.8182 79.1829 28.2404C78.7237 27.57 78.2627 26.9046 77.7812 26.25C77.6196 26.0301 77.458 25.8101 77.2914 25.5835C73.8169 21.1099 68.6039 18.3067 63.0156 17.5781C57.0448 17.0517 51.0573 18.7617 46.6689 22.9422ZM22.1328 28.8181C20.2955 31.2143 20.0405 34.0784 20.0371 36.9873C20.0314 37.2449 20.0256 37.5024 20.0197 37.7678C20.0102 40.4617 20.7118 42.9179 22.4688 45C23.2967 45.8338 24.1157 46.6576 25.1866 47.161C25.75 47.5781 25.75 47.5781 25.9046 48.2388C25.9082 48.5003 25.9119 48.7617 25.9157 49.0311C25.9225 49.3143 25.9293 49.5975 25.9363 49.8894C25.9377 50.1853 25.939 50.4812 25.9404 50.7861C25.9463 51.0848 25.9522 51.3834 25.9583 51.6911C25.9721 52.4296 25.9806 53.1677 25.9844 53.9062C25.8097 53.937 25.6349 53.9678 25.4549 53.9995C25.2245 54.0406 24.9941 54.0818 24.7567 54.1241C24.5288 54.1646 24.3009 54.205 24.0661 54.2467C23.2797 54.3996 22.5301 54.6059 21.7656 54.8438C22.4519 55.3786 23.1576 55.8307 23.9098 56.2674C24.2612 56.472 24.2612 56.472 24.6198 56.6806C24.9907 56.8953 24.9907 56.8953 25.3691 57.1143C25.6207 57.2604 25.8722 57.4065 26.1313 57.557C27.9527 58.614 29.7785 59.6628 31.6094 60.7031C31.6094 62.018 31.6094 63.3328 31.6094 64.6875C33.0751 64.5175 33.0751 64.5175 34.4878 64.2252C34.6509 64.1836 34.8141 64.1421 34.9822 64.0993C35.2269 64.0351 35.2269 64.0351 35.4766 63.9697C35.647 63.9261 35.8174 63.8824 35.9929 63.8374C36.407 63.7312 36.8207 63.6236 37.2344 63.5156C37.2601 63.2863 37.2857 63.057 37.3122 62.8207C37.6446 60.004 38.2654 57.9451 39.8125 55.5469C37.7491 54.7827 35.6328 54.3678 33.4844 53.9062C33.4844 51.7406 33.4844 49.575 33.4844 47.3438C34.0645 47.1117 34.0645 47.1117 34.6562 46.875C37.0044 45.4707 38.4213 43.4077 39.1094 40.7812C39.8464 36.6713 39.4465 32.6381 37.2344 29.0625C35.6628 27.0399 33.4708 25.6474 30.9062 25.3125C27.4567 24.9971 24.5069 26.3227 22.1328 28.8181ZM52.889 29.165C50.6205 32.4071 50.7363 36.7094 51.1623 40.4965C51.7382 43.1782 53.3489 45.2519 55.5156 46.875C55.7163 46.9691 55.9169 47.0631 56.1236 47.16C56.6875 47.5781 56.6875 47.5781 56.8421 48.2388C56.8457 48.5003 56.8494 48.7617 56.8532 49.0311C56.8634 49.4559 56.8634 49.4559 56.8738 49.8894C56.8752 50.1853 56.8765 50.4812 56.8779 50.7861C56.8838 51.0848 56.8897 51.3834 56.8958 51.6911C56.9096 52.4296 56.9181 53.1677 56.9219 53.9062C56.7893 53.927 56.6567 53.9478 56.5201 53.9691C54.4362 54.3205 52.3942 54.8285 50.347 55.3473C49.9344 55.4513 49.5215 55.5538 49.1082 55.6547C48.503 55.8026 47.899 55.9549 47.2951 56.1081C47.0218 56.1737 47.0218 56.1737 46.7431 56.2407C44.8203 56.7399 43.2959 57.6363 42.1562 59.2969C41.5963 60.4236 41.419 61.3125 41.4531 62.5781C41.7441 62.5274 41.7441 62.5274 42.0409 62.4756C48.0695 61.5381 53.2827 62.561 59.0193 64.3936C59.2962 64.4818 59.5731 64.57 59.8583 64.6608C60.3823 64.829 60.9055 64.9994 61.4278 65.1728C62.7583 65.6039 64.059 65.935 65.4381 66.1716C68.264 66.6576 70.9962 67.5406 73.7437 68.3462C74.4574 68.5549 75.1717 68.7613 75.8861 68.9676C76.2113 69.0643 76.2113 69.0643 76.5431 69.1629C77.6026 69.4684 78.541 69.7165 79.6562 69.6094C80.116 69.1496 79.9401 68.2685 79.9465 67.6401C79.9493 67.3758 79.9493 67.3758 79.9522 67.1062C79.9555 66.7312 79.958 66.3563 79.9598 65.9813C79.9638 65.4149 79.9741 64.8487 79.9845 64.2824C80.0065 62.1246 80.0074 60.1121 78.5684 58.3595C76.4404 56.2816 73.129 55.8642 70.3387 55.1779C69.6898 55.0182 69.0416 54.856 68.3934 54.6936C67.9803 54.5909 67.5671 54.4884 67.1538 54.386C66.8638 54.3135 66.8638 54.3135 66.5679 54.2395C65.8368 54.0606 65.1775 53.9062 64.4219 53.9062C64.393 52.8854 64.3905 51.866 64.3926 50.8447C64.3841 50.5567 64.3757 50.2686 64.3669 49.9718C64.3897 47.8608 64.3897 47.8608 65.1643 47.0393C65.7888 46.6095 65.7888 46.6095 66.4093 46.2688C68.2023 45.2631 69.3864 43.1897 69.9458 41.2588C70.2801 39.9075 70.3635 38.6102 70.3545 37.2217C70.3532 37.0068 70.3518 36.7919 70.3505 36.5705C70.2899 33.1494 69.5477 30.4825 67.1758 27.9346C65.1071 25.9635 62.6392 25.1874 59.8149 25.2393C57.029 25.4996 54.6653 27.066 52.889 29.165ZM84.4023 28.5352C81.7869 31.7331 81.6852 35.6768 82.0446 39.6318C82.3894 42.3984 83.62 44.5713 85.783 46.3193C86.7297 47.0741 86.7297 47.0741 87.8594 47.3438C87.8594 49.5094 87.8594 51.675 87.8594 53.9062C87.2068 54.0464 86.5542 54.1866 85.8818 54.3311C84.3962 54.6557 82.9597 55.0178 81.5312 55.5469C81.7007 55.8229 81.7007 55.8229 81.8737 56.1044C83.5626 58.9136 83.8783 61.3585 84.0068 64.5703C84.022 64.9265 84.022 64.9265 84.0375 65.2899C84.0621 65.8703 84.0861 66.4508 84.1094 67.0312C85.1504 66.6409 86.1244 66.1493 87.1114 65.6415C87.2883 65.5509 87.4651 65.4604 87.6474 65.367C88.2213 65.0728 88.7948 64.7777 89.3682 64.4824C89.662 64.3314 89.662 64.3314 89.9617 64.1774C92.4332 62.9066 94.893 61.6192 97.3255 60.275C99.6938 58.9675 102.097 57.7268 104.5 56.4844C104.5 56.3297 104.5 56.175 104.5 56.0156C103.312 55.7142 102.123 55.4138 100.934 55.1144C100.529 55.0124 100.125 54.9101 99.7204 54.8075C99.1394 54.6601 98.5582 54.5138 97.9769 54.3677C97.7959 54.3215 97.615 54.2754 97.4286 54.2279C96.7211 54.0509 96.0917 53.9062 95.3594 53.9062C95.3305 52.8854 95.328 51.866 95.3301 50.8447C95.3174 50.4126 95.3174 50.4126 95.3044 49.9718C95.3272 47.8615 95.3272 47.8615 96.0977 47.0424C96.7189 46.615 96.7189 46.615 97.3354 46.2774C99.4604 45.0778 100.449 42.8312 101.112 40.5833C101.806 37.3027 101.508 33.037 99.8271 30.1172C99.5924 29.7626 99.3538 29.4105 99.1094 29.0625C98.974 28.8546 98.8387 28.6468 98.6992 28.4326C96.7333 26.4121 94.3886 25.3048 91.5801 25.2393C88.7626 25.2679 86.3184 26.4869 84.4023 28.5352ZM4.65625 50.3906C4.65625 61.3734 4.65625 72.3563 4.65625 83.6719C8.67997 85.4268 8.67997 85.4268 12.8594 86.25C14.1353 81.226 15.4093 76.2015 16.6813 71.1764C16.9642 70.0589 17.2475 68.9416 17.531 67.8242C17.8438 66.5908 18.1557 65.3572 18.4665 64.1232C18.5756 63.6906 18.6851 63.2581 18.7951 62.8257C18.9446 62.2372 19.0928 61.6483 19.2406 61.0593C19.3051 60.8074 19.3051 60.8074 19.3709 60.5504C19.5615 59.7848 19.6562 59.1561 19.6562 58.3594C19.5011 58.2701 19.346 58.1807 19.1861 58.0887C16.283 56.4169 13.3814 54.7424 10.4863 53.0566C10.2578 52.9238 10.0292 52.791 9.79373 52.6542C9.57696 52.5278 9.36018 52.4013 9.13684 52.2711C8.93193 52.152 8.72701 52.0329 8.51588 51.9102C7.83156 51.4988 7.17218 51.0555 6.52038 50.5944C5.93191 50.2953 5.93191 50.2953 4.65625 50.3906ZM114.56 55.6677C114.392 55.7537 114.225 55.8396 114.053 55.9282C113.505 56.2102 112.957 56.4937 112.41 56.7773C112.031 56.9733 111.651 57.1692 111.271 57.3651C109.116 58.4795 106.976 59.6166 104.854 60.7922C102.665 61.9968 100.438 63.1254 98.2139 64.2625C95.9587 65.4161 93.7194 66.5898 91.5039 67.8184C89.023 69.1848 86.4945 70.4612 83.9716 71.7476C83.7965 71.8371 83.6214 71.9265 83.4409 72.0187C83.1083 72.1886 82.7755 72.358 82.4425 72.527C81.7043 72.8725 81.7043 72.8725 81.0625 73.3594C77.5781 73.7657 74.4592 72.7419 71.1602 71.7334C70.3801 71.5007 69.5996 71.2696 68.8191 71.0385C68.3375 70.8952 67.8562 70.7508 67.3753 70.605C67.1583 70.5393 66.9413 70.4736 66.7178 70.4059C66.5284 70.3482 66.339 70.2904 66.1439 70.2309C65.1607 69.9579 64.2265 69.8032 63.2061 69.7852C63.0045 69.7791 62.803 69.7731 62.5954 69.7668C60.5243 69.9787 58.6826 70.8834 56.8431 71.8048C56.599 71.9259 56.3548 72.047 56.1032 72.1717C55.5911 72.4265 55.0794 72.6822 54.5682 72.9388C53.7861 73.3306 53.0017 73.7173 52.217 74.1037C51.7179 74.3527 51.2189 74.602 50.7201 74.8517C50.4862 74.9665 50.2523 75.0813 50.0113 75.1995C48.4347 75.9984 48.4347 75.9984 47.3125 77.3438C47.0618 78.2651 47.1353 79.0994 47.5634 79.9539C48.0544 80.6175 48.0544 80.6175 48.7188 81.0938C50.1604 81.2094 50.922 81.0357 52.1813 80.2634C52.3239 80.1777 52.4666 80.092 52.6136 80.0038C53.0658 79.7313 53.5144 79.4534 53.9629 79.1748C54.5547 78.8135 55.1477 78.4544 55.7408 78.0954C55.8832 78.0088 56.0255 77.9222 56.1721 77.833C59.0563 76.09 61.4607 75.2693 64.832 75.8057C66.8893 76.4729 68.4948 78.2496 70.0469 79.6875C70.1947 79.8237 70.3426 79.9599 70.4949 80.1003C71.2018 80.7521 71.9058 81.4069 72.6076 82.0642C73.2986 82.7099 74.0055 83.3343 74.7216 83.952C75.36 84.5128 75.9844 85.0885 76.6094 85.6641C77.5251 86.5073 78.4498 87.3375 79.3907 88.1525C80.1634 88.8345 80.9195 89.5348 81.675 90.2357C82.0155 90.5502 82.3593 90.8611 82.7031 91.1719C82.8185 91.2893 82.9338 91.4068 83.0526 91.5278C83.4395 91.9186 83.4395 91.9186 84.1094 92.3438C85.087 92.1015 85.9596 91.6823 86.8577 91.233C87.2505 91.0373 87.2505 91.0373 87.6513 90.8376C87.9381 90.6936 88.2248 90.5496 88.5115 90.4055C88.8161 90.2534 89.1207 90.1013 89.4254 89.9493C90.2499 89.5376 91.0739 89.1247 91.8977 88.7116C92.76 88.2794 93.6227 87.8482 94.4855 87.4169C95.9329 86.6931 97.3799 85.9686 98.8268 85.2435C100.501 84.4045 102.176 83.5664 103.851 82.7289C105.462 81.9235 107.073 81.1175 108.684 80.3112C109.37 79.9678 110.056 79.6246 110.742 79.2814C111.548 78.8781 112.355 78.4743 113.161 78.0701C113.457 77.9215 113.754 77.773 114.05 77.6248C114.454 77.4231 114.857 77.2209 115.26 77.0185C115.599 76.8487 115.599 76.8487 115.945 76.6754C116.434 76.4481 116.434 76.4482 116.688 76.1719C116.71 75.5085 116.717 74.8509 116.714 74.1874C116.714 73.8753 116.714 73.8753 116.714 73.5569C116.714 72.8658 116.712 72.1746 116.71 71.4835C116.71 71.0056 116.71 70.5278 116.709 70.0499C116.708 68.7896 116.706 67.5292 116.704 66.2689C116.701 64.9838 116.7 63.6988 116.699 62.4138C116.696 59.8904 116.692 57.3671 116.688 54.8438C115.9 54.8438 115.247 55.3114 114.56 55.6677ZM23.4062 60.7031C22.5094 63.869 21.6783 67.049 20.873 70.2393C20.7806 70.6049 20.7806 70.6049 20.6864 70.978C20.3626 72.261 20.0395 73.5441 19.717 74.8274C19.4505 75.8871 19.1824 76.9463 18.9129 78.0052C18.5854 79.2921 18.2606 80.5796 17.9378 81.8676C17.8147 82.3567 17.6907 82.8457 17.5657 83.3344C17.3926 84.0123 17.2228 84.6911 17.0539 85.3702C17.0015 85.5723 16.949 85.7743 16.895 85.9825C16.7787 86.4577 16.691 86.9396 16.6094 87.4219C17.1912 88.0037 17.6917 88.1421 18.4697 88.4033C18.7184 88.4888 18.967 88.5743 19.2232 88.6624C19.9018 88.8941 19.9018 88.8941 20.5938 88.5938C20.8108 88.1716 20.8108 88.1716 20.9468 87.6392C21.0073 87.4335 21.0677 87.2278 21.13 87.0159C21.1936 86.7884 21.2572 86.561 21.3227 86.3267C21.3918 86.0885 21.4609 85.8503 21.532 85.6049C21.7605 84.8137 21.9847 84.0213 22.2087 83.2288C22.3658 82.6801 22.523 82.1315 22.6803 81.5829C23.01 80.4312 23.3376 79.2789 23.6637 78.1262C24.0821 76.6478 24.5055 75.171 24.9304 73.6945C25.256 72.561 25.5791 71.4269 25.9015 70.2925C26.0566 69.7477 26.2125 69.2031 26.3691 68.6587C26.5877 67.8974 26.803 67.1352 27.0173 66.3728C27.1155 66.0345 27.1155 66.0345 27.2158 65.6893C27.2736 65.481 27.3314 65.2726 27.391 65.058C27.4677 64.7878 27.4677 64.7878 27.546 64.5122C27.6402 63.8828 27.5656 63.4221 27.3906 62.8125C27.0298 62.4656 27.0298 62.4656 26.5557 62.2366C26.3046 62.0995 26.3046 62.0995 26.0485 61.9597C25.8726 61.8689 25.6968 61.7781 25.5156 61.6846C25.3398 61.5893 25.164 61.4939 24.9828 61.3957C24.2326 60.9173 24.2326 60.9173 23.4062 60.7031ZM37.4421 67.475C36.8594 67.6001 36.2759 67.7221 35.6919 67.841C34.8406 68.0144 33.9918 68.1969 33.1429 68.3817C32.8814 68.4332 32.62 68.4848 32.3506 68.538C31.9888 68.62 31.9888 68.62 31.6196 68.7036C31.3017 68.771 31.3017 68.771 30.9773 68.8397C29.9752 69.3983 29.8028 70.5674 29.4719 71.6014C29.3902 71.8892 29.3084 72.177 29.2243 72.4735C29.1784 72.6338 29.1326 72.7941 29.0854 72.9592C28.936 73.4826 28.7882 74.0065 28.6403 74.5303C28.5363 74.8958 28.4322 75.2613 28.328 75.6268C28.0555 76.584 27.7842 77.5416 27.5131 78.4992C27.2358 79.4783 26.9573 80.457 26.6788 81.4357C26.1336 83.3526 25.5898 85.2699 25.0469 87.1875C26.1041 88.0402 27.1899 88.7718 28.3428 89.4873C28.5308 89.608 28.7189 89.7287 28.9127 89.8531C29.0947 89.9659 29.2767 90.0787 29.4643 90.195C29.6287 90.2983 29.793 90.4015 29.9624 90.5079C30.5444 90.7471 30.7975 90.699 31.375 90.4688C31.7843 90.0935 31.7843 90.0935 32.1514 89.6191C33.7448 87.7287 35.681 85.4977 38.3129 85.2567C40.3197 85.2074 41.7336 85.4973 43.2842 86.8066C44.4049 88.1515 44.9145 89.2286 45.2031 90.9375C45.5127 91.0227 45.5127 91.0227 45.8284 91.1096C46.1006 91.1882 46.3729 91.2667 46.6533 91.3477C46.9225 91.4238 47.1917 91.4999 47.4691 91.5784C48.9551 92.1428 49.6256 93.0005 50.3429 94.3607C50.7009 95.1615 50.8907 95.9376 51.0625 96.7969C51.367 96.8452 51.6716 96.8936 51.9854 96.9434C53.4709 97.2826 54.7323 97.9373 55.6575 99.1754C56.1528 100.026 56.439 100.695 56.5996 101.675C56.8403 102.454 56.8403 102.454 57.4648 102.69C57.9207 102.846 58.3789 102.995 58.839 103.138C60.1408 103.574 60.9809 104.261 61.7559 105.381C63.0525 107.218 65.3824 109.283 67.4688 110.156C68.4327 110.301 68.868 110.328 69.666 109.761C70.0983 109.146 70.2629 108.799 70.2812 108.047C69.8245 107.147 69.2789 106.541 68.5234 105.879C68.3147 105.696 68.1059 105.513 67.8908 105.324C67.0508 104.609 66.1994 103.91 65.342 103.217C64.5873 102.6 63.8451 101.97 63.1035 101.338C61.9278 100.337 60.7314 99.3698 59.5 98.4375C60.0062 97.5095 60.6189 96.765 61.3265 95.9885C61.6574 95.6401 61.6574 95.6401 61.6094 95.1562C62.9086 96.0988 64.1407 97.1056 65.3614 98.1466C66.1736 98.8391 66.9922 99.5219 67.8203 100.195C68.9413 101.107 70.0449 102.038 71.1423 102.978C72.3009 103.965 72.944 104.411 74.4615 104.369C75.0119 104.325 75.0119 104.325 75.5693 103.931C76.0403 103.132 76.0344 102.632 75.9062 101.719C75.3062 100.86 74.6299 100.227 73.8115 99.5801C73.5846 99.3982 73.3577 99.2163 73.124 99.0289C73.0044 98.9331 72.8848 98.8372 72.7615 98.7385C72.1213 98.2189 71.4948 97.6832 70.8672 97.1484C69.6976 96.1544 68.5162 95.1761 67.3259 94.2068C66.6662 93.6689 66.0119 93.1248 65.3594 92.5781C65.7855 91.6182 66.4198 90.9528 67.1263 90.1886C67.5179 89.7956 67.5179 89.7956 67.4688 89.2969C68.7726 90.3241 70.0569 91.3711 71.3213 92.4463C72.68 93.6008 74.0503 94.7391 75.4375 95.8594C75.5734 95.9709 75.7093 96.0823 75.8494 96.1972C76.2866 96.5555 76.7261 96.9108 77.166 97.2656C77.3027 97.3785 77.4394 97.4913 77.5802 97.6076C78.3334 98.2095 78.9154 98.6109 79.8906 98.6719C80.6774 98.4471 81.3099 98.1955 81.7656 97.5C81.9189 96.4844 81.8708 96.0172 81.2969 95.1562C80.6665 94.4872 79.9735 93.8891 79.2745 93.2932C78.6079 92.7167 77.96 92.121 77.3125 91.5234C76.5391 90.8111 75.7634 90.1028 74.9688 89.4141C74.0474 88.6156 73.1519 87.7898 72.2551 86.9641C71.4609 86.234 70.6557 85.5193 69.84 84.8135C69.3297 84.3626 68.8299 83.9012 68.3308 83.4379C65.5253 80.5489 65.5253 80.5489 61.8621 79.4852C60.8694 79.6477 60.0605 80.0647 59.207 80.5811C59.0502 80.6722 58.8935 80.7633 58.7319 80.8571C57.7901 81.4078 56.8596 81.9771 55.9285 82.5458C55.6175 82.7348 55.6175 82.7348 55.3002 82.9277C54.8954 83.1747 54.4917 83.4237 54.0895 83.6749C52.2466 84.8049 50.5555 85.4006 48.3708 84.9609C46.6257 84.4956 45.3332 83.8271 44.3096 82.3096C43.343 80.6117 43.0187 78.708 43.4536 76.7908C44.1354 74.5701 45.3635 73.2723 47.3533 72.1291C47.8871 71.8523 48.425 71.5875 48.9669 71.3269C49.2586 71.1833 49.2586 71.1833 49.5562 71.0368C50.1697 70.7349 50.7844 70.4356 51.3994 70.1367C52.0202 69.8343 52.6406 69.5313 53.2602 69.2266C53.644 69.0379 54.0285 68.8506 54.4136 68.6647C55.3592 68.2614 55.3592 68.2614 55.9844 67.5C49.3387 65.4684 44.1691 66.0156 37.4421 67.475ZM35.96 91.3037C35.7692 91.4912 35.5784 91.6786 35.3818 91.8718C34.2466 92.9894 34.2466 92.9894 33.6995 94.4403C33.7189 95.1607 33.7614 95.5185 34.1875 96.0938C35.0882 96.6942 35.4611 96.7204 36.5312 96.5625C37.2428 96.1034 37.8113 95.521 38.4062 94.9219C38.612 94.7246 38.8177 94.5273 39.0297 94.324C40.3369 93.1363 40.3369 93.1363 41.2188 91.6406C41.1849 90.829 41.0654 90.3575 40.6182 89.6777C39.9715 89.2466 39.4839 89.1416 38.7083 89.1589C37.5384 89.4598 36.7674 90.4553 35.96 91.3037ZM42.3064 96.5927C42.0403 96.8597 41.7754 97.128 41.5117 97.3975C41.3767 97.5327 41.2416 97.6679 41.1025 97.8072C39.9631 98.9159 39.9631 98.9159 39.4756 100.4C39.513 101.272 39.513 101.272 40.0615 101.938C40.7205 102.459 40.7205 102.459 41.4971 102.627C42.9255 102.299 43.7334 101.342 44.7344 100.312C44.9359 100.108 45.1374 99.9028 45.345 99.6918C46.5975 98.4414 46.5975 98.4414 47.0781 96.7969C46.7771 95.9439 46.5909 95.5094 45.7891 95.0684C44.2485 94.6832 43.357 95.5801 42.3064 96.5927ZM48.25 102.422C48.0225 102.645 47.7945 102.867 47.5661 103.089C46.0357 104.434 46.0357 104.434 45.3643 106.26C45.3669 107.104 45.3669 107.104 45.8184 107.666C46.5172 108.144 46.9315 108.281 47.7812 108.281C48.9986 107.59 49.9262 106.668 50.9014 105.674C51.0496 105.525 51.1978 105.377 51.3504 105.224C52.4129 104.2 52.4129 104.2 52.7764 102.803C52.7717 101.961 52.7717 101.961 52.3369 101.396C50.4934 100.167 49.5788 101.061 48.25 102.422ZM53.4062 108.75C53.2247 108.915 53.0431 109.08 52.856 109.25C51.845 110.186 51.1947 110.865 51.0625 112.266C51.3565 113.027 51.6853 113.37 52.3076 113.892C52.9287 114.196 52.9287 114.196 53.5967 114.053C55.4939 113.086 57.3859 111.218 58.5625 109.453C58.695 108.431 58.6781 107.977 58.0791 107.124C57.4202 106.604 57.4202 106.604 56.6436 106.436C55.2194 106.762 54.4169 107.738 53.4062 108.75ZM62.0781 111.328C61.9678 111.472 61.8576 111.616 61.744 111.765C61.5251 112.049 61.5251 112.049 61.3018 112.339C61.1576 112.526 61.0135 112.714 60.8651 112.907C60.508 113.35 60.1459 113.749 59.7344 114.141C60.0884 115.132 60.7007 115.526 61.6094 116.016C62.5212 116.125 63.1956 116.088 63.9531 115.547C64.3881 114.967 64.4227 114.65 64.4072 113.921C64.0288 112.685 63.0814 112.07 62.0781 111.328Z" fill="white"/>
</g>
<defs>
<clipPath id="clip0_9452_26394">
<rect width="120" height="120" fill="white" transform="translate(0.671875)"/>
</clipPath>
</defs>
</svg>
