<svg width="121" height="120" viewBox="0 0 121 120" fill="none" xmlns="http://www.w3.org/2000/svg">
<g clip-path="url(#clip0_9452_26372)">
<path d="M87.6592 31.3685C87.9469 31.3667 87.9469 31.3667 88.2404 31.365C88.8742 31.3615 89.508 31.3599 90.1418 31.3586C90.5832 31.3573 91.0246 31.3559 91.4659 31.3546C92.3913 31.3521 93.3167 31.3508 94.2421 31.3499C95.4259 31.3487 96.6095 31.343 97.7932 31.3364C98.7051 31.332 99.6169 31.3308 100.529 31.3304C100.965 31.3297 101.401 31.3278 101.838 31.3247C102.449 31.3207 103.06 31.3212 103.672 31.3227C103.851 31.3205 104.03 31.3184 104.214 31.3162C105.542 31.3264 106.682 31.5666 107.721 32.4609C108.527 33.5279 108.748 34.2121 108.748 35.5315C108.748 35.8064 108.749 36.0813 108.749 36.3645C108.748 36.668 108.748 36.9714 108.747 37.2841C108.747 37.6085 108.747 37.933 108.748 38.2575C108.748 39.1511 108.747 40.0447 108.746 40.9383C108.745 41.9012 108.745 42.8641 108.745 43.827C108.746 45.496 108.745 47.1649 108.744 48.8339C108.742 51.2469 108.741 53.66 108.741 56.073C108.74 59.9878 108.739 63.9025 108.736 67.8173C108.734 71.6207 108.733 75.4241 108.732 79.2275C108.732 79.579 108.732 79.579 108.731 79.9376C108.731 81.1132 108.731 82.2888 108.731 83.4644C108.728 93.2211 108.724 102.978 108.719 112.734C108.99 112.726 109.261 112.718 109.541 112.71C109.902 112.703 110.262 112.697 110.623 112.69C110.89 112.682 110.89 112.682 111.163 112.673C112.325 112.658 113.101 112.796 114.109 113.437C115.204 114.65 115.365 115.405 115.346 117.009C115.255 117.922 114.964 118.394 114.344 119.062C113.281 119.91 112.473 120.136 111.143 120.118C110.966 120.119 110.789 120.121 110.607 120.122C110.014 120.126 109.421 120.122 108.827 120.119C108.398 120.12 107.968 120.122 107.539 120.123C106.358 120.127 105.178 120.125 103.997 120.123C102.724 120.12 101.451 120.124 100.178 120.126C97.684 120.13 95.19 120.13 92.6959 120.127C90.6693 120.125 88.6428 120.124 86.6161 120.125C86.3279 120.126 86.0397 120.126 85.7428 120.126C85.1573 120.126 84.5718 120.126 83.9864 120.127C78.6505 120.129 73.3146 120.127 67.9787 120.122C63.1072 120.117 58.2357 120.118 53.3641 120.122C47.8915 120.127 42.419 120.129 36.9464 120.126C36.363 120.126 35.7797 120.126 35.1964 120.125C34.9093 120.125 34.6223 120.125 34.3266 120.125C32.3019 120.124 30.2773 120.126 28.2527 120.128C25.786 120.13 23.3193 120.13 20.8526 120.125C19.5936 120.122 18.3346 120.121 17.0756 120.124C15.9236 120.127 14.7718 120.126 13.6199 120.121C13.2026 120.12 12.7852 120.12 12.3679 120.122C11.8016 120.125 11.2356 120.122 10.6693 120.118C10.425 120.121 10.425 120.121 10.1758 120.125C9.01595 120.107 8.36705 119.779 7.46875 119.062C6.66504 118.195 6.46101 117.52 6.41406 116.367C6.46101 115.214 6.66504 114.539 7.46875 113.672C8.67678 112.661 9.5702 112.613 11.0723 112.676C11.2671 112.68 11.462 112.684 11.6628 112.689C12.1399 112.7 12.6169 112.716 13.0938 112.734C13.0929 112.435 13.092 112.135 13.0911 111.827C13.0708 104.719 13.0554 97.6105 13.0459 90.5023C13.0447 89.6274 13.0435 88.7526 13.0423 87.8778C13.042 87.7036 13.0418 87.5295 13.0415 87.35C13.0374 84.5297 13.03 81.7094 13.0214 78.8891C13.0127 75.9953 13.0074 73.1016 13.0055 70.2079C13.0043 68.4222 13.0002 66.6365 12.9926 64.8508C12.987 63.4817 12.9864 62.1127 12.9877 60.7436C12.9875 60.1818 12.9856 59.62 12.982 59.0582C12.9773 58.292 12.9784 57.5259 12.981 56.7597C12.9783 56.5367 12.9755 56.3137 12.9727 56.084C12.9846 54.7688 13.1489 54.0099 14.0312 52.9687C15.32 51.7766 16.3464 51.7616 18.0498 51.7591C18.3375 51.7574 18.3375 51.7574 18.631 51.7556C19.2648 51.7522 19.8986 51.7506 20.5324 51.7493C20.9738 51.7479 21.4152 51.7466 21.8566 51.7452C22.782 51.7428 23.7074 51.7414 24.6328 51.7406C25.8165 51.7393 27.0002 51.7337 28.1839 51.727C29.0957 51.7226 30.0075 51.7214 30.9194 51.721C31.3557 51.7203 31.792 51.7185 32.2282 51.7154C32.8397 51.7114 33.4509 51.7118 34.0624 51.7133C34.2413 51.7112 34.4202 51.709 34.6045 51.7068C35.9314 51.7171 37.0822 51.9529 38.1115 52.8598C39.1388 54.2449 39.1388 54.2449 39.1382 55.3441C39.1387 55.5483 39.1391 55.7525 39.1396 55.963C39.1389 56.1887 39.1383 56.4144 39.1376 56.6469C39.1379 57.005 39.1379 57.005 39.1382 57.3703C39.1386 58.1753 39.1373 58.9804 39.136 59.7854C39.1359 60.3605 39.136 60.9355 39.1361 61.5105C39.1361 62.7512 39.1355 63.9918 39.1342 65.2325C39.1323 67.0263 39.1316 68.8201 39.1313 70.6139C39.1308 73.524 39.1293 76.4341 39.1271 79.3442C39.1249 82.1716 39.1232 84.9989 39.1222 87.8263C39.1222 88.0005 39.1221 88.1747 39.1221 88.3542C39.1218 89.228 39.1215 90.1019 39.1212 90.9758C39.1187 98.2286 39.1145 105.482 39.1094 112.734C41.9711 112.734 44.8328 112.734 47.7812 112.734C47.7792 112.095 47.7771 111.457 47.7749 110.798C47.7558 104.784 47.7418 98.7691 47.7327 92.7545C47.7278 89.6621 47.7213 86.5698 47.7105 83.4774C47.7012 80.7822 47.6951 78.0869 47.693 75.3916C47.6918 73.9645 47.6889 72.5374 47.6821 71.1103C47.6758 69.7667 47.6738 68.4233 47.6752 67.0797C47.675 66.5869 47.6731 66.0941 47.6695 65.6013C47.6648 64.9276 47.666 64.2541 47.6685 63.5803C47.6644 63.289 47.6644 63.289 47.6602 62.9917C47.6738 61.6654 47.9628 60.6344 48.7188 59.5312C50.1365 58.3293 51.5899 58.3244 53.3786 58.3216C53.5583 58.3204 53.738 58.3193 53.9231 58.3181C54.5141 58.3147 55.105 58.3131 55.696 58.3118C55.8989 58.3111 56.1019 58.3104 56.3109 58.3098C57.3847 58.3063 58.4585 58.3041 59.5323 58.3031C60.6372 58.3018 61.742 58.2962 62.8468 58.2895C63.7003 58.2851 64.5539 58.2839 65.4075 58.2835C65.8146 58.2828 66.2217 58.281 66.6288 58.2779C71.323 58.2448 71.323 58.2448 73.0791 59.5898C74.0834 60.9289 74.099 62.3979 74.0876 64.0031C74.0882 64.3167 74.0882 64.3167 74.0888 64.6367C74.0896 65.3345 74.087 66.0322 74.0845 66.73C74.0843 67.2313 74.0844 67.7326 74.0847 68.2339C74.0848 69.5931 74.0821 70.9522 74.0788 72.3113C74.0758 73.7324 74.0756 75.1534 74.075 76.5745C74.0736 79.2647 74.0697 81.9549 74.065 84.645C74.0598 87.708 74.0572 90.7711 74.0548 93.8341C74.0499 100.134 74.0416 106.434 74.0312 112.734C76.893 112.734 79.7547 112.734 82.7031 112.734C82.701 111.751 82.699 110.768 82.6968 109.756C82.6782 100.744 82.6642 91.7328 82.6553 82.7213C82.6541 81.5405 82.6529 80.3597 82.6516 79.1789C82.6514 78.9438 82.6511 78.7087 82.6509 78.4665C82.6468 74.6589 82.6394 70.8514 82.6308 67.0438C82.622 63.1375 82.6168 59.2313 82.6149 55.3251C82.6136 52.9143 82.6096 50.5035 82.602 48.0927C82.597 46.44 82.5955 44.7874 82.5967 43.1347C82.5973 42.1809 82.5964 41.2271 82.5914 40.2733C82.5868 39.3998 82.5866 38.5265 82.5898 37.6531C82.5904 37.1878 82.5863 36.7225 82.5821 36.2573C82.5928 34.6711 82.6607 33.6192 83.6406 32.3437C84.9138 31.3888 86.1119 31.3707 87.6592 31.3685ZM89.9688 38.9062C89.9688 63.2695 89.9688 87.6328 89.9688 112.734C93.6813 112.734 97.3938 112.734 101.219 112.734C101.219 88.3711 101.219 64.0078 101.219 38.9062C97.5062 38.9062 93.7937 38.9062 89.9688 38.9062ZM20.5938 59.2969C20.5938 76.9312 20.5938 94.5656 20.5938 112.734C24.3063 112.734 28.0188 112.734 31.8438 112.734C31.8438 95.1 31.8438 77.4656 31.8438 59.2969C28.1312 59.2969 24.4187 59.2969 20.5938 59.2969ZM55.2812 65.8594C55.2812 81.3281 55.2812 96.7969 55.2812 112.734C58.9938 112.734 62.7063 112.734 66.5312 112.734C66.5312 97.2656 66.5312 81.7969 66.5312 65.8594C62.8187 65.8594 59.1062 65.8594 55.2812 65.8594Z" fill="white"/>
<path d="M79.831 -0.0414269C80.0746 -0.0437371 80.0746 -0.0437371 80.3231 -0.0460939C80.8616 -0.0507211 81.4002 -0.053453 81.9387 -0.0557892C82.1227 -0.0567444 82.3067 -0.0576996 82.4963 -0.0586838C83.4705 -0.0635744 84.4447 -0.0669255 85.4189 -0.0691216C86.424 -0.0717124 87.429 -0.0797716 88.4341 -0.0890837C89.2078 -0.0952196 89.9815 -0.0971747 90.7552 -0.0980157C91.1257 -0.0991557 91.4961 -0.101877 91.8664 -0.106228C92.386 -0.111951 92.9052 -0.111717 93.4247 -0.110091C93.8676 -0.112154 93.8676 -0.112154 94.3194 -0.114258C95.5968 0.0667826 96.2671 0.619857 97.0813 1.59545C97.5336 2.46689 97.5885 3.02677 97.591 4.00498C97.5935 4.24479 97.5935 4.24479 97.596 4.48945C97.6001 5.01426 97.5974 5.53878 97.5942 6.0636C97.5949 6.43074 97.5958 6.79789 97.597 7.16504C97.5983 7.9332 97.5963 8.70126 97.592 9.46941C97.5866 10.4509 97.5897 11.4321 97.5953 12.4135C97.5987 13.1714 97.5976 13.9292 97.5952 14.6871C97.5946 15.0488 97.5953 15.4105 97.5975 15.7722C97.6142 19.3003 97.6142 19.3003 96.5322 20.6251C95.541 21.4404 94.6018 21.7316 93.316 21.6678C92.1067 21.4293 91.2261 20.8345 90.5126 19.8414C90.0408 18.5309 90.0692 17.2326 90.043 15.8497C90.035 15.5654 90.027 15.2811 90.0187 14.9882C89.9994 14.289 89.9832 13.59 89.9697 12.8907C89.8561 13.007 89.7425 13.1233 89.6255 13.2432C83.6714 19.2774 76.4626 24.4224 69.1104 28.5938C68.7913 28.7753 68.7913 28.7753 68.4657 28.9605C58.0593 34.8356 43.303 42.1235 30.9072 41.4844C29.9061 41.1945 29.1796 40.6943 28.4463 39.961C27.9253 38.7453 27.9212 37.6308 28.0947 36.3282C28.6398 35.1073 29.457 34.4863 30.6729 33.9844C31.6987 33.7412 32.7356 33.5948 33.7783 33.4424C41.2189 32.2496 48.3774 29.9516 55.2822 26.9532C55.4932 26.8623 55.7042 26.7715 55.9216 26.6778C62.5478 23.8073 68.8847 20.2123 74.5836 15.7657C75.1456 15.3336 75.7242 14.9261 76.3027 14.5167C78.6044 12.849 80.7085 10.9388 82.7847 9.00244C83.3654 8.47548 83.9612 7.98254 84.5791 7.50006C84.4031 7.49787 84.2271 7.49568 84.0458 7.49342C83.2419 7.48077 82.4384 7.46118 81.6348 7.44146C81.3579 7.43814 81.081 7.43482 80.7957 7.43139C79.2078 7.38691 78.1221 7.30575 76.8447 6.32818C76.0059 5.31595 75.7653 4.38975 75.8322 3.07989C75.9942 1.99678 76.4084 1.35415 77.2109 0.629941C78.1498 -0.0200287 78.6852 -0.0324509 79.831 -0.0414269Z" fill="white"/>
</g>
<defs>
<clipPath id="clip0_9452_26372">
<rect width="120" height="120" fill="white" transform="translate(0.671875)"/>
</clipPath>
</defs>
</svg>
