<svg width="90" height="25" viewBox="0 0 90 25" fill="none" xmlns="http://www.w3.org/2000/svg">
<g id="Acer_Logo 1" clip-path="url(#clip0_1_5400)">
<g id="Group">
<path id="Vector" fill-rule="evenodd" clip-rule="evenodd" d="M71.3384 1.60443H78.6669L77.8007 5.86438C80.0393 2.3621 82.6029 1.35276 85.7438 1.13579C86.8269 1.10076 88.1629 1.2442 89.354 1.42448L87.9451 7.02062C86.7905 6.73177 85.5634 6.51529 84.4803 6.51529C80.1483 6.44358 76.9346 9.36582 75.815 13.5531L73.2879 23.1575H65.7066C67.5838 15.9733 70.0754 8.14002 71.3384 1.60443Z" fill="#828282"/>
<path id="Vector_2" fill-rule="evenodd" clip-rule="evenodd" d="M50.5012 11.1774C51.7647 10.5638 56.1697 10.6307 59.0216 10.2693C62.3069 9.87241 66.8902 8.0674 66.7818 5.32345C66.6019 2.39921 64.0038 1.73634 61.5851 2.06155C55.8807 2.89159 52.1621 6.6286 50.5012 11.1774ZM49.7955 13.0427C49.6511 14.306 49.4906 15.6483 49.5985 16.66C50.0683 20.2337 53.2014 21.9049 56.5592 22.0138C59.3548 22.0798 62.7636 20.4068 64.6176 18.3242C64.9677 17.9303 65.3704 18.0586 65.6078 18.3729C65.7893 18.6121 65.7177 19.1549 65.5504 19.3203C62.6386 22.2111 59.6456 23.8423 55.4833 23.8784C50.7541 23.9144 44.8332 22.111 44.1112 17.2017C44.0028 16.624 44.0028 15.9732 44.075 15.2874C45.0137 6.19283 53.3177 1.27981 61.4767 0.846366C65.3757 0.629891 71.0077 1.64105 70.6829 5.8648C70.358 10.3055 63.6429 11.8582 59.2744 11.9661C55.5919 12.0747 51.059 12.0584 49.7955 13.0427Z" fill="#828282"/>
<path id="Vector_3" fill-rule="evenodd" clip-rule="evenodd" d="M45.7224 18.1775L44.4963 22.8698C42.4383 23.3036 39.7655 23.7006 37.3104 23.6285C30.0178 23.4846 24.6745 20.1257 24.9994 13.1939C25.396 5.21618 33.3033 1.13619 40.9211 1.02795C43.4484 1.02795 45.7584 1.27995 48.3219 1.89385L46.0473 6.40646C44.3867 5.93715 42.1484 5.50404 39.9098 5.72068C36.4078 5.97318 33.1947 7.8504 32.2561 11.5331C31.0288 16.1541 33.7001 19.4049 38.4298 19.4049C40.9206 19.4051 43.34 18.9003 45.7224 18.1775Z" fill="#828282"/>
<path id="Vector_4" fill-rule="evenodd" clip-rule="evenodd" d="M14.8904 1.09924C20.9917 1.09924 25.587 2.50069 26.0253 7.56676C26.1938 9.51554 25.4843 11.2535 24.9427 13.3118L22.3998 23.1945C17.5261 23.1945 13.5547 23.3024 9.1502 23.6633C5.07054 23.6634 0.196533 22.7977 0.196533 17.5987C0.281696 9.10284 13.4462 9.87245 19.0421 9.87245C20.2337 6.47874 17.4534 5.10685 13.5546 5.10685C10.0166 5.10685 7.10281 6.11768 4.25062 7.05645L5.25082 2.4713C8.03097 1.56872 11.605 1.09924 14.8904 1.09924ZM18.2118 13.2662C15.1378 13.2662 6.45024 12.5412 6.45024 17.2377C6.45024 19.5839 8.90533 19.9341 10.9633 19.9341C16.3707 19.9341 17.2141 18.046 18.2118 13.2662Z" fill="#828282"/>
</g>
</g>
<defs>
<clipPath id="clip0_1_5400">
<rect width="89.6068" height="24" fill="white" transform="translate(0.196533 0.819092)"/>
</clipPath>
</defs>
</svg>
