<svg width="102" height="33" viewBox="0 0 102 33" fill="none" xmlns="http://www.w3.org/2000/svg">
<path id="Vector" d="M71.4575 3.2772C71.4575 3.2772 69.5447 4.04231 67.3217 6.49067C65.0943 8.94329 63.8021 11.6977 64.7585 12.4288C65.1283 12.7093 65.9785 12.7646 67.5214 11.3661C68.9413 10.1318 70.0558 8.58523 70.7774 6.84773C71.7721 4.42487 71.4575 3.30695 71.4575 3.2772ZM83.6271 7.68935C81.1575 6.41842 79.3509 4.86693 77.4722 3.90629C75.6784 2.98815 74.518 2.60135 73.0685 2.79688C72.867 2.83285 72.6682 2.88256 72.4734 2.94565C72.4734 2.94565 73.2215 5.49603 70.2503 9.77641C67.2409 14.1206 64.512 14.0908 63.7341 12.8964C62.9222 11.6382 63.9722 9.07081 65.7234 6.78822C67.5597 4.39937 70.7817 2.41857 70.7817 2.41857C70.7817 2.41857 69.7573 1.78948 67.2324 3.22619C64.767 4.6119 60.5291 7.93164 56.5973 13.5255C52.6612 19.1193 51.8791 22.1968 51.318 24.6196C50.7569 27.0425 51.267 29.6354 53.9534 29.6354C56.6398 29.6354 59.7683 25.5378 60.6524 24.1138C62.2932 21.4614 63.3601 17.3935 61.1285 17.9504C60.0276 18.2267 59.1392 19.4424 58.5781 20.6155C58.2238 21.3687 57.953 22.1583 57.7705 22.9704C56.9894 23.2915 56.2558 23.7177 55.5899 24.2371C54.8503 24.7861 54.1592 25.3976 53.5241 26.0648C53.5241 26.0648 53.5326 24.1265 55.0756 20.9896C56.6228 17.8569 59.4537 16.4244 61.0605 16.2884C62.5057 16.1736 64.3887 17.402 62.7947 21.929C61.2007 26.4559 56.491 31.9605 51.5476 32.0285C46.9866 32.0922 43.9984 26.2689 50.3489 16.1099C57.3794 4.87544 65.6256 1.43242 68.2993 1.04987C70.9772 0.667308 71.8486 1.84473 71.8486 1.84473C73.4595 1.18458 75.1991 0.898273 76.9366 1.00736C80.2096 1.22839 82.7345 3.54074 86.0754 5.16873C85.2041 5.9976 84.3752 6.86898 83.6313 7.6851M98.313 3.90204C96.0474 5.35576 92.9147 6.67345 89.901 6.39291C89.1402 7.17928 88.324 8.09316 87.5079 9.08781C92.7277 10.1207 97.3056 6.88173 99.737 4.12732C100.624 3.1389 101.386 2.04541 102.007 0.87134C100.899 2.02448 99.6591 3.03889 98.313 3.90204ZM91.359 18.622C91.399 18.5533 91.4318 18.4807 91.4567 18.4052C91.4415 18.2852 91.3855 18.174 91.298 18.0905C91.2106 18.0069 91.097 17.9559 90.9764 17.9461C90.4791 17.9249 89.799 18.0184 88.0222 19.9864C86.5458 21.614 85.2753 23.4171 84.2392 25.355C83.219 27.2168 82.8067 28.6025 83.389 28.9595C83.5802 29.0591 83.8022 29.0819 84.0096 29.0233C84.4049 28.9298 84.8555 28.5557 85.5399 27.7693C85.8587 27.3953 86.2115 26.8682 86.6365 26.2859C87.8139 24.6876 90.7724 19.6421 91.359 18.622ZM72.873 20.7643C73.1705 19.9907 73.5488 18.4647 72.7625 17.8654C71.9166 17.2278 69.7658 18.7197 69.753 20.25C69.7403 21.8185 71.2705 22.5241 71.636 22.6261C71.8486 22.6813 71.9166 22.6686 72.0186 22.5028C72.3433 21.9438 72.6288 21.3629 72.873 20.7643ZM71.245 23.6122C70.7116 23.3659 70.214 23.0485 69.7658 22.6686C69.3173 22.2915 68.9426 21.8347 68.6606 21.3211C68.6266 21.2701 68.5968 21.3084 68.5628 21.3551C68.5331 21.3976 68.3971 21.5209 67.2494 23.1999C66.1017 24.8832 64.342 28.3687 65.9317 28.9595C66.9561 29.3421 68.6563 27.5526 69.5872 26.3666C70.2175 25.5379 70.7885 24.6658 71.296 23.7567C71.347 23.659 71.296 23.6335 71.245 23.6122ZM89.3442 27.6376C88.9106 28.3304 88.4175 29.6609 89.8415 28.832C91.5843 27.8288 94.0666 24.0585 94.0666 24.0585H95.193C94.1685 25.6348 93.0275 27.1324 91.7798 28.5387C90.0158 30.494 87.8607 32.275 86.339 32.0965C84.5707 31.8925 85.1233 29.5631 85.1233 29.5631C85.1233 29.5631 82.5899 32.2623 80.8302 32.071C78.4626 31.8074 79.1852 28.8788 79.1852 28.8788C79.1852 28.8788 76.5073 32.1687 74.6795 32.0667C71.8188 31.8967 72.5372 28.4154 73.3363 25.9628C73.7614 24.6536 74.1567 23.625 74.1567 23.625C74.1567 23.625 73.8719 23.6972 73.264 23.7865C72.941 23.8333 72.3629 23.8673 72.3629 23.8673C72.3629 23.8673 71.1727 25.9713 70.2163 27.2338C69.2642 28.4962 65.2091 32.8531 62.8202 31.9817C60.6184 31.1741 61.3495 27.7991 62.6332 25.1169C64.5035 21.2064 69.7743 15.5828 72.8177 16.3266C75.9674 17.0918 72.89 22.8386 72.89 22.8386C72.89 22.8386 72.89 22.8599 72.9197 22.8769C72.9835 22.8981 73.1493 22.9194 73.5276 22.8429C73.9208 22.7636 74.3063 22.6498 74.6795 22.5028C74.6795 22.5028 77.8505 15.8676 81.3487 11.5234C84.847 7.18778 91.8265 -0.293336 94.5682 1.51743C95.2313 1.96375 94.9338 3.49398 94.0326 5.35151C93.6264 5.48345 93.2135 5.59411 92.7957 5.68306C93.3993 4.58639 93.7988 3.66401 93.9179 3.01791C94.3302 0.773576 89.0934 5.50453 85.3528 10.584C83.0984 13.6477 81.0955 16.8888 79.3637 20.2755C80.0393 19.8635 80.6843 19.4033 81.2935 18.8983C82.9632 17.515 84.55 16.0346 86.0457 14.4649C87.4849 12.991 88.8347 11.4325 90.088 9.79766C90.4867 9.77826 90.884 9.73712 91.2782 9.6744C89.9107 11.5297 88.4196 13.2906 86.8151 14.9452C85.3273 16.4542 83.7121 18.0779 82.3051 19.2596C81.0517 20.3242 79.7298 21.3054 78.3478 22.1968C78.3478 22.1968 75.0748 28.798 76.8558 29.2188C77.9015 29.4738 79.9673 26.2859 79.9673 26.2859C79.9673 26.2859 82.6664 22.1755 84.2902 20.318C86.509 17.7974 88.4133 16.3394 90.3261 16.3139C91.4355 16.2926 92.0901 17.4743 92.0901 17.4743L92.6129 16.6667H95.8306C95.8306 16.6667 89.8203 26.8597 89.3399 27.6291M98.313 3.91054C96.0474 5.36001 92.9147 6.6777 89.901 6.39716C89.1359 7.18353 88.324 8.09741 87.5037 9.09206C92.7277 10.125 97.3014 6.89024 99.737 4.13158C100.624 3.14183 101.386 2.04689 102.007 0.87134C100.899 2.02448 99.6591 3.03889 98.313 3.90204M53.1288 8.90928H50.0683L48.3383 11.7062H51.3988L53.1288 8.90928ZM38.6341 18.588C39.9391 16.8027 43.5309 10.55 43.5309 10.55C43.5158 10.4307 43.4604 10.32 43.3738 10.2365C43.2872 10.153 43.1746 10.1017 43.0548 10.091C42.5575 10.0655 41.7286 10.2355 40.0793 12.297C38.4344 14.3586 37.1549 15.9951 36.224 17.7038C35.2039 19.5656 34.7533 20.8791 35.3441 21.2361C35.5336 21.3311 35.7512 21.3538 35.9562 21.2999C36.3388 21.2064 36.8404 20.8196 37.5247 20.0332C37.9144 19.5659 38.2859 19.0838 38.6384 18.588M22.2182 10.1292C21.3723 9.49162 19.2215 10.9836 19.2087 12.5096C19.196 14.0781 21.147 14.5584 21.3978 14.5669C21.4713 14.5735 21.5451 14.5587 21.6104 14.5244C21.6553 14.4975 21.691 14.4574 21.7124 14.4096C21.9427 13.96 22.1498 13.4989 22.333 13.0281C22.6305 12.2503 23.0046 10.7286 22.2182 10.1292ZM20.943 15.5275C20.3599 15.3446 19.8028 15.0874 19.2853 14.7624C18.7825 14.4351 18.3738 13.9824 18.0993 13.449C18.0696 13.398 18.0356 13.4362 18.0058 13.483C17.9761 13.5255 17.806 13.7423 16.6541 15.4298C15.5064 17.1215 13.7977 20.573 15.3959 21.1681C16.4161 21.5507 18.1333 19.7484 19.0685 18.5667C19.7673 17.6391 20.413 16.6727 21.0025 15.672C21.0408 15.57 21.0025 15.5445 20.943 15.5275ZM45.9367 16.5647H47.0546C47.0546 16.5647 41.4395 24.6919 38.2643 24.3136C36.4961 24.1053 37.0189 21.9205 37.0189 21.9205C37.0189 21.9205 34.5323 24.8322 32.2454 24.2413C30.1754 23.71 31.5143 20.2627 31.5143 20.2627C31.2763 20.3562 26.7919 25.4102 23.6379 24.1988C20.3394 22.9236 22.0524 18.69 22.6815 17.419C23.2128 16.3436 23.7994 15.298 23.7994 15.298C23.7994 15.298 23.2936 15.4425 22.9706 15.5148L22.1799 15.6848C22.1799 15.6848 20.62 18.2182 19.6678 19.4849C18.7114 20.7473 14.6606 25.0957 12.2717 24.2328C9.88286 23.3657 10.4737 20.0247 11.8169 17.368C13.9932 13.0664 19.1535 7.77862 22.2649 8.57773C25.4062 9.3811 22.8048 14.4776 22.8048 14.4776C22.8048 14.4776 23.4296 14.5584 24.9301 13.534C27.0852 12.0633 29.9288 8.10592 33.0106 8.57349C34.4643 8.79027 35.816 10.2737 33.9669 13.0962C33.3761 14.0015 32.3857 14.8092 31.6291 14.01C31.1573 13.5085 31.5696 12.6073 32.0669 11.9825C32.2598 11.7297 32.5119 11.5281 32.8009 11.3954C33.09 11.2627 33.4072 11.2031 33.7247 11.2216C33.7247 11.2216 34.2347 10.0612 32.9383 10.0782C31.8884 10.0995 29.236 12.5436 27.7398 15.0089C26.3668 17.2745 24.284 21.1341 26.3711 21.9757C28.2881 22.7493 31.9351 18.4222 33.6226 16.1524C35.3101 13.8868 39.157 8.74776 42.3874 8.54373C43.4969 8.47147 44.16 9.48312 44.16 9.48312L44.534 8.89228H47.7602C47.7602 8.89228 41.6818 19.0385 41.2058 19.8037C40.8317 20.403 40.3386 21.7589 41.7031 20.9981C43.0718 20.2415 45.9367 16.5647 45.9367 16.5647ZM44.177 32.8191C41.8007 31.1736 38.9551 30.3429 36.0668 30.4515C35.2859 30.473 34.5211 30.6782 33.8343 31.0504C33.1475 31.4226 32.558 31.9513 32.1137 32.5938C30.881 30.4472 28.4496 29.1295 24.6878 29.1593C18.6094 29.2273 12.5778 32.0327 7.8043 32.0285C3.22637 32.0285 -0.114628 29.1508 -0.00411172 24.0373C0.195668 15.0727 7.77455 6.9965 13.4279 3.36221C16.6881 1.2794 19.417 0.654559 21.198 0.854338C22.4987 0.99886 24.063 2.50358 23.0768 4.71816C21.6274 7.95289 19.6253 7.68935 19.6976 6.14212C19.7401 5.13472 20.4117 4.50138 20.9132 4.14858C21.2769 3.95537 21.6831 3.85602 22.0949 3.85953C22.384 3.61725 22.5922 1.84474 20.2714 2.42707C17.9506 3.00941 15.1281 5.3005 12.4502 8.25469C9.77234 11.2131 5.60672 16.8027 4.57807 22.6728C4.09775 25.3932 4.4123 30.358 10.869 30.3027C16.3396 30.2602 24.4073 26.6514 31.8204 26.7279C34.4014 26.7178 36.9364 27.4114 39.1527 28.7342C41.0697 29.9159 43.3693 31.6417 44.1855 32.8191" fill="#828282"/>
</svg>
