<svg width="114" height="41" viewBox="0 0 114 41" fill="none" xmlns="http://www.w3.org/2000/svg">
<g id="Comcast_Logo 1" clip-path="url(#clip0_1_5433)">
<g id="Group">
<path id="Vector" d="M56.9905 2.82857C57.4078 2.14715 58.1002 1.43417 58.8457 1.13262C60.129 0.548748 61.8491 0.799835 62.8961 1.72373C63.9093 2.64164 64.4232 3.89968 64.1807 5.30617C64.4292 5.26035 64.6801 5.10125 64.9431 5.01073C66.5159 4.56683 68.1792 5.04818 69.1876 6.39664C69.9451 7.35923 70.143 8.85478 69.6883 10.0177C69.4627 10.6026 69.0779 11.1285 68.5775 11.5773L68.628 11.6279C70.0912 11.699 71.5291 12.8353 71.9729 14.2284C72.4542 15.6337 72.0308 17.1354 71.0032 18.1631C70.1636 18.993 69.084 19.2802 67.8839 19.256H46.0962C44.3072 19.2946 42.9249 18.502 42.1807 16.9112C41.5968 15.5457 41.8852 13.7991 42.9755 12.7582C43.663 12.0393 44.5244 11.7448 45.4531 11.5966C44.4014 10.6208 43.8947 9.28556 44.1902 7.85371C44.4014 6.69344 45.3904 5.51856 46.5266 5.11325C47.5277 4.71517 48.8836 4.7851 49.8004 5.32541L49.833 5.28558C49.5567 3.70664 50.2564 2.28215 51.5661 1.40883C52.7339 0.618903 54.601 0.639271 55.7444 1.47898C56.2584 1.79366 56.6817 2.33408 56.9905 2.82857Z" fill="white"/>
<path id="Vector_2" d="M63.1588 3.41841C63.6269 4.3629 63.352 5.60046 62.8634 6.44844L59.0832 14.9534L59.0505 14.9932L57.684 6.36527C57.5744 5.53676 58.4596 5.18327 58.9806 4.78519C58.9542 4.66344 58.8202 4.66944 58.7359 4.61275L57.4586 4.5994L57.4198 4.56081C57.427 3.4897 58.0037 2.50062 58.9806 1.9808C60.0013 1.39104 61.4389 1.55138 62.3242 2.3077C62.6837 2.62837 62.9865 3.00099 63.1588 3.41841Z" fill="#828282"/>
<path id="Vector_3" d="M56.1943 3.12286C56.5032 3.69462 56.6817 4.34367 56.5731 5.06242L55.0316 14.9413C55.04 14.9533 55.0256 14.9666 55.0134 14.9725L54.6142 14.1777L50.7507 5.54977C50.3912 4.43883 50.7242 3.27731 51.5335 2.48105C52.3489 1.65367 53.6902 1.42929 54.7565 1.87805C55.3211 2.12179 55.8602 2.57055 56.1943 3.12286Z" fill="#828282"/>
<path id="Vector_4" d="M68.7509 7.28182C69.2707 8.16826 69.1538 9.5097 68.5758 10.3323C68.2178 10.9101 67.6266 11.1984 67.126 11.5771L59.1206 17.0724H59.1023L59.1917 16.8096L63.4352 7.23124C64.0709 6.10219 65.2843 5.53043 66.5677 5.70287C67.447 5.86344 68.3263 6.43509 68.7509 7.28182Z" fill="#828282"/>
<path id="Vector_5" d="M50.565 7.23133L54.981 17.0715H54.9099L46.007 10.9355C45.101 10.1721 44.7296 9.02855 45.0371 7.87302C45.2675 7.00695 45.9864 6.19767 46.8416 5.87666C48.2419 5.36407 49.8195 5.90924 50.565 7.23133Z" fill="#828282"/>
<path id="Vector_6" d="M71.0741 14.2283C71.5179 15.1656 71.3431 16.449 70.7086 17.2461C70.0792 18.0098 69.2371 18.4271 68.2491 18.4005L58.7563 18.4067L66.7087 12.8739C67.4857 12.3733 68.6666 12.2827 69.5145 12.688C70.1694 12.945 70.7858 13.5867 71.0741 14.2283Z" fill="#828282"/>
<path id="Vector_7" d="M42.9635 14.2283C42.5209 15.1656 42.6945 16.449 43.3302 17.2461C43.9598 18.0098 44.7993 18.4271 45.7885 18.4005L55.2812 18.4067L47.3288 12.8739C46.552 12.3733 45.3713 12.2827 44.5244 12.688C43.8693 12.945 43.253 13.5867 42.9635 14.2283Z" fill="#828282"/>
<path id="Vector_8" d="M25.9174 24.0891C21.3049 24.0891 17.5562 27.8404 17.5562 32.453C17.5562 37.0643 21.3049 40.8178 25.9174 40.8178C30.53 40.8178 34.2813 37.0643 34.2813 32.453C34.2813 27.8405 30.53 24.0891 25.9174 24.0891ZM25.9174 39.1702C22.2132 39.1702 19.1989 36.1561 19.1989 32.4531C19.1989 28.751 22.2132 25.7369 25.9174 25.7369C29.6217 25.7369 32.636 28.7511 32.636 32.4531C32.636 36.1561 29.6217 39.1702 25.9174 39.1702Z" fill="#828282"/>
<path id="Vector_9" d="M98.0289 32.5591C97.5803 32.3237 94.8507 30.9186 94.4586 30.7148C93.0269 29.9826 92.519 29.336 92.519 28.2408C92.519 26.7187 93.7688 25.7356 95.7069 25.7356C96.8446 25.7356 97.9444 26.2362 98.5898 26.5992C98.707 26.6631 98.8457 26.6993 98.9903 26.6993C99.4414 26.6993 99.8118 26.3291 99.8118 25.8779C99.8118 25.574 99.6451 25.3073 99.4005 25.1649C98.5876 24.7113 97.2014 24.0902 95.7069 24.0902C92.8592 24.0902 90.8725 25.7957 90.8725 28.2408C90.8725 30.435 92.3151 31.4699 93.7265 32.1912C94.122 32.3926 96.883 33.8159 97.2967 34.0341C98.3872 34.6047 98.9903 35.4611 98.9903 36.4467C98.9903 37.7674 97.8711 39.1714 95.8 39.1714C93.7856 39.1714 92.2212 37.8205 91.7894 37.4043L91.6602 37.2812L90.4432 38.3909L90.5855 38.5332C91.1258 39.069 93.1017 40.8178 95.8 40.8178C98.8252 40.8178 100.633 38.5948 100.633 36.4467C100.633 34.8425 99.6852 33.4249 98.0289 32.5591Z" fill="#828282"/>
<path id="Vector_10" d="M8.77017 25.7367C10.5661 25.7367 12.2536 26.4365 13.5201 27.7017C13.8217 28.002 14.3886 28.002 14.6853 27.7017C14.8421 27.5484 14.9253 27.3423 14.9253 27.1215C14.9253 26.9031 14.8421 26.6945 14.6853 26.5413L14.584 26.4375C13.0183 24.9225 10.9521 24.0891 8.77017 24.0891C4.15996 24.0891 0.408691 27.8416 0.408691 32.4517C0.408691 37.0644 4.15996 40.818 8.77017 40.818C11.2041 40.818 13.397 39.7737 14.9253 38.1088L13.7613 36.9437C12.5309 38.3091 10.7506 39.1703 8.77006 39.1703C5.067 39.1703 2.0527 36.155 2.0527 32.4518C2.05281 28.7523 5.06711 25.7367 8.77017 25.7367Z" fill="#828282"/>
<path id="Vector_11" d="M65.4653 25.7367C67.259 25.7367 68.9487 26.4365 70.2151 27.7017C70.5155 28.002 71.0826 28.002 71.3793 27.7017C71.5361 27.5484 71.6229 27.3423 71.6229 27.1215C71.6229 26.9031 71.536 26.6945 71.3793 26.5413L71.2791 26.4375C69.7099 24.9225 67.6461 24.0891 65.4653 24.0891C60.8541 24.0891 57.1014 27.8415 57.1014 32.4516C57.1014 37.0643 60.8541 40.8178 65.4653 40.8178C67.8981 40.8178 70.091 39.7736 71.6216 38.1087L70.4564 36.9436C69.2261 38.309 67.4432 39.1702 65.4653 39.1702C61.761 39.1702 58.7455 36.1549 58.7455 32.4517C58.7455 28.7523 61.761 25.7367 65.4653 25.7367Z" fill="#828282"/>
<path id="Vector_12" d="M51.2985 24.0891C50.9897 24.0891 50.7459 24.2881 50.6132 24.545C50.4781 24.8019 45.6919 36.6408 45.6908 36.6408C45.6908 36.6408 40.9046 24.8018 40.7707 24.545C40.6368 24.288 40.3933 24.0891 40.0845 24.0891C39.7238 24.0891 39.4524 24.3545 39.3571 24.6887C39.2619 25.0251 36.5612 39.9252 36.5612 39.9252C36.5515 39.9736 36.5468 40.0243 36.5468 40.076C36.5468 40.486 36.8809 40.8178 37.2886 40.8178C37.6505 40.8178 37.952 40.5599 38.0171 40.2185L40.3558 27.4701C40.3558 27.4701 44.8683 38.6178 44.9998 38.883C45.1325 39.1472 45.3785 39.3535 45.6922 39.3535C46.0057 39.3535 46.2507 39.1472 46.3821 38.883C46.5148 38.6177 51.0271 27.4701 51.0271 27.4701L53.4575 40.7262H54.9679C54.9679 40.7262 52.1224 25.025 52.0272 24.6887C51.9304 24.3545 51.659 24.0891 51.2985 24.0891Z" fill="#828282"/>
<path id="Vector_13" d="M81.0337 24.0902C80.7213 24.0891 80.479 24.2929 80.3426 24.5582C80.2074 24.8224 74.1488 39.7866 74.1488 39.7866C74.1126 39.8746 74.092 39.9724 74.092 40.0761C74.092 40.486 74.4238 40.8191 74.8339 40.8191C75.1463 40.8191 75.4141 40.6236 75.524 40.3474L77.8759 34.5614H84.1927L86.7018 40.7262H88.3047C88.3047 40.7262 81.8564 24.8223 81.7238 24.5581C81.5921 24.2929 81.3472 24.0891 81.0337 24.0902ZM78.5464 32.9147L81.0336 26.7992L83.5232 32.9147H78.5464Z" fill="#828282"/>
<path id="Vector_14" d="M112.766 24.1782H103.455C103.001 24.1782 102.633 24.5474 102.633 25.0021C102.633 25.4544 103.001 25.8235 103.455 25.8235H107.358V40.7249H108.866V25.8236H112.766C113.22 25.8236 113.591 25.4545 113.591 25.0022C113.591 24.5474 113.22 24.1782 112.766 24.1782Z" fill="#828282"/>
</g>
</g>
<defs>
<clipPath id="clip0_1_5433">
<rect width="113.183" height="40" fill="white" transform="translate(0.408691 0.819092)"/>
</clipPath>
</defs>
</svg>
