<svg width="40" height="41" viewBox="0 0 40 41" fill="none" xmlns="http://www.w3.org/2000/svg">
<g id="cib:hp" clip-path="url(#clip0_1_5409)">
<path id="Vector" d="M20 40.8191H19.3363L23.5025 29.6541H29.1663C30.1688 29.6541 31.165 28.8203 31.4975 27.9878L36.0025 15.8203C36.6662 13.8216 35.5013 12.1553 33.5025 12.1553H25.6637L15.5013 40.3191C6.4975 38.1516 0 30.3191 0 20.8203C0 11.6541 6.165 3.98409 14.6675 1.48409L10.8325 12.1541L4.335 29.6541H8.50125L13.8338 14.8166H16.9975L11.665 29.6541H15.8313L20.8313 15.8191C21.495 13.8203 20.4988 12.1541 18.3312 12.1541H14.9975L19.1637 0.819092H19.9975C31 0.819092 39.9975 9.81659 39.9975 20.8191C39.9975 31.8216 31 40.8191 19.9975 40.8191H20ZM32.1675 14.6541H28.9975L24.4988 26.8216H27.6688L32.1675 14.6541Z" fill="#828282"/>
</g>
<defs>
<clipPath id="clip0_1_5409">
<rect width="40" height="40" fill="white" transform="translate(0 0.819092)"/>
</clipPath>
</defs>
</svg>
