<svg width="156" height="21" viewBox="0 0 156 21" fill="none" xmlns="http://www.w3.org/2000/svg">
<g id="Hyundai_Motor_Company_logo 1" clip-path="url(#clip0_1_5453)">
<g id="g832">
<path id="path828" fill-rule="evenodd" clip-rule="evenodd" d="M145.581 5.88841H139.216C138.147 5.95161 137.849 6.21652 137.849 7.51348V11.0888H145.581V5.88841ZM148.97 3.02539V18.6157H145.581V14.1343H137.849V18.6157H134.46V6.39355C134.46 4.23405 135.334 3.02539 137.849 3.02539H148.97ZM131.071 6.39062V14.8278C131.071 17.5138 129.562 18.6128 127.681 18.6128H116.991V3.02246H127.681C130.568 3.02246 131.071 4.85804 131.071 6.39062ZM127.641 7.32892C127.641 6.47474 127.121 5.88548 126.209 5.88548H120.381V15.6267L126.209 15.6263C127.537 15.5589 127.641 14.7629 127.641 14.1314V7.32892ZM47.9065 3.02246H51.2956V9.16743H58.8781V3.02246H62.2672V18.6124H58.8781V12.2502H51.2956V18.6124H47.9065V3.02246ZM68.0757 3.02246L72.3244 9.39594L76.5221 3.02246H80.6373L74.0173 12.9897V18.6128H70.6278V12.9888L63.9618 3.02246H68.0757ZM99.6614 3.02246H110.583C112.139 3.02246 113.646 3.24092 113.602 6.39062V18.6128H110.213V7.51055C110.213 6.16798 110.052 5.88548 108.999 5.88548H103.051V18.6128H99.6614V3.02246ZM155.748 3.02539V18.6157H152.358V3.02539H155.748ZM82.3322 18.6128H93.2528C95.424 18.6128 96.3167 17.9846 96.2728 14.8541V3.02246H92.8837V14.1519C92.8837 15.4861 92.7226 15.648 91.6692 15.648H85.7217L85.7213 3.02246H82.3322V18.6128Z" fill="#828282"/>
<path id="path830" fill-rule="evenodd" clip-rule="evenodd" d="M23.9838 13.1302C24.2827 14.6745 23.4733 15.9572 22.8007 17.2023C22.0537 18.3607 20.8208 19.3563 19.3388 19.2073C16.0133 19.1575 12.7632 18.647 9.74909 17.7375C9.61224 17.7003 9.47539 17.6128 9.40047 17.4885C9.33811 17.314 9.42558 17.152 9.54988 17.0403C12.3024 14.8109 15.5777 13.7776 18.8157 12.6937C20.0235 12.345 21.3066 11.9713 22.6639 12.1458C23.2238 12.2207 23.7842 12.607 23.9838 13.1302ZM35.3292 6.52986C36.8735 7.80003 38.2684 9.53141 37.7951 11.6235C37.0229 14.7121 33.6606 16.356 30.983 17.4019C29.5257 17.8878 28.0564 18.3862 26.4623 18.5356C26.3627 18.5231 26.2007 18.5478 26.1756 18.3984L26.2128 18.2243C28.4795 15.6709 30.1979 12.8071 31.7053 9.90513C32.4026 8.59729 33.0504 7.25262 33.6481 5.93223C33.7351 5.83262 33.8226 5.78282 33.9222 5.74557C34.4822 5.79495 34.881 6.23104 35.3292 6.52986ZM13.5969 3.24205L13.5471 3.4287C10.2718 7.15218 8.11732 11.4737 6.075 15.7701C5.67658 16.1439 5.29029 15.6454 4.92912 15.4834C3.1107 14.2882 1.46679 12.3576 1.94013 10.0663C2.69972 7.07769 5.77576 5.48358 8.34164 4.40048C9.86083 3.82754 11.4428 3.36676 13.1114 3.10519C13.2859 3.10478 13.5098 3.08008 13.5969 3.24205ZM29.8497 3.83968C30.0363 3.93928 30.2607 3.97653 30.3728 4.16319C30.4724 4.37495 30.2732 4.5118 30.161 4.64908C27.583 6.66629 24.6317 7.78748 21.6176 8.77139C20.0854 9.14512 18.5411 9.81767 16.8353 9.44394C16.4365 9.34433 16.0757 9.08276 15.8514 8.69648C15.4278 7.52591 16.0008 6.30554 16.4988 5.28437C17.1588 4.00164 18.3298 2.49459 19.9486 2.4699C23.4356 2.44479 26.7234 2.96792 29.8497 3.83968ZM34.1586 3.93928C36.799 5.38398 39.788 7.92433 39.4766 11.3117C39.1155 14.4501 36.1888 16.6419 33.5736 17.9623C25.9391 21.6113 15.2165 21.723 7.33304 18.5352C4.66755 17.427 1.67856 15.5215 0.55737 12.6568C-0.301829 10.3031 0.744025 7.84983 2.50051 6.21849C6.17418 2.88087 10.8569 1.73541 15.6769 1.07501C20.9078 0.439709 26.412 1.00009 31.0947 2.60675C32.141 2.99303 33.1747 3.41657 34.1586 3.93928Z" fill="#828282"/>
</g>
</g>
<defs>
<clipPath id="clip0_1_5453">
<rect width="155.497" height="20" fill="white" transform="translate(0.251587 0.819092)"/>
</clipPath>
</defs>
</svg>
