<svg width="88" height="33" viewBox="0 0 88 33" fill="none" xmlns="http://www.w3.org/2000/svg">
<path id="Vector" d="M84.7169 0.819092C84.0215 0.819092 83.3545 1.09535 82.8628 1.58709C82.3711 2.07884 82.0948 2.74578 82.0948 3.44121C82.0948 4.13664 82.3711 4.80359 82.8628 5.29533C83.3545 5.78708 84.0215 6.06334 84.7169 6.06334C85.4124 6.06334 86.0793 5.78708 86.571 5.29533C87.0628 4.80359 87.3391 4.13664 87.3391 3.44121C87.3391 2.74578 87.0628 2.07884 86.571 1.58709C86.0793 1.09535 85.4124 0.819092 84.7169 0.819092ZM84.7169 1.20916C85.9449 1.20916 86.9562 2.22045 86.9562 3.44482C86.9555 3.88669 86.8239 4.31843 86.5779 4.68553C86.332 5.05263 85.9828 5.33862 85.5744 5.50739C85.1661 5.67615 84.7168 5.72012 84.2835 5.63374C83.8502 5.54736 83.4521 5.33451 83.1397 5.02206C82.8272 4.70962 82.6144 4.31159 82.528 3.87825C82.4416 3.44491 82.4856 2.9957 82.6544 2.58733C82.8231 2.17896 83.1091 1.82976 83.4762 1.58383C83.8433 1.3379 84.2751 1.20987 84.7169 1.20916ZM30.0497 1.40419C26.7991 1.40419 24.4515 3.54234 24.13 7.33106H21.6199V9.21638H24.0939C24.1047 15.2335 24.0867 21.2579 24.0867 27.2678H26.8966C26.8858 21.2507 26.8894 15.2335 26.8894 9.21638H33.2027C30.8695 11.1089 29.349 14.1753 29.349 17.6462C29.349 23.3997 33.5278 28.0624 38.6745 28.0624C43.8248 28.0624 48 23.3997 48 17.6462C48 16.9599 47.9386 16.2882 47.8266 15.6417C48.7512 17.1333 50.5282 17.8557 52.912 18.885C55.7219 20.0769 57.293 21.1134 57.293 22.8868C57.293 25.0105 55.2849 26.1193 53.0239 26.1013C50.8172 26.1013 49.0944 25.2019 47.1729 23.4647V26.8019C48.3467 27.5568 50.1598 27.9866 52.121 27.9866C54.5914 27.9757 59.6768 27.0837 59.6768 21.9333C59.6587 18.8417 57.0944 17.5125 54.3097 16.3026C50.9183 14.6232 49.6253 14.2692 49.6578 12.3478C49.6578 9.78343 51.8898 9.01774 53.6307 9.01774C54.3892 9.01774 55.0393 9.12609 55.6497 9.32834C56.791 9.76175 57.1666 10.6105 57.5747 11.5351C59.4817 15.9992 61.3092 20.4958 63.1693 24.9816C62.3551 26.8426 61.4916 28.6816 60.5797 30.4967L60.5652 30.5329L59.9874 31.6055L59.3372 32.8191H62.0894C63.2885 30.1681 68.3847 17.7618 69.4826 15.0891C70.205 17.0141 71.9567 17.787 74.6474 18.95C77.4573 20.1383 79.0321 21.1748 79.0321 22.9482C79.0321 25.0755 77.0239 26.1771 74.7666 26.159C72.4731 26.159 70.6998 25.1875 68.6917 23.3166L68.5111 23.1685V26.5672C69.6307 27.5062 71.6533 28.048 73.8637 28.048C76.3341 28.0408 81.4158 27.1487 81.4158 21.9983C81.4014 18.9067 78.8334 17.5703 76.0488 16.364C72.6609 14.6809 71.498 14.327 71.5341 12.4019C71.5341 9.84121 73.6253 9.07191 75.3625 9.07191C77.3454 9.07191 78.5986 9.80871 80.3467 11.0764V8.09313C78.999 7.60495 77.5721 7.37224 76.1391 7.4069C72.9246 7.40329 70.0135 8.5771 69.2767 11.2967L65.2858 21.1712L64.8668 22.4137L64.502 21.1712C62.6889 16.8046 60.912 12.4164 59.135 8.06063C57.9937 7.75724 56.1336 7.33105 54.8226 7.35272H54.4072C50.6871 7.3455 47.0971 8.91661 47.0971 12.615C47.0971 12.8317 47.1079 13.0304 47.1187 13.229C45.6307 9.68591 42.4126 7.23354 38.6745 7.23354C38.2308 7.23135 37.7876 7.26395 37.349 7.33106H26.8605C26.4271 4.68365 27.6659 3.17755 29.526 3.17755C31.8628 3.17755 32.8632 3.87101 33.8781 4.80284H33.9792C33.9901 3.91796 33.9865 2.88501 33.9865 1.93512C33.3183 1.62451 32.1589 1.40419 30.0497 1.40419ZM0.66095 1.49087V27.2678H3.76704V1.49087H0.66095ZM83.7309 1.99291V4.75589H84.233V3.64347H84.8253L85.2551 4.75589H85.8113L85.3056 3.56401C85.4826 3.47372 85.7824 3.3762 85.7824 2.88862C85.7824 2.0832 85.1792 1.99291 84.6555 1.99291H83.7309ZM84.233 2.46966H84.7892C85.0889 2.46966 85.2551 2.59245 85.2551 2.83805C85.2551 3.08365 85.0673 3.19923 84.8325 3.19923H84.233V2.46966ZM15.7291 7.26966C12.316 7.26966 10.8786 8.47959 9.74086 9.70036C9.6872 9.77184 9.64459 9.85097 9.61445 9.93512H9.58194V9.77981L9.54583 7.5297H6.82257V27.2678H9.62167V12.8317C9.70474 11.062 12.2005 9.3139 14.1436 9.3139C16.484 9.3139 18.3982 10.8886 18.3982 13.0665V27.2678H21.1973L21.1901 11.7807C21.107 10.0362 18.9905 7.26604 15.7255 7.26604L15.7291 7.26966ZM38.4217 9.27778C41.9395 9.21638 44.8614 12.9654 44.9409 17.6498C45.0203 22.3342 42.2321 26.1807 38.7106 26.2457C35.1928 26.3035 32.2745 22.5618 32.195 17.8773C32.112 13.1929 34.9038 9.34279 38.4217 9.28139V9.27778Z" fill="#828282"/>
</svg>
