<svg width="56" height="37" viewBox="0 0 56 37" fill="none" xmlns="http://www.w3.org/2000/svg">
<g clip-path="url(#clip0_7569_65733)">
<path d="M16.4991 15.7272V24.7704H13.6206V13.4036L19.5637 13.4095C22.0878 13.4095 22.9477 15.1895 22.9477 16.8064V24.7704H20.0743V16.8213C20.0743 16.1441 19.7237 15.7272 18.878 15.7272H16.4991ZM33.7347 18.0169H38.1634C38.2324 14.6741 33.73 14.8925 33.7348 18.0169H33.7347ZM41.0369 19.9761H33.7347C33.6477 22.6763 37.0739 23.4193 38.9229 21.4485L40.7009 23.1461C39.5624 24.2701 38.368 24.9526 36.2631 24.9526C33.5075 24.9526 30.8703 23.45 30.8703 19.0708C30.8703 15.3291 33.1729 13.211 36.1984 13.211C39.4929 13.2722 41.2972 15.8312 41.0369 19.9761ZM28.4402 24.7561C26.0952 24.7561 25.1001 23.1236 25.1001 21.5112V10.3066H27.9743V13.4036H30.141V15.7272H27.9743V21.3311C27.9743 21.9915 28.2861 22.358 28.9718 22.358H30.141V24.7561H28.4402ZM11.0592 11.8327H8.16077V9.07953H11.0592V11.8327ZM11.0665 24.8899C8.89599 24.6813 8.15771 23.3648 8.15771 21.8456L8.16088 13.4036H11.0665V24.8898V24.8899ZM45.6115 24.6471C43.4456 24.4381 42.7108 23.1236 42.7108 21.6065V8.68775H45.6116L45.6115 24.6471ZM55.7526 10.5547C53.1236 -2.26222 28.244 -3.07367 12.2074 6.68903V7.76681C28.2277 -0.466284 50.9484 -0.417721 53.0184 11.3872C53.711 15.2907 51.5113 19.3605 47.5829 21.6998V24.7603C52.3113 23.0304 57.1605 17.421 55.7526 10.5547ZM26.6017 32.9795C15.534 34.0026 4.00047 32.3961 2.38676 23.7476C1.59685 19.4842 3.53913 14.9648 6.11568 12.1573V10.6562C1.4773 14.7237 -1.04007 19.8729 0.409147 25.9573C2.25879 33.7593 12.1573 38.1808 27.2657 36.7125C33.2434 36.1291 41.0673 34.207 46.5067 31.2216V26.9803C41.5711 29.9192 33.4039 32.3495 26.6015 32.9794L26.6017 32.9795Z" fill="#4F4F4F"/>
</g>
<defs>
<clipPath id="clip0_7569_65733">
<rect width="56" height="37" fill="white"/>
</clipPath>
</defs>
</svg>
