<svg width="108" height="41" viewBox="0 0 108 41" fill="none" xmlns="http://www.w3.org/2000/svg">
<g id="simple-icons:lenovo" clip-path="url(#clip0_1_5388)">
<path id="Vector" d="M95.8166 22.0988C95.8166 24.321 94.2922 25.9522 92.1944 25.9522C90.1322 25.9522 88.5188 24.2633 88.5188 22.0988C88.5188 19.8322 90.0433 18.241 92.1411 18.241C94.2033 18.241 95.8166 19.9344 95.8166 22.0988ZM32.2388 18.0099C31.6828 17.9909 31.1303 18.1047 30.627 18.342C30.1238 18.5793 29.6845 18.9332 29.3455 19.3744C28.6662 20.3233 28.3913 21.5029 28.5811 22.6544L35.1544 19.9255C34.9109 19.3551 34.5042 18.8693 33.9854 18.5293C33.4667 18.1893 32.8591 18.0101 32.2388 18.0144V18.0099ZM63.1855 18.241C61.0877 18.241 59.5588 19.8322 59.5588 22.0988C59.5588 24.2588 61.1766 25.9522 63.2388 25.9522C65.3366 25.9522 66.8611 24.3166 66.8611 22.0988C66.8611 19.9344 65.2477 18.241 63.1855 18.241ZM108.954 3.02771V38.6099H2.28772V3.02771H108.954ZM24.5544 25.4855H16.0122V11.1522H12.1988V28.9433H24.5544V25.4855ZM29.6077 25.0677L39.2211 21.081C39.0493 19.676 38.4786 18.3497 37.5766 17.2588C36.3144 15.7922 34.4477 15.0144 32.1722 15.0144C28.0344 15.0144 24.9144 18.0633 24.9144 22.0944C24.9144 26.2277 28.0433 29.1744 32.5855 29.1744C35.1277 29.1744 37.7322 27.9655 38.9499 26.5566L36.5722 24.7299C34.9855 25.9033 34.0833 26.1788 32.6388 26.1788C31.3411 26.1788 30.3277 25.7788 29.6077 25.0677ZM54.3633 20.4499C54.3633 17.2988 52.1099 15.0144 48.7988 15.0144C47.9366 15.0179 47.0865 15.2174 46.3127 15.5978C45.5388 15.9781 44.8616 16.5294 44.3322 17.2099V15.2455H40.5722V28.9388H44.3322V21.1477C44.3322 19.7433 45.4211 18.2544 47.4344 18.2544C48.9899 18.2544 50.5988 19.3344 50.5988 21.1477V28.9388H54.3633V20.4499ZM70.5722 22.0944C70.5722 18.0766 67.3499 15.0144 63.2388 15.0144C59.0922 15.0144 55.8477 18.1255 55.8477 22.0944C55.8477 26.1077 59.0744 29.1699 63.1855 29.1699C67.3277 29.1699 70.5722 26.0588 70.5722 22.0944ZM79.7544 28.9388L85.3899 15.2455H81.0922L77.6922 24.5744L74.2922 15.241H69.9988L75.6344 28.9344L79.7544 28.9388ZM99.5277 22.0944C99.5277 18.0766 96.3055 15.0144 92.1944 15.0144C88.0522 15.0144 84.8077 18.1255 84.8077 22.0944C84.8077 26.1077 88.0299 29.1699 92.1411 29.1699C96.2833 29.1699 99.5277 26.0588 99.5277 22.0944Z" fill="#828282"/>
</g>
<defs>
<clipPath id="clip0_1_5388">
<rect width="106.667" height="40" fill="white" transform="translate(0.666626 0.819092)"/>
</clipPath>
</defs>
</svg>
