<svg width="96" height="22" viewBox="0 0 96 22" fill="none" xmlns="http://www.w3.org/2000/svg">
<path d="M60.8242 13.5671C59.1768 13.5671 57.8362 12.2266 57.8362 10.5791C57.8362 8.93169 59.1768 7.5911 60.8242 7.5911C62.4717 7.5911 63.8122 8.93169 63.8122 10.5791C63.8122 12.2427 62.4555 13.5671 60.8242 13.5671ZM60.8242 5.81445C58.1916 5.81445 56.0596 7.94644 56.0596 10.5791C56.0596 13.2118 58.1916 15.3438 60.8242 15.3438C63.4569 15.3438 65.5889 13.2118 65.5889 10.5791C65.5888 7.9626 63.4569 5.81445 60.8242 5.81445Z" fill="#828282"/>
<path d="M54.9932 13.8094H55.3808V15.6022H54.9932C52.942 15.6022 51.2622 13.9225 51.2622 11.8713V3.6825H53.055V6.0729H55.3646V7.86571H53.055V11.8874C53.0551 12.9372 53.9272 13.8094 54.9932 13.8094Z" fill="#828282"/>
<path d="M76.8301 13.5671C75.1827 13.5671 73.8421 12.2266 73.8421 10.5791C73.8421 8.93169 75.1826 7.5911 76.8301 7.5911C78.4776 7.5911 79.8181 8.93169 79.8181 10.5791C79.8019 12.2427 78.4614 13.5671 76.8301 13.5671ZM76.8301 5.81445C74.1974 5.81445 72.0654 7.94644 72.0654 10.5791C72.0654 13.2118 74.1974 15.3438 76.8301 15.3438C79.4628 15.3438 81.5947 13.2118 81.5947 10.5791C81.5947 7.9626 79.4628 5.81445 76.8301 5.81445Z" fill="#828282"/>
<path d="M90.5425 13.5671C88.8951 13.5671 87.5545 12.2266 87.5545 10.5791C87.5545 8.93169 88.895 7.5911 90.5425 7.5911C92.1899 7.5911 93.5305 8.93169 93.5305 10.5791C93.5305 12.2427 92.1738 13.5671 90.5425 13.5671ZM90.5425 5.81445C87.9098 5.81445 85.7778 7.94644 85.7778 10.5791C85.7778 13.2118 87.9098 15.3438 90.5425 15.3438C91.7054 15.3438 92.7714 14.9238 93.5951 14.2293V15.1661H95.3071V10.7245C95.3071 10.676 95.3071 10.6276 95.3071 10.5791C95.3071 7.9626 93.1752 5.81445 90.5425 5.81445Z" fill="#828282"/>
<path d="M70.5146 5.81445H71.3707V7.60726H70.5146C69.4487 7.60726 68.5765 8.47943 68.5765 9.54545V10.7083V12.9211V15.2307H66.7837V9.54545C66.7836 7.49423 68.4634 5.8145 70.5146 5.81445Z" fill="#828282"/>
<path d="M84.5828 3.44031H82.79V15.1985H84.5828V3.44031Z" fill="#828282"/>
<path d="M39.3424 9.78776V15.4569H37.5496V9.78776C37.5496 8.72179 36.6774 7.84957 35.6115 7.84957C34.5455 7.84957 33.6733 8.72174 33.6733 9.78776V15.4569H31.8805V9.78776C31.8805 8.72179 31.0083 7.84957 29.9424 7.84957C28.8764 7.84957 28.0042 8.72174 28.0042 9.78776V15.4569H26.2114V9.78776C26.2114 7.73654 27.8912 6.05676 29.9262 6.05676C31.073 6.05676 32.0744 6.55744 32.7688 7.36504C33.4634 6.55749 34.4647 6.05676 35.6115 6.05676C37.6627 6.05681 39.3424 7.73654 39.3424 9.78776Z" fill="#828282"/>
<path d="M45.3189 13.8094C43.6715 13.8094 42.3309 12.4689 42.3309 10.8214C42.3309 9.174 43.6714 7.83341 45.3189 7.83341C46.9663 7.83341 48.3069 9.17396 48.3069 10.8214C48.3069 12.4689 46.9502 13.8094 45.3189 13.8094ZM45.3189 6.05676C42.6701 6.05676 40.5381 8.18875 40.5381 10.8214C40.5381 13.4541 42.6701 15.5861 45.3027 15.5861C47.9354 15.5861 50.0674 13.4541 50.0674 10.8214C50.0836 8.20486 47.9516 6.05676 45.3189 6.05676Z" fill="#828282"/>
<path d="M11.5299 -0.00012207C5.53781 -0.00012207 0.692383 4.84531 0.692383 10.8375C0.692383 16.8297 5.53781 21.675 11.5299 21.675C17.5221 21.675 22.3675 16.8296 22.3675 10.8374C22.3675 4.87762 17.5867 -0.00012207 11.5299 -0.00012207Z" fill="#828282"/>
<path d="M14.7605 2.66492L11.5463 13.3248L11.5301 13.341L11.4978 13.3248L8.28372 2.66492L4.13281 16.3128H4.90806C4.90806 16.3128 5.42489 13.9386 6.28091 12.5173C6.74928 11.742 7.45996 11.1121 8.4129 11.1283C9.09127 11.1444 9.67272 11.5159 10.3995 12.5334C10.561 12.7595 10.7548 13.131 10.9486 13.4864C11.2555 14.084 11.5139 14.6977 11.5139 14.6977C11.5139 14.6977 12.1923 13.1472 12.6284 12.5334C13.3552 11.5159 13.9367 11.1444 14.615 11.1283C15.5679 11.1121 16.2947 11.742 16.747 12.5173C17.603 13.9386 18.1198 16.3128 18.1198 16.3128H18.8951L14.7605 2.66492Z" fill="white"/>
</svg>
