<svg width="150" height="33" viewBox="0 0 150 33" fill="none" xmlns="http://www.w3.org/2000/svg">
<g id="simple-icons:nationalgrid">
<path id="Vector" d="M4.01953 11.2494H5.7499V13.7087H5.80916C6.43731 11.9961 8.33361 10.8346 10.3366 10.8346C14.3247 10.8346 15.5336 12.9383 15.5336 16.3339V25.5013H13.7973V16.6124C13.7973 14.1531 12.9973 12.2983 10.1943 12.2983C7.44472 12.2983 5.79731 14.402 5.7499 17.1872V25.5013H4.01953V11.2494ZM18.6388 15.6109C18.7988 12.2746 21.1395 10.8346 24.381 10.8346C26.8818 10.8346 29.5958 11.605 29.5958 15.4213V22.9887C29.5958 23.6524 29.9277 24.0376 30.6151 24.0376C30.8106 24.0376 31.0299 23.9783 31.1662 23.925V25.3887C30.7967 25.471 30.4187 25.5088 30.0403 25.5013C28.2803 25.5013 28.0077 24.5057 28.0077 23.0124H27.9484C26.7395 24.8672 25.5069 25.9161 22.7869 25.9161C20.1795 25.9161 18.0284 24.6124 18.0284 21.7443C18.0284 17.7383 21.9099 17.602 25.6432 17.1635C27.0714 16.9976 27.8655 16.802 27.8655 15.2257C27.8655 12.8791 26.1943 12.2983 24.1618 12.2983C22.0166 12.2983 20.4284 13.2939 20.3692 15.6168L18.6388 15.6109ZM27.8655 17.7146H27.818C27.5929 18.1294 26.8225 18.2657 26.3603 18.3487C23.4151 18.8702 19.7647 18.8465 19.7647 21.6317C19.7647 23.3739 21.3055 24.4524 22.9232 24.4524C25.5603 24.4524 27.901 22.7635 27.8655 19.9783V17.7146ZM36.4166 11.2494H39.3025V12.7131H36.4166V22.325C36.4166 23.4509 36.5825 24.1146 37.8151 24.2035C38.3129 24.2035 38.8047 24.1739 39.2966 24.1146V25.608C38.7751 25.608 38.2832 25.6672 37.7558 25.6672C35.4566 25.6672 34.6566 24.8968 34.6862 22.4613V12.7131H32.2092V11.2494H34.6862V6.97092H36.4166V11.2494ZM44.1677 25.5013V11.2494H42.4314V25.5013H44.1677ZM44.1677 8.57092V5.78573H42.4314V8.57092H44.1677ZM60.1795 18.3783C60.1795 22.4672 57.821 25.9161 53.4832 25.9161C49.1336 25.9161 46.7751 22.4613 46.7751 18.3783C46.7751 14.2894 49.1336 10.8346 53.4773 10.8346C57.821 10.8346 60.1795 14.2894 60.1795 18.3783ZM48.5055 18.3783C48.5055 21.4124 50.1529 24.4524 53.4832 24.4524C56.8018 24.4524 58.4492 21.4124 58.4492 18.3783C58.4492 15.3383 56.8018 12.2983 53.4773 12.2983C50.1588 12.2983 48.5055 15.3383 48.5055 18.3783ZM62.7336 11.2494H64.4699V13.7087H64.5292C65.1573 11.9961 67.0477 10.8346 69.0566 10.8346C73.0447 10.8346 74.2536 12.9383 74.2536 16.3339V25.5013H72.5232V16.6124C72.5232 14.1531 71.7232 12.2983 68.9203 12.2983C66.1706 12.2983 64.5232 14.402 64.4699 17.1872V25.5013H62.7336V11.2494ZM77.3529 15.6109C77.5247 12.2746 79.8536 10.8346 83.101 10.8346C85.5958 10.8346 88.3158 11.605 88.3158 15.4213V22.9887C88.3158 23.6524 88.6477 24.0376 89.3351 24.0376C89.524 24.0329 89.7106 23.9948 89.8862 23.925V25.3887C89.5167 25.4708 89.1387 25.5086 88.7603 25.5013C86.9943 25.5013 86.7218 24.5057 86.7218 23.0124H86.6684C85.4595 24.8672 84.2269 25.9161 81.501 25.9161C78.8936 25.9161 76.7484 24.6124 76.7484 21.7443C76.7484 17.7383 80.624 17.602 84.3632 17.1635C85.7855 16.9976 86.5854 16.802 86.5854 15.2257C86.5854 12.8791 84.9084 12.2983 82.8758 12.2983C80.7366 12.2983 79.1425 13.2939 79.0832 15.6168L77.3529 15.6109ZM86.5854 17.7146H86.5262C86.3129 18.1294 85.5425 18.2657 85.0743 18.3487C82.1351 18.8702 78.4788 18.8465 78.4788 21.6317C78.4788 23.3739 80.0195 24.4524 81.6432 24.4524C84.2803 24.4524 86.6151 22.7635 86.5854 19.9783V17.7146ZM94.4669 25.5013V5.77981H92.7425V25.5013H94.4669ZM111.291 10.805V24.7309C111.291 27.2672 111.095 31.4924 103.895 31.4924C100.873 31.4924 97.6906 30.1946 97.5247 27.0717H101.697C101.862 27.8183 102.171 28.565 104.393 28.565C106.449 28.565 107.439 27.5694 107.439 25.1931V23.4272L107.385 23.3739C106.757 24.5057 105.791 25.5843 103.486 25.5843C99.9721 25.5843 97.1929 23.125 97.1929 17.9872C97.1929 12.9087 100.049 10.4198 103.261 10.4198C105.987 10.4198 107.083 12.0198 107.551 12.9917H107.611V10.8109L111.291 10.805ZM104.197 22.325C106.811 22.325 107.468 20.085 107.468 18.0702C107.468 15.6998 106.313 13.762 104.168 13.762C102.745 13.762 101.145 14.8168 101.145 18.2361C101.145 20.1146 101.916 22.325 104.197 22.325ZM114.585 10.8109H118.26V13.3531H118.319C119.119 11.8598 119.996 10.4198 122.337 10.4198C122.58 10.4198 122.828 10.4494 123.077 10.4791V14.3961C122.745 14.3428 122.337 14.3428 121.975 14.3428C118.982 14.3428 118.431 16.2213 118.431 17.8509V25.4954H114.585V10.8109ZM129.554 25.4954V10.7102H125.714V25.4954H129.554ZM124.802 4.98574L127.628 7.82425L130.455 4.97981L127.628 2.14722L124.802 4.98574ZM146.242 25.5013H142.479V23.6524H142.42C141.489 25.3117 139.788 25.8865 138.194 25.8865C133.857 25.8865 132.037 22.0228 132.037 17.9872C132.037 12.9087 134.894 10.4198 138.111 10.4198C138.958 10.3832 139.799 10.5773 140.544 10.9811C141.289 11.385 141.911 11.9837 142.342 12.7131H142.396V5.67907H146.242V25.5013ZM139.154 22.7161C141.602 22.7161 142.562 20.6657 142.562 18.485C142.562 16.1383 141.904 13.762 139.267 13.762C136.82 13.762 135.996 15.9487 135.996 18.2657C135.996 20.008 136.677 22.7161 139.154 22.7161Z" fill="#828282"/>
</g>
</svg>
