<svg width="154" height="21" viewBox="0 0 154 21" fill="none" xmlns="http://www.w3.org/2000/svg">
<g id="logos:oracle" clip-path="url(#clip0_1_5391)">
<path id="Vector" d="M66.5623 13.7454H76.6614L71.3214 5.15402L61.5205 20.6874H57.0602L68.9811 2.02835C69.4993 1.27461 70.3632 0.819092 71.3214 0.819092C72.248 0.819092 73.1119 1.25879 73.6146 1.997L85.5826 20.6874H81.1223L79.0179 17.2164H68.7931L66.5626 13.7454H66.5623ZM112.896 17.2161V1.00745H109.111V18.8027C109.111 19.2895 109.299 19.7609 109.66 20.1221C110.021 20.4833 110.508 20.6874 111.042 20.6874H128.304L130.534 17.2164H112.895L112.896 17.2161ZM50.2749 14.3104C53.9504 14.3104 56.9346 11.3421 56.9346 7.66685C56.9346 3.99133 53.9504 1.00715 50.2749 1.00715H33.7158V20.6877H37.4996V4.47879H50.0238C51.7829 4.47879 53.1964 5.90835 53.1964 7.66745C53.1964 9.42626 51.7829 10.8555 50.0238 10.8555L39.3531 10.84L50.6519 20.6877H56.1492L48.5474 14.311H50.2752L50.2749 14.3104ZM10.4238 20.6874C4.99099 20.6877 0.582031 16.2898 0.582031 10.8555C0.582031 5.42088 4.99099 1.00775 10.4238 1.00775H21.8626C27.2967 1.00775 31.7023 5.42088 31.7023 10.8555C31.7023 16.2898 27.2967 20.6874 21.8623 20.6874H10.4238ZM21.6083 17.2164C25.128 17.2164 27.9787 14.3734 27.9787 10.8552C27.9787 7.3373 25.128 4.47879 21.6083 4.47879H10.677C7.15845 4.47879 4.30621 7.3373 4.30621 10.8555C4.30621 14.3734 7.15845 17.2164 10.6767 17.2164H21.608H21.6083ZM93.4829 20.6874C88.0489 20.6874 83.6352 16.2898 83.6352 10.8555C83.6352 5.42088 88.0489 1.00775 93.4829 1.00775H107.069L104.854 4.47879H93.7343C90.2161 4.47879 87.3576 7.3373 87.3576 10.8555C87.3576 14.3734 90.2161 17.2164 93.7343 17.2164H107.383L105.152 20.6874H93.4829ZM139.77 17.2164C136.864 17.2164 134.398 15.2689 133.644 12.583H149.821L152.052 9.11193H133.644C134.398 6.44178 136.864 4.47879 139.77 4.47879H150.874L153.119 1.00715H139.518C134.084 1.00715 129.67 5.42058 129.67 10.8549C129.67 16.2895 134.084 20.6872 139.518 20.6872H151.188L153.418 17.2164H139.769H139.77Z" fill="#828282"/>
</g>
<defs>
<clipPath id="clip0_1_5391">
<rect width="152.836" height="20" fill="white" transform="translate(0.582031 0.819092)"/>
</clipPath>
</defs>
</svg>
