<svg width="130" height="25" viewBox="0 0 130 25" fill="none" xmlns="http://www.w3.org/2000/svg">
<g id="logos:qualcomm" clip-path="url(#clip0_1_5450)">
<path id="Vector" d="M35.2377 7.63635C35.4084 7.63656 35.572 7.70444 35.6927 7.82511C35.8133 7.94579 35.8812 8.1094 35.8814 8.28006V20.5774C35.8814 20.924 35.5679 21.2047 35.2377 21.2047H33.5703C33.2571 21.2047 32.9433 20.9571 32.9433 20.6105V19.4716C32.1015 20.7095 30.6489 21.568 28.5361 21.568C25.0036 21.568 22.8247 19.2238 22.8247 15.741V8.24697C22.8247 7.90035 23.1384 7.61968 23.4686 7.61968H25.1357C25.2181 7.61965 25.2997 7.63585 25.3758 7.66736C25.4519 7.69887 25.5211 7.74508 25.5794 7.80333C25.6376 7.86159 25.6838 7.93075 25.7153 8.00687C25.7468 8.083 25.763 8.16458 25.763 8.24697V15.2625C25.763 17.5236 26.9514 19.0257 29.2953 19.0257C31.5897 19.0257 32.9433 17.4743 32.9433 15.2954V8.24697C32.9433 7.90035 33.2568 7.61968 33.5706 7.61968H35.2377M10.643 0.819092C4.93152 0.819092 0.326294 5.25934 0.326294 11.1853C0.326294 17.1275 4.93177 21.5513 10.643 21.5513C11.5912 21.5525 12.5352 21.4248 13.449 21.1716L14.5714 24.0604C14.6871 24.374 14.918 24.572 15.3308 24.572H17.1134C17.5429 24.572 17.8561 24.2916 17.6581 23.7467L16.2055 19.9668C19.0615 18.1673 20.9597 14.9816 20.9597 11.1686C20.9595 5.2596 16.354 0.819092 10.643 0.819092ZM15.1328 17.2101L13.8287 13.8263C13.7132 13.5457 13.4821 13.2817 12.9869 13.2817H11.2867C10.8575 13.2817 10.5273 13.5621 10.7254 14.107L12.442 18.5473C11.8809 18.6958 11.27 18.7617 10.643 18.7617C6.46676 18.7617 3.49556 15.477 3.49556 11.1853C3.49556 6.89362 6.46651 3.6089 10.643 3.6089C14.819 3.6089 17.7902 6.89362 17.7902 11.1853C17.7902 13.6942 16.7837 15.8401 15.1328 17.2101ZM129.623 20.5117C129.771 20.8583 129.59 21.1885 129.177 21.1885H127.312C126.965 21.1885 126.685 21.0233 126.569 20.6767L123.119 11.4001L119.62 20.6767C119.471 21.04 119.224 21.1885 118.877 21.1885H117.21C116.863 21.1885 116.615 21.04 116.467 20.6767L112.934 11.3503L109.451 20.6764C109.303 21.023 109.055 21.1883 108.709 21.1883H106.959C106.612 21.1883 106.365 21.023 106.216 20.6764L102.766 11.3503L99.2005 20.6764C99.0519 21.0397 98.8044 21.1883 98.4578 21.1883H96.7904C96.4438 21.1883 96.1962 21.0397 96.0477 20.6764L92.5649 11.3503L89.0818 20.6764C88.9664 21.023 88.6857 21.1883 88.3391 21.1883H86.5234C86.0942 21.1883 85.9293 20.8417 86.0778 20.5112L90.7987 8.16461C90.9473 7.80132 91.1948 7.61968 91.5415 7.61968H93.5716C93.9185 7.61968 94.1661 7.7849 94.3143 8.16461L97.7148 17.177L101.082 8.16461C101.231 7.80132 101.478 7.61968 101.825 7.61968H103.822C104.169 7.61968 104.417 7.7849 104.565 8.16461L107.899 17.177L111.234 8.16461C111.382 7.80132 111.63 7.61968 111.977 7.61968H113.99C114.337 7.61968 114.584 7.7849 114.733 8.16461L118.117 17.177L121.418 8.16461C121.567 7.80132 121.815 7.61968 122.161 7.61968H124.191C124.538 7.61968 124.786 7.7849 124.934 8.16461L129.622 20.5115M51.3973 7.63635H49.7302C49.5595 7.63656 49.3959 7.70444 49.2752 7.82511C49.1545 7.94579 49.0867 8.1094 49.0865 8.28006V9.4025C48.2447 8.13151 46.594 7.22355 44.6462 7.22355C40.9654 7.22355 37.8125 10.1288 37.8125 14.371C37.8125 18.6627 40.9818 21.5513 44.6298 21.5513C46.6104 21.5513 48.2116 20.6436 49.1029 19.3726V20.561C49.1029 20.9076 49.4167 21.1883 49.7468 21.1883H51.414C51.4963 21.1883 51.5779 21.1721 51.6541 21.1406C51.7302 21.1091 51.7993 21.0629 51.8576 21.0046C51.9158 20.9464 51.9621 20.8772 51.9936 20.8011C52.0251 20.725 52.0413 20.6434 52.0412 20.561V8.28006C52.0246 7.91703 51.7442 7.63635 51.3973 7.63635ZM44.96 18.8444C42.5337 18.8444 40.8004 16.8637 40.8004 14.4041C40.8004 11.9116 42.517 9.99669 44.96 9.99669C47.3701 9.99669 49.1198 11.9116 49.1198 14.4041C49.1031 16.8799 47.3537 18.8444 44.96 18.8444ZM71.288 19.2733C71.6513 19.7192 71.3375 20.0658 71.1394 20.2144C69.9842 21.0892 68.4489 21.568 66.7818 21.568C62.5727 21.568 59.7665 18.4811 59.7665 14.4205C59.7665 10.36 62.5727 7.24023 66.7818 7.24023C68.4492 7.24023 69.9675 7.71897 71.1397 8.59358C71.3375 8.74238 71.6182 9.03947 71.288 9.53463L70.4957 10.6404C70.1822 11.0699 69.8189 10.9542 69.5054 10.7561C68.7627 10.3105 67.8878 9.93076 66.8808 9.93076C64.4215 9.93076 62.7872 11.9114 62.7872 14.4205C62.7872 16.9294 64.4215 18.8939 66.8808 18.8939C67.9042 18.8939 68.7132 18.4977 69.4559 18.0685C69.7694 17.9033 70.0996 17.7548 70.4462 18.2171L71.288 19.2733ZM79.1453 7.25665C75.1836 7.25665 72.031 10.36 72.031 14.4041C72.031 18.4811 75.2002 21.5513 79.1451 21.5513C83.1068 21.5513 86.2597 18.4646 86.2597 14.4041C86.2761 10.3764 83.1068 7.25665 79.1453 7.25665ZM79.1453 18.8277C76.7188 18.8277 74.9855 16.8799 74.9855 14.4205C74.9855 11.9281 76.7021 10.0134 79.1453 10.0134C81.5716 10.0134 83.3049 11.9281 83.3049 14.4205C83.3049 16.8799 81.5883 18.8277 79.1453 18.8277ZM57.2409 1.18212C57.6042 1.18212 57.8682 1.49589 57.8682 1.82608V20.5446C57.8682 20.8912 57.6206 21.1883 57.2409 21.1883H55.5738C55.2272 21.1883 54.9301 20.8745 54.9301 20.5446V1.84225C54.9301 1.49564 55.2436 1.19854 55.5738 1.19854H57.2412" fill="#828282"/>
</g>
<defs>
<clipPath id="clip0_1_5450">
<rect width="129.347" height="24" fill="white" transform="translate(0.326294 0.819092)"/>
</clipPath>
</defs>
</svg>
