<svg width="132" height="21" viewBox="0 0 132 21" fill="none" xmlns="http://www.w3.org/2000/svg">
<path id="Vector" d="M108.659 1.44128L108.917 16.1322H108.79L104.524 1.44128H97.533V19.9472H102.158L101.901 4.7446H102.027L106.592 19.9472H113.284V1.44128H108.659ZM20.5252 1.44128L17.0295 20.1396H22.0807L24.6595 3.12773H24.7659L27.2833 20.1396H32.2935L28.8388 1.44128H20.5252ZM48.7938 1.44128L46.4892 15.7024H46.3623L44.0373 1.44128H36.4032L36.0389 20.1396H40.7299L40.8568 3.32012H40.8977L44.0332 20.1396H48.7856L51.9211 3.32012H52.0479L52.1748 20.1396H56.8658L56.4196 1.44128H48.7938ZM9.13759 14.8306C9.32998 15.2563 9.26448 15.8948 9.20308 16.1936C9.07619 16.8322 8.62592 17.4503 7.38974 17.4503C6.19449 17.4503 5.51499 16.7667 5.51499 15.7679V13.9546H0.504761V15.3832C0.504761 19.5829 3.80808 20.8191 7.32834 20.8191C10.6971 20.8191 13.5093 19.6484 13.9595 16.5784C14.2174 14.9574 14.025 13.8932 13.9595 13.5084C13.0836 9.56244 5.94479 8.45724 5.45359 6.25913C5.38754 5.9281 5.38754 5.58729 5.45359 5.25626C5.58049 4.63817 6.00619 3.99961 7.13595 3.99961C8.26571 3.99961 8.8838 4.6832 8.8838 5.68197V6.81173H13.5748V5.51005C13.5748 1.43718 9.88667 0.819092 7.26285 0.819092C3.93497 0.819092 1.18835 1.92838 0.697147 4.93289C0.52785 5.76613 0.550246 6.62697 0.76264 7.45028C1.50763 11.3103 8.20431 12.4401 9.14168 14.8265L9.13759 14.8306ZM70.0054 14.8306C70.1978 15.2563 70.1323 15.8334 70.0709 16.1936C69.944 16.8322 69.4937 17.4503 68.2575 17.4503C67.0623 17.4503 66.3828 16.7667 66.3828 15.7679V13.9546H61.3725V15.3832C61.3725 19.5174 64.6145 20.7782 68.1306 20.7782C71.4994 20.7782 74.2502 19.6484 74.6963 16.5129C74.9542 14.892 74.7618 13.8891 74.6963 13.4429C73.9513 9.56244 66.874 8.39175 66.3828 6.25913C66.3167 5.9281 66.3167 5.58729 66.3828 5.25626C66.4892 4.63817 66.9354 3.99961 68.0651 3.99961C69.1294 3.99961 69.813 4.6832 69.813 5.68197V6.81173H74.4385V5.51005C74.4385 1.43718 70.8158 0.819092 68.192 0.819092C64.8642 0.819092 62.1789 1.86289 61.6877 4.93289C61.5608 5.74337 61.5608 6.50882 61.7287 7.45028C62.4982 11.3103 69.0639 12.3746 70.0013 14.8265L70.0054 14.8306ZM85.7606 17.3275C87.0827 17.3275 87.443 16.4515 87.5739 15.9644C87.6394 15.772 87.6394 15.4527 87.6394 15.2604V1.44537H92.3918V14.8961C92.3918 15.2604 92.3918 15.9603 92.3263 16.1322C92.0275 19.6484 89.2563 20.7782 85.822 20.7782C82.3877 20.7782 79.6411 19.6484 79.3177 16.1322C79.3177 15.9603 79.2522 15.2563 79.2522 14.8961V1.44537H84.0046V15.2604C84.0046 15.5182 84.0046 15.772 84.0701 15.9644C84.0701 16.4556 84.4548 17.3275 85.7524 17.3275H85.7606ZM124.799 17.1351C126.186 17.1351 126.612 16.2591 126.739 15.772C126.804 15.5796 126.804 15.2604 126.804 15.0884V12.3827H124.864V9.63203H131.495V14.6423C131.495 15.027 131.495 15.2604 131.43 15.8989C131.111 19.3332 128.167 20.5244 124.864 20.5244C121.536 20.5244 118.618 19.3291 118.298 15.8989C118.233 15.2604 118.233 15.0229 118.233 14.6423V6.75442C118.233 6.4556 118.298 5.81705 118.298 5.51824C118.724 2.00207 121.54 0.872307 124.864 0.872307C128.167 0.872307 131.045 2.00207 131.43 5.51824C131.495 6.07083 131.495 6.75442 131.495 6.75442V7.39298H126.804V6.32871C126.804 6.32871 126.804 5.88254 126.739 5.62466C126.673 5.19895 126.293 4.26158 124.864 4.26158C123.477 4.26158 123.116 5.13755 122.989 5.62466C122.924 5.88254 122.924 6.20182 122.924 6.5211V15.0925C122.924 15.3258 122.924 15.5837 122.989 15.7761C122.989 16.2673 123.481 17.1392 124.803 17.1392L124.799 17.1351Z" fill="#828282"/>
</svg>
