<svg width="52" height="33" viewBox="0 0 52 33" fill="none" xmlns="http://www.w3.org/2000/svg">
<g id="simple-icons:tcs" clip-path="url(#clip0_1_5394)">
<path id="Vector" d="M50.9912 25.5523C50.9912 22.8719 49.9191 21.0871 47.2387 19.2098L43.5725 16.6629C43.5047 16.6177 43.4493 16.5705 43.3835 16.5233C42.0916 15.5518 41.5145 14.6501 41.5145 13.5862C41.5145 12.1566 42.679 11.2652 44.3304 11.2652C46.4295 11.2652 47.4174 12.245 48.6662 12.245C49.65 12.245 50.3196 11.5754 50.3196 10.5936C50.3196 9.87885 49.9622 9.29759 49.0236 8.85189C47.5489 8.13712 45.9366 7.86601 44.1969 7.86601C42.3648 7.86601 40.7545 8.40413 39.5941 9.29759C39.5941 9.2969 39.5941 9.29827 39.5941 9.29759C39.3596 9.47792 39.136 9.66996 38.9245 9.87679L38.9081 9.89733C37.573 11.3248 36.4639 13.4177 35.5745 16.3569L34.5455 19.75C32.7114 25.731 29.8092 28.59 25.2947 28.59C20.3345 28.59 17.2064 25.1497 17.2064 20.0601C17.2064 14.991 20.3057 11.5199 24.7853 11.4891L24.8469 11.485C26.3291 11.4753 27.7949 11.7959 29.1376 12.4236C29.7168 12.6907 30.2097 12.781 30.6575 12.781C30.8629 12.781 31.0518 12.7461 31.2305 12.6968C31.974 12.4853 32.4464 11.8588 32.4464 10.9921C32.4464 10.3225 32.0439 9.65086 31.1052 9.20516C29.4066 8.35484 27.2151 7.86396 24.849 7.86396C23.0826 7.86396 21.4539 8.17615 20.0038 8.75946C15.6557 10.5073 12.9137 14.6871 12.9137 20.1484C12.9137 22.0606 13.2629 23.8106 13.8996 25.3571C12.9712 27.3803 11.552 28.4565 9.69727 28.4565C7.46466 28.4565 5.992 27.1625 5.9879 24.2254V11.6165H11.2172C12.4249 11.6165 13.2279 10.9017 13.2279 9.87474C13.2279 8.84778 12.4269 8.13302 11.2151 8.13302H5.98995V3.57743C5.98995 2.23623 5.0965 1.34277 3.84566 1.34277C2.59072 1.34277 1.69727 2.23828 1.69727 3.57743V24.702C1.69727 29.617 4.51113 32.209 9.29675 32.209C10.295 32.2111 11.2891 32.0447 12.2339 31.7161H12.2441C13.8068 31.1426 15.1212 30.0432 15.9617 28.6064C18.0855 30.9007 21.23 32.2521 25.1632 32.2521C27.2151 32.2521 29 31.8516 30.6061 31.0054H30.6123C33.8739 29.3068 36.1989 25.8665 37.8072 20.5962L38.7458 17.5153C38.6273 17.3605 38.5163 17.2001 38.4131 17.0347C39.0457 18.0452 40.0254 18.9921 41.4282 19.9718L44.7781 22.2927C45.2793 22.6419 45.7291 22.991 46.1502 23.3402C46.7437 24.0016 46.9265 24.7163 46.9265 25.5543C46.9265 27.4747 45.4066 28.7708 43.2151 28.7708C41.116 28.7708 39.3271 27.6986 38.3453 27.6986C37.3635 27.6986 36.6898 28.3661 36.6898 29.35C36.6898 30.0647 37.0472 30.6439 37.9879 31.0917C39.2839 31.7161 41.383 32.2542 43.2603 32.2542C45.6285 32.2542 47.5961 31.5394 48.9805 30.2886C49.0949 30.1861 49.202 30.0755 49.3009 29.9579C50.4071 28.7596 51.012 27.183 50.9912 25.5523Z" fill="#828282"/>
</g>
<defs>
<clipPath id="clip0_1_5394">
<rect width="50.7317" height="32" fill="white" transform="translate(0.634155 0.819092)"/>
</clipPath>
</defs>
</svg>
