<svg width="24" height="25" viewBox="0 0 24 25" fill="none" xmlns="http://www.w3.org/2000/svg">
<rect y="0.855957" width="24" height="24" rx="12" fill="white" fill-opacity="0.1"/>
<path d="M5.15391 16.7518C4.94063 16.9777 4.95085 17.3337 5.17673 17.547C5.40261 17.7603 5.75862 17.7501 5.9719 17.5242L5.15391 16.7518ZM9.60148 12.8607L9.96192 12.4289C9.73367 12.2384 9.39659 12.2584 9.19248 12.4746L9.60148 12.8607ZM12.4819 15.2649L12.1215 15.6967C12.3534 15.8903 12.6967 15.8661 12.8992 15.6421L12.4819 15.2649ZM18.7769 8.89436C18.7613 8.58409 18.4971 8.34526 18.1868 8.36091L13.1307 8.61591C12.8205 8.63155 12.5816 8.89576 12.5973 9.20603C12.6129 9.51629 12.8771 9.75513 13.1874 9.73948L17.6817 9.51281L17.9083 14.0071C17.924 14.3174 18.1882 14.5562 18.4985 14.5406C18.8087 14.5249 19.0476 14.2607 19.0319 13.9504L18.7769 8.89436ZM5.9719 17.5242L10.0105 13.2469L9.19248 12.4746L5.15391 16.7518L5.9719 17.5242ZM9.24104 13.2926L12.1215 15.6967L12.8424 14.833L9.96192 12.4289L9.24104 13.2926ZM12.8992 15.6421L18.6324 9.2999L17.7978 8.54549L12.0647 14.8877L12.8992 15.6421Z" fill="white"/>
</svg>
