<svg width="25" height="25" viewBox="0 0 25 25" fill="none" xmlns="http://www.w3.org/2000/svg">
<rect x="0.5" y="0.855957" width="24" height="24" rx="12" fill="white" fill-opacity="0.1"/>
<g clip-path="url(#clip0_5527_124725)">
<path d="M5.5 14.0864C6.85352 14.0864 8.20703 14.0864 9.60156 14.0864C9.59814 15.5903 9.59814 15.5903 9.59493 16.0645C9.59529 16.2052 9.59529 16.2052 9.59601 16.346C9.59616 16.4085 9.59577 16.471 9.59495 16.5335C9.5753 16.8877 9.5753 16.8877 9.68845 17.2101C9.75812 17.2669 9.82054 17.3041 9.90234 17.3403C9.93602 17.3624 9.96942 17.3848 10.0024 17.4078C11.0823 18.0525 12.3382 18.3198 13.5758 18.017C13.9115 17.9286 14.2315 17.8036 14.5508 17.6685C14.6046 17.7652 14.658 17.8621 14.7114 17.959C14.7266 17.9863 14.7418 18.0136 14.7575 18.0418C14.7794 18.0817 14.7794 18.0817 14.8018 18.1224C14.8152 18.1467 14.8287 18.1711 14.8426 18.1962C14.8808 18.2739 14.908 18.3515 14.9336 18.4341C14.4907 18.6492 14.0476 18.818 13.5664 18.9263C13.5469 18.9308 13.5274 18.9354 13.5072 18.9401C12.8557 19.0852 12.0557 19.0774 11.4062 18.9263C11.3852 18.9216 11.3641 18.9169 11.3424 18.9121C10.8872 18.8086 10.4507 18.6519 10.0365 18.4365C10.0126 18.4242 10.0126 18.4242 9.98825 18.4117C9.92969 18.3794 9.92969 18.3794 9.86799 18.3387C9.65241 18.2037 9.46498 18.1919 9.21574 18.1942C9.17436 18.194 9.13299 18.1937 9.09161 18.1933C8.98166 18.1926 8.87173 18.1928 8.76178 18.1932C8.65828 18.1934 8.55479 18.1928 8.45129 18.1922C8.14942 18.191 7.84753 18.1913 7.54565 18.1914C6.53306 18.1897 6.53306 18.1897 5.5 18.188C5.5 16.8345 5.5 15.481 5.5 14.0864Z" fill="white"/>
<path d="M15.2344 9.08252C15.6457 9.24087 15.9844 9.57719 16.3008 9.87549C16.3222 9.89544 16.3436 9.91539 16.3657 9.93594C17.2226 10.7592 17.8267 12.0544 17.864 13.243C17.8659 13.3418 17.8659 13.4405 17.865 13.5393C17.8645 13.6004 17.8644 13.6614 17.8644 13.7225C17.8634 14.0196 17.8634 14.0196 17.832 14.1138C17.8473 14.1158 17.8626 14.1179 17.8784 14.12C18.3919 14.2042 18.847 14.5171 19.1506 14.9359C19.4722 15.4354 19.5831 15.9968 19.4831 16.5839C19.3815 17.0055 19.1802 17.3428 18.8711 17.6411C18.8518 17.6613 18.8325 17.6814 18.8126 17.7022C18.4532 18.0561 17.9404 18.1968 17.4492 18.2017C16.9046 18.1963 16.4043 18.0233 16.0167 17.633C15.9931 17.6086 15.9696 17.5842 15.9453 17.5591C15.9252 17.5398 15.905 17.5205 15.8842 17.5005C15.5337 17.1446 15.3894 16.639 15.3848 16.1526C15.39 15.5995 15.5588 15.0976 15.9548 14.7029C15.9788 14.68 16.0027 14.657 16.0273 14.6333C16.0552 14.6056 16.0552 14.6056 16.0836 14.5773C16.3145 14.3603 16.6596 14.1411 16.9844 14.1411C17.0065 13.4246 17.0065 13.4246 16.9023 12.7192C16.8969 12.6969 16.8915 12.6746 16.8859 12.6516C16.589 11.4531 15.8627 10.4782 14.8242 9.8208C14.8617 9.72046 14.9072 9.63107 14.962 9.53914C14.9779 9.51244 14.9937 9.48574 15.0101 9.45823C15.0266 9.43068 15.0431 9.40314 15.0601 9.37476C15.0768 9.34668 15.0935 9.31861 15.1107 9.28968C15.1518 9.22057 15.1931 9.15152 15.2344 9.08252Z" fill="white"/>
<path d="M9.68359 6.70361C11.5424 6.70361 13.4012 6.70361 15.3164 6.70361C15.2047 6.89508 15.0938 7.08455 14.9746 7.271C14.946 7.31603 14.9174 7.36107 14.8888 7.40611C14.8739 7.42963 14.859 7.45314 14.8436 7.47737C14.7609 7.6082 14.6789 7.73953 14.5969 7.87085C14.5711 7.91221 14.5711 7.91221 14.5447 7.9544C14.5096 8.01069 14.4745 8.06699 14.4393 8.12329C14.3535 8.26077 14.2676 8.39821 14.1816 8.53564C14.1475 8.59033 14.1133 8.64502 14.0791 8.69971C13.4639 9.68408 13.4639 9.68408 13.4126 9.76619C13.3785 9.82063 13.3445 9.87507 13.3105 9.92951C13.2227 10.07 13.1349 10.2105 13.047 10.3509C13.0201 10.3939 13.0201 10.3939 12.9926 10.4378C12.9575 10.4939 12.9224 10.55 12.8872 10.6061C12.8152 10.7212 12.7434 10.8363 12.6737 10.9527C12.6634 10.9697 12.6532 10.9868 12.6426 11.0044C12.6169 11.0472 12.5915 11.0903 12.5661 11.1333C12.5469 11.1604 12.5469 11.1604 12.5273 11.188C12.5093 11.188 12.4913 11.188 12.4727 11.188C12.4315 11.131 12.4315 11.131 12.3831 11.0507C12.3653 11.0213 12.3474 10.9919 12.329 10.9616C12.3096 10.9294 12.2903 10.8972 12.271 10.865C12.2411 10.8157 12.2111 10.7664 12.1812 10.7171C12.161 10.684 12.1409 10.6509 12.1209 10.6178C12.0375 10.4804 11.9522 10.3443 11.866 10.2087C11.6922 9.93503 11.5218 9.65926 11.3516 9.3833C11.2121 9.39891 11.088 9.43024 10.9568 9.48071C10.9379 9.48793 10.919 9.49515 10.8996 9.50258C10.366 9.7118 9.88407 10.0042 9.46484 10.395C9.44084 10.4172 9.44084 10.4172 9.41635 10.4399C9.03739 10.794 8.74431 11.1919 8.50781 11.6528C8.49477 11.6779 8.49477 11.6779 8.48146 11.7035C8.28166 12.0922 8.15776 12.5107 8.07031 12.938C7.78413 12.906 7.50424 12.862 7.22266 12.8013C7.30538 12.2817 7.45639 11.7975 7.6875 11.3247C7.7005 11.2979 7.7005 11.2979 7.71376 11.2706C8.04382 10.5994 8.54217 9.97418 9.13672 9.52002C9.16291 9.49855 9.1891 9.47709 9.21608 9.45497C9.68615 9.07618 10.2573 8.77502 10.832 8.59033C10.6997 8.33205 10.5436 8.09004 10.3877 7.84556C10.3009 7.70865 10.2154 7.57095 10.1296 7.43335C9.99604 7.21903 9.86115 7.00571 9.72301 6.7943C9.68359 6.73096 9.68359 6.73096 9.68359 6.70361Z" fill="white"/>
</g>
<defs>
<clipPath id="clip0_5527_124725">
<rect width="14" height="14" fill="white" transform="translate(5.5 5.85596)"/>
</clipPath>
</defs>
</svg>
