<svg width="200" height="201" viewBox="0 0 200 201" fill="none" xmlns="http://www.w3.org/2000/svg">
<g id="Frame 1000010620" opacity="0.2">
<g id="Group 14235">
<path id="Vector" fill-rule="evenodd" clip-rule="evenodd" d="M122.157 108.694C134.662 96.1898 154.936 96.1898 167.44 108.694C179.945 121.199 179.945 141.473 167.44 153.977C155.7 165.718 137.111 166.435 124.533 156.13L154.402 126.26L154.405 140.942H160.809V115.326H135.193V121.73L149.877 121.73L120.005 151.601C109.699 139.024 110.417 120.435 122.157 108.694Z" fill="white"/>
<path id="Subtract" fill-rule="evenodd" clip-rule="evenodd" d="M118.17 95.6611C118.17 89.3346 113.036 84.2001 106.709 84.2001H70.6756C64.3426 84.2001 59.2146 89.3346 59.2146 95.6611V126.763C59.2146 134.581 62.3203 142.079 67.8484 147.607C73.3766 153.135 80.8744 156.241 88.6924 156.241C96.3051 156.241 103.614 153.296 109.097 148.037C106.832 143.074 105.57 137.556 105.57 131.744C105.57 120.349 110.421 110.087 118.17 102.909V95.6611ZM153.962 93.5076C151.042 92.8156 147.997 92.4494 144.865 92.4494C137.501 92.4494 130.61 94.4751 124.719 97.9997V95.6611C124.719 91.3059 123.18 87.3109 120.6 84.2001H142.703C148.294 84.2001 152.953 88.2094 153.962 93.5076ZM52.7244 94.2203C52.9986 90.5382 54.4184 87.0343 56.7849 84.2001H34.6422L33.6991 84.2393C30.8325 84.476 28.1597 85.7819 26.2113 87.8978C24.2629 90.0136 23.1813 92.7848 23.1812 95.6611V116.939C23.1803 120.38 23.8573 123.787 25.1734 126.966C26.4895 130.145 28.419 133.034 30.8517 135.467C33.2843 137.901 36.1725 139.831 39.3513 141.148C42.53 142.465 45.937 143.142 49.3778 143.142C51.7311 143.138 53.9906 142.841 56.1562 142.252C53.9163 137.563 52.6589 132.31 52.6589 126.763V95.6611L52.7244 94.2203ZM102.566 44.1106C98.881 40.426 93.8836 38.356 88.6727 38.356C83.4619 38.356 78.4645 40.426 74.7799 44.1106C71.0952 47.7952 69.0253 52.7926 69.0253 58.0034C69.0253 63.2143 71.0952 68.2117 74.7799 71.8963C78.4645 75.5809 83.4619 77.6509 88.6727 77.6509C93.8836 77.6509 98.881 75.5809 102.566 71.8963C106.25 68.2117 108.32 63.2143 108.32 58.0034C108.32 52.7926 106.25 47.7952 102.566 44.1106ZM142.82 49.7006C139.749 46.6301 135.585 44.9051 131.242 44.9051C126.9 44.9051 122.735 46.6301 119.665 49.7006C116.594 52.7711 114.869 56.9356 114.869 61.278C114.869 65.6204 116.594 69.7849 119.665 72.8554C122.735 75.9259 126.9 77.6509 131.242 77.6509C135.585 77.6509 139.749 75.9259 142.82 72.8554C145.89 69.7849 147.615 65.6204 147.615 61.278C147.615 56.9356 145.89 52.7711 142.82 49.7006ZM57.6806 49.7006C54.6101 46.6301 50.4456 44.9051 46.1032 44.9051C41.7608 44.9051 37.5963 46.6301 34.5258 49.7006C31.4553 52.7711 29.7303 56.9356 29.7303 61.278C29.7303 65.6204 31.4553 69.7849 34.5258 72.8554C37.5963 75.9259 41.7608 77.6509 46.1032 77.6509C50.4456 77.6509 54.6101 75.9259 57.6806 72.8554C60.7511 69.7849 62.4761 65.6204 62.4761 61.278C62.4761 56.9356 60.7511 52.7711 57.6806 49.7006Z" fill="white"/>
</g>
</g>
</svg>
