<svg width="180" height="181" viewBox="0 0 180 181" fill="none" xmlns="http://www.w3.org/2000/svg">
<g id="Frame 1000010622" opacity="0.2">
<g id="Group 14236">
<path id="Subtract" fill-rule="evenodd" clip-rule="evenodd" d="M45.2946 40.9684C55.1641 34.3744 66.7629 30.856 78.6303 30.856C94.5392 30.8717 109.791 37.1984 121.041 48.447C122.133 49.5388 123.179 50.6693 124.176 51.834C123.788 52.3142 123.43 52.8344 123.107 53.3946L103.868 86.7159C99.3611 94.5203 104.995 104.277 114.007 104.277H118.611V135.595C113.607 140.068 107.859 143.692 101.59 146.289C90.6291 150.83 78.5645 152.018 66.9258 149.703C55.287 147.388 44.5944 141.674 36.2026 133.282C27.8137 124.892 22.0972 114.201 19.782 102.562C17.4669 90.9232 18.6559 78.8586 23.1976 67.8944C27.7394 56.9317 35.428 47.5609 45.2946 40.9684ZM83.0205 129.139V124.515L82.7861 124.28C84.2467 124.253 85.6958 124.05 87.0992 123.679C88.0139 123.437 88.9113 123.123 89.7831 122.74C91.9897 121.768 93.9818 120.367 95.6425 118.618C96.0369 118.204 96.4114 117.772 96.7629 117.325C97.8948 115.883 98.8037 114.275 99.4582 112.556C99.7355 111.828 99.9641 111.087 100.144 110.334C100.524 108.753 100.693 107.124 100.639 105.49C100.639 96.241 93.0901 86.876 78.6874 86.876C67.0973 86.876 65.5167 82.1927 65.5167 77.3923C65.5853 75.8246 65.9854 74.2883 66.6885 72.8849C67.3745 71.4672 68.3406 70.2024 69.5268 69.1663C70.7158 68.1302 72.0992 67.3442 73.5969 66.8554C74.4458 66.6082 75.3147 66.4381 76.1922 66.3481C76.7295 66.2924 77.2697 66.2667 77.8099 66.2709H78.8646C82.0544 66.1352 85.1756 67.2227 87.5937 69.3107C90.0089 71.4 91.5352 74.3326 91.8582 77.5095C92.0354 78.6171 92.627 79.6146 93.516 80.2977C94.4049 80.9823 95.5196 81.301 96.6343 81.1881C97.0916 81.1423 97.5346 81.0252 97.9491 80.8451C98.5436 80.5864 99.0809 80.1948 99.5154 79.6946C99.9499 79.1916 100.261 78.6014 100.433 77.9697C100.55 77.5381 100.602 77.0865 100.582 76.632C100.141 71.9931 98.1806 67.63 95.0051 64.2216C91.8296 60.8131 87.6166 58.5494 83.0205 57.7834V53.0416C83.0205 51.8769 82.5575 50.7607 81.7343 49.9375C80.9111 49.1129 79.7936 48.6513 78.6303 48.6513C77.467 48.6513 76.3494 49.1129 75.5262 49.9375C74.703 50.7607 74.24 51.8769 74.24 53.0416V57.6076C73.757 57.6762 73.2768 57.7605 72.7995 57.862C72.1421 58.0006 71.4904 58.1693 70.8444 58.3679C66.8486 59.6613 63.3444 62.1522 60.812 65.5035C58.2768 68.8534 56.8362 72.902 56.679 77.0994C56.679 83.8319 59.5487 95.5393 78.6303 95.5393C87.6451 95.5393 91.801 100.631 91.801 105.373C91.801 112.514 87.4679 116.027 78.3387 116.027C75.1604 116.217 72.0335 115.168 69.6154 113.1C68.4121 112.091 67.426 110.852 66.7114 109.453C65.9969 108.056 65.571 106.529 65.4595 104.963C65.3423 103.804 64.7764 102.735 63.8789 101.99C63.2158 101.432 62.3983 101.081 61.538 100.986C60.6748 100.89 59.8031 101.053 59.0313 101.453C58.2625 101.852 57.6251 102.472 57.2078 103.232C56.7876 103.993 56.6047 104.86 56.679 105.725C56.8991 108.43 57.6508 111.065 58.897 113.478C60.1432 115.888 61.8581 118.029 63.9389 119.773C66.8515 122.3 70.4243 123.944 74.24 124.515V129.139C74.24 130.304 74.703 131.42 75.5262 132.243C76.3494 133.066 77.467 133.53 78.6303 133.53C79.3019 133.53 79.9593 133.375 80.551 133.087C80.9854 132.875 81.3856 132.592 81.7343 132.243C82.5575 131.42 83.0205 130.304 83.0205 129.139Z" fill="white"/>
<path id="Union" fill-rule="evenodd" clip-rule="evenodd" d="M141.34 53.6881C139.087 49.7856 133.454 49.7856 131.201 53.6881L111.963 87.0094C109.71 90.9118 112.526 95.7899 117.032 95.7899H127.491L127.491 148.223H145.052L145.052 95.7899H155.508C160.014 95.7899 162.831 90.9118 160.578 87.0094L141.34 53.6881Z" fill="white"/>
</g>
</g>
</svg>
