<svg width="32" height="32" viewBox="0 0 32 32" fill="none" xmlns="http://www.w3.org/2000/svg">
<path d="M2.66667 16.0001C2.66667 22.2854 2.66667 25.4267 4.62 27.3801C6.572 29.3321 9.71467 29.3321 16 29.3321C22.2853 29.3321 25.428 29.3321 27.3813 27.3801C29.1907 25.5707 29.3227 22.7401 29.3333 17.3321M14.6667 2.66675C9.26 2.67608 6.42934 2.80941 4.62 4.61875C3.53067 5.70675 3.04934 7.16541 2.83601 9.33341" stroke="#4F4F4F" stroke-width="2" stroke-linecap="round"/>
<path d="M17.3333 14.6667L29.3333 2.66675M29.3333 2.66675H22.208M29.3333 2.66675V9.79208M28 4.00008L16 16.0001M16 16.0001H21.3333M16 16.0001V10.6667" stroke="#4F4F4F" stroke-width="2" stroke-linecap="round" stroke-linejoin="round"/>
</svg>
