<svg width="32" height="32" viewBox="0 0 32 32" fill="none" xmlns="http://www.w3.org/2000/svg">
<path d="M10 6.33324C9.86868 6.33324 9.73864 6.35911 9.61731 6.40936C9.49599 6.45961 9.38575 6.53327 9.29289 6.62613C9.20003 6.71899 9.12637 6.82923 9.07612 6.95056C9.02586 7.07188 9 7.20192 9 7.33324C9 7.46456 9.02586 7.5946 9.07612 7.71592C9.12637 7.83725 9.20003 7.94749 9.29289 8.04035C9.38575 8.1332 9.49599 8.20686 9.61731 8.25712C9.73864 8.30737 9.86868 8.33324 10 8.33324C10.2652 8.33324 10.5196 8.22788 10.7071 8.04035C10.8946 7.85281 11 7.59846 11 7.33324C11 7.06802 10.8946 6.81367 10.7071 6.62613C10.5196 6.4386 10.2652 6.33324 10 6.33324ZM7 7.33324C7.00016 6.78328 7.1515 6.24395 7.43747 5.77419C7.72344 5.30443 8.13304 4.92232 8.6215 4.66961C9.10996 4.41691 9.65849 4.30333 10.2071 4.34131C10.7558 4.37928 11.2834 4.56733 11.7324 4.88492C12.1814 5.2025 12.5345 5.6374 12.753 6.14208C12.9715 6.64675 13.0471 7.20179 12.9715 7.74653C12.8959 8.29126 12.672 8.80474 12.3243 9.23084C11.9766 9.65693 11.5185 9.97925 11 10.1626V15.3706C11.1156 15.2852 11.2356 15.2061 11.36 15.1332C12.6253 14.3706 14.2467 14.1479 15.624 13.9599L15.8627 13.9266C17.4107 13.7106 18.6653 13.4972 19.5653 12.8906C20.2387 12.4346 20.8147 11.6772 20.9627 10.1492C20.2988 9.90482 19.7427 9.43365 19.3925 8.81896C19.0423 8.20427 18.9206 7.48561 19.0489 6.7899C19.1772 6.0942 19.5473 5.46621 20.0937 5.01687C20.6401 4.56753 21.3277 4.32573 22.0351 4.3342C22.7425 4.34267 23.4241 4.60085 23.9596 5.06314C24.4951 5.52543 24.85 6.16209 24.9616 6.86067C25.0732 7.55924 24.9344 8.27479 24.5696 8.88092C24.2048 9.48706 23.6375 9.94478 22.968 10.1732C22.8 12.2759 21.984 13.6692 20.6853 14.5466C19.3347 15.4599 17.5893 15.7066 16.1387 15.9066L16.1053 15.9119C14.5453 16.1279 13.296 16.3012 12.3907 16.8452C11.9707 17.0986 11.6413 17.4266 11.408 17.8879C11.168 18.3599 11 19.0292 11 19.9999V21.8372C11.6676 22.0731 12.2303 22.5375 12.5886 23.1482C12.9469 23.7588 13.0778 24.4765 12.9581 25.1744C12.8385 25.8722 12.4759 26.5053 11.9346 26.9617C11.3933 27.4181 10.708 27.6684 10 27.6684C9.29195 27.6684 8.60671 27.4181 8.06539 26.9617C7.52406 26.5053 7.16152 25.8722 7.04185 25.1744C6.92217 24.4765 7.05307 23.7588 7.41139 23.1482C7.76972 22.5375 8.33241 22.0731 9 21.8372V10.1626C8.41495 9.95573 7.90844 9.57255 7.55025 9.06583C7.19205 8.55911 6.99981 7.95378 7 7.33324ZM22 6.33324C21.8687 6.33324 21.7386 6.35911 21.6173 6.40936C21.496 6.45961 21.3857 6.53327 21.2929 6.62613C21.2 6.71899 21.1264 6.82923 21.0761 6.95056C21.0259 7.07188 21 7.20192 21 7.33324C21 7.46456 21.0259 7.5946 21.0761 7.71592C21.1264 7.83725 21.2 7.94749 21.2929 8.04035C21.3857 8.1332 21.496 8.20686 21.6173 8.25712C21.7386 8.30737 21.8687 8.33324 22 8.33324C22.2652 8.33324 22.5196 8.22788 22.7071 8.04035C22.8946 7.85281 23 7.59846 23 7.33324C23 7.06802 22.8946 6.81367 22.7071 6.62613C22.5196 6.4386 22.2652 6.33324 22 6.33324ZM10 23.6666C9.73478 23.6666 9.48043 23.7719 9.29289 23.9595C9.10535 24.147 9 24.4014 9 24.6666C9 24.9318 9.10535 25.1861 9.29289 25.3737C9.48043 25.5612 9.73478 25.6666 10 25.6666C10.2652 25.6666 10.5196 25.5612 10.7071 25.3737C10.8946 25.1861 11 24.9318 11 24.6666C11 24.4014 10.8946 24.147 10.7071 23.9595C10.5196 23.7719 10.2652 23.6666 10 23.6666Z" fill="#4F4F4F"/>
</svg>
