<svg width="32" height="32" viewBox="0 0 32 32" fill="none" xmlns="http://www.w3.org/2000/svg">
<g clip-path="url(#clip0_104_3032)">
<path d="M19.2137 18.2171C18.3314 19.2228 17.2571 20.0457 16.048 20.6422L16.048 24.0708C16.048 24.3739 15.9276 24.6646 15.7133 24.8789C15.4989 25.0932 15.2082 25.2137 14.9051 25.2137L8.04799 25.2137C7.74489 25.2137 7.4542 25.0932 7.23987 24.8789C7.02555 24.6646 6.90514 24.3739 6.90514 24.0708L6.90514 20.6422C4.49679 19.4401 2.65563 17.3418 1.77678 14.7976C0.897928 12.2534 1.05141 9.46611 2.2043 7.0338C3.35718 4.60149 5.4176 2.71803 7.94338 1.7876C10.4692 0.857172 13.259 0.953921 15.7143 2.05709M6.90514 30.8571L16.048 30.8571" stroke="#4F4F4F" stroke-width="2" stroke-linecap="round" stroke-linejoin="round"/>
<path d="M16.9028 8.99194C16.1006 8.85251 16.1006 7.70051 16.9028 7.56108C18.3229 7.3127 19.637 6.64765 20.6781 5.65049C21.7192 4.65333 22.4403 3.36911 22.7497 1.96108L22.7977 1.73708C22.9714 0.943942 24.1006 0.939371 24.2811 1.73023L24.3406 1.98851C24.6598 3.39109 25.3868 4.66789 26.4301 5.65825C27.4733 6.64861 28.7861 7.30828 30.2034 7.55423C31.0103 7.69594 31.0103 8.85251 30.2034 8.99423C28.7866 9.24059 27.4742 9.90043 26.4314 10.8908C25.3886 11.8811 24.662 13.1577 24.3428 14.5599L24.2834 14.8182C24.1028 15.6091 22.9737 15.6045 22.8 14.8114L22.7543 14.5897C22.4446 13.181 21.7228 11.8963 20.6808 10.8991C19.6388 9.9019 18.3237 9.2395 16.9028 8.99194Z" stroke="#4F4F4F" stroke-width="2" stroke-linecap="round" stroke-linejoin="round"/>
</g>
<defs>
<clipPath id="clip0_104_3032">
<rect width="32" height="32" fill="white"/>
</clipPath>
</defs>
</svg>
