<svg width="32" height="32" viewBox="0 0 32 32" fill="none" xmlns="http://www.w3.org/2000/svg">
<path d="M10.6667 5.33329C10.6667 6.04054 10.3857 6.71881 9.88562 7.21891C9.38552 7.71901 8.70724 7.99996 8 7.99996C7.29276 7.99996 6.61448 7.71901 6.11438 7.21891C5.61428 6.71881 5.33333 6.04054 5.33333 5.33329C5.33333 4.62605 5.61428 3.94777 6.11438 3.44767C6.61448 2.94758 7.29276 2.66663 8 2.66663C8.70724 2.66663 9.38552 2.94758 9.88562 3.44767C10.3857 3.94777 10.6667 4.62605 10.6667 5.33329ZM6.66667 21.3333V29.3333H4V13.3333C3.99988 12.5446 4.23293 11.7734 4.66987 11.1168C5.1068 10.4601 5.72812 9.94731 6.45569 9.6428C7.18327 9.33829 7.98463 9.25568 8.75902 9.40534C9.53342 9.55501 10.2463 9.93027 10.808 10.484L13.9733 13.4746L17.0573 10.3906L18.9427 12.276L14.0267 17.192L12 15.28V29.3333H9.33333V21.3333H6.66667ZM13.3333 6.66663H25.3333V18.6666H13.3333V21.3333H19.1533L22.9187 29.3333H25.8653L22.1013 21.3333H26.6667C27.0203 21.3333 27.3594 21.1928 27.6095 20.9428C27.8595 20.6927 28 20.3536 28 20V5.33329C28 4.97967 27.8595 4.64053 27.6095 4.39048C27.3594 4.14043 27.0203 3.99996 26.6667 3.99996H13.3333V6.66663Z" fill="#4F4F4F"/>
</svg>
