<svg width="32" height="32" viewBox="0 0 32 32" fill="none" xmlns="http://www.w3.org/2000/svg">
<path d="M10.6667 14.6668C10.6667 15.5509 11.0179 16.3987 11.643 17.0239C12.2681 17.649 13.1159 18.0002 14 18.0002C14.8841 18.0002 15.7319 17.649 16.357 17.0239C16.9821 16.3987 17.3333 15.5509 17.3333 14.6668C17.3333 13.7828 16.9821 12.9349 16.357 12.3098C15.7319 11.6847 14.8841 11.3335 14 11.3335C13.1159 11.3335 12.2681 11.6847 11.643 12.3098C11.0179 12.9349 10.6667 13.7828 10.6667 14.6668Z" stroke="#4F4F4F" stroke-width="2"/>
<path d="M2.66667 22.6667V6.66675H25.3333V22.6667H2.66667Z" stroke="#4F4F4F" stroke-width="2"/>
<path d="M6.66667 26.6667H29.3333V10.6667" stroke="#4F4F4F" stroke-width="2"/>
</svg>
