<svg width="32" height="32" viewBox="0 0 32 32" fill="none" xmlns="http://www.w3.org/2000/svg">
<path d="M10.6667 3.99996H20V0.666626L24.6667 5.33329L20 9.99996V6.66663H10.6667V9.99996L6 5.33329L10.6667 0.666626V3.99996ZM4 22.6666V8.66663H6.66667V22.6666C6.66667 23.3739 6.94762 24.0521 7.44772 24.5522C7.94781 25.0523 8.62609 25.3333 9.33333 25.3333H23.3333V28H9.33333C7.91885 28 6.56229 27.4381 5.5621 26.4379C4.5619 25.4377 4 24.0811 4 22.6666ZM28 21.3333V12H31.3333L26.6667 7.33329L22 12H25.3333V21.3333H22L26.6667 26L31.3333 21.3333H28Z" fill="#4F4F4F"/>
</svg>
