<svg width="32" height="32" viewBox="0 0 32 32" fill="none" xmlns="http://www.w3.org/2000/svg">
<g clip-path="url(#clip0_104_3036)">
<path fill-rule="evenodd" clip-rule="evenodd" d="M23.366 9.04802C22.6234 9.03397 21.8855 9.1681 21.1953 9.44256C20.5052 9.71703 19.8767 10.1263 19.3465 10.6465C18.8164 11.1667 18.3953 11.7874 18.1078 12.4722C17.8203 13.157 17.6723 13.8923 17.6723 14.635C17.6723 15.3777 17.8203 16.113 18.1078 16.7979C18.3953 17.4827 18.8164 18.1033 19.3465 18.6235C19.8767 19.1437 20.5052 19.553 21.1953 19.8275C21.8855 20.1019 22.6234 20.2361 23.366 20.222C24.8295 20.1943 26.2236 19.5935 27.2488 18.5488C28.274 17.504 28.8483 16.0987 28.8483 14.635C28.8483 13.1713 28.274 11.766 27.2488 10.7213C26.2236 9.67651 24.8295 9.07571 23.366 9.04802ZM14.73 14.634C14.73 12.3439 15.6398 10.1475 17.2591 8.52816C18.8785 6.90878 21.0749 5.99902 23.365 5.99902C25.6551 5.99902 27.8515 6.90878 29.4709 8.52816C31.0902 10.1475 32 12.3439 32 14.634C32 16.9242 31.0902 19.1205 29.4709 20.7399C27.8515 22.3593 25.6551 23.269 23.365 23.269C21.0749 23.269 18.8785 22.3593 17.2591 20.7399C15.6398 19.1205 14.73 16.9242 14.73 14.634Z" fill="#4F4F4F"/>
<path fill-rule="evenodd" clip-rule="evenodd" d="M16.254 16.16L7.112 16.16L7.112 13.11L16.254 13.11L16.254 16.16Z" fill="#4F4F4F"/>
<path d="M8.12601 14.634C8.13643 15.0407 8.06532 15.4454 7.91688 15.8242C7.76844 16.203 7.54567 16.5482 7.26169 16.8395C6.97772 17.1309 6.6383 17.3624 6.26343 17.5205C5.88857 17.6786 5.48585 17.7601 5.07901 17.7601C4.67217 17.7601 4.26944 17.6786 3.89458 17.5205C3.51971 17.3624 3.18029 17.1309 2.89632 16.8395C2.61235 16.5482 2.38957 16.203 2.24113 15.8242C2.09269 15.4454 2.02159 15.0407 2.03201 14.634C2.05237 13.8394 2.38232 13.0842 2.95153 12.5294C3.52073 11.9746 4.28415 11.6641 5.07901 11.6641C5.87387 11.6641 6.63728 11.9746 7.20649 12.5294C7.77569 13.0842 8.10565 13.8394 8.12601 14.634Z" fill="#4F4F4F"/>
<path fill-rule="evenodd" clip-rule="evenodd" d="M5.08 13.62C4.94292 13.6139 4.80602 13.6356 4.67757 13.6839C4.54912 13.7321 4.43178 13.8059 4.33263 13.9008C4.23347 13.9956 4.15456 14.1096 4.10064 14.2358C4.04673 14.3619 4.01893 14.4977 4.01893 14.635C4.01893 14.7722 4.04673 14.908 4.10064 15.0342C4.15456 15.1603 4.23347 15.2743 4.33263 15.3691C4.43178 15.464 4.54912 15.5378 4.67757 15.586C4.80602 15.6343 4.94292 15.656 5.08 15.65C5.3414 15.6383 5.58824 15.5263 5.76911 15.3373C5.94998 15.1482 6.05093 14.8966 6.05093 14.635C6.05093 14.3733 5.94998 14.1217 5.76911 13.9326C5.58824 13.7436 5.3414 13.6316 5.08 13.62ZM2.81582e-10 14.634C-9.69618e-09 13.9668 0.131398 13.3063 0.386692 12.6899C0.641986 12.0736 1.01618 11.5136 1.4879 11.0419C1.95962 10.5701 2.51963 10.1959 3.13597 9.94065C3.7523 9.68535 4.41288 9.55396 5.08 9.55396C5.74712 9.55396 6.4077 9.68535 7.02403 9.94065C7.64037 10.1959 8.20038 10.5701 8.6721 11.0419C9.14382 11.5136 9.51801 12.0736 9.77331 12.6899C10.0286 13.3063 10.16 13.9668 10.16 14.634C10.16 15.9813 9.62479 17.2734 8.6721 18.2261C7.71942 19.1787 6.4273 19.714 5.08 19.714C3.7327 19.714 2.44058 19.1787 1.4879 18.2261C0.535213 17.2734 2.04326e-08 15.9813 2.81582e-10 14.634Z" fill="#4F4F4F"/>
</g>
<defs>
<clipPath id="clip0_104_3036">
<rect width="32" height="32" fill="white"/>
</clipPath>
</defs>
</svg>
