<svg width="24" height="25" viewBox="0 0 24 25" fill="none" xmlns="http://www.w3.org/2000/svg">
<path d="M17.736 6.68927L21.5 2.92627M17.736 6.68927C17.296 6.24927 17.583 4.44727 17.696 3.42627M17.736 6.68927C18.176 7.12927 19.978 6.84327 21 6.72927M6.263 18.1633L2.5 21.9263M6.263 18.1633C5.823 17.7233 4.021 18.0093 3 18.1233M6.263 18.1633C6.703 18.6033 6.416 20.4053 6.303 21.4263M17.736 18.1633L21.5 21.9263M17.736 18.1633C18.176 17.7233 19.978 18.0093 21 18.1233M17.736 18.1633C17.296 18.6033 17.583 20.4053 17.696 21.4263M6.263 6.68927L2.5 2.92627M6.263 6.68927C6.703 6.24927 6.416 4.44727 6.303 3.42627M6.263 6.68927C5.823 7.12927 4.021 6.84327 3 6.72927M12 7.42627C10.6739 7.42627 9.40215 7.95305 8.46447 8.89074C7.52678 9.82842 7 11.1002 7 12.4263C7 13.7524 7.52678 15.0241 8.46447 15.9618C9.40215 16.8995 10.6739 17.4263 12 17.4263C13.3261 17.4263 14.5979 16.8995 15.5355 15.9618C16.4732 15.0241 17 13.7524 17 12.4263C17 11.1002 16.4732 9.82842 15.5355 8.89074C14.5979 7.95305 13.3261 7.42627 12 7.42627Z" stroke="white" stroke-width="1.5" stroke-linecap="round" stroke-linejoin="round"/>
</svg>
