<svg width="151" height="151" viewBox="0 0 151 151" fill="none" xmlns="http://www.w3.org/2000/svg">
<g id="Simplification" opacity="0.2" clip-path="url(#clip0_5527_124739)">
<path id="Vector" d="M58.137 90.1887C58.8903 90.3953 59.6436 90.6016 60.3971 90.8075C61.969 91.2378 63.5398 91.6717 65.11 92.1079C66.9155 92.6094 68.7223 93.1061 70.5299 93.6001C72.2829 94.0791 74.035 94.5608 75.7868 95.044C76.5262 95.2478 77.2658 95.451 78.0055 95.6537C79.0412 95.938 80.0761 96.2253 81.1107 96.5136C81.4112 96.5955 81.7117 96.6774 82.0213 96.7619C86.2157 97.9401 90.1963 99.4671 92.4921 103.395C93.314 105.065 94.0016 106.497 93.957 108.376C99.2692 105.49 104.53 102.519 109.745 99.4618C112.258 97.9893 114.782 96.535 117.308 95.0833C118.504 94.3954 119.697 93.7018 120.887 93.0028C121.161 92.8435 121.434 92.6842 121.716 92.52C122.219 92.2267 122.721 91.9315 123.221 91.6339C126.834 89.5387 130.305 88.5872 134.46 89.644C137.59 90.7638 139.953 92.667 141.499 95.6121C142.952 98.7618 143.165 102.423 142.022 105.721C140.313 109.516 137.271 111.376 133.801 113.356C133.55 113.499 133.3 113.642 133.042 113.79C131.643 114.587 130.24 115.377 128.835 116.164C127.08 117.151 125.339 118.161 123.602 119.179C120.201 121.169 116.79 123.14 113.376 125.107C111.785 126.023 110.195 126.941 108.605 127.858C107.971 128.224 107.336 128.59 106.701 128.957C106.387 129.138 106.073 129.319 105.749 129.506C104.797 130.055 103.845 130.605 102.893 131.154C102.421 131.426 102.421 131.426 101.94 131.704C101.307 132.069 100.675 132.433 100.043 132.798C98.0855 133.927 96.1293 135.057 94.1735 136.188C93.212 136.743 92.2496 137.297 91.2871 137.85C90.2462 138.448 89.2089 139.052 88.1766 139.665C85.203 141.415 82.2064 142.721 78.7226 142.946C78.4971 142.961 78.2717 142.976 78.0394 142.992C72.4791 143.192 66.7212 141.23 61.3336 139.987C59.5762 139.581 57.8184 139.177 56.0604 138.774C55.4521 138.635 54.8442 138.494 54.2362 138.353C53.8653 138.268 53.4944 138.183 53.1123 138.095C52.7884 138.02 52.4644 137.946 52.1307 137.869C47.5287 136.916 43.3251 137.517 39.2405 139.851C38.5496 140.335 37.9904 140.868 37.414 141.481C37.5107 141.771 37.6074 142.061 37.707 142.36C37.9204 144.361 37.7858 145.737 36.5351 147.34C34.7177 148.602 32.7275 149.07 30.6025 149.611C30.2615 149.704 29.9204 149.796 29.5691 149.891C27.2846 150.482 24.7614 151.133 22.4909 150.215C20.7977 148.727 20.3182 147.194 19.741 145.078C19.6534 144.767 19.5659 144.456 19.4757 144.136C19.2008 143.155 18.9316 142.172 18.664 141.188C18.581 140.885 18.4981 140.581 18.4126 140.269C17.8202 138.096 17.2426 135.92 16.667 133.743C16.4837 133.052 16.3004 132.362 16.117 131.671C15.6396 129.874 15.1633 128.076 14.6872 126.278C13.9249 123.4 13.1611 120.523 12.3974 117.645C12.1346 116.655 11.8722 115.664 11.6098 114.673C11.5273 114.362 11.4447 114.051 11.3597 113.73C11.1981 113.12 11.037 112.511 10.8764 111.901C10.4852 110.421 10.0823 108.947 9.65537 107.477C9.57324 107.19 9.49112 106.903 9.40652 106.607C9.25306 106.074 9.09632 105.541 8.93538 105.009C8.32706 102.878 7.90271 100.601 8.92279 98.5612C10.055 97.3032 10.9991 96.812 12.6341 96.3616C13.0018 96.2601 13.3694 96.1585 13.7482 96.0538C13.9393 96.0025 14.1304 95.9512 14.3273 95.8983C14.9043 95.743 15.4798 95.5829 16.0553 95.4221C21.0196 94.0675 21.0196 94.0675 22.9853 94.6244C24.1401 95.3129 24.6566 95.8314 25.4023 96.9499C25.6403 97.9386 25.6403 97.9386 25.6953 98.7077C27.3163 97.8791 28.6291 96.833 30.0257 95.6704C39.413 87.9247 46.6199 86.9791 58.137 90.1887ZM34.0101 99.0346C32.866 99.9398 31.7072 100.825 30.5475 101.711C30.3379 101.871 30.1283 102.032 29.9123 102.198C29.7174 102.347 29.5226 102.496 29.3219 102.649C29.1514 102.779 28.9809 102.91 28.8053 103.044C28.3648 103.371 27.9093 103.677 27.4531 103.981C27.6317 105.695 27.9594 107.299 28.4108 108.96C28.478 109.213 28.5452 109.465 28.6145 109.725C28.8354 110.553 29.0586 111.381 29.2818 112.208C29.4371 112.788 29.5922 113.368 29.7472 113.949C30.1549 115.473 30.5644 116.997 30.9743 118.521C31.389 120.064 31.8019 121.607 32.215 123.151C33.9225 129.536 33.9225 129.536 35.6562 135.915C35.9783 135.756 36.3005 135.597 36.6324 135.433C38.9936 134.284 41.2666 133.21 43.8593 132.692C44.1917 132.626 44.524 132.559 44.8664 132.491C51.1964 131.935 57.4693 133.946 63.592 135.358C65.3495 135.764 67.1072 136.168 68.8653 136.571C69.4735 136.71 70.0815 136.851 70.6895 136.992C71.0603 137.077 71.4312 137.162 71.8134 137.25C72.1373 137.325 72.4612 137.399 72.795 137.476C78.3418 138.625 82.4372 137.214 87.2187 134.45C87.4118 134.338 87.6049 134.227 87.8039 134.112C88.8028 133.533 89.7969 132.945 90.7893 132.354C92.4649 131.359 94.154 130.387 95.843 129.414C96.1672 129.228 96.4913 129.041 96.8254 128.848C97.4908 128.465 98.1562 128.082 98.8217 127.699C100.423 126.776 102.024 125.852 103.625 124.928C104.26 124.562 104.894 124.196 105.529 123.83C105.843 123.648 106.158 123.467 106.481 123.28C116.955 117.238 116.955 117.238 117.908 116.688C118.54 116.323 119.172 115.959 119.804 115.594C121.431 114.655 123.058 113.718 124.686 112.782C128.788 110.424 128.788 110.424 132.867 108.028C133.189 107.836 133.511 107.645 133.843 107.448C135.801 106.191 136.867 105.029 137.609 102.809C137.893 100.908 137.818 99.1414 136.827 97.4614C135.507 95.7262 133.794 94.5419 131.614 94.1999C128.171 93.9776 125.228 96.2449 122.375 97.9386C121.759 98.3014 121.142 98.6638 120.526 99.0258C120.206 99.2134 119.887 99.401 119.557 99.5943C117.867 100.581 116.166 101.548 114.465 102.516C111.62 104.137 108.785 105.773 105.96 107.428C104.408 108.336 102.854 109.238 101.294 110.132C101.037 110.28 101.037 110.28 100.775 110.43C99.9498 110.904 99.1239 111.377 98.297 111.848C96.9245 112.635 95.5597 113.432 94.2248 114.282C93.9192 114.476 93.9192 114.476 93.6075 114.675C92.7998 115.345 92.4126 116.168 91.9531 117.096C90.679 119.55 88.4091 121.201 85.8271 122.09C82.0284 123.251 78.6471 122.617 74.914 121.596C74.4704 121.478 74.0268 121.36 73.5831 121.243C72.1693 120.867 70.7583 120.481 69.3476 120.094C68.98 119.994 68.98 119.994 68.605 119.891C59.5697 117.421 59.5697 117.421 57.9218 116.872C57.898 116.402 57.881 115.932 57.8669 115.462C57.8567 115.2 57.8465 114.938 57.836 114.669C57.9218 113.942 57.9218 113.942 58.2548 113.426C59.263 112.756 60.2777 112.722 61.4496 112.922C61.764 113.01 62.0784 113.099 62.4022 113.189C62.761 113.288 63.1198 113.387 63.4895 113.489C63.8771 113.599 64.2646 113.71 64.6521 113.821C65.0532 113.932 65.4544 114.044 65.8557 114.155C66.9094 114.447 67.9618 114.744 69.014 115.042C70.2913 115.402 71.57 115.758 72.8485 116.115C73.8435 116.392 74.8382 116.67 75.8323 116.951C76.1902 117.051 76.5481 117.152 76.9168 117.256C77.2309 117.344 77.545 117.433 77.8687 117.524C80.4128 118.199 82.7726 118.404 85.1679 117.165C87.266 115.7 88.7055 114.13 89.2695 111.598C89.5795 109.436 89.149 107.408 87.8928 105.614C85.5124 102.757 82.398 102.087 78.9515 101.169C78.4805 101.042 78.0096 100.914 77.5387 100.786C76.2874 100.447 75.0353 100.111 73.7831 99.7757C72.493 99.4297 71.2035 99.0814 69.9141 98.7331C69.4009 98.5946 68.8877 98.456 68.3745 98.3174C68.1222 98.2493 67.8699 98.1812 67.6099 98.111C66.8506 97.9061 66.0911 97.7016 65.3316 97.4971C62.6101 96.764 59.8923 96.0203 57.1802 95.2527C56.9049 95.1751 56.6295 95.0976 56.3459 95.0176C54.3562 94.4569 54.3562 94.4569 53.4337 94.1893C45.1697 91.7935 40.475 93.8849 34.0101 99.0346ZM18.3115 99.9711C18.0245 100.05 17.7375 100.13 17.4418 100.211C16.9954 100.337 16.9954 100.337 16.54 100.465C16.2379 100.549 15.9357 100.633 15.6245 100.72C14.8794 100.927 14.1349 101.135 13.3906 101.344C14.2175 104.959 15.1322 108.544 16.0914 112.126C16.239 112.679 16.3865 113.232 16.534 113.785C16.8428 114.943 17.1521 116.1 17.4618 117.258C17.8472 118.698 18.2316 120.139 18.6158 121.579C20.7516 129.588 22.92 137.588 25.1093 145.583C25.5719 145.491 26.0344 145.4 26.4968 145.308C26.7544 145.257 27.012 145.206 27.2773 145.154C28.3285 144.937 29.3623 144.681 30.4011 144.411C30.595 144.362 30.7889 144.314 30.9887 144.264C31.4756 144.136 31.9555 143.983 32.4335 143.825C32.9261 142.84 32.4054 141.824 32.1256 140.805C32.0579 140.552 31.9901 140.299 31.9204 140.039C31.6932 139.192 31.4631 138.347 31.233 137.501C31.0726 136.905 30.9124 136.31 30.7524 135.714C30.3234 134.12 29.8918 132.526 29.4597 130.932C29.0171 129.298 28.5769 127.663 28.1364 126.028C27.4441 123.459 26.7506 120.89 26.0559 118.322C25.2646 115.397 24.4757 112.471 23.6891 109.544C23.5902 109.176 23.4913 108.808 23.3894 108.429C23.206 107.747 23.0226 107.065 22.8392 106.383C22.23 104.117 21.6189 101.852 21.0078 99.5866C19.969 99.5866 19.2943 99.6969 18.3115 99.9711Z" fill="white"/>
<path id="Vector_2" d="M106.502 26.5065C112.687 31.7405 116.433 38.9455 117.312 46.9892C118.004 55.6733 115.243 63.5105 109.712 70.1978C104.759 75.9289 97.646 79.4146 90.1485 80.2503C81.2903 80.7181 73.2488 78.4529 66.515 72.4933C61.0608 67.544 57.1578 60.5042 56.6982 53.0411C56.513 44.0214 58.264 36.0552 64.6154 29.3309C75.8613 17.7473 93.8248 16.1979 106.502 26.5065ZM67.8828 33.0823C62.8961 38.8249 61.2923 45.8632 61.7305 53.2971C62.4275 59.6869 66 65.6191 70.9041 69.6782C76.5885 74.06 83.4024 76.0022 90.5474 75.1913C97.0886 74.202 103.163 70.6802 107.215 65.4173C111.435 59.5789 113.165 52.7228 112.047 45.6136C111.071 40.6805 109.029 36.5658 105.676 32.7893C105.499 32.5888 105.323 32.3883 105.141 32.1817C100.9 27.6559 94.6434 24.862 88.4662 24.5267C80.3873 24.3721 73.4835 27.2285 67.8828 33.0823Z" fill="white"/>
<path id="Vector_3" d="M101.135 31.9105C101.58 32.2951 102.019 32.6855 102.453 33.0824C102.653 33.2553 102.853 33.4283 103.059 33.6065C107.22 37.4338 109.554 43.0892 109.861 48.6704C110.068 55.1109 108.035 60.7726 103.752 65.5641C99.5407 69.9792 94.1176 72.571 88.0095 72.7512C81.7022 72.8238 76.12 71.0813 71.3985 66.7738C71.1311 66.5466 71.1311 66.5466 70.8583 66.3149C66.5793 62.4346 64.3863 56.4421 64.0961 50.8059C63.8888 44.3867 66.2185 38.668 70.5196 33.9613C78.5213 25.6075 92.0523 24.8556 101.135 31.9105ZM74.0352 37.7699C73.8448 37.9568 73.6545 38.1437 73.4584 38.3364C70.1868 41.7873 69.0596 46.3193 69.0547 50.9535C69.3158 54.8076 70.7848 58.194 73.1563 61.2074C73.3375 61.4494 73.5188 61.6915 73.7056 61.9409C76.3167 65.0081 80.6526 67.3315 84.6656 67.717C90.3142 67.9935 94.7988 66.795 99.1756 63.0384C102.699 59.6825 104.737 55.0483 104.907 50.2027C104.817 45.2898 103.056 40.8142 99.6322 37.2457C95.6377 33.5211 90.9856 31.9792 85.6303 32.1119C80.9911 32.3441 77.2496 34.561 74.0352 37.7699Z" fill="white"/>
<path id="Vector_4" d="M103.524 9.70806C103.902 9.87135 104.277 10.0398 104.65 10.2127C104.954 10.3505 104.954 10.3505 105.264 10.4911C115.423 15.2181 123.584 23.8057 127.549 34.3048C127.681 34.6781 127.812 35.052 127.941 35.4264C128.041 35.7144 128.041 35.7144 128.143 36.0083C131.975 47.376 130.664 59.2636 125.598 69.9967C125.77 69.9502 125.942 69.9038 126.12 69.8559C127.059 69.636 127.86 69.6179 128.82 69.7037C129.789 70.4687 130.231 71.059 130.395 72.2855C130.28 73.2621 130.095 73.6526 129.386 74.3203C128.059 75.1738 126.436 75.4353 124.92 75.8011C124.394 75.9379 124.394 75.9379 123.856 76.0775C119.358 77.2051 119.358 77.2051 117.865 76.3184C117.176 75.2115 117.057 74.1338 116.9 72.8531C116.849 72.4648 116.849 72.4648 116.797 72.0686C116.696 71.2809 116.605 70.4926 116.516 69.7037C116.486 69.4698 116.457 69.2359 116.427 68.9949C116.349 68.3589 116.283 67.7231 116.223 67.0853C116.186 66.7201 116.15 66.3549 116.113 65.9786C116.223 65.0162 116.223 65.0162 116.891 64.1659C117.687 63.5514 117.687 63.5514 118.713 63.3683C119.997 63.5976 120.414 63.9946 121.203 65.0162C121.389 65.6525 121.389 65.6525 121.496 66.1881C122.605 63.7069 123.451 61.2524 124.078 58.6075C124.138 58.3537 124.199 58.0998 124.261 57.8383C126.364 48.6013 124.631 38.3417 119.652 30.2729C118.437 28.3765 117.098 26.5934 115.637 24.8795C115.443 24.6427 115.248 24.4059 115.048 24.1619C111.505 19.9973 106.787 17.0068 101.79 14.8823C100.513 14.319 99.6776 13.8147 98.9375 12.5748C98.8153 11.7405 98.9648 11.0282 99.2305 10.2311C100.341 8.86417 102.002 9.20242 103.524 9.70806Z" fill="white"/>
<path id="Vector_5" d="M54.7358 65.3824C55.0814 65.5225 55.4269 65.6626 55.783 65.807C56.2809 66.016 56.2809 66.016 56.7889 66.2292C57.0907 66.3547 57.3925 66.4802 57.7034 66.6095C58.6237 67.1328 59.096 67.6541 59.6797 68.5318C59.8445 69.4107 59.8445 69.4107 59.6797 70.2896C59.0938 71.1319 59.0938 71.1319 58.2148 71.7544C57.3923 71.8746 56.709 71.8255 55.8711 71.7544C60.7513 79.789 69.3647 84.7847 78.273 87.1068C84.409 88.5525 91.1139 88.3964 97.1797 86.6959C97.3759 86.6426 97.5722 86.5893 97.7744 86.5343C102.355 85.2564 106.635 82.9786 110.387 80.0709C111.181 79.457 111.747 79.0933 112.744 78.9139C113.835 79.1273 114.307 79.4222 115.051 80.2505C115.417 81.2027 115.417 81.2027 115.344 82.3013C114.092 84.6512 111.415 85.9834 109.191 87.2818C109.018 87.3846 108.844 87.4874 108.665 87.5934C99.6497 92.863 87.812 94.9347 77.577 92.4241C66.7564 89.564 56.6918 83.457 50.5977 73.8052C50.5977 73.6119 50.5977 73.4185 50.5977 73.2193C50.4043 73.2193 50.2109 73.2193 50.0117 73.2193C49.9755 73.6906 49.9755 73.6906 49.9385 74.1714C49.6979 75.3744 49.5374 75.7459 48.5469 76.4419C47.494 76.778 47.0037 76.8276 45.9834 76.387C45.2666 75.8096 44.9775 75.5694 44.7383 74.6841C44.897 72.591 45.4416 70.6225 46.0017 68.605C46.0884 68.2761 46.1751 67.9472 46.2644 67.6083C46.3518 67.2922 46.4392 66.9761 46.5293 66.6504C46.6462 66.2217 46.6462 66.2217 46.7654 65.7844C47.1279 64.9048 47.5245 64.4484 48.2539 63.8443C50.436 63.1169 52.7425 64.5425 54.7358 65.3824Z" fill="white"/>
<path id="Vector_6" d="M86.4373 0.932055C88.0419 1.37759 89.1602 2.73983 90.2806 3.91532C90.734 4.38953 91.1981 4.85087 91.6649 5.31185C94.1593 7.84774 94.1593 7.84774 94.2501 9.93813C93.6763 11.5416 92.1383 12.4608 90.826 13.4538C90.5981 13.6305 90.3702 13.8072 90.1354 13.9893C86.2742 16.952 86.2742 16.952 84.6554 17.006C83.5029 16.6071 83.1216 16.2741 82.5313 15.2116C82.3666 14.3327 82.3666 14.3327 82.5313 13.4538C83.0052 12.9514 83.4926 12.4614 83.9962 11.9889C78.4261 12.4459 73.3427 13.9488 68.4688 16.6764C68.1531 16.8456 67.8374 17.0148 67.5121 17.1891C59.1757 21.8062 53.0789 30.0798 50.3574 39.1297C49.0745 43.7027 48.5248 48.4524 48.9864 53.1876C49.3476 56.9608 49.3476 56.9608 48.6935 58.2963C47.8662 58.9374 47.2724 59.0378 46.2318 59.0585C45.2213 58.7385 44.7952 58.2338 44.1524 57.3991C43.8954 56.5271 43.827 55.6671 43.7679 54.7623C43.7372 54.3887 43.7372 54.3887 43.7058 54.0076C42.8048 42.2808 46.2397 30.7461 53.9237 21.7805C62.1533 12.3285 72.8445 7.69066 85.1681 6.4225C85.0433 6.30963 84.9185 6.19676 84.79 6.08047C84.5477 5.8521 84.5477 5.8521 84.3006 5.61913C84.0591 5.39544 84.0591 5.39544 83.8127 5.16723C83.331 4.56571 83.2575 4.22025 83.2271 3.45619C83.4103 2.32094 83.4103 2.32094 83.8314 1.58852C84.704 1.07775 85.426 0.913504 86.4373 0.932055Z" fill="white"/>
<path id="Vector_7" d="M88.0977 36.0119C89.0484 36.6457 89.232 37.0209 89.4893 38.1359C89.5135 38.4018 89.5376 38.6677 89.5625 38.9416C89.8042 38.996 90.0459 39.0504 90.2949 39.1064C91.676 39.6736 92.6946 40.4411 93.6641 41.5783C94.0487 42.7524 94.08 43.3038 93.6458 44.4531C92.9101 45.2837 92.4104 45.4875 91.3203 45.6799C90.157 45.429 89.4614 45.1095 88.6836 44.215C87.9631 43.8548 87.5754 43.9178 86.7793 43.9953C86.5467 44.0149 86.3141 44.0346 86.0744 44.0548C85.3492 44.1716 85.3492 44.1716 84.875 45.0939C84.97 46.0673 85.0531 46.4439 85.7539 47.1447C86.3982 47.2436 87.0461 47.3195 87.6949 47.3828C90.2094 47.7196 91.6331 48.3978 93.2063 50.3857C94.4381 52.0806 94.4435 53.8944 94.25 55.9338C93.7398 57.9072 92.7093 59.2033 91.0274 60.3283C90.8223 60.4163 90.6172 60.5043 90.406 60.595C89.6994 61.0048 89.6233 61.3143 89.3977 62.0861C89.0963 63.1046 89.046 63.2117 88.0977 63.8439C86.0535 64.0386 86.0535 64.0386 85.0215 63.3679C84.4709 62.496 84.49 61.927 84.5821 60.9142C84.3887 60.9022 84.1953 60.8901 83.9961 60.8776C82.3983 60.4116 81.1041 59.3594 80.1875 57.9846C79.9949 55.9619 79.9949 55.9619 80.627 54.9084C81.6523 54.2932 82.557 54.2083 83.7032 54.4689C84.2564 54.8106 84.7417 55.1972 85.2481 55.6042C86.106 56.1632 86.8229 56.082 87.8047 55.9338C88.5081 55.5357 88.5081 55.5357 88.9766 55.0549C88.9017 54.3684 88.8029 53.6842 88.6836 53.0041C87.9632 52.6439 87.4373 52.6699 86.6328 52.6379C84.5947 52.4589 82.8585 51.8722 81.3926 50.3971C80.1075 48.7729 79.4585 47.2237 79.5306 45.1145C79.7878 42.9158 80.9108 41.2899 82.5313 39.8205C82.8515 39.6694 83.1718 39.5184 83.5017 39.3627C84.4004 38.9974 84.4004 38.9974 84.637 37.9162C84.7155 37.5778 84.7941 37.2394 84.875 36.8908C85.5745 35.6862 86.8459 35.7873 88.0977 36.0119Z" fill="white"/>
</g>
<defs>
<clipPath id="clip0_5527_124739">
<rect width="150" height="150" fill="white" transform="translate(0.5 0.855957)"/>
</clipPath>
</defs>
</svg>
