<svg width="93" height="122" viewBox="0 0 93 122" fill="none" xmlns="http://www.w3.org/2000/svg">
<g id="Group 14194">
<g id="Group">
<path id="Vector" d="M87.9999 43.7198L89.1099 44.8299H87.9999H49.7649V6.14487V5.48486L50.4249 6.14487L87.9999 43.7198Z" fill="white"/>
<path id="Vector_2" d="M50.4207 4.81873H16.3707C10.0557 4.81873 4.94067 9.93372 4.94067 16.2487V105.424C4.94067 111.739 10.0557 116.854 16.3707 116.854H76.5507C82.8657 116.854 87.9807 111.739 87.9807 105.424V42.3787L86.4657 40.8637L85.4907 39.8887L52.9557 7.35373L52.3857 6.78372L50.4057 4.80371L50.4207 4.81873Z" stroke="white" stroke-width="9" stroke-linecap="round" stroke-linejoin="round"/>
</g>
<path id="Vector_3" d="M41.6451 59.3691L45.9651 67.2592C47.7801 70.5592 50.4951 73.2892 53.7951 75.0892L61.6851 79.4092L53.7951 83.7291C50.4951 85.5441 47.7651 88.2591 45.9651 91.5591L41.6451 99.4491L37.3251 91.5591C35.5101 88.2591 32.7951 85.5291 29.4951 83.7291L21.6051 79.4092L29.4951 75.0892C32.7951 73.2742 35.5251 70.5592 37.3251 67.2592L41.6451 59.3691Z" stroke="white" stroke-width="7.5" stroke-linecap="round" stroke-linejoin="round"/>
<path id="Vector_4" d="M62.2332 49.0566L64.2732 52.7916C65.1282 54.3516 66.4182 55.6416 67.9782 56.4966L71.7132 58.5367L67.9782 60.5766C66.4182 61.4316 65.1282 62.7216 64.2732 64.2816L62.2332 68.0166L60.1932 64.2816C59.3382 62.7216 58.0482 61.4316 56.4882 60.5766L52.7532 58.5367L56.4882 56.4966C58.0482 55.6416 59.3382 54.3516 60.1932 52.7916L62.2332 49.0566Z" fill="white"/>
</g>
</svg>
