<svg width="24" height="25" viewBox="0 0 24 25" fill="none" xmlns="http://www.w3.org/2000/svg">
<path d="M3.79509 19.026V19.0252V9.2474C3.79509 8.94199 3.89592 8.69727 4.11692 8.47627C4.33789 8.2553 4.58205 8.15496 4.88632 8.15533H4.88715H8.44271H9.12842V7.46962V5.69184C9.12842 5.38644 9.22925 5.14171 9.45025 4.92071C9.67122 4.69974 9.91538 4.59941 10.2197 4.59978H10.2205H13.776C14.0814 4.59978 14.3262 4.70061 14.5472 4.9216C14.7681 5.14258 14.8685 5.38673 14.8681 5.69101V5.69184V7.46962V8.15533H15.5538H19.1094C19.4148 8.15533 19.6595 8.25616 19.8805 8.47716C20.1015 8.69813 20.2018 8.94229 20.2014 9.24657V9.2474V19.0252C20.2014 19.3306 20.1006 19.5753 19.8796 19.7963C19.6586 20.0173 19.4145 20.1176 19.1102 20.1172H19.1094H4.88715C4.58175 20.1172 4.33702 20.0164 4.11603 19.7954C3.89505 19.5744 3.79472 19.3303 3.79509 19.026ZM9.53477 7.46962V8.15533H10.2205H13.776H14.4618V7.46962V5.69184V5.00613H13.776H10.2205H9.53477V5.69184V7.46962ZM4.88715 7.46962H7.757H8.44271V6.78391V5.69184C8.44271 5.20295 8.61693 4.78429 8.96538 4.43584C9.31382 4.0874 9.73219 3.91347 10.2205 3.91406H13.776C14.2649 3.91406 14.6836 4.08829 15.032 4.43673C15.3805 4.78518 15.5544 5.20355 15.5538 5.69184L4.88715 7.46962Z" stroke="#155DEC" stroke-width="1.37143"/>
</svg>
