<svg width="24" height="25" viewBox="0 0 24 25" fill="none" xmlns="http://www.w3.org/2000/svg">
<path d="M9.96737 7.07374L10.1248 7.17871H10.3141H20.2812C20.4056 7.17871 20.5248 7.2281 20.6127 7.316C20.7006 7.40391 20.75 7.52314 20.75 7.64746V9.05371H3.25V6.39746C3.25 6.27314 3.29939 6.15391 3.38729 6.066C3.4752 5.9781 3.59443 5.92871 3.71875 5.92871H8.24983L9.96737 7.07374ZM3.38729 19.5414C3.29939 19.4535 3.25 19.3343 3.25 19.21V11.5537H20.75V19.21C20.75 19.3343 20.7006 19.4535 20.6127 19.5414C20.5248 19.6293 20.4056 19.6787 20.2812 19.6787H3.71875C3.59443 19.6787 3.4752 19.6293 3.38729 19.5414Z" stroke="#155DEC" stroke-width="1.25"/>
</svg>
