<svg width="24" height="25" viewBox="0 0 24 25" fill="none" xmlns="http://www.w3.org/2000/svg">
<path d="M16.2034 21.8034C16.1103 21.8034 16.0184 21.7818 15.9351 21.7402C15.8517 21.6986 15.7792 21.6382 15.7232 21.5638L11.3535 15.7364C11.3044 15.6735 11.2685 15.6015 11.2476 15.5246C11.2267 15.4477 11.2214 15.3674 11.232 15.2884C11.2425 15.2094 11.2687 15.1333 11.3091 15.0645C11.3494 14.9957 11.403 14.9357 11.4668 14.8879C11.5306 14.8401 11.6033 14.8056 11.6806 14.7862C11.7579 14.7668 11.8383 14.7631 11.9171 14.7752C11.9959 14.7872 12.0714 14.8149 12.1394 14.8565C12.2074 14.8982 12.2663 14.953 12.3129 15.0177L15.9267 19.8361L19.526 5.43918L5.29323 11.5354L9.05669 12.7918C9.13143 12.8166 9.20054 12.856 9.26006 12.9076C9.31959 12.9592 9.36837 13.022 9.40362 13.0925C9.43887 13.1629 9.4599 13.2396 9.4655 13.3182C9.47111 13.3968 9.46119 13.4757 9.4363 13.5504C9.41141 13.6251 9.37204 13.6942 9.32045 13.7538C9.26885 13.8133 9.20604 13.8621 9.13559 13.8973C9.06514 13.9326 8.98844 13.9536 8.90987 13.9592C8.83129 13.9648 8.75239 13.9549 8.67765 13.93L3.416 12.1754C3.29904 12.138 3.19637 12.0656 3.12189 11.968C3.04741 11.8703 3.0047 11.7522 2.99955 11.6295C2.9944 11.5068 3.02705 11.3855 3.09308 11.282C3.15911 11.1784 3.25534 11.0977 3.36876 11.0506L20.166 3.85214C20.2686 3.80818 20.3814 3.79376 20.4918 3.81047C20.6022 3.82719 20.7057 3.87439 20.7907 3.94675C20.8757 4.01912 20.9388 4.11378 20.9729 4.22007C21.007 4.32636 21.0107 4.44006 20.9837 4.54836L16.7838 21.3534C16.7567 21.4635 16.6988 21.5636 16.6169 21.6421C16.5351 21.7205 16.4327 21.7741 16.3215 21.7966C16.2825 21.8024 16.2429 21.8047 16.2034 21.8034V21.8034Z" fill="#155DEC"/>
<path d="M9.00439 21.2035C8.84732 21.2035 8.69651 21.1419 8.5844 21.0319C8.47229 20.9219 8.40784 20.7723 8.40489 20.6152L8.26767 13.3706C8.26585 13.2652 8.29181 13.1612 8.34295 13.069C8.39409 12.9768 8.46859 12.8996 8.55898 12.8454L16.4953 8.09211C16.6141 8.02299 16.753 7.99676 16.8888 8.01783C17.0246 8.0389 17.149 8.10598 17.2412 8.20783C17.3335 8.30969 17.3879 8.44015 17.3955 8.57736C17.403 8.71457 17.3632 8.8502 17.2826 8.96155L12.3337 15.6978L9.52178 20.8897C9.47121 20.9832 9.39661 21.0616 9.30567 21.1168C9.21473 21.1719 9.11073 21.2019 9.00439 21.2035ZM9.47341 13.6957L9.56114 18.314L11.3045 15.0904C11.3177 15.0662 11.3323 15.0429 11.3484 15.0206L14.5573 10.6498L9.47341 13.6957Z" fill="#155DEC"/>
</svg>
