<svg width="120" height="120" viewBox="0 0 120 120" fill="none" xmlns="http://www.w3.org/2000/svg">
<g clip-path="url(#clip0_162_33)">
<path d="M109.999 27.5H44.9987C39.4987 27.5 34.9987 32 34.9987 37.5V82.5C34.9987 85.1522 36.0522 87.6957 37.9276 89.5711C39.803 91.4464 42.3465 92.5 44.9987 92.5H109.999C115.549 92.5 119.999 88.05 119.999 82.5V37.5C119.999 34.8478 118.945 32.3043 117.07 30.4289C115.194 28.5536 112.651 27.5 109.999 27.5ZM109.999 82.5H44.9987V45.85L77.4987 62.5L109.999 45.85V82.5ZM77.4987 54.05L44.9987 37.5H109.999L77.4987 54.05ZM24.9987 82.5C24.9987 83.35 25.1487 84.15 25.2487 85H4.99866C2.23866 85 -0.00134277 82.75 -0.00134277 80C-0.00134277 77.25 2.23866 75 4.99866 75H24.9987V82.5ZM14.9987 35H25.2487C25.1487 35.85 24.9987 36.65 24.9987 37.5V45H14.9987C12.2487 45 9.99866 42.75 9.99866 40C9.99866 37.25 12.2487 35 14.9987 35ZM4.99866 60C4.99866 57.25 7.24866 55 9.99866 55H24.9987V65H9.99866C7.24866 65 4.99866 62.75 4.99866 60Z" fill="white"/>
</g>
<defs>
<clipPath id="clip0_162_33">
<rect width="120" height="120" fill="white" transform="translate(-0.00134277)"/>
</clipPath>
</defs>
</svg>
