<svg width="121" height="120" viewBox="0 0 121 120" fill="none" xmlns="http://www.w3.org/2000/svg">
<path d="M32.662 1.81914C34.6476 3.44252 35.8736 5.58041 36.2317 8.11522C36.4567 10.8902 35.6702 13.3783 33.8733 15.498C33.6654 15.7204 33.4575 15.9428 33.2434 16.1719C33.3968 16.2435 33.5503 16.3151 33.7085 16.3888C36.9451 18.0117 39.4905 20.5817 40.9777 23.9062C41.6738 23.9062 42.3699 23.9062 43.0871 23.9062C43.2027 23.6679 43.2027 23.6679 43.3206 23.4247C44.8094 20.5116 47.2368 17.6526 50.3527 16.4062C50.5074 16.4062 50.6621 16.4062 50.8215 16.4062C50.6774 16.208 50.5333 16.0098 50.3848 15.8056C48.4437 13.0998 47.4245 10.811 47.9065 7.36815C48.3683 5.23452 49.5139 3.17957 51.2902 1.87499C53.9806 0.33417 56.7033 -0.312672 59.7744 0.411057C60.3354 0.630119 60.8466 0.872082 61.3684 1.17186C61.7382 1.38214 61.7382 1.38214 62.1154 1.59666C64.1287 3.16254 65.6866 5.12528 66.0559 7.73436C66.2714 10.3662 65.9114 12.6575 64.2688 14.7803C64.0058 15.0885 63.7423 15.3962 63.4777 15.7031C63.3231 15.9351 63.1684 16.1672 63.009 16.4062C63.2637 16.4411 63.2637 16.4411 63.5235 16.4767C64.6959 16.769 65.5734 17.5618 66.5246 18.2812C66.6733 18.3903 66.8219 18.4994 66.9751 18.6117C68.6357 19.9182 69.8743 21.762 70.7434 23.6719C70.7434 23.8265 70.7434 23.9812 70.7434 24.1406C71.5168 24.1406 72.2902 24.1406 73.0871 24.1406C73.1107 23.9705 73.1342 23.8004 73.1585 23.6252C73.893 20.6668 76.9931 18.2877 79.461 16.799C79.8332 16.5843 80.2096 16.377 80.5871 16.1719C80.4552 16.0096 80.4552 16.0096 80.3207 15.8441C78.2496 13.2043 77.5121 10.8585 77.7746 7.49999C78.468 4.6044 80.2141 2.51966 82.6965 0.937485C84.7335 -0.195131 87.638 -0.0984206 89.8486 0.432114C92.4445 1.41722 94.1292 3.1696 95.3527 5.62499C96.3505 7.90559 96.2163 10.5294 95.3436 12.8293C94.7364 14.1201 93.9808 15.1322 93.009 16.1719C93.1625 16.2435 93.316 16.3151 93.4741 16.3888C96.3214 17.8165 99.248 20.2068 100.319 23.3056C100.958 24.2093 101.771 24.1971 102.821 24.4162C104.726 24.917 106.195 26.304 107.306 27.8906C108.463 29.9932 108.833 32.1129 108.214 34.4531C107.507 36.5804 106.19 38.2852 104.253 39.418C103.467 39.8056 102.845 40.0765 101.957 40.0827C101.104 40.0949 100.581 40.1763 99.8059 40.5469C98.7787 41.6479 98.0941 43.0428 97.3651 44.3489C96.7443 45.4363 96.0607 46.4824 95.382 47.5342C95.1041 47.9701 94.8263 48.4062 94.5489 48.8425C94.4106 49.0596 94.2723 49.2767 94.1298 49.5004C93.4434 50.5782 92.7575 51.6563 92.0715 52.7344C91.7981 53.164 91.5246 53.5937 91.2512 54.0234C91.1158 54.2361 90.9805 54.4488 90.841 54.668C88.2434 58.75 85.6457 62.832 83.0481 66.914C82.9125 67.127 82.777 67.34 82.6373 67.5595C82.3658 67.9861 82.0943 68.4128 81.8227 68.8394C81.1095 69.96 80.3967 71.0809 79.6844 72.2021C79.5364 72.4351 79.3883 72.668 79.2358 72.908C78.9531 73.3529 78.6705 73.7978 78.388 74.2428C77.726 75.2843 77.0584 76.3205 76.3684 77.3437C76.7487 78.1846 77.2616 78.8843 77.8039 79.6289C81.7449 85.2282 83.2761 91.9607 82.1838 98.7305C81.347 103.363 79.3875 107.879 76.134 111.328C75.9773 111.499 75.9773 111.499 75.8174 111.673C71.7153 116.117 65.7735 119.439 59.6441 119.814C58.7925 119.837 57.943 119.843 57.091 119.839C56.7901 119.838 56.4892 119.837 56.1791 119.835C54.0729 119.809 52.1439 119.679 50.1184 119.062C49.7114 118.939 49.7114 118.939 49.2962 118.813C42.5395 116.563 37.2302 111.998 33.9465 105.703C33.3833 104.563 32.9323 103.395 32.5402 102.187C32.491 102.038 32.4417 101.889 32.3909 101.736C30.3146 95.1272 31.4878 87.9158 34.6057 81.8701C35.2976 80.6272 36.177 79.5538 37.0959 78.4744C37.5329 77.841 37.5329 77.841 37.3706 77.1579C36.8659 76.1522 36.2721 75.2306 35.6457 74.2969C35.3681 73.8765 35.0907 73.4559 34.8135 73.0353C34.6701 72.8183 34.5267 72.6013 34.379 72.3777C33.6818 71.3154 33.001 70.2429 32.3205 69.1699C32.1841 68.9552 32.0478 68.7405 31.9073 68.5193C31.6305 68.0834 31.3538 67.6475 31.0771 67.2115C30.4034 66.15 29.7288 65.0891 29.0539 64.0283C28.8527 63.712 28.8527 63.712 28.6475 63.3894C27.6041 61.75 26.557 60.113 25.509 58.4765C24.3248 56.6276 23.1426 54.7774 21.9641 52.9248C21.8307 52.7152 21.6973 52.5055 21.5599 52.2895C20.7428 51.0048 19.9265 49.7197 19.1115 48.4337C18.8374 48.003 18.5619 47.5733 18.2849 47.1446C17.5956 46.076 16.934 45.0022 16.3116 43.8931C15.1339 41.5967 15.1339 41.5967 13.1347 40.1486C12.2304 39.9766 12.2304 39.9766 11.3348 39.9225C9.71346 39.7679 8.45605 38.8222 7.37423 37.6465C5.62502 35.4116 5.43496 33.2336 5.58712 30.4687C5.88881 28.5783 6.98021 27.0462 8.43258 25.8298C9.85876 24.82 11.5275 23.967 13.3215 24.1406C13.3451 23.9705 13.3686 23.8004 13.3929 23.6252C14.1273 20.6668 17.2274 18.2877 19.6954 16.799C20.0676 16.5843 20.444 16.377 20.8215 16.1719C20.7336 16.0637 20.6457 15.9555 20.5551 15.8441C18.4839 13.2043 17.7465 10.8585 18.009 7.49999C18.7024 4.6044 20.4485 2.51966 22.9309 0.937485C25.8715 -0.697567 30.0313 -0.0203482 32.662 1.81914ZM23.634 5.39061C22.4158 6.77713 21.8819 7.86982 21.9156 9.72563C22.0939 11.0703 22.6597 12.2188 23.688 13.1085C25.2192 14.1526 26.4734 14.4891 28.3215 14.2969C29.9594 13.819 30.9887 12.7063 31.8692 11.2903C32.365 10.0429 32.3218 8.40909 31.8582 7.15941C31.1049 5.89027 29.9634 4.73056 28.5559 4.21874C26.6642 3.7822 25.1317 4.15341 23.634 5.39061ZM52.5354 6.53319C51.8018 7.72082 51.6539 8.89485 51.8524 10.2493C52.3218 12.0203 53.5527 13.2338 55.0988 14.1357C56.8497 14.5735 58.3148 14.3939 59.8989 13.5232C60.9859 12.7094 61.6467 11.587 62.0715 10.3125C62.2642 8.73912 61.9937 7.43106 61.134 6.09374C60.1574 5.01068 59.1187 4.30135 57.6413 4.14824C55.2199 4.13889 54.1511 4.73797 52.5354 6.53319ZM82.594 6.34276C81.7097 7.55948 81.5636 8.8389 81.759 10.3125C82.2714 11.9747 83.0724 12.9235 84.5514 13.8144C85.8217 14.4591 87.2402 14.544 88.6081 14.1449C90.1206 13.4629 91.1657 12.2875 91.8371 10.7812C92.1501 9.45105 92.1338 8.29056 91.6027 7.03124C90.7638 5.81797 89.7719 4.62924 88.3215 4.21874C85.7645 3.92717 84.1999 4.31643 82.594 6.34276ZM18.4777 22.9687C18.2457 23.3555 18.0137 23.7422 17.7746 24.1406C23.8848 24.1406 29.9949 24.1406 36.2902 24.1406C34.9521 21.4643 32.4823 20.1616 29.7277 19.2187C25.3945 18.1523 21.4466 19.8391 18.4777 22.9687ZM48.4777 22.7344C47.9167 23.3593 47.9167 23.3593 47.7746 24.1406C53.8848 24.1406 59.9949 24.1406 66.2902 24.1406C64.6016 21.6076 62.3595 19.9091 59.3762 19.1308C55.2156 18.4024 51.4016 19.7268 48.4777 22.7344ZM78.2434 22.9687C78.0113 23.3555 77.7793 23.7422 77.5402 24.1406C83.6504 24.1406 89.7606 24.1406 96.0559 24.1406C94.7177 21.4643 92.2479 20.1616 89.4934 19.2187C85.1601 18.1523 81.2122 19.8391 78.2434 22.9687ZM10.4358 29.6631C10.3206 29.8036 10.2055 29.944 10.0869 30.0888C9.36344 31.0668 9.47388 32.108 9.5715 33.2812C9.98462 34.4977 10.6469 35.1149 11.6809 35.8594C12.6031 36.3122 13.349 36.3871 14.3716 36.3884C14.8351 36.3907 14.8351 36.3907 15.3079 36.393C15.6504 36.3923 15.993 36.3916 16.3355 36.3908C16.6997 36.3917 17.0638 36.3927 17.4279 36.394C18.4291 36.3969 19.4303 36.3968 20.4314 36.3963C21.511 36.3962 22.5906 36.3987 23.6701 36.401C25.7854 36.4049 27.9006 36.4062 30.0159 36.4064C31.7351 36.4066 33.4543 36.4076 35.1736 36.4091C40.0467 36.4132 44.9199 36.4154 49.7931 36.415C50.0558 36.415 50.3186 36.415 50.5894 36.415C50.984 36.4149 50.984 36.4149 51.3866 36.4149C55.6509 36.4147 59.9152 36.4192 64.1795 36.4258C68.5569 36.4325 72.9343 36.4358 77.3118 36.4354C79.7698 36.4352 82.2279 36.4365 84.6859 36.4416C86.7787 36.4458 88.8714 36.4468 90.9642 36.4437C92.032 36.4421 93.0997 36.4421 94.1675 36.4462C95.1453 36.4499 96.123 36.4492 97.1008 36.4451C97.4542 36.4444 97.8077 36.4452 98.1611 36.4479C100.01 36.4606 101.508 36.4504 103.087 35.3906C104.037 34.4311 104.445 33.5093 104.525 32.157C104.444 30.8462 103.762 29.7378 102.853 28.8281C101.243 27.8619 99.478 28.027 97.6609 28.0357C97.2951 28.0349 96.9292 28.0338 96.5634 28.0324C95.5597 28.0294 94.556 28.0309 93.5523 28.0331C92.4693 28.0347 91.3862 28.0322 90.3032 28.0303C88.1822 28.0271 86.0612 28.0278 83.9402 28.0299C82.2166 28.0314 80.493 28.0317 78.7695 28.0309C78.5242 28.0308 78.279 28.0307 78.0263 28.0306C77.5281 28.0303 77.0299 28.0301 76.5316 28.0299C71.8595 28.0279 67.1874 28.0302 62.5153 28.034C58.5054 28.0371 54.4956 28.0366 50.4857 28.0333C45.83 28.0296 41.1743 28.0281 36.5186 28.0302C36.0223 28.0305 35.526 28.0307 35.0297 28.0309C34.7855 28.031 34.5413 28.0311 34.2897 28.0312C32.5678 28.0318 30.846 28.0308 29.1241 28.0292C27.0263 28.0272 24.9284 28.0277 22.8306 28.0315C21.76 28.0333 20.6895 28.034 19.6189 28.0317C18.6392 28.0296 17.6595 28.0308 16.6797 28.0345C16.3251 28.0353 15.9704 28.0349 15.6157 28.0332C15.1338 28.031 14.6522 28.0332 14.1704 28.0365C13.9027 28.0366 13.635 28.0367 13.3592 28.0369C12.1159 28.1848 11.214 28.6918 10.4358 29.6631ZM18.9465 40.3125C19.7758 41.8329 20.5744 43.2889 21.5246 44.7217C21.7503 45.0664 21.9759 45.4112 22.2012 45.7562C22.3194 45.937 22.4377 46.1177 22.5595 46.3039C23.2231 47.3244 23.875 48.3523 24.5275 49.3799C24.6655 49.5969 24.8034 49.8139 24.9455 50.0375C25.2273 50.4809 25.509 50.9244 25.7906 51.3678C26.4774 52.4487 27.1651 53.529 27.8527 54.6094C28.1262 55.039 28.3996 55.4687 28.6731 55.8984C28.8084 56.1111 28.9438 56.3238 29.0832 56.543C30.5871 58.9062 32.091 61.2695 33.5949 63.6328C33.7305 63.8458 33.866 64.0587 34.0056 64.2781C34.2773 64.7051 34.5491 65.1322 34.8208 65.5592C35.5304 66.6744 36.2402 67.7895 36.9503 68.9044C37.0973 69.1352 37.2443 69.3661 37.3957 69.6039C37.6752 70.0428 37.9548 70.4816 38.2344 70.9204C38.9984 72.1204 39.7568 73.3238 40.509 74.5312C41.3297 74.3617 41.8615 74.0311 42.5406 73.5379C47.7255 69.789 54.4745 68.3957 60.7791 69.321C65.044 70.0509 68.9395 71.6023 72.3785 74.2529C72.535 74.3448 72.6915 74.4366 72.8527 74.5312C73.6463 74.2667 73.7081 74.1619 74.1244 73.4811C74.232 73.3077 74.3397 73.1342 74.4506 72.9555C74.5662 72.7649 74.6818 72.5743 74.801 72.3779C75.0551 71.9674 75.3093 71.5569 75.5636 71.1465C75.696 70.9317 75.8284 70.7168 75.9647 70.4955C76.6171 69.4421 77.2839 68.398 77.9504 67.3535C78.0861 67.1403 78.2219 66.9271 78.3618 66.7074C79.5717 64.8074 80.7864 62.9104 82.0013 61.0135C83.4312 58.7801 84.8555 56.5431 86.2783 54.3051C86.959 53.2344 87.6403 52.1641 88.3215 51.0937C88.5928 50.6674 88.8641 50.2411 89.1354 49.8147C90.2505 48.0624 91.3656 46.3101 92.4807 44.5578C92.6651 44.2671 92.6651 44.2671 92.8532 43.9706C93.1347 43.5297 93.4186 43.0903 93.704 42.652C93.8544 42.4199 94.0048 42.1877 94.1598 41.9485C94.2982 41.7365 94.4366 41.5245 94.5792 41.306C94.9232 40.8148 94.9232 40.8148 94.884 40.3125C69.8246 40.3125 44.7652 40.3125 18.9465 40.3125ZM41.1508 79.6683C36.7183 84.9773 35.1884 90.6375 35.5871 97.5C36.171 102.264 38.6334 106.322 41.9152 109.687C42.0521 109.842 42.189 109.996 42.33 110.154C44.174 112.181 46.8835 113.636 49.4152 114.609C49.637 114.696 49.8588 114.782 50.0872 114.871C55.3557 116.708 61.1066 116.239 66.1309 113.92C71.3951 111.355 75.3385 107.011 77.3295 101.497C79.2325 95.8552 78.7858 90.1105 76.2283 84.7641C75.3564 83.0621 74.3633 81.579 73.0871 80.1562C72.8968 79.9438 72.7064 79.7314 72.5103 79.5126C68.7845 75.5737 63.5533 73.1302 58.1247 72.843C51.7475 72.7212 45.5864 74.9684 41.1508 79.6683Z" fill="white"/>
<path d="M105.891 45.9796C106.597 46.6005 107.155 47.2925 107.717 48.0469C107.922 48.3194 108.127 48.5919 108.332 48.8644C108.435 49.0021 108.537 49.1398 108.643 49.2816C109.11 49.9047 109.585 50.521 110.06 51.1377C110.154 51.2594 110.247 51.381 110.343 51.5064C110.933 52.2741 111.528 53.0374 112.127 53.7982C112.345 54.0759 112.345 54.0759 112.567 54.3593C112.851 54.7212 113.136 55.0825 113.422 55.4431C115.97 58.6939 115.97 58.6939 115.876 60.6079C115.652 61.5639 115.097 62.2088 114.338 62.8125C113.503 63.0907 112.829 63.0696 111.95 63.0615C111.652 63.0594 111.354 63.0573 111.046 63.0551C110.818 63.0524 110.589 63.0497 110.353 63.0469C110.354 63.3012 110.355 63.5556 110.356 63.8176C110.377 70.0068 110.392 76.1959 110.402 82.3851C110.407 85.3781 110.413 88.3711 110.424 91.3641C110.433 93.9729 110.439 96.5816 110.442 99.1904C110.443 100.572 110.446 101.953 110.452 103.334C110.459 104.635 110.461 105.935 110.459 107.235C110.46 107.712 110.462 108.189 110.465 108.666C110.47 109.318 110.469 109.97 110.466 110.623C110.469 110.81 110.472 110.998 110.474 111.192C110.46 112.509 110.144 113.506 109.416 114.609C107.924 116.064 106.306 115.832 104.322 115.838C103.839 115.84 103.356 115.847 102.873 115.854C99.4464 115.868 99.4464 115.868 98.0926 114.551C97.2421 113.165 97.1605 111.776 97.172 110.2C97.1716 109.997 97.1712 109.795 97.1708 109.587C97.17 108.911 97.1726 108.236 97.1751 107.561C97.1753 107.076 97.1752 106.591 97.1749 106.106C97.1748 104.791 97.1776 103.476 97.1808 102.161C97.1838 100.786 97.184 99.4104 97.1846 98.0354C97.186 95.4323 97.1899 92.8293 97.1946 90.2263C97.1998 87.2625 97.2024 84.2987 97.2048 81.3348C97.2097 75.2388 97.2179 69.1429 97.2284 63.0469C96.8935 63.0591 96.8935 63.0591 96.5518 63.0716C96.2578 63.0779 95.9638 63.0843 95.661 63.0908C95.2246 63.1031 95.2246 63.1031 94.7793 63.1155C93.5804 63.0166 93.0163 62.6174 92.2332 61.7285C91.7203 60.7026 91.5989 59.9527 91.8377 58.8281C92.2016 58.0414 92.7082 57.397 93.244 56.7188C93.5173 56.3653 93.5173 56.3653 93.796 56.0046C94.2237 55.4545 94.6551 54.9076 95.0888 54.3622C95.8921 53.3515 96.6851 52.3329 97.4774 51.3135C97.616 51.1355 97.7547 50.9576 97.8975 50.7742C98.5369 49.9526 99.1733 49.1291 99.8001 48.2977C99.9589 48.0879 99.9589 48.0879 100.121 47.8739C100.401 47.503 100.68 47.1309 100.958 46.7587C102.305 45.1421 104.118 44.6742 105.891 45.9796ZM103.556 49.9219C103.248 50.2899 102.959 50.6747 102.678 51.0645C102.49 51.322 102.301 51.5793 102.113 51.8362C102.008 51.9787 101.904 52.1211 101.796 52.2678C101.001 53.331 100.173 54.369 99.3494 55.4099C98.424 56.5897 97.5739 57.8035 96.7596 59.0625C96.9687 59.074 97.1777 59.0855 97.3932 59.0973C97.6675 59.1148 97.9418 59.1323 98.2245 59.1504C98.4964 59.1667 98.7683 59.183 99.0484 59.1998C99.7424 59.2887 100.166 59.3833 100.744 59.7656C101.13 60.5384 101.014 61.3987 101.015 62.2483C101.017 62.5647 101.017 62.5647 101.019 62.8875C101.023 63.5986 101.025 64.3098 101.026 65.0209C101.029 65.5289 101.031 66.037 101.034 66.5451C101.04 67.928 101.045 69.3109 101.049 70.6939C101.055 72.1378 101.061 73.5817 101.067 75.0256C101.079 77.7614 101.09 80.4973 101.1 83.2332C101.111 86.3472 101.124 89.4612 101.137 92.5752C101.164 98.9824 101.189 105.39 101.213 111.797C102.914 111.797 104.616 111.797 106.369 111.797C106.371 111.152 106.373 110.508 106.375 109.844C106.393 103.784 106.413 97.7244 106.436 91.6646C106.448 88.5488 106.459 85.4331 106.468 82.3173C106.476 79.6024 106.485 76.8875 106.496 74.1725C106.502 72.7343 106.507 71.2961 106.51 69.8579C106.513 68.5053 106.519 67.1528 106.525 65.8002C106.528 65.3028 106.529 64.8053 106.529 64.3079C106.53 63.6307 106.534 62.9536 106.538 62.2764C106.538 62.0779 106.537 61.8793 106.537 61.6747C106.546 60.7614 106.554 60.3086 107.072 59.5313C107.849 59.2722 108.526 59.2216 109.343 59.165C109.619 59.1454 109.896 59.1258 110.18 59.1055C110.392 59.0913 110.604 59.0771 110.822 59.0625C109.93 57.6397 108.932 56.3142 107.886 55.0028C107.264 54.2209 106.655 53.4316 106.062 52.6273C105.935 52.4548 105.808 52.2823 105.676 52.1046C105.428 51.7668 105.181 51.4282 104.936 51.0887C104.643 50.6914 104.336 50.3054 104.025 49.9219C103.871 49.9219 103.716 49.9219 103.556 49.9219Z" fill="white"/>
<path d="M56.4585 75.9091C61.3938 75.7557 65.8986 77.6542 69.5716 80.8594C69.7158 80.9811 69.8599 81.1029 70.0083 81.2283C73.2772 84.2116 75.174 88.9355 75.431 93.2813C75.4496 93.5341 75.4496 93.5341 75.4686 93.7921C75.6585 98.6989 73.7261 103.236 70.641 106.963C67.5029 110.323 62.9829 112.614 58.3601 112.79C53.0758 112.897 48.4738 111.689 44.4935 108.047C44.2538 107.839 44.2538 107.839 44.0092 107.628C41.827 105.62 40.2771 102.868 39.3373 100.078C39.2626 99.8567 39.188 99.6352 39.1111 99.407C37.7443 94.5509 38.6206 89.5582 40.9742 85.1962C41.5202 84.2258 42.1303 83.347 42.8529 82.5C42.952 82.3677 43.0511 82.2353 43.1532 82.099C45.9364 78.5229 50.6114 76.5623 55.0111 75.9961C55.4934 75.9594 55.9757 75.9376 56.4585 75.9091ZM46.4985 84.4254C44.8938 86.1749 43.8733 87.996 43.0873 90.2344C43.0293 90.399 42.9712 90.5637 42.9115 90.7333C41.8782 94.4 42.6481 98.3674 44.4351 101.632C46.4431 105.121 49.806 107.512 53.6781 108.604C57.5049 109.278 61.3985 108.723 64.702 106.634C68.3087 104.072 70.5728 100.683 71.3423 96.3181C71.7894 92.3448 70.7603 88.7809 68.3998 85.5469C68.146 85.1843 68.146 85.1843 67.8871 84.8145C65.379 81.9682 61.6604 80.2485 57.9261 79.9512C53.564 79.7117 49.5528 81.3355 46.4985 84.4254Z" fill="white"/>
<path d="M57.8527 82.7344C58.4225 83.1727 58.706 83.5035 59.0246 84.1406C59.034 84.6874 59.0347 85.2345 59.0246 85.7813C59.2228 85.8296 59.421 85.8779 59.6252 85.9277C60.7011 86.3581 61.7736 87.0605 62.3058 88.125C62.4391 89.7779 62.4391 89.7779 61.9543 90.586C61.1388 91.0753 60.4056 91.1523 59.4933 90.9375C59.0246 90.5469 58.5558 90.1563 58.0871 89.7656C57.0862 89.5685 56.3702 89.6602 55.509 90.2344C55.4113 90.9375 55.4113 90.9375 55.509 91.6406C56.1319 92.2636 56.5456 92.2158 57.4133 92.3145C59.257 92.5828 60.5074 92.9371 61.6906 94.4238C62.6565 95.8491 62.9947 97.1988 62.7746 98.9063C62.3344 100.569 61.3947 101.716 59.9621 102.656C59.4347 102.817 59.4347 102.817 59.0246 102.891C59.0391 103.137 59.0536 103.384 59.0685 103.638C59.0221 104.581 58.8899 104.966 58.3215 105.703C57.4711 106.27 57.1477 106.219 56.1819 106.061C55.7433 105.938 55.7433 105.938 55.2892 105.571C55.039 104.997 55.0191 104.675 54.9963 104.063C54.9718 103.567 54.9718 103.567 54.8058 103.125C54.3688 102.813 53.9298 102.637 53.4335 102.434C52.5727 102.012 52.011 101.364 51.5246 100.547C51.3412 99.6297 51.439 99.2887 51.9055 98.4815C52.5868 97.8539 52.9459 97.7344 53.8683 97.7344C54.543 98.0564 54.9816 98.3789 55.509 98.9063C56.1178 98.9901 56.1178 98.9901 56.798 98.9795C57.0276 98.9834 57.2573 98.9874 57.4938 98.9914C57.6896 98.9633 57.8854 98.9352 58.0871 98.9063C58.6218 98.2601 58.6218 98.2601 58.5119 97.6026C58.3604 96.9533 58.3604 96.9533 57.6183 96.5625C57.039 96.4897 57.039 96.4897 56.4025 96.4746C54.6935 96.3393 53.532 95.8655 52.3742 94.585C51.2456 93.2263 51.1606 91.8567 51.1858 90.1383C51.3647 88.6968 51.9994 87.58 53.0782 86.6098C53.6291 86.2218 54.1674 85.9941 54.8058 85.7813C54.8119 85.6399 54.8179 85.4985 54.8242 85.3528C54.8866 84.4734 54.9421 83.8328 55.4064 83.0713C56.2215 82.5906 56.9293 82.541 57.8527 82.7344Z" fill="white"/>
</svg>
