<svg width="121" height="120" viewBox="0 0 121 120" fill="none" xmlns="http://www.w3.org/2000/svg">
<g clip-path="url(#clip0_162_16)">
<path d="M28.5997 35.8265C28.8458 35.8251 29.0919 35.8238 29.3455 35.8224C29.7486 35.822 29.7486 35.822 30.1598 35.8216C30.4438 35.8205 30.7278 35.8193 31.0204 35.8181C31.7986 35.8153 32.5768 35.8135 33.355 35.8125C33.8414 35.8118 34.3277 35.8108 34.8141 35.8098C36.3364 35.8066 37.8588 35.8043 39.3811 35.8034C41.1374 35.8024 42.8937 35.7982 44.65 35.7915C46.0085 35.7864 47.367 35.784 48.7256 35.7837C49.5366 35.7835 50.3476 35.7821 51.1586 35.7779C52.0631 35.7733 52.9675 35.7743 53.872 35.7759C54.1402 35.7737 54.4085 35.7715 54.6849 35.7693C54.9317 35.7706 55.1784 35.7719 55.4327 35.7733C55.6464 35.7729 55.8602 35.7726 56.0804 35.7722C56.8114 35.8786 57.2548 36.1339 57.8514 36.5625C58.1704 37.2007 58.1209 37.7107 58.1272 38.425C58.1318 38.8639 58.1318 38.8639 58.1364 39.3116C58.1383 39.6324 58.14 39.9532 58.1416 40.2741C58.1426 40.4354 58.1435 40.5967 58.1445 40.7629C58.1494 41.6165 58.1527 42.4701 58.1549 43.3237C58.1575 44.2054 58.1656 45.0869 58.1749 45.9686C58.181 46.6466 58.183 47.3246 58.1838 48.0026C58.185 48.3276 58.1877 48.6526 58.192 48.9776C58.1977 49.4325 58.197 49.8875 58.1959 50.3425C58.1973 50.6013 58.1987 50.8601 58.2001 51.1268C58.056 51.9712 57.8073 52.2012 57.1483 52.7344C56.5856 52.8515 56.5856 52.8515 55.948 52.8513C55.7055 52.8535 55.4631 52.8558 55.2133 52.8581C54.9486 52.8558 54.6839 52.8535 54.4112 52.8512C54.1313 52.8525 53.8515 52.8538 53.5632 52.8551C52.796 52.8579 52.029 52.8565 51.2618 52.8536C50.4571 52.8517 49.6525 52.8557 48.8478 52.8592C46.974 52.8664 45.1003 52.8668 43.2265 52.8663C40.8466 52.866 38.4668 52.8684 36.0869 52.8777C35.287 52.8806 34.4871 52.882 33.6872 52.8797C32.793 52.8775 31.899 52.8795 31.0048 52.8823C30.7429 52.8805 30.4811 52.8787 30.2113 52.8768C27.782 52.8924 25.641 53.3194 23.867 55.0781C22.2708 57.0574 21.7391 58.8705 21.992 61.4063C22.4505 63.317 23.4792 64.9398 25.1561 65.9931C26.5478 66.7179 27.7494 67.0599 29.3237 67.062C29.5685 67.063 29.8133 67.0639 30.0655 67.0649C30.3316 67.0648 30.5976 67.0646 30.8718 67.0645C31.295 67.0657 31.295 67.0657 31.7267 67.067C32.3389 67.0687 32.9511 67.07 33.5633 67.0708C34.5314 67.0722 35.4995 67.0761 36.4677 67.0805C36.7995 67.082 37.1313 67.0835 37.4631 67.0849C37.7122 67.0861 37.7122 67.0861 37.9664 67.0872C40.2193 67.097 42.4722 67.1048 44.7251 67.1077C46.2464 67.1096 47.7676 67.1149 49.2889 67.1239C50.0935 67.1285 50.8981 67.1315 51.7027 67.1303C52.5994 67.129 53.4959 67.1349 54.3926 67.1414C54.6591 67.1399 54.9257 67.1383 55.2003 67.1367C55.4444 67.1397 55.6885 67.1426 55.9401 67.1456C56.152 67.1461 56.3639 67.1467 56.5823 67.1473C57.3318 67.304 57.6146 67.6116 58.0858 68.2031C58.2032 68.8701 58.2032 68.8701 58.2033 69.6501C58.2055 69.9427 58.2077 70.2352 58.21 70.5366C58.2075 70.855 58.2049 71.1733 58.202 71.4917C58.2021 71.8192 58.2024 72.1466 58.2031 72.4741C58.2034 73.1598 58.2004 73.8453 58.1951 74.5309C58.1885 75.4089 58.1891 76.2867 58.1921 77.1648C58.1937 77.8408 58.1919 78.5167 58.189 79.1927C58.1879 79.5164 58.1878 79.8401 58.1888 80.1638C58.1894 80.6164 58.1851 81.0691 58.1805 81.5218C58.1792 81.7792 58.1779 82.0366 58.1766 82.3018C58.0744 83.0522 57.9121 83.3722 57.3826 83.9063C56.6868 84.1382 56.2324 84.1706 55.5064 84.172C55.264 84.173 55.0216 84.174 54.7719 84.175C54.373 84.1749 54.373 84.1749 53.9661 84.1747C53.6859 84.1755 53.4057 84.1763 53.117 84.1771C52.3474 84.1789 51.5777 84.1797 50.8081 84.1798C50.3259 84.18 49.8437 84.1805 49.3615 84.1811C47.6752 84.1833 45.9889 84.1843 44.3026 84.1841C42.7382 84.1839 41.1738 84.1864 39.6094 84.1901C38.2618 84.1932 36.9142 84.1944 35.5666 84.1943C34.7639 84.1942 33.9612 84.1949 33.1585 84.1974C24.8995 84.2187 18.0977 82.9413 11.9139 77.1094C11.7547 76.968 11.5954 76.8266 11.4314 76.6809C7.61791 73.1513 5.11596 67.4017 4.85345 62.2385C4.64854 55.1921 6.33907 48.7623 11.2364 43.504C13.1767 41.4766 15.2346 39.9469 17.6854 38.584C17.8282 38.5028 17.9711 38.4216 18.1183 38.3379C19.1815 37.7683 20.0804 37.5596 21.2889 37.5C21.992 37.8369 21.992 37.8369 22.4608 38.4375C22.6121 39.0925 22.6444 39.664 22.4608 40.3125C21.7409 41.2435 20.7798 41.6494 19.7361 42.1289C18.1174 42.9086 16.7597 43.7788 15.4295 45C15.238 45.1674 15.0464 45.3348 14.8491 45.5072C11.1666 48.916 9.03346 53.8071 8.80017 58.7979C8.70596 62.3104 9.19421 65.4796 10.742 68.6719C10.9015 69.0009 10.9015 69.0009 11.0643 69.3366C11.876 70.9114 12.8544 72.2651 14.0233 73.5938C14.1795 73.7723 14.3357 73.9509 14.4966 74.1348C18.0096 77.8955 23.1909 79.9839 28.2843 80.1934C28.5998 80.1981 28.9152 80.2017 29.2306 80.2044C29.4046 80.2067 29.5786 80.209 29.7579 80.2114C30.326 80.2188 30.8941 80.2246 31.4622 80.2304C31.8589 80.2353 32.2556 80.2402 32.6523 80.2452C33.691 80.2581 34.7298 80.2697 35.7686 80.281C37.0178 80.2949 38.267 80.3104 39.5161 80.3256C41.4091 80.3485 43.3021 80.3694 45.1951 80.3906C45.1951 77.2969 45.1951 74.2031 45.1951 71.0156C43.9785 71.0238 42.7618 71.032 41.5083 71.0404C40.7318 71.044 39.9553 71.0473 39.1787 71.05C37.9496 71.0542 36.7204 71.0591 35.4913 71.0687C34.4989 71.0764 33.5066 71.0805 32.5142 71.0824C32.138 71.0836 31.7617 71.0862 31.3855 71.09C27.2398 71.1305 23.9908 70.5119 20.8888 67.5879C18.7223 65.3439 17.8525 62.6218 17.8974 59.521C18.0447 56.2601 19.3863 53.8348 21.699 51.6065C24.7041 49.0294 28.103 48.9133 31.8742 48.9386C32.2597 48.9395 32.6452 48.9402 33.0307 48.9406C34.0379 48.9424 35.045 48.947 36.0522 48.9522C37.2646 48.9579 38.4771 48.96 39.6895 48.9627C41.5248 48.9673 43.3599 48.9762 45.1951 48.9844C45.1951 45.8906 45.1951 42.7969 45.1951 39.6094C43.1812 39.6298 43.1812 39.6298 41.1265 39.6506C40.2763 39.6566 39.4261 39.6622 38.5759 39.6666C37.2261 39.6736 35.8764 39.6819 34.5267 39.6978C33.4386 39.7105 32.3506 39.7175 31.2625 39.7206C30.8472 39.7227 30.4319 39.727 30.0167 39.7333C29.4352 39.7418 28.8542 39.743 28.2728 39.7424C28.1008 39.7466 27.9288 39.7509 27.7517 39.7552C26.8761 39.7463 26.5129 39.6722 25.8612 39.0682C25.3792 38.2084 25.4821 37.7324 25.742 36.7969C26.4404 35.7993 27.4652 35.8302 28.5997 35.8265ZM48.7108 39.6094C48.7108 42.7031 48.7108 45.7969 48.7108 48.9844C50.567 48.9844 52.4233 48.9844 54.3358 48.9844C54.3358 45.8906 54.3358 42.7969 54.3358 39.6094C52.4795 39.6094 50.6233 39.6094 48.7108 39.6094ZM48.7108 71.0156C48.7108 74.1094 48.7108 77.2031 48.7108 80.3906C50.567 80.3906 52.4233 80.3906 54.3358 80.3906C54.3358 77.2969 54.3358 74.2031 54.3358 71.0156C52.4795 71.0156 50.6233 71.0156 48.7108 71.0156Z" fill="white"/>
<path d="M109.267 43.5205C110.707 44.7087 111.834 46.4498 112.226 48.2812C112.276 49.6672 112.215 51.055 112.141 52.4396C111.969 54.3276 111.969 54.3276 112.565 56.0433C112.982 56.3891 113.408 56.6676 113.867 56.9531C116.571 60.258 116.596 63.8434 116.567 67.912C116.562 68.7473 116.567 69.5821 116.573 70.4173C116.572 70.9528 116.571 71.4882 116.569 72.0236C116.571 72.271 116.573 72.5183 116.575 72.7732C116.556 74.2588 116.369 75.4042 115.507 76.6406C114.272 77.8446 113.088 78.1172 111.404 78.115C111.231 78.1165 111.057 78.1181 110.879 78.1197C110.308 78.1242 109.738 78.1251 109.167 78.1256C108.769 78.1271 108.371 78.1287 107.972 78.1303C107.137 78.1331 106.303 78.134 105.468 78.1337C104.402 78.1337 103.335 78.1401 102.269 78.1481C101.446 78.1534 100.623 78.1543 99.8002 78.1541C99.4073 78.1546 99.0143 78.1567 98.6214 78.1603C94.3654 78.196 94.3654 78.196 92.8825 76.7618C92.0211 75.7929 91.8073 75.0409 91.7941 73.7778C91.7911 73.5281 91.7881 73.2783 91.785 73.0211C91.7824 72.6157 91.7824 72.6157 91.7797 72.2021C91.7778 71.9231 91.7759 71.6441 91.774 71.3566C91.7707 70.7648 91.7682 70.173 91.7664 69.5811C91.7624 68.6819 91.7521 67.783 91.7417 66.8838C91.7393 66.308 91.7373 65.7321 91.7358 65.1562C91.7317 64.8898 91.7276 64.6233 91.7233 64.3488C91.7316 61.256 92.9018 58.4533 95.0582 56.2207C95.7476 55.5469 95.7476 55.5469 96.2887 55.5469C96.2131 55.2819 96.1376 55.0169 96.0598 54.7439C95.3195 51.7639 95.5544 48.2319 97.1108 45.5667C99.9482 41.5877 105.248 40.7722 109.267 43.5205ZM100.507 47.3437C99.3196 49.2847 99.2543 51.6103 99.6889 53.8037C100.162 55.2397 101.066 56.0775 102.353 56.792C103.414 57.2789 104.295 57.4068 105.43 57.0328C106.653 56.4966 107.5 55.7163 108.242 54.6094C108.586 53.5769 108.529 52.5708 108.535 51.4892C108.54 51.2695 108.544 51.0497 108.549 50.8232C108.558 49.3417 108.417 48.2923 107.387 47.1496C105.176 45.3291 102.64 45.0964 100.507 47.3437ZM98.1637 58.5937C97.9056 58.8533 97.6528 59.1181 97.402 59.3848C97.2606 59.5316 97.1192 59.6784 96.9735 59.8297C95.7218 61.6056 95.4483 63.3637 95.4858 65.4941C95.4865 65.7399 95.4873 65.9857 95.4881 66.239C95.4905 66.7537 95.4952 67.2683 95.502 67.7829C95.5124 68.5744 95.5164 69.3658 95.5192 70.1573C95.5223 70.6586 95.5258 71.1598 95.5297 71.6611C95.5314 71.8986 95.5332 72.1361 95.535 72.3808C95.538 72.5985 95.541 72.8161 95.5441 73.0404C95.5464 73.2326 95.5487 73.4249 95.5511 73.623C95.5379 74.0656 95.5379 74.0656 95.8199 74.2969C96.3363 74.3202 96.8535 74.3269 97.3704 74.3272C97.6133 74.3278 97.6133 74.3278 97.8612 74.3284C98.399 74.3295 98.9369 74.3288 99.4747 74.328C99.8469 74.3281 100.219 74.3284 100.591 74.3287C101.372 74.329 102.153 74.3285 102.934 74.3274C103.938 74.3261 104.941 74.3269 105.944 74.3283C106.713 74.3291 107.482 74.3288 108.251 74.3282C108.621 74.3281 108.991 74.3283 109.361 74.3288C109.877 74.3294 110.394 74.3285 110.91 74.3272C111.205 74.327 111.499 74.3268 111.802 74.3266C112.438 74.372 112.438 74.372 112.695 74.0625C112.722 73.7297 112.732 73.3957 112.736 73.0619C112.739 72.8489 112.742 72.636 112.746 72.4165C112.747 72.1842 112.749 71.9518 112.751 71.7123C112.754 71.3544 112.754 71.3544 112.757 70.9893C112.76 70.4819 112.762 69.9745 112.764 69.4672C112.768 68.6971 112.778 67.9272 112.789 67.1571C112.791 66.6638 112.793 66.1705 112.795 65.6772C112.801 65.335 112.801 65.335 112.807 64.9859C112.801 63.0027 112.277 61.2148 111.04 59.6338C110.869 59.4085 110.869 59.4085 110.695 59.1788C110.342 58.7657 110.342 58.7657 109.648 58.5937C109.256 58.9048 108.866 59.2177 108.476 59.5312C107.44 60.0736 106.367 60.5859 105.195 60.7031C105.052 60.7179 104.91 60.7327 104.763 60.748C102.35 60.8835 100.104 59.9636 98.1637 58.5937Z" fill="white"/>
<path d="M108.477 0.937491C110.403 2.33245 111.48 3.85359 112.227 6.09374C112.222 6.62195 112.202 7.15006 112.176 7.6776C112.165 7.9968 112.154 8.31601 112.144 8.63525C112.129 9.13564 112.11 9.63485 112.081 10.1347C111.935 12.1688 111.935 12.1688 112.672 14.0092C113.205 14.5281 113.762 14.9955 114.336 15.4687C115.427 16.8417 116.229 18.6046 116.289 20.3668C116.211 20.8594 116.211 20.8594 115.728 21.5918C114.917 22.1094 114.575 22.2274 113.633 22.0312C112.538 21.249 112.226 20.3193 111.785 19.1052C111.383 18.1985 110.8 17.5881 110.117 16.875C109.127 17.2265 108.252 17.7248 107.348 18.2529C105.628 19.1361 103.031 19.0281 101.211 18.4717C100.237 18.0872 99.4529 17.5204 98.6331 16.875C97.8653 17.2007 97.4579 17.5544 96.9631 18.2226C96.7882 18.4529 96.7882 18.4529 96.6098 18.6877C95.725 20.1539 95.7579 21.5631 95.7748 23.2233C95.7753 23.443 95.7757 23.6627 95.7762 23.8891C95.7787 24.7054 95.7852 25.5216 95.7913 26.3379C95.8009 28.1651 95.8106 29.9924 95.8206 31.875C101.312 31.875 106.803 31.875 112.461 31.875C112.539 30.0961 112.616 28.3172 112.696 26.4844C113.399 25.3125 113.399 25.3125 113.867 25.0781C114.733 24.9628 115.151 25.0021 115.899 25.4654C116.892 26.5203 116.593 28.1734 116.563 29.5166C116.564 29.9605 116.564 29.9605 116.565 30.4134C116.547 32.0673 116.518 33.3775 115.34 34.6555C115.202 34.7675 115.064 34.8796 114.922 34.9951C114.784 35.1102 114.647 35.2253 114.505 35.3439C113.61 35.968 112.671 35.8984 111.627 35.9046C111.357 35.9074 111.357 35.9074 111.082 35.9104C110.486 35.9162 109.89 35.9201 109.294 35.9235C109.091 35.9247 108.887 35.926 108.677 35.9272C107.597 35.9335 106.517 35.938 105.438 35.9414C104.546 35.9445 103.654 35.9511 102.762 35.9607C101.684 35.9722 100.606 35.978 99.5276 35.9797C99.1177 35.9812 98.7078 35.9848 98.2979 35.9904C94.3294 36.0418 94.3294 36.0418 93.1032 35.0418C91.6887 33.5208 91.6973 32.1744 91.7117 30.1657C91.7108 29.8886 91.7099 29.6114 91.709 29.3259C91.7083 28.7407 91.71 28.1554 91.714 27.5701C91.719 26.6818 91.714 25.7939 91.708 24.9055C91.7086 24.3347 91.7098 23.7639 91.7117 23.193C91.7098 22.9307 91.7079 22.6684 91.7059 22.3982C91.7381 19.6471 92.5197 17.4196 94.1799 15.2344C94.3443 15.012 94.5087 14.7896 94.678 14.5605C95.1026 14.0793 95.5251 13.7189 96.0549 13.3594C96.0175 13.0953 95.98 12.8313 95.9414 12.5592C95.5141 9.11491 95.5031 5.67038 97.6956 2.81249C100.21 -0.194206 105.051 -1.24651 108.477 0.937491ZM101.184 4.63531C99.8549 6.07164 99.4881 7.41459 99.4973 9.36034C99.4936 9.51911 99.4898 9.67788 99.4859 9.84145C99.4841 11.6834 100.161 12.9822 101.446 14.2969C102.632 15.1243 103.797 15.1862 105.196 15C106.639 14.6174 107.395 13.7932 108.183 12.5638C108.69 11.5094 108.672 10.5113 108.638 9.36034C108.641 9.13964 108.645 8.91894 108.648 8.69155C108.627 6.83626 108.039 5.6969 106.778 4.36523C104.942 3.28058 102.875 3.21569 101.184 4.63531Z" fill="white"/>
<path d="M108.743 85.3711C110.465 86.5257 111.679 88.2409 112.227 90.2344C112.247 91.0275 112.247 91.0275 112.198 91.8869C112.187 92.2038 112.176 92.5207 112.165 92.8377C112.146 93.3303 112.124 93.8219 112.093 94.3139C111.94 96.3247 111.94 96.3247 112.671 98.1411C113.222 98.6848 113.222 98.6848 113.812 99.1643C114.556 99.7957 114.849 100.398 115.259 101.279C115.387 101.546 115.515 101.812 115.646 102.087C116.393 103.902 116.518 105.404 116.516 107.359C116.517 107.629 116.518 107.899 116.519 108.178C116.52 108.747 116.521 109.316 116.52 109.885C116.519 110.755 116.524 111.624 116.53 112.494C116.531 113.048 116.531 113.602 116.531 114.156C116.533 114.415 116.535 114.675 116.537 114.942C116.528 116.483 116.435 117.624 115.331 118.796C115.122 118.964 115.122 118.964 114.907 119.136C114.767 119.251 114.627 119.366 114.482 119.485C113.637 120.109 112.839 120.046 111.826 120.056C111.647 120.058 111.467 120.06 111.283 120.062C110.903 120.065 110.524 120.067 110.144 120.069C109.565 120.073 108.985 120.083 108.405 120.094C108.037 120.096 107.668 120.098 107.299 120.1C107.126 120.104 106.953 120.108 106.775 120.112C105.966 120.109 105.512 120.06 104.852 119.576C104.326 118.824 104.365 118.317 104.492 117.422C105.003 116.738 105.283 116.51 106.131 116.36C106.532 116.355 106.532 116.355 106.941 116.35C107.232 116.343 107.522 116.337 107.822 116.33C108.125 116.328 108.428 116.326 108.74 116.323C109.342 116.313 109.943 116.303 110.544 116.291C110.811 116.289 111.077 116.286 111.352 116.283C111.984 116.293 111.984 116.293 112.461 116.016C112.485 114.527 112.501 113.039 112.513 111.551C112.517 111.046 112.524 110.54 112.532 110.035C112.543 109.305 112.549 108.575 112.553 107.845C112.558 107.622 112.562 107.399 112.567 107.17C112.568 104.701 111.842 102.78 110.117 101.016C109.421 101.261 108.882 101.529 108.272 101.953C106.416 103.141 104.272 103.062 102.149 102.891C100.779 102.554 99.6701 101.983 98.6331 101.016C97.4081 101.497 96.8304 102.442 96.2689 103.584C95.7057 104.88 95.6794 106.086 95.6777 107.484C95.6739 107.736 95.67 107.988 95.666 108.247C95.6547 109.045 95.6496 109.842 95.6448 110.64C95.6382 111.183 95.6312 111.727 95.6237 112.271C95.6065 113.597 95.5943 114.923 95.5862 116.25C95.7304 116.251 95.8746 116.252 96.0231 116.253C96.6785 116.261 97.3333 116.277 97.9885 116.294C98.3289 116.296 98.3289 116.296 98.6761 116.298C100.354 116.35 100.354 116.35 101.135 117.029C101.56 117.887 101.464 118.386 101.211 119.297C100.81 119.851 100.602 119.984 99.9201 120.098C99.1637 120.111 98.4081 120.119 97.6516 120.117C97.391 120.124 97.1305 120.13 96.862 120.137C95.4315 120.141 94.379 120.029 93.1698 119.241C91.7145 117.725 91.6972 116.323 91.7117 114.306C91.7108 114.029 91.7099 113.752 91.709 113.467C91.7083 112.881 91.71 112.296 91.714 111.711C91.719 110.822 91.714 109.934 91.708 109.046C91.7086 108.475 91.7098 107.904 91.7117 107.334C91.7098 107.071 91.7079 106.809 91.7059 106.539C91.7372 103.865 92.454 101.452 94.1799 99.375C94.6818 98.907 95.1844 98.4518 95.7171 98.0191C96.1545 97.3469 96.0409 96.9084 95.9052 96.1408C95.4218 93.1945 95.6402 90.0559 97.268 87.5216C100.104 83.7502 104.729 83.0227 108.743 85.3711ZM100.552 89.5019C99.2393 91.3772 99.3265 93.7982 99.663 95.9939C100.062 97.3047 101.058 98.1478 102.149 98.9062C103.38 99.3165 104.741 99.3884 105.975 98.9447C107.171 98.2658 107.93 97.3487 108.477 96.0937C108.637 95.228 108.641 94.394 108.623 93.5156C108.628 93.2938 108.632 93.0721 108.637 92.8436C108.626 91.3058 108.317 90.2386 107.305 89.0625C106.114 88.0035 105.055 87.7112 103.464 87.7926C102.225 87.9908 101.392 88.5764 100.552 89.5019Z" fill="white"/>
<path d="M68.6331 72.7881C68.934 72.7834 69.2349 72.7787 69.545 72.7739C69.8338 72.7741 70.1226 72.7742 70.4202 72.7744C70.6843 72.7739 70.9483 72.7735 71.2204 72.773C71.9143 72.8906 71.9143 72.8906 72.4198 73.2028C73.1179 74.2133 72.9742 75.2531 72.9583 76.4518C72.9584 76.7194 72.9585 76.987 72.9587 77.2627C72.958 78.148 72.9507 79.033 72.9434 79.9182C72.9416 80.5317 72.9403 81.1452 72.9394 81.7586C72.9365 83.2087 72.9288 84.6588 72.9194 86.1089C72.9089 87.76 72.9037 89.4111 72.899 91.0622C72.8892 94.4582 72.8727 97.8541 72.8518 101.25C73.0078 101.247 73.1638 101.245 73.3244 101.242C74.9479 101.216 76.5712 101.199 78.1948 101.186C78.8007 101.18 79.4065 101.172 80.0124 101.162C80.8833 101.147 81.754 101.141 82.6251 101.136C83.0313 101.126 83.0313 101.126 83.4457 101.117C85.3188 101.117 85.3188 101.117 86.2742 101.79C86.68 102.422 86.68 102.422 86.68 103.271C86.4584 104.019 86.3603 104.321 85.7425 104.766C85.1033 105.085 84.5955 105.032 83.8799 105.034C83.4411 105.036 83.4411 105.036 82.9934 105.039C82.6726 105.039 82.3517 105.039 82.0309 105.039C81.7028 105.04 81.3747 105.041 81.0465 105.042C80.3581 105.043 79.6697 105.044 78.9813 105.043C78.0996 105.043 77.218 105.047 76.3364 105.051C75.6584 105.053 74.9804 105.054 74.3024 105.054C73.9774 105.054 73.6524 105.055 73.3274 105.057C72.8725 105.059 72.4175 105.058 71.9625 105.057C71.7037 105.057 71.4449 105.058 71.1782 105.058C70.4989 104.999 70.1239 104.925 69.5706 104.531C69.1329 103.821 69.0437 103.285 69.0455 102.458C69.0448 102.23 69.0442 102.002 69.0435 101.767C69.0452 101.518 69.0469 101.269 69.0486 101.013C69.0486 100.75 69.0485 100.487 69.0484 100.216C69.0487 99.3461 69.0524 98.4762 69.0561 97.6062C69.0569 97.0033 69.0576 96.4003 69.0581 95.7973C69.0597 94.3722 69.0634 92.947 69.0681 91.5218C69.0733 89.899 69.0759 88.2763 69.0783 86.6535C69.0832 83.3159 69.0914 79.9783 69.1018 76.6406C68.8589 76.6461 68.616 76.6515 68.3658 76.6571C68.0447 76.6615 67.7237 76.6658 67.4026 76.6699C67.2428 76.6739 67.083 76.6778 66.9183 76.6818C66.0436 76.6903 65.3814 76.6753 64.6487 76.1719C64.1608 75.5446 64.1809 75.2068 64.2093 74.3994C64.4143 73.5938 64.4143 73.5938 64.8025 73.1982C65.9425 72.56 67.3593 72.7811 68.6331 72.7881Z" fill="white"/>
<path d="M71.9548 14.9394C72.2473 14.9379 72.5398 14.9364 72.8412 14.9349C73.1596 14.9357 73.478 14.9367 73.7964 14.9378C74.1239 14.9374 74.4513 14.937 74.7788 14.9364C75.4644 14.9357 76.15 14.9367 76.8356 14.9389C77.7136 14.9416 78.5915 14.94 79.4694 14.9372C80.1454 14.9355 80.8214 14.9361 81.4974 14.9373C81.8211 14.9376 82.1447 14.9372 82.4684 14.9361C82.9211 14.9349 83.3738 14.9371 83.8264 14.9394C84.0838 14.9397 84.3412 14.9401 84.6064 14.9405C85.2716 14.9999 85.6535 15.1108 86.2109 15.4688C86.6988 16.096 86.6787 16.4338 86.6504 17.2412C86.4453 18.0469 86.4453 18.0469 86.043 18.4438C85.3909 18.8169 84.9882 18.8351 84.2396 18.8298C83.8596 18.8298 83.8596 18.8298 83.472 18.8297C83.2 18.826 82.9279 18.8224 82.6477 18.8187C82.3681 18.8177 82.0885 18.8167 81.8005 18.8157C80.9073 18.8117 80.0142 18.8029 79.1211 18.794C78.5156 18.7904 77.9102 18.7872 77.3047 18.7843C75.8203 18.7766 74.3359 18.7648 72.8516 18.75C72.8524 18.8905 72.8533 19.0309 72.8542 19.1757C72.8749 22.5929 72.8904 26.0102 72.9001 29.4275C72.905 31.0801 72.9116 32.7327 72.9223 34.3853C72.9326 35.9794 72.9381 37.5735 72.9405 39.1676C72.9422 39.7765 72.9456 40.3855 72.9507 40.9943C72.9575 41.8457 72.9584 42.6969 72.958 43.5482C72.963 43.9278 72.963 43.9278 72.9682 44.315C72.9588 46.0167 72.9588 46.0167 72.4195 46.7973C71.7281 47.2242 71.2299 47.227 70.4199 47.2257C69.9867 47.2259 69.9867 47.2259 69.5447 47.2261C69.2438 47.2214 68.9428 47.2168 68.6328 47.2119C68.3319 47.2136 68.031 47.2153 67.7209 47.217C65.5169 47.202 65.5169 47.202 64.8022 46.8018C64.1956 46.1837 64.2093 45.6088 64.1797 44.7656C64.3593 44.1615 64.5063 43.9258 65.0229 43.5709C65.8124 43.2743 66.5721 43.3097 67.4023 43.3301C67.5658 43.3322 67.7292 43.3343 67.8976 43.3365C68.299 43.342 68.7003 43.3504 69.1016 43.3594C69.1011 43.2213 69.1007 43.0833 69.1003 42.9411C69.0899 39.5825 69.0821 36.2238 69.0773 32.8652C69.0749 31.241 69.0716 29.6168 69.0662 27.9926C69.061 26.4258 69.0583 24.8591 69.0571 23.2923C69.0562 22.6939 69.0545 22.0954 69.052 21.497C69.0486 20.6603 69.0481 19.8236 69.0483 18.9869C69.0467 18.7382 69.045 18.4896 69.0432 18.2334C69.0439 18.0053 69.0445 17.7772 69.0452 17.5422C69.0448 17.3444 69.0443 17.1465 69.0439 16.9426C69.1077 16.3492 69.2584 15.9748 69.5703 15.4688C70.3344 14.9267 71.0367 14.9407 71.9548 14.9394Z" fill="white"/>
<path d="M67.2402 58.0873C67.4353 58.0861 67.6305 58.0849 67.8316 58.0837C68.4789 58.0803 69.1262 58.0787 69.7736 58.0774C70.2226 58.0761 70.6715 58.0747 71.1205 58.0734C72.0627 58.0709 73.0049 58.0695 73.9471 58.0687C75.1551 58.0674 76.363 58.0618 77.571 58.0551C78.4987 58.0508 79.4264 58.0495 80.3541 58.0492C80.7994 58.0485 81.2448 58.0466 81.6902 58.0435C82.313 58.0395 82.9357 58.04 83.5585 58.0415C83.8351 58.0382 83.8351 58.0382 84.1172 58.0349C84.8676 58.0407 85.4163 58.0763 86.0847 58.4324C86.6641 59.0683 86.6652 59.6277 86.6797 60.4688C86.3643 61.1596 86.1909 61.5335 85.5078 61.875C84.8763 61.9005 84.2508 61.9119 83.6192 61.9128C83.424 61.914 83.2289 61.9151 83.0278 61.9163C82.3805 61.9197 81.7332 61.9213 81.0858 61.9226C80.6368 61.924 80.1878 61.9253 79.7388 61.9267C78.7966 61.9291 77.8545 61.9305 76.9123 61.9313C75.7043 61.9326 74.4964 61.9382 73.2884 61.9449C72.3607 61.9493 71.433 61.9505 70.5053 61.9509C70.0599 61.9516 69.6146 61.9535 69.1692 61.9565C68.5464 61.9605 67.9237 61.9601 67.3008 61.9586C67.0243 61.9618 67.0243 61.9618 66.7421 61.9651C65.9918 61.9594 65.443 61.9238 64.7747 61.5677C64.1953 60.9318 64.1942 60.3723 64.1797 59.5313C64.8827 57.9913 65.6873 58.0895 67.2402 58.0873Z" fill="white"/>
</g>
<defs>
<clipPath id="clip0_162_16">
<rect width="120" height="120" fill="white" transform="translate(0.664062)"/>
</clipPath>
</defs>
</svg>
