<svg width="121" height="120" viewBox="0 0 121 120" fill="none" xmlns="http://www.w3.org/2000/svg">
<path d="M95.7227 14.0625C96.0807 14.3208 96.0807 14.3208 96.4459 14.5844C101.668 18.4266 105.66 23.2122 108.848 28.8281C108.929 28.9712 109.01 29.1143 109.094 29.2618C114.539 39.0208 115.205 50.7607 112.363 61.4063C111.551 64.2058 110.468 66.8516 109.081 69.4134C108.856 69.8283 108.637 70.2466 108.419 70.665C103.265 80.1829 93.9638 87.2653 83.7268 90.5072C72.4573 93.8504 60.6134 92.5544 50.2593 87.0751C48.5296 86.1328 46.9006 85.0985 45.332 83.9063C43.9822 84.9293 43.9822 84.9293 42.9883 86.25C43.0596 86.4271 43.1309 86.6041 43.2043 86.7865C43.7167 88.075 43.635 89.6302 43.2373 90.9522C41.9301 93.7795 38.7313 96.1788 36.5649 98.3542C36.3704 98.5497 36.1759 98.7452 35.9754 98.9466C34.9479 99.979 33.9197 101.011 32.8908 102.042C31.8321 103.103 30.7761 104.167 29.7207 105.232C28.9043 106.054 28.0858 106.875 27.2667 107.695C26.8765 108.086 26.487 108.478 26.0984 108.871C25.5546 109.421 25.0078 109.967 24.4603 110.513C24.3024 110.674 24.1446 110.835 23.9819 111.001C22.4871 112.479 20.8945 113.599 18.7387 113.699C15.3347 113.542 13.1971 110.651 10.9285 108.4C10.6791 108.153 10.4287 107.908 10.1773 107.663C8.32998 105.866 6.80415 104.314 6.63818 101.604C6.74138 98.8395 8.80214 96.928 10.6458 95.0906C10.8286 94.9067 11.0113 94.7227 11.1996 94.5332C11.7992 93.9304 12.4005 93.3293 13.002 92.7283C13.4218 92.3076 13.8414 91.8869 14.2611 91.4662C15.1388 90.5868 16.0173 89.7082 16.8965 88.8303C17.9101 87.8181 18.9215 86.8038 19.9319 85.7884C20.9082 84.8075 21.8865 83.8286 22.8655 82.8504C23.2801 82.4356 23.6941 82.0204 24.1076 81.6045C24.6858 81.0234 25.2662 80.4446 25.8473 79.8663C26.1014 79.6095 26.1014 79.6095 26.3606 79.3475C27.9272 77.797 29.3397 76.8469 31.5918 76.8311C31.8063 76.8278 32.0208 76.8244 32.2418 76.821C32.9102 76.875 32.9102 76.875 34.3164 77.3438C35.0125 76.6477 35.7086 75.9516 36.4258 75.2344C35.8327 74.1732 35.205 73.1646 34.5215 72.1582C28.3559 62.7314 26.673 50.9 28.9413 39.9738C29.8682 35.8994 31.3699 32.0187 33.3789 28.3594C33.4604 28.2108 33.542 28.0623 33.626 27.9092C39.0622 18.1513 48.5326 11.0015 59.2088 7.91544C71.4182 4.53806 85.4033 6.47561 95.7227 14.0625ZM41.6846 23.3643C34.4879 31.2767 31.6255 41.5503 31.9296 52.0627C32.097 55.586 32.8716 59.0382 34.082 62.3438C34.1854 62.6308 34.2887 62.9178 34.3951 63.2135C35.8478 67.0419 37.8136 70.6167 40.4688 73.7467C40.9463 74.3872 41.057 74.8793 41.0135 75.6784C40.7384 76.6871 39.9691 77.3366 39.2383 78.0469C39.0646 78.2233 38.8908 78.3998 38.7119 78.5816C38.2663 79.0327 37.8169 79.4789 37.3633 79.9219C37.7234 80.7846 38.2496 81.3253 38.916 81.9727C39.1076 82.16 39.2991 82.3473 39.4965 82.5403C39.6433 82.6817 39.7901 82.8231 39.9414 82.9688C40.9483 82.5821 41.5832 81.8397 42.3145 81.0791C43.8637 79.4797 43.8637 79.4797 45.04 79.3744C46.1102 79.3903 46.6168 79.7719 47.4268 80.4785C54.9853 86.7301 65.2161 89.0335 74.8389 88.3082C83.8844 87.3588 91.6137 83.3535 98.3008 77.3438C98.4591 77.2027 98.6174 77.0616 98.7805 76.9162C102.185 73.6985 104.818 69.3928 106.738 65.1563C106.804 65.0126 106.869 64.8689 106.936 64.7208C110.918 55.7746 111.105 45.2921 107.822 36.1038C107.485 35.2292 107.124 34.3694 106.738 33.5156C106.672 33.3681 106.606 33.2206 106.538 33.0686C102.343 23.8444 94.5522 16.4844 85.1025 12.8174C80.6019 11.1365 75.891 10.2165 71.084 10.2393C70.7881 10.2406 70.4921 10.2419 70.1872 10.2433C59.0627 10.3862 49.268 15.4234 41.6846 23.3643ZM28.8161 82.6658C28.5249 82.9539 28.5249 82.9539 28.2278 83.2478C27.5862 83.8844 26.9499 84.5259 26.3138 85.1679C25.8699 85.6114 25.4258 86.0547 24.9815 86.4977C24.0505 87.4272 23.1224 88.3596 22.196 89.2937C21.1257 90.3728 20.0509 91.4472 18.9736 92.5192C17.9365 93.5514 16.9027 94.5869 15.8703 95.6239C15.4311 96.0645 14.9911 96.5042 14.5502 96.9431C13.9345 97.5569 13.3228 98.1743 12.712 98.7929C12.4371 99.0647 12.4371 99.0647 12.1567 99.342C11.1864 100.331 11.1864 100.331 10.6321 101.581C10.6472 102.318 10.7687 102.518 11.2817 103.038C11.434 103.197 11.5863 103.355 11.7432 103.519C11.922 103.698 12.1009 103.878 12.2852 104.063C12.5997 104.395 12.9142 104.728 13.2284 105.061C13.6879 105.544 14.1544 106.019 14.6219 106.494C14.8624 106.74 15.1014 106.987 15.339 107.235C15.6873 107.599 16.04 107.959 16.394 108.317C16.6008 108.53 16.8077 108.742 17.0207 108.961C17.8535 109.587 18.2712 109.756 19.3164 109.688C19.7631 109.389 19.7631 109.389 20.1909 108.978C20.4374 108.753 20.4374 108.753 20.689 108.523C21.49 107.764 22.2778 106.993 23.0572 106.211C23.2331 106.036 23.409 105.86 23.5903 105.68C24.1654 105.105 24.7398 104.53 25.314 103.955C25.7154 103.554 26.1167 103.153 26.5181 102.752C27.356 101.915 28.1933 101.077 29.0304 100.238C30.1052 99.1623 31.181 98.0873 32.2571 97.0126C33.0845 96.186 33.9113 95.359 34.738 94.5317C35.1347 94.1349 35.5315 93.7382 35.9286 93.3416C36.4812 92.7896 37.0331 92.2368 37.5848 91.6839C37.7497 91.5194 37.9147 91.3549 38.0847 91.1854C38.2341 91.0353 38.3836 90.8852 38.5376 90.7305C38.668 90.6 38.7984 90.4694 38.9328 90.335C39.359 89.8676 39.4708 89.5411 39.5898 88.916C39.2981 86.9467 36.914 85.2955 35.531 83.9185C35.1764 83.5651 34.823 83.2105 34.4698 82.8557C34.2438 82.63 34.0179 82.4043 33.7918 82.1787C33.5887 81.9758 33.3856 81.773 33.1763 81.564C32.6188 81.0402 32.3424 80.8878 31.5987 80.7318C30.3327 80.9342 29.6925 81.7739 28.8161 82.6658Z" fill="white"/>
<path d="M93.1205 22.5497C99.4271 27.9156 103.407 34.805 105.097 42.8906C105.15 43.1347 105.203 43.3789 105.258 43.6304C106.742 51.9022 104.828 61.1938 100.176 68.2031C98.3147 70.876 96.3546 73.3765 93.8474 75.4687C93.6679 75.6274 93.4885 75.786 93.3036 75.9494C89.1544 79.5213 83.9762 82.0981 78.613 83.2031C78.4559 83.2375 78.2987 83.2719 78.1368 83.3073C73.3387 84.331 68.1556 84.3376 63.3787 83.2031C63.208 83.1641 63.0374 83.1252 62.8616 83.085C53.9743 81.0066 46.3366 75.3658 41.4807 67.6695C36.5783 59.6599 35.1011 50.139 37.2468 40.9803C38.9242 34.1416 42.8866 27.4275 48.3787 22.9687C48.6004 22.7878 48.8222 22.6068 49.0507 22.4203C53.2913 19.0247 58.0689 16.6538 63.3787 15.4687C63.5491 15.4304 63.7195 15.392 63.895 15.3525C74.1429 13.1539 85.0382 15.9693 93.1205 22.5497ZM48.3567 28.3722C47.9479 28.8215 47.5752 29.2826 47.2068 29.7656C46.9376 30.1141 46.9376 30.1141 46.663 30.4697C41.6886 37.0729 39.4265 45.2134 40.4593 53.432C41.3261 59.3885 43.8608 64.7592 47.6755 69.375C47.823 69.5557 47.9704 69.7363 48.1223 69.9225C53.1668 75.9071 61.0416 79.3676 68.7271 80.0602C76.2338 80.6262 83.9795 78.299 89.863 73.5937C89.9908 73.4923 90.1186 73.3908 90.2502 73.2862C96.7381 68.0868 100.619 60.7224 101.64 52.4959C102.497 44.668 100.168 36.6139 95.2537 30.4687C95.1522 30.341 95.0507 30.2132 94.9462 30.0816C89.7648 23.6162 82.3444 19.6105 74.1022 18.6913C64.2564 17.747 55.3388 21.5204 48.3567 28.3722Z" fill="white"/>
<path d="M82.3781 27.4658C83.107 27.4822 83.3135 27.6677 83.8653 28.1689C84.4605 28.8148 84.8653 29.4156 85.2922 30.1804C85.4408 30.4438 85.5893 30.7072 85.7424 30.9786C85.9003 31.2628 86.0581 31.5469 86.216 31.8311C86.466 32.276 86.7168 32.7205 86.9675 33.1649C87.1377 33.4666 87.3076 33.7684 87.4773 34.0704C88.2766 35.4914 89.0973 36.8993 89.922 38.3057C90.1876 38.7616 90.4531 39.2175 90.7185 39.6735C91.251 40.5865 91.7903 41.495 92.3335 42.4017C92.5942 42.843 92.8548 43.2843 93.1154 43.7256C93.2369 43.925 93.3584 44.1244 93.4836 44.3298C94.139 45.4487 94.5077 46.2415 94.3166 47.5781C93.879 48.1324 93.5383 48.436 92.9103 48.75C92.5366 48.7697 92.1621 48.7751 91.7879 48.7729C91.5673 48.7721 91.3468 48.7714 91.1195 48.7706C90.8887 48.7686 90.6579 48.7667 90.4201 48.7646C90.1874 48.7636 89.9548 48.7625 89.7151 48.7614C89.1395 48.7587 88.564 48.7548 87.9884 48.75C87.9802 48.9297 87.9719 49.1093 87.9634 49.2945C87.6337 55.6069 84.371 61.2807 79.8439 65.5518C75.2852 69.4787 67.7077 73.9129 61.5297 73.7064C61.0353 73.5937 61.0353 73.5937 60.4054 72.9785C60.0511 72.0675 60.0008 71.6973 60.3322 70.7812C61.1494 69.8857 62.0648 69.1529 63.0275 68.4228C64.722 67.1148 66.2846 65.6957 67.8322 64.2187C68.0619 64.0076 68.0619 64.0076 68.2963 63.7921C72.5624 59.7591 75.3787 54.4604 76.5041 48.75C76.1962 48.7582 75.8883 48.7663 75.5711 48.7747C75.1643 48.7813 74.7575 48.7877 74.3507 48.7939C74.1482 48.7998 73.9456 48.8057 73.7369 48.8118C72.5927 48.8249 71.8008 48.8097 70.8791 48.0469C70.5007 47.2901 70.5378 46.5236 70.6447 45.7031C70.9369 45.0719 71.2218 44.5506 71.5968 43.9746C71.814 43.6236 72.0306 43.2724 72.2469 42.9208C72.3658 42.7296 72.4848 42.5384 72.6073 42.3414C73.3203 41.1765 73.9936 39.9884 74.673 38.8037C74.9739 38.2821 75.2748 37.7606 75.5757 37.2391C76.1269 36.2822 76.6761 35.3244 77.2225 34.3648C77.4596 33.9488 77.6971 33.533 77.9348 33.1173C78.2325 32.5965 78.5291 32.0752 78.8246 31.5532C81.0913 27.5941 81.0913 27.5941 82.3781 27.4658ZM82.3634 33.5156C82.1424 33.8592 81.9338 34.2108 81.7299 34.5648C81.598 34.7924 81.4662 35.02 81.3304 35.2546C81.1879 35.5025 81.0454 35.7504 80.8986 36.0059C80.6015 36.5199 80.3043 37.0338 80.0069 37.5476C79.8544 37.8112 79.7019 38.0748 79.5447 38.3464C79.0967 39.1157 78.6432 39.8814 78.1868 40.6458C78.0467 40.8806 77.9066 41.1155 77.7622 41.3575C77.493 41.8078 77.2231 42.2577 76.9524 42.7072C76.7713 43.011 76.7713 43.011 76.5864 43.3209C76.4797 43.4987 76.3729 43.6764 76.2629 43.8596C75.9992 44.284 75.9992 44.284 76.0353 44.7656C76.3743 44.7869 76.3743 44.7869 76.7201 44.8087C77.0162 44.8283 77.3123 44.8479 77.6173 44.8682C77.911 44.8872 78.2047 44.9062 78.5072 44.9258C79.1251 44.9825 79.6635 45.0569 80.2541 45.2344C81.5584 49.8208 79.0601 55.3015 76.8712 59.2374C75.9791 60.7658 74.8979 62.1557 73.8029 63.5423C73.2063 64.3051 72.6292 65.0826 72.0509 65.8594C76.6146 64.1893 80.2824 59.9638 82.3341 55.6787C83.512 53.0676 84.0774 50.4153 84.3129 47.5755C84.4593 45.8913 84.4593 45.8913 84.9416 45.2344C85.7542 44.9635 86.4747 44.923 87.3292 44.8682C87.6274 44.8485 87.9256 44.8289 88.2329 44.8087C88.4616 44.7945 88.6903 44.7803 88.9259 44.7656C88.5836 43.8457 88.1531 43.0186 87.6652 42.1674C87.5883 42.0327 87.5113 41.898 87.432 41.7592C87.1837 41.3253 86.9343 40.8921 86.6847 40.459C86.5142 40.1621 86.3438 39.8653 86.1733 39.5684C85.2687 37.9949 84.3609 36.4231 83.4328 34.8633C83.3488 34.7212 83.2647 34.5791 83.1782 34.4326C82.9917 34.1227 82.796 33.8183 82.5978 33.5156C82.5205 33.5156 82.4431 33.5156 82.3634 33.5156Z" fill="white"/>
<path d="M58.2144 28.4857C59.0615 28.6776 59.515 29.3555 59.972 30.0605C60.0751 30.249 60.1782 30.4375 60.2844 30.6317C60.3977 30.8381 60.511 31.0444 60.6277 31.257C60.8004 31.5774 60.8004 31.5774 60.9766 31.9043C61.0953 32.1197 61.214 32.3351 61.3364 32.5571C62.207 34.1552 62.207 34.1552 62.207 34.6875C62.3862 34.7132 62.5653 34.7389 62.7499 34.7653C63.5858 34.889 64.4199 35.0209 65.2539 35.1562C65.4104 35.1814 65.5669 35.2065 65.7281 35.2324C66.2008 35.3101 66.6721 35.3935 67.1436 35.4785C67.4315 35.5287 67.7194 35.5788 68.0161 35.6305C68.8401 35.8808 69.177 36.1292 69.707 36.7969C70.0039 37.5489 69.9737 37.8759 69.707 38.6426C69.2199 39.4037 68.6956 39.9572 68.0453 40.5771C67.4265 41.1833 66.868 41.8355 66.304 42.4924C66.0433 42.7916 65.7689 43.0788 65.4883 43.3594C65.475 44.0208 65.475 44.0208 65.5615 44.7949C65.5857 45.0877 65.6099 45.3804 65.6348 45.6821C65.6783 46.1694 65.7243 46.6563 65.7739 47.1431C65.8246 47.6443 65.869 48.1457 65.9131 48.6475C65.9436 48.9523 65.9741 49.2571 66.0056 49.5712C65.957 50.3906 65.957 50.3906 65.6082 51.0855C64.9519 51.6173 64.532 51.7341 63.6892 51.68C62.3407 51.389 61.1217 50.6361 59.915 49.9901C58.4529 49.2585 58.4529 49.2585 56.8823 49.4458C56.5433 49.5945 56.2084 49.7532 55.8789 49.9219C55.6496 50.0289 55.6496 50.0289 55.4156 50.1381C54.8281 50.4166 54.2499 50.7105 53.6748 51.0136C52.562 51.5648 51.731 51.673 50.4883 51.5625C49.9023 51.1084 49.9023 51.1084 49.5508 50.3906C49.4009 48.8664 49.6434 47.3719 49.8526 45.8608C49.9134 45.4183 49.9667 44.9748 50.0195 44.5312C50.0635 44.2235 50.0635 44.2235 50.1083 43.9096C49.9698 43.0515 49.4588 42.6963 48.833 42.1143C48.5961 41.8876 48.3596 41.6605 48.1235 41.4331C48.0072 41.3225 47.8909 41.212 47.7711 41.098C45.9603 39.3582 45.9603 39.3582 45.5371 38.1592C45.5731 37.3493 45.7746 36.9645 46.2695 36.3281C47.0358 35.8173 47.5264 35.7177 48.4256 35.5573C48.7088 35.5059 48.9921 35.4545 49.2839 35.4016C49.5798 35.3496 49.8758 35.2977 50.1807 35.2441C50.6286 35.1635 50.6286 35.1635 51.0857 35.0812C51.8238 34.9485 52.5621 34.8173 53.3008 34.6875C53.3671 34.477 53.4335 34.2665 53.5018 34.0496C53.8668 33.0022 54.387 32.0791 54.9268 31.1133C55.0305 30.9223 55.1343 30.7314 55.2412 30.5347C55.3426 30.3522 55.444 30.1697 55.5484 29.9817C55.6399 29.8164 55.7314 29.651 55.8257 29.4807C56.4622 28.555 57.1596 28.5304 58.2144 28.4857ZM57.5195 34.6875C57.3899 35.0265 57.3899 35.0265 57.2577 35.3723C56.2481 37.6718 56.2481 37.6718 55.1417 38.2162C53.9286 38.6037 52.6892 38.774 51.4258 38.9062C51.5137 39.0084 51.6016 39.1105 51.6922 39.2157C51.9435 39.5081 52.1931 39.8019 52.4414 40.0968C52.8149 40.5393 52.8149 40.5393 53.1838 40.8917C53.8548 41.5754 54.0794 42.083 54.1183 43.0133C54.1106 43.3925 54.0968 43.7716 54.0771 44.1504C54.0692 44.4427 54.0692 44.4427 54.0611 44.7409C54.0474 45.2181 54.0264 45.695 54.0039 46.1719C54.3312 46.0649 54.6583 45.9574 54.9854 45.8496C55.179 45.7862 55.3727 45.7227 55.5722 45.6573C56.1343 45.4724 56.1343 45.4724 56.7285 45.1758C58.4443 44.634 60.2025 45.7228 61.7383 46.4062C61.7105 46.118 61.6827 45.8298 61.6541 45.5328C61.6233 45.1502 61.5928 44.7675 61.5625 44.3848C61.5435 44.1953 61.5244 44.0059 61.5048 43.8107C61.4088 42.499 61.5584 41.8222 62.4414 40.7812C62.7248 40.4743 63.0169 40.1749 63.3203 39.8877C63.5779 39.6425 63.833 39.3945 64.082 39.1406C64.082 39.0633 64.082 38.9859 64.082 38.9062C63.7992 38.8766 63.5165 38.847 63.2251 38.8165C60.324 38.4086 60.324 38.4086 59.4794 37.6023C58.8198 36.7059 58.3842 35.7231 57.9883 34.6875C57.8336 34.6875 57.6789 34.6875 57.5195 34.6875Z" fill="white"/>
<path d="M22.1 33.2373C22.3194 33.2954 22.5387 33.3536 22.7647 33.4135C22.975 33.4729 23.1852 33.5323 23.4019 33.5934C23.591 33.6459 23.7801 33.6984 23.9749 33.7525C24.5917 34.0396 24.8298 34.3419 25.1762 34.9218C25.3093 35.8159 25.2483 36.2079 24.7807 36.9873C24.1591 37.5753 23.9024 37.6442 23.0668 37.7343C22.4323 37.6393 22.4323 37.6393 21.7549 37.4661C21.5091 37.404 21.2633 37.3419 21.0101 37.278C20.7558 37.211 20.5016 37.1441 20.2397 37.0752C19.9845 37.011 19.7294 36.9468 19.4665 36.8806C16.758 36.1856 16.758 36.1856 16.1967 35.4638C15.9552 34.6517 16.052 34.0949 16.2699 33.2812C17.6647 31.5378 20.2718 32.717 22.1 33.2373Z" fill="white"/>
<path d="M25.1757 19.2188C25.9443 19.5159 26.636 19.9122 27.3437 20.332C27.5286 20.436 27.7135 20.5399 27.904 20.647C29.6954 21.6758 29.6954 21.6758 30.3319 22.5C30.503 23.144 30.4601 23.7235 30.3319 24.375C29.9804 24.9609 29.9804 24.9609 29.3944 25.3125C27.6701 25.5197 26.6655 24.9625 25.2196 24.0674C25.0216 23.9503 24.8235 23.8332 24.6195 23.7126C22.8718 22.6646 22.8718 22.6646 22.3632 22.0312C22.1874 20.4492 22.1874 20.4492 22.7147 19.5703C23.5318 19.0801 24.2567 19.0782 25.1757 19.2188Z" fill="white"/>
<path d="M21.4089 46.8604C22.1671 46.8758 22.6361 46.9831 23.3004 47.3438C23.8864 48.2228 23.8948 48.6465 23.7692 49.6875C23.3815 50.3063 23.2237 50.5272 22.5973 50.8594C21.5406 51.0363 20.5022 51.0228 19.4332 51.0059C19.1465 51.0104 18.8598 51.0149 18.5644 51.0196C16.2308 51.0068 16.2308 51.0068 15.4937 50.3082C15.0033 49.5403 14.9295 49.1761 15.0973 48.2812C15.4379 47.6633 15.4379 47.6633 16.0348 47.1094C16.7603 46.9296 17.4725 46.9241 18.2174 46.9189C18.4118 46.9131 18.6063 46.9072 18.8066 46.9011C19.6739 46.8771 20.5414 46.8741 21.4089 46.8604Z" fill="white"/>
<path d="M25.1753 60.4248C25.9651 60.7375 26.3473 60.9283 26.8159 61.6406C26.9477 62.4463 26.9477 62.4463 26.8159 63.2813C25.4969 64.8156 23.4345 66.2158 21.4628 66.7392C20.5902 66.7842 20.0954 66.6207 19.4038 66.0938C19.0615 65.3468 18.9458 64.7951 19.1017 63.9789C19.5521 63.0049 20.5235 62.6111 21.4253 62.1094C21.7756 61.8819 21.7756 61.8819 22.133 61.6498C24.202 60.3329 24.202 60.3329 25.1753 60.4248Z" fill="white"/>
<path d="M35.9567 7.2656C37.1939 7.74163 37.6085 8.77254 38.2419 9.87302C38.3606 10.0676 38.4794 10.2622 38.6017 10.4626C39.3382 11.7292 39.6635 12.595 39.4724 14.0625C38.8747 14.7656 38.5047 14.9659 37.5974 15.1172C36.6892 14.9658 36.3911 14.7006 35.7224 14.0625C35.2571 13.3954 34.8663 12.696 34.4772 11.9824C34.3707 11.7972 34.2642 11.612 34.1545 11.4212C33.5928 10.4058 33.184 9.62985 33.3786 8.43748C34.1454 7.40009 34.6707 7.07407 35.9567 7.2656Z" fill="white"/>
</svg>
