<svg width="120" height="120" viewBox="0 0 120 120" fill="none" xmlns="http://www.w3.org/2000/svg">
<path d="M77.9973 37.4319C78.2246 37.4303 78.4519 37.4287 78.6862 37.4271C79.4358 37.4227 80.1854 37.4217 80.935 37.4212C81.4581 37.4197 81.9812 37.4181 82.5043 37.4165C83.6005 37.4137 84.6967 37.4128 85.7929 37.4131C87.1936 37.4132 88.5941 37.4068 89.9948 37.3987C91.0754 37.3935 92.1559 37.3925 93.2365 37.3928C93.7526 37.3922 94.2688 37.3902 94.7849 37.3865C95.509 37.3819 96.2329 37.3833 96.9569 37.3861C97.1677 37.3835 97.3784 37.3808 97.5955 37.3781C99.648 37.3983 101.484 38.0297 102.999 39.4445C104.698 41.3342 105.069 43.2222 105.061 45.6985C105.062 45.9584 105.064 46.2182 105.065 46.486C105.068 47.3572 105.067 48.2283 105.067 49.0995C105.068 49.7239 105.07 50.3484 105.072 50.9729C105.075 52.4934 105.077 54.014 105.077 55.5345C105.077 56.7709 105.078 58.0073 105.08 59.2437C105.084 62.7513 105.086 66.2589 105.086 69.7665C105.086 69.9555 105.086 70.1445 105.086 70.3392C105.086 70.5285 105.086 70.7177 105.086 70.9127C105.085 73.9786 105.09 77.0445 105.096 80.1104C105.103 83.2605 105.106 86.4106 105.106 89.5608C105.106 91.3285 105.107 93.0962 105.112 94.8639C105.116 96.3692 105.117 97.8744 105.114 99.3797C105.113 100.147 105.113 100.914 105.117 101.682C105.12 102.515 105.118 103.349 105.115 104.182C105.117 104.423 105.119 104.663 105.122 104.91C105.102 107.048 104.534 108.916 103.054 110.5C101.589 111.818 99.963 112.557 97.9773 112.56C97.5638 112.563 97.5638 112.563 97.142 112.565C96.6909 112.564 96.6909 112.564 96.2307 112.563C95.9063 112.564 95.582 112.565 95.2576 112.566C94.3674 112.569 93.4773 112.569 92.5871 112.568C91.6266 112.568 90.666 112.571 89.7055 112.573C87.824 112.577 85.9425 112.578 84.061 112.578C82.5314 112.578 81.0018 112.579 79.4722 112.581C75.1346 112.585 70.7969 112.587 66.4593 112.587C66.1085 112.587 66.1085 112.587 65.7507 112.587C65.5166 112.587 65.2825 112.587 65.0413 112.587C61.248 112.587 57.4546 112.591 53.6612 112.598C49.7653 112.604 45.8693 112.608 41.9734 112.607C39.7865 112.607 37.5996 112.608 35.4127 112.613C33.5506 112.618 31.6885 112.619 29.8264 112.616C28.8767 112.614 27.9271 112.614 26.9775 112.618C26.1071 112.622 25.2368 112.621 24.3665 112.617C23.9046 112.616 23.4427 112.619 22.9808 112.623C20.6702 112.605 18.7243 112.167 16.9982 110.555C15.6169 109.019 14.942 107.371 14.936 105.298C14.935 105.145 14.9339 104.993 14.9328 104.835C14.9299 104.327 14.9302 103.819 14.9306 103.31C14.9292 102.944 14.9276 102.578 14.9258 102.213C14.9217 101.221 14.9206 100.229 14.9203 99.2372C14.92 98.6168 14.919 97.9964 14.9177 97.376C14.9134 95.2093 14.9115 93.0426 14.9118 90.8759C14.9121 88.86 14.9072 86.8441 14.8998 84.8282C14.8936 83.0945 14.8911 81.3608 14.8914 79.627C14.8916 78.5929 14.8902 77.5588 14.8853 76.5246C14.8807 75.5512 14.8807 74.5778 14.8841 73.6044C14.8846 73.2486 14.8835 72.8928 14.8806 72.537C14.8613 69.9468 15.108 67.7145 16.9433 65.7495C18.691 64.1782 20.4777 63.6772 22.7842 63.6967C22.997 63.6967 23.2098 63.6966 23.4291 63.6965C24.1291 63.6969 24.8291 63.7005 25.5291 63.7042C26.0158 63.7051 26.5025 63.7057 26.9891 63.7062C28.2676 63.708 29.546 63.7126 30.8245 63.7178C32.13 63.7226 33.4356 63.7247 34.7411 63.7271C37.301 63.7321 39.8608 63.7401 42.4206 63.75C42.4132 63.5234 42.4132 63.5234 42.4057 63.2923C42.386 62.5953 42.374 61.8983 42.362 61.2011C42.3541 60.9637 42.3463 60.7262 42.3382 60.4815C42.3078 58.1094 42.9266 56.2823 44.5629 54.5517C46.2877 52.9248 47.8528 52.4268 50.2061 52.4467C50.5253 52.4466 50.5253 52.4466 50.851 52.4465C51.551 52.4469 52.251 52.4505 52.951 52.4542C53.4377 52.4551 53.9243 52.4557 54.411 52.4562C55.6895 52.458 56.9679 52.4626 58.2463 52.4678C59.5519 52.4726 60.8575 52.4747 62.163 52.4771C64.7228 52.4821 67.2826 52.4901 69.8425 52.5C69.8369 52.1243 69.8369 52.1243 69.8313 51.7411C69.8185 50.802 69.8105 49.8629 69.8038 48.9237C69.8003 48.5191 69.7955 48.1145 69.7894 47.7099C69.7458 44.7562 69.7257 42.2253 71.711 39.8538C73.5507 38 75.4483 37.4293 77.9973 37.4319ZM77.5768 45C77.5768 64.8 77.5768 84.6 77.5768 105C84.1511 105 90.7253 105 97.4987 105C97.4987 85.2 97.4987 65.4 97.4987 45C90.9245 45 84.3503 45 77.5768 45ZM50.155 60C50.155 74.85 50.155 89.7 50.155 105C56.6518 105 63.1487 105 69.8425 105C69.8425 90.15 69.8425 75.3 69.8425 60C63.3456 60 56.8487 60 50.155 60ZM22.4987 71.25C22.4987 82.3875 22.4987 93.525 22.4987 105C29.0729 105 35.6471 105 42.4206 105C42.4206 93.8625 42.4206 82.725 42.4206 71.25C35.8464 71.25 29.2721 71.25 22.4987 71.25Z" fill="white"/>
<path d="M59.1223 7.45851C59.3853 7.4562 59.3853 7.4562 59.6537 7.45384C60.2356 7.44921 60.8176 7.44648 61.3995 7.44415C61.6979 7.44271 61.6979 7.44271 62.0023 7.44125C63.0561 7.43636 64.1098 7.43301 65.1636 7.43081C66.2496 7.42823 67.3355 7.42017 68.4215 7.41085C69.2583 7.40471 70.0952 7.40276 70.9321 7.40192C71.3322 7.40078 71.7323 7.39807 72.1324 7.39371C76.0541 7.35366 76.0541 7.35366 77.5769 8.43749C78.5768 9.69383 78.7842 10.6776 78.7903 12.2395C78.7918 12.4111 78.7934 12.5827 78.7949 12.7594C78.7996 13.3272 78.8023 13.8949 78.8046 14.4626C78.8056 14.6567 78.8065 14.8508 78.8075 15.0508C78.8124 16.0782 78.8158 17.1056 78.818 18.133C78.8206 19.193 78.8286 20.2529 78.8379 21.3129C78.8441 22.1291 78.846 22.9452 78.8469 23.7613C78.848 24.152 78.8507 24.5427 78.8551 24.9334C78.8608 25.4809 78.8606 26.0282 78.8589 26.5758C78.8634 26.8163 78.8634 26.8163 78.868 27.0618C78.8555 28.2219 78.5279 28.868 77.8113 29.7656C76.7723 30.7032 75.9928 31.0277 74.5749 31.0016C73.5056 30.8682 72.569 30.4555 71.8686 29.6219C70.8898 28.0283 70.9573 26.2131 70.8826 24.4043C70.8725 24.1759 70.8623 23.9475 70.8519 23.7122C70.8272 23.1519 70.8033 22.5916 70.78 22.0312C70.6006 22.2787 70.6006 22.2787 70.4175 22.5311C67.2804 26.7918 63.7246 30.7385 59.53 33.9844C59.2833 34.184 59.0371 34.3843 58.7912 34.585C55.2952 37.4187 51.503 39.7667 47.5769 41.9531C47.4053 42.0503 47.2338 42.1475 47.057 42.2476C33.6419 49.8144 33.6419 49.8144 28.5925 48.75C27.4477 48.2185 26.7803 47.5511 26.2488 46.4062C26.0721 45.0938 26.0676 43.984 26.6296 42.7734C28.0186 41.3114 29.5905 40.8828 31.4783 40.2978C39.1619 37.8204 46.6317 34.1036 52.9675 29.0625C53.1857 28.8894 53.4038 28.7163 53.6285 28.5379C58.3772 24.7085 62.227 20.5179 65.6238 15.4687C65.3635 15.4599 65.3635 15.4599 65.0979 15.4509C64.3015 15.4235 63.5051 15.3949 62.7087 15.3662C62.2993 15.3524 62.2993 15.3524 61.8816 15.3383C57.3022 15.1706 57.3022 15.1706 56.0144 14.0625C55.1705 13.0589 54.7834 12.0956 54.8425 10.7812C55.123 9.32221 55.755 8.57474 56.9519 7.73437C57.648 7.38633 58.3588 7.4614 59.1223 7.45851Z" fill="white"/>
</svg>
