<svg width="121" height="120" viewBox="0 0 121 120" fill="none" xmlns="http://www.w3.org/2000/svg">
<g clip-path="url(#clip0_162_94)">
<path d="M54.5376 14.8984C54.9475 14.8965 54.9475 14.8965 55.3657 14.8946C55.9415 14.8931 56.5173 14.8934 57.093 14.8954C57.97 14.8974 58.8467 14.8907 59.7236 14.8833C60.285 14.8829 60.8464 14.883 61.4077 14.8837C61.7978 14.8798 61.7978 14.8798 62.1958 14.8757C64.234 14.8939 65.9109 15.3286 67.4365 16.7431C67.5806 16.8734 67.7247 17.0036 67.8732 17.1377C68.7769 18.0686 69.3424 18.8566 69.6988 20.1132C69.775 20.3696 69.8513 20.6259 69.9299 20.89C70.0842 21.4268 70.2374 21.9639 70.3895 22.5014C70.5044 22.8854 70.5044 22.8854 70.6216 23.2773C70.6881 23.5104 70.7545 23.7435 70.823 23.9837C71.1822 24.7581 71.5713 25.088 72.2851 25.5469C73.6885 25.7309 74.8449 25.4459 76.1963 25.0781C78.8414 24.3684 81.2966 24.2122 83.7695 25.5469C83.9843 25.6497 83.9843 25.6497 84.2035 25.7547C85.7912 26.6718 86.6092 28.4748 87.5195 30C87.7525 30.3848 87.9854 30.7697 88.2186 31.1544C88.5605 31.7197 88.9006 32.286 89.2402 32.8527C89.4104 33.1368 89.581 33.4207 89.7519 33.7044C89.9952 34.1093 90.2364 34.5156 90.4776 34.9219C90.6188 35.1587 90.76 35.3956 90.9055 35.6396C91.9166 37.552 92.0171 39.5383 91.6183 41.651C91.003 43.5058 89.5707 44.82 88.2226 46.1719C88.0495 46.3456 87.8764 46.5193 87.698 46.6983C87.4252 46.97 87.1506 47.2398 86.8731 47.5067C86.341 48.0656 86.1964 48.6579 86.2075 49.4256C86.5962 50.8024 88.0327 51.8588 89.0338 52.8186C90.7658 54.4873 91.7599 56.0183 91.8115 58.4912C91.8202 58.7622 91.829 59.0332 91.838 59.3124C91.575 61.7421 90.1373 63.8141 88.9047 65.8691C88.6034 66.3721 88.3058 66.8771 88.0084 67.3823C87.8145 67.7082 87.6204 68.034 87.4261 68.3597C87.3389 68.5079 87.2517 68.6561 87.1618 68.8089C86.3435 70.1641 85.3907 71.5603 84.0039 72.3779C83.8589 72.4664 83.7138 72.555 83.5644 72.6462C80.8119 73.9971 77.8248 73.457 75.0088 72.6269C73.8634 72.3502 72.964 72.2343 71.8621 72.6993C71.2495 73.2062 71.09 73.5587 70.8496 74.3115C70.7472 74.6201 70.7472 74.6201 70.6427 74.935C70.4421 75.5974 70.2428 76.2601 70.044 76.923C69.9809 77.1336 69.9177 77.3442 69.8526 77.5612C69.8046 77.7215 69.7565 77.8817 69.707 78.0469C70.1697 78.0481 70.1697 78.0481 70.6417 78.0495C73.5554 78.0581 76.4691 78.0717 79.3828 78.09C80.8805 78.0992 82.3783 78.1068 83.8761 78.1104C85.3229 78.1139 86.7695 78.122 88.2163 78.1332C88.7669 78.1366 89.3175 78.1385 89.8682 78.1387C90.6423 78.1393 91.4162 78.1456 92.1903 78.1533C92.4156 78.1521 92.6408 78.1509 92.8729 78.1497C95.0627 78.183 97.0175 78.8214 98.7695 80.1562C98.958 80.2819 99.1465 80.4076 99.3408 80.5371C101.423 82.4665 102.458 84.9051 102.607 87.7133C102.655 89.2127 102.65 90.7119 102.644 92.2119C102.645 92.7678 102.646 93.3236 102.647 93.8795C102.648 95.0402 102.646 96.2008 102.642 97.3615C102.636 98.8422 102.639 100.323 102.645 101.803C102.648 102.95 102.647 104.097 102.645 105.243C102.644 105.789 102.645 106.334 102.647 106.88C102.66 110.933 102.554 114.257 99.707 117.422C98.0665 118.975 95.9227 120.021 93.6481 120.036C93.3056 120.039 93.3056 120.039 92.9561 120.042C92.5826 120.044 92.5826 120.044 92.2016 120.045C91.9381 120.047 91.6747 120.049 91.4033 120.051C90.5314 120.057 89.6594 120.061 88.7875 120.064C88.4899 120.065 88.1923 120.067 87.8856 120.068C86.6352 120.073 85.3848 120.077 84.1344 120.08C82.3442 120.084 80.5542 120.092 78.764 120.105C77.3522 120.115 75.9404 120.119 74.5285 120.12C73.9283 120.122 73.3281 120.125 72.7279 120.131C71.889 120.138 71.0504 120.138 70.2115 120.137C69.8387 120.143 69.8387 120.143 69.4584 120.148C67.776 120.134 67.776 120.134 66.863 119.448C66.3463 118.716 66.1914 118.319 66.1914 117.422C66.5312 116.402 66.695 115.914 67.5976 115.312C68.0699 115.252 68.0699 115.252 68.62 115.25C68.829 115.248 69.0379 115.246 69.2532 115.244C69.4818 115.245 69.7105 115.245 69.9461 115.245C70.1874 115.244 70.4287 115.242 70.6773 115.24C71.2022 115.237 71.727 115.235 72.2519 115.234C73.0834 115.232 73.915 115.227 74.7466 115.222C76.514 115.21 78.2814 115.203 80.0488 115.195C82.0921 115.187 84.1354 115.177 86.1787 115.163C86.9962 115.159 87.8137 115.157 88.6312 115.155C89.1359 115.152 89.6406 115.149 90.1453 115.145C90.3712 115.146 90.597 115.146 90.8296 115.146C92.5622 115.13 94.3664 115.1 95.7226 113.906C95.8773 113.906 96.032 113.906 96.1914 113.906C96.3526 113.596 96.5071 113.283 96.6601 112.969C96.7799 112.736 96.8997 112.503 97.0232 112.262C97.4868 111.167 97.4636 110.108 97.4579 108.934C97.4596 108.699 97.4612 108.464 97.4628 108.222C97.4671 107.449 97.4662 106.675 97.4649 105.902C97.4659 105.362 97.4672 104.822 97.4686 104.283C97.4707 103.153 97.4701 102.023 97.4678 100.893C97.4651 99.4476 97.4698 98.0021 97.4767 96.5564C97.481 95.4423 97.4809 94.3282 97.4796 93.2141C97.4795 92.6812 97.4809 92.1483 97.4839 91.6154C97.4874 90.8693 97.4848 90.1235 97.4808 89.3775C97.4831 89.1589 97.4854 88.9403 97.4877 88.715C97.4694 87.0846 97.0909 85.832 96 84.5956C95.865 84.489 95.7299 84.3823 95.5908 84.2724C95.3873 84.1061 95.3873 84.1061 95.1797 83.9364C94.4218 83.4282 93.7537 83.4076 92.8697 83.4054C92.6172 83.4042 92.3646 83.403 92.1045 83.4018C91.826 83.4017 91.5475 83.4015 91.2606 83.4014C90.9656 83.4004 90.6706 83.3994 90.3667 83.3983C89.5461 83.3955 88.7256 83.3942 87.9051 83.3931C87.0208 83.3917 86.1364 83.389 85.2521 83.3865C83.1156 83.3807 80.9792 83.3773 78.8427 83.3743C78.2393 83.3734 77.6359 83.3725 77.0326 83.3715C73.2862 83.3656 69.5398 83.3604 65.7935 83.3575C64.9256 83.3568 64.0578 83.3561 63.19 83.3554C62.9743 83.3553 62.7586 83.3551 62.5364 83.3549C59.0419 83.3519 55.5476 83.3441 52.0532 83.3344C48.466 83.3244 44.8789 83.3189 41.2918 83.3177C39.2776 83.3169 37.2633 83.3141 35.2491 83.3064C33.5337 83.2999 31.8184 83.2973 30.103 83.2999C29.2279 83.3011 28.3529 83.3004 27.4778 83.2946C26.5286 83.2884 25.5796 83.2912 24.6303 83.295C24.3544 83.2917 24.0786 83.2885 23.7944 83.2851C22.172 83.3009 21.0201 83.5065 19.7851 84.6094C18.9873 85.6322 18.5859 86.4403 18.5788 87.7338C18.5771 87.9411 18.5754 88.1484 18.5737 88.362C18.573 88.5888 18.5724 88.8157 18.5718 89.0494C18.5702 89.2888 18.5687 89.5282 18.5671 89.7749C18.5625 90.5686 18.5597 91.3623 18.5574 92.1561C18.5564 92.4272 18.5555 92.6983 18.5545 92.9776C18.5496 94.4128 18.5463 95.848 18.5441 97.2832C18.5415 98.7646 18.5334 100.246 18.5241 101.727C18.518 102.867 18.516 104.007 18.5152 105.147C18.514 105.693 18.5113 106.239 18.507 106.785C18.5012 107.55 18.5015 108.315 18.5031 109.08C18.4986 109.417 18.4986 109.417 18.494 109.76C18.505 111.179 18.7405 112.255 19.5507 113.437C21.3477 115.145 23.2594 115.113 25.6171 115.108C25.8714 115.108 26.1258 115.109 26.3879 115.109C26.9388 115.11 27.4897 115.11 28.0406 115.11C29.2114 115.111 30.3822 115.116 31.553 115.121C33.732 115.13 35.911 115.137 38.09 115.137C39.6068 115.137 41.1234 115.142 42.6402 115.151C43.2181 115.154 43.7961 115.154 44.3741 115.152C45.1815 115.15 45.9886 115.155 46.796 115.162C47.1545 115.158 47.1545 115.158 47.5203 115.154C48.6286 115.171 49.1464 115.183 50.0501 115.871C50.5247 116.535 50.6473 116.849 50.6347 117.656C50.6378 117.85 50.6408 118.043 50.6439 118.242C50.4055 119.14 50.0621 119.441 49.3164 120C48.4192 120.176 47.5328 120.158 46.6209 120.148C46.212 120.15 46.212 120.15 45.7948 120.153C44.8927 120.157 43.991 120.152 43.089 120.147C42.461 120.148 41.833 120.148 41.205 120.149C39.8877 120.15 38.5705 120.146 37.2532 120.14C35.7358 120.132 34.2186 120.132 32.7013 120.136C31.2367 120.14 29.7722 120.139 28.3077 120.135C27.6871 120.133 27.0664 120.133 26.4458 120.135C25.5752 120.136 24.7049 120.131 23.8344 120.125C23.5803 120.127 23.3262 120.128 23.0645 120.13C20.1182 120.093 17.9427 119.073 15.8593 117.017C13.9103 114.883 13.3864 112.53 13.3889 109.714C13.3873 109.463 13.3858 109.211 13.3841 108.951C13.3797 108.122 13.3788 107.292 13.3783 106.462C13.3768 105.883 13.3752 105.303 13.3735 104.724C13.3707 103.51 13.3699 102.295 13.3701 101.081C13.3702 99.5305 13.3638 97.9799 13.3557 96.4293C13.3505 95.2323 13.3495 94.0354 13.3498 92.8384C13.3492 92.267 13.3472 91.6956 13.3435 91.1242C13.3389 90.3223 13.3403 89.5205 13.3431 88.7185C13.3405 88.4858 13.3379 88.253 13.3351 88.0132C13.3614 85.0455 14.3803 82.8032 16.4233 80.6927C17.9565 79.2681 19.9179 78.2506 22.0307 78.253C22.245 78.2527 22.4592 78.2524 22.68 78.2521C22.9133 78.2529 23.1466 78.2538 23.387 78.2546C23.7576 78.2546 23.7576 78.2546 24.1356 78.2545C24.9523 78.2547 25.769 78.2565 26.5857 78.2583C27.1518 78.2588 27.718 78.2591 28.2842 78.2593C29.7745 78.2602 31.2649 78.2626 32.7553 78.2651C34.276 78.2675 35.7967 78.2686 37.3175 78.2698C40.3015 78.2723 43.2855 78.2763 46.2695 78.2812C46.059 77.5621 45.8425 76.8449 45.625 76.1279C45.5657 75.9253 45.5065 75.7228 45.4455 75.5141C45.0996 74.3856 44.7739 73.5164 43.9257 72.6562C42.669 72.0279 41.2209 72.5398 39.9414 72.8906C37.2298 73.5726 34.4895 73.8735 31.9726 72.4219C29.8956 70.9863 28.8006 68.9654 27.5781 66.8262C27.3834 66.493 27.1884 66.1601 26.9931 65.8273C23.434 59.7344 23.434 59.7344 24.2529 56.499C24.8107 54.8229 25.8653 53.6573 27.124 52.4515C27.2612 52.3191 27.3984 52.1867 27.5398 52.0503C27.8141 51.7886 28.092 51.5305 28.3736 51.2766C29.0633 50.6248 29.3672 50.2475 29.6453 49.3158C29.6184 48.0059 29.0257 47.4225 28.1292 46.5426C27.8188 46.2479 27.5081 45.9534 27.1972 45.6592C25.291 43.8063 24.129 42.1588 23.9453 39.4482C24.0055 36.9344 25.3081 34.914 26.5725 32.8284C26.8738 32.331 27.1708 31.8311 27.4673 31.3307C30.6202 26.0469 30.6202 26.0469 33.6718 24.7558C35.9383 24.3781 37.9611 24.6106 40.155 25.2133C41.4357 25.5566 42.6915 25.7538 43.999 25.4004C44.9748 24.6052 45.2496 23.2372 45.5878 22.0717C46.3656 19.3915 47.2234 17.1263 49.7851 15.7031C51.3914 14.9644 52.7829 14.8937 54.5376 14.8984ZM51.1914 20.8594C50.8594 21.4431 50.8594 21.4431 50.6933 22.1072C50.5827 22.4691 50.5827 22.4691 50.4699 22.8383C50.3986 23.0892 50.3273 23.3401 50.2539 23.5986C49.6151 25.8059 48.9331 28.131 46.8554 29.3994C46.6887 29.5054 46.5219 29.6115 46.3501 29.7207C43.7671 31.0337 40.9632 30.6021 38.2771 29.8648C36.9357 29.5015 35.8237 29.2188 34.5623 29.9104C33.7841 30.5184 33.3423 31.1413 32.8717 31.9894C32.7453 32.2079 32.7453 32.2079 32.6164 32.4308C32.3499 32.8932 32.088 33.3581 31.8261 33.8232C31.6488 34.1327 31.4712 34.442 31.2933 34.7511C30.9647 35.3232 30.6378 35.8961 30.3131 36.4703C30.0788 36.8845 29.8437 37.2983 29.5995 37.7067C29.069 38.5919 29.069 38.5919 28.8818 39.5947C29.4519 41.0649 30.6748 42.0668 31.7907 43.1435C33.5908 44.8911 34.5519 46.4602 34.624 49.0283C34.587 51.7816 33.1922 53.4167 31.3098 55.2576C31.1944 55.3709 31.079 55.4842 30.9601 55.6009C30.6248 55.9282 30.2857 56.2517 29.9466 56.575C29.3955 57.1864 29.1175 57.5642 28.9257 58.3594C29.0251 59.5188 29.4007 60.2867 30.0052 61.2726C30.0899 61.4118 30.1747 61.551 30.262 61.6945C30.4412 61.9878 30.6215 62.2805 30.8029 62.5725C31.0764 63.0133 31.3465 63.456 31.616 63.8992C32.9832 66.5055 32.9832 66.5055 35.0195 68.4375C36.4653 68.5643 37.6735 68.3258 39.0625 67.9687C41.7751 67.2853 44.3199 67.09 46.8179 68.5162C49.1448 70.1036 49.871 72.6528 50.5297 75.2635C50.8058 76.3134 51.1029 77.0584 51.8945 77.8125C53.0806 78.3263 54.1626 78.3531 55.4312 78.3517C55.7345 78.3532 55.7345 78.3532 56.0439 78.3548C56.47 78.3561 56.8961 78.3562 57.3221 78.3552C57.9708 78.3545 58.6191 78.36 59.2677 78.3659C59.6832 78.3665 60.0987 78.3666 60.5142 78.3664C60.8025 78.3696 60.8025 78.3696 61.0966 78.3729C62.3414 78.363 63.2179 78.1792 64.3164 77.5781C65.027 76.533 65.3297 75.459 65.6637 74.2542C66.3899 71.6385 67.2507 69.6171 69.707 68.2031C72.1652 66.9694 74.739 67.4094 77.2806 68.1002C78.6585 68.4695 79.9394 68.7818 81.2974 68.1848C82.0764 67.5971 82.4929 66.8836 82.9666 66.0498C83.1107 65.8041 83.1107 65.8041 83.2577 65.5534C83.5628 65.0319 83.864 64.5082 84.165 63.9844C84.37 63.632 84.5752 63.2799 84.7807 62.9278C85.0699 62.4323 85.3588 61.9365 85.6456 61.4395C86.0203 60.7904 86.4004 60.1551 86.8164 59.5312C86.9595 58.7201 86.9894 58.1588 86.5316 57.4493C85.9219 56.7406 85.2604 56.0968 84.5861 55.4498C82.5865 53.5161 81.412 51.895 81.3525 49.0722C81.3978 45.942 82.824 44.3109 84.9414 42.1875C85.1145 42.0138 85.2876 41.84 85.466 41.6611C85.7388 41.3894 86.0134 41.1195 86.2909 40.8526C86.7803 40.3386 86.8192 40.0462 86.8824 39.3241C86.8057 38.2941 86.5364 37.7807 85.9942 36.9076C85.9091 36.7687 85.824 36.6299 85.7363 36.4867C85.4649 36.0459 85.1885 35.6085 84.9121 35.1709C84.7317 34.8783 84.5516 34.5854 84.3719 34.2924C82.8597 31.6299 82.8597 31.6299 80.7226 29.5312C79.3927 29.4417 78.3617 29.62 77.0752 30C74.6509 30.6556 72.099 30.9566 69.7564 29.8398C67.5481 28.5249 66.5779 26.8738 65.8572 24.4473C65.7983 24.2502 65.7394 24.0532 65.6788 23.8502C65.5636 23.4554 65.4535 23.0591 65.349 22.6613C65.2961 22.4761 65.2433 22.2908 65.1889 22.0999C65.1448 21.9344 65.1007 21.7689 65.0553 21.5984C64.644 20.8301 64.1433 20.3218 63.3789 19.9219C62.5614 19.7573 61.7643 19.7629 60.9326 19.7745C60.5816 19.7736 60.5816 19.7736 60.2236 19.7727C59.7303 19.773 59.237 19.7761 58.7438 19.782C57.9906 19.79 57.2381 19.7868 56.4849 19.7822C56.0046 19.7839 55.5243 19.7861 55.0439 19.7891C54.8198 19.7879 54.5956 19.7868 54.3646 19.7856C53.0492 19.8087 52.1991 19.926 51.1914 20.8594Z" fill="white"/>
<path d="M67.5976 0.703143C67.9266 0.772991 67.9266 0.772991 68.2623 0.844249C72.8884 1.84682 77.2735 3.38222 81.4477 5.6201C81.7464 5.78005 82.0461 5.93805 82.3468 6.09411C86.1844 8.08711 89.6764 10.6571 92.761 13.6862C93.1808 14.0982 93.6054 14.5049 94.0298 14.9121C95.8733 16.6984 97.5275 18.5224 99.0039 20.625C99.0989 20.759 99.1938 20.8929 99.2917 21.0309C103.357 26.8077 106.08 33.103 107.617 39.9903C107.664 40.1967 107.71 40.4031 107.758 40.6158C108.466 43.9472 108.702 47.2722 108.687 50.669C108.686 50.8454 108.686 51.0218 108.686 51.2036C108.68 54.181 108.445 57.0675 107.91 60C107.832 60.4687 107.754 60.9375 107.676 61.4063C107.826 61.3075 107.976 61.2087 108.131 61.1069C110.29 59.7393 110.29 59.7393 111.66 59.7656C112.601 60.1208 112.973 60.3294 113.535 61.1719C113.614 61.6608 113.614 61.6608 113.623 62.1973C113.63 62.3731 113.636 62.549 113.643 62.7301C113.439 63.7716 112.745 64.3512 111.897 64.9371C111.628 65.0959 111.357 65.2521 111.085 65.4062C110.94 65.4908 110.795 65.5753 110.646 65.6624C110.184 65.9305 109.721 66.1952 109.258 66.46C108.95 66.6385 108.643 66.8171 108.336 66.996C104.245 69.3696 104.245 69.3696 103.062 69.3897C101.261 68.8121 100.581 67.1249 99.751 65.5518C99.6291 65.3234 99.5073 65.0949 99.3818 64.8596C99.1361 64.397 98.8913 63.9338 98.6477 63.4701C98.3344 62.8763 98.0148 62.2865 97.6929 61.6974C97.5191 61.3711 97.3458 61.0445 97.1728 60.7178C97.0924 60.5728 97.0119 60.4279 96.929 60.2785C96.3943 59.2414 96.376 58.5449 96.6601 57.4219C97.1503 56.6787 97.5045 56.327 98.3813 56.1209C99.2353 56.0553 99.891 56.0493 100.607 56.554C101.459 57.4989 101.995 58.616 102.52 59.7656C105.539 49.7168 102.785 37.6904 97.9977 28.6586C96.8504 26.5652 95.5483 24.6165 94.082 22.7344C93.9773 22.5999 93.8726 22.4655 93.7648 22.327C86.3212 12.9095 75.3306 6.78033 63.4304 5.25188C61.6465 5.06074 59.8535 5.07471 58.0615 5.08303C57.767 5.08378 57.767 5.08378 57.4666 5.08456C54.5403 5.09663 51.7093 5.19818 48.8476 5.85939C48.5326 5.92924 48.5326 5.92924 48.2112 6.0005C36.502 8.64861 26.0272 15.5924 19.5132 25.7474C14.7914 33.3135 12.2333 41.517 12.2265 50.4492C12.2264 50.6373 12.2262 50.8253 12.2261 51.0191C12.2325 55.8259 12.8304 60.4144 14.4238 64.9732C14.7418 65.9838 14.7946 66.9224 14.6289 67.9688C14.1587 68.6888 13.8267 69.0131 13.0111 69.2945C12.1169 69.4729 11.7212 69.4409 10.8716 69.039C9.93565 68.23 9.69464 67.4613 9.3408 66.2988C9.239 65.9797 9.239 65.9797 9.13515 65.6541C7.91692 61.6624 7.10543 57.4107 7.08128 53.2288C7.07962 53.037 7.07797 52.8451 7.07626 52.6475C7.02319 44.6883 7.02319 44.6883 7.83201 41.0156C7.87733 40.8 7.92265 40.5844 7.96934 40.3623C9.90335 31.3444 13.998 23.2973 20.22 16.4923C20.663 16.0034 21.089 15.5047 21.5136 15C28.2535 7.34734 38.3385 2.78227 48.1445 0.703143C48.3431 0.66077 48.5417 0.618397 48.7464 0.574741C54.6626 -0.614417 61.7048 -0.598181 67.5976 0.703143Z" fill="white"/>
<path d="M66.5841 36.8562C69.8383 39.5121 72.1848 42.8788 72.7539 47.1094C73.0729 51.5566 71.9756 55.5746 69.0378 59.0067C66.2839 61.8809 62.6134 63.7199 58.624 63.832C54.3297 63.8728 50.632 62.6163 47.4776 59.6462C44.346 56.4974 43.1521 52.7554 43.1489 48.4008C43.2009 44.6557 44.7085 41.2321 47.3069 38.519C49.2137 36.7799 51.32 35.518 53.7696 34.6875C53.9333 34.6301 54.0971 34.5727 54.2658 34.5136C58.3331 33.3583 63.2367 34.3527 66.5841 36.8562ZM50.4645 42.4695C48.388 44.9967 47.8561 47.6608 48.1446 50.8594C48.7267 53.5671 50.3618 55.8234 52.5977 57.4219C55.1702 58.8267 57.8359 59.3153 60.7129 58.624C63.7469 57.5327 65.7213 55.7021 67.085 52.8076C68.0805 50.5814 68.1678 48.1166 67.3715 45.8057C65.9806 42.5304 63.8094 40.7117 60.5664 39.375C56.7698 38.3734 53.1233 39.6823 50.4645 42.4695Z" fill="white"/>
<path d="M75.332 87.4219C76.5127 88.5917 76.8872 89.7872 77.3279 91.3669C77.4338 91.7299 77.4338 91.7299 77.5419 92.1001C77.7656 92.8689 77.9845 93.639 78.2031 94.4092C78.426 95.1833 78.6499 95.9572 78.8744 96.7309C79.0136 97.2115 79.1516 97.6925 79.2884 98.1738C79.3503 98.3898 79.4122 98.6058 79.4759 98.8283C79.5302 99.0192 79.5844 99.2102 79.6403 99.4069C79.7483 99.842 79.7483 99.842 80.0195 100.078C80.0556 99.9467 80.0917 99.8153 80.1289 99.6799C80.5065 98.3065 80.8873 96.934 81.2698 95.562C81.412 95.0506 81.5534 94.5388 81.6939 94.0269C81.8966 93.2892 82.1022 92.5523 82.3084 91.8155C82.4011 91.4745 82.4011 91.4745 82.4957 91.1266C83.3533 88.09 83.3533 88.09 84.707 87.1875C86.0336 86.8559 86.7893 87.0107 87.9883 87.6563C88.8195 88.2626 88.9219 89.0865 89.1126 90.0431C89.1506 90.2239 89.1887 90.4048 89.2279 90.5911C89.3653 91.2528 89.4975 91.9153 89.6289 92.5782C89.6828 92.8479 89.7367 93.1176 89.7923 93.3956C90.17 95.2919 90.5381 97.1899 90.9013 99.0891C91.0624 99.9309 91.2259 100.772 91.3899 101.614C91.5175 102.27 91.6433 102.927 91.7687 103.584C91.8568 104.044 91.9467 104.503 92.0366 104.962C92.7826 108.907 92.7826 108.907 92.002 110.156C91.3293 110.789 90.9281 110.908 90.0244 110.947C89.8465 110.959 89.6685 110.97 89.4852 110.982C88.5887 110.785 88.301 110.423 87.7539 109.688C87.4599 108.814 87.299 107.928 87.1387 107.022C87.0907 106.771 87.0428 106.52 86.9934 106.262C86.8977 105.761 86.8037 105.259 86.7115 104.757C86.599 104.154 86.479 103.553 86.3522 102.952C86.3187 102.793 86.2852 102.633 86.2507 102.469C86.2199 102.323 86.189 102.177 86.1572 102.026C85.9682 101.121 85.8463 100.3 85.8789 99.375C85.7242 99.375 85.5695 99.375 85.4102 99.375C85.3884 99.4999 85.3666 99.6247 85.3442 99.7533C85.0108 101.542 84.5358 103.286 84.0434 105.036C83.9006 105.545 83.7607 106.054 83.6208 106.564C83.5292 106.892 83.4375 107.219 83.3456 107.546C83.2639 107.839 83.1822 108.132 83.0981 108.434C82.7383 109.495 82.4288 110.193 81.4844 110.815C80.3003 111.248 79.4917 111.279 78.335 110.757C77.0008 109.541 76.5717 107.64 76.0828 105.944C75.9989 105.66 75.9989 105.66 75.9134 105.37C75.7378 104.773 75.5642 104.176 75.3906 103.579C75.2708 103.171 75.1509 102.763 75.0308 102.355C74.7391 101.362 74.4491 100.369 74.1602 99.375C74.1083 99.6742 74.0564 99.9734 74.0029 100.282C73.809 101.394 73.6105 102.505 73.4106 103.617C73.3248 104.097 73.2402 104.578 73.157 105.059C73.0369 105.751 72.9123 106.443 72.7869 107.134C72.7507 107.349 72.7145 107.563 72.6772 107.784C72.4583 108.963 72.2356 109.758 71.3477 110.625C70.5306 111.034 69.661 110.993 68.7695 110.859C67.9306 110.283 67.6514 109.935 67.4347 108.939C67.3584 107.985 67.4521 107.141 67.6267 106.209C67.6576 106.033 67.6884 105.857 67.7202 105.675C67.8221 105.098 67.9277 104.522 68.0335 103.945C68.1058 103.542 68.178 103.138 68.2501 102.735C68.4014 101.89 68.5545 101.046 68.7089 100.203C68.9061 99.1244 69.0993 98.0454 69.2912 96.9661C69.4397 96.133 69.5902 95.3003 69.7412 94.4676C69.8132 94.0701 69.8845 93.6724 69.9554 93.2746C70.0549 92.7174 70.157 92.1607 70.2598 91.604C70.2883 91.4416 70.3168 91.2791 70.3462 91.1117C70.5993 89.7661 70.9192 88.5425 71.9189 87.5684C73.0414 86.8566 74.1266 86.8136 75.332 87.4219Z" fill="white"/>
<path d="M53.4912 86.8799C53.7325 86.8791 53.9737 86.8784 54.2223 86.8776C56.847 86.8959 59.4676 87.221 61.514 89.0131C63.1599 90.7748 63.7743 92.4968 63.756 94.8994C63.655 96.9741 62.812 98.6695 61.2842 100.078C60.4809 100.733 59.5939 101.215 58.6914 101.719C59.1208 102.222 59.5505 102.725 59.9805 103.228C60.1079 103.377 60.2353 103.526 60.3666 103.679C61.2456 104.705 62.1368 105.718 63.0447 106.718C63.7086 107.496 63.6947 108.167 63.6755 109.157C63.6133 109.688 63.6133 109.688 63.2764 110.391C62.4419 111.042 61.6186 111.207 60.5664 111.094C59.5185 110.608 58.8069 109.831 58.0469 108.984C57.9248 108.85 57.8028 108.716 57.677 108.578C56.7213 107.521 55.8133 106.431 54.9268 105.314C54.4889 104.785 54.0235 104.31 53.5352 103.828C53.5337 104.085 53.5337 104.085 53.5322 104.347C53.5245 105.127 53.508 105.905 53.4912 106.685C53.4898 106.954 53.4885 107.224 53.4871 107.502C53.4288 109.736 53.4288 109.736 52.7322 110.446C51.7464 111.121 51.2315 111.137 50.0653 110.995C49.5508 110.859 49.5508 110.859 48.9648 110.303C48.3512 109.229 48.3429 108.302 48.3411 107.098C48.34 106.906 48.3388 106.714 48.3376 106.516C48.3342 105.88 48.3326 105.243 48.3313 104.607C48.3299 104.165 48.3286 103.723 48.3272 103.28C48.3248 102.353 48.3234 101.425 48.3226 100.497C48.3213 99.3093 48.3157 98.1217 48.309 96.934C48.3046 96.0202 48.3034 95.1064 48.3031 94.1925C48.3024 93.7547 48.3005 93.3169 48.2974 92.8791C48.2934 92.266 48.2938 91.6529 48.2954 91.0398C48.2932 90.8596 48.291 90.6795 48.2888 90.4939C48.2975 89.3748 48.4757 88.6006 49.082 87.6563C50.4767 86.7788 51.8816 86.855 53.4912 86.8799ZM53.3008 91.875C53.3008 93.5766 53.3008 95.2781 53.3008 97.0313C55.9513 97.2116 55.9513 97.2116 58.2227 96.0938C58.7982 95.2304 58.8813 94.5181 58.6914 93.5156C57.9707 92.5406 57.2941 92.1112 56.1133 91.875C55.1719 91.8401 54.2436 91.8541 53.3008 91.875Z" fill="white"/>
<path d="M42.9882 89.5312C43.5039 90.1876 43.4559 90.5332 43.4423 91.3916C43.3217 92.117 43.1796 92.4082 42.7538 93.0469C41.7786 93.697 41.0817 93.7433 39.9413 93.5156C39.2756 93.2461 38.6379 92.9373 37.9922 92.623C36.3378 91.8885 34.8447 92.063 33.1289 92.5461C31.302 93.254 29.971 94.553 29.1601 96.3281C28.4246 98.3141 28.5473 100.079 29.3194 102.028C30.1937 103.803 31.5593 104.954 33.3788 105.703C35.1406 106.135 36.9306 106.163 38.5351 105.234C38.8437 104.953 39.1463 104.664 39.4433 104.37C40.1647 103.7 40.6364 103.463 41.6259 103.418C42.4637 103.484 42.7513 103.592 43.4716 104.077C44.025 104.916 44.1775 105.399 44.1601 106.406C43.4709 108.211 41.921 109.437 40.194 110.24C36.7853 111.512 33.3968 111.393 30.0683 109.893C26.942 108.217 24.8735 105.469 23.8436 102.138C23.0748 99.2005 23.4867 96.0501 24.8535 93.3545C26.6431 90.3337 29.116 88.355 32.4835 87.356C36.0247 86.4535 40.1785 87.1062 42.9882 89.5312Z" fill="white"/>
<path d="M59.6289 115.313C60.3613 115.752 60.3613 115.752 60.8007 116.484C61.0325 117.662 60.9828 118.525 60.3613 119.561C59.3254 120.182 58.4631 120.232 57.2851 120C56.5527 119.561 56.5527 119.561 56.1132 118.828C55.8815 117.65 55.9312 116.788 56.5527 115.752C57.5886 115.13 58.4508 115.081 59.6289 115.313Z" fill="white"/>
</g>
<defs>
<clipPath id="clip0_162_94">
<rect width="120" height="120" fill="white" transform="translate(0.332031)"/>
</clipPath>
</defs>
</svg>
