<svg width="121" height="120" viewBox="0 0 121 120" fill="none" xmlns="http://www.w3.org/2000/svg">
<g clip-path="url(#clip0_162_104)">
<path d="M63.7761 -0.0983978C64.2554 -0.10012 64.7346 -0.102133 65.2138 -0.104413C66.5097 -0.109602 67.8055 -0.110308 69.1015 -0.109863C70.1864 -0.109835 71.2714 -0.111846 72.3564 -0.113795C74.9182 -0.118297 77.48 -0.118981 80.0419 -0.117395C82.677 -0.11584 85.312 -0.121194 87.9471 -0.12989C90.2162 -0.137105 92.4851 -0.139745 94.7542 -0.138835C96.1064 -0.138352 97.4586 -0.139604 98.8108 -0.145372C100.084 -0.150623 101.357 -0.150125 102.63 -0.145389C103.094 -0.144596 103.559 -0.145758 104.023 -0.149135C109.128 -0.183664 112.968 1.04316 116.681 4.68752C116.831 4.83163 116.981 4.97575 117.135 5.12423C119.862 7.96675 120.773 11.738 120.764 15.5596C120.766 15.8625 120.768 16.1655 120.77 16.4776C120.775 17.3014 120.776 18.1252 120.775 18.949C120.775 19.6408 120.777 20.3325 120.779 21.0243C120.784 22.6591 120.784 24.2939 120.783 25.9287C120.781 27.6053 120.787 29.2818 120.795 30.9583C120.803 32.4063 120.805 33.8542 120.804 35.3022C120.804 36.1632 120.805 37.0241 120.811 37.8851C120.848 43.8104 120.278 48.1189 115.978 52.5C115.762 52.7248 115.762 52.7248 115.541 52.9541C112.398 55.9696 108.476 56.5841 104.308 56.5091C103.979 56.5014 103.65 56.4933 103.322 56.4844C103.429 56.7001 103.537 56.9158 103.648 57.1381C104.632 59.1539 105.343 61.1027 105.9 63.2813C106.083 63.2822 106.266 63.2832 106.454 63.2842C107.3 63.292 108.145 63.3086 108.991 63.3252C109.422 63.3273 109.422 63.3273 109.862 63.3293C113.153 63.4075 115.634 64.4505 118.01 66.6989C119.802 68.5964 120.695 70.932 120.711 73.498C120.713 73.6762 120.715 73.8543 120.716 74.0378C120.722 74.6268 120.726 75.2158 120.73 75.8048C120.731 76.1081 120.731 76.1081 120.733 76.4175C120.74 77.4893 120.744 78.5611 120.748 79.633C120.751 80.5152 120.757 81.3974 120.767 82.2795C120.778 83.349 120.784 84.4183 120.786 85.4878C120.787 85.8928 120.791 86.2979 120.797 86.7029C120.846 90.4613 120.143 93.2054 117.482 96.0169C115.684 97.7147 113.388 98.7059 110.935 98.6948C110.642 98.694 110.349 98.6933 110.047 98.6925C109.742 98.6905 109.437 98.6886 109.123 98.6865C108.659 98.685 108.659 98.685 108.187 98.6833C107.424 98.6806 106.662 98.6767 105.9 98.6719C105.852 98.9092 105.804 99.1466 105.755 99.3911C104.927 103.35 103.156 107.089 100.509 110.156C100.338 110.359 100.167 110.562 99.991 110.772C95.6098 115.814 89.589 119.171 82.9311 120C82.3076 120.022 81.6902 120.034 81.0669 120.033C80.8861 120.034 80.7053 120.034 80.5191 120.035C79.917 120.037 79.3149 120.037 78.7128 120.038C78.2795 120.039 77.8463 120.04 77.413 120.041C76.2381 120.044 75.0633 120.046 73.8884 120.047C73.153 120.048 72.4177 120.049 71.6824 120.05C69.3779 120.053 67.0734 120.055 64.7689 120.056C62.1159 120.057 59.4629 120.061 56.8099 120.068C54.7547 120.073 52.6995 120.075 50.6443 120.076C49.419 120.076 48.1937 120.077 46.9684 120.082C45.8142 120.085 44.6599 120.086 43.5057 120.084C43.0846 120.084 42.6635 120.085 42.2425 120.087C35.2738 120.123 28.8735 117.856 23.6342 113.203C23.4258 113.018 23.2173 112.833 23.0025 112.643C19.055 108.906 16.4409 104 15.4311 98.6719C15.2483 98.678 15.0654 98.6842 14.877 98.6905C14.0315 98.7152 13.186 98.7302 12.3403 98.7451C12.0528 98.755 11.7653 98.7648 11.4692 98.7749C8.16029 98.8185 5.69961 97.7399 3.3205 95.4886C1.52922 93.5911 0.635594 91.2555 0.620269 88.6895C0.618352 88.5114 0.616435 88.3333 0.614461 88.1497C0.608651 87.5608 0.604767 86.9718 0.601386 86.3828C0.600138 86.1806 0.598888 85.9784 0.597602 85.77C0.591341 84.6982 0.586803 83.6264 0.583419 82.5546C0.580303 81.6723 0.573795 80.7902 0.564193 79.908C0.552555 78.8386 0.546816 77.7692 0.54516 76.6998C0.543598 76.2947 0.540067 75.8897 0.534409 75.4847C0.485086 71.7381 1.1738 68.943 3.86524 66.1624C4.88465 65.215 6.4942 63.9844 7.9311 63.9844C7.85375 56.7141 7.77641 49.4438 7.69672 41.9531C6.53657 41.3731 6.53657 41.3731 5.35297 40.7813C3.0424 39.1339 1.58955 36.9589 0.899848 34.2188C0.797999 33.454 0.776729 32.7046 0.78266 31.9336C0.784001 31.7293 0.785342 31.525 0.786723 31.3144C0.868924 28.3178 2.05469 26.1268 4.08314 23.9832C6.5512 21.6532 9.3524 21.1946 12.5856 21.2485C15.4773 21.3761 17.7494 22.8281 19.6938 24.8877C21.9751 27.6916 22.3053 30.7466 21.9936 34.2188C21.3781 36.968 19.7728 39.1165 17.5405 40.7813C16.767 41.168 15.9936 41.5547 15.1967 41.9531C15.1194 49.0688 15.042 56.1844 14.9623 63.5156C15.117 63.4383 15.2717 63.361 15.4311 63.2813C15.609 62.7453 15.7649 62.2139 15.9145 61.6699C16.9391 58.2078 18.4716 55.0204 20.8217 52.2656C21.0787 51.9602 21.0787 51.9602 21.3408 51.6486C25.7206 46.6145 31.7434 43.2413 38.3998 42.4219C39.0517 42.393 39.7021 42.3944 40.3545 42.399C40.6241 42.3995 40.6241 42.3995 40.8992 42.4C41.4675 42.4013 42.0357 42.4043 42.604 42.4072C42.9917 42.4084 43.3794 42.4095 43.7671 42.4105C44.7124 42.413 45.6577 42.4171 46.603 42.4219C46.6014 42.1952 46.6014 42.1952 46.5997 41.9639C46.5737 38.2698 46.5544 34.5758 46.5423 30.8817C46.5362 29.0951 46.528 27.3087 46.5146 25.5222C46.5028 23.9634 46.4953 22.4046 46.4927 20.8457C46.4912 20.0218 46.4877 19.1981 46.4791 18.3743C46.424 12.8974 46.8571 8.66727 50.7586 4.52639C50.9341 4.34753 51.1096 4.16867 51.2905 3.9844C51.4346 3.83454 51.5787 3.68469 51.7272 3.53029C55.1081 0.286887 59.3425 -0.105949 63.7761 -0.0983978ZM55.5092 10.0781C53.9199 12.1583 53.6041 14.3742 53.606 16.9369C53.6058 17.0974 53.6056 17.2579 53.6054 17.4232C53.605 17.9551 53.6063 18.4869 53.6076 19.0187C53.6077 19.4023 53.6076 19.7859 53.6075 20.1695C53.6074 21.2066 53.6088 22.2437 53.6105 23.2808C53.6119 24.3662 53.6121 25.4516 53.6123 26.5371C53.6131 28.5906 53.615 30.6441 53.6173 32.6976C53.62 35.0362 53.6213 37.3749 53.6224 39.7135C53.6249 44.5226 53.629 49.3316 53.6342 54.1406C54.0824 53.9308 54.5304 53.7206 54.9779 53.5094C55.3797 53.3208 55.7826 53.1344 56.1863 52.9499C57.1997 52.4809 58.1597 52.0045 59.0858 51.3786C62.9209 48.9006 67.3896 49.3711 71.7788 49.418C72.9537 49.4279 74.1286 49.424 75.3035 49.4215C77.5241 49.4188 79.7445 49.4275 81.965 49.4408C85.2235 49.4599 88.4821 49.4625 91.7406 49.464C92.2233 49.4642 92.706 49.4645 93.1887 49.4647C93.4245 49.4648 93.6603 49.4649 93.9032 49.465C95.2969 49.4659 96.6906 49.4705 98.0842 49.4783C98.9517 49.4829 99.8191 49.4857 100.687 49.4882C101.086 49.4898 101.486 49.4923 101.886 49.4956C105.495 49.5254 108.563 49.3976 111.332 46.8576C113.532 44.5348 113.67 41.7297 113.668 38.6899C113.669 38.44 113.67 38.1902 113.671 37.9327C113.673 37.1107 113.673 36.2887 113.674 35.4666C113.674 34.8922 113.675 34.3178 113.676 33.7434C113.677 32.5406 113.678 31.3379 113.678 30.1351C113.678 28.5984 113.681 27.0617 113.685 25.525C113.687 24.3389 113.688 23.1528 113.688 21.9667C113.688 21.4003 113.689 20.834 113.691 20.2677C113.693 19.4736 113.693 18.6796 113.691 17.8855C113.692 17.6544 113.694 17.4234 113.695 17.1853C113.681 13.9927 113.09 11.5175 110.883 9.15163C108.213 6.73518 104.549 6.96212 101.178 6.97062C100.752 6.96998 100.326 6.96915 99.9005 6.96813C98.7509 6.966 97.6013 6.96682 96.4517 6.96831C95.2449 6.9695 94.0381 6.96839 92.8313 6.96766C90.8052 6.96681 88.7791 6.96792 86.753 6.97016C84.4153 6.97271 82.0776 6.97188 79.7399 6.9693C77.7277 6.96717 75.7154 6.96688 73.7032 6.9681C72.5037 6.96883 71.3041 6.96894 70.1045 6.96738C68.9764 6.96602 67.8483 6.96698 66.7202 6.96968C66.3078 6.97029 65.8954 6.97012 65.4831 6.96909C61.6047 6.96021 58.3141 7.11708 55.5092 10.0781ZM8.42914 30.0293C8.03309 31.0415 8.01088 31.975 8.16547 33.0469C8.67242 34.0796 9.19597 34.7341 10.2748 35.1563C11.4569 35.3166 12.3446 35.2908 13.4243 34.7608C14.2115 34.0503 14.6561 33.5763 14.8021 32.5003C14.8644 31.1603 14.7206 30.3276 13.7905 29.2969C12.8911 28.5034 12.0013 28.4736 10.8461 28.5114C9.7533 28.669 9.13768 29.2263 8.42914 30.0293ZM27.7861 55.3418C22.4784 60.9626 21.9152 67.492 21.9313 74.8169C21.931 75.3315 21.9306 75.8461 21.93 76.3607C21.9293 77.4322 21.9303 78.5037 21.9325 79.5753C21.9352 80.9367 21.9336 82.2982 21.9308 83.6597C21.9291 84.7202 21.9297 85.7807 21.9309 86.8413C21.9312 87.3428 21.9308 87.8443 21.9297 88.3459C21.863 93.9669 21.863 93.9669 23.0629 99.419C23.1535 99.6771 23.1535 99.6771 23.2459 99.9405C25.1536 105.101 28.997 108.957 33.9522 111.271C35.7815 112.035 37.5755 112.529 39.5465 112.756C39.7199 112.776 39.8932 112.796 40.0718 112.817C41.8997 113.013 43.7188 113.035 45.5556 113.029C45.9238 113.03 46.292 113.031 46.6602 113.032C47.6471 113.034 48.634 113.033 49.6209 113.032C50.6619 113.031 51.7029 113.032 52.7439 113.032C54.4909 113.033 56.2378 113.032 57.9848 113.03C59.9942 113.027 62.0036 113.028 64.013 113.031C65.7494 113.033 67.4858 113.033 69.2222 113.032C70.2544 113.031 71.2865 113.031 72.3187 113.033C73.2899 113.034 74.261 113.033 75.2321 113.03C75.585 113.03 75.9378 113.03 76.2907 113.031C79.4398 113.039 82.7782 112.97 85.7729 111.899C85.946 111.839 86.1192 111.779 86.2976 111.716C91.4637 109.818 95.3275 105.967 97.64 101.009C99.4403 96.7008 99.4097 92.1996 99.3996 87.605C99.3999 87.0904 99.4004 86.5758 99.401 86.0612C99.4016 84.9897 99.4007 83.9182 99.3985 82.8467C99.3958 81.4852 99.3973 80.1237 99.4001 78.7622C99.4018 77.7017 99.4013 76.6412 99.4001 75.5806C99.3998 75.0791 99.4001 74.5776 99.4012 74.0761C99.4672 68.4552 99.4672 68.4552 98.268 63.0029C98.1792 62.7468 98.1792 62.7468 98.0887 62.4856C97.4209 60.6642 96.4708 59.0031 95.353 57.4219C95.2411 57.2569 95.1293 57.092 95.014 56.922C94.0438 56.2126 93.0095 56.3044 91.8354 56.2701C91.5711 56.2592 91.3068 56.2483 91.0345 56.2371C90.1542 56.2033 89.2738 56.1776 88.3931 56.1539C88.0894 56.1451 87.7858 56.1364 87.4729 56.1274C85.3383 56.0676 83.2038 56.0315 81.0685 56.007C80.5595 56.001 80.0505 55.9942 79.5416 55.9873C69.9063 55.8642 61.101 56.0297 53.168 62.2451C51.894 63.216 50.9659 63.4392 49.364 63.4022C48.4108 63.2253 47.7717 62.8327 47.1232 62.1188C46.6718 60.9936 46.7245 59.8787 46.7174 58.6771C46.7132 58.4134 46.709 58.1498 46.7047 57.8781C46.692 57.0376 46.684 56.1971 46.6762 55.3565C46.6684 54.7859 46.6604 54.2154 46.652 53.6449C46.632 52.2477 46.616 50.8504 46.603 49.4531C45.8251 49.4488 45.0472 49.4463 44.2693 49.444C44.0516 49.4428 43.8339 49.4415 43.6096 49.4403C37.6081 49.4271 32.1281 51.045 27.7861 55.3418ZM8.91254 71.5869C7.82325 72.863 7.66873 73.8197 7.66268 75.4604C7.66118 75.7366 7.65969 76.0127 7.65815 76.2973C7.65788 76.5937 7.65762 76.8901 7.65736 77.1955C7.65658 77.502 7.65579 77.8086 7.65499 78.1245C7.65359 78.7726 7.65315 79.4208 7.65329 80.069C7.65332 80.8961 7.65012 81.7233 7.64608 82.5504C7.64283 83.3436 7.64298 84.1367 7.64271 84.9298C7.64102 85.2253 7.63934 85.5207 7.6376 85.8252C7.59869 88.3085 7.59869 88.3085 8.73676 90.4248C10.6941 92.0957 12.2296 91.6406 14.9623 91.6406C14.9623 84.6797 14.9623 77.7188 14.9623 70.5469C11.6964 70.3107 11.6964 70.3107 8.91254 71.5869ZM106.369 70.5469C106.369 77.5078 106.369 84.4688 106.369 91.6406C109.635 91.8768 109.635 91.8768 112.418 90.6006C113.508 89.3246 113.662 88.3678 113.668 86.7271C113.67 86.451 113.671 86.1748 113.673 85.8903C113.673 85.5939 113.673 85.2975 113.674 84.9921C113.674 84.6855 113.675 84.3789 113.676 84.063C113.677 83.4149 113.678 82.7667 113.678 82.1186C113.678 81.2914 113.681 80.4643 113.685 79.6371C113.688 78.844 113.688 78.0509 113.688 77.2577C113.69 76.9623 113.692 76.6668 113.693 76.3624C113.732 73.879 113.732 73.879 112.594 71.7627C110.637 70.0919 109.101 70.5469 106.369 70.5469Z" fill="white"/>
<path d="M64.7067 31.7841C64.8752 31.7829 65.0437 31.7816 65.2172 31.7803C65.7804 31.777 66.3434 31.7786 66.9066 31.7803C67.3109 31.779 67.7152 31.7773 68.1195 31.7754C69.2168 31.7712 70.314 31.7715 71.4114 31.7728C72.3276 31.7735 73.2437 31.7721 74.1599 31.7707C76.3214 31.7674 78.4829 31.7678 80.6443 31.7704C82.8739 31.7731 85.1035 31.7698 87.3331 31.7636C89.2477 31.7584 91.1624 31.7568 93.077 31.7582C94.2204 31.759 95.3637 31.7584 96.5071 31.7544C97.5823 31.7508 98.6574 31.7517 99.7326 31.7561C100.127 31.757 100.521 31.7562 100.916 31.7538C101.455 31.7507 101.993 31.7534 102.532 31.7575C102.833 31.7576 103.135 31.7576 103.445 31.7577C104.628 31.9281 105.371 32.4333 106.099 33.37C106.588 34.4832 106.514 35.6068 106.369 36.7969C105.858 37.8751 105.32 38.3879 104.259 38.9062C103.475 38.9954 103.475 38.9954 102.562 38.9971C102.309 38.999 102.309 38.999 102.051 39.0009C101.488 39.0043 100.925 39.0026 100.362 39.0009C99.9576 39.0023 99.5533 39.0039 99.1491 39.0058C98.0518 39.01 96.9545 39.0097 95.8572 39.0084C94.941 39.0077 94.0248 39.0091 93.1086 39.0105C90.9471 39.0138 88.7857 39.0134 86.6242 39.0108C84.3946 39.0081 82.1651 39.0114 79.9355 39.0177C78.0208 39.0229 76.1062 39.0244 74.1915 39.023C73.0482 39.0223 71.9048 39.0228 70.7615 39.0269C69.6863 39.0305 68.6112 39.0296 67.536 39.0251C67.1416 39.0243 66.7472 39.025 66.3529 39.0275C65.814 39.0305 65.2754 39.0278 64.7365 39.0237C64.4351 39.0237 64.1338 39.0236 63.8233 39.0236C62.641 38.8532 61.8975 38.3479 61.17 37.4112C60.6806 36.298 60.7548 35.1744 60.8999 33.9844C61.7264 32.2396 62.8406 31.7877 64.7067 31.7841Z" fill="white"/>
<path d="M64.7067 17.7216C64.8752 17.7204 65.0437 17.7191 65.2172 17.7178C65.7804 17.7145 66.3434 17.7161 66.9066 17.7178C67.3109 17.7165 67.7152 17.7148 68.1195 17.7129C69.2168 17.7087 70.314 17.709 71.4114 17.7103C72.3276 17.711 73.2437 17.7096 74.1599 17.7082C76.3214 17.7049 78.4829 17.7053 80.6443 17.7079C82.8739 17.7106 85.1035 17.7073 87.3331 17.7011C89.2477 17.6959 91.1624 17.6943 93.077 17.6957C94.2204 17.6965 95.3637 17.6959 96.5071 17.6919C97.5823 17.6883 98.6574 17.6892 99.7326 17.6936C100.127 17.6945 100.521 17.6937 100.916 17.6913C101.455 17.6882 101.993 17.6909 102.532 17.695C102.833 17.6951 103.135 17.6951 103.445 17.6952C104.628 17.8656 105.371 18.3708 106.099 19.3075C106.588 20.4207 106.514 21.5443 106.369 22.7344C105.858 23.8126 105.32 24.3254 104.259 24.8437C103.475 24.9329 103.475 24.9329 102.562 24.9346C102.309 24.9365 102.309 24.9365 102.051 24.9384C101.488 24.9418 100.925 24.9401 100.362 24.9384C99.9576 24.9398 99.5533 24.9414 99.1491 24.9433C98.0518 24.9475 96.9545 24.9472 95.8572 24.9459C94.941 24.9452 94.0248 24.9466 93.1086 24.948C90.9471 24.9513 88.7857 24.9509 86.6242 24.9483C84.3946 24.9456 82.1651 24.9489 79.9355 24.9552C78.0208 24.9604 76.1062 24.9619 74.1915 24.9605C73.0482 24.9598 71.9048 24.9603 70.7615 24.9644C69.6863 24.968 68.6112 24.9671 67.536 24.9626C67.1416 24.9618 66.7472 24.9625 66.3529 24.965C65.814 24.968 65.2754 24.9653 64.7365 24.9612C64.4351 24.9612 64.1338 24.9611 63.8233 24.9611C62.641 24.7907 61.8975 24.2854 61.17 23.3487C60.6806 22.2355 60.7548 21.1119 60.8999 19.9219C61.7264 18.1771 62.8406 17.7252 64.7067 17.7216Z" fill="white"/>
<path d="M53.8878 91.5459C54.0503 91.5443 54.2128 91.5427 54.3803 91.541C54.915 91.5367 55.4496 91.5376 55.9844 91.539C56.3577 91.5379 56.731 91.5367 57.1043 91.5352C57.8859 91.5331 58.6674 91.5337 59.449 91.536C60.4486 91.5387 61.448 91.534 62.4476 91.5272C63.2183 91.5229 63.9889 91.5229 64.7597 91.5243C65.1281 91.5243 65.4965 91.5229 65.865 91.52C66.3811 91.5165 66.8968 91.519 67.4129 91.523C67.8526 91.5231 67.8526 91.5231 68.3012 91.5231C69.4751 91.6951 70.2197 92.2053 70.9423 93.1356C71.4317 94.2488 71.3575 95.3724 71.2124 96.5625C70.7014 97.6412 70.1633 98.1516 69.103 98.6718C68.3309 98.7627 68.3309 98.7627 67.4432 98.7665C67.2807 98.7681 67.1182 98.7698 66.9508 98.7714C66.416 98.7757 65.8814 98.7748 65.3466 98.7735C64.9733 98.7745 64.6 98.7758 64.2267 98.7772C63.4452 98.7793 62.6636 98.7787 61.8821 98.7764C60.8825 98.7737 59.8831 98.7784 58.8835 98.7853C58.1128 98.7896 57.3421 98.7895 56.5714 98.7882C56.2029 98.7881 55.8345 98.7895 55.4661 98.7925C54.95 98.796 54.4342 98.7934 53.9181 98.7894C53.625 98.7894 53.3319 98.7893 53.0299 98.7893C51.8559 98.6173 51.1113 98.1071 50.3887 97.1768C49.8993 96.0636 49.9735 94.94 50.1186 93.75C50.9353 92.026 52.04 91.5539 53.8878 91.5459Z" fill="white"/>
<path d="M79.6498 70.5469C80.7249 71.0561 81.2603 71.5868 81.7591 72.6563C81.8635 73.3959 81.8633 74.1285 81.8608 74.8746C81.862 75.0881 81.8632 75.3016 81.8645 75.5216C81.866 75.9721 81.8657 76.4226 81.8637 76.8731C81.8617 77.5604 81.8684 78.2472 81.8759 78.9345C81.8762 79.3732 81.8761 79.8119 81.8754 80.2506C81.8794 80.5571 81.8794 80.5571 81.8834 80.8699C81.8688 82.1522 81.6771 82.89 80.8216 83.9063C79.5976 84.857 78.3247 84.7908 76.8373 84.6094C75.7622 84.1001 75.2268 83.5694 74.7279 82.5C74.6235 81.7604 74.6238 81.0278 74.6263 80.2817C74.625 80.0682 74.6238 79.8547 74.6225 79.6347C74.621 79.1842 74.6213 78.7337 74.6233 78.2832C74.6253 77.5959 74.6186 76.909 74.6112 76.2218C74.6108 75.7831 74.6109 75.3444 74.6116 74.9057C74.609 74.7013 74.6064 74.4969 74.6036 74.2864C74.6182 73.004 74.8099 72.2663 75.6654 71.25C76.8894 70.2993 78.1623 70.3655 79.6498 70.5469Z" fill="white"/>
<path d="M44.4935 70.5469C45.5686 71.0561 46.104 71.5868 46.6029 72.6563C46.7073 73.3959 46.707 74.1285 46.7045 74.8746C46.7057 75.0881 46.707 75.3016 46.7082 75.5216C46.7097 75.9721 46.7094 76.4226 46.7074 76.8731C46.7054 77.5604 46.7122 78.2472 46.7196 78.9345C46.72 79.3732 46.7199 79.8119 46.7192 80.2506C46.7231 80.5571 46.7231 80.5571 46.7271 80.8699C46.7125 82.1522 46.5209 82.89 45.6654 83.9063C44.4413 84.857 43.1685 84.7908 41.681 84.6094C40.6059 84.1001 40.0705 83.5694 39.5716 82.5C39.4672 81.7604 39.4675 81.0278 39.47 80.2817C39.4688 80.0682 39.4676 79.8547 39.4663 79.6347C39.4648 79.1842 39.4651 78.7337 39.4671 78.2832C39.4691 77.5959 39.4623 76.909 39.4549 76.2218C39.4545 75.7831 39.4547 75.3444 39.4554 74.9057C39.4527 74.7013 39.4501 74.4969 39.4474 74.2864C39.462 73.004 39.6536 72.2663 40.5091 71.25C41.7332 70.2993 43.006 70.3655 44.4935 70.5469Z" fill="white"/>
</g>
<defs>
<clipPath id="clip0_162_104">
<rect width="120" height="120" fill="white" transform="translate(0.665405)"/>
</clipPath>
</defs>
</svg>
