<svg width="121" height="120" viewBox="0 0 121 120" fill="none" xmlns="http://www.w3.org/2000/svg">
<path d="M34.181 14.7656C36.1146 14.7656 38.0482 14.7656 40.0404 14.7656C41.2123 17.5195 41.2123 17.5195 41.2123 18.0469C41.512 18.1 41.8117 18.1532 42.1205 18.208C43.0158 18.3995 43.7226 18.7036 44.5228 19.1455C45.5593 19.6886 46.1521 19.8015 47.306 19.4531C47.5864 19.3274 47.8668 19.2018 48.1556 19.0723C49.0472 18.7091 49.2339 18.6614 50.1185 18.9844C50.7457 19.4576 51.293 19.996 51.847 20.5518C52.0002 20.6954 52.1534 20.8391 52.3112 20.9871C53.3958 22.0637 53.3958 22.0637 53.4144 23.0063C53.1818 23.6281 52.9179 24.1983 52.6088 24.7852C52.3054 25.5104 52.1799 25.8516 52.4028 26.6135C52.6101 27.0091 52.8293 27.3987 53.0592 27.7817C53.6044 28.7065 54.1029 29.8476 54.1029 30.9375C54.3404 31.0055 54.3404 31.0055 54.5826 31.0748C54.7917 31.1359 55.0008 31.1969 55.2162 31.2598C55.4228 31.3196 55.6295 31.3794 55.8424 31.441C56.4467 31.6406 56.4467 31.6406 57.3842 32.1094C57.3842 34.043 57.3842 35.9766 57.3842 37.9688C56.6518 38.2008 56.6518 38.2008 55.9047 38.4375C54.6497 38.8968 54.6497 38.8968 53.8832 39.9463C53.8496 40.1064 53.8161 40.2665 53.7816 40.4315C53.6193 41.0745 53.3353 41.6034 53.0286 42.1881C52.3311 43.5603 52.3311 43.5603 52.4064 45.0485C52.7254 45.7312 52.7254 45.7312 53.1169 46.3348C53.3998 46.875 53.3998 46.875 53.3498 47.3237C53.1238 47.9229 52.8313 48.2268 52.3735 48.6731C52.2156 48.8287 52.0578 48.9843 51.8951 49.1446C51.7294 49.3044 51.5637 49.4642 51.3929 49.6289C51.2263 49.7924 51.0597 49.9558 50.888 50.1242C50.4768 50.5271 50.0641 50.9283 49.6498 51.3281C49.3175 51.2216 48.9855 51.114 48.6537 51.0059C48.4688 50.946 48.2839 50.8862 48.0934 50.8246C47.5404 50.625 47.5404 50.625 47.0374 50.3636C46.4181 50.0681 46.0795 50.1947 45.431 50.3906C45.0066 50.5759 44.5867 50.7718 44.1713 50.9766C43.1566 51.453 42.3271 51.7226 41.2123 51.7969C41.167 51.9525 41.1216 52.1081 41.075 52.2684C41.0139 52.4753 40.9529 52.6823 40.89 52.8955C40.8003 53.2014 40.8003 53.2014 40.7087 53.5135C40.5147 54.1231 40.278 54.7185 40.0404 55.3125C38.1068 55.3125 36.1732 55.3125 34.181 55.3125C33.0092 52.3242 33.0092 52.3242 33.0092 51.7969C32.7705 51.7733 32.5318 51.7497 32.2859 51.7255C31.0749 51.5103 30.1304 50.9922 29.0449 50.4327C28.246 50.1273 27.9461 50.1182 27.1498 50.3906C26.6066 50.6352 26.081 50.903 25.5522 51.1771C25.0404 51.3281 25.0404 51.3281 24.5908 51.1483C23.7429 50.6461 23.0881 49.9505 22.389 49.2627C22.2348 49.1181 22.0806 48.9736 21.9217 48.8246C20.8251 47.7464 20.8251 47.7464 20.8088 46.9528C21.1342 46.2333 21.4746 45.5303 21.8425 44.8315C22.0496 44.0984 21.8465 43.8107 21.5248 43.125C21.4257 42.8255 21.3301 42.5247 21.2373 42.2232C20.7119 40.4288 20.7119 40.4288 19.6589 38.9383C19.1822 38.7017 18.7605 38.561 18.2435 38.4375C17.7795 38.2828 17.3154 38.1281 16.8373 37.9688C16.8373 36.0352 16.8373 34.1016 16.8373 32.1094C17.5544 31.8118 18.2716 31.5143 18.9888 31.2167C19.3698 31.0558 19.7485 30.8881 20.1185 30.7031C20.2817 30.2746 20.425 29.8383 20.558 29.3994C20.8416 28.4939 21.1401 27.6875 21.6127 26.8652C22.0705 26.0614 22.0705 26.0614 21.8617 25.3271C21.7505 25.0903 21.6393 24.8534 21.5248 24.6094C21.3965 24.2443 21.2725 23.8776 21.1522 23.5098C21.0899 23.3205 21.0277 23.1312 20.9636 22.9362C20.9168 22.7922 20.8699 22.6483 20.8217 22.5C21.4106 21.8635 22.0086 21.2363 22.6088 20.6104C22.7758 20.4295 22.9429 20.2487 23.1151 20.0624C24.3812 18.7556 24.3812 18.7556 25.3453 18.7271C25.8394 18.9281 26.3275 19.1439 26.8129 19.3652C27.8879 19.7952 28.4156 19.6024 29.4706 19.1821C29.9444 18.9724 30.418 18.7624 30.8915 18.5522C31.602 18.2816 32.2572 18.1455 33.0092 18.0469C33.0545 17.9082 33.0998 17.7695 33.1465 17.6266C33.2075 17.4414 33.2685 17.2562 33.3314 17.0654C33.3912 16.8832 33.4511 16.7011 33.5127 16.5134C33.7169 15.924 33.9494 15.3447 34.181 14.7656ZM32.306 24.8438C32.1075 24.9404 31.909 25.0371 31.7045 25.1367C28.8763 26.6566 27.065 29.2787 26.1244 32.3145C25.4845 35.5337 26.1512 38.6814 27.9261 41.4194C29.893 44.0738 32.5866 45.6129 35.8217 46.1719C38.9896 46.4321 41.975 45.5836 44.423 43.5324C46.8273 41.2431 48.1964 38.7698 48.3378 35.422C48.3919 32.2392 47.3182 29.356 45.1381 27.0117C44.168 26.1076 43.0912 25.4482 41.9154 24.8438C41.7284 24.7462 41.5414 24.6486 41.3487 24.548C38.5931 23.3305 34.9658 23.4643 32.306 24.8438Z" fill="white"/>
<path d="M31.3685 70.3125C33.8049 70.5445 33.8049 70.5445 36.2904 70.7812C36.2904 84.4711 36.2904 98.1609 36.2904 112.266C62.742 112.266 89.1935 112.266 116.447 112.266C116.447 113.89 116.447 115.514 116.447 117.188C88.3709 117.188 60.2951 117.188 31.3685 117.188C31.3685 101.719 31.3685 86.25 31.3685 70.3125Z" fill="white"/>
<path d="M105.59 57.366C105.768 57.3642 105.947 57.3623 106.131 57.3603C106.51 57.3571 106.888 57.3546 107.267 57.3527C107.844 57.3487 108.421 57.3384 108.998 57.328C109.366 57.3257 109.734 57.3237 110.102 57.3221C110.273 57.318 110.445 57.3139 110.622 57.3097C111.473 57.3132 111.956 57.3982 112.683 57.8529C113.536 58.7485 113.434 59.6818 113.433 60.8476C113.434 61.0311 113.434 61.2146 113.435 61.4037C113.437 62.0207 113.438 62.6376 113.438 63.2546C113.439 63.6961 113.44 64.1377 113.441 64.5792C113.445 65.7802 113.446 66.9811 113.447 68.182C113.448 68.9319 113.449 69.6819 113.45 70.4318C113.453 72.7771 113.455 75.1223 113.456 77.4676C113.457 80.1769 113.461 82.8862 113.468 85.5955C113.473 87.6884 113.476 89.7814 113.476 91.8744C113.476 93.125 113.478 94.3756 113.482 95.6263C113.486 96.8025 113.486 97.9786 113.484 99.1548C113.484 99.5866 113.485 100.019 113.487 100.45C113.49 101.04 113.489 101.629 113.486 102.218C113.488 102.389 113.49 102.56 113.492 102.737C113.482 103.764 113.329 104.417 112.697 105.234C111.95 105.608 111.14 105.512 110.319 105.516C110.129 105.518 109.939 105.519 109.744 105.52C109.342 105.523 108.941 105.524 108.539 105.525C107.926 105.527 107.312 105.535 106.699 105.542C106.309 105.544 105.918 105.545 105.528 105.546C105.253 105.55 105.253 105.55 104.973 105.554C104.211 105.551 103.655 105.522 102.979 105.156C102.216 104.329 102.35 103.325 102.35 102.269C102.349 102.084 102.348 101.9 102.347 101.71C102.345 101.089 102.344 100.469 102.343 99.8489C102.342 99.4051 102.34 98.9612 102.338 98.5173C102.334 97.3101 102.332 96.1029 102.33 94.8957C102.329 94.1418 102.327 93.388 102.326 92.6341C102.321 90.2766 102.318 87.9191 102.316 85.5615C102.314 82.838 102.308 80.1146 102.298 77.3911C102.291 75.2872 102.288 73.1833 102.287 71.0793C102.286 69.8221 102.284 68.565 102.278 67.3078C102.273 66.1254 102.272 64.9432 102.274 63.7608C102.274 63.3267 102.273 62.8925 102.27 62.4584C102.266 61.866 102.267 61.274 102.27 60.6816C102.268 60.5095 102.265 60.3374 102.262 60.1601C102.277 59.0278 102.517 58.4508 103.322 57.6563C104.042 57.2964 104.8 57.3739 105.59 57.366Z" fill="white"/>
<path d="M36.9792 2.72458C37.1489 2.72479 37.3185 2.72499 37.4933 2.72521C43.3703 2.74858 48.4738 4.26147 53.6345 7.03122C53.7747 6.80886 53.9149 6.5865 54.0593 6.3574C54.572 5.62497 54.572 5.62497 55.2751 5.15622C56.1496 5.02315 56.5344 5.0493 57.2563 5.57462C58.1698 6.54256 58.4155 7.86127 58.7615 9.1113C58.8364 9.36055 58.9113 9.60981 58.9885 9.86661C59.689 12.3185 59.689 12.3185 59.2595 13.5937C57.9351 14.9139 56.4607 14.7223 54.6892 14.7656C54.377 14.7803 54.0648 14.7952 53.7526 14.8105C53.455 14.8198 53.1574 14.8292 52.8508 14.8388C52.5797 14.8476 52.3085 14.8564 52.0291 14.8654C51.1323 14.7442 50.758 14.455 50.1189 13.8281C49.7787 13.1477 49.7972 12.7095 49.8845 11.9531C50.2366 11.4455 50.6457 11.0107 51.0564 10.5468C44.0614 6.75282 36.3522 5.81937 28.6736 8.09232C21.3501 10.4147 15.4864 15.5828 11.9453 22.3595C8.60271 29.0545 8.14709 36.7542 10.4363 43.8574C10.9746 45.4568 11.6636 46.9546 12.4923 48.4246C13.0427 49.4347 13.2152 50.1826 13.0876 51.3281C12.5896 52.0166 12.5896 52.0166 11.9158 52.5C10.9849 52.633 10.344 52.5651 9.57201 52.0312C9.19111 51.4432 8.86383 50.8796 8.54662 50.2588C8.45472 50.0809 8.36282 49.9031 8.26813 49.7199C4.88665 43.0034 3.8338 34.9875 5.58764 27.6562C5.62661 27.4925 5.66558 27.3288 5.70574 27.1601C6.94321 22.1633 9.26883 17.7302 12.6189 13.8281C12.8899 13.51 12.8899 13.51 13.1664 13.1854C19.1694 6.34909 27.9541 2.6978 36.9792 2.72458Z" fill="white"/>
<path d="M63.3603 17.666C64.4109 17.8536 64.6627 18.1795 65.3525 18.9844C65.7132 19.5793 66.0046 20.1961 66.29 20.8301C66.3703 21.0053 66.4506 21.1804 66.5333 21.3609C70.1993 29.5297 70.3562 38.6632 67.2234 46.9978C64.1117 54.8405 57.8609 61.3271 50.1182 64.6875C41.9319 67.9372 32.9139 68.311 24.6933 64.9163C23.2833 64.2984 21.8698 63.6678 20.5869 62.8125C20.4854 63.0349 20.3839 63.2572 20.2793 63.4863C19.8838 64.2188 19.8838 64.2188 19.1807 64.6875C17.846 64.8358 17.846 64.8358 17.3057 64.6875C16.1874 63.474 15.8976 62.1594 15.4746 60.6006C15.3986 60.3382 15.3226 60.0758 15.2444 59.8055C15.1385 59.4236 15.1385 59.4236 15.0306 59.0341C14.9666 58.8035 14.9026 58.5728 14.8367 58.3352C14.7133 57.5679 14.772 57.0013 14.9619 56.25C16.3017 54.9102 18.3668 55.244 20.1182 55.2246C20.4191 55.2158 20.72 55.2071 21.03 55.1981C21.4633 55.194 21.4633 55.194 21.9053 55.1898C22.1693 55.1852 22.4334 55.1805 22.7054 55.1757C23.3994 55.3125 23.3994 55.3125 23.9524 55.8548C24.4653 56.6946 24.5096 57.1577 24.3369 58.125C23.9067 58.5746 23.4258 58.9154 22.9307 59.2969C30.2337 63.0132 38.0152 64.2943 45.9434 61.7139C53.2263 59.1941 59.1567 54.1427 62.5556 47.1844C63.3363 45.4919 63.9215 43.7486 64.415 41.9531C64.4948 41.6637 64.5746 41.3743 64.6567 41.076C66.1704 34.4468 65.0681 26.8897 61.576 21.0425C61.2127 20.3128 61.2167 19.7718 61.3682 18.9844C61.9757 18.1191 62.3154 17.8526 63.3603 17.666Z" fill="white"/>
<path d="M65.3867 71.3215C65.6672 71.3251 65.6672 71.3251 65.9535 71.3287C66.1476 71.3276 66.3417 71.3265 66.5418 71.3253C66.9515 71.3245 67.3613 71.3267 67.771 71.3316C68.3978 71.3379 69.0236 71.3316 69.6504 71.3241C70.0489 71.3249 70.4475 71.3264 70.846 71.3287C71.0331 71.3263 71.2201 71.324 71.4128 71.3215C72.2854 71.3399 72.738 71.3709 73.371 71.9957C73.8463 72.7444 73.9081 73.1232 73.9094 74.0009C73.9121 74.2694 73.9147 74.5379 73.9174 74.8145C73.9155 75.1068 73.9136 75.3992 73.9117 75.7004C73.913 76.0131 73.9146 76.3258 73.9167 76.6385C73.9209 77.4859 73.9193 78.3332 73.9163 79.1807C73.9139 80.068 73.9161 80.9553 73.9176 81.8425C73.9193 83.3323 73.9171 84.8219 73.9126 86.3116C73.9075 88.0337 73.9092 89.7558 73.9143 91.4779C73.9186 92.957 73.9192 94.4361 73.9167 95.9153C73.9153 96.7985 73.9151 97.6816 73.9182 98.5648C73.9214 99.5491 73.9169 100.533 73.9117 101.517C73.9136 101.81 73.9155 102.103 73.9174 102.405C73.9148 102.673 73.9122 102.94 73.9094 103.216C73.9091 103.449 73.9087 103.682 73.9084 103.921C73.7559 104.71 73.4859 104.987 72.8529 105.469C72.1543 105.562 71.5441 105.6 70.846 105.593C70.5548 105.595 70.5548 105.595 70.2578 105.596C69.848 105.597 69.4382 105.595 69.0285 105.591C68.4018 105.586 67.7758 105.591 67.1491 105.597C66.7506 105.596 66.352 105.595 65.9535 105.593C65.7664 105.595 65.5794 105.597 65.3867 105.599C64.5918 105.586 64.0718 105.564 63.4285 105.075C62.9093 104.402 62.8914 104.059 62.8901 103.216C62.8874 102.948 62.8848 102.681 62.8821 102.405C62.884 102.112 62.8859 101.819 62.8878 101.517C62.8862 101.208 62.8845 100.899 62.8828 100.581C62.8786 99.7331 62.8802 98.8857 62.8832 98.0383C62.8856 97.1511 62.8834 96.2639 62.8819 95.3767C62.8802 93.8866 62.8824 92.3965 62.8869 90.9064C62.892 89.1844 62.8904 87.4626 62.8852 85.7406C62.8809 84.2616 62.8803 82.7827 62.8828 81.3038C62.8843 80.4207 62.8845 79.5377 62.8814 78.6546C62.8786 77.8241 62.8805 76.9937 62.8859 76.1632C62.8878 75.7136 62.885 75.264 62.8821 74.8145C62.8847 74.546 62.8874 74.2775 62.8901 74.0009C62.8904 73.7682 62.8908 73.5354 62.8912 73.2956C63.1634 71.8203 63.9441 71.3519 65.3867 71.3215Z" fill="white"/>
<path d="M105.951 42.8536C108.427 42.6888 108.427 42.6888 109.388 43.3685C110.016 44.2472 109.989 44.8671 109.87 45.8935C109.854 46.0664 109.839 46.2393 109.823 46.4174C109.772 46.9615 109.712 47.5039 109.65 48.0469C109.614 48.4009 109.578 48.7549 109.542 49.1089C109.235 51.9178 109.235 51.9178 108.712 52.7344C107.958 53.2733 107.277 53.3328 106.369 53.2031C105.58 52.6075 105.243 52.2629 105.047 51.286C105.019 51.0679 104.991 50.8497 104.962 50.625C104.799 50.8043 104.635 50.9837 104.467 51.1685C101.787 54.0846 98.9967 56.893 96.2035 59.7001C95.6315 60.2754 95.0611 60.8523 94.4922 61.4307C93.7965 62.1379 93.098 62.8423 92.3974 63.5446C92.1333 63.8103 91.8701 64.077 91.608 64.3447C91.2437 64.7164 90.8759 65.0842 90.507 65.4514C90.2994 65.6609 90.0917 65.8705 89.8778 66.0864C89.165 66.635 88.7455 66.7584 87.8529 66.7969C87.2831 66.6969 87.2831 66.6969 86.7217 66.5127C86.5081 66.4443 86.2946 66.376 86.0746 66.3056C85.8463 66.229 85.618 66.1525 85.3828 66.0736C85.1422 65.9956 84.9015 65.9177 84.6536 65.8373C83.8733 65.5838 83.0946 65.3261 82.3158 65.0683C81.7825 64.8945 81.2492 64.721 80.7157 64.5479C79.1874 64.051 77.6606 63.5494 76.1342 63.0469C75.0976 62.7062 74.0609 62.3659 73.0233 62.0282C72.4861 61.8531 71.9495 61.6763 71.4136 61.4974C71.1813 61.4214 70.949 61.3454 70.7097 61.2671C70.5154 61.2026 70.3212 61.1381 70.1211 61.0716C69.3409 60.8812 68.702 60.7674 67.982 61.1725C67.8549 61.2823 67.7278 61.392 67.5969 61.5051C67.4508 61.6281 67.3047 61.7511 67.1541 61.8778C66.9996 62.0122 66.8451 62.1466 66.6859 62.2851C66.3507 62.5674 66.015 62.8491 65.6788 63.1302C65.508 63.2735 65.3371 63.4168 65.1611 63.5645C64.3807 64.2053 63.5726 64.806 62.7601 65.4053C61.3674 66.4373 60.0055 67.5008 58.6561 68.5887C57.5064 69.5147 56.3418 70.4181 55.1686 71.3141C54.5226 71.8085 53.8819 72.3093 53.2423 72.8119C53.0527 72.9606 52.863 73.1092 52.6676 73.2624C52.2933 73.5562 51.9194 73.8506 51.546 74.1457C51.3743 74.2802 51.2027 74.4146 51.0258 74.5532C50.8734 74.6733 50.7209 74.7934 50.5639 74.9171C49.7611 75.489 49.3528 75.7121 48.3461 75.6592C47.5404 75.4687 47.5404 75.4687 47.101 75.2051C46.6916 74.5228 46.6443 73.9118 46.6029 73.125C46.9198 72.1486 47.6147 71.7138 48.4193 71.1181C48.6981 70.9093 48.9767 70.7002 49.2552 70.491C49.3987 70.3839 49.5423 70.2767 49.6902 70.1663C50.3637 69.6591 51.0246 69.1363 51.6859 68.6133C53.4762 67.2026 55.2761 65.8042 57.0761 64.4058C58.1338 63.584 59.191 62.7614 60.2483 61.9389C61.1651 61.2258 62.0819 60.513 62.9991 59.8004C63.1896 59.6524 63.3801 59.5043 63.5763 59.3518C63.94 59.0691 64.3038 58.7865 64.6676 58.504C64.8324 58.3759 64.9973 58.2478 65.1671 58.1158C65.3225 57.9961 65.478 57.8764 65.6382 57.7531C65.9901 57.4741 66.3268 57.1761 66.6594 56.8744C67.4099 56.3595 67.9629 56.317 68.8685 56.25C69.6567 56.4128 69.6567 56.4128 70.4843 56.6855C70.6366 56.7347 70.7889 56.7838 70.9458 56.8344C71.4453 56.9964 71.9431 57.1633 72.4409 57.3303C72.7907 57.4449 73.1407 57.5591 73.4907 57.6731C74.4102 57.9734 75.3284 58.2778 76.2463 58.5831C77.1752 58.8913 78.1054 59.1955 79.0355 59.5001C80.2449 59.8966 81.454 60.294 82.6621 60.6945C83.1127 60.8438 83.5637 60.9923 84.0147 61.1407C84.4981 61.3029 84.98 61.47 85.4588 61.6454C86.7613 62.1466 86.7613 62.1466 88.0873 61.875C88.6467 61.3779 88.6467 61.3779 89.2042 60.7004C90.6219 59.0967 92.1206 57.5805 93.6354 56.0696C93.885 55.8202 94.1347 55.5708 94.3844 55.3214C95.0251 54.6817 95.6665 54.0427 96.308 53.4038C96.9684 52.7458 97.6282 52.087 98.2881 51.4284C99.5747 50.1443 100.862 48.8609 102.15 47.5781C101.85 47.5073 101.55 47.4365 101.241 47.3635C99.9837 47.0665 99.9837 47.0665 99.5717 46.4062C99.4618 45.9091 99.4618 45.9091 99.4545 45.3662C99.4436 45.0984 99.4436 45.0984 99.4325 44.8251C99.6497 44.0004 100.014 43.7871 100.744 43.3594C101.476 43.1816 102.205 43.1201 102.955 43.0664C103.266 43.041 103.266 43.041 103.584 43.0151C104.372 42.9545 105.162 42.9097 105.951 42.8536Z" fill="white"/>
<path d="M85.8466 75.7901C86.0352 75.7895 86.2238 75.789 86.4181 75.7884C86.8154 75.7886 87.2128 75.7917 87.6101 75.7976C88.2177 75.8056 88.8246 75.8024 89.4323 75.7979C89.8191 75.7995 90.2059 75.8018 90.5927 75.8047C90.8644 75.803 90.8644 75.803 91.1417 75.8012C91.8733 75.8172 92.4241 75.8674 93.0564 76.2497C93.7393 77.2638 93.6078 78.3104 93.5988 79.5053C93.6005 79.7737 93.6021 80.0421 93.6038 80.3186C93.6079 81.2069 93.6052 82.0951 93.602 82.9834C93.6027 83.5999 93.6036 84.2163 93.6047 84.8328C93.6064 86.1253 93.6042 87.4178 93.5997 88.7102C93.5946 90.204 93.5963 91.6977 93.6014 93.1915C93.6062 94.6292 93.6057 96.0667 93.603 97.5044C93.6023 98.1159 93.6031 98.7274 93.6053 99.3389C93.6077 100.193 93.604 101.047 93.5988 101.901C93.6007 102.155 93.6026 102.408 93.6046 102.67C93.5852 104.371 93.5852 104.371 93.058 105.157C92.2539 105.641 91.4447 105.607 90.5332 105.601C90.339 105.603 90.1449 105.604 89.9449 105.606C89.5351 105.608 89.1254 105.607 88.7156 105.604C88.0889 105.601 87.4629 105.609 86.8363 105.618C86.4377 105.618 86.0392 105.617 85.6406 105.616C85.4536 105.619 85.2665 105.622 85.0738 105.626C84.2563 105.612 83.7531 105.568 83.116 105.037C82.4914 103.936 82.5636 102.933 82.5712 101.687C82.5692 101.423 82.5672 101.16 82.5651 100.888C82.5598 100.018 82.5614 99.1471 82.5635 98.2764C82.5623 97.6713 82.5608 97.0662 82.5591 96.4612C82.5567 95.1931 82.5577 93.9251 82.5612 92.6571C82.5651 91.1924 82.5614 89.7279 82.5538 88.2633C82.5468 86.8525 82.5464 85.4419 82.5486 84.0311C82.5488 83.4316 82.5471 82.832 82.5437 82.2325C82.5396 81.3947 82.543 80.5573 82.5483 79.7195C82.5456 79.4714 82.5429 79.2232 82.54 78.9675C82.5545 77.8531 82.5648 77.2901 83.2343 76.3695C84.0919 75.785 84.8433 75.7728 85.8466 75.7901Z" fill="white"/>
<path d="M46.4203 84.4931C46.6037 84.4928 46.7871 84.4924 46.9761 84.4921C47.3624 84.4925 47.7487 84.4952 48.1349 84.5C48.7255 84.5068 49.3156 84.5049 49.9062 84.5018C50.2823 84.5033 50.6585 84.5052 51.0346 84.5078C51.2986 84.5067 51.2986 84.5067 51.568 84.5057C52.3102 84.519 52.8467 84.5634 53.5032 84.9234C54.262 85.7325 54.1401 86.7144 54.144 87.755C54.1463 88.0198 54.1463 88.0198 54.1487 88.29C54.1533 88.874 54.156 89.4581 54.1584 90.0421C54.1593 90.2417 54.1603 90.4413 54.1613 90.6469C54.1661 91.7029 54.1695 92.7589 54.1717 93.8149C54.1743 94.9054 54.1823 95.9958 54.1917 97.0863C54.1978 97.9252 54.1997 98.764 54.2006 99.6029C54.2017 100.005 54.2044 100.407 54.2088 100.809C54.2145 101.372 54.2143 101.934 54.2127 102.497C54.2157 102.662 54.2187 102.828 54.2218 102.999C54.2131 103.817 54.1122 104.281 53.6837 104.986C52.9175 105.699 52.1518 105.633 51.1582 105.616C50.867 105.617 50.867 105.617 50.5699 105.618C50.1601 105.618 49.7503 105.615 49.3406 105.609C48.7139 105.601 48.088 105.604 47.4613 105.608C47.0627 105.607 46.6641 105.604 46.2656 105.602C45.985 105.603 45.985 105.603 45.6988 105.605C44.9253 105.589 44.3841 105.556 43.741 105.107C43.169 104.323 43.188 103.632 43.1962 102.697C43.1942 102.513 43.1922 102.329 43.1901 102.14C43.1848 101.533 43.1864 100.927 43.1885 100.32C43.1873 99.8978 43.1858 99.4757 43.1841 99.0537C43.1817 98.1694 43.1827 97.2853 43.1862 96.401C43.1902 95.2676 43.1847 94.1345 43.1764 93.0011C43.1713 92.1297 43.1716 91.2583 43.1736 90.3869C43.1738 89.969 43.1721 89.5511 43.1687 89.1332C43.1646 88.549 43.168 87.9653 43.1733 87.3811C43.1706 87.2085 43.1679 87.0358 43.165 86.8579C43.1812 85.9861 43.2561 85.6165 43.8606 84.9708C44.7098 84.4855 45.4684 84.4788 46.4203 84.4931Z" fill="white"/>
<path d="M37.3595 25.7812C38.226 26.0333 38.5815 26.2235 39.1027 26.9531C39.1027 27.2625 39.1027 27.5719 39.1027 27.8906C39.2718 27.91 39.441 27.9293 39.6154 27.9492C40.7276 28.2458 41.3809 28.887 41.9884 29.8389C42.4386 30.7005 42.5463 31.3693 42.3839 32.3438C41.8582 33.0155 41.4793 33.4217 40.67 33.7061C40.5395 33.7206 40.409 33.7351 40.2745 33.75C40.5936 33.9313 40.5936 33.9313 40.9191 34.1162C42.0433 34.871 42.4955 35.846 42.8234 37.1338C42.8777 38.6823 42.5978 39.675 41.6368 40.8691C40.8462 41.7163 40.2365 42.0024 39.1027 42.1875C39.0833 42.3664 39.064 42.5452 39.0441 42.7295C38.8683 43.3594 38.8683 43.3594 38.4874 43.7842C37.7105 44.1727 37.1477 44.1544 36.2902 44.0625C35.7335 43.7842 35.7335 43.7842 35.3527 43.3594C35.1769 42.7295 35.1769 42.7295 35.1183 42.1875C34.821 42.1222 34.821 42.1222 34.5177 42.0557C33.2754 41.5362 32.4167 40.6637 31.7345 39.5068C31.5411 38.626 31.5163 37.9377 31.6027 37.0313C32.0822 36.3385 32.3737 36.1391 33.1847 35.918C33.3587 35.8986 33.5327 35.8793 33.712 35.8594C33.5332 35.6999 33.3543 35.5403 33.17 35.376C32.285 34.4086 31.8914 33.5454 31.7491 32.2412C31.9299 30.524 32.4127 29.4917 33.7551 28.3896C34.2086 28.1077 34.5964 27.9904 35.1183 27.8906C35.1328 27.7166 35.1473 27.5426 35.1622 27.3633C35.5105 26.1845 36.1509 25.7812 37.3595 25.7812ZM36.0704 31.7432C35.9883 31.864 35.9061 31.9849 35.8214 32.1094C36.3754 32.8712 37.0535 33.0053 37.9225 33.2263C38.4541 33.2875 38.8297 33.2058 39.337 33.0469C38.5544 31.9174 38.5544 31.9174 37.3155 31.3916C36.5362 31.3294 36.5362 31.3294 36.0704 31.7432ZM35.1183 36.5625C35.4158 37.6932 35.4158 37.6932 36.2902 38.4375C37.0918 38.5312 37.901 38.5696 38.6339 38.2031C38.5566 37.8938 38.4792 37.5844 38.3995 37.2656C37.9848 37.1473 37.5697 37.0304 37.1544 36.9141C36.9233 36.8488 36.6922 36.7835 36.454 36.7163C35.816 36.5348 35.816 36.5348 35.1183 36.5625Z" fill="white"/>
</svg>
