<svg width="98" height="26" viewBox="0 0 98 26" fill="none" xmlns="http://www.w3.org/2000/svg">
<g clip-path="url(#clip0_6362_4984)">
<path d="M22.9368 0.539062H11.4102C11.4101 1.22238 11.5447 1.89901 11.8062 2.53031C12.0677 3.16162 12.4509 3.73524 12.9341 4.21841C13.4173 4.70159 13.9909 5.08486 14.6222 5.34635C15.2535 5.60783 15.9302 5.7424 16.6135 5.74237H18.7368V7.7925C18.7387 10.6636 21.0657 12.9907 23.9368 12.9925V1.539C23.9368 0.986906 23.4892 0.539062 22.9368 0.539062Z" fill="#2684FF"/>
<path d="M17.2336 6.28247H5.70703C5.70881 9.15356 8.03578 11.4806 10.907 11.4825H13.0303V13.5392C13.034 16.4103 15.3625 18.7358 18.2336 18.7358V7.2826C18.2336 6.73031 17.7859 6.28247 17.2336 6.28247Z" fill="url(#paint0_linear_6362_4984)"/>
<path d="M11.5267 12.0225H0C0 14.8962 2.32969 17.2258 5.20331 17.2258H7.33331V19.2758C7.33519 22.1443 9.65812 24.4703 12.5267 24.4757V13.0225C12.5267 12.4702 12.0789 12.0225 11.5267 12.0225Z" fill="url(#paint1_linear_6362_4984)"/>
</g>
<g clip-path="url(#clip1_6362_4984)">
<path d="M38 18.9781L41.69 16.1501C43.651 18.7101 45.734 19.8891 48.053 19.8891C50.36 19.8891 52.383 18.7231 54.256 16.1851L58 18.9441C55.298 22.6041 51.941 24.5391 48.053 24.5391C44.178 24.5391 40.788 22.6171 38 18.9781ZM48.04 6.68906L41.472 12.3491L38.436 8.82906L48.055 0.539062L57.598 8.83506L54.548 12.3441L48.04 6.68906Z" fill="url(#paint2_linear_6362_4984)"/>
</g>
<g clip-path="url(#clip2_6362_4984)">
<path d="M75.1197 19.9907C74.5653 19.9919 74.0205 19.8448 73.541 19.5644C73.0615 19.284 72.6645 18.8804 72.3905 18.3948C72.1206 17.9126 71.986 17.3655 72.0011 16.8122C72.0162 16.2588 72.1805 15.72 72.4762 15.2535L78.0966 6.36001C78.3842 5.88205 78.7926 5.4896 79.2801 5.22273C79.7675 4.95587 80.3165 4.82415 80.871 4.84104C81.4251 4.85443 81.9657 5.01591 82.4375 5.30895C82.9093 5.602 83.2954 6.0161 83.5562 6.50887C84.0802 7.50714 84.0146 8.70816 83.3872 9.64532L77.7703 18.5387C77.4855 18.986 77.0932 19.3536 76.6299 19.6074C76.1665 19.8612 75.6471 19.993 75.1197 19.9907Z" fill="#F62B54"/>
<path d="M84.7595 19.9906C83.6259 19.9906 82.5828 19.3798 82.035 18.3984C81.7658 17.9175 81.6316 17.3719 81.6467 16.82C81.6618 16.2681 81.8256 15.7307 82.1207 15.2656L87.7304 6.39239C88.0139 5.90772 88.4209 5.50829 88.9092 5.23552C89.3974 4.96276 89.9493 4.82659 90.5074 4.84114C91.6505 4.86631 92.6864 5.5106 93.2103 6.51855C93.466 7.01211 93.5824 7.56692 93.5467 8.12251C93.511 8.67811 93.3246 9.21318 93.0079 9.66941L87.3994 18.5425C87.1155 18.9878 86.7248 19.3539 86.2634 19.607C85.802 19.8601 85.2849 19.9919 84.7595 19.9906Z" fill="#FFCC00"/>
<path d="M94.1856 20.065C95.7837 20.065 97.0792 18.787 97.0792 17.2105C97.0792 15.634 95.7837 14.356 94.1856 14.356C92.5875 14.356 91.292 15.634 91.292 17.2105C91.292 18.787 92.5875 20.065 94.1856 20.065Z" fill="#00CA72"/>
</g>
<defs>
<linearGradient id="paint0_linear_6362_4984" x1="1233.7" y1="8.28746" x2="746.356" y2="516.812" gradientUnits="userSpaceOnUse">
<stop offset="0.18" stop-color="#0052CC"/>
<stop offset="1" stop-color="#2684FF"/>
</linearGradient>
<linearGradient id="paint1_linear_6362_4984" x1="1261" y1="17.6887" x2="697.263" y2="572.333" gradientUnits="userSpaceOnUse">
<stop offset="0.18" stop-color="#0052CC"/>
<stop offset="1" stop-color="#2684FF"/>
</linearGradient>
<linearGradient id="paint2_linear_6362_4984" x1="39.3397" y1="18.5391" x2="58.0928" y2="9.51651" gradientUnits="userSpaceOnUse">
<stop stop-color="#0538FF"/>
<stop offset="1" stop-color="#6B57F5"/>
</linearGradient>
<clipPath id="clip0_6362_4984">
<rect width="24" height="24" fill="white" transform="translate(0 0.539062)"/>
</clipPath>
<clipPath id="clip1_6362_4984">
<rect width="24" height="24" fill="white" transform="translate(36 0.539062)"/>
</clipPath>
<clipPath id="clip2_6362_4984">
<rect width="25.0783" height="15.399" fill="white" transform="translate(72 4.8396)"/>
</clipPath>
</defs>
</svg>
