<svg width="30" height="28" viewBox="0 0 30 28" fill="none" xmlns="http://www.w3.org/2000/svg">
<g id="Group 14191">
<path id="Vector" d="M23.9713 14.9685V20.7607C23.9713 23.7735 21.5262 26.2186 18.5134 26.2186H7.3121C4.29931 26.2186 1.85425 23.7735 1.85425 20.7607V9.55941C1.85425 6.54662 4.29931 4.10156 7.3121 4.10156H18.5134" stroke="white" stroke-width="2.4" stroke-linecap="round" stroke-linejoin="round"/>
<g id="Group">
<path id="Vector_2" d="M12.9091 10.0891V20.2386" stroke="white" stroke-width="2.4" stroke-linecap="round" stroke-linejoin="round"/>
<path id="Vector_3" d="M7.83411 15.1641H17.9835" stroke="white" stroke-width="2.4" stroke-linecap="round" stroke-linejoin="round"/>
</g>
<path id="Vector_4" d="M22.4046 2.70898L23.4913 4.69777C23.9476 5.53021 24.6337 6.21636 25.4661 6.67263L27.4549 7.75932L25.4661 8.84602C24.6337 9.30229 23.9476 9.98844 23.4913 10.8209L22.4046 12.8097L21.3179 10.8209C20.8616 9.98844 20.1755 9.30229 19.343 8.84602L17.3542 7.75932L19.343 6.67263C20.1755 6.21636 20.8616 5.53021 21.3179 4.69777L22.4046 2.70898Z" stroke="white" stroke-width="1.6" stroke-linecap="round" stroke-linejoin="round"/>
<path id="Vector_5" d="M27.2807 0.619141L27.7683 1.51079C27.9738 1.88347 28.2803 2.18997 28.653 2.39547L29.5446 2.88309L28.653 3.37071C28.2803 3.5762 27.9738 3.88271 27.7683 4.25539L27.2807 5.14703L26.793 4.25539C26.5876 3.88271 26.281 3.5762 25.9084 3.37071L25.0167 2.88309L25.9084 2.39547C26.281 2.18997 26.5876 1.88347 26.793 1.51079L27.2807 0.619141Z" fill="white"/>
</g>
</svg>
