<svg width="24" height="25" viewBox="0 0 24 25" fill="none" xmlns="http://www.w3.org/2000/svg">
<g clip-path="url(#clip0_3937_11893)">
<path d="M10.232 10.334C11.1391 9.42689 12.3602 8.90319 13.6426 8.87117C14.925 8.83916 16.1707 9.30128 17.122 10.162L17.303 10.334L20.131 13.163C21.052 14.0856 21.5763 15.3315 21.592 16.6351C21.6077 17.9387 21.1136 19.1969 20.215 20.1415C19.3165 21.0861 18.0845 21.6424 16.7818 21.6918C15.479 21.7412 14.2085 21.2798 13.241 20.406L13.061 20.234L10.939 18.112C10.7596 17.932 10.6555 17.6905 10.6478 17.4366C10.64 17.1826 10.7292 16.9352 10.8972 16.7447C11.0653 16.5541 11.2995 16.4347 11.5525 16.4106C11.8054 16.3865 12.058 16.4595 12.259 16.615L12.353 16.698L14.475 18.82C15.0251 19.3732 15.769 19.6905 16.5491 19.7043C17.3292 19.7182 18.084 19.4277 18.6534 18.8943C19.2228 18.3609 19.562 17.6267 19.5991 16.8474C19.6362 16.0681 19.3682 15.305 18.852 14.72L18.717 14.577L15.889 11.749C15.6104 11.4703 15.2797 11.2493 14.9157 11.0985C14.5516 10.9477 14.1615 10.8701 13.7675 10.8701C13.3735 10.8701 12.9833 10.9477 12.6193 11.0985C12.2553 11.2493 11.9246 11.4703 11.646 11.749C11.4583 11.9365 11.2039 12.0418 10.9386 12.0417C10.6734 12.0416 10.419 11.9361 10.2315 11.7485C10.044 11.5608 9.93869 11.3064 9.93878 11.0411C9.93888 10.7758 10.0443 10.5215 10.232 10.334ZM3.86799 3.96996C4.77512 3.06289 5.99618 2.53919 7.27861 2.50717C8.56105 2.47516 9.80673 2.93728 10.758 3.79796L10.939 3.96996L13.06 6.09296C13.2393 6.27292 13.3435 6.51439 13.3512 6.76834C13.359 7.02229 13.2698 7.26967 13.1017 7.46024C12.9337 7.6508 12.6994 7.77026 12.4465 7.79436C12.1936 7.81845 11.941 7.74537 11.74 7.58996L11.646 7.50696L9.52498 5.38596C8.97395 4.83852 8.23207 4.52614 7.45542 4.51453C6.67877 4.50293 5.92789 4.79301 5.36075 5.32375C4.79361 5.85448 4.45443 6.5845 4.41456 7.36022C4.37469 8.13593 4.63725 8.89688 5.14698 9.48296L5.28199 9.62696L8.11098 12.456C8.67357 13.0184 9.43649 13.3343 10.232 13.3343C11.0275 13.3343 11.7904 13.0184 12.353 12.456C12.4458 12.363 12.5561 12.2893 12.6774 12.239C12.7987 12.1887 12.9288 12.1628 13.0601 12.1628C13.1915 12.1627 13.3216 12.1885 13.4429 12.2388C13.5643 12.289 13.6746 12.3626 13.7675 12.4555C13.8604 12.5483 13.9341 12.6585 13.9844 12.7799C14.0347 12.9012 14.0606 13.0313 14.0607 13.1626C14.0607 13.294 14.0349 13.424 13.9847 13.5454C13.9345 13.6668 13.8608 13.777 13.768 13.87C12.8609 14.777 11.6398 15.3007 10.3574 15.3327C9.07492 15.3648 7.82925 14.9026 6.87799 14.042L6.69598 13.87L3.86799 11.041C2.93063 10.1033 2.40405 8.83178 2.40405 7.50596C2.40405 6.18014 2.93063 4.9076 3.86799 3.96996Z" fill="white"/>
</g>
<defs>
<clipPath id="clip0_3937_11893">
<rect width="24" height="24" fill="white" transform="translate(0 0.103027)"/>
</clipPath>
</defs>
</svg>
