<svg width="20" height="20" viewBox="0 0 20 20" fill="none" xmlns="http://www.w3.org/2000/svg">
<path fill-rule="evenodd" clip-rule="evenodd" d="M9.99935 3.33325C10.7118 3.33325 11.4427 3.35159 12.151 3.38159L12.9877 3.42159L13.7885 3.46909L14.5385 3.51992L15.2235 3.57325C15.967 3.62983 16.6667 3.94695 17.1993 4.46875C17.7319 4.99056 18.0634 5.68358 18.1352 6.42575L18.1685 6.77992L18.231 7.53825C18.2893 8.32408 18.3327 9.18075 18.3327 9.99992C18.3327 10.8191 18.2893 11.6758 18.231 12.4616L18.1685 13.2199L18.1352 13.5741C18.0633 14.3164 17.7318 15.0095 17.199 15.5313C16.6662 16.0532 15.9663 16.3702 15.2227 16.4266L14.5393 16.4791L13.7893 16.5308L12.9877 16.5783L12.151 16.6183C11.4342 16.6493 10.7168 16.6654 9.99935 16.6666C9.28187 16.6654 8.56449 16.6493 7.84768 16.6183L7.01102 16.5783L6.21018 16.5308L5.46018 16.4791L4.77518 16.4266C4.03169 16.37 3.33202 16.0529 2.79939 15.5311C2.26676 15.0093 1.93534 14.3163 1.86352 13.5741L1.83018 13.2199L1.76768 12.4616C1.70421 11.6425 1.6703 10.8214 1.66602 9.99992C1.66602 9.18075 1.70935 8.32408 1.76768 7.53825L1.83018 6.77992L1.86352 6.42575C1.93531 5.68371 2.26661 4.9908 2.79907 4.46901C3.33153 3.94722 4.03101 3.63002 4.77435 3.57325L5.45852 3.51992L6.20852 3.46909L7.01018 3.42159L7.84685 3.38159C8.56394 3.35052 9.28159 3.33441 9.99935 3.33325ZM8.33268 7.97909V12.0208C8.33268 12.4058 8.74935 12.6458 9.08268 12.4541L12.5827 10.4333C12.6588 10.3894 12.7221 10.3263 12.7661 10.2502C12.8101 10.1741 12.8332 10.0878 12.8332 9.99992C12.8332 9.91204 12.8101 9.82572 12.7661 9.74964C12.7221 9.67356 12.6588 9.61043 12.5827 9.56658L9.08268 7.54658C9.00665 7.50269 8.9204 7.47958 8.8326 7.4796C8.74481 7.47961 8.65856 7.50274 8.58254 7.54667C8.50652 7.59059 8.44341 7.65375 8.39955 7.72981C8.35569 7.80586 8.33263 7.89212 8.33268 7.97992V7.97909Z" fill="white"/>
</svg>
