<svg width="20" height="20" viewBox="0 0 20 20" fill="none" xmlns="http://www.w3.org/2000/svg">
<path fill-rule="evenodd" clip-rule="evenodd" d="M4.16667 3.25C3.66041 3.25 3.25 3.66041 3.25 4.16667V7.5C3.25 8.00626 3.66041 8.41667 4.16667 8.41667H7.5C8.00626 8.41667 8.41667 8.00626 8.41667 7.5V4.16667C8.41667 3.66041 8.00626 3.25 7.5 3.25H4.16667ZM1.75 4.16667C1.75 2.83198 2.83198 1.75 4.16667 1.75H7.5C8.83469 1.75 9.91667 2.83198 9.91667 4.16667V7.5C9.91667 8.83469 8.83469 9.91667 7.5 9.91667H4.16667C2.83198 9.91667 1.75 8.83469 1.75 7.5V4.16667Z" fill="#2F80ED"/>
<path fill-rule="evenodd" clip-rule="evenodd" d="M5.83325 8.4165C6.24747 8.4165 6.58325 8.75229 6.58325 9.1665V12.4998C6.58325 12.743 6.67983 12.9761 6.85174 13.148C7.02365 13.3199 7.2568 13.4165 7.49992 13.4165H10.8333C11.2475 13.4165 11.5833 13.7523 11.5833 14.1665C11.5833 14.5807 11.2475 14.9165 10.8333 14.9165H7.49992C6.85898 14.9165 6.24429 14.6619 5.79108 14.2087C5.33786 13.7555 5.08325 13.1408 5.08325 12.4998V9.1665C5.08325 8.75229 5.41904 8.4165 5.83325 8.4165Z" fill="#2F80ED"/>
<path fill-rule="evenodd" clip-rule="evenodd" d="M12.4999 11.5835C11.9937 11.5835 11.5833 11.9939 11.5833 12.5002V15.8335C11.5833 16.3398 11.9937 16.7502 12.4999 16.7502H15.8333C16.3395 16.7502 16.7499 16.3398 16.7499 15.8335V12.5002C16.7499 11.9939 16.3395 11.5835 15.8333 11.5835H12.4999ZM10.0833 12.5002C10.0833 11.1655 11.1652 10.0835 12.4999 10.0835H15.8333C17.1679 10.0835 18.2499 11.1655 18.2499 12.5002V15.8335C18.2499 17.1682 17.1679 18.2502 15.8333 18.2502H12.4999C11.1652 18.2502 10.0833 17.1682 10.0833 15.8335V12.5002Z" fill="#2F80ED"/>
</svg>
