<svg width="257" height="262" viewBox="0 0 257 262" fill="none" xmlns="http://www.w3.org/2000/svg">
<g filter="url(#filter0_d_3982_12449)">
<path d="M127.882 245.846C191.229 245.846 242.583 194.492 242.583 131.145C242.583 67.797 191.229 16.4436 127.882 16.4436C64.5341 16.4436 13.1807 67.797 13.1807 131.145C13.1807 194.492 64.5341 245.846 127.882 245.846Z" fill="url(#paint0_linear_3982_12449)" shape-rendering="crispEdges"/>
</g>
<path d="M189.762 43.134H62.6976C54.7774 43.134 48.3569 49.5545 48.3569 57.4747H204.103C204.103 49.5545 197.682 43.134 189.762 43.134Z" fill="url(#paint1_linear_3982_12449)"/>
<path d="M48.7738 57.4996H203.686V175.701C203.686 180.865 201.635 185.816 197.984 189.467C194.333 193.118 189.381 195.17 184.218 195.17H68.242C63.0787 195.17 58.1269 193.118 54.4759 189.467C50.8249 185.816 48.7738 180.865 48.7738 175.701V57.4996Z" fill="url(#paint2_linear_3982_12449)" stroke="#0FA8D5" stroke-width="0.833757"/>
<path d="M177.331 72.0654H75.1791C73.0517 72.0654 71.3271 73.7881 71.3271 75.9132C71.3271 78.0383 73.0517 79.761 75.1791 79.761H177.331C179.458 79.761 181.183 78.0383 181.183 75.9132C181.183 73.7881 179.458 72.0654 177.331 72.0654Z" fill="url(#paint3_linear_3982_12449)"/>
<path d="M177.331 104.761H75.1791C73.0517 104.761 71.3271 106.484 71.3271 108.609C71.3271 110.734 73.0517 112.457 75.1791 112.457H177.331C179.458 112.457 181.183 110.734 181.183 108.609C181.183 106.484 179.458 104.761 177.331 104.761Z" fill="url(#paint4_linear_3982_12449)"/>
<path d="M177.331 137.457H75.1791C73.0517 137.457 71.3271 139.179 71.3271 141.304C71.3271 143.429 73.0517 145.152 75.1791 145.152H177.331C179.458 145.152 181.183 143.429 181.183 141.304C181.183 139.179 179.458 137.457 177.331 137.457Z" fill="url(#paint5_linear_3982_12449)"/>
<path d="M177.331 170.152H75.1791C73.0517 170.152 71.3271 171.875 71.3271 174C71.3271 176.125 73.0517 177.847 75.1791 177.847H177.331C179.458 177.847 181.183 176.125 181.183 174C181.183 171.875 179.458 170.152 177.331 170.152Z" fill="url(#paint6_linear_3982_12449)"/>
<g filter="url(#filter1_d_3982_12449)">
<path d="M74.4873 130.444H20.093C15.7231 130.444 12.1807 133.986 12.1807 138.356V216.104C12.1807 220.474 15.7231 224.016 20.093 224.016H74.4873C78.8572 224.016 82.3997 220.474 82.3997 216.104V138.356C82.3997 133.986 78.8572 130.444 74.4873 130.444Z" fill="url(#paint7_linear_3982_12449)"/>
<path d="M20.093 130.86H74.4873C78.627 130.86 81.9828 134.216 81.9828 138.356V216.104C81.9828 220.243 78.6269 223.599 74.4873 223.599H20.093C15.9534 223.599 12.5975 220.243 12.5975 216.104V138.356C12.5975 134.216 15.9534 130.86 20.093 130.86Z" stroke="#0FA8D5" stroke-width="0.833757"/>
</g>
<g filter="url(#filter2_d_3982_12449)">
<path d="M229.33 9H169.25C166.45 9 164.181 11.2696 164.181 14.0692V42.3086C164.181 45.1083 166.45 47.3778 169.25 47.3778H229.33C232.13 47.3778 234.4 45.1083 234.4 42.3086V14.0692C234.4 11.2696 232.13 9 229.33 9Z" fill="url(#paint8_linear_3982_12449)"/>
</g>
<path d="M68.4175 169.338H26.1627C24.7399 169.338 23.5864 170.492 23.5864 171.915V171.923C23.5864 173.346 24.7399 174.499 26.1627 174.499H68.4175C69.8404 174.499 70.9938 173.346 70.9938 171.923V171.915C70.9938 170.492 69.8404 169.338 68.4175 169.338Z" fill="url(#paint9_linear_3982_12449)"/>
<path d="M68.4414 205.653H26.5498C25.1391 205.653 23.9956 206.771 23.9956 208.149V208.157C23.9956 209.536 25.1391 210.653 26.5498 210.653H68.4414C69.8521 210.653 70.9956 209.536 70.9956 208.157V208.149C70.9956 206.771 69.8521 205.653 68.4414 205.653Z" fill="url(#paint10_linear_3982_12449)"/>
<path d="M68.4414 186.653H26.5498C25.1391 186.653 23.9956 187.771 23.9956 189.149V189.157C23.9956 190.536 25.1391 191.653 26.5498 191.653H68.4414C69.8521 191.653 70.9956 190.536 70.9956 189.157V189.149C70.9956 187.771 69.8521 186.653 68.4414 186.653Z" fill="url(#paint11_linear_3982_12449)"/>
<path d="M41.6125 142.45H29.2645C26.5293 142.45 24.312 144.667 24.312 147.402V150.829C24.312 153.564 26.5293 155.781 29.2645 155.781H41.6125C44.3477 155.781 46.565 153.564 46.565 150.829V147.402C46.565 144.667 44.3477 142.45 41.6125 142.45Z" fill="url(#paint12_linear_3982_12449)"/>
<path d="M179.009 34.0127C182.227 34.0127 184.837 31.4035 184.837 28.1848C184.837 24.9661 182.227 22.3568 179.009 22.3568C175.79 22.3568 173.181 24.9661 173.181 28.1848C173.181 31.4035 175.79 34.0127 179.009 34.0127Z" fill="#81D5E7"/>
<path d="M199.836 34.0127C203.054 34.0127 205.664 31.4035 205.664 28.1848C205.664 24.9661 203.054 22.3568 199.836 22.3568C196.617 22.3568 194.008 24.9661 194.008 28.1848C194.008 31.4035 196.617 34.0127 199.836 34.0127Z" fill="#81D5E7"/>
<path d="M220.663 34.0127C223.882 34.0127 226.491 31.4035 226.491 28.1848C226.491 24.9661 223.882 22.3568 220.663 22.3568C217.444 22.3568 214.835 24.9661 214.835 28.1848C214.835 31.4035 217.444 34.0127 220.663 34.0127Z" fill="#81D5E7"/>
<path d="M204.861 173.017L190.101 189.289L231.706 227.027L246.466 210.754L204.861 173.017Z" fill="url(#paint13_linear_3982_12449)"/>
<path fill-rule="evenodd" clip-rule="evenodd" d="M220.46 146.083C220.46 180.126 192.863 207.723 158.82 207.723C124.778 207.723 97.1807 180.126 97.1807 146.083C97.1807 112.041 124.778 84.4436 158.82 84.4436C192.863 84.4436 220.46 112.041 220.46 146.083ZM211.005 146.083C211.005 174.904 187.641 198.268 158.82 198.268C129.999 198.268 106.635 174.904 106.635 146.083C106.635 117.262 129.999 93.8984 158.82 93.8984C187.641 93.8984 211.005 117.262 211.005 146.083Z" fill="url(#paint14_linear_3982_12449)"/>
<g filter="url(#filter3_b_3982_12449)">
<path d="M158.821 198.268C187.641 198.268 211.005 174.904 211.005 146.083C211.005 117.262 187.641 93.8984 158.821 93.8984C130 93.8984 106.636 117.262 106.636 146.083C106.636 174.904 130 198.268 158.821 198.268Z" fill="url(#paint15_linear_3982_12449)" fill-opacity="0.2"/>
</g>
<path d="M171.36 146.083L186.284 131.126C187.683 129.646 188.449 127.679 188.42 125.644C188.391 123.608 187.569 121.664 186.13 120.225C184.69 118.785 182.746 117.964 180.711 117.935C178.675 117.906 176.708 118.672 175.229 120.07L160.271 135.028L145.347 120.07C144.629 119.31 143.765 118.702 142.808 118.281C141.851 117.861 140.819 117.636 139.773 117.621C138.728 117.607 137.69 117.802 136.721 118.195C135.752 118.588 134.872 119.172 134.132 119.911C133.393 120.651 132.809 121.531 132.416 122.5C132.023 123.469 131.828 124.506 131.843 125.552C131.857 126.598 132.082 127.63 132.502 128.587C132.923 129.544 133.531 130.408 134.291 131.126L149.241 146.083L134.291 161.041C133.531 161.759 132.923 162.622 132.502 163.58C132.082 164.537 131.857 165.569 131.843 166.615C131.828 167.66 132.023 168.698 132.416 169.667C132.809 170.636 133.393 171.516 134.132 172.255C134.872 172.995 135.752 173.578 136.721 173.972C137.69 174.365 138.728 174.56 139.773 174.545C140.819 174.53 141.851 174.306 142.808 173.885C143.765 173.465 144.629 172.857 145.347 172.097L160.304 157.139L175.262 172.097C176.756 173.412 178.695 174.109 180.685 174.044C182.674 173.98 184.564 173.159 185.97 171.749C187.375 170.34 188.19 168.447 188.249 166.458C188.307 164.468 187.605 162.531 186.284 161.041L171.36 146.083Z" fill="url(#paint16_linear_3982_12449)"/>
<g filter="url(#filter4_f_3982_12449)">
<ellipse cx="160.546" cy="174.906" rx="36.6853" ry="5.41942" fill="#EC5575" fill-opacity="0.56"/>
</g>
<path d="M118.149 210.905C118.666 208.761 121.716 208.761 122.233 210.905L123.975 218.121C124.16 218.887 124.758 219.485 125.525 219.67L132.741 221.412C134.885 221.929 134.885 224.979 132.741 225.497L125.525 227.239C124.758 227.423 124.16 228.022 123.975 228.788L122.233 236.004C121.716 238.148 118.666 238.148 118.149 236.004L116.407 228.788C116.222 228.022 115.624 227.423 114.857 227.239L107.641 225.497C105.497 224.979 105.497 221.929 107.641 221.412L114.857 219.67C115.624 219.485 116.222 218.887 116.407 218.121L118.149 210.905Z" fill="url(#paint17_linear_3982_12449)"/>
<path d="M35.1487 18.9043C35.6662 16.7603 38.7159 16.7603 39.2334 18.9043L40.9753 26.1203C41.1603 26.8865 41.7585 27.4847 42.5247 27.6697L49.7407 29.4116C51.8847 29.9292 51.8847 32.9788 49.7407 33.4964L42.5247 35.2383C41.7585 35.4232 41.1603 36.0214 40.9753 36.7876L39.2334 44.0036C38.7159 46.1477 35.6662 46.1477 35.1487 44.0036L33.4068 36.7876C33.2218 36.0214 32.6236 35.4232 31.8574 35.2383L24.6414 33.4964C22.4974 32.9788 22.4974 29.9292 24.6414 29.4116L31.8574 27.6697C32.6236 27.4848 33.2218 26.8865 33.4068 26.1203L35.1487 18.9043Z" fill="url(#paint18_linear_3982_12449)"/>
<path fill-rule="evenodd" clip-rule="evenodd" d="M123.309 20.0734C125.243 20.0734 126.81 18.5056 126.81 16.5716C126.81 14.6377 125.243 13.0699 123.309 13.0699C121.375 13.0699 119.807 14.6377 119.807 16.5716C119.807 18.5056 121.375 20.0734 123.309 20.0734ZM123.309 22.6997C126.693 22.6997 129.437 19.956 129.437 16.5716C129.437 13.1872 126.693 10.4436 123.309 10.4436C119.924 10.4436 117.181 13.1872 117.181 16.5716C117.181 19.956 119.924 22.6997 123.309 22.6997Z" fill="url(#paint19_linear_3982_12449)"/>
<path d="M232.195 116.497C231.862 115.191 233.068 114.014 234.365 114.379L243.124 116.84C244.421 117.205 244.837 118.837 243.873 119.779L237.362 126.133C236.398 127.074 234.776 126.619 234.443 125.313L232.195 116.497Z" fill="url(#paint20_linear_3982_12449)"/>
<path d="M26.8935 101.462C28.1999 101.131 29.3751 102.338 29.0088 103.635L26.5362 112.39C26.1699 113.687 24.5368 114.101 23.5967 113.136L17.2507 106.617C16.3105 105.651 16.7684 104.03 18.0749 103.698L26.8935 101.462Z" fill="url(#paint21_linear_3982_12449)"/>
<path d="M193.893 222.462C195.2 222.131 196.375 223.338 196.009 224.635L193.536 233.391C193.17 234.688 191.537 235.102 190.597 234.136L184.251 227.617C183.311 226.651 183.768 225.03 185.075 224.699L193.893 222.462Z" fill="url(#paint22_linear_3982_12449)"/>
<path fill-rule="evenodd" clip-rule="evenodd" d="M240.309 71.0734C242.243 71.0734 243.81 69.5056 243.81 67.5716C243.81 65.6377 242.243 64.0699 240.309 64.0699C238.375 64.0699 236.807 65.6377 236.807 67.5716C236.807 69.5056 238.375 71.0734 240.309 71.0734ZM240.309 73.6997C243.693 73.6997 246.437 70.956 246.437 67.5716C246.437 64.1872 243.693 61.4436 240.309 61.4436C236.924 61.4436 234.181 64.1872 234.181 67.5716C234.181 70.956 236.924 73.6997 240.309 73.6997Z" fill="url(#paint23_linear_3982_12449)"/>
<path d="M231.703 227.029L246.463 210.756L248.686 212.773C250.843 214.729 252.135 217.463 252.276 220.372C252.418 223.28 251.399 226.126 249.442 228.283C247.485 230.44 244.752 231.732 241.843 231.874C238.934 232.015 236.088 230.996 233.931 229.039L231.708 227.023L231.703 227.029Z" fill="#65C8DE"/>
<defs>
<filter id="filter0_d_3982_12449" x="1.18066" y="8.4436" width="253.402" height="253.402" filterUnits="userSpaceOnUse" color-interpolation-filters="sRGB">
<feFlood flood-opacity="0" result="BackgroundImageFix"/>
<feColorMatrix in="SourceAlpha" type="matrix" values="0 0 0 0 0 0 0 0 0 0 0 0 0 0 0 0 0 0 127 0" result="hardAlpha"/>
<feOffset dy="4"/>
<feGaussianBlur stdDeviation="6"/>
<feComposite in2="hardAlpha" operator="out"/>
<feColorMatrix type="matrix" values="0 0 0 0 0.407843 0 0 0 0 0.796078 0 0 0 0 0.878431 0 0 0 0.21 0"/>
<feBlend mode="normal" in2="BackgroundImageFix" result="effect1_dropShadow_3982_12449"/>
<feBlend mode="normal" in="SourceGraphic" in2="effect1_dropShadow_3982_12449" result="shape"/>
</filter>
<filter id="filter1_d_3982_12449" x="0.180664" y="122.444" width="100.219" height="123.573" filterUnits="userSpaceOnUse" color-interpolation-filters="sRGB">
<feFlood flood-opacity="0" result="BackgroundImageFix"/>
<feColorMatrix in="SourceAlpha" type="matrix" values="0 0 0 0 0 0 0 0 0 0 0 0 0 0 0 0 0 0 127 0" result="hardAlpha"/>
<feOffset dx="3" dy="7"/>
<feGaussianBlur stdDeviation="7.5"/>
<feComposite in2="hardAlpha" operator="out"/>
<feColorMatrix type="matrix" values="0 0 0 0 0.104618 0 0 0 0 0.465612 0 0 0 0 0.545833 0 0 0 0.15 0"/>
<feBlend mode="normal" in2="BackgroundImageFix" result="effect1_dropShadow_3982_12449"/>
<feBlend mode="normal" in="SourceGraphic" in2="effect1_dropShadow_3982_12449" result="shape"/>
</filter>
<filter id="filter2_d_3982_12449" x="157.181" y="0" width="96.2192" height="64.3778" filterUnits="userSpaceOnUse" color-interpolation-filters="sRGB">
<feFlood flood-opacity="0" result="BackgroundImageFix"/>
<feColorMatrix in="SourceAlpha" type="matrix" values="0 0 0 0 0 0 0 0 0 0 0 0 0 0 0 0 0 0 127 0" result="hardAlpha"/>
<feOffset dx="6" dy="4"/>
<feGaussianBlur stdDeviation="6.5"/>
<feComposite in2="hardAlpha" operator="out"/>
<feColorMatrix type="matrix" values="0 0 0 0 0.104618 0 0 0 0 0.465612 0 0 0 0 0.545833 0 0 0 0.09 0"/>
<feBlend mode="normal" in2="BackgroundImageFix" result="effect1_dropShadow_3982_12449"/>
<feBlend mode="normal" in="SourceGraphic" in2="effect1_dropShadow_3982_12449" result="shape"/>
</filter>
<filter id="filter3_b_3982_12449" x="89.9606" y="77.2233" width="137.72" height="137.72" filterUnits="userSpaceOnUse" color-interpolation-filters="sRGB">
<feFlood flood-opacity="0" result="BackgroundImageFix"/>
<feGaussianBlur in="BackgroundImageFix" stdDeviation="8.33757"/>
<feComposite in2="SourceAlpha" operator="in" result="effect1_backgroundBlur_3982_12449"/>
<feBlend mode="normal" in="SourceGraphic" in2="effect1_backgroundBlur_3982_12449" result="shape"/>
</filter>
<filter id="filter4_f_3982_12449" x="103.017" y="148.643" width="115.058" height="52.5267" filterUnits="userSpaceOnUse" color-interpolation-filters="sRGB">
<feFlood flood-opacity="0" result="BackgroundImageFix"/>
<feBlend mode="normal" in="SourceGraphic" in2="BackgroundImageFix" result="shape"/>
<feGaussianBlur stdDeviation="10.422" result="effect1_foregroundBlur_3982_12449"/>
</filter>
<linearGradient id="paint0_linear_3982_12449" x1="126.997" y1="-20.9059" x2="129.347" y2="381.907" gradientUnits="userSpaceOnUse">
<stop stop-color="white" stop-opacity="0"/>
<stop offset="1" stop-color="#8EE2F4"/>
</linearGradient>
<linearGradient id="paint1_linear_3982_12449" x1="48.1805" y1="46.4436" x2="204.181" y2="57.4436" gradientUnits="userSpaceOnUse">
<stop stop-color="#90E3F5"/>
<stop offset="1" stop-color="#65C8DE"/>
</linearGradient>
<linearGradient id="paint2_linear_3982_12449" x1="43.6806" y1="160.944" x2="268.681" y2="164.944" gradientUnits="userSpaceOnUse">
<stop stop-color="white"/>
<stop offset="1" stop-color="#BCF3FF"/>
</linearGradient>
<linearGradient id="paint3_linear_3982_12449" x1="66.6809" y1="79.4436" x2="187.681" y2="79.4436" gradientUnits="userSpaceOnUse">
<stop stop-color="#65C8DE"/>
<stop offset="1" stop-color="#D2F7FF"/>
</linearGradient>
<linearGradient id="paint4_linear_3982_12449" x1="66.6809" y1="112.139" x2="187.681" y2="112.139" gradientUnits="userSpaceOnUse">
<stop stop-color="#65C8DE"/>
<stop offset="1" stop-color="#D2F7FF"/>
</linearGradient>
<linearGradient id="paint5_linear_3982_12449" x1="66.6809" y1="144.835" x2="187.681" y2="144.835" gradientUnits="userSpaceOnUse">
<stop stop-color="#65C8DE"/>
<stop offset="1" stop-color="#D2F7FF"/>
</linearGradient>
<linearGradient id="paint6_linear_3982_12449" x1="66.6809" y1="177.53" x2="187.681" y2="177.53" gradientUnits="userSpaceOnUse">
<stop stop-color="#65C8DE"/>
<stop offset="1" stop-color="#D2F7FF"/>
</linearGradient>
<linearGradient id="paint7_linear_3982_12449" x1="10.0723" y1="200.612" x2="144.659" y2="211.665" gradientUnits="userSpaceOnUse">
<stop stop-color="white"/>
<stop offset="1" stop-color="#BCF3FF"/>
</linearGradient>
<linearGradient id="paint8_linear_3982_12449" x1="162.072" y1="37.7787" x2="263.462" y2="40.7116" gradientUnits="userSpaceOnUse">
<stop stop-color="white"/>
<stop offset="1" stop-color="#BCF3FF"/>
</linearGradient>
<linearGradient id="paint9_linear_3982_12449" x1="76.4956" y1="174.653" x2="19.4956" y2="174.653" gradientUnits="userSpaceOnUse">
<stop stop-color="#D2F7FF"/>
<stop offset="1" stop-color="#65C8DE"/>
</linearGradient>
<linearGradient id="paint10_linear_3982_12449" x1="76.4501" y1="210.802" x2="19.9399" y2="210.802" gradientUnits="userSpaceOnUse">
<stop stop-color="#D2F7FF"/>
<stop offset="1" stop-color="#65C8DE"/>
</linearGradient>
<linearGradient id="paint11_linear_3982_12449" x1="76.4501" y1="191.802" x2="19.9399" y2="191.802" gradientUnits="userSpaceOnUse">
<stop stop-color="#D2F7FF"/>
<stop offset="1" stop-color="#65C8DE"/>
</linearGradient>
<linearGradient id="paint12_linear_3982_12449" x1="61.9957" y1="155.653" x2="21.4957" y2="155.653" gradientUnits="userSpaceOnUse">
<stop offset="0.243799" stop-color="#D2F7FF"/>
<stop offset="1" stop-color="#6BCBE0"/>
</linearGradient>
<linearGradient id="paint13_linear_3982_12449" x1="199.686" y1="198.017" x2="214.585" y2="181.675" gradientUnits="userSpaceOnUse">
<stop stop-color="#90E3F5"/>
<stop offset="1" stop-color="#65C8DE"/>
</linearGradient>
<linearGradient id="paint14_linear_3982_12449" x1="97.041" y1="112.895" x2="221.13" y2="113.7" gradientUnits="userSpaceOnUse">
<stop stop-color="#90E3F5"/>
<stop offset="1" stop-color="#65C8DE"/>
</linearGradient>
<linearGradient id="paint15_linear_3982_12449" x1="158.821" y1="93.8984" x2="211.406" y2="230.351" gradientUnits="userSpaceOnUse">
<stop stop-color="white"/>
<stop offset="1" stop-color="#D2F7FF"/>
</linearGradient>
<linearGradient id="paint16_linear_3982_12449" x1="132.112" y1="121.451" x2="188.778" y2="174.392" gradientUnits="userSpaceOnUse">
<stop stop-color="#FF698D"/>
<stop offset="1" stop-color="#FF3868"/>
</linearGradient>
<linearGradient id="paint17_linear_3982_12449" x1="99.1331" y1="212.142" x2="141.43" y2="212.416" gradientUnits="userSpaceOnUse">
<stop stop-color="#90E3F5"/>
<stop offset="1" stop-color="#65C8DE"/>
</linearGradient>
<linearGradient id="paint18_linear_3982_12449" x1="16.1331" y1="20.1414" x2="58.4299" y2="20.416" gradientUnits="userSpaceOnUse">
<stop stop-color="#90E3F5"/>
<stop offset="1" stop-color="#65C8DE"/>
</linearGradient>
<linearGradient id="paint19_linear_3982_12449" x1="117.167" y1="13.2721" x2="129.503" y2="13.3522" gradientUnits="userSpaceOnUse">
<stop stop-color="#90E3F5"/>
<stop offset="1" stop-color="#65C8DE"/>
</linearGradient>
<linearGradient id="paint20_linear_3982_12449" x1="227.989" y1="122.578" x2="240.681" y2="110.351" gradientUnits="userSpaceOnUse">
<stop stop-color="#90E3F5"/>
<stop offset="1" stop-color="#65C8DE"/>
</linearGradient>
<linearGradient id="paint21_linear_3982_12449" x1="20.8173" y1="97.248" x2="33.0285" y2="109.956" gradientUnits="userSpaceOnUse">
<stop stop-color="#90E3F5"/>
<stop offset="1" stop-color="#65C8DE"/>
</linearGradient>
<linearGradient id="paint22_linear_3982_12449" x1="187.817" y1="218.248" x2="200.029" y2="230.956" gradientUnits="userSpaceOnUse">
<stop stop-color="#90E3F5"/>
<stop offset="1" stop-color="#65C8DE"/>
</linearGradient>
<linearGradient id="paint23_linear_3982_12449" x1="234.167" y1="64.2721" x2="246.503" y2="64.3522" gradientUnits="userSpaceOnUse">
<stop stop-color="#90E3F5"/>
<stop offset="1" stop-color="#65C8DE"/>
</linearGradient>
</defs>
</svg>
