<svg width="121" height="120" viewBox="0 0 121 120" fill="none" xmlns="http://www.w3.org/2000/svg">
<g clip-path="url(#clip0_181_1702)">
<path d="M83.8613 4.62889C84.7015 5.3491 85.1231 5.8077 85.2456 6.9351C85.2848 8.15194 85.3153 9.12362 84.4765 10.0781C83.6672 10.8437 82.9513 11.1547 81.8984 11.4844C82.2678 11.7603 82.2678 11.7603 82.6446 12.0419C83.4951 12.678 84.3443 13.3158 85.1928 13.9544C85.5506 14.2233 85.9092 14.491 86.2682 14.7583C96.0635 22.1729 102.717 33.3047 105.336 45.2344C105.382 45.4409 105.429 45.6475 105.476 45.8603C106.959 52.7919 106.877 60.5896 105.336 67.5C105.288 67.724 105.24 67.9481 105.191 68.179C103.778 74.6624 101.044 81.1042 97.1328 86.4844C96.9727 86.7082 96.8125 86.9321 96.6476 87.1628C93.7068 91.1838 90.3214 94.9418 86.3515 97.9687C86.2208 98.0692 86.0901 98.1697 85.9555 98.2733C75.7773 106.064 63.9235 109.349 51.2024 109.31C50.6727 109.311 50.143 109.312 49.6133 109.313C48.1967 109.317 46.7801 109.315 45.3635 109.313C43.8734 109.311 42.3832 109.313 40.8931 109.314C38.2386 109.316 35.5841 109.313 32.9296 109.31C30.5253 109.307 28.121 109.307 25.7166 109.31C22.9114 109.314 20.1063 109.316 17.3011 109.313C15.8206 109.312 14.3401 109.312 12.8597 109.315C11.4722 109.317 10.0848 109.315 8.69732 109.311C8.18844 109.31 7.67955 109.31 7.17067 109.312C6.4766 109.314 5.78268 109.312 5.08862 109.308C4.88713 109.31 4.68564 109.311 4.47804 109.313C3.3141 109.301 2.51662 109.159 1.50778 108.516C0.412834 107.302 0.254382 106.548 0.269072 104.945C0.385381 103.817 0.930783 103.192 1.7568 102.466C2.79216 101.831 3.83586 101.919 5.00779 101.919C5.33299 101.918 5.33298 101.918 5.66475 101.917C6.39444 101.914 7.12412 101.913 7.85382 101.912C8.37585 101.911 8.89789 101.909 9.41993 101.908C10.5464 101.904 11.6728 101.901 12.7992 101.899C14.5834 101.896 16.3676 101.89 18.1518 101.884C20.6567 101.876 23.1615 101.868 25.6664 101.861C25.8254 101.861 25.9844 101.86 26.1483 101.86C28.3977 101.853 30.6471 101.848 32.8966 101.842C33.0545 101.842 33.2124 101.842 33.3752 101.841C33.5329 101.841 33.6907 101.841 33.8532 101.84C36.4948 101.834 39.1364 101.826 41.7781 101.816C43.5482 101.81 45.3183 101.806 47.0884 101.803C48.1959 101.801 49.3034 101.797 50.4108 101.792C50.9204 101.791 51.43 101.79 51.9396 101.79C55.8055 101.788 59.6069 101.628 63.3828 100.723C63.5976 100.672 63.8124 100.622 64.0338 100.57C67.4179 99.7499 70.5897 98.5998 73.6953 97.0312C73.8557 96.9518 74.0161 96.8723 74.1814 96.7904C79.3606 94.215 84.3388 90.5354 87.9922 86.0156C88.284 85.6626 88.284 85.6626 88.5818 85.3024C90.2106 83.3042 91.6196 81.2126 92.914 78.9844C93.0509 78.7493 93.0509 78.7493 93.1905 78.5094C95.4996 74.486 97.0795 70.1515 98.0703 65.625C98.1087 65.4593 98.147 65.2936 98.1866 65.1229C99.5175 59.1543 99.2733 52.0823 97.8359 46.1719C97.7857 45.9615 97.7355 45.7511 97.6837 45.5343C94.9227 34.3034 88.0351 24.6231 78.3828 18.2812C78.2281 18.2039 78.0734 18.1265 77.914 18.0469C77.9914 18.2015 78.0687 18.3562 78.1484 18.5156C78.2705 19.741 78.299 20.7751 77.7675 21.8994C76.8509 22.8884 76.1223 23.487 74.75 23.54C73.5167 23.4778 72.6637 23.1409 71.8148 22.2198C71.0154 21.0855 70.7316 19.7585 70.3573 18.4379C70.2293 17.9871 70.099 17.537 69.9673 17.0873C69.7358 16.295 69.5103 15.5013 69.2861 14.707C69.2124 14.4548 69.1388 14.2027 69.0629 13.9428C68.5364 12.0321 68.0695 9.95799 68.9052 8.08592C70.1624 6.79649 71.6596 6.34187 73.3565 5.89872C73.5677 5.84227 73.7789 5.78582 73.9964 5.72765C74.4409 5.60969 74.8857 5.49295 75.3308 5.37739C76.0073 5.20082 76.6818 5.01786 77.3565 4.83442C77.7906 4.72005 78.2249 4.60605 78.6593 4.49247C78.9582 4.41048 78.9582 4.41048 79.2632 4.32683C80.9002 3.91158 82.3348 3.83735 83.8613 4.62889Z" fill="white"/>
<path d="M74.1589 32.0214C80.3133 37.227 84.1716 44.5197 85.1803 52.5C85.3915 56.6851 85.4055 60.8692 84.2428 64.9219C84.2001 65.0779 84.1575 65.2338 84.1136 65.3945C82.9023 69.7396 80.5791 73.6831 77.6803 77.1094C77.5217 77.2997 77.363 77.4901 77.1996 77.6862C71.9292 83.7948 64.115 87.4689 56.1178 88.125C51.4171 88.3662 46.9521 87.8576 42.524 86.25C42.2847 86.1636 42.0455 86.0772 41.7989 85.9882C38.5339 84.7155 35.5873 82.8756 32.9146 80.625C32.6787 80.4277 32.4427 80.2305 32.1996 80.0272C26.3942 75.019 22.8575 67.791 21.899 60.2344C21.6878 56.0493 21.6738 51.8652 22.8365 47.8125C22.9005 47.5786 22.9005 47.5786 22.9657 47.3399C24.177 42.9949 26.5002 39.0514 29.399 35.625C29.6369 35.3395 29.6369 35.3395 29.8797 35.0482C41.0837 22.0622 61.2111 21.3745 74.1589 32.0214ZM37.3678 37.9688C37.1856 38.1341 37.1856 38.1341 36.9998 38.3028C32.7281 42.2195 29.4634 47.7811 29.1232 53.6891C29.0198 58.7984 29.0198 58.7984 30.1021 63.75C30.1756 63.9714 30.1756 63.9714 30.2506 64.1973C31.4959 67.8653 33.4831 70.8567 36.1959 73.5938C36.3602 73.7696 36.5246 73.9454 36.6939 74.1266C40.7936 78.4412 47.0233 80.7547 52.8906 80.9542C59.9756 81.0469 66.1893 78.2288 71.235 73.3448C75.7489 68.8235 77.9584 62.8166 77.9732 56.4844C77.9667 49.4656 75.468 43.7414 70.5611 38.7451C69.3517 37.5471 68.1347 36.4969 66.6646 35.625C66.5246 35.5417 66.3845 35.4584 66.2402 35.3726C63.8205 33.9558 61.4238 32.9846 58.6959 32.3438C58.4614 32.2864 58.227 32.229 57.9854 32.1698C50.7829 30.6929 42.7474 33.0177 37.3678 37.9688Z" fill="white"/>
<path d="M52.6595 3.42773C52.8254 3.42447 52.9914 3.4212 53.1624 3.41784C54.2352 3.42794 54.971 3.65815 55.8822 4.21875C56.9771 5.43207 57.1356 6.18598 57.1209 7.78931C57.0046 8.91734 56.4592 9.54266 55.6331 10.2686C54.8153 10.7698 54.0909 10.8248 53.153 10.8737C40.0778 11.6309 27.9982 16.3871 19.0853 26.25C10.6418 36.0125 7.11008 47.9197 7.83528 60.7031C8.67307 71.0689 13.8537 80.5934 20.9432 88.0074C21.9874 89.112 22.7754 90.0835 22.8353 91.6406C22.6289 92.7729 22.3164 93.6896 21.429 94.4531C20.3822 95.151 19.3893 95.3389 18.1478 95.1563C17.0129 94.6974 16.2188 94.034 15.3792 93.1641C15.1962 92.9773 15.1962 92.9773 15.0095 92.7868C13.8678 91.6065 12.8309 90.3558 11.8197 89.0625C11.6375 88.8401 11.4553 88.6178 11.2676 88.3887C4.82992 80.3646 0.378606 69.3616 0.279434 59.0268C0.277139 58.8277 0.274843 58.6287 0.272478 58.4236C0.231516 53.9479 0.276363 49.6212 1.27278 45.2344C1.32301 45.0126 1.37324 44.7908 1.42499 44.5623C4.23618 32.5993 11.2743 21.6048 21.1947 14.2969C21.3259 14.1982 21.4572 14.0996 21.5925 13.998C30.5377 7.2813 41.4643 3.56527 52.6595 3.42773Z" fill="white"/>
<path d="M111.349 95.1703C112.372 95.7635 113.119 96.515 113.946 97.3526C114.198 97.6053 114.198 97.6053 114.456 97.8631C114.811 98.2182 115.165 98.5742 115.518 98.9311C116.058 99.477 116.601 100.02 117.145 100.562C117.49 100.908 117.835 101.254 118.179 101.601C118.341 101.763 118.504 101.925 118.671 102.092C118.821 102.245 118.971 102.397 119.126 102.554C119.324 102.754 119.324 102.754 119.527 102.958C120.404 103.992 120.44 104.932 120.406 106.249C120.231 107.809 118.954 108.764 117.878 109.796C117.402 110.276 116.96 110.762 116.519 111.273C115.631 112.297 114.698 113.267 113.744 114.229C113.583 114.395 113.421 114.561 113.254 114.733C113.017 114.972 113.017 114.972 112.776 115.215C112.635 115.358 112.494 115.501 112.35 115.648C111.423 116.403 110.504 116.579 109.318 116.543C108.256 116.41 107.606 115.96 106.903 115.181C106.1 114.021 106.129 112.947 106.273 111.563C106.717 110.706 107.236 110.121 107.914 109.453C107.724 109.452 107.535 109.451 107.339 109.451C105.546 109.442 103.754 109.428 101.961 109.41C101.039 109.401 100.117 109.393 99.1957 109.39C98.3051 109.386 97.4147 109.378 96.5241 109.367C96.1855 109.363 95.8469 109.362 95.5083 109.361C93.6578 109.359 92.1562 109.328 90.5703 108.281C89.883 107.495 89.6613 106.606 89.5156 105.586C89.7118 104.213 90.0864 103.27 91.192 102.403C92.5767 101.638 94.217 101.811 95.7549 101.81C96.0994 101.807 96.4439 101.803 96.7883 101.799C97.6903 101.788 98.5923 101.784 99.4943 101.78C100.417 101.776 101.339 101.766 102.261 101.756C104.067 101.739 105.873 101.727 107.68 101.719C107.491 101.496 107.303 101.274 107.108 101.045C106.231 100.01 106.194 99.2607 106.207 97.9139C106.323 96.7858 106.868 96.1605 107.694 95.4346C108.838 94.7338 110.126 94.6823 111.349 95.1703Z" fill="white"/>
<path d="M65.7714 49.2481C66.6818 49.855 67.3415 50.5719 67.8368 51.5625C67.8927 52.1228 67.8927 52.1228 67.9101 52.793C67.9232 53.1211 67.9232 53.1211 67.9366 53.4558C67.7172 54.9616 66.4932 56.022 65.4561 57.0545C65.3138 57.198 65.1715 57.3415 65.0249 57.4893C64.5575 57.96 64.0883 58.4289 63.619 58.8977C63.292 59.2256 62.9651 59.5535 62.6383 59.8815C61.9545 60.5671 61.2697 61.2517 60.5844 61.9358C59.7066 62.8123 58.8314 63.6914 57.957 64.5713C57.2832 65.2485 56.6079 65.9241 55.932 66.5992C55.6086 66.9227 55.2858 67.2468 54.9635 67.5714C54.5131 68.0247 54.0605 68.4757 53.6073 68.9262C53.4749 69.0604 53.3425 69.1945 53.2061 69.3328C52.0469 70.4767 51.2148 70.8231 49.5931 70.8664C47.9583 70.5915 46.9272 69.4244 45.8166 68.2993C45.6428 68.1256 45.469 67.952 45.29 67.773C44.9244 67.4069 44.5596 67.0398 44.1956 66.672C43.6383 66.1091 43.0779 65.5494 42.517 64.9901C42.1616 64.6334 41.8064 64.2765 41.4513 63.9194C41.2839 63.7521 41.1164 63.5849 40.9438 63.4125C40.7114 63.1767 40.7114 63.1767 40.4742 62.9362C40.338 62.7988 40.2017 62.6615 40.0613 62.5199C39.1782 61.4825 39.1425 60.5474 39.1689 59.2246C39.3088 58.0351 39.9232 57.4198 40.7812 56.6455C41.7564 55.9704 42.7706 55.845 43.9306 56.0157C44.9548 56.4632 45.6681 56.9654 46.4483 57.7616C46.7429 58.0595 46.7429 58.0595 47.0434 58.3635C47.244 58.57 47.4446 58.7765 47.6513 58.9893C47.8573 59.1985 48.0634 59.4077 48.2757 59.6233C48.7821 60.1379 49.2867 60.6542 49.79 61.1719C50.6534 60.8103 51.1949 60.2884 51.848 59.6247C51.956 59.5156 52.064 59.4066 52.1752 59.2942C52.4087 59.0581 52.6417 58.8215 52.8742 58.5845C53.2426 58.209 53.6126 57.8351 53.983 57.4616C55.0356 56.3997 56.0852 55.3349 57.134 54.2693C57.7764 53.6168 58.4206 52.9661 59.0657 52.3164C59.3108 52.0689 59.5551 51.8207 59.7988 51.5718C60.1398 51.2235 60.4829 50.8774 60.8266 50.5316C61.021 50.3342 61.2154 50.1368 61.4157 49.9335C62.7129 48.8243 64.1949 48.6916 65.7714 49.2481Z" fill="white"/>
</g>
<defs>
<clipPath id="clip0_181_1702">
<rect width="120" height="120" fill="white" transform="translate(0.335938)"/>
</clipPath>
</defs>
</svg>
