<svg width="121" height="120" viewBox="0 0 121 120" fill="none" xmlns="http://www.w3.org/2000/svg">
<g clip-path="url(#clip0_181_1736)">
<path d="M30.2231 -0.101599C30.4917 -0.102827 30.7603 -0.104056 31.037 -0.105321C31.6028 -0.106821 32.1685 -0.106519 32.7342 -0.104517C33.5968 -0.10252 34.4591 -0.109274 35.3216 -0.116705C35.8731 -0.117083 36.4245 -0.116947 36.976 -0.116247C37.2321 -0.11888 37.4883 -0.121513 37.7522 -0.124226C39.4153 -0.109147 40.7989 0.0926921 42.0414 1.27673C44.9564 4.61388 43.3261 7.70811 43.3261 12.8907C54.773 12.8907 66.2198 12.8907 78.0136 12.8907C78.0136 9.71956 78.0136 6.54846 78.0136 3.28128C79.6649 0.639235 79.6649 0.639235 81.5292 2.5034e-05C82.1259 -0.0626528 82.1259 -0.0626528 82.7653 -0.0680673C83.0064 -0.0710579 83.2474 -0.0740484 83.4958 -0.0771296C83.7541 -0.0776512 84.0124 -0.0781729 84.2785 -0.0787103C84.547 -0.0802705 84.8155 -0.0818307 85.0922 -0.0834382C85.6601 -0.0858094 86.2281 -0.086911 86.7961 -0.0868356C87.6597 -0.0878571 88.5231 -0.0963627 89.3867 -0.105261C89.9398 -0.106637 90.493 -0.107567 91.0461 -0.108007C91.302 -0.111375 91.558 -0.114744 91.8217 -0.118214C93.696 -0.107169 95.3746 0.195744 96.8661 1.39804C97.0474 1.62689 97.0474 1.62689 97.2323 1.86038C97.4209 2.08833 97.4209 2.08833 97.6132 2.32089C98.4229 3.55612 98.4684 4.61348 98.45 6.04708C98.449 6.34112 98.449 6.34112 98.448 6.6411C98.4454 7.26436 98.4395 7.88753 98.4335 8.51077C98.4311 8.9345 98.429 9.35824 98.4271 9.78198C98.4219 10.8182 98.4138 11.8544 98.4042 12.8907C98.5354 12.8886 98.6667 12.8865 98.8019 12.8843C100.182 12.8634 101.563 12.8494 102.943 12.8392C103.457 12.8345 103.97 12.8281 104.484 12.8199C108.534 12.7571 112.236 12.8535 115.383 15.7636C118.127 18.648 118.632 21.4862 118.623 25.3459C118.624 25.7086 118.625 26.0714 118.626 26.4342C118.629 27.4284 118.629 28.4226 118.629 29.4168C118.629 30.4901 118.631 31.5635 118.633 32.6368C118.637 34.7388 118.638 36.8408 118.639 38.9428C118.639 40.6521 118.64 42.3613 118.641 44.0706C118.646 48.9195 118.648 53.7684 118.647 58.6173C118.647 58.8786 118.647 59.1399 118.647 59.4092C118.647 59.6708 118.647 59.9324 118.647 60.202C118.647 64.4403 118.652 68.6786 118.658 72.9168C118.665 77.2715 118.668 81.6262 118.668 85.9809C118.668 88.4246 118.669 90.8682 118.674 93.3119C118.678 95.3929 118.679 97.4738 118.676 99.5548C118.674 100.616 118.674 101.676 118.679 102.737C118.682 103.71 118.682 104.683 118.677 105.656C118.677 106.006 118.678 106.357 118.68 106.707C118.71 110.94 117.576 114.26 114.675 117.361C112.037 119.824 109.125 120.104 105.699 120.091C105.295 120.092 104.89 120.093 104.486 120.095C103.379 120.098 102.272 120.097 101.165 120.095C99.9692 120.094 98.7738 120.097 97.5784 120.1C95.2378 120.104 92.8971 120.104 90.5565 120.103C88.6538 120.102 86.7512 120.102 84.8485 120.103C84.5776 120.103 84.3068 120.104 84.0277 120.104C83.4774 120.104 82.9271 120.104 82.3768 120.105C77.2171 120.108 72.0575 120.107 66.8978 120.104C62.1785 120.102 57.4594 120.105 52.7402 120.11C47.8931 120.116 43.0461 120.118 38.1991 120.117C35.4784 120.116 32.7577 120.117 30.037 120.121C27.7209 120.124 25.4048 120.124 23.0887 120.12C21.9074 120.118 20.7261 120.118 19.5448 120.121C18.4625 120.124 17.3803 120.123 16.298 120.119C15.9073 120.118 15.5167 120.119 15.126 120.121C11.7325 120.141 8.99581 119.518 6.44772 117.144C3.45632 114.027 2.66986 110.474 2.68834 106.287C2.68736 105.923 2.68608 105.56 2.68452 105.196C2.68114 104.203 2.68212 103.21 2.68385 102.217C2.68496 101.144 2.68203 100.07 2.67963 98.997C2.6756 96.8966 2.6754 94.7962 2.67663 92.6957C2.67758 90.9879 2.67724 89.2802 2.67599 87.5724C2.67581 87.329 2.67564 87.0857 2.67546 86.835C2.6751 86.3406 2.67474 85.8461 2.67438 85.3517C2.67116 80.7185 2.67243 76.0852 2.67512 71.4519C2.67745 67.2165 2.67442 62.9812 2.66881 58.7458C2.66309 54.393 2.66084 50.0401 2.6624 45.6873C2.66322 43.245 2.6627 40.8028 2.65859 38.3606C2.65514 36.2816 2.655 34.2027 2.65908 32.1237C2.66107 31.0638 2.66158 30.004 2.65799 28.9441C2.65473 27.9723 2.65587 27.0005 2.66038 26.0287C2.66126 25.6787 2.66059 25.3287 2.65813 24.9788C2.63378 21.243 3.48023 18.4518 6.0394 15.6885C8.39229 13.4467 11.3698 12.812 14.5126 12.8449C14.7545 12.8455 14.9963 12.8462 15.2455 12.8469C16.012 12.8495 16.7784 12.8554 17.5448 12.8614C18.067 12.8637 18.5891 12.8658 19.1113 12.8678C20.386 12.8729 21.6607 12.8807 22.9355 12.8907C22.9281 12.5007 22.9281 12.5007 22.9206 12.1028C22.9035 11.1314 22.8928 10.16 22.884 9.18849C22.8793 8.7693 22.8729 8.35014 22.8647 7.93101C22.8533 7.32588 22.848 6.72096 22.8439 6.11575C22.8391 5.93061 22.8342 5.74548 22.8292 5.55473C22.8286 4.01858 23.2769 2.83177 24.2575 1.6434C24.4442 1.48977 24.4442 1.48977 24.6347 1.33303C24.7567 1.22759 24.8788 1.12215 25.0045 1.01351C26.7098 -0.0262175 28.2718 -0.10684 30.2231 -0.101599ZM29.498 5.8594C29.498 11.0414 29.498 16.2235 29.498 21.5625C32.1276 21.5625 34.7573 21.5625 37.4667 21.5625C37.4667 16.3805 37.4667 11.1985 37.4667 5.8594C34.837 5.8594 32.2073 5.8594 29.498 5.8594ZM83.6386 5.8594C83.6386 11.0414 83.6386 16.2235 83.6386 21.5625C86.5003 21.5625 89.362 21.5625 92.3105 21.5625C92.3105 16.3805 92.3105 11.1985 92.3105 5.8594C89.4487 5.8594 86.587 5.8594 83.6386 5.8594ZM9.60537 20.8301C5.94916 26.2069 8.63858 33.8104 8.63858 40.3125C42.9792 40.3125 77.3198 40.3125 112.701 40.3125C114.208 29.6895 114.208 29.6895 111.552 20.5454C111.395 20.4218 111.237 20.2982 111.075 20.1709C110.918 20.0431 110.761 19.9153 110.6 19.7837C109.748 19.1932 109.135 18.9254 108.089 18.9312C107.874 18.9312 107.658 18.9313 107.435 18.9313C107.204 18.9337 106.973 18.9361 106.736 18.9386C106.498 18.9393 106.26 18.94 106.014 18.9406C105.255 18.9433 104.496 18.9491 103.736 18.9551C103.221 18.9575 102.706 18.9596 102.191 18.9615C100.929 18.9667 99.6664 18.9745 98.4042 18.9844C98.3902 19.2594 98.3761 19.5345 98.3617 19.8179C98.342 20.1815 98.3223 20.5452 98.3026 20.9088C98.2889 21.1803 98.2889 21.1803 98.275 21.4572C98.1758 23.2464 97.9537 24.456 96.5878 25.7373C94.7275 27.2358 92.8524 27.4584 90.5343 27.4695C90.3173 27.4708 90.1003 27.4722 89.8767 27.4736C89.418 27.4758 88.9594 27.4773 88.5008 27.4782C87.8044 27.4805 87.1081 27.4877 86.4117 27.4951C85.9646 27.4967 85.5175 27.4979 85.0705 27.4988C84.7616 27.5031 84.7616 27.5031 84.4466 27.5076C82.7636 27.5016 80.9879 27.2293 79.6835 26.0742C79.5584 25.9691 79.4333 25.864 79.3045 25.7556C77.6751 23.7126 78.1453 21.6198 78.0136 18.9844C66.5667 18.9844 55.1198 18.9844 43.3261 18.9844C43.2487 20.5313 43.1714 22.0781 43.0917 23.6719C42.1945 25.4662 41.659 26.4374 39.7903 27.0965C38.6188 27.4709 37.5329 27.5239 36.3104 27.5153C36.0952 27.516 35.8801 27.5166 35.6584 27.5173C35.2064 27.5178 34.7544 27.5165 34.3024 27.5136C33.6168 27.5098 32.9315 27.5135 32.2459 27.518C31.8039 27.5176 31.3618 27.5167 30.9198 27.5153C30.6172 27.5174 30.6172 27.5174 30.3085 27.5196C28.2997 27.4967 26.3953 27.0713 24.8105 25.7813C23.3658 24.271 23.105 22.8959 23.0233 20.8887C23.0097 20.6132 23.0097 20.6132 22.9959 20.3321C22.974 19.8829 22.9545 19.4337 22.9355 18.9844C21.4344 18.9546 19.9335 18.9341 18.4322 18.92C17.9221 18.9142 17.412 18.9062 16.9019 18.896C16.1665 18.8817 15.4313 18.8751 14.6957 18.87C14.4696 18.8639 14.2434 18.8579 14.0104 18.8516C12.1333 18.8509 10.8769 19.4496 9.60537 20.8301ZM8.63858 46.4063C8.62408 56.519 8.60957 66.6317 8.59463 77.0508C8.58823 80.2433 8.58183 83.4357 8.57523 86.725C8.57288 89.588 8.57288 89.588 8.57147 92.4511C8.57081 93.7258 8.56824 95.0004 8.56435 96.2751C8.55986 97.7466 8.55784 99.2181 8.55881 100.69C8.55923 101.442 8.55819 102.194 8.55476 102.946C8.55124 103.753 8.55211 104.561 8.55402 105.369C8.55198 105.6 8.54993 105.832 8.54782 106.07C8.56349 108.538 8.97848 111.129 10.748 112.969C12.6253 114.388 14.7277 114.306 16.9703 114.289C17.3631 114.291 17.756 114.293 18.1488 114.295C19.224 114.3 20.299 114.297 21.3742 114.294C22.5354 114.291 23.6965 114.295 24.8577 114.299C27.1308 114.304 29.4038 114.303 31.6768 114.299C33.5244 114.297 35.3719 114.296 37.2195 114.297C37.4826 114.298 37.7457 114.298 38.0168 114.298C38.5513 114.298 39.0858 114.299 39.6203 114.299C44.6307 114.302 49.641 114.299 54.6514 114.292C58.9492 114.287 63.2469 114.288 67.5448 114.293C72.5374 114.3 77.53 114.302 82.5226 114.299C83.0551 114.298 83.5876 114.298 84.1202 114.297C84.3822 114.297 84.6442 114.297 84.9141 114.297C86.7592 114.296 88.6042 114.298 90.4492 114.3C92.6982 114.304 94.9471 114.303 97.196 114.297C98.3432 114.293 99.4902 114.292 100.637 114.296C101.688 114.3 102.739 114.298 103.79 114.291C104.169 114.29 104.548 114.291 104.928 114.294C107.003 114.308 108.87 114.271 110.592 112.969C112.548 110.934 112.809 108.064 112.786 105.369C112.787 104.988 112.787 104.988 112.787 104.6C112.789 103.757 112.785 102.913 112.781 102.069C112.781 101.452 112.781 100.834 112.781 100.217C112.782 98.7351 112.778 97.2535 112.774 95.7719C112.769 94.0563 112.768 92.3406 112.768 90.625C112.764 86.1003 112.754 81.5755 112.745 77.0508C112.731 66.9381 112.716 56.8254 112.701 46.4063C78.3605 46.4063 44.0198 46.4063 8.63858 46.4063Z" fill="white"/>
<path d="M59.6595 53.5309C60.58 53.7707 61.3115 54.2028 61.8781 54.9828C62.1503 55.4553 62.3934 55.9354 62.6322 56.4258C62.7268 56.6125 62.8214 56.7993 62.9188 56.9918C63.1371 57.4245 63.3536 57.8582 63.5687 58.2925C63.929 59.0189 64.2931 59.7433 64.6586 60.467C65.407 61.9491 66.153 63.4324 66.894 64.9182C66.9649 65.0597 67.0359 65.2011 67.109 65.3469C67.6706 66.476 67.6706 66.476 67.8579 67.0162C68.0252 67.5238 68.0252 67.5238 68.4037 68.2031C69.0362 68.5153 69.0362 68.5153 69.798 68.5785C70.0854 68.62 70.3728 68.6616 70.6688 68.7045C70.9831 68.7425 71.2974 68.7804 71.6117 68.8183C71.9346 68.8631 72.2575 68.9087 72.5802 68.9551C73.2589 69.0517 73.9379 69.1444 74.6175 69.234C76.1831 69.4417 77.7446 69.6761 79.3057 69.9155C79.7927 69.9891 80.28 70.0588 80.7676 70.1281C81.0653 70.1726 81.363 70.2172 81.6697 70.263C81.9315 70.301 82.1933 70.3389 82.4631 70.378C83.4687 70.6184 84.1281 71.0542 84.8832 71.748C85.4214 72.6651 85.5107 73.4921 85.2787 74.5312C84.568 75.8127 83.564 76.7769 82.5248 77.7978C82.2864 78.036 82.2864 78.036 82.0432 78.2789C81.2681 79.0475 80.4817 79.7917 79.6546 80.5041C78.6412 81.379 77.7053 82.3213 76.7679 83.2763C76.4423 83.608 76.1161 83.9391 75.7892 84.2697C75.6478 84.4139 75.5063 84.5581 75.3605 84.7067C74.9662 85.0781 74.9662 85.0781 74.2631 85.5468C74.3938 87.3474 74.6478 89.0944 74.99 90.8661C75.0865 91.3821 75.183 91.8981 75.2793 92.4142C75.4303 93.2162 75.5823 94.018 75.7361 94.8194C75.8856 95.6008 76.0313 96.3827 76.1765 97.1649C76.2464 97.5209 76.2464 97.5209 76.3178 97.8842C76.6208 99.5355 76.8626 101.159 75.9476 102.642C75.2032 103.343 74.7867 103.559 73.765 103.682C71.6971 103.481 69.8166 102.331 68.0082 101.367C67.5373 101.119 67.0664 100.871 66.5955 100.623C66.3548 100.495 66.114 100.368 65.866 100.237C64.6237 99.5801 63.3791 98.9279 62.1342 98.2763C61.789 98.0946 61.789 98.0946 61.4368 97.9092C61.2234 97.7974 61.01 97.6856 60.7902 97.5705C60.6023 97.4718 60.4145 97.3731 60.2209 97.2714C59.7071 97.0055 59.7071 97.0055 59.0287 96.7968C58.3628 97.0571 58.3628 97.0571 57.6298 97.4606C57.4229 97.5687 57.4229 97.5687 57.2118 97.679C56.7616 97.915 56.3131 98.1542 55.8646 98.3935C55.5557 98.5562 55.2466 98.7186 54.9375 98.8809C54.1736 99.2823 53.4111 99.6863 52.649 100.091C51.852 100.514 51.053 100.933 50.2543 101.353C49.8966 101.541 49.5393 101.729 49.1822 101.919C48.8676 102.085 48.5526 102.251 48.2371 102.416C47.9178 102.583 47.5994 102.752 47.2818 102.923C46.0766 103.554 45.1626 103.847 43.7943 103.594C42.8351 103.105 42.3176 102.712 41.9193 101.719C41.6839 99.9038 42.1045 98.0823 42.4485 96.308C42.5575 95.7217 42.6664 95.1355 42.7753 94.5492C42.9482 93.6325 43.1221 92.7159 43.2971 91.7996C43.466 90.9102 43.6313 90.0203 43.7961 89.1302C43.8498 88.8553 43.9035 88.5804 43.9588 88.2972C44.0058 88.042 44.0527 87.7869 44.1011 87.524C44.1438 87.3 44.1865 87.076 44.2305 86.8452C44.2773 85.9896 43.9933 85.5442 43.4481 84.9094C43.3152 84.7774 43.1823 84.6455 43.0454 84.5096C42.8968 84.3614 42.7481 84.2132 42.595 84.0605C42.4397 83.9081 42.2844 83.7556 42.1244 83.5986C41.9745 83.4489 41.8247 83.2992 41.6703 83.145C40.919 82.4005 40.1554 81.6814 39.354 80.9912C38.3034 80.0832 37.3287 79.1072 36.3529 78.1201C36.1792 77.9453 36.0055 77.7705 35.8265 77.5905C35.5046 77.2666 35.183 76.9425 34.8617 76.618C34.55 76.3036 34.2335 75.9939 33.9137 75.6877C33.3471 75.0929 33.1859 74.6296 33.0131 73.8281C33.0567 72.5857 33.3036 71.8969 34.1849 71.0156C34.9367 70.5603 35.6403 70.4286 36.5049 70.3C36.7833 70.2578 37.0618 70.2156 37.3487 70.1721C37.6485 70.1284 37.9483 70.0847 38.2572 70.0396C38.5689 69.9931 38.8806 69.9465 39.1923 69.8998C39.8447 69.8023 40.4972 69.7059 41.1498 69.6103C41.9854 69.4878 42.8207 69.3634 43.6559 69.2383C44.2993 69.142 44.9427 69.0465 45.5862 68.9512C46.0437 68.8834 46.5012 68.8152 46.9587 68.7471C47.2372 68.7063 47.5156 68.6656 47.8025 68.6237C48.0474 68.5876 48.2923 68.5515 48.5446 68.5144C49.1849 68.4375 49.1849 68.4375 50.1224 68.4375C50.1822 68.2413 50.242 68.0452 50.3036 67.8431C50.6184 66.9545 51.0152 66.1286 51.4426 65.2908C51.526 65.1254 51.6093 64.9599 51.6951 64.7895C51.961 64.2619 52.2281 63.7349 52.4955 63.208C52.7565 62.6926 53.0171 62.177 53.2772 61.6612C53.4509 61.3168 53.625 60.9727 53.7997 60.6288C54.2434 59.7491 54.6683 58.8658 55.0661 57.9644C55.1459 57.7857 55.2258 57.6071 55.3081 57.423C55.4576 57.0861 55.6037 56.7477 55.7455 56.4075C56.5318 54.6434 57.6648 53.5089 59.6595 53.5309ZM59.0287 63.75C58.8999 64.0136 58.7712 64.2773 58.6385 64.5489C58.1582 65.5307 57.6748 66.511 57.1905 67.4908C56.9816 67.9143 56.7737 68.3383 56.5665 68.7627C56.268 69.3741 55.9664 69.9839 55.6641 70.5935C55.5728 70.7823 55.4814 70.9711 55.3873 71.1656C54.7693 72.4022 54.1724 73.5695 52.7856 74.036C52.4567 74.079 52.4567 74.079 52.121 74.1229C51.8736 74.1579 51.6261 74.1928 51.3711 74.2289C51.1089 74.261 50.8467 74.2931 50.5765 74.3261C50.3077 74.3631 50.0388 74.4 49.7618 74.4381C49.2118 74.5136 48.6616 74.5873 48.1111 74.6592C46.9334 74.8156 45.7596 74.9958 44.5853 75.1758C44.2014 75.2333 43.8175 75.2907 43.4336 75.3479C43.1659 75.3878 42.8982 75.4276 42.6224 75.4687C43.4648 76.4873 44.3262 77.4172 45.3177 78.2959C46.4574 79.3201 47.5584 80.3775 48.6429 81.4599C48.7865 81.6024 48.93 81.7449 49.0778 81.8917C50.0735 82.8906 50.394 83.3103 50.4154 84.7073C50.3989 86.842 50.0167 88.9123 49.6537 91.0107C49.5857 91.4146 49.518 91.8185 49.4504 92.2224C49.2864 93.2008 49.1193 94.1786 48.9506 95.1562C51.2519 94.0217 53.519 92.8555 55.7401 91.5692C58.3231 90.1121 58.3231 90.1121 59.7131 90.2929C61.6559 90.844 63.4618 92.012 65.225 92.9736C65.7406 93.2538 66.2564 93.5335 66.7729 93.812C67.0925 93.9845 67.4115 94.1579 67.7299 94.3324C68.4917 94.7758 68.4917 94.7758 69.3412 94.9218C69.1813 92.5757 68.7641 90.2917 68.3401 87.9812C68.2882 87.6915 68.2364 87.4018 68.183 87.1032C68.1116 86.7136 68.1116 86.7136 68.0388 86.3161C67.8209 84.702 67.8773 83.5921 68.8724 82.2656C69.4474 81.6733 69.4474 81.6733 70.1029 81.1084C71.3505 80.01 72.535 78.8598 73.7064 77.6806C73.8702 77.5158 74.0341 77.3511 74.2029 77.1813C74.4962 76.8858 74.7893 76.59 75.0821 76.294C75.3551 76.0181 75.6292 75.7432 75.9037 75.4687C75.6141 75.4298 75.3245 75.3909 75.0261 75.3508C73.9464 75.2051 72.8672 75.0563 71.7881 74.9065C71.322 74.8423 70.8558 74.7789 70.3894 74.7163C69.7171 74.626 69.0453 74.5327 68.3735 74.4388C68.0632 74.3981 68.0632 74.3981 67.7466 74.3565C64.9493 73.9574 64.9493 73.9574 64.0588 72.9526C63.9856 72.8025 63.9124 72.6524 63.837 72.4978C63.7497 72.3254 63.6623 72.153 63.5723 71.9754C63.4845 71.7892 63.3966 71.6029 63.306 71.4111C63.21 71.2184 63.114 71.0257 63.015 70.8272C62.8083 70.4112 62.6038 69.9942 62.4013 69.5762C62.0576 68.8694 61.706 68.167 61.3523 67.4652C60.7296 66.229 60.1119 64.9903 59.4974 63.75C59.3427 63.75 59.1881 63.75 59.0287 63.75Z" fill="white"/>
</g>
<defs>
<clipPath id="clip0_181_1736">
<rect width="120" height="120" fill="white" transform="translate(0.669312)"/>
</clipPath>
</defs>
</svg>
