<svg width="121" height="120" viewBox="0 0 121 120" fill="none" xmlns="http://www.w3.org/2000/svg">
<g clip-path="url(#clip0_181_1780)">
<path d="M50.3568 0C57.1631 0 63.9693 0 70.9818 0C71.0592 1.77891 71.1365 3.55781 71.2162 5.39062C72.4286 6.30292 72.9307 6.60827 74.2631 7.03125C74.4307 7.16298 74.5984 7.2947 74.7712 7.43042C75.1745 7.79045 75.1745 7.79045 75.6412 7.66748C76.1523 7.49521 76.5584 7.28183 77.017 6.99921C77.1789 6.90268 77.3408 6.80615 77.5077 6.7067C77.8458 6.50241 78.1827 6.29608 78.5184 6.0878C78.6804 5.99218 78.8423 5.89655 79.0092 5.79803C79.1554 5.7087 79.3016 5.61937 79.4523 5.52732C79.8881 5.39062 79.8881 5.39062 80.3684 5.52893C80.9489 5.94855 81.1798 6.35874 81.5195 6.98914C81.6477 7.22304 81.7758 7.45694 81.9078 7.69793C82.0437 7.95165 82.1796 8.20538 82.3197 8.4668C82.6138 9.00384 82.9083 9.54064 83.2032 10.0772C83.3157 10.2828 83.3157 10.2828 83.4305 10.4926C84.184 11.8675 84.9694 13.2226 85.7621 14.5752C85.8953 14.8037 86.0285 15.0322 86.1658 15.2677C86.8598 16.455 87.5635 17.6355 88.2798 18.8095C88.4227 19.0456 88.5656 19.2816 88.7128 19.5248C88.9857 19.9749 89.2611 20.4236 89.5392 20.8705C89.6604 21.0711 89.7817 21.2716 89.9067 21.4783C90.0147 21.6536 90.1227 21.8289 90.2339 22.0095C90.4349 22.5 90.4349 22.5 90.4099 22.9948C90.13 23.5867 89.8298 23.7362 89.2548 24.0417C89.0652 24.1445 88.8757 24.2472 88.6803 24.353C88.4811 24.457 88.2818 24.5609 88.0765 24.668C87.7763 24.8293 87.7763 24.8293 87.47 24.9939C86.9754 25.2592 86.4794 25.5215 85.9818 25.7812C85.9845 26.0526 85.9872 26.3239 85.9901 26.6034C85.9923 26.9641 85.9944 27.3248 85.9965 27.6855C85.9984 27.8638 86.0004 28.0421 86.0024 28.2257C86.0068 29.2357 85.9493 30.177 85.7474 31.1719C85.903 31.2269 86.0586 31.2818 86.2189 31.3385C87.1139 31.7246 87.9204 32.2163 88.7504 32.7246C88.994 32.8723 88.994 32.8723 89.2425 33.0231C89.6404 33.2646 90.0377 33.5072 90.4349 33.75C90.2779 34.5449 89.9719 35.1589 89.5753 35.863C89.4449 36.0954 89.3145 36.3278 89.1801 36.5672C89.0383 36.817 88.8965 37.0668 88.7504 37.3242C88.5301 37.7146 88.5301 37.7146 88.3055 38.1128C86.9098 40.5792 85.486 43.0288 84.0484 45.471C83.6219 46.1995 83.2003 46.9307 82.7793 47.6624C82.5041 48.1372 82.2288 48.6121 81.9535 49.0869C81.8267 49.3092 81.7 49.5315 81.5694 49.7605C81.4511 49.9633 81.3328 50.1661 81.211 50.3751C81.1079 50.5541 81.0048 50.733 80.8986 50.9175C80.5912 51.3281 80.5912 51.3281 79.8881 51.5625C79.4574 51.3702 79.4574 51.3702 78.9808 51.0645C78.8075 50.9569 78.6342 50.8493 78.4557 50.7385C78.0929 50.507 77.7304 50.2751 77.3681 50.0427C77.1945 49.9352 77.0209 49.8276 76.8421 49.7168C76.6846 49.6159 76.527 49.515 76.3647 49.411C75.7843 49.169 75.5503 49.2444 74.9662 49.4531C74.8187 49.4976 74.6712 49.542 74.5192 49.5878C73.1278 50.0756 72.4854 50.608 71.2162 51.5625C71.1388 53.3414 71.0615 55.1203 70.9818 56.9531C64.1756 56.9531 57.3693 56.9531 50.3568 56.9531C50.2795 55.1742 50.2021 53.3953 50.1224 51.5625C48.7962 50.5652 47.8928 49.9113 46.3724 49.4531C46.2183 49.3979 46.0642 49.3427 45.9053 49.2859C45.2705 49.1953 45.0354 49.3768 44.5048 49.725C44.3322 49.8337 44.1597 49.9423 43.982 50.0542C43.6221 50.2885 43.2626 50.5235 42.9035 50.7591C42.731 50.8674 42.5585 50.9757 42.3807 51.0873C42.1467 51.2405 42.1467 51.2405 41.9079 51.3968C41.4506 51.5625 41.4506 51.5625 40.9542 51.406C40.2198 50.8862 39.8938 50.0878 39.4877 49.3066C39.2798 48.92 39.0714 48.5336 38.8624 48.1476C38.7508 47.9409 38.6392 47.7341 38.5242 47.5211C37.9054 46.3945 37.2529 45.2879 36.6019 44.1797C35.701 42.6427 34.8022 41.1046 33.913 39.5609C33.8326 39.4212 33.7522 39.2816 33.6693 39.1377C33.2782 38.4584 32.8874 37.7788 32.497 37.099C32.3567 36.8552 32.2164 36.6114 32.0719 36.3602C31.948 36.1444 31.824 35.9285 31.6963 35.7062C31.4455 35.2803 31.1778 34.8644 30.9037 34.4531C30.9367 33.9782 30.9367 33.9782 31.1381 33.5156C31.523 33.194 31.523 33.194 32.0161 32.9114C32.1929 32.8087 32.3698 32.7059 32.5521 32.6001C32.7381 32.4962 32.924 32.3922 33.1156 32.2852C33.3007 32.1776 33.4857 32.07 33.6764 31.9592C35.0507 31.1719 35.0507 31.1719 35.5912 31.1719C35.5336 30.8882 35.5336 30.8882 35.4749 30.5988C35.336 29.6185 35.3313 28.6736 35.3422 27.6855C35.3432 27.5019 35.3443 27.3182 35.3454 27.1289C35.3481 26.6797 35.3523 26.2305 35.3568 25.7812C35.2302 25.7152 35.1037 25.6491 34.9733 25.581C34.4011 25.2799 33.8316 24.974 33.2621 24.668C32.9632 24.5121 32.9632 24.5121 32.6583 24.353C32.3739 24.1989 32.3739 24.1989 32.0838 24.0417C31.8205 23.9018 31.8205 23.9018 31.5519 23.7591C31.1381 23.4375 31.1381 23.4375 30.9261 23.0002C30.8953 22.3117 31.1189 21.9798 31.475 21.3922C31.6057 21.1728 31.7364 20.9535 31.871 20.7274C32.0883 20.3722 32.0883 20.3722 32.3099 20.0098C32.615 19.4996 32.9199 18.9894 33.2245 18.479C33.4629 18.0825 33.4629 18.0825 33.706 17.6779C34.472 16.3938 35.2137 15.0959 35.9574 13.7988C36.3936 13.0429 36.8303 12.2874 37.2672 11.5319C37.5589 11.0266 37.8499 10.521 38.1404 10.0151C38.5582 9.28784 38.9786 8.56222 39.3998 7.83691C39.5256 7.61648 39.6515 7.39604 39.7812 7.16892C39.8982 6.9685 40.0153 6.76808 40.1359 6.56158C40.2882 6.29758 40.2882 6.29758 40.4437 6.02823C40.7474 5.625 40.7474 5.625 41.4506 5.39062C41.8813 5.58289 41.8813 5.58289 42.3578 5.88867C42.5311 5.99623 42.7044 6.10378 42.8829 6.2146C43.2457 6.44612 43.6083 6.67805 43.9706 6.9104C44.2309 7.07173 44.2309 7.07173 44.4965 7.23633C44.6541 7.33724 44.8116 7.43815 44.9739 7.54211C45.5544 7.78419 45.7916 7.72097 46.3724 7.5C46.9378 7.19709 47.4905 6.88795 48.0424 6.5625C49.6407 5.63151 49.6407 5.63151 50.1224 5.39062C50.1998 3.61172 50.2771 1.83281 50.3568 0ZM57.6224 7.03125C57.5451 8.19141 57.4677 9.35156 57.3881 10.5469C57.1303 10.6321 56.8726 10.7173 56.6071 10.8051C53.3326 11.9088 50.5337 13.2395 48.0204 15.683C47.6397 16.0486 47.2947 16.3705 46.8412 16.6406C46.1527 16.5527 46.1527 16.5527 45.4349 16.1719C45.1079 16.0069 44.7804 15.8427 44.4526 15.6793C44.285 15.5957 44.1175 15.5122 43.9449 15.4261C43.8178 15.3628 43.6908 15.2995 43.5599 15.2344C43.1787 15.9178 42.798 16.6014 42.4174 17.2852C42.3095 17.4785 42.2016 17.6719 42.0905 17.8711C41.9863 18.0584 41.882 18.2457 41.7747 18.4387C41.6789 18.6106 41.5832 18.7824 41.4846 18.9594C41.2283 19.4309 40.9874 19.9107 40.7474 20.3906C42.0236 21.2027 42.0236 21.2027 43.3256 22.0312C43.1869 23.5802 42.9841 25.0996 42.7167 26.6318C42.5088 28.3743 42.6508 29.9811 42.974 31.6992C43.4517 34.29 43.4517 34.29 43.3256 34.9219C42.7616 35.3952 42.7616 35.3952 42.0365 35.8154C41.6776 36.028 41.6776 36.028 41.3114 36.2448C41.1253 36.3496 40.9392 36.4545 40.7474 36.5625C40.8752 36.7968 40.8752 36.7968 41.0056 37.0358C41.8571 38.5968 42.7085 40.1578 43.5599 41.7188C43.7182 41.6369 43.8766 41.555 44.0397 41.4706C44.2487 41.364 44.4578 41.2573 44.6732 41.1475C44.9832 40.9884 44.9832 40.9884 45.2994 40.8261C46.3584 40.3367 46.3584 40.3367 46.8412 40.3125C47.3301 40.6769 47.3301 40.6769 47.8666 41.2207C50.6579 43.8486 53.7829 45.2045 57.3881 46.4062C57.5041 48.0305 57.5041 48.0305 57.6224 49.6875C59.6334 49.6875 61.6443 49.6875 63.7162 49.6875C63.7935 48.6047 63.8709 47.5219 63.9506 46.4062C64.2083 46.3211 64.466 46.2359 64.7315 46.1481C68.0376 45.0337 70.7433 43.6662 73.3347 41.2784C73.7061 40.9378 74.1001 40.6224 74.4974 40.3125C75.2916 40.3922 75.9626 40.7868 76.6654 41.1475C76.8745 41.2541 77.0835 41.3608 77.299 41.4706C77.5364 41.5935 77.5364 41.5935 77.7787 41.7188C78.1599 41.0353 78.5406 40.3517 78.9213 39.668C79.0291 39.4746 79.137 39.2813 79.2481 39.082C79.3523 38.8947 79.4566 38.7074 79.564 38.5144C79.6597 38.3426 79.7554 38.1707 79.8541 37.9937C80.1104 37.5222 80.3512 37.0425 80.5912 36.5625C79.315 35.7504 79.315 35.7504 78.0131 34.9219C78.1518 33.3729 78.3545 31.8535 78.6219 30.3214C78.8299 28.5789 78.6879 26.972 78.3646 25.2539C77.8869 22.6631 77.8869 22.6631 78.0131 22.0312C78.577 21.5579 78.577 21.5579 79.3021 21.1377C79.5414 20.996 79.7807 20.8543 80.0272 20.7083C80.2133 20.6035 80.3994 20.4986 80.5912 20.3906C80.506 20.2344 80.4208 20.0782 80.333 19.9173C79.4816 18.3563 78.6301 16.7953 77.7787 15.2344C77.5865 15.3413 77.3944 15.4483 77.1964 15.5585C76.9438 15.6932 76.6913 15.828 76.431 15.9668C76.1809 16.1028 75.9307 16.2387 75.673 16.3788C74.9662 16.6406 74.9662 16.6406 74.48 16.5097C73.9165 16.0879 73.3771 15.6482 72.8422 15.1904C70.1284 12.9482 67.29 11.6044 63.9506 10.5469C63.8345 8.80664 63.8345 8.80664 63.7162 7.03125C61.7052 7.03125 59.6943 7.03125 57.6224 7.03125Z" fill="white"/>
<path d="M56.9193 63.9844C59.317 63.9844 61.7146 63.9844 64.1849 63.9844C64.1849 66.4594 64.1849 68.9344 64.1849 71.4844C79.499 71.4844 94.8131 71.4844 110.591 71.4844C110.591 76.357 110.591 81.2297 110.591 86.25C108.194 86.25 105.796 86.25 103.326 86.25C103.326 83.775 103.326 81.3 103.326 78.75C90.4092 78.75 77.4927 78.75 64.1849 78.75C64.1849 81.225 64.1849 83.7 64.1849 86.25C61.7873 86.25 59.3896 86.25 56.9193 86.25C56.9193 83.775 56.9193 81.3 56.9193 78.75C44.0802 78.75 31.2412 78.75 18.0131 78.75C18.0131 81.225 18.0131 83.7 18.0131 86.25C15.6154 86.25 13.2177 86.25 10.7474 86.25C10.7474 81.3773 10.7474 76.5047 10.7474 71.4844C25.9842 71.4844 41.2209 71.4844 56.9193 71.4844C56.9193 69.0094 56.9193 66.5344 56.9193 63.9844Z" fill="white"/>
<path d="M0.669312 92.5781C9.71853 92.5781 18.7677 92.5781 28.0912 92.5781C28.0912 101.627 28.0912 110.677 28.0912 120C19.042 120 9.99275 120 0.669312 120C0.669312 110.951 0.669312 101.902 0.669312 92.5781ZM7.70056 99.8438C7.70056 104.175 7.70056 108.506 7.70056 112.969C12.0318 112.969 16.3631 112.969 20.8256 112.969C20.8256 108.638 20.8256 104.306 20.8256 99.8438C16.4943 99.8438 12.1631 99.8438 7.70056 99.8438Z" fill="white"/>
<path d="M112.033 92.3293C115.65 93.6778 118.584 96.4925 120.372 99.8838C122.087 103.708 122.049 108.346 120.67 112.266C119.161 115.725 116.395 118.491 112.935 120C109.015 121.38 104.377 121.417 100.553 119.703C97.162 117.915 94.3473 114.981 92.9988 111.364C91.8751 107.702 91.9177 103.624 93.5561 100.122C97.273 93.2943 104.533 90.0273 112.033 92.3293ZM100.513 103.828C99.8813 105.559 99.8786 107.254 100.513 108.984C101.527 110.886 103.076 112.418 105.101 113.203C106.861 113.662 108.456 113.508 110.049 112.617C111.882 111.349 113.473 109.72 114.039 107.514C114.302 105.673 113.948 104.174 112.916 102.631C111.536 100.895 109.967 99.6715 107.731 99.3708C104.493 99.2466 102.006 100.995 100.513 103.828Z" fill="white"/>
<path d="M68.4037 94.9219C71.4258 97.3106 73.5115 100.275 74.1898 104.133C74.6608 108.201 73.6569 111.795 71.2162 115.078C71.047 115.315 70.8778 115.552 70.7035 115.796C68.6999 118.1 65.4709 119.782 62.4289 120.052C58.1932 120.236 54.6502 119.65 51.3062 116.841C48.3585 114.051 46.7578 110.628 46.5867 106.561C46.6724 102.911 47.9214 99.2151 50.5189 96.5671C55.4827 92.2248 62.7644 90.9246 68.4037 94.9219ZM55.4325 102.139C54.3161 103.627 53.7593 105.295 53.9155 107.152C54.2307 109.028 55.2082 110.503 56.6996 111.665C58.2547 112.729 59.8521 113.164 61.724 112.822C63.6835 112.311 65.1624 111.118 66.2943 109.453C67.1728 107.671 67.2255 106.033 66.6166 104.165C65.7963 102.099 64.5726 100.971 62.5443 100.078C59.9133 99.2792 57.2565 100.124 55.4325 102.139Z" fill="white"/>
<path d="M67.0568 18.8086C67.4332 19.0946 67.8046 19.3875 68.17 19.6875C68.3365 19.8219 68.503 19.9564 68.6745 20.0949C70.799 21.9992 72.0071 24.8467 72.2039 27.6599C72.3 30.7812 71.5427 33.6033 69.5149 36.0232C67.182 38.4733 64.7058 39.8246 61.3198 39.9381C58.0962 39.9806 55.6983 39.3404 53.17 37.2656C53.0036 37.1311 52.8371 36.9967 52.6656 36.8582C50.5411 34.9539 49.333 32.1064 49.1362 29.2932C49.0401 26.1719 49.7974 23.3498 51.8251 20.9298C55.8157 16.7388 62.0663 15.5142 67.0568 18.8086ZM57.3302 25.8838C56.5511 27.0246 56.31 27.9075 56.4513 29.2968C56.914 30.6772 57.6139 31.5144 58.795 32.3437C60.0605 32.7655 61.3581 32.7424 62.6183 32.3144C63.7137 31.5501 64.5392 30.5999 64.8888 29.2968C65.0466 27.9033 64.7327 26.9175 63.9513 25.7812C62.9472 24.7438 62.1631 24.3356 60.7286 24.3017C59.1449 24.3169 58.4022 24.7224 57.3302 25.8838Z" fill="white"/>
</g>
<defs>
<clipPath id="clip0_181_1780">
<rect width="120" height="120" fill="white" transform="translate(0.669312)"/>
</clipPath>
</defs>
</svg>
