<svg width="120" height="120" viewBox="0 0 120 120" fill="none" xmlns="http://www.w3.org/2000/svg">
<path d="M11.9551 43.8283C12.6611 44.1813 13.0015 44.4632 13.3064 45.1988C13.4199 45.8786 13.3781 46.2251 13.1269 46.8751C12.0276 48.246 10.5564 49.3619 9.14255 50.3908C9.49846 51.2906 10.028 51.7208 10.7832 52.3097C11.6681 53.0137 12.5271 53.7289 13.3613 54.4923C14.1623 55.2223 14.9797 55.9201 15.8222 56.6017C16.8682 57.4479 17.8677 58.3324 18.8618 59.2384C19.4758 59.7842 20.1055 60.3038 20.7441 60.8204C21.7901 61.6666 22.7896 62.5511 23.7837 63.4572C24.3977 64.0029 25.0274 64.5225 25.666 65.0392C26.7119 65.8854 27.7114 66.7699 28.7055 67.6759C29.3195 68.2217 29.9492 68.7413 30.5879 69.2579C31.6338 70.1041 32.6333 70.9886 33.6274 71.8947C34.2414 72.4404 34.8711 72.96 35.5097 73.4767C36.5557 74.3229 37.5552 75.2074 38.5493 76.1134C39.1633 76.6592 39.793 77.1788 40.4316 77.6954C41.4776 78.5416 42.4771 79.4261 43.4712 80.3322C44.0852 80.8779 44.7149 81.3975 45.3535 81.9142C46.3995 82.7604 47.3989 83.6449 48.393 84.5509C49.007 85.0967 49.6367 85.6163 50.2754 86.1329C51.1179 86.8145 51.9354 87.5123 52.7363 88.2423C53.7523 89.168 54.8037 90.0396 55.8729 90.9028C56.5929 91.4939 57.286 92.1105 57.9731 92.7394C58.7292 93.3385 59.5067 93.3217 60.4396 93.3583C61.7238 93.1607 62.6757 92.1311 63.6201 91.3038C63.9127 91.0502 64.2054 90.7966 64.4981 90.543C64.6467 90.4138 64.7953 90.2845 64.9484 90.1513C65.6404 89.5506 66.3369 88.9552 67.0332 88.3595C67.3066 88.1252 67.5801 87.8908 67.8535 87.6564C79.3379 77.8126 90.8222 67.9689 102.307 58.1251C102.442 58.0091 102.577 57.893 102.717 57.7735C102.99 57.5394 103.263 57.3054 103.536 57.0715C104.226 56.4803 104.916 55.8887 105.604 55.2962C107.344 53.8011 109.095 52.322 110.861 50.8595C110.5 49.9251 109.911 49.4765 109.133 48.8673C106.946 47.1463 106.946 47.1463 106.744 46.3551C106.747 44.9229 106.747 44.9229 107.375 44.1652C108.197 43.7542 108.548 43.6504 109.455 43.8283C110.151 44.2148 110.73 44.7141 111.33 45.2345C111.56 45.4303 111.789 45.6261 112.026 45.8278C114.159 47.6868 115.978 49.6708 116.318 52.5968C116.343 53.2088 116.347 53.8174 116.343 54.4299C116.345 54.7787 116.345 54.7787 116.347 55.1346C116.35 55.9091 116.348 56.6835 116.347 57.4581C116.348 58.0153 116.35 58.5725 116.352 59.1298C116.355 60.4834 116.356 61.8371 116.355 63.1908C116.354 64.2918 116.354 65.3927 116.355 66.4937C116.355 66.6507 116.356 66.8077 116.356 66.9695C116.356 67.2886 116.356 67.6077 116.357 67.9268C116.36 70.9153 116.359 73.9038 116.356 76.8924C116.354 79.6224 116.357 82.3523 116.362 85.0823C116.368 87.89 116.37 90.6977 116.369 93.5055C116.368 95.08 116.369 96.6544 116.373 98.2289C116.376 99.7098 116.375 101.191 116.371 102.672C116.37 103.214 116.371 103.756 116.373 104.299C116.376 105.041 116.374 105.784 116.369 106.527C116.372 106.739 116.374 106.952 116.376 107.171C116.347 109.713 115.424 111.839 113.674 113.672C111.111 116.119 108.357 116.389 104.974 116.369C104.57 116.37 104.165 116.372 103.761 116.374C102.655 116.378 101.549 116.376 100.442 116.373C99.2472 116.371 98.0522 116.374 96.8571 116.376C94.5181 116.381 92.1791 116.38 89.8401 116.377C87.9387 116.375 86.0374 116.375 84.1361 116.376C83.8653 116.376 83.5945 116.376 83.3155 116.376C82.7653 116.376 82.2152 116.377 81.665 116.377C76.5084 116.38 71.3519 116.377 66.1953 116.371C61.7726 116.367 57.3499 116.368 52.9272 116.372C47.7888 116.377 42.6505 116.379 37.5121 116.376C36.964 116.376 36.4158 116.376 35.8677 116.376C35.4632 116.375 35.4632 116.375 35.0505 116.375C33.1519 116.374 31.2533 116.376 29.3547 116.378C27.0404 116.381 24.726 116.38 22.4117 116.375C21.2313 116.372 20.0509 116.371 18.8706 116.375C17.7891 116.377 16.7078 116.376 15.6264 116.371C15.2361 116.37 14.8458 116.37 14.4554 116.373C11.2685 116.39 8.71616 115.95 6.33005 113.672C4.37219 111.621 3.60589 109.326 3.6313 106.522C3.62967 106.289 3.62805 106.055 3.62637 105.814C3.62211 105.038 3.62448 104.263 3.6269 103.487C3.62524 102.928 3.62319 102.368 3.62078 101.809C3.61606 100.452 3.61573 99.0955 3.61765 97.7387C3.61913 96.635 3.61885 95.5314 3.61735 94.4278C3.61714 94.2702 3.61692 94.1126 3.61671 93.9503C3.61627 93.6302 3.61584 93.31 3.6154 92.9899C3.61152 89.9932 3.61355 86.9965 3.6175 83.9998C3.62095 81.2631 3.61752 78.5266 3.61076 75.7899C3.60386 72.974 3.6013 70.1581 3.60354 67.3421C3.60378 67.0231 3.60401 66.7041 3.60424 66.3851C3.60435 66.2282 3.60446 66.0713 3.60457 65.9096C3.60508 64.8086 3.60279 63.7075 3.59937 62.6065C3.59506 61.1219 3.59647 59.6374 3.60223 58.1528C3.6034 57.6094 3.60259 57.0659 3.59961 56.5225C3.56761 50.1765 3.56761 50.1765 5.90525 47.7687C6.08622 47.5814 6.26719 47.3941 6.45365 47.2011C10.206 43.5732 10.206 43.5732 11.9551 43.8283ZM7.50193 55.0783C7.49097 61.7953 7.48271 68.5123 7.47764 75.2294C7.47522 78.3483 7.47193 81.4671 7.46656 84.586C7.46189 87.3045 7.45887 90.0231 7.45782 92.7416C7.45721 94.1809 7.45578 95.6202 7.45236 97.0595C7.44918 98.4148 7.4482 99.77 7.44891 101.125C7.44878 101.622 7.44785 102.119 7.44605 102.616C7.44371 103.296 7.44428 103.975 7.44556 104.655C7.44419 104.85 7.44283 105.046 7.44142 105.247C7.42593 107.531 7.42593 107.531 8.43943 109.453C8.57871 109.325 8.71798 109.198 8.86148 109.066C9.91036 108.112 10.9696 107.181 12.0722 106.289C12.9148 105.608 13.7322 104.91 14.5332 104.18C15.541 103.261 16.5861 102.401 17.646 101.543C18.2648 101.031 18.8614 100.502 19.4551 99.9611C20.4628 99.0426 21.508 98.1818 22.5678 97.3243C23.1866 96.8122 23.7833 96.2833 24.3769 95.7423C25.3847 94.8238 26.4299 93.963 27.4897 93.1056C28.1085 92.5935 28.7052 92.0646 29.2988 91.5236C30.3066 90.6051 31.3517 89.7443 32.4116 88.8868C33.0304 88.3747 33.6271 87.8458 34.2207 87.3048C35.2414 86.375 36.2972 85.4983 37.3701 84.6296C38.1294 84.0115 38.8714 83.3757 39.6113 82.7345C39.3172 81.8521 38.9478 81.6344 38.2197 81.0646C37.3304 80.3554 36.4661 79.6351 35.6269 78.8673C34.826 78.1373 34.0085 77.4395 33.166 76.7579C32.12 75.9118 31.1206 75.0273 30.1264 74.1212C29.5124 73.5755 28.8828 73.0558 28.2441 72.5392C27.1982 71.693 26.1987 70.8085 25.2046 69.9025C24.5906 69.3567 23.9609 68.8371 23.3222 68.3204C22.2763 67.4743 21.2768 66.5898 20.2827 65.6837C19.6687 65.138 19.039 64.6183 18.4004 64.1017C17.3544 63.2555 16.3549 62.371 15.3608 61.465C14.539 60.7344 13.6834 60.0486 12.8285 59.3574C12.1985 58.8358 11.5921 58.2958 10.9883 57.7443C9.40176 56.0659 9.40176 56.0659 7.50193 55.0783ZM107.939 58.7697C107.116 59.5008 106.26 60.187 105.405 60.879C104.786 61.3912 104.189 61.9201 103.596 62.4611C102.588 63.3796 101.543 64.2404 100.483 65.0978C99.8641 65.6099 99.2674 66.1388 98.6738 66.6798C97.666 67.5983 96.6209 68.4591 95.561 69.3165C94.9422 69.8287 94.3455 70.3576 93.7519 70.8986C92.7441 71.8171 91.699 72.6779 90.6391 73.5353C90.0203 74.0474 89.4237 74.5763 88.8301 75.1173C87.8226 76.0355 86.7778 76.8961 85.7182 77.7531C85.0938 78.27 84.4923 78.8045 83.8935 79.3507C82.7681 80.3768 81.5926 81.3287 80.3926 82.2658C80.6867 83.1481 81.0561 83.3659 81.7842 83.9357C82.6735 84.6448 83.5377 85.3651 84.3769 86.1329C85.1779 86.8629 85.9953 87.5607 86.8379 88.2423C87.8842 89.0888 88.884 89.9736 89.8783 90.88C90.487 91.4209 91.1115 91.935 91.7451 92.4464C92.8636 93.351 93.9233 94.3061 94.9815 95.28C95.8219 96.0346 96.6973 96.7405 97.5761 97.4498C98.1927 97.9586 98.7862 98.4851 99.3769 99.0236C100.178 99.7535 100.995 100.451 101.838 101.133C102.884 101.979 103.883 102.864 104.877 103.77C105.698 104.499 106.553 105.185 107.407 105.874C108.054 106.41 108.675 106.967 109.294 107.534C110.092 108.263 110.875 108.894 111.799 109.453C112.486 107.897 112.536 106.411 112.53 104.74C112.53 104.527 112.531 104.314 112.531 104.095C112.531 103.384 112.53 102.672 112.529 101.961C112.528 101.45 112.529 100.94 112.529 100.429C112.529 99.0438 112.527 97.6585 112.526 96.2732C112.524 94.8253 112.524 93.3773 112.524 91.9294C112.523 89.1877 112.521 86.4461 112.519 83.7044C112.516 80.583 112.515 77.4617 112.514 74.3403C112.511 67.9196 112.507 61.4989 112.502 55.0783C111.188 55.0783 108.914 57.8808 107.939 58.7697ZM41.1347 86.4699C40.213 87.3411 39.2819 88.1788 38.2929 88.9747C37.4593 89.6459 36.6522 90.3338 35.8613 91.0548C34.8535 91.9733 33.8084 92.8341 32.7485 93.6915C32.1297 94.2037 31.533 94.7326 30.9394 95.2736C29.9316 96.1921 28.8865 97.0529 27.8266 97.9103C27.2078 98.4224 26.6112 98.9513 26.0176 99.4923C25.0098 100.411 23.9646 101.272 22.9048 102.129C22.286 102.641 21.6893 103.17 21.0957 103.711C20.0879 104.63 19.0427 105.49 17.9829 106.348C17.1656 107.024 16.3853 107.737 15.6016 108.452C14.7489 109.209 13.8634 109.924 12.974 110.638C12.3137 111.183 12.3137 111.183 11.7207 111.797C11.7207 111.952 11.7207 112.106 11.7207 112.266C12.747 112.463 13.7158 112.529 14.7602 112.53C14.9196 112.53 15.0791 112.53 15.2435 112.531C15.7775 112.532 16.3116 112.531 16.8457 112.53C17.2326 112.53 17.6195 112.531 18.0064 112.531C19.0694 112.532 20.1324 112.532 21.1954 112.531C22.3419 112.53 23.4884 112.531 24.6349 112.532C26.8808 112.533 29.1267 112.533 31.3726 112.532C33.1976 112.531 35.0226 112.531 36.8477 112.531C37.237 112.532 37.237 112.532 37.6343 112.532C38.1616 112.532 38.689 112.532 39.2163 112.532C44.1629 112.533 49.1095 112.532 54.0562 112.53C58.302 112.529 62.5479 112.53 66.7938 112.531C71.7225 112.532 76.6512 112.532 81.58 112.532C82.1054 112.532 82.6308 112.532 83.1562 112.531C83.4147 112.531 83.6733 112.531 83.9396 112.531C85.7628 112.531 87.5859 112.532 89.4091 112.532C91.6305 112.533 93.8518 112.533 96.0732 112.531C97.2069 112.531 98.3406 112.53 99.4743 112.531C100.512 112.532 101.549 112.532 102.587 112.53C102.962 112.53 103.338 112.53 103.714 112.531C104.224 112.531 104.734 112.531 105.244 112.53C105.527 112.53 105.811 112.53 106.103 112.53C106.85 112.501 107.55 112.406 108.283 112.266C107.933 111.423 107.457 110.946 106.774 110.347C106.564 110.162 106.354 109.978 106.138 109.787C105.28 109.056 104.406 108.346 103.53 107.637C102.71 106.959 101.928 106.244 101.142 105.527C100.528 104.982 99.8984 104.462 99.2597 103.945C98.2138 103.099 97.2143 102.215 96.2202 101.309C95.6062 100.763 94.9765 100.243 94.3379 99.7267C93.2919 98.8805 92.2924 97.996 91.2983 97.09C90.6843 96.5442 90.0546 96.0246 89.416 95.5079C88.37 94.6618 87.3706 93.7773 86.3764 92.8712C85.7625 92.3255 85.1328 91.8058 84.4941 91.2892C83.4503 90.4448 82.4527 89.5624 81.461 88.658C80.6083 87.9003 79.7228 87.1857 78.8334 86.4717C78.2832 86.0158 78.2832 86.0158 77.9161 85.5891C77.8052 85.4979 77.6943 85.4066 77.5801 85.3126C76.8542 85.4158 76.4383 85.6543 75.8973 86.1375C75.7586 86.2597 75.6199 86.382 75.477 86.5079C75.2564 86.7066 75.2564 86.7066 75.0312 86.9093C74.7149 87.189 74.3984 87.4685 74.0818 87.7479C73.9221 87.8898 73.7624 88.0316 73.5979 88.1778C72.8959 88.798 72.1842 89.4067 71.4717 90.0148C71.2012 90.2461 70.9309 90.4774 70.6605 90.7087C70.5267 90.8232 70.393 90.9376 70.2552 91.0555C69.8367 91.4141 69.419 91.7736 69.0016 92.1333C68.3184 92.7219 67.6331 93.3079 66.9464 93.8924C66.5825 94.2035 66.2209 94.5173 65.8595 94.8314C63.6765 96.689 61.9675 97.5307 59.0635 97.382C56.6012 97.1474 54.8947 95.5874 53.1913 93.9378C52.5514 93.319 51.878 92.7551 51.1836 92.1974C50.3499 91.5262 49.5429 90.8384 48.7519 90.1173C47.7361 89.1918 46.6852 88.32 45.6153 87.4577C44.8915 86.8624 44.1998 86.2371 43.5151 85.5974C42.4906 84.8459 41.857 85.7689 41.1347 86.4699Z" fill="white"/>
<path d="M67.5175 26.1183C68.5475 26.2654 68.7569 26.3893 69.3778 27.1876C69.4906 27.763 69.4906 27.763 69.4843 28.4128C69.4842 28.6568 69.4841 28.9007 69.484 29.152C69.4792 29.4138 69.4744 29.6755 69.4694 29.9452C69.468 30.2144 69.4667 30.4836 69.4654 30.7609C69.4601 31.6207 69.4483 32.4803 69.4364 33.34C69.4317 33.9228 69.4274 34.5057 69.4236 35.0886C69.4133 36.5175 69.3976 37.9463 69.3778 39.3751C69.7401 39.369 69.7401 39.369 70.1098 39.3628C70.4298 39.3595 70.7497 39.3563 71.0697 39.3531C71.2286 39.3502 71.3874 39.3473 71.5511 39.3442C73.1544 39.3325 74.0814 39.6571 75.228 40.7512C76.7255 42.3678 76.9904 43.6416 76.9492 45.8333C76.7863 47.6759 75.9292 48.6446 74.557 49.8176C73.4261 50.5968 72.408 50.6879 71.0624 50.6544C70.9 50.6523 70.7376 50.6502 70.5703 50.648C70.1728 50.6425 69.7753 50.6341 69.3778 50.6251C69.3799 50.7757 69.382 50.9263 69.3841 51.0815C69.4049 52.6479 69.419 54.2142 69.4293 55.7807C69.434 56.3654 69.4404 56.9501 69.4485 57.5348C69.4599 58.3749 69.4652 59.2149 69.4694 60.0551C69.4742 60.3168 69.4791 60.5785 69.484 60.8482C69.4841 61.0922 69.4842 61.3361 69.4843 61.5874C69.4863 61.8018 69.4884 62.0163 69.4906 62.2372C69.3404 63.0034 69.0524 63.2786 68.4403 63.7501C67.1704 63.9315 67.1704 63.9315 66.5653 63.7501C66.1604 63.3744 65.7709 62.9816 65.3934 62.5782C61.3716 58.9821 56.8131 57.2464 51.5146 56.5937C51.2219 56.5577 50.9293 56.5216 50.6278 56.4845C50.6299 56.6154 50.632 56.7463 50.6341 56.8812C50.655 58.25 50.669 59.6188 50.6793 60.9877C50.684 61.4979 50.6904 62.008 50.6985 62.5181C50.71 63.2535 50.7153 63.9887 50.7194 64.7242C50.7242 64.9504 50.7291 65.1765 50.734 65.4095C50.7346 67.1219 50.3682 68.3672 49.2298 69.6663C49.0772 69.7925 48.9247 69.9188 48.7675 70.049C48.5395 70.2438 48.5395 70.2438 48.307 70.4426C46.7832 71.4925 45.1501 71.4082 43.3622 71.2501C41.8014 70.8562 40.7406 69.7352 39.8466 68.4376C39.4701 67.6236 39.317 66.9731 39.3031 66.0785C39.2984 65.8486 39.2938 65.6188 39.289 65.382C39.2863 65.1368 39.2836 64.8917 39.2808 64.6391C39.2762 64.3858 39.2717 64.1326 39.267 63.8717C39.253 63.0646 39.2421 62.2575 39.2313 61.4503C39.2224 60.9024 39.2132 60.3544 39.2039 59.8065C39.1814 58.4648 39.1614 57.1231 39.1434 55.7814C38.9822 55.7025 38.8209 55.6236 38.6548 55.5424C38.4434 55.4381 38.2321 55.3337 38.0143 55.2263C37.8047 55.1232 37.5951 55.0202 37.3792 54.914C35.0202 53.6743 33.2284 51.3352 32.244 48.8966C31.3972 46.0592 31.4617 42.4994 32.8153 39.8439C34.5002 36.962 36.8103 34.8245 40.0599 33.8924C41.4217 33.6249 42.8025 33.6372 44.1857 33.6239C45.1009 33.6144 46.0159 33.5922 46.9309 33.5707C47.1103 33.5666 47.2896 33.5625 47.4744 33.5584C54.061 33.3982 60.4635 32.1778 65.3934 27.422C65.582 27.1996 65.7705 26.9773 65.9647 26.7482C66.5889 26.2306 66.7471 26.1595 67.5175 26.1183ZM64.1044 33.4132C59.9042 36.0526 55.5388 36.9224 50.6278 37.5001C50.6278 42.4501 50.6278 47.4001 50.6278 52.5001C52.3294 52.7322 54.0309 52.9642 55.7841 53.2032C59.4495 54.1067 62.34 55.5954 65.6278 57.422C65.6278 49.2236 65.6278 41.0251 65.6278 32.5782C65.1175 32.5782 64.5034 33.153 64.1044 33.4132ZM37.7802 39.7496C36.3664 41.2484 35.8113 42.9637 35.745 45.0001C35.8188 47.1953 36.4588 48.8518 37.978 50.4484C40.5757 52.7581 43.4935 52.5001 46.8778 52.5001C46.8778 47.5501 46.8778 42.6001 46.8778 37.5001C41.8816 37.4044 41.8816 37.4044 37.7802 39.7496ZM69.3778 43.1251C69.3778 44.3626 69.3778 45.6001 69.3778 46.8751C71.2026 46.9136 71.2026 46.9136 72.6591 46.172C72.992 45.5062 72.9672 45.0342 72.8934 44.297C72.3703 43.6295 72.0614 43.3947 71.2528 43.1251C70.6341 43.1251 70.0153 43.1251 69.3778 43.1251ZM43.1278 56.2501C43.1104 57.5595 43.0977 58.8688 43.0892 60.1783C43.0857 60.6234 43.0809 61.0685 43.0748 61.5136C43.0662 62.1548 43.0623 62.7958 43.0592 63.437C43.0555 63.6348 43.0519 63.8326 43.0482 64.0364C43.0478 65.209 43.1737 66.0173 43.8309 67.0314C44.4968 67.3643 44.9688 67.3395 45.7059 67.2657C46.3734 66.7426 46.6083 66.4337 46.8778 65.6251C46.8978 65.3122 46.9054 64.9983 46.9044 64.6847C46.9044 64.4032 46.9044 64.4032 46.9044 64.1161C46.9032 63.9147 46.902 63.7132 46.9007 63.5057C46.9004 63.2986 46.9 63.0915 46.8997 62.8781C46.8984 62.2166 46.8955 61.5552 46.8925 60.8937C46.8913 60.4452 46.8902 59.9968 46.8893 59.5483C46.8867 58.4489 46.8826 57.3495 46.8778 56.2501C45.6403 56.2501 44.4028 56.2501 43.1278 56.2501Z" fill="white"/>
<path d="M27.1593 14.8811C27.4525 14.8796 27.7458 14.8781 28.0479 14.8766C28.8549 14.8727 29.6617 14.8746 30.4686 14.8776C31.3416 14.8797 32.2146 14.8764 33.0875 14.8738C34.7949 14.8697 36.5022 14.8706 38.2096 14.8733C39.5978 14.8754 40.9861 14.8757 42.3743 14.8747C42.6712 14.8744 42.6712 14.8744 42.9741 14.8742C43.3763 14.8739 43.7785 14.8736 44.1807 14.8733C47.9478 14.8706 51.7148 14.8737 55.4818 14.8787C58.7106 14.8829 61.9394 14.8822 65.1682 14.8779C68.9222 14.8729 72.6762 14.8709 76.4302 14.8738C76.8309 14.8741 77.2316 14.8744 77.6322 14.8747C77.8294 14.8748 78.0265 14.8749 78.2296 14.8751C79.6153 14.8759 81.0011 14.8745 82.3868 14.8723C84.0768 14.8697 85.7666 14.8704 87.4566 14.8754C88.318 14.8779 89.1793 14.8789 90.0407 14.8757C90.9763 14.8724 91.9117 14.8764 92.8472 14.8811C93.117 14.879 93.3868 14.8769 93.6648 14.8747C96.3891 14.901 98.5675 15.6856 100.55 17.5782C102.724 19.8556 103.271 22.2835 103.25 25.362C103.252 25.8095 103.252 25.8095 103.255 26.266C103.259 27.0761 103.257 27.8861 103.254 28.6961C103.252 29.5468 103.254 30.3975 103.255 31.2482C103.257 32.6743 103.255 34.1004 103.25 35.5265C103.245 37.1744 103.247 38.8221 103.252 40.47C103.256 41.8885 103.257 43.3069 103.255 44.7254C103.253 45.5711 103.253 46.4167 103.256 47.2624C103.259 48.2033 103.255 49.144 103.25 50.0849C103.251 50.3646 103.253 50.6442 103.255 50.9324C103.253 51.1883 103.25 51.4442 103.247 51.7079C103.247 52.0412 103.247 52.0412 103.246 52.3812C103.093 53.1428 102.786 53.4239 102.191 53.9064C101.722 54.0309 101.722 54.0309 101.253 54.0235C101.021 54.0272 101.021 54.0272 100.785 54.0309C100.104 53.8501 99.8255 53.5043 99.3783 52.9689C99.2606 52.4128 99.2606 52.4128 99.2598 51.7848C99.2572 51.546 99.2546 51.3071 99.252 51.0611C99.2539 50.8004 99.2558 50.5397 99.2578 50.2711C99.2553 49.8576 99.2552 49.8576 99.2527 49.4358C99.2489 48.6803 99.2493 47.9249 99.2513 47.1694C99.2523 46.3771 99.2477 45.5848 99.2435 44.7925C99.2365 43.2902 99.2337 41.7878 99.2329 40.2855C99.2313 37.5997 99.2245 34.9139 99.2129 32.2281C99.2097 31.4404 99.2076 30.6527 99.2082 29.8649C99.2087 28.9848 99.2064 28.1047 99.2037 27.2245C99.2047 26.9662 99.2057 26.7079 99.2067 26.4417C99.195 24.2098 99.072 22.1828 97.4053 20.5299C95.5266 18.8685 93.4137 18.9498 91.0358 18.9531C90.7604 18.9526 90.4851 18.9521 90.2014 18.9515C89.439 18.9503 88.6767 18.9501 87.9143 18.9504C87.0913 18.9505 86.2684 18.9492 85.4454 18.9481C83.8338 18.9461 82.2221 18.9455 80.6105 18.9453C79.3002 18.9452 77.99 18.9447 76.6797 18.944C72.9634 18.9419 69.2471 18.9409 65.5308 18.941C65.3306 18.941 65.1303 18.941 64.9239 18.9411C64.6232 18.9411 64.6232 18.9411 64.3163 18.9411C61.0669 18.9412 57.8174 18.9389 54.568 18.9356C51.2301 18.9323 47.8922 18.9306 44.5543 18.9308C42.6809 18.9309 40.8074 18.9303 38.934 18.9278C37.3389 18.9256 35.7439 18.9251 34.1488 18.9267C33.3354 18.9275 32.522 18.9275 31.7086 18.9255C30.8257 18.9236 29.9429 18.9247 29.06 18.9265C28.8045 18.9253 28.549 18.9241 28.2857 18.9229C26.0658 18.9329 24.0511 19.0664 22.4081 20.7231C20.7349 22.6151 20.8283 24.7507 20.8294 27.1447C20.8286 27.4223 20.8278 27.6999 20.8269 27.9859C20.8252 28.5874 20.824 29.189 20.8231 29.7906C20.8217 30.742 20.8178 31.6934 20.8134 32.6448C20.8119 32.9711 20.8105 33.2973 20.809 33.6236C20.8082 33.7869 20.8075 33.9502 20.8067 34.1184C20.7969 36.3319 20.7891 38.5453 20.7863 40.7588C20.7843 42.2543 20.779 43.7497 20.77 45.2452C20.7654 46.0359 20.7625 46.8265 20.7636 47.6173C20.7642 48.4982 20.759 49.379 20.7525 50.2599C20.754 50.5217 20.7556 50.7835 20.7572 51.0532C20.7543 51.2931 20.7513 51.5329 20.7483 51.7801C20.7478 51.9882 20.7472 52.1964 20.7466 52.4109C20.5899 53.1498 20.2666 53.4342 19.6908 53.9064C19.222 54.0309 19.222 54.0309 18.7533 54.0235C18.5986 54.026 18.4439 54.0284 18.2845 54.0309C17.6015 53.8494 17.3252 53.5086 16.8783 52.9689C16.7603 52.3812 16.7603 52.3812 16.7592 51.7079C16.7566 51.452 16.7539 51.1961 16.7512 50.9324C16.7531 50.6527 16.755 50.373 16.757 50.0849C16.7553 49.7894 16.7537 49.494 16.752 49.1896C16.7477 48.3793 16.7494 47.5691 16.7523 46.7589C16.7547 45.9089 16.7525 45.059 16.751 44.2091C16.7493 42.78 16.7516 41.351 16.756 39.922C16.7611 38.2751 16.7595 36.6283 16.7543 34.9815C16.7501 33.5644 16.7495 32.1474 16.7519 30.7303C16.7534 29.8855 16.7536 29.0406 16.7505 28.1958C16.7472 27.2511 16.7518 26.3066 16.757 25.362C16.7551 25.0856 16.7532 24.8093 16.7512 24.5246C16.7791 21.7721 17.5419 19.5837 19.4564 17.5782C21.7066 15.4301 24.1144 14.8575 27.1593 14.8811Z" fill="white"/>
<path d="M63.9866 4.68761C68.047 7.72199 68.047 7.72199 68.3225 9.37511C68.1698 10.2917 67.987 10.6537 67.2678 11.2501C66.5058 11.4984 65.9246 11.4816 65.1585 11.2501C64.2896 10.6287 63.5682 9.89418 62.8147 9.14074C61.7136 8.19787 61.0223 7.94913 59.5646 7.89196C58.4124 8.06922 57.6345 8.88773 56.8134 9.65109C54.8769 11.4295 54.8769 11.4295 53.6594 11.4698C53.0275 11.3757 52.6972 11.2271 52.136 10.8986C51.7579 10.2409 51.6084 9.70219 51.6508 8.93932C51.9647 7.87753 52.852 7.25123 53.6741 6.56261C53.8602 6.39705 54.0463 6.23149 54.2381 6.06091C56.9877 3.7115 60.7005 2.61806 63.9866 4.68761Z" fill="white"/>
<path d="M83.4409 50.6251C84.2594 50.9339 85.0079 51.3405 85.77 51.7677C85.972 51.8756 86.174 51.9834 86.382 52.0946C87.8582 52.8972 87.8582 52.8972 88.1284 53.4376C88.2617 55.0905 88.2617 55.0905 87.7769 55.8986C86.9575 56.3902 86.2372 56.3918 85.3159 56.2501C84.4974 55.9414 83.7489 55.5348 82.9868 55.1076C82.7848 54.9997 82.5829 54.8918 82.3748 54.7807C80.8986 53.9781 80.8986 53.9781 80.6284 53.4376C80.4951 51.7848 80.4951 51.7848 80.98 50.9767C81.7994 50.4851 82.5197 50.4835 83.4409 50.6251Z" fill="white"/>
<path d="M87.1893 33.7501C87.7753 34.1017 87.7753 34.1017 88.1268 34.6876C88.255 35.3391 88.2979 35.9186 88.1268 36.5626C87.3947 37.5018 86.416 37.9727 85.3729 38.4962C85.214 38.5814 85.0551 38.6666 84.8914 38.7544C83.7245 39.3445 82.8708 39.4929 81.5643 39.3751C80.9784 39.0235 80.9784 39.0235 80.6268 38.4376C80.4987 37.7861 80.4558 37.2067 80.6268 36.5626C81.359 35.6234 82.3377 35.1525 83.3807 34.629C83.6191 34.5012 83.6191 34.5012 83.8623 34.3708C85.0291 33.7808 85.8828 33.6324 87.1893 33.7501Z" fill="white"/>
<path d="M82.8541 43.0006C83.1007 42.9994 83.3472 42.9982 83.6012 42.9969C83.8574 43.0005 84.1136 43.0042 84.3776 43.0079C84.7619 43.0025 84.7619 43.0025 85.1539 42.9969C85.4005 42.9981 85.647 42.9993 85.901 43.0006C86.2382 43.0022 86.2382 43.0022 86.5822 43.0038C87.3572 43.1584 87.6375 43.4558 88.1276 44.0626C88.2521 44.5313 88.2521 44.5313 88.2448 45.0001C88.2472 45.1548 88.2496 45.3095 88.2521 45.4688C88.0704 46.1527 87.7312 46.4282 87.1901 46.8751C86.5822 46.9964 86.5822 46.9964 85.901 46.9996C85.6545 47.0008 85.4079 47.002 85.1539 47.0033C84.8977 46.9996 84.6415 46.996 84.3776 46.9923C83.9933 46.9977 83.9933 46.9977 83.6012 47.0033C83.3547 47.0021 83.1081 47.0008 82.8541 46.9996C82.6293 46.9985 82.4046 46.9975 82.173 46.9964C81.398 46.8417 81.1176 46.5444 80.6276 45.9376C80.5031 45.4688 80.5031 45.4688 80.5104 45.0001C80.5068 44.7681 80.5068 44.7681 80.5031 44.5313C80.8262 43.3147 81.6961 43.006 82.8541 43.0006Z" fill="white"/>
</svg>
