<svg width="120" height="120" viewBox="0 0 120 120" fill="none" xmlns="http://www.w3.org/2000/svg">
<g clip-path="url(#clip0_181_1789)">
<path d="M57.289 -0.0787875C57.5 -0.0803477 57.7109 -0.0819079 57.9282 -0.0835153C58.3734 -0.0858812 58.8186 -0.0869883 59.2638 -0.0869128C59.9387 -0.0879347 60.6132 -0.0964464 61.288 -0.105338C64.1766 -0.123247 66.5103 0.00785808 68.7157 2.07911C70.3266 3.95909 70.8035 5.8223 70.858 8.23695C70.8629 8.41737 70.8678 8.59779 70.8728 8.78367C70.8881 9.35672 70.9019 9.92979 70.9157 10.5029C70.9259 10.8927 70.9361 11.2826 70.9464 11.6725C70.9714 12.6254 70.9952 13.5783 71.0183 14.5312C71.305 14.611 71.5917 14.6907 71.8871 14.7729C75.7512 15.8737 79.401 17.2638 82.8708 19.3082C83.3823 19.6088 83.3823 19.6088 84.1433 19.9218C84.9973 19.6428 85.5187 19.0598 86.1318 18.4231C86.3318 18.2184 86.5318 18.0137 86.7379 17.8028C87.1534 17.373 87.5685 16.9427 87.983 16.5119C90.0868 14.3623 91.7983 13.1404 94.8806 13.0371C97.6921 13.0877 99.3386 14.2178 101.248 16.1802C101.399 16.3409 101.55 16.5016 101.705 16.6671C101.857 16.8289 102.01 16.9907 102.167 17.1574C102.477 17.4882 102.783 17.8221 103.086 18.159C104.122 19.2424 104.873 19.6398 106.358 19.842C107.516 20.0199 108.386 20.8361 109.068 21.752C109.713 22.8261 109.954 23.7452 109.953 24.9799C109.953 25.3013 109.953 25.3013 109.954 25.6292C109.953 25.8625 109.952 26.0958 109.951 26.3362C109.951 26.5833 109.951 26.8303 109.951 27.0848C109.951 27.9015 109.949 28.7182 109.947 29.5349C109.947 30.101 109.947 30.6672 109.946 31.2334C109.945 32.7237 109.943 34.2141 109.941 35.7045C109.938 37.2252 109.937 38.7459 109.936 40.2667C109.933 43.2507 109.929 46.2347 109.925 49.2187C110.182 49.2156 110.439 49.2126 110.704 49.2094C111.045 49.207 111.386 49.2046 111.727 49.2022C111.981 49.1989 111.981 49.1989 112.24 49.1955C114.486 49.184 116.172 49.8919 117.893 51.3281C119.56 53.0822 120.112 54.9642 120.104 57.3321C120.105 57.5424 120.107 57.7527 120.108 57.9693C120.109 58.4117 120.109 58.8541 120.107 59.2965C120.105 59.9672 120.112 60.6375 120.119 61.3082C120.131 64.1846 119.985 66.5181 117.923 68.713C116.024 70.3409 114.171 70.8243 111.726 70.7958C111.553 70.7948 111.379 70.7937 111.2 70.7926C110.775 70.7899 110.35 70.7857 109.925 70.7812C109.926 70.9377 109.927 71.0942 109.928 71.2554C109.938 72.8826 109.945 74.5098 109.95 76.137C109.953 76.7445 109.956 77.3519 109.96 77.9594C109.966 78.832 109.968 79.7047 109.97 80.5773C109.973 80.8493 109.975 81.1213 109.978 81.4016C109.978 81.6549 109.978 81.9082 109.978 82.1692C109.979 82.392 109.98 82.6147 109.981 82.8442C109.921 83.4781 109.813 83.8492 109.456 84.3749C108.486 84.804 108.03 84.9232 107.024 84.5507C106.409 84.1406 106.409 84.1406 106.175 83.6718C106.152 83.3452 106.144 83.0175 106.143 82.69C106.142 82.483 106.14 82.2759 106.139 82.0626C106.139 81.8337 106.139 81.6049 106.139 81.3691C106.138 81.006 106.138 81.006 106.136 80.6356C106.133 79.8192 106.132 79.0029 106.13 78.1865C106.128 77.6034 106.126 77.0202 106.124 76.4371C106.12 75.1788 106.116 73.9205 106.113 72.6622C106.109 70.8421 106.103 69.0221 106.097 67.202C106.087 64.2482 106.078 61.2945 106.07 58.3407C106.069 58.1638 106.069 57.987 106.068 57.8047C106.064 56.5492 106.061 55.2936 106.057 54.038C106.053 52.6042 106.049 51.1704 106.045 49.7366C106.045 49.56 106.044 49.3834 106.044 49.2015C106.035 46.2593 106.026 43.3171 106.016 40.3749C106.01 38.5589 106.004 36.7429 106 34.927C105.997 33.5364 105.992 32.1458 105.987 30.7552C105.985 30.1836 105.984 29.6121 105.983 29.0406C105.982 28.2629 105.979 27.4852 105.976 26.7075C105.976 26.4791 105.975 26.2508 105.975 26.0155C105.974 25.8078 105.973 25.6002 105.972 25.3862C105.971 25.1168 105.971 25.1168 105.97 24.8419C105.957 24.3257 105.957 24.3257 105.706 23.6718C105.411 23.6573 105.116 23.6428 104.812 23.6279C104.646 23.6197 104.48 23.6116 104.31 23.6032C103.678 23.6937 103.516 23.8745 103.128 24.3749C103.022 24.9342 103.022 24.9342 103.039 25.5722C103.037 25.8214 103.035 26.0706 103.034 26.3273C103.035 26.602 103.037 26.8767 103.038 27.1597C103.037 27.4508 103.036 27.7418 103.035 28.0417C103.033 28.8511 103.034 29.6605 103.036 30.4699C103.037 31.3423 103.035 32.2146 103.033 33.0869C103.03 34.7964 103.03 36.5059 103.033 38.2154C103.034 39.6043 103.034 40.9933 103.034 42.3822C103.033 42.5797 103.033 42.7771 103.033 42.9806C103.033 43.3816 103.033 43.7827 103.033 44.1838C103.031 47.9474 103.033 51.711 103.037 55.4746C103.04 58.7061 103.039 61.9377 103.036 65.1692C103.032 68.9191 103.031 72.6689 103.033 76.4188C103.033 76.8184 103.033 77.218 103.034 77.6176C103.034 77.9126 103.034 77.9126 103.034 78.2135C103.034 79.6013 103.033 80.9891 103.032 82.3769C103.03 84.0674 103.03 85.7579 103.034 87.4485C103.036 88.3115 103.037 89.1745 103.034 90.0376C103.032 90.9718 103.035 91.906 103.038 92.8402C103.037 93.1149 103.035 93.3896 103.034 93.6726C103.035 93.9218 103.037 94.171 103.039 94.4277C103.039 94.6435 103.039 94.8592 103.039 95.0816C103.145 95.7297 103.311 95.9392 103.831 96.3281C104.312 96.4126 104.312 96.4126 104.812 96.372C105.255 96.3503 105.255 96.3503 105.706 96.3281C105.934 95.6441 105.975 95.1748 105.99 94.4613C105.996 94.2352 106.003 94.009 106.01 93.776C106.022 93.3006 106.032 92.8251 106.041 92.3496C106.048 92.1232 106.055 91.8968 106.063 91.6635C106.067 91.4568 106.072 91.2502 106.077 91.0373C106.194 90.3523 106.397 90.0288 106.878 89.5312C107.801 89.2746 108.306 89.2044 109.192 89.5898C109.69 89.9999 109.69 89.9999 109.925 90.7031C109.985 91.576 109.979 92.4503 109.983 93.3251C109.99 93.6825 109.99 93.6825 109.998 94.047C110.008 96.0345 109.725 97.6583 108.284 99.1406C107.45 99.8351 106.873 100.091 105.819 100.18C104.078 100.508 103.068 101.846 101.926 103.096C98.5426 106.747 98.5426 106.747 95.83 106.923C92.5674 106.966 90.8459 106.201 88.4774 103.98C87.8812 103.393 87.2925 102.8 86.7067 102.202C86.5039 101.997 86.301 101.792 86.092 101.581C85.5975 101.081 85.1043 100.58 84.612 100.078C83.7972 100.392 83.0201 100.746 82.2417 101.142C78.6284 102.948 74.9577 104.518 71.0183 105.469C71.0148 105.706 71.0114 105.944 71.0079 106.188C70.9942 107.078 70.9761 107.968 70.9567 108.858C70.949 109.241 70.9424 109.624 70.9371 110.008C70.8936 113.036 70.6925 115.472 68.6745 117.891C66.9203 119.558 65.0384 120.11 62.6705 120.102C62.4602 120.103 62.2499 120.104 62.0333 120.105C61.5909 120.107 61.1485 120.106 60.7061 120.104C60.0353 120.102 59.3651 120.109 58.6943 120.117C55.7879 120.128 53.4831 119.973 51.2731 117.888C49.7082 116.114 49.1611 114.036 49.1243 111.717C49.1175 111.448 49.1175 111.448 49.1106 111.172C49.0967 110.604 49.0857 110.036 49.0749 109.468C49.0659 109.08 49.0568 108.692 49.0474 108.305C49.025 107.359 49.0053 106.414 48.987 105.469C48.7003 105.389 48.4136 105.309 48.1182 105.227C44.2541 104.126 40.6042 102.736 37.1344 100.692C36.623 100.391 36.623 100.391 35.862 100.078C35.008 100.357 34.4866 100.94 33.8735 101.577C33.5735 101.884 33.5735 101.884 33.2674 102.197C32.8518 102.627 32.4368 103.057 32.0223 103.488C29.9185 105.638 28.2069 106.86 25.1247 106.963C21.3004 106.894 19.2683 104.39 16.7019 101.851C16.4834 101.639 16.265 101.427 16.0399 101.209C14.1311 99.3181 13.1051 97.7234 13.069 94.9951C13.1119 91.2301 15.2169 89.2365 17.8005 86.704C18.0055 86.5012 18.2105 86.2983 18.4217 86.0893C18.9216 85.5949 19.4225 85.1016 19.9245 84.6093C19.6101 83.7945 19.2563 83.0174 18.8607 82.239C17.055 78.6257 15.4847 74.955 14.5339 71.0156C14.2964 71.0122 14.059 71.0087 13.8143 71.0052C12.9245 70.9915 12.0348 70.9734 11.145 70.9541C10.7616 70.9463 10.3781 70.9397 9.99464 70.9344C6.96665 70.8909 4.53081 70.6898 2.11201 68.6718C0.445008 66.9177 -0.107207 65.0357 -0.0989911 62.6678C-0.10022 62.4575 -0.101448 62.2472 -0.102714 62.0306C-0.104211 61.5882 -0.103915 61.1458 -0.101909 60.7034C-0.0999168 60.0327 -0.106663 59.3624 -0.114097 58.6917C-0.125474 55.7852 0.0297056 53.4805 2.11475 51.2704C3.88876 49.7055 5.96619 49.1584 8.28541 49.1217C8.55504 49.1148 8.55504 49.1148 8.83012 49.1079C9.39834 49.094 9.96657 49.0831 10.5349 49.0722C10.9226 49.0633 11.3103 49.0541 11.698 49.0447C12.6433 49.0224 13.5885 49.0026 14.5339 48.9843C14.6136 48.6976 14.6934 48.4109 14.7756 48.1155C15.8764 44.2514 17.2665 40.6016 19.3109 37.1317C19.6115 36.6203 19.6115 36.6203 19.9245 35.8593C19.6455 35.0053 19.0625 34.4839 18.4258 33.8708C18.2211 33.6708 18.0164 33.4708 17.8055 33.2647C17.3757 32.8492 16.9454 32.4341 16.5146 32.0196C14.365 29.9158 13.143 28.2042 13.0397 25.122C13.1087 21.2978 15.6126 19.2657 18.152 16.6992C18.4695 16.3715 18.4695 16.3715 18.7934 16.0372C20.6844 14.1284 22.2792 13.1024 25.0075 13.0664C28.7725 13.1092 30.7661 15.2142 33.2985 17.7978C33.5014 18.0028 33.7043 18.2078 33.9133 18.419C34.4077 18.9189 34.901 19.4198 35.3933 19.9218C35.5721 19.8484 35.751 19.775 35.9352 19.6993C36.6373 19.4249 37.2174 19.2658 37.9714 19.2187C38.7985 19.5947 39.1029 19.8613 39.612 20.6249C39.5953 21.5453 39.5531 22.0731 38.9235 22.7636C36.3462 24.3416 36.3462 24.3416 35.0124 24.4335C32.7594 23.5991 30.9896 21.1485 29.3572 19.4604C29.1587 19.2586 28.9602 19.0568 28.7557 18.8488C28.5786 18.6666 28.4015 18.4843 28.2191 18.2965C27.2726 17.4787 26.3381 17.0088 25.0808 17.0068C24.798 17 24.798 17 24.5095 16.9931C22.789 17.3261 21.5038 18.9662 20.3194 20.156C19.9827 20.4935 19.6429 20.8278 19.3029 21.1619C19.0887 21.376 18.8745 21.59 18.6538 21.8106C18.459 22.0047 18.2642 22.1987 18.0635 22.3987C17.2108 23.4055 16.9741 24.3861 17.0339 25.6802C17.333 27.8622 19.6349 29.5315 21.1403 30.9814C21.6536 31.4759 22.1644 31.9726 22.6738 32.471C22.7908 32.5821 22.9077 32.6932 23.0282 32.8077C23.6979 33.463 24.1207 34.0163 24.3776 34.9218C24.3641 36.4969 23.6096 37.6297 22.8395 38.9501C20.9084 42.3845 19.4939 45.8626 18.5568 49.693C18.223 50.9867 17.8389 51.7925 16.8776 52.7343C15.9585 53.0407 15.0792 53.0051 14.121 53.0099C13.7046 53.0153 13.2882 53.021 12.8717 53.0268C12.2171 53.035 11.5625 53.0419 10.9078 53.0451C10.2746 53.0487 9.64175 53.0582 9.00867 53.0685C8.7189 53.0678 8.7189 53.0678 8.42327 53.0671C7.09785 53.0948 6.01565 53.3565 4.92451 54.1406C3.53486 55.8285 3.70322 57.8796 3.69404 59.9414C3.68679 60.3429 3.68679 60.3429 3.67939 60.7525C3.67061 62.6628 3.78012 64.3205 5.0124 65.8447C6.27133 66.8338 7.38167 66.8652 8.92353 66.8691C9.34162 66.875 9.75971 66.881 10.1778 66.887C10.8335 66.8937 11.4893 66.8994 12.145 66.9038C12.7803 66.9088 13.4153 66.9181 14.0505 66.9277C14.2458 66.9278 14.4412 66.9278 14.6424 66.9278C15.734 66.9464 16.4666 67.0199 17.3464 67.7343C17.942 68.3864 18.1831 68.9718 18.4029 69.8208C18.4637 70.0463 18.5245 70.2718 18.5872 70.5041C18.6836 70.8661 18.6836 70.8661 18.7819 71.2353C19.8562 75.0692 21.339 78.6309 23.3965 82.0439C23.9922 83.0533 24.3665 83.8748 24.3776 85.0781C23.9145 86.2294 23.2344 87.0106 22.3488 87.854C22.1577 88.041 22.1577 88.041 21.9628 88.2319C21.4221 88.7612 20.8774 89.2861 20.3329 89.8115C19.9341 90.1975 19.5374 90.5857 19.1408 90.9741C18.9573 91.1488 18.9573 91.1488 18.7701 91.3271C17.8891 92.1903 17.2288 93.0631 17.0186 94.2993C17.0213 94.5494 17.0213 94.5494 17.0241 94.8046C17.0223 94.9714 17.0205 95.1382 17.0186 95.31C17.2476 96.6569 18.0317 97.5719 18.9705 98.5144C19.0812 98.6257 19.1919 98.737 19.3059 98.8518C19.5387 99.085 19.7723 99.3174 20.0068 99.5489C20.3638 99.9022 20.7169 100.259 21.0698 100.616C21.2976 100.844 21.5255 101.071 21.7537 101.298C21.9591 101.502 22.1645 101.707 22.3762 101.918C23.383 102.771 24.3674 103.042 25.6674 102.984C27.8921 102.628 29.6251 100.282 31.1159 98.7304C31.5863 98.2413 32.0589 97.7546 32.5331 97.2692C32.7394 97.0548 32.9457 96.8404 33.1582 96.6194C33.9797 95.8929 34.574 95.6219 35.6688 95.6314C36.892 95.9425 37.8681 96.5305 38.9528 97.163C42.3872 99.0942 45.8653 100.509 49.6957 101.446C50.9894 101.78 51.7951 102.164 52.737 103.125C53.0434 104.044 53.0078 104.923 53.0126 105.882C53.018 106.298 53.0237 106.714 53.0295 107.131C53.0377 107.786 53.0446 108.44 53.0478 109.095C53.0514 109.728 53.0609 110.361 53.0712 110.994C53.0705 111.284 53.0705 111.284 53.0698 111.579C53.0975 112.905 53.3591 113.987 54.1433 115.078C55.8312 116.468 57.8823 116.299 59.944 116.309C60.2117 116.313 60.4794 116.318 60.7552 116.323C62.6655 116.332 64.3232 116.222 65.8474 114.99C66.8365 113.731 66.8679 112.621 66.8718 111.079C66.8777 110.661 66.8837 110.243 66.8897 109.825C66.8964 109.169 66.9021 108.513 66.9065 107.858C66.9115 107.222 66.9208 106.587 66.9304 105.952C66.9305 105.757 66.9305 105.561 66.9305 105.36C66.9491 104.269 67.0226 103.536 67.737 102.656C68.3891 102.061 68.9745 101.819 69.8235 101.6C70.049 101.539 70.2745 101.478 70.5068 101.415C70.8687 101.319 70.8687 101.319 71.238 101.221C75.0719 100.146 78.6336 98.6636 82.0466 96.6061C83.056 96.0104 83.8775 95.6361 85.0808 95.6249C86.2321 96.0881 87.0133 96.7681 87.8566 97.6538C88.0437 97.8448 88.0437 97.8448 88.2346 98.0398C88.7639 98.5804 89.2888 99.1252 89.8142 99.6696C90.2002 100.068 90.5884 100.465 90.9768 100.862C91.0933 100.984 91.2098 101.106 91.3298 101.232C92.2134 102.134 93.0915 102.779 94.3532 102.992C94.5417 102.992 94.7303 102.993 94.9245 102.993C95.113 102.998 95.3016 103.002 95.4958 103.007C96.9685 102.722 97.9919 101.525 98.9968 100.488C99.1246 100.358 99.2524 100.228 99.384 100.095C99.6955 99.7776 100.005 99.4593 100.315 99.1406C100.061 98.4909 99.7977 97.8732 99.4802 97.2509C99.1272 96.4662 99.1144 95.7919 99.0993 94.9365C99.0284 93.8601 98.8798 93.3069 98.1179 92.5341C97.7634 92.2282 97.4014 91.9307 97.0339 91.6406C96.8363 91.4753 96.6387 91.31 96.4351 91.1398C96.0049 90.7825 95.5714 90.4293 95.1351 90.0796C94.458 89.533 93.7984 88.9692 93.1374 88.4033C91.3958 86.9442 89.5293 85.6621 87.6589 84.3749C86.9172 84.7248 86.5136 85.033 86.0036 85.6787C84.9686 86.8986 83.7611 87.8481 82.5026 88.8281C82.1845 89.0855 82.1845 89.0855 81.8599 89.3481C75.7982 94.1169 68.2121 96.4362 60.5446 96.4013C60.2371 96.4 59.9295 96.3987 59.6127 96.3973C54.0893 96.3287 48.7901 95.0178 43.8308 92.5781C43.6829 92.5062 43.535 92.4343 43.3826 92.3603C39.9177 90.657 36.9909 88.4564 34.2214 85.7812C34.0045 85.5791 33.7875 85.377 33.564 85.1687C27.7696 79.6287 23.9661 71.3247 23.6367 63.2982C23.6322 62.9783 23.6289 62.6582 23.6269 62.3382C23.6252 62.1649 23.6236 61.9917 23.6219 61.8132C23.5688 54.6206 23.5688 54.6206 24.3776 51.5624C24.4242 51.3794 24.4708 51.1963 24.5187 51.0076C26.9128 41.7972 32.6441 33.8662 40.8812 28.9933C41.5449 28.6123 42.2184 28.2516 42.8933 27.8906C43.102 27.7712 43.3108 27.6519 43.5259 27.5289C46.9474 25.6658 50.9988 24.4546 54.8464 23.9062C54.9919 23.8848 55.1374 23.8634 55.2874 23.8413C59.5105 23.2891 64.3018 23.3217 68.4401 24.3749C68.6249 24.4215 68.8097 24.4681 69.0001 24.5161C76.4727 26.4603 82.2757 30.3983 87.6589 35.8593C90.8704 33.7312 93.8679 31.3391 96.6658 28.6898C97.2683 28.1249 97.2683 28.1249 97.7974 27.6992C98.4925 27.1153 98.8628 26.7561 99.0178 25.8416C99.043 25.3589 99.06 24.8757 99.0691 24.3923C99.1724 23.3887 99.5885 22.6814 100.113 21.8334C100.366 21.3448 100.366 21.3448 100.2 20.8831C99.6923 20.1758 99.0996 19.5669 98.4841 18.955C98.3619 18.829 98.2397 18.7031 98.1137 18.5733C97.1384 17.5967 96.2687 17.0508 94.8513 17.0068C92.3447 17.1226 90.6468 19.4497 89.0212 21.1376C88.5267 21.6509 88.0299 22.1617 87.5316 22.6712C87.4205 22.7881 87.3094 22.905 87.1949 23.0255C86.5395 23.6952 85.9863 24.118 85.0808 24.3749C83.5057 24.3614 82.3729 23.6069 81.0524 22.8369C77.6181 20.9057 74.14 19.4912 70.3096 18.5541C69.0159 18.2203 68.2101 17.8363 67.2683 16.8749C66.9619 15.9558 66.9975 15.0766 66.9927 14.1183C66.9872 13.7019 66.9816 13.2855 66.9757 12.8691C66.9675 12.2144 66.9607 11.5598 66.9575 10.9051C66.9538 10.2719 66.9444 9.63907 66.9341 9.00599C66.9348 8.71622 66.9348 8.71622 66.9354 8.42059C66.9078 7.09517 66.6461 6.01296 65.862 4.92182C64.174 3.53218 62.1229 3.70054 60.0612 3.69135C59.7935 3.68652 59.5259 3.68169 59.2501 3.67671C57.3397 3.66792 55.682 3.77744 54.1579 5.00971C53.1687 6.26865 53.1374 7.37898 53.1334 8.92085C53.1275 9.33894 53.1216 9.75703 53.1156 10.1751C53.1088 10.8309 53.1032 11.4866 53.0988 12.1424C53.0937 12.7776 53.0845 13.4126 53.0748 14.0478C53.0748 14.2431 53.0748 14.4385 53.0748 14.6397C53.0562 15.7313 52.9827 16.4639 52.2683 17.3437C51.5906 17.9664 50.9353 18.2171 50.0582 18.4744C49.6915 18.582 49.6915 18.582 49.3175 18.6918C49.0634 18.7642 48.8093 18.8365 48.5476 18.9111C48.2953 18.9862 48.043 19.0612 47.7831 19.1386C46.5893 19.4838 45.5537 19.7732 44.2995 19.6874C43.6094 19.2025 43.3987 18.865 43.1423 18.0615C43.1237 17.1531 43.2536 16.8747 43.8308 16.1718C44.5034 15.8313 45.2036 15.6224 45.9255 15.4101C46.1157 15.3503 46.3059 15.2905 46.5018 15.2288C47.3252 14.9721 48.1489 14.7353 48.987 14.5312C48.9904 14.295 48.9938 14.0588 48.9974 13.8154C49.0111 12.9286 49.0292 12.0419 49.0485 11.1552C49.0563 10.7734 49.0628 10.3915 49.0682 10.0096C49.1135 6.86816 49.2315 4.22659 51.5651 1.87495C53.3695 0.409509 54.9948 -0.072825 57.289 -0.0787875ZM52.9714 28.1249C52.8083 28.1639 52.6453 28.2029 52.4773 28.2431C44.0201 30.3365 36.3561 35.705 31.8007 43.166C30.1496 45.9736 28.9947 48.8963 28.1276 52.0312C28.0826 52.1896 28.0376 52.348 27.9912 52.5112C25.8254 60.5422 27.8125 69.4624 31.7504 76.5655C33.0655 78.8506 34.7587 80.8232 36.5651 82.7343C36.7401 82.9244 36.915 83.1144 37.0952 83.3102C38.6989 84.9933 40.506 86.3541 42.4245 87.6562C42.5019 87.6562 42.5792 87.6562 42.6589 87.6562C42.7243 85.947 42.7741 84.238 42.8046 82.5278C42.8192 81.7334 42.839 80.9399 42.8711 80.146C42.9053 79.2312 42.9211 78.3176 42.9335 77.4023C42.9481 77.1197 42.9626 76.8372 42.9775 76.5461C42.9782 75.7083 42.9454 75.0855 42.6589 74.2968C41.8084 73.4885 40.8763 72.9703 39.8464 72.4218C36.617 70.0071 34.9598 66.3426 34.3193 62.4526C33.7662 57.8672 34.9526 53.3753 37.737 49.6874C40.4525 46.4642 44.0456 44.4764 48.2839 44.0624C49.2182 44.0216 50.1521 44.0129 51.0872 44.0066C51.3556 44.0047 51.624 44.0028 51.9005 44.0009C52.4667 43.9976 53.0328 43.9951 53.599 43.9933C54.1758 43.9906 54.7527 43.9858 55.3296 43.9788C56.1665 43.9688 57.0032 43.9651 57.8402 43.9627C58.0958 43.9586 58.3515 43.9544 58.6149 43.9502C60.4593 43.9554 61.9715 44.2507 63.38 45.5017C63.5078 45.6648 63.6356 45.828 63.7673 45.996C63.9671 46.2444 63.9671 46.2444 64.171 46.4978C64.265 46.6222 64.359 46.7467 64.4558 46.8749C71.2834 45.5123 78.2463 42.0885 84.1433 38.4374C82.5126 34.5833 76.9175 31.4405 73.2393 29.9019C66.795 27.3115 59.7846 26.4693 52.9714 28.1249ZM97.9274 32.7685C96.5709 34.0014 95.1442 35.1263 93.6929 36.2448C93.31 36.5421 92.9315 36.8451 92.5533 37.1484C85.4616 42.7784 77.1021 46.4237 68.6231 49.4091C68.4466 49.4713 68.2701 49.5334 68.0883 49.5975C67.7568 49.7139 67.4251 49.8297 67.0931 49.9447C66.3355 50.2097 65.6453 50.4989 64.9245 50.8593C64.9245 56.9695 64.9245 63.0796 64.9245 69.3749C67.3222 70.2257 69.7198 71.0765 72.1901 71.9531C81.6214 75.9465 90.7035 80.7809 98.2579 87.7889C98.6461 88.174 98.6461 88.174 99.1433 88.1249C99.1433 69.5624 99.1433 50.9999 99.1433 31.8749C98.6705 31.8749 98.246 32.4718 97.9274 32.7685ZM40.3664 52.2582C38.1479 55.02 37.497 58.1744 37.737 61.6406C38.225 64.9788 39.9428 67.7228 42.538 69.8529C45.2518 71.8334 47.8706 72.4911 51.1953 72.5088C51.4444 72.5109 51.6935 72.513 51.9502 72.5152C52.4734 72.5186 52.9965 72.5207 53.5197 72.5216C54.32 72.5244 55.12 72.5359 55.9203 72.5477C56.4302 72.5499 56.9402 72.5516 57.4501 72.5527C57.808 72.5596 57.808 72.5596 58.173 72.5666C58.396 72.5652 58.6191 72.5638 58.8488 72.5623C59.0439 72.5635 59.2389 72.5647 59.4399 72.5659C60.3155 72.3417 60.6428 71.9748 61.1745 71.2499C61.3423 70.5222 61.3348 69.8144 61.3261 69.0701C61.3292 68.7435 61.3292 68.7435 61.3324 68.4102C61.3375 67.6917 61.3341 66.9734 61.3301 66.2548C61.3309 65.7549 61.3321 65.2549 61.3335 64.7549C61.3353 63.7075 61.3328 62.6603 61.3273 61.6129C61.3206 60.2706 61.3245 58.9286 61.3315 57.5864C61.3357 56.5541 61.3344 55.5219 61.3313 54.4896C61.3305 53.9947 61.3315 53.4998 61.3342 53.0049C61.3372 52.3131 61.3327 51.6217 61.3261 50.9298C61.3285 50.7255 61.3309 50.5211 61.3333 50.3106C61.3158 49.305 61.2625 48.8698 60.6505 48.0368C59.9677 47.5534 59.6813 47.4318 58.86 47.4339C58.6392 47.4317 58.4185 47.4295 58.191 47.4273C57.9547 47.4311 57.7184 47.435 57.4749 47.4389C57.2283 47.4389 56.9817 47.4389 56.7277 47.4389C56.2058 47.4401 55.6839 47.4443 55.1621 47.451C54.3714 47.4608 53.5813 47.4607 52.7906 47.4591C52.2817 47.4615 51.7728 47.4646 51.2639 47.4682C51.0309 47.4683 50.7979 47.4683 50.5578 47.4684C46.369 47.5375 43.1599 49.1707 40.3664 52.2582ZM109.925 52.9687C109.925 57.6093 109.925 62.2499 109.925 67.0312C113.221 67.1463 113.221 67.1463 115.637 65.5664C116.651 63.8508 116.566 61.9485 116.56 60.0146C116.564 59.7501 116.568 59.4856 116.572 59.2131C116.573 57.3349 116.359 55.7884 115.374 54.1699C113.7 52.5887 112.336 52.9687 109.925 52.9687ZM64.4558 73.1249C64.2114 73.4047 63.979 73.6948 63.7526 73.9892C62.808 75.1136 61.8064 75.5866 60.4714 76.1718C60.4714 77.2546 60.4714 78.3374 60.4714 79.4531C61.9403 80.1331 63.1059 80.365 64.6901 79.9218C66.1902 79.1777 67.3533 78.2262 68.03 76.6699C68.2251 75.8567 68.2176 75.1303 68.2058 74.2968C67.669 74.1006 67.1318 73.9054 66.5944 73.7109C66.4419 73.655 66.2893 73.5991 66.1321 73.5415C65.3148 73.2307 65.3148 73.2307 64.4558 73.1249ZM46.4089 75.7031C46.4089 80.3437 46.4089 84.9843 46.4089 89.7656C50.0686 91.2295 52.8676 92.0275 56.7214 92.5781C56.7214 87.164 56.7214 81.7499 56.7214 76.1718C54.0291 76.1042 54.0291 76.1042 51.3367 76.0387C50.9954 76.0297 50.654 76.0207 50.3127 76.0116C50.1401 76.0077 49.9675 76.0039 49.7897 75.9999C49.5331 75.9928 49.5331 75.9928 49.2713 75.9856C49.1256 75.9819 48.9798 75.9783 48.8297 75.9745C48.0196 75.9195 47.2146 75.8038 46.4089 75.7031ZM71.9558 75.9374C71.8787 76.2053 71.8787 76.2053 71.8001 76.4785C70.9916 79.1112 69.8309 81.2654 67.3433 82.6034C64.9773 83.7287 63.0412 83.8046 60.4714 83.4374C60.4714 86.4539 60.4714 89.4703 60.4714 92.5781C63.352 92.5904 63.352 92.5904 66.1403 92.2119C66.3479 92.1707 66.5556 92.1295 66.7695 92.0871C72.7603 90.8192 78.0982 87.8907 82.5026 83.6718C82.6531 83.5307 82.8036 83.3896 82.9586 83.2443C83.2865 82.9293 83.5998 82.5991 83.9089 82.2656C83.9089 82.1109 83.9089 81.9562 83.9089 81.7968C81.6277 80.4985 79.3285 79.2495 76.9802 78.0761C76.7686 77.9703 76.5571 77.8644 76.3392 77.7554C74.2332 76.5312 74.2332 76.5312 71.9558 75.9374Z" fill="white"/>
</g>
<defs>
<clipPath id="clip0_181_1789">
<rect width="120" height="120" fill="white" transform="translate(0.00256348)"/>
</clipPath>
</defs>
</svg>
