<svg width="121" height="120" viewBox="0 0 121 120" fill="none" xmlns="http://www.w3.org/2000/svg">
<g clip-path="url(#clip0_181_1772)">
<path d="M61.5073 -3.16342e-05C64.8236 1.41555 67.7134 3.63563 70.343 6.06808C70.8287 6.51333 71.3272 6.93331 71.8344 7.35348C72.9975 8.36969 73.9169 9.56922 74.8666 10.7812C75.0555 11.0105 75.2443 11.2398 75.4388 11.4761C79.4993 16.5152 82.072 22.7845 83.3627 29.0918C83.3982 29.2647 83.4336 29.4376 83.4701 29.6158C84.1462 33.1664 84.3284 36.6769 84.3149 40.2832C84.3147 40.5028 84.3145 40.7224 84.3143 40.9487C84.3062 44.946 84.1768 48.969 83.305 52.8863C83.1287 53.7148 82.9823 54.4606 83.0698 55.3125C83.7191 56.2273 84.5045 56.783 85.4135 57.4218C85.8123 57.8041 86.2031 58.195 86.5854 58.5937C86.7651 58.7741 86.9449 58.9545 87.1301 59.1403C90.8307 63.0243 93.131 67.9327 94.3198 73.125C94.3775 73.3655 94.4352 73.6059 94.4946 73.8537C95.9723 81.3949 94.1317 89.7198 89.9243 96.08C88.5843 97.9047 88.5843 97.9047 87.4057 98.1152C86.3439 97.9256 86.0762 97.6431 85.4135 96.7968C85.1776 96.0573 85.0798 95.3085 84.9741 94.541C84.021 88.7407 81.3539 83.8643 77.2104 79.6875C76.9784 79.5328 76.7463 79.3781 76.5073 79.2187C76.4541 79.3534 76.401 79.488 76.3463 79.6267C76.1028 80.2429 75.8582 80.8587 75.6137 81.4746C75.5302 81.6864 75.4466 81.8982 75.3606 82.1164C74.0782 85.3399 74.0782 85.3399 72.9916 86.0156C72.4769 86.1047 72.4769 86.1047 71.908 86.1065C71.5832 86.1099 71.5832 86.1099 71.2519 86.1135C71.016 86.1124 70.7802 86.1114 70.5372 86.1103C70.1626 86.1127 70.1626 86.1127 69.7805 86.1152C68.9541 86.1195 68.1279 86.1185 67.3016 86.1172C66.7278 86.1183 66.1539 86.1195 65.58 86.1209C64.3768 86.123 63.1736 86.1225 61.9703 86.1201C60.4277 86.1174 58.8851 86.1222 57.3424 86.129C56.1572 86.1333 54.9719 86.1333 53.7866 86.1319C53.2178 86.1319 52.649 86.1333 52.0802 86.1362C51.2851 86.1397 50.4903 86.1372 49.6952 86.1332C49.4598 86.1354 49.2244 86.1377 48.9819 86.14C47.9569 86.1292 47.3741 86.1165 46.4864 85.5694C46.0392 85.0788 45.8048 84.7175 45.5817 84.0966C45.5135 83.9136 45.4454 83.7305 45.3752 83.5418C45.3089 83.3527 45.2426 83.1636 45.1743 82.9687C45.037 82.5926 44.8993 82.2166 44.7613 81.8408C44.7025 81.6749 44.6437 81.5091 44.5831 81.3382C44.3936 80.8483 44.1712 80.3877 43.9291 79.9218C43.5315 80.3067 43.1431 80.6971 42.7573 81.0937C42.5983 81.2563 42.4394 81.4188 42.2757 81.5863C38.5183 85.5777 36.4417 90.6947 35.726 96.0791C35.5955 96.9352 35.5325 97.2142 34.9789 97.9101C34.1255 98.2894 33.6038 98.3517 32.6791 98.2031C28.8387 94.8412 26.5022 87.9814 26.1431 83.0055C25.6751 74.0578 27.7952 65.9143 33.8382 59.1037C34.3029 58.6016 34.782 58.1546 35.314 57.7249C36.5661 56.7958 36.5661 56.7958 37.265 55.4718C37.2111 54.7695 37.0581 54.124 36.8979 53.4375C36.8024 52.8349 36.7186 52.2313 36.6357 51.6268C36.5777 51.2047 36.5173 50.7829 36.4542 50.3615C36.1124 48.0771 35.9243 45.8082 35.9045 43.4985C35.9022 43.2747 35.8999 43.0508 35.8976 42.8202C35.8434 36.1725 36.1987 30.0304 38.3041 23.6718C38.3553 23.5113 38.4066 23.3508 38.4593 23.1854C39.8368 18.9163 42.0408 14.7357 44.8666 11.25C44.9817 11.1076 45.0967 10.9652 45.2152 10.8185C48.3072 7.03682 56 -1.69404 61.5073 -3.16342e-05ZM51.097 10.8705C49.1931 12.7368 49.1931 12.7368 47.9135 15C56.1119 15 64.3104 15 72.7573 15C71.991 13.6205 71.991 13.6205 71.058 12.4612C70.9169 12.3093 70.7759 12.1573 70.6305 12.0008C70.4815 11.8449 70.3326 11.6889 70.1791 11.5283C70.0229 11.3639 69.8667 11.1995 69.7058 11.0301C67.0981 8.32336 64.0198 5.7828 60.5698 4.21872C57.4665 4.21872 53.1682 8.83637 51.097 10.8705ZM44.6323 18.9843C41.9476 24.9502 39.948 30.8102 39.8889 37.3828C39.8866 37.5941 39.8844 37.8054 39.8821 38.0232C39.8762 38.7081 39.8733 39.3931 39.8715 40.0781C39.8708 40.3117 39.8701 40.5454 39.8694 40.7861C39.8673 43.8744 39.9695 46.9167 40.3696 49.9804C40.4083 50.2792 40.447 50.578 40.4869 50.8859C40.6797 52.2195 40.9291 53.4593 41.3889 54.7247C41.8621 56.1401 42.1724 57.6126 42.5229 59.0625C44.1985 66.0497 44.1985 66.0497 46.3037 72.916C46.6759 74.0083 47.0015 75.0458 47.1664 76.1892C47.5692 78.199 48.3768 80.1079 49.0854 82.0312C56.2784 82.0312 63.4713 82.0312 70.8823 82.0312C74.9462 72.8874 77.7274 62.8443 79.3198 52.9687C79.3657 52.6849 79.4117 52.4012 79.459 52.1088C81.2571 40.5501 80.4351 29.688 75.5698 18.9843C65.3604 18.9843 55.151 18.9843 44.6323 18.9843ZM82.1323 60C81.8079 60.9457 81.5249 61.8916 81.2735 62.8592C81.1631 63.2801 81.1631 63.2801 81.0506 63.7096C80.9725 64.0081 80.8944 64.3066 80.8139 64.6142C79.9177 68.0199 78.9358 71.3954 77.9135 74.7656C78.5467 75.4035 79.1847 76.0341 79.8352 76.6543C81.7141 78.4635 83.2828 80.3188 84.7104 82.5C84.8391 82.6855 84.9678 82.871 85.1004 83.0621C86.3031 84.8951 87.0131 86.9925 87.7886 89.0317C87.9892 89.5251 88.2158 89.9958 88.4604 90.4687C91.3691 83.5266 91.7255 76.2917 88.9154 69.2596C87.447 65.7624 85.1704 62.5599 82.3666 60C82.2893 60 82.2119 60 82.1323 60ZM37.1176 61.5673C32.3253 66.4979 29.9666 73.3219 30.0182 80.1164C30.1096 83.8599 31.0349 87.2466 32.4448 90.7031C32.8633 90.0753 33.0931 89.526 33.3355 88.8191C34.491 85.4766 36.1731 82.3306 38.5385 79.6875C38.7098 79.4884 38.8811 79.2893 39.0576 79.0841C40.0325 77.9693 41.0003 76.9994 42.2098 76.1398C42.5929 75.6977 42.5929 75.6977 42.5073 75.0027C42.2594 73.7647 41.8404 72.567 41.4535 71.3672C40.3415 67.8474 39.4323 64.2834 38.5385 60.7031C37.8328 60.7031 37.6145 61.0792 37.1176 61.5673Z" fill="white"/>
<path d="M66.6641 35.3906C68.849 37.3881 69.8364 39.5536 70.1431 42.4814C70.2584 45.2459 69.4284 47.5069 67.6748 49.6289C65.6874 51.7394 63.2341 52.7392 60.3652 52.8369C57.6491 52.7691 55.3028 51.8242 53.3203 49.9658C51.3288 47.8416 50.6128 45.547 50.4922 42.6563C50.6239 39.8941 51.7225 37.7048 53.6004 35.7038C57.3965 32.4654 62.7115 32.4278 66.6641 35.3906ZM55.8828 39.375C55.7136 39.578 55.5444 39.7811 55.3701 39.9903C54.5847 41.4527 54.29 42.9475 54.6963 44.5752C55.3771 46.4617 56.6868 47.6627 58.4609 48.5156C59.8409 48.9756 61.255 48.9262 62.6064 48.3838C64.0005 47.6831 64.953 46.7307 65.6973 45.3662C66.304 43.445 66.2454 42.1721 65.4922 40.3125C64.7355 38.8803 63.6966 38.0996 62.2549 37.4268C59.7564 36.8879 57.5655 37.3558 55.8828 39.375Z" fill="white"/>
<path d="M69.8287 93.3691C70.8703 93.5552 71.163 93.8712 71.8209 94.6875C71.9649 95.4183 71.9649 95.4183 71.9613 96.2472C71.9623 96.399 71.9632 96.5508 71.9641 96.7072C71.9657 97.2064 71.9589 97.705 71.9518 98.204C71.9508 98.5522 71.9503 98.9003 71.9501 99.2485C71.9487 99.9769 71.9434 100.705 71.935 101.434C71.9244 102.366 71.921 103.299 71.9201 104.232C71.919 104.95 71.9155 105.669 71.911 106.387C71.9089 106.731 71.9073 107.075 71.9063 107.419C71.9041 107.9 71.8989 108.381 71.8927 108.861C71.8889 109.271 71.8889 109.271 71.8851 109.69C71.8227 110.371 71.721 110.76 71.3521 111.328C70.7345 111.808 70.388 111.796 69.5943 111.782C68.5927 111.514 68.3852 111.254 67.8365 110.391C67.7159 109.661 67.7159 109.661 67.7115 108.835C67.7095 108.683 67.7074 108.532 67.7054 108.376C67.7001 107.878 67.7016 107.38 67.7037 106.882C67.7025 106.535 67.701 106.187 67.6993 105.84C67.6969 105.112 67.698 104.385 67.7014 103.657C67.7054 102.727 67.6999 101.796 67.6917 100.865C67.6865 100.148 67.6869 99.4305 67.6888 98.7131C67.689 98.37 67.6874 98.0268 67.6839 97.6837C67.6798 97.2034 67.6833 96.7237 67.6886 96.2434C67.6888 95.9706 67.689 95.6978 67.6893 95.4167C67.9387 94.1813 68.6068 93.5873 69.8287 93.3691Z" fill="white"/>
<path d="M50.8432 93.3691C51.8848 93.5551 52.1771 93.8717 52.8354 94.6875C52.9826 95.4167 52.9826 95.4167 52.9833 96.2434C52.985 96.3949 52.9866 96.5463 52.9884 96.7024C52.9923 97.2004 52.9878 97.6978 52.9828 98.1958C52.983 98.5434 52.9835 98.891 52.9845 99.2386C52.9851 99.966 52.9817 100.693 52.9753 101.421C52.9673 102.351 52.9687 103.282 52.9731 104.213C52.9756 104.93 52.9735 105.648 52.9699 106.365C52.9687 106.708 52.9688 107.051 52.9703 107.394C52.9716 107.875 52.9668 108.354 52.9604 108.835C52.9589 109.108 52.9575 109.38 52.956 109.661C52.8094 110.548 52.5347 110.938 51.8979 111.562C51.0842 111.78 50.5274 111.877 49.7152 111.636C49.2204 111.251 49.0809 110.976 48.851 110.391C48.7867 109.69 48.7867 109.69 48.7792 108.861C48.7772 108.71 48.7753 108.558 48.7733 108.402C48.7676 107.903 48.7656 107.404 48.764 106.905C48.7619 106.557 48.7598 106.209 48.7576 105.861C48.7537 105.133 48.7519 104.404 48.7513 103.675C48.75 102.743 48.7412 101.81 48.7305 100.877C48.7235 100.159 48.7218 99.4407 48.7216 98.7222C48.7206 98.3784 48.7177 98.0347 48.7128 97.6909C48.7064 97.2095 48.7076 96.7286 48.7105 96.2472C48.7093 95.9736 48.7081 95.7001 48.7069 95.4183C48.951 94.1804 49.6207 93.5874 50.8432 93.3691Z" fill="white"/>
<path d="M61.0392 101.719C61.66 102.093 61.66 102.093 62.211 102.656C62.3567 103.396 62.3567 103.396 62.3552 104.279C62.3565 104.44 62.3578 104.602 62.3592 104.768C62.3619 105.3 62.3562 105.831 62.3502 106.363C62.3498 106.733 62.3498 107.103 62.3502 107.473C62.3498 108.248 62.3454 109.023 62.3381 109.798C62.3288 110.792 62.3277 111.785 62.3295 112.779C62.3302 113.543 62.3274 114.306 62.3234 115.07C62.3217 115.437 62.321 115.803 62.3212 116.169C62.3208 116.681 62.3158 117.193 62.3094 117.704C62.3065 118.141 62.3065 118.141 62.3035 118.587C62.211 119.297 62.211 119.297 61.8881 119.742C61.3588 120.101 60.9707 120.094 60.336 120.088C60.0315 120.091 60.0315 120.091 59.7208 120.093C59.031 119.978 58.8699 119.861 58.461 119.297C58.3686 118.587 58.3686 118.587 58.3626 117.704C58.3606 117.544 58.3586 117.383 58.3566 117.217C58.3511 116.685 58.3509 116.153 58.3512 115.621C58.3495 115.251 58.3477 114.881 58.3458 114.512C58.3426 113.736 58.3422 112.961 58.3436 112.186C58.345 111.192 58.3378 110.199 58.3284 109.206C58.3223 108.442 58.3216 107.678 58.3225 106.914C58.3221 106.548 58.3198 106.182 58.3156 105.816C58.3104 105.303 58.3127 104.791 58.3168 104.279C58.3164 103.988 58.3159 103.696 58.3154 103.396C58.461 102.656 58.461 102.656 59.012 102.093C59.7766 101.632 60.1601 101.572 61.0392 101.719Z" fill="white"/>
</g>
<defs>
<clipPath id="clip0_181_1772">
<rect width="120" height="120" fill="white" transform="translate(0.335938)"/>
</clipPath>
</defs>
</svg>
