<svg width="121" height="120" viewBox="0 0 121 120" fill="none" xmlns="http://www.w3.org/2000/svg">
<g clip-path="url(#clip0_181_1730)">
<path d="M61.2728 27.6563C61.8951 27.9498 61.8951 27.9498 62.5289 28.3246C62.8874 28.5342 62.8874 28.5342 63.2531 28.748C63.636 28.9762 63.636 28.9762 64.0267 29.209C64.2979 29.3684 64.5692 29.5275 64.8406 29.6864C65.4041 30.0166 65.9669 30.3477 66.5293 30.6796C67.8185 31.4391 69.1164 32.1836 70.4134 32.9297C70.9213 33.2226 71.4291 33.5156 71.9369 33.8086C72.1882 33.9536 72.4396 34.0986 72.6986 34.248C73.4603 34.6875 74.222 35.127 74.9837 35.5664C75.2354 35.7116 75.487 35.8567 75.7462 36.0063C76.2516 36.2978 76.7569 36.5895 77.2622 36.8812C78.4324 37.5566 79.6028 38.2315 80.7745 38.9042C81.183 39.1388 81.5915 39.3736 81.9999 39.6085C82.5075 39.9003 83.0153 40.1918 83.5233 40.4828C83.9792 40.7451 84.4332 41.0108 84.8847 41.2806C85.6423 41.7282 85.6423 41.7282 86.4388 42.0975C88.5203 43.1714 88.5203 43.1714 88.9789 44.2823C89.092 45.1306 89.1067 45.9333 89.0889 46.7889C89.0931 47.1095 89.0985 47.43 89.1051 47.7505C89.1189 48.6166 89.1136 49.4817 89.104 50.3479C89.0962 51.2567 89.1034 52.1654 89.1082 53.0742C89.1137 54.6 89.1064 56.1254 89.0919 57.6512C89.0753 59.4121 89.0807 61.172 89.0975 62.9329C89.1113 64.4482 89.1132 65.9631 89.1053 67.4784C89.1005 68.382 89.0998 69.2851 89.11 70.1886C89.1188 71.0386 89.1126 71.8873 89.095 72.7372C89.0891 73.1953 89.0981 73.6534 89.1076 74.1115C89.0807 74.9754 89.0246 75.6061 88.6947 76.4063C87.761 77.2418 86.779 77.7393 85.6478 78.2813C85.1394 78.5709 84.6329 78.8637 84.1289 79.1611C83.6052 79.4591 83.0812 79.7566 82.557 80.0537C81.9779 80.383 81.3991 80.7128 80.8202 81.0425C80.6749 81.1252 80.5296 81.2079 80.3798 81.2931C78.9197 82.1245 77.464 82.9633 76.0091 83.8037C75.7598 83.9477 75.5105 84.0917 75.2537 84.24C74.751 84.5304 74.2483 84.8208 73.7457 85.1112C72.9873 85.5493 72.2287 85.9872 71.4699 86.4249C71.2179 86.5703 70.9659 86.7158 70.7063 86.8656C70.2022 87.1562 69.6978 87.4464 69.1931 87.736C68.0014 88.4207 66.8133 89.1102 65.6351 89.818C65.0782 90.1521 64.5196 90.4833 63.9609 90.8143C63.567 91.0493 63.1757 91.2884 62.7843 91.5276C62.5454 91.6688 62.3064 91.81 62.0602 91.9556C61.851 92.0817 61.6419 92.2078 61.4264 92.3378C60.6318 92.6447 60.2127 92.5731 59.3978 92.3438C58.7755 92.0502 58.7755 92.0502 58.1417 91.6754C57.9027 91.5357 57.6637 91.396 57.4175 91.252C57.0346 91.0238 57.0346 91.0238 56.6439 90.791C56.3727 90.6316 56.1014 90.4725 55.83 90.3136C55.2666 89.9834 54.7037 89.6523 54.1413 89.3205C52.8521 88.5609 51.5542 87.8164 50.2572 87.0703C49.7493 86.7774 49.2415 86.4844 48.7337 86.1914C48.3567 85.9739 48.3567 85.9739 47.972 85.752C47.2103 85.3125 46.4486 84.873 45.6869 84.4336C45.4353 84.2884 45.1836 84.1433 44.9244 83.9937C44.419 83.7022 43.9137 83.4105 43.4084 83.1188C42.2383 82.4434 41.0678 81.7685 39.8961 81.0958C39.4876 80.8612 39.0791 80.6264 38.6707 80.3915C38.1631 80.0997 37.6553 79.8082 37.1473 79.5172C36.6914 79.2549 36.2374 78.9892 35.7859 78.7194C35.0283 78.2719 35.0283 78.2719 34.2321 77.9024C32.1511 76.8282 32.1511 76.8282 31.6904 75.7183C31.5753 74.8713 31.5586 74.0696 31.5742 73.2148C31.5693 72.8946 31.5631 72.5745 31.5558 72.2544C31.54 71.3892 31.5433 70.5251 31.5512 69.6598C31.556 68.9358 31.5511 68.212 31.5463 67.488C31.5349 65.779 31.5388 64.0706 31.553 62.3617C31.5673 60.6025 31.5578 58.8446 31.5362 57.0856C31.5183 55.5715 31.5142 54.0578 31.5212 52.5436C31.5254 51.6409 31.5246 50.7389 31.5111 49.8362C31.4382 44.3774 31.4382 44.3774 32.3189 43.0939C33.1251 42.342 34.0067 41.951 35.0513 41.6329C35.7435 41.3994 36.3356 41.0165 36.9537 40.6329C37.428 40.3598 37.9026 40.087 38.3773 39.8145C38.9086 39.5087 39.4399 39.2029 39.9712 38.8971C40.3726 38.6663 40.3726 38.6663 40.782 38.4309C42.0661 37.6921 43.3491 36.9515 44.6322 36.2109C45.14 35.918 45.6478 35.625 46.1556 35.332C46.407 35.187 46.6584 35.042 46.9173 34.8926C47.6791 34.4531 48.4408 34.0137 49.2025 33.5742C49.4542 33.4289 49.706 33.2836 49.9654 33.1339C50.4691 32.8434 50.9731 32.5535 51.4773 32.2641C52.6691 31.5794 53.8573 30.8898 55.0355 30.182C55.5924 29.8479 56.151 29.5167 56.7097 29.1857C57.1036 28.9507 57.495 28.7116 57.8863 28.4724C58.1252 28.3312 58.3642 28.19 58.6105 28.0444C58.8196 27.9183 59.0287 27.7922 59.2442 27.6622C60.0388 27.3554 60.4579 27.4269 61.2728 27.6563ZM58.6562 36.5048C58.4156 36.6454 58.175 36.7859 57.9271 36.9307C57.668 37.0847 57.4089 37.2388 57.1419 37.3975C56.8697 37.5574 56.5973 37.7171 56.3247 37.8766C55.7573 38.2089 55.1904 38.5421 54.6238 38.8758C53.5548 39.5043 52.4791 40.1207 51.4034 40.7377C48.5785 42.3584 45.776 44.0138 42.9916 45.7031C43.6782 46.2393 44.3837 46.6875 45.1394 47.1204C45.38 47.2587 45.6207 47.397 45.8687 47.5395C46.2572 47.7616 46.2572 47.7616 46.6537 47.9883C46.9256 48.1444 47.1975 48.3005 47.4693 48.4567C48.0356 48.7821 48.6021 49.1071 49.1687 49.432C50.2559 50.0554 51.342 50.6808 52.4276 51.3069C52.9406 51.6026 53.454 51.8976 53.9676 52.1921C55.1032 52.8444 56.2319 53.5029 57.3434 54.1956C57.5269 54.3086 57.7104 54.4217 57.8995 54.5381C58.2325 54.7445 58.5634 54.9542 58.8916 55.1681C59.3707 55.477 59.3707 55.477 60.1009 55.7813C60.913 55.5292 61.6311 55.134 62.3687 54.7156C62.5791 54.5965 62.7895 54.4775 63.0064 54.3549C63.2319 54.2262 63.4574 54.0975 63.6898 53.9648C63.9271 53.8301 64.1644 53.6954 64.4089 53.5565C66.3379 52.4583 68.2551 51.3404 70.1702 50.2182C72.6572 48.7631 75.1664 47.3477 77.6791 45.9375C77.1285 45.36 76.6299 44.8863 75.9249 44.5111C75.7667 44.4254 75.6086 44.3397 75.4456 44.2514C75.2739 44.1601 75.1021 44.0687 74.9251 43.9746C73.2084 43.0413 71.5131 42.0772 69.8275 41.0889C69.595 40.9531 69.3625 40.8173 69.123 40.6773C68.1033 40.0816 67.084 39.4852 66.067 38.8849C65.3672 38.4718 64.6664 38.0607 63.9649 37.6507C63.5649 37.4162 63.1661 37.1795 62.7674 36.9427C62.5243 36.8009 62.2813 36.6592 62.0309 36.5131C61.8163 36.3867 61.6017 36.2603 61.3806 36.13C60.2767 35.6118 59.6339 35.9277 58.6562 36.5048ZM39.2416 52.0313C39.1106 54.602 39.011 57.172 38.9501 59.7454C38.9209 60.9409 38.8813 62.1341 38.8172 63.3283C38.3216 68.3272 38.3216 68.3272 39.7627 72.9249C41.0679 74.0829 42.5458 74.6978 44.1892 75.2369C45.0681 75.5378 45.7663 75.9485 46.5511 76.4429C47.0052 76.7042 47.4593 76.9655 47.9134 77.2266C49.4742 78.1248 51.0334 79.0254 52.5872 79.9356C52.8478 80.0882 53.1084 80.2408 53.3768 80.3979C53.8764 80.6908 54.3757 80.984 54.8746 81.2778C55.0962 81.4077 55.3179 81.5376 55.5462 81.6714C55.7418 81.7865 55.9375 81.9016 56.139 82.0202C56.5347 82.2844 56.5347 82.2844 56.8197 82.2656C56.8197 75.6141 56.8197 68.9625 56.8197 62.1094C52.5531 59.6475 52.5531 59.6475 48.2846 57.1889C45.8523 55.7889 43.4288 54.3754 41.0197 52.9357C40.8194 52.8164 40.619 52.6971 40.4125 52.5742C40.2365 52.4689 40.0605 52.3636 39.8792 52.2552C39.5186 52.0123 39.5186 52.0123 39.2416 52.0313ZM80.1556 52.6254C79.8231 52.8203 79.8231 52.8203 79.484 53.0191C79.2413 53.162 78.9985 53.3049 78.7484 53.4522C78.2312 53.7553 77.7139 54.0584 77.1966 54.3613C77.0626 54.4397 76.9286 54.5182 76.7906 54.5991C75.1494 55.5598 73.501 56.508 71.8522 57.4558C71.3687 57.7341 70.8914 58.0235 70.4194 58.3208C69.6572 58.7705 68.8851 59.0316 68.0454 59.3071C66.3581 59.9418 64.9147 60.6043 63.8509 62.1094C62.8016 65.0409 63.3012 68.6335 63.4647 71.6784C63.5226 72.872 63.548 74.0663 63.5763 75.2609C63.6363 77.5976 63.732 79.9313 63.8509 82.2656C64.255 82.0457 64.659 81.8256 65.0629 81.6055C65.4004 81.4217 65.4004 81.4217 65.7447 81.2342C66.8127 80.6493 67.8739 80.0525 68.9339 79.4531C69.1639 79.3231 69.3938 79.1931 69.6308 79.0592C73.1601 77.0633 73.1601 77.0633 76.6415 74.9858C77.2445 74.6445 77.8091 74.3688 78.4422 74.0996C80.3547 73.2632 80.3547 73.2632 81.6519 71.715C81.991 70.3445 81.8866 68.9473 81.8182 67.5494C81.8107 67.1009 81.805 66.6523 81.8011 66.2038C81.7859 65.0292 81.7469 63.8567 81.7026 62.6829C81.6617 61.4828 81.6436 60.2823 81.6236 59.0817C81.581 56.7307 81.5131 54.3811 81.4291 52.0313C80.9679 52.0313 80.5391 52.3998 80.1556 52.6254Z" fill="white"/>
<path d="M113.071 60C115.468 60 117.866 60 120.336 60C120.593 73.7739 115.977 86.7081 107.446 97.5C107.255 97.7432 107.065 97.9864 106.869 98.237C103.9 101.885 100.488 105.299 96.6644 108.047C96.3902 108.249 96.1161 108.452 95.8422 108.655C88.716 113.887 80.6451 117.342 71.9964 119.121C71.8252 119.157 71.654 119.192 71.4775 119.228C67.8273 119.933 64.2063 120.095 60.4974 120.088C60.1425 120.088 60.1425 120.088 59.7804 120.088C55.9096 120.078 52.1825 119.861 48.3831 119.062C48.0262 118.989 48.0262 118.989 47.662 118.914C37.3247 116.718 25.4096 111.421 18.4655 103.098C17.8643 102.394 17.2785 101.775 16.5081 101.25C15.7271 101.242 15.1847 101.431 14.4546 101.703C11.7965 102.579 8.9078 101.864 6.43001 100.767C3.93824 99.4355 2.23348 97.4529 1.03939 94.9219C0.912949 94.6572 0.912949 94.6572 0.783956 94.3872C-0.199042 91.8142 -0.0326492 88.1977 0.977132 85.6732C1.46183 84.7008 2.01883 83.8298 2.68001 82.9688C2.78304 82.8246 2.88606 82.6805 2.99221 82.532C4.68318 80.3343 7.32362 79.2297 9.94564 78.5742C13.5147 78.2768 16.9109 79.0007 19.7601 81.2988C21.9548 83.355 23.4656 86.1571 23.6181 89.1833C23.625 89.5532 23.6279 89.9231 23.6273 90.293C23.6275 90.5844 23.6275 90.5844 23.6277 90.8818C23.6025 92.2965 23.3663 93.4985 22.8299 94.8175C22.48 95.6639 22.48 95.6639 22.3675 96.5625C22.7641 97.0806 23.1239 97.4739 23.598 97.9102C23.7921 98.0953 23.7921 98.0953 23.9901 98.2841C34.1237 107.833 47.882 112.982 61.77 112.721C75.0975 112.292 87.6856 106.914 97.2287 97.6278C97.5492 97.3167 97.8741 97.0101 98.1997 96.7044C99.7367 95.2329 101.015 93.5726 102.289 91.875C102.44 91.675 102.44 91.675 102.594 91.471C107.654 84.7292 111.088 76.7809 112.368 68.4375C112.417 68.1426 112.466 67.8478 112.517 67.5439C112.897 65.0394 112.971 62.5293 113.071 60ZM8.10085 87.9877C7.32707 89.0747 7.46055 90.3589 7.60189 91.6406C8.10033 92.977 8.92893 93.7732 10.18 94.4531C11.4522 94.8772 12.7286 94.8775 13.974 94.3506C15.089 93.7115 15.7838 92.8216 16.2738 91.6406C16.4732 90.4506 16.3924 89.4324 16.0247 88.2861C15.1174 87.0276 14.0714 86.1105 12.5238 85.7812C10.5965 85.5299 9.25279 86.5501 8.10085 87.9877Z" fill="white"/>
<path d="M72.2882 0.937495C72.5261 0.986477 72.7641 1.03546 73.0093 1.08593C84.6975 3.56942 95.139 9.51662 103.46 18.0469C103.746 17.9454 103.746 17.9454 104.038 17.8418C107.306 16.7829 110.567 16.6276 113.773 18.0469C116.349 19.4024 118.067 21.0912 119.398 23.6719C119.495 23.8534 119.593 24.035 119.693 24.2221C120.819 26.7153 120.745 30.1648 119.954 32.7539C119.462 33.9768 118.792 35.0506 117.991 36.0937C117.846 36.2874 117.701 36.4811 117.551 36.6806C115.57 39.0121 112.682 40.2519 109.686 40.5469C106.426 40.6611 103.544 39.809 101.072 37.6758C98.7882 35.5064 97.2165 33.17 97.0761 29.9478C97.0305 27.8851 97.0623 26.1476 97.9101 24.2221C98.1211 23.6824 98.1211 23.6824 97.9202 23.1903C91.7287 14.3554 78.3202 9.70348 68.28 7.87925C60.5237 6.53467 52.3645 7.34895 44.8663 9.60937C44.5726 9.69548 44.279 9.78158 43.9764 9.8703C30.9666 13.9324 20.131 23.4975 13.6944 35.3906C13.606 35.554 13.5176 35.7173 13.4265 35.8856C9.88812 42.5651 8.02297 50.1455 7.70321 57.6709C7.66937 58.4395 7.63554 59.2081 7.60067 60C5.20302 60 2.80536 60 0.335048 60C0.0578201 45.1221 5.49648 30.3882 15.7653 19.5135C16.0123 19.2588 16.2595 19.0043 16.5069 18.75C16.6692 18.5816 16.8316 18.4133 16.9988 18.2398C19.2814 15.8802 21.5664 13.629 24.2413 11.7187C24.3864 11.6139 24.5315 11.509 24.681 11.4009C32.1422 6.0364 40.5044 2.36852 49.5538 0.70312C49.7415 0.66543 49.9291 0.62774 50.1225 0.588908C57.1656 -0.788762 65.2863 -0.5332 72.2882 0.937495ZM105.247 25.8984C104.35 27.279 104.211 28.3575 104.398 30C104.812 31.2658 105.679 32.0691 106.741 32.8125C107.926 33.3915 109 33.3567 110.257 33.0469C111.546 32.3775 112.603 31.4003 113.069 30C113.246 28.4386 113.184 27.2308 112.249 25.9351C111.452 25.0553 110.512 24.4621 109.324 24.3191C107.64 24.2625 106.421 24.663 105.247 25.8984Z" fill="white"/>
</g>
<defs>
<clipPath id="clip0_181_1730">
<rect width="120" height="120" fill="white" transform="translate(0.335938)"/>
</clipPath>
</defs>
</svg>
