<svg width="121" height="120" viewBox="0 0 121 120" fill="none" xmlns="http://www.w3.org/2000/svg">
<path d="M14.9237 3.94987C15.0814 3.94901 15.2391 3.94815 15.4016 3.94726C15.9285 3.94468 16.4554 3.94377 16.9824 3.94288C17.3609 3.94141 17.7394 3.93985 18.118 3.93821C19.3601 3.93329 20.6022 3.93085 21.8443 3.92852C22.2729 3.92757 22.7016 3.9266 23.1302 3.92562C25.1451 3.92116 27.16 3.91782 29.1749 3.91587C31.4953 3.91358 33.8156 3.90742 36.1359 3.89794C37.9327 3.89085 39.7295 3.8874 41.5264 3.88662C42.5979 3.88607 43.6694 3.884 44.7409 3.87808C45.7505 3.87259 46.76 3.87164 47.7696 3.87404C48.1379 3.87415 48.5063 3.87269 48.8746 3.86945C52.4619 3.83968 55.3922 4.50184 58.0909 6.99462C59.6421 8.62251 60.7074 10.8012 60.6929 13.0701C60.6921 13.2785 60.6913 13.487 60.6906 13.7018C60.6886 13.9175 60.6866 14.1332 60.6846 14.3555C60.6836 14.5748 60.6825 14.7941 60.6814 15.0201C60.6787 15.5603 60.6748 16.1005 60.67 16.6406C60.9784 16.6352 61.2869 16.6297 61.6047 16.6241C65.603 16.5731 69.1326 16.7902 72.2138 19.6921C74.4699 22.251 74.9691 25.1539 75.0987 28.4473C75.1088 28.6868 75.1189 28.9264 75.1293 29.1733C75.1541 29.7613 75.178 30.3494 75.2012 30.9375C75.3132 30.8231 75.4252 30.7088 75.5405 30.591C75.6878 30.4419 75.835 30.2928 75.9867 30.1391C76.1325 29.991 76.2784 29.8428 76.4286 29.6901C77.0957 29.0553 77.592 28.8327 78.5136 28.8226C79.701 28.8971 80.4626 29.092 81.295 30C81.8444 30.8742 81.8529 31.7182 81.6929 32.7146C81.1283 34.6704 78.6352 36.4534 77.2129 37.8755C76.7951 38.2938 76.3792 38.714 75.9634 39.1342C75.6963 39.402 75.4291 39.6696 75.1618 39.9371C75.0385 40.0621 74.9152 40.1871 74.7882 40.3159C73.8745 41.2239 73.1632 41.7797 71.8614 41.8359C69.5227 41.7282 67.721 39.2328 66.1667 37.6672C65.7515 37.2495 65.3337 36.8342 64.9157 36.4192C64.6487 36.1519 64.3818 35.8844 64.1151 35.6167C63.9913 35.4939 63.8675 35.3711 63.74 35.2445C62.7358 34.2275 61.9776 33.3574 61.959 31.8896C61.9839 31.0538 62.0796 30.541 62.6036 29.8828C63.4495 29.1138 63.8268 28.8687 64.962 28.7402C66.6284 28.9097 67.5151 29.7813 68.6387 30.9375C68.6593 30.1905 68.6717 29.4435 68.6827 28.6963C68.6885 28.4865 68.6944 28.2766 68.7005 28.0604C68.7189 26.3837 68.4844 25.2769 67.3936 23.9502C66.0571 22.8624 64.5765 22.8788 62.9258 22.8223C62.7086 22.8132 62.4914 22.8041 62.2676 22.7948C61.7351 22.7728 61.2026 22.7527 60.67 22.7344C60.6761 22.8675 60.6822 23.0006 60.6886 23.1378C60.8292 26.6603 60.7171 29.5264 58.328 32.3447C55.9655 34.6934 53.2066 35.6495 49.9184 35.6579C49.7649 35.6586 49.6114 35.6593 49.4533 35.66C48.9434 35.662 48.4336 35.6624 47.9238 35.6628C47.5564 35.6638 47.1889 35.665 46.8215 35.6663C45.8263 35.6693 44.8311 35.6709 43.8359 35.6719C43.213 35.6726 42.5902 35.6736 41.9673 35.6746C40.0151 35.6778 38.0629 35.6801 36.1107 35.681C33.8633 35.682 31.6159 35.6861 29.3686 35.6929C27.6273 35.698 25.886 35.7004 24.1447 35.7007C23.1066 35.7009 22.0685 35.7023 21.0304 35.7065C20.053 35.7104 19.0755 35.7109 18.0981 35.7088C17.7413 35.7086 17.3846 35.7096 17.0279 35.712C13.1991 35.7355 10.1443 35.1215 7.31028 32.4573C4.92968 29.9211 4.54486 26.9647 4.56095 23.605C4.56048 23.2885 4.55979 22.972 4.55892 22.6555C4.55789 21.9967 4.55936 21.3378 4.56267 20.6789C4.56668 19.8408 4.56436 19.0028 4.56016 18.1647C4.5576 17.5126 4.55843 16.8605 4.56025 16.2084C4.56094 15.7512 4.55883 15.294 4.55664 14.8368C4.58038 11.812 5.32204 9.40366 7.32035 7.08983C9.63623 5.10479 11.8162 3.96091 14.9237 3.94987ZM11.6123 11.6015C11.4397 11.8082 11.4397 11.8082 11.2635 12.019C10.7289 12.7852 10.7158 13.4757 10.7066 14.3799C10.7036 14.6366 10.7006 14.8932 10.6975 15.1577C10.6958 15.4353 10.694 15.7128 10.6922 15.9988C10.6903 16.2847 10.6885 16.5706 10.6865 16.8651C10.6833 17.471 10.6808 18.0768 10.6789 18.6826C10.6749 19.6065 10.6646 20.5302 10.6542 21.454C10.6519 22.0428 10.6499 22.6317 10.6483 23.2205C10.6442 23.4957 10.6401 23.7709 10.6359 24.0545C10.6408 25.9447 10.8539 27.2933 12.2422 28.6816C13.4075 29.403 14.4685 29.59 15.8261 29.5939C15.9772 29.595 16.1282 29.596 16.2839 29.5971C16.787 29.6001 17.2899 29.5997 17.793 29.5993C18.155 29.6007 18.517 29.6023 18.879 29.6041C19.8601 29.6082 20.8411 29.6093 21.8222 29.6096C22.4357 29.61 23.0492 29.611 23.6627 29.6122C25.8046 29.6166 27.9464 29.6185 30.0883 29.6181C32.0824 29.6178 34.0764 29.6228 36.0705 29.6302C37.7847 29.6363 39.4989 29.6388 41.2131 29.6385C42.236 29.6384 43.2588 29.6397 44.2817 29.6447C45.244 29.6492 46.2061 29.6493 47.1684 29.6459C47.5206 29.6454 47.8729 29.6465 48.2251 29.6493C51.1153 29.6951 51.1153 29.6951 53.5312 28.2379C54.3789 27.2622 54.6054 26.6924 54.6214 25.4259C54.6252 25.1551 54.6289 24.8844 54.6328 24.6054C54.6432 23.3631 54.653 22.1207 54.6583 20.8784C54.6614 20.2236 54.6679 19.569 54.6775 18.9143C54.6913 17.9702 54.6955 17.0263 54.6989 16.0821C54.7069 15.6452 54.7069 15.6452 54.715 15.1993C54.7115 13.7477 54.6305 12.6423 53.8395 11.4051C52.0668 9.81837 50.1153 9.94518 47.8749 9.96052C47.5051 9.95964 47.1354 9.95835 46.7656 9.95669C45.7657 9.95343 44.7658 9.95603 43.7659 9.9599C42.7177 9.96316 41.6695 9.96163 40.6214 9.96081C38.862 9.96017 37.1026 9.96333 35.3433 9.96876C33.3106 9.975 31.2779 9.97541 29.2452 9.97266C27.2872 9.97013 25.3293 9.97158 23.3713 9.9749C22.5391 9.97625 21.7068 9.97623 20.8746 9.97512C19.8946 9.974 18.9147 9.97637 17.9347 9.98143C17.5755 9.98274 17.2163 9.98285 16.8571 9.98168C16.366 9.98028 15.8751 9.98322 15.384 9.98725C14.9722 9.9881 14.9722 9.9881 14.5521 9.98898C13.3091 10.1353 12.3985 10.6352 11.6123 11.6015Z" fill="white"/>
<path d="M40.723 44.2624C40.8856 44.2615 41.0483 44.2607 41.2159 44.2598C41.7608 44.2572 42.3057 44.2563 42.8507 44.2554C43.2415 44.2539 43.6323 44.2524 44.0231 44.2507C45.3068 44.2458 46.5904 44.2434 47.8741 44.241C48.3166 44.2401 48.7591 44.2391 49.2016 44.2381C51.2814 44.2337 53.3611 44.2303 55.4408 44.2284C57.8381 44.2261 60.2353 44.2199 62.6326 44.2104C64.4876 44.2034 66.3425 44.1999 68.1974 44.1991C69.3043 44.1986 70.4111 44.1965 71.518 44.1906C72.5605 44.1851 73.6029 44.1841 74.6454 44.1865C75.0264 44.1867 75.4074 44.1852 75.7885 44.182C79.0877 44.1556 81.8426 44.7424 84.3258 47.0654C86.4336 49.3186 87.2465 51.9285 87.1823 54.9609C87.1802 55.1537 87.178 55.3464 87.1759 55.545C87.1704 56.0144 87.162 56.4838 87.153 56.9531C87.3074 56.9482 87.4619 56.9433 87.621 56.9382C91.9116 56.8199 95.2495 56.868 98.576 59.903C100.252 61.6782 101.21 63.9848 101.29 66.3977C101.299 66.6802 101.309 66.9627 101.319 67.2537C101.329 67.5477 101.338 67.8417 101.347 68.1445C101.357 68.4421 101.368 68.7397 101.378 69.0463C101.403 69.7809 101.427 70.5154 101.45 71.25C101.557 71.137 101.665 71.024 101.776 70.9076C101.991 70.6855 101.991 70.6855 102.212 70.459C102.424 70.2387 102.424 70.2387 102.64 70.014C103.578 69.1717 104.382 69.0384 105.609 69.0646C106.426 69.1821 106.926 69.5507 107.544 70.0781C108.043 70.8274 108.106 71.1211 108.144 71.9971C108.166 72.3138 108.166 72.3138 108.189 72.637C107.91 73.7778 107.181 74.408 106.372 75.2344C106.259 75.3507 106.146 75.467 106.03 75.5868C105.225 76.416 104.413 77.2368 103.596 78.0537C103.161 78.489 102.728 78.9262 102.295 79.3634C102.018 79.6418 101.74 79.9202 101.462 80.1984C101.333 80.3285 101.205 80.4586 101.073 80.5927C100.176 81.4843 99.5885 81.9766 98.3297 82.1191C96.5534 81.9385 95.4063 80.781 94.2025 79.5648C94.0557 79.4186 93.9088 79.2724 93.7575 79.1218C93.4494 78.8142 93.1421 78.5057 92.8358 78.1963C92.3683 77.7251 91.8973 77.2578 91.4257 76.7908C91.1255 76.4901 90.8255 76.1892 90.5258 75.8881C90.3859 75.7496 90.246 75.6111 90.1018 75.4684C89.2103 74.5618 88.4068 73.6585 88.2663 72.3413C88.4219 70.9989 88.7465 70.3127 89.7311 69.375C90.694 69.054 91.5388 68.964 92.5436 69.1406C93.4436 69.6381 94.1637 70.292 94.8873 71.0156C94.9148 70.1905 94.9313 69.3655 94.9459 68.54C94.9577 68.1918 94.9577 68.1918 94.9697 67.8365C94.9896 66.3399 94.9127 65.395 93.9498 64.2187C92.6069 63.1791 91.1383 63.1304 89.4967 63.1055C89.2704 63.0985 89.0441 63.0916 88.811 63.0844C88.2583 63.068 87.7058 63.0556 87.153 63.0469C87.1638 63.3161 87.1747 63.5853 87.1859 63.8626C87.2867 67.3942 86.79 70.1762 84.3405 72.8906C82.3985 74.7397 80.2413 75.7284 77.5673 75.7376C77.4047 75.7385 77.242 75.7393 77.0745 75.7402C76.5295 75.7428 75.9846 75.7437 75.4397 75.7446C75.0488 75.7461 74.658 75.7476 74.2672 75.7493C72.9836 75.7542 71.6999 75.7566 70.4162 75.759C69.9737 75.7599 69.5312 75.7609 69.0887 75.7619C67.009 75.7663 64.9292 75.7697 62.8495 75.7716C60.4522 75.7739 58.055 75.7801 55.6577 75.7895C53.8028 75.7966 51.9478 75.8001 50.0929 75.8009C48.986 75.8014 47.8792 75.8035 46.7723 75.8094C45.7298 75.8149 44.6874 75.8158 43.6449 75.8134C43.2639 75.8133 42.8829 75.8148 42.5019 75.818C39.1699 75.8447 36.3836 75.244 33.9041 72.8659C32.1011 70.9332 31.0875 68.8607 31.0693 66.1728C31.0663 65.8723 31.0633 65.5718 31.0602 65.2622C31.0595 64.9379 31.059 64.6136 31.0586 64.2892C31.0571 63.9515 31.0555 63.6138 31.0539 63.2761C31.0511 62.5694 31.0502 61.8628 31.0505 61.1561C31.0505 60.2581 31.0441 59.3602 31.0361 58.4622C31.0308 57.7647 31.0299 57.0671 31.0301 56.3695C31.0296 56.0389 31.0276 55.7082 31.0239 55.3776C30.9887 51.8744 31.7264 49.4298 34.1476 46.8906C35.9912 45.1339 38.2036 44.271 40.723 44.2624ZM38.2519 51.4453C37.4269 52.5048 37.2023 53.1845 37.1933 54.5085C37.1911 54.7761 37.1888 55.0436 37.1865 55.3193C37.1855 55.6086 37.1845 55.8979 37.1835 56.196C37.1822 56.4934 37.1808 56.7908 37.1794 57.0972C37.1772 57.7271 37.1756 58.3569 37.1748 58.9868C37.1735 59.7914 37.1679 60.596 37.1612 61.4006C37.1558 62.1706 37.1553 62.9406 37.1542 63.7106C37.1513 63.9985 37.1484 64.2864 37.1454 64.583C37.1495 66.1586 37.1734 67.369 38.2858 68.5886C39.4265 69.4768 40.1407 69.6388 41.5659 69.6454C41.7988 69.647 41.7988 69.647 42.0364 69.6486C42.5578 69.6517 43.0792 69.6531 43.6006 69.6546C43.974 69.6564 44.3475 69.6584 44.7209 69.6604C45.9484 69.6665 47.1758 69.6701 48.4033 69.6735C48.826 69.6747 49.2487 69.676 49.6714 69.6772C51.4301 69.6823 53.1887 69.6867 54.9474 69.6893C57.4667 69.6931 59.9859 69.7009 62.5052 69.7143C64.2772 69.7234 66.0491 69.7279 67.821 69.7292C68.879 69.73 69.9369 69.7328 70.9949 69.7404C71.9909 69.7475 72.9867 69.749 73.9826 69.7462C74.3473 69.7462 74.712 69.7481 75.0767 69.7522C77.5696 69.7998 77.5696 69.7998 79.7855 68.7695C81.053 67.518 81.1697 66.1131 81.1895 64.397C81.1876 64.1255 81.1857 63.854 81.1837 63.5742C81.1846 63.29 81.1855 63.0058 81.1865 62.7129C81.1871 62.1141 81.1854 61.5153 81.1814 60.9164C81.1764 60.0029 81.1814 59.0898 81.1874 58.1763C81.1868 57.5928 81.1856 57.0093 81.1837 56.4258C81.1856 56.1542 81.1875 55.8827 81.1895 55.6029C81.1697 53.8876 81.0537 52.4809 79.7851 51.2308C78.2006 50.0726 76.423 50.2291 74.5492 50.2464C74.1749 50.2456 73.8005 50.2443 73.4261 50.2425C72.4136 50.2392 71.4011 50.2431 70.3886 50.2486C69.3273 50.2534 68.266 50.252 67.2047 50.2514C65.4232 50.2514 63.6418 50.2561 61.8604 50.2636C59.8021 50.2722 57.7439 50.2743 55.6856 50.2727C53.7031 50.2712 51.7206 50.2737 49.7381 50.2783C48.8954 50.2802 48.0527 50.2808 47.21 50.2805C46.2177 50.2803 45.2255 50.2836 44.2332 50.2897C43.8695 50.2913 43.5057 50.2918 43.142 50.291C42.6447 50.2902 42.1477 50.2936 41.6504 50.2982C41.2334 50.2995 41.2334 50.2995 40.808 50.3008C39.7975 50.4195 39.0068 50.7568 38.2519 51.4453Z" fill="white"/>
<path d="M71.1657 84.3421C71.3198 84.3414 71.4739 84.3407 71.6326 84.34C72.1459 84.3379 72.6591 84.3376 73.1723 84.3372C73.5417 84.3361 73.911 84.335 74.2803 84.3337C75.2818 84.3306 76.2833 84.3291 77.2849 84.3281C77.9117 84.3274 78.5386 84.3264 79.1654 84.3254C81.13 84.3222 83.0946 84.3199 85.0592 84.319C87.3208 84.3179 89.5823 84.3138 91.8439 84.307C93.5959 84.302 95.348 84.2996 97.1 84.2993C98.1445 84.299 99.189 84.2977 100.234 84.2935C101.218 84.2896 102.202 84.2891 103.186 84.2912C103.544 84.2913 103.903 84.2903 104.262 84.288C108.106 84.2645 111.141 84.8504 114.063 87.4658C116.393 89.9529 116.758 93.0274 116.755 96.2668C116.756 96.5753 116.757 96.8839 116.759 97.2018C116.76 97.8529 116.76 98.5039 116.759 99.155C116.758 99.9823 116.762 100.81 116.767 101.637C116.771 102.435 116.77 103.233 116.77 104.03C116.772 104.324 116.774 104.618 116.777 104.92C116.761 108.018 116.067 110.539 114.019 112.91C111.703 114.895 109.523 116.039 106.416 116.05C106.258 116.051 106.1 116.052 105.938 116.053C105.411 116.055 104.884 116.056 104.357 116.057C103.978 116.059 103.6 116.06 103.221 116.062C101.979 116.067 100.737 116.069 99.495 116.071C99.0664 116.072 98.6378 116.073 98.2091 116.074C96.1942 116.079 94.1793 116.082 92.1644 116.084C89.8441 116.086 87.5238 116.093 85.2034 116.102C83.4066 116.109 81.6098 116.113 79.8129 116.113C78.7414 116.114 77.67 116.116 76.5985 116.122C75.5889 116.127 74.5793 116.128 73.5697 116.126C73.2014 116.126 72.833 116.127 72.4647 116.131C68.8774 116.16 65.9471 115.498 63.2484 113.005C61.5434 111.216 60.6517 108.997 60.6242 106.547C60.6204 106.243 60.6166 105.938 60.6127 105.625C60.6101 105.292 60.6076 104.96 60.6053 104.627C60.604 104.459 60.6028 104.29 60.6015 104.117C60.5952 103.222 60.5907 102.328 60.5873 101.434C60.5842 100.7 60.5777 99.9656 60.5681 99.2312C60.5564 98.3396 60.5507 97.4481 60.5491 96.5563C60.5475 96.2193 60.544 95.8823 60.5383 95.5454C60.4914 92.5911 61.0563 89.9615 63.0113 87.6553C65.2803 85.3996 67.9962 84.3501 71.1657 84.3421ZM67.4809 92.1387C66.8261 93.0513 66.7319 93.4638 66.7179 94.5741C66.7141 94.8448 66.7104 95.1156 66.7065 95.3946C66.6961 96.6369 66.6863 97.8792 66.6811 99.1216C66.6779 99.7764 66.6714 100.431 66.6618 101.086C66.648 102.03 66.6439 102.974 66.6404 103.918C66.6351 104.209 66.6298 104.5 66.6243 104.801C66.6279 106.252 66.7088 107.358 67.4998 108.595C69.2725 110.182 71.224 110.055 73.4644 110.039C73.8342 110.04 74.2039 110.042 74.5737 110.043C75.5737 110.047 76.5735 110.044 77.5735 110.04C78.6216 110.037 79.6698 110.038 80.7179 110.039C82.4773 110.04 84.2367 110.037 85.9961 110.031C88.0288 110.025 90.0614 110.025 92.0941 110.027C94.0521 110.03 96.0101 110.028 97.968 110.025C98.8003 110.024 99.6325 110.024 100.465 110.025C101.445 110.026 102.425 110.024 103.405 110.019C103.764 110.017 104.123 110.017 104.482 110.018C104.973 110.02 105.464 110.017 105.955 110.013C106.23 110.012 106.504 110.012 106.787 110.011C108.03 109.865 108.941 109.365 109.727 108.398C109.842 108.261 109.957 108.123 110.076 107.981C110.61 107.215 110.623 106.524 110.633 105.62C110.636 105.363 110.639 105.107 110.642 104.842C110.644 104.565 110.645 104.287 110.647 104.001C110.65 103.572 110.65 103.572 110.653 103.135C110.656 102.529 110.659 101.923 110.66 101.317C110.664 100.393 110.675 99.4698 110.685 98.546C110.687 97.9571 110.689 97.3683 110.691 96.7795C110.697 96.3666 110.697 96.3666 110.703 95.9455C110.698 94.0552 110.485 92.7067 109.097 91.3183C107.932 90.597 106.871 90.41 105.513 90.4061C105.362 90.405 105.211 90.4039 105.055 90.4028C104.552 90.3999 104.049 90.4002 103.546 90.4006C103.184 90.3992 102.822 90.3976 102.46 90.3959C101.479 90.3917 100.498 90.3906 99.5171 90.3903C98.9036 90.39 98.2901 90.389 97.6766 90.3878C95.5347 90.3834 93.3929 90.3815 91.2511 90.3819C89.257 90.3822 87.2629 90.3772 85.2689 90.3698C83.5546 90.3637 81.8404 90.3612 80.1262 90.3615C79.1033 90.3616 78.0805 90.3603 77.0577 90.3553C76.0954 90.3507 75.1332 90.3507 74.1709 90.3541C73.8187 90.3546 73.4665 90.3535 73.1143 90.3507C70.896 90.3339 69.0373 90.3471 67.4809 92.1387Z" fill="white"/>
<path d="M50.9384 56.8355C51.2302 56.8336 51.2302 56.8336 51.5279 56.8317C52.168 56.8288 52.8078 56.8326 53.4479 56.8368C53.8944 56.8368 54.3409 56.8365 54.7875 56.8358C55.7221 56.8355 56.6567 56.8384 57.5913 56.8438C58.7877 56.8504 59.9839 56.8498 61.1803 56.8468C62.102 56.8452 63.0236 56.847 63.9453 56.8499C64.3864 56.851 64.8274 56.851 65.2685 56.8501C65.8855 56.8494 66.5024 56.8533 67.1194 56.8584C67.3006 56.8574 67.4819 56.8563 67.6686 56.8552C68.79 56.8706 69.5594 57.065 70.5133 57.6562C71.3245 58.5486 71.3235 59.4614 71.2823 60.6161C71.1933 61.3666 71.0233 61.7828 70.5133 62.3437C69.3926 63.0373 68.4289 63.1481 67.141 63.1378C66.9487 63.1391 66.7564 63.1403 66.5584 63.1416C65.9259 63.1447 65.2937 63.1426 64.6612 63.1403C64.22 63.1407 63.7787 63.1414 63.3374 63.1423C62.4138 63.1433 61.4903 63.1418 60.5667 63.1385C59.3845 63.1345 58.2024 63.1368 57.0203 63.141C56.1094 63.1436 55.1986 63.1428 54.2878 63.141C53.852 63.1405 53.4161 63.1411 52.9803 63.1427C52.3706 63.1445 51.761 63.1418 51.1513 63.1378C50.9722 63.1393 50.7932 63.1407 50.6088 63.1422C49.299 63.1267 48.3367 62.8439 47.3541 61.9629C46.7883 60.8312 46.7058 59.7198 47.0904 58.5205C48.117 57.0966 49.2559 56.8145 50.9384 56.8355Z" fill="white"/>
<path d="M80.2247 97.1709C80.5232 97.1685 80.5232 97.1685 80.8278 97.1661C81.4856 97.1618 82.1433 97.1627 82.8011 97.164C83.2588 97.1629 83.7165 97.1617 84.1742 97.1603C85.1337 97.1582 86.0932 97.1588 87.0527 97.1611C88.2811 97.1638 89.5094 97.159 90.7378 97.1522C91.6833 97.1479 92.6286 97.148 93.5741 97.1493C94.0269 97.1493 94.4797 97.1479 94.9326 97.145C95.5665 97.1415 96.2002 97.144 96.8342 97.148C97.0205 97.1458 97.2068 97.1435 97.3988 97.1412C98.6183 97.1573 99.3067 97.4037 100.279 98.2031C100.961 99.188 100.923 100.333 100.747 101.484C100.349 102.321 99.8063 102.792 98.9474 103.158C98.0513 103.39 97.2114 103.427 96.2928 103.424C96.1101 103.425 95.9273 103.426 95.7391 103.427C95.1382 103.431 94.5375 103.43 93.9366 103.43C93.517 103.431 93.0973 103.432 92.6776 103.433C91.7991 103.435 90.9206 103.435 90.0422 103.433C88.9189 103.432 87.7957 103.436 86.6724 103.441C85.806 103.445 84.9396 103.445 84.0732 103.444C83.6591 103.444 83.2451 103.446 82.8311 103.448C82.2511 103.451 81.6713 103.449 81.0914 103.447C80.8373 103.449 80.8373 103.449 80.578 103.452C79.1569 103.437 78.0836 103.111 76.9875 102.188C76.2733 101.308 76.2794 100.47 76.3723 99.375C77.3479 97.5631 78.2206 97.1596 80.2247 97.1709Z" fill="white"/>
<path d="M25.0465 16.5762C25.2292 16.575 25.412 16.5738 25.6002 16.5726C26.2011 16.5694 26.8018 16.5696 27.4027 16.5701C27.8224 16.5692 28.242 16.5682 28.6617 16.5671C29.5402 16.5653 30.4187 16.5654 31.2971 16.5666C32.4204 16.568 33.5436 16.564 34.6669 16.5586C35.5333 16.5551 36.3997 16.5549 37.2661 16.5557C37.6802 16.5555 38.0942 16.5543 38.5082 16.5519C39.0882 16.549 39.668 16.5506 40.2479 16.5534C40.502 16.5507 40.502 16.5507 40.7613 16.5479C42.1756 16.5625 43.1873 16.9278 44.3518 17.7246C44.9281 18.5668 45.0109 19.3814 44.9671 20.3906C44.5879 21.5069 44.0798 22.1031 43.0921 22.7344C42.3945 22.8252 41.7846 22.8628 41.088 22.8557C40.8889 22.8573 40.6899 22.859 40.4847 22.8607C39.8282 22.8648 39.1719 22.8621 38.5153 22.8589C38.058 22.8595 37.6006 22.8604 37.1432 22.8616C36.1851 22.863 35.2271 22.861 34.2689 22.8566C33.0423 22.8513 31.8159 22.8543 30.5893 22.8599C29.6449 22.8633 28.7005 22.8622 27.7561 22.8598C27.3039 22.8592 26.8517 22.86 26.3996 22.8621C25.7667 22.8645 25.1342 22.8609 24.5014 22.8557C24.2225 22.8585 24.2225 22.8585 23.9379 22.8614C22.7209 22.8429 22.0254 22.6018 21.0608 21.7969C20.3621 20.7488 20.4219 19.7437 20.592 18.5156C20.9813 17.6669 21.5265 17.21 22.3919 16.8433C23.288 16.6099 24.1276 16.5731 25.0465 16.5762Z" fill="white"/>
</svg>
