<svg width="121" height="120" viewBox="0 0 121 120" fill="none" xmlns="http://www.w3.org/2000/svg">
<g clip-path="url(#clip0_160_20)">
<path d="M70.0761 -0.146478C70.8315 0.109061 71.0967 0.471907 71.4467 1.17188C71.5785 1.86036 71.5785 1.86036 71.4467 2.57813C70.6816 3.60657 69.8429 4.38196 68.8099 5.14161C68.5416 5.34328 68.2734 5.545 68.0052 5.74677C67.8741 5.84455 67.743 5.94232 67.608 6.04306C67.0608 6.45345 66.5217 6.87386 65.9828 7.29493C65.8145 7.42605 65.6462 7.55717 65.4728 7.69227C65.3559 7.78351 65.239 7.87475 65.1185 7.96876C65.4865 8.33672 65.8991 8.30261 66.4085 8.37342C71.54 9.12916 76.3492 10.4668 81.056 12.6563C81.219 12.7314 81.3819 12.8066 81.5498 12.8841C85.0682 14.5253 88.3316 16.5646 91.3685 18.9844C91.6003 19.1681 91.832 19.3518 92.0707 19.541C95.7405 22.5151 98.9546 25.913 101.681 29.7656C101.783 29.907 101.886 30.0483 101.992 30.194C109.788 40.9877 112.667 54.9486 110.707 68.0303C108.429 81.4302 101.329 93.9276 90.1967 101.953C90.0422 102.065 89.8877 102.176 89.7285 102.292C83.6798 106.608 76.858 109.631 69.5863 111.138C69.4135 111.174 69.2407 111.21 69.0626 111.248C65.0261 112.037 61.0069 112.101 56.9082 112.099C56.3041 112.101 55.7 112.102 55.096 112.104C53.6364 112.108 52.1769 112.109 50.7174 112.11C49.5315 112.11 48.3457 112.111 47.1598 112.112C43.7914 112.116 40.4231 112.119 37.0547 112.118C36.8739 112.118 36.6931 112.118 36.5068 112.118C36.3258 112.118 36.1448 112.118 35.9583 112.118C33.0144 112.118 30.0705 112.122 27.1266 112.129C24.0977 112.136 21.0688 112.139 18.0398 112.139C16.3416 112.138 14.6435 112.14 12.9453 112.145C11.352 112.149 9.75877 112.149 8.16548 112.146C7.58006 112.145 6.99463 112.146 6.40922 112.149C5.61223 112.153 4.81546 112.151 4.01847 112.147C3.66849 112.151 3.66849 112.151 3.31144 112.154C1.751 112.139 1.751 112.139 0.991476 111.588C0.619962 111.025 0.53242 110.71 0.533569 110.039C0.528433 109.863 0.523297 109.686 0.518005 109.504C0.74843 108.691 1.11826 108.485 1.83728 108.047C2.643 107.909 3.43951 107.922 4.25535 107.93C4.50139 107.929 4.74743 107.927 5.00093 107.926C5.82689 107.923 6.65269 107.927 7.47865 107.93C8.07043 107.929 8.66222 107.928 9.25401 107.926C10.53 107.923 11.8059 107.923 13.0818 107.926C14.9325 107.929 16.7831 107.927 18.6337 107.923C21.6441 107.917 24.6545 107.914 27.6649 107.915C27.845 107.915 28.0252 107.915 28.2108 107.915C28.9404 107.915 29.67 107.915 30.3996 107.915C32.3988 107.915 34.398 107.915 36.3972 107.914C36.6652 107.914 36.6652 107.914 36.9386 107.914C39.9327 107.913 42.9269 107.909 45.9211 107.904C47.7632 107.9 49.6052 107.9 51.4473 107.902C52.8658 107.904 54.2842 107.903 55.7027 107.9C56.2794 107.899 56.8562 107.9 57.4329 107.902C71.2231 107.946 83.6473 103.212 93.526 93.4784C96.223 90.7117 98.6228 87.5072 100.509 84.1406C100.606 83.9705 100.703 83.8004 100.804 83.6252C104.695 76.7583 106.717 69.2753 107.072 61.4063C107.082 61.1893 107.092 60.9724 107.102 60.7489C107.338 49.8693 103.57 38.9296 96.7592 30.4688C96.5676 30.2295 96.3761 29.9902 96.1787 29.7437C93.3951 26.3296 90.2758 23.4038 86.681 20.8594C86.5462 20.7635 86.4115 20.6676 86.2726 20.5688C80.3485 16.4161 73.2741 13.4444 66.056 12.6563C66.2711 12.8233 66.4863 12.9904 66.7079 13.1625C71.374 16.799 71.374 16.799 71.5345 18.0029C71.4467 18.75 71.4467 18.75 70.9633 19.4238C70.0948 20.0521 69.6891 20.0287 68.6342 19.9219C67.9741 19.5511 67.9741 19.5511 67.3304 19.0283C67.1515 18.8861 67.1515 18.8861 66.9689 18.741C66.714 18.538 66.4605 18.3334 66.2081 18.1272C65.7002 17.7136 65.184 17.3112 64.6676 16.9083C64.2601 16.5898 63.8543 16.2693 63.4486 15.9485C62.7779 15.4194 62.1034 14.8956 61.4271 14.3738C61.2376 14.2273 61.048 14.0808 60.8527 13.9299C60.4814 13.6432 60.1096 13.3569 59.7374 13.0713C57.5768 11.4009 57.5768 11.4009 57.1498 10.5469C57.0581 9.72211 57.0515 9.28845 57.5169 8.58857C58.2082 7.83739 58.9603 7.27381 59.7865 6.67969C61.1448 5.68347 62.4695 4.6583 63.7709 3.58887C64.0824 3.33548 64.394 3.08218 64.7056 2.82899C65.1363 2.4788 65.5656 2.12761 65.9905 1.77041C68.4909 -0.330603 68.4909 -0.330603 70.0761 -0.146478Z" fill="white"/>
<path d="M61.6029 26.9531C62.2327 27.2504 62.2327 27.2504 62.8755 27.6297C63.2375 27.8411 63.2375 27.8411 63.6069 28.0567C63.864 28.2098 64.1212 28.3628 64.3861 28.5205C64.6588 28.6807 64.9317 28.8406 65.2047 29.0003C65.765 29.3286 66.3247 29.658 66.8837 29.9886C68.0795 30.6955 69.2798 31.3948 70.4799 32.0947C70.7073 32.2277 70.9348 32.3607 71.1691 32.4977C73.1114 33.632 75.0638 34.7481 77.0181 35.8615C79.2396 37.1274 81.4522 38.4081 83.6575 39.7023C84.9683 40.4706 86.2866 41.2222 87.6185 41.9531C87.6185 42.1078 87.6185 42.2625 87.6185 42.4219C87.4492 42.5183 87.2798 42.6147 87.1054 42.714C83.9036 44.5379 80.7067 46.3691 77.5261 48.2297C75.8252 49.2244 74.1205 50.2122 72.4135 51.1963C72.163 51.3407 71.9125 51.4851 71.6544 51.6339C70.6074 52.2373 69.5603 52.8404 68.5131 53.4432C67.9607 53.7612 67.4084 54.0793 66.8561 54.3975C66.3396 54.695 65.823 54.9924 65.3063 55.2896C65.0703 55.4255 64.8343 55.5615 64.5912 55.7016C64.3649 55.8309 64.1386 55.9603 63.9055 56.0936C63.4601 56.3565 63.0211 56.6305 62.5889 56.9146C62.3844 57.0478 62.1799 57.1811 61.9691 57.3184C61.7906 57.4397 61.612 57.561 61.428 57.686C60.8998 57.8906 60.8998 57.8906 60.3305 57.7384C59.6775 57.3954 59.0316 57.0471 58.3922 56.6794C58.1312 56.5298 57.8703 56.3802 57.6015 56.2261C57.3191 56.0632 57.0367 55.9003 56.7543 55.7373C56.4597 55.568 56.1651 55.3988 55.8704 55.2297C55.1139 54.7951 54.3579 54.3596 53.6022 53.9237C52.9321 53.5374 52.2618 53.1515 51.5916 52.7655C50.3365 52.0422 49.0821 51.3177 47.8279 50.593C47.0634 50.1515 46.2985 49.7107 45.5336 49.27C42.7467 47.6645 39.9636 46.0529 37.187 44.4296C36.0321 43.7544 34.8753 43.083 33.7123 42.4219C33.7123 42.2672 33.7123 42.1125 33.7123 41.9531C33.8603 41.8709 34.0084 41.7887 34.1609 41.704C37.3842 39.9118 40.5874 38.0904 43.7693 36.2256C45.2472 35.3597 46.7302 34.5027 48.2142 33.6475C48.465 33.5029 48.7158 33.3584 48.9742 33.2094C49.485 32.9151 49.9958 32.6208 50.5067 32.3265C51.5875 31.7038 52.6682 31.0809 53.7487 30.4577C54.2592 30.1633 54.7696 29.869 55.2802 29.5748C55.5146 29.4396 55.7491 29.3044 55.9907 29.165C56.2197 29.0342 56.4486 28.9034 56.6845 28.7686C57.1738 28.4824 57.6576 28.1868 58.1369 27.8842C58.3822 27.7316 58.6274 27.5791 58.8801 27.4219C59.0992 27.2817 59.3183 27.1415 59.544 26.9971C60.3628 26.6479 60.7544 26.7067 61.6029 26.9531Z" fill="white"/>
<path d="M89.4935 45.4688C89.6253 49.5066 89.7243 53.5438 89.785 57.5833C89.8139 59.4594 89.8533 61.3341 89.9179 63.2093C89.9742 64.8452 90.0103 66.4801 90.0228 68.117C90.0301 68.9831 90.047 69.8465 90.0883 70.7118C90.3287 75.9523 90.3287 75.9523 88.9434 77.4828C87.5931 78.5408 86.1166 79.2446 84.5315 79.8816C83.6604 80.2425 82.8869 80.693 82.0814 81.1816C81.5835 81.465 81.0854 81.7483 80.5873 82.0312C78.3112 83.3274 76.0436 84.6372 73.783 85.9602C71.7519 87.1484 69.7139 88.3243 67.6737 89.4965C67.4353 89.6337 67.197 89.7708 66.9514 89.9121C66.7228 90.0435 66.4942 90.175 66.2586 90.3104C65.4039 90.8104 64.5629 91.3317 63.725 91.8594C63.2435 92.1094 63.2435 92.1094 62.5404 92.1094C62.5404 81.8227 62.5404 71.5359 62.5404 60.9375C64.706 59.7 66.8717 58.4625 69.1029 57.1875C71.2148 55.9574 71.2148 55.9574 73.3253 54.7247C74.7956 53.8655 76.2701 53.0136 77.7455 52.1631C77.996 52.0187 78.2465 51.8743 78.5046 51.7255C79.5515 51.1221 80.5986 50.519 81.6459 49.9162C82.1982 49.5982 82.7506 49.2801 83.3028 48.9619C83.8193 48.6643 84.3359 48.367 84.8526 48.0698C86.1857 47.3017 87.5099 46.5219 88.8224 45.7192C89.2592 45.4688 89.2592 45.4688 89.4935 45.4688Z" fill="white"/>
<path d="M31.8368 45.4688C32.402 45.7691 32.9671 46.0698 33.5321 46.3705C33.7711 46.4974 33.7711 46.4974 34.0148 46.627C35.0866 47.1977 36.1431 47.7868 37.1835 48.4131C38.8653 49.4129 40.5565 50.3955 42.2519 51.3721C42.5112 51.5215 42.7705 51.6709 43.0377 51.8249C43.5701 52.1315 44.1025 52.4382 44.6349 52.7448C45.9161 53.4828 47.1968 54.2219 48.4775 54.9609C49.9159 55.7909 51.3543 56.6208 52.7931 57.45C53.3535 57.773 53.9138 58.096 54.4741 58.4191C54.8688 58.6466 55.2636 58.874 55.6584 59.1014C56.018 59.3087 56.018 59.3087 56.3849 59.5203C56.5953 59.6415 56.8056 59.7627 57.0224 59.8876C57.219 60.002 57.4155 60.1165 57.6181 60.2344C57.8208 60.3314 58.0236 60.4284 58.2325 60.5284C58.79 60.9375 58.79 60.9375 58.9342 61.5108C58.9331 61.7401 58.932 61.9693 58.9309 62.2055C58.9325 62.4687 58.9341 62.732 58.9358 63.0032C58.9316 63.2921 58.9273 63.5811 58.923 63.8788C58.9232 64.1829 58.9233 64.4871 58.9235 64.8004C58.9239 65.6348 58.917 66.469 58.9088 67.3033C58.9015 68.1751 58.9008 69.0468 58.8994 69.9186C58.8957 71.5697 58.8861 73.2206 58.8744 74.8715C58.8613 76.7511 58.8548 78.6306 58.8489 80.5101C58.8367 84.3766 58.8161 88.243 58.79 92.1094C57.9979 91.927 57.3876 91.6501 56.6769 91.2497C56.4446 91.1193 56.2123 90.989 55.9729 90.8547C55.7231 90.7128 55.4732 90.571 55.2158 90.4248C54.9548 90.2777 54.6939 90.1305 54.4251 89.9789C52.2034 88.7219 49.9976 87.4383 47.7954 86.1475C46.3175 85.2815 44.8346 84.4246 43.3505 83.5693C43.1001 83.425 42.8496 83.2806 42.5916 83.1318C41.5446 82.5284 40.4974 81.9253 39.4501 81.3224C38.8978 81.0044 38.3454 80.6863 37.7931 80.3681C37.2767 80.0706 36.7601 79.7732 36.2434 79.4761C36.0074 79.3401 35.7714 79.2041 35.5282 79.064C35.324 78.9465 35.1198 78.8289 34.9094 78.7078C34.6689 78.5671 34.4284 78.4263 34.1806 78.2812C33.991 78.2013 33.8014 78.1213 33.6061 78.0389C32.9158 77.7113 32.3941 77.4004 31.8368 76.875C31.4944 75.8641 31.5399 74.8911 31.5708 73.8324C31.5704 73.5258 31.5701 73.2193 31.5697 72.9035C31.5691 72.0655 31.5828 71.2284 31.5992 70.3906C31.6139 69.5142 31.6152 68.6377 31.618 67.7612C31.6253 66.1026 31.6445 64.4444 31.668 62.7859C31.6943 60.8974 31.7071 59.0088 31.7189 57.1201C31.7434 53.2361 31.7846 49.3525 31.8368 45.4688Z" fill="white"/>
<path d="M47.7606 9.94629C48.3723 10.7063 48.3833 11.1861 48.3996 12.1362C48.1618 12.9308 47.7685 13.1549 47.0721 13.5937C46.4108 13.8554 45.7349 14.0462 45.0506 14.2383C37.2924 16.563 30.908 20.7384 25.0409 26.25C24.8919 26.3863 24.743 26.5225 24.5895 26.6629C21.4042 29.6809 18.9 33.672 16.8377 37.5C16.7595 37.6434 16.6812 37.7868 16.6006 37.9345C10.9896 48.3048 9.6533 61.2029 12.8498 72.5372C15.6289 81.844 20.6185 90.3772 28.1518 96.655C28.5939 97.066 28.938 97.4572 29.2596 97.9688C29.2434 98.8732 29.1481 99.4251 28.6444 100.181C27.8227 100.721 27.4186 100.722 26.4471 100.547C24.7898 99.4978 23.398 98.049 22.0233 96.665C21.8172 96.4577 21.6112 96.2503 21.3989 96.0366C19.8163 94.4245 18.3742 92.782 17.0721 90.9375C16.9625 90.785 16.8528 90.6326 16.7399 90.4755C8.81269 79.3733 5.48171 65.4853 7.57728 51.997C9.41419 41.3121 14.0131 31.7441 21.5252 23.9062C21.6548 23.769 21.7844 23.6318 21.9179 23.4905C26.1076 19.0704 40.9345 6.60589 47.7606 9.94629Z" fill="white"/>
<path d="M109.415 100.078C109.994 100.423 110.415 100.724 110.91 101.162C111.194 101.4 111.479 101.637 111.765 101.874C111.915 102.001 112.065 102.128 112.219 102.259C113.063 102.962 113.937 103.627 114.806 104.297C115.163 104.574 115.519 104.851 115.875 105.128C116.049 105.263 116.222 105.398 116.401 105.537C117.198 106.158 117.995 106.779 118.79 107.402C118.927 107.509 119.063 107.615 119.203 107.725C120.622 108.838 120.622 108.838 120.794 109.417C120.878 110.335 120.833 110.882 120.249 111.619C119.629 112.183 118.989 112.696 118.322 113.203C118.095 113.381 117.869 113.558 117.636 113.741C117.141 114.126 116.645 114.508 116.145 114.886C114.934 115.802 113.741 116.741 112.546 117.677C112.051 118.064 111.554 118.447 111.056 118.828C110.83 119.003 110.83 119.003 110.6 119.182C109.865 119.734 109.353 120.083 108.434 120.132C107.54 120 107.54 120 106.954 119.648C106.558 118.988 106.481 118.445 106.456 117.679C106.852 116.357 108.477 115.426 109.533 114.595C109.685 114.474 109.838 114.353 109.995 114.228C110.281 114.001 110.567 113.775 110.853 113.549C111.391 113.123 111.927 112.694 112.462 112.266C112.206 112.265 111.95 112.264 111.686 112.263C109.271 112.254 106.857 112.241 104.443 112.223C103.202 112.213 101.961 112.206 100.72 112.202C99.5224 112.199 98.325 112.191 97.1275 112.179C96.6704 112.176 96.2132 112.174 95.7561 112.174C95.1163 112.173 94.4768 112.167 93.837 112.159C93.6475 112.16 93.458 112.162 93.2628 112.163C92.4274 112.147 91.9358 112.105 91.2573 111.598C90.7896 110.939 90.6819 110.495 90.6654 109.688C91.0414 108.86 91.308 108.556 92.0717 108.047C92.7295 107.997 93.365 107.974 94.0233 107.972C94.2223 107.97 94.4212 107.967 94.6263 107.965C95.2844 107.958 95.9426 107.954 96.6008 107.95C97.0569 107.945 97.5131 107.941 97.9692 107.936C99.1702 107.924 100.371 107.915 101.572 107.906C102.798 107.897 104.023 107.885 105.248 107.873C107.653 107.85 110.058 107.83 112.462 107.813C112.241 107.639 112.02 107.465 111.792 107.287C111.497 107.055 111.202 106.823 110.907 106.591C110.689 106.42 110.689 106.42 110.467 106.246C106.615 103.22 106.615 103.22 106.547 102.674C106.501 101.19 106.501 101.19 106.954 100.415C107.765 99.9488 108.511 99.9339 109.415 100.078Z" fill="white"/>
</g>
<defs>
<clipPath id="clip0_160_20">
<rect width="120" height="120" fill="white" transform="translate(0.665405)"/>
</clipPath>
</defs>
</svg>
