<svg width="121" height="120" viewBox="0 0 121 120" fill="none" xmlns="http://www.w3.org/2000/svg">
<g clip-path="url(#clip0_6317_38059)">
<path d="M63.7754 -0.0984588C64.2546 -0.100181 64.7338 -0.102194 65.213 -0.104474C66.5089 -0.109663 67.8048 -0.110369 69.1007 -0.109924C70.1857 -0.109896 71.2707 -0.111907 72.3556 -0.113856C74.9175 -0.118358 77.4793 -0.119042 80.0411 -0.117456C82.6763 -0.115901 85.3113 -0.121255 87.9464 -0.129951C90.2154 -0.137166 92.4844 -0.139806 94.7534 -0.138896C96.1057 -0.138413 97.4578 -0.139665 98.8101 -0.145433C100.083 -0.150684 101.356 -0.150186 102.629 -0.14545C103.093 -0.144657 103.558 -0.145819 104.022 -0.149196C109.127 -0.183725 112.967 1.0431 116.68 4.68746C116.83 4.83157 116.98 4.97569 117.134 5.12417C119.861 7.96669 120.773 11.7379 120.763 15.5595C120.765 15.8625 120.767 16.1654 120.769 16.4776C120.774 17.3014 120.775 18.1251 120.775 18.9489C120.775 19.6407 120.777 20.3325 120.779 21.0243C120.783 22.6591 120.784 24.2939 120.782 25.9287C120.781 27.6052 120.786 29.2817 120.795 30.9583C120.802 32.4062 120.804 33.8541 120.804 35.3021C120.803 36.1631 120.804 37.0241 120.81 37.8851C120.847 43.8103 120.277 48.1188 115.977 52.5C115.761 52.7247 115.761 52.7247 115.541 52.9541C112.397 55.9695 108.475 56.584 104.307 56.5091C103.978 56.5013 103.65 56.4933 103.321 56.4843C103.429 56.7001 103.536 56.9158 103.647 57.138C104.631 59.1539 105.342 61.1026 105.899 63.2812C106.082 63.2822 106.265 63.2831 106.453 63.2841C107.299 63.2919 108.144 63.3085 108.99 63.3252C109.421 63.3272 109.421 63.3272 109.861 63.3293C113.152 63.4074 115.634 64.4504 118.01 66.6989C119.801 68.5963 120.695 70.932 120.71 73.498C120.712 73.6761 120.714 73.8542 120.716 74.0377C120.722 74.6267 120.725 75.2157 120.729 75.8047C120.731 76.108 120.731 76.108 120.733 76.4174C120.739 77.4893 120.743 78.5611 120.747 79.6329C120.75 80.5152 120.756 81.3973 120.766 82.2795C120.778 83.3489 120.783 84.4182 120.785 85.4877C120.787 85.8928 120.79 86.2978 120.796 86.7028C120.845 90.4613 120.142 93.2053 117.481 96.0168C115.683 97.7147 113.388 98.7059 110.935 98.6947C110.641 98.694 110.348 98.6932 110.046 98.6924C109.741 98.6905 109.436 98.6885 109.122 98.6865C108.659 98.6849 108.659 98.6849 108.186 98.6833C107.424 98.6805 106.661 98.6767 105.899 98.6718C105.851 98.9092 105.803 99.1465 105.754 99.391C104.926 103.35 103.155 107.089 100.508 110.156C100.337 110.359 100.166 110.562 99.9903 110.771C95.6091 115.814 89.5883 119.171 82.9304 120C82.3068 120.022 81.6895 120.034 81.0661 120.033C80.8854 120.034 80.7046 120.034 80.5184 120.035C79.9163 120.037 79.3142 120.037 78.7121 120.038C78.2788 120.039 77.8455 120.04 77.4123 120.041C76.2374 120.044 75.0625 120.046 73.8876 120.047C73.1523 120.048 72.417 120.049 71.6816 120.05C69.3771 120.053 67.0727 120.055 64.7682 120.056C62.1152 120.057 59.4622 120.061 56.8092 120.068C54.754 120.073 52.6988 120.075 50.6435 120.076C49.4182 120.076 48.193 120.077 46.9677 120.081C45.8134 120.085 44.6592 120.086 43.5049 120.084C43.0839 120.084 42.6628 120.085 42.2417 120.087C35.2731 120.123 28.8728 117.856 23.6335 113.203C23.425 113.018 23.2166 112.833 23.0018 112.643C19.0543 108.906 16.4402 104 15.4304 98.6718C15.2475 98.678 15.0647 98.6841 14.8763 98.6904C14.0308 98.7151 13.1853 98.7301 12.3395 98.7451C12.0521 98.7549 11.7646 98.7647 11.4684 98.7748C8.15956 98.8185 5.69888 97.7398 3.31977 95.4885C1.52849 93.5911 0.634862 91.2554 0.619536 88.6894C0.61762 88.5113 0.615703 88.3332 0.613728 88.1497C0.607919 87.5607 0.604035 86.9717 0.600653 86.3827C0.599406 86.1805 0.598155 85.9783 0.59687 85.77C0.590609 84.6982 0.586071 83.6263 0.582686 82.5545C0.579571 81.6722 0.573062 80.7901 0.56346 79.9079C0.551823 78.8385 0.546083 77.7692 0.544427 76.6997C0.542866 76.2947 0.539335 75.8896 0.533677 75.4846C0.484354 71.738 1.17307 68.9429 3.86451 66.1624C4.88391 65.2149 6.49347 63.9843 7.93037 63.9843C7.85302 56.714 7.77568 49.4437 7.69599 41.9531C6.53583 41.373 6.53583 41.373 5.35224 40.7812C3.04166 39.1339 1.58882 36.9588 0.899115 34.2187C0.797267 33.4539 0.775997 32.7045 0.781928 31.9336C0.783269 31.7292 0.784609 31.5249 0.785991 31.3144C0.868191 28.3178 2.05395 26.1268 4.0824 23.9831C6.55046 21.6532 9.35166 21.1946 12.5849 21.2484C15.4765 21.3761 17.7487 22.828 19.6931 24.8877C21.9744 27.6915 22.3046 30.7466 21.9929 34.2187C21.3773 36.968 19.7721 39.1164 17.5397 40.7812C16.7663 41.1679 15.9929 41.5546 15.196 41.9531C15.1186 49.0687 15.0413 56.1843 14.9616 63.5156C15.1163 63.4382 15.271 63.3609 15.4304 63.2812C15.6083 62.7452 15.7642 62.2138 15.9138 61.6699C16.9384 58.2077 18.4709 55.0203 20.821 52.2656C21.0779 51.9601 21.0779 51.9601 21.3401 51.6485C25.7199 46.6145 31.7427 43.2412 38.3991 42.4218C39.051 42.3929 39.7013 42.3943 40.3538 42.3989C40.6234 42.3994 40.6234 42.3994 40.8985 42.4C41.4667 42.4013 42.035 42.4042 42.6032 42.4072C42.9909 42.4084 43.3787 42.4094 43.7664 42.4104C44.7117 42.413 45.657 42.417 46.6022 42.4218C46.6006 42.1951 46.6006 42.1951 46.599 41.9638C46.573 38.2697 46.5536 34.5757 46.5415 30.8816C46.5355 29.0951 46.5273 27.3086 46.5138 25.5221C46.5021 23.9633 46.4946 22.4045 46.492 20.8457C46.4905 20.0218 46.487 19.198 46.4783 18.3742C46.4233 12.8973 46.8563 8.6672 50.7578 4.52633C50.9334 4.34747 51.1089 4.16861 51.2897 3.98434C51.4339 3.83448 51.578 3.68463 51.7264 3.53023C55.1074 0.286826 59.3418 -0.10601 63.7754 -0.0984588ZM55.5085 10.0781C53.9192 12.1583 53.6034 14.3741 53.6053 16.9368C53.6051 17.0973 53.6049 17.2578 53.6047 17.4231C53.6043 17.955 53.6056 18.4868 53.6069 19.0187C53.607 19.4023 53.6069 19.7858 53.6068 20.1694C53.6067 21.2065 53.6081 22.2436 53.6097 23.2808C53.6112 24.3662 53.6113 25.4516 53.6116 26.537C53.6123 28.5905 53.6143 30.644 53.6166 32.6975C53.6192 35.0362 53.6205 37.3748 53.6217 39.7135C53.6241 44.5225 53.6283 49.3316 53.6335 54.1406C54.0816 53.9307 54.5296 53.7206 54.9771 53.5093C55.3789 53.3207 55.7818 53.1343 56.1856 52.9499C57.199 52.4809 58.159 52.0045 59.0851 51.3786C62.9202 48.9005 67.3889 49.371 71.778 49.4179C72.953 49.4278 74.1278 49.4239 75.3028 49.4214C77.5234 49.4187 79.7437 49.4275 81.9643 49.4408C85.2228 49.4599 88.4813 49.4624 91.7399 49.4639C92.2226 49.4642 92.7053 49.4644 93.188 49.4646C93.4238 49.4647 93.6596 49.4648 93.9025 49.4649C95.2962 49.4659 96.6898 49.4704 98.0835 49.4782C98.9509 49.4829 99.8184 49.4857 100.686 49.4882C101.086 49.4898 101.486 49.4922 101.886 49.4956C105.494 49.5253 108.563 49.3975 111.331 46.8576C113.531 44.5347 113.669 41.7296 113.668 38.6899C113.668 38.44 113.669 38.1901 113.67 37.9327C113.672 37.1106 113.673 36.2886 113.673 35.4666C113.674 34.8922 113.674 34.3177 113.675 33.7433C113.677 32.5406 113.677 31.3378 113.677 30.1351C113.677 28.5984 113.68 27.0617 113.684 25.525C113.687 24.3389 113.687 23.1527 113.687 21.9666C113.687 21.4003 113.688 20.8339 113.69 20.2676C113.693 19.4735 113.692 18.6795 113.69 17.8854C113.692 17.6544 113.693 17.4233 113.694 17.1853C113.68 13.9926 113.089 11.5174 110.882 9.15157C108.212 6.73512 104.548 6.96206 101.177 6.97056C100.751 6.96992 100.325 6.96909 99.8998 6.96807C98.7502 6.96594 97.6006 6.96675 96.451 6.96825C95.2442 6.96944 94.0374 6.96833 92.8305 6.9676C90.8044 6.96674 88.7783 6.96786 86.7522 6.9701C84.4145 6.97265 82.0768 6.97182 79.7391 6.96924C77.7269 6.96711 75.7147 6.96682 73.7025 6.96804C72.5029 6.96877 71.3034 6.96888 70.1038 6.96732C68.9757 6.96596 67.8476 6.96692 66.7195 6.96962C66.3071 6.97023 65.8947 6.97006 65.4823 6.96902C61.604 6.96015 58.3134 7.11702 55.5085 10.0781ZM8.42841 30.0293C8.03236 31.0414 8.01014 31.975 8.16474 33.0468C8.67169 34.0795 9.19524 34.734 10.2741 35.1562C11.4561 35.3166 12.3438 35.2907 13.4235 34.7607C14.2108 34.0502 14.6554 33.5762 14.8014 32.5003C14.8637 31.1602 14.7199 30.3275 13.7897 29.2968C12.8904 28.5033 12.0005 28.4735 10.8454 28.5113C9.75257 28.6689 9.13695 29.2262 8.42841 30.0293ZM27.7854 55.3418C22.4777 60.9626 21.9145 67.492 21.9306 74.8169C21.9303 75.3314 21.9298 75.846 21.9293 76.3606C21.9286 77.4322 21.9295 78.5037 21.9318 79.5752C21.9344 80.9367 21.9329 82.2981 21.9301 83.6596C21.9284 84.7202 21.9289 85.7807 21.9301 86.8412C21.9304 87.3427 21.9301 87.8443 21.929 88.3458C21.8623 93.9668 21.8623 93.9668 23.0622 99.4189C23.1528 99.677 23.1528 99.677 23.2451 99.9404C25.1528 105.101 28.9962 108.957 33.9515 111.271C35.7807 112.035 37.5748 112.529 39.5458 112.756C39.7192 112.776 39.8925 112.796 40.0711 112.817C41.8989 113.013 43.7181 113.035 45.5549 113.029C45.9231 113.03 46.2913 113.031 46.6595 113.032C47.6464 113.034 48.6332 113.033 49.6201 113.032C50.6611 113.03 51.7021 113.032 52.7431 113.032C54.4901 113.033 56.2371 113.032 57.9841 113.03C59.9935 113.027 62.0029 113.028 64.0122 113.031C65.7486 113.033 67.485 113.033 69.2214 113.032C70.2536 113.031 71.2858 113.031 72.318 113.033C73.2891 113.034 74.2603 113.033 75.2314 113.03C75.5842 113.03 75.9371 113.03 76.2899 113.031C79.439 113.039 82.7774 112.97 85.7722 111.899C85.9453 111.839 86.1185 111.779 86.2969 111.716C91.4629 109.818 95.3268 105.967 97.6392 101.009C99.4396 96.7008 99.409 92.1995 99.3989 87.6049C99.3992 87.0903 99.3996 86.5758 99.4002 86.0612C99.4009 84.9896 99.3999 83.9181 99.3977 82.8466C99.3951 81.4851 99.3966 80.1236 99.3994 78.7622C99.4011 77.7016 99.4005 76.6411 99.3993 75.5806C99.399 75.079 99.3994 74.5775 99.4005 74.076C99.4665 68.4551 99.4665 68.4551 98.2673 63.0029C98.1785 62.7468 98.1785 62.7468 98.0879 62.4855C97.4202 60.6642 96.4701 59.0031 95.3522 57.4218C95.2404 57.2569 95.1285 57.0919 95.0133 56.922C94.043 56.2126 93.0087 56.3044 91.8347 56.27C91.5704 56.2591 91.3061 56.2482 91.0338 56.237C90.1534 56.2032 89.2731 56.1776 88.3924 56.1538C88.0887 56.1451 87.785 56.1363 87.4721 56.1273C85.3376 56.0675 83.203 56.0314 81.0678 56.0069C80.5588 56.001 80.0498 55.9941 79.5408 55.9873C69.9056 55.8642 61.1002 56.0297 53.1673 62.245C51.8933 63.216 50.9651 63.4392 49.3633 63.4021C48.41 63.2252 47.771 62.8326 47.1224 62.1188C46.6711 60.9935 46.7237 59.8786 46.7167 58.677C46.7125 58.4134 46.7083 58.1497 46.7039 57.8781C46.6913 57.0375 46.6833 56.197 46.6755 55.3564C46.6677 54.7859 46.6596 54.2154 46.6512 53.6448C46.6313 52.2476 46.6153 50.8504 46.6022 49.4531C45.8244 49.4488 45.0465 49.4462 44.2686 49.4439C44.0509 49.4427 43.8332 49.4415 43.6089 49.4402C37.6073 49.4271 32.1274 51.045 27.7854 55.3418ZM8.91181 71.5869C7.82252 72.8629 7.66799 73.8197 7.66194 75.4604C7.66045 75.7365 7.65895 76.0127 7.65741 76.2972C7.65715 76.5936 7.65689 76.89 7.65662 77.1954C7.65584 77.502 7.65506 77.8086 7.65426 78.1244C7.65286 78.7726 7.65242 79.4207 7.65256 80.0689C7.65258 80.8961 7.64938 81.7232 7.64535 82.5504C7.6421 83.3435 7.64225 84.1366 7.64197 84.9298C7.64029 85.2252 7.63861 85.5207 7.63687 85.8251C7.59795 88.3085 7.59795 88.3085 8.73603 90.4248C10.6933 92.0956 12.2289 91.6406 14.9616 91.6406C14.9616 84.6796 14.9616 77.7187 14.9616 70.5468C11.6957 70.3106 11.6957 70.3106 8.91181 71.5869ZM106.368 70.5468C106.368 77.5078 106.368 84.4687 106.368 91.6406C109.634 91.8768 109.634 91.8768 112.418 90.6005C113.507 89.3245 113.661 88.3678 113.668 86.7271C113.669 86.4509 113.671 86.1747 113.672 85.8902C113.672 85.5938 113.673 85.2974 113.673 84.992C113.674 84.6854 113.674 84.3789 113.675 84.063C113.677 83.4148 113.677 82.7667 113.677 82.1185C113.677 81.2913 113.68 80.4642 113.684 79.6371C113.687 78.8439 113.687 78.0508 113.688 77.2576C113.689 76.9622 113.691 76.6667 113.693 76.3623C113.732 73.879 113.732 73.879 112.593 71.7627C110.636 70.0918 109.101 70.5468 106.368 70.5468Z" fill="white"/>
<path d="M64.7047 31.7842C64.8732 31.7829 65.0416 31.7817 65.2152 31.7804C65.7784 31.777 66.3414 31.7787 66.9046 31.7803C67.3089 31.779 67.7132 31.7774 68.1175 31.7755C69.2148 31.7713 70.312 31.7715 71.4093 31.7729C72.3255 31.7736 73.2417 31.7722 74.1579 31.7708C76.3194 31.7675 78.4808 31.7678 80.6423 31.7705C82.8719 31.7732 85.1015 31.7699 87.3311 31.7636C89.2457 31.7584 91.1603 31.7569 93.075 31.7582C94.2184 31.759 95.3617 31.7585 96.5051 31.7544C97.5803 31.7508 98.6554 31.7517 99.7306 31.7561C100.125 31.757 100.519 31.7563 100.914 31.7538C101.453 31.7507 101.991 31.7534 102.53 31.7576C102.831 31.7576 103.133 31.7577 103.443 31.7577C104.626 31.9281 105.369 32.4333 106.097 33.3701C106.586 34.4832 106.512 35.6069 106.367 36.7969C105.856 37.8752 105.318 38.388 104.257 38.9063C103.473 38.9954 103.473 38.9954 102.56 38.9972C102.307 38.9991 102.307 38.9991 102.049 39.001C101.486 39.0043 100.923 39.0027 100.36 39.001C99.9556 39.0023 99.5513 39.004 99.147 39.0059C98.0497 39.0101 96.9525 39.0098 95.8552 39.0085C94.939 39.0077 94.0228 39.0092 93.1066 39.0106C90.9451 39.0139 88.7837 39.0135 86.6222 39.0108C84.3926 39.0081 82.163 39.0114 79.9334 39.0177C78.0188 39.0229 76.1042 39.0245 74.1895 39.0231C73.0461 39.0223 71.9028 39.0229 70.7595 39.0269C69.6842 39.0305 68.6091 39.0296 67.5339 39.0252C67.1396 39.0243 66.7452 39.0251 66.3509 39.0275C65.812 39.0306 65.2734 39.0279 64.7345 39.0238C64.4331 39.0237 64.1317 39.0237 63.8212 39.0236C62.639 38.8532 61.8955 38.348 61.168 37.4112C60.6786 36.2981 60.7528 35.1745 60.8979 33.9844C61.7243 32.2397 62.8386 31.7877 64.7047 31.7842Z" fill="white"/>
<path d="M64.7047 17.7217C64.8732 17.7204 65.0416 17.7192 65.2152 17.7179C65.7784 17.7145 66.3414 17.7162 66.9046 17.7178C67.3089 17.7165 67.7132 17.7149 68.1175 17.713C69.2148 17.7088 70.312 17.709 71.4093 17.7104C72.3255 17.7111 73.2417 17.7097 74.1579 17.7083C76.3194 17.705 78.4808 17.7053 80.6423 17.708C82.8719 17.7107 85.1015 17.7074 87.3311 17.7011C89.2457 17.6959 91.1603 17.6944 93.075 17.6957C94.2184 17.6965 95.3617 17.696 96.5051 17.6919C97.5803 17.6883 98.6554 17.6892 99.7306 17.6936C100.125 17.6945 100.519 17.6938 100.914 17.6913C101.453 17.6882 101.991 17.6909 102.53 17.6951C102.831 17.6951 103.133 17.6952 103.443 17.6952C104.626 17.8656 105.369 18.3708 106.097 19.3076C106.586 20.4207 106.512 21.5444 106.367 22.7344C105.856 23.8127 105.318 24.3255 104.257 24.8438C103.473 24.9329 103.473 24.9329 102.56 24.9347C102.307 24.9366 102.307 24.9366 102.049 24.9385C101.486 24.9418 100.923 24.9402 100.36 24.9385C99.9556 24.9398 99.5513 24.9415 99.147 24.9434C98.0497 24.9476 96.9525 24.9473 95.8552 24.946C94.939 24.9452 94.0228 24.9467 93.1066 24.9481C90.9451 24.9514 88.7837 24.951 86.6222 24.9483C84.3926 24.9456 82.163 24.9489 79.9334 24.9552C78.0188 24.9604 76.1042 24.962 74.1895 24.9606C73.0461 24.9598 71.9028 24.9604 70.7595 24.9644C69.6842 24.968 68.6091 24.9671 67.5339 24.9627C67.1396 24.9618 66.7452 24.9626 66.3509 24.965C65.812 24.9681 65.2734 24.9654 64.7345 24.9613C64.4331 24.9612 64.1317 24.9612 63.8212 24.9611C62.639 24.7907 61.8955 24.2855 61.168 23.3487C60.6786 22.2356 60.7528 21.112 60.8979 19.9219C61.7243 18.1772 62.8386 17.7252 64.7047 17.7217Z" fill="white"/>
<path d="M53.8858 91.5459C54.0483 91.5443 54.2108 91.5427 54.3782 91.541C54.913 91.5367 55.4476 91.5376 55.9824 91.539C56.3557 91.5379 56.729 91.5367 57.1023 91.5352C57.8839 91.5331 58.6654 91.5337 59.4469 91.536C60.4466 91.5387 61.446 91.534 62.4455 91.5272C63.2163 91.5229 63.9869 91.5229 64.7576 91.5243C65.1261 91.5243 65.4945 91.5229 65.863 91.52C66.3791 91.5165 66.8948 91.519 67.4109 91.523C67.8506 91.5231 67.8506 91.5231 68.2991 91.5231C69.4731 91.6951 70.2177 92.2053 70.9403 93.1356C71.4297 94.2488 71.3555 95.3724 71.2104 96.5625C70.6994 97.6412 70.1613 98.1516 69.101 98.6718C68.3289 98.7627 68.3289 98.7627 67.4412 98.7665C67.2787 98.7681 67.1162 98.7698 66.9488 98.7714C66.414 98.7757 65.8794 98.7748 65.3446 98.7735C64.9713 98.7745 64.598 98.7758 64.2247 98.7772C63.4431 98.7793 62.6616 98.7787 61.8801 98.7764C60.8805 98.7737 59.8811 98.7784 58.8815 98.7853C58.1108 98.7896 57.3401 98.7895 56.5694 98.7882C56.2009 98.7881 55.8325 98.7895 55.4641 98.7925C54.948 98.796 54.4322 98.7934 53.9161 98.7894C53.623 98.7894 53.3299 98.7893 53.0279 98.7893C51.8539 98.6173 51.1093 98.1071 50.3867 97.1768C49.8973 96.0636 49.9715 94.94 50.1166 93.75C50.9332 92.026 52.038 91.5539 53.8858 91.5459Z" fill="white"/>
<path d="M79.6477 70.5469C80.7228 71.0561 81.2582 71.5868 81.7571 72.6563C81.8615 73.3959 81.8612 74.1285 81.8587 74.8746C81.8599 75.0881 81.8611 75.3016 81.8624 75.5216C81.8639 75.9721 81.8636 76.4226 81.8616 76.8731C81.8596 77.5604 81.8664 78.2472 81.8738 78.9345C81.8742 79.3732 81.874 79.8119 81.8733 80.2506C81.8773 80.5571 81.8773 80.5571 81.8813 80.8699C81.8667 82.1522 81.6751 82.89 80.8196 83.9063C79.5955 84.857 78.3227 84.7908 76.8352 84.6094C75.7601 84.1001 75.2247 83.5694 74.7258 82.5C74.6214 81.7604 74.6217 81.0278 74.6242 80.2817C74.623 80.0682 74.6217 79.8547 74.6205 79.6347C74.619 79.1842 74.6193 78.7337 74.6213 78.2832C74.6233 77.5959 74.6165 76.909 74.6091 76.2218C74.6087 75.7831 74.6088 75.3444 74.6095 74.9057C74.6069 74.7013 74.6043 74.4969 74.6016 74.2864C74.6162 73.004 74.8078 72.2663 75.6633 71.25C76.8874 70.2993 78.1602 70.3655 79.6477 70.5469Z" fill="white"/>
<path d="M44.4914 70.5469C45.5665 71.0561 46.1019 71.5868 46.6008 72.6563C46.7052 73.3959 46.7049 74.1285 46.7024 74.8746C46.7037 75.0881 46.7049 75.3016 46.7062 75.5216C46.7077 75.9721 46.7074 76.4226 46.7054 76.8731C46.7034 77.5604 46.7101 78.2472 46.7175 78.9345C46.7179 79.3732 46.7178 79.8119 46.7171 80.2506C46.721 80.5571 46.721 80.5571 46.7251 80.8699C46.7105 82.1522 46.5188 82.89 45.6633 83.9063C44.4393 84.857 43.1664 84.7908 41.6789 84.6094C40.6038 84.1001 40.0684 83.5694 39.5696 82.5C39.4652 81.7604 39.4654 81.0278 39.4679 80.2817C39.4667 80.0682 39.4655 79.8547 39.4642 79.6347C39.4627 79.1842 39.463 78.7337 39.465 78.2832C39.467 77.5959 39.4603 76.909 39.4528 76.2218C39.4525 75.7831 39.4526 75.3444 39.4533 74.9057C39.4507 74.7013 39.448 74.4969 39.4453 74.2864C39.4599 73.004 39.6516 72.2663 40.5071 71.25C41.7311 70.2993 43.004 70.3655 44.4914 70.5469Z" fill="white"/>
</g>
<defs>
<clipPath id="clip0_6317_38059">
<rect width="120" height="120" fill="white" transform="translate(0.664062)"/>
</clipPath>
</defs>
</svg>
