<svg width="24" height="24" viewBox="0 0 24 24" fill="none" xmlns="http://www.w3.org/2000/svg">
<g clip-path="url(#clip0_168_2593)">
<path d="M16.9711 0.78586C17.3182 0.785388 17.6653 0.784559 18.0124 0.783586C18.4406 0.782395 18.8687 0.781728 19.2969 0.781705C19.5185 0.781682 19.7401 0.781436 19.9618 0.780591C20.1671 0.779819 20.3724 0.779716 20.5778 0.780123C20.6522 0.780158 20.7266 0.779958 20.8011 0.77949C21.6387 0.774543 22.3433 0.948487 22.9644 1.53223C23.4556 2.01896 23.6816 2.64631 23.6867 3.32521C23.6882 3.83902 23.632 4.3212 23.297 4.73438C23.1737 4.85769 23.0857 4.83921 22.9179 4.8398C22.8779 4.83946 22.8379 4.83912 22.7967 4.83878C22.7547 4.83879 22.7126 4.83881 22.6692 4.83882C22.5297 4.83875 22.3902 4.83802 22.2507 4.83729C22.1542 4.83712 22.0576 4.83698 21.9611 4.83689C21.7066 4.83653 21.4522 4.83561 21.1977 4.83457C20.9382 4.83361 20.6787 4.83318 20.4191 4.83271C19.9097 4.83171 19.4002 4.83011 18.8908 4.82813C18.891 4.86154 18.8912 4.89495 18.8914 4.92937C18.8966 5.74191 18.9005 6.55446 18.9029 7.36702C18.9041 7.75996 18.9058 8.1529 18.9084 8.54584C18.9108 8.88829 18.9123 9.23074 18.9128 9.5732C18.9131 9.75457 18.9138 9.93591 18.9155 10.1173C18.9171 10.2879 18.9176 10.4586 18.9173 10.6293C18.9174 10.7218 18.9186 10.8144 18.9199 10.9069C18.9196 10.962 18.9193 11.0171 18.9189 11.0739C18.9192 11.1217 18.9194 11.1696 18.9196 11.2189C18.88 11.3906 18.8025 11.4391 18.6564 11.5313C18.4707 11.5622 18.4008 11.5484 18.2433 11.4434C18.1218 11.3254 18.0957 11.2889 18.0877 11.1204C18.0876 11.0647 18.0874 11.009 18.0873 10.9516C18.0871 10.9052 18.0871 10.9052 18.0869 10.8578C18.0865 10.7534 18.0864 10.6491 18.0863 10.5448C18.0861 10.4702 18.0859 10.3956 18.0856 10.321C18.085 10.1178 18.0847 9.91455 18.0845 9.71133C18.0844 9.58417 18.0842 9.45701 18.084 9.32984C18.0833 8.93147 18.0829 8.53309 18.0827 8.13472C18.0825 7.67593 18.0817 7.21715 18.0803 6.75836C18.0793 6.40325 18.0788 6.04815 18.0787 5.69304C18.0787 5.48125 18.0784 5.26947 18.0776 5.05768C18.0768 4.85788 18.0767 4.65809 18.0771 4.45828C18.0772 4.38549 18.077 4.31269 18.0765 4.23989C18.0708 3.30587 18.2452 2.39518 18.9204 1.70279C18.9416 1.68228 18.9627 1.66177 18.9845 1.64063C16.9689 1.63729 14.9533 1.63707 12.9376 1.64063C12.9032 1.64069 12.8687 1.64075 12.8332 1.64082C11.952 1.64235 11.0709 1.64524 10.1897 1.65041C9.948 1.6518 9.70628 1.65275 9.46456 1.65333C9.18037 1.65402 8.89621 1.65561 8.61204 1.6579C8.50842 1.65858 8.4048 1.65896 8.30118 1.65901C7.60463 1.65955 7.05131 1.66983 6.5262 2.1808C6.06498 2.6947 5.9244 3.31909 5.92893 3.99461C5.92858 4.0539 5.92823 4.11318 5.92787 4.17427C5.92693 4.33697 5.92713 4.49966 5.92754 4.66236C5.92777 4.83851 5.92692 5.01466 5.9262 5.19081C5.92511 5.49538 5.9247 5.79995 5.92476 6.10452C5.92483 6.54488 5.92388 6.98523 5.92268 7.42558C5.92075 8.14016 5.91966 8.85474 5.91909 9.56932C5.91853 10.2631 5.91759 10.957 5.91611 11.6508C5.91602 11.6936 5.91593 11.7364 5.91584 11.7805C5.91538 11.9954 5.91491 12.2103 5.91445 12.4251C5.91057 14.2053 5.90803 15.9855 5.90639 17.7656C5.9354 17.7655 5.96442 17.7653 5.99431 17.7651C6.70047 17.761 7.40663 17.7579 8.1128 17.7559C8.4543 17.755 8.7958 17.7536 9.13729 17.7515C9.43496 17.7496 9.73262 17.7484 10.0303 17.748C10.1879 17.7477 10.3455 17.7472 10.5031 17.7458C10.6791 17.7445 10.855 17.7443 11.031 17.7443C11.1093 17.7433 11.1093 17.7433 11.1892 17.7423C11.5408 17.7442 11.5408 17.7442 11.7267 17.8506C11.847 17.9942 11.8595 18.0956 11.8595 18.2813C11.7964 18.4194 11.7618 18.4942 11.6251 18.5625C11.4899 18.5676 11.3558 18.5698 11.2206 18.5699C11.1782 18.5702 11.1358 18.5704 11.0921 18.5706C10.9493 18.5714 10.8064 18.5717 10.6635 18.5721C10.5615 18.5726 10.4594 18.5731 10.3573 18.5735C10.0795 18.5748 9.80162 18.5758 9.52377 18.5767C9.23368 18.5777 8.94358 18.579 8.65349 18.5803C8.13511 18.5825 7.61672 18.5845 7.09834 18.5864C6.44143 18.5888 5.78451 18.5915 5.1276 18.5942C3.84032 18.5996 2.55304 18.6046 1.26576 18.6094C1.11353 19.0412 1.10154 19.5117 1.26576 19.9424C1.4772 20.3808 1.80419 20.7281 2.26379 20.8994C2.7432 21.0375 3.22303 21.0173 3.71707 21.013C3.81745 21.0127 3.91783 21.0124 4.01821 21.0121C4.23337 21.0115 4.44851 21.0105 4.66367 21.0091C5.00383 21.007 5.34399 21.006 5.68415 21.0052C6.52854 21.003 7.37292 20.9994 8.21731 20.9953C8.87463 20.9922 9.53195 20.9895 10.1893 20.9881C10.5275 20.9873 10.8658 20.9857 11.204 20.9833C11.414 20.9821 11.6241 20.9816 11.8341 20.9814C11.9316 20.9811 12.0291 20.9805 12.1266 20.9795C12.2595 20.9783 12.3924 20.9782 12.5253 20.9784C12.564 20.9778 12.6027 20.9771 12.6425 20.9765C12.8256 20.9779 12.9176 20.9879 13.0778 21.0849C13.2068 21.2254 13.2155 21.3274 13.2189 21.5156C13.1672 21.6749 13.1288 21.7007 12.9845 21.7969C12.8822 21.8092 12.8822 21.8092 12.7608 21.8099C12.6914 21.8107 12.6914 21.8107 12.6207 21.8115C12.5699 21.8116 12.5191 21.8117 12.4668 21.8118C12.3861 21.8125 12.3861 21.8125 12.3039 21.8133C12.1239 21.8147 11.9439 21.8155 11.7639 21.8163C11.6367 21.8171 11.5094 21.8181 11.3821 21.8191C11.0752 21.8213 10.7683 21.823 10.4614 21.8245C10.2142 21.8258 9.96693 21.8272 9.7197 21.8287C8.84234 21.8342 7.96497 21.8387 7.0876 21.8425C6.87154 21.8434 6.65548 21.8444 6.43942 21.8455C5.78914 21.8486 5.13886 21.851 4.48857 21.8522C4.35707 21.8525 4.22557 21.853 4.09407 21.8535C3.89016 21.8543 3.68625 21.8546 3.48233 21.8545C3.40953 21.8545 3.33673 21.8547 3.26392 21.8551C2.72339 21.8576 2.21833 21.8375 1.73158 21.583C1.69965 21.5665 1.66772 21.5501 1.63482 21.5331C0.999434 21.1919 0.592508 20.6536 0.375135 19.9688C0.225258 19.4125 0.269584 18.7035 0.51576 18.1875C0.53147 18.1534 0.547181 18.1193 0.563367 18.0842C0.648954 17.9171 0.71377 17.8267 0.89076 17.7656C1.02848 17.7571 1.16165 17.7538 1.29931 17.755C1.34049 17.755 1.38166 17.755 1.42409 17.7549C1.56004 17.755 1.69597 17.7557 1.83192 17.7565C1.92624 17.7567 2.02056 17.7568 2.11487 17.7569C2.36301 17.7572 2.61115 17.7582 2.85929 17.7592C3.11253 17.7602 3.36578 17.7606 3.61903 17.7611C4.11586 17.7621 4.61268 17.7637 5.10951 17.7656C5.10946 17.7352 5.1094 17.7048 5.10935 17.6734C5.1062 15.8685 5.10379 14.0636 5.10233 12.2587C5.10215 12.0418 5.10197 11.825 5.10179 11.6081C5.10175 11.565 5.10171 11.5218 5.10167 11.4773C5.10106 10.7789 5.09995 10.0804 5.09866 9.38195C5.09734 8.66495 5.09656 7.94795 5.09628 7.23096C5.09609 6.78874 5.09548 6.34653 5.09433 5.90431C5.09359 5.60083 5.09337 5.29735 5.09355 4.99386C5.09364 4.81892 5.0935 4.64399 5.09275 4.46905C5.09193 4.27895 5.09222 4.08888 5.0926 3.89879C5.09219 3.84407 5.09178 3.78935 5.09136 3.73297C5.09405 3.23692 5.192 2.77979 5.42006 2.3379C5.43622 2.30618 5.45238 2.27446 5.46904 2.24178C5.6216 1.9547 5.81196 1.72464 6.04701 1.50001C6.07626 1.46986 6.1055 1.43971 6.13563 1.40864C6.55883 0.998784 7.08202 0.838357 7.65746 0.834136C7.69716 0.833672 7.73687 0.833209 7.77778 0.832731C7.91246 0.831232 8.04715 0.830073 8.18184 0.828928C8.28061 0.827946 8.37938 0.826953 8.47815 0.825951C8.81132 0.822694 9.1445 0.820026 9.47767 0.817393C9.53511 0.816922 9.59254 0.816451 9.65171 0.815966C12.0915 0.795969 14.5313 0.788956 16.9711 0.78586ZM19.4447 2.33442C19.001 2.87157 18.9378 3.32579 18.8908 4.03126C20.1747 4.03126 21.4586 4.03126 22.7814 4.03126C22.8591 3.79812 22.8933 3.62542 22.8927 3.38673C22.8926 3.35377 22.8926 3.32082 22.8925 3.28687C22.8818 2.82934 22.6963 2.46124 22.3859 2.12696C21.9615 1.73364 21.5464 1.57437 20.9683 1.58076C20.3776 1.6301 19.8482 1.90638 19.4447 2.33442Z" fill="#155DEC"/>
<path d="M17.3289 11.7967C17.3888 11.7963 17.3888 11.7963 17.4499 11.7958C17.5343 11.7953 17.6188 11.7951 17.7032 11.7951C17.8323 11.7949 17.9614 11.7932 18.0905 11.7914C18.1726 11.7912 18.2546 11.791 18.3367 11.7909C18.3753 11.7902 18.4138 11.7895 18.4536 11.7888C18.7211 11.791 18.7211 11.791 18.8652 11.8984C18.9578 12.0286 19.0111 12.1578 19.0664 12.3076C19.0864 12.3608 19.1065 12.4141 19.1271 12.4689C19.1718 12.6094 19.1718 12.6094 19.1718 12.75C19.2289 12.7597 19.2859 12.7693 19.3447 12.7793C19.6041 12.8343 19.8242 12.9519 20.0571 13.0759C20.3002 13.1577 20.4743 13.0396 20.6923 12.9316C20.8851 12.8469 21.0218 12.8012 21.2343 12.8437C21.3165 12.9038 21.3165 12.9038 21.4042 12.9835C21.4535 13.0281 21.4535 13.0281 21.5037 13.0736C21.556 13.1222 21.556 13.1222 21.6093 13.1719C21.6631 13.2218 21.6631 13.2218 21.718 13.2726C21.8305 13.3785 21.9412 13.4859 22.0517 13.5937C22.0899 13.6298 22.128 13.6658 22.1673 13.7029C22.3271 13.8596 22.438 13.9709 22.5104 14.1852C22.4978 14.377 22.4441 14.5056 22.3593 14.6777C22.2502 14.8872 22.2502 14.8872 22.2246 15.1154C22.2795 15.2747 22.341 15.4306 22.4062 15.5859C22.4872 15.7788 22.5617 15.9638 22.5937 16.1719C22.6474 16.1762 22.6474 16.1762 22.7021 16.1807C22.9674 16.2391 23.2677 16.3344 23.4668 16.5268C23.5591 16.69 23.5531 16.8474 23.5532 17.0301C23.5535 17.0678 23.5539 17.1054 23.5543 17.1443C23.5548 17.2238 23.5549 17.3033 23.5547 17.3829C23.5546 17.5043 23.5566 17.6256 23.5587 17.747C23.5589 17.8245 23.559 17.9019 23.559 17.9793C23.5602 18.0335 23.5602 18.0335 23.5614 18.0888C23.559 18.2765 23.5401 18.3638 23.4218 18.5123C23.2805 18.622 23.1515 18.6808 22.9833 18.7412C22.93 18.7608 22.8766 18.7805 22.8217 18.8007C22.6874 18.8437 22.6874 18.8437 22.5937 18.8437C22.5863 18.8755 22.5788 18.9073 22.5712 18.9401C22.5111 19.1799 22.443 19.3909 22.3242 19.6084C22.2548 19.7425 22.2193 19.8137 22.2128 19.9658C22.2636 20.1041 22.3245 20.2317 22.3886 20.3643C22.4621 20.5233 22.4997 20.6211 22.5117 20.7978C22.3739 21.163 22.0131 21.4485 21.7412 21.7207C21.7084 21.754 21.6757 21.7873 21.642 21.8216C21.6103 21.8534 21.5785 21.8853 21.5458 21.9181C21.5174 21.9466 21.4891 21.9752 21.4599 22.0046C21.3221 22.1238 21.2304 22.1728 21.0468 22.1689C20.8278 22.1315 20.6309 22.0295 20.4312 21.9357C20.1931 21.8559 20.0302 21.946 19.8134 22.0518C19.6503 22.1301 19.515 22.1816 19.3359 22.2041C19.168 22.2457 19.168 22.2457 19.1242 22.3621C19.1009 22.4437 19.0799 22.526 19.0612 22.6088C19.0022 22.8558 18.9161 23.0611 18.7031 23.2031C18.5732 23.2134 18.4481 23.2185 18.3182 23.2189C18.2804 23.2192 18.2427 23.2195 18.2038 23.2198C18.124 23.2203 18.0442 23.2205 17.9643 23.2205C17.8425 23.2207 17.7208 23.2224 17.5989 23.2242C17.5213 23.2245 17.4437 23.2246 17.366 23.2247C17.3298 23.2254 17.2935 23.2261 17.2561 23.2268C17.0827 23.2253 16.9796 23.2099 16.8313 23.1172C16.7099 22.9901 16.6616 22.8731 16.6025 22.708C16.5828 22.6548 16.5632 22.6015 16.543 22.5467C16.4999 22.4062 16.4999 22.4062 16.4999 22.2656C16.4687 22.2582 16.4375 22.2508 16.4053 22.2431C16.1126 22.169 15.8543 22.0716 15.5863 21.9324C15.3139 21.8357 15.063 22.0113 14.8187 22.1268C14.6346 22.1833 14.5308 22.1703 14.3437 22.125C14.2388 22.0446 14.1567 21.9723 14.0672 21.8776C14.0306 21.8406 14.0306 21.8406 13.9933 21.8028C13.916 21.7243 13.8399 21.6449 13.7636 21.5654C13.7114 21.5122 13.6591 21.459 13.6067 21.4058C13.1767 20.9669 13.1767 20.9669 13.1597 20.7556C13.1767 20.5063 13.2836 20.3348 13.4007 20.118C13.4668 19.9296 13.4397 19.8675 13.3593 19.6875C13.3356 19.6288 13.312 19.57 13.2886 19.5112C13.2505 19.4183 13.2122 19.3256 13.1735 19.2329C13.1173 19.0956 13.0781 18.9937 13.0781 18.8437C13.0453 18.8383 13.0126 18.8329 12.9788 18.8273C12.8299 18.7938 12.6976 18.7439 12.5566 18.6855C12.4839 18.656 12.4839 18.656 12.4097 18.6259C12.288 18.5659 12.2251 18.5253 12.1406 18.4219C12.126 18.2829 12.1198 18.1539 12.1202 18.0148C12.12 17.9749 12.1198 17.935 12.1195 17.8938C12.1192 17.8094 12.1193 17.7249 12.1197 17.6405C12.1201 17.5114 12.1187 17.3823 12.1172 17.2532C12.1172 17.1711 12.1172 17.0891 12.1173 17.007C12.1168 16.9684 12.1163 16.9299 12.1157 16.8901C12.1179 16.7137 12.1192 16.6229 12.2256 16.4776C12.3386 16.3989 12.4486 16.363 12.5803 16.3255C12.8687 16.2412 12.8687 16.2412 13.089 16.048C13.1654 15.9019 13.2156 15.7512 13.2619 15.5933C13.3124 15.4219 13.3124 15.4219 13.3926 15.2723C13.4633 15.1481 13.4633 15.1481 13.441 15.0324C13.4276 14.9995 13.4142 14.9665 13.4003 14.9326C13.3864 14.8966 13.3724 14.8606 13.358 14.8235C13.3175 14.7304 13.2756 14.6382 13.2333 14.5459C13.1655 14.3746 13.1349 14.2903 13.1718 14.1094C13.3917 13.8108 13.6743 13.5529 13.9365 13.292C13.9934 13.2348 13.9934 13.2348 14.0516 13.1764C14.0878 13.1401 14.1241 13.1039 14.1615 13.0666C14.1943 13.0339 14.227 13.0012 14.2608 12.9674C14.3953 12.8428 14.4291 12.8435 14.622 12.8496C14.8583 12.8767 15.0428 12.9709 15.2495 13.0845C15.4184 13.139 15.495 13.1001 15.6562 13.0312C15.7031 13.0124 15.7501 12.9935 15.7985 12.9741C15.8453 12.9543 15.8921 12.9345 15.9404 12.9141C16.2171 12.7973 16.2171 12.7973 16.3427 12.7676C16.5208 12.6636 16.5562 12.4929 16.623 12.3047C16.6496 12.2318 16.6765 12.159 16.7039 12.0864C16.7154 12.0541 16.727 12.0218 16.7388 11.9886C16.8592 11.7548 17.1029 11.7974 17.3289 11.7967ZM17.3906 12.6094C17.3369 12.7297 17.3369 12.7297 17.2822 12.8525C17.2414 12.9439 17.1994 13.0348 17.1562 13.125C17.1276 13.1871 17.1276 13.1871 17.0985 13.2504C16.9868 13.3972 16.8561 13.4417 16.6874 13.5C16.6259 13.5229 16.5644 13.5458 16.5029 13.5687C16.4077 13.6033 16.3124 13.6377 16.2169 13.6717C16.0556 13.7307 15.9076 13.7949 15.7595 13.8823C15.5741 13.989 15.4927 14.0005 15.2812 13.9687C15.1459 13.9114 15.0154 13.8491 14.8851 13.7811C14.7726 13.7286 14.7726 13.7286 14.6733 13.7353C14.5268 13.806 14.4195 13.9139 14.3056 14.0273C14.2815 14.0498 14.2573 14.0722 14.2325 14.0953C14.1538 14.1698 14.1538 14.1698 14.0624 14.2969C14.0661 14.497 14.1678 14.6615 14.2575 14.837C14.3305 15.0524 14.3212 15.2233 14.2333 15.4321C14.2049 15.4829 14.1766 15.5336 14.1474 15.5859C13.9883 15.8808 13.8832 16.1754 13.7878 16.4962C13.7131 16.6978 13.7131 16.6978 13.5937 16.7812C13.4916 16.8257 13.3879 16.8664 13.2832 16.9043C13.0968 16.9599 13.0968 16.9599 12.9374 17.0625C12.9334 17.1289 12.9324 17.1954 12.9329 17.2619C12.933 17.3019 12.9332 17.342 12.9333 17.3832C12.9337 17.4253 12.9341 17.4674 12.9345 17.5107C12.9347 17.553 12.9349 17.5953 12.9352 17.6388C12.9357 17.7436 12.9365 17.8484 12.9374 17.9531C13.0129 17.9732 13.0129 17.9732 13.09 17.9936C13.6032 18.1561 13.6032 18.1561 13.7506 18.3751C13.8541 18.5964 13.9172 18.8297 13.9821 19.0645C14.0299 19.2179 14.0993 19.3476 14.1767 19.4883C14.2825 19.6939 14.3438 19.8278 14.2968 20.0625C14.2371 20.1974 14.1741 20.3285 14.1046 20.4586C14.052 20.5726 14.052 20.5726 14.0859 20.6706C14.185 20.8046 14.3004 20.9196 14.4199 21.0352C14.444 21.0589 14.4682 21.0826 14.4931 21.1071C14.5525 21.1654 14.6121 21.2233 14.6718 21.2812C14.7254 21.2559 14.7254 21.2559 14.78 21.23C15.3618 20.9685 15.3618 20.9685 15.6562 21.0469C15.8151 21.1143 15.9678 21.1935 16.1201 21.2747C16.3596 21.4023 16.5964 21.4938 16.8583 21.5678C16.9815 21.6142 17.0312 21.6446 17.1093 21.75C17.1538 21.8521 17.1945 21.9558 17.2324 22.0605C17.288 22.2469 17.288 22.2469 17.3906 22.4062C17.4569 22.4103 17.5235 22.4113 17.59 22.4108C17.65 22.4106 17.65 22.4106 17.7113 22.4104C17.7534 22.41 17.7955 22.4096 17.8388 22.4092C17.8811 22.409 17.9233 22.4088 17.9669 22.4085C18.0717 22.408 18.1764 22.4072 18.2812 22.4062C18.2988 22.3571 18.3164 22.308 18.3345 22.2574C18.3587 22.1927 18.3829 22.1281 18.4072 22.0635C18.4186 22.0311 18.4301 21.9988 18.4419 21.9654C18.4992 21.8153 18.5393 21.7222 18.6652 21.6187C18.8354 21.546 19.0078 21.4855 19.1835 21.4277C19.4125 21.3507 19.6243 21.2739 19.831 21.1465C20.019 21.0362 20.1757 21 20.3906 21.0469C20.5985 21.1163 20.7973 21.1968 20.9999 21.2812C21.201 21.0802 21.4021 20.8791 21.6093 20.6719C21.5707 20.5791 21.532 20.4862 21.4921 20.3906C21.312 19.9099 21.312 19.9099 21.3749 19.6875C21.4357 19.5546 21.5002 19.4247 21.5696 19.2961C21.711 19.0311 21.7944 18.7612 21.8748 18.4726C22.0121 18.156 22.435 18.0748 22.7343 17.9531C22.7343 17.6592 22.7343 17.3653 22.7343 17.0625C22.6454 17.0258 22.5564 16.989 22.4648 16.9512C22.3669 16.9107 22.2692 16.8698 22.1718 16.8281C22.1366 16.8146 22.1014 16.8011 22.0651 16.7871C21.9523 16.7135 21.9385 16.6453 21.8994 16.5176C21.82 16.2791 21.7279 16.0502 21.6269 15.8203C21.6128 15.7878 21.5986 15.7552 21.5841 15.7217C21.5225 15.5817 21.46 15.4557 21.3749 15.3281C21.3324 14.9455 21.4498 14.6908 21.6093 14.3437C21.4082 14.1427 21.2071 13.9416 20.9999 13.7344C20.7375 13.812 20.7375 13.812 20.4909 13.9266C20.317 13.9996 20.1505 13.9996 19.972 13.937C19.8744 13.8928 19.7795 13.8453 19.6845 13.7959C19.3914 13.6454 19.3914 13.6454 19.0794 13.543C18.6669 13.4394 18.6669 13.4394 18.5495 13.2763C18.4308 13.0596 18.3622 12.8467 18.2812 12.6094C17.9873 12.6094 17.6934 12.6094 17.3906 12.6094Z" fill="#155DEC"/>
<path d="M19.749 15.3017C19.823 15.3723 19.8963 15.4435 19.9688 15.5156C20.0076 15.552 20.0076 15.552 20.0473 15.5892C20.224 15.7712 20.3345 15.989 20.4492 16.2129C20.4732 16.2593 20.4732 16.2593 20.4978 16.3066C20.8215 16.9647 20.8262 17.8206 20.5931 18.5092C20.2205 19.3946 19.5971 19.9327 18.7277 20.2989C18.0021 20.5442 17.1724 20.423 16.4971 20.1035C16.1874 19.9477 15.9441 19.7474 15.7031 19.5C15.6734 19.4718 15.6437 19.4435 15.613 19.4145C15.1227 18.9143 14.911 18.1688 14.9004 17.4825C14.9108 16.8222 15.1229 16.2356 15.5156 15.7031C15.5367 15.6735 15.5577 15.6439 15.5793 15.6134C16.0219 15.0433 16.734 14.6985 17.4375 14.5928C18.2867 14.5148 19.1051 14.7366 19.749 15.3017ZM16.2779 16.0517C15.8691 16.5149 15.6767 17.0631 15.7114 17.677C15.7791 18.2491 16.0223 18.7387 16.4531 19.125C16.6024 19.236 16.7551 19.3242 16.9219 19.4062C16.9803 19.4353 16.9803 19.4353 17.04 19.465C17.5437 19.6818 18.1174 19.6615 18.6246 19.4652C19.207 19.1914 19.5868 18.7831 19.8281 18.1875C20.0093 17.6469 19.9667 17.0923 19.7313 16.5784C19.461 16.0538 19.0492 15.6812 18.4922 15.4746C17.6697 15.2394 16.8925 15.4658 16.2779 16.0517Z" fill="#155DEC"/>
<path d="M10.0023 8.61874C10.0809 8.61844 10.0809 8.61844 10.1611 8.61813C10.2185 8.61816 10.276 8.61818 10.3353 8.6182C10.3958 8.61804 10.4563 8.61788 10.5187 8.61772C10.6848 8.61731 10.8509 8.6172 11.017 8.61717C11.1556 8.61712 11.2942 8.61695 11.4329 8.61679C11.7599 8.6164 12.0869 8.61629 12.4139 8.61632C12.7514 8.61635 13.0888 8.61586 13.4262 8.61512C13.7159 8.6145 14.0055 8.61425 14.2952 8.61428C14.4682 8.61429 14.6412 8.61416 14.8143 8.61366C15.0072 8.61313 15.2001 8.61334 15.393 8.61362C15.4791 8.61323 15.4791 8.61323 15.567 8.61282C15.6457 8.61312 15.6457 8.61312 15.7261 8.61342C15.7717 8.61339 15.8173 8.61337 15.8643 8.61334C15.9901 8.62556 16.0655 8.652 16.1719 8.71876C16.2687 8.84319 16.2655 8.91039 16.2598 9.07032C16.2139 9.25364 16.1771 9.30657 16.0312 9.42188C15.91 9.44561 15.91 9.44561 15.77 9.44601C15.6903 9.4469 15.6903 9.4469 15.6089 9.44782C15.5217 9.44736 15.5217 9.44736 15.4328 9.44689C15.3407 9.44749 15.3407 9.44749 15.2468 9.44811C15.0786 9.44917 14.9104 9.44903 14.7421 9.44861C14.6016 9.44837 14.4611 9.44872 14.3207 9.44906C13.9892 9.44985 13.6578 9.44969 13.3263 9.4489C12.9845 9.44811 12.6426 9.44885 12.3008 9.45037C12.0072 9.45162 11.7136 9.45196 11.42 9.45156C11.2447 9.45133 11.0694 9.45143 10.8941 9.4524C10.6986 9.45342 10.5032 9.45253 10.3077 9.45147C10.2496 9.45201 10.1916 9.45256 10.1318 9.45313C9.69532 9.44827 9.69532 9.44827 9.54961 9.31328C9.44372 9.14858 9.44076 9.05178 9.46875 8.85938C9.59733 8.6267 9.75272 8.61917 10.0023 8.61874Z" fill="#155DEC"/>
<path d="M10.3077 10.893C10.3999 10.8927 10.3999 10.8927 10.4939 10.8923C10.6622 10.8916 10.8304 10.8924 10.9986 10.8935C11.1747 10.8944 11.3509 10.8942 11.527 10.894C11.8228 10.894 12.1185 10.895 12.4142 10.8965C12.7561 10.8982 13.0979 10.8986 13.4398 10.8983C13.7688 10.898 14.0978 10.8985 14.4268 10.8994C14.5668 10.8998 14.7067 10.8999 14.8467 10.8998C15.0421 10.8998 15.2375 10.9009 15.4328 10.9022C15.52 10.902 15.52 10.902 15.609 10.9018C15.6622 10.9023 15.7153 10.9028 15.7701 10.9034C15.8163 10.9036 15.8625 10.9037 15.9101 10.9039C16.0513 10.9248 16.1157 10.9655 16.2188 11.0625C16.2764 11.2237 16.2809 11.3851 16.2335 11.5488C16.157 11.6434 16.0973 11.6731 15.9844 11.7188C15.8645 11.7306 15.8645 11.7306 15.7265 11.7307C15.674 11.7309 15.6216 11.7312 15.5675 11.7315C15.5102 11.7313 15.4529 11.7311 15.3938 11.7309C15.3333 11.7311 15.2728 11.7312 15.2104 11.7314C15.0445 11.7318 14.8786 11.7316 14.7127 11.7313C14.5391 11.7311 14.3654 11.7313 14.1918 11.7315C13.9002 11.7317 13.6086 11.7314 13.317 11.731C12.9799 11.7305 12.6428 11.7306 12.3057 11.7312C12.0162 11.7316 11.7268 11.7316 11.4373 11.7314C11.2645 11.7312 11.0916 11.7312 10.9187 11.7315C10.726 11.7319 10.5334 11.7314 10.3407 11.7309C10.2833 11.7311 10.226 11.7313 10.1669 11.7315C10.1145 11.7312 10.0621 11.7309 10.008 11.7307C9.96247 11.7306 9.91691 11.7306 9.86997 11.7306C9.74285 11.718 9.66887 11.6949 9.56256 11.625C9.44536 11.4492 9.44368 11.3644 9.46881 11.1563C9.67145 10.8398 9.96122 10.8893 10.3077 10.893Z" fill="#155DEC"/>
<path d="M9.99636 6.32123C10.0747 6.32072 10.0747 6.32072 10.1547 6.32021C10.2411 6.32002 10.2411 6.32002 10.3292 6.31983C10.4199 6.31937 10.4199 6.31937 10.5124 6.31889C10.6785 6.31808 10.8446 6.31758 11.0107 6.3172C11.1144 6.31696 11.2182 6.31667 11.322 6.31638C11.6465 6.31548 11.9711 6.31482 12.2957 6.31443C12.6705 6.31397 13.0453 6.31273 13.42 6.31084C13.7096 6.30943 13.9993 6.30873 14.2889 6.30858C14.4619 6.30847 14.6349 6.30805 14.8079 6.30687C15.0009 6.30557 15.1939 6.30577 15.3869 6.3061C15.4443 6.30549 15.5016 6.30489 15.5606 6.30428C15.9479 6.30667 15.9479 6.30667 16.136 6.41739C16.2348 6.53466 16.2628 6.58854 16.2832 6.74121C16.2649 6.89697 16.2346 6.96915 16.1198 7.07606C15.9134 7.19013 15.6566 7.1572 15.4274 7.15533C15.3354 7.15594 15.3354 7.15594 15.2414 7.15657C15.0734 7.15764 14.9054 7.15723 14.7374 7.15648C14.5614 7.15589 14.3854 7.15644 14.2094 7.15681C13.9138 7.15723 13.6183 7.15667 13.3228 7.15556C12.9813 7.15428 12.6398 7.15469 12.2983 7.15598C12.0049 7.15705 11.7115 7.1572 11.4181 7.15658C11.243 7.15622 11.0678 7.15617 10.8927 7.15694C10.6974 7.15775 10.5022 7.15663 10.3069 7.15533C10.2489 7.1558 10.191 7.15628 10.1313 7.15676C9.69541 7.15135 9.69541 7.15135 9.54983 7.01471C9.44954 6.86125 9.43499 6.78933 9.46874 6.60938C9.62712 6.37181 9.71822 6.32245 9.99636 6.32123Z" fill="#155DEC"/>
<path d="M10.0942 4.02499C10.145 4.02479 10.1958 4.02459 10.2481 4.02438C10.3036 4.02441 10.3591 4.02443 10.4163 4.02445C10.5043 4.02421 10.5043 4.02421 10.594 4.02397C10.7547 4.0236 10.9153 4.02345 11.076 4.02342C11.1764 4.02339 11.2768 4.02328 11.3773 4.02316C11.7276 4.02273 12.078 4.02254 12.4284 4.02257C12.7549 4.0226 13.0814 4.02211 13.4079 4.02137C13.6884 4.02075 13.9689 4.0205 14.2493 4.02053C14.4168 4.02054 14.5842 4.02041 14.7516 4.01991C14.9384 4.01938 15.1251 4.01959 15.3118 4.01987C15.3949 4.01948 15.3949 4.01948 15.4797 4.01907C15.5561 4.01937 15.5561 4.01937 15.6341 4.01967C15.6782 4.01964 15.7223 4.01962 15.7678 4.01959C15.9469 4.03661 16.0799 4.08151 16.2099 4.20704C16.2848 4.34902 16.2882 4.43504 16.2655 4.59376C16.1247 4.81694 16.1247 4.81694 15.9552 4.85763C15.9083 4.85772 15.8613 4.8578 15.813 4.8579C15.7319 4.85889 15.7319 4.85889 15.6493 4.8599C15.5902 4.85942 15.5311 4.85895 15.4702 4.85846C15.4072 4.85878 15.3442 4.8592 15.2813 4.8597C15.1103 4.86077 14.9394 4.86036 14.7684 4.85962C14.5896 4.85902 14.4107 4.85957 14.2318 4.85994C13.9313 4.86037 13.6309 4.85981 13.3305 4.85869C12.9832 4.85741 12.6359 4.85783 12.2885 4.85912C11.9903 4.86018 11.6921 4.86033 11.3939 4.85972C11.2158 4.85935 11.0377 4.8593 10.8596 4.86008C10.6921 4.86075 10.5247 4.86029 10.3572 4.85893C10.2665 4.85847 10.1757 4.85917 10.085 4.8599C10.0309 4.85924 9.97692 4.85858 9.92126 4.8579C9.87432 4.85781 9.82738 4.85772 9.77901 4.85763C9.60937 4.8169 9.56029 4.73834 9.46867 4.59376C9.43829 4.41145 9.45269 4.3382 9.55071 4.18067C9.71668 4.0193 9.86935 4.02539 10.0942 4.02499Z" fill="#155DEC"/>
<path d="M19.0312 16.5469C19.1637 16.6484 19.2109 16.7403 19.2422 16.9043C19.1825 17.3075 18.6685 17.6698 18.3926 17.9473C18.3486 17.9922 18.3047 18.0371 18.2607 18.082C18.1975 18.1456 18.1975 18.1456 18.1329 18.2106C18.095 18.2489 18.0571 18.2873 18.018 18.3268C17.8689 18.4536 17.7479 18.5215 17.5505 18.5063C17.2355 18.4016 16.9926 18.0745 16.7607 17.8447C16.7358 17.82 16.7108 17.7952 16.6851 17.7698C16.4598 17.5435 16.4598 17.5435 16.4355 17.3291C16.4531 17.1562 16.4531 17.1562 16.5498 17.0185C16.6875 16.9219 16.6875 16.9219 16.8428 16.8867C17.0897 16.9369 17.2172 17.0743 17.3906 17.25C17.4486 17.3065 17.4486 17.3065 17.5078 17.3642C17.531 17.3884 17.5542 17.4126 17.5781 17.4375C17.7349 17.3696 17.835 17.2844 17.9533 17.1619C17.988 17.1265 18.0227 17.091 18.0585 17.0545C18.0943 17.0175 18.1301 16.9805 18.167 16.9424C18.2381 16.8689 18.3095 16.7955 18.381 16.7225C18.4282 16.6736 18.4282 16.6736 18.4764 16.6238C18.6542 16.4649 18.8107 16.4996 19.0312 16.5469Z" fill="#155DEC"/>
<path d="M9.96721 13.1892C9.99802 13.1888 10.0288 13.1885 10.0606 13.1882C10.1622 13.1874 10.2637 13.1883 10.3653 13.1893C10.436 13.1892 10.5068 13.1891 10.5775 13.1889C10.7257 13.1888 10.8738 13.1895 11.022 13.1908C11.2118 13.1924 11.4015 13.1921 11.5913 13.1912C11.7374 13.1907 11.8834 13.1911 12.0295 13.1918C12.0994 13.1921 12.1694 13.1921 12.2394 13.1918C12.3373 13.1915 12.435 13.1925 12.5329 13.1937C12.6163 13.1942 12.6163 13.1942 12.7015 13.1946C12.8717 13.2235 12.927 13.2714 13.0313 13.4063C13.0654 13.5347 13.0585 13.6515 13.0313 13.7813C12.9436 13.8952 12.8775 13.9519 12.75 14.0156C12.6575 14.0206 12.5647 14.0226 12.472 14.0232C12.4137 14.0236 12.3553 14.0241 12.2952 14.0245C12.2312 14.0248 12.1672 14.025 12.1031 14.0251C12.0376 14.0254 11.9721 14.0257 11.9066 14.026C11.7691 14.0264 11.6316 14.0267 11.4941 14.0269C11.3182 14.0271 11.1423 14.0283 10.9664 14.0296C10.831 14.0305 10.6956 14.0307 10.5602 14.0308C10.4954 14.0309 10.4306 14.0313 10.3657 14.0319C10.2749 14.0327 10.184 14.0326 10.0931 14.0323C10.0156 14.0326 10.0156 14.0326 9.93659 14.0329C9.77696 14.0132 9.69077 13.9707 9.56255 13.875C9.45278 13.7104 9.44553 13.647 9.4688 13.4531C9.60791 13.2235 9.70306 13.1894 9.96721 13.1892Z" fill="#155DEC"/>
<path d="M10.0148 15.4612C10.0589 15.4607 10.103 15.4603 10.1485 15.4598C10.2199 15.4595 10.2199 15.4595 10.2928 15.4592C10.3418 15.4589 10.3909 15.4587 10.4415 15.4584C10.5454 15.458 10.6493 15.4577 10.7532 15.4575C10.9118 15.457 11.0704 15.4556 11.2291 15.4541C11.3301 15.4538 11.431 15.4535 11.532 15.4534C11.5794 15.4528 11.6267 15.4522 11.6754 15.4516C11.9261 15.4524 12.1152 15.4605 12.328 15.6094C12.4012 15.7646 12.4012 15.7646 12.4217 15.9375C12.3259 16.1964 12.3259 16.1964 12.1874 16.2656C12.1075 16.271 12.0274 16.2736 11.9473 16.2746C11.8722 16.2758 11.8722 16.2758 11.7956 16.2769C11.5668 16.279 11.338 16.2809 11.1091 16.282C10.9883 16.2828 10.8674 16.2841 10.7466 16.2859C10.5727 16.2884 10.3988 16.2895 10.2248 16.2901C10.1707 16.2912 10.1166 16.2923 10.0609 16.2934C9.68724 16.2924 9.68724 16.2924 9.52828 16.1557C9.45501 16.0029 9.44069 15.9175 9.46861 15.75C9.62044 15.5144 9.74226 15.4634 10.0148 15.4612Z" fill="#155DEC"/>
<path d="M8.15614 10.6875C8.36157 10.7902 8.49208 10.8945 8.57801 11.1094C8.61111 11.33 8.59926 11.4871 8.50184 11.6895C8.33341 11.8756 8.19363 11.9426 7.9452 11.9736C7.71238 11.9445 7.58343 11.8434 7.41493 11.6865C7.32662 11.5146 7.30167 11.3489 7.31239 11.1563C7.36909 10.9815 7.46455 10.8594 7.60243 10.7373C7.79084 10.6661 7.95734 10.6559 8.15614 10.6875Z" fill="#155DEC"/>
<path d="M8.38761 6.22559C8.56962 6.41863 8.59654 6.57682 8.58976 6.83534C8.56712 7.03276 8.46885 7.13664 8.34074 7.28028C8.1392 7.39606 7.96139 7.39505 7.73429 7.35938C7.55792 7.27601 7.47564 7.20323 7.36222 7.04591C7.29592 6.8392 7.29821 6.67694 7.35929 6.46876C7.44355 6.31611 7.55158 6.21439 7.69914 6.12013C7.94923 6.06897 8.16947 6.091 8.38761 6.22559Z" fill="#155DEC"/>
<path d="M8.20319 12.9844C8.36401 13.0787 8.49427 13.1916 8.57819 13.3594C8.6035 13.5901 8.60175 13.7763 8.50494 13.9893C8.34775 14.1545 8.19976 14.2413 7.96789 14.2561C7.71377 14.24 7.58047 14.1512 7.40631 13.9688C7.29051 13.7875 7.30482 13.6196 7.33398 13.4134C7.37956 13.2328 7.47498 13.1212 7.63299 13.0267C7.82005 12.9487 8.00526 12.9486 8.20319 12.9844Z" fill="#155DEC"/>
<path d="M8.25887 8.44336C8.42206 8.55215 8.49288 8.63527 8.57821 8.8125C8.61724 9.03471 8.60034 9.19012 8.49911 9.39258C8.33143 9.58292 8.22941 9.648 7.9747 9.67676C7.75592 9.66724 7.62853 9.59938 7.45321 9.46875C7.33201 9.30589 7.30121 9.17824 7.30966 8.97949C7.34496 8.74506 7.46058 8.58805 7.64071 8.4375C7.86052 8.36423 8.03997 8.3661 8.25887 8.44336Z" fill="#155DEC"/>
<path d="M8.29683 15.3281C8.56921 15.5599 8.56921 15.5599 8.5876 15.7597C8.59516 16.1799 8.59516 16.1799 8.43745 16.3594C8.25737 16.5176 8.07919 16.5242 7.84859 16.5163C7.6758 16.4916 7.58012 16.4302 7.45308 16.3125C7.30805 16.1113 7.29194 15.9497 7.32967 15.7117C7.38152 15.5328 7.45346 15.4531 7.5937 15.3281C7.84406 15.2147 8.04938 15.2166 8.29683 15.3281Z" fill="#155DEC"/>
<path d="M8.2968 3.89061C8.56919 4.12243 8.56919 4.12243 8.58757 4.32219C8.59513 4.74241 8.59513 4.74241 8.43743 4.92186C8.25251 5.08945 8.05138 5.08885 7.81231 5.08208C7.61161 5.05059 7.5387 4.98102 7.40618 4.82811C7.29167 4.64889 7.30165 4.48025 7.33129 4.27587C7.38006 4.09481 7.45274 4.01623 7.59368 3.89061C7.84404 3.77724 8.04936 3.77908 8.2968 3.89061Z" fill="#155DEC"/>
</g>
<defs>
<clipPath id="clip0_168_2593">
<rect width="24" height="24" fill="white"/>
</clipPath>
</defs>
</svg>
