<svg width="121" height="120" viewBox="0 0 121 120" fill="none" xmlns="http://www.w3.org/2000/svg">
<g clip-path="url(#clip0_160_16)">
<path d="M12.332 63.9383C12.332 56.8383 14.708 50.7384 19.4599 45.6384C24.2119 40.5384 30.1359 37.6884 37.2318 37.0884L32.1319 42.1884C31.0319 43.2884 30.4819 44.6884 30.4819 46.3884C30.4819 48.0884 31.0319 49.4884 32.1319 50.5884C33.2319 51.6884 34.6318 52.2384 36.3318 52.2384C38.0318 52.2384 39.4318 51.6884 40.5318 50.5884L56.1317 34.9885C57.3317 33.7885 57.9317 32.3885 57.9317 30.7885C57.9317 29.1885 57.3317 27.7885 56.1317 26.5885L40.5318 10.9886C39.4318 9.88859 38.0318 9.33859 36.3318 9.33859C34.6318 9.33859 33.2319 9.88859 32.1319 10.9886C31.0319 12.0886 30.4819 13.4886 30.4819 15.1886C30.4819 16.8885 31.0319 18.2885 32.1319 19.3885L37.5318 24.7885C27.0319 25.3885 18.2079 29.4385 11.06 36.9384C3.91201 44.4384 0.336031 53.3884 0.332031 63.7883C0.332031 74.6882 4.10801 83.9122 11.66 91.4601C19.2119 99.0081 28.4359 102.784 39.3318 102.788H54.3317C56.0317 102.788 57.4577 102.212 58.6097 101.06C59.7617 99.9081 60.3357 98.4841 60.3317 96.7881C60.3277 95.0921 59.7517 93.6661 58.6037 92.5101C57.4557 91.3541 56.0317 90.7802 54.3317 90.7882H39.3318C31.8319 90.7882 25.4579 88.1882 20.2099 82.9882C14.962 77.7882 12.336 71.4383 12.332 63.9383ZM78.3316 36.7884H114.331C116.031 36.7884 117.457 36.2124 118.609 35.0605C119.761 33.9085 120.335 32.4845 120.331 30.7885C120.327 29.0925 119.751 27.6665 118.603 26.5105C117.455 25.3545 116.031 24.7805 114.331 24.7885H78.3316C76.6316 24.7885 75.2076 25.3645 74.0596 26.5165C72.9116 27.6685 72.3356 29.0925 72.3316 30.7885C72.3276 32.4845 72.9036 33.9085 74.0596 35.0605C75.2156 36.2124 76.6396 36.7884 78.3316 36.7884ZM78.3316 69.7883H114.331C116.031 69.7883 117.457 69.2123 118.609 68.0603C119.761 66.9083 120.335 65.4843 120.331 63.7883C120.327 62.0923 119.751 60.6663 118.603 59.5103C117.455 58.3543 116.031 57.7803 114.331 57.7883H78.3316C76.6316 57.7883 75.2076 58.3643 74.0596 59.5163C72.9116 60.6683 72.3356 62.0923 72.3316 63.7883C72.3276 65.4843 72.9036 66.9083 74.0596 68.0603C75.2156 69.2123 76.6396 69.7883 78.3316 69.7883ZM78.3316 102.788H114.331C116.031 102.788 117.457 102.212 118.609 101.06C119.761 99.9081 120.335 98.4841 120.331 96.7881C120.327 95.0921 119.751 93.6661 118.603 92.5101C117.455 91.3541 116.031 90.7802 114.331 90.7882H78.3316C76.6316 90.7882 75.2076 91.3641 74.0596 92.5161C72.9116 93.6681 72.3356 95.0921 72.3316 96.7881C72.3276 98.4841 72.9036 99.9081 74.0596 101.06C75.2156 102.212 76.6396 102.788 78.3316 102.788Z" fill="white"/>
</g>
<defs>
<clipPath id="clip0_160_16">
<rect width="120" height="120" fill="white" transform="matrix(1 0 0 -1 0.332031 120)"/>
</clipPath>
</defs>
</svg>
