<svg width="24" height="24" viewBox="0 0 24 24" fill="none" xmlns="http://www.w3.org/2000/svg">
<path d="M2.39999 12.7881C2.39999 11.3681 2.87518 10.1481 3.82558 9.1281C4.77597 8.1081 5.96077 7.53811 7.37996 7.41811L6.35997 8.4381C6.13997 8.6581 6.02997 8.9381 6.02997 9.2781C6.02997 9.6181 6.13997 9.89809 6.35997 10.1181C6.57996 10.3381 6.85996 10.4481 7.19996 10.4481C7.53996 10.4481 7.81996 10.3381 8.03996 10.1181L11.1599 6.99811C11.3999 6.75811 11.5199 6.47811 11.5199 6.15811C11.5199 5.83812 11.3999 5.55812 11.1599 5.31812L8.03996 2.19814C7.81996 1.97814 7.53996 1.86814 7.19996 1.86814C6.85996 1.86814 6.57996 1.97814 6.35997 2.19814C6.13997 2.41813 6.02997 2.69813 6.02997 3.03813C6.02997 3.37813 6.13997 3.65813 6.35997 3.87813L7.43996 4.95812C5.33997 5.07812 3.57518 5.88811 2.14559 7.38811C0.715996 8.8881 0.000799996 10.6781 0 12.7581C0 14.9381 0.755196 16.7829 2.26559 18.2924C3.77598 19.802 5.62077 20.5572 7.79996 20.558H10.7999C11.1399 20.558 11.4251 20.4428 11.6555 20.2124C11.8859 19.982 12.0007 19.6972 11.9999 19.358C11.9991 19.0188 11.8839 18.7336 11.6543 18.5024C11.4247 18.2712 11.1399 18.1564 10.7999 18.158H7.79996C6.29997 18.158 5.02517 17.6381 3.97558 16.5981C2.92598 15.5581 2.40079 14.2881 2.39999 12.7881ZM15.5999 7.35811H22.7999C23.1399 7.35811 23.4251 7.24291 23.6555 7.01251C23.8859 6.78211 24.0007 6.49731 23.9999 6.15811C23.9991 5.81892 23.8839 5.53372 23.6543 5.30252C23.4247 5.07132 23.1399 4.95652 22.7999 4.95812H15.5999C15.2599 4.95812 14.9751 5.07332 14.7455 5.30372C14.5159 5.53412 14.4007 5.81892 14.3999 6.15811C14.3991 6.49731 14.5143 6.78211 14.7455 7.01251C14.9767 7.24291 15.2615 7.35811 15.5999 7.35811ZM15.5999 13.9581H22.7999C23.1399 13.9581 23.4251 13.8429 23.6555 13.6125C23.8859 13.3821 24.0007 13.0973 23.9999 12.7581C23.9991 12.4189 23.8839 12.1337 23.6543 11.9025C23.4247 11.6713 23.1399 11.5565 22.7999 11.5581H15.5999C15.2599 11.5581 14.9751 11.6733 14.7455 11.9037C14.5159 12.1341 14.4007 12.4189 14.3999 12.7581C14.3991 13.0973 14.5143 13.3821 14.7455 13.6125C14.9767 13.8429 15.2615 13.9581 15.5999 13.9581ZM15.5999 20.558H22.7999C23.1399 20.558 23.4251 20.4428 23.6555 20.2124C23.8859 19.982 24.0007 19.6972 23.9999 19.358C23.9991 19.0188 23.8839 18.7336 23.6543 18.5024C23.4247 18.2712 23.1399 18.1564 22.7999 18.158H15.5999C15.2599 18.158 14.9751 18.2732 14.7455 18.5036C14.5159 18.734 14.4007 19.0188 14.3999 19.358C14.3991 19.6972 14.5143 19.982 14.7455 20.2124C14.9767 20.4428 15.2615 20.558 15.5999 20.558Z" fill="#155DEC"/>
</svg>
