<svg width="121" height="120" viewBox="0 0 121 120" fill="none" xmlns="http://www.w3.org/2000/svg">
<path d="M64.8867 50.3906C67.4944 52.0301 69.166 54.4378 69.9844 57.3779C71.0967 62.3005 68.6579 67.5042 67.2305 72.1875C67.3999 72.1884 67.5693 72.1892 67.7438 72.1901C69.3537 72.199 70.9634 72.2124 72.5732 72.2306C73.4004 72.2398 74.2276 72.2474 75.0549 72.251C76.0098 72.2553 76.9644 72.267 77.9192 72.2791C78.2111 72.2794 78.503 72.2796 78.8037 72.2799C81.5552 72.3251 84.1665 72.8205 86.2148 74.7656C86.3444 74.8886 86.474 75.0116 86.6076 75.1383C88.177 76.7933 88.818 78.9766 88.827 81.2218C88.8292 81.6047 88.8292 81.6047 88.8315 81.9953C88.8319 82.4069 88.8319 82.4069 88.8323 82.8269C88.8331 83.1128 88.8339 83.3988 88.8347 83.6934C88.8359 84.2996 88.8364 84.9058 88.8364 85.512C88.8369 86.4281 88.8411 87.344 88.8456 88.2601C88.863 95.8631 87.7837 103.408 82.3064 109.155C80.8442 110.585 79.4093 111.639 77.543 112.471C77.3929 112.538 77.2429 112.605 77.0883 112.674C74.4044 113.8 71.6936 113.745 68.8345 113.742C68.396 113.743 67.9576 113.744 67.5191 113.745C66.6019 113.747 65.6847 113.747 64.7675 113.746C63.604 113.745 62.4406 113.748 61.2772 113.754C60.3714 113.757 59.4657 113.758 58.56 113.757C58.1317 113.757 57.7035 113.758 57.2752 113.761C53.6593 113.778 50.0924 113.512 46.664 112.266C46.4936 112.208 46.3233 112.15 46.1477 112.09C45.1639 111.748 44.256 111.327 43.3242 110.859C42.571 110.859 42.3763 111.104 41.8301 111.636C41.627 111.844 41.424 112.051 41.2148 112.266C39.3662 113.642 37.7713 113.757 35.5312 113.76C35.2778 113.766 35.0243 113.771 34.7631 113.777C32.3616 113.786 30.4873 113.204 28.7206 111.548C27.6529 110.325 27.1251 108.892 27.1178 107.281C27.1162 107.025 27.1145 106.769 27.1128 106.506C27.1121 106.225 27.1115 105.944 27.1108 105.655C27.1093 105.359 27.1078 105.063 27.1062 104.758C27.1012 103.776 27.0988 102.795 27.0965 101.813C27.0955 101.475 27.0946 101.136 27.0936 100.797C27.0891 99.2059 27.0858 97.6143 27.0838 96.0228C27.0815 94.1892 27.0754 92.3558 27.0659 90.5223C27.0588 89.103 27.0554 87.6838 27.0546 86.2646C27.054 85.418 27.052 84.5715 27.046 83.7249C27.0395 82.7785 27.0406 81.8323 27.0422 80.8859C27.0392 80.6083 27.0362 80.3307 27.0331 80.0448C27.0453 78.0921 27.378 76.4778 28.5174 74.8627C28.7335 74.6551 28.7335 74.6551 28.9541 74.4434C29.0952 74.3014 29.2363 74.1594 29.3816 74.0131C31.2923 72.6393 33.0389 72.5097 35.3555 72.5391C35.6413 72.5354 35.9271 72.5318 36.2215 72.5281C38.7936 72.5392 40.3743 73.2242 42.3867 74.7656C44.5289 72.7079 46.5099 70.6174 48.2461 68.2031C48.3375 68.0765 48.4289 67.9499 48.523 67.8194C51.1625 64.0973 52.8678 59.9139 54.1055 55.5469C54.8805 52.8376 55.5615 51.0021 58.1045 49.4971C60.4197 48.6149 62.8052 49.2375 64.8867 50.3906ZM59.3926 54.1141C58.5708 54.9727 58.3822 56.0176 58.1045 57.1436C57.9847 57.5897 57.8638 58.0356 57.7419 58.4812C57.6823 58.7004 57.6226 58.9196 57.5611 59.1455C56.3386 63.4926 54.1948 67.7429 51.3979 71.2883C51.138 71.6179 50.8848 71.9527 50.6345 72.2897C49.7113 73.4884 48.8457 74.423 47.5759 75.2546C45.6986 76.5711 43.9781 78.0321 43.3938 80.3379C42.7356 84.2341 43.0319 88.2977 43.1884 92.2262C43.2441 93.7736 43.2683 95.3215 43.2954 96.8697C43.3527 99.8935 43.4433 102.915 43.5586 105.938C44.0833 106.203 44.6083 106.468 45.1336 106.733C45.3551 106.845 45.3551 106.845 45.5812 106.96C46.6292 107.487 47.6364 107.903 48.7588 108.237C49.0473 108.326 49.3358 108.414 49.6331 108.506C49.9512 108.59 50.2702 108.671 50.5898 108.75C50.7551 108.791 50.9204 108.832 51.0907 108.874C53.2547 109.334 55.418 109.296 57.6192 109.298C58.0497 109.299 58.4801 109.301 58.9105 109.302C59.8092 109.305 60.7078 109.306 61.6065 109.306C62.7504 109.306 63.8941 109.312 65.038 109.32C65.926 109.325 66.8139 109.326 67.7019 109.326C68.1233 109.327 68.5447 109.329 68.9661 109.332C72.3726 109.359 75.2235 109.016 78.0117 106.875C78.2147 106.74 78.4178 106.604 78.6269 106.465C82.041 103.23 83.9272 97.713 84.1464 93.1273C84.16 92.1869 84.1591 91.248 84.1494 90.3076C84.1471 89.9674 84.1449 89.6271 84.1428 89.2869C84.1361 88.4358 84.1253 87.5848 84.1125 86.7338C84.1058 86.273 84.1006 85.8121 84.0955 85.3512C84.085 84.5519 84.0675 83.7532 84.0469 82.9541C84.0436 82.7205 84.0403 82.4869 84.037 82.2462C83.9764 80.5063 83.6186 79.1673 82.333 77.9443C81.3501 77.3143 80.4909 77.3085 79.3622 77.3068C79.1903 77.3056 79.0183 77.3044 78.8411 77.3032C78.4678 77.3007 78.0945 77.2987 77.7212 77.2971C77.1301 77.2943 76.5391 77.2897 75.948 77.2846C74.2674 77.2702 72.5868 77.2575 70.9062 77.2497C69.878 77.2448 68.85 77.2365 67.8219 77.2261C67.4304 77.2228 67.0388 77.2207 66.6473 77.22C66.0991 77.2188 65.5512 77.2134 65.0031 77.207C64.7612 77.2081 64.7612 77.2081 64.5145 77.2091C63.5073 77.1917 62.8823 77.0091 62.0742 76.4063C61.571 75.7886 61.6055 75.4685 61.6645 74.6649C61.842 73.3744 62.2373 72.1538 62.6235 70.9131C62.7007 70.6601 62.7778 70.4071 62.8573 70.1464C63.1855 69.0703 63.5172 67.9953 63.8486 66.9203C64.0909 66.1324 64.3314 65.3441 64.5718 64.5557C64.6842 64.1945 64.6842 64.1945 64.7989 63.8261C65.5849 61.247 65.8758 59.0764 64.5727 56.5878C63.5281 55.0733 62.127 54.3272 60.4336 53.6719C59.9061 53.6241 59.9061 53.6241 59.3926 54.1141ZM31.8398 78.0469C31.6088 78.7399 31.5739 79.1965 31.5694 79.9195C31.5674 80.161 31.5654 80.4025 31.5633 80.6513C31.5623 80.9162 31.5613 81.181 31.5602 81.4539C31.5583 81.7329 31.5564 82.0119 31.5544 82.2994C31.5486 83.2247 31.5447 84.15 31.5414 85.0754C31.5401 85.3942 31.5389 85.7131 31.5376 86.0319C31.5325 87.3583 31.5281 88.6847 31.5255 90.0111C31.5217 91.9106 31.5139 93.81 31.5006 95.7095C31.4915 97.0459 31.4869 98.3823 31.4857 99.7187C31.4848 100.517 31.482 101.314 31.4744 102.112C31.467 103.003 31.467 103.893 31.4687 104.783C31.4649 105.047 31.461 105.31 31.457 105.582C31.4582 107.118 31.4582 107.118 32.156 108.441C33.1503 109.31 34.065 109.268 35.3262 109.277C35.492 109.282 35.6579 109.287 35.8288 109.292C36.8947 109.3 37.564 109.183 38.4023 108.516C39.0532 107.794 39.1937 107.335 39.1963 106.37C39.1986 106.126 39.201 105.882 39.2033 105.63C39.2023 105.364 39.2012 105.097 39.2002 104.822C39.2026 104.4 39.2026 104.4 39.205 103.969C39.2086 103.197 39.209 102.425 39.2076 101.653C39.2069 101.008 39.2083 100.364 39.2097 99.7188C39.213 98.1975 39.2127 96.6762 39.21 95.1549C39.2073 93.5863 39.2106 92.0178 39.2169 90.4492C39.2221 89.1016 39.2236 87.7541 39.2223 86.4065C39.2215 85.602 39.222 84.7976 39.2261 83.9931C39.2304 83.0959 39.2271 82.1988 39.223 81.3016C39.2264 80.9025 39.2264 80.9025 39.2299 80.4954C39.2238 79.0618 39.2238 79.0618 38.6587 77.7702C37.6562 76.899 36.6746 77.0496 35.3994 77.0361C35.1878 77.0293 34.9761 77.0225 34.7581 77.0155C33.4946 77.0035 32.7284 77.0466 31.8398 78.0469Z" fill="white"/>
<path d="M63.2634 6.95079C64.9208 8.10685 65.7184 9.95037 66.5712 11.7187C66.6931 11.9659 66.815 12.213 66.9406 12.4676C67.8963 14.4156 67.8963 14.4156 68.2166 15.4109C68.5666 16.2428 68.5666 16.2428 69.4108 16.4508C69.7283 16.4933 70.0469 16.5277 70.3661 16.5555C70.6216 16.5877 70.6216 16.5877 70.8822 16.6205C71.427 16.6881 71.9723 16.7455 72.5185 16.8018C78.3441 17.4518 78.3441 17.4518 79.7695 19.1748C80.6394 20.5105 80.9847 21.7739 80.7245 23.3528C80.1628 25.6606 77.9412 27.2844 76.266 28.8303C75.8948 29.1745 75.5299 29.5244 75.1653 29.8755C74.9469 30.0796 74.7285 30.2837 74.5035 30.4939C73.6477 31.7122 73.9986 33.1065 74.2323 34.5053C74.2746 34.7668 74.3169 35.0283 74.3605 35.2977C74.4052 35.5652 74.4499 35.8328 74.496 36.1084C75.3112 41.0024 75.3112 41.0024 73.7782 43.418C72.8415 44.4417 71.5575 44.8943 70.2049 45.0705C67.8773 45.0195 65.6551 43.4601 63.6791 42.3413C63.5226 42.2542 63.3662 42.167 63.205 42.0772C62.9078 41.9108 62.6126 41.7408 62.3198 41.5667C61.3336 41.0122 60.8137 40.985 59.7304 41.25C59.0013 41.5665 59.0013 41.5665 58.2665 41.9742C58.1319 42.0456 57.9973 42.117 57.8586 42.1905C57.4317 42.4171 57.0062 42.6463 56.581 42.876C56.1565 43.1047 55.7317 43.3328 55.3058 43.5589C54.9187 43.7646 54.5329 43.9725 54.1471 44.1805C52.5374 44.9385 51.1418 45.2124 49.4179 44.7656C47.9315 44.0735 46.9969 43.2312 46.371 41.7187C45.9516 39.8718 46.3668 38.1485 46.7079 36.3135C46.8217 35.6909 46.9332 35.068 47.0439 34.4449C47.0945 34.1708 47.1451 33.8968 47.1972 33.6144C47.3163 32.7567 47.4101 32.0347 47.3085 31.1719C46.9014 30.6372 46.551 30.253 46.0597 29.8123C45.9319 29.6901 45.8041 29.568 45.6724 29.4421C45.2644 29.0526 44.8517 28.6689 44.4374 28.2861C40.899 25.0092 40.899 25.0092 40.5116 22.9687C40.4538 21.3936 40.7586 20.2593 41.6835 18.9844C42.97 17.6555 44.3065 17.2925 46.0945 17.0663C46.4507 17.0177 46.8068 16.9691 47.1629 16.9203C47.7209 16.8457 48.2789 16.772 48.8371 16.6998C49.3784 16.6293 49.919 16.5551 50.4598 16.4804C50.7103 16.4496 50.7103 16.4496 50.9658 16.4182C51.5905 16.3303 52.1127 16.2498 52.6444 15.8978C53.0672 15.2704 53.3874 14.6038 53.7053 13.9197C53.8545 13.6089 54.0039 13.2983 54.1535 12.9877C54.3857 12.5016 54.6166 12.015 54.8443 11.5267C55.8493 9.3801 56.7992 7.71987 58.8808 6.45996C60.4236 6.12935 61.8826 6.12253 63.2634 6.95079ZM60.9023 10.7812C60.763 11.0483 60.6237 11.3154 60.4802 11.5906C59.9589 12.5883 59.432 13.5829 58.9045 14.5774C58.5581 15.2352 58.218 15.896 57.8783 16.5573C57.656 16.9807 57.4335 17.404 57.2109 17.8271C57.1089 18.0292 57.007 18.2312 56.902 18.4394C56.8021 18.6268 56.7022 18.8142 56.5993 19.0073C56.5136 19.1728 56.4278 19.3384 56.3395 19.509C55.4617 20.5182 53.9157 20.5162 52.6589 20.6763C52.2917 20.726 51.9246 20.7757 51.5575 20.8255C50.983 20.9017 50.4085 20.9773 49.8339 21.0522C49.2763 21.1254 48.719 21.201 48.1618 21.2769C47.9029 21.3095 47.9029 21.3095 47.6387 21.3427C46.6677 21.4584 46.6677 21.4584 45.9023 22.0312C46.4205 23.0035 47.0251 23.6355 47.8505 24.3603C48.9943 25.3847 50.1108 26.4324 51.205 27.5098C51.3465 27.6463 51.488 27.7828 51.6338 27.9235C52.3516 28.6354 52.9385 29.2196 53.1679 30.2344C53.1441 30.9366 53.1441 30.9366 53.0214 31.7432C52.9997 31.8907 52.978 32.0383 52.9556 32.1903C52.7037 33.8428 52.3902 35.4867 52.0714 37.1273C51.8665 38.2051 51.7066 39.2092 51.7616 40.3125C52.5148 40.1544 53.1413 39.8858 53.828 39.5407C54.0445 39.4322 54.2611 39.3237 54.4842 39.2119C54.7121 39.0965 54.94 38.9812 55.1747 38.8623C55.524 38.6877 55.524 38.6877 55.8803 38.5095C57.2367 37.8277 58.5639 37.1271 59.8448 36.3107C61.1203 35.8406 62.0731 35.8963 63.3052 36.4141C64.1731 36.8576 65.0215 37.3252 65.8681 37.8076C66.1625 37.9714 66.4571 38.1349 66.752 38.2979C67.2951 38.5983 67.8364 38.9015 68.3768 39.2068C69.72 40.0207 69.72 40.0207 71.2148 40.3125C70.942 38.0084 70.569 35.7372 70.1182 33.461C70.0024 32.8555 69.9006 32.2502 69.8085 31.6406C69.7805 31.4738 69.7525 31.307 69.7236 31.1351C69.6582 30.4542 69.7142 29.9177 70.0772 29.3322C70.5094 28.8212 70.9702 28.3583 71.4491 27.8906C71.6606 27.6752 71.872 27.4598 72.0899 27.2378C72.8029 26.5118 73.5245 25.7947 74.247 25.0781C74.4993 24.827 74.7515 24.5759 75.0037 24.3246C75.6151 23.7158 76.2272 23.1077 76.8398 22.5C76.7624 22.268 76.6851 22.0359 76.6054 21.7969C76.3275 21.758 76.0497 21.719 75.7634 21.6789C74.73 21.5335 73.6971 21.3846 72.6643 21.2347C72.2178 21.1703 71.7711 21.1069 71.3242 21.0445C70.681 20.9544 70.0383 20.861 69.3956 20.7669C69.0971 20.7262 69.0971 20.7262 68.7925 20.6847C67.5729 20.502 66.5265 20.3164 65.7475 19.2696C65.6318 19.0378 65.6318 19.0378 65.5138 18.8013C65.4237 18.6252 65.3336 18.4492 65.2408 18.2678C65.1018 17.9844 65.1018 17.9844 64.9599 17.6953C64.757 17.2958 64.5541 16.8963 64.3511 16.4969C64.2474 16.2903 64.1437 16.0838 64.0369 15.871C63.5035 14.8168 62.9491 13.7737 62.3964 12.7295C62.1979 12.3526 61.9996 11.9758 61.8013 11.5988C61.6593 11.329 61.5173 11.0592 61.371 10.7812C61.2163 10.7812 61.0616 10.7812 60.9023 10.7812Z" fill="white"/>
<path d="M26.3183 24.1049C28.2549 25.189 29.0947 27.4812 30.0381 29.3848C30.1446 29.596 30.2511 29.8071 30.3608 30.0247C30.4613 30.2262 30.5617 30.4278 30.6652 30.6354C30.756 30.8174 30.8467 30.9994 30.9402 31.1869C31.1367 31.6406 31.1367 31.6406 31.1367 32.1094C31.305 32.1181 31.4733 32.1269 31.6467 32.1359C33.268 32.2389 34.8749 32.4104 36.4834 32.6367C36.6679 32.6595 36.8525 32.6822 37.0426 32.7057C38.7334 32.958 40.0094 33.6034 41.0977 34.9365C41.6662 36.0888 41.6316 37.4247 41.4492 38.6719C40.9862 39.7919 40.4613 40.3976 39.5165 41.1456C36.9206 43.1759 36.9206 43.1759 35.4407 45.9754C35.4773 47.4637 35.8905 48.846 36.3471 50.2543C36.7568 51.6296 36.8282 53.1164 36.3122 54.4711C35.6528 55.647 34.7633 56.4036 33.4951 56.8945C31.3043 57.1601 29.82 56.4524 27.9278 55.4233C27.7307 55.3166 27.5337 55.2099 27.3306 55.1C26.9325 54.8825 26.5362 54.6617 26.1418 54.4374C25.8639 54.2846 25.8639 54.2846 25.5804 54.1287C25.4149 54.0353 25.2494 53.9418 25.0788 53.8455C24.212 53.5472 23.5981 53.8165 22.7893 54.1873C22.5756 54.3024 22.3619 54.4175 22.1417 54.5361C21.9065 54.6612 21.6713 54.7863 21.4289 54.9152C21.0643 55.1118 21.0643 55.1118 20.6924 55.3125C20.2092 55.5722 19.7255 55.831 19.2413 56.0889C19.0278 56.204 18.8143 56.3191 18.5944 56.4377C17.2562 57.0832 16.0057 57.1406 14.584 56.6748C13.3381 56.0057 12.566 55.153 11.918 53.9063C11.8163 53.3231 11.8163 53.3231 11.8154 52.6611C11.8139 52.3935 11.8124 52.1258 11.8109 51.85C11.8603 51.0472 12.0627 50.3542 12.3107 49.5905C12.9537 47.4439 12.9537 47.4439 12.8555 45.2344C11.7139 43.3676 9.96632 41.9672 8.26725 40.6218C7.47654 39.865 7.05809 39.1046 6.90271 38.02C6.91561 36.5234 6.9883 35.4499 8.05353 34.3076C9.59834 32.86 11.4282 32.7114 13.4561 32.4316C13.7794 32.3845 13.7794 32.3845 14.1093 32.3364C15.1844 32.1849 16.2196 32.0695 17.3086 32.1094C17.3893 31.8343 17.3893 31.8343 17.4716 31.5537C17.8722 30.4394 18.3893 29.402 18.9199 28.3447C19.0217 28.1373 19.1236 27.9299 19.2285 27.7162C19.9594 26.2532 20.6637 24.8715 22.1719 24.0784C23.499 23.6452 24.9997 23.6471 26.3183 24.1049ZM24.1055 28.5938C24.0039 28.796 23.9023 28.9982 23.7976 29.2065C23.419 29.9586 23.0374 30.709 22.6549 31.4591C22.49 31.7835 22.3259 32.1084 22.1626 32.4336C21.9274 32.9019 21.6892 33.3686 21.4504 33.8351C21.3784 33.9802 21.3063 34.1252 21.2321 34.2747C20.8121 35.087 20.4712 35.6665 19.6523 36.0938C19.0497 36.2321 18.4789 36.3371 17.8689 36.4188C17.6986 36.4438 17.5282 36.4688 17.3527 36.4946C16.811 36.5735 16.2688 36.6486 15.7266 36.7236C15.3582 36.7766 14.9898 36.8299 14.6215 36.8834C13.7207 37.0137 12.8195 37.1406 11.918 37.2656C12.2813 38.1403 12.8179 38.6819 13.4927 39.3384C13.7111 39.5532 13.9295 39.768 14.1546 39.9893C14.3855 40.2144 14.6165 40.4393 14.8477 40.6641C15.3007 41.1046 15.7521 41.5467 16.2026 41.9898C16.4034 42.1851 16.6042 42.3804 16.811 42.5816C17.3862 43.2098 17.7676 43.6638 17.7888 44.531C17.766 44.6942 17.7432 44.8575 17.7197 45.0256C17.694 45.2101 17.6684 45.3945 17.642 45.5846C17.438 46.7948 17.1838 47.9932 16.9273 49.1931C16.7277 50.1521 16.5423 51.0452 16.6055 52.0313C16.7269 51.9735 16.8483 51.9157 16.9733 51.8562C17.9486 51.3924 18.9245 50.93 19.9014 50.4694C20.5629 50.1574 21.2218 49.8421 21.8789 49.5209C22.0964 49.4163 22.314 49.3118 22.5381 49.2041C22.7209 49.1144 22.9037 49.0246 23.092 48.9322C24.0718 48.6045 24.8217 48.6591 25.7761 49.0512C26.0308 49.1887 26.2856 49.3261 26.5481 49.4678C26.6855 49.5406 26.8228 49.6134 26.9643 49.6885C27.3996 49.9198 27.8327 50.155 28.2656 50.3906C28.7023 50.6256 29.1393 50.8597 29.577 51.0928C29.9719 51.3036 30.3656 51.5168 30.7593 51.73C31.3275 52.0658 31.3275 52.0658 31.8398 52.0313C31.7592 50.7939 31.6312 49.571 31.4251 48.3481C31.3924 48.1538 31.3597 47.9594 31.3261 47.7592C31.2595 47.3715 31.1909 46.9842 31.12 46.5973C30.8993 45.3105 30.7167 44.0514 31.4279 42.8796C31.5541 42.7479 31.6804 42.6162 31.8105 42.4805C31.9571 42.3255 32.1036 42.1705 32.2546 42.0108C32.5133 41.7502 32.5133 41.7502 32.7773 41.4844C32.9861 41.2696 33.1949 41.0548 33.41 40.8334C34.48 39.741 35.5572 38.6784 36.7617 37.7344C35.9418 37.2504 35.1731 37.1348 34.2358 37.0047C33.9237 36.9584 33.6117 36.9118 33.2997 36.8651C32.8113 36.7936 32.323 36.7236 31.834 36.6571C31.3594 36.5918 30.8861 36.5204 30.4125 36.4481C30.1301 36.4081 29.8476 36.3681 29.5566 36.3269C28.3659 35.9633 27.835 35.2854 27.2158 34.2332C27.0973 33.9855 26.9787 33.7378 26.8566 33.4827C26.6593 33.0775 26.6593 33.0775 26.4579 32.6642C26.323 32.3817 26.1883 32.0991 26.0537 31.8164C25.786 31.2577 25.5161 30.7001 25.2453 30.1428C25.1276 29.8962 25.0098 29.6496 24.8885 29.3955C24.6286 28.8001 24.6286 28.8001 24.1055 28.5938Z" fill="white"/>
<path d="M97.04 23.7891C97.2899 23.777 97.5398 23.7649 97.7972 23.7524C99.2519 24.019 100.311 24.6981 101.17 25.9108C101.562 26.5984 101.913 27.2941 102.255 28.0078C102.436 28.3663 102.436 28.3663 102.621 28.732C103.174 29.8424 103.652 30.9248 104.027 32.1094C104.284 32.1225 104.284 32.1225 104.546 32.1359C106.141 32.2364 107.708 32.4151 109.286 32.666C109.463 32.6927 109.641 32.7194 109.823 32.7469C111.638 33.0482 112.771 33.6281 113.871 35.1562C114.444 36.1657 114.543 37.3044 114.34 38.4375C113.556 40.5734 111.842 41.8474 110.143 43.288C108.852 44.4551 108.852 44.4551 108.428 46.0781C108.545 46.9174 108.722 47.7 108.949 48.5156C109.913 53.1845 109.913 53.1845 108.762 55.1596C108.012 56.1929 107.125 56.6596 105.902 56.9531C103.978 57.1752 102.465 56.3189 100.818 55.4233C100.621 55.3166 100.424 55.2099 100.221 55.1C99.8231 54.8825 99.4268 54.6617 99.0325 54.4374C98.7545 54.2846 98.7545 54.2846 98.471 54.1287C98.3055 54.0353 98.14 53.9418 97.9695 53.8455C97.1026 53.5472 96.4887 53.8165 95.68 54.1873C95.4662 54.3024 95.2525 54.4175 95.0323 54.5361C94.7971 54.6612 94.5619 54.7863 94.3195 54.9152C93.955 55.1118 93.955 55.1118 93.583 55.3125C93.0998 55.5722 92.6161 55.831 92.1319 56.0889C91.9184 56.204 91.705 56.3191 91.485 56.4377C90.146 57.0836 88.8918 57.1488 87.4746 56.6602C86.1019 55.9484 85.4209 55.3344 84.8086 53.9062C84.707 53.2407 84.707 53.2407 84.7061 52.5146C84.7042 52.227 84.7024 51.9394 84.7006 51.6431C84.7478 50.838 84.9459 50.1625 85.2096 49.4019C85.8647 47.3517 85.8647 47.3517 85.7461 45.2344C84.5152 43.2966 82.6892 41.8175 80.9184 40.3861C79.9746 39.4768 79.8127 38.5881 79.7842 37.3096C79.8108 35.9551 80.0678 34.9426 81.0586 33.9844C82.5118 32.9311 84.0088 32.7582 85.7607 32.5195C86.0322 32.479 86.3037 32.4386 86.5833 32.3969C87.8016 32.2205 88.9663 32.0878 90.1992 32.1094C90.2512 31.9308 90.3031 31.7523 90.3567 31.5683C90.7869 30.3725 91.3375 29.2496 91.8984 28.1104C92.0075 27.8806 92.1166 27.6508 92.2289 27.4141C93.2908 25.2596 94.5143 23.8615 97.04 23.7891ZM96.9961 28.3594C96.8945 28.5687 96.7929 28.778 96.6882 28.9937C96.3098 29.7719 95.9281 30.5486 95.5456 31.3248C95.3806 31.6606 95.2165 31.9969 95.0532 32.3335C94.8181 32.8181 94.5799 33.3011 94.3411 33.7839C94.269 33.934 94.1969 34.0842 94.1227 34.2389C93.7079 35.069 93.3772 35.6636 92.543 36.0938C91.9403 36.2321 91.3695 36.3371 90.7595 36.4188C90.5892 36.4438 90.4188 36.4688 90.2433 36.4946C89.7016 36.5735 89.1595 36.6486 88.6172 36.7236C88.2488 36.7766 87.8805 36.8299 87.5121 36.8834C86.6114 37.0137 85.7101 37.1406 84.8086 37.2656C85.1734 38.1443 85.7164 38.6929 86.3915 39.3549C86.611 39.5718 86.8305 39.7887 87.0567 40.0122C87.2887 40.2393 87.5208 40.4664 87.7529 40.6934C88.2081 41.14 88.6623 41.5876 89.1161 42.0355C89.3181 42.2333 89.5201 42.4311 89.7282 42.6348C90.5398 43.4795 90.4898 44.104 90.4785 45.2314C90.3945 46.5526 90.1146 47.8365 89.8477 49.1309C89.7638 49.551 89.7638 49.551 89.6783 49.9796C89.5414 50.6639 89.4025 51.3477 89.2617 52.0312C90.223 51.7338 91.0783 51.3737 91.9616 50.8932C92.3212 50.7036 92.3212 50.7036 92.6881 50.5101C93.186 50.2454 93.6823 49.9775 94.1767 49.7063C96.4686 48.5107 96.4686 48.5107 97.8428 48.7881C99.1064 49.2314 100.265 49.8769 101.435 50.5225C101.959 50.8067 102.483 51.0903 103.008 51.373C103.238 51.4991 103.468 51.6253 103.704 51.7553C104.228 52.0659 104.228 52.0659 104.73 52.0312C104.663 51.4257 104.595 50.8202 104.525 50.2148C104.505 50.0334 104.484 49.852 104.463 49.6651C104.315 48.4026 104.117 47.1603 103.856 45.9155C103.835 45.6907 103.814 45.466 103.793 45.2344C103.775 45.0859 103.757 44.9374 103.738 44.7845C103.717 43.6123 104.085 42.9581 104.878 42.0978C105.483 41.4816 106.107 40.8884 106.737 40.2979C106.996 40.0482 107.255 39.7981 107.513 39.5476C108.143 38.938 108.779 38.3346 109.418 37.7344C108.612 37.1972 108.103 37.1366 107.149 37.0047C106.836 36.9583 106.524 36.9118 106.211 36.8651C105.72 36.7936 105.229 36.7237 104.737 36.6571C104.261 36.5918 103.786 36.5203 103.311 36.4481C103.027 36.4081 102.743 36.3681 102.451 36.3269C101.233 35.9567 100.712 35.2603 100.077 34.1864C99.9461 33.9176 99.8148 33.6488 99.6795 33.3719C99.6083 33.2279 99.5372 33.0839 99.4638 32.9355C99.2396 32.4805 99.0187 32.024 98.7979 31.5674C98.6453 31.2565 98.4926 30.9456 98.3396 30.6349C97.9674 29.8776 97.5981 29.1189 97.2305 28.3594C97.1531 28.3594 97.0758 28.3594 96.9961 28.3594Z" fill="white"/>
</svg>
