<svg width="120" height="120" viewBox="0 0 120 120" fill="none" xmlns="http://www.w3.org/2000/svg">
<g opacity="0.2">
<path d="M14.4716 16.6093C14.7107 16.6085 14.7107 16.6085 14.9548 16.6076C15.4916 16.6061 16.0284 16.6062 16.5652 16.6063C16.9529 16.6055 17.3407 16.6046 17.7285 16.6037C18.7961 16.6013 19.8637 16.6004 20.9313 16.5998C22.0819 16.5989 23.2326 16.5967 24.3833 16.5946C27.1631 16.59 29.9429 16.5876 32.7227 16.5855C34.0316 16.5845 35.3404 16.5832 36.6492 16.582C40.9997 16.578 45.3502 16.5746 49.7007 16.5729C50.8297 16.5725 51.9588 16.572 53.0879 16.5716C53.3685 16.5715 53.6491 16.5714 53.9382 16.5712C58.4849 16.5693 63.0315 16.5633 67.5782 16.5557C72.2454 16.548 76.9125 16.5438 81.5797 16.543C84.2005 16.5425 86.8212 16.5405 89.442 16.5345C91.6738 16.5294 93.9056 16.5275 96.1374 16.5298C97.276 16.5308 98.4145 16.5304 99.5531 16.5258C100.596 16.5217 101.639 16.5219 102.682 16.5256C103.059 16.5261 103.435 16.5251 103.812 16.5223C106.622 16.5029 108.819 16.7986 110.918 18.7831C113.104 21.1012 113.24 23.6398 113.235 26.6979C113.236 26.9504 113.236 27.2028 113.237 27.4629C113.238 28.3062 113.238 29.1494 113.238 29.9926C113.239 30.5983 113.239 31.204 113.24 31.8097C113.242 33.2826 113.243 34.7556 113.243 36.2285C113.243 37.4263 113.244 38.6242 113.244 39.822C113.246 43.2219 113.247 46.6218 113.247 50.0216C113.247 50.2963 113.247 50.2963 113.247 50.5764C113.247 50.7597 113.247 50.9431 113.247 51.1319C113.247 54.1021 113.249 57.0723 113.253 60.0426C113.256 63.0961 113.258 66.1495 113.257 69.203C113.257 70.9159 113.258 72.6287 113.261 74.3415C113.263 75.9526 113.263 77.5637 113.261 79.1749C113.261 79.7653 113.261 80.3557 113.263 80.9461C113.265 81.7538 113.264 82.5616 113.262 83.3693C113.263 83.6013 113.264 83.8333 113.265 84.0722C113.252 86.8582 112.857 89.2371 110.946 91.3633C108.655 93.489 106.103 93.5436 103.126 93.5158C103.126 95.604 103.126 97.6923 103.126 99.8439C103.823 99.833 104.52 99.8221 105.238 99.8109C105.914 99.8036 106.591 99.7979 107.267 99.7924C107.736 99.7877 108.206 99.7813 108.675 99.7732C109.351 99.7618 110.026 99.7565 110.702 99.7523C110.911 99.7475 111.12 99.7426 111.336 99.7377C112.305 99.7373 112.837 99.7662 113.689 100.267C114.141 100.781 114.141 100.781 114.273 101.602C114.118 102.565 113.977 102.785 113.204 103.36C112.58 103.451 112.053 103.486 111.429 103.477C111.249 103.479 111.068 103.48 110.882 103.482C110.274 103.485 109.666 103.482 109.058 103.479C108.619 103.48 108.18 103.481 107.741 103.483C106.531 103.487 105.322 103.485 104.113 103.482C102.81 103.48 101.507 103.483 100.204 103.486C97.6499 103.49 95.0961 103.489 92.5423 103.486C90.4674 103.484 88.3925 103.484 86.3176 103.485C86.0227 103.485 85.7278 103.485 85.4239 103.485C84.8249 103.486 84.2258 103.486 83.6268 103.486C78.1652 103.489 72.7036 103.486 67.2421 103.481C62.2542 103.477 57.2663 103.477 52.2784 103.482C46.6771 103.487 41.0758 103.489 35.4744 103.486C34.8775 103.486 34.2806 103.485 33.6837 103.485C33.39 103.485 33.0963 103.485 32.7937 103.485C30.7205 103.484 28.6472 103.485 26.574 103.487C24.0486 103.49 21.5233 103.489 18.9979 103.484C17.7086 103.482 16.4193 103.481 15.1299 103.484C13.9508 103.487 12.7718 103.485 11.5927 103.48C11.1649 103.479 10.7372 103.48 10.3095 103.482C9.73024 103.485 9.1513 103.482 8.57207 103.477C8.40409 103.48 8.2361 103.482 8.06303 103.484C7.28035 103.472 6.86152 103.407 6.22612 102.935C5.68619 102.179 5.71466 101.686 5.86004 100.781C6.35847 100.215 6.76122 99.8887 7.51827 99.7633C8.11436 99.7353 8.70309 99.7385 9.29968 99.7523C9.51651 99.7537 9.73335 99.755 9.95675 99.7563C10.647 99.7616 11.3369 99.7733 12.027 99.7853C12.4959 99.79 12.9648 99.7943 13.4337 99.7981C14.5813 99.8076 15.7281 99.826 16.8757 99.8439C16.8757 97.7556 16.8757 95.6673 16.8757 93.5158C16.1361 93.5375 16.1361 93.5375 15.3815 93.5597C12.9395 93.5523 11.0242 93.0044 9.14129 91.4064C6.9687 89.1152 6.76153 86.5039 6.7662 83.4868C6.76567 83.2345 6.76514 82.9823 6.76459 82.7224C6.76311 81.8784 6.7633 81.0345 6.7635 80.1905C6.76279 79.5848 6.762 78.9792 6.76111 78.3735C6.75917 76.8998 6.75852 75.426 6.75839 73.9523C6.75828 72.7538 6.7578 71.5552 6.75705 70.3567C6.75499 66.9555 6.75391 63.5542 6.75408 60.153C6.75409 59.9697 6.7541 59.7865 6.75411 59.5978C6.75413 59.3226 6.75413 59.3226 6.75414 59.0419C6.75424 56.0701 6.75199 53.0984 6.74869 50.1266C6.74532 47.0721 6.7437 44.0176 6.74391 40.963C6.74398 39.2494 6.74335 37.5358 6.74082 35.8222C6.73845 34.2101 6.73853 32.598 6.74024 30.9859C6.74048 30.3952 6.73993 29.8044 6.73851 29.2136C6.7367 28.4053 6.73779 27.5971 6.7396 26.7888C6.73839 26.5566 6.73719 26.3245 6.73594 26.0854C6.74973 23.2752 7.11067 20.7912 9.0827 18.6915C10.6897 17.1655 12.2815 16.6125 14.4716 16.6093ZM11.1761 21.7264C10.4753 22.8541 10.2844 23.9417 10.2824 25.2454C10.2815 25.462 10.2806 25.6785 10.2796 25.9017C10.2798 26.1376 10.28 26.3735 10.2803 26.6165C10.2796 26.8687 10.2789 27.1209 10.2781 27.3807C10.2761 28.2272 10.2758 29.0737 10.2754 29.9203C10.2743 30.5266 10.2731 31.133 10.2719 31.7393C10.2687 33.3877 10.2673 35.0361 10.2662 36.6845C10.2656 37.7142 10.2646 38.7439 10.2636 39.7736C10.2607 42.6258 10.2583 45.478 10.2575 48.3302C10.2574 48.5127 10.2574 48.6951 10.2573 48.8831C10.2573 49.066 10.2572 49.2489 10.2572 49.4373C10.2571 49.8079 10.257 50.1785 10.2569 50.5491C10.2568 50.733 10.2568 50.9168 10.2567 51.1062C10.2558 54.0844 10.2517 57.0625 10.2462 60.0407C10.2407 63.1 10.2378 66.1592 10.2375 69.2185C10.2373 70.9356 10.2359 72.6525 10.2317 74.3696C10.2277 75.9847 10.2273 77.5998 10.2294 79.215C10.2295 79.8075 10.2285 80.4 10.2262 80.9925C10.2232 81.802 10.2246 82.6114 10.227 83.421C10.2251 83.6548 10.2233 83.8886 10.2213 84.1295C10.2326 85.7281 10.3991 87.3137 11.3944 88.6223C12.761 89.681 13.7719 90.0211 15.5179 90.0093C15.772 90.008 16.026 90.0066 16.2877 90.0053C16.5788 90.0027 16.5788 90.0027 16.8757 90.0001C16.8777 89.783 16.8777 89.783 16.8798 89.5615C16.8948 88.0559 16.9146 86.5504 16.9372 85.0448C16.945 84.4829 16.9515 83.9209 16.9569 83.3589C16.9647 82.5513 16.977 81.7439 16.9901 80.9364C16.9924 80.5592 16.9924 80.5592 16.9946 80.1743C17.0016 79.8225 17.0016 79.8225 17.0087 79.4636C17.0113 79.2575 17.0139 79.0514 17.0166 78.839C17.1345 78.1355 17.285 77.8271 17.8132 77.3439C18.4891 77.2264 18.4891 77.2264 19.3233 77.2263C19.5515 77.2244 19.5515 77.2244 19.7843 77.2225C20.2871 77.2195 20.7895 77.2234 21.2922 77.2276C21.6416 77.2276 21.9909 77.2272 22.3403 77.2266C23.0725 77.2263 23.8045 77.2292 24.5367 77.2345C25.4754 77.2412 26.4139 77.2405 27.3527 77.2376C28.0741 77.2359 28.7955 77.2378 29.5169 77.2407C29.863 77.2417 30.2092 77.2418 30.5553 77.2409C31.039 77.2402 31.5225 77.2441 32.0061 77.2492C32.2814 77.2504 32.5567 77.2517 32.8403 77.253C33.5163 77.3439 33.5163 77.3439 33.9559 77.6278C34.3059 78.1846 34.3127 78.5675 34.3208 79.2241C34.3254 79.4633 34.33 79.7026 34.3348 79.9491C34.3363 80.2069 34.3378 80.4648 34.3394 80.7304C34.3436 80.9947 34.3478 81.2591 34.3521 81.5314C34.3648 82.3767 34.3727 83.2221 34.3806 84.0675C34.3883 84.6402 34.3964 85.2128 34.4048 85.7855C34.4253 87.1904 34.4394 88.5951 34.4538 90.0001C36.2327 90.0001 38.0116 90.0001 39.8444 90.0001C39.8465 89.3682 39.8465 89.3682 39.8486 88.7236C39.862 84.7608 39.879 80.798 39.8997 76.8352C39.9102 74.7977 39.9194 72.7602 39.9256 70.7227C39.931 68.9472 39.9388 67.1717 39.9496 65.3961C39.9552 64.4557 39.9596 63.5153 39.961 62.5748C39.9625 61.6901 39.9671 60.8054 39.9743 59.9207C39.9764 59.5956 39.9773 59.2705 39.9768 58.9454C39.9765 58.5022 39.9808 58.0591 39.9853 57.616C39.9864 57.3677 39.9875 57.1195 39.9886 56.8637C40.0788 56.2501 40.0788 56.2501 40.3939 55.819C41.0057 55.3901 41.5539 55.4539 42.2921 55.4486C42.4442 55.4466 42.5964 55.4446 42.7531 55.4426C43.2558 55.4371 43.7582 55.4369 44.2609 55.4371C44.6103 55.4355 44.9597 55.4337 45.3091 55.4317C46.0412 55.4286 46.7733 55.4282 47.5054 55.4296C48.4442 55.431 49.3827 55.4238 50.3214 55.4143C51.0429 55.4083 51.7642 55.4076 52.4857 55.4084C52.8318 55.408 53.1779 55.4058 53.524 55.4016C54.0078 55.3964 54.4911 55.3987 54.9749 55.4028C55.2502 55.4023 55.5254 55.4018 55.8091 55.4014C56.485 55.547 56.485 55.547 56.873 56.0543C57.2292 56.8055 57.278 57.2951 57.2816 58.1233C57.2846 58.4049 57.2875 58.6866 57.2905 58.9768C57.2902 59.2837 57.2898 59.5907 57.2895 59.907C57.2916 60.2351 57.294 60.5632 57.2967 60.8912C57.3032 61.7802 57.3054 62.6692 57.3068 63.5582C57.309 64.4878 57.3151 65.4174 57.3208 66.3471C57.3311 68.1068 57.3378 69.8665 57.3432 71.6262C57.3495 73.6298 57.3598 75.6335 57.3704 77.6371C57.3922 81.7581 57.4089 85.8791 57.4225 90.0001C59.1241 90.0001 60.8257 90.0001 62.5788 90.0001C62.5834 89.508 62.5881 89.016 62.5929 88.509C62.6085 86.8831 62.6267 85.2572 62.6462 83.6314C62.6579 82.6456 62.6687 81.6599 62.6777 80.6741C62.6863 79.7228 62.6972 78.7715 62.7096 77.8202C62.7139 77.4573 62.7175 77.0943 62.7202 76.7314C62.7242 76.223 62.731 75.7147 62.7384 75.2064C62.7416 74.917 62.7447 74.6276 62.7479 74.3295C62.8098 73.6313 62.8925 73.2317 63.2819 72.6564C63.937 72.3289 64.4799 72.3886 65.2127 72.3842C65.5201 72.382 65.8275 72.3797 66.1442 72.3774C66.4813 72.3763 66.8184 72.3753 67.1555 72.3744C67.5 72.3731 67.8444 72.3717 68.1889 72.3704C68.9114 72.3679 69.6339 72.3665 70.3564 72.3657C71.2827 72.3644 72.209 72.3588 73.1353 72.3521C73.8469 72.3478 74.5584 72.3465 75.27 72.3462C75.6116 72.3455 75.9531 72.3436 76.2947 72.3405C76.7721 72.3365 77.2496 72.3374 77.7271 72.3385C77.9989 72.3376 78.2707 72.3368 78.5508 72.3359C79.2194 72.422 79.2194 72.422 79.6579 72.677C80.064 73.3646 80.017 73.9602 80.0239 74.754C80.0263 74.9187 80.0287 75.0834 80.0311 75.2531C80.0382 75.7972 80.0404 76.3411 80.0425 76.8852C80.0464 77.2625 80.0507 77.6399 80.0552 78.0172C80.0664 79.0101 80.0734 80.003 80.0795 80.996C80.0865 82.0093 80.0974 83.0226 80.1079 84.0359C80.1281 86.024 80.1435 88.012 80.1569 90.0001C81.9358 90.0001 83.7147 90.0001 85.5475 90.0001C85.55 89.529 85.5524 89.0578 85.5549 88.5723C85.5777 84.1404 85.6018 79.7086 85.6271 75.2767C85.64 72.998 85.6526 70.7194 85.6641 68.4407C85.6741 66.455 85.685 64.4694 85.6968 62.4837C85.703 61.4319 85.7089 60.3801 85.7137 59.3284C85.7183 58.339 85.724 57.3496 85.7305 56.3603C85.7327 55.9966 85.7345 55.633 85.7358 55.2693C85.7378 54.7738 85.7411 54.2783 85.7448 53.7829C85.7471 53.3664 85.7471 53.3664 85.7494 52.9416C85.7819 52.2658 85.7819 52.2658 86.0163 51.5626C88.1127 51.5409 90.209 51.5243 92.3055 51.5141C93.279 51.5092 94.2523 51.5025 95.2258 51.4919C96.1649 51.4817 97.104 51.4761 98.0432 51.4737C98.4018 51.472 98.7603 51.4686 99.1189 51.4635C99.6206 51.4567 100.122 51.4558 100.624 51.4562C100.91 51.4541 101.195 51.452 101.49 51.4499C102.188 51.5626 102.188 51.5626 102.578 51.9424C102.99 52.6754 102.981 53.1964 102.985 54.0365C102.986 54.1904 102.988 54.3444 102.989 54.503C102.994 55.0183 102.993 55.5336 102.993 56.0489C102.995 56.4185 102.997 56.7881 103 57.1577C103.006 58.161 103.009 59.1642 103.01 60.1675C103.012 61.2161 103.018 62.2646 103.024 63.3131C103.034 65.2985 103.041 67.284 103.046 69.2695C103.053 71.5299 103.063 73.7903 103.074 76.0507C103.095 80.7005 103.112 85.3503 103.126 90.0001C103.573 90.0069 104.02 90.0117 104.468 90.0157C104.717 90.0186 104.966 90.0215 105.223 90.0244C106.653 89.9758 107.625 89.5823 108.604 88.5353C109.834 87.0928 109.756 85.2733 109.749 83.4836C109.75 83.2311 109.751 82.9785 109.752 82.7182C109.754 81.8732 109.753 81.0281 109.753 80.183C109.754 79.5766 109.755 78.9702 109.756 78.3638C109.759 76.8883 109.76 75.4129 109.759 73.9374C109.759 72.7378 109.759 71.5381 109.76 70.3385C109.76 70.0821 109.76 70.0821 109.76 69.8206C109.761 69.4734 109.761 69.1262 109.761 68.779C109.764 65.5246 109.763 62.2702 109.762 59.0158C109.761 56.0407 109.763 53.0656 109.768 50.0905C109.772 47.0333 109.774 43.9761 109.773 40.9189C109.773 39.2035 109.774 37.4881 109.777 35.7726C109.78 34.1594 109.779 32.5462 109.776 30.9329C109.776 30.3412 109.776 29.7495 109.778 29.1577C109.781 28.3492 109.779 27.5409 109.776 26.7324C109.778 26.4989 109.779 26.2654 109.781 26.0249C109.768 24.3012 109.488 22.8294 108.56 21.3576C107.495 20.3231 106.473 20.0685 105.017 20.0666C104.779 20.0648 104.779 20.0648 104.536 20.0631C104.005 20.06 103.474 20.062 102.943 20.0639C102.559 20.0628 102.174 20.0613 101.79 20.0596C100.733 20.0558 99.6761 20.0563 98.6193 20.0576C97.4795 20.0582 96.3397 20.0548 95.1999 20.0519C92.967 20.047 90.7342 20.0459 88.5013 20.0464C86.6865 20.0467 84.8718 20.0458 83.057 20.044C82.5345 20.0435 82.012 20.0431 81.4895 20.0426C81.0994 20.0422 81.0994 20.0422 80.7015 20.0418C75.7819 20.0374 70.8623 20.0376 65.9427 20.0392C61.4412 20.0405 56.9398 20.0357 52.4383 20.0279C47.8172 20.02 43.1961 20.0164 38.575 20.0175C35.9802 20.0181 33.3854 20.0168 30.7906 20.011C28.5816 20.0061 26.3726 20.0052 24.1636 20.0097C23.0365 20.0118 21.9094 20.0121 20.7823 20.0072C19.7503 20.0028 18.7185 20.0039 17.6865 20.0092C17.3133 20.0102 16.9401 20.0092 16.567 20.006C13.5194 19.9666 13.5194 19.9666 11.1761 21.7264ZM89.0632 54.8439C89.0632 69.6939 89.0632 84.5439 89.0632 99.8439C92.5436 99.8439 96.0241 99.8439 99.61 99.8439C99.61 84.9939 99.61 70.1439 99.61 54.8439C96.1296 54.8439 92.6491 54.8439 89.0632 54.8439ZM43.36 58.8283C43.36 72.3634 43.36 85.8986 43.36 99.8439C46.8405 99.8439 50.321 99.8439 53.9069 99.8439C53.9069 86.3087 53.9069 72.7736 53.9069 58.8283C50.4264 58.8283 46.946 58.8283 43.36 58.8283ZM66.0944 75.7033C66.0944 83.6697 66.0944 91.6361 66.0944 99.8439C69.5749 99.8439 73.0554 99.8439 76.6413 99.8439C76.6413 91.8775 76.6413 83.9111 76.6413 75.7033C73.1608 75.7033 69.6804 75.7033 66.0944 75.7033ZM20.3913 80.6251C20.3913 86.9673 20.3913 93.3095 20.3913 99.8439C23.8718 99.8439 27.3522 99.8439 30.9382 99.8439C30.9382 93.5017 30.9382 87.1595 30.9382 80.6251C27.4577 80.6251 23.9772 80.6251 20.3913 80.6251ZM34.4538 93.5158C34.4538 95.604 34.4538 97.6923 34.4538 99.8439C36.2327 99.8439 38.0116 99.8439 39.8444 99.8439C39.8444 97.7556 39.8444 95.6673 39.8444 93.5158C38.0655 93.5158 36.2866 93.5158 34.4538 93.5158ZM57.4225 93.5158C57.4225 95.604 57.4225 97.6923 57.4225 99.8439C59.1241 99.8439 60.8257 99.8439 62.5788 99.8439C62.5788 97.7556 62.5788 95.6673 62.5788 93.5158C60.8772 93.5158 59.1757 93.5158 57.4225 93.5158ZM80.1569 93.5158C80.1569 95.604 80.1569 97.6923 80.1569 99.8439C81.9358 99.8439 83.7147 99.8439 85.5475 99.8439C85.5475 97.7556 85.5475 95.6673 85.5475 93.5158C83.7686 93.5158 81.9897 93.5158 80.1569 93.5158Z" fill="white"/>
<path d="M52.9118 31.8605C54.4134 33.1225 55.2834 34.9067 55.5485 36.841C55.6088 38.0881 55.4087 39.3594 54.8867 40.5003C54.7841 41.0658 54.7841 41.0658 55.2752 41.588C55.5975 41.9076 55.5975 41.9076 55.9264 42.2335C56.0441 42.3518 56.1618 42.47 56.2831 42.5919C56.6739 42.9831 57.0688 43.3699 57.4638 43.7569C57.7359 44.0274 58.0078 44.2982 58.2795 44.5692C58.9964 45.283 59.7168 45.993 60.438 46.7025C61.0257 47.2819 61.6108 47.864 62.1958 48.4462C62.893 49.1398 63.5913 49.8323 64.29 50.5244C64.4234 50.6567 64.5568 50.789 64.6943 50.9253C65.0724 51.2996 65.4514 51.673 65.8306 52.0462C66.0462 52.2588 66.2619 52.4714 66.4841 52.6905C67.0317 53.23 67.0317 53.23 67.736 53.672C68.4019 53.5888 68.9736 53.4157 69.611 53.2033C70.1671 53.1746 70.7241 53.1621 71.2809 53.1593C71.5764 53.156 71.8719 53.1527 72.1763 53.1492C72.7211 53.1506 73.0757 53.1804 73.5757 53.4045C74.1894 53.6645 74.5678 53.7368 75.236 53.672C76.3768 52.9387 77.2834 51.982 78.2271 51.0152C78.5085 50.7348 78.7904 50.4549 79.0726 50.1754C79.6621 49.5886 80.2467 48.9976 80.8282 48.403C81.5737 47.6416 82.3297 46.8916 83.0896 46.1446C83.6731 45.5685 84.251 44.987 84.8272 44.4036C85.1039 44.1248 85.3823 43.8476 85.6624 43.5722C86.0533 43.1862 86.4359 42.7934 86.8172 42.3979C86.9339 42.2855 87.0506 42.1732 87.1708 42.0574C87.5377 41.691 87.5377 41.691 87.8923 41.0158C87.853 40.5016 87.7401 40.0741 87.5724 39.5873C87.0306 37.9618 87.1914 35.8754 87.9069 34.3361C88.8904 32.6731 90.2293 31.2796 92.111 30.7033C94.4642 30.2658 96.4926 30.4265 98.4977 31.7872C100.098 33.0928 101.084 34.8044 101.31 36.8602C101.407 38.7793 100.847 40.4192 99.8161 42.0265C98.1496 43.5843 96.5181 44.3389 94.2497 44.341C94.0838 44.3438 93.918 44.3467 93.7471 44.3497C92.765 44.3524 92.071 44.1988 91.1735 43.8283C90.2216 43.9129 89.7672 44.4477 89.1155 45.1071C89.0075 45.2153 88.8995 45.3236 88.7883 45.4351C88.4321 45.793 88.0784 46.1532 87.7247 46.5135C87.4768 46.7633 87.2287 47.013 86.9805 47.2624C86.3271 47.9199 85.6757 48.5792 85.0249 49.2392C83.9845 50.2934 82.9412 51.3447 81.8977 52.3958C81.5345 52.7623 81.1722 53.1297 80.81 53.4972C80.5856 53.7239 80.3613 53.9506 80.1369 54.1772C79.9425 54.3743 79.7481 54.5713 79.5477 54.7744C78.9945 55.3046 78.4199 55.7814 77.8142 56.2501C77.8915 56.5305 77.9688 56.8109 78.0485 57.0998C78.4927 59.1404 78.6599 61.3852 77.6548 63.2759C76.508 65.0335 75.1032 66.4318 73.0058 66.9398C70.883 67.2736 69.0263 66.9197 67.1968 65.7487C65.7493 64.5957 64.8092 62.994 64.4548 61.172C64.4219 60.8117 64.4033 60.4498 64.3962 60.088C64.3871 59.8152 64.3871 59.8152 64.3779 59.5369C64.4928 58.4782 64.8306 57.4949 65.1579 56.4845C64.3252 55.6459 63.4916 54.8082 62.6574 53.9711C62.3744 53.687 62.0917 53.4026 61.8091 53.1181C60.4576 51.757 59.1149 50.4093 57.6523 49.1668C57.0642 48.6378 56.5198 48.0743 55.9706 47.505C55.7599 47.2872 55.5491 47.0694 55.332 46.8449C55.0053 46.5055 54.6787 46.1661 54.3555 45.8233C54.0378 45.4872 53.7152 45.1557 53.3925 44.8244C53.2043 44.6274 53.0162 44.4304 52.8224 44.2274C52.2979 43.7611 52.2979 43.7611 51.655 43.8685C51.4703 43.9326 51.2857 43.9967 51.0954 44.0626C50.2368 44.3489 49.4406 44.3402 48.5466 44.341C48.3807 44.3438 48.2148 44.3467 48.0439 44.3497C47.0618 44.3524 46.3678 44.1988 45.4704 43.8283C44.7171 43.9326 44.3376 44.1716 43.8108 44.7087C43.6761 44.8441 43.5415 44.9796 43.4028 45.1191C43.2597 45.2666 43.1166 45.414 42.9692 45.5659C42.8189 45.7178 42.6686 45.8696 42.5137 46.0261C42.0328 46.5125 41.5542 47.0013 41.0759 47.4904C40.6005 47.974 40.1246 48.4571 39.648 48.9396C39.3519 49.2396 39.0565 49.5404 38.7621 49.842C37.8912 50.7273 36.9876 51.5562 36.0475 52.3674C35.5533 52.7985 35.085 53.2494 34.6232 53.715C34.4601 53.8789 34.2969 54.0429 34.1288 54.2117C33.9657 54.3768 33.8026 54.5419 33.6345 54.7121C33.4641 54.8835 33.2937 55.055 33.1181 55.2316C32.7037 55.6487 32.2899 56.0663 31.8766 56.4845C31.9262 56.6206 31.9758 56.7568 32.0269 56.897C32.7901 59.0707 32.9366 61.0672 31.9508 63.2072C30.8443 65.1543 29.328 66.2998 27.1782 66.9398C25.3355 67.3084 23.6981 66.9314 22.0329 66.0939C20.381 64.9531 19.3093 63.5809 18.7516 61.6408C18.5097 59.4239 18.7836 57.5729 20.0508 55.7219C21.1259 54.386 22.3036 53.738 23.9079 53.2033C24.4687 53.1687 25.0306 53.1514 25.5925 53.1447C25.8907 53.1386 26.1889 53.1326 26.4961 53.1264C27.2693 53.1905 27.7206 53.2843 28.419 53.5596C28.5846 53.6242 28.7503 53.6888 28.921 53.7553C29.1079 53.8301 29.1079 53.8301 29.2985 53.9064C31.0024 52.2895 32.6959 50.6626 34.3771 49.0221C35.1582 48.2605 35.9424 47.5029 36.7347 46.7531C37.4998 46.0288 38.2553 45.2957 39.0051 44.5556C39.2922 44.2754 39.5826 43.9986 39.8762 43.7252C40.7774 42.8839 41.5759 42.0921 42.1891 41.0158C42.2061 39.8811 41.8789 39.018 41.486 37.9689C41.3509 36.0526 42.0714 34.3866 43.1266 32.8126C45.7411 29.9886 49.793 29.7114 52.9118 31.8605ZM46.1735 34.922C45.43 35.822 45.0252 36.5591 45.0016 37.7345C45.2854 39.0302 45.7357 39.8156 46.8766 40.547C47.7467 40.9821 48.7396 40.8864 49.6892 40.7814C50.7321 40.2694 51.3282 39.7364 51.7985 38.672C52.0873 37.6517 52.0883 37.0002 51.652 36.0499C51.095 35.0757 50.5563 34.4012 49.4374 34.0788C48.1085 33.8464 47.2001 34.0341 46.1735 34.922ZM91.2907 35.5519C90.7742 36.6924 90.6808 37.7207 91.1104 38.9128C91.5897 39.8382 92.0731 40.4209 93.0485 40.7814C94.212 40.9373 95.1101 40.912 96.1833 40.4152C97.053 39.6076 97.6634 38.8985 97.79 37.686C97.7327 36.4397 97.3369 35.6657 96.4735 34.7755C95.8103 34.2103 95.2266 34.0337 94.3815 33.8966C93.1104 34.074 92.1598 34.6177 91.2907 35.5519ZM22.6481 58.3009C22.1109 59.3753 22.0488 60.2646 22.4138 61.389C22.9 62.4028 23.5504 62.9328 24.5753 63.3775C25.661 63.6751 26.5646 63.441 27.5993 63.0177C28.5886 62.1933 29.0134 61.3506 29.1667 60.1027C29.0126 58.8922 28.6686 58.1683 27.7604 57.3488C25.8813 56.0478 24.083 56.6395 22.6481 58.3009ZM68.4831 58.0519C68.0441 58.9068 67.9454 59.7473 67.9704 60.7033C68.3662 61.9138 69.0234 62.5838 70.0798 63.2814C71.1129 63.6493 71.9469 63.5953 72.9509 63.1642C73.9029 62.6169 74.4281 61.9827 74.7673 60.9376C74.956 59.9211 74.8462 59.2068 74.3425 58.2863C73.3865 57.0858 73.3865 57.0858 71.9429 56.663C70.4052 56.6126 69.6214 56.9921 68.4831 58.0519Z" fill="white"/>
</g>
</svg>
