<svg width="120" height="120" viewBox="0 0 120 120" fill="none" xmlns="http://www.w3.org/2000/svg">
<g clip-path="url(#clip0_160_29)">
<path d="M118.475 0.380866C119.533 1.3862 120.054 2.08697 120.093 3.56718C120.063 5.45928 119.469 7.13244 118.866 8.90176C118.743 9.2743 118.62 9.64696 118.497 10.0197C118.16 11.0381 117.819 12.0546 117.476 13.0709C117.107 14.1694 116.742 15.2695 116.377 16.3694C115.663 18.5214 114.943 20.6718 114.222 22.8217C113.383 25.3257 112.547 27.8312 111.712 30.3368C110.223 34.8068 108.729 39.2754 107.233 43.7433C105.781 48.0787 104.332 52.4151 102.887 56.7525C102.798 57.0198 102.709 57.2871 102.617 57.5625C102.528 57.8293 102.439 58.0962 102.347 58.3711C100.701 63.3104 99.0524 68.2488 97.4022 73.1867C96.8187 74.9329 96.236 76.6794 95.6537 78.4259C94.9441 80.5534 94.2331 82.6805 93.52 84.8068C93.1562 85.8918 92.793 86.9769 92.4317 88.0627C92.1009 89.0564 91.7683 90.0495 91.434 91.042C91.3134 91.4013 91.1935 91.7609 91.0744 92.1207C90.9124 92.6096 90.7478 93.0976 90.5825 93.5855C90.4918 93.8568 90.401 94.1282 90.3075 94.4078C89.7307 95.8058 89.0458 96.8542 87.6549 97.5C85.8991 97.7364 84.8825 97.6079 83.4362 96.5625C83.0547 96.2217 82.683 95.8698 82.3207 95.5087C82.1077 95.2975 81.8947 95.0863 81.6753 94.8687C81.4422 94.6352 81.2092 94.4018 80.9761 94.1683C80.7261 93.9195 80.476 93.6708 80.2257 93.4222C79.5398 92.74 78.8553 92.0563 78.171 91.3724C77.4323 90.6346 76.6923 89.898 75.9524 89.1613C74.3357 87.551 72.7208 85.939 71.1063 84.3265C70.0981 83.3196 69.0896 82.3131 68.081 81.3066C65.288 78.5193 62.4955 75.7317 59.7046 72.9424C59.5261 72.7639 59.3476 72.5855 59.1637 72.4017C58.9847 72.2229 58.8058 72.044 58.6214 71.8598C58.2588 71.4974 57.8963 71.135 57.5337 70.7726C57.3538 70.5929 57.1739 70.4131 56.9886 70.2279C54.0727 67.3138 51.1537 64.403 48.2332 61.4935C45.2343 58.5057 42.2381 55.5153 39.2445 52.5222C37.5638 50.842 35.882 49.1629 34.1973 47.4867C32.7632 46.0598 31.3315 44.6305 29.9029 43.198C29.1741 42.4674 28.4441 41.7379 27.7111 41.0114C27.0397 40.346 26.3717 39.6774 25.7062 39.0062C25.4652 38.7643 25.223 38.5235 24.9795 38.2841C22.4923 35.836 22.4923 35.836 22.2643 33.9844C22.3649 32.5081 22.8143 31.5011 23.9049 30.4688C24.4931 30.1757 25.0033 29.9579 25.6193 29.7573C25.7838 29.6997 25.9484 29.6422 26.118 29.5829C26.629 29.4052 27.1417 29.2337 27.6549 29.0625C27.9598 28.9574 28.2647 28.8519 28.5693 28.746C29.5097 28.4207 30.4531 28.1052 31.3969 27.7901C31.7578 27.669 32.1187 27.5479 32.4795 27.4268C33.4595 27.098 34.4397 26.77 35.42 26.4423C36.2635 26.1601 37.1069 25.8774 37.9502 25.5947C40.7234 24.6652 43.497 23.7372 46.2709 22.8097C46.9933 22.5682 47.7157 22.3266 48.4382 22.085C52.932 20.5822 57.4261 19.08 61.9207 17.5792C62.9584 17.2326 63.9961 16.8861 65.0338 16.5396C65.2917 16.4535 65.5496 16.3673 65.8153 16.2786C70.0001 14.881 74.1838 13.48 78.3671 12.0777C82.6683 10.6358 86.9706 9.19717 91.274 7.76158C93.6877 6.95629 96.1009 6.14959 98.5129 5.33928C100.565 4.64995 102.618 3.96349 104.672 3.28076C105.719 2.93257 106.766 2.58304 107.811 2.2298C108.77 1.90614 109.729 1.58644 110.689 1.26978C111.036 1.15489 111.381 1.0386 111.726 0.920708C116.287 -0.634897 116.287 -0.634897 118.475 0.380866ZM99.6515 13.2082C99.4177 13.285 99.1839 13.3618 98.943 13.441C98.5567 13.5714 98.5567 13.5714 98.1626 13.7046C97.8896 13.795 97.6166 13.8854 97.3352 13.9785C96.5756 14.2305 95.8167 14.4843 95.058 14.739C94.2403 15.0129 93.4218 15.2844 92.6035 15.5562C90.9997 16.0893 89.3967 16.6247 87.7939 17.1608C85.9288 17.7847 84.063 18.4064 82.1971 19.028C78.8688 20.1369 75.5412 21.248 72.2139 22.3601C68.9827 23.4402 65.7509 24.5185 62.5185 25.5951C59.0016 26.7664 55.4851 27.9387 51.9691 29.1124C51.5944 29.2375 51.2198 29.3626 50.8451 29.4877C50.5686 29.58 50.5686 29.58 50.2864 29.6742C48.985 30.1086 47.6833 30.5424 46.3816 30.976C44.796 31.5042 43.2108 32.0334 41.626 32.564C40.8169 32.8348 40.0076 33.1052 39.1979 33.3744C38.3216 33.6658 37.446 33.9593 36.5705 34.253C36.3125 34.3384 36.0544 34.4239 35.7885 34.5119C35.5554 34.5905 35.3222 34.6692 35.0819 34.7502C34.8796 34.8178 34.6772 34.8854 34.4687 34.955C33.9429 35.1366 33.9429 35.1366 33.5143 35.625C40.9393 43.05 48.3643 50.475 56.0143 58.125C56.8011 57.7316 57.1697 57.4968 57.7626 56.9031C57.9196 56.7471 58.0766 56.591 58.2383 56.4302C58.4089 56.2583 58.5794 56.0864 58.7551 55.9093C58.9377 55.7271 59.1204 55.5448 59.3086 55.357C59.9222 54.7442 60.5341 54.1297 61.146 53.5152C61.5848 53.0763 62.0237 52.6375 62.4626 52.1988C63.4085 51.2532 64.3535 50.3067 65.2979 49.3597C66.6634 47.9904 68.0301 46.6224 69.3972 45.2547C71.6152 43.0358 73.8321 40.8158 76.0483 38.5951C78.2012 36.4379 80.3546 34.2811 82.5087 32.1251C82.6415 31.9922 82.7743 31.8593 82.9111 31.7224C83.5771 31.0557 84.2432 30.389 84.9093 29.7224C90.4354 24.1914 95.9597 18.6588 101.483 13.125C100.66 12.8507 100.455 12.9403 99.6515 13.2082ZM106.874 18.5156C92.0237 33.3656 77.1737 48.2156 61.8737 63.5156C62.2928 64.354 62.591 64.7598 63.2352 65.4023C63.4212 65.5889 63.6072 65.7756 63.7989 65.9679C64.1053 66.2719 64.1053 66.2719 64.418 66.582C64.633 66.797 64.8479 67.012 65.0694 67.2335C65.6581 67.8224 66.2483 68.4098 66.8387 68.9969C67.4557 69.6111 68.0715 70.2265 68.6873 70.8418C69.8535 72.0065 71.0208 73.17 72.1885 74.333C73.518 75.6573 74.8462 76.9828 76.1742 78.3086C78.9059 81.0353 81.6392 83.7604 84.3737 86.4844C84.9019 85.9562 85.0138 85.6194 85.2485 84.9167C85.3271 84.6835 85.4057 84.4504 85.4868 84.2101C85.5722 83.9521 85.6576 83.694 85.7456 83.4281C85.8371 83.1555 85.9286 82.8828 86.0229 82.6018C86.2772 81.843 86.5302 81.0838 86.7826 80.3243C87.055 79.5061 87.3289 78.6885 87.6027 77.8708C88.1389 76.268 88.6736 74.6648 89.2077 73.0613C89.6417 71.7586 90.0762 70.456 90.511 69.1536C90.5728 68.9684 90.6346 68.7833 90.6983 68.5926C90.8238 68.2166 90.9493 67.8406 91.0749 67.4645C92.2529 63.9356 93.4291 60.406 94.6047 56.8762C95.6813 53.6441 96.7602 50.4127 97.8401 47.1817C98.948 43.8671 100.054 40.5521 101.159 37.2364C101.78 35.3737 102.401 33.5112 103.024 31.6493C103.554 30.0644 104.082 28.479 104.609 26.8929C104.878 26.0832 105.148 25.2736 105.419 24.4647C105.713 23.5892 106.004 22.7127 106.294 21.836C106.381 21.5785 106.468 21.321 106.558 21.0556C106.635 20.8218 106.711 20.588 106.79 20.3472C106.892 20.0436 106.892 20.0436 106.995 19.7338C107.162 19.1815 107.162 19.1815 106.874 18.5156Z" fill="white"/>
<path d="M33.2797 84.375C34.4245 84.9065 35.0919 85.5739 35.6234 86.7188C35.8596 88.4732 35.7341 89.494 34.6859 90.9375C34.2995 91.3647 33.9012 91.7815 33.494 92.189C33.3771 92.3066 33.2602 92.4243 33.1397 92.5455C32.7508 92.9363 32.3602 93.3254 31.9696 93.7145C31.6891 93.9956 31.4088 94.2767 31.1286 94.558C30.3694 95.3193 29.6088 96.0791 28.8478 96.8386C28.0512 97.634 27.2557 98.4306 26.46 99.2271C25.1242 100.564 23.7874 101.899 22.4501 103.234C20.9038 104.778 19.3592 106.324 17.8155 107.87C16.4895 109.198 15.1626 110.525 13.8349 111.852C13.0421 112.644 12.2497 113.436 11.4581 114.229C10.7143 114.974 9.96932 115.718 9.22348 116.462C8.94983 116.735 8.67658 117.008 8.40376 117.282C8.03162 117.655 7.65808 118.027 7.28413 118.399C7.07535 118.607 6.86657 118.816 6.65147 119.031C5.48925 120.071 4.54895 120.103 3.02516 120.073C1.78262 119.94 1.20786 119.349 0.379281 118.477C-0.171091 117.291 -0.22915 116.129 -0.00157807 114.844C0.605381 113.834 1.29701 113.018 2.12788 112.186C2.24478 112.068 2.36169 111.951 2.48213 111.83C2.87108 111.439 3.26167 111.05 3.65229 110.66C3.93271 110.379 4.21304 110.098 4.49327 109.817C5.25242 109.056 6.01305 108.296 6.77401 107.536C7.57067 106.741 8.36618 105.944 9.16188 105.148C10.4976 103.811 11.8344 102.476 13.1717 101.141C14.718 99.5968 16.2626 98.0514 17.8064 96.5051C19.1324 95.177 20.4593 93.8498 21.7869 92.5233C22.5797 91.7313 23.3721 90.939 24.1638 90.1458C24.9076 89.4006 25.6525 88.6566 26.3984 87.9135C26.672 87.6404 26.9453 87.367 27.2181 87.0932C27.5902 86.7197 27.9638 86.3478 28.3377 85.9762C28.5465 85.7676 28.7553 85.559 28.9704 85.3441C30.2794 84.1731 31.5802 84.1928 33.2797 84.375Z" fill="white"/>
<path d="M57.6547 90C58.7995 90.5316 59.4669 91.1989 59.9984 92.3438C60.2346 94.0985 60.1086 95.1185 59.0609 96.5625C58.6825 96.9818 58.2926 97.3908 57.8936 97.7905C57.7242 97.9611 57.7242 97.9611 57.5514 98.1352C57.1817 98.5069 56.8104 98.8769 56.4389 99.2468C56.1796 99.5064 55.9205 99.766 55.6614 100.026C55.12 100.568 54.5778 101.109 54.0349 101.65C53.3398 102.342 52.6468 103.037 51.9544 103.732C51.4204 104.268 50.8853 104.802 50.3499 105.336C50.0939 105.592 49.8382 105.848 49.5829 106.104C49.2262 106.462 48.8681 106.819 48.5095 107.175C48.2046 107.479 48.2046 107.479 47.8935 107.789C46.7356 108.822 45.7909 108.853 44.2752 108.823C43.0326 108.69 42.4579 108.099 41.6293 107.227C41.0789 106.041 41.0209 104.879 41.2484 103.594C41.8498 102.595 42.5313 101.783 43.3532 100.96C43.5226 100.789 43.5226 100.789 43.6954 100.615C44.0651 100.243 44.4365 99.8731 44.808 99.5032C45.0672 99.2437 45.3264 98.984 45.5854 98.7244C46.1269 98.1823 46.6691 97.641 47.2119 97.1004C47.9071 96.4079 48.6001 95.7134 49.2924 95.0182C49.8264 94.4825 50.3615 93.948 50.897 93.4137C51.153 93.158 51.4086 92.902 51.6639 92.6456C52.0206 92.2877 52.3788 91.9314 52.7374 91.5754C52.9406 91.3725 53.1439 91.1696 53.3534 90.9606C54.6584 89.7964 55.9633 89.8186 57.6547 90Z" fill="white"/>
<path d="M27.6547 60C28.7995 60.5316 29.4669 61.1989 29.9984 62.3438C30.2346 64.0985 30.1086 65.1185 29.0609 66.5625C28.6825 66.9818 28.2926 67.3908 27.8936 67.7905C27.7242 67.9611 27.7242 67.9611 27.5514 68.1352C27.1817 68.5069 26.8104 68.8769 26.4389 69.2469C26.1796 69.5064 25.9205 69.766 25.6614 70.0257C25.12 70.5678 24.5778 71.109 24.0349 71.6497C23.3398 72.3421 22.6468 73.0366 21.9544 73.7318C21.4204 74.2675 20.8853 74.8021 20.3499 75.3363C20.0939 75.592 19.8382 75.848 19.5829 76.1044C19.2262 76.4623 18.8681 76.8187 18.5095 77.1746C18.2046 77.479 18.2046 77.479 17.8935 77.7895C16.7356 78.8223 15.7909 78.8528 14.2752 78.8233C13.0326 78.69 12.4579 78.0988 11.6293 77.2266C11.0789 76.0412 11.0209 74.8789 11.2484 73.5938C11.8498 72.5949 12.5313 71.783 13.3532 70.9596C13.5226 70.7889 13.5226 70.7889 13.6954 70.6149C14.0651 70.2431 14.4365 69.8731 14.808 69.5032C15.0672 69.2437 15.3264 68.9841 15.5854 68.7244C16.1269 68.1823 16.6691 67.641 17.2119 67.1004C17.9071 66.4079 18.6001 65.7134 19.2924 65.0182C19.8264 64.4825 20.3615 63.948 20.897 63.4137C21.153 63.1581 21.4086 62.902 21.6639 62.6456C22.0206 62.2877 22.3788 61.9314 22.7374 61.5754C22.9406 61.3725 23.1439 61.1696 23.3534 60.9606C24.6584 59.7964 25.9633 59.8186 27.6547 60Z" fill="white"/>
<path d="M35.7112 112.778C36.5227 113.339 37.0577 113.963 37.4983 114.844C37.6166 116.14 37.6713 117.284 37.1174 118.477C36.0455 119.605 35.3165 120.059 33.7483 120.117C32.18 120.059 31.4511 119.605 30.3791 118.477C29.8178 117.268 29.8185 116.155 29.9983 114.844C30.463 113.898 30.9746 113.285 31.8733 112.734C33.1474 112.31 34.4472 112.334 35.7112 112.778Z" fill="white"/>
<path d="M5.71117 82.7783C6.52266 83.3387 7.05772 83.9627 7.49828 84.8438C7.61665 86.14 7.67127 87.2837 7.11742 88.4766C6.04547 89.605 5.31654 90.059 3.74828 90.1172C2.18002 90.059 1.45109 89.605 0.379139 88.4766C-0.182156 87.2676 -0.181539 86.1547 -0.00172028 84.8438C0.463013 83.8977 0.974639 83.2852 1.87328 82.7344C3.14738 82.3097 4.44722 82.3336 5.71117 82.7783Z" fill="white"/>
<path d="M43.2112 75.2783C44.0227 75.8387 44.5577 76.4627 44.9983 77.3438C45.1166 78.64 45.1713 79.7837 44.6174 80.9766C43.5455 82.105 42.8165 82.559 41.2483 82.6172C39.68 82.559 38.9511 82.105 37.8791 80.9766C37.3178 79.7676 37.3185 78.6547 37.4983 77.3438C37.963 76.3977 38.4746 75.7852 39.3733 75.2344C40.6474 74.8097 41.9472 74.8336 43.2112 75.2783Z" fill="white"/>
</g>
<defs>
<clipPath id="clip0_160_29">
<rect width="120" height="120" fill="white" transform="translate(-0.00134277)"/>
</clipPath>
</defs>
</svg>
