<svg width="121" height="120" viewBox="0 0 121 120" fill="none" xmlns="http://www.w3.org/2000/svg">
<path d="M24.7428 7.46855C25.078 7.46698 25.078 7.46698 25.4199 7.46538C25.7871 7.46545 25.7871 7.46545 26.1617 7.46551C26.5526 7.46422 26.5526 7.46422 26.9514 7.4629C27.8278 7.46031 28.7042 7.45941 29.5806 7.45852C30.2077 7.45705 30.8348 7.4555 31.4619 7.45385C33.3459 7.44922 35.2299 7.44686 37.1139 7.44478C38.0015 7.44375 38.889 7.44249 39.7766 7.44126C42.7275 7.43728 45.6784 7.43388 48.6294 7.43218C49.3949 7.43173 50.1605 7.43128 50.926 7.43083C51.2114 7.43066 51.2114 7.43066 51.5026 7.43048C54.5846 7.42854 57.6665 7.4226 60.7485 7.41499C63.9138 7.40723 67.079 7.40301 70.2442 7.40227C72.021 7.40176 73.7977 7.39971 75.5744 7.39372C77.0876 7.38863 78.6008 7.38675 80.114 7.38902C80.8856 7.39009 81.6572 7.38914 82.4288 7.3851C83.2666 7.38095 84.1042 7.3826 84.942 7.38569C85.1842 7.38312 85.4263 7.38055 85.6759 7.3779C87.9138 7.39777 89.5496 8.10682 91.1835 9.62678C92.8164 11.3845 93.3186 13.1968 93.2819 15.5486C93.2804 15.7672 93.279 15.9858 93.2775 16.2111C93.2722 16.9429 93.2635 17.6746 93.2549 18.4063C93.2506 18.9316 93.2465 19.4569 93.2427 19.9821C93.2343 21.1139 93.2247 22.2457 93.2146 23.3775C93.1994 25.1732 93.1915 26.9689 93.1855 28.7646C93.1845 29.0683 93.1835 29.3719 93.1824 29.6848C93.1799 30.4627 93.1774 31.2406 93.1749 32.0185C93.1703 33.4578 93.1656 34.8971 93.1601 36.3365C93.1595 36.4966 93.1589 36.6567 93.1582 36.8216C93.148 39.4028 93.1251 41.9838 93.0978 44.5649C93.07 47.2251 93.058 49.885 93.0589 52.5455C93.0589 54.0351 93.052 55.524 93.0275 57.0135C92.8477 66.0064 92.8477 66.0064 96.9965 73.717C97.658 74.5408 98.1721 75.4272 98.6853 76.3477C98.8539 76.6343 99.023 76.9207 99.193 77.2064C99.2738 77.3434 99.3545 77.4803 99.4377 77.6214C100.91 80.1176 102.399 82.6036 103.908 85.0781C105.53 87.7408 107.129 90.4173 108.716 93.1012C109.604 94.6009 110.494 96.0979 111.399 97.587C111.563 97.8578 111.728 98.1286 111.892 98.3993C112.195 98.8981 112.499 99.3961 112.804 99.8934C114.231 102.247 114.556 104.161 114.337 106.875C114.133 107.666 113.834 108.296 113.4 108.984C113.318 109.13 113.235 109.276 113.151 109.426C112.141 111.045 110.521 111.995 108.712 112.5C108.07 112.545 107.451 112.567 106.809 112.566C106.621 112.567 106.434 112.569 106.24 112.57C105.613 112.574 104.986 112.575 104.359 112.576C103.908 112.578 103.458 112.58 103.007 112.583C101.784 112.589 100.562 112.592 99.3388 112.594C98.574 112.595 97.8093 112.597 97.0446 112.599C94.6496 112.606 92.2547 112.61 89.8597 112.612C87.0993 112.614 84.3391 112.622 81.5787 112.636C79.4423 112.646 77.3059 112.651 75.1695 112.651C73.8948 112.652 72.6202 112.655 71.3455 112.663C70.1455 112.671 68.9456 112.672 67.7455 112.668C67.3067 112.667 66.8679 112.669 66.4292 112.674C63.6284 112.702 61.3119 112.554 59.1385 110.551C58.2255 109.607 57.7812 108.831 57.3841 107.578C57.1632 107.579 56.9423 107.58 56.7148 107.581C51.3331 107.607 45.9514 107.627 40.5697 107.639C37.9671 107.645 35.3646 107.653 32.762 107.667C30.4928 107.678 28.2236 107.686 25.9544 107.688C24.7536 107.69 23.5528 107.693 22.352 107.702C21.2201 107.71 20.0883 107.712 18.9563 107.711C18.5425 107.711 18.1287 107.713 17.7149 107.718C14.8417 107.748 12.3896 107.548 10.1575 105.513C8.88271 104.113 8.13728 102.569 8.13386 100.668C8.13229 100.265 8.13229 100.265 8.13069 99.854C8.13074 99.5575 8.13078 99.2609 8.13083 98.9554C8.13005 98.6382 8.12918 98.3211 8.12821 98.0039C8.12586 97.1304 8.12499 96.2569 8.12437 95.3834C8.12346 94.442 8.12121 93.5006 8.11917 92.5593C8.11453 90.2848 8.11217 88.0103 8.11009 85.7358C8.10906 84.6649 8.10781 83.5939 8.10658 82.523C8.10259 78.9631 8.09919 75.4031 8.0975 71.8432C8.09705 70.9192 8.0966 69.9953 8.09614 69.0713C8.09603 68.8416 8.09591 68.612 8.09579 68.3754C8.09385 64.6553 8.08791 60.9352 8.0803 57.2152C8.07255 53.3963 8.06833 49.5775 8.06758 45.7586C8.06707 43.6143 8.06502 41.47 8.05903 39.3256C8.05395 37.4994 8.05206 35.6731 8.05434 33.8468C8.0554 32.9152 8.05496 31.9837 8.05041 31.0521C8.04628 30.1985 8.04651 29.345 8.05015 28.4913C8.05097 28.0379 8.04719 27.5844 8.04321 27.131C8.05867 25.038 8.46173 23.3947 9.80594 21.7529C9.94673 21.5798 10.0875 21.4067 10.2326 21.2283C10.9814 20.344 11.7332 19.4624 12.4902 18.5851C13.389 17.5433 14.2642 16.4847 15.1316 15.4166C15.8389 14.5539 16.5597 13.703 17.2853 12.8557C17.8043 12.2476 18.3066 11.6365 18.7937 11.0019C20.3555 8.97179 22.0874 7.47432 24.7428 7.46855ZM28.3216 12.6563C28.3207 12.8189 28.3199 12.9816 28.319 13.1492C28.3101 14.6904 28.2967 16.2314 28.2785 17.7725C28.2692 18.5646 28.2617 19.3566 28.2581 20.1488C28.253 21.0617 28.2421 21.9744 28.23 22.8873C28.2297 23.1686 28.2294 23.4499 28.2291 23.7398C28.1988 25.4946 28.045 27.147 26.8106 28.4954C25.8108 29.369 24.9668 29.8199 23.6453 29.8404C23.4154 29.845 23.1856 29.8497 22.9488 29.8545C22.7024 29.8572 22.456 29.8599 22.2022 29.8627C21.9486 29.8672 21.695 29.8718 21.4338 29.8764C20.6242 29.8904 19.8147 29.9013 19.0052 29.9121C18.4561 29.9211 17.9071 29.9302 17.3581 29.9396C16.0126 29.9621 14.6671 29.982 13.3216 30C13.2948 38.9932 13.2741 47.9863 13.2617 56.9795C13.2603 58.0409 13.2587 59.1024 13.2572 60.1638C13.2569 60.3751 13.2566 60.5864 13.2563 60.8041C13.2512 64.2269 13.2419 67.6497 13.2312 71.0724C13.2202 74.5838 13.2137 78.0951 13.2113 81.6065C13.2097 83.7737 13.2046 85.9408 13.1951 88.108C13.1889 89.5935 13.187 91.079 13.1886 92.5646C13.1893 93.4221 13.1881 94.2794 13.1819 95.1369C13.1751 96.0663 13.1774 96.9956 13.1806 97.925C13.1772 98.1963 13.1738 98.4676 13.1703 98.7472C13.1703 100.305 13.1703 100.305 13.8724 101.648C14.8387 102.487 15.6651 102.455 16.8827 102.45C17.0556 102.45 17.2285 102.45 17.4066 102.451C17.9874 102.451 18.5682 102.45 19.1491 102.448C19.5648 102.448 19.9806 102.448 20.3963 102.449C21.5264 102.449 22.6566 102.447 23.7867 102.446C24.9673 102.444 26.1478 102.444 27.3283 102.444C29.5645 102.443 31.8006 102.441 34.0368 102.439C36.5823 102.436 39.1278 102.435 41.6733 102.434C46.9102 102.431 52.1471 102.427 57.3841 102.422C57.4832 102.243 57.4831 102.243 57.5842 102.06C57.8882 101.51 58.1926 100.961 58.497 100.411C58.6008 100.224 58.7047 100.036 58.8117 99.842C59.6974 98.2445 60.6301 96.6822 61.5882 95.127C61.9349 94.5609 62.2807 93.9944 62.6264 93.4277C62.7148 93.2829 62.8032 93.138 62.8943 92.9887C64.0249 91.1326 65.1273 89.2599 66.2326 87.3887C67.2348 85.6931 68.2439 84.0027 69.2804 82.3279C69.3689 82.1849 69.4574 82.0419 69.5485 81.8945C69.9667 81.2196 70.3866 80.5459 70.8085 79.8732C71.0278 79.5212 71.0278 79.5212 71.2516 79.162C71.4447 78.8543 71.4447 78.8543 71.6418 78.5405C71.9532 78.0726 71.9532 78.0726 71.9153 77.5781C71.6736 77.5776 71.4319 77.577 71.1829 77.5764C65.3049 77.5627 59.427 77.5449 53.5491 77.5229C50.7066 77.5123 47.8642 77.5031 45.0216 77.4969C42.5445 77.4916 40.0673 77.4837 37.5902 77.473C36.2782 77.4674 34.9663 77.463 33.6543 77.4615C32.4198 77.4601 31.1854 77.4554 29.951 77.4482C29.4976 77.4462 29.0442 77.4453 28.5907 77.4457C27.9722 77.4461 27.3538 77.4422 26.7353 77.4372C26.5554 77.4383 26.3755 77.4395 26.1902 77.4407C25.1438 77.4267 24.4652 77.29 23.6341 76.6406C23.2018 75.7761 23.2853 74.7719 23.3997 73.8281C23.8415 73.2243 24.1481 72.9852 24.8059 72.6563C25.4558 72.6452 26.0991 72.649 26.7485 72.6633C26.9519 72.6668 27.1552 72.6703 27.3648 72.6739C27.8123 72.6816 28.2597 72.6898 28.7072 72.6985C29.9513 72.7225 31.1955 72.7422 32.4397 72.7623C32.7055 72.7667 32.9713 72.771 33.2452 72.7755C36.946 72.8347 40.6472 72.8593 44.3484 72.8854C47.3636 72.9076 50.3778 72.942 53.3925 73.0042C56.0231 73.0585 58.6528 73.0894 61.284 73.0929C62.6761 73.0956 64.066 73.1097 65.4575 73.152C71.0449 73.6214 71.0449 73.6214 76.0506 71.7635C77.4362 70.2906 78.2482 68.4795 78.8896 66.584C79.1967 65.8203 79.5947 65.3154 80.1184 64.6875C80.1184 64.5328 80.1184 64.3781 80.1184 64.2188C80.249 64.1538 80.3795 64.0888 80.514 64.0219C80.886 63.8353 81.2571 63.6465 81.6272 63.4561C81.8254 63.3549 82.0236 63.2537 82.2278 63.1494C82.426 63.0476 82.6242 62.9458 82.8284 62.8409C83.9698 62.3159 85.0294 62.3148 86.2708 62.3291C86.4454 62.3302 86.62 62.3312 86.8 62.3323C87.2291 62.3351 87.6581 62.3393 88.0872 62.3438C88.1036 56.13 88.116 49.9163 88.1236 43.7025C88.1273 40.8175 88.1322 37.9324 88.1402 35.0474C88.1472 32.5331 88.1518 30.0189 88.1534 27.5047C88.1543 26.173 88.1564 24.8414 88.1615 23.5098C88.1663 22.2569 88.1678 21.004 88.1667 19.7511C88.1669 19.2909 88.1683 18.8307 88.171 18.3705C88.1745 17.7427 88.1737 17.1151 88.1717 16.4873C88.1738 16.3047 88.1758 16.1221 88.178 15.9339C88.167 14.6105 87.8729 13.9171 87.0163 12.9399C86.0869 12.4772 85.1506 12.5623 84.1272 12.5717C83.889 12.5711 83.6509 12.5705 83.4055 12.5699C82.6051 12.5687 81.8048 12.5726 81.0044 12.5764C80.4317 12.5766 79.8589 12.5765 79.2861 12.5761C78.0517 12.576 76.8173 12.578 75.5829 12.5819C73.7982 12.5876 72.0135 12.5895 70.2288 12.5903C67.3333 12.5919 64.4377 12.5966 61.5422 12.6032C58.7294 12.6097 55.9166 12.6146 53.1038 12.6176C52.9304 12.6178 52.757 12.618 52.5784 12.6182C51.7086 12.6191 50.8389 12.62 49.9691 12.6209C42.7532 12.6282 35.5374 12.6406 28.3216 12.6563ZM22.9309 14.2969C22.4926 14.7843 22.0652 15.2762 21.6419 15.7764C21.4507 16.0009 21.4507 16.0009 21.2556 16.23C20.3389 17.3095 19.4385 18.4016 18.5465 19.5017C18.1508 19.9837 17.7518 20.461 17.3471 20.9354C17.2333 21.0689 17.1194 21.2024 17.002 21.34C16.783 21.5961 16.5634 21.8518 16.3432 22.1068C15.5864 22.9919 14.9424 23.887 14.2591 24.8438C17.1981 24.8438 20.1372 24.8438 23.1653 24.8438C23.1653 21.3633 23.1653 17.8828 23.1653 14.2969C23.088 14.2969 23.0106 14.2969 22.9309 14.2969ZM83.8684 67.9688C83.4912 68.4647 83.1959 68.909 82.8971 69.4473C82.8111 69.5949 82.7252 69.7424 82.6366 69.8944C82.3554 70.3786 82.0793 70.8655 81.803 71.3525C81.6057 71.6938 81.4079 72.0349 81.2098 72.3756C80.906 72.8981 80.6025 73.4207 80.3004 73.944C79.3662 75.5617 78.3986 77.157 77.4231 78.75C75.9989 81.0832 74.5967 83.4289 73.2044 85.7813C71.8121 88.1337 70.4086 90.4785 68.9856 92.8125C67.4914 95.2648 66.0141 97.7266 64.5472 100.195C64.4493 100.36 64.3515 100.524 64.2506 100.694C63.9734 101.16 63.6967 101.626 63.4201 102.092C63.3378 102.231 63.2555 102.369 63.1707 102.512C62.331 103.838 62.331 103.838 62.0716 105.337C62.3553 106.348 62.8233 106.829 63.7122 107.344C64.3697 107.456 64.8829 107.501 65.5373 107.489C65.7166 107.491 65.896 107.492 66.0808 107.494C66.6795 107.498 67.2778 107.493 67.8765 107.488C68.3066 107.489 68.7367 107.49 69.1668 107.492C70.3334 107.495 71.4998 107.491 72.6664 107.486C73.8873 107.481 75.1082 107.482 76.3292 107.483C78.3792 107.483 80.4293 107.478 82.4793 107.471C84.8496 107.462 87.2199 107.46 89.5903 107.462C91.8706 107.463 94.1509 107.461 96.4312 107.456C97.4017 107.454 98.3721 107.454 99.3426 107.454C100.485 107.454 101.628 107.451 102.77 107.445C103.19 107.443 103.609 107.443 104.028 107.443C104.601 107.444 105.173 107.441 105.745 107.436C105.911 107.437 106.077 107.439 106.248 107.44C107.265 107.426 107.899 107.255 108.712 106.641C109.263 105.88 109.253 105.217 109.181 104.297C108.935 103.742 108.686 103.261 108.375 102.744C108.283 102.586 108.191 102.428 108.096 102.264C107.759 101.689 107.416 101.118 107.072 100.547C106.933 100.318 106.795 100.088 106.652 99.8522C106.007 98.7854 105.36 97.7196 104.71 96.6553C103.411 94.5247 102.131 92.3825 100.861 90.2344C99.3098 87.6139 97.7411 85.0054 96.1556 82.4058C94.9676 80.4556 93.8003 78.4937 92.6385 76.5279C91.9087 75.2943 91.1754 74.0629 90.4411 72.8321C90.2103 72.4449 89.98 72.0573 89.7498 71.6698C89.3704 71.0342 88.9863 70.4018 88.5999 69.7705C88.4947 69.5928 88.3894 69.4152 88.281 69.2321C87.6522 68.2202 87.1419 67.6801 85.9778 67.2656C85.0735 67.2656 84.6377 67.4943 83.8684 67.9688Z" fill="white"/>
<path d="M27.0641 62.3093C27.3779 62.308 27.3779 62.308 27.698 62.3067C28.4019 62.3041 29.1058 62.3032 29.8096 62.3023C30.3131 62.3008 30.8166 62.2992 31.3202 62.2976C32.6901 62.2935 34.06 62.291 35.43 62.2891C36.2854 62.2879 37.1409 62.2865 37.9963 62.285C40.6716 62.2805 43.3469 62.2772 46.0221 62.2753C49.1127 62.273 52.2032 62.2668 55.2937 62.2573C57.6811 62.2503 60.0684 62.2468 62.4558 62.246C63.8824 62.2455 65.309 62.2434 66.7355 62.2375C68.0773 62.232 69.4191 62.231 70.7609 62.2334C71.2535 62.2335 71.7462 62.2321 72.2388 62.2288C72.9111 62.2247 73.5832 62.2264 74.2555 62.2294C74.4506 62.2269 74.6458 62.2243 74.8468 62.2216C76.0858 62.2354 76.7945 62.4558 77.7747 63.2813C78.3531 64.1489 78.403 64.8527 78.2435 65.8594C77.5404 67.1484 77.5404 67.1484 76.8372 67.5C76.1579 67.5246 75.484 67.5346 74.8045 67.5345C74.5915 67.5354 74.3785 67.5362 74.1591 67.5371C73.441 67.5397 72.7229 67.5406 72.0048 67.5415C71.4917 67.543 70.9786 67.5445 70.4655 67.5462C69.0685 67.5502 67.6714 67.5527 66.2743 67.5546C65.4022 67.5558 64.5301 67.5573 63.6579 67.5587C61.0877 67.563 58.5175 67.5663 55.9473 67.5682C55.4769 67.5685 55.0064 67.5688 54.536 67.5692C54.3802 67.5693 54.2245 67.5694 54.064 67.5695C51.5406 67.5715 49.0172 67.5774 46.4938 67.585C43.9039 67.5928 41.3139 67.5969 38.724 67.5977C37.2695 67.5983 35.815 67.6004 34.3606 67.6063C32.9926 67.6117 31.6247 67.6127 30.2567 67.6103C29.7542 67.6102 29.2516 67.6117 28.7491 67.6149C28.0638 67.619 27.3788 67.6174 26.6936 67.6143C26.494 67.6169 26.2943 67.6195 26.0886 67.6221C25.1449 67.6118 24.6838 67.5712 23.8677 67.0534C23.049 66.1946 23.0737 65.481 23.082 64.3323C23.1654 63.75 23.1654 63.75 23.7074 63.0322C24.793 62.2495 25.7766 62.309 27.0641 62.3093Z" fill="white"/>
<path d="M26.6045 52.4639C26.924 52.4624 26.924 52.4624 27.25 52.4608C27.9681 52.4577 28.6861 52.4562 29.4042 52.4548C29.9173 52.4529 30.4304 52.451 30.9435 52.449C32.6322 52.4428 34.3208 52.4392 36.0095 52.4359C36.59 52.4346 37.1706 52.4334 37.7511 52.4321C40.1652 52.427 42.5793 52.4227 44.9934 52.42C45.6199 52.4193 46.2465 52.4186 46.8731 52.4179C47.0288 52.4178 47.1845 52.4176 47.345 52.4174C49.8684 52.4144 52.3918 52.4066 54.9152 52.3969C57.5051 52.3869 60.0951 52.3815 62.6851 52.3802C64.1396 52.3793 65.594 52.3765 67.0485 52.3689C68.4165 52.3619 69.7843 52.3604 71.1523 52.3631C71.6549 52.3632 72.1574 52.3612 72.66 52.3571C73.3453 52.3518 74.0302 52.3538 74.7155 52.3575C74.9151 52.3542 75.1147 52.351 75.3204 52.3476C76.3399 52.3613 76.7184 52.4044 77.5413 53.0655C78.2018 53.9213 78.3244 54.4447 78.3105 55.5386C78.2046 56.2946 77.8499 56.674 77.3062 57.1875C76.3972 57.8246 75.3799 57.7221 74.3152 57.7173C74.0009 57.7187 74.0009 57.7187 73.6801 57.7201C72.9764 57.7225 72.2728 57.7215 71.5691 57.7206C71.0652 57.7216 70.5612 57.7228 70.0573 57.7242C68.6874 57.7274 67.3175 57.7275 65.9476 57.7269C64.8048 57.7267 63.662 57.7278 62.5192 57.7289C59.8236 57.7315 57.1281 57.7316 54.4326 57.7302C51.6498 57.7288 48.8671 57.7317 46.0843 57.7367C43.6968 57.7408 41.3092 57.7422 38.9216 57.7415C37.4949 57.741 36.0683 57.7417 34.6416 57.7449C33.3001 57.7478 31.9588 57.7474 30.6173 57.7443C30.1246 57.7438 29.6319 57.7444 29.1392 57.7464C28.4673 57.7488 27.7956 57.7469 27.1238 57.7439C26.8303 57.7465 26.8303 57.7465 26.5309 57.7492C25.2137 57.7369 24.4994 57.4417 23.4503 56.629C22.9514 55.9648 23.0582 55.2811 23.0804 54.4803C23.1987 53.6825 23.514 53.2714 24.1031 52.7344C24.8804 52.3457 25.7498 52.4644 26.6045 52.4639Z" fill="white"/>
<path d="M26.8192 42.3858C27.0302 42.3848 27.2411 42.3837 27.4584 42.3827C28.1695 42.3795 28.8805 42.3781 29.5916 42.3767C30.0997 42.3748 30.6078 42.3729 31.1159 42.3708C32.7882 42.3647 34.4605 42.3611 36.1328 42.3578C36.7078 42.3565 37.2829 42.3553 37.8579 42.354C40.2492 42.3489 42.6406 42.3445 45.032 42.3419C48.4626 42.3381 51.8931 42.3303 55.3238 42.317C57.734 42.3079 60.1442 42.3033 62.5545 42.3021C63.995 42.3012 65.4354 42.2984 66.8759 42.2908C68.231 42.2838 69.5859 42.2823 70.941 42.285C71.4386 42.2851 71.9361 42.2831 72.4337 42.279C73.1127 42.2737 73.7914 42.2756 74.4704 42.2794C74.7661 42.2745 74.7661 42.2745 75.0678 42.2695C76.0425 42.2827 76.6527 42.3645 77.4245 42.9874C78.2178 43.8103 78.336 44.293 78.3276 45.444C78.1788 46.3162 77.695 46.7351 77.0715 47.3437C76.2989 47.7301 75.4389 47.6128 74.5895 47.6126C74.2731 47.6139 74.2731 47.6139 73.9503 47.6152C73.2392 47.6178 72.5282 47.6187 71.8171 47.6196C71.309 47.6211 70.8009 47.6226 70.2928 47.6243C68.9093 47.6283 67.5258 47.6308 66.1423 47.6327C65.2785 47.634 64.4146 47.6354 63.5508 47.6369C60.8498 47.6413 58.1487 47.6447 55.4477 47.6466C52.3268 47.6489 49.2059 47.6551 46.085 47.6645C43.6747 47.6716 41.2645 47.6751 38.8542 47.6759C37.4137 47.6764 35.9733 47.6785 34.5328 47.6844C33.1778 47.6898 31.8227 47.6908 30.4677 47.6884C29.9701 47.6883 29.4726 47.6898 28.975 47.693C28.296 47.6972 27.6173 47.6955 26.9383 47.6924C26.7412 47.695 26.544 47.6976 26.3409 47.7002C25.098 47.6866 24.3851 47.4682 23.3997 46.6406C22.9644 45.77 23.0282 44.776 23.1653 43.8281C24.2632 42.4124 25.1271 42.3868 26.8192 42.3858Z" fill="white"/>
<path d="M50.9927 32.2811C51.2148 32.2791 51.4369 32.2771 51.6657 32.275C52.0288 32.2754 52.0288 32.2754 52.3993 32.2757C52.7836 32.2733 52.7836 32.2733 53.1756 32.2709C54.0236 32.2665 54.8716 32.2655 55.7196 32.265C56.3086 32.2635 56.8977 32.262 57.4868 32.2603C58.7221 32.2575 59.9575 32.2566 61.1928 32.2569C62.619 32.2572 64.045 32.2523 65.4712 32.2448C66.845 32.238 68.2187 32.2363 69.5926 32.2366C70.1762 32.236 70.7599 32.2339 71.3435 32.2303C72.1599 32.2257 72.976 32.2271 73.7924 32.2299C74.0335 32.2273 74.2747 32.2246 74.5231 32.2219C75.9147 32.2342 76.7188 32.3472 77.7746 33.2813C78.353 34.1489 78.4029 34.8527 78.2434 35.8594C77.5402 37.1485 77.5402 37.1485 76.8371 37.5C76.4745 37.5241 76.111 37.5337 75.7476 37.5361C75.4031 37.5391 75.4031 37.5391 75.0516 37.5422C74.7987 37.5432 74.5458 37.5442 74.2853 37.5452C73.8868 37.5481 73.8868 37.5481 73.4803 37.551C72.5982 37.5569 71.7161 37.5607 70.834 37.5641C70.5334 37.5654 70.2327 37.5666 69.923 37.5679C68.6597 37.5729 67.3965 37.5774 66.1332 37.58C64.3229 37.5838 62.5128 37.5916 60.7025 37.6049C59.2762 37.6151 57.8499 37.6188 56.4235 37.6203C55.8167 37.6219 55.21 37.6255 54.6032 37.6311C53.7548 37.6385 52.9066 37.6385 52.0581 37.6368C51.8066 37.6406 51.5552 37.6445 51.2961 37.6484C49.5916 37.6341 49.5916 37.6341 48.6765 36.9384C48.0393 36.0407 47.9093 35.3074 48.009 34.2188C48.7 32.8112 49.4457 32.2874 50.9927 32.2811Z" fill="white"/>
<path d="M25.6524 82.4655C25.8801 82.4638 26.1079 82.4621 26.3425 82.4604C26.5932 82.4598 26.8439 82.4591 27.1022 82.4585C27.4972 82.4562 27.4972 82.4562 27.9002 82.4538C28.7747 82.4492 29.6492 82.4465 30.5237 82.4441C30.8217 82.4432 31.1198 82.4422 31.4268 82.4412C32.8413 82.4369 34.2558 82.4334 35.6703 82.4315C37.3028 82.4292 38.9353 82.423 40.5679 82.4136C41.982 82.4056 43.3961 82.4029 44.8102 82.4019C45.4117 82.4008 46.0132 82.398 46.6147 82.3937C47.4559 82.388 48.2968 82.3882 49.138 82.3898C49.3873 82.3868 49.6365 82.3838 49.8934 82.3807C51.5826 82.3927 51.5826 82.3927 52.4944 82.9463C53.2709 83.8195 53.2571 84.5318 53.2489 85.6677C53.1656 86.25 53.1656 86.25 52.6236 86.9678C51.7964 87.5641 51.2103 87.6855 50.2173 87.6892C49.9972 87.6905 49.777 87.6918 49.5502 87.6932C49.3091 87.6935 49.0681 87.6937 48.8197 87.694C48.4383 87.6957 48.4383 87.6957 48.0492 87.6975C47.2064 87.701 46.3637 87.7025 45.5209 87.7038C44.9362 87.7052 44.3515 87.7065 43.7667 87.7079C42.6969 87.71 41.6271 87.7115 40.5572 87.7122C39.14 87.7132 37.7228 87.7161 36.3055 87.7222C34.7851 87.7286 33.2646 87.7316 31.7441 87.7321C31.1642 87.7328 30.5843 87.7347 30.0044 87.7377C29.1936 87.7417 28.3829 87.7413 27.5721 87.7398C27.332 87.7419 27.0918 87.7441 26.8444 87.7463C25.659 87.7393 24.83 87.7296 23.8687 86.9531C23.7306 86.8462 23.5925 86.7392 23.4503 86.629C22.9514 85.9648 23.0582 85.2811 23.0804 84.4803C23.1987 83.6825 23.514 83.2714 24.1031 82.7344C24.6671 82.4523 25.0223 82.4687 25.6524 82.4655Z" fill="white"/>
<path d="M88.3218 79.9218C89.3243 80.849 90.1423 81.7067 90.2393 83.118C90.2603 85.4231 90.0201 87.6613 89.7219 89.9441C89.6396 90.5757 89.561 91.2076 89.4827 91.8397C89.4311 92.2467 89.3792 92.6537 89.3271 93.0606C89.2923 93.34 89.2923 93.34 89.2567 93.6251C88.8906 96.3917 88.8906 96.3917 88.2193 97.2052C86.935 98.1363 86.1521 98.3946 84.5718 98.2031C83.5098 97.6721 82.9699 97.1559 82.4625 96.0937C82.2818 95.2864 82.1841 94.4729 82.0862 93.652C82.056 93.4147 82.0258 93.1774 81.9946 92.933C81.9313 92.4314 81.8693 91.9296 81.8086 91.4277C81.7162 90.6655 81.6193 89.9041 81.5218 89.1426C81.4606 88.6536 81.3997 88.1645 81.3391 87.6754C81.3106 87.4503 81.282 87.2251 81.2526 86.9931C80.729 82.612 80.729 82.612 81.9937 80.8593C83.6638 79.0156 86.1896 78.6533 88.3218 79.9218Z" fill="white"/>
<path d="M86.9155 99.375C87.6644 99.6715 87.9785 99.958 88.5121 100.547C88.9439 101.638 88.9734 102.673 88.7905 103.828C88.3292 104.754 87.6285 105.31 86.6811 105.703C85.5899 105.874 84.7724 105.803 83.7807 105.308C83.0073 104.626 82.5447 104.143 82.3882 103.099C82.3216 101.819 82.5436 101.077 83.3998 100.078C84.4612 99.1112 85.548 99.2267 86.9155 99.375Z" fill="white"/>
<path d="M68.8687 17.3438C69.726 17.8219 70.1975 18.1651 70.7437 18.9844C70.8571 20.1373 70.8641 20.6387 70.3043 21.6651C69.7824 22.2944 69.6125 22.466 68.8202 22.5641C67.1598 22.6288 67.1598 22.6288 66.2759 21.9434C65.5597 20.973 65.4201 20.1791 65.5875 18.9844C66.4073 17.6375 67.2994 17.1555 68.8687 17.3438Z" fill="white"/>
<path d="M38.8687 17.3438C39.726 17.8219 40.1975 18.1651 40.7437 18.9844C40.8571 20.1373 40.8641 20.6387 40.3043 21.6651C39.7824 22.2944 39.6125 22.466 38.8202 22.5641C37.1598 22.6288 37.1598 22.6288 36.2759 21.9434C35.5597 20.973 35.4201 20.1791 35.5875 18.9844C36.4073 17.6375 37.2994 17.1555 38.8687 17.3438Z" fill="white"/>
<path d="M78.9465 17.3437C79.8767 17.8446 80.4402 18.2303 80.8215 19.2187C80.8972 20.3034 80.7137 21.128 80.133 22.0459C79.1157 22.6895 78.2449 22.7139 77.0715 22.5C76.3838 22.0789 76.0234 21.81 75.6652 21.0937C75.5151 19.8819 75.4545 19.029 76.2072 18.0322C77.1286 17.368 77.8269 17.234 78.9465 17.3437Z" fill="white"/>
<path d="M59.4934 17.5781C60.2112 18.0322 60.2112 18.0322 60.6653 18.75C60.8796 19.9155 60.8495 20.7928 60.2258 21.8115C59.3539 22.6065 58.6444 22.596 57.4976 22.5778C56.9153 22.5 56.9153 22.5 56.1975 22.0459C55.6034 21.1069 55.4075 20.3277 55.509 19.2187C56.4126 17.3781 57.6033 17.0736 59.4934 17.5781Z" fill="white"/>
<path d="M48.9465 17.3437C49.8767 17.8446 50.4402 18.2303 50.8215 19.2187C50.8972 20.3034 50.7137 21.128 50.133 22.0459C49.1157 22.6895 48.2449 22.7139 47.0715 22.5C46.3838 22.0789 46.0234 21.81 45.6652 21.0937C45.5151 19.8819 45.4545 19.029 46.2072 18.0322C47.1286 17.368 47.8269 17.234 48.9465 17.3437Z" fill="white"/>
</svg>
