<svg width="121" height="120" viewBox="0 0 121 120" fill="none" xmlns="http://www.w3.org/2000/svg">
<g clip-path="url(#clip0_151_167)">
<path d="M60.7386 -0.0732307C61.0255 -0.0800285 61.3124 -0.0868263 61.6079 -0.0938301C62.781 -0.102123 63.7029 -0.102739 64.7917 0.356152C66.1723 1.78632 66.4137 3.33571 66.7538 5.25222C67.1199 7.73018 67.1199 7.73018 68.3768 9.79638C69.8075 10.5783 71.5201 10.7622 73.0873 10.3125C73.5617 9.96605 73.5617 9.96605 73.9808 9.51051C74.141 9.34736 74.3011 9.18422 74.4661 9.01612C74.6298 8.84452 74.7936 8.67291 74.9623 8.49611C75.2079 8.24413 75.2079 8.24413 75.4585 7.98707C75.7765 7.66067 76.0937 7.33345 76.4099 7.00534C78.6765 4.65684 78.6765 4.65684 80.2577 4.60237C81.6251 4.62034 82.5518 5.08032 83.7074 5.7715C83.8882 5.8715 84.069 5.9715 84.2553 6.07454C85.5837 6.83849 86.6477 7.63437 87.1498 9.14064C87.3482 11.3883 86.5511 13.3391 85.8177 15.4385C85.3008 16.8679 85.3008 16.8679 85.4696 18.3149C85.8396 18.7571 86.2316 19.0922 86.681 19.4531C87.0254 19.7972 87.3672 20.144 87.7064 20.4932C87.989 20.7721 88.272 21.0506 88.556 21.3281C89.5571 21.0599 90.558 20.7912 91.559 20.5225C91.8437 20.4462 92.1285 20.3699 92.4218 20.2913C92.6945 20.218 92.9672 20.1448 93.2481 20.0693C93.4997 20.0018 93.7513 19.9343 94.0106 19.8647C94.4616 19.7397 94.9089 19.6011 95.3529 19.4531C96.4662 19.3363 97.4075 19.3284 98.4437 19.7754C99.3857 20.6545 100.058 21.6481 100.744 22.7344C100.861 22.9205 100.979 23.1066 101.1 23.2984C101.806 24.4867 102.32 25.5371 102.064 26.9585C101.609 28.5715 100.742 29.4301 99.4984 30.5127C99.1476 30.8284 98.797 31.1443 98.4465 31.4603C97.4933 32.3166 97.4933 32.3166 97.0174 32.7323C96.2719 33.3903 96.2719 33.3903 96.0048 34.3094C96.0881 34.5763 96.0881 34.5763 96.1732 34.8486C96.2557 35.1464 96.2557 35.1464 96.3398 35.4501C96.4009 35.6625 96.4619 35.8749 96.5248 36.0938C96.6178 36.5713 96.7058 37.0499 96.7885 37.5293C96.8277 37.7474 96.867 37.9656 96.9075 38.1903C96.9359 38.3492 96.9643 38.5082 96.9935 38.6719C97.1253 38.6921 97.257 38.7124 97.3927 38.7332C98.9393 38.9918 100.464 39.3323 101.989 39.6973C102.19 39.7434 102.392 39.7895 102.599 39.8371C104.334 40.262 105.562 40.9183 106.603 42.4219C106.977 43.5453 106.9 44.6876 106.911 45.8643C106.917 46.1137 106.924 46.3631 106.931 46.62C106.943 48.0996 106.895 49.4531 105.9 50.625C104.95 51.3533 104.112 51.7303 102.954 52.013C102.666 52.084 102.379 52.155 102.083 52.2281C101.637 52.3337 101.637 52.3337 101.183 52.4414C100.735 52.5524 100.735 52.5524 100.278 52.6657C98.0697 53.2031 98.0697 53.2031 96.9935 53.2031C96.9694 53.4593 96.9452 53.7155 96.9203 53.9795C96.7903 55.0498 96.5059 56.0571 96.2016 57.0896C96.0269 57.6722 96.0269 57.6722 96.056 58.3594C96.4027 58.7438 96.4027 58.7438 96.8708 59.1083C97.9158 59.9856 98.9128 60.8977 99.8939 61.8457C100.06 61.9995 100.227 62.1533 100.398 62.3117C101.496 63.3799 102.082 64.3007 102.15 65.8594C101.936 67.3104 101.159 68.5469 100.436 69.7998C100.35 69.9514 100.264 70.1029 100.176 70.2591C99.4243 71.5066 98.624 72.2186 97.1913 72.6389C95.9203 72.6634 94.8116 72.3421 93.5951 71.9971C93.3591 71.9329 93.1232 71.8687 92.8801 71.8025C92.0476 71.5751 91.2161 71.3459 90.3902 71.0955C89.5242 70.8333 88.9661 70.7493 88.0873 71.0156C88.4661 72.4865 89.2785 73.6899 90.0648 74.9707C90.302 75.3613 90.5392 75.7518 90.776 76.1426C90.9441 76.4198 91.1122 76.6969 91.2806 76.9739C92.1947 78.4796 93.091 79.9957 93.9876 81.5119C95.5714 84.1891 97.1724 86.8549 98.7926 89.5102C100.137 91.7142 101.448 93.9355 102.748 96.1656C104.178 98.6169 105.64 101.047 107.12 103.468C107.882 104.716 108.64 105.966 109.385 107.224C109.516 107.444 109.646 107.663 109.78 107.89C110.899 109.959 111.145 112.098 110.573 114.375C109.878 116.44 108.527 118.241 106.603 119.297C104.834 120.156 103.128 120.099 101.192 120.091C100.831 120.092 100.469 120.093 100.108 120.095C99.1177 120.098 98.1276 120.097 97.1374 120.095C96.0683 120.094 94.9993 120.097 93.9303 120.1C91.837 120.104 89.7437 120.104 87.6504 120.103C85.9486 120.102 84.2468 120.102 82.5451 120.103C82.1817 120.103 82.1817 120.103 81.8109 120.104C81.3187 120.104 80.8265 120.104 80.3343 120.105C75.7189 120.108 71.1035 120.107 66.4882 120.104C62.2676 120.102 58.047 120.105 53.8264 120.11C49.4911 120.116 45.1557 120.118 40.8204 120.117C38.3871 120.116 35.9538 120.117 33.5205 120.121C31.4489 120.124 29.3773 120.124 27.3056 120.12C26.2491 120.118 25.1927 120.118 24.1362 120.121C23.1679 120.124 22.1998 120.123 21.2316 120.119C20.8824 120.118 20.5332 120.119 20.184 120.121C17.0863 120.141 14.8925 119.666 12.6405 117.474C11.1808 115.924 10.4948 114.157 10.4213 112.031C10.5924 107.936 13.6211 104.252 15.6829 100.874C16.9828 98.7433 18.2618 96.6011 19.5326 94.4531C21.0836 91.8323 22.6527 89.2236 24.2382 86.6235C25.7105 84.2061 27.1536 81.7718 28.5915 79.3339C29.4312 77.9126 30.2784 76.499 31.1635 75.1053C31.3082 74.8769 31.453 74.6484 31.6022 74.4131C31.868 73.9968 32.1362 73.5822 32.4074 73.1695C32.5226 72.9892 32.6378 72.809 32.7565 72.6233C32.857 72.4697 32.9575 72.3162 33.0611 72.158C33.2896 71.6079 33.2064 71.332 33.0092 70.7813C31.4931 70.9231 30.1136 71.2784 28.6586 71.7188C24.6123 72.9381 24.6123 72.9381 22.931 72.1875C21.349 70.835 19.5801 68.3656 19.3596 66.265C19.3538 66.0683 19.3481 65.8716 19.3422 65.669C19.3334 65.4741 19.3246 65.2792 19.3156 65.0784C19.5532 63.5899 20.783 62.5502 21.8177 61.5381C22.0186 61.3373 22.0186 61.3373 22.2234 61.1323C22.9621 60.4004 23.7161 59.74 24.5424 59.1065C24.9769 58.7522 24.9769 58.7522 25.2748 58.3594C25.3158 57.5795 25.2482 57.2127 25.0404 56.4844C24.9166 55.8988 24.7946 55.3128 24.6742 54.7266C24.5627 54.2186 24.4506 53.7107 24.3373 53.2031C24.0865 53.1781 23.8358 53.153 23.5774 53.1271C22.2345 52.9583 20.9329 52.6341 19.6205 52.3096C19.2484 52.2223 19.2484 52.2223 18.8688 52.1333C17.2911 51.7443 16.0115 51.4057 15.0062 50.0537C14.3956 48.7361 14.4506 47.392 14.4496 45.9668C14.4453 45.66 14.4453 45.66 14.4409 45.347C14.4378 43.9795 14.4694 42.694 15.2516 41.5183C17.5547 39.4942 21.4157 39.2575 24.3373 38.6719C24.4503 38.1594 24.5624 37.6466 24.6742 37.1338C24.7367 36.8483 24.7993 36.5628 24.8637 36.2686C24.922 35.9789 24.9803 35.6892 25.0404 35.3906C25.1075 35.13 25.1745 34.8694 25.2436 34.6008C25.3615 33.7253 25.3615 33.7253 24.7887 33.0586C24.5556 32.8289 24.3175 32.6043 24.0754 32.384C23.9508 32.2632 23.8262 32.1423 23.6978 32.0178C23.2999 31.6335 22.8962 31.2561 22.4916 30.8789C22.0899 30.4972 21.6896 30.1142 21.2904 29.73C21.0419 29.4917 20.7918 29.255 20.54 29.0202C19.641 28.1695 19.3785 27.565 19.333 26.3425C19.3484 24.9753 19.8085 24.0507 20.4994 22.8955C20.5994 22.7147 20.6994 22.5339 20.8024 22.3476C21.529 21.0842 22.3025 20.119 23.6342 19.4531C25.9381 19.1456 28.039 20.0353 30.1779 20.7852C31.622 21.3158 31.622 21.3158 33.0691 21.0952C33.4897 20.7316 33.8287 20.3508 34.181 19.9219C34.3801 19.7847 34.5792 19.6476 34.7844 19.5062C35.381 19.0541 35.72 18.7211 36.056 18.0469C35.9767 16.8931 35.6602 15.8711 35.2852 14.7819C33.714 10.2086 33.714 10.2086 34.3751 8.69695C35.1707 7.32649 36.12 6.62214 37.4916 5.85939C37.6898 5.74743 37.8881 5.63547 38.0923 5.52013C39.3425 4.84905 40.3932 4.40731 41.8394 4.50532C43.1592 4.94674 44.1068 5.88212 45.0648 6.85548C45.1757 6.96785 45.2865 7.08022 45.4008 7.196C46.1964 8.00902 46.9583 8.84636 47.6951 9.71284C47.9437 10.002 48.2083 10.2773 48.4779 10.5469C49.7881 10.4614 51.0392 10.0906 52.3048 9.75496C52.931 9.60939 52.931 9.60939 53.6342 9.60939C53.6574 9.36346 53.6807 9.11753 53.7047 8.86415C53.8851 7.43361 54.2528 6.05151 54.6156 4.65821C54.681 4.38781 54.7464 4.11741 54.8138 3.83882C55.2308 2.24264 55.5895 1.24943 56.9154 0.234386C58.146 -0.175803 59.4506 -0.063152 60.7386 -0.0732307ZM59.2592 4.21876C59.206 4.42562 59.1529 4.63248 59.0982 4.84561C58.8992 5.61696 58.6985 6.38784 58.4967 7.15846C58.4099 7.49131 58.3237 7.82433 58.2383 8.15753C58.1149 8.63799 57.9892 9.11777 57.863 9.59748C57.7881 9.88592 57.7132 10.1744 57.6361 10.4715C57.3973 11.2095 57.0911 11.7691 56.681 12.4219C56.681 12.5766 56.681 12.7313 56.681 12.8906C55.3205 13.4606 53.9129 13.8227 52.4916 14.209C52.22 14.2851 51.9484 14.3613 51.6685 14.4397C48.188 15.3864 48.188 15.3864 46.3932 14.404C44.5321 13.116 43.0969 11.1877 41.6371 9.47755C41.2472 9.09664 41.2472 9.09664 40.7875 9.14064C40.0383 9.48312 39.3419 9.89061 38.6342 10.3125C38.9683 12.1772 39.4692 13.9569 40.0528 15.7576C40.5364 17.352 40.6613 18.7325 40.0258 20.3027C39.4932 20.9555 38.9013 21.466 38.257 22.0065C37.3589 22.7975 36.5389 23.6657 35.7081 24.5261C34.6753 25.4932 33.8971 25.6438 32.5144 25.6157C31.2442 25.4866 30.0492 25.0904 28.8344 24.7119C28.3209 24.5529 27.8067 24.3963 27.2917 24.2423C27.0673 24.1723 26.8428 24.1023 26.6116 24.0303C25.9191 23.8947 25.4776 23.9359 24.806 24.1406C24.4525 24.4773 24.4525 24.4773 24.2347 24.917C24.1529 25.0563 24.071 25.1956 23.9866 25.3391C23.8225 25.7828 23.8225 25.7828 24.0264 26.2067C24.421 26.8567 24.8981 27.3236 25.4432 27.854C25.6617 28.0688 25.8801 28.2836 26.1052 28.505C26.336 28.73 26.5671 28.9549 26.7982 29.1797C27.2513 29.6202 27.7026 30.0623 28.1532 30.5054C28.354 30.7007 28.5547 30.896 28.7616 31.0973C29.6369 32.0531 29.8226 32.747 29.7915 34.0563C29.6627 35.3346 29.3078 36.5578 28.9662 37.793C28.8606 38.1999 28.8606 38.1999 28.7529 38.6151C28.6819 38.8768 28.6109 39.1384 28.5377 39.408C28.442 39.7616 28.442 39.7616 28.3443 40.1223C27.9692 41.084 27.5243 41.7527 26.6029 42.2459C24.9144 42.8062 23.2146 43.2542 21.4808 43.6524C21.0791 43.7466 21.0791 43.7466 20.6692 43.8428C20.0172 43.9956 19.3648 44.1464 18.7123 44.2969C18.7123 45.3797 18.7123 46.4625 18.7123 47.5781C19.4786 47.7689 19.4786 47.7689 20.2604 47.9636C20.7578 48.0888 21.255 48.2147 21.7521 48.3406C22.0963 48.4274 22.4407 48.5136 22.7853 48.599C23.282 48.7223 23.7781 48.8481 24.2741 48.9743C24.5724 49.0492 24.8706 49.1241 25.1779 49.2012C25.9293 49.4378 26.4885 49.7382 27.1498 50.1563C27.3045 50.1563 27.4592 50.1563 27.6185 50.1563C27.9472 50.9436 28.2119 51.7218 28.4324 52.5458C28.4933 52.7715 28.5542 52.9972 28.6169 53.2297C28.679 53.4626 28.7411 53.6956 28.8051 53.9356C28.9297 54.4001 29.0545 54.8646 29.1795 55.329C29.2342 55.5339 29.2889 55.7387 29.3453 55.9498C29.4607 56.366 29.5914 56.7778 29.7279 57.1875C29.7755 57.6682 29.7755 57.6682 29.7865 58.1983C29.7925 58.3714 29.7986 58.5445 29.8048 58.7229C29.6165 60.1285 28.7939 61.0204 27.809 61.9776C27.6954 62.0886 27.5818 62.1996 27.4647 62.314C26.6544 63.0997 25.8208 63.8553 24.9598 64.585C24.578 64.9163 24.2216 65.2634 23.8685 65.625C24.1568 66.5784 24.5156 67.3592 25.0404 68.2031C25.5972 68.0672 26.1539 67.9305 26.7103 67.793C26.8794 67.7514 27.0484 67.7097 27.2226 67.6669C28.3421 67.3877 29.4442 67.0736 30.5482 66.7383C32.4266 66.1982 33.585 66.0669 35.3529 67.0313C35.6623 67.0313 35.9717 67.0313 36.2904 67.0313C36.7289 66.5033 36.7289 66.5033 37.0997 65.8008C37.2448 65.547 37.3898 65.2932 37.5392 65.0318C37.6878 64.7635 37.8365 64.4952 37.9896 64.2188C38.1419 63.9505 38.2942 63.6822 38.451 63.4058C38.8278 62.741 39.2011 62.0745 39.5717 61.4063C39.4632 61.2235 39.3548 61.0407 39.2432 60.8523C36.4546 56.1175 34.7885 51.5961 34.7963 46.0401C34.7964 45.8856 34.7965 45.7312 34.7967 45.5722C34.8232 38.5462 37.6096 32.3127 42.4574 27.2461C47.6414 22.2366 54.3575 20.0287 61.4666 20.0734C63.5419 20.1157 65.4555 20.3182 67.4623 20.8594C67.7487 20.9364 68.0351 21.0135 68.3302 21.0928C72.0724 22.2241 75.3138 24.152 78.2435 26.7188C78.4354 26.8867 78.6272 27.0547 78.8249 27.2278C83.1185 31.2706 86.2245 37.3984 86.4755 43.3389C86.6425 50.2917 85.3117 55.4854 81.7592 61.4063C83.4994 64.3067 83.4994 64.3067 85.2748 67.2656C86.1468 66.9172 86.1468 66.9172 87.0033 66.5332C88.322 66.0936 89.5327 66.3499 90.8302 66.7465C91.1178 66.8322 91.4054 66.9178 91.7018 67.0061C92.0009 67.0972 92.3 67.1887 92.599 67.2803C93.1904 67.4612 93.7824 67.6392 94.3751 67.8159C94.7663 67.9355 94.7663 67.9355 95.1655 68.0576C95.836 68.2653 95.836 68.2653 96.5248 67.9688C96.8212 67.6209 96.8212 67.6209 97.0521 67.1924C97.1355 67.0531 97.2189 66.9138 97.3048 66.7703C97.5079 66.2 97.4279 65.9584 97.2279 65.3906C96.9027 64.9654 96.9027 64.9654 96.4854 64.5712C96.3339 64.4209 96.1824 64.2706 96.0263 64.1158C95.7872 63.884 95.7872 63.884 95.5433 63.6475C95.3111 63.417 95.3111 63.417 95.0741 63.1819C94.3795 62.4982 93.6822 61.8384 92.9222 61.2277C92.1485 60.569 91.9027 60.0284 91.6029 59.0625C91.5154 57.7543 91.7517 56.7159 92.1449 55.4883C92.2545 55.1368 92.3638 54.7853 92.4727 54.4336C92.5255 54.2638 92.5782 54.094 92.6326 53.9191C92.8773 53.0901 93.0567 52.2446 93.228 51.3977C93.6645 50.4575 94.3971 49.8885 95.3376 49.5004C95.8424 49.3429 96.3477 49.211 96.8617 49.0869C97.0444 49.0396 97.2272 48.9922 97.4155 48.9435C97.7916 48.8462 98.1681 48.7504 98.545 48.6562C99.2371 48.4818 99.9261 48.297 100.615 48.1107C101.282 47.9311 101.951 47.755 102.619 47.5781C102.619 46.4953 102.619 45.4125 102.619 44.2969C102.093 44.1724 101.568 44.0479 101.027 43.9197C100.515 43.7962 100.003 43.6718 99.4914 43.5473C99.1375 43.4618 98.7834 43.3772 98.429 43.2937C97.9175 43.173 97.4069 43.0486 96.8965 42.9236C96.7397 42.8874 96.5829 42.8512 96.4213 42.814C95.3618 42.5494 94.5675 42.1634 93.7123 41.4844C93.4077 40.8377 93.2006 40.2883 93.0092 39.6094C92.9483 39.4087 92.8875 39.2081 92.8248 39.0014C92.6287 38.3419 92.4442 37.68 92.2621 37.0166C92.1662 36.681 92.1662 36.681 92.0685 36.3387C91.5538 34.4696 91.3161 33.1565 92.306 31.4063C92.7798 30.8527 92.7798 30.8527 93.3159 30.3278C93.5103 30.1356 93.7047 29.9435 93.905 29.7455C94.1073 29.5491 94.3095 29.3527 94.5179 29.1504C94.7193 28.9522 94.9207 28.754 95.1281 28.5498C95.503 28.1811 95.8786 27.8131 96.2551 27.446C96.7392 26.9727 97.2188 26.4953 97.6967 26.0156C97.2326 25.3195 96.7685 24.6234 96.2904 23.9063C95.104 24.0343 94.0254 24.3101 92.8861 24.6617C88.6835 25.9562 88.6835 25.9562 87.1498 25.5469C85.7478 24.7822 84.6912 23.6264 83.5756 22.5C83.3846 22.3109 83.1937 22.1218 82.9969 21.9269C82.8145 21.7438 82.632 21.5607 82.444 21.3721C82.2786 21.2062 82.1133 21.0403 81.9429 20.8695C81.0235 19.8167 80.9621 18.9616 80.9873 17.598C81.1072 16.3376 81.4973 15.1729 81.891 13.9746C82.05 13.4853 82.2067 12.9952 82.3607 12.5043C82.4306 12.2912 82.5006 12.0781 82.5727 11.8585C82.7115 11.1772 82.6637 10.7401 82.4623 10.0781C81.7832 9.47041 81.035 9.14064 80.1185 9.14064C79.7911 9.43538 79.7911 9.43538 79.474 9.85841C78.593 10.9076 77.6526 11.8868 76.6908 12.8613C76.5395 13.0176 76.3882 13.1738 76.2323 13.3347C75.1585 14.4167 74.4718 14.9511 72.9097 15.0632C71.8342 15.0342 70.8602 14.7674 69.8353 14.458C69.6508 14.4038 69.4663 14.3495 69.2762 14.2936C68.9127 14.1866 68.5494 14.0789 68.1863 13.9703C67.7748 13.8508 67.3593 13.7453 66.9432 13.6432C66.7423 13.593 66.5414 13.5429 66.3344 13.4912C66.0856 13.4337 66.0856 13.4337 65.8317 13.375C64.8022 12.8375 64.2658 11.9501 63.8796 10.8959C63.7732 10.4526 63.7732 10.4526 63.6647 10.0003C63.6253 9.84159 63.5859 9.68287 63.5453 9.51934C63.4215 9.01794 63.303 8.51547 63.1849 8.01271C63.0624 7.50607 62.9388 6.99972 62.8146 6.49352C62.7032 6.03761 62.5946 5.58101 62.4862 5.12439C62.3736 4.48169 62.3736 4.48169 62.0717 4.21876C61.5983 4.20178 61.1244 4.19913 60.6508 4.20411C60.2624 4.20729 60.2624 4.20729 59.8661 4.21052C59.6658 4.21324 59.4655 4.21596 59.2592 4.21876ZM44.7279 30.9375C44.5563 31.1034 44.3847 31.2692 44.2079 31.4401C40.5627 35.2227 38.7661 40.7343 38.7953 45.8936C38.7966 46.1404 38.7979 46.3872 38.7993 46.6416C38.8562 50.3043 39.7566 54.1661 41.9154 57.1875C42.6316 56.3322 43.2141 55.4529 43.7785 54.4913C43.8652 54.3443 43.9519 54.1973 44.0412 54.0458C44.2275 53.7298 44.4135 53.4135 44.599 53.097C45.0953 52.2508 45.5947 51.4064 46.0939 50.5618C46.1954 50.39 46.2969 50.2181 46.4015 50.041C47.5497 48.0991 48.7207 46.1712 49.8971 44.2462C50.6417 43.0265 51.3807 41.805 52.0979 40.5689C52.2224 40.3558 52.3469 40.1427 52.4752 39.9232C52.6996 39.5378 52.9218 39.1511 53.1411 38.7628C54.3148 36.7547 55.774 35.2403 57.9747 34.4174C60.3667 33.8349 62.9631 33.8968 65.1185 35.1563C66.8294 36.3502 67.7928 37.9363 68.8246 39.7119C68.9958 40.0007 69.1672 40.2894 69.339 40.5778C69.7017 41.1883 70.0624 41.7998 70.4216 42.4123C70.9783 43.3613 71.5401 44.3073 72.1031 45.2527C72.8526 46.5121 73.6009 47.7721 74.348 49.0329C75.3754 50.7663 76.4046 52.4986 77.4379 54.2285C77.5844 54.4751 77.731 54.7217 77.882 54.9758C78.0161 55.1999 78.1502 55.424 78.2884 55.6549C78.4049 55.8502 78.5214 56.0455 78.6414 56.2467C78.9404 56.7453 78.9404 56.7453 79.4154 57.1875C82.3795 52.3572 83.3752 46.495 82.0668 40.957C80.6324 35.4933 77.2755 30.3698 72.3842 27.4219C62.9854 22.0591 52.4355 23.349 44.7279 30.9375ZM57.3365 39.7888C57.1726 40.0586 57.013 40.3311 56.8568 40.6055C56.7627 40.7628 56.6686 40.9201 56.5717 41.0822C56.348 41.4575 56.1264 41.834 55.9062 42.2113C55.4443 43.0017 54.9767 43.7886 54.5085 44.5752C53.9384 45.5336 53.3686 46.4923 52.8008 47.452C51.5688 49.5338 50.3232 51.6066 49.0638 53.6719C47.6407 56.0058 46.2374 58.3507 44.8451 60.7031C43.3731 63.1902 41.8866 65.6674 40.3821 68.1349C39.0409 70.3356 37.7202 72.5478 36.4076 74.7656C34.9356 77.2527 33.4491 79.7299 31.9446 82.1974C30.6034 84.3981 29.2827 86.6103 27.9701 88.8281C26.5778 91.1806 25.1744 93.5254 23.7513 95.8594C22.1048 98.5607 20.4835 101.276 18.872 103.999C18.7847 104.146 18.6973 104.294 18.6073 104.446C18.4343 104.738 18.2615 105.031 18.0888 105.323C17.6375 106.086 17.1824 106.846 16.7219 107.603C16.626 107.761 16.5301 107.92 16.4313 108.082C16.2485 108.384 16.0649 108.684 15.8805 108.984C15.0662 110.327 14.5716 111.318 14.7892 112.886C15.1078 113.901 15.7905 114.646 16.6029 115.313C17.5139 115.756 18.2488 115.84 19.2571 115.842C19.5579 115.844 19.8587 115.846 20.1686 115.847C20.5019 115.847 20.8352 115.846 21.1686 115.846C21.523 115.847 21.8775 115.848 22.232 115.849C23.2064 115.853 24.1809 115.853 25.1553 115.853C26.2061 115.853 27.2569 115.856 28.3077 115.859C30.6055 115.864 32.9032 115.866 35.2009 115.867C36.6355 115.868 38.07 115.87 39.5045 115.871C43.476 115.876 47.4475 115.88 51.419 115.88C51.8003 115.881 51.8003 115.881 52.1892 115.881C52.7045 115.881 53.2197 115.881 53.735 115.881C54.1186 115.881 54.1186 115.881 54.51 115.881C54.8942 115.881 54.8942 115.881 55.286 115.881C59.4367 115.882 63.5873 115.888 67.7379 115.897C71.9988 115.906 76.2597 115.911 80.5206 115.911C82.9132 115.911 85.3057 115.913 87.6982 115.919C89.7353 115.925 91.7722 115.927 93.8093 115.923C94.8486 115.922 95.8878 115.922 96.9272 115.927C97.8789 115.932 98.8306 115.931 99.7823 115.927C100.126 115.926 100.47 115.927 100.814 115.93C102.705 115.947 104.218 115.935 105.665 114.609C106.413 113.717 106.634 112.715 106.603 111.563C106.127 109.946 105.285 108.595 104.399 107.171C103.948 106.447 103.504 105.719 103.058 104.993C102.964 104.84 102.871 104.688 102.775 104.531C101.727 102.824 100.708 101.1 99.6888 99.375C98.2882 97.0071 96.8739 94.6483 95.4408 92.2998C94.0132 89.9603 92.6168 87.6044 91.2366 85.2367C90.0132 83.139 88.767 81.0568 87.5013 78.9844C86.1497 76.7712 84.823 74.5451 83.517 72.3047C82.1407 69.9442 80.7403 67.6002 79.317 65.2677C77.742 62.6858 76.194 60.0883 74.6534 57.4857C74.478 57.1895 74.3027 56.8932 74.1273 56.597C74.0412 56.4514 73.955 56.3059 73.8663 56.1559C73.2603 55.1331 72.6497 54.1131 72.0372 53.0942C71.3188 51.8992 70.6055 50.7014 69.8967 49.5007C67.4361 45.3273 67.4361 45.3273 64.9135 41.1914C64.8064 41.016 64.6994 40.8405 64.5891 40.6597C63.8652 39.5091 63.1719 38.648 61.8373 38.2031C61.3036 38.1395 61.3036 38.1395 60.724 38.1299C60.4358 38.1168 60.4358 38.1168 60.1417 38.1033C58.9066 38.2935 58.0961 38.8353 57.3365 39.7888Z" fill="white"/>
<path d="M64.4155 56.9531C65.7358 58.1464 66.6242 59.4947 66.8254 61.2947C66.8519 61.9758 66.8569 62.6537 66.8539 63.3352C66.8555 63.5927 66.8572 63.8502 66.8588 64.1155C66.8631 64.9626 66.8622 65.8097 66.8609 66.6568C66.8619 67.2481 66.8632 67.8394 66.8646 68.4307C66.8667 69.6686 66.8662 70.9064 66.8638 72.1442C66.8611 73.5706 66.8644 74.997 66.8707 76.4234C66.8765 77.8012 66.8771 79.179 66.8756 80.5568C66.8755 81.1405 66.8769 81.7243 66.8799 82.308C66.8834 83.1252 66.8808 83.9422 66.8768 84.7595C66.8791 84.9988 66.8814 85.2381 66.8837 85.4847C66.8649 87.3174 66.4659 88.744 65.2944 90.1758C63.6316 91.5363 62.2966 92.2009 60.1336 92.1753C58.4402 92.0009 57.0658 91.3118 55.978 90C55.8088 89.8115 55.6396 89.623 55.4653 89.4287C54.4512 87.9951 54.5022 86.5358 54.5036 84.8467C54.5021 84.5897 54.5005 84.3327 54.4989 84.0678C54.4944 83.2193 54.4935 82.3708 54.493 81.5222C54.4915 80.9308 54.4899 80.3394 54.4883 79.748C54.4855 78.5083 54.4846 77.2687 54.4849 76.0291C54.4852 74.6011 54.4802 73.1731 54.4728 71.7451C54.4659 70.3663 54.4643 68.9876 54.4645 67.6087C54.464 67.0245 54.4619 66.4404 54.4583 65.8562C54.4537 65.0372 54.4551 64.2185 54.4579 63.3996C54.4552 63.1604 54.4526 62.9212 54.4499 62.6747C54.4659 60.8299 54.8285 59.1874 56.021 57.7368C56.1953 57.5942 56.3697 57.4516 56.5493 57.3047C56.8099 57.0836 56.8099 57.0836 57.0757 56.8579C59.2617 55.3539 62.2651 55.4334 64.4155 56.9531ZM58.7905 61.4063C58.6533 62.2129 58.6672 63.01 58.6766 63.8265C58.6757 64.0698 58.6748 64.3131 58.6739 64.5637C58.6722 65.3671 58.6772 66.1702 58.6825 66.9736C58.683 67.5319 58.6832 68.0903 58.6831 68.6486C58.6838 69.8183 58.6877 70.988 58.694 72.1577C58.702 73.6581 58.7038 75.1584 58.7034 76.6588C58.7035 77.8115 58.7061 78.9641 58.7095 80.1168C58.711 80.6701 58.7119 81.2234 58.7123 81.7767C58.7133 82.5493 58.7174 83.3219 58.7224 84.0945C58.7222 84.3238 58.722 84.553 58.7218 84.7893C58.7238 84.9999 58.7258 85.2105 58.7278 85.4275C58.7286 85.61 58.7294 85.7926 58.7302 85.9807C58.7989 86.5544 58.9605 86.9297 59.2592 87.4219C59.8599 87.8724 60.1574 87.8931 60.9145 87.8467C61.6168 87.6525 61.8735 87.5224 62.3061 86.9531C62.5785 86.4084 62.5717 86.0905 62.575 85.4838C62.5767 85.2739 62.5783 85.0639 62.5801 84.8476C62.5807 84.6166 62.5813 84.3857 62.582 84.1477C62.5835 83.9049 62.5851 83.6621 62.5866 83.412C62.5913 82.606 62.594 81.8 62.5963 80.994C62.5973 80.7192 62.5982 80.4444 62.5992 80.1613C62.6041 78.7072 62.6075 77.253 62.6097 75.7989C62.6123 74.2951 62.6203 72.7913 62.6296 71.2876C62.6358 70.1329 62.6377 68.9782 62.6386 67.8235C62.6397 67.269 62.6424 66.7146 62.6468 66.1602C62.6525 65.3847 62.6523 64.6095 62.6506 63.834C62.6551 63.4896 62.6551 63.4896 62.6597 63.1384C62.6519 62.1225 62.6349 61.5603 62.0942 60.6783C61.5671 60.202 61.3655 60.0742 60.6655 60.0879C60.4335 60.0834 60.4335 60.0834 60.1967 60.0788C59.4309 60.333 59.2111 60.7211 58.7905 61.4063Z" fill="white"/>
<path d="M64.2213 96.8921C65.6567 98.0361 66.592 99.4135 66.8626 101.248C66.9394 103.195 66.4465 104.696 65.2797 106.245C63.9211 107.604 62.5313 108.075 60.6361 108.135C58.8691 108.117 57.5836 107.663 56.2489 106.498C55.0458 105.212 54.5454 103.846 54.4691 102.1C54.5287 100.306 55.0601 98.8262 56.3002 97.5147C58.536 95.4843 61.6883 95.2521 64.2213 96.8921ZM59.5668 100.444C58.9684 100.993 58.9684 100.993 58.7611 101.821C58.7153 102.682 58.7153 102.682 59.2738 103.345C59.923 103.868 59.923 103.868 60.6654 103.975C61.6294 103.774 61.9772 103.458 62.5404 102.656C62.618 101.812 62.618 101.812 62.306 101.016C61.7939 100.422 61.7939 100.422 61.1342 100.078C60.2103 99.9996 60.2103 99.9996 59.5668 100.444Z" fill="white"/>
</g>
<defs>
<clipPath id="clip0_151_167">
<rect width="120" height="120" fill="white" transform="translate(0.665405)"/>
</clipPath>
</defs>
</svg>
