<svg width="121" height="120" viewBox="0 0 121 120" fill="none" xmlns="http://www.w3.org/2000/svg">
<path d="M49.0734 9.51785C50.5794 10.547 51.3965 11.8667 51.8941 13.5938C51.8941 13.8258 51.8941 14.0578 51.8941 14.2969C52.0358 14.2932 52.1776 14.2895 52.3236 14.2857C52.9714 14.2711 53.6192 14.262 54.2671 14.253C54.4901 14.2471 54.7131 14.2412 54.9428 14.2351C56.4051 14.2199 57.4887 14.3153 58.6077 15.3598C59.3728 16.3604 59.6591 16.8257 59.6431 18.0762C59.641 18.2895 59.6389 18.5028 59.6367 18.7226C59.6326 18.9682 59.6326 18.9682 59.6285 19.2188C59.8122 19.2172 59.996 19.2157 60.1853 19.2141C61.9231 19.1999 63.6608 19.1892 65.3986 19.1824C66.2919 19.1787 67.1851 19.1737 68.0783 19.1657C68.9415 19.1581 69.8046 19.1539 70.6678 19.1521C70.996 19.1508 71.3241 19.1483 71.6523 19.1444C74.2231 19.1158 76.0271 19.3036 77.9656 21.1011C79.0896 22.3573 79.5745 23.8271 79.5874 25.4932C79.5909 25.8294 79.5909 25.8294 79.5944 26.1724C79.5957 26.4167 79.5971 26.661 79.5985 26.9126C79.6008 27.1711 79.6031 27.4296 79.6055 27.6958C79.6129 28.5506 79.6187 29.4053 79.6245 30.26C79.6293 30.8525 79.6342 31.4449 79.6393 32.0374C79.6509 33.4377 79.6615 34.8379 79.6716 36.2382C79.6832 37.8327 79.6961 39.4271 79.709 41.0215C79.7357 44.3008 79.7607 47.5801 79.7847 50.8594C79.951 50.9523 80.1173 51.0452 80.2887 51.1409C81.0528 51.5678 81.8168 51.995 82.5807 52.4222C82.8423 52.5683 83.1038 52.7143 83.3733 52.8648C85.3209 53.9544 87.2527 55.0668 89.1684 56.2115C89.6531 56.499 90.1404 56.7817 90.6282 57.0639C90.9493 57.2516 91.2703 57.4393 91.5914 57.627C91.7379 57.7108 91.8845 57.7946 92.0355 57.8809C92.8262 58.3471 93.385 58.7355 93.8472 59.5313C93.9318 60.258 93.9318 60.258 93.927 61.1222C93.9271 61.2801 93.9272 61.438 93.9274 61.6006C93.9269 62.1206 93.9214 62.6405 93.9159 63.1604C93.9146 63.5217 93.9136 63.8829 93.9129 64.2441C93.9102 65.1936 93.9033 66.1429 93.8955 67.0923C93.8883 68.0617 93.8851 69.031 93.8815 70.0003C93.874 71.9013 93.862 73.8022 93.8472 75.7032C94.0629 75.7715 94.2785 75.8399 94.5007 75.9103C95.3902 76.2194 96.1531 76.666 96.9527 77.1533C97.3034 77.3636 97.6544 77.5736 98.0055 77.7832C98.1991 77.8989 98.3927 78.0147 98.5922 78.1339C100.098 79.0245 101.621 79.888 103.14 80.7557C104.367 81.4598 105.586 82.174 106.791 82.9148C107.001 83.0434 107.211 83.1721 107.427 83.3046C107.91 83.6719 107.91 83.6719 108.144 84.375C108.169 84.9186 108.179 85.4628 108.182 86.0068C108.183 86.1719 108.184 86.337 108.185 86.5071C108.189 87.0531 108.19 87.5991 108.192 88.1452C108.193 88.525 108.194 88.9047 108.196 89.2845C108.198 90.0809 108.2 90.8772 108.2 91.6736C108.202 92.6932 108.207 93.7127 108.214 94.7322C108.218 95.5168 108.22 96.3013 108.22 97.0859C108.221 97.4618 108.223 97.8376 108.226 98.2134C108.23 98.7396 108.229 99.2657 108.228 99.7919C108.228 100.091 108.229 100.39 108.23 100.699C108.137 101.545 107.948 101.98 107.441 102.656C106.941 103.035 106.941 103.035 106.356 103.365C106.026 103.554 106.026 103.554 105.688 103.748C105.45 103.88 105.211 104.013 104.965 104.15C104.594 104.362 104.594 104.362 104.216 104.578C103.689 104.878 103.161 105.177 102.633 105.475C101.544 106.09 100.462 106.717 99.3798 107.343C98.3976 107.911 97.4145 108.478 96.4295 109.041C95.938 109.327 95.4508 109.621 94.9674 109.921C94.7222 110.072 94.477 110.222 94.2244 110.377C94.0056 110.514 93.7868 110.652 93.5613 110.793C92.8042 111.142 92.3288 111.182 91.5035 111.094C91.0028 110.909 91.0028 110.909 90.5385 110.645C90.3604 110.546 90.1824 110.446 89.9989 110.344C89.809 110.234 89.6191 110.123 89.4234 110.01C89.2217 109.896 89.02 109.782 88.8122 109.664C88.1445 109.285 87.48 108.901 86.816 108.516C86.58 108.379 86.344 108.242 86.1009 108.102C85.6149 107.82 85.1291 107.538 84.6437 107.255C84.1596 106.973 83.6746 106.693 83.1888 106.414C82.171 105.826 81.1749 105.242 80.2287 104.543C79.4799 104.004 78.8184 103.585 77.9097 103.359C76.7322 103.673 75.842 104.234 74.8482 104.925C74.1115 105.427 73.3357 105.859 72.563 106.304C72.2325 106.498 71.9023 106.693 71.5724 106.889C71.3923 106.995 71.2122 107.102 71.0266 107.212C70.5709 107.482 70.1158 107.754 69.661 108.026C68.9798 108.433 68.2966 108.837 67.6124 109.24C67.2083 109.479 66.8061 109.721 66.404 109.963C66.1539 110.109 65.9039 110.256 65.6462 110.407C65.4237 110.54 65.2011 110.672 64.9718 110.808C64.2084 111.141 63.7347 111.189 62.9097 111.094C62.3015 110.845 62.3015 110.845 61.6884 110.491C61.4573 110.36 61.2262 110.229 60.9881 110.094C60.7424 109.95 60.4968 109.806 60.2437 109.658C59.9876 109.512 59.7316 109.365 59.4677 109.214C58.66 108.75 57.8551 108.282 57.0503 107.813C56.5325 107.513 56.0146 107.213 55.4967 106.913C51.5665 104.634 51.5665 104.634 50.9547 104.19C49.2921 103.051 47.9513 102.928 45.9697 102.959C45.6668 102.958 45.3639 102.957 45.0518 102.956C44.3975 102.954 43.7434 102.956 43.0891 102.962C42.0525 102.971 41.0161 102.969 39.9795 102.966C37.9658 102.962 35.9523 102.969 33.9387 102.977C31.3758 102.986 28.8128 102.989 26.2499 102.985C25.2214 102.983 24.1931 102.987 23.1647 102.994C22.6782 102.996 22.1917 102.997 21.7051 102.997C21.1147 102.996 20.5243 102.999 19.934 103.007C17.9261 102.997 16.3806 102.606 14.6724 101.543C12.6254 99.4375 12.4489 97.1201 12.458 94.3065C12.4571 94.0108 12.4562 93.7152 12.4553 93.4105C12.4529 92.5935 12.4534 91.7766 12.4544 90.9596C12.455 90.0771 12.4528 89.1945 12.4511 88.3119C12.4481 86.5844 12.4477 84.8568 12.4482 83.1292C12.4486 81.7246 12.4482 80.3201 12.4472 78.9155C12.4471 78.7155 12.447 78.5154 12.4468 78.3093C12.4465 77.9028 12.4462 77.4963 12.446 77.0899C12.4434 73.2798 12.4439 69.4698 12.4453 65.6597C12.4466 62.1763 12.4439 58.6929 12.4395 55.2095C12.4349 51.6303 12.433 48.0511 12.4339 44.4719C12.4343 42.4634 12.4337 40.455 12.4304 38.4465C12.4276 36.7367 12.4273 35.0269 12.4301 33.317C12.4315 32.4452 12.4318 31.5734 12.429 30.7016C12.4259 29.7552 12.4284 28.8088 12.4314 27.8624C12.4297 27.5887 12.4279 27.3151 12.4261 27.0331C12.4426 24.5436 12.8723 22.4709 14.6285 20.625C15.9869 19.5496 17.2563 19.1588 18.9776 19.1656C19.4279 19.1656 19.4279 19.1656 19.8873 19.1657C20.2114 19.1681 20.5355 19.1705 20.8595 19.173C21.1938 19.1739 21.5281 19.1745 21.8624 19.175C22.7386 19.1768 23.6148 19.1814 24.491 19.1866C25.3865 19.1914 26.282 19.1935 27.1776 19.1959C28.9321 19.2009 30.6865 19.2089 32.441 19.2188C32.4379 19.0753 32.4348 18.9319 32.4317 18.7841C32.4293 18.5952 32.4269 18.4063 32.4245 18.2117C32.4214 18.0248 32.4184 17.8378 32.4152 17.6452C32.4608 16.6969 32.8168 16.0414 33.4709 15.3653C34.4931 14.4571 35.2809 14.2822 36.6048 14.2227C36.8133 14.2129 37.0217 14.2031 37.2365 14.193C37.4522 14.1838 37.6679 14.1746 37.8902 14.1651C38.1095 14.1549 38.3289 14.1448 38.5549 14.1344C39.095 14.1096 39.6351 14.0857 40.1753 14.0625C40.2309 13.8215 40.2309 13.8215 40.2876 13.5756C40.7158 11.7984 41.4704 10.5563 42.9961 9.51969C44.897 8.53301 47.171 8.53733 49.0734 9.51785ZM43.9253 13.3594C43.4976 14.215 43.5945 15.2352 43.5454 16.1792C43.4566 16.875 43.4566 16.875 42.9878 17.3438C42.3181 17.4148 42.3181 17.4148 41.4717 17.4326C41.1687 17.4406 40.8657 17.4486 40.5535 17.4568C40.2321 17.4633 39.9108 17.4695 39.5894 17.4756C38.9619 17.4892 38.3345 17.5045 37.7071 17.5205C37.4278 17.5261 37.1485 17.5317 36.8607 17.5375C36.2038 17.5334 36.2038 17.5334 35.7222 17.8125C35.7155 18.7842 35.7113 19.7559 35.7076 20.7276C35.7056 21.0051 35.7036 21.2826 35.7016 21.5685C35.7009 21.8321 35.7001 22.0957 35.6993 22.3673C35.6981 22.6115 35.6969 22.8558 35.6956 23.1074C35.6582 23.6605 35.6582 23.6605 35.9566 23.9063C36.5914 23.9286 37.2202 23.9357 37.855 23.9329C38.1534 23.9329 38.1534 23.9329 38.4578 23.933C39.1185 23.9328 39.7792 23.931 40.4399 23.9292C40.8968 23.9287 41.3536 23.9284 41.8104 23.9282C43.0153 23.9273 44.2201 23.925 45.425 23.9224C46.6535 23.92 47.882 23.9189 49.1104 23.9177C51.5227 23.9152 53.935 23.9111 56.3472 23.9063C56.3472 21.8953 56.3472 19.8844 56.3472 17.8125C55.6827 17.4803 55.1045 17.5354 54.3624 17.5205C54.0593 17.5128 53.7563 17.5051 53.4441 17.4971C52.9611 17.486 52.4782 17.4756 51.9951 17.4664C51.5293 17.4571 51.0635 17.4449 50.5977 17.4326C50.3184 17.4267 50.0391 17.4208 49.7513 17.4148C49.0816 17.3438 49.0816 17.3438 48.6128 16.875C48.6 16.323 48.6 16.323 48.6421 15.6592C48.6662 14.35 48.4708 13.6947 47.6753 12.6563C47.1223 12.2322 46.7553 12.1902 46.064 12.085C45.0343 12.2291 44.6646 12.6373 43.9253 13.3594ZM16.358 23.8603C15.9576 24.4978 15.9462 24.8826 15.9449 25.6321C15.9428 25.8887 15.9407 26.1452 15.9385 26.4095C15.9397 26.6913 15.941 26.973 15.9423 27.2633C15.9408 27.5627 15.9394 27.8621 15.9379 28.1705C15.9341 29.0021 15.9347 29.8336 15.9359 30.6652C15.9366 31.5619 15.9332 32.4585 15.9303 33.3551C15.9253 35.112 15.9243 36.8688 15.9247 38.6257C15.925 40.0535 15.9241 41.4813 15.9224 42.9091C15.9219 43.3201 15.9214 43.7311 15.9209 44.1421C15.9207 44.3467 15.9204 44.5512 15.9202 44.762C15.9157 48.6324 15.916 52.5027 15.9176 56.3731C15.9189 59.9148 15.914 63.4565 15.9062 66.9982C15.8983 70.6335 15.8948 74.2688 15.8959 77.9041C15.8964 79.9456 15.8952 81.987 15.8893 84.0285C15.8844 85.7666 15.8836 87.5045 15.888 89.2426C15.8901 90.1295 15.8904 91.0163 15.8856 91.9032C15.8804 92.8644 15.8843 93.8254 15.8891 94.7866C15.8861 95.0673 15.8832 95.348 15.8802 95.6372C15.8751 97.2164 15.8751 97.2164 16.5565 98.5925C17.5672 99.4448 18.3239 99.6684 19.6316 99.6658C20.0038 99.6667 20.0038 99.6667 20.3835 99.6677C20.6532 99.666 20.923 99.6644 21.2009 99.6626C21.4868 99.6627 21.7727 99.6628 22.0673 99.6628C22.8493 99.6626 23.6312 99.6602 24.4132 99.6569C25.2312 99.654 26.0491 99.6537 26.8671 99.6532C28.4151 99.6517 29.9632 99.6479 31.5112 99.6432C33.2739 99.6379 35.0367 99.6353 36.7995 99.633C40.4248 99.6281 44.0501 99.6199 47.6753 99.6094C47.6757 99.4182 47.676 99.227 47.6764 99.03C47.6805 97.2265 47.6903 95.423 47.7063 93.6195C47.7143 92.6923 47.7202 91.7652 47.7212 90.838C47.7222 89.9429 47.7289 89.0479 47.7394 88.1528C47.7425 87.8116 47.7435 87.4705 47.7424 87.1293C47.7413 86.6505 47.7474 86.1724 47.7552 85.6937C47.7567 85.4215 47.7583 85.1493 47.7599 84.8688C47.9544 83.9233 48.3518 83.5796 49.0816 82.9688C49.6632 82.5866 49.6632 82.5866 50.28 82.2519C50.512 82.1244 50.7439 81.9969 50.9829 81.8655C51.2304 81.7317 51.4779 81.5978 51.733 81.46C52.2587 81.1708 52.7842 80.8812 53.3095 80.5912C53.7129 80.3688 53.7129 80.3688 54.1245 80.142C55.4368 79.4116 56.735 78.6578 58.0318 77.9004C58.2653 77.7646 58.4988 77.6288 58.7393 77.4889C59.656 76.9533 59.656 76.9533 60.566 76.4063C60.8065 76.2768 61.0471 76.1474 61.2949 76.014C62.0348 75.5321 62.0348 75.5321 62.1455 74.7468C62.1444 74.4637 62.1433 74.1806 62.1422 73.889C62.1443 73.6539 62.1443 73.6539 62.1463 73.414C62.1493 72.8972 62.1426 72.3811 62.1361 71.8643C62.1369 71.5048 62.1385 71.1452 62.1408 70.7857C62.1452 69.84 62.142 68.8944 62.1364 67.9487C62.1284 66.4343 62.1297 64.9198 62.1355 63.4054C62.1361 62.8762 62.1319 62.3473 62.1273 61.8182C62.1272 61.4942 62.1273 61.1703 62.1276 60.8464C62.1259 60.5635 62.1243 60.2806 62.1226 59.9891C62.2066 59.2969 62.2066 59.2969 62.5292 58.8702C63.0346 58.5031 63.5541 58.189 64.0972 57.8797C64.3388 57.7412 64.5804 57.6028 64.8294 57.4601C65.0902 57.3122 65.351 57.1642 65.6197 57.0118C66.0294 56.7774 66.4391 56.543 66.8488 56.3086C67.2767 56.0638 67.705 55.8195 68.1333 55.5753C69.5443 54.77 70.9509 53.9568 72.358 53.1446C72.6148 52.9966 72.8716 52.8486 73.1362 52.6962C73.3764 52.5577 73.6165 52.4193 73.864 52.2766C74.0744 52.1554 74.2847 52.0342 74.5015 51.9093C74.7964 51.7376 74.7964 51.7376 75.0972 51.5625C75.4012 51.4528 75.4012 51.4528 75.7114 51.3408C76.3027 50.9265 76.3027 50.9265 76.3769 50.388C76.4194 49.7345 76.4219 49.0902 76.4133 48.4353C76.4152 48.0613 76.4152 48.0613 76.4172 47.6798C76.42 46.8533 76.4143 46.027 76.4082 45.2005C76.4078 44.6269 76.4079 44.0532 76.4083 43.4796C76.4079 42.2759 76.4035 41.0723 76.3961 39.8687C76.3868 38.3263 76.3858 36.784 76.3876 35.2416C76.3883 34.0563 76.3854 32.871 76.3814 31.6858C76.3798 31.1172 76.3791 30.5485 76.3793 29.9799C76.3788 29.1843 76.3738 28.3889 76.3675 27.5933C76.3682 27.3584 76.3689 27.1235 76.3696 26.8814C76.3509 25.3475 76.1291 24.323 75.0972 23.1299C74.2819 22.442 73.5591 22.4713 72.5331 22.4734C72.2469 22.4734 71.9607 22.4735 71.6659 22.4735C71.2022 22.4753 71.2022 22.4753 70.7292 22.4771C70.4097 22.4776 70.0902 22.4779 69.7706 22.4781C68.9303 22.479 68.0899 22.4813 67.2496 22.4839C66.3918 22.4863 65.534 22.4874 64.6762 22.4886C62.9936 22.4911 61.3111 22.4951 59.6285 22.5C59.6102 22.7398 59.6102 22.7398 59.5916 22.9844C59.5736 23.1947 59.5555 23.4049 59.5369 23.6216C59.5199 23.8297 59.5029 24.0379 59.4854 24.2524C59.3537 25.1055 59.0211 25.6071 58.4566 26.25C57.1488 27.1982 55.9507 27.2231 54.3772 27.2253C54.1789 27.2265 53.9806 27.2276 53.7763 27.2288C53.1208 27.2322 52.4654 27.2338 51.8099 27.2351C51.3533 27.2365 50.8967 27.2378 50.4401 27.2392C49.4826 27.2416 48.5251 27.243 47.5675 27.2438C46.3434 27.2451 45.1193 27.2508 43.8951 27.2574C42.9517 27.2618 42.0083 27.263 41.0649 27.2634C40.6137 27.2641 40.1626 27.266 39.7115 27.269C39.0788 27.2731 38.4462 27.2726 37.8135 27.2711C37.6289 27.2732 37.4442 27.2754 37.254 27.2776C35.7731 27.2666 34.4686 26.9913 33.2906 26.0303C32.8889 25.2733 32.7818 24.7034 32.6515 23.8614C32.6115 23.6069 32.5714 23.3523 32.5301 23.09C32.5007 22.8953 32.4713 22.7006 32.441 22.5C30.6012 22.4783 28.7615 22.4616 26.9216 22.4515C26.0672 22.4466 25.2128 22.44 24.3585 22.4293C23.5333 22.4191 22.7082 22.4135 21.8829 22.4111C21.4163 22.4085 20.9498 22.4012 20.4832 22.3938C18.6229 22.3934 17.6274 22.4475 16.358 23.8603ZM76.595 54.2908C76.3669 54.4246 76.1388 54.5584 75.9038 54.6963C75.657 54.8416 75.4101 54.987 75.1558 55.1368C72.4911 56.6994 69.8139 58.239 67.1285 59.7657C67.1285 59.9203 67.1285 60.075 67.1285 60.2344C67.3064 60.3357 67.4843 60.4371 67.6677 60.5415C68.0561 60.7628 68.4446 60.9841 68.8328 61.2059C69.5775 61.6312 70.3231 62.0547 71.0708 62.4748C72.3792 63.2127 73.6701 63.9455 74.8985 64.813C76.5191 66.0081 76.5191 66.0081 78.4471 66.2192C79.1758 65.8771 79.7865 65.4996 80.4406 65.0366C81.2969 64.4574 82.2011 63.9623 83.0989 63.4507C84.268 62.7828 85.4259 62.097 86.5816 61.4063C86.7753 61.2925 86.9691 61.1786 87.1687 61.0614C87.6061 60.7989 88.0329 60.5186 88.4566 60.2344C88.4566 60.0797 88.4566 59.925 88.4566 59.7657C88.2953 59.6727 88.134 59.5797 87.9679 59.4838C87.3472 59.1259 86.7265 58.7679 86.1059 58.4099C85.6889 58.1695 85.2719 57.9291 84.855 57.6887C83.5603 56.9422 82.2663 56.1947 80.9749 55.4425C80.7697 55.3231 80.5645 55.2037 80.3531 55.0807C79.9701 54.8577 79.5874 54.6343 79.2049 54.4105C77.8833 53.6073 77.8833 53.6073 76.595 54.2908ZM65.2535 63.0469C65.1999 64.7901 65.163 66.533 65.1376 68.2769C65.127 68.8698 65.1126 69.4627 65.0943 70.0555C65.0687 70.9085 65.0568 71.7608 65.0475 72.6142C65.0366 72.8786 65.0257 73.1431 65.0145 73.4155C64.9919 74.8017 64.9919 74.8017 65.6945 75.9332C66.2354 76.2995 66.7738 76.5939 67.3628 76.875C67.5794 77.0053 67.7959 77.1355 68.019 77.2697C68.2025 77.3721 68.386 77.4745 68.575 77.58C68.7864 77.6987 68.9977 77.8174 69.2155 77.9397C69.4355 78.0621 69.6556 78.1845 69.8824 78.3106C71.3166 79.1091 72.7455 79.9108 74.1496 80.7614C74.3707 80.8936 74.5918 81.0257 74.8196 81.1619C75.2404 81.4142 75.6591 81.6702 76.0752 81.9302C77.1682 82.6031 77.1682 82.6031 78.4105 82.6355C78.632 82.5135 78.8534 82.3914 79.0816 82.2657C79.3438 82.1221 79.6061 81.9786 79.8763 81.8308C80.1785 81.6498 80.48 81.4675 80.7808 81.2842C81.13 81.0748 81.4795 80.8658 81.8291 80.6571C82.0225 80.5415 82.2159 80.4259 82.4151 80.3068C83.9574 79.3947 85.5159 78.5099 87.0712 77.6201C87.3214 77.4763 87.5716 77.3326 87.8295 77.1845C88.052 77.057 88.2746 76.9296 88.5039 76.7982C88.7203 76.6689 88.9367 76.5395 89.1597 76.4063C89.4163 76.2935 89.673 76.1807 89.9374 76.0644C90.6733 75.3671 90.6698 75.1978 90.7256 74.2221C90.7254 73.7013 90.7174 73.1805 90.7033 72.6599C90.7003 72.2484 90.7003 72.2484 90.6973 71.8285C90.6894 70.9518 90.6717 70.0757 90.6539 69.1992C90.6468 68.6051 90.6404 68.0109 90.6346 67.4167C90.6191 65.9599 90.5956 64.5035 90.566 63.0469C89.434 63.4058 88.4711 63.8812 87.4605 64.4971C87.1125 64.7055 86.7643 64.9136 86.4159 65.1215C86.2226 65.237 86.0294 65.3525 85.8303 65.4715C84.6672 66.1604 83.4956 66.8347 82.3244 67.5096C81.912 67.7472 81.4999 67.9851 81.0877 68.223C78.2427 69.8634 78.2427 69.8634 76.9722 69.6094C75.9848 69.1625 75.0708 68.6037 74.1451 68.042C73.7401 67.8025 73.3351 67.5629 72.9301 67.3234C72.3796 66.9966 71.831 66.6666 71.2825 66.3366C70.401 65.8068 69.5167 65.2817 68.6323 64.7568C68.1833 64.49 67.7351 64.2218 67.2877 63.9522C67.0877 63.8326 66.8877 63.713 66.6817 63.5898C66.5069 63.4845 66.3321 63.3793 66.1521 63.2708C65.7337 63.0108 65.7337 63.0108 65.2535 63.0469ZM62.2157 79.1346C61.9766 79.2684 61.7374 79.4022 61.491 79.54C61.2341 79.6854 60.9772 79.8307 60.7125 79.9805C60.4514 80.1274 60.1904 80.2742 59.9215 80.4256C57.5318 81.7766 55.174 83.1782 52.8316 84.6094C53.4137 85.2604 54.0561 85.6464 54.8128 86.0761C55.1952 86.2947 55.1952 86.2947 55.5853 86.5178C55.8588 86.6728 56.1323 86.8276 56.4058 86.9825C59.5673 88.7793 59.5673 88.7793 60.772 89.5368C60.9316 89.6367 61.0912 89.7367 61.2556 89.8397C61.6637 90.0981 62.0694 90.3602 62.4748 90.6226C63.2751 90.9992 63.4831 90.9464 64.316 90.7032C64.7998 90.463 65.2747 90.2045 65.7424 89.9341C65.877 89.8568 66.0117 89.7795 66.1505 89.6999C66.5849 89.45 67.0178 89.1977 67.4507 88.9453C67.7475 88.7739 68.0444 88.6025 68.3413 88.4313C70.3721 87.2577 72.3937 86.0685 74.3941 84.8438C73.5619 84.1458 72.7162 83.5861 71.7711 83.0521C71.6338 82.9741 71.4964 82.8961 71.3549 82.8157C70.9183 82.5679 70.481 82.3215 70.0435 82.0752C69.6137 81.8321 69.184 81.5886 68.7544 81.345C68.4717 81.1849 68.1888 81.0249 67.9058 80.8652C67.2126 80.4734 66.5225 80.0772 65.8377 79.6707C65.5848 79.5207 65.3319 79.3706 65.0713 79.216C64.8462 79.0811 64.6211 78.9461 64.3893 78.8071C63.461 78.308 63.0914 78.6434 62.2157 79.1346ZM90.6117 79.1346C90.3851 79.2684 90.1586 79.4022 89.9251 79.54C89.6822 79.6854 89.4393 79.8307 89.189 79.9805C88.6819 80.2804 88.1747 80.5801 87.6674 80.8795C87.4098 81.032 87.1521 81.1845 86.8867 81.3417C85.6974 82.0413 84.4995 82.7256 83.3003 83.4082C83.0877 83.5295 82.875 83.6507 82.6559 83.7756C82.1677 84.0538 81.6794 84.3317 81.191 84.6094C81.9705 85.2602 82.7458 85.7936 83.6354 86.2821C83.8783 86.4165 84.1211 86.5509 84.3713 86.6894C84.7548 86.8997 84.7548 86.8997 85.146 87.1143C88.1464 88.7684 88.1464 88.7684 89.3483 89.5203C89.5079 89.6201 89.6674 89.7199 89.8318 89.8227C90.1172 90.0037 90.4008 90.1875 90.6821 90.3747C91.2481 90.7333 91.6052 90.9503 92.2844 90.8849C93.0048 90.6755 93.5697 90.373 94.2171 89.9936C94.4682 89.8476 94.7193 89.7015 94.978 89.551C95.2429 89.3947 95.5079 89.2383 95.7808 89.0772C96.0541 88.9174 96.3275 88.7578 96.601 88.5983C97.403 88.13 98.2032 87.6588 99.0035 87.1875C99.4325 86.936 99.8616 86.6845 100.291 86.4331C101.191 85.9053 102.09 85.3753 102.988 84.8438C101.872 83.8567 100.592 83.1882 99.2964 82.4707C97.3937 81.4094 95.5041 80.3326 93.646 79.1944C92.3694 78.4268 91.8775 78.3803 90.6117 79.1346ZM50.9566 87.6563C50.9566 91.8328 50.9566 96.0094 50.9566 100.313C52.7353 101.339 52.7353 101.339 54.5154 102.363C55.7963 103.099 57.0742 103.839 58.3407 104.6C58.7563 104.849 59.1728 105.097 59.5897 105.344C60.1158 105.657 60.6401 105.973 61.1623 106.292C61.4018 106.434 61.6413 106.575 61.888 106.721C62.0971 106.847 62.3063 106.973 62.5218 107.103C63.3138 107.409 63.7382 107.336 64.5503 107.109C65.1393 106.845 65.1393 106.845 65.7039 106.492C65.9222 106.363 66.1405 106.233 66.3654 106.1C66.5979 105.959 66.8303 105.819 67.0699 105.674C67.569 105.377 68.0683 105.08 68.5677 104.784C68.9585 104.551 68.9585 104.551 69.3573 104.313C70.7543 103.482 72.165 102.675 73.5738 101.865C74.4632 101.353 75.3527 100.84 76.2691 100.313C76.2691 96.136 76.2691 91.9594 76.2691 87.6563C73.8929 88.8419 73.8929 88.8419 71.5962 90.1465C71.2582 90.3472 70.9201 90.5477 70.5818 90.748C70.4046 90.8532 70.2274 90.9584 70.0449 91.0667C68.9823 91.6967 67.9179 92.3232 66.8501 92.9444C66.6428 93.0674 66.4354 93.1904 66.2217 93.3171C66.0245 93.4313 65.8274 93.5454 65.6243 93.6631C65.4508 93.7647 65.2773 93.8664 65.0986 93.9712C64.427 94.2745 63.881 94.4064 63.1441 94.4532C62.5345 94.2199 62.5345 94.2199 61.9301 93.8562C61.5949 93.6598 61.5949 93.6598 61.2528 93.4593C61.0262 93.3232 60.7995 93.1871 60.566 93.0469C60.1364 92.8052 59.7061 92.5647 59.2751 92.3255C58.8361 92.0779 58.3972 91.8301 57.9585 91.5821C57.7271 91.4513 57.4956 91.3206 57.2571 91.1859C55.6118 90.2541 53.9773 89.3053 52.3545 88.3349C51.697 87.8659 51.697 87.8659 50.9566 87.6563ZM79.5503 87.6563C78.5618 94.6282 78.5618 94.6282 80.0042 101.177C81.2185 102.388 82.72 102.846 84.3388 103.311C85.7071 103.773 86.8873 104.529 88.1125 105.282C88.749 105.67 89.3956 106.039 90.0423 106.41C90.2569 106.534 90.4714 106.658 90.6925 106.786C90.9779 106.946 90.9779 106.946 91.2691 107.109C91.4218 107.215 91.5746 107.32 91.7319 107.428C92.2339 107.641 92.2339 107.641 92.8225 107.343C93.0552 107.206 93.2879 107.069 93.5277 106.927C93.7911 106.775 94.0544 106.623 94.3258 106.467C94.9056 106.12 95.4811 105.767 96.0557 105.412C96.3541 105.229 96.6528 105.047 96.9518 104.865C97.1018 104.773 97.2519 104.681 97.4065 104.586C98.4186 103.986 99.3846 103.588 100.506 103.231C102.751 102.436 102.751 102.436 104.416 100.797C106.007 97.1702 104.966 91.7254 104.628 87.8907C103.496 88.2496 102.534 88.7253 101.523 89.3408C101.173 89.5492 100.824 89.7573 100.474 89.9652C100.062 90.2112 99.6498 90.4572 99.2378 90.7032C98.3109 91.2565 97.3826 91.8074 96.4512 92.3533C96.0507 92.5891 95.652 92.8279 95.2532 93.0668C95.0038 93.2128 94.7543 93.3588 94.4972 93.5092C94.2759 93.6404 94.0545 93.7715 93.8265 93.9066C93.019 94.276 92.392 94.4211 91.5035 94.4532C90.7966 94.1839 90.7966 94.1839 90.089 93.7628C89.8243 93.6083 89.5595 93.4538 89.2868 93.2946C89.0051 93.1242 88.7235 92.9538 88.4419 92.7832C88.1516 92.6118 87.8609 92.4407 87.5701 92.2701C86.8332 91.8365 86.0995 91.398 85.3665 90.958C84.4637 90.4173 83.5567 89.8839 82.6504 89.3492C82.2015 89.0838 81.7533 88.8174 81.3058 88.5497C81.1075 88.4313 80.9092 88.3129 80.7048 88.1909C80.5318 88.0872 80.3588 87.9834 80.1805 87.8765C79.8261 87.6373 79.8261 87.6373 79.5503 87.6563Z" fill="white"/>
<path d="M40.6084 42.5616C40.8425 42.5599 41.0765 42.5583 41.3177 42.5567C42.0919 42.5524 42.866 42.5533 43.6401 42.5546C44.1778 42.5536 44.7154 42.5523 45.2531 42.5509C46.3801 42.5488 47.507 42.5494 48.634 42.5517C50.0795 42.5544 51.5249 42.5497 52.9703 42.5428C54.0806 42.5385 55.1909 42.5386 56.3011 42.5399C56.8342 42.54 57.3672 42.5385 57.9002 42.5356C58.6448 42.5322 59.3892 42.5346 60.1338 42.5387C60.3547 42.5364 60.5756 42.5341 60.8032 42.5318C62.2906 42.5487 62.2906 42.5487 63.0471 43.0884C63.5027 43.7823 63.5146 44.1859 63.3789 45C63.0471 45.5053 63.0471 45.5053 62.4414 45.9375C61.6731 46.078 60.913 46.0631 60.1338 46.0551C59.7827 46.057 59.7827 46.057 59.4245 46.0589C58.6503 46.0619 57.8762 46.058 57.1021 46.0538C56.5644 46.0538 56.0267 46.0542 55.4891 46.0548C54.3621 46.0551 53.2352 46.0522 52.1082 46.0469C50.6627 46.0402 49.2173 46.0408 47.7718 46.0438C46.6616 46.0455 45.5513 46.0436 44.4411 46.0407C43.908 46.0397 43.375 46.0396 42.842 46.0405C42.0974 46.0412 41.3529 46.0373 40.6084 46.0322C40.277 46.0338 40.277 46.0338 39.939 46.0354C38.4495 46.0184 38.4495 46.0184 37.6956 45.6084C37.2849 45.1461 37.2368 44.9104 37.2461 44.2969C37.2437 44.1374 37.2413 43.9778 37.2388 43.8135C37.3633 43.3594 37.3633 43.3594 37.6956 42.9854C38.6371 42.4734 39.5531 42.5565 40.6084 42.5616Z" fill="white"/>
<path d="M33.833 36.958C34.419 36.9772 34.7317 37.0029 35.2539 37.2803C35.6241 37.9974 35.5544 38.5795 35.4883 39.375C35.101 40.0168 35.101 40.0168 34.5654 40.6201C34.3724 40.8416 34.1793 41.063 33.9804 41.2912C33.7819 41.5096 33.5834 41.7281 33.3789 41.9531C33.2022 42.1498 33.0254 42.3465 32.8433 42.5491C32.4966 42.9338 32.1487 43.3174 31.7996 43.7C31.2369 44.3336 30.703 44.985 30.1709 45.6445C28.0955 48.1847 28.0955 48.1847 27.0801 48.4717C25.938 48.1747 25.2968 47.4592 24.4727 46.6406C24.2472 46.4211 24.0217 46.2017 23.7961 45.9824C21.461 43.6906 21.461 43.6907 21.3525 42.6709C21.4258 41.9531 21.4258 41.9531 21.6602 41.3965C22.2599 40.9092 22.7482 40.8987 23.5068 40.9143C24.4245 41.1013 24.9274 41.7424 25.5273 42.4219C25.653 42.556 25.7787 42.6902 25.9082 42.8284C26.2154 43.1575 26.5165 43.4923 26.8164 43.8281C28.6708 41.9935 30.3837 40.0515 32.0166 38.0191C32.8191 37.0385 32.8191 37.0385 33.833 36.958Z" fill="white"/>
<path d="M34.7852 70.5468C35.2247 70.8105 35.2247 70.8105 35.4884 71.25C35.5919 72.0154 35.6499 72.616 35.247 73.301C34.8956 73.7355 34.526 74.1411 34.1407 74.5459C33.8604 74.854 33.5802 75.1622 33.3002 75.4706C33.1571 75.6256 33.014 75.7807 32.8665 75.9404C32.2086 76.6614 31.5789 77.4054 30.9473 78.1494C30.7155 78.4186 30.4836 78.6878 30.2515 78.9569C29.8716 79.3993 29.5028 79.8452 29.1383 80.3009C28.5297 81.0509 28.1709 81.4931 27.2559 81.8408C26.038 81.7614 25.2843 81.028 24.4837 80.1617C24.3194 79.9853 24.155 79.8088 23.9857 79.627C23.8177 79.444 23.6497 79.2609 23.4766 79.0722C23.305 78.8873 23.1334 78.7024 22.9566 78.5119C22.6413 78.1721 22.3265 77.8317 22.0125 77.4905C21.8201 77.2824 21.6263 77.0754 21.4259 76.875C21.3171 75.4061 21.3171 75.4061 21.7042 74.7949C22.2627 74.4482 22.6409 74.3283 23.3009 74.2968C24.2736 74.7841 24.9627 75.4405 25.7178 76.2158C25.9248 76.427 26.1318 76.6382 26.345 76.8557C26.5006 77.0168 26.6562 77.1778 26.8165 77.3437C27.7559 76.4305 28.6157 75.4672 29.4679 74.4726C29.7369 74.1607 30.0061 73.8488 30.2753 73.537C30.405 73.3866 30.5347 73.2362 30.6683 73.0813C31.1547 72.5178 31.6428 71.9559 32.1339 71.3965C32.275 71.2351 32.416 71.0738 32.5614 70.9076C33.2864 70.1579 33.816 70.3095 34.7852 70.5468Z" fill="white"/>
<path d="M34.5508 53.6719C35.1074 54.0527 35.1074 54.0527 35.4883 54.6094C35.5699 55.3889 35.5802 55.8559 35.1852 56.542C35.0387 56.7115 34.8922 56.881 34.7412 57.0557C34.5705 57.2566 34.3998 57.4575 34.2239 57.6645C34.0224 57.8938 33.8209 58.1231 33.6133 58.3594C33.3729 58.6372 33.1327 58.9152 32.8928 59.1934C32.5046 59.6428 32.1159 60.0915 31.7255 60.5388C30.6845 61.7313 29.6737 62.9458 28.674 64.173C28.1175 64.8074 27.8744 64.8959 27.049 65.0738C25.8498 65.0558 25.1879 64.1693 24.3976 63.3618C24.2 63.1515 24.0024 62.9413 23.7988 62.7246C23.5958 62.5161 23.3928 62.3077 23.1836 62.0929C21.4594 60.3092 21.4594 60.3092 21.3525 59.3262C21.4258 58.5937 21.4258 58.5937 21.8066 58.0371C22.3633 57.6562 22.3633 57.6562 23.0225 57.5098C24.6138 57.8218 25.6211 59.2458 26.582 60.4687C27.2742 60.1615 27.7135 59.8514 28.2034 59.2758C28.3272 59.1317 28.451 58.9877 28.5785 58.8392C28.7076 58.6857 28.8367 58.5322 28.9697 58.374C29.1035 58.2175 29.2373 58.0609 29.3751 57.8997C30.3628 56.7396 31.3276 55.5621 32.2757 54.3695C32.9618 53.5751 33.5293 53.5697 34.5508 53.6719Z" fill="white"/>
<path d="M40.1193 59.2517C40.2821 59.2498 40.4449 59.2479 40.6126 59.2459C41.1522 59.2401 41.6919 59.2362 42.2316 59.2328C42.4159 59.2316 42.6002 59.2303 42.79 59.229C43.7655 59.2228 44.7409 59.2182 45.7164 59.2148C46.7237 59.2109 47.7308 59.2004 48.738 59.1885C49.5127 59.1806 50.2874 59.1779 51.0621 59.1766C51.4334 59.175 51.8046 59.1714 52.1758 59.1658C52.696 59.1584 53.2157 59.1584 53.7359 59.1601C54.0317 59.1582 54.3275 59.1563 54.6322 59.1544C55.625 59.3361 55.9779 59.674 56.5825 60.4688C56.5665 61.411 56.5549 61.9026 55.8794 62.5781C55.3115 62.6258 54.7704 62.6445 54.2022 62.6425C53.9432 62.6443 53.9432 62.6443 53.6789 62.6461C53.1065 62.6494 52.5342 62.6492 51.9618 62.6486C51.5648 62.6495 51.1678 62.6506 50.7708 62.6517C49.938 62.6534 49.1051 62.6534 48.2723 62.6521C47.2041 62.6508 46.1359 62.6547 45.0677 62.6602C44.2476 62.6636 43.4274 62.6638 42.6073 62.6631C42.2134 62.6632 41.8195 62.6645 41.4257 62.6668C40.8752 62.6697 40.3249 62.6681 39.7744 62.6654C39.5294 62.6681 39.5294 62.6681 39.2795 62.6708C38.6192 62.6636 38.1695 62.6474 37.6141 62.2724C37.1892 61.598 37.2812 61.0049 37.3637 60.2344C38.1109 59.2156 38.9198 59.2639 40.1193 59.2517Z" fill="white"/>
<path d="M39.168 76.0846C39.3909 76.0832 39.6138 76.0817 39.8435 76.0802C40.0837 76.0824 40.324 76.0845 40.5715 76.0867C40.8185 76.0866 41.0656 76.0865 41.3201 76.0864C41.8426 76.0869 42.3651 76.0892 42.8876 76.0931C43.6885 76.0986 44.4892 76.0979 45.2901 76.0964C45.7973 76.0977 46.3045 76.0993 46.8117 76.1014C47.052 76.1012 47.2922 76.101 47.5398 76.1007C47.8741 76.1041 47.8741 76.1041 48.2152 76.1075C48.4114 76.1086 48.6076 76.1097 48.8097 76.1108C49.3166 76.1719 49.3166 76.1719 50.0197 76.6406C50.2541 77.417 50.2541 77.417 50.2541 78.2813C49.7816 78.9689 49.4032 79.3862 48.5654 79.5609C47.9215 79.6046 47.2877 79.6094 46.6424 79.6005C46.4069 79.6011 46.1715 79.6017 45.929 79.6022C45.4323 79.602 44.9357 79.5989 44.4391 79.593C43.6787 79.585 42.919 79.5882 42.1586 79.5928C41.6756 79.5911 41.1927 79.5889 40.7097 79.5859C40.4824 79.587 40.2551 79.5882 40.0209 79.5894C38.4581 79.562 38.4581 79.562 37.6881 79.0283C37.2143 78.28 37.2534 77.7404 37.3635 76.875C37.8899 76.1533 38.2971 76.084 39.168 76.0846Z" fill="white"/>
</svg>
