<svg width="121" height="120" viewBox="0 0 121 120" fill="none" xmlns="http://www.w3.org/2000/svg">
<g clip-path="url(#clip0_151_308)">
<path d="M57.7379 67.6929C57.9193 67.6914 58.1007 67.6898 58.2877 67.6882C58.8894 67.6836 59.491 67.6809 60.0927 67.6785C60.298 67.6776 60.5032 67.6766 60.7147 67.6756C61.8008 67.6707 62.8869 67.6674 63.9731 67.6652C65.0959 67.6626 66.2187 67.6545 67.3415 67.6452C68.2041 67.6391 69.0666 67.6371 69.9292 67.6363C70.3432 67.6352 70.7572 67.6324 71.1711 67.6281C71.7502 67.6224 72.329 67.6226 72.9081 67.6242C73.0794 67.6212 73.2506 67.6182 73.427 67.6151C74.2201 67.6233 74.6541 67.6791 75.2979 68.1587C75.8175 68.8835 75.8979 69.6135 75.9972 70.4773C76.0208 70.6544 76.0444 70.8314 76.0687 71.0138C76.1432 71.5804 76.2122 72.1475 76.2811 72.7148C76.3289 73.0854 76.3771 73.4559 76.4257 73.8263C76.5444 74.739 76.6586 75.6521 76.7708 76.5656C76.8604 77.2941 76.9518 78.0224 77.0431 78.7507C77.1312 79.4536 77.2189 80.1565 77.3064 80.8594C77.5079 80.9422 77.7094 81.025 77.9169 81.1103C80.0166 81.9736 80.0166 81.9736 80.9246 82.4854C81.5094 82.8013 81.5094 82.8013 82.0754 82.5742C82.7671 82.2309 83.2817 81.8294 83.8689 81.3281C84.9438 80.4276 86.0344 79.5545 87.1532 78.7089C87.8225 78.2021 88.4778 77.6859 89.1186 77.1432C89.2502 77.0346 89.3818 76.926 89.5174 76.8141C89.8822 76.5123 90.243 76.2058 90.6036 75.899C91.4356 75.4313 91.9092 75.262 92.8522 75.2868C94.3243 75.7146 95.4028 77.1162 96.4446 78.1879C96.7244 78.4686 97.0046 78.749 97.2852 79.029C97.8708 79.6157 98.4526 80.2059 99.0319 80.7988C99.7737 81.5579 100.523 82.3096 101.274 83.059C101.853 83.637 102.428 84.2179 103.003 84.7999C103.278 85.0782 103.554 85.3557 103.83 85.6324C104.216 86.02 104.599 86.4111 104.98 86.8036C105.094 86.9168 105.208 87.0301 105.326 87.1469C106.054 87.9076 106.322 88.4787 106.369 89.5312C105.904 90.807 105.024 91.8194 104.186 92.8711C103.893 93.2437 103.6 93.6163 103.307 93.989C103 94.3781 102.692 94.7672 102.385 95.1562C101.773 95.9315 101.163 96.7081 100.554 97.4854C100.412 97.6641 100.27 97.8429 100.124 98.0271C99.9937 98.1937 99.8632 98.3602 99.7286 98.5318C99.6133 98.678 99.4979 98.8242 99.3791 98.9749C99.0588 99.3999 99.0588 99.3999 98.8689 100.078C99.0827 100.691 99.0827 100.691 99.4109 101.338C100.51 103.623 100.51 103.623 100.51 104.531C100.711 104.542 100.913 104.553 101.121 104.563C103.404 104.698 105.664 104.933 107.931 105.232C108.515 105.309 109.099 105.379 109.683 105.45C110.059 105.499 110.434 105.548 110.809 105.598C110.982 105.618 111.154 105.638 111.332 105.659C112.428 105.812 113.091 106.083 113.869 106.875C114.136 107.676 114.13 108.289 114.126 109.134C114.125 109.438 114.125 109.742 114.124 110.056C114.122 110.378 114.12 110.699 114.118 111.021C114.117 111.345 114.116 111.669 114.115 111.993C114.112 112.787 114.108 113.581 114.103 114.375C114.363 114.364 114.623 114.353 114.891 114.342C115.234 114.333 115.577 114.325 115.92 114.316C116.091 114.309 116.262 114.301 116.438 114.293C117.268 114.278 117.75 114.299 118.428 114.797C118.944 115.53 119.025 116.062 119.025 116.953C118.611 117.61 118.315 118.011 117.619 118.359C117.054 118.382 116.496 118.391 115.931 118.39C115.666 118.39 115.666 118.39 115.396 118.391C114.797 118.392 114.199 118.391 113.6 118.391C113.17 118.391 112.739 118.392 112.308 118.392C111.119 118.394 109.93 118.394 108.741 118.393C107.461 118.393 106.18 118.395 104.9 118.396C102.389 118.398 99.8792 118.398 97.3688 118.399C95.3293 118.399 93.2897 118.399 91.2501 118.4C85.4731 118.402 79.6961 118.403 73.9191 118.403C73.7633 118.403 73.6075 118.403 73.447 118.403C73.1319 118.403 72.8169 118.403 72.5018 118.403C67.5989 118.403 62.6961 118.404 57.7932 118.408C52.2886 118.411 46.7839 118.413 41.2792 118.413C38.3632 118.413 35.4472 118.414 32.5313 118.416C30.0488 118.418 27.5663 118.419 25.0838 118.417C23.8163 118.416 22.5488 118.416 21.2813 118.418C20.1221 118.42 18.963 118.42 17.8039 118.418C17.3834 118.418 16.9629 118.418 16.5424 118.419C15.973 118.421 15.4037 118.42 14.8342 118.418C14.6691 118.419 14.504 118.42 14.3339 118.421C13.4912 118.415 12.8574 118.37 12.1502 117.891C11.6112 117.136 11.5517 116.455 11.6814 115.547C12.1474 114.927 12.5141 114.446 13.3012 114.281C13.8061 114.26 14.2971 114.272 14.8016 114.302C15.0619 114.31 15.0619 114.31 15.3275 114.318C15.753 114.332 16.1782 114.353 16.6033 114.375C16.6009 114.167 16.5984 113.959 16.5959 113.744C16.5879 112.97 16.582 112.196 16.5776 111.422C16.5752 111.088 16.572 110.753 16.568 110.419C16.5623 109.937 16.5596 109.455 16.5575 108.973C16.5551 108.684 16.5526 108.394 16.5501 108.096C16.6011 107.375 16.6643 106.993 17.0721 106.406C17.7636 105.945 18.0286 105.857 18.8187 105.755C19.0292 105.727 19.2397 105.699 19.4565 105.67C19.6836 105.642 19.9107 105.613 20.1446 105.584C20.379 105.554 20.6134 105.523 20.8549 105.492C21.3513 105.427 21.8478 105.364 22.3444 105.301C23.1013 105.206 23.8577 105.107 24.6142 105.008C25.097 104.946 25.5797 104.884 26.0626 104.822C26.2877 104.793 26.5129 104.764 26.7448 104.734C27.9062 104.589 29.0267 104.499 30.1971 104.531C30.22 104.403 30.243 104.276 30.2667 104.144C30.5071 102.931 30.8634 101.91 31.4376 100.814C31.6634 100.131 31.6112 99.8223 31.3689 99.1406C30.9687 98.5827 30.5659 98.0663 30.1238 97.5439C29.8676 97.2331 29.6118 96.9218 29.3566 96.6101C29.1587 96.3688 29.1587 96.3688 28.9568 96.1226C28.1778 95.1544 27.4428 94.153 26.7045 93.1537C26.187 92.4558 25.6644 91.7761 25.0948 91.1197C24.5206 90.4047 24.2951 90.0023 24.2625 89.1025C24.3572 88.4616 24.5645 88.2343 25.0025 87.7611C25.2279 87.5159 25.2279 87.5159 25.4579 87.2657C25.6296 87.0852 25.8014 86.9047 25.9783 86.7188C26.166 86.5206 26.3536 86.3224 26.547 86.1182C27.8196 84.7874 29.1106 83.4746 30.4042 82.1643C31.0569 81.5032 31.7072 80.8403 32.3528 80.1723C32.9822 79.5211 33.6167 78.8752 34.255 78.2328C34.4959 77.9886 34.7349 77.7427 34.972 77.4949C37.0504 75.3271 37.0504 75.3271 38.3939 75.2873C39.4968 75.3939 40.1808 75.9595 40.9783 76.6846C41.2809 76.943 41.584 77.2008 41.8874 77.4582C42.044 77.5931 42.2005 77.7281 42.3618 77.8671C43.2 78.5733 44.0742 79.2313 44.9481 79.8926C45.1086 80.015 45.2692 80.1374 45.4347 80.2635C45.7458 80.5006 46.058 80.7361 46.3716 80.9699C46.6962 81.2194 47.013 81.4793 47.323 81.7467C47.7747 82.1245 48.1929 82.4576 48.7127 82.7344C49.4524 82.6523 49.4524 82.6523 50.1189 82.2656C50.5087 82.1569 50.5087 82.1569 50.9063 82.0459C51.1685 81.9637 51.4308 81.8815 51.701 81.7969C52.098 81.6809 52.098 81.6809 52.503 81.5625C53.227 81.0505 53.2771 80.9811 53.456 80.1663C53.5233 79.6953 53.5813 79.2229 53.6346 78.75C53.6779 78.4096 53.7218 78.0692 53.7661 77.7288C53.9458 76.3235 54.1152 74.917 54.2785 73.5097C54.3494 72.9017 54.4234 72.2942 54.4979 71.6867C54.5287 71.4105 54.5287 71.4105 54.5601 71.1288C54.7059 69.9619 54.9712 69.0187 55.5096 67.9688C56.22 67.6135 56.9582 67.6957 57.7379 67.6929ZM58.5564 71.7188C58.113 75.291 58.113 75.291 57.6731 78.8637C57.6167 79.3126 57.5602 79.7614 57.5036 80.2103C57.4756 80.4421 57.4477 80.674 57.4188 80.9128C57.3904 81.1364 57.3619 81.3599 57.3325 81.5901C57.3086 81.7832 57.2846 81.9763 57.26 82.1753C57.1376 82.7984 56.951 83.3316 56.6814 83.9062C56.2551 84.1918 56.2551 84.1918 55.7412 84.3878C55.5526 84.463 55.3639 84.5381 55.1696 84.6156C54.9724 84.6909 54.7752 84.7662 54.5721 84.8438C54.1892 85.0043 53.8068 85.1661 53.4249 85.329C52.8439 85.5721 52.2626 85.8146 51.6813 86.0568C51.4929 86.1357 51.3045 86.2145 51.1105 86.2958C50.9422 86.3659 50.774 86.436 50.6007 86.5083C50.1122 86.7134 50.1122 86.7134 49.6378 86.9812C48.8856 87.3212 48.3258 87.1458 47.5408 86.9531C46.8624 86.5329 46.8624 86.5329 46.1785 85.9717C45.9152 85.7598 45.6519 85.548 45.3884 85.3363C45.2468 85.2207 45.1051 85.105 44.9592 84.9859C44.082 84.276 43.1879 83.5876 42.2967 82.8955C42.1212 82.7581 41.9457 82.6208 41.7649 82.4792C40.739 81.6779 39.6995 80.9051 38.6346 80.1562C37.8781 80.4888 37.3754 80.8895 36.7946 81.4743C36.5343 81.7346 36.5343 81.7346 36.2687 82.0003C35.9914 82.2812 35.9914 82.2812 35.7085 82.5677C35.5174 82.7596 35.3262 82.9514 35.1293 83.149C34.5193 83.7617 33.9109 84.3759 33.3025 84.9902C32.8891 85.406 32.4756 85.8216 32.062 86.2372C31.0485 87.2559 30.0363 88.2759 29.0252 89.2969C29.5564 90.1044 30.0931 90.8956 30.6896 91.6562C30.8228 91.8266 30.9559 91.9969 31.0931 92.1725C31.3022 92.4385 31.3022 92.4385 31.5154 92.71C31.8079 93.0841 32.1002 93.4582 32.3925 93.8324C32.5362 94.0162 32.68 94.1999 32.8281 94.3893C33.4187 95.1457 34.006 95.9047 34.5916 96.665C34.7741 96.9016 34.9566 97.1382 35.1446 97.3819C35.9664 98.4703 36.2442 99.1888 36.0564 100.547C35.8265 101.226 35.5107 101.846 35.1775 102.48C34.4672 103.895 33.8932 105.267 33.4747 106.8C33.191 107.469 32.9159 107.661 32.3064 108.047C31.7907 108.183 31.7907 108.183 31.2252 108.252C30.9061 108.293 30.9061 108.293 30.5805 108.335C30.3525 108.361 30.1244 108.388 29.8895 108.415C29.6537 108.445 29.418 108.474 29.1751 108.505C28.4223 108.599 27.6691 108.689 26.9158 108.779C26.1627 108.872 25.4096 108.965 24.6566 109.059C24.1882 109.117 23.7197 109.174 23.2511 109.23C23.0384 109.256 22.8256 109.282 22.6064 109.309C22.4198 109.331 22.2332 109.353 22.0409 109.376C21.4502 109.456 21.4502 109.456 20.5877 109.688C20.5877 111.234 20.5877 112.781 20.5877 114.375C26.7752 114.375 32.9627 114.375 39.3377 114.375C39.5697 112.983 39.8018 111.591 40.0408 110.156C41.9078 103.222 46.0051 97.4376 52.2659 93.7612C58.3653 90.2874 65.7961 89.43 72.5758 91.2569C76.7013 92.4605 80.2592 94.6037 83.4002 97.5C83.5555 97.6363 83.7108 97.7725 83.8708 97.9129C86.7307 100.553 88.7744 104.362 90.0359 108.003C90.1169 108.231 90.1169 108.231 90.1996 108.464C90.8299 110.409 91.0261 112.318 91.3689 114.375C97.5564 114.375 103.744 114.375 110.119 114.375C110.119 112.828 110.119 111.281 110.119 109.688C108.013 109.339 105.916 109.006 103.794 108.77C103.466 108.732 103.139 108.695 102.811 108.657C102.321 108.6 101.831 108.545 101.34 108.496C100.876 108.449 100.411 108.395 99.9474 108.342C99.6775 108.313 99.4076 108.284 99.1295 108.255C98.2078 107.992 97.8306 107.611 97.2283 106.875C96.9596 106.363 96.9596 106.363 96.788 105.852C96.7219 105.664 96.6559 105.475 96.5879 105.281C96.4916 104.989 96.4916 104.989 96.3934 104.692C95.953 103.398 95.4972 102.168 94.8455 100.963C94.4651 100.152 94.3928 99.5104 94.6502 98.6719C95.1627 97.8199 95.7731 97.0624 96.4043 96.2957C96.949 95.6266 97.4739 94.9425 98.0014 94.2598C98.4118 93.7289 98.824 93.1995 99.237 92.6706C100.053 91.6252 100.867 90.5784 101.681 89.5312C100.657 88.3056 99.5793 87.1634 98.446 86.0385C98.2763 85.8692 98.1066 85.6998 97.9318 85.5253C97.3951 84.99 96.8576 84.4554 96.3201 83.9209C95.9539 83.5558 95.5876 83.1907 95.2215 82.8255C94.3285 81.9351 93.4349 81.0454 92.5408 80.1562C91.7361 80.4487 91.1085 80.7742 90.4388 81.3062C90.2677 81.4408 90.0967 81.5754 89.9204 81.7141C89.741 81.8575 89.5616 82.0008 89.3768 82.1484C88.9993 82.4457 88.6218 82.743 88.2443 83.0402C87.8796 83.3289 87.5149 83.6175 87.1502 83.9062C86.5902 84.3476 86.0285 84.7869 85.4656 85.2246C85.2399 85.4017 85.0143 85.5787 84.7817 85.7611C82.8057 87.1851 82.8057 87.1851 81.8081 87.1921C80.7192 86.8459 79.6838 86.4043 78.6395 85.9424C78.4287 85.8507 78.218 85.759 78.0009 85.6645C77.5817 85.4818 77.1633 85.2974 76.7456 85.1114C76.3412 84.9343 75.9342 84.7633 75.5245 84.599C75.3358 84.5217 75.1471 84.4445 74.9526 84.3649C74.7849 84.2987 74.6172 84.2325 74.4443 84.1643C73.9057 83.8327 73.8006 83.5483 73.5564 82.9688C73.4483 82.4499 73.4483 82.4499 73.3779 81.8801C73.3505 81.6658 73.3231 81.4515 73.2949 81.2308C73.2673 81.0013 73.2397 80.7718 73.2113 80.5353C73.1813 80.2984 73.1513 80.0616 73.1204 79.8175C73.0249 79.0615 72.9316 78.3052 72.8387 77.5488C72.7446 76.7908 72.65 76.0329 72.5544 75.2751C72.4951 74.8036 72.4366 74.332 72.3791 73.8603C72.3525 73.6475 72.3259 73.4348 72.2985 73.2155C72.2754 73.0279 72.2524 72.8402 72.2286 72.6469C72.1702 72.1709 72.1702 72.1709 71.9158 71.7188C67.5072 71.7188 63.0986 71.7188 58.5564 71.7188ZM48.7676 101.457C45.7075 104.977 43.3221 109.635 43.3221 114.375C57.8627 114.375 72.4033 114.375 87.3846 114.375C86.9614 109.72 85.3805 105.855 82.4627 102.188C82.3412 102.027 82.2198 101.867 82.0947 101.702C78.7948 97.6065 73.345 94.8544 68.1658 94.2188C60.5519 93.7817 54.1251 95.8724 48.7676 101.457Z" fill="white"/>
<path d="M120.167 1.96288C120.813 2.76011 120.767 3.17908 120.744 4.17829C120.574 5.78422 120.096 7.33197 119.667 8.88427C119.56 9.28021 119.454 9.67623 119.347 10.0723C119.059 11.1414 118.767 12.2095 118.475 13.2775C118.168 14.4013 117.864 15.526 117.56 16.6506C117.118 18.2855 116.675 19.9202 116.231 21.5546C115.431 24.4979 114.639 27.4433 113.851 30.39C113.736 30.8201 113.621 31.2503 113.506 31.6804C113.281 32.5206 113.057 33.3608 112.832 34.2009C112.723 34.6073 112.615 35.0136 112.506 35.4199C112.454 35.6155 112.402 35.811 112.348 36.0125C111.707 38.4078 111.064 40.8024 110.416 43.1957C110.209 43.9598 110.004 44.7241 109.799 45.4886C109.533 46.4795 109.265 47.4696 108.995 48.4594C108.894 48.8341 108.793 49.209 108.693 49.5841C108.555 50.1007 108.414 50.6165 108.272 51.1321C108.193 51.4254 108.114 51.7187 108.032 52.0209C107.788 52.6988 107.645 53.0186 107.072 53.4375C106.222 53.702 105.81 53.7328 104.983 53.3849C104.262 52.9703 103.758 52.553 103.174 51.9638C102.973 51.7621 102.771 51.5603 102.563 51.3525C102.35 51.1357 102.137 50.9189 101.917 50.6955C101.693 50.4704 101.469 50.2454 101.245 50.0206C100.659 49.4315 100.075 48.8403 99.4908 48.2486C98.8934 47.6441 98.294 47.0415 97.6948 46.4387C96.5216 45.258 95.3506 44.075 94.181 42.8906C93.4265 43.2224 92.9275 43.6195 92.3499 44.2045C92.1755 44.38 92.0011 44.5554 91.8213 44.7362C91.5377 45.0252 91.5377 45.0252 91.2483 45.32C91.0474 45.5227 90.8464 45.7255 90.6394 45.9344C90.2029 46.375 89.7669 46.816 89.3315 47.2577C88.6424 47.9565 87.9511 48.6531 87.2595 49.3493C85.2931 51.3292 83.329 53.3114 81.3685 55.297C80.2853 56.3941 79.1999 57.4891 78.1123 58.5818C77.4247 59.2728 76.7398 59.9664 76.0567 60.6619C75.5303 61.1963 75 61.7269 74.4704 62.2581C74.1888 62.5471 74.1888 62.5471 73.9016 62.8419C72.8965 63.8417 72.1745 64.5065 70.7435 64.6875C69.4491 64.2081 69.4491 64.2081 69.1029 63.5156C68.9678 62.7589 68.9154 62.3683 69.1029 61.6406C69.5025 61.1021 69.5025 61.1021 70.0315 60.54C70.2238 60.3345 70.4161 60.1289 70.6143 59.9171C71.5271 58.9703 72.4458 58.0307 73.3769 57.1019C73.5818 56.8966 73.7868 56.6912 73.9979 56.4797C74.5523 55.9244 75.1072 55.3697 75.6624 54.8152C76.2461 54.2321 76.8293 53.6484 77.4125 53.0648C78.3896 52.0873 79.3672 51.1103 80.345 50.1336C81.4749 49.005 82.6039 47.8756 83.7324 46.7457C84.7048 45.7723 85.6776 44.7994 86.6507 43.8268C87.2306 43.2473 87.8104 42.6676 88.3897 42.0875C89.0336 41.4428 89.6784 40.7991 90.3233 40.1555C90.5147 39.9636 90.7061 39.7717 90.9033 39.574C91.0787 39.3993 91.2542 39.2246 91.4349 39.0445C91.6631 38.8164 91.6631 38.8164 91.896 38.5837C92.6874 37.8492 93.2889 37.5871 94.3778 37.6159C95.0074 37.7632 95.2905 38.0071 95.7644 38.444C96.0086 38.6679 96.0086 38.6679 96.2578 38.8965C97.0783 39.6796 97.8863 40.4734 98.6854 41.2784C98.8596 41.4529 99.0339 41.6275 99.2134 41.8073C99.763 42.3583 100.312 42.9101 100.861 43.4619C101.236 43.8384 101.611 44.2148 101.987 44.5912C102.901 45.5081 103.815 46.4257 104.728 47.3437C105.192 45.9926 105.611 44.6385 105.978 43.2581C106.028 43.0716 106.078 42.8851 106.13 42.693C106.296 42.0772 106.46 41.4613 106.625 40.8453C106.743 40.4046 106.861 39.9639 106.98 39.5232C107.297 38.3415 107.614 37.1597 107.93 35.9778C108.258 34.7519 108.587 33.5262 108.916 32.3005C109.645 29.5817 110.373 26.8625 111.101 24.1433C111.402 23.0226 111.702 21.9019 112.002 20.7812C113.25 16.1201 114.498 11.4587 115.744 6.79687C113.15 7.43829 110.564 8.10443 107.982 8.78905C107.598 8.89062 107.214 8.99217 106.83 9.09372C105.805 9.36523 104.779 9.63715 103.753 9.90921C103.114 10.0789 102.474 10.2485 101.834 10.4181C92.9465 12.774 84.0697 15.1685 75.1967 17.5781C76.2322 18.8191 77.326 19.9699 78.4752 21.1056C78.7367 21.3658 78.7367 21.3658 79.0034 21.6312C79.5552 22.1802 80.1078 22.7284 80.6605 23.2764C81.3927 24.0023 82.1241 24.729 82.855 25.4562C83.0237 25.623 83.1924 25.7897 83.3662 25.9615C83.5212 26.1157 83.6762 26.2699 83.8359 26.4288C84.0411 26.6322 84.0411 26.6322 84.2504 26.8396C84.7315 27.3606 84.8091 27.6756 84.9232 28.3887C84.8011 29.3348 84.7366 29.4729 84.1323 30.1342C83.9823 30.2984 83.8324 30.4626 83.6779 30.6319C82.6998 31.6625 81.7048 32.6755 80.7031 33.6831C80.4584 33.93 80.2138 34.177 79.9691 34.424C79.1727 35.2278 78.375 36.0303 77.577 36.8326C77.4409 36.9695 77.3047 37.1064 77.1644 37.2475C75.8791 38.5401 74.5933 39.8321 73.3063 41.1231C71.6649 42.7696 70.0259 44.4185 68.3901 46.0706C67.2364 47.2353 66.0801 48.3973 64.9218 49.5574C64.2311 50.2492 63.5416 50.9422 62.855 51.6382C62.2101 52.2917 61.5619 52.9418 60.9112 53.5894C60.6733 53.8273 60.4366 54.0665 60.2012 54.3069C59.8793 54.6353 59.5525 54.9589 59.2256 55.2824C58.9537 55.5558 58.9537 55.5558 58.6762 55.8347C57.9262 56.3636 57.3561 56.4424 56.4467 56.4844C55.0392 55.8072 54.0018 54.5636 52.9182 53.4622C52.7166 53.2593 52.5149 53.0565 52.3071 52.8475C51.6644 52.2005 51.0232 51.552 50.3822 50.9033C49.7427 50.2573 49.1028 49.6117 48.4623 48.9667C48.0646 48.5662 47.6675 48.165 47.2711 47.7631C46.2852 46.7689 45.2807 45.8189 44.219 44.9064C43.5773 44.3447 42.9764 43.7465 42.3768 43.1406C42.1935 42.9568 42.1935 42.9568 42.0065 42.7692C41.624 42.3855 41.2424 42.0009 40.8607 41.6162C40.5983 41.3526 40.3359 41.0891 40.0734 40.8256C39.4367 40.1865 38.8009 39.5466 38.1654 38.9062C36.5111 40.2584 35.0266 41.7794 33.5201 43.2906C33.2174 43.5933 32.9147 43.896 32.6119 44.1987C31.7936 45.0169 30.976 45.8359 30.1586 46.6549C29.3029 47.5121 28.4465 48.3686 27.5902 49.2252C25.9703 50.8458 24.351 52.467 22.732 54.0884C20.8881 55.935 19.0435 57.7808 17.1988 59.6267C13.4057 63.4223 9.61339 67.2187 5.82166 71.0156C6.15125 71.7014 6.46894 72.1893 7.01058 72.7265C7.15601 72.8719 7.30144 73.0173 7.45127 73.1671C7.60778 73.3212 7.76429 73.4753 7.92554 73.634C8.08614 73.794 8.24675 73.9539 8.41222 74.1187C8.92456 74.6284 9.43851 75.1365 9.95251 75.6445C10.3005 75.9902 10.6484 76.3359 10.9962 76.6818C11.8483 77.5287 12.7018 78.3741 13.556 79.2187C14.8955 78.1055 16.1276 76.9121 17.3548 75.6772C17.6768 75.3547 17.9989 75.0321 18.3209 74.7096C18.6638 74.3658 19.0065 74.0218 19.3491 73.6777C20.0644 72.9591 20.7807 72.2415 21.4971 71.524C23.0158 70.0027 24.5335 68.4804 26.0511 66.958C27.6939 65.3101 29.3367 63.6624 30.9808 62.0159C31.6932 61.3022 32.4051 60.588 33.1166 59.8733C33.4519 59.5367 33.7874 59.2004 34.1231 58.8642C34.5327 58.4539 34.9419 58.0432 35.3507 57.6319C35.5304 57.4522 35.7101 57.2725 35.8952 57.0873C36.0517 56.9303 36.2081 56.7734 36.3693 56.6117C36.9153 56.1052 37.2121 56.0181 37.9603 55.8984C38.9187 56.0221 39.0706 56.109 39.7456 56.7261C39.909 56.8752 40.0724 57.0243 40.2408 57.1779C41.2109 58.101 42.1497 59.0532 43.0873 60.0091C43.8303 60.7609 44.5776 61.4904 45.3807 62.178C46.542 63.1786 47.6192 64.2623 48.7001 65.3479C49.0535 65.7025 49.4081 66.0559 49.7628 66.4091C49.9886 66.635 50.2143 66.861 50.4399 67.0871C50.6427 67.2902 50.8456 67.4933 51.0546 67.7026C51.7737 68.4681 51.8561 69.0275 51.8388 70.0836C51.7592 70.5469 51.7592 70.5469 51.2758 71.1328C50.3503 71.6054 49.9777 71.7041 48.9467 71.4844C46.5277 69.7065 44.4657 67.2637 42.3549 65.1416C41.9704 64.7559 41.5859 64.3704 41.2013 63.9848C40.2668 63.0478 39.333 62.1101 38.3998 61.1719C37.6193 61.5117 37.1088 61.9371 36.5106 62.5391C36.3233 62.7264 36.136 62.9138 35.943 63.1067C35.7397 63.3125 35.5363 63.5183 35.3268 63.7303C34.9956 64.0626 34.6643 64.3949 34.3331 64.7272C33.9777 65.0841 33.6229 65.4417 33.2683 65.7994C32.5289 66.5451 31.7877 67.2891 31.0462 68.0327C29.4726 69.6116 27.9009 71.1924 26.3295 72.7734C24.6329 74.4803 22.9361 76.1868 21.2369 77.891C20.4999 78.6303 19.7641 79.3708 19.0291 80.1121C18.6819 80.462 18.3341 80.8114 17.9861 81.1605C17.5618 81.5862 17.1383 82.0126 16.7159 82.4401C16.435 82.7211 16.435 82.7211 16.1484 83.0077C15.9863 83.1709 15.8241 83.334 15.6571 83.5021C14.9309 84.1395 14.4694 84.371 13.4974 84.3896C11.4793 83.8178 9.92225 81.7133 8.47485 80.2624C8.26533 80.0531 8.0558 79.8438 7.83993 79.6282C7.40042 79.1888 6.96114 78.7493 6.52226 78.3093C5.96039 77.7461 5.39747 77.1839 4.83423 76.6221C4.29427 76.0832 3.75521 75.5434 3.21606 75.0037C3.01417 74.8022 2.81228 74.6008 2.60427 74.3933C2.41797 74.2063 2.23167 74.0192 2.03973 73.8265C1.87571 73.6623 1.7117 73.4981 1.54272 73.3289C0.912856 72.6532 0.674639 72.248 0.533569 71.3232C0.619429 69.012 4.08896 66.6218 5.64753 65.0657C5.9865 64.7264 6.32541 64.387 6.66428 64.0477C7.58032 63.1306 8.49709 62.2142 9.41403 61.298C10.3742 60.3385 11.3337 59.3784 12.2933 58.4184C13.9031 56.8082 15.5134 55.1984 17.124 53.589C18.9877 51.7266 20.8505 49.8633 22.7129 47.9996C24.3124 46.3991 25.9124 44.7989 27.5128 43.1992C28.4685 42.2438 29.424 41.2883 30.3792 40.3324C31.2757 39.4352 32.1728 38.5386 33.0703 37.6424C33.4002 37.3128 33.73 36.983 34.0595 36.6529C34.5078 36.204 34.9567 35.7559 35.4058 35.3079C35.5374 35.1758 35.669 35.0437 35.8046 34.9076C36.9384 33.7796 36.9384 33.7796 37.8875 33.6826C40.3047 33.9009 42.9564 37.5486 44.6098 39.2194C44.9295 39.5406 45.2494 39.8617 45.5694 40.1826C46.4042 41.0205 47.2377 41.8597 48.0708 42.6994C49.4093 44.0481 50.7495 45.3952 52.0905 46.7415C52.5568 47.2103 53.0224 47.6799 53.4879 48.1495C53.7733 48.4365 54.0587 48.7234 54.3441 49.0103C54.4725 49.1404 54.601 49.2704 54.7334 49.4044C55.3498 50.0226 55.9636 50.5946 56.681 51.0937C57.4588 50.7545 57.9702 50.3313 58.5677 49.7322C58.7543 49.5462 58.941 49.3602 59.1333 49.1685C59.3359 48.9642 59.5386 48.7599 59.7474 48.5494C59.9624 48.3344 60.1774 48.1195 60.3989 47.898C60.9878 47.3093 61.5752 46.7191 62.1623 46.1287C62.7765 45.5117 63.3919 44.8959 64.0072 44.2801C65.1719 43.1139 66.3354 41.9466 67.4984 40.7789C68.8227 39.4494 70.1483 38.1212 71.474 36.7931C74.2007 34.0615 76.9258 31.3282 79.6498 28.5937C78.885 27.6875 78.1182 26.798 77.2738 25.9642C77.0971 25.789 76.9204 25.6139 76.7383 25.4334C76.5522 25.25 76.3662 25.0666 76.1744 24.8776C75.7752 24.4814 75.3761 24.0851 74.9769 23.6888C74.3519 23.0696 73.7265 22.4508 73.1006 21.8326C72.4933 21.2324 71.8875 20.6308 71.2819 20.029C71.0939 19.8442 70.9059 19.6593 70.7122 19.4689C70.4516 19.2095 70.4516 19.2095 70.1857 18.9448C69.9563 18.718 69.9563 18.718 69.7223 18.4867C69.2168 17.9092 68.8857 17.4071 68.8411 16.6324C68.8598 16.4756 68.8785 16.3188 68.8978 16.1572C68.9129 15.9998 68.928 15.8424 68.9436 15.6802C69.1752 15.032 69.4469 14.8935 70.0404 14.5312C70.7542 14.277 71.4833 14.0908 72.2167 13.9019C72.4385 13.8429 72.6603 13.784 72.8888 13.7232C73.6289 13.527 74.3697 13.3338 75.1106 13.1406C75.6351 13.0021 76.1596 12.8634 76.684 12.7245C77.8026 12.4287 78.9215 12.1341 80.0407 11.8406C81.7902 11.3817 83.539 10.9199 85.2877 10.4575C85.8732 10.3027 86.4587 10.1479 87.0443 9.99308C87.4788 9.87819 87.4788 9.87819 87.9221 9.76098C88.8021 9.52838 89.6821 9.29606 90.5623 9.0638C95.3784 7.79245 100.189 6.50254 104.997 5.19917C105.527 5.05551 106.057 4.91197 106.587 4.76847C107.413 4.54482 108.239 4.321 109.065 4.0971C109.521 3.9736 109.977 3.85029 110.432 3.72699C111.784 3.36083 113.134 2.99107 114.482 2.61096C114.721 2.54421 114.959 2.47746 115.205 2.40868C115.64 2.28676 116.074 2.16343 116.508 2.03827C118.917 1.36479 118.917 1.36479 120.167 1.96288Z" fill="white"/>
</g>
<defs>
<clipPath id="clip0_151_308">
<rect width="120" height="120" fill="white" transform="translate(0.665405)"/>
</clipPath>
</defs>
</svg>
