<svg width="121" height="120" viewBox="0 0 121 120" fill="none" xmlns="http://www.w3.org/2000/svg">
<path d="M32.8879 0.0871527C33.1346 0.08549 33.3812 0.0838272 33.6353 0.0821141C34.4562 0.0780111 35.2767 0.0822285 36.0976 0.0864696C36.6883 0.0852646 37.2791 0.0835576 37.8698 0.0813877C39.3042 0.0775036 40.7386 0.079067 42.173 0.0832834C43.3391 0.0865781 44.5052 0.0874816 45.6713 0.0866954C45.9208 0.0865275 45.9208 0.0865275 46.1753 0.0863563C46.5132 0.0861157 46.8511 0.0858684 47.189 0.0856143C50.1729 0.0836091 53.1568 0.0875063 56.1407 0.0944805C59.0334 0.101241 61.926 0.102898 64.8187 0.099287C67.9725 0.0953557 71.1264 0.0944155 74.2802 0.098516C74.6167 0.0989483 74.9532 0.0993783 75.2897 0.099806C75.4552 0.10002 75.6207 0.100234 75.7913 0.100454C76.9557 0.101766 78.1201 0.100994 79.2845 0.0994439C80.8524 0.0974392 82.4202 0.100491 83.9881 0.106909C84.5633 0.108522 85.1385 0.108545 85.7137 0.106858C86.4992 0.10482 87.2844 0.108561 88.0699 0.11376C88.2972 0.111829 88.5245 0.109897 88.7587 0.107907C90.5768 0.130101 92.0393 0.627434 93.3349 1.94825C94.8528 3.56303 95.0538 5.42005 95.0565 7.56328C95.0577 7.75762 95.0588 7.95195 95.06 8.15217C95.0636 8.8028 95.0656 9.45342 95.0676 10.1041C95.0698 10.5707 95.0722 11.0373 95.0746 11.5039C95.0809 12.7706 95.0859 14.0372 95.0905 15.3039C95.0957 16.6277 95.1021 17.9515 95.1084 19.2752C95.1201 21.782 95.1306 24.2887 95.1407 26.7955C95.1523 29.6493 95.1652 32.5032 95.1781 35.357C95.2048 41.2276 95.2298 47.0982 95.2538 52.9688C95.431 53.0315 95.6083 53.0942 95.7908 53.1588C96.0232 53.242 96.2556 53.3251 96.495 53.4108C96.8406 53.5339 96.8406 53.5339 97.1931 53.6594C99.282 54.4666 100.775 55.9426 101.816 57.8906C101.956 58.1468 102.097 58.403 102.241 58.667C103.13 61.4259 102.607 64.3 102.272 67.1137C102.22 67.5709 102.167 68.0282 102.115 68.4855C102.006 69.4379 101.895 70.3901 101.783 71.3421C101.639 72.564 101.498 73.7861 101.358 75.0085C101.225 76.1758 101.089 77.343 100.954 78.5101C100.928 78.733 100.903 78.9559 100.876 79.1855C100.803 79.8127 100.73 80.4398 100.656 81.0669C100.634 81.2536 100.613 81.4404 100.591 81.6328C100.437 82.915 100.437 82.915 100.176 83.4375C100.391 83.4326 100.606 83.4277 100.827 83.4226C101.635 83.4065 102.443 83.3948 103.251 83.386C103.599 83.3813 103.947 83.375 104.295 83.3668C107.388 83.2959 109.538 83.697 111.847 85.8966C113.813 88.1342 113.83 90.6071 113.851 93.4287C113.855 93.7992 113.862 94.1697 113.871 94.5401C113.884 95.0776 113.889 95.6147 113.892 96.1524C113.897 96.3169 113.903 96.4815 113.908 96.6511C113.904 97.546 113.79 97.9423 113.241 98.6611C112.586 99.1492 112.355 99.2836 111.56 99.2551C111.28 99.2494 111.28 99.2494 110.995 99.2436C110.804 99.2338 110.612 99.224 110.415 99.2139C110.219 99.2086 110.023 99.2033 109.821 99.1979C109.34 99.1841 108.859 99.1631 108.379 99.1406C108.384 99.3345 108.389 99.5284 108.394 99.7282C108.413 100.607 108.425 101.485 108.437 102.363C108.445 102.668 108.453 102.974 108.461 103.288C108.464 103.581 108.467 103.874 108.47 104.176C108.475 104.446 108.48 104.716 108.485 104.994C108.356 105.856 108.125 106.118 107.441 106.641C106.749 106.871 106.304 106.903 105.583 106.902C105.348 106.902 105.113 106.902 104.872 106.902C104.619 106.9 104.366 106.899 104.106 106.898C103.847 106.898 103.588 106.897 103.321 106.897C102.492 106.896 101.664 106.893 100.835 106.89C100.273 106.888 99.7121 106.887 99.1508 106.886C97.7736 106.884 96.3965 106.88 95.0194 106.875C95.0231 107.09 95.0268 107.305 95.0306 107.526C95.0427 108.334 95.0514 109.142 95.0581 109.951C95.0616 110.298 95.0663 110.646 95.0725 110.994C95.1197 113.739 95.0963 116.115 93.1069 118.197C91.9176 119.291 90.8829 119.794 89.2492 119.798C88.8353 119.8 88.8353 119.8 88.4131 119.801C87.9562 119.802 87.9562 119.802 87.4901 119.802C87.1644 119.803 86.8387 119.804 86.513 119.805C85.6159 119.808 84.7188 119.809 83.8217 119.81C82.8549 119.811 81.8881 119.814 80.9213 119.817C78.5853 119.822 76.2493 119.826 73.9133 119.829C73.2535 119.83 72.5937 119.831 71.934 119.832C67.8371 119.838 63.7403 119.843 59.6435 119.846C58.6944 119.846 57.7452 119.847 56.7961 119.848C56.5602 119.848 56.3243 119.848 56.0813 119.848C52.2606 119.851 48.4399 119.859 44.6192 119.869C40.6968 119.879 36.7744 119.884 32.8519 119.885C30.6496 119.886 28.4472 119.889 26.2449 119.897C24.369 119.903 22.4932 119.906 20.6174 119.903C19.6606 119.902 18.7039 119.903 17.7471 119.908C16.8701 119.914 15.9934 119.914 15.1164 119.909C14.651 119.908 14.1856 119.913 13.7202 119.918C11.7133 119.9 10.1319 119.554 8.57496 118.229C6.68829 116.242 6.79299 113.739 6.80516 111.161C6.80434 110.786 6.80323 110.412 6.80183 110.038C6.7989 109.012 6.80034 107.987 6.80253 106.962C6.80412 105.854 6.80166 104.747 6.79973 103.64C6.7966 101.472 6.79728 99.3049 6.79931 97.1374C6.8009 95.3756 6.80112 93.6138 6.80035 91.8521C6.80025 91.6012 6.80014 91.3504 6.80003 91.092C6.7998 90.5824 6.79957 90.0728 6.79934 89.5632C6.79734 84.7859 6.79964 80.0086 6.80342 75.2312C6.80656 71.133 6.80602 67.0347 6.80277 62.9364C6.79901 58.1761 6.79753 53.4158 6.79969 48.6554C6.79991 48.1477 6.80013 47.64 6.80035 47.1323C6.80046 46.8825 6.80057 46.6327 6.80068 46.3754C6.80129 44.6159 6.80026 42.8565 6.79861 41.097C6.79664 38.9526 6.79717 36.8081 6.80092 34.6636C6.80276 33.5697 6.80349 32.4758 6.80116 31.3819C6.79906 30.38 6.80023 29.3782 6.80396 28.3763C6.80474 28.0144 6.80435 27.6524 6.80264 27.2905C6.78263 22.6986 6.78263 22.6986 8.43854 20.9892C8.62638 20.7927 8.81423 20.5961 9.00777 20.3936C9.2407 20.1581 9.47377 19.9228 9.70694 19.6875C10.0002 19.3867 10.2933 19.0857 10.5863 18.7846C11.6613 17.684 12.7449 16.5919 13.8296 15.5008C14.0264 15.3027 14.2232 15.1046 14.426 14.9006C15.4659 13.8545 16.5066 12.8092 17.5479 11.7645C18.4058 10.9034 19.262 10.0407 20.1167 9.17651C21.1544 8.12718 22.195 7.08077 23.2378 6.03638C23.6326 5.63997 24.0264 5.24257 24.4192 4.84414C24.9692 4.28671 25.5228 3.73312 26.0774 3.18027C26.2366 3.01722 26.3958 2.85417 26.5599 2.68618C28.436 0.833778 30.258 0.05491 32.8879 0.0871527ZM32.2069 3.98438C32.2066 4.19646 32.2063 4.40854 32.2059 4.62705C32.2017 6.63375 32.1919 8.64034 32.176 10.647C32.168 11.6784 32.1621 12.7098 32.1611 13.7413C32.1601 14.7383 32.1534 15.7351 32.1429 16.732C32.1398 17.1108 32.1388 17.4896 32.1399 17.8683C32.1445 19.9854 32.1223 21.898 30.8007 23.6719C29.3857 25.0351 27.7441 25.3665 25.8056 25.3872C25.6431 25.3896 25.4805 25.3919 25.3131 25.3944C24.7817 25.4015 24.2504 25.4056 23.7191 25.4096C23.3483 25.4139 22.9776 25.4185 22.6069 25.4233C21.6355 25.4353 20.6642 25.4446 19.6928 25.4533C18.6998 25.4628 17.7069 25.4747 16.7139 25.4865C14.7689 25.5091 12.8239 25.5289 10.8788 25.5469C10.852 36.8391 10.8314 48.1314 10.819 59.4236C10.8175 60.7561 10.816 62.0886 10.8144 63.4211C10.8141 63.6864 10.8138 63.9517 10.8135 64.225C10.8084 68.523 10.7992 72.821 10.7884 77.1191C10.7775 81.5277 10.7709 85.9363 10.7686 90.345C10.7669 93.0664 10.7619 95.7878 10.7524 98.5092C10.7462 100.374 10.7443 102.239 10.7458 104.104C10.7466 105.181 10.7454 106.258 10.7391 107.334C10.7334 108.32 10.7331 109.305 10.7371 110.291C10.7376 110.647 10.7361 111.004 10.7325 111.361C10.6342 113.437 10.6342 113.437 11.415 115.285C12.3608 116.023 13.1016 116.045 14.2813 116.046C14.5458 116.047 14.8104 116.048 15.0829 116.049C15.3736 116.049 15.6644 116.049 15.9639 116.049C16.2727 116.049 16.5814 116.05 16.8996 116.051C17.7574 116.053 18.6153 116.053 19.4731 116.053C20.398 116.054 21.3229 116.055 22.2478 116.057C24.2705 116.06 26.2932 116.062 28.3159 116.063C29.5787 116.063 30.8414 116.064 32.1042 116.065C35.6 116.068 39.0958 116.071 42.5916 116.071C42.9272 116.071 42.9272 116.071 43.2696 116.071C43.606 116.072 43.606 116.072 43.9492 116.072C44.4037 116.072 44.8582 116.072 45.3127 116.072C45.6508 116.072 45.6508 116.072 45.9958 116.072C49.6495 116.073 53.3032 116.077 56.9569 116.083C60.7074 116.088 64.4579 116.091 68.2084 116.091C70.3145 116.092 72.4205 116.093 74.5266 116.097C76.3198 116.101 78.1129 116.102 79.9061 116.1C80.821 116.099 81.7359 116.099 82.6508 116.103C83.4886 116.106 84.3264 116.105 85.1642 116.102C85.6103 116.102 86.0564 116.105 86.5025 116.107C87.9524 116.099 89.068 116.056 90.3319 115.313C91.0445 114.295 91.1194 113.454 91.1037 112.231C91.1027 112.077 91.1017 111.923 91.1007 111.764C91.0968 111.277 91.088 110.79 91.079 110.303C91.0755 109.97 91.0723 109.638 91.0694 109.306C91.0617 108.495 91.0496 107.685 91.0351 106.875C90.8187 106.872 90.8188 106.872 90.5981 106.869C89.0962 106.849 87.5944 106.826 86.0926 106.801C85.5323 106.792 84.9719 106.783 84.4115 106.776C83.6057 106.765 82.8 106.752 81.9942 106.738C81.7439 106.735 81.4937 106.732 81.2358 106.729C81.0013 106.725 80.7667 106.72 80.5251 106.715C80.3195 106.712 80.1139 106.709 79.9021 106.706C79.2422 106.632 78.7391 106.465 78.1444 106.172C77.8173 105.518 77.859 104.953 77.8359 104.222C77.8261 103.927 77.8163 103.633 77.8062 103.329C77.7969 103.02 77.7877 102.711 77.7782 102.393C77.7681 102.079 77.7579 101.765 77.7476 101.451C77.7226 100.681 77.6987 99.9106 77.6757 99.1406C77.3793 99.1292 77.0829 99.1177 76.7776 99.1058C76.3885 99.0883 75.9994 99.0706 75.6103 99.0527C75.4149 99.0455 75.2196 99.0382 75.0184 99.0308C74.8303 99.0217 74.6422 99.0126 74.4485 99.0033C74.2754 98.9959 74.1023 98.9886 73.924 98.981C73.4569 98.9063 73.4569 98.9063 72.7538 98.4375C72.3447 97.2101 72.4666 95.8909 72.4631 94.6057C72.4609 94.0944 72.4536 93.5833 72.4462 93.0721C72.4248 90.2877 72.7763 87.9641 74.6288 85.7813C76.8835 83.6433 79.3052 83.5556 82.246 83.5108C82.5988 83.503 82.9516 83.4949 83.3044 83.4865C84.1625 83.4667 85.0206 83.451 85.8788 83.4375C85.7727 82.4051 85.6658 81.3727 85.5582 80.3405C85.518 79.9534 85.4779 79.5662 85.438 79.1791C85.1664 76.546 84.8703 73.917 84.5495 71.2894C84.4495 70.4568 84.3498 69.6243 84.2502 68.7917C84.1841 68.2472 84.1165 67.7028 84.0473 67.1587C83.0754 59.5016 83.0754 59.5016 85.4101 56.4844C86.8541 54.6341 88.9018 53.8155 91.0351 52.9688C91.0515 46.8813 91.0639 40.7939 91.0715 34.7064C91.0751 31.8799 91.0801 29.0535 91.0881 26.227C91.0951 23.7637 91.0997 21.3003 91.1012 18.837C91.1021 17.5325 91.1043 16.228 91.1094 14.9235C91.1142 13.6958 91.1157 12.4681 91.1146 11.2404C91.1148 10.7897 91.1162 10.339 91.1189 9.88836C91.1224 9.273 91.1215 8.65779 91.1196 8.04242C91.1217 7.86413 91.1237 7.68584 91.1258 7.50215C91.1164 6.38991 90.9855 5.59805 90.3319 4.68751C89.0303 3.9003 87.843 3.88561 86.3497 3.89983C86.1176 3.89923 85.8855 3.89863 85.6464 3.89801C84.8709 3.89685 84.0955 3.90072 83.32 3.90456C82.7632 3.90476 82.2065 3.90465 81.6498 3.90425C80.2963 3.90407 78.9428 3.90712 77.5893 3.91159C76.0138 3.91662 74.4384 3.91767 72.8629 3.91847C70.0535 3.92001 67.2442 3.92469 64.4348 3.93134C61.7064 3.9378 58.978 3.94277 56.2495 3.94576C55.9971 3.94604 55.9971 3.94604 55.7396 3.94632C54.8953 3.94724 54.051 3.94813 53.2067 3.949C46.2068 3.95629 39.2069 3.96872 32.2069 3.98438ZM27.0666 8.15546C26.936 8.28658 26.8053 8.41771 26.6707 8.55281C26.5335 8.68959 26.3963 8.82638 26.255 8.9673C25.7991 9.42213 25.3441 9.87782 24.8891 10.3336C24.5742 10.6483 24.2593 10.963 23.9443 11.2777C23.2833 11.9384 22.6227 12.5995 21.9624 13.2609C21.1138 14.1109 20.2641 14.9597 19.4141 15.8083C18.7633 16.4583 18.113 17.1089 17.4629 17.7596C17.1497 18.0729 16.8364 18.3861 16.5228 18.699C16.0856 19.1357 15.6491 19.573 15.2129 20.0106C15.0162 20.2066 15.0162 20.2066 14.8155 20.4065C14.2029 20.9018 14.2029 20.9018 13.9257 21.5625C15.7734 21.5863 17.6211 21.6027 19.4689 21.614C20.0976 21.6182 20.7261 21.6247 21.3547 21.6332C22.2582 21.6446 23.1616 21.6499 24.0652 21.6541C24.3462 21.6589 24.6272 21.6637 24.9168 21.6687C25.1795 21.6688 25.4422 21.6689 25.7128 21.6689C26.0587 21.6721 26.0587 21.6721 26.4115 21.6752C27.2566 21.5262 27.6384 21.249 28.2226 20.625C28.391 19.9952 28.391 19.9952 28.3556 19.2922C28.3555 19.0248 28.3554 18.7574 28.3553 18.4819C28.3493 18.1946 28.3432 17.9072 28.337 17.6111C28.3345 17.1683 28.3345 17.1683 28.332 16.7166C28.3265 15.9334 28.316 15.1507 28.303 14.3677C28.291 13.5681 28.2857 12.7684 28.2798 11.9687C28.2669 10.4009 28.2472 8.83329 28.2226 7.26563C27.7198 7.26563 27.4038 7.82011 27.0666 8.15546ZM88.2812 58.9893C87.2899 60.2577 87.205 61.8703 87.3729 63.4185C87.3961 63.5997 87.4193 63.7809 87.4433 63.9677C87.4657 64.165 87.4881 64.3623 87.5112 64.5656C87.5854 65.2109 87.6645 65.8555 87.7437 66.5003C87.7967 66.9516 87.8493 67.4029 87.9017 67.8543C88.0399 69.0379 88.1824 70.2209 88.3257 71.4039C88.442 72.37 88.5554 73.3364 88.6685 74.3029C88.9024 76.3004 89.1383 78.2976 89.3796 80.2943C89.4014 80.4774 89.4232 80.6606 89.4457 80.8492C89.5523 81.7243 89.69 82.5716 89.8632 83.4375C91.9515 83.4375 94.0398 83.4375 96.1913 83.4375C96.7985 79.3758 97.2923 75.3044 97.7614 71.2249C97.8696 70.2852 97.9804 69.3458 98.0917 68.4064C98.178 67.6747 98.2623 66.9428 98.3462 66.2107C98.3863 65.864 98.427 65.5174 98.4685 65.1708C98.526 64.6886 98.5808 64.2062 98.6351 63.7236C98.6668 63.4506 98.6985 63.1776 98.7312 62.8964C98.8172 61.1263 98.4216 59.7639 97.2533 58.4372C96.0706 57.3075 94.6491 56.7796 93.0208 56.684C91.1552 56.796 89.5948 57.7055 88.2812 58.9893ZM77.2069 88.5938C75.9201 90.8181 75.9201 90.8181 76.2694 95.1563C87.3296 95.1563 98.3898 95.1563 109.785 95.1563C110.12 91.2341 110.12 91.2341 108.442 88.1596C107.061 87.3051 105.828 87.2551 104.229 87.2702C103.96 87.2682 103.691 87.2661 103.413 87.264C102.527 87.2589 101.641 87.2623 100.754 87.2662C100.136 87.2655 99.518 87.2643 98.8999 87.2629C97.6059 87.2607 96.3119 87.2635 95.018 87.2691C93.5257 87.2755 92.0337 87.2734 90.5415 87.267C89.1011 87.261 87.6607 87.2616 86.2203 87.2651C85.6096 87.2658 84.9988 87.2649 84.3881 87.2622C83.5337 87.2592 82.6797 87.2637 81.8253 87.2702C81.5742 87.2679 81.3231 87.2655 81.0644 87.2631C79.5642 87.2842 78.2728 87.452 77.2069 88.5938ZM81.6601 99.1406C81.6601 100.378 81.6601 101.616 81.6601 102.891C89.1624 102.891 96.6648 102.891 104.394 102.891C104.394 101.653 104.394 100.416 104.394 99.1406C96.8921 99.1406 89.3898 99.1406 81.6601 99.1406Z" fill="white"/>
<path d="M22.5032 72.509C22.7562 72.5074 23.0092 72.5057 23.2699 72.504C24.1192 72.4999 24.9683 72.5041 25.8177 72.5083C26.4259 72.5071 27.0342 72.5054 27.6424 72.5033C29.1238 72.499 30.6052 72.5009 32.0866 72.5052C33.2904 72.5084 34.4942 72.5094 35.698 72.5086C35.8693 72.5085 36.0406 72.5083 36.2171 72.5082C36.5651 72.508 36.9131 72.5077 37.261 72.5075C40.3381 72.5055 43.4152 72.5094 46.4923 72.5164C49.479 72.5231 52.4657 72.5248 55.4524 72.5212C58.7041 72.5172 61.9559 72.5163 65.2076 72.5204C65.5542 72.5208 65.9009 72.5213 66.2475 72.5217C66.4181 72.5219 66.5886 72.5221 66.7643 72.5223C67.967 72.5236 69.1696 72.5229 70.3723 72.5213C71.9903 72.5193 73.6083 72.5223 75.2264 72.5288C75.8213 72.5304 76.4161 72.5304 77.011 72.5287C77.821 72.5267 78.6307 72.5304 79.4407 72.5356C79.7965 72.5327 79.7965 72.5327 80.1596 72.5298C81.7412 72.5487 81.7411 72.5487 82.502 73.0822C82.9771 73.8185 83.0665 74.3608 83.0665 75.2344C82.6525 75.8911 82.3562 76.2926 81.6602 76.6406C81.3228 76.6628 80.9843 76.6705 80.6461 76.6708C80.4319 76.6715 80.2176 76.6723 79.9969 76.6731C79.6415 76.6725 79.6415 76.6725 79.2789 76.672C79.0284 76.6725 78.7779 76.673 78.5198 76.6736C77.6749 76.6751 76.8299 76.6749 75.985 76.6747C75.3814 76.6754 74.7779 76.6762 74.1744 76.6771C72.7018 76.679 71.2292 76.6797 69.7567 76.6798C68.56 76.6799 67.3633 76.6804 66.1667 76.6811C62.7761 76.6832 59.3856 76.6843 55.995 76.6841C55.7207 76.6841 55.7207 76.6841 55.4408 76.6841C55.1661 76.684 55.1661 76.684 54.8858 76.684C51.9174 76.6839 48.9491 76.6862 45.9807 76.6895C42.9349 76.6928 39.8892 76.6945 36.8434 76.6943C35.1326 76.6942 33.4218 76.6948 31.7109 76.6974C30.1023 76.6997 28.4937 76.6996 26.8851 76.6979C26.2937 76.6977 25.7022 76.6983 25.1107 76.6997C24.3054 76.7015 23.5001 76.7004 22.6948 76.6986C22.4589 76.6998 22.223 76.701 21.98 76.7022C21.7645 76.7012 21.549 76.7001 21.327 76.699C21.0481 76.699 21.0481 76.699 20.7636 76.6991C20.1776 76.6319 19.8131 76.4884 19.3165 76.1719C18.7304 75.2929 18.7221 74.8691 18.8477 73.8281C19.8408 72.3972 20.9044 72.4903 22.5032 72.509Z" fill="white"/>
<path d="M21.2672 58.3279C21.4813 58.3268 21.6954 58.3258 21.916 58.3247C22.1527 58.3248 22.3895 58.3248 22.6334 58.3249C22.8838 58.324 23.1341 58.3231 23.392 58.3222C24.2364 58.3197 25.0808 58.3188 25.9253 58.3179C26.5284 58.3164 27.1316 58.3148 27.7347 58.3132C29.5487 58.3086 31.3627 58.3062 33.1767 58.3041C34.0305 58.3031 34.8843 58.3018 35.7381 58.3006C38.5756 58.2966 41.4132 58.2932 44.2507 58.2915C44.9872 58.2911 45.7238 58.2906 46.4603 58.2902C46.6434 58.2901 46.8265 58.2899 47.0151 58.2898C49.9818 58.2879 52.9485 58.2819 55.9152 58.2743C58.9596 58.2666 62.004 58.2624 65.0485 58.2616C66.7584 58.2611 68.4683 58.259 70.1782 58.2531C71.7863 58.2475 73.3943 58.2466 75.0023 58.249C75.5933 58.2491 76.1843 58.2476 76.7753 58.2444C77.5806 58.2403 78.3857 58.2419 79.191 58.245C79.4262 58.2425 79.6614 58.2399 79.9037 58.2372C80.9115 58.2466 81.5029 58.2675 82.3865 58.784C83.0003 59.4908 83.0497 60.0125 83.0662 60.9375C82.8079 61.7339 82.616 61.8626 81.8944 62.3437C81.4116 62.4033 81.4116 62.4033 80.8448 62.4047C80.6286 62.4063 80.4124 62.408 80.1896 62.4097C79.8328 62.4088 79.8328 62.4088 79.4687 62.408C79.09 62.4098 79.09 62.4098 78.7037 62.4117C77.8535 62.4152 77.0034 62.4154 76.1532 62.4155C75.5454 62.4173 74.9376 62.4193 74.3298 62.4214C72.6756 62.4268 71.0215 62.4287 69.3673 62.4298C68.3347 62.4306 67.3021 62.4321 66.2695 62.4338C63.4113 62.4384 60.5531 62.4423 57.6948 62.4429C57.5119 62.443 57.3289 62.443 57.1405 62.4431C56.7696 62.4432 56.3987 62.4432 56.0278 62.4433C55.8437 62.4434 55.6595 62.4434 55.4698 62.4435C55.2855 62.4435 55.1012 62.4435 54.9112 62.4436C51.9233 62.4444 48.9354 62.4508 45.9475 62.4595C42.8808 62.4684 39.8141 62.473 36.7474 62.473C35.0252 62.4732 33.303 62.4752 31.5808 62.482C29.9614 62.4883 28.3421 62.4886 26.7226 62.4848C26.1275 62.4844 25.5323 62.486 24.9372 62.4897C24.1262 62.4945 23.3156 62.4921 22.5046 62.4878C22.2677 62.4909 22.0309 62.494 21.7868 62.4972C20.6968 62.484 20.1833 62.4651 19.2863 61.801C18.7107 60.9757 18.6861 60.5174 18.8475 59.5312C19.576 58.6084 20.1177 58.3305 21.2672 58.3279Z" fill="white"/>
<path d="M21.5232 44.0317C21.7362 44.0308 21.9491 44.0299 22.1685 44.029C22.4028 44.0292 22.637 44.0294 22.8784 44.0296C23.127 44.0289 23.3756 44.0282 23.6318 44.0275C24.469 44.0254 25.3062 44.0251 26.1434 44.0247C26.7419 44.0236 27.3405 44.0225 27.9391 44.0212C29.5681 44.0181 31.197 44.0166 32.826 44.0156C33.8429 44.0149 34.8598 44.0139 35.8767 44.0129C38.6915 44.01 41.5063 44.0076 44.3211 44.0068C44.5914 44.0067 44.5914 44.0067 44.8671 44.0067C45.0477 44.0066 45.2283 44.0066 45.4143 44.0065C45.7803 44.0064 46.1463 44.0063 46.5123 44.0062C46.7846 44.0061 46.7846 44.0061 47.0624 44.006C50.0048 44.0051 52.9473 44.001 55.8897 43.9956C58.9098 43.99 61.9298 43.9871 64.9499 43.9868C66.646 43.9866 68.342 43.9852 70.038 43.981C71.6328 43.977 73.2275 43.9766 74.8223 43.9787C75.4083 43.9789 75.9944 43.9778 76.5805 43.9755C77.3791 43.9726 78.1776 43.9739 78.9762 43.9764C79.326 43.9735 79.326 43.9735 79.6829 43.9706C80.8431 43.979 81.6622 43.9959 82.5977 44.7656C83.0497 45.3615 83.0685 45.6524 83.0371 46.4062C82.7856 47.2685 82.6297 47.5252 81.8945 48.0469C81.078 48.1901 80.2678 48.1742 79.4407 48.1675C79.0617 48.1699 79.0617 48.1699 78.6751 48.1724C77.8256 48.1767 76.9763 48.1743 76.1268 48.1719C75.5189 48.1736 74.9111 48.1756 74.3033 48.178C72.8219 48.1831 71.3406 48.1831 69.8592 48.1812C68.6553 48.1797 67.4514 48.1799 66.2475 48.1814C65.9906 48.1818 65.9906 48.1818 65.7285 48.1821C65.3806 48.1825 65.0327 48.183 64.6848 48.1834C61.4212 48.1873 58.1577 48.1852 54.8941 48.1813C51.9077 48.1778 48.9214 48.1813 45.935 48.188C42.8693 48.1949 39.8037 48.1975 36.7381 48.1953C36.3914 48.195 36.0447 48.1948 35.698 48.1946C35.5274 48.1944 35.3568 48.1943 35.181 48.1942C33.9786 48.1937 32.7762 48.196 31.5738 48.1994C29.9553 48.204 28.337 48.2023 26.7185 48.1966C26.1237 48.1954 25.529 48.1962 24.9342 48.1992C24.1237 48.2029 23.3136 48.1994 22.5032 48.1941C22.1481 48.1983 22.1481 48.1983 21.7859 48.2025C20.6908 48.1878 20.1835 48.1702 19.2866 47.4957C18.8477 46.875 18.8477 46.875 18.7158 46.1719C18.8776 45.3088 19.1683 44.9137 19.7852 44.2969C20.4438 44.0773 20.8421 44.0328 21.5232 44.0317Z" fill="white"/>
<path d="M22.2497 29.8543C22.5035 29.8528 22.7572 29.8514 23.0187 29.8498C23.872 29.8462 24.7251 29.851 25.5784 29.8558C26.1889 29.855 26.7994 29.8537 27.4099 29.8519C28.8978 29.8485 30.3856 29.8513 31.8735 29.8563C33.6056 29.862 35.3378 29.8616 37.0699 29.861C40.1601 29.8601 43.2503 29.865 46.3406 29.873C49.3402 29.8807 52.3399 29.884 55.3395 29.8826C58.6048 29.881 61.87 29.8816 65.1352 29.8862C65.3078 29.8864 65.4804 29.8867 65.6583 29.8869C66.005 29.8874 66.3517 29.8879 66.6984 29.8884C67.9062 29.89 69.1141 29.8902 70.3219 29.8898C71.947 29.8895 73.5722 29.893 75.1973 29.899C75.7948 29.9007 76.3924 29.9012 76.9899 29.9004C77.8034 29.8995 78.6169 29.903 79.4304 29.9076C79.6687 29.9063 79.907 29.9051 80.1525 29.9038C80.3701 29.9059 80.5878 29.908 80.812 29.9102C80.9998 29.9106 81.1876 29.9109 81.3811 29.9113C82.035 30.0242 82.3544 30.2477 82.8322 30.7031C83.083 31.6059 83.1533 32.1269 82.8029 33.0029C82.1887 33.7196 81.6359 33.947 80.6885 34.0267C80.0462 34.0451 79.4055 34.0468 78.763 34.0439C78.5159 34.0446 78.2687 34.0454 78.0142 34.0461C77.1849 34.048 76.3556 34.0465 75.5263 34.045C74.9323 34.0457 74.3383 34.0465 73.7443 34.0475C72.2976 34.0494 70.8509 34.0492 69.4042 34.0478C68.2284 34.0467 67.0527 34.0466 65.8769 34.0471C65.7096 34.0472 65.5423 34.0472 65.3699 34.0473C65.03 34.0475 64.6901 34.0476 64.3501 34.0478C61.1626 34.0491 57.975 34.0476 54.7875 34.0451C52.0523 34.043 49.3171 34.0433 46.5819 34.0455C43.4058 34.048 40.2297 34.049 37.0536 34.0475C36.7149 34.0474 36.3762 34.0472 36.0376 34.0471C35.8709 34.047 35.7043 34.047 35.5326 34.0469C34.3582 34.0465 33.1839 34.0472 32.0095 34.0483C30.429 34.0497 28.8485 34.0487 27.2679 34.046C26.6872 34.0453 26.1064 34.0455 25.5256 34.0466C24.7342 34.0478 23.9429 34.0462 23.1515 34.0439C22.8049 34.0455 22.8049 34.0455 22.4513 34.0471C20.0873 34.0335 20.0873 34.0335 19.1262 33.1055C18.7515 32.3956 18.7345 31.9655 18.8479 31.1719C19.6281 29.6614 20.7291 29.8356 22.2497 29.8543Z" fill="white"/>
<path d="M57.5195 91.6406C58.2055 92.0339 58.7904 92.5393 59.3945 93.0469C59.5879 93.2028 59.7812 93.3587 59.9805 93.5193C60.6491 94.0596 61.3113 94.607 61.9727 95.1563C62.1052 95.2657 62.2377 95.3752 62.3742 95.4879C62.7882 95.8303 63.2009 96.1742 63.6133 96.5186C63.7426 96.6254 63.872 96.7323 64.0053 96.8424C64.6674 97.3988 65.2796 97.9232 65.7227 98.6719C65.7065 99.5763 65.6111 100.128 65.1074 100.884C64.2858 101.424 63.8816 101.425 62.9102 101.25C62.1399 100.781 61.4803 100.2 60.8008 99.6094C60.3527 99.237 59.9034 98.8659 59.4531 98.4961C59.2465 98.3233 59.0398 98.1505 58.8269 97.9724C58.2562 97.5263 57.6799 97.1544 57.0508 96.7969C56.9994 96.9486 56.9481 97.1002 56.8951 97.2565C56.4662 98.2322 55.8985 99.0955 55.3223 99.9903C55.0692 100.386 54.8162 100.782 54.5633 101.178C54.4329 101.381 54.3025 101.585 54.1681 101.795C53.7687 102.423 53.375 103.055 52.9831 103.688C52.8571 103.891 52.731 104.093 52.6012 104.302C52.3585 104.693 52.1169 105.084 51.8763 105.476C51.766 105.653 51.6557 105.83 51.5421 106.012C51.3977 106.245 51.3977 106.245 51.2504 106.484C50.957 106.875 50.957 106.875 50.2539 107.344C49.3251 107.447 48.8126 107.482 48.0338 106.941C47.4499 106.414 46.9759 105.881 46.4893 105.264C45.5042 104.033 44.4871 102.835 43.4538 101.645C42.9486 101.06 42.48 100.488 42.0508 99.8438C41.3333 100.161 40.8721 100.508 40.3452 101.086C40.2054 101.238 40.0657 101.39 39.9217 101.546C39.7067 101.784 39.7067 101.784 39.4873 102.026C36.594 105.19 36.594 105.19 35.5322 105.308C34.4865 105.205 33.9678 104.709 33.2891 103.92C32.9512 103.493 32.6215 103.062 32.2949 102.627C32.0731 102.333 31.8504 102.039 31.6266 101.746C31.4813 101.553 31.4813 101.553 31.333 101.355C31.0049 100.952 31.0049 100.952 30.332 100.547C30.2209 100.659 30.1097 100.772 29.9952 100.887C29.4929 101.395 28.9896 101.901 28.4863 102.407C28.3114 102.584 28.1365 102.761 27.9562 102.943C27.7886 103.112 27.6209 103.28 27.4481 103.454C27.2161 103.688 27.2161 103.688 26.9795 103.926C26.4041 104.463 26.1376 104.529 25.3369 104.619C24.4727 104.531 24.4727 104.531 23.7842 104.048C23.3008 103.359 23.3008 103.359 23.125 102.583C23.526 100.612 25.7125 99.0299 27.0947 97.6465C27.2807 97.4577 27.4666 97.2689 27.6582 97.0743C27.9281 96.8038 27.9281 96.8038 28.2034 96.5277C28.3648 96.3654 28.5262 96.203 28.6925 96.0358C29.4489 95.3714 29.8864 95.1527 30.9024 95.17C31.9176 95.438 32.2523 95.7822 32.9248 96.5772C33.2216 96.9243 33.2216 96.9243 33.5245 97.2785C34.2027 98.1181 34.8616 98.9652 35.4883 99.8438C36.7483 98.806 37.8592 97.693 38.96 96.4893C39.2685 96.1527 39.5776 95.8167 39.8874 95.4813C40.0218 95.3344 40.1562 95.1874 40.2946 95.0361C40.8334 94.4994 41.1166 94.4528 41.8896 94.3653C42.9935 94.4775 43.1884 94.8215 43.9258 95.625C44.1083 95.819 44.2907 96.013 44.4788 96.2128C46.0957 97.983 47.6473 99.7969 49.082 101.719C50.4502 99.8277 51.6689 97.8611 52.8722 95.8621C55.5701 91.3879 55.5701 91.3879 57.5195 91.6406Z" fill="white"/>
</svg>
