<svg width="121" height="120" viewBox="0 0 121 120" fill="none" xmlns="http://www.w3.org/2000/svg">
<g clip-path="url(#clip0_151_159)">
<path d="M58.5596 0.344238C58.9901 0.342426 58.9901 0.342426 59.4293 0.340576C59.8762 0.346014 59.8762 0.346014 60.332 0.351562C60.6299 0.347937 60.9278 0.344312 61.2347 0.340576C61.5218 0.341785 61.8088 0.342993 62.1045 0.344238C62.4965 0.345824 62.4965 0.345824 62.8964 0.347443C63.7729 0.495754 64.1619 0.781912 64.7852 1.40625C65.0488 2.17438 65.0488 2.17438 65.2539 3.03223C65.5901 4.07558 65.7516 4.55557 66.684 5.15442C67.4532 5.44267 68.205 5.67071 69.0039 5.85938C69.2359 5.93672 69.468 6.01406 69.707 6.09375C70.4272 5.77054 71.1021 5.38707 71.7917 5.00336C72.5869 4.65828 73.0693 4.57794 73.9258 4.6875C74.3744 4.94751 74.3744 4.94751 74.7754 5.33203C75.0088 5.555 75.0088 5.555 75.2469 5.78247C75.4297 5.96254 75.6125 6.1426 75.8008 6.32812C76.0461 6.55436 76.2918 6.78016 76.5378 7.00562C76.7954 7.24818 77.0526 7.4911 77.3096 7.73438C77.4968 7.90511 77.4968 7.90511 77.6878 8.0793C78.3087 8.68312 78.6097 9.12843 78.8577 9.96277C78.8459 10.9227 78.6203 11.3514 78.1152 12.1582C77.5759 13.1163 77.5759 13.1163 77.4789 14.1779C77.6628 14.7119 77.8967 15.1962 78.1445 15.7031C78.1753 15.8699 78.2062 16.0367 78.2379 16.2085C78.3549 16.8 78.4594 17.1108 78.8477 17.5781C79.6678 17.9497 80.4759 18.2086 81.3443 18.4451C82.2658 18.8032 82.5334 19.1004 83.0664 19.9219C83.184 20.6172 83.184 20.6172 83.1827 21.3794C83.1828 21.6558 83.183 21.9323 83.1831 22.2171C83.1785 22.5038 83.1738 22.7905 83.1689 23.0859C83.1706 23.3727 83.1723 23.6594 83.174 23.9548C83.1568 26.3769 83.1568 26.3769 82.3633 27.4219C81.5933 27.7927 81.5933 27.7927 80.708 28.0811C80.4152 28.1792 80.1225 28.2774 79.8209 28.3786C79.082 28.5938 79.082 28.5938 78.6133 28.5938C78.5748 28.7977 78.5748 28.7977 78.5355 29.0057C78.3517 29.9112 78.1832 30.6327 77.7344 31.4502C77.3723 32.0939 77.3723 32.0939 77.5732 32.7686C77.7632 33.1897 77.9565 33.6095 78.161 34.0237C78.2474 34.2041 78.3338 34.3845 78.4229 34.5703C78.5084 34.7371 78.5939 34.9039 78.6819 35.0757C78.9058 35.8178 78.802 36.2812 78.6133 37.0312C78.0007 37.8897 77.2365 38.6034 76.4893 39.3457C76.2936 39.5518 76.098 39.7578 75.8965 39.9701C74.2562 41.6167 74.2562 41.6167 73.1531 41.6556C72.3353 41.4943 71.7793 41.3088 71.0693 40.8838C70.269 40.4002 70.269 40.4002 69.36 40.3638C68.5369 40.619 67.7578 40.9494 66.9659 41.2875C66.4258 41.4844 66.4258 41.4844 65.7227 41.4844C65.6801 41.6542 65.6375 41.824 65.5936 41.9989C64.9312 44.5466 64.9312 44.5466 64.3164 45.4688C63.5353 45.9094 63.1217 45.9375 62.207 45.9375C62.207 46.6336 62.207 47.3297 62.207 48.0469C62.4161 48.0462 62.6252 48.0456 62.8407 48.0449C67.9264 48.0294 73.0122 48.0177 78.098 48.0104C80.5574 48.0068 83.0168 48.0019 85.4762 47.9938C87.6197 47.9868 89.7631 47.9823 91.9065 47.9807C93.0417 47.9798 94.1767 47.9776 95.3119 47.9725C96.3801 47.9678 97.4483 47.9663 98.5165 47.9673C98.9087 47.9672 99.3009 47.9658 99.6931 47.9631C100.229 47.9596 100.764 47.9604 101.299 47.9623C101.749 47.9613 101.749 47.9613 102.207 47.9604C103.049 48.0536 103.49 48.2418 104.16 48.75C104.47 49.3697 104.432 49.8473 104.443 50.5413C104.447 50.8182 104.452 51.095 104.457 51.3802C104.463 51.8303 104.463 51.8303 104.469 52.2894C104.474 52.5957 104.478 52.902 104.483 53.2175C104.496 54.032 104.508 54.8466 104.519 55.6611C104.531 56.4922 104.544 57.3232 104.557 58.1543C104.582 59.7851 104.606 61.416 104.629 63.0469C104.765 62.8973 104.901 62.7478 105.041 62.5937C105.224 62.4 105.407 62.2064 105.596 62.0068C105.775 61.8138 105.955 61.6207 106.14 61.4218C106.834 60.8603 107.26 60.7441 108.145 60.7031C108.819 61.0251 109.258 61.3476 109.785 61.875C109.917 62.6074 109.917 62.6074 109.785 63.5156C109.495 63.928 109.495 63.928 109.102 64.3561C108.953 64.5192 108.804 64.6823 108.651 64.8503C108.4 65.1178 108.4 65.1178 108.145 65.3906C107.965 65.5855 107.785 65.7804 107.6 65.9813C107.013 66.6121 106.415 67.2323 105.815 67.8516C105.615 68.0667 105.415 68.2818 105.208 68.5034C103.536 70.2176 103.536 70.2176 102.489 70.3198C101.276 70.1514 100.528 69.2776 99.707 68.4375C99.5219 68.2575 99.3367 68.0776 99.1459 67.8922C98.551 67.3128 97.9638 66.7263 97.3779 66.1377C97.176 65.9366 96.974 65.7356 96.7659 65.5284C96.5742 65.3364 96.3825 65.1444 96.185 64.9466C96.0116 64.7729 95.8382 64.5993 95.6595 64.4203C95.1443 63.8666 95.0304 63.6138 94.9463 62.8564C95.0384 61.9166 95.266 61.574 95.957 60.9375C96.7493 60.6678 97.1574 60.6187 97.9346 60.9375C98.7433 61.5687 99.4504 62.3214 100.176 63.0469C100.253 59.4117 100.33 55.7766 100.41 52.0312C87.8805 52.0312 75.3508 52.0312 62.4414 52.0312C62.5188 55.5891 62.5961 59.1469 62.6758 62.8125C63.2172 62.2711 63.7586 61.7297 64.3164 61.1719C65.3855 60.6374 65.7597 60.6486 66.8945 60.9375C67.5473 61.5468 67.7897 62.1587 67.832 63.0469C67.3677 64.17 66.7567 64.9108 65.8975 65.7614C65.78 65.8785 65.6624 65.9956 65.5413 66.1163C65.2945 66.3615 65.0469 66.6059 64.7985 66.8495C64.4176 67.223 64.0393 67.5991 63.6613 67.9756C61.5836 70.0348 61.5836 70.0348 60.4199 70.1953C59.5479 70.1821 59.1652 69.9707 58.5303 69.3823C58.3681 69.2332 58.206 69.0841 58.039 68.9305C57.7819 68.6865 57.7819 68.6865 57.5195 68.4375C57.3418 68.2712 57.164 68.1049 56.9809 67.9335C56.4219 67.4044 55.8715 66.8674 55.3223 66.3281C55.1334 66.1481 54.9446 65.968 54.7501 65.7825C53.7187 64.7666 53.0137 64.0409 52.832 62.5781C53.0953 61.803 53.3169 61.345 53.96 60.835C54.726 60.638 55.1174 60.6886 55.8789 60.9375C56.7276 61.5708 57.4751 62.2993 58.2227 63.0469C58.3387 57.5941 58.3387 57.5941 58.457 52.0312C45.85 52.0312 33.243 52.0312 20.2539 52.0312C20.3313 55.6664 20.4086 59.3016 20.4883 63.0469C21.1844 62.3508 21.8805 61.6547 22.5977 60.9375C24.0039 60.7031 24.0039 60.7031 24.6484 60.9961C25.3094 61.5102 25.6041 61.916 25.7764 62.7393C25.4454 64.6883 23.0554 66.3747 21.7041 67.7197C21.503 67.9217 21.302 68.1237 21.0948 68.3318C20.9028 68.5235 20.7108 68.7152 20.513 68.9127C20.3393 69.0861 20.1657 69.2595 19.9867 69.4381C19.2706 70.1044 18.6798 70.1824 17.7018 70.1671C16.7989 70.0047 16.3055 69.4121 15.6992 68.7616C15.5671 68.6275 15.4351 68.4933 15.299 68.3551C14.8806 67.9278 14.4693 67.4944 14.0576 67.0605C13.775 66.7705 13.4919 66.4809 13.2085 66.1917C10.908 63.8302 10.908 63.8302 10.8057 62.7246C10.8789 61.875 10.8789 61.875 11.2598 61.3184C11.9483 60.8473 12.3882 60.7202 13.2227 60.7031C14.0691 61.0504 14.6184 61.6152 15.2524 62.2559C15.3992 62.4039 15.5461 62.5519 15.6974 62.7045C15.8088 62.8175 15.9203 62.9305 16.0352 63.0469C16.0365 62.8757 16.0379 62.7046 16.0393 62.5282C16.0529 60.9143 16.0698 59.3004 16.0904 57.6866C16.1009 56.8569 16.1101 56.0272 16.1164 55.1975C16.1236 54.2433 16.1365 53.2893 16.1496 52.3352C16.1511 52.0376 16.1526 51.7399 16.1541 51.4333C16.1588 51.1565 16.1634 50.8797 16.1682 50.5946C16.1708 50.351 16.1734 50.1074 16.1761 49.8565C16.2831 49.1262 16.4595 48.8053 16.9727 48.2812C17.7957 48.0069 18.4396 48.0181 19.3085 48.0187C19.4757 48.0185 19.6428 48.0183 19.815 48.0181C20.3764 48.0177 20.9378 48.019 21.4992 48.0203C21.9011 48.0203 22.303 48.0203 22.7048 48.0202C23.7972 48.0201 24.8896 48.0215 25.982 48.0231C27.1231 48.0246 28.2642 48.0247 29.4053 48.025C31.5668 48.0257 33.7282 48.0276 35.8897 48.03C38.3502 48.0326 40.8106 48.0339 43.2711 48.0351C48.3331 48.0375 53.3951 48.0417 58.457 48.0469C58.457 47.3508 58.457 46.6547 58.457 45.9375C58.2057 45.9182 57.9543 45.8988 57.6953 45.8789C56.7063 45.6811 56.5007 45.5276 55.8789 44.7656C55.5823 44.0753 55.5823 44.0753 55.3516 43.3301C55.273 43.0829 55.1945 42.8358 55.1135 42.5812C54.9414 41.9531 54.9414 41.9531 54.9414 41.4844C54.7529 41.465 54.5644 41.4457 54.3701 41.4258C53.6351 41.271 53.1321 41.0751 52.4658 40.752C51.8534 40.4723 51.5027 40.3125 50.8252 40.3125C50.2706 40.5282 50.2706 40.5282 49.8328 40.7748C49.6769 40.8591 49.521 40.9434 49.3604 41.0303C49.2187 41.1152 49.077 41.2001 48.931 41.2875C48.0719 41.5938 47.3816 41.7313 46.5039 41.4844C45.6261 40.8678 44.9116 40.1217 44.1748 39.3457C43.9728 39.1451 43.7709 38.9445 43.5628 38.7378C41.8995 37.0339 41.8995 37.0339 41.8164 35.625C42.1374 34.821 42.5391 34.0925 42.9526 33.3325C43.2862 32.4006 43.153 32.0587 42.7539 31.1719C42.688 30.9994 42.6222 30.8268 42.5543 30.6491C42.4327 30.3413 42.3106 30.0337 42.1881 29.7263C42.0508 29.2969 42.0508 29.2969 42.0508 28.5938C41.881 28.5512 41.7112 28.5086 41.5363 28.4647C38.365 27.6401 38.365 27.6401 37.8012 26.7855C37.3619 25.63 37.511 24.3211 37.5098 23.1006C37.504 22.8128 37.4983 22.525 37.4924 22.2285C37.4915 21.951 37.4906 21.6735 37.4896 21.3876C37.4877 21.1346 37.4858 20.8816 37.4838 20.6209C37.6252 19.7527 37.9183 19.3672 38.5352 18.75C39.295 18.5028 39.295 18.5028 40.1465 18.3105C41.1754 17.9765 41.8238 17.7139 42.3602 16.7715C42.8829 15.6255 43.3399 14.575 43.0496 13.3063C42.7323 12.6087 42.3763 11.9583 41.9821 11.3022C41.7279 10.5031 41.7291 9.90426 42.0508 9.14062C42.6801 8.33515 43.4038 7.6447 44.1455 6.94336C44.3417 6.75151 44.538 6.55966 44.7401 6.362C46.4353 4.71728 46.4353 4.71728 47.381 4.62433C48.2945 4.69991 48.7929 5.00322 49.5801 5.46387C50.5071 5.92102 50.9664 6.13864 51.9897 5.93445C52.6898 5.63369 53.3424 5.29881 54.0039 4.92188C54.2359 4.84453 54.468 4.76719 54.707 4.6875C55.0334 3.87363 55.2773 3.04593 55.5328 2.20734C56.1623 0.750138 57.0134 0.350494 58.5596 0.344238ZM59.1602 4.45312C59.0627 4.74543 59.0627 4.74543 58.9633 5.04364C58.6383 6.01868 58.3133 6.99371 57.9883 7.96875C57.525 8.13354 57.525 8.13354 56.9043 8.26172C55.5465 8.59009 54.3716 9.12558 53.1377 9.76479C52.2064 10.2301 51.526 10.4417 50.4883 10.3125C49.787 10.0562 49.787 10.0562 49.1113 9.72656C48.7714 9.56342 48.7714 9.56342 48.4247 9.39697C48.2549 9.31238 48.0851 9.22778 47.9102 9.14062C47.3946 9.57548 46.9192 10.0138 46.5039 10.5469C46.4847 11.3164 46.7315 11.7066 47.1045 12.3779C47.5271 13.3151 47.6675 14.0054 47.4414 15C47.1288 15.6911 46.7957 16.3574 46.4324 17.0227C45.9466 17.9259 45.6746 18.7255 45.4932 19.7314C45.3476 20.3558 45.3476 20.3558 45.0977 20.8594C44.3464 21.2898 43.6002 21.4197 42.7539 21.5625C42.3606 21.7119 41.9681 21.864 41.582 22.0312C41.582 22.7273 41.582 23.4234 41.582 24.1406C41.8703 24.2512 41.8703 24.2512 42.1643 24.364C42.4169 24.4643 42.6695 24.5646 42.9297 24.668C43.1798 24.7659 43.43 24.8637 43.6877 24.9646C44.6529 25.4397 45.1769 25.8708 45.5875 26.8744C45.653 27.1034 45.7186 27.3324 45.7861 27.5684C46.0837 28.5428 46.4236 29.4004 46.9141 30.293C47.4806 31.3909 47.62 32.0506 47.4414 33.2812C47.2182 33.7848 46.9742 34.251 46.6861 34.7205C46.4522 35.2799 46.5245 35.5347 46.7383 36.0938C47.1241 36.6554 47.1241 36.6554 47.6758 37.0312C48.4031 37.0126 48.8006 36.8258 49.4189 36.4453C50.1486 36.0182 50.5762 35.9024 51.4258 35.8594C52.1485 36.0821 52.8132 36.4058 53.4912 36.7383C53.8487 36.909 54.2067 37.0786 54.5651 37.2473C54.7416 37.3309 54.918 37.4146 55.0998 37.5007C55.6585 37.7404 56.2152 37.914 56.7981 38.085C57.702 38.3743 57.702 38.3743 58.1485 38.9182C58.2068 39.0931 58.2651 39.268 58.3252 39.4482C58.3914 39.6331 58.4575 39.818 58.5257 40.0085C58.6077 40.275 58.6077 40.275 58.6914 40.5469C58.7881 40.8224 58.8848 41.0979 58.9844 41.3818C59.0424 41.5704 59.1004 41.7589 59.1602 41.9531C59.9336 41.9531 60.707 41.9531 61.5039 41.9531C61.5722 41.7244 61.6405 41.4957 61.7108 41.2601C61.8076 40.9588 61.9046 40.6576 62.002 40.3564C62.0461 40.2058 62.0902 40.0552 62.1356 39.9001C62.4042 39.0902 62.6048 38.7177 63.3286 38.2507C63.7015 38.1112 63.7015 38.1112 64.082 37.9688C64.3228 37.8724 64.5636 37.776 64.8117 37.6767C65.0591 37.5845 65.3066 37.4924 65.5615 37.3975C66.4922 37.0506 67.3742 36.6792 68.2568 36.2256C69.1674 35.8112 69.7526 35.8325 70.6958 36.1432C71.1133 36.3281 71.1133 36.3281 71.7578 36.7236C72.2531 37.0749 72.2531 37.0749 72.7686 37.0166C73.3896 36.7161 73.7453 36.4125 74.1602 35.8594C74.1406 35.1145 73.9214 34.6796 73.5596 34.0283C73.1012 33.0118 73.0248 32.0219 73.3665 30.9588C73.5618 30.5171 73.7741 30.0905 73.999 29.6631C74.498 28.6737 74.9316 27.7562 75.2002 26.6748C75.3783 26.0925 75.4821 25.8466 75.9665 25.4709C76.4501 25.2221 76.9302 25.0285 77.4414 24.8438C77.7545 24.7084 78.067 24.5718 78.3789 24.4336C78.6109 24.3369 78.843 24.2402 79.082 24.1406C79.082 23.4445 79.082 22.7484 79.082 22.0312C78.5844 21.835 78.0862 21.6399 77.5879 21.4453C77.3105 21.3365 77.0332 21.2278 76.7474 21.1157C76.0878 20.8329 76.0878 20.8329 75.5664 20.8594C75.5347 20.7113 75.503 20.5633 75.4703 20.4108C75.1394 19.0358 74.6656 17.8413 73.999 16.5967C73.3542 15.3652 72.9581 14.5201 73.2227 13.125C73.4484 12.6236 73.6903 12.1545 73.978 11.6858C74.1985 11.2538 74.1985 11.2538 74.1162 10.7666C73.8934 10.2354 73.6625 10.0161 73.208 9.66797C72.9808 9.49395 72.7536 9.31992 72.5195 9.14062C72.3667 9.22522 72.2138 9.30981 72.0563 9.39697C71.8514 9.50574 71.6466 9.6145 71.4355 9.72656C71.2343 9.83533 71.0331 9.94409 70.8258 10.0562C69.7318 10.4876 69.0394 10.4231 67.9538 9.97833C67.663 9.83325 67.3734 9.68575 67.085 9.53613C65.9866 8.98371 65.007 8.58153 63.7891 8.34961C62.7639 8.10508 62.7639 8.10508 62.3782 7.50824C62.1928 6.95939 62.0753 6.42897 61.9727 5.85938C61.8349 5.44607 61.8349 5.44607 61.6943 5.02441C61.6001 4.74163 61.6001 4.74163 61.5039 4.45312C60.7305 4.45312 59.957 4.45312 59.1602 4.45312Z" fill="white"/>
<path d="M66.2992 74.9982C68.2469 76.5383 69.7296 78.6053 70.1756 81.0938C70.3881 84.4145 70.0071 87.1069 67.8318 89.7656C66.4215 91.2732 64.6898 92.3341 62.6756 92.8125C62.817 92.8218 62.9585 92.8311 63.1043 92.8407C68.4202 93.2075 68.4202 93.2075 70.6443 94.2188C70.8271 94.3003 71.0099 94.3819 71.1982 94.4659C74.2067 95.9728 76.41 98.6461 77.6756 101.719C78.4525 104.089 78.4881 106.416 78.4704 108.885C78.4666 109.514 78.4704 110.143 78.4748 110.771C78.4744 111.178 78.4735 111.584 78.4721 111.991C78.4735 112.176 78.4749 112.36 78.4764 112.55C78.4493 114.726 77.808 116.324 76.3151 117.903C75.144 118.942 73.745 119.557 72.1733 119.566C71.8511 119.568 71.8511 119.568 71.5223 119.571C71.2871 119.571 71.0518 119.572 70.8095 119.573C70.5613 119.574 70.3131 119.576 70.0574 119.577C69.2344 119.582 68.4113 119.585 67.5883 119.587C67.1666 119.589 67.1666 119.589 66.7363 119.59C65.2477 119.595 63.759 119.598 62.2703 119.6C60.7343 119.603 59.1984 119.611 57.6624 119.62C56.4801 119.627 55.2978 119.628 54.1155 119.629C53.5494 119.63 52.9834 119.633 52.4173 119.638C51.6235 119.643 50.83 119.643 50.0362 119.641C49.6876 119.646 49.6876 119.646 49.332 119.65C47.1229 119.634 45.4768 118.903 43.8615 117.406C42.466 115.843 42.2479 114.13 42.2373 112.105C42.236 111.906 42.2347 111.706 42.2333 111.501C42.2311 111.078 42.2296 110.655 42.2286 110.232C42.2264 109.595 42.2191 108.957 42.2117 108.32C42.185 103.982 42.8996 100.308 45.9792 97.0531C49.3199 93.6769 53.4329 93.0686 57.9881 92.8125C57.8264 92.7639 57.6648 92.7152 57.4983 92.6651C54.7466 91.763 52.7232 90.1383 51.3587 87.5546C50.2557 85.1468 50.0014 82.2253 50.8689 79.6875C52.1342 76.7676 54.0846 74.7783 57.0506 73.5938C60.2417 72.5464 63.5491 73.104 66.2992 74.9982ZM55.8787 78.9844C54.6039 80.7749 54.3125 82.1756 54.4725 84.375C54.6323 85.0165 54.845 85.4254 55.1756 86.0156C55.2964 86.2525 55.4173 86.4894 55.5418 86.7334C56.6497 88.0686 58.0343 88.8541 59.7605 89.0771C61.5126 89.1388 62.7998 88.7078 64.1551 87.5977C65.2459 86.572 66.1099 85.3428 66.2388 83.8083C66.2686 82.0506 66.0189 80.8137 65.1219 79.3066C63.7891 78.008 62.2688 77.1955 60.4197 77.0361C58.7667 77.0578 57.0276 77.8027 55.8787 78.9844ZM48.3934 100.298C46.777 102.305 46.1982 104.486 46.1906 107.031C46.189 107.217 46.1875 107.404 46.1859 107.596C46.1835 107.987 46.1824 108.378 46.1825 108.769C46.1814 109.365 46.1729 109.961 46.164 110.557C46.1627 110.939 46.1617 111.321 46.1613 111.703C46.1579 111.88 46.1546 112.057 46.1511 112.238C46.1616 113.454 46.4184 114.155 47.2068 115.078C47.881 115.492 48.3869 115.606 49.173 115.61C49.3773 115.612 49.5817 115.614 49.7922 115.616C50.0146 115.615 50.2369 115.615 50.466 115.615C50.7016 115.617 50.9372 115.618 51.18 115.62C51.9595 115.624 52.739 115.625 53.5185 115.626C54.0603 115.627 54.602 115.629 55.1438 115.63C56.2799 115.633 57.4159 115.634 58.5519 115.634C60.0074 115.634 61.4627 115.64 62.9181 115.648C64.0372 115.653 65.1563 115.654 66.2755 115.654C66.812 115.655 67.3486 115.657 67.8851 115.66C68.6358 115.665 69.3863 115.664 70.137 115.661C70.3584 115.663 70.5798 115.666 70.8079 115.669C72.1542 115.656 72.8906 115.488 73.9256 114.609C74.5536 113.792 74.47 112.832 74.4731 111.842C74.4746 111.663 74.4762 111.484 74.4778 111.3C74.4802 110.921 74.4813 110.542 74.4812 110.164C74.4822 109.594 74.4907 109.025 74.4996 108.456C74.5237 105.153 74.0076 102.179 71.678 99.678C69.3211 97.4875 66.4974 96.9578 63.3888 96.9608C63.0287 96.9592 63.0287 96.9592 62.6613 96.9577C62.1561 96.9564 61.6509 96.9562 61.1457 96.9573C60.3804 96.958 59.6153 96.9525 58.85 96.9466C54.8014 96.9338 51.3246 97.1296 48.3934 100.298Z" fill="white"/>
<path d="M23.7401 74.7217C24.068 74.9633 24.3907 75.2122 24.7069 75.4688C24.9267 75.6451 24.9267 75.6451 25.1509 75.8249C27.0628 77.5369 28.0202 80.0226 28.2729 82.5312C28.4061 85.5047 27.2387 88.1248 25.2636 90.293C23.9905 91.5069 22.3801 92.26 20.7225 92.8125C20.864 92.8218 21.0055 92.8311 21.1512 92.8407C25.017 93.1074 28.0553 93.5418 31.2694 95.8594C31.4238 95.9703 31.5782 96.0812 31.7372 96.1954C34.1253 98.0729 35.6369 101.118 36.1913 104.063C36.264 104.86 36.279 105.654 36.2865 106.454C36.2892 106.679 36.2918 106.903 36.2946 107.135C36.299 107.609 36.3021 108.082 36.3039 108.556C36.3084 109.272 36.323 109.988 36.3378 110.705C36.365 113.214 36.3817 115.348 34.785 117.422C32.9777 119.209 30.9767 119.637 28.5142 119.626C28.2686 119.628 28.0229 119.629 27.7698 119.631C26.9618 119.635 26.1539 119.634 25.346 119.633C24.7815 119.634 24.217 119.635 23.6525 119.637C22.4709 119.639 21.2892 119.638 20.1075 119.636C18.597 119.633 17.0867 119.638 15.5762 119.645C14.4108 119.649 13.2454 119.649 12.08 119.648C11.5233 119.648 10.9665 119.649 10.4098 119.652C9.62968 119.655 8.84976 119.653 8.06961 119.649C7.72834 119.652 7.72834 119.652 7.38018 119.656C5.30986 119.634 3.3943 119.055 1.86044 117.611C0.516117 116.015 0.155677 114.347 0.184513 112.312C0.183948 112.078 0.183383 111.844 0.1828 111.603C0.183028 111.112 0.186138 110.62 0.192009 110.128C0.200031 109.384 0.196849 108.641 0.192295 107.897C0.19544 103.419 1.02704 100.012 4.17347 96.6541C7.56701 93.545 11.417 93.1004 15.8007 92.8125C15.6194 92.7443 15.4381 92.676 15.2513 92.6056C12.2765 91.4348 10.3292 89.8986 8.95984 86.966C7.95451 84.4236 8.05838 81.7612 9.00379 79.2188C10.3331 76.3181 12.3068 74.6768 15.2477 73.5379C18.1355 72.6056 21.1868 73.102 23.7401 74.7217ZM13.6803 79.1474C12.5995 80.4227 12.1071 81.9518 12.1953 83.6197C12.4819 85.2838 13.3644 86.7793 14.6288 87.8907C16.1854 88.8793 17.7435 89.3249 19.5909 88.9627C21.3539 88.4673 22.7332 87.4322 23.6376 85.8252C24.37 84.1283 24.4062 82.4568 23.8015 80.7166C23.0059 79.0436 21.7452 77.9736 20.0194 77.3438C17.5486 76.6385 15.4828 77.4268 13.6803 79.1474ZM6.33136 100.29C4.16674 103.132 3.99943 106.311 4.00867 109.761C4.00489 110.047 4.00112 110.334 3.99723 110.629C3.99544 113.082 3.99544 113.082 5.25024 115.113C6.26705 115.737 7.1374 115.676 8.3089 115.664C8.66295 115.666 8.66295 115.666 9.02415 115.668C9.80357 115.671 10.5828 115.667 11.3622 115.663C11.9042 115.663 12.4462 115.664 12.9882 115.664C14.1239 115.665 15.2594 115.662 16.3951 115.656C17.8508 115.65 19.3064 115.65 20.7621 115.653C21.8812 115.655 23.0003 115.653 24.1194 115.65C24.6562 115.649 25.1929 115.649 25.7297 115.65C26.4798 115.651 27.2298 115.647 27.9799 115.642C28.2018 115.643 28.4237 115.644 28.6523 115.645C30.0532 115.629 30.8661 115.43 31.9222 114.459C32.3547 113.619 32.3118 112.778 32.3085 111.855C32.3098 111.654 32.311 111.453 32.3123 111.247C32.3138 110.822 32.3135 110.397 32.3115 109.972C32.3095 109.329 32.3162 108.687 32.3236 108.045C32.3374 104.641 31.8271 102.187 29.4548 99.6396C27.6886 97.9357 25.3044 97.0137 22.8574 96.9935C22.6359 96.9913 22.4144 96.989 22.1862 96.9867C21.8306 96.9852 21.8306 96.9852 21.4678 96.9837C21.2206 96.9823 20.9735 96.981 20.7189 96.9796C20.196 96.9774 19.6732 96.9759 19.1503 96.975C18.3572 96.9727 17.5642 96.9654 16.7711 96.958C16.2615 96.9565 15.7518 96.9553 15.2422 96.9544C14.8909 96.95 14.8909 96.95 14.5324 96.9456C11.392 96.9554 8.50584 97.9507 6.33136 100.29Z" fill="white"/>
<path d="M109.126 75.5274C111.138 77.4949 112.371 80.175 112.422 82.9981C112.39 85.6498 111.419 88.3153 109.551 90.2344C108.086 91.4187 106.616 92.151 104.863 92.8125C105.005 92.8218 105.146 92.8311 105.292 92.8407C110.026 93.1674 113.873 93.9476 117.285 97.5C119.006 99.5186 120.334 102.216 120.377 104.909C120.381 105.122 120.385 105.334 120.389 105.554C120.399 106.528 120.409 107.502 120.414 108.477C120.418 108.988 120.424 109.5 120.433 110.012C120.446 110.754 120.451 111.496 120.455 112.238C120.46 112.464 120.465 112.69 120.471 112.923C120.465 114.727 119.979 116.216 118.803 117.611C117.053 119.26 114.929 119.672 112.602 119.653C112.356 119.654 112.11 119.656 111.857 119.658C111.052 119.662 110.246 119.659 109.441 119.656C108.877 119.656 108.313 119.657 107.75 119.659C106.571 119.66 105.392 119.658 104.213 119.654C102.706 119.648 101.199 119.651 99.6927 119.657C98.5293 119.66 97.3659 119.659 96.2025 119.657C95.6471 119.656 95.0917 119.657 94.5363 119.659C93.7584 119.661 92.9808 119.658 92.2029 119.653C91.9762 119.655 91.7494 119.656 91.5157 119.658C89.6328 119.635 87.6059 119.163 86.1995 117.814C84.2473 115.425 84.2656 113.011 84.3151 110.059C84.3262 109.353 84.3247 108.648 84.3216 107.942C84.3335 103.87 85.0576 100.116 87.9517 97.0249C91.5132 93.7666 95.2649 93.0838 99.9414 92.8125C99.7656 92.7524 99.5898 92.6923 99.4086 92.6304C96.5447 91.5591 94.4444 89.7122 93.1464 86.922C92.1165 84.3424 92.2455 81.8141 93.1446 79.2188C94.5301 76.2276 96.6987 74.549 99.7446 73.4034C103.137 72.4003 106.359 73.5743 109.126 75.5274ZM97.5977 79.4532C96.6 80.9988 96.165 82.5757 96.5256 84.4153C96.9767 86.0206 97.8472 87.2952 99.2603 88.2074C100.903 89.0597 102.445 89.3244 104.263 88.8135C105.829 88.2415 107.01 87.2186 107.778 85.7374C108.546 84.0473 108.571 82.4338 107.934 80.6891C107.134 79.0383 105.868 77.9672 104.16 77.3438C101.595 76.6115 99.3158 77.4941 97.5977 79.4532ZM90.4731 100.282C89.3443 101.783 88.4476 103.577 88.4119 105.476C88.4081 105.659 88.4043 105.842 88.4004 106.031C88.39 106.864 88.3804 107.697 88.375 108.53C88.3711 108.969 88.3647 109.408 88.3558 109.846C88.3429 110.481 88.3378 111.116 88.3344 111.751C88.3291 111.946 88.3238 112.141 88.3183 112.342C88.3218 113.317 88.3898 113.951 89.0067 114.729C89.7849 115.459 90.3061 115.575 91.3325 115.583C91.6386 115.586 91.6386 115.586 91.9508 115.589C92.2856 115.591 92.2856 115.591 92.6271 115.592C92.8627 115.594 93.0983 115.596 93.341 115.598C94.1218 115.604 94.9025 115.608 95.6833 115.611C96.0831 115.613 96.0831 115.613 96.491 115.615C97.9013 115.621 99.3116 115.626 100.722 115.629C102.179 115.633 103.636 115.643 105.094 115.655C106.214 115.663 107.334 115.666 108.454 115.667C108.991 115.669 109.529 115.672 110.066 115.678C110.818 115.685 111.569 115.685 112.321 115.684C112.654 115.689 112.654 115.689 112.993 115.695C114.016 115.686 114.722 115.646 115.539 114.995C116.528 113.927 116.641 112.911 116.644 111.495C116.645 111.216 116.646 110.937 116.646 110.65C116.643 110.217 116.643 110.217 116.641 109.775C116.642 109.492 116.644 109.209 116.646 108.918C116.639 105.509 116.25 102.356 113.843 99.7559C111.392 97.5109 108.736 96.9578 105.517 96.9608C105.271 96.9598 105.025 96.9588 104.772 96.9578C104.255 96.9564 103.738 96.9563 103.22 96.9573C102.436 96.9581 101.651 96.9525 100.866 96.9466C100.361 96.9461 99.8554 96.9459 99.35 96.9462C99.1187 96.944 98.8874 96.9418 98.6491 96.9396C95.5097 96.9602 92.6598 97.9661 90.4731 100.282Z" fill="white"/>
<path d="M68.8139 14.6777C71.4592 17.4837 72.2205 20.5265 72.1189 24.2551C72.0592 25.4725 71.84 26.5383 71.3481 27.6562C71.2855 27.8124 71.223 27.9686 71.1585 28.1296C69.7371 31.3325 67.192 33.1896 64.0266 34.4659C61.2274 35.4241 58.0979 35.132 55.4106 33.9844C52.29 32.4046 50.1165 30.1838 49.0101 26.8149C48.1016 23.6478 48.3551 20.2643 49.9211 17.3611C51.7814 14.2648 54.2901 12.4937 57.7543 11.4844C61.7449 10.6339 65.8479 11.9285 68.8139 14.6777ZM54.1087 18.2089C52.5691 20.1721 52.3599 22.4154 52.5981 24.8437C53.0084 26.7832 54.1746 28.2415 55.6449 29.5312C57.7728 30.8896 59.9195 31.3028 62.4134 30.802C64.3707 30.1895 65.9622 29.0016 67.0588 27.2571C68.1038 25.2089 68.4509 23.1712 67.9066 20.8914C67.0758 18.6748 65.7448 17.0064 63.6137 15.9375C60.0715 14.6338 56.6874 15.4034 54.1087 18.2089Z" fill="white"/>
</g>
<defs>
<clipPath id="clip0_151_159">
<rect width="120" height="120" fill="white" transform="translate(0.332031)"/>
</clipPath>
</defs>
</svg>
