<svg width="120" height="120" viewBox="0 0 120 120" fill="none" xmlns="http://www.w3.org/2000/svg">
<g clip-path="url(#clip0_151_173)">
<path d="M67.3831 2.13409C69.6482 3.85603 71.3754 6.15755 71.9919 8.96484C72.2245 9.79917 72.2245 9.79917 72.8389 10.3666C73.3945 10.5647 73.9368 10.6939 74.5151 10.8105C74.9422 10.918 75.3688 11.0273 75.795 11.1383C76.0133 11.1935 76.2317 11.2487 76.4567 11.3056C83.2858 13.1803 90.4927 17.5015 95.2988 22.7053C96.1623 23.7128 96.1623 23.7128 97.3199 24.256C97.8799 24.2078 97.8799 24.2078 98.6703 23.9063C102.3 23.1961 105.659 24.0181 108.748 26.0156C111.431 27.9156 112.969 30.81 113.67 33.9844C113.877 37.3476 113.585 40.5282 111.561 43.3594C111.063 43.8807 110.563 44.3885 110.032 44.8755C109.496 45.7944 109.724 46.5648 109.92 47.5781C109.954 47.7555 109.988 47.933 110.023 48.1158C110.135 48.6702 110.255 49.2226 110.374 49.7754C111.853 56.9954 111.685 64.3056 110.079 71.4832C110.028 71.7102 109.978 71.9372 109.926 72.171C109.88 72.3722 109.834 72.5734 109.786 72.7806C109.682 73.384 109.64 73.9204 109.686 74.5312C110.098 75.0752 110.098 75.0752 110.653 75.5859C113.159 78.2302 113.822 81.4379 113.744 84.949C113.592 87.985 112.128 90.9579 109.92 93.0469C107.066 95.3776 103.783 96.637 100.077 96.3281C99.4704 96.2173 98.8749 96.0901 98.2776 95.939C97.6048 95.8406 97.2063 95.868 96.561 96.0937C96.1175 96.4931 95.7288 96.8843 95.3305 97.3242C93.6439 99.0929 91.7429 100.528 89.7641 101.953C89.6182 102.059 89.4723 102.165 89.322 102.274C85.1602 105.258 80.2678 107.895 75.2429 109.026C73.3898 109.362 73.3898 109.362 72.0239 110.52C71.7923 111.226 71.7923 111.226 71.6531 111.97C71.0466 114.693 68.9755 116.774 66.7514 118.301C63.662 120.145 60.2736 120.457 56.7676 119.845C53.0122 118.811 50.5758 116.439 48.6926 113.146C48.3282 112.455 48.1746 111.798 48.0096 111.037C47.7717 110.192 47.7717 110.192 47.1391 109.626C46.5655 109.42 46.0054 109.283 45.4086 109.16C44.9808 109.052 44.5532 108.943 44.126 108.832C43.915 108.78 43.7041 108.728 43.4868 108.674C42.0632 108.296 40.72 107.7 39.3735 107.109C39.2187 107.042 39.0639 106.975 38.9045 106.906C35.1062 105.248 31.6 103.129 28.3578 100.547C28.1421 100.379 27.9264 100.211 27.7042 100.038C26.7874 99.3096 25.9029 98.5877 25.1114 97.7234C24.0678 96.4624 24.0678 96.4624 22.6724 95.7404C22.1165 95.7937 22.1165 95.7937 21.3266 96.0937C17.6968 96.8039 14.3381 95.9819 11.2485 93.9844C8.7687 92.2279 7.18695 89.5598 6.41723 86.6428C5.91326 83.1557 6.34592 79.5645 8.43597 76.6406C8.93362 76.1193 9.43346 75.6115 9.9649 75.1245C10.5009 74.2056 10.2731 73.4352 10.0766 72.4219C10.0426 72.2444 10.0086 72.067 9.97359 71.8842C9.86163 71.3298 9.7421 70.7774 9.62249 70.2246C8.11976 62.8815 8.21485 55.2435 10.0132 47.957C10.3356 46.7236 10.3356 46.7236 10.311 45.4688C9.89885 44.9248 9.89885 44.9248 9.34417 44.4141C6.83802 41.7698 6.17512 38.5621 6.25335 35.051C6.41221 31.877 7.99284 28.8685 10.311 26.7188C13.1535 24.4662 16.2976 23.4347 19.9203 23.6719C20.5271 23.7812 21.1217 23.9098 21.7194 24.061C22.3921 24.1593 22.7906 24.132 23.436 23.9063C23.8794 23.5069 24.2681 23.1157 24.6664 22.6758C26.353 20.9071 28.254 19.4722 30.2328 18.0469C30.3787 17.9411 30.5246 17.8354 30.6749 17.7264C34.8367 14.7416 39.7291 12.1048 44.754 10.9735C46.6071 10.6378 46.6071 10.6378 47.973 9.48028C48.2047 8.77416 48.2047 8.77416 48.3438 8.03009C48.9503 5.30734 51.0215 3.22604 53.2455 1.69922C57.6279 -0.917013 63.1757 -0.762313 67.3831 2.13409ZM56.058 8.8623C55.0648 10.3095 54.5463 11.6123 54.8422 13.3594C55.406 15.0872 56.3089 16.2135 57.8891 17.1094C59.3279 17.589 61.0532 17.6029 62.4448 16.9629C63.8536 16.1299 64.659 14.8988 65.1547 13.3594C65.4415 11.6702 64.9633 10.2901 63.9828 8.90625C62.5317 7.51158 61.3021 7.17901 59.3137 7.20062C57.8965 7.32831 57.0497 7.87066 56.058 8.8623ZM28.8266 28.8281C28.9199 29.0127 29.0133 29.1973 29.1095 29.3875C30.9236 33.1172 31.4705 36.5289 30.2328 40.5469C28.7625 43.9108 26.6705 46.2339 23.2309 47.6312C21.3007 48.3338 19.3741 48.4151 17.3422 48.5156C15.6129 56.1634 15.2738 63.8416 17.3422 71.4844C17.5607 71.4904 17.7791 71.4965 18.0041 71.5027C21.0727 71.6392 23.6946 72.268 26.2485 74.0625C26.3974 74.1655 26.5464 74.2685 26.6998 74.3747C29.0254 76.164 30.4285 79.2475 30.8609 82.0935C31.2347 85.2848 30.4484 88.4068 28.8266 91.1719C31.4114 94.0218 34.6283 96.3179 37.9672 98.2031C38.1157 98.2876 38.2641 98.3721 38.4171 98.4591C41.6757 100.299 45.0904 101.81 48.7485 102.656C48.8451 102.475 48.9418 102.294 49.0414 102.107C50.712 99.0939 52.7238 97.2 55.9848 96.0059C59.315 95.069 63.0272 95.3152 66.0895 96.9324C68.568 98.4215 69.8819 100.127 71.2485 102.656C78.3752 100.575 86.5746 97.0689 91.1703 90.9375C91.077 90.7698 90.9836 90.6021 90.8874 90.4294C89.1001 87.0678 88.5936 83.8827 89.537 80.1874C90.4682 77.1763 92.3783 74.6511 95.1547 73.125C97.1003 72.2611 98.8361 71.7091 100.955 71.5869C101.119 71.5768 101.282 71.5667 101.451 71.5562C101.852 71.5315 102.253 71.5078 102.655 71.4844C104.384 63.8366 104.723 56.1584 102.655 48.5156C102.436 48.5096 102.218 48.5035 101.993 48.4973C98.9236 48.3608 96.3032 47.7313 93.7485 45.9375C93.6022 45.8372 93.456 45.7369 93.3053 45.6335C90.7672 43.6899 89.5011 40.5807 89.061 37.5C88.7654 34.4858 89.6516 31.4174 91.1703 28.8281C88.5848 25.9774 85.3682 23.6845 82.0297 21.7969C81.885 21.7136 81.7403 21.6304 81.5912 21.5446C78.3517 19.694 74.8931 18.1822 71.2485 17.3438C71.1518 17.525 71.0551 17.7063 70.9555 17.8931C69.2849 20.9061 67.2732 22.8 64.0121 23.9941C60.6819 24.931 56.9697 24.6848 53.9075 23.0676C51.634 21.7017 50.3421 20.2211 49.0726 17.9013C48.9121 17.6253 48.9121 17.6253 48.7485 17.3438C41.7773 17.3438 33.5733 24.3067 28.8266 28.8281ZM14.2953 33.2813C13.4722 34.6189 13.3981 35.9692 13.5922 37.5C14.0102 38.9479 14.9199 39.965 16.1703 40.7813C17.5309 41.4304 18.9911 41.5053 20.4468 41.1053C22.0019 40.4202 23.1043 39.1837 23.7875 37.6465C24.047 35.7656 23.835 34.3522 22.6843 32.8079C21.6943 31.7144 20.6794 31.1528 19.2172 30.9375C17.1312 30.8354 15.6728 31.7613 14.2953 33.2813ZM97.3959 32.6367C96.4667 33.8801 96.012 35.0126 96.1069 36.5771C96.3624 38.3337 97.1306 39.356 98.4643 40.4855C99.7859 41.373 101.11 41.4214 102.655 41.25C104.117 40.8318 105.102 39.9199 105.936 38.6719C106.576 37.363 106.658 35.8133 106.26 34.4119C105.567 32.832 104.335 31.7009 102.743 31.0693C100.741 30.7358 98.8246 31.0797 97.3959 32.6367ZM14.3484 80.8878C13.4777 82.2216 13.4222 83.5286 13.5922 85.0781C14.0216 86.6406 15.0927 87.6959 16.4047 88.5937C17.7252 89.1806 19.003 89.1858 20.3891 88.8281C21.9092 88.1319 23.0479 87.1142 23.6703 85.5469C24.0587 84.0225 24.0024 82.6966 23.2016 81.3281C22.3138 80.0583 21.4557 79.1594 19.9203 78.75C17.5027 78.4636 15.9014 79.0181 14.3484 80.8878ZM96.8924 81.0782C96.0581 82.2973 95.9833 83.5232 96.1719 84.9472C96.5428 86.3847 97.408 87.5072 98.6117 88.3594C99.8244 89.0259 101.089 89.2141 102.451 88.9746C104.053 88.4722 105.301 87.3699 106.17 85.957C106.573 84.448 106.686 82.9454 106.039 81.4893C105.259 80.1439 104.126 79.2345 102.655 78.75C100.135 78.426 98.4753 79.1158 96.8924 81.0782ZM56.058 104.253C55.0648 105.7 54.5463 107.003 54.8422 108.75C55.406 110.478 56.3089 111.604 57.8891 112.5C59.3279 112.98 61.0532 112.994 62.4448 112.354C63.8536 111.52 64.659 110.289 65.1547 108.75C65.4415 107.061 64.9633 105.681 63.9828 104.297C62.5317 102.902 61.3021 102.57 59.3137 102.591C57.8965 102.719 57.0497 103.261 56.058 104.253Z" fill="white"/>
<path d="M60.3486 31.3218C60.5425 31.4271 60.7364 31.5323 60.9362 31.6407C61.1281 31.7405 61.3201 31.8402 61.5178 31.943C61.7214 32.0572 61.9249 32.1713 62.1346 32.2889C62.3662 32.4185 62.5977 32.5481 62.8363 32.6816C63.0842 32.8215 63.3321 32.9614 63.5876 33.1055C63.8474 33.2516 64.1073 33.3977 64.375 33.5482C66.5939 34.7998 68.7955 36.08 70.9933 37.3682C72.4711 38.2341 73.9541 39.0911 75.4382 39.9463C75.6871 40.0899 75.936 40.2334 76.1924 40.3813C77.3977 41.076 78.6033 41.7701 79.8094 42.4632C80.3784 42.7903 80.9472 43.1177 81.5161 43.4451C81.9208 43.6779 82.3257 43.9102 82.7307 44.1426C82.9735 44.2824 83.2163 44.4221 83.4664 44.5661C83.6817 44.6898 83.897 44.8135 84.1188 44.9409C84.6081 45.2344 84.6081 45.2344 84.8424 45.4688C84.8726 45.8404 84.8866 46.2134 84.8943 46.5861C84.8997 46.8279 84.9051 47.0697 84.9107 47.3189C84.9153 47.5865 84.92 47.8541 84.9248 48.1298C84.9305 48.4099 84.9362 48.69 84.9421 48.9786C84.9917 51.5677 85.0213 54.1571 85.0439 56.7466C85.0594 58.4875 85.0815 60.2277 85.1205 61.9682C85.1546 63.4867 85.1762 65.0047 85.1828 66.5236C85.1867 67.3273 85.1966 68.1298 85.2213 68.9332C85.3545 73.8233 85.3545 73.8233 84.5038 74.9995C83.6914 75.7313 82.7968 76.1354 81.7687 76.4799C81.0826 76.7296 80.4842 77.1102 79.8647 77.4921C79.3904 77.7653 78.9158 78.0381 78.4411 78.3106C77.9098 78.6164 77.3785 78.9222 76.8471 79.228C76.5796 79.3818 76.312 79.5357 76.0363 79.6942C74.7522 80.4329 73.4693 81.1736 72.1862 81.9141C70.7619 82.736 69.3375 83.5577 67.9129 84.379C67.5026 84.6156 67.0923 84.8521 66.682 85.0887C66.1712 85.3833 65.6604 85.6778 65.1495 85.9722C64.915 86.1074 64.6806 86.2426 64.439 86.3819C64.2104 86.5124 63.9817 86.6429 63.7462 86.7774C63.2534 87.0659 62.7666 87.3648 62.2845 87.671C61.9135 87.903 61.9135 87.903 61.535 88.1397C61.3132 88.2826 61.0914 88.4255 60.8628 88.5727C60.2331 88.8282 60.2331 88.8282 59.6182 88.6645C59.4344 88.5638 59.2506 88.4632 59.0612 88.3594C58.8478 88.2524 58.8478 88.2524 58.6302 88.1431C58.4954 88.0683 58.3606 87.9934 58.2217 87.9163C57.9856 87.7855 57.9856 87.7855 57.7447 87.652C57.5749 87.5567 57.4051 87.4615 57.2301 87.3633C56.956 87.2102 56.956 87.2102 56.6763 87.0541C54.6705 85.9284 52.6871 84.7646 50.7024 83.6023C49.2051 82.7259 47.7031 81.8576 46.1999 80.9913C45.8249 80.7751 45.8249 80.7751 45.4424 80.5545C44.2523 79.8685 43.0619 79.1831 41.871 78.4985C41.4538 78.2587 41.0367 78.0187 40.6196 77.7786C40.0971 77.4779 39.5744 77.1775 39.0515 76.8774C38.6953 76.6723 38.6953 76.6723 38.3318 76.4631C38.1251 76.3443 37.9184 76.2255 37.7055 76.1031C37.4826 75.9712 37.2596 75.8392 37.0299 75.7032C36.8762 75.6376 36.7225 75.5721 36.5642 75.5045C36.0013 75.2316 35.5972 74.9763 35.1549 74.5313C34.8557 73.6223 34.8652 72.73 34.8603 71.7788C34.8517 71.5 34.8432 71.2213 34.8343 70.9341C34.8136 70.1707 34.8016 69.4079 34.795 68.6443C34.7906 68.166 34.7838 67.6879 34.7763 67.2097C34.7505 65.5376 34.736 63.8657 34.7303 62.1934C34.7246 60.6406 34.6925 59.0899 34.6484 57.5377C34.6116 56.2006 34.5951 54.8642 34.5935 53.5266C34.5922 52.7293 34.5828 51.9342 34.5525 51.1374C34.3965 46.3085 34.3965 46.3085 35.6624 44.907C36.8997 43.9296 38.2526 43.2725 39.7058 42.6773C40.4981 42.3431 41.2015 41.9286 41.9335 41.4789C42.3887 41.2168 42.844 40.955 43.2995 40.6934C43.8158 40.3962 44.3322 40.0989 44.8486 39.8017C45.1058 39.6537 45.3631 39.5058 45.6281 39.3533C46.9033 38.6195 48.1775 37.8839 49.4518 37.1485C50.8902 36.3185 52.3286 35.4886 53.7675 34.6594C54.3278 34.3364 54.8881 34.0134 55.4485 33.6904C55.8432 33.4628 56.238 33.2354 56.6328 33.008C56.9924 32.8007 56.9924 32.8007 57.3592 32.5892C57.5696 32.4679 57.78 32.3467 57.9967 32.2218C58.604 31.8813 58.604 31.8813 59.1822 31.4496C59.7643 31.1719 59.7643 31.1719 60.3486 31.3218ZM58.7188 40.1954C58.5 40.3243 58.2813 40.4532 58.0559 40.586C57.8172 40.7278 57.5786 40.8696 57.3327 41.0157C56.8235 41.3156 56.3142 41.6153 55.8047 41.9147C55.6712 41.9932 55.5377 42.0718 55.4002 42.1527C53.811 43.0862 52.2102 43.9994 50.6091 44.9122C50.3292 45.0718 50.0494 45.2314 49.7696 45.391C49.2587 45.6823 48.7478 45.9735 48.2368 46.2646C47.4695 46.7018 46.7028 47.1398 45.9362 47.5782C46.6229 48.1143 47.3284 48.5625 48.084 48.9954C48.3249 49.1339 48.5658 49.2723 48.814 49.415C49.0728 49.563 49.3316 49.7109 49.5983 49.8633C50.0064 50.0974 50.4146 50.3316 50.8227 50.5658C51.1052 50.7279 51.3877 50.8899 51.6703 51.0518C52.677 51.629 53.6811 52.2105 54.6841 52.7939C54.9614 52.955 55.2388 53.1161 55.5162 53.2771C56.0445 53.584 56.5726 53.8915 57.1003 54.1995C57.3404 54.3387 57.5806 54.4779 57.828 54.6213C58.0384 54.7438 58.2487 54.8662 58.4655 54.9924C58.6621 55.0981 58.8587 55.2037 59.0612 55.3126C59.2546 55.4165 59.4479 55.5205 59.6471 55.6276C60.2401 55.8422 60.2401 55.8422 60.8288 55.5676C61.0392 55.4402 61.2495 55.3129 61.4663 55.1816C61.7064 55.0394 61.9465 54.8972 62.1938 54.7507C62.4507 54.5929 62.7076 54.4351 62.9723 54.2725C63.2412 54.1116 63.5103 53.9511 63.7797 53.7911C64.3429 53.456 64.9049 53.119 65.4662 52.7807C66.8499 51.9493 68.2521 51.1502 69.652 50.3467C70.1486 50.0603 70.6451 49.7737 71.1416 49.4871C72.1135 48.9265 73.0865 48.3681 74.0612 47.8126C73.3698 47.2722 72.6584 46.8226 71.8969 46.3871C71.6536 46.2474 71.4103 46.1078 71.1596 45.9639C70.7686 45.7406 70.7686 45.7406 70.3698 45.5127C69.8206 45.1978 69.2717 44.8824 68.7228 44.567C68.583 44.4868 68.4432 44.4065 68.2991 44.3239C66.8322 43.4815 65.3706 42.6303 63.9098 41.7774C63.6753 41.6406 63.4408 41.5038 63.1992 41.3628C61.4668 40.3513 61.4668 40.3513 60.7776 39.9196C59.8803 39.4085 59.5602 39.6961 58.7188 40.1954ZM42.4206 54.1407C42.4206 59.4774 42.4206 64.8141 42.4206 70.3126C45.437 72.0528 45.437 72.0528 48.5143 73.8282C49.7547 74.5539 50.9945 75.2801 52.2314 76.0117C52.4501 76.1401 52.6688 76.2685 52.8942 76.4008C53.0788 76.5098 53.2634 76.6187 53.4536 76.731C54.4468 77.2791 55.4685 77.774 56.4831 78.2813C56.4831 72.9446 56.4831 67.6079 56.4831 62.1094C54.4721 60.9493 52.4612 59.7891 50.3893 58.5938C49.7748 58.2376 49.1603 57.8814 48.5271 57.5144C48.2803 57.3713 48.0335 57.2283 47.7792 57.0809C47.2955 56.8005 46.8121 56.5197 46.329 56.2386C46.0876 56.0989 45.8462 55.9591 45.5975 55.8152C45.3908 55.6952 45.1841 55.5752 44.9711 55.4515C44.1345 54.9892 43.2756 54.5682 42.4206 54.1407ZM76.1779 54.7761C75.9347 54.9121 75.6915 55.0481 75.4409 55.1883C75.179 55.3356 74.917 55.483 74.6471 55.6348C74.3804 55.7846 74.1136 55.9344 73.8387 56.0887C71.378 57.455 71.378 57.455 68.9696 58.9102C68.1439 59.4255 67.3882 59.8212 66.4528 60.0977C65.2247 60.5189 64.2449 61.0008 63.5143 62.1094C62.8608 64.5685 63.1218 67.2497 63.2407 69.767C63.2817 70.7267 63.2997 71.6868 63.3198 72.6471C63.3623 74.5263 63.4302 76.4035 63.5143 78.2813C64.041 78.0196 64.5675 77.7576 65.0938 77.4953C65.2421 77.4217 65.3905 77.348 65.5433 77.2721C66.5927 76.7488 67.6103 76.1947 68.612 75.586C68.9432 75.3879 69.2747 75.1902 69.6062 74.9927C69.7877 74.8846 69.9692 74.7764 70.1562 74.665C71.5782 73.8259 73.0122 73.0074 74.444 72.1853C74.8335 71.9616 75.2228 71.7377 75.6121 71.5137C75.8384 71.3838 76.0646 71.2539 76.2977 71.12C76.7323 70.8644 77.1573 70.5922 77.5768 70.3126C77.6801 69.6114 77.6801 69.6114 77.6566 68.7748C77.6568 68.617 77.6569 68.4592 77.657 68.2966C77.6565 67.7741 77.651 67.2517 77.6455 66.7292C77.6442 66.3673 77.6432 66.0054 77.6425 65.6435C77.6398 64.6902 77.6329 63.737 77.6251 62.7837C77.6179 61.8113 77.6147 60.8388 77.6112 59.8664C77.6036 57.9578 77.5916 56.0492 77.5768 54.1407C77.088 54.1407 76.5872 54.5469 76.1779 54.7761Z" fill="white"/>
</g>
<defs>
<clipPath id="clip0_151_173">
<rect width="120" height="120" fill="white" transform="translate(-0.00134277)"/>
</clipPath>
</defs>
</svg>
