<svg width="120" height="120" viewBox="0 0 120 120" fill="none" xmlns="http://www.w3.org/2000/svg">
<path d="M39.7757 24.5526C40.2901 24.9414 40.7692 25.3504 41.2487 25.7813C41.4403 25.9399 41.6318 26.0985 41.8292 26.2619C45.527 29.4067 47.9026 34.0954 48.5144 38.9063C48.5207 39.2732 48.5224 39.6403 48.5203 40.0073C48.5194 40.1964 48.5186 40.3855 48.5177 40.5803C48.516 40.7958 48.516 40.7958 48.5144 41.0156C48.68 41.0148 48.8456 41.0139 49.0162 41.013C53.0458 40.9923 57.0753 40.9768 61.105 40.9671C63.0536 40.9622 65.0023 40.9556 66.951 40.9449C68.6494 40.9356 70.3478 40.9295 72.0463 40.9274C72.9457 40.9262 73.845 40.9233 74.7443 40.9165C75.5909 40.9101 76.4375 40.9082 77.2841 40.9096C77.7427 40.9092 78.2012 40.9042 78.6597 40.899C79.0704 40.9009 79.0704 40.9009 79.4893 40.9029C79.8455 40.9016 79.8455 40.9016 80.2088 40.9003C81.0487 41.0495 81.4406 41.3438 82.03 41.9531C82.3747 43.2423 81.9356 44.7208 81.5923 45.9793C81.5458 46.158 81.4993 46.3366 81.4514 46.5207C81.3512 46.9046 81.2499 47.2882 81.1476 47.6716C80.9856 48.2789 80.8271 48.8871 80.6695 49.4956C80.2211 51.2241 79.7663 52.9508 79.3098 54.6772C79.03 55.7365 78.754 56.7967 78.4801 57.8575C78.3753 58.2604 78.2689 58.6629 78.161 59.0649C78.0103 59.6265 77.8645 60.1892 77.7196 60.7523C77.6741 60.917 77.6285 61.0818 77.5816 61.2516C77.2255 62.6714 77.568 63.4885 78.1921 64.7607C78.8947 66.6308 78.8305 69.2564 78.1482 71.1328C77.5388 72.39 76.7197 73.817 75.5048 74.5611C74.1911 75.3817 73.781 76.1381 73.4143 77.6251C73.361 77.8712 73.3077 78.1174 73.2528 78.371C73.1906 78.6269 73.1284 78.8828 73.0644 79.1464C72.8673 79.9601 72.6799 80.7755 72.4939 81.5918C72.3044 82.4094 72.1128 83.2263 71.9158 84.0422C71.7938 84.5487 71.6762 85.0563 71.5636 85.565C71.3365 86.5171 71.1363 87.2536 70.5589 88.0507C69.4037 88.5484 68.2815 88.4434 67.0401 88.4033C66.4735 88.3976 65.9069 88.3924 65.3404 88.3878C64.4525 88.3757 63.5654 88.3596 62.6779 88.3329C59.182 88.237 56.5704 88.2128 53.9273 90.6963C53.8063 90.8166 53.6854 90.937 53.5608 91.061C53.0129 91.588 52.4119 92.0164 51.7956 92.4609C51.6119 92.5987 51.4282 92.7365 51.239 92.8784C50.7155 93.2212 50.2073 93.4991 49.6478 93.7752C49.3951 93.9002 49.3951 93.9002 49.1373 94.0278C49.0091 94.0908 48.8808 94.1538 48.7487 94.2188C48.7484 94.4922 48.7481 94.7656 48.7477 95.0473C48.7438 97.6234 48.7338 100.199 48.7178 102.776C48.7097 104.1 48.7039 105.424 48.7029 106.749C48.7019 108.027 48.6952 109.305 48.6847 110.583C48.6816 111.071 48.6806 111.558 48.6817 112.046C48.6828 112.729 48.6767 113.412 48.6689 114.095C48.6709 114.296 48.673 114.498 48.675 114.706C48.6715 114.893 48.6679 115.08 48.6642 115.273C48.6635 115.434 48.6629 115.595 48.6622 115.762C48.4193 116.564 47.998 116.915 47.3425 117.422C46.6893 117.537 46.1794 117.58 45.5278 117.569C45.3467 117.571 45.1656 117.572 44.9791 117.574C44.3732 117.578 43.7676 117.574 43.1617 117.57C42.727 117.571 42.2924 117.573 41.8577 117.575C40.6776 117.579 39.4976 117.576 38.3174 117.572C37.0827 117.568 35.848 117.57 34.6133 117.571C32.5398 117.572 30.4663 117.568 28.3928 117.562C25.9952 117.554 23.5976 117.554 21.2 117.558C18.894 117.562 16.588 117.56 14.282 117.556C13.3005 117.555 12.3189 117.555 11.3373 117.557C10.1815 117.559 9.02577 117.556 7.86998 117.549C7.44566 117.548 7.02134 117.548 6.59703 117.549C6.01802 117.551 5.43932 117.548 4.86034 117.543C4.69219 117.544 4.52405 117.546 4.35081 117.548C3.53369 117.535 3.06403 117.433 2.36091 117.004C1.48634 116.071 1.60974 115.203 1.60803 113.959C1.6075 113.799 1.60697 113.64 1.60642 113.475C1.60494 112.941 1.60513 112.406 1.60532 111.871C1.60462 111.488 1.60382 111.104 1.60294 110.721C1.60086 109.678 1.60032 108.635 1.60017 107.592C1.6 106.939 1.5995 106.286 1.59888 105.633C1.59671 103.351 1.59575 101.068 1.59594 98.7849C1.59608 96.6655 1.59362 94.5461 1.5899 92.4267C1.58682 90.602 1.58558 88.7772 1.58573 86.9525C1.58579 85.8651 1.58515 84.7778 1.58264 83.6904C1.58035 82.6643 1.58037 81.6382 1.58206 80.612C1.5823 80.2389 1.58177 79.8657 1.58034 79.4926C1.57334 77.5444 1.63826 75.6245 1.84617 73.6863C1.8641 73.5162 1.88202 73.3462 1.90049 73.1709C2.43135 68.6782 4.92985 64.4683 8.3923 61.582C10.8877 59.7066 13.4619 58.6082 16.405 57.6563C16.2603 57.5312 16.1156 57.4061 15.9665 57.2772C11.4164 53.2743 8.70299 48.6686 8.24581 42.5537C7.96116 37.4609 9.48172 32.2839 12.8909 28.4184C15.3245 25.758 17.9791 23.6977 21.3708 22.4121C21.5181 22.3562 21.6654 22.3003 21.8171 22.2427C27.7517 20.12 34.5372 21.1608 39.7757 24.5526ZM16.1267 30.7617C13.2349 34.1675 11.9209 38.4091 12.2344 42.8532C12.6748 47.3356 14.9384 51.2475 18.3743 54.147C22.4001 57.1289 26.8639 57.8912 31.7465 57.3285C35.1443 56.6127 37.948 54.7329 40.3112 52.2656C40.4551 52.1182 40.5989 51.9708 40.747 51.8189C43.7384 48.55 44.7558 44.24 44.572 39.9086C44.3005 36.4595 42.8194 33.2816 40.5456 30.7031C40.3918 30.5273 40.2381 30.3515 40.0796 30.1703C37.4834 27.3889 33.7113 25.4131 29.8687 25.2567C24.4166 25.142 19.9433 26.7111 16.1267 30.7617ZM48.28 45C48.048 45.6961 47.8159 46.3922 47.5769 47.1094C45.853 52.0979 42.8782 56.4295 38.0957 58.8886C37.976 58.946 37.8564 59.0034 37.7331 59.0625C38.4192 59.5954 39.1285 60.0494 39.8718 60.4981C43.8976 63.055 46.4762 66.6952 47.8112 71.25C48.6945 70.9351 49.3635 70.5397 50.1083 69.9728C51.1775 69.179 52.2639 68.4227 53.3731 67.6859C53.5337 67.5791 53.6942 67.4724 53.8597 67.3625C54.3579 67.0319 54.8565 66.7019 55.3552 66.3721C57.3627 65.0426 59.367 63.7092 61.3528 62.3474C61.5078 62.2413 61.6629 62.1353 61.8226 62.026C62.5928 61.4958 63.3424 60.9532 64.071 60.3662C66.1358 58.8209 68.2415 58.5604 70.78 58.8281C71.8257 59.0742 72.8188 59.3984 73.8269 59.7656C74.6548 56.8367 75.4361 53.8977 76.1886 50.9485C76.3642 50.261 76.5409 49.5737 76.7176 48.8864C76.8299 48.4479 76.942 48.0094 77.0541 47.5708C77.1068 47.366 77.1595 47.1612 77.2139 46.9502C77.4783 45.9875 77.4783 45.9875 77.5769 45C67.9089 45 58.2409 45 48.28 45ZM13.7829 62.9297C13.6287 63.0096 13.4745 63.0896 13.3156 63.172C9.83353 65.0723 7.4189 68.2441 6.15933 71.9815C5.49244 74.4008 5.59092 76.9468 5.59713 79.4331C5.59721 79.8112 5.59717 80.1893 5.59705 80.5674C5.597 81.5739 5.59835 82.5804 5.60001 83.5869C5.60135 84.5336 5.6014 85.4804 5.60157 86.4271C5.6028 89.1903 5.60607 91.9536 5.60909 94.7168C5.61393 100.895 5.61876 107.072 5.62374 113.438C18.4628 113.438 31.3019 113.438 44.53 113.438C44.53 107.559 44.53 101.681 44.53 95.625C43.6792 95.7023 42.8284 95.7797 41.9519 95.8594C36.3201 96.1638 31.8024 94.273 26.9079 91.7139C26.5466 91.5261 26.1853 91.3384 25.824 91.1507C24.9494 90.6955 24.0762 90.2378 23.2037 89.7787C22.772 89.5517 22.3398 89.3256 21.9075 89.0997C21.2385 88.7489 20.5717 88.3943 19.906 88.0371C19.7181 87.9384 19.5303 87.8397 19.3368 87.738C18.4652 87.262 17.9322 86.9527 17.5769 86.0156C17.6204 85.3042 17.708 84.7916 18.0603 84.1699C18.8321 83.7218 19.5377 83.7524 20.3894 83.9063C21.5113 84.3636 22.5645 84.9388 23.6267 85.5176C23.9305 85.6795 24.2346 85.841 24.5388 86.0022C25.1432 86.3232 25.7465 86.646 26.3488 86.971C27.4583 87.5694 28.5746 88.1549 29.6911 88.7402C30.0418 88.9245 30.3925 89.1088 30.7431 89.2932C30.8985 89.3749 31.054 89.4567 31.2142 89.5409C31.5851 89.7369 31.9543 89.936 32.3233 90.1355C36.6093 92.3978 41.0319 92.6015 45.6277 91.2167C48.9535 90.0195 51.7628 87.3915 54.5276 85.265C55.1757 84.7679 55.8283 84.2774 56.4831 83.7891C57.5312 83.0064 58.5715 82.214 59.6107 81.4196C61.4226 80.0346 63.2411 78.6611 65.0817 77.3145C67.0807 75.851 69.0413 74.3417 70.9876 72.809C71.341 72.533 71.6964 72.2596 72.0532 71.988C72.3352 71.7727 72.3352 71.7727 72.6229 71.553C72.794 71.4235 72.9651 71.2939 73.1414 71.1605C74.0368 70.4077 74.4338 69.6933 74.6334 68.5465C74.7489 66.8006 74.2608 65.5407 73.1237 64.2188C71.6889 63.0182 70.4516 62.4869 68.5818 62.514C67.1954 62.6587 66.2336 63.3601 65.2283 64.2827C64.2542 65.146 63.2243 65.8673 62.1365 66.579C61.9402 66.709 61.744 66.8391 61.5418 66.9731C61.1228 67.2505 60.7035 67.5273 60.2837 67.8036C59.6234 68.2384 58.9643 68.6751 58.3056 69.1123C57.4164 69.7024 56.527 70.2921 55.6373 70.8814C49.5102 74.8945 49.5102 74.8945 43.7291 79.38C40.8888 81.7341 40.8888 81.7341 39.6374 81.8701C38.905 81.7969 38.905 81.7969 38.3484 81.4307C37.8152 80.631 37.8186 80.1619 37.9675 79.2188C38.7365 78.3642 39.6026 77.6366 40.487 76.9043C40.6086 76.8029 40.7301 76.7015 40.8554 76.597C41.7669 75.841 42.7062 75.133 43.6758 74.4534C44.1857 73.9363 44.2499 73.6114 44.2956 72.8906C43.5446 69.086 41.0936 65.9162 37.9675 63.75C34.7603 61.8714 31.7646 61.3745 28.1073 61.3586C27.7419 61.3566 27.7419 61.3566 27.3691 61.3546C26.8558 61.3524 26.3425 61.3509 25.8292 61.3499C25.0547 61.3477 24.2803 61.3404 23.5058 61.333C20.1606 61.3159 16.8144 61.3169 13.7829 62.9297ZM68.4362 79.6875C66.927 80.8133 65.4218 81.9443 63.9245 83.0859C63.7232 83.2382 63.7232 83.2382 63.5179 83.3934C63.1998 83.6369 62.8877 83.888 62.5769 84.1406C62.5769 84.218 62.5769 84.2953 62.5769 84.375C64.2011 84.375 65.8253 84.375 67.4987 84.375C68.4567 82.0731 68.4567 82.0732 68.4362 79.6875Z" fill="white"/>
<path d="M87.0312 42.8577C87.2908 42.8564 87.5504 42.8551 87.8179 42.8537C88.1028 42.8534 88.3877 42.8532 88.6812 42.8529C88.9812 42.8517 89.2812 42.8506 89.5902 42.8494C90.4135 42.8463 91.2367 42.8448 92.0599 42.8437C92.5743 42.843 93.0887 42.8421 93.603 42.841C95.2125 42.8378 96.8219 42.8356 98.4313 42.8347C100.289 42.8336 102.147 42.8295 104.004 42.8227C105.44 42.8176 106.877 42.8153 108.313 42.815C109.17 42.8147 110.028 42.8133 110.886 42.8091C111.842 42.8046 112.799 42.8056 113.756 42.8071C114.04 42.805 114.324 42.8028 114.616 42.8006C114.877 42.8019 115.138 42.8032 115.407 42.8045C115.633 42.8042 115.859 42.8038 116.092 42.8035C116.839 42.9076 117.282 43.1539 117.889 43.5938C118.193 44.2011 118.155 44.6423 118.158 45.3227C118.161 45.7239 118.161 45.7239 118.163 46.1333C118.164 46.4282 118.165 46.7231 118.165 47.0269C118.167 47.3395 118.168 47.6521 118.17 47.9646C118.174 48.815 118.177 49.6653 118.178 50.5157C118.18 51.0467 118.181 51.5778 118.183 52.1088C118.187 53.7697 118.19 55.4305 118.192 57.0914C118.195 59.0099 118.201 60.9282 118.21 62.8467C118.217 64.3288 118.221 65.8108 118.222 67.293C118.222 68.1785 118.224 69.0641 118.23 69.9496C118.236 70.7826 118.237 71.6155 118.234 72.4485C118.234 72.9001 118.238 73.3517 118.243 73.8033C118.241 74.2065 118.241 74.2065 118.238 74.6178C118.239 74.8514 118.239 75.085 118.24 75.3257C118.092 76.1067 117.793 76.3792 117.186 76.875C116.588 77.1744 116.165 77.1403 115.495 77.1423C115.235 77.1437 114.976 77.145 114.709 77.1464C114.28 77.1468 114.28 77.1468 113.843 77.1472C113.543 77.1483 113.243 77.1495 112.934 77.1507C112.11 77.1538 111.286 77.1553 110.461 77.1563C109.947 77.157 109.432 77.158 108.917 77.159C107.306 77.1622 105.695 77.1645 104.085 77.1654C102.225 77.1664 100.365 77.1706 98.5058 77.1773C97.0687 77.1824 95.6316 77.1848 94.1945 77.1851C93.336 77.1853 92.4776 77.1867 91.6191 77.1909C90.6613 77.1955 89.7035 77.1945 88.7456 77.1929C88.4613 77.1951 88.1769 77.1973 87.884 77.1995C87.6227 77.1982 87.3615 77.1969 87.0923 77.1955C86.8659 77.1959 86.6394 77.1962 86.4061 77.1966C85.6529 77.0917 85.2193 76.8534 84.6082 76.4063C84.0825 75.6178 84.0799 75.3564 84.0768 74.4342C84.0748 74.1707 84.0728 73.9071 84.0707 73.6356C84.0709 73.3463 84.0711 73.057 84.0713 72.7589C84.0698 72.4544 84.0682 72.1498 84.0666 71.8361C84.0624 71.0003 84.0613 70.1645 84.061 69.3286C84.0606 68.6309 84.0589 67.9331 84.0572 67.2353C84.0534 65.589 84.0522 63.9426 84.0526 62.2963C84.0529 60.5981 84.0479 58.9001 84.0405 57.202C84.0344 55.7439 84.0319 54.2859 84.0322 52.8279C84.0323 51.9571 84.0309 51.0864 84.026 50.2156C84.0206 49.2443 84.0227 48.2731 84.0256 47.3018C84.0229 47.0134 84.0203 46.7251 84.0176 46.428C84.0195 46.1631 84.0215 45.8983 84.0235 45.6254C84.0232 45.281 84.0232 45.281 84.0228 44.9296C84.1739 44.1101 84.4998 43.716 85.0769 43.125C85.7935 42.8862 86.2809 42.8601 87.0312 42.8577ZM88.1238 46.875C88.1238 55.5375 88.1238 64.2 88.1238 73.125C96.7863 73.125 105.449 73.125 114.374 73.125C114.374 64.4625 114.374 55.8 114.374 46.875C105.711 46.875 97.0488 46.875 88.1238 46.875Z" fill="white"/>
<path d="M86.5716 83.403C86.8391 83.4013 87.1066 83.3997 87.3822 83.3979C87.6771 83.3973 87.972 83.3967 88.2758 83.396C88.5884 83.3945 88.901 83.393 89.2136 83.3913C90.0639 83.3873 90.9142 83.3848 91.7646 83.3829C92.2956 83.3817 92.8267 83.3802 93.3577 83.3788C95.0186 83.3743 96.6795 83.371 98.3403 83.369C100.259 83.3667 102.177 83.3605 104.096 83.3511C105.578 83.344 107.06 83.3405 108.542 83.3398C109.427 83.3392 110.313 83.3371 111.199 83.3312C112.032 83.3258 112.864 83.3248 113.697 83.3272C114.149 83.3273 114.601 83.3229 115.052 83.3183C115.321 83.3199 115.59 83.3215 115.867 83.3232C116.1 83.3226 116.334 83.3221 116.575 83.3215C117.377 83.4736 117.648 83.7169 118.124 84.375C118.243 84.9892 118.243 84.9892 118.245 85.7004C118.248 85.9705 118.251 86.2406 118.254 86.5189C118.252 86.8143 118.251 87.1097 118.249 87.4141C118.251 87.7291 118.253 88.044 118.255 88.359C118.26 89.2137 118.26 90.0683 118.258 90.923C118.256 91.6365 118.258 92.35 118.26 93.0636C118.264 94.7467 118.263 96.4297 118.259 98.1128C118.255 99.8495 118.259 101.586 118.266 103.323C118.273 104.814 118.274 106.305 118.272 107.796C118.271 108.686 118.272 109.577 118.276 110.467C118.281 111.305 118.279 112.142 118.274 112.979C118.272 113.433 118.276 113.887 118.28 114.34C118.277 114.611 118.274 114.881 118.271 115.159C118.271 115.394 118.271 115.628 118.271 115.87C118.124 116.484 118.124 116.484 117.612 117.029C116.871 117.47 116.479 117.539 115.625 117.538C115.361 117.54 115.096 117.542 114.824 117.544C114.392 117.54 114.392 117.54 113.951 117.536C113.646 117.537 113.341 117.538 113.027 117.538C112.192 117.541 111.357 117.537 110.522 117.532C109.648 117.528 108.774 117.529 107.9 117.529C106.432 117.529 104.965 117.525 103.497 117.518C101.8 117.511 100.104 117.509 98.4074 117.509C96.6005 117.509 94.7936 117.506 92.9867 117.502C92.4663 117.501 91.9459 117.5 91.4254 117.5C90.4558 117.5 89.4862 117.495 88.5166 117.49C88.2282 117.49 87.9397 117.49 87.6425 117.491C87.3787 117.489 87.1148 117.487 86.843 117.485C86.4991 117.483 86.4991 117.483 86.1484 117.482C85.5059 117.418 85.1381 117.32 84.6083 116.953C84.1042 116.225 84.0803 115.598 84.0785 114.727C84.0768 114.465 84.0751 114.204 84.0734 113.934C84.074 113.648 84.0746 113.361 84.0752 113.066C84.074 112.764 84.0728 112.462 84.0716 112.15C84.0684 111.322 84.0683 110.493 84.0689 109.665C84.0691 108.973 84.068 108.281 84.0669 107.589C84.0643 105.956 84.0642 104.324 84.0656 102.691C84.067 101.008 84.0641 99.324 84.0591 97.6404C84.055 96.1943 84.0536 94.7482 84.0543 93.3021C84.0548 92.4387 84.0542 91.5753 84.0509 90.7119C84.0474 89.749 84.0496 88.7863 84.0523 87.8234C84.0505 87.5376 84.0487 87.2518 84.0469 86.9573C84.0485 86.6948 84.0502 86.4323 84.0519 86.1618C84.0518 85.9342 84.0518 85.7066 84.0517 85.4722C84.1563 84.7237 84.4018 84.2806 84.8427 83.6719C85.45 83.3682 85.8912 83.4059 86.5716 83.403ZM88.1239 87.4219C88.1239 96.007 88.1239 104.592 88.1239 113.437C96.7864 113.437 105.449 113.437 114.374 113.437C114.374 104.852 114.374 96.2672 114.374 87.4219C105.711 87.4219 97.0489 87.4219 88.1239 87.4219Z" fill="white"/>
<path d="M86.8422 2.51547C87.1061 2.51347 87.3699 2.51147 87.6418 2.50941C87.9302 2.50963 88.2187 2.50984 88.5159 2.51006C88.8205 2.50848 89.125 2.50691 89.4388 2.50529C90.2737 2.50115 91.1085 2.50005 91.9434 2.49975C92.4651 2.49941 92.9868 2.49841 93.5085 2.49717C95.3288 2.49284 97.1492 2.49092 98.9696 2.49129C100.666 2.49157 102.362 2.48662 104.059 2.47922C105.516 2.47309 106.973 2.47058 108.43 2.47088C109.3 2.471 110.17 2.46966 111.04 2.4647C112.01 2.45932 112.98 2.46145 113.95 2.46428C114.238 2.46165 114.526 2.45901 114.823 2.4563C115.22 2.45925 115.22 2.45925 115.624 2.46226C115.968 2.46187 115.968 2.46187 116.319 2.46148C117.157 2.61613 117.542 2.89757 118.123 3.51565C118.27 4.12985 118.27 4.12985 118.27 4.84108C118.273 5.11118 118.276 5.38129 118.279 5.65958C118.277 5.95499 118.274 6.25039 118.271 6.55474C118.272 6.86971 118.274 7.18467 118.276 7.49963C118.281 8.35436 118.277 9.20892 118.273 10.0637C118.269 10.9581 118.271 11.8526 118.272 12.7471C118.273 14.2493 118.27 15.7513 118.263 17.2535C118.256 18.9901 118.256 20.7266 118.26 22.4633C118.263 24.1339 118.262 25.8045 118.258 27.4752C118.256 28.1861 118.256 28.8971 118.258 29.608C118.26 30.4453 118.257 31.2824 118.251 32.1197C118.248 32.5735 118.25 33.0273 118.253 33.4811C118.248 33.8863 118.248 33.8863 118.244 34.2996C118.243 34.5343 118.242 34.769 118.242 35.0108C118.087 35.8132 117.844 36.0861 117.186 36.5625C116.575 36.6798 116.575 36.6798 115.869 36.68C115.601 36.6823 115.333 36.6846 115.057 36.687C114.763 36.6847 114.47 36.6824 114.168 36.6801C113.855 36.681 113.543 36.6823 113.23 36.684C112.382 36.6872 111.533 36.6846 110.685 36.6807C109.797 36.6775 108.909 36.679 108.021 36.6798C106.53 36.6805 105.039 36.6773 103.548 36.6719C101.824 36.6656 100.1 36.6652 98.3765 36.668C96.7182 36.6705 95.0598 36.6691 93.4014 36.6657C92.6957 36.6644 91.99 36.6644 91.2843 36.6655C90.4532 36.6666 89.6222 36.6643 88.7911 36.6592C88.3407 36.6573 87.8902 36.6588 87.4397 36.6604C87.1716 36.6581 86.9035 36.6558 86.6272 36.6534C86.3942 36.6528 86.1613 36.6522 85.9212 36.6517C85.2062 36.5473 84.8883 36.36 84.3732 35.8594C84.1332 35.1394 84.1088 34.6488 84.1075 33.8946C84.1065 33.6327 84.1055 33.3708 84.1044 33.101C84.1045 32.8135 84.1047 32.526 84.1048 32.2299C84.104 31.9272 84.1032 31.6246 84.1024 31.3128C84.1003 30.4823 84.0998 29.6518 84.0996 28.8213C84.0994 28.1282 84.0985 27.4351 84.0977 26.742C84.0958 25.1069 84.0952 23.4718 84.0954 21.8367C84.0955 20.1495 84.093 18.4623 84.0893 16.7751C84.0863 15.3268 84.085 13.8785 84.0852 12.4303C84.0852 11.5652 84.0846 10.7001 84.0821 9.83494C84.0794 8.87033 84.0805 7.90576 84.0819 6.94115C84.0806 6.65415 84.0792 6.36714 84.0779 6.07144C84.0789 5.80888 84.0798 5.54633 84.0809 5.27581C84.0807 5.04772 84.0806 4.81962 84.0805 4.58462C84.1429 3.94227 84.2404 3.5764 84.6076 3.0469C85.3374 2.541 85.9688 2.51847 86.8422 2.51547ZM88.1232 6.56253C88.1232 15.1477 88.1232 23.7328 88.1232 32.5782C96.7857 32.5782 105.448 32.5782 114.373 32.5782C114.373 23.993 114.373 15.4078 114.373 6.56253C105.711 6.56253 97.0482 6.56253 88.1232 6.56253Z" fill="white"/>
<path d="M109.218 53.2031C110.056 53.7916 110.339 54.1506 110.565 55.1514C110.172 57.0833 108.067 58.6075 106.708 59.9625C106.519 60.1517 106.33 60.341 106.135 60.536C105.739 60.9324 105.343 61.3284 104.946 61.7242C104.337 62.3322 103.729 62.9415 103.121 63.5509C102.735 63.9368 102.348 64.3227 101.962 64.7085C101.78 64.8911 101.598 65.0737 101.41 65.2619C101.158 65.5132 101.158 65.5132 100.9 65.7696C100.752 65.9175 100.604 66.0653 100.452 66.2177C99.9144 66.7123 99.6101 66.7966 98.876 66.9141C97.9181 66.7905 97.7694 66.7061 97.0962 66.0892C96.933 65.9402 96.7698 65.7912 96.6017 65.6377C95.7669 64.848 94.9428 64.0495 94.1299 63.2373C93.9634 63.0737 93.7969 62.9101 93.6254 62.7415C93.4662 62.5828 93.307 62.424 93.1429 62.2604C93.0002 62.1187 92.8575 61.9769 92.7105 61.8309C92.0541 61.0729 91.8646 60.6482 91.9179 59.6338C92.1823 58.5156 92.1823 58.5156 92.8115 58.125C93.6297 57.8704 94.0631 57.8306 94.8669 58.1424C95.8035 58.7007 96.4852 59.3779 97.2353 60.1611C97.3743 60.3033 97.5133 60.4454 97.6565 60.5919C97.9962 60.9399 98.3338 61.29 98.6709 61.6406C99.7968 60.7029 100.854 59.7213 101.883 58.678C102.024 58.5354 102.166 58.3928 102.312 58.246C102.759 57.7961 103.205 57.3454 103.651 56.8945C104.243 56.2969 104.835 55.7001 105.427 55.1037C105.562 54.967 105.697 54.8303 105.836 54.6895C106.958 53.5603 107.578 53.0052 109.218 53.2031Z" fill="white"/>
<path d="M109.452 12.8906C110.038 13.2422 110.038 13.2422 110.389 13.8281C110.57 14.6324 110.62 14.9429 110.389 15.7031C108.832 17.8659 106.647 19.7229 104.768 21.6025C104.218 22.1525 103.671 22.7043 103.123 23.2562C102.773 23.6073 102.422 23.9582 102.072 24.3091C101.909 24.4736 101.746 24.6381 101.578 24.8076C101.426 24.9596 101.273 25.1115 101.116 25.2681C100.982 25.4015 100.849 25.535 100.712 25.6725C99.9917 26.2889 99.5379 26.487 98.5812 26.4717C97.5843 26.2111 97.0478 25.7652 96.3506 25.0461C96.2286 24.9249 96.1066 24.8037 95.981 24.6788C95.7252 24.423 95.4712 24.1655 95.2189 23.9063C94.8333 23.5114 94.4413 23.1239 94.048 22.7366C93.7995 22.4863 93.5514 22.2357 93.3037 21.9845C93.187 21.8695 93.0703 21.7544 92.9501 21.6359C92.209 20.8641 91.913 20.2915 91.8737 19.2187C92.2496 18.3916 92.5162 18.0872 93.2799 17.5781C93.9098 17.4463 93.9098 17.4463 94.6862 17.5781C95.3846 18.0496 95.965 18.6258 96.5612 19.2187C96.7554 19.4097 96.9497 19.6006 97.1498 19.7973C97.6605 20.304 98.1671 20.8142 98.6705 21.3281C99.8164 20.3677 100.892 19.3701 101.942 18.3059C102.089 18.1576 102.237 18.0093 102.388 17.8565C102.854 17.3883 103.318 16.9193 103.783 16.4502C104.399 15.8279 105.016 15.2063 105.633 14.5852C105.774 14.4422 105.915 14.2991 106.061 14.1518C107.169 13.037 107.857 12.6731 109.452 12.8906Z" fill="white"/>
<path d="M109.452 93.75C110.008 94.1162 110.008 94.1162 110.389 94.6875C110.544 95.4633 110.592 95.8185 110.389 96.5625C109.749 97.4908 108.957 98.2644 108.156 99.0528C107.925 99.2863 107.693 99.5201 107.462 99.7541C106.977 100.243 106.49 100.727 105.999 101.21C105.373 101.827 104.756 102.453 104.141 103.081C103.665 103.565 103.185 104.045 102.702 104.523C102.473 104.751 102.245 104.982 102.019 105.213C100.033 107.24 100.033 107.24 98.7199 107.323C97.6736 107.196 97.0137 106.687 96.3048 105.937C96.1835 105.816 96.0622 105.695 95.9372 105.57C95.6834 105.315 95.4322 105.057 95.1835 104.796C94.8038 104.4 94.4156 104.014 94.0251 103.628C93.7786 103.378 93.5326 103.127 93.2872 102.875C93.172 102.761 93.0568 102.646 92.9381 102.528C92.1361 101.675 91.91 101.006 91.8737 99.8438C92.189 99.1529 92.3625 98.7791 93.0455 98.4375C94.0307 98.2833 94.593 98.2087 95.425 98.79C95.9459 99.2784 96.4315 99.785 96.9127 100.313C97.0831 100.491 97.2535 100.67 97.4291 100.855C97.8475 101.295 98.2608 101.739 98.6705 102.188C99.8348 101.213 100.922 100.197 101.985 99.1141C102.297 98.7993 102.608 98.4845 102.92 98.1697C103.406 97.6784 103.891 97.1868 104.375 96.6945C104.847 96.2159 105.32 95.7386 105.793 95.2616C105.938 95.1134 106.083 94.9652 106.233 94.8125C106.368 94.6763 106.504 94.5401 106.643 94.3998C106.762 94.2796 106.88 94.1595 107.002 94.0357C107.798 93.3677 108.509 93.4998 109.452 93.75Z" fill="white"/>
<path d="M53.2071 51.056C53.5036 51.0537 53.8001 51.0515 54.1056 51.0492C54.4308 51.048 54.7561 51.047 55.0814 51.0462C55.4142 51.0448 55.747 51.0435 56.0798 51.0421C56.7783 51.0396 57.4768 51.0383 58.1752 51.0375C59.0689 51.0362 59.9626 51.0305 60.8563 51.0239C61.5442 51.0195 62.232 51.0183 62.9199 51.0179C63.2493 51.0172 63.5786 51.0153 63.908 51.0123C64.3697 51.0082 64.8313 51.0091 65.293 51.0102C65.6867 51.0089 65.6867 51.0089 66.0883 51.0076C66.8853 51.1047 67.3226 51.3274 67.9674 51.7969C68.4194 52.3927 68.4383 52.6836 68.4069 53.4375C68.1648 54.2675 67.9409 54.5474 67.2643 55.0781C66.5633 55.1988 66.5633 55.1988 65.735 55.2032C65.5835 55.2052 65.4321 55.2072 65.2761 55.2093C64.7769 55.2146 64.2781 55.213 63.7789 55.2109C63.4309 55.2121 63.083 55.2136 62.7351 55.2153C62.0063 55.2177 61.2776 55.2167 60.5488 55.2132C59.6161 55.2092 58.6838 55.2147 57.7511 55.223C57.0327 55.2281 56.3143 55.2278 55.5959 55.2258C55.2521 55.2256 54.9083 55.2272 54.5646 55.2307C54.0831 55.2348 53.6022 55.2314 53.1208 55.2261C52.7105 55.2257 52.7105 55.2257 52.2919 55.2254C51.3371 55.033 50.9858 54.6615 50.3893 53.9063C50.2574 53.0713 50.2574 53.0713 50.3893 52.2656C51.2462 51.1802 51.8676 51.0642 53.2071 51.056Z" fill="white"/>
<path d="M45.8498 57.9808C46.0039 57.9795 46.158 57.9782 46.3167 57.9769C46.8247 57.9741 47.3322 57.9798 47.8402 57.9859C48.1939 57.9863 48.5477 57.9862 48.9014 57.9858C49.6422 57.9862 50.3829 57.9906 51.1237 57.998C52.0727 58.0073 53.0214 58.0083 53.9704 58.0066C54.7007 58.0058 55.4309 58.0087 56.1612 58.0127C56.511 58.0143 56.8609 58.0151 57.2107 58.0149C57.7 58.0153 58.189 58.0203 58.6782 58.0266C59.0955 58.0296 59.0955 58.0296 59.5213 58.0326C60.2999 58.1337 60.6257 58.2701 61.1703 58.8281C61.429 59.7594 61.502 60.2555 61.097 61.1426C60.7015 61.6406 60.7015 61.6406 60.2328 61.875C59.7329 61.9025 59.2321 61.9148 58.7314 61.9202C58.5774 61.9221 58.4234 61.9241 58.2647 61.926C57.7544 61.9319 57.244 61.9357 56.7336 61.9391C56.4723 61.941 56.4723 61.941 56.2057 61.9429C55.2837 61.9492 54.3617 61.9537 53.4397 61.9571C52.487 61.961 51.5345 61.9715 50.582 61.9834C49.8497 61.9913 49.1174 61.994 48.3851 61.9953C48.0339 61.9969 47.6828 62.0005 47.3316 62.0061C46.84 62.0135 46.3489 62.0135 45.8573 62.0118C45.4378 62.0146 45.4378 62.0146 45.0099 62.0175C44.2953 61.875 44.2953 61.875 43.7362 61.3245C43.2704 60.5597 43.2109 60.1782 43.3578 59.2969C44.0577 58.15 44.5265 57.9785 45.8498 57.9808Z" fill="white"/>
</svg>
