<svg width="121" height="120" viewBox="0 0 121 120" fill="none" xmlns="http://www.w3.org/2000/svg">
<path d="M60.5338 3.42772C60.7193 3.42793 60.9048 3.42813 61.0959 3.42834C67.3836 3.45124 73.2028 4.89922 78.7125 7.96874C78.8616 8.05027 79.0108 8.13181 79.1644 8.21582C81.2856 9.38532 83.1349 10.7324 84.934 12.3517C85.2468 12.631 85.5664 12.9027 85.8866 13.1735C89.7462 16.4862 92.5633 20.7079 94.65 25.3125C94.7152 25.4562 94.7804 25.5999 94.8476 25.7479C95.6221 27.4879 96.2087 29.2476 96.7008 31.084C96.7474 31.2572 96.7939 31.4304 96.8419 31.6089C97.5876 34.5373 97.7929 37.4086 97.7848 40.415C97.7846 40.6005 97.7843 40.786 97.7841 40.9771C97.7596 47.72 96.082 53.9944 92.5406 59.7656C92.919 59.796 92.919 59.796 93.3051 59.827C97.1354 60.1772 100.437 61.2822 103.087 64.2187C103.214 64.3447 103.341 64.4707 103.472 64.6005C105.544 66.7586 106.605 69.7054 106.837 72.6562C106.85 72.8121 106.863 72.968 106.876 73.1286C107.017 76.6023 105.717 80.0202 103.439 82.6172C102.599 83.5071 101.679 84.2918 100.744 85.0781C100.94 85.1379 100.94 85.1379 101.14 85.199C105.176 86.4461 108.588 87.827 111.759 90.7031C111.981 90.8925 111.981 90.8925 112.208 91.0858C115.016 93.6373 116.979 97.7929 117.194 101.555C117.212 102.471 117.215 103.387 117.212 104.303C117.213 104.641 117.213 104.978 117.214 105.316C117.214 106.018 117.213 106.721 117.211 107.423C117.208 108.325 117.21 109.226 117.213 110.127C117.214 110.822 117.214 111.517 117.213 112.211C117.212 112.544 117.213 112.877 117.214 113.209C117.215 113.672 117.213 114.135 117.211 114.597C117.21 114.861 117.21 115.124 117.21 115.395C117.15 116.016 117.15 116.016 116.681 116.484C116.071 116.531 115.486 116.547 114.875 116.543C114.686 116.544 114.496 116.545 114.301 116.545C113.659 116.547 113.017 116.545 112.375 116.544C111.913 116.544 111.451 116.545 110.988 116.546C109.713 116.548 108.438 116.547 107.162 116.546C105.789 116.545 104.416 116.546 103.042 116.548C100.35 116.55 97.6572 116.549 94.9647 116.548C92.7774 116.547 90.5901 116.547 88.4028 116.547C88.1699 116.547 88.1699 116.547 87.9324 116.547C87.3024 116.547 86.6724 116.547 86.0424 116.548C80.1282 116.549 74.214 116.548 68.2998 116.545C63.0414 116.543 57.783 116.543 52.5245 116.545C46.6214 116.548 40.7183 116.549 34.8151 116.548C34.1862 116.547 33.5574 116.547 32.9285 116.547C32.7736 116.547 32.6188 116.547 32.4592 116.547C30.1171 116.546 27.775 116.547 25.433 116.548C22.7708 116.55 20.1087 116.549 17.4466 116.547C16.0871 116.545 14.7275 116.545 13.368 116.547C12.1253 116.548 10.8827 116.547 9.63998 116.545C9.18859 116.544 8.7372 116.544 8.28581 116.546C7.67584 116.547 7.06595 116.546 6.45599 116.543C6.27762 116.544 6.09925 116.546 5.91547 116.547C4.7035 116.538 4.7035 116.538 4.18124 116.016C4.11856 115.405 4.11856 115.405 4.11315 114.62C4.11016 114.326 4.10717 114.032 4.10408 113.73C4.10337 113.407 4.10284 113.084 4.1025 112.761C4.101 112.428 4.09942 112.096 4.09778 111.764C4.09496 111.064 4.0941 110.364 4.09438 109.665C4.09443 108.778 4.08808 107.891 4.07995 107.005C4.07468 106.316 4.07379 105.627 4.07404 104.938C4.07349 104.612 4.07146 104.286 4.06779 103.96C4.02004 99.2776 5.47349 95.1452 8.63436 91.6406C8.77304 91.4802 8.91171 91.3198 9.05459 91.1545C12.0376 87.917 16.4355 86.2228 20.5875 85.0781C20.3623 84.8823 20.3623 84.8823 20.1325 84.6826C16.7727 81.7184 14.8939 78.7669 14.4361 74.1888C14.3312 70.7725 15.5085 67.6296 17.5406 64.9219C17.7536 64.635 17.7536 64.635 17.9709 64.3423C20.4283 61.4724 23.8604 60.1703 27.5162 59.8535C27.9409 59.8228 28.3657 59.7929 28.7906 59.7656C28.677 59.5858 28.5634 59.4061 28.4464 59.2209C26.3345 55.7241 24.8629 51.8302 24.1031 47.8125C24.0621 47.6001 24.021 47.3877 23.9787 47.1688C23.5999 45.0007 23.5405 42.8728 23.5465 40.6787C23.5467 40.4932 23.5469 40.3077 23.5471 40.1166C23.5834 30.1578 27.5546 21.047 34.5291 13.9436C37.7196 10.8015 41.362 8.40662 45.4312 6.56249C45.5749 6.49727 45.7186 6.43205 45.8667 6.36485C47.6067 5.59043 49.3664 5.00376 51.2027 4.51171C51.3759 4.46512 51.5491 4.41854 51.7276 4.37054C54.6561 3.62493 57.5273 3.41957 60.5338 3.42772ZM62.0719 6.56249C62.0719 11.5898 62.0719 16.6172 62.0719 21.7969C64.3596 21.7969 66.4574 21.7941 68.693 21.4892C68.933 21.458 69.173 21.4268 69.4203 21.3947C71.0679 21.1709 72.6681 20.8826 74.2594 20.3906C72.4461 15.2212 69.5202 9.78467 64.4156 7.26561C63.2849 6.74757 63.2848 6.74757 62.0719 6.56249ZM53.0631 10.0635C50.3974 12.7608 47.9082 16.6673 47.0719 20.3906C48.8995 20.9557 50.7455 21.2431 52.6383 21.4892C52.9766 21.5354 52.9766 21.5354 53.3217 21.5825C55.3408 21.8322 57.1797 21.7969 59.2594 21.7969C59.2594 16.7695 59.2594 11.7422 59.2594 6.56249C56.9488 6.56249 54.6339 8.57647 53.0631 10.0635ZM70.5094 7.96874C70.5891 8.07418 70.6689 8.17962 70.7511 8.28826C70.9972 8.6149 71.2421 8.94246 71.4862 9.27062C71.771 9.65076 72.0597 10.028 72.3523 10.4022C74.3179 12.9784 75.7878 15.8453 76.8439 18.9038C77.0167 19.4895 77.0167 19.4895 77.5406 19.6875C78.2025 19.5067 78.8408 19.3091 79.4889 19.0869C79.677 19.0234 79.8652 18.9599 80.0591 18.8945C81.6969 18.3291 83.2548 17.648 84.8062 16.875C83.2641 13.2469 77.2223 10.38 73.7726 8.93702C72.1825 8.25119 72.1825 8.25119 70.5094 7.96874ZM49.6271 8.17931C44.7764 9.93357 40.0774 12.5977 36.525 16.4062C36.525 16.5609 36.525 16.7156 36.525 16.875C38.98 18.0078 41.427 18.9378 44.025 19.6875C44.1047 19.511 44.1845 19.3346 44.2667 19.1528C46.06 15.2229 47.8245 11.3878 50.8219 8.20311C50.3243 7.88806 50.3243 7.88806 49.6271 8.17931ZM33.9469 19.2187C29.3667 24.5899 26.6812 32.146 26.6812 39.1406C31.3219 39.1406 35.9625 39.1406 40.7437 39.1406C40.8984 37.0523 41.0531 34.964 41.2125 32.8125C41.7133 29.3405 42.321 25.9206 43.0875 22.5C42.9401 22.4506 42.7928 22.4011 42.641 22.3502C37.4888 20.6132 37.4888 20.6132 35.1956 19.4604C34.6423 19.1713 34.6423 19.1713 33.9469 19.2187ZM85.6595 19.639C85.3564 19.7729 85.3564 19.7729 85.0472 19.9096C84.8323 20.0055 84.6175 20.1014 84.3961 20.2002C82.3743 21.0872 80.3551 21.8546 78.2437 22.5C78.3005 22.7535 78.3573 23.007 78.4159 23.2681C79.5748 28.5387 80.1866 33.7286 80.5875 39.1406C85.2281 39.1406 89.8687 39.1406 94.65 39.1406C94.65 32.4714 92.2886 26.3117 88.5562 20.8594C88.3736 20.5784 88.3736 20.5784 88.1873 20.2917C87.867 19.7954 87.867 19.7954 87.3844 19.2187C86.6477 19.2187 86.3209 19.3419 85.6595 19.639ZM46.1344 23.4375C45.5067 24.9638 45.1453 26.4779 44.8307 28.0957C44.78 28.3543 44.7293 28.6129 44.6771 28.8793C44.0132 32.3588 43.7906 35.5644 43.7906 39.1406C48.8953 39.1406 54 39.1406 59.2594 39.1406C59.2594 34.4226 59.2594 29.7047 59.2594 24.8437C57.1711 24.689 55.0828 24.5344 52.9312 24.375C51.8295 24.2269 50.754 24.0769 49.6646 23.8769C49.1841 23.7927 48.7034 23.7091 48.2227 23.6261C48.0224 23.5898 47.8221 23.5535 47.6157 23.5161C47.0088 23.4151 47.0088 23.4151 46.1344 23.4375ZM73.1085 23.6261C72.8758 23.6663 72.643 23.7065 72.4031 23.7479C71.9328 23.8303 71.4628 23.9143 70.9932 24.0005C68.0146 24.5073 65.1311 24.6171 62.0719 24.8437C62.0719 29.5617 62.0719 34.2797 62.0719 39.1406C67.1766 39.1406 72.2812 39.1406 77.5406 39.1406C77.5478 35.8856 77.5478 35.8856 77.2623 32.6807C77.232 32.4466 77.2016 32.2125 77.1703 31.9713C76.6616 27.566 76.6616 27.566 75.1969 23.4375C74.4438 23.4375 73.8403 23.4935 73.1085 23.6261ZM26.6812 41.9531C26.6812 43.6969 26.7167 45.1845 27.0474 46.8603C27.089 47.071 27.1305 47.2817 27.1732 47.4988C28.1069 51.9643 30.1245 58.6458 33.9615 61.4648C35.5127 61.8609 37.4935 60.5984 38.9401 60.0023C40.3024 59.4492 41.6721 58.9915 43.0875 58.5937C43.0307 58.3403 42.9739 58.0868 42.9154 57.8256C41.7564 52.555 41.1446 47.3652 40.7437 41.9531C36.1031 41.9531 31.4625 41.9531 26.6812 41.9531ZM43.7906 41.9531C43.7834 45.2081 43.7834 45.2081 44.0689 48.4131C44.0993 48.6471 44.1296 48.8812 44.1609 49.1224C44.6696 53.5278 44.6696 53.5278 46.1344 57.6562C46.9257 57.551 47.7166 57.4428 48.5074 57.334C48.8419 57.2896 48.8419 57.2896 49.1831 57.2443C51.3245 56.9468 53.0239 56.2266 54.9381 55.2548C56.3215 54.708 57.8048 54.4523 59.2594 54.1406C59.2594 50.1187 59.2594 46.0969 59.2594 41.9531C54.1547 41.9531 49.05 41.9531 43.7906 41.9531ZM62.0719 41.9531C62.0719 45.975 62.0719 49.9969 62.0719 54.1406C64.0441 54.6047 64.0441 54.6047 66.0562 55.0781C66.7764 55.4896 67.4965 55.9012 68.2105 56.3232C70.0603 57.2521 73.4182 58.0571 75.4312 57.4219C76.2673 54.3157 76.9083 51.2395 77.3062 48.0469C77.3374 47.8015 77.3685 47.5562 77.4005 47.3035C77.5946 45.5067 77.5406 43.7817 77.5406 41.9531C72.4359 41.9531 67.3312 41.9531 62.0719 41.9531ZM80.5875 41.9531C80.4328 44.0414 80.2781 46.1297 80.1187 48.2812C79.618 51.7532 79.0102 55.1732 78.2437 58.5937C78.6353 58.7175 78.6353 58.7175 79.0348 58.8437C79.3962 58.9601 79.7576 59.077 80.1187 59.1943C80.3082 59.2558 80.4978 59.3173 80.693 59.3806C82.1708 59.873 83.5808 60.4627 84.9692 61.1696C85.7018 61.5196 86.1391 61.6523 86.9486 61.5234C88.31 60.8093 89.057 59.6869 89.816 58.3887C89.9066 58.2347 89.9972 58.0806 90.0905 57.922C92.9457 52.9849 94.65 47.6834 94.65 41.9531C90.0094 41.9531 85.3687 41.9531 80.5875 41.9531ZM51.9928 60.6573C49.6155 63.1357 48.5882 66.3987 48.6548 69.7659C48.9038 73.1368 50.4287 76.0252 52.9312 78.2812C55.8461 80.429 58.9132 81.4445 62.5406 80.9473C65.1318 80.4331 67.1696 79.3693 69.1031 77.5781C69.2351 77.4561 69.3672 77.334 69.5032 77.2082C71.7979 74.8106 72.7404 71.5162 72.6764 68.2809C72.4275 64.9101 70.9025 62.0216 68.4 59.7656C63.0756 55.8424 56.8907 56.2464 51.9928 60.6573ZM47.3062 60.4687C47.2289 60.6234 47.1516 60.7781 47.0719 60.9375C47.3039 61.2855 47.3039 61.2855 47.5406 61.6406C47.7726 61.2539 48.0047 60.8672 48.2437 60.4687C47.9344 60.4687 47.625 60.4687 47.3062 60.4687ZM73.0875 60.4687C73.3195 60.8555 73.5516 61.2422 73.7906 61.6406C73.9453 61.3312 74.1 61.0219 74.2594 60.7031C73.8726 60.6258 73.4859 60.5484 73.0875 60.4687ZM77.3062 61.4062C77.0813 61.8895 76.8567 62.3729 76.6324 62.8564C76.5073 63.1256 76.3823 63.3948 76.2534 63.6722C76.1368 63.9299 76.0201 64.1876 75.9 64.4531C75.8152 64.6359 75.7305 64.8187 75.6432 65.007C75.4061 65.6984 75.3961 66.1912 75.4367 66.9186C75.4488 67.1581 75.4609 67.3975 75.4734 67.6442C75.4885 67.8915 75.5036 68.1388 75.5191 68.3935C75.5324 68.6454 75.5457 68.8972 75.5594 69.1566C75.5925 69.7765 75.628 70.396 75.6656 71.0156C78.5229 70.1689 80.4395 68.6795 81.8482 66.0864C82.171 65.4952 82.4877 65.0276 82.9312 64.5264C83.4511 64.0447 83.4511 64.0447 83.4 63.5156C82.6047 63.2065 81.8086 62.8994 81.0123 62.5928C80.7874 62.5053 80.5624 62.4178 80.3307 62.3277C80.1124 62.2439 79.8941 62.16 79.6692 62.0737C79.4692 61.9963 79.2691 61.919 79.063 61.8393C78.4803 61.6414 77.9117 61.5129 77.3062 61.4062ZM43.3762 61.4976C43.1304 61.5811 43.1304 61.5811 42.8797 61.6662C42.6075 61.7578 42.6075 61.7578 42.3299 61.8512C42.14 61.917 41.9501 61.9829 41.7545 62.0508C41.5691 62.113 41.3838 62.1752 41.1928 62.2394C40.0815 62.6175 39.0039 63.0389 37.9312 63.5156C38.2774 64.259 38.6984 64.9009 39.1764 65.5664C39.9823 66.6892 39.9823 66.6892 40.2843 67.2464C41.0361 68.6 41.8999 69.2334 43.2486 69.9609C43.4294 70.0642 43.6103 70.1676 43.7966 70.274C44.6796 70.821 44.6796 70.821 45.6656 71.0156C46.0494 67.5324 46.0668 64.7265 44.2594 61.6406C43.8126 61.3558 43.8126 61.3558 43.3762 61.4976ZM21.7594 65.1562C21.5225 65.3254 21.2856 65.4946 21.0416 65.6689C18.9473 67.5007 17.8533 70.052 17.5699 72.7734C17.4319 75.7704 18.2761 78.3737 20.192 80.7129C21.9576 82.5833 24.4857 84.029 27.0767 84.1965C30.5945 84.2877 33.2429 83.5244 35.874 81.0782C38.021 78.8349 39.004 76.0141 38.942 72.941C38.669 70.133 37.4159 67.458 35.3467 65.5298C32.7086 63.3984 30.001 62.7856 26.6796 62.9963C24.8476 63.1946 23.2342 64.099 21.7594 65.1562ZM84.9674 66.6357C83.0809 68.8804 82.3301 71.3499 82.3892 74.2547C82.6649 77.0596 83.9174 79.7314 85.9845 81.6577C88.7326 83.8779 91.6608 84.5022 95.1187 84.1406C98.088 83.5225 100.493 81.7134 102.15 79.2187C103.647 76.6934 104.152 73.8447 103.521 70.9588C102.597 67.9648 100.885 65.7489 98.1656 64.2187C93.5347 61.8921 88.5292 62.8675 84.9674 66.6357ZM41.9156 72.6562C41.8927 72.9112 41.8697 73.1662 41.846 73.4289C41.4387 77.5772 40.2775 80.9329 37.2281 83.9062C36.6962 84.3366 36.1634 84.7062 35.5875 85.0781C36.1847 85.4763 36.5253 85.6463 37.1897 85.8325C37.3619 85.8818 37.5341 85.931 37.7115 85.9817C37.8904 86.0316 38.0692 86.0814 38.2535 86.1328C38.6071 86.2323 38.9605 86.3324 39.3137 86.4331C39.4807 86.48 39.6478 86.5269 39.8199 86.5752C40.275 86.7187 40.275 86.7187 40.9268 87.0309C41.4504 87.2538 41.4504 87.2538 41.9174 86.9485C42.0812 86.8099 42.2449 86.6712 42.4137 86.5283C45.5178 84.1956 49.2252 83.0271 52.9312 82.0312C52.7584 81.8932 52.5856 81.7551 52.4076 81.6128C52.1937 81.4415 51.9797 81.2702 51.7594 81.0937C51.5938 80.9635 51.4282 80.8333 51.2577 80.6991C49.5719 79.2975 48.1973 77.5379 47.244 75.5548C46.6478 74.7411 45.8932 74.4351 44.9918 74.0185C44.8259 73.9383 44.6601 73.8581 44.4892 73.7755C43.6431 73.3698 42.7924 72.9915 41.9156 72.6562ZM77.3648 73.5498C77.1129 73.6751 77.1129 73.6751 76.8558 73.8029C76.3789 74.0418 75.9049 74.2859 75.4312 74.5312C75.214 74.6403 74.9968 74.7494 74.773 74.8617C74.1133 75.3403 73.8581 75.8323 73.483 76.5527C72.1869 78.8683 70.6305 80.3754 68.4 81.7969C68.9569 82.3538 69.4342 82.4335 70.1838 82.6161C72.0148 83.0623 73.7146 83.6524 75.4166 84.4629C75.6047 84.5522 75.7928 84.6415 75.9866 84.7336C77.0529 85.2581 77.9715 85.8472 78.9176 86.5723C79.6805 87.0872 79.9436 87.2195 80.8603 87.052C81.6514 86.7444 82.4011 86.3836 83.1656 86.0156C83.6551 85.8618 84.1483 85.719 84.6451 85.5908C84.8569 85.5361 85.0687 85.4814 85.2869 85.4251C85.4377 85.3879 85.5884 85.3508 85.7437 85.3125C85.1149 84.6646 84.4885 84.0714 83.7809 83.5107C80.972 81.111 79.8122 77.497 79.5035 73.9306C79.4728 73.5059 79.4429 73.0812 79.4156 72.6562C78.7587 72.6562 77.9603 73.2505 77.3648 73.5498ZM40.8271 91.7212C37.7388 95.2038 36.9062 99.5335 36.948 104.059C36.9486 104.336 36.9493 104.613 36.95 104.898C36.9526 105.772 36.9584 106.646 36.9644 107.52C36.9668 108.116 36.9689 108.713 36.9708 109.31C36.9756 110.764 36.9848 112.218 36.9937 113.672C40.0101 113.672 43.0266 113.672 46.1344 113.672C46.1458 112.986 46.1573 112.301 46.1692 111.595C46.1818 110.931 46.1952 110.268 46.2087 109.605C46.2177 109.144 46.2259 108.682 46.2332 108.221C46.2439 107.558 46.2575 106.896 46.2717 106.233C46.2744 106.027 46.2771 105.82 46.2799 105.607C46.2846 105.415 46.2892 105.223 46.294 105.024C46.2971 104.855 46.3003 104.686 46.3035 104.512C46.3687 104.062 46.3687 104.062 46.8375 103.359C47.6578 103.286 47.6578 103.286 48.4781 103.359C50.9144 105.796 49.0992 110.227 49.1812 113.672C56.7609 113.672 64.3406 113.672 72.15 113.672C72.2273 110.423 72.3047 107.175 72.3844 103.828C72.8531 103.359 72.8531 103.359 73.6734 103.286C73.9441 103.31 74.2148 103.334 74.4937 103.359C74.9678 104.07 75.0224 104.224 75.0372 105.024C75.0442 105.313 75.0442 105.313 75.0513 105.607C75.054 105.814 75.0567 106.02 75.0595 106.233C75.0663 106.552 75.0663 106.552 75.0733 106.877C75.0873 107.555 75.0982 108.233 75.109 108.911C75.1179 109.371 75.1271 109.831 75.1364 110.29C75.1593 111.418 75.178 112.545 75.1969 113.672C78.2133 113.672 81.2297 113.672 84.3375 113.672C84.3537 111.938 84.3677 110.204 84.3761 108.471C84.3796 107.882 84.3844 107.294 84.3905 106.706C84.4941 100.486 84.4941 100.486 82.4625 94.6875C82.3498 94.479 82.2371 94.2706 82.121 94.0558C79.3669 89.3517 74.651 86.7375 69.5014 85.3445C59.6702 82.8665 48.1211 84.2123 40.8271 91.7212ZM10.9781 93.5156C6.91174 98.0816 6.95333 103.152 6.97909 108.926C6.98027 109.387 6.98134 109.849 6.98229 110.31C6.98465 111.431 6.98924 112.551 6.99374 113.672C9.62343 113.672 12.2531 113.672 14.9625 113.672C14.9716 112.775 14.9716 112.775 14.9808 111.859C14.9898 111.279 15.0004 110.699 15.0111 110.118C15.0177 109.716 15.0227 109.313 15.026 108.91C15.031 108.33 15.042 107.751 15.054 107.172C15.0543 106.992 15.0546 106.812 15.0549 106.627C15.0775 105.802 15.1365 105.317 15.6278 104.642C16.1344 104.297 16.1344 104.297 16.8814 104.341C17.5406 104.531 17.5406 104.531 17.775 104.766C17.8125 105.424 17.8358 106.078 17.8491 106.737C17.8535 106.912 17.8579 107.086 17.8624 107.267C17.8784 107.922 17.8925 108.578 17.9068 109.233C17.9407 110.698 17.9745 112.163 18.0094 113.672C23.2687 113.672 28.5281 113.672 33.9469 113.672C33.9959 109.609 33.9959 109.609 34.0378 105.546C34.1063 100.223 34.5616 95.5456 37.7362 91.0748C38.1455 90.4972 38.5123 89.9081 38.8687 89.2969C38.2689 89.1086 37.6683 88.9237 37.067 88.7402C36.9025 88.6883 36.738 88.6363 36.5685 88.5827C33.8337 87.7562 31.1081 87.5707 28.2633 87.583C28.1039 87.5835 27.9445 87.584 27.7802 87.5845C21.5745 87.616 15.5687 89.0971 10.9781 93.5156ZM82.4625 89.2969C82.5646 89.4558 82.6667 89.6147 82.7719 89.7784C83.0658 90.2377 83.358 90.698 83.649 91.159C83.9227 91.5905 84.1999 92.0197 84.484 92.4444C86.715 95.8955 87.2062 99.8688 87.247 103.899C87.2512 104.149 87.2553 104.399 87.2596 104.657C87.2742 105.577 87.2851 106.497 87.2965 107.417C87.3255 109.481 87.3545 111.545 87.3844 113.672C92.6437 113.672 97.9031 113.672 103.322 113.672C103.371 110.762 103.371 110.762 103.413 107.852C103.42 107.488 103.428 107.124 103.436 106.76C103.439 106.475 103.439 106.475 103.441 106.184C103.455 105.636 103.455 105.636 103.556 104.766C104.259 104.297 104.259 104.297 104.977 104.341C105.666 104.531 105.666 104.531 106.134 105.234C106.191 105.879 106.222 106.503 106.231 107.149C106.236 107.335 106.24 107.521 106.245 107.713C106.259 108.308 106.27 108.902 106.281 109.497C106.29 109.9 106.299 110.304 106.308 110.707C106.331 111.695 106.35 112.683 106.369 113.672C108.921 113.672 111.473 113.672 114.103 113.672C114.13 111.938 114.153 110.205 114.167 108.471C114.173 107.882 114.181 107.294 114.192 106.706C114.269 102.156 114.114 98.4585 111.291 94.6875C111.185 94.5397 111.08 94.392 110.972 94.2398C108.749 91.3693 105.188 89.6616 101.784 88.6377C101.556 88.5691 101.556 88.5691 101.324 88.4992C98.6436 87.7495 95.9574 87.5713 93.1851 87.583C93.0261 87.5833 92.8671 87.5837 92.7033 87.5841C89.0958 87.5983 85.8792 88.1263 82.4625 89.2969Z" fill="white"/>
</svg>
