<svg width="24" height="25" viewBox="0 0 24 25" fill="none" xmlns="http://www.w3.org/2000/svg">
<path d="M9.70314 6.18457C9.84962 6.20215 9.84962 6.20215 9.98439 6.23145C10.0035 6.285 10.0226 6.33856 10.0422 6.39373C10.1149 6.5972 10.1882 6.80045 10.2616 7.00364C10.293 7.09071 10.3242 7.17783 10.3553 7.26502C10.7251 8.30272 11.1462 9.22615 11.8594 10.0752C11.8887 10.1108 11.918 10.1465 11.9482 10.1832C12.1878 10.4653 12.4572 10.6937 12.75 10.9189C12.7911 10.9508 12.8322 10.9828 12.8745 11.0156C13.7989 11.7116 14.873 12.0479 15.9536 12.4293C16.0001 12.4457 16.0465 12.4622 16.0944 12.4792C16.1561 12.5009 16.1561 12.5009 16.219 12.523C16.3125 12.5596 16.3125 12.5596 16.3594 12.6064C16.3613 12.7002 16.3614 12.794 16.3594 12.8877C15.9873 13.0424 15.6124 13.1856 15.233 13.3214C14.2005 13.6915 13.2339 14.0941 12.4248 14.8592C12.3281 14.9502 12.3281 14.9502 12.1846 15.0615C11.1097 16.0221 10.6202 17.442 10.1803 18.7683C10.1681 18.8038 10.156 18.8392 10.1435 18.8758C10.1131 18.9647 10.0841 19.0541 10.0553 19.1435C9.98439 19.2627 9.98439 19.2627 9.83589 19.3043C9.79208 19.306 9.74828 19.3078 9.70314 19.3096C9.56777 19.1061 9.49221 18.8957 9.4131 18.6665C9.38423 18.5847 9.35531 18.5029 9.32634 18.4211C9.30385 18.3573 9.30385 18.3573 9.28089 18.2923C8.92966 17.3017 8.56997 16.3649 7.87502 15.5596C7.83822 15.5168 7.80142 15.4741 7.7635 15.4301C7.66191 15.3151 7.5582 15.2027 7.45314 15.0908C7.42855 15.0632 7.40395 15.0356 7.37862 15.0071C6.57702 14.1443 5.44405 13.7082 4.36525 13.3154C4.33335 13.3038 4.30146 13.2922 4.26859 13.2802C4.10884 13.222 3.94896 13.1642 3.78881 13.1071C3.72986 13.0858 3.6709 13.0646 3.61195 13.0433C3.53327 13.0152 3.53327 13.0152 3.453 12.9866C3.32814 12.9346 3.32814 12.9346 3.23439 12.8408C3.2256 12.7295 3.2256 12.7295 3.28127 12.6064C3.60238 12.4104 3.99671 12.3111 4.35057 12.1859C6.21683 11.5225 7.80924 10.5054 8.71492 8.67023C8.96783 8.11976 9.16014 7.54111 9.36069 6.97005C9.38436 6.9029 9.38436 6.9029 9.4085 6.83439C9.43847 6.7491 9.46817 6.66373 9.49759 6.57825C9.51095 6.54011 9.52431 6.50197 9.53808 6.46267C9.55542 6.41248 9.55542 6.41248 9.57311 6.36127C9.60939 6.27832 9.60939 6.27832 9.70314 6.18457Z" fill="url(#paint0_linear_134_1602)"/>
<path d="M17.2969 2.24707C17.3742 2.24707 17.4516 2.24707 17.5312 2.24707C17.5426 2.27845 17.5539 2.30983 17.5655 2.34216C17.6181 2.48738 17.6714 2.63236 17.7246 2.77734C17.7424 2.82668 17.7601 2.87602 17.7784 2.92685C18.1213 3.8553 18.6431 4.56636 19.5557 4.99805C19.851 5.13345 20.1562 5.24048 20.467 5.33481C20.5646 5.36627 20.5646 5.36627 20.7188 5.43457C20.7645 5.53656 20.7645 5.53656 20.7656 5.62207C20.5255 5.73322 20.2836 5.83297 20.036 5.92581C19.4548 6.14514 19.0101 6.40232 18.5625 6.84082C18.5331 6.86856 18.5036 6.89629 18.4733 6.92487C18.0456 7.36418 17.83 8.0012 17.6453 8.5737C17.6331 8.6099 17.6208 8.64611 17.6082 8.68341C17.5978 8.7157 17.5874 8.748 17.5767 8.78127C17.5312 8.85645 17.5312 8.85645 17.4327 8.8907C17.3887 8.89695 17.3887 8.89695 17.3438 8.90332C17.3105 8.82425 17.2773 8.74514 17.2441 8.66602C17.2226 8.61471 17.2011 8.56341 17.179 8.51056C17.1202 8.36717 17.0642 8.22302 17.009 8.07826C16.6303 7.0973 16.0657 6.47577 15.108 6.04276C14.8738 5.94368 14.6334 5.85917 14.3921 5.77889C14.3559 5.76648 14.3197 5.75406 14.2824 5.74127C14.2501 5.73065 14.2178 5.72003 14.1846 5.70908C14.1094 5.66895 14.1094 5.66895 14.0625 5.52832C14.2007 5.41472 14.3276 5.35164 14.4963 5.29321C14.5438 5.27632 14.5914 5.25943 14.6404 5.24202C14.6904 5.22435 14.7404 5.20668 14.792 5.18848C15.1919 5.0425 15.5551 4.90502 15.8906 4.6377C15.9271 4.60948 15.9636 4.58126 16.0012 4.55219C16.722 3.95596 17.0114 3.10527 17.2969 2.24707Z" fill="url(#paint1_linear_134_1602)"/>
<path d="M17.3438 16.5908C17.4341 16.5968 17.4341 16.5968 17.5312 16.6377C17.5868 16.7381 17.5868 16.7381 17.632 16.8702C17.6491 16.9185 17.6663 16.9668 17.684 17.0165C17.7012 17.0675 17.7185 17.1184 17.7363 17.1709C18.0651 18.1255 18.5591 18.8545 19.4707 19.333C19.7818 19.4846 20.1022 19.602 20.4313 19.7087C20.4679 19.7212 20.5046 19.7338 20.5424 19.7466C20.5753 19.7573 20.6082 19.768 20.6421 19.779C20.7188 19.8252 20.7188 19.8252 20.7532 19.9239C20.7573 19.9532 20.7614 19.9825 20.7656 20.0127C20.4775 20.1347 20.189 20.2529 19.8955 20.3613C18.9872 20.711 18.3341 21.2775 17.9282 22.1712C17.7758 22.5222 17.6524 22.8844 17.5312 23.2471C17.4539 23.2471 17.3766 23.2471 17.2969 23.2471C17.287 23.2188 17.2771 23.1905 17.2669 23.1613C16.8429 21.9543 16.4144 21.0386 15.2128 20.4584C14.9636 20.3522 14.709 20.2612 14.4526 20.1743C14.3971 20.1549 14.3971 20.1549 14.3405 20.1352C14.3072 20.124 14.274 20.1128 14.2397 20.1012C14.1562 20.0596 14.1562 20.0596 14.0625 19.9189C14.1289 19.7862 14.2033 19.7826 14.3419 19.7336C14.3902 19.7162 14.4385 19.6987 14.4882 19.6807C14.5893 19.6449 14.6903 19.6091 14.7914 19.5734C15.7649 19.2209 16.4333 18.6765 16.8768 17.7378C17.0134 17.4356 17.1239 17.1234 17.2337 16.8107C17.2969 16.6377 17.2969 16.6377 17.3438 16.5908Z" fill="url(#paint2_linear_134_1602)"/>
<defs>
<linearGradient id="paint0_linear_134_1602" x1="3.2301" y1="17.8658" x2="13.967" y2="8.59492" gradientUnits="userSpaceOnUse">
<stop stop-color="#035C42"/>
<stop offset="1" stop-color="#06B884"/>
</linearGradient>
<linearGradient id="paint1_linear_134_1602" x1="14.0625" y1="8.17113" x2="19.5128" y2="3.43398" gradientUnits="userSpaceOnUse">
<stop stop-color="#035C42"/>
<stop offset="1" stop-color="#06B884"/>
</linearGradient>
<linearGradient id="paint2_linear_134_1602" x1="14.0625" y1="22.5149" x2="19.5128" y2="17.7777" gradientUnits="userSpaceOnUse">
<stop stop-color="#035C42"/>
<stop offset="1" stop-color="#06B884"/>
</linearGradient>
</defs>
</svg>
