<svg width="120" height="120" viewBox="0 0 120 120" fill="none" xmlns="http://www.w3.org/2000/svg">
<g clip-path="url(#clip0_107_197)">
<path d="M54.2057 14.8984C54.6155 14.8965 54.6155 14.8965 55.0337 14.8946C55.6095 14.8931 56.1853 14.8934 56.7611 14.8954C57.6381 14.8974 58.5147 14.8907 59.3917 14.8833C59.953 14.8829 60.5144 14.883 61.0758 14.8837C61.4659 14.8798 61.4659 14.8798 61.8639 14.8757C63.9021 14.8939 65.5789 15.3286 67.1045 16.7431C67.2486 16.8734 67.3927 17.0036 67.5412 17.1377C68.445 18.0686 69.0104 18.8566 69.3668 20.1132C69.4431 20.3696 69.5194 20.6259 69.598 20.89C69.7522 21.4268 69.9054 21.9639 70.0576 22.5014C70.1724 22.8854 70.1724 22.8854 70.2896 23.2773C70.3561 23.5104 70.4225 23.7435 70.491 23.9837C70.8503 24.7581 71.2393 25.088 71.9531 25.5469C73.3566 25.7309 74.5129 25.4459 75.8643 25.0781C78.5094 24.3684 80.9646 24.2122 83.4375 25.5469C83.6523 25.6497 83.6523 25.6497 83.8715 25.7547C85.4593 26.6718 86.2772 28.4748 87.1875 30C87.4205 30.3848 87.6535 30.7697 87.8866 31.1544C88.2285 31.7197 88.5686 32.286 88.9082 32.8527C89.0785 33.1368 89.249 33.4207 89.4199 33.7044C89.6633 34.1093 89.9045 34.5156 90.1456 34.9219C90.2868 35.1587 90.428 35.3956 90.5735 35.6396C91.5846 37.552 91.6851 39.5383 91.2863 41.651C90.6711 43.5058 89.2387 44.82 87.8906 46.1719C87.7175 46.3456 87.5444 46.5193 87.3661 46.6983C87.0933 46.97 86.8187 47.2398 86.5412 47.5067C86.0091 48.0656 85.8644 48.6579 85.8756 49.4256C86.2642 50.8024 87.7007 51.8588 88.7018 52.8186C90.4339 54.4873 91.4279 56.0183 91.4795 58.4912C91.4883 58.7622 91.497 59.0332 91.5061 59.3124C91.2431 61.7421 89.8053 63.8141 88.5727 65.8691C88.2715 66.3721 87.9738 66.8771 87.6764 67.3823C87.4825 67.7082 87.2884 68.034 87.0941 68.3597C87.0069 68.5079 86.9197 68.6561 86.8299 68.8089C86.0116 70.1641 85.0587 71.5603 83.6719 72.3779C83.5269 72.4664 83.3819 72.555 83.2324 72.6462C80.48 73.9971 77.4929 73.457 74.6768 72.6269C73.5314 72.3502 72.6321 72.2343 71.5302 72.6993C70.9175 73.2062 70.7581 73.5587 70.5176 74.3115C70.4152 74.6201 70.4152 74.6201 70.3107 74.935C70.1102 75.5974 69.9108 76.2601 69.7121 76.923C69.6489 77.1336 69.5857 77.3442 69.5207 77.5612C69.4726 77.7215 69.4245 77.8817 69.375 78.0469C69.8377 78.0481 69.8377 78.0481 70.3097 78.0495C73.2235 78.0581 76.1371 78.0717 79.0508 78.09C80.5486 78.0992 82.0463 78.1068 83.5441 78.1104C84.9909 78.1139 86.4376 78.122 87.8843 78.1332C88.4349 78.1366 88.9856 78.1385 89.5362 78.1387C90.3103 78.1393 91.0843 78.1456 91.8584 78.1533C92.0836 78.1521 92.3088 78.1509 92.5409 78.1497C94.7307 78.183 96.6855 78.8214 98.4375 80.1562C98.6261 80.2819 98.8146 80.4076 99.0088 80.5371C101.091 82.4665 102.126 84.9051 102.275 87.7133C102.323 89.2127 102.318 90.7119 102.312 92.2119C102.313 92.7678 102.314 93.3236 102.315 93.8795C102.316 95.0402 102.314 96.2008 102.31 97.3615C102.304 98.8422 102.307 100.323 102.313 101.803C102.316 102.95 102.315 104.097 102.313 105.243C102.312 105.789 102.313 106.334 102.315 106.88C102.328 110.933 102.222 114.257 99.375 117.422C97.7345 118.975 95.5907 120.021 93.3162 120.036C92.9736 120.039 92.9736 120.039 92.6242 120.042C92.2507 120.044 92.2507 120.044 91.8696 120.045C91.6062 120.047 91.3427 120.049 91.0713 120.051C90.1994 120.057 89.3275 120.061 88.4555 120.064C88.1579 120.065 87.8603 120.067 87.5536 120.068C86.3032 120.073 85.0528 120.077 83.8024 120.08C82.0123 120.084 80.2222 120.092 78.4321 120.105C77.0202 120.115 75.6084 120.119 74.1965 120.12C73.5963 120.122 72.9961 120.125 72.3959 120.131C71.557 120.138 70.7184 120.138 69.8795 120.137C69.5067 120.143 69.5067 120.143 69.1264 120.148C67.444 120.134 67.444 120.134 66.531 119.448C66.0144 118.716 65.8594 118.319 65.8594 117.422C66.1992 116.402 66.363 115.914 67.2656 115.312C67.7379 115.252 67.7379 115.252 68.2881 115.25C68.497 115.248 68.7059 115.246 68.9212 115.244C69.1498 115.245 69.3785 115.245 69.6141 115.245C69.8554 115.244 70.0967 115.242 70.3454 115.24C70.8702 115.237 71.395 115.235 71.9199 115.234C72.7515 115.232 73.583 115.227 74.4146 115.222C76.182 115.21 77.9494 115.203 79.7168 115.195C81.7602 115.187 83.8035 115.177 85.8468 115.163C86.6643 115.159 87.4818 115.157 88.2993 115.155C88.804 115.152 89.3087 115.149 89.8134 115.145C90.0392 115.146 90.265 115.146 90.4976 115.146C92.2302 115.13 94.0344 115.1 95.3906 113.906C95.5453 113.906 95.7 113.906 95.8594 113.906C96.0206 113.596 96.1751 113.283 96.3281 112.969C96.448 112.736 96.5678 112.503 96.6912 112.262C97.1548 111.167 97.1316 110.108 97.126 108.934C97.1276 108.699 97.1292 108.464 97.1309 108.222C97.1351 107.449 97.1342 106.675 97.1329 105.902C97.134 105.362 97.1352 104.822 97.1366 104.283C97.1387 103.153 97.1381 102.023 97.1358 100.893C97.1331 99.4476 97.1379 98.0021 97.1447 96.5564C97.149 95.4423 97.1489 94.3282 97.1476 93.2141C97.1476 92.6812 97.149 92.1483 97.1519 91.6154C97.1554 90.8693 97.1529 90.1235 97.1489 89.3775C97.1511 89.1589 97.1534 88.9403 97.1557 88.715C97.1374 87.0846 96.759 85.832 95.6681 84.5956C95.533 84.489 95.398 84.3823 95.2588 84.2724C95.0553 84.1061 95.0553 84.1061 94.8477 83.9364C94.0898 83.4282 93.4218 83.4076 92.5377 83.4054C92.2852 83.4042 92.0327 83.403 91.7725 83.4018C91.494 83.4017 91.2156 83.4015 90.9287 83.4014C90.6337 83.4004 90.3386 83.3994 90.0347 83.3983C89.2142 83.3955 88.3937 83.3942 87.5731 83.3931C86.6888 83.3917 85.8045 83.389 84.9201 83.3865C82.7837 83.3807 80.6472 83.3773 78.5107 83.3743C77.9073 83.3734 77.304 83.3725 76.7006 83.3715C72.9542 83.3656 69.2079 83.3604 65.4615 83.3575C64.5937 83.3568 63.7258 83.3561 62.858 83.3554C62.6423 83.3553 62.4266 83.3551 62.2044 83.3549C58.71 83.3519 55.2156 83.3441 51.7212 83.3344C48.1341 83.3244 44.547 83.3189 40.9598 83.3177C38.9456 83.3169 36.9314 83.3141 34.9171 83.3064C33.2018 83.2999 31.4864 83.2973 29.771 83.2999C28.8959 83.3011 28.021 83.3004 27.1459 83.2946C26.1966 83.2884 25.2476 83.2912 24.2983 83.295C24.0225 83.2917 23.7466 83.2885 23.4624 83.2851C21.84 83.3009 20.6881 83.5065 19.4531 84.6094C18.6553 85.6322 18.254 86.4403 18.2468 87.7338C18.2451 87.9411 18.2434 88.1484 18.2417 88.362C18.2411 88.5888 18.2404 88.8157 18.2398 89.0494C18.2382 89.2888 18.2367 89.5282 18.2351 89.7749C18.2305 90.5686 18.2278 91.3623 18.2254 92.1561C18.2245 92.4272 18.2235 92.6983 18.2225 92.9776C18.2176 94.4128 18.2143 95.848 18.2121 97.2832C18.2095 98.7646 18.2014 100.246 18.1921 101.727C18.186 102.867 18.184 104.007 18.1832 105.147C18.1821 105.693 18.1793 106.239 18.175 106.785C18.1693 107.55 18.1695 108.315 18.1711 109.08C18.1666 109.417 18.1666 109.417 18.162 109.76C18.173 111.179 18.4085 112.255 19.2188 113.437C21.0158 115.145 22.9275 115.113 25.2851 115.108C25.5395 115.108 25.7938 115.109 26.0559 115.109C26.6068 115.11 27.1577 115.11 27.7087 115.11C28.8795 115.111 30.0503 115.116 31.2211 115.121C33.4001 115.13 35.579 115.137 37.758 115.137C39.2748 115.137 40.7915 115.142 42.3082 115.151C42.8862 115.154 43.4641 115.154 44.0421 115.152C44.8495 115.15 45.6566 115.155 46.464 115.162C46.8226 115.158 46.8226 115.158 47.1884 115.154C48.2967 115.171 48.8144 115.183 49.7181 115.871C50.1927 116.535 50.3154 116.849 50.3028 117.656C50.3058 117.85 50.3088 118.043 50.3119 118.242C50.0736 119.14 49.7301 119.441 48.9844 120C48.0872 120.176 47.2008 120.158 46.289 120.148C45.88 120.15 45.88 120.15 45.4628 120.153C44.5608 120.157 43.659 120.152 42.757 120.147C42.129 120.148 41.501 120.148 40.8731 120.149C39.5557 120.15 38.2385 120.146 36.9212 120.14C35.4038 120.132 33.8866 120.132 32.3693 120.136C30.9047 120.14 29.4403 120.139 27.9757 120.135C27.3551 120.133 26.7345 120.133 26.1138 120.135C25.2433 120.136 24.3729 120.131 23.5024 120.125C23.2483 120.127 22.9943 120.128 22.7325 120.13C19.7863 120.093 17.6107 119.073 15.5274 117.017C13.5783 114.883 13.0544 112.53 13.0569 109.714C13.0554 109.463 13.0538 109.211 13.0522 108.951C13.0477 108.122 13.0468 107.292 13.0463 106.462C13.0448 105.883 13.0432 105.303 13.0416 104.724C13.0388 103.51 13.0379 102.295 13.0382 101.081C13.0382 99.5305 13.0318 97.9799 13.0237 96.4293C13.0185 95.2323 13.0176 94.0354 13.0178 92.8384C13.0173 92.267 13.0152 91.6956 13.0116 91.1242C13.0069 90.3223 13.0083 89.5205 13.0112 88.7185C13.0085 88.4858 13.0059 88.253 13.0032 88.0132C13.0294 85.0455 14.0483 82.8032 16.0913 80.6927C17.6245 79.2681 19.5859 78.2506 21.6987 78.253C21.913 78.2527 22.1273 78.2524 22.348 78.2521C22.5814 78.2529 22.8147 78.2538 23.0551 78.2546C23.4256 78.2546 23.4256 78.2546 23.8036 78.2545C24.6203 78.2547 25.437 78.2565 26.2537 78.2583C26.8199 78.2588 27.386 78.2591 27.9522 78.2593C29.4426 78.2602 30.9329 78.2626 32.4233 78.2651C33.944 78.2675 35.4648 78.2686 36.9855 78.2698C39.9695 78.2723 42.9535 78.2763 45.9375 78.2812C45.727 77.5621 45.5106 76.8449 45.293 76.1279C45.2338 75.9253 45.1746 75.7228 45.1136 75.5141C44.7677 74.3856 44.4419 73.5164 43.5938 72.6562C42.337 72.0279 40.889 72.5398 39.6094 72.8906C36.8978 73.5726 34.1575 73.8735 31.6406 72.4219C29.5637 70.9863 28.4686 68.9654 27.2461 66.8262C27.0514 66.493 26.8564 66.1601 26.6611 65.8273C23.102 59.7344 23.102 59.7344 23.9209 56.499C24.4788 54.8229 25.5333 53.6573 26.792 52.4515C26.9292 52.3191 27.0664 52.1867 27.2078 52.0503C27.4821 51.7886 27.76 51.5305 28.0416 51.2766C28.7313 50.6248 29.0353 50.2475 29.3134 49.3158C29.2864 48.0059 28.6937 47.4225 27.7973 46.5426C27.4868 46.2479 27.1761 45.9534 26.8653 45.6592C24.959 43.8063 23.7971 42.1588 23.6133 39.4482C23.6735 36.9344 24.9762 34.914 26.2405 32.8284C26.5419 32.331 26.8389 31.8311 27.1353 31.3307C30.2883 26.0469 30.2883 26.0469 33.3399 24.7558C35.6063 24.3781 37.6291 24.6106 39.8231 25.2133C41.1038 25.5566 42.3595 25.7538 43.667 25.4004C44.6429 24.6052 44.9176 23.2372 45.2558 22.0717C46.0336 19.3915 46.8914 17.1263 49.4531 15.7031C51.0594 14.9644 52.451 14.8937 54.2057 14.8984ZM50.8594 20.8594C50.5274 21.4431 50.5274 21.4431 50.3614 22.1072C50.2508 22.4691 50.2508 22.4691 50.138 22.8383C50.0667 23.0892 49.9954 23.3401 49.9219 23.5986C49.2831 25.8059 48.6011 28.131 46.5235 29.3994C46.3567 29.5054 46.1899 29.6115 46.0181 29.7207C43.4351 31.0337 40.6313 30.6021 37.9451 29.8648C36.6038 29.5015 35.4918 29.2188 34.2303 29.9104C33.4521 30.5184 33.0103 31.1413 32.5397 31.9894C32.4134 32.2079 32.4134 32.2079 32.2845 32.4308C32.018 32.8932 31.756 33.3581 31.4942 33.8232C31.3169 34.1327 31.1392 34.442 30.9613 34.7511C30.6328 35.3232 30.3058 35.8961 29.9811 36.4703C29.7469 36.8845 29.5117 37.2983 29.2675 37.7067C28.737 38.5919 28.737 38.5919 28.5498 39.5947C29.1199 41.0649 30.3428 42.0668 31.4587 43.1435C33.2589 44.8911 34.2199 46.4602 34.292 49.0283C34.255 51.7816 32.8602 53.4167 30.9778 55.2576C30.8624 55.3709 30.747 55.4842 30.6281 55.6009C30.2928 55.9282 29.9538 56.2517 29.6146 56.575C29.0635 57.1864 28.7855 57.5642 28.5938 58.3594C28.6932 59.5188 29.0687 60.2867 29.6732 61.2726C29.758 61.4118 29.8427 61.551 29.9301 61.6945C30.1093 61.9878 30.2896 62.2805 30.4709 62.5725C30.7444 63.0133 31.0145 63.456 31.2841 63.8992C32.6512 66.5055 32.6512 66.5055 34.6875 68.4375C36.1334 68.5643 37.3415 68.3258 38.7305 67.9687C41.4431 67.2853 43.9879 67.09 46.4859 68.5162C48.8128 70.1036 49.539 72.6528 50.1977 75.2635C50.4738 76.3134 50.771 77.0584 51.5625 77.8125C52.7486 78.3263 53.8306 78.3531 55.0992 78.3517C55.4025 78.3532 55.4025 78.3532 55.712 78.3548C56.138 78.3561 56.5641 78.3562 56.9902 78.3552C57.6388 78.3545 58.2871 78.36 58.9357 78.3659C59.3512 78.3665 59.7667 78.3666 60.1822 78.3664C60.4705 78.3696 60.4705 78.3696 60.7646 78.3729C62.0094 78.363 62.886 78.1792 63.9844 77.5781C64.695 76.533 64.9978 75.459 65.3318 74.2542C66.058 71.6385 66.9187 69.6171 69.375 68.2031C71.8332 66.9694 74.4071 67.4094 76.9486 68.1002C78.3265 68.4695 79.6075 68.7818 80.9654 68.1848C81.7444 67.5971 82.1609 66.8836 82.6346 66.0498C82.7787 65.8041 82.7787 65.8041 82.9257 65.5534C83.2308 65.0319 83.532 64.5082 83.833 63.9844C84.038 63.632 84.2432 63.2799 84.4487 62.9278C84.738 62.4323 85.0268 61.9365 85.3137 61.4395C85.6884 60.7904 86.0685 60.1551 86.4844 59.5312C86.6275 58.7201 86.6575 58.1588 86.1997 57.4493C85.59 56.7406 84.9284 56.0968 84.2542 55.4498C82.2546 53.5161 81.08 51.895 81.0205 49.0722C81.0658 45.942 82.492 44.3109 84.6094 42.1875C84.7825 42.0138 84.9556 41.84 85.134 41.6611C85.4068 41.3894 85.6814 41.1195 85.9589 40.8526C86.4483 40.3386 86.4872 40.0462 86.5504 39.3241C86.4737 38.2941 86.2044 37.7807 85.6623 36.9076C85.5772 36.7687 85.4921 36.6299 85.4044 36.4867C85.133 36.0459 84.8566 35.6085 84.5801 35.1709C84.3997 34.8783 84.2197 34.5854 84.0399 34.2924C82.5277 31.6299 82.5277 31.6299 80.3906 29.5312C79.0607 29.4417 78.0297 29.62 76.7432 30C74.3189 30.6556 71.767 30.9566 69.4245 29.8398C67.2162 28.5249 66.2459 26.8738 65.5252 24.4473C65.4664 24.2502 65.4075 24.0532 65.3468 23.8502C65.2317 23.4554 65.1215 23.0591 65.017 22.6613C64.9642 22.4761 64.9113 22.2908 64.8569 22.0999C64.8128 21.9344 64.7687 21.7689 64.7233 21.5984C64.312 20.8301 63.8113 20.3218 63.0469 19.9219C62.2294 19.7573 61.4323 19.7629 60.6006 19.7745C60.2496 19.7736 60.2496 19.7736 59.8916 19.7727C59.3983 19.773 58.905 19.7761 58.4118 19.782C57.6587 19.79 56.9062 19.7868 56.153 19.7822C55.6726 19.7839 55.1923 19.7861 54.7119 19.7891C54.4878 19.7879 54.2636 19.7868 54.0327 19.7856C52.7172 19.8087 51.8671 19.926 50.8594 20.8594Z" fill="white"/>
<path d="M67.2657 0.703143C67.5947 0.772991 67.5947 0.772991 67.9303 0.844249C72.5565 1.84682 76.9415 3.38222 81.1158 5.6201C81.4144 5.78005 81.7141 5.93805 82.0148 6.09411C85.8525 8.08711 89.3444 10.6571 92.429 13.6862C92.8489 14.0982 93.2734 14.5049 93.6979 14.9121C95.5413 16.6984 97.1956 18.5224 98.6719 20.625C98.7669 20.759 98.8619 20.8929 98.9597 21.0309C103.025 26.8077 105.748 33.103 107.285 39.9903C107.332 40.1967 107.378 40.4031 107.426 40.6158C108.134 43.9472 108.37 47.2722 108.355 50.669C108.354 50.8454 108.354 51.0218 108.354 51.2036C108.348 54.181 108.113 57.0675 107.578 60C107.5 60.4687 107.422 60.9375 107.344 61.4063C107.494 61.3075 107.644 61.2087 107.799 61.1069C109.958 59.7393 109.958 59.7393 111.328 59.7656C112.269 60.1208 112.642 60.3294 113.203 61.1719C113.282 61.6608 113.282 61.6608 113.291 62.1973C113.298 62.3731 113.304 62.549 113.311 62.7301C113.107 63.7716 112.413 64.3512 111.565 64.9371C111.296 65.0959 111.025 65.2521 110.753 65.4062C110.608 65.4908 110.463 65.5753 110.314 65.6624C109.852 65.9305 109.389 66.1952 108.926 66.46C108.618 66.6385 108.311 66.8171 108.004 66.996C103.913 69.3696 103.913 69.3696 102.73 69.3897C100.929 68.8121 100.249 67.1249 99.419 65.5518C99.2972 65.3234 99.1754 65.0949 99.0499 64.8596C98.8041 64.397 98.5594 63.9338 98.3158 63.4701C98.0025 62.8763 97.6828 62.2865 97.3609 61.6974C97.1872 61.3711 97.0138 61.0445 96.8409 60.7178C96.7604 60.5728 96.6799 60.4279 96.597 60.2785C96.0623 59.2414 96.044 58.5449 96.3282 57.4219C96.8184 56.6787 97.1725 56.327 98.0494 56.1209C98.9034 56.0553 99.559 56.0493 100.275 56.554C101.127 57.4989 101.663 58.616 102.188 59.7656C105.207 49.7168 102.453 37.6904 97.6658 28.6586C96.5184 26.5652 95.2164 24.6165 93.75 22.7344C93.6454 22.5999 93.5407 22.4655 93.4328 22.327C85.9893 12.9095 74.9986 6.78033 63.0984 5.25188C61.3145 5.06074 59.5215 5.07471 57.7295 5.08303C57.435 5.08378 57.435 5.08378 57.1346 5.08456C54.2083 5.09663 51.3773 5.19818 48.5157 5.85939C48.2006 5.92924 48.2006 5.92924 47.8793 6.0005C36.17 8.64861 25.6952 15.5924 19.1813 25.7474C14.4595 33.3135 11.9013 41.517 11.8946 50.4492C11.8944 50.6373 11.8943 50.8253 11.8941 51.0191C11.9005 55.8259 12.4985 60.4144 14.0918 64.9732C14.4098 65.9838 14.4626 66.9224 14.2969 67.9688C13.8267 68.6888 13.4948 69.0131 12.6792 69.2945C11.785 69.4729 11.3893 69.4409 10.5396 69.039C9.60368 68.23 9.36267 67.4613 9.00883 66.2988C8.90703 65.9797 8.90703 65.9797 8.80318 65.6541C7.58495 61.6624 6.77346 57.4107 6.74931 53.2288C6.74765 53.037 6.746 52.8451 6.74429 52.6475C6.69122 44.6883 6.69122 44.6883 7.50004 41.0156C7.54536 40.8 7.59068 40.5844 7.63737 40.3623C9.57138 31.3444 13.666 23.2973 19.888 16.4923C20.331 16.0034 20.757 15.5047 21.1817 15C27.9215 7.34734 38.0065 2.78227 47.8125 0.703143C48.0111 0.66077 48.2098 0.618397 48.4144 0.574741C54.3306 -0.614417 61.3729 -0.598181 67.2657 0.703143Z" fill="white"/>
<path d="M66.252 36.8562C69.5063 39.5121 71.8528 42.8788 72.4219 47.1094C72.7408 51.5566 71.6435 55.5746 68.7058 59.0067C65.9519 61.8809 62.2814 63.7199 58.2919 63.832C53.9976 63.8728 50.3 62.6163 47.1456 59.6462C44.0139 56.4974 42.8201 52.7554 42.8169 48.4008C42.8688 44.6557 44.3764 41.2321 46.9748 38.519C48.8817 36.7799 50.988 35.518 53.4375 34.6875C53.6013 34.6301 53.765 34.5727 53.9337 34.5136C58.001 33.3583 62.9047 34.3527 66.252 36.8562ZM50.1325 42.4695C48.0559 44.9967 47.5241 47.6608 47.8125 50.8594C48.3947 53.5671 50.0298 55.8234 52.2657 57.4219C54.8382 58.8267 57.5039 59.3153 60.3809 58.624C63.4149 57.5327 65.3893 55.7021 66.753 52.8076C67.7485 50.5814 67.8358 48.1166 67.0395 45.8057C65.6486 42.5304 63.4774 40.7117 60.2344 39.375C56.4378 38.3734 52.7912 39.6823 50.1325 42.4695Z" fill="white"/>
<path d="M74.9999 87.4219C76.1806 88.5917 76.5551 89.7872 76.9958 91.3669C77.1017 91.7299 77.1017 91.7299 77.2098 92.1001C77.4335 92.8689 77.6524 93.639 77.871 94.4092C78.0939 95.1833 78.3178 95.9572 78.5423 96.7309C78.6815 97.2115 78.8195 97.6925 78.9563 98.1738C79.0182 98.3898 79.0801 98.6058 79.1438 98.8283C79.1981 99.0192 79.2523 99.2102 79.3082 99.4069C79.4162 99.842 79.4162 99.842 79.6874 100.078C79.7235 99.9467 79.7596 99.8153 79.7968 99.6799C80.1744 98.3065 80.5552 96.934 80.9377 95.562C81.0799 95.0506 81.2213 94.5388 81.3618 94.0269C81.5645 93.2892 81.7701 92.5523 81.9763 91.8155C82.069 91.4745 82.069 91.4745 82.1636 91.1266C83.0212 88.09 83.0212 88.09 84.3749 87.1875C85.7015 86.8559 86.4572 87.0107 87.6562 87.6563C88.4874 88.2626 88.5898 89.0865 88.7805 90.0431C88.8185 90.2239 88.8566 90.4048 88.8958 90.5911C89.0332 91.2528 89.1654 91.9153 89.2968 92.5782C89.3507 92.8479 89.4046 93.1176 89.4602 93.3956C89.8379 95.2919 90.206 97.1899 90.5692 99.0891C90.7303 99.9309 90.8938 100.772 91.0578 101.614C91.1854 102.27 91.3112 102.927 91.4366 103.584C91.5247 104.044 91.6146 104.503 91.7046 104.962C92.4505 108.907 92.4505 108.907 91.6699 110.156C90.9972 110.789 90.596 110.908 89.6923 110.947C89.5144 110.959 89.3364 110.97 89.1531 110.982C88.2566 110.785 87.9689 110.423 87.4218 109.688C87.1278 108.814 86.9669 107.928 86.8066 107.022C86.7586 106.771 86.7107 106.52 86.6613 106.262C86.5656 105.761 86.4716 105.259 86.3794 104.757C86.2669 104.154 86.147 103.553 86.0201 102.952C85.9866 102.793 85.9532 102.633 85.9186 102.469C85.8878 102.323 85.8569 102.177 85.8251 102.026C85.6361 101.121 85.5142 100.3 85.5468 99.375C85.3921 99.375 85.2374 99.375 85.0781 99.375C85.0563 99.4999 85.0345 99.6247 85.0121 99.7533C84.6787 101.542 84.2037 103.286 83.7114 105.036C83.5686 105.545 83.4286 106.054 83.2887 106.564C83.1971 106.892 83.1054 107.219 83.0136 107.546C82.9318 107.839 82.8501 108.132 82.766 108.434C82.4062 109.495 82.0967 110.193 81.1523 110.815C79.9682 111.248 79.1596 111.279 78.0029 110.757C76.6687 109.541 76.2396 107.64 75.7507 105.944C75.6668 105.66 75.6668 105.66 75.5813 105.37C75.4057 104.773 75.2321 104.176 75.0585 103.579C74.9387 103.171 74.8188 102.763 74.6987 102.355C74.407 101.362 74.117 100.369 73.8281 99.375C73.7762 99.6742 73.7243 99.9734 73.6708 100.282C73.4769 101.394 73.2784 102.505 73.0785 103.617C72.9927 104.097 72.9081 104.578 72.8249 105.059C72.7048 105.751 72.5802 106.443 72.4548 107.134C72.4186 107.349 72.3824 107.563 72.3452 107.784C72.1262 108.963 71.9035 109.758 71.0156 110.625C70.1985 111.034 69.3289 110.993 68.4374 110.859C67.5985 110.283 67.3193 109.935 67.1026 108.939C67.0263 107.985 67.12 107.141 67.2946 106.209C67.3255 106.033 67.3563 105.857 67.3881 105.675C67.49 105.098 67.5956 104.522 67.7014 103.945C67.7737 103.542 67.846 103.138 67.918 102.735C68.0693 101.89 68.2224 101.046 68.3768 100.203C68.574 99.1244 68.7672 98.0454 68.9591 96.9661C69.1076 96.133 69.2581 95.3003 69.4091 94.4676C69.4811 94.0701 69.5525 93.6724 69.6233 93.2746C69.7228 92.7174 69.8249 92.1607 69.9277 91.604C69.9562 91.4416 69.9847 91.2791 70.0141 91.1117C70.2672 89.7661 70.5871 88.5425 71.5869 87.5684C72.7093 86.8566 73.7945 86.8136 74.9999 87.4219Z" fill="white"/>
<path d="M53.1592 86.8799C53.4004 86.8791 53.6417 86.8784 53.8902 86.8776C56.5149 86.8959 59.1356 87.221 61.1819 89.0131C62.8278 90.7748 63.4422 92.4968 63.424 94.8994C63.323 96.9741 62.4799 98.6695 60.9521 100.078C60.1488 100.733 59.2619 101.215 58.3594 101.719C58.7888 102.222 59.2185 102.725 59.6484 103.228C59.7759 103.377 59.9033 103.526 60.0346 103.679C60.9136 104.705 61.8048 105.718 62.7127 106.718C63.3766 107.496 63.3626 108.167 63.3435 109.157C63.2812 109.688 63.2812 109.688 62.9443 110.391C62.1099 111.042 61.2865 111.207 60.2344 111.094C59.1864 110.608 58.4749 109.831 57.7148 108.984C57.5928 108.85 57.4707 108.716 57.345 108.578C56.3892 107.521 55.4813 106.431 54.5947 105.314C54.1568 104.785 53.6915 104.31 53.2031 103.828C53.2017 104.085 53.2017 104.085 53.2002 104.347C53.1925 105.127 53.1759 105.905 53.1592 106.685C53.1578 106.954 53.1565 107.224 53.1551 107.502C53.0968 109.736 53.0968 109.736 52.4002 110.446C51.4143 111.121 50.8995 111.137 49.7333 110.995C49.2187 110.859 49.2187 110.859 48.6328 110.303C48.0191 109.229 48.0108 108.302 48.0091 107.098C48.0079 106.906 48.0068 106.714 48.0056 106.516C48.0022 105.88 48.0006 105.243 47.9993 104.607C47.9979 104.165 47.9966 103.723 47.9952 103.28C47.9928 102.353 47.9914 101.425 47.9906 100.497C47.9893 99.3093 47.9837 98.1217 47.977 96.934C47.9726 96.0202 47.9714 95.1064 47.971 94.1925C47.9703 93.7547 47.9684 93.3169 47.9654 92.8791C47.9614 92.266 47.9618 91.6529 47.9633 91.0398C47.9612 90.8596 47.959 90.6795 47.9568 90.4939C47.9655 89.3748 48.1437 88.6006 48.75 87.6563C50.1447 86.7788 51.5496 86.855 53.1592 86.8799ZM52.9687 91.875C52.9687 93.5766 52.9687 95.2781 52.9687 97.0313C55.6193 97.2116 55.6193 97.2116 57.8906 96.0938C58.4662 95.2304 58.5493 94.5181 58.3594 93.5156C57.6387 92.5406 56.9621 92.1112 55.7812 91.875C54.8399 91.8401 53.9115 91.8541 52.9687 91.875Z" fill="white"/>
<path d="M42.6563 89.5312C43.172 90.1876 43.124 90.5332 43.1104 91.3916C42.9897 92.117 42.8477 92.4082 42.4219 93.0469C41.4467 93.697 40.7498 93.7433 39.6094 93.5156C38.9437 93.2461 38.306 92.9373 37.6603 92.623C36.0059 91.8885 34.5128 92.063 32.797 92.5461C30.9701 93.254 29.6391 94.553 28.8282 96.3281C28.0926 98.3141 28.2154 100.079 28.9875 102.028C29.8618 103.803 31.2274 104.954 33.0469 105.703C34.8087 106.135 36.5986 106.163 38.2032 105.234C38.5118 104.953 38.8144 104.664 39.1114 104.37C39.8328 103.7 40.3045 103.463 41.294 103.418C42.1318 103.484 42.4194 103.592 43.1397 104.077C43.6931 104.916 43.8455 105.399 43.8282 106.406C43.139 108.211 41.5891 109.437 39.8621 110.24C36.4534 111.512 33.0649 111.393 29.7364 109.893C26.6101 108.217 24.5415 105.469 23.5117 102.138C22.7429 99.2005 23.1548 96.0501 24.5215 93.3545C26.3111 90.3337 28.7841 88.355 32.1515 87.356C35.6928 86.4535 39.8465 87.1062 42.6563 89.5312Z" fill="white"/>
<path d="M59.2969 115.313C60.0293 115.752 60.0293 115.752 60.4688 116.484C60.7005 117.662 60.6509 118.525 60.0293 119.561C58.9934 120.182 58.1312 120.232 56.9531 120C56.2207 119.561 56.2207 119.561 55.7813 118.828C55.5495 117.65 55.5992 116.788 56.2207 115.752C57.2566 115.13 58.1189 115.081 59.2969 115.313Z" fill="white"/>
</g>
<defs>
<clipPath id="clip0_107_197">
<rect width="120" height="120" fill="white"/>
</clipPath>
</defs>
</svg>
