<svg width="120" height="120" viewBox="0 0 120 120" fill="none" xmlns="http://www.w3.org/2000/svg">
<path d="M29.7949 34.8486C30.0923 34.85 30.3897 34.8513 30.6961 34.8526C41.1489 34.9867 49.8696 39.9328 57.1143 47.1831C58.7958 48.9089 60.2526 50.7679 61.6406 52.7344C61.7471 52.8848 61.8536 53.0352 61.9634 53.1902C63.079 54.7802 64.0827 56.404 65.0097 58.1104C68.0062 63.586 72.5722 68.459 78.0468 71.4844C78.3042 71.6288 78.5616 71.7732 78.8268 71.922C84.1388 74.7478 90.2442 75.4981 96.0644 73.9014C99.7027 72.6534 101.748 70.6499 103.466 67.2693C104.445 64.9429 104.655 62.5265 104.634 60.0293C104.632 59.7418 104.63 59.4544 104.628 59.1582C104.559 55.3517 103.592 51.5992 100.884 48.7729C97.5005 45.8614 93.057 45.0376 88.6953 45.2856C83.211 45.6986 77.9545 47.7701 73.8134 51.4453C73.1249 52.0313 73.1249 52.0313 72.4218 52.0313C72.1388 51.6886 72.1388 51.6886 71.8633 51.2073C71.7083 50.9431 71.7083 50.9431 71.5502 50.6736C71.3871 50.3885 71.3871 50.3885 71.2206 50.0977C70.0565 48.1238 68.8237 46.2443 67.3095 44.5148C67.0312 44.0625 67.0312 44.0625 67.0817 43.6077C67.3073 43.0154 67.5461 42.822 68.0547 42.4493C68.2213 42.3269 68.3879 42.2044 68.5596 42.0782C68.8327 41.8858 68.8327 41.8858 69.1113 41.6895C69.3001 41.5554 69.489 41.4214 69.6835 41.2833C77.2414 36.037 86.635 33.6661 95.7861 35.1855C100.072 35.9877 104.075 37.6145 107.344 40.5469C107.556 40.7372 107.768 40.9276 107.987 41.1237C112.452 45.3472 114.765 51.4551 115.127 57.5327C115.149 58.3704 115.155 59.206 115.151 60.0439C115.15 60.3416 115.149 60.6393 115.147 60.946C115.062 67.612 113.118 73.7891 108.281 78.5156C108.099 78.7029 107.916 78.8903 107.728 79.0833C102.582 84.091 95.251 85.1923 88.3914 85.1276C78.0877 84.9076 69.3839 79.4864 62.3794 72.2974C60.8935 70.7297 59.6034 69.0283 58.3593 67.2656C58.1995 67.04 58.1995 67.04 58.0365 66.8098C56.9209 65.2198 55.9172 63.596 54.9902 61.8896C51.9937 56.414 47.4276 51.541 41.9531 48.5156C41.6957 48.3712 41.4382 48.2268 41.173 48.078C35.9149 45.2809 29.5661 44.3699 23.8036 46.0986C20.2521 47.4497 18.2395 49.3753 16.5334 52.7307C15.5566 55.052 15.3444 57.4642 15.3661 59.9561C15.3679 60.2428 15.3697 60.5294 15.3715 60.8248C15.4433 64.7784 16.3619 68.2828 19.1445 71.2344C22.3295 74.0757 26.8346 74.909 30.9896 74.7299C36.5998 74.3596 41.9479 72.3164 46.1865 68.5547C46.8749 67.9688 46.8749 67.9688 47.5781 67.9688C47.8611 68.3114 47.8611 68.3114 48.1365 68.7927C48.2399 68.9688 48.3432 69.1449 48.4496 69.3264C48.5584 69.5164 48.6672 69.7065 48.7792 69.9023C49.9434 71.8762 51.1762 73.7557 52.6904 75.4852C52.9687 75.9375 52.9687 75.9375 52.9166 76.395C52.6957 76.9768 52.4777 77.1527 51.9717 77.5076C51.8121 77.6207 51.6524 77.7338 51.488 77.8503C51.3144 77.9683 51.1407 78.0864 50.9618 78.208C50.782 78.3318 50.6022 78.4556 50.4169 78.5831C46.1674 81.4676 41.6154 83.5902 36.5624 84.6094C36.2008 84.6882 36.2008 84.6882 35.8318 84.7687C28.4886 86.1055 20.3249 84.9178 14.1174 80.6479C13.527 80.194 12.9729 79.7195 12.4218 79.2188C12.21 79.0287 11.9982 78.8387 11.78 78.6429C7.40773 74.5125 5.22741 68.6534 4.8734 62.7018C4.8509 61.864 4.84464 61.0285 4.84857 60.1904C4.84989 59.8927 4.85121 59.5951 4.85257 59.2884C4.93109 53.1769 6.58912 47.0354 10.7812 42.4219C10.9712 42.2101 11.1613 41.9983 11.3571 41.7801C16.1389 36.7182 22.9791 34.8166 29.7949 34.8486Z" fill="white"/>
</svg>
