<svg width="120" height="120" viewBox="0 0 120 120" fill="none" xmlns="http://www.w3.org/2000/svg">
<g clip-path="url(#clip0_107_134)">
<path d="M75.4687 11.3965C77.8942 13.9234 79.5038 16.9801 81.1789 20.0235C81.9827 21.4826 82.8141 22.9238 83.6572 24.3604C83.9307 24.8269 84.2041 25.2936 84.4775 25.7602C84.6144 25.9938 84.7513 26.2274 84.8923 26.468C85.6182 27.7109 86.337 28.958 87.0557 30.2051C87.2016 30.4582 87.3475 30.7114 87.4978 30.9722C87.7935 31.4855 88.0892 31.9987 88.3849 32.512C89.118 33.7844 89.852 35.0562 90.5859 36.3281C90.8789 36.8359 91.1719 37.3438 91.4648 37.8516C91.6099 38.1029 91.7549 38.3543 91.9043 38.6133C98.2031 49.5313 104.502 60.4492 110.801 71.3672C111.019 71.7445 111.019 71.7445 111.241 72.1295C111.532 72.6353 111.824 73.1412 112.116 73.6472C112.865 74.9479 113.617 76.2469 114.374 77.5433C118.242 84.18 121.468 90.4508 119.676 98.4076C118.792 101.725 117.22 104.669 115.078 107.344C114.966 107.491 114.854 107.639 114.738 107.791C111.729 111.577 106.493 114.219 101.719 114.844C99.6079 115.054 97.5114 115.112 95.3913 115.108C95.072 115.108 94.7526 115.109 94.4333 115.109C93.5647 115.11 92.6961 115.109 91.8275 115.109C90.8872 115.108 89.947 115.109 89.0068 115.11C87.1683 115.111 85.3298 115.111 83.4913 115.11C81.9961 115.109 80.501 115.109 79.0059 115.109C78.7926 115.11 78.5793 115.11 78.3595 115.11C77.9261 115.11 77.4927 115.11 77.0593 115.11C73.001 115.11 68.9427 115.11 64.8843 115.108C61.4073 115.107 57.9302 115.108 54.4531 115.109C50.4091 115.11 46.365 115.11 42.3209 115.11C41.8891 115.11 41.4573 115.11 41.0255 115.109C40.8131 115.109 40.6006 115.109 40.3818 115.109C38.8897 115.109 37.3977 115.11 35.9057 115.11C34.0855 115.111 32.2653 115.111 30.4451 115.109C29.5177 115.109 28.5902 115.108 27.6628 115.109C26.8117 115.11 25.9606 115.11 25.1095 115.108C24.6602 115.108 24.211 115.109 23.7618 115.109C16.8772 115.094 10.874 113.492 5.86853 108.569C1.45402 104.009 -0.132635 98.2365 -0.0659228 92.0224C-0.012542 90.1351 0.311298 88.5005 0.937495 86.7188C1.01967 86.484 1.10185 86.2493 1.18652 86.0074C2.68034 82.1535 4.97481 78.5955 7.06089 75.0466C7.79436 73.7943 8.5188 72.5369 9.24316 71.2793C9.38897 71.0263 9.53478 70.7733 9.68502 70.5126C9.98085 69.9992 10.2766 69.4858 10.5724 68.9724C11.3055 67.7 12.0395 66.4282 12.7734 65.1563C13.0664 64.6484 13.3594 64.1406 13.6523 63.6328C15.4102 60.5859 17.168 57.5391 18.9258 54.4922C19.0708 54.2408 19.2159 53.9894 19.3653 53.7304C19.658 53.2229 19.9508 52.7155 20.2436 52.2081C20.9794 50.9329 21.7148 49.6576 22.4496 48.382C23.8611 45.9323 25.2766 43.4852 26.7041 41.0449C27.8936 39.0111 29.0678 36.9689 30.2344 34.9219C31.5321 32.6447 32.8424 30.3752 34.1659 28.1129C35.181 26.3773 36.1883 24.6374 37.1924 22.8955C37.3396 22.6406 37.4867 22.3857 37.6384 22.1231C38.3076 20.9635 38.9747 19.803 39.635 18.6383C43.1443 12.4662 47.3947 7.69637 54.375 5.625C62.0557 3.56017 69.7896 6.05948 75.4687 11.3965ZM51.0937 19.0347C50.1747 20.3145 49.4074 21.6803 48.6332 23.0509C48.1042 23.9842 47.5665 24.9125 47.0298 25.8413C46.5759 26.6268 46.123 27.413 45.6702 28.1992C44.8267 29.6617 43.977 31.1205 43.125 32.5781C41.5436 35.2845 39.9765 37.999 38.412 40.7151C37.6789 41.9875 36.9449 43.2593 36.2109 44.5313C35.918 45.0391 35.625 45.5469 35.332 46.0547C32.4023 51.1328 29.4727 56.2109 26.543 61.2891C26.3979 61.5405 26.2529 61.7919 26.1035 62.0509C25.8107 62.5583 25.5179 63.0658 25.2251 63.5732C24.4894 64.8483 23.7539 66.1236 23.0191 67.3993C21.6022 69.8584 20.1817 72.3152 18.75 74.7656C17.1656 77.4781 15.5908 80.1959 14.0271 82.9205C13.5946 83.6704 13.1574 84.4174 12.7194 85.1642C12.4444 85.6384 12.1694 86.1126 11.8945 86.5869C11.7687 86.7989 11.6428 87.0108 11.5132 87.2292C9.93173 89.978 9.38433 92.8332 10.0058 95.9756C10.917 99.2127 12.7453 101.96 15.6699 103.677C17.9922 104.893 20.2844 105.137 22.8688 105.119C23.2027 105.12 23.5367 105.122 23.8707 105.123C24.7799 105.127 25.689 105.125 26.5982 105.123C27.582 105.12 28.5659 105.124 29.5497 105.126C31.4737 105.13 33.3976 105.13 35.3216 105.127C36.886 105.125 38.4504 105.124 40.0148 105.125C40.3495 105.126 40.3495 105.126 40.691 105.126C41.1443 105.126 41.5977 105.126 42.051 105.127C46.2965 105.129 50.5421 105.126 54.7876 105.121C58.4261 105.117 62.0646 105.118 65.7032 105.122C69.9341 105.127 74.165 105.129 78.3959 105.126C78.8475 105.126 79.2991 105.126 79.7508 105.125C79.973 105.125 80.1951 105.125 80.424 105.125C81.9856 105.124 83.5471 105.126 85.1086 105.128C87.0131 105.13 88.9175 105.13 90.8219 105.125C91.7925 105.122 92.7631 105.121 93.7338 105.124C94.6241 105.127 95.5143 105.126 96.4046 105.121C96.8754 105.119 97.3462 105.122 97.8171 105.125C101.382 105.095 104.337 103.976 106.948 101.528C109.309 99.0038 110.246 95.9629 110.281 92.5406C109.939 90.069 108.974 87.9591 107.725 85.8252C107.509 85.4481 107.509 85.4481 107.288 85.0634C106.841 84.2851 106.39 83.5095 105.937 82.7344C105.664 82.2626 105.39 81.7908 105.116 81.319C104.576 80.3904 104.034 79.4632 103.491 78.5367C102.625 77.0588 101.768 75.5759 100.913 74.0918C100.767 73.8386 100.621 73.5855 100.471 73.3246C100.175 72.8114 99.8795 72.2982 99.5839 71.7849C98.8507 70.5125 98.1167 69.2407 97.3828 67.9688C97.0898 67.4609 96.7969 66.9531 96.5039 66.4453C96.3589 66.1939 96.2139 65.9426 96.0644 65.6836C94.7461 63.3984 94.7461 63.3984 94.3066 62.6366C94.0138 62.1292 93.721 61.6217 93.4282 61.1143C92.6925 59.8392 91.957 58.5639 91.2222 57.2882C89.8107 54.8386 88.3953 52.3915 86.9678 49.9512C85.6971 47.7785 84.4448 45.5957 83.1986 43.409C81.9796 41.2704 80.7468 39.1403 79.5039 37.0156C78.5095 35.3151 77.5219 33.6109 76.5381 31.9043C76.3933 31.6533 76.2486 31.4023 76.0994 31.1437C75.4198 29.9647 74.7409 28.7854 74.0633 27.6053C73.2512 26.1912 72.4367 24.7785 71.6179 23.3683C71.3943 22.983 71.1711 22.5974 70.9489 22.2113C69.059 18.9375 66.9229 16.4491 63.2227 15.249C58.7545 14.2189 54.0749 15.4344 51.0937 19.0347Z" fill="white"/>
<path d="M63.9111 39.8877C65.4648 41.076 66.0511 42.649 66.3281 44.5313C66.3579 45.4743 66.3113 46.4084 66.2588 47.35C66.2462 47.6166 66.2336 47.8831 66.2206 48.1578C66.181 48.9803 66.1376 49.8026 66.0938 50.625C66.0699 51.1089 66.0462 51.5927 66.0228 52.0766C65.8733 55.1171 65.699 58.1563 65.5268 61.1956C65.4644 62.3005 65.4043 63.4055 65.3462 64.5107C65.2751 65.8613 65.2 67.2117 65.122 68.5619C65.0932 69.0718 65.0658 69.5818 65.0399 70.0919C65.0036 70.8018 64.962 71.5111 64.9193 72.2206C64.9052 72.5314 64.9052 72.5314 64.8908 72.8485C64.7881 74.4149 64.3754 75.6974 63.3243 76.8887C63.1892 76.9954 63.0542 77.102 62.915 77.2119C62.7794 77.3228 62.6437 77.4337 62.504 77.5479C61.3599 78.3151 59.909 78.1637 58.5938 78.0469C57.3913 77.7207 56.439 77.0753 55.7914 75.9998C54.6106 73.4351 54.8837 69.829 54.7247 67.0596C54.694 66.5392 54.6631 66.0188 54.6322 65.4984C54.5678 64.4109 54.5045 63.3233 54.4419 62.2357C54.3624 60.8549 54.2804 59.4743 54.1976 58.0937C54.1335 57.0194 54.0707 55.9449 54.0083 54.8705C53.9786 54.3621 53.9485 53.8538 53.918 53.3455C53.77 50.8676 53.6448 48.3928 53.628 45.9101C53.6257 45.7196 53.6234 45.5291 53.6209 45.3329C53.6233 43.3824 54.1405 41.7188 55.5469 40.3125C58.1064 38.1723 61.1278 38.1159 63.9111 39.8877Z" fill="white"/>
<path d="M63.6035 83.1006C64.7582 84.0817 65.8382 85.4281 66.0937 86.9531C66.2478 89.2187 66.0935 90.8145 64.6436 92.6221C63.6065 93.7582 62.2253 94.5696 60.6729 94.7433C58.8184 94.7999 57.3939 94.3159 55.8252 93.3398C54.4746 91.9506 53.6874 90.3849 53.6646 88.4372C53.7741 86.4514 54.2699 85.078 55.7373 83.7158C57.9701 81.8973 61.1273 81.3863 63.6035 83.1006Z" fill="white"/>
</g>
<defs>
<clipPath id="clip0_107_134">
<rect width="120" height="120" fill="white"/>
</clipPath>
</defs>
</svg>
