<svg width="120" height="120" viewBox="0 0 120 120" fill="none" xmlns="http://www.w3.org/2000/svg">
<path d="M56.1328 1.75047C56.4396 1.74958 56.7464 1.74868 57.0625 1.74776C57.7103 1.74638 58.3579 1.74837 59.0057 1.75276C59.8332 1.7581 60.6605 1.75503 61.488 1.74941C62.2811 1.7452 63.0741 1.74816 63.8672 1.75047C64.311 1.74763 64.311 1.74763 64.7639 1.74472C67.3074 1.77187 67.3074 1.77187 68.4375 2.81249C69.6595 4.09606 69.5299 5.56091 69.5507 7.23631C69.5612 7.64599 69.5612 7.64599 69.5718 8.06395C69.5883 8.73535 69.6007 9.40657 69.6093 10.0781C69.9103 10.1437 70.2112 10.2092 70.5212 10.2768C74.3234 11.1296 77.9729 12.3073 81.5625 13.8281C81.7999 13.5186 81.7999 13.5186 82.0422 13.2028C82.2534 12.9278 82.4646 12.6529 82.6757 12.3779C82.7797 12.2424 82.8836 12.1069 82.9907 11.9673C83.295 11.5713 83.6005 11.1762 83.9062 10.7812C84.0736 10.5637 84.241 10.3462 84.4134 10.1221C85.0856 9.32111 85.7523 8.98339 86.7874 8.82292C89.3472 8.67608 91.0319 10.294 92.9585 11.7653C94.2471 12.748 95.5672 13.6731 96.9159 14.5712C99.9664 16.6245 99.9664 16.6245 100.457 18.2675C100.789 20.0497 100.094 21.1178 99.1223 22.5549C98.8993 22.8758 98.8993 22.8758 98.6718 23.2031C98.4027 23.608 98.1341 24.0132 97.8662 24.4189C97.6663 24.717 97.4662 25.0149 97.2656 25.3125C97.4049 25.4578 97.5441 25.6031 97.6876 25.7529C104.297 32.8143 104.297 32.8143 104.297 35.3906C104.481 35.3267 104.481 35.3267 104.668 35.2615C109.817 33.4945 109.817 33.4945 111.616 34.1849C113.551 35.2173 114.07 37.3808 114.707 39.353C114.814 39.6779 114.814 39.6779 114.922 40.0094C115.071 40.4645 115.219 40.9199 115.366 41.3755C115.59 42.069 115.818 42.7614 116.046 43.4537C116.191 43.8982 116.335 44.3429 116.48 44.7876C116.547 44.9925 116.615 45.1974 116.685 45.4085C117.706 48.5982 117.706 48.5982 117.173 49.9658C117.122 50.1093 117.071 50.2528 117.018 50.4007C115.568 52.6231 113.038 52.8274 110.625 53.6719C110.625 57.8484 110.625 62.025 110.625 66.3281C112.172 66.8695 113.719 67.4109 115.312 67.9687C116.974 69.3537 116.974 69.3537 117.187 70.3125C117.345 72.1299 116.979 73.6406 116.408 75.3561C116.328 75.6049 116.247 75.8537 116.165 76.1101C115.995 76.6324 115.823 77.1541 115.65 77.6753C115.386 78.4718 115.129 79.2705 114.873 80.0697C114.707 80.5787 114.54 81.0876 114.372 81.5964C114.296 81.8342 114.22 82.072 114.142 82.317C113.591 83.95 113.072 84.7926 111.606 85.7373C109.855 86.3897 108.334 85.8901 106.641 85.3125C106.437 85.2454 106.233 85.1783 106.023 85.1092C105.525 84.9451 105.028 84.7784 104.531 84.6094C104.458 84.7283 104.385 84.8472 104.31 84.9698C102.78 87.4548 101.216 89.8433 99.375 92.1094C99.2741 92.234 99.1732 92.3587 99.0693 92.4871C98.4725 93.2243 97.8712 93.9575 97.2656 94.6875C98.3806 96.4736 98.3806 96.4736 99.58 98.2031C100.429 99.4014 100.469 100.525 100.312 101.953C99.4142 103.822 97.4351 105.014 95.7861 106.187C95.4156 106.452 95.0451 106.717 94.6746 106.982C94.3902 107.185 94.3902 107.185 94.0999 107.393C93.5068 107.819 92.9167 108.249 92.3272 108.679C92.1361 108.819 91.9449 108.958 91.748 109.102C91.3798 109.371 91.012 109.64 90.6447 109.91C90.3949 110.092 90.3949 110.092 90.14 110.277C89.9207 110.438 89.9207 110.438 89.697 110.601C88.6406 111.282 87.4573 111.188 86.25 111.094C84.6892 110.657 83.8933 109.293 82.9687 108.047C82.7149 107.708 82.461 107.37 82.207 107.032C81.9921 106.745 81.7773 106.458 81.5625 106.172C81.3382 106.259 81.3382 106.259 81.1093 106.347C77.3248 107.803 73.6024 109.163 69.6093 109.922C69.6061 110.177 69.6061 110.177 69.6027 110.437C69.5901 111.213 69.5705 111.988 69.5507 112.764C69.5474 113.031 69.5441 113.299 69.5407 113.575C69.4671 116.106 69.4671 116.106 68.4375 117.187C67.0885 118.43 65.6271 118.261 63.8672 118.249C63.5603 118.25 63.2535 118.251 62.9374 118.252C62.2897 118.254 61.642 118.252 60.9942 118.247C60.1667 118.242 59.3394 118.245 58.5119 118.251C57.7188 118.255 56.9259 118.252 56.1328 118.249C55.8368 118.251 55.5409 118.253 55.236 118.255C52.6925 118.228 52.6925 118.228 51.5625 117.187C50.3404 115.904 50.47 114.439 50.4492 112.764C50.4422 112.491 50.4353 112.217 50.4281 111.936C50.4116 111.265 50.3992 110.593 50.3906 109.922C49.9392 109.824 49.9392 109.824 49.4787 109.723C45.6765 108.87 42.027 107.693 38.4375 106.172C38.2819 106.375 38.1263 106.579 37.966 106.789C37.7569 107.062 37.5479 107.335 37.3388 107.607C37.2369 107.741 37.1349 107.874 37.0298 108.012C36.72 108.416 36.4075 108.818 36.0937 109.219C35.9413 109.416 35.9413 109.416 35.7858 109.617C34.9711 110.641 34.319 111.083 33.0468 111.328C30.8285 111.43 29.1479 109.91 27.4658 108.647C26.2787 107.762 25.091 106.879 23.8824 106.024C23.692 105.888 23.5016 105.753 23.3055 105.614C22.9432 105.357 22.58 105.102 22.2159 104.848C20.8501 103.878 19.8201 102.951 19.4531 101.25C19.422 99.4147 20.3067 98.2666 21.3281 96.7969C21.5972 96.392 21.8658 95.9867 22.1338 95.581C22.3337 95.283 22.5337 94.9851 22.7343 94.6875C22.5951 94.5422 22.4558 94.3968 22.3123 94.2471C15.7031 87.1857 15.7031 87.1857 15.7031 84.6094C15.5067 84.6733 15.5067 84.6733 15.3063 84.7385C14.7022 84.933 14.0967 85.1227 13.4912 85.3125C13.2853 85.3796 13.0794 85.4466 12.8672 85.5157C11.35 85.986 9.87323 86.3314 8.32302 85.8252C8.18193 85.7333 8.04084 85.6415 7.89547 85.5469C7.75136 85.4598 7.60724 85.3728 7.45876 85.2832C6.27836 84.0699 5.80238 82.2247 5.29263 80.647C5.22168 80.4304 5.15073 80.2138 5.07763 79.9906C4.92901 79.5355 4.78113 79.0801 4.63396 78.6244C4.40955 77.9309 4.18177 77.2386 3.95367 76.5463C3.80896 76.1017 3.66445 75.6571 3.52016 75.2124C3.41873 74.9051 3.41873 74.9051 3.31525 74.5915C2.29348 71.4018 2.29348 71.4018 2.82711 70.0342C2.87817 69.8907 2.92923 69.7471 2.98183 69.5993C4.43241 67.3768 6.96234 67.1725 9.37496 66.3281C9.37496 62.1515 9.37496 57.975 9.37496 53.6719C7.82809 53.1305 6.28121 52.589 4.68746 52.0312C3.22564 50.8618 3.22564 50.8618 2.81246 49.6875C2.6137 47.8844 3.02635 46.3423 3.59158 44.6438C3.71226 44.2706 3.71226 44.2706 3.83538 43.8899C4.00531 43.3676 4.17696 42.8458 4.35026 42.3246C4.61428 41.5281 4.87068 40.7294 5.12646 39.9303C5.29309 39.4212 5.46016 38.9123 5.62771 38.4036C5.70369 38.1658 5.77966 37.928 5.85795 37.683C6.40887 36.05 6.92766 35.2073 8.39352 34.2627C10.1448 33.6103 11.6654 34.1098 13.3593 34.6875C13.5633 34.7546 13.7672 34.8216 13.9773 34.8907C14.4753 35.0549 14.9723 35.2216 15.4687 35.3906C15.5799 35.2104 15.5799 35.2104 15.6934 35.0265C17.8254 31.5822 20.112 28.4002 22.7343 25.3125C22.4905 24.9265 22.2463 24.5409 22.0019 24.1553C21.8536 23.9187 21.7052 23.6821 21.5524 23.4384C21.1159 22.7486 21.1159 22.7486 20.6717 22.1841C19.7762 21.0066 19.4889 20.1235 19.5822 18.6346C19.9775 16.4278 22.5087 15.0262 24.2138 13.8135C24.5844 13.5483 24.9548 13.2831 25.3253 13.0179C25.5149 12.8823 25.7046 12.7468 25.9 12.6071C26.4931 12.1812 27.0833 11.7515 27.6727 11.3205C27.8638 11.1811 28.055 11.0417 28.2519 10.898C28.6202 10.6293 28.988 10.36 29.3553 10.09C29.5218 9.96882 29.6883 9.84769 29.8599 9.72289C30.0061 9.61586 30.1523 9.50883 30.3029 9.39856C31.0224 8.93478 31.6842 8.85764 32.5195 8.83299C32.7116 8.82423 32.9038 8.81547 33.1018 8.80644C34.716 9.05497 35.6043 9.9813 36.5345 11.2363C36.6549 11.4051 36.7753 11.574 36.8994 11.748C37.0261 11.9187 37.1529 12.0894 37.2834 12.2653C38.2031 13.5233 38.2031 13.5233 38.2031 14.0625C38.462 13.9462 38.7209 13.8299 38.9877 13.71C41.118 12.7726 43.2552 11.9551 45.4834 11.2793C45.8131 11.1789 45.8131 11.1789 46.1495 11.0764C47.5504 10.6625 48.9534 10.3393 50.3906 10.0781C50.3939 9.82291 50.3939 9.82291 50.3972 9.56255C50.4099 8.78698 50.4295 8.01174 50.4492 7.23631C50.4525 6.96863 50.4558 6.70095 50.4593 6.42516C50.5328 3.89394 50.5328 3.89394 51.5625 2.81249C52.9114 1.57027 54.3728 1.73919 56.1328 1.75047ZM54.375 5.62499C54.3351 7.48989 54.3351 7.48989 54.3052 9.35496C54.2602 10.8228 54.218 11.793 53.2031 12.8906C52.4984 13.4977 51.8976 13.7423 50.9976 13.9636C50.7483 14.027 50.499 14.0903 50.2422 14.1556C49.977 14.2215 49.7117 14.2875 49.4384 14.3555C46.405 15.1398 43.4605 16.063 40.6164 17.3858C39.2178 18.0131 38.0044 18.0194 36.5332 17.6074C34.9787 16.4585 33.9078 14.6995 32.8125 13.125C32.0762 13.2677 31.6014 13.5048 31.0006 13.9499C30.8335 14.0723 30.6664 14.1948 30.4942 14.321C30.3166 14.4532 30.139 14.5854 29.956 14.7217C29.5799 14.9977 29.2036 15.2736 28.8272 15.5493C28.6347 15.6907 28.4422 15.8321 28.2439 15.9778C27.3035 16.6634 26.3523 17.3335 25.4004 18.0029C25.2269 18.1251 25.0534 18.2472 24.8747 18.3731C24.4739 18.6552 24.0729 18.937 23.6718 19.2187C23.7543 19.3411 23.8368 19.4635 23.9218 19.5895C24.1686 19.9574 24.4131 20.3268 24.656 20.6973C24.9401 21.1219 25.234 21.5401 25.5368 21.9516C26.4719 23.2752 26.957 24.2602 26.8295 25.9021C26.5493 27.3746 25.7316 28.1916 24.7412 29.2529C22.4328 31.7352 20.4959 34.5371 18.9331 37.5421C18.3331 38.4921 17.7055 39.02 16.6406 39.375C15.0094 39.6474 13.6223 39.197 12.1005 38.6655C11.9056 38.5988 11.7106 38.5322 11.5098 38.4636C11.032 38.3001 10.555 38.1346 10.0781 37.9687C9.68474 39.1313 9.29283 40.2943 8.90221 41.4578C8.76938 41.8527 8.63618 42.2475 8.50258 42.6422C8.30956 43.2127 8.11796 43.7835 7.9266 44.3545C7.8675 44.5282 7.8084 44.7019 7.7475 44.8808C7.34827 46.0781 7.04872 47.2791 6.79684 48.5156C6.9469 48.565 7.09696 48.6145 7.25157 48.6654C7.93661 48.894 8.61908 49.1295 9.30172 49.3652C9.53783 49.4429 9.77394 49.5205 10.0172 49.6005C11.6452 50.17 12.5687 50.6843 13.3593 52.2656C13.3844 52.7416 13.3942 53.2184 13.3971 53.695C13.3994 53.9954 13.4016 54.2958 13.4039 54.6054C13.4051 54.9351 13.4061 55.2648 13.4069 55.5945C13.4083 55.932 13.4096 56.2695 13.411 56.607C13.4135 57.3155 13.4148 58.024 13.4156 58.7326C13.4169 59.6383 13.4225 60.5441 13.4292 61.4498C13.4336 62.1475 13.4348 62.8453 13.4352 63.543C13.4359 63.8768 13.4378 64.2105 13.4408 64.5443C13.4449 65.0126 13.444 65.481 13.4429 65.9493C13.4437 66.2154 13.4446 66.4815 13.4455 66.7557C13.3196 67.8436 12.9306 68.6187 12.1774 69.4079C11.1967 70.0246 10.1636 70.3616 9.06734 70.7226C8.84906 70.7967 8.63078 70.8707 8.40588 70.9469C7.87021 71.1282 7.33378 71.3069 6.79684 71.4844C7.08241 72.8928 7.45128 74.2386 7.9266 75.5942C7.98836 75.7733 8.05012 75.9524 8.11376 76.1369C8.30847 76.7007 8.50477 77.2639 8.70113 77.8271C8.8346 78.2127 8.96796 78.5983 9.10122 78.9839C9.42563 79.922 9.75146 80.8596 10.0781 81.7969C11.6787 81.4631 11.6787 81.4631 13.2275 80.9473C14.6395 80.4634 15.969 80.4313 17.4023 80.8447C18.3481 81.5541 18.8453 82.4348 19.4531 83.4375C21.2717 86.3494 23.1841 89.0788 25.5679 91.5665C26.5657 92.7764 26.8887 93.8652 26.8469 95.4062C26.6073 96.6914 25.8394 97.637 25.0781 98.6719C24.8077 99.0759 24.539 99.4811 24.2724 99.8877C24.0725 100.186 23.8724 100.484 23.6718 100.781C23.9132 100.952 24.1546 101.122 24.4033 101.298C24.6425 101.466 24.6425 101.466 24.8866 101.639C25.242 101.89 25.5975 102.14 25.953 102.391C26.8951 103.056 27.8361 103.721 28.775 104.39C28.9534 104.517 29.1318 104.644 29.3157 104.775C29.6586 105.018 30.0011 105.263 30.3432 105.507C30.4997 105.619 30.6563 105.73 30.8175 105.844C30.9542 105.942 31.0908 106.039 31.2316 106.139C31.6659 106.423 32.1106 106.652 32.5781 106.875C32.8667 106.519 33.1547 106.162 33.4423 105.806C33.7011 105.485 33.7011 105.485 33.9651 105.158C34.3551 104.657 34.6998 104.158 35.039 103.623C35.6598 102.742 36.4649 102.241 37.5 101.953C38.9694 101.803 40.0061 102.231 41.3232 102.803C41.7409 102.976 42.159 103.149 42.5775 103.321C42.7869 103.407 42.9964 103.493 43.2122 103.582C45.6452 104.555 48.1324 105.328 50.7057 105.828C52.0122 106.1 53.0218 106.538 53.8211 107.637C54.1907 108.382 54.2401 108.9 54.2605 109.729C54.2683 109.973 54.276 110.218 54.284 110.47C54.2928 110.931 54.2928 110.931 54.3017 111.401C54.3259 112.383 54.3501 113.364 54.375 114.375C58.0875 114.375 61.8 114.375 65.625 114.375C65.6648 112.51 65.6648 112.51 65.6948 110.645C65.7397 109.177 65.782 108.207 66.7968 107.109C67.5016 106.502 68.1024 106.258 69.0023 106.036C69.2516 105.973 69.5009 105.91 69.7577 105.844C70.1556 105.745 70.1556 105.745 70.5615 105.645C73.592 104.861 76.5367 103.941 79.3762 102.615C80.1794 102.255 80.831 102.06 81.7236 102.07C81.9275 102.068 82.1315 102.065 82.3416 102.063C84.0486 102.402 84.9181 103.73 85.8691 105.059C85.9969 105.233 86.1247 105.408 86.2564 105.588C86.5689 106.015 86.8791 106.444 87.1875 106.875C87.9238 106.732 88.3986 106.495 88.9993 106.05C89.1664 105.928 89.3335 105.805 89.5057 105.679C89.6833 105.547 89.8609 105.415 90.0439 105.278C90.42 105.002 90.7963 104.726 91.1728 104.451C91.3652 104.309 91.5577 104.168 91.7561 104.022C92.6964 103.337 93.6476 102.666 94.5996 101.997C94.773 101.875 94.9465 101.753 95.1253 101.627C95.5261 101.345 95.927 101.063 96.3281 100.781C96.2456 100.659 96.1631 100.537 96.0782 100.41C95.8314 100.043 95.5868 99.6731 95.3439 99.3027C95.0598 98.8781 94.7659 98.4599 94.4632 98.0484C93.5264 96.7224 93.0999 95.7591 93.132 94.1263C93.4349 92.8865 94.2949 91.9961 95.1346 91.0691C97.5892 88.3523 99.5882 85.2388 101.376 82.0508C101.934 81.2561 102.657 80.8456 103.594 80.625C105.069 80.4949 106.294 80.885 107.681 81.3281C107.897 81.3952 108.113 81.4623 108.336 81.5314C108.865 81.6959 109.394 81.8626 109.922 82.0312C110.315 80.8687 110.707 79.7057 111.098 78.5422C111.231 78.1473 111.364 77.7524 111.497 77.3578C111.69 76.7873 111.882 76.2164 112.073 75.6454C112.132 75.4718 112.192 75.2981 112.252 75.1191C112.652 73.9218 112.951 72.7209 113.203 71.4844C113.06 71.4408 112.917 71.3972 112.77 71.3524C112.117 71.1511 111.466 70.9443 110.815 70.7373C110.59 70.6689 110.366 70.6004 110.134 70.5299C108.677 70.0611 107.692 69.6031 106.851 68.2587C106.575 67.57 106.578 66.9973 106.572 66.2555C106.57 65.9559 106.567 65.6562 106.563 65.3475C106.563 65.021 106.562 64.6945 106.562 64.368C106.56 64.0317 106.559 63.6954 106.557 63.3591C106.554 62.6544 106.553 61.9497 106.554 61.2449C106.554 60.3449 106.547 59.4451 106.539 58.5451C106.534 57.8504 106.533 57.1557 106.533 56.461C106.533 56.1294 106.531 55.7977 106.527 55.4661C106.495 52.2073 106.495 52.2073 107.578 50.8594C108.472 50.2861 109.344 49.9532 110.348 49.6298C110.507 49.5786 110.666 49.5275 110.829 49.4747C111.149 49.3733 111.471 49.2752 111.793 49.1806C112.192 49.0577 112.582 48.9057 112.969 48.75C113.225 47.9825 113.195 47.8457 112.954 47.1139C112.893 46.9278 112.833 46.7416 112.771 46.5499C112.704 46.3499 112.637 46.1499 112.568 45.9439C112.5 45.7379 112.433 45.5319 112.363 45.3197C112.147 44.6607 111.928 44.0027 111.709 43.3447C111.563 42.9003 111.417 42.4558 111.271 42.0112C111.004 41.1987 110.737 40.3861 110.466 39.5745C110.412 39.4111 110.358 39.2477 110.302 39.0794C110.159 38.6541 110.159 38.6541 109.922 38.2031C108.841 38.4204 107.806 38.6634 106.772 39.0527C105.36 39.5365 104.031 39.5687 102.598 39.1553C101.975 38.688 101.71 38.3595 101.296 37.7179C101.111 37.4348 101.111 37.4348 100.923 37.146C100.799 36.9534 100.675 36.7609 100.547 36.5625C100.318 36.2134 100.089 35.8646 99.8602 35.516C99.7474 35.3444 99.6347 35.1728 99.5185 34.996C97.9065 32.5535 96.1923 30.3185 94.1912 28.1781C93.2417 27.0552 93.1391 26.1141 93.1604 24.6643C93.373 23.3302 94.1203 22.3847 94.9218 21.3281C95.1518 21.0013 95.3814 20.6742 95.6103 20.3467C95.7698 20.1291 95.9294 19.9116 96.0937 19.6875C95.0985 18.6178 93.9799 17.7874 92.7978 16.9336C92.3994 16.6441 92.0012 16.3545 91.6031 16.0647C91.4097 15.9241 91.2163 15.7834 91.017 15.6385C90.5308 15.2801 90.0518 14.9152 89.5761 14.5431C89.4475 14.4432 89.319 14.3433 89.1866 14.2403C88.851 13.9779 88.5172 13.7131 88.1836 13.4482C88.0095 13.3415 87.8355 13.2349 87.6562 13.125C86.8728 13.3861 86.7646 13.5307 86.3021 14.1778C86.1818 14.3431 86.0614 14.5084 85.9373 14.6786C85.8133 14.8524 85.6893 15.0261 85.5615 15.2051C85.3165 15.5472 85.0702 15.8884 84.8227 16.2286C84.7142 16.3806 84.6058 16.5325 84.494 16.689C83.8279 17.4812 83.1901 17.9083 82.1631 18.0469C80.7048 18.1486 79.5802 17.635 78.261 17.0653C77.4265 16.7112 76.5808 16.3882 75.7324 16.0693C75.4559 15.9652 75.4559 15.9652 75.1738 15.8589C73.4107 15.2156 71.6102 14.7509 69.7829 14.3271C68.2731 13.9636 67.085 13.6113 66.1377 12.3047C65.1336 10.191 65.5007 8.04828 65.3906 5.62499C61.7554 5.62499 58.1203 5.62499 54.375 5.62499Z" fill="white"/>
<path d="M64.9125 42.7194C66.4815 44.0509 67.401 45.7054 67.574 47.753C67.6772 50.2284 67.3135 51.9025 65.6834 53.8037C65.432 54.0746 65.179 54.3441 64.9217 54.6094C65.0664 54.6722 65.2111 54.7351 65.3602 54.7998C66.9114 55.5176 68.215 56.3872 69.3748 57.6562C69.3748 57.8109 69.3748 57.9656 69.3748 58.125C70.767 57.3129 70.767 57.3129 72.1873 56.4844C71.9649 56.1992 71.7426 55.914 71.5135 55.6201C70.1191 53.8317 70.0477 51.8735 70.3123 49.6875C70.8894 47.61 72.3038 46.3005 74.1355 45.2637C76.1852 44.6383 77.9379 44.6255 79.9217 45.4687C81.6989 46.4257 82.7587 47.8061 83.4373 49.6875C83.7086 51.9055 83.6105 53.9209 82.2654 55.7812C82.0375 56.0219 81.8051 56.2587 81.5623 56.4844C81.7294 56.5756 81.8964 56.6669 82.0686 56.7609C83.9344 57.8507 85.1547 59.0429 86.0301 61.0357C86.3453 62.2399 86.326 63.4054 86.3285 64.6454C86.3309 65.0448 86.3309 65.0448 86.3333 65.4524C86.3356 66.0138 86.3367 66.5752 86.3367 67.1366C86.3377 67.9967 86.3462 68.8565 86.3551 69.7165C86.3565 70.2624 86.3574 70.8084 86.3578 71.3544C86.3612 71.6117 86.3646 71.869 86.368 72.1342C86.3666 72.3736 86.3652 72.613 86.3637 72.8596C86.3643 73.0698 86.365 73.28 86.3657 73.4965C86.2076 74.2685 85.9454 74.5384 85.3123 75C84.6657 75.1127 84.6657 75.1127 83.915 75.1064C83.6335 75.1064 83.352 75.1063 83.062 75.1062C82.7593 75.1014 82.4565 75.0965 82.1446 75.0916C81.8306 75.0898 81.5167 75.0885 81.2027 75.0875C80.3781 75.084 79.5536 75.0748 78.7291 75.0644C77.887 75.0548 77.0449 75.0505 76.2028 75.0458C74.5517 75.0357 72.9008 75.0197 71.2498 75C71.2256 75.2224 71.2015 75.4447 71.1766 75.6738C71.0154 76.4062 71.0154 76.4062 70.3123 76.875C69.652 76.9231 69.0146 76.9438 68.354 76.9431C68.1543 76.9447 67.9545 76.9462 67.7487 76.9479C67.0874 76.9523 66.4262 76.9532 65.7649 76.9537C65.3057 76.9552 64.8465 76.9568 64.3874 76.9585C63.4245 76.9613 62.4617 76.9621 61.4988 76.9619C60.2643 76.9618 59.0299 76.9682 57.7954 76.9763C56.8469 76.9815 55.8986 76.9824 54.9501 76.9822C54.4949 76.9828 54.0398 76.9848 53.5846 76.9884C52.9483 76.993 52.3122 76.9917 51.6759 76.9889C51.4875 76.9915 51.2991 76.9941 51.105 76.9968C50.2774 76.9875 49.7794 76.9398 49.0943 76.4577C48.7498 75.9375 48.7498 75.9375 48.7498 75C48.5757 75.0021 48.4016 75.0042 48.2222 75.0063C46.5808 75.0251 44.9393 75.0394 43.2978 75.0486C42.4539 75.0535 41.61 75.0601 40.7662 75.0707C39.9516 75.0809 39.1372 75.0865 38.3226 75.0889C37.8609 75.0915 37.3992 75.0988 36.9376 75.1062C36.5154 75.1063 36.5154 75.1063 36.0846 75.1064C35.8369 75.1085 35.5891 75.1106 35.3339 75.1127C34.5091 74.9689 34.238 74.7358 33.7498 74.0625C33.6308 73.5013 33.6308 73.5013 33.6285 72.8708C33.6255 72.6336 33.6226 72.3965 33.6195 72.1522C33.6214 71.8971 33.6233 71.6419 33.6253 71.3791C33.6244 71.1149 33.6235 70.8507 33.6226 70.5785C33.6219 70.0192 33.6237 69.4599 33.6276 68.9006C33.6326 68.0492 33.6276 67.1983 33.6216 66.3469C33.6222 65.8026 33.6234 65.2583 33.6253 64.714C33.6234 64.4613 33.6215 64.2085 33.6195 63.9481C33.6392 62.3485 33.9074 61.1643 34.6873 59.7656C34.7712 59.6143 34.8551 59.463 34.9416 59.3071C35.7395 57.9449 37.1034 57.2529 38.4373 56.4844C38.3412 56.3626 38.2451 56.2409 38.1462 56.1154C38.0199 55.952 37.8936 55.7885 37.7635 55.6201C37.6384 55.4597 37.5133 55.2993 37.3844 55.134C36.29 53.5093 36.3337 51.5768 36.5623 49.6875C37.1394 47.61 38.5538 46.3005 40.3855 45.2637C42.4352 44.6383 44.1879 44.6255 46.1717 45.4687C47.9489 46.4257 49.0087 47.8061 49.6873 49.6875C49.9586 51.9055 49.8605 53.9209 48.5154 55.7812C48.1674 56.1293 48.1674 56.1293 47.8123 56.4844C49.2045 57.2965 49.2045 57.2965 50.6248 58.125C50.8568 57.6609 50.8568 57.6609 51.0935 57.1875C52.1932 55.966 53.6025 55.2803 55.0779 54.6094C54.9507 54.4789 54.8235 54.3483 54.6925 54.2139C52.8553 52.2542 52.3642 50.8521 52.3689 48.1651C52.4505 46.0466 53.2586 44.3544 54.7996 42.8906C57.9132 40.4451 61.7136 40.4305 64.9125 42.7194ZM56.865 46.7871C56.3485 47.86 56.2973 48.7513 56.4842 49.9219C57.0302 51.0559 57.6939 51.7196 58.8279 52.2656C59.9985 52.4525 60.8898 52.4013 61.9627 51.8848C62.8027 51.1247 63.4206 50.5161 63.6051 49.3597C63.6652 48.0276 63.5005 47.1915 62.5779 46.1719C61.5582 45.2493 60.7222 45.0846 59.3901 45.1447C58.2337 45.3292 57.6251 45.9471 56.865 46.7871ZM40.781 50.1562C40.4027 50.913 40.4071 51.682 40.5467 52.5C40.9536 53.209 41.4457 53.7698 42.1873 54.1406C43.3882 54.283 43.3882 54.283 44.4899 53.8953C45.3813 53.1614 45.6764 52.7657 45.7908 51.6211C45.7851 50.8358 45.6457 50.426 45.1463 49.8193C44.319 49.0117 43.8447 48.8917 42.6808 48.9001C41.8086 49.049 41.3897 49.5328 40.781 50.1562ZM74.531 50.1562C74.1527 50.913 74.1571 51.682 74.2967 52.5C74.7036 53.209 75.1957 53.7698 75.9373 54.1406C77.1382 54.283 77.1382 54.283 78.2399 53.8953C79.1313 53.1614 79.4264 52.7657 79.5408 51.6211C79.5351 50.8358 79.3957 50.426 78.8963 49.8193C78.069 49.0117 77.5947 48.8917 76.4308 48.9001C75.5586 49.049 75.1397 49.5328 74.531 50.1562ZM54.1404 59.7656C52.6013 61.5548 52.4256 63.7317 52.454 66.0068C52.4545 66.1889 52.455 66.3711 52.4555 66.5588C52.4579 67.229 52.4644 67.8992 52.4705 68.5693C52.4802 70.0727 52.4898 71.5761 52.4998 73.125C57.4498 73.125 62.3998 73.125 67.4998 73.125C67.5095 71.6216 67.5191 70.1183 67.5291 68.5693C67.5334 68.0991 67.5376 67.6289 67.542 67.1444C67.5434 66.7652 67.5446 66.386 67.5456 66.0068C67.548 65.8151 67.5504 65.6235 67.5528 65.4261C67.5535 63.3726 67.2795 61.3379 65.8592 59.7656C62.8594 57.4268 57.1428 57.1828 54.1404 59.7656ZM38.4519 61.3477C37.5934 62.7006 37.4413 63.9699 37.454 65.5508C37.4552 65.8513 37.4564 66.1517 37.4576 66.4613C37.4618 66.8379 37.4661 67.2145 37.4705 67.6025C37.4802 68.8062 37.4898 70.0099 37.4998 71.25C41.2123 71.25 44.9248 71.25 48.7498 71.25C48.7643 70.056 48.7788 68.862 48.7937 67.6318C48.8001 67.2595 48.8065 66.8871 48.8131 66.5035C48.8845 63.727 48.8845 63.727 47.7477 61.2732C46.4615 60.0784 44.838 59.9126 43.1541 59.9268C42.9899 59.9281 42.8258 59.9294 42.6567 59.9308C41.0384 59.9686 39.5963 60.1178 38.4519 61.3477ZM72.2019 61.3477C71.3434 62.7006 71.1913 63.9699 71.204 65.5508C71.2052 65.8513 71.2064 66.1517 71.2076 66.4613C71.2118 66.8379 71.2161 67.2145 71.2205 67.6025C71.2302 68.8062 71.2398 70.0099 71.2498 71.25C74.9623 71.25 78.6748 71.25 82.4998 71.25C82.5143 70.056 82.5288 68.862 82.5437 67.6318C82.5501 67.2595 82.5565 66.8871 82.5631 66.5035C82.6345 63.727 82.6345 63.727 81.4977 61.2732C80.2115 60.0784 78.588 59.9126 76.9041 59.9268C76.7399 59.9281 76.5758 59.9294 76.4067 59.9308C74.7884 59.9686 73.3463 60.1178 72.2019 61.3477Z" fill="white"/>
<path d="M93.9842 39.375C96.8036 44.2565 98.7384 49.6957 99.3748 55.3125C99.4008 55.5394 99.4268 55.7663 99.4536 56.0001C100.453 66.1718 97.5024 76.6012 91.0633 84.5645C84.4269 92.6419 74.9905 98.2612 64.4654 99.3218C60.2427 99.6358 55.943 99.5741 51.7967 98.6719C51.5218 98.6134 51.5218 98.6134 51.2413 98.5538C46.2873 97.4652 41.7647 95.2879 37.4998 92.5781C37.5437 92.7022 37.5875 92.8264 37.6326 92.9542C37.8298 93.5166 38.0238 94.08 38.2176 94.6436C38.2866 94.8389 38.3557 95.0342 38.4268 95.2354C38.491 95.4235 38.5552 95.6116 38.6214 95.8054C38.6815 95.9784 38.7416 96.1515 38.8036 96.3298C38.9061 96.7969 38.9061 96.7969 38.6717 97.5C38.0778 97.7438 37.5111 97.9453 36.8992 98.1299C36.6493 98.209 36.6493 98.209 36.3943 98.2896C35.9824 98.4196 35.5693 98.5461 35.1561 98.6719C34.5486 97.061 33.9445 95.4489 33.3425 93.8359C33.0606 93.084 32.7752 92.3334 32.4892 91.5829C32.3184 91.1286 32.1478 90.6742 31.9774 90.2197C31.8557 89.9047 31.8557 89.9047 31.7316 89.5833C31.3105 88.4504 30.9697 87.4727 31.1717 86.25C31.5884 85.6245 31.5884 85.6245 32.3436 85.0781C33.2882 84.9141 34.2191 84.9419 35.1753 84.9637C35.4494 84.9653 35.7234 84.967 36.0058 84.9687C36.8799 84.9753 37.7537 84.99 38.6278 85.0049C39.2209 85.0108 39.814 85.0161 40.4071 85.0209C41.86 85.0338 43.3127 85.054 44.7655 85.0781C44.7655 86.393 44.7655 87.7078 44.7655 89.0625C43.2959 89.1398 41.8264 89.2172 40.3123 89.2969C45.0801 92.0639 49.9977 94.299 55.5467 94.9219C55.7733 94.9476 55.9999 94.9732 56.2334 94.9997C65.3535 95.888 74.9033 93.2778 82.0311 87.4219C83.0819 86.5206 84.0823 85.5707 85.078 84.6094C85.2311 84.471 85.3843 84.3326 85.5421 84.1901C91.39 78.7728 94.8276 69.7821 95.1845 61.9557C95.4224 54.882 93.9553 48.6029 90.6412 42.3629C90.4686 41.9531 90.4686 41.9531 90.4686 41.25C90.9622 40.8864 91.436 40.5758 91.9627 40.2686C92.1748 40.1392 92.1748 40.1392 92.3912 40.0072C93.4468 39.375 93.4468 39.375 93.9842 39.375Z" fill="white"/>
<path d="M82.4998 27.4219C82.3932 27.0164 82.2856 26.6111 82.1775 26.206C82.0878 25.8675 82.0878 25.8675 81.9962 25.5221C81.8147 24.8459 81.8147 24.8459 81.5238 24.2459C81.2792 23.5292 81.259 23.1976 81.5623 22.5C82.2352 22.1292 82.2352 22.1292 83.0711 21.8408C83.3463 21.7426 83.6215 21.6444 83.9051 21.5433C84.6091 21.3281 84.6091 21.3281 85.0779 21.3281C85.6099 22.7659 86.1394 24.2046 86.6672 25.644C86.8469 26.1332 87.0272 26.6221 87.208 27.1109C87.4685 27.8149 87.7268 28.5196 87.9847 29.2245C88.0655 29.4416 88.1463 29.6588 88.2296 29.8824C89.2843 32.7817 89.2843 32.7817 88.7693 33.9404C88.3591 34.4531 88.3591 34.4531 87.656 34.9219C87.1088 34.9782 87.1088 34.9782 86.4574 34.9751C86.2135 34.975 85.9695 34.975 85.7182 34.975C85.3237 34.9713 85.3237 34.9713 84.9213 34.9676C84.6518 34.967 84.3823 34.9663 84.1046 34.9656C83.2425 34.963 82.3804 34.9571 81.5183 34.9512C80.9344 34.9488 80.3504 34.9467 79.7665 34.9448C78.3338 34.9396 76.9012 34.9315 75.4685 34.9219C75.4685 33.607 75.4685 32.2922 75.4685 30.9375C76.9381 30.8601 78.4076 30.7828 79.9216 30.7031C71.377 25.7881 62.1556 23.1612 52.2654 25.5469C52.0955 25.5858 51.9255 25.6248 51.7504 25.665C45.9274 27.0262 40.5397 29.8952 36.1613 33.9661C35.7911 34.3021 35.4085 34.6248 35.0169 34.9356C28.9038 39.8678 25.6325 48.8816 24.7273 56.4175C23.9395 63.9964 25.7069 71.2243 29.3635 77.8482C29.531 78.2812 29.531 78.2812 29.2967 78.9844C28.675 79.4119 28.675 79.4119 27.9051 79.8486C27.5248 80.0675 27.5248 80.0675 27.1369 80.2908C26.4842 80.625 26.4842 80.625 26.0154 80.625C20.544 70.9614 18.8249 60.0313 21.754 49.2306C23.4583 43.3567 26.336 37.8586 30.5839 33.4332C31.0043 32.9893 31.3953 32.5498 31.7814 32.0782C37.4842 25.2609 47.5063 21.3784 56.128 20.5463C65.411 19.7971 74.8633 21.9584 82.4998 27.4219Z" fill="white"/>
</svg>
