<svg width="120" height="120" viewBox="0 0 120 120" fill="none" xmlns="http://www.w3.org/2000/svg">
<g clip-path="url(#clip0_107_183)">
<path d="M30.0548 -0.0947104C30.5526 -0.0960491 31.0503 -0.0976821 31.5481 -0.0995849C32.8924 -0.103771 34.2366 -0.103517 35.5809 -0.102177C36.7067 -0.101449 37.8325 -0.102883 38.9582 -0.104295C41.6161 -0.107581 44.2738 -0.107226 46.9316 -0.104552C49.6656 -0.101863 52.3994 -0.105159 55.1333 -0.111442C57.4879 -0.116649 59.8425 -0.118188 62.1971 -0.116815C63.6002 -0.116028 65.0032 -0.116572 66.4062 -0.120624C67.7265 -0.124271 69.0468 -0.123299 70.3671 -0.118912C70.8489 -0.118053 71.3307 -0.118759 71.8125 -0.121229C75.3505 -0.137964 78.7175 0.109894 81.8995 1.83104C82.1329 1.95326 82.1329 1.95326 82.3711 2.07795C83.6189 2.748 84.7337 3.4954 85.7813 4.45311C86.0949 4.73454 86.0949 4.73454 86.4149 5.02166C89.7869 8.20484 91.9844 12.5616 92.1806 17.2299C92.2144 18.477 92.2189 19.7235 92.214 20.971C92.212 21.7553 92.2188 22.5392 92.2262 23.3235C92.2265 23.8269 92.2264 24.3303 92.2257 24.8337C92.2283 25.0656 92.231 25.2976 92.2337 25.5366C92.2169 27.2199 91.9093 28.5664 90.6849 29.7793C89.1875 30.73 88.0257 31.1422 86.2354 30.791C85.0844 30.4473 84.0822 29.9029 83.3969 28.8906C82.784 27.7105 82.599 26.7618 82.6081 25.4407C82.6039 25.1659 82.6039 25.1659 82.5997 24.8856C82.5915 24.3052 82.5893 23.725 82.5879 23.1445C82.5904 17.196 82.5904 17.196 79.6921 12.1454C77.3169 10.0045 74.5182 9.57141 71.4267 9.57803C71.2414 9.57749 71.0561 9.57696 70.8652 9.57642C70.2492 9.57494 69.6333 9.57512 69.0173 9.57532C68.5736 9.57462 68.13 9.57382 67.6863 9.57293C66.4843 9.57087 65.2824 9.57031 64.0805 9.57016C63.3285 9.57 62.5766 9.5695 61.8247 9.56888C59.1985 9.56671 56.5723 9.56575 53.9461 9.56593C51.5029 9.56607 49.0596 9.5636 46.6164 9.5599C44.5148 9.55683 42.4132 9.55558 40.3116 9.55573C39.0582 9.55579 37.8048 9.55513 36.5514 9.55264C35.3717 9.55036 34.1921 9.55036 33.0124 9.55206C32.5813 9.5523 32.1501 9.55176 31.7189 9.55033C27.8388 9.53836 24.2877 9.62835 21.2861 12.4173C18.7609 15.2188 18.7144 18.5189 18.7187 22.0886C18.7183 22.4285 18.7177 22.7684 18.7171 23.1083C18.7157 24.0393 18.7157 24.9702 18.716 25.9012C18.716 26.9065 18.7147 27.9117 18.7136 28.917C18.7117 30.8854 18.711 32.8537 18.7109 34.8221C18.7108 36.4225 18.7103 38.023 18.7096 39.6234C18.7075 44.1634 18.7064 48.7034 18.7066 53.2434C18.7066 53.6104 18.7066 53.6104 18.7066 53.9847C18.7066 54.3521 18.7066 54.3521 18.7067 54.727C18.7068 58.6958 18.7045 62.6646 18.7012 66.6334C18.6978 70.7111 18.6962 74.7887 18.6964 78.8664C18.6965 81.1547 18.6959 83.443 18.6933 85.7313C18.6912 87.6796 18.6907 89.628 18.6923 91.5764C18.693 92.5697 18.6931 93.5631 18.691 94.5565C18.6892 95.4673 18.6895 96.3781 18.6916 97.289C18.6919 97.617 18.6915 97.9451 18.6902 98.2731C18.6766 101.902 18.995 105.096 21.558 107.855C23.9332 109.995 26.7319 110.429 29.8234 110.422C30.0087 110.422 30.194 110.423 30.3849 110.424C31.0009 110.425 31.6168 110.425 32.2328 110.425C32.6765 110.425 33.1202 110.426 33.5638 110.427C34.7658 110.429 35.9677 110.43 37.1696 110.43C37.9216 110.43 38.6735 110.43 39.4255 110.431C42.0516 110.433 44.6778 110.434 47.304 110.434C49.7472 110.434 52.1905 110.436 54.6337 110.44C56.7353 110.443 58.8369 110.444 60.9385 110.444C62.1919 110.444 63.4453 110.445 64.6987 110.447C65.8784 110.45 67.058 110.45 68.2377 110.448C68.6689 110.448 69.1001 110.448 69.5312 110.45C73.4113 110.462 76.9624 110.372 79.964 107.583C82.2356 105.062 82.5233 102.104 82.5495 98.8605C82.5561 98.403 82.5628 97.9455 82.5696 97.4881C82.5793 96.7742 82.588 96.0604 82.5941 95.3466C82.6006 94.6525 82.6113 93.9587 82.6227 93.2648C82.6235 93.0523 82.6243 92.8399 82.625 92.621C82.6549 91.0816 82.9531 90.0943 83.9795 88.9014C85.3361 87.7341 86.4049 87.5394 88.1626 87.5894C89.6168 87.7354 90.4755 88.4495 91.4063 89.5312C92.3164 90.8822 92.2151 92.2442 92.2111 93.8141C92.2123 94.0945 92.2135 94.375 92.2148 94.6639C92.2163 95.2577 92.216 95.8514 92.214 96.4452C92.212 97.3423 92.2187 98.239 92.2262 99.136C92.2374 102.907 92.1127 106.399 90.2784 109.79C90.1969 109.946 90.1154 110.101 90.0315 110.262C89.3614 111.509 88.614 112.624 87.6563 113.672C87.4687 113.881 87.2811 114.09 87.0878 114.305C83.9811 117.596 79.6653 119.858 75.0908 120.066C73.7924 120.102 72.4941 120.098 71.1953 120.095C70.6976 120.096 70.1998 120.098 69.7021 120.1C68.3578 120.104 67.0135 120.103 65.6692 120.102C64.5434 120.101 63.4176 120.103 62.2919 120.104C59.6341 120.108 56.9763 120.107 54.3185 120.105C51.5846 120.102 48.8507 120.105 46.1168 120.111C43.7622 120.117 41.4076 120.118 39.053 120.117C37.65 120.116 36.2469 120.117 34.8439 120.121C33.5236 120.124 32.2034 120.123 30.883 120.119C30.4012 120.118 29.9194 120.119 29.4376 120.121C25.8996 120.138 22.5326 119.89 19.3506 118.169C19.195 118.087 19.0393 118.006 18.879 117.922C17.6312 117.252 16.5164 116.505 15.4688 115.547C15.2597 115.359 15.0507 115.172 14.8353 114.978C11.5736 111.899 9.41842 107.719 9.0759 103.21C9.04997 102.264 9.04562 101.321 9.04982 100.376C9.04884 100.012 9.04756 99.6488 9.046 99.2854C9.04263 98.2947 9.0436 97.3041 9.04533 96.3135C9.04645 95.2419 9.0435 94.1703 9.04111 93.0988C9.03709 91.0025 9.03688 88.9063 9.03811 86.8101C9.03906 85.1054 9.03872 83.4006 9.03747 81.6959C9.03729 81.4528 9.03712 81.2097 9.03694 80.9593C9.03658 80.4654 9.03622 79.9715 9.03586 79.4776C9.03264 74.8507 9.03391 70.2239 9.0366 65.5971C9.03893 61.3698 9.0359 57.1426 9.03029 52.9153C9.02457 48.5685 9.02232 44.2217 9.02388 39.8749C9.0247 37.437 9.02418 34.9991 9.02007 32.5612C9.01661 30.4858 9.01648 28.4104 9.02056 26.335C9.02254 25.2774 9.02307 24.2198 9.01947 23.1622C9.0162 22.1916 9.01736 21.2212 9.02187 20.2506C9.02274 19.9019 9.02208 19.5532 9.01961 19.2045C8.99914 16.0851 9.46958 12.9871 10.9717 10.21C11.0532 10.0543 11.1347 9.89865 11.2186 9.73828C11.8887 8.49055 12.6361 7.37568 13.5938 6.32811C13.7814 6.11904 13.969 5.90997 14.1624 5.69457C18.5689 1.02657 23.9116 -0.1097 30.0548 -0.0947104Z" fill="white"/>
<path d="M52.8077 41.25C53.88 42.0479 54.8845 43.0127 55.3126 44.2969C55.5041 46.0472 55.5193 47.5014 54.4117 48.9276C53.3159 50.067 52.0925 51.0469 50.8595 52.0312C50.4343 52.3774 50.0094 52.7241 49.585 53.0713C49.2737 53.3246 49.2737 53.3246 48.9561 53.5831C48.034 54.345 47.1289 55.1259 46.223 55.9069C45.136 56.8421 44.0319 57.7531 42.9163 58.6542C42.1328 59.2672 42.1328 59.2672 41.8461 60.1858C41.9874 61.1773 42.4627 61.5724 43.1983 62.1826C43.3901 62.3496 43.3901 62.3496 43.5857 62.52C43.9752 62.8568 44.3692 63.1871 44.7657 63.5156C44.9787 63.6927 45.1917 63.8697 45.4111 64.0521C45.8262 64.3924 46.2429 64.7307 46.6608 65.0674C47.5901 65.8261 48.4965 66.6101 49.4046 67.3939C50.2635 68.1332 51.1339 68.8546 52.0167 69.5654C55.1452 72.1172 55.1452 72.1172 55.4078 74.0661C55.4548 75.6888 55.3391 76.7942 54.3201 78.0917C53.293 79.1439 52.1662 79.615 50.6983 79.7067C48.6405 79.6337 47.3258 78.5119 45.8319 77.1946C45.3089 76.7343 44.7789 76.2823 44.2495 75.8293C43.9677 75.5881 43.6862 75.3465 43.4051 75.1045C42.3716 74.2151 41.3213 73.3486 40.2631 72.4887C39.2551 71.6628 38.2604 70.8217 37.2694 69.9756C36.8506 69.6197 36.4292 69.2669 36.0023 68.9209C34.0501 67.3114 32.6509 65.0649 32.1095 62.5781C31.9015 60.093 31.8397 57.5515 33.047 55.3125C33.1609 55.0971 33.2748 54.8817 33.3921 54.6597C34.3561 53.0029 35.5554 51.8296 37.0313 50.625C37.2319 50.4597 37.4325 50.2945 37.6392 50.1242C38.0618 49.7781 38.4854 49.4333 38.91 49.0896C39.7003 48.4411 40.4758 47.777 41.2501 47.1094C42.434 46.0896 43.6288 45.086 44.8435 44.1028C45.2856 43.7429 45.7241 43.3787 46.1601 43.0115C46.4995 42.7269 46.4995 42.7269 46.8458 42.4365C47.0482 42.2652 47.2506 42.0939 47.4592 41.9174C49.0366 40.7552 50.9608 40.6924 52.8077 41.25Z" fill="white"/>
<path d="M92.2998 40.957C92.5381 40.951 92.7765 40.9449 93.0221 40.9387C94.5807 41.1034 95.6 42.0356 96.7236 43.0371C97.0136 43.291 97.3038 43.5446 97.5943 43.7979C97.7368 43.9227 97.8794 44.0474 98.0263 44.1759C98.6022 44.6736 99.1927 45.1521 99.7851 45.6299C100.81 46.4616 101.79 47.3328 102.765 48.2217C103.384 48.7724 104.019 49.2974 104.663 49.8193C104.877 49.9943 105.091 50.1692 105.312 50.3494C105.71 50.6742 106.11 50.9973 106.511 51.3181C107.897 52.4731 108.838 53.7228 109.687 55.3125C109.79 55.5016 109.892 55.6908 109.997 55.8856C111.056 58.2489 111.073 61.5696 110.244 64.0137C110.071 64.4005 109.886 64.7818 109.687 65.1562C109.583 65.3599 109.478 65.5635 109.37 65.7733C108.216 67.8459 106.626 69.1751 104.799 70.6467C103.967 71.3226 103.158 72.0252 102.349 72.7295C102.2 72.8584 102.052 72.9874 101.899 73.1203C101.598 73.3824 101.297 73.6446 100.995 73.9069C99.88 74.8766 98.7603 75.8411 97.6327 76.7967C97.291 77.0877 96.9522 77.3822 96.6137 77.677C95.1167 78.943 93.7575 79.7944 91.7431 79.6875C90.2244 79.4357 89.0492 78.6889 88.125 77.4609C87.4014 76.1752 87.4932 74.7873 87.6562 73.3594C88.2805 71.1951 90.7152 69.6126 92.4014 68.2617C93.0256 67.7517 93.6235 67.223 94.2187 66.6797C95.0096 65.9586 95.8167 65.2708 96.6504 64.5996C97.6225 63.8055 98.5899 63.0074 99.5361 62.1826C99.6602 62.0796 99.7844 61.9766 99.9123 61.8705C100.499 61.3489 100.766 61.0074 100.937 60.2344C100.73 59.3004 100.245 58.874 99.5361 58.2861C99.4089 58.1753 99.2818 58.0644 99.1508 57.9502C98.1239 57.0619 97.0688 56.2061 96.0113 55.3546C95.397 54.849 94.8066 54.3251 94.2187 53.7891C93.4077 53.0501 92.5799 52.3423 91.7285 51.6504C91.5149 51.4764 91.3013 51.3023 91.0812 51.123C90.6957 50.8095 90.3094 50.4969 89.9221 50.1855C88.6625 49.1385 87.7596 48.2934 87.5766 46.6122C87.5029 44.0148 87.5029 44.0148 88.3593 42.8906C89.6254 41.6272 90.469 40.9847 92.2998 40.957Z" fill="white"/>
<path d="M79.3084 36.7758C80.5362 37.5017 81.5728 38.4686 82.0311 39.8437C82.457 42.8324 81.3378 45.7012 80.5059 48.5266C80.3452 49.0831 80.1849 49.6398 80.025 50.1966C79.6021 51.665 79.1745 53.1321 78.7457 54.5989C78.3229 56.0481 77.9043 57.4985 77.4856 58.9489C76.9904 60.6632 76.4946 62.3772 75.9953 64.0903C75.1792 66.892 74.3717 69.6956 73.5847 72.5056C73.4342 73.041 73.2836 73.5764 73.133 74.1117C72.8519 75.1113 72.574 76.1117 72.2978 77.1126C72.172 77.5602 72.0462 78.0078 71.9202 78.4554C71.8658 78.6559 71.8114 78.8565 71.7554 79.0631C71.2881 80.7055 70.628 81.9956 69.1662 82.9577C67.792 83.6397 66.3549 83.8164 64.8632 83.4667C63.5857 82.9989 62.7878 82.2669 62.1093 81.0937C61.4821 79.6021 61.6293 78.3019 62.043 76.773C62.0857 76.6092 62.1284 76.4455 62.1724 76.2767C62.6151 74.5919 63.0866 72.9149 63.565 71.2399C63.66 70.9055 63.7549 70.5711 63.8498 70.2367C64.1046 69.3397 64.3601 68.4428 64.6159 67.5461C64.7764 66.9834 64.9368 66.4207 65.0971 65.858C65.1509 65.6691 65.2047 65.4802 65.2602 65.2856C65.3145 65.0949 65.3688 64.9043 65.4248 64.7078C65.764 63.5173 66.1033 62.3268 66.4429 61.1363C67.1599 58.6216 67.8718 56.1055 68.58 53.5882C68.9905 52.1294 69.4027 50.6711 69.8155 49.2129C70.0991 48.2105 70.3818 47.2078 70.6625 46.2046C70.9264 45.2612 71.1927 44.3185 71.4608 43.3763C71.5587 43.0304 71.6558 42.6843 71.7519 42.3379C71.8838 41.8632 72.0188 41.3896 72.1545 40.916C72.2292 40.6508 72.3038 40.3857 72.3808 40.1125C72.9473 38.5952 73.8264 37.4736 75.3039 36.7776C76.5767 36.3454 78.0431 36.2925 79.3084 36.7758Z" fill="white"/>
<path d="M47.2852 16.5473C47.5504 16.5466 47.8156 16.5459 48.0888 16.5452C48.6483 16.5448 49.2077 16.5461 49.7672 16.549C50.6221 16.5528 51.4767 16.549 52.3316 16.5445C52.876 16.545 53.4204 16.5459 53.9649 16.5473C54.2198 16.5459 54.4747 16.5444 54.7373 16.543C56.4101 16.5585 57.4551 16.7673 58.7549 17.8858C59.9075 19.2253 60.1348 20.2983 60.0788 22.0386C59.933 23.3271 59.5662 24.1726 58.58 25.0278C56.8911 26.2326 55.3389 26.2868 53.3222 26.2894C53.1101 26.2902 52.8981 26.291 52.6796 26.2918C52.2324 26.293 51.7853 26.2935 51.3381 26.2935C50.6582 26.294 49.9783 26.2982 49.2984 26.3027C48.8623 26.3034 48.4262 26.3038 47.9901 26.3041C47.7889 26.3057 47.5877 26.3074 47.3803 26.3092C45.4274 26.3018 43.6255 26.0329 42.1875 24.6094C41.0884 23.2119 41.0517 21.6368 41.25 19.9219C41.7086 18.5944 42.5337 17.7373 43.6954 16.9642C44.8949 16.4999 46.0096 16.5402 47.2852 16.5473Z" fill="white"/>
<path d="M52.8369 94.2627C53.9927 95.0802 54.8451 95.9125 55.3125 97.2656C55.4858 98.7635 55.5005 100.215 54.7165 101.542C53.8397 102.598 52.6747 103.36 51.3135 103.594C49.567 103.594 48.1427 103.208 46.875 101.953C45.7759 100.556 45.7392 98.9805 45.9375 97.2656C46.405 95.9125 47.2574 95.0802 48.4131 94.2627C49.8649 93.7612 51.3851 93.7612 52.8369 94.2627Z" fill="white"/>
</g>
<defs>
<clipPath id="clip0_107_183">
<rect width="120" height="120" fill="white"/>
</clipPath>
</defs>
</svg>
