<svg width="25" height="25" viewBox="0 0 25 25" fill="none" xmlns="http://www.w3.org/2000/svg">
<g clip-path="url(#clip0_134_1606)">
<path d="M11.1191 5.46249C11.1562 5.46217 11.1933 5.46185 11.2315 5.46152C11.3536 5.46066 11.4758 5.46084 11.598 5.46111C11.6831 5.4609 11.7683 5.46065 11.8535 5.46036C12.0318 5.45995 12.2102 5.46006 12.3886 5.46053C12.6169 5.46106 12.8452 5.46012 13.0734 5.45875C13.2493 5.45789 13.4252 5.4579 13.601 5.45817C13.6852 5.45818 13.7693 5.45789 13.8535 5.45731C13.9713 5.45661 14.089 5.45711 14.2068 5.45792C14.2414 5.45746 14.276 5.45701 14.3116 5.45654C14.5503 5.45994 14.6845 5.52006 14.8691 5.66893C15.0494 5.8782 15.0361 6.11732 15.0508 6.38085C15.0828 6.79272 15.1178 7.14175 15.4267 7.44304C15.6944 7.65956 15.9579 7.75456 16.3021 7.74645C16.5743 7.71056 16.8198 7.58818 17.0488 7.44139C17.29 7.31653 17.5131 7.27936 17.7818 7.3275C18.0898 7.44246 18.2199 7.72525 18.3707 7.99728C18.4414 8.12389 18.5141 8.24929 18.5869 8.37468C18.7224 8.60807 18.8572 8.84189 18.9915 9.07595C19.1057 9.27474 19.2202 9.47332 19.3349 9.6718C19.3511 9.69989 19.3674 9.72798 19.3841 9.75693C19.4625 9.8927 19.541 10.0285 19.6195 10.1642C19.6474 10.2127 19.6754 10.2611 19.7042 10.311C19.7413 10.3752 19.7413 10.3752 19.7792 10.4408C19.8652 10.5919 19.8943 10.6833 19.8994 10.8574C19.9012 10.8963 19.9029 10.9351 19.9047 10.9751C19.8729 11.1846 19.7878 11.3591 19.6249 11.4949C19.5432 11.5487 19.4602 11.5975 19.375 11.6455C18.9918 11.8782 18.7527 12.084 18.6382 12.5339C18.5849 12.8677 18.6584 13.1742 18.8535 13.4502C19.0361 13.6492 19.2398 13.788 19.4746 13.9189C19.7001 14.0508 19.7941 14.1404 19.8848 14.3877C19.9262 14.7243 19.8677 14.9529 19.6914 15.2373C19.6706 15.2727 19.6498 15.3082 19.6284 15.3447C19.5827 15.4222 19.5367 15.4995 19.4902 15.5766C19.3854 15.7512 19.2836 15.9277 19.1816 16.104C19.0989 16.2464 19.0154 16.3884 18.9319 16.5304C18.8132 16.7327 18.6968 16.9361 18.5818 17.1405C18.5527 17.1917 18.5236 17.2429 18.4937 17.2957C18.438 17.3938 18.3828 17.4922 18.3282 17.5909C18.1641 17.8783 18.0411 18.0699 17.7141 18.1712C17.4649 18.1973 17.2935 18.1646 17.0723 18.0439C16.9913 18.0027 16.9103 17.9617 16.8291 17.9209C16.7907 17.9009 16.7524 17.881 16.7128 17.8605C16.4497 17.7379 16.1599 17.7108 15.8812 17.798C15.5421 17.9424 15.3155 18.1077 15.153 18.4444C15.0738 18.7039 15.0603 18.9696 15.0476 19.2398C15.0324 19.5012 15.0026 19.6683 14.8223 19.8721C14.626 20.0218 14.4517 20.0331 14.2129 20.0316C14.1573 20.0321 14.1573 20.0321 14.1006 20.0326C13.9784 20.0335 13.8562 20.0333 13.7341 20.033C13.6489 20.0332 13.5637 20.0335 13.4786 20.0338C13.3002 20.0342 13.1218 20.0341 12.9434 20.0336C12.7151 20.0331 12.4869 20.034 12.2586 20.0354C12.0827 20.0362 11.9069 20.0362 11.731 20.0359C11.6469 20.0359 11.5627 20.0362 11.4786 20.0368C11.3608 20.0375 11.243 20.037 11.1252 20.0362C11.0906 20.0367 11.0561 20.0371 11.0205 20.0376C10.7817 20.0342 10.6475 19.9741 10.4629 19.8252C10.2826 19.6159 10.296 19.3768 10.2812 19.1133C10.2492 18.7014 10.2143 18.3524 9.90533 18.0511C9.63763 17.8346 9.37415 17.7396 9.02991 17.7477C8.7577 17.7836 8.51225 17.9059 8.2832 18.0527C8.04208 18.1776 7.81894 18.2148 7.55023 18.1666C7.24226 18.0517 7.11218 17.7689 6.96136 17.4968C6.89064 17.3702 6.81798 17.2448 6.74512 17.1194C6.6096 16.886 6.47486 16.6522 6.34049 16.4182C6.22633 16.2194 6.11183 16.0208 5.99713 15.8223C5.9809 15.7942 5.96467 15.7661 5.94795 15.7372C5.86951 15.6014 5.79105 15.4657 5.71257 15.3299C5.6846 15.2815 5.65663 15.233 5.62781 15.1831C5.5907 15.1189 5.5907 15.1189 5.55285 15.0534C5.46687 14.9022 5.43768 14.8108 5.43262 14.6367C5.42999 14.5784 5.42999 14.5784 5.42731 14.519C5.45916 14.3095 5.54428 14.135 5.70717 13.9992C5.7888 13.9454 5.87187 13.8966 5.95703 13.8486C6.34021 13.6159 6.57931 13.4101 6.69385 12.9602C6.74709 12.6264 6.67361 12.3199 6.47852 12.0439C6.29595 11.8449 6.09224 11.7061 5.85742 11.5752C5.63189 11.4433 5.53794 11.3537 5.44727 11.1064C5.40581 10.7698 5.4643 10.5412 5.64062 10.2568C5.66143 10.2214 5.68223 10.186 5.70366 10.1495C5.74929 10.0719 5.79536 9.9946 5.84181 9.91753C5.94667 9.74288 6.04839 9.56645 6.15046 9.39016C6.23318 9.24771 6.31661 9.1057 6.40015 8.96373C6.51887 8.76146 6.63524 8.55804 6.75024 8.35363C6.77932 8.30242 6.8084 8.25122 6.83836 8.19847C6.89403 8.10036 6.9492 8.00196 7.0038 7.90326C7.16788 7.61584 7.29096 7.42419 7.61798 7.32293C7.86716 7.29686 8.03853 7.32951 8.25977 7.45018C8.34071 7.49141 8.42177 7.53242 8.50293 7.57323C8.56048 7.60314 8.56048 7.60314 8.6192 7.63366C8.8823 7.75617 9.17218 7.78327 9.45087 7.69609C9.7899 7.55177 10.0165 7.38646 10.1791 7.04973C10.2583 6.79021 10.2717 6.52455 10.2844 6.25433C10.2997 5.9929 10.3295 5.82581 10.5098 5.62206C10.706 5.47228 10.8803 5.46104 11.1191 5.46249ZM11.7285 6.88768C11.6666 7.11972 11.6048 7.35175 11.541 7.59081C11.2452 8.23057 10.7887 8.7341 10.1318 9.01171C10.0551 9.03933 9.97798 9.06578 9.90039 9.09081C9.86843 9.10138 9.83646 9.11196 9.80353 9.12285C9.23386 9.27959 8.63224 9.19093 8.07227 9.04393C7.94561 9.24607 7.82107 9.44942 7.69727 9.65331C7.67446 9.69068 7.65164 9.72805 7.62814 9.76656C7.5558 9.88566 7.48436 10.0053 7.41309 10.125C7.37785 10.1827 7.37785 10.1827 7.34189 10.2416C7.30961 10.2964 7.30961 10.2964 7.27667 10.3522C7.25721 10.3847 7.23775 10.4171 7.2177 10.4506C7.17345 10.5651 7.18437 10.6184 7.22852 10.7314C7.29332 10.796 7.29332 10.796 7.375 10.8516C7.83063 11.223 8.07288 11.8338 8.15411 12.4032C8.21596 13.2157 8.00955 13.9277 7.47754 14.5517C7.38104 14.66 7.30419 14.7279 7.18164 14.8096C7.20933 15.0012 7.2719 15.1368 7.37006 15.303C7.39867 15.3518 7.42728 15.4005 7.45676 15.4507C7.48682 15.5011 7.51688 15.5516 7.54785 15.6035C7.57737 15.6537 7.60689 15.704 7.6373 15.7558C7.77641 15.9915 7.91672 16.2249 8.07227 16.4502C8.11094 16.44 8.14961 16.4299 8.18945 16.4194C8.98856 16.2268 9.72754 16.2556 10.468 16.6472C11.2253 17.118 11.5188 17.7677 11.7285 18.6064C12.3473 18.6064 12.966 18.6064 13.6035 18.6064C13.6963 18.2584 13.6963 18.2584 13.791 17.9033C14.1359 17.1574 14.6617 16.6857 15.428 16.4007C16.0324 16.2151 16.6601 16.2928 17.2598 16.4502C17.3864 16.248 17.511 16.0447 17.6348 15.8408C17.6576 15.8034 17.6804 15.7661 17.7039 15.7276C17.7762 15.6085 17.8477 15.4889 17.9189 15.3691C17.9424 15.3306 17.9659 15.2922 17.9901 15.2525C18.0117 15.216 18.0332 15.1795 18.0554 15.1419C18.0748 15.1094 18.0943 15.077 18.1143 15.0436C18.1586 14.929 18.1477 14.8758 18.1035 14.7627C18.0387 14.6981 18.0387 14.6981 17.957 14.6426C17.5014 14.2711 17.2592 13.6603 17.1779 13.0909C17.1161 12.2784 17.3225 11.5664 17.8545 10.9424C17.951 10.8341 18.0278 10.7663 18.1504 10.6846C18.1227 10.4929 18.0601 10.3573 17.962 10.1911C17.9334 10.1424 17.9048 10.0936 17.8753 10.0434C17.8452 9.99299 17.8152 9.94257 17.7842 9.89061C17.7547 9.84037 17.7251 9.79013 17.6947 9.73836C17.5556 9.50261 17.4153 9.26923 17.2598 9.04393C17.2211 9.05409 17.1824 9.06424 17.1426 9.0747C16.3435 9.26734 15.6045 9.23847 14.864 8.84691C14.1067 8.37617 13.8132 7.72641 13.6035 6.88768C12.9848 6.88768 12.366 6.88768 11.7285 6.88768Z" fill="url(#paint0_linear_134_1606)"/>
<path d="M12.0691 0.737549C12.1138 0.737282 12.1586 0.737014 12.2047 0.736739C12.2991 0.736299 12.3935 0.735991 12.4878 0.735809C12.6285 0.735359 12.7692 0.733904 12.9099 0.732422C13.5428 0.728959 14.1514 0.783404 14.7754 0.887695C14.8279 0.896268 14.8804 0.904841 14.9345 0.913673C16.5087 1.19105 18.0091 1.82053 19.3336 2.70818C19.4372 2.77669 19.5432 2.84067 19.6504 2.90332C19.644 2.85912 19.644 2.85912 19.6375 2.81402C19.4333 1.38336 19.4333 1.38336 19.5859 1.04883C19.7814 0.848237 19.9257 0.736572 20.21 0.723633C20.4489 0.734068 20.5848 0.790656 20.7754 0.93457C20.9185 1.12568 20.9527 1.31798 20.9843 1.54926C20.9899 1.58762 20.9956 1.62599 21.0014 1.66552C21.0204 1.79679 21.0386 1.92816 21.0566 2.05957C21.0634 2.10799 21.0702 2.15641 21.0771 2.2063C21.1218 2.52657 21.1651 2.84702 21.2074 3.1676C21.2297 3.33555 21.2523 3.50345 21.275 3.67136C21.2893 3.77929 21.3036 3.88723 21.3179 3.99518C21.3247 4.04479 21.3314 4.0944 21.3383 4.14552C21.4336 4.87504 21.4336 4.87504 21.3115 5.11816C21.2979 5.14741 21.2843 5.17666 21.2703 5.20679C20.9948 5.53546 20.5686 5.5418 20.1715 5.59204C20.103 5.60118 20.0345 5.61037 19.966 5.61961C19.8228 5.63879 19.6794 5.6575 19.536 5.67584C19.3539 5.69914 19.172 5.72341 18.99 5.74802C18.8486 5.76708 18.7071 5.78572 18.5656 5.80423C18.4985 5.81303 18.4315 5.82192 18.3645 5.83092C17.201 5.98619 17.201 5.98619 16.8848 5.7627C16.7272 5.62617 16.662 5.55465 16.6291 5.34796C16.6213 5.12054 16.6313 4.95927 16.7295 4.75195C16.953 4.51638 17.1668 4.4684 17.4766 4.42676C17.5556 4.41524 17.6346 4.4037 17.7137 4.39215C17.7544 4.38637 17.7951 4.38059 17.8371 4.37464C18.0463 4.34438 18.2551 4.31071 18.4639 4.27734C18.5392 4.26543 18.6146 4.25352 18.69 4.24164C18.744 4.23312 18.7979 4.2246 18.8535 4.21582C16.5531 2.54961 13.7096 1.90942 10.9116 2.35418C8.39252 2.77941 5.98131 4.14672 4.41601 6.18457C4.38566 6.22399 4.38566 6.22399 4.35469 6.2642C4.0299 6.68861 3.74243 7.12635 3.47851 7.59082C3.46276 7.61783 3.44701 7.64484 3.43079 7.67267C2.65942 8.99952 2.16484 10.656 2.15649 12.1954C2.15616 12.2359 2.15583 12.2764 2.15549 12.3182C2.15468 12.4484 2.15437 12.5787 2.15429 12.709C2.15426 12.7534 2.15423 12.7978 2.1542 12.8436C2.15492 13.4785 2.17106 14.0933 2.30664 14.7158C2.31443 14.7545 2.32223 14.7932 2.33026 14.833C2.49224 15.6308 2.74373 16.4089 3.08007 17.1504C3.19742 17.4172 3.27019 17.6131 3.1643 17.8984C3.06233 18.1036 2.94002 18.2291 2.72851 18.3252C2.48359 18.3606 2.28208 18.3559 2.05468 18.2549C1.77108 17.9848 1.63048 17.6305 1.49218 17.2705C1.47413 17.2238 1.45609 17.1771 1.43749 17.1289C1.18417 16.4588 0.982537 15.7722 0.838862 15.0703C0.831955 15.0366 0.825047 15.0029 0.817931 14.9682C0.678531 14.2348 0.648526 13.5095 0.651362 12.7646C0.651463 12.7169 0.651564 12.6692 0.651668 12.62C0.653998 11.9345 0.668725 11.2645 0.806635 10.5908C0.820231 10.5207 0.820231 10.5207 0.834101 10.4493C1.19169 8.63949 1.92823 6.94481 3.05664 5.48145C3.08679 5.44229 3.11694 5.40314 3.14801 5.36279C3.80821 4.5223 4.5743 3.71194 5.44726 3.09082C5.47621 3.06991 5.50516 3.04901 5.53499 3.02747C7.41758 1.67378 9.72704 0.748788 12.0691 0.737549Z" fill="url(#paint1_linear_134_1606)"/>
<path d="M23.1191 7.16895C23.532 7.36414 23.6588 7.78297 23.8164 8.18262C23.8473 8.26088 23.8473 8.26088 23.8789 8.34072C24.131 8.98872 24.3214 9.63862 24.4668 10.3184C24.4761 10.3617 24.4855 10.4051 24.4951 10.4498C24.6493 11.2094 24.6836 11.9563 24.6807 12.7295C24.6806 12.7772 24.6805 12.825 24.6804 12.8741C24.678 13.5596 24.6633 14.2296 24.5254 14.9033C24.5118 14.9734 24.5118 14.9734 24.4979 15.0449C24.1174 16.9709 23.3032 18.7097 22.0879 20.2471C22.0498 20.2957 22.0118 20.3444 21.9725 20.3945C21.3787 21.1242 20.6963 21.807 19.9316 22.3564C19.8768 22.3969 19.822 22.4375 19.7672 22.478C18.8004 23.1879 17.7406 23.7542 16.6035 24.1377C16.5462 24.1571 16.5462 24.1571 16.4878 24.1768C16.0297 24.3286 15.5665 24.4473 15.0947 24.5479C15.0514 24.5572 15.008 24.5665 14.9634 24.5761C14.2492 24.7212 13.5466 24.7635 12.8194 24.7619C12.6816 24.7617 12.5439 24.7628 12.4061 24.764C11.7792 24.7661 11.1747 24.7096 10.5566 24.6064C10.4767 24.5932 10.4767 24.5932 10.3951 24.5797C10.2735 24.5579 10.1529 24.5336 10.0322 24.5068C9.96713 24.4924 9.96713 24.4924 9.9007 24.4778C8.9914 24.2663 8.11139 23.9422 7.2754 23.5283C7.24329 23.5124 7.21119 23.4966 7.17812 23.4802C6.78911 23.2851 6.42074 23.064 6.05774 22.8243C5.93401 22.7432 5.80906 22.6659 5.68165 22.5908C5.68591 22.6203 5.69017 22.6498 5.69455 22.6801C5.89869 24.1108 5.89869 24.1108 5.7461 24.4453C5.55065 24.6459 5.40631 24.7576 5.12207 24.7705C4.88314 24.7601 4.74723 24.7035 4.55665 24.5596C4.41356 24.3685 4.37929 24.1762 4.34772 23.9449C4.34208 23.9065 4.33645 23.8682 4.33064 23.8286C4.31159 23.6974 4.29344 23.566 4.2754 23.4346C4.26863 23.3861 4.26186 23.3377 4.25489 23.2878C4.2102 22.9676 4.16697 22.6471 4.1246 22.3265C4.10234 22.1586 4.07969 21.9907 4.05704 21.8228C4.04271 21.7148 4.02839 21.6069 4.0141 21.499C4.00737 21.4494 4.00063 21.3997 3.99369 21.3486C3.89844 20.6191 3.89844 20.6191 4.02051 20.376C4.03411 20.3467 4.0477 20.3175 4.06171 20.2874C4.33722 19.9587 4.7634 19.9523 5.16053 19.9021C5.22902 19.893 5.2975 19.8838 5.36598 19.8745C5.50927 19.8553 5.6526 19.8366 5.79599 19.8183C5.97811 19.795 6.16007 19.7707 6.34201 19.7461C6.48346 19.7271 6.62496 19.7084 6.76647 19.6899C6.83349 19.6811 6.9005 19.6722 6.96749 19.6632C8.13104 19.508 8.13105 19.508 8.44727 19.7314C8.60481 19.868 8.67 19.9395 8.70289 20.1462C8.71078 20.3736 8.70075 20.5349 8.60254 20.7422C8.41969 20.9349 8.25138 21.0117 7.99006 21.0485C7.93836 21.0561 7.88667 21.0637 7.83341 21.0715C7.77978 21.0788 7.72616 21.0862 7.6709 21.0938C7.56537 21.1089 7.45984 21.1241 7.35431 21.1393C7.2769 21.1503 7.2769 21.1503 7.19792 21.1615C6.95751 21.1968 6.718 21.2372 6.47852 21.2783C8.70998 22.9149 11.5253 23.569 14.2539 23.168C16.836 22.7604 19.3124 21.3974 20.916 19.3096C20.9363 19.2833 20.9565 19.257 20.9773 19.2299C21.3021 18.8056 21.5902 18.3681 21.8535 17.9033C21.8695 17.8756 21.8855 17.8478 21.902 17.8192C22.4273 16.9031 22.769 15.8954 22.9902 14.8652C22.9973 14.8323 23.0044 14.7993 23.0117 14.7653C23.034 14.6554 23.0536 14.5452 23.0723 14.4346C23.0848 14.3606 23.0848 14.3606 23.0977 14.2852C23.175 13.7777 23.1828 13.2771 23.1807 12.7646C23.1806 12.7211 23.1805 12.6775 23.1804 12.6325C23.1783 12.0042 23.1596 11.3943 23.0254 10.7783C23.0176 10.7396 23.0098 10.701 23.0018 10.6611C22.8398 9.86337 22.5884 9.08513 22.252 8.34375C22.1187 8.04202 22.0742 7.85028 22.1904 7.53223C22.4298 7.1691 22.7113 7.12799 23.1191 7.16895Z" fill="url(#paint2_linear_134_1606)"/>
<path d="M12.6514 9.67671C12.7248 9.67706 12.7248 9.67706 12.7996 9.67742C13.6596 9.69663 14.3067 10.0396 14.916 10.6376C14.946 10.6665 14.976 10.6953 15.0068 10.725C15.5216 11.2615 15.741 12.004 15.7363 12.7324C15.7361 12.7813 15.7359 12.8302 15.7356 12.8806C15.7164 13.7406 15.3734 14.3877 14.7754 14.997C14.7466 15.027 14.7178 15.057 14.6881 15.0878C14.1515 15.6026 13.409 15.822 12.6807 15.8173C12.6318 15.8171 12.5828 15.8169 12.5324 15.8166C11.6725 15.7974 11.0254 15.4544 10.416 14.8564C10.3861 14.8276 10.3561 14.7987 10.3252 14.7691C9.81049 14.2325 9.59109 13.49 9.59571 12.7617C9.59595 12.7127 9.59618 12.6638 9.59642 12.6134C9.61563 11.7535 9.95861 11.1064 10.5567 10.497C10.5855 10.467 10.6143 10.4371 10.644 10.4062C11.1805 9.89149 11.923 9.67208 12.6514 9.67671ZM11.4004 11.7158C11.0673 12.1496 11.0318 12.5931 11.0723 13.122C11.164 13.5603 11.4583 13.908 11.8281 14.1503C12.2318 14.392 12.7263 14.4066 13.1793 14.3118C13.5879 14.1669 13.9002 13.8675 14.1204 13.4996C14.3154 13.0878 14.3431 12.5537 14.1924 12.1201C13.9783 11.6746 13.6377 11.3771 13.1817 11.2001C12.5153 10.978 11.8596 11.2167 11.4004 11.7158Z" fill="url(#paint3_linear_134_1606)"/>
</g>
<defs>
<linearGradient id="paint0_linear_134_1606" x1="5.42731" y1="18.9586" x2="19.9925" y2="6.50703" gradientUnits="userSpaceOnUse">
<stop stop-color="#78243A"/>
<stop offset="1" stop-color="#EF4873"/>
</linearGradient>
<linearGradient id="paint1_linear_134_1606" x1="0.651185" y1="17.0412" x2="18.4688" y2="-1.02803" gradientUnits="userSpaceOnUse">
<stop stop-color="#78243A"/>
<stop offset="1" stop-color="#EF4873"/>
</linearGradient>
<linearGradient id="paint2_linear_134_1606" x1="3.92529" y1="23.467" x2="21.7355" y2="5.39789" gradientUnits="userSpaceOnUse">
<stop stop-color="#78243A"/>
<stop offset="1" stop-color="#EF4873"/>
</linearGradient>
<linearGradient id="paint3_linear_134_1606" x1="9.59564" y1="15.363" x2="15.7364" y2="10.0758" gradientUnits="userSpaceOnUse">
<stop stop-color="#78243A"/>
<stop offset="1" stop-color="#EF4873"/>
</linearGradient>
<clipPath id="clip0_134_1606">
<rect width="24" height="24" fill="white" transform="translate(0.666016 0.74707)"/>
</clipPath>
</defs>
</svg>
