<svg width="120" height="120" viewBox="0 0 120 120" fill="none" xmlns="http://www.w3.org/2000/svg">
<g clip-path="url(#clip0_107_140)">
<path d="M42.6562 0.703125C54.1031 0.703125 65.55 0.703125 77.3438 0.703125C77.3438 4.49297 77.3438 8.28281 77.3438 12.1875C78.0398 12.4195 78.7359 12.6516 79.4531 12.8906C83.8446 14.5559 88.2962 17.0279 91.7569 20.2286C92.3019 20.687 92.3019 20.687 92.8895 20.5748C93.5847 20.3703 94.1228 20.0867 94.7452 19.7159C94.9787 19.578 95.2122 19.4401 95.4528 19.2981C95.8208 19.0775 95.8208 19.0775 96.1963 18.8525C96.7019 18.5537 97.2076 18.2549 97.7133 17.9562C97.9578 17.8111 98.2022 17.666 98.4541 17.5164C99.3342 16.9946 100.217 16.4779 101.104 15.9668C101.352 15.8224 101.6 15.678 101.856 15.5292C102.422 15.2344 102.422 15.2344 102.891 15.2344C103.033 15.4847 103.033 15.4847 103.179 15.7401C106.164 20.972 109.162 26.1959 112.202 31.3963C113.359 33.3776 114.506 35.3651 115.648 37.355C116.372 38.6127 117.103 39.8646 117.852 41.1072C117.994 41.3437 118.136 41.5802 118.283 41.8239C118.552 42.2703 118.823 42.7157 119.096 43.1599C119.215 43.3581 119.334 43.5562 119.457 43.7604C119.562 43.9327 119.668 44.105 119.776 44.2826C120 44.7656 120 44.7656 120 45.7031C119.816 45.8081 119.632 45.9131 119.442 46.0213C118.745 46.4192 118.048 46.8171 117.351 47.2152C117.052 47.3859 116.753 47.5566 116.453 47.7272C116.018 47.9755 115.583 48.224 115.148 48.4726C115.005 48.5542 114.861 48.6359 114.714 48.72C114.01 49.1224 113.308 49.5284 112.61 49.9428C112.358 50.0927 112.105 50.2426 111.844 50.397C111.62 50.5315 111.396 50.6659 111.164 50.8044C110.625 51.0938 110.625 51.0938 110.156 51.0938C110.187 51.2641 110.218 51.4345 110.251 51.6101C110.292 51.8458 110.333 52.0814 110.376 52.3242C110.437 52.6668 110.437 52.6668 110.5 53.0164C110.822 55.3057 110.905 57.5876 110.903 59.8975C110.903 60.1824 110.903 60.4673 110.903 60.7609C110.886 63.4922 110.738 66.2298 110.156 68.9062C110.323 68.969 110.489 69.0318 110.661 69.0965C111.348 69.3832 111.977 69.7162 112.625 70.0809C112.873 70.22 113.121 70.3591 113.377 70.5025C113.634 70.6476 113.891 70.7928 114.155 70.9424C114.406 71.083 114.656 71.2237 114.915 71.3686C116.62 72.3278 118.313 73.3063 120 74.2969C119.864 75.1631 119.627 75.8056 119.192 76.5646C119.072 76.775 118.952 76.9853 118.829 77.202C118.698 77.4276 118.567 77.6533 118.433 77.8857C118.296 78.1239 118.16 78.3621 118.02 78.6075C116.928 80.5098 115.822 82.4036 114.714 84.2961C113.651 86.1122 112.604 87.9373 111.562 89.7656C110.267 92.0396 108.958 94.3058 107.637 96.5648C106.565 98.3961 105.503 100.232 104.443 102.07C104.325 102.275 104.325 102.275 104.205 102.484C103.767 103.244 103.329 104.005 102.891 104.766C101.876 104.459 101.011 104.065 100.096 103.531C99.8366 103.381 99.5768 103.23 99.3091 103.075C99.0381 102.916 98.7671 102.757 98.4961 102.598C98.2314 102.444 97.9668 102.29 97.6941 102.132C95.5618 100.89 95.5618 100.89 94.7072 100.346C94.5013 100.215 94.2954 100.085 94.0833 99.95C93.8153 99.7747 93.8153 99.7747 93.5419 99.5959C93.0607 99.3313 93.0607 99.3313 92.5504 99.429C91.8739 99.7057 91.3829 100.156 90.8203 100.62C86.9207 103.712 82.1328 106.444 77.3438 107.812C77.3438 111.602 77.3438 115.392 77.3438 119.297C65.8969 119.297 54.45 119.297 42.6562 119.297C42.6562 115.507 42.6562 111.717 42.6562 107.812C41.6121 107.464 41.6121 107.464 40.5469 107.109C36.3275 105.367 32.1511 103.17 28.7109 100.14C27.992 99.5294 27.992 99.5294 27.0895 99.3594C26.2541 99.7045 25.4947 100.149 24.7266 100.62C24.3749 100.831 24.023 101.042 23.671 101.253C23.4836 101.365 23.2963 101.478 23.1032 101.594C22.015 102.242 20.9177 102.875 19.8193 103.506C19.6042 103.631 19.3891 103.756 19.1675 103.884C18.9672 103.999 18.7669 104.114 18.5605 104.233C18.2929 104.387 18.2929 104.387 18.0199 104.545C17.5781 104.766 17.5781 104.766 17.1094 104.766C17.0142 104.599 16.919 104.432 16.8209 104.26C14.6507 100.456 12.4716 96.6575 10.2805 92.8656C9.83898 92.1011 9.39815 91.3363 8.95752 90.5713C7.66697 88.3313 6.37489 86.0923 5.06899 83.8612C3.8095 81.7087 2.5563 79.5526 1.31836 77.3877C1.18569 77.1582 1.05302 76.9287 0.916328 76.6922C0.795819 76.4803 0.675309 76.2684 0.551147 76.0501C0.391003 75.7706 0.391003 75.7706 0.227623 75.4854C0 75 0 75 0 74.2969C0.142433 74.2168 0.284865 74.1368 0.431614 74.0544C1.1034 73.6766 1.77489 73.2984 2.44629 72.9199C2.81119 72.7143 2.81119 72.7143 3.18346 72.5046C4.86597 71.5538 6.53683 70.5858 8.19025 69.5852C9.32496 68.9062 9.32496 68.9062 9.84375 68.9062C9.81263 68.7359 9.78151 68.5655 9.74945 68.3899C9.70806 68.1542 9.66667 67.9186 9.62402 67.6758C9.58324 67.4474 9.54245 67.219 9.50043 66.9836C9.17152 64.6501 9.09527 62.3251 9.09668 59.9707C9.0967 59.6742 9.09672 59.3776 9.09674 59.0721C9.11303 56.3808 9.28083 53.7309 9.84375 51.0938C9.68967 51.0379 9.53558 50.982 9.37683 50.9244C8.46965 50.5391 7.62611 50.0675 6.76758 49.585C6.58619 49.4836 6.4048 49.3823 6.21792 49.2779C4.13243 48.1087 2.06497 46.9081 0 45.7031C0.136121 44.8369 0.372796 44.1944 0.808411 43.4354C0.928146 43.225 1.04788 43.0147 1.17125 42.798C1.30197 42.5724 1.4327 42.3467 1.56738 42.1143C1.7037 41.8761 1.84001 41.6379 1.98046 41.3925C3.07183 39.4902 4.17803 37.5964 5.28643 35.7039C6.34924 33.8878 7.39585 32.0627 8.4375 30.2344C9.73331 27.9604 11.0416 25.6942 12.3634 23.4352C13.4345 21.6039 14.4971 19.7678 15.5566 17.9297C15.6353 17.7933 15.7139 17.6569 15.7949 17.5164C16.2332 16.7559 16.6714 15.9952 17.1094 15.2344C18.1239 15.5414 18.9887 15.935 19.9036 16.4685C20.1634 16.6193 20.4232 16.77 20.6909 16.9254C20.9619 17.0843 21.2329 17.2433 21.5039 17.4023C21.7686 17.5561 22.0332 17.7099 22.3059 17.8683C24.4382 19.1097 24.4382 19.1097 25.2928 19.6541C25.4987 19.7848 25.7046 19.9154 25.9167 20.05C26.0954 20.1669 26.274 20.2837 26.4581 20.4041C26.9393 20.6687 26.9393 20.6687 27.4496 20.571C28.1261 20.2943 28.6171 19.844 29.1797 19.3799C33.0793 16.2875 37.8672 13.5558 42.6562 12.1875C42.6562 8.39766 42.6562 4.60781 42.6562 0.703125ZM49.9219 7.96875C49.9219 11.1398 49.9219 14.3109 49.9219 17.5781C48.9937 17.8102 48.0656 18.0422 47.1094 18.2812C46.3775 18.5182 45.6606 18.7594 44.9414 19.0283C44.7521 19.0989 44.5627 19.1695 44.3676 19.2422C42.4775 19.9641 40.6789 20.8237 38.9062 21.7969C38.7577 21.8784 38.6091 21.9599 38.456 22.044C35.2804 23.8132 32.5356 26.0162 29.9112 28.5205C29.3396 29.0248 28.7815 29.3847 28.125 29.7656C27.949 29.664 27.773 29.5624 27.5916 29.4578C26.9316 29.0769 26.2716 28.696 25.6116 28.3151C25.3272 28.151 25.0429 27.9869 24.7585 27.8228C24.621 27.7433 24.4834 27.6639 24.3416 27.5821C24.1378 27.4644 24.1378 27.4644 23.93 27.3443C23.5319 27.1149 23.1331 26.8868 22.7343 26.6588C22.3187 26.4171 21.9062 26.1699 21.5013 25.9108C20.7507 25.4207 20.7507 25.4207 19.8834 25.3766C19.2188 26.0017 18.8435 26.7686 18.4277 27.5684C18.2196 27.9557 18.0108 28.3426 17.8015 28.7292C17.6899 28.9361 17.5782 29.1429 17.4632 29.3559C16.8499 30.4722 16.2022 31.5682 15.5566 32.666C14.3674 34.696 13.1861 36.7303 12.0163 38.7716C11.8481 39.065 11.6796 39.3582 11.5109 39.6514C11.2753 40.0609 11.0406 40.471 10.806 40.881C10.671 41.1165 10.536 41.3519 10.3969 41.5945C10.0551 42.1899 10.0551 42.1899 9.84375 42.8906C10.0364 43.0005 10.2291 43.1105 10.4276 43.2237C11.1462 43.6338 11.8647 44.0439 12.5832 44.4542C12.8934 44.6313 13.2037 44.8084 13.514 44.9854C13.9615 45.2407 14.4089 45.4962 14.8563 45.7516C15.0625 45.8692 15.0625 45.8692 15.2729 45.9892C15.8748 46.3332 16.4713 46.6811 17.0598 47.0477C17.5465 47.3825 17.5465 47.3825 18.0469 47.3438C18.0055 47.5503 17.9641 47.7569 17.9215 47.9698C17.7662 48.7484 17.6122 49.5273 17.4589 50.3063C17.3928 50.6412 17.3262 50.976 17.2591 51.3107C15.7966 58.6129 16.441 65.4492 18.0469 72.6562C17.8729 72.7233 17.6989 72.7903 17.5196 72.8593C16.9659 73.0875 16.4584 73.3343 15.9366 73.6258C15.7642 73.7218 15.5918 73.8177 15.4142 73.9166C15.234 74.0179 15.0538 74.1192 14.8682 74.2236C14.6825 74.3274 14.4969 74.4311 14.3057 74.538C12.808 75.3775 11.3211 76.2345 9.84375 77.1094C10.1775 78.0023 10.5888 78.8072 11.0632 79.6335C11.2141 79.897 11.365 80.1605 11.5204 80.432C11.6842 80.7161 11.8479 81.0001 12.0117 81.2842C12.1807 81.5784 12.3497 81.8727 12.5186 82.167C13.8658 84.512 15.2235 86.8509 16.5921 89.1833C17.0816 90.0177 17.5655 90.8549 18.0441 91.6956C18.2055 91.9767 18.2055 91.9767 18.3702 92.2635C18.5683 92.6088 18.7649 92.9551 18.9595 93.3025C19.4671 94.2291 19.4671 94.2291 20.3906 94.6875C21.0852 94.3777 21.0852 94.3777 21.8454 93.9148C22.0574 93.7919 22.0574 93.7919 22.2737 93.6666C22.7264 93.4037 23.1772 93.1375 23.6279 92.8711C24.0765 92.6087 24.5255 92.347 24.9747 92.0856C25.3845 91.8466 25.7934 91.606 26.2022 91.3653C26.9104 90.9618 27.6268 90.5913 28.3594 90.2344C28.4932 90.3567 28.6271 90.4791 28.765 90.6052C29.4076 91.1886 30.0543 91.7673 30.7031 92.3438C30.8197 92.4478 30.9364 92.5518 31.0565 92.6589C33.0084 94.3893 35.0522 95.8864 37.2656 97.2656C37.3987 97.3493 37.5319 97.4329 37.669 97.5191C40.8945 99.5229 46.0376 102.422 49.9219 102.422C49.9219 105.593 49.9219 108.764 49.9219 112.031C56.5734 112.031 63.225 112.031 70.0781 112.031C70.0781 108.86 70.0781 105.689 70.0781 102.422C70.7742 102.267 71.4703 102.113 72.1875 101.953C76.6718 100.711 81.1052 98.6351 84.8438 95.8594C85.09 95.6793 85.3362 95.4992 85.5899 95.3137C87.1802 94.1311 88.6474 92.8559 90.0806 91.4877C90.6556 90.9795 91.2142 90.6175 91.875 90.2344C92.7882 90.7554 93.7014 91.2766 94.6144 91.7979C94.9247 91.975 95.235 92.1521 95.5453 92.3292C95.9928 92.5845 96.4401 92.8399 96.8875 93.0954C97.025 93.1738 97.1625 93.2522 97.3042 93.333C97.907 93.6774 98.5032 94.0258 99.0904 94.3964C99.5819 94.7431 99.5819 94.7431 100.087 94.6088C100.792 94.0111 101.153 93.2386 101.572 92.4316C101.78 92.045 101.989 91.6586 102.198 91.2726C102.365 90.9625 102.365 90.9625 102.536 90.6461C103.155 89.5195 103.807 88.4129 104.458 87.3047C104.736 86.8296 105.014 86.3544 105.292 85.8792C105.434 85.6361 105.577 85.393 105.723 85.1426C106.441 83.9146 107.157 82.6856 107.87 81.4549C108.101 81.058 108.332 80.6616 108.563 80.2652C108.703 80.0229 108.844 79.7806 108.988 79.5309C109.112 79.3176 109.236 79.1042 109.364 78.8844C109.675 78.3043 109.925 77.7253 110.156 77.1094C109.964 76.9995 109.771 76.8895 109.572 76.7763C108.854 76.3662 108.135 75.9561 107.417 75.5458C107.107 75.3687 106.796 75.1916 106.486 75.0146C106.038 74.7593 105.591 74.5038 105.144 74.2484C105.006 74.17 104.869 74.0916 104.727 74.0108C104.125 73.6668 103.529 73.3189 102.94 72.9523C102.454 72.6175 102.454 72.6175 101.953 72.6562C102.015 72.3464 102.015 72.3464 102.078 72.0302C102.234 71.2516 102.388 70.4727 102.541 69.6937C102.607 69.3588 102.674 69.024 102.741 68.6893C104.203 61.3871 103.559 54.5508 101.953 47.3438C102.201 47.2506 102.201 47.2506 102.454 47.1556C103.162 46.8594 103.811 46.5125 104.48 46.1362C104.735 45.9928 104.991 45.8495 105.254 45.7018C105.518 45.5524 105.782 45.403 106.055 45.249C106.451 45.0263 106.451 45.0263 106.856 44.799C107.964 44.1754 109.068 43.5492 110.156 42.8906C109.822 41.9977 109.411 41.1928 108.937 40.3665C108.71 39.9713 108.71 39.9713 108.48 39.568C108.316 39.2839 108.152 38.9999 107.988 38.7158C107.819 38.4216 107.65 38.1273 107.481 37.833C106.134 35.488 104.777 33.1491 103.408 30.8167C102.918 29.9823 102.435 29.1451 101.956 28.3044C101.848 28.117 101.741 27.9296 101.63 27.7365C101.432 27.3912 101.235 27.0449 101.04 26.6975C100.533 25.7709 100.533 25.7709 99.6094 25.3125C98.9148 25.6223 98.9148 25.6223 98.1546 26.0852C98.0133 26.1671 97.8719 26.249 97.7263 26.3334C97.2736 26.5963 96.8228 26.8625 96.3721 27.1289C95.9235 27.3913 95.4745 27.653 95.0253 27.9144C94.6155 28.1534 94.2066 28.394 93.7978 28.6347C93.0896 29.0382 92.3732 29.4087 91.6406 29.7656C91.4399 29.5821 91.4399 29.5821 91.235 29.3948C90.5924 28.8114 89.9457 28.2327 89.2969 27.6562C89.1803 27.5522 89.0636 27.4482 88.9435 27.3411C84.2602 23.1892 78.8243 20.2497 72.8906 18.2812C72.6086 18.183 72.6086 18.183 72.3209 18.0827C72.1337 18.018 71.9465 17.9533 71.7535 17.8867C71.5842 17.8276 71.4148 17.7686 71.2403 17.7077C70.748 17.5463 70.748 17.5463 70.0781 17.5781C70.0781 14.407 70.0781 11.2359 70.0781 7.96875C63.4266 7.96875 56.775 7.96875 49.9219 7.96875Z" fill="white"/>
<path d="M80.3906 37.7344C82.4016 37.7344 84.4125 37.7344 86.4844 37.7344C87.2751 39.6321 88.0422 41.5268 88.7668 43.4491C88.8696 43.7205 88.9723 43.9919 89.0782 44.2716C89.3536 44.9991 89.6287 45.7267 89.9034 46.4544C90.3626 47.6706 90.8222 48.8866 91.282 50.1025C91.3979 50.4089 91.5137 50.7154 91.6296 51.0218C92.4093 53.0842 93.1971 55.1434 93.9935 57.1994C94.1708 57.6585 94.348 58.1176 94.5252 58.5767C94.7728 59.2184 95.0211 59.8598 95.2719 60.5003C95.4986 61.0796 95.7227 61.6598 95.9464 62.2403C96.0132 62.4088 96.0801 62.5774 96.149 62.751C96.5892 63.9044 96.5892 63.9044 96.3281 64.6875C95.7533 64.9862 95.7533 64.9862 94.9969 65.2771C94.7259 65.3816 94.4549 65.4862 94.1757 65.5939C93.8902 65.7008 93.6047 65.8078 93.3105 65.918C93.0269 66.0285 92.7432 66.1391 92.4509 66.2531C90.3255 67.0616 90.3255 67.0616 89.5312 66.7969C89.1445 65.7914 88.7578 64.7859 88.3594 63.75C85.1109 63.75 81.8625 63.75 78.5156 63.75C78.1289 64.7555 77.7422 65.7609 77.3438 66.7969C76.4376 67.0989 76.1293 66.898 75.2472 66.5579C74.9756 66.4535 74.704 66.3492 74.4241 66.2416C74.1404 66.13 73.8567 66.0183 73.5645 65.9033C73.1362 65.7399 73.1362 65.7399 72.6993 65.5733C70.5776 64.749 70.5776 64.749 70.3125 64.2188C70.485 63.6577 70.6744 63.122 70.8856 62.5754C70.9506 62.403 71.0156 62.2306 71.0826 62.0529C71.3027 61.4705 71.5253 60.8891 71.748 60.3076C71.9044 59.8955 72.0607 59.4833 72.2168 59.0711C72.6545 57.9169 73.0947 56.7637 73.5353 55.6106C73.9492 54.5267 74.3618 53.4423 74.7745 52.3579C76.6323 47.4779 78.4923 42.5988 80.3906 37.7344ZM83.4375 50.625C81.994 53.3325 81.994 53.3325 81.3281 56.25C82.7203 56.25 84.1125 56.25 85.5469 56.25C85.3819 55.4252 85.2195 54.7613 84.9307 53.9896C84.8575 53.7924 84.7842 53.5953 84.7087 53.3922C84.5943 53.0883 84.5943 53.0883 84.4775 52.7783C84.3618 52.4677 84.3618 52.4677 84.2436 52.1507C84.0538 51.6419 83.8632 51.1333 83.6719 50.625C83.5945 50.625 83.5172 50.625 83.4375 50.625Z" fill="white"/>
<path d="M42.4786 40.1888C42.8906 40.5468 42.8906 40.5468 43.1323 40.9844C43.1205 41.7889 42.6502 42.1095 42.0996 42.6708C41.883 42.8967 41.6669 43.1232 41.4514 43.3502C41.3404 43.4664 41.2294 43.5826 41.115 43.7024C40.2489 44.6367 39.4677 45.6467 38.6719 46.6406C38.5157 46.556 38.3595 46.4714 38.1985 46.3842C36.6283 45.5936 35.2802 45.1855 33.5156 45.4687C33.2836 45.6234 33.0516 45.7781 32.8125 45.9374C32.8374 46.3929 32.8374 46.3929 33.0469 46.8749C33.5744 47.1999 33.5744 47.1999 34.248 47.4316C34.5024 47.5307 34.7568 47.6298 35.0189 47.7319C35.4349 47.8878 35.4349 47.8878 35.8594 48.0468C42.8262 50.6869 42.8262 50.6869 44.6338 54.1992C45.5166 56.4652 45.4219 58.9299 44.5312 61.1718C43.3232 63.4508 41.331 65.1914 38.9062 66.0937C37.5704 66.4858 36.3699 66.6462 34.9805 66.6357C34.796 66.6344 34.6115 66.633 34.4214 66.6317C30.8239 66.5574 27.8901 65.2353 25.2576 62.8015C24.8438 62.3437 24.8438 62.3437 24.8438 61.8749C25.1468 61.5692 25.1468 61.5692 25.5908 61.2011C26.245 60.6511 26.8761 60.0882 27.4887 59.4927C27.6896 59.2996 27.6896 59.2996 27.8946 59.1026C28.1634 58.8434 28.4301 58.5819 28.6946 58.3182C29.0735 57.9565 29.0735 57.9565 29.7656 57.4218C30.6173 57.5353 31.2647 57.956 32.0068 58.374C33.3941 59.0769 34.5518 59.3654 36.0938 59.0624C36.6643 58.8042 37.0208 58.5394 37.5 58.1249C37.4747 57.5596 37.4747 57.5596 37.2656 56.9531C36.7537 56.5505 36.7537 56.5505 36.0791 56.2646C35.698 56.0869 35.698 56.0869 35.3091 55.9057C34.4075 55.5277 33.4975 55.1899 32.5781 54.8583C29.7546 53.8308 27.0209 52.5347 25.6851 49.6856C24.8369 47.2991 24.8534 45.1284 25.9131 42.8173C27.1983 40.4978 29.0263 38.9364 31.5738 38.1783C35.4538 37.2668 39.112 38.1833 42.4786 40.1888Z" fill="white"/>
<path d="M52.0312 37.2656C54.4289 37.2656 56.8266 37.2656 59.2969 37.2656C59.2969 44.5359 59.2969 51.8063 59.2969 59.2969C61.0758 59.2969 62.8547 59.2969 64.6875 59.2969C64.6875 61.6945 64.6875 64.0922 64.6875 66.5625C60.5109 66.5625 56.3344 66.5625 52.0312 66.5625C52.0312 56.8945 52.0312 47.2266 52.0312 37.2656Z" fill="white"/>
<path d="M66.7969 73.5938C67.6227 73.9825 68.156 74.4297 68.8 75.0824C68.9979 75.2818 69.1958 75.4812 69.3997 75.6866C69.6043 75.8951 69.8088 76.1036 70.0195 76.3184C70.2277 76.5286 70.4359 76.7389 70.6503 76.9556C71.1638 77.4745 71.6761 77.9946 72.1875 78.5156C71.8022 79.5037 71.071 80.1633 70.3316 80.8935C70.1189 81.1063 70.1189 81.1063 69.9019 81.3234C69.4338 81.7912 68.964 82.2573 68.4943 82.7234C68.169 83.0477 67.8439 83.3722 67.5189 83.6968C66.6638 84.5501 65.8072 85.402 64.9504 86.2536C64.0761 87.1232 63.2031 87.994 62.33 88.8647C60.6171 90.5726 58.9028 92.279 57.1875 93.9844C56.4416 93.6551 55.9422 93.265 55.369 92.6879C55.2002 92.519 55.0313 92.3501 54.8574 92.1761C54.6776 91.9939 54.4979 91.8118 54.3127 91.6241C54.1268 91.4375 53.9408 91.2509 53.7493 91.0586C53.1559 90.4627 52.5643 89.8652 51.9727 89.2676C51.5705 88.8631 51.1683 88.4588 50.766 88.0545C49.7803 87.0636 48.7959 86.0714 47.8125 85.0781C48.5588 84.1953 49.3035 83.3227 50.1251 82.5082C50.3562 82.2782 50.3562 82.2782 50.592 82.0436C50.8259 81.8127 50.8259 81.8127 51.0645 81.5771C51.2258 81.4169 51.3871 81.2566 51.5533 81.0915C51.9465 80.7011 52.3402 80.3112 52.7344 79.9219C53.4216 80.2315 53.9031 80.5656 54.4299 81.1029C54.5644 81.2389 54.6988 81.3748 54.8373 81.5149C54.9748 81.6563 55.1123 81.7977 55.2539 81.9434C55.395 82.0866 55.5361 82.2298 55.6815 82.3773C56.0283 82.7297 56.3737 83.0834 56.7188 83.4375C58.0015 82.3684 59.189 81.2326 60.3653 80.0482C60.5503 79.8629 60.7352 79.6776 60.9258 79.4867C61.5113 78.8999 62.096 78.3123 62.6807 77.7246C63.0796 77.3245 63.4786 76.9244 63.8777 76.5244C64.8514 75.5481 65.8244 74.5712 66.7969 73.5938Z" fill="white"/>
</g>
<defs>
<clipPath id="clip0_107_140">
<rect width="120" height="120" fill="white"/>
</clipPath>
</defs>
</svg>
