<svg width="120" height="120" viewBox="0 0 120 120" fill="none" xmlns="http://www.w3.org/2000/svg">
<g clip-path="url(#clip0_107_155)">
<path d="M56.3847 -0.0787368C56.6661 -0.080297 56.9476 -0.0818572 57.2376 -0.0834646C57.8315 -0.0858305 58.4254 -0.0869376 59.0193 -0.0868621C59.9199 -0.0878842 60.8203 -0.0963973 61.7208 -0.105287C62.3005 -0.106663 62.8802 -0.107593 63.4599 -0.108034C63.7254 -0.111402 63.9909 -0.11477 64.2644 -0.11824C67.8728 -0.0979511 70.9262 1.22805 73.5545 3.67493C76.0314 6.32594 77.1585 9.47233 77.1436 13.0597C77.143 13.2646 77.1425 13.4695 77.1419 13.6806C77.1208 16.3479 76.9556 19.0075 76.7979 21.6695C76.7643 22.2537 76.7308 22.8379 76.6974 23.4221C76.6165 24.8319 76.5343 26.2417 76.4514 27.6515C76.384 28.7982 76.317 29.9451 76.2503 31.0919C76.0605 34.3549 75.8697 37.6179 75.6773 40.8808C75.667 41.0558 75.6567 41.2308 75.6461 41.4111C75.6357 41.5864 75.6254 41.7616 75.6148 41.9421C75.4472 44.7865 75.2822 47.6311 75.1183 50.4757C74.9494 53.4078 74.7786 56.3398 74.6058 59.2717C74.5091 60.9133 74.4132 62.555 74.3193 64.1967C74.231 65.7394 74.1401 67.2818 74.0475 68.8242C74.014 69.3882 73.9814 69.9522 73.9497 70.5163C73.6575 75.7038 73.2678 80.0752 69.3751 83.9062C69.2373 84.0437 69.0996 84.1812 68.9576 84.3228C66.4982 86.6024 63.3332 87.3236 60.0734 87.3047C59.8051 87.3033 59.5368 87.302 59.2604 87.3006C55.4636 87.2208 52.7504 85.973 49.9806 83.3643C47.5909 80.8693 46.6705 78.0532 46.4029 74.6692C46.3736 74.3147 46.3736 74.3147 46.3436 73.9529C46.1308 71.3173 45.9715 68.6787 45.8176 66.0391C45.7852 65.494 45.7528 64.949 45.7204 64.4039C45.6335 62.9411 45.5475 61.4782 45.4619 60.0154C45.3899 58.7876 45.3175 57.5599 45.2451 56.3321C45.0645 53.269 44.885 50.2057 44.7058 47.1424C44.5509 44.4944 44.3945 41.8464 44.2376 39.1984C44.0755 36.464 43.9144 33.7295 43.7544 30.995C43.6649 29.4659 43.575 27.9368 43.4841 26.4078C43.3986 24.9702 43.3145 23.5326 43.2313 22.0948C43.2008 21.5711 43.1698 21.0473 43.1383 20.5236C42.9899 18.0515 42.8646 15.5842 42.855 13.1071C42.8531 12.8234 42.8531 12.8234 42.8513 12.534C42.8642 9.00907 44.258 6.07531 46.6407 3.51562C49.448 0.870756 52.6213 -0.0714078 56.3847 -0.0787368ZM50.9803 9.79797C49.0366 12.6134 50.278 18.101 50.4679 21.3258C50.5015 21.9094 50.535 22.493 50.5684 23.0767C50.6589 24.6514 50.7508 26.226 50.8431 27.8006C50.9009 28.7854 50.9582 29.7703 51.0156 30.7551C51.1747 33.4878 51.3341 36.2206 51.4951 38.9532C51.5105 39.2144 51.5105 39.2144 51.5262 39.4808C51.5469 39.8337 51.5677 40.1866 51.5885 40.5395C51.5988 40.7147 51.6091 40.8898 51.6198 41.0703C51.6301 41.2456 51.6404 41.421 51.6511 41.6017C51.8187 44.4492 51.9837 47.2969 52.1475 50.1446C52.3162 53.0759 52.487 56.0071 52.66 58.9382C52.7569 60.5809 52.8529 62.2237 52.9466 63.8666C53.0345 65.4099 53.1255 66.9529 53.2184 68.4958C53.252 69.0614 53.2846 69.6271 53.3161 70.1928C53.3594 70.9659 53.4063 71.7387 53.454 72.5115C53.4656 72.7345 53.4772 72.9574 53.4892 73.1871C53.6434 75.5512 54.2149 77.3796 56.0157 78.9844C57.5578 80.1343 59.4159 80.2512 61.2864 80.1132C63.1871 79.7948 64.5243 78.6435 65.6233 77.1103C66.3517 75.662 66.4308 74.1582 66.5181 72.5679C66.5328 72.326 66.5476 72.0842 66.5628 71.835C66.6117 71.0263 66.6579 70.2174 66.7042 69.4085C66.7387 68.8278 66.7734 68.2471 66.8083 67.6665C66.8927 66.2535 66.9753 64.8405 67.0572 63.4274C67.1528 61.7787 67.2502 60.1303 67.3478 58.4818C67.5219 55.5372 67.6943 52.5925 67.8656 49.6477C68.0315 46.7971 68.1988 43.9465 68.3676 41.096C68.5811 37.49 68.7933 33.8839 69.0046 30.2778C69.0717 29.1318 69.1393 27.9859 69.2071 26.84C69.2986 25.2925 69.3889 23.7448 69.4784 22.1971C69.5112 21.6314 69.5445 21.0656 69.5781 20.4999C70.3414 14.5353 70.3414 14.5353 68.5365 9.14337C67.2954 7.79331 66.0334 7.27372 64.2189 7.03125C63.5805 7.00712 62.9483 6.99286 62.31 6.99188C62.1297 6.9911 61.9494 6.99032 61.7637 6.98952C61.3837 6.98834 61.0037 6.98778 60.6238 6.98782C60.0482 6.98731 59.4728 6.98305 58.8974 6.97861C55.5811 6.96654 53.3171 7.19802 50.9803 9.79797Z" fill="white"/>
<path d="M13.1249 44.7656C14.1067 45.5894 14.7006 46.4566 14.8974 47.7246C14.8763 49.3782 13.9209 50.777 13.1673 52.201C9.29391 59.6673 7.39336 67.8557 7.41202 76.2451C7.41215 76.4613 7.41228 76.6775 7.41241 76.9002C7.43702 86.0089 9.86996 94.4359 14.1028 102.475C14.7289 103.672 15.0199 104.577 14.7655 105.938C14.2622 106.875 13.6743 107.811 12.669 108.243C11.4575 108.542 10.5924 108.506 9.40787 108.12C4.85292 105.327 2.76009 95.9006 1.54876 91.0703C1.11568 89.2434 0.754967 87.4023 0.468663 85.5469C0.426932 85.2828 0.385201 85.0187 0.342205 84.7466C-0.0457608 82.026 -0.0935384 79.3272 -0.0879781 76.582C-0.0878506 76.3448 -0.0877231 76.1077 -0.0875918 75.8633C-0.0780451 71.9894 0.133684 68.2549 0.937413 64.4531C0.988887 64.2089 1.04036 63.9648 1.0934 63.7132C2.34569 57.9719 4.37987 52.4971 7.20694 47.3438C7.28954 47.1908 7.37213 47.0379 7.45723 46.8803C8.11085 45.7287 8.83243 45.0432 10.0048 44.4434C11.1254 44.2319 12.0652 44.338 13.1249 44.7656Z" fill="white"/>
<path d="M110.156 44.5312C113.16 45.8348 114.693 50.8909 115.847 53.6992C117.225 57.2016 118.305 60.7669 119.062 64.4531C119.112 64.689 119.161 64.9249 119.212 65.1679C120.594 72.1119 120.662 80.002 119.297 86.9531C119.259 87.163 119.221 87.3729 119.183 87.5892C118.048 93.8628 115.848 99.8802 112.793 105.469C112.71 105.622 112.628 105.775 112.543 105.933C111.935 107.003 111.261 107.729 110.156 108.281C108.937 108.403 107.898 108.427 106.772 107.915C105.759 106.951 105.278 106.228 105.16 104.817C105.184 103.791 105.545 103.012 106.04 102.129C106.213 101.799 106.386 101.469 106.558 101.138C106.649 100.966 106.739 100.793 106.833 100.615C110.689 93.1295 112.607 84.971 112.588 76.5674C112.588 76.3512 112.588 76.135 112.587 75.9123C112.563 66.7839 110.106 58.3984 105.897 50.3329C105.812 50.1695 105.727 50.006 105.64 49.8376C105.564 49.6954 105.489 49.5532 105.411 49.4067C105.027 48.4884 105.056 47.6026 105.397 46.6598C106.417 44.6501 108.023 44.2283 110.156 44.5312Z" fill="white"/>
<path d="M59.9707 94.1162C60.1966 94.1178 60.4225 94.1194 60.6553 94.1211C62.3707 94.1597 63.8331 94.4035 65.3907 95.1562C65.5734 95.2384 65.7562 95.3206 65.9446 95.4053C69.3424 97.0954 71.4171 100.102 72.6563 103.594C73.4482 106.312 73.2006 109.987 71.9532 112.5C71.8365 112.737 71.7199 112.974 71.5998 113.219C69.8775 116.419 67.2461 118.551 63.8059 119.695C62.5416 120.052 61.3378 120.117 60.0293 120.103C59.6897 120.1 59.6897 120.1 59.3433 120.097C57.6242 120.056 56.1642 119.834 54.6094 119.062C54.3722 118.946 54.1351 118.829 53.8907 118.709C50.6906 116.987 48.558 114.355 47.4143 110.915C47.057 109.651 46.9923 108.447 47.0069 107.139C47.0088 106.912 47.0108 106.686 47.0128 106.453C47.0534 104.734 47.2752 103.274 48.0469 101.719C48.1635 101.482 48.2802 101.244 48.4003 101C50.1226 97.7999 52.754 95.6673 56.1942 94.5236C57.4586 94.1663 58.6622 94.1018 59.9707 94.1162ZM55.5762 103.345C54.3387 105.128 54.0822 106.601 54.375 108.75C55.1506 110.73 56.4334 111.89 58.3594 112.734C60.1532 112.987 61.7844 112.923 63.3207 111.911C64.578 110.89 65.5056 109.599 65.7349 107.969C65.7532 105.931 65.5326 104.508 64.1117 102.996C62.5816 101.627 61.1707 101.341 59.1761 101.387C57.669 101.566 56.5803 102.222 55.5762 103.345Z" fill="white"/>
<path d="M24.6093 51.5625C25.5479 52.0318 26.1699 52.5422 26.7187 53.4375C27.1383 54.6966 27.0938 55.6707 26.6006 56.879C26.4428 57.1739 26.2819 57.4672 26.1181 57.7588C25.944 58.0897 25.771 58.4211 25.599 58.7531C25.5114 58.9213 25.4238 59.0895 25.3336 59.2628C22.647 64.5493 21.4578 70.3766 21.4745 76.2744C21.4749 76.553 21.4749 76.553 21.4754 76.8372C21.5009 83.0234 22.8827 88.899 25.837 94.3735C26.6196 95.8572 27.1146 96.9752 26.953 98.6719C26.4951 99.9252 25.8017 100.654 24.6093 101.25C23.4201 101.369 22.3668 101.389 21.2548 100.928C20.3514 100.045 19.8092 99.0788 19.2187 97.9687C19.0011 97.5781 19.0011 97.5781 18.7792 97.1796C16.6441 93.2306 15.2913 88.7918 14.5312 84.375C14.4901 84.1465 14.4491 83.918 14.4068 83.6825C14.019 81.3037 13.9689 78.9584 13.9745 76.5527C13.9746 76.3464 13.9748 76.14 13.9749 75.9274C13.9844 72.575 14.1949 69.361 14.9999 66.0937C15.0526 65.8787 15.1053 65.6637 15.1597 65.4421C16.2558 61.1043 17.8385 55.0825 21.2255 51.9434C22.3654 51.4045 23.3692 51.378 24.6093 51.5625Z" fill="white"/>
<path d="M98.5107 51.8408C99.7426 52.6716 100.35 53.8723 100.986 55.1807C101.068 55.3464 101.149 55.5122 101.232 55.683C101.475 56.1833 101.715 56.685 101.953 57.1875C102.08 57.4549 102.207 57.7222 102.338 57.9977C104.526 62.8522 105.94 68.4183 105.993 73.7549C105.996 73.9451 105.998 74.1354 106 74.3314C106.041 78.5369 106.012 82.61 105 86.7187C104.947 86.9338 104.895 87.1488 104.84 87.3704C101.95 98.8067 101.95 98.8067 98.3643 101.133C96.9169 101.402 95.6084 101.476 94.3378 100.639C93.4594 99.827 93.1044 98.8739 92.9507 97.7087C93.0856 96.4299 93.6295 95.4804 94.2188 94.3506C98.9659 84.8096 99.9038 74.2845 96.6211 64.1308C95.9504 62.1514 95.1552 60.2777 94.1629 58.439C93.4485 57.0847 92.8536 55.9487 93.0469 54.375C93.3744 53.3379 93.8089 52.5212 94.7314 51.914C95.9888 51.307 97.2207 51.3783 98.5107 51.8408Z" fill="white"/>
<path d="M37.0486 58.7375C38.0437 59.2275 38.5101 59.8885 38.9932 60.8688C39.4288 62.4568 39.0004 63.5268 38.2764 64.9072C35.3108 70.873 34.592 77.6934 36.6194 84.097C37.0478 85.3336 37.5968 86.4968 38.2031 87.6563C39.5057 90.2614 39.5057 90.2614 38.9859 91.8915C38.5514 92.911 38.0538 93.5863 37.045 94.0723C35.7807 94.4561 34.6412 94.4101 33.4424 93.8672C32.6346 93.1158 32.1518 92.3795 31.6406 91.4063C31.5125 91.1624 31.3844 90.9186 31.2524 90.6674C30.4129 89.0011 29.7674 87.302 29.2236 85.5176C29.1669 85.3334 29.1101 85.1491 29.0516 84.9593C28.2356 82.1564 28.0353 79.3735 28.0518 76.4649C28.0523 76.2997 28.0529 76.1345 28.0535 75.9643C28.0671 73.4743 28.146 71.0828 28.8281 68.6719C28.881 68.4823 28.9339 68.2926 28.9885 68.0973C29.6473 65.8091 30.4527 63.623 31.5527 61.5088C31.6792 61.2641 31.6792 61.2641 31.8083 61.0144C32.9622 58.9113 34.6812 58.0375 37.0486 58.7375Z" fill="white"/>
<path d="M86.4109 58.9453C87.3761 59.5793 87.8412 60.3936 88.3592 61.4063C88.487 61.6501 88.6148 61.8939 88.7464 62.1451C89.5874 63.811 90.2323 65.5104 90.7761 67.2949C90.8329 67.4792 90.8897 67.6634 90.9482 67.8532C91.7642 70.6561 91.9645 73.439 91.948 76.3477C91.9471 76.5954 91.9471 76.5954 91.9463 76.8482C91.9327 79.3382 91.8538 81.7297 91.1717 84.1406C91.0923 84.4251 91.0923 84.4251 91.0113 84.7152C90.3525 87.0034 89.547 89.1895 88.447 91.3037C88.3627 91.4669 88.2784 91.63 88.1915 91.7981C87.5447 92.977 86.864 93.7797 85.5467 94.2188C84.4528 94.3458 83.6534 94.3289 82.6609 93.8233C81.706 93.0016 81.0838 92.3915 80.8592 91.1279C80.7548 89.5823 81.4416 88.3479 82.1317 87.0035C84.9346 81.3759 85.2723 74.6915 83.3804 68.7145C82.9516 67.4792 82.3935 66.3189 81.7967 65.1563C81.15 63.8223 80.6591 62.6965 80.9196 61.1975C81.3099 60.0882 82.0642 59.3261 83.0564 58.7256C84.3392 58.4507 85.2071 58.4557 86.4109 58.9453Z" fill="white"/>
</g>
<defs>
<clipPath id="clip0_107_155">
<rect width="120" height="120" fill="white"/>
</clipPath>
</defs>
</svg>
