<svg width="120" height="120" viewBox="0 0 120 120" fill="none" xmlns="http://www.w3.org/2000/svg">
<path d="M12.228 13.0941C12.4794 13.0933 12.4794 13.0933 12.7358 13.0926C13.2988 13.0913 13.8618 13.0916 14.4248 13.092C14.832 13.0914 15.2391 13.0906 15.6462 13.0898C16.7663 13.088 17.8864 13.0875 19.0064 13.0874C20.214 13.0869 21.4215 13.0852 22.6291 13.0836C25.2701 13.0804 27.9112 13.079 30.5523 13.078C32.2014 13.0773 33.8505 13.0763 35.4995 13.0753C40.0651 13.0724 44.6308 13.07 49.1964 13.0692C49.6347 13.0691 49.6347 13.0691 50.0819 13.069C50.3749 13.069 50.6678 13.0689 50.9696 13.0689C51.5632 13.0688 52.1569 13.0687 52.7505 13.0686C53.1921 13.0685 53.1921 13.0685 53.6427 13.0684C58.4135 13.0675 63.1843 13.0634 67.9551 13.0579C72.8529 13.0524 77.7508 13.0495 82.6487 13.0492C85.3987 13.049 88.1488 13.0476 90.8988 13.0434C93.2407 13.0398 95.5825 13.0386 97.9243 13.0405C99.119 13.0414 100.314 13.0412 101.508 13.0379C102.603 13.0349 103.697 13.0352 104.791 13.038C105.187 13.0385 105.582 13.0378 105.977 13.0357C109.782 13.0173 113.13 13.6386 115.991 16.3384C118.4 18.9624 119.207 21.9468 119.181 25.4394C119.183 25.9006 119.183 25.9006 119.185 26.3711C119.189 27.2167 119.187 28.0622 119.185 28.9078C119.182 29.8228 119.186 30.7378 119.188 31.6528C119.192 33.4422 119.192 35.2316 119.189 37.021C119.187 38.4762 119.186 39.9313 119.187 41.3865C119.188 41.594 119.188 41.8015 119.188 42.0154C119.188 42.4371 119.188 42.8588 119.189 43.2804C119.191 47.2298 119.188 51.1791 119.183 55.1285C119.179 58.5126 119.18 61.8968 119.184 65.2809C119.189 69.2163 119.191 73.1517 119.188 77.0871C119.188 77.5072 119.188 77.9274 119.187 78.3476C119.187 78.6576 119.187 78.6576 119.187 78.9739C119.186 80.4261 119.188 81.8784 119.19 83.3306C119.192 85.1021 119.192 86.8735 119.187 88.645C119.184 89.5478 119.183 90.4505 119.186 91.3532C119.19 92.3343 119.186 93.3152 119.181 94.2962C119.184 94.7191 119.184 94.7191 119.187 95.1506C119.156 98.6144 118.046 101.244 115.708 103.769C112.423 106.878 108.421 106.911 104.156 106.906C103.759 106.907 103.362 106.907 102.965 106.908C101.878 106.909 100.79 106.909 99.7023 106.909C98.528 106.909 97.3537 106.91 96.1794 106.911C93.88 106.913 91.5805 106.914 89.2811 106.914C87.4116 106.914 85.5421 106.915 83.6727 106.915C78.37 106.917 73.0673 106.919 67.7647 106.918C67.4789 106.918 67.1932 106.918 66.8988 106.918C66.6127 106.918 66.3266 106.918 66.0319 106.918C61.3956 106.918 56.7593 106.92 52.123 106.924C47.3602 106.927 42.5974 106.929 37.8346 106.929C35.1615 106.928 32.4885 106.929 29.8155 106.932C27.5396 106.934 25.2638 106.934 22.988 106.933C21.8275 106.932 20.667 106.932 19.5065 106.934C18.4427 106.936 17.3789 106.935 16.3152 106.933C15.9317 106.933 15.5483 106.933 15.1649 106.935C10.832 106.949 6.99695 106.553 3.72478 103.396C1.75712 101.156 0.6747 98.2256 0.672472 95.2545C0.671717 94.9986 0.67096 94.7427 0.670182 94.479C0.670545 94.2003 0.670908 93.9216 0.671282 93.6345C0.670751 93.3365 0.67022 93.0385 0.669673 92.7315C0.668241 91.9059 0.66827 91.0803 0.668547 90.2547C0.668594 89.3637 0.667301 88.4727 0.66619 87.5816C0.664244 85.8363 0.663598 84.0911 0.663467 82.3458C0.663356 80.9267 0.662874 79.5076 0.662132 78.0885C0.660068 74.0633 0.658987 70.0382 0.659162 66.013C0.659172 65.796 0.659181 65.5791 0.659191 65.3555C0.659201 65.1383 0.65921 64.9211 0.65922 64.6973C0.659315 61.1784 0.657073 57.6595 0.653768 54.1406C0.650399 50.5257 0.648783 46.9107 0.648985 43.2958C0.649063 41.267 0.648422 39.2382 0.645896 37.2094C0.643759 35.4817 0.643255 33.7541 0.644844 32.0264C0.645608 31.1455 0.645627 30.2647 0.643589 29.3839C0.641398 28.4272 0.642868 27.4707 0.644674 26.514C0.643468 26.238 0.642264 25.9619 0.641022 25.6775C0.656487 21.9614 1.48039 18.9746 4.1038 16.2322C6.4438 14.1089 9.09226 13.0971 12.228 13.0941ZM9.55028 22.6317C6.93025 26.281 8.90575 31.6012 8.90575 36.0936C42.5503 36.0936 76.1948 36.0936 110.859 36.0936C111.693 28.6679 111.693 28.6679 109.921 22.0311C108.993 21.2861 108.258 21.24 107.086 21.2395C106.92 21.2385 106.755 21.2375 106.584 21.2364C106.028 21.2338 105.471 21.2363 104.915 21.2387C104.513 21.2379 104.11 21.2368 103.708 21.2354C102.601 21.2324 101.494 21.2339 100.388 21.2361C99.1946 21.2377 98.0014 21.2352 96.8083 21.2333C94.4705 21.2302 92.1327 21.2308 89.7949 21.2329C87.8953 21.2345 85.9958 21.2347 84.0962 21.2339C83.8261 21.2338 83.556 21.2337 83.2777 21.2336C82.729 21.2334 82.1804 21.2331 81.6317 21.2329C76.4839 21.2309 71.3361 21.2332 66.1883 21.237C61.7689 21.2401 57.3495 21.2396 52.93 21.2363C47.8009 21.2326 42.6719 21.2311 37.5428 21.2332C36.9961 21.2335 36.4495 21.2337 35.9028 21.2339C35.4993 21.2341 35.4993 21.2341 35.0877 21.2342C33.1898 21.2348 31.292 21.2338 29.3942 21.2322C27.0821 21.2302 24.7701 21.2307 22.4581 21.2345C21.2779 21.2363 20.0977 21.237 18.9175 21.2347C17.8379 21.2326 16.7583 21.2338 15.6787 21.2375C15.2874 21.2383 14.8961 21.2379 14.5048 21.2362C13.9742 21.2341 13.4437 21.2362 12.9131 21.2395C12.618 21.2396 12.3229 21.2397 12.0189 21.2399C10.8789 21.3704 10.297 21.7813 9.55028 22.6317ZM8.90575 44.0624C8.89124 52.6185 8.87674 61.1747 8.8618 69.9901C8.8554 72.6937 8.849 75.3973 8.8424 78.1828C8.84005 80.6021 8.84005 80.6021 8.83864 83.0215C8.83798 84.1007 8.83534 85.1799 8.83151 86.2592C8.8267 87.6351 8.82524 89.011 8.82624 90.387C8.82603 90.8924 8.82464 91.3978 8.82192 91.9032C8.81843 92.5852 8.81927 93.2671 8.82119 93.9492C8.81914 94.1475 8.8171 94.3458 8.81499 94.5501C8.82379 95.7077 8.97103 96.4954 9.60887 97.4999C10.7485 98.554 11.5529 98.701 13.0769 98.7032C13.2405 98.7038 13.4042 98.7043 13.5729 98.7049C14.1254 98.7064 14.678 98.7063 15.2306 98.7062C15.6291 98.707 16.0277 98.7079 16.4262 98.7089C17.5246 98.7112 18.6231 98.7121 19.7215 98.7127C20.9049 98.7136 22.0883 98.7159 23.2717 98.7179C26.1312 98.7225 28.9908 98.7249 31.8503 98.727C33.1962 98.728 34.5421 98.7293 35.888 98.7305C40.3609 98.7345 44.8338 98.7379 49.3067 98.7396C50.4678 98.74 51.6289 98.7405 52.79 98.7409C53.2229 98.7411 53.2229 98.7411 53.6645 98.7413C58.3411 98.7432 63.0177 98.7492 67.6942 98.7568C72.4933 98.7645 77.2923 98.7687 82.0914 98.7695C84.7868 98.77 87.4822 98.772 90.1776 98.778C92.4728 98.7831 94.768 98.785 97.0632 98.7827C98.2345 98.7817 99.4057 98.7821 100.577 98.7867C101.649 98.7908 102.722 98.7906 103.794 98.7869C104.182 98.7864 104.57 98.7874 104.957 98.7902C107.71 98.8482 107.71 98.8482 110.156 97.7343C111.046 96.7522 110.956 95.6865 110.943 94.4283C110.944 94.106 110.944 94.106 110.945 93.7772C110.946 93.0548 110.943 92.3324 110.939 91.61C110.938 91.0842 110.939 90.5584 110.939 90.0326C110.939 88.6235 110.935 87.2144 110.93 85.8053C110.926 84.4834 110.926 83.1616 110.925 81.8397C110.922 77.9728 110.912 74.106 110.903 70.2391C110.881 57.2816 110.881 57.2816 110.859 44.0624C77.2143 44.0624 43.5698 44.0624 8.90575 44.0624Z" fill="white"/>
<path d="M63.8084 49.6144C64.8601 50.1971 65.4759 50.8816 65.8592 52.0314C66.0554 54.2611 65.612 56.3527 65.121 58.5112C65.0415 58.8711 64.9622 59.231 64.8831 59.5909C64.6694 60.5605 64.4519 61.5291 64.2336 62.4976C64.0048 63.5151 63.779 64.5333 63.5527 65.5514C63.1725 67.2595 62.79 68.9671 62.4059 70.6744C61.9628 72.6446 61.5235 74.6156 61.0864 76.5872C60.6644 78.4896 60.2397 80.3913 59.8137 82.2928C59.633 83.0996 59.4533 83.9066 59.2744 84.7138C59.0635 85.6647 58.8501 86.615 58.6349 87.5649C58.5566 87.9124 58.4791 88.26 58.4025 88.6079C57.3719 93.2832 57.3719 93.2832 55.5467 94.4532C54.3489 94.8525 52.9777 94.9155 51.7646 94.5274C50.5363 93.8852 49.8826 92.9297 49.4529 91.6407C49.303 89.7762 49.7863 88.0107 50.1948 86.2048C50.2746 85.8451 50.3543 85.4853 50.4338 85.1255C50.6495 84.1523 50.8676 83.1796 51.0862 82.207C51.3152 81.1869 51.5421 80.1663 51.7693 79.1458C52.1512 77.4322 52.5346 75.719 52.9191 74.006C53.3628 72.0286 53.8042 70.0507 54.2442 68.0724C54.6684 66.1658 55.0942 64.2594 55.5207 62.3533C55.7018 61.5437 55.8824 60.7341 56.0625 59.9244C56.275 58.97 56.4888 58.0158 56.7037 57.0619C56.7821 56.7128 56.8601 56.3636 56.9375 56.0143C58.0124 51.1706 58.0124 51.1706 59.2967 49.922C60.8299 49.0669 62.2191 48.889 63.8084 49.6144Z" fill="white"/>
<path d="M75.2785 54.5214C75.4897 54.5099 75.7009 54.4985 75.9185 54.4866C78.2551 54.8835 79.9876 57.1462 81.5883 58.7521C81.8828 59.0455 82.1774 59.3389 82.4721 59.6321C83.0871 60.245 83.7007 60.8592 84.3135 61.4743C85.0961 62.2597 85.8824 63.0412 86.6698 63.8217C87.2783 64.4259 87.8846 65.0323 88.4903 65.6393C88.7792 65.9283 89.0689 66.2165 89.3593 66.504C89.7659 66.9071 90.1693 67.3131 90.5722 67.72C90.6908 67.8363 90.8094 67.9526 90.9316 68.0725C91.9796 69.1423 92.8432 70.4204 92.9299 71.9531C92.8289 73.7241 91.719 75.0616 90.5076 76.2582C90.3062 76.4626 90.3062 76.4626 90.1007 76.6712C89.6606 77.1166 89.2172 77.5584 88.7734 78.0001C88.4638 78.3109 88.1544 78.6218 87.845 78.9329C87.198 79.5823 86.5493 80.23 85.8993 80.8765C85.0688 81.7031 84.2431 82.5343 83.4187 83.3669C82.7813 84.0094 82.1413 84.6491 81.5004 85.2881C81.1949 85.5934 80.8903 85.8996 80.5866 86.2067C80.161 86.6364 79.7318 87.0621 79.3016 87.4871C79.1783 87.6131 79.055 87.7391 78.928 87.869C77.9042 88.8673 76.7996 89.4583 75.3426 89.5815C73.8424 89.3821 72.913 88.9034 71.8801 87.7587C71.3613 87.0095 71.207 86.3967 71.1769 85.5029C71.1682 85.3352 71.1594 85.1675 71.1504 84.9948C71.4952 82.8531 73.0555 81.5081 74.5351 80.061C74.7652 79.8327 74.995 79.6041 75.2247 79.3754C75.8253 78.7784 76.4286 78.1843 77.0325 77.5907C77.6501 76.9828 78.265 76.3721 78.8802 75.7617C80.0843 74.5676 81.2913 73.3766 82.5002 72.1874C82.1519 71.3751 81.6925 70.8577 81.0642 70.2407C80.8648 70.0435 80.6653 69.8464 80.4598 69.6432C80.244 69.432 80.0281 69.2208 79.8058 69.0032C79.582 68.7821 79.3584 68.5609 79.135 68.3395C78.1877 67.4015 77.2374 66.4665 76.2864 65.5322C75.7039 64.9597 75.1231 64.3855 74.5433 63.8103C74.2161 63.4867 73.8868 63.1651 73.5575 62.8437C73.2572 62.5457 73.2572 62.5457 72.9508 62.2417C72.7748 62.0686 72.5987 61.8955 72.4173 61.7172C71.4819 60.6177 71.1152 59.6138 71.1678 58.1973C71.3559 56.9621 71.8918 56.0627 72.7883 55.2099C73.6216 54.6757 74.306 54.5571 75.2785 54.5214Z" fill="white"/>
<path d="M44.1504 54.8732C45.023 55.4964 45.6868 56.2175 46.1719 57.1876C46.2128 57.6356 46.2345 58.0855 46.2451 58.5353C46.2583 58.896 46.2583 58.896 46.2717 59.264C46.0123 61.1775 44.1909 62.5102 42.887 63.7996C42.657 64.0287 42.4271 64.2579 42.1974 64.4872C41.5958 65.087 40.9928 65.6853 40.3895 66.2834C39.7728 66.8953 39.1574 67.5086 38.5419 68.1218C37.3365 69.3221 36.1297 70.521 34.9219 71.7189C35.2733 72.543 35.7466 73.0655 36.3831 73.6909C36.588 73.8935 36.7929 74.0961 37.004 74.3048C37.1682 74.4656 37.1682 74.4656 37.3357 74.6295C37.6797 74.9664 38.022 75.3049 38.364 75.6438C39.3363 76.6068 40.3116 77.5667 41.2875 78.526C41.8853 79.1137 42.4813 79.7031 43.0763 80.2936C43.3029 80.5177 43.5301 80.7411 43.7581 80.9638C44.0772 81.2756 44.394 81.5898 44.7107 81.9041C44.8914 82.0818 45.0722 82.2596 45.2584 82.4428C46.1957 83.5516 46.2881 84.6589 46.2616 86.0643C46.0859 87.3464 45.4377 88.2062 44.4873 89.048C43.1867 89.5393 41.9797 89.668 40.6348 89.297C38.5161 88.0415 36.8282 86.0889 35.0931 84.3596C34.8914 84.1589 34.8914 84.1589 34.6857 83.9542C33.9761 83.248 33.2671 82.5413 32.5587 81.8339C31.8295 81.106 31.0982 80.3803 30.3663 79.6551C29.8007 79.0939 29.2367 78.5311 28.6731 77.9679C28.4042 77.6996 28.1346 77.4319 27.8644 77.1648C27.487 76.7914 27.1119 76.4158 26.7372 76.0397C26.5238 75.827 26.3103 75.6144 26.0904 75.3954C25.1301 74.2829 24.6592 73.1896 24.6094 71.7189C24.9342 70.1522 25.5768 69.141 26.7114 68.0436C26.8517 67.9023 26.992 67.761 27.1366 67.6154C27.5967 67.1539 28.0616 66.6976 28.5269 66.2413C28.8497 65.9199 29.1723 65.5982 29.4945 65.2763C30.1684 64.6046 30.8445 63.9353 31.5225 63.2677C32.3913 62.4122 33.256 61.5526 34.1193 60.6914C34.7844 60.0282 35.4508 59.3664 36.1177 58.7051C36.437 58.3885 36.7561 58.0716 37.075 57.7545C37.5203 57.3124 37.9672 56.8719 38.4146 56.4319C38.546 56.301 38.6774 56.1702 38.8127 56.0353C40.4024 54.4803 42.0101 54.1597 44.1504 54.8732Z" fill="white"/>
<path d="M42.466 25.1074C43.4581 25.7688 44.1468 26.5025 44.5314 27.6562C44.6512 29.0935 44.5186 30.0368 43.5939 31.1718C42.6714 31.987 41.827 32.2978 40.6193 32.3813C39.3389 32.2924 38.4766 31.7075 37.632 30.7763C37.0144 29.467 36.8844 28.4095 37.2804 27.0117C38.4484 25.0525 40.2921 24.3401 42.466 25.1074Z" fill="white"/>
<path d="M30.5123 25.1074C31.5022 25.7674 32.1699 26.3512 32.5008 27.4997C32.6927 28.7491 32.5917 29.6822 31.9423 30.7755C31.2102 31.7361 30.3707 32.1377 29.2086 32.3438C28.0359 32.4268 27.1939 32.0878 26.2496 31.4063C25.2693 30.3757 25.0021 29.5653 25.0283 28.1378C25.1422 27.0286 25.6677 26.3015 26.484 25.5908C27.7527 24.6657 29.0609 24.5952 30.5123 25.1074Z" fill="white"/>
<path d="M18.5748 25.1222C19.6173 25.8093 20.3208 26.6717 20.6256 27.8907C20.6489 29.2881 20.4149 30.3466 19.4537 31.4064C18.4905 32.1405 17.6034 32.4229 16.3922 32.3732C15.1538 32.1862 14.39 31.6543 13.5943 30.7032C13.0216 29.7569 12.9913 28.739 13.1256 27.6564C13.5612 26.4222 14.2045 25.8297 15.235 25.0782C16.4135 24.6854 17.4241 24.7017 18.5748 25.1222Z" fill="white"/>
</svg>
