<svg width="120" height="120" viewBox="0 0 120 120" fill="none" xmlns="http://www.w3.org/2000/svg">
<g clip-path="url(#clip0_107_207)">
<path d="M100.488 1.5967C102.743 3.21641 104.387 5.35684 104.941 8.1473C105.215 10.594 104.974 12.7061 104.063 15C103.985 15.0774 103.908 15.1547 103.828 15.2344C104.055 15.2574 104.281 15.2803 104.515 15.304C107.75 15.6755 110.396 16.4591 112.518 19.1281C114.019 21.3568 114.482 23.4645 114.464 26.1238C114.465 26.3845 114.467 26.6451 114.468 26.9137C114.47 27.782 114.468 28.6502 114.466 29.5185C114.467 30.1431 114.468 30.7677 114.47 31.3923C114.473 32.9096 114.472 34.4268 114.47 35.9441C114.469 37.1778 114.468 38.4115 114.469 39.6452C114.469 39.8212 114.469 39.9971 114.469 40.1784C114.47 40.5358 114.47 40.8933 114.47 41.2508C114.472 44.5986 114.47 47.9465 114.466 51.2944C114.463 54.1638 114.463 57.0331 114.467 59.9025C114.47 63.2388 114.472 66.5751 114.47 69.9115C114.47 70.2676 114.469 70.6237 114.469 70.9798C114.469 71.155 114.469 71.3302 114.469 71.5107C114.468 72.7422 114.469 73.9736 114.471 75.2051C114.473 76.7069 114.472 78.2087 114.469 79.7106C114.467 80.4761 114.466 81.2415 114.468 82.007C114.47 82.8385 114.468 83.6698 114.464 84.5012C114.466 84.7409 114.467 84.9805 114.469 85.2274C114.447 87.9545 113.635 90.3504 111.796 92.3978C109.802 94.2992 107.55 95.1866 104.815 95.1845C104.658 95.1847 104.501 95.1849 104.339 95.1851C103.815 95.1854 103.291 95.1842 102.766 95.1829C102.39 95.1828 102.013 95.1829 101.637 95.183C100.615 95.1831 99.5943 95.1817 98.5731 95.18C97.5056 95.1786 96.438 95.1784 95.3704 95.1781C93.3492 95.1774 91.328 95.1755 89.3069 95.1731C87.0057 95.1705 84.7044 95.1692 82.4032 95.1681C77.6699 95.1656 72.9365 95.1615 68.2032 95.1563C68.2679 95.3984 68.3325 95.6405 68.3992 95.89C68.4848 96.2104 68.5703 96.5309 68.6558 96.8513C68.6984 97.0106 68.741 97.1698 68.7848 97.3339C69.2179 98.9566 69.6227 100.585 70.0196 102.217C70.0936 102.515 70.1676 102.814 70.2439 103.121C70.3137 103.408 70.3835 103.695 70.4554 103.991C70.5181 104.247 70.5809 104.504 70.6456 104.768C70.7707 105.414 70.8084 105.985 70.7813 106.641C70.9962 106.636 71.2111 106.631 71.4326 106.626C72.2407 106.61 73.0487 106.598 73.8569 106.589C74.2047 106.584 74.5524 106.578 74.9001 106.57C77.7478 106.505 79.9579 106.769 82.1045 108.799C83.511 110.293 83.9738 111.733 83.9356 113.76C83.9314 114.052 83.9271 114.343 83.9228 114.644C83.9173 114.865 83.9119 115.085 83.9063 115.313C84.1557 115.308 84.4052 115.303 84.6622 115.298C85.5904 115.281 86.5185 115.27 87.4468 115.261C87.8481 115.256 88.2493 115.25 88.6505 115.242C89.2283 115.23 89.8058 115.225 90.3836 115.221C90.5622 115.216 90.7407 115.211 90.9246 115.206C91.8001 115.206 92.2941 115.281 93.0403 115.755C93.7043 116.446 93.7282 116.921 93.783 117.847C93.7364 118.571 93.5127 118.982 93.0469 119.531C92.2974 120.031 92.1102 120.059 91.2503 120.06C91.0243 120.062 90.7983 120.063 90.5654 120.065C90.3166 120.064 90.0677 120.063 89.8113 120.063C89.5474 120.064 89.2835 120.065 89.0115 120.066C88.1225 120.069 87.2335 120.068 86.3445 120.068C85.7089 120.069 85.0734 120.071 84.4379 120.073C82.8881 120.077 81.3382 120.078 79.7884 120.078C78.5288 120.079 77.2692 120.08 76.0097 120.081C72.4401 120.085 68.8706 120.087 65.301 120.087C65.1085 120.087 64.916 120.087 64.7176 120.087C64.4285 120.087 64.4285 120.087 64.1335 120.087C61.0092 120.087 57.8849 120.091 54.7606 120.098C51.5541 120.104 48.3476 120.108 45.141 120.107C43.3402 120.107 41.5394 120.108 39.7386 120.113C38.2054 120.118 36.6722 120.119 35.139 120.116C34.3565 120.114 33.5742 120.115 32.7917 120.118C31.9438 120.122 31.0962 120.12 30.2483 120.116C30.0005 120.118 29.7527 120.121 29.4973 120.123C28.449 120.113 27.8322 120.106 26.9203 119.556C26.3042 118.858 26.2705 118.368 26.2171 117.466C26.2636 116.742 26.4873 116.33 26.9532 115.781C27.8411 115.189 28.5435 115.253 29.5707 115.267C29.8501 115.268 29.8501 115.268 30.1352 115.269C30.7298 115.271 31.3244 115.277 31.919 115.283C32.3223 115.286 32.7256 115.288 33.1289 115.29C34.1172 115.295 35.1055 115.303 36.0938 115.313C36.0874 114.977 36.0874 114.977 36.0809 114.635C36.0776 114.341 36.0743 114.046 36.0709 113.743C36.0645 113.306 36.0645 113.306 36.058 112.861C36.1355 111.065 37.0056 109.76 38.2032 108.467C39.8003 107.035 41.3506 106.609 43.451 106.618C43.6987 106.618 43.6987 106.618 43.9514 106.619C44.4767 106.62 45.0021 106.623 45.5274 106.626C45.8844 106.627 46.2415 106.628 46.5985 106.629C47.472 106.632 48.3454 106.636 49.2188 106.641C49.2476 106.337 49.2765 106.033 49.3062 105.72C49.4326 104.587 49.6612 103.5 49.9292 102.394C49.9752 102.2 50.0211 102.006 50.0684 101.807C50.1648 101.402 50.2617 100.997 50.3592 100.593C50.5088 99.9719 50.6563 99.3505 50.8036 98.7291C50.8977 98.3343 50.992 97.9396 51.0865 97.5449C51.1307 97.3591 51.1749 97.1733 51.2204 96.9819C51.5353 95.6795 51.5353 95.6795 51.7969 95.1563C51.6022 95.1569 51.4075 95.1576 51.2068 95.1582C46.4629 95.1738 41.7191 95.1854 36.9751 95.1927C34.681 95.1963 32.3869 95.2013 30.0927 95.2093C28.0926 95.2163 26.0924 95.2209 24.0922 95.2224C23.0337 95.2233 21.9752 95.2255 20.9167 95.2306C19.919 95.2354 18.9214 95.2369 17.9238 95.2358C17.5589 95.236 17.194 95.2374 16.8292 95.2401C13.5867 95.263 10.8687 94.81 8.38352 92.5772C6.65833 90.7679 5.59909 88.5747 5.59358 86.0556C5.59254 85.8329 5.59149 85.6102 5.59041 85.3808C5.59046 85.1381 5.5905 84.8954 5.59055 84.6453C5.58969 84.386 5.58882 84.1266 5.58793 83.8594C5.58535 82.9886 5.58445 82.1179 5.58355 81.2471C5.58208 80.6234 5.58053 79.9997 5.57889 79.376C5.57426 77.5032 5.57189 75.6304 5.56981 73.7576C5.56878 72.8748 5.56752 71.992 5.56629 71.1092C5.56231 68.1732 5.55892 65.2371 5.55722 62.3011C5.55677 61.5396 5.55632 60.7781 5.55586 60.0167C5.55575 59.8274 5.55563 59.6382 5.55552 59.4432C5.55357 56.3791 5.54764 53.315 5.54002 50.251C5.53226 47.1024 5.52805 43.9539 5.5273 40.8053C5.52679 39.0386 5.52475 37.272 5.51875 35.5053C5.51365 34.0004 5.51179 32.4955 5.51406 30.9906C5.51512 30.2236 5.51419 29.4567 5.51013 28.6897C5.50597 27.8557 5.50765 27.022 5.51073 26.188C5.50687 25.8295 5.50686 25.8295 5.50293 25.4636C5.52687 22.7622 6.37897 20.2991 8.20316 18.2813C11.6842 15.062 15.6768 15.3365 20.1337 15.3623C20.7738 15.3631 21.4138 15.3625 22.0539 15.3619C23.4271 15.3614 24.8003 15.3644 26.1736 15.3696C28.159 15.3773 30.1444 15.3797 32.1298 15.3809C35.3518 15.3829 38.5737 15.3892 41.7956 15.398C44.9237 15.4067 48.0517 15.4133 51.1798 15.4173C51.4695 15.4176 51.4695 15.4176 51.765 15.418C52.7339 15.4192 53.7029 15.4204 54.6718 15.4216C62.6979 15.4313 70.724 15.4478 78.75 15.4688C78.8209 15.286 78.8918 15.1032 78.9649 14.9149C79.2187 14.297 79.514 13.8088 79.8935 13.2605C80.0302 13.0616 80.1669 12.8627 80.3078 12.6577C80.456 12.4445 80.6042 12.2314 80.7569 12.0117C81.075 11.5514 81.393 11.0908 81.7109 10.6302C81.8777 10.3886 82.0445 10.147 82.2165 9.89813C82.7472 9.12192 83.2683 8.33999 83.7873 7.55587C83.9628 7.29222 84.1384 7.02862 84.3141 6.76508C84.6499 6.26059 84.9837 5.75482 85.3153 5.2476C86.6088 3.31534 87.9316 1.85745 90.0586 0.849631C90.2919 0.736636 90.5251 0.623642 90.7654 0.507224C93.8899 -0.822931 97.7006 -0.142118 100.488 1.5967ZM90.1936 6.96312C90.0183 7.21311 89.8429 7.4631 89.6622 7.72066C89.5629 7.86205 89.4636 8.00344 89.3614 8.14911C88.0611 10.0156 86.8177 11.9212 85.5714 13.8239C84.8276 14.9593 84.0816 16.0933 83.3359 17.2275C83.1868 17.4544 83.0376 17.6814 82.884 17.9152C81.4513 20.0939 80.0076 22.2651 78.5596 24.4336C78.4481 24.6006 78.3366 24.7676 78.2218 24.9397C77.617 25.8455 77.0118 26.751 76.4063 27.6563C77.021 28.2937 77.6461 28.8468 78.36 29.3701C78.5516 29.5109 78.7431 29.6517 78.9405 29.7968C79.1387 29.9412 79.3369 30.0856 79.5411 30.2344C79.7374 30.3788 79.9338 30.5232 80.1361 30.672C81.1436 31.4102 82.1567 32.1308 83.2032 32.8125C84.6074 31.2 85.9953 29.5816 87.3047 27.8906C88.3016 26.6038 89.3415 25.3625 90.4066 24.1318C91.2117 23.2003 91.9895 22.252 92.753 21.286C93.462 20.3989 94.1846 19.5234 94.9073 18.6475C95.1206 18.3884 95.1206 18.3884 95.3383 18.124C95.957 17.373 96.5765 16.6228 97.2016 15.8771C99.5049 13.1388 99.5049 13.1388 100.158 9.7275C99.9289 8.04089 98.9947 6.71387 97.6978 5.66164C95.1477 4.06243 92.042 4.6597 90.1936 6.96312ZM11.3672 22.1338C10.6209 23.4087 10.4791 24.5909 10.4905 26.0448C10.4899 26.3266 10.4899 26.3266 10.4893 26.614C10.4886 27.2413 10.4911 27.8685 10.4937 28.4957C10.4938 28.9462 10.4938 29.3967 10.4935 29.8471C10.4934 31.0688 10.4961 32.2904 10.4994 33.512C10.5023 34.7892 10.5026 36.0664 10.5031 37.3435C10.5046 39.7615 10.5084 42.1794 10.5132 44.5973C10.5184 47.3503 10.521 50.1032 10.5233 52.8562C10.5282 58.5187 10.5365 64.1812 10.5469 69.8438C10.8785 69.8452 10.8785 69.8452 11.2168 69.8467C12.0403 69.853 12.8635 69.8645 13.6869 69.8795C14.0426 69.885 14.3984 69.8883 14.7542 69.8896C15.267 69.8918 15.7792 69.9014 16.2918 69.9124C16.5999 69.9161 16.908 69.9198 17.2254 69.9236C18.2376 70.114 18.5854 70.4548 19.2188 71.25C19.4152 71.9734 19.3707 72.6272 19.2188 73.3594C18.7791 73.9457 18.4597 74.2077 17.8125 74.5313C17.2681 74.5676 16.7228 74.5899 16.1774 74.6054C16.0168 74.6103 15.8562 74.6152 15.6907 74.6202C15.1773 74.6355 14.6639 74.6493 14.1504 74.6631C13.8025 74.6732 13.4546 74.6835 13.1067 74.6938C12.2535 74.7189 11.4002 74.7426 10.5469 74.7656C10.5231 76.4336 10.5067 78.1015 10.4954 79.7696C10.4907 80.3365 10.4843 80.9035 10.4762 81.4704C10.4648 82.2873 10.4595 83.104 10.4554 83.9209C10.4505 84.1727 10.4457 84.4245 10.4407 84.6839C10.4402 86.4429 10.6745 87.7745 11.9614 89.0763C12.1182 89.1829 12.275 89.2896 12.4366 89.3994C12.594 89.5103 12.7514 89.6212 12.9136 89.7354C13.8081 90.2663 14.5602 90.2643 15.5787 90.2659C15.734 90.2664 15.8894 90.267 16.0495 90.2675C16.5738 90.2691 17.0981 90.269 17.6224 90.2689C18.0006 90.2697 18.3789 90.2705 18.7571 90.2715C19.7994 90.2739 20.8417 90.2747 21.884 90.2753C23.0071 90.2763 24.1301 90.2785 25.2531 90.2805C27.9666 90.2852 30.6801 90.2875 33.3937 90.2896C34.6709 90.2907 35.9482 90.2919 37.2255 90.2931C41.4704 90.2971 45.7153 90.3005 49.9602 90.3022C51.0621 90.3027 52.1639 90.3031 53.2658 90.3036C53.5397 90.3037 53.8136 90.3038 54.0957 90.3039C58.5336 90.3059 62.9715 90.3118 67.4093 90.3194C71.9636 90.3272 76.518 90.3314 81.0723 90.3321C83.6302 90.3326 86.188 90.3347 88.7459 90.3407C90.924 90.3458 93.1022 90.3477 95.2803 90.3454C96.3918 90.3443 97.5032 90.3448 98.6146 90.3493C99.6323 90.3534 100.65 90.3532 101.668 90.3496C102.036 90.349 102.404 90.35 102.772 90.3528C104.655 90.3661 106.2 90.3736 107.813 89.2969C108.3 88.8461 108.3 88.8461 108.618 88.3447C108.729 88.1873 108.84 88.0299 108.954 87.8678C109.422 87.079 109.482 86.4379 109.48 85.5417C109.48 85.1828 109.48 85.1828 109.48 84.8167C109.479 84.5588 109.477 84.301 109.476 84.0354C109.476 83.771 109.475 83.5067 109.475 83.2344C109.474 82.389 109.471 81.5436 109.468 80.6983C109.467 80.1256 109.466 79.5529 109.465 78.9803C109.462 77.5754 109.458 76.1705 109.453 74.7656C109.296 74.7654 109.14 74.7652 108.978 74.765C99.6914 74.7513 90.4047 74.734 81.1181 74.712C80.0035 74.7093 78.889 74.7067 77.7745 74.7041C77.4417 74.7034 77.4417 74.7034 77.1021 74.7026C73.5072 74.6943 69.9122 74.6884 66.3172 74.6835C62.6298 74.6784 58.9423 74.6707 55.2549 74.6605C52.9786 74.6543 50.7024 74.6501 48.4262 74.6486C46.8663 74.6474 45.3064 74.6436 43.7465 74.6378C42.8459 74.6345 41.9453 74.6323 41.0447 74.6332C40.0691 74.6342 39.0935 74.6297 38.1178 74.6247C37.8321 74.6259 37.5465 74.627 37.2521 74.6282C36.991 74.6259 36.7299 74.6237 36.4608 74.6214C36.2356 74.621 36.0103 74.6206 35.7782 74.6201C35.0343 74.5138 34.5902 74.266 33.9844 73.8281C33.7181 73.2955 33.6881 72.9415 33.6621 72.3487C33.6449 72.0817 33.6449 72.0817 33.6274 71.8094C33.7686 71.1652 34.0054 70.7834 34.4837 70.3293C35.4939 69.7503 36.7627 69.9185 37.8923 69.9283C38.3504 69.9254 38.3504 69.9254 38.8176 69.9224C39.6648 69.9171 40.5118 69.9191 41.359 69.9223C42.2727 69.9245 43.1864 69.9199 44.1001 69.9161C45.683 69.9106 47.2658 69.9092 48.8487 69.9108C51.1373 69.9131 53.4258 69.909 55.7144 69.9032C59.4275 69.8941 63.1405 69.8902 66.8535 69.8896C70.4605 69.889 74.0674 69.8859 77.6744 69.8795C78.0078 69.8789 78.0078 69.8789 78.348 69.8783C79.4633 69.8764 80.5786 69.8743 81.6939 69.8723C90.947 69.8553 100.2 69.8468 109.453 69.8438C109.481 63.9253 109.501 58.0069 109.514 52.0884C109.52 49.3402 109.528 46.5921 109.542 43.8439C109.553 41.4482 109.561 39.0526 109.563 36.6568C109.565 35.3887 109.569 34.1206 109.577 32.8525C109.585 31.6578 109.587 30.4633 109.586 29.2686C109.586 28.8312 109.588 28.3937 109.593 27.9563C109.682 24.6811 109.682 24.6811 108.281 21.7969C106.017 19.9562 103.104 20.0048 100.306 20.2459C99.2324 20.469 98.7167 20.9321 98.1153 21.8262C97.8323 22.2807 97.5659 22.7397 97.308 23.2089C96.8411 23.9901 96.2325 24.6388 95.625 25.3125C94.6928 26.3816 93.7983 27.4724 92.9297 28.5938C91.9499 29.8588 90.9272 31.0771 89.8783 32.2852C89.0697 33.2212 88.2965 34.1785 87.5391 35.1563C86.543 36.4421 85.5042 37.6825 84.4398 38.9121C83.6084 39.8737 82.8044 40.8528 82.0166 41.8506C81.5068 42.492 80.9857 43.1233 80.4639 43.7549C80.2899 43.9706 80.1159 44.1863 79.9366 44.4086C79.6479 44.7618 79.3522 45.1096 79.043 45.445C78.5841 45.9762 78.2648 46.4093 78.3161 47.1295C78.4045 47.5154 78.5004 47.8995 78.6017 48.2822C79.3364 51.7606 78.521 55.1647 76.6407 58.125C75.1562 60.2693 72.7946 61.5829 70.3043 62.2341C69.3101 62.391 68.3266 62.3851 67.3215 62.3932C66.866 62.3998 66.4106 62.4065 65.9551 62.4133C65.2418 62.423 64.5286 62.4316 63.8153 62.4378C63.1236 62.4444 62.4321 62.4551 61.7405 62.4664C61.4258 62.4676 61.4258 62.4676 61.1047 62.4688C59.2403 62.5045 57.3829 62.8378 55.8545 63.9697C55.6823 64.0906 55.5101 64.2114 55.3327 64.336C55.1713 64.452 55.01 64.568 54.8438 64.6875C53.9836 65.3024 53.2881 65.7049 52.2071 65.6104C51.1405 65.3437 51.1405 65.3437 50.625 64.6875C50.4451 64.208 50.4451 64.208 50.3165 63.6576C50.2682 63.4548 50.2199 63.252 50.1702 63.0431C50.1221 62.8268 50.074 62.6106 50.0245 62.3877C49.9738 62.1636 49.9231 61.9394 49.8709 61.7085C49.7275 61.0617 49.5893 60.414 49.4532 59.7656C49.3939 59.491 49.3347 59.2164 49.2737 58.9334C48.327 53.6117 48.5532 47.5756 51.5479 42.9346C51.7839 42.6051 52.023 42.2778 52.2657 41.9531C52.4075 41.7451 52.4075 41.7451 52.5522 41.5329C54.4378 39.013 57.9257 37.4615 60.947 36.9504C61.7058 36.8432 62.4609 36.7599 63.2245 36.6925C64.2324 36.5201 64.847 36.246 65.4994 35.4305C65.8938 34.8642 66.2698 34.289 66.6422 33.7079C66.7836 33.4917 66.925 33.2755 67.0707 33.0527C67.5238 32.3589 67.9734 31.6629 68.4229 30.9668C68.717 30.5147 69.0113 30.0627 69.3059 29.6109C69.7462 28.9355 70.1863 28.26 70.6251 27.5837C71.8152 25.7508 73.0254 23.9318 74.2473 22.12C74.3771 21.9266 74.507 21.7332 74.6408 21.534C74.7557 21.3635 74.8707 21.1931 74.9892 21.0174C75.2551 20.669 75.2551 20.669 75.2344 20.3906C67.5112 20.3638 59.7881 20.3432 52.0649 20.3308C51.1525 20.3293 50.2402 20.3278 49.3279 20.3263C49.0554 20.3258 49.0554 20.3258 48.7775 20.3253C45.8388 20.3202 42.9001 20.311 39.9615 20.3002C36.9449 20.2893 33.9283 20.2828 30.9116 20.2804C29.051 20.2788 27.1905 20.2737 25.33 20.2642C23.9019 20.2572 22.4739 20.2565 21.0458 20.2581C20.461 20.2578 19.8762 20.2555 19.2914 20.251C18.4915 20.2451 17.692 20.2465 16.8922 20.2497C16.6619 20.2463 16.4316 20.2429 16.1944 20.2394C14.3123 20.2596 12.7321 20.803 11.3672 22.1338ZM73.5938 31.875C73.369 32.1741 73.155 32.4814 72.9456 32.7915C72.8142 32.985 72.6827 33.1785 72.5473 33.3779C72.3402 33.6853 72.3402 33.6853 72.1289 33.999C71.8593 34.3974 71.5896 34.7957 71.3196 35.1938C71.1245 35.4816 71.1245 35.4816 70.9255 35.7753C70.4194 36.5144 69.8993 37.2424 69.375 37.9688C69.7061 38.7624 70.0734 39.1449 70.7712 39.6396C71.0465 39.8365 71.0465 39.8365 71.3274 40.0374C71.5194 40.1717 71.7114 40.306 71.9092 40.4444C72.0985 40.5796 72.2878 40.7148 72.4828 40.8541C73.3804 41.4914 74.2771 42.1106 75.2344 42.6563C75.3622 42.5001 75.49 42.3439 75.6217 42.1829C75.7984 41.9669 75.9752 41.7509 76.1573 41.5283C76.4437 41.1776 76.4437 41.1776 76.7359 40.8197C77.1339 40.333 77.5346 39.849 77.937 39.3659C78.1232 39.1417 78.3093 38.9175 78.501 38.6865C78.6723 38.4814 78.8436 38.2763 79.0201 38.0649C79.3961 37.5744 79.6726 37.1252 79.9219 36.5625C78.4959 35.397 77.0425 34.2718 75.5713 33.1641C75.4038 33.0374 75.2363 32.9108 75.0637 32.7803C74.907 32.6628 74.7504 32.5453 74.589 32.4243C74.3775 32.2655 74.3775 32.2655 74.1618 32.1034C73.8633 31.853 73.8633 31.853 73.5938 31.875ZM56.4844 44.2969C54.1648 46.9594 53.6258 50.0431 53.628 53.4668C53.6278 53.7064 53.6277 53.946 53.6275 54.1929C53.6392 55.8612 53.7487 57.4353 54.1407 59.0625C54.3831 58.9945 54.3831 58.9945 54.6305 58.9252C54.9608 58.8336 54.9608 58.8336 55.2979 58.7403C55.5127 58.6804 55.7275 58.6206 55.9488 58.559C56.2029 58.4931 56.457 58.4273 56.7188 58.3594C56.9436 58.3003 56.9436 58.3003 57.173 58.2399C58.5205 57.9102 59.7891 57.8217 61.1728 57.8183C61.6167 57.8124 62.0606 57.8065 62.5045 57.8005C63.1946 57.7937 63.8847 57.7881 64.5749 57.7837C65.2476 57.7786 65.9201 57.7694 66.5928 57.7597C66.7969 57.7597 67.0011 57.7597 67.2114 57.7596C69.0969 57.7294 70.7069 57.2388 72.1875 56.0156C73.4248 54.4647 74.1309 53.0203 74.1211 51.0059C74.1223 50.7575 74.1235 50.5092 74.1248 50.2533C74.0403 48.573 74.0403 48.573 73.2058 47.171C72.6867 46.756 72.1535 46.3811 71.6016 46.0108C71.1984 45.7285 70.7953 45.4462 70.3922 45.1639C70.1855 45.0217 69.9788 44.8795 69.7659 44.733C69.1484 44.3023 68.5434 43.8586 67.9404 43.4079C67.7507 43.2669 67.5609 43.1259 67.3655 42.9805C67.0024 42.7104 66.6401 42.4392 66.2787 42.1668C66.1141 42.0461 65.9494 41.9255 65.7798 41.8012C65.6363 41.6944 65.4928 41.5876 65.3449 41.4776C62.9095 40.1672 58.241 42.5706 56.4844 44.2969ZM56.9532 95.1563C56.4581 96.2613 56.2018 97.4057 55.9259 98.5794C55.8746 98.7951 55.8232 99.0109 55.7703 99.2331C55.6623 99.6875 55.5548 100.142 55.4477 100.597C55.2832 101.294 55.1172 101.991 54.9509 102.689C54.8461 103.13 54.7415 103.572 54.6369 104.014C54.5871 104.223 54.5373 104.432 54.486 104.648C54.4406 104.841 54.3952 105.035 54.3484 105.234C54.288 105.489 54.288 105.489 54.2265 105.75C54.1251 106.177 54.1251 106.177 54.1407 106.641C58.0079 106.641 61.875 106.641 65.8594 106.641C65.2675 103.977 64.6741 101.315 64.0577 98.6572C64.0216 98.5 63.9856 98.3427 63.9484 98.1807C63.8431 97.7214 63.7366 97.2623 63.6301 96.8033C63.5686 96.5368 63.507 96.2703 63.4436 95.9958C63.3408 95.4111 63.3408 95.4111 63.0469 95.1563C62.5953 95.1358 62.143 95.1312 61.691 95.1334C61.4168 95.1341 61.1427 95.1349 60.8602 95.1357C60.4272 95.1386 60.4272 95.1386 59.9854 95.1416C59.6958 95.1427 59.4062 95.1437 59.1079 95.1448C58.3896 95.1476 57.6714 95.1515 56.9532 95.1563ZM41.25 112.5C40.841 113.231 40.841 113.231 41.0157 115.313C53.5454 115.313 66.075 115.313 78.9844 115.313C79.1884 113.162 79.1884 113.162 78.545 112.251C77.7409 111.518 77.2656 111.532 76.195 111.528C75.7529 111.526 75.7529 111.526 75.3018 111.523C74.9733 111.522 74.6448 111.522 74.3163 111.521C73.9718 111.52 73.6273 111.518 73.2827 111.516C72.3452 111.512 71.4077 111.51 70.4702 111.508C69.8846 111.507 69.2991 111.505 68.7135 111.504C66.8821 111.499 65.0507 111.496 63.2192 111.494C61.1041 111.492 58.989 111.486 56.8738 111.476C55.2396 111.469 53.6055 111.466 51.9713 111.465C50.9949 111.464 50.0186 111.462 49.0423 111.456C48.1237 111.451 47.2052 111.45 46.2866 111.452C45.9495 111.452 45.6125 111.451 45.2755 111.448C44.8152 111.443 44.3547 111.446 43.8943 111.448C43.6368 111.448 43.3792 111.447 43.1138 111.447C42.2583 111.59 41.868 111.903 41.25 112.5Z" fill="white"/>
<path d="M27.4218 69.8438C28.2833 70.3119 28.5407 70.6642 28.9453 71.5576C29.0915 72.6361 28.9133 73.1332 28.3593 74.0625C27.7242 74.5946 27.3159 74.7465 26.499 74.8682C25.5908 74.7384 25.0888 74.3926 24.3749 73.8281C23.9698 73.0178 24.0258 72.136 24.1406 71.25C24.9929 69.8863 25.8492 69.6325 27.4218 69.8438Z" fill="white"/>
</g>
<defs>
<clipPath id="clip0_107_207">
<rect width="120" height="120" fill="white"/>
</clipPath>
</defs>
</svg>
