<svg width="24" height="24" viewBox="0 0 24 24" fill="none" xmlns="http://www.w3.org/2000/svg">
<rect width="24" height="24" rx="4.36364" fill="#9B51E0"/>
<path d="M12 8.25V5.25H4.5V18.75H19.5V8.25H12ZM7.5 17.25H6V15.75H7.5V17.25ZM7.5 14.25H6V12.75H7.5V14.25ZM7.5 11.25H6V9.75H7.5V11.25ZM7.5 8.25H6V6.75H7.5V8.25ZM10.5 17.25H9V15.75H10.5V17.25ZM10.5 14.25H9V12.75H10.5V14.25ZM10.5 11.25H9V9.75H10.5V11.25ZM10.5 8.25H9V6.75H10.5V8.25ZM18 17.25H12V15.75H13.5V14.25H12V12.75H13.5V11.25H12V9.75H18V17.25ZM16.5 11.25H15V12.75H16.5V11.25ZM16.5 14.25H15V15.75H16.5V14.25Z" fill="white"/>
</svg>
