<svg width="24" height="24" viewBox="0 0 24 24" fill="none" xmlns="http://www.w3.org/2000/svg">
<rect width="24" height="24" rx="4.36364" fill="#51D3B1"/>
<g clip-path="url(#clip0_188_742)">
<path fill-rule="evenodd" clip-rule="evenodd" d="M11.9879 6.62972C11.597 6.62266 11.2086 6.69275 10.8448 6.83599C10.481 6.97922 10.1491 7.19279 9.86792 7.46446C9.58678 7.73613 9.36198 8.06058 9.20637 8.41923C9.05077 8.77788 8.96741 9.1637 8.96108 9.5546V13.6427C8.96108 13.8907 8.86257 14.1285 8.68721 14.3039C8.51185 14.4793 8.27401 14.5778 8.02602 14.5778H6.85719C6.4852 14.5778 6.12844 14.43 5.8654 14.167C5.60236 13.9039 5.45459 13.5472 5.45459 13.1752V11.305C5.45459 10.9331 5.60236 10.5763 5.8654 10.3133C6.12844 10.0502 6.4852 9.90245 6.85719 9.90245H7.55849V9.53777C7.56702 8.96307 7.68868 8.39568 7.91652 7.86801C8.14435 7.34034 8.47391 6.86272 8.88636 6.46242C9.29881 6.06213 9.78607 5.74701 10.3203 5.53505C10.8546 5.3231 11.4253 5.21846 12 5.22712C12.5747 5.21846 13.1455 5.3231 13.6798 5.53505C14.214 5.74701 14.7013 6.06213 15.1137 6.46242C15.5262 6.86272 15.8557 7.34034 16.0836 7.86801C16.3114 8.39568 16.4331 8.96307 16.4416 9.53777V9.90245H17.1429C17.5149 9.90245 17.8716 10.0502 18.1347 10.3133C18.3977 10.5763 18.5455 10.9331 18.5455 11.305V13.1752C18.5455 13.5472 18.3977 13.9039 18.1347 14.167C17.8716 14.43 17.5149 14.5778 17.1429 14.5778H16.4416V15.0453C16.4417 15.6772 16.2092 16.287 15.7884 16.7583C15.3675 17.2297 14.7879 17.5296 14.16 17.6008C14.0381 17.8185 13.8603 17.9998 13.645 18.1258C13.4297 18.2519 13.1846 18.3182 12.9351 18.318H11.5325C11.1605 18.318 10.8038 18.1703 10.5407 17.9072C10.2777 17.6442 10.1299 17.2874 10.1299 16.9154C10.1299 16.5434 10.2777 16.1867 10.5407 15.9236C10.8038 15.6606 11.1605 15.5128 11.5325 15.5128H12.9351C13.4419 15.5128 13.8861 15.7812 14.132 16.1842C14.3897 16.125 14.6197 15.9801 14.7845 15.7732C14.9492 15.5664 15.039 15.3098 15.039 15.0453V9.55367C15.0326 9.16075 14.9484 8.773 14.7912 8.41284C14.634 8.05268 14.407 7.72724 14.1233 7.45535C13.8395 7.18346 13.5047 6.9705 13.1382 6.82878C12.7717 6.68707 12.3807 6.61941 11.9879 6.62972Z" fill="white"/>
</g>
<defs>
<clipPath id="clip0_188_742">
<rect width="13.0909" height="13.0909" fill="white" transform="translate(5.45459 5.22565)"/>
</clipPath>
</defs>
</svg>
