<svg width="25" height="24" viewBox="0 0 25 24" fill="none" xmlns="http://www.w3.org/2000/svg">
<rect x="0.333984" width="24" height="24" rx="4.36364" fill="#2F80ED"/>
<path d="M6.00003 16V18.5H8.50003L15.8734 11.12L13.3734 8.62L6.00003 16ZM19.0734 16.74L16.24 19.5733L12.7734 16.1067L13.9534 14.9267L14.62 15.5933L16.2667 13.94L17.2134 14.8867L16.24 15.8333L16.9467 16.5L17.8934 15.5667L19.0734 16.74ZM8.4067 11.72L4.9267 8.26L7.76003 5.42667L8.93336 6.60667L7.2867 8.26L8.00003 8.96667L9.64003 7.31333L10.5867 8.26L9.64003 9.2L10.3067 9.86667L8.4067 11.72ZM17.8067 9.16667C18.0667 8.90667 18.0667 8.5 17.8067 8.22667L16.2467 6.69333C16 6.43333 15.5667 6.43333 15.3067 6.69333L14.08 7.91333L16.58 10.4133L17.8067 9.16667Z" fill="white"/>
</svg>
