<svg width="25" height="24" viewBox="0 0 25 24" fill="none" xmlns="http://www.w3.org/2000/svg">
<rect x="0.666992" width="24" height="24" rx="4.36364" fill="#FF8760"/>
<path d="M6.20816 17.251H18.4582V18.126H6.20816V17.251ZM17.1457 9.81355C17.2617 9.81355 17.373 9.76745 17.455 9.68541C17.5371 9.60336 17.5832 9.49208 17.5832 9.37605V8.06355C17.5831 7.97364 17.5554 7.88592 17.5037 7.81233C17.452 7.73875 17.379 7.68287 17.2944 7.6523L12.4819 5.9023C12.3858 5.86755 12.2805 5.86755 12.1844 5.9023L7.37191 7.6523C7.28735 7.68287 7.21427 7.73875 7.1626 7.81233C7.11094 7.88592 7.0832 7.97364 7.08316 8.06355V9.37605C7.08316 9.49208 7.12925 9.60336 7.2113 9.68541C7.29335 9.76745 7.40463 9.81355 7.52066 9.81355H7.95816V15.501H7.08316V16.376H17.5832V15.501H16.7082V9.81355H17.1457ZM7.95816 8.3698L12.3332 6.7773L16.7082 8.3698V8.93855H7.95816V8.3698ZM13.2082 15.501H11.4582V9.81355H13.2082V15.501ZM8.83316 9.81355H10.5832V15.501H8.83316V9.81355ZM15.8332 15.501H14.0832V9.81355H15.8332V15.501Z" fill="white"/>
</svg>
