<svg width="25" height="24" viewBox="0 0 25 24" fill="none" xmlns="http://www.w3.org/2000/svg">
<path d="M0.333984 4.36364C0.333984 1.95367 2.28765 0 4.69762 0H19.9703C22.3803 0 24.334 1.95367 24.334 4.36364V19.6364C24.334 22.0463 22.3803 24 19.9703 24H4.69762C2.28765 24 0.333984 22.0463 0.333984 19.6364V4.36364Z" fill="#50B9CF"/>
<g clip-path="url(#clip0_188_698)">
<path d="M8.90472 16.4644C9.74672 17.0771 10.7377 17.4525 11.7743 17.5516C12.8109 17.6507 13.855 17.4697 14.7978 17.0277C15.7407 16.5856 16.5476 15.8986 17.1343 15.0384C17.7211 14.1782 18.0663 13.1762 18.1338 12.1371H12.4902L8.90472 16.4644Z" fill="white"/>
<path d="M18.134 11.4101C18.1221 11.214 18.1002 11.0186 18.0685 10.8246H13.8722C13.637 10.8267 13.4055 10.7667 13.2009 10.6507C12.9963 10.5348 12.8259 10.3669 12.7068 10.1642C12.5877 9.96137 12.5241 9.73079 12.5225 9.49562C12.5209 9.26046 12.5813 9.02902 12.6976 8.82463L14.174 6.27918C12.9239 5.87515 11.5739 5.90608 10.3437 6.36692C9.11344 6.82777 8.07537 7.6914 7.39841 8.81728C6.72145 9.94316 6.44545 11.265 6.61532 12.5677C6.7852 13.8704 7.39095 15.0773 8.334 15.9919L12.1485 11.4101H18.134Z" fill="white"/>
<path d="M15.552 5.64179L13.472 9.22724C13.4236 9.29827 13.3959 9.38131 13.3918 9.46716C13.3877 9.55301 13.4074 9.63832 13.4489 9.71362C13.4903 9.78893 13.5517 9.8513 13.6264 9.89382C13.7011 9.93634 13.7861 9.95735 13.872 9.95452H18.0357C18.1216 9.95735 18.2066 9.93634 18.2813 9.89382C18.356 9.8513 18.4174 9.78893 18.4588 9.71362C18.5003 9.63832 18.52 9.55301 18.5159 9.46716C18.5118 9.38131 18.4841 9.29827 18.4357 9.22724L16.3557 5.64179C16.3146 5.57163 16.256 5.51343 16.1855 5.47298C16.115 5.43254 16.0351 5.41126 15.9538 5.41126C15.8726 5.41126 15.7927 5.43254 15.7222 5.47298C15.6517 5.51343 15.593 5.57163 15.552 5.64179Z" fill="white"/>
</g>
<defs>
<clipPath id="clip0_188_698">
<rect width="13.0909" height="13.0909" fill="white" transform="translate(5.78857 5.22772)"/>
</clipPath>
</defs>
</svg>
