<svg width="24" height="24" viewBox="0 0 24 24" fill="none" xmlns="http://www.w3.org/2000/svg">
<rect width="24" height="24" rx="4.36364" fill="#2D9CDB"/>
<path d="M13.8595 10.2857C14.2004 10.2857 14.5275 10.4211 14.7686 10.6622C15.0097 10.9034 15.1452 11.2304 15.1452 11.5714V15.1422C15.1452 15.9759 14.814 16.7755 14.2245 17.365C13.635 17.9545 12.8354 18.2857 12.0017 18.2857C11.1681 18.2857 10.3685 17.9545 9.779 17.365C9.18949 16.7755 8.85831 15.9759 8.85831 15.1422V11.5714C8.85831 11.2304 8.99377 10.9034 9.23489 10.6622C9.47601 10.4211 9.80303 10.2857 10.144 10.2857H13.8595ZM13.8595 11.1428H10.144C10.0304 11.1428 9.92135 11.188 9.84098 11.2683C9.76061 11.3487 9.71546 11.4577 9.71546 11.5714V15.1422C9.71546 15.7486 9.95633 16.3301 10.3851 16.7589C10.8139 17.1876 11.3954 17.4285 12.0017 17.4285C12.6081 17.4285 13.1896 17.1876 13.6184 16.7589C14.0472 16.3301 14.288 15.7486 14.288 15.1422V11.5714C14.288 11.4577 14.2429 11.3487 14.1625 11.2683C14.0821 11.188 13.9731 11.1428 13.8595 11.1428ZM6.4286 10.2857H8.80346C8.57397 10.5245 8.41275 10.8205 8.3366 11.1428H6.4286C6.31493 11.1428 6.20593 11.188 6.12555 11.2683C6.04518 11.3487 6.00003 11.4577 6.00003 11.5714V14.5708C5.9998 14.8576 6.07152 15.1398 6.20862 15.3917C6.34571 15.6436 6.54381 15.857 6.78476 16.0125C7.02571 16.168 7.30182 16.2606 7.58781 16.2818C7.8738 16.3029 8.16053 16.252 8.42174 16.1337C8.49774 16.4137 8.60688 16.6799 8.74403 16.9291C8.35253 17.1002 7.92458 17.171 7.49884 17.1352C7.07309 17.0994 6.66298 16.9581 6.30555 16.724C5.94813 16.49 5.65466 16.1705 5.45167 15.7946C5.24867 15.4186 5.14255 14.9981 5.14288 14.5708V11.5714C5.14288 11.2304 5.27834 10.9034 5.51946 10.6622C5.76058 10.4211 6.08761 10.2857 6.4286 10.2857ZM17.5715 10.2857C17.9124 10.2857 18.2395 10.4211 18.4806 10.6622C18.7217 10.9034 18.8572 11.2304 18.8572 11.5714V14.5714C18.8573 14.9983 18.7512 15.4186 18.5483 15.7943C18.3455 16.1699 18.0522 16.4892 17.6951 16.7232C17.338 16.9572 16.9283 17.0986 16.5028 17.1347C16.0774 17.1707 15.6497 17.1003 15.2583 16.9297L15.2903 16.8714C15.4126 16.6394 15.5115 16.3931 15.5823 16.1348C15.8434 16.2523 16.1297 16.3025 16.4152 16.2809C16.7007 16.2593 16.9762 16.1665 17.2166 16.011C17.457 15.8556 17.6547 15.6424 17.7915 15.3909C17.9284 15.1394 18 14.8577 18 14.5714V11.5714C18 11.4578 17.955 11.3489 17.8747 11.2685C17.7945 11.1882 17.6856 11.143 17.572 11.1428H15.6675C15.5911 10.8204 15.4297 10.5244 15.2 10.2857H17.5715ZM12 5.71423C12.2627 5.71423 12.5227 5.76596 12.7654 5.86647C13.008 5.96698 13.2285 6.1143 13.4142 6.30002C13.6 6.48574 13.7473 6.70622 13.8478 6.94887C13.9483 7.19152 14 7.45159 14 7.71423C14 7.97688 13.9483 8.23695 13.8478 8.4796C13.7473 8.72225 13.6 8.94273 13.4142 9.12845C13.2285 9.31416 13.008 9.46148 12.7654 9.56199C12.5227 9.6625 12.2627 9.71423 12 9.71423C11.4696 9.71423 10.9609 9.50352 10.5858 9.12845C10.2107 8.75337 10 8.24467 10 7.71423C10 7.1838 10.2107 6.67509 10.5858 6.30002C10.9609 5.92495 11.4696 5.71423 12 5.71423ZM16.5732 6.28566C16.7983 6.28566 17.0212 6.33 17.2292 6.41615C17.4372 6.50231 17.6262 6.62858 17.7854 6.78776C17.9445 6.94695 18.0708 7.13593 18.157 7.34392C18.2431 7.55191 18.2875 7.77482 18.2875 7.99995C18.2875 8.22507 18.2431 8.44799 18.157 8.65598C18.0708 8.86396 17.9445 9.05294 17.7854 9.21213C17.6262 9.37132 17.4372 9.49759 17.2292 9.58374C17.0212 9.66989 16.7983 9.71423 16.5732 9.71423C16.1185 9.71423 15.6825 9.53362 15.361 9.21213C15.0395 8.89064 14.8589 8.4546 14.8589 7.99995C14.8589 7.54529 15.0395 7.10926 15.361 6.78776C15.6825 6.46627 16.1185 6.28566 16.5732 6.28566ZM7.42688 6.28566C7.65201 6.28566 7.87493 6.33 8.08291 6.41615C8.2909 6.50231 8.47988 6.62858 8.63907 6.78776C8.79825 6.94695 8.92453 7.13593 9.01068 7.34392C9.09683 7.55191 9.14117 7.77482 9.14117 7.99995C9.14117 8.22507 9.09683 8.44799 9.01068 8.65598C8.92453 8.86396 8.79825 9.05294 8.63907 9.21213C8.47988 9.37132 8.2909 9.49759 8.08291 9.58374C7.87493 9.66989 7.65201 9.71423 7.42688 9.71423C6.97223 9.71423 6.53619 9.53362 6.2147 9.21213C5.89321 8.89064 5.7126 8.4546 5.7126 7.99995C5.7126 7.54529 5.89321 7.10926 6.2147 6.78776C6.53619 6.46627 6.97223 6.28566 7.42688 6.28566ZM12 6.57138C11.6969 6.57138 11.4062 6.69178 11.1919 6.90611C10.9776 7.12044 10.8572 7.41113 10.8572 7.71423C10.8572 8.01734 10.9776 8.30803 11.1919 8.52236C11.4062 8.73668 11.6969 8.85709 12 8.85709C12.3031 8.85709 12.5938 8.73668 12.8081 8.52236C13.0225 8.30803 13.1429 8.01734 13.1429 7.71423C13.1429 7.41113 13.0225 7.12044 12.8081 6.90611C12.5938 6.69178 12.3031 6.57138 12 6.57138ZM16.5732 7.1428C16.4606 7.1428 16.3491 7.16498 16.2452 7.20805C16.1412 7.25113 16.0467 7.31426 15.9671 7.39386C15.8875 7.47345 15.8243 7.56794 15.7813 7.67193C15.7382 7.77593 15.716 7.88739 15.716 7.99995C15.716 8.11251 15.7382 8.22397 15.7813 8.32796C15.8243 8.43196 15.8875 8.52645 15.9671 8.60604C16.0467 8.68563 16.1412 8.74877 16.2452 8.79184C16.3491 8.83492 16.4606 8.85709 16.5732 8.85709C16.8005 8.85709 17.0185 8.76678 17.1793 8.60604C17.34 8.44529 17.4303 8.22728 17.4303 7.99995C17.4303 7.77262 17.34 7.5546 17.1793 7.39386C17.0185 7.23311 16.8005 7.1428 16.5732 7.1428ZM7.42688 7.1428C7.31432 7.1428 7.20286 7.16498 7.09887 7.20805C6.99488 7.25113 6.90039 7.31426 6.82079 7.39386C6.7412 7.47345 6.67806 7.56794 6.63499 7.67193C6.59191 7.77593 6.56974 7.88739 6.56974 7.99995C6.56974 8.11251 6.59191 8.22397 6.63499 8.32796C6.67806 8.43196 6.7412 8.52645 6.82079 8.60604C6.90039 8.68563 6.99488 8.74877 7.09887 8.79184C7.20286 8.83492 7.31432 8.85709 7.42688 8.85709C7.65421 8.85709 7.87223 8.76678 8.03298 8.60604C8.19372 8.44529 8.28403 8.22728 8.28403 7.99995C8.28403 7.77262 8.19372 7.5546 8.03298 7.39386C7.87223 7.23311 7.65421 7.1428 7.42688 7.1428Z" fill="white"/>
</svg>
