<svg width="24" height="24" viewBox="0 0 24 24" fill="none" xmlns="http://www.w3.org/2000/svg">
<rect width="24" height="24" rx="4.36364" fill="#EC974D"/>
<g clip-path="url(#clip0_188_775)">
<path fill-rule="evenodd" clip-rule="evenodd" d="M12.4925 13.9511C13.0345 13.6369 13.5082 13.2176 13.8857 12.7177C13.7635 12.529 13.677 12.3195 13.6304 12.0996L13.6127 12.0173C13.5613 11.7826 13.4412 11.5685 13.2676 11.4023C13.0941 11.2361 12.875 11.1254 12.6383 11.0841C10.7009 10.7475 10.7009 7.96664 12.6383 7.62908C12.867 7.58936 13.0794 7.48466 13.2502 7.32747C13.421 7.17028 13.5429 6.96725 13.6015 6.74264C13.1459 6.24618 12.5883 5.85407 11.9671 5.59316C11.3458 5.33225 10.6755 5.20872 10.0021 5.23102C9.3286 5.25331 8.66793 5.42092 8.06529 5.72235C7.46265 6.02378 6.93228 6.45191 6.51053 6.97742C6.08877 7.50293 5.78559 8.11339 5.62175 8.76699C5.45792 9.42059 5.43729 10.1019 5.5613 10.7642C5.6853 11.4265 5.95101 12.0542 6.34021 12.6042C6.7294 13.1543 7.2329 13.6137 7.81621 13.9511V15.0441C7.81621 15.2921 7.91472 15.53 8.09008 15.7053C8.26544 15.8807 8.50328 15.9792 8.75127 15.9792H11.5565C11.8045 15.9792 12.0423 15.8807 12.2177 15.7053C12.393 15.53 12.4915 15.2921 12.4915 15.0441L12.4925 13.9511ZM7.81714 17.6156C7.81714 17.4296 7.89103 17.2512 8.02255 17.1197C8.15407 16.9882 8.33244 16.9143 8.51844 16.9143H11.7912C11.9772 16.9143 12.1555 16.9882 12.2871 17.1197C12.4186 17.2512 12.4925 17.4296 12.4925 17.6156C12.4925 17.8016 12.4186 17.9799 12.2871 18.1115C12.1555 18.243 11.9772 18.3169 11.7912 18.3169H8.51844C8.33244 18.3169 8.15407 18.243 8.02255 18.1115C7.89103 17.9799 7.81714 17.8016 7.81714 17.6156ZM14.6244 6.83147C14.7955 6.04975 15.9083 6.04508 16.0859 6.82492L16.0943 6.86233L16.1112 6.93526C16.2115 7.36266 16.4353 7.75112 16.7547 8.05237C17.074 8.35361 17.4749 8.55434 17.9074 8.6296C18.7228 8.77173 18.7228 9.94243 17.9074 10.0846C17.4724 10.1603 17.0695 10.3628 16.7493 10.6668C16.429 10.9707 16.2057 11.3625 16.1074 11.7929L16.0859 11.8883C15.9083 12.6691 14.7946 12.6644 14.6225 11.8818L14.6048 11.8004C14.5105 11.3685 14.2898 10.9745 13.9707 10.6686C13.6516 10.3627 13.2486 10.1587 12.8132 10.0827C11.9988 9.94149 11.9988 8.77266 12.8132 8.63053C13.2471 8.55507 13.6489 8.35255 13.9677 8.0486C14.2864 7.74465 14.5078 7.35296 14.6038 6.92311L14.6179 6.86233L14.6244 6.83147Z" fill="white"/>
</g>
<defs>
<clipPath id="clip0_188_775">
<rect width="13.0909" height="13.0909" fill="white" transform="translate(5.45459 5.22748)"/>
</clipPath>
</defs>
</svg>
