<svg width="25" height="24" viewBox="0 0 25 24" fill="none" xmlns="http://www.w3.org/2000/svg">
<rect x="0.666992" width="24" height="24" rx="4.36364" fill="#42C177"/>
<path d="M8.66699 6V8H6.66699V6H8.66699ZM5.66699 5V9H9.66699V5H5.66699ZM13.667 7.5V9.5H11.667V7.5H13.667ZM10.667 6.5V10.5H14.667V6.5H10.667ZM8.66699 12V14H6.66699V12H8.66699ZM5.66699 11V15H9.66699V11H5.66699Z" fill="white"/>
<path d="M15.667 9V12H12.667V15H9.66699V19H19.667V9H15.667ZM13.667 13H15.667V15H13.667V13ZM12.667 18H10.667V16H12.667V18ZM15.667 18H13.667V16H15.667V18ZM18.667 18H16.667V16H18.667V18ZM18.667 15H16.667V13H18.667V15ZM16.667 12V10H18.667V12H16.667Z" fill="white"/>
</svg>
