<svg width="25" height="24" viewBox="0 0 25 24" fill="none" xmlns="http://www.w3.org/2000/svg">
<rect x="0.333984" width="24" height="24" rx="4.36364" fill="#B36ED0"/>
<path d="M19.4365 16.9001C19.4365 17.1811 19.3384 17.4198 19.1422 17.616L18.291 18.4751C18.0842 18.6713 17.8429 18.7694 17.5672 18.7694C17.2861 18.7694 17.0475 18.6713 16.8513 18.4751L13.9638 15.5796C13.7623 15.3887 13.6615 15.1501 13.6615 14.8637C13.6615 14.5826 13.7755 14.3281 14.0035 14.1001L11.9672 12.0637L10.9649 13.066C10.8907 13.1402 10.8005 13.1773 10.6944 13.1773C10.5884 13.1773 10.4982 13.1402 10.424 13.066C10.4346 13.0766 10.4677 13.1084 10.5234 13.1614C10.5791 13.2145 10.6123 13.2489 10.6229 13.2648C10.6335 13.2807 10.66 13.3112 10.7024 13.3563C10.7448 13.4014 10.7713 13.4372 10.7819 13.4637C10.7926 13.4902 10.8085 13.526 10.8297 13.5711C10.8509 13.6162 10.8655 13.6599 10.8734 13.7023C10.8814 13.7448 10.8854 13.7925 10.8854 13.8455C10.8854 14.047 10.8111 14.2273 10.6626 14.3864C10.6467 14.4023 10.603 14.4501 10.5314 14.5296C10.4598 14.6092 10.4094 14.6635 10.3802 14.6927C10.3511 14.7218 10.302 14.7656 10.2331 14.8239C10.1641 14.8823 10.1058 14.9234 10.0581 14.9472C10.0104 14.9711 9.95202 14.9949 9.88308 15.0188C9.81414 15.0427 9.74521 15.0546 9.67627 15.0546C9.46414 15.0546 9.28384 14.9804 9.13536 14.8319L5.8899 11.5864C5.74142 11.4379 5.66718 11.2576 5.66718 11.0455C5.66718 10.9766 5.67911 10.9076 5.70297 10.8387C5.72683 10.7698 5.7507 10.7114 5.77456 10.6637C5.79843 10.616 5.83952 10.5576 5.89786 10.4887C5.95619 10.4198 5.99994 10.3707 6.02911 10.3415C6.05827 10.3124 6.11263 10.262 6.19218 10.1904C6.27172 10.1188 6.31945 10.0751 6.33536 10.0592C6.49445 9.91067 6.67475 9.83642 6.87627 9.83642C6.9293 9.83642 6.97702 9.8404 7.01945 9.84836C7.06187 9.85631 7.10562 9.87089 7.1507 9.89211C7.19577 9.91332 7.23157 9.92923 7.25808 9.93983C7.2846 9.95044 7.32039 9.97695 7.36547 10.0194C7.41055 10.0618 7.44104 10.0883 7.45695 10.0989C7.47286 10.1095 7.50733 10.1427 7.56036 10.1984C7.61339 10.254 7.64521 10.2872 7.65581 10.2978C7.58157 10.2235 7.54445 10.1334 7.54445 10.0273C7.54445 9.92127 7.58157 9.83112 7.65581 9.75688L10.424 6.9887C10.4982 6.91445 10.5884 6.87733 10.6944 6.87733C10.8005 6.87733 10.8907 6.91445 10.9649 6.9887C10.9543 6.97809 10.9212 6.94627 10.8655 6.89324C10.8098 6.84021 10.7766 6.80574 10.766 6.78983C10.7554 6.77392 10.7289 6.74343 10.6865 6.69836C10.6441 6.65328 10.6176 6.61749 10.6069 6.59097C10.5963 6.56445 10.5804 6.52866 10.5592 6.48358C10.538 6.43851 10.5234 6.39476 10.5155 6.35233C10.5075 6.30991 10.5035 6.26218 10.5035 6.20915C10.5035 6.00764 10.5778 5.82733 10.7263 5.66824C10.7422 5.65233 10.7859 5.60461 10.8575 5.52506C10.9291 5.44552 10.9795 5.39116 11.0087 5.36199C11.0378 5.33283 11.0869 5.28908 11.1558 5.23074C11.2248 5.17241 11.2831 5.13131 11.3308 5.10745C11.3785 5.08358 11.4369 5.05972 11.5058 5.03586C11.5748 5.01199 11.6437 5.00006 11.7126 5.00006C11.9248 5.00006 12.1051 5.0743 12.2535 5.22279L15.499 8.46824C15.6475 8.61673 15.7217 8.79703 15.7217 9.00915C15.7217 9.07809 15.7098 9.14703 15.6859 9.21597C15.6621 9.28491 15.6382 9.34324 15.6143 9.39097C15.5905 9.4387 15.5494 9.49703 15.491 9.56597C15.4327 9.63491 15.389 9.68396 15.3598 9.71313C15.3306 9.7423 15.2763 9.79267 15.1967 9.86427C15.1172 9.93586 15.0694 9.97961 15.0535 9.99552C14.8944 10.144 14.7141 10.2182 14.5126 10.2182C14.4596 10.2182 14.4119 10.2143 14.3694 10.2063C14.327 10.1984 14.2833 10.1838 14.2382 10.1626C14.1931 10.1413 14.1573 10.1254 14.1308 10.1148C14.1043 10.1042 14.0685 10.0777 14.0234 10.0353C13.9783 9.99286 13.9479 9.96635 13.9319 9.95574C13.916 9.94514 13.8816 9.91199 13.8285 9.85631C13.7755 9.80063 13.7437 9.76749 13.7331 9.75688C13.8073 9.83112 13.8444 9.92127 13.8444 10.0273C13.8444 10.1334 13.8073 10.2235 13.7331 10.2978L12.7308 11.3001L14.7672 13.3364C14.9952 13.1084 15.2498 12.9944 15.5308 12.9944C15.8066 12.9944 16.0479 13.0925 16.2547 13.2887L19.1422 16.1762C19.3384 16.383 19.4365 16.6243 19.4365 16.9001Z" fill="white"/>
</svg>
