<svg width="24" height="24" viewBox="0 0 24 24" fill="none" xmlns="http://www.w3.org/2000/svg">
<rect width="24" height="24" rx="4.36364" fill="#FFAB4B"/>
<g clip-path="url(#clip0_188_750)">
<path d="M17.9233 7.0636C17.7729 6.96629 17.6009 6.90741 17.4224 6.89216C17.2439 6.8769 17.0643 6.90573 16.8996 6.9761L11.5008 9.10235C11.373 9.15437 11.2363 9.18112 11.0983 9.1811H7.64209C7.35201 9.1811 7.07381 9.29634 6.86869 9.50146C6.66357 9.70657 6.54834 9.98477 6.54834 10.2749V10.3624H5.45459V12.9874H6.54834V13.1011C6.55519 13.3866 6.67345 13.6581 6.87783 13.8576C7.08221 14.0571 7.3565 14.1687 7.64209 14.1686L8.95459 16.9511C9.04346 17.1385 9.18338 17.297 9.35828 17.4084C9.53318 17.5199 9.73596 17.5797 9.94334 17.5811H10.4946C10.7832 17.5788 11.0591 17.4625 11.2623 17.2577C11.4656 17.0528 11.5796 16.7759 11.5796 16.4874V14.2736L16.8996 16.3999C17.0304 16.4519 17.17 16.4787 17.3108 16.4786C17.5293 16.4751 17.7421 16.4082 17.9233 16.2861C18.0673 16.1889 18.186 16.0589 18.2697 15.9067C18.3533 15.7546 18.3996 15.5847 18.4046 15.4111V7.96485C18.4038 7.78681 18.3595 7.61164 18.2757 7.45458C18.1918 7.29752 18.0709 7.16331 17.9233 7.0636ZM10.4858 10.2749V13.1011H7.64209V10.2749H10.4858ZM10.4858 16.4874H9.93459L8.85834 14.1686H10.4858V16.4874ZM11.9033 13.2324C11.7994 13.1793 11.6911 13.1353 11.5796 13.1011V10.2136C11.6901 10.1908 11.7984 10.1586 11.9033 10.1174L17.3108 7.96485V15.3849L11.9033 13.2324ZM18.4308 10.5811V12.7686C18.7209 12.7686 18.9991 12.6534 19.2042 12.4483C19.4094 12.2431 19.5246 11.9649 19.5246 11.6749C19.5246 11.3848 19.4094 11.1066 19.2042 10.9015C18.9991 10.6963 18.7209 10.5811 18.4308 10.5811Z" fill="white"/>
</g>
<defs>
<clipPath id="clip0_188_750">
<rect width="14" height="14" fill="white" transform="translate(5.45459 5.22656)"/>
</clipPath>
</defs>
</svg>
