<svg width="25" height="24" viewBox="0 0 25 24" fill="none" xmlns="http://www.w3.org/2000/svg">
<rect x="0.666992" width="24" height="24" rx="4.36364" fill="#CC5BFB"/>
<path fill-rule="evenodd" clip-rule="evenodd" d="M9.375 6.87497C9.375 6.77551 9.41451 6.68013 9.48484 6.6098C9.55516 6.53948 9.65054 6.49997 9.75 6.49997C9.84946 6.49997 9.94484 6.53948 10.0152 6.6098C10.0855 6.68013 10.125 6.77551 10.125 6.87497V7.24997H10.875C11.1734 7.24997 11.4595 7.3685 11.6705 7.57947C11.8815 7.79045 12 8.0766 12 8.37497C12 8.67334 11.8815 8.95949 11.6705 9.17046C11.4595 9.38144 11.1734 9.49997 10.875 9.49997H10.125V9.87497H11.625V10.625H10.125V11.75H11.8448L13.5233 10.0711C13.1535 9.51202 13.0115 8.83277 13.1261 8.17239C13.2408 7.512 13.6036 6.92042 14.1401 6.51872L15.7121 8.09109L16.0684 7.73484C16.1387 7.66448 16.2341 7.62493 16.3336 7.62489C16.433 7.62486 16.5284 7.66434 16.5988 7.73466C16.6692 7.80497 16.7087 7.90036 16.7088 7.99984C16.7088 8.09931 16.6693 8.19473 16.599 8.26509L16.2427 8.62134L17.8148 10.1933C17.6643 10.3947 17.4857 10.5734 17.2845 10.724C16.9075 11.0055 16.4618 11.1806 15.994 11.2312C15.5262 11.2817 15.0534 11.2057 14.625 11.0112V11.75H19.5V12.5H18.75V17.75H19.125C19.2245 17.75 19.3198 17.7895 19.3902 17.8598C19.4605 17.9301 19.5 18.0255 19.5 18.125C19.5 18.2244 19.4605 18.3198 19.3902 18.3901C19.3198 18.4605 19.2245 18.5 19.125 18.5H6.375C6.27554 18.5 6.18016 18.4605 6.10984 18.3901C6.03951 18.3198 6 18.2244 6 18.125C6 18.0255 6.03951 17.9301 6.10984 17.8598C6.18016 17.7895 6.27554 17.75 6.375 17.75H6.75V12.5H6V11.75H9.375V10.625H7.875V9.87497H9.375V9.49997H8.625C8.32663 9.49997 8.04048 9.38144 7.8295 9.17046C7.61853 8.95949 7.5 8.67334 7.5 8.37497C7.5 8.0766 7.61853 7.79045 7.8295 7.57947C8.04048 7.3685 8.32663 7.24997 8.625 7.24997H9.375V6.87497ZM13.875 10.7802L12.9052 11.75H13.875V10.7802ZM15.375 17.75H17.25V14.75H15.375V17.75ZM8.625 7.99997H9.375V8.74997H8.625C8.52554 8.74997 8.43016 8.71046 8.35984 8.64013C8.28951 8.56981 8.25 8.47443 8.25 8.37497C8.25 8.27551 8.28951 8.18013 8.35984 8.1098C8.43016 8.03948 8.52554 7.99997 8.625 7.99997ZM10.875 7.99997H10.125V8.74997H10.875C10.9745 8.74997 11.0698 8.71046 11.1402 8.64013C11.2105 8.56981 11.25 8.47443 11.25 8.37497C11.25 8.27551 11.2105 8.18013 11.1402 8.1098C11.0698 8.03948 10.9745 7.99997 10.875 7.99997ZM16.7464 10.1858C16.3857 10.4239 15.9539 10.5301 15.524 10.4865C15.0941 10.4429 14.6924 10.2522 14.3868 9.94666C14.0812 9.6411 13.8906 9.2394 13.847 8.80948C13.8034 8.37955 13.9096 7.94776 14.1476 7.58709L16.7464 10.1858ZM10.125 16.25V14.75H8.25V16.25H10.125ZM12.75 16.25V14.75H10.875V16.25H12.75Z" fill="white"/>
</svg>
