<svg width="24" height="24" viewBox="0 0 24 24" fill="none" xmlns="http://www.w3.org/2000/svg">
<rect x="0.000976562" width="24" height="24" rx="4.36364" fill="#7F96CC"/>
<g clip-path="url(#clip0_188_766)">
<path d="M5.58331 6.08334V11.9167H18.4166V6.08334H5.58331ZM12.5833 9.58334H7.33331V8.41668H12.5833V9.58334ZM14.3333 9.58334C14.2179 9.58334 14.1052 9.54913 14.0092 9.48503C13.9133 9.42094 13.8385 9.32983 13.7944 9.22324C13.7502 9.11665 13.7387 8.99936 13.7612 8.88621C13.7837 8.77305 13.8393 8.66911 13.9208 8.58753C14.0024 8.50595 14.1064 8.45039 14.2195 8.42789C14.3327 8.40538 14.45 8.41693 14.5565 8.46108C14.6631 8.50523 14.7542 8.58 14.8183 8.67593C14.8824 8.77186 14.9166 8.88464 14.9166 9.00001C14.9166 9.15472 14.8552 9.30309 14.7458 9.41249C14.6364 9.52189 14.488 9.58334 14.3333 9.58334ZM16.0833 9.58334C15.9679 9.58334 15.8552 9.54913 15.7592 9.48503C15.6633 9.42094 15.5885 9.32983 15.5444 9.22324C15.5002 9.11665 15.4887 8.99936 15.5112 8.88621C15.5337 8.77305 15.5893 8.66911 15.6708 8.58753C15.7524 8.50595 15.8564 8.45039 15.9695 8.42789C16.0827 8.40538 16.2 8.41693 16.3065 8.46108C16.4131 8.50523 16.5042 8.58 16.5683 8.67593C16.6324 8.77186 16.6666 8.88464 16.6666 9.00001C16.6666 9.15472 16.6052 9.30309 16.4958 9.41249C16.3864 9.52189 16.238 9.58334 16.0833 9.58334ZM18.2358 16.2158L18.9008 15.6325L18.3175 14.6233L17.4716 14.9092C17.284 14.7518 17.071 14.6276 16.8416 14.5417L16.6666 13.6667H15.5L15.325 14.5358C15.0957 14.6217 14.8826 14.746 14.695 14.9033L13.8491 14.6175L13.2658 15.6267L13.9308 16.21C13.8836 16.4527 13.8836 16.7023 13.9308 16.945L13.2658 17.5283L13.8491 18.5375L14.695 18.2517C14.8826 18.409 15.0957 18.5333 15.325 18.6192L15.5 19.5H16.6666L16.8416 18.6308C17.071 18.545 17.284 18.4207 17.4716 18.2633L18.3175 18.5492L18.9008 17.54L18.2358 16.9567C18.2823 16.7119 18.2823 16.4606 18.2358 16.2158ZM16.0833 17.75C15.8526 17.75 15.627 17.6816 15.4351 17.5534C15.2433 17.4252 15.0938 17.243 15.0055 17.0298C14.9172 16.8166 14.894 16.582 14.9391 16.3557C14.9841 16.1294 15.0952 15.9215 15.2584 15.7584C15.4215 15.5952 15.6294 15.4841 15.8557 15.4391C16.082 15.3941 16.3166 15.4172 16.5298 15.5055C16.743 15.5938 16.9252 15.7433 17.0534 15.9352C17.1816 16.127 17.25 16.3526 17.25 16.5833C17.2491 16.8925 17.1258 17.1887 16.9073 17.4073C16.6887 17.6259 16.3924 17.7491 16.0833 17.75Z" fill="white"/>
<path d="M12 16.5833H7.33331V15.4167H12.1715C12.4642 14.4393 13.1122 13.6069 13.988 13.0833H5.58331V18.9167H12.735C12.2559 18.233 11.9993 17.4182 12 16.5833Z" fill="white"/>
</g>
<defs>
<clipPath id="clip0_188_766">
<rect width="14" height="14" fill="white" transform="translate(5 5.5)"/>
</clipPath>
</defs>
</svg>
