<svg width="40" height="41" viewBox="0 0 40 41" fill="none" xmlns="http://www.w3.org/2000/svg">
<g id="fa-solid:quote-left">
<path id="Vector" d="M36.25 20.9326H30V15.9326C30 13.1748 32.2422 10.9326 35 10.9326H35.625C36.6641 10.9326 37.5 10.0967 37.5 9.05762V5.30762C37.5 4.26855 36.6641 3.43262 35.625 3.43262H35C28.0938 3.43262 22.5 9.02637 22.5 15.9326V34.6826C22.5 36.7529 24.1797 38.4326 26.25 38.4326H36.25C38.3203 38.4326 40 36.7529 40 34.6826V24.6826C40 22.6123 38.3203 20.9326 36.25 20.9326ZM13.75 20.9326H7.5V15.9326C7.5 13.1748 9.74219 10.9326 12.5 10.9326H13.125C14.1641 10.9326 15 10.0967 15 9.05762V5.30762C15 4.26855 14.1641 3.43262 13.125 3.43262H12.5C5.59375 3.43262 0 9.02637 0 15.9326V34.6826C0 36.7529 1.67969 38.4326 3.75 38.4326H13.75C15.8203 38.4326 17.5 36.7529 17.5 34.6826V24.6826C17.5 22.6123 15.8203 20.9326 13.75 20.9326Z" fill="#4F4F4F"/>
</g>
</svg>
