<svg width="24" height="25" viewBox="0 0 24 25" fill="none" xmlns="http://www.w3.org/2000/svg">
<path d="M21.2089 9.60763L15.2581 8.74278L12.5979 3.34981C12.5253 3.20216 12.4057 3.08263 12.2581 3.00997C11.8878 2.82716 11.4378 2.9795 11.2526 3.34981L8.59246 8.74278L2.64168 9.60763C2.47762 9.63106 2.32762 9.70841 2.21278 9.82559C2.07394 9.9683 1.99743 10.1603 2.00007 10.3594C2.0027 10.5584 2.08427 10.7483 2.22684 10.8873L6.53231 15.085L5.51512 21.0123C5.49127 21.1502 5.50652 21.292 5.55916 21.4217C5.6118 21.5513 5.69972 21.6636 5.81294 21.7459C5.92616 21.8281 6.06015 21.8769 6.19973 21.8869C6.33931 21.8968 6.47888 21.8675 6.60262 21.8022L11.9253 19.0037L17.2479 21.8022C17.3932 21.8795 17.562 21.9053 17.7237 21.8772C18.1315 21.8068 18.4057 21.4201 18.3354 21.0123L17.3182 15.085L21.6237 10.8873C21.7409 10.7725 21.8182 10.6225 21.8417 10.4584C21.905 10.0483 21.619 9.66856 21.2089 9.60763V9.60763Z" fill="#E3E3E3"/>
</svg>
