<svg width="24" height="25" viewBox="0 0 24 25" fill="none" xmlns="http://www.w3.org/2000/svg">
<path d="M21.2831 9.20919L15.3323 8.34435L12.6722 2.95138C12.5995 2.80372 12.48 2.68419 12.3323 2.61153C11.962 2.42872 11.512 2.58106 11.3268 2.95138L8.66668 8.34435L2.7159 9.20919C2.55184 9.23263 2.40184 9.30997 2.28699 9.42716C2.14815 9.56986 2.07165 9.76185 2.07428 9.96093C2.07692 10.16 2.15849 10.3499 2.30106 10.4889L6.60653 14.6865L5.58934 20.6139C5.56549 20.7518 5.58074 20.8936 5.63338 21.0232C5.68602 21.1529 5.77394 21.2652 5.88716 21.3474C6.00038 21.4296 6.13437 21.4785 6.27395 21.4885C6.41352 21.4984 6.5531 21.4691 6.67684 21.4037L11.9995 18.6053L17.3222 21.4037C17.4675 21.4811 17.6362 21.5068 17.7979 21.4787C18.2057 21.4084 18.48 21.0217 18.4097 20.6139L17.3925 14.6865L21.6979 10.4889C21.8151 10.374 21.8925 10.224 21.9159 10.06C21.9792 9.64981 21.6932 9.27013 21.2831 9.20919V9.20919Z" fill="#F2C94C"/>
</svg>
