<svg width="120" height="120" viewBox="0 0 120 120" fill="none" xmlns="http://www.w3.org/2000/svg">
<g clip-path="url(#clip0_139_3480)">
<path d="M41.1413 -0.031483C41.4129 -0.0325278 41.6845 -0.0335726 41.9643 -0.0346491C42.4139 -0.0345843 42.4139 -0.0345843 42.8727 -0.0345181C43.1932 -0.0352913 43.5138 -0.0361645 43.8344 -0.0371294C44.7172 -0.0394793 45.6001 -0.0403492 46.483 -0.0409707C47.4344 -0.041885 48.3859 -0.04413 49.3373 -0.0461768C51.6357 -0.05081 53.9342 -0.0531683 56.2327 -0.0552536C57.3146 -0.0562806 58.3965 -0.0575385 59.4784 -0.0587667C63.0739 -0.0627537 66.6694 -0.0661511 70.2649 -0.0678484C71.198 -0.068296 72.1312 -0.0687461 73.0644 -0.0692045C73.4123 -0.0693745 73.4123 -0.0693745 73.7672 -0.069548C77.5264 -0.0714944 81.2856 -0.0774344 85.0448 -0.0850437C88.9026 -0.0927891 92.7604 -0.0970156 96.6182 -0.097765C98.7849 -0.0982729 100.952 -0.10033 103.118 -0.106311C104.963 -0.111391 106.808 -0.113289 108.653 -0.111006C109.594 -0.109939 110.536 -0.110398 111.477 -0.114934C112.339 -0.119051 113.201 -0.118846 114.062 -0.115193C114.522 -0.114369 114.982 -0.118169 115.441 -0.122131C116.945 -0.111067 117.931 -0.102481 119.062 0.937475C120.025 2.03342 120.034 3.05129 120.031 4.45425C120.031 4.74568 120.031 4.74568 120.032 5.043C120.033 5.69971 120.033 6.3564 120.033 7.0131C120.033 7.48642 120.034 7.95973 120.035 8.43304C120.037 9.73814 120.037 11.0432 120.037 12.3483C120.038 13.7541 120.039 15.1599 120.041 16.5657C120.044 19.8021 120.046 23.0384 120.047 26.2747C120.047 27.8735 120.048 29.4722 120.049 31.071C120.052 36.5421 120.055 42.0132 120.055 47.4843C120.055 47.8278 120.056 48.1713 120.056 48.5148C120.056 48.8592 120.056 49.2035 120.056 49.5479C120.056 50.2387 120.056 50.9296 120.056 51.6204C120.056 51.7917 120.056 51.963 120.056 52.1395C120.057 57.6951 120.061 63.2507 120.066 68.8063C120.072 74.678 120.075 80.5497 120.075 86.4214C120.075 87.0657 120.076 87.71 120.076 88.3543C120.076 88.5129 120.076 88.6716 120.076 88.835C120.076 91.3904 120.078 93.9457 120.082 96.5011C120.085 99.0685 120.086 101.636 120.084 104.203C120.083 105.595 120.083 106.986 120.087 108.378C120.09 109.651 120.089 110.923 120.087 112.196C120.086 112.658 120.087 113.119 120.089 113.58C120.091 114.206 120.09 114.832 120.087 115.457C120.089 115.638 120.09 115.818 120.092 116.004C120.081 117.119 119.888 117.881 119.297 118.828C118.288 119.738 117.729 120.029 116.386 120.031C116.115 120.032 115.844 120.033 115.564 120.034C115.264 120.033 114.963 120.033 114.653 120.033C114.333 120.033 114.012 120.034 113.692 120.035C112.808 120.037 111.924 120.037 111.04 120.037C110.088 120.038 109.136 120.04 108.184 120.041C106.101 120.044 104.018 120.046 101.934 120.047C100.634 120.048 99.3343 120.049 98.0343 120.05C94.4368 120.052 90.8393 120.055 87.2418 120.056C87.0114 120.056 86.781 120.056 86.5437 120.056C86.3127 120.056 86.0818 120.056 85.8439 120.056C85.3759 120.056 84.9079 120.056 84.4399 120.056C84.2078 120.056 83.9757 120.056 83.7365 120.056C79.9741 120.057 76.2117 120.061 72.4493 120.067C68.5892 120.072 64.729 120.075 60.8688 120.076C58.7004 120.076 56.532 120.077 54.3636 120.081C52.5174 120.085 50.6711 120.086 48.8248 120.084C47.8824 120.083 46.9401 120.084 45.9977 120.087C45.1353 120.09 44.273 120.09 43.4106 120.087C42.9501 120.086 42.4896 120.089 42.0292 120.092C41.7561 120.09 41.483 120.089 41.2016 120.087C40.9659 120.087 40.7303 120.087 40.4875 120.088C39.4325 119.944 38.8358 119.484 38.1443 118.696C37.5003 117.799 37.4724 117.333 37.48 116.232C37.4815 115.928 37.4829 115.624 37.4844 115.311C37.4871 114.972 37.4898 114.633 37.4926 114.294C37.4945 113.939 37.4964 113.584 37.4981 113.228C37.5008 112.66 37.5037 112.091 37.507 111.523C37.5151 110.113 37.5189 108.702 37.52 107.292C37.5202 107.087 37.5204 106.883 37.5205 106.672C37.5212 105.828 37.5216 104.984 37.522 104.14C37.5234 101.742 37.529 99.3447 37.5471 96.9472C37.5615 95.0437 37.5668 93.1404 37.5615 91.2369C37.559 90.2294 37.5611 89.2224 37.5742 88.2151C37.5865 87.2666 37.5866 86.3189 37.5776 85.3705C37.5765 85.0231 37.5797 84.6756 37.5877 84.3283C37.6104 83.2791 37.5912 82.33 37.2654 81.3281C36.4936 80.5643 35.653 80.1604 34.6873 79.6875C34.2957 79.3761 33.9049 79.0639 33.5154 78.75C32.8024 78.7346 32.5619 78.998 32.0196 79.4628C31.8184 79.6677 31.6171 79.8727 31.4097 80.0839C31.3018 80.1928 31.1938 80.3017 31.0826 80.4139C30.7395 80.761 30.3989 81.1104 30.0584 81.4599C29.8257 81.6962 29.5928 81.9322 29.3598 82.1681C28.79 82.7456 28.2224 83.3253 27.656 83.9062C28.0698 84.8012 28.5955 85.3474 29.3113 86.0303C30.3388 87.0106 30.7341 87.58 30.7761 89.0039C30.7849 89.196 30.7937 89.3882 30.8027 89.5862C30.4825 91.666 28.664 93.0792 27.244 94.4897C26.9934 94.7408 26.7429 94.992 26.4924 95.2433C25.9683 95.7685 25.443 96.2923 24.9168 96.8153C24.2478 97.4803 23.582 98.1484 22.9171 98.8175C22.4003 99.3368 21.8819 99.8543 21.363 100.371C21.1172 100.617 20.8718 100.863 20.627 101.109C17.7509 104.001 14.9521 106.212 10.7664 106.245C7.68793 106.25 5.43153 105.314 3.11988 103.271C0.556304 100.361 -0.218708 97.6069 -0.000239681 93.75C0.684751 89.7641 3.77604 87.1243 6.49909 84.3905C6.61434 84.2746 6.7296 84.1587 6.84835 84.0393C7.4557 83.4285 8.06369 82.8183 8.67226 82.2087C9.29717 81.5825 9.91985 80.9541 10.5421 80.3253C11.0253 79.8377 11.5101 79.3517 11.9953 78.8661C12.2256 78.6351 12.4554 78.4034 12.6845 78.1712C13.0045 77.8472 13.327 77.5256 13.6495 77.2042C13.9226 76.9298 13.9226 76.9298 14.2012 76.6499C15.0528 75.9283 15.9684 75.3666 17.1091 75.3808C17.2542 75.379 17.3992 75.3772 17.5486 75.3753C18.9694 75.6417 19.8747 76.4991 20.8298 77.5049C21.0048 77.6845 21.0048 77.6845 21.1832 77.8679C21.4675 78.1603 21.7495 78.4549 22.031 78.75C23.3489 77.6544 24.5617 76.4818 25.7664 75.2636C26.0403 74.9881 26.0403 74.9881 26.3198 74.707C26.7657 74.2583 27.2111 73.8091 27.656 73.3594C27.0578 72.2893 26.4242 71.2702 25.7371 70.2539C20.8921 62.8169 19.3743 53.799 21.1027 45.1263C23.1502 35.6302 28.7469 28.2349 36.7966 22.9687C36.9513 22.8914 37.106 22.814 37.2654 22.7344C37.2662 22.482 37.2671 22.2297 37.268 21.9697C37.2766 19.5902 37.2902 17.2108 37.3085 14.8314C37.3177 13.6081 37.3253 12.3849 37.3289 11.1616C37.3325 9.9808 37.3405 8.80008 37.3517 7.61929C37.3552 7.1691 37.357 6.71888 37.3572 6.26867C37.3578 5.63738 37.3641 5.0064 37.3718 4.37517C37.37 4.09675 37.37 4.09675 37.3682 3.81271C37.395 2.38754 37.8687 1.59697 38.8035 0.51267C39.5163 -0.0762181 40.2613 -0.0299155 41.1413 -0.031483ZM44.7654 7.03123C44.7654 11.2078 44.7654 15.3844 44.7654 19.6875C46.3123 19.3781 47.8591 19.0687 49.4529 18.75C55.2516 18.1701 61.4592 18.4097 66.8584 20.8664C67.5705 21.1188 68.1138 21.1524 68.868 21.1527C69.1417 21.1539 69.4154 21.1552 69.6974 21.1565C69.9956 21.1555 70.2938 21.1546 70.6011 21.1536C70.9199 21.1542 71.2388 21.1551 71.5576 21.1561C72.2431 21.158 72.9285 21.1586 73.614 21.158C74.6985 21.1574 75.7829 21.1607 76.8673 21.1648C79.9506 21.1758 83.034 21.1815 86.1173 21.183C87.8211 21.1839 89.5249 21.1881 91.2286 21.1959C92.3061 21.2006 93.3835 21.2012 94.461 21.1986C95.132 21.198 95.8029 21.2013 96.4739 21.2057C96.9321 21.2075 97.3903 21.2047 97.8485 21.2018C100.375 21.2256 100.375 21.2256 101.484 22.2656C102.211 23.3322 102.368 24.2917 102.187 25.5469C101.762 26.775 101.213 27.2804 100.078 27.8906C99.3494 28.0237 98.6349 28.0229 97.8958 28.0185C97.6808 28.021 97.4657 28.0234 97.2441 28.0259C96.5364 28.0328 95.8289 28.0331 95.1212 28.0334C94.6293 28.0369 94.1373 28.0409 93.6454 28.0452C92.3531 28.0554 91.0608 28.0601 89.7685 28.0636C88.4488 28.0682 87.1291 28.078 85.8094 28.0874C83.2218 28.1051 80.6343 28.1169 78.0466 28.125C78.1895 28.2916 78.1895 28.2916 78.3352 28.4616C78.5237 28.6814 78.5237 28.6814 78.7159 28.9057C78.8402 29.0506 78.9644 29.1955 79.0924 29.3448C80.4867 30.9724 81.7749 32.5947 82.8953 34.4256C83.1632 34.9 83.1632 34.9 83.4373 35.1562C83.9474 35.1804 84.4584 35.188 84.9691 35.1895C85.1292 35.1903 85.2893 35.1911 85.4542 35.1919C85.8031 35.1937 86.152 35.1949 86.5008 35.1958C87.0536 35.1974 87.6063 35.2011 88.159 35.2054C89.731 35.2178 91.303 35.229 92.875 35.2326C93.8358 35.235 94.7964 35.2419 95.7571 35.2517C96.1229 35.2546 96.4888 35.2558 96.8546 35.2552C97.368 35.2547 97.881 35.2599 98.3944 35.2664C98.6862 35.2677 98.978 35.2691 99.2786 35.2705C100.231 35.4137 100.737 35.7295 101.484 36.3281C102.211 37.3947 102.368 38.3542 102.187 39.6093C101.853 40.5753 101.439 41.2036 100.567 41.7577C99.4382 42.2085 98.1645 42.0947 96.9669 42.0959C96.6672 42.0998 96.3674 42.1037 96.0586 42.1077C95.2656 42.1171 94.4728 42.1226 93.6798 42.1261C92.869 42.1307 92.0583 42.1406 91.2476 42.1499C89.6598 42.1673 88.072 42.1794 86.4841 42.1875C86.5113 42.3184 86.5385 42.4494 86.5665 42.5843C86.6914 43.1891 86.8148 43.7943 86.9382 44.3994C86.981 44.6053 87.0237 44.8112 87.0678 45.0233C87.2737 46.0379 87.4501 47.0393 87.5544 48.0697C87.5537 48.9308 87.5537 48.9308 87.8904 49.2187C88.2641 49.2426 88.6389 49.2505 89.0135 49.252C89.2529 49.2536 89.4923 49.2553 89.739 49.257C90.1305 49.2584 90.1305 49.2584 90.5299 49.2599C91.0781 49.2654 91.6264 49.271 92.1746 49.2769C93.0423 49.2851 93.9099 49.292 94.7776 49.2951C95.6128 49.2987 96.4477 49.3082 97.2828 49.3185C97.5414 49.3181 97.8 49.3176 98.0664 49.3172C99.5073 49.3401 100.396 49.4107 101.484 50.3906C102.211 51.4572 102.368 52.4167 102.187 53.6718C101.849 54.6497 101.432 55.26 100.552 55.8202C99.5039 56.2524 98.3394 56.1572 97.2233 56.1584C96.8127 56.1642 96.8127 56.1642 96.3938 56.1702C95.5222 56.1815 94.6507 56.1865 93.7791 56.1914C93.187 56.198 92.595 56.205 92.0029 56.2124C90.554 56.2297 89.105 56.2419 87.656 56.25C87.4262 57.202 87.1968 58.1542 86.9675 59.1064C86.9024 59.3761 86.8373 59.6457 86.7702 59.9235C86.7075 60.1841 86.6449 60.4447 86.5803 60.7132C86.4937 61.0722 86.4937 61.0722 86.4055 61.4384C86.2633 62.0509 86.1349 62.664 86.0154 63.2812C86.275 63.2825 86.275 63.2825 86.5398 63.2838C88.1743 63.2927 89.8087 63.306 91.4431 63.3243C92.2833 63.3336 93.1234 63.3411 93.9637 63.3447C94.7752 63.3483 95.5866 63.3564 96.3982 63.3676C96.8569 63.3727 97.3157 63.3732 97.7745 63.3737C100.386 63.4165 100.386 63.4165 101.484 64.4531C102.211 65.5197 102.368 66.4792 102.187 67.7344C101.763 68.9614 101.203 69.4566 100.078 70.0781C99.2604 70.1745 99.2604 70.1745 98.3493 70.1465C98.1821 70.1429 98.015 70.1393 97.8428 70.1356C97.4817 70.1276 97.1207 70.1177 96.7598 70.106C96.1858 70.0888 95.6123 70.08 95.0381 70.0739C93.4066 70.0562 91.7757 70.0341 90.1449 69.9809C85.4839 69.5696 85.4839 69.5696 81.3546 71.1244C80.7086 71.8881 80.273 72.6959 79.8921 73.6171C79.5902 74.2736 79.1407 74.7576 78.6472 75.2783C78.5122 75.4266 78.3771 75.575 78.238 75.7278C77.7136 76.2747 77.1767 76.8085 76.6404 77.3437C76.9309 77.3446 77.2214 77.3454 77.5207 77.3463C80.2589 77.355 82.997 77.3685 85.7351 77.3868C87.1428 77.3961 88.5505 77.4036 89.9582 77.4072C91.3168 77.4108 92.6754 77.4189 94.0339 77.4301C94.5522 77.4335 95.0704 77.4354 95.5887 77.4356C96.3148 77.4361 97.0407 77.4425 97.7668 77.4502C97.9809 77.449 98.195 77.4478 98.4155 77.4466C99.7067 77.4677 100.466 77.645 101.484 78.5156C102.211 79.5822 102.368 80.5417 102.187 81.7969C101.762 83.0256 101.197 83.5083 100.078 84.1406C99.3463 84.257 99.3463 84.257 98.5507 84.2559C98.096 84.2588 98.096 84.2588 97.6321 84.2617C97.2989 84.2591 96.9658 84.2564 96.6326 84.2537C96.2794 84.2542 95.9262 84.2551 95.573 84.2565C94.8133 84.2585 94.0537 84.2576 93.2941 84.2545C92.0887 84.2497 90.8833 84.2521 89.6779 84.2555C86.8975 84.2623 84.1172 84.2598 81.3369 84.2572C78.7958 84.2549 76.2548 84.2547 73.7137 84.2618C72.7139 84.2644 71.7142 84.2651 70.7145 84.2611C66.7211 84.2455 62.9462 84.2621 59.0623 85.3125C58.2797 85.4342 57.5093 85.5111 56.7185 85.5469C56.5258 85.5558 56.3332 85.5647 56.1346 85.5739C52.2197 85.7065 48.585 85.2238 44.7654 84.375C44.7654 93.8109 44.7654 103.247 44.7654 112.969C67.1951 112.969 89.6248 112.969 112.734 112.969C112.734 78.0094 112.734 43.05 112.734 7.03123C90.3045 7.03123 67.8748 7.03123 44.7654 7.03123ZM34.5939 34.1171C29.8533 39.6565 27.2288 46.4635 27.7146 53.8165C28.224 59.7353 30.4171 64.8502 34.2185 69.375C34.3572 69.5481 34.4959 69.7212 34.6387 69.8996C38.8738 74.9834 45.5384 77.9123 52.031 78.5156C59.379 78.9015 66.2421 76.711 71.7771 71.8213C72.1494 71.4759 72.5206 71.1293 72.8904 70.7812C73.0318 70.6549 73.1732 70.5287 73.3189 70.3985C74.2805 69.5043 75.0405 68.4885 75.8054 67.4267C75.9109 67.2806 76.0163 67.1345 76.1249 66.9839C76.6887 66.2575 76.6887 66.2575 76.8748 65.3906C76.6789 65.3898 76.6789 65.3898 76.4791 65.3889C73.3003 65.375 70.1215 65.3573 66.9428 65.3354C65.4056 65.3249 63.8683 65.3157 62.3311 65.3094C60.8479 65.3033 59.3647 65.2939 57.8815 65.282C57.3154 65.2781 56.7492 65.2754 56.183 65.274C55.3906 65.2717 54.5984 65.2652 53.806 65.2576C53.5714 65.2579 53.3367 65.2582 53.0949 65.2586C51.9299 65.2428 51.0933 65.2274 50.156 64.4531C49.4307 63.5464 49.1813 62.5581 49.2185 61.4062C49.566 60.3087 49.9755 59.5692 50.8591 58.8281C51.4374 58.539 51.8228 58.5613 52.4698 58.5566C52.711 58.5543 52.9523 58.5521 53.2008 58.5497C53.5993 58.5477 53.5993 58.5477 54.0059 58.5456C54.4244 58.5421 54.4244 58.5421 54.8513 58.5386C55.6173 58.5324 56.3833 58.5273 57.1493 58.5226C57.9495 58.5175 58.7496 58.5111 59.5498 58.5048C61.0654 58.4931 62.5811 58.4826 64.0968 58.4725C65.8222 58.4609 67.5475 58.448 69.2728 58.435C72.8224 58.4083 76.372 58.3833 79.9216 58.3593C80.4934 55.9599 80.7192 53.793 80.6248 51.3281C80.3999 51.3273 80.3999 51.3273 80.1705 51.3264C76.5223 51.3125 72.8741 51.2948 69.226 51.2729C67.4617 51.2623 65.6975 51.2531 63.9333 51.2469C62.3955 51.2415 60.8577 51.2337 59.32 51.2229C58.5058 51.2173 57.6917 51.2129 56.8775 51.2115C55.9684 51.2098 55.0594 51.2027 54.1503 51.1951C53.8806 51.1954 53.6108 51.1957 53.3329 51.1961C52.9607 51.1917 52.9607 51.1917 52.581 51.1872C52.3661 51.1861 52.1511 51.185 51.9296 51.1839C50.9699 51.0401 50.3468 50.629 49.7459 49.8779C49.1948 48.6379 49.0937 47.7377 49.4968 46.4648C49.9804 45.5977 50.4321 44.9791 51.3279 44.5312C51.702 44.5068 52.0771 44.4969 52.452 44.4941C52.8079 44.4907 52.8079 44.4907 53.1711 44.4872C53.4324 44.4858 53.6937 44.4845 53.9629 44.4831C54.2373 44.4808 54.5117 44.4785 54.7944 44.4761C55.5478 44.4699 56.3012 44.4648 57.0547 44.4601C57.8417 44.455 58.6287 44.4486 59.4157 44.4423C60.9065 44.4306 62.3972 44.4201 63.888 44.41C65.585 44.3984 67.282 44.3855 68.979 44.3725C72.4703 44.3458 75.9616 44.3208 79.4529 44.2968C79.346 43.9271 79.2381 43.5577 79.1297 43.1885C79.0697 42.9827 79.0097 42.777 78.9479 42.565C78.655 41.6604 78.2491 40.8326 77.8123 39.9902C77.6917 39.7496 77.6917 39.7496 77.5687 39.5041C77.161 38.7027 76.7725 37.9415 76.1716 37.2656C75.6926 37.1265 75.6926 37.1265 75.1518 37.1487C74.9435 37.1464 74.7352 37.1442 74.5206 37.1419C74.2926 37.1442 74.0647 37.1465 73.8298 37.1488C73.469 37.1469 73.469 37.1469 73.1009 37.1449C72.578 37.1427 72.0551 37.1427 71.5322 37.1446C70.7047 37.1475 69.8775 37.1449 69.05 37.1408C67.5917 37.1345 66.1334 37.1332 64.675 37.1336C62.3423 37.1341 60.0096 37.1308 57.6768 37.1205C56.8613 37.1182 56.0459 37.1203 55.2304 37.1226C54.7304 37.1211 54.2304 37.1195 53.7303 37.1177C53.5034 37.1195 53.2764 37.1213 53.0425 37.1232C51.8902 37.1145 51.0855 37.0899 50.156 36.3281C49.4307 35.4214 49.1813 34.4331 49.2185 33.2812C49.566 32.1837 49.9755 31.4442 50.8591 30.7031C51.546 30.3596 52.2412 30.4268 52.9947 30.4206C53.1662 30.4183 53.3378 30.416 53.5145 30.4136C54.0826 30.4062 54.6507 30.4004 55.2189 30.3946C55.6123 30.3897 56.0058 30.3848 56.3992 30.3798C57.4357 30.3669 58.4721 30.3553 59.5086 30.344C60.5659 30.3322 61.6232 30.3192 62.6804 30.3062C64.7556 30.281 66.8308 30.2572 68.906 30.2343C67.9875 29.2936 67.1155 28.8081 65.9324 28.2568C65.7353 28.1646 65.5383 28.0725 65.3353 27.9775C55.0037 23.2767 42.2696 25.5194 34.5939 34.1171ZM16.0151 85.1702C15.8391 85.344 15.6631 85.5178 15.4818 85.6968C15.2916 85.8872 15.1014 86.0776 14.9055 86.2738C14.7101 86.4681 14.5148 86.6625 14.3135 86.8627C13.8993 87.2755 13.4858 87.6889 13.0729 88.1029C12.4418 88.7347 11.8077 89.3633 11.1733 89.9917C10.7717 90.3929 10.3702 90.7942 9.96894 91.1957C9.77922 91.3832 9.58951 91.5708 9.39405 91.764C8.26107 92.9063 7.35548 93.8466 7.17749 95.5078C7.3085 96.7305 7.65493 97.4514 8.5691 98.2763C9.30466 98.7856 9.72081 98.9509 10.6052 98.9795C10.7805 98.9882 10.9557 98.997 11.1362 99.006C12.799 98.721 14.0321 97.1221 15.1591 95.9802C15.4448 95.6935 15.4448 95.6935 15.7363 95.4009C16.3415 94.7931 16.9451 94.1837 17.5486 93.5742C17.9599 93.1606 18.3712 92.7471 18.7827 92.3337C19.7886 91.3226 20.7931 90.3103 21.7966 89.2969C21.4298 88.5246 21.033 88.0042 20.427 87.3962C20.2509 87.2195 20.0747 87.0427 19.8933 86.8606C19.7093 86.6785 19.5253 86.4963 19.3357 86.3086C19.1517 86.1228 18.9677 85.937 18.7781 85.7455C18.602 85.57 18.4259 85.3945 18.2444 85.2136C18.0829 85.0526 17.9214 84.8917 17.755 84.7259C16.9626 84.0502 16.6534 84.5364 16.0151 85.1702Z" fill="white"/>
<path d="M59.1164 91.3717C59.2902 91.3709 59.464 91.37 59.6431 91.3691C60.2271 91.3665 60.8111 91.3656 61.3952 91.3647C61.8132 91.3633 62.2313 91.3617 62.6494 91.3601C63.7864 91.356 64.9234 91.3535 66.0605 91.3516C66.7706 91.3504 67.4808 91.349 68.191 91.3475C70.4125 91.343 72.634 91.3397 74.8556 91.3377C77.4209 91.3354 79.9863 91.3293 82.5516 91.3198C84.5339 91.3127 86.5162 91.3093 88.4985 91.3085C89.6828 91.3079 90.867 91.3058 92.0512 91.2999C93.1653 91.2945 94.2792 91.2935 95.3933 91.2959C95.802 91.296 96.2108 91.2945 96.6195 91.2913C97.1779 91.2872 97.736 91.2888 98.2944 91.2919C98.5365 91.2881 98.5365 91.2881 98.7835 91.2841C99.9399 91.2995 100.588 91.6308 101.484 92.3437C102.315 93.2894 102.493 94.1172 102.472 95.3769C102.361 96.4476 101.9 97.1018 101.118 97.8076C100.183 98.4549 99.5187 98.4718 98.4103 98.4704C98.2365 98.4711 98.0628 98.4718 97.8838 98.4725C97.2984 98.4745 96.7132 98.4749 96.1279 98.4752C95.7094 98.4763 95.291 98.4775 94.8726 98.4788C93.7336 98.4818 92.5947 98.4834 91.4557 98.4844C90.7445 98.4851 90.0334 98.486 89.3222 98.4871C87.0983 98.4903 84.8744 98.4926 82.6505 98.4935C80.0812 98.4945 77.5119 98.4986 74.9425 98.5054C72.958 98.5105 70.9736 98.5128 68.9891 98.5132C67.8031 98.5134 66.6172 98.5148 65.4313 98.519C64.3157 98.5228 63.2002 98.5234 62.0846 98.5213C61.675 98.5211 61.2654 98.5221 60.8559 98.5244C60.2969 98.5274 59.7381 98.5261 59.1791 98.5236C59.0169 98.5255 58.8546 98.5274 58.6875 98.5293C57.6774 98.519 57.0574 98.3428 56.2501 97.7343C55.2204 96.5617 54.9971 95.8811 55.0104 94.346C55.1384 93.2201 55.8629 92.3477 56.7188 91.6406C57.5353 91.3684 58.2671 91.3715 59.1164 91.3717Z" fill="white"/>
</g>
<defs>
<clipPath id="clip0_139_3480">
<rect width="120" height="120" fill="white"/>
</clipPath>
</defs>
</svg>
