<svg width="121" height="120" viewBox="0 0 121 120" fill="none" xmlns="http://www.w3.org/2000/svg">
<path d="M19.9935 7.46551C20.2587 7.46422 20.2587 7.46422 20.5294 7.4629C21.1223 7.46032 21.7153 7.45941 22.3083 7.45852C22.7333 7.45705 23.1584 7.45549 23.5835 7.45385C24.9801 7.44892 26.3768 7.44649 27.7735 7.44416C28.2549 7.44321 28.7363 7.44224 29.2177 7.44126C31.4802 7.4368 33.7428 7.43346 36.0054 7.43151C38.6136 7.42922 41.2217 7.42306 43.8299 7.41358C45.8479 7.4065 47.8658 7.40304 49.8838 7.40226C51.088 7.40171 52.2922 7.39963 53.4964 7.39372C54.6306 7.38824 55.7648 7.38728 56.899 7.38968C57.3136 7.38979 57.7282 7.38833 58.1427 7.38509C63.5666 7.34519 66.7474 9.39037 70.5543 13.1397C71.2059 13.789 71.8223 14.456 72.4209 15.1538C73.312 16.1746 74.2563 17.1313 75.2198 18.0835C75.3957 18.2585 75.5715 18.4335 75.7527 18.6137C76.3094 19.1675 76.8668 19.7206 77.4244 20.2734C78.1599 21.0027 78.8947 21.7328 79.629 22.4634C79.7948 22.6273 79.9606 22.7911 80.1315 22.96C81.0524 23.8764 81.9222 24.8191 82.7705 25.8028C83.3941 26.5069 84.0644 27.1587 84.7395 27.8128C85.0344 28.1025 85.3292 28.3922 85.6239 28.6821C86.0783 29.1279 86.5334 29.573 86.9905 30.0161C90.0416 32.9787 93.1268 36.2035 93.2729 40.7143C93.2736 41.0565 93.273 41.3988 93.2713 41.741C93.2713 41.9286 93.2714 42.1163 93.2714 42.3096C93.2712 42.9271 93.2694 43.5447 93.2676 44.1623C93.2672 44.5915 93.2668 45.0207 93.2666 45.4499C93.2657 46.5777 93.2634 47.7055 93.2608 48.8333C93.2584 49.9849 93.2573 51.1365 93.2561 52.2881C93.2536 54.5462 93.2496 56.8044 93.2447 59.0625C93.4651 59.1346 93.6854 59.2066 93.9125 59.2809C94.5674 59.5029 95.1536 59.7561 95.7697 60.0668C100.061 62.1951 104.456 63.8777 109.022 65.3217C110.382 65.759 111.573 66.1508 112.405 67.3828C112.5 67.5206 112.596 67.6583 112.694 67.8003C113.097 68.4828 113.197 69.0693 113.204 69.8443C113.207 70.0324 113.209 70.2205 113.211 70.4143C113.213 70.7196 113.213 70.7196 113.214 71.0312C113.216 71.2439 113.217 71.4566 113.218 71.6757C113.22 72.1283 113.222 72.5808 113.223 73.0334C113.225 73.7108 113.232 74.3881 113.24 75.0655C113.261 78.6591 112.916 82.1014 111.834 85.5469C111.774 85.7395 111.715 85.9322 111.654 86.1306C108.314 96.5849 101.139 103.264 92.2138 109.129C91.7141 109.458 91.216 109.789 90.7178 110.121C90.3957 110.333 90.0734 110.545 89.751 110.757C89.6045 110.855 89.458 110.953 89.3071 111.053C88.0105 111.899 86.9133 112.335 85.3638 112.28C84.5065 112.245 84.5065 112.245 83.6675 112.381C83.1105 112.513 82.6175 112.53 82.0452 112.531C81.8189 112.533 81.5926 112.534 81.3595 112.535C80.9875 112.535 80.9875 112.535 80.6081 112.534C80.3441 112.535 80.0802 112.536 79.8083 112.537C78.9206 112.54 78.0329 112.541 77.1452 112.541C76.51 112.543 75.8748 112.545 75.2396 112.546C73.3309 112.551 71.4222 112.553 69.5135 112.555C68.614 112.556 67.7145 112.558 66.815 112.559C63.8237 112.563 60.8323 112.566 57.841 112.568C57.0649 112.568 56.2888 112.569 55.5127 112.569C55.2234 112.569 55.2234 112.569 54.9282 112.57C51.8058 112.571 48.6833 112.577 45.5609 112.585C42.353 112.593 39.1452 112.597 35.9373 112.598C34.1371 112.598 32.3369 112.6 30.5367 112.606C29.003 112.611 27.4694 112.613 25.9357 112.611C25.154 112.61 24.3724 112.611 23.5907 112.615C22.7408 112.619 21.8912 112.617 21.0413 112.614C20.6756 112.618 20.6756 112.618 20.3026 112.622C16.8866 112.592 13.9885 111.163 11.5321 108.855C9.96689 107.231 9.04126 105.514 8.40095 103.359C8.3594 103.222 8.31785 103.086 8.27504 102.944C8.13776 102.283 8.13654 101.664 8.13577 100.988C8.13487 100.692 8.13397 100.396 8.13304 100.091C8.13322 99.7621 8.13343 99.433 8.13366 99.1039C8.13305 98.7548 8.13235 98.4057 8.13155 98.0566C8.12965 97.0959 8.12924 96.1352 8.12906 95.1745C8.12863 94.1388 8.12686 93.1032 8.12528 92.0676C8.1221 89.8022 8.12069 87.5369 8.11965 85.2716C8.11901 83.8571 8.11801 82.4426 8.11696 81.0281C8.1141 77.1119 8.11169 73.1958 8.11089 69.2796C8.11084 69.0289 8.11079 68.7782 8.11074 68.5199C8.11069 68.2686 8.11063 68.0173 8.11058 67.7584C8.11048 67.2492 8.11037 66.74 8.11027 66.2307C8.11022 65.9781 8.11016 65.7256 8.11011 65.4653C8.10919 61.3733 8.1051 57.2814 8.09964 53.1894C8.09408 48.9884 8.09116 44.7873 8.09088 40.5863C8.09067 38.2275 8.08932 35.8688 8.08507 33.51C8.08146 31.5012 8.08026 29.4924 8.08219 27.4836C8.08311 26.459 8.08289 25.4344 8.0796 24.4097C8.07661 23.4708 8.0769 22.532 8.07974 21.5931C8.0802 21.2543 8.07948 20.9155 8.07743 20.5767C8.06666 18.6711 8.18383 17.0216 8.8697 15.2344C8.98571 14.9162 8.98571 14.9162 9.10407 14.5917C10.5011 11.6121 13.0247 9.27938 16.0914 8.12989C16.4946 7.99198 16.8998 7.85949 17.3072 7.73438C17.5031 7.67191 17.5031 7.67191 17.703 7.60819C18.4652 7.45597 19.2195 7.46531 19.9935 7.46551ZM14.7291 15.4688C13.8423 16.8974 13.2942 18.2027 13.2914 19.8914C13.2903 20.1803 13.2893 20.4693 13.2882 20.767C13.2882 21.0894 13.2883 21.4118 13.2883 21.7342C13.2876 22.0754 13.2867 22.4166 13.2857 22.7577C13.2834 23.6976 13.2825 24.6374 13.2819 25.5773C13.281 26.5901 13.2787 27.6029 13.2767 28.6157C13.272 31.0629 13.2697 33.5102 13.2676 35.9574C13.2666 37.1097 13.2653 38.262 13.2641 39.4143C13.2601 43.2446 13.2567 47.075 13.255 50.9053C13.2546 51.8995 13.2541 52.8938 13.2536 53.888C13.2535 54.1351 13.2534 54.3822 13.2533 54.6368C13.2514 58.6394 13.2454 62.642 13.2378 66.6445C13.2301 70.7534 13.2258 74.8623 13.2251 78.9711C13.2246 81.2783 13.2225 83.5854 13.2165 85.8926C13.2114 87.8576 13.2096 89.8227 13.2118 91.7877C13.2129 92.7901 13.2125 93.7924 13.2079 94.7947C13.2038 95.7133 13.204 96.6317 13.2077 97.5502C13.2082 97.8816 13.2072 98.213 13.2044 98.5444C13.1823 101.344 13.6475 103.406 15.5979 105.473C16.8533 106.558 18.4896 107.373 20.1655 107.373C20.3669 107.373 20.5683 107.374 20.7759 107.374C20.9972 107.373 21.2186 107.373 21.4467 107.372C21.7993 107.372 21.7993 107.372 22.1591 107.373C22.9505 107.373 23.7418 107.372 24.5332 107.37C25.099 107.37 25.6648 107.37 26.2307 107.37C27.4507 107.371 28.6708 107.37 29.8908 107.369C31.6548 107.367 33.4189 107.366 35.1829 107.366C38.0447 107.365 40.9066 107.364 43.7685 107.361C46.5488 107.359 49.3291 107.358 52.1094 107.357C52.2808 107.357 52.4521 107.357 52.6286 107.356C53.4881 107.356 54.3477 107.356 55.2072 107.356C62.3395 107.353 69.4718 107.349 76.6041 107.344C75.8598 106.742 75.1067 106.175 74.3172 105.633C72.5472 104.412 70.9695 103.056 69.4267 101.561C69.1541 101.298 68.8756 101.042 68.596 100.787C65.9304 98.2915 63.9619 95.1 62.3072 91.875C62.2326 91.7316 62.1581 91.5883 62.0813 91.4406C59.1666 85.7695 58.2458 79.7945 58.2056 73.4766C58.2032 73.2755 58.2007 73.0745 58.1982 72.8673C58.1926 72.2866 58.1942 71.7063 58.1983 71.1255C58.1955 70.8669 58.1955 70.8669 58.1927 70.603C58.2218 68.9528 58.7531 67.7848 59.9056 66.6051C60.7642 66.0282 61.5487 65.7143 62.5297 65.4117C62.8984 65.2913 63.2671 65.1708 63.6359 65.0503C63.8278 64.9889 64.0198 64.9274 64.2176 64.8641C70.722 62.772 76.7178 60.0136 82.5388 56.4325C83.6582 55.7471 84.4221 55.5143 85.7301 55.5176C85.9739 55.517 86.2177 55.5164 86.4689 55.5158C87.0561 55.5426 87.5262 55.6292 88.0885 55.7813C88.0939 53.8722 88.098 51.9632 88.1006 50.0542C88.1018 49.1678 88.1035 48.2813 88.1061 47.3949C88.1087 46.5393 88.1101 45.6838 88.1107 44.8282C88.1111 44.5019 88.112 44.1756 88.1132 43.8493C88.1149 43.392 88.115 42.9348 88.1151 42.4775C88.1156 42.2173 88.1161 41.957 88.1166 41.6889C88.0924 41.1089 88.0232 40.6304 87.8541 40.0781C87.55 40.0761 87.5499 40.0761 87.2397 40.074C85.3193 40.0603 83.399 40.0434 81.4787 40.0229C80.4916 40.0124 79.5046 40.0032 78.5176 39.9969C77.5632 39.9908 76.6089 39.9813 75.6545 39.9696C75.2923 39.9657 74.9301 39.963 74.5678 39.9615C70.6708 39.9441 67.1094 39.1666 64.1895 36.3895C62.151 34.1197 60.8891 31.3471 60.8528 28.3015C60.8505 28.1322 60.8482 27.9629 60.8458 27.7884C60.8384 27.2305 60.8326 26.6725 60.8268 26.1145C60.822 25.727 60.817 25.3395 60.812 24.952C60.7991 23.9332 60.7875 22.9145 60.7762 21.8957C60.7644 20.8557 60.7514 19.8157 60.7384 18.7756C60.7133 16.7359 60.6895 14.6961 60.6666 12.6563C55.2982 12.6343 49.9298 12.6178 44.5613 12.6077C42.0686 12.6029 39.5758 12.5963 37.083 12.5855C34.9098 12.5762 32.7366 12.5701 30.5634 12.568C29.4131 12.5668 28.263 12.564 27.1127 12.5571C26.0289 12.5507 24.9451 12.5488 23.8613 12.5502C23.4647 12.55 23.0681 12.5481 22.6715 12.5445C19.4562 12.5167 16.9345 12.9153 14.7291 15.4688ZM65.8228 16.1719C65.8049 17.9357 65.7927 19.6995 65.7842 21.4633C65.7807 22.0628 65.7759 22.6622 65.7698 23.2617C65.7612 24.1257 65.7573 24.9896 65.7542 25.8536C65.7505 26.1195 65.7469 26.3855 65.7432 26.6595C65.7427 28.9903 66.1777 30.747 67.6768 32.5598C69.5203 34.3931 71.6362 34.9754 74.1593 34.975C74.5388 34.9714 74.5388 34.9714 74.9259 34.9677C75.1889 34.967 75.4519 34.9663 75.7229 34.9656C76.5586 34.963 77.3943 34.9571 78.2301 34.9512C78.7984 34.9488 79.3668 34.9467 79.9352 34.9448C81.3249 34.9396 82.7145 34.9318 84.1041 34.9219C83.2537 33.9076 82.3819 32.9384 81.439 32.0078C81.3252 31.8949 81.2114 31.782 81.0942 31.6657C80.616 31.1912 80.1364 30.7182 79.6568 30.2451C79.3031 29.8956 78.9501 29.5455 78.5972 29.1953C78.3889 28.9897 78.1806 28.7841 77.966 28.5723C77.4641 28.0648 76.9949 27.5359 76.5291 26.9953C75.6323 25.9612 74.6748 24.9982 73.7019 24.0363C73.5197 23.855 73.3375 23.6737 73.1498 23.4869C72.5733 22.9132 71.996 22.3403 71.4185 21.7676C70.6555 21.0108 69.8933 20.2533 69.1315 19.4952C68.8715 19.2381 68.8715 19.2381 68.6062 18.9758C67.885 18.2581 67.1833 17.5432 66.5389 16.7552C66.3799 16.5627 66.221 16.3702 66.0572 16.1719C65.9799 16.1719 65.9025 16.1719 65.8228 16.1719ZM85.5103 60.4688C85.313 60.5999 85.1158 60.731 84.9125 60.8661C78.764 64.8703 72.103 67.6992 65.134 69.9234C64.5024 70.1257 63.8734 70.3356 63.2447 70.5469C63.0106 81.0956 65.3587 89.8633 72.7001 97.6708C74.5844 99.6163 76.7177 101.134 78.9478 102.656C79.2121 102.839 79.4762 103.022 79.7402 103.205C80.4537 103.699 81.1698 104.19 81.8876 104.678C82.1729 104.872 82.4576 105.068 82.7417 105.264C83.142 105.54 83.5448 105.811 83.9484 106.082C84.1818 106.241 84.4151 106.399 84.6556 106.563C85.2298 106.926 85.2298 106.926 85.7307 106.809C86.2329 106.634 86.615 106.422 87.0572 106.127C87.2992 105.968 87.2992 105.968 87.546 105.805C87.7183 105.689 87.8907 105.573 88.0683 105.453C88.2487 105.333 88.4291 105.213 88.615 105.089C88.9972 104.834 89.379 104.579 89.7603 104.323C90.3362 103.936 90.9137 103.552 91.4915 103.168C93.3938 101.9 95.246 100.617 96.9947 99.1406C97.2261 98.9524 97.2261 98.9524 97.4621 98.7604C98.5251 97.8955 99.4023 96.9119 100.276 95.8594C100.501 95.5952 100.501 95.5952 100.73 95.3256C105.79 89.2284 108.072 81.8864 108.025 74.0625C108.024 73.721 108.023 73.3795 108.022 73.038C108.019 72.2076 108.015 71.3773 108.01 70.5469C107.797 70.4776 107.585 70.4084 107.365 70.3371C100.247 68.0103 93.6296 65.1896 87.151 61.4063C86.6048 61.0925 86.0576 60.7805 85.5103 60.4688Z" fill="white"/>
<path d="M26.438 57.3874C26.6077 57.3865 26.7775 57.3857 26.9524 57.3848C27.5242 57.3822 28.096 57.3813 28.6678 57.3804C29.0766 57.3789 29.4854 57.3774 29.8942 57.3757C31.007 57.3717 32.1199 57.3692 33.2327 57.3673C33.9277 57.366 34.6227 57.3646 35.3177 57.3632C37.4914 57.3587 39.6651 57.3553 41.8388 57.3534C44.3494 57.3511 46.8599 57.3449 49.3705 57.3355C51.31 57.3284 53.2495 57.3249 55.189 57.3242C56.3479 57.3236 57.5067 57.3215 58.6655 57.3156C59.7559 57.3102 60.8462 57.3092 61.9366 57.3116C62.3366 57.3117 62.7367 57.3102 63.1367 57.307C63.6833 57.3028 64.2296 57.3045 64.7762 57.3076C65.082 57.307 65.3877 57.3065 65.7027 57.3059C66.6691 57.442 67.1783 57.7511 67.9323 58.3594C68.3676 59.23 68.3037 60.224 68.1666 61.1719C67.6533 61.8338 67.2689 62.2067 66.526 62.5781C65.9829 62.6024 65.439 62.6109 64.8953 62.6126C64.7255 62.6135 64.5558 62.6144 64.3808 62.6152C63.809 62.6178 63.2373 62.6187 62.6655 62.6196C62.2567 62.6211 61.8478 62.6227 61.439 62.6243C60.3262 62.6284 59.2134 62.6308 58.1006 62.6328C57.4056 62.634 56.7106 62.6354 56.0156 62.6369C53.8419 62.6413 51.6682 62.6447 49.4945 62.6466C46.9839 62.6489 44.4733 62.6551 41.9627 62.6646C40.0232 62.6716 38.0837 62.6751 36.1442 62.6759C34.9854 62.6764 33.8266 62.6785 32.6678 62.6844C31.5774 62.6899 30.4871 62.6909 29.3967 62.6885C28.9966 62.6884 28.5966 62.6898 28.1966 62.6931C27.65 62.6972 27.1036 62.6955 26.557 62.6925C26.2513 62.693 25.9455 62.6936 25.6305 62.6942C24.6642 62.558 24.1549 62.2489 23.401 61.6406C22.9657 60.77 23.0295 59.776 23.1666 58.8281C24.1795 57.5221 24.8433 57.3926 26.438 57.3874Z" fill="white"/>
<path d="M26.2511 42.3858C26.5593 42.3838 26.8676 42.3818 27.1851 42.3797C27.5288 42.3787 27.8724 42.3776 28.216 42.3767C28.5763 42.3748 28.9366 42.3729 29.2969 42.3709C30.4823 42.3647 31.6676 42.3611 32.8529 42.3578C33.2608 42.3565 33.6686 42.3553 34.0765 42.354C35.773 42.3489 37.4695 42.3445 39.166 42.3419C41.5982 42.3381 44.0303 42.3303 46.4625 42.317C48.1721 42.3079 49.8817 42.3033 51.5913 42.3021C52.6126 42.3012 53.6339 42.2984 54.6551 42.2908C55.6163 42.2838 56.5773 42.2823 57.5384 42.285C57.8908 42.2851 58.2432 42.2831 58.5956 42.279C61.5906 42.246 61.5906 42.246 62.5132 42.9871C63.2009 43.8262 63.337 44.3465 63.329 45.444C63.1801 46.3162 62.6964 46.7351 62.0729 47.3437C61.4214 47.6695 60.8895 47.6099 60.1603 47.6126C59.852 47.6143 59.5438 47.616 59.2263 47.6177C58.8826 47.6184 58.539 47.619 58.1954 47.6196C57.8351 47.6211 57.4748 47.6226 57.1145 47.6243C56.1338 47.6284 55.1532 47.6308 54.1726 47.6328C53.56 47.634 52.9475 47.6354 52.3349 47.6369C50.4187 47.6413 48.5026 47.6447 46.5864 47.6466C44.3739 47.6489 42.1614 47.6551 39.9489 47.6645C38.2393 47.6716 36.5297 47.6751 34.8201 47.6759C33.7988 47.6764 32.7775 47.6785 31.7562 47.6844C30.7951 47.6899 29.8341 47.6909 28.873 47.6884C28.5206 47.6883 28.1682 47.6898 27.8158 47.693C27.3338 47.6972 26.8521 47.6955 26.3702 47.6924C25.966 47.6933 25.966 47.6933 25.5537 47.6941C24.6365 47.5516 24.1233 47.2124 23.401 46.6406C22.9657 45.77 23.0295 44.776 23.1666 43.8281C24.1216 42.5968 24.7471 42.3931 26.2511 42.3858Z" fill="white"/>
<path d="M25.8685 87.3874C26.2037 87.3849 26.2037 87.3849 26.5456 87.3823C26.7915 87.3817 27.0375 87.381 27.2909 87.3804C27.5493 87.3788 27.8077 87.3773 28.0739 87.3757C28.9321 87.3711 29.7902 87.3683 30.6483 87.366C30.9409 87.3651 31.2335 87.3641 31.535 87.3631C32.9238 87.3587 34.3126 87.3553 35.7014 87.3534C37.3036 87.3511 38.9057 87.3449 40.5079 87.3354C41.8962 87.3275 43.2845 87.3247 44.6729 87.3238C45.2631 87.3226 45.8533 87.3199 46.4434 87.3156C47.2694 87.3099 48.0951 87.3101 48.9211 87.3117C49.1652 87.3087 49.4092 87.3057 49.6606 87.3026C51.056 87.3127 51.8727 87.4216 52.9323 88.3594C53.3676 89.23 53.3037 90.224 53.1666 91.1719C52.6533 91.8338 52.2689 92.2066 51.526 92.5781C51.1729 92.6017 50.8187 92.6108 50.4648 92.6126C50.1296 92.6151 50.1296 92.6151 49.7877 92.6177C49.4188 92.6186 49.4188 92.6186 49.0424 92.6196C48.784 92.6211 48.5256 92.6227 48.2593 92.6243C47.4012 92.6289 46.5431 92.6316 45.6849 92.634C45.3924 92.6349 45.0998 92.6359 44.7983 92.6369C43.4095 92.6412 42.0207 92.6447 40.6318 92.6466C39.0296 92.6489 37.4275 92.6551 35.8254 92.6645C34.437 92.6725 33.0487 92.6752 31.6604 92.6762C31.0702 92.6773 30.48 92.6801 29.8898 92.6844C29.0639 92.6901 28.2381 92.6899 27.4122 92.6883C27.1681 92.6913 26.9241 92.6943 26.6726 92.6974C25.2773 92.6873 24.4606 92.5783 23.401 91.6406C22.9657 90.77 23.0295 89.776 23.1666 88.8281C23.9854 87.7724 24.5637 87.3941 25.8685 87.3874Z" fill="white"/>
<path d="M25.8685 72.3874C26.2037 72.3849 26.2037 72.3849 26.5456 72.3823C26.7915 72.3817 27.0375 72.381 27.2909 72.3804C27.5493 72.3788 27.8077 72.3773 28.0739 72.3757C28.9321 72.3711 29.7902 72.3683 30.6483 72.366C30.9409 72.3651 31.2335 72.3641 31.535 72.3631C32.9238 72.3587 34.3126 72.3553 35.7014 72.3534C37.3036 72.3511 38.9057 72.3449 40.5079 72.3354C41.8962 72.3275 43.2845 72.3247 44.6729 72.3238C45.2631 72.3226 45.8533 72.3199 46.4434 72.3156C47.2694 72.3099 48.0951 72.3101 48.9211 72.3117C49.1652 72.3087 49.4092 72.3057 49.6606 72.3026C51.056 72.3127 51.8727 72.4216 52.9323 73.3594C53.3676 74.23 53.3037 75.224 53.1666 76.1719C52.6533 76.8338 52.2689 77.2066 51.526 77.5781C51.1729 77.6017 50.8187 77.6108 50.4648 77.6126C50.1296 77.6151 50.1296 77.6151 49.7877 77.6177C49.4188 77.6186 49.4188 77.6186 49.0424 77.6196C48.784 77.6211 48.5256 77.6227 48.2593 77.6243C47.4012 77.6289 46.5431 77.6316 45.6849 77.634C45.3924 77.6349 45.0998 77.6359 44.7983 77.6369C43.4095 77.6412 42.0207 77.6447 40.6318 77.6466C39.0296 77.6489 37.4275 77.6551 35.8254 77.6645C34.437 77.6725 33.0487 77.6752 31.6604 77.6762C31.0702 77.6773 30.48 77.6801 29.8898 77.6844C29.0639 77.6901 28.2381 77.6899 27.4122 77.6883C27.1681 77.6913 26.9241 77.6943 26.6726 77.6974C25.2773 77.6873 24.4606 77.5783 23.401 76.6406C22.9657 75.77 23.0295 74.776 23.1666 73.8281C23.9854 72.7724 24.5637 72.3941 25.8685 72.3874Z" fill="white"/>
<path d="M94.1822 75C94.9136 75.4202 95.2485 75.76 95.6763 76.4795C95.881 77.3595 95.8407 77.8747 95.5884 78.75C94.4997 80.2286 93.1012 81.506 91.8046 82.7994C91.5054 83.0989 91.5054 83.0989 91.2002 83.4044C90.7819 83.8229 90.3633 84.241 89.9445 84.6589C89.3013 85.3008 88.6593 85.944 88.0175 86.5874C87.61 86.9947 87.2024 87.402 86.7948 87.8091C86.6024 88.002 86.4101 88.1948 86.2118 88.3935C86.0342 88.5705 85.8565 88.7474 85.6735 88.9297C85.5171 89.0859 85.3607 89.2421 85.1995 89.403C84.572 89.9829 84.0912 90.0654 83.2545 90.1172C83.0629 90.1341 82.8714 90.151 82.674 90.1684C81.5744 89.8958 80.9176 89.1354 80.1197 88.3594C79.941 88.1868 79.7623 88.0143 79.5782 87.8365C79.0168 87.2877 78.4616 86.7332 77.9078 86.1767C77.717 85.9869 77.5262 85.797 77.3296 85.6013C77.1485 85.4199 76.9674 85.2385 76.7808 85.0516C76.5354 84.8058 76.5354 84.8058 76.2851 84.5551C75.6902 83.9132 75.6297 83.5004 75.6226 82.6465C75.6193 82.4658 75.616 82.2851 75.6125 82.099C75.6728 81.5002 75.8202 81.1349 76.1353 80.625C77.059 79.886 77.7829 79.797 78.9478 79.9219C80.0224 80.4474 80.7777 81.2278 81.5992 82.0752C81.728 82.2062 81.8569 82.3371 81.9897 82.4721C82.3049 82.7928 82.6187 83.115 82.9322 83.4375C83.6441 83.1193 84.132 82.763 84.6787 82.2092C84.8319 82.0552 84.9852 81.9011 85.1431 81.7424C85.306 81.5764 85.4689 81.4104 85.6367 81.2393C85.8059 81.0689 85.9751 80.8984 86.1495 80.7228C86.6895 80.1786 87.2279 79.6329 87.7662 79.0869C88.3063 78.5403 88.8467 77.9941 89.3879 77.4485C89.7245 77.109 90.0605 76.7689 90.3958 76.4281C90.6235 76.1981 90.6235 76.1981 90.8557 75.9635C90.9893 75.8281 91.1228 75.6926 91.2604 75.553C92.0916 74.7823 93.1103 74.8665 94.1822 75Z" fill="white"/>
<path d="M26.839 27.3766C27.0494 27.3747 27.2599 27.3728 27.4766 27.3708C28.175 27.365 28.8733 27.3611 29.5717 27.3578C29.9291 27.3559 29.9291 27.3559 30.2938 27.354C31.5552 27.3477 32.8166 27.3432 34.078 27.3398C35.3811 27.3359 36.684 27.3254 37.987 27.3135C38.9888 27.3056 39.9904 27.3029 40.9922 27.3015C41.4725 27.3 41.9528 27.2964 42.4331 27.2908C43.1059 27.2834 43.7782 27.2834 44.451 27.2851C44.6491 27.2812 44.8471 27.2774 45.0511 27.2734C46.032 27.2838 46.6503 27.3597 47.4272 27.987C48.2187 28.8104 48.3374 29.2937 48.329 30.444C48.1801 31.3162 47.6964 31.7351 47.0729 32.3437C46.2958 32.7322 45.4269 32.6169 44.5723 32.6196C44.3619 32.6211 44.1515 32.6227 43.9348 32.6242C43.2364 32.6289 42.5381 32.6316 41.8397 32.6339C41.6014 32.6349 41.3631 32.6359 41.1176 32.6368C39.8562 32.6417 38.5948 32.6451 37.3334 32.6473C36.0303 32.6499 34.7274 32.6579 33.4243 32.6672C32.4226 32.6734 31.4209 32.6753 30.4192 32.6762C29.9389 32.6773 29.4586 32.68 28.9783 32.6844C28.3056 32.6901 27.6331 32.6899 26.9603 32.6882C26.6633 32.6927 26.6633 32.6927 26.3603 32.6973C25.1096 32.6863 24.3919 32.4751 23.401 31.6406C22.9657 30.77 23.0295 29.776 23.1666 28.8281C24.2671 27.409 25.1422 27.3851 26.839 27.3766Z" fill="white"/>
</svg>
