<svg width="120" height="120" viewBox="0 0 120 120" fill="none" xmlns="http://www.w3.org/2000/svg">
<path d="M47.9523 6.02937C48.241 6.02817 48.5298 6.02697 48.8273 6.02574C49.6138 6.02305 50.4002 6.02246 51.1867 6.02306C51.8459 6.02331 52.5052 6.02216 53.1644 6.02104C54.7212 6.01845 56.2779 6.01834 57.8347 6.01976C59.4346 6.02117 61.0344 6.01829 62.6343 6.0133C64.0135 6.00915 65.3928 6.00776 66.772 6.00852C67.5933 6.00895 68.4146 6.00835 69.2358 6.00507C70.1528 6.00155 71.0697 6.00377 71.9867 6.00648C72.2546 6.00469 72.5226 6.0029 72.7986 6.00105C75.9382 6.02146 78.2324 6.85275 80.5662 8.95019C81.7912 10.2293 82.4102 11.8781 82.7342 13.5937C82.9797 13.5901 83.2252 13.5864 83.4782 13.5826C84.4051 13.5697 85.332 13.5617 86.259 13.5551C86.6572 13.5516 87.0553 13.5469 87.4535 13.5407C92.1494 13.47 96.301 14.1533 99.8291 17.5018C102.309 19.9923 103.854 23.3755 103.859 26.9053C103.86 27.1725 103.861 27.4397 103.861 27.7151C103.861 28.0063 103.861 28.2976 103.861 28.5977C103.861 28.9121 103.862 29.2265 103.863 29.5408C103.865 30.4034 103.865 31.2659 103.865 32.1285C103.866 33.0593 103.868 33.9901 103.869 34.921C103.872 36.9558 103.874 38.9906 103.875 41.0255C103.876 42.2967 103.876 43.5679 103.878 44.8391C103.88 48.3604 103.883 51.8817 103.884 55.4031C103.884 55.6283 103.884 55.8536 103.884 56.0857C103.884 56.3115 103.884 56.5374 103.884 56.77C103.884 57.2276 103.884 57.6852 103.884 58.1427C103.884 58.3697 103.884 58.5967 103.884 58.8305C103.885 62.5069 103.889 66.1832 103.895 69.8596C103.9 73.6363 103.903 77.4131 103.904 81.1899C103.904 83.3095 103.905 85.429 103.909 87.5486C103.913 89.3537 103.914 91.1589 103.912 92.964C103.911 93.8843 103.912 94.8045 103.915 95.7248C103.918 96.5689 103.918 97.4129 103.915 98.257C103.914 98.7036 103.917 99.1502 103.92 99.5968C103.896 103.684 102.523 107.338 99.6138 110.228C96.5357 113.083 92.9045 113.943 88.8462 113.939C88.4629 113.94 88.4629 113.94 88.0717 113.941C87.2165 113.943 86.3612 113.944 85.5059 113.944C84.8921 113.945 84.2784 113.946 83.6646 113.948C81.9978 113.951 80.3309 113.952 78.6641 113.953C77.6221 113.954 76.58 113.955 75.538 113.956C72.6494 113.959 69.7607 113.961 66.8721 113.962C66.5951 113.962 66.5951 113.962 66.3124 113.962C66.1273 113.962 65.9422 113.962 65.7514 113.962C65.3763 113.962 65.0012 113.962 64.6261 113.963C64.4401 113.963 64.254 113.963 64.0623 113.963C61.0501 113.964 58.0379 113.968 55.0258 113.973C51.9286 113.979 48.8314 113.982 45.7342 113.982C43.9971 113.982 42.26 113.983 40.523 113.988C39.0433 113.991 37.5636 113.993 36.0839 113.991C35.3302 113.99 34.5765 113.99 33.8228 113.993C28.6665 114.012 24.091 113.719 20.1705 109.998C17.6905 107.508 16.1454 104.125 16.1409 100.595C16.14 100.327 16.1391 100.06 16.1382 99.7849C16.1384 99.4936 16.1386 99.2024 16.1388 98.9023C16.1382 98.5879 16.1375 98.2735 16.1367 97.9592C16.1348 97.0966 16.1343 96.2341 16.1342 95.3715C16.1337 94.4407 16.132 93.5099 16.1304 92.579C16.1272 90.5442 16.1258 88.5093 16.1248 86.4745C16.1241 85.2033 16.1231 83.9321 16.1221 82.6609C16.1192 79.1396 16.1168 75.6183 16.116 72.0969C16.116 71.8716 16.1159 71.6464 16.1159 71.4143C16.1158 71.1884 16.1157 70.9626 16.1157 70.73C16.1156 70.2724 16.1155 69.8148 16.1154 69.3573C16.1153 69.1303 16.1153 68.9033 16.1152 68.6695C16.1143 64.9931 16.1102 61.3168 16.1047 57.6404C16.0992 53.8636 16.0963 50.0869 16.096 46.3101C16.0958 44.1905 16.0944 42.071 16.0902 39.9514C16.0866 38.1462 16.0854 36.3411 16.0873 34.536C16.0882 33.6157 16.088 32.6955 16.0847 31.7752C16.0817 30.9311 16.082 30.0871 16.0849 29.243C16.0855 28.7964 16.0828 28.3498 16.0798 27.9031C16.1031 23.8161 17.4766 20.1624 20.3859 17.2723C23.2708 14.5963 26.7947 13.5451 30.6508 13.5709C30.8409 13.5712 31.0311 13.5715 31.227 13.5719C31.8287 13.5732 32.4304 13.5761 33.032 13.5791C33.4423 13.5803 33.8527 13.5813 34.263 13.5823C35.2638 13.5849 36.2646 13.5889 37.2654 13.5937C37.3101 13.4359 37.3547 13.2781 37.4007 13.1156C37.4915 12.8025 37.4915 12.8025 37.584 12.4832C37.6432 12.2771 37.7023 12.0709 37.7633 11.8585C38.5297 9.58665 40.2361 7.96346 42.2807 6.80694C44.1317 6.06489 45.9802 6.02511 47.9523 6.02937ZM44.9998 14.5312C44.1723 16.3289 43.6709 18.4064 43.8279 20.3906C44.0924 20.8012 44.0924 20.8012 44.5311 21.0937C45.1161 21.1997 45.1161 21.1997 45.7854 21.183C46.0457 21.185 46.3059 21.187 46.5741 21.189C46.8597 21.1876 47.1454 21.1862 47.4397 21.1847C47.7404 21.186 48.0411 21.1872 48.351 21.1885C49.1761 21.1917 50.0012 21.1904 50.8264 21.1882C51.6894 21.1864 52.5524 21.1881 53.4154 21.1892C54.8647 21.1904 56.3141 21.1888 57.7634 21.1854C59.4397 21.1816 61.116 21.1828 62.7923 21.1867C64.2308 21.1899 65.6693 21.1903 67.1078 21.1885C67.9673 21.1874 68.8267 21.1873 69.6862 21.1896C70.6442 21.192 71.602 21.1886 72.5599 21.1847C72.9884 21.1869 72.9884 21.1869 73.4256 21.189C73.6858 21.1871 73.9461 21.1851 74.2142 21.183C74.4408 21.1828 74.6674 21.1825 74.9008 21.1822C75.4793 21.1372 75.4793 21.1372 75.8954 20.7764C76.5542 19.8566 76.1078 18.3909 75.9373 17.3437C75.4931 15.3729 75.4931 15.3729 74.2967 13.8281C73.751 13.7224 73.751 13.7224 73.1313 13.7388C72.8908 13.7368 72.6502 13.7349 72.4024 13.7328C72.1387 13.7342 71.8749 13.7357 71.6032 13.7371C71.3253 13.7359 71.0475 13.7347 70.7612 13.7334C69.999 13.7308 69.2369 13.7314 68.4746 13.7337C67.6773 13.7354 66.88 13.7338 66.0827 13.7327C64.7437 13.7314 63.4047 13.7331 62.0657 13.7365C60.5172 13.7403 58.9688 13.739 57.4203 13.7352C56.0912 13.732 54.7622 13.7315 53.4332 13.7334C52.6392 13.7345 51.8452 13.7346 51.0512 13.7323C50.1662 13.7305 49.2814 13.7332 48.3964 13.7371C48.1327 13.7357 47.8689 13.7343 47.5972 13.7328C47.2364 13.7358 47.2364 13.7358 46.8683 13.7388C46.659 13.7391 46.4497 13.7394 46.2341 13.7396C45.5907 13.8468 45.3939 14.0215 44.9998 14.5312ZM25.0779 23.6719C24.3119 24.9027 23.8773 26.0448 23.8746 27.5019C23.8736 27.7633 23.8725 28.0246 23.8714 28.2939C23.8715 28.5822 23.8715 28.8706 23.8716 29.1676C23.8707 29.473 23.8698 29.7784 23.869 30.093C23.8666 30.9425 23.8657 31.7919 23.8651 32.6414C23.8642 33.5569 23.862 34.4724 23.8599 35.3879C23.8553 37.5998 23.8529 39.8117 23.8508 42.0236C23.8498 43.0652 23.8485 44.1067 23.8473 45.1482C23.8433 48.6104 23.8399 52.0726 23.8382 55.5348C23.8378 56.4334 23.8373 57.332 23.8369 58.2306C23.8368 58.454 23.8367 58.6773 23.8365 58.9074C23.8346 62.5252 23.8287 66.143 23.821 69.7607C23.8133 73.4747 23.8091 77.1887 23.8083 80.9026C23.8078 82.988 23.8058 85.0734 23.7998 87.1588C23.7947 88.9349 23.7928 90.7109 23.7951 92.487C23.7961 93.393 23.7957 94.2989 23.7912 95.2049C23.7863 96.1879 23.7887 97.1707 23.7917 98.1538C23.7892 98.439 23.7866 98.7242 23.784 99.018C23.801 101.264 24.3169 102.972 25.8488 104.648C27.0658 105.717 28.5365 106.2 30.1374 106.203C30.3534 106.204 30.5694 106.205 30.7919 106.206C31.1465 106.206 31.1465 106.206 31.5083 106.206C31.7601 106.207 32.0119 106.208 32.2714 106.209C33.1181 106.212 33.9648 106.212 34.8115 106.213C35.4174 106.215 36.0233 106.216 36.6293 106.218C38.4497 106.223 40.2701 106.225 42.0905 106.227C42.9483 106.228 43.806 106.229 44.6638 106.231C47.516 106.235 50.3682 106.238 53.2204 106.24C53.9603 106.24 54.7002 106.241 55.4401 106.241C55.716 106.241 55.716 106.241 55.9974 106.241C58.9754 106.243 61.9534 106.249 64.9314 106.257C67.9905 106.265 71.0495 106.269 74.1085 106.27C75.8254 106.27 77.5423 106.272 79.2592 106.278C80.8747 106.284 82.4902 106.285 84.1058 106.282C84.6982 106.282 85.2906 106.284 85.8829 106.287C86.693 106.291 87.5027 106.289 88.3128 106.286C88.546 106.289 88.7793 106.291 89.0197 106.294C91.1343 106.275 93.005 105.687 94.5774 104.23C95.6162 103.017 96.1221 101.578 96.125 99.9981C96.1261 99.7367 96.1271 99.4754 96.1282 99.2061C96.1281 98.9178 96.1281 98.6294 96.1281 98.3323C96.1293 97.8743 96.1294 97.8743 96.1307 97.407C96.133 96.5575 96.1339 95.708 96.1345 94.8586C96.1354 93.9431 96.1377 93.0276 96.1397 92.1121C96.1443 89.9002 96.1467 87.6883 96.1488 85.4764C96.1498 84.4348 96.1511 83.3933 96.1523 82.3518C96.1563 78.8896 96.1597 75.4274 96.1614 71.9652C96.1618 71.0666 96.1623 70.168 96.1627 69.2694C96.1629 69.046 96.163 68.8227 96.1631 68.5926C96.165 64.9748 96.171 61.357 96.1786 57.7393C96.1863 54.0253 96.1906 50.3113 96.1913 46.5973C96.1918 44.512 96.1939 42.4266 96.1998 40.3412C96.2049 38.5651 96.2068 36.7891 96.2045 35.013C96.2035 34.107 96.2039 33.2011 96.2085 32.2951C96.2134 31.3121 96.211 30.3292 96.2079 29.3462C96.2104 29.061 96.213 28.7758 96.2157 28.482C96.1986 26.2364 95.6828 24.5283 94.1508 22.8525C92.7087 21.5849 91.1214 21.2976 89.2564 21.3052C89.0165 21.3057 89.0165 21.3057 88.7717 21.3062C88.2631 21.3075 87.7545 21.3105 87.2459 21.3135C86.9001 21.3146 86.5544 21.3157 86.2086 21.3167C85.363 21.3193 84.5173 21.3233 83.6717 21.3281C83.606 21.5641 83.606 21.5641 83.539 21.8048C83.4492 22.1172 83.4492 22.1172 83.3577 22.4359C83.2994 22.6415 83.2411 22.8472 83.181 23.059C82.9141 23.8289 82.5315 24.4579 82.0741 25.1276C81.7805 25.5444 81.7805 25.5444 81.5852 26.0394C81.2565 26.6079 80.9924 26.7013 80.3904 26.9531C80.1681 27.067 79.9457 27.1809 79.7166 27.2983C79.4749 27.4212 79.2332 27.5442 78.9842 27.6709C78.7425 27.7945 78.5008 27.918 78.2518 28.0453C77.2282 28.5223 76.4098 28.6236 75.2816 28.6282C74.8652 28.6308 74.8652 28.6308 74.4404 28.6333C74.1366 28.6339 73.8328 28.6346 73.5198 28.6352C73.196 28.6367 72.8721 28.6383 72.5483 28.6399C71.4853 28.6448 70.4223 28.6473 69.3592 28.6496C68.9925 28.6505 68.6257 28.6515 68.2589 28.6525C66.5349 28.6569 64.8108 28.6603 63.0867 28.6622C61.1011 28.6645 59.1154 28.6707 57.1298 28.6802C55.5923 28.6873 54.0549 28.6907 52.5174 28.6915C51.6004 28.692 50.6836 28.6941 49.7667 28.7C48.9027 28.7055 48.0388 28.7065 47.1748 28.7041C46.7104 28.7039 46.246 28.7083 45.7816 28.713C43.324 28.6988 41.3663 28.1626 39.3748 26.7187C39.0268 26.6027 39.0268 26.6027 38.6717 26.4844C38.4291 26.0541 38.4291 26.0541 38.2029 25.5469C38.0146 25.2622 37.8241 24.9791 37.6316 24.6973C37.1634 23.9618 36.8795 23.274 36.642 22.4359C36.5821 22.2276 36.5223 22.0194 36.4606 21.8048C36.4168 21.6475 36.3731 21.4902 36.3279 21.3281C35.3361 21.3047 34.3445 21.2878 33.3525 21.2766C33.0161 21.2719 32.6797 21.2656 32.3433 21.2574C29.5748 21.1918 26.9968 21.4315 25.0779 23.6719Z" fill="white"/>
<path d="M51.8848 72.7002C52.9186 73.4141 53.5605 74.2588 53.9062 75.4688C54.0672 76.8903 53.7149 77.8076 52.9688 78.9844C52.3992 79.6539 51.776 80.2559 51.1377 80.8594C50.0338 81.9208 48.9785 82.9911 47.9806 84.1532C47.3245 84.8969 46.6169 85.5862 45.9082 86.2793C45.1205 87.0499 44.3457 87.8122 43.6487 88.667C42.9002 89.5673 42.2715 89.9414 41.0971 90.0659C39.4693 90.1184 38.6211 89.8815 37.3847 88.7735C37.1838 88.5731 36.9828 88.3727 36.7758 88.1662C36.6116 88.0027 36.6116 88.0027 36.4441 87.8359C36.2137 87.6058 35.9839 87.3751 35.7546 87.1439C35.4087 86.7955 35.0604 86.4496 34.7118 86.104C31.1471 82.5444 31.1471 82.5444 31.1133 80.6836C31.1308 79.4644 31.3266 78.6122 32.2018 77.71C32.8327 77.1478 33.3696 76.7178 34.2188 76.6407C34.4701 76.6165 34.7215 76.5923 34.9805 76.5674C37.4908 76.7766 38.7842 78.6039 40.3125 80.3907C41.3957 79.529 42.3412 78.5865 43.2715 77.5635C44.2959 76.439 45.336 75.334 46.4062 74.253C46.5327 74.1235 46.6592 73.994 46.7895 73.8606C48.3176 72.3285 49.8077 71.9694 51.8848 72.7002Z" fill="white"/>
<path d="M51.8848 42.7002C52.9186 43.4141 53.5605 44.2588 53.9062 45.4688C54.0672 46.8903 53.7149 47.8076 52.9688 48.9844C52.3992 49.6539 51.776 50.2559 51.1377 50.8594C50.0338 51.9208 48.9785 52.9911 47.9806 54.1532C47.3245 54.8969 46.6169 55.5862 45.9082 56.2793C45.1205 57.0499 44.3457 57.8122 43.6487 58.667C42.9002 59.5673 42.2715 59.9414 41.0971 60.0659C39.4693 60.1184 38.6211 59.8815 37.3847 58.7735C37.1838 58.5731 36.9828 58.3727 36.7758 58.1662C36.6116 58.0027 36.6116 58.0027 36.4441 57.8359C36.2137 57.6058 35.9839 57.3751 35.7546 57.1439C35.4087 56.7955 35.0604 56.4496 34.7118 56.104C31.1471 52.5444 31.1471 52.5444 31.1133 50.6836C31.1308 49.4644 31.3266 48.6122 32.2018 47.71C32.8327 47.1478 33.3696 46.7178 34.2188 46.6407C34.4701 46.6165 34.7215 46.5923 34.9805 46.5674C37.4908 46.7766 38.7842 48.6039 40.3125 50.3907C41.3957 49.529 42.3412 48.5865 43.2715 47.5635C44.2959 46.439 45.336 45.334 46.4062 44.253C46.5327 44.1235 46.6592 43.994 46.7895 43.8606C48.3176 42.3285 49.8077 41.9694 51.8848 42.7002Z" fill="white"/>
<path d="M66.3013 77.2757C66.5088 77.2741 66.7162 77.2725 66.93 77.2709C67.6147 77.2665 68.2993 77.2655 68.984 77.265C69.4612 77.2635 69.9385 77.262 70.4158 77.2603C71.416 77.2575 72.4163 77.2566 73.4165 77.2569C74.6956 77.257 75.9746 77.2506 77.2537 77.2425C78.2395 77.2373 79.2253 77.2363 80.2112 77.2366C80.6826 77.236 81.154 77.234 81.6254 77.2303C82.2862 77.2257 82.9467 77.2271 83.6075 77.2299C83.8005 77.2273 83.9936 77.2246 84.1925 77.2219C85.5267 77.2363 86.5397 77.5369 87.6561 78.2813C88.7444 79.4253 88.9117 80.3829 88.8939 81.9132C88.7635 83.0744 88.1195 83.7045 87.2753 84.4483C86.2458 85.1797 85.3817 85.1159 84.1536 85.1196C83.9363 85.1212 83.719 85.1227 83.4952 85.1243C82.774 85.1289 82.0529 85.1317 81.3317 85.134C81.0856 85.135 80.8396 85.1359 80.5861 85.1369C79.2836 85.1418 77.9812 85.1451 76.6787 85.1473C75.3331 85.1499 73.9876 85.158 72.642 85.1673C71.6077 85.1734 70.5735 85.1754 69.5391 85.1762C69.0431 85.1774 68.5471 85.1801 68.0511 85.1844C67.3565 85.1901 66.6622 85.1899 65.9675 85.1883C65.7629 85.1913 65.5583 85.1943 65.3475 85.1974C64.0745 85.1865 63.3544 84.9858 62.3436 84.1406C61.3054 82.9621 61.1014 82.2934 61.1214 80.7514C61.216 79.6337 61.631 78.981 62.4315 78.2227C63.7274 77.3588 64.7852 77.274 66.3013 77.2757Z" fill="white"/>
<path d="M66.3013 47.2757C66.5088 47.2741 66.7162 47.2725 66.93 47.2709C67.6147 47.2665 68.2993 47.2655 68.984 47.265C69.4612 47.2635 69.9385 47.262 70.4158 47.2603C71.416 47.2575 72.4163 47.2566 73.4165 47.2569C74.6956 47.257 75.9746 47.2506 77.2537 47.2425C78.2395 47.2373 79.2253 47.2363 80.2112 47.2366C80.6826 47.236 81.154 47.234 81.6254 47.2303C82.2862 47.2257 82.9467 47.2271 83.6075 47.2299C83.8005 47.2273 83.9936 47.2246 84.1925 47.2219C85.5267 47.2363 86.5397 47.5369 87.6561 48.2813C88.7444 49.4253 88.9117 50.3829 88.8939 51.9132C88.7635 53.0744 88.1195 53.7045 87.2753 54.4483C86.2458 55.1797 85.3817 55.1159 84.1536 55.1196C83.9363 55.1212 83.719 55.1227 83.4952 55.1243C82.774 55.1289 82.0529 55.1317 81.3317 55.134C81.0856 55.135 80.8396 55.1359 80.5861 55.1369C79.2836 55.1418 77.9812 55.1451 76.6787 55.1473C75.3331 55.1499 73.9876 55.158 72.642 55.1673C71.6077 55.1734 70.5735 55.1754 69.5391 55.1762C69.0431 55.1774 68.5471 55.1801 68.0511 55.1844C67.3565 55.1901 66.6622 55.1899 65.9675 55.1883C65.7629 55.1913 65.5583 55.1943 65.3475 55.1974C64.0745 55.1865 63.3544 54.9858 62.3436 54.1406C61.3054 52.9621 61.1014 52.2934 61.1214 50.7514C61.216 49.6337 61.631 48.981 62.4315 48.2227C63.7274 47.3588 64.7852 47.274 66.3013 47.2757Z" fill="white"/>
</svg>
