<svg width="120" height="120" viewBox="0 0 120 120" fill="none" xmlns="http://www.w3.org/2000/svg">
<path d="M42.4864 3.92002C42.8678 3.919 43.2492 3.91778 43.6306 3.91639C44.6606 3.91327 45.6906 3.91312 46.7206 3.91371C47.5831 3.91396 48.4457 3.91281 49.3082 3.91169C51.3444 3.9091 53.3807 3.90899 55.4169 3.91041C57.5117 3.91182 59.6064 3.90894 61.7011 3.90395C63.5051 3.89981 65.3091 3.89841 67.1131 3.89917C68.1882 3.8996 69.2631 3.899 70.3381 3.89572C71.3497 3.89276 72.3612 3.89325 73.3727 3.89629C73.7419 3.89684 74.1111 3.89622 74.4803 3.89427C78.5875 3.87418 82.0074 4.64389 85.0321 7.53744C85.1836 7.68071 85.3351 7.82397 85.4912 7.97158C87.3615 9.74871 89.1899 11.5686 91.0163 13.3905C91.2945 13.6678 91.2945 13.6678 91.5784 13.9506C92.5571 14.9258 93.5351 15.9017 94.5126 16.8781C95.514 17.8783 96.5177 18.8763 97.5218 19.8738C98.3024 20.6499 99.0814 21.4277 99.8599 22.2059C100.229 22.5744 100.599 22.9424 100.969 23.3097C106.236 28.5349 106.236 28.5349 107.109 31.2012C107.196 31.4532 107.283 31.7051 107.373 31.9647C107.809 33.7655 107.847 35.601 107.844 37.4463C107.844 37.6644 107.845 37.8824 107.846 38.1071C107.847 38.8312 107.847 39.5553 107.847 40.2794C107.847 40.8013 107.848 41.3231 107.849 41.845C107.851 43.2581 107.852 44.6711 107.852 46.0842C107.852 46.9681 107.852 47.852 107.853 48.736C107.855 51.6638 107.856 54.5916 107.856 57.5194C107.856 57.7557 107.856 57.7557 107.856 57.9967C107.856 58.1544 107.856 58.312 107.856 58.4745C107.856 61.0291 107.858 63.5837 107.861 66.1383C107.865 68.7675 107.866 71.3967 107.866 74.026C107.866 75.4996 107.867 76.9732 107.869 78.4469C107.872 79.8333 107.872 81.2197 107.87 82.6062C107.87 83.1132 107.87 83.6203 107.872 84.1274C107.884 88.8091 107.751 92.8541 104.531 96.5625C101.648 99.333 98.7108 100.163 94.8047 100.107C94.5226 100.105 94.2404 100.103 93.9496 100.101C93.2581 100.096 92.5666 100.088 91.8751 100.078C91.88 100.24 91.8849 100.401 91.8899 100.568C92.0485 106.576 92.0485 106.576 90.9376 108.984C90.8554 109.171 90.7732 109.358 90.6885 109.551C89.2736 112.406 86.8194 114.484 83.8163 115.502C81.1298 116.231 78.4107 116.114 75.6482 116.107C75.075 116.108 74.5019 116.109 73.9287 116.11C72.5397 116.113 71.1507 116.113 69.7616 116.111C68.6319 116.109 67.5021 116.109 66.3723 116.11C66.2109 116.11 66.0495 116.11 65.8833 116.11C65.5553 116.11 65.2273 116.111 64.8994 116.111C61.8313 116.113 58.7633 116.11 55.6953 116.107C53.0679 116.104 50.4406 116.104 47.8132 116.107C44.7551 116.111 41.6969 116.113 38.6388 116.11C38.3122 116.11 37.9855 116.11 37.6589 116.11C37.4983 116.11 37.3376 116.11 37.1721 116.109C36.0447 116.109 34.9174 116.11 33.79 116.111C32.2704 116.114 30.7509 116.112 29.2313 116.108C28.675 116.107 28.1187 116.107 27.5624 116.109C22.9881 116.121 19.241 115.883 15.7627 112.573C12.6459 109.375 12.1115 105.504 12.128 101.184C12.1273 100.886 12.1266 100.588 12.1258 100.28C12.1239 99.4621 12.1248 98.6438 12.1263 97.8255C12.1274 96.9395 12.1257 96.0534 12.1244 95.1673C12.1223 93.4351 12.1228 91.7029 12.1241 89.9707C12.1252 88.5621 12.1253 87.1534 12.1248 85.7448C12.1248 85.5438 12.1247 85.3427 12.1246 85.1356C12.1245 84.7272 12.1243 84.3188 12.1242 83.9104C12.1228 80.0867 12.1244 76.263 12.1269 72.4392C12.129 69.1632 12.1286 65.8871 12.1264 62.611C12.1239 58.8003 12.123 54.9897 12.1244 51.179C12.1245 50.7721 12.1247 50.3653 12.1248 49.9584C12.1249 49.6582 12.1249 49.6582 12.1251 49.3519C12.1255 47.946 12.1248 46.5402 12.1237 45.1343C12.1224 43.4195 12.1227 41.7046 12.1252 39.9898C12.1264 39.116 12.1269 38.2422 12.1254 37.3684C12.1237 36.4187 12.1257 35.4691 12.128 34.5194C12.127 34.2467 12.1259 33.9741 12.1249 33.6931C12.1436 29.7341 12.8275 26.4796 15.4688 23.4375C18.3523 20.6671 21.2893 19.8368 25.1954 19.8926C25.6186 19.8958 25.6186 19.8958 26.0505 19.899C26.7421 19.9045 27.4335 19.9122 28.1251 19.9219C28.1202 19.7604 28.1152 19.5988 28.1102 19.4324C27.95 13.3629 27.95 13.3629 29.0626 11.0156C29.1765 10.7742 29.2904 10.5328 29.4077 10.2841C30.9388 7.38485 33.3 5.61116 36.3282 4.45314C38.3499 3.87435 40.4033 3.91632 42.4864 3.92002ZM36.5571 12.3624C36.4525 12.4932 36.348 12.624 36.2403 12.7588C36.1321 12.889 36.024 13.0192 35.9125 13.1534C35.2915 14.1048 35.0977 14.9444 35.096 16.0722C35.0945 16.3339 35.093 16.5955 35.0914 16.865C35.0922 17.1512 35.0929 17.4375 35.0936 17.7323C35.0926 18.0373 35.0915 18.3423 35.0904 18.6565C35.0875 19.5027 35.0876 20.3489 35.0882 21.1951C35.0883 22.1078 35.0857 23.0206 35.0834 23.9334C35.0796 25.7215 35.0783 27.5097 35.078 29.2978C35.0778 30.7513 35.0768 32.2049 35.0753 33.6584C35.0712 37.7793 35.069 41.9002 35.0694 46.0211C35.0694 46.2433 35.0694 46.4655 35.0695 46.6944C35.0695 46.9168 35.0695 47.1393 35.0695 47.3684C35.0697 50.9735 35.0652 54.5785 35.0586 58.1835C35.0519 61.885 35.0486 65.5865 35.049 69.2881C35.0492 71.3663 35.0479 73.4444 35.0429 75.5226C35.0386 77.292 35.0376 79.0613 35.0408 80.8307C35.0423 81.7334 35.0423 82.6359 35.0382 83.5385C35.0339 84.5175 35.0368 85.4963 35.0404 86.4753C35.038 86.7599 35.0356 87.0446 35.0331 87.3379C35.048 89.1571 35.2479 90.5028 36.5378 91.8805C36.6862 91.985 36.8345 92.0896 36.9874 92.1973C37.1339 92.3054 37.2804 92.4136 37.4314 92.525C38.8983 93.3097 40.3176 93.3495 41.9442 93.3439C42.2913 93.3455 42.2913 93.3455 42.6453 93.3472C43.4186 93.3501 44.1918 93.3498 44.9651 93.3494C45.5203 93.3508 46.0756 93.3524 46.6308 93.3541C48.1378 93.3583 49.6448 93.3594 51.1518 93.3597C52.0936 93.3599 53.0354 93.361 53.9773 93.3623C57.0944 93.3664 60.2115 93.3685 63.3286 93.3682C63.4965 93.3682 63.6644 93.3682 63.8373 93.3681C64.0054 93.3681 64.1735 93.3681 64.3467 93.3681C67.07 93.3679 69.7934 93.3724 72.5167 93.379C75.3162 93.3857 78.1157 93.389 80.9152 93.3885C82.4856 93.3884 84.056 93.3898 85.6264 93.3947C87.1037 93.3993 88.5809 93.3993 90.0581 93.3959C90.5995 93.3954 91.1409 93.3965 91.6822 93.3993C92.4229 93.403 93.1634 93.4008 93.9041 93.3972C94.2232 93.4008 94.2232 93.4008 94.5488 93.4045C96.2749 93.386 97.8625 92.9729 99.2432 91.8997C99.4245 91.6772 99.4245 91.6772 99.6094 91.4502C99.7351 91.3037 99.8608 91.1572 99.9903 91.0062C100.827 89.6104 100.848 88.1831 100.838 86.6022C100.838 86.3825 100.838 86.1629 100.839 85.9367C100.84 85.2032 100.837 84.4699 100.835 83.7365C100.834 83.2098 100.834 82.6831 100.835 82.1564C100.835 80.728 100.832 79.2996 100.829 77.8712C100.826 76.3779 100.826 74.8846 100.825 73.3913C100.824 70.8853 100.821 68.3794 100.817 65.8734C100.812 63.2928 100.809 60.7121 100.807 58.1315C100.807 57.9723 100.807 57.8131 100.807 57.6491C100.806 56.8505 100.805 56.0518 100.805 55.2532C100.8 48.6324 100.792 42.0115 100.781 35.3906C100.616 35.3887 100.451 35.3869 100.281 35.3849C98.7158 35.3665 97.1507 35.3461 95.5855 35.3233C94.7811 35.3116 93.9767 35.3007 93.1723 35.2918C92.2448 35.2814 91.3175 35.2674 90.3901 35.2533C90.1048 35.2506 89.8196 35.2479 89.5257 35.2451C85.8396 35.182 82.7298 34.376 79.9219 31.875C77.8894 29.6247 76.6366 26.9079 76.5926 23.8671C76.5879 23.5809 76.5832 23.2948 76.5784 23C76.5725 22.5399 76.5725 22.5399 76.5665 22.0706C76.5617 21.7518 76.5568 21.4329 76.5518 21.114C76.5389 20.2776 76.5273 19.4411 76.5159 18.6046C76.5041 17.7499 76.4911 16.8952 76.4782 16.0405C76.453 14.3656 76.4292 12.6906 76.4063 11.0156C71.5493 10.9937 66.6923 10.9772 61.8353 10.9671C59.58 10.9622 57.3247 10.9557 55.0695 10.9449C53.1035 10.9356 51.1375 10.9295 49.1715 10.9274C48.1307 10.9262 47.0901 10.9234 46.0494 10.9165C45.0691 10.9101 44.0888 10.9082 43.1084 10.9096C42.7494 10.9093 42.3904 10.9075 42.0314 10.9039C39.9059 10.8836 38.2402 10.91 36.5571 12.3624ZM83.4376 16.1719C83.4142 17.3392 83.3973 18.5063 83.3861 19.6738C83.3814 20.0702 83.375 20.4667 83.3668 20.8631C83.3554 21.4356 83.3501 22.0079 83.346 22.5806C83.3412 22.7555 83.3363 22.9304 83.3313 23.1105C83.3307 24.6158 83.8019 25.8065 84.7761 26.9586C84.9048 27.0632 85.0335 27.1677 85.1661 27.2754C85.2936 27.3836 85.4211 27.4917 85.5524 27.6032C86.7587 28.3517 87.9689 28.4246 89.3537 28.4052C89.6238 28.4042 89.6238 28.4042 89.8994 28.4032C90.4701 28.4006 91.0407 28.3947 91.6114 28.3887C92.0002 28.3863 92.389 28.3842 92.7778 28.3823C93.7269 28.3771 94.676 28.3691 95.6251 28.3594C94.4246 26.9078 93.1153 25.581 91.7826 24.2514C91.5487 24.0173 91.3148 23.7832 91.0809 23.5491C90.5942 23.062 90.107 22.5753 89.6195 22.0889C88.9934 21.4642 88.3684 20.8384 87.7438 20.2123C87.2626 19.7304 86.781 19.249 86.2992 18.7677C86.0683 18.537 85.8375 18.3061 85.607 18.075C85.2867 17.7541 84.9656 17.434 84.6444 17.114C84.4618 16.9316 84.2792 16.7492 84.0911 16.5613C83.7387 16.1453 83.7387 16.1453 83.4376 16.1719ZM20.4932 28.45C19.4509 29.6198 19.19 30.9187 19.188 32.4314C19.1871 32.6884 19.1862 32.9455 19.1853 33.2103C19.1855 33.4927 19.1857 33.775 19.1859 34.0659C19.1852 34.3659 19.1845 34.6659 19.1838 34.975C19.1819 35.8084 19.1815 36.6417 19.1813 37.4751C19.1809 38.3736 19.1791 39.2721 19.1775 40.1707C19.1743 42.1358 19.1729 44.1008 19.1719 46.0659C19.1712 47.2929 19.1703 48.5199 19.1692 49.7468C19.1663 53.1439 19.1639 56.541 19.1631 59.938C19.1631 60.1555 19.163 60.3729 19.163 60.5969C19.1629 60.8149 19.1629 61.0328 19.1628 61.2573C19.1627 61.699 19.1626 62.1406 19.1625 62.5823C19.1625 62.8013 19.1624 63.0204 19.1623 63.2461C19.1614 66.7958 19.1573 70.3455 19.1519 73.8952C19.1463 77.5396 19.1434 81.1839 19.1431 84.8282C19.1429 86.8744 19.1416 88.9206 19.1373 90.9668C19.1337 92.7092 19.1325 94.4515 19.1344 96.1939C19.1353 97.0828 19.1351 97.9716 19.1318 98.8604C19.1283 99.8245 19.1302 100.788 19.1327 101.753C19.1308 102.033 19.1289 102.313 19.127 102.602C19.1377 104.406 19.3712 105.693 20.2881 107.271C21.8457 108.748 23.582 109.158 25.6702 109.132C25.9072 109.133 26.1443 109.135 26.3886 109.137C27.177 109.141 27.9652 109.137 28.7537 109.132C29.3213 109.134 29.889 109.135 30.4566 109.137C31.8347 109.141 33.2126 109.14 34.5906 109.135C35.7109 109.132 36.8312 109.131 37.9515 109.132C38.1113 109.132 38.2711 109.132 38.4358 109.132C38.7605 109.133 39.0852 109.133 39.4099 109.133C42.2768 109.135 45.1437 109.131 48.0105 109.124C50.7896 109.118 53.5685 109.116 56.3476 109.119C59.3778 109.123 62.408 109.124 65.4382 109.12C65.7616 109.12 66.0849 109.119 66.4082 109.119C66.5673 109.119 66.7263 109.119 66.8902 109.118C68.0088 109.117 69.1275 109.118 70.2461 109.119C71.7524 109.121 73.2587 109.118 74.765 109.112C75.3175 109.11 75.87 109.11 76.4225 109.112C77.1772 109.114 77.9317 109.11 78.6864 109.105C79.0136 109.108 79.0136 109.108 79.3475 109.111C80.9642 109.09 82.2156 108.71 83.4431 107.629C83.5476 107.496 83.6521 107.364 83.7598 107.227C83.9221 107.027 83.9221 107.027 84.0876 106.824C84.7053 105.927 84.9018 105.296 84.8896 104.198C84.8881 103.958 84.8866 103.718 84.885 103.47C84.8811 103.221 84.8772 102.972 84.8731 102.715C84.871 102.462 84.8689 102.209 84.8667 101.949C84.8612 101.325 84.8535 100.702 84.8438 100.078C84.4835 100.078 84.4835 100.078 84.1159 100.077C78.2648 100.069 72.4137 100.055 66.5626 100.035C63.7331 100.026 60.9035 100.018 58.0739 100.015C55.6069 100.012 53.14 100.005 50.673 99.995C49.3674 99.9897 48.0619 99.9861 46.7563 99.9863C45.5258 99.9865 44.2955 99.9823 43.0651 99.9747C42.615 99.9728 42.1649 99.9723 41.7148 99.9737C37.827 99.9835 34.526 99.3866 31.5821 96.6211C29.5962 94.5149 28.3364 91.7851 28.3269 88.8675C28.3257 88.6448 28.3244 88.422 28.323 88.1925C28.3228 87.9497 28.3226 87.7069 28.3224 87.4567C28.3206 87.0676 28.3206 87.0676 28.3188 86.6706C28.3152 85.7997 28.3133 84.9288 28.3113 84.058C28.3091 83.4343 28.3067 82.8107 28.3043 82.1871C28.2992 80.8436 28.2949 79.5002 28.2913 78.1567C28.2859 76.2143 28.2793 74.2718 28.2724 72.3294C28.2613 69.1779 28.2511 66.0264 28.2416 62.8749C28.2324 59.8136 28.2227 56.7524 28.2123 53.6911C28.2117 53.5023 28.211 53.3136 28.2104 53.1192C28.2072 52.1725 28.204 51.2258 28.2007 50.279C28.174 42.4256 28.149 34.5722 28.1251 26.7188C27.4472 26.7116 26.7695 26.7064 26.0917 26.7023C25.8051 26.699 25.8051 26.699 25.5128 26.6956C23.4762 26.6863 22.0113 27.0338 20.4932 28.45Z" fill="white"/>
<path d="M50.7724 60.6702C50.9254 60.6695 51.0784 60.6688 51.236 60.6681C51.7467 60.6661 52.2575 60.6657 52.7683 60.6653C53.1352 60.6643 53.5022 60.6631 53.8692 60.6618C54.8648 60.6587 55.8604 60.6572 56.856 60.6562C57.4783 60.6555 58.1007 60.6545 58.723 60.6535C60.6711 60.6503 62.6191 60.648 64.5672 60.6471C66.8143 60.6461 69.0614 60.642 71.3086 60.6352C73.0469 60.6301 74.7851 60.6277 76.5234 60.6274C77.5611 60.6272 78.5987 60.6258 79.6364 60.6216C80.6125 60.6177 81.5886 60.6172 82.5647 60.6193C82.9223 60.6195 83.2799 60.6185 83.6375 60.6161C84.127 60.6132 84.6163 60.6145 85.1058 60.617C85.5161 60.6165 85.5161 60.6165 85.9346 60.6159C87.196 60.7561 88.0997 61.169 89.0333 62.0215C89.655 63.0088 89.8621 63.7596 89.7657 64.9219C89.4779 65.9885 89.0831 66.5935 88.2167 67.2847C86.7869 68.0736 85.0605 67.8646 83.4737 67.8557C83.0948 67.8569 82.7158 67.8586 82.3369 67.8606C81.3107 67.8649 80.2847 67.8633 79.2586 67.8603C78.1835 67.8579 77.1085 67.8601 76.0334 67.8616C74.2285 67.8633 72.4236 67.8611 70.6187 67.8566C68.5331 67.8515 66.4476 67.8531 64.3621 67.8583C62.5698 67.8626 60.7776 67.8631 58.9853 67.8607C57.9156 67.8592 56.8459 67.859 55.7762 67.8621C54.7706 67.8648 53.7651 67.863 52.7595 67.8575C52.3909 67.8563 52.0222 67.8567 51.6536 67.8587C51.1496 67.8613 50.6459 67.8581 50.142 67.8534C49.7193 67.8529 49.7193 67.8529 49.2882 67.8523C48.079 67.6677 47.3589 67.0726 46.5529 66.1816C46.0372 65.1105 45.9819 64.2157 46.172 63.0469C46.6413 62.1251 47.1456 61.4564 48.047 60.9375C48.9634 60.7035 49.8288 60.6726 50.7724 60.6702Z" fill="white"/>
<path d="M49.6066 76.7857C50.0028 76.7827 50.0028 76.7827 50.4071 76.7797C50.8385 76.7818 50.8385 76.7818 51.2787 76.784C51.5833 76.7828 51.8879 76.7816 52.2017 76.7803C53.0356 76.7771 53.8694 76.7783 54.7033 76.7806C55.5767 76.7823 56.4501 76.7807 57.3235 76.7796C58.7902 76.7783 60.2568 76.78 61.7234 76.7833C63.4181 76.7872 65.1127 76.7859 66.8074 76.7821C68.2635 76.7789 69.7195 76.7784 71.1756 76.7803C72.0447 76.7813 72.9139 76.7815 73.7831 76.7792C74.7521 76.7768 75.721 76.7801 76.69 76.784C76.9776 76.7826 77.2653 76.7812 77.5616 76.7797C77.8258 76.7817 78.0899 76.7837 78.3621 76.7857C78.7056 76.7861 78.7056 76.7861 79.0561 76.7865C80.0944 76.932 80.6964 77.3971 81.3867 78.1641C82.0709 79.1416 82.1107 79.9214 82.0312 81.0938C81.5652 82.3447 80.8812 83.075 79.6875 83.6719C79.2774 83.6952 78.8664 83.7035 78.4556 83.7048C78.1943 83.7061 77.9331 83.7075 77.664 83.7089C77.376 83.7091 77.088 83.7094 76.7914 83.7096C76.4891 83.7108 76.1869 83.712 75.8755 83.7132C75.045 83.7163 74.2145 83.7178 73.384 83.7188C72.8652 83.7195 72.3464 83.7204 71.8276 83.7215C70.2047 83.7247 68.5817 83.727 66.9588 83.7279C65.0849 83.7289 63.2111 83.733 61.3372 83.7398C59.8892 83.7449 58.4411 83.7473 56.993 83.7476C56.128 83.7478 55.2631 83.7492 54.3981 83.7534C53.4329 83.758 52.4678 83.7569 51.5027 83.7554C51.0729 83.7587 51.0729 83.7587 50.6344 83.762C50.2396 83.76 50.2396 83.76 49.8368 83.758C49.6086 83.7584 49.3804 83.7587 49.1453 83.7591C47.9711 83.5965 47.1696 82.9037 46.4062 82.0313C46.0458 80.9499 45.9557 79.832 46.3403 78.7409C47.0934 77.3137 48.0263 76.7876 49.6066 76.7857Z" fill="white"/>
<path d="M50.2844 44.7242C50.5166 44.7218 50.5166 44.7218 50.7535 44.7195C51.2657 44.7149 51.7779 44.7121 52.2901 44.7098C52.4655 44.7088 52.641 44.7079 52.8217 44.7069C53.7509 44.702 54.68 44.6987 55.6092 44.6965C56.5657 44.6939 57.522 44.6858 58.4784 44.6765C59.2166 44.6703 59.9547 44.6684 60.6929 44.6676C61.0452 44.6664 61.3976 44.6637 61.7499 44.6594C63.6355 44.6375 65.1831 44.6237 66.7966 45.7031C67.4423 46.3995 67.7144 47.1822 67.7616 48.1275C67.6813 49.1747 67.507 50.0574 66.7966 50.8594C65.0514 52.029 63.2763 51.93 61.2504 51.9132C60.8939 51.9132 60.5373 51.9135 60.1808 51.9142C59.4365 51.9145 58.6923 51.9116 57.9481 51.9062C56.9966 51.8996 56.0453 51.9002 55.0938 51.9032C54.3586 51.9048 53.6236 51.903 52.8884 51.9001C52.5377 51.899 52.1869 51.899 51.8361 51.8999C51.3454 51.9006 50.8549 51.8967 50.3642 51.8916C50.0857 51.8903 49.8072 51.8891 49.5202 51.8877C48.3487 51.7496 47.5893 51.3662 46.8015 50.4932C46.0365 49.3881 46.0234 48.4316 46.1716 47.1094C47.1225 45.2416 48.2593 44.7408 50.2844 44.7242Z" fill="white"/>
</svg>
