<svg width="121" height="120" viewBox="0 0 121 120" fill="none" xmlns="http://www.w3.org/2000/svg">
<path d="M48.4242 3.91113C49.846 5.06673 51.2354 6.46939 51.8959 8.20312C51.8959 8.43515 51.8959 8.66718 51.8959 8.90624C52.1154 8.90256 52.335 8.89888 52.5612 8.89509C53.3894 8.88298 54.2176 8.87423 55.0458 8.86762C55.4018 8.86412 55.7577 8.85935 56.1136 8.8532C61.7259 8.75874 61.7259 8.75874 63.9067 10.5753C65.1863 11.9461 65.994 13.481 65.9812 15.3625C65.9805 15.5604 65.9797 15.7583 65.979 15.9622C65.977 16.1668 65.975 16.3713 65.973 16.582C65.972 16.7902 65.9709 16.9984 65.9698 17.2128C65.967 17.7252 65.9632 18.2376 65.9584 18.75C66.1483 18.7475 66.3382 18.7451 66.5339 18.7426C67.2543 18.7345 67.9746 18.7286 68.6949 18.7242C69.1538 18.7208 69.6126 18.7148 70.0714 18.7088C74.1591 18.688 77.4053 19.263 80.4447 22.1658C82.3822 24.3105 83.3064 26.8977 83.3502 29.7669C83.3549 30.0389 83.3596 30.311 83.3644 30.5913C83.3703 31.0264 83.3703 31.0264 83.3763 31.4703C83.3811 31.7701 83.386 32.0698 83.391 32.3786C83.4037 33.1716 83.4155 33.9645 83.4269 34.7575C83.4387 35.5682 83.4517 36.3789 83.4646 37.1896C83.4897 38.7774 83.5135 40.3653 83.5365 41.9531C83.8896 42.1363 83.8896 42.1363 84.2499 42.3231C84.5651 42.4884 84.8803 42.6538 85.1954 42.8192C85.3498 42.8991 85.5043 42.9789 85.6634 43.0612C92.5614 46.6969 97.3681 53.4659 99.6937 60.7718C101.478 66.9984 101.501 73.6114 99.2148 79.6938C98.8577 80.6698 98.648 81.2816 99.0052 82.2656C99.4672 82.8564 99.999 83.368 100.537 83.889C100.697 84.0477 100.857 84.2064 101.022 84.37C101.37 84.7142 101.719 85.0574 102.069 85.3997C102.624 85.9426 103.176 86.4885 103.727 87.0352C105.098 88.3934 106.473 89.7465 107.849 91.0997C109.01 92.242 110.169 93.3862 111.325 94.533C111.867 95.0685 112.411 95.6011 112.955 96.1336C115.796 98.9347 117.971 101.641 118.063 105.806C118.027 109.192 116.82 111.988 114.518 114.448C112.091 116.721 109.108 117.814 105.791 117.767C101.132 117.556 98.2646 114.711 95.1866 111.585C94.8489 111.246 94.511 110.907 94.1729 110.568C93.2904 109.682 92.4108 108.793 91.5318 107.903C90.6315 106.994 89.7286 106.086 88.8259 105.179C87.0601 103.403 85.2974 101.624 83.5365 99.8437C83.5331 100.078 83.5296 100.311 83.5261 100.552C83.5124 101.433 83.4943 102.313 83.475 103.194C83.4673 103.573 83.4607 103.951 83.4553 104.33C83.402 107.987 83.0408 111.634 80.4393 114.456C78.508 116.247 76.0021 117.682 73.3117 117.688C73.0937 117.689 72.8758 117.69 72.6512 117.691C72.4125 117.691 72.1738 117.691 71.9279 117.691C71.6737 117.692 71.4195 117.692 71.1576 117.693C70.3029 117.696 69.4481 117.697 68.5933 117.698C67.9816 117.699 67.3699 117.701 66.7581 117.702C64.92 117.707 63.0819 117.709 61.2437 117.711C60.3773 117.713 59.5109 117.714 58.6445 117.715C55.7627 117.719 52.881 117.722 49.9992 117.724C49.2515 117.725 48.5039 117.725 47.7562 117.725C47.4775 117.726 47.4775 117.726 47.1932 117.726C44.1861 117.728 41.179 117.734 38.1719 117.741C35.0819 117.749 31.9919 117.753 28.9019 117.754C27.168 117.754 25.4343 117.757 23.7004 117.763C22.0681 117.768 20.4359 117.769 18.8036 117.767C18.2058 117.766 17.6081 117.768 17.0103 117.771C12.783 117.793 9.31459 117.719 6.0316 114.741C5.85274 114.543 5.67389 114.345 5.48961 114.141C5.37692 114.032 5.26422 113.922 5.14812 113.81C3.05785 111.656 2.73848 108.867 2.76583 105.997C2.76481 105.659 2.76328 105.32 2.76129 104.982C2.75734 104.061 2.76061 103.14 2.76516 102.218C2.7688 101.222 2.76563 100.225 2.76335 99.2282C2.75995 97.279 2.7628 95.33 2.76783 93.3809C2.77347 91.1092 2.77305 88.8376 2.77244 86.5659C2.77158 82.5121 2.77645 78.4584 2.78445 74.4046C2.79221 70.4741 2.79553 66.5436 2.79407 62.6131C2.79248 58.3284 2.79306 54.0436 2.79767 49.7589C2.79803 49.4189 2.79803 49.4189 2.79841 49.072C2.7989 48.6167 2.79939 48.1615 2.79989 47.7063C2.8015 46.124 2.80166 44.5417 2.80132 42.9594C2.80099 41.0308 2.80327 39.1023 2.80881 37.1738C2.81159 36.1904 2.81326 35.2071 2.8119 34.2237C2.81068 33.3226 2.81274 32.4216 2.81735 31.5205C2.81898 31.0421 2.81719 30.5638 2.81526 30.0855C2.8394 26.8135 3.7383 24.3047 5.95836 21.8701C9.04715 18.9422 12.7276 18.6675 16.7982 18.7207C17.1128 18.7231 17.4275 18.7252 17.7421 18.7271C18.5017 18.7326 19.2613 18.7402 20.0209 18.75C20.019 18.5277 20.0171 18.3055 20.0152 18.0765C20.0137 17.7833 20.0123 17.4902 20.0108 17.1881C20.0089 16.8982 20.0071 16.6083 20.0051 16.3095C20.0465 14.0977 20.5637 12.4206 22.089 10.7941C23.9081 9.08583 25.8902 8.66599 28.3384 8.59771C28.5856 8.59041 28.5856 8.59041 28.8379 8.58295C29.3607 8.56771 29.8837 8.55385 30.4066 8.54003C30.7626 8.5299 31.1186 8.51968 31.4746 8.50936C32.3441 8.48436 33.2137 8.4606 34.0834 8.43749C34.1569 8.28122 34.2305 8.12495 34.3062 7.96394C35.6278 5.22665 37.3467 3.72504 40.1771 2.57812C42.8792 1.66435 46.1424 2.3267 48.4242 3.91113ZM39.5033 9.12597C38.8581 10.1333 38.7134 11.2825 38.5292 12.4475C38.3021 13.125 38.3021 13.125 37.854 13.514C36.8017 13.9707 35.8336 13.9178 34.6986 13.9069C34.2164 13.9098 33.7342 13.9128 33.2521 13.916C32.4944 13.9169 31.7369 13.916 30.9793 13.9126C30.2463 13.9106 29.5136 13.9156 28.7806 13.9215C28.5545 13.9184 28.3284 13.9152 28.0955 13.912C27.0983 13.923 26.4955 13.9781 25.6203 14.4823C24.9396 15.6374 25.0141 16.7156 25.0297 18.0331C25.0291 18.305 25.0286 18.5768 25.028 18.8569C25.0282 19.4308 25.0314 20.0046 25.0372 20.5785C25.0453 21.4577 25.042 22.3363 25.0375 23.2155C25.0391 23.7732 25.0414 24.3309 25.0444 24.8886C25.0432 25.1518 25.042 25.415 25.0408 25.6862C25.0445 25.931 25.0483 26.1759 25.0521 26.4281C25.0535 26.6432 25.055 26.8582 25.0565 27.0798C25.2184 27.8534 25.5018 28.1021 26.1146 28.5937C26.7726 28.7336 26.7726 28.7336 27.5112 28.7112C27.7971 28.7135 28.083 28.7158 28.3775 28.7182C28.6936 28.716 29.0097 28.7137 29.3258 28.7113C29.6593 28.7122 29.9927 28.7135 30.3261 28.7152C31.2312 28.7184 32.1362 28.7158 33.0412 28.712C33.9883 28.7087 34.9353 28.7102 35.8823 28.7111C37.4728 28.7117 39.0631 28.7085 40.6535 28.7031C42.4924 28.6969 44.3312 28.6964 46.1701 28.6992C47.9388 28.7017 49.7075 28.7003 51.4763 28.697C52.2291 28.6956 52.9819 28.6956 53.7348 28.6967C54.6212 28.6979 55.5076 28.6955 56.3941 28.6904C56.7195 28.6891 57.0449 28.689 57.3703 28.6902C57.8143 28.6916 58.2584 28.6882 58.7024 28.6846C58.9509 28.684 59.1994 28.6835 59.4555 28.6829C60.1918 28.5809 60.5101 28.4086 61.0365 27.8906C61.2649 27.2053 61.3018 26.7606 61.3049 26.0468C61.3064 25.8153 61.3079 25.5837 61.3094 25.3452C61.3097 25.0954 61.31 24.8456 61.3102 24.5883C61.311 24.3314 61.3118 24.0745 61.3126 23.8099C61.3138 23.2663 61.3143 22.7227 61.3143 22.1792C61.3148 21.3469 61.3191 20.5147 61.3235 19.6825C61.3242 19.1547 61.3247 18.6269 61.3249 18.0991C61.3274 17.7251 61.3274 17.7251 61.33 17.3436C61.3293 17.1114 61.3285 16.8791 61.3278 16.6398C61.3281 16.4358 61.3285 16.2318 61.3288 16.0216C61.2648 15.4112 61.1346 15.0454 60.8021 14.5312C60.0648 14.0397 59.8891 14.0034 59.0481 13.9989C58.7301 13.9953 58.7301 13.9953 58.4056 13.9917C58.1771 13.9912 57.9486 13.9907 57.7131 13.9902C57.2294 13.9843 56.7457 13.9783 56.262 13.9723C55.4993 13.9656 54.7365 13.9599 53.9738 13.9555C53.2377 13.9505 52.5018 13.9412 51.7659 13.9316C51.5383 13.9315 51.3107 13.9315 51.0762 13.9315C49.9155 13.9145 49.0799 13.8971 48.1459 13.125C47.7292 12.4942 47.6185 11.9316 47.516 11.1914C47.239 9.89035 46.5808 9.04764 45.5677 8.20312C43.552 7.04574 41.0393 7.26045 39.5033 9.12597ZM10.1771 24.8437C10.0442 24.9277 9.91139 25.0117 9.77451 25.0983C8.53733 26.0013 7.90189 27.358 7.59898 28.8281C7.57742 29.2756 7.56873 29.7238 7.56818 30.1718C7.56728 30.4476 7.56638 30.7235 7.56545 31.0077C7.56566 31.311 7.56586 31.6143 7.56607 31.9268C7.56546 32.2521 7.56476 32.5773 7.56396 32.9026C7.56207 33.7974 7.56165 34.6922 7.56147 35.587C7.56104 36.5517 7.55927 37.5164 7.55769 38.4811C7.55451 40.5909 7.55309 42.7008 7.55206 44.8107C7.55142 46.1279 7.55043 47.4452 7.54937 48.7625C7.54651 52.4093 7.5441 56.056 7.5433 59.7028C7.54325 59.9362 7.5432 60.1697 7.54315 60.4102C7.5431 60.6441 7.54305 60.8781 7.54299 61.1192C7.54289 61.5933 7.54278 62.0675 7.54268 62.5416C7.54263 62.7768 7.54258 63.012 7.54252 63.2543C7.5416 67.0655 7.5375 70.8766 7.53205 74.6878C7.52649 78.6001 7.52357 82.5125 7.5233 86.4248C7.52308 88.6217 7.52173 90.8185 7.51748 93.0153C7.51387 94.8859 7.51267 96.7565 7.51461 98.6272C7.51552 99.5815 7.5153 100.536 7.51201 101.49C7.50903 102.364 7.50931 103.238 7.51215 104.112C7.51283 104.577 7.51005 105.043 7.50713 105.508C7.51899 107.644 7.78512 109.328 9.26799 110.952C10.6078 112.097 12.2802 112.762 14.0361 112.765C14.3505 112.767 14.3505 112.767 14.6712 112.768C14.9005 112.768 15.1297 112.767 15.366 112.767C15.7325 112.768 15.7325 112.768 16.1064 112.769C16.9277 112.771 17.749 112.772 18.5704 112.772C19.1582 112.773 19.7461 112.774 20.3339 112.776C21.9329 112.779 23.5319 112.78 25.1309 112.781C26.1297 112.782 27.1285 112.783 28.1273 112.784C30.8937 112.787 33.66 112.789 36.4264 112.79C36.6034 112.79 36.7805 112.79 36.9628 112.79C37.1403 112.79 37.3177 112.79 37.5005 112.79C37.8601 112.79 38.2197 112.791 38.5792 112.791C38.7576 112.791 38.9359 112.791 39.1197 112.791C42.0084 112.792 44.8972 112.796 47.7859 112.801C50.7531 112.807 53.7202 112.81 56.6873 112.81C58.3527 112.81 60.0181 112.812 61.6835 112.816C63.2504 112.82 64.8172 112.82 66.3841 112.818C66.9588 112.818 67.5335 112.819 68.1083 112.821C68.8937 112.824 69.679 112.823 70.4644 112.821C70.8044 112.823 70.8044 112.823 71.1513 112.826C73.173 112.812 74.8993 112.371 76.5052 111.094C77.8607 109.697 78.2169 108.691 78.1916 106.761C78.191 106.57 78.1903 106.379 78.1896 106.182C78.187 105.573 78.1811 104.964 78.1752 104.355C78.1728 103.942 78.1707 103.528 78.1687 103.115C78.1636 102.103 78.1555 101.09 78.1459 100.078C78.0136 100.101 77.8813 100.124 77.745 100.148C71.061 101.308 62.9559 101.608 56.8827 97.9606C56.1866 97.6655 55.6283 97.6756 54.8723 97.6754C54.5687 97.6742 54.265 97.6729 53.9522 97.6716C53.6162 97.6725 53.2802 97.6735 52.9441 97.6745C52.5899 97.6739 52.2357 97.673 51.8815 97.672C51.119 97.6701 50.3566 97.6695 49.5941 97.6701C48.3887 97.6707 47.1833 97.6674 45.9779 97.6633C42.5504 97.6522 39.1229 97.6466 35.6954 97.6451C33.8021 97.6442 31.9089 97.64 30.0157 97.6322C28.8172 97.6275 27.6187 97.6269 26.4202 97.6295C25.675 97.6301 24.9298 97.6268 24.1846 97.6224C23.8388 97.6211 23.4929 97.6215 23.1471 97.6236C22.6754 97.6262 22.2036 97.6225 21.7319 97.6185C21.4678 97.6182 21.2038 97.618 20.9317 97.6177C20.0978 97.4726 19.8259 97.2281 19.3177 96.5625C18.9853 95.304 19.1383 94.474 19.5521 93.2812C20.2729 93.0716 20.9205 93.0153 21.6701 93.0098C22.027 93.0064 22.027 93.0063 22.3911 93.0028C22.6507 93.0015 22.9103 93.0001 23.1778 92.9987C23.4523 92.9964 23.7267 92.9941 24.0095 92.9917C24.9175 92.9843 25.8255 92.9785 26.7335 92.9727C27.3627 92.968 27.992 92.963 28.6212 92.958C30.1086 92.9463 31.5961 92.9357 33.0835 92.9256C34.7771 92.914 36.4707 92.9012 38.1643 92.8882C41.6478 92.8615 45.1312 92.8365 48.6146 92.8125C48.3904 92.5498 48.166 92.2873 47.9416 92.0249C47.7542 91.8055 47.7542 91.8055 47.563 91.5818C47.0034 90.935 46.4157 90.3143 45.8323 89.6889C45.3334 89.0625 45.3334 89.0625 45.0104 88.3474C44.5862 87.4518 44.2119 86.9011 43.4584 86.25C41.8212 85.7213 39.9875 85.9138 38.292 85.957C37.7826 85.9594 37.2731 85.9604 36.7636 85.9601C35.4256 85.9623 34.0883 85.9805 32.7505 86.0029C30.6072 86.0362 28.4636 86.0456 26.3201 86.0542C25.572 86.0595 24.8242 86.0719 24.0762 86.0854C23.6179 86.0901 23.1596 86.0946 22.7014 86.0989C22.4937 86.1045 22.2861 86.1101 22.0722 86.1159C21.1169 86.1199 20.6162 86.0915 19.7801 85.5902C19.1314 84.8717 19.0834 84.3985 19.0834 83.4375C19.2547 82.8237 19.4792 82.3659 19.7865 81.7969C20.5426 81.4188 21.3706 81.5202 22.2018 81.5144C22.403 81.5121 22.6042 81.5097 22.8116 81.5073C23.4786 81.4999 24.1457 81.4941 24.8127 81.4883C25.2745 81.4835 25.7362 81.4786 26.198 81.4736C27.4148 81.4606 28.6316 81.4491 29.8484 81.4378C31.0895 81.426 32.3305 81.4129 33.5716 81.4C36.0078 81.3748 38.444 81.351 40.8802 81.3281C40.8063 80.9538 40.7321 80.5796 40.6578 80.2054C40.6165 79.997 40.5752 79.7886 40.5327 79.5739C40.3451 78.6617 40.1062 77.765 39.8686 76.8649C39.6897 76.091 39.5825 75.3178 39.474 74.5312C39.2417 74.5299 39.0094 74.5285 38.77 74.5271C36.5802 74.5137 34.3904 74.4966 32.2006 74.476C31.0748 74.4655 29.9491 74.4563 28.8233 74.4501C27.7367 74.444 26.6501 74.4345 25.5636 74.4227C25.1492 74.4188 24.7347 74.4161 24.3203 74.4146C23.7395 74.4124 23.1589 74.4058 22.5782 74.3982C22.4071 74.3985 22.236 74.3989 22.0597 74.3992C21.0303 74.3802 20.3715 74.2259 19.5521 73.5937C19.1081 72.8672 19.0826 72.4435 19.1127 71.5869C19.3393 70.6966 19.5169 70.377 20.2552 69.8437C21.2272 69.5799 22.1949 69.5696 23.1953 69.5612C23.3692 69.5589 23.5431 69.5566 23.7223 69.5542C24.2942 69.5468 24.8661 69.541 25.438 69.5352C25.8357 69.5304 26.2334 69.5255 26.6311 69.5205C27.6756 69.5075 28.7202 69.496 29.7648 69.4846C30.8315 69.4728 31.8983 69.4598 32.965 69.4469C35.0566 69.4217 37.1481 69.3979 39.2396 69.375C39.2526 69.2428 39.2656 69.1106 39.2789 68.9745C39.3388 68.3658 39.3991 67.7571 39.4593 67.1484C39.4899 66.8366 39.4899 66.8366 39.5211 66.5186C39.5517 66.2104 39.5517 66.2104 39.5829 65.896C39.6013 65.7094 39.6198 65.5229 39.6387 65.3307C39.7298 64.4899 39.8363 63.6515 39.9427 62.8125C39.7046 62.8111 39.4664 62.8097 39.221 62.8083C36.976 62.7949 34.731 62.7779 32.486 62.7573C31.3319 62.7468 30.1777 62.7376 29.0235 62.7313C27.9096 62.7252 26.7957 62.7157 25.6818 62.7039C25.2569 62.7 24.832 62.6973 24.4071 62.6959C23.8117 62.6936 23.2166 62.687 22.6212 62.6795C22.358 62.68 22.358 62.68 22.0894 62.6805C21.0496 62.6618 20.3791 62.5165 19.5521 61.875C19.1081 61.1484 19.0826 60.7247 19.1127 59.8682C19.3363 58.9896 19.5532 58.6781 20.2552 58.125C21.0113 57.7469 21.8394 57.8484 22.6705 57.8425C22.8717 57.8402 23.073 57.8379 23.2803 57.8355C23.9474 57.828 24.6144 57.8222 25.2815 57.8165C25.7432 57.8116 26.205 57.8067 26.6667 57.8017C27.8835 57.7887 29.1003 57.7772 30.3171 57.7659C31.5582 57.7541 32.7993 57.7411 34.0403 57.7281C36.4765 57.7029 38.9128 57.6791 41.349 57.6562C41.5488 57.2697 41.5488 57.2697 41.7527 56.8753C42.7879 54.8879 43.8483 52.9558 45.099 51.0937C44.8002 51.0924 44.5014 51.091 44.1936 51.0896C41.3761 51.0762 38.5587 51.0591 35.7413 51.0385C34.2929 51.028 32.8445 51.0188 31.3961 51.0125C29.998 51.0064 28.5999 50.997 27.2018 50.9852C26.6688 50.9813 26.1357 50.9786 25.6026 50.9771C24.8552 50.9749 24.108 50.9683 23.3606 50.9607C23.1408 50.961 22.921 50.9614 22.6945 50.9617C21.3948 50.9431 20.4656 50.7819 19.3177 50.1562C18.8258 49.4389 18.8235 48.8581 18.8929 48.0176C19.1425 46.8273 19.1425 46.8273 19.7865 46.4062C20.4889 46.1721 20.9418 46.1448 21.6748 46.149C22.0423 46.1501 22.0423 46.1501 22.4173 46.1513C22.6862 46.1532 22.955 46.1552 23.232 46.1572C23.8192 46.1594 24.4064 46.1616 24.9936 46.1637C25.309 46.1652 25.6245 46.1667 25.9399 46.1682C26.9174 46.1724 27.895 46.1728 28.8725 46.1723C29.0377 46.1722 29.2029 46.1721 29.3732 46.172C29.8821 46.1717 30.3911 46.1713 30.9001 46.171C33.0043 46.1694 35.1083 46.1705 37.2125 46.1839C38.7477 46.1936 40.2827 46.1959 41.8179 46.1895C42.6291 46.1864 43.44 46.187 44.2511 46.1968C48.7305 46.3569 48.7305 46.3569 52.5441 44.3403C52.7169 44.1713 52.8897 44.0023 53.0677 43.8281C53.382 43.6154 53.7012 43.4094 54.029 43.2184C54.1654 43.1384 54.3017 43.0584 54.4422 42.9759C61.4758 39.0251 69.5939 38.0594 77.4427 39.8437C77.6748 39.8437 77.9068 39.8437 78.1459 39.8437C78.1697 38.2092 78.1861 36.5747 78.1974 34.9399C78.2021 34.3844 78.2084 33.8288 78.2166 33.2732C78.228 32.4727 78.2333 31.6722 78.2374 30.8716C78.2423 30.6249 78.2471 30.3783 78.2521 30.1241C78.2526 28.343 77.9541 27.1188 76.7643 25.7327C76.616 25.6085 76.4676 25.4844 76.3148 25.3564C76.1683 25.2292 76.0217 25.1021 75.8708 24.971C74.5492 24.0817 73.4207 23.8019 71.8406 23.8376C71.6713 23.8386 71.5019 23.8396 71.3274 23.8406C70.7925 23.8445 70.2578 23.8533 69.723 23.8623C69.3579 23.8658 68.9927 23.869 68.6276 23.8719C67.7378 23.8796 66.8481 23.8917 65.9584 23.9062C65.9523 24.2005 65.9463 24.4948 65.94 24.798C65.7839 29.9939 65.7839 29.9939 63.849 31.875C61.6482 33.555 59.44 33.5854 56.7606 33.58C56.4247 33.581 56.0888 33.5822 55.7529 33.5836C54.8449 33.5867 53.937 33.5869 53.029 33.5863C52.2689 33.5861 51.5089 33.5872 50.7489 33.5883C48.9547 33.5909 47.1605 33.591 45.3663 33.5896C43.52 33.5882 41.6737 33.5911 39.8274 33.5961C38.238 33.6002 36.6486 33.6016 35.0591 33.6008C34.1117 33.6004 33.1643 33.601 32.2169 33.6043C31.3254 33.6073 30.434 33.6068 29.5425 33.6037C29.217 33.6032 28.8914 33.6038 28.5658 33.6057C26.1652 33.6191 23.9822 33.5533 22.1302 31.875C21.9755 31.875 21.8209 31.875 21.6615 31.875C21.594 31.7374 21.5266 31.5998 21.4571 31.458C21.2977 31.1441 21.1313 30.8336 20.9522 30.5305C20.1836 29.1788 20.0589 27.9007 19.9623 26.3672C19.9441 26.1297 19.926 25.8922 19.9073 25.6476C19.8635 25.0673 19.8233 24.487 19.7865 23.9062C18.757 23.8829 17.7277 23.866 16.698 23.8547C16.3486 23.8501 15.9993 23.8437 15.65 23.8355C12.7905 23.7683 12.7905 23.7683 10.1771 24.8437ZM53.3021 49.4531C53.1317 49.5876 52.9613 49.722 52.7858 49.8605C47.6983 54.0567 44.6171 60.8994 43.9839 67.3608C43.5129 74.349 45.5638 81.1089 50.106 86.4835C50.3099 86.7158 50.5139 86.9481 50.724 87.1875C50.9755 87.4744 50.9755 87.4744 51.2321 87.767C55.4429 92.2464 61.7436 95.2518 67.8984 95.4694C75.1048 95.5677 81.194 93.9426 86.8177 89.2969C86.9561 89.1899 87.0945 89.083 87.237 88.9728C88.5461 87.9267 89.5483 86.6336 90.5677 85.3125C90.7106 85.1291 90.8535 84.9457 91.0008 84.7568C95.0483 79.2894 96.653 72.1985 95.6782 65.4996C94.9063 60.9039 93.007 56.441 89.8646 52.9687C89.7096 52.7808 89.5546 52.5929 89.3949 52.3993C85.1847 47.4214 78.9928 44.2856 72.5795 43.418C72.2478 43.3928 71.9157 43.3736 71.5834 43.3594C71.3728 43.3473 71.1622 43.3352 70.9452 43.3227C64.4076 43.1244 58.3368 45.3643 53.3021 49.4531ZM95.724 86.7187C95.4288 87.1136 95.1349 87.5094 94.8466 87.9093C92.5551 91.0794 90.0652 93.4536 86.8177 95.625C87.7061 96.6844 88.6216 97.6989 89.598 98.6774C89.7274 98.808 89.8568 98.9386 89.9902 99.0731C90.4131 99.4994 90.8368 99.9248 91.2608 100.35C91.4068 100.497 91.5529 100.643 91.7034 100.795C92.4756 101.57 93.2486 102.345 94.0221 103.12C94.8164 103.916 95.6085 104.713 96.4001 105.512C97.0136 106.13 97.6287 106.746 98.2443 107.362C98.5368 107.655 98.8288 107.949 99.1202 108.243C102.252 111.515 102.252 111.515 106.447 112.822C108.3 112.778 109.945 112.067 111.302 110.807C112.496 109.425 113.185 107.844 113.124 106.006C112.799 102.92 110.608 101.152 108.509 99.1013C108.148 98.7427 107.788 98.3838 107.427 98.0246C106.483 97.085 105.533 96.1505 104.583 95.2169C103.804 94.4507 103.029 93.6808 102.255 92.9108C100.658 91.3243 99.0597 89.74 97.4546 88.1624C97.3057 88.0152 97.1568 87.868 97.0034 87.7164C96.4492 87.0384 96.4492 87.0384 95.724 86.7187Z" fill="white"/>
<path d="M85.88 58.3593C86.9526 59.0982 86.9526 59.0982 87.2863 59.7656C87.5016 61.3268 87.5016 61.3268 86.9842 62.0808C86.8508 62.2249 86.7174 62.369 86.58 62.5175C86.4303 62.6804 86.2806 62.8433 86.1264 63.0112C85.8884 63.2609 85.8884 63.2609 85.6456 63.5156C85.4198 63.7527 85.4198 63.7527 85.1893 63.9947C84.6977 64.5036 84.2013 65.0076 83.7034 65.5105C83.5164 65.7001 83.3295 65.8897 83.1368 66.0851C81.4283 67.8163 79.7145 69.5423 77.9989 71.2666C76.7336 72.5383 75.4712 73.8128 74.2122 75.0908C73.2158 76.102 72.2148 77.1086 71.2122 78.1138C70.7878 78.5406 70.3648 78.9689 69.9432 79.3986C69.3543 79.9984 68.7604 80.5927 68.1651 81.1861C67.9925 81.3642 67.8199 81.5424 67.6421 81.7259C66.8816 82.4743 66.2781 83.0511 65.205 83.2413C63.7475 83.1786 63.0661 82.4792 62.0697 81.4809C61.864 81.276 61.6584 81.0711 61.4466 80.86C61.2255 80.6374 61.0045 80.4147 60.7836 80.1919C60.5547 79.9628 60.3257 79.7337 60.0967 79.5047C59.6184 79.0261 59.141 78.5467 58.6641 78.0667C58.0524 77.451 57.4392 76.8369 56.8254 76.2233C56.3533 75.7511 55.8817 75.2782 55.4104 74.8052C55.1844 74.5784 54.9582 74.3518 54.7319 74.1254C54.4166 73.8096 54.1022 73.4929 53.7878 73.1762C53.6086 72.9961 53.4295 72.8161 53.2449 72.6306C52.5625 71.8962 52.5183 71.32 52.5328 70.3207C52.6386 69.5556 52.9782 69.1847 53.5363 68.6718C54.1898 68.2935 54.6136 68.2052 55.3673 68.1884C57.7402 68.9794 59.7699 71.8328 61.505 73.5791C61.8239 73.8991 62.1428 74.2191 62.4617 74.539C63.2372 75.317 64.0119 76.0958 64.7863 76.875C65.9639 75.8893 67.0651 74.86 68.1436 73.7674C68.3066 73.6034 68.4695 73.4394 68.6374 73.2703C68.9884 72.9169 69.3392 72.5631 69.6897 72.2092C70.2447 71.649 70.8006 71.0898 71.3569 70.5308C72.9373 68.9425 74.5168 67.3533 76.0938 65.7616C77.0607 64.7859 78.0293 63.8119 78.999 62.839C79.3676 62.4685 79.7356 62.0973 80.1029 61.7255C80.6156 61.2066 81.1304 60.6899 81.6458 60.1737C81.8723 59.9428 81.8723 59.9428 82.1034 59.7073C83.2804 58.5355 84.168 57.86 85.88 58.3593Z" fill="white"/>
</svg>
