<svg width="121" height="120" viewBox="0 0 121 120" fill="none" xmlns="http://www.w3.org/2000/svg">
<path d="M32.1179 49.2558C32.7965 49.6345 33.4552 50.0349 34.1126 50.4492C34.3383 50.5867 34.564 50.7242 34.7965 50.8658C35.4219 51.2486 36.0424 51.6383 36.6615 52.0313C36.812 52.1244 36.9626 52.2176 37.1177 52.3136C37.8978 52.8082 38.3465 53.2333 38.6793 54.1214C38.8575 55.0714 38.6942 56.0086 38.5365 56.9531C42.1027 58.5838 45.2016 58.7667 49.0723 58.4134C52.2895 58.1701 52.2895 58.1701 53.7617 58.6697C54.3219 58.8189 54.5902 58.879 55.1272 58.6476C55.5526 58.3408 55.934 58.0117 56.3197 57.6563C56.6045 57.4139 56.8902 57.1725 57.1766 56.9321C57.3147 56.8143 57.4527 56.6965 57.595 56.5751C60.3832 54.2778 63.4288 54.0992 66.8958 54.375C68.6595 54.6126 70.3919 55.0185 72.1253 55.415C77.3748 56.6316 77.3748 56.6316 82.7308 56.5137C83.0308 56.4708 83.3308 56.4279 83.6399 56.3837C84.3872 56.2639 85.134 56.1421 85.8802 56.0156C85.8415 55.8996 85.8029 55.7836 85.763 55.6641C85.5446 54.5719 85.5008 53.602 85.8802 52.5586C87.0452 51.248 89.2068 50.6477 90.8021 49.9805C91.1347 49.8359 91.1347 49.8359 91.4741 49.6884C92.7929 49.1386 93.8259 48.7603 95.2552 48.9844C96.8671 49.8654 97.3263 51.4503 97.9945 53.0859C98.1239 53.3946 98.2537 53.7031 98.3839 54.0115C98.6715 54.6945 98.9568 55.3785 99.2406 56.0631C99.7347 57.2536 100.237 58.4407 100.74 59.6274C101.49 61.3972 102.238 63.1678 102.984 64.9393C104.097 67.5817 105.212 70.2233 106.327 72.8646C106.617 73.5506 106.906 74.2366 107.196 74.9227C107.373 75.3434 107.551 75.764 107.728 76.1847C107.808 76.3734 107.888 76.5622 107.97 76.7566C108.045 76.934 108.119 77.1114 108.197 77.2942C108.302 77.5444 108.302 77.5444 108.41 77.7997C108.546 78.1194 108.683 78.4385 108.822 78.7569C109.322 79.8999 109.437 80.5604 109.318 81.7969C108.452 83.7457 106.413 84.2576 104.572 85.0195C104.29 85.1413 104.008 85.2631 103.717 85.3885C101.096 86.4732 101.096 86.4732 99.474 86.0156C98.7855 85.6055 98.7855 85.6055 98.3021 85.0781C98.1547 84.4592 98.1547 84.4592 98.0677 83.9063C96.2536 84.7538 95.3448 85.7345 94.3031 87.4274C93.35 88.8915 92.0828 90.0717 90.5677 90.9375C90.413 90.9375 90.2583 90.9375 90.099 90.9375C90.2005 91.1088 90.2005 91.1088 90.304 91.2836C91.2497 93.0896 91.4246 95.0487 90.8295 97.0102C90.0702 98.6772 88.8403 99.9919 87.1088 100.674C85.8639 100.928 84.5653 100.829 83.3021 100.781C83.2924 101.047 83.2827 101.313 83.2728 101.587C83.0887 103.029 82.3065 104.157 81.2614 105.143C79.615 106.406 77.8185 106.544 75.8021 106.406C75.5701 106.329 75.338 106.252 75.099 106.172C75.0686 106.372 75.0686 106.372 75.0376 106.576C74.7399 108.212 74.2697 109.339 72.8935 110.327C71.5041 111.189 70.5128 111.596 68.8734 111.592C68.6507 111.592 68.428 111.593 68.1986 111.594C67.599 111.563 67.599 111.563 66.8958 111.328C66.839 111.501 66.7822 111.673 66.7237 111.851C65.9783 114.021 65.1794 115.164 63.1458 116.25C61.6473 116.75 59.6673 116.783 58.1965 116.19C57.9832 116.074 57.7699 115.959 57.5501 115.84C56.7297 115.375 56.7297 115.375 55.8372 115.443C55.4982 115.623 55.1617 115.807 54.8273 115.995C53.4204 116.605 51.7205 116.481 50.2763 116.043C48.6023 115.281 47.6265 114.218 46.7689 112.617C46.4898 111.749 46.4497 111.062 46.5052 110.156C46.3463 110.17 46.1874 110.183 46.0236 110.197C44.0867 110.291 42.6207 109.906 41.1494 108.599C40.123 107.479 39.5033 106.32 39.43 104.78C39.4445 104.543 39.459 104.307 39.474 104.063C39.3265 104.071 39.1791 104.079 39.0272 104.087C37.21 104.145 35.9804 103.875 34.4935 102.817C33.0867 101.443 32.648 100.075 32.2083 98.2031C31.9908 98.2225 31.7733 98.2418 31.5492 98.2617C29.7899 98.2475 28.2033 97.5751 26.9349 96.3721C25.4197 94.6706 25.2727 93.3274 25.3345 91.0721C25.5212 89.0391 26.7474 87.8171 28.0576 86.3414C28.7132 85.6913 28.7132 85.6913 28.9271 84.8438C27.1218 83.3876 24.9828 82.5888 22.8333 81.7969C22.7654 81.9748 22.6974 82.1528 22.6273 82.3361C22.1845 83.4023 21.6889 84.2004 20.724 84.8438C18.6211 85.3055 17.094 84.2619 15.3773 83.1738C15.1182 83.0179 14.8591 82.862 14.5922 82.7014C12.0278 81.121 12.0278 81.121 11.349 79.9219C10.8574 77.7099 12.3041 75.965 13.429 74.165C13.6379 73.8233 13.8463 73.4814 14.0543 73.1392C14.6312 72.1934 15.215 71.252 15.8021 70.3125C15.9053 70.1472 16.0085 69.9818 16.1148 69.8114C16.5733 69.0771 17.0331 68.3437 17.4967 67.6126C18.4701 66.0551 19.3937 64.4666 20.3284 62.8858C21.8439 60.3233 23.3779 57.7751 24.9555 55.2503C25.4367 54.48 25.9107 53.706 26.3801 52.9285C26.4982 52.7331 26.6163 52.5378 26.7381 52.3365C26.9598 51.969 27.1808 51.6011 27.4009 51.2326C27.4991 51.0701 27.5973 50.9077 27.6984 50.7404C27.7834 50.5986 27.8683 50.4569 27.9558 50.3109C28.9625 48.8505 30.5118 48.5443 32.1179 49.2558ZM30.5677 52.2656C29.3739 53.8986 28.3241 55.5893 27.3154 57.3418C26.8809 58.0961 26.4425 58.8481 26.0038 59.5999C25.9146 59.7527 25.8255 59.9055 25.7336 60.0629C24.8774 61.5258 23.9909 62.9691 23.097 64.4092C21.4667 67.0362 19.8838 69.6892 18.3176 72.3549C18.1411 72.6544 17.9646 72.9538 17.7879 73.2532C17.7026 73.3979 17.6173 73.5426 17.5294 73.6917C16.8134 74.8966 16.0565 76.0732 15.2721 77.2347C14.7389 78.0369 14.7389 78.0369 14.6302 78.9844C15.0719 79.3474 15.0719 79.3474 15.6556 79.6683C15.8671 79.7929 16.0786 79.9175 16.2965 80.0459C16.6318 80.2383 16.6318 80.2383 16.974 80.4346C17.1975 80.5656 17.4211 80.6965 17.6514 80.8315C18.2056 81.1556 18.761 81.4773 19.3177 81.7969C20.0087 80.9704 20.5733 80.1296 21.1112 79.1968C21.2294 78.9932 21.2294 78.9932 21.3499 78.7855C21.5183 78.4952 21.6864 78.2047 21.854 77.914C22.3005 77.1406 22.7503 76.3691 23.2005 75.5978C23.2902 75.4441 23.38 75.2903 23.4724 75.1318C24.2058 73.8787 24.9625 72.6414 25.7337 71.4111C27.1277 69.1854 28.466 66.9283 29.8019 64.6674C31.1302 62.42 32.4759 60.1857 33.8677 57.9767C34.462 57.0297 35.0115 56.0891 35.4896 55.0781C34.8897 54.6961 34.289 54.3154 33.6878 53.9356C33.5188 53.8277 33.3497 53.7198 33.1756 53.6087C32.9275 53.4524 32.9275 53.4524 32.6743 53.2929C32.5234 53.1971 32.3724 53.1014 32.2169 53.0027C31.6834 52.7028 31.1396 52.4819 30.5677 52.2656ZM92.3374 52.6758C92.1388 52.7604 91.9401 52.845 91.7355 52.9321C91.529 53.0216 91.3225 53.111 91.1097 53.2031C90.9005 53.2926 90.6913 53.382 90.4757 53.4741C89.959 53.6952 89.4428 53.9174 88.9271 54.1406C89.0687 55.4479 89.5338 56.5305 90.0532 57.7231C90.1906 58.044 90.1906 58.044 90.3309 58.3713C90.6331 59.076 90.9373 59.7797 91.2415 60.4834C91.4532 60.9762 91.6646 61.4691 91.8759 61.962C92.2034 62.7262 92.531 63.4903 92.8591 64.2541C93.8951 66.666 94.9188 69.0829 95.9388 71.5016C96.2198 72.1677 96.5014 72.8335 96.7831 73.4993C97.558 75.3324 98.3298 77.1662 99.0766 79.0109C99.1863 79.2803 99.2959 79.5497 99.4088 79.8272C99.6008 80.3009 99.7906 80.7755 99.9776 81.2512C100.058 81.4494 100.138 81.6476 100.221 81.8518C100.287 82.0191 100.353 82.1864 100.422 82.3588C100.64 82.8174 100.64 82.8174 101.349 82.9688C101.902 82.8058 101.902 82.8058 102.494 82.5302C102.824 82.3863 102.824 82.3863 103.16 82.2395C103.504 82.0857 103.504 82.0857 103.854 81.9287C104.085 81.8271 104.317 81.7254 104.556 81.6206C105.128 81.3689 105.7 81.1151 106.271 80.8594C105.561 79.1511 104.849 77.4435 104.136 75.7362C103.993 75.3928 103.85 75.0494 103.707 74.7061C101.642 69.7543 99.5672 64.8067 97.4705 59.8684C97.2648 59.3837 97.0592 58.899 96.8539 58.4142C96.5664 57.7356 96.278 57.0573 95.9895 56.3791C95.9052 56.1798 95.8209 55.9805 95.734 55.7752C95.2248 54.5818 94.6745 53.4207 94.0833 52.2656C93.3509 52.2656 93.0009 52.3908 92.3374 52.6758ZM60.099 58.5938C59.8696 58.7563 59.6403 58.9188 59.4041 59.0863C57.8045 60.2605 56.306 61.559 54.8176 62.8695C54.1535 63.4539 53.4891 64.0304 52.7903 64.5731C51.2345 65.7827 49.9542 66.9969 49.3177 68.9063C49.2883 69.51 49.2732 70.1042 49.2738 70.708C49.2736 70.8839 49.2735 71.0597 49.2733 71.2409C49.2861 72.632 49.4279 73.9818 49.6176 75.3583C49.9066 77.4678 49.7536 79.2458 49.3177 81.3281C51.2763 81.2448 52.6499 80.198 53.9613 78.794C55.3523 77.0833 55.6897 75.6166 55.8042 73.4409C56 71.4193 56.6632 69.5511 58.224 68.2031C59.491 67.268 60.9309 67.328 62.4427 67.5C63.923 67.8937 64.9536 68.9584 66.0462 69.9811C66.648 70.5345 67.2681 71.0472 67.9066 71.5576C69.1854 72.5919 70.3848 73.698 71.587 74.8187C72.6693 75.8276 73.7882 76.7914 74.914 77.7512C76.4481 79.0601 77.9631 80.3826 79.4505 81.7447C80.5011 82.7043 81.5766 83.634 82.6585 84.5581C82.9414 84.7998 83.2243 85.0415 83.5072 85.2832C83.6479 85.4035 83.7887 85.5238 83.9337 85.6477C85.1479 86.6879 86.3398 87.7505 87.5208 88.8281C89.9116 88.1041 91.1597 86.6381 92.5201 84.6423C93.6213 83.0447 94.8617 81.8586 96.6615 81.0938C96.1857 79.5851 95.6221 78.134 94.9961 76.6818C94.8567 76.3553 94.8567 76.3553 94.7144 76.0223C94.4121 75.3149 94.1086 74.6081 93.805 73.9014C93.3813 72.9137 92.9581 71.9258 92.5352 70.9378C92.4289 70.6896 92.3226 70.4414 92.213 70.1857C91.5154 68.5527 90.8329 66.9141 90.1603 65.2707C89.9894 64.8554 89.8184 64.4401 89.6473 64.0248C89.4051 63.4367 89.164 62.8481 88.9268 62.2579C88.7103 61.7194 88.4896 61.1828 88.2679 60.6464C88.1744 60.4084 88.1744 60.4084 88.0791 60.1657C87.7499 59.3584 87.7499 59.3584 87.0922 58.8258C86.4177 58.8289 85.8453 58.9781 85.1945 59.1559C83.5946 59.5458 82.0892 59.6752 80.4456 59.6777C80.159 59.6785 79.8723 59.6792 79.577 59.6799C76.1673 59.617 72.9019 58.8555 69.594 58.0827C66.4064 57.3389 62.9506 56.5706 60.099 58.5938ZM36.4271 59.5313C33.2282 64.5928 30.1515 69.7296 27.1094 74.8865C27.0186 75.0401 26.9278 75.1937 26.8342 75.352C26.5884 75.7677 26.3431 76.1837 26.0978 76.5998C25.7857 77.1135 25.4584 77.6181 25.1192 78.1143C24.6659 78.6895 24.6659 78.6895 24.7083 79.2188C24.9934 79.3171 24.9934 79.3171 25.2842 79.4174C27.378 80.1755 29.4932 81.07 31.0365 82.7344C31.7722 82.5539 31.7722 82.5539 32.223 81.958C33.4148 80.8676 34.8129 80.3472 36.4271 80.2734C38.2529 80.3679 39.6906 80.9641 40.9827 82.2656C41.9712 83.4617 42.2758 84.7418 42.5208 86.25C42.6797 86.2533 42.8387 86.2567 43.0024 86.2601C44.8832 86.3565 46.4616 86.7666 47.8849 88.0573C49.4553 89.7988 49.5764 91.7142 49.5521 93.9844C49.7388 94.0554 49.9255 94.1264 50.1179 94.1995C52.195 95.0208 53.5538 95.663 54.5298 97.7426C55.314 99.7655 54.9389 101.6 54.2396 103.594C54.3952 103.648 54.5508 103.702 54.7111 103.758C56.6001 104.455 57.6828 105.333 58.6927 107.109C59.3654 109.031 59.2058 110.841 58.4583 112.734C59.3662 113.437 60.1058 113.563 61.2205 113.518C62.0641 113.387 62.5254 113.076 63.1458 112.5C63.7298 111.569 63.9256 110.878 63.7611 109.805C63.3726 108.401 62.3974 107.614 61.2754 106.753C60.1396 105.866 60.1396 105.866 59.8792 104.824C59.8713 104.414 59.8646 104.004 59.8646 103.594C60.828 103.363 61.3114 103.247 62.1873 103.754C62.8864 104.278 63.5204 104.826 64.1566 105.425C66.3504 107.652 66.3504 107.652 69.2066 108.579C70.3251 108.438 71.0681 107.904 71.8031 107.051C72.1291 106.207 72.2544 105.412 72.0521 104.531C71.3945 103.369 70.5553 102.531 69.5765 101.646C69.4322 101.513 69.288 101.381 69.1393 101.244C68.2567 100.441 67.3545 99.6715 66.4271 98.9209C66.0362 98.6039 65.6455 98.2866 65.2552 97.9688C65.0996 97.8422 64.944 97.7156 64.7837 97.5852C64.077 96.9575 63.8586 96.635 63.7318 95.6836C63.849 94.9219 63.849 94.9219 64.3177 94.4531C65.2976 94.2879 65.6552 94.4054 66.4802 94.9777C66.7489 95.2143 67.0142 95.4548 67.2767 95.6983C67.4191 95.8252 67.5615 95.9522 67.7082 96.0831C68.1441 96.4735 68.5752 96.8687 69.0052 97.2656C69.1318 97.3819 69.2585 97.4981 69.3889 97.6179C69.9741 98.1551 70.558 98.6936 71.1411 99.2331C72.0138 100.021 72.9164 100.765 73.8355 101.497C74.2905 101.867 74.7063 102.251 75.1283 102.656C76.0381 103.289 76.8124 103.424 77.9115 103.359C78.8341 103.063 79.2339 102.751 79.8743 102.026C80.3719 101.012 80.3799 100.497 80.2552 99.375C79.3915 97.2919 76.9618 95.7092 75.2866 94.2838C73.6884 92.922 72.1176 91.5395 70.5762 90.1135C69.8699 89.4643 69.1511 88.8314 68.4248 88.2047C67.604 87.4828 67.604 87.4828 67.5404 86.7188C67.599 86.0156 67.599 86.0156 68.0677 85.5469C68.7647 85.3872 69.0405 85.3465 69.7083 85.5469C70.3325 86.0076 70.8723 86.5188 71.4295 87.0584C72.024 87.6293 72.637 88.1407 73.2826 88.6524C74.4713 89.6127 75.5812 90.6398 76.6929 91.6865C77.7132 92.6418 78.771 93.533 79.8634 94.4055C80.7785 95.1601 81.6393 95.9686 82.5028 96.7813C83.5004 97.6366 84.2709 97.8639 85.5698 97.8424C86.5217 97.6536 87.132 97.0441 87.7552 96.3281C88.2013 95.4359 88.1577 94.4832 87.9896 93.5156C87.5596 92.7624 86.9864 92.2224 86.349 91.6406C86.0693 91.3796 86.0693 91.3796 85.7841 91.1133C85.1983 90.5773 84.6039 90.0528 84.0052 89.5313C83.8563 89.3995 83.7073 89.2678 83.5539 89.1321C82.8334 88.4965 82.106 87.8693 81.3749 87.2461C79.8414 85.9384 78.3276 84.6166 76.8412 83.2553C75.7934 82.2983 74.7213 81.3707 73.6414 80.4501C72.1077 79.142 70.5935 77.82 69.1068 76.4584C67.7613 75.2295 66.3742 74.0481 64.9915 72.8613C64.8541 72.7434 64.7167 72.6255 64.5751 72.5039C64.3074 72.2746 64.0392 72.0458 63.7704 71.8177C63.5101 71.5954 63.252 71.3705 62.996 71.1433C62.3453 70.5751 62.0068 70.3188 61.139 70.1514C60.2651 70.3262 59.9493 70.5728 59.4059 71.2738C58.8149 72.3495 58.644 73.3618 58.6048 74.5752C58.403 77.5356 57.1533 79.9608 54.9866 81.9873C52.9837 83.6236 50.6695 84.5242 48.0726 84.3164C47.2566 84.2098 46.5445 84.0431 45.8021 83.6719C45.7203 82.5481 45.7442 81.8117 46.2562 80.8008C47.2172 78.7933 46.9939 76.7952 46.6872 74.6478C46.2035 71.0736 46.0552 67.6459 48.2923 64.6436C49.162 63.6164 50.1394 62.7961 51.2147 61.9913C51.3621 61.8756 51.5095 61.7599 51.6615 61.6406C51.6615 61.5633 51.6615 61.4859 51.6615 61.4063C51.2069 61.4316 51.2069 61.4316 50.7432 61.4575C45.5107 61.7415 41.3491 61.5148 36.4271 59.5313ZM30.337 88.4793C29.9502 88.9568 29.5585 89.4286 29.1615 89.8975C28.4279 90.7915 28.3761 91.3734 28.3942 92.5031C28.496 93.3669 28.8099 93.8222 29.3958 94.4531C30.2548 94.9556 30.8486 95.1494 31.8421 95.1856C34.7693 94.2612 37.4115 90.2628 39.2396 87.8906C39.647 87.0758 39.5804 86.2034 39.474 85.3125C38.9189 84.1598 38.3318 83.6357 37.1302 83.2031C34.0608 82.746 31.9958 86.429 30.337 88.4793ZM37.3682 94.5731C36.9815 95.0505 36.5897 95.5223 36.1927 95.9912C35.4318 96.9186 35.4096 97.4722 35.4896 98.6719C35.9145 99.8759 36.4522 100.453 37.599 101.016C38.4809 101.17 39.2383 101.113 40.0745 100.767C41.5409 99.6011 42.6927 98.2022 43.8612 96.7456C44.5072 95.9579 45.191 95.2113 45.8891 94.4696C46.4315 93.7802 46.739 93.173 46.7405 92.2861C46.4943 91.0638 46.1255 90.2963 45.1136 89.5395C41.7406 87.8466 39.1419 92.3808 37.3682 94.5731ZM46.3074 98.3441C46.0969 98.5776 45.8894 98.8139 45.6849 99.0527C45.5753 99.1766 45.4656 99.3004 45.3527 99.428C43.2173 101.666 43.2173 101.666 42.454 104.508C42.5876 105.491 43.1682 106.15 43.8905 106.788C44.7997 107.366 45.7052 107.321 46.7396 107.109C47.4939 106.68 48.0307 106.105 48.6146 105.469C48.814 105.26 49.0134 105.051 49.2188 104.835C51.269 102.751 51.269 102.751 52.1531 100.067C52.101 99.0262 51.603 98.3839 50.8997 97.6611C49.1929 96.6138 47.6983 97.0717 46.3074 98.3441ZM50.7816 107.505C49.883 108.544 49.4671 109.173 49.4852 110.602C49.6188 111.585 50.1994 112.244 50.9217 112.882C51.8296 113.459 52.7383 113.418 53.7708 113.203C54.7974 112.618 55.5916 111.804 56.1439 110.757C56.4006 109.711 56.332 109.02 55.8802 108.047C55.1965 107.197 54.5867 106.71 53.5365 106.406C52.4354 106.406 51.5695 106.747 50.7816 107.505Z" fill="white"/>
<path d="M68.3316 10.5091C68.5311 10.5069 68.7306 10.5046 68.9361 10.5023C69.2598 10.5008 69.2598 10.5008 69.5901 10.4993C69.8115 10.4979 70.0328 10.4966 70.2609 10.4952C70.7296 10.493 71.1983 10.4915 71.667 10.4906C72.3852 10.4883 73.1031 10.481 73.8212 10.4736C74.2761 10.4721 74.7309 10.4709 75.1858 10.47C75.4011 10.4671 75.6165 10.4642 75.8384 10.4612C76.0386 10.4619 76.2388 10.4626 76.445 10.4633C76.6211 10.4625 76.7972 10.4616 76.9786 10.4608C77.5775 10.5719 77.7841 10.7663 78.1457 11.25C78.2368 12.1791 78.1476 12.9214 77.8674 13.7988C77.5586 14.9429 77.8216 15.8483 78.3801 16.875C79.1259 17.7762 80.0517 18.2828 81.1926 18.5156C82.4582 18.4696 83.5074 18.167 84.4738 17.3438C85.2522 16.378 85.4814 15.5105 85.3674 14.2822C85.2667 13.5852 85.1312 12.9068 84.9865 12.2168C84.9426 11.4844 84.9426 11.4844 85.2442 10.9771C86.2645 10.2868 87.3067 10.4179 88.5104 10.4306C88.8961 10.4301 88.8961 10.4301 89.2895 10.4296C89.8327 10.43 90.3758 10.4327 90.919 10.4375C91.7518 10.4443 92.5843 10.4424 93.4172 10.4393C93.9446 10.4408 94.4721 10.4427 94.9996 10.4453C95.3743 10.4442 95.3743 10.4442 95.7565 10.4432C96.1038 10.4476 96.1038 10.4476 96.4581 10.4522C96.6619 10.4535 96.8657 10.4547 97.0757 10.456C97.7143 10.5669 97.9146 10.7384 98.3019 11.25C98.5343 11.9471 98.5668 12.4056 98.5692 13.1331C98.5706 13.3769 98.5719 13.6207 98.5733 13.8719C98.5737 14.273 98.5737 14.273 98.5741 14.6822C98.5753 14.9639 98.5764 15.2456 98.5776 15.5358C98.5805 16.3087 98.5822 17.0815 98.5832 17.8544C98.5839 18.3374 98.5849 18.8203 98.5859 19.3033C98.5891 20.8146 98.5914 22.3259 98.5923 23.8372C98.5934 25.5814 98.5975 27.3254 98.6043 29.0696C98.6093 30.4181 98.6117 31.7666 98.612 33.1152C98.6123 33.9205 98.6136 34.7257 98.6178 35.531C98.6224 36.4293 98.6214 37.3276 98.6199 38.2259C98.622 38.4923 98.6242 38.7588 98.6264 39.0333C98.6245 39.401 98.6245 39.401 98.6225 39.7761C98.6228 39.9884 98.6231 40.2008 98.6235 40.4195C98.507 41.2165 98.1716 41.8491 97.5988 42.4219C97.209 42.4459 96.8181 42.4536 96.4276 42.4548C96.1739 42.4561 95.9201 42.4575 95.6588 42.4589C95.2376 42.4592 95.2376 42.4592 94.808 42.4596C94.5142 42.4608 94.2204 42.462 93.9177 42.4632C93.1094 42.466 92.3012 42.4678 91.493 42.4688C90.9885 42.4695 90.4839 42.4704 89.9794 42.4715C88.402 42.4747 86.8246 42.477 85.2472 42.4779C83.4241 42.4789 81.6011 42.483 79.7781 42.4898C78.3704 42.4949 76.9628 42.4973 75.5551 42.4976C74.7137 42.4978 73.8723 42.4992 73.0309 42.5034C72.0926 42.508 71.1543 42.507 70.216 42.5054C69.9362 42.5076 69.6563 42.5097 69.368 42.512C69.113 42.5107 68.858 42.5094 68.5952 42.508C68.2622 42.5085 68.2622 42.5085 67.9225 42.5091C67.2613 42.4058 67.0641 42.2416 66.6613 41.7188C66.3083 41.0128 66.3984 40.2861 66.4041 39.5123C66.4044 39.3413 66.4047 39.1703 66.4051 38.9941C66.4064 38.4473 66.4093 37.9004 66.4123 37.3535C66.4135 36.983 66.4145 36.6126 66.4155 36.2421C66.4181 35.3333 66.4221 34.4244 66.4269 33.5156C66.2691 33.5031 66.1113 33.4906 65.9488 33.4778C65.7401 33.4594 65.5314 33.4411 65.3164 33.4223C65.1103 33.4049 64.9041 33.3876 64.6917 33.3697C62.9488 33.1164 61.6414 32.0522 60.5676 30.7031C59.4471 28.8865 59.2124 27.1994 59.3957 25.0781C59.8816 23.0351 61.055 21.572 62.6916 20.3027C63.9838 19.5879 64.9589 19.4323 66.4269 19.4531C66.4245 19.2237 66.422 18.9944 66.4195 18.758C66.411 17.9054 66.4056 17.0528 66.4012 16.2002C66.3988 15.8314 66.3956 15.4627 66.3916 15.094C66.3859 14.5634 66.3832 14.0328 66.3812 13.5022C66.3788 13.3379 66.3763 13.1735 66.3738 13.0042C66.3736 12.1504 66.3967 11.4929 66.8957 10.7813C67.431 10.5136 67.7367 10.5145 68.3316 10.5091ZM69.4738 13.5938C69.4651 14.1974 69.4563 14.801 69.4473 15.423C69.4364 16.0063 69.4244 16.5896 69.4123 17.1729C69.4045 17.5789 69.3979 17.985 69.3926 18.391C69.3848 18.974 69.3725 19.5568 69.3594 20.1398C69.3571 20.413 69.3571 20.413 69.3548 20.6917C69.3408 21.2035 69.3408 21.2035 69.2394 22.0313C68.3939 22.595 68.0537 22.5302 67.0568 22.4854C65.465 22.4674 65.465 22.4674 64.0832 23.2031C63.0606 24.2281 62.4819 24.9476 62.384 26.4404C62.4071 27.5898 62.7088 28.3871 63.533 29.2191C64.9507 30.4809 65.954 30.4839 67.8259 30.4312C68.5363 30.4688 68.5363 30.4688 69.2394 30.9375C69.3168 33.7219 69.3941 36.5063 69.4738 39.375C78.059 39.375 86.6441 39.375 95.4894 39.375C95.4894 30.8672 95.4894 22.3594 95.4894 13.5938C93.2465 13.5938 91.0035 13.5938 88.6926 13.5938C88.5379 14.6766 88.3832 15.7594 88.2238 16.875C87.3907 18.8108 86.2329 20.0273 84.4006 21.0645C82.3327 21.6953 80.2597 21.8098 78.2986 20.8145C76.7949 19.8933 75.7839 18.7569 75.0256 17.168C74.775 15.9836 74.7106 14.8013 74.6301 13.5938C72.9285 13.5938 71.2269 13.5938 69.4738 13.5938Z" fill="white"/>
<path d="M42.9021 4.11618C44.7195 5.17269 45.5705 6.36455 46.3499 8.29098C46.5431 9.05463 46.5153 9.76182 46.5056 10.5468C46.7504 10.5432 46.9952 10.5395 47.2474 10.5357C48.1555 10.523 49.0636 10.5149 49.9717 10.5082C50.3648 10.5047 50.7579 10.4999 51.1509 10.4938C51.7158 10.4853 52.2806 10.4813 52.8456 10.4782C53.0214 10.4745 53.1972 10.4709 53.3783 10.4672C54.6004 10.4668 54.6004 10.4668 55.1069 10.8413C55.4851 11.3482 55.4996 11.6158 55.4991 12.2438C55.5005 12.4432 55.502 12.6427 55.5035 12.8482C55.5003 13.1701 55.5003 13.1701 55.497 13.4985C55.4971 13.83 55.4971 13.83 55.4973 14.1683C55.4968 14.6356 55.4945 15.1029 55.4906 15.5702C55.4851 16.2863 55.4858 17.0021 55.4874 17.7182C55.486 18.172 55.4844 18.6258 55.4823 19.0796C55.4825 19.2942 55.4827 19.5088 55.483 19.7299C55.4807 19.9293 55.4785 20.1288 55.4762 20.3343C55.4751 20.5096 55.474 20.685 55.4729 20.8657C55.4118 21.3281 55.4118 21.3281 54.9431 22.0312C53.8784 22.3388 53.3609 22.2 52.3649 21.7968C50.9071 21.6534 49.8041 21.8352 48.6149 22.7343C47.8731 23.6173 47.4661 24.6304 47.4431 25.7812C47.6523 26.9139 47.9608 27.8292 48.8493 28.5937C49.7593 29.2003 50.3724 29.3293 51.4421 29.3261C51.7507 29.327 51.7507 29.327 52.0656 29.328C52.6068 29.3316 52.6068 29.3316 53.0681 29.0625C54.5561 28.9542 54.5561 28.9542 55.1068 29.3448C55.5098 29.9007 55.501 30.2479 55.5028 30.9315C55.505 31.1685 55.5072 31.4055 55.5095 31.6497C55.5074 32.0331 55.5074 32.0331 55.5052 32.4243C55.5062 32.8183 55.5062 32.8183 55.5072 33.2202C55.5077 33.7758 55.5064 34.3314 55.5035 34.8869C55.4997 35.7388 55.5035 36.5904 55.508 37.4423C55.5075 37.9815 55.5066 38.5208 55.5052 39.06C55.5066 39.3156 55.5081 39.5713 55.5095 39.8346C55.5062 40.1901 55.5062 40.1901 55.5028 40.5528C55.5022 40.7615 55.5017 40.9701 55.5011 41.1851C55.39 41.8489 55.2388 42.0156 54.7087 42.4218C54.1526 42.511 54.1526 42.511 53.4826 42.5127C53.2286 42.515 52.9746 42.5173 52.7129 42.5197C52.4342 42.5187 52.1555 42.5176 51.8683 42.5165C51.5748 42.5181 51.2814 42.5198 50.979 42.5214C50.1736 42.525 49.3684 42.5253 48.5631 42.524C47.8909 42.5233 47.2188 42.5247 46.5466 42.5261C44.961 42.5294 43.3753 42.529 41.7896 42.5264C40.1535 42.5237 38.5175 42.527 36.8814 42.5333C35.4769 42.5385 34.0725 42.54 32.668 42.5386C31.829 42.5379 30.9902 42.5384 30.1512 42.5425C29.2158 42.5467 28.2805 42.5435 27.345 42.5394C26.9277 42.5428 26.9277 42.5428 26.5019 42.5463C26.2472 42.544 25.9925 42.5417 25.7301 42.5393C25.509 42.5393 25.2878 42.5392 25.0599 42.5392C24.2794 42.3828 24.0061 42.1206 23.5368 41.4843C23.4188 40.9031 23.4188 40.9031 23.4178 40.239C23.4151 39.9866 23.4125 39.7343 23.4098 39.4743C23.4117 39.1986 23.4136 38.9229 23.4155 38.6389C23.4139 38.3476 23.4122 38.0564 23.4105 37.7563C23.4071 36.9582 23.4079 36.1604 23.4109 35.3623C23.4133 34.5269 23.4111 33.6916 23.4096 32.8562C23.4079 31.4533 23.4101 30.0506 23.4146 28.6477C23.4197 27.0261 23.418 25.4046 23.4129 23.783C23.4086 22.3905 23.408 20.998 23.4105 19.6054C23.4119 18.7738 23.4121 17.9423 23.409 17.1107C23.4058 16.1837 23.4103 15.2568 23.4155 14.3298C23.4136 14.0541 23.4117 13.7784 23.4098 13.4944C23.4124 13.2421 23.415 12.9897 23.4178 12.7297C23.4181 12.5105 23.4185 12.2914 23.4188 12.0656C23.5742 11.3001 23.8631 11.0199 24.4743 10.5468C25.1191 10.465 25.6669 10.437 26.309 10.4553C26.5724 10.4573 26.5724 10.4573 26.841 10.4593C27.3999 10.4645 27.9585 10.4763 28.5173 10.4882C28.8969 10.493 29.2766 10.4972 29.6562 10.5011C30.5853 10.5114 31.5141 10.5276 32.4431 10.5468C32.4397 10.289 32.4363 10.0312 32.4328 9.7655C32.4508 8.25796 33.0636 7.04728 33.8786 5.80075C36.3387 3.44759 39.7628 2.63519 42.9021 4.11618ZM36.6618 7.49997C35.4836 9.01929 35.4792 10.0859 35.5504 11.9458C35.4899 12.6562 35.4899 12.6562 34.7868 13.3593C30.7263 13.4754 30.7263 13.4754 26.5837 13.5937C26.5837 22.1015 26.5837 30.6093 26.5837 39.375C35.0915 39.375 43.5993 39.375 52.3649 39.375C52.3649 37.132 52.3649 34.889 52.3649 32.5781C51.4368 32.5007 50.5087 32.4234 49.5524 32.3437C47.5478 31.7262 46.1577 30.6312 45.0993 28.8281C44.2446 26.9633 44.2261 24.9002 44.8649 22.9687C45.6402 21.1957 46.6501 20.087 48.3806 19.2187C49.7446 18.6979 50.8439 18.6677 52.3649 18.5156C52.3649 16.8914 52.3649 15.2672 52.3649 13.5937C51.7809 13.5877 51.1969 13.5816 50.5952 13.5754C50.0297 13.5664 49.4643 13.5558 48.8988 13.5451C48.5058 13.5385 48.1127 13.5335 47.7196 13.5302C47.1546 13.5252 46.5899 13.5143 46.0249 13.5022C45.8491 13.5019 45.6733 13.5016 45.4922 13.5013C44.716 13.4794 44.2764 13.4661 43.696 12.9254C43.3693 12.2322 43.4242 11.7032 43.4733 10.9423C43.5049 9.53322 43.3926 8.84131 42.5212 7.73434C41.3142 6.64226 40.5631 6.47864 38.9653 6.49746C37.9491 6.59712 37.4713 6.87221 36.6618 7.49997Z" fill="white"/>
</svg>
