<svg width="121" height="120" viewBox="0 0 121 120" fill="none" xmlns="http://www.w3.org/2000/svg">
<path d="M24.4108 7.46852C24.7459 7.46695 24.7459 7.46695 25.0879 7.46535C25.4551 7.46542 25.4551 7.46542 25.8297 7.46548C26.2206 7.46419 26.2206 7.46419 26.6194 7.46287C27.4958 7.46028 28.3722 7.45938 29.2486 7.45849C29.8757 7.45702 30.5027 7.45547 31.1298 7.45382C33.0139 7.44919 34.8979 7.44683 36.7819 7.44475C37.6695 7.44372 38.557 7.44246 39.4446 7.44123C42.3955 7.43725 45.3464 7.43385 48.2973 7.43215C49.0629 7.4317 49.8284 7.43125 50.594 7.4308C50.8794 7.43063 50.8794 7.43063 51.1705 7.43045C54.2525 7.42851 57.3345 7.42257 60.4165 7.41496C63.5817 7.4072 66.7469 7.40298 69.9122 7.40223C71.6889 7.40173 73.4656 7.39968 75.2424 7.39369C76.7556 7.3886 78.2687 7.38672 79.7819 7.38899C80.5536 7.39006 81.3251 7.38911 82.0968 7.38507C82.9346 7.38092 83.7722 7.38257 84.61 7.38566C84.8521 7.38309 85.0943 7.38052 85.3438 7.37787C87.5818 7.39774 89.2176 8.10679 90.8515 9.62675C92.4844 11.3844 92.9866 13.1968 92.9499 15.5486C92.9484 15.7672 92.947 15.9858 92.9455 16.2111C92.9401 16.9428 92.9315 17.6746 92.9229 18.4063C92.9186 18.9316 92.9145 19.4568 92.9107 19.9821C92.9022 21.1139 92.8927 22.2457 92.8826 23.3775C92.8674 25.1732 92.8595 26.9689 92.8535 28.7646C92.8525 29.0683 92.8515 29.3719 92.8504 29.6847C92.8478 30.4626 92.8453 31.2405 92.8429 32.0184C92.8383 33.4578 92.8336 34.8971 92.828 36.3365C92.8274 36.4966 92.8268 36.6567 92.8262 36.8216C92.816 39.4028 92.7931 41.9838 92.7657 44.5648C92.7379 47.2251 92.726 49.885 92.7269 52.5454C92.7269 54.0351 92.72 55.524 92.6954 57.0135C92.5157 66.0064 92.5157 66.0064 96.6645 73.7169C97.326 74.5407 97.8401 75.4271 98.3533 76.3476C98.5218 76.6343 98.6909 76.9206 98.861 77.2064C98.9417 77.3433 99.0225 77.4803 99.1057 77.6214C100.578 80.1176 102.067 82.6035 103.575 85.0781C105.198 87.7408 106.797 90.4172 108.384 93.1012C109.271 94.6008 110.162 96.0979 111.067 97.587C111.231 97.8577 111.396 98.1285 111.56 98.3993C111.863 98.898 112.166 99.3961 112.472 99.8933C113.899 102.247 114.224 104.161 114.005 106.875C113.801 107.666 113.502 108.296 113.068 108.984C112.985 109.13 112.903 109.276 112.819 109.426C111.809 111.045 110.189 111.995 108.38 112.5C107.738 112.545 107.119 112.567 106.477 112.566C106.289 112.567 106.102 112.569 105.908 112.57C105.281 112.574 104.654 112.575 104.027 112.576C103.576 112.578 103.126 112.58 102.675 112.583C101.452 112.589 100.23 112.592 99.0068 112.594C98.242 112.595 97.4773 112.597 96.7125 112.599C94.3176 112.606 91.9226 112.61 89.5277 112.612C86.7673 112.614 84.007 112.622 81.2467 112.636C79.1103 112.646 76.9739 112.651 74.8375 112.651C73.5628 112.652 72.2882 112.655 71.0135 112.663C69.8134 112.671 68.6135 112.672 67.4134 112.668C66.9747 112.667 66.5359 112.669 66.0972 112.674C63.2964 112.702 60.9799 112.554 58.8065 110.551C57.8935 109.606 57.4492 108.831 57.052 107.578C56.8312 107.579 56.6103 107.58 56.3827 107.581C51.0011 107.607 45.6194 107.627 40.2377 107.639C37.6351 107.645 35.0325 107.653 32.43 107.667C30.1608 107.678 27.8916 107.686 25.6224 107.688C24.4216 107.69 23.2208 107.693 22.02 107.702C20.8881 107.71 19.7562 107.712 18.6243 107.711C18.2105 107.711 17.7967 107.713 17.3829 107.718C14.5097 107.748 12.0575 107.548 9.82547 105.513C8.55068 104.113 7.80525 102.569 7.80183 100.668C7.80026 100.265 7.80026 100.265 7.79866 99.854C7.79871 99.5574 7.79875 99.2609 7.7988 98.9554C7.79802 98.6382 7.79715 98.321 7.79618 98.0039C7.79383 97.1304 7.79296 96.2569 7.79234 95.3834C7.79143 94.442 7.78918 93.5006 7.78714 92.5592C7.7825 90.2848 7.78014 88.0103 7.77806 85.7358C7.77703 84.6648 7.77577 83.5939 7.77455 82.5229C7.77056 78.963 7.76716 75.4031 7.76546 71.8432C7.76502 70.9192 7.76457 69.9952 7.76411 69.0713C7.764 68.8416 7.76388 68.6119 7.76376 68.3753C7.76182 64.6553 7.75588 60.9352 7.74827 57.2151C7.74052 53.3963 7.7363 49.5774 7.73555 45.7586C7.73504 43.6142 7.73299 41.4699 7.727 39.3256C7.72191 37.4993 7.72003 35.6731 7.72231 33.8468C7.72337 32.9152 7.72293 31.9837 7.71838 31.0521C7.71425 30.1985 7.71448 29.3449 7.71812 28.4913C7.71894 28.0378 7.71515 27.5844 7.71118 27.1309C7.72664 25.0379 8.1297 23.3947 9.47391 21.7529C9.6147 21.5798 9.75549 21.4067 9.90055 21.2283C10.6493 20.344 11.4012 19.4624 12.1582 18.5851C13.0569 17.5433 13.9322 16.4847 14.7995 15.4165C15.5069 14.5539 16.2277 13.703 16.9533 12.8557C17.4723 12.2476 17.9746 11.6364 18.4616 11.0019C20.0235 8.97176 21.7554 7.47429 24.4108 7.46852ZM27.9895 12.6562C27.9887 12.8189 27.9878 12.9816 27.9869 13.1492C27.978 14.6904 27.9647 16.2314 27.9464 17.7725C27.9372 18.5646 27.9297 19.3566 27.926 20.1487C27.921 21.0617 27.91 21.9744 27.898 22.8872C27.8977 23.1686 27.8974 23.4499 27.8971 23.7398C27.8668 25.4946 27.713 27.147 26.4786 28.4954C25.4787 29.369 24.6348 29.8199 23.3133 29.8403C23.0834 29.845 22.8535 29.8496 22.6167 29.8544C22.3704 29.8571 22.124 29.8599 21.8702 29.8626C21.6166 29.8672 21.363 29.8717 21.1017 29.8764C20.2922 29.8904 19.4827 29.9013 18.6731 29.9121C18.1241 29.921 17.5751 29.9302 17.0261 29.9396C15.6806 29.9621 14.3351 29.982 12.9895 30C12.9627 38.9931 12.9421 47.9863 12.9297 56.9795C12.9282 58.0409 12.9267 59.1023 12.9252 60.1637C12.9249 60.375 12.9245 60.5864 12.9242 60.8041C12.9191 64.2269 12.9099 67.6496 12.8991 71.0724C12.8882 74.5837 12.8817 78.0951 12.8793 81.6064C12.8777 83.7736 12.8726 85.9408 12.8631 88.1079C12.8569 89.5935 12.855 91.079 12.8565 92.5646C12.8573 93.422 12.8561 94.2794 12.8498 95.1369C12.8431 96.0663 12.8454 96.9956 12.8486 97.925C12.8452 98.1963 12.8418 98.4676 12.8383 98.7471C12.8383 100.305 12.8383 100.305 13.5403 101.648C14.5066 102.487 15.333 102.455 16.5507 102.45C16.7236 102.45 16.8964 102.45 17.0746 102.451C17.6554 102.451 18.2362 102.45 18.817 102.448C19.2328 102.448 19.6485 102.448 20.0643 102.449C21.1944 102.449 22.3246 102.447 23.4547 102.446C24.6352 102.444 25.8157 102.444 26.9963 102.444C29.2324 102.443 31.4686 102.441 33.7048 102.439C36.2503 102.436 38.7958 102.435 41.3413 102.434C46.5782 102.431 51.8151 102.427 57.052 102.422C57.1511 102.243 57.1511 102.243 57.2522 102.06C57.5562 101.51 57.8605 100.961 58.1649 100.411C58.2688 100.224 58.3727 100.036 58.4797 99.8419C59.3654 98.2445 60.298 96.6822 61.2561 95.1269C61.6028 94.5609 61.9487 93.9944 62.2943 93.4277C62.3828 93.2828 62.4712 93.138 62.5623 92.9887C63.6928 91.1326 64.7953 89.2598 65.9006 87.3886C66.9028 85.6931 67.9118 84.0027 68.9484 82.3279C69.0369 82.1849 69.1254 82.0418 69.2165 81.8945C69.6347 81.2196 70.0546 80.5458 70.4765 79.8732C70.6958 79.5211 70.6958 79.5211 70.9195 79.162C71.1127 78.8543 71.1127 78.8543 71.3097 78.5404C71.6212 78.0726 71.6212 78.0726 71.5833 77.5781C71.3416 77.5775 71.0999 77.577 70.8508 77.5764C64.9729 77.5626 59.095 77.5449 53.2171 77.5229C50.3746 77.5123 47.5321 77.5031 44.6896 77.4969C42.2124 77.4915 39.7353 77.4837 37.2581 77.4729C35.9462 77.4673 34.6343 77.4629 33.3223 77.4615C32.0878 77.4601 30.8534 77.4554 29.619 77.4482C29.1656 77.4461 28.7121 77.4453 28.2587 77.4457C27.6402 77.4461 27.0218 77.4422 26.4033 77.4372C26.2234 77.4383 26.0435 77.4395 25.8582 77.4406C24.8118 77.4267 24.1332 77.29 23.302 76.6406C22.8698 75.776 22.9533 74.7719 23.0677 73.8281C23.5095 73.2243 23.8161 72.9851 24.4739 72.6562C25.1237 72.6452 25.7671 72.6489 26.4165 72.6633C26.6199 72.6668 26.8232 72.6703 27.0327 72.6738C27.4802 72.6815 27.9277 72.6898 28.3752 72.6985C29.6193 72.7225 30.8635 72.7422 32.1077 72.7623C32.3735 72.7666 32.6393 72.771 32.9132 72.7755C36.614 72.8347 40.3152 72.8593 44.0163 72.8853C47.0316 72.9075 50.0458 72.9419 53.0605 73.0042C55.6911 73.0585 58.3208 73.0893 60.952 73.0928C62.3441 73.0955 63.7339 73.1096 65.1255 73.1519C70.7129 73.6214 70.7129 73.6214 75.7186 71.7635C77.1042 70.2906 77.9161 68.4795 78.5576 66.584C78.8646 65.8202 79.2627 65.3154 79.7864 64.6875C79.7864 64.5328 79.7864 64.3781 79.7864 64.2187C79.9169 64.1538 80.0475 64.0888 80.1819 64.0219C80.554 63.8352 80.925 63.6465 81.2952 63.4561C81.4934 63.3549 81.6916 63.2537 81.8958 63.1494C82.094 63.0476 82.2922 62.9458 82.4964 62.8409C83.6378 62.3159 84.6973 62.3148 85.9388 62.3291C86.1134 62.3301 86.288 62.3312 86.4679 62.3323C86.897 62.335 87.3261 62.3392 87.7552 62.3437C87.7716 56.13 87.784 49.9163 87.7916 43.7025C87.7952 40.8174 87.8002 37.9324 87.8082 35.0473C87.8152 32.5331 87.8197 30.0189 87.8213 27.5046C87.8222 26.173 87.8244 24.8414 87.8295 23.5098C87.8343 22.2569 87.8358 21.004 87.8347 19.7511C87.8349 19.2909 87.8363 18.8306 87.839 18.3704C87.8425 17.7427 87.8416 17.1151 87.8397 16.4873C87.8418 16.3047 87.8438 16.1221 87.8459 15.9339C87.835 14.6105 87.5409 13.917 86.6843 12.9398C85.7548 12.4772 84.8185 12.5623 83.7952 12.5717C83.557 12.5711 83.3188 12.5705 83.0735 12.5699C82.2731 12.5687 81.4728 12.5726 80.6724 12.5764C80.0996 12.5766 79.5268 12.5765 78.954 12.5761C77.7197 12.5759 76.4853 12.5779 75.2509 12.5819C73.4662 12.5876 71.6815 12.5894 69.8968 12.5903C67.0012 12.5919 64.1057 12.5965 61.2101 12.6032C58.3973 12.6096 55.5845 12.6146 52.7717 12.6176C52.5983 12.6178 52.425 12.618 52.2463 12.6182C51.3766 12.6191 50.5068 12.62 49.6371 12.6208C42.4212 12.6281 35.2054 12.6406 27.9895 12.6562ZM22.5989 14.2969C22.1606 14.7842 21.7332 15.2762 21.3098 15.7763C21.1186 16.0009 21.1186 16.0009 20.9236 16.2299C20.0068 17.3095 19.1065 18.4016 18.2145 19.5016C17.8187 19.9836 17.4198 20.461 17.0151 20.9353C16.9012 21.0689 16.7873 21.2024 16.67 21.3399C16.451 21.5961 16.2314 21.8517 16.0112 22.1068C15.2543 22.9919 14.6104 23.887 13.927 24.8437C16.8661 24.8437 19.8052 24.8437 22.8333 24.8437C22.8333 21.3633 22.8333 17.8828 22.8333 14.2969C22.7559 14.2969 22.6786 14.2969 22.5989 14.2969ZM83.5364 67.9687C83.1592 68.4647 82.8639 68.909 82.565 69.4473C82.4791 69.5948 82.3931 69.7424 82.3046 69.8944C82.0233 70.3786 81.7473 70.8655 81.471 71.3525C81.2737 71.6938 81.0759 72.0348 80.8777 72.3756C80.574 72.8981 80.2705 73.4206 79.9683 73.944C79.0342 75.5616 78.0666 77.157 77.0911 78.75C75.6669 81.0832 74.2647 83.4288 72.8724 85.7812C71.48 88.1336 70.0765 90.4785 68.6536 92.8125C67.1593 95.2647 65.6821 97.7266 64.2151 100.195C64.1173 100.36 64.0194 100.524 63.9186 100.694C63.6414 101.16 63.3647 101.626 63.0881 102.092C63.0058 102.231 62.9235 102.369 62.8386 102.512C61.999 103.838 61.999 103.838 61.7395 105.337C62.0233 106.348 62.4913 106.829 63.3802 107.344C64.0377 107.456 64.5509 107.501 65.2053 107.489C65.3846 107.491 65.564 107.492 65.7487 107.494C66.3475 107.497 66.9458 107.493 67.5445 107.488C67.9746 107.489 68.4047 107.49 68.8348 107.492C70.0014 107.495 71.1678 107.491 72.3343 107.486C73.5553 107.481 74.7762 107.482 75.9972 107.483C78.0472 107.483 80.0972 107.478 82.1473 107.471C84.5176 107.462 86.8879 107.46 89.2582 107.462C91.5386 107.463 93.8189 107.461 96.0992 107.456C97.0697 107.454 98.0401 107.454 99.0106 107.454C100.153 107.454 101.296 107.451 102.438 107.445C102.857 107.443 103.277 107.443 103.696 107.443C104.269 107.444 104.841 107.441 105.413 107.436C105.579 107.437 105.745 107.439 105.916 107.44C106.932 107.426 107.567 107.255 108.38 106.641C108.931 105.88 108.921 105.217 108.849 104.297C108.603 103.742 108.354 103.261 108.043 102.744C107.951 102.586 107.859 102.427 107.764 102.264C107.427 101.689 107.084 101.118 106.74 100.547C106.601 100.318 106.463 100.088 106.32 99.8522C105.675 98.7853 105.028 97.7195 104.378 96.6553C103.078 94.5247 101.799 92.3824 100.529 90.2344C98.9778 87.6139 97.409 85.0053 95.8235 82.4057C94.6355 80.4556 93.4682 78.4937 92.3064 76.5278C91.5767 75.2943 90.8434 74.0629 90.1091 72.8321C89.8783 72.4449 89.648 72.0573 89.4178 71.6697C89.0384 71.0342 88.6543 70.4018 88.2679 69.7705C88.1626 69.5928 88.0574 69.4151 87.949 69.2321C87.3201 68.2201 86.8098 67.6801 85.6458 67.2656C84.7414 67.2656 84.3057 67.4943 83.5364 67.9687Z" fill="white"/>
<path d="M26.732 62.3092C27.0458 62.3079 27.0458 62.3079 27.366 62.3066C28.0699 62.304 28.7737 62.3031 29.4776 62.3022C29.9811 62.3008 30.4846 62.2992 30.9881 62.2976C32.3581 62.2935 33.728 62.291 35.098 62.2891C35.9534 62.2879 36.8089 62.2865 37.6643 62.285C40.3396 62.2805 43.0148 62.2772 45.6901 62.2752C48.7807 62.2729 51.8712 62.2668 54.9617 62.2573C57.3491 62.2502 59.7364 62.2468 62.1238 62.246C63.5504 62.2454 64.9769 62.2433 66.4035 62.2374C67.7453 62.232 69.087 62.231 70.4289 62.2334C70.9215 62.2335 71.4141 62.232 71.9067 62.2288C72.5791 62.2247 73.2511 62.2263 73.9235 62.2294C74.1186 62.2268 74.3137 62.2243 74.5148 62.2216C75.7537 62.2354 76.4624 62.4558 77.4427 63.2812C78.0211 64.1488 78.071 64.8527 77.9115 65.8594C77.2083 67.1484 77.2083 67.1484 76.5052 67.5C75.8258 67.5245 75.152 67.5346 74.4725 67.5345C74.2595 67.5353 74.0465 67.5362 73.827 67.5371C73.109 67.5397 72.3909 67.5406 71.6728 67.5415C71.1597 67.5429 70.6466 67.5445 70.1335 67.5461C68.7364 67.5502 67.3394 67.5527 65.9423 67.5546C65.0702 67.5558 64.198 67.5572 63.3259 67.5587C60.7557 67.5629 58.1855 67.5663 55.6153 67.5681C55.1448 67.5685 54.6744 67.5688 54.2039 67.5692C54.0482 67.5693 53.8925 67.5694 53.732 67.5695C51.2086 67.5714 48.6852 67.5774 46.1618 67.585C43.5719 67.5927 40.9819 67.5969 38.3919 67.5977C36.9375 67.5983 35.483 67.6004 34.0285 67.6063C32.6606 67.6117 31.2927 67.6127 29.9247 67.6103C29.4221 67.6102 28.9196 67.6117 28.417 67.6149C27.7318 67.619 27.0468 67.6174 26.3616 67.6143C26.1619 67.6169 25.9623 67.6194 25.7566 67.6221C24.8129 67.6118 24.3518 67.5712 23.5357 67.0534C22.717 66.1946 22.7417 65.481 22.75 64.3323C22.8333 63.75 22.8333 63.75 23.3753 63.0322C24.461 62.2495 25.4446 62.3089 26.732 62.3092Z" fill="white"/>
<path d="M26.2725 52.4639C26.592 52.4623 26.592 52.4623 26.9179 52.4608C27.636 52.4576 28.3541 52.4562 29.0722 52.4548C29.5853 52.4529 30.0984 52.451 30.6115 52.4489C32.3001 52.4428 33.9888 52.4392 35.6775 52.4359C36.258 52.4346 36.8385 52.4334 37.4191 52.4321C39.8332 52.427 42.2472 52.4226 44.6613 52.42C45.2879 52.4193 45.9145 52.4186 46.541 52.4179C46.6968 52.4177 46.8525 52.4176 47.013 52.4174C49.5364 52.4144 52.0598 52.4066 54.5832 52.3969C57.1731 52.3869 59.7631 52.3815 62.353 52.3802C63.8075 52.3793 65.262 52.3765 66.7164 52.3689C68.0844 52.3619 69.4523 52.3604 70.8203 52.3631C71.3228 52.3632 71.8254 52.3612 72.3279 52.3571C73.0132 52.3518 73.6981 52.3537 74.3834 52.3575C74.5831 52.3542 74.7827 52.3509 74.9884 52.3476C76.0079 52.3613 76.3864 52.4043 77.2093 53.0655C77.8698 53.9213 77.9924 54.4447 77.9785 55.5386C77.8726 56.2946 77.5179 56.6739 76.9741 57.1875C76.0652 57.8245 75.0478 57.7221 73.9832 57.7173C73.6688 57.7187 73.6688 57.7187 73.3481 57.72C72.6444 57.7224 71.9408 57.7215 71.2371 57.7206C70.7331 57.7216 70.2292 57.7228 69.7253 57.7242C68.3554 57.7274 66.9855 57.7275 65.6155 57.7269C64.4727 57.7266 63.3299 57.7278 62.1871 57.7289C59.4916 57.7315 56.7961 57.7316 54.1006 57.7302C51.3178 57.7288 48.5351 57.7317 45.7523 57.7367C43.3647 57.7408 40.9772 57.7422 38.5896 57.7414C37.1629 57.741 35.7362 57.7416 34.3095 57.7449C32.9681 57.7478 31.6267 57.7474 30.2853 57.7443C29.7926 57.7438 29.2999 57.7444 28.8071 57.7463C28.1353 57.7488 27.4636 57.7469 26.7918 57.7439C26.4983 57.7465 26.4983 57.7465 26.1988 57.7492C24.8817 57.7368 24.1673 57.4416 23.1183 56.629C22.6193 55.9648 22.7262 55.2811 22.7484 54.4802C22.8667 53.6825 23.182 53.2714 23.771 52.7343C24.5483 52.3457 25.4178 52.4644 26.2725 52.4639Z" fill="white"/>
<path d="M26.4872 42.3858C26.6981 42.3847 26.909 42.3837 27.1264 42.3826C27.8374 42.3795 28.5485 42.3781 29.2596 42.3766C29.7677 42.3748 30.2758 42.3728 30.7839 42.3708C32.4562 42.3647 34.1285 42.3611 35.8008 42.3577C36.3758 42.3565 36.9508 42.3552 37.5258 42.354C39.9172 42.3489 42.3086 42.3445 44.6999 42.3419C48.1306 42.3381 51.5611 42.3303 54.9917 42.3169C57.402 42.3079 59.8122 42.3033 62.2224 42.302C63.6629 42.3012 65.1034 42.2984 66.5438 42.2908C67.8989 42.2837 69.2539 42.2822 70.609 42.285C71.1066 42.285 71.6041 42.2831 72.1016 42.279C72.7807 42.2737 73.4593 42.2756 74.1384 42.2793C74.4341 42.2744 74.4341 42.2744 74.7357 42.2695C75.7105 42.2827 76.3207 42.3645 77.0925 42.9874C77.8858 43.8102 78.004 44.2929 77.9956 45.444C77.8467 46.3162 77.363 46.7351 76.7395 47.3437C75.9668 47.73 75.1069 47.6128 74.2574 47.6126C73.9411 47.6139 73.9411 47.6139 73.6183 47.6152C72.9072 47.6178 72.1961 47.6187 71.4851 47.6196C70.977 47.621 70.4689 47.6226 69.9608 47.6242C68.5773 47.6283 67.1938 47.6308 65.8102 47.6327C64.9464 47.6339 64.0826 47.6353 63.2188 47.6368C60.5178 47.6413 57.8167 47.6446 55.1157 47.6466C51.9947 47.6489 48.8738 47.655 45.7529 47.6645C43.3427 47.6716 40.9325 47.675 38.5222 47.6758C37.0817 47.6764 35.6413 47.6785 34.2008 47.6844C32.8457 47.6898 31.4907 47.6908 30.1356 47.6884C29.6381 47.6883 29.1405 47.6898 28.643 47.693C27.964 47.6971 27.2853 47.6955 26.6062 47.6924C26.4091 47.695 26.212 47.6975 26.0089 47.7002C24.7659 47.6865 24.053 47.4682 23.0676 46.6406C22.6323 45.77 22.6961 44.7759 22.8333 43.8281C23.9312 42.4124 24.7951 42.3868 26.4872 42.3858Z" fill="white"/>
<path d="M50.6607 32.2811C50.8828 32.2791 51.1049 32.2771 51.3337 32.275C51.6968 32.2754 51.6968 32.2754 52.0673 32.2757C52.4515 32.2733 52.4515 32.2733 52.8436 32.2709C53.6916 32.2665 54.5395 32.2655 55.3875 32.265C55.9766 32.2635 56.5657 32.262 57.1548 32.2603C58.3901 32.2575 59.6254 32.2566 60.8608 32.2569C62.2869 32.2572 63.713 32.2523 65.1391 32.2448C66.5129 32.238 67.8867 32.2363 69.2605 32.2366C69.8442 32.236 70.4279 32.2339 71.0115 32.2303C71.8279 32.2257 72.644 32.2271 73.4604 32.2299C73.7015 32.2273 73.9426 32.2246 74.191 32.2219C75.5827 32.2342 76.3868 32.3472 77.4426 33.2813C78.021 34.1489 78.0709 34.8527 77.9113 35.8594C77.2082 37.1485 77.2082 37.1485 76.5051 37.5C76.1425 37.5241 75.7789 37.5337 75.4156 37.5361C75.071 37.5391 75.071 37.5391 74.7196 37.5422C74.4667 37.5432 74.2138 37.5442 73.9532 37.5452C73.5548 37.5481 73.5548 37.5481 73.1482 37.551C72.2661 37.5569 71.3841 37.5607 70.502 37.5641C70.2013 37.5654 69.9007 37.5666 69.5909 37.5679C68.3277 37.5729 67.0644 37.5774 65.8012 37.58C63.9909 37.5838 62.1808 37.5916 60.3705 37.6049C58.9442 37.6151 57.5178 37.6188 56.0914 37.6203C55.4847 37.6219 54.8779 37.6255 54.2712 37.6311C53.4227 37.6385 52.5745 37.6385 51.726 37.6368C51.4746 37.6406 51.2231 37.6445 50.964 37.6484C49.2596 37.6341 49.2596 37.6341 48.3445 36.9384C47.7073 36.0407 47.5773 35.3074 47.677 34.2188C48.3679 32.8112 49.1137 32.2874 50.6607 32.2811Z" fill="white"/>
<path d="M25.3204 82.4655C25.5481 82.4638 25.7758 82.4621 26.0104 82.4604C26.2611 82.4598 26.5118 82.4591 26.7701 82.4585C27.1652 82.4562 27.1652 82.4562 27.5682 82.4538C28.4427 82.4492 29.3171 82.4465 30.1916 82.4441C30.4897 82.4432 30.7877 82.4422 31.0948 82.4412C32.5093 82.4369 33.9238 82.4334 35.3382 82.4315C36.9708 82.4292 38.6033 82.423 40.2359 82.4136C41.65 82.4056 43.064 82.4029 44.4781 82.4019C45.0797 82.4008 45.6812 82.398 46.2827 82.3937C47.1238 82.388 47.9648 82.3882 48.8059 82.3898C49.0552 82.3868 49.3045 82.3838 49.5613 82.3807C51.2506 82.3927 51.2506 82.3927 52.1624 82.9463C52.9389 83.8195 52.925 84.5318 52.9168 85.6677C52.8335 86.25 52.8335 86.25 52.2915 86.9678C51.4644 87.5641 50.8782 87.6855 49.8853 87.6892C49.6652 87.6905 49.445 87.6918 49.2182 87.6932C48.9771 87.6935 48.736 87.6937 48.4876 87.694C48.1063 87.6957 48.1063 87.6957 47.7172 87.6975C46.8744 87.701 46.0316 87.7025 45.1889 87.7038C44.6042 87.7052 44.0194 87.7065 43.4347 87.7079C42.3649 87.71 41.295 87.7115 40.2252 87.7122C38.8079 87.7132 37.3907 87.7161 35.9735 87.7222C34.453 87.7286 32.9326 87.7316 31.4121 87.7321C30.8322 87.7328 30.2523 87.7347 29.6723 87.7377C28.8615 87.7417 28.0509 87.7413 27.2401 87.7398C26.9999 87.7419 26.7598 87.7441 26.5124 87.7463C25.3269 87.7393 24.498 87.7296 23.5367 86.9531C23.3986 86.8462 23.2605 86.7392 23.1183 86.629C22.6193 85.9648 22.7262 85.2811 22.7484 84.4803C22.8667 83.6825 23.182 83.2714 23.771 82.7344C24.3351 82.4523 24.6903 82.4687 25.3204 82.4655Z" fill="white"/>
<path d="M87.9898 79.9218C88.9923 80.849 89.8103 81.7067 89.9073 83.118C89.9282 85.4231 89.6881 87.6613 89.3899 89.9441C89.3076 90.5757 89.2289 91.2076 89.1507 91.8397C89.099 92.2467 89.0472 92.6537 88.9951 93.0606C88.9602 93.34 88.9602 93.34 88.9247 93.6251C88.5585 96.3917 88.5585 96.3917 87.8873 97.2052C86.603 98.1363 85.8201 98.3946 84.2398 98.2031C83.1778 97.6721 82.6379 97.1559 82.1304 96.0937C81.9498 95.2864 81.852 94.4729 81.7542 93.652C81.7239 93.4147 81.6937 93.1774 81.6626 92.933C81.5993 92.4314 81.5373 91.9296 81.4766 91.4277C81.3841 90.6655 81.2873 89.9041 81.1897 89.1426C81.1286 88.6536 81.0677 88.1645 81.0071 87.6754C80.9785 87.4503 80.95 87.2251 80.9206 86.9931C80.397 82.612 80.397 82.612 81.6617 80.8593C83.3318 79.0156 85.8576 78.6533 87.9898 79.9218Z" fill="white"/>
<path d="M86.5835 99.375C87.3324 99.6715 87.6465 99.958 88.1802 100.547C88.6119 101.638 88.6414 102.673 88.4585 103.828C87.9972 104.754 87.2965 105.31 86.3491 105.703C85.2579 105.874 84.4404 105.803 83.4487 105.308C82.6753 104.626 82.2127 104.143 82.0562 103.099C81.9896 101.819 82.2117 101.077 83.0679 100.078C84.1292 99.1112 85.216 99.2267 86.5835 99.375Z" fill="white"/>
<path d="M68.5367 17.3438C69.394 17.8219 69.8655 18.1651 70.4117 18.9844C70.5251 20.1373 70.5321 20.6387 69.9722 21.6651C69.4504 22.2944 69.2805 22.466 68.4882 22.5641C66.8278 22.6288 66.8278 22.6288 65.9439 21.9434C65.2276 20.973 65.088 20.1791 65.2554 18.9844C66.0753 17.6375 66.9674 17.1555 68.5367 17.3438Z" fill="white"/>
<path d="M38.5367 17.3438C39.394 17.8219 39.8655 18.1651 40.4117 18.9844C40.5251 20.1373 40.5321 20.6387 39.9722 21.6651C39.4504 22.2944 39.2805 22.466 38.4882 22.5641C36.8278 22.6288 36.8278 22.6288 35.9439 21.9434C35.2276 20.973 35.088 20.1791 35.2554 18.9844C36.0753 17.6375 36.9674 17.1555 38.5367 17.3438Z" fill="white"/>
<path d="M78.6145 17.3438C79.5446 17.8446 80.1082 18.2303 80.4895 19.2188C80.5651 20.3034 80.3817 21.128 79.801 22.0459C78.7837 22.6895 77.9129 22.7139 76.7395 22.5C76.0517 22.079 75.6913 21.81 75.3332 21.0938C75.1831 19.8819 75.1225 19.0291 75.8752 18.0322C76.7965 17.368 77.4949 17.234 78.6145 17.3438Z" fill="white"/>
<path d="M59.1614 17.5781C59.8791 18.0322 59.8791 18.0322 60.3332 18.75C60.5476 19.9155 60.5175 20.7928 59.8938 21.8115C59.0219 22.6065 58.3123 22.5961 57.1655 22.5778C56.5832 22.5 56.5832 22.5 55.8655 22.0459C55.2714 21.1069 55.0755 20.3278 55.177 19.2188C56.0806 17.3781 57.2713 17.0737 59.1614 17.5781Z" fill="white"/>
<path d="M48.6145 17.3438C49.5446 17.8446 50.1082 18.2303 50.4895 19.2188C50.5651 20.3034 50.3817 21.128 49.801 22.0459C48.7837 22.6895 47.9129 22.7139 46.7395 22.5C46.0517 22.079 45.6913 21.81 45.3332 21.0938C45.1831 19.8819 45.1225 19.0291 45.8752 18.0322C46.7965 17.368 47.4949 17.234 48.6145 17.3438Z" fill="white"/>
</svg>
