<svg width="121" height="120" viewBox="0 0 121 120" fill="none" xmlns="http://www.w3.org/2000/svg">
<path d="M53.7634 41.8515C54.3134 41.8504 54.8635 41.8492 55.4135 41.8478C56.5607 41.8457 57.7079 41.8462 58.8551 41.8486C60.3114 41.8513 61.7676 41.8465 63.2239 41.8397C64.3585 41.8353 65.493 41.8354 66.6276 41.8368C67.1638 41.8368 67.7001 41.8354 68.2364 41.8325C75.4254 41.7986 82.1097 43.1631 87.6196 48.0469C87.8643 48.2585 87.8643 48.2585 88.114 48.4744C90.5989 50.7714 92.2769 54.033 92.5415 57.4219C92.5683 58.4719 92.5636 59.521 92.5561 60.5713C92.5551 60.8545 92.554 61.1378 92.5529 61.4296C92.5502 62.1249 92.5463 62.8203 92.5415 63.5156C92.7702 63.5074 92.9989 63.4993 93.2346 63.4909C93.6818 63.4814 93.6818 63.4814 94.1382 63.4717C94.4346 63.4635 94.7309 63.4553 95.0363 63.4469C95.8227 63.5156 95.8227 63.5156 96.2079 63.8046C96.5929 64.3061 96.6721 64.6663 96.7749 65.2881C96.8118 65.4941 96.8486 65.7002 96.8866 65.9125C96.9586 66.3458 97.0306 66.7792 97.1027 67.2125C97.1395 67.4186 97.1764 67.6246 97.2143 67.8369C97.2455 68.0251 97.2766 68.2133 97.3086 68.4073C97.5378 69.1464 97.9311 69.4853 98.6041 69.8401C98.7594 69.8993 98.9147 69.9585 99.0747 70.0195C99.2288 70.0811 99.3829 70.1428 99.5416 70.2063C100.483 70.4062 101.061 70.1765 101.859 69.6615C102.076 69.4945 102.293 69.3274 102.517 69.1553C104.631 67.5397 104.631 67.5397 106.135 67.7344C106.75 68.1361 107.245 68.6417 107.759 69.1635C107.983 69.384 107.983 69.384 108.211 69.6089C108.524 69.9202 108.835 70.2334 109.145 70.5482C109.62 71.0283 110.102 71.4997 110.585 71.971C110.889 72.2749 111.192 72.5793 111.495 72.8842C111.711 73.0945 111.711 73.0945 111.932 73.3091C112.63 74.0307 112.909 74.3754 113.058 75.3963C112.935 76.1534 112.825 76.5101 112.36 77.1029C112.184 77.3393 112.184 77.3393 112.004 77.5804C111.753 77.9021 111.501 78.2238 111.25 78.5454C110.509 79.5083 110.509 79.5083 110.38 80.6872C110.449 80.8987 110.517 81.1102 110.588 81.3281C110.651 81.6133 110.714 81.8985 110.779 82.1924C111.377 83.0989 111.579 83.1356 112.595 83.3935C113.097 83.4939 113.6 83.5868 114.104 83.6719C114.539 83.7484 114.973 83.8264 115.408 83.9062C115.684 83.9497 115.684 83.9497 115.965 83.9941C116.552 84.1724 116.767 84.3678 117.151 84.8437C117.24 85.3151 117.24 85.3151 117.242 85.859C117.244 86.0632 117.246 86.2673 117.249 86.4777C117.246 86.8073 117.246 86.8073 117.244 87.1435C117.245 87.3698 117.246 87.596 117.246 87.8291C117.247 88.3074 117.245 88.7858 117.243 89.2641C117.239 89.9972 117.243 90.7299 117.247 91.463C117.247 91.9275 117.246 92.3919 117.244 92.8564C117.246 93.0762 117.247 93.2959 117.249 93.5223C117.246 93.7264 117.244 93.9306 117.242 94.1409C117.241 94.3204 117.241 94.4999 117.24 94.6849C117.127 95.2817 116.919 95.4873 116.448 95.8594C115.949 96.0141 115.949 96.0141 115.378 96.1084C115.172 96.1452 114.966 96.1821 114.754 96.2201C114.321 96.2921 113.887 96.3641 113.454 96.4361C113.248 96.473 113.042 96.5099 112.83 96.5478C112.641 96.5789 112.453 96.6101 112.259 96.6421C111.681 96.8216 111.439 97.0361 111.057 97.5C110.817 97.943 110.817 97.943 110.647 98.4228C110.585 98.5796 110.524 98.7364 110.46 98.898C110.303 99.6023 110.462 100.101 110.83 100.716C110.927 100.848 111.024 100.979 111.124 101.115C111.229 101.264 111.334 101.412 111.442 101.564C111.663 101.871 111.886 102.176 112.11 102.48C112.215 102.629 112.32 102.778 112.428 102.932C112.524 103.065 112.621 103.197 112.721 103.334C113.053 104.111 113.049 104.631 112.932 105.469C112.537 106.101 112.034 106.597 111.503 107.116C111.283 107.339 111.283 107.339 111.058 107.566C110.747 107.878 110.433 108.188 110.118 108.496C109.638 108.968 109.166 109.448 108.696 109.93C108.392 110.232 108.087 110.535 107.782 110.836C107.642 110.98 107.502 111.124 107.357 111.271C106.635 111.966 106.289 112.243 105.27 112.391C104.513 112.269 104.157 112.159 103.564 111.693C103.327 111.517 103.327 111.517 103.086 111.338C102.764 111.086 102.443 110.835 102.121 110.583C101.158 109.843 101.158 109.843 99.9792 109.713C99.7678 109.782 99.5563 109.851 99.3384 109.922C99.0532 109.985 98.768 110.048 98.4741 110.112C97.5676 110.711 97.5309 110.912 97.2729 111.929C97.1725 112.43 97.0797 112.933 96.9946 113.437C96.9181 113.872 96.8401 114.307 96.7602 114.741C96.7312 114.925 96.7022 115.109 96.6724 115.299C96.4941 115.886 96.2987 116.101 95.8227 116.484C95.3514 116.574 95.3514 116.574 94.8074 116.575C94.6033 116.578 94.3991 116.58 94.1888 116.582C93.8592 116.58 93.8592 116.58 93.5229 116.578C93.1836 116.579 93.1836 116.579 92.8374 116.58C92.359 116.58 91.8807 116.579 91.4024 116.576C90.6693 116.572 89.9365 116.576 89.2035 116.58C88.739 116.58 88.2745 116.579 87.8101 116.578C87.5903 116.579 87.3706 116.581 87.1442 116.582C86.94 116.58 86.7359 116.578 86.5256 116.575C86.2563 116.574 86.2563 116.574 85.9816 116.574C85.3848 116.461 85.1792 116.252 84.8071 115.781C84.6524 115.282 84.6524 115.282 84.5581 114.712C84.5212 114.506 84.4844 114.3 84.4464 114.088C84.3744 113.654 84.3024 113.221 84.2303 112.787C84.1935 112.581 84.1566 112.375 84.1186 112.163C84.0875 111.975 84.0564 111.787 84.0243 111.593C83.8449 111.014 83.6304 110.772 83.1665 110.391C82.7235 110.15 82.7235 110.15 82.2436 109.98C82.0868 109.919 81.93 109.857 81.7685 109.794C81.0642 109.637 80.5654 109.795 79.9509 110.164C79.8189 110.261 79.687 110.358 79.5511 110.457C79.4029 110.562 79.2547 110.667 79.102 110.776C78.7955 110.996 78.4903 111.219 78.1865 111.444C78.0374 111.549 77.8883 111.653 77.7347 111.761C77.6019 111.858 77.4692 111.955 77.3325 112.054C76.5555 112.387 76.0359 112.382 75.1977 112.266C74.5659 111.87 74.0698 111.368 73.5507 110.836C73.3279 110.616 73.3279 110.616 73.1006 110.391C72.7884 110.08 72.4782 109.767 72.17 109.452C71.6982 108.971 71.2183 108.5 70.7368 108.029C70.434 107.725 70.1317 107.421 69.83 107.116C69.6865 106.976 69.543 106.835 69.3951 106.691C68.7003 105.969 68.4231 105.623 68.2758 104.604C68.3979 103.846 68.5078 103.49 68.9731 102.897C69.1491 102.661 69.1491 102.661 69.3288 102.42C69.5801 102.098 69.8316 101.776 70.0832 101.455C70.8238 100.492 70.8238 100.492 70.9534 99.3127C70.8845 99.1012 70.8156 98.8897 70.7446 98.6719C70.6818 98.3866 70.6189 98.1014 70.5542 97.8076C69.9556 96.9011 69.7541 96.8644 68.7378 96.6064C68.2363 96.506 67.7333 96.4132 67.229 96.3281C66.7941 96.2515 66.3595 96.1736 65.9253 96.0937C65.6493 96.0502 65.6493 96.0502 65.3677 96.0058C64.7749 95.8258 64.5628 95.6439 64.1821 95.1562C64.1023 94.6031 64.1023 94.6031 64.1135 93.9596C64.1152 93.752 64.117 93.5444 64.1188 93.3305C64.1252 93.0677 64.1316 92.8049 64.1382 92.5342C64.1527 91.6979 64.1672 90.8616 64.1821 90C61.8618 90 59.5415 90 57.1509 90C57.1509 91.1601 57.1509 92.3203 57.1509 93.5156C57.0503 94.2871 56.9442 94.9924 56.77 95.7422C56.7079 96.0213 56.7079 96.0213 56.6445 96.3061C55.0824 102.943 50.7319 108.951 44.9634 112.573C40.5683 115.253 35.933 116.579 30.7837 116.572C30.6297 116.572 30.4756 116.572 30.3169 116.572C22.7324 116.543 16.4443 113.497 11.0889 108.159C5.51075 102.288 3.99204 95.1791 4.15122 87.3008C4.20828 85.793 4.43917 84.4147 4.88524 82.9687C4.93181 82.8136 4.97837 82.6585 5.02635 82.4987C7.19432 75.4102 11.835 69.8163 18.3472 66.2549C21.5036 64.5982 25.2047 63.4287 28.7915 63.5156C28.7878 63.3482 28.7841 63.1808 28.7803 63.0083C28.6795 57.7256 28.8482 53.0525 32.7006 49.0302C35.3926 46.3319 38.2989 44.5219 41.8872 43.2861C42.0413 43.2321 42.1954 43.1781 42.3542 43.1225C46.0981 41.9147 49.8672 41.8447 53.7634 41.8515ZM40.7446 47.1094C40.4926 47.2245 40.2407 47.3396 39.9811 47.4582C37.9634 48.4574 36.4515 49.7429 34.8852 51.3281C34.7378 51.4731 34.5904 51.6181 34.4385 51.7676C32.0982 54.2511 31.7604 57.4715 31.8091 60.7178C31.8112 60.9877 31.8133 61.2576 31.8155 61.5358C31.821 62.1958 31.8286 62.8557 31.8384 63.5156C31.9678 63.5308 32.0973 63.5459 32.2307 63.5616C39.1652 64.3982 44.8484 66.7536 49.8852 71.7187C50.1381 71.9671 50.1381 71.9671 50.3961 72.2204C53.7807 75.7817 55.6361 80.3587 56.6821 85.0781C56.8368 85.6969 56.9915 86.3156 57.1509 86.9531C59.4712 86.9531 61.7915 86.9531 64.1821 86.9531C64.2595 86.257 64.3368 85.5609 64.4165 84.8437C64.9613 84.2989 65.1806 84.279 65.9235 84.1571C66.1292 84.1205 66.3349 84.084 66.5469 84.0463C66.98 83.9728 67.4134 83.9008 67.847 83.8302C69.3968 83.5637 69.3968 83.5637 70.5102 82.5C71.0651 81.4687 71.0651 81.4687 71.1877 80.3293C70.8382 79.2547 70.127 78.4081 69.4569 77.5085C69.3522 77.3605 69.2476 77.2124 69.1397 77.0599C69.043 76.9287 68.9463 76.7974 68.8467 76.6622C68.5137 75.8899 68.5213 75.3648 68.6352 74.5312C69.0169 73.9165 69.504 73.4378 70.0214 72.9355C70.1637 72.7921 70.306 72.6488 70.4526 72.5011C70.7537 72.2 71.0568 71.9008 71.3618 71.6037C71.8276 71.1484 72.2847 70.6857 72.7414 70.2214C73.0354 69.9293 73.3299 69.6377 73.6249 69.3466C73.7612 69.2082 73.8974 69.0698 74.0379 68.9272C74.6902 68.3006 75.0293 67.9954 75.9419 67.8511C76.599 67.9678 76.9735 68.1015 77.5204 68.4732C77.6798 68.5779 77.8392 68.6826 78.0034 68.7904C78.1652 68.9011 78.327 69.0119 78.4936 69.126C79.8915 70.1395 79.8915 70.1395 81.5259 70.5469C82.4423 70.3421 83.1541 69.9833 83.8696 69.375C84.2957 68.4638 84.434 67.5535 84.5727 66.5625C84.653 66.1225 84.7358 65.683 84.8218 65.2441C84.8535 65.0574 84.8852 64.8707 84.9179 64.6783C85.0415 64.2187 85.0415 64.2187 85.5102 63.75C86.1899 63.6781 86.8504 63.63 87.5317 63.6035C87.7197 63.5944 87.9076 63.5854 88.1012 63.576C88.5656 63.5539 89.0301 63.5345 89.4946 63.5156C89.5154 62.5977 89.5277 61.6798 89.5386 60.7617C89.5445 60.5058 89.5504 60.2499 89.5564 59.9862C89.5863 56.6153 88.7476 53.6589 86.413 51.1675C82.1571 46.8401 76.3029 45.0009 70.3449 44.9319C69.3597 44.9239 68.3745 44.9219 67.3892 44.9212C66.8583 44.9197 66.3274 44.9182 65.7965 44.9165C64.6868 44.9137 63.5772 44.9128 62.4675 44.9131C61.0584 44.9132 59.6495 44.9068 58.2404 44.8987C57.1443 44.8934 56.0482 44.8925 54.952 44.8928C54.4332 44.8922 53.9144 44.8902 53.3956 44.8865C49.0026 44.8584 44.7763 45.2401 40.7446 47.1094ZM12.3852 75C8.02592 80.3107 6.82758 86.569 7.22899 93.2812C7.73669 97.645 9.8916 102.223 12.854 105.469C12.9313 105.469 13.0087 105.469 13.0884 105.469C13.1657 100.828 13.2431 96.1875 13.3227 91.4062C14.2637 90.9357 14.6278 90.8784 15.6427 90.8768C15.9211 90.8753 16.1996 90.8739 16.4865 90.8723C16.7863 90.8733 17.0861 90.8742 17.395 90.8752C17.8579 90.8746 17.8579 90.8746 18.3301 90.8739C18.9826 90.8732 19.6351 90.8742 20.2876 90.8764C21.123 90.879 21.9584 90.8775 22.7938 90.8747C23.5918 90.8726 24.3899 90.8741 25.188 90.8752C25.6377 90.8738 25.6377 90.8738 26.0965 90.8723C26.5142 90.8746 26.5142 90.8746 26.9403 90.8768C27.1852 90.8772 27.4301 90.8776 27.6824 90.878C28.333 90.9384 28.7166 91.0503 29.2602 91.4062C29.5777 92.0411 29.5262 92.5402 29.5287 93.251C29.5302 93.5396 29.5317 93.8282 29.5332 94.1256C29.5336 94.442 29.5338 94.7584 29.534 95.0747C29.5347 95.3982 29.5355 95.7216 29.5364 96.0451C29.5378 96.7234 29.5382 97.4018 29.538 98.0801C29.538 98.9497 29.5412 99.8193 29.5453 100.689C29.5479 101.357 29.5483 102.025 29.5482 102.693C29.5485 103.014 29.5495 103.334 29.5513 103.655C29.5536 104.103 29.5527 104.552 29.5516 105C29.5519 105.255 29.5522 105.51 29.5526 105.773C29.4946 106.406 29.4946 106.406 29.0259 107.109C28.4356 107.203 28.4356 107.203 27.6818 107.211C27.4003 107.215 27.1187 107.22 26.8287 107.225C26.3709 107.227 26.3709 107.227 25.9039 107.229C25.5893 107.233 25.2747 107.237 24.9601 107.242C24.1317 107.253 23.3033 107.26 22.4748 107.266C21.6296 107.273 20.7844 107.284 19.9393 107.295C18.2807 107.315 16.622 107.331 14.9634 107.344C19.2458 111.644 24.9006 113.573 30.9009 113.672C36.5581 113.576 42.1516 111.364 46.3696 107.578C46.3696 107.501 46.3696 107.423 46.3696 107.344C46.1945 107.342 46.0193 107.341 45.8389 107.34C44.1903 107.326 42.5418 107.309 40.8933 107.288C40.0458 107.278 39.1982 107.269 38.3506 107.263C37.533 107.256 36.7155 107.247 35.8979 107.235C35.4334 107.229 34.9688 107.227 34.5043 107.225C34.082 107.218 34.082 107.218 33.6512 107.211C33.4024 107.208 33.1537 107.205 32.8974 107.203C32.6052 107.157 32.6052 107.157 32.3071 107.109C31.7621 106.292 31.7791 105.969 31.7777 105.004C31.7762 104.715 31.7748 104.426 31.7732 104.129C31.7741 103.814 31.775 103.499 31.7761 103.184C31.7758 102.86 31.7753 102.537 31.7748 102.214C31.7741 101.537 31.7751 100.86 31.7773 100.183C31.7799 99.3156 31.7784 98.448 31.7756 97.5802C31.7739 96.9131 31.7744 96.246 31.7756 95.5788C31.776 95.2589 31.7756 94.9389 31.7745 94.619C31.7733 94.1718 31.7754 93.7247 31.7777 93.2776C31.7781 93.0231 31.7785 92.7686 31.7788 92.5065C31.8384 91.875 31.8384 91.875 32.3071 91.1719C33.0516 90.9237 33.5839 90.9063 34.3661 90.9034C34.6445 90.9019 34.923 90.9004 35.2099 90.8989C35.6615 90.8985 35.6615 90.8985 36.1221 90.8981C36.431 90.8973 36.7399 90.8966 37.0582 90.8957C37.7121 90.8943 38.366 90.8939 39.0199 90.894C39.8572 90.8941 40.6944 90.8909 41.5316 90.8868C42.331 90.8836 43.1304 90.8837 43.9297 90.8835C44.2303 90.8818 44.5308 90.8801 44.8405 90.8784C45.2593 90.8794 45.2593 90.8794 45.6866 90.8805C45.9322 90.8802 46.1778 90.8799 46.4309 90.8795C47.0727 90.9375 47.0727 90.9375 48.0102 91.4062C48.0876 96.0469 48.1649 100.687 48.2446 105.469C51.2906 102.423 52.9611 98.6208 53.8696 94.4531C53.9105 94.2735 53.9513 94.0939 53.9934 93.9088C55.0525 87.8965 53.5664 81.6316 50.1196 76.6406C46.3207 71.3877 40.9782 67.8742 34.6082 66.6555C25.9053 65.4296 18.2435 68.5812 12.3852 75ZM87.6196 66.5625C87.1144 68.5396 87.1144 68.5396 86.77 70.5469C86.6341 71.1523 86.56 71.4015 86.0568 71.7727C85.5542 71.997 85.5542 71.997 84.9884 72.193C83.9552 72.5568 82.9982 73.0836 82.0212 73.5763C81.145 73.8787 80.7672 73.874 79.8852 73.5937C79.2397 73.2393 78.6412 72.831 78.0395 72.4072C77.8782 72.2965 77.7169 72.1857 77.5507 72.0717C77.1555 71.8 76.7623 71.5253 76.3696 71.25C74.7797 72.5508 73.3567 74.0073 71.9165 75.4687C72.6137 76.7736 73.3514 77.9862 74.2511 79.1629C74.5948 79.9033 74.4687 80.311 74.2602 81.0937C74.0505 81.6465 73.8249 82.1934 73.5864 82.7344C73.4061 83.1477 73.4061 83.1477 73.222 83.5693C73.1006 83.8352 72.9791 84.1011 72.854 84.375C72.7691 84.6297 72.6842 84.8844 72.5967 85.1468C72.003 85.9916 71.5153 86.0424 70.529 86.2266C70.3246 86.2585 70.1202 86.2904 69.9097 86.3232C69.504 86.3952 69.0984 86.4675 68.6929 86.5402C68.5133 86.5693 68.3337 86.5984 68.1486 86.6284C67.6806 86.7016 67.6806 86.7016 67.229 86.9531C67.229 88.964 67.229 90.975 67.229 93.0469C69.2062 93.5521 69.2062 93.5521 71.2134 93.8965C71.8188 94.0323 72.068 94.1064 72.4393 94.6097C72.6636 95.1123 72.6636 95.1123 72.8595 95.6781C73.2233 96.7113 73.7502 97.6683 74.2429 98.6453C74.5452 99.5215 74.5405 99.8993 74.2602 100.781C73.9058 101.427 73.4976 102.025 73.0737 102.627C72.963 102.788 72.8523 102.95 72.7382 103.116C72.4665 103.511 72.1918 103.904 71.9165 104.297C73.2174 105.887 74.6738 107.31 76.1352 108.75C77.1742 108.196 78.1835 107.645 79.1235 106.934C79.8846 106.407 80.1574 106.222 81.0571 106.172C81.7434 106.365 82.3836 106.645 83.0347 106.934C83.2076 107.007 83.3806 107.08 83.5588 107.156C83.899 107.302 84.2373 107.452 84.5734 107.607C85.0857 107.842 85.0857 107.842 85.8279 108.055C86.8549 108.818 86.8988 109.927 87.1216 111.138C87.3681 112.392 87.3681 112.392 87.6196 113.672C89.6306 113.672 91.6415 113.672 93.7134 113.672C94.0143 112.019 94.0143 112.019 94.2947 110.362C94.6331 108.707 94.6331 108.707 95.3416 108.169C95.8855 107.929 96.4256 107.75 96.9946 107.578C97.2886 107.445 97.5804 107.307 97.869 107.162C98.1363 107.039 98.4037 106.915 98.6792 106.787C98.9484 106.66 99.2176 106.532 99.4949 106.401C100.456 106.119 100.787 106.212 101.682 106.641C102.274 106.979 102.843 107.346 103.411 107.725C103.636 107.872 103.636 107.872 103.866 108.023C104.232 108.264 104.598 108.507 104.963 108.75C106.553 107.449 107.976 105.993 109.416 104.531C108.863 103.492 108.312 102.483 107.6 101.543C107.073 100.782 106.888 100.509 106.838 99.6094C107.032 98.9231 107.312 98.2829 107.6 97.6318C107.674 97.4588 107.747 97.2859 107.823 97.1077C107.968 96.7678 108.118 96.4297 108.272 96.0936C108.508 95.5781 108.508 95.5781 108.745 94.8303C109.333 94.0076 109.837 93.9539 110.804 93.7733C111.008 93.7415 111.213 93.7096 111.423 93.6767C111.829 93.6048 112.235 93.5325 112.64 93.4598C112.82 93.4307 112.999 93.4016 113.184 93.3716C113.652 93.2983 113.652 93.2983 114.104 93.0469C114.104 91.0359 114.104 89.025 114.104 86.9531C112.127 86.4478 112.127 86.4478 110.12 86.1035C109.514 85.9676 109.265 85.8935 108.894 85.3903C108.669 84.8877 108.669 84.8877 108.474 84.3219C108.11 83.2887 107.583 82.3317 107.09 81.3547C106.788 80.4785 106.792 80.1007 107.073 79.2187C107.427 78.5732 107.835 77.9747 108.259 77.373C108.37 77.2117 108.481 77.0504 108.595 76.8841C108.867 76.4889 109.141 76.0958 109.416 75.7031C108.116 74.1132 106.659 72.6902 105.198 71.25C103.893 71.9472 102.68 72.6849 101.504 73.5846C100.763 73.9283 100.355 73.8022 99.5727 73.5937C99.02 73.3839 98.4731 73.1584 97.9321 72.9199C97.5188 72.7395 97.5188 72.7395 97.0972 72.5555C96.8313 72.4341 96.5654 72.3126 96.2915 72.1875C96.0368 72.1026 95.7821 72.0177 95.5197 71.9302C94.6749 71.3365 94.6241 70.8487 94.4398 69.8625C94.408 69.6581 94.3761 69.4537 94.3433 69.2431C94.2713 68.8375 94.199 68.4319 94.1263 68.0264C94.0972 67.8468 94.0681 67.6671 94.0381 67.4821C93.9649 67.0141 93.9649 67.0141 93.7134 66.5625C91.7024 66.5625 89.6915 66.5625 87.6196 66.5625ZM16.1352 93.75C16.1352 97.3078 16.1352 100.866 16.1352 104.531C19.6157 104.531 23.0962 104.531 26.6821 104.531C26.6821 100.973 26.6821 97.4156 26.6821 93.75C25.4446 93.75 24.2071 93.75 22.9321 93.75C22.9206 94.1452 22.9092 94.5403 22.8973 94.9475C22.8797 95.4663 22.862 95.9851 22.8442 96.5039C22.8334 96.8945 22.8334 96.8945 22.8223 97.2931C22.8132 97.5438 22.8041 97.7946 22.7948 98.053C22.7874 98.2837 22.7801 98.5145 22.7725 98.7522C22.6975 99.377 22.5469 99.7749 22.229 100.312C20.787 100.335 20.787 100.335 20.354 100.312C19.9312 99.8897 20.0641 99.2421 20.0455 98.6709C20.0356 98.3862 20.0258 98.1014 20.0157 97.8081C20.0065 97.5082 19.9973 97.2083 19.9878 96.8994C19.9777 96.5986 19.9675 96.2979 19.9571 95.988C19.9322 95.242 19.9086 94.496 19.8852 93.75C18.6477 93.75 17.4102 93.75 16.1352 93.75ZM34.6509 93.75C34.6509 97.3078 34.6509 100.866 34.6509 104.531C38.1313 104.531 41.6118 104.531 45.1977 104.531C45.1977 100.973 45.1977 97.4156 45.1977 93.75C43.9602 93.75 42.7227 93.75 41.4477 93.75C41.3704 95.9156 41.2931 98.0812 41.2134 100.312C40.5173 100.312 39.8212 100.312 39.104 100.312C38.6508 99.4061 38.5693 99.0273 38.5382 98.053C38.5291 97.8022 38.5201 97.5514 38.5107 97.2931C38.5035 97.0326 38.4962 96.7722 38.4888 96.5039C38.4797 96.2398 38.4706 95.9758 38.4613 95.7037C38.4392 95.0525 38.4198 94.4013 38.4009 93.75C37.1634 93.75 35.9259 93.75 34.6509 93.75Z" fill="white"/>
<path d="M70.4527 6.53413C73.5953 8.90908 75.853 12.5341 76.6041 16.4063C76.6839 16.7978 76.6839 16.7978 76.7653 17.1973C77.2729 23.0854 75.1687 28.309 71.4479 32.8125C68.9474 35.6447 65.5875 37.9976 61.714 38.259C57.6385 38.3352 54.3111 37.0693 51.3403 34.2575C47.3785 30.4087 44.5993 25.2884 44.4362 19.6875C44.4905 15.7264 45.8038 11.883 48.4791 8.90627C48.6417 8.71955 48.8042 8.53284 48.9717 8.34047C54.6319 2.23774 63.7902 1.9885 70.4527 6.53413ZM52.6979 9.14064C52.5492 9.24336 52.4006 9.34608 52.2474 9.45192C49.727 11.3712 48.1391 14.6222 47.6167 17.6853C47.0543 22.1504 48.807 26.3518 51.4885 29.8599C53.7042 32.5244 56.4038 34.7889 59.958 35.246C62.8617 35.3585 65.4572 34.1189 67.6402 32.2641C69.3203 30.6728 70.5269 28.9441 71.6823 26.9531C71.8004 26.7559 71.9185 26.5586 72.0402 26.3553C73.9387 22.9219 74.2228 19.1818 73.1654 15.455C72.0662 11.9654 69.5971 9.5464 66.526 7.73439C61.8667 5.6276 56.827 6.1304 52.6979 9.14064Z" fill="white"/>
<path d="M99.0719 79.704C101.636 81.8747 103.368 85.0125 103.791 88.3594C104.041 92.3171 103.043 95.9483 100.452 99.0088C98.1172 101.414 94.9048 102.961 91.5509 103.173C87.5998 103.227 83.9747 102.034 81.0992 99.2432C78.5551 96.3982 77.4495 92.9819 77.4929 89.2145C77.6935 85.6796 79.3595 82.2782 81.9946 79.9219C87.1613 75.905 93.7993 75.8916 99.0719 79.704ZM82.976 83.3935C81.0493 85.7429 80.3002 88.4042 80.5883 91.4062C81.1643 94.3274 82.5966 96.7107 85.0415 98.4375C87.5174 99.9222 89.9795 100.491 92.8482 99.9252C95.6667 99.1517 97.9347 97.5747 99.4482 95.051C100.819 92.4479 101.167 89.9144 100.378 87.041C99.4475 84.3104 97.666 82.2448 95.1196 80.9033C90.8126 78.9135 86.2212 79.939 82.976 83.3935Z" fill="white"/>
<path d="M23.601 72.5121C23.8728 72.5133 24.1446 72.5145 24.4247 72.5157C24.7328 72.5143 25.0409 72.5129 25.3584 72.5114C25.695 72.5159 26.0317 72.5205 26.3683 72.5253C26.713 72.5263 27.0577 72.5268 27.4024 72.527C28.1245 72.5284 28.8465 72.5337 29.5686 72.5421C30.4952 72.5527 31.4217 72.5561 32.3484 72.557C33.0599 72.558 33.7715 72.5616 34.483 72.5661C34.8248 72.5682 35.1665 72.5698 35.5083 72.5708C35.9852 72.573 36.4621 72.5786 36.939 72.5844C37.3465 72.5882 37.3465 72.5882 37.7622 72.592C38.4011 72.6562 38.4011 72.6562 38.8698 73.125C39.1353 73.8861 39.1366 74.6187 39.142 75.4197C39.1442 75.6927 39.1465 75.9657 39.1488 76.2469C39.1498 76.5409 39.1508 76.8349 39.1518 77.1377C39.1531 77.4406 39.1545 77.7434 39.1559 78.0554C39.1583 78.6959 39.1597 79.3363 39.1605 79.9768C39.1618 80.7959 39.1674 81.615 39.1741 82.434C39.1795 83.2174 39.18 84.0008 39.1811 84.7842C39.184 85.0777 39.1869 85.3712 39.1899 85.6736C39.1892 85.9473 39.1885 86.221 39.1877 86.5031C39.189 86.8634 39.189 86.8634 39.1903 87.231C39.0893 88.0048 38.8713 88.4434 38.4011 89.0625C37.6588 89.3099 37.1256 89.3295 36.3458 89.3346C36.0681 89.3369 35.7904 89.3391 35.5043 89.3414C35.204 89.3424 34.9037 89.3434 34.5943 89.3445C34.286 89.3458 33.9776 89.3471 33.6599 89.3485C33.007 89.351 32.3541 89.3523 31.7011 89.3532C30.866 89.3544 30.0309 89.3601 29.1958 89.3667C28.3977 89.3722 27.5995 89.3726 26.8013 89.3738C26.3523 89.3781 26.3523 89.3781 25.8942 89.3825C25.615 89.3818 25.3359 89.3811 25.0482 89.3804C24.8031 89.3812 24.558 89.3821 24.3055 89.383C23.5255 89.2827 23.0868 89.0685 22.4636 88.5937C22.2161 87.8514 22.1965 87.3183 22.1914 86.5385C22.1892 86.2608 22.1869 85.9831 22.1846 85.6969C22.1836 85.3966 22.1826 85.0964 22.1816 84.787C22.1803 84.4786 22.1789 84.1702 22.1775 83.8525C22.1751 83.1996 22.1737 82.5467 22.1729 81.8938C22.1716 81.0586 22.166 80.2236 22.1593 79.3885C22.1539 78.5903 22.1534 77.7922 22.1523 76.994C22.1494 76.6946 22.1465 76.3953 22.1435 76.0869C22.1442 75.8077 22.1449 75.5285 22.1457 75.2409C22.1448 74.9958 22.1439 74.7507 22.1431 74.4982C22.2805 73.4288 22.4876 72.752 23.601 72.5121ZM25.2761 75.7031C25.2761 79.1836 25.2761 82.664 25.2761 86.25C28.8339 86.25 32.3917 86.25 36.0573 86.25C36.0573 82.7695 36.0573 79.289 36.0573 75.7031C34.7425 75.7031 33.4276 75.7031 32.0729 75.7031C31.9956 77.714 31.9183 79.725 31.8386 81.7968C30.4323 82.2656 30.4323 82.2656 29.8903 82.1191C29.3889 81.7106 29.3769 81.4886 29.2604 80.8593C29.2268 80.4535 29.2029 80.0468 29.1863 79.6399C29.1765 79.4103 29.1667 79.1806 29.1565 78.9441C29.1473 78.706 29.1381 78.4679 29.1286 78.2226C29.1185 77.9809 29.1084 77.7392 29.0979 77.4902C29.0731 76.8945 29.0495 76.2988 29.0261 75.7031C27.7886 75.7031 26.5511 75.7031 25.2761 75.7031Z" fill="white"/>
</svg>
