<svg width="120" height="120" viewBox="0 0 120 120" fill="none" xmlns="http://www.w3.org/2000/svg">
<g clip-path="url(#clip0_168_3641)">
<path d="M5.58721 7.70226C5.77726 7.70164 5.96731 7.70102 6.16312 7.70038C6.80541 7.69857 7.4477 7.69845 8.09 7.69831C8.55297 7.69737 9.01595 7.69633 9.47893 7.69519C10.7555 7.69238 12.0321 7.69106 13.3086 7.68999C14.6838 7.6886 16.0589 7.68588 17.434 7.68336C20.6002 7.67788 23.7663 7.67447 26.9324 7.67159C28.184 7.67045 29.4356 7.6692 30.6872 7.66793C36.3552 7.66218 42.0232 7.65724 47.6911 7.65441C49.0407 7.65372 50.3902 7.65303 51.7398 7.65232C51.9074 7.65224 52.0751 7.65215 52.2478 7.65206C57.6832 7.64921 63.1186 7.64196 68.554 7.63218C74.1416 7.62215 79.7292 7.61592 85.3169 7.61469C86.1062 7.61452 86.8955 7.6143 87.6848 7.61407C87.8402 7.61402 87.9955 7.61398 88.1555 7.61393C90.5002 7.61316 92.8448 7.60908 95.1894 7.60331C97.857 7.59675 100.525 7.59417 103.192 7.59679C104.553 7.59801 105.914 7.59732 107.276 7.59153C108.522 7.58627 109.768 7.58642 111.015 7.59087C111.465 7.59153 111.916 7.59021 112.367 7.5867C116.883 7.55366 116.883 7.55366 118.594 8.90625C119.649 10.0312 120.029 11.0581 120.031 12.5808C120.032 12.8597 120.033 13.1386 120.034 13.426C120.034 13.734 120.033 14.0419 120.033 14.3592C120.034 14.6885 120.035 15.0178 120.035 15.347C120.037 16.254 120.038 17.1609 120.038 18.0678C120.038 19.0451 120.04 20.0224 120.042 20.9997C120.045 23.1377 120.046 25.2756 120.047 27.4135C120.048 28.748 120.049 30.0824 120.05 31.4168C120.053 35.11 120.055 38.8032 120.056 42.4964C120.056 42.7329 120.056 42.9693 120.056 43.213C120.056 43.45 120.056 43.687 120.056 43.9312C120.056 44.4115 120.056 44.8918 120.057 45.3721C120.057 45.6104 120.057 45.8486 120.057 46.0941C120.058 49.9556 120.062 53.8171 120.067 57.6785C120.073 61.6412 120.076 65.6039 120.076 69.5665C120.076 71.7922 120.078 74.0178 120.082 76.2435C120.085 78.1385 120.087 80.0335 120.085 81.9285C120.084 82.8956 120.084 83.8626 120.087 84.8297C120.09 85.715 120.09 86.6001 120.087 87.4854C120.086 87.9575 120.089 88.4297 120.092 88.9018C120.091 89.1826 120.089 89.4634 120.087 89.7526C120.088 90.1154 120.088 90.1154 120.088 90.4856C119.907 91.9064 119.176 92.8243 118.125 93.75C117.115 94.4397 116.282 94.717 115.066 94.7163C114.878 94.7168 114.69 94.7173 114.496 94.7178C114.291 94.7171 114.086 94.7164 113.874 94.7157C113.546 94.716 113.546 94.716 113.211 94.7163C112.475 94.7167 111.74 94.7154 111.004 94.7141C110.477 94.7141 109.951 94.7141 109.424 94.7142C107.993 94.7143 106.562 94.7129 105.13 94.7113C103.635 94.7098 102.14 94.7097 100.645 94.7094C98.1345 94.7087 95.6244 94.7073 93.1142 94.7052C90.5288 94.703 87.9433 94.7014 85.3579 94.7004C85.1985 94.7003 85.0391 94.7003 84.8749 94.7002C84.0754 94.6999 83.2759 94.6996 82.4764 94.6993C75.8437 94.6969 69.2111 94.6926 62.5784 94.6875C62.5784 98.7867 62.5784 102.886 62.5784 107.109C63.7129 107.106 64.8474 107.102 66.0163 107.098C69.7619 107.087 73.5076 107.079 77.2533 107.073C79.5246 107.069 81.7959 107.064 84.0672 107.056C86.047 107.049 88.0268 107.045 90.0066 107.043C91.0548 107.042 92.1029 107.04 93.1511 107.035C94.1381 107.03 95.1251 107.029 96.1122 107.03C96.474 107.03 96.8357 107.028 97.1975 107.026C97.6927 107.022 98.1877 107.023 98.6829 107.025C98.9597 107.024 99.2365 107.024 99.5216 107.023C100.667 107.148 101.634 107.441 102.408 108.34C102.732 109.181 102.782 109.729 102.657 110.625C102.181 111.439 101.694 111.962 100.782 112.266C100.33 112.288 99.877 112.296 99.4245 112.296C99.1397 112.297 98.8549 112.298 98.5615 112.299C98.2438 112.299 97.9261 112.299 97.6084 112.299C97.2722 112.299 96.936 112.3 96.5998 112.301C95.6737 112.303 94.7477 112.303 93.8216 112.303C92.8237 112.304 91.8257 112.305 90.8278 112.307C88.6449 112.31 86.4619 112.312 84.279 112.313C82.9166 112.313 81.5542 112.314 80.1918 112.315C76.4216 112.318 72.6514 112.321 68.8812 112.321C68.5191 112.321 68.5192 112.321 68.1498 112.321C67.9078 112.322 67.6659 112.322 67.4166 112.322C66.9262 112.322 66.4359 112.322 65.9456 112.322C65.7024 112.322 65.4592 112.322 65.2086 112.322C61.2658 112.323 57.3231 112.327 53.3804 112.333C49.3348 112.338 45.2893 112.341 41.2437 112.341C38.9713 112.342 36.6989 112.343 34.4265 112.347C32.4919 112.351 30.5572 112.352 28.6226 112.35C27.6351 112.349 26.6477 112.349 25.6602 112.353C24.7566 112.356 23.8531 112.355 22.9495 112.352C22.6222 112.352 22.295 112.353 21.9677 112.355C21.5235 112.357 21.0793 112.355 20.6351 112.353C20.2646 112.353 20.2646 112.353 19.8867 112.353C18.9248 112.227 18.3117 111.818 17.6224 111.152C17.2201 110.39 17.2546 109.834 17.344 108.984C17.6851 108.102 17.9442 107.865 18.794 107.433C19.648 107.087 20.3914 107.023 21.3176 107.025C21.4731 107.024 21.6286 107.024 21.7888 107.023C22.3052 107.022 22.8215 107.026 23.3379 107.03C23.7099 107.03 24.0819 107.03 24.4539 107.029C25.4606 107.029 26.4672 107.033 27.4738 107.038C28.527 107.042 29.5802 107.043 30.6334 107.044C32.6263 107.046 34.6192 107.052 36.6122 107.059C38.8817 107.067 41.1511 107.07 43.4207 107.074C48.0878 107.081 52.755 107.094 57.4222 107.109C57.4222 103.01 57.4222 98.9109 57.4222 94.6875C55.0087 94.693 55.0087 94.693 52.5465 94.6987C47.396 94.71 42.2455 94.7178 37.095 94.7234C36.2948 94.7243 35.4945 94.7252 34.6942 94.7261C34.5349 94.7263 34.3755 94.7265 34.2114 94.7267C31.6331 94.7297 29.0549 94.7353 26.4766 94.7418C23.8302 94.7483 21.1839 94.7522 18.5375 94.7537C17.0514 94.7546 15.5654 94.7567 14.0793 94.7618C12.6804 94.7666 11.2815 94.7681 9.88256 94.767C9.36934 94.7672 8.85612 94.7686 8.34291 94.7713C7.64151 94.7748 6.94024 94.774 6.23883 94.7721C6.03637 94.7741 5.8339 94.7762 5.62531 94.7783C4.01748 94.7664 2.7015 94.4973 1.45048 93.4131C0.413356 92.1982 -0.028355 91.4687 -0.0311778 89.8424C-0.0322226 89.5638 -0.0332672 89.2851 -0.0343437 88.9981C-0.0343005 88.6904 -0.0342577 88.3828 -0.0342132 88.0658C-0.0349863 87.7369 -0.0358593 87.4079 -0.0368243 87.079C-0.0391743 86.173 -0.0400442 85.267 -0.0406657 84.3609C-0.04158 83.3846 -0.0438249 82.4082 -0.0458718 81.4319C-0.0505055 79.0729 -0.0528633 76.7139 -0.0549484 74.355C-0.0559754 73.2444 -0.0572336 72.1339 -0.0584617 71.0233C-0.062449 67.3321 -0.065846 63.6409 -0.0675432 59.9497C-0.0679908 58.9917 -0.0684407 58.0336 -0.068899 57.0755C-0.0690124 56.8374 -0.069126 56.5993 -0.0692428 56.3539C-0.0711885 52.4958 -0.0771272 48.6376 -0.0847384 44.7795C-0.0924869 40.8195 -0.0967105 36.8595 -0.0974596 32.8994C-0.0979673 30.6756 -0.100021 28.4518 -0.106005 26.228C-0.111089 24.3342 -0.112982 22.4404 -0.110701 20.5466C-0.109635 19.5804 -0.110086 18.6142 -0.114629 17.648C-0.118755 16.7631 -0.118533 15.8782 -0.114888 14.9932C-0.114066 14.5223 -0.117858 14.0514 -0.121826 13.5806C-0.109908 11.9111 0.0232264 10.7881 0.93778 9.375C1.46604 8.89252 1.46604 8.89252 2.00712 8.56934C2.18628 8.45846 2.36544 8.34758 2.55002 8.23334C3.5617 7.6949 4.4712 7.7005 5.58721 7.70226ZM4.92216 12.8906C4.92216 34.1602 4.92216 55.4297 4.92216 77.3438C7.16512 77.3438 9.40809 77.3438 11.719 77.3438C11.7224 76.4766 11.7259 75.6095 11.7294 74.716C11.7412 71.8534 11.7567 68.9909 11.7743 66.1283C11.7848 64.3925 11.7941 62.6566 11.8002 60.9207C11.8056 59.4077 11.8134 57.8946 11.8242 56.3816C11.8298 55.5805 11.8342 54.7795 11.8357 53.9784C11.8379 53.0839 11.8445 52.1895 11.8521 51.295C11.8517 51.0296 11.8514 50.7643 11.851 50.4909C11.854 50.2467 11.8569 50.0025 11.86 49.751C11.861 49.5395 11.8621 49.328 11.8632 49.11C11.9733 48.3843 12.235 47.9396 12.6565 47.3438C13.3388 46.8758 13.8978 46.8152 14.7146 46.8106C14.936 46.8084 15.1573 46.8062 15.3854 46.8039C15.623 46.8041 15.8606 46.8043 16.1053 46.8045C16.3509 46.8035 16.5965 46.8025 16.8496 46.8015C17.3687 46.8001 17.8878 46.8 18.4069 46.801C19.2006 46.8018 19.9941 46.7963 20.7878 46.7903C21.2924 46.7898 21.797 46.7896 22.3016 46.7899C22.5387 46.7877 22.7758 46.7855 23.0201 46.7833C25.1357 46.7972 25.1357 46.7972 26.0159 47.5781C26.4678 48.309 26.5447 48.8701 26.5499 49.7228C26.5525 49.9666 26.5552 50.2105 26.5579 50.4617C26.5584 50.7279 26.5589 50.9941 26.5594 51.2684C26.5617 51.5497 26.5641 51.831 26.5665 52.1209C26.5725 52.8912 26.5765 53.6615 26.5795 54.4319C26.5832 55.2374 26.5895 56.0429 26.5955 56.8483C26.6064 58.3731 26.615 59.8979 26.6228 61.4227C26.6318 63.1588 26.6433 64.8949 26.6551 66.6311C26.6794 70.2019 26.6999 73.7728 26.719 77.3438C29.1167 77.3438 31.5143 77.3438 33.9847 77.3438C33.9867 76.5196 33.9867 76.5196 33.9888 75.6789C34.0021 70.509 34.0192 65.3392 34.0399 60.1694C34.0504 57.5113 34.0597 54.8533 34.0659 52.1952C34.0712 49.8787 34.0791 47.5622 34.0898 45.2458C34.0954 44.019 34.0998 42.7922 34.1013 41.5653C34.1027 40.4109 34.1074 39.2565 34.1146 38.1021C34.1166 37.6782 34.1175 37.2542 34.1171 36.8303C34.1167 36.2518 34.1206 35.6735 34.1256 35.095C34.1244 34.9269 34.1233 34.7589 34.1221 34.5858C34.1366 33.5675 34.2981 32.9202 34.9222 32.1094C35.506 31.8175 35.8986 31.8452 36.5517 31.8447C36.7934 31.8439 37.0351 31.8432 37.2842 31.8424C37.5461 31.8429 37.8081 31.8434 38.078 31.8439C38.4803 31.8435 38.4803 31.8435 38.8907 31.8432C39.4587 31.843 40.0267 31.8435 40.5947 31.8444C41.4656 31.8457 42.3364 31.8445 43.2072 31.843C43.7582 31.8431 44.3092 31.8434 44.8602 31.8439C45.1217 31.8434 45.3832 31.8429 45.6526 31.8424C46.0162 31.8435 46.0162 31.8435 46.3872 31.8447C46.6008 31.8449 46.8143 31.845 47.0343 31.8452C47.5784 31.875 47.5784 31.875 48.2815 32.1094C48.7664 33.1758 48.8187 34.1963 48.8155 35.3486C48.8169 35.5288 48.8183 35.709 48.8197 35.8946C48.8236 36.4959 48.8243 37.0972 48.825 37.6986C48.8272 38.1306 48.8296 38.5626 48.8321 38.9946C48.8385 40.1658 48.8421 41.3371 48.8451 42.5084C48.8488 43.733 48.8551 44.9576 48.8611 46.1822C48.872 48.5005 48.8807 50.8189 48.8884 53.1372C48.8974 55.7768 48.909 58.4164 48.9208 61.056C48.945 66.4852 48.9658 71.9145 48.9847 77.3438C51.3823 77.3438 53.78 77.3438 56.2503 77.3438C56.259 76.6129 56.2678 75.8821 56.2768 75.1291C56.2877 74.4201 56.2997 73.7111 56.3118 73.0022C56.3196 72.51 56.3261 72.0178 56.3315 71.5256C56.3393 70.8175 56.3516 70.1096 56.3647 69.4016C56.3662 69.182 56.3677 68.9625 56.3693 68.7363C56.3947 67.6033 56.4149 66.7559 57.1878 65.8594C57.8925 65.4279 58.4252 65.3308 59.2458 65.3263C59.4672 65.324 59.6886 65.3218 59.9167 65.3195C60.1542 65.3197 60.3918 65.3199 60.6366 65.3201C60.8822 65.3191 61.1278 65.3181 61.3808 65.3171C61.8999 65.3157 62.419 65.3156 62.9382 65.3166C63.7319 65.3174 64.5254 65.3119 65.319 65.3059C65.8236 65.3054 66.3283 65.3052 66.8329 65.3055C67.07 65.3033 67.307 65.3012 67.5513 65.2989C69.6979 65.313 69.6979 65.313 70.5472 66.0938C71.9426 69.5823 71.1629 73.5875 71.2503 77.3438C85.7136 77.3438 100.177 77.3438 115.078 77.3438C115.078 56.0742 115.078 34.8047 115.078 12.8906C78.7268 12.8906 42.3753 12.8906 4.92216 12.8906ZM39.1409 36.5625C39.1409 50.0203 39.1409 63.4781 39.1409 77.3438C40.6878 77.3438 42.2347 77.3438 43.8284 77.3438C43.8284 63.8859 43.8284 50.4281 43.8284 36.5625C42.2815 36.5625 40.7347 36.5625 39.1409 36.5625ZM16.8753 51.7969C16.8753 60.2273 16.8753 68.6578 16.8753 77.3438C18.4222 77.3438 19.969 77.3438 21.5628 77.3438C21.5628 68.9133 21.5628 60.4828 21.5628 51.7969C20.0159 51.7969 18.469 51.7969 16.8753 51.7969ZM61.1722 70.3125C61.1722 72.6328 61.1722 74.9531 61.1722 77.3438C62.7964 77.3438 64.4206 77.3438 66.094 77.3438C66.094 75.0234 66.094 72.7031 66.094 70.3125C64.4698 70.3125 62.8456 70.3125 61.1722 70.3125ZM4.92216 82.2656C4.92216 84.6633 4.92216 87.0609 4.92216 89.5313C41.2737 89.5313 77.6253 89.5313 115.078 89.5313C115.078 87.1336 115.078 84.7359 115.078 82.2656C78.7268 82.2656 42.3753 82.2656 4.92216 82.2656Z" fill="white"/>
<path d="M101.748 22.9101C102.13 23.2409 102.511 23.5729 102.891 23.9062C103.192 24.1442 103.192 24.1442 103.5 24.3869C107.843 27.9158 110.369 33.9482 111.094 39.375C111.615 46.5102 109.905 53.0412 105.234 58.5937C100.903 63.4969 94.8892 66.544 88.3594 67.0312C81.7168 67.4074 75.6968 65.3438 70.5469 61.1719C70.3819 61.0456 70.217 60.9193 70.047 60.7892C65.3761 57.026 62.6036 50.7559 61.9336 44.9121C61.9088 44.5511 61.8892 44.1897 61.875 43.8281C61.8656 43.6387 61.8563 43.4493 61.8466 43.2541C61.7214 38.3256 63.0294 34.0394 65.3906 29.7656C65.5154 29.5369 65.6402 29.3082 65.7687 29.0726C68.9849 23.6218 74.6087 19.9694 80.6423 18.3882C87.8582 16.6552 95.9496 18.1829 101.748 22.9101ZM89.0625 22.9687C89.0776 23.2934 89.0776 23.2934 89.093 23.6246C89.2183 26.4373 89.2843 29.25 89.3115 32.0654C89.3138 32.2927 89.316 32.5199 89.3183 32.754C89.3866 42.1093 87.3534 50.0741 83.856 58.6986C83.7664 58.9199 83.7664 58.9199 83.6749 59.1458C83.5147 59.5388 83.3522 59.9308 83.1896 60.3228C82.9291 60.9389 82.9291 60.9389 82.9688 61.6406C87.3067 62.8812 92.1308 61.6064 95.9656 59.5285C96.243 59.3737 96.5201 59.2185 96.7969 59.0625C96.9939 58.9546 97.1908 58.8468 97.3938 58.7356C101.443 56.29 104.442 51.8587 105.595 47.3147C106.813 41.9173 106.048 36.6349 103.14 31.8841C100.012 27.2763 95.7184 24.3027 90.2655 23.1079C89.579 22.9542 89.579 22.9542 89.0625 22.9687ZM71.8781 29.2786C71.4718 29.7811 71.3806 30.0848 71.25 30.7031C71.4027 30.7912 71.5554 30.8793 71.7127 30.97C72.1778 31.2384 72.6429 31.5067 73.108 31.7751C73.6511 32.0884 74.1941 32.4016 74.7373 32.7146C76.0432 33.4675 77.3487 34.221 78.6522 34.978C79.0738 35.2229 79.4956 35.4674 79.9174 35.7119C80.4511 36.0213 80.9845 36.3313 81.5175 36.6417C81.7593 36.7818 82.001 36.9218 82.2501 37.066C82.5693 37.2516 82.5693 37.2516 82.895 37.4408C83.4486 37.7606 83.4486 37.7606 84.1406 37.9687C84.1406 33.0187 84.1406 28.0687 84.1406 22.9687C79.554 22.9687 74.9649 26.2246 71.8781 29.2786ZM68.4375 34.9219C66.5098 39.7599 66.3951 44.9659 68.3908 49.8093C69.2042 51.6706 70.1234 53.3229 71.4844 54.8437C71.623 55.0153 71.7617 55.187 71.9046 55.3638C73.426 57.1957 75.3655 58.8401 77.5781 59.7656C77.8102 59.6883 78.0422 59.6109 78.2812 59.5312C78.5868 58.8953 78.5868 58.8953 78.8344 58.0958C78.8848 57.946 78.9352 57.7962 78.9871 57.6419C79.1534 57.1452 79.3157 56.6473 79.4778 56.1493C79.5922 55.8044 79.7068 55.4596 79.8216 55.1149C80.0619 54.3916 80.3003 53.6676 80.5373 52.9432C80.8412 52.0142 81.1485 51.0863 81.4571 50.1587C81.6938 49.4465 81.9294 48.7338 82.1646 48.021C82.2775 47.6787 82.3907 47.3365 82.5041 46.9944C82.6623 46.5162 82.819 46.0374 82.9753 45.5586C83.0648 45.286 83.1543 45.0135 83.2465 44.7327C83.4696 44.0659 83.4696 44.0659 83.4375 43.3594C83.1982 43.2282 82.9589 43.0971 82.7124 42.962C80.6085 41.8038 78.5227 40.6179 76.4502 39.4043C74.5696 38.3032 72.6866 37.2067 70.7959 36.123C70.5849 36.0016 70.3739 35.8802 70.1566 35.7551C69.868 35.5901 69.868 35.5901 69.5737 35.4217C69.4045 35.3248 69.2353 35.2279 69.061 35.128C68.7107 34.9036 68.7107 34.9036 68.4375 34.9219Z" fill="white"/>
</g>
<defs>
<clipPath id="clip0_168_3641">
<rect width="120" height="120" fill="white"/>
</clipPath>
</defs>
</svg>
