<svg width="121" height="120" viewBox="0 0 121 120" fill="none" xmlns="http://www.w3.org/2000/svg">
<path d="M106.738 15.4688C107.07 15.7742 107.07 15.7742 107.408 16.0859C112.83 21.1746 116.461 28.8248 116.864 36.2747C116.893 37.2447 116.894 38.2142 116.889 39.1846C116.889 39.441 116.889 39.441 116.888 39.7026C116.848 49.0927 112.927 57.0742 106.359 63.6622C100.875 68.8697 92.8998 72.2645 85.3072 72.2104C85.1278 72.2101 84.9484 72.2098 84.7635 72.2094C84.1977 72.2081 83.6319 72.2052 83.066 72.2022C82.6794 72.201 82.2927 72.2 81.906 72.199C80.9646 72.1964 80.0231 72.1924 79.0816 72.1876C79.0205 72.304 78.9593 72.4205 78.8962 72.5405C78.7121 72.8911 78.5278 73.2415 78.3434 73.592C78.1302 73.9979 77.9175 74.4041 77.7054 74.8105C77.2205 75.7372 76.7337 76.6595 76.206 77.5626C74.9062 79.8106 74.2251 82.0739 73.691 84.6094C73.636 84.8693 73.581 85.1291 73.5244 85.3968C71.9908 93.9762 73.5304 103.63 78.5506 110.863C78.9619 111.443 79.3821 112.016 79.8067 112.586C80.2535 113.203 80.2535 113.203 80.2535 113.438C63.702 113.438 47.1504 113.438 30.0973 113.438C30.0973 109.184 30.0973 104.93 30.0973 100.547C28.3957 100.547 26.6941 100.547 24.941 100.547C23.8818 100.472 22.8551 100.389 21.8062 100.254C21.4232 100.207 21.4232 100.207 21.0325 100.158C17.227 99.6601 13.0601 98.9058 10.4098 95.8594C9.41619 94.3155 9.04564 92.7742 9.23788 90.9376C9.58186 89.4476 10.0117 88.0011 10.6295 86.6016C10.9693 85.7845 10.9693 85.7845 10.5855 85.0196C10.4502 84.8069 10.3148 84.5942 10.1754 84.3751C9.94036 83.667 9.94665 83.0925 9.9996 82.3536C10.017 81.3672 9.83678 80.7798 9.35507 79.9219C8.40187 78.2067 8.72378 76.6435 9.00351 74.7657C8.8026 74.669 8.60169 74.5723 8.39468 74.4727C6.33324 73.4315 4.60847 72.372 3.84726 70.0782C3.24987 67.1554 4.55919 65.1607 6.03217 62.7536C6.44319 62.0803 6.84358 61.4014 7.24204 60.7206C7.75949 59.8371 8.27998 58.9556 8.80484 58.0765C8.9187 57.883 9.03257 57.6894 9.14988 57.49C9.35133 57.1546 9.55949 56.8229 9.77725 56.4978C10.2423 55.7815 10.4118 55.3706 10.3814 54.5078C10.1989 53.7673 10.0151 53.0274 9.82108 52.2899C8.5036 47.1093 9.06912 41.9774 11.5816 37.2657C11.71 37.0246 11.8384 36.7835 11.9707 36.5351C17.427 26.766 28.53 19.4065 39.1181 16.3337C45.6692 14.5326 52.724 14.0618 59.3758 15.6171C59.9711 15.7223 60.4309 15.7819 61.0348 15.7032C61.6336 15.2633 61.6336 15.2633 62.2066 14.6631C74.4411 2.96056 94.8237 4.04169 106.738 15.4688ZM61.4314 19.7132C58.3045 23.2064 56.1382 27.5988 54.941 32.1094C54.8997 32.2643 54.8583 32.4192 54.8157 32.5787C52.9347 40.041 54.5176 48.3357 58.4218 54.88C63.1182 62.4277 70.2191 66.7446 78.6696 68.8624C82.6421 69.6375 87.1163 69.4172 91.0348 68.4376C91.186 68.3998 91.3372 68.3621 91.493 68.3232C96.6459 66.9915 101.036 64.3673 104.863 60.7032C105.038 60.5431 105.213 60.3829 105.393 60.2179C106.945 58.7502 108.139 57.0836 109.316 55.3126C109.537 54.9844 109.537 54.9844 109.763 54.6497C113.637 48.4856 114.896 40.3295 113.403 33.2227C113.237 32.5303 113.044 31.8514 112.832 31.1719C112.775 30.9886 112.718 30.8052 112.66 30.6163C111.381 26.5986 109.42 23.1593 106.738 19.9219C106.581 19.7295 106.425 19.537 106.264 19.3387C105.082 17.9421 103.731 16.8173 102.285 15.7032C102.082 15.5437 101.879 15.3841 101.67 15.2198C89.1182 5.6704 71.7972 8.56119 61.4314 19.7132ZM24.4723 27.4219C24.2348 27.6114 23.9973 27.8008 23.7527 27.996C18.7191 32.0944 14.112 36.8981 12.5191 43.3594C12.4747 43.5371 12.4303 43.7147 12.3846 43.8978C11.8355 47.3836 12.2928 51.0884 13.7441 54.3101C14.0241 55.1346 13.8147 55.7642 13.4368 56.5328C13.3312 56.7069 13.2257 56.8809 13.117 57.0603C12.997 57.2605 12.877 57.4607 12.7533 57.6669C12.5576 57.988 12.5576 57.988 12.358 58.3155C12.0819 58.7753 11.8061 59.2352 11.5304 59.6952C11.386 59.9352 11.2415 60.1752 11.0927 60.4225C10.3329 61.692 9.58759 62.9699 8.84238 64.2481C8.63156 64.6083 8.63156 64.6083 8.41649 64.9758C8.28542 65.2003 8.15436 65.4248 8.01932 65.6562C7.9037 65.8541 7.78808 66.052 7.66896 66.256C7.04128 67.3653 6.57512 68.303 6.89413 69.6094C7.95421 71.0837 10.1384 72.0971 11.816 72.6563C12.4329 73.9774 12.2487 75.1912 11.925 76.5583C11.7673 77.3559 11.8399 77.9683 12.0504 78.7501C12.2099 78.9579 12.3694 79.1658 12.5338 79.3799C13.1297 80.3988 13.0181 81.1441 12.9751 82.2996C12.9927 83.2206 13.2679 83.952 13.9254 84.6094C14.1477 86.4518 13.5674 87.7915 12.8496 89.448C12.3577 90.6185 12.1744 91.5327 12.2848 92.8126C13.1206 94.5933 14.823 95.4874 16.606 96.1377C20.7362 97.4037 25.0517 97.5381 29.3355 97.5147C30.5924 97.5099 31.8492 97.505 33.1441 97.5001C33.1441 101.831 33.1441 106.163 33.1441 110.625C46.834 110.625 60.5238 110.625 74.6285 110.625C73.7004 108.653 73.7004 108.653 72.7535 106.641C72.4764 105.941 72.2173 105.273 71.9918 104.561C71.9088 104.306 71.9088 104.306 71.8241 104.045C70.8221 100.856 70.1486 97.5183 70.1278 94.1703C70.1261 93.9924 70.1245 93.8146 70.1228 93.6314C70.0698 86.2698 70.0698 86.2698 70.8785 82.9688C70.9164 82.7949 70.9542 82.6209 70.9932 82.4417C71.8124 78.7499 73.6305 75.5614 75.4734 72.3C75.668 71.9541 75.8573 71.605 76.0348 71.2501C75.9124 71.2102 75.79 71.1703 75.664 71.1292C70.8424 69.5417 66.5788 67.5212 62.6754 64.2188C62.485 64.0602 62.2947 63.9016 62.0986 63.7382C55.9822 58.461 52.4464 50.8216 51.4254 42.8907C50.9661 33.5903 53.2116 26.1581 58.4566 18.5157C46.2442 16.4178 34.1592 19.6749 24.4723 27.4219Z" fill="white"/>
<path d="M86.4359 15.1318C87.6734 15.864 88.4823 16.8202 89.014 18.1494C89.1774 19.0806 89.1703 19.9152 89.1605 20.8594C89.4188 21.0014 89.6771 21.1434 89.9433 21.2897C90.1132 21.3836 90.2832 21.4775 90.4583 21.5743C90.8366 21.7831 91.2155 21.991 91.5948 22.198C92.5775 22.7387 93.5363 23.2951 94.4724 23.9136C94.6458 24.0252 94.8193 24.1369 94.998 24.252C95.328 24.4663 95.6541 24.687 95.9752 24.9146C96.4494 25.2178 96.8131 25.4249 97.3636 25.5469C97.9633 25.3925 98.4458 25.1695 98.9868 24.8699C100.174 24.2337 101.275 24.3054 102.549 24.6387C104.009 25.1401 104.949 25.8431 105.655 27.2314C106.269 28.7874 106.272 30.2506 105.684 31.8164C105.059 33.0851 103.998 33.8314 102.754 34.4531C102.677 37.7016 102.6 40.95 102.52 44.2969C102.907 44.4516 103.293 44.6062 103.692 44.7656C104.897 45.5603 105.641 46.3972 106.035 47.8125C106.235 49.4812 106.124 50.8945 105.098 52.2656C104.117 53.3094 103.126 54.0326 101.673 54.2193C100.319 54.2389 99.3941 54.1234 98.2434 53.3853C97.6886 53.1394 97.4691 53.2504 96.8949 53.4375C96.493 53.6398 96.0973 53.8546 95.7065 54.0774C95.4769 54.2078 95.2473 54.3382 95.0107 54.4725C94.772 54.6095 94.5334 54.7465 94.2874 54.8877C93.9376 55.0864 93.9376 55.0864 93.5807 55.2891C93.1153 55.5543 92.6509 55.8213 92.1875 56.09C91.7314 56.3532 91.2726 56.6119 90.8114 56.8659C90.598 56.9862 90.3846 57.1066 90.1648 57.2305C89.9736 57.3361 89.7824 57.4417 89.5854 57.5504C89.0518 57.8957 89.0518 57.8957 89.0579 58.7988C89.0785 58.9571 89.099 59.1154 89.1202 59.2786C89.2173 60.4528 88.5804 61.4525 87.9593 62.4023C86.8171 63.4949 85.6023 64.0241 84.0189 64.1162C82.5164 64.046 81.2038 63.4724 80.0977 62.4518C79.125 61.248 78.9216 59.7635 78.803 58.256C78.5374 57.4148 78.1437 57.2751 77.3749 56.8652C77.1198 56.7262 76.8646 56.5873 76.6017 56.4441C76.3327 56.3027 76.0637 56.1613 75.7865 56.0156C75.261 55.7328 74.7358 55.4496 74.2108 55.166C73.8346 54.9657 73.8346 54.9657 73.4508 54.7613C72.8402 54.4227 72.265 54.0608 71.6858 53.6719C70.9632 53.1416 70.9632 53.1416 70.3967 53.2681C69.9024 53.4348 69.9024 53.4348 69.3558 53.8037C68.0124 54.3554 66.5763 54.3795 65.1737 53.9868C63.7482 53.3508 62.7868 52.2839 62.1195 50.8887C61.7532 49.0571 61.8786 47.5363 62.9105 45.9375C63.6164 45.1723 64.2623 44.6275 65.2542 44.2969C65.3316 40.9711 65.4089 37.6453 65.4886 34.2187C65.1019 34.1414 64.7152 34.0641 64.3167 33.9844C63.2625 33.0844 62.1414 31.8999 61.973 30.4687C61.8661 28.8654 62.0207 27.5425 63.0469 26.2527C64.1992 25.0401 65.1827 24.5601 66.8683 24.3823C67.9845 24.3658 68.9486 24.6222 69.8355 25.2997C70.8179 25.5997 70.9789 25.4694 71.8625 25.0067C72.3293 24.7338 72.7925 24.4545 73.2523 24.1699C73.7344 23.8802 74.2166 23.5906 74.6988 23.3011C74.9292 23.1607 75.1596 23.0203 75.3969 22.8757C75.9261 22.5643 76.4497 22.2866 77.0059 22.0285C77.7162 21.6879 78.2846 21.41 78.848 20.8594C79.0367 20.1322 79.0534 19.5018 79.0412 18.7518C79.1101 17.5724 79.7084 16.7899 80.4886 15.9375C82.0978 14.5449 84.4881 14.2502 86.4359 15.1318ZM82.6126 18.2959C82.0074 19.158 81.9602 19.5919 82.1292 20.625C82.6109 21.3289 82.944 21.5233 83.7552 21.7822C84.6254 21.8 84.9717 21.636 85.6449 21.0937C86.0969 20.4979 86.1157 20.207 86.0843 19.4531C85.8425 18.6239 85.655 18.3005 84.9417 17.8125C83.9087 17.6434 83.4747 17.6906 82.6126 18.2959ZM80.4886 23.4375C79.9324 23.6907 79.9324 23.6907 79.3112 24.0747C79.0717 24.2161 78.8321 24.3575 78.5852 24.5032C78.3336 24.6542 78.0819 24.8053 77.8226 24.9609C77.3325 25.2515 76.8424 25.542 76.3523 25.8325C76.1088 25.9792 75.8654 26.1258 75.6146 26.2769C75.1022 26.5784 74.5834 26.869 74.0596 27.15C73.8046 27.2884 73.5497 27.4267 73.2871 27.5693C72.9397 27.7517 72.9397 27.7517 72.5852 27.9378C71.9958 28.3204 71.9958 28.3204 71.856 29.0042C71.8082 29.6397 71.8082 29.6397 71.8268 30.3012C71.8087 31.4455 71.3186 32.3508 70.5377 33.1714C69.9179 33.7112 69.2722 34.1006 68.5355 34.4531C68.4891 35.8335 68.4551 37.2135 68.4325 38.5944C68.4231 39.064 68.4103 39.5334 68.394 40.0028C68.3712 40.6783 68.3607 41.3532 68.3524 42.0291C68.3427 42.2384 68.333 42.4476 68.3231 42.6633C68.3226 43.2633 68.3414 43.7284 68.5355 44.2969C68.9815 44.7097 69.4077 44.9664 69.9524 45.2335C70.883 45.7114 71.4346 46.6302 71.8167 47.5781C71.8158 48.0305 71.8056 48.4829 71.7884 48.9349C71.8537 49.86 71.907 50.2508 72.5802 50.904C73.3186 51.3616 74.0641 51.7469 74.849 52.1191C75.3688 52.3844 75.8885 52.6499 76.4081 52.9156C76.7883 53.1018 76.7883 53.1018 77.1761 53.2917C78.0732 53.7561 78.9045 54.2966 79.7347 54.8709C80.2643 55.1442 80.2643 55.1442 80.8702 54.8959C81.0536 54.8014 81.2371 54.7068 81.4261 54.6094C82.7496 54.0141 83.9759 53.9764 85.4105 54.1406C85.9354 54.3572 86.3723 54.5942 86.8369 54.9188C87.5652 55.1774 87.9939 54.9092 88.6917 54.6094C89.3307 54.2704 89.949 53.9015 90.5667 53.5254C92.5881 52.295 92.5881 52.295 93.6576 51.785C95.2318 51.0962 95.2318 51.0962 96.1789 49.7671C96.2318 49.1026 96.2318 49.1026 96.1982 48.4405C96.1865 47.2996 96.6948 46.394 97.4707 45.5786C98.0905 45.0388 98.7362 44.6494 99.473 44.2969C99.5253 42.9208 99.5635 41.5453 99.5889 40.1684C99.5994 39.7005 99.6138 39.2326 99.6321 38.7649C99.8612 36.1726 99.8612 36.1726 99.0141 33.8468C98.4713 33.4903 97.9703 33.2702 97.3636 33.0469C96.7923 32.4609 96.7923 32.4609 96.4261 31.6406C96.4391 31.4086 96.4521 31.1766 96.4655 30.9375C96.4883 29.9624 96.4878 29.1884 95.9574 28.3594C94.499 27.1305 92.7371 26.3 91.041 25.4498C90.161 24.9882 89.3367 24.4577 88.5128 23.903C87.8408 23.6067 87.5089 23.6897 86.8167 23.9062C86.5702 24.0271 86.3237 24.1479 86.0697 24.2725C84.8528 24.8068 83.5332 24.8682 82.2821 24.4061C81.8262 24.1794 81.3917 23.937 80.9574 23.6719C80.8027 23.5945 80.648 23.5172 80.4886 23.4375ZM65.4886 28.125C65.0193 28.7167 65.0175 29.0064 65.0492 29.7656C65.2873 30.5821 65.5147 30.8985 66.1917 31.4062C66.7545 31.6594 66.7545 31.6594 67.3636 31.6406C68.0286 31.3159 68.4816 30.9914 69.0042 30.4687C69.1124 29.5133 69.0998 28.9909 68.6087 28.1543C67.5019 27.1372 66.7073 27.3396 65.4886 28.125ZM99.473 28.125C98.9242 28.9482 98.8879 29.2652 99.0042 30.2344C99.4613 31.0254 99.7558 31.3375 100.616 31.6553C101.579 31.636 102.017 31.3035 102.754 30.7031C103.093 30.0261 103.077 29.5789 102.989 28.8281C102.493 28.2088 102.069 27.7862 101.363 27.4219C100.604 27.4219 100.111 27.7364 99.473 28.125ZM65.7523 47.4609C65.1023 48.2257 65.0023 48.688 65.0199 49.6875C65.4339 50.3442 65.7301 50.7458 66.4261 51.0937C67.3667 51.2191 67.7244 51.1712 68.5062 50.6103C69.0647 49.9476 69.0647 49.9476 69.1361 49.0869C69.0611 48.2853 69.0611 48.2853 68.638 47.7246C67.6427 47.0611 66.8279 46.8997 65.7523 47.4609ZM99.2386 48.0469C98.9001 48.7239 98.9159 49.171 99.0042 49.9219C99.4582 50.6298 99.4582 50.6298 100.176 51.0937C101.105 51.2405 101.582 51.2483 102.373 50.7275C102.884 49.9621 102.989 49.4344 102.989 48.5156C102.674 47.8102 102.674 47.8102 102.051 47.3437C100.755 46.9431 100.181 47.0771 99.2386 48.0469ZM82.6273 57.4365C82.006 58.2953 81.9781 58.7264 82.1292 59.7656C82.3246 60.3516 82.3246 60.3516 82.8324 60.7031C83.4692 60.9154 84.0378 60.991 84.7074 60.9375C85.5427 60.4932 85.8089 60.2066 86.1136 59.3115C86.1136 58.4524 85.9336 58.0944 85.4105 57.4219C84.3506 56.7153 83.6737 56.6858 82.6273 57.4365Z" fill="white"/>
<path d="M88.2373 32.0068C90.4551 33.4313 91.7672 35.3042 92.3426 37.8699C92.7146 40.0054 92.2406 42.1062 91.1423 43.9746C89.8145 45.7733 88.1242 47.1917 85.8789 47.5781C82.8731 47.8299 80.5389 47.4447 78.1546 45.4825C76.4531 43.7679 75.7071 41.6752 75.7129 39.3017C75.7193 37.7314 75.8568 36.4976 76.7383 35.1562C76.8404 34.9937 76.9426 34.8311 77.0478 34.6637C79.5636 30.9931 84.3401 29.8523 88.2373 32.0068ZM79.6387 36.3052C78.706 37.7281 78.6774 39.124 78.8477 40.7812C79.2506 42.2311 80.1794 43.2488 81.4258 44.0625C82.8382 44.7453 84.4513 44.7977 85.9604 44.3783C87.5111 43.6822 88.5358 42.5016 89.1455 40.9277C89.5651 39.4591 89.3927 38.2737 88.794 36.8847C87.9816 35.6221 86.8898 34.6681 85.4981 34.1162C83.054 33.7088 81.2216 34.3913 79.6387 36.3052Z" fill="white"/>
</svg>
