<svg width="100" height="100" viewBox="0 0 100 100" fill="none" xmlns="http://www.w3.org/2000/svg">
<path d="M41.701 1.6845C41.9297 1.68466 41.9297 1.68466 42.1631 1.68483C46.3064 1.69801 50.1664 2.42929 54.1033 3.71087C54.239 3.75459 54.3747 3.7983 54.5145 3.84334C60.4522 5.79922 65.6255 9.39363 70.119 13.6718C70.3108 13.8516 70.3108 13.8516 70.5065 14.035C73.7988 17.2064 76.2302 21.2812 78.1268 25.3906C75.8709 27.6464 73.6151 29.9023 71.2908 32.2265C70.743 31.4961 70.4936 30.9586 70.18 30.1147C68.7776 26.4885 66.639 23.4 64.0643 20.5077C63.9432 20.37 63.8221 20.2323 63.6973 20.0904C59.1796 15.2695 52.2179 12.0833 45.7049 11.3281C45.5418 11.3067 45.3786 11.2853 45.2105 11.2632C37.4637 10.3882 29.3442 12.5262 23.1829 17.3354C22.4763 17.925 21.7949 18.5383 21.126 19.1703C20.7049 19.5312 20.7049 19.5312 20.2838 19.7273C19.8172 19.9793 19.7573 20.2288 19.533 20.7031C19.2547 21.0102 18.9688 21.3105 18.6785 21.6064C13.5356 27.1878 10.9171 35.0845 11.085 42.6154C11.3894 49.9588 14.1272 56.8652 19.134 62.255C19.4111 62.5607 19.6768 62.8769 19.9328 63.2003C23.9801 68.2028 31.5894 71.4258 37.8176 72.2043C41.6737 72.5617 45.6637 72.4855 49.4158 71.4843C49.6402 71.4246 49.6402 71.4246 49.8691 71.3638C54.4443 70.0922 58.534 67.7377 62.1112 64.6484C62.2678 64.5157 62.4244 64.383 62.5857 64.2463C63.5603 63.4046 64.4236 62.5217 65.2362 61.5234C65.3824 61.3476 65.5287 61.1719 65.6794 60.9908C67.1925 59.1084 68.4527 57.0434 69.533 54.8827C69.982 54.7877 70.4345 54.7093 70.888 54.6386C73.5609 54.1587 75.425 52.4901 77.1456 50.4585C77.6669 49.8537 78.2074 49.2678 78.7493 48.6816C78.8492 48.5731 78.9491 48.4647 79.0521 48.353C79.3282 48.0543 79.606 47.7573 79.8846 47.4609C80.0289 47.3068 80.1731 47.1527 80.3218 46.994C80.6658 46.6796 80.6658 46.6796 81.0565 46.6796C80.4072 51.6627 78.924 56.3111 76.5643 60.7421C76.5034 60.8584 76.4425 60.9746 76.3798 61.0944C71.5984 70.1666 62.8643 76.874 53.1741 79.9171C42.7951 83.0301 31.7153 81.8035 22.1882 76.7015C19.043 74.9747 16.2574 72.7868 13.6736 70.3124C13.5762 70.2203 13.4788 70.1282 13.3784 70.0333C11.8171 68.5517 10.4506 66.9723 9.18146 65.2343C9.10049 65.124 9.01951 65.0136 8.93608 64.9C4.07856 58.1884 1.66615 50.1575 1.68634 41.9189C1.68652 41.7475 1.68669 41.5762 1.68686 41.3997C1.72343 30.258 6.42629 20.4323 14.2468 12.6489C15.4776 11.4497 16.773 10.3796 18.1658 9.37493C18.273 9.29613 18.3801 9.21733 18.4905 9.13613C25.2246 4.22564 33.4026 1.6625 41.701 1.6845Z" fill="white"/>
<path d="M81.0547 64.6484C81.6034 64.8988 82.0056 65.1595 82.4323 65.5845C82.5448 65.6956 82.6573 65.8067 82.7732 65.9212C82.8943 66.0428 83.0153 66.1643 83.14 66.2895C83.2694 66.4179 83.3988 66.5462 83.532 66.6785C83.9598 67.1035 84.386 67.53 84.8122 67.9565C85.1099 68.2535 85.4076 68.5504 85.7054 68.8473C86.3302 69.4705 86.9541 70.0945 87.5776 70.7191C88.3732 71.5157 89.1709 72.3102 89.9693 73.1041C90.5855 73.7173 91.2003 74.332 91.8147 74.947C92.108 75.2402 92.4018 75.533 92.696 75.8253C95.7956 78.9065 98.1718 81.9171 98.3276 86.4868C98.234 90.1409 96.7514 93.0045 94.1406 95.5078C91.5437 97.7806 88.3702 98.2035 85.0563 98.081C82.4466 97.8977 80.006 96.635 78.1298 94.8576C78.0213 94.756 77.9128 94.6545 77.801 94.5499C76.46 93.2869 75.1606 91.9819 73.8609 90.6769C73.5931 90.4087 73.3252 90.1405 73.0573 89.8724C72.3611 89.1755 71.6655 88.478 70.97 87.7803C70.2567 87.065 69.5428 86.3502 68.829 85.6354C67.4349 84.2392 66.0415 82.8425 64.6484 81.4453C64.9392 80.8252 65.1508 80.5284 65.7364 80.1643C65.8778 80.0742 66.0191 79.984 66.1648 79.8911C66.317 79.7957 66.4692 79.7003 66.626 79.6021C70.6026 77.032 74.2185 73.839 77.1484 70.1172C77.3055 69.9198 77.4626 69.7224 77.6245 69.519C78.8581 67.9536 79.9688 66.3189 81.0547 64.6484Z" fill="white"/>
<path d="M92.0654 23.3154C92.7829 24.0328 93.0262 24.5477 93.042 25.5615C93.0475 25.7221 93.0531 25.8827 93.0588 26.0482C92.8359 27.3213 91.7317 28.2453 90.8506 29.1186C90.7178 29.2518 90.5849 29.3851 90.448 29.5223C90.0105 29.9606 89.5716 30.3974 89.1327 30.8341C88.8266 31.14 88.5205 31.446 88.2146 31.752C87.5735 32.3927 86.9319 33.0328 86.2897 33.6723C85.4696 34.4891 84.6507 35.3072 83.8323 36.1258C83.2004 36.7577 82.5679 37.3891 81.9352 38.0204C81.6333 38.3217 81.3315 38.6231 81.0298 38.9246C80.6064 39.3475 80.1824 39.7698 79.7583 40.1919C79.574 40.3763 79.574 40.3763 79.3861 40.5644C78.6536 41.2916 77.899 41.9823 77.1153 42.6541C76.5168 43.1807 75.9637 43.7502 75.4074 44.3206C75.1598 44.5717 74.9121 44.8227 74.6643 45.0736C74.281 45.463 73.8981 45.8529 73.5163 46.2437C73.1429 46.6253 72.7678 47.0051 72.3923 47.3846C72.2793 47.5012 72.1664 47.6177 72.05 47.7379C71.3069 48.4856 70.577 49.0958 69.5068 49.2965C69.386 49.295 69.2651 49.2935 69.1406 49.2919C69.0198 49.2934 68.8989 49.2949 68.7744 49.2965C67.6753 49.0904 66.9248 48.4424 66.158 47.6698C66.0626 47.5744 65.9672 47.4791 65.8689 47.3809C65.5568 47.0684 65.2468 46.7539 64.9368 46.4393C64.7197 46.2211 64.5024 46.0029 64.285 45.785C63.7154 45.2131 63.1475 44.6395 62.5801 44.0655C61.9998 43.4793 61.4178 42.8946 60.836 42.3099C59.6963 41.1639 58.5585 40.0161 57.4219 38.8671C56.4282 39.6972 55.5056 40.5673 54.6006 41.4926C54.3142 41.7835 54.0277 42.0744 53.7413 42.3654C53.5914 42.5179 53.4416 42.6704 53.2872 42.8276C52.4877 43.6406 51.6849 44.4503 50.8827 45.2606C49.8646 46.2892 48.8476 47.3188 47.8341 48.352C47.0124 49.1896 46.1873 50.0238 45.3599 50.8559C45.0461 51.1727 44.7336 51.4907 44.4223 51.81C43.9867 52.2564 43.547 52.6984 43.1062 53.1396C42.9795 53.2715 42.8528 53.4034 42.7223 53.5393C41.8436 54.4066 41.0839 54.7894 39.8438 54.8827C38.3569 54.7768 37.3991 53.7666 36.4189 52.7442C36.2697 52.5933 36.1204 52.4424 35.9667 52.2869C35.4943 51.8081 35.0262 51.3253 34.5581 50.8422C34.2371 50.5153 33.9157 50.1886 33.5941 49.8622C32.8096 49.0648 32.0285 48.2642 31.25 47.4609C30.0857 48.4257 29.0205 49.4697 27.9549 50.5416C27.7747 50.722 27.5946 50.9025 27.409 51.0883C26.9343 51.5638 26.4602 52.0397 25.9863 52.5159C25.5008 53.0033 25.0148 53.4902 24.5289 53.9771C23.5786 54.9295 22.6289 55.8825 21.6797 56.8359C20.865 56.4742 20.5981 56.0566 20.1416 55.2856C20.0413 55.117 20.0413 55.117 19.939 54.945C19.7354 54.6002 19.5352 54.2535 19.3359 53.9062C19.2166 53.7 19.0973 53.4938 18.9743 53.2813C18.1641 51.8433 18.1641 51.8433 18.1641 51.1718C18.4372 50.8842 18.4372 50.8842 18.8232 50.5737C19.4849 50.0207 20.0985 49.443 20.7031 48.8281C21.2687 48.2556 21.8364 47.7023 22.4487 47.1801C23.1034 46.6207 23.712 46.0227 24.3164 45.4101C25.0366 44.68 25.7744 43.9877 26.5564 43.3242C27.0417 42.8893 27.4887 42.4237 27.9419 41.9555C29.073 40.8227 29.9143 40.1551 31.5613 40.1305C32.9892 40.4458 33.9575 41.4951 34.9419 42.5018C35.1536 42.7147 35.1535 42.7147 35.3695 42.9319C35.8166 43.3823 36.2616 43.8346 36.7065 44.287C37.0107 44.5941 37.315 44.9011 37.6194 45.2079C38.3624 45.9574 39.1037 46.7085 39.8438 47.4609C40.4283 47.1985 40.8335 46.9094 41.2833 46.455C41.4095 46.3284 41.5357 46.2019 41.6658 46.0716C41.802 45.933 41.9383 45.7944 42.0787 45.6516C42.2966 45.4324 42.2966 45.4324 42.5188 45.2088C42.834 44.8915 43.1486 44.5738 43.4629 44.2557C43.9603 43.7525 44.4589 43.2506 44.9579 42.749C46.3765 41.3227 47.7925 39.8939 49.2079 38.4646C50.0738 37.5904 50.9411 36.7176 51.8092 35.8456C52.1399 35.5129 52.47 35.1796 52.7995 34.8457C53.26 34.3791 53.7223 33.9143 54.1851 33.4499C54.3209 33.3113 54.4568 33.1727 54.5968 33.0298C55.459 32.1693 56.0661 31.6928 57.312 31.5795C58.5762 31.6904 59.3362 32.3099 60.2092 33.1895C60.3523 33.3325 60.3523 33.3325 60.4983 33.4784C60.8104 33.7909 61.1204 34.1054 61.4304 34.4199C61.6475 34.6382 61.8648 34.8563 62.0822 35.0743C62.6518 35.6461 63.2196 36.2197 63.7871 36.7937C64.3674 37.38 64.9493 37.9646 65.5312 38.5494C66.6709 39.6953 67.8087 40.8431 68.9453 41.9921C70.0456 41.0771 71.0585 40.0986 72.0658 39.0829C72.2359 38.9122 72.406 38.7415 72.5812 38.5657C72.9486 38.1969 73.3157 37.828 73.6826 37.4589C74.2632 36.8746 74.8447 36.2913 75.4263 35.7081C77.0792 34.0505 78.731 32.3917 80.3819 30.7321C81.2956 29.8136 82.2101 28.8958 83.1253 27.9787C83.7032 27.3995 84.2802 26.8194 84.8566 26.2386C85.2996 25.7929 85.7438 25.3484 86.1878 24.9037C86.3465 24.7432 86.5053 24.5828 86.6688 24.4175C86.8897 24.197 86.8897 24.197 87.1151 23.972C87.3055 23.7807 87.3055 23.7807 87.4998 23.5855C88.9126 22.3444 90.5379 22.1053 92.0654 23.3154Z" fill="white"/>
</svg>
