<svg width="121" height="120" viewBox="0 0 121 120" fill="none" xmlns="http://www.w3.org/2000/svg">
<g clip-path="url(#clip0_168_3636)">
<path d="M81.6563 4.4678C83.2438 5.40922 84.1896 6.5846 84.6959 8.36245C85.033 10.0312 84.8711 11.5961 84.1026 13.125C83.2392 14.3743 82.422 15.0414 81.0557 15.7032C81.0543 15.8664 81.053 16.0296 81.0516 16.1977C81.0379 17.7424 81.021 19.287 81.0005 20.8315C80.99 21.6255 80.9808 22.4194 80.9745 23.2133C80.9666 24.128 80.9544 25.0425 80.9413 25.9571C80.9398 26.2396 80.9383 26.5221 80.9367 26.8132C80.8961 29.155 80.4412 31.123 78.712 32.8125C76.6046 34.1969 74.6106 34.2531 72.1586 34.2417C71.8901 34.2413 71.6216 34.241 71.3449 34.2407C70.49 34.2394 69.6352 34.2364 68.7803 34.2334C68.1996 34.2322 67.6188 34.2312 67.0381 34.2302C65.6169 34.2276 64.1957 34.2236 62.7745 34.2188C62.7745 35.4563 62.7745 36.6938 62.7745 37.9688C63.0567 37.9667 63.3389 37.9646 63.6297 37.9625C66.2885 37.9435 68.9474 37.9294 71.6063 37.9202C72.9733 37.9153 74.3403 37.9087 75.7073 37.8981C77.0263 37.8879 78.3454 37.8823 79.6645 37.8798C80.1679 37.8781 80.6713 37.8747 81.1746 37.8697C81.8794 37.8629 82.584 37.8619 83.2889 37.8623C83.4972 37.859 83.7056 37.8556 83.9203 37.8521C84.8876 37.8586 85.384 37.8915 86.2243 38.4117C86.746 38.977 86.8346 39.2025 86.8126 39.961C86.7708 40.7309 86.7172 40.967 86.2413 41.6016C85.2378 42.3099 84.3472 42.2189 83.1558 42.2141C82.8265 42.2142 82.8265 42.2142 82.4906 42.2142C81.7627 42.2141 81.0347 42.2122 80.3068 42.2104C79.803 42.21 79.2992 42.2096 78.7955 42.2094C77.4677 42.2085 76.1399 42.2062 74.8121 42.2036C73.458 42.2012 72.1038 42.2002 70.7496 42.199C68.0912 42.1965 65.4329 42.1923 62.7745 42.1875C62.7745 44.0438 62.7745 45.9 62.7745 47.8125C67.006 47.8036 71.2374 47.7898 75.4689 47.7694C77.4336 47.7601 79.3983 47.7525 81.363 47.749C83.0753 47.746 84.7875 47.7397 86.4998 47.7294C87.4066 47.7241 88.3133 47.7204 89.2201 47.7207C90.0735 47.7209 90.9268 47.7167 91.7802 47.7091C92.243 47.7062 92.7057 47.7079 93.1685 47.7097C93.4439 47.7064 93.7193 47.7031 94.0031 47.6998C94.2424 47.6989 94.4818 47.6981 94.7284 47.6972C95.518 47.5466 95.7969 47.2626 96.2901 46.6407C96.4326 46.1052 96.4326 46.1052 96.418 45.523C96.4227 45.3026 96.4273 45.0821 96.432 44.8549C96.4323 44.6188 96.4326 44.3827 96.4329 44.1394C96.4368 43.8963 96.4407 43.6531 96.4447 43.4025C96.456 42.6264 96.461 41.8504 96.4659 41.0742C96.4725 40.5478 96.4795 40.0214 96.4869 39.495C96.5043 38.205 96.5164 36.9151 96.5245 35.625C96.302 35.5543 96.0795 35.4836 95.8503 35.4108C94.5888 34.9722 93.8216 34.118 93.1654 32.9691C92.3428 31.1232 92.242 29.4803 92.9502 27.583C93.7228 25.857 94.722 24.8985 96.4366 24.0821C98.2765 23.6732 100.247 23.651 101.915 24.6094C103.363 25.5902 104.39 26.8398 104.728 28.5938C104.885 30.7186 104.725 32.2968 103.482 34.043C102.843 34.697 102.242 35.1755 101.446 35.625C101.214 35.625 100.982 35.625 100.743 35.625C100.746 35.839 100.746 35.839 100.748 36.0573C100.764 37.5478 100.774 39.0383 100.782 40.5288C100.785 41.0844 100.79 41.64 100.796 42.1955C100.805 42.9961 100.809 43.7966 100.812 44.5972C100.816 44.8438 100.819 45.0905 100.823 45.3446C100.823 47.3177 100.496 48.9882 99.0808 50.4548C97.2665 52.0971 95.2944 52.1967 92.9474 52.1643C92.6168 52.164 92.2863 52.1642 91.9557 52.1648C91.0653 52.1652 90.1751 52.1583 89.2847 52.1501C88.3516 52.1427 87.4185 52.1421 86.4854 52.1407C84.7216 52.1371 82.9578 52.1275 81.194 52.1157C79.1847 52.1025 77.1753 52.0961 75.166 52.0902C71.0354 52.078 66.905 52.0572 62.7745 52.0313C62.7745 53.9649 62.7745 55.8985 62.7745 57.8907C78.0112 57.8907 93.2479 57.8907 108.946 57.8907C109.101 57.5039 109.256 57.1172 109.415 56.7188C110.422 55.1826 111.609 54.3212 113.399 53.9063C115.249 53.6821 116.802 53.8983 118.352 54.9472C119.812 56.1068 120.533 57.2859 120.761 59.1413C120.85 61.2311 120.51 62.8222 119.116 64.4156C117.819 65.6326 116.453 66.1232 114.689 66.1817C112.726 66.114 111.532 65.5 110.062 64.2215C109.649 63.75 109.649 63.75 108.946 62.3438C86.0913 62.2278 86.0913 62.2278 62.7745 62.1094C62.7745 64.043 62.7745 65.9766 62.7745 67.9688C63.1892 67.9662 63.6038 67.9636 64.0311 67.9609C67.9416 67.9371 71.8521 67.9195 75.7627 67.9081C77.7731 67.902 79.7835 67.8938 81.7939 67.8804C83.5468 67.8687 85.2998 67.8611 87.0528 67.8585C87.9803 67.857 88.9078 67.8534 89.8353 67.8449C90.7099 67.8369 91.5843 67.8345 92.4589 67.8362C92.9298 67.8358 93.4007 67.8295 93.8715 67.823C95.8989 67.8344 97.5405 68.151 99.0808 69.5453C100.713 71.2366 100.845 73.1665 100.812 75.4029C100.811 75.6603 100.81 75.9178 100.809 76.183C100.805 76.9997 100.796 77.8162 100.787 78.6328C100.784 79.1889 100.78 79.7449 100.778 80.3009C100.77 81.659 100.758 83.017 100.743 84.375C100.889 84.409 101.035 84.4429 101.186 84.4779C102.322 84.7798 103.152 85.566 103.863 86.4698C104.823 88.2122 105.013 89.9892 104.619 91.9474C104.119 93.4645 103.138 94.6619 101.769 95.4785C100.168 96.249 98.338 96.4146 96.616 95.9171C94.6846 95.0907 93.6456 94.0125 92.7745 92.1094C92.2343 90.3768 92.4346 88.6706 93.1654 87.031C94.0058 85.5597 94.9296 84.8818 96.5245 84.375C96.5147 82.8233 96.4978 81.2718 96.4758 79.7201C96.4692 79.1923 96.4642 78.6644 96.461 78.1365C96.4559 77.3778 96.445 76.6193 96.4329 75.8606C96.4325 75.5065 96.4325 75.5065 96.432 75.1451C96.4274 74.9247 96.4228 74.7042 96.418 74.477C96.416 74.2834 96.4139 74.0898 96.4117 73.8903C96.2431 73.1543 95.9349 72.895 95.3526 72.4219C94.7156 72.2806 94.7156 72.2806 94.0031 72.3003C93.7277 72.297 93.4522 72.2937 93.1685 72.2904C92.8672 72.2916 92.566 72.2927 92.2556 72.294C91.9345 72.2919 91.6134 72.2895 91.2923 72.2866C90.4212 72.2801 89.5502 72.2793 88.6791 72.2795C87.7685 72.2788 86.8579 72.2728 85.9474 72.2673C84.2234 72.2578 82.4994 72.2531 80.7753 72.25C78.8125 72.2463 76.8497 72.2373 74.8868 72.2278C70.8494 72.2085 66.812 72.196 62.7745 72.1875C62.7745 74.0438 62.7745 75.9 62.7745 77.8125C63.4428 77.8088 64.1112 77.8052 64.7998 77.8014C67.0075 77.7897 69.2152 77.782 71.423 77.7761C72.7616 77.7724 74.1002 77.7674 75.4388 77.7595C76.7305 77.7518 78.0222 77.7476 79.3139 77.7458C79.8068 77.7445 80.2998 77.742 80.7927 77.7382C81.4829 77.7331 82.1729 77.7324 82.8631 77.7327C83.1691 77.7289 83.1691 77.7289 83.4813 77.725C84.8731 77.7322 85.6711 77.9748 86.6807 78.9844C86.7595 79.4586 86.7595 79.4586 86.7686 80.0098C86.7753 80.1905 86.7819 80.3711 86.7887 80.5573C86.6318 81.3366 86.3857 81.5584 85.7432 82.0313C85.0054 82.1687 84.2768 82.1496 83.5283 82.1377C83.3042 82.1378 83.08 82.138 82.849 82.1381C82.1084 82.1375 81.3679 82.1302 80.6273 82.1228C80.1136 82.1211 79.6 82.1198 79.0864 82.1188C77.7347 82.1152 76.3831 82.106 75.0314 82.0956C73.6521 82.0861 72.2727 82.0818 70.8934 82.0771C68.187 82.067 65.4808 82.051 62.7745 82.0313C62.7745 83.2688 62.7745 84.5063 62.7745 85.7813C63.1243 85.7788 63.4741 85.7764 63.8345 85.7738C65.1406 85.7653 66.4466 85.76 67.7527 85.7555C68.3164 85.7532 68.8801 85.75 69.4439 85.7459C70.2572 85.7402 71.0706 85.7376 71.884 85.7355C72.1333 85.7331 72.3827 85.7307 72.6396 85.7282C75.0846 85.7278 77.328 85.9238 79.1807 87.6563C80.2981 89.1446 80.8559 90.3933 80.8397 92.2517C80.8383 92.5153 80.837 92.7789 80.8355 93.0505C80.8336 93.3342 80.8316 93.6179 80.8296 93.9102C80.8305 94.5107 80.8318 95.1111 80.8337 95.7115C80.8366 96.6585 80.837 97.6053 80.827 98.5523C80.8177 99.466 80.8234 100.379 80.8296 101.293C80.8217 101.718 80.8217 101.718 80.8136 102.151C80.7876 103.565 80.7876 103.565 81.4716 104.726C81.9472 105.022 82.4186 105.245 82.9307 105.469C84.23 106.748 84.8003 108.195 84.879 110.01C84.8293 111.727 84.3161 113.213 83.133 114.476C81.612 115.758 79.8724 116.357 77.9063 116.206C76.092 115.941 74.9581 115.112 73.7169 113.804C72.5704 112.063 72.3966 110.591 72.6182 108.516C73.0083 106.974 73.8988 105.691 75.1963 104.766C75.6629 104.603 76.1316 104.446 76.6026 104.297C76.581 102.512 76.5558 100.726 76.5282 98.9411C76.5192 98.3336 76.5111 97.7262 76.5037 97.1187C76.493 96.246 76.4794 95.3734 76.4653 94.5008C76.4612 94.0928 76.4612 94.0928 76.4571 93.6765C76.4501 93.2965 76.4501 93.2965 76.443 92.9089C76.4383 92.5748 76.4383 92.5748 76.4335 92.2339C76.3649 91.6101 76.2402 91.2276 75.8995 90.7032C74.6095 90.0406 73.147 90.1544 71.7311 90.1474C71.4653 90.1453 71.1996 90.1432 70.9258 90.141C70.3653 90.1376 69.8049 90.1355 69.2444 90.1347C68.3869 90.1319 67.5298 90.1203 66.6723 90.1085C66.1271 90.1063 65.5819 90.1046 65.0367 90.1035C64.6525 90.0966 64.6525 90.0966 64.2606 90.0896C62.8134 90.0804 62.8134 90.0804 61.5984 90.802C61.4451 91.0014 61.2918 91.2008 61.1338 91.4063C57.9743 93.107 53.5313 91.5147 50.3046 90.5484C46.423 89.3175 42.9067 87.227 39.8057 84.6094C39.5794 84.4188 39.3531 84.2281 39.12 84.0317C33.1872 78.8374 29.1909 70.9345 28.5557 63.0469C28.1489 54.016 30.3934 45.8895 36.2901 38.9063C36.5226 38.6303 36.5226 38.6303 36.7598 38.3487C42.0784 32.1974 49.8961 28.6547 57.9112 27.9053C59.2117 27.848 60.0391 27.8798 61.1338 28.5938C61.2835 28.7935 61.4333 28.9932 61.5875 29.199C62.6883 30.0675 63.7331 29.9204 65.0962 29.8966C65.3675 29.896 65.6388 29.8955 65.9183 29.8949C66.4912 29.8926 67.0641 29.8875 67.637 29.8798C68.5135 29.8682 69.3897 29.8654 70.2662 29.8641C70.8232 29.8608 71.3801 29.857 71.9371 29.8526C72.1991 29.8514 72.461 29.8501 72.731 29.8488C72.9758 29.8451 73.2206 29.8413 73.4729 29.8375C73.6874 29.835 73.9019 29.8325 74.123 29.8299C74.8057 29.7573 75.294 29.6223 75.8995 29.2969C76.4109 28.5899 76.4309 27.9477 76.443 27.0912C76.4476 26.8379 76.4523 26.5845 76.4571 26.3235C76.4598 26.0515 76.4625 25.7795 76.4653 25.4993C76.4698 25.2197 76.4743 24.9401 76.479 24.652C76.493 23.7589 76.5039 22.8658 76.5147 21.9727C76.5237 21.3672 76.5328 20.7617 76.5422 20.1563C76.5647 18.6719 76.5846 17.1876 76.6026 15.7032C76.3801 15.6326 76.1576 15.5621 75.9284 15.4894C74.5403 15.0059 73.6537 13.9112 72.9844 12.627C72.3729 11.0663 72.3335 9.38088 72.8169 7.77926C73.5308 6.18931 74.6414 4.96935 76.2043 4.18124C77.9152 3.64892 80.0281 3.71557 81.6563 4.4678ZM76.837 9.37503C76.6221 10.0782 76.6221 10.0782 76.837 10.7813C77.4238 11.5047 77.4238 11.5047 78.2432 11.9532C79.1867 11.9909 79.5193 11.8356 80.2208 11.2061C80.6451 10.568 80.6451 10.568 80.587 9.82913C80.3161 9.03349 80.103 8.68655 79.4151 8.20315C78.1418 7.95933 77.5903 8.35578 76.837 9.37503ZM96.9932 29.0625C96.7615 29.8041 96.6925 30.2516 96.92 30.9961C97.3114 31.518 97.5359 31.688 98.1651 31.875C99.314 31.8358 99.314 31.8358 100.26 31.2451C100.594 30.5188 100.638 30.0887 100.509 29.2969C99.9718 28.5911 99.6276 28.1904 98.751 27.9932C97.9457 28.1744 97.56 28.4643 96.9932 29.0625ZM41.212 40.0782C41.0361 40.2389 40.8603 40.3996 40.6791 40.5652C35.6118 45.3659 32.8847 52.5004 32.6921 59.4061C32.6211 67.0792 35.5019 73.9045 40.7432 79.4532C40.904 79.629 41.0647 79.8048 41.2303 79.986C45.9041 84.9194 51.98 86.8524 58.5557 87.8907C58.5557 69.4828 58.5557 51.075 58.5557 32.1094C52.082 32.1094 45.746 35.7952 41.212 40.0782ZM112.931 59.0625C112.658 59.6235 112.658 59.6235 112.696 60.2344C113.076 61.0515 113.344 61.3695 114.103 61.875C115.25 61.8344 115.25 61.8344 116.197 61.2451C116.531 60.5188 116.576 60.0887 116.446 59.2969C115.909 58.591 115.565 58.1904 114.689 57.9932C113.892 58.1725 113.498 58.4794 112.931 59.0625ZM96.9932 89.0625C96.7615 89.8041 96.6925 90.2516 96.92 90.9961C97.3114 91.518 97.5359 91.688 98.1651 91.875C99.314 91.8358 99.314 91.8358 100.26 91.2451C100.594 90.5188 100.638 90.0887 100.509 89.2969C99.9718 88.591 99.6276 88.1904 98.751 87.9932C97.9457 88.1744 97.56 88.4643 96.9932 89.0625ZM77.1299 108.869C76.7768 109.237 76.7768 109.237 76.6758 109.922C76.893 110.87 77.2315 111.222 78.0088 111.797C78.7221 111.973 78.7221 111.973 79.4151 111.797C80.037 111.343 80.2966 111.005 80.5723 110.288C80.5918 109.489 80.3729 109.14 79.8838 108.516C78.7777 107.79 78.1078 108.004 77.1299 108.869Z" fill="white"/>
<path d="M57.706 -0.102517C57.9187 -0.113242 58.1314 -0.123968 58.3506 -0.135018C59.7454 -0.158132 60.5738 0.089191 61.68 0.942043C62.6726 2.11974 62.8786 3.36956 62.8654 4.86748C62.8672 5.12848 62.8672 5.12848 62.8691 5.39476C62.8722 5.96503 62.8702 6.53515 62.8678 7.10543C62.8683 7.50433 62.8689 7.90323 62.8698 8.30213C62.8708 9.13607 62.8694 9.96995 62.8661 10.8039C62.8621 11.8707 62.8644 12.9374 62.8686 14.0042C62.8711 14.8272 62.8703 15.6502 62.8685 16.4731C62.868 16.8664 62.8686 17.2597 62.8702 17.653C62.872 18.2033 62.8693 18.7533 62.8654 19.3035C62.8668 19.4646 62.8682 19.6258 62.8697 19.7918C62.8533 21.0453 62.4965 21.9315 61.7508 22.9285C60.4646 24.1414 59.0849 24.1916 57.3838 24.375C52.7888 24.9755 48.6653 26.0889 44.4931 28.125C44.2548 28.2407 44.0164 28.3564 43.7708 28.4757C35.2711 32.8686 29.3315 40.7562 26.4206 49.7397C23.625 58.863 24.8341 68.7361 29.2763 77.1158C33.7853 85.3103 41.2226 91.4259 50.1667 94.206C52.8371 94.9485 55.4654 95.4849 58.235 95.6788C59.549 95.784 60.5694 96.042 61.5705 96.9654C61.6826 97.1031 61.7947 97.2409 61.9101 97.3828C62.0252 97.5206 62.1404 97.6584 62.259 97.8003C62.872 98.679 62.8119 99.5878 62.8159 100.613C62.8174 100.786 62.819 100.959 62.8205 101.138C62.8252 101.711 62.8279 102.284 62.8302 102.857C62.8312 103.053 62.8321 103.249 62.8331 103.451C62.838 104.49 62.8414 105.528 62.8436 106.567C62.8462 107.637 62.8542 108.707 62.8635 109.777C62.8697 110.602 62.8716 111.427 62.8725 112.252C62.8736 112.646 62.8763 113.04 62.8807 113.434C62.9205 117.275 62.9205 117.275 61.8369 118.828C60.5255 120.076 59.4045 120.043 57.6914 120.044C57.4867 120.047 57.282 120.05 57.0711 120.053C54.9883 120.057 53.1557 119.732 51.5244 118.359C50.0618 116.583 49.752 114.561 49.4443 112.354C49.3947 112.025 49.3447 111.697 49.2942 111.369C49.1728 110.575 49.0578 109.78 48.9463 108.984C48.8146 108.945 48.683 108.905 48.5473 108.864C44.2665 107.558 40.0813 106.196 36.2481 103.843C35.3293 103.288 35.3293 103.288 34.2933 103.093C33.396 103.504 32.6659 104.096 31.8955 104.707C29.6516 106.439 27.7489 107.872 24.8056 107.578C22.3367 107.143 20.639 105.056 18.9463 103.359C18.7444 103.158 18.5426 102.956 18.3347 102.748C18.1498 102.563 17.9649 102.378 17.7744 102.188C17.5668 101.985 17.3593 101.783 17.1454 101.575C15.0806 99.5512 13.3194 97.7954 12.999 94.8047C13.2178 92.7621 14.0882 91.3048 15.3135 89.6924C15.4497 89.5086 15.586 89.3247 15.7264 89.1353C16.2189 88.472 16.7103 87.8104 17.2347 87.1719C17.6083 86.7142 17.6083 86.7142 17.5098 86.0285C17.2998 85.2919 17.0385 84.8063 16.6172 84.1699C14.6282 80.8714 11.915 75.6541 11.915 71.7188C11.7118 71.6882 11.5087 71.6576 11.2993 71.6261C10.5371 71.5098 9.77542 71.3906 9.01394 71.2696C8.6859 71.218 8.35768 71.1676 8.02929 71.1183C5.41053 70.7242 3.43103 70.3254 1.69773 68.1903C0.537078 66.5848 0.628138 64.5954 0.625648 62.6908C0.624868 62.4801 0.624088 62.2695 0.623284 62.0525C0.622102 61.6087 0.621547 61.165 0.621585 60.7212C0.621074 60.0485 0.616814 59.3759 0.612373 58.7032C0.611685 58.2697 0.61122 57.8362 0.610999 57.4027C0.609315 57.2046 0.607631 57.0065 0.605896 56.8024C0.614303 54.5685 0.855298 52.6479 2.41459 50.9555C4.17942 49.2571 6.68861 49.0693 9.01462 48.7061C9.27234 48.6645 9.53005 48.623 9.79557 48.5802C10.4237 48.4791 11.0521 48.3795 11.6806 48.2813C11.7418 48.0904 11.803 47.8995 11.866 47.7028C14.832 38.497 14.832 38.497 17.2699 34.8001C17.6065 34.0756 17.5229 33.8049 17.3056 33.0469C17.0203 32.5419 17.0203 32.5419 16.6492 32.0673C16.4505 31.7985 16.4505 31.7985 16.2477 31.5244C16.0391 31.2484 16.0391 31.2484 15.8261 30.9668C12.9073 27.0686 12.9073 27.0686 13.0869 24.375C13.5847 21.702 15.6591 19.8603 17.54 18.0469C18.139 17.4528 18.7317 16.8544 19.3161 16.2461C21.1632 14.3423 23.0185 12.4897 25.8017 12.334C28.085 12.4176 29.8222 13.677 31.5586 15.044C31.9395 15.3422 32.3218 15.6386 32.7057 15.9329C32.8712 16.0632 33.0367 16.1935 33.2073 16.3277C33.7861 16.6866 34.2055 16.8205 34.8838 16.875C35.3415 16.7298 35.3415 16.7298 35.7563 16.4511C35.9187 16.3542 36.0811 16.2573 36.2485 16.1574C36.4217 16.051 36.5949 15.9446 36.7734 15.835C40.1652 13.8543 43.7893 12.6018 47.54 11.4844C48.0091 11.3291 48.4779 11.173 48.9463 11.0156C48.9744 10.8149 49.0025 10.6142 49.0315 10.4074C49.1401 9.65098 49.2534 8.89556 49.3697 8.14032C49.4188 7.81558 49.466 7.49056 49.5114 7.16528C49.8394 4.82372 50.2806 2.73467 52.125 1.11239C52.3135 1.01118 52.502 0.909965 52.6963 0.805686C52.8848 0.699036 53.0733 0.592387 53.2676 0.482505C54.6791 -0.100598 56.1997 -0.0717543 57.706 -0.102517ZM54.5713 4.68752C54.0444 5.60569 53.941 6.64974 53.7821 7.68404C53.7239 8.03914 53.6656 8.39421 53.6072 8.74926C53.5172 9.305 53.4283 9.86084 53.3421 10.4172C53.2577 10.9569 53.1687 11.4958 53.079 12.0346C53.0545 12.2004 53.0301 12.3662 53.0049 12.537C52.8293 13.5659 52.6121 14.1474 51.7588 14.7656C51.1355 15.007 51.1355 15.007 50.4212 15.185C50.1557 15.2544 49.8901 15.3239 49.6165 15.3955C49.3325 15.468 49.0485 15.5406 48.7558 15.6153C44.3131 16.8176 39.9521 18.5138 36.1307 21.1288C35.4248 21.5865 34.9345 21.7949 34.09 21.828C32.9414 21.4679 32.1254 20.8546 31.1777 20.127C30.8042 19.8492 30.4307 19.5715 30.0571 19.2938C29.7128 19.0345 29.3686 18.7751 29.0244 18.5156C28.5729 18.1796 28.1189 17.8484 27.6621 17.5196C27.4962 17.3975 27.3304 17.2754 27.1595 17.1497C26.5818 16.8183 26.1746 16.6962 25.5088 16.6406C24.9444 16.9323 24.9444 16.9323 24.423 17.4079C24.2192 17.5815 24.0155 17.7552 23.8057 17.9341C22.711 18.9278 21.657 19.9561 20.6162 21.0059C20.3999 21.2204 20.1835 21.4349 19.9607 21.6559C19.7522 21.865 19.5437 22.074 19.329 22.2895C19.1426 22.4764 18.9562 22.6633 18.7642 22.8558C17.6704 23.9958 17.6704 23.9958 17.3248 25.4579C17.549 26.039 17.8 26.4715 18.1717 26.9705C18.3002 27.1452 18.4287 27.3199 18.5611 27.4999C18.6978 27.682 18.8346 27.8641 18.9756 28.0518C19.2533 28.4302 19.531 28.8086 19.8087 29.187C20.2516 29.7849 20.6971 30.3803 21.1454 30.9741C22.5763 32.914 22.5763 32.914 22.4619 34.2188C22.0741 35.1242 21.5559 35.9499 21.0556 36.7969C18.9813 40.5329 17.4112 44.2399 16.2262 48.3454C16.1717 48.5281 16.1172 48.7108 16.0611 48.899C15.9508 49.2768 15.8479 49.6568 15.7514 50.0384C15.6996 50.2253 15.6479 50.4123 15.5945 50.6049C15.5515 50.7721 15.5085 50.9394 15.4642 51.1117C15.049 51.8102 14.5348 51.9706 13.79 52.2656C12.982 52.4419 12.982 52.4419 12.1045 52.5659C11.948 52.5893 11.7915 52.6126 11.6303 52.6367C10.9673 52.7356 10.3035 52.8289 9.63976 52.9224C9.15242 52.9919 8.66561 53.0645 8.17875 53.1372C7.88945 53.1782 7.60014 53.2191 7.30207 53.2613C6.49194 53.4449 5.99397 53.6134 5.35252 54.1406C4.80367 55.2607 4.81519 56.3627 4.82151 57.583C4.82106 57.7754 4.82061 57.9677 4.82015 58.1659C4.81983 58.5709 4.82069 58.9759 4.82265 59.3809C4.82516 59.9981 4.82267 60.6151 4.81968 61.2323C4.81999 61.6272 4.82059 62.0221 4.82151 62.417C4.82056 62.6002 4.81961 62.7833 4.81863 62.972C4.82903 64.1944 4.86766 65.3298 5.73475 66.2769C6.50807 66.6747 7.29245 66.7906 8.14304 66.9141C8.32157 66.9426 8.5001 66.9712 8.68403 67.0006C9.25285 67.0915 9.8221 67.179 10.3916 67.2656C11.1416 67.3798 11.891 67.4974 12.6401 67.6172C12.8118 67.6421 12.9834 67.6671 13.1603 67.6927C14.0858 67.8411 14.7741 67.9798 15.4306 68.6719C15.6401 69.1544 15.6401 69.1544 15.7721 69.7119C15.8241 69.9195 15.876 70.127 15.9295 70.3408C15.9824 70.5635 16.0353 70.7862 16.0898 71.0156C17.1979 75.3437 18.7108 79.5074 21.1403 83.2798C22.6174 85.5758 22.6174 85.5758 22.4619 86.9531C21.6139 88.7754 20.2151 90.3718 18.9878 91.9551C17.9999 93.2358 17.9999 93.2358 17.3056 94.6875C17.5164 95.6839 18.0993 96.287 18.7851 97.0166C19.9554 98.2763 19.9554 98.2763 20.4844 98.9502C21.0844 99.6426 21.721 100.22 22.4189 100.811C22.7792 101.12 23.1321 101.438 23.479 101.763C23.7514 102.017 23.7514 102.017 24.0293 102.275C24.1945 102.432 24.3598 102.588 24.5301 102.75C25.1226 103.186 25.477 103.329 26.2119 103.359C26.7835 103.131 26.7835 103.131 27.3398 102.73C27.5622 102.58 27.7845 102.43 28.0136 102.276C29.1001 101.507 30.1616 100.701 31.2137 99.8853C33.3937 98.211 33.3937 98.211 34.5926 98.194C35.7145 98.5535 36.6617 99.1495 37.667 99.7559C41.8683 102.215 46.4226 104.123 51.225 105.047C51.9372 105.297 52.2202 105.582 52.6963 106.172C52.8671 106.786 52.9868 107.341 53.079 107.965C53.1077 108.138 53.1365 108.311 53.1662 108.489C53.2572 109.039 53.3432 109.59 53.4287 110.142C53.5167 110.692 53.6058 111.242 53.6962 111.792C53.7522 112.133 53.8065 112.475 53.8591 112.817C54.0621 114.116 54.0621 114.116 54.5713 115.313C55.968 115.955 55.968 115.955 58.5556 115.781C58.5556 110.599 58.5556 105.417 58.5556 100.078C56.4674 99.7688 54.3791 99.4594 52.2275 99.1406C44.7182 97.2216 38.5182 94.0088 32.7744 88.8281C32.5989 88.6698 32.4233 88.5115 32.2425 88.3484C30.7644 86.9396 29.535 85.3077 28.3213 83.6719C28.2215 83.5381 28.1217 83.4044 28.0189 83.2665C21.8144 74.8209 19.7088 64.06 21.0511 53.7771C22.3671 45.4657 26.2657 38.2863 31.8369 32.1094C31.9952 31.9339 32.1535 31.7583 32.3166 31.5775C33.7255 30.0994 35.3573 28.87 36.9931 27.6563C37.1269 27.5565 37.2607 27.4567 37.3985 27.3539C43.6919 22.7305 50.9333 20.8747 58.5556 19.9219C58.5556 14.7399 58.5556 9.55783 58.5556 4.21877C55.968 4.04468 55.968 4.04468 54.5713 4.68752Z" fill="white"/>
</g>
<defs>
<clipPath id="clip0_168_3636">
<rect width="120" height="120" fill="white" transform="translate(0.665405)"/>
</clipPath>
</defs>
</svg>
