<svg width="120" height="120" viewBox="0 0 120 120" fill="none" xmlns="http://www.w3.org/2000/svg">
<path d="M60 64.9993V9.99927L100 29.9993L60 49.9993" stroke="white" stroke-width="8" stroke-linecap="round" stroke-linejoin="round"/>
<path d="M102.803 51.1105C105.464 59.3112 105.713 68.1037 103.521 76.4418C101.328 84.7799 96.7866 92.3127 90.4362 98.1439C84.0859 103.975 76.194 107.859 67.6996 109.335C59.2052 110.81 50.4658 109.814 42.5212 106.465C34.5766 103.116 27.7612 97.5557 22.8858 90.445C18.0105 83.3343 15.2804 74.9728 15.0205 66.3552C14.7605 57.7375 16.9816 49.2266 21.4194 41.835C25.8573 34.4433 32.3251 28.4821 40.0534 24.6605" stroke="white" stroke-width="8" stroke-linecap="round" stroke-linejoin="round"/>
<path d="M39.9924 49.9858C37.4869 53.321 35.8558 57.23 35.2476 61.3568C34.6394 65.4836 35.0735 69.697 36.5104 73.6131C37.9473 77.5292 40.3412 81.0235 43.474 83.7777C46.6069 86.5319 50.3791 88.4584 54.4471 89.3817C58.515 90.3049 62.7493 90.1956 66.7641 89.0638C70.779 87.9319 74.4468 85.8134 77.4335 82.9012C80.4201 79.9891 82.6306 76.376 83.8635 72.391C85.0964 68.406 85.3126 64.1758 84.4924 60.0858" stroke="white" stroke-width="8" stroke-linecap="round" stroke-linejoin="round"/>
</svg>
