<svg width="120" height="120" viewBox="0 0 120 120" fill="none" xmlns="http://www.w3.org/2000/svg">
<g clip-path="url(#clip0_168_3594)">
<path d="M25.3121 14.7656C27.6105 18.2133 25.7808 23.0439 25.7808 27.1875C42.7964 27.1875 59.8121 27.1875 77.3433 27.1875C77.6914 26.1434 77.6914 26.1434 78.0464 25.0781C80.0302 20.0775 84.4523 16.4462 89.1847 14.1797C94.6986 11.8007 100.841 11.7659 106.421 13.9215C111.898 16.179 116.3 20.5366 118.593 26.0156C120.731 31.9333 120.715 38.2869 118.081 44.0186C116.291 47.6987 113.245 51.879 109.311 53.4464C108.651 53.8834 108.651 53.8834 108.605 54.8094C108.6 55.1982 108.601 55.5872 108.608 55.976C108.606 56.2973 108.606 56.2973 108.604 56.625C108.602 57.3457 108.608 58.0661 108.614 58.7868C108.614 59.3022 108.613 59.8177 108.612 60.3331C108.611 61.4446 108.613 62.5561 108.618 63.6676C108.626 65.4243 108.625 67.181 108.623 68.9378C108.62 71.4003 108.621 73.8628 108.625 76.3253C108.626 76.4816 108.626 76.6379 108.626 76.799C108.628 78.067 108.631 79.335 108.633 80.603C108.635 81.7107 108.637 82.8184 108.639 83.926C108.64 84.16 108.64 84.16 108.64 84.3987C108.645 86.9992 108.644 89.5998 108.641 92.2004C108.639 93.9475 108.643 95.6944 108.651 97.4415C108.654 98.5279 108.654 99.6142 108.651 100.7C108.651 101.205 108.653 101.709 108.657 102.214C108.663 102.902 108.661 103.589 108.657 104.277C108.66 104.477 108.664 104.678 108.667 104.884C108.665 105.069 108.662 105.254 108.66 105.444C108.66 105.603 108.661 105.761 108.661 105.925C108.422 106.712 107.978 107.073 107.343 107.578C106.627 107.724 106.627 107.724 105.808 107.724C105.58 107.727 105.58 107.727 105.348 107.729C104.838 107.733 104.329 107.728 103.82 107.724C103.451 107.725 103.083 107.726 102.714 107.728C101.7 107.732 100.687 107.729 99.6732 107.724C98.5802 107.721 97.4872 107.724 96.3942 107.726C94.2519 107.73 92.1098 107.727 89.9675 107.722C87.4713 107.716 84.9751 107.717 82.4789 107.717C78.0222 107.718 73.5656 107.713 69.1089 107.705C64.7887 107.697 60.4685 107.694 56.1482 107.696C51.4431 107.697 46.7379 107.697 42.0328 107.692C41.6589 107.692 41.6589 107.692 41.2775 107.691C40.777 107.691 40.2764 107.69 39.7759 107.69C38.0381 107.688 36.3004 107.688 34.5626 107.688C32.4412 107.689 30.3199 107.686 28.1985 107.681C27.1172 107.678 26.0359 107.676 24.9546 107.678C23.9623 107.679 22.97 107.677 21.9777 107.672C21.6211 107.671 21.2644 107.671 20.9078 107.673C14.6953 107.694 9.63524 105.886 5.15581 101.484C5.00928 101.341 4.86275 101.197 4.71178 101.049C1.46011 97.607 -0.0785058 92.8725 -0.0615388 88.2188C-0.0624354 87.9546 -0.0633312 87.6904 -0.064255 87.4183C-0.0666623 86.5381 -0.0657439 85.6581 -0.0648111 84.7779C-0.0658306 84.1449 -0.0670306 83.5118 -0.068441 82.8787C-0.0714209 81.3406 -0.0718499 79.8025 -0.0713003 78.2643C-0.0708815 77.0134 -0.0712948 75.7625 -0.0722909 74.5116C-0.0724304 74.3332 -0.0725692 74.1548 -0.0727129 73.971C-0.0729969 73.6085 -0.0732825 73.246 -0.0735676 72.8836C-0.0761136 69.4883 -0.0756097 66.093 -0.0741792 62.6977C-0.0729678 59.5958 -0.0756062 56.494 -0.0800622 53.3921C-0.0846092 50.2022 -0.0865388 47.0123 -0.085659 43.8224C-0.0852117 42.0334 -0.085785 40.2445 -0.0891066 38.4556C-0.0919057 36.9327 -0.0922212 35.4098 -0.0893909 33.8869C-0.0880155 33.1109 -0.0881252 32.335 -0.0905639 31.5589C-0.0930232 30.7153 -0.0911128 29.8718 -0.0881463 29.0282C-0.0898747 28.7863 -0.0916031 28.5444 -0.0933838 28.2952C-0.0758062 25.9069 0.450023 23.6696 1.5523 21.5479C1.63345 21.3897 1.71461 21.2315 1.79823 21.0686C3.99072 16.9445 7.67876 14.2909 12.0845 12.9053C16.5535 11.6671 21.3453 12.4539 25.3121 14.7656ZM6.79644 20.8594C3.77226 24.8145 3.67752 29.0766 3.69635 33.8456C3.69648 34.3194 3.6964 34.7933 3.69614 35.2671C3.69601 36.5438 3.69875 37.8205 3.70203 39.0973C3.70498 40.4351 3.70524 41.7729 3.7058 43.1108C3.70725 45.6399 3.71109 48.169 3.7158 50.6981C3.72106 53.5792 3.72362 56.4603 3.72597 59.3414C3.73086 65.264 3.7391 71.1867 3.74956 77.1094C4.01247 76.8842 4.27535 76.6589 4.53823 76.4337C4.68463 76.3082 4.83103 76.1828 4.98186 76.0536C5.28739 75.7913 5.59214 75.5282 5.89647 75.2646C9.42309 72.3607 13.5428 71.325 18.0464 71.4844C19.2839 71.7164 20.5214 71.9484 21.7964 72.1875C21.7964 54.1664 21.7964 36.1453 21.7964 17.5781C16.2571 15.3624 10.913 16.4592 6.79644 20.8594ZM84.6089 22.2656C81.2104 26.2385 79.6669 31.087 79.9727 36.2576C80.5334 41.0723 82.9068 45.4124 86.602 48.5376C88.7379 50.1688 90.942 51.2673 93.5152 52.0312C93.7037 52.089 93.8922 52.1467 94.0865 52.2061C98.3092 53.2691 103.01 52.436 106.792 50.4016C111.343 47.6223 114.493 43.6316 115.806 38.399C116.809 33.6711 115.861 28.9555 113.437 24.8437C112.926 24.1054 112.379 23.417 111.796 22.7344C111.656 22.548 111.516 22.3616 111.372 22.1695C108.518 18.7911 104.152 16.9304 99.8433 16.4062C94.0326 16.0865 88.6672 18.007 84.6089 22.2656ZM25.7808 31.1719C25.7316 45.9498 25.7316 45.9498 25.6899 60.7277C25.6782 63.5809 25.6782 63.5809 25.6718 64.9152C25.6676 65.8503 25.6654 66.7854 25.6643 67.7206C25.6629 68.9119 25.6581 70.1031 25.6509 71.2944C25.6489 71.7325 25.648 72.1707 25.6484 72.6089C25.6488 73.199 25.6449 73.7889 25.6399 74.3789C25.641 74.5519 25.6422 74.7249 25.6433 74.9032C25.6271 76.0587 25.6271 76.0587 25.2241 76.6238C24.699 76.9702 24.2984 77.0606 23.6714 77.1094C23.1185 76.9519 23.1185 76.9519 22.5582 76.6992C19.0735 75.2006 15.8704 74.7241 12.1871 75.9375C8.57869 77.4839 6.09437 79.9088 4.59917 83.54C3.3475 86.8434 3.69064 90.8649 5.01665 94.0805C6.95954 98.2916 10.1776 101.261 14.5308 102.891C16.8535 103.553 19.0967 103.694 21.4988 103.678C21.8594 103.679 22.2199 103.679 22.5804 103.68C23.5618 103.682 24.543 103.679 25.5244 103.675C26.5861 103.672 27.6479 103.673 28.7096 103.674C30.5461 103.674 32.3825 103.672 34.2189 103.668C36.8741 103.662 39.5292 103.661 42.1844 103.66C46.4929 103.658 50.8014 103.653 55.1098 103.647C59.2935 103.64 63.4772 103.635 67.6608 103.632C68.052 103.632 68.052 103.632 68.4511 103.632C70.4909 103.63 72.5307 103.629 74.5705 103.628C84.5572 103.621 94.544 103.607 104.531 103.594C104.531 87.7383 104.531 71.8828 104.531 55.5469C103.216 55.7789 101.901 56.0109 100.546 56.25C99.6721 56.3149 98.8525 56.363 97.983 56.3525C97.7676 56.3509 97.5522 56.3493 97.3303 56.3477C95.0962 56.2962 92.634 56.0482 90.6097 55.0299C88.4169 53.9465 86.402 53.9805 84.0157 53.9996C83.6016 53.9983 83.1874 53.9964 82.7733 53.9939C81.6917 53.9886 80.6103 53.9896 79.5287 53.9925C77.7914 53.9968 76.0541 53.9945 74.3168 53.9864C73.7117 53.985 73.1068 53.9881 72.5017 53.9916C72.1318 53.9909 71.7619 53.99 71.3919 53.989C71.2244 53.9912 71.0569 53.9933 70.8842 53.9956C70.1711 53.9899 69.6741 53.9414 69.0416 53.5999C68.4587 52.9751 68.4663 52.3954 68.4371 51.5625C68.6612 50.9073 68.7542 50.7008 69.3746 50.3906C69.7933 50.3626 70.213 50.3491 70.6326 50.3425C70.8953 50.3378 71.1581 50.3332 71.4288 50.3283C71.7135 50.3244 71.9981 50.3205 72.2914 50.3165C72.5821 50.3116 72.8728 50.3067 73.1722 50.3017C73.9451 50.289 74.7181 50.2772 75.491 50.2659C76.2797 50.2541 77.0683 50.2411 77.8569 50.2281C79.4045 50.203 80.952 50.1791 82.4996 50.1562C82.358 49.9936 82.358 49.9936 82.2136 49.8277C82.0887 49.6832 81.9637 49.5388 81.835 49.3899C81.7116 49.2476 81.5883 49.1054 81.4612 48.9588C80.8851 48.2647 80.3877 47.5252 79.8921 46.7725C79.7458 46.5556 79.7458 46.5556 79.5964 46.3344C79.0994 45.5857 78.6622 44.8358 78.2621 44.0307C78.1778 43.8612 78.0935 43.6918 78.0066 43.5172C77.9424 43.3878 77.8782 43.2584 77.8121 43.125C77.4963 43.1245 77.4963 43.1245 77.1741 43.124C72.0552 43.1153 66.9362 43.1015 61.8173 43.0819C59.3419 43.0726 56.8664 43.065 54.3909 43.0615C52.2337 43.0584 50.0764 43.0521 47.9192 43.0419C46.7766 43.0366 45.6341 43.0329 44.4915 43.0332C43.4165 43.0333 42.3416 43.0291 41.2666 43.0216C40.8717 43.0196 40.4767 43.0192 40.0818 43.0205C39.5432 43.0221 39.0049 43.0179 38.4663 43.0123C38.1647 43.0114 37.8631 43.0105 37.5523 43.0096C36.7964 42.8906 36.7964 42.8906 36.2288 42.4665C35.6981 41.7299 35.7624 41.1978 35.8589 40.3125C36.3277 39.6094 36.3277 39.6094 37.0308 39.375C37.5569 39.3506 38.0836 39.3407 38.6102 39.3379C38.8523 39.3362 38.8523 39.3362 39.0993 39.3344C39.6412 39.3308 40.1832 39.3288 40.7251 39.3269C41.1132 39.3246 41.5012 39.3223 41.8892 39.3198C42.9438 39.3135 43.9984 39.3086 45.0531 39.3039C46.1548 39.2988 47.2564 39.2924 48.3581 39.2861C50.4449 39.2744 52.5316 39.2638 54.6184 39.2537C56.9939 39.2422 59.3693 39.2293 61.7448 39.2163C66.6318 39.1896 71.5188 39.1646 76.4058 39.1406C76.3987 38.9742 76.3916 38.8077 76.3843 38.6362C76.352 37.8718 76.3203 37.1073 76.2886 36.3428C76.2774 36.081 76.2663 35.8192 76.2548 35.5495C76.2442 35.2919 76.2336 35.0343 76.2227 34.769C76.2129 34.5346 76.2031 34.3001 76.193 34.0586C76.1663 33.0967 76.1714 32.1341 76.1714 31.1719C59.5425 31.1719 42.9136 31.1719 25.7808 31.1719Z" fill="white"/>
<path d="M53.9065 52.2656C56.3678 53.8112 57.6453 56.0865 59.0481 58.5644C59.2807 58.9714 59.5133 59.3785 59.746 59.7854C59.9858 60.2052 60.2251 60.6252 60.4643 61.0453C61.2026 62.3406 61.9496 63.6309 62.6956 64.9219C62.9886 65.4296 63.2816 65.9375 63.5745 66.4453C63.792 66.8223 63.792 66.8223 64.0139 67.207C65.3323 69.4922 65.3323 69.4922 65.772 70.2544C66.064 70.7605 66.3561 71.2666 66.6481 71.7727C67.3956 73.0682 68.1427 74.3639 68.8891 75.6601C69.0404 75.9227 69.1917 76.1852 69.3476 76.4558C69.646 76.9738 69.9443 77.4919 70.2425 78.0101C70.8883 79.1306 71.5369 80.2489 72.2015 81.3583C72.3093 81.5387 72.417 81.719 72.5281 81.9048C72.7214 82.2272 72.916 82.5488 73.1123 82.8694C74.5987 85.3475 75.1829 87.9707 74.5022 90.8056C73.8013 93.1475 72.4575 95.2564 70.3192 96.4984C68.7461 97.305 67.5813 97.762 65.8107 97.7688C65.3623 97.7714 65.3623 97.7714 64.9048 97.7739C64.574 97.7746 64.2432 97.7752 63.9123 97.7758C63.5635 97.7773 63.2146 97.7789 62.8657 97.7805C61.7202 97.7854 60.5746 97.7879 59.429 97.7902C59.0338 97.7911 58.6386 97.7921 58.2434 97.7931C56.3855 97.7976 54.5277 97.8009 52.6698 97.8028C50.53 97.8051 48.3903 97.8113 46.2505 97.8208C44.5938 97.8279 42.9371 97.8313 41.2804 97.8321C40.2923 97.8326 39.3043 97.8347 38.3162 97.8406C37.3851 97.8461 36.4541 97.8471 35.523 97.8447C35.1833 97.8446 34.8435 97.846 34.5038 97.8493C31.3928 97.8773 28.7717 97.3842 26.4847 95.1562C24.4615 92.9385 23.7662 90.478 23.8296 87.5335C23.9631 84.9387 25.4087 82.7769 26.7218 80.614C27.5388 79.268 28.3221 77.9031 29.1067 76.5381C29.4103 76.011 29.714 75.484 30.0177 74.9569C30.1701 74.6923 30.3224 74.4277 30.4794 74.1551C31.2175 72.8738 31.9566 71.5932 32.6956 70.3125C33.7257 68.5273 34.7553 66.7418 35.784 64.9557C36.2219 64.1963 36.661 63.4375 37.1002 62.6788C37.6878 61.6628 38.2685 60.6432 38.8452 59.6209C39.1293 59.1223 39.4134 58.6236 39.6975 58.125C39.8228 57.8999 39.948 57.6747 40.0771 57.4428C41.6054 54.7763 43.5041 52.5543 46.4743 51.5313C48.922 50.9594 51.6759 51.0479 53.9065 52.2656ZM44.9132 57.3726C44.1504 58.4078 43.5612 59.5452 42.9495 60.6738C42.6578 61.2035 42.3657 61.7329 42.0733 62.2622C41.9321 62.5187 41.7908 62.7752 41.6452 63.0394C41.1423 63.9443 40.6224 64.8379 40.093 65.7275C39.1236 67.361 38.1703 69.0035 37.222 70.6494C37.0724 70.9089 36.9229 71.1684 36.7688 71.4358C36.4623 71.968 36.1557 72.5002 35.8492 73.0324C35.2564 74.0616 34.6629 75.0904 34.0692 76.1191C33.7796 76.6211 33.49 77.1232 33.2006 77.6254C32.5149 78.8149 31.8282 80.0038 31.138 81.1906C30.8123 81.7507 30.4872 82.3112 30.1621 82.8716C29.9326 83.2667 29.7023 83.6613 29.472 84.0559C29.2636 84.4155 29.2636 84.4155 29.0509 84.7824C28.9284 84.9928 28.806 85.2031 28.6798 85.4199C27.8309 86.9995 27.5516 88.5308 28.0356 90.292C28.6628 91.7158 29.8281 92.8631 31.2299 93.5328C31.9617 93.7791 32.5457 93.8109 33.3173 93.8142C33.6074 93.8166 33.8975 93.8189 34.1964 93.8213C34.516 93.8215 34.8357 93.8217 35.1553 93.8218C35.4934 93.8236 35.8316 93.8255 36.1697 93.8277C37.0869 93.8328 38.0041 93.8349 38.9213 93.8361C39.4951 93.837 40.0689 93.8384 40.6428 93.8401C42.6469 93.8458 44.6509 93.8489 46.655 93.8497C48.5193 93.8506 50.3835 93.8576 52.2478 93.8674C53.8511 93.8755 55.4545 93.8791 57.0578 93.8793C58.0142 93.8795 58.9705 93.8815 59.9268 93.8882C60.8274 93.8944 61.7278 93.8948 62.6283 93.8911C62.9573 93.8907 63.2863 93.8922 63.6152 93.896C65.6156 93.9174 67.2457 93.7744 68.9065 92.5781C70.0311 91.4284 70.701 90.2418 70.8127 88.6065C70.7005 85.2308 67.7209 81.6065 66.0719 78.8079C65.335 77.5524 64.6086 76.2909 63.8821 75.0293C63.6634 74.6498 63.6634 74.6498 63.4404 74.2627C63.1445 73.7493 62.8487 73.2359 62.5529 72.7224C61.6749 71.1986 60.7959 69.6754 59.9166 68.1523C59.2386 66.978 58.5614 65.8032 57.8869 64.6269C57.6506 64.2147 57.4139 63.8026 57.1772 63.3906C56.8823 62.877 56.5877 62.3631 56.2938 61.8489C54.2125 57.8068 54.2125 57.8068 50.6253 55.3125C48.1677 55.021 46.4955 55.4745 44.9132 57.3726Z" fill="white"/>
<path d="M110.859 24.8437C111.9 25.9119 112.281 26.9875 112.339 28.4619C112.252 31.3354 109.777 33.2272 107.871 35.1123C107.584 35.3982 107.584 35.3982 107.291 35.6898C106.48 36.4973 105.667 37.3033 104.854 38.1095C104.258 38.7017 103.662 39.2947 103.066 39.8877C102.885 40.0669 102.704 40.2462 102.517 40.4309C101.542 41.4022 100.609 42.393 99.7193 43.4435C99.2861 43.9274 98.8241 44.2866 98.2764 44.6338C98.0212 44.8001 98.0212 44.8001 97.7609 44.9698C96.7192 45.5262 95.618 45.6139 94.4531 45.4687C92.7908 44.959 91.6693 44.0281 90.4706 42.8055C90.3036 42.639 90.1365 42.4726 89.9645 42.3011C89.6145 41.9508 89.2659 41.5992 88.9188 41.2462C88.3889 40.7083 87.8537 40.1762 87.3175 39.6446C86.9766 39.3021 86.636 38.9592 86.2958 38.616C86.1368 38.4582 85.9779 38.3005 85.8142 38.1379C84.5871 36.8801 83.8064 35.7056 83.8037 33.8818C83.8556 32.2387 84.3478 31.2103 85.4883 30.0439C86.9772 29.0418 88.0907 28.7237 89.8846 28.9178C91.5148 29.3215 92.4766 30.2774 93.6035 31.4502C93.8287 31.6802 93.8287 31.6802 94.0585 31.9148C94.4261 32.2906 94.7919 32.668 95.1562 33.0469C95.8858 32.7233 96.3743 32.3523 96.9309 31.783C97.0905 31.6211 97.2501 31.4592 97.4146 31.2923C97.5848 31.1175 97.755 30.9427 97.9303 30.7626C98.2946 30.3935 98.659 30.0244 99.0234 29.6553C99.5954 29.0731 100.167 28.4904 100.738 27.907C101.29 27.3437 101.844 26.7826 102.398 26.2216C102.567 26.0473 102.737 25.8729 102.911 25.6933C105.284 23.2972 108.102 22.6238 110.859 24.8437ZM107.109 27.4219C105.625 28.6692 104.247 30.0139 102.88 31.3864C102.525 31.7426 102.169 32.0974 101.813 32.4522C100.68 33.5843 99.5761 34.7301 98.5328 35.9464C97.6484 36.9705 96.8428 37.8401 95.5078 38.1738C94.1353 37.8307 93.3958 36.9226 92.424 35.9322C92.1352 35.6379 91.846 35.3441 91.5565 35.0506C91.2639 34.7529 90.9735 34.4532 90.6852 34.1513C90.5497 34.0122 90.4142 33.8732 90.2747 33.7299C90.154 33.6041 90.0334 33.4783 89.9091 33.3486C89.4695 32.9976 89.1495 32.8843 88.5938 32.8125C88.1399 33.0515 88.1399 33.0515 87.8906 33.5156C87.9178 34.7675 88.7046 35.4031 89.5422 36.2292C89.6848 36.3727 89.8273 36.5161 89.9742 36.6639C90.2757 36.966 90.5784 37.267 90.8821 37.5668C91.346 38.0257 91.8048 38.4894 92.2632 38.9539C92.5571 39.2471 92.8513 39.5401 93.1458 39.8328C93.2825 39.9714 93.4193 40.1101 93.5602 40.2529C93.6907 40.3805 93.8213 40.5081 93.9558 40.6396C94.069 40.7521 94.1823 40.8646 94.299 40.9806C94.8452 41.3594 95.1908 41.4715 95.8594 41.4844C96.4988 41.0567 96.4988 41.0567 97.1075 40.4108C97.2261 40.2938 97.3448 40.1769 97.4671 40.0564C97.8588 39.6685 98.2452 39.2757 98.6316 38.8824C98.9024 38.6114 99.1734 38.3407 99.4446 38.0701C100.013 37.502 100.578 36.9316 101.142 36.3594C101.864 35.6263 102.592 34.8986 103.321 34.1724C103.882 33.6136 104.44 33.0525 104.997 32.4906C105.264 32.2215 105.532 31.9529 105.801 31.685C106.176 31.3097 106.549 30.9315 106.92 30.5524C107.133 30.3378 107.345 30.1232 107.564 29.9021C108.062 29.2781 108.209 28.9099 108.281 28.125C107.895 27.893 107.508 27.6609 107.109 27.4219Z" fill="white"/>
<path d="M49.2045 61.7871C49.4821 61.7853 49.7598 61.7835 50.0458 61.7816C51.0936 61.9018 51.868 62.2151 52.6514 62.9297C53.6214 64.1753 53.7087 65.0707 53.6979 66.6037C53.6971 66.799 53.6963 66.9942 53.6954 67.1954C53.6792 69.4914 53.612 71.7857 53.5235 74.08C53.5053 74.5709 53.489 75.062 53.4745 75.553C53.453 76.2756 53.4259 76.9977 53.3976 77.72C53.3895 78.046 53.3895 78.046 53.3812 78.3785C53.3041 80.083 52.9252 81.4191 51.6508 82.6025C50.4543 83.1564 49.2749 83.424 47.9813 83.0475C46.9792 82.5875 46.2728 82.0572 45.7035 81.0938C45.176 79.4319 45.1261 77.8029 45.07 76.0684C45.0591 75.768 45.0483 75.4677 45.0371 75.1582C45.0145 74.5253 44.9934 73.8924 44.9734 73.2594C44.9476 72.4518 44.9177 71.6445 44.8866 70.8371C44.8573 70.0614 44.832 69.2856 44.8063 68.5098C44.7895 68.0776 44.7895 68.0776 44.7723 67.6367C44.6781 64.4119 44.6781 64.4119 45.7767 63.1055C46.9335 62.137 47.6732 61.7771 49.2045 61.7871ZM48.7504 65.8594C48.7785 66.7759 48.8077 67.6924 48.8376 68.6088C48.8525 69.0702 48.8667 69.5316 48.8808 69.993C48.9413 71.8246 49.0453 73.6443 49.2191 75.4688C49.2965 75.4688 49.3738 75.4688 49.4535 75.4688C49.4935 74.4385 49.5322 73.4082 49.5707 72.3779C49.5819 72.0905 49.593 71.803 49.6046 71.5068C49.6741 69.6233 49.7021 67.7441 49.6879 65.8594C49.3785 65.8594 49.0691 65.8594 48.7504 65.8594Z" fill="white"/>
<path d="M72.4475 60.8731C72.6855 60.8719 72.9234 60.8707 73.1686 60.8695C73.9544 60.8662 74.7402 60.8665 75.5261 60.867C76.0728 60.8661 76.6195 60.8651 77.1662 60.864C78.3118 60.8622 79.4575 60.8623 80.6032 60.8635C82.0709 60.8649 83.5386 60.8609 85.0064 60.8555C86.1353 60.852 87.2643 60.8518 88.3933 60.8525C88.9344 60.8524 89.4756 60.8512 90.0167 60.8488C90.7735 60.8459 91.5302 60.8475 92.287 60.8502C92.5102 60.8484 92.7335 60.8466 92.9634 60.8448C94.1794 60.8544 95.0463 60.9483 96.0934 61.6406C96.4601 62.3741 96.4911 63.19 96.3277 63.9844C96.0077 64.4761 96.0077 64.4761 95.3902 64.9219C94.5652 65.065 93.7461 65.0474 92.9105 65.0395C92.532 65.0414 92.532 65.0414 92.1458 65.0433C91.3107 65.0462 90.4758 65.0423 89.6407 65.0381C89.061 65.0382 88.4814 65.0385 87.9017 65.0392C86.6864 65.0395 85.4712 65.0365 84.2559 65.0312C82.697 65.0246 81.1381 65.0252 79.5791 65.0282C78.382 65.0298 77.1849 65.028 75.9877 65.0251C75.4129 65.024 74.838 65.0239 74.2631 65.0249C73.4601 65.0255 72.6573 65.0217 71.8543 65.0166C71.6159 65.0176 71.3775 65.0187 71.1318 65.0198C70.913 65.0174 70.6942 65.0151 70.4687 65.0127C70.2789 65.0122 70.0892 65.0116 69.8937 65.011C69.2365 64.8981 68.917 64.6769 68.4371 64.2187C68.1864 63.316 68.116 62.7949 68.4664 61.9189C69.515 60.6955 70.9594 60.8693 72.4475 60.8731Z" fill="white"/>
<path d="M81.0091 71.8015C81.1605 71.7994 81.312 71.7974 81.468 71.7953C81.966 71.7901 82.4635 71.7935 82.9614 71.7975C83.309 71.7967 83.6566 71.7955 84.0042 71.7941C84.7316 71.7923 85.4589 71.7948 86.1863 71.8003C87.1171 71.807 88.0476 71.8032 88.9784 71.7961C89.6959 71.7919 90.4132 71.7933 91.1307 71.7963C91.4738 71.7971 91.8169 71.7961 92.16 71.7934C92.6403 71.7904 93.12 71.795 93.6003 71.8015C93.8731 71.8024 94.146 71.8033 94.4271 71.8043C95.3794 71.9987 95.7314 72.3726 96.3281 73.125C96.4746 73.9453 96.4746 73.9453 96.3281 74.7656C95.7314 75.518 95.3794 75.8919 94.4271 76.0863C94.1542 76.0872 93.8814 76.0882 93.6003 76.0891C93.4489 76.0912 93.2974 76.0932 93.1414 76.0953C92.6434 76.1005 92.1459 76.0971 91.6479 76.0931C91.3004 76.0939 90.9528 76.095 90.6052 76.0965C89.8778 76.0982 89.1505 76.0957 88.4231 76.0903C87.4923 76.0836 86.5618 76.0874 85.631 76.0944C84.9135 76.0987 84.1962 76.0973 83.4787 76.0943C83.1356 76.0935 82.7925 76.0945 82.4494 76.0972C81.969 76.1002 81.4893 76.0956 81.0091 76.0891C80.7362 76.0882 80.4634 76.0873 80.1823 76.0863C79.2299 75.8919 78.878 75.518 78.2812 74.7656C78.1348 73.9453 78.1348 73.9453 78.2812 73.125C79.1258 72.0601 79.6619 71.8061 81.0091 71.8015Z" fill="white"/>
<path d="M81.1206 93.7122C81.4218 93.71 81.723 93.7077 82.0333 93.7054C82.3637 93.7043 82.6942 93.7033 83.0246 93.7024C83.3627 93.7011 83.7008 93.6997 84.0388 93.6984C84.7483 93.6959 85.4578 93.6945 86.1673 93.6937C87.0752 93.6924 87.9831 93.6868 88.891 93.6801C89.5897 93.6757 90.2884 93.6745 90.9871 93.6742C91.3217 93.6735 91.6563 93.6716 91.991 93.6685C92.4599 93.6645 92.9289 93.6654 93.3978 93.6665C93.6644 93.6656 93.931 93.6648 94.2058 93.6639C95.0084 93.7604 95.4488 93.9737 96.0938 94.4531C96.461 95.1877 96.5277 96.0074 96.3281 96.7969C95.4358 97.6801 94.8417 97.8528 93.6003 97.8594C93.4489 97.8614 93.2974 97.8635 93.1414 97.8655C92.6435 97.8708 92.1459 97.8693 91.6479 97.8671C91.3004 97.8684 90.9528 97.8698 90.6052 97.8715C89.8778 97.874 89.1505 97.8729 88.4231 97.8695C87.4923 97.8655 86.5618 97.871 85.631 97.8792C84.9135 97.8844 84.1962 97.884 83.4787 97.8821C83.1356 97.8819 82.7925 97.8835 82.4494 97.8869C81.9691 97.891 81.4893 97.8876 81.0091 97.8823C80.7362 97.8821 80.4634 97.8818 80.1823 97.8816C79.2287 97.6891 78.8772 97.3167 78.2812 96.5625C78.1494 95.7275 78.1494 95.7275 78.2812 94.9219C79.1445 93.8285 79.7714 93.7204 81.1206 93.7122Z" fill="white"/>
<path d="M80.7947 82.8208C80.9511 82.8192 81.1075 82.8175 81.2686 82.8158C81.7842 82.8118 82.2993 82.8163 82.8149 82.8214C83.1738 82.8212 83.5328 82.8206 83.8918 82.8196C84.6437 82.819 85.3954 82.8224 86.1473 82.8289C87.1104 82.8368 88.0733 82.8354 89.0365 82.831C89.7776 82.8286 90.5187 82.8307 91.2598 82.8342C91.6149 82.8354 91.97 82.8353 92.3251 82.8338C92.8217 82.8325 93.3179 82.8373 93.8145 82.8437C94.0968 82.8452 94.3792 82.8466 94.6702 82.8481C95.5277 82.9917 95.8038 83.2264 96.328 83.9063C96.4987 84.5487 96.4627 85.1321 96.328 85.7813C95.8107 86.477 95.511 86.6786 94.6874 86.9531C94.2157 86.9775 93.7431 86.988 93.2707 86.9909C92.979 86.9931 92.6872 86.9954 92.3866 86.9977C92.0677 86.9989 91.7488 86.9999 91.43 87.0007C91.1027 87.0021 90.7755 87.0034 90.4483 87.0048C89.7622 87.0072 89.0762 87.0086 88.3902 87.0094C87.5125 87.0107 86.6349 87.0164 85.7572 87.023C85.0812 87.0274 84.4052 87.0286 83.7292 87.029C83.4057 87.0297 83.0822 87.0316 82.7587 87.0346C82.3055 87.0386 81.8523 87.0378 81.3991 87.0367C81.0127 87.038 81.0127 87.038 80.6185 87.0393C79.6024 86.9137 78.9951 86.4952 78.2812 85.7813C78.1761 84.8533 78.1741 84.3203 78.6569 83.5099C79.3952 82.7986 79.7802 82.8217 80.7947 82.8208Z" fill="white"/>
<path d="M51.6797 84.0527C53.6034 85.8803 53.6034 85.8803 53.7195 87.302C53.7578 89.6087 53.7578 89.6087 52.9688 90.7031C51.8036 91.8467 51.0701 92.3807 49.4092 92.417C48.004 92.4015 47.2635 92.2932 46.1719 91.4063C45.2296 90.3431 44.8143 89.4729 44.707 88.0518C44.8065 86.5848 45.3854 85.4251 46.4062 84.375C47.8696 83.2869 50.0684 83.3046 51.6797 84.0527ZM48.9844 87.6563C48.9844 87.8883 48.9844 88.1203 48.9844 88.3594C49.2164 88.3594 49.4484 88.3594 49.6875 88.3594C49.6875 88.1274 49.6875 87.8953 49.6875 87.6563C49.4555 87.6563 49.2234 87.6563 48.9844 87.6563Z" fill="white"/>
</g>
<defs>
<clipPath id="clip0_168_3594">
<rect width="120" height="120" fill="white"/>
</clipPath>
</defs>
</svg>
