<svg width="120" height="120" viewBox="0 0 120 120" fill="none" xmlns="http://www.w3.org/2000/svg">
<g clip-path="url(#clip0_168_3574)">
<path d="M0 0C39.6 0 79.2 0 120 0C120 2.32031 120 4.64063 120 7.03125C117.68 7.03125 115.359 7.03125 112.969 7.03125C112.969 30.3117 112.969 53.5922 112.969 77.5781C107.245 77.5781 101.522 77.5781 95.625 77.5781C96.6305 78.893 97.6359 80.2078 98.6719 81.5625C99.3706 82.5242 100.066 83.483 100.745 84.4579C101.021 84.8517 101.303 85.2414 101.585 85.6311C101.76 85.8788 101.934 86.1266 102.114 86.3818C102.27 86.5997 102.425 86.8175 102.586 87.0419C102.891 87.6562 102.891 87.6562 102.872 88.2422C102.614 88.9431 102.275 89.4869 101.851 90.1025C101.681 90.3494 101.511 90.5962 101.336 90.8505C101.151 91.114 100.966 91.3774 100.781 91.6406C100.69 91.7717 100.599 91.9028 100.505 92.0378C99.1247 94.0209 97.6732 95.9401 96.1622 97.8252C95.8825 98.1743 95.6044 98.5246 95.3265 98.8751C91.9269 103.109 88.0312 107.376 83.6719 110.625C83.3343 110.884 82.9968 111.144 82.6593 111.403C80.4952 113.049 78.3127 114.537 75.8988 115.791C75.4893 116.005 75.0843 116.227 74.6796 116.451C72.3162 117.71 69.8317 118.55 67.2656 119.297C67.1094 119.343 66.9532 119.389 66.7922 119.436C58.9618 121.623 50.4922 119.39 43.5938 115.547C41.0699 114.122 38.7046 112.568 36.4785 110.711C36.1088 110.403 35.7347 110.102 35.3595 109.801C33.4391 108.234 31.6824 106.497 29.9268 104.751C29.8067 104.632 29.6867 104.513 29.5631 104.391C27.9572 102.798 26.4878 101.147 25.0781 99.375C24.8758 99.1342 24.6722 98.8943 24.4666 98.6563C22.2291 96.0473 20.2642 93.2254 18.3398 90.3809C18.1928 90.1657 18.1928 90.1657 18.0428 89.9462C17.1031 88.5369 17.1031 88.5369 17.1094 87.8906C17.4021 87.3001 17.7015 86.783 18.0615 86.2354C18.1654 86.0734 18.2693 85.9114 18.3763 85.7446C20.2211 82.9136 22.3022 80.2432 24.375 77.5781C18.6516 77.5781 12.9281 77.5781 7.03125 77.5781C7.03125 54.2977 7.03125 31.0172 7.03125 7.03125C4.71094 7.03125 2.39062 7.03125 0 7.03125C0 4.71094 0 2.39062 0 0ZM14.0625 7.03125C14.0625 27.9914 14.0625 48.9516 14.0625 70.5469C29.8286 72.4872 29.8286 72.4872 34.4531 67.5C35.1082 66.9594 35.7513 66.4373 36.4307 65.9326C36.597 65.8076 36.7633 65.6826 36.9347 65.5538C45.1862 59.4076 54.3659 55.4562 64.8633 56.8707C74.2043 58.4487 82.0055 64.3445 88.8281 70.5469C94.4742 70.5469 100.12 70.5469 105.938 70.5469C105.938 49.5867 105.938 28.6266 105.938 7.03125C75.6187 7.03125 45.3 7.03125 14.0625 7.03125ZM37.1445 74.903C36.7266 75.3014 36.2896 75.6721 35.8447 76.04C33.4935 78.0679 31.4434 80.5348 29.5312 82.9688C29.2508 83.3206 28.9703 83.6725 28.6899 84.0244C28.3891 84.4047 28.0885 84.7853 27.7881 85.166C27.6437 85.3474 27.4993 85.5288 27.3505 85.7156C27.2148 85.8889 27.0792 86.0623 26.9394 86.2408C26.8178 86.395 26.6962 86.5492 26.5709 86.7081C26.2102 87.2469 25.9691 87.7384 25.7812 88.3594C26.0994 89.0096 26.0994 89.0096 26.6455 89.6338C26.7899 89.8141 26.7899 89.8141 26.9372 89.9981C27.1446 90.2569 27.3537 90.5144 27.5642 90.7706C27.8917 91.1732 28.209 91.5819 28.5242 91.994C29.6983 93.5248 30.914 94.988 32.2302 96.3995C32.6933 96.9019 33.1424 97.4106 33.5889 97.9276C35.768 100.426 38.1537 102.744 40.7812 104.766C41.1334 105.049 41.1334 105.049 41.4926 105.339C47.921 110.482 55.3092 113.561 63.6445 112.671C69.0167 111.849 74.1035 108.812 78.2812 105.469C78.4945 105.3 78.7078 105.132 78.9276 104.959C82.4214 102.157 85.8143 99.026 88.5947 95.506C89.0299 94.9626 89.4842 94.4519 89.9561 93.9404C90.8362 92.9607 91.637 91.9282 92.4316 90.8789C92.5545 90.7181 92.6775 90.5573 92.8041 90.3917C93.1307 89.9554 93.4431 89.5128 93.75 89.0625C93.882 88.8703 94.0141 88.6782 94.1501 88.4802C94.2521 87.604 93.8369 87.2007 93.3076 86.5256C93.1684 86.3573 93.0292 86.189 92.8857 86.0156C92.7456 85.8399 92.6055 85.6642 92.4612 85.4832C92.0362 84.9534 91.6052 84.4292 91.1719 83.9062C91.0513 83.7595 90.9307 83.6127 90.8065 83.4614C89.4137 81.7703 87.9608 80.134 86.4844 78.5156C86.2715 78.2783 86.0588 78.0409 85.8463 77.8033C84.7837 76.6218 83.7179 75.4774 82.4963 74.4562C82.1737 74.1831 81.8591 73.9002 81.5515 73.6102C75.1649 67.598 67.3161 63.4693 58.4436 63.6694C50.2522 64.0085 42.8059 69.4043 37.1445 74.903Z" fill="white"/>
<path d="M81.0938 14.0625C86.8945 14.0625 92.6953 14.0625 98.6719 14.0625C98.6719 19.8633 98.6719 25.6641 98.6719 31.6406C96.3516 31.6406 94.0312 31.6406 91.6406 31.6406C91.5633 30.0164 91.4859 28.3922 91.4062 26.7188C83.4398 34.6852 75.4734 42.6516 67.2656 50.8594C66.3324 50.3928 65.735 49.8609 65.0169 49.1326C64.8887 49.0045 64.7606 48.8764 64.6285 48.7444C64.2064 48.322 63.7859 47.8979 63.3655 47.4738C63.0727 47.1801 62.7797 46.8865 62.4867 46.593C61.7166 45.8211 60.9479 45.0478 60.1795 44.2742C59.3948 43.4847 58.6088 42.6965 57.8229 41.9083C56.2817 40.362 54.7419 38.8143 53.2031 37.2656C52.4617 37.5938 51.9615 37.98 51.3898 38.5522C51.2193 38.7217 51.0488 38.8912 50.8732 39.0659C50.6885 39.2519 50.5038 39.438 50.3134 39.6296C50.0189 39.9235 50.0189 39.9235 49.7183 40.2234C49.1804 40.7606 48.6435 41.2989 48.1071 41.8376C47.5441 42.4027 46.9798 42.9666 46.4156 43.5307C45.4674 44.4792 44.52 45.4286 43.5732 46.3786C42.4823 47.4731 41.3902 48.5665 40.2974 49.6592C39.1304 50.826 37.9643 51.9937 36.7984 53.1617C36.4644 53.4962 36.1303 53.8305 35.7961 54.1648C35.1695 54.7919 34.5437 55.4197 33.9182 56.0478C33.6432 56.3226 33.6432 56.3226 33.3627 56.6029C32.4019 57.5693 31.4782 58.5543 30.5922 59.5899C30.0382 60.2249 29.4437 60.8161 28.8428 61.4062C28.7272 61.5208 28.6116 61.6353 28.4926 61.7532C28.2144 62.0288 27.9354 62.3035 27.6562 62.5781C26.9006 62.2467 26.4057 61.8492 25.8316 61.2598C25.6686 61.0942 25.5056 60.9286 25.3377 60.7581C25.1698 60.5852 25.002 60.4124 24.8291 60.2344C24.4949 59.8921 24.1601 59.5502 23.8248 59.209C23.6773 59.0573 23.5299 58.9057 23.3779 58.7494C22.9452 58.3145 22.9452 58.3145 22.2656 57.8906C22.3985 56.9974 22.775 56.5916 23.4069 55.9632C23.6997 55.6695 23.6997 55.6695 23.9983 55.3699C24.3219 55.0507 24.3219 55.0507 24.6521 54.725C24.8805 54.4971 25.1088 54.2691 25.3369 54.0409C25.8286 53.5499 26.3215 53.0599 26.8152 52.5708C27.5971 51.7961 28.3766 51.019 29.1558 50.2416C30.3901 49.0107 31.6261 47.7815 32.8628 46.553C35.073 44.3572 37.2805 42.1586 39.4872 39.9594C40.2609 39.1885 41.0352 38.4184 41.8103 37.6489C42.2947 37.1677 42.7786 36.6861 43.2624 36.2043C43.5907 35.8778 43.9197 35.5518 44.2486 35.2259C45.2847 34.1934 46.2875 33.1483 47.2369 32.0352C47.7535 31.4378 48.3061 30.8864 48.8663 30.3296C48.9784 30.2178 49.0905 30.106 49.2061 29.9908C49.5564 29.6417 49.9076 29.2935 50.2588 28.9453C50.4998 28.7055 50.7407 28.4656 50.9816 28.2257C51.5652 27.6446 52.1496 27.0643 52.7344 26.4844C53.6661 26.8595 54.2907 27.5089 54.9831 28.2112C55.1113 28.3393 55.2394 28.4673 55.3715 28.5993C55.7936 29.0218 56.2141 29.4459 56.6345 29.87C56.9273 30.1637 57.2203 30.4573 57.5133 30.7508C58.2834 31.5227 59.0521 32.296 59.8205 33.0696C60.6052 33.8591 61.3912 34.6472 62.1771 35.4355C63.7183 36.9817 65.2581 38.5295 66.7969 40.0781C67.5046 39.761 67.9948 39.4071 68.5411 38.859C68.6963 38.7045 68.8514 38.55 69.0112 38.3909C69.1787 38.2216 69.3463 38.0524 69.519 37.878C69.6974 37.6996 69.8759 37.5212 70.0597 37.3375C70.6492 36.7476 71.2371 36.1561 71.825 35.5646C72.2334 35.1553 72.6419 34.7461 73.0505 34.337C74.1258 33.2599 75.1997 32.1815 76.2732 31.1027C77.369 30.0022 78.466 28.903 79.563 27.8036C81.7152 25.6464 83.8657 23.4876 86.0156 21.3281C84.3914 21.2508 82.7672 21.1734 81.0938 21.0938C81.0938 18.7734 81.0938 16.4531 81.0938 14.0625Z" fill="white"/>
<path d="M70.4863 73.6631C71.3463 74.3665 72.1197 75.1387 72.8908 75.9375C73.0636 76.1031 73.2364 76.2686 73.4145 76.4392C76.4186 79.4899 77.6561 83.8241 77.6955 87.9932C77.6508 92.7186 76.2141 97.0349 72.8212 100.404C72.6121 100.606 72.4031 100.808 72.1876 101.016C72.0221 101.188 71.8565 101.361 71.6859 101.539C68.6054 104.573 64.2099 105.779 60.0001 105.82C55.3317 105.774 51.0433 104.292 47.7211 100.946C47.5193 100.737 47.3175 100.528 47.1095 100.312C46.9367 100.147 46.7639 99.9814 46.5858 99.8108C45.0758 98.2773 44.1977 96.4097 43.3595 94.4531C43.252 94.2033 43.1444 93.9534 43.0336 93.696C41.7668 90.1054 41.8611 85.2946 43.3595 81.7969C43.4212 81.6479 43.4829 81.499 43.5464 81.3455C44.5789 78.9008 45.9112 77.0699 47.8126 75.2344C47.9782 75.0616 48.1438 74.8887 48.3144 74.7107C53.9852 69.1264 64.244 69.016 70.4863 73.6631ZM51.5663 81.86C49.6859 84.4073 49.4361 87.1688 49.6876 90.2344C50.2741 93.0762 52.0765 95.3344 54.3751 97.0312C57.025 98.5053 59.9078 98.8919 62.8859 98.2773C65.5796 97.3552 67.8968 95.5649 69.2909 93.0588C70.4945 90.4682 70.8747 87.349 69.9318 84.5947C68.6377 81.6515 66.6036 79.5045 63.6201 78.2519C59.0898 76.6309 54.6003 78.354 51.5663 81.86Z" fill="white"/>
<path d="M56.4844 84.6094C58.8047 84.6094 61.125 84.6094 63.5156 84.6094C63.5156 86.9297 63.5156 89.25 63.5156 91.6406C61.1953 91.6406 58.875 91.6406 56.4844 91.6406C56.4844 89.3203 56.4844 87 56.4844 84.6094Z" fill="white"/>
</g>
<defs>
<clipPath id="clip0_168_3574">
<rect width="120" height="120" fill="white"/>
</clipPath>
</defs>
</svg>
