<svg width="29" height="24" viewBox="0 0 29 24" fill="none" xmlns="http://www.w3.org/2000/svg">
<g id="logos:airtable" clip-path="url(#clip0_4650_3160)">
<path id="Vector" d="M12.7793 0.301599L2.13007 4.70811C1.53788 4.95313 1.54402 5.79425 2.14 6.03057L12.8336 10.2712C13.7732 10.6438 14.8196 10.6438 15.7592 10.2712L26.453 6.03046C27.0488 5.79436 27.055 4.95325 26.4626 4.70811L15.8136 0.301488C14.8421 -0.100496 13.7508 -0.100384 12.7793 0.301599Z" fill="#FFBF00"/>
<path id="Vector_2" d="M15.2452 12.5867V23.1804C15.2452 23.6843 15.7531 24.0294 16.2215 23.8437L28.1376 19.2184C28.2705 19.1657 28.3845 19.0743 28.4648 18.9561C28.5451 18.8378 28.588 18.6982 28.588 18.5552V7.96141C28.588 7.45752 28.08 7.11259 27.6116 7.29823L15.6955 11.9234C15.5627 11.9761 15.4487 12.0675 15.3684 12.1858C15.288 12.3041 15.2451 12.4438 15.2451 12.5867" fill="#26B5F8"/>
<path id="Vector_3" d="M12.4623 13.1335L8.92596 14.8409L8.56685 15.0145L1.10162 18.5914C0.628433 18.8197 0.0244141 18.4749 0.0244141 17.9492V8.00597C0.0244141 7.81575 0.121977 7.65155 0.252805 7.52786C0.306404 7.47453 0.367197 7.42896 0.433419 7.39246C0.6118 7.28541 0.866312 7.25683 1.08265 7.34245L12.4028 11.8277C12.9783 12.0559 13.0235 12.8623 12.4623 13.1335Z" fill="#ED3049"/>
<path id="Vector_4" d="M12.4626 13.1334L8.9262 14.8408L0.25293 7.52787C0.306529 7.47453 0.367322 7.42896 0.433544 7.39246C0.611925 7.28541 0.866437 7.25683 1.08277 7.34245L12.403 11.8277C12.9784 12.0559 13.0237 12.8622 12.4626 13.1334Z" fill="black" fill-opacity="0.25"/>
</g>
<defs>
<clipPath id="clip0_4650_3160">
<rect width="28.5767" height="24" fill="white" transform="translate(0.0244141)"/>
</clipPath>
</defs>
</svg>
