<svg width="25" height="23" viewBox="0 0 25 23" fill="none" xmlns="http://www.w3.org/2000/svg">
<g id="logos:asana-icon" clip-path="url(#clip0_4650_3154)">
<path id="Vector" d="M18.968 11.7441C16.0852 11.7441 13.7484 14.081 13.7484 16.9638C13.7484 19.8466 16.0852 22.1835 18.968 22.1835C21.8507 22.1835 24.1875 19.8465 24.1875 16.9638C24.1875 14.081 21.8507 11.7441 18.968 11.7441ZM5.40703 11.7445C2.52441 11.7445 0.1875 14.081 0.1875 16.9638C0.1875 19.8466 2.52441 22.1835 5.40703 22.1835C8.28984 22.1835 10.6268 19.8465 10.6268 16.9638C10.6268 14.081 8.28984 11.7445 5.40703 11.7445ZM17.407 5.21953C17.407 8.10234 15.0701 10.4395 12.1876 10.4395C9.30478 10.4395 6.96797 8.10234 6.96797 5.21953C6.96797 2.337 9.30469 0 12.1875 0C15.07 0 17.4068 2.33719 17.4068 5.21944" fill="#F06A6A"/>
</g>
<defs>
<clipPath id="clip0_4650_3154">
<rect width="24" height="22.2188" fill="white" transform="translate(0.1875)"/>
</clipPath>
</defs>
</svg>
