<svg width="16" height="16" viewBox="0 0 16 16" fill="none" xmlns="http://www.w3.org/2000/svg">
<path d="M6.69532 16C6.49858 16 6.30098 15.9607 6.11166 15.8805C5.5882 15.6589 5.22527 15.1612 5.16463 14.5823L5.15373 14.4767L5.9821 10.7126H3.67801C3.25051 10.7126 2.83785 10.4949 2.54602 10.1159C2.25201 9.73374 2.14252 9.25565 2.25332 8.83732L2.2651 8.79806L4.8872 0.929142L4.90116 0.898607C5.08655 0.488127 5.42549 0.188009 5.85516 0.0527822L5.94939 0.0231195L11.2699 0L11.3214 0.00828812C11.7694 0.078519 12.1602 0.344611 12.3941 0.739388C12.6257 1.1298 12.6715 1.59568 12.5197 2.0175L12.5022 2.06069L10.6409 6.26975H12.4604C12.7692 6.26975 13.1696 6.55678 13.1736 6.55939C13.7145 6.95548 13.9287 7.68047 13.6949 8.32258L13.6591 8.42073L13.5945 8.50274C12.0948 10.4112 10.5009 12.2978 8.95972 14.1221C8.55142 14.6054 8.14312 15.0887 7.73613 15.5725L7.69251 15.6244L7.63885 15.6663C7.35793 15.8861 7.02771 15.9996 6.69445 15.9996L6.69532 16ZM6.48332 14.523C6.51952 14.6237 6.59586 14.6639 6.62203 14.6752C6.67831 14.6992 6.7337 14.6957 6.79041 14.6643C7.17952 14.2019 7.56993 13.74 7.96035 13.2776C9.46486 11.4969 11.02 9.65653 12.4804 7.80305C12.4848 7.73325 12.4595 7.6652 12.4115 7.62376C12.391 7.61198 12.3583 7.59454 12.3273 7.5784H8.63168L11.293 1.56035C11.3114 1.49361 11.2861 1.43603 11.2686 1.40636C11.2547 1.38281 11.2176 1.33133 11.1521 1.30909L6.18276 1.33046C6.15005 1.3514 6.12387 1.37975 6.10381 1.41552L3.51791 9.17757C3.51704 9.24431 3.61737 9.38433 3.68455 9.40396H7.61006L6.48332 14.523Z" fill="#4F4F4F"/>
</svg>
