<svg width="16" height="17" viewBox="0 0 16 17" fill="none" xmlns="http://www.w3.org/2000/svg">
<path d="M14.2856 2.21445H12.5706V1.07148C12.5706 0.919916 12.5104 0.774557 12.4032 0.667383C12.2961 0.56021 12.1507 0.5 11.9991 0.5C11.8476 0.5 11.7022 0.56021 11.595 0.667383C11.4879 0.774557 11.4276 0.919916 11.4276 1.07148V2.21445H4.57086V1.07148C4.57086 0.919916 4.51065 0.774557 4.40347 0.667383C4.2963 0.56021 4.15094 0.5 3.99938 0.5C3.84781 0.5 3.70245 0.56021 3.59528 0.667383C3.4881 0.774557 3.42789 0.919916 3.42789 1.07148V2.21445H1.71395C1.48878 2.21445 1.26583 2.25881 1.05782 2.34501C0.849806 2.4312 0.660818 2.55754 0.50165 2.7168C0.342482 2.87606 0.216255 3.06513 0.13018 3.27319C0.0441045 3.48125 -0.000131075 3.70423 2.91733e-07 3.92939V14.7861C2.91733e-07 15.2406 0.180576 15.6766 0.502004 15.998C0.823431 16.3194 1.25938 16.5 1.71395 16.5H14.2856C14.7401 16.5 15.1761 16.3194 15.4975 15.998C15.8189 15.6766 15.9995 15.2406 15.9995 14.7861V3.92939C15.9996 3.70423 15.9554 3.48125 15.8693 3.27319C15.7832 3.06513 15.657 2.87606 15.4979 2.7168C15.3387 2.55754 15.1497 2.4312 14.9417 2.34501C14.7337 2.25881 14.5107 2.21445 14.2856 2.21445V2.21445ZM14.8565 14.7851C14.8565 14.9365 14.7964 15.0817 14.6893 15.1888C14.5822 15.2959 14.437 15.356 14.2856 15.356H1.71395C1.56251 15.356 1.41728 15.2959 1.3102 15.1888C1.20312 15.0817 1.14296 14.9365 1.14296 14.7851V7.35729H14.8565V14.7851ZM14.8565 6.21432H1.14296V3.92939C1.14296 3.77796 1.20312 3.63273 1.3102 3.52565C1.41728 3.41857 1.56251 3.35841 1.71395 3.35841H3.42889V4.50038C3.42889 4.65181 3.48905 4.79704 3.59613 4.90412C3.70321 5.0112 3.84844 5.07136 3.99988 5.07136C4.15131 5.07136 4.29654 5.0112 4.40362 4.90412C4.5107 4.79704 4.57086 4.65181 4.57086 4.50038V3.35741H11.4276V4.50038C11.4276 4.65194 11.4879 4.7973 11.595 4.90447C11.7022 5.01165 11.8476 5.07186 11.9991 5.07186C12.1507 5.07186 12.2961 5.01165 12.4032 4.90447C12.5104 4.7973 12.5706 4.65194 12.5706 4.50038V3.35741H14.2846C14.436 3.35741 14.5812 3.41757 14.6883 3.52465C14.7954 3.63173 14.8555 3.77696 14.8555 3.92839V6.21432H14.8565Z" fill="#4F4F4F"/>
<path d="M4.57001 8.50049H3.42305C3.27148 8.50049 3.12612 8.5607 3.01895 8.66787C2.91177 8.77505 2.85156 8.92041 2.85156 9.07197C2.85156 9.22354 2.91177 9.3689 3.01895 9.47607C3.12612 9.58325 3.27148 9.64346 3.42305 9.64346H4.56601C4.71758 9.64346 4.86294 9.58325 4.97011 9.47607C5.07728 9.3689 5.13749 9.22354 5.13749 9.07197C5.13749 8.92041 5.07728 8.77505 4.97011 8.66787C4.86294 8.5607 4.71758 8.50049 4.56601 8.50049H4.57001Z" fill="#4F4F4F"/>
<path d="M8.56992 8.50049H7.42695C7.27539 8.50049 7.13003 8.5607 7.02285 8.66787C6.91568 8.77505 6.85547 8.92041 6.85547 9.07197C6.85547 9.22354 6.91568 9.3689 7.02285 9.47607C7.13003 9.58325 7.27539 9.64346 7.42695 9.64346H8.56992C8.72149 9.64346 8.86684 9.58325 8.97401 9.47607C9.08118 9.3689 9.14139 9.22354 9.14139 9.07197C9.14139 8.92041 9.08118 8.77505 8.97401 8.66787C8.86684 8.5607 8.72149 8.50049 8.56992 8.50049Z" fill="#4F4F4F"/>
<path d="M12.5699 8.5H11.427C11.2754 8.5 11.13 8.56021 11.0229 8.66738C10.9157 8.77456 10.8555 8.91992 10.8555 9.07148C10.8555 9.22305 10.9157 9.36841 11.0229 9.47559C11.13 9.58276 11.2754 9.64297 11.427 9.64297H12.5699C12.7215 9.64297 12.8668 9.58276 12.974 9.47559C13.0812 9.36841 13.1414 9.22305 13.1414 9.07148C13.1414 8.91992 13.0812 8.77456 12.974 8.66738C12.8668 8.56021 12.7215 8.5 12.5699 8.5Z" fill="#4F4F4F"/>
<path d="M4.57001 10.7861H3.42305C3.27148 10.7861 3.12612 10.8463 3.01895 10.9535C2.91177 11.0607 2.85156 11.2061 2.85156 11.3576C2.85156 11.5092 2.91177 11.6545 3.01895 11.7617C3.12612 11.8689 3.27148 11.9291 3.42305 11.9291H4.56601C4.71758 11.9291 4.86294 11.8689 4.97011 11.7617C5.07728 11.6545 5.13749 11.5092 5.13749 11.3576C5.13749 11.2061 5.07728 11.0607 4.97011 10.9535C4.86294 10.8463 4.71758 10.7861 4.56601 10.7861H4.57001Z" fill="#4F4F4F"/>
<path d="M8.56992 10.7861H7.42695C7.27539 10.7861 7.13003 10.8463 7.02285 10.9535C6.91568 11.0607 6.85547 11.2061 6.85547 11.3576C6.85547 11.5092 6.91568 11.6545 7.02285 11.7617C7.13003 11.8689 7.27539 11.9291 7.42695 11.9291H8.56992C8.72149 11.9291 8.86684 11.8689 8.97401 11.7617C9.08118 11.6545 9.14139 11.5092 9.14139 11.3576C9.14139 11.2061 9.08118 11.0607 8.97401 10.9535C8.86684 10.8463 8.72149 10.7861 8.56992 10.7861Z" fill="#4F4F4F"/>
<path d="M12.5699 10.7861H11.427C11.2754 10.7861 11.13 10.8463 11.0229 10.9535C10.9157 11.0607 10.8555 11.2061 10.8555 11.3576C10.8555 11.5092 10.9157 11.6545 11.0229 11.7617C11.13 11.8689 11.2754 11.9291 11.427 11.9291H12.5699C12.7215 11.9291 12.8668 11.8689 12.974 11.7617C13.0812 11.6545 13.1414 11.5092 13.1414 11.3576C13.1414 11.2061 13.0812 11.0607 12.974 10.9535C12.8668 10.8463 12.7215 10.7861 12.5699 10.7861V10.7861Z" fill="#4F4F4F"/>
<path d="M4.57001 13.0708H3.42305C3.27148 13.0708 3.12612 13.131 3.01895 13.2382C2.91177 13.3454 2.85156 13.4907 2.85156 13.6423C2.85156 13.7939 2.91177 13.9392 3.01895 14.0464C3.12612 14.1535 3.27148 14.2137 3.42305 14.2137H4.56601C4.71758 14.2137 4.86294 14.1535 4.97011 14.0464C5.07728 13.9392 5.13749 13.7939 5.13749 13.6423C5.13749 13.4907 5.07728 13.3454 4.97011 13.2382C4.86294 13.131 4.71758 13.0708 4.56601 13.0708H4.57001Z" fill="#4F4F4F"/>
<path d="M8.56992 13.0708H7.42695C7.27539 13.0708 7.13003 13.131 7.02285 13.2382C6.91568 13.3454 6.85547 13.4907 6.85547 13.6423C6.85547 13.7939 6.91568 13.9392 7.02285 14.0464C7.13003 14.1535 7.27539 14.2137 7.42695 14.2137H8.56992C8.72149 14.2137 8.86684 14.1535 8.97401 14.0464C9.08118 13.9392 9.14139 13.7939 9.14139 13.6423C9.14139 13.4907 9.08118 13.3454 8.97401 13.2382C8.86684 13.131 8.72149 13.0708 8.56992 13.0708Z" fill="#4F4F4F"/>
<path d="M12.5699 13.0713H11.427C11.2754 13.0713 11.13 13.1315 11.0229 13.2387C10.9157 13.3458 10.8555 13.4912 10.8555 13.6428C10.8555 13.7943 10.9157 13.9397 11.0229 14.0468C11.13 14.154 11.2754 14.2142 11.427 14.2142H12.5699C12.7215 14.2142 12.8668 14.154 12.974 14.0468C13.0812 13.9397 13.1414 13.7943 13.1414 13.6428C13.1414 13.4912 13.0812 13.3458 12.974 13.2387C12.8668 13.1315 12.7215 13.0713 12.5699 13.0713V13.0713Z" fill="#4F4F4F"/>
</svg>
