<svg width="16" height="17" viewBox="0 0 16 17" fill="none" xmlns="http://www.w3.org/2000/svg">
<path d="M3.5 6.5H2C1.73478 6.5 1.48043 6.39464 1.29289 6.20711C1.10536 6.01957 1 5.76522 1 5.5V3.5C1 3.23478 1.10536 2.98043 1.29289 2.79289C1.48043 2.60536 1.73478 2.5 2 2.5H3.5V3.5H2V5.5H3.5V6.5ZM4.5 5.5H7.5V6.5H4.5V5.5ZM8.5 5.5H11.5V6.5H8.5V5.5ZM14 6.5H12.5V5.5H14V3.5H12.5V2.5H14C14.2652 2.5 14.5196 2.60536 14.7071 2.79289C14.8946 2.98043 15 3.23478 15 3.5V5.5C15 5.76522 14.8946 6.01957 14.7071 6.20711C14.5196 6.39464 14.2652 6.5 14 6.5ZM8.5 2.5H11.5V3.5H8.5V2.5ZM4.5 2.5H7.5V3.5H4.5V2.5ZM14 14.5H2C1.73478 14.5 1.48043 14.3946 1.29289 14.2071C1.10536 14.0196 1 13.7652 1 13.5V11.5C1 11.2348 1.10536 10.9804 1.29289 10.7929C1.48043 10.6054 1.73478 10.5 2 10.5H14C14.2652 10.5 14.5196 10.6054 14.7071 10.7929C14.8946 10.9804 15 11.2348 15 11.5V13.5C15 13.7652 14.8946 14.0196 14.7071 14.2071C14.5196 14.3946 14.2652 14.5 14 14.5ZM2 11.5V13.5H14V11.5H2ZM1 8H15V9H1V8Z" fill="#4F4F4F"/>
</svg>
