<svg width="17" height="17" viewBox="0 0 17 17" fill="none" xmlns="http://www.w3.org/2000/svg">
<path fill-rule="evenodd" clip-rule="evenodd" d="M10.5316 3.26367H16.4121L12.6368 7.53814V12.26C12.6368 13.3169 11.78 14.1736 10.7231 14.1736H2.90001C1.84312 14.1736 0.986328 13.3169 0.986328 12.26V5.17737C0.986328 4.12048 1.84311 3.26369 2.90001 3.26369L10.5316 3.26367ZM11.7255 7.1933L14.3913 4.17501H11.443L2.90001 4.17503C2.34643 4.17503 1.89767 4.62379 1.89767 5.17737V12.26C1.89767 12.8135 2.34643 13.2623 2.90001 13.2623H10.7231C11.2767 13.2623 11.7255 12.8135 11.7255 12.26V7.1933ZM3.28665 8.71964V7.71729H10.2285V8.71964H3.28665ZM3.28665 11.1631V10.1607H8.84015V11.1631H3.28665Z" fill="#4F4F4F"/>
</svg>
