<svg width="16" height="17" viewBox="0 0 16 17" fill="none" xmlns="http://www.w3.org/2000/svg">
<path d="M16 5.07143V0.5H11.4286V2.21429H8.57143C8.26832 2.21429 7.97763 2.33469 7.76331 2.54902C7.54898 2.76335 7.42857 3.05404 7.42857 3.35714V7.92857H4.57143V6.21429H0V10.7857H4.57143V9.07143H7.42857V13.6429C7.42857 13.946 7.54898 14.2367 7.76331 14.451C7.97763 14.6653 8.26832 14.7857 8.57143 14.7857H11.4286V16.5H16V11.9286H11.4286V13.6429H8.57143V9.07143H11.4286V10.7857H16V6.21429H11.4286V7.92857H8.57143V3.35714H11.4286V5.07143H16ZM3.42857 9.64286H1.14286V7.35714H3.42857V9.64286ZM12.5714 13.0714H14.8571V15.3571H12.5714V13.0714ZM12.5714 7.35714H14.8571V9.64286H12.5714V7.35714ZM12.5714 1.64286H14.8571V3.92857H12.5714V1.64286Z" fill="#4F4F4F"/>
</svg>
