<svg width="25" height="24" viewBox="0 0 25 24" fill="none" xmlns="http://www.w3.org/2000/svg">
<g id="vscode-icons:file-type-excel">
<path id="Vector" d="M14.873 11.5125L6.57129 10.05V20.8568C6.57119 20.9743 6.59428 21.0906 6.63923 21.1991C6.68417 21.3076 6.7501 21.4062 6.83323 21.4892C6.91635 21.5722 7.01504 21.6379 7.12363 21.6827C7.23222 21.7275 7.34858 21.7503 7.46604 21.75H21.791C21.9086 21.7505 22.0251 21.7278 22.1339 21.6831C22.2427 21.6384 22.3415 21.5727 22.4248 21.4897C22.5081 21.4067 22.5742 21.3081 22.6192 21.1994C22.6643 21.0908 22.6874 20.9744 22.6873 20.8568V16.875L14.873 11.5125Z" fill="#185C37"/>
<path id="Vector_2" d="M14.873 2.25H7.46604C7.34858 2.24971 7.23222 2.2726 7.12363 2.31736C7.01504 2.36213 6.91635 2.42789 6.83323 2.51088C6.7501 2.59386 6.68417 2.69244 6.63923 2.80096C6.59428 2.90947 6.57119 3.0258 6.57129 3.14325V7.125L14.873 12L19.2688 13.4625L22.6873 12V7.125L14.873 2.25Z" fill="#21A366"/>
<path id="Vector_3" d="M6.57129 7.125H14.873V12H6.57129V7.125Z" fill="#107C41"/>
<path id="Vector_4" opacity="0.1" d="M12.5128 6.1499H6.57129V18.3374H12.5128C12.7495 18.3362 12.9763 18.2418 13.1439 18.0746C13.3115 17.9074 13.4065 17.6809 13.4083 17.4442V7.04315C13.4065 6.80641 13.3115 6.57989 13.1439 6.4127C12.9763 6.2455 12.7495 6.15108 12.5128 6.1499Z" fill="black"/>
<path id="Vector_5" opacity="0.2" d="M12.0245 6.63745H6.57129V18.825H12.0245C12.2613 18.8238 12.488 18.7294 12.6557 18.5622C12.8233 18.395 12.9183 18.1684 12.92 17.9317V7.5307C12.9183 7.29396 12.8233 7.06744 12.6557 6.90024C12.488 6.73305 12.2613 6.63863 12.0245 6.63745Z" fill="black"/>
<path id="Vector_6" opacity="0.2" d="M12.0245 6.63745H6.57129V17.8499H12.0245C12.2613 17.8488 12.488 17.7544 12.6557 17.5872C12.8233 17.42 12.9183 17.1934 12.92 16.9567V7.5307C12.9183 7.29396 12.8233 7.06744 12.6557 6.90024C12.488 6.73305 12.2613 6.63863 12.0245 6.63745Z" fill="black"/>
<path id="Vector_7" opacity="0.2" d="M11.5363 6.63745H6.57129V17.8499H11.5363C11.773 17.8488 11.9998 17.7544 12.1674 17.5872C12.335 17.42 12.43 17.1934 12.4318 16.9567V7.5307C12.43 7.29396 12.335 7.06744 12.1674 6.90024C11.9998 6.73305 11.773 6.63863 11.5363 6.63745Z" fill="black"/>
<path id="Vector_8" d="M2.583 6.63746H11.5365C11.7737 6.63726 12.0012 6.73123 12.1691 6.89873C12.3371 7.06622 12.4316 7.29353 12.432 7.53071V16.4692C12.4316 16.7064 12.3371 16.9337 12.1691 17.1012C12.0012 17.2687 11.7737 17.3627 11.5365 17.3625H2.583C2.46548 17.3629 2.34904 17.34 2.24036 17.2953C2.13168 17.2506 2.03291 17.1848 1.9497 17.1018C1.8665 17.0189 1.8005 16.9202 1.75551 16.8117C1.71051 16.7031 1.6874 16.5867 1.6875 16.4692V7.53071C1.6874 7.41319 1.71051 7.2968 1.75551 7.18824C1.8005 7.07967 1.8665 6.98106 1.9497 6.89806C2.03291 6.81507 2.13168 6.74932 2.24036 6.7046C2.34904 6.65988 2.46548 6.63706 2.583 6.63746Z" fill="url(#paint0_linear_4650_3180)"/>
<path id="Vector_9" d="M4.46289 14.9047L6.34614 11.9917L4.62114 9.09521H6.00639L6.94764 10.95C7.03464 11.1255 7.09764 11.256 7.12614 11.343H7.13889C7.20039 11.2025 7.26539 11.066 7.33389 10.9335L8.34039 9.09821H9.61539L7.84614 11.9782L9.66039 14.907H8.30364L7.21614 12.8737C7.16579 12.7862 7.12289 12.6946 7.08789 12.6H7.06989C7.03811 12.6922 6.99583 12.7806 6.94389 12.8632L5.82414 14.9047H4.46289Z" fill="white"/>
<path id="Vector_10" d="M21.7918 2.25001H14.873V7.12501H22.6873V3.14326C22.6874 3.02573 22.6643 2.90935 22.6193 2.80079C22.5743 2.69222 22.5083 2.59361 22.4251 2.51061C22.3419 2.42762 22.2431 2.36187 22.1344 2.31715C22.0258 2.27243 21.9093 2.24961 21.7918 2.25001Z" fill="#33C481"/>
<path id="Vector_11" d="M14.873 12H22.6873V16.875H14.873V12Z" fill="#107C41"/>
</g>
<defs>
<linearGradient id="paint0_linear_4650_3180" x1="3.558" y1="5.93546" x2="10.5615" y2="18.0645" gradientUnits="userSpaceOnUse">
<stop stop-color="#18884F"/>
<stop offset="0.5" stop-color="#117E43"/>
<stop offset="1" stop-color="#0B6631"/>
</linearGradient>
</defs>
</svg>
