<svg width="16" height="17" viewBox="0 0 16 17" fill="none" xmlns="http://www.w3.org/2000/svg">
<path opacity="0.2" d="M13.6155 4.46176V12.5387C13.6155 12.6917 13.5548 12.8384 13.4466 12.9466C13.3384 13.0548 13.1916 13.1156 13.0386 13.1156H11.3078V6.76946L8.42323 3.88484H4.38477V2.15407C4.38477 2.00106 4.44555 1.85432 4.55374 1.74613C4.66194 1.63793 4.80868 1.57715 4.96169 1.57715H10.7309L13.6155 4.46176Z" fill="#4F4F4F"/>
<path d="M14.0236 4.05337L11.1389 1.16875C11.0853 1.11519 11.0217 1.07272 10.9516 1.04377C10.8816 1.01481 10.8066 0.999941 10.7308 1H4.96154C4.65552 1 4.36203 1.12157 4.14565 1.33795C3.92926 1.55434 3.80769 1.84783 3.80769 2.15385V3.30769H2.65385C2.34783 3.30769 2.05434 3.42926 1.83795 3.64565C1.62157 3.86203 1.5 4.15552 1.5 4.46154V14.8462C1.5 15.1522 1.62157 15.4457 1.83795 15.662C2.05434 15.8784 2.34783 16 2.65385 16H10.7308C11.0368 16 11.3303 15.8784 11.5467 15.662C11.763 15.4457 11.8846 15.1522 11.8846 14.8462V13.6923H13.0385C13.3445 13.6923 13.638 13.5707 13.8544 13.3544C14.0707 13.138 14.1923 12.8445 14.1923 12.5385V4.46154C14.1924 4.38575 14.1775 4.3107 14.1485 4.24066C14.1196 4.17063 14.0771 4.10698 14.0236 4.05337ZM10.7308 14.8462H2.65385V4.46154H8.18438L10.7308 7.00793V14.8462ZM13.0385 12.5385H11.8846V6.76923C11.8847 6.69345 11.8698 6.61839 11.8408 6.54836C11.8119 6.47832 11.7694 6.41468 11.7159 6.36106L8.83125 3.47644C8.77763 3.42288 8.71399 3.38041 8.64395 3.35146C8.57392 3.32251 8.49886 3.30763 8.42308 3.30769H4.96154V2.15385H10.4921L13.0385 4.70024V12.5385ZM9 10.2308C9 10.3838 8.93922 10.5305 8.83102 10.6387C8.72283 10.7469 8.57609 10.8077 8.42308 10.8077H4.96154C4.80853 10.8077 4.66179 10.7469 4.55359 10.6387C4.4454 10.5305 4.38462 10.3838 4.38462 10.2308C4.38462 10.0778 4.4454 9.93102 4.55359 9.82282C4.66179 9.71463 4.80853 9.65385 4.96154 9.65385H8.42308C8.57609 9.65385 8.72283 9.71463 8.83102 9.82282C8.93922 9.93102 9 10.0778 9 10.2308ZM9 12.5385C9 12.6915 8.93922 12.8382 8.83102 12.9464C8.72283 13.0546 8.57609 13.1154 8.42308 13.1154H4.96154C4.80853 13.1154 4.66179 13.0546 4.55359 12.9464C4.4454 12.8382 4.38462 12.6915 4.38462 12.5385C4.38462 12.3855 4.4454 12.2387 4.55359 12.1305C4.66179 12.0223 4.80853 11.9615 4.96154 11.9615H8.42308C8.57609 11.9615 8.72283 12.0223 8.83102 12.1305C8.93922 12.2387 9 12.3855 9 12.5385Z" fill="#4F4F4F"/>
</svg>
