<svg width="16" height="17" viewBox="0 0 16 17" fill="none" xmlns="http://www.w3.org/2000/svg">
<path d="M6.75 7.45833C6.75 7.70456 6.7015 7.94838 6.60727 8.17587C6.51305 8.40335 6.37493 8.61005 6.20082 8.78416C6.02672 8.95827 5.82002 9.09638 5.59253 9.19061C5.36505 9.28483 5.12123 9.33333 4.875 9.33333C4.62877 9.33333 4.38495 9.28483 4.15747 9.19061C3.92998 9.09638 3.72328 8.95827 3.54917 8.78416C3.37507 8.61005 3.23695 8.40335 3.14273 8.17587C3.0485 7.94838 3 7.70456 3 7.45833C3 6.96105 3.19754 6.48414 3.54917 6.13251C3.90081 5.78088 4.37772 5.58333 4.875 5.58333C5.37228 5.58333 5.84919 5.78088 6.20082 6.13251C6.55246 6.48414 6.75 6.96105 6.75 7.45833ZM5.70833 7.45833C5.70833 7.23732 5.62054 7.02536 5.46426 6.86908C5.30798 6.7128 5.09601 6.625 4.875 6.625C4.65399 6.625 4.44202 6.7128 4.28574 6.86908C4.12946 7.02536 4.04167 7.23732 4.04167 7.45833C4.04167 7.67935 4.12946 7.89131 4.28574 8.04759C4.44202 8.20387 4.65399 8.29167 4.875 8.29167C5.09601 8.29167 5.30798 8.20387 5.46426 8.04759C5.62054 7.89131 5.70833 7.67935 5.70833 7.45833ZM4.875 13.9167C5.37228 13.9167 5.84919 13.7191 6.20082 13.3675C6.55246 13.0159 6.75 12.5389 6.75 12.0417C6.75 11.5444 6.55246 11.0675 6.20082 10.7158C5.84919 10.3642 5.37228 10.1667 4.875 10.1667C4.37772 10.1667 3.90081 10.3642 3.54917 10.7158C3.19754 11.0675 3 11.5444 3 12.0417C3 12.5389 3.19754 13.0159 3.54917 13.3675C3.90081 13.7191 4.37772 13.9167 4.875 13.9167ZM4.875 12.875C4.65399 12.875 4.44202 12.7872 4.28574 12.6309C4.12946 12.4746 4.04167 12.2627 4.04167 12.0417C4.04167 11.8207 4.12946 11.6087 4.28574 11.4524C4.44202 11.2961 4.65399 11.2083 4.875 11.2083C5.09601 11.2083 5.30798 11.2961 5.46426 11.4524C5.62054 11.6087 5.70833 11.8207 5.70833 12.0417C5.70833 12.2627 5.62054 12.4746 5.46426 12.6309C5.30798 12.7872 5.09601 12.875 4.875 12.875ZM3.52083 3.5C3.3827 3.5 3.25022 3.55487 3.15255 3.65255C3.05487 3.75022 3 3.8827 3 4.02083C3 4.15897 3.05487 4.29144 3.15255 4.38912C3.25022 4.48679 3.3827 4.54167 3.52083 4.54167H12.4792C12.6173 4.54167 12.7498 4.48679 12.8475 4.38912C12.9451 4.29144 13 4.15897 13 4.02083C13 3.8827 12.9451 3.75022 12.8475 3.65255C12.7498 3.55487 12.6173 3.5 12.4792 3.5H3.52083ZM7.58333 7.5625C7.58333 7.275 7.81667 7.04167 8.10417 7.04167H12.4792C12.6173 7.04167 12.7498 7.09654 12.8475 7.19421C12.9451 7.29189 13 7.42437 13 7.5625C13 7.70063 12.9451 7.83311 12.8475 7.93079C12.7498 8.02846 12.6173 8.08333 12.4792 8.08333H8.10417C7.81667 8.08333 7.58333 7.85 7.58333 7.5625ZM8.10417 11.4167C7.96603 11.4167 7.83356 11.4715 7.73588 11.5692C7.63821 11.6669 7.58333 11.7994 7.58333 11.9375C7.58333 12.0756 7.63821 12.2081 7.73588 12.3058C7.83356 12.4035 7.96603 12.4583 8.10417 12.4583H12.4792C12.6173 12.4583 12.7498 12.4035 12.8475 12.3058C12.9451 12.2081 13 12.0756 13 11.9375C13 11.7994 12.9451 11.6669 12.8475 11.5692C12.7498 11.4715 12.6173 11.4167 12.4792 11.4167H8.10417ZM3.10417 1C2.4135 1 1.75112 1.27437 1.26274 1.76274C0.774367 2.25112 0.5 2.9135 0.5 3.60417V13.3958C0.5 14.0865 0.774367 14.7489 1.26274 15.2373C1.75112 15.7256 2.4135 16 3.10417 16H12.8958C13.5865 16 14.2489 15.7256 14.7373 15.2373C15.2256 14.7489 15.5 14.0865 15.5 13.3958V3.60417C15.5 2.9135 15.2256 2.25112 14.7373 1.76274C14.2489 1.27437 13.5865 1 12.8958 1H3.10417ZM1.54167 3.60417C1.54167 3.18977 1.70629 2.79234 1.99931 2.49931C2.29234 2.20629 2.68977 2.04167 3.10417 2.04167H12.8958C13.3102 2.04167 13.7077 2.20629 14.0007 2.49931C14.2937 2.79234 14.4583 3.18977 14.4583 3.60417V13.3958C14.4583 13.8102 14.2937 14.2077 14.0007 14.5007C13.7077 14.7937 13.3102 14.9583 12.8958 14.9583H3.10417C2.68977 14.9583 2.29234 14.7937 1.99931 14.5007C1.70629 14.2077 1.54167 13.8102 1.54167 13.3958V3.60417Z" fill="#4F4F4F"/>
</svg>
