<svg width="25" height="24" viewBox="0 0 25 24" fill="none" xmlns="http://www.w3.org/2000/svg">
<path id="Vector" d="M12.5625 0C5.9325 0 0.5625 5.50583 0.5625 12.3035C0.5625 17.7478 3.9975 22.3463 8.7675 23.9765C9.3675 24.0842 9.5925 23.715 9.5925 23.3921C9.5925 23.0999 9.5775 22.131 9.5775 21.1005C6.5625 21.6696 5.7825 20.347 5.5425 19.6549C5.4075 19.3012 4.8225 18.2092 4.3125 17.917C3.8925 17.6863 3.2925 17.1173 4.2975 17.1019C5.2425 17.0865 5.9175 17.9939 6.1425 18.363C7.2225 20.2239 8.9475 19.701 9.6375 19.3781C9.7425 18.5783 10.0575 18.04 10.4025 17.7325C7.7325 17.4249 4.9425 16.3637 4.9425 11.6576C4.9425 10.3196 5.4075 9.21227 6.1725 8.35102C6.0525 8.04343 5.6325 6.78232 6.2925 5.09058C6.2925 5.09058 7.2975 4.76762 9.5925 6.3517C10.5525 6.07487 11.5725 5.93645 12.5925 5.93645C13.6125 5.93645 14.6325 6.07487 15.5925 6.3517C17.8875 4.75224 18.8925 5.09058 18.8925 5.09058C19.5525 6.78232 19.1325 8.04343 19.0125 8.35102C19.7775 9.21227 20.2425 10.3042 20.2425 11.6576C20.2425 16.3791 17.4375 17.4249 14.7675 17.7325C15.2025 18.1169 15.5775 18.8552 15.5775 20.0086C15.5775 21.6542 15.5625 22.9768 15.5625 23.3921C15.5625 23.715 15.7875 24.0995 16.3875 23.9765C18.7701 23.1525 20.8405 21.583 22.3071 19.4888C23.7737 17.3947 24.5625 14.8816 24.5625 12.3035C24.5625 5.50583 19.1925 0 12.5625 0Z" fill="black"/>
</svg>
