<svg width="16" height="17" viewBox="0 0 16 17" fill="none" xmlns="http://www.w3.org/2000/svg">
<path d="M14.6673 8.50016C14.6673 4.81816 11.6827 1.8335 8.00065 1.8335C4.31865 1.8335 1.33398 4.81816 1.33398 8.50016C1.33398 12.1822 4.31865 15.1668 8.00065 15.1668" stroke="#4F4F4F" stroke-width="1.5" stroke-linecap="round" stroke-linejoin="round"/>
<path d="M13.334 4.2995C12.7107 4.34416 11.9127 4.58616 11.3593 5.30216C10.3593 6.5955 9.35998 6.70416 8.69332 6.27283C7.69332 5.62616 8.53398 4.5775 7.36065 4.00816C6.59598 3.63683 6.48932 2.62683 6.91532 1.8335M1.33398 7.8335C1.84265 8.27483 2.55398 8.67883 3.39332 8.67883C5.12665 8.67883 5.47332 9.01016 5.47332 10.3348C5.47332 11.6595 5.47332 11.6595 5.81998 12.6528C6.04532 13.2995 6.12398 13.9448 5.67465 14.5002M13.2667 13.7862L14.6673 15.1668M14.0727 11.8642C14.0723 12.2187 14.0021 12.5698 13.8661 12.8972C13.7301 13.2246 13.5309 13.5221 13.28 13.7726C13.029 14.023 12.7311 14.2216 12.4034 14.357C12.0757 14.4924 11.7246 14.5618 11.37 14.5615C11.0154 14.5618 10.6642 14.4924 10.3365 14.357C10.0088 14.2216 9.71098 14.023 9.46001 13.7726C9.20905 13.5221 9.00987 13.2246 8.87386 12.8972C8.73785 12.5698 8.66767 12.2187 8.66732 11.8642C8.66767 11.5096 8.73785 11.1586 8.87386 10.8311C9.00987 10.5037 9.20905 10.2062 9.46001 9.95575C9.71098 9.70528 10.0088 9.5067 10.3365 9.37133C10.6642 9.23597 11.0154 9.16648 11.37 9.16683C11.7246 9.16648 12.0757 9.23597 12.4034 9.37133C12.7311 9.5067 13.029 9.70528 13.28 9.95575C13.5309 10.2062 13.7301 10.5037 13.8661 10.8311C14.0021 11.1586 14.0723 11.5096 14.0727 11.8642Z" stroke="#4F4F4F" stroke-width="1.5" stroke-linecap="round" stroke-linejoin="round"/>
</svg>
