<svg width="17" height="16" viewBox="0 0 17 16" fill="none" xmlns="http://www.w3.org/2000/svg">
<g id="octicon:goal-16">
<path id="Vector" d="M14.2123 2.74097L15.7757 3.05346C15.8597 3.07026 15.9287 3.13182 15.953 3.21484C15.9652 3.25517 15.9663 3.29807 15.9561 3.33897C15.946 3.37987 15.9249 3.41724 15.8951 3.44712L14.6144 4.72883C14.4609 4.88144 14.2534 4.96727 14.0369 4.96764H12.9744L10.3065 7.63647C10.3574 7.82865 10.3668 8.02948 10.334 8.22556C10.3012 8.42165 10.227 8.60849 10.1163 8.77365C10.0056 8.9388 9.86104 9.07848 9.69215 9.18337C9.52326 9.28826 9.33396 9.35595 9.13686 9.38194C8.93975 9.40793 8.73937 9.39162 8.54907 9.3341C8.35876 9.27658 8.1829 9.17916 8.0332 9.04834C7.88349 8.91752 7.76338 8.7563 7.68087 8.57542C7.59836 8.39454 7.55535 8.19815 7.55469 7.99934C7.55464 7.78463 7.60401 7.57278 7.69897 7.38021C7.79393 7.18763 7.93194 7.01949 8.10231 6.88881C8.27267 6.75813 8.47083 6.6684 8.68143 6.62659C8.89204 6.58477 9.10944 6.59199 9.31681 6.64767L11.9856 3.9779V2.91727C11.9856 2.70085 12.0715 2.49283 12.2244 2.33985L13.5062 1.05814C13.536 1.02841 13.5734 1.00733 13.6143 0.997144C13.6552 0.98696 13.6981 0.988051 13.7384 1.0003C13.8215 1.02455 13.883 1.09358 13.8998 1.17754L14.2123 2.74097Z" fill="#4F4F4F"/>
<path id="Vector_2" d="M3.35717 7.99941C3.35813 8.79974 3.53072 9.59056 3.8633 10.3185C4.19588 11.0465 4.68071 11.6947 5.28508 12.2193C5.88946 12.744 6.59933 13.1329 7.3668 13.3599C8.13427 13.5869 8.9415 13.6466 9.73403 13.5351C10.5266 13.4236 11.2859 13.1434 11.961 12.7134C12.636 12.2835 13.211 11.7138 13.6471 11.0427C14.0833 10.3716 14.3704 9.61484 14.4892 8.82337C14.608 8.0319 14.5556 7.22416 14.3357 6.45464C14.3048 6.36473 14.2925 6.26949 14.2996 6.17469C14.3068 6.0799 14.3331 5.98755 14.377 5.90325C14.421 5.81896 14.4816 5.74449 14.5552 5.68438C14.6289 5.62426 14.714 5.57977 14.8054 5.55359C14.8967 5.52742 14.9925 5.52012 15.0868 5.53213C15.1811 5.54415 15.272 5.57523 15.3539 5.62348C15.4358 5.67173 15.507 5.73615 15.5632 5.81281C15.6194 5.88946 15.6594 5.97676 15.6808 6.06938C16.1067 7.5596 16.0258 9.14904 15.4508 10.5883C14.8759 12.0276 13.8394 13.2353 12.504 14.022C11.1686 14.8086 9.6098 15.1297 8.07222 14.9348C6.53464 14.74 5.10525 14.0402 4.00829 12.9453C2.91253 11.8486 2.21201 10.4191 2.0167 8.88114C1.82139 7.3432 2.14236 5.78395 2.92921 4.44818C3.71607 3.11242 4.92424 2.07579 6.36406 1.50106C7.80388 0.926318 9.3938 0.846015 10.8842 1.27275C11.0617 1.32463 11.2114 1.44465 11.3006 1.60657C11.3899 1.7685 11.4114 1.95916 11.3605 2.13691C11.3096 2.31465 11.1904 2.46502 11.0289 2.55515C10.8675 2.64527 10.677 2.66784 10.4989 2.6179C9.66552 2.37858 8.78789 2.33617 7.93528 2.49402C7.08267 2.65187 6.2784 3.00565 5.58589 3.52748C4.89339 4.0493 4.33159 4.72488 3.94482 5.50094C3.55805 6.277 3.35688 7.13231 3.35717 7.99941Z" fill="#4F4F4F"/>
<path id="Vector_3" d="M6.15555 7.99926C6.15561 8.50914 6.29487 9.00933 6.55832 9.44587C6.82176 9.88241 7.1994 10.2387 7.65048 10.4764C8.10157 10.7141 8.60899 10.8241 9.11801 10.7946C9.62704 10.7651 10.1183 10.5972 10.5389 10.309C10.9595 10.02 11.293 9.62158 11.5034 9.15678C11.7139 8.69198 11.7932 8.17849 11.733 7.67184C11.7167 7.54889 11.7334 7.42382 11.7815 7.30951C11.8296 7.19519 11.9073 7.09576 12.0066 7.02145C12.1059 6.94714 12.2232 6.90065 12.3465 6.88675C12.4697 6.87284 12.5944 6.89204 12.7078 6.94236C12.8211 6.99203 12.9192 7.07086 12.9922 7.17083C13.0651 7.27079 13.1102 7.38831 13.1229 7.51139C13.2242 8.37715 13.0536 9.253 12.6346 10.0174C12.2155 10.7817 11.569 11.3967 10.7846 11.7769C10.0002 12.1571 9.11691 12.2837 8.25731 12.1391C7.39771 11.9945 6.60445 11.5859 5.98761 10.97C5.37077 10.3541 4.96097 9.56147 4.81508 8.70209C4.66918 7.84271 4.79444 6.95923 5.17345 6.17427C5.55247 5.38931 6.16645 4.7418 6.93017 4.32163C7.6939 3.90146 8.56948 3.72946 9.43539 3.8295C9.52811 3.8381 9.61818 3.86513 9.70032 3.90899C9.78246 3.95286 9.85502 4.01268 9.91374 4.08494C9.97246 4.15721 10.0162 4.24048 10.0423 4.32985C10.0684 4.41923 10.0764 4.51292 10.0659 4.60544C10.0553 4.69796 10.0264 4.78744 9.98081 4.86863C9.93523 4.94983 9.87389 5.02111 9.8004 5.07829C9.72691 5.13548 9.64274 5.17742 9.55284 5.20165C9.46293 5.22588 9.36908 5.23193 9.27681 5.21942C8.8847 5.17389 8.4874 5.21184 8.11099 5.33075C7.73459 5.44967 7.3876 5.64688 7.09282 5.90941C6.79803 6.17195 6.56213 6.49388 6.40059 6.85406C6.23906 7.21424 6.15555 7.60452 6.15555 7.99926Z" fill="#4F4F4F"/>
</g>
</svg>
