<svg width="16" height="17" viewBox="0 0 16 17" fill="none" xmlns="http://www.w3.org/2000/svg">
<path d="M4.87837 9.22222L6.33763 7.92511C6.41671 7.85482 6.45815 7.77176 6.46194 7.67594C6.46573 7.58013 6.42429 7.49274 6.33763 7.41378C6.24771 7.33433 6.15102 7.29389 6.04756 7.29244C5.9441 7.291 5.84742 7.33 5.7575 7.40944L4.178 8.81344C4.04692 8.93044 3.98137 9.0667 3.98137 9.22222C3.98137 9.37774 4.04692 9.51376 4.178 9.63028L5.7575 11.035C5.83658 11.1058 5.93056 11.1426 6.03944 11.1455C6.14831 11.1484 6.24771 11.1104 6.33763 11.0314C6.42429 10.9519 6.46817 10.8667 6.46925 10.7757C6.47033 10.6847 6.42646 10.5995 6.33763 10.5201L4.87837 9.22222ZM11.1216 9.22222L9.66237 10.5193C9.58329 10.5896 9.54185 10.6727 9.53806 10.7685C9.53427 10.8643 9.57571 10.9517 9.66237 11.0307C9.75229 11.1101 9.84898 11.1506 9.95244 11.152C10.0559 11.1534 10.1526 11.1144 10.2425 11.035L11.822 9.631C11.9531 9.514 12.0186 9.37774 12.0186 9.22222C12.0186 9.0667 11.9531 8.93069 11.822 8.81417L10.2417 7.40944C10.1626 7.33867 10.0686 7.30183 9.95975 7.29894C9.85087 7.29606 9.75175 7.33409 9.66237 7.41306C9.57571 7.4925 9.53183 7.57772 9.53075 7.66872C9.52967 7.75972 9.57354 7.84494 9.66237 7.92439L11.1216 9.22222ZM2.813 15C2.449 15 2.13917 14.8864 1.8835 14.6591C1.62783 14.4319 1.5 14.1567 1.5 13.8336V4.61083C1.5 4.28824 1.62783 4.01307 1.8835 3.78533C2.13917 3.55807 2.449 3.44444 2.813 3.44444H6.63175C6.55754 3.07563 6.65667 2.74269 6.92913 2.44561C7.20104 2.14854 7.558 2 8 2C8.45229 2 8.81467 2.14854 9.08713 2.44561C9.35958 2.74269 9.45356 3.07563 9.36906 3.44444H13.1878C13.5507 3.44444 13.8603 3.55807 14.1165 3.78533C14.3722 4.01259 14.5 4.288 14.5 4.61156V13.8336C14.5 14.1562 14.3722 14.4314 14.1165 14.6591C13.8608 14.8864 13.5513 15 13.1878 15H2.813ZM2.813 14.2778H13.1878C13.3124 14.2778 13.427 14.2316 13.5315 14.1391C13.636 14.0467 13.688 13.9446 13.6875 13.8329V4.61156C13.6875 4.50033 13.6355 4.39826 13.5315 4.30533C13.4275 4.21241 13.3127 4.16619 13.187 4.16667H2.813C2.68788 4.16667 2.57304 4.21289 2.4685 4.30533C2.36396 4.39778 2.31196 4.49985 2.3125 4.61156V13.8336C2.3125 13.9444 2.3645 14.0462 2.4685 14.1391C2.5725 14.232 2.68706 14.2783 2.81219 14.2778M8 3.76367C8.17604 3.76367 8.32175 3.71263 8.43713 3.61056C8.5525 3.50848 8.60992 3.37896 8.60938 3.222C8.60883 3.06504 8.55115 2.93576 8.43631 2.83417C8.32148 2.73257 8.17604 2.6813 8 2.68033C7.82396 2.67937 7.67852 2.73065 7.56369 2.83417C7.44885 2.93769 7.39117 3.06696 7.39062 3.222C7.39008 3.37704 7.44777 3.50656 7.56369 3.61056C7.6796 3.71456 7.82504 3.76559 8 3.76367Z" fill="#4F4F4F"/>
<path d="M2.813 14.2778H13.1878C13.3124 14.2778 13.427 14.2316 13.5315 14.1391C13.636 14.0467 13.688 13.9446 13.6875 13.8329V4.61156C13.6875 4.50033 13.6355 4.39826 13.5315 4.30533C13.4275 4.21241 13.3127 4.16619 13.187 4.16667H2.813C2.68788 4.16667 2.57304 4.21289 2.4685 4.30533C2.36396 4.39778 2.31196 4.49985 2.3125 4.61156V13.8336C2.3125 13.9444 2.3645 14.0462 2.4685 14.1391C2.5725 14.232 2.68706 14.2783 2.81219 14.2778M2.3125 14.2778V4.16667M4.87837 9.22222L6.33763 7.92511C6.41671 7.85482 6.45815 7.77176 6.46194 7.67594C6.46573 7.58013 6.42429 7.49274 6.33763 7.41378C6.24771 7.33433 6.15102 7.29389 6.04756 7.29244C5.9441 7.291 5.84742 7.33 5.7575 7.40944L4.178 8.81344C4.04692 8.93044 3.98137 9.0667 3.98137 9.22222C3.98137 9.37774 4.04692 9.51376 4.178 9.63028L5.7575 11.035C5.83658 11.1058 5.93056 11.1426 6.03944 11.1455C6.14831 11.1484 6.24771 11.1104 6.33763 11.0314C6.42429 10.9519 6.46817 10.8667 6.46925 10.7757C6.47033 10.6847 6.42646 10.5995 6.33763 10.5201L4.87837 9.22222ZM11.1216 9.22222L9.66237 10.5193C9.58329 10.5896 9.54185 10.6727 9.53806 10.7685C9.53427 10.8643 9.57571 10.9517 9.66237 11.0307C9.75229 11.1101 9.84898 11.1506 9.95244 11.152C10.0559 11.1534 10.1526 11.1144 10.2425 11.035L11.822 9.631C11.9531 9.514 12.0186 9.37774 12.0186 9.22222C12.0186 9.0667 11.9531 8.93069 11.822 8.81417L10.2417 7.40944C10.1626 7.33867 10.0686 7.30183 9.95975 7.29894C9.85087 7.29606 9.75175 7.33409 9.66237 7.41306C9.57571 7.4925 9.53183 7.57772 9.53075 7.66872C9.52967 7.75972 9.57354 7.84494 9.66237 7.92439L11.1216 9.22222ZM2.813 15C2.449 15 2.13917 14.8864 1.8835 14.6591C1.62783 14.4319 1.5 14.1567 1.5 13.8336V4.61083C1.5 4.28824 1.62783 4.01307 1.8835 3.78533C2.13917 3.55807 2.449 3.44444 2.813 3.44444H6.63175C6.55754 3.07563 6.65667 2.74269 6.92913 2.44561C7.20104 2.14854 7.558 2 8 2C8.45229 2 8.81467 2.14854 9.08713 2.44561C9.35958 2.74269 9.45356 3.07563 9.36906 3.44444H13.1878C13.5507 3.44444 13.8603 3.55807 14.1165 3.78533C14.3722 4.01259 14.5 4.288 14.5 4.61156V13.8336C14.5 14.1562 14.3722 14.4314 14.1165 14.6591C13.8608 14.8864 13.5513 15 13.1878 15H2.813ZM8 3.76367C8.17604 3.76367 8.32175 3.71263 8.43713 3.61056C8.5525 3.50848 8.60992 3.37896 8.60938 3.222C8.60883 3.06504 8.55115 2.93576 8.43631 2.83417C8.32148 2.73257 8.17604 2.6813 8 2.68033C7.82396 2.67937 7.67852 2.73065 7.56369 2.83417C7.44885 2.93769 7.39117 3.06696 7.39062 3.222C7.39008 3.37704 7.44777 3.50656 7.56369 3.61056C7.6796 3.71456 7.82504 3.76559 8 3.76367Z" stroke="#4F4F4F" stroke-width="0.5"/>
</svg>
