<svg width="17" height="17" viewBox="0 0 17 17" fill="none" xmlns="http://www.w3.org/2000/svg">
<path d="M10.75 3.82812V9.82812C10.75 9.96073 10.6973 10.0879 10.6036 10.1817C10.5098 10.2754 10.3826 10.3281 10.25 10.3281H7.75C7.61739 10.3281 7.49021 10.2754 7.39645 10.1817C7.30268 10.0879 7.25 9.96073 7.25 9.82812V3.82812C7.25 3.69552 7.30268 3.56834 7.39645 3.47457C7.49021 3.3808 7.61739 3.32812 7.75 3.32812H10.25C10.3826 3.32812 10.5098 3.3808 10.6036 3.47457C10.6973 3.56834 10.75 3.69552 10.75 3.82812ZM14.75 3.32812H12.25C12.1174 3.32812 11.9902 3.3808 11.8964 3.47457C11.8027 3.56834 11.75 3.69552 11.75 3.82812V7.07812C11.75 7.14443 11.7763 7.20802 11.8232 7.2549C11.8701 7.30179 11.9337 7.32812 12 7.32812H15C15.0663 7.32812 15.1299 7.30179 15.1768 7.2549C15.2237 7.20802 15.25 7.14443 15.25 7.07812V3.82812C15.25 3.69552 15.1973 3.56834 15.1036 3.47457C15.0098 3.3808 14.8826 3.32812 14.75 3.32812ZM15 8.32812H12C11.9337 8.32812 11.8701 8.35446 11.8232 8.40135C11.7763 8.44823 11.75 8.51182 11.75 8.57812V11.3281C11.75 11.5933 11.8554 11.8477 12.0429 12.0352C12.2304 12.2228 12.4848 12.3281 12.75 12.3281H14.25C14.5152 12.3281 14.7696 12.2228 14.9571 12.0352C15.1446 11.8477 15.25 11.5933 15.25 11.3281V8.57812C15.25 8.51182 15.2237 8.44823 15.1768 8.40135C15.1299 8.35446 15.0663 8.32812 15 8.32812ZM5.75 3.32812H3.25C3.11739 3.32812 2.99021 3.3808 2.89645 3.47457C2.80268 3.56834 2.75 3.69552 2.75 3.82812V7.07812C2.75 7.14443 2.77634 7.20802 2.82322 7.2549C2.87011 7.30179 2.9337 7.32812 3 7.32812H6C6.0663 7.32812 6.12989 7.30179 6.17678 7.2549C6.22366 7.20802 6.25 7.14443 6.25 7.07812V3.82812C6.25 3.69552 6.19732 3.56834 6.10355 3.47457C6.00979 3.3808 5.88261 3.32812 5.75 3.32812ZM6 8.32812H3C2.9337 8.32812 2.87011 8.35446 2.82322 8.40135C2.77634 8.44823 2.75 8.51182 2.75 8.57812V13.3281C2.75 13.5933 2.85536 13.8477 3.04289 14.0352C3.23043 14.2228 3.48478 14.3281 3.75 14.3281H5.25C5.51522 14.3281 5.76957 14.2228 5.95711 14.0352C6.14464 13.8477 6.25 13.5933 6.25 13.3281V8.57812C6.25 8.51182 6.22366 8.44823 6.17678 8.40135C6.12989 8.35446 6.0663 8.32812 6 8.32812Z" fill="#4F4F4F"/>
</svg>
