<svg width="16" height="16" viewBox="0 0 16 16" fill="none" xmlns="http://www.w3.org/2000/svg">
<g id="teenyicons:kanban-outline" clip-path="url(#clip0_6869_31620)">
<path id="Vector" d="M0.533333 3.73333V3.2C0.391885 3.2 0.256229 3.25619 0.15621 3.35621C0.0561903 3.45623 0 3.59188 0 3.73333H0.533333ZM6.93333 3.73333H7.46667C7.46667 3.59188 7.41048 3.45623 7.31046 3.35621C7.21044 3.25619 7.07478 3.2 6.93333 3.2V3.73333ZM6.93333 15.4667V16C7.07478 16 7.21044 15.9438 7.31046 15.8438C7.41048 15.7438 7.46667 15.6081 7.46667 15.4667H6.93333ZM0.533333 15.4667H0C0 15.6081 0.0561903 15.7438 0.15621 15.8438C0.256229 15.9438 0.391885 16 0.533333 16V15.4667ZM9.06667 3.73333V3.2C8.92522 3.2 8.78956 3.25619 8.68954 3.35621C8.58952 3.45623 8.53333 3.59188 8.53333 3.73333H9.06667ZM15.4667 3.73333H16C16 3.59188 15.9438 3.45623 15.8438 3.35621C15.7438 3.25619 15.6081 3.2 15.4667 3.2V3.73333ZM15.4667 10.1333V10.6667C15.6081 10.6667 15.7438 10.6105 15.8438 10.5105C15.9438 10.4104 16 10.2748 16 10.1333H15.4667ZM9.06667 10.1333H8.53333C8.53333 10.2748 8.58952 10.4104 8.68954 10.5105C8.78956 10.6105 8.92522 10.6667 9.06667 10.6667V10.1333ZM0 1.06667H7.46667V0H0V1.06667ZM8.53333 1.06667H16V0H8.53333V1.06667ZM0.533333 4.26667H6.93333V3.2H0.533333V4.26667ZM6.4 3.73333V15.4667H7.46667V3.73333H6.4ZM6.93333 14.9333H0.533333V16H6.93333V14.9333ZM1.06667 15.4667V3.73333H0L0 15.4667H1.06667ZM9.06667 4.26667H15.4667V3.2H9.06667V4.26667ZM14.9333 3.73333V10.1333H16V3.73333H14.9333ZM15.4667 9.6H9.06667V10.6667H15.4667V9.6ZM9.6 10.1333V3.73333H8.53333V10.1333H9.6Z" fill="#4F4F4F"/>
</g>
<defs>
<clipPath id="clip0_6869_31620">
<rect width="16" height="16" fill="white"/>
</clipPath>
</defs>
</svg>
