<svg width="16" height="17" viewBox="0 0 16 17" fill="none" xmlns="http://www.w3.org/2000/svg">
<path d="M8.70684 5.90733L9.65017 6.84999C10.0836 7.28334 10.4273 7.79781 10.6619 8.36403C10.8965 8.93024 11.0172 9.53712 11.0172 10.15C11.0172 10.7629 10.8965 11.3697 10.6619 11.936C10.4273 12.5022 10.0836 13.0166 9.65017 13.45L9.41417 13.6853C8.98081 14.1187 8.46633 14.4624 7.90012 14.697C7.3339 14.9315 6.72704 15.0522 6.11417 15.0522C5.5013 15.0522 4.89444 14.9315 4.32822 14.697C3.76201 14.4624 3.24753 14.1187 2.81417 13.6853C2.38081 13.252 2.03705 12.7375 1.80251 12.1713C1.56798 11.6051 1.44727 10.9982 1.44727 10.3853C1.44727 9.77246 1.56798 9.16559 1.80251 8.59938C2.03705 8.03316 2.38081 7.51869 2.81417 7.08533L3.7575 8.02866C3.44575 8.33769 3.19811 8.70526 3.02879 9.11026C2.85947 9.51526 2.77182 9.94972 2.77086 10.3887C2.76989 10.8276 2.85565 11.2625 3.02319 11.6682C3.19073 12.074 3.43676 12.4426 3.74716 12.753C4.05756 13.0634 4.4262 13.3094 4.83194 13.477C5.23768 13.6445 5.67251 13.7303 6.11148 13.7293C6.55045 13.7283 6.9849 13.6407 7.3899 13.4714C7.7949 13.3021 8.16247 13.0544 8.4715 12.7427L8.7075 12.5067C9.33241 11.8816 9.68346 11.0339 9.68346 10.15C9.68346 9.26611 9.33241 8.41842 8.7075 7.79332L7.76417 6.84999L8.70684 5.90733ZM13.1855 9.91399L12.2428 8.97133C12.8548 8.34353 13.1949 7.49989 13.1892 6.62317C13.1836 5.74645 12.8328 4.90724 12.2128 4.28734C11.5928 3.66744 10.7536 3.31676 9.87685 3.31126C9.00013 3.30577 8.15655 3.64591 7.52884 4.25799L7.29284 4.49333C6.66793 5.11842 6.31688 5.96611 6.31688 6.84999C6.31688 7.73387 6.66793 8.58157 7.29284 9.20666L8.23617 10.15L7.29284 11.0927L6.35017 10.15C5.91678 9.71665 5.57299 9.20218 5.33844 8.63596C5.10389 8.06974 4.98317 7.46287 4.98317 6.84999C4.98317 6.23712 5.10389 5.63024 5.33844 5.06403C5.57299 4.49781 5.91678 3.98334 6.35017 3.54999L6.58617 3.31466C7.01953 2.8813 7.53401 2.53753 8.10022 2.303C8.66644 2.06847 9.2733 1.94775 9.88617 1.94775C10.499 1.94775 11.1059 2.06847 11.6721 2.303C12.2383 2.53753 12.7528 2.8813 13.1862 3.31466C13.6195 3.74802 13.9633 4.2625 14.1978 4.82871C14.4324 5.39493 14.5531 6.00179 14.5531 6.61466C14.5531 7.22753 14.4324 7.83439 14.1978 8.40061C13.9633 8.96682 13.6195 9.4813 13.1862 9.91466" fill="#4F4F4F"/>
</svg>
