<svg width="16" height="17" viewBox="0 0 16 17" fill="none" xmlns="http://www.w3.org/2000/svg">
<path d="M4.768 3.422L4.778 3.416L4.824 3.389C4.86467 3.36433 4.92633 3.33 5.009 3.286C5.174 3.199 5.414 3.082 5.711 2.966C6.31 2.728 7.121 2.5 8 2.5C8.879 2.5 9.69 2.73 10.289 2.965C10.5942 3.08537 10.8906 3.22705 11.176 3.389C11.1967 3.40033 11.2117 3.40933 11.221 3.416L11.231 3.422H11.232C11.3439 3.49007 11.478 3.51153 11.6055 3.48178C11.733 3.45204 11.8438 3.37345 11.914 3.26291C11.9842 3.15237 12.0082 3.0187 11.9809 2.89063C11.9536 2.76256 11.8772 2.65031 11.768 2.578L11.765 2.576L11.76 2.573L11.742 2.562L11.681 2.525C11.3514 2.33758 11.0088 2.17384 10.656 2.035C9.984 1.77 9.045 1.5 8 1.5C6.955 1.5 6.015 1.77 5.345 2.035C4.99181 2.17379 4.64895 2.33754 4.319 2.525L4.258 2.562L4.24 2.572L4.235 2.576L4.233 2.577C4.12095 2.64795 4.04166 2.7605 4.0126 2.8899C3.98353 3.0193 4.00705 3.15495 4.078 3.267C4.14895 3.37905 4.2615 3.45834 4.3909 3.4874C4.5203 3.51647 4.65595 3.49295 4.768 3.422ZM4 4.5C3.46957 4.5 2.96086 4.71071 2.58579 5.08579C2.21071 5.46086 2 5.96957 2 6.5V10.5C2 11.0304 2.21071 11.5391 2.58579 11.9142C2.96086 12.2893 3.46957 12.5 4 12.5H8.5C9.03043 12.5 9.53914 12.2893 9.91421 11.9142C10.2893 11.5391 10.5 11.0304 10.5 10.5V10.362L13.252 11.934C13.328 11.9774 13.4141 12.0001 13.5017 11.9998C13.5892 11.9995 13.6752 11.9763 13.7509 11.9323C13.8267 11.8884 13.8895 11.8253 13.9332 11.7494C13.977 11.6736 14 11.5876 14 11.5V5.5C14 5.41244 13.977 5.32642 13.9332 5.25056C13.8895 5.17469 13.8267 5.11163 13.7509 5.06769C13.6752 5.02374 13.5892 5.00046 13.5017 5.00016C13.4141 4.99987 13.328 5.02257 13.252 5.066L10.5 6.638V6.5C10.5 5.96957 10.2893 5.46086 9.91421 5.08579C9.53914 4.71071 9.03043 4.5 8.5 4.5H4ZM10.5 7.79L13 6.362V10.638L10.5 9.21V7.79ZM3 6.5C3 6.23478 3.10536 5.98043 3.29289 5.79289C3.48043 5.60536 3.73478 5.5 4 5.5H8.5C8.76522 5.5 9.01957 5.60536 9.20711 5.79289C9.39464 5.98043 9.5 6.23478 9.5 6.5V10.5C9.5 10.7652 9.39464 11.0196 9.20711 11.2071C9.01957 11.3946 8.76522 11.5 8.5 11.5H4C3.73478 11.5 3.48043 11.3946 3.29289 11.2071C3.10536 11.0196 3 10.7652 3 10.5V6.5ZM4.769 13.579L4.768 13.578C4.65613 13.5099 4.52203 13.4885 4.39451 13.5182C4.26698 13.548 4.15622 13.6266 4.08602 13.7371C4.01582 13.8476 3.99178 13.9813 4.01908 14.1094C4.04638 14.2374 4.12283 14.3497 4.232 14.422L4.235 14.424L4.24 14.427L4.258 14.438C4.272 14.4473 4.29233 14.4597 4.319 14.475C4.37233 14.5057 4.447 14.547 4.543 14.599C4.734 14.699 5.008 14.832 5.345 14.965C6.015 15.229 6.955 15.5 8 15.5C9.046 15.5 9.985 15.23 10.655 14.965C11.0082 14.8262 11.3511 14.6625 11.681 14.475L11.742 14.438L11.76 14.428L11.765 14.424L11.767 14.423C11.8791 14.3519 11.9593 14.2392 11.9883 14.1097C12.0172 13.9803 11.9936 13.8446 11.9225 13.7325C11.8514 13.6204 11.7387 13.5412 11.6092 13.5122C11.4798 13.4833 11.3441 13.5069 11.232 13.578L11.222 13.585L11.176 13.611C11.1353 13.6357 11.0737 13.67 10.991 13.714C10.7631 13.8335 10.5287 13.9403 10.289 14.034C9.69 14.272 8.879 14.5 8 14.5C7.121 14.5 6.31 14.27 5.711 14.035C5.40576 13.9146 5.10936 13.7729 4.824 13.611L4.779 13.584L4.769 13.579Z" fill="#4F4F4F"/>
</svg>
