<svg width="16" height="17" viewBox="0 0 16 17" fill="none" xmlns="http://www.w3.org/2000/svg">
<path d="M14 8.82829C14 9.28456 13.8662 9.73081 13.6152 10.1118C13.3642 10.4929 13.007 10.7919 12.5878 10.9721C12.1686 11.1522 11.7058 11.2055 11.2566 11.1253C10.8075 11.0451 10.3917 10.835 10.0607 10.521C9.73766 10.914 9.30896 11.2065 8.82514 11.3638C8.34133 11.5212 7.8226 11.5369 7.33017 11.409C6.83774 11.2811 6.39217 11.0151 6.04604 10.6422C5.6999 10.2693 5.46765 9.80524 5.37669 9.30467C5.28573 8.80411 5.33986 8.28798 5.5327 7.81718C5.72553 7.34638 6.04901 6.94057 6.46498 6.64764C6.88094 6.35471 7.37202 6.18688 7.88026 6.16396C8.3885 6.14104 8.89269 6.26398 9.33333 6.51829V6.16162H10.6667V8.82829C10.6667 9.09351 10.772 9.34786 10.9596 9.5354C11.1471 9.72293 11.4015 9.82829 11.6667 9.82829C11.9319 9.82829 12.1862 9.72293 12.3738 9.5354C12.5613 9.34786 12.6667 9.09351 12.6667 8.82829C12.6665 7.79746 12.3249 6.79571 11.6954 5.97942C11.0659 5.16313 10.1838 4.57825 9.18692 4.31607C8.18999 4.05389 7.1343 4.12917 6.18466 4.53016C5.23503 4.93115 4.44488 5.63529 3.93758 6.53265C3.43027 7.43 3.23436 8.47008 3.38042 9.4905C3.52648 10.5109 4.0063 11.4543 4.74496 12.1733C5.48363 12.8923 6.43958 13.3465 7.46357 13.465C8.48757 13.5835 9.52198 13.3596 10.4053 12.8283H12.472C11.537 13.8736 10.2653 14.5583 8.87796 14.7636C7.49058 14.9688 6.07515 14.6815 4.87756 13.9516C3.67996 13.2218 2.77588 12.0955 2.32236 10.7684C1.86885 9.44123 1.89456 7.99717 2.39503 6.68704C2.8955 5.3769 3.83911 4.28348 5.06193 3.59672C6.28474 2.90996 7.7095 2.67326 9.08869 2.92773C10.4679 3.18221 11.7144 3.91178 12.6116 4.98972C13.5088 6.06765 14 7.42582 14 8.82829ZM8 10.1616C8.35362 10.1616 8.69276 10.0211 8.94281 9.7711C9.19286 9.52105 9.33333 9.18191 9.33333 8.82829C9.33333 8.47467 9.19286 8.13553 8.94281 7.88548C8.69276 7.63543 8.35362 7.49495 8 7.49495C7.64638 7.49495 7.30724 7.63543 7.05719 7.88548C6.80714 8.13553 6.66667 8.47467 6.66667 8.82829C6.66667 9.18191 6.80714 9.52105 7.05719 9.7711C7.30724 10.0211 7.64638 10.1616 8 10.1616Z" fill="#4F4F4F"/>
</svg>
