<svg width="25" height="24" viewBox="0 0 25 24" fill="none" xmlns="http://www.w3.org/2000/svg">
<g id="logos:monday-icon" clip-path="url(#clip0_4650_3143)">
<path id="Vector" d="M3.92307 19.3896C3.39252 19.3907 2.87118 19.251 2.4123 18.9847C1.95342 18.7184 1.57345 18.3351 1.3112 17.8739C1.05294 17.416 0.924145 16.8964 0.938595 16.3708C0.953045 15.8453 1.1102 15.3336 1.39323 14.8905L6.77194 6.444C7.04723 5.99004 7.43808 5.6173 7.90457 5.36384C8.37106 5.11039 8.89648 4.9853 9.42713 5.00137C9.95739 5.01407 10.4747 5.16742 10.9263 5.44574C11.3778 5.72407 11.7472 6.11736 11.9968 6.58537C12.4983 7.53347 12.4356 8.67412 11.8351 9.56419L6.45976 18.0106C6.18718 18.4354 5.81178 18.7845 5.36834 19.0255C4.92491 19.2666 4.42779 19.3918 3.92307 19.3896Z" fill="#F62B54"/>
<path id="Vector_2" d="M13.1492 19.3895C12.0643 19.3895 11.066 18.8095 10.5418 17.8773C10.2841 17.4206 10.1556 16.9024 10.17 16.3783C10.1845 15.8541 10.3414 15.3438 10.6238 14.902L15.9923 6.47478C16.2636 6.01444 16.653 5.63506 17.1203 5.376C17.5876 5.11694 18.1157 4.98764 18.6498 5.0015C19.7438 5.0254 20.7352 5.63731 21.2366 6.59459C21.4813 7.06333 21.5927 7.59027 21.5585 8.11794C21.5244 8.64562 21.346 9.1538 21.0429 9.58709L15.6755 18.0142C15.4038 18.4371 15.0299 18.7849 14.5884 19.0252C14.1468 19.2656 13.6519 19.3908 13.1492 19.3895Z" fill="#FFCC00"/>
<path id="Vector_3" d="M22.1686 19.4602C23.698 19.4602 24.9378 18.2464 24.9378 16.7491C24.9378 15.2519 23.698 14.0381 22.1686 14.0381C20.6392 14.0381 19.3994 15.2519 19.3994 16.7491C19.3994 18.2464 20.6392 19.4602 22.1686 19.4602Z" fill="#00CA72"/>
</g>
<defs>
<clipPath id="clip0_4650_3143">
<rect width="24" height="24" fill="white" transform="translate(0.9375)"/>
</clipPath>
</defs>
</svg>
