<svg width="16" height="17" viewBox="0 0 16 17" fill="none" xmlns="http://www.w3.org/2000/svg">
<path fill-rule="evenodd" clip-rule="evenodd" d="M9.01762 9.59437C9.13555 9.57306 9.25516 9.5624 9.375 9.5625C9.627 9.5625 9.86813 9.60912 10.0903 9.69419L10.974 8.4375L11.0077 8.45662C10.6801 8.09053 10.4993 7.61629 10.5 7.125C10.5 6.02044 11.3954 5.125 12.5 5.125C13.6046 5.125 14.5 6.02044 14.5 7.125C14.5 8.22956 13.6046 9.125 12.5 9.125C12.2705 9.125 12.05 9.08631 11.8447 9.01519L10.9503 10.3301C11.2261 10.6816 11.3757 11.1157 11.375 11.5625C11.375 12.6671 10.4796 13.5625 9.375 13.5625C8.27044 13.5625 7.375 12.6671 7.375 11.5625C7.375 10.9521 7.6485 10.4055 8.07963 10.0386L6.78188 7.45862C6.64802 7.48628 6.51168 7.50015 6.375 7.5C6.20288 7.50016 6.03147 7.4781 5.865 7.43437L4.94525 9.055C5.32563 9.41906 5.5625 9.93187 5.5625 10.5C5.5625 11.6046 4.66706 12.5 3.5625 12.5C2.45794 12.5 1.5625 11.6046 1.5625 10.5C1.5625 9.39544 2.45794 8.5 3.5625 8.5C3.72844 8.5 3.88962 8.52019 4.04375 8.55825L4.96931 6.92263C4.60238 6.56019 4.375 6.05669 4.375 5.5C4.375 4.39544 5.27044 3.5 6.375 3.5C7.47956 3.5 8.375 4.39544 8.375 5.5C8.375 6.09769 8.11281 6.63413 7.69725 7.00063L9.01762 9.59437ZM12.5 8.125C13.0523 8.125 13.5 7.67731 13.5 7.125C13.5 6.57269 13.0523 6.125 12.5 6.125C11.9477 6.125 11.5 6.57269 11.5 7.125C11.5 7.67731 11.9477 8.125 12.5 8.125ZM3.5625 11.5C4.11481 11.5 4.5625 11.0523 4.5625 10.5C4.5625 9.94769 4.11481 9.5 3.5625 9.5C3.01019 9.5 2.5625 9.94769 2.5625 10.5C2.5625 11.0523 3.01019 11.5 3.5625 11.5ZM6.375 6.5C6.92731 6.5 7.375 6.05231 7.375 5.5C7.375 4.94769 6.92731 4.5 6.375 4.5C5.82269 4.5 5.375 4.94769 5.375 5.5C5.375 6.05231 5.82269 6.5 6.375 6.5ZM9.375 12.5625C9.92731 12.5625 10.375 12.1148 10.375 11.5625C10.375 11.0102 9.92731 10.5625 9.375 10.5625C8.82269 10.5625 8.375 11.0102 8.375 11.5625C8.375 12.1148 8.82269 12.5625 9.375 12.5625Z" fill="#4F4F4F"/>
</svg>
