<svg width="24" height="24" viewBox="0 0 24 24" fill="none" xmlns="http://www.w3.org/2000/svg">
<g id="cib_notion">
<path id="Path 14288" d="M4.02909 4.20746C4.77138 4.81281 5.0529 4.76991 6.45461 4.67764L19.6683 3.88304C19.9498 3.88304 19.7153 3.60152 19.6213 3.5545L17.4262 1.96766C17.145 1.72781 16.8167 1.54964 16.4623 1.44466C16.108 1.33967 15.7356 1.31022 15.3692 1.35819L2.57918 2.29619C2.109 2.3391 2.01673 2.5736 2.20422 2.76108L4.02909 4.20746ZM4.82192 7.28829V21.1908C4.82192 21.9372 5.19336 22.2181 6.03321 22.1711L20.5564 21.3313C21.3962 21.2843 21.4967 20.7724 21.4967 20.1635V6.35616C21.4967 5.7467 21.2616 5.42228 20.7468 5.46988L5.56891 6.35616C5.00647 6.40318 4.82251 6.68 4.82251 7.28594L4.82192 7.28829ZM19.1576 8.02999C19.2516 8.45197 19.1576 8.86984 18.7356 8.92098L18.0368 9.06203V19.3242C17.5414 19.6237 16.9817 19.8006 16.4041 19.8402C15.6542 19.8402 15.4638 19.6051 14.9078 18.9063L10.3294 11.7197V18.6724L11.7782 19.001C11.7782 19.001 11.7782 19.8408 10.6104 19.8408L7.38791 20.0283C7.33813 19.8854 7.34435 19.729 7.40531 19.5905C7.46627 19.452 7.57744 19.3417 7.71644 19.2819L8.5563 19.0468V9.85663L7.3885 9.76259C7.35906 9.63895 7.35697 9.51037 7.38236 9.38584C7.40776 9.2613 7.46002 9.14381 7.53552 9.04156C7.61102 8.93932 7.70792 8.85478 7.81946 8.79386C7.93101 8.73293 8.0545 8.69709 8.18133 8.68883L11.6377 8.45374L16.403 15.7344V9.29359L15.1881 9.15254C15.1671 9.04121 15.1705 8.92665 15.1979 8.81673C15.2254 8.70682 15.2764 8.60416 15.3473 8.51581C15.4182 8.42746 15.5074 8.35552 15.6088 8.30493C15.7102 8.25435 15.8213 8.22631 15.9345 8.22276L19.1576 8.02999ZM1.50542 1.03553L14.8132 0.055214C16.4459 -0.0858389 16.8702 0.00819631 17.8946 0.754014L22.1444 3.74198C22.8432 4.2533 23.0783 4.39435 23.0783 4.95328V21.3319C23.0783 22.3592 22.7033 22.9646 21.3986 23.058L5.93859 23.9919C4.96297 24.0383 4.4928 23.8979 3.97737 23.2455L0.848932 19.1832C0.366405 18.6422 0.0860522 17.9509 0.0555095 17.2266V2.66881C0.0319495 2.46417 0.0518224 2.25686 0.11383 2.06042C0.175838 1.86398 0.278586 1.68283 0.415364 1.52881C0.552142 1.37478 0.719873 1.25134 0.907602 1.16654C1.09533 1.08175 1.29884 1.0375 1.50483 1.03671L1.50542 1.03553Z" fill="black"/>
</g>
</svg>
