<svg width="17" height="16" viewBox="0 0 17 16" fill="none" xmlns="http://www.w3.org/2000/svg">
<g id="tdesign:file-setting" clip-path="url(#clip0_6869_34865)">
<path id="Vector" d="M2.95312 0.666504H11.2291L14.9531 4.3905V7.33317H13.6198V5.99984H9.61979V1.99984H4.28646V13.9998H8.28646V15.3332H2.95312V0.666504ZM10.9531 2.27584V4.6665H13.3438L10.9531 2.27584ZM13.6198 8.49984V9.41717C14.0965 9.53984 14.5211 9.7905 14.8558 10.1318L15.6511 9.6725L16.3178 10.8272L15.5231 11.2858C15.6529 11.753 15.6529 12.2467 15.5231 12.7138L16.3178 13.1725L15.6511 14.3272L14.8558 13.8678C14.5164 14.214 14.0891 14.4611 13.6198 14.5825V15.4998H12.2865V14.5825C11.8172 14.4611 11.3898 14.214 11.0505 13.8678L10.2551 14.3272L9.58846 13.1725L10.3831 12.7138C10.2533 12.2467 10.2533 11.753 10.3831 11.2858L9.58846 10.8272L10.2551 9.6725L11.0505 10.1312C11.39 9.78552 11.8173 9.53891 12.2865 9.41784V8.49984H13.6198ZM11.7858 11.3552C11.6766 11.5525 11.6193 11.7743 11.6191 11.9998C11.6191 12.2332 11.6798 12.4532 11.7858 12.6445L11.8098 12.6865C11.9283 12.8839 12.0958 13.0473 12.2962 13.1608C12.4965 13.2742 12.7229 13.3339 12.9531 13.3339C13.1834 13.3339 13.4097 13.2742 13.6101 13.1608C13.8104 13.0473 13.978 12.8839 14.0965 12.6865L14.1205 12.6445C14.2294 12.4471 14.2865 12.2253 14.2865 11.9998C14.2865 11.7665 14.2265 11.5465 14.1205 11.3552L14.0965 11.3132C13.978 11.1157 13.8104 10.9523 13.6101 10.8389C13.4097 10.7254 13.1834 10.6658 12.9531 10.6658C12.7229 10.6658 12.4965 10.7254 12.2962 10.8389C12.0958 10.9523 11.9283 11.1157 11.8098 11.3132L11.7858 11.3552Z" fill="#4F4F4F"/>
</g>
<defs>
<clipPath id="clip0_6869_34865">
<rect width="16" height="16" fill="white" transform="translate(0.953125)"/>
</clipPath>
</defs>
</svg>
