<svg width="17" height="16" viewBox="0 0 17 16" fill="none" xmlns="http://www.w3.org/2000/svg">
<g id="icon-park-outline:table-report">
<g id="Group">
<path id="Vector" d="M12.6191 14.6666V2.33325C12.6191 2.06804 12.5138 1.81368 12.3262 1.62615C12.1387 1.43861 11.8844 1.33325 11.6191 1.33325H3.61914C3.35392 1.33325 3.09957 1.43861 2.91203 1.62615C2.7245 1.81368 2.61914 2.06804 2.61914 2.33325V13.6666C2.61914 13.9318 2.7245 14.1862 2.91203 14.3737C3.09957 14.5612 3.35392 14.6666 3.61914 14.6666H12.6191ZM12.6191 14.6666H14.2858C14.551 14.6666 14.8054 14.5612 14.9929 14.3737C15.1805 14.1862 15.2858 13.9318 15.2858 13.6666V7.99992C15.2858 7.82311 15.2156 7.65354 15.0905 7.52851C14.9655 7.40349 14.796 7.33325 14.6191 7.33325H13.2858C13.109 7.33325 12.9394 7.40349 12.8144 7.52851C12.6894 7.65354 12.6191 7.82311 12.6191 7.99992V14.6666Z" stroke="#4F4F4F" stroke-linejoin="round"/>
<path id="Vector_2" d="M4.61914 4H7.28581M4.61914 6.33333H8.61914" stroke="#4F4F4F" stroke-linecap="round" stroke-linejoin="round"/>
</g>
</g>
</svg>
