<svg width="16" height="17" viewBox="0 0 16 17" fill="none" xmlns="http://www.w3.org/2000/svg">
<path d="M8 9.16683V1.8335L13.3333 4.50016L8 7.16683" stroke="#4F4F4F" stroke-width="1.5" stroke-linecap="round" stroke-linejoin="round"/>
<path d="M13.7071 7.31475C14.0619 8.40818 14.0951 9.5805 13.8028 10.6923C13.5104 11.804 12.9049 12.8084 12.0582 13.5859C11.2114 14.3634 10.1592 14.8813 9.02661 15.078C7.89402 15.2747 6.72877 15.1419 5.66949 14.6954C4.61021 14.2488 3.70149 13.5074 3.05145 12.5594C2.4014 11.6113 2.03739 10.4964 2.00273 9.34737C1.96807 8.19835 2.26421 7.06356 2.85592 6.07801C3.44764 5.09246 4.31001 4.29763 5.34045 3.78809" stroke="#4F4F4F" stroke-width="1.5" stroke-linecap="round" stroke-linejoin="round"/>
<path d="M5.33427 7.16504C5.00021 7.60972 4.78272 8.13093 4.70163 8.68117C4.62054 9.23141 4.67843 9.79319 4.87001 10.3153C5.06159 10.8375 5.38078 11.3034 5.79849 11.6706C6.21621 12.0378 6.71917 12.2947 7.26156 12.4178C7.80395 12.5409 8.36852 12.5263 8.90384 12.3754C9.43915 12.2245 9.9282 11.942 10.3264 11.5538C10.7246 11.1655 11.0194 10.6837 11.1838 10.1524C11.3481 9.62105 11.377 9.05703 11.2676 8.51171" stroke="#4F4F4F" stroke-width="1.5" stroke-linecap="round" stroke-linejoin="round"/>
</svg>
