<svg width="17" height="16" viewBox="0 0 17 16" fill="none" xmlns="http://www.w3.org/2000/svg">
<g id="Simplification" clip-path="url(#clip0_6869_34883)">
<path id="Vector" d="M12.9219 0C12.9219 1.17562 12.9219 2.35125 12.9219 3.5625C13.7262 3.5625 14.5306 3.5625 15.3594 3.5625C15.3594 7.3575 15.3594 11.1525 15.3594 15.0625C15.6894 15.0625 16.0194 15.0625 16.3594 15.0625C16.3594 15.3719 16.3594 15.6812 16.3594 16C11.4713 16 6.58313 16 1.54688 16C1.54688 15.6906 1.54688 15.3813 1.54688 15.0625C1.87688 15.0625 2.20687 15.0625 2.54688 15.0625C2.54688 11.8759 2.54688 8.68937 2.54688 5.40625C3.35125 5.40625 4.15562 5.40625 4.98438 5.40625C4.98438 4.34406 4.98438 3.28188 4.98438 2.1875C5.29826 2.10049 5.61215 2.01348 5.93555 1.92383C7.08906 1.60366 8.24161 1.28011 9.39402 0.956C9.84743 0.828484 10.3009 0.701156 10.7544 0.573975C10.7843 0.565593 10.8142 0.557211 10.845 0.548575C11.1327 0.467887 11.4204 0.387217 11.7081 0.306551C11.8124 0.27733 11.9166 0.248104 12.0208 0.218877C12.0918 0.198987 12.1627 0.179104 12.2337 0.159221C12.2765 0.147206 12.3193 0.135192 12.3622 0.123177C12.4172 0.107767 12.4172 0.107767 12.4733 0.0920453C12.5468 0.0713263 12.6201 0.0497186 12.6932 0.0274577C12.7969 0 12.7969 0 12.9219 0ZM11.6509 1.32722C11.6147 1.33744 11.5784 1.34766 11.5411 1.35819C11.501 1.36969 11.4608 1.38119 11.4207 1.3927C11.3781 1.40476 11.3356 1.4168 11.293 1.42883C11.2009 1.45489 11.1089 1.48106 11.0168 1.5073C10.8695 1.54932 10.722 1.59111 10.5746 1.63286C10.5236 1.64732 10.4725 1.66178 10.4214 1.67624C10.3957 1.68352 10.3701 1.69079 10.3436 1.69828C10.264 1.72085 10.1843 1.74343 10.1047 1.76602C9.71346 1.87697 9.32201 1.98711 8.93042 2.0968C8.90228 2.10469 8.87414 2.11257 8.84515 2.12069C8.59615 2.19045 8.34714 2.26016 8.09812 2.32985C7.96857 2.36611 7.83904 2.4024 7.7095 2.4387C7.66285 2.45177 7.61619 2.46483 7.56953 2.47788C7.03005 2.62873 6.49176 2.78361 5.95312 2.9375C5.95312 3.75219 5.95312 4.56687 5.95312 5.40625C6.7575 5.40625 7.56187 5.40625 8.39062 5.40625C8.39062 8.59281 8.39062 11.7794 8.39062 15.0625C9.56625 15.0625 10.7419 15.0625 11.9531 15.0625C11.9531 10.5147 11.9531 5.96688 11.9531 1.28125C11.837 1.28125 11.7612 1.29586 11.6509 1.32722ZM12.9219 4.53125C12.9219 8.00656 12.9219 11.4819 12.9219 15.0625C13.4066 15.0625 13.8912 15.0625 14.3906 15.0625C14.3906 11.5872 14.3906 8.11188 14.3906 4.53125C13.9059 4.53125 13.4213 4.53125 12.9219 4.53125ZM3.51562 6.375C3.51562 9.24187 3.51562 12.1088 3.51562 15.0625C4.80469 15.0625 6.09375 15.0625 7.42188 15.0625C7.42188 12.1956 7.42188 9.32875 7.42188 6.375C6.13281 6.375 4.84375 6.375 3.51562 6.375Z" fill="#4F4F4F"/>
<path id="Vector_2" d="M9.51562 11.25C9.83531 11.25 10.155 11.25 10.4844 11.25C10.4844 11.8894 10.4844 12.5287 10.4844 13.1875C10.1647 13.1875 9.845 13.1875 9.51562 13.1875C9.51562 12.5481 9.51562 11.9087 9.51562 11.25Z" fill="#4F4F4F"/>
<path id="Vector_3" d="M4.98438 11.25C5.30406 11.25 5.62375 11.25 5.95312 11.25C5.95312 11.8894 5.95312 12.5287 5.95312 13.1875C5.63344 13.1875 5.31375 13.1875 4.98438 13.1875C4.98438 12.5481 4.98438 11.9087 4.98438 11.25Z" fill="#4F4F4F"/>
<path id="Vector_4" d="M9.51562 7.8125C9.83531 7.8125 10.155 7.8125 10.4844 7.8125C10.4844 8.44156 10.4844 9.07063 10.4844 9.71875C10.1647 9.71875 9.845 9.71875 9.51562 9.71875C9.51562 9.08969 9.51562 8.46062 9.51562 7.8125Z" fill="#4F4F4F"/>
<path id="Vector_5" d="M4.98438 7.8125C5.30406 7.8125 5.62375 7.8125 5.95312 7.8125C5.95312 8.44156 5.95312 9.07063 5.95312 9.71875C5.63344 9.71875 5.31375 9.71875 4.98438 9.71875C4.98438 9.08969 4.98438 8.46062 4.98438 7.8125Z" fill="#4F4F4F"/>
<path id="Vector_6" d="M9.51562 4.375C9.83531 4.375 10.155 4.375 10.4844 4.375C10.4844 5.00406 10.4844 5.63313 10.4844 6.28125C10.1647 6.28125 9.845 6.28125 9.51562 6.28125C9.51562 5.65219 9.51562 5.02312 9.51562 4.375Z" fill="#4F4F4F"/>
</g>
<defs>
<clipPath id="clip0_6869_34883">
<rect width="16" height="16" fill="white" transform="translate(0.953125)"/>
</clipPath>
</defs>
</svg>
