<svg width="16" height="16" viewBox="0 0 16 16" fill="none" xmlns="http://www.w3.org/2000/svg">
<path d="M14.917 8.21714C14.9118 7.07136 14.4538 5.97411 13.6429 5.16457L9.52964 0.992196C9.12473 0.587615 8.57575 0.360352 8.00335 0.360352C7.43096 0.360352 6.88198 0.587615 6.47707 0.992196L2.36465 5.12666C1.7528 5.73682 1.33583 6.51487 1.16658 7.36223C0.997325 8.20959 1.0834 9.08812 1.4139 9.88652C1.7444 10.6849 2.30445 11.3672 3.0231 11.847C3.74174 12.3269 4.58663 12.5825 5.45073 12.5817V12.5817C5.26096 13.2412 4.94372 13.8571 4.51697 14.3946C4.42443 14.5081 4.36654 14.6459 4.35022 14.7915C4.33389 14.937 4.35983 15.0842 4.42492 15.2154C4.49002 15.3466 4.59152 15.4563 4.71729 15.5314C4.84307 15.6065 4.9878 15.6437 5.13419 15.6387H10.8725C11.0171 15.6396 11.159 15.5993 11.2816 15.5226C11.4041 15.4459 11.5024 15.336 11.5649 15.2056C11.6273 15.0752 11.6515 14.9297 11.6344 14.7861C11.6174 14.6425 11.5598 14.5067 11.4686 14.3946C11.0401 13.8593 10.7213 13.2447 10.5304 12.5861C11.1062 12.5921 11.6774 12.4835 12.2108 12.2666C12.7442 12.0497 13.2292 11.7289 13.6374 11.3228C14.0456 10.9167 14.369 10.4334 14.5887 9.90116C14.8084 9.36889 14.92 8.79824 14.917 8.22243V8.21714ZM12.5822 10.224C12.2214 10.5793 11.7733 10.8334 11.2831 10.9606C10.7929 11.0878 10.2779 11.0838 9.78975 10.9488C9.74662 10.9451 9.70326 10.9451 9.66014 10.9488H9.5076C9.45061 10.9595 9.39458 10.9748 9.34007 10.9946H9.22544C9.18865 11.0197 9.15517 11.0493 9.1258 11.0828C9.07759 11.1118 9.03391 11.1477 8.99619 11.1895C8.98415 11.2204 8.96878 11.25 8.95034 11.2776C8.91796 11.3349 8.88853 11.3937 8.86216 11.454V11.454C8.8584 11.4998 8.8584 11.5458 8.86216 11.5915C8.86216 11.6374 8.86216 11.6832 8.86216 11.7291C8.92209 12.557 9.13432 13.3668 9.4882 14.1177H6.52204C6.88405 13.401 7.11177 12.624 7.19392 11.8252V11.6806C7.19768 11.6348 7.19768 11.5888 7.19392 11.5431V11.5431C7.16833 11.4781 7.13487 11.4165 7.09428 11.3596C7.08188 11.3325 7.0665 11.3067 7.04843 11.2829C7.01533 11.2397 6.97397 11.2034 6.92675 11.1762C6.8956 11.1446 6.86231 11.1151 6.82712 11.0881H6.72219C6.66616 11.0621 6.60682 11.044 6.54584 11.0343H6.40124C6.35547 11.0305 6.30946 11.0305 6.26369 11.0343C5.76147 11.1648 5.23348 11.1587 4.73442 11.0166C4.23536 10.8744 3.7834 10.6014 3.42538 10.2257C2.89519 9.6921 2.59648 8.97114 2.5939 8.2189C2.59269 7.846 2.66556 7.47657 2.8083 7.13207C2.95103 6.78756 3.16079 6.47484 3.42538 6.21207L7.54573 2.07585C7.66103 1.96329 7.81577 1.90028 7.9769 1.90028C8.13803 1.90028 8.29278 1.96329 8.40807 2.07585L12.5822 6.21207C12.8468 6.47484 13.0566 6.78756 13.1993 7.13207C13.342 7.47657 13.4149 7.846 13.4137 8.2189C13.4082 8.97004 13.1099 9.68939 12.5822 10.224Z" fill="#4F4F4F"/>
</svg>
