<svg width="16" height="16" viewBox="0 0 16 16" fill="none" xmlns="http://www.w3.org/2000/svg">
<g clip-path="url(#clip0_6398_29279)">
<path d="M0 12.5811H8.23268C10.7119 12.5691 12.8537 10.7801 13.3407 8.33816C13.8395 5.83655 12.4781 3.28724 10.1133 2.34205C8.18867 1.61751 6.03514 2.06476 4.59457 3.48701C3.57356 4.49481 3.20388 5.70536 3.09532 6.68334" stroke="#4F4F4F" stroke-width="1.7" stroke-miterlimit="10" stroke-linecap="round"/>
<path d="M3.3597 8.89078C3.2947 9.07015 3.03244 9.07409 2.96217 8.89672C2.53881 7.82801 1.95833 6.64917 1.33283 5.72819C1.21789 5.55896 1.39516 5.32022 1.58665 5.3922L3.04872 5.94176C3.09611 5.95958 3.14849 5.95876 3.19529 5.93947L4.63682 5.34543C4.82642 5.2673 5.01145 5.50184 4.90091 5.67458C4.30016 6.61331 3.75198 7.80821 3.3597 8.89078Z" fill="#4F4F4F"/>
<path d="M5.4043 12.5811H14.2301" stroke="#4F4F4F" stroke-width="1.7" stroke-miterlimit="10"/>
<path d="M15.753 12.4836C15.8385 12.5185 15.8385 12.6431 15.7531 12.6781C15.096 12.9471 14.3572 13.334 13.7937 13.7556C13.7109 13.8176 13.5877 13.7315 13.6223 13.6341L13.9849 12.6144C13.9926 12.5927 13.9926 12.569 13.9849 12.5473L13.6226 11.5307C13.588 11.4333 13.7113 11.3471 13.7941 11.4089C14.3564 11.8285 15.0962 12.2149 15.753 12.4836Z" fill="#4F4F4F"/>
</g>
<defs>
<clipPath id="clip0_6398_29279">
<rect width="16" height="16" fill="white"/>
</clipPath>
</defs>
</svg>
