<svg width="17" height="17" viewBox="0 0 17 17" fill="none" xmlns="http://www.w3.org/2000/svg">
<path fill-rule="evenodd" clip-rule="evenodd" d="M3.44589 2.09222C3.14133 2.09222 2.92365 2.17923 2.75326 2.33101L2.75237 2.3318C2.5853 2.47999 2.51214 2.64423 2.51214 2.86089V14.9388C2.51214 15.1555 2.58535 15.3202 2.75282 15.4691C2.92317 15.6205 3.141 15.7074 3.44589 15.7074H13.3537C13.6583 15.7074 13.8765 15.6204 14.0477 15.4683C14.2143 15.3202 14.2875 15.1559 14.2875 14.9388V6.18087H9.68773V2.09222H3.44589ZM10.7917 3.58713V5.07694H12.4677L10.7917 3.58713ZM2.01896 1.50671C2.41526 1.15368 2.9041 0.988281 3.44589 0.988281H10.9095L15.3914 4.97217V14.9388C15.3914 15.474 15.1813 15.9377 14.7811 16.2933C14.3844 16.646 13.8955 16.8114 13.3537 16.8114H3.44589C2.90442 16.8114 2.41573 16.6465 2.0194 16.2942C1.61896 15.9382 1.4082 15.4744 1.4082 14.9388V2.86089C1.4082 2.32523 1.619 1.86145 2.01984 1.50592L2.38611 1.91886L2.01896 1.50671ZM11.3326 7.49728L12.8258 8.82464L7.43389 13.6165L3.97375 10.5419L5.46158 9.21939L7.42838 10.9685L11.3326 7.49728Z" fill="#4F4F4F"/>
</svg>
