<svg width="16" height="17" viewBox="0 0 16 17" fill="none" xmlns="http://www.w3.org/2000/svg">
<g clip-path="url(#clip0_6398_29119)">
<path d="M1.875 8.82812L2.561 6.08512C2.61517 5.86888 2.74005 5.67693 2.91579 5.53978C3.09154 5.40263 3.30807 5.32813 3.531 5.32812H14.469C14.621 5.32813 14.771 5.36279 14.9076 5.42946C15.0442 5.49614 15.1638 5.59308 15.2573 5.71291C15.3509 5.83275 15.4158 5.97232 15.4473 6.12104C15.4788 6.26975 15.4759 6.42368 15.439 6.57113L15.124 7.83112M6 14.3281H2.004C1.80668 14.3287 1.6112 14.2902 1.42875 14.2151C1.2463 14.1399 1.08046 14.0295 0.940753 13.8902C0.801041 13.7509 0.690194 13.5853 0.614562 13.4031C0.53893 13.2208 0.499999 13.0254 0.5 12.8281V4.32812C0.5 4.06291 0.605357 3.80855 0.792893 3.62102C0.98043 3.43348 1.23478 3.32813 1.5 3.32812H6.5C6.76522 3.32813 7.01957 3.43348 7.20711 3.62102C7.39464 3.80855 7.5 4.06291 7.5 4.32812V5.32812" stroke="#4F4F4F" stroke-width="1.3" stroke-linecap="round" stroke-linejoin="round"/>
<path d="M13.5 10.9951V10.1611C13.5 9.9402 13.4122 9.72832 13.256 9.57211C13.0998 9.41589 12.8879 9.32812 12.667 9.32812H9.333C9.11207 9.32812 8.9002 9.41589 8.74398 9.57211C8.58776 9.72832 8.5 9.9402 8.5 10.1611V13.4951C8.5 13.9551 8.873 14.3281 9.333 14.3281H10.167M11.5 11.3281H14.5C14.7652 11.3281 15.0196 11.4335 15.2071 11.621C15.3946 11.8086 15.5 12.0629 15.5 12.3281V15.3281C15.5 15.5933 15.3946 15.8477 15.2071 16.0352C15.0196 16.2228 14.7652 16.3281 14.5 16.3281H11.5C11.2348 16.3281 10.9804 16.2228 10.7929 16.0352C10.6054 15.8477 10.5 15.5933 10.5 15.3281V12.3281C10.5 12.0629 10.6054 11.8086 10.7929 11.621C10.9804 11.4335 11.2348 11.3281 11.5 11.3281Z" stroke="#4F4F4F" stroke-width="1.3" stroke-linecap="round" stroke-linejoin="round"/>
</g>
<defs>
<clipPath id="clip0_6398_29119">
<rect width="16" height="16" fill="white" transform="translate(0 0.828125)"/>
</clipPath>
</defs>
</svg>
