<svg width="16" height="17" viewBox="0 0 16 17" fill="none" xmlns="http://www.w3.org/2000/svg">
<path d="M12.6571 9.28852L12.6571 9.2885L12.1116 8.66071V7.6087C12.1116 7.44371 12.0459 7.28553 11.929 7.16896C11.8121 7.05239 11.6536 6.98696 11.4884 6.98696C11.3232 6.98696 11.1647 7.05239 11.0478 7.16896C10.9309 7.28553 10.8651 7.44371 10.8651 7.6087V8.89357V8.89369C10.8653 9.04299 10.9193 9.1872 11.0173 9.3L11.0173 9.30003L11.715 10.1028C11.715 10.1028 11.715 10.1028 11.715 10.1028C11.7686 10.1645 11.8338 10.2151 11.907 10.2516C11.9802 10.2882 12.0598 10.31 12.1414 10.3158C12.223 10.3217 12.305 10.3114 12.3826 10.2857C12.4603 10.26 12.5321 10.2192 12.594 10.1658C12.6558 10.1123 12.7066 10.0473 12.7433 9.97424C12.78 9.90123 12.8019 9.8217 12.8077 9.74022C12.8136 9.65874 12.8033 9.57691 12.7775 9.4994C12.7516 9.42189 12.7107 9.35023 12.6571 9.28852ZM0.58265 5.082C0.465735 5.19858 0.4 5.35675 0.4 5.52174C0.4 5.68673 0.465735 5.8449 0.58265 5.96148C0.699555 6.07804 0.858052 6.14348 1.02326 6.14348H6.60465C6.76986 6.14348 6.92835 6.07804 7.04526 5.96148C7.16217 5.8449 7.22791 5.68673 7.22791 5.52174C7.22791 5.35675 7.16217 5.19858 7.04526 5.082C6.92835 4.96543 6.76986 4.9 6.60465 4.9H1.02326C0.858052 4.9 0.699555 4.96543 0.58265 5.082ZM10.3918 6.36096C10.7395 6.21738 11.1121 6.14348 11.4884 6.14348C12.2483 6.14348 12.9771 6.4445 13.5144 6.98024C14.0517 7.51596 14.3535 8.2425 14.3535 9C14.3535 9.7575 14.0517 10.484 13.5144 11.0198C12.9771 11.5555 12.2483 11.8565 11.4884 11.8565C11.1121 11.8565 10.7395 11.7826 10.3918 11.639C10.0442 11.4955 9.72836 11.285 9.46233 11.0198C9.19629 10.7545 8.98527 10.4396 8.84131 10.093C8.69735 9.7465 8.62326 9.37508 8.62326 9C8.62326 8.62492 8.69735 8.2535 8.84131 7.90695C8.98527 7.5604 9.19629 7.2455 9.46233 6.98024C9.72836 6.71497 10.0442 6.50453 10.3918 6.36096ZM7.68976 7.4309C7.48311 7.92836 7.37674 8.46154 7.37674 9C7.37674 10.0875 7.81 11.1304 8.58111 11.8992C9.35222 12.6681 10.398 13.1 11.4884 13.1C12.5787 13.1 13.6245 12.6681 14.3956 11.8992C15.1667 11.1304 15.6 10.0875 15.6 9C15.6 8.46154 15.4936 7.92836 15.287 7.4309C15.0803 6.93345 14.7774 6.48147 14.3956 6.10076C14.0138 5.72005 13.5606 5.41808 13.0617 5.21205C12.5629 5.00603 12.0283 4.9 11.4884 4.9C10.9485 4.9 10.4138 5.00603 9.91501 5.21205C9.41619 5.41808 8.96293 5.72005 8.58111 6.10076C8.1993 6.48147 7.89641 6.93345 7.68976 7.4309ZM0.58265 8.56026C0.465735 8.67684 0.4 8.83501 0.4 9C0.4 9.16499 0.465735 9.32316 0.58265 9.43974C0.699555 9.5563 0.858051 9.62174 1.02326 9.62174H5.2093C5.37451 9.62174 5.533 9.5563 5.64991 9.43974C5.76682 9.32316 5.83256 9.16499 5.83256 9C5.83256 8.83501 5.76682 8.67684 5.64991 8.56026C5.533 8.4437 5.37451 8.37826 5.2093 8.37826H1.02326C0.858051 8.37826 0.699555 8.4437 0.58265 8.56026ZM0.58265 12.0385C0.465735 12.1551 0.4 12.3133 0.4 12.4783C0.4 12.6433 0.465735 12.8014 0.58265 12.918C0.699556 13.0346 0.858052 13.1 1.02326 13.1H6.60465C6.76986 13.1 6.92835 13.0346 7.04526 12.918C7.16217 12.8014 7.22791 12.6433 7.22791 12.4783C7.22791 12.3133 7.16217 12.1551 7.04526 12.0385C6.92835 11.922 6.76986 11.8565 6.60465 11.8565H1.02326C0.858052 11.8565 0.699556 11.922 0.58265 12.0385Z" fill="#4F4F4F" stroke="#4F4F4F" stroke-width="0.2"/>
</svg>
