<svg width="16" height="17" viewBox="0 0 16 17" fill="none" xmlns="http://www.w3.org/2000/svg">
<path d="M4.66667 11.6112H7.33333C7.52222 11.6112 7.68067 11.5472 7.80867 11.4192C7.93667 11.2912 8.00044 11.1329 8 10.9445C7.99956 10.7561 7.93556 10.5978 7.808 10.4698C7.68044 10.3418 7.52222 10.2778 7.33333 10.2778H4.66667C4.47778 10.2778 4.31956 10.3418 4.192 10.4698C4.06444 10.5978 4.00044 10.7561 4 10.9445C3.99956 11.1329 4.06356 11.2914 4.192 11.4198C4.32044 11.5483 4.47867 11.6121 4.66667 11.6112ZM6.66667 8.9445H9.33333C9.52222 8.9445 9.68067 8.8805 9.80867 8.7525C9.93667 8.6245 10.0004 8.46628 10 8.27783C9.99956 8.08939 9.93556 7.93117 9.808 7.80317C9.68044 7.67517 9.52222 7.61117 9.33333 7.61117H6.66667C6.47778 7.61117 6.31956 7.67517 6.192 7.80317C6.06444 7.93117 6.00044 8.08939 6 8.27783C5.99956 8.46628 6.06356 8.62472 6.192 8.75317C6.32044 8.88161 6.47867 8.94539 6.66667 8.9445ZM8.66667 6.27783H11.3333C11.5222 6.27783 11.6807 6.21383 11.8087 6.08583C11.9367 5.95783 12.0004 5.79961 12 5.61117C11.9996 5.42272 11.9356 5.2645 11.808 5.1365C11.6804 5.0085 11.5222 4.9445 11.3333 4.9445H8.66667C8.47778 4.9445 8.31956 5.0085 8.192 5.1365C8.06444 5.2645 8.00044 5.42272 8 5.61117C7.99956 5.79961 8.06356 5.95805 8.192 6.0865C8.32044 6.21494 8.47867 6.27872 8.66667 6.27783ZM3.33333 14.2778C2.96667 14.2778 2.65289 14.1474 2.392 13.8865C2.13111 13.6256 2.00044 13.3116 2 12.9445V3.61117C2 3.2445 2.13067 2.93072 2.392 2.66983C2.65333 2.40894 2.96711 2.27828 3.33333 2.27783H12.6667C13.0333 2.27783 13.3473 2.4085 13.6087 2.66983C13.87 2.93117 14.0004 3.24494 14 3.61117V12.9445C14 13.3112 13.8696 13.6252 13.6087 13.8865C13.3478 14.1478 13.0338 14.2783 12.6667 14.2778H3.33333ZM3.33333 12.9445H12.6667V3.61117H3.33333V12.9445Z" fill="#4F4F4F"/>
</svg>
