<svg width="25" height="24" viewBox="0 0 25 24" fill="none" xmlns="http://www.w3.org/2000/svg">
<g id="logos:trello" clip-path="url(#clip0_4650_3168)">
<path id="Vector" d="M22.5938 0H3.28125C1.98683 0 0.9375 1.04933 0.9375 2.34375V21.6562C0.9375 22.9507 1.98683 24 3.28125 24H22.5938C23.8882 24 24.9375 22.9507 24.9375 21.6562V2.34375C24.9375 1.04933 23.8882 0 22.5938 0Z" fill="url(#paint0_linear_4650_3168)"/>
<path id="Vector_2" d="M20.6921 3.12012H15.6221C15.0007 3.12012 14.4971 3.6238 14.4971 4.24512V12.4951C14.4971 13.1164 15.0007 13.6201 15.6221 13.6201H20.6921C21.3134 13.6201 21.8171 13.1164 21.8171 12.4951V4.24512C21.8171 3.6238 21.3134 3.12012 20.6921 3.12012Z" fill="white"/>
<path id="Vector_3" d="M10.2526 3.12012H5.18262C4.5613 3.12012 4.05762 3.6238 4.05762 4.24512V18.4951C4.05762 19.1164 4.5613 19.6201 5.18262 19.6201H10.2526C10.8739 19.6201 11.3776 19.1164 11.3776 18.4951V4.24512C11.3776 3.6238 10.8739 3.12012 10.2526 3.12012Z" fill="white"/>
</g>
<defs>
<linearGradient id="paint0_linear_4650_3168" x1="1200.94" y1="0" x2="1200.94" y2="2400" gradientUnits="userSpaceOnUse">
<stop stop-color="#0091E6"/>
<stop offset="1" stop-color="#0079BF"/>
</linearGradient>
<clipPath id="clip0_4650_3168">
<rect width="24" height="24" fill="white" transform="translate(0.9375)"/>
</clipPath>
</defs>
</svg>
