<svg width="16" height="17" viewBox="0 0 16 17" fill="none" xmlns="http://www.w3.org/2000/svg">
<path d="M8 1C12.1422 1 15.5 4.35775 15.5 8.5C15.5 12.6422 12.1422 16 8 16C6.63363 16.0021 5.2929 15.6291 4.124 14.9215L1.85001 15.5905C1.71944 15.6289 1.58094 15.6314 1.44907 15.5978C1.31719 15.5642 1.19681 15.4957 1.10058 15.3994C1.00434 15.3032 0.935811 15.1828 0.902189 15.0509C0.868567 14.9191 0.871094 14.7806 0.909506 14.65L1.57851 12.376C0.871296 11.2069 0.498266 9.86631 0.500006 8.5C0.500006 4.35775 3.85775 1 8 1ZM8 2.5C6.92572 2.4998 5.8711 2.78804 4.94625 3.33461C4.02141 3.88118 3.26027 4.66603 2.74233 5.6072C2.22438 6.54838 1.96863 7.61135 2.00177 8.68512C2.03492 9.75888 2.35575 10.8041 2.93076 11.7115C3.101 11.9792 3.1595 12.3167 3.06351 12.6415L2.73276 13.7672L3.8585 13.4365C4.18325 13.3405 4.52075 13.399 4.7885 13.5692C5.57475 14.0671 6.46602 14.3752 7.39186 14.4693C8.3177 14.5633 9.25273 14.4407 10.123 14.1112C10.9933 13.7816 11.775 13.2542 12.4064 12.5705C13.0377 11.8868 13.5014 11.0656 13.7607 10.1718C14.02 9.27807 14.0678 8.33626 13.9004 7.42083C13.7331 6.5054 13.355 5.64145 12.7962 4.89728C12.2375 4.15311 11.5132 3.54912 10.6808 3.13306C9.8484 2.717 8.93061 2.50027 8 2.5ZM5.375 7.375C5.67337 7.375 5.95952 7.49352 6.1705 7.7045C6.38148 7.91548 6.5 8.20163 6.5 8.5C6.5 8.79836 6.38148 9.08451 6.1705 9.29549C5.95952 9.50647 5.67337 9.625 5.375 9.625C5.07664 9.625 4.79049 9.50647 4.57951 9.29549C4.36853 9.08451 4.25 8.79836 4.25 8.5C4.25 8.20163 4.36853 7.91548 4.57951 7.7045C4.79049 7.49352 5.07664 7.375 5.375 7.375ZM10.625 7.375C10.9234 7.375 11.2095 7.49352 11.4205 7.7045C11.6315 7.91548 11.75 8.20163 11.75 8.5C11.75 8.79836 11.6315 9.08451 11.4205 9.29549C11.2095 9.50647 10.9234 9.625 10.625 9.625C10.3266 9.625 10.0405 9.50647 9.82951 9.29549C9.61853 9.08451 9.5 8.79836 9.5 8.5C9.5 8.20163 9.61853 7.91548 9.82951 7.7045C10.0405 7.49352 10.3266 7.375 10.625 7.375Z" fill="#4F4F4F"/>
</svg>
