<svg width="16" height="17" viewBox="0 0 16 17" fill="none" xmlns="http://www.w3.org/2000/svg">
<path d="M12.25 14C13.7688 14 15 12.7688 15 11.25C15 9.73122 13.7688 8.5 12.25 8.5C10.7312 8.5 9.5 9.73122 9.5 11.25C9.5 12.7688 10.7312 14 12.25 14Z" stroke="#4F4F4F" stroke-width="1.2" stroke-linecap="round" stroke-linejoin="round"/>
<path d="M3.75 14C5.26878 14 6.5 12.7688 6.5 11.25C6.5 9.73122 5.26878 8.5 3.75 8.5C2.23122 8.5 1 9.73122 1 11.25C1 12.7688 2.23122 14 3.75 14Z" stroke="#4F4F4F" stroke-width="1.2" stroke-linecap="round" stroke-linejoin="round"/>
<path d="M6.5 11.25V4.5C6.5 3.67188 6 3 5.125 3C4.03125 3 3.67188 3.67188 3.34375 4.5C3.34375 4.5 1.82812 8.49478 1.125 10.4219M6.5 6.25C6.5 6.25 7.01562 6 8 6C8.98438 6 9.5 6.25 9.5 6.25M6.5 9C6.5 9 7.01562 8.75 8 8.75C8.98438 8.75 9.5 9 9.5 9M9.5 11.25V4.5C9.5 3.67188 10 3 10.875 3C11.9688 3 12.3281 3.67188 12.6562 4.5C12.6562 4.5 14.1719 8.49478 14.875 10.4219" stroke="#4F4F4F" stroke-width="1.2" stroke-linecap="round" stroke-linejoin="round"/>
</svg>
