<svg width="16" height="17" viewBox="0 0 16 17" fill="none" xmlns="http://www.w3.org/2000/svg">
<path d="M8 3C2.75 3 0.5 6.75 0.5 6.75L5.75 12C5.75 12 6.125 11.325 6.8 10.875L7.025 12.375C6.725 12.6 6.5 13.05 6.5 13.5C6.5 13.8978 6.65804 14.2794 6.93934 14.5607C7.22064 14.842 7.60218 15 8 15C8.39782 15 8.77936 14.842 9.06066 14.5607C9.34196 14.2794 9.5 13.8978 9.5 13.5C9.5 12.825 9.125 12.3 8.525 12.075L8.225 10.5C9.575 10.65 10.25 12 10.25 12L15.5 6.75C15.5 6.75 13.25 3 8 3ZM10.325 9.825C9.725 9.375 8.975 9 8 9L7.25 4.575C7.475 4.5 7.775 4.5 8 4.5C10.775 4.5 12.575 5.775 13.475 6.675L10.325 9.825ZM5.675 9.825L2.525 6.675C3.125 6 4.25 5.25 5.75 4.8L6.5 9.3C6.2 9.45 5.9 9.6 5.675 9.825Z" fill="#4F4F4F"/>
</svg>
