<svg width="17" height="16" viewBox="0 0 17 16" fill="none" xmlns="http://www.w3.org/2000/svg">
<g id="lucide:workflow">
<g id="Group">
<path id="Vector" d="M6.95312 2H4.28646C3.55008 2 2.95312 2.59695 2.95312 3.33333V6C2.95312 6.73638 3.55008 7.33333 4.28646 7.33333H6.95312C7.6895 7.33333 8.28646 6.73638 8.28646 6V3.33333C8.28646 2.59695 7.6895 2 6.95312 2Z" stroke="#4F4F4F" stroke-width="1.33333" stroke-linecap="round" stroke-linejoin="round"/>
<path id="Vector_2" d="M5.61914 7.3335V10.0002C5.61914 10.3538 5.75962 10.6929 6.00966 10.943C6.25971 11.193 6.59885 11.3335 6.95247 11.3335H9.61914" stroke="#4F4F4F" stroke-width="1.33333" stroke-linecap="round" stroke-linejoin="round"/>
<path id="Vector_3" d="M13.6191 8.6665H10.9525C10.2161 8.6665 9.61914 9.26346 9.61914 9.99984V12.6665C9.61914 13.4029 10.2161 13.9998 10.9525 13.9998H13.6191C14.3555 13.9998 14.9525 13.4029 14.9525 12.6665V9.99984C14.9525 9.26346 14.3555 8.6665 13.6191 8.6665Z" stroke="#4F4F4F" stroke-width="1.33333" stroke-linecap="round" stroke-linejoin="round"/>
</g>
</g>
</svg>
