<svg width="17" height="16" viewBox="0 0 17 16" fill="none" xmlns="http://www.w3.org/2000/svg">
<g id="ri:home-office-line" clip-path="url(#clip0_6869_34880)">
<path id="Vector" d="M9.40114 1.07469L14.8191 6.00003H12.8371L8.95247 2.46869L4.95247 6.10536V12.6667H8.28581V14H4.28581C4.109 14 3.93943 13.9298 3.8144 13.8048C3.68938 13.6797 3.61914 13.5102 3.61914 13.3334V7.33336H1.61914L8.50381 1.07469C8.62655 0.963013 8.78653 0.901123 8.95247 0.901123C9.11842 0.901123 9.2784 0.963013 9.40114 1.07469ZM10.2858 7.33336H16.2858V12H10.2858V7.33336ZM11.6191 8.66669V10.6667H14.9525V8.66669H11.6191ZM16.9525 14H9.61914V12.6667H16.9525V14Z" fill="#4F4F4F"/>
</g>
<defs>
<clipPath id="clip0_6869_34880">
<rect width="16" height="16" fill="white" transform="translate(0.953125)"/>
</clipPath>
</defs>
</svg>
