<svg width="25" height="24" viewBox="0 0 25 24" fill="none" xmlns="http://www.w3.org/2000/svg">
<path d="M7.6 9.2V8.85C7.50717 8.85 7.41815 8.88687 7.35251 8.95251C7.28687 9.01815 7.25 9.10717 7.25 9.2H7.6ZM11.8 9.2H12.15C12.15 9.10717 12.1131 9.01815 12.0475 8.95251C11.9818 8.88687 11.8928 8.85 11.8 8.85V9.2ZM11.8 16.9V17.25C11.8928 17.25 11.9818 17.2131 12.0475 17.1475C12.1131 17.0818 12.15 16.9928 12.15 16.9H11.8ZM7.6 16.9H7.25C7.25 16.9928 7.28687 17.0818 7.35251 17.1475C7.41815 17.2131 7.50717 17.25 7.6 17.25V16.9ZM13.2 9.2V8.85C13.1072 8.85 13.0181 8.88687 12.9525 8.95251C12.8869 9.01815 12.85 9.10717 12.85 9.2H13.2ZM17.4 9.2H17.75C17.75 9.10717 17.7131 9.01815 17.6475 8.95251C17.5818 8.88687 17.4928 8.85 17.4 8.85V9.2ZM17.4 13.4V13.75C17.4928 13.75 17.5818 13.7131 17.6475 13.6475C17.7131 13.5818 17.75 13.4928 17.75 13.4H17.4ZM13.2 13.4H12.85C12.85 13.4928 12.8869 13.5818 12.9525 13.6475C13.0181 13.7131 13.1072 13.75 13.2 13.75V13.4ZM7.25 7.45H12.15V6.75H7.25V7.45ZM12.85 7.45H17.75V6.75H12.85V7.45ZM7.6 9.55H11.8V8.85H7.6V9.55ZM11.45 9.2V16.9H12.15V9.2H11.45ZM11.8 16.55H7.6V17.25H11.8V16.55ZM7.95 16.9V9.2H7.25V16.9H7.95ZM13.2 9.55H17.4V8.85H13.2V9.55ZM17.05 9.2V13.4H17.75V9.2H17.05ZM17.4 13.05H13.2V13.75H17.4V13.05ZM13.55 13.4V9.2H12.85V13.4H13.55Z" fill="#4F4F4F"/>
<path d="M7.6 8.85V9.2H7.25M7.6 8.85C7.50717 8.85 7.41815 8.88687 7.35251 8.95251C7.28687 9.01815 7.25 9.10717 7.25 9.2M7.6 8.85H11.8M7.6 8.85V9.55H11.8V8.85M7.25 9.2H7.95V16.9H7.25M7.25 9.2V16.9M12.15 9.2H11.8V8.85M12.15 9.2C12.15 9.10717 12.1131 9.01815 12.0475 8.95251C11.9818 8.88687 11.8928 8.85 11.8 8.85M12.15 9.2V16.9M12.15 9.2H11.45V16.9H12.15M11.8 17.25V16.9H12.15M11.8 17.25C11.8928 17.25 11.9818 17.2131 12.0475 17.1475C12.1131 17.0818 12.15 16.9928 12.15 16.9M11.8 17.25H7.6M11.8 17.25V16.55H7.6V17.25M7.25 16.9H7.6V17.25M7.25 16.9C7.25 16.9928 7.28687 17.0818 7.35251 17.1475C7.41815 17.2131 7.50717 17.25 7.6 17.25M13.2 8.85V9.2H12.85M13.2 8.85C13.1072 8.85 13.0181 8.88687 12.9525 8.95251C12.8869 9.01815 12.85 9.10717 12.85 9.2M13.2 8.85H17.4M13.2 8.85V9.55H17.4V8.85M12.85 9.2H13.55V13.4H12.85M12.85 9.2V13.4M17.75 9.2H17.4V8.85M17.75 9.2C17.75 9.10717 17.7131 9.01815 17.6475 8.95251C17.5818 8.88687 17.4928 8.85 17.4 8.85M17.75 9.2V13.4M17.75 9.2H17.05V13.4H17.75M17.4 13.75V13.4H17.75M17.4 13.75C17.4928 13.75 17.5818 13.7131 17.6475 13.6475C17.7131 13.5818 17.75 13.4928 17.75 13.4M17.4 13.75H13.2M17.4 13.75V13.05H13.2V13.75M12.85 13.4H13.2V13.75M12.85 13.4C12.85 13.4928 12.8869 13.5818 12.9525 13.6475C13.0181 13.7131 13.1072 13.75 13.2 13.75M7.25 7.45H12.15V6.75H7.25V7.45ZM12.85 7.45H17.75V6.75H12.85V7.45Z" stroke="#4F4F4F" stroke-width="0.2"/>
</svg>
