<svg width="25" height="24" viewBox="0 0 25 24" fill="none" xmlns="http://www.w3.org/2000/svg">
<path d="M7.71419 5.70537C7.74595 5.70521 7.77772 5.70506 7.81044 5.7049C7.8776 5.70464 7.94476 5.70446 8.01191 5.70435C8.1138 5.70409 8.21568 5.70324 8.31757 5.70238C8.38304 5.7022 8.44852 5.70206 8.51399 5.70195C8.55913 5.70144 8.55913 5.70144 8.60517 5.70093C9.01956 5.7021 9.37183 5.82018 9.67461 6.10677C9.92122 6.37406 10.0409 6.68122 10.0396 7.04244C10.0395 7.06958 10.0394 7.09673 10.0393 7.12469C10.0392 7.14541 10.0392 7.16614 10.039 7.18749C10.0546 7.18744 10.0701 7.1874 10.0861 7.18736C11.0079 7.18491 11.9297 7.18303 12.8515 7.1819C12.9623 7.18176 13.0732 7.18162 13.184 7.18148C13.2171 7.18143 13.2171 7.18143 13.2508 7.18139C13.6075 7.18092 13.9641 7.18005 14.3208 7.17905C14.6871 7.17802 15.0533 7.17742 15.4196 7.17719C15.6454 7.17704 15.8712 7.17657 16.097 7.17568C16.2521 7.1751 16.4072 7.17493 16.5623 7.17507C16.6516 7.17514 16.7409 7.17498 16.8302 7.17445C17.407 7.17119 17.8754 7.21332 18.3174 7.62669C18.7342 8.06819 18.8065 8.5791 18.8036 9.16307C18.8036 9.21535 18.8038 9.26762 18.8039 9.3199C18.8041 9.42873 18.8038 9.53756 18.8033 9.64639C18.8027 9.78465 18.803 9.92288 18.8037 10.0611C18.8041 10.1689 18.804 10.2766 18.8037 10.3843C18.8036 10.4352 18.8037 10.4862 18.804 10.5371C18.8061 11.0854 18.7216 11.5549 18.33 11.9668C18.31 11.9868 18.2901 12.0067 18.2695 12.0273C18.2541 12.0431 18.2386 12.0588 18.2227 12.0751C17.8768 12.3999 17.43 12.4495 16.9792 12.4563C16.9371 12.4572 16.895 12.4581 16.8529 12.4591C16.7509 12.4614 16.6489 12.4632 16.5469 12.4648C16.5589 12.4763 16.5709 12.4877 16.5832 12.4994C16.638 12.552 16.6924 12.605 16.7468 12.6579C16.7657 12.6759 16.7846 12.6939 16.804 12.7124C16.9442 12.8499 17.0256 12.9608 17.051 13.1604C17.0316 13.3187 16.9752 13.4332 16.8596 13.5432C16.7654 13.6036 16.6892 13.6186 16.5793 13.6218C16.5566 13.6228 16.5339 13.6239 16.5104 13.6249C16.358 13.6006 16.2463 13.4837 16.1402 13.3782C16.1152 13.3534 16.0902 13.3287 16.0645 13.3032C16.0377 13.2765 16.0109 13.2497 15.9842 13.2229C15.9563 13.1951 15.9285 13.1674 15.9007 13.1397C15.8426 13.0818 15.7846 13.0238 15.7267 12.9658C15.6525 12.8915 15.5781 12.8175 15.5036 12.7436C15.4461 12.6866 15.3888 12.6293 15.3316 12.572C15.3042 12.5446 15.2768 12.5174 15.2493 12.4901C15.2109 12.4521 15.1728 12.4137 15.1347 12.3753C15.1021 12.3428 15.1021 12.3428 15.0688 12.3095C14.9735 12.1959 14.9549 12.0968 14.951 11.9497C14.9761 11.8002 15.0642 11.695 15.1685 11.5908C15.1939 11.5653 15.2192 11.5397 15.2454 11.5134C15.273 11.486 15.3006 11.4587 15.3282 11.4313C15.3567 11.4029 15.3851 11.3744 15.4136 11.346C15.473 11.2866 15.5325 11.2273 15.5922 11.1681C15.6686 11.0923 15.7447 11.0163 15.8207 10.9401C15.8793 10.8814 15.938 10.8228 15.9968 10.7643C16.0249 10.7363 16.053 10.7082 16.081 10.6802C16.1202 10.641 16.1596 10.602 16.199 10.563C16.2214 10.5408 16.2437 10.5185 16.2667 10.4957C16.3892 10.3874 16.484 10.3761 16.6434 10.3799C16.7726 10.393 16.8486 10.4409 16.9365 10.5337C17.0262 10.6683 17.0556 10.7706 17.039 10.9336C16.9762 11.1104 16.8655 11.2304 16.7314 11.3574C16.7137 11.3747 16.6959 11.392 16.6776 11.4097C16.6343 11.4518 16.5907 11.4936 16.5469 11.5351C17.1172 11.5741 17.1172 11.5741 17.6269 11.366C17.7763 11.2193 17.8549 11.0453 17.8632 10.837C17.8635 10.7977 17.8637 10.7585 17.8638 10.7192C17.8639 10.6978 17.864 10.6763 17.8642 10.6541C17.8646 10.5831 17.8648 10.5121 17.8649 10.4411C17.8651 10.3915 17.8652 10.342 17.8654 10.2925C17.8657 10.1886 17.8658 10.0848 17.8659 9.98088C17.8661 9.84824 17.8667 9.71561 17.8675 9.58297C17.868 9.48062 17.8682 9.37827 17.8682 9.27592C17.8683 9.22705 17.8685 9.17818 17.8689 9.12931C17.8738 8.66449 17.8738 8.66449 17.6414 8.27376C17.4233 8.08803 17.1576 8.08577 16.8851 8.0855C16.8412 8.0853 16.8412 8.0853 16.7964 8.08509C16.6982 8.08467 16.6001 8.08444 16.502 8.08421C16.4317 8.08395 16.3613 8.08368 16.291 8.08339C16.1396 8.0828 15.9882 8.0823 15.8367 8.08187C15.6178 8.08125 15.3989 8.08048 15.1799 8.07968C14.8247 8.07838 14.4695 8.07719 14.1143 8.07608C13.7692 8.07501 13.4242 8.07387 13.0792 8.07267C13.0579 8.07259 13.0366 8.07252 13.0147 8.07244C12.908 8.07207 12.8012 8.07169 12.6945 8.07132C11.8094 8.0682 10.9242 8.06528 10.039 8.06249C10.0392 8.08314 10.0394 8.10379 10.0395 8.12506C10.0396 8.15215 10.0397 8.17924 10.0399 8.20715C10.04 8.23401 10.0402 8.26086 10.0403 8.28853C10.0345 8.62888 9.87237 8.93249 9.6432 9.17461C9.31545 9.47699 8.96683 9.54296 8.53578 9.5446C8.50402 9.54476 8.47226 9.54491 8.43953 9.54507C8.37237 9.54533 8.30522 9.54551 8.23806 9.54562C8.13617 9.54588 8.03429 9.54673 7.9324 9.54759C7.86693 9.54777 7.80145 9.54792 7.73598 9.54802C7.70589 9.54836 7.6758 9.5487 7.6448 9.54904C7.23041 9.54787 6.87814 9.42979 6.57536 9.1432C6.27298 8.81545 6.20702 8.46683 6.20537 8.03578C6.20521 8.00402 6.20506 7.97226 6.2049 7.93953C6.20464 7.87237 6.20446 7.80522 6.20435 7.73806C6.20409 7.63617 6.20324 7.53429 6.20238 7.4324C6.2022 7.36693 6.20206 7.30145 6.20195 7.23598C6.20161 7.20589 6.20128 7.1758 6.20093 7.1448C6.2021 6.73041 6.32018 6.37814 6.60677 6.07536C6.93452 5.77298 7.28314 5.70702 7.71419 5.70537ZM7.18334 6.80638C7.1294 6.90778 7.10978 6.98188 7.10843 7.09506C7.10808 7.12063 7.10772 7.14619 7.10736 7.17253C7.10716 7.20013 7.10696 7.22773 7.10675 7.25617C7.10653 7.28466 7.10631 7.31316 7.10608 7.34252C7.1057 7.4029 7.10541 7.46329 7.1052 7.52367C7.10473 7.61561 7.10353 7.70753 7.10232 7.79946C7.10204 7.85819 7.10181 7.91692 7.10162 7.97565C7.10115 8.00297 7.10067 8.03029 7.10017 8.05844C7.10069 8.22701 7.12171 8.36109 7.22264 8.49999C7.34409 8.59664 7.44104 8.6397 7.59506 8.64154C7.62063 8.6419 7.64619 8.64225 7.67253 8.64261C7.71393 8.64291 7.71393 8.64291 7.75617 8.64322C7.78466 8.64344 7.81316 8.64366 7.84252 8.64389C7.9029 8.64427 7.96329 8.64456 8.02367 8.64478C8.11561 8.64524 8.20753 8.64644 8.29946 8.64765C8.35819 8.64793 8.41692 8.64816 8.47565 8.64835C8.50297 8.64883 8.53029 8.6493 8.55844 8.6498C8.72701 8.64928 8.86109 8.62826 8.99999 8.52733C9.09664 8.40589 9.1397 8.30893 9.14154 8.15491C9.1419 8.12935 9.14225 8.10378 9.14261 8.07744C9.14281 8.04984 9.14301 8.02224 9.14322 7.99381C9.14355 7.95106 9.14355 7.95106 9.14389 7.90745C9.14427 7.84707 9.14456 7.78669 9.14478 7.7263C9.14525 7.63436 9.14645 7.54244 9.14765 7.45051C9.14793 7.39178 9.14816 7.33305 9.14835 7.27432C9.14906 7.23334 9.14906 7.23334 9.1498 7.19153C9.14928 7.02296 9.12826 6.88888 9.02733 6.74999C8.90589 6.65333 8.80893 6.61027 8.65491 6.60843C8.62935 6.60808 8.60378 6.60772 8.57744 6.60736C8.54984 6.60716 8.52224 6.60696 8.49381 6.60675C8.46531 6.60653 8.43681 6.60631 8.40745 6.60608C8.34707 6.6057 8.28669 6.60541 8.2263 6.6052C8.13436 6.60473 8.04244 6.60353 7.95051 6.60232C7.89178 6.60204 7.83305 6.60181 7.77432 6.60162C7.747 6.60115 7.71968 6.60067 7.69153 6.60017C7.47969 6.60083 7.31916 6.63573 7.18334 6.80638Z" fill="#4F4F4F"/>
<path d="M12.0893 10.0804C12.121 10.0802 12.1528 10.0801 12.1855 10.0799C12.2527 10.0796 12.3198 10.0795 12.387 10.0794C12.4889 10.0791 12.5907 10.0782 12.6926 10.0774C12.7581 10.0772 12.8236 10.0771 12.8891 10.077C12.9342 10.0764 12.9342 10.0764 12.9802 10.0759C13.3946 10.0771 13.7469 10.1952 14.0497 10.4818C14.3521 10.8095 14.418 11.1581 14.4197 11.5892C14.4198 11.621 14.42 11.6527 14.4201 11.6854C14.4204 11.7526 14.4206 11.8198 14.4207 11.8869C14.421 11.9888 14.4218 12.0907 14.4227 12.1926C14.4228 12.258 14.423 12.3235 14.4231 12.389C14.4234 12.4191 14.4238 12.4492 14.4241 12.4802C14.4229 12.8946 14.3049 13.2468 14.0183 13.5496C13.6905 13.852 13.3419 13.918 12.9109 13.9196C12.8791 13.9198 12.8473 13.9199 12.8146 13.9201C12.7474 13.9203 12.6803 13.9205 12.6131 13.9206C12.5112 13.9209 12.4094 13.9217 12.3075 13.9226C12.242 13.9228 12.1765 13.9229 12.111 13.923C12.081 13.9234 12.0509 13.9237 12.0199 13.924C11.6055 13.9229 11.2532 13.8048 10.9504 13.5182C10.7038 13.2509 10.5841 12.9438 10.5855 12.5825C10.5855 12.5554 10.5856 12.5282 10.5857 12.5003C10.5858 12.4796 10.5859 12.4588 10.586 12.4375C10.2316 12.4392 9.87716 12.4413 9.52274 12.4439C9.35815 12.4452 9.19356 12.4462 9.02896 12.447C8.86992 12.4477 8.71089 12.4488 8.55186 12.4502C8.49138 12.4506 8.4309 12.4509 8.37043 12.4511C7.80407 12.4319 7.80407 12.4319 7.32173 12.6844C7.17132 12.8671 7.13662 13.0493 7.13627 13.2807C7.13614 13.3022 7.136 13.3237 7.13586 13.3459C7.13546 13.4169 7.13528 13.4879 7.13513 13.5589C7.13497 13.6084 7.13481 13.6579 7.13465 13.7075C7.13437 13.8113 7.13421 13.9152 7.13411 14.0191C7.13396 14.1517 7.13331 14.2844 7.13253 14.417C7.13201 14.5193 7.13187 14.6217 7.13183 14.7241C7.13175 14.7729 7.13153 14.8218 7.13117 14.8707C7.12626 15.3355 7.12626 15.3355 7.35868 15.7262C7.55039 15.8895 7.7799 15.9136 8.02359 15.9134C8.05278 15.9135 8.05278 15.9135 8.08255 15.9135C8.14742 15.9135 8.21228 15.9134 8.27714 15.9132C8.32377 15.9132 8.3704 15.9132 8.41703 15.9133C8.5434 15.9133 8.66976 15.9131 8.79613 15.9129C8.92827 15.9127 9.06041 15.9127 9.19256 15.9127C9.44269 15.9126 9.69282 15.9124 9.94296 15.9121C10.2278 15.9118 10.5126 15.9117 10.7974 15.9115C11.3832 15.9112 11.969 15.9108 12.5547 15.9101C12.5418 15.8975 12.5288 15.8848 12.5154 15.8717C12.4566 15.814 12.398 15.7561 12.3394 15.6982C12.319 15.6783 12.2986 15.6583 12.2776 15.6378C12.258 15.6184 12.2384 15.599 12.2183 15.579C12.2002 15.5613 12.1822 15.5435 12.1636 15.5252C12.0516 15.3983 12.0492 15.2812 12.0522 15.1167C12.0675 14.9961 12.11 14.9247 12.1993 14.8437C12.3157 14.7598 12.4223 14.751 12.5614 14.7455C12.7971 14.7962 12.9682 14.9991 13.1312 15.1632C13.157 15.189 13.1829 15.2148 13.2088 15.2405C13.2626 15.2942 13.3163 15.3481 13.3699 15.4021C13.4383 15.471 13.5071 15.5395 13.576 15.6079C13.6421 15.6737 13.7079 15.7397 13.7738 15.8058C13.7984 15.8302 13.823 15.8547 13.8484 15.8799C13.8712 15.9029 13.894 15.926 13.9175 15.9498C13.9376 15.9699 13.9576 15.99 13.9783 16.0108C14.0692 16.1195 14.1251 16.2289 14.127 16.3716C14.1279 16.3929 14.1287 16.4143 14.1296 16.4363C14.0788 16.672 13.8759 16.8431 13.7118 17.0061C13.686 17.032 13.6603 17.0578 13.6345 17.0837C13.5808 17.1375 13.5269 17.1912 13.473 17.2448C13.4041 17.3132 13.3356 17.382 13.2671 17.4509C13.2014 17.5171 13.1353 17.5829 13.0693 17.6487C13.0448 17.6733 13.0204 17.6979 12.9952 17.7233C12.9721 17.7461 12.949 17.7689 12.9252 17.7925C12.9051 17.8125 12.885 17.8326 12.8643 17.8532C12.7284 17.9668 12.6062 18.0052 12.4327 17.9997C12.2893 17.9761 12.1835 17.9045 12.0982 17.7885C12.0573 17.704 12.0507 17.6461 12.0506 17.5525C12.0501 17.5252 12.0495 17.4978 12.049 17.4697C12.0801 17.2791 12.2375 17.1501 12.3702 17.021C12.3879 17.0035 12.4057 16.9859 12.424 16.9679C12.4675 16.9251 12.511 16.8824 12.5547 16.8398C12.5293 16.8398 12.5039 16.8397 12.4777 16.8397C11.8575 16.8387 11.2374 16.8371 10.6173 16.8348C10.3174 16.8337 10.0175 16.8328 9.71762 16.8324C9.4561 16.8321 9.19459 16.8313 8.93307 16.8301C8.79472 16.8295 8.65637 16.8291 8.51801 16.8291C8.38752 16.8291 8.25705 16.8286 8.12656 16.8278C8.07892 16.8275 8.03129 16.8275 7.98365 16.8276C7.48187 16.829 7.06116 16.7273 6.68267 16.3733C6.26584 15.9318 6.19351 15.4209 6.19647 14.8369C6.19639 14.7846 6.19629 14.7323 6.19615 14.6801C6.19599 14.5712 6.19622 14.4624 6.19673 14.3536C6.19736 14.2153 6.197 14.0771 6.19634 13.9388C6.19594 13.8311 6.19607 13.7234 6.19636 13.6156C6.19643 13.5647 6.19634 13.5138 6.19609 13.4629C6.19392 12.9146 6.27841 12.445 6.67007 12.0332C6.69002 12.0132 6.70997 11.9932 6.73052 11.9726C6.74596 11.9569 6.7614 11.9411 6.77731 11.9249C7.06445 11.6553 7.45203 11.5491 7.83566 11.5532C7.86557 11.5532 7.89548 11.5531 7.9263 11.5531C8.02424 11.5532 8.12218 11.5538 8.22012 11.5545C8.28839 11.5546 8.35666 11.5547 8.42493 11.5548C8.60393 11.5551 8.78293 11.5559 8.96193 11.5569C9.14486 11.5577 9.32779 11.5581 9.51072 11.5585C9.86915 11.5594 10.2276 11.5607 10.586 11.5625C10.5858 11.5418 10.5857 11.5212 10.5855 11.4999C10.5854 11.4728 10.5853 11.4457 10.5852 11.4178C10.585 11.391 10.5849 11.3641 10.5847 11.3364C10.5906 10.9961 10.7527 10.6925 10.9818 10.4504C11.3096 10.148 11.6582 10.082 12.0893 10.0804ZM11.5584 11.1814C11.5045 11.2828 11.4849 11.3569 11.4835 11.4701C11.4831 11.4956 11.4828 11.5212 11.4824 11.5475C11.4822 11.5751 11.482 11.6027 11.4818 11.6312C11.4816 11.6597 11.4814 11.6882 11.4812 11.7175C11.4808 11.7779 11.4805 11.8383 11.4803 11.8987C11.4798 11.9906 11.4786 12.0825 11.4774 12.1745C11.4771 12.2332 11.4769 12.2919 11.4767 12.3506C11.4762 12.378 11.4757 12.4053 11.4752 12.4334C11.4758 12.602 11.4968 12.7361 11.5977 12.875C11.7192 12.9716 11.8161 13.0147 11.9701 13.0165C11.9957 13.0169 12.0213 13.0172 12.0476 13.0176C12.089 13.0179 12.089 13.0179 12.1312 13.0182C12.1597 13.0184 12.1882 13.0187 12.2176 13.0189C12.278 13.0193 12.3384 13.0196 12.3987 13.0198C12.4907 13.0202 12.5826 13.0214 12.6745 13.0227C12.7333 13.0229 12.792 13.0232 12.8507 13.0233C12.878 13.0238 12.9054 13.0243 12.9335 13.0248C13.1021 13.0243 13.2362 13.0033 13.3751 12.9023C13.4717 12.7809 13.5148 12.6839 13.5166 12.5299C13.517 12.5043 13.5173 12.4788 13.5177 12.4524C13.5179 12.4248 13.5181 12.3972 13.5183 12.3688C13.5186 12.3261 13.5186 12.3261 13.519 12.2824C13.5193 12.2221 13.5196 12.1617 13.5198 12.1013C13.5203 12.0094 13.5215 11.9174 13.5227 11.8255C13.523 11.7668 13.5232 11.7081 13.5234 11.6493C13.5241 11.6083 13.5241 11.6083 13.5249 11.5665C13.5243 11.398 13.5033 11.2639 13.4024 11.125C13.281 11.0283 13.184 10.9853 13.03 10.9834C13.0044 10.9831 12.9789 10.9827 12.9525 10.9824C12.9249 10.9822 12.8973 10.982 12.8689 10.9818C12.8404 10.9815 12.8119 10.9813 12.7825 10.9811C12.7221 10.9807 12.6618 10.9804 12.6014 10.9802C12.5094 10.9797 12.4175 10.9785 12.3256 10.9773C12.2669 10.977 12.2081 10.9768 12.1494 10.9766C12.1221 10.9761 12.0947 10.9757 12.0666 10.9752C11.8548 10.9758 11.6942 11.0107 11.5584 11.1814Z" fill="#4F4F4F"/>
<path d="M16.4642 14.4554C16.496 14.4552 16.5277 14.4551 16.5604 14.4549C16.6276 14.4546 16.6948 14.4545 16.7619 14.4544C16.8638 14.4541 16.9657 14.4532 17.0676 14.4524C17.133 14.4522 17.1985 14.4521 17.264 14.452C17.3091 14.4514 17.3091 14.4514 17.3552 14.4509C17.7696 14.4521 18.1218 14.5702 18.4246 14.8568C18.727 15.1845 18.793 15.5331 18.7946 15.9642C18.7948 15.996 18.7949 16.0277 18.7951 16.0604C18.7953 16.1276 18.7955 16.1948 18.7956 16.2619C18.7959 16.3638 18.7967 16.4657 18.7976 16.5676C18.7978 16.633 18.7979 16.6985 18.798 16.764C18.7984 16.7941 18.7987 16.8242 18.799 16.8552C18.7979 17.2696 18.6798 17.6218 18.3932 17.9246C18.0655 18.227 17.7168 18.293 17.2858 18.2946C17.254 18.2948 17.2223 18.2949 17.1895 18.2951C17.1224 18.2953 17.0552 18.2955 16.9881 18.2956C16.8862 18.2959 16.7843 18.2967 16.6824 18.2976C16.6169 18.2978 16.5515 18.2979 16.486 18.298C16.4559 18.2984 16.4258 18.2987 16.3948 18.299C15.9804 18.2979 15.6281 18.1798 15.3254 17.8932C15.023 17.5655 14.957 17.2168 14.9554 16.7858C14.9552 16.754 14.9551 16.7223 14.9549 16.6895C14.9546 16.6224 14.9545 16.5552 14.9544 16.4881C14.9541 16.3862 14.9532 16.2843 14.9524 16.1824C14.9522 16.1169 14.9521 16.0515 14.952 15.986C14.9516 15.9559 14.9513 15.9258 14.9509 15.8948C14.9521 15.4804 15.0702 15.1281 15.3568 14.8254C15.6845 14.523 16.0331 14.457 16.4642 14.4554ZM15.9333 15.5564C15.8794 15.6578 15.8598 15.7319 15.8584 15.8451C15.8581 15.8706 15.8577 15.8962 15.8574 15.9225C15.8572 15.9501 15.857 15.9777 15.8568 16.0062C15.8565 16.0347 15.8563 16.0632 15.8561 16.0925C15.8557 16.1529 15.8554 16.2133 15.8552 16.2737C15.8547 16.3656 15.8535 16.4575 15.8523 16.5495C15.852 16.6082 15.8518 16.6669 15.8516 16.7256C15.8511 16.753 15.8507 16.7803 15.8502 16.8084C15.8507 16.977 15.8717 17.1111 15.9726 17.25C16.0941 17.3466 16.191 17.3897 16.3451 17.3915C16.3706 17.3919 16.3962 17.3922 16.4225 17.3926C16.4639 17.3929 16.4639 17.3929 16.5062 17.3932C16.5347 17.3934 16.5632 17.3937 16.5925 17.3939C16.6529 17.3943 16.7133 17.3946 16.7737 17.3948C16.8656 17.3952 16.9575 17.3964 17.0495 17.3977C17.1082 17.3979 17.1669 17.3982 17.2256 17.3983C17.253 17.3988 17.2803 17.3993 17.3084 17.3998C17.477 17.3993 17.6111 17.3783 17.75 17.2773C17.8466 17.1559 17.8897 17.0589 17.8915 16.9049C17.8919 16.8793 17.8922 16.8538 17.8926 16.8274C17.8928 16.7998 17.893 16.7722 17.8932 16.7438C17.8936 16.7011 17.8936 16.7011 17.8939 16.6574C17.8943 16.5971 17.8946 16.5367 17.8948 16.4763C17.8952 16.3844 17.8964 16.2924 17.8977 16.2005C17.8979 16.1418 17.8982 16.0831 17.8983 16.0243C17.8991 15.9833 17.8991 15.9833 17.8998 15.9415C17.8993 15.773 17.8783 15.6389 17.7773 15.5C17.6559 15.4033 17.5589 15.3603 17.4049 15.3584C17.3793 15.3581 17.3538 15.3577 17.3274 15.3574C17.2998 15.3572 17.2722 15.357 17.2438 15.3568C17.2153 15.3565 17.1868 15.3563 17.1574 15.3561C17.0971 15.3557 17.0367 15.3554 16.9763 15.3552C16.8844 15.3547 16.7924 15.3535 16.7005 15.3523C16.6418 15.352 16.5831 15.3518 16.5243 15.3516C16.497 15.3511 16.4697 15.3507 16.4415 15.3502C16.2297 15.3508 16.0692 15.3857 15.9333 15.5564Z" fill="#4F4F4F"/>
</svg>
