<svg width="25" height="24" viewBox="0 0 25 24" fill="none" xmlns="http://www.w3.org/2000/svg">
<g clip-path="url(#clip0_7789_45247)">
<path d="M12.8925 5.94045L17.6333 10.2501H15.899L12.4999 7.1602L8.99992 10.3423V16.0834H11.9166V17.2501H8.41659C8.26188 17.2501 8.1135 17.1887 8.00411 17.0793C7.89471 16.9699 7.83325 16.8215 7.83325 16.6668V11.4168H6.08325L12.1073 5.94045C12.2147 5.84273 12.3547 5.78857 12.4999 5.78857C12.6451 5.78857 12.7851 5.84273 12.8925 5.94045ZM13.6666 11.4168H18.9166V15.5001H13.6666V11.4168ZM14.8333 12.5834V14.3334H17.7499V12.5834H14.8333ZM19.4999 17.2501H13.0833V16.0834H19.4999V17.2501Z" fill="#4F4F4F"/>
</g>
<defs>
<clipPath id="clip0_7789_45247">
<rect width="14" height="14" fill="white" transform="translate(5.5 5)"/>
</clipPath>
</defs>
</svg>
