<svg width="44" height="45" viewBox="0 0 44 45" fill="none" xmlns="http://www.w3.org/2000/svg">
<rect x="0.5" y="1.31201" width="43" height="43" rx="9.1" stroke="url(#paint0_linear_5092_12811)"/>
<path d="M15.25 12.812C14.388 12.812 13.5614 13.1544 12.9519 13.7639C12.3424 14.3734 12 15.2001 12 16.062V27.562C12 28.424 12.3424 29.2506 12.9519 29.8601C13.5614 30.4696 14.388 30.812 15.25 30.812H19.075C19.0264 30.5649 19.0013 30.3138 19 30.062V29.312H15.25C14.7859 29.312 14.3408 29.1276 14.0126 28.7994C13.6844 28.4713 13.5 28.0261 13.5 27.562V16.062C13.5 15.096 14.284 14.312 15.25 14.312H25.75C26.716 14.312 27.5 15.096 27.5 16.062V19.812H29V16.062C29 15.2001 28.6576 14.3734 28.0481 13.7639C27.4386 13.1544 26.612 12.812 25.75 12.812H15.25ZM22.75 19.812H16.75C16.5511 19.812 16.3603 19.891 16.2197 20.0317C16.079 20.1723 16 20.3631 16 20.562C16 20.7609 16.079 20.9517 16.2197 21.0923C16.3603 21.233 16.5511 21.312 16.75 21.312H19.75C20.0988 20.8457 20.5516 20.4673 21.0724 20.2069C21.5933 19.9464 22.1677 19.8112 22.75 19.812ZM16.75 16.812C16.5511 16.812 16.3603 16.891 16.2197 17.0317C16.079 17.1723 16 17.3631 16 17.562C16 17.7609 16.079 17.9517 16.2197 18.0923C16.3603 18.233 16.5511 18.312 16.75 18.312H24.25C24.4489 18.312 24.6397 18.233 24.7803 18.0923C24.921 17.9517 25 17.7609 25 17.562C25 17.3631 24.921 17.1723 24.7803 17.0317C24.6397 16.891 24.4489 16.812 24.25 16.812H16.75ZM20 23.562C20 22.8327 20.2897 22.1332 20.8055 21.6175C21.3212 21.1017 22.0207 20.812 22.75 20.812H29.25C29.9793 20.812 30.6788 21.1017 31.1945 21.6175C31.7103 22.1332 32 22.8327 32 23.562V30.062C32 30.7914 31.7103 31.4908 31.1945 32.0066C30.6788 32.5223 29.9793 32.812 29.25 32.812H22.75C22.0207 32.812 21.3212 32.5223 20.8055 32.0066C20.2897 31.4908 20 30.7914 20 30.062V23.562ZM21.5 25.812V30.062C21.5 30.752 22.06 31.312 22.75 31.312H29.25C29.94 31.312 30.5 30.752 30.5 30.062V25.812H21.5ZM30.5 24.312V23.562C30.5 22.872 29.94 22.312 29.25 22.312H22.75C22.06 22.312 21.5 22.872 21.5 23.562V24.312H30.5Z" fill="url(#paint1_linear_5092_12811)"/>
<defs>
<linearGradient id="paint0_linear_5092_12811" x1="0" y1="22.812" x2="44" y2="22.812" gradientUnits="userSpaceOnUse">
<stop offset="0.268512" stop-color="#6E45E2"/>
<stop offset="1" stop-color="#3477DB"/>
</linearGradient>
<linearGradient id="paint1_linear_5092_12811" x1="12" y1="22.812" x2="32" y2="22.812" gradientUnits="userSpaceOnUse">
<stop offset="0.268512" stop-color="#6E45E2"/>
<stop offset="1" stop-color="#3477DB"/>
</linearGradient>
</defs>
</svg>
