<svg width="24" height="24" viewBox="0 0 24 24" fill="none" xmlns="http://www.w3.org/2000/svg">
<path d="M9.56098 7.64101C10.0597 7.14231 10.0597 6.33376 9.56098 5.83506C9.06228 5.33636 8.25373 5.33636 7.75503 5.83506C7.25633 6.33376 7.25633 7.14231 7.75503 7.64101C8.25373 8.13971 9.06228 8.13971 9.56098 7.64101Z" fill="#4F4F4F"/>
<path d="M4.66797 10.5V5.74805C4.66797 4.9524 4.98404 4.18934 5.54665 3.62673C6.10926 3.06412 6.87232 2.74805 7.66797 2.74805H12.868C13.1963 2.74799 13.5214 2.8126 13.8248 2.9382C14.1281 3.06379 14.4038 3.24791 14.636 3.48005L21.081 9.92605C21.8309 10.6762 22.2521 11.6934 22.2521 12.754C22.2521 13.8147 21.8309 14.8319 21.081 15.582L17.502 19.162C16.9668 19.6975 16.2907 20.07 15.5521 20.2364C14.8136 20.4028 14.0431 20.3562 13.33 20.102" stroke="#4F4F4F" stroke-width="1.5" stroke-linecap="round" stroke-linejoin="round"/>
<path fill-rule="evenodd" clip-rule="evenodd" d="M6.5 23C7.95869 23 9.35764 22.4205 10.3891 21.3891C11.4205 20.3576 12 18.9587 12 17.5C12 16.0413 11.4205 14.6424 10.3891 13.6109C9.35764 12.5795 7.95869 12 6.5 12C5.04131 12 3.64236 12.5795 2.61091 13.6109C1.57946 14.6424 1 16.0413 1 17.5C1 18.9587 1.57946 20.3576 2.61091 21.3891C3.64236 22.4205 5.04131 23 6.5 23ZM6.5 14.007C6.63261 14.007 6.75979 14.0597 6.85355 14.1534C6.94732 14.2472 7 14.3744 7 14.507V17H9.493C9.62561 17 9.75279 17.0527 9.84655 17.1464C9.94032 17.2402 9.993 17.3674 9.993 17.5C9.993 17.6326 9.94032 17.7598 9.84655 17.8536C9.75279 17.9473 9.62561 18 9.493 18H7V20.493C7 20.6256 6.94732 20.7528 6.85355 20.8466C6.75979 20.9403 6.63261 20.993 6.5 20.993C6.36739 20.993 6.24021 20.9403 6.14645 20.8466C6.05268 20.7528 6 20.6256 6 20.493V18H3.507C3.37439 18 3.24721 17.9473 3.15345 17.8536C3.05968 17.7598 3.007 17.6326 3.007 17.5C3.007 17.3674 3.05968 17.2402 3.15345 17.1464C3.24721 17.0527 3.37439 17 3.507 17H6V14.507C6 14.3744 6.05268 14.2472 6.14645 14.1534C6.24021 14.0597 6.36739 14.007 6.5 14.007Z" fill="#4F4F4F"/>
</svg>
