<svg width="17" height="16" viewBox="0 0 17 16" fill="none" xmlns="http://www.w3.org/2000/svg">
<rect x="0.5" width="16" height="16" rx="8" fill="url(#paint0_linear_7952_67724)"/>
<path d="M12.6423 5.42857V7.71429C12.6423 7.82795 12.5971 7.93696 12.5168 8.01733C12.4364 8.0977 12.3274 8.14286 12.2137 8.14286C12.1 8.14286 11.991 8.0977 11.9107 8.01733C11.8303 7.93696 11.7851 7.82795 11.7851 7.71429V6.46429L9.08835 9.16143C9.04854 9.20138 9.00123 9.23308 8.94913 9.25472C8.89704 9.27635 8.84119 9.28748 8.78478 9.28748C8.72838 9.28748 8.67253 9.27635 8.62043 9.25472C8.56834 9.23308 8.52103 9.20138 8.48121 9.16143L7.35657 8.03571L5.08836 10.3032C5.00784 10.3837 4.89864 10.429 4.78478 10.429C4.67092 10.429 4.56172 10.3837 4.48121 10.3032C4.4007 10.2227 4.35547 10.1135 4.35547 9.99964C4.35547 9.88578 4.4007 9.77658 4.48121 9.69607L7.05264 7.12464C7.09246 7.08469 7.13977 7.05299 7.19186 7.03136C7.24395 7.00973 7.29981 6.99859 7.35621 6.99859C7.41262 6.99859 7.46847 7.00973 7.52056 7.03136C7.57266 7.05299 7.61997 7.08469 7.65978 7.12464L8.78514 8.25L11.178 5.85714H9.928C9.81433 5.85714 9.70532 5.81199 9.62495 5.73162C9.54458 5.65124 9.49943 5.54224 9.49943 5.42857C9.49943 5.31491 9.54458 5.2059 9.62495 5.12553C9.70532 5.04515 9.81433 5 9.928 5H12.2137C12.3274 5 12.4364 5.04515 12.5168 5.12553C12.5971 5.2059 12.6423 5.31491 12.6423 5.42857Z" fill="white"/>
<defs>
<linearGradient id="paint0_linear_7952_67724" x1="1.5718" y1="12" x2="15.4282" y2="4" gradientUnits="userSpaceOnUse">
<stop stop-color="#0538FF"/>
<stop offset="1" stop-color="#6B57F5"/>
</linearGradient>
</defs>
</svg>
