<svg width="21" height="21" viewBox="0 0 21 21" fill="none" xmlns="http://www.w3.org/2000/svg">
<g id="ph:trend-up">
<path id="Vector" d="M19.25 4.53906V9.53906C19.25 9.70482 19.1842 9.86379 19.067 9.981C18.9497 10.0982 18.7908 10.1641 18.625 10.1641C18.4593 10.1641 18.3003 10.0982 18.1831 9.981C18.0659 9.86379 18 9.70482 18 9.53906V6.04766L11.5672 12.4813C11.5092 12.5394 11.4402 12.5855 11.3643 12.6169C11.2885 12.6484 11.2071 12.6646 11.125 12.6646C11.0429 12.6646 10.9615 12.6484 10.8857 12.6169C10.8098 12.5855 10.7409 12.5394 10.6828 12.4813L8.00001 9.79766L2.8172 14.9813C2.69992 15.0985 2.54086 15.1644 2.37501 15.1644C2.20916 15.1644 2.0501 15.0985 1.93282 14.9813C1.81555 14.864 1.74966 14.7049 1.74966 14.5391C1.74966 14.3732 1.81555 14.2142 1.93282 14.0969L7.55782 8.47187C7.61587 8.41376 7.6848 8.36767 7.76067 8.33621C7.83655 8.30476 7.91788 8.28857 8.00001 8.28857C8.08215 8.28857 8.16348 8.30476 8.23935 8.33621C8.31522 8.36767 8.38415 8.41376 8.4422 8.47187L11.125 11.1555L17.1164 5.16406H13.625C13.4593 5.16406 13.3003 5.09821 13.1831 4.981C13.0659 4.86379 13 4.70482 13 4.53906C13 4.3733 13.0659 4.21433 13.1831 4.09712C13.3003 3.97991 13.4593 3.91406 13.625 3.91406H18.625C18.7908 3.91406 18.9497 3.97991 19.067 4.09712C19.1842 4.21433 19.25 4.3733 19.25 4.53906Z" fill="white"/>
</g>
</svg>
