<svg width="24" height="24" viewBox="0 0 24 24" fill="none" xmlns="http://www.w3.org/2000/svg">
<path d="M8.22998 22L13.13 17.1L16.63 20.6L22.23 15" stroke="#4F4F4F" stroke-width="1.5"/>
<path d="M16.73 15.0001H22.23V20.5001M14.447 13.2541C15.4481 11.9113 15.9487 10.2611 15.8625 8.58844C15.7763 6.9158 15.1086 5.3258 13.9748 4.09307C12.841 2.86034 11.3123 2.06231 9.65267 1.83681C7.99307 1.61132 6.30682 1.97252 4.8852 2.85804C3.46358 3.74356 2.39586 5.09777 1.86649 6.68676C1.33711 8.27576 1.37932 9.99974 1.98582 11.5609C2.59231 13.1221 3.72501 14.4225 5.18826 15.2373C6.65151 16.0522 8.35341 16.3305 10 16.0241M8.687 5.95706V3.95706M8.687 13.9571V11.9571" stroke="#4F4F4F" stroke-width="1.5"/>
<path d="M10.937 7.45703V6.95703C10.937 6.69181 10.8317 6.43746 10.6441 6.24992C10.4566 6.06239 10.2022 5.95703 9.93701 5.95703H7.43701C7.1718 5.95703 6.91744 6.06239 6.72991 6.24992C6.54237 6.43746 6.43701 6.69181 6.43701 6.95703V7.40403C6.43682 7.63169 6.51432 7.85259 6.65669 8.03024C6.79906 8.20788 6.99778 8.33163 7.22001 8.38103L10.153 9.03303C10.3753 9.0822 10.5741 9.20571 10.7166 9.38317C10.8592 9.56063 10.9369 9.78141 10.937 10.009V10.956C10.937 11.2212 10.8317 11.4756 10.6441 11.6631C10.4566 11.8507 10.2022 11.956 9.93701 11.956H7.43701C7.1718 11.956 6.91744 11.8507 6.72991 11.6631C6.54237 11.4756 6.43701 11.2212 6.43701 10.956V10.456" stroke="#4F4F4F" stroke-width="1.5"/>
</svg>
