<svg width="28" height="21" viewBox="0 0 28 21" fill="none" xmlns="http://www.w3.org/2000/svg">
<g id="Group 14138">
<path id="Star 2" d="M8.84764 3.30058C9.28624 2.36088 10.6225 2.36088 11.0611 3.30058L12.8271 7.08428C12.9484 7.34423 13.1574 7.55317 13.4173 7.67448L17.2011 9.44022C18.1409 9.87878 18.1409 11.2152 17.2011 11.6537L13.4173 13.4195C13.1574 13.5408 12.9484 13.7497 12.8271 14.0097L11.0611 17.7934C10.6225 18.7331 9.28624 18.7331 8.84764 17.7934L7.08161 14.0097C6.96028 13.7497 6.75133 13.5408 6.49137 13.4195L2.70759 11.6537C1.76779 11.2152 1.76778 9.87879 2.70759 9.44022L6.49137 7.67448C6.75133 7.55317 6.96028 7.34423 7.08161 7.08428L8.84764 3.30058Z" fill="white"/>
<path id="Star 3" d="M18.8155 13.3236C18.9339 13.0698 19.2947 13.0698 19.4131 13.3236L19.9381 14.4482C19.9708 14.5184 20.0272 14.5748 20.0974 14.6076L21.2221 15.1324C21.4758 15.2508 21.4758 15.6116 21.2221 15.73L20.0974 16.2549C20.0272 16.2876 19.9708 16.344 19.9381 16.4142L19.4131 17.5389C19.2947 17.7926 18.9339 17.7926 18.8155 17.5389L18.2906 16.4142C18.2578 16.344 18.2014 16.2876 18.1312 16.2549L17.0066 15.73C16.7528 15.6116 16.7528 15.2508 17.0066 15.1324L18.1312 14.6076C18.2014 14.5748 18.2578 14.5184 18.2906 14.4482L18.8155 13.3236Z" fill="white"/>
<path id="Star 4" d="M21.4009 1.4798C21.6443 0.958265 22.3859 0.958265 22.6293 1.4798L23.7084 3.79156C23.7757 3.93583 23.8917 4.0518 24.0359 4.11912L26.3478 5.19796C26.8694 5.44136 26.8694 6.18305 26.3478 6.42645L24.0359 7.50529C23.8917 7.57261 23.7757 7.68858 23.7084 7.83285L22.6293 10.1446C22.3859 10.6661 21.6443 10.6661 21.4009 10.1446L20.3219 7.83285C20.2546 7.68858 20.1386 7.57261 19.9943 7.50529L17.6825 6.42645C17.1609 6.18305 17.1609 5.44136 17.6825 5.19796L19.9943 4.11912C20.1386 4.0518 20.2546 3.93583 20.3219 3.79156L21.4009 1.4798Z" fill="white"/>
</g>
</svg>
