<svg width="162" height="32" viewBox="0 0 162 32" fill="none" xmlns="http://www.w3.org/2000/svg">
<g clip-path="url(#clip0_1699_32029)">
<path d="M157.265 24.1675L157.265 24.17C157.362 25.2775 158.248 26.6867 159.782 26.6867H160.68C161.028 26.6867 161.314 26.4012 161.314 26.053V6.30806H161.31C161.301 6.14674 161.231 5.99483 161.114 5.88343C160.997 5.77204 160.842 5.70958 160.68 5.70885H157.898C157.737 5.70965 157.581 5.77212 157.464 5.8835C157.347 5.99487 157.277 6.14674 157.268 6.30806H157.265V7.91246C155.561 5.81144 152.873 4.93928 150.178 4.93928C144.052 4.93928 139.087 9.90869 139.087 16.0395C139.087 22.1703 144.052 27.1401 150.178 27.1401V27.1407C152.873 27.1407 155.81 26.0944 157.265 24.1678M150.189 23.2549C146.293 23.2549 143.135 20.0248 143.135 16.0392C143.135 12.0549 146.293 8.82414 150.189 8.82414C154.085 8.82414 157.243 12.0549 157.243 16.0395C157.243 19.9849 154.148 23.1906 150.306 23.2543L150.189 23.2549ZM135.57 24.8496L135.568 14.6321C135.568 8.87245 131.938 4.98696 126.148 4.98696C123.384 4.98696 121.119 6.58634 120.319 7.96014L120.305 7.88171L120.291 7.80265C120.288 7.78957 120.285 7.77649 120.282 7.76344L120.265 7.68469L120.246 7.60626L120.226 7.52783L120.203 7.45002C120.188 7.39816 120.171 7.3467 120.153 7.29567L120.125 7.21944C119.817 6.4232 119.166 5.75685 117.808 5.75685H116.908C116.559 5.75685 116.275 6.04234 116.275 6.39057V26.1377H116.278C116.287 26.299 116.357 26.4509 116.474 26.5623C116.591 26.6737 116.746 26.7361 116.908 26.7369H119.69C119.733 26.7369 119.774 26.7316 119.815 26.7237L119.833 26.719L119.868 26.7077L119.91 26.6958C119.917 26.6937 119.924 26.6913 119.93 26.6886L119.954 26.6773L120.034 26.6325C120.053 26.6204 120.07 26.6072 120.087 26.5929L120.112 26.571C120.116 26.5669 120.121 26.5644 120.125 26.5606C120.242 26.4498 120.311 26.2984 120.319 26.1377H120.323V14.4734C120.323 11.3801 122.829 8.87245 125.92 8.87245C129.011 8.87245 131.517 11.3804 131.517 14.4737L131.52 24.2234L131.52 24.2199L131.522 24.2466V26.1377H131.525C131.534 26.299 131.604 26.4509 131.721 26.5623C131.838 26.6737 131.993 26.7361 132.155 26.7369H134.937C134.98 26.7369 135.022 26.7316 135.062 26.7237C135.078 26.7206 135.093 26.7143 135.109 26.7096L135.155 26.6965L135.177 26.6886C135.2 26.6792 135.221 26.666 135.242 26.6541C135.256 26.6466 135.269 26.6409 135.282 26.6325C135.308 26.6158 135.331 26.5954 135.354 26.575L135.373 26.56C135.39 26.543 135.406 26.5255 135.422 26.5066L135.449 26.4721C135.511 26.3861 135.55 26.2857 135.563 26.1804L135.567 26.1377H135.57V24.8499L135.57 24.8496ZM106.596 24.1678V24.1703C106.693 25.2778 107.579 26.687 109.113 26.687H110.011C110.36 26.687 110.644 26.4016 110.644 26.0533V6.30806H110.641C110.632 6.14674 110.562 5.99483 110.445 5.88343C110.328 5.77204 110.173 5.70958 110.011 5.70885H107.229C107.068 5.70957 106.912 5.77201 106.795 5.88339C106.678 5.99477 106.608 6.14669 106.599 6.30806H106.596V7.91246C104.891 5.81144 102.204 4.93928 99.5091 4.93928C93.3836 4.93928 88.4179 9.90869 88.4179 16.0395C88.4179 22.1703 93.3836 27.1401 99.5091 27.1401V27.1407C102.204 27.1407 105.141 26.0944 106.596 24.1678ZM99.5198 23.2549C95.6242 23.2549 92.466 20.0248 92.466 16.0392C92.466 12.0549 95.6242 8.82414 99.5198 8.82414C103.416 8.82414 106.574 12.0549 106.574 16.0395C106.574 19.9849 103.479 23.1906 99.6365 23.2543L99.5198 23.2549ZM71.9656 21.3424C73.8228 22.6299 75.8501 23.2552 77.798 23.2552C78.1808 23.2552 78.566 23.2144 78.9369 23.1347L79.0476 23.1096C79.1025 23.0965 79.1574 23.0826 79.2117 23.0676L79.3196 23.0368C79.3557 23.0262 79.3911 23.0152 79.4266 23.0039L79.532 22.9685C79.7767 22.8834 80.0089 22.7799 80.2238 22.6585L80.3147 22.6055C81.063 22.155 81.5728 21.4805 81.5728 20.6165C81.5728 19.4528 80.4421 18.8003 78.9877 18.3162L78.8183 18.2613C78.79 18.2519 78.7615 18.2431 78.7326 18.234L78.5598 18.181L78.3844 18.1292L78.2074 18.0784L77.9386 18.0037L77.6672 17.9313L77.3027 17.8365L76.3913 17.6044L76.0327 17.5109L75.7679 17.4397L75.5938 17.3914L75.4225 17.3424L75.3378 17.3176L75.17 17.2674C75.1424 17.2591 75.1149 17.2508 75.0874 17.2423L74.9243 17.1903C74.871 17.1727 74.8176 17.1551 74.7649 17.1372C72.1378 16.2441 69.8749 14.3968 69.8749 11.4061C69.8749 6.82916 73.9499 4.93896 77.7528 4.93896C80.1626 4.93896 82.6492 5.73426 84.2611 6.8734C84.5657 7.10461 84.6012 7.35434 84.5714 7.53285L84.5641 7.56987L84.555 7.60438L84.545 7.63669L84.5343 7.66618L84.5234 7.69253L84.5077 7.7261L84.4939 7.75183L84.4782 7.77755L82.9394 9.97677C82.93 9.99057 82.9196 10.0044 82.9092 10.0176L82.8769 10.0577C82.7031 10.2597 82.4333 10.3997 82.0656 10.1917L82.0123 10.1597L81.7441 9.99026L81.6478 9.93159L81.542 9.86885L81.4664 9.82493L81.3864 9.78006C81.3725 9.77228 81.3586 9.76455 81.3447 9.75685L81.2584 9.7101L81.1681 9.66304L81.0739 9.61473L80.9751 9.56642L80.8725 9.51779L80.7659 9.46916C80.7292 9.45277 80.6924 9.43666 80.6554 9.42085L80.5409 9.37285L80.4227 9.32579C79.5718 8.99359 78.6663 8.82335 77.7528 8.82383C75.4325 8.82383 74.0349 9.89677 74.0349 11.2257C74.0349 11.9808 74.4424 12.4907 75.0978 12.8759L75.1866 12.9267C75.3218 13.0017 75.4667 13.0717 75.6201 13.1382L75.7237 13.1818L75.7764 13.2031L75.883 13.2452L75.9376 13.2659L76.0481 13.3067L76.1604 13.3465L76.2749 13.3854L76.3329 13.4045L76.4506 13.4422L76.63 13.498L76.8136 13.5523L77.0005 13.6056L77.127 13.6408L77.255 13.6756L77.5147 13.7446L77.979 13.8645L78.4255 13.9856L78.7612 14.0784L78.9855 14.1418L79.0975 14.1738L79.3212 14.2387L79.4329 14.2717L79.6559 14.3388L79.878 14.4078C82.9459 15.3703 85.7325 16.8405 85.7325 20.6165C85.7325 24.6491 81.9634 27.141 77.7983 27.141C74.6413 27.141 71.954 26.2406 69.6998 24.5851C69.4162 24.3008 69.4238 24.0292 69.4739 23.8585L69.4849 23.8246L69.4965 23.7939L69.5085 23.7663L69.5204 23.7421L69.5361 23.7126L69.5583 23.6781L71.0893 21.4899C71.3519 21.1454 71.6719 21.1921 71.8689 21.2866L71.9044 21.3048L71.9367 21.3236L71.9656 21.3424ZM61.2703 24.1678V24.1703C61.3676 25.2778 62.2536 26.687 63.788 26.687H64.6862C65.0344 26.687 65.3196 26.4016 65.3196 26.0533V6.30806H65.3155C65.3069 6.14674 65.2369 5.99483 65.1199 5.88343C65.0029 5.77204 64.8477 5.70958 64.6862 5.70885H61.9041C61.7425 5.70957 61.5872 5.77201 61.4701 5.88339C61.353 5.99477 61.2829 6.14669 61.2741 6.30806H61.271V7.91246C59.5665 5.81144 56.8788 4.93928 54.1839 4.93928C48.0587 4.93928 43.0928 9.90869 43.0928 16.0395C43.0928 22.1703 48.0587 27.1401 54.1842 27.1401V27.1407C56.8791 27.1407 59.8156 26.0944 61.2707 24.1678M54.1949 23.2549C50.299 23.2549 47.1408 20.0248 47.1408 16.0392C47.1408 12.0549 50.299 8.82414 54.1949 8.82414C58.0907 8.82414 61.2487 12.0549 61.2487 16.0395C61.2487 19.9849 58.1535 23.1906 54.3116 23.2543L54.1949 23.2549Z" fill="#0D0E10"/>
<path d="M27.5428 16.7944C23.4204 16.7944 20.0786 20.1362 20.0786 24.2585C20.0786 28.3809 23.4204 31.7227 27.5428 31.7227C31.6651 31.7227 35.0066 28.3809 35.0066 24.2585C35.0066 20.1362 31.6651 16.7944 27.5428 16.7944ZM8.15044 16.795C4.02808 16.795 0.686279 20.1362 0.686279 24.2585C0.686279 28.3809 4.02808 31.7227 8.15044 31.7227C12.2728 31.7227 15.6149 28.3809 15.6149 24.2585C15.6149 20.1362 12.2728 16.795 8.15044 16.795ZM25.3106 7.46353C25.3106 11.5862 21.9688 14.9283 17.8464 14.9283C13.7241 14.9283 10.3826 11.5862 10.3826 7.46353C10.3826 3.34212 13.7241 0 17.8464 0C21.9688 0 25.3106 3.3418 25.3106 7.46353Z" fill="#F06A6A"/>
</g>
<defs>
<clipPath id="clip0_1699_32029">
<rect width="160.627" height="32" fill="white" transform="translate(0.686279)"/>
</clipPath>
</defs>
</svg>
