<svg width="62" height="17" viewBox="0 0 62 17" fill="none" xmlns="http://www.w3.org/2000/svg">
<g clip-path="url(#clip0_104_3285)">
<path d="M12.8294 8.73221C10.9076 8.73221 9.34971 10.2901 9.34971 12.212C9.34971 14.1339 10.9076 15.6918 12.8294 15.6918C14.7512 15.6918 16.3091 14.1338 16.3091 12.212C16.3091 10.2901 14.7512 8.73221 12.8294 8.73221ZM3.78877 8.73252C1.86702 8.73252 0.309082 10.2901 0.309082 12.212C0.309082 14.1339 1.86702 15.6918 3.78877 15.6918C5.71064 15.6918 7.26864 14.1338 7.26864 12.212C7.26864 10.2901 5.71064 8.73252 3.78877 8.73252ZM11.7888 4.38252C11.7888 6.30439 10.2308 7.86252 8.30914 7.86252C6.38727 7.86252 4.82939 6.30439 4.82939 4.38252C4.82939 2.46083 6.38721 0.902832 8.30908 0.902832C10.2308 0.902832 11.7886 2.46096 11.7886 4.38246" fill="#F06A6A"/>
</g>
<g clip-path="url(#clip1_104_3285)">
<path d="M37.7466 0.309082H24.8716C24.0086 0.309082 23.3091 1.00864 23.3091 1.87158V14.7466C23.3091 15.6095 24.0086 16.3091 24.8716 16.3091H37.7466C38.6095 16.3091 39.3091 15.6095 39.3091 14.7466V1.87158C39.3091 1.00864 38.6095 0.309082 37.7466 0.309082Z" fill="url(#paint0_linear_104_3285)"/>
<path d="M36.4791 2.38916H33.0991C32.6849 2.38916 32.3491 2.72495 32.3491 3.13916V8.63916C32.3491 9.05337 32.6849 9.38916 33.0991 9.38916H36.4791C36.8933 9.38916 37.2291 9.05337 37.2291 8.63916V3.13916C37.2291 2.72495 36.8933 2.38916 36.4791 2.38916Z" fill="white"/>
<path d="M29.5192 2.38916H26.1392C25.7249 2.38916 25.3892 2.72495 25.3892 3.13916V12.6392C25.3892 13.0534 25.7249 13.3892 26.1392 13.3892H29.5192C29.9334 13.3892 30.2692 13.0534 30.2692 12.6392V3.13916C30.2692 2.72495 29.9334 2.38916 29.5192 2.38916Z" fill="white"/>
</g>
<path d="M48.9645 3.11405C49.4594 3.51762 49.6471 3.48902 50.5816 3.42751L59.3907 2.89777C59.5784 2.89777 59.422 2.71009 59.3594 2.67875L57.8959 1.62085C57.7085 1.46096 57.4896 1.34218 57.2534 1.27219C57.0172 1.2022 56.7689 1.18256 56.5246 1.21454L47.9979 1.83988C47.6845 1.86848 47.623 2.02481 47.748 2.1498L48.9645 3.11405ZM49.4931 5.16794V14.4363C49.4931 14.9339 49.7407 15.1212 50.3006 15.0898L59.9827 14.5299C60.5426 14.4986 60.6096 14.1573 60.6096 13.7514V4.54652C60.6096 4.14021 60.4529 3.92393 60.1097 3.95567L49.9911 4.54652C49.6161 4.57787 49.4935 4.76241 49.4935 5.16637L49.4931 5.16794ZM59.0502 5.66241C59.1129 5.94373 59.0502 6.22231 58.7689 6.2564L58.303 6.35043V13.1919C57.9728 13.3915 57.5996 13.5095 57.2146 13.5359C56.7146 13.5359 56.5877 13.3792 56.217 12.9133L53.1648 8.12222V12.7574L54.1306 12.9764C54.1306 12.9764 54.1306 13.5363 53.3521 13.5363L51.2038 13.6613C51.1706 13.566 51.1747 13.4617 51.2154 13.3694C51.256 13.2771 51.3301 13.2036 51.4228 13.1637L51.9827 13.007V6.88017L51.2041 6.81748C51.1845 6.73505 51.1831 6.64933 51.2001 6.56631C51.217 6.48328 51.2518 6.40496 51.3022 6.33679C51.3525 6.26863 51.4171 6.21227 51.4915 6.17165C51.5658 6.13104 51.6482 6.10714 51.7327 6.10163L54.037 5.94491L57.2138 10.7987V6.50481L56.4039 6.41077C56.3899 6.33655 56.3921 6.26018 56.4104 6.1869C56.4288 6.11363 56.4627 6.04519 56.51 5.98629C56.5573 5.92739 56.6168 5.87943 56.6843 5.8457C56.7519 5.81198 56.826 5.79329 56.9015 5.79092L59.0502 5.66241ZM47.2821 0.999436L56.1539 0.345891C57.2424 0.251856 57.5253 0.314546 58.2082 0.811758L61.0414 2.80374C61.5073 3.14462 61.664 3.23865 61.664 3.61127V14.5303C61.664 15.2152 61.414 15.6188 60.5442 15.6811L50.2375 16.3037C49.5871 16.3346 49.2737 16.241 48.9301 15.8061L46.8444 13.0979C46.5228 12.7372 46.3359 12.2763 46.3155 11.7935V2.08829C46.2998 1.95186 46.313 1.81365 46.3544 1.6827C46.3957 1.55174 46.4642 1.43097 46.5554 1.32829C46.6466 1.2256 46.7584 1.14331 46.8836 1.08678C47.0087 1.03025 47.1444 1.00075 47.2817 1.00022L47.2821 0.999436Z" fill="black"/>
<defs>
<linearGradient id="paint0_linear_104_3285" x1="823.309" y1="0.309082" x2="823.309" y2="1600.31" gradientUnits="userSpaceOnUse">
<stop stop-color="#0091E6"/>
<stop offset="1" stop-color="#0079BF"/>
</linearGradient>
<clipPath id="clip0_104_3285">
<rect width="16" height="14.8125" fill="white" transform="translate(0.309082 0.902832)"/>
</clipPath>
<clipPath id="clip1_104_3285">
<rect width="16" height="16" fill="white" transform="translate(23.3091 0.309082)"/>
</clipPath>
</defs>
</svg>
