<svg width="23" height="19" viewBox="0 0 23 19" fill="none" xmlns="http://www.w3.org/2000/svg">
<path d="M0.111694 4.66324C3.16561 9.16801 6.21833 13.6728 9.27225 18.1775C9.67711 18.7748 10.5745 18.763 10.9614 18.1539C14.8094 12.1022 18.6587 6.05169 22.5067 0C18.1361 4.32618 13.7654 8.65237 9.39479 12.9774C6.30123 10.2064 3.20646 7.43541 0.111694 4.66324Z" fill="url(#paint0_linear_104_3260)"/>
<path d="M1.00635 4.00246C2.42278 4.80549 5.20639 6.09814 8.78291 5.96687C9.23703 5.95031 11.4067 5.84742 13.9128 4.82205C16.2495 3.86527 18.0432 2.44726 19.0259 1.67025C19.9209 0.961833 20.4327 0.462749 20.4556 0.486402C20.5024 0.533709 18.4324 2.64595 9.37639 11.4994C6.58558 8.99922 3.79596 6.50025 1.00635 4.00246Z" fill="url(#paint1_linear_104_3260)"/>
<path opacity="0.29" d="M1.00814 4.00353C2.14345 5.00052 5.86894 8.01749 10.1086 7.2937C12.5799 6.87149 14.6835 5.27135 16.6934 3.74216C18.4534 2.40339 20.4586 0.491021 20.4537 0.485107C20.4537 0.485107 20.4321 0.500482 20.3913 0.533597C20.2988 0.606922 20.2303 0.66369 20.2135 0.676699C20.0549 0.807975 19.8843 0.961721 19.8843 0.961721C19.8002 1.03741 19.6728 1.1474 19.4878 1.29641C19.423 1.34963 19.3329 1.42414 19.2235 1.51284C19.2235 1.51284 18.9208 1.75765 18.624 1.98709C17.1632 3.11417 15.9245 3.83086 15.9245 3.83086C13.4773 5.22049 11.292 5.64034 10.7874 5.7314C9.37218 5.98568 8.28973 5.97976 7.98458 5.97385C7.58332 5.96675 6.39635 5.92773 4.90783 5.56465C4.54502 5.47595 3.52504 5.21221 2.28281 4.65163C1.7578 4.4151 1.32651 4.18448 1.00574 4.00353H1.00814Z" fill="white"/>
<path d="M9.3955 12.9774L7.25464 15.1996L9.27296 18.1764C9.31742 18.239 9.54087 18.5406 9.94694 18.6033C10.3302 18.6624 10.7242 18.4862 10.9633 18.1515C14.8089 12.1022 18.6582 6.05169 22.5062 0L9.3955 12.9774Z" fill="url(#paint2_linear_104_3260)"/>
<defs>
<linearGradient id="paint0_linear_104_3260" x1="11.4155" y1="2.5037" x2="22.835" y2="21.4713" gradientUnits="userSpaceOnUse">
<stop stop-color="#72BF44"/>
<stop offset="0.97" stop-color="#182E18"/>
</linearGradient>
<linearGradient id="paint1_linear_104_3260" x1="1.00635" y1="5.99052" x2="20.4556" y2="5.99052" gradientUnits="userSpaceOnUse">
<stop stop-color="#155DEC"/>
<stop offset="0.49" stop-color="#76A6FF"/>
<stop offset="1" stop-color="#155DEC"/>
</linearGradient>
<linearGradient id="paint2_linear_104_3260" x1="15.4156" y1="8.86879" x2="19.5919" y2="11.3791" gradientUnits="userSpaceOnUse">
<stop stop-color="#72BF44"/>
<stop offset="0.97" stop-color="#182E18"/>
</linearGradient>
</defs>
</svg>
