<svg width="19" height="19" viewBox="0 0 19 19" fill="none" xmlns="http://www.w3.org/2000/svg">
<path d="M15.7124 2.32715H8.98975C8.98975 4.00278 10.346 5.35958 12.022 5.35958H13.2584V6.55609C13.2584 8.23173 14.6152 9.58853 16.2908 9.58853V2.90562C16.2907 2.75224 16.2297 2.60517 16.1213 2.49671C16.0128 2.38825 15.8657 2.32726 15.7124 2.32715Z" fill="#2684FF"/>
<path d="M12.3812 5.67861H5.65845C5.65845 7.3541 7.01481 8.7109 8.6903 8.7109H9.92725V9.90741C9.92725 11.583 11.284 12.9398 12.9597 12.9398V6.25694C12.9595 6.10359 12.8984 5.95659 12.79 5.84815C12.6816 5.73972 12.5346 5.67884 12.3812 5.67861Z" fill="url(#paint0_linear_104_3265)"/>
<path d="M9.04991 9.02954H2.32715C2.32715 10.7058 3.68337 12.062 5.35958 12.062H6.59595V13.2591C6.59595 14.9347 7.95275 16.2909 9.62824 16.2909V9.6086C9.62808 9.45521 9.56712 9.30814 9.45872 9.19962C9.35031 9.0911 9.2033 9.02985 9.04991 9.02954Z" fill="url(#paint1_linear_104_3265)"/>
<defs>
<linearGradient id="paint0_linear_104_3265" x1="12.8198" y1="5.68618" x2="9.95954" y2="8.63541" gradientUnits="userSpaceOnUse">
<stop offset="0.176" stop-color="#0052CC"/>
<stop offset="1" stop-color="#2684FF"/>
</linearGradient>
<linearGradient id="paint1_linear_104_3265" x1="9.68191" y1="9.05543" x2="6.37486" y2="12.2729" gradientUnits="userSpaceOnUse">
<stop offset="0.176" stop-color="#0052CC"/>
<stop offset="1" stop-color="#2684FF"/>
</linearGradient>
</defs>
</svg>
