<svg width="19" height="19" viewBox="0 0 19 19" fill="none" xmlns="http://www.w3.org/2000/svg">
<g clip-path="url(#clip0_104_3269)">
<path d="M2.31608 15.0417C1.9045 15.0426 1.50007 14.9342 1.14409 14.7277C0.788108 14.5211 0.493341 14.2237 0.289897 13.8659C0.0895565 13.5107 -0.0103605 13.1076 0.000849491 12.6999C0.0120595 12.2922 0.133974 11.8952 0.353533 11.5515L4.52611 4.9991C4.73967 4.64694 5.04287 4.35778 5.40476 4.16116C5.76664 3.96454 6.17424 3.86751 6.5859 3.87997C6.99724 3.88982 7.39859 4.00879 7.74886 4.2247C8.09912 4.44061 8.38573 4.74571 8.57935 5.10877C8.96837 5.84426 8.91971 6.72914 8.4539 7.41961L4.28393 13.972C4.07248 14.3015 3.78126 14.5723 3.43726 14.7593C3.09326 14.9463 2.70762 15.0435 2.31608 15.0417Z" fill="#F62B54"/>
<path d="M9.4733 15.0415C8.6317 15.0415 7.8573 14.5916 7.45061 13.8684C7.25071 13.5142 7.15102 13.1122 7.16223 12.7055C7.17344 12.2989 7.29513 11.903 7.51425 11.5603L11.6789 5.02284C11.8893 4.66573 12.1914 4.37143 12.554 4.17046C12.9165 3.96949 13.3261 3.86918 13.7405 3.87993C14.5892 3.89848 15.3582 4.37317 15.7472 5.11579C15.937 5.47942 16.0234 5.88819 15.9969 6.29754C15.9704 6.70689 15.8321 7.10112 15.5969 7.43724L11.4332 13.9746C11.2224 14.3027 10.9323 14.5725 10.5898 14.759C10.2473 14.9454 9.86329 15.0426 9.4733 15.0415Z" fill="#FFCC00"/>
<path d="M16.4702 15.0964C17.6567 15.0964 18.6185 14.1548 18.6185 12.9933C18.6185 11.8317 17.6567 10.8901 16.4702 10.8901C15.2838 10.8901 14.322 11.8317 14.322 12.9933C14.322 14.1548 15.2838 15.0964 16.4702 15.0964Z" fill="#00CA72"/>
</g>
<defs>
<clipPath id="clip0_104_3269">
<rect width="18.6182" height="18.6182" fill="white"/>
</clipPath>
</defs>
</svg>
