<svg width="174" height="33" viewBox="0 0 174 33" fill="none" xmlns="http://www.w3.org/2000/svg">
<g clip-path="url(#clip0_1699_32023)">
<path d="M4.34384 25.31C3.70846 25.3114 3.08411 25.1441 2.53457 24.8251C1.98502 24.5062 1.52998 24.0471 1.21593 23.4948C0.906628 22.9464 0.752349 22.3241 0.769616 21.6948C0.786883 21.0654 0.975046 20.4525 1.31395 19.9219L7.75572 9.80654C8.08538 9.26286 8.55344 8.81643 9.1121 8.51283C9.67075 8.20924 10.3 8.05937 10.9355 8.07854C11.5706 8.09374 12.1902 8.27741 12.731 8.61074C13.2718 8.94408 13.7143 9.41511 14.0132 9.97563C14.3077 10.5318 14.4452 11.1577 14.4111 11.7861C14.377 12.4145 14.1725 13.0218 13.8195 13.5428L7.38182 23.6592C7.05531 24.1679 6.60565 24.586 6.07452 24.8746C5.5434 25.1632 4.94799 25.3131 4.34351 25.3104" fill="#F62B54"/>
<path d="M15.3929 25.31C14.0937 25.31 12.8982 24.6155 12.2704 23.4988C11.9618 22.9519 11.808 22.3313 11.8253 21.7036C11.8426 21.0759 12.0305 20.4648 12.3687 19.9357L18.798 9.84326C19.1228 9.29191 19.5892 8.83749 20.1488 8.52713C20.7084 8.21677 21.3408 8.06177 21.9805 8.07821C23.2908 8.10718 24.4782 8.84015 25.0788 9.98642C25.3718 10.5479 25.5051 11.179 25.4641 11.8109C25.4231 12.4429 25.2094 13.0515 24.8464 13.5704L18.4187 23.6625C18.0932 24.1691 17.6454 24.5855 17.1166 24.8734C16.5878 25.1612 15.995 25.3116 15.3929 25.31Z" fill="#FFCC00"/>
<path d="M26.1952 25.3946C28.0269 25.3946 29.5118 23.941 29.5118 22.1478C29.5118 20.3547 28.0269 18.901 26.1952 18.901C24.3635 18.901 22.8787 20.3547 22.8787 22.1478C22.8787 23.941 24.3635 25.3946 26.1952 25.3946Z" fill="#00CA72"/>
<path d="M170.268 19.0896C171.27 19.0896 171.869 19.8021 171.869 20.9689V24.9675H173.23V20.8773C173.23 18.8933 172.295 17.7426 170.537 17.7426C169.849 17.7426 168.757 17.9309 168.106 19.1961C167.955 18.8229 167.706 18.4976 167.384 18.2548C167.063 18.0121 166.682 17.8609 166.282 17.8174C166.03 17.7713 165.773 17.7563 165.517 17.7726C164.958 17.8174 163.961 18.1657 163.589 18.9542V17.8939H162.227V24.9675H163.589V21.1504C163.589 19.6653 164.561 19.0896 165.534 19.0896C166.445 19.0896 167.045 19.7869 167.045 20.9537V24.9675H168.398V21.1504C168.398 19.9681 169.108 19.0758 170.268 19.0896M157.227 23.7856C157.536 23.7919 157.843 23.7343 158.128 23.6164C158.414 23.4985 158.671 23.3228 158.886 23.1004C159.102 22.8764 159.27 22.611 159.381 22.3202C159.492 22.0294 159.543 21.7191 159.531 21.4081C159.531 19.9833 158.483 19.0896 157.227 19.0896C155.971 19.0896 154.923 19.9833 154.923 21.4081C154.911 21.7183 154.961 22.0277 155.072 22.3178C155.182 22.608 155.35 22.8728 155.565 23.0964C155.778 23.3186 156.035 23.4945 156.319 23.6131C156.603 23.7316 156.909 23.7904 157.217 23.7856H157.227ZM157.227 25.112C155.238 25.112 153.577 23.6424 153.577 21.4C153.577 19.1577 155.237 17.7342 157.227 17.7342C159.217 17.7342 160.892 19.1577 160.892 21.4C160.892 23.6424 159.208 25.1188 157.218 25.1188L157.227 25.112ZM146.569 21.4L146.555 21.4081C146.555 19.1658 148.26 17.7426 150.263 17.7342C150.766 17.7244 151.266 17.8205 151.73 18.0161C152.194 18.2117 152.611 18.5025 152.956 18.8697L151.924 19.7488C151.705 19.5336 151.445 19.364 151.16 19.2496C150.875 19.1352 150.57 19.0785 150.263 19.0826C149.007 19.0826 147.915 19.9765 147.915 21.4C147.915 22.3621 148.487 23.2291 149.365 23.5973C149.794 23.777 150.267 23.8239 150.724 23.732C151.18 23.6401 151.598 23.4135 151.924 23.0816L152.971 23.9604C152.625 24.3314 152.206 24.6257 151.739 24.8241C151.273 25.0226 150.77 25.1208 150.263 25.1124C148.274 25.1124 146.569 23.6424 146.569 21.4ZM142.211 23.6097C142.208 23.36 142.304 23.1193 142.479 22.9407C142.654 22.7621 142.892 22.6601 143.142 22.6571C143.391 22.6601 143.63 22.7621 143.804 22.9407C143.979 23.1193 144.075 23.36 144.072 23.6097C144.06 23.8492 143.957 24.0749 143.784 24.241C143.611 24.407 143.381 24.5009 143.142 24.5034C142.902 24.5009 142.672 24.407 142.499 24.241C142.326 24.0749 142.223 23.8492 142.211 23.6097ZM145.934 8.90152H141.088L137.691 17.6594L134.312 8.90152H129.465L135.357 22.7403L131.693 31.8896H136.504L145.934 8.90152ZM116.461 16.5987C116.461 18.8097 118.393 20.2645 120.292 20.2645C122.157 20.2645 123.99 18.9104 123.99 16.5973C123.99 14.2843 122.157 12.9291 120.292 12.9291C118.393 12.9291 116.461 14.3853 116.461 16.5973V16.5987ZM123.99 24.3259V22.5749C123.008 24.0628 120.715 24.625 119.538 24.625C115.643 24.625 111.747 21.5543 111.747 16.5973C111.747 11.6421 115.642 8.57107 119.538 8.57107C120.52 8.57107 122.812 8.89882 123.99 10.6184V8.90724H128.508V24.3289L123.99 24.3275L123.99 24.3259ZM110.461 24.3259H105.944V22.4099C105.189 23.8293 103.359 24.6566 101.459 24.6566C97.5302 24.6566 94.0594 21.5186 94.0594 16.66C94.0594 11.7101 97.5302 8.56838 101.459 8.56838C103.356 8.56838 105.192 9.35996 105.944 10.7808V0.5H110.461V24.3259ZM105.845 16.5633C105.845 14.2512 104.176 12.8961 102.311 12.8961C100.379 12.8961 98.7735 14.3496 98.7735 16.5633C98.7735 18.8478 100.379 20.2945 102.31 20.2945C104.211 20.2972 105.845 18.7771 105.845 16.5633ZM82.8903 16.1648C82.8903 13.8204 84.1023 13.0272 85.7057 13.0272C87.2437 13.0272 88.3576 14.0508 88.3576 16.0978V24.3235H92.9077V15.1085C92.9077 10.7168 90.7458 8.56838 87.308 8.56838C85.5079 8.56838 83.7078 9.59238 82.8886 11.1452V8.90152H78.3413V24.3235H82.8903V16.1648ZM69.102 24.5883C64.781 24.5883 61.1768 21.4179 61.1768 16.562C61.1768 11.7034 64.777 8.56434 69.102 8.56434C73.4271 8.56434 77.0583 11.7034 77.0583 16.562C77.0583 21.4206 73.4227 24.5896 69.102 24.5896V24.5883ZM69.102 20.0981C70.9991 20.0981 72.5725 18.7087 72.5725 16.5633C72.5725 14.482 71.0005 13.0612 69.102 13.0612C68.6449 13.0541 68.1912 13.1401 67.7684 13.314C67.3456 13.4879 66.9626 13.746 66.6428 14.0727C66.3211 14.4011 66.0687 14.7908 65.9006 15.2187C65.7325 15.6465 65.6521 16.1038 65.6642 16.5633C65.6656 18.7114 67.2363 20.0981 69.102 20.0981ZM53.0192 13.0285C54.3608 13.0285 55.5401 14.0862 55.5401 16.0992V24.3262H60.0572V15.5669C60.0572 10.9104 57.7932 8.56568 54.1641 8.56568C53.0862 8.56568 51.0551 8.89343 49.5814 11.3062C48.7298 9.52232 47.0935 8.59701 44.6749 8.59701C43.8353 8.59275 43.0122 8.83042 42.304 9.2816C41.5958 9.73277 41.0326 10.3784 40.6817 11.1412V8.90286H36.1289V24.3248H40.6776V16.1648C40.6776 13.8204 41.9549 13.0272 43.3292 13.0272C44.6396 13.0272 45.8162 14.0508 45.8502 15.9998V24.3248H50.4002V16.1648C50.4002 13.9225 51.5792 13.0299 53.0192 13.0299V13.0285Z" fill="#333333"/>
</g>
<defs>
<clipPath id="clip0_1699_32023">
<rect width="172.463" height="32" fill="white" transform="translate(0.768311 0.5)"/>
</clipPath>
</defs>
</svg>
