<svg width="120" height="120" viewBox="0 0 120 120" fill="none" xmlns="http://www.w3.org/2000/svg">
<g clip-path="url(#clip0_77_4495)">
<path d="M34.3312 -0.0347195C34.6557 -0.0373708 34.6557 -0.0373708 34.9867 -0.0400756C35.3437 -0.0412098 35.3437 -0.0412098 35.708 -0.0423669C36.0868 -0.0448998 36.0868 -0.0448998 36.4733 -0.0474838C37.324 -0.0528306 38.1747 -0.0564653 39.0254 -0.0600695C39.6336 -0.0634549 40.2418 -0.0669137 40.85 -0.0704407C46.4038 -0.101446 51.9578 -0.116467 57.5118 -0.128529C58.255 -0.130172 58.9983 -0.131842 59.7416 -0.133541C59.9263 -0.133961 60.111 -0.134382 60.3014 -0.134816C63.2923 -0.141859 66.2832 -0.157036 69.2741 -0.17542C72.3458 -0.194145 75.4175 -0.204863 78.4893 -0.207988C80.2136 -0.209957 81.9377 -0.215507 83.6619 -0.230176C85.2847 -0.243974 86.9071 -0.247032 88.5299 -0.242862C89.1249 -0.243068 89.72 -0.246879 90.315 -0.254591C95.3732 -0.316748 95.3732 -0.316748 96.7936 0.930574C97.1175 1.31503 97.4315 1.70815 97.7344 2.10939C98.0982 2.4732 98.4671 2.83196 98.8406 3.18581C99.2256 3.56948 99.61 3.95376 99.9939 4.33858C100.206 4.55036 100.418 4.76213 100.637 4.98033C101.211 5.55352 101.785 6.12744 102.358 6.70153C102.961 7.30494 103.564 7.90778 104.168 8.5107C105.178 9.52089 106.188 10.5316 107.198 11.5425C108.365 12.7107 109.533 13.8781 110.701 15.045C111.707 16.0501 112.713 17.0558 113.718 18.0618C114.318 18.6614 114.917 19.2607 115.517 19.8597C116.183 20.5255 116.849 21.1922 117.514 21.859C117.713 22.057 117.911 22.255 118.116 22.459C118.296 22.6403 118.477 22.8216 118.663 23.0084C118.82 23.1658 118.978 23.3231 119.14 23.4852C119.968 24.3758 120.059 24.9103 120.061 26.0986C120.062 26.251 120.063 26.4035 120.064 26.5606C120.066 27.075 120.065 27.5894 120.064 28.1038C120.065 28.475 120.067 28.8461 120.068 29.2172C120.071 30.2399 120.072 31.2626 120.072 32.2853C120.072 33.3873 120.075 34.4892 120.078 35.5911C120.083 38.0022 120.085 40.4133 120.086 42.8244C120.087 44.3297 120.088 45.835 120.09 47.3403C120.095 51.5072 120.099 55.6741 120.099 59.841C120.099 60.1078 120.099 60.3746 120.099 60.6495C120.099 61.1905 120.1 61.7314 120.1 62.2723C120.1 62.5408 120.1 62.8093 120.1 63.086C120.1 63.4892 120.1 63.4892 120.1 63.9006C120.101 68.2556 120.107 72.6105 120.116 76.9655C120.125 81.4356 120.129 85.9057 120.129 90.3758C120.129 92.886 120.131 95.3962 120.138 97.9064C120.144 100.044 120.146 102.182 120.142 104.32C120.14 105.411 120.141 106.501 120.146 107.592C120.151 108.591 120.15 109.59 120.145 110.589C120.145 110.95 120.146 111.311 120.149 111.672C120.167 113.765 119.995 115.395 118.828 117.188C118.698 117.4 118.567 117.613 118.433 117.832C117.043 119.184 115.428 120.028 113.49 120.032C113.206 120.033 112.922 120.035 112.629 120.036C112.312 120.036 111.995 120.036 111.679 120.036C111.343 120.037 111.008 120.038 110.672 120.039C109.749 120.042 108.825 120.043 107.901 120.044C106.905 120.046 105.91 120.049 104.914 120.051C102.509 120.057 100.103 120.06 97.6978 120.063C97.0184 120.064 96.339 120.065 95.6596 120.066C91.4411 120.072 87.2226 120.077 83.0042 120.08C82.0269 120.081 81.0495 120.081 80.0722 120.082C79.8293 120.082 79.5864 120.082 79.3361 120.083C75.4018 120.086 71.4674 120.093 67.533 120.103C63.4941 120.113 59.4552 120.119 55.4162 120.12C53.1483 120.121 50.8805 120.123 48.6126 120.131C46.681 120.138 44.7495 120.14 42.8179 120.138C41.8326 120.136 40.8474 120.137 39.8621 120.143C38.9592 120.148 38.0564 120.148 37.1534 120.144C36.8277 120.143 36.502 120.144 36.1763 120.148C34.1346 120.168 32.6734 119.929 30.9375 118.828C30.7248 118.698 30.5121 118.567 30.293 118.433C28.7122 116.808 28.0888 115.114 28.0968 112.891C28.0966 112.689 28.0964 112.487 28.0962 112.28C28.0958 111.602 28.0971 110.924 28.0984 110.246C28.0985 109.761 28.0985 109.276 28.0983 108.791C28.0982 107.472 28.0996 106.153 28.1013 104.834C28.1027 103.456 28.1029 102.079 28.1031 100.701C28.1039 98.0913 28.1058 95.4816 28.1081 92.872C28.1108 89.9014 28.1121 86.9308 28.1132 83.9602C28.1157 77.8484 28.1198 71.7367 28.125 65.625C27.9645 65.6265 27.804 65.6279 27.6387 65.6294C26.9027 65.6353 26.1667 65.6389 25.4306 65.6424C25.1782 65.6447 24.9257 65.6471 24.6656 65.6495C22.6772 65.6567 20.9061 65.4631 18.9844 64.9219C18.7025 64.8448 18.4206 64.7678 18.1302 64.6884C14.6576 63.6376 11.6038 61.9599 8.90628 59.5313C8.71534 59.3763 8.52439 59.2213 8.32767 59.0616C4.52393 55.8898 2.01848 51.3589 0.703153 46.6406C0.628227 46.3859 0.5533 46.1313 0.476103 45.8688C-0.523473 41.8474 -0.464413 37.0223 0.703153 33.0469C0.780195 32.7662 0.857237 32.4855 0.936613 32.1964C1.98358 28.7222 3.66524 25.6662 6.09378 22.9688C6.24877 22.7778 6.40376 22.5869 6.56344 22.3901C9.73269 18.5895 14.2671 16.0752 18.9844 14.7656C19.25 14.6907 19.5155 14.6158 19.7892 14.5386C22.5379 13.8767 25.3157 13.9945 28.125 14.0625C28.1189 13.805 28.1128 13.5475 28.1064 13.2821C28.085 12.3168 28.0717 11.3516 28.0607 10.3861C28.0548 9.97011 28.0468 9.55414 28.0366 9.13823C27.9316 4.74537 27.9316 4.74537 29.2969 2.81251C29.4274 2.59982 29.5579 2.38712 29.6924 2.16798C30.9501 0.944246 32.5533 -0.0247014 34.3312 -0.0347195ZM33.5157 5.39064C32.8174 6.54753 32.7149 7.61253 32.7439 8.93464C32.7449 9.1092 32.7459 9.28375 32.7469 9.46359C32.7508 10.0152 32.7596 10.5666 32.7686 11.1182C32.7721 11.4946 32.7753 11.871 32.7782 12.2475C32.7859 13.1651 32.798 14.0825 32.8125 15C33.0643 15.0886 33.3161 15.1773 33.5754 15.2686C36.8481 16.428 39.7982 17.8365 42.4219 20.1563C42.7396 20.4236 42.7396 20.4236 43.0637 20.6964C47.5245 24.5588 50.7943 30.6321 51.3282 36.5625C51.4735 39.9462 51.5882 43.3665 50.625 46.6406C50.5453 46.9267 50.4655 47.2129 50.3833 47.5076C48.4313 53.9244 43.9927 59.3735 38.086 62.5488C37.9362 62.6297 37.7865 62.7106 37.6323 62.7939C36.5821 63.3317 35.4977 63.7412 34.3859 64.1319C34.2342 64.1856 34.0826 64.2393 33.9263 64.2946C33.5552 64.426 33.1839 64.5568 32.8125 64.6875C32.7961 70.9543 32.7837 77.221 32.7761 83.4878C32.7725 86.3975 32.7675 89.3073 32.7595 92.217C32.7525 94.7531 32.7479 97.2891 32.7464 99.8252C32.7455 101.168 32.7433 102.511 32.7382 103.854C32.7334 105.118 32.7319 106.382 32.733 107.646C32.7328 108.11 32.7314 108.574 32.7287 109.037C32.7252 109.671 32.7261 110.305 32.728 110.939C32.7259 111.122 32.7239 111.305 32.7218 111.493C32.7316 112.699 32.8819 113.568 33.5157 114.609C34.9618 115.58 36.6081 115.411 38.2966 115.402C38.6178 115.403 38.939 115.404 39.2602 115.405C40.1405 115.408 41.0208 115.407 41.9012 115.404C42.8514 115.403 43.8017 115.405 44.752 115.407C46.6127 115.41 48.4734 115.41 50.3341 115.408C51.8464 115.406 53.3587 115.406 54.871 115.407C55.0862 115.407 55.3015 115.407 55.5233 115.407C55.9606 115.407 56.3979 115.407 56.8352 115.408C60.9355 115.41 65.0358 115.407 69.1361 115.404C72.6541 115.4 76.172 115.401 79.69 115.404C83.7757 115.408 87.8614 115.409 91.947 115.407C92.3827 115.407 92.8184 115.407 93.2541 115.407C93.5756 115.406 93.5756 115.406 93.9037 115.406C95.4141 115.406 96.9245 115.407 98.4349 115.408C100.276 115.41 102.116 115.41 103.957 115.406C104.896 115.404 105.835 115.403 106.775 115.406C107.634 115.408 108.494 115.407 109.354 115.403C109.812 115.402 110.27 115.404 110.728 115.407C112.78 115.413 112.78 115.413 114.609 114.609C115.639 113.117 115.408 111.298 115.397 109.55C115.397 109.199 115.398 108.848 115.399 108.496C115.4 107.533 115.398 106.569 115.394 105.605C115.391 104.566 115.392 103.526 115.393 102.486C115.393 100.685 115.391 98.8836 115.387 97.0826C115.381 94.4786 115.379 91.8746 115.378 89.2706C115.377 85.0456 115.372 80.8207 115.366 76.5958C115.359 72.4919 115.354 68.388 115.351 64.2841C115.351 64.0311 115.351 63.7781 115.351 63.5174C115.35 62.2482 115.349 60.979 115.348 59.7097C115.341 49.1815 115.328 38.6532 115.313 28.125C115.035 28.1226 114.758 28.1202 114.472 28.1177C111.861 28.0948 109.25 28.0707 106.64 28.0455C105.297 28.0325 103.955 28.02 102.613 28.0085C101.318 27.9973 100.023 27.985 98.7286 27.972C98.234 27.9672 97.7394 27.9628 97.2447 27.9588C96.5534 27.9532 95.862 27.9461 95.1706 27.9388C94.965 27.9374 94.7593 27.9361 94.5474 27.9347C93.7568 27.925 93.0988 27.9079 92.3438 27.6563C92.0307 26.7169 92.0677 25.8093 92.0613 24.8294C92.059 24.6121 92.0566 24.3949 92.0543 24.171C92.0468 23.452 92.041 22.7329 92.0352 22.0139C92.0304 21.5157 92.0255 21.0175 92.0205 20.5193C92.0075 19.2073 91.996 17.8953 91.9847 16.5834C91.9729 15.2449 91.9598 13.9064 91.9469 12.5679C91.9217 9.94112 91.8979 7.31432 91.875 4.68751C84.6773 4.67147 77.4796 4.65903 70.2819 4.65161C69.432 4.65073 68.5822 4.64982 67.7323 4.64889C67.5631 4.6487 67.3939 4.64852 67.2196 4.64833C64.4805 4.64527 61.7414 4.63973 59.0023 4.63326C56.1915 4.62669 53.3807 4.62278 50.5699 4.62136C48.9912 4.62048 47.4125 4.61837 45.8338 4.61317C44.3481 4.6084 42.8625 4.60693 41.3768 4.60798C40.8314 4.60779 40.2859 4.60639 39.7405 4.6037C38.9959 4.6002 38.2514 4.60104 37.5068 4.60296C37.183 4.59989 37.183 4.59989 36.8526 4.59675C35.5653 4.60573 34.6471 4.75702 33.5157 5.39064ZM96.5625 8.43751C96.5625 13.3875 96.5625 18.3375 96.5625 23.4375C101.513 23.4375 106.463 23.4375 111.563 23.4375C110.654 22.3778 109.758 21.3648 108.774 20.3843C108.644 20.2537 108.514 20.1232 108.38 19.9887C107.955 19.5633 107.53 19.1388 107.105 18.7143C106.808 18.4172 106.511 18.12 106.214 17.8228C105.595 17.2033 104.975 16.5842 104.355 15.9654C103.559 15.1704 102.764 14.3744 101.969 13.578C101.357 12.9658 100.745 12.3541 100.133 11.7426C99.8397 11.4491 99.5461 11.1554 99.2528 10.8615C98.8449 10.453 98.4363 10.0453 98.0275 9.63783C97.8447 9.45431 97.8447 9.45431 97.6582 9.26709C97.1905 8.69138 97.1905 8.69138 96.5625 8.43751ZM28.125 18.9844C28.125 25.0945 28.125 31.2047 28.125 37.5C34.2352 37.5 40.3453 37.5 46.6407 37.5C45.4565 31.1845 42.8382 26.0288 37.4698 22.3189C34.823 20.5831 31.3414 18.9844 28.125 18.9844ZM10.6778 25.1615C6.3506 29.634 4.78266 35.104 4.8569 41.2015C5.02274 46.6164 7.61949 51.5811 11.4844 55.3125C16.2783 59.5501 21.7568 60.9761 28.0813 60.7542C32.1064 60.4791 36.128 58.6695 39.1407 56.0156C39.3271 55.8652 39.5135 55.7147 39.7055 55.5597C43.3518 52.5051 45.9676 47.7994 46.5341 43.0759C46.5693 42.7827 46.6044 42.4896 46.6407 42.1875C46.3662 42.1851 46.0918 42.1827 45.809 42.1802C43.2258 42.1573 40.6427 42.1332 38.0595 42.108C36.7314 42.095 35.4033 42.0825 34.0752 42.071C32.7941 42.0598 31.5131 42.0475 30.232 42.0345C29.7426 42.0297 29.2532 42.0253 28.7638 42.0213C28.0798 42.0157 27.3957 42.0086 26.7116 42.0013C26.5081 41.9999 26.3047 41.9986 26.095 41.9972C25.309 41.9875 24.657 41.969 23.9063 41.7188C23.5952 40.7857 23.6302 39.8867 23.6238 38.9134C23.6215 38.6984 23.6191 38.4834 23.6168 38.2619C23.6093 37.5505 23.6035 36.8391 23.5977 36.1276C23.5929 35.6347 23.588 35.1418 23.583 34.6488C23.57 33.3507 23.5585 32.0526 23.5472 30.7545C23.5354 29.4302 23.5223 28.1058 23.5094 26.7815C23.4842 24.1825 23.4604 21.5834 23.4375 18.9844C18.6633 18.9844 13.9967 22.0256 10.6778 25.1615Z" fill="white"/>
<path d="M106.099 62.8711C106.441 63.0773 106.779 63.2911 107.109 63.5156C107.322 63.6461 107.535 63.7766 107.754 63.9111C109.423 65.6269 109.996 67.4492 110.014 69.7808C109.986 71.2759 109.593 72.3519 108.75 73.5937C108.619 73.8064 108.489 74.0191 108.354 74.2383C107.353 75.213 106.091 75.9643 104.766 76.4062C104.51 76.3757 104.255 76.3452 103.992 76.3138C102.789 76.1709 101.615 76.0354 100.545 76.697C99.4841 77.5785 98.61 78.6269 97.7344 79.6875C96.6299 80.9747 95.4883 82.2215 94.3213 83.4521C93.9895 83.8033 93.6578 84.1546 93.3261 84.5059C93.1612 84.6805 92.9963 84.8551 92.8263 85.035C92.1062 85.7988 91.3897 86.5661 90.6738 87.334C90.4765 87.5455 90.4765 87.5455 90.2752 87.7613C89.7209 88.3558 89.1668 88.9504 88.6128 89.5452C88.3089 89.8715 88.0048 90.1978 87.7008 90.524C87.4146 90.831 87.1286 91.1381 86.8427 91.4452C86.6494 91.6525 86.6494 91.6525 86.4523 91.864C86.3394 91.9852 86.2265 92.1064 86.1102 92.2313C85.7812 92.5781 85.7812 92.5781 85.385 92.9395C85.2837 93.0523 85.1824 93.165 85.0781 93.2812C85.1282 93.9156 85.2829 94.3899 85.5524 94.9649C86.0906 96.5172 86.0473 98.5354 85.5514 100.1C85.2713 100.672 84.9671 101.192 84.6094 101.719C84.4788 101.931 84.3483 102.144 84.2139 102.363C82.4981 104.033 80.6758 104.605 78.3441 104.623C76.8491 104.595 75.7731 104.203 74.5312 103.359C74.3185 103.229 74.1058 103.098 73.8867 102.964C72.3573 101.392 71.6767 99.7048 71.6748 97.5439C71.6719 97.38 71.669 97.2161 71.6661 97.0472C71.6638 96.2353 71.7106 95.6446 72.0245 94.8898C72.0783 94.6683 72.1321 94.4469 72.1875 94.2187C71.8399 93.659 71.5386 93.2774 71.0889 92.8125C70.8466 92.5454 70.6049 92.2777 70.3638 92.0096C70.2384 91.8722 70.113 91.7348 69.9838 91.5933C69.3824 90.9164 68.83 90.2034 68.2764 89.4873C68.064 89.2147 67.8516 88.9422 67.6391 88.6697C67.5376 88.5393 67.4361 88.4089 67.3315 88.2745C66.6151 87.3585 65.885 86.4531 65.1562 85.5468C65.0399 85.5849 64.9236 85.623 64.8038 85.6622C63.9896 85.8278 63.1853 85.815 62.3584 85.8105C62.1936 85.8114 62.0288 85.8123 61.859 85.8133C61.1411 85.8119 60.5425 85.8076 59.8617 85.5642C59.2985 85.4883 59.2985 85.4883 58.9415 85.8119C58.5197 86.2294 58.1313 86.6645 57.7441 87.1142C57.5286 87.3552 57.5286 87.3552 57.3086 87.601C57.0148 87.9296 56.7225 88.2595 56.4316 88.5907C55.9528 89.1337 55.4639 89.6665 54.9718 90.1974C54.658 90.5369 54.3475 90.8795 54.0372 91.2222C53.6329 91.6622 53.2207 92.0949 52.8012 92.5204C52.6051 92.7231 52.409 92.9259 52.207 93.1347C52.0318 93.3106 51.8566 93.4864 51.676 93.6676C51.2601 94.2035 51.2601 94.2035 51.3849 94.8761C51.4435 95.1232 51.5021 95.3703 51.5625 95.625C51.7311 97.9275 51.7335 99.7415 50.3906 101.719C50.2601 101.931 50.1296 102.144 49.9951 102.363C48.2793 104.033 46.457 104.605 44.1254 104.623C42.6303 104.595 41.5544 104.203 40.3125 103.359C40.0998 103.229 39.8871 103.098 39.668 102.964C37.9986 101.248 37.426 99.4257 37.4082 97.0941C37.4358 95.5991 37.8284 94.5231 38.6719 93.2812C38.8024 93.0685 38.9329 92.8558 39.0674 92.6367C40.6485 91.0983 42.33 90.4277 44.5019 90.4394C44.6678 90.4385 44.8337 90.4376 45.0046 90.4367C45.7262 90.438 46.3297 90.4414 47.0141 90.6857C47.5766 90.7616 47.5766 90.7616 47.9334 90.4381C48.3553 90.0206 48.7436 89.5854 49.1308 89.1357C49.3464 88.8948 49.3464 88.8948 49.5663 88.6489C49.8602 88.3203 50.1525 87.9904 50.4434 87.6592C50.9222 87.1162 51.4111 86.5835 51.9032 86.0525C52.217 85.713 52.5274 85.3704 52.8378 85.0277C53.242 84.5877 53.6543 84.155 54.0738 83.7295C54.2699 83.5268 54.4659 83.3241 54.668 83.1152C54.8432 82.9394 55.0184 82.7635 55.199 82.5824C55.6149 82.0465 55.6149 82.0465 55.4901 81.3739C55.4315 81.1267 55.3729 80.8796 55.3125 80.625C55.1439 78.3225 55.1414 76.5084 56.4844 74.5312C56.6149 74.3185 56.7454 74.1058 56.8799 73.8867C58.5956 72.2173 60.418 71.6448 62.7496 71.6269C64.2446 71.6546 65.3206 72.0471 66.5625 72.8906C66.7752 73.0211 66.9879 73.1516 67.207 73.2861C68.7364 74.858 69.417 76.5452 69.4189 78.706C69.4218 78.8699 69.4247 79.0338 69.4276 79.2027C69.4299 80.0147 69.3831 80.6054 69.0692 81.3601C69.0154 81.5816 68.9616 81.8031 68.9062 82.0312C69.2539 82.591 69.5551 82.9726 70.0049 83.4375C70.2471 83.7046 70.4888 83.9722 70.73 84.2404C70.8553 84.3777 70.9807 84.5151 71.1099 84.6566C71.7113 85.3336 72.2637 86.0465 72.8174 86.7627C73.0297 87.0353 73.2421 87.3078 73.4546 87.5802C73.5561 87.7106 73.6576 87.841 73.7622 87.9754C74.4787 88.8915 75.2087 89.7968 75.9375 90.7031C76.116 90.6392 76.116 90.6392 76.2982 90.574C76.875 90.4687 76.875 90.4687 77.6715 90.5612C79.4511 90.7673 79.4511 90.7673 81.0941 90.1779C82.1559 89.2963 83.0303 88.2483 83.9062 87.1875C85.0107 85.9002 86.1523 84.6535 87.3193 83.4228C87.6511 83.0716 87.9828 82.7204 88.3145 82.3691C88.4794 82.1945 88.6443 82.0199 88.8143 81.84C89.5344 81.0761 90.2509 80.3089 90.9668 79.541C91.1641 79.3294 91.1641 79.3294 91.3654 79.1136C91.9197 78.5192 92.4738 77.9245 93.0277 77.3298C93.3317 77.0034 93.6358 76.6772 93.9398 76.3509C94.226 76.044 94.512 75.7369 94.7979 75.4297C94.9911 75.2224 94.9911 75.2224 95.1883 75.011C95.3012 74.8897 95.4141 74.7685 95.5304 74.6436C95.8594 74.2968 95.8594 74.2968 96.2556 73.9354C96.3569 73.8227 96.4581 73.7099 96.5625 73.5937C96.5124 72.9594 96.3577 72.4851 96.0882 71.9101C95.55 70.3578 95.5933 68.3396 96.0892 66.7749C96.3693 66.2026 96.6735 65.6829 97.0312 65.1562C97.1618 64.9435 97.2923 64.7308 97.4267 64.5117C99.6742 62.325 103.205 61.446 106.099 62.8711ZM100.781 68.4375C100.618 69.103 100.618 69.6469 100.781 70.3125C101.247 71.0118 101.575 71.3912 102.407 71.596C103.327 71.6622 103.751 71.5357 104.531 71.0156C105.051 70.2354 105.178 69.8111 105.112 68.8916C104.907 68.059 104.527 67.7318 103.828 67.2656C102.465 66.9303 101.576 67.245 100.781 68.4375ZM60.2344 77.8125C60.0707 78.478 60.0707 79.0219 60.2344 79.6875C60.7006 80.3868 61.0277 80.7662 61.8603 80.971C62.7798 81.0372 63.2042 80.9107 63.9844 80.3906C64.5045 79.6104 64.631 79.1861 64.5648 78.2666C64.36 77.434 63.9806 77.1068 63.2812 76.6406C61.918 76.3053 61.0293 76.62 60.2344 77.8125ZM42.4219 96.5625C42.2582 97.228 42.2582 97.7719 42.4219 98.4375C42.8881 99.1368 43.2152 99.5162 44.0478 99.721C44.9673 99.7872 45.3917 99.6607 46.1719 99.1406C46.692 98.3604 46.8185 97.9361 46.7523 97.0166C46.5475 96.184 46.1681 95.8568 45.4687 95.3906C44.1055 95.0553 43.2168 95.37 42.4219 96.5625ZM76.6406 96.5625C76.4769 97.228 76.4769 97.7719 76.6406 98.4375C77.1068 99.1368 77.434 99.5162 78.2666 99.721C79.1861 99.7872 79.6104 99.6607 80.3906 99.1406C80.9107 98.3604 81.0372 97.9361 80.9711 97.0166C80.7663 96.184 80.3868 95.8568 79.6875 95.3906C78.3242 95.0553 77.4356 95.37 76.6406 96.5625Z" fill="white"/>
<path d="M68.3714 46.7262C68.5266 46.7244 68.6818 46.7225 68.8417 46.7207C69.3602 46.716 69.8783 46.7197 70.3967 46.7234C70.7691 46.7218 71.1414 46.7197 71.5138 46.7171C72.5239 46.7118 73.5339 46.7139 74.5441 46.7176C75.6015 46.7206 76.6588 46.7178 77.7161 46.716C79.4918 46.7138 81.2673 46.7166 83.0429 46.7222C85.0955 46.7286 87.1479 46.7265 89.2005 46.7201C90.9631 46.7148 92.7256 46.714 94.4882 46.7171C95.5408 46.7189 96.5933 46.7192 97.6459 46.7153C98.6355 46.7119 99.625 46.7142 100.615 46.721C100.978 46.7226 101.341 46.7221 101.704 46.7195C102.2 46.7163 102.695 46.7204 103.191 46.7262C103.469 46.7266 103.746 46.7271 104.032 46.7275C104.983 46.9187 105.335 47.3033 105.938 48.0469C106.093 48.6328 106.093 48.6328 106.084 49.2188C106.087 49.4121 106.09 49.6055 106.093 49.8047C105.866 50.6584 105.44 51.0039 104.766 51.5625C104.032 51.71 104.032 51.71 103.191 51.7113C103.036 51.7131 102.881 51.715 102.721 51.7168C102.202 51.7215 101.684 51.7178 101.166 51.7141C100.793 51.7157 100.421 51.7178 100.049 51.7204C99.0386 51.7257 98.0286 51.7236 97.0184 51.7199C95.961 51.7169 94.9037 51.7197 93.8464 51.7215C92.0707 51.7237 90.2952 51.7209 88.5196 51.7153C86.467 51.7089 84.4146 51.711 82.362 51.7174C80.5994 51.7227 78.8369 51.7235 77.0743 51.7204C76.0217 51.7186 74.9692 51.7184 73.9166 51.7222C72.927 51.7256 71.9375 51.7233 70.9479 51.7165C70.5848 51.7149 70.2217 51.7154 69.8586 51.718C69.3627 51.7212 68.8673 51.7172 68.3714 51.7113C68.094 51.7109 67.8166 51.7104 67.5308 51.71C66.5793 51.5188 66.2279 51.1342 65.625 50.3906C65.4694 49.8047 65.4694 49.8047 65.4785 49.2188C65.4755 49.0254 65.4725 48.832 65.4694 48.6328C65.8686 47.1299 66.937 46.7285 68.3714 46.7262Z" fill="white"/>
<path d="M68.3714 37.3512C68.5266 37.3494 68.6818 37.3475 68.8417 37.3457C69.3602 37.341 69.8783 37.3447 70.3967 37.3484C70.7691 37.3468 71.1414 37.3447 71.5138 37.3421C72.5239 37.3368 73.5339 37.3389 74.5441 37.3426C75.6015 37.3456 76.6588 37.3428 77.7161 37.341C79.4918 37.3388 81.2673 37.3416 83.0429 37.3472C85.0955 37.3536 87.1479 37.3515 89.2005 37.3451C90.9631 37.3398 92.7256 37.339 94.4882 37.3421C95.5408 37.3439 96.5933 37.3442 97.6459 37.3403C98.6355 37.3369 99.625 37.3392 100.615 37.346C100.978 37.3476 101.341 37.3471 101.704 37.3445C102.2 37.3413 102.695 37.3454 103.191 37.3512C103.469 37.3516 103.746 37.3521 104.032 37.3525C104.983 37.5437 105.335 37.9283 105.938 38.6719C106.093 39.2578 106.093 39.2578 106.084 39.8438C106.087 40.0371 106.09 40.2305 106.093 40.4297C105.866 41.2834 105.44 41.6289 104.766 42.1875C104.032 42.335 104.032 42.335 103.191 42.3363C103.036 42.3381 102.881 42.34 102.721 42.3418C102.202 42.3465 101.684 42.3428 101.166 42.3391C100.793 42.3407 100.421 42.3428 100.049 42.3454C99.0386 42.3507 98.0286 42.3486 97.0184 42.3449C95.961 42.3419 94.9037 42.3447 93.8464 42.3465C92.0707 42.3487 90.2952 42.3459 88.5196 42.3403C86.467 42.3339 84.4146 42.336 82.362 42.3424C80.5994 42.3477 78.8369 42.3485 77.0743 42.3454C76.0217 42.3436 74.9692 42.3434 73.9166 42.3472C72.927 42.3506 71.9375 42.3483 70.9479 42.3415C70.5848 42.3399 70.2217 42.3404 69.8586 42.343C69.3627 42.3462 68.8673 42.3422 68.3714 42.3363C68.094 42.3359 67.8166 42.3354 67.5308 42.335C66.5793 42.1438 66.2279 41.7592 65.625 41.0156C65.4694 40.4297 65.4694 40.4297 65.4785 39.8438C65.4755 39.6504 65.4725 39.457 65.4694 39.2578C65.8686 37.7549 66.937 37.3535 68.3714 37.3512Z" fill="white"/>
<path d="M61.4383 23.2859C61.7018 23.2838 61.9652 23.2818 62.2367 23.2797C63.1074 23.2745 63.9779 23.2779 64.8486 23.2819C65.4537 23.2811 66.0588 23.2799 66.6638 23.2785C67.9319 23.2767 69.1999 23.2791 70.4679 23.2847C71.9326 23.2911 73.3971 23.289 74.8617 23.2826C76.2725 23.2766 77.6831 23.2773 79.0939 23.2807C79.6934 23.2815 80.293 23.2805 80.8925 23.2778C81.7303 23.2748 82.5677 23.2793 83.4055 23.2859C83.6536 23.2835 83.9018 23.2811 84.1575 23.2787C85.8376 23.303 85.8376 23.303 86.755 23.9963C87.2232 24.66 87.3465 24.9777 87.334 25.7813C87.3385 26.0713 87.3385 26.0713 87.3431 26.3672C87.1058 27.2608 86.7552 27.566 86.0156 28.125C85.1468 28.3011 84.2895 28.2851 83.4055 28.2766C83.142 28.2787 82.8785 28.2807 82.6071 28.2829C81.7363 28.288 80.8659 28.2846 79.9951 28.2806C79.39 28.2814 78.785 28.2826 78.1799 28.284C76.9118 28.2858 75.6439 28.2834 74.3758 28.2778C72.9112 28.2714 71.4467 28.2735 69.982 28.2799C68.5713 28.2859 67.1606 28.2853 65.7499 28.2818C65.1503 28.281 64.5508 28.282 63.9512 28.2847C63.1134 28.2877 62.276 28.2832 61.4383 28.2766C61.1901 28.279 60.942 28.2814 60.6863 28.2838C59.0061 28.2596 59.0061 28.2596 58.0888 27.5662C57.6205 26.9025 57.4972 26.5848 57.5098 25.7813C57.5067 25.5879 57.5037 25.3945 57.5006 25.1953C58.0383 23.1713 59.7011 23.2693 61.4383 23.2859Z" fill="white"/>
<path d="M61.4383 13.9109C61.7018 13.9088 61.9652 13.9068 62.2367 13.9047C63.1074 13.8995 63.9779 13.9029 64.8486 13.9069C65.4537 13.9061 66.0588 13.9049 66.6638 13.9035C67.9319 13.9017 69.1999 13.9041 70.4679 13.9097C71.9326 13.9161 73.3971 13.914 74.8617 13.9076C76.2725 13.9016 77.6831 13.9023 79.0939 13.9057C79.6934 13.9065 80.293 13.9055 80.8925 13.9028C81.7303 13.8998 82.5677 13.9043 83.4055 13.9109C83.6536 13.9085 83.9018 13.9061 84.1575 13.9037C85.8376 13.928 85.8376 13.928 86.755 14.6213C87.2232 15.285 87.3465 15.6027 87.334 16.4063C87.3385 16.6963 87.3385 16.6963 87.3431 16.9922C87.1058 17.8858 86.7552 18.191 86.0156 18.75C85.1468 18.9261 84.2895 18.9101 83.4055 18.9016C83.142 18.9037 82.8785 18.9057 82.6071 18.9079C81.7363 18.913 80.8659 18.9096 79.9951 18.9056C79.39 18.9064 78.785 18.9076 78.1799 18.909C76.9118 18.9108 75.6439 18.9084 74.3758 18.9028C72.9112 18.8964 71.4467 18.8985 69.982 18.9049C68.5713 18.9109 67.1606 18.9103 65.7499 18.9068C65.1503 18.906 64.5508 18.907 63.9512 18.9097C63.1134 18.9127 62.276 18.9082 61.4383 18.9016C61.1901 18.904 60.942 18.9064 60.6863 18.9088C59.0061 18.8846 59.0061 18.8846 58.0888 18.1912C57.6205 17.5275 57.4972 17.2098 57.5098 16.4063C57.5067 16.2129 57.5037 16.0195 57.5006 15.8203C58.0383 13.7963 59.7011 13.8943 61.4383 13.9109Z" fill="white"/>
<path d="M11.7188 37.3535C11.9121 37.3505 12.1055 37.3475 12.3047 37.3444C13.1688 37.5739 13.519 37.9717 14.0625 38.6719C14.2383 39.4482 14.2383 39.4482 14.2969 40.3125C14.5122 42.6018 15.1963 44.8139 16.6406 46.6406C16.7557 46.789 16.8708 46.9373 16.9894 47.0901C18.9729 49.5205 21.7343 50.9273 24.8473 51.2835C25.2898 51.3259 25.7333 51.3567 26.1768 51.3867C27.157 51.6087 27.5194 51.9419 28.125 52.7344C28.2806 53.3203 28.2806 53.3203 28.2715 53.9062C28.276 54.1963 28.276 54.1963 28.2806 54.4922C28.0491 55.3641 27.6677 55.7098 26.9531 56.25C26.2883 56.3723 25.7976 56.4182 25.1367 56.3965C24.9631 56.393 24.7895 56.3896 24.6106 56.386C20.3655 56.2028 16.8055 54.2954 13.8281 51.3281C13.6617 51.1671 13.4952 51.0061 13.3237 50.8401C10.6915 48.117 9.32969 44.2786 9.24317 40.5322C9.23684 40.3648 9.23052 40.1973 9.224 40.0247C9.23071 39.1275 9.35273 38.7015 9.89594 37.9788C10.5843 37.4724 10.8782 37.3404 11.7188 37.3535Z" fill="white"/>
<path d="M59.7656 46.875C60.498 47.3145 60.498 47.3145 60.9375 48.0469C61.1692 49.2249 61.1196 50.0872 60.498 51.1231C59.4621 51.7446 58.5999 51.7943 57.4218 51.5625C56.6894 51.1231 56.6894 51.1231 56.25 50.3906C56.0182 49.2126 56.0679 48.3504 56.6894 47.3145C57.7253 46.6929 58.5876 46.6433 59.7656 46.875Z" fill="white"/>
<path d="M59.7656 37.5C60.498 37.9395 60.498 37.9395 60.9375 38.6719C61.1692 39.8499 61.1196 40.7122 60.498 41.7481C59.4621 42.3696 58.5999 42.4193 57.4218 42.1875C56.6894 41.7481 56.6894 41.7481 56.25 41.0156C56.0182 39.8376 56.0679 38.9754 56.6894 37.9395C57.7253 37.3179 58.5876 37.2683 59.7656 37.5Z" fill="white"/>
</g>
<defs>
<clipPath id="clip0_77_4495">
<rect width="120" height="120" fill="white"/>
</clipPath>
</defs>
</svg>
