<svg width="121" height="120" viewBox="0 0 121 120" fill="none" xmlns="http://www.w3.org/2000/svg">
<g clip-path="url(#clip0_77_4507)">
<path d="M72.107 -0.117184C72.3755 -0.114352 72.6441 -0.111519 72.9207 -0.108601C85.8876 0.184567 98.0702 6.34438 106.956 15.6068C115.311 24.5231 119.834 36.414 120.051 48.5742C120.057 48.778 120.064 48.9819 120.07 49.1919C120.074 50.5732 119.876 51.3941 119.026 52.5C117.622 53.5306 116.476 53.5678 114.768 53.5439C114.509 53.5441 114.251 53.5442 113.984 53.5443C113.133 53.5437 112.283 53.5364 111.432 53.5291C110.84 53.5273 110.249 53.526 109.657 53.525C108.262 53.5218 106.867 53.5144 105.472 53.505C103.882 53.4945 102.293 53.4894 100.704 53.4847C97.436 53.4749 94.1685 53.4584 90.901 53.4375C90.9423 53.5706 90.9837 53.7038 91.0263 53.841C91.8012 56.3616 92.5317 58.7483 92.5416 61.4063C92.8399 61.4042 93.1381 61.4021 93.4454 61.3999C96.2593 61.3809 99.0732 61.3669 101.887 61.3577C103.334 61.3528 104.78 61.3462 106.227 61.3355C107.623 61.3253 109.02 61.3197 110.416 61.3173C110.949 61.3156 111.481 61.3122 112.013 61.3071C112.76 61.3003 113.507 61.2994 114.253 61.2998C114.582 61.2948 114.582 61.2948 114.917 61.2896C116.323 61.2984 117.384 61.5447 118.557 62.3438C119.549 63.3668 119.609 64.2854 119.613 65.6471C119.608 65.8863 119.603 66.1256 119.597 66.3721C119.592 66.7473 119.592 66.7473 119.587 67.13C119.311 78.8842 113.56 89.2794 105.359 97.3911C102.047 100.428 102.047 100.428 99.9391 100.62C98.2507 100.472 97.4227 99.6536 96.3676 98.4155C95.4597 97.2803 94.5948 96.114 93.729 94.9466C93.0832 94.0777 92.422 93.2223 91.7506 92.3731C90.7044 91.0497 89.6656 89.7208 88.6305 88.3887C88.484 88.2002 88.3375 88.0117 88.1865 87.8175C87.8413 87.3732 87.4961 86.9288 87.151 86.4844C86.6936 87.0548 86.2373 87.6259 85.7859 88.201C84.3822 89.9814 82.9064 91.6883 81.2916 93.2813C81.6156 94.2263 82.0511 94.8673 82.6978 95.625C83.7944 96.9346 84.84 98.2779 85.8752 99.636C86.2559 100.134 86.6393 100.629 87.0228 101.125C87.2999 101.484 87.577 101.843 87.8541 102.202C87.9864 102.372 88.1186 102.543 88.2549 102.718C88.3788 102.879 88.5028 103.04 88.6305 103.206C88.7959 103.42 88.7959 103.42 88.9646 103.639C89.5174 104.431 89.7972 105.055 89.8023 106.025C89.8063 106.196 89.8102 106.367 89.8142 106.544C89.5631 108.212 88.5193 109.056 87.2617 110.042C85.6619 111.215 83.9464 112.214 82.2291 113.203C82.0665 113.297 81.9039 113.392 81.7364 113.489C70.6662 119.842 56.7102 121.752 44.2603 119.063C43.9108 118.987 43.9108 118.987 43.5541 118.91C31.6631 116.25 20.5995 109.483 13.0885 99.8438C12.8157 99.5107 12.8157 99.5107 12.5373 99.1708C6.79811 92.0196 3.24474 83.0714 1.83847 74.0625C1.81067 73.8868 1.78288 73.7111 1.75424 73.53C0.357747 64.2304 1.67854 54.4152 5.11972 45.7031C5.184 45.5397 5.24827 45.3762 5.3145 45.2078C8.64194 36.8912 14.4665 29.1865 21.526 23.6719C21.8677 23.3945 21.8677 23.3945 22.2163 23.1116C24.2912 21.4578 26.4992 20.0817 28.7916 18.75C28.9358 18.6648 29.08 18.5797 29.2286 18.4919C36.5467 14.2037 45.3662 11.9347 53.8258 11.8945C54.0848 11.8897 54.3439 11.8849 54.6108 11.8799C54.8608 11.8787 55.1109 11.8775 55.3684 11.8762C55.5929 11.874 55.8173 11.8718 56.0485 11.8696C57.1896 12.02 58.0869 12.6646 58.7953 13.5697C59.3426 14.7391 59.1959 16.1117 59.1917 17.3785C59.1948 17.7023 59.1983 18.0261 59.2024 18.3499C59.2117 19.1984 59.2141 20.0467 59.2151 20.8952C59.2173 21.7625 59.226 22.6297 59.2342 23.497C59.2494 25.1959 59.2572 26.8948 59.2603 28.5938C59.5437 28.6336 59.8271 28.6735 60.1191 28.7146C60.5067 28.7719 60.8943 28.8292 61.2818 28.8867C61.4667 28.9124 61.6516 28.9381 61.8421 28.9645C63.6062 29.2306 65.2897 29.7202 66.9947 30.2344C66.9939 30.0919 66.993 29.9495 66.9921 29.8027C66.9714 26.3344 66.9559 22.8661 66.9461 19.3978C66.9413 17.7205 66.9347 16.0433 66.924 14.366C66.9146 12.9039 66.9086 11.4417 66.9065 9.97956C66.9053 9.20555 66.9019 8.43165 66.8956 7.65767C66.8888 6.79295 66.8879 5.92841 66.8883 5.06367C66.8849 4.80793 66.8815 4.55219 66.8781 4.28869C66.8859 2.85777 66.9755 2.02573 67.9322 0.937504C69.1908 -0.236921 70.4763 -0.144835 72.107 -0.117184ZM74.2603 7.26563C74.2055 10.6598 74.1644 14.0539 74.1389 17.4483C74.1268 19.0246 74.1104 20.6006 74.0835 22.1767C74.0581 23.6979 74.044 25.2188 74.038 26.7402C74.0336 27.3204 74.0252 27.9007 74.0125 28.4808C73.9955 29.2941 73.9932 30.1062 73.9943 30.9197C73.9858 31.1593 73.9774 31.3988 73.9687 31.6456C73.9837 32.6803 74.0143 33.2732 74.7714 34.0193C75.3665 34.4386 75.9693 34.801 76.6041 35.1563C76.879 35.3504 77.1507 35.5493 77.4171 35.755C77.7688 36.0242 77.7688 36.0242 78.1275 36.2988C81.5501 38.9461 85.1792 42.2283 87.151 46.1719C95.5041 46.1719 103.857 46.1719 112.463 46.1719C112.463 44.4104 112.326 43.0016 111.98 41.3086C111.928 41.0527 111.876 40.7968 111.822 40.5331C109.46 29.4395 102.823 19.9265 93.3235 13.7311C87.9293 10.3152 81.7369 7.98698 75.3646 7.37217C75.1569 7.35196 74.9491 7.33174 74.735 7.31091C74.5784 7.29597 74.4217 7.28102 74.2603 7.26563ZM22.9322 32.3438C22.8153 32.4543 22.6984 32.5648 22.5779 32.6787C20.7046 34.4563 19.0629 36.351 17.5416 38.4375C17.4432 38.5724 17.3448 38.7073 17.2434 38.8463C9.96962 48.9648 7.24109 61.6122 9.2222 73.8631C10.5263 81.3565 13.5456 88.4515 18.2447 94.4531C18.3466 94.5844 18.4484 94.7157 18.5534 94.8509C25.4759 103.666 35.3952 109.784 46.3697 112.031C46.5504 112.07 46.7311 112.108 46.9172 112.148C57.2832 114.259 68.276 112.228 77.5416 107.344C77.8002 107.209 78.0588 107.075 78.3253 106.936C79.6832 106.233 79.6832 106.233 80.8228 105.234C78.9591 102.804 77.0801 100.385 75.1978 97.9688C74.3606 98.2825 73.5737 98.6617 72.7808 99.074C64.0412 103.595 53.6214 104.507 44.2034 101.63C41.8399 100.866 39.6355 99.8705 37.4635 98.6719C37.2136 98.5368 36.9638 98.4018 36.7063 98.2626C33.8357 96.6546 31.3969 94.5995 29.026 92.3438C28.8628 92.1957 28.6997 92.0477 28.5316 91.8951C25.861 89.3901 23.8916 86.2015 22.2291 82.9688C22.1545 82.8266 22.08 82.6845 22.0032 82.5381C17.5572 73.9782 17.09 63.507 19.9494 54.3832C21.7915 48.8433 24.7971 44.0724 28.7916 39.8438C28.9544 39.6685 29.1173 39.4933 29.2851 39.3127C31.6716 36.8262 34.4625 34.9425 37.4635 33.2813C37.613 33.1984 37.7626 33.1156 37.9167 33.0303C42.2518 30.6676 46.8782 29.4384 51.7603 28.8281C51.7603 25.657 51.7603 22.4859 51.7603 19.2188C41.1632 19.2188 30.3746 25.2163 22.9322 32.3438ZM42.151 38.9063C41.9108 39.0238 41.6706 39.1413 41.4231 39.2624C39.4499 40.2691 37.7487 41.4753 36.0572 42.8906C35.8204 43.0885 35.5835 43.2864 35.3394 43.4903C29.4268 48.6716 25.8562 56.1552 25.276 63.9844C24.875 71.8283 27.3286 79.6251 32.5416 85.5469C32.705 85.7414 32.8685 85.936 33.0369 86.1365C35.2403 88.6984 37.7947 90.7009 40.7447 92.3438C40.9997 92.4858 41.2547 92.6278 41.5174 92.7741C48.2821 96.3435 56.09 97.1721 63.4791 95.1563C63.7746 95.0795 64.0701 95.0028 64.3745 94.9237C68.2554 93.7754 71.9078 91.6996 74.9635 89.0625C75.1889 88.8722 75.4142 88.6818 75.6465 88.4857C81.5781 83.3058 85.1088 75.8627 85.6652 68.0415C86.1198 60.0009 83.5527 52.2423 78.2447 46.1719C78.1024 46.0012 77.9601 45.8305 77.8135 45.6546C73.9438 41.0653 68.2991 38.0209 62.5416 36.5625C62.3818 36.5212 62.222 36.4798 62.0574 36.4372C55.4609 34.8063 48.1779 35.8623 42.151 38.9063ZM92.776 68.6719C92.5439 70.2961 92.3119 71.9203 92.0728 73.5938C91.8339 74.521 91.598 75.402 91.2965 76.3037C91.1624 76.7083 91.0314 77.1138 90.9037 77.5205C90.8468 77.6904 90.7899 77.8604 90.7313 78.0355C90.6105 78.9317 91.1879 79.5626 91.7057 80.2496C91.8738 80.4735 91.8738 80.4735 92.0453 80.7018C92.1655 80.8601 92.2858 81.0185 92.4098 81.1816C92.5983 81.4314 92.5983 81.4314 92.7907 81.6862C93.7906 83.0061 94.8089 84.3108 95.8366 85.6091C96.3569 86.2673 96.8713 86.9298 97.3838 87.594C97.5307 87.7841 97.6776 87.9741 97.8289 88.17C98.1162 88.5421 98.403 88.9147 98.6892 89.2876C99.3343 90.122 99.9694 90.9205 100.745 91.6406C105.854 86.8269 109.442 80.589 111.277 73.8428C111.347 73.5898 111.347 73.5898 111.419 73.3317C111.821 71.7473 111.864 70.3662 111.995 68.6719C105.653 68.6719 99.3103 68.6719 92.776 68.6719Z" fill="white"/>
<path d="M56.6822 42.1875C57.8336 42.7418 58.4243 43.4141 59.026 44.5312C59.1345 45.2687 59.1154 45.9852 59.0846 46.7285C59.0803 46.9234 59.0761 47.1182 59.0717 47.319C59.0608 47.7961 59.044 48.2731 59.026 48.75C59.2689 48.7446 59.5118 48.7391 59.7621 48.7335C62.76 48.7881 65.3329 50.1226 67.544 52.0761C68.6388 53.2716 68.7604 54.2306 68.7177 55.8087C68.5737 56.9897 68.0682 57.6003 67.1559 58.3154C65.7671 58.9291 64.6877 58.8939 63.2923 58.3813C62.5995 58.0374 62.0812 57.59 61.5345 57.0474C60.4632 56.1653 59.2806 56.178 57.9502 56.1795C57.6612 56.178 57.6612 56.178 57.3663 56.1765C56.9599 56.1751 56.5535 56.175 56.1472 56.176C55.5278 56.1767 54.9088 56.1712 54.2895 56.1653C53.8935 56.1648 53.4976 56.1646 53.1016 56.1648C52.9177 56.1627 52.7338 56.1605 52.5444 56.1583C51.2228 56.1694 50.2265 56.4172 49.2262 57.3486C48.8239 58.132 48.6849 58.8938 48.7135 59.7656C49.0669 60.7514 49.4508 61.3386 50.3541 61.875C51.2911 62.1873 52.195 62.1458 53.1721 62.1506C53.6045 62.156 54.037 62.1617 54.4694 62.1675C55.1476 62.1757 55.8258 62.1826 56.504 62.1858C60.51 62.2082 63.7922 62.5135 66.8199 65.4309C69.0506 67.8137 69.7685 70.3571 69.8072 73.5937C69.6351 76.4656 68.3206 78.8649 66.2403 80.8136C64.0547 82.5387 61.7627 83.2315 59.026 83.2031C59.0382 83.6395 59.0382 83.6395 59.0507 84.0848C59.0573 84.4696 59.0637 84.8544 59.0699 85.2392C59.0758 85.4306 59.0817 85.622 59.0878 85.8192C59.1014 86.9448 59.0548 87.6797 58.3228 88.5937C57.1557 89.6186 56.4785 89.8492 54.95 89.8315C53.9788 89.7268 53.4786 89.4177 52.6978 88.8281C51.7589 87.5762 51.727 86.4255 51.7457 84.9023C51.7468 84.7389 51.7478 84.5754 51.7489 84.407C51.7517 84.0057 51.7559 83.6044 51.7603 83.2031C51.4703 83.2176 51.1803 83.2321 50.8814 83.2471C48.2754 83.2348 45.5275 82.3609 43.6598 80.4932C42.861 79.1387 42.7148 78.1759 43.0885 76.6406C43.6225 75.6107 44.1324 75.002 45.1978 74.5312C46.7871 74.1486 47.9369 74.4507 49.329 75.2463C50.4238 75.7976 51.3806 75.8356 52.5898 75.8194C52.9008 75.8199 52.9008 75.8199 53.218 75.8204C53.6533 75.82 54.0886 75.8173 54.5239 75.8125C55.1879 75.8057 55.8515 75.8076 56.5156 75.8107C56.9404 75.8092 57.3652 75.8073 57.79 75.8047C58.0856 75.8058 58.0856 75.8058 58.3871 75.8068C59.7447 75.7852 60.7941 75.5756 61.7945 74.5752C62.2339 73.7658 62.3877 73.0998 62.2212 72.182C61.8851 71.0659 61.5068 70.6252 60.4537 70.0438C59.5714 69.6837 58.6979 69.7212 57.757 69.7339C57.5481 69.7322 57.3392 69.7306 57.1239 69.7289C56.2376 69.722 55.3514 69.7258 54.4652 69.7287C50.3217 69.7323 47.1612 69.3073 43.982 66.416C42.0923 64.4433 41.2361 61.9075 41.1402 59.2236C41.199 56.7499 41.9256 54.7573 43.3228 52.7344C43.4582 52.5265 43.5935 52.3186 43.733 52.1045C45.6467 50.1376 48.2463 48.7807 51.0133 48.7353C51.2598 48.7402 51.5063 48.745 51.7603 48.75C51.7481 48.3979 51.7481 48.3979 51.7356 48.0386C51.6559 44.832 51.6559 44.832 52.4635 43.5937C53.7802 42.2594 54.8485 41.9872 56.6822 42.1875Z" fill="white"/>
</g>
<defs>
<clipPath id="clip0_77_4507">
<rect width="120" height="120" fill="white" transform="translate(0.666595)"/>
</clipPath>
</defs>
</svg>
