<svg width="120" height="120" viewBox="0 0 120 120" fill="none" xmlns="http://www.w3.org/2000/svg">
<path d="M18.3577 1.60916C18.6586 1.60812 18.9595 1.60707 19.2695 1.606C19.603 1.60602 19.9364 1.60606 20.2698 1.60613C20.6245 1.60536 20.9791 1.60448 21.3337 1.60352C22.3085 1.60117 23.2834 1.6003 24.2582 1.59968C25.3095 1.59876 26.3608 1.59652 27.4121 1.59447C29.9513 1.58984 32.4905 1.58748 35.0297 1.58539C36.2259 1.58437 37.4221 1.58311 38.6183 1.58188C42.5956 1.57789 46.5729 1.5745 50.5502 1.5728C51.5822 1.57235 52.6141 1.5719 53.6461 1.57144C54.0308 1.57127 54.0308 1.57127 54.4233 1.5711C58.5769 1.56915 62.7305 1.56322 66.8841 1.5556C71.1501 1.54785 75.416 1.54363 79.6819 1.54288C82.0765 1.54237 84.471 1.54033 86.8656 1.53434C88.9051 1.52924 90.9447 1.52736 92.9842 1.52964C94.0242 1.5307 95.064 1.53027 96.104 1.52571C97.0577 1.52157 98.0113 1.52182 98.965 1.52545C99.3083 1.52601 99.6517 1.52501 99.9951 1.52221C102.963 1.49957 105.824 1.85901 108.047 3.98437C110.491 6.40804 111.141 8.86025 111.159 12.2442C111.158 12.5576 111.157 12.871 111.156 13.1844C111.157 13.5216 111.158 13.8589 111.16 14.1961C111.163 15.1186 111.162 16.041 111.162 16.9635C111.162 17.96 111.164 18.9564 111.167 19.9529C111.171 21.903 111.172 23.8532 111.172 25.8034C111.172 27.3881 111.173 28.9729 111.175 30.5577C111.179 35.0516 111.181 39.5455 111.181 44.0394C111.181 44.2814 111.181 44.5235 111.181 44.7729C111.181 45.0152 111.181 45.2576 111.181 45.5073C111.18 49.4392 111.185 53.3711 111.191 57.3029C111.198 61.3409 111.201 65.3788 111.201 69.4167C111.201 71.6835 111.202 73.9502 111.207 76.217C111.212 78.1459 111.213 80.0747 111.209 82.0035C111.208 82.9877 111.208 83.9719 111.212 84.9561C111.216 85.8569 111.215 86.7576 111.211 87.6584C111.21 87.9844 111.211 88.3103 111.214 88.6363C111.236 91.6472 111.236 91.6472 110.156 92.8125C109.753 93.2181 109.753 93.2181 109.336 93.5596C108.496 94.2665 107.681 94.997 106.875 95.7422C106.102 96.4546 105.326 97.1629 104.531 97.8516C103.622 98.6398 102.737 99.4531 101.852 100.268C100.721 101.307 99.5805 102.334 98.4375 103.359C98.0469 103.711 97.6562 104.062 97.2657 104.414C95.7032 105.82 94.1407 107.227 92.5782 108.633C92.3842 108.807 92.1902 108.982 91.9904 109.162C91.6061 109.508 91.2216 109.853 90.8368 110.198C89.7609 111.164 88.6912 112.136 87.627 113.115C86.7058 113.962 85.7778 114.799 84.831 115.617C84.4895 115.916 84.152 116.219 83.8166 116.524C83.6287 116.694 83.4407 116.865 83.2471 117.041C83.0764 117.198 82.9057 117.354 82.7298 117.515C81.9975 118.107 81.3769 118.154 80.4687 118.156C80.1295 118.157 80.1295 118.157 79.7835 118.159C79.5345 118.158 79.2856 118.158 79.0291 118.158C78.765 118.159 78.501 118.159 78.2289 118.16C77.3394 118.162 76.4498 118.162 75.5603 118.163C74.9244 118.164 74.2885 118.165 73.6525 118.166C71.9213 118.169 70.1901 118.171 68.4588 118.172C67.3775 118.173 66.2963 118.174 65.215 118.175C62.2206 118.177 59.2263 118.18 56.2319 118.181C55.9444 118.181 55.9444 118.181 55.651 118.181C55.4589 118.181 55.2667 118.181 55.0688 118.181C54.6794 118.181 54.29 118.181 53.9006 118.181C53.6109 118.181 53.6109 118.181 53.3153 118.181C50.188 118.182 47.0607 118.186 43.9334 118.192C40.7218 118.197 37.5103 118.2 34.2987 118.201C32.4959 118.201 30.6931 118.202 28.8902 118.207C27.3545 118.21 25.8188 118.211 24.283 118.209C23.5 118.208 22.717 118.209 21.934 118.212C21.0834 118.215 20.233 118.214 19.3825 118.211C19.0145 118.214 19.0145 118.214 18.6391 118.217C15.768 118.198 13.5548 117.333 11.4405 115.4C9.67882 113.573 9.11222 111.375 9.10987 108.902C9.10938 108.73 9.1089 108.558 9.10841 108.381C9.10708 107.803 9.10742 107.225 9.10775 106.647C9.10715 106.229 9.10644 105.811 9.10564 105.393C9.10375 104.243 9.10333 103.093 9.10316 101.944C9.10273 100.704 9.10096 99.4642 9.09938 98.2246C9.09619 95.5133 9.09478 92.802 9.09375 90.0907C9.0931 88.398 9.09211 86.7053 9.09105 85.0125C9.0882 80.3265 9.08578 75.6405 9.08499 70.9544C9.08494 70.6545 9.08489 70.3545 9.08483 70.0455C9.08478 69.7448 9.08473 69.4442 9.08468 69.1344C9.08457 68.5251 9.08447 67.9158 9.08436 67.3065C9.08429 66.8532 9.08429 66.8532 9.08421 66.3907C9.08328 61.4932 9.07919 56.5957 9.07373 51.6982C9.06818 46.6709 9.06525 41.6435 9.06498 36.6161C9.06477 33.7931 9.06342 30.9701 9.05916 28.1471C9.05556 25.7433 9.05435 23.3395 9.05629 20.9358C9.05721 19.7094 9.05699 18.483 9.0537 17.2566C9.05071 16.1334 9.05099 15.0103 9.05384 13.887C9.0543 13.4812 9.05357 13.0754 9.05153 12.6696C9.03578 9.32754 9.3779 6.70669 11.7279 4.17205C13.6258 2.35805 15.7537 1.61336 18.3577 1.60916ZM14.0772 7.51465C13.9446 7.67205 13.8119 7.82946 13.6753 7.99164C13.0333 8.89783 13.0948 9.73331 13.0929 10.8105C13.0923 10.9825 13.0917 11.1545 13.091 11.3317C13.0892 11.9125 13.0891 12.4933 13.089 13.0742C13.088 13.493 13.087 13.9119 13.0859 14.3307C13.0831 15.4853 13.0817 16.6398 13.0807 17.7944C13.0793 19.0382 13.0765 20.282 13.074 21.5258C13.0683 24.5313 13.0649 27.5368 13.0618 30.5423C13.061 31.3909 13.06 32.2394 13.0591 33.088C13.0532 38.3549 13.048 43.6218 13.0451 48.8887C13.0444 50.109 13.0437 51.3293 13.043 52.5496C13.0428 52.8529 13.0426 53.1562 13.0425 53.4687C13.0395 58.384 13.0317 63.2993 13.0219 68.2145C13.012 73.2583 13.0065 78.3021 13.0053 83.3459C13.0045 86.1788 13.0017 89.0118 12.994 91.8447C12.9874 94.257 12.9848 96.6693 12.9875 99.0816C12.9887 100.313 12.988 101.544 12.9822 102.775C12.9769 103.902 12.9771 105.029 12.9815 106.156C12.9822 106.563 12.9809 106.971 12.9774 107.379C12.8965 110.284 12.8965 110.284 14.2969 112.734C15.4023 113.855 16.4181 114.391 17.9929 114.433C18.4562 114.435 18.9195 114.434 19.3828 114.431C19.7662 114.432 19.7662 114.432 20.1573 114.433C21.0152 114.433 21.8731 114.431 22.731 114.428C23.3454 114.428 23.9598 114.428 24.5742 114.428C25.8977 114.429 27.2212 114.427 28.5448 114.425C30.4583 114.421 32.3719 114.42 34.2855 114.419C37.3902 114.418 40.4949 114.415 43.5996 114.41C46.6154 114.406 49.6312 114.403 52.647 114.401C52.9259 114.401 52.9259 114.401 53.2104 114.4C54.1431 114.4 55.0758 114.399 56.0084 114.399C63.7452 114.394 71.482 114.385 79.2188 114.375C79.2216 113.924 79.2216 113.924 79.2245 113.463C79.2427 110.632 79.2632 107.8 79.2862 104.969C79.2979 103.513 79.3088 102.057 79.3177 100.601C79.3263 99.1972 79.3372 97.7931 79.3496 96.3889C79.3539 95.8524 79.3575 95.3159 79.3602 94.7795C79.3641 94.0297 79.3709 93.28 79.3784 92.5302C79.3792 92.1954 79.3792 92.1954 79.38 91.8539C79.3839 91.5477 79.3839 91.5477 79.3879 91.2354C79.3892 91.058 79.3905 90.8807 79.3918 90.6979C79.4532 90.2344 79.4532 90.2344 79.9219 89.5312C80.5971 89.2815 81.2448 89.2655 81.9598 89.2598C82.18 89.2575 82.4002 89.2552 82.627 89.2528C82.8669 89.2515 83.1068 89.2501 83.354 89.2488C83.6079 89.2464 83.8618 89.2441 84.1233 89.2417C84.9628 89.2343 85.8024 89.2285 86.6419 89.2227C87.2238 89.2179 87.8058 89.213 88.3877 89.208C89.7631 89.1963 91.1385 89.1857 92.5138 89.1756C94.2336 89.1629 95.9533 89.1486 97.6731 89.1344C100.74 89.1092 103.808 89.0853 106.875 89.0625C106.902 78.9128 106.923 68.7632 106.935 58.6135C106.936 57.4154 106.938 56.2173 106.939 55.0192C106.94 54.7807 106.94 54.5421 106.94 54.2964C106.945 50.4336 106.955 46.5709 106.965 42.7082C106.976 38.745 106.983 34.7818 106.985 30.8187C106.987 28.3729 106.992 25.9272 107.002 23.4815C107.008 21.8047 107.01 20.1278 107.008 18.451C107.007 17.4833 107.008 16.5158 107.015 15.5481C107.02 14.6618 107.021 13.7756 107.017 12.8893C107.016 12.4177 107.021 11.946 107.026 11.4745C107.01 9.53666 106.723 8.30852 105.357 6.91134C104.194 5.86979 103.174 5.56665 101.639 5.5647C101.337 5.56319 101.036 5.56168 100.725 5.56012C100.391 5.56081 100.057 5.56154 99.7224 5.56232C99.3669 5.56144 99.0115 5.56037 98.656 5.5591C97.6789 5.55623 96.7018 5.5563 95.7247 5.55685C94.671 5.55694 93.6173 5.55436 92.5637 5.55213C90.4991 5.54824 88.4347 5.54695 86.3701 5.54669C84.6922 5.54647 83.0142 5.5455 81.3362 5.54402C76.5797 5.53989 71.8233 5.53773 67.0669 5.53808C66.8104 5.5381 66.5539 5.53812 66.2897 5.53814C66.0329 5.53816 65.7761 5.53817 65.5115 5.53819C61.3495 5.53838 57.1875 5.5339 53.0255 5.52729C48.753 5.52056 44.4804 5.51732 40.2079 5.51772C37.8088 5.51788 35.4097 5.51659 33.0106 5.51155C30.968 5.50728 28.9254 5.50626 26.8828 5.50944C25.8407 5.51097 24.7986 5.51099 23.7564 5.50693C22.8021 5.50325 21.8478 5.50391 20.8935 5.508C20.5485 5.50873 20.2036 5.50787 19.8586 5.50526C17.5178 5.48872 15.657 5.5854 14.0772 7.51465ZM82.9688 93.0469C82.9688 99.2344 82.9688 105.422 82.9688 111.797C84.1463 110.914 85.0771 110.19 86.0715 109.165C86.6289 108.605 87.224 108.096 87.822 107.58C88.4694 107.013 89.1033 106.432 89.7364 105.85C90.789 104.881 91.8485 103.921 92.9133 102.966C93.5964 102.349 94.274 101.727 94.9512 101.104C95.7099 100.406 96.4715 99.7126 97.251 99.0381C98.2297 98.1902 99.176 97.3083 100.125 96.4271C100.991 95.6236 101.872 94.8399 102.776 94.0787C103.183 93.7199 103.183 93.7199 103.594 93.0469C96.7875 93.0469 89.9813 93.0469 82.9688 93.0469Z" fill="white"/>
<path d="M33.5156 67.5C34.1895 67.8955 34.1895 67.8955 34.6875 68.6719C34.7853 69.6949 34.755 70.6944 34.6875 71.7188C34.8833 71.7704 34.8833 71.7704 35.083 71.8231C37.5275 72.5416 39.3308 74.1058 40.6055 76.3037C41.2805 77.7503 41.7325 79.7266 41.3031 81.2814C41.0156 81.7969 41.0156 81.7969 40.3125 82.2656C39.3365 82.3922 38.8474 82.3787 38.0127 81.8408C37.3905 80.9341 37.3079 80.2087 37.1512 79.1373C36.8643 77.6505 35.8439 76.7987 34.6875 75.9375C33.4304 75.5185 32.1357 75.5413 30.8789 75.9522C29.5279 76.904 28.679 78.0131 28.2193 79.6097C27.9678 81.0674 28.2415 82.4404 29.0625 83.6719C30.2257 84.9285 31.3106 85.4248 33.0258 85.6275C35.7648 85.967 37.9351 86.8007 39.6991 88.9966C41.236 91.1645 41.679 93.4772 41.3727 96.1148C40.9039 98.7213 39.433 100.614 37.3242 102.188C36.4153 102.747 35.7604 103.125 34.6875 103.125C34.7011 103.331 34.7147 103.538 34.7287 103.75C34.8148 105.967 34.8148 105.967 34.2041 106.948C33.3436 107.443 32.8532 107.486 31.875 107.344C31.1285 106.931 30.9766 106.758 30.7031 105.938C30.7113 105.711 30.7194 105.485 30.7278 105.252C30.7486 104.393 30.7187 103.715 30.4687 102.891C29.6153 102.21 28.6661 101.879 27.6562 101.484C25.957 100.47 24.8 98.5384 24.2514 96.6724C24.0374 95.5547 23.9343 94.4039 24.1406 93.2813C24.5727 92.7162 24.8536 92.4034 25.5469 92.2192C26.317 92.2313 26.827 92.274 27.5098 92.6514C27.9138 93.3196 27.9845 93.7333 28.0957 94.4971C28.3396 96.0696 28.9241 97.3133 30.2005 98.3075C31.337 98.9563 32.4631 99.1267 33.75 98.9063C35.3557 98.3922 36.2628 97.4781 37.1045 96.0352C37.4944 94.4757 37.4555 93.0047 36.6357 91.5985C35.7591 90.3827 34.9344 89.7466 33.4424 89.4727C32.9985 89.4106 32.5542 89.352 32.1094 89.2969C29.6337 88.9098 27.7423 88.1266 26.0156 86.25C24.2781 83.859 23.854 81.4263 24.1406 78.5156C24.688 75.8576 26.2627 73.9806 28.4894 72.5098C29.2253 72.0959 29.8769 71.8804 30.7031 71.7188C30.6909 71.4641 30.6909 71.4641 30.6784 71.2042C30.6125 68.8515 30.6125 68.8515 31.4062 67.7344C32.1946 67.4716 32.6895 67.4009 33.5156 67.5Z" fill="white"/>
<path d="M26.7357 38.1441C26.9771 38.1429 27.2184 38.1416 27.467 38.1404C27.7317 38.1414 27.9965 38.1425 28.2693 38.1435C28.5508 38.1428 28.8323 38.1421 29.1223 38.1413C29.9041 38.1398 30.6858 38.1403 31.4675 38.1418C32.3104 38.1428 33.1533 38.1412 33.9963 38.1399C35.6477 38.1378 37.2991 38.1383 38.9505 38.1396C40.2924 38.1407 41.6343 38.1409 42.9762 38.1403C43.1671 38.1403 43.3579 38.1402 43.5545 38.1401C43.9422 38.14 44.3299 38.1398 44.7175 38.1397C48.3544 38.1383 51.9913 38.1399 55.6281 38.1424C58.7501 38.1445 61.872 38.1441 64.994 38.142C68.6176 38.1394 72.2413 38.1385 75.865 38.1399C76.2512 38.14 76.6375 38.1402 77.0238 38.1403C77.3088 38.1404 77.3088 38.1404 77.5997 38.1406C78.9403 38.141 80.2809 38.1403 81.6215 38.1392C83.2548 38.1379 84.8881 38.1382 86.5214 38.1407C87.355 38.1419 88.1887 38.1424 89.0223 38.1409C89.9251 38.1392 90.8279 38.1412 91.7307 38.1435C91.9955 38.1425 92.2602 38.1415 92.533 38.1404C92.7743 38.1416 93.0156 38.1428 93.2643 38.1441C93.4727 38.1442 93.6812 38.1442 93.8959 38.1443C94.5093 38.209 94.8795 38.3276 95.3906 38.6718C95.7395 39.5124 95.9166 40.0608 95.7129 40.957C95.347 41.5557 95.048 41.8186 94.4531 42.1874C93.8962 42.2758 93.8962 42.2758 93.2649 42.2766C93.0237 42.2786 92.7826 42.2805 92.5341 42.2826C92.2695 42.2812 92.0049 42.2798 91.7323 42.2783C91.451 42.2796 91.1696 42.2808 90.8797 42.2821C90.0984 42.2849 89.3172 42.2845 88.536 42.2828C87.6935 42.2817 86.851 42.2846 86.0086 42.287C84.358 42.291 82.7075 42.2912 81.0569 42.29C79.7156 42.2891 78.3742 42.2894 77.0329 42.2907C76.8421 42.2908 76.6513 42.291 76.4548 42.2912C76.0672 42.2915 75.6797 42.2919 75.2922 42.2923C71.6564 42.2955 68.0207 42.2942 64.3849 42.2915C61.0575 42.2892 57.7302 42.2922 54.4028 42.2978C50.9875 42.3035 47.5723 42.3058 44.1571 42.3042C42.2391 42.3034 40.3212 42.304 38.4033 42.3081C36.7706 42.3115 35.1379 42.3117 33.5052 42.3076C32.672 42.3056 31.8388 42.3051 31.0056 42.3087C30.1028 42.3125 29.2002 42.3091 28.2974 42.3049C28.0334 42.3072 27.7693 42.3094 27.4973 42.3117C25.7281 42.2949 25.7281 42.2949 24.8028 41.7461C24.2931 41.1549 24.1592 40.8579 24.1406 40.0781C24.4166 38.7985 24.4166 38.7985 25.023 38.3999C25.6285 38.1724 26.0893 38.1443 26.7357 38.1441Z" fill="white"/>
<path d="M26.4798 56.4248C26.7223 56.4234 26.9648 56.422 27.2146 56.4206C27.4818 56.4215 27.7491 56.4224 28.0244 56.4233C28.3077 56.4224 28.5909 56.4215 28.8827 56.4206C29.6703 56.4186 30.4579 56.4187 31.2455 56.4197C32.0943 56.4203 32.9432 56.4182 33.792 56.4164C35.4555 56.4134 37.119 56.413 38.7825 56.4136C40.1343 56.414 41.486 56.4136 42.8378 56.4126C43.0299 56.4124 43.2221 56.4123 43.4201 56.4122C43.8105 56.4119 44.2008 56.4116 44.5912 56.4113C48.2545 56.4087 51.9177 56.4093 55.5809 56.4107C58.9343 56.4119 62.2876 56.4093 65.6409 56.4048C69.0818 56.4003 72.5227 56.3983 75.9637 56.3992C77.8964 56.3997 79.8291 56.3991 81.7618 56.3958C83.4072 56.393 85.0525 56.3926 86.6978 56.3955C87.5376 56.3969 88.3774 56.3971 89.2172 56.3943C90.1267 56.3913 91.0362 56.3937 91.9457 56.3967C92.2124 56.395 92.4791 56.3933 92.7539 56.3915C92.997 56.3932 93.2401 56.3949 93.4906 56.3966C93.7006 56.3966 93.9106 56.3966 94.127 56.3966C94.8091 56.5035 95.1284 56.7137 95.6249 57.1876C95.8635 57.9715 95.8995 58.4465 95.6835 59.2383C95.3906 59.7657 95.3906 59.7657 94.6874 60.2344C94.1564 60.2935 94.1564 60.2935 93.5201 60.2941C93.1564 60.2961 93.1564 60.2961 92.7853 60.2982C92.518 60.2973 92.2508 60.2964 91.9754 60.2955C91.5506 60.2969 91.5506 60.2969 91.1172 60.2982C90.3296 60.3002 89.542 60.3001 88.7544 60.2991C87.9056 60.2986 87.0567 60.3007 86.2079 60.3024C84.5444 60.3054 82.8809 60.3058 81.2173 60.3053C79.8656 60.3049 78.5138 60.3053 77.1621 60.3063C76.9699 60.3064 76.7778 60.3066 76.5798 60.3067C76.1894 60.307 75.799 60.3073 75.4087 60.3076C71.7454 60.3101 68.0822 60.3096 64.4189 60.3082C61.0656 60.307 57.7123 60.3096 54.359 60.314C50.918 60.3186 47.4771 60.3205 44.0362 60.3196C42.1035 60.3192 40.1708 60.3198 38.238 60.3231C36.5927 60.3259 34.9474 60.3262 33.3021 60.3234C32.4623 60.322 31.6225 60.3218 30.7826 60.3245C29.8731 60.3275 28.9637 60.3251 28.0542 60.3221C27.7875 60.3239 27.5207 60.3256 27.2459 60.3274C27.0028 60.3257 26.7597 60.324 26.5093 60.3223C26.1943 60.3223 26.1943 60.3223 25.8729 60.3223C25.1908 60.2154 24.8715 60.0052 24.3749 59.5313C24.1363 58.7473 24.1004 58.2724 24.3163 57.4805C24.8535 56.5137 25.454 56.4258 26.4798 56.4248Z" fill="white"/>
<path d="M26.2246 20.0967C26.4684 20.0953 26.7122 20.0939 26.9634 20.0925C27.2333 20.0934 27.5032 20.0943 27.7813 20.0952C28.0664 20.0943 28.3516 20.0934 28.6453 20.0925C29.4392 20.0905 30.2331 20.0906 31.0271 20.0916C31.8823 20.0922 32.7375 20.0901 33.5928 20.0883C35.2692 20.0853 36.9457 20.0849 38.6222 20.0854C39.9843 20.0859 41.3464 20.0854 42.7086 20.0844C42.999 20.0842 42.999 20.0842 43.2952 20.084C43.6884 20.0837 44.0816 20.0835 44.4748 20.0832C48.1655 20.0806 51.8562 20.0811 55.547 20.0826C58.9262 20.0838 62.3055 20.0811 65.6848 20.0767C69.1514 20.0721 72.6179 20.0702 76.0845 20.0711C78.0321 20.0715 79.9796 20.0709 81.9271 20.0676C83.5851 20.0648 85.243 20.0645 86.9009 20.0673C87.7474 20.0687 88.5938 20.069 89.4402 20.0662C90.3565 20.0632 91.2727 20.0656 92.189 20.0686C92.4584 20.0669 92.7277 20.0651 93.0053 20.0634C93.2497 20.065 93.4941 20.0667 93.7459 20.0685C93.9576 20.0685 94.1692 20.0684 94.3873 20.0684C95.0344 20.1748 95.2353 20.3406 95.625 20.8594C95.9046 21.758 95.9017 22.159 95.5518 23.042C95.1563 23.6719 95.1563 23.6719 94.6875 23.9063C94.3086 23.9291 93.9287 23.937 93.549 23.9378C93.186 23.9393 93.186 23.9393 92.8156 23.9409C92.5477 23.9409 92.2798 23.9408 92.0037 23.9408C91.7207 23.9417 91.4377 23.9425 91.146 23.9434C90.3579 23.9455 89.5698 23.9466 88.7817 23.9472C87.9327 23.9482 87.0837 23.9504 86.2347 23.9525C84.1833 23.9571 82.1319 23.9594 80.0804 23.9615C79.1151 23.9626 78.1498 23.9638 77.1844 23.965C73.9768 23.969 70.7691 23.9724 67.5615 23.9741C66.7288 23.9746 65.8961 23.975 65.0635 23.9755C64.753 23.9756 64.753 23.9756 64.4363 23.9758C61.0814 23.9778 57.7266 23.9837 54.3717 23.9913C50.9298 23.9991 47.4878 24.0033 44.0458 24.004C42.1123 24.0045 40.1788 24.0066 38.2453 24.0126C36.5991 24.0177 34.953 24.0196 33.3068 24.0173C32.4664 24.0162 31.6262 24.0167 30.7859 24.0212C29.8759 24.0261 28.9659 24.0237 28.0559 24.0206C27.789 24.0232 27.5221 24.0258 27.2471 24.0284C26.8823 24.0254 26.8823 24.0254 26.51 24.0223C26.2999 24.0225 26.0898 24.0228 25.8733 24.023C25.1293 23.8682 24.8496 23.549 24.375 22.9688C24.1163 22.248 24.1087 21.9026 24.3311 21.167C24.8326 20.1904 25.173 20.0977 26.2246 20.0967Z" fill="white"/>
<path d="M52.7809 74.5C53.0447 74.4992 53.0447 74.4992 53.3138 74.4984C53.9061 74.4969 54.4984 74.4971 55.0907 74.4973C55.5142 74.4966 55.9376 74.4958 56.361 74.4949C57.5135 74.4928 58.666 74.4923 59.8185 74.4921C60.7796 74.4919 61.7406 74.491 62.7017 74.4902C64.9686 74.4883 67.2356 74.4877 69.5025 74.4879C71.8433 74.488 74.184 74.4856 76.5248 74.4819C78.5323 74.4788 80.5399 74.4775 82.5475 74.4777C83.7474 74.4777 84.9474 74.4771 86.1473 74.4746C87.2758 74.4723 88.4042 74.4723 89.5326 74.474C89.9472 74.4743 90.3618 74.4737 90.7764 74.4723C91.3416 74.4705 91.9067 74.4716 92.4719 74.4734C92.6366 74.4722 92.8014 74.471 92.9711 74.4697C93.8154 74.4757 94.4461 74.5229 95.1562 75.0001C95.7532 75.7393 95.6433 76.4699 95.5727 77.3667C95.2915 78.0549 94.8808 78.1975 94.2187 78.5157C93.6092 78.5819 93.0569 78.6108 92.4484 78.605C92.2722 78.6061 92.0959 78.6072 91.9143 78.6083C91.3246 78.6111 90.7351 78.6089 90.1455 78.6067C89.7223 78.6076 89.2992 78.6089 88.8761 78.6104C87.7274 78.6136 86.5789 78.6124 85.4302 78.6101C84.2284 78.6084 83.0265 78.61 81.8247 78.6111C79.8063 78.6124 77.788 78.6107 75.7696 78.6074C73.4359 78.6035 71.1023 78.6048 68.7685 78.6087C66.7651 78.6118 64.7617 78.6123 62.7583 78.6105C61.5616 78.6094 60.365 78.6092 59.1683 78.6115C58.0433 78.6136 56.9183 78.6122 55.7933 78.6081C55.3804 78.6072 54.9674 78.6074 54.5544 78.609C53.9908 78.6109 53.4274 78.6085 52.8639 78.605C52.7003 78.6066 52.5367 78.6081 52.3682 78.6097C51.3601 78.5976 50.725 78.4278 49.9218 77.8126C49.5595 77.088 49.6186 76.5014 49.6874 75.7032C50.6065 74.5391 51.377 74.4969 52.7809 74.5Z" fill="white"/>
<path d="M52.0326 92.9863C52.2735 92.985 52.2735 92.985 52.5193 92.9838C53.0475 92.9817 53.5757 92.9831 54.104 92.9847C54.4726 92.9844 54.8412 92.9839 55.2098 92.9833C55.9813 92.9826 56.7528 92.9836 57.5243 92.9858C58.5118 92.9885 59.4992 92.9869 60.4867 92.9841C61.2476 92.9824 62.0084 92.983 62.7692 92.9842C63.1333 92.9845 63.4973 92.9841 63.8614 92.983C64.3707 92.9818 64.8799 92.9837 65.3893 92.9863C65.8235 92.9868 65.8235 92.9868 66.2665 92.9874C67.2311 93.0625 67.909 93.2608 68.6426 93.8965C68.9822 94.6136 68.9242 95.1074 68.8394 95.8823C68.5996 96.5205 68.3245 96.6886 67.7344 97.0313C67.1325 97.1004 66.5877 97.1299 65.9862 97.126C65.7242 97.1284 65.7242 97.1284 65.4569 97.1309C64.8806 97.1352 64.3044 97.1343 63.728 97.1329C63.327 97.134 62.926 97.1352 62.5249 97.1366C61.6848 97.1387 60.8448 97.1382 60.0047 97.1358C58.9281 97.1332 57.8516 97.1379 56.775 97.1447C55.947 97.149 55.119 97.149 54.291 97.1476C53.8941 97.1476 53.4971 97.149 53.1002 97.1519C52.5452 97.1554 51.9906 97.1529 51.4357 97.1489C51.2718 97.1512 51.1079 97.1534 50.939 97.1558C50.1567 97.1439 49.7514 97.0804 49.1232 96.5982C48.6367 95.9406 48.5323 95.5042 48.5156 94.6876C48.8137 93.959 49.0261 93.6151 49.7295 93.2521C50.5253 93.0051 51.199 92.9873 52.0326 92.9863Z" fill="white"/>
</svg>
