<svg width="121" height="120" viewBox="0 0 121 120" fill="none" xmlns="http://www.w3.org/2000/svg">
<g clip-path="url(#clip0_77_4558)">
<path d="M84.2325 31.9097C84.8265 32.4337 85.4046 32.9706 85.9794 33.5156C86.3161 33.8296 86.3161 33.8296 86.6596 34.15C93.6165 40.7692 97.0555 50.02 97.4939 59.4799C97.7037 69.4353 93.8213 78.6326 87.0734 85.8407C86.8671 86.0531 86.6607 86.2655 86.4481 86.4843C86.2603 86.6801 86.2603 86.6801 86.0687 86.8798C85.1277 87.845 84.145 88.6971 83.0643 89.5019C82.9027 89.6224 82.7411 89.7428 82.5746 89.8669C80.9023 91.0878 79.1466 92.1011 77.3075 93.0468C77.1654 93.1214 77.0233 93.1959 76.8768 93.2727C68.6158 97.5636 58.4869 98.1296 49.6512 95.3906C44.094 93.5144 39.4841 90.5939 35.12 86.7187C34.9668 86.5828 34.8136 86.4468 34.6558 86.3067C28.2695 80.2693 24.2756 70.8658 24.0256 62.1533C24.0161 61.5136 24.0145 60.8741 24.0165 60.2343C24.0167 60.0661 24.0169 59.8978 24.0171 59.7245C24.0455 52.6198 26.0774 45.4609 30.1981 39.6093C30.3567 39.3839 30.5153 39.1586 30.6788 38.9263C31.9638 37.1598 33.3825 35.5635 34.8856 33.9843C35.0246 33.833 35.1636 33.6816 35.3067 33.5257C47.9353 20.1782 70.6632 20.4633 84.2325 31.9097ZM38.6796 40.5175C33.118 46.9991 30.9098 54.8557 31.37 63.2812C31.9137 69.816 35.0838 75.9448 39.5731 80.625C39.7508 80.8174 39.9284 81.0099 40.1114 81.2082C45.2692 86.6271 52.6721 89.522 60.0864 89.7647C67.3375 89.8531 74.4398 87.2847 79.8856 82.5C80.0775 82.3419 80.2693 82.1839 80.467 82.0211C86.1619 77.1954 89.4464 69.7879 90.1046 62.4407C90.6808 54.4215 88.006 47.0034 82.8895 40.8709C77.861 35.1165 71.0702 31.5066 63.4345 30.7608C53.9289 30.1466 45.2292 33.6002 38.6796 40.5175Z" fill="white"/>
<path d="M98.7528 13.2129C98.9856 13.2532 99.2183 13.2935 99.4581 13.3351C100.357 13.4945 101.254 13.6605 102.151 13.8281C102.354 13.8658 102.556 13.9035 102.765 13.9423C104.167 14.204 105.568 14.4711 106.969 14.7434C107.447 14.836 107.926 14.9277 108.405 15.0184C109.088 15.1483 109.77 15.2823 110.451 15.4175C110.657 15.4558 110.863 15.4941 111.074 15.5336C112.51 15.8247 113.512 16.2376 114.53 17.3327C115.045 18.2233 115.091 19.1426 115.042 20.1562C114.761 21.1849 114.272 21.8592 113.533 22.6172C111.79 23.3512 109.838 23.0185 108.011 22.7343C108.089 22.8388 108.168 22.9433 108.249 23.0509C112.539 28.7733 116.002 35.0895 118.089 41.9531C118.182 42.2577 118.182 42.2577 118.277 42.5686C119.701 47.3033 120.678 52.1932 120.723 57.149C120.725 57.362 120.727 57.5751 120.73 57.7946C120.87 74.1395 115.818 88.8786 104.729 101.016C104.535 101.234 104.341 101.453 104.141 101.678C102.995 102.963 101.831 104.133 100.511 105.234C100.292 105.426 100.074 105.619 99.8487 105.817C96.8857 108.411 93.6184 110.557 90.1981 112.5C90.0445 112.588 89.8909 112.675 89.7326 112.765C87.0913 114.256 84.3687 115.433 81.5262 116.484C81.2687 116.581 81.2687 116.581 81.0059 116.679C71.4952 120.196 60.572 121.174 50.5887 119.297C50.2751 119.245 49.9613 119.194 49.6476 119.143C48.096 118.851 46.8958 118.468 45.9012 117.187C45.2971 116.055 45.3038 114.888 45.6669 113.672C46.1787 112.817 46.7786 112.209 47.6298 111.694C49.1712 111.364 50.674 111.616 52.2001 111.899C63.0439 113.877 74.9014 112.079 84.6079 106.871C85.0398 106.642 85.4756 106.422 85.9135 106.205C90.4149 103.937 94.2798 100.703 97.9325 97.2656C98.0869 97.1212 98.2413 96.9768 98.4003 96.828C99.6074 95.6627 100.64 94.3585 101.682 93.0468C101.958 92.711 101.958 92.711 102.239 92.3684C109.469 83.3428 113.297 71.5962 113.24 60.0879C113.24 59.9051 113.239 59.7223 113.239 59.534C113.227 56.4445 113.05 53.4308 112.464 50.3906C112.425 50.1878 112.386 49.9851 112.346 49.7762C110.752 41.821 107.319 34.3231 102.386 27.8906C102.396 28.0888 102.407 28.287 102.419 28.4912C102.471 30.1349 102.493 31.479 101.448 32.8125C100.596 33.6438 99.9091 33.8169 98.7528 33.8672C97.5995 33.8202 96.9247 33.6162 96.0575 32.8125C94.9693 31.5298 94.8412 30.1903 94.6183 28.5562C94.578 28.2793 94.5377 28.0024 94.4962 27.7171C94.4118 27.1316 94.3292 26.5459 94.2482 25.96C94.125 25.0717 93.9959 24.1843 93.8657 23.2969C93.7842 22.7259 93.703 22.1547 93.6222 21.5835C93.5841 21.3217 93.546 21.0599 93.5068 20.7901C92.8553 16.0081 92.8553 16.0081 93.6405 14.5019C95.0947 12.694 96.663 12.8425 98.7528 13.2129ZM101.917 27.1875C102.151 27.6562 102.151 27.6562 102.151 27.6562L101.917 27.1875Z" fill="white"/>
<path d="M60.1102 -0.0586003C60.3238 -0.0589142 60.5374 -0.0592281 60.7575 -0.0595516C64.1337 -0.0584761 67.4166 0.0874494 70.7449 0.703118C70.9114 0.733142 71.0778 0.763166 71.2493 0.794099C74.4013 1.38266 74.4013 1.38266 75.2832 2.52227C75.8663 3.70514 76.0687 4.53992 75.9012 5.85937C75.5129 6.98743 74.8879 7.74513 73.7973 8.28683C72.2488 8.77878 70.5087 8.38557 68.9523 8.10378C62.6562 6.97948 56.1416 7.1392 49.8856 8.43749C49.6555 8.48523 49.4254 8.53296 49.1883 8.58215C35.8296 11.4777 24.0306 20.0176 16.5491 31.3773C15.1539 33.5654 13.9489 35.8517 12.8543 38.2031C12.7761 38.3709 12.6978 38.5388 12.6172 38.7117C7.00316 50.94 6.59861 65.215 11.1707 77.837C13.1429 83.0756 15.695 87.9521 19.1825 92.3437C19.1448 92.0718 19.1448 92.0718 19.1065 91.7944C18.9324 90.2823 18.7952 88.977 19.6512 87.6562C20.3173 86.9476 21.0433 86.303 22.0352 86.1941C23.7081 86.146 24.5162 86.4754 25.7526 87.6338C26.4499 88.731 26.5344 89.8615 26.7072 91.1352C26.7469 91.4073 26.7866 91.6793 26.8276 91.9596C26.911 92.5354 26.9927 93.1114 27.0726 93.6877C27.1939 94.5611 27.3201 95.4336 27.4474 96.3061C27.5281 96.8676 27.6085 97.4291 27.6886 97.9907C27.7439 98.3769 27.7439 98.3769 27.8003 98.7708C27.9794 100.065 28.1341 101.36 28.2547 102.661C28.2773 102.904 28.2998 103.147 28.3231 103.398C28.3231 104.724 27.7298 105.543 26.8875 106.509C24.9097 107.584 22.6194 106.967 20.5283 106.55C20.2104 106.489 19.8924 106.427 19.5744 106.367C18.9118 106.239 18.2496 106.109 17.5877 105.977C16.7443 105.809 15.9 105.647 15.0552 105.486C14.3997 105.361 13.7447 105.233 13.0899 105.104C12.629 105.014 12.1678 104.926 11.7065 104.838C9.8813 104.471 8.21956 104.134 6.87776 102.759C6.37829 101.614 6.34656 100.605 6.5262 99.375C7.06479 98.2357 7.73063 97.5698 8.86995 97.0312C10.5007 96.8287 11.9784 97.1212 13.5575 97.5C13.4356 97.3359 13.4356 97.3359 13.3112 97.1685C11.5384 94.7726 9.85371 92.3697 8.4012 89.7656C8.30671 89.5975 8.21222 89.4294 8.11487 89.2561C6.56022 86.4671 5.28529 83.6202 4.18245 80.625C4.11848 80.454 4.0545 80.2829 3.98859 80.1067C2.81077 76.9219 2.0379 73.6378 1.36995 70.3125C1.32724 70.1036 1.28453 69.8947 1.24052 69.6795C-0.464499 60.8898 0.419463 51.1592 3.01058 42.6562C3.07572 42.4406 3.14087 42.2249 3.20799 42.0027C4.91404 36.4761 7.45495 31.2404 10.745 26.4844C10.8543 26.3263 10.9636 26.1682 11.0763 26.0053C14.9003 20.5363 19.4833 15.7372 24.8075 11.7187C24.957 11.6054 25.1065 11.492 25.2605 11.3752C33.4403 5.22973 43.0907 1.66521 53.1668 0.234368C53.3368 0.209859 53.5069 0.185349 53.682 0.160096C55.8114 -0.0990051 57.9686 -0.056748 60.1102 -0.0586003Z" fill="white"/>
<path d="M61.8388 36.7968C62.9237 37.3393 63.8993 38.119 64.3235 39.2981C64.4581 40.0845 64.4413 40.8652 64.4316 41.6601C64.4305 41.8236 64.4295 41.987 64.4284 42.1554C64.4256 42.5567 64.4214 42.958 64.4169 43.3593C64.6973 43.3352 64.9777 43.311 65.2665 43.2861C67.9472 43.2987 70.429 44.6551 72.3857 46.4062C73.3693 47.5627 73.8548 48.3528 73.7919 49.8925C73.6321 51.1673 73.1286 51.9187 72.1513 52.7343C71.2263 53.2799 70.3995 53.311 69.3388 53.2031C68.3327 52.8424 67.5649 52.354 66.7607 51.6504C65.1482 50.3738 63.1216 50.5445 61.1529 50.551C60.6834 50.5517 60.214 50.546 59.7445 50.5403C58.0953 50.5394 56.5349 50.5521 55.0419 51.3281C54.3658 52.0247 54.2967 52.6181 54.2656 53.5546C54.2987 54.3845 54.3523 55.0657 54.8076 55.7812C55.8281 56.3338 56.8461 56.3192 57.978 56.3223C58.3758 56.3282 58.7736 56.3341 59.1714 56.3401C59.7915 56.3468 60.4115 56.3525 61.0316 56.3569C64.5531 56.3871 67.7732 56.4701 70.7451 58.5937C70.9529 58.7291 71.1608 58.8644 71.3749 59.0039C73.4801 61.0521 74.7401 63.7567 74.788 66.6943C74.7463 69.7862 73.6984 72.1908 71.6386 74.4873C69.9845 76.0406 67.5191 77.1228 65.2519 77.1386C64.9764 77.129 64.7008 77.1193 64.4169 77.1093C64.4292 77.4615 64.4292 77.4615 64.4417 77.8207C64.5214 81.0273 64.5214 81.0273 63.7138 82.2656C62.8111 83.2028 62.0372 83.6358 60.7255 83.7451C59.6792 83.7278 58.8734 83.433 58.0888 82.7343C57.0685 81.5392 57.0307 80.6264 57.0927 79.1308C57.0969 78.9359 57.1012 78.7411 57.1055 78.5403C57.1165 78.0632 57.1333 77.5862 57.1513 77.1093C57.0005 77.1202 56.8498 77.1311 56.6945 77.1423C54.0267 77.2489 51.8206 76.5207 49.6568 74.9716C48.733 74.1138 48.3458 73.2241 48.2295 71.9659C48.2639 70.9011 48.734 70.0994 49.4023 69.3017C50.4077 68.4791 51.234 68.3197 52.5135 68.3487C53.2216 68.4449 53.5212 68.6283 54.1053 69.0225C55.8854 69.9524 57.8719 69.7664 59.8288 69.7364C60.5083 69.7265 61.1872 69.7267 61.8667 69.7284C62.3008 69.7259 62.735 69.7229 63.1691 69.7192C63.371 69.7191 63.5729 69.7191 63.7809 69.7191C64.8844 69.6973 65.6335 69.6254 66.5263 68.9062C67.0834 68.1078 67.2889 67.506 67.2148 66.5478C67.0513 65.638 66.7492 65.0886 66.0576 64.4531C64.8504 63.9265 63.7429 63.9187 62.4513 63.9202C62.019 63.9155 61.5867 63.9106 61.1544 63.9056C60.4798 63.9003 59.8052 63.8964 59.1305 63.8951C55.2474 63.8817 52.3816 63.4683 49.416 60.7397C47.5052 58.7257 46.6465 56.143 46.5889 53.3999C46.7129 50.2462 48.0184 47.6939 50.2812 45.542C52.3318 43.8441 54.5494 43.3795 57.1513 43.125C57.1404 42.8537 57.1296 42.5823 57.1183 42.3028C57.1095 41.9421 57.101 41.5814 57.0927 41.2207C57.0849 41.0424 57.077 40.8642 57.0689 40.6805C57.0472 39.4218 57.2592 38.7359 58.0888 37.7343C59.2445 36.6887 60.342 36.5555 61.8388 36.7968Z" fill="white"/>
</g>
<defs>
<clipPath id="clip0_77_4558">
<rect width="120" height="120" fill="white" transform="translate(0.66687)"/>
</clipPath>
</defs>
</svg>
