<svg width="120" height="120" viewBox="0 0 120 120" fill="none" xmlns="http://www.w3.org/2000/svg">
<path d="M61.3916 14.9414C61.6668 14.9364 61.9419 14.9314 62.2253 14.9262C64.0736 14.919 65.2408 15.0776 66.753 16.1865C67.468 17.1467 67.6908 18.0276 67.7344 19.2188C67.5679 20.3089 67.1563 20.9569 66.4161 21.7676C64.7564 22.8125 63.1294 22.7531 61.2191 22.7276C52.6087 22.6602 44.4151 25.0481 37.5 30.2344C37.2898 30.3921 37.0795 30.5498 36.8628 30.7123C32.5065 34.1333 29.2557 38.23 26.7188 43.125C26.6439 43.2675 26.569 43.4099 26.4919 43.5567C22.0344 52.1408 21.6311 62.3471 24.4538 71.4899C25.0057 73.1887 25.6965 74.8047 26.4844 76.4063C26.5922 76.6281 26.5922 76.6281 26.7022 76.8544C28.3854 80.2783 30.5442 83.1834 33.196 85.9173C33.4744 86.207 33.7452 86.504 34.0146 86.8021C40.2399 93.4903 49.9854 96.8889 58.9234 97.2418C65.5446 97.4279 72.0261 95.7713 77.8125 92.5781C78.0624 92.4431 78.3123 92.308 78.5697 92.1689C81.2306 90.6784 83.5695 88.8092 85.7813 86.7188C85.9686 86.5465 86.1559 86.3743 86.3489 86.1969C92.9655 79.8964 96.8015 70.4443 97.089 61.3843C97.1301 58.9765 97.0408 56.6227 96.6651 54.2432C96.4447 52.5113 96.4641 51.1475 97.5 49.6875C98.4576 48.7984 99.3834 48.5577 100.657 48.4772C101.907 48.5582 102.777 49.0834 103.622 49.9814C104.113 50.6993 104.282 51.2559 104.458 52.1045C104.512 52.355 104.566 52.6054 104.622 52.8635C104.902 54.4401 105.038 55.9666 105.048 57.5647C105.049 57.7523 105.051 57.94 105.053 58.1333C105.057 58.736 105.058 59.3387 105.059 59.9414C105.059 60.1471 105.059 60.3527 105.059 60.5646C105.055 63.5545 104.977 66.4508 104.297 69.375C104.257 69.5556 104.216 69.7361 104.175 69.9221C102.818 75.893 100.395 81.5216 96.7969 86.4844C96.7052 86.6125 96.6135 86.7407 96.519 86.8727C89.2343 96.9786 78.2663 103.016 66.0938 105C55.2599 106.723 43.3743 103.753 34.4239 97.5247C24.2476 90.0723 17.3869 79.7519 15.293 67.1924C14.3771 61.1232 14.7005 54.9398 16.1719 48.9844C16.2126 48.8171 16.2533 48.6498 16.2953 48.4774C18.7712 38.5874 25.0642 29.6428 33.2813 23.6719C33.4158 23.5738 33.5504 23.4757 33.689 23.3747C39.9059 18.9052 47.2322 16.0923 54.8438 15.2344C55.0719 15.2084 55.3 15.1824 55.535 15.1556C57.4826 14.9784 59.4372 14.9615 61.3916 14.9414Z" fill="white"/>
<path d="M61.4063 33.75C62.4915 34.2539 63.2907 34.9753 63.75 36.0937C63.8629 37.0247 63.8386 37.941 63.8086 38.8769C63.8044 39.1277 63.8001 39.3785 63.7958 39.6368C63.7848 40.2529 63.7694 40.8685 63.75 41.4844C63.9488 41.5161 64.1476 41.5478 64.3524 41.5805C67.9556 42.2417 71.0957 43.7737 73.3374 46.7688C73.6985 47.3387 74.0076 47.9065 74.2969 48.5156C74.4156 48.7635 74.4156 48.7635 74.5367 49.0164C75.1669 50.5801 75.1812 52.2465 75 53.9062C74.4825 55.0607 73.8037 55.7172 72.6563 56.25C71.3438 56.4267 70.234 56.4312 69.0234 55.8691C67.8666 54.7701 67.4489 53.8133 67.1402 52.2903C66.9396 51.3816 66.6608 50.8746 65.9097 50.311C63.0549 48.6215 59.1536 48.7242 56.0156 49.4531C54.7376 49.9101 53.6931 50.3745 52.9688 51.5625C52.8259 52.6876 52.7674 53.1606 53.4375 54.082C55.6608 55.7495 58.0103 55.9427 60.7104 56.0623C65.2198 56.262 69.2049 57.3368 72.4219 60.7031C74.6582 63.2189 75.1844 65.8417 75.041 69.1216C74.8363 71.558 73.3078 73.7409 71.5869 75.3955C69.4775 77.1247 66.4961 78.5156 63.75 78.5156C63.7574 78.7495 63.7574 78.7495 63.7649 78.9881C63.7845 79.6997 63.7966 80.4113 63.8086 81.123C63.8164 81.3684 63.8243 81.6137 63.8324 81.8664C63.851 83.3351 63.8025 84.1996 62.8125 85.3125C61.9174 86.1629 61.1993 86.3226 60 86.3672C58.8007 86.3226 58.0826 86.1629 57.1875 85.3125C56.0319 84.0135 56.1375 82.8052 56.1914 81.123C56.1956 80.8723 56.1999 80.6215 56.2042 80.3631C56.2152 79.7471 56.2306 79.1314 56.25 78.5156C56.1152 78.5045 55.9805 78.4933 55.8416 78.4818C53.1332 78.2252 50.8515 77.1875 48.75 75.4687C48.5838 75.3346 48.4177 75.2004 48.2465 75.0622C46.4726 73.4719 45.1197 71.0032 44.9442 68.6151C44.8973 66.3228 44.8973 66.3228 45.3809 65.2441C46.473 64.152 47.1881 63.6908 48.75 63.6328C49.9493 63.6773 50.6674 63.8371 51.5625 64.6875C52.2302 65.4849 52.5305 66.1273 52.7051 67.1338C52.9472 68.3323 53.3876 69.1056 54.375 69.8437C57.3074 71.2902 60.618 71.217 63.75 70.5469C64.4898 70.2887 65.1658 69.9702 65.8594 69.6094C66.0914 69.532 66.3234 69.4547 66.5625 69.375C66.9787 68.6675 67.0313 68.2074 67.0166 67.3828C66.7091 66.2349 66.2016 65.75 65.202 65.1269C63.2334 64.1166 60.9723 64.0543 58.8025 63.8937C54.3577 63.5528 50.5654 62.5615 47.3621 59.22C45.2782 56.5407 44.7276 53.7103 45 50.3906C45.4854 47.877 47.0447 45.7416 49.0576 44.209C51.3361 42.6785 53.5573 41.9679 56.25 41.4844C56.2451 41.3284 56.2402 41.1725 56.2351 41.0118C56.2155 40.3002 56.2034 39.5887 56.1914 38.8769C56.1836 38.6316 56.1757 38.3863 56.1676 38.1335C56.149 36.6648 56.1975 35.8004 57.1875 34.6875C58.423 33.5138 59.791 33.5325 61.4063 33.75Z" fill="white"/>
<path d="M82.8662 14.8787C83.0379 14.877 83.2096 14.8754 83.3865 14.8737C83.9504 14.8696 84.5141 14.8723 85.0781 14.8755C85.4721 14.8748 85.8661 14.8739 86.2601 14.8728C87.0844 14.8714 87.9086 14.8734 88.7329 14.8778C89.7874 14.8831 90.8417 14.88 91.8962 14.8744C92.7094 14.871 93.5224 14.8721 94.3356 14.8745C94.7243 14.8752 95.113 14.8744 95.5017 14.8722C96.0459 14.8698 96.5897 14.8735 97.1338 14.8787C97.4429 14.8794 97.7519 14.8802 98.0704 14.8809C99.3634 15.0651 100.032 15.6044 100.862 16.5884C101.327 17.4941 101.369 18.1003 101.371 19.1162C101.373 19.2879 101.375 19.4596 101.376 19.6364C101.38 20.2004 101.378 20.7641 101.375 21.3281C101.375 21.7221 101.376 22.1161 101.377 22.5101C101.379 23.3344 101.377 24.1586 101.372 24.9829C101.367 26.0374 101.37 27.0917 101.376 28.1462C101.379 28.9594 101.378 29.7724 101.375 30.5856C101.375 30.9743 101.376 31.363 101.378 31.7517C101.38 32.2959 101.377 32.8397 101.371 33.3838C101.371 33.6928 101.37 34.0019 101.369 34.3204C101.192 35.5612 100.619 36.2713 99.7266 37.1191C98.516 37.6812 97.4062 37.6767 96.0937 37.5C94.9267 36.9582 94.3827 36.2605 93.75 35.1562C93.622 34.3727 93.622 34.3727 93.6072 33.5321C93.5996 33.23 93.5921 32.9278 93.5843 32.6166C93.5808 32.301 93.5775 31.9855 93.5742 31.6699C93.5676 31.3489 93.5606 31.0278 93.5532 30.7068C93.5366 29.9243 93.5242 29.142 93.5156 28.3594C93.3621 28.5139 93.2085 28.6685 93.0503 28.8278C91.6032 30.2843 90.1549 31.7398 88.7054 33.1939C87.9602 33.9415 87.2154 34.6896 86.4717 35.4387C85.7539 36.1615 85.035 36.8833 84.3153 37.6042C84.0409 37.8794 83.7669 38.1551 83.4933 38.4312C83.1101 38.8178 82.7255 39.2029 82.3405 39.5877C82.2277 39.7022 82.1149 39.8167 81.9987 39.9346C80.9541 40.9729 80.2493 41.3192 78.7793 41.3379C77.5587 41.3141 76.8502 41.1796 75.9375 40.3125C75.0954 39.3111 74.7017 38.3443 74.7656 37.0312C75.0899 35.6776 75.6962 34.784 76.6889 33.8031C76.8101 33.6817 76.9314 33.5602 77.0563 33.4351C77.4531 33.0392 77.8538 32.6475 78.2547 32.2558C78.5324 31.9803 78.8099 31.7045 79.0872 31.4284C79.814 30.706 80.5443 29.9872 81.2753 29.2692C82.0221 28.5344 82.7656 27.7963 83.5094 27.0584C84.9665 25.6137 86.4274 24.1729 87.8906 22.7344C87.6921 22.7322 87.4935 22.73 87.289 22.7277C86.5472 22.7174 85.8056 22.7029 85.0639 22.6857C84.7439 22.6791 84.4238 22.6742 84.1038 22.6708C83.6417 22.6658 83.1798 22.6544 82.7179 22.6428C82.4405 22.6379 82.1631 22.633 81.8773 22.6279C80.6786 22.4322 79.9534 21.8424 79.1309 20.9765C78.5688 19.766 78.5733 18.6562 78.75 17.3437C79.5901 15.5344 80.9265 14.8834 82.8662 14.8787Z" fill="white"/>
</svg>
