<svg width="120" height="120" viewBox="0 0 120 120" fill="none" xmlns="http://www.w3.org/2000/svg">
<g clip-path="url(#clip0_77_4563)">
<path d="M36.0837 -0.119774C36.7925 0.0574082 37.175 0.33205 37.6814 0.855966C37.9709 1.14504 37.9709 1.14504 38.2662 1.43996C38.4775 1.66085 38.6887 1.88174 38.9064 2.10932C39.1574 2.35863 39.4093 2.60704 39.6619 2.85468C40.4811 3.65929 41.2908 4.47313 42.0997 5.28803C42.3826 5.57205 42.6655 5.85602 42.9484 6.13993C43.633 6.82702 44.3168 7.51483 45.0001 8.20307C46.9039 7.73235 48.7306 7.10162 50.5641 6.41171C57.5091 3.80213 63.8745 2.1368 70.9718 5.30268C71.5066 5.55125 72.0387 5.80481 72.5696 6.06154C73.1417 6.33605 73.7177 6.60058 74.2952 6.86366C76.5098 7.88194 78.6548 8.98642 80.7716 10.1953C81.1103 10.3884 81.1103 10.3884 81.4559 10.5854C82.3168 11.0771 83.1776 11.5689 84.0366 12.0639C86.7342 13.6066 89.3015 14.587 92.3439 15.2343C92.3535 14.9491 92.3632 14.6639 92.3732 14.3701C92.4013 13.5416 92.5973 13.3392 93.1863 12.7174C94.007 12.0855 94.6743 12.0516 95.7112 12.073C95.9501 12.0755 95.9501 12.0755 96.1939 12.078C96.6979 12.0845 97.2013 12.0992 97.7052 12.1142C98.0488 12.1201 98.3925 12.1254 98.7361 12.1302C99.5743 12.1431 100.412 12.1633 101.25 12.1874C101.246 11.9205 101.246 11.9205 101.241 11.6482C101.238 11.4153 101.236 11.1823 101.234 10.9423C101.229 10.5956 101.229 10.5956 101.224 10.242C101.257 9.43666 101.4 9.02744 101.953 8.43745C102.948 7.85307 103.677 7.64591 104.827 7.64334C105.113 7.64113 105.398 7.63891 105.692 7.63663C106.15 7.63876 106.15 7.63876 106.618 7.64094C106.938 7.64047 107.258 7.63978 107.577 7.6389C108.246 7.63787 108.915 7.63936 109.584 7.64266C110.438 7.64666 111.291 7.64436 112.145 7.64014C112.805 7.63759 113.465 7.63842 114.125 7.64023C114.592 7.64093 115.059 7.63881 115.525 7.63663C118.243 7.65766 118.243 7.65766 119.531 8.43745C120.059 9.22945 120.06 9.49948 120.064 10.4273C120.067 10.6948 120.069 10.9623 120.071 11.2379C120.072 11.5316 120.072 11.8252 120.072 12.1278C120.074 12.4369 120.076 12.7461 120.078 13.0645C120.083 13.9129 120.085 14.7613 120.086 15.6098C120.087 16.1398 120.089 16.6699 120.09 17.2C120.096 19.0492 120.099 20.8984 120.1 22.7477C120.101 24.4714 120.108 26.195 120.118 27.9187C120.126 29.3987 120.129 30.8785 120.129 32.3585C120.13 33.2424 120.132 34.1262 120.138 35.01C120.144 35.8415 120.145 36.6728 120.141 37.5043C120.141 37.9545 120.146 38.4046 120.151 38.8548C120.135 40.7896 120.135 40.7896 119.542 41.7847C118.548 42.3455 117.762 42.336 116.638 42.3048C116.31 42.3028 116.31 42.3028 115.975 42.3008C115.5 42.2974 115.026 42.2914 114.551 42.2831C113.799 42.2706 113.048 42.2665 112.296 42.2647C110.159 42.2583 108.021 42.2391 105.884 42.2093C104.576 42.1916 103.268 42.1853 101.959 42.186C101.462 42.1839 100.964 42.1775 100.467 42.1664C97.7858 42.0035 97.7858 42.0035 95.3814 42.9366C94.9048 43.5274 94.5591 44.0896 94.2189 44.7656C91.3368 48.0857 87.3969 50.5818 82.9689 51.0937C82.689 51.0906 82.4091 51.0874 82.1208 51.0842C80.4393 51.0659 79.2089 51.1306 77.8745 52.2623C77.4513 52.681 77.0376 53.1095 76.6321 53.5455C76.4002 53.7814 76.1676 54.0166 75.9341 54.251C75.4372 54.7534 74.9463 55.2608 74.4595 55.773C73.689 56.5836 72.9058 57.3811 72.1206 58.1775C70.8805 59.4382 69.6488 60.7067 68.4206 61.9791C66.2201 64.2589 64.0104 66.5297 61.7902 68.7902C61.0123 69.583 60.2399 70.3807 59.4716 71.1827C58.9927 71.6808 58.51 72.1751 58.0263 72.6684C57.6977 73.006 57.374 73.3483 57.0505 73.6906C55.9959 74.7586 55.2301 75.4695 53.6956 75.5641C52.2117 75.2767 51.2064 74.0095 50.1837 72.9853C49.9991 72.8022 49.8145 72.6192 49.6243 72.4306C49.0055 71.8164 48.3883 71.2005 47.7712 70.5846C47.3282 70.1442 46.885 69.7037 46.4418 69.2634C45.1122 67.9419 43.7847 66.6182 42.4575 65.2942C41.8322 64.6705 41.2067 64.0471 40.5811 63.4237C38.5017 61.3511 36.4227 59.2779 34.3455 57.2032C34.2126 57.0705 34.0798 56.9378 33.9429 56.8011C33.8097 56.668 33.6765 56.535 33.5393 56.398C33.2695 56.1285 32.9996 55.859 32.7298 55.5895C32.5959 55.4558 32.4621 55.3221 32.3242 55.1843C30.1539 53.017 27.9801 50.8532 25.8048 48.6909C23.5709 46.4703 21.34 44.2466 19.1123 42.0199C17.8616 40.7699 16.6096 39.5213 15.3542 38.2761C14.2855 37.2162 13.2197 36.1535 12.1575 35.087C11.6155 34.5431 11.0719 34.001 10.5254 33.4615C9.93312 32.8763 9.34606 32.2862 8.76006 31.6947C8.58645 31.5255 8.41283 31.3564 8.23396 31.1821C7.49905 30.4305 6.9495 29.8366 6.76221 28.7807C6.82059 27.2873 7.56847 26.5919 8.58326 25.5634C8.69132 25.4533 8.79937 25.3432 8.9107 25.2298C9.27118 24.8631 9.6333 24.498 9.99546 24.133C10.2551 23.8696 10.5146 23.6062 10.7741 23.3427C11.6246 22.4799 12.4778 21.6196 13.3311 20.7595C13.6253 20.4629 13.9194 20.1662 14.2136 19.8695C15.4372 18.6358 16.6615 17.4027 17.8875 16.1714C19.6427 14.4086 21.3938 12.6419 23.1394 10.8697C24.3684 9.6225 25.6019 8.37987 26.8387 7.14051C27.5769 6.40063 28.313 5.65893 29.0444 4.91233C29.7324 4.21017 30.4258 3.5138 31.1237 2.82142C31.3784 2.56685 31.6311 2.31027 31.8816 2.05155C34.1667 -0.304536 34.1667 -0.304536 36.0837 -0.119774ZM34.6729 6.524C34.4789 6.72038 34.285 6.91676 34.0852 7.11909C33.8752 7.33058 33.6653 7.54206 33.4489 7.75996C33.227 7.98576 33.0052 8.21159 32.7833 8.43745C32.5597 8.66339 32.3361 8.88922 32.1123 9.11494C31.5634 9.66933 31.0157 10.2248 30.4689 10.7812C31.2646 11.9748 32.6336 12.1188 33.9845 12.4218C36.1769 12.7035 38.3361 12.2382 40.3126 11.2499C39.9652 10.4446 39.5088 9.91705 38.8917 9.29804C38.705 9.11073 38.5183 8.92341 38.3259 8.73042C38.1308 8.53706 37.9356 8.3437 37.7345 8.14448C37.5393 7.9475 37.3442 7.75051 37.1431 7.54756C36.9564 7.36145 36.7697 7.17534 36.5773 6.98359C36.406 6.81281 36.2347 6.64204 36.0582 6.46609C35.429 5.925 35.2904 5.97447 34.6729 6.524ZM54.5949 10.1806C54.1234 10.3611 53.6519 10.5415 53.1804 10.7217C52.9531 10.809 52.7259 10.8962 52.4918 10.9862C51.4052 11.3987 50.3125 11.7941 49.2189 12.1874C51.3343 16.6595 56.1254 20.7263 60.68 22.4061C63.989 23.5841 67.3888 24.479 70.7857 25.3624C71.7347 25.6129 72.6766 25.8786 73.6131 26.1721C73.8714 26.251 74.1296 26.33 74.3957 26.4113C75.1417 26.7907 75.3631 27.1344 75.7033 27.8906C75.8228 28.8473 75.7993 29.3544 75.337 30.205C74.6132 30.8361 74.0621 30.9716 73.1251 30.9375C72.0978 30.7135 71.1103 30.3831 70.113 30.0521C69.8133 29.9555 69.5134 29.8592 69.2134 29.7632C68.5776 29.5593 67.9425 29.3535 67.3078 29.1464C66.3381 28.8304 65.3664 28.521 64.394 28.2136C64.2334 28.1629 64.0727 28.1121 63.9072 28.0598C63.5816 27.9569 63.256 27.854 62.9304 27.7512C62.2769 27.5449 61.6236 27.3383 60.9702 27.1317C60.643 27.0283 60.3157 26.9249 59.9885 26.8215C59.1544 26.558 58.3206 26.2936 57.4874 26.0274C56.6595 25.7631 55.831 25.501 55.002 25.2405C54.6917 25.1426 54.3817 25.0438 54.0719 24.9442C53.6432 24.8064 53.2134 24.6718 52.7836 24.5374C52.5413 24.4605 52.2989 24.3836 52.0493 24.3043C50.6191 23.9795 49.5325 24.0726 48.2649 24.7631C47.2867 25.4443 46.5491 26.2906 46.172 27.4218C46.0236 29.0805 46.1527 30.2297 47.1882 31.5802C49.044 33.6894 52.2031 34.3065 54.7946 35.1575C55.3608 35.3437 55.9264 35.5316 56.4918 35.72C58.0971 36.2546 59.703 36.7876 61.3104 37.3163C62.2993 37.6416 63.2871 37.9701 64.2743 38.3005C64.6483 38.425 65.0226 38.5484 65.3973 38.6705C65.9208 38.8412 66.4429 39.0159 66.9649 39.1914C67.1176 39.2401 67.2703 39.2889 67.4276 39.3391C68.8985 39.8425 69.8845 40.7118 70.84 41.9238C73.2622 44.7321 76.757 45.9148 80.366 46.2313C83.7595 46.3692 86.5999 44.996 89.1066 42.8027C91.3154 40.8794 91.3154 40.8794 92.4002 38.3353C92.4016 37.9962 92.4004 37.6571 92.3971 37.318C92.3972 37.1328 92.3972 36.9475 92.3973 36.7566C92.397 36.1441 92.3933 35.5316 92.3897 34.9191C92.3888 34.4944 92.3881 34.0698 92.3876 33.6452C92.3859 32.5274 92.3813 31.4096 92.3761 30.2919C92.3713 29.1513 92.3691 28.0108 92.3668 26.8702C92.3617 24.6322 92.3537 22.3942 92.3439 20.1562C92.1441 20.118 92.1441 20.118 91.9403 20.079C91.3285 19.9612 90.7169 19.8417 90.1054 19.7222C89.896 19.6822 89.6865 19.6421 89.4707 19.6009C85.8853 18.8961 82.9461 17.1822 79.7984 15.389C71.4819 10.4101 71.4819 10.4101 62.212 8.34956C61.9798 8.34449 61.9798 8.34449 61.7429 8.33932C59.2477 8.36457 56.8915 9.28906 54.5949 10.1806ZM106.172 12.6562C106.172 20.8546 106.172 29.0531 106.172 37.5C109.188 37.5 112.205 37.5 115.313 37.5C115.313 29.3015 115.313 21.1031 115.313 12.6562C112.296 12.6562 109.28 12.6562 106.172 12.6562ZM25.9529 15.2174C25.7504 15.4236 25.5478 15.6298 25.3392 15.8422C25.2309 15.9515 25.1227 16.0607 25.0111 16.1733C24.6656 16.5227 24.3226 16.8746 23.9796 17.2265C23.7459 17.4638 23.512 17.7009 23.2779 17.9379C22.7043 18.5192 22.1329 19.1028 21.5626 19.6874C21.6925 19.9533 21.8225 20.2192 21.9563 20.4931C22.1279 20.8495 22.2994 21.206 22.4708 21.5624C22.5563 21.7368 22.6418 21.9111 22.7299 22.0907C24.3795 25.5398 24.5719 29.5174 23.412 33.1604C22.8793 34.5874 22.2471 35.8966 21.5626 37.2656C29.297 45 37.0314 52.7343 45.0001 60.7031C45.9592 60.3834 46.63 60.1352 47.4757 59.663C50.7638 58.0117 54.7835 57.8788 58.3183 58.7951C59.491 59.2163 60.56 59.7995 61.6417 60.4147C62.2969 60.7739 62.2969 60.7739 62.7899 60.5505C63.3888 60.1652 63.8467 59.7215 64.3471 59.2144C64.5449 59.015 64.7428 58.8156 64.9467 58.6102C65.1513 58.4017 65.3558 58.1933 65.5665 57.9785C65.7747 57.7682 65.9829 57.5579 66.1973 57.3413C66.7108 56.8223 67.2231 56.3022 67.7345 55.7812C67.3522 54.808 66.902 53.9066 66.4024 52.9888C65.494 50.8594 65.2947 48.8952 65.3468 46.5966C65.3613 45.683 65.3758 44.7694 65.3908 43.8281C62.8384 42.9773 60.2861 42.1265 57.6564 41.25C57.1923 42.3328 56.7283 43.4156 56.2501 44.5312C55.7144 45.3006 55.2289 45.9568 54.6095 46.6406C54.4874 46.7841 54.3654 46.9276 54.2396 47.0755C52.6222 48.8538 50.3672 50.046 48.047 50.625C47.7923 50.6889 47.7923 50.6889 47.5325 50.754C43.531 51.3949 39.6417 50.6641 36.3283 48.2812C33.5789 45.964 31.8694 42.9706 31.4064 39.375C31.0924 35.3093 32.1308 31.8552 34.6437 28.6376C36.3198 26.8104 38.757 25.3837 41.1622 24.8144C42.4154 24.4332 42.8591 23.5003 43.5563 22.4523C44.8423 20.7874 46.7748 20.0036 48.7501 19.4531C47.818 18.3079 46.8169 17.2331 45.7911 16.1718C45.5935 15.9608 45.5935 15.9608 45.3918 15.7455C44.9692 15.3007 44.9692 15.3007 44.297 14.7656C43.447 14.876 42.7431 15.2926 41.9826 15.6738C38.103 17.477 34.0071 17.5991 30.0001 16.1718C29.225 15.8245 28.4815 15.4536 27.7397 15.0402C26.9375 14.6411 26.6429 14.631 25.9529 15.2174ZM97.2658 17.1093C97.2658 23.8382 97.2658 30.5671 97.2658 37.5C98.5806 37.5 99.8954 37.5 101.25 37.5C101.25 30.771 101.25 24.0421 101.25 17.1093C99.9353 17.1093 98.6204 17.1093 97.2658 17.1093ZM17.3342 23.8893C17.1292 24.0955 16.9243 24.3017 16.7131 24.5141C16.6042 24.6234 16.4953 24.7326 16.383 24.8452C16.0338 25.1957 15.6854 25.547 15.337 25.8984C15.101 26.1356 14.865 26.3727 14.6289 26.6098C14.0489 27.1923 13.4696 27.7756 12.8908 28.3593C13.9184 29.5902 15.0021 30.7341 16.1427 31.8603C16.304 32.0206 16.4654 32.1809 16.6316 32.346C17.0247 32.7364 17.4184 33.1262 17.8126 33.5156C19.2666 31.6636 19.5916 29.5135 19.3947 27.203C19.1758 25.7938 18.7481 24.676 18.047 23.4374C17.7314 23.4106 17.7314 23.4106 17.3342 23.8893ZM38.4514 31.8429C36.7142 33.7152 36.0069 35.7456 36.0444 38.2781C36.2317 40.6574 37.3524 42.6014 39.0529 44.2382C41.0194 45.833 43.0647 46.3646 45.5742 46.2698C48.0896 45.9737 50.1378 44.5807 51.7219 42.6416C52.3125 41.7749 52.9689 40.6804 52.9689 39.6093C52.8024 39.5528 52.636 39.4963 52.4645 39.438C51.6989 39.176 50.935 38.9093 50.171 38.6425C49.7783 38.5093 49.7783 38.5093 49.3777 38.3734C47.7474 37.7996 46.3784 37.1372 45.0001 36.0937C44.7805 35.9345 44.5608 35.7753 44.3345 35.6112C42.7108 34.1519 41.8855 32.0401 41.2501 30C40.1796 30 39.186 31.1378 38.4514 31.8429ZM70.0783 47.8125C70.1797 49.4109 70.5254 50.6054 71.2501 52.0312C71.51 51.8176 71.7685 51.6025 72.0265 51.3867C72.1706 51.267 72.3147 51.1474 72.4632 51.0241C72.9047 50.612 73.246 50.1798 73.5939 49.6875C73.0522 49.3743 72.5102 49.0619 71.9679 48.75C71.8134 48.6605 71.6588 48.5711 71.4996 48.479C70.8288 48.0175 70.8288 48.0175 70.0783 47.8125ZM48.9845 64.2187C49.3329 65.0311 49.7948 65.5523 50.4219 66.1706C50.6107 66.3579 50.7995 66.5452 50.9941 66.7382C51.1914 66.9316 51.3887 67.1249 51.5919 67.3242C51.791 67.5212 51.9901 67.7181 52.1953 67.9211C52.6865 68.4068 53.1787 68.8913 53.672 69.3749C54.4773 69.0275 55.0049 68.5712 55.6239 67.9541C55.8112 67.7673 55.9985 67.5806 56.1915 67.3883C56.3849 67.1931 56.5783 66.9979 56.7775 66.7968C57.073 66.5041 57.073 66.5041 57.3744 66.2054C57.5605 66.0187 57.7466 65.832 57.9384 65.6396C58.1091 65.4683 58.2799 65.297 58.4559 65.1205C58.8792 64.7234 58.8792 64.7234 58.8283 64.2187C58.5018 64.0658 58.1745 63.9148 57.8468 63.7646C57.6646 63.6803 57.4825 63.596 57.2947 63.5092C54.6054 62.4445 51.4931 62.9133 48.9845 64.2187Z" fill="white"/>
<path d="M51.3283 76.875C51.5431 77.0522 51.5431 77.0522 51.7622 77.233C52.3719 77.7428 52.9293 78.2348 53.4465 78.8414C54.3331 79.6226 55.1674 79.8915 56.2822 80.2377C56.4932 80.3065 56.7042 80.3753 56.9217 80.4462C57.3747 80.5935 57.8283 80.7392 58.2823 80.8835C59.236 81.1868 60.1869 81.4984 61.138 81.8096C61.6206 81.9674 62.1033 82.1249 62.5861 82.2819C64.6248 82.9452 66.657 83.6252 68.681 84.3317C69.0122 84.4468 69.3437 84.561 69.6756 84.6739C73.2371 85.8866 76.258 87.4746 78.047 90.9375C78.1244 91.1695 78.2017 91.4016 78.2814 91.6406C79.411 91.4985 80.4777 91.2795 81.5742 90.9746C81.7303 90.9315 81.8864 90.8884 82.0472 90.844C82.5579 90.7028 83.0683 90.5601 83.5786 90.4175C83.936 90.3184 84.2935 90.2195 84.6509 90.1206C85.5885 89.8611 86.5258 89.6005 87.463 89.3395C88.9645 88.9216 90.4664 88.5052 91.9683 88.0892C92.4915 87.9441 93.0145 87.7984 93.5376 87.6526C93.8592 87.5633 94.1808 87.4741 94.5024 87.3848C94.7821 87.3069 95.0618 87.229 95.3501 87.1488C98.1916 86.4013 101.146 86.363 103.828 87.6562C105.93 88.8923 107.449 90.7594 108.281 93.0469C109.004 96.0009 108.734 98.3748 107.302 101.049C105.501 103.874 102.592 105.444 99.5015 106.498C99.2477 106.587 98.9939 106.677 98.7325 106.769C97.9028 107.061 97.0716 107.349 96.2404 107.637C95.6531 107.843 95.0658 108.049 94.4788 108.256C93.4201 108.629 92.361 109 91.3015 109.371C88.7053 110.279 86.1162 111.207 83.528 112.137C82.7646 112.412 82.001 112.686 81.2373 112.959C78.6096 113.901 75.9827 114.846 73.3568 115.793C73.0886 115.89 72.8203 115.987 72.544 116.086C71.2637 116.548 69.9836 117.01 68.7037 117.472C61.5547 120.054 55.2408 121.2 48.0955 117.885C47.4525 117.578 46.8121 117.266 46.172 116.953C45.9207 116.831 45.6693 116.71 45.4103 116.584C42.2204 115.036 39.0782 113.422 36.008 111.645C33.3878 110.087 33.3878 110.087 30.5421 109.043C30.3294 108.989 30.1167 108.936 29.8976 108.881C29.1512 108.718 28.4155 108.6 27.6564 108.516C27.6346 108.885 27.6346 108.885 27.6125 109.263C27.3821 110.343 27.1116 110.651 26.2501 111.328C25.4286 111.461 25.4286 111.461 24.4951 111.443C24.2479 111.44 24.2479 111.44 23.9957 111.438C23.4725 111.431 22.9499 111.416 22.4269 111.401C22.0709 111.395 21.7149 111.39 21.3589 111.385C20.4892 111.372 19.6197 111.352 18.7501 111.328C18.7566 111.521 18.7631 111.714 18.7697 111.913C18.7747 112.166 18.7798 112.419 18.7849 112.68C18.7946 113.057 18.7946 113.057 18.8045 113.441C18.7223 114.5 18.3609 114.857 17.5783 115.547C16.925 115.874 16.3858 115.815 15.6549 115.819C15.349 115.821 15.0432 115.824 14.728 115.826C14.3924 115.827 14.0568 115.828 13.7212 115.829C13.3778 115.83 13.0345 115.832 12.6911 115.833C11.9706 115.835 11.2501 115.837 10.5296 115.838C9.60746 115.839 8.68544 115.844 7.76336 115.851C7.05378 115.856 6.34423 115.857 5.63465 115.857C5.29479 115.858 4.95494 115.86 4.61509 115.863C4.13886 115.867 3.6626 115.866 3.18635 115.865C2.91557 115.866 2.64478 115.866 2.36579 115.867C1.55141 115.771 1.12062 115.569 0.468897 115.078C-0.0580832 114.288 -0.0593865 114.022 -0.062531 113.097C-0.0645302 112.832 -0.0665294 112.566 -0.0685892 112.293C-0.0683768 112.001 -0.0681643 111.71 -0.0679455 111.409C-0.070307 110.949 -0.070307 110.949 -0.0727162 110.479C-0.0768601 109.637 -0.077957 108.795 -0.0782559 107.953C-0.0787009 107.25 -0.0804248 106.547 -0.0820861 105.844C-0.085904 104.185 -0.0870469 102.527 -0.0867138 100.868C-0.0864322 99.1571 -0.0913766 97.4462 -0.0987802 95.7353C-0.10491 94.2663 -0.107423 92.7974 -0.107124 91.3284C-0.107004 90.4511 -0.108342 89.5738 -0.113303 88.6965C-0.118686 87.7179 -0.116552 86.7394 -0.113722 85.7608C-0.116356 85.4702 -0.11899 85.1797 -0.121704 84.8803C-0.119738 84.6135 -0.117772 84.3467 -0.115746 84.0718C-0.116001 83.8404 -0.116255 83.6091 -0.116518 83.3707C0.0331572 82.5543 0.37204 82.1583 0.937647 81.5625C1.72635 81.1681 2.61774 81.3138 3.48413 81.3284C3.9307 81.3337 4.37728 81.3389 4.82386 81.344C5.18036 81.3485 5.18036 81.3485 5.54407 81.3531C7.06673 81.3696 8.58949 81.3711 10.1122 81.3751C11.4499 81.3794 12.7871 81.3892 14.1246 81.4109C15.4186 81.4315 16.7118 81.4371 18.0059 81.4328C18.4978 81.4338 18.9896 81.4402 19.4812 81.4521C22.3131 81.6129 22.3131 81.6129 24.7584 80.4322C25.4313 79.6965 25.9444 78.8825 26.4845 78.0469C33.0894 71.0994 44.0821 70.6324 51.3283 76.875ZM29.9406 81.5387C29.7238 81.779 29.5095 82.0215 29.297 82.2656C29.1597 82.4074 29.0224 82.5492 28.8809 82.6953C27.249 84.6255 27.4449 86.5989 27.4962 88.9911C27.4992 89.4134 27.5016 89.8357 27.5032 90.2579C27.5094 91.3624 27.5255 92.4664 27.5437 93.5707C27.5606 94.7004 27.568 95.8301 27.5763 96.9598C27.5938 99.1713 27.6218 101.382 27.6564 103.594C27.9598 103.639 28.2633 103.684 28.5759 103.73C28.9793 103.791 29.3826 103.853 29.7859 103.914C29.9853 103.944 30.1847 103.973 30.3901 104.003C34.2536 104.597 37.5757 106.686 40.9279 108.589C44.6783 110.715 48.4977 112.761 52.5001 114.375C52.7153 114.464 52.9304 114.553 53.152 114.645C54.608 115.145 56.1019 115.155 57.6271 115.181C57.9426 115.189 57.9426 115.189 58.2645 115.197C60.0623 115.19 61.599 114.735 63.2814 114.141C63.4791 114.072 63.6769 114.002 63.8806 113.931C65.6619 113.307 67.438 112.67 69.214 112.031C69.7962 111.823 70.3784 111.614 70.9606 111.405C71.8653 111.081 72.7699 110.757 73.6744 110.432C76.003 109.597 78.333 108.765 80.6634 107.935C82.8391 107.16 85.014 106.382 87.1883 105.603C88.7346 105.05 90.2819 104.499 91.8302 103.951C92.7884 103.611 93.7458 103.269 94.7031 102.926C95.1448 102.768 95.5869 102.611 96.0294 102.456C100.332 100.994 100.332 100.994 103.384 97.7618C103.834 96.6982 103.769 95.475 103.425 94.3854C102.863 93.1724 102.165 92.4181 100.929 91.8574C98.491 91.0005 95.8206 92.0799 93.4572 92.7603C93.0475 92.8756 92.6377 92.9907 92.2279 93.1054C91.1562 93.4064 90.0857 93.7114 89.0153 94.0172C87.9231 94.3285 86.8298 94.6357 85.7365 94.9434C84.1429 95.3926 82.5497 95.8431 80.9575 96.2969C80.7909 96.3443 80.6244 96.3917 80.4528 96.4405C79.8025 96.6262 79.1574 96.8174 78.5158 97.0312C78.2814 97.5605 78.2814 97.5605 78.1056 98.2031C77.285 100.585 75.7814 102.138 73.5939 103.359C69.4956 105.315 65.1134 103.454 61.1427 102.129C60.5486 101.935 59.9545 101.741 59.36 101.548C58.4672 101.257 57.5746 100.966 56.6827 100.673C54.9006 100.087 53.114 99.5213 51.3182 98.9786C50.9021 98.8519 50.4861 98.7251 50.07 98.5984C49.4968 98.424 48.9233 98.2506 48.3486 98.081C47.8328 97.9285 47.3187 97.7711 46.8047 97.6126C46.5215 97.5278 46.2383 97.4429 45.9465 97.3555C45.1215 96.9798 44.7759 96.6226 44.297 95.8594C44.1509 94.6904 44.2824 93.9855 45.0001 93.0469C46.8928 92.1005 49.3129 93.2802 51.1653 93.891C51.5141 94.0035 51.863 94.1157 52.212 94.2277C53.129 94.5227 54.0447 94.8213 54.9602 95.1208C55.8772 95.4201 56.7952 95.7161 57.7132 96.0123C59.111 96.4637 60.5086 96.9162 61.9058 97.3699C62.0666 97.4221 62.2274 97.4743 62.3931 97.5281C63.1024 97.7583 63.8117 97.9888 64.5207 98.2197C65.1494 98.4242 65.7786 98.6271 66.4079 98.8293C66.5776 98.885 66.7473 98.9406 66.9221 98.9979C68.5772 99.5264 69.9412 99.6918 71.5578 99.0088C72.7287 98.3451 73.4082 97.3539 73.8283 96.0937C74.0138 94.6019 73.8913 93.5132 72.9997 92.2833C71.0675 89.9853 67.8609 89.305 65.1015 88.3871C64.5591 88.2067 64.0171 88.0249 63.4752 87.8428C62.1318 87.3917 60.7877 86.9427 59.4436 86.4938C58.3012 86.1121 57.1591 85.7295 56.0174 85.3459C55.4857 85.1676 54.9535 84.9905 54.4213 84.8135C54.0941 84.7037 53.7668 84.5938 53.4396 84.4838C53.1556 84.389 52.8716 84.2942 52.5789 84.1965C51.329 83.7326 50.4047 83.3736 49.673 82.2363C47.7032 79.5782 44.4527 78.0469 41.2372 77.5671C36.745 76.9732 33.1959 78.4866 29.9406 81.5387ZM4.68765 86.25C4.68765 94.3711 4.68765 102.492 4.68765 110.859C7.70405 110.859 10.7205 110.859 13.8283 110.859C13.8283 102.738 13.8283 94.6172 13.8283 86.25C10.8119 86.25 7.79546 86.25 4.68765 86.25ZM18.7501 86.25C18.7501 92.9016 18.7501 99.5531 18.7501 106.406C20.065 106.406 21.3798 106.406 22.7345 106.406C22.7345 99.7547 22.7345 93.1031 22.7345 86.25C21.4197 86.25 20.1048 86.25 18.7501 86.25Z" fill="white"/>
<path d="M82.7346 28.8281C83.486 29.2734 84 29.6097 84.3047 30.4541C84.449 31.2734 84.4237 31.76 84.0969 32.5342C83.4049 33.3693 83.0466 33.7095 81.9435 33.8525C80.9503 33.7326 80.459 33.4369 79.6877 32.8125C79.2807 31.9986 79.3122 31.1222 79.4533 30.2343C80.4412 28.9865 81.1547 28.6701 82.7346 28.8281Z" fill="white"/>
<path d="M39.3751 90C40.069 90.6052 40.452 90.9797 40.6514 91.875C40.7005 92.7403 40.5723 93.2416 40.1075 93.9697C39.4379 94.6196 39.0416 94.7355 38.13 94.7753C37.2893 94.7618 37.0577 94.705 36.3282 94.2187C35.7504 93.3519 35.5211 92.6826 35.6251 91.6406C36.0196 90.8212 36.3324 90.3774 37.1046 89.8974C37.9642 89.7175 38.5277 89.7578 39.3751 90Z" fill="white"/>
</g>
<defs>
<clipPath id="clip0_77_4563">
<rect width="120" height="120" fill="white"/>
</clipPath>
</defs>
</svg>
