<svg width="120" height="120" viewBox="0 0 120 120" fill="none" xmlns="http://www.w3.org/2000/svg">
<g clip-path="url(#clip0_77_4512)">
<path d="M6.35385 -0.033446C6.6031 -0.0349245 6.85235 -0.0364029 7.10916 -0.0379261C7.52138 -0.0385807 7.52138 -0.0385807 7.94193 -0.0392485C8.23312 -0.0406064 8.52431 -0.0419642 8.82432 -0.0433632C9.63415 -0.0468679 10.444 -0.049309 11.2538 -0.0512768C11.948 -0.0531523 12.6422 -0.0558924 13.3365 -0.0586396C15.823 -0.0684624 18.3096 -0.0748381 20.7961 -0.0805903C20.9923 -0.0810532 21.1886 -0.0815161 21.3907 -0.081993C25.2865 -0.0911714 29.1822 -0.099071 33.078 -0.104278C33.9345 -0.105443 34.7911 -0.106625 35.6476 -0.107827C35.967 -0.108274 35.967 -0.108274 36.2928 -0.10873C39.7417 -0.113736 43.1906 -0.12522 46.6396 -0.139291C50.1801 -0.153616 53.7205 -0.161744 57.2611 -0.16392C59.2491 -0.165306 61.2371 -0.169468 63.2252 -0.180651C64.9183 -0.190166 66.6113 -0.194123 68.3044 -0.190811C69.1681 -0.189295 70.0316 -0.190431 70.8954 -0.19875C71.8324 -0.207702 72.7689 -0.203905 73.706 -0.198894C74.1143 -0.205822 74.1143 -0.205822 74.5308 -0.212891C76.1426 -0.1911 77.0007 0.0581299 78.1386 1.22169C78.263 1.35993 78.3874 1.49817 78.5155 1.6406C78.6978 1.81308 78.88 1.98557 79.0677 2.16328C79.2928 2.38824 79.2928 2.38824 79.5224 2.61774C79.6982 2.79286 79.874 2.96798 80.0551 3.14841C80.3337 3.42775 80.3337 3.42775 80.618 3.71273C80.9196 4.01371 80.9196 4.01371 81.2273 4.32077C81.7729 4.86551 82.3179 5.41076 82.8627 5.9563C83.4347 6.52886 84.0072 7.10083 84.5797 7.67291C85.5389 8.63171 86.4976 9.591 87.4561 10.5506C88.5644 11.6602 89.6736 12.7689 90.7832 13.8773C91.7379 14.8309 92.6921 15.785 93.6459 16.7394C94.2149 17.3087 94.7839 17.8778 95.3534 18.4465C95.9864 19.0787 96.6184 19.7119 97.2504 20.3451C97.534 20.628 97.534 20.628 97.8233 20.9166C97.9945 21.0884 98.1656 21.2602 98.342 21.4373C98.4914 21.5868 98.6409 21.7363 98.7948 21.8904C99.3482 22.491 99.405 22.8882 99.411 23.6815C99.413 23.8796 99.415 24.0778 99.4171 24.2819C99.4186 24.6086 99.4186 24.6086 99.4201 24.942C99.422 25.171 99.424 25.4001 99.4259 25.6361C99.4318 26.3965 99.4356 27.1568 99.439 27.9172C99.4402 28.1764 99.4415 28.4357 99.4428 28.7028C99.4491 30.0749 99.4536 31.447 99.457 32.8191C99.4609 34.2378 99.4714 35.6563 99.4833 37.075C99.4912 38.1645 99.4939 39.2541 99.4952 40.3437C99.4968 40.8667 99.5004 41.3897 99.506 41.9127C99.5134 42.6445 99.5134 43.3759 99.5117 44.1076C99.5155 44.324 99.5194 44.5404 99.5233 44.7634C99.513 45.8261 99.4888 46.2621 98.8097 47.1212C97.9191 47.792 97.4476 47.9201 96.328 47.8125C95.0205 47.0723 95.0205 47.0723 94.6874 46.4062C94.6656 45.7697 94.6579 45.1393 94.6608 44.5027C94.6608 44.3061 94.6607 44.1094 94.6607 43.9068C94.6609 43.2549 94.6627 42.6031 94.6645 41.9513C94.665 41.5 94.6653 41.0488 94.6655 40.5976C94.6664 39.4085 94.6687 38.2194 94.6713 37.0304C94.6737 35.8176 94.6748 34.6048 94.676 33.392C94.6785 31.0113 94.6825 28.6307 94.6874 26.25C94.5106 26.251 94.3337 26.2521 94.1515 26.2531C92.476 26.2626 90.8005 26.2697 89.1249 26.2743C88.2637 26.2767 87.4026 26.28 86.5414 26.2853C85.7086 26.2905 84.8759 26.2932 84.0431 26.2945C83.5744 26.2957 83.1058 26.2994 82.6372 26.3031C79.9233 26.3034 77.6597 26.0892 75.4687 24.375C74.0372 22.8893 73.2681 21.2549 73.2795 19.1886C73.2794 19.0306 73.2793 18.8726 73.2792 18.7099C73.2796 18.1937 73.2851 17.6777 73.2906 17.1615C73.2919 16.8013 73.2929 16.4411 73.2936 16.0808C73.2963 15.1372 73.3032 14.1936 73.311 13.25C73.3182 12.2854 73.3214 11.3207 73.325 10.356C73.3325 8.46643 73.3445 6.57696 73.3593 4.68748C64.9374 4.70664 56.5155 4.72824 48.0936 4.75311C47.0994 4.75605 46.1052 4.75896 45.111 4.76186C44.8141 4.76273 44.8141 4.76273 44.5112 4.76361C41.3061 4.77293 38.1009 4.7806 34.8958 4.78767C31.6072 4.79496 28.3186 4.80401 25.03 4.81469C23.0006 4.82123 20.9713 4.82639 18.942 4.8298C17.5505 4.83227 16.159 4.83645 14.7675 4.84197C13.9647 4.8451 13.1618 4.84748 12.3589 4.84784C11.4881 4.84862 10.6173 4.85224 9.74653 4.85658C9.49323 4.85613 9.23993 4.85568 8.97896 4.85521C7.12718 4.84703 7.12718 4.84703 5.39054 5.3906C4.95173 6.55577 4.85462 7.65127 4.86281 8.88298C4.86213 9.06325 4.86144 9.24351 4.86074 9.42924C4.85903 10.0326 4.86066 10.6359 4.86227 11.2393C4.86173 11.6765 4.86099 12.1137 4.86006 12.5509C4.8581 13.7519 4.85907 14.9529 4.86052 16.1539C4.86158 17.4493 4.85994 18.7446 4.85865 20.04C4.85657 22.5775 4.85702 25.115 4.85838 27.6525C4.85943 29.7145 4.85958 31.7765 4.85907 33.8385C4.859 34.1319 4.85892 34.4252 4.85885 34.7274C4.8587 35.3232 4.85855 35.9191 4.85839 36.5149C4.8571 41.9446 4.85844 47.3744 4.8609 52.8041C4.86312 57.7606 4.86292 62.7172 4.86068 67.6737C4.85817 73.2426 4.85719 78.8115 4.85863 84.3804C4.85878 84.9741 4.85892 85.5678 4.85907 86.1614C4.85914 86.4535 4.85921 86.7456 4.85929 87.0466C4.85969 89.1065 4.85901 91.1663 4.85791 93.2262C4.85659 95.736 4.85695 98.2458 4.85944 100.756C4.86068 102.037 4.86116 103.317 4.85961 104.598C4.85821 105.77 4.85898 106.943 4.86147 108.115C4.862 108.539 4.86173 108.964 4.86059 109.388C4.85917 109.964 4.86063 110.541 4.86281 111.117C4.86171 111.282 4.86061 111.447 4.85948 111.618C4.86756 112.685 5.01316 113.609 5.39054 114.609C6.71759 115.252 8.18026 115.146 9.63086 115.143C9.89068 115.145 10.1505 115.146 10.4182 115.147C11.2876 115.151 12.157 115.152 13.0264 115.153C13.6501 115.155 14.2738 115.157 14.8975 115.16C16.2397 115.165 17.5819 115.169 18.9241 115.171C20.8646 115.174 22.8052 115.18 24.7457 115.187C27.8943 115.198 31.043 115.206 34.1916 115.214C37.2497 115.221 40.3078 115.229 43.3659 115.238C43.5545 115.239 43.7431 115.239 43.9374 115.24C44.8835 115.243 45.8296 115.246 46.7757 115.249C54.6213 115.273 62.4668 115.294 70.3124 115.312C70.3116 115.02 70.3107 114.727 70.3098 114.425C70.2895 107.472 70.274 100.518 70.2645 93.5641C70.2634 92.7078 70.2622 91.8515 70.2609 90.9952C70.2607 90.8247 70.2604 90.6543 70.2602 90.4786C70.2561 87.7201 70.2487 84.9617 70.2401 82.2032C70.2313 79.3717 70.2261 76.5403 70.2242 73.7088C70.223 72.1188 70.2202 70.5289 70.2133 68.9389C70.2069 67.442 70.205 65.9453 70.2064 64.4484C70.2061 63.8994 70.2043 63.3503 70.2007 62.8013C70.196 62.0507 70.1971 61.3003 70.1997 60.5497C70.1969 60.3333 70.1942 60.117 70.1914 59.894C70.2075 58.1364 70.6516 56.7271 71.7919 55.3711C71.9998 55.197 72.2076 55.023 72.4218 54.8437C72.5396 54.7401 72.6574 54.6365 72.7788 54.5297C74.8301 52.8684 77.5682 53.1341 80.07 53.1387C80.4352 53.1377 80.8005 53.1365 81.1657 53.1351C82.1516 53.132 83.1376 53.1318 84.1235 53.1324C84.9494 53.1327 85.7752 53.1315 86.601 53.1304C88.5508 53.1278 90.5005 53.1277 92.4502 53.1291C94.4555 53.1305 96.4607 53.1276 98.466 53.1227C100.193 53.1185 101.921 53.1171 103.648 53.1179C104.677 53.1183 105.706 53.1177 106.736 53.1144C107.704 53.1115 108.672 53.112 109.641 53.115C109.994 53.1155 110.348 53.1149 110.701 53.113C113.196 53.1002 115.983 53.0862 118.017 54.7384C119.496 56.2053 120.049 57.7206 120.066 59.7923C120.065 60.0092 120.065 60.226 120.064 60.4494C120.065 60.6824 120.067 60.9155 120.068 61.1557C120.071 61.9361 120.072 62.7166 120.072 63.4971C120.074 64.0569 120.075 64.6167 120.078 65.1765C120.083 66.6971 120.085 68.2176 120.086 69.7382C120.087 70.6884 120.088 71.6386 120.09 72.5888C120.095 75.2219 120.098 77.8549 120.099 80.488C120.099 80.6564 120.099 80.8247 120.099 80.9982C120.099 81.3395 120.099 81.6808 120.1 82.0221C120.1 82.1915 120.1 82.3609 120.1 82.5355C120.1 82.7899 120.1 82.7899 120.1 83.0494C120.101 85.7971 120.107 88.5447 120.116 91.2923C120.125 94.1161 120.129 96.94 120.129 99.7638C120.129 101.348 120.131 102.932 120.138 104.517C120.144 106.007 120.145 107.498 120.141 108.988C120.141 109.535 120.142 110.081 120.146 110.627C120.151 111.375 120.148 112.122 120.144 112.869C120.147 113.084 120.15 113.298 120.153 113.52C120.129 115.397 119.461 116.842 118.315 118.315C115.924 120.175 113.775 120.168 110.864 120.149C110.41 120.15 109.955 120.152 109.5 120.154C108.254 120.159 107.008 120.157 105.762 120.153C104.417 120.151 103.071 120.155 101.726 120.158C99.0921 120.163 96.4582 120.162 93.8242 120.159C91.6834 120.156 89.5427 120.156 87.4019 120.157C87.0972 120.157 86.7924 120.157 86.4785 120.157C85.8594 120.158 85.2404 120.158 84.6213 120.158C78.9823 120.162 73.3434 120.158 67.7045 120.152C62.559 120.147 57.4135 120.147 52.2681 120.153C46.4844 120.159 40.7007 120.161 34.917 120.158C34.3003 120.158 33.6835 120.157 33.0667 120.157C32.7632 120.157 32.4598 120.156 32.1471 120.156C30.009 120.155 27.8709 120.157 25.7328 120.16C23.1271 120.163 20.5213 120.162 17.9156 120.156C16.5862 120.153 15.2568 120.152 13.9274 120.155C12.7101 120.159 11.4929 120.157 10.2756 120.151C9.83561 120.149 9.39558 120.15 8.95558 120.153C4.76574 120.178 4.76574 120.178 2.81242 118.828C2.59972 118.698 2.38703 118.567 2.16789 118.433C0.647278 116.87 -0.0356677 115.198 -0.0321931 113.051C-0.0328146 112.865 -0.0334365 112.68 -0.0340769 112.489C-0.035884 111.863 -0.0360107 111.237 -0.0361507 110.611C-0.0370913 110.159 -0.0381318 109.708 -0.0392634 109.257C-0.0420722 108.012 -0.0433925 106.768 -0.0444619 105.523C-0.0458562 104.183 -0.0485775 102.842 -0.0510923 101.501C-0.056844 98.2615 -0.0602692 95.0217 -0.0632942 91.7819C-0.0641639 90.8671 -0.0650952 89.9523 -0.0660488 89.0375C-0.0719634 83.3594 -0.0771371 77.6812 -0.0800477 72.003C-0.0807324 70.6873 -0.0814274 69.3716 -0.0821344 68.0559C-0.0822214 67.8924 -0.0823086 67.729 -0.0823982 67.5605C-0.0852467 62.2616 -0.0924983 56.9626 -0.102272 51.6637C-0.112587 46.0617 -0.11861 40.4597 -0.119873 34.8577C-0.120673 31.8039 -0.123434 28.7501 -0.131147 25.6962C-0.137705 23.0956 -0.140289 20.4949 -0.137663 17.8943C-0.136446 16.5672 -0.137132 15.2403 -0.142929 13.9133C-0.148192 12.6981 -0.148033 11.483 -0.143584 10.2678C-0.142926 9.82852 -0.144247 9.38923 -0.147759 8.94997C-0.17916 4.76695 -0.179159 4.76696 1.17179 2.81248C1.30231 2.59978 1.43283 2.38709 1.5673 2.16794C2.8898 0.881192 4.49744 -0.0265633 6.35385 -0.033446ZM78.0468 8.43748C78.0289 9.90945 78.0166 11.3814 78.0082 12.8535C78.0046 13.3538 77.9998 13.8542 77.9937 14.3545C77.9852 15.0753 77.9812 15.7961 77.9781 16.517C77.9745 16.7392 77.9709 16.9615 77.9671 17.1904C77.9668 18.5093 78.0347 19.496 78.7499 20.625C80.066 21.4587 81.3339 21.4217 82.8579 21.3968C83.0897 21.3958 83.3214 21.3948 83.5602 21.3938C84.2957 21.3898 85.0311 21.381 85.7665 21.372C86.2672 21.3685 86.7678 21.3653 87.2684 21.3624C88.4915 21.3547 89.7144 21.343 90.9374 21.3281C89.6936 19.8194 88.3238 18.4459 86.9411 17.0663C86.6914 16.8165 86.4418 16.5666 86.1922 16.3167C85.6723 15.7965 85.152 15.2767 84.6314 14.7572C83.9628 14.0899 83.2953 13.4216 82.628 12.7529C82.1143 12.2384 81.6001 11.7244 81.0857 11.2106C80.8391 10.9642 80.5927 10.7176 80.3464 10.4708C80.0042 10.128 79.6613 9.78598 79.3182 9.44416C79.1231 9.24925 78.928 9.05434 78.727 8.85353C78.3542 8.41082 78.3542 8.41082 78.0468 8.43748ZM75.4687 58.5937C74.8245 59.6093 74.9338 60.7823 74.9388 61.9451C74.9379 62.1654 74.937 62.3857 74.9361 62.6127C74.9337 63.3513 74.9346 64.0899 74.9355 64.8285C74.9345 65.3578 74.9333 65.8872 74.9319 66.4166C74.9288 67.8547 74.9286 69.2929 74.9292 70.7311C74.9295 71.931 74.9283 73.1309 74.9272 74.3308C74.9245 77.3227 74.9247 80.3145 74.9262 83.3064C74.9274 85.9048 74.9247 88.5032 74.9203 91.1016C74.9158 93.77 74.9139 96.4383 74.9147 99.1067C74.9151 100.605 74.9145 102.103 74.9113 103.601C74.9083 105.009 74.9088 106.417 74.9118 107.825C74.9124 108.342 74.9117 108.86 74.9098 109.377C74.9074 110.082 74.9092 110.787 74.9122 111.492C74.9105 111.698 74.9088 111.903 74.907 112.115C74.9167 113.209 74.9665 113.972 75.703 114.844C76.4776 115.406 77.2141 115.372 78.1512 115.374C78.3024 115.374 78.4536 115.375 78.6094 115.376C79.1155 115.379 79.6216 115.378 80.1277 115.377C80.4908 115.378 80.8539 115.379 81.2169 115.38C82.2029 115.384 83.1888 115.384 84.1747 115.383C84.9977 115.383 85.8207 115.384 86.6437 115.385C88.5853 115.388 90.5268 115.388 92.4683 115.386C94.4715 115.385 96.4746 115.388 98.4777 115.393C100.197 115.397 101.917 115.398 103.637 115.398C104.664 115.397 105.691 115.398 106.719 115.401C107.684 115.404 108.65 115.404 109.616 115.401C109.971 115.4 110.325 115.401 110.679 115.403C111.163 115.405 111.647 115.403 112.131 115.4C112.402 115.4 112.673 115.4 112.952 115.4C113.768 115.301 114.198 115.113 114.844 114.609C115.238 113.959 115.371 113.474 115.371 112.718C115.373 112.435 115.373 112.435 115.375 112.145C115.374 111.836 115.374 111.836 115.372 111.521C115.373 111.3 115.373 111.08 115.374 110.854C115.376 110.114 115.375 109.375 115.373 108.636C115.374 108.106 115.375 107.577 115.376 107.048C115.378 105.608 115.377 104.169 115.375 102.73C115.374 101.225 115.375 99.7208 115.376 98.2162C115.377 95.5269 115.375 92.8376 115.373 90.1483C115.371 87.7101 115.371 85.2719 115.374 82.8337C115.376 80.0026 115.377 77.1714 115.376 74.3403C115.375 72.8415 115.375 71.3428 115.376 69.8441C115.378 68.4349 115.377 67.0258 115.374 65.6167C115.373 65.099 115.374 64.5814 115.375 64.0637C115.376 63.358 115.374 62.6524 115.372 61.9467C115.373 61.741 115.374 61.5353 115.375 61.3234C115.379 59.8942 115.379 59.8942 114.844 58.5937C113.959 58.076 113.142 58.0661 112.133 58.0655C111.982 58.0647 111.83 58.064 111.674 58.0632C111.169 58.0614 110.663 58.0628 110.158 58.0643C109.795 58.0637 109.432 58.0628 109.069 58.0618C108.084 58.0597 107.099 58.0605 106.114 58.062C105.083 58.0632 104.052 58.0621 103.021 58.0614C101.289 58.0605 99.5578 58.0616 97.8263 58.0639C95.8249 58.0664 93.8235 58.0656 91.8221 58.063C90.1033 58.0609 88.3846 58.0606 86.6658 58.0618C85.6394 58.0625 84.613 58.0626 83.5867 58.0611C82.6217 58.0597 81.6568 58.0607 80.6918 58.0634C80.3378 58.064 79.9838 58.0638 79.6298 58.0628C79.1463 58.0615 78.6629 58.0631 78.1794 58.0655C77.9089 58.0656 77.6385 58.0658 77.3598 58.066C76.6115 58.1274 76.1171 58.2141 75.4687 58.5937Z" fill="white"/>
<path d="M82.9128 62.5452C83.1365 62.5439 83.3603 62.5425 83.5908 62.5412C83.9566 62.5408 83.9566 62.5408 84.3298 62.5404C84.717 62.5386 84.717 62.5386 85.112 62.5368C85.9664 62.5334 86.8209 62.5318 87.6753 62.5305C88.2691 62.5292 88.8629 62.5278 89.4567 62.5265C90.5429 62.5243 91.6291 62.5228 92.7154 62.5221C94.3116 62.5211 95.9077 62.517 97.5039 62.5102C98.8887 62.5045 100.274 62.5027 101.658 62.5023C102.246 62.5016 102.834 62.4997 103.422 62.4966C104.245 62.4926 105.068 62.4931 105.891 62.4946C106.255 62.4913 106.255 62.4913 106.626 62.488C107.982 62.4959 108.968 62.6052 110.156 63.2812C110.659 64.0361 110.686 64.2501 110.697 65.1213C110.7 65.3521 110.704 65.5829 110.708 65.8207C110.709 66.0697 110.711 66.3187 110.712 66.5753C110.714 66.8317 110.716 67.088 110.718 67.3521C110.722 67.8947 110.724 68.4372 110.725 68.9798C110.727 69.8097 110.739 70.6391 110.751 71.4688C110.753 71.9958 110.755 72.5229 110.756 73.0499C110.76 73.298 110.765 73.5461 110.77 73.8017C110.768 74.0339 110.767 74.2662 110.765 74.5055C110.767 74.709 110.768 74.9124 110.769 75.122C110.543 76.0352 110.227 76.3363 109.453 76.875C108.54 77.0487 107.64 77.035 106.714 77.0266C106.437 77.0287 106.159 77.0307 105.874 77.0329C105.115 77.0371 104.357 77.0361 103.599 77.0324C102.804 77.0294 102.01 77.0322 101.215 77.034C99.8808 77.0362 98.5466 77.0334 97.2124 77.0278C95.671 77.0214 94.1299 77.0235 92.5885 77.0299C91.2638 77.0352 89.9392 77.036 88.6145 77.0329C87.8239 77.0311 87.0334 77.0308 86.2428 77.0347C85.3612 77.0377 84.48 77.0332 83.5985 77.0266C83.3372 77.029 83.0759 77.0314 82.8066 77.0338C81.0526 77.0097 81.0526 77.0097 80.1116 76.354C79.6601 75.6613 79.5395 75.3293 79.5357 74.5129C79.532 74.2822 79.5283 74.0514 79.5245 73.8137C79.5281 73.4438 79.5281 73.4438 79.5317 73.0664C79.5306 72.8107 79.5295 72.5551 79.5283 72.2916C79.5275 71.7519 79.5297 71.2121 79.5346 70.6723C79.5409 69.8465 79.5346 69.0215 79.5271 68.1958C79.5279 67.6709 79.5294 67.146 79.5317 66.6211C79.5294 66.3745 79.527 66.1279 79.5245 65.8738C79.5518 64.1702 79.5518 64.1702 80.2244 63.2483C81.1243 62.6306 81.8364 62.5491 82.9128 62.5452ZM84.3749 67.5C84.3749 68.9695 84.3749 70.4391 84.3749 71.9531C91.4905 71.9531 98.6061 71.9531 105.937 71.9531C105.937 70.4836 105.937 69.0141 105.937 67.5C98.8217 67.5 91.7061 67.5 84.3749 67.5Z" fill="white"/>
<path d="M41.2498 28.125C42.7377 28.8394 43.1357 29.8682 43.7383 31.3532C43.8355 31.5828 43.9327 31.8125 44.0329 32.0492C44.3496 32.8 44.6601 33.5532 44.9706 34.3067C45.1875 34.8254 45.4049 35.344 45.6226 35.8625C46.0637 36.9143 46.5025 37.967 46.94 39.0203C47.5265 40.429 48.1278 41.8309 48.7343 43.2312C48.9945 43.8353 49.2544 44.4395 49.5142 45.0438C49.6774 45.4223 49.8414 45.8004 50.0063 46.1781C50.2339 46.7004 50.4577 47.2242 50.6807 47.7484C50.7471 47.8983 50.8135 48.0482 50.8819 48.2027C51.3005 49.2004 51.4118 50.017 51.328 51.0938C51.0339 51.7554 50.7927 52.1398 50.2147 52.5733C49.1214 52.9073 48.3451 52.8927 47.3289 52.3535C46.2269 51.3347 45.7302 49.6689 45.2342 48.2813C45.2342 48.1266 45.2342 47.9719 45.2342 47.8125C42.1405 47.8899 39.0467 47.9672 35.8592 48.0469C35.3178 49.2844 34.7764 50.5219 34.2186 51.7969C33.0467 52.7344 33.0467 52.7344 32.2411 52.8516C31.265 52.7146 30.7605 52.4126 29.9998 51.7969C29.4953 50.7878 29.6404 49.6335 29.9563 48.5858C30.2347 47.873 30.5349 47.1741 30.8458 46.4749C30.958 46.2144 31.0701 45.9539 31.1857 45.6855C31.5485 44.8451 31.9167 44.007 32.285 43.169C32.5349 42.5945 32.7836 42.0195 33.0324 41.4446C33.5191 40.3207 34.0078 39.1977 34.4979 38.0753C35.0426 36.8264 35.579 35.5744 36.1073 34.3186C36.1732 34.1624 36.2391 34.0063 36.3069 33.8454C36.5922 33.169 36.8766 32.4922 37.1595 31.8148C38.8317 27.8791 38.8317 27.8791 41.2498 28.125ZM40.3123 37.0313C39.5389 38.9649 38.7655 40.8985 37.9686 42.8906C39.5928 42.8906 41.217 42.8906 42.8905 42.8906C42.641 41.6433 42.2264 40.5981 41.7332 39.4336C41.6488 39.2285 41.5644 39.0233 41.4774 38.812C41.3953 38.6171 41.3133 38.4222 41.2288 38.2215C41.1542 38.0436 41.0796 37.8657 41.0027 37.6824C40.8105 37.2237 40.8105 37.2237 40.3123 37.0313Z" fill="white"/>
<path d="M57.1874 28.3593C57.5387 28.7134 57.5387 28.7134 57.8493 29.1531C57.9682 29.3208 58.087 29.4886 58.2094 29.6614C58.9323 30.7393 59.6315 31.8309 60.3222 32.9296C60.4723 33.1671 60.6225 33.4046 60.7772 33.6492C61.1438 34.2293 61.5097 34.8097 61.8749 35.3906C62.5053 34.6259 63.0625 33.8538 63.5805 33.0093C63.7901 32.6723 63.7901 32.6723 64.004 32.3286C64.2937 31.8599 64.5824 31.3905 64.8701 30.9205C65.0101 30.6962 65.1501 30.4719 65.2944 30.2407C65.4198 30.0371 65.5451 29.8334 65.6743 29.6236C66.3068 28.7772 66.9441 28.2275 67.954 27.9052C68.8676 27.8866 69.3204 28.0887 70.078 28.5937C70.7101 29.3074 70.7841 29.6548 70.7583 30.6134C70.5806 31.8386 69.9681 32.7244 69.287 33.7353C69.163 33.9266 69.0389 34.1179 68.9111 34.3149C68.2735 35.2953 67.6192 36.2635 66.9579 37.228C66.8372 37.4071 66.7164 37.5861 66.592 37.7705C66.3617 38.1112 66.1275 38.4493 65.8891 38.7844C65.5309 39.2936 65.5309 39.2936 65.1562 40.0781C65.4131 40.9725 65.8857 41.7144 66.382 42.496C66.5317 42.7333 66.6815 42.9706 66.8357 43.2151C66.992 43.4609 67.1484 43.7067 67.3095 43.9599C68.2426 45.4316 69.1713 46.9058 70.0707 48.3984C70.2056 48.6211 70.3405 48.8437 70.4795 49.0731C70.7818 49.6888 70.8917 50.0487 70.8544 50.7275C70.4676 51.7773 70.1012 52.165 69.1405 52.7343C67.9445 52.9022 67.284 52.7492 66.328 52.0312C65.8571 51.4372 65.4642 50.8019 65.0683 50.1562C64.9565 49.9787 64.8448 49.8012 64.7296 49.6183C64.5056 49.2621 64.2826 48.9052 64.0607 48.5476C63.6399 47.8696 63.2118 47.1965 62.7831 46.5234C62.6568 46.3228 62.5305 46.1222 62.4004 45.9155C62.142 45.4853 62.142 45.4853 61.8749 45.2343C61.8066 45.3474 61.7383 45.4605 61.668 45.577C60.5491 47.4269 59.4288 49.2769 58.2567 51.0937C58.1169 51.3112 57.977 51.5288 57.8329 51.7529C57.4029 52.2891 57.1262 52.5065 56.4843 52.7343C55.3187 52.8403 54.5968 52.7712 53.6718 52.0312C53.1331 51.1575 53.1513 50.544 53.2911 49.552C53.5532 48.5349 54.111 47.7349 54.6972 46.875C54.8216 46.6856 54.946 46.4962 55.0741 46.3011C55.333 45.9073 55.5935 45.5146 55.8555 45.123C56.3685 44.3532 56.8689 43.5757 57.3693 42.7977C57.853 42.0458 58.3405 41.2963 58.828 40.5468C58.0133 38.9552 57.106 37.4457 56.1327 35.9472C56.0207 35.7743 55.9087 35.6013 55.7933 35.4231C55.2149 34.5354 54.6168 33.6699 53.994 32.8125C53.348 31.8462 53.1057 30.9284 53.203 29.7656C53.4965 29.0157 53.814 28.6777 54.4042 28.1396C55.4383 27.7574 56.1936 27.9146 57.1874 28.3593Z" fill="white"/>
<path d="M15.8563 76.2574C16.0603 76.2556 16.2643 76.2538 16.4745 76.2519C17.1582 76.2472 17.8415 76.2509 18.5251 76.2546C19.0152 76.253 19.5053 76.2509 19.9954 76.2484C21.3266 76.243 22.6577 76.2451 23.9889 76.2488C25.3813 76.2518 26.7736 76.2491 28.166 76.2472C30.5043 76.2451 32.8426 76.2479 35.181 76.2535C37.8853 76.2598 40.5896 76.2578 43.294 76.2513C45.6149 76.246 47.9358 76.2453 50.2566 76.2483C51.6433 76.2502 53.0298 76.2504 54.4165 76.2465C55.72 76.2431 57.0235 76.2455 58.327 76.2523C58.8057 76.2538 59.2845 76.2534 59.7632 76.2508C60.4162 76.2476 61.0687 76.2516 61.7216 76.2574C61.9116 76.2548 62.1017 76.2522 62.2975 76.2495C63.2535 76.2662 63.6946 76.3624 64.4529 76.9649C64.9622 77.631 65.0812 77.9232 65.0682 78.75C65.0713 78.9434 65.0743 79.1367 65.0774 79.3359C64.8463 80.2059 64.4515 80.5362 63.7499 81.0938C63.0299 81.2091 62.4406 81.2524 61.7216 81.2426C61.5176 81.2444 61.3135 81.2462 61.1033 81.2481C60.4197 81.2528 59.7364 81.2491 59.0528 81.2454C58.5627 81.247 58.0725 81.2491 57.5824 81.2516C56.2513 81.257 54.9202 81.2549 53.589 81.2512C52.1966 81.2482 50.8043 81.2509 49.4119 81.2528C47.0735 81.2549 44.7353 81.2521 42.3969 81.2465C39.6925 81.2402 36.9883 81.2422 34.2839 81.2487C31.963 81.254 29.6421 81.2547 27.3212 81.2517C25.9346 81.2498 24.548 81.2496 23.1614 81.2535C21.8579 81.2569 20.5544 81.2545 19.2509 81.2477C18.7721 81.2462 18.2934 81.2466 17.8147 81.2492C17.1617 81.2524 16.5092 81.2484 15.8563 81.2426C15.6662 81.2452 15.4762 81.2478 15.2804 81.2505C14.3243 81.2338 13.8832 81.1376 13.125 80.5351C12.6157 79.869 12.4967 79.5768 12.5096 78.75C12.5066 78.5566 12.5036 78.3633 12.5005 78.1641C12.9591 76.4374 14.2856 76.2358 15.8563 76.2574Z" fill="white"/>
<path d="M16.0817 102.507C16.2848 102.506 16.4879 102.504 16.6971 102.502C17.3775 102.497 18.0576 102.501 18.738 102.505C19.2258 102.503 19.7136 102.501 20.2014 102.498C21.5263 102.493 22.8511 102.495 24.176 102.499C25.5618 102.502 26.9475 102.499 28.3333 102.497C30.6606 102.495 32.9879 102.498 35.3152 102.503C38.0068 102.51 40.6983 102.508 43.3899 102.501C45.6998 102.496 48.0098 102.495 50.3197 102.498C51.6998 102.5 53.0798 102.5 54.4599 102.497C55.7573 102.493 57.0546 102.495 58.3519 102.502C58.8284 102.504 59.3049 102.503 59.7814 102.501C60.4312 102.498 61.0807 102.502 61.7305 102.507C61.9196 102.505 62.1087 102.502 62.3036 102.5C63.2577 102.516 63.6959 102.613 64.4523 103.215C64.9623 103.881 65.0812 104.173 65.0682 105C65.0713 105.193 65.0743 105.387 65.0774 105.586C64.8464 106.456 64.451 106.786 63.7499 107.344C63.0327 107.459 62.4467 107.502 61.7305 107.493C61.5274 107.494 61.3244 107.496 61.1151 107.498C60.4347 107.503 59.7547 107.499 59.0743 107.495C58.5865 107.497 58.0987 107.499 57.6109 107.502C56.286 107.507 54.9612 107.505 53.6363 107.501C52.2505 107.498 50.8647 107.501 49.4789 107.503C47.1516 107.505 44.8244 107.502 42.4971 107.497C39.8055 107.49 37.114 107.492 34.4224 107.499C32.1124 107.504 29.8025 107.505 27.4926 107.502C26.1125 107.5 24.7325 107.5 23.3524 107.503C22.055 107.507 20.7577 107.505 19.4603 107.498C18.9838 107.496 18.5074 107.497 18.0309 107.499C17.381 107.502 16.7316 107.498 16.0817 107.493C15.8926 107.495 15.7035 107.498 15.5087 107.5C14.5546 107.484 14.1164 107.387 13.36 106.785C12.85 106.119 12.7311 105.827 12.744 105C12.741 104.807 12.738 104.613 12.7349 104.414C13.1923 102.692 14.5139 102.486 16.0817 102.507Z" fill="white"/>
<path d="M26.0027 89.3824C26.2442 89.3797 26.2442 89.3797 26.4905 89.3769C27.0284 89.3722 27.5659 89.3759 28.1038 89.3796C28.49 89.378 28.8762 89.3759 29.2624 89.3734C30.3103 89.3681 31.3581 89.3701 32.4061 89.3738C33.5028 89.3768 34.5996 89.3741 35.6963 89.3722C37.5382 89.3701 39.3799 89.3729 41.2217 89.3785C43.351 89.3848 45.4801 89.3828 47.6094 89.3763C49.4376 89.371 51.2658 89.3703 53.0941 89.3733C54.186 89.3752 55.2778 89.3754 56.3697 89.3715C57.3963 89.3681 58.4227 89.3705 59.4492 89.3773C59.8259 89.3788 60.2026 89.3784 60.5793 89.3758C61.0937 89.3726 61.6076 89.3766 62.122 89.3824C62.4098 89.3829 62.6975 89.3833 62.994 89.3838C63.962 89.5726 64.3114 89.9453 64.9218 90.7031C65.0774 91.2891 65.0774 91.2891 65.0682 91.875C65.0713 92.0684 65.0743 92.2617 65.0774 92.4609C64.8501 93.3165 64.4276 93.6604 63.7499 94.2188C62.994 94.3662 62.994 94.3662 62.122 94.3676C61.961 94.3694 61.8001 94.3712 61.6342 94.3731C61.0963 94.3778 60.5588 94.3741 60.0209 94.3704C59.6347 94.372 59.2485 94.3741 58.8623 94.3766C57.8144 94.3819 56.7666 94.3799 55.7187 94.3762C54.6219 94.3732 53.5252 94.3759 52.4284 94.3778C50.5866 94.3799 48.7448 94.3771 46.903 94.3715C44.7738 94.3652 42.6447 94.3672 40.5154 94.3737C38.6871 94.379 36.8589 94.3797 35.0306 94.3767C33.9388 94.3748 32.8469 94.3746 31.7551 94.3785C30.7285 94.3819 29.7021 94.3795 28.6755 94.3727C28.2989 94.3712 27.9221 94.3716 27.5455 94.3742C27.031 94.3774 26.5171 94.3734 26.0027 94.3676C25.715 94.3671 25.4272 94.3667 25.1307 94.3662C24.1628 94.1774 23.8134 93.8047 23.203 93.0469C23.0474 92.4609 23.0474 92.4609 23.0565 91.875C23.0535 91.6816 23.0505 91.4883 23.0474 91.2891C23.4548 89.7553 24.5471 89.3847 26.0027 89.3824Z" fill="white"/>
<path d="M26.0027 63.1324C26.2442 63.1297 26.2442 63.1297 26.4905 63.1269C27.0284 63.1222 27.5659 63.1259 28.1038 63.1296C28.49 63.128 28.8762 63.1259 29.2624 63.1234C30.3103 63.1181 31.3581 63.1201 32.4061 63.1238C33.5028 63.1268 34.5996 63.1241 35.6963 63.1222C37.5382 63.1201 39.3799 63.1229 41.2217 63.1285C43.351 63.1348 45.4801 63.1328 47.6094 63.1263C49.4376 63.121 51.2658 63.1203 53.0941 63.1233C54.186 63.1252 55.2778 63.1254 56.3697 63.1215C57.3963 63.1181 58.4227 63.1205 59.4492 63.1273C59.8259 63.1288 60.2026 63.1284 60.5793 63.1258C61.0937 63.1226 61.6076 63.1266 62.122 63.1324C62.4098 63.1329 62.6975 63.1333 62.994 63.1338C63.962 63.3226 64.3114 63.6953 64.9218 64.4531C65.0774 65.0391 65.0774 65.0391 65.0682 65.625C65.0713 65.8184 65.0743 66.0117 65.0774 66.2109C64.8501 67.0665 64.4276 67.4104 63.7499 67.9688C62.994 68.1162 62.994 68.1162 62.122 68.1176C61.961 68.1194 61.8001 68.1212 61.6342 68.1231C61.0963 68.1278 60.5588 68.1241 60.0209 68.1204C59.6347 68.122 59.2485 68.1241 58.8623 68.1266C57.8144 68.1319 56.7666 68.1299 55.7187 68.1262C54.6219 68.1232 53.5252 68.1259 52.4284 68.1278C50.5866 68.1299 48.7448 68.1271 46.903 68.1215C44.7738 68.1152 42.6447 68.1172 40.5154 68.1237C38.6871 68.129 36.8589 68.1297 35.0306 68.1267C33.9388 68.1248 32.8469 68.1246 31.7551 68.1285C30.7285 68.1319 29.7021 68.1295 28.6755 68.1227C28.2989 68.1212 27.9221 68.1216 27.5455 68.1242C27.031 68.1274 26.5171 68.1234 26.0027 68.1176C25.715 68.1171 25.4272 68.1167 25.1307 68.1162C24.1628 67.9274 23.8134 67.5547 23.203 66.7969C23.0474 66.2109 23.0474 66.2109 23.0565 65.625C23.0535 65.4316 23.0505 65.2383 23.0474 65.0391C23.4548 63.5053 24.5471 63.1347 26.0027 63.1324Z" fill="white"/>
<path d="M16.0544 27.8529C16.4417 27.8495 16.4417 27.8495 16.8367 27.8461C17.2535 27.8446 17.2535 27.8446 17.6787 27.8431C17.9654 27.8417 18.252 27.8404 18.5474 27.839C19.1538 27.8368 19.7602 27.8353 20.3666 27.8344C21.2935 27.8321 22.2203 27.8248 23.1471 27.8174C23.7364 27.8159 24.3257 27.8147 24.915 27.8138C25.1919 27.8109 25.4688 27.808 25.7541 27.805C28.1701 27.8115 28.1701 27.8115 29.2967 28.5938C29.9544 29.3363 29.9999 29.7004 29.9999 30.7032C29.9339 31.3842 29.7321 31.6871 29.326 32.2522C28.2606 33.0673 27.361 32.9426 26.0594 32.8858C25.7152 32.8779 25.7152 32.8779 25.3641 32.8698C24.7996 32.856 24.2359 32.8368 23.6717 32.8125C23.6733 33.039 23.6749 33.2654 23.6765 33.4987C23.6907 35.6333 23.7013 37.7679 23.7082 39.9026C23.7118 41 23.7168 42.0974 23.7248 43.1948C23.7324 44.254 23.7366 45.3132 23.7384 46.3724C23.7397 46.7764 23.7423 47.1803 23.7461 47.5843C23.7512 48.1504 23.7519 48.7164 23.7516 49.2826C23.7541 49.4493 23.7566 49.6161 23.7592 49.7878C23.7528 50.8119 23.5881 51.4468 22.9686 52.2657C22.1649 52.8685 21.3656 52.8521 20.3905 52.7344C19.7159 52.3565 19.1166 51.9065 18.8303 51.1624C18.7166 50.4026 18.7193 49.6496 18.7233 48.8835C18.7232 48.7096 18.7232 48.5357 18.7231 48.3566C18.7233 47.7834 18.7251 47.2102 18.727 46.637C18.7274 46.239 18.7277 45.841 18.728 45.4429C18.7289 44.3964 18.7312 43.35 18.7338 42.3035C18.7362 41.2352 18.7372 40.1669 18.7384 39.0986C18.7409 37.0032 18.7449 34.9079 18.7499 32.8125C18.614 32.8175 18.4781 32.8224 18.3382 32.8274C17.7186 32.847 17.0991 32.8591 16.4794 32.8711C16.1587 32.8829 16.1587 32.8829 15.8316 32.8949C14.8082 32.9098 14.2294 32.915 13.34 32.3694C12.5886 31.543 12.5632 30.9123 12.5737 29.827C12.6561 29.2969 12.6561 29.2969 13.1835 28.5938C14.1385 27.8992 14.8904 27.8611 16.0544 27.8529Z" fill="white"/>
<path d="M110.156 106.406C110.648 107.145 110.705 107.396 110.727 108.252C110.742 108.548 110.742 108.548 110.756 108.851C110.554 109.779 110.23 110.079 109.453 110.625C108.59 110.796 107.752 110.789 106.875 110.771C106.529 110.778 106.529 110.778 106.175 110.785C105.073 110.778 104.476 110.752 103.559 110.103C102.973 109.226 102.958 108.693 103.01 107.667C103.188 106.804 103.591 106.435 104.297 105.937C106.103 105.311 108.524 105.405 110.156 106.406Z" fill="white"/>
<path d="M98.4374 106.406C98.9297 107.145 98.9866 107.396 99.0087 108.252C99.0228 108.548 99.0228 108.548 99.0371 108.851C98.8353 109.779 98.5113 110.079 97.7343 110.625C96.871 110.796 96.0336 110.789 95.1562 110.771C94.8099 110.778 94.8099 110.778 94.4567 110.785C93.3539 110.778 92.7576 110.752 91.8401 110.103C91.2547 109.226 91.2388 108.693 91.2908 107.667C91.4693 106.804 91.8723 106.435 92.578 105.937C94.3843 105.311 96.8056 105.405 98.4374 106.406Z" fill="white"/>
<path d="M86.7187 106.406C87.211 107.145 87.2678 107.396 87.29 108.252C87.304 108.548 87.304 108.548 87.3183 108.851C87.1166 109.779 86.7926 110.079 86.0155 110.625C85.1522 110.796 84.3148 110.789 83.4374 110.771C83.0912 110.778 83.0912 110.778 82.738 110.785C81.6351 110.778 81.0389 110.752 80.1214 110.103C79.536 109.226 79.5201 108.693 79.5721 107.667C79.7505 106.804 80.1535 106.435 80.8593 105.937C82.6655 105.311 85.0868 105.405 86.7187 106.406Z" fill="white"/>
<path d="M110.156 95.1562C110.648 95.8947 110.705 96.1458 110.727 97.0019C110.742 97.2983 110.742 97.2983 110.756 97.6006C110.554 98.5291 110.23 98.8294 109.453 99.3749C108.59 99.5456 107.752 99.5387 106.875 99.5214C106.529 99.5282 106.529 99.5282 106.175 99.5352C105.073 99.5277 104.476 99.502 103.559 98.8531C102.973 97.9762 102.958 97.4432 103.01 96.4169C103.188 95.5544 103.591 95.1847 104.297 94.6874C106.103 94.0611 108.524 94.1548 110.156 95.1562Z" fill="white"/>
<path d="M98.4374 95.1562C98.9297 95.8947 98.9866 96.1458 99.0087 97.0019C99.0228 97.2983 99.0228 97.2983 99.0371 97.6006C98.8353 98.5291 98.5113 98.8294 97.7343 99.3749C96.871 99.5456 96.0336 99.5387 95.1562 99.5214C94.8099 99.5282 94.8099 99.5282 94.4567 99.5352C93.3539 99.5277 92.7576 99.502 91.8401 98.8531C91.2547 97.9762 91.2388 97.4432 91.2908 96.4169C91.4693 95.5544 91.8723 95.1847 92.578 94.6874C94.3843 94.0611 96.8056 94.1548 98.4374 95.1562Z" fill="white"/>
<path d="M86.7187 95.1562C87.211 95.8947 87.2678 96.1458 87.29 97.0019C87.304 97.2983 87.304 97.2983 87.3183 97.6006C87.1166 98.5291 86.7926 98.8294 86.0155 99.3749C85.1522 99.5456 84.3148 99.5387 83.4374 99.5214C83.0912 99.5282 83.0912 99.5282 82.738 99.5352C81.6351 99.5277 81.0389 99.502 80.1214 98.8531C79.536 97.9762 79.5201 97.4432 79.5721 96.4169C79.7505 95.5544 80.1535 95.1847 80.8593 94.6874C82.6655 94.0611 85.0868 94.1548 86.7187 95.1562Z" fill="white"/>
<path d="M110.156 83.9062C110.648 84.6447 110.705 84.8958 110.727 85.7519C110.742 86.0483 110.742 86.0483 110.756 86.3506C110.554 87.2791 110.23 87.5794 109.453 88.1249C108.59 88.2956 107.752 88.2887 106.875 88.2714C106.529 88.2782 106.529 88.2782 106.175 88.2852C105.073 88.2777 104.476 88.252 103.559 87.6031C102.973 86.7262 102.958 86.1932 103.01 85.1669C103.188 84.3044 103.591 83.9347 104.297 83.4374C106.103 82.8111 108.524 82.9048 110.156 83.9062Z" fill="white"/>
<path d="M98.4374 83.9062C98.9297 84.6447 98.9866 84.8958 99.0087 85.7519C99.0228 86.0483 99.0228 86.0483 99.0371 86.3506C98.8353 87.2791 98.5113 87.5794 97.7343 88.1249C96.871 88.2956 96.0336 88.2887 95.1562 88.2714C94.8099 88.2782 94.8099 88.2782 94.4567 88.2852C93.3539 88.2777 92.7576 88.252 91.8401 87.6031C91.2547 86.7262 91.2388 86.1932 91.2908 85.1669C91.4693 84.3044 91.8723 83.9347 92.578 83.4374C94.3843 82.8111 96.8056 82.9048 98.4374 83.9062Z" fill="white"/>
<path d="M86.7187 83.9062C87.211 84.6447 87.2678 84.8958 87.29 85.7519C87.304 86.0483 87.304 86.0483 87.3183 86.3506C87.1166 87.2791 86.7926 87.5794 86.0155 88.1249C85.1522 88.2956 84.3148 88.2887 83.4374 88.2714C83.0912 88.2782 83.0912 88.2782 82.738 88.2852C81.6351 88.2777 81.0389 88.252 80.1214 87.6031C79.536 86.7262 79.5201 86.1932 79.5721 85.1669C79.7505 84.3044 80.1535 83.9347 80.8593 83.4374C82.6655 82.8111 85.0868 82.9048 86.7187 83.9062Z" fill="white"/>
<path d="M16.4061 89.5313C17.1385 89.9707 17.1385 89.9707 17.578 90.7031C17.8097 91.8812 17.7601 92.7434 17.1385 93.7793C16.1026 94.4009 15.2404 94.4505 14.0623 94.2188C13.3299 93.7793 13.3299 93.7793 12.8905 93.0469C12.6587 91.8689 12.7084 91.0066 13.3299 89.9707C14.3658 89.3492 15.2281 89.2995 16.4061 89.5313Z" fill="white"/>
<path d="M16.4061 63.2813C17.1385 63.7207 17.1385 63.7207 17.578 64.4531C17.8097 65.6312 17.7601 66.4934 17.1385 67.5293C16.1026 68.1509 15.2404 68.2005 14.0623 67.9688C13.3299 67.5293 13.3299 67.5293 12.8905 66.7969C12.6587 65.6189 12.7084 64.7566 13.3299 63.7207C14.3658 63.0992 15.2281 63.0495 16.4061 63.2813Z" fill="white"/>
</g>
<defs>
<clipPath id="clip0_77_4512">
<rect width="120" height="120" fill="white"/>
</clipPath>
</defs>
</svg>
