<svg width="120" height="120" viewBox="0 0 120 120" fill="none" xmlns="http://www.w3.org/2000/svg">
<path d="M53.0969 41.8515C53.6469 41.8504 54.197 41.8492 54.747 41.8478C55.8942 41.8457 57.0414 41.8462 58.1886 41.8486C59.6449 41.8513 61.1011 41.8465 62.5574 41.8397C63.692 41.8354 64.8265 41.8355 65.9611 41.8368C66.4973 41.8368 67.0336 41.8355 67.5699 41.8325C74.7589 41.7986 81.4432 43.1631 86.9531 48.0469C87.1978 48.2585 87.1978 48.2585 87.4475 48.4744C89.9324 50.7715 91.6104 54.033 91.875 57.4219C91.9018 58.4719 91.8971 59.521 91.8896 60.5713C91.8886 60.8545 91.8875 61.1378 91.8864 61.4296C91.8837 62.125 91.8798 62.8203 91.875 63.5156C92.1037 63.5075 92.3324 63.4993 92.568 63.4909C93.0153 63.4814 93.0153 63.4814 93.4717 63.4717C93.7681 63.4635 94.0644 63.4554 94.3698 63.447C95.1562 63.5156 95.1562 63.5156 95.5414 63.8047C95.9264 64.3061 96.0056 64.6663 96.1084 65.2881C96.1453 65.4941 96.1821 65.7002 96.2201 65.9125C96.2921 66.3458 96.3641 66.7792 96.4362 67.2125C96.473 67.4186 96.5099 67.6246 96.5478 67.8369C96.579 68.0251 96.6101 68.2134 96.6421 68.4073C96.8713 69.1464 97.2646 69.4853 97.9376 69.8401C98.0929 69.8993 98.2482 69.9585 98.4082 70.0195C98.5623 70.0812 98.7164 70.1428 98.8751 70.2063C99.8162 70.4063 100.394 70.1765 101.192 69.6616C101.41 69.4945 101.627 69.3274 101.851 69.1553C103.965 67.5398 103.965 67.5398 105.469 67.7344C106.084 68.1361 106.579 68.6418 107.093 69.1635C107.316 69.384 107.316 69.384 107.544 69.6089C107.857 69.9202 108.169 70.2334 108.479 70.5482C108.953 71.0283 109.435 71.4998 109.918 71.971C110.222 72.2749 110.525 72.5793 110.828 72.8842C111.045 73.0945 111.045 73.0945 111.265 73.3091C111.964 74.0307 112.243 74.3754 112.391 75.3963C112.269 76.1534 112.159 76.5101 111.693 77.103C111.517 77.3393 111.517 77.3393 111.338 77.5804C111.086 77.9022 110.835 78.2238 110.583 78.5454C109.843 79.5084 109.843 79.5084 109.713 80.6873C109.782 80.8988 109.851 81.1102 109.922 81.3281C109.985 81.6133 110.048 81.8985 110.112 82.1924C110.711 83.0989 110.912 83.1356 111.929 83.3936C112.43 83.494 112.933 83.5868 113.437 83.6719C113.872 83.7485 114.307 83.8264 114.741 83.9063C115.017 83.9498 115.017 83.9498 115.299 83.9941C115.886 84.1724 116.101 84.3678 116.484 84.8438C116.574 85.3151 116.574 85.3151 116.575 85.8591C116.578 86.0632 116.58 86.2674 116.582 86.4777C116.58 86.8073 116.58 86.8073 116.578 87.1436C116.578 87.3698 116.579 87.596 116.58 87.8291C116.58 88.3075 116.579 88.7858 116.576 89.2642C116.572 89.9972 116.576 90.73 116.58 91.463C116.58 91.9275 116.579 92.392 116.578 92.8565C116.579 93.0762 116.581 93.2959 116.582 93.5223C116.58 93.7265 116.578 93.9306 116.575 94.1409C116.575 94.3205 116.574 94.5 116.574 94.6849C116.461 95.2817 116.252 95.4873 115.781 95.8594C115.282 96.0141 115.282 96.0141 114.712 96.1084C114.506 96.1453 114.3 96.1821 114.088 96.2201C113.654 96.2921 113.221 96.3641 112.787 96.4362C112.581 96.473 112.375 96.5099 112.163 96.5479C111.975 96.579 111.787 96.6101 111.593 96.6422C111.014 96.8216 110.772 97.0361 110.391 97.5C110.15 97.943 110.15 97.943 109.98 98.4229C109.919 98.5797 109.857 98.7365 109.794 98.898C109.637 99.6023 109.795 100.101 110.164 100.716C110.261 100.848 110.358 100.979 110.457 101.115C110.562 101.264 110.667 101.412 110.776 101.564C110.996 101.871 111.219 102.176 111.444 102.48C111.549 102.629 111.653 102.778 111.761 102.932C111.858 103.065 111.955 103.197 112.054 103.334C112.387 104.111 112.382 104.631 112.266 105.469C111.87 106.101 111.368 106.597 110.836 107.116C110.616 107.339 110.616 107.339 110.391 107.566C110.08 107.878 109.767 108.188 109.452 108.496C108.971 108.968 108.5 109.448 108.029 109.93C107.725 110.232 107.421 110.535 107.116 110.836C106.976 110.98 106.835 111.124 106.691 111.271C105.969 111.966 105.623 112.243 104.604 112.391C103.846 112.269 103.49 112.159 102.897 111.693C102.661 111.517 102.661 111.517 102.42 111.338C102.098 111.086 101.776 110.835 101.455 110.583C100.492 109.843 100.492 109.843 99.3127 109.713C99.1013 109.782 98.8898 109.851 98.6719 109.922C98.3867 109.985 98.1015 110.048 97.8076 110.112C96.9011 110.711 96.8644 110.912 96.6064 111.929C96.506 112.43 96.4132 112.933 96.3281 113.438C96.2516 113.872 96.1736 114.307 96.0937 114.741C96.0647 114.925 96.0357 115.109 96.0059 115.299C95.8276 115.886 95.6322 116.101 95.1562 116.484C94.6849 116.574 94.6849 116.574 94.1409 116.575C93.9368 116.578 93.7326 116.58 93.5223 116.582C93.1927 116.58 93.1927 116.58 92.8564 116.578C92.5171 116.579 92.5171 116.579 92.1709 116.58C91.6925 116.58 91.2142 116.579 90.7358 116.576C90.0028 116.572 89.27 116.576 88.537 116.581C88.0725 116.58 87.608 116.579 87.1435 116.578C86.9238 116.579 86.7041 116.581 86.4777 116.582C86.2735 116.58 86.0694 116.578 85.8591 116.575C85.5898 116.575 85.5898 116.575 85.3151 116.574C84.7183 116.461 84.5127 116.252 84.1406 115.781C83.9859 115.282 83.9859 115.282 83.8916 114.712C83.8547 114.506 83.8179 114.3 83.7799 114.088C83.7079 113.654 83.6359 113.221 83.5638 112.787C83.527 112.581 83.4901 112.375 83.4521 112.163C83.421 111.975 83.3899 111.787 83.3578 111.593C83.1784 111.014 82.9639 110.772 82.5 110.391C82.057 110.15 82.057 110.15 81.5771 109.98C81.4203 109.919 81.2635 109.857 81.102 109.794C80.3977 109.637 79.8989 109.795 79.2844 110.164C79.1524 110.261 79.0205 110.358 78.8846 110.457C78.7364 110.562 78.5882 110.667 78.4355 110.776C78.129 110.996 77.8238 111.219 77.52 111.444C77.3709 111.549 77.2218 111.653 77.0682 111.761C76.9354 111.858 76.8027 111.955 76.666 112.054C75.889 112.387 75.3694 112.382 74.5312 112.266C73.8994 111.87 73.4033 111.368 72.8842 110.836C72.6614 110.616 72.6614 110.616 72.4341 110.391C72.1219 110.08 71.8117 109.767 71.5035 109.452C71.0317 108.971 70.5518 108.5 70.0703 108.029C69.7675 107.725 69.4652 107.421 69.1635 107.116C69.02 106.976 68.8764 106.835 68.7286 106.691C68.0338 105.969 67.7566 105.623 67.6093 104.604C67.7314 103.846 67.8413 103.49 68.3066 102.897C68.4826 102.661 68.4826 102.661 68.6623 102.42C68.9136 102.098 69.1651 101.776 69.4166 101.455C70.1573 100.492 70.1573 100.492 70.2869 99.3128C70.218 99.1013 70.1491 98.8898 70.0781 98.6719C70.0153 98.3867 69.9524 98.1015 69.8877 97.8076C69.2891 96.9011 69.0876 96.8644 68.0713 96.6065C67.5698 96.506 67.0668 96.4132 66.5625 96.3281C66.1276 96.2516 65.693 96.1736 65.2588 96.0938C64.9828 96.0503 64.9828 96.0503 64.7012 96.0059C64.1084 95.8259 63.8963 95.6439 63.5156 95.1563C63.4358 94.6031 63.4358 94.6031 63.447 93.9597C63.4487 93.752 63.4505 93.5444 63.4523 93.3305C63.4587 93.0677 63.4651 92.8049 63.4717 92.5342C63.4862 91.6979 63.5007 90.8616 63.5156 90C61.1953 90 58.875 90 56.4844 90C56.4844 91.1602 56.4844 92.3203 56.4844 93.5156C56.3838 94.2872 56.2777 94.9924 56.1035 95.7422C56.0414 96.0214 56.0414 96.0214 55.978 96.3062C54.4159 102.943 50.0653 108.951 44.2969 112.573C39.9018 115.253 35.2665 116.579 30.1172 116.572C29.9631 116.572 29.8091 116.572 29.6504 116.572C22.0659 116.543 15.7778 113.497 10.4224 108.159C4.84425 102.288 3.32554 95.1791 3.48472 87.3008C3.54178 85.793 3.77267 84.4147 4.21874 82.9688C4.26531 82.8137 4.31187 82.6586 4.35985 82.4988C6.52781 75.4102 11.1685 69.8164 17.6807 66.2549C20.8371 64.5982 24.5382 63.4287 28.125 63.5156C28.1213 63.3482 28.1176 63.1808 28.1138 63.0083C28.013 57.7257 28.1817 53.0525 32.0341 49.0303C34.7261 46.3319 37.6324 44.5219 41.2207 43.2861C41.3748 43.2322 41.5289 43.1782 41.6877 43.1225C45.4316 41.9147 49.2007 41.8448 53.0969 41.8515ZM40.0781 47.1094C39.8261 47.2245 39.5742 47.3396 39.3146 47.4582C37.2969 48.4575 35.785 49.743 34.2187 51.3281C34.0713 51.4732 33.9239 51.6182 33.772 51.7676C31.4317 54.2511 31.0939 57.4716 31.1426 60.7178C31.1447 60.9877 31.1468 61.2577 31.149 61.5358C31.1545 62.1958 31.1621 62.8557 31.1719 63.5156C31.3013 63.5308 31.4308 63.546 31.5642 63.5616C38.4987 64.3982 44.1819 66.7536 49.2187 71.7188C49.4716 71.9671 49.4716 71.9671 49.7296 72.2205C53.1142 75.7817 54.9696 80.3588 56.0156 85.0781C56.1703 85.6969 56.325 86.3156 56.4844 86.9531C58.8047 86.9531 61.125 86.9531 63.5156 86.9531C63.593 86.257 63.6703 85.5609 63.75 84.8438C64.2948 84.299 64.5141 84.2791 65.257 84.1571C65.4627 84.1206 65.6684 84.084 65.8804 84.0463C66.3135 83.9728 66.7469 83.9008 67.1805 83.8303C68.7303 83.5638 68.7303 83.5638 69.8437 82.5C70.3986 81.4688 70.3986 81.4688 70.5212 80.3293C70.1717 79.2547 69.4605 78.4081 68.7904 77.5086C68.6857 77.3605 68.5811 77.2125 68.4732 77.0599C68.3765 76.9287 68.2798 76.7975 68.1802 76.6623C67.8472 75.8899 67.8548 75.3648 67.9687 74.5313C68.3504 73.9166 68.8375 73.4378 69.3549 72.9355C69.4972 72.7922 69.6395 72.6488 69.7861 72.5011C70.0872 72.2 70.3903 71.9009 70.6953 71.6037C71.1611 71.1485 71.6182 70.6857 72.0749 70.2214C72.3689 69.9293 72.6634 69.6377 72.9584 69.3466C73.0947 69.2082 73.2309 69.0698 73.3714 68.9272C74.0237 68.3007 74.3628 67.9954 75.2754 67.8511C75.9325 67.9679 76.307 68.1015 76.8539 68.4732C77.0133 68.5779 77.1727 68.6826 77.3369 68.7904C77.4987 68.9012 77.6605 69.0119 77.8271 69.126C79.225 70.1396 79.225 70.1396 80.8594 70.5469C81.7758 70.3422 82.4876 69.9833 83.2031 69.375C83.6292 68.4639 83.7675 67.5535 83.9062 66.5625C83.9865 66.1225 84.0693 65.683 84.1553 65.2441C84.187 65.0574 84.2187 64.8707 84.2514 64.6784C84.375 64.2188 84.375 64.2188 84.8437 63.75C85.5234 63.6781 86.1839 63.6301 86.8652 63.6035C87.0531 63.5945 87.2411 63.5854 87.4347 63.5761C87.8991 63.5539 88.3636 63.5345 88.8281 63.5156C88.8489 62.5977 88.8611 61.6798 88.8721 60.7617C88.878 60.5058 88.8838 60.2499 88.8899 59.9863C88.9198 56.6153 88.0811 53.659 85.7465 51.1676C81.4906 46.8401 75.6364 45.001 69.6784 44.9319C68.6932 44.9239 67.708 44.9219 66.7227 44.9213C66.1918 44.9198 65.6609 44.9182 65.13 44.9165C64.0203 44.9138 62.9107 44.9129 61.801 44.9131C60.3919 44.9132 58.983 44.9068 57.5739 44.8987C56.4778 44.8935 55.3817 44.8926 54.2855 44.8928C53.7667 44.8923 53.2479 44.8902 52.7291 44.8866C48.336 44.8584 44.1098 45.2402 40.0781 47.1094ZM11.7187 75C7.35942 80.3108 6.16107 86.569 6.56249 93.2813C7.07019 97.645 9.22509 102.223 12.1875 105.469C12.2648 105.469 12.3422 105.469 12.4219 105.469C12.4992 100.828 12.5766 96.1875 12.6562 91.4063C13.5972 90.9358 13.9613 90.8784 14.9762 90.8769C15.2546 90.8754 15.5331 90.8739 15.82 90.8724C16.1198 90.8733 16.4196 90.8743 16.7285 90.8753C17.1914 90.8746 17.1914 90.8746 17.6636 90.8739C18.3161 90.8732 18.9686 90.8742 19.6211 90.8764C20.4565 90.8791 21.2918 90.8775 22.1272 90.8747C22.9253 90.8726 23.7234 90.8741 24.5215 90.8753C24.9712 90.8738 24.9712 90.8738 25.43 90.8724C25.8477 90.8746 25.8477 90.8746 26.2738 90.8769C26.5187 90.8772 26.7636 90.8776 27.0159 90.878C27.6665 90.9385 28.0501 91.0504 28.5937 91.4063C28.9112 92.0412 28.8597 92.5402 28.8622 93.251C28.8637 93.5396 28.8652 93.8282 28.8667 94.1256C28.8671 94.442 28.8673 94.7584 28.8675 95.0748C28.8682 95.3982 28.869 95.7217 28.8698 96.0451C28.8713 96.7235 28.8717 97.4018 28.8715 98.0802C28.8715 98.9498 28.8747 99.8193 28.8788 100.689C28.8814 101.357 28.8818 102.025 28.8817 102.693C28.882 103.014 28.883 103.335 28.8848 103.655C28.8871 104.103 28.8862 104.552 28.885 105C28.8854 105.255 28.8857 105.51 28.8861 105.773C28.8281 106.406 28.8281 106.406 28.3594 107.109C27.7691 107.203 27.7691 107.203 27.0153 107.211C26.7337 107.215 26.4522 107.22 26.1622 107.225C25.7044 107.227 25.7044 107.227 25.2374 107.229C24.9228 107.233 24.6082 107.238 24.2936 107.242C23.4652 107.253 22.6368 107.26 21.8083 107.266C20.9631 107.273 20.1179 107.284 19.2728 107.295C17.6142 107.315 15.9555 107.331 14.2969 107.344C18.5793 111.644 24.2341 113.573 30.2344 113.672C35.8916 113.576 41.4851 111.364 45.7031 107.578C45.7031 107.501 45.7031 107.423 45.7031 107.344C45.528 107.342 45.3528 107.341 45.1724 107.34C43.5238 107.326 41.8753 107.309 40.2268 107.289C39.3793 107.278 38.5317 107.269 37.6841 107.263C36.8665 107.256 36.049 107.247 35.2314 107.235C34.7669 107.229 34.3023 107.227 33.8378 107.225C33.4155 107.218 33.4155 107.218 32.9847 107.211C32.7359 107.208 32.4872 107.206 32.2309 107.203C31.9387 107.157 31.9387 107.157 31.6406 107.109C31.0956 106.292 31.1126 105.969 31.1112 105.004C31.1097 104.715 31.1083 104.426 31.1067 104.129C31.1076 103.814 31.1085 103.499 31.1096 103.184C31.1093 102.861 31.1088 102.537 31.1082 102.214C31.1076 101.537 31.1086 100.86 31.1108 100.183C31.1134 99.3157 31.1119 98.448 31.1091 97.5802C31.1074 96.9131 31.1079 96.246 31.1091 95.5789C31.1095 95.2589 31.1091 94.9389 31.108 94.619C31.1068 94.1719 31.1089 93.7247 31.1112 93.2776C31.1116 93.0231 31.112 92.7687 31.1123 92.5065C31.1719 91.875 31.1719 91.875 31.6406 91.1719C32.3851 90.9237 32.9174 90.9063 33.6996 90.9035C33.978 90.902 34.2565 90.9005 34.5434 90.8989C34.995 90.8985 34.995 90.8985 35.4556 90.8981C35.7645 90.8974 36.0734 90.8966 36.3917 90.8958C37.0456 90.8944 37.6995 90.8939 38.3534 90.8941C39.1907 90.8941 40.0279 90.8909 40.8651 90.8869C41.6645 90.8836 42.4639 90.8838 43.2632 90.8835C43.5638 90.8818 43.8643 90.8801 44.174 90.8784C44.5928 90.8795 44.5928 90.8795 45.0201 90.8806C45.2657 90.8802 45.5113 90.8799 45.7644 90.8796C46.4062 90.9375 46.4062 90.9375 47.3437 91.4063C47.4211 96.0469 47.4984 100.688 47.5781 105.469C50.6241 102.423 52.2946 98.6208 53.2031 94.4531C53.244 94.2735 53.2848 94.0939 53.3269 93.9089C54.386 87.8965 52.8999 81.6316 49.4531 76.6406C45.6542 71.3877 40.3117 67.8742 33.9417 66.6555C25.2388 65.4296 17.577 68.5812 11.7187 75ZM86.9531 66.5625C86.4479 68.5397 86.4479 68.5397 86.1035 70.5469C85.9676 71.1523 85.8935 71.4016 85.3903 71.7728C84.8877 71.9971 84.8877 71.9971 84.3219 72.193C83.2887 72.5568 82.3317 73.0837 81.3547 73.5764C80.4785 73.8787 80.1007 73.874 79.2187 73.5938C78.5732 73.2393 77.9747 72.8311 77.373 72.4072C77.2117 72.2965 77.0504 72.1858 76.8841 72.0717C76.489 71.8 76.0958 71.5253 75.7031 71.25C74.1132 72.5509 72.6902 74.0073 71.25 75.4688C71.9472 76.7736 72.6849 77.9863 73.5846 79.1629C73.9283 79.9033 73.8022 80.3111 73.5937 81.0938C73.384 81.6465 73.1584 82.1934 72.9199 82.7344C72.7395 83.1477 72.7395 83.1477 72.5555 83.5693C72.4341 83.8352 72.3126 84.1011 72.1875 84.375C72.1026 84.6297 72.0177 84.8844 71.9302 85.1468C71.3365 85.9916 70.8488 86.0425 69.8625 86.2267C69.6581 86.2585 69.4537 86.2904 69.2432 86.3233C68.8375 86.3952 68.4319 86.4675 68.0264 86.5402C67.8468 86.5693 67.6672 86.5984 67.4821 86.6284C67.0141 86.7017 67.0141 86.7017 66.5625 86.9531C66.5625 88.9641 66.5625 90.975 66.5625 93.0469C68.5397 93.5522 68.5397 93.5522 70.5469 93.8965C71.1523 94.0324 71.4015 94.1065 71.7728 94.6097C71.9971 95.1123 71.9971 95.1123 72.193 95.6781C72.5568 96.7113 73.0837 97.6683 73.5763 98.6453C73.8787 99.5215 73.874 99.8993 73.5937 100.781C73.2393 101.427 72.8311 102.025 72.4072 102.627C72.2965 102.788 72.1858 102.95 72.0717 103.116C71.8 103.511 71.5253 103.904 71.25 104.297C72.5509 105.887 74.0073 107.31 75.4687 108.75C76.5076 108.196 77.5169 107.645 78.457 106.934C79.2181 106.407 79.4908 106.222 80.3906 106.172C81.0769 106.365 81.7171 106.645 82.3682 106.934C82.5411 107.007 82.7141 107.08 82.8923 107.156C83.2325 107.302 83.5708 107.452 83.9069 107.607C84.4192 107.843 84.4192 107.843 85.1614 108.055C86.1884 108.818 86.2323 109.928 86.4551 111.138C86.7016 112.392 86.7016 112.392 86.9531 113.672C88.9641 113.672 90.975 113.672 93.0469 113.672C93.3478 112.019 93.3478 112.019 93.6282 110.362C93.9666 108.707 93.9666 108.707 94.6751 108.169C95.219 107.929 95.7591 107.75 96.3281 107.578C96.6221 107.445 96.9139 107.307 97.2024 107.162C97.4698 107.039 97.7372 106.915 98.0127 106.787C98.2819 106.66 98.5511 106.532 98.8284 106.401C99.7894 106.119 100.12 106.212 101.016 106.641C101.608 106.979 102.177 107.346 102.744 107.725C102.969 107.872 102.969 107.872 103.199 108.023C103.566 108.264 103.932 108.507 104.297 108.75C105.887 107.449 107.31 105.993 108.75 104.531C108.196 103.492 107.645 102.483 106.934 101.543C106.407 100.782 106.222 100.509 106.172 99.6094C106.365 98.9231 106.645 98.2829 106.934 97.6318C107.007 97.4589 107.08 97.2859 107.156 97.1077C107.302 96.7678 107.451 96.4297 107.606 96.0936C107.842 95.5782 107.842 95.5782 108.079 94.8303C108.666 94.0076 109.17 93.954 110.137 93.7734C110.342 93.7415 110.546 93.7096 110.757 93.6768C111.162 93.6048 111.568 93.5325 111.974 93.4598C112.153 93.4307 112.333 93.4016 112.518 93.3716C112.986 93.2984 112.986 93.2984 113.437 93.0469C113.437 91.0359 113.437 89.025 113.437 86.9531C111.46 86.4479 111.46 86.4479 109.453 86.1035C108.848 85.9677 108.598 85.8935 108.227 85.3903C108.003 84.8877 108.003 84.8877 107.807 84.3219C107.443 83.2887 106.916 82.3317 106.424 81.3547C106.121 80.4785 106.126 80.1007 106.406 79.2188C106.761 78.5732 107.169 77.9747 107.593 77.3731C107.703 77.2117 107.814 77.0504 107.928 76.8842C108.2 76.489 108.475 76.0958 108.75 75.7031C107.449 74.1132 105.993 72.6902 104.531 71.25C103.226 71.9472 102.014 72.6849 100.837 73.5846C100.097 73.9283 99.689 73.8022 98.9062 73.5938C98.3535 73.384 97.8066 73.1584 97.2656 72.9199C96.8523 72.7396 96.8523 72.7396 96.4307 72.5556C96.1648 72.4341 95.8989 72.3126 95.625 72.1875C95.3703 72.1026 95.1156 72.0177 94.8532 71.9302C94.0084 71.3365 93.9576 70.8488 93.7733 69.8625C93.7415 69.6581 93.7096 69.4538 93.6768 69.2432C93.6048 68.8375 93.5325 68.4319 93.4598 68.0264C93.4307 67.8468 93.4016 67.6672 93.3716 67.4821C93.2984 67.0142 93.2984 67.0142 93.0469 66.5625C91.0359 66.5625 89.025 66.5625 86.9531 66.5625ZM15.4687 93.75C15.4687 97.3078 15.4687 100.866 15.4687 104.531C18.9492 104.531 22.4297 104.531 26.0156 104.531C26.0156 100.973 26.0156 97.4156 26.0156 93.75C24.7781 93.75 23.5406 93.75 22.2656 93.75C22.2541 94.1452 22.2427 94.5404 22.2308 94.9475C22.2132 95.4663 22.1955 95.9851 22.1777 96.5039C22.1668 96.8946 22.1668 96.8946 22.1558 97.2931C22.1467 97.5439 22.1376 97.7946 22.1283 98.053C22.1209 98.2837 22.1136 98.5145 22.106 98.7522C22.031 99.377 21.8804 99.7749 21.5625 100.313C20.1205 100.335 20.1205 100.335 19.6875 100.313C19.2647 99.8897 19.3976 99.2422 19.379 98.671C19.3691 98.3862 19.3593 98.1015 19.3492 97.8081C19.34 97.5082 19.3308 97.2084 19.3213 96.8994C19.3112 96.5987 19.301 96.2979 19.2906 95.988C19.2657 95.242 19.2421 94.496 19.2187 93.75C17.9812 93.75 16.7437 93.75 15.4687 93.75ZM33.9844 93.75C33.9844 97.3078 33.9844 100.866 33.9844 104.531C37.4648 104.531 40.9453 104.531 44.5312 104.531C44.5312 100.973 44.5312 97.4156 44.5312 93.75C43.2937 93.75 42.0562 93.75 40.7812 93.75C40.7039 95.9156 40.6266 98.0813 40.5469 100.313C39.8508 100.313 39.1547 100.313 38.4375 100.313C37.9843 99.4061 37.9028 99.0274 37.8717 98.053C37.8626 97.8022 37.8536 97.5515 37.8442 97.2931C37.837 97.0327 37.8297 96.7722 37.8223 96.5039C37.8132 96.2399 37.8041 95.9758 37.7948 95.7037C37.7727 95.0526 37.7533 94.4013 37.7344 93.75C36.4969 93.75 35.2594 93.75 33.9844 93.75Z" fill="white"/>
<path d="M69.7861 6.53415C72.9287 8.9091 75.1864 12.5341 75.9375 16.4063C76.0173 16.7978 76.0173 16.7978 76.0986 17.1973C76.6062 23.0854 74.5021 28.309 70.7813 32.8125C68.2808 35.6447 64.9208 37.9976 61.0474 38.259C56.9718 38.3352 53.6445 37.0693 50.6737 34.2575C46.7119 30.4088 43.9327 25.2884 43.7695 19.6875C43.8239 15.7264 45.1372 11.8831 47.8125 8.90628C47.975 8.71957 48.1376 8.53286 48.3051 8.34048C53.9653 2.23776 63.1236 1.98852 69.7861 6.53415ZM52.0313 9.14066C51.8826 9.24338 51.734 9.3461 51.5808 9.45193C49.0604 11.3712 47.4725 14.6222 46.9501 17.6853C46.3876 22.1504 48.1404 26.3519 50.8218 29.86C53.0376 32.5244 55.7372 34.7889 59.2914 35.246C62.1951 35.3585 64.7906 34.1189 66.9736 32.2641C68.6537 30.6728 69.8603 28.9441 71.0156 26.9532C71.1338 26.7559 71.2519 26.5586 71.3736 26.3553C73.2721 22.9219 73.5561 19.1818 72.4988 15.455C71.3996 11.9654 68.9305 9.54641 65.8594 7.73441C61.2001 5.62761 56.1603 6.13042 52.0313 9.14066Z" fill="white"/>
<path d="M98.4054 79.704C100.969 81.8747 102.702 85.0125 103.125 88.3594C103.374 92.3172 102.377 95.9483 99.7851 99.0088C97.4507 101.414 94.2383 102.961 90.8843 103.173C86.9333 103.227 83.3081 102.034 80.4327 99.2432C77.8886 96.3982 76.783 92.9819 76.8264 89.2145C77.027 85.6796 78.693 82.2782 81.3281 79.9219C86.4948 75.9051 93.1328 75.8916 98.4054 79.704ZM82.3095 83.3936C80.3828 85.7429 79.6337 88.4042 79.9218 91.4063C80.4978 94.3275 81.9301 96.7107 84.3749 98.4375C86.8509 99.9223 89.313 100.491 92.1817 99.9253C95.0002 99.1517 97.2682 97.5748 98.7817 95.051C100.153 92.448 100.5 89.9144 99.7119 87.041C98.781 84.3105 96.9995 82.2448 94.4531 80.9033C90.1461 78.9135 85.5547 79.9391 82.3095 83.3936Z" fill="white"/>
<path d="M22.9342 72.5122C23.2061 72.5134 23.4779 72.5146 23.7579 72.5158C24.0661 72.5144 24.3742 72.5129 24.6917 72.5115C25.0283 72.5159 25.3649 72.5205 25.7015 72.5253C26.0462 72.5263 26.3909 72.5269 26.7356 72.527C27.4578 72.5284 28.1797 72.5338 28.9018 72.5421C29.8285 72.5527 30.7549 72.5562 31.6816 72.5571C32.3932 72.5581 33.1047 72.5617 33.8163 72.5662C34.158 72.5682 34.4998 72.5698 34.8415 72.5709C35.3184 72.573 35.7954 72.5786 36.2723 72.5845C36.6797 72.5882 36.6797 72.5882 37.0954 72.592C37.7343 72.6563 37.7343 72.6563 38.2031 73.125C38.4685 73.8861 38.4699 74.6187 38.4752 75.4197C38.4775 75.6927 38.4797 75.9657 38.482 76.247C38.483 76.5409 38.484 76.8349 38.4851 77.1378C38.4864 77.4406 38.4877 77.7434 38.4891 78.0554C38.4916 78.6959 38.4929 79.3364 38.4938 79.9769C38.495 80.796 38.5007 81.615 38.5073 82.4341C38.5128 83.2175 38.5132 84.0008 38.5144 84.7843C38.5172 85.0777 38.5201 85.3712 38.5231 85.6736C38.5224 85.9473 38.5217 86.2211 38.521 86.5031C38.5223 86.8634 38.5223 86.8634 38.5236 87.2311C38.4225 88.0048 38.2045 88.4434 37.7343 89.0625C36.992 89.31 36.4589 89.3296 35.6791 89.3347C35.4014 89.3369 35.1237 89.3392 34.8375 89.3415C34.5373 89.3425 34.237 89.3435 33.9276 89.3445C33.6192 89.3458 33.3108 89.3472 32.9931 89.3485C32.3402 89.351 31.6873 89.3524 31.0344 89.3532C30.1992 89.3545 29.3642 89.3601 28.5291 89.3668C27.7309 89.3722 26.9328 89.3727 26.1346 89.3738C25.6856 89.3781 25.6856 89.3781 25.2275 89.3826C24.9483 89.3819 24.6691 89.3812 24.3815 89.3804C24.1364 89.3813 23.8913 89.3821 23.6388 89.383C22.8588 89.2828 22.42 89.0686 21.7968 88.5938C21.5494 87.8515 21.5298 87.3183 21.5247 86.5385C21.5224 86.2608 21.5202 85.9831 21.5179 85.697C21.5169 85.3967 21.5159 85.0964 21.5148 84.787C21.5135 84.4786 21.5122 84.1703 21.5108 83.8526C21.5083 83.1997 21.507 82.5468 21.5061 81.8938C21.5049 81.0587 21.4992 80.2236 21.4926 79.3885C21.4871 78.5904 21.4867 77.7922 21.4855 76.994C21.4827 76.6947 21.4798 76.3953 21.4768 76.0869C21.4775 75.8077 21.4782 75.5286 21.4789 75.2409C21.4781 74.9958 21.4772 74.7507 21.4763 74.4982C21.6138 73.4288 21.8209 72.7521 22.9342 72.5122ZM24.6093 75.7031C24.6093 79.1836 24.6093 82.6641 24.6093 86.25C28.1671 86.25 31.7249 86.25 35.3906 86.25C35.3906 82.7695 35.3906 79.2891 35.3906 75.7031C34.0757 75.7031 32.7609 75.7031 31.4062 75.7031C31.3289 77.7141 31.2515 79.725 31.1718 81.7969C29.7656 82.2656 29.7656 82.2656 29.2236 82.1192C28.7222 81.7106 28.7101 81.4886 28.5937 80.8594C28.56 80.4535 28.5361 80.0468 28.5195 79.6399C28.5097 79.4103 28.4999 79.1807 28.4898 78.9441C28.4806 78.706 28.4714 78.468 28.4619 78.2227C28.4517 77.981 28.4416 77.7393 28.4312 77.4903C28.4064 76.8946 28.3827 76.2989 28.3593 75.7031C27.1218 75.7031 25.8843 75.7031 24.6093 75.7031Z" fill="white"/>
</svg>
